<?xml version="1.0" encoding="utf-8" standalone="no"?>
<!DOCTYPE svg PUBLIC "-//W3C//DTD SVG 1.1//EN" "http://www.w3.org/Graphics/SVG/1.1/DTD/svg11.dtd">
<svg width="3000px" height="3000px" version="1.1" xmlns="http://www.w3.org/2000/svg" xmlns:xlink="http://www.w3.org/1999/xlink">
<g id="ideograms">
<path d="M1500.000,425.000 A1075.000,1075.000 40.000 0,1 1534.049,425.539 L1535.632,375.564 A1125.000,1125.000 0.000 0,0 1500.000,375.000 Z" style="stroke-linecap:round;fill:rgb(116,196,118);fill-opacity:0.33;" />
<text x="1528.7" y="285.3" font-size="18.2px" font-family="CMUBright-Roman" style="text-anchor:start;fill:rgb(0,0,0);" transform="rotate(270.9,1528.7,285.3)" >R<tspan baseline-shift="-40%" font-size="90%">s</tspan>caffold<tspan baseline-shift="-40%" font-size="90%">2</tspan>5</text>
<line x1='1500.0' y1='375.0' x2='1500.0' y2='355.0' style="stroke-width:4.0;stroke:rgb(0,0,0);stroke-linecap:round;fill:none;" />
<text x="1506.5" y="345.0" font-size="18.2px" font-family="CMUBright-Roman" style="text-anchor:start;fill:rgb(0,0,0);" transform="rotate(270.0,1506.5,345.0)" >0</text>
<g id="highlighttrack_0">
<path d="M1523.307,425.253 A1075.000,1075.000 40.000 0,1 1527.124,425.342 L1528.385,375.358 A1125.000,1125.000 0.000 0,0 1524.391,375.264 Z" style="stroke-width:4.0;stroke:rgb(0,0,0);stroke-linecap:round;fill:rgb(116,196,118);" />
</g>
<path d="M1599.489,429.614 A1075.000,1075.000 40.000 0,1 1603.661,430.010 L1608.482,380.243 A1125.000,1125.000 0.000 0,0 1604.116,379.828 Z" style="stroke-linecap:round;fill:rgb(116,196,118);fill-opacity:0.33;" />
<text x="1624.3" y="291.4" font-size="18.2px" font-family="CMUBright-Roman" style="text-anchor:start;fill:rgb(0,0,0);" transform="rotate(275.4,1624.3,291.4)" >R<tspan baseline-shift="-40%" font-size="90%">s</tspan>caffold<tspan baseline-shift="-40%" font-size="90%">2</tspan>9</text>
<line x1='1604.1' y1='379.8' x2='1606.0' y2='359.9' style="stroke-width:4.0;stroke:rgb(0,0,0);stroke-linecap:round;fill:none;" />
<text x="1613.4" y="350.6" font-size="18.2px" font-family="CMUBright-Roman" style="text-anchor:start;fill:rgb(0,0,0);" transform="rotate(275.3,1613.4,350.6)" >0</text>
<g id="highlighttrack_0">
<path d="M1599.721,429.635 A1075.000,1075.000 40.000 0,1 1603.596,430.003 L1608.414,380.236 A1125.000,1125.000 0.000 0,0 1604.359,379.851 Z" style="stroke-width:4.0;stroke:rgb(0,0,0);stroke-linecap:round;fill:rgb(116,196,118);" />
</g>
<path d="M1668.699,438.319 A1075.000,1075.000 40.000 1,1 1434.464,427.000 L1431.416,377.093 A1125.000,1125.000 0.000 1,0 1676.545,388.939 Z" style="stroke-linecap:round;fill:rgb(116,196,118);fill-opacity:0.33;" />
<text x="1450.8" y="2714.0" font-size="18.2px" font-family="CMUBright-Roman" style="text-anchor:end;fill:rgb(0,0,0);" transform="rotate(-87.2,1450.8,2714.0)" >NZ<tspan baseline-shift="-40%" font-size="90%">C</tspan>P020373.1</text>
<line x1='1676.5' y1='388.9' x2='1679.7' y2='369.2' style="stroke-width:4.0;stroke:rgb(0,0,0);stroke-linecap:round;fill:none;" />
<text x="1687.7" y="360.3" font-size="18.2px" font-family="CMUBright-Roman" style="text-anchor:start;fill:rgb(0,0,0);" transform="rotate(279.0,1687.7,360.3)" >0</text>
<line x1='1746.2' y1='402.3' x2='1750.6' y2='382.8' style="stroke-width:4.0;stroke:rgb(0,0,0);stroke-linecap:round;fill:none;" />
<text x="1759.1" y="374.4" font-size="18.2px" font-family="CMUBright-Roman" style="text-anchor:start;fill:rgb(0,0,0);" transform="rotate(282.6,1759.1,374.4)" >50</text>
<line x1='1814.9' y1='420.0' x2='1820.5' y2='400.8' style="stroke-width:4.0;stroke:rgb(0,0,0);stroke-linecap:round;fill:none;" />
<text x="1829.5" y="393.0" font-size="18.2px" font-family="CMUBright-Roman" style="text-anchor:start;fill:rgb(0,0,0);" transform="rotate(286.3,1829.5,393.0)" >100</text>
<line x1='1882.3' y1='442.0' x2='1889.1' y2='423.2' style="stroke-width:4.0;stroke:rgb(0,0,0);stroke-linecap:round;fill:none;" />
<text x="1898.6" y="416.0" font-size="18.2px" font-family="CMUBright-Roman" style="text-anchor:start;fill:rgb(0,0,0);" transform="rotate(289.9,1898.6,416.0)" >150</text>
<line x1='1948.2' y1='468.2' x2='1956.2' y2='449.8' style="stroke-width:4.0;stroke:rgb(0,0,0);stroke-linecap:round;fill:none;" />
<text x="1966.2" y="443.2" font-size="18.2px" font-family="CMUBright-Roman" style="text-anchor:start;fill:rgb(0,0,0);" transform="rotate(293.5,1966.2,443.2)" >200</text>
<line x1='2012.4' y1='498.5' x2='2021.5' y2='480.7' style="stroke-width:4.0;stroke:rgb(0,0,0);stroke-linecap:round;fill:none;" />
<text x="2031.8" y="474.7" font-size="18.2px" font-family="CMUBright-Roman" style="text-anchor:start;fill:rgb(0,0,0);" transform="rotate(297.1,2031.8,474.7)" >250</text>
<line x1='2074.5' y1='532.7' x2='2084.7' y2='515.5' style="stroke-width:4.0;stroke:rgb(0,0,0);stroke-linecap:round;fill:none;" />
<text x="2095.4" y="510.3" font-size="18.2px" font-family="CMUBright-Roman" style="text-anchor:start;fill:rgb(0,0,0);" transform="rotate(300.7,2095.4,510.3)" >300</text>
<line x1='2134.3' y1='570.9' x2='2145.6' y2='554.3' style="stroke-width:4.0;stroke:rgb(0,0,0);stroke-linecap:round;fill:none;" />
<text x="2156.6" y="549.8" font-size="18.2px" font-family="CMUBright-Roman" style="text-anchor:start;fill:rgb(0,0,0);" transform="rotate(304.3,2156.6,549.8)" >350</text>
<line x1='2191.6' y1='612.7' x2='2203.9' y2='596.9' style="stroke-width:4.0;stroke:rgb(0,0,0);stroke-linecap:round;fill:none;" />
<text x="2215.1" y="593.0" font-size="18.2px" font-family="CMUBright-Roman" style="text-anchor:start;fill:rgb(0,0,0);" transform="rotate(307.9,2215.1,593.0)" >400</text>
<line x1='2246.1' y1='658.0' x2='2259.4' y2='643.1' style="stroke-width:4.0;stroke:rgb(0,0,0);stroke-linecap:round;fill:none;" />
<text x="2270.9" y="639.9" font-size="18.2px" font-family="CMUBright-Roman" style="text-anchor:start;fill:rgb(0,0,0);" transform="rotate(311.5,2270.9,639.9)" >450</text>
<line x1='2297.7' y1='706.7' x2='2311.9' y2='692.6' style="stroke-width:4.0;stroke:rgb(0,0,0);stroke-linecap:round;fill:none;" />
<text x="2323.5" y="690.2" font-size="18.2px" font-family="CMUBright-Roman" style="text-anchor:start;fill:rgb(0,0,0);" transform="rotate(315.2,2323.5,690.2)" >500</text>
<line x1='2346.1' y1='758.6' x2='2361.1' y2='745.4' style="stroke-width:4.0;stroke:rgb(0,0,0);stroke-linecap:round;fill:none;" />
<text x="2372.9" y="743.7" font-size="18.2px" font-family="CMUBright-Roman" style="text-anchor:start;fill:rgb(0,0,0);" transform="rotate(318.8,2372.9,743.7)" >550</text>
<line x1='2391.1' y1='813.4' x2='2407.0' y2='801.2' style="stroke-width:4.0;stroke:rgb(0,0,0);stroke-linecap:round;fill:none;" />
<text x="2418.9" y="800.2" font-size="18.2px" font-family="CMUBright-Roman" style="text-anchor:start;fill:rgb(0,0,0);" transform="rotate(322.4,2418.9,800.2)" >600</text>
<line x1='2432.6' y1='870.9' x2='2449.2' y2='859.7' style="stroke-width:4.0;stroke:rgb(0,0,0);stroke-linecap:round;fill:none;" />
<text x="2461.1" y="859.5" font-size="18.2px" font-family="CMUBright-Roman" style="text-anchor:start;fill:rgb(0,0,0);" transform="rotate(326.0,2461.1,859.5)" >650</text>
<line x1='2470.4' y1='930.9' x2='2487.7' y2='920.8' style="stroke-width:4.0;stroke:rgb(0,0,0);stroke-linecap:round;fill:none;" />
<text x="2499.6" y="921.3" font-size="18.2px" font-family="CMUBright-Roman" style="text-anchor:start;fill:rgb(0,0,0);" transform="rotate(329.6,2499.6,921.3)" >700</text>
<line x1='2504.4' y1='993.2' x2='2522.2' y2='984.2' style="stroke-width:4.0;stroke:rgb(0,0,0);stroke-linecap:round;fill:none;" />
<text x="2534.1" y="985.5" font-size="18.2px" font-family="CMUBright-Roman" style="text-anchor:start;fill:rgb(0,0,0);" transform="rotate(333.2,2534.1,985.5)" >750</text>
<line x1='2534.3' y1='1057.5' x2='2552.7' y2='1049.6' style="stroke-width:4.0;stroke:rgb(0,0,0);stroke-linecap:round;fill:none;" />
<text x="2564.4" y="1051.7" font-size="18.2px" font-family="CMUBright-Roman" style="text-anchor:start;fill:rgb(0,0,0);" transform="rotate(336.8,2564.4,1051.7)" >800</text>
<line x1='2560.1' y1='1123.6' x2='2579.0' y2='1116.9' style="stroke-width:4.0;stroke:rgb(0,0,0);stroke-linecap:round;fill:none;" />
<text x="2590.6" y="1119.6" font-size="18.2px" font-family="CMUBright-Roman" style="text-anchor:start;fill:rgb(0,0,0);" transform="rotate(340.5,2590.6,1119.6)" >850</text>
<line x1='2581.8' y1='1191.1' x2='2601.0' y2='1185.6' style="stroke-width:4.0;stroke:rgb(0,0,0);stroke-linecap:round;fill:none;" />
<text x="2612.4" y="1189.1" font-size="18.2px" font-family="CMUBright-Roman" style="text-anchor:start;fill:rgb(0,0,0);" transform="rotate(344.1,2612.4,1189.1)" >900</text>
<line x1='2599.1' y1='1259.9' x2='2618.6' y2='1255.6' style="stroke-width:4.0;stroke:rgb(0,0,0);stroke-linecap:round;fill:none;" />
<text x="2629.8" y="1259.8" font-size="18.2px" font-family="CMUBright-Roman" style="text-anchor:start;fill:rgb(0,0,0);" transform="rotate(347.7,2629.8,1259.8)" >950</text>
<line x1='2612.0' y1='1329.6' x2='2631.8' y2='1326.6' style="stroke-width:4.0;stroke:rgb(0,0,0);stroke-linecap:round;fill:none;" />
<text x="2642.6" y="1331.5" font-size="18.2px" font-family="CMUBright-Roman" style="text-anchor:start;fill:rgb(0,0,0);" transform="rotate(351.3,2642.6,1331.5)" >1000</text>
<line x1='2620.6' y1='1400.0' x2='2640.5' y2='1398.3' style="stroke-width:4.0;stroke:rgb(0,0,0);stroke-linecap:round;fill:none;" />
<text x="2651.0" y="1403.9" font-size="18.2px" font-family="CMUBright-Roman" style="text-anchor:start;fill:rgb(0,0,0);" transform="rotate(354.9,2651.0,1403.9)" >1050</text>
<line x1='2624.6' y1='1470.9' x2='2644.6' y2='1470.3' style="stroke-width:4.0;stroke:rgb(0,0,0);stroke-linecap:round;fill:none;" />
<text x="2654.8" y="1476.6" font-size="18.2px" font-family="CMUBright-Roman" style="text-anchor:start;fill:rgb(0,0,0);" transform="rotate(358.5,2654.8,1476.6)" >1100</text>
<line x1='2624.2' y1='1541.8' x2='2644.2' y2='1542.5' style="stroke-width:4.0;stroke:rgb(0,0,0);stroke-linecap:round;fill:none;" />
<text x="2653.9" y="1549.4" font-size="18.2px" font-family="CMUBright-Roman" style="text-anchor:start;fill:rgb(0,0,0);" transform="rotate(2.1,2653.9,1549.4)" >1150</text>
<line x1='2619.4' y1='1612.6' x2='2639.3' y2='1614.6' style="stroke-width:4.0;stroke:rgb(0,0,0);stroke-linecap:round;fill:none;" />
<text x="2648.5" y="1622.0" font-size="18.2px" font-family="CMUBright-Roman" style="text-anchor:start;fill:rgb(0,0,0);" transform="rotate(5.7,2648.5,1622.0)" >1200</text>
<line x1='2610.0' y1='1682.9' x2='2629.8' y2='1686.1' style="stroke-width:4.0;stroke:rgb(0,0,0);stroke-linecap:round;fill:none;" />
<text x="2638.6" y="1694.2" font-size="18.2px" font-family="CMUBright-Roman" style="text-anchor:start;fill:rgb(0,0,0);" transform="rotate(9.4,2638.6,1694.2)" >1250</text>
<line x1='2596.3' y1='1752.5' x2='2615.8' y2='1756.9' style="stroke-width:4.0;stroke:rgb(0,0,0);stroke-linecap:round;fill:none;" />
<text x="2624.1" y="1765.5" font-size="18.2px" font-family="CMUBright-Roman" style="text-anchor:start;fill:rgb(0,0,0);" transform="rotate(13.0,2624.1,1765.5)" >1300</text>
<line x1='2578.2' y1='1821.0' x2='2597.4' y2='1826.7' style="stroke-width:4.0;stroke:rgb(0,0,0);stroke-linecap:round;fill:none;" />
<text x="2605.1" y="1835.8" font-size="18.2px" font-family="CMUBright-Roman" style="text-anchor:start;fill:rgb(0,0,0);" transform="rotate(16.6,2605.1,1835.8)" >1350</text>
<line x1='2555.8' y1='1888.4' x2='2574.6' y2='1895.3' style="stroke-width:4.0;stroke:rgb(0,0,0);stroke-linecap:round;fill:none;" />
<text x="2581.7" y="1904.8" font-size="18.2px" font-family="CMUBright-Roman" style="text-anchor:start;fill:rgb(0,0,0);" transform="rotate(20.2,2581.7,1904.8)" >1400</text>
<line x1='2529.3' y1='1954.1' x2='2547.6' y2='1962.2' style="stroke-width:4.0;stroke:rgb(0,0,0);stroke-linecap:round;fill:none;" />
<text x="2554.1" y="1972.2" font-size="18.2px" font-family="CMUBright-Roman" style="text-anchor:start;fill:rgb(0,0,0);" transform="rotate(23.8,2554.1,1972.2)" >1450</text>
<line x1='2498.6' y1='2018.1' x2='2516.4' y2='2027.3' style="stroke-width:4.0;stroke:rgb(0,0,0);stroke-linecap:round;fill:none;" />
<text x="2522.2" y="2037.7" font-size="18.2px" font-family="CMUBright-Roman" style="text-anchor:start;fill:rgb(0,0,0);" transform="rotate(27.4,2522.2,2037.7)" >1500</text>
<line x1='2464.0' y1='2080.0' x2='2481.1' y2='2090.3' style="stroke-width:4.0;stroke:rgb(0,0,0);stroke-linecap:round;fill:none;" />
<text x="2486.3" y="2101.0" font-size="18.2px" font-family="CMUBright-Roman" style="text-anchor:start;fill:rgb(0,0,0);" transform="rotate(31.0,2486.3,2101.0)" >1550</text>
<line x1='2425.5' y1='2139.6' x2='2442.0' y2='2150.9' style="stroke-width:4.0;stroke:rgb(0,0,0);stroke-linecap:round;fill:none;" />
<text x="2446.5" y="2162.0" font-size="18.2px" font-family="CMUBright-Roman" style="text-anchor:start;fill:rgb(0,0,0);" transform="rotate(34.6,2446.5,2162.0)" >1600</text>
<line x1='2383.4' y1='2196.6' x2='2399.1' y2='2209.0' style="stroke-width:4.0;stroke:rgb(0,0,0);stroke-linecap:round;fill:none;" />
<text x="2402.9" y="2220.3" font-size="18.2px" font-family="CMUBright-Roman" style="text-anchor:start;fill:rgb(0,0,0);" transform="rotate(38.3,2402.9,2220.3)" >1650</text>
<line x1='2337.7' y1='2250.9' x2='2352.6' y2='2264.3' style="stroke-width:4.0;stroke:rgb(0,0,0);stroke-linecap:round;fill:none;" />
<text x="2355.7" y="2275.8" font-size="18.2px" font-family="CMUBright-Roman" style="text-anchor:start;fill:rgb(0,0,0);" transform="rotate(41.9,2355.7,2275.8)" >1700</text>
<line x1='2288.7' y1='2302.2' x2='2302.7' y2='2316.5' style="stroke-width:4.0;stroke:rgb(0,0,0);stroke-linecap:round;fill:none;" />
<text x="2305.1" y="2328.1" font-size="18.2px" font-family="CMUBright-Roman" style="text-anchor:start;fill:rgb(0,0,0);" transform="rotate(45.5,2305.1,2328.1)" >1750</text>
<line x1='2236.6' y1='2350.3' x2='2249.7' y2='2365.4' style="stroke-width:4.0;stroke:rgb(0,0,0);stroke-linecap:round;fill:none;" />
<text x="2251.3" y="2377.2" font-size="18.2px" font-family="CMUBright-Roman" style="text-anchor:start;fill:rgb(0,0,0);" transform="rotate(49.1,2251.3,2377.2)" >1800</text>
<line x1='2181.6' y1='2395.0' x2='2193.7' y2='2411.0' style="stroke-width:4.0;stroke:rgb(0,0,0);stroke-linecap:round;fill:none;" />
<text x="2194.6" y="2422.8" font-size="18.2px" font-family="CMUBright-Roman" style="text-anchor:start;fill:rgb(0,0,0);" transform="rotate(52.7,2194.6,2422.8)" >1850</text>
<line x1='2123.8' y1='2436.2' x2='2134.9' y2='2452.9' style="stroke-width:4.0;stroke:rgb(0,0,0);stroke-linecap:round;fill:none;" />
<text x="2135.0" y="2464.8" font-size="18.2px" font-family="CMUBright-Roman" style="text-anchor:start;fill:rgb(0,0,0);" transform="rotate(56.3,2135.0,2464.8)" >1900</text>
<line x1='2063.6' y1='2473.7' x2='2073.6' y2='2491.0' style="stroke-width:4.0;stroke:rgb(0,0,0);stroke-linecap:round;fill:none;" />
<text x="2073.0" y="2502.9" font-size="18.2px" font-family="CMUBright-Roman" style="text-anchor:start;fill:rgb(0,0,0);" transform="rotate(59.9,2073.0,2502.9)" >1950</text>
<line x1='2001.1' y1='2507.2' x2='2010.0' y2='2525.2' style="stroke-width:4.0;stroke:rgb(0,0,0);stroke-linecap:round;fill:none;" />
<text x="2008.6" y="2537.0" font-size="18.2px" font-family="CMUBright-Roman" style="text-anchor:start;fill:rgb(0,0,0);" transform="rotate(63.6,2008.6,2537.0)" >2000</text>
<line x1='1936.6' y1='2536.8' x2='1944.4' y2='2555.3' style="stroke-width:4.0;stroke:rgb(0,0,0);stroke-linecap:round;fill:none;" />
<text x="1942.3" y="2567.0" font-size="18.2px" font-family="CMUBright-Roman" style="text-anchor:start;fill:rgb(0,0,0);" transform="rotate(67.2,1942.3,2567.0)" >2050</text>
<line x1='1870.4' y1='2562.3' x2='1877.0' y2='2581.2' style="stroke-width:4.0;stroke:rgb(0,0,0);stroke-linecap:round;fill:none;" />
<text x="1874.1" y="2592.7" font-size="18.2px" font-family="CMUBright-Roman" style="text-anchor:start;fill:rgb(0,0,0);" transform="rotate(70.8,1874.1,2592.7)" >2100</text>
<line x1='1802.7' y1='2583.5' x2='1808.1' y2='2602.8' style="stroke-width:4.0;stroke:rgb(0,0,0);stroke-linecap:round;fill:none;" />
<text x="1804.5" y="2614.1" font-size="18.2px" font-family="CMUBright-Roman" style="text-anchor:start;fill:rgb(0,0,0);" transform="rotate(74.4,1804.5,2614.1)" >2150</text>
<line x1='1733.8' y1='2600.4' x2='1738.0' y2='2620.0' style="stroke-width:4.0;stroke:rgb(0,0,0);stroke-linecap:round;fill:none;" />
<text x="1733.7" y="2631.1" font-size="18.2px" font-family="CMUBright-Roman" style="text-anchor:start;fill:rgb(0,0,0);" transform="rotate(78.0,1733.7,2631.1)" >2200</text>
<line x1='1664.0' y1='2613.0' x2='1667.0' y2='2632.8' style="stroke-width:4.0;stroke:rgb(0,0,0);stroke-linecap:round;fill:none;" />
<text x="1662.0" y="2643.6" font-size="18.2px" font-family="CMUBright-Roman" style="text-anchor:start;fill:rgb(0,0,0);" transform="rotate(81.6,1662.0,2643.6)" >2250</text>
<line x1='1593.6' y1='2621.1' x2='1595.2' y2='2641.0' style="stroke-width:4.0;stroke:rgb(0,0,0);stroke-linecap:round;fill:none;" />
<text x="1589.6" y="2651.5" font-size="18.2px" font-family="CMUBright-Roman" style="text-anchor:start;fill:rgb(0,0,0);" transform="rotate(85.2,1589.6,2651.5)" >2300</text>
<line x1='1522.7' y1='2624.8' x2='1523.1' y2='2644.8' style="stroke-width:4.0;stroke:rgb(0,0,0);stroke-linecap:round;fill:none;" />
<text x="1516.8" y="2654.9" font-size="18.2px" font-family="CMUBright-Roman" style="text-anchor:start;fill:rgb(0,0,0);" transform="rotate(88.8,1516.8,2654.9)" >2350</text>
<line x1='1451.8' y1='2624.0' x2='1451.0' y2='2643.9' style="stroke-width:4.0;stroke:rgb(0,0,0);stroke-linecap:round;fill:none;" />
<text x="1457.0" y="2654.2" font-size="18.2px" font-family="CMUBright-Roman" style="text-anchor:end;fill:rgb(0,0,0);" transform="rotate(-87.5,1457.0,2654.2)" >2400</text>
<line x1='1381.1' y1='2618.7' x2='1379.0' y2='2638.6' style="stroke-width:4.0;stroke:rgb(0,0,0);stroke-linecap:round;fill:none;" />
<text x="1384.4" y="2649.2" font-size="18.2px" font-family="CMUBright-Roman" style="text-anchor:end;fill:rgb(0,0,0);" transform="rotate(-83.9,1384.4,2649.2)" >2450</text>
<line x1='1310.8' y1='2609.0' x2='1307.5' y2='2628.7' style="stroke-width:4.0;stroke:rgb(0,0,0);stroke-linecap:round;fill:none;" />
<text x="1312.2" y="2639.6" font-size="18.2px" font-family="CMUBright-Roman" style="text-anchor:end;fill:rgb(0,0,0);" transform="rotate(-80.3,1312.2,2639.6)" >2500</text>
<line x1='1241.3' y1='2594.9' x2='1236.7' y2='2614.3' style="stroke-width:4.0;stroke:rgb(0,0,0);stroke-linecap:round;fill:none;" />
<text x="1240.7" y="2625.5" font-size="18.2px" font-family="CMUBright-Roman" style="text-anchor:end;fill:rgb(0,0,0);" transform="rotate(-76.7,1240.7,2625.5)" >2550</text>
<line x1='1172.8' y1='2576.4' x2='1167.0' y2='2595.5' style="stroke-width:4.0;stroke:rgb(0,0,0);stroke-linecap:round;fill:none;" />
<text x="1170.3" y="2607.0" font-size="18.2px" font-family="CMUBright-Roman" style="text-anchor:end;fill:rgb(0,0,0);" transform="rotate(-73.1,1170.3,2607.0)" >2600</text>
<line x1='1105.6' y1='2553.6' x2='1098.6' y2='2572.3' style="stroke-width:4.0;stroke:rgb(0,0,0);stroke-linecap:round;fill:none;" />
<text x="1101.2" y="2584.0" font-size="18.2px" font-family="CMUBright-Roman" style="text-anchor:end;fill:rgb(0,0,0);" transform="rotate(-69.5,1101.2,2584.0)" >2650</text>
<line x1='1040.0' y1='2526.7' x2='1031.9' y2='2544.9' style="stroke-width:4.0;stroke:rgb(0,0,0);stroke-linecap:round;fill:none;" />
<text x="1033.7" y="2556.7" font-size="18.2px" font-family="CMUBright-Roman" style="text-anchor:end;fill:rgb(0,0,0);" transform="rotate(-65.9,1033.7,2556.7)" >2700</text>
<line x1='976.2' y1='2495.6' x2='966.9' y2='2513.3' style="stroke-width:4.0;stroke:rgb(0,0,0);stroke-linecap:round;fill:none;" />
<text x="968.0" y="2525.2" font-size="18.2px" font-family="CMUBright-Roman" style="text-anchor:end;fill:rgb(0,0,0);" transform="rotate(-62.3,968.0,2525.2)" >2750</text>
<line x1='914.5' y1='2460.7' x2='904.1' y2='2477.7' style="stroke-width:4.0;stroke:rgb(0,0,0);stroke-linecap:round;fill:none;" />
<text x="904.5" y="2489.6" font-size="18.2px" font-family="CMUBright-Roman" style="text-anchor:end;fill:rgb(0,0,0);" transform="rotate(-58.6,904.5,2489.6)" >2800</text>
<line x1='855.2' y1='2421.9' x2='843.7' y2='2438.2' style="stroke-width:4.0;stroke:rgb(0,0,0);stroke-linecap:round;fill:none;" />
<text x="843.3" y="2450.1" font-size="18.2px" font-family="CMUBright-Roman" style="text-anchor:end;fill:rgb(0,0,0);" transform="rotate(-55.0,843.3,2450.1)" >2850</text>
<line x1='798.4' y1='2379.4' x2='785.9' y2='2395.0' style="stroke-width:4.0;stroke:rgb(0,0,0);stroke-linecap:round;fill:none;" />
<text x="784.7" y="2406.9" font-size="18.2px" font-family="CMUBright-Roman" style="text-anchor:end;fill:rgb(0,0,0);" transform="rotate(-51.4,784.7,2406.9)" >2900</text>
<line x1='744.3' y1='2333.4' x2='730.9' y2='2348.2' style="stroke-width:4.0;stroke:rgb(0,0,0);stroke-linecap:round;fill:none;" />
<text x="729.0" y="2360.0" font-size="18.2px" font-family="CMUBright-Roman" style="text-anchor:end;fill:rgb(0,0,0);" transform="rotate(-47.8,729.0,2360.0)" >2950</text>
<line x1='693.3' y1='2284.1' x2='679.0' y2='2298.1' style="stroke-width:4.0;stroke:rgb(0,0,0);stroke-linecap:round;fill:none;" />
<text x="676.3" y="2309.7" font-size="18.2px" font-family="CMUBright-Roman" style="text-anchor:end;fill:rgb(0,0,0);" transform="rotate(-44.2,676.3,2309.7)" >3000</text>
<line x1='645.5' y1='2231.8' x2='630.3' y2='2244.8' style="stroke-width:4.0;stroke:rgb(0,0,0);stroke-linecap:round;fill:none;" />
<text x="627.0" y="2256.2" font-size="18.2px" font-family="CMUBright-Roman" style="text-anchor:end;fill:rgb(0,0,0);" transform="rotate(-40.6,627.0,2256.2)" >3050</text>
<line x1='601.1' y1='2176.5' x2='585.1' y2='2188.5' style="stroke-width:4.0;stroke:rgb(0,0,0);stroke-linecap:round;fill:none;" />
<text x="581.0" y="2199.7" font-size="18.2px" font-family="CMUBright-Roman" style="text-anchor:end;fill:rgb(0,0,0);" transform="rotate(-37.0,581.0,2199.7)" >3100</text>
<line x1='560.2' y1='2118.5' x2='543.5' y2='2129.5' style="stroke-width:4.0;stroke:rgb(0,0,0);stroke-linecap:round;fill:none;" />
<text x="538.8" y="2140.4" font-size="18.2px" font-family="CMUBright-Roman" style="text-anchor:end;fill:rgb(0,0,0);" transform="rotate(-33.3,538.8,2140.4)" >3150</text>
<line x1='523.1' y1='2058.0' x2='505.8' y2='2067.9' style="stroke-width:4.0;stroke:rgb(0,0,0);stroke-linecap:round;fill:none;" />
<text x="500.3" y="2078.5" font-size="18.2px" font-family="CMUBright-Roman" style="text-anchor:end;fill:rgb(0,0,0);" transform="rotate(-29.7,500.3,2078.5)" >3200</text>
<line x1='489.9' y1='1995.3' x2='472.0' y2='2004.1' style="stroke-width:4.0;stroke:rgb(0,0,0);stroke-linecap:round;fill:none;" />
<text x="465.9" y="2014.4" font-size="18.2px" font-family="CMUBright-Roman" style="text-anchor:end;fill:rgb(0,0,0);" transform="rotate(-26.1,465.9,2014.4)" >3250</text>
<line x1='460.7' y1='1930.7' x2='442.2' y2='1938.4' style="stroke-width:4.0;stroke:rgb(0,0,0);stroke-linecap:round;fill:none;" />
<text x="435.5" y="1948.2" font-size="18.2px" font-family="CMUBright-Roman" style="text-anchor:end;fill:rgb(0,0,0);" transform="rotate(-22.5,435.5,1948.2)" >3300</text>
<line x1='435.6' y1='1864.4' x2='416.7' y2='1870.8' style="stroke-width:4.0;stroke:rgb(0,0,0);stroke-linecap:round;fill:none;" />
<text x="409.4" y="1880.2" font-size="18.2px" font-family="CMUBright-Roman" style="text-anchor:end;fill:rgb(0,0,0);" transform="rotate(-18.9,409.4,1880.2)" >3350</text>
<line x1='414.8' y1='1796.6' x2='395.5' y2='1801.8' style="stroke-width:4.0;stroke:rgb(0,0,0);stroke-linecap:round;fill:none;" />
<text x="387.6" y="1810.7" font-size="18.2px" font-family="CMUBright-Roman" style="text-anchor:end;fill:rgb(0,0,0);" transform="rotate(-15.3,387.6,1810.7)" >3400</text>
<line x1='398.3' y1='1727.6' x2='378.7' y2='1731.6' style="stroke-width:4.0;stroke:rgb(0,0,0);stroke-linecap:round;fill:none;" />
<text x="370.2" y="1740.0" font-size="18.2px" font-family="CMUBright-Roman" style="text-anchor:end;fill:rgb(0,0,0);" transform="rotate(-11.7,370.2,1740.0)" >3450</text>
<line x1='386.1' y1='1657.7' x2='366.3' y2='1660.5' style="stroke-width:4.0;stroke:rgb(0,0,0);stroke-linecap:round;fill:none;" />
<text x="357.3" y="1668.3" font-size="18.2px" font-family="CMUBright-Roman" style="text-anchor:end;fill:rgb(0,0,0);" transform="rotate(-8.1,357.3,1668.3)" >3500</text>
<line x1='378.4' y1='1587.2' x2='358.4' y2='1588.7' style="stroke-width:4.0;stroke:rgb(0,0,0);stroke-linecap:round;fill:none;" />
<text x="349.0" y="1596.0" font-size="18.2px" font-family="CMUBright-Roman" style="text-anchor:end;fill:rgb(0,0,0);" transform="rotate(-4.4,349.0,1596.0)" >3550</text>
<line x1='375.1' y1='1516.3' x2='355.1' y2='1516.6' style="stroke-width:4.0;stroke:rgb(0,0,0);stroke-linecap:round;fill:none;" />
<text x="345.2" y="1523.3" font-size="18.2px" font-family="CMUBright-Roman" style="text-anchor:end;fill:rgb(0,0,0);" transform="rotate(-0.8,345.2,1523.3)" >3600</text>
<line x1='376.3' y1='1445.4' x2='356.3' y2='1444.4' style="stroke-width:4.0;stroke:rgb(0,0,0);stroke-linecap:round;fill:none;" />
<text x="346.1" y="1450.5" font-size="18.2px" font-family="CMUBright-Roman" style="text-anchor:end;fill:rgb(0,0,0);" transform="rotate(2.8,346.1,1450.5)" >3650</text>
<line x1='382.0' y1='1374.7' x2='362.1' y2='1372.5' style="stroke-width:4.0;stroke:rgb(0,0,0);stroke-linecap:round;fill:none;" />
<text x="351.5" y="1377.8" font-size="18.2px" font-family="CMUBright-Roman" style="text-anchor:end;fill:rgb(0,0,0);" transform="rotate(6.4,351.5,1377.8)" >3700</text>
<line x1='392.1' y1='1304.5' x2='372.4' y2='1301.0' style="stroke-width:4.0;stroke:rgb(0,0,0);stroke-linecap:round;fill:none;" />
<text x="361.5" y="1305.7" font-size="18.2px" font-family="CMUBright-Roman" style="text-anchor:end;fill:rgb(0,0,0);" transform="rotate(10.0,361.5,1305.7)" >3750</text>
<line x1='406.6' y1='1235.1' x2='387.2' y2='1230.4' style="stroke-width:4.0;stroke:rgb(0,0,0);stroke-linecap:round;fill:none;" />
<text x="376.0" y="1234.3" font-size="18.2px" font-family="CMUBright-Roman" style="text-anchor:end;fill:rgb(0,0,0);" transform="rotate(13.6,376.0,1234.3)" >3800</text>
<line x1='425.5' y1='1166.7' x2='406.4' y2='1160.8' style="stroke-width:4.0;stroke:rgb(0,0,0);stroke-linecap:round;fill:none;" />
<text x="394.9" y="1164.0" font-size="18.2px" font-family="CMUBright-Roman" style="text-anchor:end;fill:rgb(0,0,0);" transform="rotate(17.2,394.9,1164.0)" >3850</text>
<line x1='448.6' y1='1099.7' x2='430.0' y2='1092.5' style="stroke-width:4.0;stroke:rgb(0,0,0);stroke-linecap:round;fill:none;" />
<text x="418.3" y="1095.1" font-size="18.2px" font-family="CMUBright-Roman" style="text-anchor:end;fill:rgb(0,0,0);" transform="rotate(20.8,418.3,1095.1)" >3900</text>
<line x1='476.0' y1='1034.2' x2='457.8' y2='1025.9' style="stroke-width:4.0;stroke:rgb(0,0,0);stroke-linecap:round;fill:none;" />
<text x="446.0" y="1027.7" font-size="18.2px" font-family="CMUBright-Roman" style="text-anchor:end;fill:rgb(0,0,0);" transform="rotate(24.5,446.0,1027.7)" >3950</text>
<line x1='507.4' y1='970.6' x2='489.7' y2='961.2' style="stroke-width:4.0;stroke:rgb(0,0,0);stroke-linecap:round;fill:none;" />
<text x="477.8" y="962.2" font-size="18.2px" font-family="CMUBright-Roman" style="text-anchor:end;fill:rgb(0,0,0);" transform="rotate(28.1,477.8,962.2)" >4000</text>
<line x1='542.7' y1='909.1' x2='525.7' y2='898.6' style="stroke-width:4.0;stroke:rgb(0,0,0);stroke-linecap:round;fill:none;" />
<text x="513.8" y="898.9" font-size="18.2px" font-family="CMUBright-Roman" style="text-anchor:end;fill:rgb(0,0,0);" transform="rotate(31.7,513.8,898.9)" >4050</text>
<line x1='581.8' y1='849.9' x2='565.5' y2='838.4' style="stroke-width:4.0;stroke:rgb(0,0,0);stroke-linecap:round;fill:none;" />
<text x="553.6" y="837.9" font-size="18.2px" font-family="CMUBright-Roman" style="text-anchor:end;fill:rgb(0,0,0);" transform="rotate(35.3,553.6,837.9)" >4100</text>
<line x1='624.6' y1='793.4' x2='609.1' y2='780.8' style="stroke-width:4.0;stroke:rgb(0,0,0);stroke-linecap:round;fill:none;" />
<text x="597.2" y="779.6" font-size="18.2px" font-family="CMUBright-Roman" style="text-anchor:end;fill:rgb(0,0,0);" transform="rotate(38.9,597.2,779.6)" >4150</text>
<line x1='670.9' y1='739.6' x2='656.2' y2='726.1' style="stroke-width:4.0;stroke:rgb(0,0,0);stroke-linecap:round;fill:none;" />
<text x="644.4" y="724.1" font-size="18.2px" font-family="CMUBright-Roman" style="text-anchor:end;fill:rgb(0,0,0);" transform="rotate(42.5,644.4,724.1)" >4200</text>
<line x1='720.5' y1='688.9' x2='706.6' y2='674.4' style="stroke-width:4.0;stroke:rgb(0,0,0);stroke-linecap:round;fill:none;" />
<text x="695.0" y="671.8" font-size="18.2px" font-family="CMUBright-Roman" style="text-anchor:end;fill:rgb(0,0,0);" transform="rotate(46.1,695.0,671.8)" >4250</text>
<line x1='773.1' y1='641.4' x2='760.2' y2='626.1' style="stroke-width:4.0;stroke:rgb(0,0,0);stroke-linecap:round;fill:none;" />
<text x="748.8" y="622.7" font-size="18.2px" font-family="CMUBright-Roman" style="text-anchor:end;fill:rgb(0,0,0);" transform="rotate(49.8,748.8,622.7)" >4300</text>
<line x1='828.7' y1='597.3' x2='816.7' y2='581.2' style="stroke-width:4.0;stroke:rgb(0,0,0);stroke-linecap:round;fill:none;" />
<text x="805.6" y="577.1" font-size="18.2px" font-family="CMUBright-Roman" style="text-anchor:end;fill:rgb(0,0,0);" transform="rotate(53.4,805.6,577.1)" >4350</text>
<line x1='886.9' y1='556.7' x2='876.0' y2='540.0' style="stroke-width:4.0;stroke:rgb(0,0,0);stroke-linecap:round;fill:none;" />
<text x="865.1" y="535.1" font-size="18.2px" font-family="CMUBright-Roman" style="text-anchor:end;fill:rgb(0,0,0);" transform="rotate(57.0,865.1,535.1)" >4400</text>
<line x1='947.6' y1='520.0' x2='937.7' y2='502.6' style="stroke-width:4.0;stroke:rgb(0,0,0);stroke-linecap:round;fill:none;" />
<text x="927.2" y="497.1" font-size="18.2px" font-family="CMUBright-Roman" style="text-anchor:end;fill:rgb(0,0,0);" transform="rotate(60.6,927.2,497.1)" >4450</text>
<line x1='1010.4' y1='487.1' x2='1001.7' y2='469.1' style="stroke-width:4.0;stroke:rgb(0,0,0);stroke-linecap:round;fill:none;" />
<text x="991.5" y="463.0" font-size="18.2px" font-family="CMUBright-Roman" style="text-anchor:end;fill:rgb(0,0,0);" transform="rotate(64.2,991.5,463.0)" >4500</text>
<line x1='1075.2' y1='458.3' x2='1067.7' y2='439.8' style="stroke-width:4.0;stroke:rgb(0,0,0);stroke-linecap:round;fill:none;" />
<text x="1057.9" y="433.0" font-size="18.2px" font-family="CMUBright-Roman" style="text-anchor:end;fill:rgb(0,0,0);" transform="rotate(67.8,1057.9,433.0)" >4550</text>
<line x1='1141.7' y1='433.6' x2='1135.3' y2='414.6' style="stroke-width:4.0;stroke:rgb(0,0,0);stroke-linecap:round;fill:none;" />
<text x="1126.0" y="407.2" font-size="18.2px" font-family="CMUBright-Roman" style="text-anchor:end;fill:rgb(0,0,0);" transform="rotate(71.4,1126.0,407.2)" >4600</text>
<line x1='1209.6' y1='413.1' x2='1204.5' y2='393.8' style="stroke-width:4.0;stroke:rgb(0,0,0);stroke-linecap:round;fill:none;" />
<text x="1195.6" y="385.8" font-size="18.2px" font-family="CMUBright-Roman" style="text-anchor:end;fill:rgb(0,0,0);" transform="rotate(75.0,1195.6,385.8)" >4650</text>
<line x1='1278.7' y1='397.0' x2='1274.8' y2='377.4' style="stroke-width:4.0;stroke:rgb(0,0,0);stroke-linecap:round;fill:none;" />
<text x="1266.4" y="368.9" font-size="18.2px" font-family="CMUBright-Roman" style="text-anchor:end;fill:rgb(0,0,0);" transform="rotate(78.7,1266.4,368.9)" >4700</text>
<line x1='1348.6' y1='385.2' x2='1346.0' y2='365.4' style="stroke-width:4.0;stroke:rgb(0,0,0);stroke-linecap:round;fill:none;" />
<text x="1338.2" y="356.4" font-size="18.2px" font-family="CMUBright-Roman" style="text-anchor:end;fill:rgb(0,0,0);" transform="rotate(82.3,1338.2,356.4)" >4750</text>
<line x1='1419.2' y1='377.9' x2='1417.8' y2='358.0' style="stroke-width:4.0;stroke:rgb(0,0,0);stroke-linecap:round;fill:none;" />
<text x="1410.6" y="348.5" font-size="18.2px" font-family="CMUBright-Roman" style="text-anchor:end;fill:rgb(0,0,0);" transform="rotate(85.9,1410.6,348.5)" >4800</text>
<g id="highlighttrack_0">
<path d="M2529.188,1810.479 A1075.000,1075.000 40.000 0,1 2528.057,1814.204 L2575.873,1828.819 A1125.000,1125.000 0.000 0,0 2577.057,1824.919 Z" style="stroke-width:4.0;stroke:rgb(0,0,0);stroke-linecap:round;fill:rgb(116,196,118);" />
<path d="M904.610,2395.062 A1075.000,1075.000 40.000 0,1 901.367,2392.896 L873.524,2434.426 A1125.000,1125.000 0.000 0,0 876.917,2436.692 Z" style="stroke-width:4.0;stroke:rgb(0,0,0);stroke-linecap:round;fill:rgb(251,106,74);" />
<path d="M615.039,889.698 A1075.000,1075.000 40.000 0,1 617.240,886.519 L576.181,857.985 A1125.000,1125.000 0.000 0,0 573.878,861.312 Z" style="stroke-width:4.0;stroke:rgb(0,0,0);stroke-linecap:round;fill:rgb(251,106,74);" />
<path d="M697.758,784.436 A1075.000,1075.000 40.000 0,1 700.355,781.535 L663.162,748.118 A1125.000,1125.000 0.000 0,0 660.444,751.154 Z" style="stroke-width:4.0;stroke:rgb(0,0,0);stroke-linecap:round;fill:rgb(116,196,118);" />
<path d="M897.832,609.484 A1075.000,1075.000 40.000 0,1 901.062,607.309 L873.204,565.788 A1125.000,1125.000 0.000 0,0 869.824,568.065 Z" style="stroke-width:4.0;stroke:rgb(0,0,0);stroke-linecap:round;fill:rgb(116,196,118);" />
<path d="M956.721,572.383 A1075.000,1075.000 40.000 0,1 960.085,570.421 L934.973,527.185 A1125.000,1125.000 0.000 0,0 931.453,529.238 Z" style="stroke-width:4.0;stroke:rgb(0,0,0);stroke-linecap:round;fill:rgb(116,196,118);" />
<path d="M964.430,567.911 A1075.000,1075.000 40.000 0,1 967.809,565.977 L943.056,522.535 A1125.000,1125.000 0.000 0,0 939.519,524.558 Z" style="stroke-width:4.0;stroke:rgb(0,0,0);stroke-linecap:round;fill:rgb(116,196,118);" />
<path d="M1151.379,483.099 A1075.000,1075.000 40.000 0,1 1155.065,481.842 L1139.021,434.486 A1125.000,1125.000 0.000 0,0 1135.164,435.801 Z" style="stroke-width:4.0;stroke:rgb(0,0,0);stroke-linecap:round;fill:rgb(116,196,118);" />
<path d="M931.717,587.487 A1075.000,1075.000 40.000 0,1 934.963,585.474 L908.682,542.938 A1125.000,1125.000 0.000 0,0 905.285,545.045 Z" style="stroke-width:4.0;stroke:rgb(0,0,0);stroke-linecap:round;fill:rgb(251,106,74);" />
<path d="M1983.232,2460.267 A1075.000,1075.000 40.000 0,1 1950.457,2476.070 L1971.409,2521.469 A1125.000,1125.000 0.000 0,0 2005.708,2504.930 Z" style="stroke-width:4.0;stroke:rgb(0,0,0);stroke-linecap:round;fill:rgb(116,196,118);" />
<path d="M989.819,2446.224 A1075.000,1075.000 40.000 0,1 958.042,2428.389 L932.834,2471.570 A1125.000,1125.000 0.000 0,0 966.090,2490.235 Z" style="stroke-width:4.0;stroke:rgb(0,0,0);stroke-linecap:round;fill:rgb(116,196,118);" />
<path d="M1039.981,528.400 A1075.000,1075.000 40.000 0,1 1043.976,526.518 L1022.765,481.240 A1125.000,1125.000 0.000 0,0 1018.584,483.209 Z" style="stroke-width:4.0;stroke:rgb(0,0,0);stroke-linecap:round;fill:rgb(116,196,118);" />
<path d="M1044.574,526.238 A1075.000,1075.000 40.000 0,1 1048.577,524.376 L1027.581,478.998 A1125.000,1125.000 0.000 0,0 1023.391,480.947 Z" style="stroke-width:4.0;stroke:rgb(0,0,0);stroke-linecap:round;fill:rgb(116,196,118);" />
</g>
</g>
<g id="track_0">
<path d="M 2518.896,1807.374 A 1064.250,1064.250 0.00 0,1 2517.8,1811.1 L 2517.8,1811.1 2447.6,1788.6 2382.4,1765.8 2321.7,1742.7 2265.4,1719.3 2213.1,1695.6 2164.4,1671.8 2119.2,1647.9 2077.2,1623.8 2038.1,1599.5 2001.7,1575.1 1967.8,1550.5 1936.2,1525.8 1906.7,1500.8 1879.1,1475.6 1853.3,1450.1 1829.1,1424.2 1806.4,1397.8 1785.1,1370.9 1765.0,1343.4 1746.2,1315.2 1728.5,1286.1 1711.8,1256.1 1696.1,1225.1 1681.5,1192.8 1667.8,1159.2 1655.0,1124.0 1643.3,1087.2 1632.5,1048.5 1622.8,1007.8 1614.2,964.8 1606.8,919.4 1600.6,871.4 1595.8,820.4 1592.4,766.4 1590.7,709.0 1590.6,648.0 1592.5,583.1 1596.4,514.1 1602.6,440.7  A 1064.250,1064.250 0.00 0,0 1598.7,440.3 L 1598.7,440.3 1592.8,513.8 1589.2,582.8 1587.6,647.7 1587.8,708.7 1589.8,766.1 1593.3,820.1 1598.3,871.0 1604.7,919.0 1612.3,964.4 1621.0,1007.3 1630.9,1048.0 1641.8,1086.7 1653.7,1123.5 1666.5,1158.6 1680.3,1192.1 1695.1,1224.4 1710.9,1255.4 1727.7,1285.3 1745.5,1314.3 1764.5,1342.4 1784.6,1369.9 1806.0,1396.7 1828.8,1423.0 1853.1,1448.8 1879.0,1474.2 1906.7,1499.4 1936.3,1524.2 1968.0,1548.9 2002.0,1573.3 2038.5,1597.6 2077.6,1621.7 2119.8,1645.6 2165.0,1669.4 2213.8,1693.1 2266.2,1716.5 2322.6,1739.7 2383.3,1762.6 2448.6,1785.2 2518.9,1807.4  Z" style="stroke-width: 2.0;  stroke: rgb(82,82,82); fill: rgb(251,106,74); opacity: 0.667;" />
<path d="M 910.564,2386.111 A 1064.250,1064.250 0.00 0,1 907.4,2384.0 L 907.4,2384.0 947.7,2321.7 984.1,2261.3 1017.1,2202.7 1047.0,2145.9 1074.1,2090.8 1098.8,2037.4 1121.3,1985.6 1142.0,1935.2 1161.1,1886.4 1178.9,1838.8 1195.5,1792.6 1211.3,1747.5 1226.3,1703.5 1240.9,1660.4 1255.2,1618.2 1269.2,1576.6 1283.1,1535.7 1297.1,1495.2 1311.2,1455.0 1325.6,1415.0 1340.1,1375.0 1355.0,1334.8 1370.2,1294.3 1385.7,1253.3 1401.5,1211.7 1417.5,1169.1 1433.8,1125.5 1450.2,1080.7 1466.7,1034.3 1483.1,986.3 1499.3,936.4 1515.3,884.4 1530.7,830.1 1545.6,773.1 1559.5,713.3 1572.5,650.4 1584.1,584.2 1594.2,514.4 1602.6,440.7  A 1064.250,1064.250 0.00 0,0 1598.7,440.3 L 1598.7,440.3 1590.7,514.1 1580.8,583.9 1569.4,650.2 1556.7,713.1 1542.9,772.9 1528.3,830.0 1513.0,884.4 1497.3,936.4 1481.2,986.4 1465.0,1034.5 1448.7,1080.8 1432.4,1125.8 1416.3,1169.4 1400.4,1212.0 1384.8,1253.8 1369.4,1294.8 1354.4,1335.4 1339.7,1375.6 1325.3,1415.7 1311.1,1455.7 1297.1,1496.0 1283.3,1536.5 1269.5,1577.5 1255.6,1619.0 1241.5,1661.3 1227.1,1704.5 1212.2,1748.5 1196.6,1793.7 1180.1,1840.0 1162.5,1887.6 1143.6,1936.5 1123.1,1986.9 1100.8,2038.9 1076.3,2092.4 1049.4,2147.6 1019.7,2204.5 986.9,2263.2 950.6,2323.7 910.6,2386.1  Z" style="stroke-width: 2.0;  stroke: rgb(82,82,82); fill: rgb(116,196,118); opacity: 0.667;" />
<path d="M 910.564,2386.111 A 1064.250,1064.250 0.00 0,1 907.4,2384.0 L 907.4,2384.0 949.2,2323.3 990.1,2267.4 1030.1,2216.0 1069.1,2168.7 1107.3,2125.2 1144.6,2085.2 1181.1,2048.5 1216.9,2014.9 1252.0,1983.9 1286.5,1955.6 1320.5,1929.5 1353.9,1905.6 1387.0,1883.6 1419.8,1863.5 1452.4,1844.9 1484.9,1828.0 1517.4,1812.4 1550.0,1798.2 1582.8,1785.2 1615.9,1773.4 1649.6,1762.8 1683.8,1753.2 1718.8,1744.7 1754.8,1737.4 1791.7,1731.2 1829.9,1726.1 1869.4,1722.2 1910.5,1719.6 1953.2,1718.4 1997.9,1718.6 2044.6,1720.4 2093.7,1723.9 2145.2,1729.3 2199.3,1736.7 2256.4,1746.3 2316.5,1758.3 2380.0,1773.0 2447.0,1790.5 2517.8,1811.1  A 1064.250,1064.250 0.00 0,0 2518.9,1807.4 L 2518.9,1807.4 2448.0,1787.0 2381.0,1769.8 2317.4,1755.4 2257.3,1743.6 2200.2,1734.2 2146.0,1727.0 2094.5,1721.8 2045.4,1718.4 1998.7,1716.8 1954.0,1716.7 1911.2,1718.1 1870.2,1720.9 1830.7,1724.9 1792.5,1730.1 1755.6,1736.5 1719.7,1744.0 1684.8,1752.5 1650.5,1762.2 1616.9,1773.0 1583.8,1784.9 1551.0,1798.0 1518.5,1812.4 1486.1,1828.0 1453.7,1845.1 1421.1,1863.7 1388.4,1884.0 1355.4,1906.1 1322.0,1930.1 1288.2,1956.3 1253.8,1984.8 1218.8,2015.9 1183.1,2049.7 1146.7,2086.5 1109.6,2126.6 1071.6,2170.2 1032.7,2217.7 992.9,2269.2 952.2,2325.3 910.6,2386.1  Z" style="stroke-width: 2.0;  stroke: rgb(82,82,82); fill: rgb(107,174,214); opacity: 0.667;" />
<path d="M 623.888,895.801 A 1064.250,1064.250 0.00 0,1 626.1,892.7 L 626.1,892.7 686.7,934.0 743.7,971.4 797.4,1005.1 847.8,1035.2 895.3,1062.1 939.9,1085.7 981.9,1106.4 1021.4,1124.3 1058.6,1139.5 1093.6,1152.2 1126.6,1162.4 1157.6,1170.2 1186.9,1175.8 1214.6,1179.2 1240.8,1180.4 1265.5,1179.5 1289.0,1176.5 1311.2,1171.4 1332.4,1164.2 1352.5,1154.9 1371.6,1143.4 1389.9,1129.8 1407.4,1113.8 1424.1,1095.6 1440.1,1074.8 1455.5,1051.5 1470.2,1025.6 1484.3,996.8 1497.9,965.1 1510.9,930.2 1523.3,892.0 1535.3,850.4 1546.6,804.9 1557.5,755.6 1567.7,702.0 1577.4,644.1 1586.5,581.4 1594.9,513.7 1602.6,440.7  A 1064.250,1064.250 0.00 0,0 1598.7,440.3 L 1598.7,440.3 1591.3,513.3 1583.1,581.1 1574.3,643.8 1564.8,701.8 1554.8,755.4 1544.1,804.8 1532.9,850.2 1521.1,892.0 1508.8,930.2 1495.9,965.1 1482.5,996.9 1468.5,1025.7 1453.8,1051.7 1438.6,1075.0 1422.6,1095.8 1406.0,1114.2 1388.6,1130.2 1370.4,1143.9 1351.2,1155.4 1331.2,1164.8 1310.1,1172.1 1287.8,1177.3 1264.4,1180.3 1239.6,1181.3 1213.5,1180.2 1185.8,1177.0 1156.4,1171.5 1125.3,1163.7 1092.3,1153.7 1057.3,1141.1 1020.1,1126.1 980.5,1108.3 938.5,1087.8 893.7,1064.2 846.2,1037.6 795.6,1007.6 741.8,974.1 684.7,936.9 623.9,895.8  Z" style="stroke-width: 2.0;  stroke: rgb(82,82,82); fill: rgb(253,141,60); opacity: 0.667;" />
<path d="M 623.888,895.801 A 1064.250,1064.250 0.00 0,1 626.1,892.7 L 626.1,892.7 687.7,934.0 747.8,971.7 806.2,1005.9 863.1,1037.1 918.3,1065.7 972.0,1091.9 1024.1,1116.1 1074.7,1138.6 1123.9,1159.6 1171.7,1179.5 1218.2,1198.5 1263.4,1216.7 1307.5,1234.5 1350.5,1252.0 1392.5,1269.4 1433.7,1286.9 1474.1,1304.5 1513.9,1322.5 1553.2,1340.9 1592.2,1359.8 1630.9,1379.3 1669.6,1399.4 1708.5,1420.3 1747.7,1441.8 1787.3,1464.1 1827.7,1487.0 1868.9,1510.7 1911.2,1534.9 1954.9,1559.7 2000.1,1585.0 2047.0,1610.6 2096.0,1636.5 2147.3,1662.5 2201.1,1688.4 2257.7,1714.2 2317.4,1739.5 2380.4,1764.3 2447.1,1788.2 2517.8,1811.1  A 1064.250,1064.250 0.00 0,0 2518.9,1807.4 L 2518.9,1807.4 2448.1,1784.8 2381.4,1761.1 2318.2,1736.6 2258.4,1711.4 2201.8,1685.9 2147.9,1660.1 2096.5,1634.3 2047.4,1608.6 2000.4,1583.2 1955.1,1558.1 1911.4,1533.4 1868.9,1509.3 1827.6,1485.9 1787.2,1463.0 1747.5,1440.9 1708.2,1419.5 1669.3,1398.8 1630.5,1378.8 1591.6,1359.4 1552.6,1340.7 1513.3,1322.4 1473.4,1304.6 1432.9,1287.1 1391.7,1269.8 1349.6,1252.6 1306.6,1235.2 1262.4,1217.6 1217.1,1199.5 1170.6,1180.7 1122.7,1161.0 1073.4,1140.1 1022.7,1117.8 970.5,1093.8 916.7,1067.8 861.4,1039.4 804.5,1008.4 745.9,974.4 685.7,937.0 623.9,895.8  Z" style="stroke-width: 2.0;  stroke: rgb(82,82,82); fill: rgb(255,0,0); opacity: 0.667;" />
<path d="M 623.888,895.801 A 1064.250,1064.250 0.00 0,1 626.1,892.7 L 626.1,892.7 686.0,935.4 741.0,976.7 791.5,1016.8 837.7,1055.6 880.0,1093.3 918.5,1129.9 953.6,1165.5 985.5,1200.2 1014.4,1234.0 1040.4,1267.0 1063.9,1299.4 1085.0,1331.1 1103.8,1362.4 1120.4,1393.3 1135.1,1423.9 1147.8,1454.3 1158.7,1484.6 1167.8,1514.9 1175.3,1545.3 1181.1,1576.1 1185.2,1607.1 1187.8,1638.7 1188.7,1670.9 1187.9,1703.8 1185.4,1737.6 1181.1,1772.5 1175.0,1808.4 1167.0,1845.7 1156.9,1884.4 1144.6,1924.7 1130.0,1966.7 1113.0,2010.6 1093.3,2056.5 1070.7,2104.6 1045.1,2155.1 1016.2,2208.1 983.8,2263.8 947.6,2322.4 907.4,2384.0  A 1064.250,1064.250 0.00 0,0 910.6,2386.1 L 910.6,2386.1 950.6,2324.4 986.6,2265.7 1018.8,2209.8 1047.5,2156.7 1072.9,2106.2 1095.3,2057.9 1114.8,2012.0 1131.7,1968.0 1146.2,1926.0 1158.3,1885.6 1168.2,1846.9 1176.2,1809.6 1182.1,1773.6 1186.3,1738.8 1188.6,1705.0 1189.3,1672.0 1188.3,1639.8 1185.6,1608.3 1181.4,1577.2 1175.5,1546.5 1167.9,1516.1 1158.6,1485.8 1147.6,1455.5 1134.8,1425.2 1120.1,1394.6 1103.3,1363.8 1084.4,1332.6 1063.2,1300.9 1039.6,1268.7 1013.4,1235.7 984.4,1202.0 952.4,1167.5 917.2,1132.0 878.5,1095.6 836.1,1058.0 789.8,1019.4 739.1,979.5 684.0,938.3 623.9,895.8  Z" style="stroke-width: 2.0;  stroke: rgb(82,82,82); fill: rgb(255,0,204); opacity: 0.667;" />
<path d="M 705.780,791.591 A 1064.250,1064.250 0.00 0,1 708.4,788.7 L 708.4,788.7 763.3,837.3 815.0,881.6 863.7,921.8 909.5,958.1 952.7,990.7 993.3,1019.9 1031.5,1045.8 1067.5,1068.6 1101.4,1088.4 1133.3,1105.4 1163.4,1119.7 1191.8,1131.4 1218.5,1140.5 1243.8,1147.2 1267.7,1151.6 1290.4,1153.6 1311.8,1153.3 1332.2,1150.7 1351.5,1145.8 1370.0,1138.6 1387.5,1129.1 1404.3,1117.3 1420.3,1103.0 1435.6,1086.2 1450.3,1066.9 1464.4,1044.8 1478.0,1020.0 1491.0,992.2 1503.5,961.3 1515.5,927.3 1527.1,889.7 1538.2,848.6 1548.9,803.7 1559.1,754.7 1568.8,701.5 1578.0,643.8 1586.7,581.2 1594.9,513.6 1602.6,440.7  A 1064.250,1064.250 0.00 0,0 1598.7,440.3 L 1598.7,440.3 1591.4,513.3 1583.4,580.9 1574.9,643.5 1565.9,701.3 1556.4,754.5 1546.3,803.5 1535.9,848.5 1524.9,889.6 1513.5,927.2 1501.5,961.3 1489.1,992.2 1476.2,1020.1 1462.8,1045.0 1448.7,1067.0 1434.1,1086.5 1418.8,1103.3 1402.9,1117.6 1386.2,1129.5 1368.7,1139.1 1350.3,1146.3 1330.9,1151.3 1310.6,1153.9 1289.1,1154.3 1266.5,1152.4 1242.5,1148.2 1217.2,1141.5 1190.4,1132.5 1162.0,1120.9 1131.9,1106.8 1099.9,1089.9 1065.9,1070.2 1029.9,1047.5 991.6,1021.8 950.8,992.7 907.6,960.2 861.6,924.1 812.8,884.1 760.9,840.0 705.8,791.6  Z" style="stroke-width: 2.0;  stroke: rgb(82,82,82); fill: rgb(255,204,204); opacity: 0.667;" />
<path d="M 705.780,791.591 A 1064.250,1064.250 0.00 0,1 708.4,788.7 L 708.4,788.7 764.3,837.4 819.1,882.1 872.5,923.1 924.7,960.8 975.6,995.6 1025.2,1027.8 1073.6,1057.7 1120.7,1085.6 1166.6,1111.8 1211.3,1136.5 1254.9,1160.0 1297.4,1182.5 1338.9,1204.3 1379.5,1225.5 1419.2,1246.3 1458.3,1267.0 1496.7,1287.5 1534.6,1308.1 1572.1,1328.9 1609.4,1349.9 1646.5,1371.3 1683.7,1393.2 1721.1,1415.5 1758.9,1438.3 1797.3,1461.6 1836.4,1485.4 1876.5,1509.7 1917.7,1534.5 1960.4,1559.7 2004.6,1585.3 2050.7,1611.1 2098.9,1637.0 2149.4,1663.0 2202.6,1688.9 2258.7,1714.5 2317.9,1739.8 2380.7,1764.4 2447.2,1788.2 2517.8,1811.1  A 1064.250,1064.250 0.00 0,0 2518.9,1807.4 L 2518.9,1807.4 2448.2,1784.8 2381.6,1761.2 2318.8,1736.8 2259.5,1711.8 2203.3,1686.3 2150.0,1660.6 2099.4,1634.8 2051.1,1609.1 2004.9,1583.4 1960.6,1558.1 1917.9,1533.0 1876.5,1508.4 1836.4,1484.2 1797.2,1460.5 1758.7,1437.3 1720.8,1414.7 1683.3,1392.5 1646.1,1370.8 1608.8,1349.5 1571.5,1328.6 1533.9,1308.0 1495.9,1287.5 1457.4,1267.1 1418.3,1246.6 1378.5,1226.0 1337.8,1204.9 1296.2,1183.3 1253.6,1160.9 1210.0,1137.5 1165.2,1113.0 1119.2,1087.0 1072.0,1059.2 1023.5,1029.5 973.8,997.5 922.8,962.9 870.5,925.4 816.8,884.6 761.9,840.1 705.8,791.6  Z" style="stroke-width: 2.0;  stroke: rgb(82,82,82); fill: rgb(255,153,0); opacity: 0.667;" />
<path d="M 705.780,791.591 A 1064.250,1064.250 0.00 0,1 708.4,788.7 L 708.4,788.7 762.5,838.6 812.0,886.7 857.2,933.1 898.3,977.9 935.7,1021.1 969.7,1062.9 1000.4,1103.3 1028.1,1142.5 1053.1,1180.6 1075.4,1217.6 1095.5,1253.7 1113.2,1289.0 1129.0,1323.5 1142.8,1357.5 1154.8,1391.0 1165.1,1424.1 1173.7,1457.0 1180.8,1489.7 1186.4,1522.4 1190.5,1555.3 1193.1,1588.4 1194.3,1621.9 1194.0,1655.9 1192.1,1690.5 1188.7,1725.9 1183.7,1762.2 1176.9,1799.6 1168.4,1838.1 1157.8,1878.0 1145.2,1919.4 1130.4,1962.5 1113.1,2007.3 1093.3,2054.0 1070.7,2102.8 1045.0,2153.9 1016.1,2207.4 983.8,2263.5 947.6,2322.3 907.4,2384.0  A 1064.250,1064.250 0.00 0,0 910.6,2386.1 L 910.6,2386.1 950.6,2324.3 986.5,2265.4 1018.7,2209.2 1047.4,2155.6 1072.9,2104.4 1095.3,2055.5 1115.0,2008.7 1132.1,1963.8 1146.7,1920.7 1159.2,1879.3 1169.6,1839.3 1178.0,1800.7 1184.7,1763.3 1189.6,1727.0 1192.8,1691.6 1194.5,1657.0 1194.7,1623.0 1193.4,1589.5 1190.7,1556.4 1186.5,1523.6 1180.8,1490.9 1173.6,1458.2 1164.8,1425.3 1154.4,1392.2 1142.3,1358.8 1128.3,1324.9 1112.5,1290.4 1094.6,1255.2 1074.4,1219.2 1051.9,1182.2 1026.8,1144.2 998.9,1105.1 968.1,1064.8 934.0,1023.1 896.4,980.1 855.1,935.5 809.8,889.2 760.1,841.3 705.8,791.6  Z" style="stroke-width: 2.0;  stroke: rgb(82,82,82); fill: rgb(255,204,0); opacity: 0.667;" />
<path d="M 705.780,791.591 A 1064.250,1064.250 0.00 0,1 708.4,788.7 L 708.4,788.7 762.8,837.7 812.9,883.1 859.1,925.0 901.4,963.8 940.1,999.4 975.3,1032.1 1007.2,1062.0 1036.0,1089.2 1061.7,1113.9 1084.6,1136.1 1104.7,1156.1 1122.1,1173.8 1137.0,1189.4 1149.3,1202.9 1159.3,1214.4 1166.8,1223.9 1172.0,1231.6 1174.9,1237.4 1175.5,1241.3 1173.8,1243.5 1169.8,1243.8 1163.5,1242.3 1154.8,1239.0 1143.8,1233.9 1130.3,1226.9 1114.4,1217.9 1095.8,1207.1 1074.6,1194.2 1050.5,1179.2 1023.6,1162.0 993.7,1142.6 960.6,1120.8 924.2,1096.6 884.3,1069.9 840.7,1040.4 793.3,1008.1 741.9,972.8 686.2,934.4 626.1,892.7  A 1064.250,1064.250 0.00 0,0 623.9,895.8 L 623.9,895.8 684.2,937.3 740.0,975.5 791.6,1010.6 839.1,1042.8 882.7,1072.1 922.7,1098.7 959.2,1122.8 992.4,1144.4 1022.4,1163.7 1049.4,1180.8 1073.5,1195.7 1094.7,1208.5 1113.3,1219.3 1129.4,1228.2 1142.9,1235.2 1153.9,1240.3 1162.6,1243.5 1168.9,1245.0 1172.8,1244.6 1174.5,1242.5 1173.9,1238.5 1171.0,1232.8 1165.8,1225.1 1158.2,1215.6 1148.3,1204.1 1135.9,1190.7 1121.0,1175.2 1103.5,1157.5 1083.3,1137.6 1060.3,1115.5 1034.5,1090.9 1005.6,1063.7 973.6,1034.0 938.3,1001.4 899.4,965.9 857.0,927.4 810.7,885.6 760.4,840.4 705.8,791.6  Z" style="stroke-width: 2.0;  stroke: rgb(82,82,82); fill: rgb(255,255,0); opacity: 0.667;" />
<path d="M 903.854,618.389 A 1064.250,1064.250 0.00 0,1 907.1,616.2 L 907.1,616.2 948.2,676.9 987.1,732.5 1023.7,783.5 1058.2,830.1 1090.8,872.4 1121.5,910.8 1150.4,945.3 1177.7,976.3 1203.4,1003.8 1227.7,1028.0 1250.7,1049.1 1272.3,1067.1 1292.8,1082.2 1312.2,1094.5 1330.6,1104.0 1348.0,1110.8 1364.6,1115.0 1380.4,1116.6 1395.4,1115.6 1409.7,1112.0 1423.4,1105.7 1436.5,1096.9 1449.1,1085.3 1461.2,1071.0 1472.8,1053.9 1484.1,1033.9 1495.0,1010.9 1505.5,984.8 1515.7,955.3 1525.6,922.5 1535.2,886.1 1544.5,845.9 1553.6,801.7 1562.4,753.4 1571.0,700.7 1579.3,643.3 1587.3,581.0 1595.1,513.6 1602.6,440.7  A 1064.250,1064.250 0.00 0,0 1598.7,440.3 L 1598.7,440.3 1591.5,513.3 1584.0,580.7 1576.2,643.0 1568.1,700.4 1559.7,753.2 1551.1,801.5 1542.1,845.7 1533.0,885.9 1523.5,922.4 1513.7,955.3 1503.6,984.7 1493.2,1010.9 1482.4,1034.0 1471.2,1054.0 1459.6,1071.2 1447.6,1085.5 1435.0,1097.1 1422.0,1106.0 1408.3,1112.3 1394.0,1116.0 1379.0,1117.0 1363.2,1115.5 1346.6,1111.4 1329.2,1104.6 1310.8,1095.2 1291.3,1083.0 1270.8,1067.9 1249.0,1050.0 1226.0,1029.0 1201.6,1004.9 1175.8,977.5 1148.4,946.6 1119.3,912.2 1088.5,873.9 1055.8,831.7 1021.1,785.2 984.3,734.4 945.2,678.9 903.9,618.4  Z" style="stroke-width: 2.0;  stroke: rgb(82,82,82); fill: rgb(204,255,0); opacity: 0.667;" />
<path d="M 903.854,618.389 A 1064.250,1064.250 0.00 0,1 907.1,616.2 L 907.1,616.2 949.3,677.1 991.1,733.5 1032.4,785.9 1073.2,834.6 1113.4,879.9 1153.0,922.1 1191.9,961.6 1230.2,998.7 1267.8,1033.5 1304.7,1066.5 1341.0,1097.7 1376.7,1127.5 1411.8,1156.0 1446.4,1183.5 1480.6,1210.2 1514.3,1236.1 1547.8,1261.6 1581.1,1286.6 1614.2,1311.4 1647.4,1336.0 1680.7,1360.5 1714.3,1385.1 1748.3,1409.7 1783.0,1434.5 1818.4,1459.4 1854.7,1484.6 1892.3,1509.9 1931.1,1535.4 1971.6,1561.1 2013.8,1586.9 2058.1,1612.8 2104.6,1638.7 2153.7,1664.5 2205.6,1690.1 2260.6,1715.4 2319.1,1740.3 2381.2,1764.7 2447.3,1788.3 2517.8,1811.1  A 1064.250,1064.250 0.00 0,0 2518.9,1807.4 L 2518.9,1807.4 2448.3,1784.9 2382.1,1761.5 2319.9,1737.4 2261.4,1712.7 2206.3,1687.5 2154.3,1662.1 2105.1,1636.5 2058.5,1610.8 2014.1,1585.0 1971.8,1559.4 1931.2,1533.9 1892.3,1508.5 1854.7,1483.3 1818.2,1458.3 1782.7,1433.5 1748.0,1408.8 1713.9,1384.3 1680.2,1359.9 1646.8,1335.4 1613.5,1311.0 1580.3,1286.3 1546.9,1261.4 1513.4,1236.1 1479.5,1210.3 1445.3,1183.7 1410.6,1156.4 1375.4,1127.9 1339.6,1098.3 1303.2,1067.2 1266.1,1034.4 1228.4,999.6 1189.9,962.7 1150.9,923.4 1111.1,881.3 1070.8,836.1 1029.8,787.6 988.3,735.4 946.3,679.1 903.9,618.4  Z" style="stroke-width: 2.0;  stroke: rgb(82,82,82); fill: rgb(0,255,0); opacity: 0.667;" />
<path d="M 903.854,618.389 A 1064.250,1064.250 0.00 0,1 907.1,616.2 L 907.1,616.2 947.3,678.1 983.5,737.3 1015.9,794.0 1044.9,848.5 1070.8,900.7 1093.7,950.9 1114.0,999.2 1131.8,1045.8 1147.5,1090.7 1161.0,1134.1 1172.8,1176.2 1182.8,1217.2 1191.3,1257.0 1198.3,1296.0 1204.0,1334.1 1208.5,1371.6 1211.8,1408.7 1213.9,1445.4 1215.0,1481.8 1215.0,1518.3 1214.0,1554.7 1211.8,1591.4 1208.5,1628.5 1204.1,1666.0 1198.4,1704.1 1191.4,1743.1 1182.9,1782.9 1172.9,1823.9 1161.2,1866.0 1147.6,1909.4 1132.0,1954.4 1114.2,2000.9 1093.9,2049.2 1071.0,2099.4 1045.2,2151.7 1016.2,2206.1 983.8,2262.9 947.6,2322.1 907.4,2384.0  A 1064.250,1064.250 0.00 0,0 910.6,2386.1 L 910.6,2386.1 950.6,2324.1 986.5,2264.8 1018.7,2207.9 1047.5,2153.3 1073.2,2101.0 1095.9,2050.7 1116.0,2002.3 1133.6,1955.7 1149.1,1910.7 1162.5,1867.2 1174.1,1825.0 1183.9,1784.1 1192.2,1744.2 1199.1,1705.2 1204.7,1667.1 1209.0,1629.5 1212.1,1592.5 1214.2,1555.8 1215.1,1519.3 1214.9,1482.9 1213.7,1446.4 1211.4,1409.7 1208.0,1372.7 1203.4,1335.2 1197.6,1297.0 1190.4,1258.1 1181.8,1218.3 1171.6,1177.4 1159.7,1135.4 1146.0,1092.0 1130.2,1047.1 1112.2,1000.6 1091.7,952.4 1068.6,902.3 1042.6,850.1 1013.4,795.8 980.7,739.2 944.3,680.1 903.9,618.4  Z" style="stroke-width: 2.0;  stroke: rgb(82,82,82); fill: rgb(53,128,0); opacity: 0.667;" />
<path d="M 903.854,618.389 A 1064.250,1064.250 0.00 0,1 907.1,616.2 L 907.1,616.2 947.7,677.2 984.8,733.8 1018.7,786.3 1049.5,834.9 1077.3,879.8 1102.3,921.1 1124.6,959.2 1144.4,994.0 1161.6,1025.9 1176.6,1054.9 1189.2,1081.1 1199.6,1104.7 1207.9,1125.8 1214.1,1144.5 1218.3,1160.9 1220.5,1175.0 1220.6,1187.0 1218.8,1196.8 1215.0,1204.5 1209.2,1210.2 1201.4,1213.9 1191.6,1215.5 1179.6,1215.2 1165.6,1212.8 1149.3,1208.4 1130.7,1201.8 1109.7,1193.2 1086.3,1182.4 1060.2,1169.3 1031.5,1153.9 999.9,1136.1 965.4,1115.8 927.7,1092.9 886.8,1067.2 842.3,1038.6 794.2,1007.1 742.3,972.3 686.3,934.3 626.1,892.7  A 1064.250,1064.250 0.00 0,0 623.9,895.8 L 623.9,895.8 684.3,937.2 740.4,975.1 792.5,1009.6 840.7,1041.0 885.2,1069.4 926.3,1094.9 964.0,1117.7 998.6,1137.9 1030.3,1155.6 1059.0,1170.9 1085.1,1183.9 1108.6,1194.6 1129.6,1203.2 1148.2,1209.6 1164.5,1214.0 1178.6,1216.3 1190.6,1216.7 1200.4,1215.0 1208.2,1211.3 1214.0,1205.6 1217.7,1197.8 1219.5,1188.0 1219.3,1176.0 1217.1,1161.9 1212.9,1145.6 1206.6,1126.9 1198.2,1105.8 1187.7,1082.2 1175.0,1056.1 1159.9,1027.1 1142.5,995.3 1122.7,960.5 1100.2,922.6 1075.1,881.3 1047.1,836.5 1016.1,788.0 982.0,735.6 944.7,679.2 903.9,618.4  Z" style="stroke-width: 2.0;  stroke: rgb(82,82,82); fill: rgb(0,0,204); opacity: 0.667;" />
<path d="M 903.854,618.389 A 1064.250,1064.250 0.00 0,1 907.1,616.2 L 907.1,616.2 947.7,677.1 985.0,733.6 1019.2,785.8 1050.3,834.0 1078.6,878.5 1104.2,919.3 1127.1,956.7 1147.5,990.8 1165.6,1021.8 1181.4,1049.9 1195.0,1075.1 1206.4,1097.5 1215.8,1117.4 1223.2,1134.7 1228.6,1149.6 1232.0,1162.2 1233.6,1172.4 1233.3,1180.3 1231.1,1186.1 1227.0,1189.6 1221.0,1191.0 1213.1,1190.2 1203.2,1187.2 1191.3,1182.0 1177.3,1174.6 1161.1,1164.8 1142.8,1152.7 1122.2,1138.3 1099.1,1121.3 1073.6,1101.7 1045.4,1079.5 1014.5,1054.4 980.7,1026.5 943.9,995.4 903.8,961.2 860.5,923.6 813.6,882.4 762.9,837.5 708.4,788.7  A 1064.250,1064.250 0.00 0,0 705.8,791.6 L 705.8,791.6 760.5,840.2 811.3,884.9 858.4,925.9 901.9,963.4 942.0,997.5 979.0,1028.4 1012.9,1056.2 1043.9,1081.1 1072.1,1103.3 1097.8,1122.7 1120.9,1139.6 1141.6,1154.0 1159.9,1166.1 1176.1,1175.7 1190.1,1183.1 1202.0,1188.3 1212.0,1191.3 1219.9,1192.0 1225.9,1190.6 1230.0,1187.1 1232.1,1181.3 1232.4,1173.3 1230.8,1163.1 1227.3,1150.6 1221.8,1135.7 1214.4,1118.4 1204.9,1098.6 1193.4,1076.2 1179.8,1051.0 1163.9,1023.0 1145.7,992.1 1125.1,958.1 1102.1,920.7 1076.4,880.0 1047.9,835.7 1016.6,787.5 982.3,735.4 944.7,679.1 903.9,618.4  Z" style="stroke-width: 2.0;  stroke: rgb(82,82,82); fill: rgb(102,153,255); opacity: 0.667;" />
<path d="M 962.154,581.659 A 1064.250,1064.250 0.00 0,1 965.5,579.7 L 965.5,579.7 1002.6,642.9 1037.6,701.0 1070.7,754.3 1101.9,803.0 1131.3,847.4 1159.1,887.7 1185.2,924.1 1209.9,956.8 1233.3,985.9 1255.3,1011.6 1276.1,1034.1 1295.8,1053.5 1314.4,1069.9 1332.0,1083.4 1348.8,1094.0 1364.6,1101.9 1379.7,1107.0 1394.1,1109.5 1407.9,1109.2 1421.0,1106.4 1433.5,1100.9 1445.6,1092.6 1457.2,1081.7 1468.4,1067.9 1479.1,1051.3 1489.6,1031.7 1499.7,1009.0 1509.5,983.2 1519.0,954.1 1528.3,921.5 1537.4,885.3 1546.2,845.3 1554.9,801.3 1563.3,753.1 1571.6,700.5 1579.6,643.2 1587.5,581.0 1595.1,513.6 1602.6,440.7  A 1064.250,1064.250 0.00 0,0 1598.7,440.3 L 1598.7,440.3 1591.5,513.2 1584.1,580.7 1576.5,642.9 1568.7,700.2 1560.6,752.9 1552.3,801.1 1543.9,845.1 1535.2,885.2 1526.2,921.4 1517.1,954.0 1507.6,983.2 1497.9,1009.0 1487.9,1031.7 1477.5,1051.3 1466.8,1068.0 1455.7,1081.8 1444.1,1092.8 1432.1,1101.1 1419.6,1106.7 1406.4,1109.6 1392.7,1109.8 1378.3,1107.4 1363.2,1102.3 1347.3,1094.5 1330.5,1084.0 1312.8,1070.6 1294.2,1054.3 1274.4,1035.0 1253.5,1012.5 1231.4,986.9 1208.0,957.8 1183.2,925.2 1156.8,888.9 1128.9,848.7 1099.4,804.4 1068.0,755.8 1034.8,702.6 999.5,644.7 962.2,581.7  Z" style="stroke-width: 2.0;  stroke: rgb(82,82,82); fill: rgb(153,204,255); opacity: 0.667;" />
<path d="M 962.154,581.659 A 1064.250,1064.250 0.00 0,1 965.5,579.7 L 965.5,579.7 1003.6,643.1 1041.6,702.1 1079.3,756.9 1116.7,807.9 1153.8,855.5 1190.4,899.9 1226.5,941.5 1262.1,980.5 1297.2,1017.3 1331.9,1052.0 1366.0,1084.9 1399.6,1116.3 1432.8,1146.3 1465.6,1175.2 1498.1,1203.1 1530.3,1230.2 1562.3,1256.7 1594.1,1282.7 1626.0,1308.3 1658.0,1333.7 1690.2,1358.9 1722.7,1384.0 1755.8,1409.1 1789.5,1434.3 1824.1,1459.5 1859.7,1484.9 1896.5,1510.4 1934.7,1536.0 1974.5,1561.8 2016.2,1587.6 2060.0,1613.4 2106.1,1639.2 2154.8,1665.0 2206.4,1690.5 2261.1,1715.7 2319.3,1740.5 2381.3,1764.8 2447.3,1788.3 2517.8,1811.1  A 1064.250,1064.250 0.00 0,0 2518.9,1807.4 L 2518.9,1807.4 2448.4,1784.9 2382.3,1761.6 2320.2,1737.5 2261.9,1712.9 2207.1,1687.9 2155.4,1662.6 2106.6,1637.1 2060.4,1611.4 2016.5,1585.7 1974.7,1560.1 1934.8,1534.5 1896.5,1509.0 1859.6,1483.6 1823.9,1458.4 1789.3,1433.2 1755.5,1408.2 1722.3,1383.2 1689.7,1358.2 1657.4,1333.1 1625.3,1307.9 1593.4,1282.4 1561.4,1256.5 1529.3,1230.1 1497.0,1203.1 1464.5,1175.3 1431.6,1146.6 1398.2,1116.7 1364.5,1085.4 1330.2,1052.6 1295.5,1018.0 1260.2,981.4 1224.5,942.5 1188.2,901.0 1151.4,856.7 1114.2,809.3 1076.7,758.4 1038.7,703.7 1000.5,644.9 962.2,581.7  Z" style="stroke-width: 2.0;  stroke: rgb(82,82,82); fill: rgb(0,255,255); opacity: 0.667;" />
<path d="M 962.154,581.659 A 1064.250,1064.250 0.00 0,1 965.5,579.7 L 965.5,579.7 1001.6,644.1 1033.9,705.6 1062.7,764.5 1088.1,821.0 1110.6,875.1 1130.3,927.0 1147.5,976.9 1162.5,1025.0 1175.4,1071.3 1186.4,1116.0 1195.7,1159.4 1203.5,1201.4 1209.9,1242.3 1214.9,1282.3 1218.8,1321.4 1221.6,1359.8 1223.3,1397.7 1224.0,1435.2 1223.8,1472.5 1222.6,1509.7 1220.4,1546.9 1217.3,1584.2 1213.1,1621.9 1207.9,1660.1 1201.5,1698.9 1193.9,1738.5 1184.9,1778.9 1174.4,1820.3 1162.3,1863.0 1148.5,1906.9 1132.6,1952.3 1114.6,1999.3 1094.2,2048.0 1071.1,2098.6 1045.3,2151.1 1016.2,2205.8 983.8,2262.7 947.6,2322.1 907.4,2384.0  A 1064.250,1064.250 0.00 0,0 910.6,2386.1 L 910.6,2386.1 950.6,2324.1 986.5,2264.6 1018.8,2207.5 1047.6,2152.8 1073.3,2100.1 1096.2,2049.5 1116.4,2000.7 1134.2,1953.7 1149.9,1908.2 1163.7,1864.2 1175.6,1821.5 1185.9,1780.0 1194.7,1739.6 1202.2,1700.0 1208.5,1661.2 1213.6,1623.0 1217.6,1585.3 1220.6,1547.9 1222.6,1510.7 1223.7,1473.5 1223.8,1436.2 1222.9,1398.7 1221.1,1360.8 1218.2,1322.4 1214.1,1283.3 1208.9,1243.4 1202.4,1202.5 1194.5,1160.5 1185.0,1117.2 1173.8,1072.5 1160.8,1026.2 1145.6,978.2 1128.2,928.4 1108.3,876.5 1085.7,822.5 1060.0,766.1 1031.1,707.3 998.5,645.9 962.2,581.7  Z" style="stroke-width: 2.0;  stroke: rgb(82,82,82); fill: rgb(204,255,255); opacity: 0.667;" />
<path d="M 962.154,581.659 A 1064.250,1064.250 0.00 0,1 965.5,579.7 L 965.5,579.7 1002.0,643.2 1035.4,702.1 1065.6,756.9 1093.0,807.5 1117.6,854.4 1139.6,897.6 1159.1,937.3 1176.2,973.8 1191.0,1007.1 1203.5,1037.5 1214.0,1065.0 1222.3,1089.9 1228.7,1112.1 1233.1,1131.9 1235.6,1149.3 1236.1,1164.4 1234.8,1177.2 1231.6,1187.9 1226.5,1196.4 1219.6,1202.8 1210.6,1207.2 1199.7,1209.5 1186.8,1209.8 1171.9,1208.0 1154.7,1204.2 1135.4,1198.2 1113.7,1190.0 1089.6,1179.7 1063.0,1167.0 1033.8,1152.0 1001.7,1134.6 966.8,1114.6 928.7,1092.0 887.5,1066.6 842.8,1038.2 794.5,1006.8 742.4,972.2 686.4,934.2 626.1,892.7  A 1064.250,1064.250 0.00 0,0 623.9,895.8 L 623.9,895.8 684.3,937.2 740.5,975.0 792.7,1009.4 841.1,1040.6 885.9,1068.8 927.3,1094.0 965.4,1116.5 1000.4,1136.4 1032.5,1153.7 1061.8,1168.6 1088.5,1181.1 1112.6,1191.4 1134.3,1199.5 1153.7,1205.4 1170.8,1209.2 1185.8,1210.9 1198.7,1210.6 1209.6,1208.3 1218.5,1203.9 1225.5,1197.4 1230.5,1188.8 1233.7,1178.2 1234.9,1165.3 1234.3,1150.2 1231.8,1132.9 1227.3,1113.1 1220.9,1090.9 1212.4,1066.1 1201.9,1038.6 1189.2,1008.2 1174.3,974.9 1157.1,938.5 1137.4,898.9 1115.3,855.8 1090.5,809.0 1063.0,758.4 1032.5,703.8 998.9,645.0 962.2,581.7  Z" style="stroke-width: 2.0;  stroke: rgb(82,82,82); fill: rgb(153,0,204); opacity: 0.667;" />
<path d="M 962.154,581.659 A 1064.250,1064.250 0.00 0,1 965.5,579.7 L 965.5,579.7 1002.1,643.1 1035.6,701.9 1066.1,756.4 1093.9,806.7 1119.0,853.1 1141.5,895.8 1161.6,934.9 1179.4,970.6 1195.0,1003.1 1208.5,1032.6 1219.8,1059.1 1229.2,1082.8 1236.7,1103.8 1242.3,1122.2 1246.0,1138.2 1247.9,1151.7 1248.0,1162.8 1246.3,1171.6 1242.8,1178.1 1237.5,1182.5 1230.4,1184.5 1221.4,1184.4 1210.5,1182.0 1197.7,1177.4 1182.9,1170.5 1166.0,1161.3 1146.9,1149.7 1125.6,1135.7 1102.0,1119.1 1075.9,1099.9 1047.3,1078.0 1015.9,1053.3 981.8,1025.6 944.6,994.8 904.3,960.8 860.7,923.4 813.7,882.3 762.9,837.5 708.4,788.7  A 1064.250,1064.250 0.00 0,0 705.8,791.6 L 705.8,791.6 760.5,840.2 811.4,884.8 858.7,925.7 902.4,963.0 942.8,996.9 980.1,1027.5 1014.3,1055.1 1045.8,1079.7 1074.5,1101.5 1100.6,1120.5 1124.3,1137.0 1145.7,1151.0 1164.8,1162.5 1181.7,1171.7 1196.5,1178.5 1209.4,1183.1 1220.3,1185.4 1229.2,1185.5 1236.3,1183.4 1241.6,1179.1 1245.1,1172.5 1246.8,1163.7 1246.6,1152.6 1244.7,1139.1 1240.9,1123.2 1235.3,1104.8 1227.7,1083.8 1218.2,1060.1 1206.8,1033.6 1193.2,1004.2 1177.5,971.8 1159.6,936.1 1139.3,897.1 1116.6,854.5 1091.4,808.2 1063.5,758.0 1032.7,703.6 999.0,644.9 962.2,581.7  Z" style="stroke-width: 2.0;  stroke: rgb(82,82,82); fill: rgb(204,51,255); opacity: 0.667;" />
<path d="M 962.154,581.659 A 1064.250,1064.250 0.00 0,1 965.5,579.7 L 965.5,579.7 1002.2,643.0 1036.1,701.6 1067.2,755.6 1095.8,805.3 1121.9,850.9 1145.7,892.7 1167.2,930.7 1186.6,965.2 1204.0,996.3 1219.4,1024.1 1233.0,1048.9 1244.7,1070.7 1254.7,1089.7 1263.0,1105.8 1269.7,1119.3 1274.7,1130.1 1278.2,1138.4 1280.1,1144.1 1280.4,1147.3 1279.2,1148.1 1276.5,1146.4 1272.1,1142.1 1266.2,1135.4 1258.7,1126.1 1249.5,1114.2 1238.7,1099.7 1226.0,1082.4 1211.6,1062.3 1195.2,1039.3 1176.9,1013.2 1156.6,983.9 1134.1,951.4 1109.4,915.4 1082.3,875.7 1052.7,832.2 1020.6,784.8 985.7,733.1 947.9,677.0 907.1,616.2  A 1064.250,1064.250 0.00 0,0 903.9,618.4 L 903.9,618.4 944.9,679.0 982.9,735.0 1018.0,786.5 1050.3,833.9 1080.0,877.2 1107.3,916.8 1132.1,952.7 1154.7,985.2 1175.2,1014.4 1193.6,1040.4 1210.0,1063.3 1224.5,1083.4 1237.2,1100.6 1248.1,1115.1 1257.4,1127.0 1264.9,1136.3 1270.9,1143.0 1275.2,1147.2 1278.0,1148.9 1279.2,1148.1 1278.8,1144.9 1276.9,1139.2 1273.4,1130.9 1268.3,1120.1 1261.6,1106.7 1253.2,1090.5 1243.2,1071.6 1231.3,1049.9 1217.7,1025.2 1202.2,997.3 1184.7,966.3 1165.2,931.9 1143.5,894.0 1119.6,852.3 1093.3,806.8 1064.5,757.2 1033.2,703.3 999.1,644.8 962.2,581.7  Z" style="stroke-width: 2.0;  stroke: rgb(82,82,82); fill: rgb(204,153,255); opacity: 0.667;" />
<path d="M 969.785,577.232 A 1064.250,1064.250 0.00 0,1 973.1,575.3 L 973.1,575.3 1009.7,638.8 1044.3,697.2 1076.9,750.7 1107.6,799.7 1136.6,844.4 1164.0,884.9 1189.8,921.5 1214.2,954.4 1237.2,983.7 1258.9,1009.7 1279.4,1032.4 1298.8,1051.9 1317.2,1068.4 1334.6,1082.0 1351.1,1092.8 1366.8,1100.8 1381.7,1106.0 1395.9,1108.6 1409.5,1108.5 1422.5,1105.7 1434.9,1100.3 1446.8,1092.1 1458.2,1081.2 1469.3,1067.5 1480.0,1050.9 1490.3,1031.4 1500.3,1008.8 1510.0,983.0 1519.5,953.9 1528.7,921.4 1537.7,885.2 1546.5,845.2 1555.0,801.3 1563.4,753.1 1571.6,700.5 1579.7,643.2 1587.5,581.0 1595.1,513.6 1602.6,440.7  A 1064.250,1064.250 0.00 0,0 1598.7,440.3 L 1598.7,440.3 1591.6,513.2 1584.2,580.7 1576.6,642.9 1568.7,700.2 1560.7,752.9 1552.5,801.1 1544.1,845.1 1535.4,885.1 1526.6,921.3 1517.5,953.9 1508.1,983.0 1498.5,1008.8 1488.6,1031.4 1478.3,1051.0 1467.7,1067.6 1456.7,1081.4 1445.3,1092.3 1433.4,1100.5 1421.0,1106.0 1408.1,1108.8 1394.5,1109.0 1380.3,1106.5 1365.4,1101.3 1349.7,1093.3 1333.1,1082.6 1315.6,1069.1 1297.2,1052.6 1277.7,1033.2 1257.1,1010.6 1235.3,984.7 1212.2,955.5 1187.7,922.7 1161.7,886.1 1134.2,845.7 1105.1,801.1 1074.1,752.3 1041.4,698.8 1006.6,640.6 969.8,577.2  Z" style="stroke-width: 2.0;  stroke: rgb(82,82,82); fill: rgb(102,102,102); opacity: 0.667;" />
<path d="M 969.785,577.232 A 1064.250,1064.250 0.00 0,1 973.1,575.3 L 973.1,575.3 1010.8,639.0 1048.2,698.3 1085.5,753.4 1122.4,804.7 1159.1,852.6 1195.2,897.3 1231.0,939.1 1266.3,978.4 1301.1,1015.3 1335.4,1050.3 1369.2,1083.4 1402.6,1115.0 1435.6,1145.2 1468.1,1174.2 1500.4,1202.3 1532.4,1229.5 1564.1,1256.2 1595.8,1282.3 1627.5,1308.0 1659.3,1333.4 1691.4,1358.7 1723.8,1383.9 1756.8,1409.1 1790.4,1434.3 1824.8,1459.6 1860.3,1485.0 1897.0,1510.5 1935.1,1536.1 1974.9,1561.9 2016.5,1587.7 2060.2,1613.5 2106.3,1639.3 2154.9,1665.0 2206.5,1690.5 2261.2,1715.7 2319.4,1740.5 2381.3,1764.8 2447.3,1788.3 2517.8,1811.1  A 1064.250,1064.250 0.00 0,0 2518.9,1807.4 L 2518.9,1807.4 2448.4,1784.9 2382.3,1761.6 2320.2,1737.6 2262.0,1713.0 2207.2,1688.0 2155.5,1662.6 2106.8,1637.1 2060.6,1611.5 2016.8,1585.8 1975.1,1560.2 1935.3,1534.6 1897.0,1509.1 1860.2,1483.7 1824.7,1458.4 1790.1,1433.2 1756.4,1408.1 1723.4,1383.1 1690.9,1358.0 1658.7,1332.8 1626.8,1307.5 1595.1,1281.9 1563.3,1255.9 1531.4,1229.4 1499.3,1202.3 1467.0,1174.3 1434.3,1145.4 1401.2,1115.3 1367.7,1083.9 1333.8,1050.9 1299.3,1016.1 1264.4,979.2 1229.0,940.1 1193.1,898.4 1156.7,853.8 1119.9,806.1 1082.8,754.9 1045.3,699.9 1007.6,640.8 969.8,577.2  Z" style="stroke-width: 2.0;  stroke: rgb(82,82,82); fill: rgb(153,153,153); opacity: 0.667;" />
<path d="M 969.785,577.232 A 1064.250,1064.250 0.00 0,1 973.1,575.3 L 973.1,575.3 1008.8,640.0 1040.5,701.8 1068.8,761.0 1093.8,817.7 1115.8,872.0 1135.1,924.1 1151.9,974.2 1166.5,1022.4 1179.0,1068.9 1189.7,1113.8 1198.7,1157.3 1206.2,1199.5 1212.3,1240.5 1217.1,1280.6 1220.7,1319.8 1223.3,1358.4 1224.8,1396.4 1225.3,1434.0 1224.9,1471.3 1223.6,1508.6 1221.3,1545.9 1218.0,1583.3 1213.7,1621.1 1208.4,1659.4 1201.9,1698.3 1194.2,1737.9 1185.2,1778.4 1174.6,1819.9 1162.5,1862.6 1148.6,1906.6 1132.7,1952.1 1114.6,1999.1 1094.2,2047.8 1071.2,2098.4 1045.3,2151.0 1016.2,2205.8 983.8,2262.7 947.6,2322.1 907.4,2384.0  A 1064.250,1064.250 0.00 0,0 910.6,2386.1 L 910.6,2386.1 950.6,2324.1 986.5,2264.6 1018.8,2207.5 1047.6,2152.7 1073.3,2100.0 1096.2,2049.3 1116.5,2000.5 1134.3,1953.4 1150.1,1907.9 1163.8,1863.8 1175.8,1821.1 1186.2,1779.5 1195.1,1739.0 1202.6,1699.3 1209.0,1660.4 1214.2,1622.2 1218.3,1584.4 1221.4,1546.9 1223.6,1509.6 1224.8,1472.3 1225.1,1435.0 1224.4,1397.4 1222.8,1359.4 1220.1,1320.9 1216.3,1281.6 1211.4,1241.6 1205.1,1200.6 1197.5,1158.4 1188.3,1115.0 1177.5,1070.1 1164.8,1023.7 1150.0,975.5 1133.0,925.5 1113.5,873.4 1091.3,819.1 1066.1,762.5 1037.6,703.5 1005.6,641.7 969.8,577.2  Z" style="stroke-width: 2.0;  stroke: rgb(82,82,82); fill: rgb(204,204,204); opacity: 0.667;" />
<path d="M 969.785,577.232 A 1064.250,1064.250 0.00 0,1 973.1,575.3 L 973.1,575.3 1009.1,639.1 1042.0,698.3 1071.8,753.3 1098.7,804.2 1122.9,851.3 1144.5,894.7 1163.6,934.7 1180.4,971.3 1194.8,1004.8 1207.1,1035.4 1217.2,1063.1 1225.3,1088.1 1231.4,1110.5 1235.6,1130.4 1237.8,1147.9 1238.2,1163.1 1236.7,1176.0 1233.3,1186.8 1228.1,1195.4 1220.9,1201.9 1211.8,1206.4 1200.8,1208.8 1187.8,1209.2 1172.7,1207.4 1155.4,1203.6 1136.0,1197.7 1114.2,1189.6 1090.1,1179.3 1063.4,1166.7 1034.1,1151.8 1002.0,1134.4 967.0,1114.5 928.9,1091.9 887.6,1066.5 842.9,1038.2 794.5,1006.8 742.4,972.2 686.4,934.2 626.1,892.7  A 1064.250,1064.250 0.00 0,0 623.9,895.8 L 623.9,895.8 684.3,937.1 740.6,974.9 792.8,1009.3 841.2,1040.5 886.0,1068.7 927.4,1093.9 965.6,1116.4 1000.7,1136.2 1032.8,1153.5 1062.2,1168.3 1088.9,1180.8 1113.1,1191.0 1134.9,1199.0 1154.4,1204.9 1171.6,1208.6 1186.7,1210.3 1199.8,1209.9 1210.8,1207.4 1219.8,1202.9 1227.0,1196.4 1232.2,1187.7 1235.5,1177.0 1237.0,1164.0 1236.6,1148.8 1234.3,1131.3 1230.0,1111.4 1223.8,1089.1 1215.6,1064.1 1205.4,1036.4 1193.0,1005.9 1178.4,972.5 1161.6,935.9 1142.3,896.0 1120.6,852.7 1096.2,805.7 1069.1,754.9 1039.1,700.0 1006.0,640.9 969.8,577.2  Z" style="stroke-width: 2.0;  stroke: rgb(82,82,82); fill: rgb(204,204,153); opacity: 0.667;" />
<path d="M 969.785,577.232 A 1064.250,1064.250 0.00 0,1 973.1,575.3 L 973.1,575.3 1009.2,639.0 1042.2,698.1 1072.3,752.9 1099.6,803.4 1124.3,850.1 1146.4,892.9 1166.2,932.2 1183.6,968.2 1198.9,1000.9 1212.0,1030.5 1223.1,1057.2 1232.2,1081.0 1239.4,1102.2 1244.8,1120.7 1248.3,1136.8 1249.9,1150.4 1249.9,1161.6 1248.0,1170.5 1244.3,1177.2 1238.9,1181.6 1231.6,1183.7 1222.5,1183.7 1211.5,1181.4 1198.5,1176.8 1183.6,1170.0 1166.6,1160.9 1147.5,1149.3 1126.1,1135.3 1102.4,1118.8 1076.2,1099.7 1047.5,1077.9 1016.1,1053.2 981.9,1025.5 944.7,994.8 904.4,960.8 860.8,923.3 813.7,882.3 762.9,837.5 708.4,788.7  A 1064.250,1064.250 0.00 0,0 705.8,791.6 L 705.8,791.6 760.6,840.2 811.5,884.8 858.7,925.6 902.4,962.9 942.9,996.8 980.2,1027.4 1014.5,1054.9 1046.0,1079.5 1074.8,1101.2 1101.0,1120.3 1124.8,1136.7 1146.2,1150.6 1165.4,1162.1 1182.4,1171.2 1197.4,1177.9 1210.3,1182.4 1221.3,1184.7 1230.5,1184.7 1237.7,1182.5 1243.1,1178.1 1246.8,1171.4 1248.6,1162.5 1248.7,1151.3 1246.9,1137.7 1243.4,1121.7 1238.0,1103.1 1230.7,1082.0 1221.5,1058.2 1210.3,1031.5 1197.1,1002.0 1181.7,969.3 1164.1,933.5 1144.2,894.2 1121.9,851.4 1097.1,804.9 1069.6,754.4 1039.3,699.8 1006.1,640.8 969.8,577.2  Z" style="stroke-width: 2.0;  stroke: rgb(82,82,82); fill: rgb(251,106,74); opacity: 0.667;" />
<path d="M 969.785,577.232 A 1064.250,1064.250 0.00 0,1 973.1,575.3 L 973.1,575.3 1009.3,638.9 1042.7,697.8 1073.4,752.1 1101.5,802.0 1127.2,847.9 1150.6,889.8 1171.8,928.1 1190.8,962.8 1207.9,994.0 1223.0,1022.1 1236.3,1047.0 1247.7,1069.0 1257.5,1088.0 1265.6,1104.3 1272.0,1117.9 1276.8,1128.9 1280.1,1137.2 1281.8,1143.1 1282.0,1146.4 1280.6,1147.3 1277.7,1145.6 1273.3,1141.5 1267.2,1134.8 1259.6,1125.6 1250.3,1113.8 1239.3,1099.3 1226.6,1082.1 1212.0,1062.0 1195.6,1039.0 1177.3,1013.0 1156.9,983.8 1134.3,951.3 1109.5,915.3 1082.4,875.6 1052.8,832.2 1020.6,784.8 985.7,733.1 947.9,677.0 907.1,616.2  A 1064.250,1064.250 0.00 0,0 903.9,618.4 L 903.9,618.4 944.9,679.0 982.9,735.0 1018.0,786.5 1050.4,833.8 1080.1,877.2 1107.4,916.7 1132.3,952.6 1155.0,985.0 1175.5,1014.2 1194.0,1040.1 1210.5,1063.1 1225.1,1083.1 1237.9,1100.2 1248.9,1114.7 1258.2,1126.5 1265.9,1135.7 1272.0,1142.3 1276.4,1146.4 1279.4,1148.1 1280.7,1147.2 1280.5,1143.9 1278.8,1138.0 1275.5,1129.7 1270.6,1118.7 1264.1,1105.2 1256.0,1088.9 1246.2,1069.9 1234.6,1048.0 1221.3,1023.1 1206.0,995.1 1188.9,963.9 1169.7,929.3 1148.4,891.1 1124.8,849.3 1099.0,803.5 1070.7,753.6 1039.8,699.4 1006.2,640.7 969.8,577.2  Z" style="stroke-width: 2.0;  stroke: rgb(82,82,82); fill: rgb(116,196,118); opacity: 0.667;" />
<path d="M 969.785,577.232 A 1064.250,1064.250 0.00 0,1 973.1,575.3 L 973.1,575.3 1009.4,638.9 1042.8,697.7 1073.7,751.9 1102.0,801.7 1128.0,847.4 1151.7,889.1 1173.3,927.1 1192.8,961.5 1210.4,992.5 1226.1,1020.2 1240.0,1044.8 1252.1,1066.3 1262.6,1084.9 1271.5,1100.7 1278.8,1113.8 1284.5,1124.2 1288.8,1131.9 1291.5,1137.1 1292.8,1139.7 1292.7,1139.8 1291.1,1137.4 1288.0,1132.4 1283.4,1124.8 1277.3,1114.6 1269.7,1101.7 1260.5,1086.1 1249.7,1067.7 1237.2,1046.4 1222.9,1022.0 1206.9,994.5 1188.9,963.8 1169.0,929.6 1147.0,891.9 1122.8,850.4 1096.4,805.0 1067.6,755.4 1036.2,701.5 1002.3,643.0 965.5,579.7  A 1064.250,1064.250 0.00 0,0 962.2,581.7 L 962.2,581.7 999.2,644.8 1033.3,703.2 1064.9,757.0 1093.9,806.4 1120.5,851.8 1144.8,893.2 1166.9,930.8 1187.0,964.9 1205.0,995.6 1221.2,1023.0 1235.5,1047.3 1248.1,1068.6 1259.0,1087.0 1268.3,1102.6 1275.9,1115.4 1282.1,1125.6 1286.7,1133.1 1289.8,1138.1 1291.4,1140.6 1291.5,1140.5 1290.2,1137.9 1287.4,1132.7 1283.2,1124.9 1277.4,1114.6 1270.0,1101.5 1261.1,1085.8 1250.6,1067.2 1238.3,1045.7 1224.4,1021.2 1208.6,993.6 1190.9,962.6 1171.2,928.3 1149.5,890.4 1125.7,848.8 1099.5,803.2 1071.0,753.4 1039.9,699.4 1006.2,640.7 969.8,577.2  Z" style="stroke-width: 2.0;  stroke: rgb(82,82,82); fill: rgb(107,174,214); opacity: 0.667;" />
<path d="M 1154.865,493.268 A 1064.250,1064.250 0.00 0,1 1158.5,492.0 L 1158.5,492.0 1182.3,561.3 1204.7,625.2 1226.0,684.0 1246.1,738.0 1265.1,787.3 1283.0,832.3 1300.1,873.1 1316.2,910.0 1331.4,943.0 1345.9,972.5 1359.6,998.5 1372.6,1021.1 1385.0,1040.5 1396.8,1056.8 1408.1,1070.1 1418.8,1080.4 1429.1,1087.9 1439.0,1092.5 1448.5,1094.2 1457.6,1093.2 1466.5,1089.3 1475.0,1082.6 1483.3,1073.0 1491.4,1060.5 1499.4,1045.0 1507.1,1026.4 1514.8,1004.7 1522.3,979.7 1529.7,951.2 1537.1,919.3 1544.4,883.6 1551.7,844.0 1558.9,800.4 1566.2,752.5 1573.4,700.1 1580.7,643.0 1587.9,580.9 1595.2,513.6 1602.6,440.7  A 1064.250,1064.250 0.00 0,0 1598.7,440.3 L 1598.7,440.3 1591.7,513.2 1584.6,580.6 1577.6,642.7 1570.5,699.9 1563.5,752.3 1556.4,800.2 1549.3,843.8 1542.2,883.4 1535.0,919.1 1527.7,951.1 1520.4,979.6 1513.0,1004.6 1505.4,1026.4 1497.7,1045.0 1489.8,1060.5 1481.8,1073.1 1473.5,1082.7 1465.0,1089.4 1456.1,1093.3 1447.0,1094.4 1437.5,1092.7 1427.6,1088.1 1417.3,1080.7 1406.5,1070.4 1395.2,1057.2 1383.4,1040.9 1370.9,1021.6 1357.8,999.0 1344.0,973.0 1329.4,943.6 1314.0,910.6 1297.8,873.8 1280.6,833.1 1262.5,788.2 1243.3,738.9 1223.0,685.0 1201.6,626.3 1178.9,562.5 1154.9,493.3  Z" style="stroke-width: 2.0;  stroke: rgb(82,82,82); fill: rgb(253,141,60); opacity: 0.667;" />
<path d="M 1154.865,493.268 A 1064.250,1064.250 0.00 0,1 1158.5,492.0 L 1158.5,492.0 1183.3,561.7 1208.6,626.7 1234.4,687.4 1260.5,744.2 1287.0,797.4 1313.6,847.2 1340.3,894.0 1367.1,938.0 1394.0,979.4 1420.8,1018.6 1447.6,1055.8 1474.4,1091.1 1501.2,1124.8 1528.0,1157.1 1554.9,1188.1 1581.8,1218.1 1608.9,1247.2 1636.2,1275.5 1663.8,1303.2 1691.8,1330.4 1720.3,1357.1 1749.4,1383.6 1779.3,1409.8 1810.1,1435.8 1841.9,1461.7 1875.0,1487.5 1909.5,1513.3 1945.6,1539.0 1983.5,1564.7 2023.5,1590.3 2065.8,1615.9 2110.5,1641.4 2158.1,1666.7 2208.7,1691.8 2262.6,1716.7 2320.2,1741.1 2381.7,1765.1 2447.4,1788.4 2517.8,1811.1  A 1064.250,1064.250 0.00 0,0 2518.9,1807.4 L 2518.9,1807.4 2448.5,1785.0 2382.6,1761.9 2321.0,1738.1 2263.4,1713.9 2209.4,1689.3 2158.7,1664.4 2111.0,1639.2 2066.2,1613.9 2023.8,1588.5 1983.8,1562.9 1945.7,1537.4 1909.5,1511.8 1874.9,1486.1 1841.8,1460.4 1809.8,1434.7 1778.9,1408.7 1749.0,1382.7 1719.8,1356.3 1691.2,1329.7 1663.1,1302.6 1635.4,1275.0 1608.0,1246.8 1580.8,1217.8 1553.8,1188.0 1526.8,1157.0 1499.9,1124.8 1473.0,1091.2 1446.0,1056.0 1419.1,1018.9 1392.1,979.8 1365.1,938.5 1338.1,894.6 1311.2,847.9 1284.4,798.2 1257.8,745.1 1231.4,688.4 1205.4,627.7 1179.9,562.8 1154.9,493.3  Z" style="stroke-width: 2.0;  stroke: rgb(82,82,82); fill: rgb(255,0,0); opacity: 0.667;" />
<path d="M 1154.865,493.268 A 1064.250,1064.250 0.00 0,1 1158.5,492.0 L 1158.5,492.0 1181.2,562.4 1200.6,629.5 1217.0,693.5 1230.8,754.6 1242.1,813.0 1251.3,868.9 1258.6,922.5 1264.1,973.9 1268.0,1023.4 1270.7,1071.0 1272.1,1117.1 1272.5,1161.7 1271.9,1205.0 1270.5,1247.2 1268.3,1288.5 1265.5,1329.0 1262.1,1368.9 1258.1,1408.3 1253.5,1447.4 1248.3,1486.4 1242.5,1525.4 1236.1,1564.5 1229.0,1603.9 1221.2,1643.7 1212.5,1684.1 1202.8,1725.2 1192.1,1767.2 1180.1,1810.2 1166.7,1854.3 1151.7,1899.6 1135.0,1946.3 1116.2,1994.5 1095.3,2044.4 1071.8,2095.9 1045.6,2149.4 1016.4,2204.8 983.8,2262.3 947.6,2322.0 907.4,2384.0  A 1064.250,1064.250 0.00 0,0 910.6,2386.1 L 910.6,2386.1 950.6,2324.0 986.6,2264.1 1019.0,2206.5 1048.0,2151.0 1074.0,2097.5 1097.2,2045.8 1118.0,1995.9 1136.6,1947.6 1153.2,1900.9 1168.0,1855.5 1181.2,1811.4 1193.0,1768.3 1203.6,1726.3 1213.2,1685.2 1221.7,1644.7 1229.4,1604.9 1236.4,1565.4 1242.6,1526.3 1248.3,1487.3 1253.3,1448.3 1257.7,1409.2 1261.6,1369.8 1264.9,1329.9 1267.6,1289.4 1269.6,1248.1 1270.8,1205.8 1271.2,1162.5 1270.7,1117.9 1269.1,1071.9 1266.3,1024.2 1262.2,974.8 1256.5,923.3 1249.0,869.8 1239.7,813.9 1228.1,755.6 1214.1,694.5 1197.4,630.5 1177.8,563.5 1154.9,493.3  Z" style="stroke-width: 2.0;  stroke: rgb(82,82,82); fill: rgb(255,0,204); opacity: 0.667;" />
<path d="M 1154.865,493.268 A 1064.250,1064.250 0.00 0,1 1158.5,492.0 L 1158.5,492.0 1181.7,561.5 1202.3,626.2 1220.7,686.1 1236.8,741.7 1250.9,793.1 1262.9,840.6 1273.0,884.3 1281.3,924.5 1287.8,961.3 1292.6,995.0 1295.8,1025.6 1297.3,1053.3 1297.3,1078.2 1295.7,1100.5 1292.5,1120.2 1287.9,1137.6 1281.6,1152.5 1273.9,1165.2 1264.5,1175.6 1253.6,1183.9 1240.9,1190.0 1226.6,1193.9 1210.5,1195.8 1192.6,1195.5 1172.7,1193.0 1150.9,1188.4 1126.9,1181.5 1100.7,1172.3 1072.2,1160.8 1041.2,1146.9 1007.6,1130.4 971.3,1111.3 932.1,1089.5 889.8,1064.8 844.3,1037.1 795.4,1006.2 742.8,971.9 686.5,934.1 626.1,892.7  A 1064.250,1064.250 0.00 0,0 623.9,895.8 L 623.9,895.8 684.4,937.1 740.9,974.6 793.6,1008.7 842.6,1039.4 888.2,1067.0 930.6,1091.6 969.9,1113.3 1006.3,1132.2 1039.9,1148.5 1071.0,1162.4 1099.5,1173.8 1125.7,1182.8 1149.7,1189.6 1171.6,1194.2 1191.5,1196.6 1209.4,1196.8 1225.5,1194.9 1239.8,1190.9 1252.4,1184.8 1263.4,1176.5 1272.7,1166.0 1280.4,1153.3 1286.6,1138.3 1291.2,1121.0 1294.2,1101.2 1295.7,1078.9 1295.7,1054.0 1294.0,1026.3 1290.8,995.7 1285.9,962.1 1279.2,925.3 1270.8,885.2 1260.5,841.5 1248.3,794.0 1234.1,742.7 1217.7,687.2 1199.2,627.2 1178.3,562.7 1154.9,493.3  Z" style="stroke-width: 2.0;  stroke: rgb(82,82,82); fill: rgb(255,204,204); opacity: 0.667;" />
<path d="M 1154.865,493.268 A 1064.250,1064.250 0.00 0,1 1158.5,492.0 L 1158.5,492.0 1181.7,561.5 1202.6,626.0 1221.2,685.7 1237.8,741.0 1252.3,792.0 1264.9,839.0 1275.7,882.1 1284.7,921.6 1292.1,957.7 1297.8,990.4 1301.9,1020.0 1304.5,1046.6 1305.6,1070.4 1305.2,1091.3 1303.4,1109.7 1300.0,1125.4 1295.2,1138.7 1289.0,1149.5 1281.2,1158.0 1272.0,1164.1 1261.1,1167.9 1248.7,1169.4 1234.6,1168.5 1218.8,1165.4 1201.3,1159.9 1181.8,1152.0 1160.4,1141.6 1137.0,1128.7 1111.4,1113.2 1083.6,1095.1 1053.4,1074.1 1020.6,1050.2 985.2,1023.3 947.0,993.2 905.9,959.7 861.6,922.7 814.1,882.0 763.0,837.4 708.4,788.7  A 1064.250,1064.250 0.00 0,0 705.8,791.6 L 705.8,791.6 760.6,840.1 811.8,884.5 859.5,925.1 903.9,961.9 945.2,995.2 983.5,1025.2 1019.0,1052.0 1051.8,1075.7 1082.1,1096.6 1110.0,1114.7 1135.7,1130.0 1159.1,1142.8 1180.6,1153.1 1200.0,1160.9 1217.6,1166.4 1233.4,1169.5 1247.5,1170.3 1259.9,1168.7 1270.7,1164.9 1280.0,1158.8 1287.7,1150.3 1293.9,1139.4 1298.7,1126.2 1301.9,1110.4 1303.7,1092.1 1304.1,1071.1 1302.9,1047.3 1300.2,1020.7 1296.0,991.2 1290.1,958.4 1282.6,922.4 1273.5,882.9 1262.5,839.8 1249.7,792.9 1235.0,742.0 1218.3,686.7 1199.4,627.1 1178.3,562.7 1154.9,493.3  Z" style="stroke-width: 2.0;  stroke: rgb(82,82,82); fill: rgb(255,153,0); opacity: 0.667;" />
<path d="M 1154.865,493.268 A 1064.250,1064.250 0.00 0,1 1158.5,492.0 L 1158.5,492.0 1181.8,561.4 1203.1,625.7 1222.4,685.0 1239.8,739.8 1255.4,790.1 1269.3,836.2 1281.6,878.4 1292.3,916.7 1301.5,951.4 1309.2,982.7 1315.6,1010.7 1320.6,1035.5 1324.3,1057.2 1326.7,1076.0 1327.8,1091.9 1327.6,1105.0 1326.2,1115.5 1323.6,1123.3 1319.7,1128.4 1314.5,1131.0 1308.0,1130.9 1300.2,1128.3 1291.1,1123.1 1280.6,1115.2 1268.6,1104.7 1255.1,1091.3 1240.1,1075.2 1223.5,1056.2 1205.1,1034.1 1185.0,1009.0 1163.0,980.6 1139.1,948.7 1113.1,913.4 1084.9,874.3 1054.4,831.3 1021.5,784.3 986.1,732.9 948.0,676.9 907.1,616.2  A 1064.250,1064.250 0.00 0,0 903.9,618.4 L 903.9,618.4 945.0,678.9 983.3,734.7 1018.9,786.0 1052.0,833.0 1082.6,875.8 1110.9,914.8 1137.1,950.1 1161.1,981.8 1183.2,1010.1 1203.4,1035.2 1221.9,1057.2 1238.6,1076.2 1253.7,1092.2 1267.2,1105.5 1279.2,1116.0 1289.7,1123.8 1298.9,1129.0 1306.7,1131.6 1313.2,1131.7 1318.3,1129.1 1322.2,1123.9 1324.8,1116.1 1326.2,1105.7 1326.3,1092.5 1325.1,1076.6 1322.7,1057.8 1318.9,1036.1 1313.8,1011.3 1307.4,983.4 1299.5,952.2 1290.2,917.5 1279.3,879.2 1266.9,837.1 1252.8,791.0 1237.0,740.7 1219.4,686.0 1199.9,626.7 1178.5,562.6 1154.9,493.3  Z" style="stroke-width: 2.0;  stroke: rgb(82,82,82); fill: rgb(255,204,0); opacity: 0.667;" />
<path d="M 1154.865,493.268 A 1064.250,1064.250 0.00 0,1 1158.5,492.0 L 1158.5,492.0 1181.9,561.4 1203.2,625.6 1222.7,684.9 1240.3,739.5 1256.2,789.7 1270.5,835.6 1283.2,877.5 1294.4,915.6 1304.1,950.1 1312.4,981.0 1319.4,1008.6 1325.1,1033.0 1329.5,1054.3 1332.7,1072.6 1334.7,1088.0 1335.5,1100.6 1335.1,1110.5 1333.5,1117.6 1330.7,1122.1 1326.7,1123.9 1321.5,1123.0 1315.1,1119.5 1307.4,1113.4 1298.5,1104.5 1288.2,1092.9 1276.5,1078.4 1263.3,1061.1 1248.7,1040.8 1232.5,1017.3 1214.7,990.7 1195.2,960.7 1173.8,927.2 1150.6,890.1 1125.4,849.1 1098.0,804.1 1068.5,754.9 1036.7,701.3 1002.4,643.0 965.5,579.7  A 1064.250,1064.250 0.00 0,0 962.2,581.7 L 962.2,581.7 999.3,644.8 1033.8,703.0 1065.8,756.5 1095.5,805.6 1123.0,850.5 1148.4,891.4 1171.7,928.4 1193.2,961.8 1212.9,991.7 1230.8,1018.3 1247.0,1041.7 1261.7,1061.9 1274.9,1079.2 1286.7,1093.6 1297.0,1105.2 1306.0,1114.1 1313.7,1120.2 1320.2,1123.7 1325.4,1124.5 1329.3,1122.7 1332.1,1118.2 1333.7,1111.1 1334.0,1101.2 1333.2,1088.6 1331.2,1073.2 1327.9,1054.9 1323.4,1033.7 1317.6,1009.3 1310.6,981.7 1302.1,950.8 1292.3,916.4 1280.9,878.3 1268.1,836.4 1253.7,790.5 1237.6,740.4 1219.8,685.9 1200.1,626.7 1178.5,562.6 1154.9,493.3  Z" style="stroke-width: 2.0;  stroke: rgb(82,82,82); fill: rgb(255,255,0); opacity: 0.667;" />
<path d="M 1154.865,493.268 A 1064.250,1064.250 0.00 0,1 1158.5,492.0 L 1158.5,492.0 1181.9,561.4 1203.3,625.6 1222.7,684.9 1240.4,739.5 1256.4,789.6 1270.7,835.5 1283.4,877.4 1294.6,915.5 1304.4,949.9 1312.8,980.8 1319.9,1008.4 1325.7,1032.7 1330.2,1054.0 1333.5,1072.2 1335.6,1087.6 1336.5,1100.1 1336.2,1109.9 1334.8,1116.9 1332.1,1121.3 1328.3,1123.0 1323.3,1122.1 1317.1,1118.5 1309.6,1112.2 1300.8,1103.2 1290.7,1091.5 1279.3,1076.9 1266.4,1059.4 1252.0,1038.9 1236.1,1015.3 1218.6,988.5 1199.4,958.3 1178.4,924.6 1155.5,887.3 1130.7,846.1 1103.7,800.9 1074.7,751.4 1043.3,697.5 1009.5,638.9 973.1,575.3  A 1064.250,1064.250 0.00 0,0 969.8,577.2 L 969.8,577.2 1006.4,640.6 1040.4,699.1 1071.9,752.9 1101.2,802.3 1128.3,847.4 1153.3,888.5 1176.3,925.8 1197.4,959.4 1216.7,989.5 1234.3,1016.3 1250.3,1039.8 1264.8,1060.2 1277.7,1077.7 1289.2,1092.2 1299.4,1103.9 1308.2,1112.9 1315.7,1119.1 1321.9,1122.7 1327.0,1123.6 1330.8,1121.9 1333.4,1117.5 1334.8,1110.5 1335.1,1100.7 1334.1,1088.2 1332.0,1072.8 1328.6,1054.6 1324.0,1033.4 1318.1,1009.0 1311.0,981.5 1302.4,950.6 1292.5,916.2 1281.1,878.2 1268.3,836.4 1253.8,790.5 1237.7,740.4 1219.8,685.9 1200.1,626.7 1178.5,562.6 1154.9,493.3  Z" style="stroke-width: 2.0;  stroke: rgb(82,82,82); fill: rgb(204,255,0); opacity: 0.667;" />
<path d="M 937.400,596.612 A 1064.250,1064.250 0.00 0,1 940.6,594.6 L 940.6,594.6 979.4,656.8 1015.9,713.9 1050.3,766.3 1082.6,814.2 1113.0,857.8 1141.6,897.4 1168.5,933.1 1193.7,965.1 1217.4,993.7 1239.7,1018.8 1260.6,1040.8 1280.2,1059.7 1298.7,1075.6 1316.1,1088.5 1332.4,1098.7 1347.8,1106.1 1362.3,1110.9 1375.9,1112.9 1388.7,1112.3 1400.7,1109.0 1412.1,1103.1 1422.9,1094.5 1433.0,1083.1 1442.5,1069.0 1451.5,1051.9 1459.9,1032.0 1467.9,1008.9 1475.4,982.7 1482.4,953.2 1488.9,920.2 1495.0,883.6 1500.6,843.3 1505.8,798.9 1510.6,750.3 1514.8,697.3 1518.6,639.6 1521.9,577.1 1524.6,509.3 1526.9,436.1  A 1064.250,1064.250 0.00 0,0 1523.1,436.0 L 1523.1,436.0 1521.1,509.2 1518.6,577.0 1515.6,639.6 1512.0,697.3 1507.9,750.3 1503.3,798.9 1498.3,843.3 1492.8,883.7 1486.8,920.3 1480.4,953.3 1473.5,982.8 1466.1,1009.0 1458.3,1032.1 1449.9,1052.1 1441.0,1069.2 1431.5,1083.3 1421.4,1094.7 1410.7,1103.4 1399.4,1109.4 1387.3,1112.7 1374.5,1113.3 1360.9,1111.3 1346.4,1106.7 1331.0,1099.3 1314.6,1089.2 1297.2,1076.3 1278.7,1060.5 1259.0,1041.7 1238.0,1019.8 1215.6,994.7 1191.8,966.2 1166.4,934.3 1139.5,898.7 1110.8,859.2 1080.2,815.7 1047.7,767.9 1013.2,715.6 976.4,658.6 937.4,596.6  Z" style="stroke-width: 2.0;  stroke: rgb(82,82,82); fill: rgb(0,255,0); opacity: 0.667;" />
<path d="M 994.921,2436.762 A 1064.250,1064.250 0.00 0,1 963.5,2419.1 L 963.5,2419.1 1000.9,2356.1 1036.7,2298.1 1070.9,2245.0 1103.5,2196.4 1134.8,2152.1 1164.7,2111.9 1193.3,2075.5 1220.8,2042.8 1247.3,2013.5 1272.7,1987.6 1297.3,1964.7 1321.0,1944.9 1344.1,1927.9 1366.4,1913.7 1388.2,1902.1 1409.6,1893.1 1430.5,1886.7 1451.2,1882.8 1471.5,1881.3 1491.8,1882.3 1511.9,1885.7 1532.1,1891.6 1552.3,1900.0 1572.7,1911.0 1593.3,1924.6 1614.2,1940.9 1635.5,1960.0 1657.2,1982.0 1679.5,2007.1 1702.3,2035.4 1725.8,2067.1 1750.1,2102.3 1775.1,2141.2 1801.0,2184.1 1827.9,2231.2 1855.7,2282.7 1884.6,2338.8 1914.7,2400.0 1946.0,2466.3  A 1064.250,1064.250 0.00 0,0 1978.4,2450.7 L 1978.4,2450.7 1944.9,2385.4 1912.8,2325.3 1882.0,2270.2 1852.4,2219.7 1824.0,2173.5 1796.7,2131.5 1770.3,2093.5 1744.9,2059.1 1720.3,2028.3 1696.5,2000.7 1673.5,1976.4 1651.0,1955.1 1629.1,1936.7 1607.6,1921.2 1586.6,1908.3 1565.8,1898.0 1545.3,1890.3 1525.0,1885.1 1504.7,1882.3 1484.5,1882.0 1464.1,1884.2 1443.7,1888.8 1423.0,1896.0 1401.9,1905.7 1380.5,1917.9 1358.6,1932.9 1336.2,1950.7 1313.2,1971.3 1289.4,1995.0 1264.8,2021.8 1239.4,2052.0 1213.0,2085.6 1185.6,2122.9 1157.1,2164.1 1127.4,2209.4 1096.4,2259.1 1064.0,2313.3 1030.2,2372.5 994.9,2436.8  Z" style="stroke-width: 2.0;  stroke: rgb(82,82,82); fill: rgb(53,128,0); opacity: 0.667;" />
<path d="M 1049.128,535.976 A 1064.250,1064.250 0.00 0,1 1053.1,534.1 L 1053.1,534.1 1083.8,600.6 1112.2,662.0 1138.4,718.6 1162.5,770.6 1184.5,818.3 1204.6,861.9 1222.9,901.5 1239.5,937.5 1254.4,969.8 1267.8,998.7 1279.6,1024.3 1289.9,1046.8 1298.8,1066.2 1306.3,1082.7 1312.6,1096.3 1317.5,1107.1 1321.1,1115.2 1323.5,1120.5 1324.6,1123.2 1324.5,1123.3 1323.2,1120.7 1320.6,1115.4 1316.8,1107.4 1311.7,1096.7 1305.3,1083.2 1297.6,1066.8 1288.4,1047.5 1277.9,1025.1 1265.9,999.6 1252.3,970.8 1237.2,938.6 1220.4,902.8 1201.8,863.2 1181.4,819.7 1159.1,772.2 1134.8,720.2 1108.3,663.8 1079.6,602.5 1048.5,536.3  A 1064.250,1064.250 0.00 0,0 1044.6,538.1 L 1044.6,538.1 1075.9,604.3 1104.9,665.4 1131.6,721.8 1156.1,773.6 1178.6,821.1 1199.2,864.4 1217.9,903.9 1234.9,939.6 1250.2,971.8 1263.8,1000.5 1275.9,1026.0 1286.6,1048.3 1295.8,1067.6 1303.6,1084.0 1310.1,1097.5 1315.2,1108.2 1319.1,1116.1 1321.7,1121.4 1323.0,1124.0 1323.1,1123.9 1321.9,1121.3 1319.5,1115.9 1315.9,1107.8 1310.9,1097.1 1304.6,1083.5 1297.0,1067.0 1288.0,1047.7 1277.6,1025.2 1265.7,999.7 1252.3,970.8 1237.2,938.5 1220.5,902.7 1202.0,863.1 1181.7,819.6 1159.5,772.0 1135.2,720.0 1108.8,663.6 1080.1,602.3 1049.1,536.0  Z" style="stroke-width: 2.0;  stroke: rgb(82,82,82); fill: rgb(0,0,204); opacity: 0.667;" />
</g>
<defs>
<pattern id="hline-sparse" width="10" height="10" patternTransform="rotate(0 0 0)" patternUnits="userSpaceOnUse"><line x1="0" y1="0" x2="10" y2="0" style="stroke:black;stroke-width:2" /></pattern>
<pattern id="checker" width="10" height="10" patternTransform="rotate(45 0 0)" patternUnits="userSpaceOnUse"><line x1="0" y1="0" x2="10" y2="0" style="stroke:black;stroke-width:2" /><line x1="0" y1="0" x2="0" y2="10" style="stroke:black;stroke-width:2" /></pattern>
<pattern id="checker" width="10" height="10" patternTransform="rotate(45 0 0)" patternUnits="userSpaceOnUse"><line x1="0" y1="0" x2="10" y2="0" style="stroke:black;stroke-width:5" /><line x1="0" y1="0" x2="0" y2="10" style="stroke:black;stroke-width:4" /></pattern>
<pattern id="hline" width="10" height="10" patternTransform="rotate(0 0 0)" patternUnits="userSpaceOnUse"><line x1="0" y1="0" x2="10" y2="0" style="stroke:black;stroke-width:5" /></pattern>
<pattern id="vline-sparse" width="10" height="10" patternTransform="rotate(0 0 0)" patternUnits="userSpaceOnUse"><line x1="0" y1="0" x2="0" y2="10" style="stroke:black;stroke-width:2" /></pattern>
<pattern id="vline" width="10" height="10" patternTransform="rotate(0 0 0)" patternUnits="userSpaceOnUse"><line x1="0" y1="0" x2="0" y2="10" style="stroke:black;stroke-width:5" /></pattern>
</defs>
</svg>
