<?xml version="1.0" encoding="utf-8" standalone="no"?>
<!DOCTYPE svg PUBLIC "-//W3C//DTD SVG 1.1//EN" "http://www.w3.org/Graphics/SVG/1.1/DTD/svg11.dtd">
<svg width="3000px" height="3000px" version="1.1" xmlns="http://www.w3.org/2000/svg" xmlns:xlink="http://www.w3.org/1999/xlink">
<g id="ideograms">
<path d="M1500.000,425.000 A1075.000,1075.000 40.000 0,1 1534.435,425.552 L1536.037,375.577 A1125.000,1125.000 0.000 0,0 1500.000,375.000 Z" style="stroke-linecap:round;fill:rgb(116,196,118);fill-opacity:0.33;" />
<text x="1529.0" y="285.3" font-size="18.2px" font-family="CMUBright-Roman" style="text-anchor:start;fill:rgb(0,0,0);" transform="rotate(270.9,1529.0,285.3)" >R<tspan baseline-shift="-40%" font-size="90%">s</tspan>caffold<tspan baseline-shift="-40%" font-size="90%">2</tspan>5</text>
<line x1='1500.0' y1='375.0' x2='1500.0' y2='355.0' style="stroke-width:4.0;stroke:rgb(0,0,0);stroke-linecap:round;fill:none;" />
<text x="1506.5" y="345.0" font-size="18.2px" font-family="CMUBright-Roman" style="text-anchor:start;fill:rgb(0,0,0);" transform="rotate(270.0,1506.5,345.0)" >0</text>
<g id="highlighttrack_0">
<path d="M1516.312,425.124 A1075.000,1075.000 40.000 0,1 1528.100,425.367 L1529.407,375.384 A1125.000,1125.000 0.000 0,0 1517.071,375.130 Z" style="stroke-width:4.0;stroke:rgb(0,0,0);stroke-linecap:round;fill:rgb(251,106,74);" />
</g>
<path d="M1599.874,429.649 A1075.000,1075.000 40.000 0,1 1604.093,430.052 L1608.935,380.287 A1125.000,1125.000 0.000 0,0 1604.519,379.866 Z" style="stroke-linecap:round;fill:rgb(116,196,118);fill-opacity:0.33;" />
<text x="1624.7" y="291.4" font-size="18.2px" font-family="CMUBright-Roman" style="text-anchor:start;fill:rgb(0,0,0);" transform="rotate(275.4,1624.7,291.4)" >R<tspan baseline-shift="-40%" font-size="90%">s</tspan>caffold<tspan baseline-shift="-40%" font-size="90%">2</tspan>9</text>
<line x1='1604.5' y1='379.9' x2='1606.4' y2='360.0' style="stroke-width:4.0;stroke:rgb(0,0,0);stroke-linecap:round;fill:none;" />
<text x="1613.8" y="350.6" font-size="18.2px" font-family="CMUBright-Roman" style="text-anchor:start;fill:rgb(0,0,0);" transform="rotate(275.3,1613.8,350.6)" >0</text>
<g id="highlighttrack_0">
<path d="M1600.137,429.674 A1075.000,1075.000 40.000 0,1 1604.093,430.052 L1608.935,380.287 A1125.000,1125.000 0.000 0,0 1604.795,379.892 Z" style="stroke-width:4.0;stroke:rgb(0,0,0);stroke-linecap:round;fill:rgb(251,106,74);" />
</g>
<path d="M1669.128,438.388 A1075.000,1075.000 40.000 1,1 1434.464,427.000 L1431.416,377.093 A1125.000,1125.000 0.000 1,0 1676.994,389.010 Z" style="stroke-linecap:round;fill:rgb(116,196,118);fill-opacity:0.33;" />
<text x="1450.6" y="2714.0" font-size="18.2px" font-family="CMUBright-Roman" style="text-anchor:end;fill:rgb(0,0,0);" transform="rotate(-87.2,1450.6,2714.0)" >NZ<tspan baseline-shift="-40%" font-size="90%">C</tspan>P047422.1</text>
<line x1='1677.0' y1='389.0' x2='1680.1' y2='369.3' style="stroke-width:4.0;stroke:rgb(0,0,0);stroke-linecap:round;fill:none;" />
<text x="1688.1" y="360.4" font-size="18.2px" font-family="CMUBright-Roman" style="text-anchor:start;fill:rgb(0,0,0);" transform="rotate(279.1,1688.1,360.4)" >0</text>
<line x1='1747.4' y1='402.5' x2='1751.8' y2='383.0' style="stroke-width:4.0;stroke:rgb(0,0,0);stroke-linecap:round;fill:none;" />
<text x="1760.4" y="374.7" font-size="18.2px" font-family="CMUBright-Roman" style="text-anchor:start;fill:rgb(0,0,0);" transform="rotate(282.7,1760.4,374.7)" >50</text>
<line x1='1816.9' y1='420.6' x2='1822.5' y2='401.4' style="stroke-width:4.0;stroke:rgb(0,0,0);stroke-linecap:round;fill:none;" />
<text x="1831.6" y="393.6" font-size="18.2px" font-family="CMUBright-Roman" style="text-anchor:start;fill:rgb(0,0,0);" transform="rotate(286.4,1831.6,393.6)" >100</text>
<line x1='1885.0' y1='442.9' x2='1891.9' y2='424.1' style="stroke-width:4.0;stroke:rgb(0,0,0);stroke-linecap:round;fill:none;" />
<text x="1901.4" y="417.0" font-size="18.2px" font-family="CMUBright-Roman" style="text-anchor:start;fill:rgb(0,0,0);" transform="rotate(290.0,1901.4,417.0)" >150</text>
<line x1='1951.6' y1='469.6' x2='1959.6' y2='451.3' style="stroke-width:4.0;stroke:rgb(0,0,0);stroke-linecap:round;fill:none;" />
<text x="1969.6" y="444.8" font-size="18.2px" font-family="CMUBright-Roman" style="text-anchor:start;fill:rgb(0,0,0);" transform="rotate(293.7,1969.6,444.8)" >200</text>
<line x1='2016.4' y1='500.5' x2='2025.5' y2='482.7' style="stroke-width:4.0;stroke:rgb(0,0,0);stroke-linecap:round;fill:none;" />
<text x="2035.9" y="476.9" font-size="18.2px" font-family="CMUBright-Roman" style="text-anchor:start;fill:rgb(0,0,0);" transform="rotate(297.3,2035.9,476.9)" >250</text>
<line x1='2079.0' y1='535.4' x2='2089.3' y2='518.3' style="stroke-width:4.0;stroke:rgb(0,0,0);stroke-linecap:round;fill:none;" />
<text x="2100.0" y="513.1" font-size="18.2px" font-family="CMUBright-Roman" style="text-anchor:start;fill:rgb(0,0,0);" transform="rotate(301.0,2100.0,513.1)" >300</text>
<line x1='2139.3' y1='574.3' x2='2150.7' y2='557.9' style="stroke-width:4.0;stroke:rgb(0,0,0);stroke-linecap:round;fill:none;" />
<text x="2161.7" y="553.3" font-size="18.2px" font-family="CMUBright-Roman" style="text-anchor:start;fill:rgb(0,0,0);" transform="rotate(304.6,2161.7,553.3)" >350</text>
<line x1='2197.0' y1='616.9' x2='2209.4' y2='601.2' style="stroke-width:4.0;stroke:rgb(0,0,0);stroke-linecap:round;fill:none;" />
<text x="2220.7" y="597.4" font-size="18.2px" font-family="CMUBright-Roman" style="text-anchor:start;fill:rgb(0,0,0);" transform="rotate(308.3,2220.7,597.4)" >400</text>
<line x1='2251.9' y1='663.2' x2='2265.2' y2='648.3' style="stroke-width:4.0;stroke:rgb(0,0,0);stroke-linecap:round;fill:none;" />
<text x="2276.7" y="645.2" font-size="18.2px" font-family="CMUBright-Roman" style="text-anchor:start;fill:rgb(0,0,0);" transform="rotate(311.9,2276.7,645.2)" >450</text>
<line x1='2303.7' y1='712.8' x2='2318.0' y2='698.8' style="stroke-width:4.0;stroke:rgb(0,0,0);stroke-linecap:round;fill:none;" />
<text x="2329.6" y="696.4" font-size="18.2px" font-family="CMUBright-Roman" style="text-anchor:start;fill:rgb(0,0,0);" transform="rotate(315.6,2329.6,696.4)" >500</text>
<line x1='2352.2' y1='765.6' x2='2367.4' y2='752.5' style="stroke-width:4.0;stroke:rgb(0,0,0);stroke-linecap:round;fill:none;" />
<text x="2379.2" y="750.9" font-size="18.2px" font-family="CMUBright-Roman" style="text-anchor:start;fill:rgb(0,0,0);" transform="rotate(319.2,2379.2,750.9)" >550</text>
<line x1='2397.3' y1='821.4' x2='2413.2' y2='809.3' style="stroke-width:4.0;stroke:rgb(0,0,0);stroke-linecap:round;fill:none;" />
<text x="2425.1" y="808.5" font-size="18.2px" font-family="CMUBright-Roman" style="text-anchor:start;fill:rgb(0,0,0);" transform="rotate(322.9,2425.1,808.5)" >600</text>
<line x1='2438.7' y1='880.0' x2='2455.4' y2='868.9' style="stroke-width:4.0;stroke:rgb(0,0,0);stroke-linecap:round;fill:none;" />
<text x="2467.3" y="868.9" font-size="18.2px" font-family="CMUBright-Roman" style="text-anchor:start;fill:rgb(0,0,0);" transform="rotate(326.6,2467.3,868.9)" >650</text>
<line x1='2476.3' y1='941.1' x2='2493.7' y2='931.1' style="stroke-width:4.0;stroke:rgb(0,0,0);stroke-linecap:round;fill:none;" />
<text x="2505.6" y="931.8" font-size="18.2px" font-family="CMUBright-Roman" style="text-anchor:start;fill:rgb(0,0,0);" transform="rotate(330.2,2505.6,931.8)" >700</text>
<line x1='2510.0' y1='1004.4' x2='2527.9' y2='995.6' style="stroke-width:4.0;stroke:rgb(0,0,0);stroke-linecap:round;fill:none;" />
<text x="2539.7" y="997.0" font-size="18.2px" font-family="CMUBright-Roman" style="text-anchor:start;fill:rgb(0,0,0);" transform="rotate(333.9,2539.7,997.0)" >750</text>
<line x1='2539.5' y1='1069.8' x2='2558.0' y2='1062.1' style="stroke-width:4.0;stroke:rgb(0,0,0);stroke-linecap:round;fill:none;" />
<text x="2569.7" y="1064.3" font-size="18.2px" font-family="CMUBright-Roman" style="text-anchor:start;fill:rgb(0,0,0);" transform="rotate(337.5,2569.7,1064.3)" >800</text>
<line x1='2564.8' y1='1136.9' x2='2583.7' y2='1130.5' style="stroke-width:4.0;stroke:rgb(0,0,0);stroke-linecap:round;fill:none;" />
<text x="2595.3" y="1133.4" font-size="18.2px" font-family="CMUBright-Roman" style="text-anchor:start;fill:rgb(0,0,0);" transform="rotate(341.2,2595.3,1133.4)" >850</text>
<line x1='2585.8' y1='1205.5' x2='2605.1' y2='1200.3' style="stroke-width:4.0;stroke:rgb(0,0,0);stroke-linecap:round;fill:none;" />
<text x="2616.4" y="1203.9" font-size="18.2px" font-family="CMUBright-Roman" style="text-anchor:start;fill:rgb(0,0,0);" transform="rotate(344.8,2616.4,1203.9)" >900</text>
<line x1='2602.3' y1='1275.3' x2='2621.9' y2='1271.3' style="stroke-width:4.0;stroke:rgb(0,0,0);stroke-linecap:round;fill:none;" />
<text x="2633.0" y="1275.7" font-size="18.2px" font-family="CMUBright-Roman" style="text-anchor:start;fill:rgb(0,0,0);" transform="rotate(348.5,2633.0,1275.7)" >950</text>
<line x1='2614.4' y1='1346.0' x2='2634.2' y2='1343.3' style="stroke-width:4.0;stroke:rgb(0,0,0);stroke-linecap:round;fill:none;" />
<text x="2645.0" y="1348.4" font-size="18.2px" font-family="CMUBright-Roman" style="text-anchor:start;fill:rgb(0,0,0);" transform="rotate(352.1,2645.0,1348.4)" >1000</text>
<line x1='2622.0' y1='1417.4' x2='2641.9' y2='1415.9' style="stroke-width:4.0;stroke:rgb(0,0,0);stroke-linecap:round;fill:none;" />
<text x="2652.3" y="1421.6" font-size="18.2px" font-family="CMUBright-Roman" style="text-anchor:start;fill:rgb(0,0,0);" transform="rotate(355.8,2652.3,1421.6)" >1050</text>
<line x1='2624.9' y1='1489.0' x2='2644.9' y2='1488.8' style="stroke-width:4.0;stroke:rgb(0,0,0);stroke-linecap:round;fill:none;" />
<text x="2655.0" y="1495.2" font-size="18.2px" font-family="CMUBright-Roman" style="text-anchor:start;fill:rgb(0,0,0);" transform="rotate(359.4,2655.0,1495.2)" >1100</text>
<line x1='2623.4' y1='1560.8' x2='2643.3' y2='1561.8' style="stroke-width:4.0;stroke:rgb(0,0,0);stroke-linecap:round;fill:none;" />
<text x="2652.9" y="1568.9" font-size="18.2px" font-family="CMUBright-Roman" style="text-anchor:start;fill:rgb(0,0,0);" transform="rotate(3.1,2652.9,1568.9)" >1150</text>
<line x1='2617.2' y1='1632.2' x2='2637.1' y2='1634.6' style="stroke-width:4.0;stroke:rgb(0,0,0);stroke-linecap:round;fill:none;" />
<text x="2646.2" y="1642.2" font-size="18.2px" font-family="CMUBright-Roman" style="text-anchor:start;fill:rgb(0,0,0);" transform="rotate(6.7,2646.2,1642.2)" >1200</text>
<line x1='2606.5' y1='1703.2' x2='2626.2' y2='1706.8' style="stroke-width:4.0;stroke:rgb(0,0,0);stroke-linecap:round;fill:none;" />
<text x="2634.8" y="1715.0" font-size="18.2px" font-family="CMUBright-Roman" style="text-anchor:start;fill:rgb(0,0,0);" transform="rotate(10.4,2634.8,1715.0)" >1250</text>
<line x1='2591.3' y1='1773.3' x2='2610.7' y2='1778.1' style="stroke-width:4.0;stroke:rgb(0,0,0);stroke-linecap:round;fill:none;" />
<text x="2618.8" y="1786.9" font-size="18.2px" font-family="CMUBright-Roman" style="text-anchor:start;fill:rgb(0,0,0);" transform="rotate(14.1,2618.8,1786.9)" >1300</text>
<line x1='2571.7' y1='1842.3' x2='2590.7' y2='1848.3' style="stroke-width:4.0;stroke:rgb(0,0,0);stroke-linecap:round;fill:none;" />
<text x="2598.3" y="1857.6" font-size="18.2px" font-family="CMUBright-Roman" style="text-anchor:start;fill:rgb(0,0,0);" transform="rotate(17.7,2598.3,1857.6)" >1350</text>
<line x1='2547.7' y1='1909.9' x2='2566.3' y2='1917.2' style="stroke-width:4.0;stroke:rgb(0,0,0);stroke-linecap:round;fill:none;" />
<text x="2573.2" y="1926.8" font-size="18.2px" font-family="CMUBright-Roman" style="text-anchor:start;fill:rgb(0,0,0);" transform="rotate(21.4,2573.2,1926.8)" >1400</text>
<line x1='2519.4' y1='1975.8' x2='2537.6' y2='1984.3' style="stroke-width:4.0;stroke:rgb(0,0,0);stroke-linecap:round;fill:none;" />
<text x="2543.8" y="1994.4" font-size="18.2px" font-family="CMUBright-Roman" style="text-anchor:start;fill:rgb(0,0,0);" transform="rotate(25.0,2543.8,1994.4)" >1450</text>
<line x1='2487.0' y1='2039.8' x2='2504.6' y2='2049.4' style="stroke-width:4.0;stroke:rgb(0,0,0);stroke-linecap:round;fill:none;" />
<text x="2510.2" y="2059.9" font-size="18.2px" font-family="CMUBright-Roman" style="text-anchor:start;fill:rgb(0,0,0);" transform="rotate(28.7,2510.2,2059.9)" >1500</text>
<line x1='2450.6' y1='2101.6' x2='2467.5' y2='2112.3' style="stroke-width:4.0;stroke:rgb(0,0,0);stroke-linecap:round;fill:none;" />
<text x="2472.5" y="2123.1" font-size="18.2px" font-family="CMUBright-Roman" style="text-anchor:start;fill:rgb(0,0,0);" transform="rotate(32.3,2472.5,2123.1)" >1550</text>
<line x1='2410.3' y1='2161.0' x2='2426.5' y2='2172.7' style="stroke-width:4.0;stroke:rgb(0,0,0);stroke-linecap:round;fill:none;" />
<text x="2430.8" y="2183.9" font-size="18.2px" font-family="CMUBright-Roman" style="text-anchor:start;fill:rgb(0,0,0);" transform="rotate(36.0,2430.8,2183.9)" >1600</text>
<line x1='2366.4' y1='2217.7' x2='2381.8' y2='2230.4' style="stroke-width:4.0;stroke:rgb(0,0,0);stroke-linecap:round;fill:none;" />
<text x="2385.3" y="2241.8" font-size="18.2px" font-family="CMUBright-Roman" style="text-anchor:start;fill:rgb(0,0,0);" transform="rotate(39.6,2385.3,2241.8)" >1650</text>
<line x1='2318.9' y1='2271.4' x2='2333.4' y2='2285.1' style="stroke-width:4.0;stroke:rgb(0,0,0);stroke-linecap:round;fill:none;" />
<text x="2336.2" y="2296.7" font-size="18.2px" font-family="CMUBright-Roman" style="text-anchor:start;fill:rgb(0,0,0);" transform="rotate(43.3,2336.2,2296.7)" >1700</text>
<line x1='2268.0' y1='2322.0' x2='2281.7' y2='2336.6' style="stroke-width:4.0;stroke:rgb(0,0,0);stroke-linecap:round;fill:none;" />
<text x="2283.8" y="2348.4" font-size="18.2px" font-family="CMUBright-Roman" style="text-anchor:start;fill:rgb(0,0,0);" transform="rotate(46.9,2283.8,2348.4)" >1750</text>
<line x1='2214.1' y1='2369.3' x2='2226.8' y2='2384.8' style="stroke-width:4.0;stroke:rgb(0,0,0);stroke-linecap:round;fill:none;" />
<text x="2228.1" y="2396.6" font-size="18.2px" font-family="CMUBright-Roman" style="text-anchor:start;fill:rgb(0,0,0);" transform="rotate(50.6,2228.1,2396.6)" >1800</text>
<line x1='2157.2' y1='2413.1' x2='2168.9' y2='2429.3' style="stroke-width:4.0;stroke:rgb(0,0,0);stroke-linecap:round;fill:none;" />
<text x="2169.5" y="2441.2" font-size="18.2px" font-family="CMUBright-Roman" style="text-anchor:start;fill:rgb(0,0,0);" transform="rotate(54.3,2169.5,2441.2)" >1850</text>
<line x1='2097.7' y1='2453.1' x2='2108.3' y2='2470.0' style="stroke-width:4.0;stroke:rgb(0,0,0);stroke-linecap:round;fill:none;" />
<text x="2108.1" y="2481.9" font-size="18.2px" font-family="CMUBright-Roman" style="text-anchor:start;fill:rgb(0,0,0);" transform="rotate(57.9,2108.1,2481.9)" >1900</text>
<line x1='2035.8' y1='2489.2' x2='2045.3' y2='2506.8' style="stroke-width:4.0;stroke:rgb(0,0,0);stroke-linecap:round;fill:none;" />
<text x="2044.3" y="2518.7" font-size="18.2px" font-family="CMUBright-Roman" style="text-anchor:start;fill:rgb(0,0,0);" transform="rotate(61.6,2044.3,2518.7)" >1950</text>
<line x1='1971.6' y1='2521.4' x2='1980.0' y2='2539.5' style="stroke-width:4.0;stroke:rgb(0,0,0);stroke-linecap:round;fill:none;" />
<text x="1978.3" y="2551.3" font-size="18.2px" font-family="CMUBright-Roman" style="text-anchor:start;fill:rgb(0,0,0);" transform="rotate(65.2,1978.3,2551.3)" >2000</text>
<line x1='1905.6' y1='2549.4' x2='1912.8' y2='2568.0' style="stroke-width:4.0;stroke:rgb(0,0,0);stroke-linecap:round;fill:none;" />
<text x="1910.3" y="2579.7" font-size="18.2px" font-family="CMUBright-Roman" style="text-anchor:start;fill:rgb(0,0,0);" transform="rotate(68.9,1910.3,2579.7)" >2050</text>
<line x1='1837.9' y1='2573.1' x2='1843.9' y2='2592.1' style="stroke-width:4.0;stroke:rgb(0,0,0);stroke-linecap:round;fill:none;" />
<text x="1840.7" y="2603.6" font-size="18.2px" font-family="CMUBright-Roman" style="text-anchor:start;fill:rgb(0,0,0);" transform="rotate(72.5,1840.7,2603.6)" >2100</text>
<line x1='1768.8' y1='2592.4' x2='1773.6' y2='2611.8' style="stroke-width:4.0;stroke:rgb(0,0,0);stroke-linecap:round;fill:none;" />
<text x="1769.6" y="2623.1" font-size="18.2px" font-family="CMUBright-Roman" style="text-anchor:start;fill:rgb(0,0,0);" transform="rotate(76.2,1769.6,2623.1)" >2150</text>
<line x1='1698.6' y1='2607.3' x2='1702.1' y2='2627.0' style="stroke-width:4.0;stroke:rgb(0,0,0);stroke-linecap:round;fill:none;" />
<text x="1697.5" y="2638.0" font-size="18.2px" font-family="CMUBright-Roman" style="text-anchor:start;fill:rgb(0,0,0);" transform="rotate(79.8,1697.5,2638.0)" >2200</text>
<line x1='1627.6' y1='2617.7' x2='1629.9' y2='2637.6' style="stroke-width:4.0;stroke:rgb(0,0,0);stroke-linecap:round;fill:none;" />
<text x="1624.6" y="2648.3" font-size="18.2px" font-family="CMUBright-Roman" style="text-anchor:start;fill:rgb(0,0,0);" transform="rotate(83.5,1624.6,2648.3)" >2250</text>
<line x1='1556.1' y1='2623.6' x2='1557.1' y2='2643.6' style="stroke-width:4.0;stroke:rgb(0,0,0);stroke-linecap:round;fill:none;" />
<text x="1551.1" y="2653.9" font-size="18.2px" font-family="CMUBright-Roman" style="text-anchor:start;fill:rgb(0,0,0);" transform="rotate(87.1,1551.1,2653.9)" >2300</text>
<line x1='1484.4' y1='2624.9' x2='1484.1' y2='2644.9' style="stroke-width:4.0;stroke:rgb(0,0,0);stroke-linecap:round;fill:none;" />
<text x="1490.5" y="2655.0" font-size="18.2px" font-family="CMUBright-Roman" style="text-anchor:end;fill:rgb(0,0,0);" transform="rotate(-89.2,1490.5,2655.0)" >2350</text>
<line x1='1412.8' y1='2621.6' x2='1411.2' y2='2641.6' style="stroke-width:4.0;stroke:rgb(0,0,0);stroke-linecap:round;fill:none;" />
<text x="1416.9" y="2652.0" font-size="18.2px" font-family="CMUBright-Roman" style="text-anchor:end;fill:rgb(0,0,0);" transform="rotate(-85.6,1416.9,2652.0)" >2400</text>
<line x1='1341.5' y1='2613.8' x2='1338.6' y2='2633.6' style="stroke-width:4.0;stroke:rgb(0,0,0);stroke-linecap:round;fill:none;" />
<text x="1343.7" y="2644.4" font-size="18.2px" font-family="CMUBright-Roman" style="text-anchor:end;fill:rgb(0,0,0);" transform="rotate(-81.9,1343.7,2644.4)" >2450</text>
<line x1='1270.8' y1='2601.4' x2='1266.7' y2='2621.0' style="stroke-width:4.0;stroke:rgb(0,0,0);stroke-linecap:round;fill:none;" />
<text x="1271.0" y="2632.1" font-size="18.2px" font-family="CMUBright-Roman" style="text-anchor:end;fill:rgb(0,0,0);" transform="rotate(-78.2,1271.0,2632.1)" >2500</text>
<line x1='1201.1' y1='2584.6' x2='1195.8' y2='2603.8' style="stroke-width:4.0;stroke:rgb(0,0,0);stroke-linecap:round;fill:none;" />
<text x="1199.4" y="2615.2" font-size="18.2px" font-family="CMUBright-Roman" style="text-anchor:end;fill:rgb(0,0,0);" transform="rotate(-74.6,1199.4,2615.2)" >2550</text>
<line x1='1132.6' y1='2563.3' x2='1126.0' y2='2582.2' style="stroke-width:4.0;stroke:rgb(0,0,0);stroke-linecap:round;fill:none;" />
<text x="1128.9" y="2593.8" font-size="18.2px" font-family="CMUBright-Roman" style="text-anchor:end;fill:rgb(0,0,0);" transform="rotate(-70.9,1128.9,2593.8)" >2600</text>
<line x1='1065.5' y1='2537.7' x2='1057.8' y2='2556.2' style="stroke-width:4.0;stroke:rgb(0,0,0);stroke-linecap:round;fill:none;" />
<text x="1059.9" y="2567.9" font-size="18.2px" font-family="CMUBright-Roman" style="text-anchor:end;fill:rgb(0,0,0);" transform="rotate(-67.3,1059.9,2567.9)" >2650</text>
<line x1='1000.3' y1='2507.9' x2='991.4' y2='2525.8' style="stroke-width:4.0;stroke:rgb(0,0,0);stroke-linecap:round;fill:none;" />
<text x="992.8" y="2537.7" font-size="18.2px" font-family="CMUBright-Roman" style="text-anchor:end;fill:rgb(0,0,0);" transform="rotate(-63.6,992.8,2537.7)" >2700</text>
<line x1='937.1' y1='2474.0' x2='927.0' y2='2491.3' style="stroke-width:4.0;stroke:rgb(0,0,0);stroke-linecap:round;fill:none;" />
<text x="927.7" y="2503.2" font-size="18.2px" font-family="CMUBright-Roman" style="text-anchor:end;fill:rgb(0,0,0);" transform="rotate(-60.0,927.7,2503.2)" >2750</text>
<line x1='876.1' y1='2436.2' x2='865.0' y2='2452.8' style="stroke-width:4.0;stroke:rgb(0,0,0);stroke-linecap:round;fill:none;" />
<text x="864.9" y="2464.7" font-size="18.2px" font-family="CMUBright-Roman" style="text-anchor:end;fill:rgb(0,0,0);" transform="rotate(-56.3,864.9,2464.7)" >2800</text>
<line x1='817.7' y1='2394.5' x2='805.6' y2='2410.4' style="stroke-width:4.0;stroke:rgb(0,0,0);stroke-linecap:round;fill:none;" />
<text x="804.7" y="2422.3" font-size="18.2px" font-family="CMUBright-Roman" style="text-anchor:end;fill:rgb(0,0,0);" transform="rotate(-52.7,804.7,2422.3)" >2850</text>
<line x1='762.1' y1='2349.2' x2='749.0' y2='2364.3' style="stroke-width:4.0;stroke:rgb(0,0,0);stroke-linecap:round;fill:none;" />
<text x="747.3" y="2376.1" font-size="18.2px" font-family="CMUBright-Roman" style="text-anchor:end;fill:rgb(0,0,0);" transform="rotate(-49.0,747.3,2376.1)" >2900</text>
<line x1='709.5' y1='2300.4' x2='695.4' y2='2314.7' style="stroke-width:4.0;stroke:rgb(0,0,0);stroke-linecap:round;fill:none;" />
<text x="693.0" y="2326.3" font-size="18.2px" font-family="CMUBright-Roman" style="text-anchor:end;fill:rgb(0,0,0);" transform="rotate(-45.4,693.0,2326.3)" >2950</text>
<line x1='660.1' y1='2248.4' x2='645.1' y2='2261.7' style="stroke-width:4.0;stroke:rgb(0,0,0);stroke-linecap:round;fill:none;" />
<text x="642.0" y="2273.2" font-size="18.2px" font-family="CMUBright-Roman" style="text-anchor:end;fill:rgb(0,0,0);" transform="rotate(-41.7,642.0,2273.2)" >3000</text>
<line x1='614.1' y1='2193.4' x2='598.3' y2='2205.7' style="stroke-width:4.0;stroke:rgb(0,0,0);stroke-linecap:round;fill:none;" />
<text x="594.5" y="2217.0" font-size="18.2px" font-family="CMUBright-Roman" style="text-anchor:end;fill:rgb(0,0,0);" transform="rotate(-38.0,594.5,2217.0)" >3050</text>
<line x1='571.7' y1='2135.5' x2='555.2' y2='2146.8' style="stroke-width:4.0;stroke:rgb(0,0,0);stroke-linecap:round;fill:none;" />
<text x="550.6" y="2157.8" font-size="18.2px" font-family="CMUBright-Roman" style="text-anchor:end;fill:rgb(0,0,0);" transform="rotate(-34.4,550.6,2157.8)" >3100</text>
<line x1='533.1' y1='2075.1' x2='515.9' y2='2085.3' style="stroke-width:4.0;stroke:rgb(0,0,0);stroke-linecap:round;fill:none;" />
<text x="510.6" y="2096.0" font-size="18.2px" font-family="CMUBright-Roman" style="text-anchor:end;fill:rgb(0,0,0);" transform="rotate(-30.7,510.6,2096.0)" >3150</text>
<line x1='498.4' y1='2012.3' x2='480.6' y2='2021.4' style="stroke-width:4.0;stroke:rgb(0,0,0);stroke-linecap:round;fill:none;" />
<text x="474.7" y="2031.7" font-size="18.2px" font-family="CMUBright-Roman" style="text-anchor:end;fill:rgb(0,0,0);" transform="rotate(-27.1,474.7,2031.7)" >3200</text>
<line x1='467.8' y1='1947.4' x2='449.4' y2='1955.3' style="stroke-width:4.0;stroke:rgb(0,0,0);stroke-linecap:round;fill:none;" />
<text x="442.9" y="1965.3" font-size="18.2px" font-family="CMUBright-Roman" style="text-anchor:end;fill:rgb(0,0,0);" transform="rotate(-23.4,442.9,1965.3)" >3250</text>
<line x1='441.4' y1='1880.7' x2='422.6' y2='1887.5' style="stroke-width:4.0;stroke:rgb(0,0,0);stroke-linecap:round;fill:none;" />
<text x="415.4" y="1897.0" font-size="18.2px" font-family="CMUBright-Roman" style="text-anchor:end;fill:rgb(0,0,0);" transform="rotate(-19.8,415.4,1897.0)" >3300</text>
<line x1='419.3' y1='1812.5' x2='400.0' y2='1818.0' style="stroke-width:4.0;stroke:rgb(0,0,0);stroke-linecap:round;fill:none;" />
<text x="392.3" y="1827.0" font-size="18.2px" font-family="CMUBright-Roman" style="text-anchor:end;fill:rgb(0,0,0);" transform="rotate(-16.1,392.3,1827.0)" >3350</text>
<line x1='401.5' y1='1742.9' x2='382.0' y2='1747.3' style="stroke-width:4.0;stroke:rgb(0,0,0);stroke-linecap:round;fill:none;" />
<text x="373.7" y="1755.8" font-size="18.2px" font-family="CMUBright-Roman" style="text-anchor:end;fill:rgb(0,0,0);" transform="rotate(-12.5,373.7,1755.8)" >3400</text>
<line x1='388.3' y1='1672.4' x2='368.5' y2='1675.5' style="stroke-width:4.0;stroke:rgb(0,0,0);stroke-linecap:round;fill:none;" />
<text x="359.7" y="1683.5" font-size="18.2px" font-family="CMUBright-Roman" style="text-anchor:end;fill:rgb(0,0,0);" transform="rotate(-8.8,359.7,1683.5)" >3450</text>
<line x1='379.6' y1='1601.2' x2='359.6' y2='1603.0' style="stroke-width:4.0;stroke:rgb(0,0,0);stroke-linecap:round;fill:none;" />
<text x="350.3" y="1610.4" font-size="18.2px" font-family="CMUBright-Roman" style="text-anchor:end;fill:rgb(0,0,0);" transform="rotate(-5.2,350.3,1610.4)" >3500</text>
<line x1='375.4' y1='1529.6' x2='355.4' y2='1530.1' style="stroke-width:4.0;stroke:rgb(0,0,0);stroke-linecap:round;fill:none;" />
<text x="345.6" y="1536.9" font-size="18.2px" font-family="CMUBright-Roman" style="text-anchor:end;fill:rgb(0,0,0);" transform="rotate(-1.5,345.6,1536.9)" >3550</text>
<line x1='375.8' y1='1457.9' x2='355.8' y2='1457.1' style="stroke-width:4.0;stroke:rgb(0,0,0);stroke-linecap:round;fill:none;" />
<text x="345.6" y="1463.3" font-size="18.2px" font-family="CMUBright-Roman" style="text-anchor:end;fill:rgb(0,0,0);" transform="rotate(2.1,345.6,1463.3)" >3600</text>
<line x1='380.8' y1='1386.3' x2='360.9' y2='1384.3' style="stroke-width:4.0;stroke:rgb(0,0,0);stroke-linecap:round;fill:none;" />
<text x="350.3" y="1389.8" font-size="18.2px" font-family="CMUBright-Roman" style="text-anchor:end;fill:rgb(0,0,0);" transform="rotate(5.8,350.3,1389.8)" >3650</text>
<line x1='390.3' y1='1315.2' x2='370.5' y2='1311.9' style="stroke-width:4.0;stroke:rgb(0,0,0);stroke-linecap:round;fill:none;" />
<text x="359.6" y="1316.7" font-size="18.2px" font-family="CMUBright-Roman" style="text-anchor:end;fill:rgb(0,0,0);" transform="rotate(9.5,359.6,1316.7)" >3700</text>
<line x1='404.3' y1='1244.9' x2='384.8' y2='1240.3' style="stroke-width:4.0;stroke:rgb(0,0,0);stroke-linecap:round;fill:none;" />
<text x="373.6" y="1244.4" font-size="18.2px" font-family="CMUBright-Roman" style="text-anchor:end;fill:rgb(0,0,0);" transform="rotate(13.1,373.6,1244.4)" >3750</text>
<line x1='422.8' y1='1175.6' x2='403.6' y2='1169.8' style="stroke-width:4.0;stroke:rgb(0,0,0);stroke-linecap:round;fill:none;" />
<text x="392.2" y="1173.1" font-size="18.2px" font-family="CMUBright-Roman" style="text-anchor:end;fill:rgb(0,0,0);" transform="rotate(16.8,392.2,1173.1)" >3800</text>
<line x1='445.7' y1='1107.6' x2='426.9' y2='1100.6' style="stroke-width:4.0;stroke:rgb(0,0,0);stroke-linecap:round;fill:none;" />
<text x="415.3" y="1103.2" font-size="18.2px" font-family="CMUBright-Roman" style="text-anchor:end;fill:rgb(0,0,0);" transform="rotate(20.4,415.3,1103.2)" >3850</text>
<line x1='472.8' y1='1041.2' x2='454.6' y2='1033.0' style="stroke-width:4.0;stroke:rgb(0,0,0);stroke-linecap:round;fill:none;" />
<text x="442.8" y="1034.9" font-size="18.2px" font-family="CMUBright-Roman" style="text-anchor:end;fill:rgb(0,0,0);" transform="rotate(24.1,442.8,1034.9)" >3900</text>
<line x1='504.1' y1='976.6' x2='486.4' y2='967.3' style="stroke-width:4.0;stroke:rgb(0,0,0);stroke-linecap:round;fill:none;" />
<text x="474.6" y="968.4" font-size="18.2px" font-family="CMUBright-Roman" style="text-anchor:end;fill:rgb(0,0,0);" transform="rotate(27.7,474.6,968.4)" >3950</text>
<line x1='539.5' y1='914.2' x2='522.5' y2='903.8' style="stroke-width:4.0;stroke:rgb(0,0,0);stroke-linecap:round;fill:none;" />
<text x="510.5" y="904.2" font-size="18.2px" font-family="CMUBright-Roman" style="text-anchor:end;fill:rgb(0,0,0);" transform="rotate(31.4,510.5,904.2)" >4000</text>
<line x1='578.8' y1='854.2' x2='562.4' y2='842.7' style="stroke-width:4.0;stroke:rgb(0,0,0);stroke-linecap:round;fill:none;" />
<text x="550.5" y="842.3" font-size="18.2px" font-family="CMUBright-Roman" style="text-anchor:end;fill:rgb(0,0,0);" transform="rotate(35.0,550.5,842.3)" >4050</text>
<line x1='621.8' y1='796.8' x2='606.2' y2='784.3' style="stroke-width:4.0;stroke:rgb(0,0,0);stroke-linecap:round;fill:none;" />
<text x="594.4" y="783.1" font-size="18.2px" font-family="CMUBright-Roman" style="text-anchor:end;fill:rgb(0,0,0);" transform="rotate(38.7,594.4,783.1)" >4100</text>
<line x1='668.4' y1='742.3' x2='653.7' y2='728.8' style="stroke-width:4.0;stroke:rgb(0,0,0);stroke-linecap:round;fill:none;" />
<text x="641.9" y="726.9" font-size="18.2px" font-family="CMUBright-Roman" style="text-anchor:end;fill:rgb(0,0,0);" transform="rotate(42.3,641.9,726.9)" >4150</text>
<line x1='718.4' y1='690.8' x2='704.5' y2='676.4' style="stroke-width:4.0;stroke:rgb(0,0,0);stroke-linecap:round;fill:none;" />
<text x="692.9" y="673.8" font-size="18.2px" font-family="CMUBright-Roman" style="text-anchor:end;fill:rgb(0,0,0);" transform="rotate(46.0,692.9,673.8)" >4200</text>
<line x1='771.6' y1='642.7' x2='758.6' y2='627.4' style="stroke-width:4.0;stroke:rgb(0,0,0);stroke-linecap:round;fill:none;" />
<text x="747.2" y="624.0" font-size="18.2px" font-family="CMUBright-Roman" style="text-anchor:end;fill:rgb(0,0,0);" transform="rotate(49.6,747.2,624.0)" >4250</text>
<line x1='827.7' y1='598.0' x2='815.8' y2='581.9' style="stroke-width:4.0;stroke:rgb(0,0,0);stroke-linecap:round;fill:none;" />
<text x="804.6" y="577.8" font-size="18.2px" font-family="CMUBright-Roman" style="text-anchor:end;fill:rgb(0,0,0);" transform="rotate(53.3,804.6,577.8)" >4300</text>
<line x1='886.6' y1='557.0' x2='875.7' y2='540.2' style="stroke-width:4.0;stroke:rgb(0,0,0);stroke-linecap:round;fill:none;" />
<text x="864.8" y="535.4" font-size="18.2px" font-family="CMUBright-Roman" style="text-anchor:end;fill:rgb(0,0,0);" transform="rotate(57.0,864.8,535.4)" >4350</text>
<line x1='947.9' y1='519.8' x2='938.1' y2='502.4' style="stroke-width:4.0;stroke:rgb(0,0,0);stroke-linecap:round;fill:none;" />
<text x="927.5" y="496.8" font-size="18.2px" font-family="CMUBright-Roman" style="text-anchor:end;fill:rgb(0,0,0);" transform="rotate(60.6,927.5,496.8)" >4400</text>
<line x1='1011.5' y1='486.6' x2='1002.8' y2='468.6' style="stroke-width:4.0;stroke:rgb(0,0,0);stroke-linecap:round;fill:none;" />
<text x="992.6" y="462.4" font-size="18.2px" font-family="CMUBright-Roman" style="text-anchor:end;fill:rgb(0,0,0);" transform="rotate(64.3,992.6,462.4)" >4450</text>
<line x1='1077.1' y1='457.5' x2='1069.6' y2='439.0' style="stroke-width:4.0;stroke:rgb(0,0,0);stroke-linecap:round;fill:none;" />
<text x="1059.8" y="432.2" font-size="18.2px" font-family="CMUBright-Roman" style="text-anchor:end;fill:rgb(0,0,0);" transform="rotate(67.9,1059.8,432.2)" >4500</text>
<line x1='1144.4' y1='432.7' x2='1138.1' y2='413.7' style="stroke-width:4.0;stroke:rgb(0,0,0);stroke-linecap:round;fill:none;" />
<text x="1128.7" y="406.3" font-size="18.2px" font-family="CMUBright-Roman" style="text-anchor:end;fill:rgb(0,0,0);" transform="rotate(71.6,1128.7,406.3)" >4550</text>
<line x1='1213.1' y1='412.2' x2='1208.0' y2='392.9' style="stroke-width:4.0;stroke:rgb(0,0,0);stroke-linecap:round;fill:none;" />
<text x="1199.2" y="384.9" font-size="18.2px" font-family="CMUBright-Roman" style="text-anchor:end;fill:rgb(0,0,0);" transform="rotate(75.2,1199.2,384.9)" >4600</text>
<line x1='1283.0' y1='396.1' x2='1279.2' y2='376.5' style="stroke-width:4.0;stroke:rgb(0,0,0);stroke-linecap:round;fill:none;" />
<text x="1270.9" y="368.0" font-size="18.2px" font-family="CMUBright-Roman" style="text-anchor:end;fill:rgb(0,0,0);" transform="rotate(78.9,1270.9,368.0)" >4650</text>
<line x1='1353.8' y1='384.5' x2='1351.2' y2='364.7' style="stroke-width:4.0;stroke:rgb(0,0,0);stroke-linecap:round;fill:none;" />
<text x="1343.5" y="355.7" font-size="18.2px" font-family="CMUBright-Roman" style="text-anchor:end;fill:rgb(0,0,0);" transform="rotate(82.5,1343.5,355.7)" >4700</text>
<line x1='1425.2' y1='377.5' x2='1423.9' y2='357.5' style="stroke-width:4.0;stroke:rgb(0,0,0);stroke-linecap:round;fill:none;" />
<text x="1416.7" y="348.0" font-size="18.2px" font-family="CMUBright-Roman" style="text-anchor:end;fill:rgb(0,0,0);" transform="rotate(86.2,1416.7,348.0)" >4750</text>
<g id="highlighttrack_0">
<path d="M2294.832,776.213 A1075.000,1075.000 40.000 0,1 2297.512,779.167 L2334.606,745.640 A1125.000,1125.000 0.000 0,0 2331.801,742.549 Z" style="stroke-width:4.0;stroke:rgb(0,0,0);stroke-linecap:round;fill:rgb(116,196,118);" />
<path d="M2568.431,1618.662 A1075.000,1075.000 40.000 0,1 2567.985,1622.613 L2617.658,1628.316 A1125.000,1125.000 0.000 0,0 2618.125,1624.181 Z" style="stroke-width:4.0;stroke:rgb(0,0,0);stroke-linecap:round;fill:rgb(116,196,118);" />
<path d="M2567.298,1628.456 A1075.000,1075.000 40.000 0,1 2566.827,1632.309 L2616.447,1638.463 A1125.000,1125.000 0.000 0,0 2616.939,1634.430 Z" style="stroke-width:4.0;stroke:rgb(0,0,0);stroke-linecap:round;fill:rgb(116,196,118);" />
<path d="M2299.449,2218.684 A1075.000,1075.000 40.000 0,1 2296.845,2221.570 L2333.907,2255.131 A1125.000,1125.000 0.000 0,0 2336.633,2252.111 Z" style="stroke-width:4.0;stroke:rgb(0,0,0);stroke-linecap:round;fill:rgb(116,196,118);" />
<path d="M2222.668,2295.849 A1075.000,1075.000 40.000 0,1 2219.686,2298.547 L2253.160,2335.689 A1125.000,1125.000 0.000 0,0 2256.281,2332.865 Z" style="stroke-width:4.0;stroke:rgb(0,0,0);stroke-linecap:round;fill:rgb(251,106,74);" />
<path d="M2001.412,2450.900 A1075.000,1075.000 40.000 0,1 1997.851,2452.769 L2021.007,2497.084 A1125.000,1125.000 0.000 0,0 2024.733,2495.128 Z" style="stroke-width:4.0;stroke:rgb(0,0,0);stroke-linecap:round;fill:rgb(251,106,74);" />
<path d="M1935.762,2482.719 A1075.000,1075.000 40.000 0,1 1932.124,2484.324 L1952.223,2530.107 A1125.000,1125.000 0.000 0,0 1956.030,2528.427 Z" style="stroke-width:4.0;stroke:rgb(0,0,0);stroke-linecap:round;fill:rgb(251,106,74);" />
<path d="M429.321,1403.711 A1075.000,1075.000 40.000 0,1 429.685,1399.751 L379.902,1395.088 A1125.000,1125.000 0.000 0,0 379.522,1399.232 Z" style="stroke-width:4.0;stroke:rgb(0,0,0);stroke-linecap:round;fill:rgb(251,106,74);" />
<path d="M2446.390,990.127 A1075.000,1075.000 40.000 0,1 2448.069,993.256 L2492.166,969.687 A1125.000,1125.000 0.000 0,0 2490.408,966.412 Z" style="stroke-width:4.0;stroke:rgb(0,0,0);stroke-linecap:round;fill:rgb(116,196,118);" />
<path d="M2452.605,1001.835 A1075.000,1075.000 40.000 0,1 2454.249,1004.992 L2498.633,981.968 A1125.000,1125.000 0.000 0,0 2496.912,978.664 Z" style="stroke-width:4.0;stroke:rgb(0,0,0);stroke-linecap:round;fill:rgb(116,196,118);" />
<path d="M2475.700,1048.742 A1075.000,1075.000 40.000 0,1 2477.189,1051.974 L2522.639,1031.136 A1125.000,1125.000 0.000 0,0 2521.082,1027.753 Z" style="stroke-width:4.0;stroke:rgb(0,0,0);stroke-linecap:round;fill:rgb(116,196,118);" />
<path d="M1964.991,2469.231 A1075.000,1075.000 40.000 0,1 1954.314,2474.281 L1975.445,2519.596 A1125.000,1125.000 0.000 0,0 1986.619,2514.311 Z" style="stroke-width:4.0;stroke:rgb(0,0,0);stroke-linecap:round;fill:rgb(116,196,118);" />
<path d="M638.893,856.478 A1075.000,1075.000 40.000 0,1 641.435,853.091 L601.502,823.003 A1125.000,1125.000 0.000 0,0 598.842,826.547 Z" style="stroke-width:4.0;stroke:rgb(0,0,0);stroke-linecap:round;fill:rgb(116,196,118);" />
<path d="M641.436,853.090 A1075.000,1075.000 40.000 0,1 643.990,849.714 L604.176,819.468 A1125.000,1125.000 0.000 0,0 601.502,823.001 Z" style="stroke-width:4.0;stroke:rgb(0,0,0);stroke-linecap:round;fill:rgb(116,196,118);" />
</g>
</g>
<g id="track_0">
<path d="M 2286.884,783.451 A 1064.250,1064.250 0.00 0,1 2289.5,786.4 L 2289.5,786.4 2234.9,835.2 2183.6,879.7 2135.6,920.3 2090.6,957.0 2048.5,990.1 2009.1,1019.7 1972.3,1046.1 1937.9,1069.4 1905.9,1089.7 1875.9,1107.1 1848.0,1121.9 1822.0,1133.9 1797.8,1143.5 1775.3,1150.5 1754.4,1155.2 1735.0,1157.4 1717.0,1157.3 1700.4,1154.9 1685.0,1150.1 1670.9,1143.0 1657.9,1133.5 1646.0,1121.6 1635.3,1107.2 1625.5,1090.3 1616.8,1070.7 1609.0,1048.4 1602.3,1023.3 1596.5,995.2 1591.7,964.0 1587.9,929.6 1585.1,891.7 1583.3,850.3 1582.6,805.0 1583.0,755.7 1584.5,702.2 1587.2,644.2 1591.1,581.5 1596.4,513.7 1603.1,440.8  A 1064.250,1064.250 0.00 0,0 1599.1,440.4 L 1599.1,440.4 1592.8,513.4 1587.7,581.1 1584.0,643.9 1581.5,701.9 1580.2,755.4 1580.0,804.7 1580.9,850.0 1582.9,891.4 1585.8,929.3 1589.7,963.7 1594.6,994.9 1600.5,1022.9 1607.4,1048.0 1615.2,1070.3 1624.0,1089.8 1633.8,1106.7 1644.6,1121.1 1656.5,1132.9 1669.5,1142.4 1683.7,1149.4 1699.1,1154.2 1715.7,1156.5 1733.7,1156.6 1753.1,1154.2 1774.0,1149.5 1796.5,1142.4 1820.6,1132.7 1846.6,1120.6 1874.5,1105.7 1904.3,1088.2 1936.3,1067.8 1970.6,1044.4 2007.3,1017.8 2046.6,988.0 2088.6,954.8 2133.4,917.9 2181.3,877.2 2232.4,832.5 2286.9,783.5  Z" style="stroke-width: 2.0;  stroke: rgb(82,82,82); fill: rgb(251,106,74); opacity: 0.667;" />
<path d="M 2557.746,1617.476 A 1064.250,1064.250 0.00 0,1 2557.3,1621.4 L 2557.3,1621.4 2484.3,1612.1 2416.2,1601.7 2352.8,1590.3 2293.7,1578.0 2238.7,1564.8 2187.4,1550.8 2139.6,1536.0 2095.1,1520.6 2053.7,1504.5 2015.1,1487.7 1979.1,1470.3 1945.5,1452.3 1914.1,1433.7 1884.8,1414.3 1857.4,1394.3 1831.8,1373.6 1807.9,1352.0 1785.5,1329.6 1764.5,1306.3 1744.8,1282.0 1726.4,1256.6 1709.2,1230.0 1693.2,1202.1 1678.3,1172.7 1664.5,1141.7 1651.7,1109.0 1640.0,1074.4 1629.5,1037.8 1620.0,999.0 1611.7,957.7 1604.7,913.8 1598.9,867.0 1594.5,817.2 1591.6,764.2 1590.2,707.6 1590.5,647.2 1592.7,582.8 1596.8,514.1 1603.1,440.8  A 1064.250,1064.250 0.00 0,0 1599.1,440.4 L 1599.1,440.4 1593.2,513.7 1589.3,582.5 1587.4,646.9 1587.3,707.3 1588.9,763.8 1592.0,816.9 1596.6,866.7 1602.5,913.4 1609.7,957.3 1618.2,998.5 1627.8,1037.3 1638.5,1073.9 1650.3,1108.5 1663.1,1141.1 1677.1,1172.0 1692.1,1201.3 1708.2,1229.2 1725.5,1255.8 1744.0,1281.1 1763.8,1305.4 1784.8,1328.6 1807.3,1350.9 1831.4,1372.3 1857.0,1393.0 1884.5,1412.9 1913.9,1432.1 1945.3,1450.7 1978.9,1468.6 2015.0,1485.8 2053.7,1502.4 2095.2,1518.4 2139.8,1533.7 2187.6,1548.2 2238.9,1562.0 2294.0,1575.0 2353.1,1587.2 2416.6,1598.3 2484.7,1608.5 2557.7,1617.5  Z" style="stroke-width: 2.0;  stroke: rgb(82,82,82); fill: rgb(116,196,118); opacity: 0.667;" />
<path d="M 2557.746,1617.476 A 1064.250,1064.250 0.00 0,1 2557.3,1621.4 L 2557.3,1621.4 2484.5,1612.5 2417.2,1603.3 2354.9,1593.7 2297.5,1583.7 2244.6,1573.5 2196.1,1562.9 2151.6,1551.9 2111.1,1540.7 2074.2,1529.1 2040.7,1517.2 2010.7,1504.9 1983.7,1492.3 1959.8,1479.2 1938.8,1465.6 1920.5,1451.6 1904.9,1437.0 1892.0,1421.9 1881.5,1406.1 1873.6,1389.7 1868.0,1372.5 1865.0,1354.5 1864.3,1335.6 1866.0,1315.7 1870.2,1294.8 1876.9,1272.8 1886.2,1249.6 1898.0,1225.0 1912.6,1199.0 1929.9,1171.5 1950.1,1142.4 1973.4,1111.5 1999.9,1078.8 2029.7,1044.1 2063.0,1007.2 2100.1,968.1 2141.0,926.6 2186.1,882.6 2235.5,835.9 2289.5,786.4  A 1064.250,1064.250 0.00 0,0 2286.9,783.5 L 2286.9,783.5 2233.0,833.2 2183.8,880.1 2138.9,924.3 2098.1,965.9 2061.2,1005.1 2028.0,1042.1 1998.3,1076.9 1972.0,1109.8 1948.8,1140.7 1928.7,1169.9 1911.4,1197.5 1897.0,1223.5 1885.2,1248.1 1876.1,1271.4 1869.5,1293.5 1865.4,1314.4 1863.7,1334.2 1864.4,1353.1 1867.6,1371.1 1873.2,1388.3 1881.2,1404.7 1891.7,1420.5 1904.7,1435.5 1920.3,1450.0 1938.6,1464.0 1959.7,1477.5 1983.7,1490.5 2010.7,1503.0 2040.8,1515.2 2074.3,1527.0 2111.2,1538.4 2151.8,1549.5 2196.3,1560.3 2244.9,1570.7 2297.8,1580.8 2355.2,1590.5 2417.5,1599.9 2484.9,1608.9 2557.7,1617.5  Z" style="stroke-width: 2.0;  stroke: rgb(82,82,82); fill: rgb(107,174,214); opacity: 0.667;" />
<path d="M 2556.625,1627.171 A 1064.250,1064.250 0.00 0,1 2556.2,1631.0 L 2556.2,1631.0 2483.2,1621.0 2415.3,1610.0 2351.9,1598.0 2292.9,1585.1 2238.0,1571.4 2186.8,1556.9 2139.1,1541.7 2094.7,1525.8 2053.3,1509.3 2014.8,1492.1 1978.8,1474.4 1945.3,1456.0 1914.0,1437.0 1884.8,1417.4 1857.5,1397.1 1831.9,1376.1 1808.0,1354.3 1785.6,1331.7 1764.6,1308.2 1745.0,1283.7 1726.6,1258.1 1709.5,1231.3 1693.4,1203.2 1678.5,1173.7 1664.7,1142.6 1651.9,1109.8 1640.2,1075.1 1629.7,1038.3 1620.2,999.4 1611.9,958.0 1604.8,914.0 1599.0,867.2 1594.6,817.4 1591.6,764.3 1590.3,707.7 1590.6,647.3 1592.7,582.8 1596.8,514.1 1603.1,440.8  A 1064.250,1064.250 0.00 0,0 1599.1,440.4 L 1599.1,440.4 1593.2,513.7 1589.3,582.5 1587.4,646.9 1587.3,707.3 1588.9,764.0 1592.1,817.1 1596.7,866.9 1602.6,913.7 1609.9,957.6 1618.3,999.0 1628.0,1037.9 1638.7,1074.6 1650.5,1109.2 1663.4,1142.0 1677.3,1173.0 1692.3,1202.5 1708.5,1230.5 1725.8,1257.3 1744.2,1282.8 1763.9,1307.2 1785.0,1330.7 1807.5,1353.2 1831.4,1374.9 1857.1,1395.8 1884.5,1416.0 1913.8,1435.5 1945.1,1454.4 1978.7,1472.7 2014.7,1490.3 2053.4,1507.3 2094.8,1523.7 2139.2,1539.4 2187.0,1554.4 2238.2,1568.7 2293.2,1582.3 2352.3,1595.0 2415.7,1606.7 2483.7,1617.5 2556.6,1627.2  Z" style="stroke-width: 2.0;  stroke: rgb(82,82,82); fill: rgb(253,141,60); opacity: 0.667;" />
<path d="M 2556.625,1627.171 A 1064.250,1064.250 0.00 0,1 2556.2,1631.0 L 2556.2,1631.0 2483.5,1621.4 2416.2,1611.6 2354.0,1601.4 2296.6,1590.9 2243.9,1580.1 2195.4,1569.0 2151.0,1557.6 2110.5,1546.0 2073.7,1534.0 2040.3,1521.7 2010.3,1509.0 1983.4,1496.0 1959.6,1482.6 1938.6,1468.8 1920.4,1454.5 1904.8,1439.7 1891.9,1424.3 1881.5,1408.3 1873.6,1391.6 1868.1,1374.2 1865.0,1356.1 1864.3,1337.0 1866.1,1317.0 1870.3,1295.9 1877.0,1273.8 1886.2,1250.4 1898.1,1225.7 1912.6,1199.6 1930.0,1172.0 1950.2,1142.8 1973.5,1111.8 1999.9,1079.0 2029.7,1044.3 2063.1,1007.4 2100.1,968.2 2141.0,926.7 2186.1,882.6 2235.5,835.9 2289.5,786.4  A 1064.250,1064.250 0.00 0,0 2286.9,783.5 L 2286.9,783.5 2233.0,833.2 2183.8,880.1 2138.9,924.3 2098.1,966.0 2061.2,1005.3 2028.0,1042.3 1998.4,1077.2 1972.0,1110.1 1948.9,1141.1 1928.7,1170.4 1911.5,1198.1 1897.1,1224.2 1885.3,1249.0 1876.2,1272.4 1869.6,1294.6 1865.4,1315.6 1863.7,1335.6 1864.5,1354.7 1867.6,1372.9 1873.2,1390.3 1881.1,1406.9 1891.6,1422.9 1904.6,1438.2 1920.2,1453.0 1938.5,1467.2 1959.5,1481.0 1983.4,1494.3 2010.3,1507.2 2040.4,1519.7 2073.8,1531.9 2110.7,1543.8 2151.2,1555.3 2195.6,1566.5 2244.1,1577.4 2297.0,1588.0 2354.3,1598.3 2416.6,1608.3 2483.9,1617.9 2556.6,1627.2  Z" style="stroke-width: 2.0;  stroke: rgb(82,82,82); fill: rgb(255,0,0); opacity: 0.667;" />
<path d="M 2556.625,1627.171 A 1064.250,1064.250 0.00 0,1 2556.2,1631.0 L 2556.2,1631.0 2483.5,1622.0 2416.4,1613.6 2354.5,1605.9 2297.6,1598.8 2245.5,1592.3 2197.8,1586.4 2154.5,1580.9 2115.2,1576.0 2079.9,1571.5 2048.3,1567.5 2020.4,1563.9 1995.8,1560.8 1974.6,1558.0 1956.7,1555.7 1941.9,1553.7 1930.1,1552.1 1921.3,1550.8 1915.5,1549.9 1912.6,1549.4 1912.7,1549.2 1915.6,1549.3 1921.5,1549.8 1930.3,1550.7 1942.1,1551.9 1956.9,1553.4 1975.0,1555.4 1996.2,1557.7 2020.8,1560.4 2048.8,1563.5 2080.4,1567.1 2115.8,1571.0 2155.1,1575.5 2198.5,1580.4 2246.2,1585.8 2298.5,1591.8 2355.4,1598.3 2417.4,1605.3 2484.6,1613.0 2557.3,1621.4  A 1064.250,1064.250 0.00 0,0 2557.7,1617.5 L 2557.7,1617.5 2485.0,1609.4 2417.8,1602.0 2355.8,1595.1 2298.8,1588.8 2246.6,1583.1 2198.8,1577.8 2155.4,1573.1 2116.1,1568.8 2080.7,1564.9 2049.0,1561.5 2021.0,1558.5 1996.4,1555.9 1975.2,1553.6 1957.1,1551.8 1942.3,1550.3 1930.4,1549.1 1921.6,1548.3 1915.8,1547.8 1912.8,1547.7 1912.8,1547.9 1915.7,1548.4 1921.5,1549.3 1930.3,1550.5 1942.0,1552.1 1956.9,1554.0 1974.8,1556.3 1996.0,1559.0 2020.6,1562.0 2048.6,1565.5 2080.2,1569.4 2115.5,1573.7 2154.8,1578.5 2198.1,1583.8 2245.8,1589.6 2298.0,1596.0 2354.9,1602.8 2416.8,1610.3 2483.9,1618.4 2556.6,1627.2  Z" style="stroke-width: 2.0;  stroke: rgb(82,82,82); fill: rgb(255,0,204); opacity: 0.667;" />
<path d="M 2291.454,2211.497 A 1064.250,1064.250 0.00 0,1 2288.9,2214.4 L 2288.9,2214.4 2234.8,2163.9 2185.2,2114.8 2139.8,2066.9 2098.0,2020.3 2059.7,1974.8 2024.5,1930.5 1992.2,1887.3 1962.4,1845.1 1935.0,1803.9 1909.6,1763.6 1886.1,1724.2 1864.2,1685.4 1843.7,1647.4 1824.6,1609.9 1806.6,1572.8 1789.5,1536.1 1773.4,1499.7 1758.0,1463.3 1743.2,1426.9 1729.1,1390.4 1715.5,1353.6 1702.5,1316.3 1689.9,1278.5 1677.8,1239.9 1666.2,1200.3 1655.2,1159.7 1644.7,1117.8 1634.8,1074.4 1625.7,1029.4 1617.3,982.5 1609.9,933.5 1603.6,882.3 1598.4,828.6 1594.7,772.1 1592.4,712.7 1591.9,650.1 1593.4,584.1 1597.0,514.4 1603.1,440.8  A 1064.250,1064.250 0.00 0,0 1599.1,440.4 L 1599.1,440.4 1593.3,514.1 1590.0,583.8 1588.8,649.8 1589.5,712.4 1592.0,771.8 1596.0,828.2 1601.3,881.9 1607.8,933.1 1615.4,982.1 1623.9,1028.9 1633.2,1073.9 1643.3,1117.3 1653.9,1159.1 1665.1,1199.7 1676.9,1239.2 1689.1,1277.8 1701.8,1315.6 1715.0,1352.8 1728.7,1389.6 1743.0,1426.0 1757.8,1462.4 1773.4,1498.7 1789.7,1535.1 1806.8,1571.7 1825.0,1608.7 1844.3,1646.1 1864.8,1684.1 1886.9,1722.8 1910.6,1762.2 1936.1,1802.4 1963.7,1843.5 1993.6,1885.5 2026.1,1928.6 2061.4,1972.8 2099.9,2018.1 2141.8,2064.6 2187.5,2112.3 2237.2,2161.3 2291.5,2211.5  Z" style="stroke-width: 2.0;  stroke: rgb(82,82,82); fill: rgb(255,204,204); opacity: 0.667;" />
<path d="M 2291.454,2211.497 A 1064.250,1064.250 0.00 0,1 2288.9,2214.4 L 2288.9,2214.4 2234.9,2164.4 2185.7,2116.5 2140.8,2070.6 2100.0,2026.7 2063.1,1984.4 2029.7,1943.8 1999.7,1904.8 1972.8,1867.2 1948.9,1830.9 1927.7,1795.8 1909.2,1761.8 1893.0,1728.7 1879.2,1696.5 1867.6,1665.0 1858.0,1634.2 1850.5,1603.9 1844.9,1574.0 1841.2,1544.3 1839.4,1514.9 1839.4,1485.5 1841.3,1456.0 1845.0,1426.4 1850.6,1396.4 1858.2,1366.1 1867.7,1335.3 1879.4,1303.8 1893.2,1271.7 1909.4,1238.6 1928.0,1204.6 1949.2,1169.5 1973.2,1133.2 2000.1,1095.7 2030.1,1056.6 2063.5,1016.1 2100.5,973.9 2141.3,930.0 2186.2,884.1 2235.5,836.3 2289.5,786.4  A 1064.250,1064.250 0.00 0,0 2286.9,783.5 L 2286.9,783.5 2233.1,833.6 2183.9,881.6 2139.2,927.6 2098.5,971.7 2061.7,1014.0 2028.5,1054.7 1998.6,1093.8 1971.8,1131.5 1948.0,1167.9 1926.9,1203.0 1908.4,1237.1 1892.4,1270.2 1878.6,1302.4 1867.1,1333.9 1857.6,1364.8 1850.2,1395.2 1844.7,1425.1 1841.1,1454.7 1839.3,1484.2 1839.4,1513.6 1841.4,1543.1 1845.2,1572.7 1850.9,1602.6 1858.5,1632.9 1868.2,1663.7 1879.9,1695.1 1893.8,1727.3 1910.1,1760.3 1928.8,1794.2 1950.1,1829.3 1974.2,1865.5 2001.2,1903.0 2031.3,1941.9 2064.8,1982.4 2101.9,2024.5 2142.8,2068.3 2187.9,2114.0 2237.3,2161.7 2291.5,2211.5  Z" style="stroke-width: 2.0;  stroke: rgb(82,82,82); fill: rgb(255,153,0); opacity: 0.667;" />
<path d="M 2291.454,2211.497 A 1064.250,1064.250 0.00 0,1 2288.9,2214.4 L 2288.9,2214.4 2234.8,2164.9 2185.3,2118.5 2140.1,2075.1 2098.9,2034.5 2061.6,1996.5 2027.9,1960.9 1997.8,1927.8 1971.0,1896.8 1947.3,1867.9 1926.7,1841.1 1909.0,1816.0 1894.2,1792.8 1882.0,1771.2 1872.5,1751.1 1865.6,1732.6 1861.2,1715.4 1859.3,1699.6 1859.9,1685.0 1863.0,1671.7 1868.5,1659.5 1876.5,1648.3 1887.1,1638.3 1900.2,1629.3 1916.0,1621.2 1934.5,1614.2 1955.8,1608.1 1980.1,1603.0 2007.4,1598.8 2037.8,1595.6 2071.6,1593.3 2108.9,1592.0 2149.9,1591.8 2194.7,1592.5 2243.6,1594.4 2296.8,1597.3 2354.5,1601.4 2417.0,1606.8 2484.5,1613.4 2557.3,1621.4  A 1064.250,1064.250 0.00 0,0 2557.7,1617.5 L 2557.7,1617.5 2484.9,1609.8 2417.4,1603.4 2354.9,1598.3 2297.1,1594.4 2243.9,1591.6 2195.0,1590.0 2150.2,1589.4 2109.3,1589.8 2072.0,1591.2 2038.2,1593.6 2007.7,1596.9 1980.4,1601.2 1956.2,1606.4 1934.9,1612.6 1916.4,1619.7 1900.7,1627.8 1887.6,1636.9 1877.1,1647.0 1869.1,1658.1 1863.6,1670.3 1860.6,1683.7 1860.1,1698.3 1862.0,1714.1 1866.4,1731.2 1873.4,1749.8 1883.0,1769.8 1895.2,1791.3 1910.2,1814.5 1927.9,1839.5 1948.6,1866.3 1972.4,1895.1 1999.3,1926.0 2029.6,1959.0 2063.4,1994.4 2100.8,2032.3 2142.1,2072.8 2187.5,2116.1 2237.2,2162.2 2291.5,2211.5  Z" style="stroke-width: 2.0;  stroke: rgb(82,82,82); fill: rgb(255,204,0); opacity: 0.667;" />
<path d="M 2291.454,2211.497 A 1064.250,1064.250 0.00 0,1 2288.9,2214.4 L 2288.9,2214.4 2234.8,2164.9 2185.3,2118.6 2140.0,2075.2 2098.9,2034.6 2061.5,1996.6 2027.9,1961.1 1997.7,1928.0 1970.8,1897.1 1947.2,1868.3 1926.6,1841.5 1908.8,1816.6 1894.0,1793.5 1881.8,1772.0 1872.3,1752.1 1865.3,1733.6 1860.9,1716.6 1859.0,1701.0 1859.6,1686.6 1862.6,1673.4 1868.1,1661.4 1876.1,1650.5 1886.6,1640.7 1899.7,1631.9 1915.5,1624.1 1934.0,1617.3 1955.3,1611.6 1979.5,1606.7 2006.8,1602.9 2037.2,1600.0 2071.0,1598.1 2108.2,1597.3 2149.1,1597.4 2193.9,1598.7 2242.8,1601.0 2295.9,1604.5 2353.6,1609.2 2416.0,1615.1 2483.4,1622.3 2556.2,1631.0  A 1064.250,1064.250 0.00 0,0 2556.6,1627.2 L 2556.6,1627.2 2483.8,1618.8 2416.4,1611.8 2353.9,1606.1 2296.3,1601.6 2243.1,1598.3 2194.3,1596.2 2149.5,1595.1 2108.6,1595.1 2071.3,1596.1 2037.6,1598.1 2007.1,1601.1 1979.9,1605.0 1955.7,1609.9 1934.4,1615.8 1916.0,1622.6 1900.2,1630.4 1887.1,1639.3 1876.6,1649.1 1868.7,1660.1 1863.2,1672.1 1860.2,1685.3 1859.7,1699.7 1861.7,1715.3 1866.2,1732.3 1873.2,1750.7 1882.8,1770.6 1895.0,1792.0 1910.0,1815.1 1927.8,1840.0 1948.5,1866.7 1972.3,1895.4 1999.2,1926.2 2029.5,1959.2 2063.3,1994.6 2100.8,2032.4 2142.1,2072.8 2187.5,2116.1 2237.2,2162.2 2291.5,2211.5  Z" style="stroke-width: 2.0;  stroke: rgb(82,82,82); fill: rgb(255,255,0); opacity: 0.667;" />
<path d="M 2215.442,2287.890 A 1064.250,1064.250 0.00 0,1 2212.5,2290.6 L 2212.5,2290.6 2163.8,2234.9 2119.4,2180.8 2078.9,2128.3 2041.9,2077.3 2008.1,2027.9 1977.3,1979.8 1949.1,1933.0 1923.3,1887.5 1899.6,1843.2 1877.7,1800.0 1857.5,1757.8 1838.7,1716.6 1821.1,1676.1 1804.7,1636.4 1789.2,1597.2 1774.4,1558.5 1760.4,1520.2 1746.9,1482.1 1733.9,1444.0 1721.4,1405.9 1709.2,1367.6 1697.4,1329.0 1685.9,1289.8 1674.8,1249.9 1664.0,1209.2 1653.6,1167.5 1643.6,1124.5 1634.2,1080.2 1625.4,1034.2 1617.3,986.5 1610.1,936.8 1603.8,884.8 1598.7,830.5 1594.9,773.5 1592.6,713.6 1592.0,650.7 1593.4,584.4 1597.0,514.5 1603.1,440.8  A 1064.250,1064.250 0.00 0,0 1599.1,440.4 L 1599.1,440.4 1593.4,514.1 1590.0,584.0 1588.9,650.3 1589.7,713.3 1592.2,773.1 1596.2,830.1 1601.5,884.4 1608.0,936.4 1615.4,986.1 1623.7,1033.8 1632.6,1079.7 1642.2,1124.0 1652.3,1166.9 1662.9,1208.6 1673.8,1249.3 1685.1,1289.1 1696.8,1328.2 1708.7,1366.9 1721.0,1405.1 1733.7,1443.2 1746.9,1481.2 1760.5,1519.2 1774.7,1557.5 1789.5,1596.1 1805.2,1635.2 1821.8,1674.9 1839.5,1715.3 1858.4,1756.5 1878.8,1798.6 1900.8,1841.7 1924.7,1885.9 1950.7,1931.3 1979.1,1978.0 2010.1,2025.9 2044.0,2075.3 2081.2,2126.1 2121.9,2178.5 2166.6,2232.4 2215.4,2287.9  Z" style="stroke-width: 2.0;  stroke: rgb(82,82,82); fill: rgb(204,255,0); opacity: 0.667;" />
<path d="M 2215.442,2287.890 A 1064.250,1064.250 0.00 0,1 2212.5,2290.6 L 2212.5,2290.6 2163.9,2235.3 2119.7,2182.5 2079.7,2132.1 2043.6,2083.8 2011.0,2037.5 1981.9,1993.2 1955.8,1950.6 1932.7,1909.7 1912.4,1870.4 1894.5,1832.4 1879.1,1795.7 1865.9,1760.1 1854.8,1725.5 1845.8,1691.8 1838.6,1658.9 1833.3,1626.6 1829.8,1594.8 1828.0,1563.4 1827.9,1532.3 1829.5,1501.3 1832.7,1470.4 1837.7,1439.4 1844.5,1408.1 1853.1,1376.5 1863.6,1344.5 1876.0,1311.9 1890.6,1278.7 1907.3,1244.6 1926.4,1209.7 1948.0,1173.7 1972.3,1136.6 1999.5,1098.3 2029.7,1058.6 2063.3,1017.5 2100.4,974.8 2141.3,930.5 2186.2,884.4 2235.5,836.4 2289.5,786.4  A 1064.250,1064.250 0.00 0,0 2286.9,783.5 L 2286.9,783.5 2233.1,833.6 2183.9,881.8 2139.1,928.1 2098.4,972.6 2061.5,1015.4 2028.1,1056.7 1998.0,1096.4 1971.0,1134.9 1946.8,1172.0 1925.4,1208.1 1906.4,1243.1 1889.7,1277.2 1875.3,1310.5 1863.0,1343.1 1852.6,1375.2 1844.2,1406.8 1837.5,1438.1 1832.6,1469.2 1829.5,1500.1 1828.0,1531.1 1828.2,1562.2 1830.1,1593.6 1833.8,1625.4 1839.2,1657.6 1846.5,1690.5 1855.7,1724.2 1866.9,1758.7 1880.2,1794.3 1895.8,1830.9 1913.7,1868.8 1934.3,1908.1 1957.5,1948.9 1983.7,1991.4 2013.0,2035.6 2045.7,2081.7 2082.1,2129.9 2122.3,2180.2 2166.6,2232.8 2215.4,2287.9  Z" style="stroke-width: 2.0;  stroke: rgb(82,82,82); fill: rgb(0,255,0); opacity: 0.667;" />
<path d="M 2215.442,2287.890 A 1064.250,1064.250 0.00 0,1 2212.5,2290.6 L 2212.5,2290.6 2163.8,2235.8 2119.3,2184.5 2078.8,2136.5 2042.1,2091.5 2009.1,2049.4 1979.4,2010.1 1953.1,1973.4 1929.8,1939.1 1909.5,1907.1 1892.0,1877.3 1877.3,1849.5 1865.2,1823.7 1855.7,1799.7 1848.6,1777.4 1844.0,1756.7 1841.7,1737.6 1841.8,1719.9 1844.2,1703.5 1848.9,1688.5 1856.0,1674.7 1865.5,1662.2 1877.4,1650.7 1891.8,1640.4 1908.7,1631.1 1928.2,1622.9 1950.5,1615.7 1975.6,1609.5 2003.6,1604.4 2034.8,1600.3 2069.2,1597.2 2107.0,1595.2 2148.4,1594.2 2193.7,1594.4 2242.9,1595.7 2296.3,1598.2 2354.2,1601.9 2416.8,1607.0 2484.4,1613.5 2557.3,1621.4  A 1064.250,1064.250 0.00 0,0 2557.7,1617.5 L 2557.7,1617.5 2484.9,1609.8 2417.2,1603.6 2354.6,1598.8 2296.7,1595.2 2243.2,1592.9 2194.0,1591.8 2148.8,1591.8 2107.4,1592.9 2069.6,1595.1 2035.2,1598.3 2004.0,1602.5 1976.0,1607.8 1950.9,1614.0 1928.7,1621.3 1909.2,1629.6 1892.3,1638.9 1878.0,1649.3 1866.1,1660.8 1856.7,1673.4 1849.6,1687.2 1844.9,1702.3 1842.6,1718.6 1842.6,1736.3 1844.9,1755.4 1849.6,1776.1 1856.8,1798.4 1866.4,1822.4 1878.6,1848.1 1893.4,1875.8 1911.0,1905.6 1931.4,1937.5 1954.8,1971.7 1981.3,2008.3 2011.1,2047.5 2044.3,2089.5 2081.2,2134.3 2121.8,2182.2 2166.5,2233.3 2215.4,2287.9  Z" style="stroke-width: 2.0;  stroke: rgb(82,82,82); fill: rgb(53,128,0); opacity: 0.667;" />
<path d="M 2215.442,2287.890 A 1064.250,1064.250 0.00 0,1 2212.5,2290.6 L 2212.5,2290.6 2163.8,2235.8 2119.3,2184.5 2078.8,2136.5 2042.1,2091.6 2009.0,2049.6 1979.3,2010.3 1953.0,1973.6 1929.7,1939.4 1909.3,1907.5 1891.9,1877.8 1877.1,1850.1 1865.0,1824.4 1855.4,1800.5 1848.3,1778.3 1843.7,1757.8 1841.4,1738.8 1841.4,1721.2 1843.8,1705.1 1848.5,1690.2 1855.6,1676.7 1865.1,1664.3 1876.9,1653.1 1891.3,1643.0 1908.2,1634.0 1927.7,1626.0 1949.9,1619.1 1975.0,1613.3 2003.0,1608.5 2034.1,1604.7 2068.5,1602.0 2106.3,1600.4 2147.7,1599.9 2192.9,1600.5 2242.0,1602.3 2295.4,1605.3 2353.3,1609.6 2415.9,1615.3 2483.4,1622.4 2556.2,1631.0  A 1064.250,1064.250 0.00 0,0 2556.6,1627.2 L 2556.6,1627.2 2483.8,1618.8 2416.3,1612.0 2353.7,1606.6 2295.8,1602.5 2242.4,1599.6 2193.2,1598.0 2148.1,1597.5 2106.7,1598.2 2068.9,1600.0 2034.5,1602.8 2003.4,1606.7 1975.4,1611.6 1950.4,1617.5 1928.1,1624.5 1908.7,1632.5 1891.8,1641.5 1877.5,1651.7 1865.7,1662.9 1856.3,1675.4 1849.2,1689.0 1844.6,1703.8 1842.2,1720.0 1842.2,1737.5 1844.6,1756.5 1849.4,1777.0 1856.5,1799.2 1866.2,1823.0 1878.4,1848.7 1893.3,1876.3 1910.9,1906.0 1931.3,1937.8 1954.7,1971.9 1981.3,2008.5 2011.1,2047.7 2044.3,2089.6 2081.1,2134.4 2121.8,2182.2 2166.5,2233.3 2215.4,2287.9  Z" style="stroke-width: 2.0;  stroke: rgb(82,82,82); fill: rgb(0,0,204); opacity: 0.667;" />
<path d="M 2215.442,2287.890 A 1064.250,1064.250 0.00 0,1 2212.5,2290.6 L 2212.5,2290.6 2163.5,2236.1 2118.4,2185.8 2076.9,2139.2 2038.8,2096.4 2004.0,2057.0 1972.3,2020.9 1943.6,1987.9 1917.7,1957.9 1894.5,1930.8 1874.0,1906.5 1855.9,1884.7 1840.2,1865.5 1826.9,1848.6 1815.8,1834.2 1806.9,1822.0 1800.1,1812.0 1795.5,1804.1 1793.0,1798.4 1792.5,1794.7 1794.0,1793.2 1797.7,1793.7 1803.4,1796.2 1811.2,1800.9 1821.2,1807.7 1833.4,1816.6 1847.9,1827.7 1864.7,1841.1 1883.9,1856.8 1905.6,1874.9 1929.9,1895.5 1956.9,1918.8 1986.8,1944.7 2019.7,1973.5 2055.8,2005.3 2095.1,2040.2 2137.9,2078.4 2184.3,2120.0 2234.6,2165.3 2288.9,2214.4  A 1064.250,1064.250 0.00 0,0 2291.5,2211.5 L 2291.5,2211.5 2237.0,2162.6 2186.5,2117.5 2140.0,2076.1 2097.0,2038.0 2057.6,2003.3 2021.4,1971.6 1988.5,1942.9 1958.5,1917.1 1931.3,1894.0 1906.9,1873.4 1885.2,1855.4 1865.9,1839.7 1849.1,1826.4 1834.6,1815.4 1822.4,1806.5 1812.3,1799.7 1804.5,1795.1 1798.8,1792.6 1795.1,1792.1 1793.5,1793.6 1794.0,1797.3 1796.6,1803.0 1801.3,1810.8 1808.1,1820.8 1817.0,1833.0 1828.2,1847.4 1841.6,1864.2 1857.3,1883.4 1875.5,1905.1 1896.1,1929.4 1919.4,1956.4 1945.4,1986.2 1974.2,2019.1 2006.0,2055.1 2041.0,2094.3 2079.2,2137.1 2120.9,2183.5 2166.3,2233.7 2215.4,2287.9  Z" style="stroke-width: 2.0;  stroke: rgb(82,82,82); fill: rgb(102,153,255); opacity: 0.667;" />
<path d="M 1996.398,2441.391 A 1064.250,1064.250 0.00 0,1 1992.9,2443.2 L 1992.9,2443.2 1959.6,2377.0 1930.0,2313.2 1903.6,2251.5 1880.2,2192.1 1859.4,2134.7 1841.0,2079.3 1824.5,2025.7 1809.8,1973.8 1796.6,1923.6 1784.7,1874.8 1773.9,1827.4 1763.8,1781.2 1754.5,1736.2 1745.7,1692.1 1737.3,1648.9 1729.1,1606.4 1721.0,1564.4 1713.1,1522.8 1705.1,1481.5 1697.1,1440.2 1689.0,1398.9 1680.8,1357.4 1672.5,1315.5 1664.1,1273.0 1655.7,1229.7 1647.3,1185.6 1639.1,1140.3 1631.0,1093.8 1623.3,1045.8 1616.1,996.1 1609.5,944.6 1603.6,891.0 1598.8,835.1 1595.1,776.8 1592.8,715.8 1592.2,651.9 1593.5,584.9 1597.0,514.6 1603.1,440.8  A 1064.250,1064.250 0.00 0,0 1599.1,440.4 L 1599.1,440.4 1593.4,514.3 1590.1,584.6 1589.1,651.6 1589.9,715.5 1592.4,776.5 1596.3,834.8 1601.4,890.6 1607.4,944.2 1614.2,995.7 1621.7,1045.3 1629.5,1093.3 1637.7,1139.8 1646.2,1185.0 1654.7,1229.2 1663.2,1272.4 1671.8,1314.8 1680.2,1356.7 1688.6,1398.2 1696.9,1439.5 1705.0,1480.7 1713.2,1522.0 1721.3,1563.6 1729.5,1605.5 1737.8,1648.0 1746.4,1691.2 1755.4,1735.3 1764.9,1780.3 1775.1,1826.4 1786.1,1873.7 1798.2,1922.4 1811.6,1972.6 1826.5,2024.5 1843.1,2078.0 1861.8,2133.4 1882.8,2190.7 1906.4,2250.0 1933.0,2311.5 1962.9,2375.3 1996.4,2441.4  Z" style="stroke-width: 2.0;  stroke: rgb(82,82,82); fill: rgb(153,204,255); opacity: 0.667;" />
<path d="M 1996.398,2441.391 A 1064.250,1064.250 0.00 0,1 1992.9,2443.2 L 1992.9,2443.2 1959.6,2377.5 1930.1,2314.9 1904.0,2255.3 1881.1,2198.6 1861.2,2144.5 1844.0,2092.8 1829.3,2043.4 1816.9,1996.2 1806.6,1950.9 1798.3,1907.4 1791.8,1865.5 1787.0,1825.0 1783.8,1785.9 1782.1,1747.9 1781.7,1711.0 1782.7,1674.8 1785.0,1639.4 1788.6,1604.6 1793.5,1570.2 1799.6,1536.0 1807.0,1502.1 1815.7,1468.1 1825.8,1434.1 1837.4,1399.9 1850.6,1365.3 1865.4,1330.3 1882.0,1294.7 1900.5,1258.5 1921.1,1221.4 1944.0,1183.5 1969.4,1144.6 1997.4,1104.6 2028.3,1063.4 2062.4,1020.9 2099.9,977.1 2141.0,931.8 2186.1,885.0 2235.5,836.5 2289.5,786.4  A 1064.250,1064.250 0.00 0,0 2286.9,783.5 L 2286.9,783.5 2233.1,833.8 2183.8,882.4 2138.9,929.4 2097.9,974.9 2060.6,1018.8 2026.7,1061.4 1995.9,1102.7 1968.1,1142.9 1942.9,1181.9 1920.1,1219.9 1899.6,1257.0 1881.2,1293.3 1864.7,1329.0 1850.1,1364.0 1837.0,1398.6 1825.6,1432.9 1815.6,1467.0 1807.0,1500.9 1799.7,1534.9 1793.7,1569.1 1789.0,1603.5 1785.6,1638.4 1783.4,1673.8 1782.5,1709.9 1783.0,1746.9 1784.9,1784.9 1788.2,1824.0 1793.2,1864.4 1799.8,1906.3 1808.3,1949.7 1818.8,1995.0 1831.3,2042.2 1846.2,2091.5 1863.6,2143.1 1883.8,2197.1 1906.8,2253.8 1933.1,2313.3 1962.9,2375.7 1996.4,2441.4  Z" style="stroke-width: 2.0;  stroke: rgb(82,82,82); fill: rgb(0,255,255); opacity: 0.667;" />
<path d="M 1996.398,2441.391 A 1064.250,1064.250 0.00 0,1 1992.9,2443.2 L 1992.9,2443.2 1959.4,2378.0 1929.4,2316.8 1902.6,2259.6 1878.9,2206.0 1858.0,2156.0 1839.9,2109.2 1824.4,2065.5 1811.4,2024.7 1800.7,1986.6 1792.3,1951.1 1786.1,1918.0 1781.9,1887.2 1779.8,1858.5 1779.7,1831.8 1781.6,1806.9 1785.4,1783.9 1791.1,1762.5 1798.8,1742.6 1808.5,1724.3 1820.1,1707.4 1833.7,1691.8 1849.5,1677.5 1867.4,1664.5 1887.6,1652.6 1910.1,1642.0 1935.0,1632.5 1962.6,1624.1 1992.8,1616.9 2026.0,1610.9 2062.1,1606.0 2101.5,1602.3 2144.2,1599.8 2190.6,1598.6 2240.8,1598.7 2295.0,1600.1 2353.5,1603.1 2416.5,1607.5 2484.4,1613.6 2557.3,1621.4  A 1064.250,1064.250 0.00 0,0 2557.7,1617.5 L 2557.7,1617.5 2484.8,1610.0 2416.9,1604.1 2353.9,1599.9 2295.3,1597.2 2241.1,1595.9 2191.0,1596.0 2144.6,1597.4 2101.9,1600.0 2062.5,1603.9 2026.4,1608.9 1993.3,1615.1 1963.0,1622.4 1935.5,1630.9 1910.6,1640.5 1888.1,1651.2 1868.0,1663.1 1850.1,1676.2 1834.4,1690.6 1820.8,1706.2 1809.3,1723.1 1799.7,1741.5 1792.1,1761.4 1786.5,1782.8 1782.7,1805.9 1781.0,1830.7 1781.2,1857.4 1783.4,1886.1 1787.6,1916.9 1794.0,1950.0 1802.5,1985.5 1813.3,2023.5 1826.5,2064.3 1842.2,2107.9 1860.5,2154.6 1881.5,2204.6 1905.4,2258.1 1932.4,2315.2 1962.7,2376.2 1996.4,2441.4  Z" style="stroke-width: 2.0;  stroke: rgb(82,82,82); fill: rgb(204,255,255); opacity: 0.667;" />
<path d="M 1996.398,2441.391 A 1064.250,1064.250 0.00 0,1 1992.9,2443.2 L 1992.9,2443.2 1959.4,2378.0 1929.4,2316.8 1902.6,2259.6 1878.8,2206.1 1858.0,2156.1 1839.8,2109.3 1824.3,2065.7 1811.2,2025.0 1800.5,1987.0 1792.1,1951.5 1785.8,1918.5 1781.7,1887.8 1779.5,1859.2 1779.4,1832.6 1781.2,1807.9 1785.0,1785.0 1790.7,1763.8 1798.4,1744.1 1808.0,1726.0 1819.6,1709.2 1833.2,1693.9 1849.0,1679.8 1866.9,1667.0 1887.0,1655.5 1909.5,1645.1 1934.4,1635.9 1961.9,1627.8 1992.2,1621.0 2025.3,1615.3 2061.4,1610.8 2100.7,1607.5 2143.5,1605.4 2189.8,1604.7 2239.9,1605.3 2294.1,1607.3 2352.5,1610.8 2415.5,1615.8 2483.3,1622.5 2556.2,1631.0  A 1064.250,1064.250 0.00 0,0 2556.6,1627.2 L 2556.6,1627.2 2483.7,1619.0 2415.9,1612.5 2352.9,1607.7 2294.5,1604.4 2240.3,1602.6 2190.2,1602.2 2143.8,1603.1 2101.1,1605.3 2061.8,1608.7 2025.7,1613.4 1992.6,1619.2 1962.4,1626.2 1934.9,1634.3 1910.0,1643.6 1887.6,1654.1 1867.5,1665.7 1849.6,1678.6 1833.9,1692.7 1820.4,1708.1 1808.8,1724.8 1799.3,1743.0 1791.7,1762.7 1786.1,1784.0 1782.4,1806.9 1780.6,1831.6 1780.9,1858.2 1783.1,1886.8 1787.4,1917.5 1793.8,1950.5 1802.3,1985.8 1813.2,2023.8 1826.4,2064.5 1842.1,2108.1 1860.4,2154.7 1881.5,2204.7 1905.4,2258.1 1932.4,2315.2 1962.7,2376.2 1996.4,2441.4  Z" style="stroke-width: 2.0;  stroke: rgb(82,82,82); fill: rgb(153,0,204); opacity: 0.667;" />
<path d="M 1996.398,2441.391 A 1064.250,1064.250 0.00 0,1 1992.9,2443.2 L 1992.9,2443.2 1959.2,2378.2 1928.4,2317.9 1900.4,2262.1 1875.0,2210.5 1852.2,2162.9 1831.8,2119.1 1813.7,2078.9 1797.7,2042.2 1783.9,2008.8 1772.1,1978.5 1762.2,1951.2 1754.3,1926.7 1748.2,1905.0 1743.8,1886.0 1741.3,1869.5 1740.5,1855.4 1741.4,1843.8 1744.0,1834.5 1748.4,1827.5 1754.5,1822.8 1762.3,1820.3 1772.0,1820.1 1783.5,1822.2 1796.9,1826.5 1812.2,1833.1 1829.6,1842.1 1849.0,1853.5 1870.7,1867.3 1894.6,1883.7 1921.0,1902.8 1949.9,1924.6 1981.4,1949.2 2015.7,1976.9 2052.9,2007.7 2093.3,2041.7 2136.8,2079.3 2183.8,2120.4 2234.5,2165.4 2288.9,2214.4  A 1064.250,1064.250 0.00 0,0 2291.5,2211.5 L 2291.5,2211.5 2236.9,2162.7 2186.1,2117.9 2138.9,2077.0 2095.2,2039.6 2054.8,2005.7 2017.4,1975.0 1983.0,1947.5 1951.4,1922.9 1922.4,1901.3 1896.0,1882.3 1872.0,1866.0 1850.3,1852.2 1830.8,1840.9 1813.4,1832.0 1798.0,1825.4 1784.6,1821.1 1773.1,1819.1 1763.5,1819.4 1755.6,1821.8 1749.6,1826.6 1745.2,1833.6 1742.6,1842.9 1741.8,1854.5 1742.7,1868.6 1745.3,1885.1 1749.7,1904.1 1755.9,1925.8 1763.9,1950.2 1773.9,1977.5 1785.8,2007.7 1799.7,2041.1 1815.8,2077.8 1834.1,2117.9 1854.7,2161.6 1877.7,2209.1 1903.2,2260.6 1931.4,2316.3 1962.4,2376.5 1996.4,2441.4  Z" style="stroke-width: 2.0;  stroke: rgb(82,82,82); fill: rgb(204,51,255); opacity: 0.667;" />
<path d="M 1996.398,2441.391 A 1064.250,1064.250 0.00 0,1 1992.9,2443.2 L 1992.9,2443.2 1959.1,2378.3 1928.2,2318.1 1899.9,2262.4 1874.3,2211.1 1851.0,2163.8 1830.1,2120.4 1811.4,2080.7 1794.9,2044.5 1780.3,2011.7 1767.7,1982.1 1757.0,1955.5 1748.1,1931.9 1741.0,1911.1 1735.6,1893.0 1731.9,1877.6 1729.9,1864.7 1729.5,1854.3 1730.8,1846.4 1733.6,1840.9 1738.2,1837.7 1744.3,1837.0 1752.2,1838.6 1761.8,1842.5 1773.2,1848.9 1786.4,1857.8 1801.4,1869.1 1818.4,1883.0 1837.5,1899.6 1858.6,1918.9 1882.0,1941.0 1907.7,1966.1 1935.9,1994.2 1966.6,2025.5 2000.0,2060.3 2036.2,2098.5 2075.4,2140.5 2117.7,2186.3 2163.4,2236.3 2212.5,2290.6  A 1064.250,1064.250 0.00 0,0 2215.4,2287.9 L 2215.4,2287.9 2166.1,2233.8 2120.3,2184.0 2077.8,2138.3 2038.4,2096.5 2002.0,2058.4 1968.5,2023.8 1937.7,1992.6 1909.5,1964.5 1883.7,1939.6 1860.2,1917.5 1839.0,1898.3 1819.9,1881.9 1802.8,1868.0 1787.7,1856.7 1774.5,1847.9 1763.1,1841.6 1753.5,1837.6 1745.6,1836.0 1739.4,1836.8 1734.9,1840.0 1732.0,1845.5 1730.8,1853.5 1731.3,1863.9 1733.3,1876.7 1737.1,1892.2 1742.6,1910.2 1749.8,1931.0 1758.7,1954.6 1769.5,1981.1 1782.2,2010.7 1796.9,2043.4 1813.6,2079.5 1832.4,2119.2 1853.5,2162.5 1876.9,2209.7 1902.8,2260.9 1931.2,2316.5 1962.4,2376.6 1996.4,2441.4  Z" style="stroke-width: 2.0;  stroke: rgb(82,82,82); fill: rgb(204,153,255); opacity: 0.667;" />
<path d="M 1931.404,2472.892 A 1064.250,1064.250 0.00 0,1 1927.8,2474.5 L 1927.8,2474.5 1899.1,2406.1 1873.8,2340.3 1851.7,2276.8 1832.3,2215.7 1815.3,2156.8 1800.5,2099.9 1787.5,2045.0 1776.0,1991.9 1765.9,1940.5 1756.9,1890.7 1748.8,1842.3 1741.4,1795.2 1734.4,1749.3 1727.9,1704.4 1721.5,1660.4 1715.2,1617.1 1709.0,1574.4 1702.6,1532.2 1696.1,1490.2 1689.4,1448.3 1682.5,1406.3 1675.4,1364.2 1668.1,1321.7 1660.5,1278.6 1652.9,1234.8 1645.1,1190.1 1637.4,1144.3 1629.8,1097.2 1622.5,1048.7 1615.5,998.6 1609.1,946.6 1603.4,892.6 1598.7,836.4 1595.1,777.7 1592.8,716.4 1592.2,652.3 1593.5,585.1 1597.0,514.7 1603.1,440.8  A 1064.250,1064.250 0.00 0,0 1599.1,440.4 L 1599.1,440.4 1593.4,514.3 1590.2,584.8 1589.1,651.9 1589.9,716.1 1592.4,777.3 1596.2,836.0 1601.2,892.2 1607.1,946.2 1613.7,998.2 1620.8,1048.3 1628.3,1096.8 1636.1,1143.8 1644.0,1189.6 1651.9,1234.2 1659.7,1278.0 1667.4,1321.1 1674.9,1363.6 1682.2,1405.7 1689.3,1447.6 1696.1,1489.4 1702.8,1531.4 1709.3,1573.6 1715.7,1616.3 1722.1,1659.6 1728.6,1703.6 1735.4,1748.4 1742.5,1794.3 1750.1,1841.4 1758.4,1889.7 1767.6,1939.5 1777.9,1990.9 1789.5,2043.9 1802.7,2098.8 1817.7,2155.6 1834.9,2214.5 1854.5,2275.5 1876.9,2338.9 1902.4,2404.6 1931.4,2472.9  Z" style="stroke-width: 2.0;  stroke: rgb(82,82,82); fill: rgb(102,102,102); opacity: 0.667;" />
<path d="M 1931.404,2472.892 A 1064.250,1064.250 0.00 0,1 1927.8,2474.5 L 1927.8,2474.5 1899.1,2406.6 1873.9,2342.0 1851.9,2280.6 1833.0,2222.2 1816.8,2166.5 1803.1,2113.4 1791.7,2062.8 1782.5,2014.3 1775.2,1967.8 1769.6,1923.3 1765.8,1880.4 1763.4,1839.0 1762.5,1799.0 1762.9,1760.2 1764.6,1722.4 1767.5,1685.6 1771.5,1649.4 1776.7,1613.9 1783.0,1578.8 1790.4,1544.1 1799.1,1509.5 1808.9,1474.9 1820.0,1440.3 1832.5,1405.5 1846.5,1370.4 1862.0,1334.8 1879.2,1298.7 1898.3,1261.9 1919.4,1224.4 1942.7,1186.0 1968.4,1146.6 1996.7,1106.2 2027.8,1064.6 2062.1,1021.8 2099.7,977.7 2140.9,932.1 2186.1,885.1 2235.5,836.6 2289.5,786.4  A 1064.250,1064.250 0.00 0,0 2286.9,783.5 L 2286.9,783.5 2233.0,833.8 2183.8,882.6 2138.8,929.8 2097.7,975.4 2060.3,1019.7 2026.2,1062.7 1995.2,1104.4 1967.1,1144.9 1941.5,1184.3 1918.4,1222.8 1897.4,1260.5 1878.5,1297.3 1861.4,1333.5 1846.0,1369.1 1832.2,1404.3 1819.8,1439.1 1808.8,1473.8 1799.1,1508.4 1790.6,1543.0 1783.3,1577.8 1777.1,1612.9 1772.1,1648.4 1768.2,1684.6 1765.4,1721.5 1763.9,1759.2 1763.6,1798.0 1764.7,1838.0 1767.2,1879.4 1771.2,1922.3 1776.9,1966.8 1784.4,2013.2 1793.8,2061.7 1805.4,2112.3 1819.2,2165.3 1835.7,2220.9 1854.8,2279.3 1877.0,2340.6 1902.4,2405.1 1931.4,2472.9  Z" style="stroke-width: 2.0;  stroke: rgb(82,82,82); fill: rgb(153,153,153); opacity: 0.667;" />
<path d="M 1931.404,2472.892 A 1064.250,1064.250 0.00 0,1 1927.8,2474.5 L 1927.8,2474.5 1898.9,2407.0 1873.1,2343.9 1850.4,2284.8 1830.5,2229.6 1813.3,2177.9 1798.6,2129.6 1786.3,2084.5 1776.3,2042.5 1768.4,2003.2 1762.7,1966.6 1759.0,1932.4 1757.2,1900.6 1757.3,1871.0 1759.3,1843.4 1763.1,1817.8 1768.7,1794.0 1776.1,1771.8 1785.3,1751.3 1796.4,1732.3 1809.4,1714.7 1824.3,1698.5 1841.2,1683.6 1860.1,1670.0 1881.2,1657.6 1904.6,1646.5 1930.4,1636.4 1958.7,1627.6 1989.6,1619.9 2023.3,1613.4 2060.0,1608.1 2099.8,1604.0 2143.0,1601.1 2189.7,1599.6 2240.1,1599.4 2294.6,1600.6 2353.3,1603.4 2416.4,1607.7 2484.3,1613.6 2557.3,1621.4  A 1064.250,1064.250 0.00 0,0 2557.7,1617.5 L 2557.7,1617.5 2484.8,1610.0 2416.8,1604.3 2353.6,1600.2 2294.9,1597.7 2240.5,1596.7 2190.0,1597.0 2143.3,1598.8 2100.2,1601.8 2060.4,1606.0 2023.7,1611.5 1990.0,1618.1 1959.1,1625.9 1930.9,1634.8 1905.2,1645.0 1881.8,1656.2 1860.7,1668.7 1841.8,1682.4 1825.0,1697.3 1810.2,1713.6 1797.3,1731.2 1786.2,1750.2 1777.1,1770.8 1769.8,1793.0 1764.2,1816.8 1760.5,1842.5 1758.7,1870.1 1758.7,1899.7 1760.6,1931.5 1764.4,1965.6 1770.3,2002.2 1778.3,2041.4 1788.4,2083.5 1800.9,2128.5 1815.8,2176.7 1833.2,2228.3 1853.3,2283.5 1876.3,2342.5 1902.2,2405.6 1931.4,2472.9  Z" style="stroke-width: 2.0;  stroke: rgb(82,82,82); fill: rgb(204,204,204); opacity: 0.667;" />
<path d="M 1931.404,2472.892 A 1064.250,1064.250 0.00 0,1 1927.8,2474.5 L 1927.8,2474.5 1898.9,2407.1 1873.1,2343.9 1850.4,2284.9 1830.4,2229.6 1813.2,2178.0 1798.5,2129.8 1786.1,2084.8 1776.1,2042.7 1768.2,2003.6 1762.5,1967.0 1758.7,1933.0 1756.9,1901.3 1757.0,1871.8 1758.9,1844.3 1762.7,1818.8 1768.3,1795.1 1775.7,1773.1 1784.9,1752.8 1795.9,1734.0 1808.9,1716.6 1823.7,1700.6 1840.6,1685.9 1859.6,1672.6 1880.7,1660.5 1904.0,1649.5 1929.8,1639.8 1958.0,1631.3 1988.9,1624.0 2022.6,1617.8 2059.3,1612.9 2099.1,1609.2 2142.2,1606.8 2188.9,1605.7 2239.3,1606.0 2293.7,1607.8 2352.3,1611.1 2415.4,1616.0 2483.3,1622.6 2556.2,1631.0  A 1064.250,1064.250 0.00 0,0 2556.6,1627.2 L 2556.6,1627.2 2483.7,1619.0 2415.8,1612.7 2352.7,1608.0 2294.1,1604.9 2239.7,1603.4 2189.2,1603.2 2142.6,1604.5 2099.5,1607.0 2059.7,1610.9 2023.0,1615.9 1989.4,1622.2 1958.5,1629.7 1930.3,1638.3 1904.6,1648.1 1881.2,1659.1 1860.2,1671.3 1841.3,1684.7 1824.5,1699.4 1809.7,1715.5 1796.8,1732.9 1785.8,1751.7 1776.7,1772.1 1769.4,1794.1 1763.9,1817.8 1760.2,1843.4 1758.4,1870.8 1758.4,1900.3 1760.3,1932.0 1764.2,1966.1 1770.1,2002.6 1778.1,2041.7 1788.3,2083.7 1800.8,2128.7 1815.7,2176.8 1833.1,2228.4 1853.3,2283.6 1876.2,2342.5 1902.2,2405.6 1931.4,2472.9  Z" style="stroke-width: 2.0;  stroke: rgb(82,82,82); fill: rgb(204,204,153); opacity: 0.667;" />
<path d="M 1931.404,2472.892 A 1064.250,1064.250 0.00 0,1 1927.8,2474.5 L 1927.8,2474.5 1898.6,2407.3 1872.1,2345.0 1848.1,2287.3 1826.5,2233.9 1807.3,2184.6 1790.2,2139.3 1775.2,2097.7 1762.2,2059.6 1751.2,2024.9 1742.0,1993.5 1734.6,1965.0 1728.9,1939.6 1724.9,1916.9 1722.6,1896.9 1721.9,1879.5 1722.9,1864.7 1725.4,1852.3 1729.6,1842.3 1735.4,1834.6 1742.8,1829.2 1751.9,1826.2 1762.8,1825.4 1775.3,1826.9 1789.7,1830.7 1806.0,1836.8 1824.2,1845.4 1844.5,1856.3 1866.8,1869.7 1891.5,1885.8 1918.4,1904.5 1947.8,1925.9 1979.8,1950.3 2014.5,1977.7 2052.1,2008.2 2092.7,2042.1 2136.5,2079.5 2183.7,2120.5 2234.4,2165.4 2288.9,2214.4  A 1064.250,1064.250 0.00 0,0 2291.5,2211.5 L 2291.5,2211.5 2236.8,2162.7 2185.9,2118.0 2138.6,2077.2 2094.7,2040.0 2053.9,2006.2 2016.2,1975.8 1981.4,1948.6 1949.4,1924.3 1919.9,1903.0 1892.9,1884.4 1868.2,1868.4 1845.8,1855.1 1825.5,1844.2 1807.2,1835.7 1790.9,1829.6 1776.5,1825.9 1763.9,1824.4 1753.1,1825.2 1744.0,1828.3 1736.6,1833.7 1730.9,1841.4 1726.7,1851.4 1724.2,1863.9 1723.3,1878.7 1724.1,1896.1 1726.5,1916.1 1730.5,1938.7 1736.3,1964.2 1743.8,1992.6 1753.1,2024.0 1764.3,2058.7 1777.4,2096.7 1792.5,2138.2 1809.8,2183.5 1829.2,2232.7 1851.0,2286.0 1875.2,2343.6 1902.0,2405.8 1931.4,2472.9  Z" style="stroke-width: 2.0;  stroke: rgb(82,82,82); fill: rgb(251,106,74); opacity: 0.667;" />
<path d="M 1931.404,2472.892 A 1064.250,1064.250 0.00 0,1 1927.8,2474.5 L 1927.8,2474.5 1898.6,2407.4 1871.9,2345.1 1847.7,2287.6 1825.7,2234.5 1806.1,2185.5 1788.5,2140.6 1772.9,2099.4 1759.3,2061.9 1747.5,2027.8 1737.5,1997.0 1729.3,1969.3 1722.7,1944.6 1717.7,1922.8 1714.3,1903.8 1712.5,1887.5 1712.2,1873.8 1713.5,1862.7 1716.2,1854.0 1720.5,1847.8 1726.4,1844.0 1733.8,1842.6 1742.9,1843.7 1753.6,1847.1 1765.9,1853.0 1780.0,1861.4 1796.0,1872.3 1813.8,1885.7 1833.6,1901.9 1855.4,1920.8 1879.4,1942.6 1905.6,1967.3 1934.2,1995.2 1965.4,2026.3 1999.1,2060.8 2035.6,2098.9 2075.1,2140.7 2117.6,2186.4 2163.3,2236.3 2212.5,2290.6  A 1064.250,1064.250 0.00 0,0 2215.4,2287.9 L 2215.4,2287.9 2166.1,2233.8 2120.1,2184.1 2077.5,2138.5 2037.9,2096.9 2001.2,2058.9 1967.3,2024.6 1936.1,1993.6 1907.4,1965.8 1881.0,1941.2 1857.0,1919.5 1835.1,1900.7 1815.2,1884.6 1797.4,1871.2 1781.4,1860.3 1767.2,1852.0 1754.9,1846.2 1744.2,1842.8 1735.1,1841.8 1727.7,1843.2 1721.8,1847.0 1717.5,1853.2 1714.8,1861.9 1713.6,1873.0 1713.9,1886.7 1715.8,1903.0 1719.3,1922.0 1724.3,1943.8 1731.0,1968.4 1739.4,1996.1 1749.5,2026.9 1761.4,2060.9 1775.1,2098.4 1790.9,2139.5 1808.6,2184.4 1828.5,2233.2 1850.6,2286.3 1875.0,2343.8 1901.9,2405.9 1931.4,2472.9  Z" style="stroke-width: 2.0;  stroke: rgb(82,82,82); fill: rgb(116,196,118); opacity: 0.667;" />
<path d="M 1931.404,2472.892 A 1064.250,1064.250 0.00 0,1 1927.8,2474.5 L 1927.8,2474.5 1898.4,2407.4 1871.3,2345.5 1846.5,2288.3 1823.7,2235.7 1802.9,2187.4 1783.9,2143.2 1766.8,2103.0 1751.4,2066.6 1737.7,2033.7 1725.5,2004.3 1714.9,1978.1 1705.7,1955.1 1697.9,1935.2 1691.5,1918.2 1686.4,1904.0 1682.7,1892.7 1680.2,1884.0 1679.0,1878.1 1679.1,1874.8 1680.5,1874.2 1683.1,1876.2 1687.0,1880.8 1692.1,1888.1 1698.7,1898.2 1706.5,1910.9 1715.8,1926.6 1726.5,1945.1 1738.7,1966.7 1752.5,1991.3 1767.8,2019.2 1784.9,2050.5 1803.7,2085.3 1824.4,2123.8 1847.0,2166.2 1871.6,2212.6 1898.4,2263.3 1927.5,2318.5 1958.9,2378.4 1992.9,2443.2  A 1064.250,1064.250 0.00 0,0 1996.4,2441.4 L 1996.4,2441.4 1962.2,2376.7 1930.6,2316.9 1901.3,2261.8 1874.3,2211.2 1849.5,2164.9 1826.7,2122.6 1805.9,2084.2 1786.9,2049.5 1769.8,2018.2 1754.3,1990.4 1740.5,1965.8 1728.2,1944.3 1717.4,1925.8 1708.1,1910.2 1700.1,1897.4 1693.6,1887.4 1688.4,1880.1 1684.5,1875.5 1681.9,1873.5 1680.5,1874.1 1680.4,1877.4 1681.7,1883.4 1684.2,1892.0 1687.9,1903.3 1693.1,1917.5 1699.5,1934.4 1707.4,1954.4 1716.6,1977.3 1727.4,2003.4 1739.7,2032.8 1753.5,2065.7 1769.1,2102.0 1786.3,2142.2 1805.4,2186.3 1826.4,2234.5 1849.4,2287.0 1874.5,2344.1 1901.8,2406.0 1931.4,2472.9  Z" style="stroke-width: 2.0;  stroke: rgb(82,82,82); fill: rgb(107,174,214); opacity: 0.667;" />
<path d="M 440.028,1404.673 A 1064.250,1064.250 0.00 0,1 440.4,1400.8 L 440.4,1400.8 513.7,1406.7 582.4,1410.6 646.8,1412.6 707.2,1412.7 763.7,1411.2 816.7,1408.1 866.4,1403.5 913.0,1397.6 956.7,1390.5 997.9,1382.1 1036.6,1372.5 1073.0,1361.8 1107.4,1350.1 1139.8,1337.2 1170.5,1323.3 1199.6,1308.2 1227.3,1292.1 1253.6,1274.8 1278.6,1256.3 1302.6,1236.5 1325.5,1215.4 1347.5,1192.9 1368.5,1168.8 1388.8,1143.0 1408.3,1115.5 1427.1,1086.1 1445.1,1054.6 1462.5,1020.8 1479.2,984.6 1495.2,945.8 1510.6,904.2 1525.2,859.6 1539.0,811.6 1552.1,760.2 1564.3,705.0 1575.6,645.7 1585.9,582.1 1595.1,513.9 1603.1,440.8  A 1064.250,1064.250 0.00 0,0 1599.1,440.4 L 1599.1,440.4 1591.4,513.6 1582.5,581.8 1572.4,645.4 1561.4,704.7 1549.4,760.0 1536.5,811.5 1522.8,859.5 1508.4,904.2 1493.2,945.8 1477.3,984.7 1460.7,1020.9 1443.5,1054.8 1425.5,1086.3 1406.9,1115.9 1387.5,1143.4 1367.3,1169.3 1346.3,1193.4 1324.4,1216.1 1301.6,1237.3 1277.7,1257.1 1252.7,1275.7 1226.5,1293.1 1198.9,1309.3 1169.9,1324.5 1139.2,1338.5 1106.8,1351.5 1072.5,1363.4 1036.1,1374.2 997.4,1383.9 956.3,1392.5 912.6,1399.8 866.0,1405.9 816.3,1410.6 763.4,1413.9 706.8,1415.6 646.5,1415.7 582.1,1414.0 513.4,1410.4 440.0,1404.7  Z" style="stroke-width: 2.0;  stroke: rgb(82,82,82); fill: rgb(253,141,60); opacity: 0.667;" />
<path d="M 440.028,1404.673 A 1064.250,1064.250 0.00 0,1 440.4,1400.8 L 440.4,1400.8 514.1,1406.5 584.0,1409.9 650.3,1411.0 713.3,1410.2 773.2,1407.7 830.2,1403.7 884.5,1398.4 936.4,1392.0 986.2,1384.5 1033.9,1376.3 1079.8,1367.3 1124.1,1357.8 1167.1,1347.7 1208.8,1337.1 1249.5,1326.2 1289.4,1314.9 1328.5,1303.3 1367.2,1291.4 1405.5,1279.1 1443.6,1266.5 1481.6,1253.4 1519.7,1239.8 1558.0,1225.7 1596.7,1210.9 1635.8,1195.3 1675.6,1178.7 1716.0,1161.1 1757.2,1142.2 1799.4,1121.9 1842.6,1100.0 1886.9,1076.2 1932.3,1050.3 1979.0,1022.0 2027.1,991.1 2076.6,957.3 2127.5,920.2 2179.9,879.6 2233.9,835.1 2289.5,786.4  A 1064.250,1064.250 0.00 0,0 2286.9,783.5 L 2286.9,783.5 2231.4,832.4 2177.6,877.1 2125.3,917.9 2074.5,955.2 2025.2,989.2 1977.3,1020.2 1930.7,1048.7 1885.3,1074.8 1841.1,1098.7 1798.0,1120.8 1755.9,1141.3 1714.7,1160.3 1674.4,1178.1 1634.7,1194.8 1595.6,1210.5 1557.0,1225.5 1518.7,1239.8 1480.7,1253.5 1442.7,1266.7 1404.7,1279.5 1366.4,1291.9 1327.8,1304.0 1288.7,1315.7 1248.9,1327.1 1208.2,1338.2 1166.5,1348.9 1123.6,1359.1 1079.3,1368.9 1033.4,1378.0 985.7,1386.5 936.0,1394.1 884.1,1400.7 829.8,1406.2 772.8,1410.4 713.0,1413.1 650.0,1414.2 583.7,1413.3 513.8,1410.2 440.0,1404.7  Z" style="stroke-width: 2.0;  stroke: rgb(82,82,82); fill: rgb(255,0,0); opacity: 0.667;" />
<path d="M 440.028,1404.673 A 1064.250,1064.250 0.00 0,1 440.4,1400.8 L 440.4,1400.8 514.4,1408.9 585.0,1418.9 652.6,1430.4 717.1,1443.2 779.0,1456.8 838.3,1471.0 895.2,1485.7 950.0,1500.4 1002.9,1515.0 1054.0,1529.3 1103.5,1543.1 1151.7,1556.3 1198.6,1568.7 1244.6,1580.2 1289.7,1590.6 1334.1,1600.0 1378.1,1608.2 1421.8,1615.2 1465.4,1620.9 1509.0,1625.5 1552.8,1628.8 1596.9,1631.0 1641.7,1632.0 1687.1,1632.0 1733.4,1631.1 1780.7,1629.4 1829.2,1626.9 1879.1,1624.0 1930.4,1620.6 1983.3,1617.2 2038.1,1613.8 2094.8,1610.7 2153.5,1608.1 2214.5,1606.4 2277.8,1605.8 2343.6,1606.7 2412.0,1609.3 2483.2,1614.1 2557.3,1621.4  A 1064.250,1064.250 0.00 0,0 2557.7,1617.5 L 2557.7,1617.5 2483.6,1610.5 2412.4,1605.9 2344.0,1603.6 2278.2,1602.9 2214.8,1603.8 2153.9,1605.7 2095.2,1608.5 2038.5,1611.8 1983.8,1615.4 1930.8,1619.1 1879.5,1622.6 1829.7,1625.7 1781.2,1628.3 1733.9,1630.2 1687.6,1631.3 1642.2,1631.5 1597.4,1630.6 1553.2,1628.6 1509.4,1625.4 1465.8,1621.0 1422.2,1615.4 1378.5,1608.6 1334.5,1600.6 1290.0,1591.4 1244.9,1581.1 1198.9,1569.8 1151.9,1557.6 1103.7,1544.6 1054.1,1531.0 1002.9,1516.8 950.0,1502.4 895.2,1487.9 838.1,1473.5 778.8,1459.5 716.9,1446.1 652.3,1433.6 584.7,1422.3 514.1,1412.5 440.0,1404.7  Z" style="stroke-width: 2.0;  stroke: rgb(82,82,82); fill: rgb(255,0,204); opacity: 0.667;" />
<path d="M 440.028,1404.673 A 1064.250,1064.250 0.00 0,1 440.4,1400.8 L 440.4,1400.8 514.4,1408.9 585.0,1418.9 652.5,1430.4 717.0,1443.2 778.8,1456.8 838.1,1471.1 895.0,1485.7 949.8,1500.5 1002.6,1515.1 1053.6,1529.5 1103.1,1543.3 1151.2,1556.6 1198.2,1569.0 1244.1,1580.6 1289.1,1591.2 1333.5,1600.7 1377.5,1609.0 1421.1,1616.1 1464.7,1622.1 1508.2,1626.8 1552.0,1630.4 1596.2,1632.8 1640.9,1634.1 1686.3,1634.4 1732.6,1633.8 1779.9,1632.4 1828.4,1630.3 1878.3,1627.7 1929.6,1624.8 1982.5,1621.7 2037.2,1618.8 2093.9,1616.2 2152.6,1614.1 2213.6,1612.9 2276.9,1612.9 2342.6,1614.3 2411.0,1617.6 2482.1,1623.0 2556.2,1631.0  A 1064.250,1064.250 0.00 0,0 2556.6,1627.2 L 2556.6,1627.2 2482.6,1619.5 2411.4,1614.3 2343.0,1611.3 2277.3,1610.1 2214.0,1610.4 2153.0,1611.8 2094.3,1614.0 2037.7,1616.8 1983.0,1620.0 1930.0,1623.2 1878.7,1626.3 1828.9,1629.1 1780.4,1631.3 1733.1,1632.9 1686.8,1633.7 1641.4,1633.6 1596.7,1632.5 1552.5,1630.2 1508.7,1626.8 1465.1,1622.2 1421.6,1616.4 1377.9,1609.5 1333.9,1601.3 1289.5,1592.0 1244.3,1581.6 1198.4,1570.2 1151.4,1557.9 1103.3,1544.8 1053.8,1531.1 1002.6,1516.9 949.8,1502.5 895.0,1487.9 838.0,1473.5 778.7,1459.5 716.8,1446.1 652.3,1433.6 584.7,1422.3 514.1,1412.5 440.0,1404.7  Z" style="stroke-width: 2.0;  stroke: rgb(82,82,82); fill: rgb(255,204,204); opacity: 0.667;" />
<path d="M 440.028,1404.673 A 1064.250,1064.250 0.00 0,1 440.4,1400.8 L 440.4,1400.8 514.0,1408.8 583.6,1418.6 649.5,1430.0 711.9,1442.6 771.1,1456.4 827.3,1471.0 880.8,1486.3 931.9,1502.3 980.8,1518.6 1027.7,1535.3 1072.8,1552.2 1116.4,1569.1 1158.7,1586.2 1199.8,1603.2 1240.0,1620.1 1279.4,1637.0 1318.2,1653.9 1356.6,1670.6 1394.8,1687.4 1432.9,1704.1 1471.0,1721.0 1509.3,1738.0 1547.9,1755.2 1587.0,1772.9 1626.7,1791.1 1667.0,1809.9 1708.1,1829.6 1750.0,1850.2 1793.0,1872.1 1836.9,1895.5 1882.0,1920.5 1928.3,1947.4 1975.8,1976.5 2024.5,2008.1 2074.6,2042.4 2126.1,2079.9 2178.9,2120.8 2233.2,2165.5 2288.9,2214.4  A 1064.250,1064.250 0.00 0,0 2291.5,2211.5 L 2291.5,2211.5 2235.6,2162.8 2181.2,2118.3 2128.2,2077.6 2076.6,2040.4 2026.4,2006.2 1977.5,1974.8 1929.9,1945.8 1883.5,1919.1 1838.4,1894.2 1794.3,1871.1 1751.3,1849.3 1709.3,1828.8 1668.1,1809.3 1627.7,1790.6 1588.0,1772.6 1548.9,1755.1 1510.2,1737.9 1471.8,1721.1 1433.6,1704.4 1395.5,1687.8 1357.3,1671.2 1318.8,1654.5 1279.9,1637.9 1240.4,1621.1 1200.2,1604.3 1159.0,1587.4 1116.7,1570.6 1073.0,1553.7 1027.8,1537.0 980.9,1520.6 931.9,1504.4 880.8,1488.6 827.2,1473.5 770.9,1459.1 711.7,1445.5 649.2,1433.1 583.3,1422.0 513.7,1412.5 440.0,1404.7  Z" style="stroke-width: 2.0;  stroke: rgb(82,82,82); fill: rgb(255,153,0); opacity: 0.667;" />
<path d="M 440.028,1404.673 A 1064.250,1064.250 0.00 0,1 440.4,1400.8 L 440.4,1400.8 514.0,1408.8 583.4,1418.6 649.0,1429.8 711.0,1442.4 769.8,1456.0 825.5,1470.6 878.4,1486.0 928.8,1501.9 976.9,1518.4 1023.0,1535.3 1067.2,1552.4 1109.9,1569.8 1151.1,1587.3 1191.1,1605.0 1230.1,1622.7 1268.3,1640.5 1305.8,1658.4 1342.8,1676.4 1379.5,1694.5 1416.0,1712.8 1452.4,1731.4 1489.0,1750.4 1525.7,1769.8 1562.8,1789.8 1600.3,1810.4 1638.4,1832.0 1677.0,1854.6 1716.4,1878.4 1756.6,1903.6 1797.7,1930.5 1839.6,1959.3 1882.5,1990.2 1926.5,2023.5 1971.4,2059.4 2017.5,2098.4 2064.6,2140.6 2112.8,2186.5 2162.1,2236.3 2212.5,2290.6  A 1064.250,1064.250 0.00 0,0 2215.4,2287.9 L 2215.4,2287.9 2164.8,2233.9 2115.4,2184.2 2067.0,2138.5 2019.7,2096.4 1973.5,2057.6 1928.4,2021.9 1884.4,1988.7 1841.3,1958.0 1799.3,1929.4 1758.1,1902.7 1717.9,1877.6 1678.4,1853.9 1639.6,1831.5 1601.5,1810.1 1563.9,1789.5 1526.7,1769.7 1489.9,1750.4 1453.3,1731.6 1416.8,1713.2 1380.2,1695.0 1343.5,1677.0 1306.4,1659.1 1268.8,1641.4 1230.6,1623.7 1191.5,1606.1 1151.4,1588.6 1110.1,1571.2 1067.4,1554.0 1023.1,1537.0 977.0,1520.3 928.8,1504.0 878.3,1488.3 825.4,1473.1 769.6,1458.7 710.8,1445.3 648.7,1433.0 583.1,1421.9 513.6,1412.4 440.0,1404.7  Z" style="stroke-width: 2.0;  stroke: rgb(82,82,82); fill: rgb(255,204,0); opacity: 0.667;" />
<path d="M 440.028,1404.673 A 1064.250,1064.250 0.00 0,1 440.4,1400.8 L 440.4,1400.8 513.8,1408.7 582.9,1418.3 647.8,1429.3 709.0,1441.5 766.6,1454.9 820.9,1469.2 872.3,1484.3 921.0,1500.2 967.1,1516.7 1011.1,1533.8 1052.9,1551.3 1093.0,1569.3 1131.4,1587.7 1168.4,1606.5 1204.2,1625.6 1238.9,1645.2 1272.7,1665.1 1305.7,1685.5 1338.2,1706.4 1370.2,1727.9 1401.8,1750.0 1433.2,1772.9 1464.4,1796.6 1495.6,1821.4 1526.9,1847.2 1558.3,1874.4 1589.9,1903.0 1621.7,1933.3 1653.8,1965.4 1686.2,1999.6 1718.9,2036.0 1752.0,2075.1 1785.5,2116.9 1819.3,2161.8 1853.5,2210.1 1888.0,2262.0 1922.7,2318.0 1957.7,2378.3 1992.9,2443.2  A 1064.250,1064.250 0.00 0,0 1996.4,2441.4 L 1996.4,2441.4 1961.0,2376.6 1925.8,2316.4 1890.8,2260.6 1856.1,2208.8 1821.8,2160.6 1787.8,2115.8 1754.2,2074.1 1720.9,2035.2 1688.0,1998.8 1655.5,1964.8 1623.3,1932.8 1591.4,1902.6 1559.7,1874.2 1528.2,1847.1 1496.8,1821.4 1465.5,1796.8 1434.2,1773.1 1402.7,1750.4 1371.0,1728.4 1339.0,1707.0 1306.4,1686.2 1273.3,1666.0 1239.4,1646.2 1204.7,1626.7 1168.8,1607.7 1131.7,1589.1 1093.2,1570.8 1053.1,1553.0 1011.2,1535.6 967.2,1518.7 921.0,1502.4 872.3,1486.7 820.8,1471.7 766.4,1457.6 708.7,1444.5 647.6,1432.4 582.6,1421.7 513.5,1412.4 440.0,1404.7  Z" style="stroke-width: 2.0;  stroke: rgb(82,82,82); fill: rgb(255,255,0); opacity: 0.667;" />
<path d="M 440.028,1404.673 A 1064.250,1064.250 0.00 0,1 440.4,1400.8 L 440.4,1400.8 513.8,1408.7 582.7,1418.2 647.5,1429.1 708.4,1441.2 765.7,1454.5 819.8,1468.7 870.7,1483.7 918.9,1499.5 964.5,1516.0 1007.8,1533.0 1049.0,1550.6 1088.4,1568.7 1126.0,1587.2 1162.1,1606.2 1197.0,1625.6 1230.7,1645.4 1263.4,1665.8 1295.3,1686.6 1326.5,1708.1 1357.1,1730.2 1387.3,1753.1 1417.2,1776.8 1446.8,1801.4 1476.2,1827.1 1505.6,1854.1 1535.0,1882.4 1564.4,1912.3 1593.9,1944.0 1623.6,1977.5 1653.4,2013.3 1683.4,2051.4 1713.6,2092.2 1743.9,2135.8 1774.4,2182.6 1805.0,2232.8 1835.7,2286.8 1866.4,2344.9 1897.2,2407.3 1927.8,2474.5  A 1064.250,1064.250 0.00 0,0 1931.4,2472.9 L 1931.4,2472.9 1900.5,2405.8 1869.5,2343.5 1838.6,2285.6 1807.7,2231.7 1776.9,2181.6 1746.2,2134.9 1715.7,2091.4 1685.4,2050.7 1655.3,2012.7 1625.4,1977.1 1595.6,1943.6 1565.9,1912.1 1536.4,1882.3 1506.9,1854.1 1477.4,1827.2 1447.9,1801.6 1418.2,1777.1 1388.2,1753.5 1358.0,1730.7 1327.3,1708.7 1296.0,1687.4 1264.0,1666.6 1231.2,1646.4 1197.5,1626.7 1162.5,1607.4 1126.3,1588.6 1088.6,1570.2 1049.2,1552.3 1007.9,1534.8 964.6,1518.0 918.9,1501.7 870.7,1486.1 819.6,1471.2 765.6,1457.2 708.2,1444.2 647.3,1432.3 582.4,1421.6 513.5,1412.3 440.0,1404.7  Z" style="stroke-width: 2.0;  stroke: rgb(82,82,82); fill: rgb(204,255,0); opacity: 0.667;" />
<path d="M 2443.079,1006.816 A 1064.250,1064.250 0.00 0,1 2444.7,1009.9 L 2444.7,1009.9 2379.7,1043.6 2319.7,1074.8 2264.3,1103.4 2213.4,1129.8 2166.7,1153.9 2124.1,1176.0 2085.2,1196.0 2050.1,1214.1 2018.4,1230.4 1990.1,1245.0 1965.0,1257.9 1943.0,1269.1 1923.9,1278.8 1907.8,1287.0 1894.4,1293.7 1883.8,1299.0 1875.8,1302.9 1870.5,1305.4 1867.8,1306.5 1867.6,1306.2 1870.1,1304.6 1875.2,1301.7 1882.9,1297.3 1893.3,1291.5 1906.4,1284.3 1922.3,1275.6 1941.0,1265.4 1962.8,1253.6 1987.6,1240.2 2015.6,1225.1 2046.9,1208.2 2081.8,1189.4 2120.2,1168.8 2162.6,1146.1 2208.9,1121.2 2259.4,1094.2 2314.4,1064.7 2374.0,1032.8 2438.6,998.3  A 1064.250,1064.250 0.00 0,0 2436.9,995.2 L 2436.9,995.2 2372.5,1030.0 2313.0,1062.1 2258.1,1091.7 2207.6,1118.9 2161.4,1143.9 2119.2,1166.7 2080.7,1187.5 2046.0,1206.4 2014.7,1223.4 1986.7,1238.6 1961.9,1252.1 1940.2,1263.9 1921.5,1274.2 1905.6,1283.0 1892.6,1290.2 1882.2,1296.0 1874.5,1300.4 1869.5,1303.4 1867.0,1305.0 1867.1,1305.3 1869.8,1304.1 1875.2,1301.6 1883.1,1297.7 1893.7,1292.4 1907.1,1285.6 1923.2,1277.4 1942.2,1267.6 1964.2,1256.3 1989.3,1243.4 2017.5,1228.7 2049.1,1212.3 2084.2,1194.1 2123.0,1173.9 2165.6,1151.7 2212.2,1127.4 2263.0,1100.9 2318.3,1072.1 2378.2,1040.7 2443.1,1006.8  Z" style="stroke-width: 2.0;  stroke: rgb(82,82,82); fill: rgb(0,255,0); opacity: 0.667;" />
<path d="M 2465.943,1053.255 A 1064.250,1064.250 0.00 0,1 2467.4,1056.5 L 2467.4,1056.5 2400.9,1086.9 2339.3,1115.0 2282.6,1140.8 2230.3,1164.5 2182.4,1186.1 2138.6,1205.8 2098.7,1223.6 2062.5,1239.6 2029.9,1254.0 2000.7,1266.7 1974.8,1277.8 1952.0,1287.4 1932.2,1295.6 1915.3,1302.4 1901.3,1307.8 1890.1,1311.8 1881.6,1314.5 1875.7,1315.9 1872.5,1316.0 1871.9,1314.8 1873.9,1312.3 1878.6,1308.5 1885.9,1303.4 1895.9,1296.9 1908.7,1289.0 1924.3,1279.6 1942.7,1268.8 1964.2,1256.5 1988.8,1242.6 2016.6,1227.0 2047.7,1209.8 2082.4,1190.7 2120.7,1169.7 2162.9,1146.7 2209.1,1121.7 2259.5,1094.4 2314.4,1064.8 2374.0,1032.9 2438.6,998.3  A 1064.250,1064.250 0.00 0,0 2436.9,995.2 L 2436.9,995.2 2372.5,1030.0 2313.0,1062.2 2258.2,1091.9 2207.8,1119.3 2161.7,1144.5 2119.6,1167.6 2081.4,1188.7 2046.8,1207.9 2015.7,1225.3 1987.9,1241.0 1963.4,1255.0 1942.0,1267.4 1923.5,1278.2 1908.0,1287.6 1895.2,1295.6 1885.3,1302.1 1877.9,1307.3 1873.3,1311.1 1871.3,1313.6 1871.9,1314.8 1875.1,1314.7 1880.9,1313.3 1889.5,1310.5 1900.7,1306.4 1914.7,1301.0 1931.5,1294.2 1951.3,1286.0 1974.0,1276.2 1999.9,1265.0 2029.1,1252.2 2061.7,1237.8 2097.8,1221.6 2137.6,1203.7 2181.4,1183.9 2229.2,1162.1 2281.4,1138.3 2338.0,1112.2 2399.5,1083.9 2465.9,1053.3  Z" style="stroke-width: 2.0;  stroke: rgb(82,82,82); fill: rgb(53,128,0); opacity: 0.667;" />
<path d="M 2465.943,1053.255 A 1064.250,1064.250 0.00 0,1 2467.4,1056.5 L 2467.4,1056.5 2400.9,1086.9 2339.3,1115.0 2282.6,1140.9 2230.4,1164.6 2182.5,1186.3 2138.7,1206.0 2098.9,1223.9 2062.7,1240.0 2030.2,1254.5 2001.0,1267.3 1975.2,1278.6 1952.4,1288.3 1932.7,1296.6 1915.9,1303.6 1902.0,1309.1 1890.9,1313.3 1882.5,1316.2 1876.7,1317.9 1873.6,1318.2 1873.1,1317.2 1875.3,1315.0 1880.1,1311.4 1887.6,1306.6 1897.8,1300.4 1910.7,1292.8 1926.5,1283.9 1945.1,1273.4 1966.8,1261.5 1991.6,1248.0 2019.7,1232.9 2051.1,1216.1 2086.0,1197.6 2124.6,1177.1 2167.1,1154.8 2213.7,1130.3 2264.5,1103.7 2319.7,1074.9 2379.7,1043.7 2444.7,1009.9  A 1064.250,1064.250 0.00 0,0 2443.1,1006.8 L 2443.1,1006.8 2378.2,1040.8 2318.3,1072.2 2263.1,1101.2 2212.4,1128.0 2166.0,1152.5 2123.6,1175.1 2085.0,1195.6 2050.1,1214.3 2018.8,1231.2 1990.8,1246.4 1966.0,1260.0 1944.4,1272.0 1925.8,1282.4 1910.0,1291.5 1897.1,1299.1 1886.9,1305.3 1879.5,1310.2 1874.7,1313.7 1872.5,1316.0 1873.0,1316.9 1876.1,1316.6 1881.8,1315.0 1890.3,1312.0 1901.4,1307.8 1915.3,1302.2 1932.0,1295.2 1951.7,1286.8 1974.4,1277.0 2000.3,1265.6 2029.4,1252.7 2061.9,1238.2 2098.0,1221.9 2137.8,1203.9 2181.5,1184.0 2229.3,1162.2 2281.4,1138.3 2338.1,1112.3 2399.5,1084.0 2465.9,1053.3  Z" style="stroke-width: 2.0;  stroke: rgb(82,82,82); fill: rgb(0,0,204); opacity: 0.667;" />
<path d="M 1960.341,2459.538 A 1064.250,1064.250 0.00 0,1 1949.8,2464.5 L 1949.8,2464.5 1919.5,2396.8 1892.7,2331.5 1869.1,2268.4 1848.2,2207.6 1829.9,2148.9 1813.6,2092.2 1799.2,2037.3 1786.4,1984.3 1774.8,1932.9 1764.4,1883.0 1754.8,1834.6 1745.9,1787.5 1737.4,1741.6 1729.3,1696.6 1721.3,1652.6 1713.3,1609.3 1705.3,1566.7 1697.1,1524.4 1688.7,1482.5 1680.1,1440.8 1671.0,1399.0 1661.7,1357.0 1652.0,1314.7 1642.1,1271.8 1631.8,1228.2 1621.4,1183.8 1610.8,1138.3 1600.2,1091.5 1589.7,1043.3 1579.4,993.4 1569.5,941.7 1560.1,887.9 1551.4,831.9 1543.7,773.4 1537.2,712.2 1532.0,648.1 1528.6,580.9 1527.1,510.3 1527.8,436.1  A 1064.250,1064.250 0.00 0,0 1516.1,435.9 L 1516.1,435.9 1516.2,510.1 1518.5,580.6 1522.7,647.8 1528.5,711.8 1535.8,773.0 1544.1,831.4 1553.4,887.3 1563.4,941.0 1573.8,992.6 1584.7,1042.3 1595.7,1090.4 1606.8,1137.1 1617.9,1182.5 1628.8,1226.8 1639.6,1270.3 1650.0,1313.0 1660.1,1355.2 1669.9,1397.1 1679.4,1438.8 1688.5,1480.5 1697.4,1522.3 1706.0,1564.4 1714.5,1607.0 1723.0,1650.2 1731.4,1694.1 1740.1,1738.9 1749.0,1784.8 1758.5,1831.8 1768.6,1880.1 1779.6,1929.8 1791.7,1981.1 1805.1,2034.0 1820.1,2088.7 1837.0,2145.2 1856.0,2203.7 1877.5,2264.3 1901.8,2327.1 1929.3,2392.2 1960.3,2459.5  Z" style="stroke-width: 2.0;  stroke: rgb(82,82,82); fill: rgb(102,153,255); opacity: 0.667;" />
<path d="M 650.021,859.559 A 1064.250,1064.250 0.00 0,1 652.6,856.2 L 652.6,856.2 710.8,900.5 764.7,941.4 814.3,979.1 860.0,1013.8 901.8,1045.7 940.0,1074.7 974.8,1101.2 1006.3,1125.1 1034.6,1146.7 1059.9,1166.0 1082.4,1183.1 1102.0,1198.1 1119.0,1211.0 1133.4,1222.0 1145.3,1231.1 1154.7,1238.4 1161.7,1243.8 1166.3,1247.4 1168.6,1249.2 1168.6,1249.3 1166.2,1247.6 1161.4,1244.1 1154.3,1238.9 1144.8,1231.8 1132.8,1222.8 1118.3,1212.0 1101.2,1199.1 1081.4,1184.3 1058.9,1167.4 1033.4,1148.2 1005.0,1126.8 973.4,1103.1 938.5,1076.8 900.1,1047.9 858.1,1016.3 812.3,981.8 762.5,944.3 708.5,903.6 650.0,859.6  A 1064.250,1064.250 0.00 0,0 647.5,862.9 L 647.5,862.9 706.1,906.7 760.3,947.2 810.3,984.5 856.2,1018.8 898.3,1050.3 936.8,1079.0 971.8,1105.1 1003.5,1128.8 1032.1,1150.1 1057.6,1169.1 1080.2,1185.9 1100.0,1200.7 1117.2,1213.5 1131.7,1224.3 1143.7,1233.2 1153.3,1240.2 1160.4,1245.5 1165.2,1248.9 1167.6,1250.6 1167.6,1250.5 1165.3,1248.7 1160.7,1245.1 1153.7,1239.7 1144.2,1232.5 1132.3,1223.5 1117.9,1212.5 1100.8,1199.6 1081.1,1184.7 1058.6,1167.7 1033.2,1148.5 1004.8,1127.1 973.2,1103.2 938.4,1076.9 900.0,1048.0 858.1,1016.4 812.3,981.9 762.5,944.3 708.5,903.6 650.0,859.6  Z" style="stroke-width: 2.0;  stroke: rgb(82,82,82); fill: rgb(153,204,255); opacity: 0.667;" />
</g>
<defs>
<pattern id="hline-sparse" width="10" height="10" patternTransform="rotate(0 0 0)" patternUnits="userSpaceOnUse"><line x1="0" y1="0" x2="10" y2="0" style="stroke:black;stroke-width:2" /></pattern>
<pattern id="checker" width="10" height="10" patternTransform="rotate(45 0 0)" patternUnits="userSpaceOnUse"><line x1="0" y1="0" x2="10" y2="0" style="stroke:black;stroke-width:2" /><line x1="0" y1="0" x2="0" y2="10" style="stroke:black;stroke-width:2" /></pattern>
<pattern id="checker" width="10" height="10" patternTransform="rotate(45 0 0)" patternUnits="userSpaceOnUse"><line x1="0" y1="0" x2="10" y2="0" style="stroke:black;stroke-width:5" /><line x1="0" y1="0" x2="0" y2="10" style="stroke:black;stroke-width:4" /></pattern>
<pattern id="hline" width="10" height="10" patternTransform="rotate(0 0 0)" patternUnits="userSpaceOnUse"><line x1="0" y1="0" x2="10" y2="0" style="stroke:black;stroke-width:5" /></pattern>
<pattern id="vline-sparse" width="10" height="10" patternTransform="rotate(0 0 0)" patternUnits="userSpaceOnUse"><line x1="0" y1="0" x2="0" y2="10" style="stroke:black;stroke-width:2" /></pattern>
<pattern id="vline" width="10" height="10" patternTransform="rotate(0 0 0)" patternUnits="userSpaceOnUse"><line x1="0" y1="0" x2="0" y2="10" style="stroke:black;stroke-width:5" /></pattern>
</defs>
</svg>
