<?xml version="1.0" encoding="utf-8" standalone="no"?>
<!DOCTYPE svg PUBLIC "-//W3C//DTD SVG 1.1//EN" "http://www.w3.org/Graphics/SVG/1.1/DTD/svg11.dtd">
<svg width="3000px" height="3000px" version="1.1" xmlns="http://www.w3.org/2000/svg" xmlns:xlink="http://www.w3.org/1999/xlink">
<g id="ideograms">
<path d="M1500.000,425.000 A1075.000,1075.000 40.000 0,1 1776.222,461.094 L1789.069,412.772 A1125.000,1125.000 0.000 0,0 1500.000,375.000 Z" style="stroke-linecap:round;fill:rgb(116,196,118);fill-opacity:0.33;" />
<text x="1666.8" y="296.5" font-size="18.2px" font-family="CMUBright-Roman" style="text-anchor:start;fill:rgb(0,0,0);" transform="rotate(277.4,1666.8,296.5)" >R<tspan baseline-shift="-40%" font-size="90%">s</tspan>caffold<tspan baseline-shift="-40%" font-size="90%">8</tspan></text>
<line x1='1500.0' y1='375.0' x2='1500.0' y2='355.0' style="stroke-width:4.0;stroke:rgb(0,0,0);stroke-linecap:round;fill:none;" />
<text x="1506.5" y="345.0" font-size="18.2px" font-family="CMUBright-Roman" style="text-anchor:start;fill:rgb(0,0,0);" transform="rotate(270.0,1506.5,345.0)" >0</text>
<line x1='1562.0' y1='376.7' x2='1563.1' y2='356.7' style="stroke-width:4.0;stroke:rgb(0,0,0);stroke-linecap:round;fill:none;" />
<text x="1570.2" y="347.1" font-size="18.2px" font-family="CMUBright-Roman" style="text-anchor:start;fill:rgb(0,0,0);" transform="rotate(273.2,1570.2,347.1)" >50</text>
<line x1='1623.8' y1='381.8' x2='1626.0' y2='362.0' style="stroke-width:4.0;stroke:rgb(0,0,0);stroke-linecap:round;fill:none;" />
<text x="1633.6" y="352.8" font-size="18.2px" font-family="CMUBright-Roman" style="text-anchor:start;fill:rgb(0,0,0);" transform="rotate(276.3,1633.6,352.8)" >100</text>
<line x1='1685.3' y1='390.4' x2='1688.6' y2='370.6' style="stroke-width:4.0;stroke:rgb(0,0,0);stroke-linecap:round;fill:none;" />
<text x="1696.6" y="361.9" font-size="18.2px" font-family="CMUBright-Roman" style="text-anchor:start;fill:rgb(0,0,0);" transform="rotate(279.5,1696.6,361.9)" >150</text>
<line x1='1746.2' y1='402.3' x2='1750.5' y2='382.7' style="stroke-width:4.0;stroke:rgb(0,0,0);stroke-linecap:round;fill:none;" />
<text x="1759.1" y="374.4" font-size="18.2px" font-family="CMUBright-Roman" style="text-anchor:start;fill:rgb(0,0,0);" transform="rotate(282.6,1759.1,374.4)" >200</text>
<g id="highlighttrack_0">
<path d="M1740.919,452.344 A1075.000,1075.000 40.000 0,1 1756.541,456.059 L1768.473,407.504 A1125.000,1125.000 0.000 0,0 1752.124,403.616 Z" style="stroke-width:4.0;stroke:rgb(0,0,0);stroke-linecap:round;fill:rgb(116,196,118);" />
</g>
<path d="M1837.858,479.472 A1075.000,1075.000 40.000 0,1 2037.885,569.245 L2062.902,525.954 A1125.000,1125.000 0.000 0,0 1853.573,432.006 Z" style="stroke-linecap:round;fill:rgb(116,196,118);fill-opacity:0.33;" />
<text x="2006.1" y="395.4" font-size="18.2px" font-family="CMUBright-Roman" style="text-anchor:start;fill:rgb(0,0,0);" transform="rotate(294.2,2006.1,395.4)" >R<tspan baseline-shift="-40%" font-size="90%">s</tspan>caffold<tspan baseline-shift="-40%" font-size="90%">1</tspan>1</text>
<line x1='1853.6' y1='432.0' x2='1859.9' y2='413.0' style="stroke-width:4.0;stroke:rgb(0,0,0);stroke-linecap:round;fill:none;" />
<text x="1869.2" y="405.6" font-size="18.2px" font-family="CMUBright-Roman" style="text-anchor:start;fill:rgb(0,0,0);" transform="rotate(288.3,1869.2,405.6)" >0</text>
<line x1='1911.9' y1='453.1' x2='1919.2' y2='434.5' style="stroke-width:4.0;stroke:rgb(0,0,0);stroke-linecap:round;fill:none;" />
<text x="1928.9" y="427.6" font-size="18.2px" font-family="CMUBright-Roman" style="text-anchor:start;fill:rgb(0,0,0);" transform="rotate(291.5,1928.9,427.6)" >50</text>
<line x1='1969.0' y1='477.4' x2='1977.3' y2='459.2' style="stroke-width:4.0;stroke:rgb(0,0,0);stroke-linecap:round;fill:none;" />
<text x="1987.4" y="452.9" font-size="18.2px" font-family="CMUBright-Roman" style="text-anchor:start;fill:rgb(0,0,0);" transform="rotate(294.6,1987.4,452.9)" >100</text>
<line x1='2024.6' y1='504.8' x2='2034.0' y2='487.1' style="stroke-width:4.0;stroke:rgb(0,0,0);stroke-linecap:round;fill:none;" />
<text x="2044.4" y="481.3" font-size="18.2px" font-family="CMUBright-Roman" style="text-anchor:start;fill:rgb(0,0,0);" transform="rotate(297.8,2044.4,481.3)" >150</text>
<g id="highlighttrack_0">
<path d="M2006.422,551.759 A1075.000,1075.000 40.000 0,1 2021.845,560.158 L2046.116,516.444 A1125.000,1125.000 0.000 0,0 2029.976,507.654 Z" style="stroke-width:4.0;stroke:rgb(0,0,0);stroke-linecap:round;fill:rgb(116,196,118);" />
</g>
<path d="M2092.585,603.079 A1075.000,1075.000 40.000 0,1 2117.771,620.237 L2146.505,579.317 A1125.000,1125.000 0.000 0,0 2120.147,561.361 Z" style="stroke-linecap:round;fill:rgb(116,196,118);fill-opacity:0.33;" />
<text x="2191.9" y="501.2" font-size="18.2px" font-family="CMUBright-Roman" style="text-anchor:start;fill:rgb(0,0,0);" transform="rotate(304.3,2191.9,501.2)" >R<tspan baseline-shift="-40%" font-size="90%">s</tspan>caffold<tspan baseline-shift="-40%" font-size="90%">2</tspan>2</text>
<line x1='2120.1' y1='561.4' x2='2131.2' y2='544.7' style="stroke-width:4.0;stroke:rgb(0,0,0);stroke-linecap:round;fill:none;" />
<text x="2142.1" y="539.9" font-size="18.2px" font-family="CMUBright-Roman" style="text-anchor:start;fill:rgb(0,0,0);" transform="rotate(303.5,2142.1,539.9)" >0</text>
<g id="highlighttrack_0">
<path d="M2110.153,614.936 A1075.000,1075.000 40.000 0,1 2114.597,618.016 L2143.183,576.994 A1125.000,1125.000 0.000 0,0 2138.532,573.770 Z" style="stroke-width:4.0;stroke:rgb(0,0,0);stroke-linecap:round;fill:rgb(116,196,118);" />
</g>
<path d="M2169.279,658.756 A1075.000,1075.000 40.000 0,1 2172.089,661.000 L2203.349,621.977 A1125.000,1125.000 0.000 0,0 2200.408,619.629 Z" style="stroke-linecap:round;fill:rgb(116,196,118);fill-opacity:0.33;" />
<text x="2265.4" y="556.4" font-size="18.2px" font-family="CMUBright-Roman" style="text-anchor:start;fill:rgb(0,0,0);" transform="rotate(308.6,2265.4,556.4)" >R<tspan baseline-shift="-40%" font-size="90%">s</tspan>caffold<tspan baseline-shift="-40%" font-size="90%">2</tspan>9</text>
<line x1='2200.4' y1='619.6' x2='2212.9' y2='604.0' style="stroke-width:4.0;stroke:rgb(0,0,0);stroke-linecap:round;fill:none;" />
<text x="2224.2" y="600.2" font-size="18.2px" font-family="CMUBright-Roman" style="text-anchor:start;fill:rgb(0,0,0);" transform="rotate(308.5,2224.2,600.2)" >0</text>
<g id="highlighttrack_0">
<path d="M2169.405,658.857 A1075.000,1075.000 40.000 0,1 2172.059,660.976 L2203.318,621.951 A1125.000,1125.000 0.000 0,0 2200.540,619.734 Z" style="stroke-width:4.0;stroke:rgb(0,0,0);stroke-linecap:round;fill:rgb(116,196,118);" />
</g>
<path d="M2221.062,702.696 A1075.000,1075.000 40.000 1,1 1435.711,426.924 L1432.720,377.014 A1125.000,1125.000 0.000 1,0 2254.600,665.612 Z" style="stroke-linecap:round;fill:rgb(116,196,118);fill-opacity:0.33;" />
<text x="1106.4" y="2649.5" font-size="18.2px" font-family="CMUBright-Roman" style="text-anchor:end;fill:rgb(0,0,0);" transform="rotate(-70.7,1106.4,2649.5)" >NZ<tspan baseline-shift="-40%" font-size="90%">C</tspan>P020472.1</text>
<line x1='2254.6' y1='665.6' x2='2268.0' y2='650.8' style="stroke-width:4.0;stroke:rgb(0,0,0);stroke-linecap:round;fill:none;" />
<text x="2279.5" y="647.7" font-size="18.2px" font-family="CMUBright-Roman" style="text-anchor:start;fill:rgb(0,0,0);" transform="rotate(312.1,2279.5,647.7)" >0</text>
<line x1='2299.4' y1='708.5' x2='2313.7' y2='694.4' style="stroke-width:4.0;stroke:rgb(0,0,0);stroke-linecap:round;fill:none;" />
<text x="2325.3" y="692.0" font-size="18.2px" font-family="CMUBright-Roman" style="text-anchor:start;fill:rgb(0,0,0);" transform="rotate(315.3,2325.3,692.0)" >50</text>
<line x1='2341.9' y1='753.7' x2='2356.8' y2='740.5' style="stroke-width:4.0;stroke:rgb(0,0,0);stroke-linecap:round;fill:none;" />
<text x="2368.6" y="738.7" font-size="18.2px" font-family="CMUBright-Roman" style="text-anchor:start;fill:rgb(0,0,0);" transform="rotate(318.4,2368.6,738.7)" >100</text>
<line x1='2381.7' y1='801.3' x2='2397.4' y2='788.9' style="stroke-width:4.0;stroke:rgb(0,0,0);stroke-linecap:round;fill:none;" />
<text x="2409.2" y="787.8" font-size="18.2px" font-family="CMUBright-Roman" style="text-anchor:start;fill:rgb(0,0,0);" transform="rotate(321.6,2409.2,787.8)" >150</text>
<line x1='2418.9' y1='850.9' x2='2435.2' y2='839.4' style="stroke-width:4.0;stroke:rgb(0,0,0);stroke-linecap:round;fill:none;" />
<text x="2447.1" y="839.0" font-size="18.2px" font-family="CMUBright-Roman" style="text-anchor:start;fill:rgb(0,0,0);" transform="rotate(324.8,2447.1,839.0)" >200</text>
<line x1='2453.3' y1='902.6' x2='2470.2' y2='892.0' style="stroke-width:4.0;stroke:rgb(0,0,0);stroke-linecap:round;fill:none;" />
<text x="2482.1" y="892.2" font-size="18.2px" font-family="CMUBright-Roman" style="text-anchor:start;fill:rgb(0,0,0);" transform="rotate(327.9,2482.1,892.2)" >250</text>
<line x1='2484.7' y1='956.0' x2='2502.3' y2='946.4' style="stroke-width:4.0;stroke:rgb(0,0,0);stroke-linecap:round;fill:none;" />
<text x="2514.1" y="947.2" font-size="18.2px" font-family="CMUBright-Roman" style="text-anchor:start;fill:rgb(0,0,0);" transform="rotate(331.1,2514.1,947.2)" >300</text>
<line x1='2513.2' y1='1011.1' x2='2531.2' y2='1002.5' style="stroke-width:4.0;stroke:rgb(0,0,0);stroke-linecap:round;fill:none;" />
<text x="2543.1" y="1004.0" font-size="18.2px" font-family="CMUBright-Roman" style="text-anchor:start;fill:rgb(0,0,0);" transform="rotate(334.2,2543.1,1004.0)" >350</text>
<line x1='2538.6' y1='1067.7' x2='2557.1' y2='1060.1' style="stroke-width:4.0;stroke:rgb(0,0,0);stroke-linecap:round;fill:none;" />
<text x="2568.8" y="1062.2" font-size="18.2px" font-family="CMUBright-Roman" style="text-anchor:start;fill:rgb(0,0,0);" transform="rotate(337.4,2568.8,1062.2)" >400</text>
<line x1='2560.9' y1='1125.7' x2='2579.8' y2='1119.0' style="stroke-width:4.0;stroke:rgb(0,0,0);stroke-linecap:round;fill:none;" />
<text x="2591.3" y="1121.8" font-size="18.2px" font-family="CMUBright-Roman" style="text-anchor:start;fill:rgb(0,0,0);" transform="rotate(340.6,2591.3,1121.8)" >450</text>
<line x1='2579.9' y1='1184.7' x2='2599.1' y2='1179.1' style="stroke-width:4.0;stroke:rgb(0,0,0);stroke-linecap:round;fill:none;" />
<text x="2610.5" y="1182.5" font-size="18.2px" font-family="CMUBright-Roman" style="text-anchor:start;fill:rgb(0,0,0);" transform="rotate(343.7,2610.5,1182.5)" >500</text>
<line x1='2595.6' y1='1244.7' x2='2615.1' y2='1240.2' style="stroke-width:4.0;stroke:rgb(0,0,0);stroke-linecap:round;fill:none;" />
<text x="2626.3" y="1244.2" font-size="18.2px" font-family="CMUBright-Roman" style="text-anchor:start;fill:rgb(0,0,0);" transform="rotate(346.9,2626.3,1244.2)" >550</text>
<line x1='2608.1' y1='1305.5' x2='2627.8' y2='1302.0' style="stroke-width:4.0;stroke:rgb(0,0,0);stroke-linecap:round;fill:none;" />
<text x="2638.7" y="1306.7" font-size="18.2px" font-family="CMUBright-Roman" style="text-anchor:start;fill:rgb(0,0,0);" transform="rotate(350.0,2638.7,1306.7)" >600</text>
<line x1='2617.1' y1='1366.9' x2='2637.0' y2='1364.5' style="stroke-width:4.0;stroke:rgb(0,0,0);stroke-linecap:round;fill:none;" />
<text x="2647.6" y="1369.8" font-size="18.2px" font-family="CMUBright-Roman" style="text-anchor:start;fill:rgb(0,0,0);" transform="rotate(353.2,2647.6,1369.8)" >650</text>
<line x1='2622.7' y1='1428.6' x2='2642.7' y2='1427.4' style="stroke-width:4.0;stroke:rgb(0,0,0);stroke-linecap:round;fill:none;" />
<text x="2653.1" y="1433.2" font-size="18.2px" font-family="CMUBright-Roman" style="text-anchor:start;fill:rgb(0,0,0);" transform="rotate(356.4,2653.1,1433.2)" >700</text>
<line x1='2625.0' y1='1490.6' x2='2645.0' y2='1490.5' style="stroke-width:4.0;stroke:rgb(0,0,0);stroke-linecap:round;fill:none;" />
<text x="2655.0" y="1496.9" font-size="18.2px" font-family="CMUBright-Roman" style="text-anchor:start;fill:rgb(0,0,0);" transform="rotate(359.5,2655.0,1496.9)" >750</text>
<line x1='2623.8' y1='1552.7' x2='2643.7' y2='1553.6' style="stroke-width:4.0;stroke:rgb(0,0,0);stroke-linecap:round;fill:none;" />
<text x="2653.4" y="1560.6" font-size="18.2px" font-family="CMUBright-Roman" style="text-anchor:start;fill:rgb(0,0,0);" transform="rotate(2.7,2653.4,1560.6)" >800</text>
<line x1='2619.2' y1='1614.5' x2='2639.1' y2='1616.6' style="stroke-width:4.0;stroke:rgb(0,0,0);stroke-linecap:round;fill:none;" />
<text x="2648.3" y="1624.0" font-size="18.2px" font-family="CMUBright-Roman" style="text-anchor:start;fill:rgb(0,0,0);" transform="rotate(5.8,2648.3,1624.0)" >850</text>
<line x1='2611.1' y1='1676.0' x2='2630.9' y2='1679.2' style="stroke-width:4.0;stroke:rgb(0,0,0);stroke-linecap:round;fill:none;" />
<text x="2639.7" y="1687.1" font-size="18.2px" font-family="CMUBright-Roman" style="text-anchor:start;fill:rgb(0,0,0);" transform="rotate(9.0,2639.7,1687.1)" >900</text>
<line x1='2599.7' y1='1737.0' x2='2619.3' y2='1741.2' style="stroke-width:4.0;stroke:rgb(0,0,0);stroke-linecap:round;fill:none;" />
<text x="2627.7" y="1749.7" font-size="18.2px" font-family="CMUBright-Roman" style="text-anchor:start;fill:rgb(0,0,0);" transform="rotate(12.2,2627.7,1749.7)" >950</text>
<line x1='2585.0' y1='1797.3' x2='2604.3' y2='1802.6' style="stroke-width:4.0;stroke:rgb(0,0,0);stroke-linecap:round;fill:none;" />
<text x="2612.2" y="1811.5" font-size="18.2px" font-family="CMUBright-Roman" style="text-anchor:start;fill:rgb(0,0,0);" transform="rotate(15.3,2612.2,1811.5)" >1000</text>
<line x1='2567.0' y1='1856.6' x2='2585.9' y2='1863.0' style="stroke-width:4.0;stroke:rgb(0,0,0);stroke-linecap:round;fill:none;" />
<text x="2593.4" y="1872.3" font-size="18.2px" font-family="CMUBright-Roman" style="text-anchor:start;fill:rgb(0,0,0);" transform="rotate(18.5,2593.4,1872.3)" >1050</text>
<line x1='2545.7' y1='1914.9' x2='2564.3' y2='1922.3' style="stroke-width:4.0;stroke:rgb(0,0,0);stroke-linecap:round;fill:none;" />
<text x="2571.2" y="1932.0" font-size="18.2px" font-family="CMUBright-Roman" style="text-anchor:start;fill:rgb(0,0,0);" transform="rotate(21.6,2571.2,1932.0)" >1100</text>
<line x1='2521.2' y1='1971.9' x2='2539.4' y2='1980.3' style="stroke-width:4.0;stroke:rgb(0,0,0);stroke-linecap:round;fill:none;" />
<text x="2545.7" y="1990.4" font-size="18.2px" font-family="CMUBright-Roman" style="text-anchor:start;fill:rgb(0,0,0);" transform="rotate(24.8,2545.7,1990.4)" >1150</text>
<line x1='2493.7' y1='2027.5' x2='2511.3' y2='2036.9' style="stroke-width:4.0;stroke:rgb(0,0,0);stroke-linecap:round;fill:none;" />
<text x="2517.1" y="2047.3" font-size="18.2px" font-family="CMUBright-Roman" style="text-anchor:start;fill:rgb(0,0,0);" transform="rotate(28.0,2517.1,2047.3)" >1200</text>
<line x1='2463.1' y1='2081.5' x2='2480.2' y2='2091.8' style="stroke-width:4.0;stroke:rgb(0,0,0);stroke-linecap:round;fill:none;" />
<text x="2485.4" y="2102.5" font-size="18.2px" font-family="CMUBright-Roman" style="text-anchor:start;fill:rgb(0,0,0);" transform="rotate(31.1,2485.4,2102.5)" >1250</text>
<line x1='2429.6' y1='2133.7' x2='2446.1' y2='2144.9' style="stroke-width:4.0;stroke:rgb(0,0,0);stroke-linecap:round;fill:none;" />
<text x="2450.7" y="2155.9" font-size="18.2px" font-family="CMUBright-Roman" style="text-anchor:start;fill:rgb(0,0,0);" transform="rotate(34.3,2450.7,2155.9)" >1300</text>
<line x1='2393.2' y1='2183.9' x2='2409.1' y2='2196.1' style="stroke-width:4.0;stroke:rgb(0,0,0);stroke-linecap:round;fill:none;" />
<text x="2413.1" y="2207.3" font-size="18.2px" font-family="CMUBright-Roman" style="text-anchor:start;fill:rgb(0,0,0);" transform="rotate(37.4,2413.1,2207.3)" >1350</text>
<line x1='2354.2' y1='2232.1' x2='2369.4' y2='2245.1' style="stroke-width:4.0;stroke:rgb(0,0,0);stroke-linecap:round;fill:none;" />
<text x="2372.7" y="2256.6" font-size="18.2px" font-family="CMUBright-Roman" style="text-anchor:start;fill:rgb(0,0,0);" transform="rotate(40.6,2372.7,2256.6)" >1400</text>
<line x1='2312.5' y1='2278.1' x2='2327.0' y2='2291.9' style="stroke-width:4.0;stroke:rgb(0,0,0);stroke-linecap:round;fill:none;" />
<text x="2329.7" y="2303.5" font-size="18.2px" font-family="CMUBright-Roman" style="text-anchor:start;fill:rgb(0,0,0);" transform="rotate(43.8,2329.7,2303.5)" >1450</text>
<line x1='2268.4' y1='2321.7' x2='2282.1' y2='2336.3' style="stroke-width:4.0;stroke:rgb(0,0,0);stroke-linecap:round;fill:none;" />
<text x="2284.1" y="2348.0" font-size="18.2px" font-family="CMUBright-Roman" style="text-anchor:start;fill:rgb(0,0,0);" transform="rotate(46.9,2284.1,2348.0)" >1500</text>
<line x1='2221.9' y1='2362.8' x2='2234.8' y2='2378.2' style="stroke-width:4.0;stroke:rgb(0,0,0);stroke-linecap:round;fill:none;" />
<text x="2236.2" y="2390.0" font-size="18.2px" font-family="CMUBright-Roman" style="text-anchor:start;fill:rgb(0,0,0);" transform="rotate(50.1,2236.2,2390.0)" >1550</text>
<line x1='2173.3' y1='2401.3' x2='2185.2' y2='2417.3' style="stroke-width:4.0;stroke:rgb(0,0,0);stroke-linecap:round;fill:none;" />
<text x="2186.0" y="2429.2" font-size="18.2px" font-family="CMUBright-Roman" style="text-anchor:start;fill:rgb(0,0,0);" transform="rotate(53.2,2186.0,2429.2)" >1600</text>
<line x1='2122.6' y1='2437.0' x2='2133.6' y2='2453.7' style="stroke-width:4.0;stroke:rgb(0,0,0);stroke-linecap:round;fill:none;" />
<text x="2133.7" y="2465.6" font-size="18.2px" font-family="CMUBright-Roman" style="text-anchor:start;fill:rgb(0,0,0);" transform="rotate(56.4,2133.7,2465.6)" >1650</text>
<line x1='2070.0' y1='2469.9' x2='2080.1' y2='2487.2' style="stroke-width:4.0;stroke:rgb(0,0,0);stroke-linecap:round;fill:none;" />
<text x="2079.6" y="2499.1" font-size="18.2px" font-family="CMUBright-Roman" style="text-anchor:start;fill:rgb(0,0,0);" transform="rotate(59.6,2079.6,2499.1)" >1700</text>
<line x1='2015.6' y1='2499.9' x2='2024.8' y2='2517.6' style="stroke-width:4.0;stroke:rgb(0,0,0);stroke-linecap:round;fill:none;" />
<text x="2023.6" y="2529.5" font-size="18.2px" font-family="CMUBright-Roman" style="text-anchor:start;fill:rgb(0,0,0);" transform="rotate(62.7,2023.6,2529.5)" >1750</text>
<line x1='1959.7' y1='2526.8' x2='1967.9' y2='2545.0' style="stroke-width:4.0;stroke:rgb(0,0,0);stroke-linecap:round;fill:none;" />
<text x="1966.1" y="2556.8" font-size="18.2px" font-family="CMUBright-Roman" style="text-anchor:start;fill:rgb(0,0,0);" transform="rotate(65.9,1966.1,2556.8)" >1800</text>
<line x1='1902.4' y1='2550.6' x2='1909.6' y2='2569.2' style="stroke-width:4.0;stroke:rgb(0,0,0);stroke-linecap:round;fill:none;" />
<text x="1907.1" y="2580.9" font-size="18.2px" font-family="CMUBright-Roman" style="text-anchor:start;fill:rgb(0,0,0);" transform="rotate(69.0,1907.1,2580.9)" >1850</text>
<line x1='1843.9' y1='2571.1' x2='1850.0' y2='2590.2' style="stroke-width:4.0;stroke:rgb(0,0,0);stroke-linecap:round;fill:none;" />
<text x="1846.9" y="2601.7" font-size="18.2px" font-family="CMUBright-Roman" style="text-anchor:start;fill:rgb(0,0,0);" transform="rotate(72.2,1846.9,2601.7)" >1900</text>
<line x1='1784.4' y1='2588.5' x2='1789.4' y2='2607.8' style="stroke-width:4.0;stroke:rgb(0,0,0);stroke-linecap:round;fill:none;" />
<text x="1785.6" y="2619.1" font-size="18.2px" font-family="CMUBright-Roman" style="text-anchor:start;fill:rgb(0,0,0);" transform="rotate(75.4,1785.6,2619.1)" >1950</text>
<line x1='1723.9' y1='2602.5' x2='1727.9' y2='2622.1' style="stroke-width:4.0;stroke:rgb(0,0,0);stroke-linecap:round;fill:none;" />
<text x="1723.5" y="2633.2" font-size="18.2px" font-family="CMUBright-Roman" style="text-anchor:start;fill:rgb(0,0,0);" transform="rotate(78.5,1723.5,2633.2)" >2000</text>
<line x1='1662.8' y1='2613.2' x2='1665.7' y2='2632.9' style="stroke-width:4.0;stroke:rgb(0,0,0);stroke-linecap:round;fill:none;" />
<text x="1660.7" y="2643.8" font-size="18.2px" font-family="CMUBright-Roman" style="text-anchor:start;fill:rgb(0,0,0);" transform="rotate(81.7,1660.7,2643.8)" >2050</text>
<line x1='1601.2' y1='2620.4' x2='1603.0' y2='2640.4' style="stroke-width:4.0;stroke:rgb(0,0,0);stroke-linecap:round;fill:none;" />
<text x="1597.4" y="2650.9" font-size="18.2px" font-family="CMUBright-Roman" style="text-anchor:start;fill:rgb(0,0,0);" transform="rotate(84.8,1597.4,2650.9)" >2100</text>
<line x1='1539.3' y1='2624.3' x2='1540.0' y2='2644.3' style="stroke-width:4.0;stroke:rgb(0,0,0);stroke-linecap:round;fill:none;" />
<text x="1533.8" y="2654.5" font-size="18.2px" font-family="CMUBright-Roman" style="text-anchor:start;fill:rgb(0,0,0);" transform="rotate(88.0,1533.8,2654.5)" >2150</text>
<line x1='1477.3' y1='2624.8' x2='1476.9' y2='2644.8' style="stroke-width:4.0;stroke:rgb(0,0,0);stroke-linecap:round;fill:none;" />
<text x="1483.2" y="2654.9" font-size="18.2px" font-family="CMUBright-Roman" style="text-anchor:end;fill:rgb(0,0,0);" transform="rotate(-88.8,1483.2,2654.9)" >2200</text>
<line x1='1415.3' y1='2621.8' x2='1413.8' y2='2641.8' style="stroke-width:4.0;stroke:rgb(0,0,0);stroke-linecap:round;fill:none;" />
<text x="1419.5" y="2652.2" font-size="18.2px" font-family="CMUBright-Roman" style="text-anchor:end;fill:rgb(0,0,0);" transform="rotate(-85.7,1419.5,2652.2)" >2250</text>
<line x1='1353.6' y1='2615.4' x2='1351.0' y2='2635.3' style="stroke-width:4.0;stroke:rgb(0,0,0);stroke-linecap:round;fill:none;" />
<text x="1356.1" y="2646.0" font-size="18.2px" font-family="CMUBright-Roman" style="text-anchor:end;fill:rgb(0,0,0);" transform="rotate(-82.5,1356.1,2646.0)" >2300</text>
<line x1='1292.3' y1='2605.7' x2='1288.6' y2='2625.3' style="stroke-width:4.0;stroke:rgb(0,0,0);stroke-linecap:round;fill:none;" />
<text x="1293.2" y="2636.3" font-size="18.2px" font-family="CMUBright-Roman" style="text-anchor:end;fill:rgb(0,0,0);" transform="rotate(-79.4,1293.2,2636.3)" >2350</text>
<line x1='1231.7' y1='2592.5' x2='1226.9' y2='2612.0' style="stroke-width:4.0;stroke:rgb(0,0,0);stroke-linecap:round;fill:none;" />
<text x="1230.9" y="2623.2" font-size="18.2px" font-family="CMUBright-Roman" style="text-anchor:end;fill:rgb(0,0,0);" transform="rotate(-76.2,1230.9,2623.2)" >2400</text>
<line x1='1171.9' y1='2576.1' x2='1166.1' y2='2595.2' style="stroke-width:4.0;stroke:rgb(0,0,0);stroke-linecap:round;fill:none;" />
<text x="1169.4" y="2606.7" font-size="18.2px" font-family="CMUBright-Roman" style="text-anchor:end;fill:rgb(0,0,0);" transform="rotate(-73.0,1169.4,2606.7)" >2450</text>
<line x1='1113.1' y1='2556.4' x2='1106.2' y2='2575.1' style="stroke-width:4.0;stroke:rgb(0,0,0);stroke-linecap:round;fill:none;" />
<text x="1108.9" y="2586.8" font-size="18.2px" font-family="CMUBright-Roman" style="text-anchor:end;fill:rgb(0,0,0);" transform="rotate(-69.9,1108.9,2586.8)" >2500</text>
<line x1='1055.4' y1='2533.4' x2='1047.5' y2='2551.8' style="stroke-width:4.0;stroke:rgb(0,0,0);stroke-linecap:round;fill:none;" />
<text x="1049.6" y="2563.5" font-size="18.2px" font-family="CMUBright-Roman" style="text-anchor:end;fill:rgb(0,0,0);" transform="rotate(-66.7,1049.6,2563.5)" >2550</text>
<line x1='999.1' y1='2507.4' x2='990.2' y2='2525.3' style="stroke-width:4.0;stroke:rgb(0,0,0);stroke-linecap:round;fill:none;" />
<text x="991.6" y="2537.1" font-size="18.2px" font-family="CMUBright-Roman" style="text-anchor:end;fill:rgb(0,0,0);" transform="rotate(-63.6,991.6,2537.1)" >2600</text>
<line x1='944.4' y1='2478.2' x2='934.5' y2='2495.6' style="stroke-width:4.0;stroke:rgb(0,0,0);stroke-linecap:round;fill:none;" />
<text x="935.2" y="2507.5" font-size="18.2px" font-family="CMUBright-Roman" style="text-anchor:end;fill:rgb(0,0,0);" transform="rotate(-60.4,935.2,2507.5)" >2650</text>
<line x1='891.3' y1='2446.1' x2='880.5' y2='2462.9' style="stroke-width:4.0;stroke:rgb(0,0,0);stroke-linecap:round;fill:none;" />
<text x="880.5" y="2474.8" font-size="18.2px" font-family="CMUBright-Roman" style="text-anchor:end;fill:rgb(0,0,0);" transform="rotate(-57.2,880.5,2474.8)" >2700</text>
<line x1='840.1' y1='2411.1' x2='828.3' y2='2427.3' style="stroke-width:4.0;stroke:rgb(0,0,0);stroke-linecap:round;fill:none;" />
<text x="827.8" y="2439.2" font-size="18.2px" font-family="CMUBright-Roman" style="text-anchor:end;fill:rgb(0,0,0);" transform="rotate(-54.1,827.8,2439.2)" >2750</text>
<line x1='790.9' y1='2373.3' x2='778.2' y2='2388.9' style="stroke-width:4.0;stroke:rgb(0,0,0);stroke-linecap:round;fill:none;" />
<text x="777.0" y="2400.7" font-size="18.2px" font-family="CMUBright-Roman" style="text-anchor:end;fill:rgb(0,0,0);" transform="rotate(-50.9,777.0,2400.7)" >2800</text>
<line x1='743.8' y1='2332.9' x2='730.4' y2='2347.7' style="stroke-width:4.0;stroke:rgb(0,0,0);stroke-linecap:round;fill:none;" />
<text x="728.5" y="2359.5" font-size="18.2px" font-family="CMUBright-Roman" style="text-anchor:end;fill:rgb(0,0,0);" transform="rotate(-47.8,728.5,2359.5)" >2850</text>
<line x1='699.0' y1='2290.0' x2='684.8' y2='2304.0' style="stroke-width:4.0;stroke:rgb(0,0,0);stroke-linecap:round;fill:none;" />
<text x="682.2" y="2315.7" font-size="18.2px" font-family="CMUBright-Roman" style="text-anchor:end;fill:rgb(0,0,0);" transform="rotate(-44.6,682.2,2315.7)" >2900</text>
<line x1='656.7' y1='2244.6' x2='641.7' y2='2257.9' style="stroke-width:4.0;stroke:rgb(0,0,0);stroke-linecap:round;fill:none;" />
<text x="638.5" y="2269.3" font-size="18.2px" font-family="CMUBright-Roman" style="text-anchor:end;fill:rgb(0,0,0);" transform="rotate(-41.4,638.5,2269.3)" >2950</text>
<line x1='616.9' y1='2197.0' x2='601.2' y2='2209.4' style="stroke-width:4.0;stroke:rgb(0,0,0);stroke-linecap:round;fill:none;" />
<text x="597.4" y="2220.7" font-size="18.2px" font-family="CMUBright-Roman" style="text-anchor:end;fill:rgb(0,0,0);" transform="rotate(-38.3,597.4,2220.7)" >3000</text>
<line x1='579.9' y1='2147.3' x2='563.5' y2='2158.8' style="stroke-width:4.0;stroke:rgb(0,0,0);stroke-linecap:round;fill:none;" />
<text x="559.1" y="2169.8" font-size="18.2px" font-family="CMUBright-Roman" style="text-anchor:end;fill:rgb(0,0,0);" transform="rotate(-35.1,559.1,2169.8)" >3050</text>
<line x1='545.6' y1='2095.6' x2='528.6' y2='2106.2' style="stroke-width:4.0;stroke:rgb(0,0,0);stroke-linecap:round;fill:none;" />
<text x="523.6" y="2117.0" font-size="18.2px" font-family="CMUBright-Roman" style="text-anchor:end;fill:rgb(0,0,0);" transform="rotate(-32.0,523.6,2117.0)" >3100</text>
<line x1='514.2' y1='2042.1' x2='496.7' y2='2051.7' style="stroke-width:4.0;stroke:rgb(0,0,0);stroke-linecap:round;fill:none;" />
<text x="491.1" y="2062.2" font-size="18.2px" font-family="CMUBright-Roman" style="text-anchor:end;fill:rgb(0,0,0);" transform="rotate(-28.8,491.1,2062.2)" >3150</text>
<line x1='485.8' y1='1986.9' x2='467.8' y2='1995.6' style="stroke-width:4.0;stroke:rgb(0,0,0);stroke-linecap:round;fill:none;" />
<text x="461.6" y="2005.7" font-size="18.2px" font-family="CMUBright-Roman" style="text-anchor:end;fill:rgb(0,0,0);" transform="rotate(-25.6,461.6,2005.7)" >3200</text>
<line x1='460.5' y1='1930.3' x2='442.0' y2='1937.9' style="stroke-width:4.0;stroke:rgb(0,0,0);stroke-linecap:round;fill:none;" />
<text x="435.3" y="1947.7" font-size="18.2px" font-family="CMUBright-Roman" style="text-anchor:end;fill:rgb(0,0,0);" transform="rotate(-22.5,435.3,1947.7)" >3250</text>
<line x1='438.4' y1='1872.3' x2='419.5' y2='1878.9' style="stroke-width:4.0;stroke:rgb(0,0,0);stroke-linecap:round;fill:none;" />
<text x="412.2" y="1888.4" font-size="18.2px" font-family="CMUBright-Roman" style="text-anchor:end;fill:rgb(0,0,0);" transform="rotate(-19.3,412.2,1888.4)" >3300</text>
<line x1='419.5' y1='1813.2' x2='400.3' y2='1818.8' style="stroke-width:4.0;stroke:rgb(0,0,0);stroke-linecap:round;fill:none;" />
<text x="392.5" y="1827.8" font-size="18.2px" font-family="CMUBright-Roman" style="text-anchor:end;fill:rgb(0,0,0);" transform="rotate(-16.2,392.5,1827.8)" >3350</text>
<line x1='403.9' y1='1753.2' x2='384.4' y2='1757.7' style="stroke-width:4.0;stroke:rgb(0,0,0);stroke-linecap:round;fill:none;" />
<text x="376.1" y="1766.3" font-size="18.2px" font-family="CMUBright-Roman" style="text-anchor:end;fill:rgb(0,0,0);" transform="rotate(-13.0,376.1,1766.3)" >3400</text>
<line x1='391.6' y1='1692.4' x2='371.9' y2='1695.8' style="stroke-width:4.0;stroke:rgb(0,0,0);stroke-linecap:round;fill:none;" />
<text x="363.1" y="1703.9" font-size="18.2px" font-family="CMUBright-Roman" style="text-anchor:end;fill:rgb(0,0,0);" transform="rotate(-9.8,363.1,1703.9)" >3450</text>
<line x1='382.7' y1='1631.0' x2='362.8' y2='1633.3' style="stroke-width:4.0;stroke:rgb(0,0,0);stroke-linecap:round;fill:none;" />
<text x="353.6" y="1640.9" font-size="18.2px" font-family="CMUBright-Roman" style="text-anchor:end;fill:rgb(0,0,0);" transform="rotate(-6.7,353.6,1640.9)" >3500</text>
<line x1='377.1' y1='1569.2' x2='357.2' y2='1570.4' style="stroke-width:4.0;stroke:rgb(0,0,0);stroke-linecap:round;fill:none;" />
<text x="347.6" y="1577.5" font-size="18.2px" font-family="CMUBright-Roman" style="text-anchor:end;fill:rgb(0,0,0);" transform="rotate(-3.5,347.6,1577.5)" >3550</text>
<line x1='375.0' y1='1507.2' x2='355.0' y2='1507.3' style="stroke-width:4.0;stroke:rgb(0,0,0);stroke-linecap:round;fill:none;" />
<text x="345.1" y="1513.9" font-size="18.2px" font-family="CMUBright-Roman" style="text-anchor:end;fill:rgb(0,0,0);" transform="rotate(-0.4,345.1,1513.9)" >3600</text>
<line x1='376.3' y1='1445.2' x2='356.4' y2='1444.2' style="stroke-width:4.0;stroke:rgb(0,0,0);stroke-linecap:round;fill:none;" />
<text x="346.1" y="1450.2" font-size="18.2px" font-family="CMUBright-Roman" style="text-anchor:end;fill:rgb(0,0,0);" transform="rotate(2.8,346.1,1450.2)" >3650</text>
<line x1='381.1' y1='1383.3' x2='361.2' y2='1381.3' style="stroke-width:4.0;stroke:rgb(0,0,0);stroke-linecap:round;fill:none;" />
<text x="350.6" y="1386.7" font-size="18.2px" font-family="CMUBright-Roman" style="text-anchor:end;fill:rgb(0,0,0);" transform="rotate(6.0,350.6,1386.7)" >3700</text>
<line x1='389.2' y1='1321.8' x2='369.5' y2='1318.7' style="stroke-width:4.0;stroke:rgb(0,0,0);stroke-linecap:round;fill:none;" />
<text x="358.6" y="1323.5" font-size="18.2px" font-family="CMUBright-Roman" style="text-anchor:end;fill:rgb(0,0,0);" transform="rotate(9.1,358.6,1323.5)" >3750</text>
<line x1='400.7' y1='1260.9' x2='381.2' y2='1256.6' style="stroke-width:4.0;stroke:rgb(0,0,0);stroke-linecap:round;fill:none;" />
<text x="370.0" y="1260.8" font-size="18.2px" font-family="CMUBright-Roman" style="text-anchor:end;fill:rgb(0,0,0);" transform="rotate(12.3,370.0,1260.8)" >3800</text>
<line x1='415.6' y1='1200.6' x2='396.3' y2='1195.3' style="stroke-width:4.0;stroke:rgb(0,0,0);stroke-linecap:round;fill:none;" />
<text x="384.9" y="1198.9" font-size="18.2px" font-family="CMUBright-Roman" style="text-anchor:end;fill:rgb(0,0,0);" transform="rotate(15.4,384.9,1198.9)" >3850</text>
<line x1='433.7' y1='1141.3' x2='414.8' y2='1134.9' style="stroke-width:4.0;stroke:rgb(0,0,0);stroke-linecap:round;fill:none;" />
<text x="403.2" y="1137.9" font-size="18.2px" font-family="CMUBright-Roman" style="text-anchor:end;fill:rgb(0,0,0);" transform="rotate(18.6,403.2,1137.9)" >3900</text>
<line x1='455.1' y1='1083.1' x2='436.5' y2='1075.7' style="stroke-width:4.0;stroke:rgb(0,0,0);stroke-linecap:round;fill:none;" />
<text x="424.8" y="1078.0" font-size="18.2px" font-family="CMUBright-Roman" style="text-anchor:end;fill:rgb(0,0,0);" transform="rotate(21.8,424.8,1078.0)" >3950</text>
<line x1='479.7' y1='1026.1' x2='461.5' y2='1017.7' style="stroke-width:4.0;stroke:rgb(0,0,0);stroke-linecap:round;fill:none;" />
<text x="449.7" y="1019.4" font-size="18.2px" font-family="CMUBright-Roman" style="text-anchor:end;fill:rgb(0,0,0);" transform="rotate(24.9,449.7,1019.4)" >4000</text>
<line x1='507.3' y1='970.6' x2='489.7' y2='961.2' style="stroke-width:4.0;stroke:rgb(0,0,0);stroke-linecap:round;fill:none;" />
<text x="477.8" y="962.2" font-size="18.2px" font-family="CMUBright-Roman" style="text-anchor:end;fill:rgb(0,0,0);" transform="rotate(28.1,477.8,962.2)" >4050</text>
<line x1='538.0' y1='916.7' x2='520.9' y2='906.3' style="stroke-width:4.0;stroke:rgb(0,0,0);stroke-linecap:round;fill:none;" />
<text x="509.0" y="906.7" font-size="18.2px" font-family="CMUBright-Roman" style="text-anchor:end;fill:rgb(0,0,0);" transform="rotate(31.2,509.0,906.7)" >4100</text>
<line x1='571.7' y1='864.6' x2='555.1' y2='853.3' style="stroke-width:4.0;stroke:rgb(0,0,0);stroke-linecap:round;fill:none;" />
<text x="543.2" y="853.0" font-size="18.2px" font-family="CMUBright-Roman" style="text-anchor:end;fill:rgb(0,0,0);" transform="rotate(34.4,543.2,853.0)" >4150</text>
<line x1='608.1' y1='814.3' x2='592.2' y2='802.2' style="stroke-width:4.0;stroke:rgb(0,0,0);stroke-linecap:round;fill:none;" />
<text x="580.4" y="801.2" font-size="18.2px" font-family="CMUBright-Roman" style="text-anchor:end;fill:rgb(0,0,0);" transform="rotate(37.6,580.4,801.2)" >4200</text>
<line x1='647.2' y1='766.2' x2='632.1' y2='753.2' style="stroke-width:4.0;stroke:rgb(0,0,0);stroke-linecap:round;fill:none;" />
<text x="620.3" y="751.6" font-size="18.2px" font-family="CMUBright-Roman" style="text-anchor:end;fill:rgb(0,0,0);" transform="rotate(40.7,620.3,751.6)" >4250</text>
<line x1='689.0' y1='720.3' x2='674.6' y2='706.5' style="stroke-width:4.0;stroke:rgb(0,0,0);stroke-linecap:round;fill:none;" />
<text x="662.9" y="704.2" font-size="18.2px" font-family="CMUBright-Roman" style="text-anchor:end;fill:rgb(0,0,0);" transform="rotate(43.9,662.9,704.2)" >4300</text>
<line x1='733.2' y1='676.8' x2='719.6' y2='662.2' style="stroke-width:4.0;stroke:rgb(0,0,0);stroke-linecap:round;fill:none;" />
<text x="708.0" y="659.3" font-size="18.2px" font-family="CMUBright-Roman" style="text-anchor:end;fill:rgb(0,0,0);" transform="rotate(47.0,708.0,659.3)" >4350</text>
<line x1='779.7' y1='635.8' x2='766.9' y2='620.4' style="stroke-width:4.0;stroke:rgb(0,0,0);stroke-linecap:round;fill:none;" />
<text x="755.5" y="616.9" font-size="18.2px" font-family="CMUBright-Roman" style="text-anchor:end;fill:rgb(0,0,0);" transform="rotate(50.2,755.5,616.9)" >4400</text>
<line x1='828.5' y1='597.4' x2='816.5' y2='581.4' style="stroke-width:4.0;stroke:rgb(0,0,0);stroke-linecap:round;fill:none;" />
<text x="805.4" y="577.2" font-size="18.2px" font-family="CMUBright-Roman" style="text-anchor:end;fill:rgb(0,0,0);" transform="rotate(53.4,805.4,577.2)" >4450</text>
<line x1='879.2' y1='561.8' x2='868.2' y2='545.1' style="stroke-width:4.0;stroke:rgb(0,0,0);stroke-linecap:round;fill:none;" />
<text x="857.3" y="540.3" font-size="18.2px" font-family="CMUBright-Roman" style="text-anchor:end;fill:rgb(0,0,0);" transform="rotate(56.5,857.3,540.3)" >4500</text>
<line x1='931.9' y1='529.0' x2='921.8' y2='511.7' style="stroke-width:4.0;stroke:rgb(0,0,0);stroke-linecap:round;fill:none;" />
<text x="911.1" y="506.4" font-size="18.2px" font-family="CMUBright-Roman" style="text-anchor:end;fill:rgb(0,0,0);" transform="rotate(59.7,911.1,506.4)" >4550</text>
<line x1='986.3' y1='499.1' x2='977.2' y2='481.3' style="stroke-width:4.0;stroke:rgb(0,0,0);stroke-linecap:round;fill:none;" />
<text x="966.8" y="475.4" font-size="18.2px" font-family="CMUBright-Roman" style="text-anchor:end;fill:rgb(0,0,0);" transform="rotate(62.8,966.8,475.4)" >4600</text>
<line x1='1042.2' y1='472.3' x2='1034.1' y2='454.1' style="stroke-width:4.0;stroke:rgb(0,0,0);stroke-linecap:round;fill:none;" />
<text x="1024.1" y="447.6" font-size="18.2px" font-family="CMUBright-Roman" style="text-anchor:end;fill:rgb(0,0,0);" transform="rotate(66.0,1024.1,447.6)" >4650</text>
<line x1='1099.6' y1='448.7' x2='1092.5' y2='430.0' style="stroke-width:4.0;stroke:rgb(0,0,0);stroke-linecap:round;fill:none;" />
<text x="1082.8" y="423.0" font-size="18.2px" font-family="CMUBright-Roman" style="text-anchor:end;fill:rgb(0,0,0);" transform="rotate(69.1,1082.8,423.0)" >4700</text>
<line x1='1158.1' y1='428.2' x2='1152.1' y2='409.1' style="stroke-width:4.0;stroke:rgb(0,0,0);stroke-linecap:round;fill:none;" />
<text x="1142.8" y="401.6" font-size="18.2px" font-family="CMUBright-Roman" style="text-anchor:end;fill:rgb(0,0,0);" transform="rotate(72.3,1142.8,401.6)" >4750</text>
<line x1='1217.7' y1='411.0' x2='1212.7' y2='391.6' style="stroke-width:4.0;stroke:rgb(0,0,0);stroke-linecap:round;fill:none;" />
<text x="1203.9" y="383.6" font-size="18.2px" font-family="CMUBright-Roman" style="text-anchor:end;fill:rgb(0,0,0);" transform="rotate(75.5,1203.9,383.6)" >4800</text>
<line x1='1278.2' y1='397.1' x2='1274.3' y2='377.5' style="stroke-width:4.0;stroke:rgb(0,0,0);stroke-linecap:round;fill:none;" />
<text x="1265.9" y="369.0" font-size="18.2px" font-family="CMUBright-Roman" style="text-anchor:end;fill:rgb(0,0,0);" transform="rotate(78.6,1265.9,369.0)" >4850</text>
<line x1='1339.3' y1='386.5' x2='1336.5' y2='366.7' style="stroke-width:4.0;stroke:rgb(0,0,0);stroke-linecap:round;fill:none;" />
<text x="1328.6" y="357.8" font-size="18.2px" font-family="CMUBright-Roman" style="text-anchor:end;fill:rgb(0,0,0);" transform="rotate(81.8,1328.6,357.8)" >4900</text>
<line x1='1400.9' y1='379.4' x2='1399.2' y2='359.4' style="stroke-width:4.0;stroke:rgb(0,0,0);stroke-linecap:round;fill:none;" />
<text x="1391.8" y="350.1" font-size="18.2px" font-family="CMUBright-Roman" style="text-anchor:end;fill:rgb(0,0,0);" transform="rotate(84.9,1391.8,350.1)" >4950</text>
<g id="highlighttrack_0">
<path d="M2258.236,737.961 A1075.000,1075.000 40.000 0,1 2260.631,740.351 L2296.009,705.019 A1125.000,1125.000 0.000 0,0 2293.503,702.518 Z" style="stroke-width:4.0;stroke:rgb(0,0,0);stroke-linecap:round;fill:rgb(251,106,74);" />
<path d="M2512.934,1140.013 A1075.000,1075.000 40.000 0,1 2514.061,1143.203 L2561.227,1126.607 A1125.000,1125.000 0.000 0,0 2560.047,1123.270 Z" style="stroke-width:4.0;stroke:rgb(0,0,0);stroke-linecap:round;fill:rgb(251,106,74);" />
<path d="M2515.670,1147.809 A1075.000,1075.000 40.000 0,1 2516.774,1151.007 L2564.065,1134.775 A1125.000,1125.000 0.000 0,0 2562.911,1131.428 Z" style="stroke-width:4.0;stroke:rgb(0,0,0);stroke-linecap:round;fill:rgb(251,106,74);" />
<path d="M645.847,2152.723 A1075.000,1075.000 40.000 0,1 643.797,2150.032 L603.974,2180.266 A1125.000,1125.000 0.000 0,0 606.119,2183.082 Z" style="stroke-width:4.0;stroke:rgb(0,0,0);stroke-linecap:round;fill:rgb(116,196,118);" />
<path d="M505.002,1093.055 A1075.000,1075.000 40.000 0,1 506.287,1089.926 L460.068,1070.853 A1125.000,1125.000 0.000 0,0 458.723,1074.128 Z" style="stroke-width:4.0;stroke:rgb(0,0,0);stroke-linecap:round;fill:rgb(116,196,118);" />
<path d="M1137.987,487.789 A1075.000,1075.000 40.000 0,1 1141.174,486.655 L1124.484,439.522 A1125.000,1125.000 0.000 0,0 1121.149,440.709 Z" style="stroke-width:4.0;stroke:rgb(0,0,0);stroke-linecap:round;fill:rgb(116,196,118);" />
<path d="M1195.691,468.971 A1075.000,1075.000 40.000 0,1 1198.937,468.018 L1184.934,420.019 A1125.000,1125.000 0.000 0,0 1181.538,421.016 Z" style="stroke-width:4.0;stroke:rgb(0,0,0);stroke-linecap:round;fill:rgb(116,196,118);" />
<path d="M1371.368,432.724 A1075.000,1075.000 40.000 0,1 1374.727,432.324 L1368.901,382.665 A1125.000,1125.000 0.000 0,0 1365.385,383.083 Z" style="stroke-width:4.0;stroke:rgb(0,0,0);stroke-linecap:round;fill:rgb(116,196,118);" />
<path d="M1162.692,479.290 A1075.000,1075.000 40.000 0,1 1167.873,477.593 L1152.425,430.039 A1125.000,1125.000 0.000 0,0 1147.003,431.815 Z" style="stroke-width:4.0;stroke:rgb(0,0,0);stroke-linecap:round;fill:rgb(116,196,118);" />
</g>
</g>
<g id="track_0">
<path d="M 2250.654,745.582 A 1064.250,1064.250 0.00 0,1 2253.0,747.9 L 2253.0,747.9 2201.2,799.6 2153.2,847.3 2108.8,891.1 2067.9,931.3 2030.3,968.1 1995.8,1001.5 1964.3,1031.9 1935.7,1059.2 1909.7,1083.7 1886.4,1105.4 1865.5,1124.5 1847.0,1141.0 1830.8,1155.1 1816.8,1166.9 1804.9,1176.3 1795.2,1183.4 1787.4,1188.4 1781.7,1191.1 1778.0,1191.7 1776.2,1190.0 1776.3,1186.2 1778.4,1180.2 1782.4,1172.0 1788.5,1161.5 1796.6,1148.7 1806.7,1133.5 1818.9,1115.9 1833.4,1095.7 1850.1,1072.8 1869.1,1047.3 1890.6,1018.8 1914.6,987.3 1941.4,952.7 1970.8,914.8 2003.3,873.4 2038.8,828.3 2077.5,779.5 2119.6,726.5 2165.3,669.4  A 1064.250,1064.250 0.00 0,0 2162.7,667.3 L 2162.7,667.3 2117.2,724.6 2075.2,777.6 2036.6,826.7 2001.3,871.8 1969.0,913.3 1939.6,951.3 1913.0,986.0 1889.1,1017.6 1867.7,1046.1 1848.7,1071.7 1832.1,1094.6 1817.7,1114.9 1805.5,1132.6 1795.4,1147.8 1787.4,1160.6 1781.4,1171.1 1777.4,1179.4 1775.3,1185.4 1775.2,1189.2 1777.0,1190.8 1780.7,1190.2 1786.5,1187.5 1794.2,1182.5 1803.9,1175.3 1815.7,1165.9 1829.7,1154.1 1845.9,1139.9 1864.3,1123.3 1885.1,1104.2 1908.4,1082.4 1934.3,1057.8 1962.9,1030.4 1994.3,1000.0 2028.6,966.4 2066.1,929.5 2106.9,889.2 2151.1,845.2 2199.0,797.4 2250.7,745.6  Z" style="stroke-width: 2.0;  stroke: rgb(82,82,82); fill: rgb(251,106,74); opacity: 0.667;" />
<path d="M 2502.804,1143.613 A 1064.250,1064.250 0.00 0,1 2503.9,1146.8 L 2503.9,1146.8 2434.7,1170.8 2370.4,1192.3 2310.8,1211.5 2255.6,1228.6 2204.7,1243.5 2157.7,1256.5 2114.4,1267.5 2074.8,1276.7 2038.6,1284.2 2005.6,1290.0 1975.7,1294.1 1948.7,1296.6 1924.6,1297.5 1903.1,1297.0 1884.3,1294.8 1867.9,1291.2 1854.0,1286.0 1842.4,1279.3 1833.2,1271.1 1826.2,1261.2 1821.5,1249.8 1819.0,1236.7 1818.7,1221.8 1820.7,1205.2 1824.9,1186.7 1831.5,1166.3 1840.3,1143.8 1851.6,1119.2 1865.4,1092.3 1881.8,1063.1 1900.8,1031.4 1922.6,997.0 1947.3,959.9 1975.1,919.8 2006.0,876.6 2040.3,830.2 2078.2,780.3 2119.8,726.8 2165.3,669.4  A 1064.250,1064.250 0.00 0,0 2162.7,667.3 L 2162.7,667.3 2117.4,724.8 2075.9,778.5 2038.2,828.5 2004.1,875.0 1973.2,918.3 1945.6,958.5 1921.0,995.7 1899.3,1030.1 1880.4,1061.9 1864.1,1091.2 1850.4,1118.1 1839.2,1142.7 1830.4,1165.2 1823.9,1185.7 1819.8,1204.2 1817.9,1220.8 1818.2,1235.7 1820.7,1248.8 1825.5,1260.2 1832.5,1270.0 1841.7,1278.2 1853.3,1284.9 1867.3,1290.0 1883.6,1293.6 1902.5,1295.7 1923.9,1296.2 1948.1,1295.2 1975.0,1292.6 2004.9,1288.4 2037.9,1282.5 2074.1,1274.9 2113.7,1265.6 2156.9,1254.4 2203.8,1241.3 2254.8,1226.2 2309.9,1209.0 2369.5,1189.6 2433.7,1167.8 2502.8,1143.6  Z" style="stroke-width: 2.0;  stroke: rgb(82,82,82); fill: rgb(116,196,118); opacity: 0.667;" />
<path d="M 2502.804,1143.613 A 1064.250,1064.250 0.00 0,1 2503.9,1146.8 L 2503.9,1146.8 2434.7,1170.8 2370.6,1192.5 2311.2,1212.0 2256.3,1229.4 2205.6,1244.8 2159.0,1258.3 2116.3,1270.0 2077.3,1279.9 2041.7,1288.1 2009.4,1294.7 1980.4,1299.8 1954.3,1303.3 1931.2,1305.3 1910.9,1305.8 1893.2,1304.9 1878.2,1302.5 1865.7,1298.7 1855.7,1293.4 1848.2,1286.7 1843.0,1278.5 1840.2,1268.8 1839.8,1257.5 1841.8,1244.6 1846.1,1230.0 1852.9,1213.7 1862.2,1195.6 1874.0,1175.6 1888.5,1153.7 1905.6,1129.6 1925.5,1103.4 1948.3,1074.9 1974.1,1044.0 2003.2,1010.5 2035.5,974.4 2071.3,935.4 2110.7,893.5 2154.0,848.3 2201.4,799.9 2253.0,747.9  A 1064.250,1064.250 0.00 0,0 2250.7,745.6 L 2250.7,745.6 2199.2,797.7 2152.0,846.3 2108.8,891.5 2069.5,933.6 2033.8,972.7 2001.6,1009.0 1972.7,1042.5 1947.0,1073.5 1924.2,1102.1 1904.4,1128.4 1887.4,1152.4 1873.0,1174.4 1861.3,1194.5 1852.0,1212.6 1845.3,1228.9 1841.0,1243.5 1839.0,1256.4 1839.5,1267.7 1842.3,1277.4 1847.5,1285.6 1855.1,1292.3 1865.1,1297.5 1877.6,1301.3 1892.6,1303.6 1910.3,1304.5 1930.6,1303.9 1953.7,1301.8 1979.7,1298.3 2008.8,1293.1 2041.0,1286.4 2076.6,1278.1 2115.6,1268.1 2158.3,1256.3 2204.8,1242.6 2255.4,1227.1 2310.3,1209.5 2369.6,1189.8 2433.7,1167.9 2502.8,1143.6  Z" style="stroke-width: 2.0;  stroke: rgb(82,82,82); fill: rgb(107,174,214); opacity: 0.667;" />
<path d="M 2505.514,1151.331 A 1064.250,1064.250 0.00 0,1 2506.6,1154.5 L 2506.6,1154.5 2437.2,1177.9 2372.8,1199.0 2313.0,1217.8 2257.7,1234.3 2206.5,1248.9 2159.4,1261.4 2116.1,1272.1 2076.3,1281.0 2040.0,1288.1 2006.9,1293.5 1976.9,1297.4 1949.9,1299.6 1925.6,1300.3 1904.1,1299.5 1885.2,1297.1 1868.8,1293.3 1854.8,1287.9 1843.2,1281.0 1833.9,1272.6 1826.8,1262.6 1822.1,1251.0 1819.5,1237.8 1819.2,1222.8 1821.1,1206.0 1825.3,1187.4 1831.8,1166.9 1840.6,1144.3 1851.9,1119.6 1865.6,1092.7 1881.9,1063.4 1900.9,1031.6 1922.7,997.2 1947.4,960.0 1975.1,919.9 2006.1,876.7 2040.4,830.2 2078.2,780.3 2119.8,726.8 2165.3,669.4  A 1064.250,1064.250 0.00 0,0 2162.7,667.3 L 2162.7,667.3 2117.4,724.8 2076.0,778.5 2038.3,828.5 2004.1,875.1 1973.3,918.4 1945.7,958.6 1921.1,995.9 1899.4,1030.3 1880.5,1062.2 1864.3,1091.5 1850.7,1118.5 1839.5,1143.3 1830.7,1165.9 1824.3,1186.4 1820.2,1205.0 1818.3,1221.8 1818.7,1236.8 1821.3,1250.0 1826.1,1261.6 1833.2,1271.6 1842.5,1279.9 1854.1,1286.8 1868.1,1292.1 1884.5,1295.9 1903.5,1298.2 1925.0,1299.0 1949.2,1298.2 1976.3,1295.9 2006.2,1291.9 2039.3,1286.4 2075.6,1279.1 2115.3,1270.2 2158.7,1259.3 2205.7,1246.6 2256.8,1232.0 2312.1,1215.2 2371.8,1196.2 2436.2,1175.0 2505.5,1151.3  Z" style="stroke-width: 2.0;  stroke: rgb(82,82,82); fill: rgb(253,141,60); opacity: 0.667;" />
<path d="M 2505.514,1151.331 A 1064.250,1064.250 0.00 0,1 2506.6,1154.5 L 2506.6,1154.5 2437.2,1178.0 2372.9,1199.2 2313.3,1218.2 2258.3,1235.2 2207.5,1250.2 2160.8,1263.3 2117.9,1274.6 2078.8,1284.1 2043.1,1292.0 2010.8,1298.3 1981.6,1303.1 1955.5,1306.3 1932.3,1308.0 1911.8,1308.3 1894.1,1307.2 1879.0,1304.6 1866.5,1300.6 1856.4,1295.1 1848.8,1288.3 1843.6,1279.9 1840.7,1270.0 1840.3,1258.6 1842.2,1245.5 1846.5,1230.8 1853.3,1214.4 1862.5,1196.2 1874.3,1176.2 1888.7,1154.1 1905.8,1130.0 1925.7,1103.7 1948.4,1075.2 1974.3,1044.2 2003.2,1010.7 2035.5,974.5 2071.3,935.5 2110.8,893.5 2154.1,848.4 2201.4,799.9 2253.0,747.9  A 1064.250,1064.250 0.00 0,0 2250.7,745.6 L 2250.7,745.6 2199.2,797.7 2152.0,846.3 2108.9,891.6 2069.5,933.7 2033.9,972.8 2001.7,1009.1 1972.8,1042.7 1947.1,1073.8 1924.4,1102.4 1904.6,1128.7 1887.6,1152.9 1873.3,1175.0 1861.6,1195.1 1852.4,1213.3 1845.7,1229.8 1841.4,1244.5 1839.5,1257.5 1840.0,1268.9 1842.9,1278.8 1848.1,1287.2 1855.8,1294.0 1865.9,1299.4 1878.4,1303.4 1893.5,1305.9 1911.2,1307.0 1931.6,1306.7 1954.9,1304.8 1981.0,1301.5 2010.1,1296.7 2042.4,1290.3 2078.1,1282.3 2117.2,1272.6 2160.0,1261.2 2206.7,1248.0 2257.4,1232.8 2312.4,1215.7 2372.0,1196.5 2436.2,1175.1 2505.5,1151.3  Z" style="stroke-width: 2.0;  stroke: rgb(82,82,82); fill: rgb(255,0,0); opacity: 0.667;" />
<path d="M 2505.514,1151.331 A 1064.250,1064.250 0.00 0,1 2506.6,1154.5 L 2506.6,1154.5 2437.4,1178.3 2373.4,1200.2 2314.4,1220.4 2260.2,1239.0 2210.4,1256.0 2165.0,1271.6 2123.7,1285.7 2086.2,1298.5 2052.5,1310.0 2022.4,1320.2 1995.7,1329.3 1972.3,1337.2 1952.0,1344.1 1934.9,1349.9 1920.7,1354.6 1909.4,1358.3 1901.0,1361.1 1895.4,1362.9 1892.6,1363.7 1892.5,1363.5 1895.2,1362.4 1900.7,1360.3 1909.0,1357.2 1920.2,1353.2 1934.3,1348.1 1951.3,1342.0 1971.4,1334.8 1994.7,1326.5 2021.3,1317.0 2051.3,1306.4 2084.9,1294.5 2122.2,1281.3 2163.3,1266.8 2208.6,1250.8 2258.2,1233.3 2312.3,1214.3 2371.1,1193.5 2434.9,1171.1 2503.9,1146.8  A 1064.250,1064.250 0.00 0,0 2502.8,1143.6 L 2502.8,1143.6 2433.8,1168.1 2370.1,1190.8 2311.4,1211.7 2257.3,1230.9 2207.8,1248.6 2162.6,1264.7 2121.5,1279.4 2084.2,1292.7 2050.7,1304.7 2020.7,1315.4 1994.2,1324.9 1970.9,1333.3 1950.8,1340.5 1933.8,1346.7 1919.7,1351.8 1908.6,1355.9 1900.3,1359.0 1894.8,1361.1 1892.1,1362.3 1892.1,1362.4 1895.0,1361.6 1900.6,1359.8 1909.0,1357.1 1920.2,1353.3 1934.4,1348.5 1951.5,1342.7 1971.8,1335.8 1995.2,1327.8 2021.8,1318.6 2051.9,1308.2 2085.6,1296.6 2123.0,1283.7 2164.3,1269.5 2209.7,1253.8 2259.3,1236.6 2313.5,1217.9 2372.4,1197.5 2436.4,1175.3 2505.5,1151.3  Z" style="stroke-width: 2.0;  stroke: rgb(82,82,82); fill: rgb(255,0,204); opacity: 0.667;" />
<path d="M 654.388,2146.196 A 1064.250,1064.250 0.00 0,1 652.4,2143.5 L 652.4,2143.5 710.8,2097.6 765.2,2052.1 816.0,2007.0 863.4,1962.4 907.9,1918.6 949.7,1875.5 989.2,1833.3 1026.6,1792.0 1062.3,1751.7 1096.4,1712.4 1129.4,1674.1 1161.3,1636.8 1192.5,1600.6 1223.2,1565.4 1253.5,1531.1 1283.7,1497.8 1313.8,1465.4 1344.2,1433.7 1374.9,1402.8 1406.0,1372.4 1437.8,1342.5 1470.2,1313.0 1503.4,1283.7 1537.5,1254.4 1572.6,1225.0 1608.6,1195.2 1645.6,1165.0 1683.7,1134.0 1722.8,1102.1 1763.0,1068.9 1804.2,1034.3 1846.5,998.0 1889.7,959.6 1933.8,919.0 1978.8,875.7 2024.6,829.4 2071.0,779.8 2117.9,726.6 2165.3,669.4  A 1064.250,1064.250 0.00 0,0 2162.7,667.3 L 2162.7,667.3 2115.5,724.7 2068.7,778.0 2022.5,827.7 1976.9,874.1 1932.0,917.6 1888.0,958.4 1844.9,996.9 1802.8,1033.4 1761.6,1068.1 1721.5,1101.4 1682.5,1133.4 1644.5,1164.5 1607.6,1194.9 1571.7,1224.7 1536.8,1254.3 1502.8,1283.7 1469.6,1313.1 1437.3,1342.7 1405.6,1372.7 1374.6,1403.2 1344.0,1434.2 1313.7,1466.0 1283.6,1498.5 1253.6,1531.9 1223.4,1566.3 1192.8,1601.6 1161.8,1637.9 1129.9,1675.3 1097.1,1713.7 1063.0,1753.1 1027.5,1793.5 990.2,1834.9 950.9,1877.3 909.2,1920.5 864.9,1964.4 817.6,2009.1 767.0,2054.4 712.7,2100.1 654.4,2146.2  Z" style="stroke-width: 2.0;  stroke: rgb(82,82,82); fill: rgb(255,204,204); opacity: 0.667;" />
<path d="M 654.388,2146.196 A 1064.250,1064.250 0.00 0,1 652.4,2143.5 L 652.4,2143.5 710.9,2097.6 765.4,2051.9 816.4,2006.7 864.2,1961.9 909.1,1917.9 951.4,1874.6 991.5,1832.3 1029.6,1790.9 1066.0,1750.5 1101.0,1711.3 1134.9,1673.1 1167.8,1636.2 1200.1,1600.3 1232.0,1565.7 1263.5,1532.1 1295.1,1499.7 1326.7,1468.3 1358.7,1437.8 1391.0,1408.3 1424.0,1379.6 1457.7,1351.5 1492.2,1324.0 1527.6,1296.9 1564.0,1270.1 1601.6,1243.4 1640.3,1216.6 1680.2,1189.5 1721.3,1161.9 1763.7,1133.5 1807.3,1104.2 1852.3,1073.6 1898.5,1041.5 1945.9,1007.6 1994.5,971.5 2044.3,933.1 2095.1,891.8 2146.9,847.5 2199.5,799.6 2253.0,747.9  A 1064.250,1064.250 0.00 0,0 2250.7,745.6 L 2250.7,745.6 2197.3,797.4 2144.8,845.5 2093.1,890.0 2042.5,931.4 1992.8,970.0 1944.3,1006.2 1897.0,1040.2 1850.9,1072.5 1806.1,1103.2 1762.5,1132.7 1720.2,1161.2 1679.2,1188.9 1639.4,1216.2 1600.8,1243.1 1563.3,1269.9 1527.0,1296.9 1491.6,1324.0 1457.2,1351.6 1423.6,1379.8 1390.8,1408.6 1358.5,1438.3 1326.6,1468.8 1295.1,1500.3 1263.6,1532.9 1232.2,1566.5 1200.4,1601.3 1168.3,1637.2 1135.4,1674.3 1101.7,1712.5 1066.8,1751.9 1030.5,1792.4 992.5,1833.9 952.6,1876.4 910.4,1919.8 865.7,1963.9 818.0,2008.8 767.2,2054.2 712.7,2100.1 654.4,2146.2  Z" style="stroke-width: 2.0;  stroke: rgb(82,82,82); fill: rgb(255,153,0); opacity: 0.667;" />
<path d="M 654.388,2146.196 A 1064.250,1064.250 0.00 0,1 652.4,2143.5 L 652.4,2143.5 712.2,2099.6 770.7,2059.5 827.6,2022.8 883.1,1989.2 937.1,1958.4 989.6,1929.9 1040.6,1903.6 1090.3,1879.0 1138.6,1855.9 1185.5,1834.0 1231.1,1813.1 1275.5,1793.0 1318.8,1773.4 1361.0,1754.1 1402.3,1734.9 1442.7,1715.8 1482.3,1696.5 1521.3,1676.8 1559.8,1656.8 1598.0,1636.3 1635.9,1615.2 1673.7,1593.4 1711.7,1571.0 1749.9,1547.8 1788.6,1523.9 1828.0,1499.3 1868.2,1474.0 1909.4,1448.0 1952.0,1421.4 1996.1,1394.2 2042.0,1366.7 2089.8,1338.8 2140.0,1310.7 2192.6,1282.5 2248.1,1254.4 2306.7,1226.6 2368.6,1199.2 2434.3,1172.6 2503.9,1146.8  A 1064.250,1064.250 0.00 0,0 2502.8,1143.6 L 2502.8,1143.6 2433.2,1169.6 2367.7,1196.5 2305.8,1224.0 2247.3,1252.0 2191.9,1280.3 2139.4,1308.6 2089.3,1336.9 2041.5,1365.0 1995.8,1392.7 1951.8,1419.9 1909.3,1446.7 1868.1,1472.8 1827.9,1498.3 1788.7,1523.0 1750.1,1547.0 1711.9,1570.3 1674.0,1592.9 1636.2,1614.8 1598.4,1636.0 1560.3,1656.6 1521.9,1676.8 1482.9,1696.5 1443.4,1716.0 1403.0,1735.2 1361.8,1754.5 1319.7,1773.9 1276.5,1793.7 1232.1,1814.0 1186.5,1835.0 1139.7,1857.0 1091.5,1880.3 1041.9,1905.0 990.9,1931.6 938.5,1960.2 884.6,1991.2 829.2,2024.9 772.4,2061.8 714.1,2102.1 654.4,2146.2  Z" style="stroke-width: 2.0;  stroke: rgb(82,82,82); fill: rgb(255,204,0); opacity: 0.667;" />
<path d="M 654.388,2146.196 A 1064.250,1064.250 0.00 0,1 652.4,2143.5 L 652.4,2143.5 712.2,2099.6 770.6,2059.5 827.6,2022.8 883.0,1989.3 937.0,1958.5 989.5,1930.0 1040.5,1903.7 1090.1,1879.2 1138.4,1856.1 1185.3,1834.3 1230.9,1813.5 1275.3,1793.4 1318.6,1773.9 1360.8,1754.7 1402.1,1735.6 1442.5,1716.6 1482.2,1697.4 1521.2,1677.9 1559.8,1658.0 1598.0,1637.7 1635.9,1616.7 1673.9,1595.2 1711.9,1572.9 1750.2,1550.0 1789.0,1526.3 1828.5,1501.9 1868.8,1476.8 1910.2,1451.1 1952.9,1424.8 1997.2,1398.0 2043.2,1370.8 2091.2,1343.3 2141.5,1315.6 2194.4,1287.8 2250.0,1260.1 2308.8,1232.8 2370.9,1205.9 2436.8,1179.7 2506.6,1154.5  A 1064.250,1064.250 0.00 0,0 2505.5,1151.3 L 2505.5,1151.3 2435.7,1176.8 2370.0,1203.2 2307.9,1230.2 2249.3,1257.8 2193.7,1285.6 2140.9,1313.5 2090.7,1341.4 2042.8,1369.1 1996.9,1396.5 1952.7,1423.4 1910.1,1449.8 1868.7,1475.7 1828.5,1500.9 1789.1,1525.4 1750.4,1549.2 1712.1,1572.2 1674.2,1594.6 1636.3,1616.3 1598.4,1637.4 1560.3,1657.8 1521.8,1677.8 1482.8,1697.4 1443.2,1716.8 1402.9,1735.9 1361.6,1755.1 1319.5,1774.4 1276.3,1794.1 1231.9,1814.3 1186.3,1835.3 1139.5,1857.2 1091.3,1880.4 1041.8,1905.2 990.8,1931.6 938.4,1960.2 884.6,1991.2 829.2,2024.9 772.4,2061.8 714.1,2102.1 654.4,2146.2  Z" style="stroke-width: 2.0;  stroke: rgb(82,82,82); fill: rgb(255,255,0); opacity: 0.667;" />
<path d="M 514.952,1097.125 A 1064.250,1064.250 0.00 0,1 516.2,1094.0 L 516.2,1094.0 584.7,1121.2 649.8,1145.0 711.5,1165.6 770.2,1183.2 826.1,1198.2 879.2,1210.7 929.9,1220.9 978.3,1229.0 1024.6,1235.2 1069.0,1239.7 1111.6,1242.5 1152.6,1243.7 1192.2,1243.6 1230.5,1242.0 1267.8,1239.3 1304.1,1235.3 1339.6,1230.1 1374.5,1223.7 1408.8,1216.1 1442.8,1207.4 1476.5,1197.4 1510.1,1186.2 1543.7,1173.6 1577.4,1159.5 1611.4,1144.0 1645.7,1126.8 1680.4,1107.8 1715.7,1086.9 1751.7,1063.9 1788.4,1038.6 1825.9,1010.8 1864.4,980.3 1903.8,946.9 1944.3,910.2 1986.0,870.2 2028.9,826.4 2073.0,778.5 2118.5,726.3 2165.3,669.4  A 1064.250,1064.250 0.00 0,0 2162.7,667.3 L 2162.7,667.3 2116.0,724.3 2070.7,776.7 2026.7,824.7 1984.0,868.6 1942.5,908.8 1902.1,945.6 1862.7,979.1 1824.4,1009.8 1786.9,1037.7 1750.3,1063.1 1714.4,1086.2 1679.2,1107.2 1644.5,1126.3 1610.2,1143.6 1576.3,1159.3 1542.6,1173.4 1509.1,1186.1 1475.5,1197.5 1441.8,1207.6 1407.9,1216.4 1373.6,1224.1 1338.8,1230.6 1303.3,1235.9 1267.0,1240.0 1229.7,1242.9 1191.4,1244.5 1151.8,1244.8 1110.8,1243.7 1068.1,1241.0 1023.8,1236.7 977.5,1230.7 929.0,1222.7 878.3,1212.7 825.1,1200.3 769.2,1185.5 710.5,1168.1 648.7,1147.7 583.6,1124.1 515.0,1097.1  Z" style="stroke-width: 2.0;  stroke: rgb(82,82,82); fill: rgb(204,255,0); opacity: 0.667;" />
<path d="M 514.952,1097.125 A 1064.250,1064.250 0.00 0,1 516.2,1094.0 L 516.2,1094.0 584.8,1121.2 650.0,1145.0 712.1,1165.5 771.2,1183.1 827.6,1198.1 881.4,1210.6 932.8,1220.9 982.0,1229.2 1029.1,1235.6 1074.5,1240.3 1118.1,1243.5 1160.3,1245.3 1201.1,1245.7 1240.7,1244.9 1279.3,1243.0 1317.0,1240.0 1354.0,1235.9 1390.5,1230.8 1426.6,1224.7 1462.3,1217.6 1498.0,1209.4 1533.6,1200.1 1569.3,1189.7 1605.3,1178.0 1641.7,1165.0 1678.6,1150.5 1716.1,1134.5 1754.4,1116.7 1793.5,1097.1 1833.6,1075.3 1874.7,1051.3 1916.9,1024.8 1960.5,995.6 2005.3,963.4 2051.7,928.0 2099.5,889.1 2149.0,846.3 2200.1,799.4 2253.0,747.9  A 1064.250,1064.250 0.00 0,0 2250.7,745.6 L 2250.7,745.6 2197.9,797.2 2146.9,844.2 2097.6,887.2 2049.8,926.3 2003.6,961.8 1958.9,994.2 1915.4,1023.5 1873.2,1050.1 1832.2,1074.3 1792.2,1096.1 1753.2,1115.9 1715.0,1133.8 1677.5,1150.0 1640.7,1164.6 1604.3,1177.7 1568.4,1189.5 1532.6,1200.0 1497.0,1209.4 1461.4,1217.7 1425.7,1225.0 1389.7,1231.2 1353.2,1236.4 1316.2,1240.5 1278.5,1243.7 1239.9,1245.7 1200.3,1246.6 1159.5,1246.3 1117.3,1244.7 1073.7,1241.7 1028.3,1237.1 981.1,1230.8 931.9,1222.7 880.5,1212.6 826.6,1200.2 770.2,1185.4 711.1,1168.0 648.9,1147.6 583.6,1124.1 515.0,1097.1  Z" style="stroke-width: 2.0;  stroke: rgb(82,82,82); fill: rgb(0,255,0); opacity: 0.667;" />
<path d="M 514.952,1097.125 A 1064.250,1064.250 0.00 0,1 516.2,1094.0 L 516.2,1094.0 585.1,1121.2 651.1,1144.9 714.4,1165.5 775.2,1183.3 833.6,1198.6 889.7,1211.7 943.8,1222.8 995.9,1232.3 1046.3,1240.2 1095.0,1246.8 1142.2,1252.3 1188.1,1256.9 1232.9,1260.8 1276.6,1263.9 1319.5,1266.6 1361.7,1268.8 1403.3,1270.7 1444.5,1272.3 1485.5,1273.6 1526.5,1274.7 1567.5,1275.5 1608.7,1276.1 1650.4,1276.5 1692.6,1276.5 1735.6,1276.1 1779.4,1275.3 1824.3,1273.8 1870.4,1271.6 1917.9,1268.6 1966.9,1264.6 2017.6,1259.4 2070.1,1252.7 2124.7,1244.5 2181.5,1234.4 2240.6,1222.2 2302.2,1207.7 2366.5,1190.4 2433.7,1170.3 2503.9,1146.8  A 1064.250,1064.250 0.00 0,0 2502.8,1143.6 L 2502.8,1143.6 2432.7,1167.3 2365.6,1187.7 2301.3,1205.1 2239.7,1219.9 2180.6,1232.3 2123.9,1242.5 2069.3,1250.9 2016.8,1257.7 1966.1,1263.1 1917.1,1267.3 1869.7,1270.5 1823.6,1272.8 1778.7,1274.4 1734.9,1275.4 1691.9,1275.9 1649.7,1276.0 1608.0,1275.8 1566.8,1275.3 1525.8,1274.6 1484.8,1273.6 1443.8,1272.4 1402.6,1271.0 1360.9,1269.2 1318.7,1267.2 1275.9,1264.6 1232.1,1261.6 1187.4,1257.9 1141.4,1253.5 1094.2,1248.1 1045.5,1241.6 995.1,1233.8 942.9,1224.6 888.8,1213.7 832.6,1200.7 774.2,1185.6 713.4,1168.0 650.0,1147.6 583.9,1124.1 515.0,1097.1  Z" style="stroke-width: 2.0;  stroke: rgb(82,82,82); fill: rgb(53,128,0); opacity: 0.667;" />
<path d="M 514.952,1097.125 A 1064.250,1064.250 0.00 0,1 516.2,1094.0 L 516.2,1094.0 585.1,1121.2 651.1,1144.9 714.5,1165.5 775.3,1183.4 833.7,1198.7 889.9,1211.8 944.0,1222.9 996.1,1232.3 1046.5,1240.3 1095.3,1247.0 1142.6,1252.5 1188.6,1257.2 1233.4,1261.1 1277.1,1264.4 1320.1,1267.1 1362.3,1269.4 1404.0,1271.4 1445.3,1273.1 1486.3,1274.6 1527.3,1275.8 1568.4,1276.9 1609.7,1277.7 1651.4,1278.2 1693.7,1278.5 1736.8,1278.3 1780.7,1277.7 1825.6,1276.5 1871.8,1274.7 1919.3,1272.0 1968.4,1268.3 2019.2,1263.4 2071.8,1257.2 2126.5,1249.3 2183.4,1239.7 2242.6,1227.9 2304.4,1213.8 2368.9,1197.1 2436.2,1177.4 2506.6,1154.5  A 1064.250,1064.250 0.00 0,0 2505.5,1151.3 L 2505.5,1151.3 2435.2,1174.5 2367.9,1194.4 2303.5,1211.3 2241.8,1225.6 2182.6,1237.5 2125.7,1247.4 2071.1,1255.4 2018.4,1261.8 1967.7,1266.8 1918.6,1270.7 1871.1,1273.5 1824.9,1275.5 1780.0,1276.8 1736.1,1277.6 1693.0,1277.8 1650.7,1277.7 1609.0,1277.3 1567.7,1276.6 1526.6,1275.7 1485.6,1274.6 1444.6,1273.3 1403.3,1271.7 1361.6,1269.9 1319.3,1267.7 1276.4,1265.1 1232.6,1261.9 1187.8,1258.2 1141.8,1253.7 1094.5,1248.2 1045.7,1241.7 995.3,1233.9 943.1,1224.7 889.0,1213.7 832.7,1200.8 774.3,1185.6 713.4,1168.0 650.0,1147.6 583.9,1124.1 515.0,1097.1  Z" style="stroke-width: 2.0;  stroke: rgb(82,82,82); fill: rgb(0,0,204); opacity: 0.667;" />
<path d="M 514.952,1097.125 A 1064.250,1064.250 0.00 0,1 516.2,1094.0 L 516.2,1094.0 583.8,1122.6 646.1,1150.3 703.5,1177.1 756.1,1203.1 804.3,1228.4 848.4,1253.0 888.5,1277.0 924.9,1300.4 957.7,1323.2 987.2,1345.6 1013.6,1367.6 1036.9,1389.3 1057.3,1410.7 1075.0,1431.9 1090.0,1453.0 1102.5,1474.0 1112.5,1495.1 1120.0,1516.3 1125.2,1537.6 1128.0,1559.2 1128.4,1581.2 1126.5,1603.6 1122.3,1626.5 1115.6,1650.0 1106.4,1674.3 1094.7,1699.3 1080.4,1725.2 1063.4,1752.1 1043.6,1780.1 1020.8,1809.3 994.8,1839.8 965.6,1871.7 933.0,1905.1 896.7,1940.1 856.5,1976.8 812.2,2015.4 763.6,2056.0 710.4,2098.7 652.4,2143.5  A 1064.250,1064.250 0.00 0,0 654.4,2146.2 L 654.4,2146.2 712.3,2101.2 765.4,2058.3 813.8,2017.6 858.0,1978.9 898.1,1942.0 934.3,1906.8 966.8,1873.3 995.9,1841.4 1021.7,1810.8 1044.5,1781.5 1064.2,1753.5 1081.2,1726.5 1095.4,1700.6 1107.0,1675.5 1116.0,1651.2 1122.7,1627.7 1126.9,1604.8 1128.7,1582.4 1128.2,1560.4 1125.3,1538.8 1120.1,1517.5 1112.4,1496.3 1102.4,1475.3 1089.9,1454.3 1074.8,1433.3 1057.0,1412.1 1036.5,1390.8 1013.1,1369.2 986.7,1347.2 957.2,1324.9 924.2,1302.2 887.8,1278.9 847.6,1255.1 803.5,1230.6 755.2,1205.5 702.5,1179.6 645.0,1152.9 582.6,1125.5 515.0,1097.1  Z" style="stroke-width: 2.0;  stroke: rgb(82,82,82); fill: rgb(102,153,255); opacity: 0.667;" />
<path d="M 1141.607,497.911 A 1064.250,1064.250 0.00 0,1 1144.8,496.8 L 1144.8,496.8 1169.8,565.7 1194.2,629.4 1218.0,688.0 1241.2,741.9 1263.9,791.3 1286.1,836.5 1307.8,877.7 1329.1,915.1 1350.1,949.0 1370.7,979.5 1391.1,1006.8 1411.3,1031.1 1431.4,1052.4 1451.3,1071.0 1471.3,1086.8 1491.4,1100.1 1511.5,1110.9 1531.9,1119.2 1552.6,1125.1 1573.6,1128.7 1595.1,1129.9 1617.0,1128.7 1639.6,1125.2 1662.9,1119.2 1687.0,1110.8 1712.0,1099.9 1738.0,1086.3 1765.0,1070.0 1793.2,1051.0 1822.8,1029.0 1853.7,1003.8 1886.1,975.5 1920.2,943.7 1956.0,908.3 1993.6,869.1 2033.3,825.9 2075.0,778.3 2119.0,726.2 2165.3,669.4  A 1064.250,1064.250 0.00 0,0 2162.7,667.3 L 2162.7,667.3 2116.6,724.3 2072.7,776.5 2031.1,824.2 1991.6,867.6 1954.1,906.9 1918.4,942.4 1884.5,974.3 1852.1,1002.7 1821.3,1027.9 1791.8,1050.0 1763.6,1069.2 1736.6,1085.6 1710.7,1099.2 1685.8,1110.2 1661.7,1118.7 1638.4,1124.7 1615.9,1128.4 1593.9,1129.6 1572.4,1128.5 1551.4,1125.0 1530.7,1119.1 1510.3,1110.8 1490.1,1100.1 1470.0,1086.9 1450.0,1071.1 1430.0,1052.6 1409.8,1031.3 1389.6,1007.2 1369.1,979.9 1348.3,949.5 1327.3,915.7 1305.9,878.3 1284.0,837.2 1261.7,792.0 1238.9,742.7 1215.5,688.9 1191.5,630.3 1166.9,566.8 1141.6,497.9  Z" style="stroke-width: 2.0;  stroke: rgb(82,82,82); fill: rgb(153,204,255); opacity: 0.667;" />
<path d="M 1141.607,497.911 A 1064.250,1064.250 0.00 0,1 1144.8,496.8 L 1144.8,496.8 1169.9,565.8 1194.5,629.4 1218.6,688.1 1242.2,742.2 1265.4,791.8 1288.2,837.2 1310.7,878.7 1332.8,916.5 1354.6,950.8 1376.2,981.8 1397.7,1009.7 1419.0,1034.6 1440.3,1056.7 1461.5,1076.2 1482.9,1093.0 1504.3,1107.4 1526.0,1119.4 1548.0,1129.1 1570.4,1136.5 1593.2,1141.7 1616.6,1144.6 1640.6,1145.4 1665.3,1143.9 1690.9,1140.2 1717.4,1134.2 1745.0,1125.8 1773.7,1115.0 1803.7,1101.7 1835.1,1085.8 1867.9,1067.1 1902.4,1045.6 1938.7,1021.0 1976.8,993.2 2017.0,962.1 2059.3,927.3 2103.9,888.8 2151.0,846.2 2200.6,799.3 2253.0,747.9  A 1064.250,1064.250 0.00 0,0 2250.7,745.6 L 2250.7,745.6 2198.4,797.1 2148.9,844.2 2102.0,886.9 2057.5,925.6 2015.3,960.4 1975.2,991.7 1937.2,1019.6 1901.0,1044.3 1866.6,1066.0 1833.8,1084.7 1802.4,1100.8 1772.5,1114.2 1743.8,1125.0 1716.3,1133.5 1689.8,1139.6 1664.2,1143.4 1639.5,1144.9 1615.5,1144.3 1592.1,1141.4 1569.2,1136.3 1546.8,1129.0 1524.8,1119.3 1503.1,1107.4 1481.6,1093.1 1460.2,1076.3 1438.9,1056.9 1417.5,1034.9 1396.1,1010.0 1374.6,982.2 1352.9,951.3 1331.0,917.0 1308.7,879.3 1286.2,837.9 1263.2,792.5 1239.9,743.0 1216.0,689.0 1191.8,630.4 1166.9,566.8 1141.6,497.9  Z" style="stroke-width: 2.0;  stroke: rgb(82,82,82); fill: rgb(0,255,255); opacity: 0.667;" />
<path d="M 1141.607,497.911 A 1064.250,1064.250 0.00 0,1 1144.8,496.8 L 1144.8,496.8 1170.1,565.9 1195.5,629.8 1220.8,689.1 1246.0,743.9 1271.2,794.5 1296.2,841.3 1321.2,884.5 1346.2,924.3 1371.0,961.0 1395.9,994.7 1420.9,1025.8 1445.9,1054.4 1471.0,1080.6 1496.3,1104.6 1521.8,1126.6 1547.7,1146.7 1573.9,1165.0 1600.6,1181.5 1628.0,1196.5 1655.9,1209.9 1684.7,1221.7 1714.4,1232.2 1745.1,1241.1 1777.0,1248.6 1810.1,1254.7 1844.7,1259.3 1880.9,1262.4 1918.8,1263.9 1958.6,1263.8 2000.5,1262.0 2044.7,1258.4 2091.4,1252.8 2140.7,1245.1 2192.8,1235.3 2248.0,1223.1 2306.5,1208.3 2368.5,1190.8 2434.2,1170.4 2503.9,1146.8  A 1064.250,1064.250 0.00 0,0 2502.8,1143.6 L 2502.8,1143.6 2433.2,1167.4 2367.5,1188.1 2305.6,1205.8 2247.1,1220.7 2192.0,1233.1 2139.9,1243.1 2090.6,1250.9 2044.0,1256.6 1999.8,1260.4 1957.9,1262.4 1918.0,1262.6 1880.1,1261.2 1843.9,1258.2 1809.3,1253.7 1776.2,1247.8 1744.3,1240.3 1713.6,1231.5 1683.8,1221.2 1655.0,1209.4 1627.0,1196.1 1599.6,1181.2 1572.9,1164.7 1546.5,1146.5 1520.6,1126.6 1495.0,1104.6 1469.6,1080.7 1444.5,1054.6 1419.4,1026.1 1394.4,995.1 1369.4,961.4 1344.3,924.8 1319.3,885.0 1294.2,841.9 1268.9,795.2 1243.6,744.7 1218.2,690.0 1192.8,630.8 1167.2,566.9 1141.6,497.9  Z" style="stroke-width: 2.0;  stroke: rgb(82,82,82); fill: rgb(204,255,255); opacity: 0.667;" />
<path d="M 1141.607,497.911 A 1064.250,1064.250 0.00 0,1 1144.8,496.8 L 1144.8,496.8 1170.2,565.9 1195.5,629.8 1220.8,689.1 1246.1,743.9 1271.2,794.6 1296.3,841.4 1321.4,884.6 1346.4,924.4 1371.3,961.2 1396.2,995.0 1421.2,1026.2 1446.2,1054.8 1471.4,1081.1 1496.8,1105.2 1522.3,1127.3 1548.3,1147.5 1574.6,1165.9 1601.4,1182.6 1628.7,1197.7 1656.8,1211.2 1685.6,1223.3 1715.3,1233.9 1746.1,1243.0 1778.0,1250.8 1811.2,1257.1 1845.9,1261.9 1882.1,1265.3 1920.1,1267.1 1960.0,1267.3 2002.0,1265.8 2046.3,1262.5 2093.1,1257.3 2142.5,1250.0 2194.7,1240.6 2250.1,1228.8 2308.7,1214.5 2370.8,1197.5 2436.7,1177.6 2506.6,1154.5  A 1064.250,1064.250 0.00 0,0 2505.5,1151.3 L 2505.5,1151.3 2435.7,1174.6 2369.9,1194.7 2307.8,1211.9 2249.2,1226.4 2193.9,1238.4 2141.7,1248.0 2092.3,1255.4 2045.6,1260.8 2001.3,1264.2 1959.3,1265.9 1919.4,1265.8 1881.4,1264.1 1845.1,1260.8 1810.5,1256.1 1777.2,1249.9 1745.3,1242.3 1714.5,1233.2 1684.7,1222.7 1655.9,1210.7 1627.8,1197.3 1600.4,1182.3 1573.5,1165.6 1547.1,1147.3 1521.2,1127.2 1495.5,1105.2 1470.1,1081.2 1444.8,1055.0 1419.7,1026.4 1394.6,995.3 1369.6,961.6 1344.5,924.9 1319.4,885.2 1294.3,842.0 1269.0,795.3 1243.7,744.7 1218.3,690.0 1192.8,630.8 1167.2,566.9 1141.6,497.9  Z" style="stroke-width: 2.0;  stroke: rgb(82,82,82); fill: rgb(153,0,204); opacity: 0.667;" />
<path d="M 1141.607,497.911 A 1064.250,1064.250 0.00 0,1 1144.8,496.8 L 1144.8,496.8 1168.4,566.6 1188.8,632.8 1206.2,695.6 1220.9,755.2 1232.9,811.9 1242.7,865.8 1250.3,917.1 1256.0,966.0 1259.9,1012.8 1262.1,1057.5 1262.7,1100.4 1262.0,1141.7 1259.9,1181.6 1256.6,1220.1 1252.1,1257.5 1246.4,1293.9 1239.6,1329.4 1231.8,1364.3 1222.8,1398.6 1212.6,1432.5 1201.3,1466.2 1188.7,1499.6 1174.9,1533.1 1159.6,1566.6 1142.9,1600.3 1124.5,1634.4 1104.4,1668.8 1082.3,1703.7 1058.2,1739.2 1031.8,1775.4 1002.9,1812.4 971.3,1850.2 936.8,1888.9 899.0,1928.6 857.8,1969.3 812.9,2011.1 763.9,2054.0 710.5,2098.2 652.4,2143.5  A 1064.250,1064.250 0.00 0,0 654.4,2146.2 L 654.4,2146.2 712.4,2100.6 765.6,2056.3 814.5,2013.2 859.3,1971.3 900.4,1930.5 938.0,1890.7 972.4,1851.9 1003.9,1814.0 1032.7,1776.9 1059.0,1740.6 1083.0,1705.0 1104.9,1670.0 1124.9,1635.6 1143.2,1601.5 1159.9,1567.7 1175.0,1534.1 1188.7,1500.6 1201.2,1467.1 1212.4,1433.4 1222.4,1399.5 1231.3,1365.1 1239.1,1330.2 1245.8,1294.7 1251.3,1258.3 1255.7,1220.9 1258.9,1182.3 1260.9,1142.5 1261.5,1101.2 1260.7,1058.3 1258.3,1013.5 1254.3,966.8 1248.5,917.9 1240.7,866.6 1230.8,812.7 1218.5,756.1 1203.7,696.6 1186.1,633.8 1165.5,567.7 1141.6,497.9  Z" style="stroke-width: 2.0;  stroke: rgb(82,82,82); fill: rgb(204,51,255); opacity: 0.667;" />
<path d="M 1141.607,497.911 A 1064.250,1064.250 0.00 0,1 1144.8,496.8 L 1144.8,496.8 1168.8,566.1 1190.0,630.6 1208.8,690.8 1225.1,746.7 1239.1,798.7 1251.0,846.9 1260.7,891.5 1268.5,932.9 1274.3,971.0 1278.3,1006.2 1280.6,1038.5 1281.1,1068.2 1279.9,1095.3 1277.0,1120.0 1272.5,1142.4 1266.3,1162.7 1258.5,1180.8 1249.0,1196.9 1237.8,1211.1 1224.9,1223.4 1210.1,1233.9 1193.5,1242.5 1175.0,1249.4 1154.5,1254.6 1131.9,1257.9 1107.1,1259.5 1079.9,1259.3 1050.3,1257.3 1018.1,1253.4 983.2,1247.6 945.4,1239.8 904.5,1230.0 860.4,1217.9 812.9,1203.7 761.7,1187.0 706.7,1167.9 647.6,1146.1 584.2,1121.5 516.2,1094.0  A 1064.250,1064.250 0.00 0,0 515.0,1097.1 L 515.0,1097.1 583.0,1124.4 646.5,1148.8 705.7,1170.4 760.7,1189.3 812.0,1205.8 859.6,1220.0 903.7,1231.8 944.6,1241.6 982.4,1249.3 1017.4,1255.0 1049.6,1258.7 1079.2,1260.7 1106.3,1260.8 1131.1,1259.1 1153.7,1255.6 1174.2,1250.5 1192.7,1243.5 1209.3,1234.8 1224.0,1224.3 1236.9,1211.9 1248.1,1197.7 1257.5,1181.6 1265.3,1163.4 1271.4,1143.2 1275.8,1120.7 1278.6,1096.0 1279.7,1068.9 1279.1,1039.2 1276.8,1006.9 1272.7,971.7 1266.7,933.6 1258.8,892.3 1248.9,847.7 1236.9,799.5 1222.7,747.6 1206.2,691.7 1187.3,631.6 1165.8,567.1 1141.6,497.9  Z" style="stroke-width: 2.0;  stroke: rgb(82,82,82); fill: rgb(204,153,255); opacity: 0.667;" />
<path d="M 1198.734,479.281 A 1064.250,1064.250 0.00 0,1 1201.9,478.3 L 1201.9,478.3 1223.0,548.6 1243.7,613.5 1264.0,673.3 1283.9,728.3 1303.5,778.9 1322.8,825.1 1341.8,867.3 1360.5,905.7 1379.1,940.5 1397.5,971.9 1415.7,1000.0 1434.0,1025.0 1452.2,1047.0 1470.4,1066.2 1488.8,1082.7 1507.3,1096.6 1526.0,1107.9 1545.0,1116.7 1564.4,1123.0 1584.3,1126.9 1604.6,1128.5 1625.6,1127.6 1647.2,1124.3 1669.6,1118.6 1692.9,1110.4 1717.1,1099.6 1742.3,1086.1 1768.7,1070.0 1796.3,1051.0 1825.3,1029.0 1855.7,1003.9 1887.7,975.6 1921.3,943.8 1956.8,908.4 1994.2,869.2 2033.6,825.9 2075.2,778.3 2119.0,726.3 2165.3,669.4  A 1064.250,1064.250 0.00 0,0 2162.7,667.3 L 2162.7,667.3 2116.6,724.3 2072.9,776.5 2031.4,824.2 1992.2,867.6 1954.9,907.0 1919.6,942.5 1886.0,974.4 1854.1,1002.8 1823.8,1028.0 1794.9,1050.0 1767.3,1069.1 1741.0,1085.4 1715.8,1098.9 1691.6,1109.7 1668.4,1118.1 1646.0,1123.9 1624.4,1127.2 1603.5,1128.1 1583.1,1126.7 1563.3,1122.8 1543.8,1116.5 1524.8,1107.8 1506.0,1096.5 1487.4,1082.8 1469.0,1066.3 1450.7,1047.2 1432.5,1025.2 1414.2,1000.3 1395.8,972.2 1377.3,940.9 1358.6,906.2 1339.8,867.8 1320.7,825.7 1301.2,779.5 1281.5,729.0 1261.4,674.0 1240.9,614.3 1220.0,549.5 1198.7,479.3  Z" style="stroke-width: 2.0;  stroke: rgb(82,82,82); fill: rgb(102,102,102); opacity: 0.667;" />
<path d="M 1198.734,479.281 A 1064.250,1064.250 0.00 0,1 1201.9,478.3 L 1201.9,478.3 1223.1,548.6 1244.0,613.5 1264.6,673.5 1284.9,728.6 1305.0,779.4 1324.9,825.9 1344.6,868.4 1364.2,907.2 1383.6,942.4 1403.0,974.3 1422.3,1003.0 1441.6,1028.7 1461.0,1051.5 1480.5,1071.6 1500.2,1089.1 1520.2,1104.1 1540.5,1116.6 1561.1,1126.7 1582.2,1134.6 1603.8,1140.1 1626.1,1143.4 1649.1,1144.5 1672.9,1143.2 1697.6,1139.7 1723.3,1133.9 1750.0,1125.7 1778.0,1115.0 1807.4,1101.8 1838.1,1085.9 1870.4,1067.3 1904.4,1045.7 1940.2,1021.2 1978.0,993.4 2017.8,962.2 2059.8,927.4 2104.2,888.8 2151.1,846.2 2200.7,799.4 2253.0,747.9  A 1064.250,1064.250 0.00 0,0 2250.7,745.6 L 2250.7,745.6 2198.4,797.2 2149.0,844.2 2102.3,886.9 2058.0,925.6 2016.1,960.6 1976.4,991.9 1938.7,1019.8 1903.0,1044.5 1869.1,1066.1 1836.8,1084.8 1806.1,1100.8 1776.8,1114.1 1748.9,1124.9 1722.1,1133.2 1696.4,1139.1 1671.8,1142.7 1648.0,1144.0 1625.0,1143.0 1602.7,1139.8 1581.1,1134.3 1559.9,1126.5 1539.2,1116.5 1518.9,1104.0 1499.0,1089.1 1479.2,1071.7 1459.6,1051.7 1440.1,1028.9 1420.7,1003.2 1401.3,974.6 1381.9,942.8 1362.3,907.6 1342.6,868.9 1322.8,826.4 1302.8,780.0 1282.5,729.3 1262.0,674.2 1241.2,614.4 1220.1,549.5 1198.7,479.3  Z" style="stroke-width: 2.0;  stroke: rgb(82,82,82); fill: rgb(153,153,153); opacity: 0.667;" />
<path d="M 1198.734,479.281 A 1064.250,1064.250 0.00 0,1 1201.9,478.3 L 1201.9,478.3 1223.4,548.7 1245.0,614.0 1266.8,674.5 1288.7,730.5 1310.7,782.3 1332.8,830.2 1355.1,874.4 1377.4,915.3 1399.9,952.9 1422.5,987.6 1445.3,1019.6 1468.3,1049.0 1491.5,1075.9 1515.1,1100.7 1539.0,1123.3 1563.3,1144.0 1588.1,1162.8 1613.5,1179.9 1639.5,1195.2 1666.3,1209.0 1694.0,1221.2 1722.7,1231.9 1752.4,1241.1 1783.4,1248.8 1815.7,1255.0 1849.5,1259.7 1885.0,1262.9 1922.3,1264.5 1961.5,1264.4 2002.9,1262.5 2046.6,1258.8 2092.8,1253.2 2141.7,1245.5 2193.6,1235.5 2248.5,1223.2 2306.8,1208.4 2368.6,1190.9 2434.3,1170.4 2503.9,1146.8  A 1064.250,1064.250 0.00 0,0 2502.8,1143.6 L 2502.8,1143.6 2433.2,1167.4 2367.6,1188.1 2305.9,1205.9 2247.6,1220.9 2192.7,1233.4 2140.9,1243.4 2092.0,1251.3 2045.9,1257.1 2002.2,1260.9 1960.8,1262.9 1921.5,1263.1 1884.3,1261.7 1848.8,1258.6 1814.9,1254.0 1782.6,1247.9 1751.6,1240.3 1721.8,1231.2 1693.1,1220.6 1665.4,1208.5 1638.6,1194.8 1612.5,1179.5 1587.0,1162.5 1562.2,1143.8 1537.8,1123.2 1513.8,1100.6 1490.2,1076.0 1466.9,1049.1 1443.8,1019.8 1420.9,987.9 1398.2,953.2 1375.6,915.6 1353.1,874.9 1330.7,830.7 1308.4,782.9 1286.2,731.1 1264.2,675.2 1242.2,614.8 1220.4,549.6 1198.7,479.3  Z" style="stroke-width: 2.0;  stroke: rgb(82,82,82); fill: rgb(204,204,204); opacity: 0.667;" />
<path d="M 1198.734,479.281 A 1064.250,1064.250 0.00 0,1 1201.9,478.3 L 1201.9,478.3 1223.4,548.7 1245.0,614.0 1266.8,674.5 1288.7,730.5 1310.8,782.3 1333.0,830.3 1355.2,874.5 1377.6,915.4 1400.1,953.1 1422.8,987.9 1445.6,1019.9 1468.7,1049.4 1492.0,1076.4 1515.6,1101.3 1539.5,1124.0 1563.9,1144.8 1588.7,1163.7 1614.2,1180.9 1640.3,1196.4 1667.1,1210.4 1694.9,1222.8 1723.6,1233.6 1753.4,1243.0 1784.4,1251.0 1816.8,1257.4 1850.7,1262.4 1886.3,1265.8 1923.6,1267.6 1962.9,1267.8 2004.4,1266.3 2048.2,1263.0 2094.5,1257.7 2143.5,1250.4 2195.5,1240.8 2250.6,1229.0 2309.0,1214.6 2371.0,1197.5 2436.8,1177.6 2506.6,1154.5  A 1064.250,1064.250 0.00 0,0 2505.5,1151.3 L 2505.5,1151.3 2435.7,1174.6 2370.0,1194.8 2308.1,1212.1 2249.7,1226.6 2194.7,1238.6 2142.7,1248.3 2093.7,1255.8 2047.4,1261.2 2003.7,1264.7 1962.2,1266.4 1922.9,1266.3 1885.5,1264.6 1850.0,1261.3 1816.1,1256.4 1783.6,1250.1 1752.6,1242.2 1722.8,1232.9 1694.0,1222.1 1666.2,1209.8 1639.3,1196.0 1613.2,1180.6 1587.7,1163.5 1562.7,1144.6 1538.3,1123.9 1514.3,1101.2 1490.6,1076.5 1467.3,1049.5 1444.1,1020.1 1421.2,988.1 1398.4,953.5 1375.8,915.8 1353.3,875.0 1330.8,830.8 1308.5,782.9 1286.3,731.2 1264.2,675.2 1242.2,614.8 1220.4,549.6 1198.7,479.3  Z" style="stroke-width: 2.0;  stroke: rgb(82,82,82); fill: rgb(204,204,153); opacity: 0.667;" />
<path d="M 1198.734,479.281 A 1064.250,1064.250 0.00 0,1 1201.9,478.3 L 1201.9,478.3 1221.6,549.4 1238.2,616.8 1252.0,680.6 1263.2,741.2 1272.1,798.7 1278.8,853.3 1283.5,905.4 1286.4,954.9 1287.7,1002.3 1287.4,1047.6 1285.8,1091.1 1282.9,1132.9 1278.9,1173.1 1273.7,1212.1 1267.4,1249.9 1260.1,1286.7 1251.8,1322.7 1242.6,1357.9 1232.3,1392.6 1221.0,1426.9 1208.6,1460.9 1195.0,1494.8 1180.3,1528.6 1164.2,1562.5 1146.8,1596.6 1127.7,1631.0 1107.0,1665.8 1084.5,1701.1 1059.9,1737.0 1033.1,1773.5 1003.9,1810.8 972.1,1848.9 937.3,1887.9 899.4,1927.9 858.1,1968.8 813.0,2010.8 763.9,2053.9 710.5,2098.1 652.4,2143.5  A 1064.250,1064.250 0.00 0,0 654.4,2146.2 L 654.4,2146.2 712.4,2100.6 765.7,2056.2 814.6,2013.0 859.5,1970.8 900.7,1929.8 938.5,1889.7 973.2,1850.6 1004.9,1812.4 1034.0,1775.0 1060.7,1738.4 1085.1,1702.4 1107.6,1667.1 1128.2,1632.2 1147.1,1597.7 1164.4,1563.6 1180.4,1529.6 1195.0,1495.7 1208.4,1461.8 1220.7,1427.8 1231.9,1393.5 1242.1,1358.7 1251.3,1323.4 1259.5,1287.5 1266.6,1250.6 1272.8,1212.8 1277.8,1173.8 1281.8,1133.5 1284.6,1091.7 1286.0,1048.3 1286.1,1003.0 1284.7,955.6 1281.6,906.0 1276.7,854.0 1269.9,799.4 1260.8,741.9 1249.4,681.4 1235.5,617.6 1218.6,550.3 1198.7,479.3  Z" style="stroke-width: 2.0;  stroke: rgb(82,82,82); fill: rgb(251,106,74); opacity: 0.667;" />
<path d="M 1198.734,479.281 A 1064.250,1064.250 0.00 0,1 1201.9,478.3 L 1201.9,478.3 1222.0,548.9 1239.5,614.6 1254.7,675.8 1267.7,732.8 1278.5,785.7 1287.4,834.7 1294.4,880.2 1299.5,922.2 1302.9,961.0 1304.6,996.8 1304.7,1029.8 1303.1,1060.0 1300.0,1087.6 1295.4,1112.8 1289.2,1135.7 1281.4,1156.4 1272.2,1174.9 1261.3,1191.5 1248.8,1206.1 1234.7,1218.7 1218.9,1229.6 1201.3,1238.6 1181.8,1245.8 1160.4,1251.3 1137.0,1255.0 1111.5,1256.9 1083.6,1257.0 1053.4,1255.3 1020.7,1251.7 985.3,1246.2 947.1,1238.7 905.8,1229.0 861.4,1217.2 813.5,1203.2 762.1,1186.7 706.9,1167.7 647.7,1146.0 584.2,1121.5 516.2,1094.0  A 1064.250,1064.250 0.00 0,0 515.0,1097.1 L 515.0,1097.1 583.0,1124.4 646.6,1148.7 705.9,1170.2 761.2,1189.0 812.6,1205.3 860.5,1219.2 905.0,1230.9 946.2,1240.4 984.5,1247.8 1019.9,1253.2 1052.7,1256.7 1082.9,1258.3 1110.7,1258.1 1136.3,1256.1 1159.7,1252.4 1181.0,1246.8 1200.5,1239.5 1218.0,1230.5 1233.8,1219.6 1247.9,1206.8 1260.3,1192.2 1271.1,1175.7 1280.4,1157.1 1288.0,1136.4 1294.1,1113.5 1298.7,1088.2 1301.7,1060.6 1303.2,1030.4 1303.0,997.5 1301.2,961.7 1297.7,922.8 1292.4,880.8 1285.3,835.4 1276.3,786.4 1265.3,733.5 1252.1,676.6 1236.7,615.5 1219.0,549.8 1198.7,479.3  Z" style="stroke-width: 2.0;  stroke: rgb(82,82,82); fill: rgb(116,196,118); opacity: 0.667;" />
<path d="M 1198.734,479.281 A 1064.250,1064.250 0.00 0,1 1201.9,478.3 L 1201.9,478.3 1222.4,548.6 1241.3,613.6 1258.6,673.5 1274.4,728.6 1288.8,779.1 1301.9,825.3 1313.8,867.4 1324.4,905.5 1333.9,939.8 1342.3,970.6 1349.6,997.8 1355.8,1021.8 1361.1,1042.5 1365.4,1060.2 1368.7,1074.8 1371.2,1086.5 1372.7,1095.3 1373.3,1101.2 1373.0,1104.4 1371.8,1104.8 1369.8,1102.4 1366.8,1097.2 1362.9,1089.2 1358.0,1078.3 1352.2,1064.4 1345.4,1047.6 1337.5,1027.7 1328.6,1004.6 1318.6,978.2 1307.4,948.4 1295.0,915.0 1281.4,877.8 1266.4,836.8 1250.1,791.7 1232.2,742.2 1212.9,688.2 1191.9,629.5 1169.2,565.8 1144.8,496.8  A 1064.250,1064.250 0.00 0,0 1141.6,497.9 L 1141.6,497.9 1166.3,566.8 1189.2,630.5 1210.3,689.1 1229.9,743.0 1247.8,792.4 1264.3,837.5 1279.4,878.5 1293.2,915.6 1305.7,949.0 1316.9,978.8 1327.0,1005.1 1336.0,1028.2 1343.9,1048.1 1350.8,1064.9 1356.7,1078.7 1361.6,1089.6 1365.5,1097.6 1368.5,1102.8 1370.6,1105.2 1371.8,1104.8 1372.0,1101.6 1371.4,1095.7 1369.9,1086.9 1367.4,1075.2 1364.0,1060.6 1359.6,1043.0 1354.3,1022.2 1348.0,998.3 1340.6,971.1 1332.1,940.4 1322.6,906.1 1311.8,868.0 1299.8,826.0 1286.6,779.8 1272.0,729.3 1256.0,674.3 1238.5,614.4 1219.4,549.5 1198.7,479.3  Z" style="stroke-width: 2.0;  stroke: rgb(82,82,82); fill: rgb(107,174,214); opacity: 0.667;" />
<path d="M 1372.654,443.396 A 1064.250,1064.250 0.00 0,1 1376.0,443.0 L 1376.0,443.0 1385.0,515.7 1394.3,583.1 1403.9,645.2 1413.8,702.6 1423.9,755.3 1434.3,803.7 1445.0,847.9 1455.9,888.2 1467.1,924.9 1478.6,957.9 1490.4,987.7 1502.6,1014.2 1515.1,1037.7 1528.1,1058.2 1541.4,1075.9 1555.3,1090.9 1569.6,1103.2 1584.6,1113.0 1600.1,1120.1 1616.4,1124.8 1633.4,1127.0 1651.2,1126.6 1669.9,1123.8 1689.6,1118.4 1710.3,1110.5 1732.2,1099.9 1755.2,1086.7 1779.6,1070.6 1805.4,1051.7 1832.7,1029.7 1861.6,1004.6 1892.3,976.2 1924.7,944.3 1959.2,908.8 1995.7,869.5 2034.5,826.1 2075.6,778.4 2119.1,726.3 2165.3,669.4  A 1064.250,1064.250 0.00 0,0 2162.7,667.3 L 2162.7,667.3 2116.7,724.3 2073.3,776.6 2032.3,824.4 1993.7,867.9 1957.3,907.3 1923.0,943.0 1890.6,974.9 1860.0,1003.4 1831.2,1028.6 1804.0,1050.7 1778.3,1069.7 1753.9,1085.9 1730.9,1099.2 1709.1,1109.8 1688.4,1117.8 1668.7,1123.3 1650.0,1126.2 1632.2,1126.5 1615.2,1124.4 1598.9,1119.8 1583.4,1112.7 1568.4,1103.0 1554.0,1090.7 1540.1,1075.8 1526.7,1058.2 1513.7,1037.7 1501.1,1014.2 1488.8,987.7 1476.9,958.0 1465.3,925.0 1454.0,888.4 1442.9,848.1 1432.1,803.9 1421.6,755.5 1411.3,702.8 1401.2,645.6 1391.4,583.4 1381.9,516.1 1372.7,443.4  Z" style="stroke-width: 2.0;  stroke: rgb(82,82,82); fill: rgb(253,141,60); opacity: 0.667;" />
<path d="M 1372.654,443.396 A 1064.250,1064.250 0.00 0,1 1376.0,443.0 L 1376.0,443.0 1385.1,515.8 1394.6,583.2 1404.5,645.5 1414.8,702.9 1425.4,755.9 1436.4,804.5 1447.8,849.1 1459.5,889.9 1471.6,927.0 1484.0,960.7 1496.9,991.0 1510.2,1018.3 1523.9,1042.6 1538.1,1064.1 1552.8,1082.8 1568.0,1098.9 1583.9,1112.5 1600.5,1123.6 1617.8,1132.2 1635.8,1138.5 1654.7,1142.4 1674.6,1144.0 1695.5,1143.2 1717.4,1140.1 1740.6,1134.5 1765.0,1126.5 1790.9,1115.9 1818.2,1102.8 1847.1,1086.9 1877.8,1068.2 1910.3,1046.6 1944.8,1021.9 1981.3,994.0 2020.1,962.7 2061.3,927.8 2105.1,889.0 2151.5,846.3 2200.8,799.4 2253.0,747.9  A 1064.250,1064.250 0.00 0,0 2250.7,745.6 L 2250.7,745.6 2198.5,797.2 2149.4,844.3 2103.1,887.1 2059.5,926.0 2018.4,961.0 1979.7,992.5 1943.2,1020.5 1908.9,1045.3 1876.4,1067.0 1845.8,1085.8 1816.9,1101.8 1789.7,1115.0 1763.9,1125.6 1739.4,1133.7 1716.3,1139.4 1694.3,1142.6 1673.5,1143.4 1653.6,1141.9 1634.7,1138.1 1616.6,1131.9 1599.3,1123.2 1582.7,1112.2 1566.8,1098.7 1551.5,1082.6 1536.7,1064.0 1522.4,1042.5 1508.6,1018.3 1495.3,991.1 1482.3,960.7 1469.8,927.1 1457.6,890.0 1445.7,849.3 1434.2,804.7 1423.1,756.1 1412.3,703.2 1401.8,645.8 1391.7,583.5 1382.0,516.1 1372.7,443.4  Z" style="stroke-width: 2.0;  stroke: rgb(82,82,82); fill: rgb(255,0,0); opacity: 0.667;" />
<path d="M 1372.654,443.396 A 1064.250,1064.250 0.00 0,1 1376.0,443.0 L 1376.0,443.0 1385.3,515.9 1395.5,583.7 1406.6,646.6 1418.4,705.0 1430.9,759.2 1444.1,809.4 1457.9,855.9 1472.4,898.9 1487.4,938.6 1503.1,975.2 1519.3,1009.0 1536.2,1040.1 1553.7,1068.7 1571.8,1094.9 1590.7,1118.9 1610.3,1140.8 1630.7,1160.7 1652.0,1178.7 1674.2,1195.0 1697.4,1209.5 1721.8,1222.3 1747.3,1233.5 1774.2,1243.0 1802.5,1251.0 1832.3,1257.4 1863.8,1262.2 1897.2,1265.3 1932.5,1266.8 1970.0,1266.6 2009.8,1264.5 2052.1,1260.6 2097.1,1254.7 2144.9,1246.7 2195.8,1236.4 2249.9,1223.9 2307.6,1208.8 2369.0,1191.0 2434.3,1170.4 2503.9,1146.8  A 1064.250,1064.250 0.00 0,0 2502.8,1143.6 L 2502.8,1143.6 2433.3,1167.5 2368.0,1188.3 2306.7,1206.3 2249.1,1221.5 2194.9,1234.3 2144.1,1244.6 2096.3,1252.8 2051.3,1258.8 2009.1,1262.9 1969.3,1265.1 1931.8,1265.5 1896.5,1264.1 1863.1,1261.0 1831.5,1256.4 1801.7,1250.1 1773.4,1242.2 1746.5,1232.7 1720.9,1221.6 1696.5,1208.8 1673.2,1194.4 1651.0,1178.3 1629.6,1160.3 1609.2,1140.4 1589.5,1118.6 1570.6,1094.7 1552.3,1068.5 1534.7,1040.0 1517.8,1008.9 1501.4,975.2 1485.6,938.6 1470.5,898.9 1455.9,856.0 1441.9,809.6 1428.6,759.4 1415.9,705.3 1403.9,646.9 1392.7,584.0 1382.2,516.3 1372.7,443.4  Z" style="stroke-width: 2.0;  stroke: rgb(82,82,82); fill: rgb(255,0,204); opacity: 0.667;" />
<path d="M 1372.654,443.396 A 1064.250,1064.250 0.00 0,1 1376.0,443.0 L 1376.0,443.0 1385.3,515.9 1395.5,583.7 1406.6,646.6 1418.4,705.1 1431.0,759.3 1444.2,809.5 1458.1,856.0 1472.6,899.0 1487.7,938.8 1503.3,975.5 1519.6,1009.3 1536.6,1040.5 1554.1,1069.2 1572.3,1095.5 1591.2,1119.6 1610.9,1141.6 1631.3,1161.7 1652.7,1179.8 1674.9,1196.2 1698.2,1210.9 1722.6,1223.8 1748.2,1235.2 1775.1,1245.0 1803.5,1253.2 1833.4,1259.8 1865.0,1264.8 1898.4,1268.2 1933.9,1270.0 1971.4,1270.1 2011.3,1268.3 2053.7,1264.7 2098.7,1259.2 2146.7,1251.6 2197.7,1241.8 2252.0,1229.6 2309.8,1215.0 2371.3,1197.7 2436.8,1177.6 2506.6,1154.5  A 1064.250,1064.250 0.00 0,0 2505.5,1151.3 L 2505.5,1151.3 2435.8,1174.7 2370.4,1195.0 2308.9,1212.4 2251.1,1227.2 2196.9,1239.6 2145.9,1249.5 2098.0,1257.3 2052.9,1263.0 2010.6,1266.7 1970.7,1268.6 1933.1,1268.6 1897.7,1267.0 1864.3,1263.7 1832.6,1258.8 1802.7,1252.2 1774.3,1244.1 1747.4,1234.4 1721.7,1223.1 1697.3,1210.2 1674.0,1195.7 1651.7,1179.3 1630.3,1161.2 1609.8,1141.3 1590.0,1119.3 1571.0,1095.3 1552.7,1069.0 1535.1,1040.4 1518.1,1009.3 1501.7,975.5 1485.9,938.8 1470.7,899.1 1456.0,856.1 1442.0,809.7 1428.6,759.5 1415.9,705.3 1403.9,646.9 1392.7,584.0 1382.2,516.3 1372.7,443.4  Z" style="stroke-width: 2.0;  stroke: rgb(82,82,82); fill: rgb(255,204,204); opacity: 0.667;" />
<path d="M 1372.654,443.396 A 1064.250,1064.250 0.00 0,1 1376.0,443.0 L 1376.0,443.0 1383.5,516.5 1388.6,585.9 1391.4,651.6 1392.2,713.8 1391.2,772.7 1388.6,828.7 1384.5,881.8 1379.1,932.4 1372.6,980.7 1365.0,1026.8 1356.4,1071.0 1347.1,1113.5 1336.9,1154.5 1326.0,1194.1 1314.5,1232.5 1302.3,1270.0 1289.4,1306.6 1275.9,1342.5 1261.7,1377.9 1246.8,1413.0 1231.2,1447.7 1214.6,1482.4 1197.1,1517.0 1178.6,1551.8 1158.9,1586.8 1137.9,1622.1 1115.4,1657.8 1091.3,1694.0 1065.4,1730.8 1037.4,1768.3 1007.2,1806.5 974.5,1845.4 939.0,1885.2 900.5,1925.9 858.8,1967.5 813.4,2010.0 764.1,2053.5 710.5,2098.0 652.4,2143.5  A 1064.250,1064.250 0.00 0,0 654.4,2146.2 L 654.4,2146.2 712.4,2100.5 765.8,2055.8 815.0,2012.2 860.2,1969.5 901.9,1927.8 940.2,1887.0 975.6,1847.1 1008.2,1808.0 1038.3,1769.7 1066.1,1732.2 1091.9,1695.3 1115.9,1659.0 1138.3,1623.2 1159.2,1587.8 1178.8,1552.8 1197.2,1518.0 1214.6,1483.3 1231.0,1448.6 1246.6,1413.7 1261.4,1378.7 1275.4,1343.2 1288.8,1307.3 1301.5,1270.6 1313.6,1233.1 1325.1,1194.6 1335.8,1155.0 1345.8,1114.0 1355.1,1071.5 1363.5,1027.2 1370.9,981.1 1377.3,932.8 1382.6,882.2 1386.5,829.0 1388.9,773.1 1389.8,714.1 1388.8,652.0 1385.7,586.3 1380.4,516.8 1372.7,443.4  Z" style="stroke-width: 2.0;  stroke: rgb(82,82,82); fill: rgb(255,153,0); opacity: 0.667;" />
<path d="M 1372.654,443.396 A 1064.250,1064.250 0.00 0,1 1376.0,443.0 L 1376.0,443.0 1383.9,516.0 1390.0,583.9 1394.4,647.1 1397.2,705.8 1398.5,760.3 1398.4,810.9 1396.9,857.7 1394.0,901.0 1389.9,940.9 1384.6,977.8 1378.0,1011.7 1370.3,1042.8 1361.4,1071.3 1351.3,1097.4 1340.0,1121.0 1327.5,1142.5 1313.8,1161.8 1298.8,1179.1 1282.5,1194.4 1264.8,1207.8 1245.6,1219.3 1225.0,1229.1 1202.6,1237.1 1178.6,1243.3 1152.8,1247.7 1125.0,1250.3 1095.1,1251.2 1063.0,1250.2 1028.6,1247.3 991.7,1242.4 952.1,1235.6 909.7,1226.6 864.2,1215.3 815.5,1201.8 763.4,1185.8 707.7,1167.1 648.0,1145.7 584.3,1121.4 516.2,1094.0  A 1064.250,1064.250 0.00 0,0 515.0,1097.1 L 515.0,1097.1 583.1,1124.3 646.9,1148.4 706.6,1169.6 762.4,1188.1 814.6,1203.9 863.3,1217.3 908.8,1228.4 951.3,1237.3 990.9,1244.0 1027.8,1248.8 1062.3,1251.6 1094.3,1252.5 1124.2,1251.5 1152.0,1248.8 1177.8,1244.3 1201.8,1238.0 1224.1,1230.0 1244.8,1220.1 1263.9,1208.5 1281.5,1195.1 1297.8,1179.7 1312.8,1162.4 1326.4,1143.0 1338.8,1121.5 1350.0,1097.8 1360.0,1071.8 1368.9,1043.2 1376.5,1012.1 1382.9,978.1 1388.2,941.3 1392.1,901.3 1394.8,858.0 1396.2,811.2 1396.2,760.6 1394.8,706.1 1391.8,647.4 1387.1,584.2 1380.8,516.3 1372.7,443.4  Z" style="stroke-width: 2.0;  stroke: rgb(82,82,82); fill: rgb(255,204,0); opacity: 0.667;" />
<path d="M 1372.654,443.396 A 1064.250,1064.250 0.00 0,1 1376.0,443.0 L 1376.0,443.0 1384.4,515.7 1391.9,583.0 1398.5,645.0 1404.2,702.1 1409.2,754.6 1413.5,802.5 1417.0,846.2 1419.8,885.8 1421.9,921.6 1423.4,953.7 1424.2,982.2 1424.4,1007.3 1424.0,1029.2 1423.0,1047.9 1421.3,1063.5 1419.1,1076.1 1416.2,1085.7 1412.7,1092.5 1408.6,1096.5 1403.9,1097.6 1398.4,1095.9 1392.3,1091.3 1385.5,1083.9 1377.9,1073.6 1369.6,1060.3 1360.4,1044.0 1350.4,1024.6 1339.5,1001.9 1327.6,976.0 1314.8,946.5 1300.9,913.5 1285.9,876.7 1269.8,835.9 1252.4,791.0 1233.8,741.8 1213.8,688.0 1192.3,629.4 1169.3,565.8 1144.8,496.8  A 1064.250,1064.250 0.00 0,0 1141.6,497.9 L 1141.6,497.9 1166.4,566.8 1189.6,630.4 1211.2,688.9 1231.4,742.6 1250.2,791.8 1267.7,836.6 1284.0,877.3 1299.1,914.1 1313.1,947.1 1326.0,976.5 1337.9,1002.4 1348.9,1025.0 1359.0,1044.4 1368.2,1060.7 1376.6,1073.9 1384.2,1084.2 1391.0,1091.6 1397.2,1096.2 1402.6,1097.9 1407.4,1096.8 1411.5,1092.8 1414.9,1086.0 1417.8,1076.3 1420.0,1063.7 1421.5,1048.1 1422.5,1029.4 1422.9,1007.6 1422.6,982.5 1421.6,953.9 1420.1,921.9 1417.8,886.1 1414.9,846.5 1411.3,802.8 1406.9,754.8 1401.7,702.4 1395.8,645.4 1389.0,583.3 1381.3,516.1 1372.7,443.4  Z" style="stroke-width: 2.0;  stroke: rgb(82,82,82); fill: rgb(255,255,0); opacity: 0.667;" />
<path d="M 1372.654,443.396 A 1064.250,1064.250 0.00 0,1 1376.0,443.0 L 1376.0,443.0 1384.4,515.7 1392.0,582.9 1398.8,645.0 1404.8,702.0 1410.0,754.4 1414.6,802.2 1418.5,845.8 1421.8,885.3 1424.4,921.0 1426.4,952.9 1427.9,981.3 1428.7,1006.2 1429.0,1027.8 1428.8,1046.3 1428.0,1061.6 1426.7,1074.0 1424.8,1083.3 1422.3,1089.8 1419.3,1093.4 1415.7,1094.1 1411.5,1092.0 1406.8,1087.0 1401.4,1079.1 1395.3,1068.3 1388.6,1054.4 1381.2,1037.6 1373.0,1017.5 1364.1,994.2 1354.4,967.5 1343.8,937.3 1332.3,903.5 1319.9,865.8 1306.5,824.2 1292.0,778.3 1276.5,728.1 1259.7,673.2 1241.8,613.4 1222.5,548.6 1201.9,478.3  A 1064.250,1064.250 0.00 0,0 1198.7,479.3 L 1198.7,479.3 1219.6,549.5 1239.0,614.3 1257.1,673.9 1274.0,728.8 1289.8,779.0 1304.4,824.8 1317.9,866.4 1330.4,904.0 1342.0,937.8 1352.7,968.0 1362.5,994.6 1371.5,1017.9 1379.7,1037.9 1387.2,1054.8 1394.0,1068.6 1400.0,1079.4 1405.5,1087.3 1410.3,1092.3 1414.4,1094.4 1418.0,1093.6 1421.0,1090.0 1423.4,1083.6 1425.3,1074.2 1426.6,1061.9 1427.4,1046.5 1427.6,1028.1 1427.2,1006.4 1426.2,981.5 1424.7,953.1 1422.6,921.2 1419.8,885.6 1416.4,846.1 1412.4,802.5 1407.7,754.6 1402.3,702.3 1396.1,645.3 1389.1,583.3 1381.3,516.1 1372.7,443.4  Z" style="stroke-width: 2.0;  stroke: rgb(82,82,82); fill: rgb(204,255,0); opacity: 0.667;" />
<path d="M 1166.065,489.497 A 1064.250,1064.250 0.00 0,1 1171.2,487.8 L 1171.2,487.8 1194.4,557.4 1216.9,621.6 1238.9,680.8 1260.4,735.2 1281.3,785.0 1301.7,830.6 1321.7,872.1 1341.4,909.9 1360.7,943.9 1379.7,974.6 1398.4,1002.0 1417.0,1026.2 1435.4,1047.5 1453.8,1065.8 1472.2,1081.5 1490.6,1094.4 1509.1,1104.8 1527.8,1112.6 1546.8,1118.0 1566.1,1120.8 1585.8,1121.2 1606.0,1119.2 1626.7,1114.6 1648.1,1107.6 1670.2,1097.9 1693.1,1085.7 1717.0,1070.7 1741.8,1052.9 1767.7,1032.1 1794.7,1008.3 1823.1,981.3 1852.8,950.9 1884.0,917.0 1916.8,879.3 1951.3,837.6 1987.6,791.8 2025.8,741.6 2066.1,686.7 2108.5,626.8  A 1064.250,1064.250 0.00 0,0 2104.1,623.8 L 2104.1,623.8 2062.0,683.8 2022.0,739.0 1984.1,789.4 1948.0,835.4 1913.7,877.2 1881.1,915.0 1850.1,949.1 1820.5,979.7 1792.3,1006.9 1765.3,1030.8 1739.5,1051.7 1714.8,1069.6 1691.1,1084.7 1668.2,1097.1 1646.1,1106.8 1624.8,1114.0 1604.1,1118.7 1583.9,1120.8 1564.2,1120.5 1544.9,1117.7 1525.9,1112.5 1507.1,1104.8 1488.5,1094.5 1470.0,1081.6 1451.6,1066.1 1433.1,1047.8 1414.6,1026.6 1395.9,1002.5 1377.0,975.2 1357.8,944.7 1338.4,910.7 1318.6,873.0 1298.3,831.6 1277.7,786.1 1256.5,736.4 1234.8,682.1 1212.5,623.1 1189.6,559.0 1166.1,489.5  Z" style="stroke-width: 2.0;  stroke: rgb(82,82,82); fill: rgb(0,255,0); opacity: 0.667;" />
<path d="M 2001.358,561.241 A 1064.250,1064.250 0.00 0,1 2016.6,569.6 L 2016.6,569.6 1980.9,633.5 1947.7,692.4 1916.7,746.6 1887.8,796.3 1861.1,841.7 1836.3,883.0 1813.3,920.4 1792.1,954.1 1772.6,984.2 1754.6,1011.0 1738.2,1034.5 1723.2,1054.8 1709.5,1072.2 1697.2,1086.6 1686.2,1098.1 1676.3,1106.8 1667.6,1112.8 1660.0,1116.0 1653.6,1116.6 1648.1,1114.5 1643.8,1109.7 1640.4,1102.1 1638.1,1091.8 1636.8,1078.7 1636.6,1062.8 1637.3,1043.8 1639.1,1021.9 1642.0,996.7 1645.9,968.3 1650.9,936.5 1657.1,901.1 1664.5,862.0 1673.1,818.9 1683.0,771.8 1694.2,720.3 1706.9,664.3 1721.0,603.5 1736.7,537.6 1754.0,466.5  A 1064.250,1064.250 0.00 0,0 1738.5,462.8 L 1738.5,462.8 1722.3,534.2 1707.6,600.3 1694.3,661.3 1682.5,717.5 1672.1,769.1 1662.9,816.4 1654.9,859.6 1648.1,898.8 1642.4,934.3 1637.8,966.2 1634.3,994.6 1631.8,1019.8 1630.4,1041.8 1629.9,1060.7 1630.4,1076.7 1631.8,1089.7 1634.3,1100.0 1637.7,1107.5 1642.1,1112.2 1647.5,1114.2 1654.0,1113.6 1661.5,1110.2 1670.0,1104.0 1679.7,1095.1 1690.6,1083.4 1702.6,1068.8 1716.0,1051.3 1730.6,1030.7 1746.7,1006.9 1764.2,979.9 1783.2,949.4 1803.8,915.3 1826.2,877.6 1850.3,835.8 1876.3,790.0 1904.3,739.9 1934.4,685.2 1966.7,625.7 2001.4,561.2  Z" style="stroke-width: 2.0;  stroke: rgb(82,82,82); fill: rgb(53,128,0); opacity: 0.667;" />
</g>
<defs>
<pattern id="hline-sparse" width="10" height="10" patternTransform="rotate(0 0 0)" patternUnits="userSpaceOnUse"><line x1="0" y1="0" x2="10" y2="0" style="stroke:black;stroke-width:2" /></pattern>
<pattern id="checker" width="10" height="10" patternTransform="rotate(45 0 0)" patternUnits="userSpaceOnUse"><line x1="0" y1="0" x2="10" y2="0" style="stroke:black;stroke-width:2" /><line x1="0" y1="0" x2="0" y2="10" style="stroke:black;stroke-width:2" /></pattern>
<pattern id="checker" width="10" height="10" patternTransform="rotate(45 0 0)" patternUnits="userSpaceOnUse"><line x1="0" y1="0" x2="10" y2="0" style="stroke:black;stroke-width:5" /><line x1="0" y1="0" x2="0" y2="10" style="stroke:black;stroke-width:4" /></pattern>
<pattern id="hline" width="10" height="10" patternTransform="rotate(0 0 0)" patternUnits="userSpaceOnUse"><line x1="0" y1="0" x2="10" y2="0" style="stroke:black;stroke-width:5" /></pattern>
<pattern id="vline-sparse" width="10" height="10" patternTransform="rotate(0 0 0)" patternUnits="userSpaceOnUse"><line x1="0" y1="0" x2="0" y2="10" style="stroke:black;stroke-width:2" /></pattern>
<pattern id="vline" width="10" height="10" patternTransform="rotate(0 0 0)" patternUnits="userSpaceOnUse"><line x1="0" y1="0" x2="0" y2="10" style="stroke:black;stroke-width:5" /></pattern>
</defs>
</svg>
