<?xml version="1.0" encoding="utf-8" standalone="no"?>
<!DOCTYPE svg PUBLIC "-//W3C//DTD SVG 1.1//EN" "http://www.w3.org/Graphics/SVG/1.1/DTD/svg11.dtd">
<svg width="3000px" height="3000px" version="1.1" xmlns="http://www.w3.org/2000/svg" xmlns:xlink="http://www.w3.org/1999/xlink">
<g id="ideograms">
<path d="M1500.000,425.000 A1075.000,1075.000 40.000 0,1 1705.921,444.907 L1715.499,395.833 A1125.000,1125.000 0.000 0,0 1500.000,375.000 Z" style="stroke-linecap:round;fill:rgb(116,196,118);fill-opacity:0.33;" />
<text x="1626.4" y="291.6" font-size="18.2px" font-family="CMUBright-Roman" style="text-anchor:start;fill:rgb(0,0,0);" transform="rotate(275.5,1626.4,291.6)" >R<tspan baseline-shift="-40%" font-size="90%">s</tspan>caffold<tspan baseline-shift="-40%" font-size="90%">4</tspan></text>
<line x1='1500.0' y1='375.0' x2='1500.0' y2='355.0' style="stroke-width:4.0;stroke:rgb(0,0,0);stroke-linecap:round;fill:none;" />
<text x="1506.5" y="345.0" font-size="18.2px" font-family="CMUBright-Roman" style="text-anchor:start;fill:rgb(0,0,0);" transform="rotate(270.0,1506.5,345.0)" >0</text>
<line x1='1558.2' y1='376.5' x2='1559.2' y2='356.5' style="stroke-width:4.0;stroke:rgb(0,0,0);stroke-linecap:round;fill:none;" />
<text x="1566.2" y="346.9" font-size="18.2px" font-family="CMUBright-Roman" style="text-anchor:start;fill:rgb(0,0,0);" transform="rotate(273.0,1566.2,346.9)" >50</text>
<line x1='1616.2' y1='381.0' x2='1618.3' y2='361.1' style="stroke-width:4.0;stroke:rgb(0,0,0);stroke-linecap:round;fill:none;" />
<text x="1625.8" y="351.9" font-size="18.2px" font-family="CMUBright-Roman" style="text-anchor:start;fill:rgb(0,0,0);" transform="rotate(275.9,1625.8,351.9)" >100</text>
<line x1='1674.0' y1='388.5' x2='1677.1' y2='368.8' style="stroke-width:4.0;stroke:rgb(0,0,0);stroke-linecap:round;fill:none;" />
<text x="1685.0" y="359.9" font-size="18.2px" font-family="CMUBright-Roman" style="text-anchor:start;fill:rgb(0,0,0);" transform="rotate(278.9,1685.0,359.9)" >150</text>
<g id="highlighttrack_0">
<path d="M1599.400,429.605 A1075.000,1075.000 40.000 0,1 1602.658,429.913 L1607.433,380.141 A1125.000,1125.000 0.000 0,0 1604.023,379.820 Z" style="stroke-width:4.0;stroke:rgb(0,0,0);stroke-linecap:round;fill:rgb(116,196,118);" />
</g>
<path d="M1760.858,457.130 A1075.000,1075.000 40.000 0,1 1922.489,511.502 L1942.140,465.526 A1125.000,1125.000 0.000 0,0 1772.991,408.624 Z" style="stroke-linecap:round;fill:rgb(116,196,118);fill-opacity:0.33;" />
<text x="1896.4" y="351.5" font-size="18.2px" font-family="CMUBright-Roman" style="text-anchor:start;fill:rgb(0,0,0);" transform="rotate(288.6,1896.4,351.5)" >R<tspan baseline-shift="-40%" font-size="90%">s</tspan>caffold<tspan baseline-shift="-40%" font-size="90%">1</tspan>0</text>
<line x1='1773.0' y1='408.6' x2='1777.8' y2='389.2' style="stroke-width:4.0;stroke:rgb(0,0,0);stroke-linecap:round;fill:none;" />
<text x="1786.6" y="381.1" font-size="18.2px" font-family="CMUBright-Roman" style="text-anchor:start;fill:rgb(0,0,0);" transform="rotate(284.0,1786.6,381.1)" >0</text>
<line x1='1829.1' y1='424.2' x2='1834.9' y2='405.1' style="stroke-width:4.0;stroke:rgb(0,0,0);stroke-linecap:round;fill:none;" />
<text x="1844.1" y="397.4" font-size="18.2px" font-family="CMUBright-Roman" style="text-anchor:start;fill:rgb(0,0,0);" transform="rotate(287.0,1844.1,397.4)" >50</text>
<line x1='1884.3' y1='442.7' x2='1891.1' y2='423.9' style="stroke-width:4.0;stroke:rgb(0,0,0);stroke-linecap:round;fill:none;" />
<text x="1900.6" y="416.7" font-size="18.2px" font-family="CMUBright-Roman" style="text-anchor:start;fill:rgb(0,0,0);" transform="rotate(290.0,1900.6,416.7)" >100</text>
<line x1='1938.5' y1='464.0' x2='1946.3' y2='445.6' style="stroke-width:4.0;stroke:rgb(0,0,0);stroke-linecap:round;fill:none;" />
<text x="1956.2" y="438.9" font-size="18.2px" font-family="CMUBright-Roman" style="text-anchor:start;fill:rgb(0,0,0);" transform="rotate(292.9,1956.2,438.9)" >150</text>
<g id="highlighttrack_0">
<path d="M1828.832,476.528 A1075.000,1075.000 40.000 0,1 1831.120,477.266 L1846.521,429.697 A1125.000,1125.000 0.000 0,0 1844.126,428.925 Z" style="stroke-width:4.0;stroke:rgb(0,0,0);stroke-linecap:round;fill:rgb(116,196,118);" />
</g>
<path d="M1973.644,534.968 A1075.000,1075.000 40.000 0,1 2238.253,718.586 L2272.590,682.241 A1125.000,1125.000 0.000 0,0 1995.674,490.083 Z" style="stroke-linecap:round;fill:rgb(116,196,118);fill-opacity:0.33;" />
<text x="2200.5" y="507.2" font-size="18.2px" font-family="CMUBright-Roman" style="text-anchor:start;fill:rgb(0,0,0);" transform="rotate(304.8,2200.5,507.2)" >R<tspan baseline-shift="-40%" font-size="90%">s</tspan>caffold<tspan baseline-shift="-40%" font-size="90%">1</tspan></text>
<line x1='1995.7' y1='490.1' x2='2004.5' y2='472.1' style="stroke-width:4.0;stroke:rgb(0,0,0);stroke-linecap:round;fill:none;" />
<text x="2014.7" y="466.0" font-size="18.2px" font-family="CMUBright-Roman" style="text-anchor:start;fill:rgb(0,0,0);" transform="rotate(296.1,2014.7,466.0)" >0</text>
<line x1='2047.3' y1='517.1' x2='2057.0' y2='499.6' style="stroke-width:4.0;stroke:rgb(0,0,0);stroke-linecap:round;fill:none;" />
<text x="2067.5" y="494.0" font-size="18.2px" font-family="CMUBright-Roman" style="text-anchor:start;fill:rgb(0,0,0);" transform="rotate(299.1,2067.5,494.0)" >50</text>
<line x1='2097.4' y1='546.7' x2='2108.0' y2='529.8' style="stroke-width:4.0;stroke:rgb(0,0,0);stroke-linecap:round;fill:none;" />
<text x="2118.8" y="524.8" font-size="18.2px" font-family="CMUBright-Roman" style="text-anchor:start;fill:rgb(0,0,0);" transform="rotate(302.1,2118.8,524.8)" >100</text>
<line x1='2145.9' y1='578.9' x2='2157.4' y2='562.5' style="stroke-width:4.0;stroke:rgb(0,0,0);stroke-linecap:round;fill:none;" />
<text x="2168.4" y="558.1" font-size="18.2px" font-family="CMUBright-Roman" style="text-anchor:start;fill:rgb(0,0,0);" transform="rotate(305.0,2168.4,558.1)" >150</text>
<line x1='2192.7' y1='613.5' x2='2205.0' y2='597.8' style="stroke-width:4.0;stroke:rgb(0,0,0);stroke-linecap:round;fill:none;" />
<text x="2216.3" y="593.9" font-size="18.2px" font-family="CMUBright-Roman" style="text-anchor:start;fill:rgb(0,0,0);" transform="rotate(308.0,2216.3,593.9)" >200</text>
<line x1='2237.6' y1='650.6' x2='2250.7' y2='635.5' style="stroke-width:4.0;stroke:rgb(0,0,0);stroke-linecap:round;fill:none;" />
<text x="2262.2" y="632.2" font-size="18.2px" font-family="CMUBright-Roman" style="text-anchor:start;fill:rgb(0,0,0);" transform="rotate(311.0,2262.2,632.2)" >250</text>
<g id="highlighttrack_0">
<path d="M2127.509,627.156 A1075.000,1075.000 40.000 0,1 2130.089,629.016 L2159.395,588.505 A1125.000,1125.000 0.000 0,0 2156.696,586.558 Z" style="stroke-width:4.0;stroke:rgb(0,0,0);stroke-linecap:round;fill:rgb(116,196,118);" />
</g>
<path d="M2278.137,758.294 A1075.000,1075.000 40.000 0,1 2384.866,889.560 L2426.023,861.168 A1125.000,1125.000 0.000 0,0 2314.330,723.796 Z" style="stroke-linecap:round;fill:rgb(116,196,118);fill-opacity:0.33;" />
<text x="2448.7" y="740.9" font-size="18.2px" font-family="CMUBright-Roman" style="text-anchor:start;fill:rgb(0,0,0);" transform="rotate(320.9,2448.7,740.9)" >R<tspan baseline-shift="-40%" font-size="90%">s</tspan>caffold<tspan baseline-shift="-40%" font-size="90%">1</tspan>1</text>
<line x1='2314.3' y1='723.8' x2='2328.8' y2='710.0' style="stroke-width:4.0;stroke:rgb(0,0,0);stroke-linecap:round;fill:none;" />
<text x="2340.5" y="707.8" font-size="18.2px" font-family="CMUBright-Roman" style="text-anchor:start;fill:rgb(0,0,0);" transform="rotate(316.4,2340.5,707.8)" >0</text>
<line x1='2353.4' y1='767.0' x2='2368.6' y2='753.9' style="stroke-width:4.0;stroke:rgb(0,0,0);stroke-linecap:round;fill:none;" />
<text x="2380.4" y="752.4" font-size="18.2px" font-family="CMUBright-Roman" style="text-anchor:start;fill:rgb(0,0,0);" transform="rotate(319.3,2380.4,752.4)" >50</text>
<line x1='2390.2' y1='812.1' x2='2406.0' y2='799.9' style="stroke-width:4.0;stroke:rgb(0,0,0);stroke-linecap:round;fill:none;" />
<text x="2417.9" y="798.9" font-size="18.2px" font-family="CMUBright-Roman" style="text-anchor:start;fill:rgb(0,0,0);" transform="rotate(322.3,2417.9,798.9)" >100</text>
<line x1='2424.6' y1='859.1' x2='2441.0' y2='847.7' style="stroke-width:4.0;stroke:rgb(0,0,0);stroke-linecap:round;fill:none;" />
<text x="2452.9" y="847.3" font-size="18.2px" font-family="CMUBright-Roman" style="text-anchor:start;fill:rgb(0,0,0);" transform="rotate(325.3,2452.9,847.3)" >150</text>
<g id="highlighttrack_0">
<path d="M2348.043,839.358 A1075.000,1075.000 40.000 0,1 2352.979,845.743 L2392.652,815.312 A1125.000,1125.000 0.000 0,0 2387.487,808.631 Z" style="stroke-width:4.0;stroke:rgb(0,0,0);stroke-linecap:round;fill:rgb(116,196,118);" />
</g>
<path d="M2415.602,936.707 A1075.000,1075.000 40.000 0,1 2472.618,1042.135 L2517.856,1020.839 A1125.000,1125.000 0.000 0,0 2458.188,910.508 Z" style="stroke-linecap:round;fill:rgb(116,196,118);fill-opacity:0.33;" />
<text x="2573.2" y="930.4" font-size="18.2px" font-family="CMUBright-Roman" style="text-anchor:start;fill:rgb(0,0,0);" transform="rotate(331.6,2573.2,930.4)" >R<tspan baseline-shift="-40%" font-size="90%">s</tspan>caffold<tspan baseline-shift="-40%" font-size="90%">1</tspan>8</text>
<line x1='2458.2' y1='910.5' x2='2475.2' y2='900.0' style="stroke-width:4.0;stroke:rgb(0,0,0);stroke-linecap:round;fill:none;" />
<text x="2487.1" y="900.3" font-size="18.2px" font-family="CMUBright-Roman" style="text-anchor:start;fill:rgb(0,0,0);" transform="rotate(328.4,2487.1,900.3)" >0</text>
<line x1='2487.4' y1='960.9' x2='2505.0' y2='951.3' style="stroke-width:4.0;stroke:rgb(0,0,0);stroke-linecap:round;fill:none;" />
<text x="2516.8" y="952.2" font-size="18.2px" font-family="CMUBright-Roman" style="text-anchor:start;fill:rgb(0,0,0);" transform="rotate(331.4,2516.8,952.2)" >50</text>
<line x1='2514.0' y1='1012.7' x2='2532.0' y2='1004.0' style="stroke-width:4.0;stroke:rgb(0,0,0);stroke-linecap:round;fill:none;" />
<text x="2543.8" y="1005.5" font-size="18.2px" font-family="CMUBright-Roman" style="text-anchor:start;fill:rgb(0,0,0);" transform="rotate(334.3,2543.8,1005.5)" >100</text>
<g id="highlighttrack_0">
<path d="M2427.023,955.708 A1075.000,1075.000 40.000 0,1 2428.199,957.716 L2471.371,932.493 A1125.000,1125.000 0.000 0,0 2470.140,930.392 Z" style="stroke-width:4.0;stroke:rgb(0,0,0);stroke-linecap:round;fill:rgb(116,196,118);" />
</g>
<path d="M2495.247,1093.666 A1075.000,1075.000 40.000 0,1 2528.036,1814.271 L2575.852,1828.888 A1125.000,1125.000 0.000 0,0 2541.538,1074.766 Z" style="stroke-linecap:round;fill:rgb(116,196,118);fill-opacity:0.33;" />
<text x="2714.1" y="1454.3" font-size="18.2px" font-family="CMUBright-Roman" style="text-anchor:start;fill:rgb(0,0,0);" transform="rotate(357.4,2714.1,1454.3)" >R<tspan baseline-shift="-40%" font-size="90%">s</tspan>caffold<tspan baseline-shift="-40%" font-size="90%">0</tspan></text>
<line x1='2541.5' y1='1074.8' x2='2560.1' y2='1067.2' style="stroke-width:4.0;stroke:rgb(0,0,0);stroke-linecap:round;fill:none;" />
<text x="2571.8" y="1069.5" font-size="18.2px" font-family="CMUBright-Roman" style="text-anchor:start;fill:rgb(0,0,0);" transform="rotate(337.8,2571.8,1069.5)" >0</text>
<line x1='2562.1' y1='1129.2' x2='2581.0' y2='1122.6' style="stroke-width:4.0;stroke:rgb(0,0,0);stroke-linecap:round;fill:none;" />
<text x="2592.6" y="1125.5" font-size="18.2px" font-family="CMUBright-Roman" style="text-anchor:start;fill:rgb(0,0,0);" transform="rotate(340.8,2592.6,1125.5)" >50</text>
<line x1='2579.9' y1='1184.7' x2='2599.1' y2='1179.1' style="stroke-width:4.0;stroke:rgb(0,0,0);stroke-linecap:round;fill:none;" />
<text x="2610.5" y="1182.5" font-size="18.2px" font-family="CMUBright-Roman" style="text-anchor:start;fill:rgb(0,0,0);" transform="rotate(343.7,2610.5,1182.5)" >100</text>
<line x1='2594.8' y1='1241.0' x2='2614.2' y2='1236.3' style="stroke-width:4.0;stroke:rgb(0,0,0);stroke-linecap:round;fill:none;" />
<text x="2625.4" y="1240.4" font-size="18.2px" font-family="CMUBright-Roman" style="text-anchor:start;fill:rgb(0,0,0);" transform="rotate(346.7,2625.4,1240.4)" >150</text>
<line x1='2606.7' y1='1297.9' x2='2626.4' y2='1294.3' style="stroke-width:4.0;stroke:rgb(0,0,0);stroke-linecap:round;fill:none;" />
<text x="2637.4" y="1298.9" font-size="18.2px" font-family="CMUBright-Roman" style="text-anchor:start;fill:rgb(0,0,0);" transform="rotate(349.7,2637.4,1298.9)" >200</text>
<line x1='2615.7' y1='1355.5' x2='2635.5' y2='1352.9' style="stroke-width:4.0;stroke:rgb(0,0,0);stroke-linecap:round;fill:none;" />
<text x="2646.2" y="1358.1" font-size="18.2px" font-family="CMUBright-Roman" style="text-anchor:start;fill:rgb(0,0,0);" transform="rotate(352.6,2646.2,1358.1)" >250</text>
<line x1='2621.7' y1='1413.4' x2='2641.6' y2='1411.8' style="stroke-width:4.0;stroke:rgb(0,0,0);stroke-linecap:round;fill:none;" />
<text x="2652.1" y="1417.5" font-size="18.2px" font-family="CMUBright-Roman" style="text-anchor:start;fill:rgb(0,0,0);" transform="rotate(355.6,2652.1,1417.5)" >300</text>
<line x1='2624.6' y1='1471.5' x2='2644.6' y2='1471.0' style="stroke-width:4.0;stroke:rgb(0,0,0);stroke-linecap:round;fill:none;" />
<text x="2654.8" y="1477.3" font-size="18.2px" font-family="CMUBright-Roman" style="text-anchor:start;fill:rgb(0,0,0);" transform="rotate(358.5,2654.8,1477.3)" >350</text>
<line x1='2624.6' y1='1529.7' x2='2644.6' y2='1530.3' style="stroke-width:4.0;stroke:rgb(0,0,0);stroke-linecap:round;fill:none;" />
<text x="2654.4" y="1537.0" font-size="18.2px" font-family="CMUBright-Roman" style="text-anchor:start;fill:rgb(0,0,0);" transform="rotate(1.5,2654.4,1537.0)" >400</text>
<line x1='2621.6' y1='1587.9' x2='2641.5' y2='1589.4' style="stroke-width:4.0;stroke:rgb(0,0,0);stroke-linecap:round;fill:none;" />
<text x="2650.9" y="1596.7" font-size="18.2px" font-family="CMUBright-Roman" style="text-anchor:start;fill:rgb(0,0,0);" transform="rotate(4.5,2650.9,1596.7)" >450</text>
<line x1='2615.5' y1='1645.8' x2='2635.3' y2='1648.4' style="stroke-width:4.0;stroke:rgb(0,0,0);stroke-linecap:round;fill:none;" />
<text x="2644.4" y="1656.1" font-size="18.2px" font-family="CMUBright-Roman" style="text-anchor:start;fill:rgb(0,0,0);" transform="rotate(7.4,2644.4,1656.1)" >500</text>
<line x1='2606.5' y1='1703.3' x2='2626.2' y2='1706.9' style="stroke-width:4.0;stroke:rgb(0,0,0);stroke-linecap:round;fill:none;" />
<text x="2634.8" y="1715.1" font-size="18.2px" font-family="CMUBright-Roman" style="text-anchor:start;fill:rgb(0,0,0);" transform="rotate(10.4,2634.8,1715.1)" >550</text>
<line x1='2594.5' y1='1760.3' x2='2613.9' y2='1764.9' style="stroke-width:4.0;stroke:rgb(0,0,0);stroke-linecap:round;fill:none;" />
<text x="2622.1" y="1773.5" font-size="18.2px" font-family="CMUBright-Roman" style="text-anchor:start;fill:rgb(0,0,0);" transform="rotate(13.4,2622.1,1773.5)" >600</text>
<line x1='2579.6' y1='1816.5' x2='2598.7' y2='1822.2' style="stroke-width:4.0;stroke:rgb(0,0,0);stroke-linecap:round;fill:none;" />
<text x="2606.5" y="1831.2" font-size="18.2px" font-family="CMUBright-Roman" style="text-anchor:start;fill:rgb(0,0,0);" transform="rotate(16.3,2606.5,1831.2)" >650</text>
<g id="highlighttrack_0">
<path d="M2560.917,1326.567 A1075.000,1075.000 40.000 0,1 2562.015,1333.417 L2611.411,1325.669 A1125.000,1125.000 0.000 0,0 2610.262,1318.500 Z" style="stroke-width:4.0;stroke:rgb(0,0,0);stroke-linecap:round;fill:rgb(116,196,118);" />
<path d="M2573.382,1441.034 A1075.000,1075.000 40.000 0,1 2573.517,1443.548 L2623.448,1440.922 A1125.000,1125.000 0.000 0,0 2623.306,1438.292 Z" style="stroke-width:4.0;stroke:rgb(0,0,0);stroke-linecap:round;fill:rgb(116,196,118);" />
<path d="M2568.659,1383.412 A1075.000,1075.000 40.000 0,1 2568.991,1386.499 L2618.712,1381.220 A1125.000,1125.000 0.000 0,0 2618.364,1377.990 Z" style="stroke-width:4.0;stroke:rgb(0,0,0);stroke-linecap:round;fill:rgb(116,196,118);" />
<path d="M2545.008,1247.841 A1075.000,1075.000 40.000 0,1 2545.599,1250.305 L2594.232,1238.691 A1125.000,1125.000 0.000 0,0 2593.613,1236.113 Z" style="stroke-width:4.0;stroke:rgb(0,0,0);stroke-linecap:round;fill:rgb(116,196,118);" />
<path d="M2507.561,1125.239 A1075.000,1075.000 40.000 0,1 2508.697,1128.306 L2555.613,1111.018 A1125.000,1125.000 0.000 0,0 2554.424,1107.809 Z" style="stroke-width:4.0;stroke:rgb(0,0,0);stroke-linecap:round;fill:rgb(116,196,118);" />
</g>
<path d="M2510.180,1867.644 A1075.000,1075.000 40.000 0,1 2431.307,2036.928 L2474.624,2061.902 A1125.000,1125.000 0.000 0,0 2557.165,1884.743 Z" style="stroke-linecap:round;fill:rgb(116,196,118);fill-opacity:0.33;" />
<text x="2597.3" y="2021.7" font-size="18.2px" font-family="CMUBright-Roman" style="text-anchor:start;fill:rgb(0,0,0);" transform="rotate(25.0,2597.3,2021.7)" >R<tspan baseline-shift="-40%" font-size="90%">s</tspan>caffold<tspan baseline-shift="-40%" font-size="90%">7</tspan></text>
<line x1='2557.2' y1='1884.7' x2='2576.0' y2='1891.6' style="stroke-width:4.0;stroke:rgb(0,0,0);stroke-linecap:round;fill:none;" />
<text x="2583.1" y="1901.1" font-size="18.2px" font-family="CMUBright-Roman" style="text-anchor:start;fill:rgb(0,0,0);" transform="rotate(20.0,2583.1,1901.1)" >0</text>
<line x1='2535.8' y1='1938.9' x2='2554.3' y2='1946.7' style="stroke-width:4.0;stroke:rgb(0,0,0);stroke-linecap:round;fill:none;" />
<text x="2560.9" y="1956.6" font-size="18.2px" font-family="CMUBright-Roman" style="text-anchor:start;fill:rgb(0,0,0);" transform="rotate(23.0,2560.9,1956.6)" >50</text>
<line x1='2511.8' y1='1991.9' x2='2529.7' y2='2000.7' style="stroke-width:4.0;stroke:rgb(0,0,0);stroke-linecap:round;fill:none;" />
<text x="2535.9" y="2010.9" font-size="18.2px" font-family="CMUBright-Roman" style="text-anchor:start;fill:rgb(0,0,0);" transform="rotate(25.9,2535.9,2010.9)" >100</text>
<line x1='2484.9' y1='2043.6' x2='2502.5' y2='2053.3' style="stroke-width:4.0;stroke:rgb(0,0,0);stroke-linecap:round;fill:none;" />
<text x="2508.1" y="2063.8" font-size="18.2px" font-family="CMUBright-Roman" style="text-anchor:start;fill:rgb(0,0,0);" transform="rotate(28.9,2508.1,2063.8)" >150</text>
<g id="highlighttrack_0">
<path d="M2471.905,1959.375 A1075.000,1075.000 40.000 0,1 2469.970,1963.447 L2515.085,1985.002 A1125.000,1125.000 0.000 0,0 2517.110,1980.742 Z" style="stroke-width:4.0;stroke:rgb(0,0,0);stroke-linecap:round;fill:rgb(116,196,118);" />
<path d="M2496.304,1903.736 A1075.000,1075.000 40.000 0,1 2489.831,1919.357 L2535.869,1938.862 A1125.000,1125.000 0.000 0,0 2542.644,1922.514 Z" style="stroke-width:4.0;stroke:rgb(0,0,0);stroke-linecap:round;fill:rgb(116,196,118);" />
</g>
<path d="M2401.930,2084.933 A1075.000,1075.000 40.000 0,1 2372.565,2127.897 L2413.150,2157.101 A1125.000,1125.000 0.000 0,0 2443.880,2112.140 Z" style="stroke-linecap:round;fill:rgb(116,196,118);fill-opacity:0.33;" />
<text x="2497.7" y="2193.4" font-size="18.2px" font-family="CMUBright-Roman" style="text-anchor:start;fill:rgb(0,0,0);" transform="rotate(34.4,2497.7,2193.4)" >R<tspan baseline-shift="-40%" font-size="90%">s</tspan>caffold<tspan baseline-shift="-40%" font-size="90%">3</tspan>0</text>
<line x1='2443.9' y1='2112.1' x2='2460.7' y2='2123.0' style="stroke-width:4.0;stroke:rgb(0,0,0);stroke-linecap:round;fill:none;" />
<text x="2465.5" y="2133.9" font-size="18.2px" font-family="CMUBright-Roman" style="text-anchor:start;fill:rgb(0,0,0);" transform="rotate(33.0,2465.5,2133.9)" >0</text>
<g id="highlighttrack_0">
<path d="M2395.395,2094.889 A1075.000,1075.000 40.000 0,1 2386.529,2108.023 L2427.763,2136.303 A1125.000,1125.000 0.000 0,0 2437.041,2122.558 Z" style="stroke-width:4.0;stroke:rgb(0,0,0);stroke-linecap:round;fill:rgb(116,196,118);" />
<path d="M2386.155,2108.568 A1075.000,1075.000 40.000 0,1 2375.840,2123.322 L2416.576,2152.313 A1125.000,1125.000 0.000 0,0 2427.371,2136.873 Z" style="stroke-width:4.0;stroke:rgb(0,0,0);stroke-linecap:round;fill:rgb(116,196,118);" />
</g>
<path d="M2338.508,2172.703 A1075.000,1075.000 40.000 0,1 2280.503,2239.216 L2316.806,2273.598 A1125.000,1125.000 0.000 0,0 2377.508,2203.991 Z" style="stroke-linecap:round;fill:rgb(116,196,118);fill-opacity:0.33;" />
<text x="2409.4" y="2305.7" font-size="18.2px" font-family="CMUBright-Roman" style="text-anchor:start;fill:rgb(0,0,0);" transform="rotate(41.1,2409.4,2305.7)" >R<tspan baseline-shift="-40%" font-size="90%">s</tspan>caffold<tspan baseline-shift="-40%" font-size="90%">2</tspan>1</text>
<line x1='2377.5' y1='2204.0' x2='2393.1' y2='2216.5' style="stroke-width:4.0;stroke:rgb(0,0,0);stroke-linecap:round;fill:none;" />
<text x="2396.8" y="2227.8" font-size="18.2px" font-family="CMUBright-Roman" style="text-anchor:start;fill:rgb(0,0,0);" transform="rotate(38.7,2396.8,2227.8)" >0</text>
<line x1='2339.9' y1='2248.4' x2='2354.8' y2='2261.8' style="stroke-width:4.0;stroke:rgb(0,0,0);stroke-linecap:round;fill:none;" />
<text x="2358.0" y="2273.2" font-size="18.2px" font-family="CMUBright-Roman" style="text-anchor:start;fill:rgb(0,0,0);" transform="rotate(41.7,2358.0,2273.2)" >50</text>
<g id="highlighttrack_0">
<path d="M2330.201,2182.928 A1075.000,1075.000 40.000 0,1 2310.188,2206.555 L2347.872,2239.418 A1125.000,1125.000 0.000 0,0 2368.815,2214.692 Z" style="stroke-width:4.0;stroke:rgb(0,0,0);stroke-linecap:round;fill:rgb(116,196,118);" />
</g>
<path d="M2240.746,2279.051 A1075.000,1075.000 40.000 0,1 2238.249,2281.417 L2272.587,2317.762 A1125.000,1125.000 0.000 0,0 2275.199,2315.286 Z" style="stroke-linecap:round;fill:rgb(116,196,118);fill-opacity:0.33;" />
<text x="2328.9" y="2388.4" font-size="18.2px" font-family="CMUBright-Roman" style="text-anchor:start;fill:rgb(0,0,0);" transform="rotate(46.5,2328.9,2388.4)" >R<tspan baseline-shift="-40%" font-size="90%">s</tspan>caffold<tspan baseline-shift="-40%" font-size="90%">3</tspan>7</text>
<line x1='2275.2' y1='2315.3' x2='2289.0' y2='2329.8' style="stroke-width:4.0;stroke:rgb(0,0,0);stroke-linecap:round;fill:none;" />
<text x="2291.1" y="2341.5" font-size="18.2px" font-family="CMUBright-Roman" style="text-anchor:start;fill:rgb(0,0,0);" transform="rotate(46.4,2291.1,2341.5)" >0</text>
<g id="highlighttrack_0">
<path d="M2240.608,2279.182 A1075.000,1075.000 40.000 0,1 2238.249,2281.417 L2272.587,2317.762 A1125.000,1125.000 0.000 0,0 2275.055,2315.423 Z" style="stroke-width:4.0;stroke:rgb(0,0,0);stroke-linecap:round;fill:rgb(116,196,118);" />
</g>
<path d="M2196.342,2318.983 A1075.000,1075.000 40.000 0,1 2049.207,2424.120 L2074.751,2467.102 A1125.000,1125.000 0.000 0,0 2228.730,2357.075 Z" style="stroke-linecap:round;fill:rgb(116,196,118);fill-opacity:0.33;" />
<text x="2198.6" y="2494.1" font-size="18.2px" font-family="CMUBright-Roman" style="text-anchor:start;fill:rgb(0,0,0);" transform="rotate(54.5,2198.6,2494.1)" >R<tspan baseline-shift="-40%" font-size="90%">s</tspan>caffold<tspan baseline-shift="-40%" font-size="90%">7</tspan></text>
<line x1='2228.7' y1='2357.1' x2='2241.7' y2='2372.3' style="stroke-width:4.0;stroke:rgb(0,0,0);stroke-linecap:round;fill:none;" />
<text x="2243.2" y="2384.1" font-size="18.2px" font-family="CMUBright-Roman" style="text-anchor:start;fill:rgb(0,0,0);" transform="rotate(49.6,2243.2,2384.1)" >0</text>
<line x1='2183.4' y1='2393.6' x2='2195.6' y2='2409.5' style="stroke-width:4.0;stroke:rgb(0,0,0);stroke-linecap:round;fill:none;" />
<text x="2196.5" y="2421.4" font-size="18.2px" font-family="CMUBright-Roman" style="text-anchor:start;fill:rgb(0,0,0);" transform="rotate(52.6,2196.5,2421.4)" >50</text>
<line x1='2136.3' y1='2427.8' x2='2147.6' y2='2444.3' style="stroke-width:4.0;stroke:rgb(0,0,0);stroke-linecap:round;fill:none;" />
<text x="2147.9" y="2456.2" font-size="18.2px" font-family="CMUBright-Roman" style="text-anchor:start;fill:rgb(0,0,0);" transform="rotate(55.6,2147.9,2456.2)" >100</text>
<line x1='2087.4' y1='2459.5' x2='2097.9' y2='2476.5' style="stroke-width:4.0;stroke:rgb(0,0,0);stroke-linecap:round;fill:none;" />
<text x="2097.5" y="2488.4" font-size="18.2px" font-family="CMUBright-Roman" style="text-anchor:start;fill:rgb(0,0,0);" transform="rotate(58.5,2097.5,2488.4)" >150</text>
<g id="highlighttrack_0">
<path d="M2137.916,2365.267 A1075.000,1075.000 40.000 0,1 2135.228,2367.243 L2164.774,2407.580 A1125.000,1125.000 0.000 0,0 2167.587,2405.512 Z" style="stroke-width:4.0;stroke:rgb(0,0,0);stroke-linecap:round;fill:rgb(116,196,118);" />
</g>
<path d="M2000.089,2451.596 A1075.000,1075.000 40.000 0,1 1451.310,2573.897 L1449.045,2623.845 A1125.000,1125.000 0.000 0,0 2023.349,2495.857 Z" style="stroke-linecap:round;fill:rgb(116,196,118);fill-opacity:0.33;" />
<text x="1755.0" y="2687.9" font-size="18.2px" font-family="CMUBright-Roman" style="text-anchor:start;fill:rgb(0,0,0);" transform="rotate(77.4,1755.0,2687.9)" >R<tspan baseline-shift="-40%" font-size="90%">s</tspan>caffold<tspan baseline-shift="-40%" font-size="90%">2</tspan></text>
<line x1='2023.3' y1='2495.9' x2='2032.7' y2='2513.6' style="stroke-width:4.0;stroke:rgb(0,0,0);stroke-linecap:round;fill:none;" />
<text x="2031.5" y="2525.4" font-size="18.2px" font-family="CMUBright-Roman" style="text-anchor:start;fill:rgb(0,0,0);" transform="rotate(62.3,2031.5,2525.4)" >0</text>
<line x1='1971.1' y1='2521.6' x2='1979.5' y2='2539.8' style="stroke-width:4.0;stroke:rgb(0,0,0);stroke-linecap:round;fill:none;" />
<text x="1977.8" y="2551.5" font-size="18.2px" font-family="CMUBright-Roman" style="text-anchor:start;fill:rgb(0,0,0);" transform="rotate(65.2,1977.8,2551.5)" >50</text>
<line x1='1917.6' y1='2544.6' x2='1925.1' y2='2563.2' style="stroke-width:4.0;stroke:rgb(0,0,0);stroke-linecap:round;fill:none;" />
<text x="1922.7" y="2574.9" font-size="18.2px" font-family="CMUBright-Roman" style="text-anchor:start;fill:rgb(0,0,0);" transform="rotate(68.2,1922.7,2574.9)" >100</text>
<line x1='1863.0' y1='2564.8' x2='1869.5' y2='2583.7' style="stroke-width:4.0;stroke:rgb(0,0,0);stroke-linecap:round;fill:none;" />
<text x="1866.6" y="2595.3" font-size="18.2px" font-family="CMUBright-Roman" style="text-anchor:start;fill:rgb(0,0,0);" transform="rotate(71.2,1866.6,2595.3)" >150</text>
<line x1='1807.5' y1='2582.2' x2='1812.9' y2='2601.4' style="stroke-width:4.0;stroke:rgb(0,0,0);stroke-linecap:round;fill:none;" />
<text x="1809.4" y="2612.8" font-size="18.2px" font-family="CMUBright-Roman" style="text-anchor:start;fill:rgb(0,0,0);" transform="rotate(74.1,1809.4,2612.8)" >200</text>
<line x1='1751.1' y1='2596.6' x2='1755.5' y2='2616.1' style="stroke-width:4.0;stroke:rgb(0,0,0);stroke-linecap:round;fill:none;" />
<text x="1751.4" y="2627.3" font-size="18.2px" font-family="CMUBright-Roman" style="text-anchor:start;fill:rgb(0,0,0);" transform="rotate(77.1,1751.4,2627.3)" >250</text>
<line x1='1694.0' y1='2608.1' x2='1697.5' y2='2627.8' style="stroke-width:4.0;stroke:rgb(0,0,0);stroke-linecap:round;fill:none;" />
<text x="1692.8" y="2638.8" font-size="18.2px" font-family="CMUBright-Roman" style="text-anchor:start;fill:rgb(0,0,0);" transform="rotate(80.1,1692.8,2638.8)" >300</text>
<line x1='1636.4' y1='2616.7' x2='1638.9' y2='2636.5' style="stroke-width:4.0;stroke:rgb(0,0,0);stroke-linecap:round;fill:none;" />
<text x="1633.6" y="2647.2" font-size="18.2px" font-family="CMUBright-Roman" style="text-anchor:start;fill:rgb(0,0,0);" transform="rotate(83.0,1633.6,2647.2)" >350</text>
<line x1='1578.5' y1='2622.3' x2='1579.9' y2='2642.2' style="stroke-width:4.0;stroke:rgb(0,0,0);stroke-linecap:round;fill:none;" />
<text x="1574.1" y="2652.6" font-size="18.2px" font-family="CMUBright-Roman" style="text-anchor:start;fill:rgb(0,0,0);" transform="rotate(86.0,1574.1,2652.6)" >400</text>
<line x1='1520.3' y1='2624.8' x2='1520.7' y2='2644.8' style="stroke-width:4.0;stroke:rgb(0,0,0);stroke-linecap:round;fill:none;" />
<text x="1514.4" y="2654.9" font-size="18.2px" font-family="CMUBright-Roman" style="text-anchor:start;fill:rgb(0,0,0);" transform="rotate(89.0,1514.4,2654.9)" >450</text>
<line x1='1462.1' y1='2624.4' x2='1461.4' y2='2644.3' style="stroke-width:4.0;stroke:rgb(0,0,0);stroke-linecap:round;fill:none;" />
<text x="1467.6" y="2654.5" font-size="18.2px" font-family="CMUBright-Roman" style="text-anchor:end;fill:rgb(0,0,0);" transform="rotate(-88.1,1467.6,2654.5)" >500</text>
<g id="highlighttrack_0">
<path d="M1648.242,2564.730 A1075.000,1075.000 40.000 0,1 1641.367,2565.664 L1647.942,2615.230 A1125.000,1125.000 0.000 0,0 1655.137,2614.252 Z" style="stroke-width:4.0;stroke:rgb(0,0,0);stroke-linecap:round;fill:rgb(251,106,74);" />
<path d="M1557.803,2573.445 A1075.000,1075.000 40.000 0,1 1554.537,2573.616 L1557.074,2623.551 A1125.000,1125.000 0.000 0,0 1560.492,2623.372 Z" style="stroke-width:4.0;stroke:rgb(0,0,0);stroke-linecap:round;fill:rgb(251,106,74);" />
</g>
<path d="M1395.173,2569.877 A1075.000,1075.000 40.000 0,1 431.170,1615.015 L381.457,1620.365 A1125.000,1125.000 0.000 0,0 1390.298,2619.639 Z" style="stroke-linecap:round;fill:rgb(116,196,118);fill-opacity:0.33;" />
<text x="651.7" y="2369.9" font-size="18.2px" font-family="CMUBright-Roman" style="text-anchor:end;fill:rgb(0,0,0);" transform="rotate(-45.3,651.7,2369.9)" >R<tspan baseline-shift="-40%" font-size="90%">s</tspan>caffold<tspan baseline-shift="-40%" font-size="90%">0</tspan></text>
<line x1='1390.3' y1='2619.6' x2='1388.3' y2='2639.5' style="stroke-width:4.0;stroke:rgb(0,0,0);stroke-linecap:round;fill:none;" />
<text x="1393.8" y="2650.1" font-size="18.2px" font-family="CMUBright-Roman" style="text-anchor:end;fill:rgb(0,0,0);" transform="rotate(-84.4,1393.8,2650.1)" >0</text>
<line x1='1332.5' y1='2612.5' x2='1329.5' y2='2632.2' style="stroke-width:4.0;stroke:rgb(0,0,0);stroke-linecap:round;fill:none;" />
<text x="1334.5" y="2643.1" font-size="18.2px" font-family="CMUBright-Roman" style="text-anchor:end;fill:rgb(0,0,0);" transform="rotate(-81.4,1334.5,2643.1)" >50</text>
<line x1='1275.2' y1='2602.3' x2='1271.2' y2='2621.9' style="stroke-width:4.0;stroke:rgb(0,0,0);stroke-linecap:round;fill:none;" />
<text x="1275.6" y="2633.0" font-size="18.2px" font-family="CMUBright-Roman" style="text-anchor:end;fill:rgb(0,0,0);" transform="rotate(-78.5,1275.6,2633.0)" >100</text>
<line x1='1218.5' y1='2589.2' x2='1213.5' y2='2608.6' style="stroke-width:4.0;stroke:rgb(0,0,0);stroke-linecap:round;fill:none;" />
<text x="1217.3" y="2619.9" font-size="18.2px" font-family="CMUBright-Roman" style="text-anchor:end;fill:rgb(0,0,0);" transform="rotate(-75.5,1217.3,2619.9)" >150</text>
<line x1='1162.5' y1='2573.2' x2='1156.5' y2='2592.3' style="stroke-width:4.0;stroke:rgb(0,0,0);stroke-linecap:round;fill:none;" />
<text x="1159.7" y="2603.7" font-size="18.2px" font-family="CMUBright-Roman" style="text-anchor:end;fill:rgb(0,0,0);" transform="rotate(-72.5,1159.7,2603.7)" >200</text>
<line x1='1107.4' y1='2554.3' x2='1100.5' y2='2573.0' style="stroke-width:4.0;stroke:rgb(0,0,0);stroke-linecap:round;fill:none;" />
<text x="1103.1" y="2584.6" font-size="18.2px" font-family="CMUBright-Roman" style="text-anchor:end;fill:rgb(0,0,0);" transform="rotate(-69.6,1103.1,2584.6)" >250</text>
<line x1='1053.4' y1='2532.6' x2='1045.5' y2='2550.9' style="stroke-width:4.0;stroke:rgb(0,0,0);stroke-linecap:round;fill:none;" />
<text x="1047.5" y="2562.7" font-size="18.2px" font-family="CMUBright-Roman" style="text-anchor:end;fill:rgb(0,0,0);" transform="rotate(-66.6,1047.5,2562.7)" >300</text>
<line x1='1000.6' y1='2508.1' x2='991.7' y2='2526.0' style="stroke-width:4.0;stroke:rgb(0,0,0);stroke-linecap:round;fill:none;" />
<text x="993.1" y="2537.8" font-size="18.2px" font-family="CMUBright-Roman" style="text-anchor:end;fill:rgb(0,0,0);" transform="rotate(-63.6,993.1,2537.8)" >350</text>
<line x1='949.1' y1='2480.9' x2='939.3' y2='2498.3' style="stroke-width:4.0;stroke:rgb(0,0,0);stroke-linecap:round;fill:none;" />
<text x="940.1" y="2510.2" font-size="18.2px" font-family="CMUBright-Roman" style="text-anchor:end;fill:rgb(0,0,0);" transform="rotate(-60.7,940.1,2510.2)" >400</text>
<line x1='899.1' y1='2451.1' x2='888.4' y2='2468.0' style="stroke-width:4.0;stroke:rgb(0,0,0);stroke-linecap:round;fill:none;" />
<text x="888.6" y="2479.9" font-size="18.2px" font-family="CMUBright-Roman" style="text-anchor:end;fill:rgb(0,0,0);" transform="rotate(-57.7,888.6,2479.9)" >450</text>
<line x1='850.7' y1='2418.7' x2='839.2' y2='2435.1' style="stroke-width:4.0;stroke:rgb(0,0,0);stroke-linecap:round;fill:none;" />
<text x="838.7" y="2447.0" font-size="18.2px" font-family="CMUBright-Roman" style="text-anchor:end;fill:rgb(0,0,0);" transform="rotate(-54.7,838.7,2447.0)" >500</text>
<line x1='804.1' y1='2383.9' x2='791.7' y2='2399.6' style="stroke-width:4.0;stroke:rgb(0,0,0);stroke-linecap:round;fill:none;" />
<text x="790.6" y="2411.5" font-size="18.2px" font-family="CMUBright-Roman" style="text-anchor:end;fill:rgb(0,0,0);" transform="rotate(-51.8,790.6,2411.5)" >550</text>
<line x1='759.3' y1='2346.7' x2='746.1' y2='2361.8' style="stroke-width:4.0;stroke:rgb(0,0,0);stroke-linecap:round;fill:none;" />
<text x="744.4" y="2373.6" font-size="18.2px" font-family="CMUBright-Roman" style="text-anchor:end;fill:rgb(0,0,0);" transform="rotate(-48.8,744.4,2373.6)" >600</text>
<line x1='716.4' y1='2307.3' x2='702.5' y2='2321.6' style="stroke-width:4.0;stroke:rgb(0,0,0);stroke-linecap:round;fill:none;" />
<text x="700.2" y="2333.3" font-size="18.2px" font-family="CMUBright-Roman" style="text-anchor:end;fill:rgb(0,0,0);" transform="rotate(-45.9,700.2,2333.3)" >650</text>
<line x1='675.7' y1='2265.6' x2='661.1' y2='2279.3' style="stroke-width:4.0;stroke:rgb(0,0,0);stroke-linecap:round;fill:none;" />
<text x="658.2" y="2290.8" font-size="18.2px" font-family="CMUBright-Roman" style="text-anchor:end;fill:rgb(0,0,0);" transform="rotate(-42.9,658.2,2290.8)" >700</text>
<line x1='637.2' y1='2222.0' x2='621.9' y2='2234.8' style="stroke-width:4.0;stroke:rgb(0,0,0);stroke-linecap:round;fill:none;" />
<text x="618.4" y="2246.2" font-size="18.2px" font-family="CMUBright-Roman" style="text-anchor:end;fill:rgb(0,0,0);" transform="rotate(-39.9,618.4,2246.2)" >750</text>
<line x1='601.0' y1='2176.4' x2='585.0' y2='2188.4' style="stroke-width:4.0;stroke:rgb(0,0,0);stroke-linecap:round;fill:none;" />
<text x="581.0" y="2199.6" font-size="18.2px" font-family="CMUBright-Roman" style="text-anchor:end;fill:rgb(0,0,0);" transform="rotate(-37.0,581.0,2199.6)" >800</text>
<line x1='567.2' y1='2129.0' x2='550.7' y2='2140.1' style="stroke-width:4.0;stroke:rgb(0,0,0);stroke-linecap:round;fill:none;" />
<text x="546.0" y="2151.1" font-size="18.2px" font-family="CMUBright-Roman" style="text-anchor:end;fill:rgb(0,0,0);" transform="rotate(-34.0,546.0,2151.1)" >850</text>
<line x1='536.0' y1='2079.9' x2='518.8' y2='2090.2' style="stroke-width:4.0;stroke:rgb(0,0,0);stroke-linecap:round;fill:none;" />
<text x="513.6" y="2100.9" font-size="18.2px" font-family="CMUBright-Roman" style="text-anchor:end;fill:rgb(0,0,0);" transform="rotate(-31.0,513.6,2100.9)" >900</text>
<line x1='507.2' y1='2029.2' x2='489.6' y2='2038.6' style="stroke-width:4.0;stroke:rgb(0,0,0);stroke-linecap:round;fill:none;" />
<text x="483.8" y="2049.1" font-size="18.2px" font-family="CMUBright-Roman" style="text-anchor:end;fill:rgb(0,0,0);" transform="rotate(-28.1,483.8,2049.1)" >950</text>
<line x1='481.2' y1='1977.1' x2='463.1' y2='1985.6' style="stroke-width:4.0;stroke:rgb(0,0,0);stroke-linecap:round;fill:none;" />
<text x="456.8" y="1995.8" font-size="18.2px" font-family="CMUBright-Roman" style="text-anchor:end;fill:rgb(0,0,0);" transform="rotate(-25.1,456.8,1995.8)" >1000</text>
<line x1='457.9' y1='1923.8' x2='439.4' y2='1931.3' style="stroke-width:4.0;stroke:rgb(0,0,0);stroke-linecap:round;fill:none;" />
<text x="432.6" y="1941.1" font-size="18.2px" font-family="CMUBright-Roman" style="text-anchor:end;fill:rgb(0,0,0);" transform="rotate(-22.1,432.6,1941.1)" >1050</text>
<line x1='437.3' y1='1869.3' x2='418.5' y2='1875.9' style="stroke-width:4.0;stroke:rgb(0,0,0);stroke-linecap:round;fill:none;" />
<text x="411.2" y="1885.3" font-size="18.2px" font-family="CMUBright-Roman" style="text-anchor:end;fill:rgb(0,0,0);" transform="rotate(-19.2,411.2,1885.3)" >1100</text>
<line x1='419.7' y1='1813.9' x2='400.5' y2='1819.4' style="stroke-width:4.0;stroke:rgb(0,0,0);stroke-linecap:round;fill:none;" />
<text x="392.7" y="1828.5" font-size="18.2px" font-family="CMUBright-Roman" style="text-anchor:end;fill:rgb(0,0,0);" transform="rotate(-16.2,392.7,1828.5)" >1150</text>
<line x1='404.9' y1='1757.5' x2='385.4' y2='1762.1' style="stroke-width:4.0;stroke:rgb(0,0,0);stroke-linecap:round;fill:none;" />
<text x="377.2" y="1770.7" font-size="18.2px" font-family="CMUBright-Roman" style="text-anchor:end;fill:rgb(0,0,0);" transform="rotate(-13.2,377.2,1770.7)" >1200</text>
<line x1='393.0' y1='1700.5' x2='373.3' y2='1704.1' style="stroke-width:4.0;stroke:rgb(0,0,0);stroke-linecap:round;fill:none;" />
<text x="364.7" y="1712.3" font-size="18.2px" font-family="CMUBright-Roman" style="text-anchor:end;fill:rgb(0,0,0);" transform="rotate(-10.3,364.7,1712.3)" >1250</text>
<line x1='384.1' y1='1643.0' x2='364.3' y2='1645.6' style="stroke-width:4.0;stroke:rgb(0,0,0);stroke-linecap:round;fill:none;" />
<text x="355.2" y="1653.3" font-size="18.2px" font-family="CMUBright-Roman" style="text-anchor:end;fill:rgb(0,0,0);" transform="rotate(-7.3,355.2,1653.3)" >1300</text>
<g id="highlighttrack_0">
<path d="M1216.009,2536.810 A1075.000,1075.000 40.000 0,1 1213.687,2536.171 L1200.370,2584.365 A1125.000,1125.000 0.000 0,0 1202.800,2585.033 Z" style="stroke-width:4.0;stroke:rgb(0,0,0);stroke-linecap:round;fill:rgb(116,196,118);" />
<path d="M638.667,2143.219 A1075.000,1075.000 40.000 0,1 633.818,2136.674 L593.530,2166.287 A1125.000,1125.000 0.000 0,0 598.605,2173.136 Z" style="stroke-width:4.0;stroke:rgb(0,0,0);stroke-linecap:round;fill:rgb(116,196,118);" />
<path d="M464.477,1788.648 A1075.000,1075.000 40.000 0,1 463.854,1786.403 L415.661,1799.724 A1125.000,1125.000 0.000 0,0 416.314,1802.074 Z" style="stroke-width:4.0;stroke:rgb(0,0,0);stroke-linecap:round;fill:rgb(116,196,118);" />
<path d="M984.255,2443.203 A1075.000,1075.000 40.000 0,1 981.469,2441.674 L957.351,2485.473 A1125.000,1125.000 0.000 0,0 960.267,2487.073 Z" style="stroke-width:4.0;stroke:rgb(0,0,0);stroke-linecap:round;fill:rgb(116,196,118);" />
</g>
<path d="M426.616,1558.919 A1075.000,1075.000 40.000 0,1 460.427,1226.296 L412.075,1213.566 A1125.000,1125.000 0.000 0,0 376.691,1561.660 Z" style="stroke-linecap:round;fill:rgb(116,196,118);fill-opacity:0.33;" />
<text x="290.3" y="1386.6" font-size="18.2px" font-family="CMUBright-Roman" style="text-anchor:end;fill:rgb(0,0,0);" transform="rotate(5.8,290.3,1386.6)" >R<tspan baseline-shift="-40%" font-size="90%">s</tspan>caffold<tspan baseline-shift="-40%" font-size="90%">3</tspan></text>
<line x1='376.7' y1='1561.7' x2='356.7' y2='1562.8' style="stroke-width:4.0;stroke:rgb(0,0,0);stroke-linecap:round;fill:none;" />
<text x="347.1" y="1569.8" font-size="18.2px" font-family="CMUBright-Roman" style="text-anchor:end;fill:rgb(0,0,0);" transform="rotate(-3.1,347.1,1569.8)" >0</text>
<line x1='375.0' y1='1503.5' x2='355.0' y2='1503.5' style="stroke-width:4.0;stroke:rgb(0,0,0);stroke-linecap:round;fill:none;" />
<text x="345.0" y="1510.1" font-size="18.2px" font-family="CMUBright-Roman" style="text-anchor:end;fill:rgb(0,0,0);" transform="rotate(-0.2,345.0,1510.1)" >50</text>
<line x1='376.3' y1='1445.3' x2='356.4' y2='1444.3' style="stroke-width:4.0;stroke:rgb(0,0,0);stroke-linecap:round;fill:none;" />
<text x="346.1" y="1450.3" font-size="18.2px" font-family="CMUBright-Roman" style="text-anchor:end;fill:rgb(0,0,0);" transform="rotate(2.8,346.1,1450.3)" >100</text>
<line x1='380.7' y1='1387.2' x2='360.8' y2='1385.2' style="stroke-width:4.0;stroke:rgb(0,0,0);stroke-linecap:round;fill:none;" />
<text x="350.2" y="1390.7" font-size="18.2px" font-family="CMUBright-Roman" style="text-anchor:end;fill:rgb(0,0,0);" transform="rotate(5.8,350.2,1390.7)" >150</text>
<line x1='388.0' y1='1329.4' x2='368.2' y2='1326.4' style="stroke-width:4.0;stroke:rgb(0,0,0);stroke-linecap:round;fill:none;" />
<text x="357.4" y="1331.3" font-size="18.2px" font-family="CMUBright-Roman" style="text-anchor:end;fill:rgb(0,0,0);" transform="rotate(8.7,357.4,1331.3)" >200</text>
<line x1='398.3' y1='1272.1' x2='378.7' y2='1268.1' style="stroke-width:4.0;stroke:rgb(0,0,0);stroke-linecap:round;fill:none;" />
<text x="367.6" y="1272.4" font-size="18.2px" font-family="CMUBright-Roman" style="text-anchor:end;fill:rgb(0,0,0);" transform="rotate(11.7,367.6,1272.4)" >250</text>
<line x1='411.6' y1='1215.5' x2='392.2' y2='1210.4' style="stroke-width:4.0;stroke:rgb(0,0,0);stroke-linecap:round;fill:none;" />
<text x="380.9" y="1214.2" font-size="18.2px" font-family="CMUBright-Roman" style="text-anchor:end;fill:rgb(0,0,0);" transform="rotate(14.7,380.9,1214.2)" >300</text>
<g id="highlighttrack_0">
<path d="M427.620,1424.991 A1075.000,1075.000 40.000 0,1 427.841,1421.894 L377.973,1418.262 A1125.000,1125.000 0.000 0,0 377.742,1421.502 Z" style="stroke-width:4.0;stroke:rgb(0,0,0);stroke-linecap:round;fill:rgb(251,106,74);" />
</g>
<path d="M476.177,1172.264 A1075.000,1075.000 40.000 0,1 892.998,612.772 L864.766,571.505 A1125.000,1125.000 0.000 0,0 428.557,1157.021 Z" style="stroke-linecap:round;fill:rgb(116,196,118);fill-opacity:0.33;" />
<text x="520.0" y="781.8" font-size="18.2px" font-family="CMUBright-Roman" style="text-anchor:end;fill:rgb(0,0,0);" transform="rotate(36.7,520.0,781.8)" >R<tspan baseline-shift="-40%" font-size="90%">s</tspan>caffold<tspan baseline-shift="-40%" font-size="90%">1</tspan></text>
<line x1='428.6' y1='1157.0' x2='409.5' y2='1150.9' style="stroke-width:4.0;stroke:rgb(0,0,0);stroke-linecap:round;fill:none;" />
<text x="398.0" y="1154.1" font-size="18.2px" font-family="CMUBright-Roman" style="text-anchor:end;fill:rgb(0,0,0);" transform="rotate(17.8,398.0,1154.1)" >0</text>
<line x1='447.7' y1='1102.1' x2='429.0' y2='1095.0' style="stroke-width:4.0;stroke:rgb(0,0,0);stroke-linecap:round;fill:none;" />
<text x="417.4" y="1097.5" font-size="18.2px" font-family="CMUBright-Roman" style="text-anchor:end;fill:rgb(0,0,0);" transform="rotate(20.7,417.4,1097.5)" >50</text>
<line x1='469.7' y1='1048.1' x2='451.4' y2='1040.1' style="stroke-width:4.0;stroke:rgb(0,0,0);stroke-linecap:round;fill:none;" />
<text x="439.7" y="1042.1" font-size="18.2px" font-family="CMUBright-Roman" style="text-anchor:end;fill:rgb(0,0,0);" transform="rotate(23.7,439.7,1042.1)" >100</text>
<line x1='494.5' y1='995.5' x2='476.6' y2='986.5' style="stroke-width:4.0;stroke:rgb(0,0,0);stroke-linecap:round;fill:none;" />
<text x="464.8" y="987.8" font-size="18.2px" font-family="CMUBright-Roman" style="text-anchor:end;fill:rgb(0,0,0);" transform="rotate(26.6,464.8,987.8)" >150</text>
<line x1='521.9' y1='944.1' x2='504.5' y2='934.2' style="stroke-width:4.0;stroke:rgb(0,0,0);stroke-linecap:round;fill:none;" />
<text x="492.7" y="934.9" font-size="18.2px" font-family="CMUBright-Roman" style="text-anchor:end;fill:rgb(0,0,0);" transform="rotate(29.6,492.7,934.9)" >200</text>
<line x1='552.0' y1='894.3' x2='535.1' y2='883.5' style="stroke-width:4.0;stroke:rgb(0,0,0);stroke-linecap:round;fill:none;" />
<text x="523.2" y="883.6" font-size="18.2px" font-family="CMUBright-Roman" style="text-anchor:end;fill:rgb(0,0,0);" transform="rotate(32.6,523.2,883.6)" >250</text>
<line x1='584.6' y1='846.0' x2='568.3' y2='834.4' style="stroke-width:4.0;stroke:rgb(0,0,0);stroke-linecap:round;fill:none;" />
<text x="556.4" y="833.9" font-size="18.2px" font-family="CMUBright-Roman" style="text-anchor:end;fill:rgb(0,0,0);" transform="rotate(35.5,556.4,833.9)" >300</text>
<line x1='619.7' y1='799.5' x2='604.0' y2='787.1' style="stroke-width:4.0;stroke:rgb(0,0,0);stroke-linecap:round;fill:none;" />
<text x="592.2" y="786.0" font-size="18.2px" font-family="CMUBright-Roman" style="text-anchor:end;fill:rgb(0,0,0);" transform="rotate(38.5,592.2,786.0)" >350</text>
<line x1='657.1' y1='754.9' x2='642.1' y2='741.7' style="stroke-width:4.0;stroke:rgb(0,0,0);stroke-linecap:round;fill:none;" />
<text x="630.3" y="740.0" font-size="18.2px" font-family="CMUBright-Roman" style="text-anchor:end;fill:rgb(0,0,0);" transform="rotate(41.5,630.3,740.0)" >400</text>
<line x1='696.8' y1='712.3' x2='682.5' y2='698.3' style="stroke-width:4.0;stroke:rgb(0,0,0);stroke-linecap:round;fill:none;" />
<text x="670.8" y="696.0" font-size="18.2px" font-family="CMUBright-Roman" style="text-anchor:end;fill:rgb(0,0,0);" transform="rotate(44.4,670.8,696.0)" >450</text>
<line x1='738.6' y1='671.8' x2='725.0' y2='657.1' style="stroke-width:4.0;stroke:rgb(0,0,0);stroke-linecap:round;fill:none;" />
<text x="713.5" y="654.2" font-size="18.2px" font-family="CMUBright-Roman" style="text-anchor:end;fill:rgb(0,0,0);" transform="rotate(47.4,713.5,654.2)" >500</text>
<line x1='782.4' y1='633.5' x2='769.7' y2='618.1' style="stroke-width:4.0;stroke:rgb(0,0,0);stroke-linecap:round;fill:none;" />
<text x="758.3" y="614.6" font-size="18.2px" font-family="CMUBright-Roman" style="text-anchor:end;fill:rgb(0,0,0);" transform="rotate(50.4,758.3,614.6)" >550</text>
<line x1='828.2' y1='597.6' x2='816.3' y2='581.5' style="stroke-width:4.0;stroke:rgb(0,0,0);stroke-linecap:round;fill:none;" />
<text x="805.1" y="577.4" font-size="18.2px" font-family="CMUBright-Roman" style="text-anchor:end;fill:rgb(0,0,0);" transform="rotate(53.3,805.1,577.4)" >600</text>
<g id="highlighttrack_0">
<path d="M593.368,922.381 A1075.000,1075.000 40.000 0,1 594.723,920.260 L552.617,893.295 A1125.000,1125.000 0.000 0,0 551.199,895.515 Z" style="stroke-width:4.0;stroke:rgb(0,0,0);stroke-linecap:round;fill:rgb(116,196,118);" />
<path d="M519.745,1058.723 A1075.000,1075.000 40.000 0,1 520.788,1056.414 L475.243,1035.782 A1125.000,1125.000 0.000 0,0 474.152,1038.199 Z" style="stroke-width:4.0;stroke:rgb(0,0,0);stroke-linecap:round;fill:rgb(116,196,118);" />
<path d="M802.054,682.383 A1075.000,1075.000 40.000 0,1 814.889,671.599 L783.023,633.069 A1125.000,1125.000 0.000 0,0 769.592,644.355 Z" style="stroke-width:4.0;stroke:rgb(0,0,0);stroke-linecap:round;fill:rgb(116,196,118);" />
</g>
<path d="M940.264,582.220 A1075.000,1075.000 40.000 0,1 1096.589,503.564 L1077.826,457.218 A1125.000,1125.000 0.000 0,0 914.230,539.532 Z" style="stroke-linecap:round;fill:rgb(116,196,118);fill-opacity:0.33;" />
<text x="945.4" y="418.9" font-size="18.2px" font-family="CMUBright-Roman" style="text-anchor:end;fill:rgb(0,0,0);" transform="rotate(63.3,945.4,418.9)" >R<tspan baseline-shift="-40%" font-size="90%">s</tspan>caffold<tspan baseline-shift="-40%" font-size="90%">8</tspan></text>
<line x1='914.2' y1='539.5' x2='903.8' y2='522.5' style="stroke-width:4.0;stroke:rgb(0,0,0);stroke-linecap:round;fill:none;" />
<text x="893.1" y="517.3" font-size="18.2px" font-family="CMUBright-Roman" style="text-anchor:end;fill:rgb(0,0,0);" transform="rotate(58.6,893.1,517.3)" >0</text>
<line x1='964.7' y1='510.5' x2='955.2' y2='492.9' style="stroke-width:4.0;stroke:rgb(0,0,0);stroke-linecap:round;fill:none;" />
<text x="944.7" y="487.2" font-size="18.2px" font-family="CMUBright-Roman" style="text-anchor:end;fill:rgb(0,0,0);" transform="rotate(61.6,944.7,487.2)" >50</text>
<line x1='1016.6' y1='484.1' x2='1008.0' y2='466.1' style="stroke-width:4.0;stroke:rgb(0,0,0);stroke-linecap:round;fill:none;" />
<text x="997.9" y="459.9" font-size="18.2px" font-family="CMUBright-Roman" style="text-anchor:end;fill:rgb(0,0,0);" transform="rotate(64.6,997.9,459.9)" >100</text>
<line x1='1069.8' y1='460.5' x2='1062.2' y2='442.0' style="stroke-width:4.0;stroke:rgb(0,0,0);stroke-linecap:round;fill:none;" />
<text x="1052.3" y="435.3" font-size="18.2px" font-family="CMUBright-Roman" style="text-anchor:end;fill:rgb(0,0,0);" transform="rotate(67.5,1052.3,435.3)" >150</text>
<g id="highlighttrack_0">
<path d="M983.634,557.137 A1075.000,1075.000 40.000 0,1 987.598,554.977 L963.766,511.022 A1125.000,1125.000 0.000 0,0 959.617,513.283 Z" style="stroke-width:4.0;stroke:rgb(0,0,0);stroke-linecap:round;fill:rgb(116,196,118);" />
</g>
<path d="M1149.292,483.817 A1075.000,1075.000 40.000 0,1 1174.899,475.337 L1159.778,427.678 A1125.000,1125.000 0.000 0,0 1132.980,436.552 Z" style="stroke-linecap:round;fill:rgb(116,196,118);fill-opacity:0.33;" />
<text x="1109.1" y="349.6" font-size="18.2px" font-family="CMUBright-Roman" style="text-anchor:end;fill:rgb(0,0,0);" transform="rotate(71.7,1109.1,349.6)" >R<tspan baseline-shift="-40%" font-size="90%">s</tspan>caffold<tspan baseline-shift="-40%" font-size="90%">1</tspan>5</text>
<line x1='1133.0' y1='436.6' x2='1126.5' y2='417.6' style="stroke-width:4.0;stroke:rgb(0,0,0);stroke-linecap:round;fill:none;" />
<text x="1117.1" y="410.3" font-size="18.2px" font-family="CMUBright-Roman" style="text-anchor:end;fill:rgb(0,0,0);" transform="rotate(71.0,1117.1,410.3)" >0</text>
<g id="highlighttrack_0">
<path d="M1159.822,480.243 A1075.000,1075.000 40.000 0,1 1174.899,475.337 L1159.778,427.678 A1125.000,1125.000 0.000 0,0 1144.000,432.813 Z" style="stroke-width:4.0;stroke:rgb(0,0,0);stroke-linecap:round;fill:rgb(116,196,118);" />
</g>
<path d="M1228.971,459.727 A1075.000,1075.000 40.000 0,1 1246.456,455.328 L1234.664,406.738 A1125.000,1125.000 0.000 0,0 1216.365,411.342 Z" style="stroke-linecap:round;fill:rgb(116,196,118);fill-opacity:0.33;" />
<text x="1194.3" y="324.1" font-size="18.2px" font-family="CMUBright-Roman" style="text-anchor:end;fill:rgb(0,0,0);" transform="rotate(75.9,1194.3,324.1)" >R<tspan baseline-shift="-40%" font-size="90%">s</tspan>caffold<tspan baseline-shift="-40%" font-size="90%">1</tspan>6</text>
<line x1='1216.4' y1='411.3' x2='1211.3' y2='392.0' style="stroke-width:4.0;stroke:rgb(0,0,0);stroke-linecap:round;fill:none;" />
<text x="1202.5" y="384.0" font-size="18.2px" font-family="CMUBright-Roman" style="text-anchor:end;fill:rgb(0,0,0);" transform="rotate(75.4,1202.5,384.0)" >0</text>
<g id="highlighttrack_0">
<path d="M1229.000,459.719 A1075.000,1075.000 40.000 0,1 1246.456,455.328 L1234.664,406.738 A1125.000,1125.000 0.000 0,0 1216.396,411.334 Z" style="stroke-width:4.0;stroke:rgb(0,0,0);stroke-linecap:round;fill:rgb(116,196,118);" />
</g>
<path d="M1301.478,443.490 A1075.000,1075.000 40.000 0,1 1384.398,431.234 L1379.021,381.524 A1125.000,1125.000 0.000 0,0 1292.244,394.350 Z" style="stroke-linecap:round;fill:rgb(116,196,118);fill-opacity:0.33;" />
<text x="1313.0" y="299.5" font-size="18.2px" font-family="CMUBright-Roman" style="text-anchor:end;fill:rgb(0,0,0);" transform="rotate(81.6,1313.0,299.5)" >R<tspan baseline-shift="-40%" font-size="90%">s</tspan>caffold<tspan baseline-shift="-40%" font-size="90%">1</tspan>2</text>
<line x1='1292.2' y1='394.3' x2='1288.6' y2='374.7' style="stroke-width:4.0;stroke:rgb(0,0,0);stroke-linecap:round;fill:none;" />
<text x="1280.3" y="366.1" font-size="18.2px" font-family="CMUBright-Roman" style="text-anchor:end;fill:rgb(0,0,0);" transform="rotate(79.4,1280.3,366.1)" >0</text>
<line x1='1349.7' y1='385.1' x2='1347.0' y2='365.3' style="stroke-width:4.0;stroke:rgb(0,0,0);stroke-linecap:round;fill:none;" />
<text x="1339.3" y="356.2" font-size="18.2px" font-family="CMUBright-Roman" style="text-anchor:end;fill:rgb(0,0,0);" transform="rotate(82.3,1339.3,356.2)" >50</text>
<g id="highlighttrack_0">
<path d="M1314.156,441.186 A1075.000,1075.000 40.000 0,1 1341.843,436.698 L1334.487,387.242 A1125.000,1125.000 0.000 0,0 1305.512,391.939 Z" style="stroke-width:4.0;stroke:rgb(0,0,0);stroke-linecap:round;fill:rgb(116,196,118);" />
</g>
<path d="M1440.491,426.648 A1075.000,1075.000 40.000 0,1 1443.739,426.473 L1441.122,376.542 A1125.000,1125.000 0.000 0,0 1437.723,376.725 Z" style="stroke-linecap:round;fill:rgb(116,196,118);fill-opacity:0.33;" />
<text x="1425.1" y="287.3" font-size="18.2px" font-family="CMUBright-Roman" style="text-anchor:end;fill:rgb(0,0,0);" transform="rotate(86.9,1425.1,287.3)" >R<tspan baseline-shift="-40%" font-size="90%">s</tspan>caffold<tspan baseline-shift="-40%" font-size="90%">1</tspan>7</text>
<line x1='1437.7' y1='376.7' x2='1436.6' y2='356.8' style="stroke-width:4.0;stroke:rgb(0,0,0);stroke-linecap:round;fill:none;" />
<text x="1429.6" y="347.1" font-size="18.2px" font-family="CMUBright-Roman" style="text-anchor:end;fill:rgb(0,0,0);" transform="rotate(86.8,1429.6,347.1)" >0</text>
<g id="highlighttrack_0">
<path d="M1440.492,426.648 A1075.000,1075.000 40.000 0,1 1443.737,426.473 L1441.120,376.542 A1125.000,1125.000 0.000 0,0 1437.724,376.725 Z" style="stroke-width:4.0;stroke:rgb(0,0,0);stroke-linecap:round;fill:rgb(116,196,118);" />
</g>
</g>
<g id="track_0">
<path d="M 1598.406,440.309 A 1064.250,1064.250 0.00 0,1 1601.6,440.6 L 1601.6,440.6 1595.7,514.4 1592.2,584.5 1591.0,651.0 1591.7,714.4 1594.0,774.7 1597.9,832.2 1603.0,887.2 1609.2,939.8 1616.3,990.3 1624.2,1038.9 1632.6,1085.7 1641.6,1130.9 1651.0,1174.9 1660.7,1217.7 1670.6,1259.5 1680.7,1300.5 1691.1,1340.9 1701.5,1380.8 1712.2,1420.4 1723.1,1459.9 1734.2,1499.4 1745.6,1539.1 1757.3,1579.1 1769.6,1619.5 1782.4,1660.5 1795.9,1702.3 1810.3,1744.8 1825.8,1788.3 1842.4,1832.9 1860.5,1878.6 1880.2,1925.6 1901.8,1974.0 1925.5,2023.9 1951.6,2075.3 1980.4,2128.4 2012.2,2183.1 2047.3,2239.7 2086.1,2298.2 2128.9,2358.6  A 1064.250,1064.250 0.00 0,0 2131.5,2356.6 L 2131.5,2356.6 2088.5,2296.4 2049.6,2238.0 2014.3,2181.6 1982.3,2126.9 1953.4,2073.9 1927.1,2022.6 1903.2,1972.8 1881.5,1924.4 1861.7,1877.5 1843.5,1831.8 1826.7,1787.3 1811.1,1743.9 1796.6,1701.3 1782.9,1659.7 1769.9,1618.7 1757.6,1578.3 1745.7,1538.4 1734.2,1498.7 1722.9,1459.2 1712.0,1419.8 1701.2,1380.2 1690.6,1340.3 1680.1,1299.9 1669.9,1258.9 1659.8,1217.2 1650.0,1174.4 1640.5,1130.5 1631.4,1085.3 1622.8,1038.5 1614.8,990.0 1607.5,939.5 1601.1,886.9 1595.9,832.0 1591.8,774.4 1589.3,714.1 1588.4,650.8 1589.5,584.2 1592.7,514.1 1598.4,440.3  Z" style="stroke-width: 2.0;  stroke: rgb(82,82,82); fill: rgb(251,106,74); opacity: 0.667;" />
<path d="M 2550.308,1328.301 A 1064.250,1064.250 0.00 0,1 2551.4,1335.1 L 2551.4,1335.1 2478.8,1347.4 2411.3,1360.6 2348.3,1374.6 2289.8,1389.4 2235.3,1404.9 2184.6,1421.0 2137.5,1437.7 2093.6,1455.0 2052.8,1472.8 2014.9,1491.2 1979.5,1510.1 1946.7,1529.5 1916.0,1549.5 1887.5,1570.0 1860.9,1591.2 1836.0,1613.0 1812.9,1635.5 1791.3,1658.8 1771.1,1683.0 1752.4,1708.1 1734.9,1734.3 1718.7,1761.6 1703.6,1790.2 1689.7,1820.2 1677.0,1851.7 1665.4,1884.9 1654.9,1920.0 1645.6,1957.0 1637.5,1996.2 1630.7,2037.8 1625.2,2082.0 1621.0,2129.0 1618.3,2178.9 1617.2,2232.1 1617.8,2288.7 1620.3,2349.1 1624.6,2413.4 1631.2,2481.9 1640.0,2555.0  A 1064.250,1064.250 0.00 0,0 1646.8,2554.1 L 1646.8,2554.1 1637.5,2481.1 1630.5,2412.6 1625.7,2348.3 1622.9,2288.0 1622.0,2231.3 1622.7,2178.1 1625.1,2128.2 1628.9,2081.2 1634.2,2037.0 1640.7,1995.3 1648.6,1956.1 1657.6,1919.0 1667.9,1883.8 1679.3,1850.6 1691.8,1819.0 1705.5,1788.9 1720.4,1760.2 1736.4,1732.8 1753.7,1706.5 1772.3,1681.3 1792.3,1657.0 1813.8,1633.5 1836.8,1610.8 1861.4,1588.8 1887.9,1567.5 1916.3,1546.8 1946.8,1526.6 1979.6,1507.0 2014.8,1487.9 2052.6,1469.3 2093.3,1451.2 2137.1,1433.6 2184.1,1416.6 2234.7,1400.1 2289.0,1384.3 2347.5,1369.1 2410.3,1354.7 2477.8,1341.0 2550.3,1328.3  Z" style="stroke-width: 2.0;  stroke: rgb(82,82,82); fill: rgb(116,196,118); opacity: 0.667;" />
<path d="M 1825.543,486.763 A 1064.250,1064.250 0.00 0,1 1827.8,487.5 L 1827.8,487.5 1806.0,558.7 1787.3,627.5 1771.2,694.0 1757.4,758.3 1745.6,820.4 1735.3,880.4 1726.3,938.4 1718.2,994.5 1710.9,1048.8 1704.0,1101.3 1697.2,1152.2 1690.5,1201.6 1683.5,1249.6 1676.2,1296.3 1668.2,1341.9 1659.6,1386.5 1650.1,1430.2 1639.6,1473.2 1628.1,1515.5 1615.5,1557.5 1601.8,1599.2 1586.9,1640.9 1570.8,1682.6 1553.5,1724.6 1535.0,1767.0 1515.5,1810.1 1494.9,1854.0 1473.3,1898.9 1450.9,1945.1 1427.8,1992.8 1404.0,2042.2 1379.9,2093.4 1355.5,2146.8 1331.1,2202.6 1306.8,2261.0 1282.9,2322.2 1259.8,2386.6 1237.5,2454.4 1216.6,2525.8  A 1064.250,1064.250 0.00 0,0 1218.8,2526.4 L 1218.8,2526.4 1239.7,2455.0 1261.8,2387.2 1284.8,2322.7 1308.5,2261.4 1332.6,2203.0 1356.9,2147.1 1381.2,2093.7 1405.2,2042.4 1428.9,1993.0 1451.9,1945.3 1474.2,1899.0 1495.7,1854.0 1516.2,1810.0 1535.6,1766.9 1554.0,1724.5 1571.2,1682.4 1587.2,1640.7 1602.0,1599.0 1615.7,1557.3 1628.2,1515.3 1639.6,1472.8 1649.9,1429.8 1659.3,1386.1 1667.9,1341.5 1675.7,1295.9 1683.0,1249.2 1689.8,1201.2 1696.5,1151.8 1703.1,1100.8 1709.9,1048.3 1717.1,994.0 1725.0,937.9 1733.9,879.9 1744.0,819.8 1755.8,757.7 1769.4,693.4 1785.4,626.8 1803.9,558.0 1825.5,486.8  Z" style="stroke-width: 2.0;  stroke: rgb(82,82,82); fill: rgb(107,174,214); opacity: 0.667;" />
<path d="M 2462.186,1954.782 A 1064.250,1064.250 0.00 0,1 2460.3,1958.8 L 2460.3,1958.8 2393.9,1925.8 2332.0,1892.6 2274.0,1859.2 2219.8,1825.8 2168.9,1792.4 2121.1,1759.2 2076.1,1726.3 2033.6,1693.7 1993.2,1661.5 1954.8,1629.6 1918.2,1598.2 1883.0,1567.3 1849.0,1536.7 1816.1,1506.6 1784.1,1476.9 1752.7,1447.5 1721.9,1418.4 1691.3,1389.5 1661.0,1360.8 1630.8,1332.1 1600.6,1303.3 1570.2,1274.3 1539.5,1244.9 1508.6,1215.1 1477.2,1184.6 1445.5,1153.3 1413.3,1121.0 1380.5,1087.4 1347.3,1052.4 1313.5,1015.7 1279.3,977.0 1244.5,936.2 1209.4,892.9 1173.8,846.9 1137.9,797.8 1101.7,745.3 1065.4,689.2 1029.1,629.0 992.7,564.4  A 1064.250,1064.250 0.00 0,0 988.8,566.6 L 988.8,566.6 1025.4,631.0 1062.0,691.0 1098.6,747.0 1134.9,799.3 1171.1,848.2 1206.8,894.1 1242.2,937.3 1277.1,978.0 1311.5,1016.5 1345.4,1053.0 1378.8,1087.9 1411.7,1121.3 1444.0,1153.5 1475.9,1184.7 1507.4,1215.1 1538.4,1244.8 1569.2,1274.0 1599.7,1302.8 1630.1,1331.5 1660.5,1360.1 1690.9,1388.7 1721.5,1417.5 1752.5,1446.4 1784.0,1475.7 1816.1,1505.3 1849.2,1535.3 1883.2,1565.7 1918.6,1596.5 1955.4,1627.7 1993.9,1659.4 2034.4,1691.5 2077.1,1723.9 2122.2,1756.6 2170.2,1789.6 2221.2,1822.7 2275.5,1855.9 2333.6,1889.1 2395.7,1922.1 2462.2,1954.8  Z" style="stroke-width: 2.0;  stroke: rgb(82,82,82); fill: rgb(253,141,60); opacity: 0.667;" />
<path d="M 1163.224,490.441 A 1064.250,1064.250 0.00 0,1 1178.2,485.6 L 1178.2,485.6 1201.6,555.8 1226.0,621.7 1251.0,683.6 1276.6,741.8 1302.5,796.7 1328.8,848.4 1355.1,897.4 1381.5,943.8 1407.8,987.9 1434.1,1030.1 1460.2,1070.4 1486.1,1109.2 1511.7,1146.7 1537.2,1183.0 1562.4,1218.4 1587.4,1253.1 1612.2,1287.2 1636.9,1320.8 1661.6,1354.3 1686.3,1387.5 1711.2,1420.8 1736.2,1454.2 1761.6,1487.9 1787.6,1521.9 1814.2,1556.3 1841.6,1591.1 1870.0,1626.6 1899.6,1662.6 1930.7,1699.2 1963.4,1736.6 1998.0,1774.6 2034.8,1813.3 2074.0,1852.7 2116.0,1892.7 2160.9,1933.5 2209.2,1974.8 2261.2,2016.7 2317.2,2059.1 2377.7,2101.9  A 1064.250,1064.250 0.00 0,0 2386.4,2088.9 L 2386.4,2088.9 2325.4,2047.0 2268.8,2005.4 2216.2,1964.3 2167.2,1923.7 2121.7,1883.6 2079.1,1844.2 2039.4,1805.4 2002.0,1767.2 1966.8,1729.7 1933.6,1692.9 1902.0,1656.7 1871.8,1621.1 1842.9,1586.1 1814.9,1551.6 1787.9,1517.6 1761.4,1484.0 1735.5,1450.8 1710.0,1417.7 1684.6,1384.8 1659.5,1351.9 1634.3,1318.8 1609.1,1285.5 1583.7,1251.8 1558.2,1217.5 1532.5,1182.5 1506.5,1146.5 1480.3,1109.5 1453.8,1071.1 1427.2,1031.1 1400.3,989.4 1373.3,945.6 1346.2,899.6 1319.2,851.0 1292.2,799.7 1265.4,745.2 1239.0,687.4 1213.1,625.9 1187.8,560.3 1163.2,490.4  Z" style="stroke-width: 2.0;  stroke: rgb(82,82,82); fill: rgb(255,0,0); opacity: 0.667;" />
<path d="M 1441.087,437.382 A 1064.250,1064.250 0.00 0,1 1444.3,437.2 L 1444.3,437.2 1449.3,511.1 1456.2,580.9 1464.8,647.0 1474.9,709.7 1486.1,769.1 1498.4,825.5 1511.6,879.3 1525.5,930.6 1539.9,979.6 1554.8,1026.7 1570.0,1071.9 1585.4,1115.6 1601.1,1157.9 1616.8,1199.0 1632.6,1239.2 1648.5,1278.5 1664.4,1317.3 1680.4,1355.5 1696.4,1393.5 1712.6,1431.3 1729.0,1469.1 1745.7,1507.1 1762.7,1545.3 1780.3,1584.0 1798.4,1623.1 1817.3,1662.9 1837.2,1703.4 1858.1,1744.7 1880.4,1786.9 1904.2,1830.2 1929.8,1874.4 1957.3,1919.9 1987.1,1966.5 2019.5,2014.3 2054.8,2063.5 2093.2,2114.0 2135.1,2165.8 2180.9,2219.0 2230.9,2273.6  A 1064.250,1064.250 0.00 0,0 2233.2,2271.4 L 2233.2,2271.4 2183.0,2216.9 2137.1,2163.9 2095.0,2112.2 2056.5,2061.8 2021.1,2012.8 1988.5,1965.0 1958.6,1918.5 1930.9,1873.1 1905.2,1828.9 1881.3,1785.8 1858.9,1743.6 1837.8,1702.4 1817.8,1661.9 1798.8,1622.2 1780.5,1583.1 1762.9,1544.5 1745.7,1506.3 1728.9,1468.4 1712.4,1430.7 1696.1,1392.9 1679.9,1355.0 1663.8,1316.8 1647.8,1278.1 1631.8,1238.8 1615.9,1198.7 1600.0,1157.6 1584.3,1115.3 1568.7,1071.7 1553.3,1026.5 1538.3,979.5 1523.7,930.5 1509.7,879.3 1496.4,825.5 1483.9,769.1 1472.5,709.7 1462.3,647.1 1453.5,581.1 1446.3,511.2 1441.1,437.4  Z" style="stroke-width: 2.0;  stroke: rgb(82,82,82); fill: rgb(255,0,204); opacity: 0.667;" />
<path d="M 602.434,928.157 A 1064.250,1064.250 0.00 0,1 603.8,926.1 L 603.8,926.1 666.8,965.0 727.7,1000.1 786.7,1031.8 843.7,1060.2 898.9,1085.9 952.3,1109.0 1004.0,1129.9 1054.2,1148.9 1102.9,1166.2 1150.2,1182.1 1196.3,1196.7 1241.2,1210.4 1285.0,1223.2 1328.0,1235.3 1370.2,1246.9 1411.7,1258.2 1452.7,1269.2 1493.4,1280.0 1533.8,1290.7 1574.1,1301.3 1614.5,1312.0 1655.2,1322.7 1696.3,1333.4 1737.9,1344.2 1780.4,1354.9 1823.7,1365.6 1868.2,1376.2 1913.9,1386.5 1961.2,1396.6 2010.2,1406.2 2061.1,1415.2 2114.1,1423.5 2169.4,1430.9 2227.3,1437.2 2287.9,1442.1 2351.6,1445.6 2418.4,1447.2 2488.7,1446.8 2562.8,1444.1  A 1064.250,1064.250 0.00 0,0 2562.6,1441.6 L 2562.6,1441.6 2488.6,1444.5 2418.3,1445.1 2351.4,1443.6 2287.8,1440.3 2227.1,1435.5 2169.2,1429.3 2113.9,1422.0 2060.9,1413.9 2010.0,1405.0 1961.0,1395.5 1913.7,1385.6 1867.9,1375.3 1823.4,1364.9 1780.0,1354.3 1737.6,1343.6 1695.9,1333.0 1654.8,1322.3 1614.1,1311.7 1573.7,1301.2 1533.3,1290.6 1492.8,1280.0 1452.2,1269.3 1411.1,1258.4 1369.6,1247.2 1327.4,1235.7 1284.4,1223.7 1240.5,1211.0 1195.5,1197.5 1149.5,1182.9 1102.1,1167.2 1053.4,1150.0 1003.2,1131.1 951.4,1110.3 897.9,1087.3 842.7,1061.8 785.6,1033.4 726.6,1001.9 665.5,967.0 602.4,928.2  Z" style="stroke-width: 2.0;  stroke: rgb(82,82,82); fill: rgb(255,204,204); opacity: 0.667;" />
<path d="M 647.280,2136.787 A 1064.250,1064.250 0.00 0,1 642.5,2130.3 L 642.5,2130.3 701.7,2085.2 757.2,2040.3 809.1,1995.7 858.0,1951.5 904.0,1908.0 947.5,1865.3 988.8,1823.5 1028.2,1782.7 1066.0,1742.9 1102.5,1704.4 1137.9,1667.0 1172.4,1630.9 1206.3,1596.2 1239.8,1562.7 1273.1,1530.5 1306.4,1499.6 1339.9,1470.0 1373.8,1441.5 1408.1,1414.2 1443.2,1387.8 1479.0,1362.5 1515.8,1337.9 1553.6,1314.0 1592.6,1290.6 1632.8,1267.6 1674.3,1244.7 1717.1,1221.9 1761.4,1198.8 1807.1,1175.3 1854.3,1151.0 1903.0,1125.8 1953.2,1099.3 2004.9,1071.3 2058.1,1041.4 2112.7,1009.4 2168.7,974.8 2226.0,937.3 2284.6,896.6 2344.4,852.3  A 1064.250,1064.250 0.00 0,0 2339.6,846.0 L 2339.6,846.0 2280.1,890.8 2221.8,931.9 2164.7,969.8 2109.0,1004.8 2054.6,1037.2 2001.7,1067.5 1950.2,1095.9 1900.2,1122.8 1851.7,1148.4 1804.7,1173.0 1759.1,1196.9 1715.0,1220.3 1672.3,1243.5 1631.0,1266.6 1591.0,1289.9 1552.2,1313.6 1514.6,1337.8 1478.0,1362.6 1442.4,1388.3 1407.5,1414.9 1373.3,1442.5 1339.7,1471.2 1306.4,1501.1 1273.3,1532.2 1240.3,1564.7 1207.0,1598.4 1173.4,1633.4 1139.1,1669.8 1104.1,1707.4 1067.9,1746.2 1030.4,1786.2 991.3,1827.3 950.3,1869.5 907.1,1912.5 861.4,1956.4 812.9,2000.9 761.3,2045.9 706.2,2091.3 647.3,2136.8  Z" style="stroke-width: 2.0;  stroke: rgb(82,82,82); fill: rgb(255,153,0); opacity: 0.667;" />
<path d="M 438.344,1425.741 A 1064.250,1064.250 0.00 0,1 438.6,1422.7 L 438.6,1422.7 512.8,1426.9 583.9,1428.7 651.9,1428.4 717.2,1426.4 779.8,1422.9 840.0,1418.4 897.8,1412.9 953.6,1406.9 1007.3,1400.5 1059.3,1394.0 1109.7,1387.4 1158.7,1381.1 1206.4,1375.2 1253.0,1369.7 1298.7,1364.9 1343.7,1360.8 1388.1,1357.4 1432.0,1354.9 1475.7,1353.3 1519.4,1352.6 1563.1,1352.8 1607.2,1353.8 1651.6,1355.7 1696.7,1358.3 1742.5,1361.6 1789.3,1365.5 1837.2,1369.9 1886.3,1374.6 1936.9,1379.4 1989.1,1384.3 2043.1,1388.9 2099.0,1393.1 2157.0,1396.6 2217.2,1399.2 2279.9,1400.5 2345.2,1400.4 2413.3,1398.4 2484.2,1394.3 2558.3,1387.6  A 1064.250,1064.250 0.00 0,0 2558.0,1384.6 L 2558.0,1384.6 2483.9,1391.4 2413.0,1395.8 2344.9,1397.9 2279.6,1398.3 2216.9,1397.1 2156.7,1394.7 2098.7,1391.3 2042.7,1387.3 1988.8,1382.9 1936.6,1378.2 1886.0,1373.5 1836.8,1368.9 1788.9,1364.7 1742.1,1360.9 1696.3,1357.8 1651.2,1355.2 1606.7,1353.5 1562.7,1352.6 1519.0,1352.5 1475.3,1353.4 1431.6,1355.1 1387.6,1357.8 1343.3,1361.2 1298.3,1365.5 1252.7,1370.4 1206.1,1376.0 1158.4,1382.1 1109.4,1388.6 1059.0,1395.2 1007.1,1401.9 953.3,1408.5 897.6,1414.7 839.7,1420.3 779.6,1425.0 717.0,1428.6 651.7,1430.8 583.7,1431.3 512.6,1429.7 438.3,1425.7  Z" style="stroke-width: 2.0;  stroke: rgb(82,82,82); fill: rgb(255,204,0); opacity: 0.667;" />
<path d="M 474.833,1785.762 A 1064.250,1064.250 0.00 0,1 474.2,1783.5 L 474.2,1783.5 545.5,1762.6 612.9,1740.4 676.7,1717.4 737.3,1693.6 794.7,1669.4 849.5,1644.9 901.7,1620.3 951.7,1595.8 999.7,1571.5 1045.9,1547.6 1090.6,1524.2 1134.0,1501.4 1176.3,1479.2 1217.7,1457.8 1258.4,1437.1 1298.7,1417.1 1338.6,1398.0 1378.4,1379.7 1418.2,1362.1 1458.3,1345.2 1498.7,1328.9 1539.6,1313.2 1581.2,1298.0 1623.5,1283.0 1666.8,1268.3 1711.0,1253.6 1756.4,1238.8 1803.0,1223.7 1851.0,1208.0 1900.4,1191.6 1951.2,1174.1 2003.7,1155.4 2057.7,1135.1 2113.5,1113.0 2170.9,1088.8 2230.2,1062.0 2291.3,1032.4 2354.2,999.6 2418.9,963.1  A 1064.250,1064.250 0.00 0,0 2417.8,961.2 L 2417.8,961.2 2353.1,997.7 2290.2,1030.7 2229.2,1060.4 2170.0,1087.3 2112.6,1111.7 2056.9,1133.9 2002.9,1154.3 1950.5,1173.1 1899.7,1190.7 1850.4,1207.2 1802.4,1223.0 1755.8,1238.3 1710.5,1253.2 1666.2,1268.0 1623.0,1282.8 1580.7,1297.8 1539.2,1313.1 1498.3,1328.9 1457.9,1345.3 1417.9,1362.3 1378.1,1379.9 1338.4,1398.4 1298.5,1417.6 1258.3,1437.6 1217.6,1458.4 1176.2,1479.9 1134.0,1502.2 1090.7,1525.1 1046.0,1548.6 999.8,1572.6 951.9,1597.0 902.0,1621.6 849.8,1646.3 795.1,1670.9 737.7,1695.3 677.2,1719.2 613.4,1742.4 546.1,1764.7 474.8,1785.8  Z" style="stroke-width: 2.0;  stroke: rgb(82,82,82); fill: rgb(255,255,0); opacity: 0.667;" />
<path d="M 529.548,1063.136 A 1064.250,1064.250 0.00 0,1 530.6,1060.8 L 530.6,1060.8 598.5,1090.4 663.8,1116.3 726.6,1139.1 787.0,1159.0 845.1,1176.4 901.1,1191.6 955.1,1204.7 1007.3,1216.2 1057.8,1226.1 1106.7,1234.8 1154.1,1242.4 1200.3,1249.1 1245.3,1255.1 1289.4,1260.5 1332.6,1265.5 1375.1,1270.1 1417.0,1274.5 1458.6,1278.7 1500.0,1282.7 1541.3,1286.7 1582.6,1290.6 1624.2,1294.3 1666.3,1298.0 1708.9,1301.5 1752.3,1304.9 1796.5,1307.9 1841.9,1310.5 1888.5,1312.7 1936.5,1314.2 1986.2,1315.0 2037.6,1314.8 2091.0,1313.5 2146.5,1310.8 2204.4,1306.6 2264.8,1300.6 2327.9,1292.4 2393.8,1282.0 2462.8,1268.9 2535.1,1252.8  A 1064.250,1064.250 0.00 0,0 2534.6,1250.4 L 2534.6,1250.4 2462.3,1266.6 2393.3,1279.9 2327.4,1290.5 2264.3,1298.8 2204.0,1304.9 2146.1,1309.3 2090.6,1312.1 2037.2,1313.5 1985.7,1313.9 1936.1,1313.2 1888.0,1311.8 1841.4,1309.7 1796.1,1307.2 1751.8,1304.3 1708.4,1301.0 1665.8,1297.6 1623.8,1294.0 1582.1,1290.4 1540.8,1286.6 1499.5,1282.7 1458.1,1278.8 1416.5,1274.7 1374.5,1270.4 1332.0,1265.9 1288.8,1261.0 1244.7,1255.7 1199.7,1249.8 1153.5,1243.2 1106.0,1235.7 1057.1,1227.1 1006.6,1217.3 954.4,1206.0 900.4,1193.0 844.3,1178.0 786.2,1160.7 725.7,1140.9 662.9,1118.3 597.6,1092.5 529.5,1063.1  Z" style="stroke-width: 2.0;  stroke: rgb(82,82,82); fill: rgb(204,255,0); opacity: 0.667;" />
<path d="M 2497.486,1128.987 A 1064.250,1064.250 0.00 0,1 2498.6,1132.0 L 2498.6,1132.0 2429.8,1158.4 2365.8,1185.1 2306.4,1211.8 2251.2,1238.6 2200.0,1265.5 2152.3,1292.4 2108.0,1319.3 2066.8,1346.2 2028.4,1373.1 1992.7,1400.0 1959.3,1426.9 1928.1,1453.8 1898.8,1480.8 1871.4,1508.0 1845.6,1535.3 1821.4,1562.9 1798.5,1590.9 1776.8,1619.2 1756.3,1648.1 1736.9,1677.5 1718.4,1707.7 1700.8,1738.8 1684.1,1770.8 1668.3,1804.0 1653.3,1838.4 1639.1,1874.3 1625.7,1911.8 1613.2,1951.1 1601.6,1992.3 1590.9,2035.8 1581.3,2081.7 1572.8,2130.1 1565.4,2181.4 1559.4,2235.8 1554.8,2293.5 1551.8,2354.8 1550.6,2419.9 1551.2,2489.2 1554.0,2562.9  A 1064.250,1064.250 0.00 0,0 1557.2,2562.7 L 1557.2,2562.7 1554.3,2489.0 1553.4,2419.8 1554.4,2354.6 1557.3,2293.3 1561.7,2235.6 1567.5,2181.2 1574.7,2129.9 1583.1,2081.4 1592.6,2035.5 1603.1,1992.0 1614.6,1950.7 1627.0,1911.4 1640.2,1873.9 1654.3,1837.9 1669.2,1803.4 1685.0,1770.2 1701.6,1738.2 1719.0,1707.1 1737.4,1676.8 1756.8,1647.3 1777.2,1618.4 1798.7,1590.0 1821.6,1562.0 1845.8,1534.3 1871.4,1506.9 1898.8,1479.6 1927.9,1452.5 1959.1,1425.5 1992.4,1398.5 2028.1,1371.5 2066.3,1344.5 2107.5,1317.5 2151.7,1290.4 2199.3,1263.4 2250.4,1236.4 2305.5,1209.4 2364.9,1182.4 2428.7,1155.6 2497.5,1129.0  Z" style="stroke-width: 2.0;  stroke: rgb(82,82,82); fill: rgb(0,255,0); opacity: 0.667;" />
<path d="M 2121.234,635.884 A 1064.250,1064.250 0.00 0,1 2123.8,637.7 L 2123.8,637.7 2081.2,698.7 2042.2,758.3 2006.6,816.5 1973.9,873.2 1943.7,928.4 1915.7,982.1 1889.7,1034.3 1865.2,1085.0 1842.0,1134.3 1819.8,1182.0 1798.4,1228.4 1777.5,1273.4 1756.9,1317.0 1736.4,1359.4 1715.8,1400.6 1694.9,1440.8 1673.5,1480.0 1651.6,1518.3 1629.0,1555.9 1605.6,1592.8 1581.3,1629.3 1556.0,1665.5 1529.7,1701.5 1502.3,1737.5 1473.8,1773.8 1444.2,1810.4 1413.6,1847.7 1381.8,1885.8 1349.1,1925.0 1315.3,1965.4 1280.7,2007.4 1245.3,2051.2 1209.2,2097.1 1172.6,2145.3 1135.5,2196.2 1098.2,2250.0 1060.9,2307.0 1023.6,2367.7 986.7,2432.3  A 1064.250,1064.250 0.00 0,0 989.4,2433.8 L 989.4,2433.8 1026.2,2369.1 1063.2,2308.3 1100.5,2251.1 1137.6,2197.2 1174.5,2146.3 1211.0,2097.9 1246.9,2051.9 1282.2,2008.1 1316.7,1966.0 1350.3,1925.4 1383.0,1886.2 1414.6,1848.0 1445.1,1810.6 1474.6,1773.9 1503.0,1737.5 1530.3,1701.4 1556.5,1665.3 1581.7,1629.1 1605.9,1592.5 1629.2,1555.5 1651.7,1517.8 1673.5,1479.5 1694.7,1440.2 1715.5,1400.0 1736.0,1358.7 1756.4,1316.2 1776.8,1272.5 1797.6,1227.5 1818.9,1181.1 1840.9,1133.3 1864.0,1084.0 1888.3,1033.2 1914.2,980.9 1942.0,927.1 1972.0,871.8 2004.6,815.0 2040.0,756.7 2078.8,697.0 2121.2,635.9  Z" style="stroke-width: 2.0;  stroke: rgb(82,82,82); fill: rgb(53,128,0); opacity: 0.667;" />
<path d="M 1316.014,451.774 A 1064.250,1064.250 0.00 0,1 1343.4,447.3 L 1343.4,447.3 1355.5,520.4 1369.0,589.3 1383.8,654.2 1399.8,715.6 1416.6,773.7 1434.3,828.7 1452.5,881.0 1471.2,930.7 1490.2,978.1 1509.5,1023.5 1528.9,1067.1 1548.5,1109.1 1568.1,1149.7 1587.7,1189.2 1607.2,1227.6 1626.8,1265.3 1646.3,1302.3 1665.9,1338.8 1685.5,1375.1 1705.2,1411.2 1725.2,1447.2 1745.4,1483.4 1766.0,1519.8 1787.2,1556.6 1809.0,1593.8 1831.7,1631.5 1855.3,1669.9 1880.1,1709.0 1906.4,1748.9 1934.2,1789.7 1963.9,1831.3 1995.7,1873.8 2029.9,1917.3 2066.7,1961.8 2106.5,2007.4 2149.6,2053.9 2196.4,2101.4 2247.0,2150.0 2302.1,2199.5  A 1064.250,1064.250 0.00 0,0 2321.9,2176.1 L 2321.9,2176.1 2265.5,2128.2 2213.4,2081.1 2165.3,2035.0 2120.9,1989.7 2079.8,1945.4 2041.7,1901.9 2006.3,1859.4 1973.3,1817.8 1942.5,1777.1 1913.5,1737.2 1886.1,1698.1 1860.2,1659.7 1835.5,1622.0 1811.8,1584.9 1789.0,1548.4 1766.8,1512.2 1745.2,1476.4 1724.0,1440.8 1703.0,1405.4 1682.3,1369.8 1661.7,1334.2 1641.2,1298.2 1620.7,1261.7 1600.1,1224.7 1579.5,1186.8 1558.9,1147.9 1538.3,1107.8 1517.6,1066.4 1497.0,1023.3 1476.6,978.5 1456.3,931.6 1436.3,882.4 1416.8,830.6 1397.7,776.1 1379.3,718.5 1361.8,657.5 1345.3,593.0 1329.9,524.5 1316.0,451.8  Z" style="stroke-width: 2.0;  stroke: rgb(82,82,82); fill: rgb(0,0,204); opacity: 0.667;" />
<path d="M 2486.341,1899.699 A 1064.250,1064.250 0.00 0,1 2479.9,1915.2 L 2479.9,1915.2 2412.1,1885.1 2348.5,1854.6 2288.8,1823.6 2232.6,1792.4 2179.7,1761.1 2129.7,1729.9 2082.4,1698.8 2037.4,1668.0 1994.6,1637.6 1953.6,1607.6 1914.2,1578.0 1876.2,1548.9 1839.3,1520.4 1803.3,1492.4 1768.1,1465.0 1733.5,1438.0 1699.2,1411.5 1665.1,1385.5 1631.0,1359.8 1596.9,1334.3 1562.5,1309.1 1527.8,1283.9 1492.6,1258.6 1456.8,1233.1 1420.4,1207.2 1383.3,1180.7 1345.4,1153.6 1306.7,1125.4 1267.1,1096.2 1226.6,1065.5 1185.2,1033.1 1142.8,998.9 1099.5,962.4 1055.3,923.5 1010.1,881.7 964.2,836.8 917.4,788.5 869.9,736.3 821.7,679.9  A 1064.250,1064.250 0.00 0,0 809.0,690.6 L 809.0,690.6 858.1,746.2 906.4,797.6 953.9,845.3 1000.6,889.4 1046.3,930.5 1091.1,968.7 1135.0,1004.5 1177.9,1038.1 1219.9,1069.8 1260.8,1099.8 1300.9,1128.5 1340.1,1156.0 1378.4,1182.6 1415.9,1208.4 1452.7,1233.8 1488.8,1258.7 1524.4,1283.4 1559.5,1308.1 1594.3,1332.8 1628.8,1357.7 1663.3,1382.9 1697.8,1408.4 1732.5,1434.3 1767.6,1460.7 1803.2,1487.6 1839.6,1515.1 1876.9,1543.0 1915.4,1571.5 1955.2,1600.4 1996.7,1629.8 2040.0,1659.6 2085.5,1689.7 2133.3,1720.0 2183.7,1750.4 2237.1,1780.8 2293.8,1811.1 2354.0,1841.2 2418.1,1870.7 2486.3,1899.7  Z" style="stroke-width: 2.0;  stroke: rgb(82,82,82); fill: rgb(102,153,255); opacity: 0.667;" />
<path d="M 1231.710,470.122 A 1064.250,1064.250 0.00 0,1 1249.0,465.8 L 1249.0,465.8 1267.6,537.4 1287.3,604.8 1307.9,668.1 1329.3,727.8 1351.3,784.1 1373.8,837.3 1396.7,887.6 1419.8,935.4 1443.0,980.8 1466.4,1024.3 1489.7,1065.8 1512.9,1105.8 1536.1,1144.4 1559.3,1181.8 1582.3,1218.2 1605.2,1253.8 1628.1,1288.8 1650.9,1323.3 1673.8,1357.5 1696.9,1391.5 1720.1,1425.5 1743.6,1459.5 1767.6,1493.7 1792.2,1528.2 1817.4,1563.1 1843.6,1598.5 1870.8,1634.3 1899.3,1670.8 1929.2,1707.9 1960.9,1745.7 1994.5,1784.1 2030.3,1823.3 2068.5,1863.2 2109.5,1903.9 2153.6,1945.2 2201.1,1987.2 2252.2,2029.9 2307.4,2073.2 2367.1,2117.1  A 1064.250,1064.250 0.00 0,0 2377.3,2102.5 L 2377.3,2102.5 2316.9,2059.6 2261.0,2017.3 2209.1,1975.4 2161.0,1934.2 2116.2,1893.6 2074.5,1853.7 2035.6,1814.4 1999.2,1775.8 1964.9,1737.9 1932.7,1700.7 1902.1,1664.1 1873.0,1628.1 1845.2,1592.7 1818.5,1557.8 1792.6,1523.3 1767.5,1489.3 1742.9,1455.4 1718.8,1421.8 1695.0,1388.2 1671.4,1354.6 1647.9,1320.8 1624.5,1286.7 1601.1,1252.1 1577.5,1216.9 1553.9,1180.9 1530.2,1143.9 1506.3,1105.7 1482.4,1066.1 1458.4,1024.9 1434.4,981.9 1410.4,936.8 1386.5,889.4 1362.8,839.5 1339.4,786.7 1316.4,730.8 1294.0,671.5 1272.3,608.5 1251.5,541.5 1231.7,470.1  Z" style="stroke-width: 2.0;  stroke: rgb(82,82,82); fill: rgb(153,204,255); opacity: 0.667;" />
</g>
<defs>
<pattern id="hline-sparse" width="10" height="10" patternTransform="rotate(0 0 0)" patternUnits="userSpaceOnUse"><line x1="0" y1="0" x2="10" y2="0" style="stroke:black;stroke-width:2" /></pattern>
<pattern id="checker" width="10" height="10" patternTransform="rotate(45 0 0)" patternUnits="userSpaceOnUse"><line x1="0" y1="0" x2="10" y2="0" style="stroke:black;stroke-width:2" /><line x1="0" y1="0" x2="0" y2="10" style="stroke:black;stroke-width:2" /></pattern>
<pattern id="checker" width="10" height="10" patternTransform="rotate(45 0 0)" patternUnits="userSpaceOnUse"><line x1="0" y1="0" x2="10" y2="0" style="stroke:black;stroke-width:5" /><line x1="0" y1="0" x2="0" y2="10" style="stroke:black;stroke-width:4" /></pattern>
<pattern id="hline" width="10" height="10" patternTransform="rotate(0 0 0)" patternUnits="userSpaceOnUse"><line x1="0" y1="0" x2="10" y2="0" style="stroke:black;stroke-width:5" /></pattern>
<pattern id="vline-sparse" width="10" height="10" patternTransform="rotate(0 0 0)" patternUnits="userSpaceOnUse"><line x1="0" y1="0" x2="0" y2="10" style="stroke:black;stroke-width:2" /></pattern>
<pattern id="vline" width="10" height="10" patternTransform="rotate(0 0 0)" patternUnits="userSpaceOnUse"><line x1="0" y1="0" x2="0" y2="10" style="stroke:black;stroke-width:5" /></pattern>
</defs>
</svg>
