<?xml version="1.0" encoding="utf-8" standalone="no"?>
<!DOCTYPE svg PUBLIC "-//W3C//DTD SVG 1.1//EN" "http://www.w3.org/Graphics/SVG/1.1/DTD/svg11.dtd">
<svg width="3000px" height="3000px" version="1.1" xmlns="http://www.w3.org/2000/svg" xmlns:xlink="http://www.w3.org/1999/xlink">
<g id="ideograms">
<path d="M1500.000,425.000 A1075.000,1075.000 40.000 0,1 1530.823,425.442 L1532.257,375.463 A1125.000,1125.000 0.000 0,0 1500.000,375.000 Z" style="stroke-linecap:round;fill:rgb(116,196,118);fill-opacity:0.33;" />
<text x="1526.9" y="285.3" font-size="18.2px" font-family="CMUBright-Roman" style="text-anchor:start;fill:rgb(0,0,0);" transform="rotate(270.8,1526.9,285.3)" >R<tspan baseline-shift="-40%" font-size="90%">s</tspan>caffold<tspan baseline-shift="-40%" font-size="90%">1</tspan>5</text>
<line x1='1500.0' y1='375.0' x2='1500.0' y2='355.0' style="stroke-width:4.0;stroke:rgb(0,0,0);stroke-linecap:round;fill:none;" />
<text x="1506.5" y="345.0" font-size="18.2px" font-family="CMUBright-Roman" style="text-anchor:start;fill:rgb(0,0,0);" transform="rotate(270.0,1506.5,345.0)" >0</text>
<g id="highlighttrack_0">
<path d="M1522.316,425.232 A1075.000,1075.000 40.000 0,1 1526.552,425.328 L1527.787,375.343 A1125.000,1125.000 0.000 0,0 1523.354,375.242 Z" style="stroke-width:4.0;stroke:rgb(0,0,0);stroke-linecap:round;fill:rgb(116,196,118);" />
</g>
<path d="M1596.275,429.320 A1075.000,1075.000 40.000 0,1 1599.977,429.659 L1604.627,379.876 A1125.000,1125.000 0.000 0,0 1600.753,379.521 Z" style="stroke-linecap:round;fill:rgb(116,196,118);fill-opacity:0.33;" />
<text x="1620.4" y="291.0" font-size="18.2px" font-family="CMUBright-Roman" style="text-anchor:start;fill:rgb(0,0,0);" transform="rotate(275.2,1620.4,291.0)" >R<tspan baseline-shift="-40%" font-size="90%">s</tspan>caffold<tspan baseline-shift="-40%" font-size="90%">1</tspan>7</text>
<line x1='1600.8' y1='379.5' x2='1602.5' y2='359.6' style="stroke-width:4.0;stroke:rgb(0,0,0);stroke-linecap:round;fill:none;" />
<text x="1609.9" y="350.2" font-size="18.2px" font-family="CMUBright-Roman" style="text-anchor:start;fill:rgb(0,0,0);" transform="rotate(275.1,1609.9,350.2)" >0</text>
<g id="highlighttrack_0">
<path d="M1596.299,429.322 A1075.000,1075.000 40.000 0,1 1599.934,429.655 L1604.582,379.872 A1125.000,1125.000 0.000 0,0 1600.778,379.523 Z" style="stroke-width:4.0;stroke:rgb(0,0,0);stroke-linecap:round;fill:rgb(116,196,118);" />
</g>
<path d="M1665.043,437.745 A1075.000,1075.000 40.000 1,1 1434.464,427.000 L1431.416,377.093 A1125.000,1125.000 0.000 1,0 1672.720,388.338 Z" style="stroke-linecap:round;fill:rgb(116,196,118);fill-opacity:0.33;" />
<text x="1452.9" y="2714.1" font-size="18.2px" font-family="CMUBright-Roman" style="text-anchor:end;fill:rgb(0,0,0);" transform="rotate(-87.3,1452.9,2714.1)" >NZ<tspan baseline-shift="-40%" font-size="90%">C</tspan>P041329.1</text>
<line x1='1672.7' y1='388.3' x2='1675.8' y2='368.6' style="stroke-width:4.0;stroke:rgb(0,0,0);stroke-linecap:round;fill:none;" />
<text x="1683.7" y="359.7" font-size="18.2px" font-family="CMUBright-Roman" style="text-anchor:start;fill:rgb(0,0,0);" transform="rotate(278.8,1683.7,359.7)" >0</text>
<line x1='1738.1' y1='400.5' x2='1742.4' y2='380.9' style="stroke-width:4.0;stroke:rgb(0,0,0);stroke-linecap:round;fill:none;" />
<text x="1750.8" y="372.6" font-size="18.2px" font-family="CMUBright-Roman" style="text-anchor:start;fill:rgb(0,0,0);" transform="rotate(282.2,1750.8,372.6)" >50</text>
<line x1='1802.7' y1='416.5' x2='1808.1' y2='397.2' style="stroke-width:4.0;stroke:rgb(0,0,0);stroke-linecap:round;fill:none;" />
<text x="1817.0" y="389.4" font-size="18.2px" font-family="CMUBright-Roman" style="text-anchor:start;fill:rgb(0,0,0);" transform="rotate(285.6,1817.0,389.4)" >100</text>
<line x1='1866.2' y1='436.3' x2='1872.7' y2='417.4' style="stroke-width:4.0;stroke:rgb(0,0,0);stroke-linecap:round;fill:none;" />
<text x="1882.1" y="410.0" font-size="18.2px" font-family="CMUBright-Roman" style="text-anchor:start;fill:rgb(0,0,0);" transform="rotate(289.0,1882.1,410.0)" >150</text>
<line x1='1928.5' y1='459.8' x2='1936.1' y2='441.3' style="stroke-width:4.0;stroke:rgb(0,0,0);stroke-linecap:round;fill:none;" />
<text x="1945.9" y="434.5" font-size="18.2px" font-family="CMUBright-Roman" style="text-anchor:start;fill:rgb(0,0,0);" transform="rotate(292.4,1945.9,434.5)" >200</text>
<line x1='1989.2' y1='486.9' x2='1997.9' y2='468.9' style="stroke-width:4.0;stroke:rgb(0,0,0);stroke-linecap:round;fill:none;" />
<text x="2008.1" y="462.8" font-size="18.2px" font-family="CMUBright-Roman" style="text-anchor:start;fill:rgb(0,0,0);" transform="rotate(295.8,2008.1,462.8)" >250</text>
<line x1='2048.2' y1='517.6' x2='2058.0' y2='500.2' style="stroke-width:4.0;stroke:rgb(0,0,0);stroke-linecap:round;fill:none;" />
<text x="2068.5" y="494.6" font-size="18.2px" font-family="CMUBright-Roman" style="text-anchor:start;fill:rgb(0,0,0);" transform="rotate(299.2,2068.5,494.6)" >300</text>
<line x1='2105.3' y1='551.7' x2='2116.1' y2='534.9' style="stroke-width:4.0;stroke:rgb(0,0,0);stroke-linecap:round;fill:none;" />
<text x="2127.0" y="530.0" font-size="18.2px" font-family="CMUBright-Roman" style="text-anchor:start;fill:rgb(0,0,0);" transform="rotate(302.6,2127.0,530.0)" >350</text>
<line x1='2160.3' y1='589.2' x2='2172.1' y2='573.0' style="stroke-width:4.0;stroke:rgb(0,0,0);stroke-linecap:round;fill:none;" />
<text x="2183.2" y="568.7" font-size="18.2px" font-family="CMUBright-Roman" style="text-anchor:start;fill:rgb(0,0,0);" transform="rotate(305.9,2183.2,568.7)" >400</text>
<line x1='2213.0' y1='629.8' x2='2225.7' y2='614.3' style="stroke-width:4.0;stroke:rgb(0,0,0);stroke-linecap:round;fill:none;" />
<text x="2237.1" y="610.7" font-size="18.2px" font-family="CMUBright-Roman" style="text-anchor:start;fill:rgb(0,0,0);" transform="rotate(309.3,2237.1,610.7)" >450</text>
<line x1='2263.2' y1='673.5' x2='2276.8' y2='658.8' style="stroke-width:4.0;stroke:rgb(0,0,0);stroke-linecap:round;fill:none;" />
<text x="2288.3" y="655.9" font-size="18.2px" font-family="CMUBright-Roman" style="text-anchor:start;fill:rgb(0,0,0);" transform="rotate(312.7,2288.3,655.9)" >500</text>
<line x1='2310.7' y1='720.1' x2='2325.2' y2='706.2' style="stroke-width:4.0;stroke:rgb(0,0,0);stroke-linecap:round;fill:none;" />
<text x="2336.9" y="703.9" font-size="18.2px" font-family="CMUBright-Roman" style="text-anchor:start;fill:rgb(0,0,0);" transform="rotate(316.1,2336.9,703.9)" >550</text>
<line x1='2355.4' y1='769.3' x2='2370.6' y2='756.3' style="stroke-width:4.0;stroke:rgb(0,0,0);stroke-linecap:round;fill:none;" />
<text x="2382.4" y="754.8" font-size="18.2px" font-family="CMUBright-Roman" style="text-anchor:start;fill:rgb(0,0,0);" transform="rotate(319.5,2382.4,754.8)" >600</text>
<line x1='2397.1' y1='821.2' x2='2413.1' y2='809.1' style="stroke-width:4.0;stroke:rgb(0,0,0);stroke-linecap:round;fill:none;" />
<text x="2425.0" y="808.3" font-size="18.2px" font-family="CMUBright-Roman" style="text-anchor:start;fill:rgb(0,0,0);" transform="rotate(322.9,2425.0,808.3)" >650</text>
<line x1='2435.7' y1='875.4' x2='2452.3' y2='864.3' style="stroke-width:4.0;stroke:rgb(0,0,0);stroke-linecap:round;fill:none;" />
<text x="2464.2" y="864.2" font-size="18.2px" font-family="CMUBright-Roman" style="text-anchor:start;fill:rgb(0,0,0);" transform="rotate(326.3,2464.2,864.2)" >700</text>
<line x1='2471.0' y1='931.8' x2='2488.2' y2='921.7' style="stroke-width:4.0;stroke:rgb(0,0,0);stroke-linecap:round;fill:none;" />
<text x="2500.1" y="922.3" font-size="18.2px" font-family="CMUBright-Roman" style="text-anchor:start;fill:rgb(0,0,0);" transform="rotate(329.7,2500.1,922.3)" >750</text>
<line x1='2502.9' y1='990.2' x2='2520.7' y2='981.1' style="stroke-width:4.0;stroke:rgb(0,0,0);stroke-linecap:round;fill:none;" />
<text x="2532.5" y="982.4" font-size="18.2px" font-family="CMUBright-Roman" style="text-anchor:start;fill:rgb(0,0,0);" transform="rotate(333.1,2532.5,982.4)" >800</text>
<line x1='2531.2' y1='1050.4' x2='2549.6' y2='1042.4' style="stroke-width:4.0;stroke:rgb(0,0,0);stroke-linecap:round;fill:none;" />
<text x="2561.3" y="1044.3" font-size="18.2px" font-family="CMUBright-Roman" style="text-anchor:start;fill:rgb(0,0,0);" transform="rotate(336.4,2561.3,1044.3)" >850</text>
<line x1='2556.0' y1='1112.1' x2='2574.8' y2='1105.2' style="stroke-width:4.0;stroke:rgb(0,0,0);stroke-linecap:round;fill:none;" />
<text x="2586.4" y="1107.9" font-size="18.2px" font-family="CMUBright-Roman" style="text-anchor:start;fill:rgb(0,0,0);" transform="rotate(339.8,2586.4,1107.9)" >900</text>
<line x1='2577.1' y1='1175.2' x2='2596.2' y2='1169.4' style="stroke-width:4.0;stroke:rgb(0,0,0);stroke-linecap:round;fill:none;" />
<text x="2607.7" y="1172.8" font-size="18.2px" font-family="CMUBright-Roman" style="text-anchor:start;fill:rgb(0,0,0);" transform="rotate(343.2,2607.7,1172.8)" >950</text>
<line x1='2594.4' y1='1239.5' x2='2613.9' y2='1234.8' style="stroke-width:4.0;stroke:rgb(0,0,0);stroke-linecap:round;fill:none;" />
<text x="2625.1" y="1238.8" font-size="18.2px" font-family="CMUBright-Roman" style="text-anchor:start;fill:rgb(0,0,0);" transform="rotate(346.6,2625.1,1238.8)" >1000</text>
<line x1='2607.9' y1='1304.6' x2='2627.6' y2='1301.1' style="stroke-width:4.0;stroke:rgb(0,0,0);stroke-linecap:round;fill:none;" />
<text x="2638.6" y="1305.8" font-size="18.2px" font-family="CMUBright-Roman" style="text-anchor:start;fill:rgb(0,0,0);" transform="rotate(350.0,2638.6,1305.8)" >1050</text>
<line x1='2617.5' y1='1370.4' x2='2637.4' y2='1368.1' style="stroke-width:4.0;stroke:rgb(0,0,0);stroke-linecap:round;fill:none;" />
<text x="2648.0" y="1373.4" font-size="18.2px" font-family="CMUBright-Roman" style="text-anchor:start;fill:rgb(0,0,0);" transform="rotate(353.4,2648.0,1373.4)" >1100</text>
<line x1='2623.2' y1='1436.7' x2='2643.2' y2='1435.6' style="stroke-width:4.0;stroke:rgb(0,0,0);stroke-linecap:round;fill:none;" />
<text x="2653.5" y="1441.5" font-size="18.2px" font-family="CMUBright-Roman" style="text-anchor:start;fill:rgb(0,0,0);" transform="rotate(356.8,2653.5,1441.5)" >1150</text>
<line x1='2625.0' y1='1503.2' x2='2645.0' y2='1503.3' style="stroke-width:4.0;stroke:rgb(0,0,0);stroke-linecap:round;fill:none;" />
<text x="2655.0" y="1509.8" font-size="18.2px" font-family="CMUBright-Roman" style="text-anchor:start;fill:rgb(0,0,0);" transform="rotate(0.2,2655.0,1509.8)" >1200</text>
<line x1='2622.8' y1='1569.7' x2='2642.8' y2='1571.0' style="stroke-width:4.0;stroke:rgb(0,0,0);stroke-linecap:round;fill:none;" />
<text x="2652.4" y="1578.1" font-size="18.2px" font-family="CMUBright-Roman" style="text-anchor:start;fill:rgb(0,0,0);" transform="rotate(3.6,2652.4,1578.1)" >1250</text>
<line x1='2616.8' y1='1636.0' x2='2636.6' y2='1638.4' style="stroke-width:4.0;stroke:rgb(0,0,0);stroke-linecap:round;fill:none;" />
<text x="2645.7" y="1646.0" font-size="18.2px" font-family="CMUBright-Roman" style="text-anchor:start;fill:rgb(0,0,0);" transform="rotate(6.9,2645.7,1646.0)" >1300</text>
<line x1='2606.8' y1='1701.7' x2='2626.4' y2='1705.3' style="stroke-width:4.0;stroke:rgb(0,0,0);stroke-linecap:round;fill:none;" />
<text x="2635.1" y="1713.5" font-size="18.2px" font-family="CMUBright-Roman" style="text-anchor:start;fill:rgb(0,0,0);" transform="rotate(10.3,2635.1,1713.5)" >1350</text>
<line x1='2592.9' y1='1766.8' x2='2612.3' y2='1771.6' style="stroke-width:4.0;stroke:rgb(0,0,0);stroke-linecap:round;fill:none;" />
<text x="2620.5" y="1780.2" font-size="18.2px" font-family="CMUBright-Roman" style="text-anchor:start;fill:rgb(0,0,0);" transform="rotate(13.7,2620.5,1780.2)" >1400</text>
<line x1='2575.2' y1='1831.0' x2='2594.3' y2='1836.8' style="stroke-width:4.0;stroke:rgb(0,0,0);stroke-linecap:round;fill:none;" />
<text x="2602.0" y="1846.0" font-size="18.2px" font-family="CMUBright-Roman" style="text-anchor:start;fill:rgb(0,0,0);" transform="rotate(17.1,2602.0,1846.0)" >1450</text>
<line x1='2553.8' y1='1893.9' x2='2572.5' y2='1900.9' style="stroke-width:4.0;stroke:rgb(0,0,0);stroke-linecap:round;fill:none;" />
<text x="2579.6" y="1910.5" font-size="18.2px" font-family="CMUBright-Roman" style="text-anchor:start;fill:rgb(0,0,0);" transform="rotate(20.5,2579.6,1910.5)" >1500</text>
<line x1='2528.6' y1='1955.5' x2='2546.9' y2='1963.6' style="stroke-width:4.0;stroke:rgb(0,0,0);stroke-linecap:round;fill:none;" />
<text x="2553.4" y="1973.6" font-size="18.2px" font-family="CMUBright-Roman" style="text-anchor:start;fill:rgb(0,0,0);" transform="rotate(23.9,2553.4,1973.6)" >1550</text>
<line x1='2499.9' y1='2015.5' x2='2517.7' y2='2024.7' style="stroke-width:4.0;stroke:rgb(0,0,0);stroke-linecap:round;fill:none;" />
<text x="2523.6" y="2035.1" font-size="18.2px" font-family="CMUBright-Roman" style="text-anchor:start;fill:rgb(0,0,0);" transform="rotate(27.3,2523.6,2035.1)" >1600</text>
<line x1='2467.7' y1='2073.8' x2='2484.9' y2='2084.0' style="stroke-width:4.0;stroke:rgb(0,0,0);stroke-linecap:round;fill:none;" />
<text x="2490.2" y="2094.6" font-size="18.2px" font-family="CMUBright-Roman" style="text-anchor:start;fill:rgb(0,0,0);" transform="rotate(30.7,2490.2,2094.6)" >1650</text>
<line x1='2432.1' y1='2130.0' x2='2448.7' y2='2141.2' style="stroke-width:4.0;stroke:rgb(0,0,0);stroke-linecap:round;fill:none;" />
<text x="2453.3" y="2152.1" font-size="18.2px" font-family="CMUBright-Roman" style="text-anchor:start;fill:rgb(0,0,0);" transform="rotate(34.1,2453.3,2152.1)" >1700</text>
<line x1='2393.2' y1='2183.9' x2='2409.1' y2='2196.1' style="stroke-width:4.0;stroke:rgb(0,0,0);stroke-linecap:round;fill:none;" />
<text x="2413.1" y="2207.3" font-size="18.2px" font-family="CMUBright-Roman" style="text-anchor:start;fill:rgb(0,0,0);" transform="rotate(37.4,2413.1,2207.3)" >1750</text>
<line x1='2351.2' y1='2235.6' x2='2366.4' y2='2248.6' style="stroke-width:4.0;stroke:rgb(0,0,0);stroke-linecap:round;fill:none;" />
<text x="2369.7" y="2260.1" font-size="18.2px" font-family="CMUBright-Roman" style="text-anchor:start;fill:rgb(0,0,0);" transform="rotate(40.8,2369.7,2260.1)" >1800</text>
<line x1='2306.3' y1='2284.6' x2='2320.6' y2='2298.5' style="stroke-width:4.0;stroke:rgb(0,0,0);stroke-linecap:round;fill:none;" />
<text x="2323.2" y="2310.2" font-size="18.2px" font-family="CMUBright-Roman" style="text-anchor:start;fill:rgb(0,0,0);" transform="rotate(44.2,2323.2,2310.2)" >1850</text>
<line x1='2258.5' y1='2330.9' x2='2272.0' y2='2345.6' style="stroke-width:4.0;stroke:rgb(0,0,0);stroke-linecap:round;fill:none;" />
<text x="2273.9" y="2357.4" font-size="18.2px" font-family="CMUBright-Roman" style="text-anchor:start;fill:rgb(0,0,0);" transform="rotate(47.6,2273.9,2357.4)" >1900</text>
<line x1='2208.0' y1='2374.3' x2='2220.6' y2='2389.8' style="stroke-width:4.0;stroke:rgb(0,0,0);stroke-linecap:round;fill:none;" />
<text x="2221.8" y="2401.6" font-size="18.2px" font-family="CMUBright-Roman" style="text-anchor:start;fill:rgb(0,0,0);" transform="rotate(51.0,2221.8,2401.6)" >1950</text>
<line x1='2155.1' y1='2414.6' x2='2166.8' y2='2430.8' style="stroke-width:4.0;stroke:rgb(0,0,0);stroke-linecap:round;fill:none;" />
<text x="2167.3" y="2442.7" font-size="18.2px" font-family="CMUBright-Roman" style="text-anchor:start;fill:rgb(0,0,0);" transform="rotate(54.4,2167.3,2442.7)" >2000</text>
<line x1='2099.9' y1='2451.7' x2='2110.6' y2='2468.6' style="stroke-width:4.0;stroke:rgb(0,0,0);stroke-linecap:round;fill:none;" />
<text x="2110.4" y="2480.5" font-size="18.2px" font-family="CMUBright-Roman" style="text-anchor:start;fill:rgb(0,0,0);" transform="rotate(57.8,2110.4,2480.5)" >2050</text>
<line x1='2042.6' y1='2485.5' x2='2052.2' y2='2503.0' style="stroke-width:4.0;stroke:rgb(0,0,0);stroke-linecap:round;fill:none;" />
<text x="2051.4" y="2514.9" font-size="18.2px" font-family="CMUBright-Roman" style="text-anchor:start;fill:rgb(0,0,0);" transform="rotate(61.2,2051.4,2514.9)" >2100</text>
<line x1='1983.4' y1='2515.9' x2='1992.0' y2='2533.9' style="stroke-width:4.0;stroke:rgb(0,0,0);stroke-linecap:round;fill:none;" />
<text x="1990.4" y="2545.7" font-size="18.2px" font-family="CMUBright-Roman" style="text-anchor:start;fill:rgb(0,0,0);" transform="rotate(64.6,1990.4,2545.7)" >2150</text>
<line x1='1922.5' y1='2542.7' x2='1930.0' y2='2561.2' style="stroke-width:4.0;stroke:rgb(0,0,0);stroke-linecap:round;fill:none;" />
<text x="1927.7" y="2572.9" font-size="18.2px" font-family="CMUBright-Roman" style="text-anchor:start;fill:rgb(0,0,0);" transform="rotate(67.9,1927.7,2572.9)" >2200</text>
<line x1='1860.1' y1='2565.8' x2='1866.5' y2='2584.8' style="stroke-width:4.0;stroke:rgb(0,0,0);stroke-linecap:round;fill:none;" />
<text x="1863.6" y="2596.3" font-size="18.2px" font-family="CMUBright-Roman" style="text-anchor:start;fill:rgb(0,0,0);" transform="rotate(71.3,1863.6,2596.3)" >2250</text>
<line x1='1796.5' y1='2585.2' x2='1801.8' y2='2604.5' style="stroke-width:4.0;stroke:rgb(0,0,0);stroke-linecap:round;fill:none;" />
<text x="1798.1" y="2615.9" font-size="18.2px" font-family="CMUBright-Roman" style="text-anchor:start;fill:rgb(0,0,0);" transform="rotate(74.7,1798.1,2615.9)" >2300</text>
<line x1='1731.8' y1='2600.9' x2='1735.9' y2='2620.4' style="stroke-width:4.0;stroke:rgb(0,0,0);stroke-linecap:round;fill:none;" />
<text x="1731.6" y="2631.5" font-size="18.2px" font-family="CMUBright-Roman" style="text-anchor:start;fill:rgb(0,0,0);" transform="rotate(78.1,1731.6,2631.5)" >2350</text>
<line x1='1666.3' y1='2612.6' x2='1669.3' y2='2632.4' style="stroke-width:4.0;stroke:rgb(0,0,0);stroke-linecap:round;fill:none;" />
<text x="1664.3" y="2643.2" font-size="18.2px" font-family="CMUBright-Roman" style="text-anchor:start;fill:rgb(0,0,0);" transform="rotate(81.5,1664.3,2643.2)" >2400</text>
<line x1='1600.3' y1='2620.5' x2='1602.1' y2='2640.4' style="stroke-width:4.0;stroke:rgb(0,0,0);stroke-linecap:round;fill:none;" />
<text x="1596.5" y="2651.0" font-size="18.2px" font-family="CMUBright-Roman" style="text-anchor:start;fill:rgb(0,0,0);" transform="rotate(84.9,1596.5,2651.0)" >2450</text>
<line x1='1533.9' y1='2624.5' x2='1534.5' y2='2644.5' style="stroke-width:4.0;stroke:rgb(0,0,0);stroke-linecap:round;fill:none;" />
<text x="1528.3" y="2654.7" font-size="18.2px" font-family="CMUBright-Roman" style="text-anchor:start;fill:rgb(0,0,0);" transform="rotate(88.3,1528.3,2654.7)" >2500</text>
<line x1='1467.3' y1='2624.5' x2='1466.8' y2='2644.5' style="stroke-width:4.0;stroke:rgb(0,0,0);stroke-linecap:round;fill:none;" />
<text x="1473.0" y="2654.7" font-size="18.2px" font-family="CMUBright-Roman" style="text-anchor:end;fill:rgb(0,0,0);" transform="rotate(-88.3,1473.0,2654.7)" >2550</text>
<line x1='1400.9' y1='2620.6' x2='1399.2' y2='2640.6' style="stroke-width:4.0;stroke:rgb(0,0,0);stroke-linecap:round;fill:none;" />
<text x="1404.8" y="2651.1" font-size="18.2px" font-family="CMUBright-Roman" style="text-anchor:end;fill:rgb(0,0,0);" transform="rotate(-84.9,1404.8,2651.1)" >2600</text>
<line x1='1334.9' y1='2612.8' x2='1331.9' y2='2632.6' style="stroke-width:4.0;stroke:rgb(0,0,0);stroke-linecap:round;fill:none;" />
<text x="1336.9" y="2643.4" font-size="18.2px" font-family="CMUBright-Roman" style="text-anchor:end;fill:rgb(0,0,0);" transform="rotate(-81.6,1336.9,2643.4)" >2650</text>
<line x1='1269.4' y1='2601.1' x2='1265.3' y2='2620.7' style="stroke-width:4.0;stroke:rgb(0,0,0);stroke-linecap:round;fill:none;" />
<text x="1269.6" y="2631.8" font-size="18.2px" font-family="CMUBright-Roman" style="text-anchor:end;fill:rgb(0,0,0);" transform="rotate(-78.2,1269.6,2631.8)" >2700</text>
<line x1='1204.7' y1='2585.5' x2='1199.4' y2='2604.8' style="stroke-width:4.0;stroke:rgb(0,0,0);stroke-linecap:round;fill:none;" />
<text x="1203.1" y="2616.2" font-size="18.2px" font-family="CMUBright-Roman" style="text-anchor:end;fill:rgb(0,0,0);" transform="rotate(-74.8,1203.1,2616.2)" >2750</text>
<line x1='1141.0' y1='2566.2' x2='1134.6' y2='2585.1' style="stroke-width:4.0;stroke:rgb(0,0,0);stroke-linecap:round;fill:none;" />
<text x="1137.6" y="2596.7" font-size="18.2px" font-family="CMUBright-Roman" style="text-anchor:end;fill:rgb(0,0,0);" transform="rotate(-71.4,1137.6,2596.7)" >2800</text>
<line x1='1078.6' y1='2543.1' x2='1071.1' y2='2561.6' style="stroke-width:4.0;stroke:rgb(0,0,0);stroke-linecap:round;fill:none;" />
<text x="1073.4" y="2573.3" font-size="18.2px" font-family="CMUBright-Roman" style="text-anchor:end;fill:rgb(0,0,0);" transform="rotate(-68.0,1073.4,2573.3)" >2850</text>
<line x1='1017.7' y1='2516.4' x2='1009.1' y2='2534.4' style="stroke-width:4.0;stroke:rgb(0,0,0);stroke-linecap:round;fill:none;" />
<text x="1010.7" y="2546.2" font-size="18.2px" font-family="CMUBright-Roman" style="text-anchor:end;fill:rgb(0,0,0);" transform="rotate(-64.6,1010.7,2546.2)" >2900</text>
<line x1='958.5' y1='2486.1' x2='948.8' y2='2503.6' style="stroke-width:4.0;stroke:rgb(0,0,0);stroke-linecap:round;fill:none;" />
<text x="949.7" y="2515.5" font-size="18.2px" font-family="CMUBright-Roman" style="text-anchor:end;fill:rgb(0,0,0);" transform="rotate(-61.2,949.7,2515.5)" >2950</text>
<line x1='901.1' y1='2452.3' x2='890.5' y2='2469.3' style="stroke-width:4.0;stroke:rgb(0,0,0);stroke-linecap:round;fill:none;" />
<text x="890.7" y="2481.2" font-size="18.2px" font-family="CMUBright-Roman" style="text-anchor:end;fill:rgb(0,0,0);" transform="rotate(-57.8,890.7,2481.2)" >3000</text>
<line x1='845.9' y1='2415.3' x2='834.2' y2='2431.6' style="stroke-width:4.0;stroke:rgb(0,0,0);stroke-linecap:round;fill:none;" />
<text x="833.7" y="2443.5" font-size="18.2px" font-family="CMUBright-Roman" style="text-anchor:end;fill:rgb(0,0,0);" transform="rotate(-54.4,833.7,2443.5)" >3050</text>
<line x1='792.9' y1='2375.0' x2='780.3' y2='2390.6' style="stroke-width:4.0;stroke:rgb(0,0,0);stroke-linecap:round;fill:none;" />
<text x="779.1" y="2402.4" font-size="18.2px" font-family="CMUBright-Roman" style="text-anchor:end;fill:rgb(0,0,0);" transform="rotate(-51.1,779.1,2402.4)" >3100</text>
<line x1='742.4' y1='2331.7' x2='729.0' y2='2346.5' style="stroke-width:4.0;stroke:rgb(0,0,0);stroke-linecap:round;fill:none;" />
<text x="727.0" y="2358.2" font-size="18.2px" font-family="CMUBright-Roman" style="text-anchor:end;fill:rgb(0,0,0);" transform="rotate(-47.7,727.0,2358.2)" >3150</text>
<line x1='694.6' y1='2285.5' x2='680.3' y2='2299.4' style="stroke-width:4.0;stroke:rgb(0,0,0);stroke-linecap:round;fill:none;" />
<text x="677.7" y="2311.0" font-size="18.2px" font-family="CMUBright-Roman" style="text-anchor:end;fill:rgb(0,0,0);" transform="rotate(-44.3,677.7,2311.0)" >3200</text>
<line x1='649.6' y1='2236.5' x2='634.4' y2='2249.6' style="stroke-width:4.0;stroke:rgb(0,0,0);stroke-linecap:round;fill:none;" />
<text x="631.2" y="2261.0" font-size="18.2px" font-family="CMUBright-Roman" style="text-anchor:end;fill:rgb(0,0,0);" transform="rotate(-40.9,631.2,2261.0)" >3250</text>
<line x1='607.5' y1='2184.9' x2='591.7' y2='2197.1' style="stroke-width:4.0;stroke:rgb(0,0,0);stroke-linecap:round;fill:none;" />
<text x="587.7" y="2208.3" font-size="18.2px" font-family="CMUBright-Roman" style="text-anchor:end;fill:rgb(0,0,0);" transform="rotate(-37.5,587.7,2208.3)" >3300</text>
<line x1='568.6' y1='2131.0' x2='552.0' y2='2142.2' style="stroke-width:4.0;stroke:rgb(0,0,0);stroke-linecap:round;fill:none;" />
<text x="547.4" y="2153.1" font-size="18.2px" font-family="CMUBright-Roman" style="text-anchor:end;fill:rgb(0,0,0);" transform="rotate(-34.1,547.4,2153.1)" >3350</text>
<line x1='532.9' y1='2074.8' x2='515.7' y2='2085.0' style="stroke-width:4.0;stroke:rgb(0,0,0);stroke-linecap:round;fill:none;" />
<text x="510.5" y="2095.7" font-size="18.2px" font-family="CMUBright-Roman" style="text-anchor:end;fill:rgb(0,0,0);" transform="rotate(-30.7,510.5,2095.7)" >3400</text>
<line x1='500.6' y1='2016.6' x2='482.9' y2='2025.8' style="stroke-width:4.0;stroke:rgb(0,0,0);stroke-linecap:round;fill:none;" />
<text x="477.0" y="2036.2" font-size="18.2px" font-family="CMUBright-Roman" style="text-anchor:end;fill:rgb(0,0,0);" transform="rotate(-27.3,477.0,2036.2)" >3450</text>
<line x1='471.8' y1='1956.6' x2='453.6' y2='1964.8' style="stroke-width:4.0;stroke:rgb(0,0,0);stroke-linecap:round;fill:none;" />
<text x="447.1" y="1974.8" font-size="18.2px" font-family="CMUBright-Roman" style="text-anchor:end;fill:rgb(0,0,0);" transform="rotate(-23.9,447.1,1974.8)" >3500</text>
<line x1='446.6' y1='1895.1' x2='427.9' y2='1902.1' style="stroke-width:4.0;stroke:rgb(0,0,0);stroke-linecap:round;fill:none;" />
<text x="420.9" y="1911.7" font-size="18.2px" font-family="CMUBright-Roman" style="text-anchor:end;fill:rgb(0,0,0);" transform="rotate(-20.6,420.9,1911.7)" >3550</text>
<line x1='425.1' y1='1832.1' x2='406.0' y2='1838.0' style="stroke-width:4.0;stroke:rgb(0,0,0);stroke-linecap:round;fill:none;" />
<text x="398.4" y="1847.2" font-size="18.2px" font-family="CMUBright-Roman" style="text-anchor:end;fill:rgb(0,0,0);" transform="rotate(-17.2,398.4,1847.2)" >3600</text>
<line x1='407.4' y1='1768.0' x2='388.0' y2='1772.8' style="stroke-width:4.0;stroke:rgb(0,0,0);stroke-linecap:round;fill:none;" />
<text x="379.8" y="1781.4" font-size="18.2px" font-family="CMUBright-Roman" style="text-anchor:end;fill:rgb(0,0,0);" transform="rotate(-13.8,379.8,1781.4)" >3650</text>
<line x1='393.5' y1='1702.9' x2='373.8' y2='1706.5' style="stroke-width:4.0;stroke:rgb(0,0,0);stroke-linecap:round;fill:none;" />
<text x="365.1" y="1714.7" font-size="18.2px" font-family="CMUBright-Roman" style="text-anchor:end;fill:rgb(0,0,0);" transform="rotate(-10.4,365.1,1714.7)" >3700</text>
<line x1='383.4' y1='1637.2' x2='363.5' y2='1639.6' style="stroke-width:4.0;stroke:rgb(0,0,0);stroke-linecap:round;fill:none;" />
<text x="354.4" y="1647.3" font-size="18.2px" font-family="CMUBright-Roman" style="text-anchor:end;fill:rgb(0,0,0);" transform="rotate(-7.0,354.4,1647.3)" >3750</text>
<line x1='377.2' y1='1570.9' x2='357.3' y2='1572.2' style="stroke-width:4.0;stroke:rgb(0,0,0);stroke-linecap:round;fill:none;" />
<text x="347.7" y="1579.3" font-size="18.2px" font-family="CMUBright-Roman" style="text-anchor:end;fill:rgb(0,0,0);" transform="rotate(-3.6,347.7,1579.3)" >3800</text>
<line x1='375.0' y1='1504.4' x2='355.0' y2='1504.5' style="stroke-width:4.0;stroke:rgb(0,0,0);stroke-linecap:round;fill:none;" />
<text x="345.1" y="1511.1" font-size="18.2px" font-family="CMUBright-Roman" style="text-anchor:end;fill:rgb(0,0,0);" transform="rotate(-0.2,345.1,1511.1)" >3850</text>
<line x1='376.7' y1='1437.9' x2='356.7' y2='1436.8' style="stroke-width:4.0;stroke:rgb(0,0,0);stroke-linecap:round;fill:none;" />
<text x="346.4" y="1442.8" font-size="18.2px" font-family="CMUBright-Roman" style="text-anchor:end;fill:rgb(0,0,0);" transform="rotate(3.2,346.4,1442.8)" >3900</text>
<line x1='382.3' y1='1371.6' x2='362.5' y2='1369.4' style="stroke-width:4.0;stroke:rgb(0,0,0);stroke-linecap:round;fill:none;" />
<text x="351.8" y="1374.7" font-size="18.2px" font-family="CMUBright-Roman" style="text-anchor:end;fill:rgb(0,0,0);" transform="rotate(6.6,351.8,1374.7)" >3950</text>
<line x1='391.9' y1='1305.8' x2='372.2' y2='1302.3' style="stroke-width:4.0;stroke:rgb(0,0,0);stroke-linecap:round;fill:none;" />
<text x="361.2" y="1307.0" font-size="18.2px" font-family="CMUBright-Roman" style="text-anchor:end;fill:rgb(0,0,0);" transform="rotate(9.9,361.2,1307.0)" >4000</text>
<line x1='405.3' y1='1240.6' x2='385.8' y2='1236.0' style="stroke-width:4.0;stroke:rgb(0,0,0);stroke-linecap:round;fill:none;" />
<text x="374.6" y="1240.0" font-size="18.2px" font-family="CMUBright-Roman" style="text-anchor:end;fill:rgb(0,0,0);" transform="rotate(13.3,374.6,1240.0)" >4050</text>
<line x1='422.6' y1='1176.4' x2='403.4' y2='1170.6' style="stroke-width:4.0;stroke:rgb(0,0,0);stroke-linecap:round;fill:none;" />
<text x="392.0" y="1174.0" font-size="18.2px" font-family="CMUBright-Roman" style="text-anchor:end;fill:rgb(0,0,0);" transform="rotate(16.7,392.0,1174.0)" >4100</text>
<line x1='443.6' y1='1113.2' x2='424.8' y2='1106.4' style="stroke-width:4.0;stroke:rgb(0,0,0);stroke-linecap:round;fill:none;" />
<text x="413.2" y="1109.0" font-size="18.2px" font-family="CMUBright-Roman" style="text-anchor:end;fill:rgb(0,0,0);" transform="rotate(20.1,413.2,1109.0)" >4150</text>
<line x1='468.3' y1='1051.5' x2='449.9' y2='1043.5' style="stroke-width:4.0;stroke:rgb(0,0,0);stroke-linecap:round;fill:none;" />
<text x="438.2" y="1045.5" font-size="18.2px" font-family="CMUBright-Roman" style="text-anchor:end;fill:rgb(0,0,0);" transform="rotate(23.5,438.2,1045.5)" >4200</text>
<line x1='496.6' y1='991.3' x2='478.8' y2='982.2' style="stroke-width:4.0;stroke:rgb(0,0,0);stroke-linecap:round;fill:none;" />
<text x="466.9" y="983.5" font-size="18.2px" font-family="CMUBright-Roman" style="text-anchor:end;fill:rgb(0,0,0);" transform="rotate(26.9,466.9,983.5)" >4250</text>
<line x1='528.4' y1='932.8' x2='511.2' y2='922.8' style="stroke-width:4.0;stroke:rgb(0,0,0);stroke-linecap:round;fill:none;" />
<text x="499.3" y="923.3" font-size="18.2px" font-family="CMUBright-Roman" style="text-anchor:end;fill:rgb(0,0,0);" transform="rotate(30.3,499.3,923.3)" >4300</text>
<line x1='563.6' y1='876.4' x2='547.0' y2='865.3' style="stroke-width:4.0;stroke:rgb(0,0,0);stroke-linecap:round;fill:none;" />
<text x="535.1" y="865.2" font-size="18.2px" font-family="CMUBright-Roman" style="text-anchor:end;fill:rgb(0,0,0);" transform="rotate(33.7,535.1,865.2)" >4350</text>
<line x1='602.1' y1='822.1' x2='586.2' y2='810.1' style="stroke-width:4.0;stroke:rgb(0,0,0);stroke-linecap:round;fill:none;" />
<text x="574.3" y="809.3" font-size="18.2px" font-family="CMUBright-Roman" style="text-anchor:end;fill:rgb(0,0,0);" transform="rotate(37.1,574.3,809.3)" >4400</text>
<line x1='643.8' y1='770.3' x2='628.6' y2='757.3' style="stroke-width:4.0;stroke:rgb(0,0,0);stroke-linecap:round;fill:none;" />
<text x="616.8" y="755.8" font-size="18.2px" font-family="CMUBright-Roman" style="text-anchor:end;fill:rgb(0,0,0);" transform="rotate(40.4,616.8,755.8)" >4450</text>
<line x1='688.4' y1='720.9' x2='674.0' y2='707.1' style="stroke-width:4.0;stroke:rgb(0,0,0);stroke-linecap:round;fill:none;" />
<text x="662.3" y="704.8" font-size="18.2px" font-family="CMUBright-Roman" style="text-anchor:end;fill:rgb(0,0,0);" transform="rotate(43.8,662.3,704.8)" >4500</text>
<line x1='735.9' y1='674.3' x2='722.3' y2='659.6' style="stroke-width:4.0;stroke:rgb(0,0,0);stroke-linecap:round;fill:none;" />
<text x="710.8" y="656.7" font-size="18.2px" font-family="CMUBright-Roman" style="text-anchor:end;fill:rgb(0,0,0);" transform="rotate(47.2,710.8,656.7)" >4550</text>
<line x1='786.0' y1='630.6' x2='773.3' y2='615.1' style="stroke-width:4.0;stroke:rgb(0,0,0);stroke-linecap:round;fill:none;" />
<text x="762.0" y="611.5" font-size="18.2px" font-family="CMUBright-Roman" style="text-anchor:end;fill:rgb(0,0,0);" transform="rotate(50.6,762.0,611.5)" >4600</text>
<line x1='838.7' y1='589.9' x2='826.9' y2='573.7' style="stroke-width:4.0;stroke:rgb(0,0,0);stroke-linecap:round;fill:none;" />
<text x="815.8" y="569.5" font-size="18.2px" font-family="CMUBright-Roman" style="text-anchor:end;fill:rgb(0,0,0);" transform="rotate(54.0,815.8,569.5)" >4650</text>
<line x1='893.6' y1='552.4' x2='882.9' y2='535.6' style="stroke-width:4.0;stroke:rgb(0,0,0);stroke-linecap:round;fill:none;" />
<text x="872.0" y="530.6" font-size="18.2px" font-family="CMUBright-Roman" style="text-anchor:end;fill:rgb(0,0,0);" transform="rotate(57.4,872.0,530.6)" >4700</text>
<line x1='950.7' y1='518.2' x2='940.9' y2='500.8' style="stroke-width:4.0;stroke:rgb(0,0,0);stroke-linecap:round;fill:none;" />
<text x="930.4" y="495.2" font-size="18.2px" font-family="CMUBright-Roman" style="text-anchor:end;fill:rgb(0,0,0);" transform="rotate(60.8,930.4,495.2)" >4750</text>
<line x1='1009.7' y1='487.5' x2='1001.0' y2='469.5' style="stroke-width:4.0;stroke:rgb(0,0,0);stroke-linecap:round;fill:none;" />
<text x="990.8" y="463.3" font-size="18.2px" font-family="CMUBright-Roman" style="text-anchor:end;fill:rgb(0,0,0);" transform="rotate(64.2,990.8,463.3)" >4800</text>
<line x1='1070.4' y1='460.2' x2='1062.8' y2='441.8' style="stroke-width:4.0;stroke:rgb(0,0,0);stroke-linecap:round;fill:none;" />
<text x="1053.0" y="435.0" font-size="18.2px" font-family="CMUBright-Roman" style="text-anchor:end;fill:rgb(0,0,0);" transform="rotate(67.6,1053.0,435.0)" >4850</text>
<line x1='1132.6' y1='436.7' x2='1126.1' y2='417.8' style="stroke-width:4.0;stroke:rgb(0,0,0);stroke-linecap:round;fill:none;" />
<text x="1116.7" y="410.5" font-size="18.2px" font-family="CMUBright-Roman" style="text-anchor:end;fill:rgb(0,0,0);" transform="rotate(70.9,1116.7,410.5)" >4900</text>
<line x1='1196.1' y1='416.8' x2='1190.7' y2='397.6' style="stroke-width:4.0;stroke:rgb(0,0,0);stroke-linecap:round;fill:none;" />
<text x="1181.8" y="389.7" font-size="18.2px" font-family="CMUBright-Roman" style="text-anchor:end;fill:rgb(0,0,0);" transform="rotate(74.3,1181.8,389.7)" >4950</text>
<line x1='1260.7' y1='400.7' x2='1256.4' y2='381.2' style="stroke-width:4.0;stroke:rgb(0,0,0);stroke-linecap:round;fill:none;" />
<text x="1248.0" y="372.8" font-size="18.2px" font-family="CMUBright-Roman" style="text-anchor:end;fill:rgb(0,0,0);" transform="rotate(77.7,1248.0,372.8)" >5000</text>
<line x1='1326.1' y1='388.5' x2='1323.0' y2='368.8' style="stroke-width:4.0;stroke:rgb(0,0,0);stroke-linecap:round;fill:none;" />
<text x="1315.0" y="359.9" font-size="18.2px" font-family="CMUBright-Roman" style="text-anchor:end;fill:rgb(0,0,0);" transform="rotate(81.1,1315.0,359.9)" >5050</text>
<line x1='1392.1' y1='380.2' x2='1390.2' y2='360.3' style="stroke-width:4.0;stroke:rgb(0,0,0);stroke-linecap:round;fill:none;" />
<text x="1382.7" y="351.0" font-size="18.2px" font-family="CMUBright-Roman" style="text-anchor:end;fill:rgb(0,0,0);" transform="rotate(84.5,1382.7,351.0)" >5100</text>
<g id="highlighttrack_0">
<path d="M1721.054,447.973 A1075.000,1075.000 40.000 0,1 1724.624,448.730 L1735.072,399.834 A1125.000,1125.000 0.000 0,0 1731.335,399.042 Z" style="stroke-width:4.0;stroke:rgb(0,0,0);stroke-linecap:round;fill:rgb(116,196,118);" />
<path d="M1964.587,530.576 A1075.000,1075.000 40.000 0,1 1967.876,532.158 L1989.637,487.143 A1125.000,1125.000 0.000 0,0 1986.196,485.486 Z" style="stroke-width:4.0;stroke:rgb(0,0,0);stroke-linecap:round;fill:rgb(116,196,118);" />
<path d="M2023.013,560.808 A1075.000,1075.000 40.000 0,1 2026.198,562.589 L2050.673,518.988 A1125.000,1125.000 0.000 0,0 2047.339,517.124 Z" style="stroke-width:4.0;stroke:rgb(0,0,0);stroke-linecap:round;fill:rgb(116,196,118);" />
<path d="M2191.509,2323.068 A1075.000,1075.000 40.000 0,1 2188.710,2325.411 L2220.743,2363.802 A1125.000,1125.000 0.000 0,0 2223.672,2361.350 Z" style="stroke-width:4.0;stroke:rgb(0,0,0);stroke-linecap:round;fill:rgb(116,196,118);" />
<path d="M452.224,1740.395 A1075.000,1075.000 40.000 0,1 451.414,1736.836 L402.642,1747.852 A1125.000,1125.000 0.000 0,0 403.490,1751.576 Z" style="stroke-width:4.0;stroke:rgb(0,0,0);stroke-linecap:round;fill:rgb(251,106,74);" />
<path d="M802.246,682.220 A1075.000,1075.000 40.000 0,1 805.027,679.855 L772.702,641.709 A1125.000,1125.000 0.000 0,0 769.793,644.183 Z" style="stroke-width:4.0;stroke:rgb(0,0,0);stroke-linecap:round;fill:rgb(251,106,74);" />
<path d="M810.611,675.156 A1075.000,1075.000 40.000 0,1 813.415,672.820 L781.481,634.347 A1125.000,1125.000 0.000 0,0 778.546,636.791 Z" style="stroke-width:4.0;stroke:rgb(0,0,0);stroke-linecap:round;fill:rgb(251,106,74);" />
<path d="M1302.627,443.275 A1075.000,1075.000 40.000 0,1 1306.215,442.611 L1297.202,393.430 A1125.000,1125.000 0.000 0,0 1293.446,394.125 Z" style="stroke-width:4.0;stroke:rgb(0,0,0);stroke-linecap:round;fill:rgb(251,106,74);" />
<path d="M1095.581,503.973 A1075.000,1075.000 40.000 0,1 1098.271,502.885 L1079.586,456.507 A1125.000,1125.000 0.000 0,0 1076.771,457.646 Z" style="stroke-width:4.0;stroke:rgb(0,0,0);stroke-linecap:round;fill:rgb(116,196,118);" />
<path d="M1102.099,501.351 A1075.000,1075.000 40.000 0,1 1104.796,500.280 L1086.415,453.782 A1125.000,1125.000 0.000 0,0 1083.592,454.902 Z" style="stroke-width:4.0;stroke:rgb(0,0,0);stroke-linecap:round;fill:rgb(116,196,118);" />
<path d="M1996.976,546.774 A1075.000,1075.000 40.000 0,1 2000.727,548.739 L2024.017,504.494 A1125.000,1125.000 0.000 0,0 2020.091,502.438 Z" style="stroke-width:4.0;stroke:rgb(0,0,0);stroke-linecap:round;fill:rgb(251,106,74);" />
</g>
</g>
<g id="track_0">
<path d="M 1718.843,458.494 A 1064.250,1064.250 0.00 0,1 1722.4,459.2 L 1722.4,459.2 1707.0,530.8 1692.7,596.9 1679.3,657.8 1666.8,713.8 1655.3,765.1 1644.5,811.9 1634.5,854.5 1625.3,893.0 1616.8,927.7 1609.0,958.6 1601.8,986.0 1595.2,1009.9 1589.2,1030.6 1583.7,1048.0 1578.8,1062.4 1574.4,1073.7 1570.5,1082.0 1567.0,1087.4 1564.0,1089.9 1561.5,1089.5 1559.4,1086.2 1557.7,1080.0 1556.5,1070.9 1555.6,1058.8 1555.2,1043.7 1555.2,1025.4 1555.7,1003.9 1556.6,979.1 1557.9,950.8 1559.6,918.9 1561.9,883.3 1564.6,843.8 1567.8,800.2 1571.5,752.3 1575.8,699.9 1580.7,642.8 1586.1,580.6 1592.2,513.3 1598.9,440.4  A 1064.250,1064.250 0.00 0,0 1595.3,440.0 L 1595.3,440.0 1588.9,512.9 1583.0,580.3 1577.8,642.5 1573.1,699.6 1569.0,752.1 1565.4,800.0 1562.4,843.6 1559.8,883.1 1557.7,918.7 1556.0,950.6 1554.8,978.9 1554.0,1003.7 1553.6,1025.2 1553.7,1043.5 1554.1,1058.6 1555.0,1070.7 1556.3,1079.8 1558.0,1086.0 1560.1,1089.3 1562.6,1089.7 1565.6,1087.2 1569.1,1081.8 1572.9,1073.4 1577.3,1062.1 1582.2,1047.7 1587.6,1030.3 1593.5,1009.6 1600.0,985.6 1607.1,958.2 1614.9,927.3 1623.3,892.6 1632.3,854.1 1642.2,811.5 1652.8,764.6 1664.2,713.3 1676.4,657.2 1689.6,596.3 1703.7,530.1 1718.8,458.5  Z" style="stroke-width: 2.0;  stroke: rgb(82,82,82); fill: rgb(251,106,74); opacity: 0.667;" />
<path d="M 1959.941,540.270 A 1064.250,1064.250 0.00 0,1 1963.2,541.8 L 1963.2,541.8 1931.1,607.7 1901.1,668.3 1872.9,724.1 1846.6,775.2 1822.0,821.9 1799.0,864.4 1777.5,902.9 1757.6,937.6 1738.9,968.6 1721.6,996.2 1705.5,1020.4 1690.6,1041.3 1676.8,1059.2 1664.0,1074.0 1652.2,1085.9 1641.4,1094.9 1631.4,1101.1 1622.3,1104.6 1614.0,1105.2 1606.5,1103.1 1599.8,1098.3 1593.8,1090.6 1588.4,1080.2 1583.8,1066.9 1579.9,1050.6 1576.6,1031.3 1574.0,1008.9 1572.1,983.2 1570.8,954.2 1570.2,921.6 1570.3,885.5 1571.1,845.4 1572.7,801.4 1575.0,753.1 1578.1,700.4 1582.0,643.0 1586.7,580.8 1592.3,513.3 1598.9,440.4  A 1064.250,1064.250 0.00 0,0 1595.3,440.0 L 1595.3,440.0 1589.0,513.0 1583.6,580.5 1579.0,642.8 1575.3,700.2 1572.4,752.9 1570.3,801.1 1568.9,845.2 1568.2,885.2 1568.3,921.4 1569.0,953.9 1570.3,983.0 1572.3,1008.6 1575.0,1031.0 1578.4,1050.3 1582.4,1066.6 1587.0,1079.9 1592.4,1090.3 1598.4,1097.9 1605.2,1102.8 1612.7,1104.8 1621.0,1104.1 1630.1,1100.7 1640.0,1094.5 1650.8,1085.4 1662.5,1073.5 1675.3,1058.6 1689.0,1040.7 1703.9,1019.7 1719.9,995.4 1737.1,967.8 1755.6,936.7 1775.5,902.0 1796.8,863.4 1819.7,820.8 1844.1,774.1 1870.3,722.8 1898.2,667.0 1928.1,606.2 1959.9,540.3  Z" style="stroke-width: 2.0;  stroke: rgb(82,82,82); fill: rgb(116,196,118); opacity: 0.667;" />
<path d="M 1959.941,540.270 A 1064.250,1064.250 0.00 0,1 1963.2,541.8 L 1963.2,541.8 1931.2,607.7 1901.4,668.4 1873.5,724.3 1847.7,775.5 1823.7,822.4 1801.4,865.1 1780.7,903.8 1761.7,938.7 1744.1,970.0 1728.0,997.8 1713.2,1022.2 1699.6,1043.5 1687.3,1061.6 1676.2,1076.8 1666.2,1089.0 1657.3,1098.4 1649.4,1104.9 1642.5,1108.7 1636.6,1109.7 1631.7,1108.0 1627.6,1103.6 1624.5,1096.4 1622.3,1086.4 1621.0,1073.5 1620.6,1057.7 1621.1,1038.9 1622.6,1017.1 1624.9,992.0 1628.3,963.6 1632.6,931.7 1637.9,896.2 1644.3,857.0 1651.7,813.8 1660.4,766.4 1670.1,714.7 1681.2,658.3 1693.5,597.1 1707.2,530.9 1722.4,459.2  A 1064.250,1064.250 0.00 0,0 1718.8,458.5 L 1718.8,458.5 1703.9,530.2 1690.5,596.5 1678.3,657.7 1667.5,714.1 1657.9,765.9 1649.4,813.3 1642.1,856.5 1635.9,895.8 1630.6,931.3 1626.4,963.1 1623.2,991.6 1620.9,1016.6 1619.6,1038.5 1619.1,1057.3 1619.6,1073.1 1620.9,1086.0 1623.1,1096.0 1626.3,1103.2 1630.3,1107.6 1635.3,1109.3 1641.2,1108.2 1648.1,1104.4 1655.9,1097.8 1664.8,1088.4 1674.8,1076.2 1685.9,1061.0 1698.1,1042.8 1711.5,1021.5 1726.3,997.0 1742.3,969.1 1759.8,937.8 1778.7,902.8 1799.2,864.1 1821.3,821.3 1845.2,774.4 1870.9,723.0 1898.5,667.1 1928.2,606.2 1959.9,540.3  Z" style="stroke-width: 2.0;  stroke: rgb(82,82,82); fill: rgb(107,174,214); opacity: 0.667;" />
<path d="M 2017.783,570.199 A 1064.250,1064.250 0.00 0,1 2020.9,572.0 L 2020.9,572.0 1984.9,635.7 1951.1,694.4 1919.4,748.3 1889.7,797.6 1862.0,842.6 1836.1,883.6 1811.9,920.6 1789.3,953.8 1768.3,983.6 1748.7,1009.9 1730.5,1032.9 1713.6,1052.7 1697.9,1069.6 1683.4,1083.4 1669.9,1094.4 1657.6,1102.6 1646.2,1108.1 1635.7,1110.8 1626.2,1110.8 1617.5,1108.0 1609.6,1102.6 1602.5,1094.5 1596.3,1083.5 1590.7,1069.7 1585.9,1053.0 1581.9,1033.4 1578.5,1010.6 1575.9,984.7 1574.0,955.4 1572.8,922.6 1572.4,886.2 1572.8,846.0 1573.9,801.8 1575.8,753.4 1578.6,700.6 1582.3,643.1 1586.8,580.8 1592.4,513.3 1598.9,440.4  A 1064.250,1064.250 0.00 0,0 1595.3,440.0 L 1595.3,440.0 1589.0,513.0 1583.7,580.5 1579.4,642.9 1575.9,700.3 1573.3,753.2 1571.5,801.6 1570.5,845.8 1570.3,886.0 1570.9,922.4 1572.1,955.1 1574.1,984.4 1576.9,1010.4 1580.3,1033.1 1584.4,1052.8 1589.3,1069.4 1594.8,1083.2 1601.2,1094.1 1608.3,1102.2 1616.1,1107.6 1624.8,1110.3 1634.4,1110.3 1644.8,1107.6 1656.2,1102.1 1668.6,1093.9 1682.0,1082.8 1696.4,1068.9 1712.1,1052.0 1728.9,1032.1 1747.0,1009.0 1766.5,982.6 1787.5,952.9 1809.9,919.5 1834.0,882.4 1859.8,841.4 1887.3,796.3 1916.8,746.9 1948.3,692.8 1981.9,634.1 2017.8,570.2  Z" style="stroke-width: 2.0;  stroke: rgb(82,82,82); fill: rgb(253,141,60); opacity: 0.667;" />
<path d="M 2017.783,570.199 A 1064.250,1064.250 0.00 0,1 2020.9,572.0 L 2020.9,572.0 1984.9,635.7 1951.3,694.5 1920.0,748.5 1890.8,798.0 1863.6,843.2 1838.4,884.3 1815.1,921.5 1793.4,955.0 1773.4,985.0 1755.0,1011.6 1738.1,1034.9 1722.6,1055.0 1708.4,1072.2 1695.5,1086.4 1683.9,1097.7 1673.4,1106.3 1664.1,1112.0 1655.9,1115.1 1648.7,1115.5 1642.5,1113.2 1637.4,1108.1 1633.2,1100.4 1630.1,1089.9 1627.8,1076.6 1626.6,1060.4 1626.3,1041.2 1627.0,1019.0 1628.7,993.6 1631.4,964.9 1635.2,932.8 1640.0,897.1 1645.9,857.6 1652.9,814.2 1661.2,766.7 1670.7,714.9 1681.5,658.4 1693.7,597.2 1707.3,530.9 1722.4,459.2  A 1064.250,1064.250 0.00 0,0 1718.8,458.5 L 1718.8,458.5 1704.0,530.2 1690.6,596.5 1678.6,657.8 1668.0,714.3 1658.7,766.2 1650.6,813.7 1643.7,857.1 1637.9,896.6 1633.2,932.3 1629.6,964.5 1627.0,993.1 1625.4,1018.5 1624.8,1040.8 1625.1,1059.9 1626.4,1076.1 1628.7,1089.4 1631.9,1099.9 1636.1,1107.7 1641.2,1112.7 1647.4,1115.0 1654.6,1114.6 1662.8,1111.5 1672.1,1105.7 1682.5,1097.1 1694.1,1085.7 1707.0,1071.5 1721.1,1054.3 1736.5,1034.1 1753.4,1010.7 1771.7,984.1 1791.6,954.0 1813.1,920.4 1836.3,883.1 1861.4,841.9 1888.4,796.6 1917.4,747.0 1948.6,692.9 1982.0,634.1 2017.8,570.2  Z" style="stroke-width: 2.0;  stroke: rgb(82,82,82); fill: rgb(255,0,0); opacity: 0.667;" />
<path d="M 2017.783,570.199 A 1064.250,1064.250 0.00 0,1 2020.9,572.0 L 2020.9,572.0 1985.1,635.8 1951.9,694.7 1921.2,749.0 1892.9,798.9 1866.9,844.5 1843.1,886.2 1821.3,924.1 1801.5,958.4 1783.5,989.2 1767.4,1016.6 1753.0,1040.9 1740.2,1062.1 1729.0,1080.4 1719.4,1095.7 1711.2,1108.3 1704.5,1118.2 1699.2,1125.4 1695.3,1130.0 1692.8,1132.0 1691.6,1131.4 1691.7,1128.1 1693.3,1122.3 1696.1,1113.8 1700.4,1102.7 1706.1,1088.8 1713.2,1072.1 1721.7,1052.5 1731.8,1029.9 1743.5,1004.1 1756.8,975.2 1771.8,942.9 1788.6,907.0 1807.2,867.5 1827.7,824.1 1850.3,776.7 1875.1,724.9 1902.0,668.7 1931.4,607.8 1963.2,541.8  A 1064.250,1064.250 0.00 0,0 1959.9,540.3 L 1959.9,540.3 1928.3,606.3 1899.2,667.3 1872.4,723.7 1847.9,775.5 1825.4,823.0 1805.0,866.5 1786.5,906.1 1769.9,942.0 1755.0,974.3 1741.8,1003.3 1730.2,1029.1 1720.2,1051.7 1711.7,1071.4 1704.7,1088.1 1699.1,1102.0 1694.8,1113.2 1692.0,1121.7 1690.5,1127.5 1690.3,1130.7 1691.5,1131.3 1694.1,1129.3 1698.0,1124.8 1703.2,1117.5 1709.9,1107.6 1718.0,1095.0 1727.6,1079.6 1738.7,1061.3 1751.4,1040.0 1765.8,1015.7 1781.8,988.2 1799.6,957.4 1819.3,923.0 1841.0,885.1 1864.7,843.3 1890.5,797.5 1918.6,747.6 1949.1,693.2 1982.1,634.1 2017.8,570.2  Z" style="stroke-width: 2.0;  stroke: rgb(82,82,82); fill: rgb(255,0,204); opacity: 0.667;" />
<path d="M 2184.594,2314.837 A 1064.250,1064.250 0.00 0,1 2181.8,2317.2 L 2181.8,2317.2 2135.3,2259.6 2092.9,2203.8 2054.4,2149.7 2019.3,2097.3 1987.4,2046.3 1958.3,1996.9 1931.7,1948.9 1907.4,1902.3 1885.2,1856.9 1864.7,1812.7 1845.7,1769.6 1828.2,1727.4 1811.7,1686.1 1796.3,1645.6 1781.7,1605.7 1767.9,1566.3 1754.6,1527.3 1741.8,1488.5 1729.5,1449.9 1717.5,1411.3 1705.8,1372.4 1694.4,1333.3 1683.2,1293.6 1672.3,1253.3 1661.7,1212.2 1651.5,1170.0 1641.6,1126.7 1632.2,1082.0 1623.4,1035.7 1615.2,987.7 1607.9,937.7 1601.4,885.5 1596.1,830.9 1592.1,773.7 1589.6,713.6 1588.8,650.5 1589.9,584.1 1593.2,514.1 1598.9,440.4  A 1064.250,1064.250 0.00 0,0 1595.3,440.0 L 1595.3,440.0 1589.8,513.8 1586.8,583.8 1585.9,650.2 1586.9,713.3 1589.7,773.4 1593.9,830.6 1599.4,885.1 1605.9,937.3 1613.5,987.3 1621.8,1035.3 1630.8,1081.5 1640.3,1126.2 1650.3,1169.5 1660.7,1211.6 1671.5,1252.7 1682.5,1293.0 1693.8,1332.6 1705.3,1371.7 1717.2,1410.5 1729.3,1449.1 1741.8,1487.7 1754.7,1526.4 1768.1,1565.4 1782.1,1604.7 1796.8,1644.6 1812.4,1685.0 1828.9,1726.3 1846.7,1768.4 1865.7,1811.5 1886.4,1855.6 1908.8,1900.9 1933.3,1947.5 1960.0,1995.4 1989.2,2044.7 2021.3,2095.5 2056.6,2147.8 2095.3,2201.8 2137.9,2257.5 2184.6,2314.8  Z" style="stroke-width: 2.0;  stroke: rgb(82,82,82); fill: rgb(255,204,204); opacity: 0.667;" />
<path d="M 2184.594,2314.837 A 1064.250,1064.250 0.00 0,1 2181.8,2317.2 L 2181.8,2317.2 2135.3,2259.7 2093.0,2204.1 2054.6,2150.3 2019.7,2098.2 1988.1,2047.8 1959.3,1998.9 1933.2,1951.4 1909.5,1905.4 1887.9,1860.6 1868.2,1817.0 1850.2,1774.5 1833.7,1733.0 1818.5,1692.3 1804.4,1652.3 1791.4,1613.0 1779.3,1574.1 1767.9,1535.6 1757.2,1497.4 1747.2,1459.2 1737.8,1420.9 1728.8,1382.4 1720.4,1343.6 1712.5,1304.2 1705.1,1264.2 1698.3,1223.3 1692.1,1181.4 1686.6,1138.3 1681.9,1093.9 1678.0,1047.9 1675.1,1000.1 1673.4,950.5 1672.9,898.7 1673.9,844.5 1676.5,787.9 1681.0,728.5 1687.6,666.2 1696.5,600.7 1708.0,531.8 1722.4,459.2  A 1064.250,1064.250 0.00 0,0 1718.8,458.5 L 1718.8,458.5 1704.7,531.1 1693.5,600.0 1684.8,665.5 1678.4,727.9 1674.1,787.3 1671.7,844.0 1670.8,898.1 1671.5,949.9 1673.4,999.5 1676.5,1047.3 1680.5,1093.3 1685.4,1137.7 1691.1,1180.8 1697.4,1222.7 1704.3,1263.5 1711.8,1303.5 1719.9,1342.9 1728.4,1381.7 1737.5,1420.1 1747.1,1458.3 1757.2,1496.5 1768.0,1534.7 1779.5,1573.2 1791.8,1612.0 1804.9,1651.3 1819.1,1691.2 1834.5,1731.9 1851.1,1773.3 1869.3,1815.8 1889.1,1859.3 1910.9,1904.0 1934.8,1950.0 1961.0,1997.3 1989.9,2046.1 2021.8,2096.4 2056.8,2148.4 2095.4,2202.1 2137.9,2257.5 2184.6,2314.8  Z" style="stroke-width: 2.0;  stroke: rgb(82,82,82); fill: rgb(255,153,0); opacity: 0.667;" />
<path d="M 2184.594,2314.837 A 1064.250,1064.250 0.00 0,1 2181.8,2317.2 L 2181.8,2317.2 2135.3,2259.8 2093.2,2204.7 2055.0,2151.5 2020.4,2100.2 1989.2,2050.8 1961.1,2003.1 1935.8,1957.0 1913.1,1912.3 1892.7,1869.0 1874.4,1826.9 1858.1,1786.0 1843.6,1746.1 1830.7,1707.1 1819.3,1668.8 1809.2,1631.1 1800.4,1593.9 1792.8,1557.1 1786.2,1520.5 1780.7,1484.0 1776.2,1447.4 1772.7,1410.7 1770.2,1373.6 1768.7,1336.0 1768.2,1297.8 1768.8,1258.8 1770.6,1218.9 1773.7,1177.9 1778.0,1135.6 1783.9,1092.0 1791.4,1046.8 1800.7,999.8 1811.9,951.0 1825.2,900.1 1840.9,847.0 1859.2,791.4 1880.3,733.3 1904.5,672.5 1932.0,608.7 1963.2,541.8  A 1064.250,1064.250 0.00 0,0 1959.9,540.3 L 1959.9,540.3 1929.0,607.3 1901.7,671.1 1877.7,732.0 1856.8,790.2 1838.7,845.8 1823.2,899.0 1810.0,949.9 1799.0,998.8 1789.9,1045.8 1782.5,1091.0 1776.8,1134.7 1772.6,1177.0 1769.7,1218.0 1768.0,1257.9 1767.5,1296.9 1768.1,1335.1 1769.7,1372.7 1772.4,1409.7 1776.0,1446.5 1780.7,1483.0 1786.3,1519.5 1793.0,1556.1 1800.7,1592.9 1809.7,1630.0 1819.9,1667.7 1831.4,1705.9 1844.5,1744.9 1859.1,1784.8 1875.5,1825.7 1893.9,1867.7 1914.4,1910.9 1937.3,1955.5 1962.8,2001.5 1991.1,2049.2 2022.4,2098.5 2057.2,2149.6 2095.6,2202.6 2137.9,2257.7 2184.6,2314.8  Z" style="stroke-width: 2.0;  stroke: rgb(82,82,82); fill: rgb(255,204,0); opacity: 0.667;" />
<path d="M 2184.594,2314.837 A 1064.250,1064.250 0.00 0,1 2181.8,2317.2 L 2181.8,2317.2 2135.4,2259.9 2093.2,2204.8 2055.0,2151.8 2020.5,2100.8 1989.4,2051.6 1961.4,2004.2 1936.3,1958.4 1913.8,1914.2 1893.7,1871.3 1875.8,1829.7 1859.9,1789.2 1845.8,1749.8 1833.5,1711.2 1822.7,1673.5 1813.3,1636.3 1805.3,1599.7 1798.5,1563.4 1792.9,1527.4 1788.5,1491.5 1785.2,1455.6 1783.0,1419.5 1781.9,1383.0 1781.9,1346.2 1783.1,1308.7 1785.5,1270.5 1789.2,1231.4 1794.3,1191.2 1801.0,1149.9 1809.2,1107.2 1819.2,1063.0 1831.1,1017.2 1845.1,969.5 1861.5,919.9 1880.3,868.2 1901.9,814.2 1926.5,757.7 1954.3,698.6 1985.7,636.8 2020.9,572.0  A 1064.250,1064.250 0.00 0,0 2017.8,570.2 L 2017.8,570.2 1982.8,635.1 1951.6,697.1 1924.0,756.3 1899.6,812.8 1878.2,866.9 1859.5,918.7 1843.3,968.4 1829.5,1016.0 1817.7,1061.9 1807.8,1106.1 1799.8,1148.8 1793.3,1190.2 1788.3,1230.4 1784.7,1269.5 1782.5,1307.7 1781.4,1345.2 1781.5,1382.1 1782.7,1418.5 1785.0,1454.6 1788.5,1490.5 1793.0,1526.4 1798.7,1562.4 1805.6,1598.7 1813.8,1635.3 1823.3,1672.4 1834.2,1710.1 1846.7,1748.6 1860.9,1788.0 1876.9,1828.4 1895.0,1869.9 1915.2,1912.8 1937.9,1956.9 1963.1,2002.6 1991.3,2050.0 2022.6,2099.0 2057.2,2149.9 2095.6,2202.8 2137.9,2257.7 2184.6,2314.8  Z" style="stroke-width: 2.0;  stroke: rgb(82,82,82); fill: rgb(255,255,0); opacity: 0.667;" />
<path d="M 462.701,1737.991 A 1064.250,1064.250 0.00 0,1 461.9,1734.5 L 461.9,1734.5 533.6,1717.3 600.5,1699.2 662.9,1680.4 721.2,1661.0 775.6,1641.0 826.4,1620.5 873.9,1599.6 918.3,1578.2 960.0,1556.6 999.1,1534.5 1035.8,1512.2 1070.4,1489.5 1103.1,1466.5 1134.0,1443.2 1163.3,1419.4 1191.1,1395.2 1217.7,1370.5 1243.1,1345.2 1267.5,1319.3 1290.9,1292.7 1313.5,1265.2 1335.2,1236.7 1356.3,1207.2 1376.7,1176.4 1396.5,1144.3 1415.7,1110.7 1434.3,1075.3 1452.4,1038.1 1469.8,998.8 1486.6,957.2 1502.7,913.1 1518.2,866.3 1532.8,816.5 1546.6,763.4 1559.4,706.9 1571.2,646.7 1581.8,582.3 1591.1,513.7 1598.9,440.4  A 1064.250,1064.250 0.00 0,0 1595.3,440.0 L 1595.3,440.0 1587.7,513.4 1578.7,582.1 1568.3,646.4 1556.7,706.7 1544.1,763.3 1530.5,816.3 1516.0,866.2 1500.7,913.1 1484.7,957.2 1468.1,998.9 1450.8,1038.3 1432.9,1075.5 1414.4,1111.0 1395.3,1144.7 1375.6,1176.9 1355.3,1207.7 1334.4,1237.3 1312.7,1265.8 1290.2,1293.4 1266.9,1320.1 1242.6,1346.1 1217.3,1371.5 1190.8,1396.2 1163.0,1420.5 1133.8,1444.4 1103.0,1467.9 1070.4,1491.0 1035.8,1513.8 999.2,1536.2 960.2,1558.4 918.6,1580.2 874.2,1601.7 826.8,1622.8 776.0,1643.4 721.7,1663.6 663.5,1683.2 601.2,1702.3 534.3,1720.5 462.7,1738.0  Z" style="stroke-width: 2.0;  stroke: rgb(82,82,82); fill: rgb(204,255,0); opacity: 0.667;" />
<path d="M 462.701,1737.991 A 1064.250,1064.250 0.00 0,1 461.9,1734.5 L 461.9,1734.5 533.6,1717.2 600.7,1699.0 663.4,1680.0 722.0,1660.3 776.8,1640.0 828.2,1619.2 876.4,1597.9 921.6,1576.2 964.2,1554.2 1004.3,1531.9 1042.2,1509.3 1078.0,1486.4 1112.1,1463.2 1144.6,1439.7 1175.5,1416.0 1205.3,1391.8 1233.8,1367.2 1261.4,1342.2 1288.1,1316.6 1314.1,1290.3 1339.4,1263.3 1364.1,1235.4 1388.4,1206.5 1412.2,1176.5 1435.6,1145.3 1458.7,1112.6 1481.5,1078.2 1503.9,1042.1 1526.1,1003.9 1548.0,963.6 1569.5,920.8 1590.6,875.3 1611.3,826.9 1631.6,775.2 1651.2,720.2 1670.3,661.3 1688.5,598.4 1705.9,531.2 1722.4,459.2  A 1064.250,1064.250 0.00 0,0 1718.8,458.5 L 1718.8,458.5 1702.7,530.5 1685.5,597.8 1667.4,660.8 1648.6,719.7 1629.1,774.8 1609.1,826.5 1588.5,875.0 1567.5,920.5 1546.1,963.4 1524.4,1003.9 1502.4,1042.1 1480.0,1078.3 1457.4,1112.7 1434.4,1145.5 1411.1,1176.8 1387.4,1206.9 1363.2,1235.9 1338.6,1263.8 1313.4,1290.9 1287.5,1317.3 1260.9,1343.0 1233.4,1368.1 1204.9,1392.8 1175.3,1417.1 1144.3,1441.0 1112.0,1464.5 1078.0,1487.8 1042.2,1510.8 1004.4,1533.6 964.4,1556.0 921.9,1578.2 876.7,1600.0 828.6,1621.4 777.3,1642.4 722.5,1662.9 664.0,1682.8 601.4,1702.1 534.4,1720.5 462.7,1738.0  Z" style="stroke-width: 2.0;  stroke: rgb(82,82,82); fill: rgb(0,255,0); opacity: 0.667;" />
<path d="M 462.701,1737.991 A 1064.250,1064.250 0.00 0,1 461.9,1734.5 L 461.9,1734.5 533.8,1717.1 601.1,1698.7 664.4,1679.3 723.7,1659.1 779.6,1638.3 832.2,1616.9 881.8,1595.1 928.6,1572.9 973.1,1550.5 1015.3,1527.9 1055.5,1505.1 1093.9,1482.1 1130.8,1459.1 1166.3,1435.9 1200.7,1412.6 1234.1,1389.1 1266.6,1365.5 1298.5,1341.6 1329.8,1317.5 1360.7,1292.9 1391.3,1267.9 1421.8,1242.2 1452.2,1215.9 1482.6,1188.7 1513.0,1160.5 1543.6,1131.1 1574.4,1100.4 1605.5,1068.1 1636.8,1034.1 1668.4,998.1 1700.3,959.9 1732.5,919.3 1764.9,875.9 1797.6,829.5 1830.5,779.8 1863.6,726.6 1896.8,669.4 1930.0,607.9 1963.2,541.8  A 1064.250,1064.250 0.00 0,0 1959.9,540.3 L 1959.9,540.3 1927.0,606.5 1894.0,668.0 1861.0,725.3 1828.1,778.7 1795.3,828.5 1762.8,875.0 1730.5,918.5 1698.4,959.3 1666.7,997.6 1635.2,1033.7 1604.0,1067.8 1573.1,1100.1 1542.4,1131.0 1511.9,1160.4 1481.5,1188.8 1451.2,1216.1 1420.9,1242.5 1390.6,1268.2 1360.0,1293.4 1329.2,1318.1 1297.9,1342.3 1266.2,1366.3 1233.7,1390.1 1200.4,1413.6 1166.1,1437.0 1130.7,1460.3 1093.9,1483.5 1055.5,1506.6 1015.4,1529.5 973.2,1552.3 928.9,1574.9 882.1,1597.2 832.6,1619.2 780.1,1640.7 724.3,1661.7 665.0,1682.1 601.8,1701.7 534.5,1720.4 462.7,1738.0  Z" style="stroke-width: 2.0;  stroke: rgb(82,82,82); fill: rgb(53,128,0); opacity: 0.667;" />
<path d="M 462.701,1737.991 A 1064.250,1064.250 0.00 0,1 461.9,1734.5 L 461.9,1734.5 533.8,1717.1 601.3,1698.6 664.6,1679.1 724.2,1658.8 780.3,1637.9 833.2,1616.4 883.2,1594.5 930.5,1572.3 975.4,1549.8 1018.1,1527.1 1058.9,1504.4 1098.0,1481.5 1135.6,1458.5 1171.9,1435.6 1207.0,1412.5 1241.3,1389.4 1274.8,1366.1 1307.7,1342.7 1340.1,1319.1 1372.2,1295.1 1404.1,1270.8 1436.0,1246.0 1467.8,1220.5 1499.7,1194.3 1531.9,1167.1 1564.3,1138.9 1597.0,1109.4 1630.0,1078.5 1663.5,1045.9 1697.4,1011.4 1731.8,974.8 1766.6,935.8 1801.8,894.1 1837.5,849.6 1873.6,801.8 1910.0,750.5 1946.8,695.3 1983.8,635.9 2020.9,572.0  A 1064.250,1064.250 0.00 0,0 2017.8,570.2 L 2017.8,570.2 1980.8,634.3 1944.0,693.8 1907.5,749.1 1871.2,800.5 1835.3,848.4 1799.8,893.1 1764.7,934.9 1730.0,974.0 1695.8,1010.7 1662.0,1045.3 1628.6,1078.0 1595.6,1109.1 1563.0,1138.7 1530.7,1167.0 1498.7,1194.3 1466.8,1220.6 1435.1,1246.2 1403.4,1271.1 1371.5,1295.6 1339.5,1319.6 1307.2,1343.4 1274.3,1366.9 1240.9,1390.3 1206.8,1413.5 1171.6,1436.7 1135.4,1459.8 1097.9,1482.8 1058.9,1505.9 1018.2,1528.8 975.5,1551.6 930.7,1574.2 883.5,1596.6 833.6,1618.7 780.8,1640.3 724.8,1661.5 665.2,1681.9 601.9,1701.6 534.5,1720.4 462.7,1738.0  Z" style="stroke-width: 2.0;  stroke: rgb(82,82,82); fill: rgb(0,0,204); opacity: 0.667;" />
<path d="M 462.701,1737.991 A 1064.250,1064.250 0.00 0,1 461.9,1734.5 L 461.9,1734.5 534.1,1719.2 602.6,1706.9 667.4,1697.1 729.0,1689.7 787.4,1684.5 843.0,1681.2 895.9,1679.7 946.3,1679.8 994.5,1681.4 1040.7,1684.2 1085.0,1688.2 1127.7,1693.3 1168.8,1699.4 1208.7,1706.4 1247.4,1714.3 1285.2,1723.0 1322.1,1732.6 1358.4,1742.9 1394.2,1754.0 1429.6,1766.0 1464.8,1778.9 1499.9,1792.8 1535.0,1807.7 1570.3,1823.7 1605.8,1841.0 1641.8,1859.7 1678.2,1879.8 1715.1,1901.7 1752.7,1925.4 1791.1,1951.3 1830.3,1979.3 1870.5,2009.9 1911.6,2043.3 1953.7,2079.6 1996.9,2119.3 2041.3,2162.6 2086.9,2209.7 2133.7,2261.2 2181.8,2317.2  A 1064.250,1064.250 0.00 0,0 2184.6,2314.8 L 2184.6,2314.8 2136.3,2259.0 2089.3,2207.7 2043.6,2160.7 1999.0,2117.6 1955.7,2078.1 1913.4,2041.9 1872.2,2008.7 1832.0,1978.2 1792.7,1950.3 1754.2,1924.6 1716.5,1901.0 1679.4,1879.2 1643.0,1859.2 1607.0,1840.6 1571.4,1823.5 1536.1,1807.6 1500.9,1792.8 1465.7,1779.1 1430.5,1766.3 1395.1,1754.4 1359.2,1743.4 1322.9,1733.2 1285.9,1723.8 1248.1,1715.2 1209.4,1707.4 1169.5,1700.6 1128.3,1694.6 1085.7,1689.6 1041.3,1685.8 995.2,1683.1 946.9,1681.7 896.5,1681.8 843.6,1683.5 788.0,1686.9 729.6,1692.4 668.1,1699.9 603.3,1709.9 534.9,1722.5 462.7,1738.0  Z" style="stroke-width: 2.0;  stroke: rgb(82,82,82); fill: rgb(102,153,255); opacity: 0.667;" />
<path d="M 809.224,690.397 A 1064.250,1064.250 0.00 0,1 812.0,688.1 L 812.0,688.1 859.7,743.7 904.7,794.6 947.1,841.1 987.1,883.4 1024.7,921.7 1060.2,956.2 1093.5,987.2 1125.0,1014.7 1154.6,1039.0 1182.5,1060.2 1208.9,1078.5 1233.7,1093.8 1257.2,1106.5 1279.4,1116.4 1300.4,1123.8 1320.3,1128.6 1339.1,1130.9 1357.0,1130.8 1374.0,1128.1 1390.3,1123.0 1405.7,1115.4 1420.5,1105.3 1434.6,1092.6 1448.1,1077.3 1461.1,1059.2 1473.6,1038.4 1485.6,1014.6 1497.2,987.7 1508.3,957.7 1519.1,924.3 1529.5,887.4 1539.5,846.8 1549.1,802.3 1558.4,753.7 1567.3,700.8 1575.8,643.2 1583.9,580.8 1591.6,513.3 1598.9,440.4  A 1064.250,1064.250 0.00 0,0 1595.3,440.0 L 1595.3,440.0 1588.3,513.0 1580.8,580.5 1572.9,643.0 1564.5,700.5 1555.8,753.5 1546.7,802.2 1537.2,846.7 1527.4,887.3 1517.1,924.2 1506.5,957.7 1495.5,987.7 1484.0,1014.6 1472.0,1038.5 1459.6,1059.4 1446.7,1077.5 1433.2,1092.8 1419.1,1105.6 1404.4,1115.8 1389.0,1123.4 1372.8,1128.6 1355.8,1131.2 1337.9,1131.5 1319.0,1129.2 1299.1,1124.5 1278.1,1117.2 1255.9,1107.3 1232.4,1094.8 1207.5,1079.5 1181.1,1061.3 1153.0,1040.2 1123.3,1016.0 1091.8,988.6 1058.3,957.7 1022.8,923.3 985.0,885.1 944.9,843.0 902.3,796.6 857.2,745.8 809.2,690.4  Z" style="stroke-width: 2.0;  stroke: rgb(82,82,82); fill: rgb(153,204,255); opacity: 0.667;" />
<path d="M 809.224,690.397 A 1064.250,1064.250 0.00 0,1 812.0,688.1 L 812.0,688.1 859.8,743.6 905.0,794.5 947.8,840.9 988.2,883.1 1026.4,921.3 1062.5,955.8 1096.7,986.6 1129.1,1014.1 1159.8,1038.3 1188.9,1059.5 1216.6,1077.7 1242.8,1093.1 1267.8,1105.7 1291.7,1115.8 1314.5,1123.3 1336.3,1128.3 1357.2,1130.8 1377.3,1130.9 1396.7,1128.6 1415.4,1123.9 1433.6,1116.8 1451.3,1107.1 1468.5,1095.0 1485.4,1080.3 1501.9,1062.9 1518.2,1042.8 1534.2,1019.8 1550.1,993.9 1565.8,964.8 1581.5,932.4 1597.1,896.5 1612.6,857.0 1628.2,813.6 1643.7,766.2 1659.3,714.4 1675.0,658.2 1690.7,597.0 1706.5,530.8 1722.4,459.2  A 1064.250,1064.250 0.00 0,0 1718.8,458.5 L 1718.8,458.5 1703.2,530.1 1687.7,596.4 1672.1,657.6 1656.7,713.9 1641.2,765.7 1625.8,813.2 1610.4,856.6 1595.0,896.2 1579.5,932.1 1564.0,964.5 1548.4,993.7 1532.6,1019.7 1516.6,1042.8 1500.4,1062.9 1483.9,1080.4 1467.1,1095.1 1450.0,1107.3 1432.3,1117.0 1414.2,1124.2 1395.4,1129.0 1376.0,1131.3 1355.9,1131.3 1335.0,1128.8 1313.2,1123.9 1290.4,1116.5 1266.5,1106.5 1241.4,1093.9 1215.1,1078.7 1187.4,1060.5 1158.3,1039.5 1127.5,1015.4 1095.0,988.0 1060.7,957.3 1024.4,923.0 986.1,884.9 945.5,842.8 902.6,796.5 857.2,745.8 809.2,690.4  Z" style="stroke-width: 2.0;  stroke: rgb(82,82,82); fill: rgb(0,255,255); opacity: 0.667;" />
<path d="M 809.224,690.397 A 1064.250,1064.250 0.00 0,1 812.0,688.1 L 812.0,688.1 860.0,743.6 905.6,794.4 949.0,840.8 990.4,882.9 1029.8,921.0 1067.4,955.4 1103.3,986.3 1137.6,1013.8 1170.4,1038.2 1201.9,1059.5 1232.1,1078.1 1261.2,1093.9 1289.3,1107.1 1316.4,1117.8 1342.7,1126.2 1368.3,1132.2 1393.3,1135.9 1417.8,1137.3 1441.8,1136.5 1465.5,1133.5 1489.0,1128.3 1512.3,1120.7 1535.6,1110.9 1558.8,1098.7 1582.2,1084.1 1605.8,1066.9 1629.7,1047.1 1653.9,1024.5 1678.5,999.0 1703.6,970.4 1729.3,938.6 1755.7,903.4 1782.7,864.6 1810.5,821.9 1839.1,775.1 1868.7,724.0 1899.1,668.2 1930.6,607.6 1963.2,541.8  A 1064.250,1064.250 0.00 0,0 1959.9,540.3 L 1959.9,540.3 1927.6,606.2 1896.3,666.9 1866.0,722.7 1836.7,773.9 1808.2,820.8 1780.5,863.6 1753.6,902.5 1727.4,937.9 1701.8,969.7 1676.8,998.4 1652.3,1024.0 1628.1,1046.6 1604.4,1066.6 1580.8,1083.8 1557.5,1098.5 1534.2,1110.8 1511.0,1120.7 1487.7,1128.3 1464.3,1133.6 1440.6,1136.7 1416.5,1137.6 1392.1,1136.2 1367.1,1132.6 1341.4,1126.7 1315.1,1118.5 1287.9,1107.8 1259.8,1094.7 1230.7,1079.0 1200.4,1060.5 1168.9,1039.3 1136.0,1015.0 1101.6,987.6 1065.6,956.9 1027.9,922.6 988.3,884.6 946.8,842.6 903.2,796.5 857.4,745.8 809.2,690.4  Z" style="stroke-width: 2.0;  stroke: rgb(82,82,82); fill: rgb(204,255,255); opacity: 0.667;" />
<path d="M 809.224,690.397 A 1064.250,1064.250 0.00 0,1 812.0,688.1 L 812.0,688.1 860.0,743.6 905.7,794.4 949.4,840.7 991.0,882.9 1030.7,921.0 1068.7,955.4 1105.0,986.3 1139.8,1013.9 1173.1,1038.4 1205.2,1059.9 1236.0,1078.6 1265.8,1094.6 1294.6,1108.1 1322.6,1119.1 1349.7,1127.7 1376.2,1134.1 1402.2,1138.3 1427.7,1140.2 1452.9,1140.0 1477.8,1137.6 1502.5,1133.0 1527.2,1126.3 1551.9,1117.3 1576.7,1106.0 1601.7,1092.3 1627.0,1076.1 1652.8,1057.4 1678.9,1036.0 1705.7,1011.8 1733.1,984.6 1761.1,954.2 1790.0,920.5 1819.8,883.3 1850.5,842.3 1882.3,797.3 1915.1,748.0 1949.1,694.2 1984.4,635.6 2020.9,572.0  A 1064.250,1064.250 0.00 0,0 2017.8,570.2 L 2017.8,570.2 1981.4,634.0 1946.4,692.7 1912.6,746.6 1879.9,796.0 1848.3,841.1 1817.7,882.2 1788.1,919.6 1759.3,953.4 1731.3,983.8 1704.0,1011.1 1677.4,1035.4 1651.3,1056.9 1625.6,1075.7 1600.3,1091.9 1575.4,1105.7 1550.6,1117.1 1525.9,1126.2 1501.3,1133.0 1476.5,1137.7 1451.6,1140.1 1426.5,1140.4 1401.0,1138.6 1375.0,1134.5 1348.5,1128.3 1321.3,1119.7 1293.3,1108.8 1264.4,1095.4 1234.6,1079.5 1203.7,1060.9 1171.6,1039.5 1138.1,1015.1 1103.2,987.7 1066.8,956.9 1028.8,922.6 988.9,884.6 947.1,842.6 903.4,796.4 857.4,745.8 809.2,690.4  Z" style="stroke-width: 2.0;  stroke: rgb(82,82,82); fill: rgb(153,0,204); opacity: 0.667;" />
<path d="M 809.224,690.397 A 1064.250,1064.250 0.00 0,1 812.0,688.1 L 812.0,688.1 859.2,745.6 902.7,802.2 942.9,857.7 980.2,912.0 1014.9,965.0 1047.4,1016.7 1078.0,1067.0 1106.9,1115.8 1134.6,1163.3 1161.2,1209.2 1187.1,1253.7 1212.4,1296.8 1237.4,1338.5 1262.4,1378.7 1287.5,1417.7 1312.9,1455.4 1338.8,1491.8 1365.3,1527.3 1392.6,1561.7 1420.8,1595.2 1450.0,1628.0 1480.4,1660.2 1511.9,1692.0 1544.6,1723.5 1578.7,1754.9 1614.1,1786.4 1650.8,1818.2 1688.9,1850.6 1728.3,1883.7 1769.0,1917.8 1811.0,1953.2 1854.2,1990.1 1898.5,2028.8 1943.8,2069.7 1990.1,2113.0 2037.2,2159.0 2084.9,2208.2 2133.2,2260.8 2181.8,2317.2  A 1064.250,1064.250 0.00 0,0 2184.6,2314.8 L 2184.6,2314.8 2135.8,2258.6 2087.3,2206.2 2039.4,2157.2 1992.2,2111.3 1945.8,2068.2 1900.3,2027.5 1855.9,1988.9 1812.5,1952.1 1770.4,1916.9 1729.6,1882.9 1690.1,1849.9 1651.9,1817.7 1615.1,1786.0 1579.6,1754.6 1545.4,1723.4 1512.5,1692.0 1480.9,1660.3 1450.5,1628.2 1421.1,1595.5 1392.8,1562.0 1365.4,1527.7 1338.7,1492.4 1312.7,1456.0 1287.2,1418.4 1262.0,1379.5 1236.9,1339.3 1211.7,1297.8 1186.2,1254.8 1160.2,1210.4 1133.4,1164.5 1105.6,1117.2 1076.5,1068.4 1045.8,1018.2 1013.1,966.6 978.2,913.7 940.7,859.6 900.3,804.2 856.6,747.8 809.2,690.4  Z" style="stroke-width: 2.0;  stroke: rgb(82,82,82); fill: rgb(204,51,255); opacity: 0.667;" />
<path d="M 809.224,690.397 A 1064.250,1064.250 0.00 0,1 812.0,688.1 L 812.0,688.1 858.9,744.5 901.6,797.7 940.2,848.0 975.0,895.5 1006.2,940.3 1034.0,982.7 1058.6,1022.7 1080.2,1060.5 1098.8,1096.3 1114.8,1130.3 1128.1,1162.4 1138.9,1193.0 1147.2,1222.0 1153.3,1249.7 1157.0,1276.0 1158.5,1301.2 1157.9,1325.4 1155.0,1348.6 1150.0,1370.9 1142.8,1392.5 1133.4,1413.3 1121.7,1433.6 1107.7,1453.3 1091.3,1472.5 1072.4,1491.3 1051.0,1509.7 1026.8,1527.9 999.8,1545.8 969.8,1563.5 936.7,1581.0 900.2,1598.4 860.2,1615.6 816.5,1632.8 768.8,1649.9 716.9,1666.9 660.6,1683.9 599.5,1700.8 533.3,1717.7 461.9,1734.5  A 1064.250,1064.250 0.00 0,0 462.7,1738.0 L 462.7,1738.0 534.1,1721.0 600.1,1703.9 661.2,1686.7 717.5,1669.6 769.3,1652.4 817.0,1635.1 860.6,1617.8 900.6,1600.4 937.0,1582.9 970.1,1565.3 1000.0,1547.5 1026.9,1529.5 1051.0,1511.3 1072.4,1492.7 1091.2,1473.9 1107.5,1454.6 1121.5,1434.9 1133.1,1414.6 1142.4,1393.7 1149.6,1372.1 1154.5,1349.8 1157.3,1326.6 1157.9,1302.4 1156.2,1277.2 1152.4,1250.8 1146.3,1223.2 1137.8,1194.2 1126.9,1163.7 1113.5,1131.6 1097.5,1097.7 1078.7,1062.0 1057.0,1024.2 1032.3,984.2 1004.3,942.0 973.0,897.3 938.0,849.9 899.2,799.8 856.4,746.6 809.2,690.4  Z" style="stroke-width: 2.0;  stroke: rgb(82,82,82); fill: rgb(204,153,255); opacity: 0.667;" />
<path d="M 817.505,683.405 A 1064.250,1064.250 0.00 0,1 820.3,681.1 L 820.3,681.1 867.5,737.2 911.9,788.6 953.8,835.5 993.3,878.2 1030.5,916.9 1065.5,951.8 1098.5,983.1 1129.6,1011.0 1158.9,1035.6 1186.5,1057.1 1212.5,1075.6 1237.1,1091.3 1260.3,1104.1 1282.3,1114.3 1303.0,1121.9 1322.7,1126.9 1341.3,1129.4 1359.0,1129.4 1375.9,1126.9 1391.9,1121.9 1407.2,1114.5 1421.8,1104.5 1435.8,1091.9 1449.2,1076.7 1462.1,1058.7 1474.4,1037.9 1486.3,1014.2 1497.8,987.4 1508.8,957.4 1519.5,924.1 1529.8,887.3 1539.7,846.7 1549.3,802.2 1558.5,753.7 1567.3,700.7 1575.8,643.2 1583.9,580.8 1591.6,513.3 1598.9,440.4  A 1064.250,1064.250 0.00 0,0 1595.3,440.0 L 1595.3,440.0 1588.3,513.0 1580.8,580.5 1572.9,642.9 1564.6,700.5 1556.0,753.5 1546.9,802.1 1537.5,846.6 1527.7,887.2 1517.6,924.1 1507.0,957.4 1496.1,987.4 1484.7,1014.2 1472.9,1038.0 1460.6,1058.8 1447.8,1076.8 1434.4,1092.1 1420.5,1104.8 1405.9,1114.8 1390.6,1122.3 1374.6,1127.3 1357.8,1129.9 1340.1,1129.9 1321.4,1127.5 1301.7,1122.5 1281.0,1115.0 1259.0,1104.9 1235.7,1092.1 1211.1,1076.6 1185.0,1058.2 1157.3,1036.8 1127.9,1012.3 1096.7,984.5 1063.7,953.3 1028.5,918.5 991.2,879.9 951.6,837.4 909.5,790.6 864.9,739.3 817.5,683.4  Z" style="stroke-width: 2.0;  stroke: rgb(82,82,82); fill: rgb(102,102,102); opacity: 0.667;" />
<path d="M 817.505,683.405 A 1064.250,1064.250 0.00 0,1 820.3,681.1 L 820.3,681.1 867.5,737.2 912.2,788.5 954.5,835.4 994.4,878.0 1032.2,916.6 1067.9,951.4 1101.7,982.6 1133.7,1010.4 1164.1,1034.9 1192.9,1056.4 1220.2,1074.9 1246.2,1090.5 1270.9,1103.4 1294.5,1113.7 1317.1,1121.4 1338.7,1126.6 1359.4,1129.3 1379.3,1129.6 1398.5,1127.4 1417.1,1122.9 1435.1,1115.8 1452.6,1106.4 1469.7,1094.3 1486.4,1079.7 1502.8,1062.5 1519.0,1042.4 1534.9,1019.5 1550.7,993.6 1566.3,964.5 1581.9,932.2 1597.4,896.4 1612.9,856.9 1628.4,813.5 1643.9,766.1 1659.4,714.4 1675.1,658.1 1690.8,597.0 1706.5,530.8 1722.4,459.2  A 1064.250,1064.250 0.00 0,0 1718.8,458.5 L 1718.8,458.5 1703.2,530.1 1687.7,596.4 1672.2,657.6 1656.8,713.9 1641.4,765.7 1626.0,813.1 1610.7,856.5 1595.4,896.0 1580.0,931.9 1564.5,964.3 1549.0,993.4 1533.3,1019.4 1517.4,1042.4 1501.4,1062.4 1485.0,1079.8 1468.3,1094.4 1451.3,1106.5 1433.8,1116.1 1415.8,1123.1 1397.3,1127.8 1378.1,1130.0 1358.1,1129.8 1337.4,1127.1 1315.8,1122.0 1293.2,1114.4 1269.6,1104.2 1244.8,1091.4 1218.8,1075.8 1191.4,1057.4 1162.5,1036.1 1132.1,1011.6 1100.0,983.9 1066.0,952.9 1030.2,918.2 992.3,879.7 952.2,837.2 909.8,790.5 864.9,739.3 817.5,683.4  Z" style="stroke-width: 2.0;  stroke: rgb(82,82,82); fill: rgb(153,153,153); opacity: 0.667;" />
<path d="M 817.505,683.405 A 1064.250,1064.250 0.00 0,1 820.3,681.1 L 820.3,681.1 867.7,737.1 912.8,788.4 955.7,835.2 996.6,877.7 1035.6,916.3 1072.8,951.0 1108.3,982.2 1142.2,1010.1 1174.7,1034.8 1205.9,1056.5 1235.8,1075.3 1264.6,1091.4 1292.4,1104.8 1319.3,1115.8 1345.4,1124.4 1370.7,1130.5 1395.5,1134.4 1419.8,1136.0 1443.6,1135.4 1467.2,1132.5 1490.5,1127.4 1513.7,1120.0 1536.8,1110.3 1559.9,1098.2 1583.2,1083.7 1606.7,1066.6 1630.4,1046.8 1654.5,1024.3 1679.0,998.8 1704.1,970.3 1729.7,938.5 1755.9,903.3 1782.9,864.5 1810.6,821.8 1839.2,775.1 1868.7,724.0 1899.2,668.2 1930.6,607.6 1963.2,541.8  A 1064.250,1064.250 0.00 0,0 1959.9,540.3 L 1959.9,540.3 1927.6,606.2 1896.3,666.9 1866.1,722.7 1836.8,773.9 1808.3,820.8 1780.7,863.6 1753.9,902.5 1727.8,937.8 1702.3,969.6 1677.3,998.2 1652.9,1023.7 1628.9,1046.4 1605.2,1066.2 1581.8,1083.4 1558.6,1098.0 1535.4,1110.2 1512.4,1120.0 1489.2,1127.5 1465.9,1132.7 1442.4,1135.6 1418.5,1136.3 1394.3,1134.8 1369.5,1131.0 1344.1,1124.9 1318.0,1116.4 1291.0,1105.6 1263.2,1092.2 1234.3,1076.2 1204.4,1057.5 1173.1,1035.9 1140.6,1011.3 1106.5,983.6 1070.9,952.5 1033.6,917.8 994.5,879.4 953.5,837.0 910.4,790.4 865.1,739.3 817.5,683.4  Z" style="stroke-width: 2.0;  stroke: rgb(82,82,82); fill: rgb(204,204,204); opacity: 0.667;" />
<path d="M 817.505,683.405 A 1064.250,1064.250 0.00 0,1 820.3,681.1 L 820.3,681.1 867.7,737.1 912.9,788.4 956.1,835.2 997.2,877.7 1036.5,916.3 1074.0,951.1 1110.0,982.3 1144.4,1010.2 1177.4,1035.0 1209.1,1056.8 1239.7,1075.8 1269.2,1092.1 1297.7,1105.8 1325.4,1117.1 1352.4,1125.9 1378.7,1132.5 1404.4,1136.8 1429.7,1139.0 1454.7,1138.9 1479.4,1136.6 1504.0,1132.2 1528.5,1125.6 1553.1,1116.7 1577.8,1105.5 1602.7,1091.9 1627.9,1075.8 1653.5,1057.2 1679.6,1035.8 1706.2,1011.6 1733.5,984.5 1761.5,954.2 1790.3,920.5 1820.0,883.2 1850.7,842.3 1882.4,797.3 1915.2,748.0 1949.1,694.2 1984.4,635.6 2020.9,572.0  A 1064.250,1064.250 0.00 0,0 2017.8,570.2 L 2017.8,570.2 1981.4,634.0 1946.4,692.7 1912.6,746.6 1880.0,796.0 1848.4,841.1 1817.9,882.2 1788.3,919.5 1759.6,953.3 1731.7,983.7 1704.5,1011.0 1678.0,1035.2 1652.0,1056.6 1626.4,1075.4 1601.3,1091.5 1576.4,1105.2 1551.8,1116.5 1527.3,1125.5 1502.8,1132.2 1478.2,1136.7 1453.5,1139.0 1428.5,1139.2 1403.2,1137.2 1377.4,1132.9 1351.1,1126.4 1324.1,1117.7 1296.4,1106.5 1267.8,1092.9 1238.3,1076.7 1207.6,1057.8 1175.8,1036.1 1142.7,1011.5 1108.2,983.6 1072.2,952.5 1034.5,917.8 995.1,879.4 953.8,837.0 910.5,790.4 865.1,739.3 817.5,683.4  Z" style="stroke-width: 2.0;  stroke: rgb(82,82,82); fill: rgb(204,204,153); opacity: 0.667;" />
<path d="M 817.505,683.405 A 1064.250,1064.250 0.00 0,1 820.3,681.1 L 820.3,681.1 868.8,737.6 916.9,790.3 964.5,839.6 1011.5,885.8 1057.7,929.2 1102.9,970.2 1147.1,1009.1 1190.2,1046.2 1232.1,1081.7 1272.7,1115.9 1312.0,1149.2 1350.0,1181.7 1386.6,1213.6 1421.9,1245.3 1455.8,1276.8 1488.5,1308.4 1519.9,1340.4 1550.0,1372.7 1579.1,1405.7 1607.1,1439.3 1634.3,1473.9 1660.6,1509.5 1686.3,1546.1 1711.5,1584.0 1736.3,1623.1 1761.0,1663.5 1785.8,1705.3 1810.8,1748.6 1836.4,1793.3 1862.7,1839.4 1890.0,1887.1 1918.6,1936.2 1948.8,1986.7 1980.9,2038.7 2015.3,2091.9 2052.2,2146.5 2092.0,2202.3 2135.1,2259.2 2181.8,2317.2  A 1064.250,1064.250 0.00 0,0 2184.6,2314.8 L 2184.6,2314.8 2137.6,2257.1 2094.3,2200.3 2054.3,2144.6 2017.3,2090.2 1982.8,2037.0 1950.5,1985.2 1920.1,1934.8 1891.3,1885.8 1863.8,1838.2 1837.4,1792.1 1811.7,1747.5 1786.5,1704.3 1761.6,1662.6 1736.7,1622.3 1711.7,1583.2 1686.4,1545.5 1660.6,1508.9 1634.2,1473.5 1606.9,1439.0 1578.8,1405.4 1549.6,1372.5 1519.3,1340.3 1487.8,1308.5 1455.1,1277.0 1421.0,1245.5 1385.7,1214.0 1348.9,1182.2 1310.8,1149.8 1271.4,1116.7 1230.7,1082.6 1188.7,1047.2 1145.4,1010.3 1101.1,971.6 1055.7,930.7 1009.4,887.5 962.3,841.4 914.5,792.3 866.2,739.8 817.5,683.4  Z" style="stroke-width: 2.0;  stroke: rgb(82,82,82); fill: rgb(251,106,74); opacity: 0.667;" />
<path d="M 817.505,683.405 A 1064.250,1064.250 0.00 0,1 820.3,681.1 L 820.3,681.1 866.7,738.0 908.8,791.7 946.9,842.4 981.2,890.2 1011.9,935.4 1039.3,978.1 1063.4,1018.5 1084.6,1056.6 1102.9,1092.7 1118.5,1126.9 1131.5,1159.3 1141.9,1190.1 1150.0,1219.3 1155.8,1247.2 1159.3,1273.8 1160.6,1299.1 1159.7,1323.5 1156.6,1346.8 1151.4,1369.3 1144.0,1391.0 1134.5,1412.0 1122.6,1432.4 1108.5,1452.2 1092.0,1471.5 1073.0,1490.4 1051.5,1509.0 1027.2,1527.2 1000.2,1545.2 970.1,1563.0 936.9,1580.6 900.4,1598.0 860.4,1615.4 816.6,1632.6 768.9,1649.7 717.0,1666.8 660.6,1683.8 599.5,1700.8 533.3,1717.7 461.9,1734.5  A 1064.250,1064.250 0.00 0,0 462.7,1738.0 L 462.7,1738.0 534.1,1720.9 600.2,1703.8 661.2,1686.7 717.5,1669.5 769.4,1652.2 817.1,1634.9 860.8,1617.5 900.7,1600.1 937.2,1582.5 970.3,1564.8 1000.3,1546.9 1027.3,1528.8 1051.5,1510.5 1073.0,1491.9 1091.9,1472.9 1108.3,1453.5 1122.4,1433.6 1134.2,1413.2 1143.7,1392.2 1151.0,1370.5 1156.1,1348.0 1159.1,1324.6 1159.9,1300.3 1158.5,1274.9 1154.9,1248.4 1149.1,1220.5 1140.9,1191.3 1130.3,1160.6 1117.2,1128.2 1101.5,1094.1 1083.1,1058.0 1061.8,1020.0 1037.5,979.7 1010.0,937.1 979.1,892.0 944.6,844.3 906.4,793.7 864.1,740.1 817.5,683.4  Z" style="stroke-width: 2.0;  stroke: rgb(82,82,82); fill: rgb(116,196,118); opacity: 0.667;" />
<path d="M 817.505,683.405 A 1064.250,1064.250 0.00 0,1 820.3,681.1 L 820.3,681.1 867.0,737.4 910.2,789.5 950.0,837.5 986.6,881.6 1020.1,922.1 1050.7,959.1 1078.6,992.7 1103.8,1023.2 1126.5,1050.7 1146.7,1075.2 1164.6,1097.0 1180.3,1116.1 1193.9,1132.7 1205.3,1146.7 1214.8,1158.3 1222.2,1167.5 1227.7,1174.5 1231.3,1179.1 1233.0,1181.5 1232.9,1181.7 1230.8,1179.6 1226.9,1175.2 1221.0,1168.6 1213.2,1159.6 1203.4,1148.3 1191.6,1134.6 1177.7,1118.4 1161.6,1099.6 1143.3,1078.1 1122.6,1053.9 1099.5,1026.8 1073.9,996.7 1045.6,963.4 1014.5,926.8 980.5,886.8 943.4,843.0 903.0,795.5 859.3,743.9 812.0,688.1  A 1064.250,1064.250 0.00 0,0 809.2,690.4 L 809.2,690.4 856.7,746.1 900.7,797.5 941.2,844.9 978.4,888.5 1012.6,928.5 1043.8,965.0 1072.2,998.1 1097.9,1028.2 1121.1,1055.2 1141.8,1079.3 1160.2,1100.7 1176.4,1119.5 1190.3,1135.6 1202.2,1149.3 1212.0,1160.6 1219.9,1169.5 1225.8,1176.1 1229.7,1180.5 1231.8,1182.6 1232.0,1182.4 1230.2,1180.0 1226.6,1175.4 1221.1,1168.5 1213.6,1159.3 1204.1,1147.7 1192.6,1133.7 1179.0,1117.2 1163.3,1098.2 1145.3,1076.5 1124.9,1052.0 1102.2,1024.6 1076.9,994.2 1048.9,960.6 1018.2,923.7 984.5,883.4 947.8,839.4 907.8,791.5 864.4,739.6 817.5,683.4  Z" style="stroke-width: 2.0;  stroke: rgb(82,82,82); fill: rgb(107,174,214); opacity: 0.667;" />
<path d="M 1304.600,453.842 A 1064.250,1064.250 0.00 0,1 1308.2,453.2 L 1308.2,453.2 1321.5,525.2 1334.2,591.6 1346.3,652.9 1357.7,709.2 1368.6,760.7 1379.0,807.8 1388.8,850.6 1398.2,889.3 1407.1,924.1 1415.7,955.2 1423.8,982.8 1431.6,1006.9 1439.1,1027.6 1446.3,1045.2 1453.2,1059.7 1459.9,1071.1 1466.4,1079.6 1472.7,1085.1 1478.8,1087.7 1484.8,1087.5 1490.7,1084.3 1496.5,1078.2 1502.2,1069.3 1507.8,1057.3 1513.4,1042.3 1519.1,1024.1 1524.7,1002.8 1530.3,978.1 1536.0,949.9 1541.8,918.2 1547.6,882.7 1553.6,843.3 1559.6,799.8 1565.8,752.0 1572.1,699.7 1578.6,642.6 1585.2,580.6 1592.0,513.2 1598.9,440.4  A 1064.250,1064.250 0.00 0,0 1595.3,440.0 L 1595.3,440.0 1588.6,512.9 1582.0,580.3 1575.6,642.4 1569.4,699.5 1563.3,751.8 1557.2,799.6 1551.4,843.2 1545.6,882.6 1539.8,918.1 1534.2,949.8 1528.6,978.0 1523.0,1002.7 1517.4,1024.1 1511.9,1042.2 1506.3,1057.3 1500.7,1069.3 1495.0,1078.3 1489.3,1084.3 1483.4,1087.5 1477.4,1087.8 1471.3,1085.2 1465.0,1079.7 1458.5,1071.3 1451.7,1059.8 1444.8,1045.4 1437.5,1027.9 1429.9,1007.1 1422.1,983.0 1413.8,955.5 1405.2,924.5 1396.1,889.7 1386.6,851.0 1376.6,808.2 1366.1,761.2 1355.0,709.7 1343.4,653.4 1331.1,592.2 1318.2,525.8 1304.6,453.8  Z" style="stroke-width: 2.0;  stroke: rgb(82,82,82); fill: rgb(253,141,60); opacity: 0.667;" />
<path d="M 1304.600,453.842 A 1064.250,1064.250 0.00 0,1 1308.2,453.2 L 1308.2,453.2 1321.6,525.2 1334.5,591.6 1346.9,652.9 1358.8,709.2 1370.3,760.8 1381.4,807.9 1392.1,850.7 1402.5,889.5 1412.5,924.4 1422.2,955.5 1431.7,983.2 1440.9,1007.4 1449.9,1028.4 1458.8,1046.1 1467.5,1060.8 1476.2,1072.5 1484.7,1081.2 1493.2,1087.1 1501.7,1090.0 1510.3,1090.2 1518.8,1087.4 1527.5,1081.8 1536.3,1073.4 1545.3,1061.9 1554.5,1047.5 1563.8,1030.0 1573.5,1009.4 1583.4,985.4 1593.7,958.1 1604.3,927.2 1615.4,892.6 1626.8,854.1 1638.8,811.6 1651.2,764.9 1664.2,713.7 1677.8,657.7 1692.0,596.9 1706.8,530.8 1722.4,459.2  A 1064.250,1064.250 0.00 0,0 1718.8,458.5 L 1718.8,458.5 1703.5,530.1 1688.9,596.2 1674.9,657.1 1661.6,713.1 1648.7,764.4 1636.4,811.2 1624.6,853.7 1613.3,892.2 1602.4,926.8 1591.8,957.7 1581.7,985.1 1571.8,1009.1 1562.2,1029.8 1552.9,1047.3 1543.8,1061.8 1534.9,1073.2 1526.1,1081.8 1517.4,1087.4 1508.9,1090.1 1500.3,1090.0 1491.8,1087.1 1483.3,1081.3 1474.7,1072.6 1466.0,1060.9 1457.3,1046.3 1448.3,1028.5 1439.2,1007.6 1429.9,983.4 1420.4,955.8 1410.5,924.7 1400.4,889.8 1389.9,851.1 1379.1,808.3 1367.8,761.2 1356.2,709.7 1344.0,653.4 1331.4,592.2 1318.3,525.8 1304.6,453.8  Z" style="stroke-width: 2.0;  stroke: rgb(82,82,82); fill: rgb(255,0,0); opacity: 0.667;" />
<path d="M 1304.600,453.842 A 1064.250,1064.250 0.00 0,1 1308.2,453.2 L 1308.2,453.2 1321.7,525.2 1335.1,591.7 1348.2,653.0 1361.1,709.4 1373.8,761.2 1386.4,808.5 1398.8,851.6 1411.0,890.8 1423.2,926.1 1435.3,957.8 1447.4,986.0 1459.4,1011.0 1471.5,1032.7 1483.7,1051.4 1496.0,1067.1 1508.4,1079.9 1521.0,1089.9 1533.9,1097.2 1547.0,1101.7 1560.5,1103.5 1574.4,1102.7 1588.7,1099.1 1603.6,1092.8 1619.0,1083.7 1635.0,1071.9 1651.7,1057.1 1669.1,1039.3 1687.4,1018.5 1706.5,994.5 1726.6,967.1 1747.7,936.3 1769.9,901.9 1793.3,863.6 1818.0,821.3 1844.0,774.8 1871.5,723.8 1900.4,668.2 1931.0,607.6 1963.2,541.8  A 1064.250,1064.250 0.00 0,0 1959.9,540.3 L 1959.9,540.3 1927.9,606.2 1897.6,666.9 1868.8,722.6 1841.6,773.6 1815.7,820.2 1791.2,862.6 1767.9,900.9 1745.8,935.5 1724.8,966.4 1704.8,993.8 1685.7,1017.9 1667.5,1038.8 1650.1,1056.6 1633.5,1071.4 1617.5,1083.3 1602.2,1092.4 1587.4,1098.8 1573.1,1102.4 1559.2,1103.3 1545.7,1101.5 1532.5,1097.1 1519.6,1089.9 1507.0,1079.9 1494.5,1067.1 1482.2,1051.4 1469.9,1032.8 1457.8,1011.1 1445.6,986.2 1433.5,958.0 1421.3,926.3 1409.0,891.1 1396.6,852.0 1384.0,808.9 1371.3,761.6 1358.4,709.9 1345.3,653.5 1332.0,592.3 1318.4,525.8 1304.6,453.8  Z" style="stroke-width: 2.0;  stroke: rgb(82,82,82); fill: rgb(255,0,204); opacity: 0.667;" />
<path d="M 1304.600,453.842 A 1064.250,1064.250 0.00 0,1 1308.2,453.2 L 1308.2,453.2 1321.8,525.2 1335.2,591.7 1348.5,653.1 1361.7,709.6 1374.7,761.4 1387.6,808.8 1400.4,852.0 1413.2,891.3 1425.9,926.8 1438.6,958.7 1451.3,987.2 1464.0,1012.4 1476.9,1034.4 1489.8,1053.4 1503.0,1069.5 1516.3,1082.8 1529.9,1093.3 1543.8,1101.0 1558.1,1106.1 1572.8,1108.6 1587.9,1108.4 1603.6,1105.5 1619.9,1100.0 1636.8,1091.8 1654.4,1080.9 1672.9,1067.1 1692.2,1050.4 1712.4,1030.7 1733.7,1007.9 1756.0,981.8 1779.5,952.3 1804.3,919.3 1830.5,882.6 1858.0,841.9 1887.2,797.1 1917.9,748.0 1950.4,694.2 1984.7,635.7 2020.9,572.0  A 1064.250,1064.250 0.00 0,0 2017.8,570.2 L 2017.8,570.2 1981.8,634.0 1947.7,692.7 1915.4,746.6 1884.8,795.8 1855.8,840.7 1828.4,881.5 1802.3,918.3 1777.7,951.4 1754.2,980.9 1732.0,1007.1 1710.8,1030.0 1690.6,1049.7 1671.4,1066.5 1653.0,1080.3 1635.4,1091.4 1618.5,1099.6 1602.3,1105.2 1586.6,1108.1 1571.4,1108.3 1556.8,1105.9 1542.5,1100.9 1528.5,1093.2 1514.9,1082.7 1501.5,1069.5 1488.3,1053.5 1475.3,1034.5 1462.4,1012.5 1449.5,987.3 1436.7,958.9 1423.9,927.0 1411.1,891.6 1398.2,852.4 1385.3,809.2 1372.2,761.8 1359.0,710.0 1345.7,653.6 1332.2,592.3 1318.5,525.8 1304.6,453.8  Z" style="stroke-width: 2.0;  stroke: rgb(82,82,82); fill: rgb(255,204,204); opacity: 0.667;" />
<path d="M 1304.600,453.842 A 1064.250,1064.250 0.00 0,1 1308.2,453.2 L 1308.2,453.2 1322.7,525.9 1338.7,594.6 1355.8,659.5 1374.0,721.0 1393.0,779.3 1412.6,834.7 1432.6,887.5 1452.9,937.8 1473.4,986.0 1493.8,1032.3 1514.2,1076.9 1534.5,1120.0 1554.5,1161.9 1574.2,1202.7 1593.7,1242.7 1612.8,1282.0 1631.5,1320.8 1650.0,1359.4 1668.2,1397.7 1686.2,1436.1 1704.1,1474.7 1721.9,1513.5 1739.7,1552.8 1757.7,1592.6 1776.0,1633.1 1794.7,1674.4 1814.1,1716.6 1834.3,1759.8 1855.5,1804.0 1878.0,1849.3 1902.0,1895.9 1927.7,1943.7 1955.4,1992.8 1985.5,2043.3 2018.1,2095.2 2053.8,2148.5 2092.7,2203.3 2135.2,2259.5 2181.8,2317.2  A 1064.250,1064.250 0.00 0,0 2184.6,2314.8 L 2184.6,2314.8 2137.8,2257.3 2095.0,2201.2 2056.0,2146.6 2020.2,2093.4 1987.3,2041.6 1957.1,1991.2 1929.2,1942.2 1903.3,1894.5 1879.2,1848.0 1856.6,1802.8 1835.2,1758.6 1814.8,1715.5 1795.3,1673.4 1776.4,1632.2 1758.0,1591.8 1739.9,1552.0 1721.9,1512.8 1704.0,1474.0 1686.0,1435.5 1667.9,1397.2 1649.5,1358.9 1630.9,1320.4 1612.0,1281.6 1592.8,1242.4 1573.2,1202.5 1553.3,1161.7 1533.2,1119.9 1512.8,1076.8 1492.2,1032.3 1471.6,986.1 1451.0,938.0 1430.5,887.7 1410.3,835.0 1390.6,779.7 1371.4,721.4 1353.0,660.0 1335.6,595.1 1319.4,526.5 1304.6,453.8  Z" style="stroke-width: 2.0;  stroke: rgb(82,82,82); fill: rgb(255,153,0); opacity: 0.667;" />
<path d="M 1304.600,453.842 A 1064.250,1064.250 0.00 0,1 1308.2,453.2 L 1308.2,453.2 1320.5,525.7 1330.4,593.9 1337.9,658.0 1343.3,718.2 1346.7,774.8 1348.2,828.1 1347.9,878.2 1346.1,925.4 1342.7,969.9 1337.9,1012.0 1331.7,1051.8 1324.2,1089.4 1315.5,1125.2 1305.6,1159.1 1294.4,1191.5 1282.1,1222.4 1268.5,1252.0 1253.7,1280.4 1237.6,1307.7 1220.2,1334.1 1201.3,1359.7 1181.0,1384.4 1159.1,1408.5 1135.5,1432.0 1110.2,1455.0 1082.8,1477.5 1053.4,1499.5 1021.7,1521.2 987.5,1542.4 950.7,1563.4 911.1,1584.0 868.4,1604.2 822.4,1624.1 772.8,1643.6 719.4,1662.8 661.9,1681.5 600.1,1699.7 533.5,1717.4 461.9,1734.5  A 1064.250,1064.250 0.00 0,0 462.7,1738.0 L 462.7,1738.0 534.2,1720.7 600.7,1702.8 662.6,1684.3 720.0,1665.4 773.3,1646.1 822.8,1626.4 868.8,1606.4 911.4,1586.0 951.0,1565.2 987.7,1544.2 1021.8,1522.8 1053.4,1501.0 1082.7,1478.9 1110.0,1456.3 1135.3,1433.3 1158.8,1409.7 1180.6,1385.5 1200.8,1360.7 1219.6,1335.1 1236.9,1308.6 1252.9,1281.2 1267.6,1252.8 1281.1,1223.1 1293.4,1192.2 1304.4,1159.8 1314.2,1125.8 1322.8,1090.0 1330.2,1052.3 1336.2,1012.6 1340.9,970.5 1344.1,925.9 1345.8,878.7 1345.9,828.6 1344.2,775.3 1340.7,718.7 1335.1,658.5 1327.3,594.5 1317.2,526.3 1304.6,453.8  Z" style="stroke-width: 2.0;  stroke: rgb(82,82,82); fill: rgb(255,204,0); opacity: 0.667;" />
<path d="M 1304.600,453.842 A 1064.250,1064.250 0.00 0,1 1308.2,453.2 L 1308.2,453.2 1321.0,525.3 1332.3,592.1 1342.1,654.0 1350.4,711.1 1357.4,763.7 1363.0,812.0 1367.4,856.3 1370.5,896.7 1372.5,933.5 1373.3,966.8 1373.0,996.7 1371.6,1023.5 1369.2,1047.2 1365.6,1068.0 1361.0,1085.9 1355.3,1101.1 1348.5,1113.7 1340.6,1123.6 1331.6,1131.0 1321.4,1135.8 1309.9,1138.1 1297.2,1138.0 1283.2,1135.3 1267.9,1130.0 1251.1,1122.2 1232.7,1111.8 1212.8,1098.7 1191.2,1082.8 1167.9,1064.0 1142.7,1042.3 1115.5,1017.4 1086.2,989.4 1054.7,957.9 1020.9,922.9 984.6,884.2 945.7,841.6 904.1,794.8 859.6,743.7 812.0,688.1  A 1064.250,1064.250 0.00 0,0 809.2,690.4 L 809.2,690.4 857.0,745.9 901.7,796.9 943.5,843.5 982.5,886.0 1018.9,924.6 1052.9,959.4 1084.5,990.8 1113.8,1018.7 1141.1,1043.5 1166.4,1065.1 1189.8,1083.8 1211.5,1099.6 1231.4,1112.7 1249.8,1123.1 1266.6,1130.8 1282.0,1136.0 1296.0,1138.6 1308.7,1138.8 1320.1,1136.4 1330.3,1131.5 1339.3,1124.1 1347.2,1114.2 1354.0,1101.6 1359.6,1086.4 1364.2,1068.4 1367.6,1047.7 1370.0,1023.9 1371.3,997.2 1371.5,967.2 1370.6,933.9 1368.5,897.2 1365.2,856.7 1360.7,812.5 1354.9,764.1 1347.7,711.6 1339.2,654.5 1329.2,592.7 1317.7,525.9 1304.6,453.8  Z" style="stroke-width: 2.0;  stroke: rgb(82,82,82); fill: rgb(255,255,0); opacity: 0.667;" />
<path d="M 1304.600,453.842 A 1064.250,1064.250 0.00 0,1 1308.2,453.2 L 1308.2,453.2 1321.0,525.3 1332.3,592.1 1342.1,653.9 1350.5,711.0 1357.5,763.6 1363.2,811.9 1367.6,856.1 1370.8,896.5 1372.9,933.3 1373.8,966.5 1373.6,996.4 1372.3,1023.1 1370.0,1046.7 1366.5,1067.4 1362.0,1085.3 1356.5,1100.4 1349.8,1112.8 1342.1,1122.6 1333.2,1129.8 1323.1,1134.5 1311.9,1136.7 1299.4,1136.3 1285.6,1133.5 1270.5,1128.0 1253.9,1120.0 1235.8,1109.4 1216.2,1096.0 1194.9,1079.9 1171.8,1060.8 1146.9,1038.8 1120.1,1013.7 1091.2,985.3 1060.1,953.5 1026.7,918.1 990.8,879.0 952.4,836.0 911.3,788.8 867.3,737.2 820.3,681.1  A 1064.250,1064.250 0.00 0,0 817.5,683.4 L 817.5,683.4 864.7,739.4 908.9,790.8 950.2,837.9 988.7,880.8 1024.7,919.7 1058.2,955.0 1089.4,986.7 1118.4,1015.0 1145.4,1040.0 1170.3,1061.9 1193.4,1080.9 1214.8,1097.0 1234.5,1110.3 1252.6,1120.9 1269.2,1128.8 1284.4,1134.2 1298.2,1137.0 1310.7,1137.3 1321.9,1135.1 1331.9,1130.4 1340.8,1123.1 1348.5,1113.3 1355.1,1100.8 1360.6,1085.7 1365.1,1067.9 1368.4,1047.2 1370.7,1023.5 1371.9,996.8 1372.0,966.9 1371.0,933.7 1368.8,897.0 1365.4,856.6 1360.8,812.4 1355.0,764.1 1347.8,711.5 1339.3,654.5 1329.3,592.7 1317.7,525.9 1304.6,453.8  Z" style="stroke-width: 2.0;  stroke: rgb(82,82,82); fill: rgb(204,255,0); opacity: 0.667;" />
<path d="M 1106.078,511.337 A 1064.250,1064.250 0.00 0,1 1108.7,510.3 L 1108.7,510.3 1135.7,578.4 1160.5,641.3 1183.4,699.3 1204.5,752.6 1223.8,801.5 1241.4,846.1 1257.4,886.8 1271.9,923.6 1284.9,956.7 1296.6,986.3 1306.9,1012.6 1315.9,1035.6 1323.6,1055.5 1330.2,1072.4 1335.6,1086.4 1339.9,1097.4 1343.0,1105.7 1345.1,1111.2 1346.0,1114.0 1345.9,1114.0 1344.7,1111.4 1342.4,1106.0 1338.9,1097.8 1334.4,1086.8 1328.7,1073.0 1321.9,1056.2 1313.8,1036.5 1304.5,1013.6 1293.9,987.4 1281.9,957.9 1268.6,924.9 1253.7,888.2 1237.4,847.7 1219.4,803.2 1199.7,754.5 1178.3,701.3 1154.9,643.5 1129.6,580.8 1102.3,512.9  A 1064.250,1064.250 0.00 0,0 1099.6,513.9 L 1099.6,513.9 1127.2,581.8 1152.6,644.4 1176.1,702.2 1197.7,755.3 1217.5,804.0 1235.6,848.5 1252.1,888.9 1267.0,925.5 1280.5,958.5 1292.5,988.0 1303.2,1014.1 1312.6,1037.0 1320.7,1056.7 1327.6,1073.5 1333.3,1087.3 1337.9,1098.2 1341.3,1106.4 1343.6,1111.8 1344.8,1114.5 1345.0,1114.4 1344.0,1111.6 1342.0,1106.1 1338.8,1097.9 1334.5,1086.8 1329.1,1072.9 1322.4,1056.0 1314.6,1036.1 1305.5,1013.1 1295.2,986.9 1283.4,957.3 1270.3,924.2 1255.7,887.4 1239.6,846.8 1221.9,802.2 1202.5,753.4 1181.3,700.1 1158.2,642.2 1133.2,579.3 1106.1,511.3  Z" style="stroke-width: 2.0;  stroke: rgb(82,82,82); fill: rgb(0,255,0); opacity: 0.667;" />
<path d="M 1992.006,556.306 A 1064.250,1064.250 0.00 0,1 1995.7,558.3 L 1995.7,558.3 1961.4,622.9 1929.1,682.5 1898.7,737.2 1870.3,787.3 1843.5,833.0 1818.5,874.5 1795.0,912.1 1773.0,945.9 1752.4,976.1 1733.1,1002.9 1715.1,1026.3 1698.2,1046.6 1682.4,1063.8 1667.7,1078.0 1653.9,1089.3 1641.1,1097.8 1629.1,1103.4 1618.0,1106.4 1607.6,1106.6 1597.9,1104.1 1588.9,1098.8 1580.6,1090.8 1572.9,1080.0 1565.8,1066.3 1559.3,1049.8 1553.4,1030.2 1548.0,1007.5 1543.1,981.6 1538.8,952.3 1535.0,919.6 1531.7,883.1 1529.0,842.9 1526.8,798.6 1525.2,750.1 1524.2,697.2 1523.7,639.6 1523.9,577.0 1524.8,509.3 1526.3,436.1  A 1064.250,1064.250 0.00 0,0 1522.1,436.0 L 1522.1,436.0 1520.9,509.2 1520.3,577.0 1520.3,639.5 1521.0,697.1 1522.3,750.0 1524.1,798.5 1526.4,842.8 1529.3,883.0 1532.7,919.4 1536.6,952.2 1541.1,981.4 1546.0,1007.3 1551.5,1030.0 1557.5,1049.5 1564.1,1066.1 1571.2,1079.7 1579.0,1090.5 1587.3,1098.5 1596.3,1103.7 1606.0,1106.2 1616.4,1105.9 1627.6,1102.9 1639.5,1097.2 1652.3,1088.7 1666.0,1077.3 1680.7,1063.1 1696.4,1045.8 1713.2,1025.5 1731.2,1002.0 1750.3,975.2 1770.8,944.9 1792.7,911.0 1816.0,873.3 1840.9,831.6 1867.4,785.8 1895.7,735.6 1925.8,680.8 1957.9,621.1 1992.0,556.3  Z" style="stroke-width: 2.0;  stroke: rgb(82,82,82); fill: rgb(53,128,0); opacity: 0.667;" />
</g>
<defs>
<pattern id="hline-sparse" width="10" height="10" patternTransform="rotate(0 0 0)" patternUnits="userSpaceOnUse"><line x1="0" y1="0" x2="10" y2="0" style="stroke:black;stroke-width:2" /></pattern>
<pattern id="checker" width="10" height="10" patternTransform="rotate(45 0 0)" patternUnits="userSpaceOnUse"><line x1="0" y1="0" x2="10" y2="0" style="stroke:black;stroke-width:2" /><line x1="0" y1="0" x2="0" y2="10" style="stroke:black;stroke-width:2" /></pattern>
<pattern id="checker" width="10" height="10" patternTransform="rotate(45 0 0)" patternUnits="userSpaceOnUse"><line x1="0" y1="0" x2="10" y2="0" style="stroke:black;stroke-width:5" /><line x1="0" y1="0" x2="0" y2="10" style="stroke:black;stroke-width:4" /></pattern>
<pattern id="hline" width="10" height="10" patternTransform="rotate(0 0 0)" patternUnits="userSpaceOnUse"><line x1="0" y1="0" x2="10" y2="0" style="stroke:black;stroke-width:5" /></pattern>
<pattern id="vline-sparse" width="10" height="10" patternTransform="rotate(0 0 0)" patternUnits="userSpaceOnUse"><line x1="0" y1="0" x2="0" y2="10" style="stroke:black;stroke-width:2" /></pattern>
<pattern id="vline" width="10" height="10" patternTransform="rotate(0 0 0)" patternUnits="userSpaceOnUse"><line x1="0" y1="0" x2="0" y2="10" style="stroke:black;stroke-width:5" /></pattern>
</defs>
</svg>
