<?xml version="1.0" encoding="utf-8" standalone="no"?>
<!DOCTYPE svg PUBLIC "-//W3C//DTD SVG 1.1//EN" "http://www.w3.org/Graphics/SVG/1.1/DTD/svg11.dtd">
<svg width="3000px" height="3000px" version="1.1" xmlns="http://www.w3.org/2000/svg" xmlns:xlink="http://www.w3.org/1999/xlink">
<g id="ideograms">
<path d="M1500.000,425.000 A1075.000,1075.000 40.000 0,1 1534.203,425.544 L1535.794,375.570 A1125.000,1125.000 0.000 0,0 1500.000,375.000 Z" style="stroke-linecap:round;fill:rgb(116,196,118);fill-opacity:0.33;" />
<text x="1528.8" y="285.3" font-size="18.2px" font-family="CMUBright-Roman" style="text-anchor:start;fill:rgb(0,0,0);" transform="rotate(270.9,1528.8,285.3)" >R<tspan baseline-shift="-40%" font-size="90%">s</tspan>caffold<tspan baseline-shift="-40%" font-size="90%">2</tspan>5</text>
<line x1='1500.0' y1='375.0' x2='1500.0' y2='355.0' style="stroke-width:4.0;stroke:rgb(0,0,0);stroke-linecap:round;fill:none;" />
<text x="1506.5" y="345.0" font-size="18.2px" font-family="CMUBright-Roman" style="text-anchor:start;fill:rgb(0,0,0);" transform="rotate(270.0,1506.5,345.0)" >0</text>
<g id="highlighttrack_0">
<path d="M1516.202,425.122 A1075.000,1075.000 40.000 0,1 1527.911,425.362 L1529.209,375.379 A1125.000,1125.000 0.000 0,0 1516.956,375.128 Z" style="stroke-width:4.0;stroke:rgb(0,0,0);stroke-linecap:round;fill:rgb(116,196,118);" />
</g>
<path d="M1599.643,429.628 A1075.000,1075.000 40.000 0,1 1603.833,430.026 L1608.663,380.260 A1125.000,1125.000 0.000 0,0 1604.277,379.843 Z" style="stroke-linecap:round;fill:rgb(116,196,118);fill-opacity:0.33;" />
<text x="1624.4" y="291.4" font-size="18.2px" font-family="CMUBright-Roman" style="text-anchor:start;fill:rgb(0,0,0);" transform="rotate(275.4,1624.4,291.4)" >R<tspan baseline-shift="-40%" font-size="90%">s</tspan>caffold<tspan baseline-shift="-40%" font-size="90%">2</tspan>9</text>
<line x1='1604.3' y1='379.8' x2='1606.1' y2='359.9' style="stroke-width:4.0;stroke:rgb(0,0,0);stroke-linecap:round;fill:none;" />
<text x="1613.5" y="350.6" font-size="18.2px" font-family="CMUBright-Roman" style="text-anchor:start;fill:rgb(0,0,0);" transform="rotate(275.3,1613.5,350.6)" >0</text>
<g id="highlighttrack_0">
<path d="M1599.904,429.652 A1075.000,1075.000 40.000 0,1 1603.815,430.025 L1608.643,380.258 A1125.000,1125.000 0.000 0,0 1604.551,379.869 Z" style="stroke-width:4.0;stroke:rgb(0,0,0);stroke-linecap:round;fill:rgb(251,106,74);" />
</g>
<path d="M1668.870,438.347 A1075.000,1075.000 40.000 1,1 1434.464,427.000 L1431.416,377.093 A1125.000,1125.000 0.000 1,0 1676.725,388.967 Z" style="stroke-linecap:round;fill:rgb(116,196,118);fill-opacity:0.33;" />
<text x="1450.7" y="2714.0" font-size="18.2px" font-family="CMUBright-Roman" style="text-anchor:end;fill:rgb(0,0,0);" transform="rotate(-87.2,1450.7,2714.0)" >NZ<tspan baseline-shift="-40%" font-size="90%">C</tspan>P018456.1</text>
<line x1='1676.7' y1='389.0' x2='1679.9' y2='369.2' style="stroke-width:4.0;stroke:rgb(0,0,0);stroke-linecap:round;fill:none;" />
<text x="1687.9" y="360.4" font-size="18.2px" font-family="CMUBright-Roman" style="text-anchor:start;fill:rgb(0,0,0);" transform="rotate(279.0,1687.9,360.4)" >0</text>
<line x1='1746.7' y1='402.4' x2='1751.1' y2='382.9' style="stroke-width:4.0;stroke:rgb(0,0,0);stroke-linecap:round;fill:none;" />
<text x="1759.6" y="374.6" font-size="18.2px" font-family="CMUBright-Roman" style="text-anchor:start;fill:rgb(0,0,0);" transform="rotate(282.7,1759.6,374.6)" >50</text>
<line x1='1815.7' y1='420.2' x2='1821.3' y2='401.0' style="stroke-width:4.0;stroke:rgb(0,0,0);stroke-linecap:round;fill:none;" />
<text x="1830.3" y="393.2" font-size="18.2px" font-family="CMUBright-Roman" style="text-anchor:start;fill:rgb(0,0,0);" transform="rotate(286.3,1830.3,393.2)" >100</text>
<line x1='1883.4' y1='442.4' x2='1890.2' y2='423.5' style="stroke-width:4.0;stroke:rgb(0,0,0);stroke-linecap:round;fill:none;" />
<text x="1899.7" y="416.4" font-size="18.2px" font-family="CMUBright-Roman" style="text-anchor:start;fill:rgb(0,0,0);" transform="rotate(289.9,1899.7,416.4)" >150</text>
<line x1='1949.6' y1='468.7' x2='1957.6' y2='450.4' style="stroke-width:4.0;stroke:rgb(0,0,0);stroke-linecap:round;fill:none;" />
<text x="1967.5" y="443.9" font-size="18.2px" font-family="CMUBright-Roman" style="text-anchor:start;fill:rgb(0,0,0);" transform="rotate(293.6,1967.5,443.9)" >200</text>
<line x1='2014.0' y1='499.3' x2='2023.1' y2='481.5' style="stroke-width:4.0;stroke:rgb(0,0,0);stroke-linecap:round;fill:none;" />
<text x="2033.5" y="475.6" font-size="18.2px" font-family="CMUBright-Roman" style="text-anchor:start;fill:rgb(0,0,0);" transform="rotate(297.2,2033.5,475.6)" >250</text>
<line x1='2076.3' y1='533.8' x2='2086.5' y2='516.6' style="stroke-width:4.0;stroke:rgb(0,0,0);stroke-linecap:round;fill:none;" />
<text x="2097.2" y="511.4" font-size="18.2px" font-family="CMUBright-Roman" style="text-anchor:start;fill:rgb(0,0,0);" transform="rotate(300.8,2097.2,511.4)" >300</text>
<line x1='2136.3' y1='572.2' x2='2147.6' y2='555.7' style="stroke-width:4.0;stroke:rgb(0,0,0);stroke-linecap:round;fill:none;" />
<text x="2158.6" y="551.2" font-size="18.2px" font-family="CMUBright-Roman" style="text-anchor:start;fill:rgb(0,0,0);" transform="rotate(304.4,2158.6,551.2)" >350</text>
<line x1='2193.8' y1='614.4' x2='2206.1' y2='598.6' style="stroke-width:4.0;stroke:rgb(0,0,0);stroke-linecap:round;fill:none;" />
<text x="2217.4" y="594.8" font-size="18.2px" font-family="CMUBright-Roman" style="text-anchor:start;fill:rgb(0,0,0);" transform="rotate(308.1,2217.4,594.8)" >400</text>
<line x1='2248.4' y1='660.1' x2='2261.7' y2='645.1' style="stroke-width:4.0;stroke:rgb(0,0,0);stroke-linecap:round;fill:none;" />
<text x="2273.2" y="642.0" font-size="18.2px" font-family="CMUBright-Roman" style="text-anchor:start;fill:rgb(0,0,0);" transform="rotate(311.7,2273.2,642.0)" >450</text>
<line x1='2300.1' y1='709.1' x2='2314.3' y2='695.1' style="stroke-width:4.0;stroke:rgb(0,0,0);stroke-linecap:round;fill:none;" />
<text x="2326.0" y="692.7" font-size="18.2px" font-family="CMUBright-Roman" style="text-anchor:start;fill:rgb(0,0,0);" transform="rotate(315.3,2326.0,692.7)" >500</text>
<line x1='2348.6' y1='761.4' x2='2363.6' y2='748.2' style="stroke-width:4.0;stroke:rgb(0,0,0);stroke-linecap:round;fill:none;" />
<text x="2375.4" y="746.6" font-size="18.2px" font-family="CMUBright-Roman" style="text-anchor:start;fill:rgb(0,0,0);" transform="rotate(319.0,2375.4,746.6)" >550</text>
<line x1='2393.6' y1='816.6' x2='2409.5' y2='804.4' style="stroke-width:4.0;stroke:rgb(0,0,0);stroke-linecap:round;fill:none;" />
<text x="2421.4" y="803.5" font-size="18.2px" font-family="CMUBright-Roman" style="text-anchor:start;fill:rgb(0,0,0);" transform="rotate(322.6,2421.4,803.5)" >600</text>
<line x1='2435.1' y1='874.5' x2='2451.7' y2='863.4' style="stroke-width:4.0;stroke:rgb(0,0,0);stroke-linecap:round;fill:none;" />
<text x="2463.6" y="863.2" font-size="18.2px" font-family="CMUBright-Roman" style="text-anchor:start;fill:rgb(0,0,0);" transform="rotate(326.2,2463.6,863.2)" >650</text>
<line x1='2472.8' y1='935.0' x2='2490.1' y2='924.9' style="stroke-width:4.0;stroke:rgb(0,0,0);stroke-linecap:round;fill:none;" />
<text x="2502.0" y="925.5" font-size="18.2px" font-family="CMUBright-Roman" style="text-anchor:start;fill:rgb(0,0,0);" transform="rotate(329.9,2502.0,925.5)" >700</text>
<line x1='2506.6' y1='997.7' x2='2524.5' y2='988.7' style="stroke-width:4.0;stroke:rgb(0,0,0);stroke-linecap:round;fill:none;" />
<text x="2536.4" y="990.1" font-size="18.2px" font-family="CMUBright-Roman" style="text-anchor:start;fill:rgb(0,0,0);" transform="rotate(333.5,2536.4,990.1)" >750</text>
<line x1='2536.4' y1='1062.4' x2='2554.8' y2='1054.6' style="stroke-width:4.0;stroke:rgb(0,0,0);stroke-linecap:round;fill:none;" />
<text x="2566.6" y="1056.7" font-size="18.2px" font-family="CMUBright-Roman" style="text-anchor:start;fill:rgb(0,0,0);" transform="rotate(337.1,2566.6,1056.7)" >800</text>
<line x1='2562.0' y1='1128.9' x2='2580.9' y2='1122.3' style="stroke-width:4.0;stroke:rgb(0,0,0);stroke-linecap:round;fill:none;" />
<text x="2592.5" y="1125.1" font-size="18.2px" font-family="CMUBright-Roman" style="text-anchor:start;fill:rgb(0,0,0);" transform="rotate(340.7,2592.5,1125.1)" >850</text>
<line x1='2583.4' y1='1196.9' x2='2602.6' y2='1191.5' style="stroke-width:4.0;stroke:rgb(0,0,0);stroke-linecap:round;fill:none;" />
<text x="2614.0" y="1195.0" font-size="18.2px" font-family="CMUBright-Roman" style="text-anchor:start;fill:rgb(0,0,0);" transform="rotate(344.4,2614.0,1195.0)" >900</text>
<line x1='2600.4' y1='1266.0' x2='2620.0' y2='1261.9' style="stroke-width:4.0;stroke:rgb(0,0,0);stroke-linecap:round;fill:none;" />
<text x="2631.1" y="1266.2" font-size="18.2px" font-family="CMUBright-Roman" style="text-anchor:start;fill:rgb(0,0,0);" transform="rotate(348.0,2631.1,1266.2)" >950</text>
<line x1='2613.0' y1='1336.2' x2='2632.8' y2='1333.3' style="stroke-width:4.0;stroke:rgb(0,0,0);stroke-linecap:round;fill:none;" />
<text x="2643.6" y="1338.2" font-size="18.2px" font-family="CMUBright-Roman" style="text-anchor:start;fill:rgb(0,0,0);" transform="rotate(351.6,2643.6,1338.2)" >1000</text>
<line x1='2621.1' y1='1407.0' x2='2641.1' y2='1405.3' style="stroke-width:4.0;stroke:rgb(0,0,0);stroke-linecap:round;fill:none;" />
<text x="2651.6" y="1411.0" font-size="18.2px" font-family="CMUBright-Roman" style="text-anchor:start;fill:rgb(0,0,0);" transform="rotate(355.3,2651.6,1411.0)" >1050</text>
<line x1='2624.8' y1='1478.1' x2='2644.8' y2='1477.7' style="stroke-width:4.0;stroke:rgb(0,0,0);stroke-linecap:round;fill:none;" />
<text x="2654.9" y="1484.0" font-size="18.2px" font-family="CMUBright-Roman" style="text-anchor:start;fill:rgb(0,0,0);" transform="rotate(358.9,2654.9,1484.0)" >1100</text>
<line x1='2623.9' y1='1549.4' x2='2643.9' y2='1550.2' style="stroke-width:4.0;stroke:rgb(0,0,0);stroke-linecap:round;fill:none;" />
<text x="2653.6" y="1557.2" font-size="18.2px" font-family="CMUBright-Roman" style="text-anchor:start;fill:rgb(0,0,0);" transform="rotate(2.5,2653.6,1557.2)" >1150</text>
<line x1='2618.5' y1='1620.4' x2='2638.4' y2='1622.6' style="stroke-width:4.0;stroke:rgb(0,0,0);stroke-linecap:round;fill:none;" />
<text x="2647.7" y="1630.1" font-size="18.2px" font-family="CMUBright-Roman" style="text-anchor:start;fill:rgb(0,0,0);" transform="rotate(6.1,2647.7,1630.1)" >1200</text>
<line x1='2608.7' y1='1691.0' x2='2628.4' y2='1694.4' style="stroke-width:4.0;stroke:rgb(0,0,0);stroke-linecap:round;fill:none;" />
<text x="2637.1" y="1702.5" font-size="18.2px" font-family="CMUBright-Roman" style="text-anchor:start;fill:rgb(0,0,0);" transform="rotate(9.8,2637.1,1702.5)" >1250</text>
<line x1='2594.4' y1='1760.8' x2='2613.8' y2='1765.4' style="stroke-width:4.0;stroke:rgb(0,0,0);stroke-linecap:round;fill:none;" />
<text x="2622.0" y="1774.1" font-size="18.2px" font-family="CMUBright-Roman" style="text-anchor:start;fill:rgb(0,0,0);" transform="rotate(13.4,2622.0,1774.1)" >1300</text>
<line x1='2575.7' y1='1829.5' x2='2594.8' y2='1835.4' style="stroke-width:4.0;stroke:rgb(0,0,0);stroke-linecap:round;fill:none;" />
<text x="2602.4" y="1844.5" font-size="18.2px" font-family="CMUBright-Roman" style="text-anchor:start;fill:rgb(0,0,0);" transform="rotate(17.0,2602.4,1844.5)" >1350</text>
<line x1='2552.6' y1='1897.0' x2='2571.4' y2='1904.0' style="stroke-width:4.0;stroke:rgb(0,0,0);stroke-linecap:round;fill:none;" />
<text x="2578.4" y="1913.6" font-size="18.2px" font-family="CMUBright-Roman" style="text-anchor:start;fill:rgb(0,0,0);" transform="rotate(20.7,2578.4,1913.6)" >1400</text>
<line x1='2525.4' y1='1962.8' x2='2543.6' y2='1971.0' style="stroke-width:4.0;stroke:rgb(0,0,0);stroke-linecap:round;fill:none;" />
<text x="2550.1" y="1981.1" font-size="18.2px" font-family="CMUBright-Roman" style="text-anchor:start;fill:rgb(0,0,0);" transform="rotate(24.3,2550.1,1981.1)" >1450</text>
<line x1='2494.0' y1='2026.8' x2='2511.7' y2='2036.2' style="stroke-width:4.0;stroke:rgb(0,0,0);stroke-linecap:round;fill:none;" />
<text x="2517.5" y="2046.6" font-size="18.2px" font-family="CMUBright-Roman" style="text-anchor:start;fill:rgb(0,0,0);" transform="rotate(27.9,2517.5,2046.6)" >1500</text>
<line x1='2458.7' y1='2088.7' x2='2475.7' y2='2099.1' style="stroke-width:4.0;stroke:rgb(0,0,0);stroke-linecap:round;fill:none;" />
<text x="2480.9" y="2109.9" font-size="18.2px" font-family="CMUBright-Roman" style="text-anchor:start;fill:rgb(0,0,0);" transform="rotate(31.6,2480.9,2109.9)" >1550</text>
<line x1='2419.5' y1='2148.2' x2='2435.9' y2='2159.7' style="stroke-width:4.0;stroke:rgb(0,0,0);stroke-linecap:round;fill:none;" />
<text x="2440.3" y="2170.7" font-size="18.2px" font-family="CMUBright-Roman" style="text-anchor:start;fill:rgb(0,0,0);" transform="rotate(35.2,2440.3,2170.7)" >1600</text>
<line x1='2376.6' y1='2205.1' x2='2392.2' y2='2217.6' style="stroke-width:4.0;stroke:rgb(0,0,0);stroke-linecap:round;fill:none;" />
<text x="2395.9" y="2228.9" font-size="18.2px" font-family="CMUBright-Roman" style="text-anchor:start;fill:rgb(0,0,0);" transform="rotate(38.8,2395.9,2228.9)" >1650</text>
<line x1='2330.2' y1='2259.2' x2='2345.0' y2='2272.6' style="stroke-width:4.0;stroke:rgb(0,0,0);stroke-linecap:round;fill:none;" />
<text x="2348.0" y="2284.2" font-size="18.2px" font-family="CMUBright-Roman" style="text-anchor:start;fill:rgb(0,0,0);" transform="rotate(42.4,2348.0,2284.2)" >1700</text>
<line x1='2280.5' y1='2310.2' x2='2294.4' y2='2324.6' style="stroke-width:4.0;stroke:rgb(0,0,0);stroke-linecap:round;fill:none;" />
<text x="2296.6" y="2336.3" font-size="18.2px" font-family="CMUBright-Roman" style="text-anchor:start;fill:rgb(0,0,0);" transform="rotate(46.1,2296.6,2336.3)" >1750</text>
<line x1='2227.7' y1='2358.0' x2='2240.6' y2='2373.2' style="stroke-width:4.0;stroke:rgb(0,0,0);stroke-linecap:round;fill:none;" />
<text x="2242.1" y="2385.0" font-size="18.2px" font-family="CMUBright-Roman" style="text-anchor:start;fill:rgb(0,0,0);" transform="rotate(49.7,2242.1,2385.0)" >1800</text>
<line x1='2171.9' y1='2402.3' x2='2183.8' y2='2418.4' style="stroke-width:4.0;stroke:rgb(0,0,0);stroke-linecap:round;fill:none;" />
<text x="2184.6" y="2430.2" font-size="18.2px" font-family="CMUBright-Roman" style="text-anchor:start;fill:rgb(0,0,0);" transform="rotate(53.3,2184.6,2430.2)" >1850</text>
<line x1='2113.4' y1='2443.0' x2='2124.3' y2='2459.8' style="stroke-width:4.0;stroke:rgb(0,0,0);stroke-linecap:round;fill:none;" />
<text x="2124.3" y="2471.7" font-size="18.2px" font-family="CMUBright-Roman" style="text-anchor:start;fill:rgb(0,0,0);" transform="rotate(57.0,2124.3,2471.7)" >1900</text>
<line x1='2052.5' y1='2480.0' x2='2062.3' y2='2497.4' style="stroke-width:4.0;stroke:rgb(0,0,0);stroke-linecap:round;fill:none;" />
<text x="2061.6" y="2509.3" font-size="18.2px" font-family="CMUBright-Roman" style="text-anchor:start;fill:rgb(0,0,0);" transform="rotate(60.6,2061.6,2509.3)" >1950</text>
<line x1='1989.4' y1='2513.0' x2='1998.1' y2='2531.0' style="stroke-width:4.0;stroke:rgb(0,0,0);stroke-linecap:round;fill:none;" />
<text x="1996.6" y="2542.8" font-size="18.2px" font-family="CMUBright-Roman" style="text-anchor:start;fill:rgb(0,0,0);" transform="rotate(64.2,1996.6,2542.8)" >2000</text>
<line x1='1924.3' y1='2541.9' x2='1931.8' y2='2560.5' style="stroke-width:4.0;stroke:rgb(0,0,0);stroke-linecap:round;fill:none;" />
<text x="1929.5" y="2572.2" font-size="18.2px" font-family="CMUBright-Roman" style="text-anchor:start;fill:rgb(0,0,0);" transform="rotate(67.8,1929.5,2572.2)" >2050</text>
<line x1='1857.4' y1='2566.7' x2='1863.8' y2='2585.7' style="stroke-width:4.0;stroke:rgb(0,0,0);stroke-linecap:round;fill:none;" />
<text x="1860.8" y="2597.2" font-size="18.2px" font-family="CMUBright-Roman" style="text-anchor:start;fill:rgb(0,0,0);" transform="rotate(71.5,1860.8,2597.2)" >2100</text>
<line x1='1789.2' y1='2587.2' x2='1794.3' y2='2606.5' style="stroke-width:4.0;stroke:rgb(0,0,0);stroke-linecap:round;fill:none;" />
<text x="1790.6" y="2617.8" font-size="18.2px" font-family="CMUBright-Roman" style="text-anchor:start;fill:rgb(0,0,0);" transform="rotate(75.1,1790.6,2617.8)" >2150</text>
<line x1='1719.8' y1='2603.3' x2='1723.7' y2='2622.9' style="stroke-width:4.0;stroke:rgb(0,0,0);stroke-linecap:round;fill:none;" />
<text x="1719.3" y="2634.0" font-size="18.2px" font-family="CMUBright-Roman" style="text-anchor:start;fill:rgb(0,0,0);" transform="rotate(78.7,1719.3,2634.0)" >2200</text>
<line x1='1649.5' y1='2615.0' x2='1652.2' y2='2634.8' style="stroke-width:4.0;stroke:rgb(0,0,0);stroke-linecap:round;fill:none;" />
<text x="1647.1" y="2645.6" font-size="18.2px" font-family="CMUBright-Roman" style="text-anchor:start;fill:rgb(0,0,0);" transform="rotate(82.4,1647.1,2645.6)" >2250</text>
<line x1='1578.6' y1='2622.2' x2='1580.0' y2='2642.2' style="stroke-width:4.0;stroke:rgb(0,0,0);stroke-linecap:round;fill:none;" />
<text x="1574.2" y="2652.6" font-size="18.2px" font-family="CMUBright-Roman" style="text-anchor:start;fill:rgb(0,0,0);" transform="rotate(86.0,1574.2,2652.6)" >2300</text>
<line x1='1507.4' y1='2625.0' x2='1507.6' y2='2645.0' style="stroke-width:4.0;stroke:rgb(0,0,0);stroke-linecap:round;fill:none;" />
<text x="1501.1" y="2655.0" font-size="18.2px" font-family="CMUBright-Roman" style="text-anchor:start;fill:rgb(0,0,0);" transform="rotate(89.6,1501.1,2655.0)" >2350</text>
<line x1='1436.2' y1='2623.2' x2='1435.1' y2='2643.2' style="stroke-width:4.0;stroke:rgb(0,0,0);stroke-linecap:round;fill:none;" />
<text x="1441.0" y="2653.5" font-size="18.2px" font-family="CMUBright-Roman" style="text-anchor:end;fill:rgb(0,0,0);" transform="rotate(-86.7,1441.0,2653.5)" >2400</text>
<line x1='1365.2' y1='2616.9' x2='1362.8' y2='2636.8' style="stroke-width:4.0;stroke:rgb(0,0,0);stroke-linecap:round;fill:none;" />
<text x="1368.1" y="2647.4" font-size="18.2px" font-family="CMUBright-Roman" style="text-anchor:end;fill:rgb(0,0,0);" transform="rotate(-83.1,1368.1,2647.4)" >2450</text>
<line x1='1294.8' y1='2606.1' x2='1291.2' y2='2625.8' style="stroke-width:4.0;stroke:rgb(0,0,0);stroke-linecap:round;fill:none;" />
<text x="1295.7" y="2636.8" font-size="18.2px" font-family="CMUBright-Roman" style="text-anchor:end;fill:rgb(0,0,0);" transform="rotate(-79.5,1295.7,2636.8)" >2500</text>
<line x1='1225.2' y1='2590.9' x2='1220.3' y2='2610.3' style="stroke-width:4.0;stroke:rgb(0,0,0);stroke-linecap:round;fill:none;" />
<text x="1224.2" y="2621.6" font-size="18.2px" font-family="CMUBright-Roman" style="text-anchor:end;fill:rgb(0,0,0);" transform="rotate(-75.9,1224.2,2621.6)" >2550</text>
<line x1='1156.7' y1='2571.3' x2='1150.6' y2='2590.4' style="stroke-width:4.0;stroke:rgb(0,0,0);stroke-linecap:round;fill:none;" />
<text x="1153.7" y="2601.9" font-size="18.2px" font-family="CMUBright-Roman" style="text-anchor:end;fill:rgb(0,0,0);" transform="rotate(-72.2,1153.7,2601.9)" >2600</text>
<line x1='1089.6' y1='2547.5' x2='1082.3' y2='2566.1' style="stroke-width:4.0;stroke:rgb(0,0,0);stroke-linecap:round;fill:none;" />
<text x="1084.7" y="2577.7" font-size="18.2px" font-family="CMUBright-Roman" style="text-anchor:end;fill:rgb(0,0,0);" transform="rotate(-68.6,1084.7,2577.7)" >2650</text>
<line x1='1024.1' y1='2519.4' x2='1015.6' y2='2537.5' style="stroke-width:4.0;stroke:rgb(0,0,0);stroke-linecap:round;fill:none;" />
<text x="1017.3" y="2549.3" font-size="18.2px" font-family="CMUBright-Roman" style="text-anchor:end;fill:rgb(0,0,0);" transform="rotate(-65.0,1017.3,2549.3)" >2700</text>
<line x1='960.5' y1='2487.2' x2='950.9' y2='2504.7' style="stroke-width:4.0;stroke:rgb(0,0,0);stroke-linecap:round;fill:none;" />
<text x="951.8" y="2516.6" font-size="18.2px" font-family="CMUBright-Roman" style="text-anchor:end;fill:rgb(0,0,0);" transform="rotate(-61.3,951.8,2516.6)" >2750</text>
<line x1='899.1' y1='2451.1' x2='888.4' y2='2468.0' style="stroke-width:4.0;stroke:rgb(0,0,0);stroke-linecap:round;fill:none;" />
<text x="888.6" y="2479.9" font-size="18.2px" font-family="CMUBright-Roman" style="text-anchor:end;fill:rgb(0,0,0);" transform="rotate(-57.7,888.6,2479.9)" >2800</text>
<line x1='840.1' y1='2411.1' x2='828.3' y2='2427.3' style="stroke-width:4.0;stroke:rgb(0,0,0);stroke-linecap:round;fill:none;" />
<text x="827.8" y="2439.2" font-size="18.2px" font-family="CMUBright-Roman" style="text-anchor:end;fill:rgb(0,0,0);" transform="rotate(-54.1,827.8,2439.2)" >2850</text>
<line x1='783.7' y1='2367.5' x2='771.0' y2='2382.9' style="stroke-width:4.0;stroke:rgb(0,0,0);stroke-linecap:round;fill:none;" />
<text x="769.7" y="2394.8" font-size="18.2px" font-family="CMUBright-Roman" style="text-anchor:end;fill:rgb(0,0,0);" transform="rotate(-50.5,769.7,2394.8)" >2900</text>
<line x1='730.2' y1='2320.4' x2='716.6' y2='2335.0' style="stroke-width:4.0;stroke:rgb(0,0,0);stroke-linecap:round;fill:none;" />
<text x="714.5" y="2346.7" font-size="18.2px" font-family="CMUBright-Roman" style="text-anchor:end;fill:rgb(0,0,0);" transform="rotate(-46.8,714.5,2346.7)" >2950</text>
<line x1='679.9' y1='2270.1' x2='665.3' y2='2283.7' style="stroke-width:4.0;stroke:rgb(0,0,0);stroke-linecap:round;fill:none;" />
<text x="662.4" y="2295.3" font-size="18.2px" font-family="CMUBright-Roman" style="text-anchor:end;fill:rgb(0,0,0);" transform="rotate(-43.2,662.4,2295.3)" >3000</text>
<line x1='632.8' y1='2216.6' x2='617.3' y2='2229.3' style="stroke-width:4.0;stroke:rgb(0,0,0);stroke-linecap:round;fill:none;" />
<text x="613.8" y="2240.7" font-size="18.2px" font-family="CMUBright-Roman" style="text-anchor:end;fill:rgb(0,0,0);" transform="rotate(-39.6,613.8,2240.7)" >3050</text>
<line x1='589.1' y1='2160.3' x2='572.9' y2='2172.0' style="stroke-width:4.0;stroke:rgb(0,0,0);stroke-linecap:round;fill:none;" />
<text x="568.7" y="2183.1" font-size="18.2px" font-family="CMUBright-Roman" style="text-anchor:end;fill:rgb(0,0,0);" transform="rotate(-35.9,568.7,2183.1)" >3100</text>
<line x1='549.2' y1='2101.3' x2='532.3' y2='2112.0' style="stroke-width:4.0;stroke:rgb(0,0,0);stroke-linecap:round;fill:none;" />
<text x="527.3" y="2122.8" font-size="18.2px" font-family="CMUBright-Roman" style="text-anchor:end;fill:rgb(0,0,0);" transform="rotate(-32.3,527.3,2122.8)" >3150</text>
<line x1='513.0' y1='2039.9' x2='495.5' y2='2049.5' style="stroke-width:4.0;stroke:rgb(0,0,0);stroke-linecap:round;fill:none;" />
<text x="489.8" y="2060.0" font-size="18.2px" font-family="CMUBright-Roman" style="text-anchor:end;fill:rgb(0,0,0);" transform="rotate(-28.7,489.8,2060.0)" >3200</text>
<line x1='480.8' y1='1976.3' x2='462.7' y2='1984.8' style="stroke-width:4.0;stroke:rgb(0,0,0);stroke-linecap:round;fill:none;" />
<text x="456.4" y="1994.9" font-size="18.2px" font-family="CMUBright-Roman" style="text-anchor:end;fill:rgb(0,0,0);" transform="rotate(-25.0,456.4,1994.9)" >3250</text>
<line x1='452.7' y1='1910.8' x2='434.1' y2='1918.1' style="stroke-width:4.0;stroke:rgb(0,0,0);stroke-linecap:round;fill:none;" />
<text x="427.2" y="1927.8" font-size="18.2px" font-family="CMUBright-Roman" style="text-anchor:end;fill:rgb(0,0,0);" transform="rotate(-21.4,427.2,1927.8)" >3300</text>
<line x1='428.8' y1='1843.7' x2='409.8' y2='1849.8' style="stroke-width:4.0;stroke:rgb(0,0,0);stroke-linecap:round;fill:none;" />
<text x="402.2" y="1859.1" font-size="18.2px" font-family="CMUBright-Roman" style="text-anchor:end;fill:rgb(0,0,0);" transform="rotate(-17.8,402.2,1859.1)" >3350</text>
<line x1='409.2' y1='1775.2' x2='389.8' y2='1780.1' style="stroke-width:4.0;stroke:rgb(0,0,0);stroke-linecap:round;fill:none;" />
<text x="381.7" y="1788.9" font-size="18.2px" font-family="CMUBright-Roman" style="text-anchor:end;fill:rgb(0,0,0);" transform="rotate(-14.2,381.7,1788.9)" >3400</text>
<line x1='393.9' y1='1705.6' x2='374.3' y2='1709.3' style="stroke-width:4.0;stroke:rgb(0,0,0);stroke-linecap:round;fill:none;" />
<text x="365.7" y="1717.5" font-size="18.2px" font-family="CMUBright-Roman" style="text-anchor:end;fill:rgb(0,0,0);" transform="rotate(-10.5,365.7,1717.5)" >3450</text>
<line x1='383.2' y1='1635.2' x2='363.3' y2='1637.6' style="stroke-width:4.0;stroke:rgb(0,0,0);stroke-linecap:round;fill:none;" />
<text x="354.2" y="1645.2" font-size="18.2px" font-family="CMUBright-Roman" style="text-anchor:end;fill:rgb(0,0,0);" transform="rotate(-6.9,354.2,1645.2)" >3500</text>
<line x1='376.8' y1='1564.2' x2='356.9' y2='1565.4' style="stroke-width:4.0;stroke:rgb(0,0,0);stroke-linecap:round;fill:none;" />
<text x="347.3" y="1572.4" font-size="18.2px" font-family="CMUBright-Roman" style="text-anchor:end;fill:rgb(0,0,0);" transform="rotate(-3.3,347.3,1572.4)" >3550</text>
<line x1='375.0' y1='1493.0' x2='355.0' y2='1492.9' style="stroke-width:4.0;stroke:rgb(0,0,0);stroke-linecap:round;fill:none;" />
<text x="345.0" y="1499.3" font-size="18.2px" font-family="CMUBright-Roman" style="text-anchor:end;fill:rgb(0,0,0);" transform="rotate(0.4,345.0,1499.3)" >3600</text>
<line x1='377.7' y1='1421.8' x2='357.8' y2='1420.4' style="stroke-width:4.0;stroke:rgb(0,0,0);stroke-linecap:round;fill:none;" />
<text x="347.4" y="1426.2" font-size="18.2px" font-family="CMUBright-Roman" style="text-anchor:end;fill:rgb(0,0,0);" transform="rotate(4.0,347.4,1426.2)" >3650</text>
<line x1='384.9' y1='1350.9' x2='365.1' y2='1348.2' style="stroke-width:4.0;stroke:rgb(0,0,0);stroke-linecap:round;fill:none;" />
<text x="354.3" y="1353.4" font-size="18.2px" font-family="CMUBright-Roman" style="text-anchor:end;fill:rgb(0,0,0);" transform="rotate(7.6,354.3,1353.4)" >3700</text>
<line x1='396.6' y1='1280.6' x2='377.0' y2='1276.7' style="stroke-width:4.0;stroke:rgb(0,0,0);stroke-linecap:round;fill:none;" />
<text x="365.9" y="1281.1" font-size="18.2px" font-family="CMUBright-Roman" style="text-anchor:end;fill:rgb(0,0,0);" transform="rotate(11.2,365.9,1281.1)" >3750</text>
<line x1='412.7' y1='1211.2' x2='393.4' y2='1206.1' style="stroke-width:4.0;stroke:rgb(0,0,0);stroke-linecap:round;fill:none;" />
<text x="382.1" y="1209.8" font-size="18.2px" font-family="CMUBright-Roman" style="text-anchor:end;fill:rgb(0,0,0);" transform="rotate(14.9,382.1,1209.8)" >3800</text>
<line x1='433.2' y1='1142.9' x2='414.2' y2='1136.6' style="stroke-width:4.0;stroke:rgb(0,0,0);stroke-linecap:round;fill:none;" />
<text x="402.7" y="1139.6" font-size="18.2px" font-family="CMUBright-Roman" style="text-anchor:end;fill:rgb(0,0,0);" transform="rotate(18.5,402.7,1139.6)" >3850</text>
<line x1='457.9' y1='1076.1' x2='439.4' y2='1068.6' style="stroke-width:4.0;stroke:rgb(0,0,0);stroke-linecap:round;fill:none;" />
<text x="427.7" y="1070.9" font-size="18.2px" font-family="CMUBright-Roman" style="text-anchor:end;fill:rgb(0,0,0);" transform="rotate(22.1,427.7,1070.9)" >3900</text>
<line x1='486.8' y1='1011.0' x2='468.8' y2='1002.3' style="stroke-width:4.0;stroke:rgb(0,0,0);stroke-linecap:round;fill:none;" />
<text x="457.0" y="1003.8" font-size="18.2px" font-family="CMUBright-Roman" style="text-anchor:end;fill:rgb(0,0,0);" transform="rotate(25.8,457.0,1003.8)" >3950</text>
<line x1='519.8' y1='947.9' x2='502.4' y2='938.0' style="stroke-width:4.0;stroke:rgb(0,0,0);stroke-linecap:round;fill:none;" />
<text x="490.5" y="938.8" font-size="18.2px" font-family="CMUBright-Roman" style="text-anchor:end;fill:rgb(0,0,0);" transform="rotate(29.4,490.5,938.8)" >4000</text>
<line x1='556.7' y1='886.9' x2='540.0' y2='876.0' style="stroke-width:4.0;stroke:rgb(0,0,0);stroke-linecap:round;fill:none;" />
<text x="528.1" y="876.0" font-size="18.2px" font-family="CMUBright-Roman" style="text-anchor:end;fill:rgb(0,0,0);" transform="rotate(33.0,528.1,876.0)" >4050</text>
<line x1='597.4' y1='828.4' x2='581.4' y2='816.5' style="stroke-width:4.0;stroke:rgb(0,0,0);stroke-linecap:round;fill:none;" />
<text x="569.5" y="815.8" font-size="18.2px" font-family="CMUBright-Roman" style="text-anchor:end;fill:rgb(0,0,0);" transform="rotate(36.7,569.5,815.8)" >4100</text>
<line x1='641.8' y1='772.6' x2='626.5' y2='759.7' style="stroke-width:4.0;stroke:rgb(0,0,0);stroke-linecap:round;fill:none;" />
<text x="614.7" y="758.2" font-size="18.2px" font-family="CMUBright-Roman" style="text-anchor:end;fill:rgb(0,0,0);" transform="rotate(40.3,614.7,758.2)" >4150</text>
<line x1='689.5' y1='719.8' x2='675.1' y2='705.9' style="stroke-width:4.0;stroke:rgb(0,0,0);stroke-linecap:round;fill:none;" />
<text x="663.4" y="703.7" font-size="18.2px" font-family="CMUBright-Roman" style="text-anchor:end;fill:rgb(0,0,0);" transform="rotate(43.9,663.4,703.7)" >4200</text>
<line x1='740.5' y1='670.0' x2='727.0' y2='655.3' style="stroke-width:4.0;stroke:rgb(0,0,0);stroke-linecap:round;fill:none;" />
<text x="715.5" y="652.3" font-size="18.2px" font-family="CMUBright-Roman" style="text-anchor:end;fill:rgb(0,0,0);" transform="rotate(47.5,715.5,652.3)" >4250</text>
<line x1='794.6' y1='623.6' x2='782.1' y2='608.0' style="stroke-width:4.0;stroke:rgb(0,0,0);stroke-linecap:round;fill:none;" />
<text x="770.7" y="604.3" font-size="18.2px" font-family="CMUBright-Roman" style="text-anchor:end;fill:rgb(0,0,0);" transform="rotate(51.2,770.7,604.3)" >4300</text>
<line x1='851.5' y1='580.7' x2='840.0' y2='564.4' style="stroke-width:4.0;stroke:rgb(0,0,0);stroke-linecap:round;fill:none;" />
<text x="828.9" y="560.0" font-size="18.2px" font-family="CMUBright-Roman" style="text-anchor:end;fill:rgb(0,0,0);" transform="rotate(54.8,828.9,560.0)" >4350</text>
<line x1='911.0' y1='541.5' x2='900.5' y2='524.5' style="stroke-width:4.0;stroke:rgb(0,0,0);stroke-linecap:round;fill:none;" />
<text x="889.8" y="519.4" font-size="18.2px" font-family="CMUBright-Roman" style="text-anchor:end;fill:rgb(0,0,0);" transform="rotate(58.4,889.8,519.4)" >4400</text>
<line x1='972.8' y1='506.2' x2='963.5' y2='488.5' style="stroke-width:4.0;stroke:rgb(0,0,0);stroke-linecap:round;fill:none;" />
<text x="953.1" y="482.7" font-size="18.2px" font-family="CMUBright-Roman" style="text-anchor:end;fill:rgb(0,0,0);" transform="rotate(62.1,953.1,482.7)" >4450</text>
<line x1='1036.8' y1='474.8' x2='1028.6' y2='456.5' style="stroke-width:4.0;stroke:rgb(0,0,0);stroke-linecap:round;fill:none;" />
<text x="1018.5" y="450.1" font-size="18.2px" font-family="CMUBright-Roman" style="text-anchor:end;fill:rgb(0,0,0);" transform="rotate(65.7,1018.5,450.1)" >4500</text>
<line x1='1102.6' y1='447.5' x2='1095.6' y2='428.8' style="stroke-width:4.0;stroke:rgb(0,0,0);stroke-linecap:round;fill:none;" />
<text x="1086.0" y="421.8" font-size="18.2px" font-family="CMUBright-Roman" style="text-anchor:end;fill:rgb(0,0,0);" transform="rotate(69.3,1086.0,421.8)" >4550</text>
<line x1='1170.1' y1='424.5' x2='1164.2' y2='405.3' style="stroke-width:4.0;stroke:rgb(0,0,0);stroke-linecap:round;fill:none;" />
<text x="1155.1" y="397.7" font-size="18.2px" font-family="CMUBright-Roman" style="text-anchor:end;fill:rgb(0,0,0);" transform="rotate(72.9,1155.1,397.7)" >4600</text>
<line x1='1238.8' y1='405.7' x2='1234.2' y2='386.3' style="stroke-width:4.0;stroke:rgb(0,0,0);stroke-linecap:round;fill:none;" />
<text x="1225.5" y="378.1" font-size="18.2px" font-family="CMUBright-Roman" style="text-anchor:end;fill:rgb(0,0,0);" transform="rotate(76.6,1225.5,378.1)" >4650</text>
<line x1='1308.6' y1='391.4' x2='1305.2' y2='371.7' style="stroke-width:4.0;stroke:rgb(0,0,0);stroke-linecap:round;fill:none;" />
<text x="1297.1" y="363.0" font-size="18.2px" font-family="CMUBright-Roman" style="text-anchor:end;fill:rgb(0,0,0);" transform="rotate(80.2,1297.1,363.0)" >4700</text>
<line x1='1379.2' y1='381.5' x2='1377.0' y2='361.6' style="stroke-width:4.0;stroke:rgb(0,0,0);stroke-linecap:round;fill:none;" />
<text x="1369.5" y="352.4" font-size="18.2px" font-family="CMUBright-Roman" style="text-anchor:end;fill:rgb(0,0,0);" transform="rotate(83.8,1369.5,352.4)" >4750</text>
<g id="highlighttrack_0">
<path d="M2545.012,1752.140 A1075.000,1075.000 40.000 0,1 2544.093,1755.920 L2592.655,1767.823 A1125.000,1125.000 0.000 0,0 2593.617,1763.868 Z" style="stroke-width:4.0;stroke:rgb(0,0,0);stroke-linecap:round;fill:rgb(116,196,118);" />
<path d="M2525.741,1821.684 A1075.000,1075.000 40.000 0,1 2524.629,1825.209 L2572.286,1840.335 A1125.000,1125.000 0.000 0,0 2573.450,1836.646 Z" style="stroke-width:4.0;stroke:rgb(0,0,0);stroke-linecap:round;fill:rgb(116,196,118);" />
<path d="M2415.369,2063.671 A1075.000,1075.000 40.000 0,1 2413.304,2067.011 L2455.783,2093.383 A1125.000,1125.000 0.000 0,0 2457.944,2089.888 Z" style="stroke-width:4.0;stroke:rgb(0,0,0);stroke-linecap:round;fill:rgb(116,196,118);" />
<path d="M2350.977,2156.858 A1075.000,1075.000 40.000 0,1 2348.627,2159.892 L2388.098,2190.584 A1125.000,1125.000 0.000 0,0 2390.558,2187.409 Z" style="stroke-width:4.0;stroke:rgb(0,0,0);stroke-linecap:round;fill:rgb(251,106,74);" />
<path d="M1861.940,2512.237 A1075.000,1075.000 40.000 0,1 1858.221,2513.559 L1874.883,2560.702 A1125.000,1125.000 0.000 0,0 1878.774,2559.318 Z" style="stroke-width:4.0;stroke:rgb(0,0,0);stroke-linecap:round;fill:rgb(251,106,74);" />
<path d="M1852.539,2515.550 A1075.000,1075.000 40.000 0,1 1848.903,2516.805 L1865.131,2564.098 A1125.000,1125.000 0.000 0,0 1868.936,2562.785 Z" style="stroke-width:4.0;stroke:rgb(0,0,0);stroke-linecap:round;fill:rgb(251,106,74);" />
<path d="M990.321,2446.495 A1075.000,1075.000 40.000 0,1 986.850,2444.617 L962.982,2488.553 A1125.000,1125.000 0.000 0,0 966.615,2490.518 Z" style="stroke-width:4.0;stroke:rgb(0,0,0);stroke-linecap:round;fill:rgb(251,106,74);" />
<path d="M964.215,568.034 A1075.000,1075.000 40.000 0,1 967.662,566.061 L942.902,522.622 A1125.000,1125.000 0.000 0,0 939.295,524.687 Z" style="stroke-width:4.0;stroke:rgb(0,0,0);stroke-linecap:round;fill:rgb(116,196,118);" />
<path d="M1278.122,2551.853 A1075.000,1075.000 40.000 0,1 1274.729,2551.132 L1264.251,2600.022 A1125.000,1125.000 0.000 0,0 1267.802,2600.777 Z" style="stroke-width:4.0;stroke:rgb(0,0,0);stroke-linecap:round;fill:rgb(116,196,118);" />
<path d="M1236.696,2542.255 A1075.000,1075.000 40.000 0,1 1233.325,2541.398 L1220.921,2589.835 A1125.000,1125.000 0.000 0,0 1224.449,2590.732 Z" style="stroke-width:4.0;stroke:rgb(0,0,0);stroke-linecap:round;fill:rgb(116,196,118);" />
<path d="M1225.498,2539.362 A1075.000,1075.000 40.000 0,1 1222.164,2538.476 L1209.241,2586.777 A1125.000,1125.000 0.000 0,0 1212.730,2587.705 Z" style="stroke-width:4.0;stroke:rgb(0,0,0);stroke-linecap:round;fill:rgb(116,196,118);" />
<path d="M2539.093,1775.519 A1075.000,1075.000 40.000 0,1 2536.024,1786.842 L2584.212,1800.184 A1125.000,1125.000 0.000 0,0 2587.423,1788.334 Z" style="stroke-width:4.0;stroke:rgb(0,0,0);stroke-linecap:round;fill:rgb(116,196,118);" />
</g>
</g>
<g id="track_0">
<path d="M 2534.562,1749.619 A 1064.250,1064.250 0.00 0,1 2533.7,1753.4 L 2533.7,1753.4 2462.3,1734.9 2396.0,1715.9 2334.3,1696.3 2276.9,1676.3 2223.5,1655.8 2173.8,1635.0 2127.7,1613.8 2084.7,1592.3 2044.7,1570.6 2007.5,1548.5 1972.8,1526.1 1940.4,1503.4 1910.2,1480.3 1882.0,1456.9 1855.6,1433.0 1830.8,1408.7 1807.7,1383.8 1785.9,1358.3 1765.5,1332.0 1746.3,1305.0 1728.3,1277.1 1711.4,1248.1 1695.6,1218.0 1680.8,1186.6 1667.0,1153.8 1654.2,1119.4 1642.5,1083.2 1631.8,1045.2 1622.1,1005.0 1613.6,962.6 1606.3,917.7 1600.2,870.0 1595.5,819.4 1592.2,765.7 1590.6,708.6 1590.7,647.8 1592.6,583.0 1596.6,514.1 1602.8,440.7  A 1064.250,1064.250 0.00 0,0 1598.9,440.4 L 1598.9,440.4 1593.0,513.8 1589.3,582.7 1587.6,647.4 1587.7,708.2 1589.6,765.4 1593.0,819.1 1597.9,869.7 1604.1,917.3 1611.6,962.2 1620.3,1004.6 1630.1,1044.7 1641.0,1082.7 1652.9,1118.8 1665.8,1153.2 1679.7,1185.9 1694.6,1217.3 1710.5,1247.3 1727.5,1276.2 1745.6,1304.1 1764.9,1331.1 1785.4,1357.2 1807.2,1382.7 1830.5,1407.5 1855.3,1431.7 1881.8,1455.5 1910.1,1478.8 1940.4,1501.8 1972.9,1524.4 2007.7,1546.6 2045.0,1568.6 2085.0,1590.2 2128.1,1611.5 2174.3,1632.5 2224.0,1653.2 2277.5,1673.5 2335.0,1693.3 2396.8,1712.6 2463.2,1731.4 2534.6,1749.6  Z" style="stroke-width: 2.0;  stroke: rgb(82,82,82); fill: rgb(251,106,74); opacity: 0.667;" />
<path d="M 2515.483,1818.467 A 1064.250,1064.250 0.00 0,1 2514.4,1822.0 L 2514.4,1822.0 2444.5,1798.8 2379.5,1775.2 2319.1,1751.4 2262.9,1727.4 2210.8,1703.2 2162.4,1678.8 2117.4,1654.3 2075.6,1629.7 2036.7,1605.0 2000.5,1580.2 1966.7,1555.2 1935.3,1530.0 1905.9,1504.7 1878.5,1479.2 1852.8,1453.3 1828.7,1427.1 1806.1,1400.5 1784.9,1373.3 1764.9,1345.6 1746.1,1317.1 1728.5,1287.9 1711.9,1257.7 1696.3,1226.4 1681.6,1194.0 1668.0,1160.2 1655.2,1124.9 1643.5,1088.0 1632.8,1049.2 1623.1,1008.3 1614.5,965.3 1607.0,919.8 1600.8,871.6 1596.0,820.6 1592.7,766.5 1590.9,709.1 1590.8,648.1 1592.7,583.2 1596.6,514.1 1602.8,440.7  A 1064.250,1064.250 0.00 0,0 1598.9,440.4 L 1598.9,440.4 1593.0,513.8 1589.4,582.8 1587.7,647.7 1588.0,708.8 1590.0,766.2 1593.5,820.3 1598.6,871.3 1604.9,919.4 1612.5,964.9 1621.3,1007.9 1631.1,1048.7 1642.0,1087.5 1653.9,1124.4 1666.7,1159.6 1680.5,1193.4 1695.3,1225.8 1711.0,1256.9 1727.7,1287.1 1745.5,1316.3 1764.4,1344.6 1784.4,1372.3 1805.7,1399.4 1828.4,1426.0 1852.6,1452.1 1878.4,1477.8 1905.9,1503.3 1935.4,1528.5 1966.9,1553.6 2000.7,1578.4 2037.0,1603.1 2076.0,1627.7 2117.9,1652.2 2163.0,1676.5 2211.5,1700.7 2263.7,1724.8 2319.9,1748.6 2380.4,1772.2 2445.5,1795.5 2515.5,1818.5  Z" style="stroke-width: 2.0;  stroke: rgb(82,82,82); fill: rgb(116,196,118); opacity: 0.667;" />
<path d="M 2515.483,1818.467 A 1064.250,1064.250 0.00 0,1 2514.4,1822.0 L 2514.4,1822.0 2444.6,1799.8 2380.2,1779.2 2320.8,1760.1 2266.2,1742.5 2216.2,1726.3 2170.6,1711.4 2129.1,1697.7 2091.6,1685.2 2057.8,1673.8 2027.6,1663.5 2001.0,1654.3 1977.6,1646.0 1957.5,1638.7 1940.5,1632.3 1926.5,1626.8 1915.5,1622.1 1907.4,1618.3 1902.2,1615.3 1899.7,1613.1 1900.1,1611.6 1903.4,1611.0 1909.4,1611.2 1918.3,1612.1 1930.1,1613.9 1944.9,1616.4 1962.8,1619.8 1983.8,1624.1 2008.0,1629.2 2035.6,1635.1 2066.7,1642.1 2101.5,1649.9 2140.0,1658.8 2182.6,1668.8 2229.3,1679.8 2280.4,1692.0 2336.2,1705.3 2396.8,1720.0 2462.5,1736.0 2533.7,1753.4  A 1064.250,1064.250 0.00 0,0 2534.6,1749.6 L 2534.6,1749.6 2463.4,1732.5 2397.6,1716.7 2336.9,1702.3 2281.1,1689.1 2230.0,1677.1 2183.2,1666.3 2140.6,1656.5 2102.0,1647.8 2067.2,1640.0 2036.1,1633.2 2008.5,1627.3 1984.2,1622.3 1963.2,1618.2 1945.4,1614.9 1930.6,1612.4 1918.7,1610.6 1909.8,1609.7 1903.7,1609.6 1900.5,1610.2 1900.1,1611.6 1902.6,1613.8 1907.8,1616.8 1915.9,1620.6 1927.0,1625.3 1941.0,1630.8 1958.0,1637.1 1978.1,1644.4 2001.5,1652.5 2028.2,1661.7 2058.4,1671.9 2092.2,1683.2 2129.8,1695.5 2171.3,1709.1 2217.0,1723.8 2267.1,1739.9 2321.7,1757.3 2381.1,1776.2 2445.6,1796.5 2515.5,1818.5  Z" style="stroke-width: 2.0;  stroke: rgb(82,82,82); fill: rgb(107,174,214); opacity: 0.667;" />
<path d="M 2406.215,2058.034 A 1064.250,1064.250 0.00 0,1 2404.2,2061.3 L 2404.2,2061.3 2342.0,2021.5 2284.6,1982.3 2231.6,1943.8 2182.6,1905.9 2137.3,1868.7 2095.5,1832.1 2056.8,1796.1 2021.0,1760.7 1987.8,1725.8 1957.0,1691.5 1928.4,1657.6 1901.7,1624.1 1876.8,1590.9 1853.5,1558.0 1831.7,1525.3 1811.1,1492.7 1791.7,1460.0 1773.4,1427.2 1756.0,1394.2 1739.5,1360.8 1723.8,1327.0 1708.9,1292.5 1694.7,1257.2 1681.2,1221.1 1668.5,1183.8 1656.5,1145.3 1645.2,1105.4 1634.8,1063.9 1625.3,1020.6 1616.7,975.2 1609.1,927.7 1602.7,877.8 1597.6,825.2 1593.9,769.7 1591.8,711.2 1591.4,649.2 1593.0,583.7 1596.7,514.3 1602.8,440.7  A 1064.250,1064.250 0.00 0,0 1598.9,440.4 L 1598.9,440.4 1593.1,513.9 1589.6,583.4 1588.3,648.9 1588.9,710.8 1591.2,769.4 1595.1,824.8 1600.4,877.4 1607.0,927.3 1614.7,974.8 1623.5,1020.1 1633.2,1063.4 1643.8,1104.9 1655.2,1144.8 1667.3,1183.2 1680.2,1220.4 1693.8,1256.5 1708.1,1291.7 1723.2,1326.1 1739.0,1359.9 1755.6,1393.3 1773.1,1426.2 1791.6,1458.9 1811.1,1491.5 1831.8,1524.1 1853.8,1556.7 1877.2,1589.6 1902.2,1622.6 1929.0,1656.0 1957.7,1689.8 1988.6,1724.1 2021.9,1758.8 2057.9,1794.1 2096.7,1829.9 2138.7,1866.4 2184.0,1903.4 2233.2,1941.1 2286.4,1979.5 2343.9,2018.4 2406.2,2058.0  Z" style="stroke-width: 2.0;  stroke: rgb(82,82,82); fill: rgb(253,141,60); opacity: 0.667;" />
<path d="M 2406.215,2058.034 A 1064.250,1064.250 0.00 0,1 2404.2,2061.3 L 2404.2,2061.3 2342.1,2022.6 2284.9,1986.4 2232.3,1952.6 2184.2,1921.2 2140.2,1892.1 2100.3,1865.0 2064.2,1839.9 2031.7,1816.7 2002.7,1795.3 1977.0,1775.6 1954.5,1757.5 1935.1,1740.9 1918.6,1725.8 1905.1,1712.1 1894.3,1699.8 1886.3,1688.7 1881.0,1678.9 1878.4,1670.3 1878.4,1662.8 1881.1,1656.5 1886.4,1651.2 1894.4,1647.1 1905.1,1644.0 1918.6,1642.0 1935.0,1641.0 1954.2,1641.1 1976.5,1642.3 2001.9,1644.6 2030.6,1648.1 2062.6,1652.6 2098.2,1658.4 2137.6,1665.4 2180.8,1673.6 2228.1,1683.2 2279.6,1694.2 2335.7,1706.6 2396.6,1720.6 2462.5,1736.1 2533.7,1753.4  A 1064.250,1064.250 0.00 0,0 2534.6,1749.6 L 2534.6,1749.6 2463.3,1732.6 2397.4,1717.3 2336.5,1703.6 2280.3,1691.4 2228.7,1680.6 2181.4,1671.2 2138.2,1663.1 2098.8,1656.2 2063.2,1650.6 2031.1,1646.1 2002.4,1642.8 1977.0,1640.6 1954.7,1639.5 1935.5,1639.4 1919.1,1640.5 1905.6,1642.5 1894.9,1645.6 1886.9,1649.8 1881.6,1655.1 1879.0,1661.4 1879.0,1668.9 1881.7,1677.5 1887.0,1687.3 1895.0,1698.4 1905.8,1710.7 1919.5,1724.3 1936.0,1739.3 1955.4,1755.8 1978.0,1773.8 2003.8,1793.4 2032.8,1814.7 2065.4,1837.8 2101.6,1862.8 2141.7,1889.7 2185.7,1918.7 2234.0,1950.0 2286.6,1983.5 2344.0,2019.5 2406.2,2058.0  Z" style="stroke-width: 2.0;  stroke: rgb(82,82,82); fill: rgb(255,0,0); opacity: 0.667;" />
<path d="M 2406.215,2058.034 A 1064.250,1064.250 0.00 0,1 2404.2,2061.3 L 2404.2,2061.3 2342.1,2022.6 2284.8,1986.5 2232.2,1953.0 2183.9,1921.8 2139.9,1893.0 2099.8,1866.3 2063.5,1841.6 2030.8,1818.9 2001.6,1798.1 1975.7,1779.0 1952.9,1761.7 1933.2,1745.9 1916.5,1731.7 1902.7,1718.9 1891.6,1707.5 1883.3,1697.5 1877.6,1688.9 1874.7,1681.5 1874.3,1675.3 1876.6,1670.4 1881.5,1666.7 1889.0,1664.1 1899.3,1662.8 1912.3,1662.6 1928.1,1663.6 1946.8,1665.8 1968.5,1669.3 1993.3,1674.0 2021.3,1679.9 2052.6,1687.2 2087.5,1695.9 2125.9,1706.0 2168.3,1717.5 2214.6,1730.6 2265.2,1745.3 2320.2,1761.7 2379.9,1779.9 2444.6,1800.0 2514.4,1822.0  A 1064.250,1064.250 0.00 0,0 2515.5,1818.5 L 2515.5,1818.5 2445.6,1796.7 2380.9,1776.9 2321.1,1758.9 2266.0,1742.7 2215.4,1728.2 2169.0,1715.2 2126.6,1703.8 2088.1,1693.9 2053.3,1685.3 2021.9,1678.1 1993.9,1672.3 1969.1,1667.6 1947.4,1664.3 1928.7,1662.1 1912.9,1661.2 1899.9,1661.4 1889.6,1662.8 1882.1,1665.3 1877.2,1669.1 1874.9,1674.0 1875.3,1680.1 1878.3,1687.5 1884.0,1696.2 1892.4,1706.1 1903.5,1717.4 1917.4,1730.2 1934.1,1744.3 1953.9,1760.0 1976.7,1777.3 2002.7,1796.3 2032.0,1817.0 2064.7,1839.6 2101.1,1864.1 2141.3,1890.6 2185.5,1919.3 2233.8,1950.3 2286.6,1983.6 2344.0,2019.5 2406.2,2058.0  Z" style="stroke-width: 2.0;  stroke: rgb(82,82,82); fill: rgb(255,0,204); opacity: 0.667;" />
<path d="M 2342.468,2150.289 A 1064.250,1064.250 0.00 0,1 2340.1,2153.3 L 2340.1,2153.3 2282.5,2107.1 2229.4,2061.9 2180.6,2017.8 2135.6,1974.6 2094.3,1932.4 2056.1,1891.2 2021.0,1850.8 1988.6,1811.3 1958.6,1772.7 1930.8,1734.7 1905.0,1697.5 1881.0,1660.8 1858.6,1624.7 1837.7,1589.0 1817.9,1553.7 1799.3,1518.6 1781.7,1483.6 1765.0,1448.7 1749.1,1413.6 1733.9,1378.4 1719.4,1342.7 1705.5,1306.6 1692.2,1269.8 1679.5,1232.2 1667.4,1193.5 1655.9,1153.8 1645.0,1112.7 1634.9,1070.1 1625.6,1025.7 1617.1,979.5 1609.6,931.1 1603.2,880.4 1598.0,827.2 1594.2,771.1 1592.0,712.1 1591.6,649.8 1593.1,583.9 1596.7,514.3 1602.8,440.7  A 1064.250,1064.250 0.00 0,0 1598.9,440.4 L 1598.9,440.4 1593.1,514.0 1589.7,583.6 1588.5,649.4 1589.2,711.7 1591.6,770.8 1595.6,826.8 1600.9,880.0 1607.5,930.7 1615.2,979.1 1623.8,1025.3 1633.3,1069.6 1643.6,1112.2 1654.6,1153.2 1666.3,1192.9 1678.5,1231.5 1691.4,1269.1 1704.8,1305.9 1718.8,1341.9 1733.5,1377.5 1748.8,1412.7 1764.8,1447.7 1781.7,1482.6 1799.4,1517.5 1818.1,1552.5 1838.0,1587.8 1859.1,1623.4 1881.6,1659.4 1905.7,1696.0 1931.7,1733.2 1959.6,1771.0 1989.7,1809.6 2022.3,1849.0 2057.5,1889.2 2095.8,1930.3 2137.3,1972.3 2182.4,2015.3 2231.4,2059.3 2284.7,2104.3 2342.5,2150.3  Z" style="stroke-width: 2.0;  stroke: rgb(82,82,82); fill: rgb(255,204,204); opacity: 0.667;" />
<path d="M 2342.468,2150.289 A 1064.250,1064.250 0.00 0,1 2340.1,2153.3 L 2340.1,2153.3 2282.5,2108.1 2229.5,2066.0 2180.9,2026.6 2136.5,1989.9 2096.1,1955.8 2059.5,1924.1 2026.6,1894.6 1997.0,1867.3 1970.8,1842.1 1947.7,1818.8 1927.7,1797.3 1910.5,1777.6 1896.2,1759.6 1884.7,1743.1 1875.8,1728.2 1869.6,1714.7 1865.9,1702.6 1864.8,1691.8 1866.3,1682.3 1870.2,1674.1 1876.8,1667.0 1885.9,1661.2 1897.7,1656.6 1912.2,1653.1 1929.4,1650.8 1949.5,1649.6 1972.5,1649.6 1998.6,1650.8 2027.8,1653.2 2060.4,1656.9 2096.5,1661.8 2136.2,1668.0 2179.8,1675.6 2227.4,1684.6 2279.2,1695.1 2335.5,1707.1 2396.5,1720.8 2462.5,1736.2 2533.7,1753.4  A 1064.250,1064.250 0.00 0,0 2534.6,1749.6 L 2534.6,1749.6 2463.3,1732.7 2397.3,1717.6 2336.2,1704.1 2279.9,1692.3 2228.0,1682.0 2180.4,1673.1 2136.8,1665.7 2097.1,1659.6 2061.0,1654.8 2028.4,1651.3 1999.1,1649.0 1973.0,1647.9 1950.0,1648.0 1929.9,1649.2 1912.7,1651.6 1898.3,1655.1 1886.5,1659.8 1877.4,1665.7 1870.9,1672.7 1866.9,1681.0 1865.5,1690.5 1866.6,1701.2 1870.3,1713.4 1876.6,1726.8 1885.6,1741.7 1897.2,1758.2 1911.5,1776.2 1928.7,1795.8 1948.8,1817.2 1972.0,1840.4 1998.3,1865.6 2028.0,1892.7 2061.1,1922.1 2097.8,1953.7 2138.3,1987.7 2182.8,2024.2 2231.5,2063.3 2284.7,2105.3 2342.5,2150.3  Z" style="stroke-width: 2.0;  stroke: rgb(82,82,82); fill: rgb(255,153,0); opacity: 0.667;" />
<path d="M 2342.468,2150.289 A 1064.250,1064.250 0.00 0,1 2340.1,2153.3 L 2340.1,2153.3 2282.5,2108.2 2229.4,2066.1 2180.8,2026.9 2136.3,1990.5 2095.7,1956.7 2059.0,1925.3 2025.8,1896.3 1996.1,1869.6 1969.6,1844.9 1946.3,1822.2 1926.0,1801.5 1908.6,1782.5 1894.0,1765.3 1882.1,1749.8 1873.0,1735.8 1866.4,1723.4 1862.4,1712.4 1860.9,1702.9 1862.0,1694.7 1865.6,1687.9 1871.7,1682.4 1880.4,1678.2 1891.7,1675.3 1905.7,1673.6 1922.4,1673.3 1941.9,1674.2 1964.3,1676.5 1989.8,1680.1 2018.4,1685.1 2050.3,1691.4 2085.6,1699.3 2124.5,1708.6 2167.2,1719.5 2213.9,1732.0 2264.7,1746.2 2319.9,1762.3 2379.8,1780.2 2444.5,1800.0 2514.4,1822.0  A 1064.250,1064.250 0.00 0,0 2515.5,1818.5 L 2515.5,1818.5 2445.6,1796.8 2380.8,1777.1 2320.8,1759.4 2265.6,1743.6 2214.7,1729.6 2168.0,1717.2 2125.2,1706.4 2086.3,1697.2 2050.9,1689.5 2019.0,1683.3 1990.4,1678.4 1964.9,1674.9 1942.5,1672.7 1923.0,1671.8 1906.3,1672.2 1892.3,1673.9 1881.0,1676.8 1872.3,1681.1 1866.2,1686.6 1862.6,1693.4 1861.6,1701.6 1863.1,1711.1 1867.2,1722.1 1873.8,1734.5 1883.0,1748.4 1894.9,1763.9 1909.6,1781.1 1927.0,1800.0 1947.4,1820.6 1970.8,1843.2 1997.4,1867.8 2027.2,1894.5 2060.5,1923.3 2097.4,1954.6 2138.0,1988.2 2182.6,2024.5 2231.4,2063.5 2284.6,2105.4 2342.5,2150.3  Z" style="stroke-width: 2.0;  stroke: rgb(82,82,82); fill: rgb(255,204,0); opacity: 0.667;" />
<path d="M 2342.468,2150.289 A 1064.250,1064.250 0.00 0,1 2340.1,2153.3 L 2340.1,2153.3 2282.4,2108.3 2229.1,2066.6 2180.1,2028.1 2135.1,1992.6 2093.9,1959.8 2056.4,1929.8 2022.3,1902.4 1991.6,1877.4 1964.1,1854.8 1939.6,1834.4 1918.0,1816.1 1899.2,1799.8 1883.2,1785.6 1869.7,1773.2 1858.9,1762.7 1850.5,1754.0 1844.6,1747.0 1841.1,1741.8 1840.1,1738.2 1841.4,1736.3 1845.1,1736.1 1851.2,1737.5 1859.8,1740.6 1870.9,1745.5 1884.5,1752.0 1900.8,1760.3 1919.7,1770.4 1941.5,1782.4 1966.1,1796.3 1993.7,1812.2 2024.5,1830.2 2058.6,1850.3 2096.2,1872.7 2137.3,1897.5 2182.3,1924.8 2231.2,1954.6 2284.4,1987.3 2341.9,2022.8 2404.2,2061.3  A 1064.250,1064.250 0.00 0,0 2406.2,2058.0 L 2406.2,2058.0 2343.8,2019.7 2286.1,1984.4 2232.9,1952.0 2183.8,1922.3 2138.8,1895.2 2097.5,1870.5 2059.9,1848.3 2025.7,1828.3 1994.9,1810.4 1967.2,1794.6 1942.5,1780.8 1920.7,1768.9 1901.7,1758.8 1885.4,1750.6 1871.8,1744.1 1860.7,1739.3 1852.1,1736.2 1845.9,1734.8 1842.2,1735.1 1840.9,1737.0 1842.0,1740.5 1845.5,1745.8 1851.4,1752.7 1859.8,1761.4 1870.7,1771.9 1884.2,1784.2 1900.3,1798.4 1919.1,1814.6 1940.8,1832.8 1965.4,1853.1 1993.0,1875.7 2023.8,1900.5 2057.9,1927.9 2095.5,1957.7 2136.8,1990.3 2182.0,2025.7 2231.1,2064.0 2284.6,2105.5 2342.5,2150.3  Z" style="stroke-width: 2.0;  stroke: rgb(82,82,82); fill: rgb(255,255,0); opacity: 0.667;" />
<path d="M 1858.321,2502.115 A 1064.250,1064.250 0.00 0,1 1854.6,2503.4 L 1854.6,2503.4 1831.0,2433.1 1810.7,2365.4 1793.2,2300.3 1778.3,2237.7 1765.6,2177.4 1754.9,2119.2 1745.7,2063.1 1738.0,2008.9 1731.3,1956.5 1725.6,1905.8 1720.5,1856.5 1715.9,1808.7 1711.7,1762.0 1707.6,1716.4 1703.6,1671.6 1699.5,1627.7 1695.2,1584.4 1690.7,1541.5 1685.8,1498.9 1680.6,1456.4 1675.1,1413.9 1669.2,1371.1 1662.9,1328.0 1656.3,1284.4 1649.5,1240.0 1642.4,1194.8 1635.3,1148.5 1628.2,1100.9 1621.3,1051.8 1614.7,1001.2 1608.5,948.8 1603.0,894.3 1598.4,837.7 1594.8,778.6 1592.6,717.0 1592.0,652.6 1593.3,585.2 1596.8,514.7 1602.8,440.7  A 1064.250,1064.250 0.00 0,0 1598.9,440.4 L 1598.9,440.4 1593.2,514.3 1590.0,584.9 1588.9,652.3 1589.8,716.7 1592.2,778.3 1595.9,837.3 1600.8,893.9 1606.5,948.4 1612.8,1000.8 1619.7,1051.4 1626.8,1100.4 1634.0,1148.0 1641.3,1194.3 1648.5,1239.5 1655.5,1283.8 1662.3,1327.5 1668.7,1370.5 1674.8,1413.2 1680.5,1455.7 1685.8,1498.2 1690.8,1540.8 1695.5,1583.6 1700.0,1627.0 1704.2,1670.9 1708.4,1715.6 1712.7,1761.2 1717.1,1807.9 1721.8,1855.7 1727.1,1905.0 1733.0,1955.7 1739.8,2008.1 1747.8,2062.2 1757.1,2118.3 1768.1,2176.4 1781.0,2236.7 1796.2,2299.3 1813.9,2364.3 1834.5,2431.9 1858.3,2502.1  Z" style="stroke-width: 2.0;  stroke: rgb(82,82,82); fill: rgb(204,255,0); opacity: 0.667;" />
<path d="M 1858.321,2502.115 A 1064.250,1064.250 0.00 0,1 1854.6,2503.4 L 1854.6,2503.4 1830.8,2434.1 1809.7,2369.3 1791.3,2308.8 1775.4,2252.4 1761.9,2199.8 1750.6,2150.8 1741.5,2105.3 1734.4,2062.9 1729.3,2023.6 1726.1,1987.1 1724.6,1953.4 1725.0,1922.1 1727.0,1893.2 1730.8,1866.5 1736.2,1842.0 1743.3,1819.4 1752.1,1798.8 1762.6,1780.0 1774.8,1762.9 1788.8,1747.4 1804.6,1733.6 1822.3,1721.3 1842.0,1710.5 1863.7,1701.2 1887.6,1693.3 1913.8,1686.9 1942.3,1682.0 1973.4,1678.6 2007.2,1676.6 2043.8,1676.2 2083.4,1677.4 2126.3,1680.3 2172.5,1684.8 2222.3,1691.2 2276.0,1699.4 2333.7,1709.6 2395.7,1721.9 2462.3,1736.5 2533.7,1753.4  A 1064.250,1064.250 0.00 0,0 2534.6,1749.6 L 2534.6,1749.6 2463.1,1733.0 2396.5,1718.7 2334.4,1706.6 2276.7,1696.6 2223.0,1688.6 2173.1,1682.4 2126.9,1678.0 2084.1,1675.3 2044.4,1674.3 2007.8,1674.8 1974.0,1676.8 1943.0,1680.4 1914.4,1685.4 1888.3,1691.9 1864.4,1699.8 1842.8,1709.2 1823.1,1720.1 1805.5,1732.4 1789.7,1746.4 1775.8,1761.8 1763.6,1779.0 1753.2,1797.9 1744.5,1818.5 1737.5,1841.1 1732.1,1865.7 1728.5,1892.3 1726.5,1921.2 1726.3,1952.5 1727.8,1986.3 1731.2,2022.8 1736.5,2062.1 1743.7,2104.4 1753.0,2149.9 1764.4,2198.8 1778.1,2251.4 1794.2,2307.7 1812.9,2368.1 1834.2,2432.8 1858.3,2502.1  Z" style="stroke-width: 2.0;  stroke: rgb(82,82,82); fill: rgb(0,255,0); opacity: 0.667;" />
<path d="M 1858.321,2502.115 A 1064.250,1064.250 0.00 0,1 1854.6,2503.4 L 1854.6,2503.4 1830.7,2434.1 1809.6,2369.4 1791.0,2309.1 1775.0,2252.9 1761.3,2200.6 1749.8,2151.9 1740.4,2106.8 1733.0,2064.9 1727.6,2026.1 1724.1,1990.2 1722.3,1957.1 1722.3,1926.5 1724.0,1898.4 1727.4,1872.6 1732.5,1849.0 1739.3,1827.5 1747.7,1808.0 1757.8,1790.4 1769.6,1774.6 1783.2,1760.6 1798.6,1748.2 1815.9,1737.6 1835.1,1728.5 1856.4,1721.1 1879.8,1715.3 1905.5,1711.0 1933.5,1708.4 1964.0,1707.4 1997.2,1708.1 2033.2,1710.5 2072.1,1714.6 2114.2,1720.6 2159.7,1728.5 2208.6,1738.4 2261.4,1750.5 2318.1,1764.7 2379.0,1781.3 2444.3,1800.3 2514.4,1822.0  A 1064.250,1064.250 0.00 0,0 2515.5,1818.5 L 2515.5,1818.5 2445.3,1797.1 2379.9,1778.2 2319.0,1761.9 2262.2,1747.8 2209.5,1736.0 2160.5,1726.3 2115.0,1718.5 2072.9,1712.7 2033.9,1708.6 1997.9,1706.4 1964.7,1705.8 1934.2,1706.9 1906.2,1709.6 1880.5,1713.9 1857.2,1719.9 1835.9,1727.4 1816.7,1736.5 1799.5,1747.2 1784.1,1759.6 1770.6,1773.6 1758.8,1789.5 1748.8,1807.1 1740.4,1826.7 1733.8,1848.2 1728.8,1871.8 1725.5,1897.6 1723.9,1925.7 1724.0,1956.3 1725.9,1989.4 1729.6,2025.3 1735.1,2064.0 1742.6,2105.9 1752.2,2151.0 1763.8,2199.6 1777.7,2251.8 1794.0,2308.0 1812.8,2368.2 1834.2,2432.9 1858.3,2502.1  Z" style="stroke-width: 2.0;  stroke: rgb(82,82,82); fill: rgb(53,128,0); opacity: 0.667;" />
<path d="M 1858.321,2502.115 A 1064.250,1064.250 0.00 0,1 1854.6,2503.4 L 1854.6,2503.4 1830.6,2434.2 1809.1,2369.8 1790.1,2310.0 1773.3,2254.5 1758.8,2203.2 1746.3,2155.7 1735.8,2111.9 1727.2,2071.6 1720.5,2034.6 1715.5,2000.8 1712.2,1969.9 1710.6,1941.9 1710.6,1916.5 1712.3,1893.8 1715.5,1873.5 1720.3,1855.6 1726.7,1840.0 1734.7,1826.6 1744.4,1815.4 1755.7,1806.3 1768.7,1799.3 1783.5,1794.3 1800.1,1791.4 1818.7,1790.5 1839.2,1791.7 1861.7,1795.0 1886.5,1800.4 1913.5,1807.9 1943.0,1817.7 1975.0,1829.9 2009.7,1844.4 2047.2,1861.4 2087.7,1881.0 2131.4,1903.4 2178.5,1928.6 2229.1,1956.9 2283.4,1988.3 2341.7,2023.0 2404.2,2061.3  A 1064.250,1064.250 0.00 0,0 2406.2,2058.0 L 2406.2,2058.0 2343.6,2020.0 2285.2,1985.4 2230.7,1954.2 2180.0,1926.1 2132.9,1901.1 2089.1,1878.9 2048.5,1859.4 2010.9,1842.5 1976.2,1828.1 1944.1,1816.1 1914.7,1806.4 1887.6,1798.9 1862.8,1793.6 1840.2,1790.4 1819.7,1789.3 1801.2,1790.3 1784.6,1793.3 1769.8,1798.3 1756.8,1805.3 1745.6,1814.5 1735.9,1825.7 1728.0,1839.2 1721.6,1854.8 1716.9,1872.7 1713.7,1893.0 1712.2,1915.7 1712.2,1941.1 1713.9,1969.1 1717.3,2000.0 1722.4,2033.8 1729.3,2070.8 1738.1,2111.0 1748.7,2154.8 1761.4,2202.2 1776.1,2253.5 1793.1,2308.9 1812.3,2368.7 1834.0,2433.0 1858.3,2502.1  Z" style="stroke-width: 2.0;  stroke: rgb(82,82,82); fill: rgb(0,0,204); opacity: 0.667;" />
<path d="M 1858.321,2502.115 A 1064.250,1064.250 0.00 0,1 1854.6,2503.4 L 1854.6,2503.4 1830.6,2434.2 1808.9,2370.0 1789.6,2310.4 1772.6,2255.2 1757.6,2204.2 1744.6,2157.1 1733.6,2113.9 1724.4,2074.2 1717.0,2037.9 1711.3,2004.8 1707.2,1974.8 1704.8,1947.7 1703.9,1923.5 1704.6,1901.9 1706.8,1882.9 1710.6,1866.3 1715.9,1852.2 1722.7,1840.5 1731.1,1831.0 1741.1,1823.8 1752.8,1818.8 1766.1,1816.1 1781.1,1815.5 1798.0,1817.1 1816.7,1821.0 1837.4,1827.2 1860.2,1835.7 1885.1,1846.5 1912.3,1859.8 1941.9,1875.7 1974.0,1894.2 2008.7,1915.5 2046.3,1939.6 2086.8,1966.7 2130.5,1997.1 2177.5,2030.7 2227.9,2067.8 2282.1,2108.6 2340.1,2153.3  A 1064.250,1064.250 0.00 0,0 2342.5,2150.3 L 2342.5,2150.3 2284.3,2105.8 2230.0,2065.2 2179.4,2028.3 2132.3,1994.8 2088.5,1964.6 2047.9,1937.6 2010.2,1913.7 1975.4,1892.5 1943.2,1874.1 1913.6,1858.4 1886.3,1845.1 1861.4,1834.4 1838.6,1826.0 1817.9,1819.9 1799.1,1816.1 1782.3,1814.5 1767.2,1815.1 1753.9,1817.9 1742.3,1822.9 1732.3,1830.2 1724.0,1839.7 1717.2,1851.5 1711.9,1865.6 1708.2,1882.1 1706.1,1901.1 1705.5,1922.7 1706.4,1947.0 1709.0,1974.0 1713.1,2004.0 1719.0,2037.1 1726.5,2073.4 1735.9,2113.0 1747.1,2156.2 1760.2,2203.2 1775.3,2254.2 1792.6,2309.3 1812.1,2368.8 1834.0,2433.0 1858.3,2502.1  Z" style="stroke-width: 2.0;  stroke: rgb(82,82,82); fill: rgb(102,153,255); opacity: 0.667;" />
<path d="M 1849.013,2505.394 A 1064.250,1064.250 0.00 0,1 1845.4,2506.6 L 1845.4,2506.6 1822.5,2436.1 1802.7,2368.2 1785.9,2303.0 1771.5,2240.1 1759.4,2179.7 1749.1,2121.4 1740.5,2065.2 1733.1,2010.9 1726.9,1958.4 1721.6,1907.5 1716.9,1858.2 1712.7,1810.2 1708.8,1763.4 1705.1,1717.7 1701.3,1673.0 1697.5,1628.9 1693.5,1585.5 1689.2,1542.6 1684.5,1499.9 1679.5,1457.3 1674.1,1414.8 1668.4,1372.0 1662.2,1328.8 1655.8,1285.1 1649.0,1240.7 1642.1,1195.4 1635.1,1149.0 1628.0,1101.3 1621.2,1052.2 1614.6,1001.5 1608.4,949.0 1603.0,894.5 1598.3,837.8 1594.8,778.7 1592.6,717.1 1592.0,652.7 1593.3,585.3 1596.8,514.7 1602.8,440.7  A 1064.250,1064.250 0.00 0,0 1598.9,440.4 L 1598.9,440.4 1593.2,514.3 1590.0,584.9 1588.9,652.3 1589.8,716.8 1592.2,778.4 1595.9,837.5 1600.7,894.1 1606.4,948.6 1612.7,1001.1 1619.5,1051.8 1626.6,1100.9 1633.8,1148.5 1641.0,1194.8 1648.1,1240.1 1655.0,1284.5 1661.6,1328.2 1667.9,1371.4 1673.8,1414.1 1679.4,1456.7 1684.5,1499.2 1689.3,1541.9 1693.8,1584.8 1697.9,1628.2 1701.9,1672.2 1705.8,1717.0 1709.8,1762.7 1713.8,1809.4 1718.2,1857.4 1723.1,1906.7 1728.6,1957.5 1735.0,2010.0 1742.5,2064.3 1751.3,2120.5 1761.8,2178.7 1774.2,2239.2 1788.7,2301.9 1805.8,2367.1 1825.8,2434.9 1849.0,2505.4  Z" style="stroke-width: 2.0;  stroke: rgb(82,82,82); fill: rgb(153,204,255); opacity: 0.667;" />
<path d="M 1849.013,2505.394 A 1064.250,1064.250 0.00 0,1 1845.4,2506.6 L 1845.4,2506.6 1822.2,2437.1 1801.7,2372.1 1783.9,2311.4 1768.5,2254.8 1755.5,2202.1 1744.7,2153.0 1736.1,2107.3 1729.4,2064.8 1724.7,2025.4 1721.8,1988.8 1720.8,1954.9 1721.4,1923.5 1723.8,1894.5 1727.9,1867.8 1733.6,1843.1 1740.9,1820.5 1750.0,1799.8 1760.7,1780.9 1773.1,1763.7 1787.3,1748.2 1803.2,1734.3 1821.1,1721.9 1840.9,1711.1 1862.8,1701.7 1886.8,1693.8 1913.1,1687.4 1941.7,1682.4 1972.9,1678.9 2006.8,1676.9 2043.5,1676.5 2083.2,1677.6 2126.1,1680.4 2172.3,1684.9 2222.2,1691.3 2275.9,1699.5 2333.7,1709.7 2395.7,1722.0 2462.3,1736.5 2533.7,1753.4  A 1064.250,1064.250 0.00 0,0 2534.6,1749.6 L 2534.6,1749.6 2463.1,1733.0 2396.5,1718.7 2334.4,1706.6 2276.6,1696.7 2222.9,1688.6 2173.0,1682.5 2126.7,1678.2 2083.8,1675.5 2044.1,1674.5 2007.4,1675.1 1973.6,1677.2 1942.4,1680.8 1913.7,1685.9 1887.5,1692.4 1863.5,1700.4 1841.7,1709.9 1821.9,1720.8 1804.1,1733.2 1788.1,1747.2 1774.0,1762.8 1761.7,1780.0 1751.0,1798.9 1742.1,1819.7 1734.8,1842.3 1729.2,1866.9 1725.2,1893.7 1723.0,1922.7 1722.4,1954.1 1723.6,1988.0 1726.6,2024.6 1731.4,2064.0 1738.2,2106.4 1747.1,2152.1 1758.0,2201.1 1771.2,2253.8 1786.8,2310.4 1804.8,2371.0 1825.5,2435.9 1849.0,2505.4  Z" style="stroke-width: 2.0;  stroke: rgb(82,82,82); fill: rgb(0,255,255); opacity: 0.667;" />
<path d="M 1849.013,2505.394 A 1064.250,1064.250 0.00 0,1 1845.4,2506.6 L 1845.4,2506.6 1822.1,2437.1 1801.6,2372.2 1783.6,2311.7 1768.1,2255.3 1754.9,2202.8 1743.9,2154.0 1735.0,2108.8 1728.0,2066.7 1723.0,2027.8 1719.9,1991.8 1718.5,1958.6 1718.8,1927.9 1720.8,1899.7 1724.5,1873.9 1729.8,1850.2 1736.8,1828.6 1745.5,1809.0 1755.8,1791.3 1767.8,1775.5 1781.6,1761.4 1797.2,1749.0 1814.6,1738.2 1834.0,1729.1 1855.4,1721.7 1879.0,1715.8 1904.8,1711.5 1932.9,1708.8 1963.5,1707.8 1996.8,1708.4 2032.9,1710.7 2071.9,1714.8 2114.0,1720.8 2159.5,1728.7 2208.5,1738.5 2261.3,1750.5 2318.0,1764.7 2378.9,1781.3 2444.3,1800.3 2514.4,1822.0  A 1064.250,1064.250 0.00 0,0 2515.5,1818.5 L 2515.5,1818.5 2445.3,1797.1 2379.9,1778.3 2318.9,1761.9 2262.2,1747.9 2209.4,1736.1 2160.3,1726.4 2114.8,1718.7 2072.6,1712.9 2033.6,1708.9 1997.5,1706.7 1964.3,1706.2 1933.6,1707.3 1905.5,1710.1 1879.7,1714.5 1856.2,1720.4 1834.8,1728.0 1815.5,1737.2 1798.1,1747.9 1782.5,1760.4 1768.8,1774.5 1756.8,1790.4 1746.6,1808.2 1738.0,1827.8 1731.1,1849.4 1725.8,1873.1 1722.2,1899.0 1720.3,1927.2 1720.1,1957.8 1721.6,1991.0 1724.9,2027.0 1730.1,2065.9 1737.2,2107.9 1746.2,2153.2 1757.4,2201.9 1770.8,2254.3 1786.5,2310.6 1804.7,2371.1 1825.5,2435.9 1849.0,2505.4  Z" style="stroke-width: 2.0;  stroke: rgb(82,82,82); fill: rgb(204,255,255); opacity: 0.667;" />
<path d="M 1849.013,2505.394 A 1064.250,1064.250 0.00 0,1 1845.4,2506.6 L 1845.4,2506.6 1822.0,2437.2 1801.2,2372.6 1782.7,2312.6 1766.5,2257.0 1752.4,2205.4 1740.4,2157.8 1730.4,2113.9 1722.2,2073.4 1715.8,2036.3 1711.2,2002.4 1708.3,1971.4 1707.0,1943.2 1707.4,1917.8 1709.3,1895.0 1712.8,1874.6 1717.9,1856.6 1724.5,1841.0 1732.7,1827.5 1742.6,1816.2 1754.1,1807.0 1767.3,1800.0 1782.3,1794.9 1799.0,1791.9 1817.7,1791.0 1838.3,1792.1 1861.0,1795.4 1885.9,1800.7 1913.0,1808.2 1942.6,1818.0 1974.6,1830.1 2009.4,1844.6 2047.0,1861.5 2087.6,1881.1 2131.3,1903.5 2178.4,1928.7 2229.0,1956.9 2283.4,1988.3 2341.7,2023.0 2404.2,2061.3  A 1064.250,1064.250 0.00 0,0 2406.2,2058.0 L 2406.2,2058.0 2343.6,2020.0 2285.2,1985.4 2230.7,1954.2 2180.0,1926.2 2132.8,1901.2 2089.0,1879.0 2048.3,1859.5 2010.6,1842.7 1975.8,1828.4 1943.7,1816.4 1914.1,1806.7 1887.0,1799.3 1862.1,1794.0 1839.4,1790.9 1818.7,1789.9 1800.1,1790.9 1783.3,1793.9 1768.4,1799.0 1755.2,1806.1 1743.7,1815.3 1733.9,1826.7 1725.7,1840.1 1719.1,1855.8 1714.1,1873.8 1710.7,1894.2 1708.9,1917.1 1708.6,1942.5 1710.0,1970.6 1713.0,2001.6 1717.8,2035.5 1724.3,2072.6 1732.6,2113.0 1742.8,2156.9 1754.9,2204.5 1769.2,2256.0 1785.6,2311.6 1804.3,2371.5 1825.4,2436.0 1849.0,2505.4  Z" style="stroke-width: 2.0;  stroke: rgb(82,82,82); fill: rgb(153,0,204); opacity: 0.667;" />
<path d="M 1849.013,2505.394 A 1064.250,1064.250 0.00 0,1 1845.4,2506.6 L 1845.4,2506.6 1822.0,2437.2 1801.0,2372.8 1782.2,2313.0 1765.7,2257.6 1751.2,2206.4 1738.8,2159.2 1728.2,2115.8 1719.4,2076.0 1712.4,2039.6 1707.0,2006.4 1703.3,1976.3 1701.2,1949.1 1700.6,1924.7 1701.6,1903.1 1704.1,1884.0 1708.1,1867.4 1713.6,1853.2 1720.7,1841.4 1729.3,1831.8 1739.5,1824.6 1751.3,1819.5 1764.8,1816.7 1780.0,1816.0 1797.0,1817.6 1815.9,1821.5 1836.7,1827.6 1859.5,1836.0 1884.6,1846.8 1911.8,1860.1 1941.5,1875.9 1973.7,1894.4 2008.5,1915.6 2046.1,1939.7 2086.7,1966.8 2130.4,1997.1 2177.4,2030.7 2227.9,2067.8 2282.1,2108.6 2340.1,2153.3  A 1064.250,1064.250 0.00 0,0 2342.5,2150.3 L 2342.5,2150.3 2284.3,2105.8 2229.9,2065.2 2179.3,2028.3 2132.2,1994.8 2088.4,1964.7 2047.7,1937.8 2010.0,1913.8 1975.1,1892.7 1942.8,1874.3 1913.1,1858.6 1885.8,1845.4 1860.7,1834.7 1837.8,1826.4 1817.0,1820.3 1798.1,1816.6 1781.1,1815.0 1765.9,1815.7 1752.4,1818.6 1740.7,1823.7 1730.5,1831.0 1721.9,1840.6 1714.9,1852.4 1709.4,1866.6 1705.5,1883.2 1703.1,1902.3 1702.2,1924.0 1702.8,1948.4 1705.0,1975.5 1708.8,2005.6 1714.3,2038.8 1721.5,2075.2 1730.4,2115.0 1741.1,2158.4 1753.8,2205.5 1768.4,2256.6 1785.1,2311.9 1804.1,2371.7 1825.3,2436.1 1849.0,2505.4  Z" style="stroke-width: 2.0;  stroke: rgb(82,82,82); fill: rgb(204,51,255); opacity: 0.667;" />
<path d="M 1849.013,2505.394 A 1064.250,1064.250 0.00 0,1 1845.4,2506.6 L 1845.4,2506.6 1821.7,2437.4 1799.7,2373.4 1779.5,2314.4 1760.9,2260.2 1743.9,2210.5 1728.4,2165.0 1714.3,2123.7 1701.5,2086.2 1690.0,2052.5 1679.8,2022.4 1670.7,1995.7 1662.8,1972.3 1656.0,1952.0 1650.2,1934.8 1645.5,1920.6 1641.8,1909.4 1639.1,1900.9 1637.4,1895.3 1636.6,1892.5 1636.8,1892.4 1637.9,1895.1 1640.1,1900.6 1643.2,1908.9 1647.3,1920.0 1652.4,1934.1 1658.5,1951.1 1665.8,1971.2 1674.1,1994.5 1683.6,2021.1 1694.3,2051.1 1706.3,2084.6 1719.5,2121.9 1734.1,2163.0 1750.2,2208.3 1767.7,2257.8 1786.9,2311.9 1807.7,2370.6 1830.2,2434.4 1854.6,2503.4  A 1064.250,1064.250 0.00 0,0 1858.3,2502.1 L 1858.3,2502.1 1833.7,2433.2 1810.9,2369.5 1789.9,2310.8 1770.5,2256.8 1752.8,2207.4 1736.6,2162.2 1721.8,2121.1 1708.4,2083.8 1696.3,2050.3 1685.5,2020.4 1675.9,1993.9 1667.5,1970.6 1660.2,1950.5 1654.0,1933.5 1648.8,1919.5 1644.6,1908.4 1641.5,1900.1 1639.4,1894.6 1638.2,1891.9 1638.0,1892.0 1638.8,1894.8 1640.6,1900.4 1643.3,1908.8 1647.0,1920.1 1651.8,1934.3 1657.6,1951.4 1664.5,1971.7 1672.5,1995.1 1681.7,2021.8 1692.0,2051.9 1703.6,2085.5 1716.5,2122.9 1730.8,2164.2 1746.5,2209.6 1763.7,2259.2 1782.4,2313.4 1802.8,2372.3 1825.0,2436.2 1849.0,2505.4  Z" style="stroke-width: 2.0;  stroke: rgb(82,82,82); fill: rgb(204,153,255); opacity: 0.667;" />
<path d="M 995.418,2437.030 A 1064.250,1064.250 0.00 0,1 992.0,2435.2 L 992.0,2435.2 1026.4,2369.4 1057.1,2305.7 1084.6,2244.1 1109.3,2184.5 1131.4,2126.8 1151.3,2070.9 1169.3,2016.8 1185.6,1964.3 1200.6,1913.5 1214.5,1864.1 1227.5,1816.2 1239.9,1769.5 1251.8,1723.9 1263.4,1679.4 1274.9,1635.8 1286.4,1593.0 1298.0,1550.9 1309.9,1509.3 1322.1,1468.0 1334.7,1426.9 1347.7,1385.9 1361.2,1344.7 1375.1,1303.3 1389.6,1261.4 1404.5,1218.9 1419.8,1175.5 1435.4,1131.1 1451.3,1085.5 1467.4,1038.4 1483.5,989.8 1499.5,939.2 1515.4,886.6 1530.8,831.7 1545.6,774.3 1559.6,714.1 1572.6,650.9 1584.3,584.4 1594.4,514.5 1602.8,440.7  A 1064.250,1064.250 0.00 0,0 1598.9,440.4 L 1598.9,440.4 1590.8,514.1 1580.9,584.1 1569.4,650.6 1556.7,713.9 1542.9,774.1 1528.3,831.6 1513.1,886.6 1497.5,939.2 1481.6,989.8 1465.7,1038.6 1449.8,1085.7 1434.1,1131.3 1418.6,1175.8 1403.4,1219.2 1388.7,1261.8 1374.4,1303.8 1360.6,1345.2 1347.3,1386.4 1334.4,1427.5 1322.0,1468.6 1309.9,1510.0 1298.2,1551.6 1286.8,1593.8 1275.4,1636.7 1264.1,1680.3 1252.6,1724.8 1240.9,1770.4 1228.7,1817.2 1215.9,1865.2 1202.1,1914.6 1187.3,1965.5 1171.2,2018.0 1153.4,2072.2 1133.7,2128.1 1111.8,2185.9 1087.4,2245.6 1060.1,2307.3 1029.6,2371.1 995.4,2437.0  Z" style="stroke-width: 2.0;  stroke: rgb(82,82,82); fill: rgb(102,102,102); opacity: 0.667;" />
<path d="M 995.418,2437.030 A 1064.250,1064.250 0.00 0,1 992.0,2435.2 L 992.0,2435.2 1028.0,2370.9 1063.5,2311.5 1098.4,2256.6 1132.8,2206.0 1166.6,2159.2 1199.9,2116.1 1232.7,2076.4 1265.0,2039.7 1296.9,2005.9 1328.4,1974.7 1359.6,1945.9 1390.5,1919.3 1421.2,1894.8 1451.8,1872.1 1482.3,1851.2 1512.8,1831.8 1543.6,1813.9 1574.5,1797.3 1605.8,1782.1 1637.5,1768.1 1669.9,1755.2 1702.9,1743.4 1736.8,1732.7 1771.7,1723.2 1807.7,1714.7 1845.1,1707.3 1883.9,1701.1 1924.4,1696.1 1966.6,1692.4 2010.9,1690.1 2057.4,1689.3 2106.3,1690.0 2157.7,1692.5 2212.0,1696.9 2269.3,1703.3 2329.9,1712.0 2394.0,1723.0 2461.8,1736.8 2533.7,1753.4  A 1064.250,1064.250 0.00 0,0 2534.6,1749.6 L 2534.6,1749.6 2462.7,1733.3 2394.8,1719.8 2330.7,1709.0 2270.1,1700.5 2212.7,1694.3 2158.4,1690.1 2106.9,1687.8 2058.1,1687.2 2011.6,1688.2 1967.3,1690.7 1925.1,1694.6 1884.6,1699.7 1845.8,1706.1 1808.5,1713.6 1772.5,1722.2 1737.7,1731.9 1703.8,1742.7 1670.8,1754.6 1638.5,1767.6 1606.8,1781.7 1575.6,1797.1 1544.7,1813.7 1514.1,1831.7 1483.6,1851.2 1453.1,1872.3 1422.6,1895.1 1392.0,1919.7 1361.2,1946.4 1330.1,1975.3 1298.7,2006.6 1267.0,2040.6 1234.8,2077.3 1202.2,2117.2 1169.0,2160.4 1135.4,2207.3 1101.2,2258.1 1066.5,2313.1 1031.2,2372.6 995.4,2437.0  Z" style="stroke-width: 2.0;  stroke: rgb(82,82,82); fill: rgb(153,153,153); opacity: 0.667;" />
<path d="M 995.418,2437.030 A 1064.250,1064.250 0.00 0,1 992.0,2435.2 L 992.0,2435.2 1028.0,2370.9 1063.4,2311.5 1098.1,2256.8 1132.3,2206.3 1165.8,2159.7 1198.8,2116.8 1231.3,2077.4 1263.2,2041.1 1294.7,2007.7 1325.8,1976.9 1356.6,1948.7 1387.1,1922.8 1417.4,1898.9 1447.6,1877.0 1477.7,1857.0 1507.9,1838.6 1538.2,1821.8 1568.7,1806.4 1599.6,1792.5 1630.9,1779.8 1662.9,1768.5 1695.5,1758.4 1729.0,1749.5 1763.5,1741.9 1799.1,1735.4 1836.0,1730.3 1874.4,1726.5 1914.4,1724.1 1956.1,1723.1 1999.8,1723.6 2045.7,1725.9 2093.9,1729.9 2144.7,1735.8 2198.2,1743.9 2254.6,1754.2 2314.2,1766.9 2377.2,1782.3 2443.9,1800.6 2514.4,1822.0  A 1064.250,1064.250 0.00 0,0 2515.5,1818.5 L 2515.5,1818.5 2444.9,1797.3 2378.2,1779.3 2315.1,1764.1 2255.5,1751.6 2199.0,1741.5 2145.5,1733.6 2094.7,1727.9 2046.5,1724.0 2000.6,1721.9 1956.9,1721.5 1915.1,1722.6 1875.2,1725.2 1836.8,1729.2 1800.0,1734.4 1764.4,1740.9 1729.9,1748.7 1696.4,1757.7 1663.8,1767.9 1631.9,1779.4 1600.6,1792.1 1569.8,1806.2 1539.3,1821.7 1509.1,1838.6 1479.0,1857.1 1449.0,1877.3 1418.9,1899.2 1388.7,1923.2 1358.3,1949.2 1327.6,1977.6 1296.6,2008.4 1265.2,2041.9 1233.4,2078.4 1201.1,2117.9 1168.2,2160.9 1134.8,2207.6 1100.9,2258.2 1066.3,2313.1 1031.2,2372.6 995.4,2437.0  Z" style="stroke-width: 2.0;  stroke: rgb(82,82,82); fill: rgb(204,204,204); opacity: 0.667;" />
<path d="M 995.418,2437.030 A 1064.250,1064.250 0.00 0,1 992.0,2435.2 L 992.0,2435.2 1027.8,2370.9 1062.8,2311.8 1096.9,2257.3 1130.2,2207.2 1162.7,2161.3 1194.5,2119.1 1225.6,2080.6 1256.0,2045.5 1286.0,2013.5 1315.4,1984.4 1344.4,1958.0 1373.1,1934.2 1401.5,1912.8 1429.7,1893.6 1457.8,1876.6 1486.0,1861.6 1514.2,1848.5 1542.6,1837.3 1571.2,1827.9 1600.3,1820.2 1629.9,1814.2 1660.1,1809.9 1691.1,1807.3 1723.0,1806.4 1755.8,1807.3 1789.8,1810.0 1825.1,1814.5 1861.8,1821.0 1900.1,1829.6 1940.0,1840.3 1981.9,1853.3 2025.8,1868.8 2071.9,1886.9 2120.3,1907.8 2171.3,1931.6 2225.0,1958.7 2281.6,1989.1 2341.2,2023.3 2404.2,2061.3  A 1064.250,1064.250 0.00 0,0 2406.2,2058.0 L 2406.2,2058.0 2343.1,2020.2 2283.3,1986.3 2226.6,1956.0 2172.9,1929.2 2121.8,1905.5 2073.3,1884.8 2027.1,1866.9 1983.2,1851.6 1941.3,1838.7 1901.3,1828.1 1863.0,1819.7 1826.2,1813.4 1791.0,1808.9 1756.9,1806.4 1724.1,1805.6 1692.2,1806.6 1661.3,1809.3 1631.1,1813.7 1601.5,1819.8 1572.4,1827.6 1543.8,1837.2 1515.4,1848.5 1487.3,1861.7 1459.2,1876.8 1431.2,1893.9 1403.0,1913.1 1374.7,1934.7 1346.1,1958.6 1317.2,1985.0 1287.9,2014.2 1258.1,2046.4 1227.7,2081.6 1196.7,2120.3 1165.1,2162.5 1132.8,2208.6 1099.7,2258.8 1065.8,2313.4 1031.0,2372.7 995.4,2437.0  Z" style="stroke-width: 2.0;  stroke: rgb(82,82,82); fill: rgb(204,204,153); opacity: 0.667;" />
<path d="M 995.418,2437.030 A 1064.250,1064.250 0.00 0,1 992.0,2435.2 L 992.0,2435.2 1027.8,2371.0 1062.6,2311.8 1096.4,2257.4 1129.3,2207.5 1161.3,2161.8 1192.5,2119.9 1223.0,2081.8 1252.8,2047.0 1281.9,2015.5 1310.6,1987.0 1338.7,1961.3 1366.5,1938.3 1393.9,1917.8 1421.1,1899.7 1448.2,1883.8 1475.2,1870.1 1502.2,1858.5 1529.4,1848.8 1556.8,1841.1 1584.6,1835.3 1612.8,1831.4 1641.6,1829.4 1671.0,1829.2 1701.3,1830.9 1732.4,1834.6 1764.6,1840.3 1798.0,1848.1 1832.6,1858.1 1868.7,1870.3 1906.3,1885.0 1945.7,1902.2 1986.9,1922.0 2030.1,1944.8 2075.5,1970.6 2123.2,1999.7 2173.3,2032.3 2226.1,2068.6 2281.6,2108.8 2340.1,2153.3  A 1064.250,1064.250 0.00 0,0 2342.5,2150.3 L 2342.5,2150.3 2283.8,2106.0 2228.1,2066.0 2175.2,2029.9 2124.9,1997.5 2077.2,1968.6 2031.7,1942.9 1988.4,1920.3 1947.1,1900.6 1907.7,1883.5 1870.0,1869.0 1833.9,1856.9 1799.2,1847.0 1765.8,1839.4 1733.6,1833.8 1702.5,1830.2 1672.2,1828.6 1642.8,1828.8 1614.0,1831.0 1585.8,1835.0 1558.1,1840.9 1530.7,1848.7 1503.5,1858.5 1476.5,1870.2 1449.6,1884.0 1422.6,1900.0 1395.4,1918.2 1368.1,1938.8 1340.4,1961.9 1312.3,1987.7 1283.8,2016.3 1254.8,2047.9 1225.1,2082.8 1194.8,2121.1 1163.7,2163.0 1131.9,2208.9 1099.1,2258.9 1065.5,2313.4 1031.0,2372.7 995.4,2437.0  Z" style="stroke-width: 2.0;  stroke: rgb(82,82,82); fill: rgb(251,106,74); opacity: 0.667;" />
<path d="M 995.418,2437.030 A 1064.250,1064.250 0.00 0,1 992.0,2435.2 L 992.0,2435.2 1027.4,2371.0 1061.2,2312.0 1093.3,2257.8 1124.0,2208.3 1153.2,2163.1 1181.1,2122.0 1207.8,2084.9 1233.3,2051.5 1257.7,2021.6 1281.1,1995.1 1303.7,1971.8 1325.4,1951.6 1346.3,1934.4 1366.5,1920.0 1386.2,1908.3 1405.3,1899.4 1424.0,1893.1 1442.3,1889.4 1460.3,1888.2 1478.1,1889.6 1495.7,1893.6 1513.2,1900.1 1530.7,1909.3 1548.2,1921.1 1565.8,1935.7 1583.5,1953.1 1601.5,1973.5 1619.7,1996.8 1638.3,2023.4 1657.3,2053.2 1676.7,2086.6 1696.6,2123.6 1717.1,2164.4 1738.2,2209.4 1760.0,2258.6 1782.4,2312.3 1805.7,2370.9 1829.7,2434.5 1854.6,2503.4  A 1064.250,1064.250 0.00 0,0 1858.3,2502.1 L 1858.3,2502.1 1833.2,2433.3 1808.9,2369.7 1785.4,2311.3 1762.7,2257.6 1740.8,2208.5 1719.5,2163.6 1698.9,2122.9 1678.8,2085.9 1659.3,2052.7 1640.2,2022.9 1621.5,1996.4 1603.2,1973.1 1585.2,1952.8 1567.3,1935.5 1549.7,1921.0 1532.2,1909.2 1514.7,1900.1 1497.2,1893.6 1479.5,1889.7 1461.8,1888.3 1443.8,1889.6 1425.5,1893.3 1406.8,1899.7 1387.7,1908.7 1368.1,1920.4 1347.9,1934.9 1327.0,1952.2 1305.4,1972.5 1283.0,1995.9 1259.6,2022.5 1235.3,2052.5 1209.9,2086.0 1183.4,2123.2 1155.7,2164.4 1126.6,2209.6 1096.1,2259.3 1064.2,2313.6 1030.6,2372.7 995.4,2437.0  Z" style="stroke-width: 2.0;  stroke: rgb(82,82,82); fill: rgb(116,196,118); opacity: 0.667;" />
<path d="M 995.418,2437.030 A 1064.250,1064.250 0.00 0,1 992.0,2435.2 L 992.0,2435.2 1027.4,2371.0 1061.2,2312.0 1093.3,2257.8 1123.9,2208.3 1153.1,2163.1 1180.9,2122.0 1207.5,2084.9 1233.0,2051.5 1257.3,2021.6 1280.6,1995.2 1303.1,1971.9 1324.6,1951.7 1345.5,1934.5 1365.6,1920.1 1385.1,1908.5 1404.1,1899.6 1422.6,1893.3 1440.8,1889.7 1458.6,1888.6 1476.2,1890.0 1493.6,1894.1 1510.9,1900.7 1528.1,1910.0 1545.3,1921.9 1562.7,1936.6 1580.1,1954.1 1597.8,1974.6 1615.7,1998.1 1634.0,2024.7 1652.6,2054.7 1671.6,2088.2 1691.1,2125.4 1711.2,2166.4 1731.8,2211.5 1753.1,2261.0 1775.0,2314.9 1797.7,2373.6 1821.1,2437.5 1845.4,2506.6  A 1064.250,1064.250 0.00 0,0 1849.0,2505.4 L 1849.0,2505.4 1824.5,2436.3 1800.8,2372.6 1777.9,2313.9 1755.8,2260.0 1734.4,2210.7 1713.6,2165.7 1693.4,2124.7 1673.7,2087.6 1654.6,2054.2 1635.8,2024.3 1617.5,1997.6 1599.5,1974.2 1581.8,1953.8 1564.2,1936.4 1546.9,1921.7 1529.6,1909.9 1512.3,1900.7 1495.0,1894.1 1477.6,1890.1 1460.0,1888.7 1442.2,1889.9 1424.1,1893.6 1405.6,1899.9 1386.6,1908.9 1367.1,1920.6 1347.0,1935.0 1326.3,1952.3 1304.8,1972.6 1282.5,1996.0 1259.2,2022.5 1235.0,2052.5 1209.7,2086.0 1183.2,2123.2 1155.5,2164.4 1126.5,2209.6 1096.1,2259.3 1064.1,2313.6 1030.6,2372.7 995.4,2437.0  Z" style="stroke-width: 2.0;  stroke: rgb(82,82,82); fill: rgb(107,174,214); opacity: 0.667;" />
<path d="M 969.573,577.354 A 1064.250,1064.250 0.00 0,1 973.0,575.4 L 973.0,575.4 1009.6,638.9 1044.1,697.2 1076.7,750.8 1107.5,799.8 1136.5,844.4 1163.9,885.0 1189.7,921.6 1214.1,954.5 1237.1,983.8 1258.8,1009.7 1279.4,1032.4 1298.8,1051.9 1317.2,1068.5 1334.6,1082.1 1351.1,1092.8 1366.8,1100.8 1381.7,1106.0 1395.9,1108.6 1409.5,1108.5 1422.5,1105.7 1434.9,1100.3 1446.8,1092.1 1458.3,1081.2 1469.3,1067.5 1480.0,1051.0 1490.3,1031.4 1500.4,1008.8 1510.1,983.0 1519.6,954.0 1528.8,921.4 1537.8,885.2 1546.6,845.3 1555.2,801.3 1563.6,753.1 1571.8,700.5 1579.8,643.2 1587.7,581.0 1595.3,513.6 1602.8,440.7  A 1064.250,1064.250 0.00 0,0 1598.9,440.4 L 1598.9,440.4 1591.7,513.3 1584.3,580.7 1576.7,642.9 1568.9,700.2 1560.8,752.9 1552.6,801.1 1544.2,845.1 1535.5,885.1 1526.7,921.3 1517.6,953.9 1508.2,983.0 1498.6,1008.8 1488.6,1031.5 1478.4,1051.0 1467.8,1067.6 1456.8,1081.4 1445.3,1092.3 1433.4,1100.5 1421.0,1106.0 1408.1,1108.8 1394.5,1109.0 1380.3,1106.5 1365.3,1101.3 1349.6,1093.4 1333.0,1082.7 1315.6,1069.1 1297.1,1052.7 1277.6,1033.2 1257.0,1010.6 1235.2,984.8 1212.1,955.5 1187.6,922.7 1161.6,886.2 1134.1,845.8 1104.9,801.2 1074.0,752.4 1041.2,698.9 1006.4,640.7 969.6,577.4  Z" style="stroke-width: 2.0;  stroke: rgb(82,82,82); fill: rgb(253,141,60); opacity: 0.667;" />
<path d="M 969.573,577.354 A 1064.250,1064.250 0.00 0,1 973.0,575.4 L 973.0,575.4 1010.6,639.1 1048.0,698.3 1085.2,753.3 1122.0,804.4 1158.5,852.1 1194.5,896.5 1230.1,938.0 1265.2,976.9 1299.9,1013.5 1334.1,1048.0 1367.8,1080.6 1401.1,1111.6 1434.1,1141.1 1466.7,1169.4 1499.0,1196.7 1531.0,1223.1 1563.0,1248.8 1594.9,1273.9 1626.9,1298.5 1659.0,1322.8 1691.4,1346.8 1724.3,1370.6 1757.8,1394.3 1791.9,1417.9 1827.0,1441.5 1863.2,1465.0 1900.7,1488.6 1939.6,1512.1 1980.2,1535.6 2022.7,1559.1 2067.4,1582.4 2114.4,1605.5 2164.1,1628.4 2216.8,1650.8 2272.6,1672.8 2331.9,1694.2 2394.9,1714.9 2462.1,1734.7 2533.7,1753.4  A 1064.250,1064.250 0.00 0,0 2534.6,1749.6 L 2534.6,1749.6 2462.9,1731.2 2395.7,1711.7 2332.5,1691.2 2273.2,1670.0 2217.3,1648.2 2164.6,1626.0 2114.8,1603.3 2067.7,1580.3 2022.9,1557.2 1980.3,1533.9 1939.6,1510.5 1900.6,1487.1 1863.1,1463.7 1826.8,1440.3 1791.6,1416.8 1757.4,1393.3 1723.8,1369.8 1690.9,1346.1 1658.3,1322.2 1626.1,1298.0 1594.1,1273.5 1562.1,1248.6 1530.0,1223.0 1497.8,1196.7 1465.4,1169.6 1432.7,1141.4 1399.7,1111.9 1366.3,1081.1 1332.4,1048.6 1298.1,1014.3 1263.3,977.8 1228.0,939.0 1192.3,897.6 1156.1,853.3 1119.4,805.8 1082.4,754.8 1045.1,699.9 1007.4,640.9 969.6,577.4  Z" style="stroke-width: 2.0;  stroke: rgb(82,82,82); fill: rgb(255,0,0); opacity: 0.667;" />
<path d="M 969.573,577.354 A 1064.250,1064.250 0.00 0,1 973.0,575.4 L 973.0,575.4 1010.6,639.1 1048.1,698.4 1085.4,753.5 1122.4,804.8 1159.0,852.7 1195.3,897.5 1231.1,939.4 1266.4,978.7 1301.2,1015.7 1335.6,1050.8 1369.4,1084.0 1402.8,1115.7 1435.8,1146.0 1468.3,1175.2 1500.6,1203.4 1532.5,1230.8 1564.3,1257.6 1595.9,1283.9 1627.6,1309.8 1659.3,1335.5 1691.3,1361.0 1723.6,1386.4 1756.5,1411.9 1789.9,1437.4 1824.3,1463.0 1859.6,1488.8 1896.2,1514.6 1934.1,1540.7 1973.7,1566.8 2015.1,1593.1 2058.6,1619.4 2104.5,1645.7 2153.0,1671.9 2204.3,1698.0 2258.8,1723.8 2316.7,1749.3 2378.4,1774.2 2444.2,1798.5 2514.4,1822.0  A 1064.250,1064.250 0.00 0,0 2515.5,1818.5 L 2515.5,1818.5 2445.2,1795.2 2379.3,1771.2 2317.6,1746.5 2259.5,1721.2 2205.0,1695.6 2153.5,1669.7 2105.0,1643.6 2059.0,1617.5 2015.4,1591.3 1973.9,1565.2 1934.2,1539.2 1896.2,1513.3 1859.6,1487.5 1824.1,1461.9 1789.7,1436.4 1756.1,1411.0 1723.2,1385.7 1690.8,1360.3 1658.7,1334.9 1626.9,1309.4 1595.1,1283.5 1563.4,1257.4 1531.5,1230.7 1499.5,1203.4 1467.2,1175.3 1434.5,1146.2 1401.4,1116.0 1367.9,1084.5 1333.9,1051.4 1299.4,1016.5 1264.5,979.6 1229.0,940.4 1193.1,898.6 1156.7,854.0 1119.8,806.2 1082.7,755.0 1045.2,700.1 1007.4,640.9 969.6,577.4  Z" style="stroke-width: 2.0;  stroke: rgb(82,82,82); fill: rgb(255,0,204); opacity: 0.667;" />
<path d="M 969.573,577.354 A 1064.250,1064.250 0.00 0,1 973.0,575.4 L 973.0,575.4 1010.7,639.2 1048.5,698.8 1086.2,754.4 1123.8,806.5 1161.0,855.3 1197.8,901.2 1234.2,944.5 1270.0,985.4 1305.2,1024.3 1339.8,1061.3 1373.8,1096.8 1407.2,1131.0 1439.9,1164.1 1471.9,1196.3 1503.4,1227.9 1534.3,1258.9 1564.8,1289.6 1594.8,1320.1 1624.5,1350.6 1654.0,1381.2 1683.3,1412.0 1712.7,1443.2 1742.2,1474.7 1772.1,1506.8 1802.4,1539.5 1833.4,1572.7 1865.2,1606.6 1898.1,1641.2 1932.3,1676.5 1968.1,1712.5 2005.6,1749.2 2045.1,1786.5 2087.0,1824.5 2131.5,1863.0 2178.9,1902.0 2229.5,1941.4 2283.7,1981.2 2341.8,2021.2 2404.2,2061.3  A 1064.250,1064.250 0.00 0,0 2406.2,2058.0 L 2406.2,2058.0 2343.7,2018.1 2285.4,1978.4 2231.1,1938.8 2180.3,1899.5 2132.8,1860.7 2088.2,1822.3 2046.2,1784.5 2006.5,1747.3 1968.8,1710.8 1933.0,1674.9 1898.7,1639.8 1865.6,1605.3 1833.7,1571.5 1802.5,1538.3 1772.1,1505.8 1742.1,1473.9 1712.5,1442.4 1683.0,1411.4 1653.5,1380.6 1623.9,1350.1 1594.1,1319.8 1564.0,1289.3 1533.4,1258.8 1502.4,1227.8 1470.8,1196.4 1438.6,1164.3 1405.8,1131.4 1372.3,1097.3 1338.2,1061.9 1303.5,1025.0 1268.1,986.3 1232.1,945.5 1195.6,902.4 1158.6,856.6 1121.2,807.9 1083.5,756.0 1045.6,700.5 1007.6,641.1 969.6,577.4  Z" style="stroke-width: 2.0;  stroke: rgb(82,82,82); fill: rgb(255,204,204); opacity: 0.667;" />
<path d="M 969.573,577.354 A 1064.250,1064.250 0.00 0,1 973.0,575.4 L 973.0,575.4 1010.8,639.3 1048.7,699.0 1086.6,754.9 1124.3,807.3 1161.7,856.5 1198.7,902.9 1235.2,946.8 1271.2,988.3 1306.5,1028.0 1341.1,1065.9 1375.0,1102.3 1408.1,1137.5 1440.5,1171.7 1472.2,1205.1 1503.1,1238.0 1533.4,1270.4 1563.0,1302.7 1592.0,1334.8 1620.6,1367.1 1648.7,1399.6 1676.6,1432.4 1704.3,1465.8 1732.0,1499.7 1759.8,1534.2 1787.9,1569.5 1816.5,1605.6 1845.7,1642.5 1875.9,1680.4 1907.1,1719.1 1939.7,1758.8 1973.9,1799.4 2009.9,1840.9 2048.1,1883.3 2088.8,1926.5 2132.2,1970.5 2178.7,2015.3 2228.6,2060.8 2282.3,2106.8 2340.1,2153.3  A 1064.250,1064.250 0.00 0,0 2342.5,2150.3 L 2342.5,2150.3 2284.4,2104.0 2230.6,2058.2 2180.5,2012.9 2133.8,1968.3 2090.3,1924.4 2049.5,1881.3 2011.1,1839.0 1974.9,1797.7 1940.6,1757.2 1907.9,1717.6 1876.5,1679.0 1846.2,1641.3 1816.8,1604.5 1788.1,1568.5 1759.9,1533.3 1732.0,1498.8 1704.2,1465.0 1676.3,1431.8 1648.3,1399.1 1620.1,1366.7 1591.4,1334.5 1562.3,1302.4 1532.5,1270.3 1502.2,1238.0 1471.1,1205.3 1439.3,1171.9 1406.8,1137.9 1373.5,1102.8 1339.5,1066.5 1304.7,1028.7 1269.3,989.2 1233.2,947.7 1196.5,904.0 1159.3,857.8 1121.7,808.7 1083.8,756.4 1045.7,700.7 1007.6,641.1 969.6,577.4  Z" style="stroke-width: 2.0;  stroke: rgb(82,82,82); fill: rgb(255,153,0); opacity: 0.667;" />
<path d="M 969.573,577.354 A 1064.250,1064.250 0.00 0,1 973.0,575.4 L 973.0,575.4 1008.8,640.6 1041.0,704.0 1070.0,765.5 1096.3,825.3 1120.2,883.3 1142.0,939.5 1162.0,994.1 1180.6,1047.0 1198.0,1098.3 1214.5,1148.0 1230.3,1196.3 1245.7,1243.2 1260.9,1288.8 1276.1,1333.2 1291.4,1376.6 1307.0,1418.9 1323.1,1460.4 1339.8,1501.1 1357.2,1541.3 1375.4,1581.0 1394.4,1620.4 1414.3,1659.7 1435.1,1699.0 1456.9,1738.5 1479.7,1778.5 1503.3,1819.0 1527.9,1860.3 1553.3,1902.6 1579.5,1946.2 1606.3,1991.2 1633.8,2037.9 1661.6,2086.6 1689.8,2137.4 1718.1,2190.7 1746.3,2246.7 1774.3,2305.7 1801.9,2367.9 1828.7,2433.7 1854.6,2503.4  A 1064.250,1064.250 0.00 0,0 1858.3,2502.1 L 1858.3,2502.1 1832.2,2432.5 1805.1,2366.8 1777.3,2304.6 1749.1,2245.8 1720.6,2189.9 1692.1,2136.7 1663.8,2086.0 1635.7,2037.4 1608.1,1990.8 1581.1,1945.9 1554.8,1902.4 1529.2,1860.2 1504.5,1819.0 1480.7,1778.5 1457.8,1738.7 1435.8,1699.2 1414.9,1660.0 1394.8,1620.8 1375.7,1581.5 1357.4,1541.8 1339.8,1501.7 1323.0,1461.0 1306.7,1419.6 1290.9,1377.3 1275.4,1334.1 1260.1,1289.7 1244.8,1244.2 1229.2,1197.3 1213.2,1149.1 1196.5,1099.4 1178.9,1048.1 1160.2,995.3 1139.9,940.8 1117.9,884.7 1093.8,826.8 1067.3,767.1 1038.0,705.7 1005.6,642.4 969.6,577.4  Z" style="stroke-width: 2.0;  stroke: rgb(82,82,82); fill: rgb(255,204,0); opacity: 0.667;" />
<path d="M 969.573,577.354 A 1064.250,1064.250 0.00 0,1 973.0,575.4 L 973.0,575.4 1008.7,640.6 1041.0,703.9 1070.0,765.5 1096.3,825.2 1120.1,883.2 1141.9,939.4 1161.9,993.9 1180.4,1046.8 1197.7,1098.0 1214.2,1147.8 1229.9,1196.1 1245.2,1243.0 1260.3,1288.6 1275.4,1333.0 1290.6,1376.3 1306.1,1418.7 1322.1,1460.2 1338.6,1501.0 1355.8,1541.2 1373.8,1581.0 1392.6,1620.5 1412.2,1659.8 1432.8,1699.2 1454.4,1738.9 1476.8,1778.9 1500.2,1819.6 1524.5,1861.1 1549.5,1903.6 1575.4,1947.3 1601.8,1992.5 1628.8,2039.4 1656.2,2088.2 1683.9,2139.3 1711.7,2192.8 1739.5,2249.0 1766.9,2308.2 1793.9,2370.7 1820.1,2436.7 1845.4,2506.6  A 1064.250,1064.250 0.00 0,0 1849.0,2505.4 L 1849.0,2505.4 1823.5,2435.6 1797.0,2369.6 1769.8,2307.2 1742.2,2248.1 1714.2,2192.0 1686.2,2138.6 1658.4,2087.7 1630.8,2038.9 1603.6,1992.1 1576.9,1947.0 1551.0,1903.4 1525.8,1861.0 1501.4,1819.6 1477.8,1779.0 1455.2,1739.1 1433.6,1699.5 1412.8,1660.2 1393.0,1620.9 1374.0,1581.4 1355.9,1541.7 1338.6,1501.6 1321.9,1460.9 1305.8,1419.4 1290.1,1377.1 1274.8,1333.8 1259.5,1289.5 1244.3,1243.9 1228.8,1197.1 1212.9,1148.8 1196.3,1099.2 1178.7,1048.0 1160.0,995.2 1139.8,940.7 1117.9,884.6 1093.8,826.7 1067.3,767.1 1038.0,705.6 1005.6,642.4 969.6,577.4  Z" style="stroke-width: 2.0;  stroke: rgb(82,82,82); fill: rgb(255,255,0); opacity: 0.667;" />
<path d="M 969.573,577.354 A 1064.250,1064.250 0.00 0,1 973.0,575.4 L 973.0,575.4 1008.6,640.1 1040.4,702.1 1068.7,761.5 1093.7,818.5 1115.9,873.3 1135.3,925.9 1152.4,976.6 1167.2,1025.4 1180.1,1072.5 1191.3,1118.1 1200.8,1162.4 1208.9,1205.3 1215.8,1247.2 1221.5,1288.1 1226.1,1328.2 1229.8,1367.7 1232.6,1406.6 1234.5,1445.2 1235.7,1483.5 1236.1,1521.8 1235.7,1560.2 1234.5,1598.8 1232.5,1637.8 1229.7,1677.4 1225.8,1717.5 1221.0,1758.6 1215.0,1800.6 1207.8,1843.7 1199.1,1888.1 1188.9,1933.9 1177.0,1981.3 1163.1,2030.4 1147.1,2081.4 1128.8,2134.4 1107.8,2189.6 1083.9,2247.1 1056.8,2307.1 1026.3,2369.8 992.0,2435.2  A 1064.250,1064.250 0.00 0,0 995.4,2437.0 L 995.4,2437.0 1029.5,2371.5 1059.8,2308.8 1086.6,2248.7 1110.3,2191.1 1131.1,2135.8 1149.3,2082.7 1165.1,2031.6 1178.8,1982.5 1190.5,1935.0 1200.6,1889.2 1209.0,1844.8 1216.1,1801.6 1222.0,1759.6 1226.6,1718.6 1230.3,1678.3 1233.0,1638.8 1234.9,1599.8 1235.9,1561.2 1236.1,1522.8 1235.6,1484.5 1234.3,1446.2 1232.2,1407.6 1229.3,1368.7 1225.5,1329.2 1220.7,1289.1 1214.8,1248.2 1207.9,1206.4 1199.6,1163.5 1189.9,1119.3 1178.6,1073.7 1165.5,1026.6 1150.4,977.9 1133.2,927.3 1113.6,874.7 1091.2,820.0 1066.0,763.1 1037.5,703.8 1005.5,641.9 969.6,577.4  Z" style="stroke-width: 2.0;  stroke: rgb(82,82,82); fill: rgb(204,255,0); opacity: 0.667;" />
<path d="M 1239.329,2531.833 A 1064.250,1064.250 0.00 0,1 1236.0,2531.0 L 1236.0,2531.0 1254.2,2460.1 1271.0,2394.6 1286.6,2334.2 1301.0,2278.7 1314.2,2227.8 1326.4,2181.4 1337.5,2139.1 1347.6,2100.9 1356.8,2066.5 1365.1,2035.7 1372.5,2008.5 1379.1,1984.7 1384.9,1964.1 1390.0,1946.7 1394.3,1932.3 1397.9,1921.0 1400.8,1912.6 1403.0,1907.1 1404.5,1904.4 1405.3,1904.6 1405.5,1907.6 1405.0,1913.6 1403.8,1922.4 1402.0,1934.1 1399.5,1948.9 1396.2,1966.7 1392.3,1987.7 1387.5,2012.0 1382.1,2039.7 1375.8,2070.9 1368.7,2105.8 1360.7,2144.6 1351.8,2187.4 1342.0,2234.4 1331.2,2285.8 1319.4,2341.9 1306.4,2402.9 1292.3,2469.0 1277.0,2540.6  A 1064.250,1064.250 0.00 0,0 1280.3,2541.3 L 1280.3,2541.3 1295.4,2469.7 1309.3,2403.5 1322.1,2342.5 1333.7,2286.3 1344.4,2234.9 1354.1,2187.8 1362.8,2145.0 1370.6,2106.3 1377.6,2071.3 1383.8,2040.1 1389.2,2012.4 1393.8,1988.1 1397.7,1967.1 1400.9,1949.2 1403.4,1934.4 1405.2,1922.7 1406.3,1913.9 1406.8,1908.0 1406.6,1904.9 1405.8,1904.7 1404.3,1907.4 1402.1,1912.9 1399.2,1921.3 1395.7,1932.7 1391.4,1947.0 1386.4,1964.5 1380.7,1985.1 1374.2,2008.9 1366.8,2036.2 1358.6,2066.9 1349.6,2101.4 1339.6,2139.6 1328.6,2181.9 1316.6,2228.4 1303.5,2279.3 1289.3,2334.9 1273.9,2395.3 1257.3,2460.9 1239.3,2531.8  Z" style="stroke-width: 2.0;  stroke: rgb(82,82,82); fill: rgb(0,255,0); opacity: 0.667;" />
<path d="M 1228.243,2528.968 A 1064.250,1064.250 0.00 0,1 1224.9,2528.1 L 1224.9,2528.1 1243.9,2457.4 1261.5,2392.1 1277.7,2331.9 1292.7,2276.5 1306.6,2225.8 1319.3,2179.5 1330.9,2137.4 1341.6,2099.3 1351.2,2065.0 1359.9,2034.4 1367.8,2007.3 1374.8,1983.5 1380.9,1963.1 1386.3,1945.7 1391.0,1931.5 1394.8,1920.2 1398.0,1911.9 1400.4,1906.4 1402.2,1903.8 1403.3,1904.1 1403.7,1907.2 1403.4,1913.2 1402.4,1922.0 1400.7,1933.8 1398.3,1948.6 1395.3,1966.5 1391.4,1987.5 1386.8,2011.9 1381.5,2039.6 1375.3,2070.8 1368.3,2105.7 1360.4,2144.5 1351.6,2187.3 1341.9,2234.3 1331.1,2285.8 1319.3,2341.9 1306.4,2402.9 1292.3,2469.0 1277.0,2540.6  A 1064.250,1064.250 0.00 0,0 1280.3,2541.3 L 1280.3,2541.3 1295.4,2469.7 1309.3,2403.5 1322.0,2342.5 1333.6,2286.3 1344.2,2234.8 1353.8,2187.8 1362.5,2145.0 1370.3,2106.2 1377.2,2071.2 1383.2,2040.0 1388.5,2012.2 1393.0,1987.9 1396.8,1966.8 1399.8,1948.9 1402.1,1934.1 1403.8,1922.3 1404.7,1913.5 1405.0,1907.5 1404.6,1904.4 1403.5,1904.1 1401.8,1906.7 1399.3,1912.2 1396.2,1920.5 1392.3,1931.8 1387.8,1946.1 1382.4,1963.4 1376.3,1983.9 1369.4,2007.7 1361.7,2034.8 1353.0,2065.5 1343.5,2099.8 1333.0,2137.9 1321.5,2180.1 1308.9,2226.4 1295.2,2277.2 1280.4,2332.6 1264.3,2392.8 1247.0,2458.2 1228.2,2529.0  Z" style="stroke-width: 2.0;  stroke: rgb(82,82,82); fill: rgb(53,128,0); opacity: 0.667;" />
<path d="M 1228.243,2528.968 A 1064.250,1064.250 0.00 0,1 1224.9,2528.1 L 1224.9,2528.1 1243.9,2457.4 1261.4,2392.0 1277.5,2331.8 1292.4,2276.4 1306.0,2225.7 1318.5,2179.3 1329.9,2137.1 1340.2,2099.0 1349.5,2064.6 1357.8,2033.9 1365.2,2006.6 1371.7,1982.8 1377.4,1962.2 1382.2,1944.7 1386.2,1930.3 1389.5,1918.9 1391.9,1910.4 1393.7,1904.8 1394.6,1902.0 1394.9,1902.1 1394.3,1905.0 1393.1,1910.7 1391.1,1919.3 1388.3,1930.9 1384.8,1945.4 1380.4,1963.0 1375.3,1983.7 1369.2,2007.7 1362.4,2035.1 1354.6,2065.9 1345.8,2100.4 1336.1,2138.8 1325.4,2181.1 1313.5,2227.6 1300.5,2278.6 1286.3,2334.1 1270.9,2394.5 1254.1,2460.1 1236.0,2531.0  A 1064.250,1064.250 0.00 0,0 1239.3,2531.8 L 1239.3,2531.8 1257.3,2460.9 1273.8,2395.3 1289.0,2334.8 1303.0,2279.2 1315.9,2228.2 1327.6,2181.7 1338.2,2139.3 1347.8,2100.9 1356.4,2066.4 1364.1,2035.5 1370.9,2008.1 1376.8,1984.1 1381.9,1963.4 1386.2,1945.8 1389.7,1931.2 1392.4,1919.7 1394.4,1911.0 1395.7,1905.3 1396.2,1902.4 1395.9,1902.3 1395.0,1905.1 1393.3,1910.7 1390.8,1919.3 1387.6,1930.7 1383.6,1945.1 1378.9,1962.6 1373.3,1983.2 1366.8,2007.1 1359.5,2034.3 1351.3,2065.1 1342.1,2099.5 1331.9,2137.7 1320.7,2179.9 1308.3,2226.3 1294.9,2277.1 1280.2,2332.5 1264.2,2392.8 1246.9,2458.2 1228.2,2529.0  Z" style="stroke-width: 2.0;  stroke: rgb(82,82,82); fill: rgb(0,0,204); opacity: 0.667;" />
<path d="M 2528.702,1772.764 A 1064.250,1064.250 0.00 0,1 2525.7,1784.0 L 2525.7,1784.0 2454.9,1763.4 2389.0,1742.2 2327.7,1720.6 2270.7,1698.6 2217.6,1676.2 2168.1,1653.6 2122.1,1630.6 2079.1,1607.5 2039.1,1584.1 2001.7,1560.5 1966.8,1536.7 1934.0,1512.6 1903.4,1488.3 1874.5,1463.6 1847.4,1438.6 1821.9,1413.3 1797.7,1387.4 1774.9,1361.0 1753.2,1334.0 1732.7,1306.2 1713.1,1277.6 1694.6,1248.1 1676.9,1217.5 1660.1,1185.6 1644.1,1152.4 1628.9,1117.6 1614.6,1081.2 1601.1,1042.9 1588.5,1002.5 1576.9,959.8 1566.2,914.7 1556.5,866.9 1548.0,816.1 1540.8,762.2 1534.9,704.9 1530.5,643.9 1527.7,579.0 1526.7,509.8 1527.6,436.1  A 1064.250,1064.250 0.00 0,0 1516.0,435.9 L 1516.0,435.9 1515.9,509.6 1517.7,578.7 1521.2,643.6 1526.2,704.6 1532.8,761.8 1540.6,815.7 1549.6,866.3 1559.8,914.0 1571.0,959.0 1583.1,1001.5 1596.1,1041.8 1610.0,1080.0 1624.7,1116.2 1640.3,1150.8 1656.6,1183.9 1673.8,1215.5 1691.8,1246.0 1710.7,1275.3 1730.6,1303.7 1751.4,1331.2 1773.3,1358.0 1796.5,1384.2 1820.9,1409.8 1846.7,1434.9 1874.1,1459.5 1903.2,1483.9 1934.1,1507.8 1967.1,1531.6 2002.3,1555.0 2040.0,1578.2 2080.3,1601.2 2123.5,1623.8 2169.8,1646.3 2219.4,1668.4 2272.8,1690.2 2330.1,1711.6 2391.6,1732.5 2457.7,1752.9 2528.7,1772.8  Z" style="stroke-width: 2.0;  stroke: rgb(82,82,82); fill: rgb(102,153,255); opacity: 0.667;" />
</g>
<defs>
<pattern id="hline-sparse" width="10" height="10" patternTransform="rotate(0 0 0)" patternUnits="userSpaceOnUse"><line x1="0" y1="0" x2="10" y2="0" style="stroke:black;stroke-width:2" /></pattern>
<pattern id="checker" width="10" height="10" patternTransform="rotate(45 0 0)" patternUnits="userSpaceOnUse"><line x1="0" y1="0" x2="10" y2="0" style="stroke:black;stroke-width:2" /><line x1="0" y1="0" x2="0" y2="10" style="stroke:black;stroke-width:2" /></pattern>
<pattern id="checker" width="10" height="10" patternTransform="rotate(45 0 0)" patternUnits="userSpaceOnUse"><line x1="0" y1="0" x2="10" y2="0" style="stroke:black;stroke-width:5" /><line x1="0" y1="0" x2="0" y2="10" style="stroke:black;stroke-width:4" /></pattern>
<pattern id="hline" width="10" height="10" patternTransform="rotate(0 0 0)" patternUnits="userSpaceOnUse"><line x1="0" y1="0" x2="10" y2="0" style="stroke:black;stroke-width:5" /></pattern>
<pattern id="vline-sparse" width="10" height="10" patternTransform="rotate(0 0 0)" patternUnits="userSpaceOnUse"><line x1="0" y1="0" x2="0" y2="10" style="stroke:black;stroke-width:2" /></pattern>
<pattern id="vline" width="10" height="10" patternTransform="rotate(0 0 0)" patternUnits="userSpaceOnUse"><line x1="0" y1="0" x2="0" y2="10" style="stroke:black;stroke-width:5" /></pattern>
</defs>
</svg>
