<?xml version="1.0" encoding="utf-8" standalone="no"?>
<!DOCTYPE svg PUBLIC "-//W3C//DTD SVG 1.1//EN" "http://www.w3.org/Graphics/SVG/1.1/DTD/svg11.dtd">
<svg width="3000px" height="3000px" version="1.1" xmlns="http://www.w3.org/2000/svg" xmlns:xlink="http://www.w3.org/1999/xlink">
<g id="ideograms">
<path d="M1500.000,425.000 A1075.000,1075.000 40.000 0,1 1565.240,426.981 L1568.274,377.074 A1125.000,1125.000 0.000 0,0 1500.000,375.000 Z" style="stroke-linecap:round;fill:rgb(116,196,118);fill-opacity:0.33;" />
<text x="1546.4" y="285.9" font-size="18.2px" font-family="CMUBright-Roman" style="text-anchor:start;fill:rgb(0,0,0);" transform="rotate(271.7,1546.4,285.9)" >R<tspan baseline-shift="-40%" font-size="90%">s</tspan>caffold<tspan baseline-shift="-40%" font-size="90%">3</tspan>0</text>
<line x1='1500.0' y1='375.0' x2='1500.0' y2='355.0' style="stroke-width:4.0;stroke:rgb(0,0,0);stroke-linecap:round;fill:none;" />
<text x="1506.5" y="345.0" font-size="18.2px" font-family="CMUBright-Roman" style="text-anchor:start;fill:rgb(0,0,0);" transform="rotate(270.0,1506.5,345.0)" >0</text>
<g id="highlighttrack_0">
<path d="M1516.609,425.128 A1075.000,1075.000 40.000 0,1 1519.684,425.180 L1520.600,375.189 A1125.000,1125.000 0.000 0,0 1517.381,375.134 Z" style="stroke-width:4.0;stroke:rgb(0,0,0);stroke-linecap:round;fill:rgb(116,196,118);" />
</g>
<path d="M1630.534,432.955 A1075.000,1075.000 40.000 0,1 1634.815,433.487 L1641.085,383.882 A1125.000,1125.000 0.000 0,0 1636.605,383.325 Z" style="stroke-linecap:round;fill:rgb(116,196,118);fill-opacity:0.33;" />
<text x="1659.4" y="295.5" font-size="18.2px" font-family="CMUBright-Roman" style="text-anchor:start;fill:rgb(0,0,0);" transform="rotate(277.1,1659.4,295.5)" >R<tspan baseline-shift="-40%" font-size="90%">s</tspan>caffold<tspan baseline-shift="-40%" font-size="90%">3</tspan>7</text>
<line x1='1636.6' y1='383.3' x2='1639.0' y2='363.5' style="stroke-width:4.0;stroke:rgb(0,0,0);stroke-linecap:round;fill:none;" />
<text x="1646.7" y="354.4" font-size="18.2px" font-family="CMUBright-Roman" style="text-anchor:start;fill:rgb(0,0,0);" transform="rotate(277.0,1646.7,354.4)" >0</text>
<g id="highlighttrack_0">
<path d="M1630.796,432.987 A1075.000,1075.000 40.000 0,1 1634.815,433.487 L1641.085,383.882 A1125.000,1125.000 0.000 0,0 1636.879,383.358 Z" style="stroke-width:4.0;stroke:rgb(0,0,0);stroke-linecap:round;fill:rgb(251,106,74);" />
</g>
<path d="M1699.583,443.690 A1075.000,1075.000 40.000 1,1 1434.464,427.000 L1431.416,377.093 A1125.000,1125.000 0.000 1,0 1708.866,394.559 Z" style="stroke-linecap:round;fill:rgb(116,196,118);fill-opacity:0.33;" />
<text x="1433.1" y="2713.2" font-size="18.2px" font-family="CMUBright-Roman" style="text-anchor:end;fill:rgb(0,0,0);" transform="rotate(-86.4,1433.1,2713.2)" >NZ<tspan baseline-shift="-40%" font-size="90%">C</tspan>P041036.1</text>
<line x1='1708.9' y1='394.6' x2='1712.6' y2='374.9' style="stroke-width:4.0;stroke:rgb(0,0,0);stroke-linecap:round;fill:none;" />
<text x="1720.8" y="366.3" font-size="18.2px" font-family="CMUBright-Roman" style="text-anchor:start;fill:rgb(0,0,0);" transform="rotate(280.7,1720.8,366.3)" >0</text>
<line x1='1780.1' y1='410.4' x2='1785.1' y2='391.1' style="stroke-width:4.0;stroke:rgb(0,0,0);stroke-linecap:round;fill:none;" />
<text x="1793.9" y="383.0" font-size="18.2px" font-family="CMUBright-Roman" style="text-anchor:start;fill:rgb(0,0,0);" transform="rotate(284.4,1793.9,383.0)" >50</text>
<line x1='1850.2' y1='430.9' x2='1856.5' y2='411.9' style="stroke-width:4.0;stroke:rgb(0,0,0);stroke-linecap:round;fill:none;" />
<text x="1865.7" y="404.4" font-size="18.2px" font-family="CMUBright-Roman" style="text-anchor:start;fill:rgb(0,0,0);" transform="rotate(288.1,1865.7,404.4)" >100</text>
<line x1='1918.8' y1='455.9' x2='1926.3' y2='437.3' style="stroke-width:4.0;stroke:rgb(0,0,0);stroke-linecap:round;fill:none;" />
<text x="1936.0" y="430.5" font-size="18.2px" font-family="CMUBright-Roman" style="text-anchor:start;fill:rgb(0,0,0);" transform="rotate(291.9,1936.0,430.5)" >150</text>
<line x1='1985.7' y1='485.2' x2='1994.3' y2='467.2' style="stroke-width:4.0;stroke:rgb(0,0,0);stroke-linecap:round;fill:none;" />
<text x="2004.5" y="461.0" font-size="18.2px" font-family="CMUBright-Roman" style="text-anchor:start;fill:rgb(0,0,0);" transform="rotate(295.6,2004.5,461.0)" >200</text>
<line x1='2050.5' y1='518.9' x2='2060.3' y2='501.5' style="stroke-width:4.0;stroke:rgb(0,0,0);stroke-linecap:round;fill:none;" />
<text x="2070.8" y="495.9" font-size="18.2px" font-family="CMUBright-Roman" style="text-anchor:start;fill:rgb(0,0,0);" transform="rotate(299.3,2070.8,495.9)" >250</text>
<line x1='2113.0' y1='556.7' x2='2123.9' y2='539.9' style="stroke-width:4.0;stroke:rgb(0,0,0);stroke-linecap:round;fill:none;" />
<text x="2134.8" y="535.1" font-size="18.2px" font-family="CMUBright-Roman" style="text-anchor:start;fill:rgb(0,0,0);" transform="rotate(303.0,2134.8,535.1)" >300</text>
<line x1='2172.9' y1='598.4' x2='2184.9' y2='582.4' style="stroke-width:4.0;stroke:rgb(0,0,0);stroke-linecap:round;fill:none;" />
<text x="2196.0" y="578.3" font-size="18.2px" font-family="CMUBright-Roman" style="text-anchor:start;fill:rgb(0,0,0);" transform="rotate(306.7,2196.0,578.3)" >350</text>
<line x1='2230.0' y1='644.0' x2='2242.9' y2='628.8' style="stroke-width:4.0;stroke:rgb(0,0,0);stroke-linecap:round;fill:none;" />
<text x="2254.4" y="625.4" font-size="18.2px" font-family="CMUBright-Roman" style="text-anchor:start;fill:rgb(0,0,0);" transform="rotate(310.5,2254.4,625.4)" >400</text>
<line x1='2284.0' y1='693.1' x2='2297.9' y2='678.8' style="stroke-width:4.0;stroke:rgb(0,0,0);stroke-linecap:round;fill:none;" />
<text x="2309.5" y="676.2" font-size="18.2px" font-family="CMUBright-Roman" style="text-anchor:start;fill:rgb(0,0,0);" transform="rotate(314.2,2309.5,676.2)" >450</text>
<line x1='2334.7' y1='745.7' x2='2349.5' y2='732.3' style="stroke-width:4.0;stroke:rgb(0,0,0);stroke-linecap:round;fill:none;" />
<text x="2361.3" y="730.4" font-size="18.2px" font-family="CMUBright-Roman" style="text-anchor:start;fill:rgb(0,0,0);" transform="rotate(317.9,2361.3,730.4)" >500</text>
<line x1='2381.8' y1='801.4' x2='2397.5' y2='789.0' style="stroke-width:4.0;stroke:rgb(0,0,0);stroke-linecap:round;fill:none;" />
<text x="2409.4" y="787.9" font-size="18.2px" font-family="CMUBright-Roman" style="text-anchor:start;fill:rgb(0,0,0);" transform="rotate(321.6,2409.4,787.9)" >550</text>
<line x1='2425.3' y1='860.1' x2='2441.7' y2='848.7' style="stroke-width:4.0;stroke:rgb(0,0,0);stroke-linecap:round;fill:none;" />
<text x="2453.6" y="848.4" font-size="18.2px" font-family="CMUBright-Roman" style="text-anchor:start;fill:rgb(0,0,0);" transform="rotate(325.3,2453.6,848.4)" >600</text>
<line x1='2464.9' y1='921.5' x2='2482.0' y2='911.2' style="stroke-width:4.0;stroke:rgb(0,0,0);stroke-linecap:round;fill:none;" />
<text x="2493.9" y="911.6" font-size="18.2px" font-family="CMUBright-Roman" style="text-anchor:start;fill:rgb(0,0,0);" transform="rotate(329.1,2493.9,911.6)" >650</text>
<line x1='2500.3' y1='985.3' x2='2518.1' y2='976.1' style="stroke-width:4.0;stroke:rgb(0,0,0);stroke-linecap:round;fill:none;" />
<text x="2530.0" y="977.3" font-size="18.2px" font-family="CMUBright-Roman" style="text-anchor:start;fill:rgb(0,0,0);" transform="rotate(332.8,2530.0,977.3)" >700</text>
<line x1='2531.6' y1='1051.3' x2='2550.0' y2='1043.3' style="stroke-width:4.0;stroke:rgb(0,0,0);stroke-linecap:round;fill:none;" />
<text x="2561.7" y="1045.3" font-size="18.2px" font-family="CMUBright-Roman" style="text-anchor:start;fill:rgb(0,0,0);" transform="rotate(336.5,2561.7,1045.3)" >750</text>
<line x1='2558.6' y1='1119.1' x2='2577.4' y2='1112.4' style="stroke-width:4.0;stroke:rgb(0,0,0);stroke-linecap:round;fill:none;" />
<text x="2589.0" y="1115.1" font-size="18.2px" font-family="CMUBright-Roman" style="text-anchor:start;fill:rgb(0,0,0);" transform="rotate(340.2,2589.0,1115.1)" >800</text>
<line x1='2581.0' y1='1188.6' x2='2600.3' y2='1183.1' style="stroke-width:4.0;stroke:rgb(0,0,0);stroke-linecap:round;fill:none;" />
<text x="2611.7" y="1186.6" font-size="18.2px" font-family="CMUBright-Roman" style="text-anchor:start;fill:rgb(0,0,0);" transform="rotate(343.9,2611.7,1186.6)" >850</text>
<line x1='2599.0' y1='1259.4' x2='2618.5' y2='1255.1' style="stroke-width:4.0;stroke:rgb(0,0,0);stroke-linecap:round;fill:none;" />
<text x="2629.6" y="1259.3" font-size="18.2px" font-family="CMUBright-Roman" style="text-anchor:start;fill:rgb(0,0,0);" transform="rotate(347.7,2629.6,1259.3)" >900</text>
<line x1='2612.3' y1='1331.2' x2='2632.0' y2='1328.2' style="stroke-width:4.0;stroke:rgb(0,0,0);stroke-linecap:round;fill:none;" />
<text x="2642.9" y="1333.1" font-size="18.2px" font-family="CMUBright-Roman" style="text-anchor:start;fill:rgb(0,0,0);" transform="rotate(351.4,2642.9,1333.1)" >950</text>
<line x1='2620.9' y1='1403.7' x2='2640.8' y2='1402.0' style="stroke-width:4.0;stroke:rgb(0,0,0);stroke-linecap:round;fill:none;" />
<text x="2651.3" y="1407.6" font-size="18.2px" font-family="CMUBright-Roman" style="text-anchor:start;fill:rgb(0,0,0);" transform="rotate(355.1,2651.3,1407.6)" >1000</text>
<line x1='2624.8' y1='1476.6' x2='2644.8' y2='1476.2' style="stroke-width:4.0;stroke:rgb(0,0,0);stroke-linecap:round;fill:none;" />
<text x="2654.9" y="1482.5" font-size="18.2px" font-family="CMUBright-Roman" style="text-anchor:start;fill:rgb(0,0,0);" transform="rotate(358.8,2654.9,1482.5)" >1050</text>
<line x1='2623.9' y1='1549.6' x2='2643.9' y2='1550.5' style="stroke-width:4.0;stroke:rgb(0,0,0);stroke-linecap:round;fill:none;" />
<text x="2653.6" y="1557.5" font-size="18.2px" font-family="CMUBright-Roman" style="text-anchor:start;fill:rgb(0,0,0);" transform="rotate(2.5,2653.6,1557.5)" >1100</text>
<line x1='2618.3' y1='1622.4' x2='2638.2' y2='1624.6' style="stroke-width:4.0;stroke:rgb(0,0,0);stroke-linecap:round;fill:none;" />
<text x="2647.4" y="1632.2" font-size="18.2px" font-family="CMUBright-Roman" style="text-anchor:start;fill:rgb(0,0,0);" transform="rotate(6.2,2647.4,1632.2)" >1150</text>
<line x1='2608.0' y1='1694.7' x2='2627.7' y2='1698.2' style="stroke-width:4.0;stroke:rgb(0,0,0);stroke-linecap:round;fill:none;" />
<text x="2636.4" y="1706.3" font-size="18.2px" font-family="CMUBright-Roman" style="text-anchor:start;fill:rgb(0,0,0);" transform="rotate(10.0,2636.4,1706.3)" >1200</text>
<line x1='2593.1' y1='1766.2' x2='2612.5' y2='1770.9' style="stroke-width:4.0;stroke:rgb(0,0,0);stroke-linecap:round;fill:none;" />
<text x="2620.6" y="1779.6" font-size="18.2px" font-family="CMUBright-Roman" style="text-anchor:start;fill:rgb(0,0,0);" transform="rotate(13.7,2620.6,1779.6)" >1250</text>
<line x1='2573.5' y1='1836.5' x2='2592.6' y2='1842.5' style="stroke-width:4.0;stroke:rgb(0,0,0);stroke-linecap:round;fill:none;" />
<text x="2600.1" y="1851.7" font-size="18.2px" font-family="CMUBright-Roman" style="text-anchor:start;fill:rgb(0,0,0);" transform="rotate(17.4,2600.1,1851.7)" >1300</text>
<line x1='2549.4' y1='1905.5' x2='2568.0' y2='1912.7' style="stroke-width:4.0;stroke:rgb(0,0,0);stroke-linecap:round;fill:none;" />
<text x="2575.0" y="1922.3" font-size="18.2px" font-family="CMUBright-Roman" style="text-anchor:start;fill:rgb(0,0,0);" transform="rotate(21.1,2575.0,1922.3)" >1350</text>
<line x1='2520.9' y1='1972.7' x2='2539.0' y2='1981.1' style="stroke-width:4.0;stroke:rgb(0,0,0);stroke-linecap:round;fill:none;" />
<text x="2545.3" y="1991.2" font-size="18.2px" font-family="CMUBright-Roman" style="text-anchor:start;fill:rgb(0,0,0);" transform="rotate(24.8,2545.3,1991.2)" >1400</text>
<line x1='2488.1' y1='2037.9' x2='2505.6' y2='2047.5' style="stroke-width:4.0;stroke:rgb(0,0,0);stroke-linecap:round;fill:none;" />
<text x="2511.3" y="2058.0" font-size="18.2px" font-family="CMUBright-Roman" style="text-anchor:start;fill:rgb(0,0,0);" transform="rotate(28.6,2511.3,2058.0)" >1450</text>
<line x1='2451.1' y1='2100.9' x2='2468.0' y2='2111.6' style="stroke-width:4.0;stroke:rgb(0,0,0);stroke-linecap:round;fill:none;" />
<text x="2473.0" y="2122.4" font-size="18.2px" font-family="CMUBright-Roman" style="text-anchor:start;fill:rgb(0,0,0);" transform="rotate(32.3,2473.0,2122.4)" >1500</text>
<line x1='2410.1' y1='2161.3' x2='2426.3' y2='2173.1' style="stroke-width:4.0;stroke:rgb(0,0,0);stroke-linecap:round;fill:none;" />
<text x="2430.5" y="2184.2" font-size="18.2px" font-family="CMUBright-Roman" style="text-anchor:start;fill:rgb(0,0,0);" transform="rotate(36.0,2430.5,2184.2)" >1550</text>
<line x1='2365.3' y1='2219.0' x2='2380.7' y2='2231.8' style="stroke-width:4.0;stroke:rgb(0,0,0);stroke-linecap:round;fill:none;" />
<text x="2384.2" y="2243.1" font-size="18.2px" font-family="CMUBright-Roman" style="text-anchor:start;fill:rgb(0,0,0);" transform="rotate(39.7,2384.2,2243.1)" >1600</text>
<line x1='2316.8' y1='2273.6' x2='2331.3' y2='2287.3' style="stroke-width:4.0;stroke:rgb(0,0,0);stroke-linecap:round;fill:none;" />
<text x="2334.1" y="2298.9" font-size="18.2px" font-family="CMUBright-Roman" style="text-anchor:start;fill:rgb(0,0,0);" transform="rotate(43.4,2334.1,2298.9)" >1650</text>
<line x1='2264.9' y1='2324.9' x2='2278.5' y2='2339.6' style="stroke-width:4.0;stroke:rgb(0,0,0);stroke-linecap:round;fill:none;" />
<text x="2280.5" y="2351.4" font-size="18.2px" font-family="CMUBright-Roman" style="text-anchor:start;fill:rgb(0,0,0);" transform="rotate(47.2,2280.5,2351.4)" >1700</text>
<line x1='2209.8' y1='2372.8' x2='2222.4' y2='2388.3' style="stroke-width:4.0;stroke:rgb(0,0,0);stroke-linecap:round;fill:none;" />
<text x="2223.7" y="2400.2" font-size="18.2px" font-family="CMUBright-Roman" style="text-anchor:start;fill:rgb(0,0,0);" transform="rotate(50.9,2223.7,2400.2)" >1750</text>
<line x1='2151.7' y1='2417.0' x2='2163.2' y2='2433.3' style="stroke-width:4.0;stroke:rgb(0,0,0);stroke-linecap:round;fill:none;" />
<text x="2163.7" y="2445.2" font-size="18.2px" font-family="CMUBright-Roman" style="text-anchor:start;fill:rgb(0,0,0);" transform="rotate(54.6,2163.7,2445.2)" >1800</text>
<line x1='2090.8' y1='2457.4' x2='2101.3' y2='2474.4' style="stroke-width:4.0;stroke:rgb(0,0,0);stroke-linecap:round;fill:none;" />
<text x="2101.0" y="2486.3" font-size="18.2px" font-family="CMUBright-Roman" style="text-anchor:start;fill:rgb(0,0,0);" transform="rotate(58.3,2101.0,2486.3)" >1850</text>
<line x1='2027.4' y1='2493.7' x2='2036.8' y2='2511.4' style="stroke-width:4.0;stroke:rgb(0,0,0);stroke-linecap:round;fill:none;" />
<text x="2035.8" y="2523.2" font-size="18.2px" font-family="CMUBright-Roman" style="text-anchor:start;fill:rgb(0,0,0);" transform="rotate(62.0,2035.8,2523.2)" >1900</text>
<line x1='1961.9' y1='2525.8' x2='1970.1' y2='2544.1' style="stroke-width:4.0;stroke:rgb(0,0,0);stroke-linecap:round;fill:none;" />
<text x="1968.3" y="2555.8" font-size="18.2px" font-family="CMUBright-Roman" style="text-anchor:start;fill:rgb(0,0,0);" transform="rotate(65.8,1968.3,2555.8)" >1950</text>
<line x1='1894.4' y1='2553.6' x2='1901.4' y2='2572.3' style="stroke-width:4.0;stroke:rgb(0,0,0);stroke-linecap:round;fill:none;" />
<text x="1898.8" y="2584.0" font-size="18.2px" font-family="CMUBright-Roman" style="text-anchor:start;fill:rgb(0,0,0);" transform="rotate(69.5,1898.8,2584.0)" >2000</text>
<line x1='1825.2' y1='2577.0' x2='1831.0' y2='2596.1' style="stroke-width:4.0;stroke:rgb(0,0,0);stroke-linecap:round;fill:none;" />
<text x="1827.6" y="2607.6" font-size="18.2px" font-family="CMUBright-Roman" style="text-anchor:start;fill:rgb(0,0,0);" transform="rotate(73.2,1827.6,2607.6)" >2050</text>
<line x1='1754.6' y1='2595.8' x2='1759.1' y2='2615.3' style="stroke-width:4.0;stroke:rgb(0,0,0);stroke-linecap:round;fill:none;" />
<text x="1755.1" y="2626.5" font-size="18.2px" font-family="CMUBright-Roman" style="text-anchor:start;fill:rgb(0,0,0);" transform="rotate(76.9,1755.1,2626.5)" >2100</text>
<line x1='1683.0' y1='2610.0' x2='1686.3' y2='2629.7' style="stroke-width:4.0;stroke:rgb(0,0,0);stroke-linecap:round;fill:none;" />
<text x="1681.5" y="2640.7" font-size="18.2px" font-family="CMUBright-Roman" style="text-anchor:start;fill:rgb(0,0,0);" transform="rotate(80.6,1681.5,2640.7)" >2150</text>
<line x1='1610.6' y1='2619.5' x2='1612.6' y2='2639.5' style="stroke-width:4.0;stroke:rgb(0,0,0);stroke-linecap:round;fill:none;" />
<text x="1607.1" y="2650.0" font-size="18.2px" font-family="CMUBright-Roman" style="text-anchor:start;fill:rgb(0,0,0);" transform="rotate(84.4,1607.1,2650.0)" >2200</text>
<line x1='1537.7' y1='2624.4' x2='1538.4' y2='2644.4' style="stroke-width:4.0;stroke:rgb(0,0,0);stroke-linecap:round;fill:none;" />
<text x="1532.3" y="2654.5" font-size="18.2px" font-family="CMUBright-Roman" style="text-anchor:start;fill:rgb(0,0,0);" transform="rotate(88.1,1532.3,2654.5)" >2250</text>
<line x1='1464.7' y1='2624.4' x2='1464.1' y2='2644.4' style="stroke-width:4.0;stroke:rgb(0,0,0);stroke-linecap:round;fill:none;" />
<text x="1470.3" y="2654.6" font-size="18.2px" font-family="CMUBright-Roman" style="text-anchor:end;fill:rgb(0,0,0);" transform="rotate(-88.2,1470.3,2654.6)" >2300</text>
<line x1='1391.9' y1='2619.8' x2='1389.9' y2='2639.7' style="stroke-width:4.0;stroke:rgb(0,0,0);stroke-linecap:round;fill:none;" />
<text x="1395.4" y="2650.3" font-size="18.2px" font-family="CMUBright-Roman" style="text-anchor:end;fill:rgb(0,0,0);" transform="rotate(-84.5,1395.4,2650.3)" >2350</text>
<line x1='1319.4' y1='2610.4' x2='1316.2' y2='2630.2' style="stroke-width:4.0;stroke:rgb(0,0,0);stroke-linecap:round;fill:none;" />
<text x="1321.0" y="2641.1" font-size="18.2px" font-family="CMUBright-Roman" style="text-anchor:end;fill:rgb(0,0,0);" transform="rotate(-80.8,1321.0,2641.1)" >2400</text>
<line x1='1247.8' y1='2596.4' x2='1243.3' y2='2615.9' style="stroke-width:4.0;stroke:rgb(0,0,0);stroke-linecap:round;fill:none;" />
<text x="1247.4" y="2627.0" font-size="18.2px" font-family="CMUBright-Roman" style="text-anchor:end;fill:rgb(0,0,0);" transform="rotate(-77.0,1247.4,2627.0)" >2450</text>
<line x1='1177.2' y1='2577.7' x2='1171.5' y2='2596.9' style="stroke-width:4.0;stroke:rgb(0,0,0);stroke-linecap:round;fill:none;" />
<text x="1174.8" y="2608.3" font-size="18.2px" font-family="CMUBright-Roman" style="text-anchor:end;fill:rgb(0,0,0);" transform="rotate(-73.3,1174.8,2608.3)" >2500</text>
<line x1='1108.0' y1='2554.5' x2='1101.0' y2='2573.2' style="stroke-width:4.0;stroke:rgb(0,0,0);stroke-linecap:round;fill:none;" />
<text x="1103.6" y="2584.8" font-size="18.2px" font-family="CMUBright-Roman" style="text-anchor:end;fill:rgb(0,0,0);" transform="rotate(-69.6,1103.6,2584.8)" >2550</text>
<line x1='1040.4' y1='2526.8' x2='1032.2' y2='2545.1' style="stroke-width:4.0;stroke:rgb(0,0,0);stroke-linecap:round;fill:none;" />
<text x="1034.1" y="2556.8" font-size="18.2px" font-family="CMUBright-Roman" style="text-anchor:end;fill:rgb(0,0,0);" transform="rotate(-65.9,1034.1,2556.8)" >2600</text>
<line x1='974.7' y1='2494.8' x2='965.4' y2='2512.5' style="stroke-width:4.0;stroke:rgb(0,0,0);stroke-linecap:round;fill:none;" />
<text x="966.5" y="2524.4" font-size="18.2px" font-family="CMUBright-Roman" style="text-anchor:end;fill:rgb(0,0,0);" transform="rotate(-62.2,966.5,2524.4)" >2650</text>
<line x1='911.3' y1='2458.7' x2='900.8' y2='2475.7' style="stroke-width:4.0;stroke:rgb(0,0,0);stroke-linecap:round;fill:none;" />
<text x="901.2" y="2487.6" font-size="18.2px" font-family="CMUBright-Roman" style="text-anchor:end;fill:rgb(0,0,0);" transform="rotate(-58.4,901.2,2487.6)" >2700</text>
<line x1='850.4' y1='2418.5' x2='838.8' y2='2434.8' style="stroke-width:4.0;stroke:rgb(0,0,0);stroke-linecap:round;fill:none;" />
<text x="838.3" y="2446.7" font-size="18.2px" font-family="CMUBright-Roman" style="text-anchor:end;fill:rgb(0,0,0);" transform="rotate(-54.7,838.3,2446.7)" >2750</text>
<line x1='792.1' y1='2374.4' x2='779.6' y2='2389.9' style="stroke-width:4.0;stroke:rgb(0,0,0);stroke-linecap:round;fill:none;" />
<text x="778.3" y="2401.8" font-size="18.2px" font-family="CMUBright-Roman" style="text-anchor:end;fill:rgb(0,0,0);" transform="rotate(-51.0,778.3,2401.8)" >2800</text>
<line x1='736.9' y1='2326.6' x2='723.3' y2='2341.3' style="stroke-width:4.0;stroke:rgb(0,0,0);stroke-linecap:round;fill:none;" />
<text x="721.3" y="2353.1" font-size="18.2px" font-family="CMUBright-Roman" style="text-anchor:end;fill:rgb(0,0,0);" transform="rotate(-47.3,721.3,2353.1)" >2850</text>
<line x1='684.9' y1='2275.4' x2='670.4' y2='2289.2' style="stroke-width:4.0;stroke:rgb(0,0,0);stroke-linecap:round;fill:none;" />
<text x="667.6" y="2300.8" font-size="18.2px" font-family="CMUBright-Roman" style="text-anchor:end;fill:rgb(0,0,0);" transform="rotate(-43.6,667.6,2300.8)" >2900</text>
<line x1='636.3' y1='2220.9' x2='620.9' y2='2233.7' style="stroke-width:4.0;stroke:rgb(0,0,0);stroke-linecap:round;fill:none;" />
<text x="617.5" y="2245.1" font-size="18.2px" font-family="CMUBright-Roman" style="text-anchor:end;fill:rgb(0,0,0);" transform="rotate(-39.8,617.5,2245.1)" >2950</text>
<line x1='591.4' y1='2163.3' x2='575.2' y2='2175.1' style="stroke-width:4.0;stroke:rgb(0,0,0);stroke-linecap:round;fill:none;" />
<text x="571.0" y="2186.3" font-size="18.2px" font-family="CMUBright-Roman" style="text-anchor:end;fill:rgb(0,0,0);" transform="rotate(-36.1,571.0,2186.3)" >3000</text>
<line x1='550.2' y1='2103.0' x2='533.4' y2='2113.7' style="stroke-width:4.0;stroke:rgb(0,0,0);stroke-linecap:round;fill:none;" />
<text x="528.4" y="2124.5" font-size="18.2px" font-family="CMUBright-Roman" style="text-anchor:end;fill:rgb(0,0,0);" transform="rotate(-32.4,528.4,2124.5)" >3050</text>
<line x1='513.1' y1='2040.1' x2='495.6' y2='2049.7' style="stroke-width:4.0;stroke:rgb(0,0,0);stroke-linecap:round;fill:none;" />
<text x="489.9" y="2060.2" font-size="18.2px" font-family="CMUBright-Roman" style="text-anchor:end;fill:rgb(0,0,0);" transform="rotate(-28.7,489.9,2060.2)" >3100</text>
<line x1='480.2' y1='1974.9' x2='462.0' y2='1983.4' style="stroke-width:4.0;stroke:rgb(0,0,0);stroke-linecap:round;fill:none;" />
<text x="455.7" y="1993.5" font-size="18.2px" font-family="CMUBright-Roman" style="text-anchor:end;fill:rgb(0,0,0);" transform="rotate(-25.0,455.7,1993.5)" >3150</text>
<line x1='451.5' y1='1907.8' x2='432.9' y2='1915.0' style="stroke-width:4.0;stroke:rgb(0,0,0);stroke-linecap:round;fill:none;" />
<text x="425.9" y="1924.7" font-size="18.2px" font-family="CMUBright-Roman" style="text-anchor:end;fill:rgb(0,0,0);" transform="rotate(-21.3,425.9,1924.7)" >3200</text>
<line x1='427.3' y1='1838.9' x2='408.2' y2='1844.9' style="stroke-width:4.0;stroke:rgb(0,0,0);stroke-linecap:round;fill:none;" />
<text x="400.6" y="1854.1" font-size="18.2px" font-family="CMUBright-Roman" style="text-anchor:end;fill:rgb(0,0,0);" transform="rotate(-17.5,400.6,1854.1)" >3250</text>
<line x1='407.5' y1='1768.6' x2='388.1' y2='1773.4' style="stroke-width:4.0;stroke:rgb(0,0,0);stroke-linecap:round;fill:none;" />
<text x="380.0" y="1782.1" font-size="18.2px" font-family="CMUBright-Roman" style="text-anchor:end;fill:rgb(0,0,0);" transform="rotate(-13.8,380.0,1782.1)" >3300</text>
<line x1='392.4' y1='1697.2' x2='372.7' y2='1700.7' style="stroke-width:4.0;stroke:rgb(0,0,0);stroke-linecap:round;fill:none;" />
<text x="364.0" y="1708.8" font-size="18.2px" font-family="CMUBright-Roman" style="text-anchor:end;fill:rgb(0,0,0);" transform="rotate(-10.1,364.0,1708.8)" >3350</text>
<line x1='382.0' y1='1624.9' x2='362.1' y2='1627.1' style="stroke-width:4.0;stroke:rgb(0,0,0);stroke-linecap:round;fill:none;" />
<text x="352.9" y="1634.7" font-size="18.2px" font-family="CMUBright-Roman" style="text-anchor:end;fill:rgb(0,0,0);" transform="rotate(-6.4,352.9,1634.7)" >3400</text>
<line x1='376.2' y1='1552.1' x2='356.2' y2='1553.0' style="stroke-width:4.0;stroke:rgb(0,0,0);stroke-linecap:round;fill:none;" />
<text x="346.6" y="1560.0" font-size="18.2px" font-family="CMUBright-Roman" style="text-anchor:end;fill:rgb(0,0,0);" transform="rotate(-2.7,346.6,1560.0)" >3450</text>
<line x1='375.2' y1='1479.1' x2='355.2' y2='1478.7' style="stroke-width:4.0;stroke:rgb(0,0,0);stroke-linecap:round;fill:none;" />
<text x="345.1" y="1485.0" font-size="18.2px" font-family="CMUBright-Roman" style="text-anchor:end;fill:rgb(0,0,0);" transform="rotate(1.1,345.1,1485.0)" >3500</text>
<line x1='378.9' y1='1406.2' x2='359.0' y2='1404.5' style="stroke-width:4.0;stroke:rgb(0,0,0);stroke-linecap:round;fill:none;" />
<text x="348.5" y="1410.1" font-size="18.2px" font-family="CMUBright-Roman" style="text-anchor:end;fill:rgb(0,0,0);" transform="rotate(4.8,348.5,1410.1)" >3550</text>
<line x1='387.4' y1='1333.6' x2='367.6' y2='1330.7' style="stroke-width:4.0;stroke:rgb(0,0,0);stroke-linecap:round;fill:none;" />
<text x="356.8" y="1335.6" font-size="18.2px" font-family="CMUBright-Roman" style="text-anchor:end;fill:rgb(0,0,0);" transform="rotate(8.5,356.8,1335.6)" >3600</text>
<line x1='400.5' y1='1261.8' x2='381.0' y2='1257.6' style="stroke-width:4.0;stroke:rgb(0,0,0);stroke-linecap:round;fill:none;" />
<text x="369.8" y="1261.8" font-size="18.2px" font-family="CMUBright-Roman" style="text-anchor:end;fill:rgb(0,0,0);" transform="rotate(12.2,369.8,1261.8)" >3650</text>
<line x1='418.3' y1='1191.0' x2='399.0' y2='1185.5' style="stroke-width:4.0;stroke:rgb(0,0,0);stroke-linecap:round;fill:none;" />
<text x="387.7" y="1189.0" font-size="18.2px" font-family="CMUBright-Roman" style="text-anchor:end;fill:rgb(0,0,0);" transform="rotate(15.9,387.7,1189.0)" >3700</text>
<line x1='440.6' y1='1121.5' x2='421.8' y2='1114.7' style="stroke-width:4.0;stroke:rgb(0,0,0);stroke-linecap:round;fill:none;" />
<text x="410.2" y="1117.5" font-size="18.2px" font-family="CMUBright-Roman" style="text-anchor:end;fill:rgb(0,0,0);" transform="rotate(19.7,410.2,1117.5)" >3750</text>
<line x1='467.4' y1='1053.5' x2='449.0' y2='1045.6' style="stroke-width:4.0;stroke:rgb(0,0,0);stroke-linecap:round;fill:none;" />
<text x="437.3" y="1047.6" font-size="18.2px" font-family="CMUBright-Roman" style="text-anchor:end;fill:rgb(0,0,0);" transform="rotate(23.4,437.3,1047.6)" >3800</text>
<line x1='498.5' y1='987.5' x2='480.7' y2='978.4' style="stroke-width:4.0;stroke:rgb(0,0,0);stroke-linecap:round;fill:none;" />
<text x="468.9" y="979.6" font-size="18.2px" font-family="CMUBright-Roman" style="text-anchor:end;fill:rgb(0,0,0);" transform="rotate(27.1,468.9,979.6)" >3850</text>
<line x1='533.9' y1='923.6' x2='516.7' y2='913.3' style="stroke-width:4.0;stroke:rgb(0,0,0);stroke-linecap:round;fill:none;" />
<text x="504.8" y="913.8" font-size="18.2px" font-family="CMUBright-Roman" style="text-anchor:end;fill:rgb(0,0,0);" transform="rotate(30.8,504.8,913.8)" >3900</text>
<line x1='573.3' y1='862.1' x2='556.8' y2='850.8' style="stroke-width:4.0;stroke:rgb(0,0,0);stroke-linecap:round;fill:none;" />
<text x="544.9" y="850.5" font-size="18.2px" font-family="CMUBright-Roman" style="text-anchor:end;fill:rgb(0,0,0);" transform="rotate(34.5,544.9,850.5)" >3950</text>
<line x1='616.6' y1='803.4' x2='600.9' y2='791.0' style="stroke-width:4.0;stroke:rgb(0,0,0);stroke-linecap:round;fill:none;" />
<text x="589.1" y="789.9" font-size="18.2px" font-family="CMUBright-Roman" style="text-anchor:end;fill:rgb(0,0,0);" transform="rotate(38.3,589.1,789.9)" >4000</text>
<line x1='663.7' y1='747.5' x2='648.8' y2='734.1' style="stroke-width:4.0;stroke:rgb(0,0,0);stroke-linecap:round;fill:none;" />
<text x="637.1" y="732.3" font-size="18.2px" font-family="CMUBright-Roman" style="text-anchor:end;fill:rgb(0,0,0);" transform="rotate(42.0,637.1,732.3)" >4050</text>
<line x1='714.3' y1='694.9' x2='700.3' y2='680.5' style="stroke-width:4.0;stroke:rgb(0,0,0);stroke-linecap:round;fill:none;" />
<text x="688.7" y="677.9" font-size="18.2px" font-family="CMUBright-Roman" style="text-anchor:end;fill:rgb(0,0,0);" transform="rotate(45.7,688.7,677.9)" >4100</text>
<line x1='768.2' y1='645.6' x2='755.1' y2='630.4' style="stroke-width:4.0;stroke:rgb(0,0,0);stroke-linecap:round;fill:none;" />
<text x="743.7" y="627.0" font-size="18.2px" font-family="CMUBright-Roman" style="text-anchor:end;fill:rgb(0,0,0);" transform="rotate(49.4,743.7,627.0)" >4150</text>
<line x1='825.1' y1='599.9' x2='813.1' y2='583.9' style="stroke-width:4.0;stroke:rgb(0,0,0);stroke-linecap:round;fill:none;" />
<text x="801.9" y="579.8" font-size="18.2px" font-family="CMUBright-Roman" style="text-anchor:end;fill:rgb(0,0,0);" transform="rotate(53.1,801.9,579.8)" >4200</text>
<line x1='884.9' y1='558.0' x2='874.0' y2='541.3' style="stroke-width:4.0;stroke:rgb(0,0,0);stroke-linecap:round;fill:none;" />
<text x="863.1" y="536.5" font-size="18.2px" font-family="CMUBright-Roman" style="text-anchor:end;fill:rgb(0,0,0);" transform="rotate(56.9,863.1,536.5)" >4250</text>
<line x1='947.3' y1='520.1' x2='937.5' y2='502.7' style="stroke-width:4.0;stroke:rgb(0,0,0);stroke-linecap:round;fill:none;" />
<text x="927.0" y="497.2" font-size="18.2px" font-family="CMUBright-Roman" style="text-anchor:end;fill:rgb(0,0,0);" transform="rotate(60.6,927.0,497.2)" >4300</text>
<line x1='1012.1' y1='486.3' x2='1003.4' y2='468.3' style="stroke-width:4.0;stroke:rgb(0,0,0);stroke-linecap:round;fill:none;" />
<text x="993.2" y="462.1" font-size="18.2px" font-family="CMUBright-Roman" style="text-anchor:end;fill:rgb(0,0,0);" transform="rotate(64.3,993.2,462.1)" >4350</text>
<line x1='1078.9' y1='456.8' x2='1071.4' y2='438.3' style="stroke-width:4.0;stroke:rgb(0,0,0);stroke-linecap:round;fill:none;" />
<text x="1061.6" y="431.4" font-size="18.2px" font-family="CMUBright-Roman" style="text-anchor:end;fill:rgb(0,0,0);" transform="rotate(68.0,1061.6,431.4)" >4400</text>
<line x1='1147.4' y1='431.7' x2='1141.2' y2='412.7' style="stroke-width:4.0;stroke:rgb(0,0,0);stroke-linecap:round;fill:none;" />
<text x="1131.9" y="405.2" font-size="18.2px" font-family="CMUBright-Roman" style="text-anchor:end;fill:rgb(0,0,0);" transform="rotate(71.7,1131.9,405.2)" >4450</text>
<line x1='1217.5' y1='411.1' x2='1212.4' y2='391.7' style="stroke-width:4.0;stroke:rgb(0,0,0);stroke-linecap:round;fill:none;" />
<text x="1203.6" y="383.7" font-size="18.2px" font-family="CMUBright-Roman" style="text-anchor:end;fill:rgb(0,0,0);" transform="rotate(75.5,1203.6,383.7)" >4500</text>
<line x1='1288.7' y1='395.0' x2='1285.0' y2='375.4' style="stroke-width:4.0;stroke:rgb(0,0,0);stroke-linecap:round;fill:none;" />
<text x="1276.7" y="366.8" font-size="18.2px" font-family="CMUBright-Roman" style="text-anchor:end;fill:rgb(0,0,0);" transform="rotate(79.2,1276.7,366.8)" >4550</text>
<line x1='1360.8' y1='383.6' x2='1358.4' y2='363.8' style="stroke-width:4.0;stroke:rgb(0,0,0);stroke-linecap:round;fill:none;" />
<text x="1350.7" y="354.7" font-size="18.2px" font-family="CMUBright-Roman" style="text-anchor:end;fill:rgb(0,0,0);" transform="rotate(82.9,1350.7,354.7)" >4600</text>
<g id="highlighttrack_0">
<path d="M1758.412,456.521 A1075.000,1075.000 40.000 0,1 1762.358,457.506 L1774.561,409.018 A1125.000,1125.000 0.000 0,0 1770.431,407.987 Z" style="stroke-width:4.0;stroke:rgb(0,0,0);stroke-linecap:round;fill:rgb(251,106,74);" />
<path d="M1916.809,509.094 A1075.000,1075.000 40.000 0,1 1920.553,510.677 L1940.113,464.662 A1125.000,1125.000 0.000 0,0 1936.196,463.005 Z" style="stroke-width:4.0;stroke:rgb(0,0,0);stroke-linecap:round;fill:rgb(251,106,74);" />
<path d="M1937.813,518.193 A1075.000,1075.000 40.000 0,1 1941.514,519.852 L1962.049,474.263 A1125.000,1125.000 0.000 0,0 1958.176,472.527 Z" style="stroke-width:4.0;stroke:rgb(0,0,0);stroke-linecap:round;fill:rgb(251,106,74);" />
<path d="M2117.936,2379.648 A1075.000,1075.000 40.000 0,1 2114.604,2381.979 L2143.190,2423.001 A1125.000,1125.000 0.000 0,0 2146.677,2420.561 Z" style="stroke-width:4.0;stroke:rgb(0,0,0);stroke-linecap:round;fill:rgb(251,106,74);" />
<path d="M442.702,1305.715 A1075.000,1075.000 40.000 0,1 443.444,1301.722 L394.302,1292.499 A1125.000,1125.000 0.000 0,0 393.526,1296.679 Z" style="stroke-width:4.0;stroke:rgb(0,0,0);stroke-linecap:round;fill:rgb(116,196,118);" />
<path d="M515.570,1068.118 A1075.000,1075.000 40.000 0,1 517.211,1064.397 L471.500,1044.136 A1125.000,1125.000 0.000 0,0 469.782,1048.031 Z" style="stroke-width:4.0;stroke:rgb(0,0,0);stroke-linecap:round;fill:rgb(116,196,118);" />
<path d="M1054.756,521.541 A1075.000,1075.000 40.000 0,1 1058.458,519.864 L1037.921,474.277 A1125.000,1125.000 0.000 0,0 1034.047,476.031 Z" style="stroke-width:4.0;stroke:rgb(0,0,0);stroke-linecap:round;fill:rgb(116,196,118);" />
<path d="M1379.610,431.763 A1075.000,1075.000 40.000 0,1 1383.653,431.315 L1378.241,381.608 A1125.000,1125.000 0.000 0,0 1374.011,382.077 Z" style="stroke-width:4.0;stroke:rgb(0,0,0);stroke-linecap:round;fill:rgb(116,196,118);" />
<path d="M1132.854,489.639 A1075.000,1075.000 40.000 0,1 1135.756,488.589 L1118.814,441.547 A1125.000,1125.000 0.000 0,0 1115.778,442.646 Z" style="stroke-width:4.0;stroke:rgb(0,0,0);stroke-linecap:round;fill:rgb(116,196,118);" />
<path d="M2573.423,1441.796 A1075.000,1075.000 40.000 0,1 2573.591,1444.973 L2623.525,1442.413 A1125.000,1125.000 0.000 0,0 2623.350,1439.089 Z" style="stroke-width:4.0;stroke:rgb(0,0,0);stroke-linecap:round;fill:rgb(116,196,118);" />
<path d="M2573.677,1446.679 A1075.000,1075.000 40.000 0,1 2573.830,1449.849 L2623.775,1447.516 A1125.000,1125.000 0.000 0,0 2623.615,1444.199 Z" style="stroke-width:4.0;stroke:rgb(0,0,0);stroke-linecap:round;fill:rgb(116,196,118);" />
<path d="M909.312,2398.172 A1075.000,1075.000 40.000 0,1 906.596,2396.379 L878.995,2438.072 A1125.000,1125.000 0.000 0,0 881.838,2439.948 Z" style="stroke-width:4.0;stroke:rgb(0,0,0);stroke-linecap:round;fill:rgb(116,196,118);" />
<path d="M772.097,708.936 A1075.000,1075.000 40.000 0,1 774.495,706.736 L740.751,669.840 A1125.000,1125.000 0.000 0,0 738.241,672.142 Z" style="stroke-width:4.0;stroke:rgb(0,0,0);stroke-linecap:round;fill:rgb(116,196,118);" />
</g>
</g>
<g id="track_0">
<path d="M 1755.828,466.956 A 1064.250,1064.250 0.00 0,1 1759.7,467.9 L 1759.7,467.9 1741.8,538.9 1725.1,604.4 1709.5,664.8 1695.0,720.3 1681.6,771.2 1669.1,817.6 1657.6,859.8 1647.0,897.9 1637.2,932.2 1628.2,962.9 1620.0,989.9 1612.5,1013.6 1605.7,1034.0 1599.6,1051.3 1594.1,1065.4 1589.2,1076.5 1585.0,1084.7 1581.3,1090.0 1578.1,1092.4 1575.5,1091.9 1573.4,1088.5 1571.9,1082.3 1570.9,1073.1 1570.4,1061.0 1570.4,1045.8 1571.0,1027.5 1572.1,1006.0 1573.7,981.2 1575.9,953.0 1578.7,921.2 1582.1,885.7 1586.1,846.3 1590.7,802.8 1596.0,755.1 1601.9,702.8 1608.6,645.8 1616.1,583.9 1624.4,516.8 1633.5,444.2  A 1064.250,1064.250 0.00 0,0 1629.5,443.7 L 1629.5,443.7 1620.7,516.3 1612.6,583.5 1605.4,645.4 1598.9,702.4 1593.2,754.7 1588.1,802.5 1583.6,846.0 1579.8,885.4 1576.5,920.9 1573.9,952.7 1571.8,981.0 1570.2,1005.8 1569.2,1027.2 1568.7,1045.5 1568.8,1060.7 1569.3,1072.8 1570.3,1082.0 1571.9,1088.2 1574.0,1091.6 1576.6,1092.1 1579.7,1089.7 1583.4,1084.4 1587.6,1076.2 1592.5,1065.1 1597.9,1050.9 1604.0,1033.6 1610.7,1013.2 1618.1,989.5 1626.2,962.4 1635.1,931.7 1644.7,897.4 1655.2,859.2 1666.5,816.9 1678.8,770.5 1692.1,719.6 1706.3,664.1 1721.7,603.6 1738.2,538.0 1755.8,467.0  Z" style="stroke-width: 2.0;  stroke: rgb(82,82,82); fill: rgb(251,106,74); opacity: 0.667;" />
<path d="M 1912.641,519.003 A 1064.250,1064.250 0.00 0,1 1916.3,520.6 L 1916.3,520.6 1887.5,587.9 1860.6,650.0 1835.4,707.1 1811.9,759.5 1790.0,807.4 1769.6,851.1 1750.6,890.7 1733.0,926.4 1716.6,958.4 1701.4,986.9 1687.4,1012.0 1674.5,1033.8 1662.6,1052.4 1651.8,1068.0 1641.8,1080.6 1632.7,1090.2 1624.5,1097.1 1617.2,1101.1 1610.6,1102.3 1604.7,1100.7 1599.7,1096.4 1595.3,1089.2 1591.6,1079.1 1588.7,1066.2 1586.4,1050.3 1584.9,1031.4 1584.0,1009.3 1583.8,984.0 1584.3,955.3 1585.6,923.0 1587.6,887.1 1590.3,847.4 1593.8,803.6 1598.2,755.6 1603.4,703.2 1609.5,646.0 1616.5,584.0 1624.5,516.8 1633.5,444.2  A 1064.250,1064.250 0.00 0,0 1629.5,443.7 L 1629.5,443.7 1620.8,516.3 1613.0,583.6 1606.2,645.6 1600.4,702.8 1595.4,755.2 1591.2,803.3 1587.8,847.0 1585.3,886.8 1583.4,922.7 1582.3,954.9 1581.9,983.7 1582.1,1009.0 1583.1,1031.1 1584.7,1050.0 1587.1,1065.9 1590.1,1078.8 1593.7,1088.8 1598.1,1096.0 1603.2,1100.3 1609.1,1101.9 1615.6,1100.6 1623.0,1096.6 1631.2,1089.7 1640.2,1080.0 1650.1,1067.4 1661.0,1051.8 1672.8,1033.1 1685.6,1011.3 1699.5,986.1 1714.5,957.6 1730.8,925.5 1748.3,889.7 1767.1,850.1 1787.4,806.3 1809.1,758.3 1832.4,705.8 1857.4,648.6 1884.1,586.4 1912.6,519.0  Z" style="stroke-width: 2.0;  stroke: rgb(82,82,82); fill: rgb(116,196,118); opacity: 0.667;" />
<path d="M 1912.641,519.003 A 1064.250,1064.250 0.00 0,1 1916.3,520.6 L 1916.3,520.6 1887.6,587.9 1860.9,650.0 1836.1,707.3 1813.0,759.8 1791.7,807.9 1772.0,851.8 1753.9,891.6 1737.2,927.5 1721.9,959.8 1708.0,988.6 1695.3,1014.0 1683.8,1036.1 1673.5,1055.1 1664.3,1071.0 1656.2,1084.0 1649.1,1094.1 1643.0,1101.3 1637.9,1105.8 1633.7,1107.5 1630.5,1106.4 1628.2,1102.5 1626.8,1095.9 1626.3,1086.4 1626.8,1074.1 1628.1,1058.9 1630.4,1040.6 1633.7,1019.2 1637.9,994.7 1643.1,966.8 1649.4,935.4 1656.7,900.5 1665.1,861.7 1674.7,819.1 1685.5,772.2 1697.6,721.0 1711.0,665.2 1725.7,604.6 1742.0,538.9 1759.7,467.9  A 1064.250,1064.250 0.00 0,0 1755.8,467.0 L 1755.8,467.0 1738.3,538.0 1722.3,603.8 1707.8,664.4 1694.6,720.3 1682.8,771.5 1672.1,818.4 1662.7,861.1 1654.4,899.9 1647.3,934.9 1641.1,966.3 1636.0,994.2 1631.9,1018.7 1628.7,1040.1 1626.5,1058.4 1625.2,1073.6 1624.8,1086.0 1625.3,1095.4 1626.7,1102.0 1629.0,1105.9 1632.2,1107.0 1636.4,1105.3 1641.5,1100.8 1647.6,1093.5 1654.6,1083.4 1662.7,1070.4 1671.8,1054.4 1682.1,1035.4 1693.4,1013.2 1706.0,987.8 1719.9,959.0 1735.0,926.6 1751.6,890.6 1769.6,850.7 1789.1,806.8 1810.2,758.6 1833.1,706.0 1857.7,648.7 1884.2,586.4 1912.6,519.0  Z" style="stroke-width: 2.0;  stroke: rgb(82,82,82); fill: rgb(107,174,214); opacity: 0.667;" />
<path d="M 1933.434,528.011 A 1064.250,1064.250 0.00 0,1 1937.1,529.7 L 1937.1,529.7 1906.9,596.3 1878.6,657.8 1852.1,714.4 1827.4,766.3 1804.4,813.7 1782.9,856.9 1762.9,896.0 1744.4,931.3 1727.1,962.9 1711.2,991.0 1696.4,1015.7 1682.8,1037.2 1670.2,1055.5 1658.7,1070.8 1648.1,1083.2 1638.5,1092.6 1629.8,1099.2 1621.9,1103.0 1614.9,1104.0 1608.6,1102.2 1603.2,1097.7 1598.4,1090.3 1594.4,1080.2 1591.1,1067.1 1588.6,1051.1 1586.7,1032.0 1585.6,1009.9 1585.2,984.4 1585.5,955.6 1586.5,923.3 1588.3,887.4 1590.9,847.6 1594.3,803.7 1598.5,755.7 1603.6,703.2 1609.6,646.1 1616.5,584.0 1624.5,516.8 1633.5,444.2  A 1064.250,1064.250 0.00 0,0 1629.5,443.7 L 1629.5,443.7 1620.8,516.3 1613.1,583.6 1606.4,645.7 1600.6,702.8 1595.7,755.3 1591.6,803.4 1588.4,847.2 1586.0,887.0 1584.3,923.0 1583.4,955.3 1583.2,984.1 1583.7,1009.5 1585.0,1031.7 1586.9,1050.8 1589.5,1066.8 1592.8,1079.8 1596.9,1090.0 1601.6,1097.3 1607.1,1101.8 1613.4,1103.6 1620.4,1102.5 1628.3,1098.7 1637.0,1092.1 1646.6,1082.6 1657.1,1070.2 1668.5,1054.9 1681.0,1036.5 1694.6,1015.0 1709.2,990.2 1725.1,962.1 1742.2,930.4 1760.6,895.0 1780.5,855.8 1801.8,812.5 1824.6,765.0 1849.1,713.1 1875.4,656.4 1903.4,594.8 1933.4,528.0  Z" style="stroke-width: 2.0;  stroke: rgb(82,82,82); fill: rgb(253,141,60); opacity: 0.667;" />
<path d="M 1933.434,528.011 A 1064.250,1064.250 0.00 0,1 1937.1,529.7 L 1937.1,529.7 1906.9,596.4 1878.8,657.9 1852.7,714.6 1828.5,766.6 1806.1,814.2 1785.3,857.6 1766.2,896.9 1748.6,932.5 1732.4,964.4 1717.7,992.8 1704.2,1017.8 1692.0,1039.6 1681.1,1058.3 1671.2,1073.9 1662.5,1086.7 1654.9,1096.5 1648.3,1103.5 1642.7,1107.7 1638.0,1109.2 1634.4,1108.0 1631.7,1103.9 1629.9,1097.1 1629.1,1087.5 1629.2,1075.1 1630.3,1059.7 1632.3,1041.3 1635.3,1019.8 1639.2,995.2 1644.2,967.2 1650.3,935.8 1657.4,900.8 1665.7,862.0 1675.1,819.2 1685.8,772.3 1697.8,721.1 1711.1,665.3 1725.8,604.6 1742.0,538.9 1759.7,467.9  A 1064.250,1064.250 0.00 0,0 1755.8,467.0 L 1755.8,467.0 1738.3,538.0 1722.4,603.8 1707.9,664.5 1694.8,720.3 1683.1,771.6 1672.6,818.5 1663.3,861.3 1655.2,900.2 1648.2,935.2 1642.2,966.7 1637.3,994.7 1633.5,1019.3 1630.5,1040.8 1628.6,1059.2 1627.6,1074.6 1627.5,1087.0 1628.4,1096.6 1630.2,1103.4 1632.9,1107.4 1636.6,1108.7 1641.2,1107.2 1646.8,1103.0 1653.3,1095.9 1660.9,1086.0 1669.6,1073.3 1679.4,1057.6 1690.3,1038.9 1702.4,1017.0 1715.8,991.9 1730.4,963.5 1746.5,931.5 1763.9,895.9 1782.9,856.5 1803.5,813.0 1825.8,765.3 1849.8,713.2 1875.7,656.5 1903.5,594.8 1933.4,528.0  Z" style="stroke-width: 2.0;  stroke: rgb(82,82,82); fill: rgb(255,0,0); opacity: 0.667;" />
<path d="M 1933.434,528.011 A 1064.250,1064.250 0.00 0,1 1937.1,529.7 L 1937.1,529.7 1907.0,596.4 1879.2,658.0 1853.5,714.9 1829.9,767.1 1808.2,815.0 1788.4,858.7 1770.3,898.5 1753.9,934.5 1739.1,966.9 1725.8,995.8 1714.0,1021.4 1703.6,1043.9 1694.6,1063.2 1686.9,1079.6 1680.4,1093.1 1675.2,1103.8 1671.2,1111.7 1668.5,1116.9 1666.8,1119.4 1666.4,1119.2 1667.2,1116.3 1669.1,1110.8 1672.2,1102.5 1676.5,1091.4 1682.1,1077.5 1688.9,1060.7 1697.0,1040.9 1706.4,1018.1 1717.2,992.0 1729.5,962.6 1743.2,929.8 1758.5,893.3 1775.5,853.1 1794.2,808.8 1814.6,760.4 1837.0,707.6 1861.3,650.2 1887.7,587.9 1916.3,520.6  A 1064.250,1064.250 0.00 0,0 1912.6,519.0 L 1912.6,519.0 1884.3,586.5 1858.1,648.8 1834.0,706.3 1811.8,759.2 1791.5,807.7 1773.0,852.0 1756.2,892.4 1741.1,928.9 1727.4,961.8 1715.3,991.2 1704.6,1017.3 1695.2,1040.2 1687.2,1060.0 1680.5,1076.8 1675.0,1090.7 1670.7,1101.8 1667.6,1110.1 1665.7,1115.7 1665.0,1118.6 1665.4,1118.8 1667.0,1116.3 1669.8,1111.1 1673.7,1103.1 1678.9,1092.4 1685.3,1078.9 1692.9,1062.5 1701.9,1043.1 1712.2,1020.6 1723.9,994.9 1737.1,966.0 1751.8,933.5 1768.0,897.5 1786.0,857.6 1805.6,813.8 1827.1,765.9 1850.6,713.5 1876.0,656.6 1903.6,594.9 1933.4,528.0  Z" style="stroke-width: 2.0;  stroke: rgb(82,82,82); fill: rgb(255,0,204); opacity: 0.667;" />
<path d="M 2111.757,2370.851 A 1064.250,1064.250 0.00 0,1 2108.5,2373.2 L 2108.5,2373.2 2067.1,2311.8 2029.7,2252.4 1995.9,2195.1 1965.4,2139.6 1937.9,2085.9 1913.1,2033.9 1890.6,1983.5 1870.2,1934.6 1851.6,1887.2 1834.7,1841.1 1819.1,1796.2 1804.8,1752.4 1791.5,1709.5 1779.0,1667.5 1767.2,1626.3 1756.0,1585.6 1745.3,1545.3 1735.0,1505.4 1724.9,1465.7 1715.1,1426.0 1705.6,1386.1 1696.2,1345.9 1687.0,1305.3 1678.0,1264.1 1669.3,1222.1 1660.8,1179.1 1652.8,1135.0 1645.1,1089.5 1638.0,1042.5 1631.6,993.8 1626.0,943.2 1621.4,890.4 1617.9,835.4 1615.8,777.8 1615.3,717.4 1616.5,654.1 1619.8,587.6 1625.3,517.7 1633.5,444.2  A 1064.250,1064.250 0.00 0,0 1629.5,443.7 L 1629.5,443.7 1621.6,517.3 1616.3,587.2 1613.3,653.7 1612.3,717.0 1613.1,777.4 1615.4,834.9 1619.1,890.0 1623.9,942.7 1629.7,993.3 1636.3,1042.0 1643.6,1088.9 1651.4,1134.4 1659.6,1178.5 1668.2,1221.5 1677.1,1263.4 1686.3,1304.6 1695.6,1345.2 1705.1,1385.3 1714.9,1425.1 1724.8,1464.8 1735.0,1504.5 1745.5,1544.4 1756.3,1584.6 1767.7,1625.2 1779.6,1666.5 1792.2,1708.4 1805.7,1751.2 1820.3,1795.0 1836.0,1839.8 1853.1,1885.9 1871.8,1933.2 1892.4,1982.0 1915.1,2032.3 1940.1,2084.2 1967.9,2137.8 1998.5,2193.2 2032.5,2250.4 2070.1,2309.6 2111.8,2370.9  Z" style="stroke-width: 2.0;  stroke: rgb(82,82,82); fill: rgb(255,204,204); opacity: 0.667;" />
<path d="M 2111.757,2370.851 A 1064.250,1064.250 0.00 0,1 2108.5,2373.2 L 2108.5,2373.2 2067.1,2311.9 2029.8,2252.7 1996.1,2195.7 1965.8,2140.6 1938.5,2087.3 1914.0,2035.9 1892.0,1986.1 1872.1,1937.9 1854.2,1891.2 1838.0,1845.7 1823.4,1801.5 1810.1,1758.3 1798.0,1716.2 1786.9,1674.8 1776.7,1634.2 1767.3,1594.1 1758.5,1554.5 1750.3,1515.1 1742.6,1475.9 1735.5,1436.6 1728.7,1397.2 1722.4,1357.5 1716.6,1317.3 1711.2,1276.5 1706.4,1234.9 1702.1,1192.3 1698.5,1148.6 1695.7,1103.5 1693.7,1057.0 1692.7,1008.7 1692.9,958.7 1694.4,906.5 1697.4,852.2 1702.1,795.4 1708.7,736.0 1717.5,673.7 1728.8,608.4 1742.8,539.9 1759.7,467.9  A 1064.250,1064.250 0.00 0,0 1755.8,467.0 L 1755.8,467.0 1739.1,539.0 1725.4,607.6 1714.4,672.9 1705.8,735.2 1699.4,794.6 1694.9,851.4 1692.1,905.8 1690.8,957.9 1690.8,1008.0 1692.0,1056.2 1694.1,1102.8 1697.2,1147.8 1701.0,1191.5 1705.4,1234.1 1710.4,1275.7 1715.9,1316.5 1721.9,1356.7 1728.3,1396.4 1735.2,1435.7 1742.6,1474.9 1750.4,1514.1 1758.7,1553.5 1767.6,1593.1 1777.2,1633.1 1787.6,1673.7 1798.8,1715.0 1811.1,1757.2 1824.5,1800.3 1839.3,1844.4 1855.7,1889.8 1873.8,1936.5 1893.8,1984.7 1916.0,2034.3 1940.8,2085.7 1968.2,2138.8 1998.7,2193.8 2032.6,2250.7 2070.2,2309.7 2111.8,2370.9  Z" style="stroke-width: 2.0;  stroke: rgb(82,82,82); fill: rgb(255,153,0); opacity: 0.667;" />
<path d="M 2111.757,2370.851 A 1064.250,1064.250 0.00 0,1 2108.5,2373.2 L 2108.5,2373.2 2067.1,2311.9 2029.8,2253.1 1996.3,2196.4 1966.2,2141.9 1939.2,2089.3 1915.1,2038.7 1893.5,1989.7 1874.2,1942.4 1857.1,1896.6 1841.9,1852.2 1828.3,1809.0 1816.3,1766.9 1805.7,1725.7 1796.3,1685.5 1788.0,1645.9 1780.7,1606.9 1774.3,1568.3 1768.8,1530.0 1764.1,1491.9 1760.1,1453.7 1756.9,1415.4 1754.4,1376.8 1752.8,1337.8 1751.9,1298.1 1751.9,1257.7 1752.9,1216.3 1754.8,1173.9 1757.9,1130.3 1762.3,1085.2 1768.1,1038.6 1775.5,990.2 1784.6,940.0 1795.7,887.6 1808.9,833.1 1824.6,776.1 1842.8,716.6 1864.0,654.2 1888.4,589.0 1916.3,520.6  A 1064.250,1064.250 0.00 0,0 1912.6,519.0 L 1912.6,519.0 1885.0,587.5 1860.8,652.9 1839.9,715.3 1821.8,774.9 1806.4,831.9 1793.4,886.5 1782.5,938.9 1773.6,989.2 1766.4,1037.6 1760.8,1084.2 1756.5,1129.3 1753.6,1173.0 1751.8,1215.4 1751.0,1256.7 1751.1,1297.2 1752.2,1336.8 1754.0,1375.9 1756.6,1414.5 1759.9,1452.8 1764.0,1490.9 1768.9,1529.0 1774.6,1567.3 1781.1,1605.8 1788.5,1644.8 1797.0,1684.4 1806.5,1724.6 1817.3,1765.7 1829.5,1807.7 1843.2,1850.9 1858.6,1895.2 1875.9,1941.0 1895.3,1988.2 1917.1,2037.1 1941.4,2087.7 1968.6,2140.1 1998.9,2194.5 2032.7,2251.1 2070.2,2309.8 2111.8,2370.9  Z" style="stroke-width: 2.0;  stroke: rgb(82,82,82); fill: rgb(255,204,0); opacity: 0.667;" />
<path d="M 2111.757,2370.851 A 1064.250,1064.250 0.00 0,1 2108.5,2373.2 L 2108.5,2373.2 2067.1,2312.0 2029.9,2253.1 1996.3,2196.5 1966.2,2142.1 1939.3,2089.6 1915.2,2039.0 1893.7,1990.2 1874.5,1943.0 1857.5,1897.4 1842.3,1853.1 1828.9,1810.0 1817.1,1768.1 1806.7,1727.1 1797.5,1687.0 1789.4,1647.6 1782.4,1608.8 1776.3,1570.4 1771.2,1532.3 1766.8,1494.3 1763.3,1456.4 1760.6,1418.3 1758.6,1379.9 1757.5,1341.0 1757.2,1301.5 1757.9,1261.3 1759.5,1220.2 1762.3,1178.1 1766.2,1134.7 1771.4,1089.9 1778.1,1043.5 1786.4,995.5 1796.6,945.6 1808.7,893.7 1823.1,839.5 1839.9,783.0 1859.4,723.9 1882.0,662.1 1907.7,597.4 1937.1,529.7  A 1064.250,1064.250 0.00 0,0 1933.4,528.0 L 1933.4,528.0 1904.3,595.9 1878.8,660.7 1856.5,722.6 1837.2,781.7 1820.6,838.3 1806.4,892.5 1794.5,944.5 1784.5,994.4 1776.4,1042.5 1769.9,1088.9 1764.8,1133.7 1761.0,1177.1 1758.5,1219.3 1757.0,1260.4 1756.5,1300.6 1756.9,1340.0 1758.2,1378.9 1760.3,1417.3 1763.1,1455.4 1766.8,1493.3 1771.3,1531.3 1776.6,1569.4 1782.8,1607.7 1790.0,1646.5 1798.2,1685.9 1807.5,1726.0 1818.1,1766.9 1830.1,1808.8 1843.7,1851.8 1859.0,1896.0 1876.2,1941.6 1895.5,1988.7 1917.2,2037.5 1941.5,2088.0 1968.7,2140.3 1999.0,2194.7 2032.7,2251.1 2070.2,2309.8 2111.8,2370.9  Z" style="stroke-width: 2.0;  stroke: rgb(82,82,82); fill: rgb(255,255,0); opacity: 0.667;" />
<path d="M 453.275,1307.658 A 1064.250,1064.250 0.00 0,1 454.0,1303.7 L 454.0,1303.7 526.5,1316.4 594.4,1326.7 658.2,1334.6 718.0,1340.4 774.2,1344.2 826.9,1346.2 876.4,1346.4 922.9,1344.9 966.6,1341.9 1007.7,1337.4 1046.5,1331.6 1083.0,1324.4 1117.5,1315.9 1150.2,1306.1 1181.1,1295.0 1210.4,1282.7 1238.4,1269.0 1264.9,1254.1 1290.3,1237.8 1314.6,1220.1 1337.9,1200.9 1360.3,1180.2 1381.8,1157.8 1402.5,1133.6 1422.5,1107.6 1441.8,1079.5 1460.5,1049.3 1478.6,1016.7 1496.0,981.6 1512.9,943.8 1529.1,903.1 1544.7,859.3 1559.7,812.1 1574.0,761.4 1587.6,706.7 1600.4,648.0 1612.3,584.9 1623.4,517.0 1633.5,444.2  A 1064.250,1064.250 0.00 0,0 1629.5,443.7 L 1629.5,443.7 1619.7,516.6 1608.9,584.4 1597.2,647.6 1584.6,706.4 1571.2,761.1 1557.1,811.9 1542.3,859.1 1526.8,903.0 1510.8,943.8 1494.1,981.6 1476.7,1016.8 1458.8,1049.4 1440.3,1079.7 1421.0,1107.9 1401.1,1134.0 1380.5,1158.2 1359.1,1180.7 1336.8,1201.5 1313.6,1220.8 1289.3,1238.6 1264.0,1255.0 1237.5,1270.0 1209.6,1283.8 1180.3,1296.2 1149.4,1307.4 1116.8,1317.3 1082.4,1326.0 1045.8,1333.3 1007.1,1339.3 966.0,1343.9 922.3,1347.1 875.8,1348.7 826.3,1348.7 773.6,1347.0 717.4,1343.4 657.6,1337.8 593.8,1330.1 525.8,1320.1 453.3,1307.7  Z" style="stroke-width: 2.0;  stroke: rgb(82,82,82); fill: rgb(204,255,0); opacity: 0.667;" />
<path d="M 453.275,1307.658 A 1064.250,1064.250 0.00 0,1 454.0,1303.7 L 454.0,1303.7 526.5,1316.4 594.7,1326.5 658.8,1334.3 719.0,1339.9 775.7,1343.5 829.1,1345.1 879.3,1345.1 926.7,1343.4 971.4,1340.2 1013.7,1335.5 1053.7,1329.5 1091.6,1322.2 1127.6,1313.6 1161.9,1303.8 1194.6,1292.8 1225.9,1280.7 1255.9,1267.3 1284.7,1252.6 1312.5,1236.7 1339.4,1219.5 1365.5,1200.9 1390.9,1180.9 1415.6,1159.2 1439.7,1135.9 1463.4,1110.8 1486.7,1083.8 1509.5,1054.7 1532.1,1023.3 1554.3,989.5 1576.2,953.1 1597.8,913.8 1619.2,871.5 1640.3,825.9 1661.1,776.7 1681.6,723.7 1701.8,666.7 1721.6,605.2 1740.9,539.1 1759.7,467.9  A 1064.250,1064.250 0.00 0,0 1755.8,467.0 L 1755.8,467.0 1737.3,538.2 1718.2,604.4 1698.6,665.9 1678.7,723.1 1658.4,776.1 1637.8,825.4 1616.8,871.0 1595.6,913.5 1574.1,952.8 1552.3,989.3 1530.2,1023.2 1507.8,1054.6 1485.1,1083.9 1462.0,1111.0 1438.4,1136.2 1414.3,1159.6 1389.7,1181.3 1364.4,1201.4 1338.4,1220.1 1311.5,1237.5 1283.8,1253.5 1255.0,1268.2 1225.1,1281.7 1193.8,1294.0 1161.2,1305.1 1126.9,1315.0 1090.9,1323.7 1053.1,1331.2 1013.1,1337.4 970.8,1342.2 926.1,1345.6 878.7,1347.4 828.5,1347.7 775.1,1346.2 718.4,1342.9 658.1,1337.5 594.0,1330.0 525.8,1320.1 453.3,1307.7  Z" style="stroke-width: 2.0;  stroke: rgb(82,82,82); fill: rgb(0,255,0); opacity: 0.667;" />
<path d="M 453.275,1307.658 A 1064.250,1064.250 0.00 0,1 454.0,1303.7 L 454.0,1303.7 526.6,1316.3 595.0,1326.4 659.5,1334.0 720.3,1339.3 777.7,1342.6 831.9,1344.1 883.2,1343.8 931.7,1341.9 977.8,1338.5 1021.5,1333.8 1063.1,1327.7 1102.7,1320.5 1140.7,1312.1 1177.0,1302.6 1212.0,1292.0 1245.7,1280.3 1278.3,1267.5 1309.9,1253.7 1340.7,1238.7 1370.8,1222.6 1400.4,1205.3 1429.4,1186.6 1458.1,1166.5 1486.5,1144.9 1514.7,1121.7 1542.8,1096.7 1570.8,1069.8 1598.8,1040.8 1626.9,1009.6 1655.0,975.8 1683.4,939.4 1711.8,900.0 1740.5,857.5 1769.3,811.6 1798.4,762.0 1827.6,708.4 1857.1,650.5 1886.6,588.0 1916.3,520.6  A 1064.250,1064.250 0.00 0,0 1912.6,519.0 L 1912.6,519.0 1883.2,586.5 1853.8,649.1 1824.6,707.1 1795.6,760.9 1766.7,810.6 1738.1,856.6 1709.6,899.2 1681.2,938.7 1653.1,975.2 1625.0,1009.1 1597.1,1040.5 1569.1,1069.6 1541.2,1096.6 1513.3,1121.7 1485.1,1145.0 1456.8,1166.7 1428.2,1186.9 1399.2,1205.6 1369.8,1223.1 1339.7,1239.4 1309.0,1254.4 1277.4,1268.4 1244.8,1281.3 1211.2,1293.1 1176.3,1303.8 1139.9,1313.4 1102.1,1322.0 1062.4,1329.4 1020.8,1335.6 977.2,1340.5 931.1,1344.0 882.6,1346.1 831.4,1346.6 777.1,1345.4 719.7,1342.3 658.9,1337.1 594.4,1329.8 525.9,1320.0 453.3,1307.7  Z" style="stroke-width: 2.0;  stroke: rgb(82,82,82); fill: rgb(53,128,0); opacity: 0.667;" />
<path d="M 453.275,1307.658 A 1064.250,1064.250 0.00 0,1 454.0,1303.7 L 454.0,1303.7 526.6,1316.3 595.1,1326.3 659.6,1333.9 720.5,1339.3 778.0,1342.5 832.3,1344.0 883.7,1343.6 932.4,1341.7 978.6,1338.4 1022.5,1333.6 1064.3,1327.6 1104.2,1320.4 1142.4,1312.0 1179.1,1302.5 1214.3,1292.0 1248.3,1280.4 1281.3,1267.8 1313.3,1254.1 1344.5,1239.3 1375.1,1223.4 1405.0,1206.2 1434.6,1187.8 1463.8,1168.0 1492.7,1146.7 1521.5,1123.8 1550.2,1099.2 1578.9,1072.6 1607.7,1044.0 1636.5,1013.2 1665.5,979.8 1694.7,943.9 1724.1,905.0 1753.8,863.0 1783.7,817.7 1813.9,768.6 1844.3,715.6 1875.0,658.3 1905.9,596.4 1937.1,529.7  A 1064.250,1064.250 0.00 0,0 1933.4,528.0 L 1933.4,528.0 1902.5,594.9 1871.8,656.9 1841.4,714.3 1811.1,767.4 1781.1,816.6 1751.4,862.1 1721.9,904.2 1692.6,943.2 1663.6,979.2 1634.7,1012.6 1606.0,1043.6 1577.3,1072.3 1548.7,1099.0 1520.1,1123.7 1491.4,1146.7 1462.5,1168.1 1433.4,1188.0 1403.9,1206.6 1374.0,1223.8 1343.5,1239.9 1312.4,1254.8 1280.4,1268.6 1247.5,1281.4 1213.5,1293.1 1178.3,1303.7 1141.7,1313.3 1103.6,1321.9 1063.7,1329.2 1021.9,1335.4 978.0,1340.3 931.8,1343.9 883.2,1346.0 831.8,1346.5 777.4,1345.3 719.9,1342.2 659.0,1337.1 594.4,1329.8 525.9,1320.0 453.3,1307.7  Z" style="stroke-width: 2.0;  stroke: rgb(82,82,82); fill: rgb(0,0,204); opacity: 0.667;" />
<path d="M 453.275,1307.658 A 1064.250,1064.250 0.00 0,1 454.0,1303.7 L 454.0,1303.7 526.5,1318.5 594.7,1334.5 658.9,1351.8 719.4,1369.9 776.5,1388.9 830.4,1408.5 881.5,1428.6 930.0,1449.1 976.2,1470.0 1020.2,1491.0 1062.4,1512.2 1102.9,1533.5 1142.0,1554.9 1179.9,1576.3 1216.6,1597.7 1252.6,1619.2 1287.8,1640.7 1322.5,1662.4 1356.8,1684.2 1390.9,1706.2 1424.8,1728.5 1458.8,1751.3 1492.9,1774.6 1527.2,1798.5 1561.9,1823.2 1596.9,1849.0 1632.5,1875.8 1668.5,1904.0 1705.2,1933.8 1742.5,1965.3 1780.4,1998.8 1819.0,2034.6 1858.4,2072.9 1898.4,2114.1 1939.1,2158.4 1980.5,2206.1 2022.6,2257.5 2065.2,2313.1 2108.5,2373.2  A 1064.250,1064.250 0.00 0,0 2111.8,2370.9 L 2111.8,2370.9 2068.3,2311.0 2025.4,2255.5 1983.2,2204.2 1941.6,2156.7 1900.7,2112.6 1860.5,2071.6 1821.0,2033.4 1782.3,1997.8 1744.2,1964.4 1706.8,1933.0 1670.1,1903.4 1633.9,1875.3 1598.3,1848.6 1563.1,1823.0 1528.4,1798.4 1493.9,1774.6 1459.8,1751.4 1425.7,1728.8 1391.6,1706.6 1357.5,1684.7 1323.1,1663.0 1288.3,1641.5 1253.0,1620.1 1217.0,1598.8 1180.1,1577.5 1142.2,1556.2 1103.1,1535.0 1062.5,1513.9 1020.2,1492.8 976.1,1471.9 929.9,1451.3 881.3,1430.9 830.1,1411.0 776.1,1391.6 718.9,1372.9 658.4,1354.9 594.1,1338.0 525.8,1322.1 453.3,1307.7  Z" style="stroke-width: 2.0;  stroke: rgb(82,82,82); fill: rgb(102,153,255); opacity: 0.667;" />
<path d="M 525.414,1072.437 A 1064.250,1064.250 0.00 0,1 527.0,1068.8 L 527.0,1068.8 594.5,1097.8 657.9,1123.6 717.5,1146.2 773.6,1165.9 826.2,1182.8 875.8,1197.1 922.3,1209.0 966.2,1218.5 1007.4,1225.9 1046.2,1231.2 1082.8,1234.5 1117.4,1235.8 1150.0,1235.3 1180.8,1233.0 1210.1,1229.0 1237.8,1223.2 1264.1,1215.6 1289.1,1206.3 1313.0,1195.3 1335.7,1182.4 1357.5,1167.7 1378.4,1151.1 1398.5,1132.4 1417.8,1111.7 1436.3,1088.8 1454.2,1063.6 1471.5,1035.9 1488.2,1005.6 1504.3,972.6 1519.8,936.6 1534.8,897.5 1549.3,855.1 1563.2,809.1 1576.5,759.3 1589.3,705.4 1601.4,647.3 1612.8,584.5 1623.5,516.9 1633.5,444.2  A 1064.250,1064.250 0.00 0,0 1629.5,443.7 L 1629.5,443.7 1619.8,516.5 1609.3,584.1 1598.1,646.9 1586.3,705.1 1573.7,759.0 1560.6,808.8 1546.9,854.9 1532.6,897.4 1517.7,936.6 1502.3,972.6 1486.3,1005.7 1469.8,1036.0 1452.6,1063.8 1434.8,1089.1 1416.3,1112.0 1397.1,1132.8 1377.1,1151.5 1356.3,1168.2 1334.5,1183.0 1311.8,1196.0 1288.0,1207.1 1263.0,1216.5 1236.7,1224.2 1209.0,1230.1 1179.8,1234.3 1149.0,1236.7 1116.4,1237.3 1081.8,1236.0 1045.2,1232.9 1006.4,1227.8 965.1,1220.6 921.2,1211.2 874.6,1199.5 825.1,1185.4 772.3,1168.6 716.2,1149.2 656.5,1126.8 593.0,1101.3 525.4,1072.4  Z" style="stroke-width: 2.0;  stroke: rgb(82,82,82); fill: rgb(153,204,255); opacity: 0.667;" />
<path d="M 525.414,1072.437 A 1064.250,1064.250 0.00 0,1 527.0,1068.8 L 527.0,1068.8 594.6,1097.8 658.2,1123.5 718.1,1145.9 774.6,1165.5 827.9,1182.2 878.1,1196.3 925.4,1208.0 970.2,1217.3 1012.5,1224.5 1052.5,1229.7 1090.3,1232.9 1126.3,1234.2 1160.4,1233.7 1193.0,1231.4 1224.0,1227.5 1253.6,1221.8 1282.0,1214.6 1309.3,1205.6 1335.6,1194.9 1361.0,1182.6 1385.6,1168.4 1409.4,1152.5 1432.7,1134.6 1455.4,1114.7 1477.6,1092.7 1499.4,1068.5 1520.8,1041.9 1541.9,1012.7 1562.8,980.9 1583.4,946.3 1603.8,908.5 1623.9,867.5 1643.9,823.0 1663.8,774.8 1683.4,722.5 1702.8,666.0 1722.0,604.9 1741.0,539.0 1759.7,467.9  A 1064.250,1064.250 0.00 0,0 1755.8,467.0 L 1755.8,467.0 1737.4,538.1 1718.6,604.1 1699.7,665.2 1680.4,721.8 1661.0,774.1 1641.4,822.5 1621.6,867.1 1601.5,908.1 1581.3,946.0 1560.8,980.7 1540.1,1012.6 1519.1,1041.8 1497.8,1068.5 1476.1,1092.8 1453.9,1114.8 1431.3,1134.8 1408.1,1152.8 1384.3,1168.9 1359.8,1183.1 1334.5,1195.6 1308.2,1206.3 1280.9,1215.4 1252.6,1222.8 1222.9,1228.5 1191.9,1232.6 1159.4,1234.9 1125.3,1235.6 1089.3,1234.4 1051.4,1231.4 1011.4,1226.4 969.1,1219.4 924.3,1210.2 876.9,1198.7 826.7,1184.7 773.3,1168.2 716.8,1148.9 656.8,1126.7 593.0,1101.2 525.4,1072.4  Z" style="stroke-width: 2.0;  stroke: rgb(82,82,82); fill: rgb(0,255,255); opacity: 0.667;" />
<path d="M 525.414,1072.437 A 1064.250,1064.250 0.00 0,1 527.0,1068.8 L 527.0,1068.8 594.6,1097.8 658.5,1123.3 718.9,1145.7 776.0,1165.0 830.0,1181.6 881.1,1195.5 929.5,1207.0 975.4,1216.3 1019.0,1223.4 1060.5,1228.5 1100.0,1231.7 1137.8,1233.2 1173.9,1232.9 1208.5,1231.0 1241.8,1227.5 1273.8,1222.4 1304.9,1215.8 1335.0,1207.6 1364.3,1197.9 1392.9,1186.6 1420.9,1173.7 1448.5,1159.1 1475.7,1142.8 1502.6,1124.6 1529.3,1104.4 1555.9,1082.2 1582.4,1057.7 1609.0,1030.9 1635.7,1001.6 1662.5,969.5 1689.5,934.5 1716.7,896.4 1744.3,854.9 1772.1,809.8 1800.2,760.9 1828.7,707.8 1857.6,650.2 1886.8,587.9 1916.3,520.6  A 1064.250,1064.250 0.00 0,0 1912.6,519.0 L 1912.6,519.0 1883.3,586.5 1854.3,648.9 1825.7,706.5 1797.4,759.7 1769.5,808.8 1741.8,854.0 1714.5,895.6 1687.4,933.8 1660.5,968.9 1633.8,1001.0 1607.2,1030.5 1580.8,1057.4 1554.3,1082.0 1527.8,1104.3 1501.2,1124.5 1474.3,1142.9 1447.2,1159.3 1419.7,1174.0 1391.7,1187.0 1363.1,1198.4 1333.9,1208.2 1303.8,1216.5 1272.8,1223.3 1240.7,1228.4 1207.5,1232.1 1172.9,1234.1 1136.8,1234.5 1099.0,1233.2 1059.5,1230.2 1018.0,1225.2 974.3,1218.3 928.4,1209.2 879.9,1197.8 828.8,1184.1 774.7,1167.8 717.6,1148.6 657.1,1126.5 593.1,1101.2 525.4,1072.4  Z" style="stroke-width: 2.0;  stroke: rgb(82,82,82); fill: rgb(204,255,255); opacity: 0.667;" />
<path d="M 525.414,1072.437 A 1064.250,1064.250 0.00 0,1 527.0,1068.8 L 527.0,1068.8 594.7,1097.8 658.6,1123.3 719.0,1145.6 776.2,1165.0 830.3,1181.5 881.5,1195.4 930.1,1206.9 976.1,1216.2 1019.9,1223.3 1061.6,1228.4 1101.4,1231.7 1139.3,1233.1 1175.7,1232.9 1210.6,1231.1 1244.2,1227.6 1276.6,1222.7 1308.0,1216.2 1338.4,1208.2 1368.1,1198.6 1397.2,1187.5 1425.7,1174.8 1453.7,1160.4 1481.4,1144.3 1508.9,1126.4 1536.2,1106.6 1563.4,1084.7 1590.6,1060.6 1617.9,1034.2 1645.4,1005.2 1673.0,973.6 1700.9,939.1 1729.1,901.4 1757.6,860.5 1786.4,815.9 1815.7,767.5 1845.4,715.0 1875.5,658.1 1906.1,596.4 1937.1,529.7  A 1064.250,1064.250 0.00 0,0 1933.4,528.0 L 1933.4,528.0 1902.7,594.9 1872.3,656.6 1842.4,713.7 1812.9,766.3 1783.8,814.8 1755.1,859.5 1726.8,900.6 1698.8,938.3 1671.0,972.9 1643.5,1004.7 1616.2,1033.7 1589.0,1060.2 1561.8,1084.4 1534.7,1106.4 1507.5,1126.4 1480.1,1144.4 1452.4,1160.6 1424.4,1175.1 1396.0,1187.9 1367.0,1199.1 1337.3,1208.8 1306.9,1216.9 1275.5,1223.5 1243.1,1228.6 1209.6,1232.2 1174.7,1234.1 1138.3,1234.5 1100.4,1233.2 1060.6,1230.1 1018.9,1225.1 975.1,1218.1 928.9,1209.1 880.3,1197.8 829.1,1184.0 774.9,1167.7 717.7,1148.6 657.2,1126.5 593.1,1101.2 525.4,1072.4  Z" style="stroke-width: 2.0;  stroke: rgb(82,82,82); fill: rgb(153,0,204); opacity: 0.667;" />
<path d="M 525.414,1072.437 A 1064.250,1064.250 0.00 0,1 527.0,1068.8 L 527.0,1068.8 594.3,1099.9 657.3,1131.4 716.4,1163.3 771.8,1195.3 823.9,1227.3 873.1,1259.3 919.5,1291.0 963.5,1322.5 1005.4,1353.6 1045.3,1384.4 1083.6,1414.6 1120.5,1444.5 1156.3,1473.8 1191.0,1502.7 1224.9,1531.1 1258.3,1559.1 1291.2,1586.7 1323.8,1613.9 1356.4,1640.9 1388.9,1667.8 1421.7,1694.6 1454.6,1721.5 1488.0,1748.6 1521.8,1776.0 1556.2,1803.9 1591.1,1832.5 1626.7,1862.0 1663.0,1892.5 1700.0,1924.4 1737.8,1957.8 1776.3,1992.9 1815.6,2030.1 1855.6,2069.7 1896.3,2111.8 1937.7,2156.9 1979.6,2205.3 2022.1,2257.2 2065.1,2313.0 2108.5,2373.2  A 1064.250,1064.250 0.00 0,0 2111.8,2370.9 L 2111.8,2370.9 2068.2,2310.9 2025.0,2255.2 1982.3,2203.4 1940.2,2155.3 1898.6,2110.3 1857.8,2068.3 1817.6,2029.0 1778.2,1991.9 1739.5,1956.9 1701.6,1923.6 1664.5,1891.9 1628.1,1861.5 1592.4,1832.1 1557.3,1803.7 1522.9,1775.9 1488.9,1748.6 1455.5,1721.7 1422.4,1694.9 1389.6,1668.2 1356.9,1641.5 1324.3,1614.6 1291.5,1587.4 1258.5,1560.0 1225.0,1532.1 1191.0,1503.9 1156.2,1475.1 1120.3,1445.9 1083.3,1416.2 1044.9,1386.1 1004.8,1355.5 962.8,1324.5 918.7,1293.2 872.2,1261.6 822.9,1229.9 770.7,1198.0 715.1,1166.2 655.9,1134.6 592.8,1103.3 525.4,1072.4  Z" style="stroke-width: 2.0;  stroke: rgb(82,82,82); fill: rgb(204,51,255); opacity: 0.667;" />
<path d="M 525.414,1072.437 A 1064.250,1064.250 0.00 0,1 527.0,1068.8 L 527.0,1068.8 593.9,1098.6 655.6,1126.4 712.4,1152.3 764.5,1176.4 812.1,1198.8 855.5,1219.6 894.9,1238.9 930.4,1256.7 962.3,1273.2 990.6,1288.3 1015.6,1302.2 1037.3,1314.9 1055.9,1326.5 1071.4,1337.0 1084.0,1346.5 1093.6,1355.0 1100.5,1362.5 1104.5,1369.1 1105.8,1374.8 1104.3,1379.7 1100.0,1383.6 1092.9,1386.8 1083.0,1389.1 1070.3,1390.6 1054.5,1391.3 1035.8,1391.1 1013.9,1390.1 988.8,1388.3 960.4,1385.6 928.5,1382.0 892.9,1377.5 853.5,1372.1 810.1,1365.6 762.6,1358.1 710.6,1349.6 654.0,1340.0 592.6,1329.1 526.0,1317.1 454.0,1303.7  A 1064.250,1064.250 0.00 0,0 453.3,1307.7 L 453.3,1307.7 525.3,1320.7 591.9,1332.6 653.4,1343.2 710.1,1352.6 762.0,1360.9 809.6,1368.2 853.0,1374.5 892.4,1379.8 928.0,1384.2 960.0,1387.6 988.4,1390.2 1013.5,1392.0 1035.4,1392.9 1054.1,1393.0 1069.8,1392.2 1082.6,1390.7 1092.5,1388.3 1099.6,1385.2 1103.8,1381.1 1105.3,1376.3 1104.0,1370.6 1100.0,1364.0 1093.1,1356.5 1083.4,1348.1 1070.8,1338.7 1055.2,1328.2 1036.6,1316.7 1014.8,1304.1 989.8,1290.3 961.4,1275.2 929.5,1258.9 893.9,1241.2 854.5,1222.1 811.0,1201.4 763.2,1179.2 711.1,1155.3 654.2,1129.6 592.4,1102.0 525.4,1072.4  Z" style="stroke-width: 2.0;  stroke: rgb(82,82,82); fill: rgb(204,153,255); opacity: 0.667;" />
<path d="M 1059.208,531.325 A 1064.250,1064.250 0.00 0,1 1062.9,529.7 L 1062.9,529.7 1093.3,596.3 1122.0,657.7 1149.2,714.1 1174.9,765.8 1199.2,813.0 1222.2,856.0 1244.0,894.9 1264.6,930.0 1284.2,961.3 1302.7,989.2 1320.2,1013.7 1336.9,1034.9 1352.8,1053.0 1367.9,1068.1 1382.3,1080.3 1396.1,1089.6 1409.3,1096.1 1422.0,1099.8 1434.2,1100.8 1445.9,1099.0 1457.3,1094.5 1468.3,1087.3 1479.0,1077.2 1489.5,1064.2 1499.7,1048.4 1509.7,1029.5 1519.6,1007.5 1529.3,982.3 1538.9,953.8 1548.4,921.7 1557.9,886.0 1567.3,846.4 1576.8,802.9 1586.2,755.1 1595.6,702.8 1605.0,645.8 1614.5,583.9 1623.9,516.8 1633.5,444.2  A 1064.250,1064.250 0.00 0,0 1629.5,443.7 L 1629.5,443.7 1620.2,516.3 1611.0,583.5 1601.8,645.4 1592.6,702.4 1583.4,754.7 1574.1,802.6 1564.9,846.2 1555.6,885.8 1546.3,921.5 1536.8,953.6 1527.3,982.2 1517.7,1007.5 1507.9,1029.5 1498.0,1048.4 1487.8,1064.3 1477.4,1077.3 1466.7,1087.4 1455.7,1094.7 1444.4,1099.2 1432.7,1101.1 1420.5,1100.1 1407.8,1096.4 1394.6,1090.0 1380.8,1080.7 1366.3,1068.6 1351.1,1053.6 1335.2,1035.5 1318.4,1014.3 1300.8,989.9 1282.1,962.1 1262.5,930.8 1241.7,895.9 1219.8,857.1 1196.6,814.2 1172.1,767.1 1146.2,715.5 1118.8,659.1 1089.9,597.9 1059.2,531.3  Z" style="stroke-width: 2.0;  stroke: rgb(82,82,82); fill: rgb(102,102,102); opacity: 0.667;" />
<path d="M 1059.208,531.325 A 1064.250,1064.250 0.00 0,1 1062.9,529.7 L 1062.9,529.7 1093.3,596.3 1122.3,657.7 1149.9,714.1 1176.1,765.7 1201.0,812.9 1224.8,855.9 1247.4,894.8 1269.0,929.8 1289.6,961.2 1309.4,989.1 1328.3,1013.7 1346.4,1035.1 1363.9,1053.4 1380.7,1068.7 1397.0,1081.1 1412.7,1090.6 1428.0,1097.5 1443.0,1101.6 1457.6,1103.0 1471.9,1101.7 1486.1,1097.8 1500.1,1091.1 1514.0,1081.7 1527.8,1069.5 1541.6,1054.4 1555.5,1036.4 1569.5,1015.3 1583.6,991.1 1597.9,963.6 1612.4,932.6 1627.2,898.1 1642.3,859.8 1657.7,817.5 1673.6,771.1 1689.8,720.2 1706.5,664.8 1723.7,604.4 1741.5,538.9 1759.7,467.9  A 1064.250,1064.250 0.00 0,0 1755.8,467.0 L 1755.8,467.0 1737.8,538.0 1720.3,603.6 1703.4,664.0 1686.9,719.5 1670.8,770.4 1655.1,816.9 1639.8,859.3 1624.9,897.6 1610.2,932.2 1595.8,963.2 1581.6,990.8 1567.6,1015.1 1553.7,1036.2 1539.9,1054.2 1526.2,1069.4 1512.4,1081.6 1498.5,1091.1 1484.6,1097.8 1470.4,1101.8 1456.1,1103.2 1441.5,1101.8 1426.5,1097.7 1411.2,1091.0 1395.4,1081.4 1379.1,1069.1 1362.2,1053.9 1344.7,1035.7 1326.4,1014.4 1307.4,989.9 1287.6,962.0 1266.8,930.7 1245.1,895.7 1222.3,856.9 1198.4,814.1 1173.3,767.0 1146.9,715.4 1119.1,659.1 1089.9,597.8 1059.2,531.3  Z" style="stroke-width: 2.0;  stroke: rgb(82,82,82); fill: rgb(153,153,153); opacity: 0.667;" />
<path d="M 1059.208,531.325 A 1064.250,1064.250 0.00 0,1 1062.9,529.7 L 1062.9,529.7 1093.4,596.3 1122.7,657.7 1150.7,714.1 1177.5,765.7 1203.3,813.0 1228.0,856.0 1251.7,895.0 1274.6,930.2 1296.6,961.7 1317.9,989.9 1338.5,1014.8 1358.5,1036.5 1377.9,1055.2 1396.9,1071.0 1415.4,1084.0 1433.7,1094.3 1451.6,1101.9 1469.4,1106.9 1487.0,1109.3 1504.6,1109.1 1522.2,1106.3 1539.9,1101.0 1557.7,1093.0 1575.7,1082.3 1594.0,1068.9 1612.6,1052.7 1631.6,1033.6 1651.1,1011.4 1671.2,986.1 1691.9,957.5 1713.2,925.5 1735.3,889.8 1758.2,850.3 1782.0,806.8 1806.7,759.0 1832.5,706.8 1859.3,649.8 1887.2,587.8 1916.3,520.6  A 1064.250,1064.250 0.00 0,0 1912.6,519.0 L 1912.6,519.0 1883.8,586.4 1856.1,648.5 1829.5,705.5 1803.9,757.9 1779.4,805.7 1755.8,849.3 1733.0,888.9 1711.1,924.7 1689.8,956.8 1669.3,985.5 1649.3,1010.9 1629.9,1033.1 1610.9,1052.3 1592.3,1068.6 1574.1,1082.0 1556.1,1092.8 1538.4,1100.8 1520.7,1106.2 1503.1,1109.1 1485.6,1109.3 1467.9,1107.0 1450.1,1102.1 1432.1,1094.6 1413.9,1084.3 1395.3,1071.4 1376.2,1055.7 1356.7,1037.0 1336.6,1015.4 1315.9,990.6 1294.6,962.5 1272.4,931.0 1249.4,895.9 1225.5,857.0 1200.7,814.1 1174.8,767.0 1147.7,715.4 1119.5,659.1 1090.0,597.8 1059.2,531.3  Z" style="stroke-width: 2.0;  stroke: rgb(82,82,82); fill: rgb(204,204,204); opacity: 0.667;" />
<path d="M 1059.208,531.325 A 1064.250,1064.250 0.00 0,1 1062.9,529.7 L 1062.9,529.7 1093.5,596.3 1122.7,657.7 1150.8,714.1 1177.7,765.8 1203.6,813.0 1228.4,856.0 1252.3,895.0 1275.3,930.2 1297.5,961.9 1319.0,990.1 1339.9,1015.0 1360.1,1036.8 1379.8,1055.6 1399.1,1071.5 1417.9,1084.6 1436.5,1095.0 1454.8,1102.7 1473.0,1107.9 1491.0,1110.4 1509.0,1110.4 1527.0,1107.9 1545.2,1102.7 1563.5,1095.0 1582.1,1084.6 1600.9,1071.5 1620.2,1055.6 1639.9,1036.8 1660.1,1015.0 1681.0,990.1 1702.4,961.9 1724.7,930.2 1747.7,895.0 1771.6,856.0 1796.4,813.0 1822.2,765.7 1849.2,714.1 1877.2,657.7 1906.5,596.3 1937.1,529.7  A 1064.250,1064.250 0.00 0,0 1933.4,528.0 L 1933.4,528.0 1903.1,594.8 1874.1,656.2 1846.2,712.7 1819.5,764.5 1793.8,811.9 1769.1,855.0 1745.4,894.1 1722.5,929.4 1700.4,961.1 1679.0,989.4 1658.3,1014.4 1638.1,1036.3 1618.5,1055.1 1599.3,1071.1 1580.5,1084.3 1562.0,1094.8 1543.7,1102.6 1525.6,1107.8 1507.5,1110.4 1489.5,1110.5 1471.5,1108.0 1453.3,1102.9 1435.0,1095.2 1416.4,1084.9 1397.4,1071.9 1378.1,1056.0 1358.3,1037.3 1338.0,1015.6 1317.1,990.8 1295.5,962.6 1273.2,931.1 1250.0,896.0 1226.0,857.0 1201.0,814.1 1175.0,767.0 1147.8,715.4 1119.6,659.1 1090.0,597.8 1059.2,531.3  Z" style="stroke-width: 2.0;  stroke: rgb(82,82,82); fill: rgb(204,204,153); opacity: 0.667;" />
<path d="M 1059.208,531.325 A 1064.250,1064.250 0.00 0,1 1062.9,529.7 L 1062.9,529.7 1094.5,596.9 1126.8,660.3 1159.4,720.0 1192.2,776.4 1225.0,829.8 1257.7,880.5 1290.0,928.8 1321.8,974.9 1353.0,1019.1 1383.6,1061.7 1413.3,1102.9 1442.2,1142.9 1470.2,1181.9 1497.2,1220.3 1523.2,1258.1 1548.3,1295.6 1572.5,1333.0 1595.7,1370.4 1618.0,1408.0 1639.6,1445.9 1660.4,1484.4 1680.5,1523.5 1700.2,1563.4 1719.5,1604.2 1738.6,1646.0 1757.7,1688.8 1776.8,1732.9 1796.4,1778.2 1816.4,1824.9 1837.3,1872.9 1859.2,1922.4 1882.4,1973.4 1907.3,2025.9 1934.1,2079.9 1963.1,2135.5 1994.6,2192.6 2029.1,2251.3 2066.9,2311.5 2108.5,2373.2  A 1064.250,1064.250 0.00 0,0 2111.8,2370.9 L 2111.8,2370.9 2070.0,2309.3 2032.0,2249.3 1997.2,2190.8 1965.5,2133.7 1936.2,2078.3 1909.3,2024.4 1884.2,1972.0 1860.8,1921.1 1838.7,1871.7 1817.7,1823.7 1797.4,1777.1 1777.7,1731.9 1758.4,1687.9 1739.2,1645.1 1719.9,1603.4 1700.5,1562.7 1680.6,1522.8 1660.3,1483.8 1639.3,1445.4 1617.7,1407.5 1595.2,1370.0 1571.8,1332.7 1547.6,1295.4 1522.3,1258.0 1496.1,1220.3 1469.0,1182.1 1440.8,1143.1 1411.8,1103.2 1381.9,1062.1 1351.2,1019.7 1319.8,975.6 1287.8,929.6 1255.3,881.5 1222.5,830.9 1189.5,777.6 1156.4,721.3 1123.6,661.7 1091.1,598.5 1059.2,531.3  Z" style="stroke-width: 2.0;  stroke: rgb(82,82,82); fill: rgb(251,106,74); opacity: 0.667;" />
<path d="M 1059.208,531.325 A 1064.250,1064.250 0.00 0,1 1062.9,529.7 L 1062.9,529.7 1092.5,596.8 1118.9,659.5 1142.3,718.2 1162.9,773.0 1180.9,824.1 1196.3,871.8 1209.2,916.3 1219.9,957.7 1228.4,996.2 1234.8,1032.0 1239.1,1065.3 1241.5,1096.2 1242.0,1124.8 1240.6,1151.3 1237.3,1175.8 1232.2,1198.4 1225.3,1219.2 1216.6,1238.3 1205.9,1255.8 1193.4,1271.7 1178.9,1286.2 1162.4,1299.2 1143.8,1310.8 1123.0,1321.1 1100.0,1330.0 1074.6,1337.6 1046.7,1343.9 1016.1,1348.9 982.7,1352.5 946.4,1354.7 907.0,1355.5 864.2,1354.9 818.0,1352.8 768.0,1349.0 714.1,1343.7 656.0,1336.5 593.4,1327.6 526.2,1316.7 454.0,1303.7  A 1064.250,1064.250 0.00 0,0 453.3,1307.7 L 453.3,1307.7 525.5,1320.3 592.8,1331.0 655.4,1339.7 713.5,1346.6 767.4,1351.8 817.4,1355.3 863.7,1357.3 906.4,1357.8 945.9,1356.8 982.2,1354.4 1015.5,1350.7 1046.1,1345.6 1074.0,1339.2 1099.4,1331.5 1122.4,1322.5 1143.1,1312.2 1161.6,1300.5 1178.1,1287.4 1192.5,1272.9 1205.0,1256.9 1215.6,1239.4 1224.3,1220.2 1231.1,1199.4 1236.1,1176.8 1239.3,1152.3 1240.6,1125.8 1240.0,1097.1 1237.5,1066.3 1233.0,1033.0 1226.5,997.2 1217.9,958.8 1207.0,917.4 1193.9,873.0 1178.3,825.4 1160.2,774.3 1139.4,719.6 1115.7,661.0 1089.1,598.3 1059.2,531.3  Z" style="stroke-width: 2.0;  stroke: rgb(82,82,82); fill: rgb(116,196,118); opacity: 0.667;" />
<path d="M 1059.208,531.325 A 1064.250,1064.250 0.00 0,1 1062.9,529.7 L 1062.9,529.7 1092.6,596.7 1119.3,659.1 1143.1,717.2 1164.3,771.3 1182.9,821.5 1199.1,868.0 1213.0,911.1 1224.6,950.9 1234.1,987.6 1241.6,1021.3 1247.1,1052.3 1250.7,1080.7 1252.4,1106.6 1252.3,1130.1 1250.4,1151.3 1246.6,1170.3 1241.1,1187.2 1233.7,1202.2 1224.6,1215.2 1213.5,1226.3 1200.6,1235.5 1185.7,1243.0 1168.8,1248.6 1149.8,1252.5 1128.6,1254.5 1105.1,1254.8 1079.2,1253.2 1050.8,1249.8 1019.8,1244.5 986.0,1237.2 949.2,1227.9 909.3,1216.5 866.2,1202.9 819.6,1187.0 769.3,1168.7 715.1,1147.9 656.8,1124.4 594.2,1098.0 527.0,1068.8  A 1064.250,1064.250 0.00 0,0 525.4,1072.4 L 525.4,1072.4 592.7,1101.5 655.4,1127.6 713.8,1150.8 768.0,1171.5 818.4,1189.6 865.1,1205.3 908.3,1218.8 948.2,1230.0 985.0,1239.2 1018.8,1246.3 1049.9,1251.5 1078.3,1254.8 1104.2,1256.3 1127.6,1255.9 1148.8,1253.8 1167.8,1249.9 1184.7,1244.2 1199.6,1236.7 1212.5,1227.4 1223.5,1216.2 1232.6,1203.2 1239.9,1188.2 1245.4,1171.3 1249.0,1152.2 1250.9,1131.0 1250.9,1107.5 1249.1,1081.7 1245.4,1053.3 1239.8,1022.3 1232.2,988.6 1222.5,951.9 1210.7,912.2 1196.7,869.1 1180.4,822.7 1161.5,772.6 1140.2,718.6 1116.1,660.6 1089.2,598.2 1059.2,531.3  Z" style="stroke-width: 2.0;  stroke: rgb(82,82,82); fill: rgb(107,174,214); opacity: 0.667;" />
<path d="M 1380.814,442.445 A 1064.250,1064.250 0.00 0,1 1384.8,442.0 L 1384.8,442.0 1392.9,514.8 1400.6,582.0 1408.1,643.9 1415.2,700.9 1422.1,753.1 1428.8,800.8 1435.2,844.2 1441.4,883.4 1447.4,918.8 1453.3,950.4 1459.0,978.4 1464.5,1003.0 1469.9,1024.2 1475.2,1042.2 1480.5,1057.0 1485.7,1068.8 1490.8,1077.6 1495.9,1083.5 1501.0,1086.4 1506.1,1086.5 1511.3,1083.6 1516.5,1077.8 1521.8,1069.1 1527.2,1057.4 1532.7,1042.7 1538.3,1024.8 1544.1,1003.6 1550.1,979.2 1556.2,951.3 1562.6,919.8 1569.2,884.5 1576.1,845.4 1583.3,802.1 1590.8,754.6 1598.6,702.5 1606.7,645.7 1615.2,583.8 1624.1,516.8 1633.5,444.2  A 1064.250,1064.250 0.00 0,0 1629.5,443.7 L 1629.5,443.7 1620.4,516.3 1611.8,583.4 1603.5,645.3 1595.6,702.1 1588.0,754.2 1580.7,801.8 1573.6,845.1 1566.9,884.3 1560.4,919.6 1554.2,951.1 1548.1,979.0 1542.2,1003.5 1536.5,1024.6 1530.9,1042.5 1525.5,1057.3 1520.2,1069.0 1514.9,1077.8 1509.7,1083.6 1504.6,1086.5 1499.5,1086.4 1494.3,1083.5 1489.2,1077.7 1484.0,1068.9 1478.8,1057.1 1473.5,1042.3 1468.1,1024.3 1462.6,1003.1 1457.0,978.6 1451.2,950.6 1445.2,919.0 1439.1,883.7 1432.7,844.4 1426.2,801.1 1419.3,753.4 1412.2,701.2 1404.8,644.3 1397.2,582.4 1389.2,515.2 1380.8,442.4  Z" style="stroke-width: 2.0;  stroke: rgb(82,82,82); fill: rgb(253,141,60); opacity: 0.667;" />
<path d="M 1380.814,442.445 A 1064.250,1064.250 0.00 0,1 1384.8,442.0 L 1384.8,442.0 1393.0,514.8 1400.9,582.0 1408.7,644.0 1416.4,701.0 1423.9,753.2 1431.3,801.0 1438.6,844.4 1445.8,883.8 1452.9,919.3 1460.0,951.0 1467.0,979.2 1474.0,1004.0 1481.0,1025.4 1488.1,1043.6 1495.2,1058.8 1502.3,1070.9 1509.6,1080.1 1517.0,1086.4 1524.5,1089.8 1532.2,1090.3 1540.1,1088.0 1548.3,1082.8 1556.8,1074.7 1565.5,1063.7 1574.6,1049.6 1584.1,1032.5 1594.0,1012.3 1604.4,988.7 1615.2,961.8 1626.6,931.3 1638.5,897.1 1651.1,859.1 1664.3,817.1 1678.2,770.8 1692.8,720.1 1708.2,664.7 1724.5,604.4 1741.7,538.9 1759.7,467.9  A 1064.250,1064.250 0.00 0,0 1755.8,467.0 L 1755.8,467.0 1738.0,538.0 1721.1,603.5 1705.1,663.9 1689.8,719.4 1675.4,770.1 1661.7,816.5 1648.6,858.6 1636.2,896.6 1624.4,930.8 1613.2,961.3 1602.4,988.3 1592.2,1011.9 1582.4,1032.2 1572.9,1049.4 1563.9,1063.4 1555.2,1074.5 1546.7,1082.6 1538.6,1087.8 1530.7,1090.2 1522.9,1089.7 1515.4,1086.3 1508.0,1080.1 1500.7,1070.9 1493.5,1058.8 1486.3,1043.7 1479.2,1025.5 1472.1,1004.1 1465.0,979.3 1457.9,951.2 1450.7,919.5 1443.5,884.0 1436.1,844.7 1428.7,801.2 1421.1,753.5 1413.4,701.3 1405.5,644.3 1397.5,582.4 1389.2,515.2 1380.8,442.4  Z" style="stroke-width: 2.0;  stroke: rgb(82,82,82); fill: rgb(255,0,0); opacity: 0.667;" />
<path d="M 1380.814,442.445 A 1064.250,1064.250 0.00 0,1 1384.8,442.0 L 1384.8,442.0 1393.1,514.8 1401.3,582.0 1409.6,644.1 1417.9,701.2 1426.2,753.6 1434.5,801.5 1442.9,845.1 1451.4,884.8 1459.9,920.5 1468.5,952.6 1477.2,981.2 1486.0,1006.4 1495.0,1028.4 1504.2,1047.3 1513.6,1063.1 1523.2,1076.0 1533.1,1086.0 1543.3,1093.1 1553.9,1097.5 1564.8,1099.1 1576.2,1098.0 1588.1,1094.1 1600.4,1087.4 1613.4,1077.8 1626.9,1065.4 1641.2,1050.0 1656.2,1031.6 1671.9,1010.0 1688.5,985.2 1706.1,956.9 1724.6,925.1 1744.1,889.7 1764.8,850.3 1786.6,806.8 1809.7,759.1 1834.2,706.9 1860.0,649.9 1887.4,587.9 1916.3,520.6  A 1064.250,1064.250 0.00 0,0 1912.6,519.0 L 1912.6,519.0 1884.0,586.4 1856.8,648.5 1831.2,705.6 1806.9,757.9 1784.0,805.8 1762.3,849.3 1741.8,888.7 1722.4,924.3 1704.0,956.2 1686.6,984.5 1670.1,1009.4 1654.4,1031.0 1639.5,1049.5 1625.3,1064.9 1611.8,1077.4 1598.9,1087.0 1586.5,1093.8 1574.7,1097.7 1563.3,1098.9 1552.4,1097.3 1541.8,1093.0 1531.6,1085.8 1521.6,1075.9 1511.9,1063.0 1502.5,1047.3 1493.2,1028.4 1484.2,1006.5 1475.2,981.3 1466.4,952.8 1457.7,920.7 1449.0,885.0 1440.4,845.4 1431.9,801.7 1423.4,753.8 1414.8,701.5 1406.3,644.4 1397.8,582.4 1389.3,515.2 1380.8,442.4  Z" style="stroke-width: 2.0;  stroke: rgb(82,82,82); fill: rgb(255,0,204); opacity: 0.667;" />
<path d="M 1380.814,442.445 A 1064.250,1064.250 0.00 0,1 1384.8,442.0 L 1384.8,442.0 1393.1,514.8 1401.4,582.1 1409.7,644.1 1418.1,701.2 1426.5,753.6 1435.0,801.6 1443.5,845.3 1452.1,884.9 1460.8,920.8 1469.6,952.9 1478.6,981.6 1487.7,1006.9 1496.9,1029.0 1506.4,1047.9 1516.1,1063.8 1526.0,1076.9 1536.3,1087.0 1546.9,1094.3 1557.8,1098.9 1569.2,1100.7 1581.0,1099.7 1593.4,1096.1 1606.3,1089.6 1619.8,1080.3 1633.9,1068.2 1648.8,1053.1 1664.4,1034.9 1680.9,1013.7 1698.3,989.2 1716.6,961.4 1736.0,930.0 1756.4,894.9 1778.1,856.0 1801.0,813.1 1825.2,765.8 1850.9,714.1 1878.0,657.7 1906.7,596.3 1937.1,529.7  A 1064.250,1064.250 0.00 0,0 1933.4,528.0 L 1933.4,528.0 1903.3,594.8 1874.8,656.3 1847.9,712.8 1822.5,764.6 1798.4,811.9 1775.7,855.0 1754.2,894.0 1733.8,929.1 1714.6,960.6 1696.3,988.5 1679.1,1013.0 1662.7,1034.3 1647.1,1052.5 1632.3,1067.6 1618.2,1079.9 1604.7,1089.2 1591.8,1095.7 1579.5,1099.4 1567.7,1100.4 1556.3,1098.7 1545.3,1094.1 1534.7,1086.9 1524.4,1076.8 1514.4,1063.8 1504.7,1047.9 1495.1,1029.0 1485.8,1006.9 1476.6,981.7 1467.6,953.1 1458.6,920.9 1449.8,885.1 1441.0,845.5 1432.3,801.8 1423.7,753.9 1415.0,701.5 1406.5,644.5 1397.9,582.4 1389.3,515.2 1380.8,442.4  Z" style="stroke-width: 2.0;  stroke: rgb(82,82,82); fill: rgb(255,204,204); opacity: 0.667;" />
<path d="M 1380.814,442.445 A 1064.250,1064.250 0.00 0,1 1384.8,442.0 L 1384.8,442.0 1394.0,515.6 1405.0,585.3 1417.4,651.3 1431.1,714.0 1445.8,773.6 1461.3,830.4 1477.4,884.5 1493.9,936.3 1510.8,985.9 1527.8,1033.7 1544.9,1079.8 1561.8,1124.4 1578.7,1167.7 1595.3,1210.0 1611.6,1251.5 1627.7,1292.2 1643.4,1332.4 1658.8,1372.4 1674.0,1412.1 1688.9,1451.9 1703.6,1491.8 1718.2,1532.1 1732.8,1572.7 1747.5,1614.0 1762.4,1656.0 1777.6,1698.8 1793.4,1742.5 1810.0,1787.3 1827.4,1833.2 1846.0,1880.4 1865.9,1928.9 1887.4,1978.8 1910.9,2030.2 1936.5,2083.2 1964.6,2137.7 1995.5,2194.0 2029.5,2251.9 2067.0,2311.6 2108.5,2373.2  A 1064.250,1064.250 0.00 0,0 2111.8,2370.9 L 2111.8,2370.9 2070.1,2309.5 2032.3,2249.9 1998.1,2192.1 1967.0,2136.0 1938.7,2081.5 1912.9,2028.6 1889.2,1977.3 1867.5,1927.5 1847.4,1879.1 1828.7,1832.0 1811.0,1786.1 1794.4,1741.4 1778.4,1697.7 1763.0,1655.0 1747.9,1613.1 1733.1,1571.9 1718.3,1531.2 1703.6,1491.1 1688.7,1451.2 1673.6,1411.5 1658.3,1371.8 1642.8,1331.9 1626.9,1291.7 1610.7,1251.0 1594.2,1209.7 1577.4,1167.4 1560.4,1124.2 1543.3,1079.6 1526.0,1033.6 1508.9,985.9 1491.8,936.3 1475.1,884.6 1458.7,830.5 1443.0,773.8 1428.1,714.3 1414.2,651.6 1401.5,585.6 1390.3,516.0 1380.8,442.4  Z" style="stroke-width: 2.0;  stroke: rgb(82,82,82); fill: rgb(255,153,0); opacity: 0.667;" />
<path d="M 1380.814,442.445 A 1064.250,1064.250 0.00 0,1 1384.8,442.0 L 1384.8,442.0 1392.0,515.1 1397.3,583.3 1400.7,647.0 1402.5,706.4 1402.6,761.7 1401.2,813.2 1398.3,861.2 1394.1,905.8 1388.6,947.3 1381.9,985.9 1373.9,1021.7 1364.7,1055.0 1354.3,1085.9 1342.8,1114.6 1330.0,1141.2 1316.1,1165.7 1300.9,1188.5 1284.5,1209.4 1266.7,1228.8 1247.5,1246.5 1226.9,1262.8 1204.7,1277.5 1180.9,1290.9 1155.3,1302.9 1127.8,1313.6 1098.4,1322.9 1066.8,1330.8 1032.9,1337.4 996.5,1342.6 957.5,1346.4 915.7,1348.7 870.9,1349.5 822.9,1348.6 771.4,1346.0 716.2,1341.6 657.2,1335.4 594.0,1327.0 526.3,1316.5 454.0,1303.7  A 1064.250,1064.250 0.00 0,0 453.3,1307.7 L 453.3,1307.7 525.7,1320.2 593.3,1330.5 656.6,1338.5 715.6,1344.6 770.8,1348.8 822.3,1351.2 870.3,1351.8 915.2,1350.9 956.9,1348.5 995.9,1344.5 1032.3,1339.2 1066.1,1332.5 1097.7,1324.4 1127.1,1315.0 1154.6,1304.2 1180.1,1292.1 1203.9,1278.7 1226.0,1263.8 1246.6,1247.5 1265.7,1229.7 1283.4,1210.3 1299.8,1189.2 1314.8,1166.4 1328.7,1141.8 1341.3,1115.2 1352.8,1086.5 1363.0,1055.6 1372.1,1022.2 1379.9,986.3 1386.5,947.7 1391.9,906.2 1395.9,861.6 1398.6,813.6 1399.8,762.1 1399.5,706.7 1397.5,647.4 1393.8,583.7 1388.3,515.5 1380.8,442.4  Z" style="stroke-width: 2.0;  stroke: rgb(82,82,82); fill: rgb(255,204,0); opacity: 0.667;" />
<path d="M 1380.814,442.445 A 1064.250,1064.250 0.00 0,1 1384.8,442.0 L 1384.8,442.0 1392.1,515.0 1397.7,583.0 1401.6,646.2 1404.0,704.9 1404.9,759.3 1404.4,809.8 1402.6,856.5 1399.5,899.6 1395.1,939.5 1389.6,976.1 1382.9,1009.8 1375.0,1040.7 1366.0,1069.0 1355.8,1094.7 1344.4,1118.1 1331.9,1139.1 1318.2,1158.1 1303.2,1174.9 1286.9,1189.8 1269.2,1202.7 1250.1,1213.7 1229.5,1222.9 1207.3,1230.2 1183.4,1235.7 1157.7,1239.4 1130.1,1241.3 1100.4,1241.3 1068.6,1239.4 1034.5,1235.6 997.8,1229.7 958.6,1221.8 916.5,1211.6 871.5,1199.2 823.2,1184.3 771.6,1166.9 716.4,1146.8 657.4,1123.9 594.4,1097.9 527.0,1068.8  A 1064.250,1064.250 0.00 0,0 525.4,1072.4 L 525.4,1072.4 592.9,1101.3 656.0,1127.1 715.1,1149.8 770.4,1169.7 822.1,1186.9 870.3,1201.6 915.4,1213.8 957.5,1223.8 996.8,1231.6 1033.5,1237.4 1067.6,1241.1 1099.5,1242.8 1129.1,1242.7 1156.7,1240.7 1182.4,1236.9 1206.3,1231.3 1228.5,1223.9 1249.0,1214.6 1268.1,1203.5 1285.7,1190.6 1301.9,1175.7 1316.9,1158.8 1330.5,1139.8 1343.0,1118.7 1354.2,1095.3 1364.3,1069.5 1373.2,1041.2 1381.0,1010.3 1387.6,976.6 1393.0,939.9 1397.2,900.0 1400.2,856.9 1401.8,810.2 1402.1,759.7 1401.0,705.2 1398.4,646.5 1394.2,583.4 1388.4,515.4 1380.8,442.4  Z" style="stroke-width: 2.0;  stroke: rgb(82,82,82); fill: rgb(255,255,0); opacity: 0.667;" />
<path d="M 1380.814,442.445 A 1064.250,1064.250 0.00 0,1 1384.8,442.0 L 1384.8,442.0 1392.5,514.8 1399.3,582.2 1405.1,644.3 1410.1,701.6 1414.2,754.2 1417.4,802.3 1420.0,846.2 1421.7,886.1 1422.7,922.2 1423.1,954.5 1422.7,983.4 1421.6,1008.9 1419.9,1031.1 1417.5,1050.2 1414.4,1066.3 1410.6,1079.4 1406.1,1089.7 1401.0,1097.0 1395.1,1101.6 1388.5,1103.4 1381.1,1102.5 1372.9,1098.7 1363.8,1092.2 1353.9,1082.8 1343.1,1070.5 1331.3,1055.2 1318.6,1036.9 1304.7,1015.5 1289.8,990.8 1273.6,962.8 1256.2,931.2 1237.5,895.9 1217.4,856.8 1195.9,813.6 1172.7,766.2 1148.0,714.4 1121.5,657.8 1093.1,596.3 1062.9,529.7  A 1064.250,1064.250 0.00 0,0 1059.2,531.3 L 1059.2,531.3 1089.7,597.9 1118.3,659.3 1145.0,715.7 1169.9,767.5 1193.3,814.8 1215.0,857.9 1235.2,896.9 1254.1,932.1 1271.6,963.6 1287.8,991.6 1302.9,1016.3 1316.8,1037.6 1329.7,1055.9 1341.5,1071.1 1352.4,1083.3 1362.3,1092.7 1371.3,1099.2 1379.6,1102.9 1387.0,1103.9 1393.6,1102.0 1399.4,1097.4 1404.6,1090.0 1409.0,1079.8 1412.7,1066.6 1415.8,1050.6 1418.1,1031.4 1419.8,1009.2 1420.7,983.7 1421.0,954.8 1420.6,922.5 1419.4,886.4 1417.5,846.5 1414.8,802.6 1411.3,754.5 1407.0,701.9 1401.9,644.7 1395.8,582.5 1388.8,515.2 1380.8,442.4  Z" style="stroke-width: 2.0;  stroke: rgb(82,82,82); fill: rgb(204,255,0); opacity: 0.667;" />
<path d="M 1136.526,499.743 A 1064.250,1064.250 0.00 0,1 1139.4,498.7 L 1139.4,498.7 1164.4,567.5 1188.0,631.0 1210.2,689.4 1231.0,743.0 1250.7,792.0 1269.1,836.7 1286.5,877.2 1302.8,913.8 1318.2,946.6 1332.6,975.8 1346.1,1001.5 1358.9,1023.9 1370.9,1043.1 1382.1,1059.2 1392.7,1072.2 1402.7,1082.3 1412.0,1089.5 1420.9,1093.9 1429.2,1095.4 1437.0,1094.1 1444.4,1090.0 1451.3,1083.0 1457.9,1073.2 1464.1,1060.4 1469.9,1044.7 1475.4,1025.8 1480.5,1003.8 1485.4,978.5 1489.9,949.8 1494.2,917.5 1498.2,881.5 1501.9,841.6 1505.3,797.7 1508.4,749.4 1511.3,696.7 1513.8,639.3 1516.0,576.8 1517.9,509.1 1519.5,435.9  A 1064.250,1064.250 0.00 0,0 1516.4,435.9 L 1516.4,435.9 1515.1,509.1 1513.4,576.8 1511.3,639.2 1509.0,696.7 1506.3,749.4 1503.3,797.7 1500.0,841.6 1496.4,881.5 1492.5,917.5 1488.4,949.8 1483.9,978.5 1479.1,1003.9 1474.0,1025.9 1468.6,1044.8 1462.8,1060.5 1456.7,1073.3 1450.1,1083.2 1443.2,1090.2 1435.8,1094.3 1428.0,1095.6 1419.7,1094.1 1410.9,1089.8 1401.5,1082.6 1391.5,1072.5 1380.8,1059.5 1369.5,1043.5 1357.5,1024.3 1344.7,1001.9 1331.1,976.2 1316.6,947.1 1301.2,914.3 1284.7,877.8 1267.2,837.3 1248.7,792.7 1228.9,743.8 1207.8,690.2 1185.5,631.9 1161.7,568.5 1136.5,499.7  Z" style="stroke-width: 2.0;  stroke: rgb(82,82,82); fill: rgb(0,255,0); opacity: 0.667;" />
<path d="M 2562.940,1447.212 A 1064.250,1064.250 0.00 0,1 2563.1,1450.4 L 2563.1,1450.4 2490.0,1453.8 2422.4,1456.9 2360.1,1459.8 2302.8,1462.5 2250.3,1464.9 2202.4,1467.1 2158.7,1469.1 2119.2,1470.9 2083.7,1472.5 2051.9,1474.0 2023.7,1475.2 1999.0,1476.3 1977.6,1477.3 1959.5,1478.1 1944.6,1478.7 1932.7,1479.2 1923.9,1479.5 1918.0,1479.7 1915.1,1479.7 1915.1,1479.6 1918.0,1479.4 1923.9,1479.0 1932.7,1478.5 1944.6,1477.8 1959.5,1476.9 1977.6,1475.9 1998.9,1474.8 2023.6,1473.5 2051.8,1472.0 2083.6,1470.3 2119.1,1468.4 2158.6,1466.4 2202.2,1464.1 2250.2,1461.6 2302.7,1458.9 2359.9,1455.9 2422.2,1452.7 2489.8,1449.3 2562.9,1445.5  A 1064.250,1064.250 0.00 0,0 2562.7,1442.4 L 2562.7,1442.4 2489.6,1446.3 2422.1,1450.0 2359.8,1453.4 2302.5,1456.5 2250.1,1459.4 2202.1,1462.0 2158.5,1464.4 2119.0,1466.6 2083.5,1468.6 2051.7,1470.3 2023.5,1471.9 1998.8,1473.3 1977.5,1474.5 1959.4,1475.6 1944.5,1476.5 1932.6,1477.2 1923.8,1477.7 1917.9,1478.1 1915.0,1478.4 1915.0,1478.5 1918.0,1478.4 1923.8,1478.2 1932.7,1477.9 1944.5,1477.4 1959.5,1476.7 1977.6,1475.9 1998.9,1474.9 2023.6,1473.7 2051.8,1472.3 2083.6,1470.8 2119.1,1469.1 2158.7,1467.2 2202.3,1465.0 2250.2,1462.7 2302.7,1460.1 2360.0,1457.3 2422.3,1454.2 2489.8,1450.8 2562.9,1447.2  Z" style="stroke-width: 2.0;  stroke: rgb(82,82,82); fill: rgb(53,128,0); opacity: 0.667;" />
<path d="M 779.376,716.847 A 1064.250,1064.250 0.00 0,1 781.8,714.7 L 781.8,714.7 830.8,769.7 875.3,822.6 915.8,873.5 952.5,922.4 985.6,969.6 1015.5,1015.1 1042.3,1059.0 1066.4,1101.4 1087.9,1142.5 1107.0,1182.4 1124.0,1221.1 1139.0,1258.9 1152.0,1295.8 1163.4,1332.0 1173.1,1367.6 1181.3,1402.7 1188.0,1437.4 1193.4,1471.9 1197.4,1506.3 1200.1,1540.8 1201.5,1575.4 1201.6,1610.3 1200.3,1645.7 1197.7,1681.6 1193.6,1718.3 1188.0,1755.8 1180.8,1794.3 1171.9,1833.9 1161.2,1874.9 1148.5,1917.2 1133.6,1961.2 1116.4,2006.8 1096.7,2054.3 1074.3,2103.9 1048.9,2155.6 1020.3,2209.7 988.2,2266.2 952.4,2325.4 912.5,2387.4  A 1064.250,1064.250 0.00 0,0 915.2,2389.2 L 915.2,2389.2 954.9,2327.1 990.5,2267.8 1022.4,2211.1 1050.9,2157.0 1076.1,2105.2 1098.4,2055.6 1117.9,2008.0 1135.0,1962.3 1149.7,1918.3 1162.3,1875.9 1172.9,1834.9 1181.7,1795.2 1188.8,1756.7 1194.2,1719.2 1198.2,1682.5 1200.7,1646.6 1201.9,1611.2 1201.7,1576.3 1200.2,1541.7 1197.4,1507.2 1193.3,1472.8 1187.8,1438.4 1181.0,1403.6 1172.7,1368.6 1162.9,1333.0 1151.4,1296.9 1138.2,1260.0 1123.2,1222.3 1106.1,1183.5 1086.8,1143.7 1065.2,1102.7 1041.0,1060.3 1014.0,1016.5 984.0,971.2 950.7,924.1 913.9,875.3 873.3,824.5 828.6,771.7 779.4,716.8  Z" style="stroke-width: 2.0;  stroke: rgb(82,82,82); fill: rgb(0,0,204); opacity: 0.667;" />
</g>
<defs>
<pattern id="hline-sparse" width="10" height="10" patternTransform="rotate(0 0 0)" patternUnits="userSpaceOnUse"><line x1="0" y1="0" x2="10" y2="0" style="stroke:black;stroke-width:2" /></pattern>
<pattern id="checker" width="10" height="10" patternTransform="rotate(45 0 0)" patternUnits="userSpaceOnUse"><line x1="0" y1="0" x2="10" y2="0" style="stroke:black;stroke-width:2" /><line x1="0" y1="0" x2="0" y2="10" style="stroke:black;stroke-width:2" /></pattern>
<pattern id="checker" width="10" height="10" patternTransform="rotate(45 0 0)" patternUnits="userSpaceOnUse"><line x1="0" y1="0" x2="10" y2="0" style="stroke:black;stroke-width:5" /><line x1="0" y1="0" x2="0" y2="10" style="stroke:black;stroke-width:4" /></pattern>
<pattern id="hline" width="10" height="10" patternTransform="rotate(0 0 0)" patternUnits="userSpaceOnUse"><line x1="0" y1="0" x2="10" y2="0" style="stroke:black;stroke-width:5" /></pattern>
<pattern id="vline-sparse" width="10" height="10" patternTransform="rotate(0 0 0)" patternUnits="userSpaceOnUse"><line x1="0" y1="0" x2="0" y2="10" style="stroke:black;stroke-width:2" /></pattern>
<pattern id="vline" width="10" height="10" patternTransform="rotate(0 0 0)" patternUnits="userSpaceOnUse"><line x1="0" y1="0" x2="0" y2="10" style="stroke:black;stroke-width:5" /></pattern>
</defs>
</svg>
