<?xml version="1.0" encoding="utf-8" standalone="no"?>
<!DOCTYPE svg PUBLIC "-//W3C//DTD SVG 1.1//EN" "http://www.w3.org/Graphics/SVG/1.1/DTD/svg11.dtd">
<svg width="3000px" height="3000px" version="1.1" xmlns="http://www.w3.org/2000/svg" xmlns:xlink="http://www.w3.org/1999/xlink">
<g id="ideograms">
<path d="M1500.000,425.000 A1075.000,1075.000 40.000 0,1 1795.786,466.494 L1809.544,418.424 A1125.000,1125.000 0.000 0,0 1500.000,375.000 Z" style="stroke-linecap:round;fill:rgb(116,196,118);fill-opacity:0.33;" />
<text x="1678.2" y="298.1" font-size="18.2px" font-family="CMUBright-Roman" style="text-anchor:start;fill:rgb(0,0,0);" transform="rotate(278.0,1678.2,298.1)" >R<tspan baseline-shift="-40%" font-size="90%">s</tspan>caffold<tspan baseline-shift="-40%" font-size="90%">8</tspan></text>
<line x1='1500.0' y1='375.0' x2='1500.0' y2='355.0' style="stroke-width:4.0;stroke:rgb(0,0,0);stroke-linecap:round;fill:none;" />
<text x="1506.5" y="345.0" font-size="18.2px" font-family="CMUBright-Roman" style="text-anchor:start;fill:rgb(0,0,0);" transform="rotate(270.0,1506.5,345.0)" >0</text>
<line x1='1566.5' y1='377.0' x2='1567.7' y2='357.0' style="stroke-width:4.0;stroke:rgb(0,0,0);stroke-linecap:round;fill:none;" />
<text x="1574.8" y="347.4" font-size="18.2px" font-family="CMUBright-Roman" style="text-anchor:start;fill:rgb(0,0,0);" transform="rotate(273.4,1574.8,347.4)" >50</text>
<line x1='1632.8' y1='382.9' x2='1635.2' y2='363.0' style="stroke-width:4.0;stroke:rgb(0,0,0);stroke-linecap:round;fill:none;" />
<text x="1642.8" y="353.9" font-size="18.2px" font-family="CMUBright-Roman" style="text-anchor:start;fill:rgb(0,0,0);" transform="rotate(276.8,1642.8,353.9)" >100</text>
<line x1='1698.6' y1='392.7' x2='1702.1' y2='373.0' style="stroke-width:4.0;stroke:rgb(0,0,0);stroke-linecap:round;fill:none;" />
<text x="1710.3" y="364.3" font-size="18.2px" font-family="CMUBright-Roman" style="text-anchor:start;fill:rgb(0,0,0);" transform="rotate(280.2,1710.3,364.3)" >150</text>
<line x1='1763.7' y1='406.3' x2='1768.4' y2='386.9' style="stroke-width:4.0;stroke:rgb(0,0,0);stroke-linecap:round;fill:none;" />
<text x="1777.1" y="378.7" font-size="18.2px" font-family="CMUBright-Roman" style="text-anchor:start;fill:rgb(0,0,0);" transform="rotate(283.6,1777.1,378.7)" >200</text>
<g id="highlighttrack_0">
<path d="M1521.791,425.221 A1075.000,1075.000 40.000 0,1 1539.085,425.711 L1540.902,375.744 A1125.000,1125.000 0.000 0,0 1522.804,375.231 Z" style="stroke-width:4.0;stroke:rgb(0,0,0);stroke-linecap:round;fill:rgb(251,106,74);" />
</g>
<path d="M1857.065,486.033 A1075.000,1075.000 40.000 0,1 2068.917,587.883 L2095.379,545.459 A1125.000,1125.000 0.000 0,0 1873.672,438.871 Z" style="stroke-linecap:round;fill:rgb(116,196,118);fill-opacity:0.33;" />
<text x="2035.0" y="409.1" font-size="18.2px" font-family="CMUBright-Roman" style="text-anchor:start;fill:rgb(0,0,0);" transform="rotate(295.7,2035.0,409.1)" >R<tspan baseline-shift="-40%" font-size="90%">s</tspan>caffold<tspan baseline-shift="-40%" font-size="90%">1</tspan>0</text>
<line x1='1873.7' y1='438.9' x2='1880.3' y2='420.0' style="stroke-width:4.0;stroke:rgb(0,0,0);stroke-linecap:round;fill:none;" />
<text x="1889.8" y="412.8" font-size="18.2px" font-family="CMUBright-Roman" style="text-anchor:start;fill:rgb(0,0,0);" transform="rotate(289.4,1889.8,412.8)" >0</text>
<line x1='1935.8' y1='462.8' x2='1943.5' y2='444.4' style="stroke-width:4.0;stroke:rgb(0,0,0);stroke-linecap:round;fill:none;" />
<text x="1953.4" y="437.7" font-size="18.2px" font-family="CMUBright-Roman" style="text-anchor:start;fill:rgb(0,0,0);" transform="rotate(292.8,1953.4,437.7)" >50</text>
<line x1='1996.3' y1='490.4' x2='2005.1' y2='472.4' style="stroke-width:4.0;stroke:rgb(0,0,0);stroke-linecap:round;fill:none;" />
<text x="2015.4" y="466.4" font-size="18.2px" font-family="CMUBright-Roman" style="text-anchor:start;fill:rgb(0,0,0);" transform="rotate(296.2,2015.4,466.4)" >100</text>
<line x1='2055.1' y1='521.5' x2='2065.0' y2='504.1' style="stroke-width:4.0;stroke:rgb(0,0,0);stroke-linecap:round;fill:none;" />
<text x="2075.6" y="498.6" font-size="18.2px" font-family="CMUBright-Roman" style="text-anchor:start;fill:rgb(0,0,0);" transform="rotate(299.6,2075.6,498.6)" >150</text>
<g id="highlighttrack_0">
<path d="M2035.729,568.003 A1075.000,1075.000 40.000 0,1 2052.043,577.572 L2077.720,534.669 A1125.000,1125.000 0.000 0,0 2060.647,524.654 Z" style="stroke-width:4.0;stroke:rgb(0,0,0);stroke-linecap:round;fill:rgb(116,196,118);" />
</g>
<path d="M2122.447,623.539 A1075.000,1075.000 40.000 0,1 2153.387,646.355 L2183.777,606.650 A1125.000,1125.000 0.000 0,0 2151.399,582.773 Z" style="stroke-linecap:round;fill:rgb(116,196,118);fill-opacity:0.33;" />
<text x="2228.7" y="527.8" font-size="18.2px" font-family="CMUBright-Roman" style="text-anchor:start;fill:rgb(0,0,0);" transform="rotate(306.4,2228.7,527.8)" >R<tspan baseline-shift="-40%" font-size="90%">s</tspan>caffold<tspan baseline-shift="-40%" font-size="90%">1</tspan>9</text>
<line x1='2151.4' y1='582.8' x2='2163.0' y2='566.5' style="stroke-width:4.0;stroke:rgb(0,0,0);stroke-linecap:round;fill:none;" />
<text x="2174.1" y="562.1" font-size="18.2px" font-family="CMUBright-Roman" style="text-anchor:start;fill:rgb(0,0,0);" transform="rotate(305.4,2174.1,562.1)" >0</text>
<g id="highlighttrack_0">
<path d="M2128.483,627.857 A1075.000,1075.000 40.000 0,1 2132.123,630.491 L2161.524,590.049 A1125.000,1125.000 0.000 0,0 2157.715,587.292 Z" style="stroke-width:4.0;stroke:rgb(0,0,0);stroke-linecap:round;fill:rgb(116,196,118);" />
</g>
<path d="M2203.269,686.958 A1075.000,1075.000 40.000 0,1 2207.267,690.433 L2240.163,652.779 A1125.000,1125.000 0.000 0,0 2235.979,649.142 Z" style="stroke-linecap:round;fill:rgb(116,196,118);fill-opacity:0.33;" />
<text x="2304.3" y="589.3" font-size="18.2px" font-family="CMUBright-Roman" style="text-anchor:start;fill:rgb(0,0,0);" transform="rotate(311.0,2304.3,589.3)" >R<tspan baseline-shift="-40%" font-size="90%">s</tspan>caffold<tspan baseline-shift="-40%" font-size="90%">2</tspan>4</text>
<line x1='2236.0' y1='649.1' x2='2249.1' y2='634.0' style="stroke-width:4.0;stroke:rgb(0,0,0);stroke-linecap:round;fill:none;" />
<text x="2260.5" y="630.7" font-size="18.2px" font-family="CMUBright-Roman" style="text-anchor:start;fill:rgb(0,0,0);" transform="rotate(310.9,2260.5,630.7)" >0</text>
<g id="highlighttrack_0">
<path d="M2203.967,687.562 A1075.000,1075.000 40.000 0,1 2206.994,690.195 L2239.877,652.529 A1125.000,1125.000 0.000 0,0 2236.710,649.774 Z" style="stroke-width:4.0;stroke:rgb(0,0,0);stroke-linecap:round;fill:rgb(116,196,118);" />
</g>
<path d="M2254.417,734.180 A1075.000,1075.000 40.000 1,1 1435.711,426.924 L1432.720,377.014 A1125.000,1125.000 0.000 1,0 2289.506,698.560 Z" style="stroke-linecap:round;fill:rgb(116,196,118);fill-opacity:0.33;" />
<text x="1082.0" y="2640.8" font-size="18.2px" font-family="CMUBright-Roman" style="text-anchor:end;fill:rgb(0,0,0);" transform="rotate(-69.4,1082.0,2640.8)" >NC<tspan baseline-shift="-40%" font-size="90%">0</tspan>09092.1</text>
<line x1='2289.5' y1='698.6' x2='2303.5' y2='684.3' style="stroke-width:4.0;stroke:rgb(0,0,0);stroke-linecap:round;fill:none;" />
<text x="2315.2" y="681.8" font-size="18.2px" font-family="CMUBright-Roman" style="text-anchor:start;fill:rgb(0,0,0);" transform="rotate(314.6,2315.2,681.8)" >0</text>
<line x1='2335.5' y1='746.6' x2='2350.4' y2='733.2' style="stroke-width:4.0;stroke:rgb(0,0,0);stroke-linecap:round;fill:none;" />
<text x="2362.1" y="731.4" font-size="18.2px" font-family="CMUBright-Roman" style="text-anchor:start;fill:rgb(0,0,0);" transform="rotate(318.0,2362.1,731.4)" >50</text>
<line x1='2378.6' y1='797.4' x2='2394.2' y2='784.9' style="stroke-width:4.0;stroke:rgb(0,0,0);stroke-linecap:round;fill:none;" />
<text x="2406.1" y="783.7" font-size="18.2px" font-family="CMUBright-Roman" style="text-anchor:start;fill:rgb(0,0,0);" transform="rotate(321.3,2406.1,783.7)" >100</text>
<line x1='2418.6' y1='850.5' x2='2434.9' y2='839.0' style="stroke-width:4.0;stroke:rgb(0,0,0);stroke-linecap:round;fill:none;" />
<text x="2446.8" y="838.5" font-size="18.2px" font-family="CMUBright-Roman" style="text-anchor:start;fill:rgb(0,0,0);" transform="rotate(324.7,2446.8,838.5)" >150</text>
<line x1='2455.4' y1='906.0' x2='2472.4' y2='895.4' style="stroke-width:4.0;stroke:rgb(0,0,0);stroke-linecap:round;fill:none;" />
<text x="2484.3" y="895.7" font-size="18.2px" font-family="CMUBright-Roman" style="text-anchor:start;fill:rgb(0,0,0);" transform="rotate(328.1,2484.3,895.7)" >200</text>
<line x1='2488.8' y1='963.5' x2='2506.4' y2='954.0' style="stroke-width:4.0;stroke:rgb(0,0,0);stroke-linecap:round;fill:none;" />
<text x="2518.3" y="954.9" font-size="18.2px" font-family="CMUBright-Roman" style="text-anchor:start;fill:rgb(0,0,0);" transform="rotate(331.5,2518.3,954.9)" >250</text>
<line x1='2518.8' y1='1022.9' x2='2536.9' y2='1014.4' style="stroke-width:4.0;stroke:rgb(0,0,0);stroke-linecap:round;fill:none;" />
<text x="2548.7" y="1016.1" font-size="18.2px" font-family="CMUBright-Roman" style="text-anchor:start;fill:rgb(0,0,0);" transform="rotate(334.9,2548.7,1016.1)" >300</text>
<line x1='2545.2' y1='1084.0' x2='2563.8' y2='1076.6' style="stroke-width:4.0;stroke:rgb(0,0,0);stroke-linecap:round;fill:none;" />
<text x="2575.5" y="1078.9" font-size="18.2px" font-family="CMUBright-Roman" style="text-anchor:start;fill:rgb(0,0,0);" transform="rotate(338.3,2575.5,1078.9)" >350</text>
<line x1='2568.0' y1='1146.5' x2='2587.0' y2='1140.2' style="stroke-width:4.0;stroke:rgb(0,0,0);stroke-linecap:round;fill:none;" />
<text x="2598.5" y="1143.2" font-size="18.2px" font-family="CMUBright-Roman" style="text-anchor:start;fill:rgb(0,0,0);" transform="rotate(341.7,2598.5,1143.2)" >400</text>
<line x1='2587.0' y1='1210.2' x2='2606.4' y2='1205.1' style="stroke-width:4.0;stroke:rgb(0,0,0);stroke-linecap:round;fill:none;" />
<text x="2617.7" y="1208.8" font-size="18.2px" font-family="CMUBright-Roman" style="text-anchor:start;fill:rgb(0,0,0);" transform="rotate(345.1,2617.7,1208.8)" >450</text>
<line x1='2602.3' y1='1275.0' x2='2621.9' y2='1271.0' style="stroke-width:4.0;stroke:rgb(0,0,0);stroke-linecap:round;fill:none;" />
<text x="2633.0" y="1275.4" font-size="18.2px" font-family="CMUBright-Roman" style="text-anchor:start;fill:rgb(0,0,0);" transform="rotate(348.5,2633.0,1275.4)" >500</text>
<line x1='2613.6' y1='1340.6' x2='2633.4' y2='1337.8' style="stroke-width:4.0;stroke:rgb(0,0,0);stroke-linecap:round;fill:none;" />
<text x="2644.2" y="1342.8" font-size="18.2px" font-family="CMUBright-Roman" style="text-anchor:start;fill:rgb(0,0,0);" transform="rotate(351.9,2644.2,1342.8)" >550</text>
<line x1='2621.1' y1='1406.7' x2='2641.1' y2='1405.0' style="stroke-width:4.0;stroke:rgb(0,0,0);stroke-linecap:round;fill:none;" />
<text x="2651.5" y="1410.7" font-size="18.2px" font-family="CMUBright-Roman" style="text-anchor:start;fill:rgb(0,0,0);" transform="rotate(355.2,2651.5,1410.7)" >600</text>
<line x1='2624.7' y1='1473.2' x2='2644.7' y2='1472.7' style="stroke-width:4.0;stroke:rgb(0,0,0);stroke-linecap:round;fill:none;" />
<text x="2654.8" y="1478.9" font-size="18.2px" font-family="CMUBright-Roman" style="text-anchor:start;fill:rgb(0,0,0);" transform="rotate(358.6,2654.8,1478.9)" >650</text>
<line x1='2624.3' y1='1539.7' x2='2644.3' y2='1540.4' style="stroke-width:4.0;stroke:rgb(0,0,0);stroke-linecap:round;fill:none;" />
<text x="2654.0" y="1547.2" font-size="18.2px" font-family="CMUBright-Roman" style="text-anchor:start;fill:rgb(0,0,0);" transform="rotate(2.0,2654.0,1547.2)" >700</text>
<line x1='2620.0' y1='1606.1' x2='2639.9' y2='1608.0' style="stroke-width:4.0;stroke:rgb(0,0,0);stroke-linecap:round;fill:none;" />
<text x="2649.2" y="1615.4" font-size="18.2px" font-family="CMUBright-Roman" style="text-anchor:start;fill:rgb(0,0,0);" transform="rotate(5.4,2649.2,1615.4)" >750</text>
<line x1='2611.8' y1='1672.1' x2='2631.5' y2='1675.2' style="stroke-width:4.0;stroke:rgb(0,0,0);stroke-linecap:round;fill:none;" />
<text x="2640.4" y="1683.1" font-size="18.2px" font-family="CMUBright-Roman" style="text-anchor:start;fill:rgb(0,0,0);" transform="rotate(8.8,2640.4,1683.1)" >800</text>
<line x1='2599.6' y1='1737.6' x2='2619.2' y2='1741.8' style="stroke-width:4.0;stroke:rgb(0,0,0);stroke-linecap:round;fill:none;" />
<text x="2627.6" y="1750.2" font-size="18.2px" font-family="CMUBright-Roman" style="text-anchor:start;fill:rgb(0,0,0);" transform="rotate(12.2,2627.6,1750.2)" >850</text>
<line x1='2583.7' y1='1802.1' x2='2602.9' y2='1807.5' style="stroke-width:4.0;stroke:rgb(0,0,0);stroke-linecap:round;fill:none;" />
<text x="2610.8" y="1816.5" font-size="18.2px" font-family="CMUBright-Roman" style="text-anchor:start;fill:rgb(0,0,0);" transform="rotate(15.6,2610.8,1816.5)" >900</text>
<line x1='2563.9' y1='1865.7' x2='2582.8' y2='1872.2' style="stroke-width:4.0;stroke:rgb(0,0,0);stroke-linecap:round;fill:none;" />
<text x="2590.1" y="1881.6" font-size="18.2px" font-family="CMUBright-Roman" style="text-anchor:start;fill:rgb(0,0,0);" transform="rotate(19.0,2590.1,1881.6)" >950</text>
<line x1='2540.4' y1='1927.9' x2='2558.9' y2='1935.6' style="stroke-width:4.0;stroke:rgb(0,0,0);stroke-linecap:round;fill:none;" />
<text x="2565.7" y="1945.4" font-size="18.2px" font-family="CMUBright-Roman" style="text-anchor:start;fill:rgb(0,0,0);" transform="rotate(22.4,2565.7,1945.4)" >1000</text>
<line x1='2513.3' y1='1988.7' x2='2531.3' y2='1997.4' style="stroke-width:4.0;stroke:rgb(0,0,0);stroke-linecap:round;fill:none;" />
<text x="2537.5" y="2007.6" font-size="18.2px" font-family="CMUBright-Roman" style="text-anchor:start;fill:rgb(0,0,0);" transform="rotate(25.7,2537.5,2007.6)" >1050</text>
<line x1='2482.6' y1='2047.8' x2='2500.1' y2='2057.5' style="stroke-width:4.0;stroke:rgb(0,0,0);stroke-linecap:round;fill:none;" />
<text x="2505.7" y="2068.0" font-size="18.2px" font-family="CMUBright-Roman" style="text-anchor:start;fill:rgb(0,0,0);" transform="rotate(29.1,2505.7,2068.0)" >1100</text>
<line x1='2448.5' y1='2104.9' x2='2465.4' y2='2115.7' style="stroke-width:4.0;stroke:rgb(0,0,0);stroke-linecap:round;fill:none;" />
<text x="2470.3" y="2126.5" font-size="18.2px" font-family="CMUBright-Roman" style="text-anchor:start;fill:rgb(0,0,0);" transform="rotate(32.5,2470.3,2126.5)" >1150</text>
<line x1='2411.1' y1='2159.9' x2='2427.3' y2='2171.7' style="stroke-width:4.0;stroke:rgb(0,0,0);stroke-linecap:round;fill:none;" />
<text x="2431.6" y="2182.8" font-size="18.2px" font-family="CMUBright-Roman" style="text-anchor:start;fill:rgb(0,0,0);" transform="rotate(35.9,2431.6,2182.8)" >1200</text>
<line x1='2370.5' y1='2212.6' x2='2386.0' y2='2225.3' style="stroke-width:4.0;stroke:rgb(0,0,0);stroke-linecap:round;fill:none;" />
<text x="2389.6" y="2236.7" font-size="18.2px" font-family="CMUBright-Roman" style="text-anchor:start;fill:rgb(0,0,0);" transform="rotate(39.3,2389.6,2236.7)" >1250</text>
<line x1='2326.8' y1='2262.9' x2='2341.5' y2='2276.4' style="stroke-width:4.0;stroke:rgb(0,0,0);stroke-linecap:round;fill:none;" />
<text x="2344.5" y="2288.0" font-size="18.2px" font-family="CMUBright-Roman" style="text-anchor:start;fill:rgb(0,0,0);" transform="rotate(42.7,2344.5,2288.0)" >1300</text>
<line x1='2280.3' y1='2310.4' x2='2294.2' y2='2324.8' style="stroke-width:4.0;stroke:rgb(0,0,0);stroke-linecap:round;fill:none;" />
<text x="2296.4" y="2336.5" font-size="18.2px" font-family="CMUBright-Roman" style="text-anchor:start;fill:rgb(0,0,0);" transform="rotate(46.1,2296.4,2336.5)" >1350</text>
<line x1='2231.0' y1='2355.1' x2='2244.0' y2='2370.3' style="stroke-width:4.0;stroke:rgb(0,0,0);stroke-linecap:round;fill:none;" />
<text x="2245.6" y="2382.1" font-size="18.2px" font-family="CMUBright-Roman" style="text-anchor:start;fill:rgb(0,0,0);" transform="rotate(49.5,2245.6,2382.1)" >1400</text>
<line x1='2179.2' y1='2396.8' x2='2191.3' y2='2412.8' style="stroke-width:4.0;stroke:rgb(0,0,0);stroke-linecap:round;fill:none;" />
<text x="2192.1" y="2424.7" font-size="18.2px" font-family="CMUBright-Roman" style="text-anchor:start;fill:rgb(0,0,0);" transform="rotate(52.9,2192.1,2424.7)" >1450</text>
<line x1='2125.0' y1='2435.4' x2='2136.1' y2='2452.1' style="stroke-width:4.0;stroke:rgb(0,0,0);stroke-linecap:round;fill:none;" />
<text x="2136.2" y="2464.0" font-size="18.2px" font-family="CMUBright-Roman" style="text-anchor:start;fill:rgb(0,0,0);" transform="rotate(56.3,2136.2,2464.0)" >1500</text>
<line x1='2068.6' y1='2470.7' x2='2078.7' y2='2488.0' style="stroke-width:4.0;stroke:rgb(0,0,0);stroke-linecap:round;fill:none;" />
<text x="2078.1" y="2499.9" font-size="18.2px" font-family="CMUBright-Roman" style="text-anchor:start;fill:rgb(0,0,0);" transform="rotate(59.6,2078.1,2499.9)" >1550</text>
<line x1='2010.2' y1='2502.7' x2='2019.3' y2='2520.5' style="stroke-width:4.0;stroke:rgb(0,0,0);stroke-linecap:round;fill:none;" />
<text x="2018.0" y="2532.3" font-size="18.2px" font-family="CMUBright-Roman" style="text-anchor:start;fill:rgb(0,0,0);" transform="rotate(63.0,2018.0,2532.3)" >1600</text>
<line x1='1950.0' y1='2531.1' x2='1958.0' y2='2549.4' style="stroke-width:4.0;stroke:rgb(0,0,0);stroke-linecap:round;fill:none;" />
<text x="1956.1" y="2561.1" font-size="18.2px" font-family="CMUBright-Roman" style="text-anchor:start;fill:rgb(0,0,0);" transform="rotate(66.4,1956.1,2561.1)" >1650</text>
<line x1='1888.3' y1='2555.9' x2='1895.2' y2='2574.6' style="stroke-width:4.0;stroke:rgb(0,0,0);stroke-linecap:round;fill:none;" />
<text x="1892.5" y="2586.3" font-size="18.2px" font-family="CMUBright-Roman" style="text-anchor:start;fill:rgb(0,0,0);" transform="rotate(69.8,1892.5,2586.3)" >1700</text>
<line x1='1825.2' y1='2577.0' x2='1831.0' y2='2596.1' style="stroke-width:4.0;stroke:rgb(0,0,0);stroke-linecap:round;fill:none;" />
<text x="1827.6" y="2607.6" font-size="18.2px" font-family="CMUBright-Roman" style="text-anchor:start;fill:rgb(0,0,0);" transform="rotate(73.2,1827.6,2607.6)" >1750</text>
<line x1='1760.9' y1='2594.3' x2='1765.6' y2='2613.8' style="stroke-width:4.0;stroke:rgb(0,0,0);stroke-linecap:round;fill:none;" />
<text x="1761.6" y="2625.0" font-size="18.2px" font-family="CMUBright-Roman" style="text-anchor:start;fill:rgb(0,0,0);" transform="rotate(76.6,1761.6,2625.0)" >1800</text>
<line x1='1695.8' y1='2607.8' x2='1699.3' y2='2627.5' style="stroke-width:4.0;stroke:rgb(0,0,0);stroke-linecap:round;fill:none;" />
<text x="1694.6" y="2638.5" font-size="18.2px" font-family="CMUBright-Roman" style="text-anchor:start;fill:rgb(0,0,0);" transform="rotate(80.0,1694.6,2638.5)" >1850</text>
<line x1='1629.9' y1='2617.5' x2='1632.2' y2='2637.3' style="stroke-width:4.0;stroke:rgb(0,0,0);stroke-linecap:round;fill:none;" />
<text x="1626.9" y="2648.0" font-size="18.2px" font-family="CMUBright-Roman" style="text-anchor:start;fill:rgb(0,0,0);" transform="rotate(83.4,1626.9,2648.0)" >1900</text>
<line x1='1563.6' y1='2623.2' x2='1564.8' y2='2643.2' style="stroke-width:4.0;stroke:rgb(0,0,0);stroke-linecap:round;fill:none;" />
<text x="1558.8" y="2653.5" font-size="18.2px" font-family="CMUBright-Roman" style="text-anchor:start;fill:rgb(0,0,0);" transform="rotate(86.8,1558.8,2653.5)" >1950</text>
<line x1='1497.1' y1='2625.0' x2='1497.1' y2='2645.0' style="stroke-width:4.0;stroke:rgb(0,0,0);stroke-linecap:round;fill:none;" />
<text x="1503.5" y="2655.0" font-size="18.2px" font-family="CMUBright-Roman" style="text-anchor:end;fill:rgb(0,0,0);" transform="rotate(-89.9,1503.5,2655.0)" >2000</text>
<line x1='1430.6' y1='2622.9' x2='1429.4' y2='2642.8' style="stroke-width:4.0;stroke:rgb(0,0,0);stroke-linecap:round;fill:none;" />
<text x="1435.3" y="2653.2" font-size="18.2px" font-family="CMUBright-Roman" style="text-anchor:end;fill:rgb(0,0,0);" transform="rotate(-86.5,1435.3,2653.2)" >2050</text>
<line x1='1364.4' y1='2616.8' x2='1361.9' y2='2636.6' style="stroke-width:4.0;stroke:rgb(0,0,0);stroke-linecap:round;fill:none;" />
<text x="1367.2" y="2647.3" font-size="18.2px" font-family="CMUBright-Roman" style="text-anchor:end;fill:rgb(0,0,0);" transform="rotate(-83.1,1367.2,2647.3)" >2100</text>
<line x1='1298.6' y1='2606.8' x2='1295.0' y2='2626.5' style="stroke-width:4.0;stroke:rgb(0,0,0);stroke-linecap:round;fill:none;" />
<text x="1299.6" y="2637.5" font-size="18.2px" font-family="CMUBright-Roman" style="text-anchor:end;fill:rgb(0,0,0);" transform="rotate(-79.7,1299.6,2637.5)" >2150</text>
<line x1='1233.5' y1='2593.0' x2='1228.7' y2='2612.4' style="stroke-width:4.0;stroke:rgb(0,0,0);stroke-linecap:round;fill:none;" />
<text x="1232.7" y="2623.6" font-size="18.2px" font-family="CMUBright-Roman" style="text-anchor:end;fill:rgb(0,0,0);" transform="rotate(-76.3,1232.7,2623.6)" >2200</text>
<line x1='1169.3' y1='2575.3' x2='1163.4' y2='2594.4' style="stroke-width:4.0;stroke:rgb(0,0,0);stroke-linecap:round;fill:none;" />
<text x="1166.7" y="2605.9" font-size="18.2px" font-family="CMUBright-Roman" style="text-anchor:end;fill:rgb(0,0,0);" transform="rotate(-72.9,1166.7,2605.9)" >2250</text>
<line x1='1106.3' y1='2553.9' x2='1099.3' y2='2572.6' style="stroke-width:4.0;stroke:rgb(0,0,0);stroke-linecap:round;fill:none;" />
<text x="1101.9" y="2584.2" font-size="18.2px" font-family="CMUBright-Roman" style="text-anchor:end;fill:rgb(0,0,0);" transform="rotate(-69.5,1101.9,2584.2)" >2300</text>
<line x1='1044.7' y1='2528.8' x2='1036.6' y2='2547.0' style="stroke-width:4.0;stroke:rgb(0,0,0);stroke-linecap:round;fill:none;" />
<text x="1038.5" y="2558.8" font-size="18.2px" font-family="CMUBright-Roman" style="text-anchor:end;fill:rgb(0,0,0);" transform="rotate(-66.1,1038.5,2558.8)" >2350</text>
<line x1='984.7' y1='2500.0' x2='975.5' y2='2517.8' style="stroke-width:4.0;stroke:rgb(0,0,0);stroke-linecap:round;fill:none;" />
<text x="976.7" y="2529.7" font-size="18.2px" font-family="CMUBright-Roman" style="text-anchor:end;fill:rgb(0,0,0);" transform="rotate(-62.7,976.7,2529.7)" >2400</text>
<line x1='926.5' y1='2467.8' x2='916.3' y2='2485.0' style="stroke-width:4.0;stroke:rgb(0,0,0);stroke-linecap:round;fill:none;" />
<text x="916.8" y="2496.9" font-size="18.2px" font-family="CMUBright-Roman" style="text-anchor:end;fill:rgb(0,0,0);" transform="rotate(-59.3,916.8,2496.9)" >2450</text>
<line x1='870.2' y1='2432.2' x2='859.1' y2='2448.8' style="stroke-width:4.0;stroke:rgb(0,0,0);stroke-linecap:round;fill:none;" />
<text x="858.9" y="2460.7" font-size="18.2px" font-family="CMUBright-Roman" style="text-anchor:end;fill:rgb(0,0,0);" transform="rotate(-56.0,858.9,2460.7)" >2500</text>
<line x1='816.2' y1='2393.4' x2='804.1' y2='2409.2' style="stroke-width:4.0;stroke:rgb(0,0,0);stroke-linecap:round;fill:none;" />
<text x="803.2" y="2421.1" font-size="18.2px" font-family="CMUBright-Roman" style="text-anchor:end;fill:rgb(0,0,0);" transform="rotate(-52.6,803.2,2421.1)" >2550</text>
<line x1='764.6' y1='2351.4' x2='751.5' y2='2366.5' style="stroke-width:4.0;stroke:rgb(0,0,0);stroke-linecap:round;fill:none;" />
<text x="749.9" y="2378.3" font-size="18.2px" font-family="CMUBright-Roman" style="text-anchor:end;fill:rgb(0,0,0);" transform="rotate(-49.2,749.9,2378.3)" >2600</text>
<line x1='715.6' y1='2306.4' x2='701.6' y2='2320.7' style="stroke-width:4.0;stroke:rgb(0,0,0);stroke-linecap:round;fill:none;" />
<text x="699.3" y="2332.4" font-size="18.2px" font-family="CMUBright-Roman" style="text-anchor:end;fill:rgb(0,0,0);" transform="rotate(-45.8,699.3,2332.4)" >2650</text>
<line x1='669.3' y1='2258.6' x2='654.5' y2='2272.1' style="stroke-width:4.0;stroke:rgb(0,0,0);stroke-linecap:round;fill:none;" />
<text x="651.5" y="2283.6" font-size="18.2px" font-family="CMUBright-Roman" style="text-anchor:end;fill:rgb(0,0,0);" transform="rotate(-42.4,651.5,2283.6)" >2700</text>
<line x1='625.9' y1='2208.2' x2='610.3' y2='2220.8' style="stroke-width:4.0;stroke:rgb(0,0,0);stroke-linecap:round;fill:none;" />
<text x="606.7" y="2232.1" font-size="18.2px" font-family="CMUBright-Roman" style="text-anchor:end;fill:rgb(0,0,0);" transform="rotate(-39.0,606.7,2232.1)" >2750</text>
<line x1='585.5' y1='2155.3' x2='569.3' y2='2166.9' style="stroke-width:4.0;stroke:rgb(0,0,0);stroke-linecap:round;fill:none;" />
<text x="564.9" y="2178.0" font-size="18.2px" font-family="CMUBright-Roman" style="text-anchor:end;fill:rgb(0,0,0);" transform="rotate(-35.6,564.9,2178.0)" >2800</text>
<line x1='548.4' y1='2100.0' x2='531.5' y2='2110.7' style="stroke-width:4.0;stroke:rgb(0,0,0);stroke-linecap:round;fill:none;" />
<text x="526.5" y="2121.5" font-size="18.2px" font-family="CMUBright-Roman" style="text-anchor:end;fill:rgb(0,0,0);" transform="rotate(-32.2,526.5,2121.5)" >2850</text>
<line x1='514.6' y1='2042.7' x2='497.1' y2='2052.4' style="stroke-width:4.0;stroke:rgb(0,0,0);stroke-linecap:round;fill:none;" />
<text x="491.4" y="2062.9" font-size="18.2px" font-family="CMUBright-Roman" style="text-anchor:end;fill:rgb(0,0,0);" transform="rotate(-28.8,491.4,2062.9)" >2900</text>
<line x1='484.2' y1='1983.5' x2='466.2' y2='1992.1' style="stroke-width:4.0;stroke:rgb(0,0,0);stroke-linecap:round;fill:none;" />
<text x="459.9" y="2002.3" font-size="18.2px" font-family="CMUBright-Roman" style="text-anchor:end;fill:rgb(0,0,0);" transform="rotate(-25.5,459.9,2002.3)" >2950</text>
<line x1='457.4' y1='1922.6' x2='438.9' y2='1930.1' style="stroke-width:4.0;stroke:rgb(0,0,0);stroke-linecap:round;fill:none;" />
<text x="432.1" y="1939.9" font-size="18.2px" font-family="CMUBright-Roman" style="text-anchor:end;fill:rgb(0,0,0);" transform="rotate(-22.1,432.1,1939.9)" >3000</text>
<line x1='434.2' y1='1860.2' x2='415.3' y2='1866.6' style="stroke-width:4.0;stroke:rgb(0,0,0);stroke-linecap:round;fill:none;" />
<text x="407.9" y="1876.0" font-size="18.2px" font-family="CMUBright-Roman" style="text-anchor:end;fill:rgb(0,0,0);" transform="rotate(-18.7,407.9,1876.0)" >3050</text>
<line x1='414.8' y1='1796.6' x2='395.5' y2='1801.9' style="stroke-width:4.0;stroke:rgb(0,0,0);stroke-linecap:round;fill:none;" />
<text x="387.6" y="1810.8" font-size="18.2px" font-family="CMUBright-Roman" style="text-anchor:end;fill:rgb(0,0,0);" transform="rotate(-15.3,387.6,1810.8)" >3100</text>
<line x1='399.2' y1='1731.9' x2='379.6' y2='1736.0' style="stroke-width:4.0;stroke:rgb(0,0,0);stroke-linecap:round;fill:none;" />
<text x="371.2" y="1744.5" font-size="18.2px" font-family="CMUBright-Roman" style="text-anchor:end;fill:rgb(0,0,0);" transform="rotate(-11.9,371.2,1744.5)" >3150</text>
<line x1='387.4' y1='1666.4' x2='367.6' y2='1669.4' style="stroke-width:4.0;stroke:rgb(0,0,0);stroke-linecap:round;fill:none;" />
<text x="358.7" y="1677.3" font-size="18.2px" font-family="CMUBright-Roman" style="text-anchor:end;fill:rgb(0,0,0);" transform="rotate(-8.5,358.7,1677.3)" >3200</text>
<line x1='379.5' y1='1600.4' x2='359.6' y2='1602.1' style="stroke-width:4.0;stroke:rgb(0,0,0);stroke-linecap:round;fill:none;" />
<text x="350.2" y="1609.5" font-size="18.2px" font-family="CMUBright-Roman" style="text-anchor:end;fill:rgb(0,0,0);" transform="rotate(-5.1,350.2,1609.5)" >3250</text>
<line x1='375.5' y1='1533.9' x2='355.5' y2='1534.5' style="stroke-width:4.0;stroke:rgb(0,0,0);stroke-linecap:round;fill:none;" />
<text x="345.7" y="1541.3" font-size="18.2px" font-family="CMUBright-Roman" style="text-anchor:end;fill:rgb(0,0,0);" transform="rotate(-1.7,345.7,1541.3)" >3300</text>
<line x1='375.5' y1='1467.4' x2='355.5' y2='1466.8' style="stroke-width:4.0;stroke:rgb(0,0,0);stroke-linecap:round;fill:none;" />
<text x="345.3" y="1473.0" font-size="18.2px" font-family="CMUBright-Roman" style="text-anchor:end;fill:rgb(0,0,0);" transform="rotate(1.7,345.3,1473.0)" >3350</text>
<line x1='379.4' y1='1401.0' x2='359.4' y2='1399.2' style="stroke-width:4.0;stroke:rgb(0,0,0);stroke-linecap:round;fill:none;" />
<text x="348.9" y="1404.8" font-size="18.2px" font-family="CMUBright-Roman" style="text-anchor:end;fill:rgb(0,0,0);" transform="rotate(5.0,348.9,1404.8)" >3400</text>
<line x1='387.2' y1='1334.9' x2='367.4' y2='1332.0' style="stroke-width:4.0;stroke:rgb(0,0,0);stroke-linecap:round;fill:none;" />
<text x="356.6" y="1336.9" font-size="18.2px" font-family="CMUBright-Roman" style="text-anchor:end;fill:rgb(0,0,0);" transform="rotate(8.4,356.6,1336.9)" >3450</text>
<line x1='398.9' y1='1269.4' x2='379.3' y2='1265.3' style="stroke-width:4.0;stroke:rgb(0,0,0);stroke-linecap:round;fill:none;" />
<text x="368.2" y="1269.6" font-size="18.2px" font-family="CMUBright-Roman" style="text-anchor:end;fill:rgb(0,0,0);" transform="rotate(11.8,368.2,1269.6)" >3500</text>
<line x1='414.4' y1='1204.7' x2='395.2' y2='1199.4' style="stroke-width:4.0;stroke:rgb(0,0,0);stroke-linecap:round;fill:none;" />
<text x="383.8" y="1203.1" font-size="18.2px" font-family="CMUBright-Roman" style="text-anchor:end;fill:rgb(0,0,0);" transform="rotate(15.2,383.8,1203.1)" >3550</text>
<line x1='433.8' y1='1141.0' x2='414.9' y2='1134.7' style="stroke-width:4.0;stroke:rgb(0,0,0);stroke-linecap:round;fill:none;" />
<text x="403.3" y="1137.6" font-size="18.2px" font-family="CMUBright-Roman" style="text-anchor:end;fill:rgb(0,0,0);" transform="rotate(18.6,403.3,1137.6)" >3600</text>
<line x1='456.9' y1='1078.6' x2='438.4' y2='1071.1' style="stroke-width:4.0;stroke:rgb(0,0,0);stroke-linecap:round;fill:none;" />
<text x="426.7" y="1073.4" font-size="18.2px" font-family="CMUBright-Roman" style="text-anchor:end;fill:rgb(0,0,0);" transform="rotate(22.0,426.7,1073.4)" >3650</text>
<line x1='483.6' y1='1017.7' x2='465.6' y2='1009.1' style="stroke-width:4.0;stroke:rgb(0,0,0);stroke-linecap:round;fill:none;" />
<text x="453.8" y="1010.7" font-size="18.2px" font-family="CMUBright-Roman" style="text-anchor:end;fill:rgb(0,0,0);" transform="rotate(25.4,453.8,1010.7)" >3700</text>
<line x1='513.9' y1='958.4' x2='496.4' y2='948.8' style="stroke-width:4.0;stroke:rgb(0,0,0);stroke-linecap:round;fill:none;" />
<text x="484.5" y="949.7" font-size="18.2px" font-family="CMUBright-Roman" style="text-anchor:end;fill:rgb(0,0,0);" transform="rotate(28.8,484.5,949.7)" >3750</text>
<line x1='547.7' y1='901.1' x2='530.7' y2='890.4' style="stroke-width:4.0;stroke:rgb(0,0,0);stroke-linecap:round;fill:none;" />
<text x="518.8" y="890.6" font-size="18.2px" font-family="CMUBright-Roman" style="text-anchor:end;fill:rgb(0,0,0);" transform="rotate(32.2,518.8,890.6)" >3800</text>
<line x1='584.7' y1='845.8' x2='568.5' y2='834.2' style="stroke-width:4.0;stroke:rgb(0,0,0);stroke-linecap:round;fill:none;" />
<text x="556.6" y="833.7" font-size="18.2px" font-family="CMUBright-Roman" style="text-anchor:end;fill:rgb(0,0,0);" transform="rotate(35.6,556.6,833.7)" >3850</text>
<line x1='625.0' y1='792.9' x2='609.5' y2='780.3' style="stroke-width:4.0;stroke:rgb(0,0,0);stroke-linecap:round;fill:none;" />
<text x="597.6" y="779.1" font-size="18.2px" font-family="CMUBright-Roman" style="text-anchor:end;fill:rgb(0,0,0);" transform="rotate(38.9,597.6,779.1)" >3900</text>
<line x1='668.4' y1='742.4' x2='653.6' y2='728.9' style="stroke-width:4.0;stroke:rgb(0,0,0);stroke-linecap:round;fill:none;" />
<text x="641.8" y="727.0" font-size="18.2px" font-family="CMUBright-Roman" style="text-anchor:end;fill:rgb(0,0,0);" transform="rotate(42.3,641.8,727.0)" >3950</text>
<line x1='714.6' y1='694.5' x2='700.6' y2='680.2' style="stroke-width:4.0;stroke:rgb(0,0,0);stroke-linecap:round;fill:none;" />
<text x="689.0" y="677.6" font-size="18.2px" font-family="CMUBright-Roman" style="text-anchor:end;fill:rgb(0,0,0);" transform="rotate(45.7,689.0,677.6)" >4000</text>
<line x1='763.6' y1='649.5' x2='750.5' y2='634.4' style="stroke-width:4.0;stroke:rgb(0,0,0);stroke-linecap:round;fill:none;" />
<text x="739.1" y="631.1" font-size="18.2px" font-family="CMUBright-Roman" style="text-anchor:end;fill:rgb(0,0,0);" transform="rotate(49.1,739.1,631.1)" >4050</text>
<line x1='815.2' y1='607.5' x2='803.0' y2='591.6' style="stroke-width:4.0;stroke:rgb(0,0,0);stroke-linecap:round;fill:none;" />
<text x="791.8" y="587.6" font-size="18.2px" font-family="CMUBright-Roman" style="text-anchor:end;fill:rgb(0,0,0);" transform="rotate(52.5,791.8,587.6)" >4100</text>
<line x1='869.1' y1='568.5' x2='857.9' y2='552.0' style="stroke-width:4.0;stroke:rgb(0,0,0);stroke-linecap:round;fill:none;" />
<text x="846.9" y="547.4" font-size="18.2px" font-family="CMUBright-Roman" style="text-anchor:end;fill:rgb(0,0,0);" transform="rotate(55.9,846.9,547.4)" >4150</text>
<line x1='925.3' y1='532.9' x2='915.1' y2='515.7' style="stroke-width:4.0;stroke:rgb(0,0,0);stroke-linecap:round;fill:none;" />
<text x="904.4" y="510.4" font-size="18.2px" font-family="CMUBright-Roman" style="text-anchor:end;fill:rgb(0,0,0);" transform="rotate(59.3,904.4,510.4)" >4200</text>
<line x1='983.5' y1='500.6' x2='974.3' y2='482.8' style="stroke-width:4.0;stroke:rgb(0,0,0);stroke-linecap:round;fill:none;" />
<text x="964.0" y="476.9" font-size="18.2px" font-family="CMUBright-Roman" style="text-anchor:end;fill:rgb(0,0,0);" transform="rotate(62.7,964.0,476.9)" >4250</text>
<line x1='1043.5' y1='471.8' x2='1035.4' y2='453.5' style="stroke-width:4.0;stroke:rgb(0,0,0);stroke-linecap:round;fill:none;" />
<text x="1025.4" y="447.0" font-size="18.2px" font-family="CMUBright-Roman" style="text-anchor:end;fill:rgb(0,0,0);" transform="rotate(66.1,1025.4,447.0)" >4300</text>
<line x1='1105.1' y1='446.6' x2='1098.0' y2='427.9' style="stroke-width:4.0;stroke:rgb(0,0,0);stroke-linecap:round;fill:none;" />
<text x="1088.5" y="420.8" font-size="18.2px" font-family="CMUBright-Roman" style="text-anchor:end;fill:rgb(0,0,0);" transform="rotate(69.4,1088.5,420.8)" >4350</text>
<line x1='1168.0' y1='425.1' x2='1162.1' y2='406.0' style="stroke-width:4.0;stroke:rgb(0,0,0);stroke-linecap:round;fill:none;" />
<text x="1153.0" y="398.4" font-size="18.2px" font-family="CMUBright-Roman" style="text-anchor:end;fill:rgb(0,0,0);" transform="rotate(72.8,1153.0,398.4)" >4400</text>
<line x1='1232.2' y1='407.3' x2='1227.4' y2='387.9' style="stroke-width:4.0;stroke:rgb(0,0,0);stroke-linecap:round;fill:none;" />
<text x="1218.7" y="379.8" font-size="18.2px" font-family="CMUBright-Roman" style="text-anchor:end;fill:rgb(0,0,0);" transform="rotate(76.2,1218.7,379.8)" >4450</text>
<line x1='1297.2' y1='393.4' x2='1293.6' y2='373.8' style="stroke-width:4.0;stroke:rgb(0,0,0);stroke-linecap:round;fill:none;" />
<text x="1285.4" y="365.1" font-size="18.2px" font-family="CMUBright-Roman" style="text-anchor:end;fill:rgb(0,0,0);" transform="rotate(79.6,1285.4,365.1)" >4500</text>
<line x1='1363.0' y1='383.4' x2='1360.6' y2='363.5' style="stroke-width:4.0;stroke:rgb(0,0,0);stroke-linecap:round;fill:none;" />
<text x="1352.9" y="354.4" font-size="18.2px" font-family="CMUBright-Roman" style="text-anchor:end;fill:rgb(0,0,0);" transform="rotate(83.0,1352.9,354.4)" >4550</text>
<line x1='1429.3' y1='377.2' x2='1428.0' y2='357.3' style="stroke-width:4.0;stroke:rgb(0,0,0);stroke-linecap:round;fill:none;" />
<text x="1420.9" y="347.7" font-size="18.2px" font-family="CMUBright-Roman" style="text-anchor:end;fill:rgb(0,0,0);" transform="rotate(86.4,1420.9,347.7)" >4600</text>
<g id="highlighttrack_0">
<path d="M2379.883,882.399 A1075.000,1075.000 40.000 0,1 2382.156,885.650 L2423.186,857.075 A1125.000,1125.000 0.000 0,0 2420.808,853.673 Z" style="stroke-width:4.0;stroke:rgb(0,0,0);stroke-linecap:round;fill:rgb(116,196,118);" />
<path d="M2416.264,937.786 A1075.000,1075.000 40.000 0,1 2418.290,941.100 L2461.001,915.105 A1125.000,1125.000 0.000 0,0 2458.881,911.637 Z" style="stroke-width:4.0;stroke:rgb(0,0,0);stroke-linecap:round;fill:rgb(116,196,118);" />
<path d="M663.311,2174.964 A1075.000,1075.000 40.000 0,1 660.843,2171.894 L621.813,2203.145 A1125.000,1125.000 0.000 0,0 624.395,2206.358 Z" style="stroke-width:4.0;stroke:rgb(0,0,0);stroke-linecap:round;fill:rgb(251,106,74);" />
<path d="M443.998,1298.793 A1075.000,1075.000 40.000 0,1 444.732,1294.979 L395.649,1285.443 A1125.000,1125.000 0.000 0,0 394.881,1289.435 Z" style="stroke-width:4.0;stroke:rgb(0,0,0);stroke-linecap:round;fill:rgb(251,106,74);" />
<path d="M858.315,637.524 A1075.000,1075.000 40.000 0,1 861.433,635.212 L831.733,594.990 A1125.000,1125.000 0.000 0,0 828.469,597.409 Z" style="stroke-width:4.0;stroke:rgb(0,0,0);stroke-linecap:round;fill:rgb(251,106,74);" />
<path d="M865.310,632.363 A1075.000,1075.000 40.000 0,1 868.515,630.027 L839.144,589.564 A1125.000,1125.000 0.000 0,0 835.790,592.008 Z" style="stroke-width:4.0;stroke:rgb(0,0,0);stroke-linecap:round;fill:rgb(251,106,74);" />
<path d="M1225.515,460.633 A1075.000,1075.000 40.000 0,1 1229.272,459.648 L1216.680,411.260 A1125.000,1125.000 0.000 0,0 1212.748,412.291 Z" style="stroke-width:4.0;stroke:rgb(0,0,0);stroke-linecap:round;fill:rgb(251,106,74);" />
<path d="M1350.589,435.434 A1075.000,1075.000 40.000 0,1 1354.415,434.904 L1347.644,385.364 A1125.000,1125.000 0.000 0,0 1343.640,385.919 Z" style="stroke-width:4.0;stroke:rgb(0,0,0);stroke-linecap:round;fill:rgb(251,106,74);" />
<path d="M2398.629,910.008 A1075.000,1075.000 40.000 0,1 2401.081,913.760 L2442.992,886.493 A1125.000,1125.000 0.000 0,0 2440.426,882.567 Z" style="stroke-width:4.0;stroke:rgb(0,0,0);stroke-linecap:round;fill:rgb(116,196,118);" />
</g>
</g>
<g id="track_0">
<path d="M 2371.084,888.575 A 1064.250,1064.250 0.00 0,1 2373.3,891.8 L 2373.3,891.8 2313.2,933.5 2257.4,971.8 2205.8,1006.9 2158.1,1038.9 2114.1,1067.9 2073.8,1094.2 2036.8,1117.8 2003.1,1138.8 1972.4,1157.5 1944.6,1173.7 1919.7,1187.8 1897.5,1199.6 1877.8,1209.4 1860.6,1217.1 1845.9,1222.8 1833.4,1226.5 1823.3,1228.3 1815.4,1228.2 1809.6,1226.1 1806.1,1222.1 1804.6,1216.2 1805.4,1208.3 1808.3,1198.4 1813.3,1186.5 1820.6,1172.4 1830.1,1156.2 1842.0,1137.7 1856.2,1116.9 1872.9,1093.6 1892.1,1067.8 1913.9,1039.4 1938.5,1008.1 1966.0,974.0 1996.6,936.7 2030.2,896.2 2067.2,852.3 2107.7,804.8 2151.9,753.5 2199.9,698.3  A 1064.250,1064.250 0.00 0,0 2196.9,695.7 L 2196.9,695.7 2149.1,751.1 2105.1,802.6 2064.8,850.2 2028.0,894.2 1994.4,934.9 1964.1,972.2 1936.7,1006.5 1912.2,1037.8 1890.5,1066.4 1871.3,1092.2 1854.8,1115.6 1840.6,1136.4 1828.8,1155.0 1819.4,1171.2 1812.2,1185.3 1807.1,1197.3 1804.3,1207.2 1803.6,1215.1 1805.0,1221.0 1808.6,1225.0 1814.4,1227.0 1822.3,1227.1 1832.4,1225.3 1844.8,1221.5 1859.6,1215.8 1876.7,1208.0 1896.4,1198.2 1918.6,1186.2 1943.4,1172.1 1971.1,1155.7 2001.7,1137.0 2035.4,1115.8 2072.3,1092.1 2112.5,1065.7 2156.4,1036.4 2203.9,1004.3 2255.4,969.0 2311.1,930.5 2371.1,888.6  Z" style="stroke-width: 2.0;  stroke: rgb(82,82,82); fill: rgb(251,106,74); opacity: 0.667;" />
<path d="M 2407.102,943.408 A 1064.250,1064.250 0.00 0,1 2409.1,946.7 L 2409.1,946.7 2346.5,984.6 2288.4,1019.3 2234.5,1051.0 2184.8,1079.8 2139.0,1105.8 2096.8,1129.3 2058.2,1150.2 2022.8,1168.8 1990.7,1185.1 1961.6,1199.2 1935.3,1211.1 1911.9,1221.1 1891.1,1229.0 1872.9,1235.0 1857.1,1239.1 1843.7,1241.4 1832.7,1241.8 1823.9,1240.4 1817.4,1237.1 1813.1,1232.0 1811.0,1225.0 1811.1,1216.1 1813.3,1205.3 1817.8,1192.5 1824.5,1177.7 1833.6,1160.7 1844.9,1141.6 1858.7,1120.1 1875.0,1096.3 1893.8,1070.0 1915.3,1041.1 1939.6,1009.5 1966.9,975.0 1997.1,937.4 2030.6,896.7 2067.4,852.6 2107.8,804.9 2151.9,753.6 2199.9,698.3  A 1064.250,1064.250 0.00 0,0 2196.9,695.7 L 2196.9,695.7 2149.1,751.1 2105.2,802.7 2065.0,850.4 2028.4,894.7 1995.0,935.6 1964.9,973.2 1937.8,1007.8 1913.6,1039.6 1892.2,1068.6 1873.5,1094.9 1857.3,1118.8 1843.6,1140.3 1832.3,1159.5 1823.3,1176.5 1816.7,1191.3 1812.2,1204.1 1810.0,1215.0 1810.0,1223.8 1812.1,1230.8 1816.4,1235.9 1823.0,1239.2 1831.7,1240.6 1842.8,1240.1 1856.1,1237.8 1871.9,1233.7 1890.1,1227.6 1910.9,1219.6 1934.3,1209.6 1960.5,1197.5 1989.6,1183.3 2021.6,1166.9 2056.9,1148.2 2095.5,1127.1 2137.6,1103.5 2183.3,1077.3 2232.9,1048.3 2286.6,1016.5 2344.6,981.5 2407.1,943.4  Z" style="stroke-width: 2.0;  stroke: rgb(82,82,82); fill: rgb(116,196,118); opacity: 0.667;" />
<path d="M 2407.102,943.408 A 1064.250,1064.250 0.00 0,1 2409.1,946.7 L 2409.1,946.7 2346.6,984.7 2288.7,1019.8 2235.4,1052.0 2186.2,1081.6 2141.2,1108.7 2100.0,1133.3 2062.4,1155.7 2028.3,1175.8 1997.6,1193.8 1970.1,1209.9 1945.6,1223.9 1924.1,1236.2 1905.4,1246.6 1889.4,1255.3 1876.1,1262.2 1865.4,1267.5 1857.3,1271.2 1851.6,1273.3 1848.4,1273.8 1847.7,1272.6 1849.4,1269.9 1853.6,1265.5 1860.2,1259.6 1869.4,1251.9 1881.2,1242.6 1895.6,1231.5 1912.6,1218.6 1932.5,1203.8 1955.3,1187.1 1981.1,1168.4 2010.0,1147.6 2042.1,1124.6 2077.7,1099.2 2116.9,1071.5 2159.9,1041.2 2206.8,1008.2 2257.8,972.4 2313.3,933.7 2373.3,891.8  A 1064.250,1064.250 0.00 0,0 2371.1,888.6 L 2371.1,888.6 2311.2,930.7 2255.9,969.6 2205.0,1005.6 2158.2,1038.7 2115.3,1069.2 2076.3,1097.1 2040.7,1122.6 2008.7,1145.7 1979.8,1166.6 1954.1,1185.5 1931.4,1202.2 1911.6,1217.1 1894.6,1230.0 1880.2,1241.2 1868.5,1250.6 1859.4,1258.2 1852.7,1264.3 1848.6,1268.6 1846.9,1271.4 1847.6,1272.5 1850.8,1272.0 1856.4,1269.9 1864.6,1266.2 1875.3,1260.9 1888.5,1253.8 1904.5,1245.1 1923.1,1234.6 1944.6,1222.3 1969.0,1208.2 1996.5,1192.0 2027.2,1173.9 2061.2,1153.6 2098.6,1131.2 2139.8,1106.4 2184.7,1079.2 2233.7,1049.4 2287.0,1016.9 2344.7,981.7 2407.1,943.4  Z" style="stroke-width: 2.0;  stroke: rgb(82,82,82); fill: rgb(107,174,214); opacity: 0.667;" />
<path d="M 671.678,2168.214 A 1064.250,1064.250 0.00 0,1 669.2,2165.2 L 669.2,2165.2 726.5,2117.8 779.8,2070.7 829.5,2024.2 876.0,1978.4 919.6,1933.3 960.6,1889.0 999.3,1845.7 1036.1,1803.4 1071.2,1762.1 1104.8,1721.9 1137.4,1682.9 1169.0,1644.9 1199.9,1608.1 1230.4,1572.4 1260.6,1537.8 1290.8,1504.2 1321.0,1471.6 1351.6,1439.9 1382.6,1409.0 1414.1,1378.8 1446.3,1349.2 1479.3,1320.0 1513.1,1291.1 1548.0,1262.4 1583.9,1233.7 1620.8,1204.8 1658.9,1175.4 1698.1,1145.5 1738.5,1114.6 1780.1,1082.7 1822.8,1049.4 1866.7,1014.5 1911.6,977.6 1957.6,938.6 2004.5,896.9 2052.3,852.5 2100.9,804.8 2150.1,753.5 2199.9,698.3  A 1064.250,1064.250 0.00 0,0 2196.9,695.7 L 2196.9,695.7 2147.3,751.1 2098.3,802.5 2049.9,850.4 2002.2,895.1 1955.5,936.9 1909.7,976.1 1864.9,1013.1 1821.2,1048.2 1778.6,1081.7 1737.1,1113.8 1696.8,1144.7 1657.7,1174.9 1619.7,1204.3 1582.9,1233.4 1547.1,1262.3 1512.4,1291.1 1478.6,1320.1 1445.7,1349.4 1413.6,1379.1 1382.2,1409.4 1351.4,1440.4 1320.9,1472.3 1290.8,1505.0 1260.8,1538.7 1230.7,1573.4 1200.3,1609.2 1169.5,1646.2 1138.0,1684.2 1105.7,1723.4 1072.1,1763.7 1037.2,1805.1 1000.6,1847.5 962.0,1891.0 921.2,1935.4 877.8,1980.7 831.5,2026.7 781.9,2073.4 728.8,2120.6 671.7,2168.2  Z" style="stroke-width: 2.0;  stroke: rgb(82,82,82); fill: rgb(253,141,60); opacity: 0.667;" />
<path d="M 671.678,2168.214 A 1064.250,1064.250 0.00 0,1 669.2,2165.2 L 669.2,2165.2 728.1,2119.6 785.8,2077.7 842.2,2039.2 897.4,2003.6 951.2,1970.6 1003.7,1939.8 1054.7,1910.9 1104.2,1883.7 1152.3,1857.7 1199.0,1832.8 1244.2,1808.7 1288.1,1785.1 1330.6,1761.9 1371.7,1738.7 1411.7,1715.4 1450.4,1691.8 1488.1,1667.8 1524.8,1643.1 1560.6,1617.8 1595.7,1591.5 1630.2,1564.4 1664.3,1536.1 1698.0,1506.8 1731.6,1476.3 1765.2,1444.6 1799.1,1411.7 1833.5,1377.6 1868.5,1342.2 1904.5,1305.7 1941.6,1268.0 1980.1,1229.2 2020.3,1189.4 2062.4,1148.6 2106.8,1107.1 2153.7,1064.8 2203.5,1022.0 2256.5,978.8 2313.0,935.3 2373.3,891.8  A 1064.250,1064.250 0.00 0,0 2371.1,888.6 L 2371.1,888.6 2310.9,932.3 2254.5,976.0 2201.7,1019.4 2152.1,1062.4 2105.3,1104.8 2061.1,1146.6 2019.1,1187.5 1979.1,1227.4 1940.7,1266.3 1903.8,1304.2 1868.0,1340.9 1833.0,1376.3 1798.8,1410.6 1765.0,1443.6 1731.5,1475.5 1698.0,1506.1 1664.4,1535.5 1630.5,1563.9 1596.1,1591.2 1561.1,1617.5 1525.3,1643.0 1488.7,1667.8 1451.1,1692.0 1412.5,1715.7 1372.6,1739.1 1331.5,1762.5 1289.1,1785.9 1245.4,1809.7 1200.2,1833.9 1153.7,1859.0 1105.6,1885.1 1056.2,1912.6 1005.3,1941.6 953.0,1972.6 899.3,2005.8 844.2,2041.6 787.9,2080.4 730.4,2122.4 671.7,2168.2  Z" style="stroke-width: 2.0;  stroke: rgb(82,82,82); fill: rgb(255,0,0); opacity: 0.667;" />
<path d="M 671.678,2168.214 A 1064.250,1064.250 0.00 0,1 669.2,2165.2 L 669.2,2165.2 728.0,2119.6 785.7,2077.8 842.0,2039.4 897.0,2004.0 950.7,1971.1 1003.0,1940.6 1053.9,1912.1 1103.3,1885.2 1151.3,1859.6 1197.9,1835.2 1243.2,1811.6 1287.1,1788.6 1329.7,1765.9 1371.1,1743.4 1411.3,1720.9 1450.4,1698.1 1488.5,1675.0 1525.7,1651.3 1562.2,1627.0 1598.0,1601.9 1633.4,1575.9 1668.4,1549.0 1703.1,1521.1 1737.9,1492.1 1772.8,1462.0 1808.1,1430.9 1844.0,1398.6 1880.6,1365.2 1918.2,1330.7 1957.2,1295.3 1997.6,1258.9 2039.7,1221.6 2084.0,1183.6 2130.5,1144.9 2179.7,1105.7 2231.8,1066.1 2287.2,1026.2 2346.2,986.4 2409.1,946.7  A 1064.250,1064.250 0.00 0,0 2407.1,943.4 L 2407.1,943.4 2344.3,983.3 2285.5,1023.4 2230.3,1063.4 2178.3,1103.2 2129.2,1142.6 2082.8,1181.5 2038.7,1219.7 1996.7,1257.1 1956.4,1293.6 1917.6,1329.2 1880.1,1363.8 1843.6,1397.3 1807.9,1429.7 1772.7,1461.1 1737.9,1491.3 1703.2,1520.4 1668.5,1548.4 1633.7,1575.4 1598.4,1601.5 1562.7,1626.7 1526.3,1651.2 1489.1,1675.0 1451.1,1698.3 1412.1,1721.2 1371.9,1743.9 1330.7,1766.5 1288.1,1789.3 1244.3,1812.5 1199.2,1836.3 1152.6,1860.9 1104.7,1886.6 1055.4,1913.7 1004.6,1942.4 952.4,1973.2 898.9,2006.2 844.0,2041.8 787.8,2080.5 730.3,2122.5 671.7,2168.2  Z" style="stroke-width: 2.0;  stroke: rgb(82,82,82); fill: rgb(255,0,204); opacity: 0.667;" />
<path d="M 454.558,1300.805 A 1064.250,1064.250 0.00 0,1 455.3,1297.0 L 455.3,1297.0 528.0,1310.1 596.8,1320.3 662.1,1328.1 724.0,1333.6 782.9,1337.0 838.8,1338.6 892.1,1338.5 942.9,1336.9 991.4,1334.0 1037.9,1329.8 1082.6,1324.6 1125.6,1318.4 1167.1,1311.3 1207.4,1303.4 1246.5,1294.7 1284.7,1285.3 1322.1,1275.2 1358.8,1264.3 1395.1,1252.8 1431.0,1240.4 1466.7,1227.3 1502.4,1213.3 1538.1,1198.3 1574.0,1182.3 1610.2,1165.2 1646.9,1146.7 1684.0,1126.8 1721.7,1105.3 1760.2,1082.0 1799.5,1056.7 1839.6,1029.1 1880.6,999.2 1922.7,966.6 1965.9,931.0 2010.2,892.2 2055.8,849.8 2102.5,803.6 2150.6,753.2 2199.9,698.3  A 1064.250,1064.250 0.00 0,0 2196.9,695.7 L 2196.9,695.7 2147.8,750.8 2099.9,801.4 2053.3,847.7 2008.0,890.3 1963.8,929.2 1920.7,965.0 1878.8,997.8 1837.8,1027.9 1797.8,1055.5 1758.6,1081.0 1720.3,1104.4 1682.6,1126.1 1645.6,1146.1 1609.0,1164.7 1572.9,1182.1 1537.0,1198.2 1501.3,1213.3 1465.7,1227.4 1430.0,1240.7 1394.2,1253.1 1357.9,1264.9 1321.2,1275.8 1283.9,1286.1 1245.8,1295.7 1206.7,1304.5 1166.5,1312.5 1124.9,1319.8 1082.0,1326.1 1037.3,1331.5 990.8,1335.8 942.3,1338.9 891.5,1340.7 838.2,1341.0 782.3,1339.6 723.4,1336.4 661.5,1331.1 596.2,1323.6 527.3,1313.6 454.6,1300.8  Z" style="stroke-width: 2.0;  stroke: rgb(82,82,82); fill: rgb(255,204,204); opacity: 0.667;" />
<path d="M 454.558,1300.805 A 1064.250,1064.250 0.00 0,1 455.3,1297.0 L 455.3,1297.0 528.1,1310.0 597.4,1320.2 663.4,1327.9 726.2,1333.3 786.1,1336.7 843.4,1338.3 898.2,1338.4 950.7,1337.2 1001.1,1334.7 1049.6,1331.3 1096.4,1327.0 1141.7,1322.0 1185.7,1316.4 1228.6,1310.3 1270.4,1303.7 1311.5,1296.7 1351.9,1289.3 1391.9,1281.7 1431.5,1273.7 1471.0,1265.3 1510.5,1256.6 1550.2,1247.4 1590.1,1237.8 1630.5,1227.6 1671.5,1216.7 1713.1,1205.0 1755.6,1192.3 1799.1,1178.6 1843.7,1163.6 1889.4,1147.1 1936.5,1128.9 1985.0,1108.8 2035.1,1086.6 2086.8,1061.9 2140.2,1034.5 2195.5,1004.2 2252.7,970.5 2312.0,933.1 2373.3,891.8  A 1064.250,1064.250 0.00 0,0 2371.1,888.6 L 2371.1,888.6 2309.9,930.2 2250.8,967.7 2193.7,1001.6 2138.5,1032.2 2085.2,1059.7 2033.6,1084.6 1983.6,1107.0 1935.1,1127.3 1888.1,1145.6 1842.4,1162.3 1797.9,1177.5 1754.5,1191.4 1712.1,1204.2 1670.4,1216.0 1629.5,1227.1 1589.2,1237.5 1549.3,1247.2 1509.7,1256.5 1470.2,1265.4 1430.7,1273.9 1391.1,1282.0 1351.2,1289.9 1310.8,1297.3 1269.7,1304.5 1227.9,1311.2 1185.1,1317.5 1141.1,1323.3 1095.8,1328.5 1049.0,1332.9 1000.5,1336.5 950.1,1339.1 897.6,1340.6 842.8,1340.7 785.6,1339.3 725.6,1336.1 662.7,1330.9 596.8,1323.5 527.4,1313.5 454.6,1300.8  Z" style="stroke-width: 2.0;  stroke: rgb(82,82,82); fill: rgb(255,153,0); opacity: 0.667;" />
<path d="M 454.558,1300.805 A 1064.250,1064.250 0.00 0,1 455.3,1297.0 L 455.3,1297.0 528.2,1310.0 597.5,1320.2 663.7,1327.8 726.7,1333.3 787.0,1336.7 844.5,1338.4 899.7,1338.5 952.6,1337.4 1003.4,1335.2 1052.4,1332.0 1099.8,1328.0 1145.6,1323.3 1190.1,1318.2 1233.5,1312.5 1276.0,1306.6 1317.7,1300.3 1358.8,1293.7 1399.4,1287.0 1439.8,1280.0 1480.0,1272.8 1520.3,1265.3 1560.7,1257.5 1601.5,1249.4 1642.8,1240.8 1684.7,1231.6 1727.4,1221.8 1770.9,1211.2 1815.5,1199.6 1861.3,1186.9 1908.4,1172.9 1956.8,1157.3 2006.8,1140.0 2058.5,1120.7 2111.9,1099.1 2167.2,1075.0 2224.4,1048.0 2283.8,1017.8 2345.3,984.2 2409.1,946.7  A 1064.250,1064.250 0.00 0,0 2407.1,943.4 L 2407.1,943.4 2343.4,981.1 2282.0,1015.0 2222.8,1045.4 2165.6,1072.6 2110.4,1096.9 2057.1,1118.7 2005.5,1138.2 1955.6,1155.7 1907.2,1171.4 1860.2,1185.6 1814.5,1198.5 1769.9,1210.2 1726.4,1221.0 1683.7,1231.0 1641.9,1240.3 1600.6,1249.0 1559.9,1257.3 1519.4,1265.2 1479.2,1272.8 1439.0,1280.2 1398.7,1287.3 1358.0,1294.2 1317.0,1300.9 1275.3,1307.4 1232.9,1313.5 1189.5,1319.3 1145.0,1324.6 1099.1,1329.4 1051.8,1333.6 1002.8,1337.0 952.0,1339.4 899.1,1340.7 844.0,1340.7 786.4,1339.3 726.1,1336.1 663.1,1330.9 596.9,1323.5 527.5,1313.5 454.6,1300.8  Z" style="stroke-width: 2.0;  stroke: rgb(82,82,82); fill: rgb(255,204,0); opacity: 0.667;" />
<path d="M 454.558,1300.805 A 1064.250,1064.250 0.00 0,1 455.3,1297.0 L 455.3,1297.0 527.2,1311.5 593.6,1326.0 655.0,1340.4 711.5,1354.9 763.4,1369.3 811.0,1383.7 854.5,1398.2 894.2,1412.6 930.1,1427.2 962.6,1441.8 991.7,1456.6 1017.7,1471.5 1040.7,1486.6 1060.7,1501.9 1078.0,1517.6 1092.5,1533.5 1104.5,1549.9 1113.9,1566.7 1120.8,1584.0 1125.2,1601.9 1127.1,1620.4 1126.6,1639.6 1123.6,1659.6 1118.1,1680.5 1110.1,1702.4 1099.5,1725.3 1086.2,1749.4 1070.1,1774.6 1051.2,1801.2 1029.2,1829.3 1004.1,1858.9 975.8,1890.1 944.0,1923.1 908.5,1958.0 869.2,1994.9 825.9,2033.9 778.3,2075.2 726.1,2118.9 669.2,2165.2  A 1064.250,1064.250 0.00 0,0 671.7,2168.2 L 671.7,2168.2 728.4,2121.8 780.4,2077.9 827.8,2036.4 871.0,1997.2 910.2,1960.2 945.5,1925.1 977.2,1892.0 1005.5,1860.7 1030.4,1831.0 1052.3,1802.9 1071.1,1776.2 1087.1,1750.9 1100.3,1726.8 1110.9,1703.8 1118.8,1681.9 1124.2,1661.0 1127.1,1641.0 1127.6,1621.7 1125.5,1603.2 1121.1,1585.4 1114.1,1568.1 1104.7,1551.3 1092.7,1535.0 1078.1,1519.1 1060.7,1503.5 1040.6,1488.3 1017.6,1473.2 991.6,1458.4 962.4,1443.8 929.9,1429.3 893.9,1414.8 854.2,1400.5 810.6,1386.2 762.9,1372.0 711.0,1357.7 654.4,1343.5 593.0,1329.3 526.5,1315.0 454.6,1300.8  Z" style="stroke-width: 2.0;  stroke: rgb(82,82,82); fill: rgb(255,255,0); opacity: 0.667;" />
<path d="M 864.732,646.148 A 1064.250,1064.250 0.00 0,1 867.8,643.9 L 867.8,643.9 912.1,702.5 954.6,756.3 995.4,805.5 1034.7,850.3 1072.5,891.2 1108.9,928.2 1144.0,961.7 1177.9,991.8 1210.7,1018.9 1242.5,1042.9 1273.4,1064.2 1303.5,1082.9 1332.9,1099.0 1361.8,1112.8 1390.1,1124.3 1418.0,1133.7 1445.7,1140.9 1473.2,1146.0 1500.6,1149.1 1528.0,1150.3 1555.6,1149.4 1583.4,1146.5 1611.6,1141.6 1640.2,1134.5 1669.4,1125.4 1699.2,1114.0 1729.9,1100.3 1761.4,1084.1 1794.0,1065.5 1827.6,1044.1 1862.5,1019.8 1898.8,992.5 1936.5,962.0 1975.8,928.1 2016.8,890.5 2059.5,848.9 2104.3,803.3 2151.0,753.1 2199.9,698.3  A 1064.250,1064.250 0.00 0,0 2196.9,695.7 L 2196.9,695.7 2148.2,750.7 2101.7,801.0 2057.1,846.8 2014.5,888.5 1973.6,926.3 1934.5,960.4 1896.9,991.0 1860.7,1018.5 1825.9,1042.8 1792.3,1064.4 1759.9,1083.2 1728.4,1099.4 1697.8,1113.2 1668.0,1124.7 1638.8,1134.0 1610.2,1141.1 1582.1,1146.2 1554.3,1149.2 1526.7,1150.2 1499.3,1149.1 1471.9,1146.1 1444.4,1141.1 1416.7,1133.9 1388.7,1124.7 1360.4,1113.3 1331.5,1099.6 1302.0,1083.6 1271.8,1065.0 1240.8,1043.9 1208.9,1019.9 1176.0,993.0 1142.0,963.0 1106.8,929.6 1070.3,892.7 1032.4,852.0 992.9,807.3 951.9,758.3 909.2,704.6 864.7,646.1  Z" style="stroke-width: 2.0;  stroke: rgb(82,82,82); fill: rgb(204,255,0); opacity: 0.667;" />
<path d="M 864.732,646.148 A 1064.250,1064.250 0.00 0,1 867.8,643.9 L 867.8,643.9 912.2,702.5 955.2,756.4 996.7,805.7 1036.9,850.8 1075.8,891.9 1113.6,929.4 1150.2,963.5 1185.9,994.4 1220.6,1022.4 1254.4,1047.6 1287.5,1070.2 1320.0,1090.4 1351.9,1108.4 1383.3,1124.3 1414.4,1138.1 1445.3,1150.1 1476.0,1160.3 1506.7,1168.7 1537.5,1175.5 1568.5,1180.6 1599.9,1184.0 1631.6,1185.9 1664.0,1186.1 1697.1,1184.7 1731.0,1181.5 1765.9,1176.6 1801.8,1169.8 1839.1,1161.0 1877.7,1150.2 1917.8,1137.2 1959.7,1121.9 2003.3,1104.0 2049.0,1083.5 2096.7,1060.1 2146.8,1033.6 2199.4,1003.7 2254.5,970.3 2312.4,933.1 2373.3,891.8  A 1064.250,1064.250 0.00 0,0 2371.1,888.6 L 2371.1,888.6 2310.3,930.1 2252.5,967.6 2197.5,1001.2 2145.1,1031.2 2095.1,1057.9 2047.4,1081.5 2001.9,1102.2 1958.3,1120.2 1916.5,1135.7 1876.4,1148.8 1837.8,1159.8 1800.6,1168.7 1764.7,1175.6 1729.8,1180.7 1695.9,1183.9 1662.9,1185.5 1630.5,1185.4 1598.7,1183.7 1567.4,1180.3 1536.3,1175.3 1505.5,1168.7 1474.8,1160.4 1444.0,1150.3 1413.1,1138.4 1382.0,1124.7 1350.5,1108.9 1318.5,1091.1 1286.0,1071.0 1252.8,1048.5 1218.8,1023.4 1184.0,995.6 1148.3,964.8 1111.5,930.8 1073.6,893.5 1034.6,852.4 994.2,807.5 952.5,758.3 909.4,704.7 864.7,646.1  Z" style="stroke-width: 2.0;  stroke: rgb(82,82,82); fill: rgb(0,255,0); opacity: 0.667;" />
<path d="M 864.732,646.148 A 1064.250,1064.250 0.00 0,1 867.8,643.9 L 867.8,643.9 912.3,702.5 955.3,756.4 997.0,805.8 1037.5,850.9 1076.7,892.2 1114.7,929.8 1151.7,964.1 1187.8,995.3 1222.9,1023.5 1257.2,1049.0 1290.9,1072.1 1323.8,1092.7 1356.3,1111.2 1388.3,1127.7 1420.0,1142.2 1451.5,1155.0 1482.9,1166.0 1514.3,1175.4 1545.8,1183.2 1577.5,1189.4 1609.6,1194.1 1642.2,1197.3 1675.4,1199.0 1709.4,1199.1 1744.2,1197.6 1780.1,1194.5 1817.2,1189.7 1855.5,1183.0 1895.3,1174.4 1936.8,1163.8 1980.0,1150.9 2025.1,1135.7 2072.3,1118.0 2121.8,1097.6 2173.7,1074.2 2228.2,1047.7 2285.5,1017.8 2345.7,984.2 2409.1,946.7  A 1064.250,1064.250 0.00 0,0 2407.1,943.4 L 2407.1,943.4 2343.9,981.1 2283.8,1014.9 2226.6,1045.0 2172.2,1071.8 2120.4,1095.3 2071.0,1115.9 2023.8,1133.8 1978.7,1149.2 1935.6,1162.2 1894.2,1173.0 1854.4,1181.7 1816.0,1188.5 1779.0,1193.5 1743.1,1196.7 1708.3,1198.3 1674.3,1198.3 1641.1,1196.8 1608.5,1193.7 1576.4,1189.1 1544.6,1183.0 1513.1,1175.3 1481.7,1166.1 1450.3,1155.2 1418.7,1142.5 1387.0,1128.1 1354.9,1111.8 1322.4,1093.4 1289.3,1072.8 1255.6,1049.9 1221.2,1024.5 1186.0,996.4 1149.8,965.4 1112.7,931.2 1074.5,893.7 1035.1,852.6 994.5,807.6 952.7,758.4 909.4,704.7 864.7,646.1  Z" style="stroke-width: 2.0;  stroke: rgb(82,82,82); fill: rgb(53,128,0); opacity: 0.667;" />
<path d="M 864.732,646.148 A 1064.250,1064.250 0.00 0,1 867.8,643.9 L 867.8,643.9 910.8,703.6 949.6,760.5 984.5,814.7 1015.8,866.5 1043.7,915.8 1068.4,963.0 1090.2,1008.1 1109.3,1051.4 1125.8,1092.9 1140.0,1132.7 1151.9,1171.1 1161.7,1208.2 1169.6,1244.1 1175.5,1279.0 1179.7,1313.0 1182.2,1346.1 1183.0,1378.7 1182.1,1410.6 1179.7,1442.3 1175.6,1473.6 1169.8,1504.8 1162.5,1535.9 1153.3,1567.1 1142.4,1598.6 1129.7,1630.3 1115.0,1662.5 1098.2,1695.2 1079.1,1728.5 1057.8,1762.5 1033.9,1797.5 1007.2,1833.3 977.7,1870.2 945.0,1908.2 909.0,1947.5 869.4,1988.0 825.9,2030.0 778.2,2073.4 726.1,2118.5 669.2,2165.2  A 1064.250,1064.250 0.00 0,0 671.7,2168.2 L 671.7,2168.2 728.4,2121.3 780.3,2076.1 827.8,2032.5 871.2,1990.3 910.7,1949.6 946.5,1910.2 979.1,1872.1 1008.5,1835.1 1034.9,1799.2 1058.7,1764.2 1080.0,1730.0 1098.9,1696.6 1115.6,1663.9 1130.2,1631.7 1142.8,1599.9 1153.6,1568.4 1162.6,1537.1 1169.9,1506.0 1175.5,1474.8 1179.5,1443.4 1181.8,1411.8 1182.5,1379.8 1181.6,1347.3 1179.1,1314.1 1174.8,1280.2 1168.7,1245.3 1160.7,1209.5 1150.7,1172.4 1138.7,1134.0 1124.4,1094.2 1107.7,1052.8 1088.5,1009.6 1066.5,964.6 1041.6,917.5 1013.5,868.2 982.1,816.6 947.0,762.5 907.9,705.7 864.7,646.1  Z" style="stroke-width: 2.0;  stroke: rgb(82,82,82); fill: rgb(0,0,204); opacity: 0.667;" />
<path d="M 864.732,646.148 A 1064.250,1064.250 0.00 0,1 867.8,643.9 L 867.8,643.9 911.0,703.1 950.3,758.5 985.8,810.3 1017.9,858.7 1046.7,903.9 1072.3,946.0 1094.9,985.3 1114.7,1021.8 1131.7,1055.8 1146.1,1087.3 1158.0,1116.6 1167.4,1143.7 1174.5,1168.8 1179.3,1191.9 1181.8,1213.3 1182.1,1232.9 1180.2,1250.8 1176.2,1267.2 1169.9,1282.1 1161.4,1295.5 1150.6,1307.6 1137.6,1318.3 1122.2,1327.7 1104.4,1335.9 1084.0,1342.8 1061.1,1348.4 1035.4,1352.8 1006.8,1355.9 975.3,1357.7 940.6,1358.3 902.6,1357.5 861.1,1355.4 816.0,1351.8 766.9,1346.8 713.8,1340.2 656.3,1332.1 594.2,1322.2 527.3,1310.6 455.3,1297.0  A 1064.250,1064.250 0.00 0,0 454.6,1300.8 L 454.6,1300.8 526.6,1314.1 593.6,1325.5 655.7,1335.1 713.2,1343.1 766.4,1349.5 815.5,1354.3 860.6,1357.7 902.1,1359.7 940.1,1360.3 974.8,1359.6 1006.3,1357.7 1034.8,1354.4 1060.5,1350.0 1083.4,1344.3 1103.8,1337.3 1121.6,1329.1 1136.9,1319.6 1149.9,1308.9 1160.6,1296.8 1169.1,1283.3 1175.3,1268.4 1179.3,1252.0 1181.2,1234.0 1180.8,1214.4 1178.2,1193.1 1173.3,1170.0 1166.1,1144.9 1156.6,1117.8 1144.6,1088.6 1130.1,1057.1 1112.9,1023.2 1093.1,986.7 1070.3,947.6 1044.5,905.5 1015.6,860.5 983.4,812.2 947.6,760.5 908.1,705.2 864.7,646.1  Z" style="stroke-width: 2.0;  stroke: rgb(82,82,82); fill: rgb(102,153,255); opacity: 0.667;" />
<path d="M 871.657,641.039 A 1064.250,1064.250 0.00 0,1 874.8,638.7 L 874.8,638.7 918.6,697.7 960.7,751.8 1001.1,801.3 1039.9,846.5 1077.3,887.7 1113.4,925.0 1148.1,958.7 1181.7,989.2 1214.3,1016.4 1245.8,1040.7 1276.5,1062.2 1306.3,1081.1 1335.5,1097.4 1364.2,1111.4 1392.3,1123.1 1420.1,1132.5 1447.6,1139.9 1474.9,1145.2 1502.1,1148.4 1529.4,1149.6 1556.9,1148.8 1584.5,1146.0 1612.6,1141.2 1641.1,1134.2 1670.2,1125.1 1699.9,1113.8 1730.5,1100.1 1761.9,1084.0 1794.4,1065.4 1828.0,1044.0 1862.8,1019.8 1899.0,992.5 1936.7,962.0 1975.9,928.1 2016.8,890.4 2059.6,848.9 2104.3,803.3 2151.0,753.1 2199.9,698.3  A 1064.250,1064.250 0.00 0,0 2196.9,695.7 L 2196.9,695.7 2148.2,750.7 2101.7,801.0 2057.2,846.8 2014.6,888.5 1973.8,926.3 1934.6,960.4 1897.1,991.0 1861.0,1018.4 1826.3,1042.8 1792.8,1064.3 1760.4,1083.1 1729.0,1099.3 1698.5,1113.0 1668.8,1124.5 1639.7,1133.7 1611.2,1140.8 1583.2,1145.7 1555.5,1148.6 1528.1,1149.5 1500.8,1148.4 1473.6,1145.3 1446.2,1140.1 1418.7,1132.8 1390.9,1123.4 1362.7,1111.9 1334.1,1098.0 1304.8,1081.8 1274.8,1063.0 1244.1,1041.6 1212.5,1017.5 1179.9,990.3 1146.1,960.0 1111.3,926.4 1075.1,889.2 1037.5,848.2 998.5,803.2 957.9,753.8 915.7,699.9 871.7,641.0  Z" style="stroke-width: 2.0;  stroke: rgb(82,82,82); fill: rgb(153,204,255); opacity: 0.667;" />
<path d="M 871.657,641.039 A 1064.250,1064.250 0.00 0,1 874.8,638.7 L 874.8,638.7 918.8,697.8 961.3,751.9 1002.4,801.6 1042.2,847.0 1080.7,888.5 1118.1,926.2 1154.4,960.6 1189.7,991.8 1224.2,1020.0 1257.7,1045.4 1290.6,1068.2 1322.8,1088.7 1354.5,1106.8 1385.7,1122.9 1416.6,1136.9 1447.3,1149.0 1477.9,1159.3 1508.4,1167.9 1539.1,1174.8 1569.9,1180.0 1601.1,1183.6 1632.8,1185.5 1665.0,1185.8 1698.0,1184.4 1731.8,1181.3 1766.5,1176.4 1802.4,1169.7 1839.6,1161.0 1878.1,1150.2 1918.2,1137.2 1959.9,1121.8 2003.5,1104.0 2049.1,1083.5 2096.9,1060.1 2146.9,1033.6 2199.4,1003.7 2254.5,970.3 2312.4,933.1 2373.3,891.8  A 1064.250,1064.250 0.00 0,0 2371.1,888.6 L 2371.1,888.6 2310.3,930.1 2252.6,967.6 2197.6,1001.2 2145.2,1031.2 2095.2,1057.9 2047.6,1081.5 2002.1,1102.1 1958.5,1120.2 1916.8,1135.6 1876.8,1148.8 1838.3,1159.7 1801.2,1168.5 1765.3,1175.4 1730.6,1180.5 1696.8,1183.7 1663.9,1185.2 1631.6,1185.0 1599.9,1183.2 1568.7,1179.7 1537.9,1174.6 1507.2,1167.9 1476.6,1159.4 1446.0,1149.2 1415.3,1137.2 1384.4,1123.3 1353.0,1107.4 1321.3,1089.3 1289.0,1069.0 1256.1,1046.3 1222.4,1021.0 1187.9,992.9 1152.4,961.9 1116.0,927.7 1078.5,890.0 1039.8,848.7 999.8,803.4 958.5,753.9 915.8,699.9 871.7,641.0  Z" style="stroke-width: 2.0;  stroke: rgb(82,82,82); fill: rgb(0,255,255); opacity: 0.667;" />
<path d="M 871.657,641.039 A 1064.250,1064.250 0.00 0,1 874.8,638.7 L 874.8,638.7 918.8,697.8 961.4,752.0 1002.7,801.7 1042.7,847.2 1081.5,888.7 1119.3,926.7 1155.9,961.2 1191.7,992.6 1226.5,1021.1 1260.6,1046.9 1293.9,1070.1 1326.7,1091.0 1358.9,1109.7 1390.7,1126.3 1422.2,1141.0 1453.5,1153.9 1484.7,1165.1 1515.9,1174.6 1547.3,1182.5 1578.9,1188.8 1610.9,1193.6 1643.3,1196.9 1676.4,1198.7 1710.3,1198.9 1745.0,1197.4 1780.8,1194.4 1817.7,1189.6 1856.0,1182.9 1895.8,1174.4 1937.1,1163.7 1980.3,1150.9 2025.3,1135.7 2072.5,1118.0 2121.9,1097.6 2173.8,1074.2 2228.3,1047.7 2285.5,1017.8 2345.8,984.2 2409.1,946.7  A 1064.250,1064.250 0.00 0,0 2407.1,943.4 L 2407.1,943.4 2343.9,981.1 2283.8,1014.9 2226.6,1045.0 2172.3,1071.8 2120.5,1095.3 2071.1,1115.9 2024.0,1133.8 1979.0,1149.2 1935.9,1162.2 1894.6,1172.9 1854.9,1181.6 1816.6,1188.4 1779.7,1193.4 1743.9,1196.6 1709.2,1198.1 1675.3,1198.0 1642.2,1196.4 1609.7,1193.2 1577.8,1188.6 1546.1,1182.3 1514.8,1174.5 1483.5,1165.2 1452.3,1154.1 1420.9,1141.3 1389.4,1126.7 1357.5,1110.2 1325.2,1091.6 1292.3,1070.9 1258.9,1047.7 1224.7,1022.1 1189.8,993.8 1154.0,962.5 1117.1,928.1 1079.3,890.3 1040.3,848.8 1000.1,803.5 958.6,754.0 915.9,699.9 871.7,641.0  Z" style="stroke-width: 2.0;  stroke: rgb(82,82,82); fill: rgb(204,255,255); opacity: 0.667;" />
<path d="M 871.657,641.039 A 1064.250,1064.250 0.00 0,1 874.8,638.7 L 874.8,638.7 917.3,698.8 955.7,756.0 990.1,810.6 1021.0,862.6 1048.5,912.2 1072.8,959.7 1094.3,1005.0 1113.0,1048.5 1129.2,1090.2 1143.1,1130.2 1154.7,1168.8 1164.2,1206.1 1171.8,1242.1 1177.6,1277.1 1181.6,1311.2 1183.8,1344.5 1184.4,1377.2 1183.4,1409.3 1180.8,1441.0 1176.5,1472.4 1170.7,1503.7 1163.2,1535.0 1153.9,1566.3 1143.0,1597.8 1130.1,1629.6 1115.3,1661.9 1098.4,1694.6 1079.4,1728.0 1057.9,1762.2 1034.0,1797.1 1007.3,1833.0 977.8,1870.0 945.1,1908.1 909.1,1947.3 869.4,1987.9 825.9,2029.9 778.2,2073.4 726.1,2118.5 669.2,2165.2  A 1064.250,1064.250 0.00 0,0 671.7,2168.2 L 671.7,2168.2 728.4,2121.3 780.4,2076.1 827.9,2032.4 871.2,1990.3 910.7,1949.5 946.6,1910.1 979.1,1871.9 1008.6,1834.8 1035.1,1798.8 1058.9,1763.8 1080.2,1729.6 1099.2,1696.1 1115.9,1663.3 1130.6,1631.0 1143.3,1599.1 1154.2,1567.5 1163.3,1536.2 1170.7,1504.9 1176.4,1473.6 1180.5,1442.2 1183.1,1410.5 1184.0,1378.3 1183.2,1345.7 1180.9,1312.4 1176.8,1278.3 1170.9,1243.3 1163.2,1207.3 1153.5,1170.1 1141.7,1131.5 1127.7,1091.5 1111.3,1049.9 1092.5,1006.5 1070.8,961.2 1046.3,913.9 1018.6,864.4 987.6,812.5 952.9,758.1 914.4,701.0 871.7,641.0  Z" style="stroke-width: 2.0;  stroke: rgb(82,82,82); fill: rgb(153,0,204); opacity: 0.667;" />
<path d="M 871.657,641.039 A 1064.250,1064.250 0.00 0,1 874.8,638.7 L 874.8,638.7 917.5,698.3 956.3,754.1 991.5,806.2 1023.1,854.9 1051.5,900.3 1076.8,942.7 1099.0,982.2 1118.4,1018.9 1135.2,1053.1 1149.3,1084.9 1160.9,1114.3 1170.1,1141.6 1176.9,1166.8 1181.5,1190.1 1183.8,1211.6 1183.9,1231.3 1181.9,1249.4 1177.6,1265.9 1171.2,1280.9 1162.5,1294.5 1151.7,1306.6 1138.5,1317.4 1123.0,1327.0 1105.0,1335.2 1084.6,1342.1 1061.6,1347.8 1035.8,1352.3 1007.2,1355.5 975.6,1357.4 940.8,1358.0 902.8,1357.3 861.3,1355.2 816.1,1351.7 767.0,1346.7 713.8,1340.2 656.3,1332.0 594.2,1322.2 527.3,1310.6 455.3,1297.0  A 1064.250,1064.250 0.00 0,0 454.6,1300.8 L 454.6,1300.8 526.6,1314.1 593.6,1325.5 655.7,1335.1 713.3,1343.0 766.5,1349.4 815.6,1354.2 860.8,1357.5 902.3,1359.5 940.3,1360.0 975.1,1359.3 1006.7,1357.3 1035.3,1354.0 1061.0,1349.4 1084.0,1343.6 1104.4,1336.6 1122.3,1328.3 1137.8,1318.8 1151.0,1307.9 1161.8,1295.7 1170.4,1282.1 1176.8,1267.1 1180.9,1250.6 1182.9,1232.5 1182.8,1212.8 1180.3,1191.3 1175.7,1168.0 1168.8,1142.8 1159.5,1115.6 1147.7,1086.2 1133.5,1054.5 1116.7,1020.3 1097.1,983.7 1074.7,944.3 1049.3,902.0 1020.8,856.6 988.9,808.1 953.6,756.1 914.6,700.5 871.7,641.0  Z" style="stroke-width: 2.0;  stroke: rgb(82,82,82); fill: rgb(204,51,255); opacity: 0.667;" />
<path d="M 871.657,641.039 A 1064.250,1064.250 0.00 0,1 874.8,638.7 L 874.8,638.7 917.8,698.0 957.5,752.7 994.2,803.2 1027.8,849.6 1058.6,892.2 1086.8,931.1 1112.4,966.4 1135.6,998.5 1156.5,1027.4 1175.1,1053.2 1191.6,1076.0 1206.0,1096.1 1218.5,1113.5 1229.0,1128.2 1237.7,1140.4 1244.6,1150.1 1249.7,1157.3 1253.0,1162.2 1254.6,1164.6 1254.4,1164.7 1252.6,1162.5 1248.9,1157.8 1243.6,1150.8 1236.4,1141.3 1227.4,1129.4 1216.6,1114.9 1203.8,1097.8 1189.0,1077.9 1172.2,1055.3 1153.2,1029.7 1132.0,1001.1 1108.4,969.3 1082.5,934.2 1053.9,895.7 1022.6,853.4 988.6,807.3 951.5,757.1 911.3,702.7 867.8,643.9  A 1064.250,1064.250 0.00 0,0 864.7,646.1 L 864.7,646.1 908.4,704.9 948.8,759.1 986.1,809.1 1020.3,855.1 1051.7,897.3 1080.4,935.8 1106.5,970.8 1130.2,1002.5 1151.5,1031.0 1170.6,1056.5 1187.5,1079.1 1202.3,1098.8 1215.2,1115.9 1226.1,1130.4 1235.1,1142.3 1242.3,1151.7 1247.7,1158.8 1251.3,1163.4 1253.2,1165.6 1253.4,1165.5 1251.8,1163.1 1248.4,1158.2 1243.3,1151.0 1236.4,1141.3 1227.7,1129.2 1217.1,1114.5 1204.5,1097.2 1190.0,1077.2 1173.4,1054.4 1154.7,1028.6 1133.8,999.8 1110.5,967.9 1084.7,932.6 1056.4,893.8 1025.4,851.4 991.6,805.1 954.8,754.7 914.9,700.1 871.7,641.0  Z" style="stroke-width: 2.0;  stroke: rgb(82,82,82); fill: rgb(204,153,255); opacity: 0.667;" />
<path d="M 1228.259,471.027 A 1064.250,1064.250 0.00 0,1 1232.0,470.1 L 1232.0,470.1 1251.0,540.9 1269.8,606.4 1288.4,666.8 1306.7,722.4 1324.9,773.5 1342.9,820.3 1360.7,863.1 1378.4,902.1 1396.0,937.4 1413.6,969.4 1431.2,998.1 1448.8,1023.7 1466.5,1046.4 1484.3,1066.2 1502.3,1083.3 1520.6,1097.8 1539.2,1109.8 1558.2,1119.3 1577.6,1126.4 1597.5,1131.1 1618.0,1133.4 1639.3,1133.4 1661.2,1131.0 1684.1,1126.2 1707.8,1118.9 1732.6,1109.1 1758.6,1096.7 1785.8,1081.7 1814.3,1063.9 1844.3,1043.2 1875.9,1019.4 1909.2,992.4 1944.2,962.1 1981.3,928.3 2020.3,890.7 2061.6,849.1 2105.2,803.3 2151.2,753.2 2199.9,698.3  A 1064.250,1064.250 0.00 0,0 2196.9,695.7 L 2196.9,695.7 2148.5,750.7 2102.6,801.1 2059.2,847.0 2018.0,888.7 1979.1,926.5 1942.2,960.5 1907.3,990.9 1874.1,1018.0 1842.6,1041.9 1812.7,1062.7 1784.2,1080.6 1757.1,1095.8 1731.2,1108.3 1706.4,1118.1 1682.7,1125.5 1659.9,1130.4 1637.9,1132.9 1616.7,1133.0 1596.2,1130.7 1576.2,1126.1 1556.8,1119.1 1537.8,1109.7 1519.1,1097.8 1500.8,1083.3 1482.7,1066.2 1464.8,1046.5 1447.1,1023.9 1429.4,998.3 1411.7,969.7 1394.0,937.8 1376.2,902.5 1358.4,863.6 1340.4,820.9 1322.3,774.1 1303.9,723.1 1285.4,667.5 1266.6,607.2 1247.6,541.8 1228.3,471.0  Z" style="stroke-width: 2.0;  stroke: rgb(82,82,82); fill: rgb(102,102,102); opacity: 0.667;" />
<path d="M 1228.259,471.027 A 1064.250,1064.250 0.00 0,1 1232.0,470.1 L 1232.0,470.1 1251.2,540.9 1270.4,606.6 1289.6,667.2 1308.9,723.2 1328.1,774.8 1347.4,822.3 1366.8,865.9 1386.2,905.8 1405.7,942.4 1425.2,975.7 1445.0,1005.9 1464.9,1033.3 1485.0,1057.9 1505.4,1080.0 1526.2,1099.6 1547.3,1116.9 1569.0,1131.9 1591.2,1144.7 1613.9,1155.5 1637.5,1164.2 1661.8,1170.8 1687.0,1175.5 1713.2,1178.1 1740.5,1178.8 1769.0,1177.4 1798.9,1173.9 1830.2,1168.2 1863.1,1160.4 1897.8,1150.3 1934.3,1137.7 1972.8,1122.6 2013.5,1104.9 2056.6,1084.3 2102.1,1060.8 2150.3,1034.1 2201.3,1004.1 2255.4,970.5 2312.7,933.2 2373.3,891.8  A 1064.250,1064.250 0.00 0,0 2371.1,888.6 L 2371.1,888.6 2310.6,930.2 2253.4,967.8 2199.5,1001.5 2148.6,1031.7 2100.5,1058.6 2055.0,1082.3 2012.1,1103.0 1971.4,1120.9 1932.9,1136.1 1896.5,1148.8 1861.8,1159.1 1829.0,1167.0 1797.7,1172.8 1767.8,1176.4 1739.3,1177.9 1712.0,1177.3 1685.8,1174.8 1660.6,1170.2 1636.2,1163.7 1612.7,1155.1 1589.9,1144.4 1567.6,1131.6 1546.0,1116.7 1524.7,1099.5 1503.9,1080.0 1483.4,1058.0 1463.2,1033.4 1443.2,1006.1 1423.3,975.9 1403.6,942.7 1384.0,906.3 1364.5,866.4 1345.0,822.9 1325.5,775.4 1306.1,723.9 1286.6,668.0 1267.1,607.4 1247.7,541.8 1228.3,471.0  Z" style="stroke-width: 2.0;  stroke: rgb(82,82,82); fill: rgb(153,153,153); opacity: 0.667;" />
<path d="M 1228.259,471.027 A 1064.250,1064.250 0.00 0,1 1232.0,470.1 L 1232.0,470.1 1251.2,541.0 1270.5,606.6 1289.9,667.4 1309.4,723.5 1328.9,775.2 1348.5,822.9 1368.2,866.7 1388.0,907.0 1407.9,943.8 1428.0,977.5 1448.2,1008.2 1468.6,1036.1 1489.3,1061.3 1510.3,1084.0 1531.6,1104.3 1553.4,1122.4 1575.7,1138.3 1598.5,1152.1 1622.0,1163.9 1646.2,1173.7 1671.3,1181.6 1697.3,1187.5 1724.4,1191.6 1752.6,1193.8 1782.1,1194.1 1812.9,1192.4 1845.3,1188.6 1879.4,1182.8 1915.3,1174.8 1953.1,1164.6 1993.0,1152.0 2035.2,1136.8 2079.9,1119.0 2127.1,1098.4 2177.2,1074.9 2230.2,1048.1 2286.4,1018.0 2346.0,984.2 2409.1,946.7  A 1064.250,1064.250 0.00 0,0 2407.1,943.4 L 2407.1,943.4 2344.1,981.2 2284.7,1015.1 2228.6,1045.5 2175.7,1072.4 2125.7,1096.2 2078.5,1116.9 2033.9,1134.9 1991.8,1150.2 1951.9,1162.9 1914.1,1173.3 1878.3,1181.4 1844.2,1187.4 1811.8,1191.2 1781.0,1193.0 1751.5,1192.9 1723.3,1190.8 1696.2,1186.8 1670.2,1180.9 1645.1,1173.1 1620.8,1163.4 1597.2,1151.7 1574.3,1138.0 1552.0,1122.2 1530.2,1104.2 1508.7,1084.0 1487.7,1061.3 1466.9,1036.2 1446.4,1008.4 1426.1,977.8 1405.9,944.2 1385.9,907.4 1365.9,867.2 1346.1,823.4 1326.3,775.8 1306.6,724.2 1286.9,668.1 1267.3,607.5 1247.7,541.9 1228.3,471.0  Z" style="stroke-width: 2.0;  stroke: rgb(82,82,82); fill: rgb(204,204,204); opacity: 0.667;" />
<path d="M 1228.259,471.027 A 1064.250,1064.250 0.00 0,1 1232.0,470.1 L 1232.0,470.1 1249.6,541.7 1264.2,609.6 1276.0,674.0 1285.4,735.1 1292.6,793.1 1297.6,848.2 1300.8,900.7 1302.3,950.7 1302.3,998.6 1300.8,1044.3 1298.1,1088.2 1294.2,1130.5 1289.2,1171.3 1283.1,1210.7 1276.1,1249.0 1268.2,1286.3 1259.4,1322.8 1249.6,1358.7 1239.0,1394.0 1227.4,1428.9 1214.8,1463.5 1201.2,1498.1 1186.4,1532.6 1170.5,1567.3 1153.2,1602.1 1134.4,1637.4 1114.1,1673.0 1091.9,1709.3 1067.9,1746.1 1041.7,1783.7 1013.1,1822.0 982.0,1861.2 948.0,1901.4 911.0,1942.5 870.6,1984.8 826.5,2028.1 778.5,2072.6 726.2,2118.3 669.2,2165.2  A 1064.250,1064.250 0.00 0,0 671.7,2168.2 L 671.7,2168.2 728.5,2121.1 780.6,2075.2 828.5,2030.5 872.3,1987.1 912.6,1944.7 949.5,1903.4 983.3,1863.1 1014.3,1823.8 1042.7,1785.3 1068.8,1747.7 1092.7,1710.7 1114.7,1674.5 1134.9,1638.7 1153.6,1603.4 1170.7,1568.5 1186.6,1533.7 1201.2,1499.2 1214.7,1464.6 1227.1,1429.9 1238.6,1394.9 1249.1,1359.6 1258.7,1323.7 1267.4,1287.2 1275.2,1249.8 1282.1,1211.5 1288.0,1172.0 1292.8,1131.2 1296.6,1089.0 1299.2,1045.0 1300.5,999.3 1300.4,951.5 1298.7,901.4 1295.3,848.9 1290.0,793.8 1282.7,735.8 1273.1,674.8 1260.9,610.5 1246.1,542.6 1228.3,471.0  Z" style="stroke-width: 2.0;  stroke: rgb(82,82,82); fill: rgb(204,204,153); opacity: 0.667;" />
<path d="M 1228.259,471.027 A 1064.250,1064.250 0.00 0,1 1232.0,470.1 L 1232.0,470.1 1249.8,541.3 1265.1,607.8 1278.1,669.9 1288.8,727.9 1297.4,782.0 1303.9,832.3 1308.6,879.3 1311.5,923.0 1312.7,963.6 1312.1,1001.4 1310.0,1036.5 1306.4,1069.0 1301.2,1099.3 1294.4,1127.2 1286.2,1153.1 1276.5,1177.0 1265.3,1199.1 1252.5,1219.4 1238.1,1238.0 1222.1,1255.1 1204.5,1270.6 1185.0,1284.6 1163.7,1297.2 1140.4,1308.4 1115.1,1318.2 1087.6,1326.7 1057.8,1333.7 1025.5,1339.4 990.6,1343.8 952.9,1346.6 912.3,1348.0 868.5,1347.9 821.4,1346.1 770.7,1342.7 716.2,1337.6 657.6,1330.5 594.8,1321.5 527.5,1310.4 455.3,1297.0  A 1064.250,1064.250 0.00 0,0 454.6,1300.8 L 454.6,1300.8 526.8,1313.9 594.2,1324.8 657.0,1333.6 715.6,1340.4 770.1,1345.4 820.8,1348.6 868.0,1350.2 911.8,1350.1 952.4,1348.6 990.0,1345.6 1024.9,1341.2 1057.2,1335.3 1087.0,1328.1 1114.4,1319.6 1139.7,1309.7 1163.0,1298.4 1184.2,1285.7 1203.6,1271.6 1221.3,1256.1 1237.2,1239.0 1251.5,1220.3 1264.2,1200.0 1275.3,1177.9 1285.0,1153.9 1293.1,1128.0 1299.7,1100.0 1304.8,1069.8 1308.4,1037.2 1310.3,1002.1 1310.7,964.3 1309.4,923.7 1306.4,880.0 1301.5,833.1 1294.8,782.7 1286.0,728.7 1275.1,670.7 1261.9,608.6 1246.4,542.2 1228.3,471.0  Z" style="stroke-width: 2.0;  stroke: rgb(82,82,82); fill: rgb(251,106,74); opacity: 0.667;" />
<path d="M 1228.259,471.027 A 1064.250,1064.250 0.00 0,1 1232.0,470.1 L 1232.0,470.1 1250.2,541.0 1266.6,606.7 1281.2,667.4 1294.2,723.5 1305.6,775.1 1315.5,822.4 1323.9,865.7 1331.0,905.2 1336.7,941.0 1341.2,973.3 1344.4,1002.3 1346.3,1028.1 1347.1,1050.8 1346.7,1070.6 1345.1,1087.5 1342.3,1101.6 1338.4,1113.0 1333.3,1121.8 1327.0,1128.0 1319.5,1131.6 1310.8,1132.6 1300.8,1131.0 1289.4,1126.9 1276.7,1120.1 1262.6,1110.7 1247.0,1098.6 1229.8,1083.7 1210.9,1066.0 1190.4,1045.3 1168.1,1021.5 1143.8,994.5 1117.6,964.2 1089.2,930.4 1058.7,892.9 1025.7,851.6 990.3,806.3 952.3,756.7 911.5,702.6 867.8,643.9  A 1064.250,1064.250 0.00 0,0 864.7,646.1 L 864.7,646.1 908.6,704.8 949.6,758.7 987.8,808.1 1023.4,853.3 1056.5,894.5 1087.2,931.9 1115.7,965.6 1142.0,995.8 1166.3,1022.7 1188.8,1046.4 1209.4,1067.0 1228.3,1084.7 1245.5,1099.5 1261.2,1111.6 1275.4,1120.9 1288.1,1127.6 1299.4,1131.7 1309.5,1133.3 1318.2,1132.2 1325.7,1128.6 1332.0,1122.4 1337.0,1113.6 1340.9,1102.2 1343.6,1088.1 1345.1,1071.1 1345.5,1051.4 1344.6,1028.7 1342.6,1002.9 1339.3,973.9 1334.7,941.6 1328.9,905.8 1321.6,866.3 1313.0,823.1 1303.0,775.8 1291.4,724.2 1278.2,668.2 1263.3,607.5 1246.7,541.9 1228.3,471.0  Z" style="stroke-width: 2.0;  stroke: rgb(82,82,82); fill: rgb(116,196,118); opacity: 0.667;" />
<path d="M 1228.259,471.027 A 1064.250,1064.250 0.00 0,1 1232.0,470.1 L 1232.0,470.1 1250.2,541.0 1266.6,606.7 1281.2,667.4 1294.3,723.4 1305.7,775.0 1315.6,822.3 1324.1,865.6 1331.3,905.0 1337.1,940.8 1341.6,973.1 1344.8,1002.0 1346.9,1027.8 1347.7,1050.4 1347.4,1070.1 1345.9,1087.0 1343.3,1101.0 1339.5,1112.4 1334.5,1121.0 1328.4,1127.1 1321.0,1130.6 1312.4,1131.5 1302.6,1129.8 1291.4,1125.5 1278.9,1118.6 1264.9,1109.1 1249.5,1096.8 1232.6,1081.8 1214.0,1063.8 1193.7,1042.9 1171.6,1018.9 1147.7,991.7 1121.8,961.2 1093.7,927.1 1063.5,889.4 1031.0,847.8 996.0,802.2 958.4,752.2 918.0,697.8 874.8,638.7  A 1064.250,1064.250 0.00 0,0 871.7,641.0 L 871.7,641.0 915.1,700.0 955.6,754.2 993.4,804.0 1028.6,849.5 1061.3,891.0 1091.6,928.6 1119.8,962.6 1145.8,993.0 1169.9,1020.1 1192.0,1044.1 1212.4,1064.9 1231.0,1082.7 1248.1,1097.7 1263.5,1110.0 1277.5,1119.5 1290.0,1126.3 1301.2,1130.5 1311.1,1132.2 1319.7,1131.2 1327.0,1127.7 1333.2,1121.7 1338.1,1113.0 1341.9,1101.6 1344.4,1087.5 1345.9,1070.7 1346.1,1051.0 1345.2,1028.3 1343.0,1002.6 1339.7,973.7 1335.0,941.4 1329.1,905.6 1321.8,866.2 1313.2,823.0 1303.1,775.7 1291.5,724.2 1278.2,668.2 1263.4,607.5 1246.7,541.9 1228.3,471.0  Z" style="stroke-width: 2.0;  stroke: rgb(82,82,82); fill: rgb(107,174,214); opacity: 0.667;" />
<path d="M 1352.083,446.079 A 1064.250,1064.250 0.00 0,1 1355.9,445.6 L 1355.9,445.6 1366.3,518.1 1377.0,585.3 1388.0,647.3 1399.2,704.5 1410.6,757.2 1422.2,805.5 1434.1,849.7 1446.3,890.0 1458.7,926.7 1471.4,959.9 1484.3,989.7 1497.6,1016.4 1511.3,1040.0 1525.3,1060.8 1539.8,1078.8 1554.7,1094.1 1570.2,1106.8 1586.3,1116.9 1602.9,1124.6 1620.3,1129.8 1638.5,1132.6 1657.5,1132.9 1677.4,1130.8 1698.2,1126.3 1720.2,1119.2 1743.4,1109.5 1767.8,1097.3 1793.5,1082.3 1820.8,1064.5 1849.6,1043.7 1880.1,1019.9 1912.4,992.9 1946.7,962.5 1982.9,928.6 2021.4,890.9 2062.2,849.2 2105.5,803.4 2151.3,753.2 2199.9,698.3  A 1064.250,1064.250 0.00 0,0 2196.9,695.7 L 2196.9,695.7 2148.5,750.8 2102.9,801.2 2059.8,847.1 2019.1,888.9 1980.8,926.8 1944.7,960.9 1910.5,991.4 1878.3,1018.5 1847.9,1042.4 1819.2,1063.3 1792.0,1081.2 1766.3,1096.3 1741.9,1108.6 1718.8,1118.4 1696.9,1125.5 1676.0,1130.2 1656.1,1132.3 1637.1,1132.1 1619.0,1129.4 1601.6,1124.2 1584.9,1116.6 1568.8,1106.5 1553.3,1093.9 1538.3,1078.7 1523.7,1060.7 1509.6,1040.0 1495.9,1016.4 1482.5,989.8 1469.4,960.0 1456.6,926.8 1444.1,890.2 1431.8,849.9 1419.7,805.8 1407.9,757.5 1396.3,704.9 1384.9,647.7 1373.7,585.7 1362.8,518.6 1352.1,446.1  Z" style="stroke-width: 2.0;  stroke: rgb(82,82,82); fill: rgb(253,141,60); opacity: 0.667;" />
<path d="M 1352.083,446.079 A 1064.250,1064.250 0.00 0,1 1355.9,445.6 L 1355.9,445.6 1366.5,518.2 1377.6,585.5 1389.2,647.9 1401.3,705.5 1413.8,758.7 1426.8,807.7 1440.1,852.8 1453.9,894.2 1468.2,932.0 1482.8,966.6 1497.9,998.0 1513.5,1026.6 1529.6,1052.3 1546.2,1075.3 1563.4,1095.8 1581.2,1113.9 1599.7,1129.7 1619.0,1143.2 1639.0,1154.5 1660.0,1163.7 1681.9,1170.8 1704.9,1175.8 1729.0,1178.7 1754.4,1179.6 1781.1,1178.4 1809.3,1175.0 1839.2,1169.4 1870.7,1161.5 1904.0,1151.3 1939.4,1138.7 1976.9,1123.5 2016.7,1105.6 2058.9,1084.9 2103.7,1061.3 2151.4,1034.5 2201.9,1004.3 2255.7,970.6 2312.7,933.2 2373.3,891.8  A 1064.250,1064.250 0.00 0,0 2371.1,888.6 L 2371.1,888.6 2310.6,930.2 2253.7,967.8 2200.1,1001.7 2149.6,1032.1 2102.1,1059.1 2057.4,1082.9 2015.2,1103.7 1975.5,1121.8 1938.1,1137.1 1902.8,1149.8 1869.4,1160.2 1837.9,1168.1 1808.2,1173.8 1780.0,1177.3 1753.2,1178.7 1727.8,1177.9 1703.7,1175.1 1680.7,1170.1 1658.8,1163.1 1637.8,1154.0 1617.7,1142.8 1598.4,1129.3 1579.8,1113.6 1561.9,1095.6 1544.7,1075.1 1528.0,1052.2 1511.8,1026.5 1496.1,998.1 1480.9,966.7 1466.1,932.1 1451.8,894.3 1437.8,853.0 1424.3,808.0 1411.1,759.0 1398.4,705.8 1386.1,648.3 1374.3,586.0 1362.9,518.7 1352.1,446.1  Z" style="stroke-width: 2.0;  stroke: rgb(82,82,82); fill: rgb(255,0,0); opacity: 0.667;" />
<path d="M 1352.083,446.079 A 1064.250,1064.250 0.00 0,1 1355.9,445.6 L 1355.9,445.6 1366.5,518.2 1377.7,585.6 1389.5,648.0 1401.8,705.8 1414.6,759.1 1427.8,808.4 1441.6,853.7 1455.7,895.4 1470.4,933.6 1485.5,968.6 1501.1,1000.5 1517.2,1029.5 1533.8,1055.8 1550.9,1079.5 1568.7,1100.7 1587.2,1119.6 1606.3,1136.3 1626.2,1150.7 1647.0,1163.1 1668.7,1173.4 1691.4,1181.7 1715.2,1188.1 1740.2,1192.4 1766.5,1194.8 1794.1,1195.2 1823.4,1193.6 1854.3,1189.9 1886.9,1184.1 1921.5,1176.0 1958.2,1165.7 1997.1,1152.9 2038.4,1137.7 2082.2,1119.7 2128.8,1099.0 2178.2,1075.2 2230.8,1048.3 2286.7,1018.1 2346.0,984.3 2409.1,946.7  A 1064.250,1064.250 0.00 0,0 2407.1,943.4 L 2407.1,943.4 2344.2,981.2 2284.9,1015.2 2229.2,1045.7 2176.7,1072.8 2127.3,1096.7 2080.8,1117.6 2037.1,1135.7 1995.8,1151.1 1957.0,1164.0 1920.3,1174.5 1885.8,1182.7 1853.1,1188.6 1822.3,1192.4 1793.0,1194.2 1765.3,1193.9 1739.1,1191.6 1714.1,1187.3 1690.2,1181.0 1667.5,1172.8 1645.8,1162.6 1625.0,1150.3 1605.0,1135.9 1585.8,1119.3 1567.3,1100.5 1549.4,1079.3 1532.2,1055.7 1515.5,1029.5 1499.3,1000.5 1483.6,968.6 1468.3,933.7 1453.6,895.5 1439.2,853.9 1425.3,808.6 1411.9,759.4 1398.9,706.1 1386.4,648.4 1374.4,586.0 1363.0,518.7 1352.1,446.1  Z" style="stroke-width: 2.0;  stroke: rgb(82,82,82); fill: rgb(255,0,204); opacity: 0.667;" />
<path d="M 1352.083,446.079 A 1064.250,1064.250 0.00 0,1 1355.9,445.6 L 1355.9,445.6 1364.8,518.9 1371.2,588.2 1375.3,653.9 1377.3,716.1 1377.4,775.0 1375.8,831.0 1372.7,884.3 1368.3,935.0 1362.7,983.5 1356.0,1029.8 1348.3,1074.2 1339.8,1116.9 1330.4,1158.2 1320.3,1198.1 1309.6,1236.8 1298.1,1274.6 1286.0,1311.5 1273.3,1347.8 1259.9,1383.6 1245.7,1419.0 1230.8,1454.2 1215.1,1489.3 1198.4,1524.4 1180.7,1559.6 1161.8,1595.1 1141.6,1631.0 1120.0,1667.3 1096.8,1704.2 1071.7,1741.7 1044.7,1779.9 1015.4,1818.9 983.7,1858.7 949.2,1899.4 911.8,1941.1 871.1,1983.8 826.8,2027.5 778.6,2072.3 726.2,2118.2 669.2,2165.2  A 1064.250,1064.250 0.00 0,0 671.7,2168.2 L 671.7,2168.2 728.5,2121.0 780.7,2074.9 828.7,2030.0 872.8,1986.1 913.4,1943.3 950.7,1901.5 985.0,1860.6 1016.6,1820.7 1045.7,1781.6 1072.6,1743.3 1097.5,1705.7 1120.6,1668.7 1142.1,1632.3 1162.1,1596.4 1180.9,1560.8 1198.5,1525.5 1215.0,1490.3 1230.7,1455.2 1245.5,1419.9 1259.5,1384.5 1272.8,1348.6 1285.4,1312.3 1297.3,1275.3 1308.6,1237.5 1319.3,1198.7 1329.2,1158.8 1338.4,1117.5 1346.8,1074.8 1354.3,1030.3 1360.8,984.0 1366.3,935.5 1370.5,884.8 1373.4,831.5 1374.8,775.5 1374.5,716.5 1372.2,654.3 1367.9,588.7 1361.3,519.4 1352.1,446.1  Z" style="stroke-width: 2.0;  stroke: rgb(82,82,82); fill: rgb(255,204,204); opacity: 0.667;" />
<path d="M 1352.083,446.079 A 1064.250,1064.250 0.00 0,1 1355.9,445.6 L 1355.9,445.6 1365.1,518.4 1372.3,586.4 1377.5,649.9 1381.0,709.1 1382.7,764.3 1382.8,815.6 1381.4,863.5 1378.6,908.0 1374.4,949.3 1368.8,987.8 1361.9,1023.5 1353.8,1056.7 1344.5,1087.5 1333.9,1116.0 1322.0,1142.4 1308.9,1166.8 1294.5,1189.4 1278.7,1210.2 1261.6,1229.3 1243.1,1246.8 1223.0,1262.9 1201.4,1277.4 1178.1,1290.5 1152.9,1302.2 1125.9,1312.6 1096.8,1321.6 1065.6,1329.2 1032.0,1335.5 996.0,1340.3 957.3,1343.7 915.7,1345.6 871.1,1346.0 823.3,1344.7 772.0,1341.7 717.0,1336.8 658.1,1330.1 595.0,1321.3 527.5,1310.3 455.3,1297.0  A 1064.250,1064.250 0.00 0,0 454.6,1300.8 L 454.6,1300.8 526.8,1313.8 594.4,1324.6 657.5,1333.1 716.4,1339.7 771.4,1344.3 822.7,1347.1 870.6,1348.2 915.1,1347.7 956.7,1345.7 995.4,1342.1 1031.4,1337.2 1065.0,1330.8 1096.2,1323.1 1125.2,1314.0 1152.2,1303.5 1177.3,1291.7 1200.6,1278.5 1222.2,1263.9 1242.2,1247.8 1260.7,1230.2 1277.7,1211.0 1293.4,1190.1 1307.7,1167.5 1320.7,1143.0 1332.5,1116.6 1343.0,1088.0 1352.2,1057.2 1360.2,1024.0 1367.0,988.3 1372.4,949.8 1376.5,908.4 1379.1,863.9 1380.4,816.1 1380.0,764.7 1378.1,709.5 1374.5,650.4 1369.0,586.9 1361.6,518.9 1352.1,446.1  Z" style="stroke-width: 2.0;  stroke: rgb(82,82,82); fill: rgb(255,153,0); opacity: 0.667;" />
<path d="M 1352.083,446.079 A 1064.250,1064.250 0.00 0,1 1355.9,445.6 L 1355.9,445.6 1365.5,518.2 1373.8,585.4 1380.8,647.6 1386.6,705.0 1391.2,757.8 1394.8,806.3 1397.3,850.7 1398.7,891.1 1399.2,927.8 1398.7,961.0 1397.3,990.8 1394.9,1017.3 1391.6,1040.8 1387.4,1061.2 1382.2,1078.7 1376.1,1093.4 1369.1,1105.4 1361.1,1114.8 1352.0,1121.4 1342.0,1125.5 1330.9,1127.0 1318.6,1125.9 1305.2,1122.3 1290.6,1116.0 1274.7,1107.0 1257.4,1095.3 1238.7,1080.8 1218.5,1063.4 1196.6,1043.1 1173.2,1019.7 1147.9,993.0 1120.7,963.0 1091.5,929.5 1060.3,892.3 1026.8,851.2 990.9,806.0 952.6,756.6 911.6,702.6 867.8,643.9  A 1064.250,1064.250 0.00 0,0 864.7,646.1 L 864.7,646.1 908.7,704.7 949.9,758.5 988.4,807.9 1024.4,852.9 1058.1,893.9 1089.5,931.0 1118.8,964.4 1146.0,994.3 1171.4,1020.9 1195.0,1044.2 1216.9,1064.5 1237.2,1081.8 1255.9,1096.2 1273.2,1107.8 1289.2,1116.7 1303.9,1123.0 1317.3,1126.6 1329.5,1127.6 1340.6,1126.1 1350.7,1122.0 1359.7,1115.3 1367.7,1105.9 1374.7,1093.9 1380.7,1079.2 1385.8,1061.6 1389.9,1041.2 1393.1,1017.7 1395.4,991.2 1396.8,961.4 1397.1,928.2 1396.5,891.5 1394.9,851.0 1392.3,806.7 1388.6,758.2 1383.7,705.4 1377.7,648.0 1370.5,585.9 1362.0,518.7 1352.1,446.1  Z" style="stroke-width: 2.0;  stroke: rgb(82,82,82); fill: rgb(255,204,0); opacity: 0.667;" />
<path d="M 1352.083,446.079 A 1064.250,1064.250 0.00 0,1 1355.9,445.6 L 1355.9,445.6 1365.5,518.2 1373.8,585.4 1380.8,647.6 1386.6,705.0 1391.3,757.8 1394.9,806.2 1397.5,850.6 1399.0,891.0 1399.5,927.7 1399.1,960.8 1397.7,990.5 1395.4,1017.0 1392.2,1040.4 1388.1,1060.8 1383.1,1078.2 1377.1,1092.9 1370.2,1104.8 1362.3,1114.0 1353.4,1120.6 1343.5,1124.6 1332.5,1126.0 1320.4,1124.8 1307.2,1120.9 1292.8,1114.5 1277.0,1105.4 1260.0,1093.5 1241.5,1078.9 1221.5,1061.3 1200.0,1040.8 1176.7,1017.1 1151.7,990.3 1124.9,960.0 1096.1,926.2 1065.1,888.7 1032.0,847.4 996.5,801.9 958.6,752.1 918.1,697.8 874.8,638.7  A 1064.250,1064.250 0.00 0,0 871.7,641.0 L 871.7,641.0 915.1,700.0 955.9,754.1 994.0,803.8 1029.6,849.1 1062.9,890.4 1093.9,927.7 1122.9,961.4 1149.9,991.5 1175.0,1018.3 1198.3,1041.9 1219.9,1062.3 1239.9,1079.8 1258.5,1094.4 1275.6,1106.2 1291.3,1115.3 1305.8,1121.6 1319.1,1125.4 1331.2,1126.6 1342.1,1125.2 1352.0,1121.1 1360.9,1114.5 1368.7,1105.3 1375.6,1093.3 1381.5,1078.7 1386.5,1061.2 1390.6,1040.8 1393.7,1017.4 1395.9,990.9 1397.2,961.2 1397.5,928.0 1396.8,891.3 1395.1,850.9 1392.4,806.6 1388.7,758.2 1383.8,705.4 1377.8,648.0 1370.5,585.9 1362.0,518.7 1352.1,446.1  Z" style="stroke-width: 2.0;  stroke: rgb(82,82,82); fill: rgb(255,255,0); opacity: 0.667;" />
<path d="M 1352.083,446.079 A 1064.250,1064.250 0.00 0,1 1355.9,445.6 L 1355.9,445.6 1365.7,518.1 1374.7,585.1 1382.8,647.0 1390.0,703.9 1396.5,756.1 1402.3,803.8 1407.4,847.2 1411.8,886.5 1415.5,922.0 1418.6,953.8 1421.2,982.0 1423.1,1006.7 1424.4,1028.2 1425.2,1046.5 1425.4,1061.6 1425.1,1073.8 1424.2,1082.9 1422.8,1089.2 1420.8,1092.6 1418.2,1093.1 1415.1,1090.7 1411.4,1085.5 1407.1,1077.3 1402.1,1066.2 1396.6,1052.1 1390.3,1034.9 1383.4,1014.6 1375.8,990.9 1367.4,963.9 1358.1,933.4 1348.1,899.1 1337.2,861.1 1325.3,819.0 1312.5,772.7 1298.7,721.9 1283.8,666.6 1267.7,606.3 1250.5,540.9 1232.0,470.1  A 1064.250,1064.250 0.00 0,0 1228.3,471.0 L 1228.3,471.0 1247.0,541.8 1264.5,607.1 1280.8,667.3 1295.9,722.7 1309.9,773.3 1322.9,819.6 1334.9,861.7 1345.9,899.7 1356.1,933.9 1365.4,964.4 1373.9,991.4 1381.7,1015.0 1388.7,1035.3 1395.0,1052.5 1400.6,1066.6 1405.5,1077.7 1409.9,1085.8 1413.6,1091.0 1416.7,1093.4 1419.3,1092.9 1421.3,1089.5 1422.7,1083.2 1423.5,1074.0 1423.8,1061.9 1423.6,1046.7 1422.7,1028.5 1421.3,1007.0 1419.3,982.3 1416.7,954.1 1413.5,922.3 1409.6,886.9 1405.0,847.5 1399.8,804.1 1393.9,756.4 1387.2,704.3 1379.7,647.4 1371.4,585.6 1362.2,518.6 1352.1,446.1  Z" style="stroke-width: 2.0;  stroke: rgb(82,82,82); fill: rgb(204,255,0); opacity: 0.667;" />
<path d="M 2389.643,915.908 A 1064.250,1064.250 0.00 0,1 2392.1,919.6 L 2392.1,919.6 2330.6,959.4 2273.5,995.7 2220.5,1028.9 2171.5,1059.0 2126.2,1086.2 2084.5,1110.6 2046.2,1132.5 2011.1,1151.7 1979.1,1168.6 1949.9,1183.2 1923.6,1195.5 1899.9,1205.6 1878.8,1213.7 1860.1,1219.7 1843.7,1223.7 1829.7,1225.7 1817.8,1225.8 1808.1,1223.9 1800.6,1220.1 1795.1,1214.3 1791.7,1206.6 1790.3,1196.8 1791.0,1185.0 1793.7,1171.1 1798.6,1154.9 1805.5,1136.6 1814.7,1115.9 1826.0,1092.7 1839.7,1067.1 1855.8,1038.7 1874.3,1007.6 1895.3,973.5 1919.1,936.4 1945.7,896.0 1975.2,852.2 2007.8,804.9 2043.7,753.7 2082.9,698.5 2125.8,639.2  A 1064.250,1064.250 0.00 0,0 2122.2,636.6 L 2122.2,636.6 2079.6,696.1 2040.5,751.4 2004.9,802.7 1972.5,850.3 1943.2,894.2 1916.8,934.7 1893.1,971.9 1872.2,1006.0 1853.8,1037.2 1837.9,1065.6 1824.3,1091.4 1813.1,1114.6 1804.0,1135.3 1797.1,1153.7 1792.4,1169.8 1789.7,1183.8 1789.0,1195.6 1790.4,1205.4 1793.9,1213.1 1799.4,1218.9 1807.0,1222.6 1816.7,1224.5 1828.5,1224.4 1842.6,1222.3 1858.9,1218.2 1877.6,1212.1 1898.7,1204.0 1922.3,1193.7 1948.6,1181.3 1977.7,1166.6 2009.7,1149.6 2044.7,1130.2 2082.9,1108.2 2124.5,1083.6 2169.7,1056.2 2218.5,1025.9 2271.3,992.5 2328.3,955.9 2389.6,915.9  Z" style="stroke-width: 2.0;  stroke: rgb(82,82,82); fill: rgb(0,255,0); opacity: 0.667;" />
<path d="M 2030.372,577.323 A 1064.250,1064.250 0.00 0,1 2046.5,586.8 L 2046.5,586.8 2008.6,649.5 1973.1,707.2 1939.7,760.1 1908.3,808.5 1878.9,852.6 1851.4,892.7 1825.6,928.9 1801.4,961.4 1778.8,990.3 1757.6,1015.9 1737.9,1038.3 1719.4,1057.5 1702.1,1073.7 1686.0,1087.0 1671.0,1097.5 1657.0,1105.2 1644.0,1110.1 1631.8,1112.4 1620.6,1112.0 1610.1,1108.9 1600.4,1103.1 1591.5,1094.6 1583.2,1083.3 1575.7,1069.2 1568.8,1052.3 1562.5,1032.4 1556.9,1009.4 1551.8,983.2 1547.4,953.7 1543.6,920.7 1540.4,884.1 1537.8,843.7 1535.9,799.3 1534.6,750.7 1533.9,697.7 1534.0,640.0 1534.8,577.4 1536.3,509.7 1538.7,436.5  A 1064.250,1064.250 0.00 0,0 1521.6,436.0 L 1521.6,436.0 1520.4,509.2 1519.9,577.0 1520.1,639.6 1521.0,697.2 1522.5,750.2 1524.6,798.8 1527.2,843.1 1530.4,883.5 1534.2,920.0 1538.5,952.9 1543.4,982.4 1548.8,1008.5 1554.8,1031.4 1561.4,1051.2 1568.6,1068.0 1576.3,1081.9 1584.7,1093.1 1593.8,1101.4 1603.5,1107.0 1614.0,1109.9 1625.3,1110.1 1637.3,1107.7 1650.2,1102.5 1664.1,1094.5 1678.9,1083.8 1694.7,1070.2 1711.7,1053.7 1729.8,1034.2 1749.2,1011.5 1769.9,985.5 1791.9,956.2 1815.5,923.2 1840.7,886.6 1867.5,846.1 1896.1,801.4 1926.6,752.5 1959.0,699.0 1993.6,640.7 2030.4,577.3  Z" style="stroke-width: 2.0;  stroke: rgb(82,82,82); fill: rgb(53,128,0); opacity: 0.667;" />
</g>
<defs>
<pattern id="hline-sparse" width="10" height="10" patternTransform="rotate(0 0 0)" patternUnits="userSpaceOnUse"><line x1="0" y1="0" x2="10" y2="0" style="stroke:black;stroke-width:2" /></pattern>
<pattern id="checker" width="10" height="10" patternTransform="rotate(45 0 0)" patternUnits="userSpaceOnUse"><line x1="0" y1="0" x2="10" y2="0" style="stroke:black;stroke-width:2" /><line x1="0" y1="0" x2="0" y2="10" style="stroke:black;stroke-width:2" /></pattern>
<pattern id="checker" width="10" height="10" patternTransform="rotate(45 0 0)" patternUnits="userSpaceOnUse"><line x1="0" y1="0" x2="10" y2="0" style="stroke:black;stroke-width:5" /><line x1="0" y1="0" x2="0" y2="10" style="stroke:black;stroke-width:4" /></pattern>
<pattern id="hline" width="10" height="10" patternTransform="rotate(0 0 0)" patternUnits="userSpaceOnUse"><line x1="0" y1="0" x2="10" y2="0" style="stroke:black;stroke-width:5" /></pattern>
<pattern id="vline-sparse" width="10" height="10" patternTransform="rotate(0 0 0)" patternUnits="userSpaceOnUse"><line x1="0" y1="0" x2="0" y2="10" style="stroke:black;stroke-width:2" /></pattern>
<pattern id="vline" width="10" height="10" patternTransform="rotate(0 0 0)" patternUnits="userSpaceOnUse"><line x1="0" y1="0" x2="0" y2="10" style="stroke:black;stroke-width:5" /></pattern>
</defs>
</svg>
