<?xml version="1.0" encoding="utf-8" standalone="no"?>
<!DOCTYPE svg PUBLIC "-//W3C//DTD SVG 1.1//EN" "http://www.w3.org/Graphics/SVG/1.1/DTD/svg11.dtd">
<svg width="3000px" height="3000px" version="1.1" xmlns="http://www.w3.org/2000/svg" xmlns:xlink="http://www.w3.org/1999/xlink">
<g id="ideograms">
<path d="M1500.000,425.000 A1075.000,1075.000 40.000 0,1 1793.977,465.977 L1807.650,417.883 A1125.000,1125.000 0.000 0,0 1500.000,375.000 Z" style="stroke-linecap:round;fill:rgb(116,196,118);fill-opacity:0.33;" />
<text x="1677.1" y="298.0" font-size="18.2px" font-family="CMUBright-Roman" style="text-anchor:start;fill:rgb(0,0,0);" transform="rotate(277.9,1677.1,298.0)" >R<tspan baseline-shift="-40%" font-size="90%">s</tspan>caffold<tspan baseline-shift="-40%" font-size="90%">7</tspan></text>
<line x1='1500.0' y1='375.0' x2='1500.0' y2='355.0' style="stroke-width:4.0;stroke:rgb(0,0,0);stroke-linecap:round;fill:none;" />
<text x="1506.5" y="345.0" font-size="18.2px" font-family="CMUBright-Roman" style="text-anchor:start;fill:rgb(0,0,0);" transform="rotate(270.0,1506.5,345.0)" >0</text>
<line x1='1567.2' y1='377.0' x2='1568.4' y2='357.0' style="stroke-width:4.0;stroke:rgb(0,0,0);stroke-linecap:round;fill:none;" />
<text x="1575.5" y="347.5" font-size="18.2px" font-family="CMUBright-Roman" style="text-anchor:start;fill:rgb(0,0,0);" transform="rotate(273.4,1575.5,347.5)" >50</text>
<line x1='1634.2' y1='383.0' x2='1636.6' y2='363.2' style="stroke-width:4.0;stroke:rgb(0,0,0);stroke-linecap:round;fill:none;" />
<text x="1644.3" y="354.0" font-size="18.2px" font-family="CMUBright-Roman" style="text-anchor:start;fill:rgb(0,0,0);" transform="rotate(276.9,1644.3,354.0)" >100</text>
<line x1='1700.8' y1='393.1' x2='1704.3' y2='373.4' style="stroke-width:4.0;stroke:rgb(0,0,0);stroke-linecap:round;fill:none;" />
<text x="1712.5" y="364.7" font-size="18.2px" font-family="CMUBright-Roman" style="text-anchor:start;fill:rgb(0,0,0);" transform="rotate(280.3,1712.5,364.7)" >150</text>
<line x1='1766.6' y1='407.0' x2='1771.3' y2='387.6' style="stroke-width:4.0;stroke:rgb(0,0,0);stroke-linecap:round;fill:none;" />
<text x="1780.0" y="379.4" font-size="18.2px" font-family="CMUBright-Roman" style="text-anchor:start;fill:rgb(0,0,0);" transform="rotate(283.7,1780.0,379.4)" >200</text>
<g id="highlighttrack_0">
<path d="M1531.468,425.461 A1075.000,1075.000 40.000 0,1 1540.322,425.756 L1542.198,375.792 A1125.000,1125.000 0.000 0,0 1532.932,375.482 Z" style="stroke-width:4.0;stroke:rgb(0,0,0);stroke-linecap:round;fill:rgb(116,196,118);" />
</g>
<path d="M1855.873,485.614 A1075.000,1075.000 40.000 0,1 1864.256,488.594 L1881.198,441.552 A1125.000,1125.000 0.000 0,0 1872.426,438.433 Z" style="stroke-linecap:round;fill:rgb(116,196,118);fill-opacity:0.33;" />
<text x="1915.9" y="358.4" font-size="18.2px" font-family="CMUBright-Roman" style="text-anchor:start;fill:rgb(0,0,0);" transform="rotate(289.6,1915.9,358.4)" >R<tspan baseline-shift="-40%" font-size="90%">s</tspan>caffold<tspan baseline-shift="-40%" font-size="90%">2</tspan>8</text>
<line x1='1872.4' y1='438.4' x2='1879.0' y2='419.6' style="stroke-width:4.0;stroke:rgb(0,0,0);stroke-linecap:round;fill:none;" />
<text x="1888.5" y="412.3" font-size="18.2px" font-family="CMUBright-Roman" style="text-anchor:start;fill:rgb(0,0,0);" transform="rotate(289.3,1888.5,412.3)" >0</text>
<g id="highlighttrack_0">
<path d="M1855.881,485.616 A1075.000,1075.000 40.000 0,1 1864.256,488.594 L1881.198,441.552 A1125.000,1125.000 0.000 0,0 1872.433,438.436 Z" style="stroke-width:4.0;stroke:rgb(0,0,0);stroke-linecap:round;fill:rgb(116,196,118);" />
</g>
<path d="M1924.658,512.432 A1075.000,1075.000 40.000 0,1 1929.292,514.438 L1949.259,468.598 A1125.000,1125.000 0.000 0,0 1944.410,466.499 Z" style="stroke-linecap:round;fill:rgb(116,196,118);fill-opacity:0.33;" />
<text x="1991.3" y="388.8" font-size="18.2px" font-family="CMUBright-Roman" style="text-anchor:start;fill:rgb(0,0,0);" transform="rotate(293.4,1991.3,388.8)" >R<tspan baseline-shift="-40%" font-size="90%">s</tspan>caffold<tspan baseline-shift="-40%" font-size="90%">3</tspan>0</text>
<line x1='1944.4' y1='466.5' x2='1952.3' y2='448.1' style="stroke-width:4.0;stroke:rgb(0,0,0);stroke-linecap:round;fill:none;" />
<text x="1962.2" y="441.5" font-size="18.2px" font-family="CMUBright-Roman" style="text-anchor:start;fill:rgb(0,0,0);" transform="rotate(293.3,1962.2,441.5)" >0</text>
<g id="highlighttrack_0">
<path d="M1924.716,512.457 A1075.000,1075.000 40.000 0,1 1929.285,514.435 L1949.252,468.594 A1125.000,1125.000 0.000 0,0 1944.471,466.525 Z" style="stroke-width:4.0;stroke:rgb(0,0,0);stroke-linecap:round;fill:rgb(116,196,118);" />
</g>
<path d="M1988.016,542.156 A1075.000,1075.000 40.000 1,1 1435.093,426.961 L1432.074,377.053 A1125.000,1125.000 0.000 1,0 2010.714,497.605 Z" style="stroke-linecap:round;fill:rgb(116,196,118);fill-opacity:0.33;" />
<text x="1261.5" y="2691.4" font-size="18.2px" font-family="CMUBright-Roman" style="text-anchor:end;fill:rgb(0,0,0);" transform="rotate(-78.2,1261.5,2691.4)" >NZ<tspan baseline-shift="-40%" font-size="90%">C</tspan>P020373.1</text>
<line x1='2010.7' y1='497.6' x2='2019.8' y2='479.8' style="stroke-width:4.0;stroke:rgb(0,0,0);stroke-linecap:round;fill:none;" />
<text x="2030.1" y="473.8" font-size="18.2px" font-family="CMUBright-Roman" style="text-anchor:start;fill:rgb(0,0,0);" transform="rotate(297.0,2030.1,473.8)" >0</text>
<line x1='2069.7' y1='529.9' x2='2079.8' y2='512.7' style="stroke-width:4.0;stroke:rgb(0,0,0);stroke-linecap:round;fill:none;" />
<text x="2090.5" y="507.4" font-size="18.2px" font-family="CMUBright-Roman" style="text-anchor:start;fill:rgb(0,0,0);" transform="rotate(300.4,2090.5,507.4)" >50</text>
<line x1='2126.7' y1='565.7' x2='2137.8' y2='549.1' style="stroke-width:4.0;stroke:rgb(0,0,0);stroke-linecap:round;fill:none;" />
<text x="2148.8" y="544.4" font-size="18.2px" font-family="CMUBright-Roman" style="text-anchor:start;fill:rgb(0,0,0);" transform="rotate(303.9,2148.8,544.4)" >100</text>
<line x1='2181.4' y1='604.8' x2='2193.5' y2='588.9' style="stroke-width:4.0;stroke:rgb(0,0,0);stroke-linecap:round;fill:none;" />
<text x="2204.7" y="584.9" font-size="18.2px" font-family="CMUBright-Roman" style="text-anchor:start;fill:rgb(0,0,0);" transform="rotate(307.3,2204.7,584.9)" >150</text>
<line x1='2233.7' y1='647.2' x2='2246.7' y2='632.0' style="stroke-width:4.0;stroke:rgb(0,0,0);stroke-linecap:round;fill:none;" />
<text x="2258.2" y="628.7" font-size="18.2px" font-family="CMUBright-Roman" style="text-anchor:start;fill:rgb(0,0,0);" transform="rotate(310.7,2258.2,628.7)" >200</text>
<line x1='2283.3' y1='692.5' x2='2297.3' y2='678.2' style="stroke-width:4.0;stroke:rgb(0,0,0);stroke-linecap:round;fill:none;" />
<text x="2308.9" y="675.5" font-size="18.2px" font-family="CMUBright-Roman" style="text-anchor:start;fill:rgb(0,0,0);" transform="rotate(314.1,2308.9,675.5)" >250</text>
<line x1='2330.2' y1='740.8' x2='2345.0' y2='727.3' style="stroke-width:4.0;stroke:rgb(0,0,0);stroke-linecap:round;fill:none;" />
<text x="2356.7" y="725.4" font-size="18.2px" font-family="CMUBright-Roman" style="text-anchor:start;fill:rgb(0,0,0);" transform="rotate(317.6,2356.7,725.4)" >300</text>
<line x1='2374.1' y1='791.8' x2='2389.6' y2='779.2' style="stroke-width:4.0;stroke:rgb(0,0,0);stroke-linecap:round;fill:none;" />
<text x="2401.5" y="778.0" font-size="18.2px" font-family="CMUBright-Roman" style="text-anchor:start;fill:rgb(0,0,0);" transform="rotate(321.0,2401.5,778.0)" >350</text>
<line x1='2414.9' y1='845.3' x2='2431.1' y2='833.6' style="stroke-width:4.0;stroke:rgb(0,0,0);stroke-linecap:round;fill:none;" />
<text x="2443.0" y="833.1" font-size="18.2px" font-family="CMUBright-Roman" style="text-anchor:start;fill:rgb(0,0,0);" transform="rotate(324.4,2443.0,833.1)" >400</text>
<line x1='2452.4' y1='901.1' x2='2469.3' y2='890.5' style="stroke-width:4.0;stroke:rgb(0,0,0);stroke-linecap:round;fill:none;" />
<text x="2481.2" y="890.7" font-size="18.2px" font-family="CMUBright-Roman" style="text-anchor:start;fill:rgb(0,0,0);" transform="rotate(327.8,2481.2,890.7)" >450</text>
<line x1='2486.5' y1='959.1' x2='2504.0' y2='949.5' style="stroke-width:4.0;stroke:rgb(0,0,0);stroke-linecap:round;fill:none;" />
<text x="2515.9" y="950.4" font-size="18.2px" font-family="CMUBright-Roman" style="text-anchor:start;fill:rgb(0,0,0);" transform="rotate(331.3,2515.9,950.4)" >500</text>
<line x1='2517.0' y1='1019.1' x2='2535.1' y2='1010.5' style="stroke-width:4.0;stroke:rgb(0,0,0);stroke-linecap:round;fill:none;" />
<text x="2546.9" y="1012.1" font-size="18.2px" font-family="CMUBright-Roman" style="text-anchor:start;fill:rgb(0,0,0);" transform="rotate(334.7,2546.9,1012.1)" >550</text>
<line x1='2543.9' y1='1080.7' x2='2562.5' y2='1073.2' style="stroke-width:4.0;stroke:rgb(0,0,0);stroke-linecap:round;fill:none;" />
<text x="2574.2" y="1075.6" font-size="18.2px" font-family="CMUBright-Roman" style="text-anchor:start;fill:rgb(0,0,0);" transform="rotate(338.1,2574.2,1075.6)" >600</text>
<line x1='2567.1' y1='1143.8' x2='2586.1' y2='1137.5' style="stroke-width:4.0;stroke:rgb(0,0,0);stroke-linecap:round;fill:none;" />
<text x="2597.6" y="1140.5" font-size="18.2px" font-family="CMUBright-Roman" style="text-anchor:start;fill:rgb(0,0,0);" transform="rotate(341.5,2597.6,1140.5)" >650</text>
<line x1='2586.5' y1='1208.3' x2='2605.8' y2='1203.1' style="stroke-width:4.0;stroke:rgb(0,0,0);stroke-linecap:round;fill:none;" />
<text x="2617.2" y="1206.8" font-size="18.2px" font-family="CMUBright-Roman" style="text-anchor:start;fill:rgb(0,0,0);" transform="rotate(345.0,2617.2,1206.8)" >700</text>
<line x1='2602.0' y1='1273.7' x2='2621.6' y2='1269.7' style="stroke-width:4.0;stroke:rgb(0,0,0);stroke-linecap:round;fill:none;" />
<text x="2632.7" y="1274.1" font-size="18.2px" font-family="CMUBright-Roman" style="text-anchor:start;fill:rgb(0,0,0);" transform="rotate(348.4,2632.7,1274.1)" >750</text>
<line x1='2613.6' y1='1340.0' x2='2633.4' y2='1337.2' style="stroke-width:4.0;stroke:rgb(0,0,0);stroke-linecap:round;fill:none;" />
<text x="2644.2" y="1342.2" font-size="18.2px" font-family="CMUBright-Roman" style="text-anchor:start;fill:rgb(0,0,0);" transform="rotate(351.8,2644.2,1342.2)" >800</text>
<line x1='2621.1' y1='1406.8' x2='2641.1' y2='1405.2' style="stroke-width:4.0;stroke:rgb(0,0,0);stroke-linecap:round;fill:none;" />
<text x="2651.6" y="1410.8" font-size="18.2px" font-family="CMUBright-Roman" style="text-anchor:start;fill:rgb(0,0,0);" transform="rotate(355.2,2651.6,1410.8)" >850</text>
<line x1='2624.7' y1='1474.0' x2='2644.7' y2='1473.6' style="stroke-width:4.0;stroke:rgb(0,0,0);stroke-linecap:round;fill:none;" />
<text x="2654.8" y="1479.8" font-size="18.2px" font-family="CMUBright-Roman" style="text-anchor:start;fill:rgb(0,0,0);" transform="rotate(358.7,2654.8,1479.8)" >900</text>
<line x1='2624.2' y1='1541.3' x2='2644.2' y2='1542.0' style="stroke-width:4.0;stroke:rgb(0,0,0);stroke-linecap:round;fill:none;" />
<text x="2654.0" y="1548.9" font-size="18.2px" font-family="CMUBright-Roman" style="text-anchor:start;fill:rgb(0,0,0);" transform="rotate(2.1,2654.0,1548.9)" >950</text>
<line x1='2619.8' y1='1608.4' x2='2639.7' y2='1610.3' style="stroke-width:4.0;stroke:rgb(0,0,0);stroke-linecap:round;fill:none;" />
<text x="2649.0" y="1617.8" font-size="18.2px" font-family="CMUBright-Roman" style="text-anchor:start;fill:rgb(0,0,0);" transform="rotate(5.5,2649.0,1617.8)" >1000</text>
<line x1='2611.3' y1='1675.1' x2='2631.0' y2='1678.3' style="stroke-width:4.0;stroke:rgb(0,0,0);stroke-linecap:round;fill:none;" />
<text x="2639.9" y="1686.2" font-size="18.2px" font-family="CMUBright-Roman" style="text-anchor:start;fill:rgb(0,0,0);" transform="rotate(9.0,2639.9,1686.2)" >1050</text>
<line x1='2598.8' y1='1741.2' x2='2618.4' y2='1745.5' style="stroke-width:4.0;stroke:rgb(0,0,0);stroke-linecap:round;fill:none;" />
<text x="2626.7" y="1754.0" font-size="18.2px" font-family="CMUBright-Roman" style="text-anchor:start;fill:rgb(0,0,0);" transform="rotate(12.4,2626.7,1754.0)" >1100</text>
<line x1='2582.4' y1='1806.5' x2='2601.7' y2='1811.9' style="stroke-width:4.0;stroke:rgb(0,0,0);stroke-linecap:round;fill:none;" />
<text x="2609.5" y="1820.9" font-size="18.2px" font-family="CMUBright-Roman" style="text-anchor:start;fill:rgb(0,0,0);" transform="rotate(15.8,2609.5,1820.9)" >1150</text>
<line x1='2562.2' y1='1870.6' x2='2581.1' y2='1877.2' style="stroke-width:4.0;stroke:rgb(0,0,0);stroke-linecap:round;fill:none;" />
<text x="2588.4" y="1886.7" font-size="18.2px" font-family="CMUBright-Roman" style="text-anchor:start;fill:rgb(0,0,0);" transform="rotate(19.2,2588.4,1886.7)" >1200</text>
<line x1='2538.1' y1='1933.5' x2='2556.6' y2='1941.2' style="stroke-width:4.0;stroke:rgb(0,0,0);stroke-linecap:round;fill:none;" />
<text x="2563.3" y="1951.0" font-size="18.2px" font-family="CMUBright-Roman" style="text-anchor:start;fill:rgb(0,0,0);" transform="rotate(22.7,2563.3,1951.0)" >1250</text>
<line x1='2510.4' y1='1994.7' x2='2528.3' y2='2003.5' style="stroke-width:4.0;stroke:rgb(0,0,0);stroke-linecap:round;fill:none;" />
<text x="2534.4" y="2013.8" font-size="18.2px" font-family="CMUBright-Roman" style="text-anchor:start;fill:rgb(0,0,0);" transform="rotate(26.1,2534.4,2013.8)" >1300</text>
<line x1='2479.0' y1='2054.2' x2='2496.4' y2='2064.1' style="stroke-width:4.0;stroke:rgb(0,0,0);stroke-linecap:round;fill:none;" />
<text x="2501.9" y="2074.7" font-size="18.2px" font-family="CMUBright-Roman" style="text-anchor:start;fill:rgb(0,0,0);" transform="rotate(29.5,2501.9,2074.7)" >1350</text>
<line x1='2444.1' y1='2111.8' x2='2460.9' y2='2122.6' style="stroke-width:4.0;stroke:rgb(0,0,0);stroke-linecap:round;fill:none;" />
<text x="2465.8" y="2133.5" font-size="18.2px" font-family="CMUBright-Roman" style="text-anchor:start;fill:rgb(0,0,0);" transform="rotate(32.9,2465.8,2133.5)" >1400</text>
<line x1='2405.9' y1='2167.1' x2='2422.0' y2='2179.0' style="stroke-width:4.0;stroke:rgb(0,0,0);stroke-linecap:round;fill:none;" />
<text x="2426.2" y="2190.1" font-size="18.2px" font-family="CMUBright-Roman" style="text-anchor:start;fill:rgb(0,0,0);" transform="rotate(36.4,2426.2,2190.1)" >1450</text>
<line x1='2364.4' y1='2220.0' x2='2379.7' y2='2232.8' style="stroke-width:4.0;stroke:rgb(0,0,0);stroke-linecap:round;fill:none;" />
<text x="2383.3" y="2244.2" font-size="18.2px" font-family="CMUBright-Roman" style="text-anchor:start;fill:rgb(0,0,0);" transform="rotate(39.8,2383.3,2244.2)" >1500</text>
<line x1='2319.8' y1='2270.4' x2='2334.4' y2='2284.1' style="stroke-width:4.0;stroke:rgb(0,0,0);stroke-linecap:round;fill:none;" />
<text x="2337.2" y="2295.7" font-size="18.2px" font-family="CMUBright-Roman" style="text-anchor:start;fill:rgb(0,0,0);" transform="rotate(43.2,2337.2,2295.7)" >1550</text>
<line x1='2272.3' y1='2318.0' x2='2286.0' y2='2332.6' style="stroke-width:4.0;stroke:rgb(0,0,0);stroke-linecap:round;fill:none;" />
<text x="2288.1" y="2344.3" font-size="18.2px" font-family="CMUBright-Roman" style="text-anchor:start;fill:rgb(0,0,0);" transform="rotate(46.6,2288.1,2344.3)" >1600</text>
<line x1='2222.0' y1='2362.7' x2='2234.8' y2='2378.1' style="stroke-width:4.0;stroke:rgb(0,0,0);stroke-linecap:round;fill:none;" />
<text x="2236.3" y="2389.9" font-size="18.2px" font-family="CMUBright-Roman" style="text-anchor:start;fill:rgb(0,0,0);" transform="rotate(50.1,2236.3,2389.9)" >1650</text>
<line x1='2169.2' y1='2404.4' x2='2181.1' y2='2420.4' style="stroke-width:4.0;stroke:rgb(0,0,0);stroke-linecap:round;fill:none;" />
<text x="2181.8" y="2432.3" font-size="18.2px" font-family="CMUBright-Roman" style="text-anchor:start;fill:rgb(0,0,0);" transform="rotate(53.5,2181.8,2432.3)" >1700</text>
<line x1='2113.9' y1='2442.7' x2='2124.8' y2='2459.5' style="stroke-width:4.0;stroke:rgb(0,0,0);stroke-linecap:round;fill:none;" />
<text x="2124.8" y="2471.4" font-size="18.2px" font-family="CMUBright-Roman" style="text-anchor:start;fill:rgb(0,0,0);" transform="rotate(56.9,2124.8,2471.4)" >1750</text>
<line x1='2056.5' y1='2477.7' x2='2066.4' y2='2495.1' style="stroke-width:4.0;stroke:rgb(0,0,0);stroke-linecap:round;fill:none;" />
<text x="2065.6" y="2507.0" font-size="18.2px" font-family="CMUBright-Roman" style="text-anchor:start;fill:rgb(0,0,0);" transform="rotate(60.4,2065.6,2507.0)" >1800</text>
<line x1='1997.0' y1='2509.2' x2='2005.9' y2='2527.2' style="stroke-width:4.0;stroke:rgb(0,0,0);stroke-linecap:round;fill:none;" />
<text x="2004.4" y="2539.0" font-size="18.2px" font-family="CMUBright-Roman" style="text-anchor:start;fill:rgb(0,0,0);" transform="rotate(63.8,2004.4,2539.0)" >1850</text>
<line x1='1935.8' y1='2537.2' x2='1943.6' y2='2555.6' style="stroke-width:4.0;stroke:rgb(0,0,0);stroke-linecap:round;fill:none;" />
<text x="1941.4" y="2567.3" font-size="18.2px" font-family="CMUBright-Roman" style="text-anchor:start;fill:rgb(0,0,0);" transform="rotate(67.2,1941.4,2567.3)" >1900</text>
<line x1='1873.1' y1='2561.3' x2='1879.7' y2='2580.2' style="stroke-width:4.0;stroke:rgb(0,0,0);stroke-linecap:round;fill:none;" />
<text x="1876.9" y="2591.8" font-size="18.2px" font-family="CMUBright-Roman" style="text-anchor:start;fill:rgb(0,0,0);" transform="rotate(70.6,1876.9,2591.8)" >1950</text>
<line x1='1809.0' y1='2581.7' x2='1814.4' y2='2601.0' style="stroke-width:4.0;stroke:rgb(0,0,0);stroke-linecap:round;fill:none;" />
<text x="1810.9" y="2612.4" font-size="18.2px" font-family="CMUBright-Roman" style="text-anchor:start;fill:rgb(0,0,0);" transform="rotate(74.1,1810.9,2612.4)" >2000</text>
<line x1='1743.7' y1='2598.3' x2='1748.1' y2='2617.8' style="stroke-width:4.0;stroke:rgb(0,0,0);stroke-linecap:round;fill:none;" />
<text x="1743.9" y="2629.0" font-size="18.2px" font-family="CMUBright-Roman" style="text-anchor:start;fill:rgb(0,0,0);" transform="rotate(77.5,1743.9,2629.0)" >2050</text>
<line x1='1677.7' y1='2610.9' x2='1680.8' y2='2630.6' style="stroke-width:4.0;stroke:rgb(0,0,0);stroke-linecap:round;fill:none;" />
<text x="1676.0" y="2641.5" font-size="18.2px" font-family="CMUBright-Roman" style="text-anchor:start;fill:rgb(0,0,0);" transform="rotate(80.9,1676.0,2641.5)" >2100</text>
<line x1='1611.0' y1='2619.5' x2='1612.9' y2='2639.4' style="stroke-width:4.0;stroke:rgb(0,0,0);stroke-linecap:round;fill:none;" />
<text x="1607.4" y="2650.0" font-size="18.2px" font-family="CMUBright-Roman" style="text-anchor:start;fill:rgb(0,0,0);" transform="rotate(84.3,1607.4,2650.0)" >2150</text>
<line x1='1543.8' y1='2624.1' x2='1544.6' y2='2644.1' style="stroke-width:4.0;stroke:rgb(0,0,0);stroke-linecap:round;fill:none;" />
<text x="1538.5" y="2654.4" font-size="18.2px" font-family="CMUBright-Roman" style="text-anchor:start;fill:rgb(0,0,0);" transform="rotate(87.8,1538.5,2654.4)" >2200</text>
<line x1='1476.6' y1='2624.8' x2='1476.2' y2='2644.8' style="stroke-width:4.0;stroke:rgb(0,0,0);stroke-linecap:round;fill:none;" />
<text x="1482.4" y="2654.9" font-size="18.2px" font-family="CMUBright-Roman" style="text-anchor:end;fill:rgb(0,0,0);" transform="rotate(-88.8,1482.4,2654.9)" >2250</text>
<line x1='1409.4' y1='2621.3' x2='1407.8' y2='2641.3' style="stroke-width:4.0;stroke:rgb(0,0,0);stroke-linecap:round;fill:none;" />
<text x="1413.5" y="2651.8" font-size="18.2px" font-family="CMUBright-Roman" style="text-anchor:end;fill:rgb(0,0,0);" transform="rotate(-85.4,1413.5,2651.8)" >2300</text>
<line x1='1342.5' y1='2613.9' x2='1339.7' y2='2633.7' style="stroke-width:4.0;stroke:rgb(0,0,0);stroke-linecap:round;fill:none;" />
<text x="1344.8" y="2644.5" font-size="18.2px" font-family="CMUBright-Roman" style="text-anchor:end;fill:rgb(0,0,0);" transform="rotate(-82.0,1344.8,2644.5)" >2350</text>
<line x1='1276.2' y1='2602.5' x2='1272.3' y2='2622.1' style="stroke-width:4.0;stroke:rgb(0,0,0);stroke-linecap:round;fill:none;" />
<text x="1276.6" y="2633.2" font-size="18.2px" font-family="CMUBright-Roman" style="text-anchor:end;fill:rgb(0,0,0);" transform="rotate(-78.5,1276.6,2633.2)" >2400</text>
<line x1='1210.7' y1='2587.2' x2='1205.6' y2='2606.5' style="stroke-width:4.0;stroke:rgb(0,0,0);stroke-linecap:round;fill:none;" />
<text x="1209.3" y="2617.8" font-size="18.2px" font-family="CMUBright-Roman" style="text-anchor:end;fill:rgb(0,0,0);" transform="rotate(-75.1,1209.3,2617.8)" >2450</text>
<line x1='1146.3' y1='2567.9' x2='1140.0' y2='2586.9' style="stroke-width:4.0;stroke:rgb(0,0,0);stroke-linecap:round;fill:none;" />
<text x="1143.0" y="2598.4" font-size="18.2px" font-family="CMUBright-Roman" style="text-anchor:end;fill:rgb(0,0,0);" transform="rotate(-71.7,1143.0,2598.4)" >2500</text>
<line x1='1083.1' y1='2544.9' x2='1075.7' y2='2563.5' style="stroke-width:4.0;stroke:rgb(0,0,0);stroke-linecap:round;fill:none;" />
<text x="1078.0" y="2575.1" font-size="18.2px" font-family="CMUBright-Roman" style="text-anchor:end;fill:rgb(0,0,0);" transform="rotate(-68.2,1078.0,2575.1)" >2550</text>
<line x1='1021.4' y1='2518.1' x2='1012.9' y2='2536.2' style="stroke-width:4.0;stroke:rgb(0,0,0);stroke-linecap:round;fill:none;" />
<text x="1014.5" y="2548.0" font-size="18.2px" font-family="CMUBright-Roman" style="text-anchor:end;fill:rgb(0,0,0);" transform="rotate(-64.8,1014.5,2548.0)" >2600</text>
<line x1='961.4' y1='2487.7' x2='951.8' y2='2505.2' style="stroke-width:4.0;stroke:rgb(0,0,0);stroke-linecap:round;fill:none;" />
<text x="952.7" y="2517.1" font-size="18.2px" font-family="CMUBright-Roman" style="text-anchor:end;fill:rgb(0,0,0);" transform="rotate(-61.4,952.7,2517.1)" >2650</text>
<line x1='903.3' y1='2453.7' x2='892.7' y2='2470.7' style="stroke-width:4.0;stroke:rgb(0,0,0);stroke-linecap:round;fill:none;" />
<text x="892.9" y="2482.6" font-size="18.2px" font-family="CMUBright-Roman" style="text-anchor:end;fill:rgb(0,0,0);" transform="rotate(-58.0,892.9,2482.6)" >2700</text>
<line x1='847.4' y1='2416.4' x2='835.8' y2='2432.6' style="stroke-width:4.0;stroke:rgb(0,0,0);stroke-linecap:round;fill:none;" />
<text x="835.3" y="2444.5" font-size="18.2px" font-family="CMUBright-Roman" style="text-anchor:end;fill:rgb(0,0,0);" transform="rotate(-54.5,835.3,2444.5)" >2750</text>
<line x1='793.8' y1='2375.7' x2='781.2' y2='2391.3' style="stroke-width:4.0;stroke:rgb(0,0,0);stroke-linecap:round;fill:none;" />
<text x="780.0" y="2403.1" font-size="18.2px" font-family="CMUBright-Roman" style="text-anchor:end;fill:rgb(0,0,0);" transform="rotate(-51.1,780.0,2403.1)" >2800</text>
<line x1='742.7' y1='2331.9' x2='729.2' y2='2346.7' style="stroke-width:4.0;stroke:rgb(0,0,0);stroke-linecap:round;fill:none;" />
<text x="727.3" y="2358.5" font-size="18.2px" font-family="CMUBright-Roman" style="text-anchor:end;fill:rgb(0,0,0);" transform="rotate(-47.7,727.3,2358.5)" >2850</text>
<line x1='694.3' y1='2285.2' x2='680.0' y2='2299.1' style="stroke-width:4.0;stroke:rgb(0,0,0);stroke-linecap:round;fill:none;" />
<text x="677.4" y="2310.8" font-size="18.2px" font-family="CMUBright-Roman" style="text-anchor:end;fill:rgb(0,0,0);" transform="rotate(-44.3,677.4,2310.8)" >2900</text>
<line x1='648.8' y1='2235.6' x2='633.7' y2='2248.7' style="stroke-width:4.0;stroke:rgb(0,0,0);stroke-linecap:round;fill:none;" />
<text x="630.4" y="2260.1" font-size="18.2px" font-family="CMUBright-Roman" style="text-anchor:end;fill:rgb(0,0,0);" transform="rotate(-40.8,630.4,2260.1)" >2950</text>
<line x1='606.4' y1='2183.4' x2='590.5' y2='2195.6' style="stroke-width:4.0;stroke:rgb(0,0,0);stroke-linecap:round;fill:none;" />
<text x="586.5" y="2206.8" font-size="18.2px" font-family="CMUBright-Roman" style="text-anchor:end;fill:rgb(0,0,0);" transform="rotate(-37.4,586.5,2206.8)" >3000</text>
<line x1='567.1' y1='2128.8' x2='550.6' y2='2140.0' style="stroke-width:4.0;stroke:rgb(0,0,0);stroke-linecap:round;fill:none;" />
<text x="545.9" y="2150.9" font-size="18.2px" font-family="CMUBright-Roman" style="text-anchor:end;fill:rgb(0,0,0);" transform="rotate(-34.0,545.9,2150.9)" >3050</text>
<line x1='531.2' y1='2071.9' x2='514.0' y2='2082.1' style="stroke-width:4.0;stroke:rgb(0,0,0);stroke-linecap:round;fill:none;" />
<text x="508.7" y="2092.8" font-size="18.2px" font-family="CMUBright-Roman" style="text-anchor:end;fill:rgb(0,0,0);" transform="rotate(-30.6,508.7,2092.8)" >3100</text>
<line x1='498.8' y1='2013.0' x2='481.0' y2='2022.1' style="stroke-width:4.0;stroke:rgb(0,0,0);stroke-linecap:round;fill:none;" />
<text x="475.1" y="2032.5" font-size="18.2px" font-family="CMUBright-Roman" style="text-anchor:end;fill:rgb(0,0,0);" transform="rotate(-27.1,475.1,2032.5)" >3150</text>
<line x1='469.9' y1='1952.2' x2='451.6' y2='1960.3' style="stroke-width:4.0;stroke:rgb(0,0,0);stroke-linecap:round;fill:none;" />
<text x="445.1" y="1970.2" font-size="18.2px" font-family="CMUBright-Roman" style="text-anchor:end;fill:rgb(0,0,0);" transform="rotate(-23.7,445.1,1970.2)" >3200</text>
<line x1='444.7' y1='1889.9' x2='425.9' y2='1896.8' style="stroke-width:4.0;stroke:rgb(0,0,0);stroke-linecap:round;fill:none;" />
<text x="418.8" y="1906.3" font-size="18.2px" font-family="CMUBright-Roman" style="text-anchor:end;fill:rgb(0,0,0);" transform="rotate(-20.3,418.8,1906.3)" >3250</text>
<line x1='423.3' y1='1826.1' x2='404.2' y2='1831.9' style="stroke-width:4.0;stroke:rgb(0,0,0);stroke-linecap:round;fill:none;" />
<text x="396.5" y="1841.0" font-size="18.2px" font-family="CMUBright-Roman" style="text-anchor:end;fill:rgb(0,0,0);" transform="rotate(-16.8,396.5,1841.0)" >3300</text>
<line x1='405.7' y1='1761.2' x2='386.3' y2='1765.8' style="stroke-width:4.0;stroke:rgb(0,0,0);stroke-linecap:round;fill:none;" />
<text x="378.1" y="1774.4" font-size="18.2px" font-family="CMUBright-Roman" style="text-anchor:end;fill:rgb(0,0,0);" transform="rotate(-13.4,378.1,1774.4)" >3350</text>
<line x1='392.1' y1='1695.3' x2='372.4' y2='1698.8' style="stroke-width:4.0;stroke:rgb(0,0,0);stroke-linecap:round;fill:none;" />
<text x="363.7" y="1706.9" font-size="18.2px" font-family="CMUBright-Roman" style="text-anchor:end;fill:rgb(0,0,0);" transform="rotate(-10.0,363.7,1706.9)" >3400</text>
<line x1='382.4' y1='1628.7' x2='362.5' y2='1631.0' style="stroke-width:4.0;stroke:rgb(0,0,0);stroke-linecap:round;fill:none;" />
<text x="353.3" y="1638.6" font-size="18.2px" font-family="CMUBright-Roman" style="text-anchor:end;fill:rgb(0,0,0);" transform="rotate(-6.6,353.3,1638.6)" >3450</text>
<line x1='376.7' y1='1561.7' x2='356.7' y2='1562.8' style="stroke-width:4.0;stroke:rgb(0,0,0);stroke-linecap:round;fill:none;" />
<text x="347.1" y="1569.8" font-size="18.2px" font-family="CMUBright-Roman" style="text-anchor:end;fill:rgb(0,0,0);" transform="rotate(-3.1,347.1,1569.8)" >3500</text>
<line x1='375.0' y1='1494.4' x2='355.0' y2='1494.3' style="stroke-width:4.0;stroke:rgb(0,0,0);stroke-linecap:round;fill:none;" />
<text x="345.0" y="1500.8" font-size="18.2px" font-family="CMUBright-Roman" style="text-anchor:end;fill:rgb(0,0,0);" transform="rotate(0.3,345.0,1500.8)" >3550</text>
<line x1='377.4' y1='1427.2' x2='357.4' y2='1425.9' style="stroke-width:4.0;stroke:rgb(0,0,0);stroke-linecap:round;fill:none;" />
<text x="347.0" y="1431.8" font-size="18.2px" font-family="CMUBright-Roman" style="text-anchor:end;fill:rgb(0,0,0);" transform="rotate(3.7,347.0,1431.8)" >3600</text>
<line x1='383.7' y1='1360.2' x2='363.9' y2='1357.8' style="stroke-width:4.0;stroke:rgb(0,0,0);stroke-linecap:round;fill:none;" />
<text x="353.2" y="1363.0" font-size="18.2px" font-family="CMUBright-Roman" style="text-anchor:end;fill:rgb(0,0,0);" transform="rotate(7.1,353.2,1363.0)" >3650</text>
<line x1='394.1' y1='1293.8' x2='374.4' y2='1290.1' style="stroke-width:4.0;stroke:rgb(0,0,0);stroke-linecap:round;fill:none;" />
<text x="363.4" y="1294.7" font-size="18.2px" font-family="CMUBright-Roman" style="text-anchor:end;fill:rgb(0,0,0);" transform="rotate(10.6,363.4,1294.7)" >3700</text>
<line x1='408.4' y1='1228.0' x2='389.0' y2='1223.2' style="stroke-width:4.0;stroke:rgb(0,0,0);stroke-linecap:round;fill:none;" />
<text x="377.7" y="1227.1" font-size="18.2px" font-family="CMUBright-Roman" style="text-anchor:end;fill:rgb(0,0,0);" transform="rotate(14.0,377.7,1227.1)" >3750</text>
<line x1='426.6' y1='1163.3' x2='407.5' y2='1157.3' style="stroke-width:4.0;stroke:rgb(0,0,0);stroke-linecap:round;fill:none;" />
<text x="396.0" y="1160.5" font-size="18.2px" font-family="CMUBright-Roman" style="text-anchor:end;fill:rgb(0,0,0);" transform="rotate(17.4,396.0,1160.5)" >3800</text>
<line x1='448.6' y1='1099.7' x2='429.9' y2='1092.6' style="stroke-width:4.0;stroke:rgb(0,0,0);stroke-linecap:round;fill:none;" />
<text x="418.3" y="1095.1" font-size="18.2px" font-family="CMUBright-Roman" style="text-anchor:end;fill:rgb(0,0,0);" transform="rotate(20.8,418.3,1095.1)" >3850</text>
<line x1='474.4' y1='1037.6' x2='456.2' y2='1029.4' style="stroke-width:4.0;stroke:rgb(0,0,0);stroke-linecap:round;fill:none;" />
<text x="444.4" y="1031.2" font-size="18.2px" font-family="CMUBright-Roman" style="text-anchor:end;fill:rgb(0,0,0);" transform="rotate(24.3,444.4,1031.2)" >3900</text>
<line x1='503.9' y1='977.1' x2='486.2' y2='967.8' style="stroke-width:4.0;stroke:rgb(0,0,0);stroke-linecap:round;fill:none;" />
<text x="474.3" y="968.9" font-size="18.2px" font-family="CMUBright-Roman" style="text-anchor:end;fill:rgb(0,0,0);" transform="rotate(27.7,474.3,968.9)" >3950</text>
<line x1='536.9' y1='918.5' x2='519.8' y2='908.2' style="stroke-width:4.0;stroke:rgb(0,0,0);stroke-linecap:round;fill:none;" />
<text x="507.9" y="908.6" font-size="18.2px" font-family="CMUBright-Roman" style="text-anchor:end;fill:rgb(0,0,0);" transform="rotate(31.1,507.9,908.6)" >4000</text>
<line x1='573.4' y1='862.0' x2='556.9' y2='850.7' style="stroke-width:4.0;stroke:rgb(0,0,0);stroke-linecap:round;fill:none;" />
<text x="545.0" y="850.4" font-size="18.2px" font-family="CMUBright-Roman" style="text-anchor:end;fill:rgb(0,0,0);" transform="rotate(34.5,545.0,850.4)" >4050</text>
<line x1='613.2' y1='807.8' x2='597.4' y2='795.5' style="stroke-width:4.0;stroke:rgb(0,0,0);stroke-linecap:round;fill:none;" />
<text x="585.6" y="794.4" font-size="18.2px" font-family="CMUBright-Roman" style="text-anchor:end;fill:rgb(0,0,0);" transform="rotate(38.0,585.6,794.4)" >4100</text>
<line x1='656.2' y1='756.0' x2='641.1' y2='742.8' style="stroke-width:4.0;stroke:rgb(0,0,0);stroke-linecap:round;fill:none;" />
<text x="629.4" y="741.0" font-size="18.2px" font-family="CMUBright-Roman" style="text-anchor:end;fill:rgb(0,0,0);" transform="rotate(41.4,629.4,741.0)" >4150</text>
<line x1='702.1' y1='706.9' x2='687.9' y2='692.8' style="stroke-width:4.0;stroke:rgb(0,0,0);stroke-linecap:round;fill:none;" />
<text x="676.3" y="690.4" font-size="18.2px" font-family="CMUBright-Roman" style="text-anchor:end;fill:rgb(0,0,0);" transform="rotate(44.8,676.3,690.4)" >4200</text>
<line x1='751.0' y1='660.6' x2='737.6' y2='645.7' style="stroke-width:4.0;stroke:rgb(0,0,0);stroke-linecap:round;fill:none;" />
<text x="726.1" y="642.6" font-size="18.2px" font-family="CMUBright-Roman" style="text-anchor:end;fill:rgb(0,0,0);" transform="rotate(48.3,726.1,642.6)" >4250</text>
<line x1='802.5' y1='617.4' x2='790.1' y2='601.7' style="stroke-width:4.0;stroke:rgb(0,0,0);stroke-linecap:round;fill:none;" />
<text x="778.8" y="597.9" font-size="18.2px" font-family="CMUBright-Roman" style="text-anchor:end;fill:rgb(0,0,0);" transform="rotate(51.7,778.8,597.9)" >4300</text>
<line x1='856.5' y1='577.2' x2='845.0' y2='560.8' style="stroke-width:4.0;stroke:rgb(0,0,0);stroke-linecap:round;fill:none;" />
<text x="834.0" y="556.4" font-size="18.2px" font-family="CMUBright-Roman" style="text-anchor:end;fill:rgb(0,0,0);" transform="rotate(55.1,834.0,556.4)" >4350</text>
<line x1='912.8' y1='540.4' x2='902.3' y2='523.4' style="stroke-width:4.0;stroke:rgb(0,0,0);stroke-linecap:round;fill:none;" />
<text x="891.6" y="518.2" font-size="18.2px" font-family="CMUBright-Roman" style="text-anchor:end;fill:rgb(0,0,0);" transform="rotate(58.5,891.6,518.2)" >4400</text>
<line x1='971.2' y1='507.0' x2='961.8' y2='489.4' style="stroke-width:4.0;stroke:rgb(0,0,0);stroke-linecap:round;fill:none;" />
<text x="951.3" y="483.6" font-size="18.2px" font-family="CMUBright-Roman" style="text-anchor:end;fill:rgb(0,0,0);" transform="rotate(62.0,951.3,483.6)" >4450</text>
<line x1='1031.5' y1='477.2' x2='1023.1' y2='459.0' style="stroke-width:4.0;stroke:rgb(0,0,0);stroke-linecap:round;fill:none;" />
<text x="1013.1" y="452.7" font-size="18.2px" font-family="CMUBright-Roman" style="text-anchor:end;fill:rgb(0,0,0);" transform="rotate(65.4,1013.1,452.7)" >4500</text>
<line x1='1093.4' y1='451.0' x2='1086.2' y2='432.4' style="stroke-width:4.0;stroke:rgb(0,0,0);stroke-linecap:round;fill:none;" />
<text x="1076.5" y="425.4" font-size="18.2px" font-family="CMUBright-Roman" style="text-anchor:end;fill:rgb(0,0,0);" transform="rotate(68.8,1076.5,425.4)" >4550</text>
<line x1='1156.9' y1='428.6' x2='1150.8' y2='409.6' style="stroke-width:4.0;stroke:rgb(0,0,0);stroke-linecap:round;fill:none;" />
<text x="1141.5" y="402.0" font-size="18.2px" font-family="CMUBright-Roman" style="text-anchor:end;fill:rgb(0,0,0);" transform="rotate(72.2,1141.5,402.0)" >4600</text>
<line x1='1221.5' y1='410.0' x2='1216.6' y2='390.6' style="stroke-width:4.0;stroke:rgb(0,0,0);stroke-linecap:round;fill:none;" />
<text x="1207.8" y="382.6" font-size="18.2px" font-family="CMUBright-Roman" style="text-anchor:end;fill:rgb(0,0,0);" transform="rotate(75.7,1207.8,382.6)" >4650</text>
<line x1='1287.2' y1='395.3' x2='1283.4' y2='375.7' style="stroke-width:4.0;stroke:rgb(0,0,0);stroke-linecap:round;fill:none;" />
<text x="1275.1" y="367.1" font-size="18.2px" font-family="CMUBright-Roman" style="text-anchor:end;fill:rgb(0,0,0);" transform="rotate(79.1,1275.1,367.1)" >4700</text>
<line x1='1353.6' y1='384.6' x2='1351.0' y2='364.7' style="stroke-width:4.0;stroke:rgb(0,0,0);stroke-linecap:round;fill:none;" />
<text x="1343.2" y="355.7" font-size="18.2px" font-family="CMUBright-Roman" style="text-anchor:end;fill:rgb(0,0,0);" transform="rotate(82.5,1343.2,355.7)" >4750</text>
<line x1='1420.5' y1='377.8' x2='1419.1' y2='357.9' style="stroke-width:4.0;stroke:rgb(0,0,0);stroke-linecap:round;fill:none;" />
<text x="1411.9" y="348.4" font-size="18.2px" font-family="CMUBright-Roman" style="text-anchor:end;fill:rgb(0,0,0);" transform="rotate(85.9,1411.9,348.4)" >4800</text>
<g id="highlighttrack_0">
<path d="M2434.235,2031.818 A1075.000,1075.000 40.000 0,1 2431.842,2035.999 L2475.184,2060.930 A1125.000,1125.000 0.000 0,0 2477.688,2056.553 Z" style="stroke-width:4.0;stroke:rgb(0,0,0);stroke-linecap:round;fill:rgb(251,106,74);" />
<path d="M794.164,2310.815 A1075.000,1075.000 40.000 0,1 790.890,2307.953 L757.908,2345.532 A1125.000,1125.000 0.000 0,0 761.334,2348.527 Z" style="stroke-width:4.0;stroke:rgb(0,0,0);stroke-linecap:round;fill:rgb(116,196,118);" />
<path d="M644.906,848.510 A1075.000,1075.000 40.000 0,1 647.548,845.057 L607.899,814.594 A1125.000,1125.000 0.000 0,0 605.134,818.208 Z" style="stroke-width:4.0;stroke:rgb(0,0,0);stroke-linecap:round;fill:rgb(116,196,118);" />
<path d="M727.249,752.685 A1075.000,1075.000 40.000 0,1 730.278,749.565 L694.477,714.661 A1125.000,1125.000 0.000 0,0 691.307,717.926 Z" style="stroke-width:4.0;stroke:rgb(0,0,0);stroke-linecap:round;fill:rgb(251,106,74);" />
<path d="M922.180,593.496 A1075.000,1075.000 40.000 0,1 926.236,590.924 L899.549,548.641 A1125.000,1125.000 0.000 0,0 895.305,551.333 Z" style="stroke-width:4.0;stroke:rgb(0,0,0);stroke-linecap:round;fill:rgb(251,106,74);" />
<path d="M979.304,559.521 A1075.000,1075.000 40.000 0,1 983.113,557.422 L959.072,513.582 A1125.000,1125.000 0.000 0,0 955.086,515.778 Z" style="stroke-width:4.0;stroke:rgb(0,0,0);stroke-linecap:round;fill:rgb(251,106,74);" />
<path d="M986.702,555.463 A1075.000,1075.000 40.000 0,1 990.539,553.388 L966.843,509.359 A1125.000,1125.000 0.000 0,0 962.827,511.531 Z" style="stroke-width:4.0;stroke:rgb(0,0,0);stroke-linecap:round;fill:rgb(251,106,74);" />
<path d="M1165.077,478.505 A1075.000,1075.000 40.000 0,1 1169.658,477.015 L1154.293,429.434 A1125.000,1125.000 0.000 0,0 1149.499,430.994 Z" style="stroke-width:4.0;stroke:rgb(0,0,0);stroke-linecap:round;fill:rgb(251,106,74);" />
<path d="M1799.723,2532.372 A1075.000,1075.000 40.000 0,1 1766.433,2541.460 L1778.826,2589.900 A1125.000,1125.000 0.000 0,0 1813.664,2580.389 Z" style="stroke-width:4.0;stroke:rgb(0,0,0);stroke-linecap:round;fill:rgb(116,196,118);" />
<path d="M867.910,2369.533 A1075.000,1075.000 40.000 0,1 840.287,2348.766 L809.602,2388.243 A1125.000,1125.000 0.000 0,0 838.511,2409.976 Z" style="stroke-width:4.0;stroke:rgb(0,0,0);stroke-linecap:round;fill:rgb(116,196,118);" />
<path d="M1059.762,519.278 A1075.000,1075.000 40.000 0,1 1063.585,517.571 L1043.287,471.876 A1125.000,1125.000 0.000 0,0 1039.285,473.663 Z" style="stroke-width:4.0;stroke:rgb(0,0,0);stroke-linecap:round;fill:rgb(116,196,118);" />
<path d="M1064.158,517.317 A1075.000,1075.000 40.000 0,1 1067.989,515.626 L1047.896,469.841 A1125.000,1125.000 0.000 0,0 1043.886,471.610 Z" style="stroke-width:4.0;stroke:rgb(0,0,0);stroke-linecap:round;fill:rgb(116,196,118);" />
</g>
</g>
<g id="track_0">
<path d="M 2424.893,2026.500 A 1064.250,1064.250 0.00 0,1 2422.5,2030.6 L 2422.5,2030.6 2359.2,1993.1 2300.7,1956.5 2246.9,1920.6 2197.4,1885.5 2151.9,1851.1 2110.1,1817.5 2071.7,1784.5 2036.6,1752.1 2004.4,1720.3 1975.0,1688.9 1948.2,1658.0 1923.7,1627.4 1901.4,1597.1 1881.1,1567.0 1862.8,1537.0 1846.3,1507.0 1831.4,1476.9 1818.2,1446.6 1806.4,1416.0 1796.2,1385.0 1787.4,1353.4 1780.0,1321.2 1774.0,1288.2 1769.4,1254.2 1766.2,1219.2 1764.6,1182.9 1764.4,1145.3 1765.9,1106.2 1769.0,1065.3 1774.0,1022.6 1780.9,977.9 1789.8,930.9 1801.0,881.6 1814.5,829.7 1830.6,775.0 1849.5,717.3 1871.4,656.4 1896.4,592.2 1925.0,524.3  A 1064.250,1064.250 0.00 0,0 1920.5,522.3 L 1920.5,522.3 1892.2,590.3 1867.4,654.7 1845.9,715.7 1827.3,773.4 1811.4,828.2 1798.1,880.2 1787.2,929.6 1778.5,976.6 1771.8,1021.4 1767.0,1064.1 1764.1,1104.9 1762.8,1144.1 1763.1,1181.7 1764.9,1218.0 1768.2,1253.0 1773.0,1286.9 1779.1,1319.9 1786.7,1352.1 1795.7,1383.6 1806.0,1414.6 1817.9,1445.1 1831.3,1475.4 1846.3,1505.4 1862.9,1535.4 1881.4,1565.3 1901.8,1595.3 1924.2,1625.5 1948.8,1656.0 1975.9,1686.8 2005.4,1718.0 2037.7,1749.7 2073.0,1781.9 2111.5,1814.8 2153.5,1848.2 2199.1,1882.4 2248.8,1917.2 2302.8,1952.9 2361.4,1989.3 2424.9,2026.5  Z" style="stroke-width: 2.0;  stroke: rgb(82,82,82); fill: rgb(251,106,74); opacity: 0.667;" />
<path d="M 801.222,2302.707 A 1064.250,1064.250 0.00 0,1 798.0,2299.9 L 798.0,2299.9 846.1,2243.3 890.2,2187.8 930.8,2133.6 968.3,2080.7 1002.9,2029.0 1035.0,1978.6 1064.9,1929.6 1092.9,1881.8 1119.4,1835.3 1144.6,1790.0 1168.7,1746.0 1191.9,1703.1 1214.6,1661.3 1236.8,1620.6 1258.9,1580.8 1280.9,1541.8 1303.0,1503.7 1325.3,1466.2 1348.1,1429.2 1371.3,1392.6 1395.0,1356.3 1419.5,1320.1 1444.6,1283.9 1470.4,1247.4 1497.1,1210.5 1524.5,1173.1 1552.6,1134.8 1581.5,1095.5 1611.1,1054.9 1641.4,1012.9 1672.2,969.2 1703.5,923.4 1735.2,875.5 1767.1,825.0 1799.1,771.7 1831.1,715.3 1862.9,655.4 1894.2,591.9 1925.0,524.3  A 1064.250,1064.250 0.00 0,0 1920.5,522.3 L 1920.5,522.3 1890.0,590.1 1859.0,653.8 1827.5,713.7 1795.7,770.3 1764.0,823.7 1732.3,874.4 1700.8,922.5 1669.8,968.4 1639.1,1012.2 1609.1,1054.4 1579.7,1095.1 1550.9,1134.5 1523.0,1172.9 1495.7,1210.5 1469.3,1247.5 1443.6,1284.1 1418.6,1320.4 1394.3,1356.7 1370.7,1393.2 1347.7,1429.8 1325.1,1466.9 1302.9,1504.5 1281.0,1542.7 1259.1,1581.7 1237.3,1621.6 1215.2,1662.5 1192.7,1704.3 1169.6,1747.3 1145.7,1791.5 1120.8,1836.8 1094.5,1883.4 1066.6,1931.3 1036.9,1980.5 1005.0,2031.0 970.6,2082.8 933.4,2135.9 893.0,2190.3 849.1,2245.9 801.2,2302.7  Z" style="stroke-width: 2.0;  stroke: rgb(82,82,82); fill: rgb(116,196,118); opacity: 0.667;" />
<path d="M 801.222,2302.707 A 1064.250,1064.250 0.00 0,1 798.0,2299.9 L 798.0,2299.9 847.3,2245.1 894.9,2195.1 940.9,2149.3 985.4,2107.6 1028.5,2069.6 1070.1,2035.0 1110.6,2003.7 1149.8,1975.3 1188.0,1949.6 1225.2,1926.5 1261.5,1905.7 1297.0,1887.1 1331.9,1870.5 1366.2,1855.7 1400.1,1842.7 1433.7,1831.3 1467.0,1821.5 1500.3,1813.1 1533.6,1806.2 1567.0,1800.7 1600.8,1796.5 1634.9,1793.7 1669.7,1792.2 1705.1,1792.1 1741.4,1793.5 1778.6,1796.4 1817.0,1800.9 1856.6,1807.1 1897.7,1815.0 1940.4,1824.9 1984.8,1836.9 2031.1,1851.1 2079.5,1867.8 2130.1,1887.0 2183.1,1909.1 2238.6,1934.2 2297.0,1962.7 2358.2,1994.7 2422.5,2030.6  A 1064.250,1064.250 0.00 0,0 2424.9,2026.5 L 2424.9,2026.5 2360.4,1990.9 2299.0,1959.1 2240.6,1930.9 2184.9,1906.0 2131.8,1884.2 2081.1,1865.2 2032.7,1848.7 1986.3,1834.7 1941.8,1823.0 1899.1,1813.3 1858.0,1805.5 1818.3,1799.5 1779.9,1795.2 1742.6,1792.4 1706.4,1791.2 1670.9,1791.4 1636.2,1793.0 1602.0,1796.0 1568.3,1800.3 1534.9,1806.0 1501.6,1813.1 1468.4,1821.6 1435.0,1831.5 1401.5,1843.1 1367.7,1856.2 1333.4,1871.1 1298.6,1887.9 1263.2,1906.7 1226.9,1927.6 1189.8,1950.9 1151.7,1976.7 1112.6,2005.2 1072.3,2036.8 1030.8,2071.5 987.9,2109.6 943.6,2151.6 897.7,2197.5 850.3,2247.8 801.2,2302.7  Z" style="stroke-width: 2.0;  stroke: rgb(82,82,82); fill: rgb(107,174,214); opacity: 0.667;" />
<path d="M 653.457,855.025 A 1064.250,1064.250 0.00 0,1 656.1,851.6 L 656.1,851.6 714.8,895.8 770.4,935.7 823.2,971.7 873.2,1004.0 920.6,1032.9 965.7,1058.4 1008.5,1080.9 1049.2,1100.5 1087.9,1117.4 1124.9,1131.8 1160.2,1143.6 1194.0,1153.2 1226.4,1160.5 1257.5,1165.7 1287.5,1168.8 1316.6,1170.0 1344.7,1169.1 1372.1,1166.3 1398.7,1161.5 1424.9,1154.7 1450.5,1146.0 1475.9,1135.2 1500.9,1122.4 1525.8,1107.4 1550.5,1090.1 1575.3,1070.5 1600.1,1048.4 1625.0,1023.7 1650.2,996.2 1675.6,965.8 1701.4,932.3 1727.5,895.5 1754.1,855.1 1781.1,810.9 1808.7,762.7 1836.8,710.3 1865.6,653.2 1895.0,591.3 1925.0,524.3  A 1064.250,1064.250 0.00 0,0 1920.5,522.3 L 1920.5,522.3 1890.7,589.5 1861.6,651.5 1833.2,708.7 1805.3,761.3 1777.9,809.6 1751.1,853.9 1724.7,894.4 1698.8,931.4 1673.2,965.0 1647.9,995.5 1622.9,1023.1 1598.0,1047.9 1573.3,1070.1 1548.7,1089.9 1524.0,1107.2 1499.2,1122.4 1474.2,1135.3 1449.0,1146.2 1423.4,1155.0 1397.3,1161.9 1370.6,1166.8 1343.3,1169.7 1315.2,1170.7 1286.1,1169.7 1256.1,1166.7 1224.9,1161.6 1192.5,1154.4 1158.7,1145.0 1123.4,1133.3 1086.3,1119.1 1047.5,1102.4 1006.8,1082.9 963.9,1060.6 918.7,1035.2 871.2,1006.6 821.1,974.5 768.2,938.7 712.4,898.9 653.5,855.0  Z" style="stroke-width: 2.0;  stroke: rgb(82,82,82); fill: rgb(253,141,60); opacity: 0.667;" />
<path d="M 653.457,855.025 A 1064.250,1064.250 0.00 0,1 656.1,851.6 L 656.1,851.6 715.8,896.0 774.2,936.6 831.3,973.9 887.0,1008.2 941.3,1039.9 994.2,1069.4 1045.6,1096.9 1095.6,1122.8 1144.1,1147.3 1191.2,1170.8 1236.9,1193.4 1281.3,1215.5 1324.3,1237.3 1366.1,1258.9 1406.8,1280.5 1446.4,1302.4 1485.0,1324.7 1522.8,1347.6 1559.7,1371.1 1596.1,1395.4 1632.0,1420.5 1667.6,1446.6 1703.0,1473.7 1738.4,1501.9 1774.0,1531.1 1810.0,1561.5 1846.6,1592.9 1884.1,1625.4 1922.5,1658.9 1962.2,1693.4 2003.5,1728.8 2046.6,1765.0 2091.7,1801.9 2139.2,1839.4 2189.3,1877.4 2242.4,1915.7 2298.7,1954.1 2358.7,1992.5 2422.5,2030.6  A 1064.250,1064.250 0.00 0,0 2424.9,2026.5 L 2424.9,2026.5 2360.9,1988.7 2300.8,1950.5 2244.2,1912.4 2191.0,1874.3 2140.7,1836.6 2093.1,1799.3 2047.8,1762.5 2004.5,1726.5 1963.1,1691.3 1923.2,1657.0 1884.6,1623.6 1847.1,1591.3 1810.3,1560.1 1774.2,1529.9 1738.5,1500.8 1702.9,1472.8 1667.4,1445.9 1631.7,1419.9 1595.7,1394.9 1559.2,1370.8 1522.1,1347.4 1484.3,1324.8 1445.6,1302.6 1405.9,1280.9 1365.2,1259.4 1323.2,1237.9 1280.1,1216.4 1235.7,1194.5 1189.9,1172.0 1142.7,1148.7 1094.1,1124.4 1044.0,1098.7 992.5,1071.4 939.5,1042.2 885.0,1010.7 829.2,976.6 771.9,939.5 713.3,899.1 653.5,855.0  Z" style="stroke-width: 2.0;  stroke: rgb(82,82,82); fill: rgb(255,0,0); opacity: 0.667;" />
<path d="M 653.457,855.025 A 1064.250,1064.250 0.00 0,1 656.1,851.6 L 656.1,851.6 713.9,897.1 766.9,940.9 815.3,983.1 859.5,1023.8 899.8,1063.1 936.4,1101.0 969.5,1137.7 999.4,1173.3 1026.4,1207.8 1050.4,1241.4 1071.9,1274.1 1090.9,1306.1 1107.5,1337.4 1121.9,1368.2 1134.2,1398.6 1144.6,1428.6 1153.0,1458.4 1159.5,1488.1 1164.2,1517.8 1167.1,1547.7 1168.3,1577.7 1167.6,1608.1 1165.2,1639.0 1160.9,1670.5 1154.7,1702.7 1146.5,1735.7 1136.3,1769.6 1123.9,1804.7 1109.2,1841.0 1092.1,1878.6 1072.4,1917.7 1049.9,1958.4 1024.6,2000.8 996.0,2045.1 964.2,2091.5 928.7,2140.0 889.3,2190.8 845.9,2244.0 798.0,2299.9  A 1064.250,1064.250 0.00 0,0 801.2,2302.7 L 801.2,2302.7 848.9,2246.7 892.1,2193.3 931.3,2142.3 966.5,2093.6 998.2,2047.2 1026.6,2002.7 1051.8,1960.2 1074.1,1919.4 1093.6,1880.2 1110.6,1842.5 1125.1,1806.2 1137.4,1771.1 1147.5,1737.1 1155.5,1704.0 1161.6,1671.8 1165.7,1640.4 1168.1,1609.5 1168.6,1579.1 1167.3,1549.0 1164.3,1519.2 1159.5,1489.5 1152.8,1459.8 1144.3,1430.1 1133.8,1400.1 1121.4,1369.8 1106.8,1339.0 1090.1,1307.8 1071.0,1275.8 1049.4,1243.2 1025.2,1209.7 998.1,1175.3 968.1,1139.9 934.8,1103.3 898.0,1065.5 857.6,1026.4 813.2,985.9 764.6,943.9 711.4,900.3 653.5,855.0  Z" style="stroke-width: 2.0;  stroke: rgb(82,82,82); fill: rgb(255,0,204); opacity: 0.667;" />
<path d="M 734.976,760.158 A 1064.250,1064.250 0.00 0,1 738.0,757.1 L 738.0,757.1 791.0,807.8 841.4,854.1 889.2,896.0 934.6,934.0 977.8,968.2 1018.8,998.9 1057.8,1026.2 1095.0,1050.3 1130.5,1071.5 1164.4,1089.9 1196.8,1105.5 1227.9,1118.6 1257.8,1129.3 1286.6,1137.6 1314.4,1143.6 1341.3,1147.4 1367.5,1149.0 1392.9,1148.5 1417.9,1145.8 1442.3,1141.0 1466.4,1134.1 1490.2,1125.0 1513.8,1113.6 1537.2,1099.9 1560.7,1083.8 1584.2,1065.3 1607.9,1044.1 1631.7,1020.2 1655.8,993.5 1680.3,963.7 1705.1,930.7 1730.5,894.3 1756.3,854.2 1782.7,810.4 1809.7,762.4 1837.4,710.1 1865.8,653.2 1895.0,591.3 1925.0,524.3  A 1064.250,1064.250 0.00 0,0 1920.5,522.3 L 1920.5,522.3 1890.8,589.5 1861.9,651.5 1833.8,708.5 1806.3,761.0 1779.5,809.0 1753.3,853.0 1727.7,893.2 1702.5,929.7 1677.8,962.9 1653.5,992.8 1629.5,1019.6 1605.8,1043.6 1582.3,1064.9 1558.8,1083.5 1535.5,1099.7 1512.0,1113.5 1488.5,1125.0 1464.8,1134.2 1440.7,1141.2 1416.3,1146.1 1391.4,1148.9 1366.0,1149.5 1339.8,1148.0 1312.9,1144.3 1285.1,1138.4 1256.3,1130.3 1226.4,1119.7 1195.2,1106.8 1162.7,1091.2 1128.8,1073.0 1093.2,1052.0 1055.9,1028.0 1016.8,1000.8 975.6,970.3 932.3,936.3 886.8,898.5 838.8,856.7 788.2,810.7 735.0,760.2  Z" style="stroke-width: 2.0;  stroke: rgb(82,82,82); fill: rgb(255,204,204); opacity: 0.667;" />
<path d="M 734.976,760.158 A 1064.250,1064.250 0.00 0,1 738.0,757.1 L 738.0,757.1 792.0,808.1 845.1,855.1 897.3,898.6 948.3,938.9 998.2,976.4 1047.0,1011.3 1094.6,1044.1 1141.0,1075.0 1186.1,1104.2 1230.1,1132.2 1272.8,1159.0 1314.4,1185.1 1354.9,1210.5 1394.3,1235.6 1432.6,1260.4 1470.1,1285.2 1506.7,1310.2 1542.5,1335.5 1577.7,1361.1 1612.4,1387.4 1646.7,1414.2 1680.8,1441.8 1714.8,1470.2 1748.9,1499.5 1783.3,1529.6 1818.1,1560.7 1853.6,1592.7 1890.0,1625.6 1927.5,1659.4 1966.3,1694.1 2006.8,1729.6 2049.1,1765.8 2093.6,1802.6 2140.6,1840.0 2190.2,1877.9 2242.9,1916.0 2299.0,1954.3 2358.7,1992.5 2422.5,2030.6  A 1064.250,1064.250 0.00 0,0 2424.9,2026.5 L 2424.9,2026.5 2360.9,1988.7 2301.0,1950.7 2244.8,1912.7 2191.9,1874.8 2142.1,1837.1 2095.0,1800.0 2050.3,1763.3 2007.8,1727.3 1967.2,1692.0 1928.2,1657.5 1890.6,1623.9 1854.0,1591.1 1818.4,1559.3 1783.4,1528.4 1748.9,1498.4 1714.7,1469.3 1680.6,1441.0 1646.4,1413.6 1612.0,1386.8 1577.2,1360.8 1541.9,1335.2 1505.9,1310.1 1469.2,1285.3 1431.7,1260.6 1393.2,1236.0 1353.7,1211.1 1313.1,1185.8 1271.4,1159.9 1228.6,1133.3 1184.5,1105.5 1139.3,1076.4 1092.8,1045.7 1045.0,1013.2 996.1,978.4 946.0,941.2 894.8,901.1 842.5,857.8 789.2,810.9 735.0,760.2  Z" style="stroke-width: 2.0;  stroke: rgb(82,82,82); fill: rgb(255,153,0); opacity: 0.667;" />
<path d="M 734.976,760.158 A 1064.250,1064.250 0.00 0,1 738.0,757.1 L 738.0,757.1 790.0,809.1 837.5,859.0 880.7,906.9 920.0,953.0 955.5,997.3 987.5,1039.9 1016.3,1081.0 1042.2,1120.7 1065.2,1159.1 1085.7,1196.3 1103.7,1232.4 1119.5,1267.5 1133.1,1301.8 1144.7,1335.4 1154.5,1368.4 1162.4,1400.9 1168.6,1433.0 1173.1,1464.9 1175.9,1496.7 1177.2,1528.5 1176.8,1560.4 1174.8,1592.5 1171.1,1625.0 1165.7,1658.0 1158.6,1691.7 1149.6,1726.1 1138.7,1761.3 1125.7,1797.6 1110.5,1835.0 1093.0,1873.6 1073.0,1913.7 1050.3,1955.3 1024.8,1998.5 996.1,2043.5 964.2,2090.4 928.7,2139.4 889.3,2190.5 845.9,2244.0 798.0,2299.9  A 1064.250,1064.250 0.00 0,0 801.2,2302.7 L 801.2,2302.7 848.9,2246.6 892.1,2193.0 931.3,2141.7 966.6,2092.6 998.3,2045.5 1026.8,2000.4 1052.2,1957.1 1074.7,1915.4 1094.5,1875.3 1111.9,1836.6 1126.9,1799.1 1139.7,1762.8 1150.5,1727.5 1159.4,1693.1 1166.4,1659.4 1171.6,1626.4 1175.1,1593.8 1177.0,1561.7 1177.3,1529.8 1175.9,1498.0 1172.9,1466.2 1168.3,1434.4 1162.0,1402.3 1153.9,1369.8 1144.1,1336.9 1132.3,1303.3 1118.5,1269.1 1102.6,1234.0 1084.4,1198.0 1063.8,1160.9 1040.6,1122.6 1014.6,1083.0 985.6,1042.0 953.4,999.5 917.7,955.4 878.3,909.5 834.9,861.7 787.3,812.0 735.0,760.2  Z" style="stroke-width: 2.0;  stroke: rgb(82,82,82); fill: rgb(255,204,0); opacity: 0.667;" />
<path d="M 734.976,760.158 A 1064.250,1064.250 0.00 0,1 738.0,757.1 L 738.0,757.1 790.3,808.2 838.6,855.6 883.0,899.4 923.8,939.8 961.0,976.9 994.9,1011.0 1025.6,1042.1 1053.3,1070.4 1078.0,1096.1 1100.0,1119.2 1119.3,1139.9 1136.1,1158.2 1150.4,1174.3 1162.2,1188.2 1171.7,1200.1 1178.9,1209.8 1183.9,1217.6 1186.6,1223.4 1187.1,1227.2 1185.4,1229.2 1181.5,1229.2 1175.4,1227.3 1167.0,1223.5 1156.3,1217.8 1143.3,1210.1 1127.8,1200.3 1109.9,1188.5 1089.3,1174.5 1066.1,1158.4 1040.1,1139.9 1011.2,1119.0 979.2,1095.7 944.0,1069.7 905.4,1041.0 863.4,1009.5 817.6,974.9 767.9,937.2 714.2,896.1 656.1,851.6  A 1064.250,1064.250 0.00 0,0 653.5,855.0 L 653.5,855.0 711.7,899.3 765.7,940.2 815.5,977.7 861.4,1012.0 903.6,1043.4 942.2,1072.0 977.5,1097.8 1009.6,1121.0 1038.6,1141.7 1064.7,1160.1 1088.0,1176.2 1108.6,1190.1 1126.6,1201.8 1142.1,1211.5 1155.2,1219.2 1165.9,1224.9 1174.3,1228.7 1180.4,1230.5 1184.3,1230.5 1186.0,1228.5 1185.5,1224.6 1182.7,1218.9 1177.8,1211.1 1170.5,1201.4 1160.9,1189.6 1149.0,1175.7 1134.7,1159.7 1117.9,1141.4 1098.5,1120.8 1076.4,1097.8 1051.5,1072.2 1023.7,1044.0 992.9,1013.0 958.9,979.1 921.5,942.1 880.6,901.9 836.0,858.3 787.5,811.1 735.0,760.2  Z" style="stroke-width: 2.0;  stroke: rgb(82,82,82); fill: rgb(255,255,0); opacity: 0.667;" />
<path d="M 927.959,602.561 A 1064.250,1064.250 0.00 0,1 932.0,600.0 L 932.0,600.0 971.6,661.7 1009.4,718.4 1045.4,770.3 1079.8,817.8 1112.6,860.9 1144.0,900.1 1174.0,935.4 1202.7,967.2 1230.2,995.6 1256.7,1020.7 1282.2,1042.7 1306.7,1061.7 1330.5,1078.0 1353.5,1091.5 1375.9,1102.3 1397.8,1110.6 1419.1,1116.4 1440.1,1119.7 1460.8,1120.6 1481.2,1119.0 1501.5,1115.0 1521.8,1108.5 1542.0,1099.6 1562.3,1088.1 1582.8,1074.0 1603.5,1057.1 1624.6,1037.5 1646.0,1014.9 1667.8,989.3 1690.2,960.5 1713.1,928.3 1736.7,892.5 1760.9,853.0 1786.0,809.6 1811.9,761.9 1838.7,709.8 1866.4,653.1 1895.2,591.3 1925.0,524.3  A 1064.250,1064.250 0.00 0,0 1920.5,522.3 L 1920.5,522.3 1891.0,589.5 1862.5,651.4 1835.0,708.3 1808.5,760.5 1782.8,808.3 1757.9,851.8 1733.8,891.4 1710.4,927.3 1687.7,959.6 1665.4,988.5 1643.7,1014.3 1622.4,1036.9 1601.5,1056.7 1580.9,1073.6 1560.5,1087.8 1540.2,1099.4 1520.0,1108.4 1499.8,1115.0 1479.5,1119.1 1459.1,1120.7 1438.4,1120.0 1417.4,1116.7 1396.0,1111.1 1374.1,1102.9 1351.7,1092.1 1328.6,1078.7 1304.8,1062.6 1280.1,1043.7 1254.6,1021.8 1228.0,996.8 1200.3,968.5 1171.4,936.9 1141.3,901.7 1109.8,862.7 1076.8,819.6 1042.2,772.4 1005.9,720.6 967.9,664.1 928.0,602.6  Z" style="stroke-width: 2.0;  stroke: rgb(82,82,82); fill: rgb(204,255,0); opacity: 0.667;" />
<path d="M 927.959,602.561 A 1064.250,1064.250 0.00 0,1 932.0,600.0 L 932.0,600.0 972.6,662.1 1013.0,719.9 1053.2,773.8 1093.0,824.2 1132.4,871.3 1171.3,915.6 1209.6,957.2 1247.2,996.6 1284.2,1033.9 1320.5,1069.5 1356.0,1103.5 1390.8,1136.3 1425.0,1168.0 1458.4,1198.8 1491.2,1229.1 1523.5,1258.8 1555.2,1288.3 1586.5,1317.6 1617.4,1347.0 1648.1,1376.4 1678.7,1406.1 1709.2,1436.2 1740.0,1466.7 1771.1,1497.7 1802.6,1529.2 1834.8,1561.4 1867.9,1594.2 1902.1,1627.6 1937.5,1661.7 1974.6,1696.5 2013.4,1731.9 2054.2,1767.9 2097.4,1804.4 2143.2,1841.5 2191.9,1878.9 2243.9,1916.6 2299.4,1954.6 2358.8,1992.6 2422.5,2030.6  A 1064.250,1064.250 0.00 0,0 2424.9,2026.5 L 2424.9,2026.5 2361.0,1988.8 2301.4,1951.0 2245.7,1913.3 2193.6,1875.8 2144.7,1838.6 2098.8,1801.8 2055.4,1765.4 2014.4,1729.6 1975.4,1694.4 1938.3,1659.8 1902.6,1625.8 1868.3,1592.5 1835.1,1559.9 1802.7,1527.8 1771.0,1496.4 1739.8,1465.6 1709.0,1435.3 1678.2,1405.3 1647.5,1375.8 1616.7,1346.5 1585.6,1317.3 1554.2,1288.1 1522.4,1258.7 1490.0,1229.1 1457.1,1199.0 1423.5,1168.3 1389.2,1136.8 1354.2,1104.1 1318.5,1070.3 1282.1,1034.9 1245.0,997.7 1207.2,958.5 1168.7,917.1 1129.6,873.0 1090.0,826.0 1050.0,775.8 1009.5,722.1 968.8,664.5 928.0,602.6  Z" style="stroke-width: 2.0;  stroke: rgb(82,82,82); fill: rgb(0,255,0); opacity: 0.667;" />
<path d="M 927.959,602.561 A 1064.250,1064.250 0.00 0,1 932.0,600.0 L 932.0,600.0 970.5,662.9 1005.0,722.9 1035.8,780.3 1063.3,835.1 1087.5,887.6 1108.9,937.8 1127.7,986.0 1143.9,1032.4 1158.0,1076.9 1169.9,1119.9 1180.0,1161.5 1188.2,1201.7 1194.9,1240.8 1200.0,1278.9 1203.6,1316.1 1205.9,1352.6 1206.9,1388.5 1206.6,1424.0 1205.1,1459.1 1202.3,1494.1 1198.3,1529.1 1193.0,1564.2 1186.4,1599.5 1178.4,1635.2 1169.0,1671.4 1158.0,1708.2 1145.3,1745.8 1130.9,1784.2 1114.5,1823.7 1095.9,1864.2 1075.1,1906.1 1051.7,1949.3 1025.7,1994.0 996.7,2040.3 964.5,2088.3 928.8,2138.1 889.4,2189.9 845.9,2243.8 798.0,2299.9  A 1064.250,1064.250 0.00 0,0 801.2,2302.7 L 801.2,2302.7 848.9,2246.5 892.2,2192.4 931.4,2140.4 966.9,2090.4 998.9,2042.3 1027.7,1995.9 1053.6,1951.1 1076.7,1907.8 1097.4,1865.9 1115.8,1825.2 1132.0,1785.7 1146.3,1747.2 1158.8,1709.6 1169.7,1672.8 1179.0,1636.5 1186.8,1600.8 1193.3,1565.5 1198.4,1530.4 1202.2,1495.4 1204.8,1460.4 1206.2,1425.2 1206.4,1389.8 1205.2,1353.8 1202.8,1317.4 1198.9,1280.2 1193.7,1242.1 1186.9,1203.1 1178.4,1162.9 1168.2,1121.4 1156.1,1078.5 1141.9,1034.0 1125.4,987.7 1106.4,939.6 1084.8,889.4 1060.3,837.0 1032.6,782.3 1001.5,725.1 966.7,665.3 928.0,602.6  Z" style="stroke-width: 2.0;  stroke: rgb(82,82,82); fill: rgb(53,128,0); opacity: 0.667;" />
<path d="M 927.959,602.561 A 1064.250,1064.250 0.00 0,1 932.0,600.0 L 932.0,600.0 970.9,662.1 1006.5,719.6 1038.9,773.0 1068.4,822.4 1095.0,868.0 1118.9,910.0 1140.3,948.5 1159.1,983.8 1175.6,1016.0 1189.9,1045.2 1201.9,1071.6 1211.9,1095.3 1219.7,1116.5 1225.6,1135.1 1229.5,1151.3 1231.5,1165.3 1231.5,1176.9 1229.7,1186.4 1225.9,1193.7 1220.2,1198.9 1212.6,1202.0 1203.0,1202.9 1191.4,1201.8 1177.7,1198.6 1161.9,1193.2 1143.9,1185.6 1123.6,1175.9 1100.9,1163.8 1075.7,1149.4 1047.9,1132.5 1017.3,1113.1 983.9,1091.1 947.5,1066.3 907.9,1038.6 865.0,1007.9 818.5,974.0 768.3,936.8 714.3,896.0 656.1,851.6  A 1064.250,1064.250 0.00 0,0 653.5,855.0 L 653.5,855.0 711.8,899.2 766.1,939.7 816.4,976.8 863.0,1010.5 906.0,1041.0 945.8,1068.5 982.3,1093.2 1015.8,1115.1 1046.4,1134.4 1074.2,1151.1 1099.5,1165.4 1122.2,1177.4 1142.6,1187.1 1160.6,1194.6 1176.4,1199.9 1190.1,1203.1 1201.7,1204.2 1211.3,1203.2 1218.9,1200.1 1224.6,1194.9 1228.3,1187.6 1230.1,1178.1 1230.0,1166.4 1228.0,1152.5 1224.0,1136.3 1218.0,1117.7 1210.1,1096.6 1200.0,1072.9 1187.9,1046.6 1173.5,1017.4 1156.8,985.3 1137.8,950.1 1116.3,911.7 1092.2,869.8 1065.4,824.3 1035.7,775.1 1003.0,721.9 967.1,664.4 928.0,602.6  Z" style="stroke-width: 2.0;  stroke: rgb(82,82,82); fill: rgb(0,0,204); opacity: 0.667;" />
<path d="M 927.959,602.561 A 1064.250,1064.250 0.00 0,1 932.0,600.0 L 932.0,600.0 970.9,662.0 1006.7,719.5 1039.4,772.6 1069.2,821.7 1096.3,866.8 1120.7,908.3 1142.7,946.3 1162.3,980.9 1179.5,1012.3 1194.6,1040.7 1207.6,1066.1 1218.5,1088.8 1227.5,1108.8 1234.5,1126.2 1239.6,1141.1 1242.9,1153.6 1244.3,1163.7 1244.0,1171.5 1241.8,1177.0 1237.8,1180.2 1232.0,1181.2 1224.3,1179.9 1214.7,1176.4 1203.2,1170.6 1189.7,1162.5 1174.1,1152.0 1156.4,1139.1 1136.5,1123.7 1114.3,1105.7 1089.7,1085.0 1062.5,1061.6 1032.8,1035.2 1000.2,1005.9 964.7,973.3 926.2,937.4 884.4,898.1 839.2,855.0 790.5,808.1 738.0,757.1  A 1064.250,1064.250 0.00 0,0 735.0,760.2 L 735.0,760.2 787.7,810.9 836.6,857.7 882.0,900.6 923.9,939.8 962.6,975.5 998.2,1007.9 1030.9,1037.2 1060.8,1063.4 1088.0,1086.7 1112.7,1107.3 1135.0,1125.2 1154.9,1140.5 1172.7,1153.3 1188.3,1163.8 1201.8,1171.8 1213.3,1177.6 1222.9,1181.1 1230.6,1182.3 1236.4,1181.3 1240.4,1178.1 1242.6,1172.6 1242.9,1164.8 1241.4,1154.7 1238.0,1142.2 1232.8,1127.4 1225.7,1110.0 1216.7,1090.1 1205.7,1067.4 1192.6,1042.0 1177.4,1013.7 1160.0,982.4 1140.2,947.8 1118.1,910.0 1093.5,868.6 1066.2,823.6 1036.1,774.7 1003.2,721.7 967.2,664.4 928.0,602.6  Z" style="stroke-width: 2.0;  stroke: rgb(82,82,82); fill: rgb(102,153,255); opacity: 0.667;" />
<path d="M 984.511,568.926 A 1064.250,1064.250 0.00 0,1 988.3,566.8 L 988.3,566.8 1024.0,630.9 1058.1,689.8 1090.7,743.8 1121.9,793.2 1151.7,838.3 1180.2,879.3 1207.5,916.3 1233.8,949.7 1259.0,979.6 1283.3,1006.2 1306.7,1029.5 1329.3,1049.8 1351.3,1067.3 1372.6,1081.9 1393.4,1093.7 1413.8,1103.0 1433.8,1109.7 1453.4,1113.8 1472.9,1115.4 1492.2,1114.5 1511.4,1111.1 1530.6,1105.3 1549.9,1096.8 1569.3,1085.8 1588.9,1072.0 1608.9,1055.6 1629.1,1036.2 1649.9,1013.9 1671.1,988.5 1692.8,959.9 1715.2,927.9 1738.3,892.2 1762.2,852.8 1786.9,809.4 1812.5,761.9 1839.0,709.8 1866.6,653.0 1895.2,591.3 1925.0,524.3  A 1064.250,1064.250 0.00 0,0 1920.5,522.3 L 1920.5,522.3 1891.0,589.5 1862.6,651.4 1835.3,708.2 1809.0,760.4 1783.7,808.1 1759.2,851.6 1735.5,891.1 1712.6,926.9 1690.4,959.0 1668.7,987.7 1647.6,1013.2 1627.0,1035.6 1606.8,1055.0 1587.0,1071.6 1567.4,1085.4 1548.1,1096.6 1528.8,1105.1 1509.7,1111.1 1490.5,1114.5 1471.2,1115.5 1451.8,1113.9 1432.1,1109.9 1412.1,1103.3 1391.7,1094.2 1370.9,1082.4 1349.5,1067.9 1327.5,1050.5 1304.7,1030.3 1281.2,1007.0 1256.9,980.6 1231.5,950.8 1205.2,917.5 1177.7,880.6 1149.0,839.7 1119.0,794.8 1087.7,745.5 1054.9,691.6 1020.5,632.8 984.5,568.9  Z" style="stroke-width: 2.0;  stroke: rgb(82,82,82); fill: rgb(153,204,255); opacity: 0.667;" />
<path d="M 984.511,568.926 A 1064.250,1064.250 0.00 0,1 988.3,566.8 L 988.3,566.8 1025.0,631.3 1061.7,691.4 1098.4,747.5 1135.0,800.1 1171.3,849.3 1207.3,895.6 1242.8,939.1 1277.9,980.3 1312.4,1019.4 1346.4,1056.6 1379.8,1092.2 1412.7,1126.4 1444.9,1159.5 1476.6,1191.7 1507.8,1223.1 1538.5,1253.9 1568.8,1284.3 1598.7,1314.5 1628.4,1344.6 1657.9,1374.8 1687.4,1405.1 1717.0,1435.6 1746.8,1466.5 1777.0,1497.9 1807.8,1529.7 1839.3,1562.0 1871.7,1594.9 1905.3,1628.5 1940.2,1662.6 1976.7,1697.3 2015.0,1732.7 2055.5,1768.6 2098.4,1805.0 2143.9,1841.9 2192.3,1879.2 2244.1,1916.8 2299.5,1954.7 2358.9,1992.7 2422.5,2030.6  A 1064.250,1064.250 0.00 0,0 2424.9,2026.5 L 2424.9,2026.5 2361.1,1988.8 2301.5,1951.1 2246.0,1913.5 2194.0,1876.1 2145.4,1839.0 2099.7,1802.3 2056.7,1766.1 2016.1,1730.4 1977.6,1695.2 1940.9,1660.6 1905.9,1626.7 1872.2,1593.3 1839.6,1560.5 1808.0,1528.3 1777.1,1496.6 1746.7,1465.4 1716.8,1434.7 1687.1,1404.2 1657.4,1374.1 1627.8,1344.1 1598.0,1314.1 1567.9,1284.0 1537.5,1253.7 1506.7,1223.0 1475.4,1191.7 1443.5,1159.7 1411.1,1126.8 1378.2,1092.7 1344.6,1057.2 1310.5,1020.1 1275.8,981.2 1240.5,940.2 1204.8,896.7 1168.7,850.6 1132.2,801.5 1095.4,749.2 1058.4,693.2 1021.4,633.2 984.5,568.9  Z" style="stroke-width: 2.0;  stroke: rgb(82,82,82); fill: rgb(0,255,255); opacity: 0.667;" />
<path d="M 984.511,568.926 A 1064.250,1064.250 0.00 0,1 988.3,566.8 L 988.3,566.8 1022.9,632.0 1053.6,694.1 1080.9,753.4 1104.9,810.1 1125.9,864.2 1144.3,916.1 1160.1,965.7 1173.6,1013.4 1185.0,1059.2 1194.5,1103.4 1202.3,1146.0 1208.4,1187.3 1213.0,1227.3 1216.2,1266.3 1218.1,1304.4 1218.8,1341.7 1218.3,1378.4 1216.6,1414.6 1213.8,1450.5 1209.9,1486.2 1204.8,1521.8 1198.6,1557.6 1191.1,1593.5 1182.4,1629.8 1172.3,1666.5 1160.7,1703.9 1147.5,1742.0 1132.6,1780.9 1115.8,1820.9 1096.9,1861.9 1075.8,1904.2 1052.2,1947.8 1026.0,1992.8 996.9,2039.4 964.6,2087.7 928.9,2137.8 889.4,2189.8 845.9,2243.8 798.0,2299.9  A 1064.250,1064.250 0.00 0,0 801.2,2302.7 L 801.2,2302.7 848.9,2246.4 892.2,2192.3 931.4,2140.1 967.0,2089.9 999.1,2041.5 1028.0,1994.7 1054.1,1949.6 1077.4,1905.9 1098.4,1863.5 1117.1,1822.4 1133.7,1782.4 1148.5,1743.4 1161.5,1705.2 1172.9,1667.8 1182.9,1631.0 1191.5,1594.7 1198.8,1558.8 1204.9,1523.0 1209.8,1487.4 1213.6,1451.7 1216.2,1415.8 1217.8,1379.6 1218.1,1342.9 1217.3,1305.6 1215.3,1267.5 1211.9,1228.5 1207.1,1188.5 1200.8,1147.2 1192.9,1104.6 1183.3,1060.5 1171.6,1014.7 1157.9,967.1 1141.9,917.5 1123.4,865.8 1102.1,811.7 1077.9,755.1 1050.4,695.9 1019.3,633.9 984.5,568.9  Z" style="stroke-width: 2.0;  stroke: rgb(82,82,82); fill: rgb(204,255,255); opacity: 0.667;" />
<path d="M 984.511,568.926 A 1064.250,1064.250 0.00 0,1 988.3,566.8 L 988.3,566.8 1023.3,631.2 1055.2,690.9 1084.1,746.3 1110.3,797.6 1133.9,844.9 1154.9,888.5 1173.5,928.6 1189.8,965.4 1203.9,998.9 1215.9,1029.4 1225.8,1057.0 1233.8,1081.8 1239.8,1104.0 1243.9,1123.6 1246.2,1140.8 1246.6,1155.6 1245.3,1168.1 1242.1,1178.3 1237.1,1186.3 1230.2,1192.2 1221.5,1195.9 1210.9,1197.5 1198.4,1196.9 1183.8,1194.2 1167.2,1189.4 1148.4,1182.3 1127.5,1173.0 1104.1,1161.3 1078.4,1147.3 1050.1,1130.8 1019.1,1111.7 985.3,1090.0 948.5,1065.5 908.6,1038.0 865.4,1007.5 818.8,973.8 768.5,936.7 714.3,896.0 656.1,851.6  A 1064.250,1064.250 0.00 0,0 653.5,855.0 L 653.5,855.0 711.9,899.2 766.2,939.6 816.6,976.5 863.4,1010.1 906.7,1040.4 946.8,1067.7 983.6,1092.1 1017.5,1113.7 1048.6,1132.6 1077.0,1149.0 1102.8,1162.9 1126.1,1174.5 1147.2,1183.7 1166.0,1190.7 1182.6,1195.5 1197.1,1198.2 1209.7,1198.7 1220.3,1197.0 1229.0,1193.3 1235.8,1187.4 1240.8,1179.3 1243.9,1169.1 1245.2,1156.6 1244.7,1141.8 1242.4,1124.7 1238.2,1105.1 1232.1,1082.9 1224.1,1058.1 1214.0,1030.6 1201.9,1000.1 1187.7,966.6 1171.2,930.0 1152.4,889.9 1131.2,846.4 1107.5,799.2 1081.1,748.0 1051.9,692.7 1019.8,633.1 984.5,568.9  Z" style="stroke-width: 2.0;  stroke: rgb(82,82,82); fill: rgb(153,0,204); opacity: 0.667;" />
<path d="M 984.511,568.926 A 1064.250,1064.250 0.00 0,1 988.3,566.8 L 988.3,566.8 1023.3,631.1 1055.4,690.7 1084.6,745.9 1111.2,796.8 1135.2,843.8 1156.8,886.9 1176.0,926.4 1193.0,962.5 1207.9,995.3 1220.7,1025.0 1231.6,1051.6 1240.5,1075.4 1247.6,1096.5 1252.9,1114.9 1256.4,1130.7 1258.2,1144.0 1258.2,1155.0 1256.5,1163.5 1253.1,1169.7 1247.9,1173.7 1241.0,1175.3 1232.3,1174.6 1221.8,1171.7 1209.4,1166.4 1195.1,1158.8 1178.8,1148.8 1160.4,1136.3 1139.9,1121.3 1117.1,1103.7 1092.0,1083.4 1064.4,1060.3 1034.2,1034.2 1001.2,1005.1 965.5,972.8 926.7,937.1 884.7,897.9 839.4,854.9 790.5,808.0 738.0,757.1  A 1064.250,1064.250 0.00 0,0 735.0,760.2 L 735.0,760.2 787.7,810.9 836.8,857.6 882.3,900.3 924.4,939.4 963.3,974.9 999.2,1007.1 1032.3,1036.1 1062.6,1062.0 1090.3,1085.1 1115.5,1105.3 1138.4,1122.8 1159.0,1137.7 1177.4,1150.1 1193.7,1160.0 1208.1,1167.6 1220.5,1172.8 1231.0,1175.7 1239.7,1176.3 1246.6,1174.7 1251.7,1170.7 1255.1,1164.5 1256.8,1155.9 1256.7,1145.0 1254.9,1131.7 1251.4,1115.9 1246.0,1097.5 1238.8,1076.5 1229.8,1052.7 1218.8,1026.1 1205.9,996.5 1190.8,963.8 1173.7,927.8 1154.3,888.3 1132.5,845.3 1108.4,798.4 1081.6,747.6 1052.1,692.5 1019.8,633.1 984.5,568.9  Z" style="stroke-width: 2.0;  stroke: rgb(82,82,82); fill: rgb(204,51,255); opacity: 0.667;" />
<path d="M 984.511,568.926 A 1064.250,1064.250 0.00 0,1 988.3,566.8 L 988.3,566.8 1023.4,631.1 1055.9,690.4 1085.7,745.2 1113.0,795.6 1138.0,841.8 1160.8,884.1 1181.4,922.6 1200.0,957.6 1216.6,989.1 1231.4,1017.3 1244.3,1042.4 1255.6,1064.4 1265.1,1083.6 1273.1,1099.9 1279.5,1113.5 1284.3,1124.4 1287.6,1132.7 1289.4,1138.5 1289.7,1141.7 1288.6,1142.4 1285.9,1140.5 1281.8,1136.2 1276.1,1129.2 1268.9,1119.7 1260.1,1107.6 1249.7,1092.7 1237.6,1075.0 1223.7,1054.5 1208.1,1031.0 1190.5,1004.4 1171.0,974.6 1149.5,941.4 1125.8,904.7 1099.9,864.3 1071.5,820.0 1040.7,771.7 1007.3,719.0 971.1,661.9 932.0,600.0  A 1064.250,1064.250 0.00 0,0 928.0,602.6 L 928.0,602.6 967.3,664.3 1003.8,721.2 1037.5,773.7 1068.5,821.9 1097.0,866.1 1123.2,906.4 1147.0,943.0 1168.7,976.1 1188.3,1005.8 1206.0,1032.3 1221.8,1055.7 1235.7,1076.2 1247.9,1093.8 1258.4,1108.6 1267.2,1120.7 1274.5,1130.2 1280.2,1137.1 1284.4,1141.5 1287.1,1143.3 1288.2,1142.6 1287.9,1139.4 1286.1,1133.6 1282.7,1125.3 1277.9,1114.4 1271.4,1100.9 1263.4,1084.6 1253.8,1065.4 1242.5,1043.4 1229.4,1018.4 1214.5,990.2 1197.8,958.8 1179.1,923.9 1158.3,885.5 1135.4,843.3 1110.2,797.1 1082.6,746.9 1052.6,692.2 1019.9,633.0 984.5,568.9  Z" style="stroke-width: 2.0;  stroke: rgb(82,82,82); fill: rgb(204,153,255); opacity: 0.667;" />
<path d="M 991.835,564.909 A 1064.250,1064.250 0.00 0,1 995.6,562.9 L 995.6,562.9 1030.9,627.2 1064.5,686.3 1096.7,740.6 1127.4,790.3 1156.8,835.6 1184.9,876.8 1211.9,914.1 1237.8,947.6 1262.7,977.7 1286.7,1004.4 1309.9,1027.9 1332.3,1048.4 1354.0,1066.0 1375.1,1080.7 1395.7,1092.7 1415.9,1102.1 1435.7,1108.8 1455.1,1113.1 1474.4,1114.8 1493.6,1114.0 1512.6,1110.7 1531.7,1104.9 1550.9,1096.5 1570.2,1085.5 1589.7,1071.8 1609.5,1055.4 1629.7,1036.1 1650.4,1013.8 1671.5,988.4 1693.2,959.8 1715.5,927.8 1738.5,892.2 1762.3,852.8 1787.0,809.4 1812.5,761.8 1839.0,709.8 1866.6,653.0 1895.2,591.3 1925.0,524.3  A 1064.250,1064.250 0.00 0,0 1920.5,522.3 L 1920.5,522.3 1891.0,589.5 1862.7,651.4 1835.4,708.2 1809.1,760.4 1783.8,808.1 1759.4,851.6 1735.7,891.1 1712.9,926.8 1690.7,958.9 1669.1,987.7 1648.1,1013.1 1627.6,1035.5 1607.5,1054.9 1587.8,1071.4 1568.3,1085.1 1549.1,1096.2 1530.0,1104.7 1510.9,1110.6 1491.9,1114.0 1472.8,1114.9 1453.5,1113.2 1434.0,1109.1 1414.2,1102.4 1394.0,1093.1 1373.4,1081.2 1352.2,1066.6 1330.4,1049.1 1307.9,1028.7 1284.7,1005.3 1260.6,978.7 1235.6,948.7 1209.5,915.2 1182.4,878.1 1154.1,837.0 1124.5,791.8 1093.6,742.2 1061.2,688.1 1027.3,629.1 991.8,564.9  Z" style="stroke-width: 2.0;  stroke: rgb(82,82,82); fill: rgb(102,102,102); opacity: 0.667;" />
<path d="M 991.835,564.909 A 1064.250,1064.250 0.00 0,1 995.6,562.9 L 995.6,562.9 1031.8,627.6 1068.1,688.0 1104.3,744.4 1140.5,797.2 1176.4,846.6 1211.9,893.1 1247.1,937.0 1281.9,978.4 1316.1,1017.6 1349.8,1055.1 1382.9,1090.9 1415.5,1125.3 1447.5,1158.5 1479.0,1190.8 1509.9,1222.4 1540.4,1253.3 1570.5,1283.9 1600.3,1314.2 1629.8,1344.4 1659.2,1374.6 1688.6,1405.0 1718.0,1435.6 1747.7,1466.6 1777.8,1497.9 1808.5,1529.8 1839.9,1562.1 1872.2,1595.1 1905.7,1628.6 1940.5,1662.7 1977.0,1697.5 2015.3,1732.8 2055.7,1768.7 2098.5,1805.1 2143.9,1842.0 2192.4,1879.3 2244.2,1916.9 2299.5,1954.7 2358.9,1992.7 2422.5,2030.6  A 1064.250,1064.250 0.00 0,0 2424.9,2026.5 L 2424.9,2026.5 2361.1,1988.8 2301.6,1951.1 2246.0,1913.5 2194.1,1876.1 2145.5,1839.1 2099.8,1802.4 2056.9,1766.2 2016.3,1730.5 1977.9,1695.3 1941.3,1660.7 1906.3,1626.8 1872.6,1593.4 1840.2,1560.6 1808.6,1528.4 1777.8,1496.7 1747.6,1465.4 1717.8,1434.6 1688.2,1404.1 1658.7,1373.9 1629.2,1343.8 1599.6,1313.7 1569.7,1283.5 1539.4,1253.1 1508.8,1222.3 1477.7,1190.9 1446.1,1158.7 1414.0,1125.6 1381.3,1091.3 1348.0,1055.7 1314.1,1018.4 1279.7,979.2 1244.8,938.0 1209.5,894.3 1173.7,848.0 1137.6,798.6 1101.3,746.0 1064.8,689.7 1028.3,629.5 991.8,564.9  Z" style="stroke-width: 2.0;  stroke: rgb(82,82,82); fill: rgb(153,153,153); opacity: 0.667;" />
<path d="M 991.835,564.909 A 1064.250,1064.250 0.00 0,1 995.6,562.9 L 995.6,562.9 1029.7,628.3 1060.0,690.7 1086.8,750.2 1110.3,807.1 1131.0,861.4 1148.9,913.5 1164.3,963.3 1177.5,1011.1 1188.6,1057.1 1197.8,1101.4 1205.2,1144.2 1211.0,1185.5 1215.4,1225.7 1218.3,1264.8 1220.0,1303.0 1220.5,1340.4 1219.7,1377.2 1217.9,1413.5 1214.9,1449.4 1210.9,1485.2 1205.7,1520.9 1199.3,1556.7 1191.7,1592.7 1182.9,1629.1 1172.7,1665.9 1161.0,1703.3 1147.8,1741.5 1132.8,1780.5 1115.9,1820.5 1097.0,1861.6 1075.9,1903.9 1052.3,1947.6 1026.1,1992.7 996.9,2039.3 964.6,2087.7 928.9,2137.8 889.4,2189.8 845.9,2243.8 798.0,2299.9  A 1064.250,1064.250 0.00 0,0 801.2,2302.7 L 801.2,2302.7 848.9,2246.4 892.2,2192.2 931.5,2140.1 967.0,2089.8 999.1,2041.4 1028.1,1994.6 1054.1,1949.4 1077.5,1905.6 1098.5,1863.2 1117.2,1822.1 1133.9,1782.0 1148.7,1742.9 1161.8,1704.7 1173.4,1667.2 1183.4,1630.4 1192.1,1594.0 1199.5,1557.9 1205.8,1522.1 1210.8,1486.4 1214.7,1450.6 1217.6,1414.6 1219.3,1378.3 1219.8,1341.5 1219.2,1304.1 1217.4,1265.9 1214.3,1226.9 1209.8,1186.7 1203.8,1145.4 1196.1,1102.6 1186.8,1058.4 1175.5,1012.4 1162.1,964.7 1146.5,914.9 1128.4,862.9 1107.5,808.7 1083.7,751.9 1056.7,692.5 1026.2,630.2 991.8,564.9  Z" style="stroke-width: 2.0;  stroke: rgb(82,82,82); fill: rgb(204,204,204); opacity: 0.667;" />
<path d="M 991.835,564.909 A 1064.250,1064.250 0.00 0,1 995.6,562.9 L 995.6,562.9 1030.1,627.5 1061.5,687.5 1090.1,743.1 1115.8,794.6 1139.0,842.1 1159.6,886.0 1177.9,926.2 1193.8,963.1 1207.6,996.8 1219.3,1027.5 1229.0,1055.2 1236.6,1080.2 1242.4,1102.5 1246.3,1122.2 1248.4,1139.5 1248.6,1154.4 1247.0,1167.0 1243.7,1177.3 1238.5,1185.4 1231.5,1191.4 1222.7,1195.2 1211.9,1196.8 1199.3,1196.3 1184.6,1193.7 1167.9,1188.9 1149.0,1181.9 1128.0,1172.6 1104.6,1161.0 1078.7,1147.0 1050.4,1130.6 1019.3,1111.6 985.5,1089.9 948.6,1065.4 908.7,1037.9 865.5,1007.5 818.8,973.8 768.5,936.7 714.3,896.0 656.1,851.6  A 1064.250,1064.250 0.00 0,0 653.5,855.0 L 653.5,855.0 711.9,899.2 766.2,939.6 816.7,976.5 863.5,1010.0 906.8,1040.3 946.9,1067.6 983.8,1091.9 1017.7,1113.5 1048.9,1132.4 1077.3,1148.7 1103.2,1162.6 1126.6,1174.1 1147.8,1183.3 1166.6,1190.3 1183.4,1195.0 1198.0,1197.6 1210.7,1198.0 1221.4,1196.3 1230.3,1192.5 1237.2,1186.5 1242.4,1178.3 1245.7,1168.0 1247.2,1155.4 1246.9,1140.5 1244.8,1123.3 1240.8,1103.5 1234.9,1081.3 1227.2,1056.3 1217.4,1028.6 1205.6,998.0 1191.7,964.4 1175.5,927.5 1157.1,887.3 1136.3,843.6 1113.0,796.1 1087.0,744.8 1058.2,689.2 1026.6,629.4 991.8,564.9  Z" style="stroke-width: 2.0;  stroke: rgb(82,82,82); fill: rgb(204,204,153); opacity: 0.667;" />
<path d="M 991.835,564.909 A 1064.250,1064.250 0.00 0,1 995.6,562.9 L 995.6,562.9 1030.2,627.4 1061.8,687.3 1090.5,742.7 1116.7,793.9 1140.3,841.0 1161.5,884.3 1180.3,924.1 1197.0,960.3 1211.6,993.3 1224.1,1023.1 1234.7,1049.9 1243.4,1073.8 1250.3,1095.0 1255.3,1113.5 1258.6,1129.4 1260.2,1142.9 1260.0,1153.9 1258.1,1162.5 1254.6,1168.9 1249.2,1172.9 1242.2,1174.6 1233.4,1174.0 1222.7,1171.1 1210.2,1165.9 1195.8,1158.3 1179.4,1148.4 1160.9,1136.0 1140.3,1121.0 1117.5,1103.5 1092.3,1083.2 1064.6,1060.1 1034.3,1034.1 1001.4,1005.0 965.6,972.7 926.7,937.0 884.7,897.8 839.4,854.9 790.5,808.0 738.0,757.1  A 1064.250,1064.250 0.00 0,0 735.0,760.2 L 735.0,760.2 787.7,810.9 836.8,857.6 882.3,900.3 924.4,939.4 963.4,974.9 999.4,1007.0 1032.5,1036.0 1062.8,1061.9 1090.6,1084.9 1115.9,1105.0 1138.8,1122.5 1159.5,1137.3 1178.0,1149.7 1194.4,1159.6 1208.9,1167.1 1221.4,1172.2 1232.1,1175.1 1240.9,1175.6 1247.9,1173.9 1253.2,1169.9 1256.8,1163.5 1258.6,1154.9 1258.7,1143.9 1257.1,1130.4 1253.7,1114.5 1248.6,1096.0 1241.7,1074.9 1232.9,1051.0 1222.2,1024.2 1209.5,994.4 1194.8,961.5 1178.0,925.4 1159.0,885.7 1137.6,842.5 1113.8,795.4 1087.5,744.4 1058.5,689.1 1026.6,629.3 991.8,564.9  Z" style="stroke-width: 2.0;  stroke: rgb(82,82,82); fill: rgb(251,106,74); opacity: 0.667;" />
<path d="M 991.835,564.909 A 1064.250,1064.250 0.00 0,1 995.6,562.9 L 995.6,562.9 1030.3,627.3 1062.2,687.0 1091.6,742.0 1118.5,792.6 1143.1,839.0 1165.5,881.5 1185.8,920.3 1204.0,955.4 1220.3,987.0 1234.8,1015.4 1247.5,1040.6 1258.5,1062.8 1267.8,1082.1 1275.5,1098.6 1281.7,1112.3 1286.3,1123.3 1289.4,1131.7 1291.1,1137.6 1291.2,1140.9 1289.9,1141.6 1287.1,1139.9 1282.9,1135.6 1277.1,1128.7 1269.7,1119.3 1260.8,1107.2 1250.3,1092.3 1238.1,1074.7 1224.2,1054.3 1208.4,1030.8 1190.8,1004.2 1171.3,974.5 1149.7,941.3 1125.9,904.6 1100.0,864.2 1071.6,820.0 1040.7,771.7 1007.3,719.0 971.1,661.9 932.0,600.0  A 1064.250,1064.250 0.00 0,0 928.0,602.6 L 928.0,602.6 967.3,664.3 1003.8,721.2 1037.5,773.7 1068.6,821.9 1097.1,866.0 1123.3,906.3 1147.2,942.9 1169.0,975.9 1188.7,1005.6 1206.4,1032.1 1222.2,1055.5 1236.2,1075.9 1248.5,1093.4 1259.1,1108.2 1268.1,1120.3 1275.5,1129.7 1281.3,1136.5 1285.6,1140.8 1288.4,1142.5 1289.7,1141.8 1289.5,1138.5 1287.9,1132.6 1284.7,1124.2 1280.1,1113.2 1273.9,1099.5 1266.1,1083.1 1256.7,1063.8 1245.6,1041.7 1232.8,1016.5 1218.2,988.2 1201.8,956.6 1183.4,921.5 1163.0,882.9 1140.4,840.5 1115.7,794.1 1088.5,743.6 1058.9,688.7 1026.7,629.2 991.8,564.9  Z" style="stroke-width: 2.0;  stroke: rgb(82,82,82); fill: rgb(116,196,118); opacity: 0.667;" />
<path d="M 991.835,564.909 A 1064.250,1064.250 0.00 0,1 995.6,562.9 L 995.6,562.9 1030.3,627.3 1062.4,686.9 1091.9,741.8 1119.0,792.3 1143.9,838.6 1166.6,880.9 1187.3,919.4 1206.0,954.3 1222.8,985.6 1237.8,1013.7 1251.1,1038.6 1262.7,1060.4 1272.7,1079.3 1281.2,1095.3 1288.2,1108.5 1293.7,1119.0 1297.8,1126.9 1300.4,1132.1 1301.7,1134.8 1301.5,1134.9 1300.0,1132.4 1297.0,1127.3 1292.7,1119.6 1286.8,1109.3 1279.5,1096.2 1270.7,1080.4 1260.4,1061.7 1248.4,1040.1 1234.7,1015.4 1219.4,987.5 1202.2,956.3 1183.1,921.7 1162.1,883.4 1138.9,841.3 1113.6,795.2 1086.0,745.0 1056.0,690.3 1023.5,631.0 988.3,566.8  A 1064.250,1064.250 0.00 0,0 984.5,568.9 L 984.5,568.9 1020.0,633.0 1052.7,692.1 1083.0,746.7 1110.8,796.8 1136.3,842.8 1159.6,884.8 1180.8,922.9 1200.0,957.5 1217.3,988.6 1232.8,1016.4 1246.5,1041.1 1258.6,1062.7 1269.0,1081.3 1277.9,1097.1 1285.2,1110.1 1291.1,1120.4 1295.5,1128.1 1298.5,1133.2 1300.1,1135.7 1300.2,1135.6 1299.0,1132.9 1296.3,1127.7 1292.2,1119.9 1286.6,1109.4 1279.6,1096.2 1271.0,1080.2 1260.9,1061.4 1249.2,1039.6 1235.8,1014.8 1220.7,986.8 1203.7,955.5 1184.9,920.7 1164.1,882.3 1141.2,840.1 1116.2,793.9 1088.8,743.5 1059.1,688.7 1026.8,629.2 991.8,564.9  Z" style="stroke-width: 2.0;  stroke: rgb(82,82,82); fill: rgb(107,174,214); opacity: 0.667;" />
<path d="M 1168.426,488.720 A 1064.250,1064.250 0.00 0,1 1173.0,487.2 L 1173.0,487.2 1195.9,556.8 1218.0,621.1 1239.3,680.2 1259.8,734.4 1279.7,784.1 1298.8,829.5 1317.4,870.7 1335.4,908.0 1352.9,941.6 1370.0,971.7 1386.6,998.3 1402.9,1021.7 1418.9,1042.0 1434.7,1059.3 1450.2,1073.7 1465.7,1085.3 1481.0,1094.1 1496.4,1100.2 1511.8,1103.6 1527.3,1104.3 1542.9,1102.4 1558.8,1097.9 1574.9,1090.6 1591.4,1080.7 1608.3,1067.9 1625.7,1052.2 1643.6,1033.6 1662.1,1011.9 1681.3,987.0 1701.2,958.8 1722.0,927.1 1743.6,891.7 1766.1,852.5 1789.6,809.3 1814.2,761.8 1840.0,709.8 1867.0,653.0 1895.3,591.3 1925.0,524.3  A 1064.250,1064.250 0.00 0,0 1920.5,522.3 L 1920.5,522.3 1891.1,589.5 1863.1,651.3 1836.4,708.2 1810.8,760.3 1786.4,807.9 1763.1,851.3 1740.7,890.6 1719.3,926.0 1698.7,957.8 1678.9,986.2 1659.9,1011.1 1641.5,1032.9 1623.6,1051.6 1606.3,1067.4 1589.5,1080.2 1573.0,1090.3 1556.9,1097.6 1541.1,1102.2 1525.4,1104.2 1510.0,1103.5 1494.6,1100.2 1479.2,1094.1 1463.8,1085.4 1448.3,1073.9 1432.7,1059.6 1416.9,1042.4 1400.8,1022.2 1384.4,998.8 1367.6,972.2 1350.4,942.3 1332.8,908.8 1314.6,871.5 1295.8,830.4 1276.5,785.1 1256.4,735.5 1235.6,681.3 1214.1,622.3 1191.7,558.2 1168.4,488.7  Z" style="stroke-width: 2.0;  stroke: rgb(82,82,82); fill: rgb(253,141,60); opacity: 0.667;" />
<path d="M 1168.426,488.720 A 1064.250,1064.250 0.00 0,1 1173.0,487.2 L 1173.0,487.2 1196.8,557.3 1221.4,623.0 1246.7,684.6 1272.4,742.4 1298.5,796.8 1324.9,848.1 1351.3,896.4 1377.9,942.2 1404.4,985.7 1430.9,1027.1 1457.3,1066.6 1483.5,1104.5 1509.5,1141.0 1535.4,1176.3 1561.2,1210.6 1586.8,1244.1 1612.3,1277.0 1637.9,1309.3 1663.5,1341.3 1689.2,1373.1 1715.2,1404.8 1741.5,1436.5 1768.3,1468.4 1795.7,1500.4 1824.0,1532.7 1853.1,1565.4 1883.4,1598.5 1915.0,1632.0 1948.2,1666.0 1983.2,1700.5 2020.1,1735.5 2059.4,1771.0 2101.2,1807.0 2145.8,1843.4 2193.6,1880.3 2244.8,1917.5 2299.8,1955.0 2358.9,1992.7 2422.5,2030.6  A 1064.250,1064.250 0.00 0,0 2424.9,2026.5 L 2424.9,2026.5 2361.1,1988.9 2301.9,1951.4 2246.7,1914.1 2195.3,1877.2 2147.4,1840.5 2102.6,1804.3 2060.6,1768.5 2021.2,1733.2 1984.1,1698.3 1949.0,1664.0 1915.6,1630.1 1883.8,1596.8 1853.4,1563.8 1824.1,1531.3 1795.7,1499.1 1768.2,1467.2 1741.2,1435.4 1714.8,1403.8 1688.6,1372.3 1662.8,1340.6 1637.0,1308.7 1611.3,1276.5 1585.6,1243.8 1559.9,1210.4 1534.0,1176.2 1507.9,1141.0 1481.7,1104.6 1455.3,1066.8 1428.8,1027.4 1402.1,986.1 1375.4,942.8 1348.6,897.1 1321.9,848.9 1295.4,797.7 1269.0,743.5 1243.0,685.7 1217.5,624.3 1192.6,558.7 1168.4,488.7  Z" style="stroke-width: 2.0;  stroke: rgb(82,82,82); fill: rgb(255,0,0); opacity: 0.667;" />
<path d="M 1168.426,488.720 A 1064.250,1064.250 0.00 0,1 1173.0,487.2 L 1173.0,487.2 1194.6,557.8 1213.1,625.0 1228.6,688.9 1241.5,749.8 1252.0,807.8 1260.3,863.2 1266.6,916.2 1271.2,966.9 1274.1,1015.5 1275.6,1062.3 1275.9,1107.4 1275.0,1151.0 1273.0,1193.2 1270.1,1234.2 1266.3,1274.2 1261.6,1313.4 1256.2,1351.9 1250.0,1389.8 1243.1,1427.4 1235.3,1464.7 1226.8,1502.0 1217.4,1539.2 1207.1,1576.7 1195.9,1614.5 1183.5,1652.8 1169.9,1691.6 1154.9,1731.1 1138.5,1771.5 1120.4,1812.7 1100.4,1855.1 1078.4,1898.6 1054.1,1943.3 1027.3,1989.4 997.7,2037.0 965.1,2086.1 929.1,2136.9 889.5,2189.4 845.9,2243.7 798.0,2299.9  A 1064.250,1064.250 0.00 0,0 801.2,2302.7 L 801.2,2302.7 848.9,2246.3 892.3,2191.8 931.7,2139.2 967.5,2088.3 999.9,2039.0 1029.3,1991.3 1055.9,1945.1 1080.0,1900.3 1101.9,1856.7 1121.7,1814.3 1139.6,1772.9 1155.9,1732.5 1170.6,1692.9 1184.1,1654.1 1196.3,1615.8 1207.4,1577.9 1217.6,1540.4 1226.8,1503.1 1235.1,1465.8 1242.7,1428.5 1249.5,1390.9 1255.5,1352.9 1260.8,1314.4 1265.2,1275.2 1268.9,1235.2 1271.6,1194.2 1273.4,1151.9 1274.1,1108.4 1273.7,1063.3 1271.9,1016.5 1268.8,967.9 1264.0,917.2 1257.4,864.3 1248.9,808.9 1238.2,750.9 1225.0,690.1 1209.2,626.3 1190.4,559.2 1168.4,488.7  Z" style="stroke-width: 2.0;  stroke: rgb(82,82,82); fill: rgb(255,0,204); opacity: 0.667;" />
<path d="M 1168.426,488.720 A 1064.250,1064.250 0.00 0,1 1173.0,487.2 L 1173.0,487.2 1195.1,557.1 1214.9,621.9 1232.5,682.1 1247.9,737.8 1261.4,789.3 1272.9,836.8 1282.6,880.5 1290.5,920.7 1296.7,957.4 1301.2,990.8 1304.2,1021.2 1305.6,1048.6 1305.5,1073.2 1303.9,1095.1 1300.8,1114.4 1296.3,1131.2 1290.2,1145.6 1282.6,1157.7 1273.6,1167.5 1262.9,1175.0 1250.7,1180.2 1236.8,1183.3 1221.2,1184.2 1203.8,1182.8 1184.6,1179.2 1163.4,1173.4 1140.2,1165.2 1114.8,1154.7 1087.2,1141.7 1057.3,1126.1 1024.8,1107.9 989.7,1087.0 951.7,1063.2 910.9,1036.4 866.9,1006.5 819.6,973.2 768.8,936.4 714.4,895.9 656.1,851.6  A 1064.250,1064.250 0.00 0,0 653.5,855.0 L 653.5,855.0 712.0,899.1 766.6,939.4 817.5,975.9 864.9,1009.0 909.0,1038.8 950.0,1065.4 988.0,1089.1 1023.2,1109.9 1055.7,1127.9 1085.8,1143.3 1113.4,1156.2 1138.8,1166.7 1162.0,1174.8 1183.2,1180.5 1202.5,1184.0 1219.8,1185.3 1235.4,1184.4 1249.3,1181.3 1261.5,1176.0 1272.1,1168.4 1281.2,1158.6 1288.7,1146.5 1294.6,1132.1 1299.1,1115.3 1302.1,1096.0 1303.6,1074.0 1303.6,1049.4 1302.1,1022.0 1299.0,991.7 1294.2,958.3 1287.9,921.6 1279.8,881.5 1269.9,837.9 1258.2,790.4 1244.5,739.0 1228.8,683.3 1211.0,623.2 1190.9,558.4 1168.4,488.7  Z" style="stroke-width: 2.0;  stroke: rgb(82,82,82); fill: rgb(255,204,204); opacity: 0.667;" />
<path d="M 1168.426,488.720 A 1064.250,1064.250 0.00 0,1 1173.0,487.2 L 1173.0,487.2 1195.2,557.0 1215.2,621.8 1233.0,681.7 1248.9,737.2 1262.8,788.3 1274.8,835.4 1285.2,878.5 1293.8,918.0 1300.8,954.0 1306.3,986.7 1310.2,1016.2 1312.7,1042.6 1313.7,1066.1 1313.2,1086.8 1311.4,1104.8 1308.2,1120.2 1303.5,1133.1 1297.5,1143.5 1290.0,1151.4 1281.0,1157.0 1270.6,1160.2 1258.6,1161.0 1245.0,1159.4 1229.7,1155.5 1212.8,1149.1 1194.1,1140.3 1173.4,1128.9 1150.8,1115.0 1126.2,1098.4 1099.4,1079.0 1070.2,1056.7 1038.7,1031.4 1004.6,1003.0 967.8,971.3 928.2,936.1 885.5,897.3 839.8,854.6 790.6,808.0 738.0,757.1  A 1064.250,1064.250 0.00 0,0 735.0,760.2 L 735.0,760.2 787.8,810.9 837.1,857.3 883.1,899.8 925.9,938.4 965.7,973.4 1002.6,1005.0 1036.8,1033.3 1068.4,1058.5 1097.6,1080.6 1124.5,1099.9 1149.3,1116.4 1171.9,1130.3 1192.6,1141.5 1211.3,1150.3 1228.3,1156.6 1243.6,1160.5 1257.1,1162.0 1269.1,1161.1 1279.6,1157.9 1288.5,1152.3 1295.9,1144.3 1301.9,1133.9 1306.5,1121.0 1309.7,1105.6 1311.4,1087.6 1311.8,1066.9 1310.6,1043.4 1308.1,1017.0 1304.0,987.5 1298.4,954.9 1291.2,919.0 1282.4,879.5 1271.9,836.4 1259.6,789.4 1245.4,738.3 1229.4,683.0 1211.2,623.1 1191.0,558.4 1168.4,488.7  Z" style="stroke-width: 2.0;  stroke: rgb(82,82,82); fill: rgb(255,153,0); opacity: 0.667;" />
<path d="M 1168.426,488.720 A 1064.250,1064.250 0.00 0,1 1173.0,487.2 L 1173.0,487.2 1195.3,557.0 1215.7,621.5 1234.1,681.1 1250.8,736.1 1265.8,786.6 1279.1,832.9 1290.8,875.1 1301.1,913.6 1309.9,948.4 1317.3,979.7 1323.4,1007.7 1328.2,1032.4 1331.7,1054.1 1334.0,1072.8 1335.1,1088.7 1334.9,1101.7 1333.6,1112.0 1331.1,1119.6 1327.3,1124.5 1322.4,1126.8 1316.2,1126.5 1308.7,1123.6 1299.9,1118.1 1289.8,1109.8 1278.4,1098.9 1265.5,1085.1 1251.1,1068.5 1235.1,1049.0 1217.6,1026.4 1198.3,1000.6 1177.2,971.5 1154.3,939.0 1129.3,902.9 1102.3,863.0 1073.1,819.2 1041.6,771.2 1007.7,718.8 971.2,661.8 932.0,600.0  A 1064.250,1064.250 0.00 0,0 928.0,602.6 L 928.0,602.6 967.4,664.2 1004.2,721.0 1038.4,773.3 1070.1,821.1 1099.5,864.8 1126.7,904.6 1151.8,940.6 1174.9,973.0 1196.1,1002.0 1215.4,1027.6 1233.1,1050.2 1249.2,1069.6 1263.6,1086.2 1276.6,1099.9 1288.1,1110.8 1298.2,1119.0 1307.0,1124.5 1314.5,1127.4 1320.7,1127.6 1325.6,1125.3 1329.4,1120.3 1331.9,1112.7 1333.2,1102.4 1333.2,1089.4 1332.1,1073.6 1329.7,1054.9 1326.1,1033.2 1321.2,1008.4 1315.0,980.5 1307.4,949.2 1298.5,914.5 1288.0,876.1 1276.1,833.9 1262.6,787.6 1247.4,737.2 1230.5,682.3 1211.7,622.8 1191.1,558.3 1168.4,488.7  Z" style="stroke-width: 2.0;  stroke: rgb(82,82,82); fill: rgb(255,204,0); opacity: 0.667;" />
<path d="M 1168.426,488.720 A 1064.250,1064.250 0.00 0,1 1173.0,487.2 L 1173.0,487.2 1195.3,556.9 1215.8,621.4 1234.4,681.0 1251.3,735.8 1266.6,786.2 1280.2,832.3 1292.4,874.4 1303.1,912.6 1312.4,947.1 1320.4,978.1 1327.1,1005.8 1332.5,1030.2 1336.8,1051.5 1339.8,1069.8 1341.7,1085.2 1342.5,1097.7 1342.1,1107.4 1340.6,1114.4 1337.9,1118.8 1334.1,1120.4 1329.2,1119.4 1323.0,1115.7 1315.7,1109.2 1307.1,1100.1 1297.2,1088.2 1286.0,1073.4 1273.4,1055.7 1259.4,1035.0 1243.9,1011.1 1226.9,984.0 1208.2,953.5 1187.7,919.5 1165.5,881.8 1141.3,840.2 1115.2,794.5 1086.9,744.6 1056.4,690.1 1023.6,631.0 988.3,566.8  A 1064.250,1064.250 0.00 0,0 984.5,568.9 L 984.5,568.9 1020.1,632.9 1053.1,691.9 1083.9,746.2 1112.3,796.1 1138.7,841.6 1163.0,883.1 1185.4,920.8 1205.9,954.7 1224.8,985.1 1241.9,1012.2 1257.5,1035.9 1271.6,1056.6 1284.2,1074.3 1295.5,1089.0 1305.4,1100.9 1314.0,1110.0 1321.4,1116.4 1327.5,1120.1 1332.5,1121.1 1336.3,1119.4 1338.9,1115.1 1340.4,1108.1 1340.7,1098.4 1339.9,1085.8 1338.0,1070.5 1334.8,1052.2 1330.5,1031.0 1324.9,1006.6 1318.1,978.9 1309.9,948.0 1300.5,913.5 1289.6,875.3 1277.2,833.3 1263.4,787.2 1247.9,736.9 1230.8,682.2 1211.9,622.7 1191.1,558.3 1168.4,488.7  Z" style="stroke-width: 2.0;  stroke: rgb(82,82,82); fill: rgb(255,255,0); opacity: 0.667;" />
<path d="M 1168.426,488.720 A 1064.250,1064.250 0.00 0,1 1173.0,487.2 L 1173.0,487.2 1195.3,556.9 1215.8,621.4 1234.5,681.0 1251.4,735.8 1266.7,786.1 1280.4,832.2 1292.6,874.3 1303.3,912.5 1312.7,947.0 1320.8,978.0 1327.6,1005.6 1333.1,1029.9 1337.4,1051.2 1340.6,1069.4 1342.6,1084.7 1343.5,1097.2 1343.2,1106.9 1341.8,1113.8 1339.3,1118.1 1335.6,1119.6 1330.8,1118.5 1324.9,1114.7 1317.7,1108.2 1309.3,1098.9 1299.7,1086.9 1288.7,1072.0 1276.4,1054.1 1262.6,1033.3 1247.4,1009.3 1230.6,982.0 1212.2,951.3 1192.1,917.1 1170.2,879.2 1146.4,837.4 1120.7,791.5 1092.8,741.4 1062.8,686.7 1030.4,627.3 995.6,562.9  A 1064.250,1064.250 0.00 0,0 991.8,564.9 L 991.8,564.9 1026.9,629.2 1059.5,688.5 1089.7,743.0 1117.8,793.1 1143.7,838.9 1167.7,880.6 1189.7,918.4 1210.0,952.5 1228.5,983.1 1245.4,1010.3 1260.7,1034.2 1274.5,1055.1 1286.9,1072.9 1297.9,1087.7 1307.6,1099.7 1316.1,1108.9 1323.3,1115.4 1329.2,1119.2 1334.0,1120.3 1337.7,1118.7 1340.2,1114.5 1341.5,1107.5 1341.7,1097.9 1340.8,1085.4 1338.7,1070.1 1335.5,1051.9 1331.0,1030.7 1325.4,1006.3 1318.5,978.8 1310.3,947.8 1300.7,913.4 1289.8,875.2 1277.4,833.2 1263.5,787.2 1248.0,736.9 1230.8,682.2 1211.9,622.7 1191.1,558.3 1168.4,488.7  Z" style="stroke-width: 2.0;  stroke: rgb(82,82,82); fill: rgb(204,255,0); opacity: 0.667;" />
<path d="M 874.231,2360.838 A 1064.250,1064.250 0.00 0,1 846.9,2340.3 L 846.9,2340.3 892.3,2282.7 935.3,2230.0 976.1,2181.8 1014.7,2137.9 1051.2,2098.1 1085.9,2062.2 1118.7,2029.9 1149.9,2001.1 1179.5,1975.6 1207.7,1953.3 1234.5,1933.9 1260.1,1917.4 1284.5,1903.7 1307.9,1892.7 1330.3,1884.2 1351.8,1878.3 1372.6,1874.9 1392.6,1874.0 1412.0,1875.5 1430.9,1879.4 1449.3,1885.8 1467.3,1894.7 1485.0,1906.1 1502.4,1920.1 1519.6,1936.7 1536.6,1956.2 1553.5,1978.5 1570.4,2003.8 1587.3,2032.2 1604.2,2064.0 1621.2,2099.2 1638.3,2138.0 1655.5,2180.7 1673.0,2227.5 1690.6,2278.6 1708.5,2334.2 1726.6,2394.6 1745.1,2460.1 1763.8,2531.0  A 1064.250,1064.250 0.00 0,0 1796.7,2522.0 L 1796.7,2522.0 1775.8,2451.8 1755.2,2386.9 1735.2,2327.1 1715.5,2272.0 1696.2,2221.6 1677.3,2175.4 1658.7,2133.3 1640.3,2095.0 1622.2,2060.3 1604.3,2029.2 1586.5,2001.3 1568.9,1976.5 1551.2,1954.8 1533.6,1935.9 1515.9,1919.8 1498.0,1906.3 1480.0,1895.5 1461.7,1887.2 1443.1,1881.4 1424.1,1878.1 1404.7,1877.2 1384.7,1878.8 1364.0,1882.9 1342.7,1889.5 1320.6,1898.7 1297.6,1910.4 1273.6,1924.9 1248.6,1942.2 1222.4,1962.4 1195.0,1985.7 1166.2,2012.1 1136.0,2041.9 1104.2,2075.2 1070.7,2112.3 1035.4,2153.2 998.3,2198.3 959.1,2247.8 917.8,2301.8 874.2,2360.8  Z" style="stroke-width: 2.0;  stroke: rgb(82,82,82); fill: rgb(0,255,0); opacity: 0.667;" />
<path d="M 1852.322,495.760 A 1064.250,1064.250 0.00 0,1 1860.6,498.7 L 1860.6,498.7 1835.6,567.5 1812.2,631.0 1790.1,689.4 1769.5,743.1 1750.1,792.1 1732.0,836.8 1715.1,877.4 1699.2,914.0 1684.4,946.9 1670.5,976.1 1657.6,1001.9 1645.5,1024.3 1634.3,1043.6 1623.8,1059.7 1614.1,1072.8 1605.1,1082.9 1596.7,1090.2 1588.9,1094.5 1581.8,1096.1 1575.2,1094.8 1569.1,1090.7 1563.5,1083.7 1558.5,1073.9 1553.9,1061.1 1549.8,1045.3 1546.1,1026.5 1542.9,1004.4 1540.1,979.1 1537.7,950.4 1535.8,918.1 1534.4,882.1 1533.3,842.2 1532.8,798.2 1532.7,749.9 1533.1,697.2 1534.0,639.8 1535.4,577.3 1537.4,509.7 1539.9,436.5  A 1064.250,1064.250 0.00 0,0 1531.2,436.2 L 1531.2,436.2 1529.2,509.4 1527.8,577.1 1526.9,639.5 1526.4,697.0 1526.5,749.7 1527.0,797.9 1527.9,841.9 1529.3,881.8 1531.0,917.8 1533.2,950.1 1535.8,978.8 1538.8,1004.1 1542.2,1026.1 1546.0,1044.9 1550.3,1060.7 1555.0,1073.4 1560.1,1083.2 1565.7,1090.1 1571.8,1094.2 1578.4,1095.4 1585.6,1093.8 1593.3,1089.4 1601.6,1082.1 1610.6,1071.9 1620.2,1058.7 1630.5,1042.5 1641.6,1023.2 1653.5,1000.6 1666.2,974.7 1679.8,945.4 1694.3,912.4 1709.9,875.6 1726.5,834.9 1744.3,790.1 1763.2,740.9 1783.4,687.1 1805.0,628.5 1827.9,564.8 1852.3,495.8  Z" style="stroke-width: 2.0;  stroke: rgb(82,82,82); fill: rgb(53,128,0); opacity: 0.667;" />
<path d="M 1068.516,527.144 A 1064.250,1064.250 0.00 0,1 1072.3,525.5 L 1072.3,525.5 1101.7,592.5 1128.9,654.4 1153.9,711.5 1177.0,764.1 1198.1,812.2 1217.3,856.2 1234.9,896.2 1250.7,932.4 1265.0,965.0 1277.7,994.2 1289.0,1020.0 1298.9,1042.7 1307.5,1062.3 1314.7,1078.9 1320.6,1092.6 1325.3,1103.5 1328.8,1111.7 1331.1,1117.1 1332.2,1119.8 1332.1,1119.8 1330.8,1117.2 1328.4,1111.9 1324.7,1103.8 1319.8,1093.0 1313.7,1079.4 1306.3,1062.8 1297.5,1043.3 1287.4,1020.8 1275.9,995.0 1263.0,965.9 1248.5,933.4 1232.4,897.3 1214.6,857.4 1195.1,813.5 1173.8,765.5 1150.5,713.1 1125.1,656.1 1097.7,594.3 1067.9,527.4  A 1064.250,1064.250 0.00 0,0 1064.2,529.1 L 1064.2,529.1 1094.1,595.9 1121.9,657.6 1147.4,714.5 1170.9,766.7 1192.4,814.7 1212.1,858.5 1230.0,898.3 1246.3,934.4 1260.9,966.9 1274.0,995.9 1285.6,1021.6 1295.8,1044.1 1304.6,1063.6 1312.0,1080.1 1318.2,1093.7 1323.1,1104.5 1326.8,1112.5 1329.3,1117.9 1330.6,1120.5 1330.7,1120.5 1329.6,1117.7 1327.3,1112.3 1323.8,1104.2 1319.0,1093.3 1313.0,1079.6 1305.8,1063.1 1297.1,1043.5 1287.2,1020.9 1275.8,995.1 1262.9,966.0 1248.5,933.4 1232.5,897.2 1214.8,857.3 1195.4,813.4 1174.1,765.3 1150.9,712.9 1125.6,655.9 1098.2,594.1 1068.5,527.1  Z" style="stroke-width: 2.0;  stroke: rgb(82,82,82); fill: rgb(0,0,204); opacity: 0.667;" />
</g>
<defs>
<pattern id="hline-sparse" width="10" height="10" patternTransform="rotate(0 0 0)" patternUnits="userSpaceOnUse"><line x1="0" y1="0" x2="10" y2="0" style="stroke:black;stroke-width:2" /></pattern>
<pattern id="checker" width="10" height="10" patternTransform="rotate(45 0 0)" patternUnits="userSpaceOnUse"><line x1="0" y1="0" x2="10" y2="0" style="stroke:black;stroke-width:2" /><line x1="0" y1="0" x2="0" y2="10" style="stroke:black;stroke-width:2" /></pattern>
<pattern id="checker" width="10" height="10" patternTransform="rotate(45 0 0)" patternUnits="userSpaceOnUse"><line x1="0" y1="0" x2="10" y2="0" style="stroke:black;stroke-width:5" /><line x1="0" y1="0" x2="0" y2="10" style="stroke:black;stroke-width:4" /></pattern>
<pattern id="hline" width="10" height="10" patternTransform="rotate(0 0 0)" patternUnits="userSpaceOnUse"><line x1="0" y1="0" x2="10" y2="0" style="stroke:black;stroke-width:5" /></pattern>
<pattern id="vline-sparse" width="10" height="10" patternTransform="rotate(0 0 0)" patternUnits="userSpaceOnUse"><line x1="0" y1="0" x2="0" y2="10" style="stroke:black;stroke-width:2" /></pattern>
<pattern id="vline" width="10" height="10" patternTransform="rotate(0 0 0)" patternUnits="userSpaceOnUse"><line x1="0" y1="0" x2="0" y2="10" style="stroke:black;stroke-width:5" /></pattern>
</defs>
</svg>
