<?xml version="1.0" encoding="utf-8" standalone="no"?>
<!DOCTYPE svg PUBLIC "-//W3C//DTD SVG 1.1//EN" "http://www.w3.org/Graphics/SVG/1.1/DTD/svg11.dtd">
<svg width="3000px" height="3000px" version="1.1" xmlns="http://www.w3.org/2000/svg" xmlns:xlink="http://www.w3.org/1999/xlink">
<g id="ideograms">
<path d="M1500.000,425.000 A1075.000,1075.000 40.000 0,1 1820.930,474.023 L1835.857,426.303 A1125.000,1125.000 0.000 0,0 1500.000,375.000 Z" style="stroke-linecap:round;fill:rgb(116,196,118);fill-opacity:0.33;" />
<text x="1692.9" y="300.4" font-size="18.2px" font-family="CMUBright-Roman" style="text-anchor:start;fill:rgb(0,0,0);" transform="rotate(278.7,1692.9,300.4)" >R<tspan baseline-shift="-40%" font-size="90%">s</tspan>caffold<tspan baseline-shift="-40%" font-size="90%">7</tspan></text>
<line x1='1500.0' y1='375.0' x2='1500.0' y2='355.0' style="stroke-width:4.0;stroke:rgb(0,0,0);stroke-linecap:round;fill:none;" />
<text x="1506.5" y="345.0" font-size="18.2px" font-family="CMUBright-Roman" style="text-anchor:start;fill:rgb(0,0,0);" transform="rotate(270.0,1506.5,345.0)" >0</text>
<line x1='1573.6' y1='377.4' x2='1574.9' y2='357.5' style="stroke-width:4.0;stroke:rgb(0,0,0);stroke-linecap:round;fill:none;" />
<text x="1582.0" y="347.9" font-size="18.2px" font-family="CMUBright-Roman" style="text-anchor:start;fill:rgb(0,0,0);" transform="rotate(273.8,1582.0,347.9)" >50</text>
<line x1='1646.9' y1='384.6' x2='1649.5' y2='364.8' style="stroke-width:4.0;stroke:rgb(0,0,0);stroke-linecap:round;fill:none;" />
<text x="1657.2" y="355.7" font-size="18.2px" font-family="CMUBright-Roman" style="text-anchor:start;fill:rgb(0,0,0);" transform="rotate(277.5,1657.2,355.7)" >100</text>
<line x1='1719.5' y1='396.6' x2='1723.4' y2='377.0' style="stroke-width:4.0;stroke:rgb(0,0,0);stroke-linecap:round;fill:none;" />
<text x="1731.7" y="368.5" font-size="18.2px" font-family="CMUBright-Roman" style="text-anchor:start;fill:rgb(0,0,0);" transform="rotate(281.3,1731.7,368.5)" >150</text>
<line x1='1791.2' y1='413.3' x2='1796.4' y2='394.0' style="stroke-width:4.0;stroke:rgb(0,0,0);stroke-linecap:round;fill:none;" />
<text x="1805.2" y="386.1" font-size="18.2px" font-family="CMUBright-Roman" style="text-anchor:start;fill:rgb(0,0,0);" transform="rotate(285.0,1805.2,386.1)" >200</text>
<g id="highlighttrack_0">
<path d="M1534.440,425.552 A1075.000,1075.000 40.000 0,1 1544.129,425.906 L1546.182,375.948 A1125.000,1125.000 0.000 0,0 1536.041,375.577 Z" style="stroke-width:4.0;stroke:rgb(0,0,0);stroke-linecap:round;fill:rgb(116,196,118);" />
</g>
<path d="M1881.145,494.837 A1075.000,1075.000 40.000 0,1 1913.704,507.793 L1932.946,461.644 A1125.000,1125.000 0.000 0,0 1898.873,448.085 Z" style="stroke-linecap:round;fill:rgb(116,196,118);fill-opacity:0.33;" />
<text x="1958.1" y="374.7" font-size="18.2px" font-family="CMUBright-Roman" style="text-anchor:start;fill:rgb(0,0,0);" transform="rotate(291.7,1958.1,374.7)" >R<tspan baseline-shift="-40%" font-size="90%">s</tspan>caffold<tspan baseline-shift="-40%" font-size="90%">2</tspan>1</text>
<line x1='1898.9' y1='448.1' x2='1906.0' y2='429.4' style="stroke-width:4.0;stroke:rgb(0,0,0);stroke-linecap:round;fill:none;" />
<text x="1915.6" y="422.4" font-size="18.2px" font-family="CMUBright-Roman" style="text-anchor:start;fill:rgb(0,0,0);" transform="rotate(290.8,1915.6,422.4)" >0</text>
<g id="highlighttrack_0">
<path d="M1907.059,505.049 A1075.000,1075.000 40.000 0,1 1910.517,506.471 L1929.611,460.260 A1125.000,1125.000 0.000 0,0 1925.992,458.772 Z" style="stroke-width:4.0;stroke:rgb(0,0,0);stroke-linecap:round;fill:rgb(116,196,118);" />
</g>
<path d="M1971.757,534.044 A1075.000,1075.000 40.000 0,1 1980.486,538.357 L2002.834,493.629 A1125.000,1125.000 0.000 0,0 1993.699,489.116 Z" style="stroke-linecap:round;fill:rgb(116,196,118);fill-opacity:0.33;" />
<text x="2046.6" y="414.9" font-size="18.2px" font-family="CMUBright-Roman" style="text-anchor:start;fill:rgb(0,0,0);" transform="rotate(296.3,2046.6,414.9)" >R<tspan baseline-shift="-40%" font-size="90%">s</tspan>caffold<tspan baseline-shift="-40%" font-size="90%">2</tspan>8</text>
<line x1='1993.7' y1='489.1' x2='2002.5' y2='471.1' style="stroke-width:4.0;stroke:rgb(0,0,0);stroke-linecap:round;fill:none;" />
<text x="2012.7" y="465.0" font-size="18.2px" font-family="CMUBright-Roman" style="text-anchor:start;fill:rgb(0,0,0);" transform="rotate(296.0,2012.7,465.0)" >0</text>
<g id="highlighttrack_0">
<path d="M1971.764,534.048 A1075.000,1075.000 40.000 0,1 1980.486,538.357 L2002.834,493.629 A1125.000,1125.000 0.000 0,0 1993.707,489.120 Z" style="stroke-width:4.0;stroke:rgb(0,0,0);stroke-linecap:round;fill:rgb(116,196,118);" />
</g>
<path d="M2036.611,568.510 A1075.000,1075.000 40.000 0,1 2041.392,571.281 L2066.573,528.084 A1125.000,1125.000 0.000 0,0 2061.569,525.185 Z" style="stroke-linecap:round;fill:rgb(116,196,118);fill-opacity:0.33;" />
<text x="2117.4" y="453.6" font-size="18.2px" font-family="CMUBright-Roman" style="text-anchor:start;fill:rgb(0,0,0);" transform="rotate(300.1,2117.4,453.6)" >R<tspan baseline-shift="-40%" font-size="90%">s</tspan>caffold<tspan baseline-shift="-40%" font-size="90%">3</tspan>0</text>
<line x1='2061.6' y1='525.2' x2='2071.6' y2='507.9' style="stroke-width:4.0;stroke:rgb(0,0,0);stroke-linecap:round;fill:none;" />
<text x="2082.2" y="502.5" font-size="18.2px" font-family="CMUBright-Roman" style="text-anchor:start;fill:rgb(0,0,0);" transform="rotate(299.9,2082.2,502.5)" >0</text>
<g id="highlighttrack_0">
<path d="M2036.612,568.511 A1075.000,1075.000 40.000 0,1 2040.481,570.750 L2065.620,527.529 A1125.000,1125.000 0.000 0,0 2061.571,525.185 Z" style="stroke-width:4.0;stroke:rgb(0,0,0);stroke-linecap:round;fill:rgb(116,196,118);" />
</g>
<path d="M2095.459,604.984 A1075.000,1075.000 40.000 1,1 1060.114,519.120 L1039.654,473.498 A1125.000,1125.000 0.000 1,0 2123.155,563.356 Z" style="stroke-linecap:round;fill:rgb(116,196,118);fill-opacity:0.33;" />
<text x="1409.1" y="2711.6" font-size="18.2px" font-family="CMUBright-Roman" style="text-anchor:end;fill:rgb(0,0,0);" transform="rotate(-85.3,1409.1,2711.6)" >NZ<tspan baseline-shift="-40%" font-size="90%">C</tspan>P050313.1</text>
<line x1='2123.2' y1='563.4' x2='2134.2' y2='546.7' style="stroke-width:4.0;stroke:rgb(0,0,0);stroke-linecap:round;fill:none;" />
<text x="2145.2" y="542.0" font-size="18.2px" font-family="CMUBright-Roman" style="text-anchor:start;fill:rgb(0,0,0);" transform="rotate(303.6,2145.2,542.0)" >0</text>
<line x1='2183.1' y1='606.1' x2='2195.2' y2='590.2' style="stroke-width:4.0;stroke:rgb(0,0,0);stroke-linecap:round;fill:none;" />
<text x="2206.5" y="586.2" font-size="18.2px" font-family="CMUBright-Roman" style="text-anchor:start;fill:rgb(0,0,0);" transform="rotate(307.4,2206.5,586.2)" >50</text>
<line x1='2240.1' y1='652.7' x2='2253.2' y2='637.6' style="stroke-width:4.0;stroke:rgb(0,0,0);stroke-linecap:round;fill:none;" />
<text x="2264.7" y="634.4" font-size="18.2px" font-family="CMUBright-Roman" style="text-anchor:start;fill:rgb(0,0,0);" transform="rotate(311.1,2264.7,634.4)" >100</text>
<line x1='2293.9' y1='702.9' x2='2308.0' y2='688.8' style="stroke-width:4.0;stroke:rgb(0,0,0);stroke-linecap:round;fill:none;" />
<text x="2319.7" y="686.3" font-size="18.2px" font-family="CMUBright-Roman" style="text-anchor:start;fill:rgb(0,0,0);" transform="rotate(314.9,2319.7,686.3)" >150</text>
<line x1='2344.4' y1='756.6' x2='2359.4' y2='743.4' style="stroke-width:4.0;stroke:rgb(0,0,0);stroke-linecap:round;fill:none;" />
<text x="2371.2" y="741.6" font-size="18.2px" font-family="CMUBright-Roman" style="text-anchor:start;fill:rgb(0,0,0);" transform="rotate(318.6,2371.2,741.6)" >200</text>
<line x1='2391.2' y1='813.4' x2='2407.0' y2='801.2' style="stroke-width:4.0;stroke:rgb(0,0,0);stroke-linecap:round;fill:none;" />
<text x="2418.9" y="800.2" font-size="18.2px" font-family="CMUBright-Roman" style="text-anchor:start;fill:rgb(0,0,0);" transform="rotate(322.4,2418.9,800.2)" >250</text>
<line x1='2434.2' y1='873.1' x2='2450.8' y2='862.0' style="stroke-width:4.0;stroke:rgb(0,0,0);stroke-linecap:round;fill:none;" />
<text x="2462.7" y="861.8" font-size="18.2px" font-family="CMUBright-Roman" style="text-anchor:start;fill:rgb(0,0,0);" transform="rotate(326.1,2462.7,861.8)" >300</text>
<line x1='2473.2' y1='935.6' x2='2490.5' y2='925.6' style="stroke-width:4.0;stroke:rgb(0,0,0);stroke-linecap:round;fill:none;" />
<text x="2502.4" y="926.2" font-size="18.2px" font-family="CMUBright-Roman" style="text-anchor:start;fill:rgb(0,0,0);" transform="rotate(329.9,2502.4,926.2)" >350</text>
<line x1='2508.0' y1='1000.5' x2='2525.9' y2='991.6' style="stroke-width:4.0;stroke:rgb(0,0,0);stroke-linecap:round;fill:none;" />
<text x="2537.8" y="993.0" font-size="18.2px" font-family="CMUBright-Roman" style="text-anchor:start;fill:rgb(0,0,0);" transform="rotate(333.6,2537.8,993.0)" >400</text>
<line x1='2538.5' y1='1067.5' x2='2557.0' y2='1059.8' style="stroke-width:4.0;stroke:rgb(0,0,0);stroke-linecap:round;fill:none;" />
<text x="2568.7" y="1061.9" font-size="18.2px" font-family="CMUBright-Roman" style="text-anchor:start;fill:rgb(0,0,0);" transform="rotate(337.4,2568.7,1061.9)" >450</text>
<line x1='2564.6' y1='1136.3' x2='2583.5' y2='1129.8' style="stroke-width:4.0;stroke:rgb(0,0,0);stroke-linecap:round;fill:none;" />
<text x="2595.1" y="1132.8" font-size="18.2px" font-family="CMUBright-Roman" style="text-anchor:start;fill:rgb(0,0,0);" transform="rotate(341.1,2595.1,1132.8)" >500</text>
<line x1='2586.1' y1='1206.7' x2='2605.4' y2='1201.5' style="stroke-width:4.0;stroke:rgb(0,0,0);stroke-linecap:round;fill:none;" />
<text x="2616.7" y="1205.2" font-size="18.2px" font-family="CMUBright-Roman" style="text-anchor:start;fill:rgb(0,0,0);" transform="rotate(344.9,2616.7,1205.2)" >550</text>
<line x1='2603.0' y1='1278.4' x2='2622.6' y2='1274.4' style="stroke-width:4.0;stroke:rgb(0,0,0);stroke-linecap:round;fill:none;" />
<text x="2633.6" y="1278.8" font-size="18.2px" font-family="CMUBright-Roman" style="text-anchor:start;fill:rgb(0,0,0);" transform="rotate(348.6,2633.6,1278.8)" >600</text>
<line x1='2615.1' y1='1351.0' x2='2634.9' y2='1348.4' style="stroke-width:4.0;stroke:rgb(0,0,0);stroke-linecap:round;fill:none;" />
<text x="2645.7" y="1353.5" font-size="18.2px" font-family="CMUBright-Roman" style="text-anchor:start;fill:rgb(0,0,0);" transform="rotate(352.4,2645.7,1353.5)" >650</text>
<line x1='2622.4' y1='1424.3' x2='2642.4' y2='1422.9' style="stroke-width:4.0;stroke:rgb(0,0,0);stroke-linecap:round;fill:none;" />
<text x="2652.8" y="1428.7" font-size="18.2px" font-family="CMUBright-Roman" style="text-anchor:start;fill:rgb(0,0,0);" transform="rotate(356.1,2652.8,1428.7)" >700</text>
<line x1='2625.0' y1='1497.8' x2='2645.0' y2='1497.8' style="stroke-width:4.0;stroke:rgb(0,0,0);stroke-linecap:round;fill:none;" />
<text x="2655.0" y="1504.3" font-size="18.2px" font-family="CMUBright-Roman" style="text-anchor:start;fill:rgb(0,0,0);" transform="rotate(359.9,2655.0,1504.3)" >750</text>
<line x1='2622.7' y1='1571.4' x2='2642.7' y2='1572.7' style="stroke-width:4.0;stroke:rgb(0,0,0);stroke-linecap:round;fill:none;" />
<text x="2652.2" y="1579.8" font-size="18.2px" font-family="CMUBright-Roman" style="text-anchor:start;fill:rgb(0,0,0);" transform="rotate(3.6,2652.2,1579.8)" >800</text>
<line x1='2615.7' y1='1644.7' x2='2635.5' y2='1647.3' style="stroke-width:4.0;stroke:rgb(0,0,0);stroke-linecap:round;fill:none;" />
<text x="2644.6" y="1655.0" font-size="18.2px" font-family="CMUBright-Roman" style="text-anchor:start;fill:rgb(0,0,0);" transform="rotate(7.4,2644.6,1655.0)" >850</text>
<line x1='2603.8' y1='1717.4' x2='2623.4' y2='1721.2' style="stroke-width:4.0;stroke:rgb(0,0,0);stroke-linecap:round;fill:none;" />
<text x="2632.0" y="1729.5" font-size="18.2px" font-family="CMUBright-Roman" style="text-anchor:start;fill:rgb(0,0,0);" transform="rotate(11.1,2632.0,1729.5)" >900</text>
<line x1='2587.2' y1='1789.1' x2='2606.5' y2='1794.2' style="stroke-width:4.0;stroke:rgb(0,0,0);stroke-linecap:round;fill:none;" />
<text x="2614.5" y="1803.1" font-size="18.2px" font-family="CMUBright-Roman" style="text-anchor:start;fill:rgb(0,0,0);" transform="rotate(14.9,2614.5,1803.1)" >950</text>
<line x1='2566.0' y1='1859.6' x2='2584.9' y2='1866.0' style="stroke-width:4.0;stroke:rgb(0,0,0);stroke-linecap:round;fill:none;" />
<text x="2592.3" y="1875.3" font-size="18.2px" font-family="CMUBright-Roman" style="text-anchor:start;fill:rgb(0,0,0);" transform="rotate(18.6,2592.3,1875.3)" >1000</text>
<line x1='2540.2' y1='1928.5' x2='2558.7' y2='1936.2' style="stroke-width:4.0;stroke:rgb(0,0,0);stroke-linecap:round;fill:none;" />
<text x="2565.4" y="1946.0" font-size="18.2px" font-family="CMUBright-Roman" style="text-anchor:start;fill:rgb(0,0,0);" transform="rotate(22.4,2565.4,1946.0)" >1050</text>
<line x1='2509.9' y1='1995.7' x2='2527.9' y2='2004.5' style="stroke-width:4.0;stroke:rgb(0,0,0);stroke-linecap:round;fill:none;" />
<text x="2534.0" y="2014.7" font-size="18.2px" font-family="CMUBright-Roman" style="text-anchor:start;fill:rgb(0,0,0);" transform="rotate(26.1,2534.0,2014.7)" >1100</text>
<line x1='2475.3' y1='2060.7' x2='2492.7' y2='2070.6' style="stroke-width:4.0;stroke:rgb(0,0,0);stroke-linecap:round;fill:none;" />
<text x="2498.1" y="2081.2" font-size="18.2px" font-family="CMUBright-Roman" style="text-anchor:start;fill:rgb(0,0,0);" transform="rotate(29.9,2498.1,2081.2)" >1150</text>
<line x1='2436.6' y1='2123.2' x2='2453.2' y2='2134.3' style="stroke-width:4.0;stroke:rgb(0,0,0);stroke-linecap:round;fill:none;" />
<text x="2457.9" y="2145.3" font-size="18.2px" font-family="CMUBright-Roman" style="text-anchor:start;fill:rgb(0,0,0);" transform="rotate(33.6,2457.9,2145.3)" >1200</text>
<line x1='2393.8' y1='2183.2' x2='2409.7' y2='2195.3' style="stroke-width:4.0;stroke:rgb(0,0,0);stroke-linecap:round;fill:none;" />
<text x="2413.7" y="2206.5" font-size="18.2px" font-family="CMUBright-Roman" style="text-anchor:start;fill:rgb(0,0,0);" transform="rotate(37.4,2413.7,2206.5)" >1250</text>
<line x1='2347.2' y1='2240.2' x2='2362.3' y2='2253.3' style="stroke-width:4.0;stroke:rgb(0,0,0);stroke-linecap:round;fill:none;" />
<text x="2365.5" y="2264.8" font-size="18.2px" font-family="CMUBright-Roman" style="text-anchor:start;fill:rgb(0,0,0);" transform="rotate(41.1,2365.5,2264.8)" >1300</text>
<line x1='2297.0' y1='2294.0' x2='2311.2' y2='2308.1' style="stroke-width:4.0;stroke:rgb(0,0,0);stroke-linecap:round;fill:none;" />
<text x="2313.6" y="2319.8" font-size="18.2px" font-family="CMUBright-Roman" style="text-anchor:start;fill:rgb(0,0,0);" transform="rotate(44.9,2313.6,2319.8)" >1350</text>
<line x1='2243.3' y1='2344.4' x2='2256.6' y2='2359.4' style="stroke-width:4.0;stroke:rgb(0,0,0);stroke-linecap:round;fill:none;" />
<text x="2258.3" y="2371.2" font-size="18.2px" font-family="CMUBright-Roman" style="text-anchor:start;fill:rgb(0,0,0);" transform="rotate(48.6,2258.3,2371.2)" >1400</text>
<line x1='2186.5' y1='2391.2' x2='2198.7' y2='2407.1' style="stroke-width:4.0;stroke:rgb(0,0,0);stroke-linecap:round;fill:none;" />
<text x="2199.7" y="2419.0" font-size="18.2px" font-family="CMUBright-Roman" style="text-anchor:start;fill:rgb(0,0,0);" transform="rotate(52.4,2199.7,2419.0)" >1450</text>
<line x1='2126.8' y1='2434.2' x2='2137.9' y2='2450.8' style="stroke-width:4.0;stroke:rgb(0,0,0);stroke-linecap:round;fill:none;" />
<text x="2138.1" y="2462.8" font-size="18.2px" font-family="CMUBright-Roman" style="text-anchor:start;fill:rgb(0,0,0);" transform="rotate(56.1,2138.1,2462.8)" >1500</text>
<line x1='2064.3' y1='2473.2' x2='2074.3' y2='2490.5' style="stroke-width:4.0;stroke:rgb(0,0,0);stroke-linecap:round;fill:none;" />
<text x="2073.7" y="2502.4" font-size="18.2px" font-family="CMUBright-Roman" style="text-anchor:start;fill:rgb(0,0,0);" transform="rotate(59.9,2073.7,2502.4)" >1550</text>
<line x1='1999.4' y1='2508.1' x2='2008.3' y2='2526.0' style="stroke-width:4.0;stroke:rgb(0,0,0);stroke-linecap:round;fill:none;" />
<text x="2006.9" y="2537.8" font-size="18.2px" font-family="CMUBright-Roman" style="text-anchor:start;fill:rgb(0,0,0);" transform="rotate(63.6,2006.9,2537.8)" >1600</text>
<line x1='1932.4' y1='2538.6' x2='1940.1' y2='2557.0' style="stroke-width:4.0;stroke:rgb(0,0,0);stroke-linecap:round;fill:none;" />
<text x="1938.0" y="2568.7" font-size="18.2px" font-family="CMUBright-Roman" style="text-anchor:start;fill:rgb(0,0,0);" transform="rotate(67.4,1938.0,2568.7)" >1650</text>
<line x1='1863.6' y1='2564.6' x2='1870.1' y2='2583.6' style="stroke-width:4.0;stroke:rgb(0,0,0);stroke-linecap:round;fill:none;" />
<text x="1867.1" y="2595.1" font-size="18.2px" font-family="CMUBright-Roman" style="text-anchor:start;fill:rgb(0,0,0);" transform="rotate(71.1,1867.1,2595.1)" >1700</text>
<line x1='1793.2' y1='2586.1' x2='1798.4' y2='2605.4' style="stroke-width:4.0;stroke:rgb(0,0,0);stroke-linecap:round;fill:none;" />
<text x="1794.7" y="2616.8" font-size="18.2px" font-family="CMUBright-Roman" style="text-anchor:start;fill:rgb(0,0,0);" transform="rotate(74.9,1794.7,2616.8)" >1750</text>
<line x1='1721.5' y1='2603.0' x2='1725.4' y2='2622.6' style="stroke-width:4.0;stroke:rgb(0,0,0);stroke-linecap:round;fill:none;" />
<text x="1721.0" y="2633.7" font-size="18.2px" font-family="CMUBright-Roman" style="text-anchor:start;fill:rgb(0,0,0);" transform="rotate(78.6,1721.0,2633.7)" >1800</text>
<line x1='1648.9' y1='2615.1' x2='1651.5' y2='2634.9' style="stroke-width:4.0;stroke:rgb(0,0,0);stroke-linecap:round;fill:none;" />
<text x="1646.4" y="2645.7" font-size="18.2px" font-family="CMUBright-Roman" style="text-anchor:start;fill:rgb(0,0,0);" transform="rotate(82.4,1646.4,2645.7)" >1850</text>
<line x1='1575.6' y1='2622.5' x2='1577.0' y2='2642.4' style="stroke-width:4.0;stroke:rgb(0,0,0);stroke-linecap:round;fill:none;" />
<text x="1571.2" y="2652.8" font-size="18.2px" font-family="CMUBright-Roman" style="text-anchor:start;fill:rgb(0,0,0);" transform="rotate(86.1,1571.2,2652.8)" >1900</text>
<line x1='1502.1' y1='2625.0' x2='1502.1' y2='2645.0' style="stroke-width:4.0;stroke:rgb(0,0,0);stroke-linecap:round;fill:none;" />
<text x="1495.6" y="2655.0" font-size="18.2px" font-family="CMUBright-Roman" style="text-anchor:start;fill:rgb(0,0,0);" transform="rotate(89.9,1495.6,2655.0)" >1950</text>
<line x1='1428.5' y1='2622.7' x2='1427.2' y2='2642.7' style="stroke-width:4.0;stroke:rgb(0,0,0);stroke-linecap:round;fill:none;" />
<text x="1433.1" y="2653.1" font-size="18.2px" font-family="CMUBright-Roman" style="text-anchor:end;fill:rgb(0,0,0);" transform="rotate(-86.4,1433.1,2653.1)" >2000</text>
<line x1='1355.2' y1='2615.6' x2='1352.6' y2='2635.5' style="stroke-width:4.0;stroke:rgb(0,0,0);stroke-linecap:round;fill:none;" />
<text x="1357.8" y="2646.2" font-size="18.2px" font-family="CMUBright-Roman" style="text-anchor:end;fill:rgb(0,0,0);" transform="rotate(-82.6,1357.8,2646.2)" >2050</text>
<line x1='1282.5' y1='2603.8' x2='1278.7' y2='2623.4' style="stroke-width:4.0;stroke:rgb(0,0,0);stroke-linecap:round;fill:none;" />
<text x="1283.1" y="2634.5" font-size="18.2px" font-family="CMUBright-Roman" style="text-anchor:end;fill:rgb(0,0,0);" transform="rotate(-78.9,1283.1,2634.5)" >2100</text>
<line x1='1210.8' y1='2587.2' x2='1205.7' y2='2606.5' style="stroke-width:4.0;stroke:rgb(0,0,0);stroke-linecap:round;fill:none;" />
<text x="1209.4" y="2617.8" font-size="18.2px" font-family="CMUBright-Roman" style="text-anchor:end;fill:rgb(0,0,0);" transform="rotate(-75.1,1209.4,2617.8)" >2150</text>
<line x1='1140.3' y1='2565.9' x2='1133.9' y2='2584.9' style="stroke-width:4.0;stroke:rgb(0,0,0);stroke-linecap:round;fill:none;" />
<text x="1136.9" y="2596.4" font-size="18.2px" font-family="CMUBright-Roman" style="text-anchor:end;fill:rgb(0,0,0);" transform="rotate(-71.4,1136.9,2596.4)" >2200</text>
<line x1='1071.4' y1='2540.1' x2='1063.7' y2='2558.6' style="stroke-width:4.0;stroke:rgb(0,0,0);stroke-linecap:round;fill:none;" />
<text x="1065.9" y="2570.3" font-size="18.2px" font-family="CMUBright-Roman" style="text-anchor:end;fill:rgb(0,0,0);" transform="rotate(-67.6,1065.9,2570.3)" >2250</text>
<line x1='1004.2' y1='2509.9' x2='995.4' y2='2527.8' style="stroke-width:4.0;stroke:rgb(0,0,0);stroke-linecap:round;fill:none;" />
<text x="996.9" y="2539.7" font-size="18.2px" font-family="CMUBright-Roman" style="text-anchor:end;fill:rgb(0,0,0);" transform="rotate(-63.9,996.9,2539.7)" >2300</text>
<line x1='939.3' y1='2475.3' x2='929.3' y2='2492.6' style="stroke-width:4.0;stroke:rgb(0,0,0);stroke-linecap:round;fill:none;" />
<text x="929.9" y="2504.5" font-size="18.2px" font-family="CMUBright-Roman" style="text-anchor:end;fill:rgb(0,0,0);" transform="rotate(-60.1,929.9,2504.5)" >2350</text>
<line x1='876.7' y1='2436.5' x2='865.6' y2='2453.2' style="stroke-width:4.0;stroke:rgb(0,0,0);stroke-linecap:round;fill:none;" />
<text x="865.5" y="2465.1" font-size="18.2px" font-family="CMUBright-Roman" style="text-anchor:end;fill:rgb(0,0,0);" transform="rotate(-56.4,865.5,2465.1)" >2400</text>
<line x1='816.7' y1='2393.7' x2='804.6' y2='2409.6' style="stroke-width:4.0;stroke:rgb(0,0,0);stroke-linecap:round;fill:none;" />
<text x="803.7" y="2421.5" font-size="18.2px" font-family="CMUBright-Roman" style="text-anchor:end;fill:rgb(0,0,0);" transform="rotate(-52.6,803.7,2421.5)" >2450</text>
<line x1='759.7' y1='2347.1' x2='746.6' y2='2362.2' style="stroke-width:4.0;stroke:rgb(0,0,0);stroke-linecap:round;fill:none;" />
<text x="744.9" y="2374.0" font-size="18.2px" font-family="CMUBright-Roman" style="text-anchor:end;fill:rgb(0,0,0);" transform="rotate(-48.9,744.9,2374.0)" >2500</text>
<line x1='705.9' y1='2296.9' x2='691.8' y2='2311.1' style="stroke-width:4.0;stroke:rgb(0,0,0);stroke-linecap:round;fill:none;" />
<text x="689.4" y="2322.7" font-size="18.2px" font-family="CMUBright-Roman" style="text-anchor:end;fill:rgb(0,0,0);" transform="rotate(-45.1,689.4,2322.7)" >2550</text>
<line x1='655.5' y1='2243.3' x2='640.5' y2='2256.5' style="stroke-width:4.0;stroke:rgb(0,0,0);stroke-linecap:round;fill:none;" />
<text x="637.3" y="2268.0" font-size="18.2px" font-family="CMUBright-Roman" style="text-anchor:end;fill:rgb(0,0,0);" transform="rotate(-41.4,637.3,2268.0)" >2600</text>
<line x1='608.7' y1='2186.4' x2='592.8' y2='2198.6' style="stroke-width:4.0;stroke:rgb(0,0,0);stroke-linecap:round;fill:none;" />
<text x="588.9" y="2209.9" font-size="18.2px" font-family="CMUBright-Roman" style="text-anchor:end;fill:rgb(0,0,0);" transform="rotate(-37.6,588.9,2209.9)" >2650</text>
<line x1='565.7' y1='2126.7' x2='549.1' y2='2137.8' style="stroke-width:4.0;stroke:rgb(0,0,0);stroke-linecap:round;fill:none;" />
<text x="544.4" y="2148.8" font-size="18.2px" font-family="CMUBright-Roman" style="text-anchor:end;fill:rgb(0,0,0);" transform="rotate(-33.9,544.4,2148.8)" >2700</text>
<line x1='526.7' y1='2064.2' x2='509.4' y2='2074.2' style="stroke-width:4.0;stroke:rgb(0,0,0);stroke-linecap:round;fill:none;" />
<text x="504.0" y="2084.9" font-size="18.2px" font-family="CMUBright-Roman" style="text-anchor:end;fill:rgb(0,0,0);" transform="rotate(-30.1,504.0,2084.9)" >2750</text>
<line x1='491.9' y1='1999.4' x2='474.0' y2='2008.2' style="stroke-width:4.0;stroke:rgb(0,0,0);stroke-linecap:round;fill:none;" />
<text x="467.9" y="2018.5" font-size="18.2px" font-family="CMUBright-Roman" style="text-anchor:end;fill:rgb(0,0,0);" transform="rotate(-26.4,467.9,2018.5)" >2800</text>
<line x1='461.4' y1='1932.3' x2='442.9' y2='1940.0' style="stroke-width:4.0;stroke:rgb(0,0,0);stroke-linecap:round;fill:none;" />
<text x="436.2" y="1949.9" font-size="18.2px" font-family="CMUBright-Roman" style="text-anchor:end;fill:rgb(0,0,0);" transform="rotate(-22.6,436.2,1949.9)" >2850</text>
<line x1='435.3' y1='1863.5' x2='416.4' y2='1869.9' style="stroke-width:4.0;stroke:rgb(0,0,0);stroke-linecap:round;fill:none;" />
<text x="409.1" y="1879.3" font-size="18.2px" font-family="CMUBright-Roman" style="text-anchor:end;fill:rgb(0,0,0);" transform="rotate(-18.9,409.1,1879.3)" >2900</text>
<line x1='413.8' y1='1793.1' x2='394.5' y2='1798.3' style="stroke-width:4.0;stroke:rgb(0,0,0);stroke-linecap:round;fill:none;" />
<text x="386.6" y="1807.2" font-size="18.2px" font-family="CMUBright-Roman" style="text-anchor:end;fill:rgb(0,0,0);" transform="rotate(-15.1,386.6,1807.2)" >2950</text>
<line x1='397.0' y1='1721.4' x2='377.4' y2='1725.3' style="stroke-width:4.0;stroke:rgb(0,0,0);stroke-linecap:round;fill:none;" />
<text x="368.9" y="1733.7" font-size="18.2px" font-family="CMUBright-Roman" style="text-anchor:end;fill:rgb(0,0,0);" transform="rotate(-11.3,368.9,1733.7)" >3000</text>
<line x1='384.9' y1='1648.8' x2='365.1' y2='1651.4' style="stroke-width:4.0;stroke:rgb(0,0,0);stroke-linecap:round;fill:none;" />
<text x="356.0" y="1659.2" font-size="18.2px" font-family="CMUBright-Roman" style="text-anchor:end;fill:rgb(0,0,0);" transform="rotate(-7.6,356.0,1659.2)" >3050</text>
<line x1='377.5' y1='1575.5' x2='357.6' y2='1576.9' style="stroke-width:4.0;stroke:rgb(0,0,0);stroke-linecap:round;fill:none;" />
<text x="348.1" y="1584.0" font-size="18.2px" font-family="CMUBright-Roman" style="text-anchor:end;fill:rgb(0,0,0);" transform="rotate(-3.8,348.1,1584.0)" >3100</text>
<line x1='375.0' y1='1501.9' x2='355.0' y2='1502.0' style="stroke-width:4.0;stroke:rgb(0,0,0);stroke-linecap:round;fill:none;" />
<text x="345.0" y="1508.5" font-size="18.2px" font-family="CMUBright-Roman" style="text-anchor:end;fill:rgb(0,0,0);" transform="rotate(-0.1,345.0,1508.5)" >3150</text>
<line x1='377.3' y1='1428.4' x2='357.3' y2='1427.1' style="stroke-width:4.0;stroke:rgb(0,0,0);stroke-linecap:round;fill:none;" />
<text x="346.9" y="1432.9" font-size="18.2px" font-family="CMUBright-Roman" style="text-anchor:end;fill:rgb(0,0,0);" transform="rotate(3.7,346.9,1432.9)" >3200</text>
<line x1='384.4' y1='1355.1' x2='364.5' y2='1352.5' style="stroke-width:4.0;stroke:rgb(0,0,0);stroke-linecap:round;fill:none;" />
<text x="353.8" y="1357.7" font-size="18.2px" font-family="CMUBright-Roman" style="text-anchor:end;fill:rgb(0,0,0);" transform="rotate(7.4,353.8,1357.7)" >3250</text>
<line x1='396.2' y1='1282.4' x2='376.6' y2='1278.6' style="stroke-width:4.0;stroke:rgb(0,0,0);stroke-linecap:round;fill:none;" />
<text x="365.6" y="1283.0" font-size="18.2px" font-family="CMUBright-Roman" style="text-anchor:end;fill:rgb(0,0,0);" transform="rotate(11.2,365.6,1283.0)" >3300</text>
<line x1='412.8' y1='1210.7' x2='393.5' y2='1205.6' style="stroke-width:4.0;stroke:rgb(0,0,0);stroke-linecap:round;fill:none;" />
<text x="382.2" y="1209.3" font-size="18.2px" font-family="CMUBright-Roman" style="text-anchor:end;fill:rgb(0,0,0);" transform="rotate(14.9,382.2,1209.3)" >3350</text>
<line x1='434.1' y1='1140.2' x2='415.1' y2='1133.8' style="stroke-width:4.0;stroke:rgb(0,0,0);stroke-linecap:round;fill:none;" />
<text x="403.6" y="1136.8" font-size="18.2px" font-family="CMUBright-Roman" style="text-anchor:end;fill:rgb(0,0,0);" transform="rotate(18.7,403.6,1136.8)" >3400</text>
<line x1='459.9' y1='1071.3' x2='441.4' y2='1063.6' style="stroke-width:4.0;stroke:rgb(0,0,0);stroke-linecap:round;fill:none;" />
<text x="429.7" y="1065.8" font-size="18.2px" font-family="CMUBright-Roman" style="text-anchor:end;fill:rgb(0,0,0);" transform="rotate(22.4,429.7,1065.8)" >3450</text>
<line x1='490.2' y1='1004.1' x2='472.2' y2='995.3' style="stroke-width:4.0;stroke:rgb(0,0,0);stroke-linecap:round;fill:none;" />
<text x="460.4" y="996.8" font-size="18.2px" font-family="CMUBright-Roman" style="text-anchor:end;fill:rgb(0,0,0);" transform="rotate(26.2,460.4,996.8)" >3500</text>
<line x1='524.8' y1='939.2' x2='507.4' y2='929.2' style="stroke-width:4.0;stroke:rgb(0,0,0);stroke-linecap:round;fill:none;" />
<text x="495.5" y="929.8" font-size="18.2px" font-family="CMUBright-Roman" style="text-anchor:end;fill:rgb(0,0,0);" transform="rotate(29.9,495.5,929.8)" >3550</text>
<line x1='563.5' y1='876.6' x2='546.9' y2='865.5' style="stroke-width:4.0;stroke:rgb(0,0,0);stroke-linecap:round;fill:none;" />
<text x="535.0" y="865.4" font-size="18.2px" font-family="CMUBright-Roman" style="text-anchor:end;fill:rgb(0,0,0);" transform="rotate(33.7,535.0,865.4)" >3600</text>
<line x1='606.3' y1='816.7' x2='590.4' y2='804.5' style="stroke-width:4.0;stroke:rgb(0,0,0);stroke-linecap:round;fill:none;" />
<text x="578.6" y="803.6" font-size="18.2px" font-family="CMUBright-Roman" style="text-anchor:end;fill:rgb(0,0,0);" transform="rotate(37.4,578.6,803.6)" >3650</text>
<line x1='652.9' y1='759.7' x2='637.9' y2='746.5' style="stroke-width:4.0;stroke:rgb(0,0,0);stroke-linecap:round;fill:none;" />
<text x="626.1" y="744.8" font-size="18.2px" font-family="CMUBright-Roman" style="text-anchor:end;fill:rgb(0,0,0);" transform="rotate(41.2,626.1,744.8)" >3700</text>
<line x1='703.2' y1='705.8' x2='689.0' y2='691.7' style="stroke-width:4.0;stroke:rgb(0,0,0);stroke-linecap:round;fill:none;" />
<text x="677.3" y="689.3" font-size="18.2px" font-family="CMUBright-Roman" style="text-anchor:end;fill:rgb(0,0,0);" transform="rotate(44.9,677.3,689.3)" >3750</text>
<line x1='756.8' y1='655.4' x2='743.6' y2='640.4' style="stroke-width:4.0;stroke:rgb(0,0,0);stroke-linecap:round;fill:none;" />
<text x="732.1" y="637.2" font-size="18.2px" font-family="CMUBright-Roman" style="text-anchor:end;fill:rgb(0,0,0);" transform="rotate(48.7,732.1,637.2)" >3800</text>
<line x1='813.6' y1='608.6' x2='801.4' y2='592.8' style="stroke-width:4.0;stroke:rgb(0,0,0);stroke-linecap:round;fill:none;" />
<text x="790.2" y="588.8" font-size="18.2px" font-family="CMUBright-Roman" style="text-anchor:end;fill:rgb(0,0,0);" transform="rotate(52.4,790.2,588.8)" >3850</text>
<line x1='873.4' y1='565.6' x2='862.3' y2='549.0' style="stroke-width:4.0;stroke:rgb(0,0,0);stroke-linecap:round;fill:none;" />
<text x="851.3" y="544.4" font-size="18.2px" font-family="CMUBright-Roman" style="text-anchor:end;fill:rgb(0,0,0);" transform="rotate(56.2,851.3,544.4)" >3900</text>
<line x1='935.9' y1='526.7' x2='925.8' y2='509.4' style="stroke-width:4.0;stroke:rgb(0,0,0);stroke-linecap:round;fill:none;" />
<text x="915.2" y="504.0" font-size="18.2px" font-family="CMUBright-Roman" style="text-anchor:end;fill:rgb(0,0,0);" transform="rotate(59.9,915.2,504.0)" >3950</text>
<line x1='1000.7' y1='491.8' x2='991.9' y2='473.9' style="stroke-width:4.0;stroke:rgb(0,0,0);stroke-linecap:round;fill:none;" />
<text x="981.6" y="467.9" font-size="18.2px" font-family="CMUBright-Roman" style="text-anchor:end;fill:rgb(0,0,0);" transform="rotate(63.7,981.6,467.9)" >4000</text>
<g id="highlighttrack_0">
<path d="M992.215,552.488 A1075.000,1075.000 40.000 0,1 996.152,550.389 L972.717,506.221 A1125.000,1125.000 0.000 0,0 968.597,508.417 Z" style="stroke-width:4.0;stroke:rgb(0,0,0);stroke-linecap:round;fill:rgb(116,196,118);" />
<path d="M716.303,764.172 A1075.000,1075.000 40.000 0,1 719.426,760.859 L683.120,726.481 A1125.000,1125.000 0.000 0,0 679.852,729.947 Z" style="stroke-width:4.0;stroke:rgb(0,0,0);stroke-linecap:round;fill:rgb(116,196,118);" />
<path d="M2143.767,639.077 A1075.000,1075.000 40.000 0,1 2147.333,641.755 L2177.442,601.837 A1125.000,1125.000 0.000 0,0 2173.710,599.034 Z" style="stroke-width:4.0;stroke:rgb(0,0,0);stroke-linecap:round;fill:rgb(251,106,74);" />
<path d="M2237.022,717.425 A1075.000,1075.000 40.000 0,1 2240.328,720.552 L2274.762,684.298 A1125.000,1125.000 0.000 0,0 2271.302,681.026 Z" style="stroke-width:4.0;stroke:rgb(0,0,0);stroke-linecap:round;fill:rgb(251,106,74);" />
<path d="M440.436,1318.482 A1075.000,1075.000 40.000 0,1 441.198,1314.087 L391.952,1305.439 A1125.000,1125.000 0.000 0,0 391.154,1310.039 Z" style="stroke-width:4.0;stroke:rgb(0,0,0);stroke-linecap:round;fill:rgb(116,196,118);" />
<path d="M2288.396,769.208 A1075.000,1075.000 40.000 0,1 2291.422,772.486 L2328.232,738.648 A1125.000,1125.000 0.000 0,0 2325.065,735.218 Z" style="stroke-width:4.0;stroke:rgb(0,0,0);stroke-linecap:round;fill:rgb(251,106,74);" />
<path d="M433.809,1362.665 A1075.000,1075.000 40.000 0,1 434.387,1358.246 L384.824,1351.653 A1125.000,1125.000 0.000 0,0 384.218,1356.277 Z" style="stroke-width:4.0;stroke:rgb(0,0,0);stroke-linecap:round;fill:rgb(116,196,118);" />
<path d="M963.122,2431.336 A1075.000,1075.000 40.000 0,1 959.184,2429.055 L934.029,2472.266 A1125.000,1125.000 0.000 0,0 938.150,2474.654 Z" style="stroke-width:4.0;stroke:rgb(0,0,0);stroke-linecap:round;fill:rgb(116,196,118);" />
<path d="M924.411,592.078 A1075.000,1075.000 40.000 0,1 927.318,590.242 L900.681,547.927 A1125.000,1125.000 0.000 0,0 897.640,549.849 Z" style="stroke-width:4.0;stroke:rgb(0,0,0);stroke-linecap:round;fill:rgb(116,196,118);" />
<path d="M1383.970,2568.720 A1075.000,1075.000 40.000 0,1 1380.552,2568.343 L1374.997,2618.034 A1125.000,1125.000 0.000 0,0 1378.573,2618.428 Z" style="stroke-width:4.0;stroke:rgb(0,0,0);stroke-linecap:round;fill:rgb(251,106,74);" />
<path d="M1493.287,2574.979 A1075.000,1075.000 40.000 0,1 1489.849,2574.952 L1489.377,2624.950 A1125.000,1125.000 0.000 0,0 1492.975,2624.978 Z" style="stroke-width:4.0;stroke:rgb(0,0,0);stroke-linecap:round;fill:rgb(116,196,118);" />
<path d="M2465.231,1026.762 A1075.000,1075.000 40.000 0,1 2466.739,1029.850 L2511.703,1007.982 A1125.000,1125.000 0.000 0,0 2510.125,1004.751 Z" style="stroke-width:4.0;stroke:rgb(0,0,0);stroke-linecap:round;fill:rgb(251,106,74);" />
<path d="M2265.087,744.840 A1075.000,1075.000 40.000 0,1 2267.709,747.506 L2303.417,712.506 A1125.000,1125.000 0.000 0,0 2300.673,709.716 Z" style="stroke-width:4.0;stroke:rgb(0,0,0);stroke-linecap:round;fill:rgb(251,106,74);" />
</g>
<path d="M1118.994,494.784 A1075.000,1075.000 40.000 0,1 1436.316,426.888 L1433.354,376.976 A1125.000,1125.000 0.000 0,0 1101.273,448.030 Z" style="stroke-linecap:round;fill:rgb(116,196,118);fill-opacity:0.33;" />
<text x="1236.5" y="313.9" font-size="18.2px" font-family="CMUBright-Roman" style="text-anchor:end;fill:rgb(0,0,0);" transform="rotate(77.9,1236.5,313.9)" >NZ<tspan baseline-shift="-40%" font-size="90%">C</tspan>P050314.1</text>
<line x1='1101.3' y1='448.0' x2='1094.2' y2='429.3' style="stroke-width:4.0;stroke:rgb(0,0,0);stroke-linecap:round;fill:none;" />
<text x="1084.6" y="422.3" font-size="18.2px" font-family="CMUBright-Roman" style="text-anchor:end;fill:rgb(0,0,0);" transform="rotate(69.2,1084.6,422.3)" >0</text>
<line x1='1170.9' y1='424.2' x2='1165.1' y2='405.1' style="stroke-width:4.0;stroke:rgb(0,0,0);stroke-linecap:round;fill:none;" />
<text x="1155.9" y="397.4" font-size="18.2px" font-family="CMUBright-Roman" style="text-anchor:end;fill:rgb(0,0,0);" transform="rotate(73.0,1155.9,397.4)" >50</text>
<line x1='1242.0' y1='405.0' x2='1237.4' y2='385.5' style="stroke-width:4.0;stroke:rgb(0,0,0);stroke-linecap:round;fill:none;" />
<text x="1228.8" y="377.3" font-size="18.2px" font-family="CMUBright-Roman" style="text-anchor:end;fill:rgb(0,0,0);" transform="rotate(76.7,1228.8,377.3)" >100</text>
<line x1='1314.2' y1='390.5' x2='1310.9' y2='370.7' style="stroke-width:4.0;stroke:rgb(0,0,0);stroke-linecap:round;fill:none;" />
<text x="1302.8" y="362.0" font-size="18.2px" font-family="CMUBright-Roman" style="text-anchor:end;fill:rgb(0,0,0);" transform="rotate(80.5,1302.8,362.0)" >150</text>
<line x1='1387.1' y1='380.7' x2='1385.1' y2='360.8' style="stroke-width:4.0;stroke:rgb(0,0,0);stroke-linecap:round;fill:none;" />
<text x="1377.7" y="351.5" font-size="18.2px" font-family="CMUBright-Roman" style="text-anchor:end;fill:rgb(0,0,0);" transform="rotate(84.2,1377.7,351.5)" >200</text>
<g id="highlighttrack_0">
<path d="M1219.491,462.243 A1075.000,1075.000 40.000 0,1 1223.808,461.086 L1210.962,412.764 A1125.000,1125.000 0.000 0,0 1206.444,413.975 Z" style="stroke-width:4.0;stroke:rgb(0,0,0);stroke-linecap:round;fill:rgb(116,196,118);" />
<path d="M1224.841,460.812 A1075.000,1075.000 40.000 0,1 1229.165,459.676 L1216.568,411.289 A1125.000,1125.000 0.000 0,0 1212.042,412.477 Z" style="stroke-width:4.0;stroke:rgb(0,0,0);stroke-linecap:round;fill:rgb(116,196,118);" />
<path d="M1283.321,447.063 A1075.000,1075.000 40.000 0,1 1297.382,444.268 L1287.958,395.164 A1125.000,1125.000 0.000 0,0 1273.243,398.090 Z" style="stroke-width:4.0;stroke:rgb(0,0,0);stroke-linecap:round;fill:rgb(116,196,118);" />
<path d="M1346.578,436.004 A1075.000,1075.000 40.000 0,1 1359.282,434.250 L1352.737,384.680 A1125.000,1125.000 0.000 0,0 1339.442,386.516 Z" style="stroke-width:4.0;stroke:rgb(0,0,0);stroke-linecap:round;fill:rgb(116,196,118);" />
</g>
</g>
<g id="track_0">
<path d="M 724.140,771.530 A 1064.250,1064.250 0.00 0,1 727.2,768.3 L 727.2,768.3 780.5,818.4 830.1,864.6 876.1,906.8 918.7,945.3 958.2,980.4 994.6,1012.1 1028.1,1040.6 1058.8,1066.1 1087.0,1088.7 1112.7,1108.4 1136.0,1125.5 1157.0,1140.1 1175.9,1152.1 1192.7,1161.6 1207.5,1168.8 1220.4,1173.7 1231.4,1176.2 1240.6,1176.5 1247.9,1174.5 1253.6,1170.2 1257.5,1163.6 1259.7,1154.7 1260.2,1143.4 1258.9,1129.7 1256.0,1113.5 1251.2,1094.8 1244.7,1073.4 1236.3,1049.2 1226.1,1022.2 1213.9,992.2 1199.7,959.0 1183.3,922.5 1164.8,882.6 1143.9,839.1 1120.7,791.7 1094.9,740.3 1066.5,684.7 1035.3,624.7 1001.2,559.9  A 1064.250,1064.250 0.00 0,0 997.3,562.0 L 997.3,562.0 1031.7,626.6 1063.2,686.5 1091.8,742.0 1117.8,793.3 1141.2,840.6 1162.2,884.0 1180.9,923.9 1197.4,960.2 1211.8,993.3 1224.1,1023.3 1234.5,1050.3 1242.9,1074.4 1249.6,1095.8 1254.4,1114.5 1257.4,1130.7 1258.7,1144.4 1258.3,1155.7 1256.1,1164.6 1252.2,1171.2 1246.6,1175.5 1239.2,1177.6 1230.0,1177.3 1219.0,1174.8 1206.1,1170.0 1191.3,1162.9 1174.4,1153.4 1155.5,1141.5 1134.4,1127.1 1111.0,1110.1 1085.3,1090.4 1057.0,1068.0 1026.1,1042.6 992.5,1014.2 956.0,982.7 916.4,947.8 873.6,909.4 827.4,867.4 777.7,821.5 724.1,771.5  Z" style="stroke-width: 2.0;  stroke: rgb(82,82,82); fill: rgb(251,106,74); opacity: 0.667;" />
<path d="M 2031.246,577.825 A 1064.250,1064.250 0.00 0,1 2035.1,580.0 L 2035.1,580.0 1997.7,643.2 1961.9,701.2 1927.6,754.4 1894.8,803.0 1863.4,847.4 1833.2,887.7 1804.3,924.1 1776.4,957.0 1749.5,986.4 1723.6,1012.5 1698.5,1035.5 1674.2,1055.6 1650.5,1072.9 1627.5,1087.4 1604.9,1099.3 1582.8,1108.6 1561.0,1115.4 1539.4,1119.8 1518.0,1121.8 1496.7,1121.4 1475.4,1118.6 1454.1,1113.4 1432.6,1105.7 1410.8,1095.5 1388.7,1082.7 1366.2,1067.3 1343.3,1049.2 1319.7,1028.2 1295.6,1004.2 1270.7,977.0 1245.0,946.6 1218.4,912.7 1190.9,875.1 1162.3,833.7 1132.6,788.1 1101.8,738.3 1069.6,683.8 1036.1,624.4 1001.2,559.9  A 1064.250,1064.250 0.00 0,0 997.3,562.0 L 997.3,562.0 1032.5,626.3 1066.2,685.6 1098.6,739.9 1129.7,789.7 1159.6,835.1 1188.3,876.4 1216.0,913.9 1242.7,947.7 1268.5,978.0 1293.5,1005.0 1317.8,1028.9 1341.4,1049.8 1364.4,1067.9 1387.0,1083.2 1409.1,1095.9 1430.9,1106.0 1452.5,1113.6 1473.9,1118.7 1495.2,1121.4 1516.5,1121.8 1537.8,1119.7 1559.4,1115.2 1581.1,1108.3 1603.2,1098.8 1625.7,1086.9 1648.7,1072.2 1672.3,1054.9 1696.6,1034.7 1721.6,1011.6 1747.4,985.3 1774.1,955.8 1801.9,922.9 1830.7,886.3 1860.7,845.9 1891.9,801.4 1924.5,752.6 1958.6,699.2 1994.1,641.1 2031.2,577.8  Z" style="stroke-width: 2.0;  stroke: rgb(82,82,82); fill: rgb(116,196,118); opacity: 0.667;" />
<path d="M 2031.246,577.825 A 1064.250,1064.250 0.00 0,1 2035.1,580.0 L 2035.1,580.0 1997.5,643.2 1961.1,701.2 1925.9,754.6 1891.8,803.4 1858.8,848.1 1826.8,888.9 1795.6,926.0 1765.3,959.6 1735.7,990.0 1706.9,1017.3 1678.6,1041.7 1650.8,1063.5 1623.5,1082.6 1596.5,1099.4 1569.7,1113.8 1543.1,1125.9 1516.6,1135.9 1490.0,1143.9 1463.3,1149.7 1436.4,1153.6 1409.1,1155.5 1381.4,1155.4 1353.1,1153.3 1324.2,1149.1 1294.5,1142.8 1263.9,1134.4 1232.2,1123.7 1199.4,1110.7 1165.4,1095.2 1130.0,1077.1 1093.1,1056.3 1054.5,1032.6 1014.2,1005.8 971.9,975.7 927.7,942.2 881.2,904.9 832.4,863.7 781.1,818.2 727.2,768.3  A 1064.250,1064.250 0.00 0,0 724.1,771.5 L 724.1,771.5 778.2,821.3 829.7,866.5 878.7,907.5 925.3,944.6 969.7,978.0 1012.1,1007.9 1052.5,1034.5 1091.2,1058.0 1128.2,1078.7 1163.7,1096.6 1197.8,1112.0 1230.6,1124.8 1262.3,1135.4 1293.0,1143.7 1322.7,1149.8 1351.7,1153.9 1380.0,1155.9 1407.7,1155.9 1435.0,1153.9 1461.9,1149.9 1488.5,1143.9 1515.1,1135.9 1541.6,1125.8 1568.1,1113.5 1594.8,1099.0 1621.7,1082.1 1649.0,1062.8 1676.7,1041.0 1704.8,1016.4 1733.6,989.0 1763.0,958.5 1793.2,924.7 1824.2,887.5 1856.1,846.6 1888.9,801.8 1922.8,752.8 1957.8,699.3 1993.9,641.1 2031.2,577.8  Z" style="stroke-width: 2.0;  stroke: rgb(82,82,82); fill: rgb(107,174,214); opacity: 0.667;" />
<path d="M 2137.330,647.686 A 1064.250,1064.250 0.00 0,1 2140.9,650.3 L 2140.9,650.3 2096.1,708.5 2053.5,761.9 2012.8,810.6 1973.9,855.0 1936.8,895.3 1901.4,931.7 1867.4,964.6 1834.9,994.0 1803.7,1020.1 1773.7,1043.2 1744.7,1063.4 1716.8,1080.7 1689.8,1095.4 1663.6,1107.6 1638.0,1117.3 1613.1,1124.6 1588.7,1129.6 1564.7,1132.2 1541.0,1132.6 1517.5,1130.8 1494.2,1126.6 1470.9,1120.2 1447.5,1111.5 1424.1,1100.3 1400.4,1086.7 1376.4,1070.6 1352.0,1051.8 1327.2,1030.2 1301.8,1005.7 1275.8,978.2 1249.1,947.5 1221.6,913.3 1193.3,875.5 1164.0,833.9 1133.7,788.3 1102.4,738.3 1069.9,683.8 1036.2,624.4 1001.2,559.9  A 1064.250,1064.250 0.00 0,0 997.3,562.0 L 997.3,562.0 1032.6,626.3 1066.5,685.6 1099.2,740.0 1130.8,789.8 1161.3,835.3 1190.7,876.8 1219.2,914.5 1246.8,948.5 1273.7,979.2 1299.8,1006.6 1325.3,1030.9 1350.2,1052.4 1374.6,1071.1 1398.7,1087.1 1422.4,1100.6 1445.9,1111.7 1469.3,1120.3 1492.6,1126.7 1516.0,1130.7 1539.4,1132.5 1563.1,1132.0 1587.1,1129.2 1611.5,1124.1 1636.4,1116.7 1661.9,1106.9 1688.1,1094.7 1715.1,1079.8 1742.9,1062.3 1771.8,1042.1 1801.7,1018.9 1832.8,992.6 1865.2,963.0 1899.0,930.1 1934.3,893.5 1971.3,853.0 2009.9,808.5 2050.4,759.6 2092.8,706.1 2137.3,647.7  Z" style="stroke-width: 2.0;  stroke: rgb(82,82,82); fill: rgb(253,141,60); opacity: 0.667;" />
<path d="M 2137.330,647.686 A 1064.250,1064.250 0.00 0,1 2140.9,650.3 L 2140.9,650.3 2095.9,708.5 2052.7,761.9 2011.0,810.7 1970.9,855.2 1932.2,895.8 1894.9,932.6 1858.8,966.0 1823.8,996.1 1789.9,1023.1 1756.9,1047.3 1724.8,1068.8 1693.4,1087.7 1662.7,1104.3 1632.5,1118.6 1602.8,1130.7 1573.4,1140.8 1544.3,1148.9 1515.3,1155.1 1486.2,1159.4 1457.1,1161.8 1427.8,1162.4 1398.2,1161.1 1368.1,1158.0 1337.4,1152.9 1306.1,1145.8 1274.0,1136.7 1241.0,1125.5 1206.9,1112.0 1171.7,1096.1 1135.1,1077.7 1097.2,1056.7 1057.7,1032.8 1016.6,1005.9 973.6,975.8 928.8,942.2 881.8,904.9 832.7,863.7 781.2,818.2 727.2,768.3  A 1064.250,1064.250 0.00 0,0 724.1,771.5 L 724.1,771.5 778.3,821.3 830.0,866.5 879.3,907.5 926.4,944.6 971.4,978.0 1014.5,1007.9 1055.8,1034.7 1095.3,1058.4 1133.4,1079.3 1170.0,1097.5 1205.3,1113.2 1239.4,1126.6 1272.5,1137.7 1304.6,1146.6 1336.0,1153.6 1366.6,1158.5 1396.7,1161.6 1426.4,1162.7 1455.7,1162.0 1484.8,1159.5 1513.8,1155.1 1542.8,1148.8 1571.9,1140.5 1601.3,1130.3 1630.9,1118.1 1661.0,1103.6 1691.7,1086.9 1723.0,1067.8 1755.0,1046.2 1787.9,1021.9 1821.7,994.7 1856.5,964.5 1892.5,931.0 1929.7,894.0 1968.2,853.3 2008.2,808.6 2049.6,759.6 2092.6,706.1 2137.3,647.7  Z" style="stroke-width: 2.0;  stroke: rgb(82,82,82); fill: rgb(255,0,0); opacity: 0.667;" />
<path d="M 2137.330,647.686 A 1064.250,1064.250 0.00 0,1 2140.9,650.3 L 2140.9,650.3 2096.7,708.7 2055.8,762.6 2018.0,812.2 1983.0,857.7 1950.9,899.3 1921.4,937.2 1894.4,971.6 1869.7,1002.6 1847.4,1030.4 1827.2,1055.1 1809.1,1076.9 1793.0,1095.8 1778.8,1112.0 1766.5,1125.5 1755.9,1136.4 1747.1,1144.7 1740.0,1150.6 1734.6,1154.0 1730.8,1155.0 1728.6,1153.6 1728.1,1149.7 1729.1,1143.4 1731.8,1134.5 1736.1,1123.2 1742.1,1109.2 1749.7,1092.6 1759.1,1073.3 1770.3,1051.1 1783.4,1026.0 1798.4,997.8 1815.4,966.5 1834.4,931.7 1855.6,893.5 1879.2,851.6 1905.1,805.9 1933.5,756.0 1964.5,701.9 1998.3,643.4 2035.1,580.0  A 1064.250,1064.250 0.00 0,0 2031.2,577.8 L 2031.2,577.8 1994.8,641.3 1961.2,700.0 1930.4,754.2 1902.2,804.2 1876.5,850.0 1853.1,892.0 1832.0,930.4 1813.1,965.2 1796.3,996.6 1781.4,1024.8 1768.5,1050.0 1757.4,1072.2 1748.0,1091.6 1740.4,1108.2 1734.5,1122.2 1730.3,1133.6 1727.6,1142.4 1726.6,1148.8 1727.2,1152.6 1729.4,1154.1 1733.2,1153.1 1738.6,1149.6 1745.7,1143.7 1754.4,1135.3 1764.9,1124.4 1777.2,1110.8 1791.3,1094.6 1807.3,1075.6 1825.3,1053.8 1845.4,1029.0 1867.7,1001.1 1892.2,969.9 1919.0,935.4 1948.4,897.4 1980.4,855.7 2015.1,810.0 2052.7,760.3 2093.4,706.3 2137.3,647.7  Z" style="stroke-width: 2.0;  stroke: rgb(82,82,82); fill: rgb(255,0,204); opacity: 0.667;" />
<path d="M 2229.651,725.250 A 1064.250,1064.250 0.00 0,1 2232.9,728.3 L 2232.9,728.3 2181.8,781.1 2133.2,829.2 2086.9,873.0 2042.9,912.7 2000.9,948.5 1960.8,980.7 1922.6,1009.5 1886.0,1035.1 1851.1,1057.7 1817.5,1077.4 1785.3,1094.4 1754.3,1108.8 1724.4,1120.8 1695.4,1130.3 1667.3,1137.6 1640.0,1142.7 1613.3,1145.6 1587.2,1146.3 1561.5,1145.0 1536.1,1141.5 1511.0,1135.9 1486.0,1128.2 1461.1,1118.2 1436.1,1106.0 1411.0,1091.4 1385.7,1074.5 1360.1,1054.9 1334.1,1032.7 1307.6,1007.7 1280.6,979.7 1253.0,948.6 1224.6,914.1 1195.5,876.1 1165.6,834.3 1134.8,788.5 1103.0,738.4 1070.2,683.8 1036.3,624.4 1001.2,559.9  A 1064.250,1064.250 0.00 0,0 997.3,562.0 L 997.3,562.0 1032.6,626.4 1066.8,685.6 1099.8,740.1 1131.8,790.0 1162.9,835.7 1192.9,877.3 1222.2,915.2 1250.7,949.6 1278.4,980.6 1305.6,1008.5 1332.1,1033.4 1358.2,1055.5 1383.9,1074.9 1409.3,1091.8 1434.5,1106.3 1459.5,1118.4 1484.4,1128.2 1509.5,1135.9 1534.6,1141.4 1560.0,1144.7 1585.7,1146.0 1611.8,1145.1 1638.5,1142.1 1665.8,1136.9 1693.9,1129.5 1722.8,1119.8 1752.7,1107.8 1783.6,1093.2 1815.7,1076.1 1849.2,1056.2 1884.1,1033.5 1920.5,1007.8 1958.6,978.8 1998.5,946.4 2040.4,910.4 2084.3,870.5 2130.4,826.5 2178.8,778.2 2229.7,725.3  Z" style="stroke-width: 2.0;  stroke: rgb(82,82,82); fill: rgb(255,204,204); opacity: 0.667;" />
<path d="M 2229.651,725.250 A 1064.250,1064.250 0.00 0,1 2232.9,728.3 L 2232.9,728.3 2181.6,781.1 2132.4,829.2 2085.2,873.0 2039.8,912.8 1996.3,948.8 1954.3,981.3 1913.9,1010.6 1874.9,1036.8 1837.3,1060.2 1800.8,1080.9 1765.4,1099.1 1730.9,1115.0 1697.3,1128.7 1664.4,1140.4 1632.2,1150.1 1600.4,1157.9 1569.0,1163.9 1537.8,1168.1 1506.8,1170.6 1475.8,1171.4 1444.7,1170.6 1413.3,1168.0 1381.6,1163.7 1349.5,1157.6 1316.7,1149.6 1283.3,1139.7 1249.0,1127.8 1213.8,1113.7 1177.4,1097.4 1139.9,1078.6 1101.0,1057.3 1060.7,1033.2 1018.8,1006.1 975.2,975.9 929.8,942.2 882.4,904.9 832.9,863.7 781.3,818.2 727.2,768.3  A 1064.250,1064.250 0.00 0,0 724.1,771.5 L 724.1,771.5 778.4,821.3 830.3,866.5 879.9,907.5 927.5,944.6 973.0,978.1 1016.8,1008.2 1058.8,1035.1 1099.2,1059.0 1138.1,1080.2 1175.7,1098.8 1212.1,1114.9 1247.4,1128.9 1281.8,1140.6 1315.3,1150.4 1348.0,1158.2 1380.2,1164.2 1411.9,1168.4 1443.3,1170.8 1474.4,1171.6 1505.4,1170.6 1536.4,1167.9 1567.5,1163.6 1598.9,1157.5 1630.7,1149.5 1662.9,1139.7 1695.7,1127.9 1729.3,1114.0 1763.7,1098.0 1799.0,1079.6 1835.4,1058.7 1873.0,1035.2 1911.9,1008.8 1952.1,979.4 1993.9,946.7 2037.4,910.5 2082.5,870.5 2129.6,826.5 2178.6,778.2 2229.7,725.3  Z" style="stroke-width: 2.0;  stroke: rgb(82,82,82); fill: rgb(255,153,0); opacity: 0.667;" />
<path d="M 2229.651,725.250 A 1064.250,1064.250 0.00 0,1 2232.9,728.3 L 2232.9,728.3 2182.4,781.3 2135.5,830.1 2092.0,874.9 2051.8,915.8 2014.7,953.2 1980.5,987.1 1949.1,1017.7 1920.4,1045.2 1894.2,1069.6 1870.4,1091.2 1848.9,1110.1 1829.6,1126.2 1812.5,1139.8 1797.3,1150.9 1784.2,1159.6 1772.9,1165.8 1763.5,1169.8 1755.9,1171.3 1750.1,1170.6 1746.0,1167.5 1743.7,1162.2 1743.1,1154.4 1744.2,1144.3 1747.0,1131.7 1751.6,1116.7 1758.0,1099.1 1766.3,1078.8 1776.4,1055.7 1788.5,1029.8 1802.5,1000.9 1818.7,968.9 1837.0,933.6 1857.6,894.9 1880.5,852.6 1905.9,806.5 1934.0,756.4 1964.7,702.1 1998.4,643.4 2035.1,580.0  A 1064.250,1064.250 0.00 0,0 2031.2,577.8 L 2031.2,577.8 1994.8,641.3 1961.4,700.2 1930.9,754.6 1903.0,804.8 1877.8,851.0 1855.0,893.4 1834.6,932.2 1816.5,967.6 1800.4,999.7 1786.5,1028.6 1774.5,1054.6 1764.5,1077.7 1756.4,1098.0 1750.0,1115.6 1745.5,1130.7 1742.7,1143.3 1741.6,1153.4 1742.3,1161.1 1744.6,1166.5 1748.7,1169.5 1754.5,1170.3 1762.1,1168.6 1771.5,1164.7 1782.7,1158.4 1795.9,1149.7 1810.9,1138.5 1828.0,1124.9 1847.2,1108.6 1868.6,1089.7 1892.3,1068.0 1918.4,1043.4 1947.0,1015.8 1978.3,985.0 2012.3,951.0 2049.3,913.5 2089.4,872.4 2132.7,827.4 2179.4,778.4 2229.7,725.3  Z" style="stroke-width: 2.0;  stroke: rgb(82,82,82); fill: rgb(255,204,0); opacity: 0.667;" />
<path d="M 2229.651,725.250 A 1064.250,1064.250 0.00 0,1 2232.9,728.3 L 2232.9,728.3 2182.5,781.4 2135.7,830.3 2092.5,875.3 2052.7,916.5 2016.1,954.2 1982.5,988.6 1951.8,1019.7 1923.8,1047.8 1898.5,1072.9 1875.7,1095.2 1855.3,1114.8 1837.2,1131.9 1821.4,1146.4 1807.7,1158.4 1796.0,1168.1 1786.4,1175.5 1778.8,1180.6 1773.1,1183.5 1769.3,1184.1 1767.4,1182.5 1767.4,1178.7 1769.3,1172.6 1773.1,1164.2 1778.8,1153.5 1786.4,1140.4 1796.1,1124.9 1807.8,1106.9 1821.6,1086.3 1837.6,1062.9 1855.9,1036.8 1876.5,1007.7 1899.6,975.5 1925.3,940.1 1953.6,901.3 1984.8,859.0 2019.0,812.9 2056.3,763.0 2096.8,708.8 2140.9,650.3  A 1064.250,1064.250 0.00 0,0 2137.3,647.7 L 2137.3,647.7 2093.5,706.4 2053.2,760.7 2016.1,810.8 1982.2,857.0 1951.1,899.5 1922.9,938.4 1897.4,973.9 1874.5,1006.1 1853.9,1035.3 1835.8,1061.5 1819.9,1084.9 1806.1,1105.6 1794.5,1123.7 1784.9,1139.2 1777.3,1152.3 1771.6,1163.1 1767.9,1171.4 1766.0,1177.5 1766.1,1181.4 1768.0,1183.0 1771.8,1182.3 1777.4,1179.5 1785.1,1174.3 1794.6,1166.9 1806.2,1157.1 1819.9,1145.0 1835.7,1130.4 1853.7,1113.3 1874.0,1093.6 1896.7,1071.2 1921.9,1046.0 1949.7,1017.8 1980.3,986.6 2013.7,952.1 2050.2,914.2 2089.9,872.8 2132.9,827.6 2179.4,778.5 2229.7,725.3  Z" style="stroke-width: 2.0;  stroke: rgb(82,82,82); fill: rgb(255,255,0); opacity: 0.667;" />
<path d="M 451.031,1320.297 A 1064.250,1064.250 0.00 0,1 451.8,1315.9 L 451.8,1315.9 524.1,1328.1 591.4,1338.3 653.9,1346.6 712.0,1353.2 765.8,1358.2 815.6,1361.5 861.6,1363.4 904.0,1363.8 943.1,1362.8 978.9,1360.5 1011.8,1356.9 1041.8,1351.9 1069.1,1345.7 1093.8,1338.2 1116.0,1329.4 1135.9,1319.3 1153.5,1308.0 1169.0,1295.2 1182.4,1281.1 1193.7,1265.5 1203.0,1248.4 1210.3,1229.8 1215.7,1209.5 1219.2,1187.5 1220.6,1163.6 1220.1,1137.8 1217.6,1109.9 1213.1,1079.9 1206.4,1047.5 1197.5,1012.7 1186.4,975.2 1172.9,935.0 1156.9,891.8 1138.3,845.5 1117.0,795.8 1092.8,742.7 1065.6,685.8 1035.1,624.9 1001.2,559.9  A 1064.250,1064.250 0.00 0,0 997.3,562.0 L 997.3,562.0 1031.4,626.9 1062.2,687.6 1089.7,744.4 1114.1,797.4 1135.6,847.0 1154.4,893.2 1170.6,936.3 1184.2,976.5 1195.5,1013.9 1204.5,1048.7 1211.3,1081.1 1216.0,1111.1 1218.6,1139.0 1219.2,1164.8 1217.9,1188.6 1214.5,1210.7 1209.2,1231.0 1202.0,1249.7 1192.7,1266.8 1181.5,1282.4 1168.2,1296.6 1152.7,1309.4 1135.2,1320.9 1115.3,1331.0 1093.1,1339.9 1068.4,1347.5 1041.2,1353.8 1011.2,1358.9 978.4,1362.7 942.5,1365.2 903.5,1366.3 861.0,1366.1 815.0,1364.4 765.2,1361.2 711.4,1356.5 653.3,1350.1 590.7,1342.1 523.4,1332.1 451.0,1320.3  Z" style="stroke-width: 2.0;  stroke: rgb(82,82,82); fill: rgb(204,255,0); opacity: 0.667;" />
<path d="M 451.031,1320.297 A 1064.250,1064.250 0.00 0,1 451.8,1315.9 L 451.8,1315.9 524.0,1328.3 591.0,1338.9 653.0,1348.1 710.2,1355.8 763.1,1362.0 811.6,1367.0 856.2,1370.6 896.9,1373.0 934.0,1374.3 967.7,1374.3 998.0,1373.2 1025.2,1371.0 1049.4,1367.7 1070.7,1363.3 1089.2,1357.8 1105.1,1351.2 1118.3,1343.5 1128.9,1334.6 1137.0,1324.5 1142.7,1313.3 1145.9,1300.7 1146.7,1286.9 1145.1,1271.7 1141.0,1255.0 1134.3,1236.9 1125.2,1217.1 1113.4,1195.7 1098.9,1172.6 1081.7,1147.6 1061.6,1120.6 1038.5,1091.5 1012.3,1060.3 982.8,1026.7 949.8,990.6 913.3,952.0 873.0,910.6 828.7,866.3 780.2,818.9 727.2,768.3  A 1064.250,1064.250 0.00 0,0 724.1,771.5 L 724.1,771.5 777.3,821.9 826.0,869.1 870.5,913.2 911.0,954.5 947.7,993.0 980.8,1028.9 1010.4,1062.4 1036.8,1093.5 1060.0,1122.5 1080.2,1149.4 1097.5,1174.3 1112.1,1197.4 1124.0,1218.7 1133.2,1238.4 1139.9,1256.5 1144.1,1273.2 1145.8,1288.4 1145.1,1302.2 1141.9,1314.8 1136.3,1326.1 1128.2,1336.1 1117.6,1345.1 1104.4,1352.9 1088.6,1359.6 1070.2,1365.1 1048.9,1369.6 1024.7,1373.0 997.5,1375.3 967.1,1376.5 933.5,1376.6 896.4,1375.6 855.6,1373.3 811.1,1369.8 762.5,1365.1 709.7,1359.0 652.3,1351.6 590.3,1342.7 523.3,1332.3 451.0,1320.3  Z" style="stroke-width: 2.0;  stroke: rgb(82,82,82); fill: rgb(0,255,0); opacity: 0.667;" />
<path d="M 451.031,1320.297 A 1064.250,1064.250 0.00 0,1 451.8,1315.9 L 451.8,1315.9 524.6,1327.7 593.3,1336.8 658.3,1343.5 719.7,1348.0 777.7,1350.5 832.7,1351.2 884.9,1350.2 934.4,1347.6 981.5,1343.7 1026.4,1338.5 1069.3,1332.1 1110.4,1324.6 1149.8,1316.1 1187.8,1306.6 1224.5,1296.1 1260.1,1284.8 1294.8,1272.5 1328.6,1259.3 1361.7,1245.1 1394.3,1230.0 1426.5,1213.8 1458.4,1196.4 1490.1,1177.9 1521.8,1158.0 1553.4,1136.6 1585.2,1113.7 1617.1,1089.0 1649.3,1062.5 1681.9,1033.8 1714.8,1002.8 1748.2,969.4 1782.0,933.2 1816.4,894.0 1851.4,851.5 1886.9,805.5 1923.0,755.7 1959.8,701.7 1997.1,643.3 2035.1,580.0  A 1064.250,1064.250 0.00 0,0 2031.2,577.8 L 2031.2,577.8 1993.6,641.2 1956.5,699.8 1919.9,753.9 1884.0,803.9 1848.7,850.0 1813.9,892.6 1779.7,932.0 1746.0,968.3 1712.7,1002.0 1679.9,1033.1 1647.5,1061.9 1615.4,1088.6 1583.6,1113.4 1551.9,1136.4 1520.3,1157.9 1488.8,1177.9 1457.2,1196.6 1425.3,1214.1 1393.2,1230.4 1360.7,1245.7 1327.6,1260.0 1293.8,1273.4 1259.2,1285.8 1223.7,1297.3 1187.0,1307.9 1149.0,1317.5 1109.6,1326.2 1068.6,1333.9 1025.7,1340.4 980.8,1345.8 933.7,1350.0 884.2,1352.7 832.1,1353.9 777.1,1353.5 719.0,1351.3 657.6,1347.0 592.7,1340.6 523.9,1331.8 451.0,1320.3  Z" style="stroke-width: 2.0;  stroke: rgb(82,82,82); fill: rgb(53,128,0); opacity: 0.667;" />
<path d="M 451.031,1320.297 A 1064.250,1064.250 0.00 0,1 451.8,1315.9 L 451.8,1315.9 524.7,1327.7 593.6,1336.7 658.9,1343.3 720.7,1347.7 779.3,1350.1 835.0,1350.7 887.9,1349.6 938.3,1347.1 986.3,1343.2 1032.3,1338.2 1076.4,1332.0 1118.7,1324.9 1159.5,1316.8 1199.0,1307.9 1237.3,1298.1 1274.5,1287.6 1311.0,1276.3 1346.7,1264.2 1381.9,1251.3 1416.7,1237.6 1451.2,1223.0 1485.6,1207.5 1519.9,1190.9 1554.4,1173.1 1589.0,1154.2 1624.0,1133.8 1659.3,1111.8 1695.2,1088.2 1731.6,1062.6 1768.6,1035.0 1806.4,1005.0 1845.0,972.5 1884.4,937.2 1924.7,898.8 1965.9,857.0 2008.1,811.6 2051.3,762.3 2095.6,708.6 2140.9,650.3  A 1064.250,1064.250 0.00 0,0 2137.3,647.7 L 2137.3,647.7 2092.3,706.2 2048.3,760.0 2005.3,809.5 1963.3,855.1 1922.2,897.0 1882.1,935.6 1842.8,971.1 1804.4,1003.7 1766.7,1033.9 1729.8,1061.7 1693.4,1087.4 1657.7,1111.2 1622.4,1133.3 1587.6,1153.8 1553.0,1172.9 1518.6,1190.8 1484.4,1207.5 1450.1,1223.2 1415.6,1238.0 1380.9,1251.8 1345.7,1264.8 1310.1,1277.1 1273.7,1288.5 1236.4,1299.2 1198.2,1309.1 1158.8,1318.2 1118.0,1326.4 1075.7,1333.8 1031.6,1340.1 985.7,1345.4 937.6,1349.4 887.3,1352.2 834.4,1353.5 778.7,1353.1 720.1,1351.0 658.2,1346.8 592.9,1340.5 524.0,1331.7 451.0,1320.3  Z" style="stroke-width: 2.0;  stroke: rgb(82,82,82); fill: rgb(0,0,204); opacity: 0.667;" />
<path d="M 451.031,1320.297 A 1064.250,1064.250 0.00 0,1 451.8,1315.9 L 451.8,1315.9 524.7,1327.7 593.9,1336.7 659.4,1343.2 721.7,1347.5 780.8,1349.8 837.1,1350.4 890.7,1349.4 941.9,1346.9 990.9,1343.2 1037.9,1338.3 1083.0,1332.5 1126.5,1325.8 1168.5,1318.2 1209.3,1310.0 1249.0,1301.0 1287.7,1291.4 1325.8,1281.2 1363.2,1270.4 1400.2,1259.0 1436.8,1246.9 1473.4,1234.1 1509.9,1220.5 1546.5,1206.1 1583.4,1190.7 1620.6,1174.3 1658.3,1156.7 1696.5,1137.7 1735.5,1117.2 1775.2,1095.1 1815.8,1071.0 1857.4,1044.9 1900.0,1016.4 1943.7,985.3 1988.6,951.4 2034.8,914.3 2082.2,873.8 2131.1,829.5 2181.3,781.2 2232.9,728.3  A 1064.250,1064.250 0.00 0,0 2229.7,725.3 L 2229.7,725.3 2178.2,778.3 2128.2,826.9 2079.6,871.3 2032.3,912.1 1986.3,949.3 1941.6,983.5 1898.0,1014.7 1855.5,1043.4 1814.0,1069.7 1773.5,1093.9 1733.9,1116.2 1695.0,1136.9 1656.8,1156.0 1619.2,1173.8 1582.1,1190.4 1545.3,1205.9 1508.7,1220.5 1472.2,1234.2 1435.8,1247.1 1399.1,1259.4 1362.2,1271.0 1324.8,1282.0 1286.9,1292.3 1248.1,1302.1 1208.5,1311.2 1167.7,1319.6 1125.7,1327.3 1082.3,1334.2 1037.2,1340.3 990.3,1345.3 941.3,1349.2 890.1,1351.9 836.5,1353.2 780.2,1352.8 721.1,1350.7 658.8,1346.7 593.2,1340.4 524.0,1331.7 451.0,1320.3  Z" style="stroke-width: 2.0;  stroke: rgb(82,82,82); fill: rgb(102,153,255); opacity: 0.667;" />
<path d="M 2280.512,776.516 A 1064.250,1064.250 0.00 0,1 2283.5,779.8 L 2283.5,779.8 2228.9,828.9 2177.0,873.6 2127.7,914.1 2080.8,950.7 2036.1,983.6 1993.6,1013.1 1953.0,1039.2 1914.3,1062.4 1877.3,1082.6 1841.8,1100.1 1807.8,1115.0 1775.1,1127.5 1743.6,1137.6 1713.2,1145.4 1683.7,1151.1 1655.1,1154.7 1627.2,1156.3 1599.9,1155.8 1573.0,1153.3 1546.6,1148.7 1520.5,1142.2 1494.6,1133.5 1468.8,1122.8 1443.0,1109.9 1417.1,1094.7 1391.0,1077.1 1364.7,1057.1 1338.0,1034.5 1310.9,1009.1 1283.3,980.8 1255.2,949.3 1226.4,914.7 1196.9,876.5 1166.5,834.5 1135.4,788.6 1103.3,738.5 1070.3,683.9 1036.3,624.4 1001.2,559.9  A 1064.250,1064.250 0.00 0,0 997.3,562.0 L 997.3,562.0 1032.7,626.4 1066.9,685.7 1100.2,740.2 1132.5,790.1 1163.8,835.9 1194.3,877.7 1224.0,915.8 1252.9,950.4 1281.2,981.7 1308.9,1009.8 1336.1,1035.1 1362.9,1057.7 1389.3,1077.6 1415.4,1095.0 1441.4,1110.1 1467.2,1122.9 1493.1,1133.6 1519.0,1142.1 1545.2,1148.5 1571.6,1153.0 1598.4,1155.4 1625.7,1155.7 1653.6,1154.1 1682.3,1150.4 1711.7,1144.6 1742.1,1136.6 1773.6,1126.3 1806.2,1113.7 1840.2,1098.7 1875.5,1081.0 1912.5,1060.6 1951.1,1037.4 1991.5,1011.0 2034.0,981.4 2078.5,948.3 2125.2,911.5 2174.4,870.8 2226.1,825.9 2280.5,776.5  Z" style="stroke-width: 2.0;  stroke: rgb(82,82,82); fill: rgb(153,204,255); opacity: 0.667;" />
<path d="M 2280.512,776.516 A 1064.250,1064.250 0.00 0,1 2283.5,779.8 L 2283.5,779.8 2228.7,828.9 2176.2,873.6 2126.0,914.1 2077.8,950.8 2031.5,983.8 1987.1,1013.5 1944.4,1040.1 1903.2,1063.7 1863.5,1084.7 1825.1,1103.1 1787.9,1119.3 1751.8,1133.2 1716.6,1145.0 1682.2,1154.9 1648.6,1163.0 1615.5,1169.3 1582.9,1173.9 1550.5,1176.9 1518.4,1178.2 1486.4,1178.0 1454.3,1176.2 1422.0,1172.7 1389.4,1167.6 1356.4,1160.8 1322.9,1152.3 1288.7,1141.9 1253.7,1129.5 1217.8,1115.0 1180.8,1098.4 1142.7,1079.4 1103.3,1057.8 1062.5,1033.5 1020.2,1006.3 976.2,976.0 930.4,942.3 882.8,904.9 833.1,863.7 781.3,818.2 727.2,768.3  A 1064.250,1064.250 0.00 0,0 724.1,771.5 L 724.1,771.5 778.4,821.3 830.4,866.5 880.3,907.5 928.1,944.7 974.0,978.2 1018.1,1008.4 1060.5,1035.4 1101.4,1059.5 1140.9,1080.9 1179.1,1099.7 1216.1,1116.2 1252.1,1130.5 1287.2,1142.8 1321.4,1153.0 1355.0,1161.4 1388.0,1168.1 1420.6,1173.1 1452.9,1176.4 1485.0,1178.1 1517.1,1178.2 1549.2,1176.7 1581.5,1173.6 1614.1,1168.8 1647.2,1162.4 1680.8,1154.2 1715.1,1144.1 1750.3,1132.1 1786.3,1118.1 1823.4,1101.8 1861.8,1083.2 1901.4,1062.1 1942.4,1038.2 1985.1,1011.5 2029.4,981.6 2075.5,948.4 2123.5,911.5 2173.6,870.8 2225.9,825.9 2280.5,776.5  Z" style="stroke-width: 2.0;  stroke: rgb(82,82,82); fill: rgb(0,255,255); opacity: 0.667;" />
<path d="M 2280.512,776.516 A 1064.250,1064.250 0.00 0,1 2283.5,779.8 L 2283.5,779.8 2229.5,829.2 2179.3,874.6 2132.7,916.2 2089.6,954.1 2049.7,988.7 2013.0,1019.9 1979.2,1048.0 1948.2,1073.2 1919.9,1095.5 1894.2,1115.0 1870.8,1131.9 1849.8,1146.2 1831.1,1158.1 1814.4,1167.6 1799.8,1174.8 1787.2,1179.7 1776.6,1182.3 1767.8,1182.6 1760.9,1180.8 1755.7,1176.6 1752.4,1170.3 1750.9,1161.6 1751.1,1150.7 1753.2,1137.3 1757.0,1121.5 1762.7,1103.2 1770.3,1082.3 1779.8,1058.7 1791.3,1032.3 1804.9,1003.0 1820.6,970.5 1838.4,934.9 1858.7,895.8 1881.3,853.2 1906.4,806.9 1934.3,756.6 1964.9,702.2 1998.4,643.4 2035.1,580.0  A 1064.250,1064.250 0.00 0,0 2031.2,577.8 L 2031.2,577.8 1994.9,641.4 1961.6,700.3 1931.2,754.8 1903.6,805.2 1878.6,851.7 1856.1,894.3 1836.1,933.5 1818.3,969.2 1802.8,1001.7 1789.4,1031.1 1778.0,1057.6 1768.6,1081.2 1761.1,1102.1 1755.5,1120.5 1751.7,1136.3 1749.7,1149.6 1749.5,1160.6 1751.1,1169.2 1754.4,1175.6 1759.5,1179.7 1766.5,1181.5 1775.2,1181.1 1785.9,1178.5 1798.5,1173.6 1813.0,1166.3 1829.6,1156.8 1848.4,1144.8 1869.3,1130.4 1892.6,1113.4 1918.3,1093.7 1946.5,1071.3 1977.3,1046.1 2011.0,1017.8 2047.6,986.4 2087.3,951.7 2130.3,913.5 2176.7,871.8 2226.7,826.2 2280.5,776.5  Z" style="stroke-width: 2.0;  stroke: rgb(82,82,82); fill: rgb(204,255,255); opacity: 0.667;" />
<path d="M 2280.512,776.516 A 1064.250,1064.250 0.00 0,1 2283.5,779.8 L 2283.5,779.8 2229.5,829.2 2179.5,874.8 2133.2,916.6 2090.5,954.9 2051.1,989.8 2014.9,1021.5 1981.8,1050.1 1951.6,1075.9 1924.2,1098.8 1899.4,1119.1 1877.2,1136.8 1857.4,1152.0 1839.9,1164.8 1824.6,1175.3 1811.5,1183.5 1800.6,1189.5 1791.7,1193.3 1784.8,1195.0 1779.9,1194.4 1777.0,1191.8 1776.0,1187.0 1776.9,1179.9 1779.9,1170.7 1784.8,1159.2 1791.7,1145.4 1800.6,1129.2 1811.7,1110.6 1824.9,1089.4 1840.4,1065.5 1858.1,1038.9 1878.3,1009.4 1901.0,976.8 1926.3,941.1 1954.4,902.0 1985.3,859.4 2019.3,813.2 2056.4,763.1 2096.9,708.9 2140.9,650.3  A 1064.250,1064.250 0.00 0,0 2137.3,647.7 L 2137.3,647.7 2093.6,706.4 2053.3,760.8 2016.4,811.0 1982.6,857.4 1951.9,900.1 1924.0,939.3 1898.8,975.1 1876.3,1007.8 1856.2,1037.4 1838.6,1064.1 1823.2,1088.0 1810.1,1109.3 1799.1,1128.0 1790.2,1144.2 1783.4,1158.0 1778.5,1169.6 1775.6,1178.8 1774.7,1185.8 1775.7,1190.6 1778.6,1193.3 1783.5,1193.8 1790.4,1192.1 1799.3,1188.3 1810.2,1182.2 1823.3,1174.0 1838.5,1163.4 1855.9,1150.5 1875.7,1135.2 1897.9,1117.4 1922.5,1097.1 1949.9,1074.0 1980.0,1048.1 2013.0,1019.4 2049.0,987.5 2088.2,952.4 2130.8,914.0 2176.9,871.9 2226.7,826.2 2280.5,776.5  Z" style="stroke-width: 2.0;  stroke: rgb(82,82,82); fill: rgb(153,0,204); opacity: 0.667;" />
<path d="M 2280.512,776.516 A 1064.250,1064.250 0.00 0,1 2283.5,779.8 L 2283.5,779.8 2229.6,829.3 2179.7,875.0 2133.7,917.0 2091.3,955.6 2052.3,990.9 2016.7,1023.1 1984.2,1052.3 1954.7,1078.7 1928.0,1102.3 1904.1,1123.4 1882.8,1141.9 1864.0,1158.1 1847.7,1171.9 1833.6,1183.4 1821.9,1192.8 1812.4,1200.0 1805.0,1205.2 1799.8,1208.2 1796.7,1209.2 1795.6,1208.1 1796.7,1205.0 1799.8,1199.8 1805.0,1192.6 1812.4,1183.1 1822.0,1171.6 1833.8,1157.7 1847.8,1141.6 1864.3,1123.1 1883.2,1102.1 1904.6,1078.5 1928.7,1052.3 1955.5,1023.2 1985.3,991.2 2018.0,956.1 2054.0,917.7 2093.3,875.9 2136.1,830.6 2182.5,781.5 2232.9,728.3  A 1064.250,1064.250 0.00 0,0 2229.7,725.3 L 2229.7,725.3 2179.5,778.6 2133.2,827.9 2090.6,873.4 2051.5,915.4 2015.7,953.9 1983.1,989.1 1953.5,1021.3 1926.8,1050.4 1902.8,1076.8 1881.5,1100.5 1862.7,1121.5 1846.3,1140.1 1832.3,1156.3 1820.6,1170.2 1811.1,1181.8 1803.7,1191.3 1798.5,1198.6 1795.4,1203.8 1794.4,1206.9 1795.4,1208.0 1798.6,1206.9 1803.8,1203.9 1811.1,1198.7 1820.6,1191.5 1832.3,1182.0 1846.3,1170.4 1862.6,1156.5 1881.3,1140.3 1902.5,1121.7 1926.4,1100.6 1952.9,1076.8 1982.3,1050.3 2014.7,1021.0 2050.2,988.6 2089.0,953.2 2131.2,914.4 2177.1,872.1 2226.8,826.2 2280.5,776.5  Z" style="stroke-width: 2.0;  stroke: rgb(82,82,82); fill: rgb(204,51,255); opacity: 0.667;" />
<path d="M 2280.512,776.516 A 1064.250,1064.250 0.00 0,1 2283.5,779.8 L 2283.5,779.8 2228.4,829.0 2174.9,873.9 2123.0,914.8 2072.7,952.1 2023.9,986.1 1976.4,1017.2 1930.4,1045.5 1885.6,1071.3 1842.0,1095.0 1799.4,1116.7 1757.9,1136.6 1717.3,1155.0 1677.4,1172.0 1638.2,1187.8 1599.6,1202.6 1561.4,1216.4 1523.6,1229.4 1485.9,1241.7 1448.3,1253.3 1410.5,1264.4 1372.6,1274.9 1334.2,1284.8 1295.3,1294.3 1255.7,1303.2 1215.3,1311.6 1173.7,1319.5 1131.0,1326.6 1086.8,1333.0 1041.1,1338.6 993.6,1343.3 944.1,1346.9 892.4,1349.3 838.4,1350.3 781.7,1349.7 722.3,1347.4 659.8,1343.1 594.0,1336.6 524.8,1327.6 451.8,1315.9  A 1064.250,1064.250 0.00 0,0 451.0,1320.3 L 451.0,1320.3 524.1,1331.7 593.4,1340.4 659.1,1346.6 721.7,1350.6 781.1,1352.7 837.8,1353.0 891.8,1351.8 943.5,1349.2 993.0,1345.4 1040.5,1340.5 1086.2,1334.8 1130.3,1328.1 1173.0,1320.8 1214.5,1312.8 1254.9,1304.3 1294.5,1295.2 1333.3,1285.5 1371.7,1275.4 1409.6,1264.7 1447.2,1253.5 1484.8,1241.7 1522.5,1229.3 1560.3,1216.2 1598.4,1202.2 1636.9,1187.3 1676.0,1171.3 1715.8,1154.1 1756.4,1135.5 1797.8,1115.4 1840.3,1093.6 1883.8,1069.7 1928.5,1043.7 1974.4,1015.2 2021.7,984.0 2070.4,949.8 2120.6,912.2 2172.3,871.1 2225.6,826.0 2280.5,776.5  Z" style="stroke-width: 2.0;  stroke: rgb(82,82,82); fill: rgb(204,153,255); opacity: 0.667;" />
<path d="M 444.471,1364.038 A 1064.250,1064.250 0.00 0,1 445.0,1359.7 L 445.0,1359.7 517.8,1368.8 585.5,1376.1 648.4,1381.7 706.8,1385.8 760.9,1388.3 811.0,1389.4 857.2,1389.2 899.9,1387.6 939.1,1384.7 975.2,1380.7 1008.2,1375.4 1038.3,1368.9 1065.8,1361.2 1090.6,1352.3 1113.0,1342.3 1133.0,1331.0 1150.8,1318.5 1166.4,1304.7 1179.9,1289.6 1191.4,1273.2 1200.8,1255.3 1208.3,1235.8 1213.8,1214.8 1217.4,1192.1 1219.0,1167.6 1218.7,1141.3 1216.4,1112.9 1211.9,1082.4 1205.4,1049.6 1196.7,1014.3 1185.7,976.5 1172.3,936.0 1156.5,892.5 1138.0,846.0 1116.8,796.2 1092.7,742.9 1065.5,685.9 1035.1,624.9 1001.2,559.9  A 1064.250,1064.250 0.00 0,0 997.3,562.0 L 997.3,562.0 1031.4,626.9 1062.1,687.7 1089.5,744.6 1113.9,797.8 1135.3,847.5 1154.0,894.0 1170.0,937.4 1183.5,977.8 1194.7,1015.6 1203.6,1050.8 1210.2,1083.6 1214.7,1114.1 1217.2,1142.4 1217.7,1168.8 1216.1,1193.3 1212.6,1216.0 1207.2,1237.0 1199.8,1256.5 1190.4,1274.4 1179.0,1291.0 1165.6,1306.1 1150.1,1320.0 1132.3,1332.5 1112.4,1343.9 1090.0,1354.0 1065.2,1363.0 1037.8,1370.8 1007.7,1377.4 974.7,1382.8 938.6,1387.1 899.4,1390.1 856.8,1391.8 810.5,1392.3 760.4,1391.4 706.3,1389.1 647.9,1385.3 585.0,1379.9 517.3,1372.8 444.5,1364.0  Z" style="stroke-width: 2.0;  stroke: rgb(82,82,82); fill: rgb(102,102,102); opacity: 0.667;" />
<path d="M 444.471,1364.038 A 1064.250,1064.250 0.00 0,1 445.0,1359.7 L 445.0,1359.7 517.7,1368.9 585.1,1376.8 647.5,1383.2 705.1,1388.4 758.2,1392.2 807.1,1394.9 851.9,1396.5 892.9,1396.9 930.2,1396.3 964.1,1394.6 994.6,1391.9 1022.0,1388.1 1046.4,1383.4 1067.9,1377.6 1086.5,1370.9 1102.5,1363.1 1115.9,1354.2 1126.7,1344.3 1134.9,1333.3 1140.8,1321.1 1144.1,1307.7 1145.0,1293.1 1143.5,1277.2 1139.5,1259.8 1133.0,1241.1 1124.0,1220.8 1112.4,1198.8 1098.0,1175.2 1080.9,1149.7 1060.9,1122.4 1037.9,1092.9 1011.8,1061.4 982.4,1027.5 949.6,991.2 913.2,952.4 872.9,910.8 828.6,866.4 780.2,818.9 727.2,768.3  A 1064.250,1064.250 0.00 0,0 724.1,771.5 L 724.1,771.5 777.3,822.0 826.0,869.2 870.4,913.5 910.8,954.8 947.4,993.5 980.4,1029.7 1010.0,1063.4 1036.2,1094.9 1059.3,1124.2 1079.4,1151.5 1096.7,1176.9 1111.1,1200.5 1122.8,1222.4 1131.9,1242.6 1138.5,1261.4 1142.6,1278.7 1144.2,1294.6 1143.3,1309.2 1140.0,1322.6 1134.2,1334.8 1126.0,1345.9 1115.3,1355.8 1101.9,1364.7 1086.0,1372.6 1067.4,1379.4 1045.9,1385.3 1021.6,1390.1 994.2,1394.0 963.7,1396.8 929.8,1398.6 892.5,1399.4 851.5,1399.2 806.7,1397.8 757.8,1395.3 704.7,1391.7 647.0,1386.8 584.6,1380.6 517.2,1373.0 444.5,1364.0  Z" style="stroke-width: 2.0;  stroke: rgb(82,82,82); fill: rgb(153,153,153); opacity: 0.667;" />
<path d="M 444.471,1364.038 A 1064.250,1064.250 0.00 0,1 445.0,1359.7 L 445.0,1359.7 518.3,1368.4 587.4,1374.6 652.7,1378.6 714.4,1380.5 772.7,1380.5 827.9,1378.8 880.2,1375.6 929.9,1371.0 977.1,1365.1 1022.1,1358.0 1065.1,1349.9 1106.3,1340.8 1145.9,1330.8 1184.0,1319.9 1220.8,1308.1 1256.5,1295.5 1291.2,1282.1 1325.2,1267.9 1358.4,1252.7 1391.2,1236.7 1423.5,1219.6 1455.6,1201.5 1487.5,1182.3 1519.3,1161.8 1551.1,1139.9 1583.1,1116.4 1615.2,1091.3 1647.7,1064.3 1680.4,1035.3 1713.5,1004.0 1747.1,970.3 1781.2,933.8 1815.8,894.4 1850.9,851.8 1886.6,805.7 1922.8,755.8 1959.7,701.8 1997.1,643.3 2035.1,580.0  A 1064.250,1064.250 0.00 0,0 2031.2,577.8 L 2031.2,577.8 1993.5,641.2 1956.4,699.9 1919.8,754.0 1883.7,804.1 1848.2,850.4 1813.3,893.1 1778.8,932.7 1744.9,969.3 1711.5,1003.1 1678.5,1034.5 1645.8,1063.7 1613.5,1090.8 1581.5,1116.1 1549.6,1139.6 1517.9,1161.7 1486.2,1182.3 1454.4,1201.7 1422.4,1220.0 1390.1,1237.1 1357.4,1253.3 1324.2,1268.6 1290.3,1283.0 1255.6,1296.5 1220.0,1309.3 1183.2,1321.2 1145.2,1332.3 1105.7,1342.5 1064.5,1351.7 1021.6,1360.0 976.6,1367.3 929.3,1373.3 879.7,1378.2 827.4,1381.6 772.2,1383.5 713.9,1383.7 652.2,1382.1 586.9,1378.4 517.8,1372.4 444.5,1364.0  Z" style="stroke-width: 2.0;  stroke: rgb(82,82,82); fill: rgb(204,204,204); opacity: 0.667;" />
<path d="M 444.471,1364.038 A 1064.250,1064.250 0.00 0,1 445.0,1359.7 L 445.0,1359.7 518.4,1368.3 587.7,1374.5 653.3,1378.4 715.4,1380.1 774.3,1380.1 830.1,1378.3 883.2,1375.0 933.7,1370.4 981.9,1364.6 1028.0,1357.7 1072.2,1349.8 1114.6,1341.0 1155.5,1331.4 1195.1,1321.0 1233.5,1310.0 1270.9,1298.2 1307.4,1285.8 1343.3,1272.6 1378.6,1258.8 1413.5,1244.2 1448.2,1228.7 1482.7,1212.4 1517.2,1195.2 1551.8,1176.8 1586.7,1157.3 1621.8,1136.4 1657.4,1114.0 1693.5,1089.9 1730.1,1064.0 1767.4,1036.1 1805.4,1005.8 1844.1,973.1 1883.7,937.6 1924.2,899.1 1965.6,857.2 2007.9,811.7 2051.3,762.3 2095.6,708.6 2140.9,650.3  A 1064.250,1064.250 0.00 0,0 2137.3,647.7 L 2137.3,647.7 2092.3,706.2 2048.2,760.0 2005.1,809.6 1962.9,855.3 1921.7,897.3 1881.4,936.0 1841.9,971.7 1803.3,1004.6 1765.4,1035.0 1728.3,1063.1 1691.8,1089.1 1655.8,1113.3 1620.3,1135.9 1585.3,1156.9 1550.5,1176.6 1516.0,1195.1 1481.5,1212.5 1447.0,1229.0 1412.4,1244.5 1377.6,1259.3 1342.3,1273.3 1306.5,1286.6 1270.0,1299.2 1232.7,1311.1 1194.4,1322.3 1154.8,1332.8 1114.0,1342.6 1071.6,1351.6 1027.4,1359.6 981.4,1366.7 933.2,1372.8 882.7,1377.6 829.6,1381.1 773.8,1383.1 714.9,1383.4 652.8,1381.9 587.2,1378.3 517.8,1372.4 444.5,1364.0  Z" style="stroke-width: 2.0;  stroke: rgb(82,82,82); fill: rgb(204,204,153); opacity: 0.667;" />
<path d="M 444.471,1364.038 A 1064.250,1064.250 0.00 0,1 445.0,1359.7 L 445.0,1359.7 518.4,1368.3 588.0,1374.4 653.9,1378.2 716.4,1379.9 775.8,1379.8 832.3,1378.0 886.1,1374.7 937.4,1370.2 986.5,1364.5 1033.5,1357.8 1078.8,1350.2 1122.4,1341.8 1164.5,1332.8 1205.4,1323.1 1245.1,1312.8 1284.0,1302.0 1322.1,1290.6 1359.7,1278.7 1396.8,1266.3 1433.6,1253.3 1470.3,1239.7 1506.9,1225.3 1543.7,1210.2 1580.8,1194.3 1618.2,1177.3 1656.1,1159.2 1694.6,1139.8 1733.8,1118.9 1773.7,1096.4 1814.6,1072.1 1856.3,1045.7 1899.1,1017.0 1943.1,985.7 1988.2,951.7 2034.5,914.5 2082.0,873.9 2131.0,829.6 2181.2,781.2 2232.9,728.3  A 1064.250,1064.250 0.00 0,0 2229.7,725.3 L 2229.7,725.3 2178.2,778.3 2128.1,826.9 2079.4,871.4 2032.0,912.2 1985.8,949.6 1940.9,983.9 1897.1,1015.3 1854.4,1044.2 1812.7,1070.7 1772.0,1095.3 1732.2,1117.9 1693.1,1138.9 1654.7,1158.5 1616.8,1176.8 1579.5,1193.9 1542.5,1210.0 1505.8,1225.3 1469.2,1239.8 1432.6,1253.6 1395.8,1266.7 1358.7,1279.3 1321.3,1291.3 1283.2,1302.8 1244.4,1313.8 1204.6,1324.3 1163.8,1334.1 1121.7,1343.4 1078.1,1351.9 1033.0,1359.7 985.9,1366.6 936.9,1372.5 885.5,1377.3 831.8,1380.7 775.3,1382.8 715.9,1383.2 653.4,1381.7 587.4,1378.2 517.9,1372.4 444.5,1364.0  Z" style="stroke-width: 2.0;  stroke: rgb(82,82,82); fill: rgb(251,106,74); opacity: 0.667;" />
<path d="M 444.471,1364.038 A 1064.250,1064.250 0.00 0,1 445.0,1359.7 L 445.0,1359.7 517.6,1369.3 584.7,1378.1 646.5,1386.2 703.4,1393.6 755.5,1400.3 803.1,1406.4 846.5,1411.9 885.7,1416.8 921.1,1421.1 952.7,1424.8 980.7,1428.1 1005.3,1430.9 1026.6,1433.1 1044.6,1434.9 1059.5,1436.3 1071.4,1437.1 1080.3,1437.6 1086.2,1437.6 1089.3,1437.1 1089.4,1436.2 1086.6,1434.9 1081.0,1433.1 1072.4,1430.8 1060.8,1428.1 1046.2,1424.8 1028.4,1421.1 1007.5,1416.9 983.2,1412.1 955.5,1406.7 924.2,1400.8 889.2,1394.3 850.3,1387.1 807.3,1379.3 760.1,1370.7 708.3,1361.4 651.9,1351.3 590.5,1340.4 523.9,1328.6 451.8,1315.9  A 1064.250,1064.250 0.00 0,0 451.0,1320.3 L 451.0,1320.3 523.2,1332.7 589.8,1344.2 651.3,1354.8 707.8,1364.7 759.5,1373.8 806.8,1382.1 849.8,1389.8 888.7,1396.8 923.8,1403.2 955.1,1409.0 982.8,1414.2 1007.1,1418.9 1028.1,1423.1 1045.9,1426.7 1060.5,1429.9 1072.1,1432.6 1080.7,1434.8 1086.4,1436.6 1089.1,1437.9 1089.0,1438.8 1086.0,1439.3 1080.0,1439.3 1071.1,1438.9 1059.3,1438.1 1044.3,1436.8 1026.3,1435.1 1005.0,1432.9 980.4,1430.3 952.4,1427.1 920.7,1423.5 885.4,1419.3 846.1,1414.6 802.7,1409.3 755.1,1403.4 702.9,1396.9 646.0,1389.8 584.2,1381.9 517.1,1373.4 444.5,1364.0  Z" style="stroke-width: 2.0;  stroke: rgb(82,82,82); fill: rgb(116,196,118); opacity: 0.667;" />
<path d="M 444.471,1364.038 A 1064.250,1064.250 0.00 0,1 445.0,1359.7 L 445.0,1359.7 518.5,1368.3 588.1,1374.4 654.2,1378.1 717.0,1379.8 776.7,1379.6 833.5,1377.8 887.7,1374.6 939.6,1370.1 989.2,1364.6 1036.8,1358.0 1082.6,1350.7 1126.9,1342.6 1169.7,1333.9 1211.3,1324.7 1251.9,1314.9 1291.6,1304.7 1330.6,1294.1 1369.1,1283.1 1407.1,1271.6 1445.0,1259.7 1482.8,1247.2 1520.6,1234.2 1558.7,1220.5 1597.0,1206.1 1635.8,1190.7 1675.2,1174.4 1715.3,1157.0 1756.2,1138.2 1797.9,1117.9 1840.7,1096.0 1884.5,1072.1 1929.5,1046.0 1975.8,1017.5 2023.4,986.4 2072.3,952.3 2122.8,914.9 2174.8,873.9 2228.3,829.0 2283.5,779.8  A 1064.250,1064.250 0.00 0,0 2280.5,776.5 L 2280.5,776.5 2225.5,826.0 2172.2,871.1 2120.4,912.3 2070.1,949.9 2021.2,984.2 1973.8,1015.6 1927.6,1044.2 1882.7,1070.5 1839.0,1094.6 1796.3,1116.7 1754.6,1137.2 1713.9,1156.1 1673.9,1173.7 1634.6,1190.2 1595.8,1205.7 1557.5,1220.2 1519.5,1234.1 1481.7,1247.3 1444.0,1259.9 1406.2,1272.0 1368.2,1283.6 1329.7,1294.8 1290.8,1305.6 1251.1,1316.0 1210.6,1325.9 1169.0,1335.3 1126.2,1344.1 1082.0,1352.4 1036.2,1359.9 988.6,1366.7 939.0,1372.5 887.2,1377.2 833.0,1380.6 776.2,1382.6 716.5,1383.0 653.7,1381.6 587.6,1378.2 517.9,1372.4 444.5,1364.0  Z" style="stroke-width: 2.0;  stroke: rgb(82,82,82); fill: rgb(107,174,214); opacity: 0.667;" />
<path d="M 968.490,2422.023 A 1064.250,1064.250 0.00 0,1 964.6,2419.8 L 964.6,2419.8 1000.8,2355.4 1033.2,2293.7 1062.0,2234.5 1087.6,2177.7 1110.2,2123.2 1130.1,2070.7 1147.6,2020.2 1162.9,1971.5 1176.3,1924.5 1187.8,1879.0 1197.8,1834.9 1206.3,1792.0 1213.5,1750.2 1219.6,1709.3 1224.6,1669.2 1228.6,1629.8 1231.8,1590.9 1234.1,1552.3 1235.6,1514.0 1236.4,1475.7 1236.4,1437.3 1235.6,1398.6 1233.9,1359.6 1231.5,1320.1 1228.0,1279.8 1223.6,1238.8 1218.0,1196.7 1211.2,1153.5 1203.0,1109.0 1193.2,1063.1 1181.8,1015.6 1168.4,966.3 1152.9,915.2 1135.0,862.0 1114.5,806.6 1091.2,748.8 1064.8,688.6 1034.9,625.6 1001.2,559.9  A 1064.250,1064.250 0.00 0,0 997.3,562.0 L 997.3,562.0 1031.2,627.6 1061.4,690.4 1088.1,750.5 1111.7,808.2 1132.4,863.5 1150.4,916.6 1166.2,967.7 1179.7,1016.9 1191.4,1064.4 1201.4,1110.3 1209.8,1154.7 1216.8,1197.9 1222.5,1239.9 1227.1,1281.0 1230.7,1321.2 1233.4,1360.7 1235.1,1399.7 1236.1,1438.4 1236.3,1476.8 1235.7,1515.1 1234.3,1553.4 1232.2,1592.0 1229.2,1630.9 1225.3,1670.4 1220.5,1710.5 1214.6,1751.4 1207.5,1793.2 1199.2,1836.1 1189.4,1880.3 1178.1,1925.9 1164.9,1972.9 1149.8,2021.7 1132.5,2072.3 1112.8,2124.8 1090.4,2179.5 1065.1,2236.4 1036.5,2295.7 1004.4,2357.5 968.5,2422.0  Z" style="stroke-width: 2.0;  stroke: rgb(82,82,82); fill: rgb(253,141,60); opacity: 0.667;" />
<path d="M 968.490,2422.023 A 1064.250,1064.250 0.00 0,1 964.6,2419.8 L 964.6,2419.8 1000.8,2355.6 1033.2,2294.5 1061.9,2236.2 1087.4,2180.6 1109.7,2127.6 1129.3,2076.9 1146.2,2028.4 1160.7,1982.0 1173.0,1937.4 1183.2,1894.5 1191.5,1853.1 1198.0,1813.2 1202.9,1774.5 1206.2,1736.8 1208.0,1700.2 1208.5,1664.3 1207.5,1629.2 1205.3,1594.5 1201.7,1560.2 1196.8,1526.2 1190.6,1492.3 1183.0,1458.4 1174.0,1424.4 1163.5,1390.1 1151.4,1355.5 1137.6,1320.3 1122.0,1284.6 1104.5,1248.1 1084.9,1210.7 1063.0,1172.5 1038.7,1133.1 1011.7,1092.6 981.8,1050.8 948.8,1007.7 912.4,963.1 872.3,917.0 828.3,869.2 780.1,819.6 727.2,768.3  A 1064.250,1064.250 0.00 0,0 724.1,771.5 L 724.1,771.5 777.2,822.7 825.7,872.0 869.9,919.6 910.1,965.6 946.7,1010.0 979.9,1053.0 1010.0,1094.7 1037.1,1135.1 1061.7,1174.3 1083.7,1212.5 1103.5,1249.7 1121.1,1286.2 1136.9,1321.9 1150.8,1357.0 1163.0,1391.6 1173.7,1425.8 1182.8,1459.8 1190.6,1493.6 1196.9,1527.5 1202.0,1561.5 1205.7,1595.7 1208.1,1630.4 1209.2,1665.6 1208.9,1701.4 1207.2,1738.1 1204.1,1775.7 1199.3,1814.4 1193.0,1854.4 1184.9,1895.8 1174.8,1938.7 1162.7,1983.4 1148.4,2029.9 1131.7,2078.5 1112.4,2129.3 1090.3,2182.4 1065.1,2238.1 1036.5,2296.4 1004.5,2357.7 968.5,2422.0  Z" style="stroke-width: 2.0;  stroke: rgb(82,82,82); fill: rgb(255,0,0); opacity: 0.667;" />
<path d="M 968.490,2422.023 A 1064.250,1064.250 0.00 0,1 964.6,2419.8 L 964.6,2419.8 1001.0,2354.8 1034.0,2291.5 1063.9,2229.8 1091.1,2169.8 1116.0,2111.5 1139.0,2055.0 1160.3,2000.1 1180.3,1946.9 1199.3,1895.3 1217.5,1845.4 1235.3,1797.0 1252.7,1750.2 1270.2,1704.8 1287.8,1660.8 1305.8,1618.1 1324.3,1576.6 1343.5,1536.2 1363.5,1496.8 1384.5,1458.2 1406.6,1420.3 1429.8,1383.0 1454.2,1346.0 1479.8,1309.4 1506.7,1272.8 1535.0,1236.0 1564.5,1199.0 1595.4,1161.4 1627.4,1123.1 1660.7,1083.8 1695.1,1043.3 1730.6,1001.3 1766.9,957.6 1804.1,911.9 1841.9,864.0 1880.3,813.5 1919.0,760.2 1957.8,703.7 1996.6,643.8 2035.1,580.0  A 1064.250,1064.250 0.00 0,0 2031.2,577.8 L 2031.2,577.8 1993.0,641.7 1954.5,701.8 1915.9,758.5 1877.4,812.0 1839.3,862.6 1801.7,910.7 1764.7,956.5 1728.5,1000.3 1693.2,1042.4 1659.0,1083.1 1625.9,1122.5 1593.9,1161.0 1563.3,1198.7 1533.9,1235.9 1505.8,1272.7 1479.0,1309.5 1453.5,1346.2 1429.3,1383.3 1406.3,1420.7 1384.4,1458.7 1363.5,1497.3 1343.7,1536.9 1324.6,1577.4 1306.3,1619.0 1288.5,1661.7 1271.0,1705.8 1253.8,1751.3 1236.5,1798.2 1219.0,1846.6 1201.0,1896.6 1182.2,1948.2 1162.5,2001.5 1141.4,2056.5 1118.6,2113.2 1094.0,2171.6 1067.0,2231.7 1037.3,2293.5 1004.6,2356.9 968.5,2422.0  Z" style="stroke-width: 2.0;  stroke: rgb(82,82,82); fill: rgb(255,0,204); opacity: 0.667;" />
<path d="M 968.490,2422.023 A 1064.250,1064.250 0.00 0,1 964.6,2419.8 L 964.6,2419.8 1003.1,2356.1 1041.8,2296.3 1080.5,2240.2 1119.1,2187.2 1157.3,2137.3 1195.1,2089.9 1232.3,2044.9 1268.7,2001.9 1304.3,1960.7 1339.0,1921.1 1372.7,1882.7 1405.3,1845.3 1436.8,1808.8 1467.2,1772.8 1496.5,1737.2 1524.7,1701.8 1551.9,1666.3 1578.0,1630.7 1603.1,1594.8 1627.3,1558.4 1650.7,1521.3 1673.5,1483.4 1695.6,1444.7 1717.4,1405.0 1738.9,1364.2 1760.3,1322.2 1781.8,1279.0 1803.6,1234.5 1826.0,1188.6 1849.1,1141.2 1873.3,1092.5 1898.8,1042.3 1925.9,990.6 1955.0,937.4 1986.2,882.8 2020.1,826.7 2056.9,769.3 2097.0,710.4 2140.9,650.3  A 1064.250,1064.250 0.00 0,0 2137.3,647.7 L 2137.3,647.7 2093.8,708.0 2053.9,767.0 2017.3,824.6 1983.7,880.8 1952.6,935.5 1923.8,988.8 1896.9,1040.6 1871.6,1090.9 1847.6,1139.8 1824.7,1187.2 1802.5,1233.2 1780.8,1277.8 1759.5,1321.2 1738.3,1363.2 1717.0,1404.1 1695.4,1443.9 1673.4,1482.7 1650.8,1520.7 1627.6,1557.8 1603.5,1594.4 1578.5,1630.4 1552.6,1666.1 1525.6,1701.7 1497.5,1737.2 1468.4,1772.9 1438.1,1809.0 1406.7,1845.7 1374.3,1883.2 1340.8,1921.8 1306.3,1961.6 1270.8,2002.9 1234.6,2046.0 1197.6,2091.2 1160.0,2138.7 1122.0,2188.8 1083.6,2241.9 1045.1,2298.3 1006.7,2358.2 968.5,2422.0  Z" style="stroke-width: 2.0;  stroke: rgb(82,82,82); fill: rgb(255,204,204); opacity: 0.667;" />
<path d="M 968.490,2422.023 A 1064.250,1064.250 0.00 0,1 964.6,2419.8 L 964.6,2419.8 1003.0,2356.1 1041.6,2296.6 1080.2,2240.7 1118.7,2188.1 1156.8,2138.6 1194.4,2091.8 1231.5,2047.4 1268.0,2005.1 1303.6,1964.7 1338.5,1925.9 1372.4,1888.4 1405.5,1852.0 1437.6,1816.5 1468.7,1781.6 1498.9,1747.2 1528.2,1713.1 1556.6,1679.0 1584.1,1644.8 1610.9,1610.4 1637.0,1575.6 1662.6,1540.2 1687.7,1504.2 1712.4,1467.4 1737.0,1429.7 1761.6,1391.1 1786.3,1351.4 1811.4,1310.6 1837.1,1268.7 1863.6,1225.6 1891.1,1181.3 1919.9,1135.7 1950.2,1088.9 1982.5,1040.9 2016.8,991.6 2053.7,941.1 2093.4,889.5 2136.2,836.8 2182.6,783.1 2232.9,728.3  A 1064.250,1064.250 0.00 0,0 2229.7,725.3 L 2229.7,725.3 2179.6,780.2 2133.4,834.1 2090.8,887.0 2051.3,938.8 2014.7,989.4 1980.5,1038.8 1948.5,1087.0 1918.3,1134.0 1889.7,1179.7 1862.4,1224.1 1836.1,1267.3 1810.6,1309.3 1785.7,1350.2 1761.1,1390.0 1736.7,1428.7 1712.3,1466.5 1687.7,1503.4 1662.8,1539.5 1637.4,1575.0 1611.4,1609.9 1584.7,1644.5 1557.3,1678.8 1529.1,1713.0 1500.0,1747.2 1469.9,1781.8 1438.9,1816.8 1407.0,1852.4 1374.1,1888.9 1340.3,1926.5 1305.6,1965.5 1270.1,2006.1 1233.9,2048.5 1196.9,2093.0 1159.5,2140.0 1121.6,2189.7 1083.4,2242.4 1045.0,2298.5 1006.6,2358.2 968.5,2422.0  Z" style="stroke-width: 2.0;  stroke: rgb(82,82,82); fill: rgb(255,153,0); opacity: 0.667;" />
<path d="M 968.490,2422.023 A 1064.250,1064.250 0.00 0,1 964.6,2419.8 L 964.6,2419.8 1000.9,2355.9 1033.5,2295.8 1062.6,2239.2 1088.4,2185.9 1111.1,2135.7 1130.8,2088.4 1147.8,2043.9 1162.2,2001.8 1174.1,1962.2 1183.6,1924.8 1190.9,1889.4 1196.1,1856.0 1199.2,1824.3 1200.2,1794.2 1199.3,1765.7 1196.5,1738.5 1191.7,1712.6 1185.0,1687.8 1176.4,1664.2 1165.8,1641.4 1153.3,1619.6 1138.7,1598.5 1122.0,1578.1 1103.0,1558.4 1081.8,1539.3 1058.2,1520.8 1032.0,1502.7 1003.1,1485.0 971.3,1467.8 936.6,1451.0 898.6,1434.5 857.2,1418.4 812.2,1402.6 763.3,1387.2 710.3,1372.2 653.0,1357.5 590.9,1343.2 524.0,1329.3 451.8,1315.9  A 1064.250,1064.250 0.00 0,0 451.0,1320.3 L 451.0,1320.3 523.3,1333.4 590.3,1347.0 652.4,1361.0 709.8,1375.4 762.9,1390.3 811.8,1405.5 856.9,1421.1 898.3,1437.0 936.4,1453.3 971.2,1470.0 1003.0,1487.1 1032.0,1504.6 1058.3,1522.6 1082.0,1541.1 1103.3,1560.1 1122.3,1579.7 1139.1,1600.0 1153.8,1621.0 1166.4,1642.8 1177.1,1665.5 1185.8,1689.2 1192.6,1713.9 1197.5,1739.8 1200.4,1766.9 1201.5,1795.5 1200.5,1825.5 1197.6,1857.2 1192.6,1890.7 1185.4,1926.1 1176.0,1963.6 1164.3,2003.3 1150.1,2045.3 1133.3,2090.0 1113.8,2137.4 1091.3,2187.7 1065.7,2241.1 1036.9,2297.8 1004.5,2358.0 968.5,2422.0  Z" style="stroke-width: 2.0;  stroke: rgb(82,82,82); fill: rgb(255,204,0); opacity: 0.667;" />
<path d="M 968.490,2422.023 A 1064.250,1064.250 0.00 0,1 964.6,2419.8 L 964.6,2419.8 1003.0,2356.2 1041.5,2296.7 1080.0,2240.9 1118.4,2188.6 1156.4,2139.3 1194.0,2092.9 1231.0,2048.8 1267.4,2007.0 1303.1,1967.1 1338.0,1928.8 1372.1,1891.8 1405.3,1856.1 1437.7,1821.2 1469.2,1787.1 1499.9,1753.4 1529.8,1720.1 1558.8,1686.9 1587.2,1653.7 1614.9,1620.2 1642.1,1586.4 1668.8,1552.2 1695.2,1517.4 1721.4,1481.9 1747.5,1445.6 1773.8,1408.4 1800.4,1370.3 1827.5,1331.2 1855.3,1291.0 1884.0,1249.8 1913.9,1207.5 1945.3,1164.1 1978.4,1119.5 2013.4,1073.9 2050.8,1027.2 2090.7,979.6 2133.6,930.9 2179.8,881.3 2229.6,830.9 2283.5,779.8  A 1064.250,1064.250 0.00 0,0 2280.5,776.5 L 2280.5,776.5 2226.9,827.9 2177.2,878.5 2131.2,928.3 2088.6,977.1 2048.8,1025.0 2011.6,1071.8 1976.8,1117.6 1943.9,1162.2 1912.7,1205.8 1883.0,1248.2 1854.4,1289.5 1826.8,1329.8 1799.9,1369.0 1773.4,1407.2 1747.3,1444.5 1721.3,1480.9 1695.2,1516.6 1669.0,1551.5 1642.4,1585.9 1615.4,1619.7 1587.8,1653.3 1559.6,1686.7 1530.7,1720.0 1501.0,1753.4 1470.5,1787.2 1439.1,1821.5 1406.9,1856.5 1373.8,1892.4 1339.8,1929.4 1305.1,1967.9 1269.5,2008.0 1233.3,2050.0 1196.5,2094.1 1159.1,2140.8 1121.3,2190.2 1083.2,2242.7 1044.9,2298.6 1006.6,2358.3 968.5,2422.0  Z" style="stroke-width: 2.0;  stroke: rgb(82,82,82); fill: rgb(255,255,0); opacity: 0.667;" />
<path d="M 968.490,2422.023 A 1064.250,1064.250 0.00 0,1 964.6,2419.8 L 964.6,2419.8 1000.9,2356.0 1033.6,2295.9 1062.7,2239.4 1088.5,2186.3 1111.3,2136.3 1131.1,2089.2 1148.1,2044.9 1162.6,2003.2 1174.5,1964.0 1184.1,1926.9 1191.5,1892.0 1196.7,1859.1 1199.7,1827.9 1200.8,1798.4 1199.9,1770.5 1197.0,1744.0 1192.1,1718.8 1185.3,1694.9 1176.6,1672.0 1165.9,1650.2 1153.2,1629.3 1138.4,1609.3 1121.5,1590.0 1102.3,1571.5 1080.8,1553.6 1056.9,1536.4 1030.4,1519.8 1001.1,1503.7 969.0,1488.1 933.9,1473.0 895.5,1458.4 853.7,1444.2 808.3,1430.6 758.9,1417.4 705.5,1404.8 647.7,1392.6 585.2,1381.0 517.7,1370.0 445.0,1359.7  A 1064.250,1064.250 0.00 0,0 444.5,1364.0 L 444.5,1364.0 517.2,1374.1 584.7,1384.8 647.2,1396.1 705.1,1408.1 758.6,1420.5 808.0,1433.5 853.5,1446.9 895.4,1460.9 933.8,1475.3 969.0,1490.3 1001.2,1505.7 1030.5,1521.7 1057.0,1538.3 1081.0,1555.4 1102.6,1573.1 1121.9,1591.6 1138.9,1610.8 1153.8,1630.7 1166.6,1651.6 1177.4,1673.4 1186.2,1696.2 1193.0,1720.1 1198.0,1745.3 1201.0,1771.8 1202.1,1799.7 1201.1,1829.2 1198.2,1860.3 1193.1,1893.3 1185.9,1928.3 1176.5,1965.3 1164.7,2004.7 1150.4,2046.4 1133.6,2090.8 1114.0,2137.9 1091.4,2188.0 1065.8,2241.3 1036.9,2297.9 1004.6,2358.1 968.5,2422.0  Z" style="stroke-width: 2.0;  stroke: rgb(82,82,82); fill: rgb(204,255,0); opacity: 0.667;" />
<path d="M 1385.130,2558.033 A 1064.250,1064.250 0.00 0,1 1381.7,2557.7 L 1381.7,2557.7 1388.8,2483.9 1393.4,2413.8 1395.7,2347.1 1396.0,2283.6 1394.5,2223.0 1391.6,2165.1 1387.4,2109.8 1382.2,2056.7 1376.0,2005.7 1369.1,1956.6 1361.6,1909.3 1353.7,1863.4 1345.4,1818.8 1336.8,1775.4 1328.1,1732.9 1319.2,1691.1 1310.2,1650.0 1301.1,1609.3 1292.0,1568.9 1282.7,1528.6 1273.4,1488.2 1263.8,1447.6 1254.0,1406.7 1243.8,1365.2 1233.2,1323.2 1222.0,1280.3 1210.1,1236.6 1197.2,1191.8 1183.3,1145.9 1168.2,1098.7 1151.5,1050.1 1133.2,1000.1 1112.8,948.4 1090.3,895.0 1065.2,839.9 1037.2,782.8 1006.1,723.7 971.5,662.6 933.0,599.3  A 1064.250,1064.250 0.00 0,0 930.2,601.2 L 930.2,601.2 968.8,664.3 1003.6,725.3 1034.9,784.3 1063.1,841.3 1088.3,896.4 1111.1,949.7 1131.6,1001.3 1150.1,1051.3 1166.9,1099.8 1182.2,1146.9 1196.3,1192.8 1209.2,1237.5 1221.3,1281.2 1232.6,1324.0 1243.4,1366.0 1253.7,1407.4 1263.6,1448.3 1273.3,1488.9 1282.8,1529.2 1292.2,1569.5 1301.5,1610.0 1310.7,1650.6 1319.8,1691.7 1328.8,1733.4 1337.7,1775.9 1346.4,1819.3 1354.8,1863.8 1362.9,1909.7 1370.6,1957.1 1377.6,2006.1 1383.9,2057.1 1389.4,2110.1 1393.8,2165.5 1396.9,2223.3 1398.5,2283.9 1398.4,2347.5 1396.3,2414.2 1392.0,2484.3 1385.1,2558.0  Z" style="stroke-width: 2.0;  stroke: rgb(82,82,82); fill: rgb(0,255,0); opacity: 0.667;" />
<path d="M 1493.354,2564.229 A 1064.250,1064.250 0.00 0,1 1490.0,2564.2 L 1490.0,2564.2 1489.5,2490.1 1486.8,2419.7 1482.3,2352.9 1476.1,2289.2 1468.5,2228.6 1459.7,2170.8 1450.0,2115.6 1439.5,2062.7 1428.4,2011.9 1416.9,1962.9 1405.1,1915.7 1393.0,1870.0 1380.9,1825.6 1368.8,1782.3 1356.7,1739.9 1344.7,1698.2 1332.9,1657.1 1321.2,1616.3 1309.6,1575.8 1298.1,1535.4 1286.7,1494.8 1275.3,1454.0 1263.8,1412.8 1252.2,1371.0 1240.2,1328.6 1227.8,1285.3 1214.8,1241.1 1201.0,1195.9 1186.3,1149.5 1170.5,1101.8 1153.3,1052.8 1134.4,1002.2 1113.7,950.1 1090.8,896.3 1065.5,840.7 1037.4,783.3 1006.2,724.0 971.5,662.7 933.0,599.3  A 1064.250,1064.250 0.00 0,0 930.2,601.2 L 930.2,601.2 968.9,664.4 1003.7,725.6 1035.1,784.8 1063.4,842.1 1088.9,897.6 1112.0,951.3 1132.9,1003.4 1151.9,1053.9 1169.2,1102.9 1185.2,1150.5 1200.1,1196.9 1214.0,1242.1 1227.1,1286.2 1239.6,1329.4 1251.7,1371.8 1263.6,1413.5 1275.2,1454.7 1286.7,1495.5 1298.3,1536.0 1309.9,1576.4 1321.6,1616.9 1333.4,1657.6 1345.4,1698.7 1357.5,1740.3 1369.7,1782.7 1382.0,1826.0 1394.2,1870.4 1406.4,1916.0 1418.4,1963.2 1430.1,2012.1 1441.3,2062.8 1452.0,2115.7 1461.9,2171.0 1470.8,2228.7 1478.6,2289.3 1485.0,2352.9 1489.8,2419.8 1492.6,2490.1 1493.4,2564.2  Z" style="stroke-width: 2.0;  stroke: rgb(82,82,82); fill: rgb(53,128,0); opacity: 0.667;" />
<path d="M 1493.354,2564.229 A 1064.250,1064.250 0.00 0,1 1490.0,2564.2 L 1490.0,2564.2 1490.6,2491.0 1491.0,2423.4 1491.3,2361.0 1491.4,2303.6 1491.4,2251.1 1491.2,2203.0 1490.9,2159.3 1490.4,2119.7 1489.8,2084.1 1489.1,2052.2 1488.2,2023.9 1487.2,1999.1 1486.0,1977.7 1484.8,1959.5 1483.3,1944.5 1481.7,1932.5 1480.0,1923.6 1478.1,1917.6 1476.1,1914.5 1473.8,1914.4 1471.4,1917.2 1468.8,1922.9 1466.0,1931.6 1463.0,1943.2 1459.8,1958.0 1456.3,1975.9 1452.6,1997.1 1448.6,2021.5 1444.3,2049.5 1439.7,2081.1 1434.8,2116.4 1429.6,2155.6 1424.0,2199.0 1418.0,2246.6 1411.7,2298.8 1404.9,2355.8 1397.6,2417.7 1389.9,2484.9 1381.7,2557.7  A 1064.250,1064.250 0.00 0,0 1385.1,2558.0 L 1385.1,2558.0 1393.1,2485.3 1400.6,2418.0 1407.6,2356.1 1414.2,2299.1 1420.4,2246.9 1426.2,2199.2 1431.7,2155.8 1436.8,2116.6 1441.6,2081.2 1446.1,2049.7 1450.2,2021.7 1454.2,1997.2 1457.8,1976.0 1461.2,1958.1 1464.4,1943.4 1467.4,1931.7 1470.2,1923.0 1472.8,1917.3 1475.2,1914.5 1477.4,1914.6 1479.4,1917.6 1481.4,1923.6 1483.1,1932.6 1484.7,1944.5 1486.2,1959.6 1487.6,1977.8 1488.8,1999.2 1489.9,2024.0 1490.9,2052.2 1491.7,2084.1 1492.4,2119.8 1493.0,2159.3 1493.5,2203.1 1493.8,2251.1 1494.0,2303.7 1494.1,2361.0 1494.0,2423.4 1493.7,2491.0 1493.4,2564.2  Z" style="stroke-width: 2.0;  stroke: rgb(82,82,82); fill: rgb(0,0,204); opacity: 0.667;" />
<path d="M 2455.579,1031.494 A 1064.250,1064.250 0.00 0,1 2457.1,1034.6 L 2457.1,1034.6 2390.5,1065.9 2327.3,1093.7 2267.4,1118.1 2210.6,1139.3 2156.6,1157.7 2105.3,1173.4 2056.5,1186.6 2010.0,1197.5 1965.6,1206.3 1923.2,1213.0 1882.5,1217.9 1843.5,1221.0 1805.9,1222.4 1769.6,1222.2 1734.5,1220.5 1700.4,1217.3 1667.2,1212.7 1634.8,1206.6 1602.9,1199.1 1571.5,1190.2 1540.5,1179.7 1509.7,1167.7 1479.0,1154.1 1448.4,1138.8 1417.7,1121.7 1386.8,1102.7 1355.7,1081.7 1324.2,1058.4 1292.2,1032.8 1259.7,1004.7 1226.7,973.8 1192.9,940.0 1158.4,903.0 1123.2,862.6 1087.0,818.5 1050.0,770.4 1012.0,718.1 973.0,661.2 933.0,599.3  A 1064.250,1064.250 0.00 0,0 930.2,601.2 L 930.2,601.2 970.4,662.8 1009.5,719.6 1047.7,771.9 1084.9,819.8 1121.1,863.8 1156.5,904.1 1191.1,941.0 1225.0,974.7 1258.2,1005.5 1290.7,1033.5 1322.8,1059.0 1354.3,1082.1 1385.6,1103.1 1416.5,1122.0 1447.3,1139.0 1477.9,1154.2 1508.6,1167.7 1539.5,1179.6 1570.5,1189.9 1601.9,1198.8 1633.8,1206.2 1666.3,1212.2 1699.5,1216.7 1733.6,1219.8 1768.7,1221.4 1805.0,1221.4 1842.6,1219.9 1881.6,1216.6 1922.2,1211.7 1964.6,1204.8 2009.0,1195.9 2055.5,1184.8 2104.3,1171.5 2155.5,1155.6 2209.4,1137.1 2266.2,1115.6 2326.0,1091.0 2389.1,1063.1 2455.6,1031.5  Z" style="stroke-width: 2.0;  stroke: rgb(82,82,82); fill: rgb(102,153,255); opacity: 0.667;" />
<path d="M 2455.579,1031.494 A 1064.250,1064.250 0.00 0,1 2457.1,1034.6 L 2457.1,1034.6 2391.1,1067.8 2329.9,1101.0 2273.0,1134.1 2220.0,1167.1 2170.8,1199.8 2125.0,1232.3 2082.3,1264.5 2042.4,1296.4 2005.1,1328.1 1970.1,1359.4 1937.1,1390.6 1906.1,1421.5 1876.7,1452.2 1848.8,1482.7 1822.2,1513.2 1796.7,1543.7 1772.3,1574.3 1748.7,1605.0 1725.9,1636.0 1703.8,1667.4 1682.2,1699.2 1661.1,1731.7 1640.5,1765.0 1620.3,1799.2 1600.5,1834.4 1581.0,1871.0 1561.9,1908.9 1543.2,1948.6 1524.9,1990.0 1507.0,2033.5 1489.7,2079.3 1473.0,2127.5 1456.9,2178.6 1441.7,2232.6 1427.3,2290.0 1414.0,2350.8 1401.8,2415.5 1391.0,2484.4 1381.7,2557.7  A 1064.250,1064.250 0.00 0,0 1385.1,2558.0 L 1385.1,2558.0 1394.2,2484.7 1404.7,2415.8 1416.7,2351.1 1429.8,2290.2 1444.0,2232.8 1459.1,2178.7 1475.0,2127.6 1491.6,2079.3 1508.7,2033.5 1526.4,1989.9 1544.6,1948.4 1563.2,1908.7 1582.2,1870.7 1601.5,1834.1 1621.3,1798.8 1641.4,1764.5 1661.9,1731.2 1682.8,1698.6 1704.3,1666.7 1726.4,1635.3 1749.1,1604.2 1772.5,1573.4 1796.9,1542.8 1822.2,1512.2 1848.7,1481.6 1876.5,1451.0 1905.8,1420.2 1936.8,1389.2 1969.6,1357.9 2004.5,1326.4 2041.8,1294.7 2081.5,1262.6 2124.2,1230.3 2169.9,1197.7 2219.0,1164.8 2271.8,1131.7 2328.6,1098.4 2389.7,1065.0 2455.6,1031.5  Z" style="stroke-width: 2.0;  stroke: rgb(82,82,82); fill: rgb(153,204,255); opacity: 0.667;" />
<path d="M 2455.579,1031.494 A 1064.250,1064.250 0.00 0,1 2457.1,1034.6 L 2457.1,1034.6 2391.2,1067.8 2330.0,1100.8 2273.3,1133.7 2220.7,1166.4 2171.8,1198.8 2126.4,1230.9 2084.2,1262.7 2045.0,1294.3 2008.3,1325.6 1974.2,1356.6 1942.2,1387.4 1912.2,1418.0 1884.0,1448.4 1857.4,1478.7 1832.2,1509.1 1808.3,1539.4 1785.6,1569.9 1764.0,1600.7 1743.2,1631.7 1723.3,1663.2 1704.1,1695.3 1685.7,1728.1 1667.9,1761.6 1650.7,1796.2 1634.0,1832.0 1618.0,1869.0 1602.6,1907.5 1587.9,1947.8 1573.8,1989.9 1560.4,2034.0 1547.9,2080.5 1536.2,2129.5 1525.5,2181.3 1516.0,2236.1 1507.7,2294.1 1500.7,2355.6 1495.4,2421.0 1491.7,2490.4 1490.0,2564.2  A 1064.250,1064.250 0.00 0,0 1493.4,2564.2 L 1493.4,2564.2 1494.9,2490.4 1498.3,2421.0 1503.5,2355.6 1510.2,2294.1 1518.3,2236.0 1527.7,2181.2 1538.2,2129.4 1549.7,2080.4 1562.1,2033.8 1575.3,1989.6 1589.3,1947.5 1603.9,1907.2 1619.2,1868.6 1635.1,1831.5 1651.6,1795.7 1668.7,1761.1 1686.4,1727.5 1704.8,1694.6 1723.8,1662.5 1743.6,1630.9 1764.3,1599.8 1785.9,1569.0 1808.5,1538.4 1832.2,1508.0 1857.3,1477.6 1883.8,1447.2 1911.9,1416.6 1941.8,1386.0 1973.7,1355.1 2007.8,1323.9 2044.3,1292.6 2083.5,1260.9 2125.6,1228.9 2170.8,1196.6 2219.6,1164.1 2272.1,1131.3 2328.7,1098.2 2389.8,1064.9 2455.6,1031.5  Z" style="stroke-width: 2.0;  stroke: rgb(82,82,82); fill: rgb(0,255,255); opacity: 0.667;" />
<path d="M 1902.988,514.998 A 1064.250,1064.250 0.00 0,1 1906.4,516.4 L 1906.4,516.4 1878.7,584.2 1853.5,647.0 1830.7,705.3 1810.3,759.1 1792.0,808.7 1775.9,854.3 1761.7,896.1 1749.4,934.4 1739.0,969.2 1730.4,1000.8 1723.4,1029.2 1718.2,1054.7 1714.5,1077.3 1712.5,1097.1 1712.0,1114.3 1713.0,1128.9 1715.6,1141.1 1719.8,1150.7 1725.5,1158.0 1732.8,1162.9 1741.6,1165.5 1752.2,1165.7 1764.4,1163.6 1778.3,1159.1 1794.1,1152.2 1811.7,1142.9 1831.3,1131.0 1853.0,1116.6 1876.8,1099.5 1902.8,1079.7 1931.2,1057.0 1962.1,1031.3 1995.6,1002.5 2031.8,970.5 2071.0,935.0 2113.2,895.9 2158.7,853.0 2207.6,806.1 2260.0,755.0  A 1064.250,1064.250 0.00 0,0 2257.4,752.4 L 2257.4,752.4 2205.1,803.7 2156.4,850.7 2111.1,893.7 2069.0,933.0 2030.0,968.6 1993.8,1000.8 1960.4,1029.7 1929.6,1055.5 1901.3,1078.3 1875.4,1098.2 1851.6,1115.4 1830.1,1129.9 1810.5,1141.8 1792.9,1151.2 1777.2,1158.1 1763.2,1162.7 1751.0,1164.8 1740.5,1164.7 1731.6,1162.1 1724.3,1157.2 1718.6,1150.0 1714.4,1140.3 1711.7,1128.2 1710.6,1113.6 1711.1,1096.4 1713.0,1076.5 1716.6,1053.9 1721.8,1028.4 1728.6,1000.0 1737.2,968.4 1747.5,933.5 1759.6,895.2 1773.6,853.3 1789.6,807.7 1807.7,758.0 1828.0,704.1 1850.5,645.8 1875.5,582.9 1903.0,515.0  Z" style="stroke-width: 2.0;  stroke: rgb(82,82,82); fill: rgb(204,255,255); opacity: 0.667;" />
<path d="M 1227.592,471.204 A 1064.250,1064.250 0.00 0,1 1231.9,470.1 L 1231.9,470.1 1250.3,540.9 1267.3,606.4 1283.0,666.7 1297.5,722.2 1310.7,773.1 1322.7,819.6 1333.7,861.8 1343.6,900.1 1352.6,934.6 1360.5,965.4 1367.6,992.7 1373.7,1016.7 1379.1,1037.4 1383.6,1054.9 1387.2,1069.4 1390.2,1080.9 1392.3,1089.5 1393.7,1095.2 1394.3,1098.1 1394.2,1098.1 1393.4,1095.3 1391.7,1089.7 1389.4,1081.1 1386.3,1069.7 1382.3,1055.2 1377.6,1037.8 1372.1,1017.1 1365.6,993.2 1358.3,966.0 1350.1,935.2 1340.9,900.8 1330.7,862.6 1319.4,820.4 1307.1,774.0 1293.6,723.2 1278.8,667.8 1262.8,607.6 1245.4,542.2 1226.6,471.5  A 1064.250,1064.250 0.00 0,0 1222.3,472.6 L 1222.3,472.6 1241.4,543.3 1259.1,608.6 1275.3,668.8 1290.3,724.1 1304.1,774.8 1316.6,821.2 1328.1,863.3 1338.4,901.5 1347.8,935.9 1356.1,966.6 1363.5,993.8 1370.0,1017.7 1375.7,1038.3 1380.5,1055.7 1384.5,1070.1 1387.6,1081.6 1390.0,1090.1 1391.7,1095.8 1392.5,1098.6 1392.6,1098.5 1392.0,1095.7 1390.6,1090.0 1388.4,1081.4 1385.5,1069.9 1381.7,1055.4 1377.1,1037.9 1371.7,1017.2 1365.5,993.3 1358.3,966.0 1350.2,935.2 1341.1,900.8 1331.1,862.5 1319.9,820.3 1307.7,773.9 1294.2,723.1 1279.6,667.6 1263.6,607.4 1246.3,542.0 1227.6,471.2  Z" style="stroke-width: 2.0;  stroke: rgb(82,82,82); fill: rgb(153,0,204); opacity: 0.667;" />
<path d="M 1348.112,446.644 A 1064.250,1064.250 0.00 0,1 1360.7,444.9 L 1360.7,444.9 1370.2,517.5 1379.0,584.6 1387.0,646.4 1394.2,703.3 1400.8,755.4 1406.7,803.1 1412.0,846.4 1416.7,885.7 1420.9,921.1 1424.5,952.8 1427.5,980.8 1430.0,1005.5 1432.1,1026.8 1433.6,1044.9 1434.7,1059.8 1435.3,1071.7 1435.4,1080.7 1435.1,1086.7 1434.3,1089.8 1433.0,1090.0 1431.3,1087.3 1429.1,1081.7 1426.4,1073.2 1423.2,1061.7 1419.4,1047.1 1415.2,1029.5 1410.4,1008.6 1405.0,984.5 1399.1,956.9 1392.5,925.7 1385.3,890.8 1377.3,852.1 1368.7,809.2 1359.3,762.2 1349.1,710.6 1338.0,654.3 1326.1,593.1 1313.2,526.7 1299.4,454.8  A 1064.250,1064.250 0.00 0,0 1285.5,457.6 L 1285.5,457.6 1300.3,529.3 1314.0,595.5 1326.8,656.6 1338.6,712.7 1349.5,764.1 1359.5,811.0 1368.7,853.8 1377.2,892.4 1384.9,927.2 1391.9,958.3 1398.3,985.8 1404.0,1009.9 1409.1,1030.6 1413.6,1048.2 1417.5,1062.7 1420.9,1074.2 1423.7,1082.7 1426.0,1088.2 1427.8,1090.9 1429.1,1090.6 1429.9,1087.5 1430.2,1081.5 1430.0,1072.6 1429.2,1060.7 1428.0,1045.7 1426.3,1027.6 1424.0,1006.3 1421.2,981.8 1417.9,953.7 1413.9,922.1 1409.4,886.8 1404.2,847.6 1398.4,804.2 1391.9,756.7 1384.7,704.6 1376.8,647.8 1368.1,586.1 1358.5,519.1 1348.1,446.6  Z" style="stroke-width: 2.0;  stroke: rgb(82,82,82); fill: rgb(204,51,255); opacity: 0.667;" />
<path d="M 1534.095,436.296 A 1064.250,1064.250 0.00 0,1 1543.7,436.6 L 1543.7,436.6 1540.9,509.8 1538.9,577.5 1537.6,640.0 1537.0,697.6 1537.0,750.5 1537.6,798.9 1538.8,843.1 1540.5,883.3 1542.9,919.7 1545.8,952.3 1549.2,981.5 1553.2,1007.3 1557.8,1029.9 1562.9,1049.3 1568.7,1065.8 1575.0,1079.3 1581.9,1089.9 1589.4,1097.7 1597.6,1102.8 1606.5,1105.1 1616.1,1104.6 1626.5,1101.4 1637.7,1095.4 1649.8,1086.7 1662.7,1075.0 1676.6,1060.5 1691.5,1042.9 1707.5,1022.3 1724.6,998.4 1743.0,971.2 1762.6,940.5 1783.5,906.2 1806.0,868.1 1829.9,826.0 1855.4,779.7 1882.7,729.0 1911.8,673.6 1942.7,613.4 1975.7,548.0  A 1064.250,1064.250 0.00 0,0 1967.0,543.7 L 1967.0,543.7 1934.7,609.4 1904.3,669.9 1875.7,725.5 1848.9,776.5 1823.8,823.0 1800.2,865.4 1778.2,903.7 1757.5,938.2 1738.2,969.0 1720.1,996.4 1703.2,1020.4 1687.4,1041.2 1672.6,1058.9 1658.9,1073.6 1646.0,1085.3 1634.1,1094.2 1622.9,1100.3 1612.6,1103.6 1603.0,1104.1 1594.0,1101.9 1585.8,1096.9 1578.2,1089.2 1571.2,1078.6 1564.7,1065.2 1558.9,1048.8 1553.6,1029.4 1548.8,1006.8 1544.6,981.1 1540.8,951.9 1537.6,919.3 1535.0,883.0 1532.8,842.8 1531.2,798.6 1530.2,750.2 1529.7,697.3 1529.9,639.7 1530.6,577.2 1532.0,509.5 1534.1,436.3  Z" style="stroke-width: 2.0;  stroke: rgb(82,82,82); fill: rgb(204,153,255); opacity: 0.667;" />
</g>
<defs>
<pattern id="hline-sparse" width="10" height="10" patternTransform="rotate(0 0 0)" patternUnits="userSpaceOnUse"><line x1="0" y1="0" x2="10" y2="0" style="stroke:black;stroke-width:2" /></pattern>
<pattern id="checker" width="10" height="10" patternTransform="rotate(45 0 0)" patternUnits="userSpaceOnUse"><line x1="0" y1="0" x2="10" y2="0" style="stroke:black;stroke-width:2" /><line x1="0" y1="0" x2="0" y2="10" style="stroke:black;stroke-width:2" /></pattern>
<pattern id="checker" width="10" height="10" patternTransform="rotate(45 0 0)" patternUnits="userSpaceOnUse"><line x1="0" y1="0" x2="10" y2="0" style="stroke:black;stroke-width:5" /><line x1="0" y1="0" x2="0" y2="10" style="stroke:black;stroke-width:4" /></pattern>
<pattern id="hline" width="10" height="10" patternTransform="rotate(0 0 0)" patternUnits="userSpaceOnUse"><line x1="0" y1="0" x2="10" y2="0" style="stroke:black;stroke-width:5" /></pattern>
<pattern id="vline-sparse" width="10" height="10" patternTransform="rotate(0 0 0)" patternUnits="userSpaceOnUse"><line x1="0" y1="0" x2="0" y2="10" style="stroke:black;stroke-width:2" /></pattern>
<pattern id="vline" width="10" height="10" patternTransform="rotate(0 0 0)" patternUnits="userSpaceOnUse"><line x1="0" y1="0" x2="0" y2="10" style="stroke:black;stroke-width:5" /></pattern>
</defs>
</svg>
