<?xml version="1.0" encoding="utf-8" standalone="no"?>
<!DOCTYPE svg PUBLIC "-//W3C//DTD SVG 1.1//EN" "http://www.w3.org/Graphics/SVG/1.1/DTD/svg11.dtd">
<svg width="3000px" height="3000px" version="1.1" xmlns="http://www.w3.org/2000/svg" xmlns:xlink="http://www.w3.org/1999/xlink">
<g id="ideograms">
<path d="M1500.000,425.000 A1075.000,1075.000 40.000 0,1 1771.379,459.818 L1784.001,411.438 A1125.000,1125.000 0.000 0,0 1500.000,375.000 Z" style="stroke-linecap:round;fill:rgb(116,196,118);fill-opacity:0.33;" />
<text x="1664.0" y="296.1" font-size="18.2px" font-family="CMUBright-Roman" style="text-anchor:start;fill:rgb(0,0,0);" transform="rotate(277.3,1664.0,296.1)" >R<tspan baseline-shift="-40%" font-size="90%">s</tspan>caffold<tspan baseline-shift="-40%" font-size="90%">7</tspan></text>
<line x1='1500.0' y1='375.0' x2='1500.0' y2='355.0' style="stroke-width:4.0;stroke:rgb(0,0,0);stroke-linecap:round;fill:none;" />
<text x="1506.5" y="345.0" font-size="18.2px" font-family="CMUBright-Roman" style="text-anchor:start;fill:rgb(0,0,0);" transform="rotate(270.0,1506.5,345.0)" >0</text>
<line x1='1562.0' y1='376.7' x2='1563.1' y2='356.7' style="stroke-width:4.0;stroke:rgb(0,0,0);stroke-linecap:round;fill:none;" />
<text x="1570.1" y="347.1" font-size="18.2px" font-family="CMUBright-Roman" style="text-anchor:start;fill:rgb(0,0,0);" transform="rotate(273.2,1570.1,347.1)" >50</text>
<line x1='1623.7' y1='381.8' x2='1625.9' y2='361.9' style="stroke-width:4.0;stroke:rgb(0,0,0);stroke-linecap:round;fill:none;" />
<text x="1633.5" y="352.7" font-size="18.2px" font-family="CMUBright-Roman" style="text-anchor:start;fill:rgb(0,0,0);" transform="rotate(276.3,1633.5,352.7)" >100</text>
<line x1='1685.1' y1='390.3' x2='1688.4' y2='370.6' style="stroke-width:4.0;stroke:rgb(0,0,0);stroke-linecap:round;fill:none;" />
<text x="1696.5" y="361.8" font-size="18.2px" font-family="CMUBright-Roman" style="text-anchor:start;fill:rgb(0,0,0);" transform="rotate(279.5,1696.5,361.8)" >150</text>
<line x1='1745.9' y1='402.2' x2='1750.3' y2='382.7' style="stroke-width:4.0;stroke:rgb(0,0,0);stroke-linecap:round;fill:none;" />
<text x="1758.8" y="374.4" font-size="18.2px" font-family="CMUBright-Roman" style="text-anchor:start;fill:rgb(0,0,0);" transform="rotate(282.6,1758.8,374.4)" >200</text>
<g id="highlighttrack_0">
<path d="M1528.993,425.391 A1075.000,1075.000 40.000 0,1 1537.152,425.642 L1538.880,375.672 A1125.000,1125.000 0.000 0,0 1530.342,375.409 Z" style="stroke-width:4.0;stroke:rgb(0,0,0);stroke-linecap:round;fill:rgb(116,196,118);" />
</g>
<path d="M1832.524,477.722 A1075.000,1075.000 40.000 0,1 1860.448,487.231 L1877.213,440.125 A1125.000,1125.000 0.000 0,0 1847.990,430.174 Z" style="stroke-linecap:round;fill:rgb(116,196,118);fill-opacity:0.33;" />
<text x="1900.6" y="353.0" font-size="18.2px" font-family="CMUBright-Roman" style="text-anchor:start;fill:rgb(0,0,0);" transform="rotate(288.8,1900.6,353.0)" >R<tspan baseline-shift="-40%" font-size="90%">s</tspan>caffold<tspan baseline-shift="-40%" font-size="90%">2</tspan>1</text>
<line x1='1848.0' y1='430.2' x2='1854.2' y2='411.2' style="stroke-width:4.0;stroke:rgb(0,0,0);stroke-linecap:round;fill:none;" />
<text x="1863.4" y="403.7" font-size="18.2px" font-family="CMUBright-Roman" style="text-anchor:start;fill:rgb(0,0,0);" transform="rotate(288.0,1863.4,403.7)" >0</text>
<g id="highlighttrack_0">
<path d="M1851.797,484.193 A1075.000,1075.000 40.000 0,1 1854.100,484.993 L1870.570,437.784 A1125.000,1125.000 0.000 0,0 1868.160,436.946 Z" style="stroke-width:4.0;stroke:rgb(0,0,0);stroke-linecap:round;fill:rgb(251,106,74);" />
</g>
<path d="M1919.812,510.362 A1075.000,1075.000 40.000 0,1 2000.315,548.522 L2023.586,504.268 A1125.000,1125.000 0.000 0,0 1939.339,464.333 Z" style="stroke-linecap:round;fill:rgb(116,196,118);fill-opacity:0.33;" />
<text x="2029.0" y="406.2" font-size="18.2px" font-family="CMUBright-Roman" style="text-anchor:start;fill:rgb(0,0,0);" transform="rotate(295.4,2029.0,406.2)" >R<tspan baseline-shift="-40%" font-size="90%">s</tspan>caffold<tspan baseline-shift="-40%" font-size="90%">1</tspan>5</text>
<line x1='1939.3' y1='464.3' x2='1947.1' y2='445.9' style="stroke-width:4.0;stroke:rgb(0,0,0);stroke-linecap:round;fill:none;" />
<text x="1957.0" y="439.3" font-size="18.2px" font-family="CMUBright-Roman" style="text-anchor:start;fill:rgb(0,0,0);" transform="rotate(293.0,1957.0,439.3)" >0</text>
<line x1='1995.7' y1='490.1' x2='2004.5' y2='472.1' style="stroke-width:4.0;stroke:rgb(0,0,0);stroke-linecap:round;fill:none;" />
<text x="2014.8" y="466.0" font-size="18.2px" font-family="CMUBright-Roman" style="text-anchor:start;fill:rgb(0,0,0);" transform="rotate(296.1,2014.8,466.0)" >50</text>
<g id="highlighttrack_0">
<path d="M1937.329,517.977 A1075.000,1075.000 40.000 0,1 1940.346,519.327 L1960.827,473.714 A1125.000,1125.000 0.000 0,0 1957.670,472.302 Z" style="stroke-width:4.0;stroke:rgb(0,0,0);stroke-linecap:round;fill:rgb(116,196,118);" />
</g>
<path d="M2055.803,579.832 A1075.000,1075.000 40.000 0,1 2062.802,584.097 L2088.979,541.497 A1125.000,1125.000 0.000 0,0 2081.654,537.034 Z" style="stroke-linecap:round;fill:rgb(116,196,118);fill-opacity:0.33;" />
<text x="2140.2" y="467.4" font-size="18.2px" font-family="CMUBright-Roman" style="text-anchor:start;fill:rgb(0,0,0);" transform="rotate(301.4,2140.2,467.4)" >R<tspan baseline-shift="-40%" font-size="90%">s</tspan>caffold<tspan baseline-shift="-40%" font-size="90%">2</tspan>8</text>
<line x1='2081.7' y1='537.0' x2='2092.0' y2='519.9' style="stroke-width:4.0;stroke:rgb(0,0,0);stroke-linecap:round;fill:none;" />
<text x="2102.7" y="514.7" font-size="18.2px" font-family="CMUBright-Roman" style="text-anchor:start;fill:rgb(0,0,0);" transform="rotate(301.1,2102.7,514.7)" >0</text>
<g id="highlighttrack_0">
<path d="M2055.809,579.836 A1075.000,1075.000 40.000 0,1 2062.802,584.097 L2088.979,541.497 A1125.000,1125.000 0.000 0,0 2081.660,537.038 Z" style="stroke-width:4.0;stroke:rgb(0,0,0);stroke-linecap:round;fill:rgb(116,196,118);" />
</g>
<path d="M2116.073,619.046 A1075.000,1075.000 40.000 0,1 2119.879,621.721 L2148.711,580.870 A1125.000,1125.000 0.000 0,0 2144.727,578.072 Z" style="stroke-linecap:round;fill:rgb(116,196,118);fill-opacity:0.33;" />
<text x="2206.2" y="511.3" font-size="18.2px" font-family="CMUBright-Roman" style="text-anchor:start;fill:rgb(0,0,0);" transform="rotate(305.1,2206.2,511.3)" >R<tspan baseline-shift="-40%" font-size="90%">s</tspan>caffold<tspan baseline-shift="-40%" font-size="90%">3</tspan>0</text>
<line x1='2144.7' y1='578.1' x2='2156.2' y2='561.7' style="stroke-width:4.0;stroke:rgb(0,0,0);stroke-linecap:round;fill:none;" />
<text x="2167.2" y="557.2" font-size="18.2px" font-family="CMUBright-Roman" style="text-anchor:start;fill:rgb(0,0,0);" transform="rotate(305.0,2167.2,557.2)" >0</text>
<g id="highlighttrack_0">
<path d="M2116.074,619.047 A1075.000,1075.000 40.000 0,1 2119.874,621.717 L2148.705,580.866 A1125.000,1125.000 0.000 0,0 2144.728,578.072 Z" style="stroke-width:4.0;stroke:rgb(0,0,0);stroke-linecap:round;fill:rgb(116,196,118);" />
</g>
<path d="M2170.820,659.985 A1075.000,1075.000 40.000 1,1 1436.316,426.888 L1433.354,376.976 A1125.000,1125.000 0.000 1,0 2202.021,620.915 Z" style="stroke-linecap:round;fill:rgb(116,196,118);fill-opacity:0.33;" />
<text x="1141.5" y="2660.9" font-size="18.2px" font-family="CMUBright-Roman" style="text-anchor:end;fill:rgb(0,0,0);" transform="rotate(-72.4,1141.5,2660.9)" >NZ<tspan baseline-shift="-40%" font-size="90%">C</tspan>P033575.1</text>
<line x1='2202.0' y1='620.9' x2='2214.5' y2='605.3' style="stroke-width:4.0;stroke:rgb(0,0,0);stroke-linecap:round;fill:none;" />
<text x="2225.8" y="601.5" font-size="18.2px" font-family="CMUBright-Roman" style="text-anchor:start;fill:rgb(0,0,0);" transform="rotate(308.6,2225.8,601.5)" >0</text>
<line x1='2249.4' y1='660.9' x2='2262.7' y2='646.0' style="stroke-width:4.0;stroke:rgb(0,0,0);stroke-linecap:round;fill:none;" />
<text x="2274.2" y="642.9" font-size="18.2px" font-family="CMUBright-Roman" style="text-anchor:start;fill:rgb(0,0,0);" transform="rotate(311.8,2274.2,642.9)" >50</text>
<line x1='2294.4' y1='703.5' x2='2308.6' y2='689.3' style="stroke-width:4.0;stroke:rgb(0,0,0);stroke-linecap:round;fill:none;" />
<text x="2320.2" y="686.8" font-size="18.2px" font-family="CMUBright-Roman" style="text-anchor:start;fill:rgb(0,0,0);" transform="rotate(314.9,2320.2,686.8)" >100</text>
<line x1='2337.1' y1='748.4' x2='2352.0' y2='735.1' style="stroke-width:4.0;stroke:rgb(0,0,0);stroke-linecap:round;fill:none;" />
<text x="2363.8" y="733.2" font-size="18.2px" font-family="CMUBright-Roman" style="text-anchor:start;fill:rgb(0,0,0);" transform="rotate(318.1,2363.8,733.2)" >150</text>
<line x1='2377.2' y1='795.7' x2='2392.8' y2='783.1' style="stroke-width:4.0;stroke:rgb(0,0,0);stroke-linecap:round;fill:none;" />
<text x="2404.7" y="782.0" font-size="18.2px" font-family="CMUBright-Roman" style="text-anchor:start;fill:rgb(0,0,0);" transform="rotate(321.2,2404.7,782.0)" >200</text>
<line x1='2414.7' y1='845.0' x2='2430.9' y2='833.4' style="stroke-width:4.0;stroke:rgb(0,0,0);stroke-linecap:round;fill:none;" />
<text x="2442.8" y="832.9" font-size="18.2px" font-family="CMUBright-Roman" style="text-anchor:start;fill:rgb(0,0,0);" transform="rotate(324.4,2442.8,832.9)" >250</text>
<line x1='2449.4' y1='896.4' x2='2466.2' y2='885.7' style="stroke-width:4.0;stroke:rgb(0,0,0);stroke-linecap:round;fill:none;" />
<text x="2478.2" y="885.8" font-size="18.2px" font-family="CMUBright-Roman" style="text-anchor:start;fill:rgb(0,0,0);" transform="rotate(327.6,2478.2,885.8)" >300</text>
<line x1='2481.2' y1='949.6' x2='2498.6' y2='939.8' style="stroke-width:4.0;stroke:rgb(0,0,0);stroke-linecap:round;fill:none;" />
<text x="2510.5" y="940.6" font-size="18.2px" font-family="CMUBright-Roman" style="text-anchor:start;fill:rgb(0,0,0);" transform="rotate(330.7,2510.5,940.6)" >350</text>
<line x1='2510.0' y1='1004.5' x2='2527.9' y2='995.7' style="stroke-width:4.0;stroke:rgb(0,0,0);stroke-linecap:round;fill:none;" />
<text x="2539.8" y="997.1" font-size="18.2px" font-family="CMUBright-Roman" style="text-anchor:start;fill:rgb(0,0,0);" transform="rotate(333.9,2539.8,997.1)" >400</text>
<line x1='2535.7' y1='1060.8' x2='2554.2' y2='1053.0' style="stroke-width:4.0;stroke:rgb(0,0,0);stroke-linecap:round;fill:none;" />
<text x="2565.9" y="1055.1" font-size="18.2px" font-family="CMUBright-Roman" style="text-anchor:start;fill:rgb(0,0,0);" transform="rotate(337.0,2565.9,1055.1)" >450</text>
<line x1='2558.4' y1='1118.6' x2='2577.2' y2='1111.8' style="stroke-width:4.0;stroke:rgb(0,0,0);stroke-linecap:round;fill:none;" />
<text x="2588.8" y="1114.5" font-size="18.2px" font-family="CMUBright-Roman" style="text-anchor:start;fill:rgb(0,0,0);" transform="rotate(340.2,2588.8,1114.5)" >500</text>
<line x1='2577.8' y1='1177.4' x2='2596.9' y2='1171.7' style="stroke-width:4.0;stroke:rgb(0,0,0);stroke-linecap:round;fill:none;" />
<text x="2608.3" y="1175.1" font-size="18.2px" font-family="CMUBright-Roman" style="text-anchor:start;fill:rgb(0,0,0);" transform="rotate(343.3,2608.3,1175.1)" >550</text>
<line x1='2593.9' y1='1237.3' x2='2613.3' y2='1232.6' style="stroke-width:4.0;stroke:rgb(0,0,0);stroke-linecap:round;fill:none;" />
<text x="2624.6" y="1236.6" font-size="18.2px" font-family="CMUBright-Roman" style="text-anchor:start;fill:rgb(0,0,0);" transform="rotate(346.5,2624.6,1236.6)" >600</text>
<line x1='2606.7' y1='1297.9' x2='2626.4' y2='1294.3' style="stroke-width:4.0;stroke:rgb(0,0,0);stroke-linecap:round;fill:none;" />
<text x="2637.4" y="1298.9" font-size="18.2px" font-family="CMUBright-Roman" style="text-anchor:start;fill:rgb(0,0,0);" transform="rotate(349.7,2637.4,1298.9)" >650</text>
<line x1='2616.1' y1='1359.2' x2='2636.0' y2='1356.7' style="stroke-width:4.0;stroke:rgb(0,0,0);stroke-linecap:round;fill:none;" />
<text x="2646.7" y="1361.9" font-size="18.2px" font-family="CMUBright-Roman" style="text-anchor:start;fill:rgb(0,0,0);" transform="rotate(352.8,2646.7,1361.9)" >700</text>
<line x1='2622.2' y1='1420.8' x2='2642.2' y2='1419.4' style="stroke-width:4.0;stroke:rgb(0,0,0);stroke-linecap:round;fill:none;" />
<text x="2652.6" y="1425.2" font-size="18.2px" font-family="CMUBright-Roman" style="text-anchor:start;fill:rgb(0,0,0);" transform="rotate(356.0,2652.6,1425.2)" >750</text>
<line x1='2624.9' y1='1482.8' x2='2644.9' y2='1482.5' style="stroke-width:4.0;stroke:rgb(0,0,0);stroke-linecap:round;fill:none;" />
<text x="2654.9" y="1488.8" font-size="18.2px" font-family="CMUBright-Roman" style="text-anchor:start;fill:rgb(0,0,0);" transform="rotate(359.1,2654.9,1488.8)" >800</text>
<line x1='2624.1' y1='1544.7' x2='2644.1' y2='1545.5' style="stroke-width:4.0;stroke:rgb(0,0,0);stroke-linecap:round;fill:none;" />
<text x="2653.8" y="1552.4" font-size="18.2px" font-family="CMUBright-Roman" style="text-anchor:start;fill:rgb(0,0,0);" transform="rotate(2.3,2653.8,1552.4)" >850</text>
<line x1='2619.9' y1='1606.6' x2='2639.8' y2='1608.5' style="stroke-width:4.0;stroke:rgb(0,0,0);stroke-linecap:round;fill:none;" />
<text x="2649.2" y="1615.9" font-size="18.2px" font-family="CMUBright-Roman" style="text-anchor:start;fill:rgb(0,0,0);" transform="rotate(5.4,2649.2,1615.9)" >900</text>
<line x1='2612.4' y1='1668.1' x2='2632.1' y2='1671.1' style="stroke-width:4.0;stroke:rgb(0,0,0);stroke-linecap:round;fill:none;" />
<text x="2641.0" y="1679.0" font-size="18.2px" font-family="CMUBright-Roman" style="text-anchor:start;fill:rgb(0,0,0);" transform="rotate(8.6,2641.0,1679.0)" >950</text>
<line x1='2601.4' y1='1729.1' x2='2621.0' y2='1733.2' style="stroke-width:4.0;stroke:rgb(0,0,0);stroke-linecap:round;fill:none;" />
<text x="2629.5" y="1741.6" font-size="18.2px" font-family="CMUBright-Roman" style="text-anchor:start;fill:rgb(0,0,0);" transform="rotate(11.8,2629.5,1741.6)" >1000</text>
<line x1='2587.1' y1='1789.4' x2='2606.5' y2='1794.6' style="stroke-width:4.0;stroke:rgb(0,0,0);stroke-linecap:round;fill:none;" />
<text x="2614.4" y="1803.4" font-size="18.2px" font-family="CMUBright-Roman" style="text-anchor:start;fill:rgb(0,0,0);" transform="rotate(14.9,2614.4,1803.4)" >1050</text>
<line x1='2569.5' y1='1848.8' x2='2588.6' y2='1855.1' style="stroke-width:4.0;stroke:rgb(0,0,0);stroke-linecap:round;fill:none;" />
<text x="2596.0" y="1864.3" font-size="18.2px" font-family="CMUBright-Roman" style="text-anchor:start;fill:rgb(0,0,0);" transform="rotate(18.1,2596.0,1864.3)" >1100</text>
<line x1='2548.7' y1='1907.2' x2='2567.4' y2='1914.5' style="stroke-width:4.0;stroke:rgb(0,0,0);stroke-linecap:round;fill:none;" />
<text x="2574.3" y="1924.1" font-size="18.2px" font-family="CMUBright-Roman" style="text-anchor:start;fill:rgb(0,0,0);" transform="rotate(21.2,2574.3,1924.1)" >1150</text>
<line x1='2524.7' y1='1964.4' x2='2542.9' y2='1972.6' style="stroke-width:4.0;stroke:rgb(0,0,0);stroke-linecap:round;fill:none;" />
<text x="2549.3" y="1982.7" font-size="18.2px" font-family="CMUBright-Roman" style="text-anchor:start;fill:rgb(0,0,0);" transform="rotate(24.4,2549.3,1982.7)" >1200</text>
<line x1='2497.6' y1='2020.1' x2='2515.3' y2='2029.3' style="stroke-width:4.0;stroke:rgb(0,0,0);stroke-linecap:round;fill:none;" />
<text x="2521.1" y="2039.7" font-size="18.2px" font-family="CMUBright-Roman" style="text-anchor:start;fill:rgb(0,0,0);" transform="rotate(27.5,2521.1,2039.7)" >1250</text>
<line x1='2467.4' y1='2074.2' x2='2484.6' y2='2084.4' style="stroke-width:4.0;stroke:rgb(0,0,0);stroke-linecap:round;fill:none;" />
<text x="2489.9" y="2095.1" font-size="18.2px" font-family="CMUBright-Roman" style="text-anchor:start;fill:rgb(0,0,0);" transform="rotate(30.7,2489.9,2095.1)" >1300</text>
<line x1='2434.3' y1='2126.6' x2='2450.9' y2='2137.8' style="stroke-width:4.0;stroke:rgb(0,0,0);stroke-linecap:round;fill:none;" />
<text x="2455.6" y="2148.7" font-size="18.2px" font-family="CMUBright-Roman" style="text-anchor:start;fill:rgb(0,0,0);" transform="rotate(33.8,2455.6,2148.7)" >1350</text>
<line x1='2398.4' y1='2177.1' x2='2414.4' y2='2189.2' style="stroke-width:4.0;stroke:rgb(0,0,0);stroke-linecap:round;fill:none;" />
<text x="2418.4" y="2200.4" font-size="18.2px" font-family="CMUBright-Roman" style="text-anchor:start;fill:rgb(0,0,0);" transform="rotate(37.0,2418.4,2200.4)" >1400</text>
<line x1='2359.7' y1='2225.6' x2='2375.0' y2='2238.5' style="stroke-width:4.0;stroke:rgb(0,0,0);stroke-linecap:round;fill:none;" />
<text x="2378.5" y="2249.9" font-size="18.2px" font-family="CMUBright-Roman" style="text-anchor:start;fill:rgb(0,0,0);" transform="rotate(40.2,2378.5,2249.9)" >1450</text>
<line x1='2318.5' y1='2271.8' x2='2333.0' y2='2285.6' style="stroke-width:4.0;stroke:rgb(0,0,0);stroke-linecap:round;fill:none;" />
<text x="2335.8" y="2297.1" font-size="18.2px" font-family="CMUBright-Roman" style="text-anchor:start;fill:rgb(0,0,0);" transform="rotate(43.3,2335.8,2297.1)" >1500</text>
<line x1='2274.7' y1='2315.7' x2='2288.5' y2='2330.2' style="stroke-width:4.0;stroke:rgb(0,0,0);stroke-linecap:round;fill:none;" />
<text x="2290.6" y="2342.0" font-size="18.2px" font-family="CMUBright-Roman" style="text-anchor:start;fill:rgb(0,0,0);" transform="rotate(46.5,2290.6,2342.0)" >1550</text>
<line x1='2228.6' y1='2357.2' x2='2241.6' y2='2372.4' style="stroke-width:4.0;stroke:rgb(0,0,0);stroke-linecap:round;fill:none;" />
<text x="2243.1" y="2384.2" font-size="18.2px" font-family="CMUBright-Roman" style="text-anchor:start;fill:rgb(0,0,0);" transform="rotate(49.6,2243.1,2384.2)" >1600</text>
<line x1='2180.3' y1='2396.0' x2='2192.4' y2='2411.9' style="stroke-width:4.0;stroke:rgb(0,0,0);stroke-linecap:round;fill:none;" />
<text x="2193.3" y="2423.8" font-size="18.2px" font-family="CMUBright-Roman" style="text-anchor:start;fill:rgb(0,0,0);" transform="rotate(52.8,2193.3,2423.8)" >1650</text>
<line x1='2129.9' y1='2432.1' x2='2141.1' y2='2448.7' style="stroke-width:4.0;stroke:rgb(0,0,0);stroke-linecap:round;fill:none;" />
<text x="2141.3" y="2460.6" font-size="18.2px" font-family="CMUBright-Roman" style="text-anchor:start;fill:rgb(0,0,0);" transform="rotate(55.9,2141.3,2460.6)" >1700</text>
<line x1='2077.6' y1='2465.4' x2='2087.9' y2='2482.5' style="stroke-width:4.0;stroke:rgb(0,0,0);stroke-linecap:round;fill:none;" />
<text x="2087.5" y="2494.4" font-size="18.2px" font-family="CMUBright-Roman" style="text-anchor:start;fill:rgb(0,0,0);" transform="rotate(59.1,2087.5,2494.4)" >1750</text>
<line x1='2023.6' y1='2495.7' x2='2032.9' y2='2513.4' style="stroke-width:4.0;stroke:rgb(0,0,0);stroke-linecap:round;fill:none;" />
<text x="2031.8" y="2525.3" font-size="18.2px" font-family="CMUBright-Roman" style="text-anchor:start;fill:rgb(0,0,0);" transform="rotate(62.3,2031.8,2525.3)" >1800</text>
<line x1='1968.0' y1='2523.1' x2='1976.3' y2='2541.2' style="stroke-width:4.0;stroke:rgb(0,0,0);stroke-linecap:round;fill:none;" />
<text x="1974.5" y="2553.0" font-size="18.2px" font-family="CMUBright-Roman" style="text-anchor:start;fill:rgb(0,0,0);" transform="rotate(65.4,1974.5,2553.0)" >1850</text>
<line x1='1910.9' y1='2547.3' x2='1918.2' y2='2565.9' style="stroke-width:4.0;stroke:rgb(0,0,0);stroke-linecap:round;fill:none;" />
<text x="1915.8" y="2577.6" font-size="18.2px" font-family="CMUBright-Roman" style="text-anchor:start;fill:rgb(0,0,0);" transform="rotate(68.6,1915.8,2577.6)" >1900</text>
<line x1='1852.6' y1='2568.3' x2='1858.9' y2='2587.3' style="stroke-width:4.0;stroke:rgb(0,0,0);stroke-linecap:round;fill:none;" />
<text x="1855.8" y="2598.8" font-size="18.2px" font-family="CMUBright-Roman" style="text-anchor:start;fill:rgb(0,0,0);" transform="rotate(71.7,1855.8,2598.8)" >1950</text>
<line x1='1793.2' y1='2586.1' x2='1798.5' y2='2605.4' style="stroke-width:4.0;stroke:rgb(0,0,0);stroke-linecap:round;fill:none;" />
<text x="1794.8" y="2616.7" font-size="18.2px" font-family="CMUBright-Roman" style="text-anchor:start;fill:rgb(0,0,0);" transform="rotate(74.9,1794.8,2616.7)" >2000</text>
<line x1='1733.0' y1='2600.6' x2='1737.1' y2='2620.2' style="stroke-width:4.0;stroke:rgb(0,0,0);stroke-linecap:round;fill:none;" />
<text x="1732.8" y="2631.3" font-size="18.2px" font-family="CMUBright-Roman" style="text-anchor:start;fill:rgb(0,0,0);" transform="rotate(78.0,1732.8,2631.3)" >2050</text>
<line x1='1672.0' y1='2611.8' x2='1675.1' y2='2631.5' style="stroke-width:4.0;stroke:rgb(0,0,0);stroke-linecap:round;fill:none;" />
<text x="1670.2" y="2642.4" font-size="18.2px" font-family="CMUBright-Roman" style="text-anchor:start;fill:rgb(0,0,0);" transform="rotate(81.2,1670.2,2642.4)" >2100</text>
<line x1='1610.5' y1='2619.6' x2='1612.5' y2='2639.5' style="stroke-width:4.0;stroke:rgb(0,0,0);stroke-linecap:round;fill:none;" />
<text x="1607.0" y="2650.0" font-size="18.2px" font-family="CMUBright-Roman" style="text-anchor:start;fill:rgb(0,0,0);" transform="rotate(84.4,1607.0,2650.0)" >2150</text>
<line x1='1548.7' y1='2623.9' x2='1549.6' y2='2643.9' style="stroke-width:4.0;stroke:rgb(0,0,0);stroke-linecap:round;fill:none;" />
<text x="1543.5" y="2654.2" font-size="18.2px" font-family="CMUBright-Roman" style="text-anchor:start;fill:rgb(0,0,0);" transform="rotate(87.5,1543.5,2654.2)" >2200</text>
<line x1='1486.7' y1='2624.9' x2='1486.5' y2='2644.9' style="stroke-width:4.0;stroke:rgb(0,0,0);stroke-linecap:round;fill:none;" />
<text x="1492.9" y="2655.0" font-size="18.2px" font-family="CMUBright-Roman" style="text-anchor:end;fill:rgb(0,0,0);" transform="rotate(-89.3,1492.9,2655.0)" >2250</text>
<line x1='1424.8' y1='2622.5' x2='1423.5' y2='2642.4' style="stroke-width:4.0;stroke:rgb(0,0,0);stroke-linecap:round;fill:none;" />
<text x="1429.3" y="2652.8" font-size="18.2px" font-family="CMUBright-Roman" style="text-anchor:end;fill:rgb(0,0,0);" transform="rotate(-86.2,1429.3,2652.8)" >2300</text>
<line x1='1363.1' y1='2616.6' x2='1360.7' y2='2636.5' style="stroke-width:4.0;stroke:rgb(0,0,0);stroke-linecap:round;fill:none;" />
<text x="1365.9" y="2647.2" font-size="18.2px" font-family="CMUBright-Roman" style="text-anchor:end;fill:rgb(0,0,0);" transform="rotate(-83.0,1365.9,2647.2)" >2350</text>
<line x1='1301.8' y1='2607.4' x2='1298.3' y2='2627.1' style="stroke-width:4.0;stroke:rgb(0,0,0);stroke-linecap:round;fill:none;" />
<text x="1302.9" y="2638.1" font-size="18.2px" font-family="CMUBright-Roman" style="text-anchor:end;fill:rgb(0,0,0);" transform="rotate(-79.9,1302.9,2638.1)" >2400</text>
<line x1='1241.1' y1='2594.8' x2='1236.5' y2='2614.3' style="stroke-width:4.0;stroke:rgb(0,0,0);stroke-linecap:round;fill:none;" />
<text x="1240.5" y="2625.5" font-size="18.2px" font-family="CMUBright-Roman" style="text-anchor:end;fill:rgb(0,0,0);" transform="rotate(-76.7,1240.5,2625.5)" >2450</text>
<line x1='1181.2' y1='2578.9' x2='1175.5' y2='2598.1' style="stroke-width:4.0;stroke:rgb(0,0,0);stroke-linecap:round;fill:none;" />
<text x="1179.0" y="2609.5" font-size="18.2px" font-family="CMUBright-Roman" style="text-anchor:end;fill:rgb(0,0,0);" transform="rotate(-73.5,1179.0,2609.5)" >2500</text>
<line x1='1122.3' y1='2559.7' x2='1115.6' y2='2578.5' style="stroke-width:4.0;stroke:rgb(0,0,0);stroke-linecap:round;fill:none;" />
<text x="1118.3" y="2590.1" font-size="18.2px" font-family="CMUBright-Roman" style="text-anchor:end;fill:rgb(0,0,0);" transform="rotate(-70.4,1118.3,2590.1)" >2550</text>
<line x1='1064.5' y1='2537.3' x2='1056.8' y2='2555.7' style="stroke-width:4.0;stroke:rgb(0,0,0);stroke-linecap:round;fill:none;" />
<text x="1058.9" y="2567.4" font-size="18.2px" font-family="CMUBright-Roman" style="text-anchor:end;fill:rgb(0,0,0);" transform="rotate(-67.2,1058.9,2567.4)" >2600</text>
<line x1='1008.0' y1='2511.7' x2='999.3' y2='2529.7' style="stroke-width:4.0;stroke:rgb(0,0,0);stroke-linecap:round;fill:none;" />
<text x="1000.8" y="2541.5" font-size="18.2px" font-family="CMUBright-Roman" style="text-anchor:end;fill:rgb(0,0,0);" transform="rotate(-64.1,1000.8,2541.5)" >2650</text>
<line x1='953.1' y1='2483.1' x2='943.3' y2='2500.6' style="stroke-width:4.0;stroke:rgb(0,0,0);stroke-linecap:round;fill:none;" />
<text x="944.2" y="2512.5" font-size="18.2px" font-family="CMUBright-Roman" style="text-anchor:end;fill:rgb(0,0,0);" transform="rotate(-60.9,944.2,2512.5)" >2700</text>
<line x1='899.7' y1='2451.5' x2='889.1' y2='2468.4' style="stroke-width:4.0;stroke:rgb(0,0,0);stroke-linecap:round;fill:none;" />
<text x="889.2" y="2480.3" font-size="18.2px" font-family="CMUBright-Roman" style="text-anchor:end;fill:rgb(0,0,0);" transform="rotate(-57.8,889.2,2480.3)" >2750</text>
<line x1='848.3' y1='2417.0' x2='836.7' y2='2433.3' style="stroke-width:4.0;stroke:rgb(0,0,0);stroke-linecap:round;fill:none;" />
<text x="836.2" y="2445.2" font-size="18.2px" font-family="CMUBright-Roman" style="text-anchor:end;fill:rgb(0,0,0);" transform="rotate(-54.6,836.2,2445.2)" >2800</text>
<line x1='798.7' y1='2379.7' x2='786.3' y2='2395.3' style="stroke-width:4.0;stroke:rgb(0,0,0);stroke-linecap:round;fill:none;" />
<text x="785.1" y="2407.2" font-size="18.2px" font-family="CMUBright-Roman" style="text-anchor:end;fill:rgb(0,0,0);" transform="rotate(-51.4,785.1,2407.2)" >2850</text>
<line x1='751.4' y1='2339.7' x2='738.1' y2='2354.7' style="stroke-width:4.0;stroke:rgb(0,0,0);stroke-linecap:round;fill:none;" />
<text x="736.3" y="2366.4" font-size="18.2px" font-family="CMUBright-Roman" style="text-anchor:end;fill:rgb(0,0,0);" transform="rotate(-48.3,736.3,2366.4)" >2900</text>
<line x1='706.3' y1='2297.2' x2='692.1' y2='2311.4' style="stroke-width:4.0;stroke:rgb(0,0,0);stroke-linecap:round;fill:none;" />
<text x="689.7" y="2323.1" font-size="18.2px" font-family="CMUBright-Roman" style="text-anchor:end;fill:rgb(0,0,0);" transform="rotate(-45.1,689.7,2323.1)" >2950</text>
<line x1='663.6' y1='2252.3' x2='648.7' y2='2265.7' style="stroke-width:4.0;stroke:rgb(0,0,0);stroke-linecap:round;fill:none;" />
<text x="645.6" y="2277.2" font-size="18.2px" font-family="CMUBright-Roman" style="text-anchor:end;fill:rgb(0,0,0);" transform="rotate(-42.0,645.6,2277.2)" >3000</text>
<line x1='623.4' y1='2205.1' x2='607.8' y2='2217.6' style="stroke-width:4.0;stroke:rgb(0,0,0);stroke-linecap:round;fill:none;" />
<text x="604.1" y="2229.0" font-size="18.2px" font-family="CMUBright-Roman" style="text-anchor:end;fill:rgb(0,0,0);" transform="rotate(-38.8,604.1,2229.0)" >3050</text>
<line x1='585.9' y1='2155.8' x2='569.6' y2='2167.4' style="stroke-width:4.0;stroke:rgb(0,0,0);stroke-linecap:round;fill:none;" />
<text x="565.3" y="2178.5" font-size="18.2px" font-family="CMUBright-Roman" style="text-anchor:end;fill:rgb(0,0,0);" transform="rotate(-35.7,565.3,2178.5)" >3100</text>
<line x1='551.2' y1='2104.4' x2='534.3' y2='2115.2' style="stroke-width:4.0;stroke:rgb(0,0,0);stroke-linecap:round;fill:none;" />
<text x="529.4" y="2126.0" font-size="18.2px" font-family="CMUBright-Roman" style="text-anchor:end;fill:rgb(0,0,0);" transform="rotate(-32.5,529.4,2126.0)" >3150</text>
<line x1='519.3' y1='2051.3' x2='501.9' y2='2061.1' style="stroke-width:4.0;stroke:rgb(0,0,0);stroke-linecap:round;fill:none;" />
<text x="496.4" y="2071.6" font-size="18.2px" font-family="CMUBright-Roman" style="text-anchor:end;fill:rgb(0,0,0);" transform="rotate(-29.3,496.4,2071.6)" >3200</text>
<line x1='490.4' y1='1996.4' x2='472.5' y2='2005.2' style="stroke-width:4.0;stroke:rgb(0,0,0);stroke-linecap:round;fill:none;" />
<text x="466.4" y="2015.5" font-size="18.2px" font-family="CMUBright-Roman" style="text-anchor:end;fill:rgb(0,0,0);" transform="rotate(-26.2,466.4,2015.5)" >3250</text>
<line x1='464.6' y1='1940.1' x2='446.2' y2='1947.9' style="stroke-width:4.0;stroke:rgb(0,0,0);stroke-linecap:round;fill:none;" />
<text x="439.6" y="1957.8" font-size="18.2px" font-family="CMUBright-Roman" style="text-anchor:end;fill:rgb(0,0,0);" transform="rotate(-23.0,439.6,1957.8)" >3300</text>
<line x1='442.0' y1='1882.4' x2='423.2' y2='1889.2' style="stroke-width:4.0;stroke:rgb(0,0,0);stroke-linecap:round;fill:none;" />
<text x="416.0" y="1898.7" font-size="18.2px" font-family="CMUBright-Roman" style="text-anchor:end;fill:rgb(0,0,0);" transform="rotate(-19.9,416.0,1898.7)" >3350</text>
<line x1='422.5' y1='1823.5' x2='403.4' y2='1829.3' style="stroke-width:4.0;stroke:rgb(0,0,0);stroke-linecap:round;fill:none;" />
<text x="395.7" y="1838.4" font-size="18.2px" font-family="CMUBright-Roman" style="text-anchor:end;fill:rgb(0,0,0);" transform="rotate(-16.7,395.7,1838.4)" >3400</text>
<line x1='406.3' y1='1763.7' x2='386.9' y2='1768.4' style="stroke-width:4.0;stroke:rgb(0,0,0);stroke-linecap:round;fill:none;" />
<text x="378.7" y="1777.0" font-size="18.2px" font-family="CMUBright-Roman" style="text-anchor:end;fill:rgb(0,0,0);" transform="rotate(-13.6,378.7,1777.0)" >3450</text>
<line x1='393.5' y1='1703.1' x2='373.8' y2='1706.7' style="stroke-width:4.0;stroke:rgb(0,0,0);stroke-linecap:round;fill:none;" />
<text x="365.2" y="1714.9" font-size="18.2px" font-family="CMUBright-Roman" style="text-anchor:end;fill:rgb(0,0,0);" transform="rotate(-10.4,365.2,1714.9)" >3500</text>
<line x1='384.0' y1='1641.8' x2='364.1' y2='1644.3' style="stroke-width:4.0;stroke:rgb(0,0,0);stroke-linecap:round;fill:none;" />
<text x="355.1" y="1652.0" font-size="18.2px" font-family="CMUBright-Roman" style="text-anchor:end;fill:rgb(0,0,0);" transform="rotate(-7.2,355.1,1652.0)" >3550</text>
<line x1='377.9' y1='1580.1' x2='357.9' y2='1581.6' style="stroke-width:4.0;stroke:rgb(0,0,0);stroke-linecap:round;fill:none;" />
<text x="348.4" y="1588.8" font-size="18.2px" font-family="CMUBright-Roman" style="text-anchor:end;fill:rgb(0,0,0);" transform="rotate(-4.1,348.4,1588.8)" >3600</text>
<line x1='375.1' y1='1518.2' x2='355.2' y2='1518.5' style="stroke-width:4.0;stroke:rgb(0,0,0);stroke-linecap:round;fill:none;" />
<text x="345.3" y="1525.2" font-size="18.2px" font-family="CMUBright-Roman" style="text-anchor:end;fill:rgb(0,0,0);" transform="rotate(-0.9,345.3,1525.2)" >3650</text>
<line x1='375.9' y1='1456.2' x2='355.9' y2='1455.5' style="stroke-width:4.0;stroke:rgb(0,0,0);stroke-linecap:round;fill:none;" />
<text x="345.6" y="1461.6" font-size="18.2px" font-family="CMUBright-Roman" style="text-anchor:end;fill:rgb(0,0,0);" transform="rotate(2.2,345.6,1461.6)" >3700</text>
<line x1='380.0' y1='1394.4' x2='360.1' y2='1392.5' style="stroke-width:4.0;stroke:rgb(0,0,0);stroke-linecap:round;fill:none;" />
<text x="349.5" y="1398.1" font-size="18.2px" font-family="CMUBright-Roman" style="text-anchor:end;fill:rgb(0,0,0);" transform="rotate(5.4,349.5,1398.1)" >3750</text>
<line x1='387.5' y1='1332.9' x2='367.7' y2='1329.9' style="stroke-width:4.0;stroke:rgb(0,0,0);stroke-linecap:round;fill:none;" />
<text x="356.9" y="1334.8" font-size="18.2px" font-family="CMUBright-Roman" style="text-anchor:end;fill:rgb(0,0,0);" transform="rotate(8.5,356.9,1334.8)" >3800</text>
<line x1='398.4' y1='1271.9' x2='378.8' y2='1267.8' style="stroke-width:4.0;stroke:rgb(0,0,0);stroke-linecap:round;fill:none;" />
<text x="367.7" y="1272.1" font-size="18.2px" font-family="CMUBright-Roman" style="text-anchor:end;fill:rgb(0,0,0);" transform="rotate(11.7,367.7,1272.1)" >3850</text>
<line x1='412.6' y1='1211.5' x2='393.3' y2='1206.4' style="stroke-width:4.0;stroke:rgb(0,0,0);stroke-linecap:round;fill:none;" />
<text x="382.0" y="1210.1" font-size="18.2px" font-family="CMUBright-Roman" style="text-anchor:end;fill:rgb(0,0,0);" transform="rotate(14.9,382.0,1210.1)" >3900</text>
<line x1='430.1' y1='1152.1' x2='411.1' y2='1145.9' style="stroke-width:4.0;stroke:rgb(0,0,0);stroke-linecap:round;fill:none;" />
<text x="399.6" y="1149.0" font-size="18.2px" font-family="CMUBright-Roman" style="text-anchor:end;fill:rgb(0,0,0);" transform="rotate(18.0,399.6,1149.0)" >3950</text>
<line x1='450.9' y1='1093.7' x2='432.3' y2='1086.5' style="stroke-width:4.0;stroke:rgb(0,0,0);stroke-linecap:round;fill:none;" />
<text x="420.6" y="1088.9" font-size="18.2px" font-family="CMUBright-Roman" style="text-anchor:end;fill:rgb(0,0,0);" transform="rotate(21.2,420.6,1088.9)" >4000</text>
<line x1='474.9' y1='1036.5' x2='456.7' y2='1028.3' style="stroke-width:4.0;stroke:rgb(0,0,0);stroke-linecap:round;fill:none;" />
<text x="444.9" y="1030.1" font-size="18.2px" font-family="CMUBright-Roman" style="text-anchor:end;fill:rgb(0,0,0);" transform="rotate(24.3,444.9,1030.1)" >4050</text>
<line x1='502.0' y1='980.8' x2='484.2' y2='971.6' style="stroke-width:4.0;stroke:rgb(0,0,0);stroke-linecap:round;fill:none;" />
<text x="472.4" y="972.7" font-size="18.2px" font-family="CMUBright-Roman" style="text-anchor:end;fill:rgb(0,0,0);" transform="rotate(27.5,472.4,972.7)" >4100</text>
<line x1='532.1' y1='926.6' x2='514.9' y2='916.4' style="stroke-width:4.0;stroke:rgb(0,0,0);stroke-linecap:round;fill:none;" />
<text x="503.0" y="916.9" font-size="18.2px" font-family="CMUBright-Roman" style="text-anchor:end;fill:rgb(0,0,0);" transform="rotate(30.6,503.0,916.9)" >4150</text>
<line x1='565.1' y1='874.2' x2='548.5' y2='863.0' style="stroke-width:4.0;stroke:rgb(0,0,0);stroke-linecap:round;fill:none;" />
<text x="536.6" y="862.9" font-size="18.2px" font-family="CMUBright-Roman" style="text-anchor:end;fill:rgb(0,0,0);" transform="rotate(33.8,536.6,862.9)" >4200</text>
<line x1='601.0' y1='823.6' x2='585.0' y2='811.6' style="stroke-width:4.0;stroke:rgb(0,0,0);stroke-linecap:round;fill:none;" />
<text x="573.2" y="810.8" font-size="18.2px" font-family="CMUBright-Roman" style="text-anchor:end;fill:rgb(0,0,0);" transform="rotate(37.0,573.2,810.8)" >4250</text>
<line x1='639.6' y1='775.2' x2='624.3' y2='762.3' style="stroke-width:4.0;stroke:rgb(0,0,0);stroke-linecap:round;fill:none;" />
<text x="612.5" y="760.8" font-size="18.2px" font-family="CMUBright-Roman" style="text-anchor:end;fill:rgb(0,0,0);" transform="rotate(40.1,612.5,760.8)" >4300</text>
<line x1='680.9' y1='728.9' x2='666.3' y2='715.2' style="stroke-width:4.0;stroke:rgb(0,0,0);stroke-linecap:round;fill:none;" />
<text x="654.6" y="713.1" font-size="18.2px" font-family="CMUBright-Roman" style="text-anchor:end;fill:rgb(0,0,0);" transform="rotate(43.3,654.6,713.1)" >4350</text>
<line x1='724.6' y1='684.9' x2='710.8' y2='670.4' style="stroke-width:4.0;stroke:rgb(0,0,0);stroke-linecap:round;fill:none;" />
<text x="699.2" y="667.7" font-size="18.2px" font-family="CMUBright-Roman" style="text-anchor:end;fill:rgb(0,0,0);" transform="rotate(46.4,699.2,667.7)" >4400</text>
<line x1='770.6' y1='643.5' x2='757.7' y2='628.2' style="stroke-width:4.0;stroke:rgb(0,0,0);stroke-linecap:round;fill:none;" />
<text x="746.2" y="624.9" font-size="18.2px" font-family="CMUBright-Roman" style="text-anchor:end;fill:rgb(0,0,0);" transform="rotate(49.6,746.2,624.9)" >4450</text>
<line x1='818.9' y1='604.6' x2='806.8' y2='588.7' style="stroke-width:4.0;stroke:rgb(0,0,0);stroke-linecap:round;fill:none;" />
<text x="795.6" y="584.7" font-size="18.2px" font-family="CMUBright-Roman" style="text-anchor:end;fill:rgb(0,0,0);" transform="rotate(52.7,795.6,584.7)" >4500</text>
<line x1='869.3' y1='568.4' x2='858.0' y2='551.9' style="stroke-width:4.0;stroke:rgb(0,0,0);stroke-linecap:round;fill:none;" />
<text x="847.1" y="547.3" font-size="18.2px" font-family="CMUBright-Roman" style="text-anchor:end;fill:rgb(0,0,0);" transform="rotate(55.9,847.1,547.3)" >4550</text>
<line x1='921.5' y1='535.1' x2='911.2' y2='518.0' style="stroke-width:4.0;stroke:rgb(0,0,0);stroke-linecap:round;fill:none;" />
<text x="900.5" y="512.8" font-size="18.2px" font-family="CMUBright-Roman" style="text-anchor:end;fill:rgb(0,0,0);" transform="rotate(59.1,900.5,512.8)" >4600</text>
<line x1='975.5' y1='504.7' x2='966.2' y2='487.0' style="stroke-width:4.0;stroke:rgb(0,0,0);stroke-linecap:round;fill:none;" />
<text x="955.8" y="481.2" font-size="18.2px" font-family="CMUBright-Roman" style="text-anchor:end;fill:rgb(0,0,0);" transform="rotate(62.2,955.8,481.2)" >4650</text>
<line x1='1031.1' y1='477.4' x2='1022.8' y2='459.2' style="stroke-width:4.0;stroke:rgb(0,0,0);stroke-linecap:round;fill:none;" />
<text x="1012.7" y="452.8" font-size="18.2px" font-family="CMUBright-Roman" style="text-anchor:end;fill:rgb(0,0,0);" transform="rotate(65.4,1012.7,452.8)" >4700</text>
<line x1='1088.2' y1='453.1' x2='1080.9' y2='434.5' style="stroke-width:4.0;stroke:rgb(0,0,0);stroke-linecap:round;fill:none;" />
<text x="1071.1" y="427.6" font-size="18.2px" font-family="CMUBright-Roman" style="text-anchor:end;fill:rgb(0,0,0);" transform="rotate(68.5,1071.1,427.6)" >4750</text>
<line x1='1146.5' y1='432.0' x2='1140.2' y2='413.0' style="stroke-width:4.0;stroke:rgb(0,0,0);stroke-linecap:round;fill:none;" />
<text x="1130.9" y="405.6" font-size="18.2px" font-family="CMUBright-Roman" style="text-anchor:end;fill:rgb(0,0,0);" transform="rotate(71.7,1130.9,405.6)" >4800</text>
<line x1='1205.8' y1='414.1' x2='1200.6' y2='394.8' style="stroke-width:4.0;stroke:rgb(0,0,0);stroke-linecap:round;fill:none;" />
<text x="1191.7" y="386.9" font-size="18.2px" font-family="CMUBright-Roman" style="text-anchor:end;fill:rgb(0,0,0);" transform="rotate(74.8,1191.7,386.9)" >4850</text>
<line x1='1266.1' y1='399.6' x2='1261.9' y2='380.0' style="stroke-width:4.0;stroke:rgb(0,0,0);stroke-linecap:round;fill:none;" />
<text x="1253.5" y="371.6" font-size="18.2px" font-family="CMUBright-Roman" style="text-anchor:end;fill:rgb(0,0,0);" transform="rotate(78.0,1253.5,371.6)" >4900</text>
<line x1='1327.0' y1='388.4' x2='1323.9' y2='368.6' style="stroke-width:4.0;stroke:rgb(0,0,0);stroke-linecap:round;fill:none;" />
<text x="1316.0" y="359.8" font-size="18.2px" font-family="CMUBright-Roman" style="text-anchor:end;fill:rgb(0,0,0);" transform="rotate(81.2,1316.0,359.8)" >4950</text>
<line x1='1388.5' y1='380.5' x2='1386.5' y2='360.6' style="stroke-width:4.0;stroke:rgb(0,0,0);stroke-linecap:round;fill:none;" />
<text x="1379.1" y="351.3" font-size="18.2px" font-family="CMUBright-Roman" style="text-anchor:end;fill:rgb(0,0,0);" transform="rotate(84.3,1379.1,351.3)" >5000</text>
<g id="highlighttrack_0">
<path d="M575.895,2049.231 A1075.000,1075.000 40.000 0,1 573.389,2044.993 L530.291,2070.341 A1125.000,1125.000 0.000 0,0 532.913,2074.776 Z" style="stroke-width:4.0;stroke:rgb(0,0,0);stroke-linecap:round;fill:rgb(116,196,118);" />
<path d="M2316.183,2199.622 A1075.000,1075.000 40.000 0,1 2313.437,2202.813 L2351.271,2235.502 A1125.000,1125.000 0.000 0,0 2354.145,2232.162 Z" style="stroke-width:4.0;stroke:rgb(0,0,0);stroke-linecap:round;fill:rgb(251,106,74);" />
<path d="M2351.662,844.029 A1075.000,1075.000 40.000 0,1 2354.215,847.358 L2393.946,817.002 A1125.000,1125.000 0.000 0,0 2391.274,813.519 Z" style="stroke-width:4.0;stroke:rgb(0,0,0);stroke-linecap:round;fill:rgb(116,196,118);" />
<path d="M2405.122,920.019 A1075.000,1075.000 40.000 0,1 2407.388,923.569 L2449.592,896.758 A1125.000,1125.000 0.000 0,0 2447.221,893.043 Z" style="stroke-width:4.0;stroke:rgb(0,0,0);stroke-linecap:round;fill:rgb(251,106,74);" />
<path d="M2507.646,1125.468 A1075.000,1075.000 40.000 0,1 2509.253,1129.819 L2556.195,1112.601 A1125.000,1125.000 0.000 0,0 2554.513,1108.048 Z" style="stroke-width:4.0;stroke:rgb(0,0,0);stroke-linecap:round;fill:rgb(251,106,74);" />
<path d="M2527.382,1183.598 A1075.000,1075.000 40.000 0,1 2528.614,1187.625 L2576.457,1173.096 A1125.000,1125.000 0.000 0,0 2575.168,1168.882 Z" style="stroke-width:4.0;stroke:rgb(0,0,0);stroke-linecap:round;fill:rgb(251,106,74);" />
<path d="M2568.425,1381.284 A1075.000,1075.000 40.000 0,1 2568.926,1385.889 L2618.644,1380.581 A1125.000,1125.000 0.000 0,0 2618.119,1375.762 Z" style="stroke-width:4.0;stroke:rgb(0,0,0);stroke-linecap:round;fill:rgb(251,106,74);" />
<path d="M2569.371,1390.132 A1075.000,1075.000 40.000 0,1 2569.793,1394.322 L2619.551,1389.407 A1125.000,1125.000 0.000 0,0 2619.109,1385.021 Z" style="stroke-width:4.0;stroke:rgb(0,0,0);stroke-linecap:round;fill:rgb(251,106,74);" />
<path d="M2445.079,2012.299 A1075.000,1075.000 40.000 0,1 2443.581,2015.053 L2487.469,2039.009 A1125.000,1125.000 0.000 0,0 2489.036,2036.127 Z" style="stroke-width:4.0;stroke:rgb(0,0,0);stroke-linecap:round;fill:rgb(116,196,118);" />
<path d="M2450.951,2001.316 A1075.000,1075.000 40.000 0,1 2449.485,2004.087 L2493.647,2027.533 A1125.000,1125.000 0.000 0,0 2495.181,2024.633 Z" style="stroke-width:4.0;stroke:rgb(0,0,0);stroke-linecap:round;fill:rgb(116,196,118);" />
<path d="M2468.817,1965.853 A1075.000,1075.000 40.000 0,1 2467.462,1968.661 L2512.460,1990.459 A1125.000,1125.000 0.000 0,0 2513.878,1987.520 Z" style="stroke-width:4.0;stroke:rgb(0,0,0);stroke-linecap:round;fill:rgb(116,196,118);" />
<path d="M2365.384,862.242 A1075.000,1075.000 40.000 0,1 2367.342,864.907 L2407.683,835.368 A1125.000,1125.000 0.000 0,0 2405.635,832.579 Z" style="stroke-width:4.0;stroke:rgb(0,0,0);stroke-linecap:round;fill:rgb(116,196,118);" />
<path d="M2520.131,1160.945 A1075.000,1075.000 40.000 0,1 2520.899,1163.264 L2568.382,1147.602 A1125.000,1125.000 0.000 0,0 2567.579,1145.175 Z" style="stroke-width:4.0;stroke:rgb(0,0,0);stroke-linecap:round;fill:rgb(116,196,118);" />
</g>
</g>
<g id="track_0">
<path d="M 2308.021,2192.625 A 1064.250,1064.250 0.00 0,1 2305.3,2195.8 L 2305.3,2195.8 2248.9,2148.3 2194.6,2105.2 2142.3,2066.2 2092.1,2030.9 2043.6,1999.0 1996.9,1970.3 1951.8,1944.4 1908.1,1921.3 1865.9,1900.6 1824.9,1882.2 1785.0,1865.9 1746.1,1851.4 1708.1,1838.7 1670.8,1827.6 1634.2,1818.0 1598.1,1809.9 1562.3,1803.0 1526.7,1797.4 1491.3,1793.0 1455.8,1789.8 1420.2,1787.7 1384.2,1786.8 1347.8,1787.2 1310.8,1788.7 1273.0,1791.5 1234.4,1795.7 1194.7,1801.4 1153.9,1808.6 1111.7,1817.5 1068.0,1828.3 1022.7,1841.0 975.6,1855.9 926.6,1873.2 875.5,1893.0 822.1,1915.7 766.3,1941.4 707.9,1970.4 646.7,2003.0 582.7,2039.5  A 1064.250,1064.250 0.00 0,0 585.1,2043.7 L 585.1,2043.7 649.0,2006.9 710.0,1974.0 768.3,1944.7 824.0,1918.8 877.3,1895.9 928.3,1875.8 977.3,1858.3 1024.3,1843.2 1069.5,1830.3 1113.1,1819.3 1155.2,1810.2 1196.1,1802.8 1235.7,1797.0 1274.3,1792.6 1312.0,1789.6 1349.0,1787.9 1385.5,1787.4 1421.4,1788.1 1457.1,1790.0 1492.5,1793.1 1528.0,1797.4 1563.5,1802.8 1599.3,1809.5 1635.5,1817.6 1672.1,1827.0 1709.4,1837.9 1747.5,1850.5 1786.4,1864.8 1826.4,1881.0 1867.5,1899.2 1909.8,1919.7 1953.5,1942.7 1998.7,1968.3 2045.6,1996.8 2094.1,2028.5 2144.6,2063.7 2196.9,2102.5 2251.4,2145.4 2308.0,2192.6  Z" style="stroke-width: 2.0;  stroke: rgb(82,82,82); fill: rgb(251,106,74); opacity: 0.667;" />
<path d="M 2109.913,627.857 A 1064.250,1064.250 0.00 0,1 2113.7,630.5 L 2113.7,630.5 2069.9,690.4 2026.5,746.2 1983.4,798.1 1940.9,846.5 1899.0,891.8 1857.8,934.2 1817.3,974.2 1777.5,1011.9 1738.6,1047.7 1700.5,1081.8 1663.2,1114.5 1626.8,1146.1 1591.2,1176.7 1556.4,1206.5 1522.3,1235.8 1488.9,1264.7 1456.0,1293.4 1423.8,1322.1 1391.9,1350.9 1360.4,1379.9 1329.1,1409.3 1297.8,1439.1 1266.4,1469.4 1234.8,1500.3 1202.8,1531.9 1170.2,1564.1 1136.8,1597.1 1102.3,1630.7 1066.7,1665.2 1029.5,1700.3 990.6,1736.1 949.7,1772.6 906.5,1809.7 860.8,1847.3 812.2,1885.3 760.4,1923.6 705.1,1962.2 646.0,2000.9 582.7,2039.5  A 1064.250,1064.250 0.00 0,0 585.1,2043.7 L 585.1,2043.7 648.3,2004.8 707.3,1965.9 762.4,1927.0 814.0,1888.4 862.4,1850.2 908.0,1812.4 951.0,1775.1 991.7,1738.5 1030.4,1702.5 1067.4,1667.1 1103.0,1632.6 1137.2,1598.7 1170.5,1565.6 1203.0,1533.2 1234.9,1501.5 1266.3,1470.5 1297.5,1440.0 1328.7,1410.1 1359.9,1380.6 1391.3,1351.4 1423.0,1322.5 1455.2,1293.7 1487.8,1264.8 1521.1,1235.7 1555.1,1206.3 1589.8,1176.3 1625.3,1145.5 1661.6,1113.9 1698.7,1081.0 1736.6,1046.7 1775.4,1010.7 1815.0,972.8 1855.3,932.7 1896.4,890.1 1938.1,844.6 1980.4,796.0 2023.2,743.9 2066.4,688.0 2109.9,627.9  Z" style="stroke-width: 2.0;  stroke: rgb(82,82,82); fill: rgb(116,196,118); opacity: 0.667;" />
<path d="M 2109.913,627.857 A 1064.250,1064.250 0.00 0,1 2113.7,630.5 L 2113.7,630.5 2072.0,691.2 2034.4,749.0 2000.7,804.1 1970.5,856.8 1943.7,907.0 1919.9,955.0 1899.0,1001.0 1880.8,1045.1 1865.0,1087.4 1851.6,1128.1 1840.3,1167.3 1831.0,1205.2 1823.6,1242.0 1818.0,1277.6 1814.1,1312.4 1811.8,1346.4 1811.1,1379.8 1812.0,1412.7 1814.4,1445.1 1818.4,1477.4 1823.9,1509.5 1831.0,1541.6 1839.7,1573.8 1850.1,1606.3 1862.2,1639.1 1876.3,1672.4 1892.3,1706.2 1910.5,1740.8 1930.9,1776.1 1953.8,1812.4 1979.3,1849.6 2007.6,1888.0 2039.0,1927.6 2073.6,1968.4 2111.8,2010.7 2153.7,2054.5 2199.8,2099.9 2250.2,2147.0 2305.3,2195.8  A 1064.250,1064.250 0.00 0,0 2308.0,2192.6 L 2308.0,2192.6 2252.7,2144.0 2202.1,2097.2 2155.9,2052.0 2113.8,2008.3 2075.4,1966.2 2040.6,1925.4 2009.1,1886.0 1980.6,1847.7 1955.0,1810.6 1932.0,1774.4 1911.4,1739.1 1893.1,1704.7 1876.9,1670.9 1862.7,1637.6 1850.4,1604.9 1839.9,1572.4 1831.1,1540.3 1823.9,1508.2 1818.3,1476.1 1814.2,1443.9 1811.6,1411.4 1810.6,1378.5 1811.1,1345.1 1813.2,1311.1 1817.0,1276.3 1822.5,1240.6 1829.7,1203.8 1838.8,1165.9 1850.0,1126.6 1863.2,1085.8 1878.8,1043.5 1896.9,999.3 1917.6,953.2 1941.1,905.1 1967.7,854.7 1997.7,802.0 2031.2,746.7 2068.5,688.7 2109.9,627.9  Z" style="stroke-width: 2.0;  stroke: rgb(82,82,82); fill: rgb(107,174,214); opacity: 0.667;" />
<path d="M 2343.145,850.589 A 1064.250,1064.250 0.00 0,1 2345.7,853.9 L 2345.7,853.9 2285.8,898.1 2227.3,938.6 2170.1,975.7 2114.2,1009.9 2059.8,1041.5 2006.8,1070.9 1955.3,1098.3 1905.2,1124.1 1856.6,1148.6 1809.5,1172.1 1763.7,1194.7 1719.3,1216.8 1676.2,1238.5 1634.3,1260.2 1593.7,1281.9 1554.1,1303.9 1515.5,1326.2 1477.8,1349.2 1440.8,1372.8 1404.5,1397.2 1368.7,1422.5 1333.2,1448.8 1298.0,1476.1 1262.7,1504.5 1227.2,1534.0 1191.4,1564.6 1155.0,1596.3 1117.8,1629.1 1079.6,1662.9 1040.1,1697.8 999.1,1733.6 956.3,1770.2 911.4,1807.6 864.3,1845.5 814.5,1884.0 761.7,1922.8 705.7,1961.8 646.2,2000.8 582.7,2039.5  A 1064.250,1064.250 0.00 0,0 585.1,2043.7 L 585.1,2043.7 648.5,2004.7 707.9,1965.5 763.7,1926.2 816.2,1887.2 865.9,1848.4 912.9,1810.2 957.5,1772.7 1000.2,1735.8 1041.0,1699.9 1080.3,1664.8 1118.4,1630.8 1155.5,1597.8 1191.7,1566.0 1227.4,1535.2 1262.8,1505.6 1297.9,1477.1 1333.1,1449.6 1368.4,1423.2 1404.1,1397.7 1440.3,1373.1 1477.2,1349.4 1514.8,1326.3 1553.3,1303.7 1592.8,1281.6 1633.4,1259.7 1675.1,1237.9 1718.2,1216.0 1762.5,1193.7 1808.2,1170.9 1855.2,1147.3 1903.7,1122.6 1953.7,1096.6 2005.1,1068.9 2058.0,1039.4 2112.3,1007.5 2168.0,973.1 2225.1,935.7 2283.5,895.0 2343.1,850.6  Z" style="stroke-width: 2.0;  stroke: rgb(82,82,82); fill: rgb(253,141,60); opacity: 0.667;" />
<path d="M 2343.145,850.589 A 1064.250,1064.250 0.00 0,1 2345.7,853.9 L 2345.7,853.9 2287.8,899.1 2234.7,942.5 2186.2,984.2 2142.0,1024.2 2101.7,1062.7 2065.3,1099.8 2032.4,1135.5 2002.7,1170.0 1976.2,1203.3 1952.6,1235.6 1931.8,1267.0 1913.6,1297.5 1897.8,1327.3 1884.4,1356.5 1873.3,1385.2 1864.3,1413.4 1857.5,1441.3 1852.6,1469.1 1849.8,1496.7 1849.0,1524.3 1850.1,1552.1 1853.3,1580.0 1858.5,1608.3 1865.7,1637.1 1875.1,1666.4 1886.7,1696.3 1900.7,1727.0 1917.0,1758.6 1935.9,1791.1 1957.5,1824.8 1982.0,1859.7 2009.5,1895.9 2040.2,1933.5 2074.4,1972.7 2112.2,2013.5 2153.9,2056.1 2199.8,2100.6 2250.2,2147.1 2305.3,2195.8  A 1064.250,1064.250 0.00 0,0 2308.0,2192.6 L 2308.0,2192.6 2252.7,2144.2 2202.2,2097.9 2156.1,2053.6 2114.2,2011.1 2076.2,1970.4 2041.9,1931.4 2011.0,1893.9 1983.4,1857.8 1958.8,1823.0 1937.1,1789.4 1918.0,1756.9 1901.6,1725.4 1887.5,1694.8 1875.8,1664.9 1866.3,1635.6 1858.9,1606.9 1853.6,1578.7 1850.3,1550.7 1849.1,1523.0 1849.8,1495.3 1852.5,1467.7 1857.2,1439.9 1864.0,1412.0 1872.9,1383.7 1883.9,1355.0 1897.2,1325.8 1912.8,1295.9 1930.9,1265.3 1951.6,1233.8 1975.1,1201.4 2001.4,1168.0 2030.9,1133.4 2063.7,1097.6 2100.0,1060.4 2140.1,1021.7 2184.2,981.5 2232.5,939.7 2285.4,896.1 2343.1,850.6  Z" style="stroke-width: 2.0;  stroke: rgb(82,82,82); fill: rgb(255,0,0); opacity: 0.667;" />
<path d="M 2343.145,850.589 A 1064.250,1064.250 0.00 0,1 2345.7,853.9 L 2345.7,853.9 2287.4,898.2 2233.3,938.8 2183.1,976.0 2136.7,1009.9 2093.9,1040.7 2054.4,1068.4 2018.2,1093.4 1985.1,1115.6 1954.8,1135.2 1927.4,1152.3 1902.6,1167.0 1880.3,1179.3 1860.5,1189.4 1843.0,1197.4 1827.8,1203.1 1814.8,1206.8 1803.9,1208.4 1795.1,1207.9 1788.3,1205.4 1783.5,1200.8 1780.7,1194.1 1779.9,1185.3 1781.1,1174.3 1784.3,1161.2 1789.5,1145.8 1796.7,1128.0 1806.1,1107.8 1817.6,1085.1 1831.3,1059.8 1847.4,1031.7 1865.8,1000.7 1886.8,966.8 1910.3,929.6 1936.5,889.2 1965.7,845.2 1997.8,797.6 2033.0,746.0 2071.6,690.4 2113.7,630.5  A 1064.250,1064.250 0.00 0,0 2109.9,627.9 L 2109.9,627.9 2068.1,688.0 2029.8,743.8 1994.7,795.4 1962.8,843.2 1933.9,887.3 1907.8,927.9 1884.5,965.1 1863.7,999.2 1845.4,1030.2 1829.4,1058.4 1815.8,1083.8 1804.4,1106.5 1795.1,1126.8 1788.0,1144.6 1782.8,1160.0 1779.7,1173.2 1778.6,1184.1 1779.4,1192.9 1782.3,1199.6 1787.1,1204.2 1793.9,1206.7 1802.7,1207.2 1813.6,1205.5 1826.6,1201.8 1841.8,1196.0 1859.3,1188.0 1879.0,1177.8 1901.3,1165.4 1926.0,1150.6 1953.4,1133.4 1983.5,1113.7 2016.6,1091.3 2052.7,1066.3 2092.1,1038.3 2134.8,1007.4 2181.0,973.4 2231.1,936.0 2285.0,895.1 2343.1,850.6  Z" style="stroke-width: 2.0;  stroke: rgb(82,82,82); fill: rgb(255,0,204); opacity: 0.667;" />
<path d="M 2396.071,925.818 A 1064.250,1064.250 0.00 0,1 2398.3,929.3 L 2398.3,929.3 2334.8,968.2 2272.9,1003.6 2212.5,1035.8 2153.7,1065.3 2096.5,1092.3 2040.9,1117.3 1987.0,1140.6 1934.7,1162.5 1884.0,1183.2 1834.8,1203.1 1787.2,1222.4 1741.1,1241.4 1696.4,1260.2 1653.0,1279.2 1610.9,1298.4 1569.9,1318.0 1530.1,1338.3 1491.1,1359.3 1453.1,1381.2 1415.7,1404.1 1378.8,1428.0 1342.4,1453.1 1306.2,1479.3 1270.0,1506.8 1233.7,1535.5 1197.1,1565.5 1160.0,1596.7 1122.0,1629.2 1083.2,1662.7 1043.0,1697.4 1001.5,1733.1 958.2,1769.7 912.9,1807.1 865.3,1845.2 815.1,1883.7 762.1,1922.7 705.9,1961.7 646.2,2000.8 582.7,2039.5  A 1064.250,1064.250 0.00 0,0 585.1,2043.7 L 585.1,2043.7 648.5,2004.7 708.0,1965.4 764.1,1926.0 816.9,1886.9 866.9,1848.1 914.3,1809.8 959.4,1772.2 1002.6,1735.4 1044.0,1699.5 1083.9,1664.7 1122.7,1630.9 1160.4,1598.3 1197.4,1566.9 1233.9,1536.8 1270.1,1507.9 1306.1,1480.2 1342.2,1453.8 1378.6,1428.6 1415.3,1404.5 1452.6,1381.5 1490.6,1359.5 1529.4,1338.3 1569.2,1317.8 1610.1,1298.0 1652.1,1278.6 1695.4,1259.5 1740.1,1240.5 1786.1,1221.3 1833.7,1201.8 1882.7,1181.7 1933.4,1160.8 1985.6,1138.7 2039.4,1115.2 2094.9,1090.0 2152.0,1062.7 2210.7,1033.0 2270.9,1000.6 2332.8,965.0 2396.1,925.8  Z" style="stroke-width: 2.0;  stroke: rgb(82,82,82); fill: rgb(255,204,204); opacity: 0.667;" />
<path d="M 2396.071,925.818 A 1064.250,1064.250 0.00 0,1 2398.3,929.3 L 2398.3,929.3 2336.7,969.3 2280.1,1007.9 2228.2,1044.9 2180.8,1080.7 2137.5,1115.1 2098.1,1148.4 2062.4,1180.6 2030.2,1211.7 2001.2,1241.9 1975.3,1271.3 1952.3,1300.0 1932.0,1328.0 1914.3,1355.4 1899.1,1382.3 1886.3,1408.9 1875.8,1435.1 1867.5,1461.2 1861.4,1487.2 1857.4,1513.1 1855.5,1539.2 1855.6,1565.5 1857.9,1592.1 1862.3,1619.1 1868.9,1646.6 1877.7,1674.7 1888.8,1703.6 1902.2,1733.3 1918.2,1763.9 1936.8,1795.6 1958.1,1828.5 1982.4,1862.7 2009.7,1898.2 2040.4,1935.2 2074.4,1973.9 2112.2,2014.3 2153.9,2056.6 2199.8,2100.8 2250.2,2147.2 2305.3,2195.8  A 1064.250,1064.250 0.00 0,0 2308.0,2192.6 L 2308.0,2192.6 2252.7,2144.3 2202.2,2098.1 2156.1,2054.0 2114.2,2011.9 2076.3,1971.6 2042.1,1933.1 2011.3,1896.2 1983.8,1860.8 1959.4,1826.7 1937.9,1793.9 1919.2,1762.3 1903.1,1731.7 1889.5,1702.1 1878.3,1673.3 1869.4,1645.2 1862.8,1617.7 1858.3,1590.7 1855.9,1564.1 1855.6,1537.8 1857.4,1511.7 1861.3,1485.7 1867.4,1459.7 1875.6,1433.6 1886.0,1407.3 1898.7,1380.7 1913.8,1353.7 1931.3,1326.3 1951.5,1298.2 1974.4,1269.5 2000.2,1240.0 2029.1,1209.6 2061.2,1178.4 2096.8,1146.0 2136.0,1112.6 2179.2,1078.0 2226.5,1042.1 2278.2,1004.8 2334.6,966.1 2396.1,925.8  Z" style="stroke-width: 2.0;  stroke: rgb(82,82,82); fill: rgb(255,153,0); opacity: 0.667;" />
<path d="M 2396.071,925.818 A 1064.250,1064.250 0.00 0,1 2398.3,929.3 L 2398.3,929.3 2336.4,968.4 2278.8,1004.1 2225.5,1036.6 2176.1,1066.1 2130.4,1092.8 2088.4,1116.6 2049.7,1137.9 2014.2,1156.7 1981.8,1173.1 1952.3,1187.1 1925.6,1199.0 1901.6,1208.7 1880.1,1216.3 1861.1,1221.9 1844.4,1225.5 1830.0,1227.1 1817.8,1226.8 1807.7,1224.5 1799.8,1220.3 1793.9,1214.2 1790.1,1206.0 1788.4,1195.9 1788.6,1183.7 1791.0,1169.4 1795.4,1152.9 1801.9,1134.1 1810.5,1113.0 1821.4,1089.5 1834.5,1063.4 1850.0,1034.6 1867.9,1003.1 1888.4,968.6 1911.5,931.0 1937.4,890.1 1966.2,845.8 1998.1,797.9 2033.2,746.2 2071.6,690.5 2113.7,630.5  A 1064.250,1064.250 0.00 0,0 2109.9,627.9 L 2109.9,627.9 2068.1,688.0 2029.9,743.9 1995.1,795.8 1963.4,843.8 1934.8,888.2 1909.1,929.2 1886.1,966.9 1865.8,1001.5 1848.0,1033.2 1832.6,1062.0 1819.6,1088.1 1808.9,1111.7 1800.3,1132.9 1793.9,1151.6 1789.6,1168.2 1787.3,1182.5 1787.1,1194.7 1788.9,1204.8 1792.7,1212.9 1798.6,1219.1 1806.6,1223.3 1816.7,1225.5 1828.9,1225.8 1843.3,1224.1 1860.0,1220.4 1879.0,1214.8 1900.4,1207.1 1924.4,1197.3 1951.1,1185.3 1980.5,1171.2 2012.9,1154.7 2048.2,1135.8 2086.8,1114.3 2128.8,1090.3 2174.4,1063.5 2223.7,1033.8 2276.9,1001.1 2334.3,965.1 2396.1,925.8  Z" style="stroke-width: 2.0;  stroke: rgb(82,82,82); fill: rgb(255,204,0); opacity: 0.667;" />
<path d="M 2396.071,925.818 A 1064.250,1064.250 0.00 0,1 2398.3,929.3 L 2398.3,929.3 2336.5,968.5 2279.3,1004.7 2226.5,1037.9 2177.9,1068.3 2133.3,1096.2 2092.5,1121.5 2055.3,1144.4 2021.5,1165.0 1991.0,1183.4 1963.6,1199.7 1939.3,1214.1 1917.8,1226.5 1899.1,1237.0 1883.1,1245.7 1869.7,1252.6 1858.9,1257.8 1850.5,1261.2 1844.6,1263.0 1841.1,1263.1 1840.1,1261.6 1841.4,1258.4 1845.1,1253.4 1851.2,1246.8 1859.8,1238.4 1871.0,1228.2 1884.6,1216.2 1900.9,1202.3 1920.0,1186.4 1941.8,1168.5 1966.6,1148.5 1994.4,1126.2 2025.5,1101.6 2059.8,1074.6 2097.6,1045.0 2139.1,1012.7 2184.5,977.6 2233.9,939.6 2287.5,898.4 2345.7,853.9  A 1064.250,1064.250 0.00 0,0 2343.1,850.6 L 2343.1,850.6 2285.2,895.3 2231.7,936.7 2182.4,975.0 2137.2,1010.2 2095.9,1042.7 2058.1,1072.4 2023.9,1099.6 1993.0,1124.3 1965.2,1146.6 1940.5,1166.8 1918.8,1184.8 1899.8,1200.7 1883.5,1214.7 1869.9,1226.8 1858.8,1237.0 1850.2,1245.4 1844.1,1252.1 1840.4,1257.0 1839.1,1260.3 1840.2,1261.8 1843.7,1261.7 1849.6,1259.9 1857.9,1256.4 1868.8,1251.1 1882.1,1244.2 1898.1,1235.4 1916.7,1224.8 1938.1,1212.4 1962.4,1197.9 1989.7,1181.5 2020.2,1162.9 2053.9,1142.2 2091.0,1119.1 2131.7,1093.7 2176.3,1065.7 2224.7,1035.1 2277.4,1001.6 2334.4,965.3 2396.1,925.8  Z" style="stroke-width: 2.0;  stroke: rgb(82,82,82); fill: rgb(255,255,0); opacity: 0.667;" />
<path d="M 2497.570,1129.213 A 1064.250,1064.250 0.00 0,1 2499.2,1133.5 L 2499.2,1133.5 2429.8,1160.3 2364.3,1187.9 2302.4,1216.2 2243.7,1244.9 2188.1,1273.8 2135.1,1302.7 2084.7,1331.5 2036.4,1359.9 1990.0,1387.9 1945.3,1415.3 1902.1,1441.9 1860.1,1467.9 1819.0,1492.9 1778.8,1517.1 1739.2,1540.3 1699.9,1562.6 1660.9,1583.9 1621.8,1604.3 1582.7,1623.8 1543.2,1642.5 1503.3,1660.4 1462.8,1677.6 1421.5,1694.2 1379.4,1710.4 1336.3,1726.3 1292.1,1742.1 1246.7,1757.9 1200.0,1773.9 1151.9,1790.3 1102.4,1807.5 1051.3,1825.6 998.7,1844.8 944.4,1865.6 888.5,1888.2 830.8,1912.8 771.4,1939.9 710.3,1969.8 647.3,2002.9 582.7,2039.5  A 1064.250,1064.250 0.00 0,0 585.1,2043.7 L 585.1,2043.7 649.7,2006.8 712.4,1973.4 773.4,1943.2 832.7,1915.9 890.3,1891.0 946.1,1868.2 1000.3,1847.1 1052.8,1827.6 1103.8,1809.3 1153.2,1791.9 1201.2,1775.3 1247.8,1759.0 1293.2,1743.0 1337.3,1727.1 1380.3,1711.0 1422.4,1694.6 1463.6,1677.8 1504.0,1660.4 1543.9,1642.3 1583.3,1623.5 1622.3,1603.8 1661.3,1583.3 1700.2,1561.8 1739.4,1539.3 1778.9,1515.9 1819.0,1491.6 1859.9,1466.3 1901.8,1440.2 1944.9,1413.3 1989.5,1385.8 2035.8,1357.6 2083.9,1328.9 2134.3,1300.0 2187.1,1270.8 2242.6,1241.7 2301.1,1212.7 2362.9,1184.2 2428.3,1156.2 2497.6,1129.2  Z" style="stroke-width: 2.0;  stroke: rgb(82,82,82); fill: rgb(204,255,0); opacity: 0.667;" />
<path d="M 2497.570,1129.213 A 1064.250,1064.250 0.00 0,1 2499.2,1133.5 L 2499.2,1133.5 2430.5,1159.4 2367.1,1184.6 2308.7,1209.2 2255.1,1233.2 2205.8,1256.6 2160.8,1279.6 2119.7,1302.1 2082.4,1324.2 2048.5,1345.9 2018.1,1367.3 1990.8,1388.5 1966.5,1409.5 1945.0,1430.3 1926.3,1451.1 1910.3,1471.8 1896.8,1492.7 1885.7,1513.7 1877.0,1534.9 1870.7,1556.4 1866.7,1578.2 1865.1,1600.6 1865.7,1623.5 1868.6,1647.0 1873.9,1671.3 1881.6,1696.4 1891.7,1722.4 1904.4,1749.5 1919.7,1777.7 1937.8,1807.1 1958.8,1837.9 1982.7,1870.2 2009.9,1904.0 2040.3,1939.6 2074.4,1977.0 2112.1,2016.3 2153.9,2057.7 2199.8,2101.4 2250.2,2147.3 2305.3,2195.8  A 1064.250,1064.250 0.00 0,0 2308.0,2192.6 L 2308.0,2192.6 2252.7,2144.4 2202.2,2098.6 2156.0,2055.2 2114.2,2013.9 2076.2,1974.7 2042.1,1937.5 2011.4,1902.0 1984.2,1868.3 1960.1,1836.1 1939.0,1805.4 1920.8,1776.0 1905.4,1747.8 1892.6,1720.8 1882.3,1694.8 1874.6,1669.8 1869.2,1645.5 1866.1,1622.0 1865.4,1599.1 1867.0,1576.7 1870.9,1554.8 1877.2,1533.3 1885.7,1512.0 1896.7,1491.0 1910.1,1470.1 1926.1,1449.3 1944.7,1428.4 1966.1,1407.5 1990.3,1386.4 2017.5,1365.1 2047.9,1343.6 2081.6,1321.7 2118.8,1299.4 2159.8,1276.8 2204.8,1253.6 2253.9,1229.9 2307.5,1205.7 2365.7,1180.9 2429.0,1155.4 2497.6,1129.2  Z" style="stroke-width: 2.0;  stroke: rgb(82,82,82); fill: rgb(0,255,0); opacity: 0.667;" />
<path d="M 2497.570,1129.213 A 1064.250,1064.250 0.00 0,1 2499.2,1133.5 L 2499.2,1133.5 2430.3,1158.4 2366.2,1180.7 2306.8,1200.6 2251.7,1218.3 2200.8,1233.7 2153.7,1247.1 2110.4,1258.4 2070.7,1267.9 2034.2,1275.5 2001.0,1281.4 1970.7,1285.5 1943.4,1288.0 1918.8,1288.9 1896.8,1288.1 1877.4,1285.8 1860.4,1281.8 1845.7,1276.3 1833.3,1269.2 1823.2,1260.5 1815.3,1250.2 1809.5,1238.1 1805.9,1224.3 1804.4,1208.8 1805.0,1191.3 1807.8,1171.9 1812.8,1150.5 1820.0,1127.0 1829.5,1101.2 1841.4,1073.1 1855.7,1042.5 1872.5,1009.3 1892.0,973.4 1914.2,934.5 1939.4,892.6 1967.5,847.4 1998.8,798.8 2033.5,746.6 2071.7,690.6 2113.7,630.5  A 1064.250,1064.250 0.00 0,0 2109.9,627.9 L 2109.9,627.9 2068.2,688.1 2030.3,744.3 1995.8,796.7 1964.7,845.4 1936.7,890.7 1911.8,932.7 1889.7,971.7 1870.4,1007.7 1853.7,1041.0 1839.5,1071.7 1827.8,1099.8 1818.4,1125.6 1811.3,1149.2 1806.4,1170.6 1803.7,1190.0 1803.1,1207.5 1804.7,1223.0 1808.4,1236.8 1814.2,1248.8 1822.2,1259.1 1832.3,1267.8 1844.7,1274.8 1859.4,1280.3 1876.4,1284.1 1895.9,1286.4 1917.9,1287.0 1942.5,1286.1 1969.8,1283.5 2000.0,1279.2 2033.2,1273.2 2069.6,1265.4 2109.4,1255.8 2152.6,1244.2 2199.6,1230.7 2250.5,1215.0 2305.5,1197.2 2364.8,1177.0 2428.8,1154.4 2497.6,1129.2  Z" style="stroke-width: 2.0;  stroke: rgb(82,82,82); fill: rgb(53,128,0); opacity: 0.667;" />
<path d="M 2497.570,1129.213 A 1064.250,1064.250 0.00 0,1 2499.2,1133.5 L 2499.2,1133.5 2430.4,1158.6 2366.6,1181.3 2307.7,1202.0 2253.3,1220.6 2203.3,1237.3 2157.4,1252.2 2115.5,1265.3 2077.3,1276.7 2042.6,1286.5 2011.3,1294.7 1983.3,1301.4 1958.4,1306.6 1936.5,1310.4 1917.5,1312.9 1901.3,1313.9 1887.8,1313.6 1876.9,1311.9 1868.7,1308.9 1863.0,1304.5 1859.8,1298.8 1859.2,1291.6 1861.1,1283.0 1865.5,1273.0 1872.5,1261.4 1882.0,1248.3 1894.3,1233.6 1909.3,1217.1 1927.1,1198.9 1947.8,1178.9 1971.5,1156.9 1998.4,1132.9 2028.5,1106.8 2062.1,1078.4 2099.3,1047.7 2140.2,1014.5 2185.1,978.6 2234.2,940.0 2287.6,898.5 2345.7,853.9  A 1064.250,1064.250 0.00 0,0 2343.1,850.6 L 2343.1,850.6 2285.3,895.4 2232.0,937.1 2183.1,976.0 2138.3,1012.0 2097.5,1045.4 2060.4,1076.2 2027.0,1104.7 1996.9,1131.0 1970.1,1155.1 1946.5,1177.1 1925.9,1197.2 1908.2,1215.5 1893.2,1232.0 1881.0,1246.8 1871.5,1259.9 1864.6,1271.5 1860.2,1281.6 1858.3,1290.1 1859.0,1297.3 1862.2,1303.0 1867.9,1307.4 1876.1,1310.4 1887.0,1312.0 1900.5,1312.2 1916.7,1311.1 1935.7,1308.6 1957.6,1304.7 1982.5,1299.3 2010.4,1292.5 2041.7,1284.1 2076.3,1274.2 2114.5,1262.6 2156.4,1249.4 2202.2,1234.3 2252.1,1217.4 2306.4,1198.5 2365.2,1177.6 2428.9,1154.5 2497.6,1129.2  Z" style="stroke-width: 2.0;  stroke: rgb(82,82,82); fill: rgb(0,0,204); opacity: 0.667;" />
<path d="M 2497.570,1129.213 A 1064.250,1064.250 0.00 0,1 2499.2,1133.5 L 2499.2,1133.5 2430.4,1158.6 2366.7,1181.5 2307.9,1202.4 2253.7,1221.4 2204.0,1238.4 2158.3,1253.8 2116.7,1267.4 2078.8,1279.4 2044.6,1289.9 2013.8,1298.8 1986.2,1306.4 1961.9,1312.5 1940.6,1317.3 1922.3,1320.8 1906.8,1322.9 1894.1,1323.8 1884.1,1323.4 1876.8,1321.7 1872.1,1318.8 1870.1,1314.6 1870.6,1309.1 1873.7,1302.3 1879.5,1294.1 1887.9,1284.6 1899.0,1273.6 1912.9,1261.2 1929.6,1247.2 1949.3,1231.6 1972.0,1214.3 1997.9,1195.3 2027.0,1174.5 2059.5,1151.7 2095.7,1126.9 2135.6,1100.0 2179.4,1070.8 2227.4,1039.3 2279.7,1005.3 2336.6,968.7 2398.3,929.3  A 1064.250,1064.250 0.00 0,0 2396.1,925.8 L 2396.1,925.8 2334.5,965.4 2277.7,1002.3 2225.6,1036.5 2177.7,1068.2 2134.0,1097.5 2094.2,1124.6 2058.2,1149.5 2025.7,1172.4 1996.6,1193.3 1970.9,1212.4 1948.2,1229.8 1928.6,1245.4 1911.9,1259.5 1898.1,1272.0 1887.0,1283.0 1878.6,1292.6 1872.9,1300.8 1869.8,1307.6 1869.3,1313.1 1871.4,1317.3 1876.1,1320.2 1883.4,1321.8 1893.4,1322.1 1906.1,1321.2 1921.5,1319.0 1939.9,1315.4 1961.1,1310.5 1985.4,1304.3 2012.9,1296.6 2043.7,1287.5 2077.9,1276.9 2115.7,1264.7 2157.3,1250.9 2202.8,1235.4 2252.5,1218.1 2306.6,1198.9 2365.3,1177.8 2428.9,1154.6 2497.6,1129.2  Z" style="stroke-width: 2.0;  stroke: rgb(82,82,82); fill: rgb(102,153,255); opacity: 0.667;" />
<path d="M 2517.109,1186.762 A 1064.250,1064.250 0.00 0,1 2518.3,1190.7 L 2518.3,1190.7 2447.6,1213.5 2380.7,1237.3 2317.4,1262.0 2257.5,1287.3 2200.5,1313.0 2146.3,1338.9 2094.6,1364.8 2045.1,1390.5 1997.6,1415.9 1951.8,1440.9 1907.5,1465.3 1864.6,1489.1 1822.7,1512.2 1781.6,1534.5 1741.2,1556.0 1701.3,1576.7 1661.6,1596.5 1622.1,1615.5 1582.4,1633.8 1542.6,1651.2 1502.3,1668.1 1461.5,1684.3 1420.1,1700.0 1377.8,1715.4 1334.6,1730.5 1290.4,1745.6 1245.0,1760.8 1198.4,1776.3 1150.4,1792.3 1101.1,1809.0 1050.2,1826.8 997.7,1845.7 943.7,1866.2 887.9,1888.6 830.4,1913.1 771.2,1940.1 710.2,1969.9 647.3,2002.9 582.7,2039.5  A 1064.250,1064.250 0.00 0,0 585.1,2043.7 L 585.1,2043.7 649.6,2006.8 712.3,1973.5 773.2,1943.4 832.3,1916.1 889.7,1891.4 945.3,1868.8 999.3,1848.0 1051.7,1828.8 1102.5,1810.9 1151.8,1793.9 1199.7,1777.7 1246.2,1762.0 1291.5,1746.6 1335.7,1731.3 1378.8,1716.0 1421.0,1700.4 1462.4,1684.5 1503.1,1668.1 1543.2,1651.2 1583.0,1633.5 1622.6,1615.1 1662.1,1595.9 1701.6,1575.9 1741.5,1555.1 1781.8,1533.4 1822.7,1511.0 1864.6,1487.7 1907.4,1463.7 1951.6,1439.1 1997.3,1414.0 2044.7,1388.4 2094.1,1362.4 2145.7,1336.3 2199.8,1310.3 2256.6,1284.4 2316.5,1258.8 2379.7,1233.9 2446.4,1209.8 2517.1,1186.8  Z" style="stroke-width: 2.0;  stroke: rgb(82,82,82); fill: rgb(153,204,255); opacity: 0.667;" />
<path d="M 2517.109,1186.762 A 1064.250,1064.250 0.00 0,1 2518.3,1190.7 L 2518.3,1190.7 2448.3,1212.6 2383.6,1234.1 2324.0,1255.2 2269.1,1275.9 2218.7,1296.3 2172.6,1316.3 2130.5,1336.1 2092.1,1355.6 2057.4,1374.9 2026.0,1394.1 1997.8,1413.2 1972.8,1432.1 1950.6,1451.1 1931.2,1470.1 1914.5,1489.3 1900.4,1508.6 1888.8,1528.1 1879.7,1548.0 1872.9,1568.2 1868.5,1588.9 1866.5,1610.2 1866.8,1632.0 1869.5,1654.6 1874.5,1678.0 1882.0,1702.2 1892.0,1727.5 1904.6,1753.8 1919.8,1781.3 1937.8,1810.2 1958.7,1840.4 1982.6,1872.2 2009.8,1905.6 2040.2,1940.8 2074.3,1977.8 2112.1,2016.8 2153.8,2058.0 2199.8,2101.5 2250.2,2147.4 2305.3,2195.8  A 1064.250,1064.250 0.00 0,0 2308.0,2192.6 L 2308.0,2192.6 2252.7,2144.4 2202.1,2098.8 2156.0,2055.5 2114.1,2014.4 2076.2,1975.5 2042.0,1938.6 2011.3,1903.6 1984.1,1870.3 1960.0,1838.6 1939.0,1808.5 1920.9,1779.7 1905.6,1752.2 1892.9,1725.9 1882.8,1700.7 1875.2,1676.5 1870.1,1653.1 1867.3,1630.6 1866.9,1608.7 1868.9,1587.5 1873.2,1566.8 1879.9,1546.5 1888.9,1526.6 1900.4,1507.0 1914.5,1487.7 1931.1,1468.5 1950.4,1449.4 1972.5,1430.3 1997.5,1411.2 2025.6,1392.0 2056.9,1372.8 2091.6,1353.3 2129.8,1333.6 2171.9,1313.7 2217.9,1293.5 2268.2,1272.9 2323.0,1252.0 2382.6,1230.7 2447.2,1208.9 2517.1,1186.8  Z" style="stroke-width: 2.0;  stroke: rgb(82,82,82); fill: rgb(0,255,255); opacity: 0.667;" />
<path d="M 2517.109,1186.762 A 1064.250,1064.250 0.00 0,1 2518.3,1190.7 L 2518.3,1190.7 2448.1,1211.7 2382.8,1230.2 2322.3,1246.6 2266.1,1260.9 2214.2,1273.2 2166.3,1283.6 2122.1,1292.2 2081.6,1299.0 2044.4,1304.2 2010.5,1307.8 1979.6,1309.8 1951.6,1310.2 1926.5,1309.2 1904.0,1306.7 1884.0,1302.7 1866.5,1297.2 1851.4,1290.2 1838.7,1281.8 1828.1,1271.8 1819.8,1260.3 1813.6,1247.1 1809.6,1232.3 1807.8,1215.8 1808.1,1197.5 1810.5,1177.3 1815.2,1155.1 1822.1,1130.9 1831.3,1104.5 1842.9,1075.8 1857.0,1044.7 1873.6,1011.1 1892.8,974.7 1914.9,935.5 1939.8,893.3 1967.8,847.9 1999.0,799.1 2033.6,746.7 2071.8,690.6 2113.7,630.5  A 1064.250,1064.250 0.00 0,0 2109.9,627.9 L 2109.9,627.9 2068.3,688.1 2030.3,744.4 1996.0,796.9 1965.0,845.9 1937.2,891.4 1912.4,933.7 1890.6,973.0 1871.5,1009.5 1855.0,1043.2 1841.1,1074.4 1829.6,1103.1 1820.5,1129.6 1813.7,1153.8 1809.1,1176.0 1806.8,1196.2 1806.6,1214.5 1808.5,1231.0 1812.6,1245.8 1818.8,1258.9 1827.2,1270.5 1837.7,1280.4 1850.6,1288.8 1865.7,1295.7 1883.2,1301.1 1903.2,1305.0 1925.7,1307.5 1950.9,1308.4 1978.8,1307.9 2009.7,1305.8 2043.6,1302.1 2080.8,1296.8 2121.3,1289.7 2165.4,1281.0 2213.3,1270.4 2265.2,1257.9 2321.3,1243.4 2381.8,1226.8 2447.0,1207.9 2517.1,1186.8  Z" style="stroke-width: 2.0;  stroke: rgb(82,82,82); fill: rgb(204,255,255); opacity: 0.667;" />
<path d="M 2517.109,1186.762 A 1064.250,1064.250 0.00 0,1 2518.3,1190.7 L 2518.3,1190.7 2448.2,1211.8 2383.2,1230.9 2323.2,1248.0 2267.7,1263.3 2216.7,1276.9 2169.9,1288.8 2127.0,1299.1 2088.0,1307.9 2052.5,1315.3 2020.6,1321.2 1991.9,1325.8 1966.3,1329.1 1943.8,1331.0 1924.3,1331.7 1907.5,1331.0 1893.5,1329.2 1882.2,1326.1 1873.5,1321.7 1867.4,1316.1 1863.9,1309.1 1862.9,1300.9 1864.4,1291.3 1868.5,1280.3 1875.1,1267.8 1884.4,1253.9 1896.4,1238.4 1911.1,1221.2 1928.6,1202.4 1949.1,1181.8 1972.6,1159.3 1999.2,1134.8 2029.2,1108.3 2062.6,1079.5 2099.6,1048.5 2140.4,1015.0 2185.2,978.9 2234.2,940.1 2287.6,898.5 2345.7,853.9  A 1064.250,1064.250 0.00 0,0 2343.1,850.6 L 2343.1,850.6 2285.3,895.4 2232.0,937.3 2183.2,976.2 2138.5,1012.5 2097.9,1046.1 2061.0,1077.3 2027.7,1106.2 1997.8,1132.9 1971.2,1157.4 1947.8,1180.0 1927.5,1200.7 1910.0,1219.6 1895.3,1236.8 1883.4,1252.4 1874.2,1266.3 1867.6,1278.8 1863.6,1289.8 1862.1,1299.4 1863.1,1307.7 1866.7,1314.6 1872.8,1320.2 1881.6,1324.6 1892.9,1327.7 1906.9,1329.5 1923.6,1330.0 1943.2,1329.3 1965.7,1327.2 1991.2,1323.9 2019.9,1319.2 2051.8,1313.1 2087.2,1305.6 2126.2,1296.7 2169.0,1286.2 2215.8,1274.1 2266.8,1260.3 2322.2,1244.8 2382.2,1227.4 2447.1,1208.1 2517.1,1186.8  Z" style="stroke-width: 2.0;  stroke: rgb(82,82,82); fill: rgb(153,0,204); opacity: 0.667;" />
<path d="M 2517.109,1186.762 A 1064.250,1064.250 0.00 0,1 2518.3,1190.7 L 2518.3,1190.7 2448.2,1211.9 2383.3,1231.1 2323.4,1248.4 2268.1,1264.0 2217.3,1278.0 2170.7,1290.4 2128.2,1301.3 2089.5,1310.7 2054.5,1318.8 2022.9,1325.4 1994.7,1330.8 1969.8,1335.0 1947.9,1337.9 1929.0,1339.6 1913.0,1340.1 1899.8,1339.5 1889.3,1337.6 1881.6,1334.6 1876.5,1330.4 1874.0,1325.0 1874.1,1318.4 1876.9,1310.6 1882.3,1301.5 1890.4,1291.0 1901.3,1279.2 1914.9,1266.0 1931.3,1251.3 1950.8,1235.1 1973.2,1217.2 1998.9,1197.7 2027.8,1176.3 2060.2,1153.2 2096.2,1128.0 2135.9,1100.7 2179.6,1071.3 2227.5,1039.6 2279.7,1005.4 2336.6,968.7 2398.3,929.3  A 1064.250,1064.250 0.00 0,0 2396.1,925.8 L 2396.1,925.8 2334.5,965.5 2277.8,1002.4 2225.7,1036.7 2177.9,1068.7 2134.3,1098.3 2094.7,1125.7 2058.8,1151.0 2026.5,1174.3 1997.7,1195.7 1972.1,1215.4 1949.7,1233.3 1930.4,1249.6 1914.0,1264.4 1900.4,1277.7 1889.6,1289.5 1881.6,1300.0 1876.2,1309.1 1873.4,1317.0 1873.3,1323.6 1875.8,1329.0 1880.9,1333.1 1888.7,1336.1 1899.1,1337.9 1912.3,1338.5 1928.3,1337.9 1947.2,1336.1 1969.1,1333.1 1994.1,1328.9 2022.2,1323.4 2053.7,1316.6 2088.7,1308.4 2127.4,1298.8 2169.9,1287.8 2216.4,1275.2 2267.2,1261.0 2322.4,1245.2 2382.3,1227.6 2447.1,1208.1 2517.1,1186.8  Z" style="stroke-width: 2.0;  stroke: rgb(82,82,82); fill: rgb(204,51,255); opacity: 0.667;" />
<path d="M 2517.109,1186.762 A 1064.250,1064.250 0.00 0,1 2518.3,1190.7 L 2518.3,1190.7 2448.3,1212.0 2383.5,1231.5 2323.8,1249.5 2268.9,1265.9 2218.5,1280.9 2172.4,1294.5 2130.5,1306.8 2092.5,1317.9 2058.3,1327.7 2027.7,1336.4 2000.5,1344.0 1976.6,1350.6 1955.9,1356.1 1938.3,1360.5 1923.7,1364.1 1912.1,1366.6 1903.3,1368.2 1897.3,1368.9 1894.2,1368.6 1893.8,1367.5 1896.1,1365.3 1901.3,1362.3 1909.3,1358.3 1920.1,1353.3 1933.9,1347.3 1950.6,1340.3 1970.5,1332.2 1993.4,1323.1 2019.7,1312.8 2049.4,1301.2 2082.7,1288.5 2119.7,1274.4 2160.5,1259.0 2205.5,1242.1 2254.7,1223.7 2308.5,1203.8 2367.0,1182.2 2430.4,1158.8 2499.2,1133.5  A 1064.250,1064.250 0.00 0,0 2497.6,1129.2 L 2497.6,1129.2 2429.0,1154.8 2365.6,1178.4 2307.2,1200.3 2253.5,1220.5 2204.4,1239.1 2159.5,1256.1 2118.7,1271.8 2081.8,1286.0 2048.6,1298.9 2018.9,1310.5 1992.7,1321.0 1969.7,1330.2 1950.0,1338.4 1933.2,1345.5 1919.5,1351.5 1908.7,1356.6 1900.7,1360.6 1895.6,1363.7 1893.2,1365.8 1893.6,1367.0 1896.8,1367.3 1902.7,1366.6 1911.5,1364.9 1923.2,1362.3 1937.8,1358.8 1955.3,1354.2 1976.0,1348.7 1999.8,1342.0 2027.0,1334.4 2057.6,1325.5 2091.8,1315.6 2129.8,1304.4 2171.6,1291.9 2217.6,1278.1 2268.0,1262.9 2322.8,1246.3 2382.5,1228.1 2447.1,1208.3 2517.1,1186.8  Z" style="stroke-width: 2.0;  stroke: rgb(82,82,82); fill: rgb(204,153,255); opacity: 0.667;" />
<path d="M 2557.741,1382.471 A 1064.250,1064.250 0.00 0,1 2558.2,1387.0 L 2558.2,1387.0 2484.6,1396.1 2414.8,1406.9 2348.5,1419.3 2285.5,1432.8 2225.5,1447.4 2168.4,1462.8 2113.8,1478.7 2061.5,1495.1 2011.3,1511.7 1962.9,1528.3 1916.2,1545.0 1870.9,1561.5 1826.9,1577.7 1783.9,1593.6 1741.7,1609.2 1700.2,1624.3 1659.1,1639.0 1618.4,1653.2 1577.7,1667.0 1537.1,1680.5 1496.2,1693.6 1454.9,1706.4 1413.2,1719.1 1370.8,1731.7 1327.7,1744.3 1283.7,1757.1 1238.6,1770.3 1192.5,1784.0 1145.0,1798.5 1096.3,1813.9 1046.1,1830.5 994.3,1848.5 940.9,1868.2 885.9,1889.9 829.0,1913.9 770.3,1940.5 709.8,1970.1 647.2,2003.0 582.7,2039.5  A 1064.250,1064.250 0.00 0,0 585.1,2043.7 L 585.1,2043.7 649.5,2006.9 711.9,1973.7 772.4,1943.8 830.9,1917.0 887.7,1892.7 942.6,1870.7 995.9,1850.8 1047.6,1832.5 1097.7,1815.7 1146.4,1800.1 1193.8,1785.5 1239.9,1771.5 1284.8,1758.1 1328.8,1745.1 1371.9,1732.3 1414.2,1719.5 1455.9,1706.7 1497.0,1693.6 1537.9,1680.4 1578.5,1666.7 1619.1,1652.7 1659.8,1638.3 1700.8,1623.4 1742.2,1608.1 1784.3,1592.4 1827.3,1576.3 1871.2,1559.9 1916.4,1543.2 1963.0,1526.4 2011.3,1509.5 2061.5,1492.7 2113.7,1476.1 2168.2,1459.9 2225.3,1444.3 2285.2,1429.4 2348.1,1415.6 2414.3,1403.0 2484.1,1391.8 2557.7,1382.5  Z" style="stroke-width: 2.0;  stroke: rgb(82,82,82); fill: rgb(102,102,102); opacity: 0.667;" />
<path d="M 2557.741,1382.471 A 1064.250,1064.250 0.00 0,1 2558.2,1387.0 L 2558.2,1387.0 2485.4,1395.3 2418.0,1404.0 2355.7,1413.0 2298.2,1422.4 2245.3,1432.1 2196.8,1442.1 2152.4,1452.5 2111.8,1463.2 2075.0,1474.2 2041.6,1485.6 2011.6,1497.4 1984.8,1509.5 1961.0,1522.1 1940.1,1535.1 1922.0,1548.6 1906.6,1562.7 1893.9,1577.3 1883.7,1592.5 1876.0,1608.4 1870.8,1625.1 1868.0,1642.6 1867.7,1660.9 1869.9,1680.2 1874.5,1700.5 1881.7,1721.9 1891.4,1744.5 1903.8,1768.4 1918.9,1793.7 1936.9,1820.4 1957.8,1848.8 1981.8,1878.9 2009.0,1910.7 2039.6,1944.6 2073.8,1980.5 2111.7,2018.6 2153.6,2059.0 2199.7,2101.9 2250.2,2147.5 2305.3,2195.8  A 1064.250,1064.250 0.00 0,0 2308.0,2192.6 L 2308.0,2192.6 2252.7,2144.5 2202.0,2099.2 2155.8,2056.5 2113.8,2016.2 2075.7,1978.2 2041.4,1942.5 2010.6,1908.7 1983.3,1877.0 1959.2,1847.0 1938.2,1818.7 1920.1,1792.0 1904.9,1766.8 1892.4,1742.9 1882.5,1720.3 1875.3,1699.0 1870.6,1678.7 1868.3,1659.4 1868.6,1641.0 1871.3,1623.6 1876.4,1606.9 1884.0,1590.9 1894.2,1575.6 1906.9,1561.0 1922.2,1546.9 1940.2,1533.3 1961.0,1520.1 1984.8,1507.5 2011.6,1495.2 2041.5,1483.3 2074.8,1471.7 2111.6,1460.5 2152.1,1449.7 2196.5,1439.1 2245.0,1428.9 2297.9,1418.9 2355.3,1409.3 2417.5,1400.0 2484.9,1391.1 2557.7,1382.5  Z" style="stroke-width: 2.0;  stroke: rgb(82,82,82); fill: rgb(153,153,153); opacity: 0.667;" />
<path d="M 2557.741,1382.471 A 1064.250,1064.250 0.00 0,1 2558.2,1387.0 L 2558.2,1387.0 2485.3,1394.3 2417.5,1400.0 2354.7,1404.3 2296.4,1407.1 2242.6,1408.7 2192.9,1409.0 2147.2,1408.1 2105.1,1406.0 2066.6,1402.7 2031.4,1398.4 1999.3,1393.0 1970.3,1386.5 1944.0,1379.0 1920.6,1370.4 1899.7,1360.7 1881.3,1349.9 1865.3,1337.9 1851.7,1324.8 1840.3,1310.5 1831.1,1294.9 1824.2,1278.0 1819.3,1259.7 1816.7,1240.0 1816.2,1218.6 1817.9,1195.7 1821.8,1171.0 1828.0,1144.4 1836.5,1115.9 1847.3,1085.2 1860.7,1052.4 1876.6,1017.1 1895.3,979.4 1916.7,938.9 1941.2,895.7 1968.7,849.4 1999.5,800.0 2033.8,747.1 2071.8,690.7 2113.7,630.5  A 1064.250,1064.250 0.00 0,0 2109.9,627.9 L 2109.9,627.9 2068.3,688.2 2030.6,744.8 1996.5,797.8 1965.9,847.4 1938.5,893.8 1914.3,937.2 1893.0,977.7 1874.5,1015.5 1858.8,1050.8 1845.5,1083.7 1834.8,1114.4 1826.4,1143.0 1820.4,1169.6 1816.6,1194.3 1815.0,1217.3 1815.6,1238.6 1818.3,1258.4 1823.2,1276.6 1830.2,1293.5 1839.5,1309.1 1850.9,1323.3 1864.6,1336.4 1880.6,1348.2 1899.1,1359.0 1920.0,1368.6 1943.5,1377.1 1969.8,1384.5 1998.9,1390.9 2030.9,1396.1 2066.2,1400.3 2104.7,1403.4 2146.8,1405.3 2192.5,1406.0 2242.2,1405.5 2296.0,1403.7 2354.2,1400.6 2417.1,1396.1 2484.8,1390.1 2557.7,1382.5  Z" style="stroke-width: 2.0;  stroke: rgb(82,82,82); fill: rgb(204,204,204); opacity: 0.667;" />
<path d="M 2557.741,1382.471 A 1064.250,1064.250 0.00 0,1 2558.2,1387.0 L 2558.2,1387.0 2485.4,1394.5 2417.9,1400.7 2355.4,1405.7 2297.8,1409.7 2244.8,1412.5 2196.1,1414.4 2151.6,1415.3 2110.9,1415.2 2074.0,1414.2 2040.6,1412.4 2010.6,1409.6 1983.9,1406.0 1960.2,1401.5 1939.6,1396.1 1921.8,1389.8 1906.9,1382.7 1894.6,1374.6 1885.0,1365.6 1878.1,1355.6 1873.7,1344.6 1871.9,1332.6 1872.6,1319.5 1876.0,1305.2 1881.9,1289.7 1890.5,1273.0 1901.8,1254.9 1915.8,1235.3 1932.7,1214.3 1952.6,1191.6 1975.5,1167.3 2001.7,1141.2 2031.1,1113.2 2064.1,1083.2 2100.7,1051.0 2141.1,1016.6 2185.6,979.8 2234.4,940.6 2287.7,898.6 2345.7,853.9  A 1064.250,1064.250 0.00 0,0 2343.1,850.6 L 2343.1,850.6 2285.3,895.6 2232.2,937.7 2183.6,977.2 2139.2,1014.1 2098.9,1048.7 2062.4,1081.0 2029.6,1111.1 2000.2,1139.2 1974.2,1165.4 1951.4,1189.9 1931.6,1212.6 1914.8,1233.7 1900.8,1253.3 1889.6,1271.4 1881.1,1288.2 1875.2,1303.7 1871.9,1318.0 1871.2,1331.1 1873.1,1343.1 1877.5,1354.1 1884.5,1364.0 1894.1,1373.0 1906.4,1381.0 1921.4,1388.0 1939.2,1394.2 1959.8,1399.5 1983.5,1403.9 2010.2,1407.4 2040.2,1410.1 2073.6,1411.8 2110.5,1412.6 2151.2,1412.5 2195.7,1411.4 2244.4,1409.3 2297.4,1406.2 2355.0,1402.0 2417.4,1396.7 2484.9,1390.2 2557.7,1382.5  Z" style="stroke-width: 2.0;  stroke: rgb(82,82,82); fill: rgb(204,204,153); opacity: 0.667;" />
<path d="M 2557.741,1382.471 A 1064.250,1064.250 0.00 0,1 2558.2,1387.0 L 2558.2,1387.0 2485.4,1394.5 2417.9,1400.9 2355.6,1406.2 2298.2,1410.4 2245.3,1413.7 2196.8,1416.1 2152.5,1417.5 2112.2,1418.1 2075.7,1417.8 2042.7,1416.7 2013.2,1414.8 1987.0,1412.0 1963.9,1408.5 1943.9,1404.2 1926.9,1399.1 1912.7,1393.1 1901.3,1386.3 1892.6,1378.7 1886.7,1370.2 1883.4,1360.8 1882.7,1350.4 1884.7,1339.0 1889.4,1326.6 1896.8,1313.1 1907.0,1298.5 1919.9,1282.7 1935.8,1265.5 1954.6,1247.1 1976.5,1227.2 2001.6,1205.8 2030.0,1182.8 2061.9,1158.1 2097.5,1131.7 2136.9,1103.3 2180.3,1073.0 2227.9,1040.6 2279.9,1005.9 2336.7,968.8 2398.3,929.3  A 1064.250,1064.250 0.00 0,0 2396.1,925.8 L 2396.1,925.8 2334.6,965.6 2278.0,1002.8 2226.1,1037.7 2178.6,1070.3 2135.3,1100.8 2096.0,1129.3 2060.6,1155.9 2028.8,1180.7 2000.4,1203.8 1975.4,1225.3 1953.6,1245.3 1934.8,1263.8 1919.1,1281.0 1906.2,1296.9 1896.1,1311.5 1888.7,1325.0 1884.1,1337.5 1882.1,1348.8 1882.8,1359.2 1886.1,1368.6 1892.1,1377.1 1900.8,1384.7 1912.2,1391.4 1926.4,1397.3 1943.5,1402.3 1963.5,1406.6 1986.6,1410.0 2012.8,1412.6 2042.3,1414.4 2075.3,1415.3 2111.9,1415.4 2152.2,1414.7 2196.5,1413.1 2244.9,1410.5 2297.8,1407.0 2355.2,1402.5 2417.5,1396.9 2484.9,1390.3 2557.7,1382.5  Z" style="stroke-width: 2.0;  stroke: rgb(82,82,82); fill: rgb(251,106,74); opacity: 0.667;" />
<path d="M 2557.741,1382.471 A 1064.250,1064.250 0.00 0,1 2558.2,1387.0 L 2558.2,1387.0 2485.4,1394.6 2418.1,1401.4 2356.0,1407.3 2298.8,1412.4 2246.3,1416.7 2198.3,1420.3 2154.5,1423.2 2114.8,1425.4 2078.9,1427.0 2046.8,1427.9 2018.2,1428.2 1993.0,1427.9 1971.0,1427.0 1952.3,1425.5 1936.6,1423.4 1923.9,1420.6 1914.1,1417.3 1907.2,1413.4 1903.2,1408.8 1902.0,1403.6 1903.6,1397.7 1908.0,1391.1 1915.3,1383.8 1925.5,1375.8 1938.6,1366.9 1954.8,1357.3 1974.0,1346.8 1996.5,1335.3 2022.3,1323.0 2051.6,1309.6 2084.4,1295.1 2121.0,1279.6 2161.6,1262.8 2206.2,1244.8 2255.2,1225.5 2308.8,1204.8 2367.1,1182.6 2430.5,1158.9 2499.2,1133.5  A 1064.250,1064.250 0.00 0,0 2497.6,1129.2 L 2497.6,1129.2 2429.0,1154.9 2365.7,1178.9 2307.5,1201.3 2254.0,1222.2 2205.1,1241.8 2160.5,1260.0 2120.1,1276.9 2083.5,1292.6 2050.7,1307.2 2021.5,1320.7 1995.8,1333.2 1973.4,1344.7 1954.2,1355.3 1938.0,1365.0 1924.9,1373.9 1914.8,1382.0 1907.5,1389.3 1903.1,1395.9 1901.6,1401.8 1902.8,1407.1 1906.9,1411.6 1913.8,1415.5 1923.5,1418.8 1936.2,1421.5 1951.9,1423.5 1970.7,1425.0 1992.6,1425.8 2017.8,1426.0 2046.5,1425.6 2078.6,1424.5 2114.4,1422.8 2154.1,1420.4 2197.9,1417.3 2245.9,1413.5 2298.4,1408.9 2355.6,1403.6 2417.7,1397.4 2485.0,1390.4 2557.7,1382.5  Z" style="stroke-width: 2.0;  stroke: rgb(82,82,82); fill: rgb(116,196,118); opacity: 0.667;" />
<path d="M 2557.741,1382.471 A 1064.250,1064.250 0.00 0,1 2558.2,1387.0 L 2558.2,1387.0 2485.4,1394.7 2418.1,1401.5 2356.0,1407.6 2298.9,1412.9 2246.5,1417.5 2198.5,1421.5 2154.9,1424.8 2115.3,1427.4 2079.6,1429.5 2047.6,1431.0 2019.1,1431.9 1994.1,1432.2 1972.4,1432.0 1953.9,1431.3 1938.5,1430.0 1926.1,1428.2 1916.6,1425.9 1910.1,1422.9 1906.4,1419.5 1905.6,1415.4 1907.6,1410.8 1912.5,1405.6 1920.3,1399.7 1931.0,1393.2 1944.7,1386.0 1961.4,1378.1 1981.3,1369.4 2004.5,1360.0 2031.0,1349.7 2061.1,1338.6 2094.8,1326.5 2132.3,1313.5 2173.7,1299.5 2219.4,1284.4 2269.5,1268.2 2324.1,1250.8 2383.7,1232.1 2448.3,1212.1 2518.3,1190.7  A 1064.250,1064.250 0.00 0,0 2517.1,1186.8 L 2517.1,1186.8 2447.2,1208.4 2382.6,1228.7 2323.2,1247.6 2268.6,1265.2 2218.6,1281.6 2172.9,1296.9 2131.5,1311.0 2094.1,1324.2 2060.4,1336.4 2030.4,1347.6 2004.0,1358.0 1980.8,1367.5 1961.0,1376.2 1944.2,1384.2 1930.5,1391.5 1919.9,1398.0 1912.1,1403.9 1907.2,1409.1 1905.2,1413.8 1906.1,1417.8 1909.7,1421.2 1916.3,1424.1 1925.8,1426.4 1938.2,1428.2 1953.6,1429.4 1972.1,1430.0 1993.8,1430.1 2018.8,1429.7 2047.3,1428.6 2079.3,1427.0 2115.0,1424.8 2154.5,1421.9 2198.2,1418.5 2246.1,1414.3 2298.5,1409.5 2355.6,1403.9 2417.7,1397.6 2485.0,1390.4 2557.7,1382.5  Z" style="stroke-width: 2.0;  stroke: rgb(82,82,82); fill: rgb(107,174,214); opacity: 0.667;" />
<path d="M 2558.677,1391.230 A 1064.250,1064.250 0.00 0,1 2559.1,1395.4 L 2559.1,1395.4 2485.4,1403.9 2415.5,1414.1 2349.1,1425.9 2286.1,1439.0 2226.0,1453.1 2168.8,1468.0 2114.1,1483.6 2061.7,1499.5 2011.4,1515.7 1963.0,1532.1 1916.3,1548.4 1870.9,1564.5 1826.8,1580.5 1783.8,1596.1 1741.5,1611.4 1700.0,1626.3 1658.9,1640.8 1618.1,1654.8 1577.4,1668.4 1536.7,1681.7 1495.8,1694.6 1454.6,1707.3 1412.8,1719.9 1370.5,1732.3 1327.4,1744.9 1283.4,1757.6 1238.3,1770.7 1192.2,1784.3 1144.8,1798.7 1096.1,1814.1 1045.9,1830.6 994.2,1848.6 940.8,1868.3 885.8,1889.9 829.0,1913.9 770.3,1940.5 709.7,1970.1 647.2,2003.0 582.7,2039.5  A 1064.250,1064.250 0.00 0,0 585.1,2043.7 L 585.1,2043.7 649.5,2006.9 711.9,1973.7 772.3,1943.8 830.9,1917.0 887.6,1892.8 942.5,1870.8 995.7,1850.9 1047.4,1832.7 1097.5,1815.9 1146.1,1800.4 1193.5,1785.8 1239.6,1771.9 1284.5,1758.6 1328.5,1745.7 1371.5,1733.0 1413.8,1720.3 1455.5,1707.6 1496.7,1694.8 1537.5,1681.6 1578.2,1668.2 1618.8,1654.4 1659.5,1640.2 1700.5,1625.5 1742.0,1610.5 1784.2,1595.0 1827.2,1579.2 1871.2,1563.1 1916.5,1546.7 1963.2,1530.2 2011.5,1513.7 2061.7,1497.3 2114.0,1481.2 2168.7,1465.4 2225.8,1450.3 2285.8,1435.9 2348.8,1422.6 2415.1,1410.5 2485.0,1400.0 2558.7,1391.2  Z" style="stroke-width: 2.0;  stroke: rgb(82,82,82); fill: rgb(253,141,60); opacity: 0.667;" />
<path d="M 2558.677,1391.230 A 1064.250,1064.250 0.00 0,1 2559.1,1395.4 L 2559.1,1395.4 2486.2,1403.1 2418.7,1411.2 2356.3,1419.7 2298.8,1428.6 2245.9,1437.8 2197.3,1447.4 2152.8,1457.4 2112.2,1467.7 2075.3,1478.4 2041.9,1489.5 2011.8,1500.9 1985.0,1512.8 1961.1,1525.1 1940.2,1537.9 1922.1,1551.1 1906.7,1565.0 1893.9,1579.4 1883.7,1594.4 1876.0,1610.1 1870.7,1626.6 1868.0,1643.9 1867.7,1662.1 1869.8,1681.2 1874.4,1701.4 1881.6,1722.7 1891.3,1745.2 1903.7,1769.0 1918.9,1794.2 1936.8,1820.9 1957.8,1849.1 1981.8,1879.1 2009.0,1911.0 2039.6,1944.7 2073.8,1980.6 2111.7,2018.7 2153.6,2059.1 2199.7,2102.0 2250.2,2147.5 2305.3,2195.8  A 1064.250,1064.250 0.00 0,0 2308.0,2192.6 L 2308.0,2192.6 2252.7,2144.5 2202.0,2099.2 2155.8,2056.5 2113.7,2016.3 2075.7,1978.3 2041.3,1942.6 2010.6,1909.0 1983.2,1877.2 1959.1,1847.3 1938.1,1819.1 1920.0,1792.5 1904.8,1767.4 1892.3,1743.7 1882.5,1721.2 1875.2,1699.9 1870.5,1679.8 1868.3,1660.7 1868.5,1642.5 1871.2,1625.2 1876.4,1608.7 1884.0,1592.9 1894.2,1577.8 1906.9,1563.4 1922.3,1549.5 1940.3,1536.2 1961.2,1523.3 1985.0,1510.9 2011.8,1498.9 2041.9,1487.4 2075.2,1476.2 2112.1,1465.3 2152.6,1454.9 2197.1,1444.7 2245.6,1434.9 2298.5,1425.5 2356.0,1416.3 2418.3,1407.6 2485.8,1399.2 2558.7,1391.2  Z" style="stroke-width: 2.0;  stroke: rgb(82,82,82); fill: rgb(255,0,0); opacity: 0.667;" />
<path d="M 2558.677,1391.230 A 1064.250,1064.250 0.00 0,1 2559.1,1395.4 L 2559.1,1395.4 2486.1,1402.1 2418.3,1407.2 2355.4,1411.0 2297.1,1413.4 2243.2,1414.5 2193.5,1414.3 2147.8,1413.0 2105.7,1410.5 2067.1,1406.9 2031.9,1402.3 1999.8,1396.6 1970.7,1389.8 1944.5,1382.0 1921.0,1373.1 1900.1,1363.2 1881.7,1352.1 1865.7,1340.0 1852.0,1326.7 1840.6,1312.2 1831.5,1296.4 1824.5,1279.4 1819.7,1260.9 1817.0,1241.0 1816.5,1219.6 1818.2,1196.5 1822.0,1171.6 1828.2,1145.0 1836.6,1116.3 1847.5,1085.6 1860.8,1052.7 1876.7,1017.4 1895.4,979.6 1916.8,939.1 1941.2,895.8 1968.7,849.5 1999.6,800.0 2033.9,747.1 2071.8,690.7 2113.7,630.5  A 1064.250,1064.250 0.00 0,0 2109.9,627.9 L 2109.9,627.9 2068.3,688.2 2030.6,744.8 1996.5,797.8 1965.9,847.5 1938.6,893.9 1914.4,937.3 1893.1,977.9 1874.7,1015.8 1858.9,1051.1 1845.7,1084.1 1835.0,1114.9 1826.6,1143.6 1820.6,1170.3 1816.8,1195.1 1815.3,1218.2 1815.9,1239.7 1818.6,1259.6 1823.5,1278.0 1830.6,1295.1 1839.8,1310.8 1851.3,1325.3 1865.0,1338.5 1881.1,1350.6 1899.5,1361.5 1920.5,1371.4 1944.0,1380.2 1970.3,1387.9 1999.4,1394.6 2031.5,1400.2 2066.7,1404.7 2105.3,1408.1 2147.4,1410.4 2193.2,1411.6 2242.9,1411.5 2296.8,1410.2 2355.0,1407.6 2417.9,1403.6 2485.7,1398.2 2558.7,1391.2  Z" style="stroke-width: 2.0;  stroke: rgb(82,82,82); fill: rgb(255,0,204); opacity: 0.667;" />
<path d="M 2558.677,1391.230 A 1064.250,1064.250 0.00 0,1 2559.1,1395.4 L 2559.1,1395.4 2486.2,1402.2 2418.6,1407.9 2356.1,1412.4 2298.5,1415.9 2245.4,1418.3 2196.7,1419.8 2152.1,1420.2 2111.4,1419.8 2074.5,1418.5 2041.1,1416.2 2011.1,1413.2 1984.3,1409.2 1960.6,1404.5 1940.0,1398.8 1922.2,1392.3 1907.2,1384.9 1895.0,1376.7 1885.4,1367.5 1878.4,1357.3 1874.0,1346.2 1872.2,1334.0 1872.9,1320.7 1876.2,1306.3 1882.1,1290.7 1890.7,1273.8 1902.0,1255.6 1916.0,1235.9 1932.9,1214.8 1952.7,1192.1 1975.6,1167.7 2001.7,1141.5 2031.2,1113.4 2064.1,1083.3 2100.7,1051.1 2141.2,1016.7 2185.7,979.9 2234.4,940.6 2287.7,898.6 2345.7,853.9  A 1064.250,1064.250 0.00 0,0 2343.1,850.6 L 2343.1,850.6 2285.3,895.6 2232.2,937.7 2183.6,977.2 2139.3,1014.2 2098.9,1048.8 2062.5,1081.1 2029.7,1111.3 2000.3,1139.5 1974.3,1165.8 1951.5,1190.3 1931.8,1213.1 1915.0,1234.3 1901.0,1254.0 1889.8,1272.3 1881.3,1289.2 1875.5,1304.8 1872.2,1319.2 1871.5,1332.5 1873.4,1344.7 1877.8,1355.8 1884.8,1366.0 1894.5,1375.1 1906.8,1383.4 1921.8,1390.7 1939.6,1397.1 1960.3,1402.7 1983.9,1407.3 2010.7,1411.2 2040.7,1414.1 2074.2,1416.2 2111.1,1417.4 2151.8,1417.7 2196.4,1417.0 2245.1,1415.4 2298.2,1412.8 2355.8,1409.1 2418.2,1404.3 2485.8,1398.4 2558.7,1391.2  Z" style="stroke-width: 2.0;  stroke: rgb(82,82,82); fill: rgb(255,204,204); opacity: 0.667;" />
<path d="M 2558.677,1391.230 A 1064.250,1064.250 0.00 0,1 2559.1,1395.4 L 2559.1,1395.4 2486.2,1402.3 2418.7,1408.1 2356.3,1412.9 2298.8,1416.7 2245.9,1419.5 2197.4,1421.4 2153.1,1422.4 2112.7,1422.6 2076.1,1422.0 2043.2,1420.6 2013.6,1418.3 1987.4,1415.3 1964.3,1411.5 1944.3,1406.9 1927.2,1401.6 1913.0,1395.4 1901.6,1388.4 1892.9,1380.6 1886.9,1371.9 1883.6,1362.3 1883.0,1351.7 1885.0,1340.2 1889.6,1327.7 1897.0,1314.1 1907.2,1299.3 1920.1,1283.4 1935.9,1266.2 1954.7,1247.6 1976.6,1227.6 2001.7,1206.2 2030.1,1183.1 2062.0,1158.4 2097.5,1131.8 2136.9,1103.5 2180.3,1073.1 2227.9,1040.6 2279.9,1005.9 2336.7,968.8 2398.3,929.3  A 1064.250,1064.250 0.00 0,0 2396.1,925.8 L 2396.1,925.8 2334.6,965.6 2278.0,1002.8 2226.1,1037.7 2178.6,1070.4 2135.3,1101.0 2096.1,1129.5 2060.6,1156.2 2028.8,1181.0 2000.5,1204.2 1975.5,1225.8 1953.7,1245.8 1935.0,1264.4 1919.2,1281.7 1906.4,1297.7 1896.3,1312.5 1889.0,1326.2 1884.3,1338.7 1882.4,1350.2 1883.1,1360.8 1886.4,1370.4 1892.4,1379.0 1901.2,1386.8 1912.6,1393.8 1926.8,1399.9 1943.9,1405.2 1964.0,1409.7 1987.0,1413.4 2013.3,1416.3 2042.8,1418.4 2075.8,1419.7 2112.4,1420.2 2152.8,1419.9 2197.1,1418.7 2245.6,1416.6 2298.5,1413.5 2356.0,1409.5 2418.3,1404.5 2485.8,1398.4 2558.7,1391.2  Z" style="stroke-width: 2.0;  stroke: rgb(82,82,82); fill: rgb(255,153,0); opacity: 0.667;" />
<path d="M 2558.677,1391.230 A 1064.250,1064.250 0.00 0,1 2559.1,1395.4 L 2559.1,1395.4 2486.2,1402.4 2418.8,1408.6 2356.7,1414.0 2299.4,1418.6 2246.9,1422.5 2198.8,1425.7 2155.0,1428.2 2115.3,1430.0 2079.4,1431.2 2047.2,1431.8 2018.6,1431.8 1993.3,1431.2 1971.4,1430.0 1952.6,1428.2 1936.9,1425.9 1924.2,1422.9 1914.4,1419.4 1907.5,1415.3 1903.4,1410.5 1902.2,1405.1 1903.8,1399.1 1908.2,1392.3 1915.5,1384.9 1925.6,1376.7 1938.8,1367.8 1954.9,1358.0 1974.1,1347.4 1996.6,1335.9 2022.4,1323.4 2051.6,1309.9 2084.5,1295.4 2121.1,1279.8 2161.6,1263.0 2206.2,1244.9 2255.2,1225.6 2308.8,1204.8 2367.1,1182.6 2430.5,1158.9 2499.2,1133.5  A 1064.250,1064.250 0.00 0,0 2497.6,1129.2 L 2497.6,1129.2 2429.0,1154.9 2365.7,1178.9 2307.5,1201.3 2254.0,1222.3 2205.1,1241.9 2160.6,1260.1 2120.1,1277.1 2083.6,1292.9 2050.8,1307.6 2021.6,1321.2 1995.9,1333.7 1973.5,1345.4 1954.3,1356.1 1938.2,1365.9 1925.1,1374.9 1915.0,1383.2 1907.7,1390.6 1903.4,1397.4 1901.8,1403.4 1903.0,1408.8 1907.1,1413.6 1914.1,1417.7 1923.9,1421.2 1936.6,1424.1 1952.3,1426.4 1971.1,1428.1 1993.1,1429.2 2018.3,1429.7 2046.9,1429.6 2079.1,1428.9 2115.0,1427.6 2154.7,1425.6 2198.5,1422.9 2246.6,1419.6 2299.1,1415.5 2356.3,1410.6 2418.5,1405.0 2485.8,1398.6 2558.7,1391.2  Z" style="stroke-width: 2.0;  stroke: rgb(82,82,82); fill: rgb(255,204,0); opacity: 0.667;" />
<path d="M 2558.677,1391.230 A 1064.250,1064.250 0.00 0,1 2559.1,1395.4 L 2559.1,1395.4 2486.2,1402.5 2418.9,1408.7 2356.7,1414.3 2299.5,1419.1 2247.1,1423.3 2199.1,1426.8 2155.4,1429.7 2115.8,1432.0 2080.0,1433.7 2048.0,1434.9 2019.5,1435.5 1994.5,1435.5 1972.8,1435.1 1954.2,1434.1 1938.8,1432.6 1926.3,1430.5 1916.9,1427.9 1910.3,1424.8 1906.6,1421.2 1905.8,1417.0 1907.8,1412.2 1912.6,1406.8 1920.4,1400.8 1931.1,1394.1 1944.8,1386.8 1961.5,1378.8 1981.4,1370.0 2004.6,1360.5 2031.1,1350.2 2061.1,1338.9 2094.8,1326.8 2132.3,1313.8 2173.8,1299.7 2219.4,1284.5 2269.5,1268.3 2324.2,1250.8 2383.7,1232.1 2448.3,1212.1 2518.3,1190.7  A 1064.250,1064.250 0.00 0,0 2517.1,1186.8 L 2517.1,1186.8 2447.2,1208.4 2382.6,1228.7 2323.2,1247.6 2268.6,1265.3 2218.6,1281.7 2173.0,1297.0 2131.6,1311.3 2094.1,1324.5 2060.5,1336.7 2030.5,1348.1 2004.0,1358.5 1980.9,1368.2 1961.1,1377.0 1944.4,1385.1 1930.7,1392.5 1920.0,1399.1 1912.3,1405.2 1907.4,1410.6 1905.4,1415.4 1906.3,1419.6 1910.0,1423.2 1916.6,1426.3 1926.1,1428.8 1938.5,1430.8 1954.0,1432.3 1972.5,1433.2 1994.2,1433.6 2019.3,1433.4 2047.7,1432.7 2079.8,1431.4 2115.5,1429.6 2155.1,1427.1 2198.8,1424.1 2246.8,1420.4 2299.2,1416.0 2356.4,1410.9 2418.5,1405.1 2485.8,1398.6 2558.7,1391.2  Z" style="stroke-width: 2.0;  stroke: rgb(82,82,82); fill: rgb(255,255,0); opacity: 0.667;" />
<path d="M 2558.677,1391.230 A 1064.250,1064.250 0.00 0,1 2559.1,1395.4 L 2559.1,1395.4 2486.2,1402.6 2418.9,1409.2 2356.9,1415.3 2299.8,1420.9 2247.5,1426.0 2199.7,1430.7 2156.3,1434.9 2116.9,1438.8 2081.4,1442.2 2049.8,1445.2 2021.7,1447.9 1997.1,1450.3 1975.8,1452.3 1957.7,1453.9 1942.9,1455.3 1931.0,1456.3 1922.2,1457.0 1916.3,1457.5 1913.4,1457.6 1913.4,1457.4 1916.3,1457.0 1922.1,1456.2 1930.9,1455.1 1942.7,1453.7 1957.5,1452.0 1975.5,1450.0 1996.8,1447.6 2021.4,1444.9 2049.4,1441.8 2081.0,1438.3 2116.4,1434.5 2155.8,1430.2 2199.2,1425.5 2246.9,1420.4 2299.2,1414.8 2356.2,1408.6 2418.2,1402.0 2485.5,1394.8 2558.2,1387.0  A 1064.250,1064.250 0.00 0,0 2557.7,1382.5 L 2557.7,1382.5 2485.0,1390.6 2417.8,1398.0 2355.8,1405.0 2298.8,1411.3 2246.6,1417.2 2198.9,1422.5 2155.5,1427.4 2116.2,1431.8 2080.8,1435.8 2049.1,1439.4 2021.1,1442.7 1996.6,1445.5 1975.3,1448.0 1957.3,1450.1 1942.5,1451.9 1930.7,1453.3 1921.9,1454.4 1916.1,1455.2 1913.2,1455.7 1913.2,1455.9 1916.2,1455.8 1922.0,1455.3 1930.8,1454.6 1942.7,1453.5 1957.6,1452.1 1975.6,1450.4 1996.9,1448.3 2021.5,1445.9 2049.5,1443.1 2081.2,1439.9 2116.6,1436.3 2156.0,1432.4 2199.5,1428.0 2247.2,1423.1 2299.5,1417.8 2356.5,1412.0 2418.6,1405.6 2485.9,1398.7 2558.7,1391.2  Z" style="stroke-width: 2.0;  stroke: rgb(82,82,82); fill: rgb(204,255,0); opacity: 0.667;" />
<path d="M 2441.441,1996.303 A 1064.250,1064.250 0.00 0,1 2440.0,1999.0 L 2440.0,1999.0 2375.3,1964.7 2315.6,1933.0 2260.5,1903.8 2209.8,1877.0 2163.4,1852.4 2120.9,1829.9 2082.3,1809.5 2047.3,1791.1 2015.8,1774.5 1987.7,1759.6 1962.7,1746.5 1940.8,1735.1 1921.8,1725.2 1905.8,1716.8 1892.5,1710.0 1881.9,1704.6 1874.0,1700.6 1868.7,1698.0 1866.0,1696.9 1865.9,1697.1 1868.3,1698.7 1873.4,1701.7 1881.0,1706.2 1891.4,1712.0 1904.4,1719.3 1920.2,1728.2 1938.9,1738.5 1960.5,1750.5 1985.2,1764.1 2013.1,1779.5 2044.3,1796.6 2079.0,1815.7 2117.3,1836.7 2159.4,1859.7 2205.5,1885.0 2255.8,1912.5 2310.5,1942.4 2369.9,1974.8 2434.1,2009.9  A 1064.250,1064.250 0.00 0,0 2435.6,2007.2 L 2435.6,2007.2 2371.3,1972.3 2311.8,1940.0 2257.0,1910.3 2206.6,1882.9 2160.5,1857.8 2118.3,1834.9 2079.9,1814.0 2045.2,1795.1 2013.9,1778.0 1986.0,1762.7 1961.3,1749.2 1939.6,1737.2 1920.9,1726.9 1905.0,1718.2 1892.0,1710.9 1881.6,1705.0 1874.0,1700.6 1868.9,1697.6 1866.4,1696.0 1866.6,1695.8 1869.3,1697.0 1874.6,1699.5 1882.5,1703.5 1893.1,1708.8 1906.4,1715.6 1922.5,1723.9 1941.5,1733.8 1963.4,1745.2 1988.4,1758.2 2016.6,1773.0 2048.2,1789.5 2083.2,1807.8 2121.9,1828.1 2164.4,1850.4 2210.9,1874.9 2261.7,1901.6 2316.8,1930.6 2376.7,1962.2 2441.4,1996.3  Z" style="stroke-width: 2.0;  stroke: rgb(82,82,82); fill: rgb(0,255,0); opacity: 0.667;" />
<path d="M 2459.129,1961.194 A 1064.250,1064.250 0.00 0,1 2457.8,1964.0 L 2457.8,1964.0 2391.9,1932.1 2331.0,1902.7 2274.8,1875.6 2223.1,1850.8 2175.7,1828.1 2132.4,1807.5 2092.9,1788.7 2057.1,1771.8 2024.9,1756.7 1996.0,1743.3 1970.4,1731.5 1947.8,1721.2 1928.3,1712.5 1911.7,1705.2 1897.9,1699.4 1886.8,1694.9 1878.5,1691.8 1872.8,1690.1 1869.7,1689.7 1869.2,1690.6 1871.3,1692.9 1876.0,1696.6 1883.4,1701.6 1893.4,1708.0 1906.2,1715.8 1921.8,1725.1 1940.3,1735.9 1961.7,1748.3 1986.2,1762.3 2013.9,1778.0 2045.0,1795.4 2079.5,1814.8 2117.7,1836.0 2159.7,1859.3 2205.7,1884.7 2255.9,1912.3 2310.6,1942.3 2369.9,1974.8 2434.1,2009.9  A 1064.250,1064.250 0.00 0,0 2435.6,2007.2 L 2435.6,2007.2 2371.3,1972.3 2311.9,1940.0 2257.1,1910.1 2206.8,1882.6 2160.7,1857.3 2118.6,1834.2 2080.4,1813.1 2045.8,1793.9 2014.7,1776.5 1987.0,1760.9 1962.4,1747.0 1940.9,1734.6 1922.5,1723.9 1906.9,1714.6 1894.1,1706.8 1884.0,1700.5 1876.6,1695.5 1871.9,1691.8 1869.7,1689.6 1870.2,1688.6 1873.3,1689.0 1879.0,1690.7 1887.4,1693.8 1898.5,1698.2 1912.3,1704.0 1928.9,1711.2 1948.5,1719.9 1971.0,1730.1 1996.7,1741.8 2025.6,1755.2 2057.9,1770.2 2093.7,1787.0 2133.2,1805.6 2176.6,1826.2 2224.1,1848.7 2275.9,1873.4 2332.1,1900.3 2393.1,1929.5 2459.1,1961.2  Z" style="stroke-width: 2.0;  stroke: rgb(82,82,82); fill: rgb(53,128,0); opacity: 0.667;" />
<path d="M 2459.129,1961.194 A 1064.250,1064.250 0.00 0,1 2457.8,1964.0 L 2457.8,1964.0 2391.9,1932.1 2331.0,1902.7 2274.8,1875.6 2223.2,1850.7 2175.8,1828.0 2132.5,1807.2 2093.0,1788.4 2057.3,1771.5 2025.1,1756.2 1996.3,1742.7 1970.7,1730.8 1948.3,1720.4 1928.8,1711.5 1912.3,1704.1 1898.5,1698.1 1887.6,1693.5 1879.3,1690.2 1873.7,1688.3 1870.7,1687.7 1870.4,1688.4 1872.6,1690.4 1877.5,1693.8 1885.0,1698.6 1895.2,1704.7 1908.2,1712.2 1923.9,1721.2 1942.6,1731.6 1964.2,1743.6 1988.9,1757.2 2016.9,1772.5 2048.2,1789.5 2083.0,1808.3 2121.4,1829.0 2163.7,1851.8 2210.0,1876.6 2260.6,1903.6 2315.6,1932.9 2375.3,1964.7 2440.0,1999.0  A 1064.250,1064.250 0.00 0,0 2441.4,1996.3 L 2441.4,1996.3 2376.7,1962.1 2316.9,1930.5 2261.8,1901.4 2211.1,1874.5 2164.7,1849.8 2122.4,1827.2 2083.8,1806.6 2049.0,1787.9 2017.7,1771.0 1989.7,1755.8 1964.9,1742.3 1943.2,1730.3 1924.6,1719.9 1908.8,1711.0 1895.8,1703.5 1885.6,1697.4 1878.0,1692.7 1873.2,1689.4 1870.9,1687.3 1871.3,1686.6 1874.3,1687.2 1879.9,1689.1 1888.1,1692.3 1899.1,1696.9 1912.9,1702.9 1929.4,1710.3 1948.9,1719.1 1971.4,1729.4 1997.0,1741.3 2025.8,1754.7 2058.1,1769.8 2093.9,1786.7 2133.4,1805.4 2176.7,1826.0 2224.2,1848.6 2275.9,1873.3 2332.2,1900.2 2393.1,1929.5 2459.1,1961.2  Z" style="stroke-width: 2.0;  stroke: rgb(82,82,82); fill: rgb(0,0,204); opacity: 0.667;" />
<path d="M 2356.731,868.620 A 1064.250,1064.250 0.00 0,1 2358.7,871.3 L 2358.7,871.3 2299.4,914.3 2244.2,953.6 2192.8,989.3 2145.0,1021.7 2100.7,1050.9 2059.7,1077.0 2021.8,1100.2 1986.8,1120.7 1954.6,1138.5 1925.0,1153.8 1898.0,1166.6 1873.3,1177.1 1851.0,1185.2 1830.8,1191.1 1812.7,1194.8 1796.6,1196.3 1782.4,1195.7 1770.1,1193.0 1759.6,1188.1 1750.9,1181.0 1744.0,1171.8 1738.7,1160.4 1735.2,1146.6 1733.3,1130.6 1733.2,1112.1 1734.7,1091.1 1738.0,1067.6 1743.1,1041.3 1750.0,1012.2 1758.8,980.1 1769.5,944.9 1782.2,906.4 1797.0,864.4 1814.1,818.9 1833.4,769.5 1855.1,716.0 1879.3,658.3 1906.2,596.1 1935.9,529.1  A 1064.250,1064.250 0.00 0,0 1933.0,527.8 L 1933.0,527.8 1903.5,594.8 1876.7,657.1 1852.7,714.9 1831.1,768.4 1812.0,817.9 1795.1,863.5 1780.4,905.5 1767.8,944.0 1757.2,979.3 1748.5,1011.4 1741.7,1040.5 1736.7,1066.8 1733.5,1090.4 1732.0,1111.4 1732.2,1129.9 1734.1,1145.9 1737.7,1159.6 1743.0,1171.1 1750.0,1180.3 1758.7,1187.3 1769.2,1192.1 1781.5,1194.9 1795.6,1195.4 1811.7,1193.9 1829.8,1190.1 1850.0,1184.1 1872.3,1175.9 1896.9,1165.4 1923.9,1152.5 1953.4,1137.1 1985.6,1119.2 2020.5,1098.6 2058.4,1075.3 2099.3,1049.0 2143.5,1019.7 2191.2,987.2 2242.5,951.3 2297.6,911.8 2356.7,868.6  Z" style="stroke-width: 2.0;  stroke: rgb(82,82,82); fill: rgb(102,153,255); opacity: 0.667;" />
<path d="M 1528.703,436.137 A 1064.250,1064.250 0.00 0,1 1536.8,436.4 L 1536.8,436.4 1534.6,509.6 1533.2,577.4 1532.5,640.0 1532.6,697.6 1533.4,750.7 1534.9,799.3 1537.0,843.7 1539.7,884.2 1543.1,920.8 1547.1,953.9 1551.7,983.4 1557.0,1009.7 1562.8,1032.8 1569.3,1052.8 1576.4,1069.8 1584.2,1084.0 1592.6,1095.3 1601.8,1103.9 1611.8,1109.8 1622.5,1113.1 1634.0,1113.6 1646.4,1111.5 1659.8,1106.8 1674.1,1099.2 1689.4,1089.0 1705.9,1075.9 1723.5,1059.9 1742.4,1040.9 1762.6,1018.8 1784.1,993.5 1807.2,964.8 1831.9,932.6 1858.2,896.8 1886.3,857.1 1916.3,813.3 1948.2,765.3 1982.3,712.7 2018.6,655.5 2057.2,593.3  A 1064.250,1064.250 0.00 0,0 2050.3,589.0 L 2050.3,589.0 2012.1,651.6 1976.3,709.1 1942.6,761.9 1911.0,810.1 1881.4,854.1 1853.6,894.1 1827.5,930.1 1803.1,962.5 1780.3,991.3 1758.9,1016.8 1738.9,1039.1 1720.2,1058.2 1702.7,1074.3 1686.3,1087.5 1671.0,1097.9 1656.8,1105.5 1643.5,1110.4 1631.1,1112.6 1619.5,1112.2 1608.8,1109.0 1598.8,1103.2 1589.6,1094.6 1581.0,1083.3 1573.1,1069.2 1565.9,1052.2 1559.3,1032.3 1553.2,1009.3 1547.8,983.1 1543.0,953.5 1538.7,920.5 1535.1,883.9 1532.0,843.5 1529.5,799.1 1527.7,750.5 1526.5,697.4 1526.0,639.7 1526.2,577.1 1527.0,509.4 1528.7,436.1  Z" style="stroke-width: 2.0;  stroke: rgb(82,82,82); fill: rgb(153,204,255); opacity: 0.667;" />
<path d="M 1848.279,494.351 A 1064.250,1064.250 0.00 0,1 1850.6,495.1 L 1850.6,495.1 1826.9,564.6 1806.0,629.3 1787.7,689.7 1771.9,746.0 1758.4,798.3 1747.0,846.9 1737.8,892.1 1730.6,934.0 1725.3,972.7 1721.9,1008.6 1720.2,1041.6 1720.3,1072.1 1722.1,1100.1 1725.5,1125.8 1730.7,1149.3 1737.5,1170.6 1745.9,1190.0 1756.0,1207.5 1767.9,1223.1 1781.5,1236.9 1796.9,1249.0 1814.1,1259.4 1833.4,1268.2 1854.6,1275.3 1878.0,1280.9 1903.6,1284.8 1931.6,1287.0 1962.0,1287.6 1995.2,1286.6 2031.0,1283.7 2069.9,1279.1 2111.9,1272.6 2157.2,1264.1 2206.0,1253.7 2258.5,1241.0 2315.1,1226.1 2375.7,1208.9 2440.9,1189.1 2510.7,1166.6  A 1064.250,1064.250 0.00 0,0 2509.9,1164.3 L 2509.9,1164.3 2440.2,1186.9 2375.1,1206.9 2314.4,1224.3 2258.0,1239.3 2205.4,1252.0 2156.6,1262.6 2111.4,1271.2 2069.4,1277.8 2030.6,1282.5 1994.7,1285.4 1961.6,1286.6 1931.1,1286.1 1903.1,1283.9 1877.5,1280.0 1854.1,1274.5 1832.8,1267.4 1813.6,1258.7 1796.3,1248.3 1780.9,1236.3 1767.2,1222.5 1755.4,1206.9 1745.2,1189.5 1736.7,1170.1 1729.9,1148.8 1724.7,1125.3 1721.2,1099.6 1719.3,1071.6 1719.2,1041.1 1720.7,1008.1 1724.1,972.2 1729.3,933.4 1736.4,891.6 1745.6,846.4 1756.8,797.7 1770.2,745.4 1785.9,689.1 1804.1,628.7 1824.8,563.8 1848.3,494.4  Z" style="stroke-width: 2.0;  stroke: rgb(82,82,82); fill: rgb(0,255,255); opacity: 0.667;" />
</g>
<defs>
<pattern id="hline-sparse" width="10" height="10" patternTransform="rotate(0 0 0)" patternUnits="userSpaceOnUse"><line x1="0" y1="0" x2="10" y2="0" style="stroke:black;stroke-width:2" /></pattern>
<pattern id="checker" width="10" height="10" patternTransform="rotate(45 0 0)" patternUnits="userSpaceOnUse"><line x1="0" y1="0" x2="10" y2="0" style="stroke:black;stroke-width:2" /><line x1="0" y1="0" x2="0" y2="10" style="stroke:black;stroke-width:2" /></pattern>
<pattern id="checker" width="10" height="10" patternTransform="rotate(45 0 0)" patternUnits="userSpaceOnUse"><line x1="0" y1="0" x2="10" y2="0" style="stroke:black;stroke-width:5" /><line x1="0" y1="0" x2="0" y2="10" style="stroke:black;stroke-width:4" /></pattern>
<pattern id="hline" width="10" height="10" patternTransform="rotate(0 0 0)" patternUnits="userSpaceOnUse"><line x1="0" y1="0" x2="10" y2="0" style="stroke:black;stroke-width:5" /></pattern>
<pattern id="vline-sparse" width="10" height="10" patternTransform="rotate(0 0 0)" patternUnits="userSpaceOnUse"><line x1="0" y1="0" x2="0" y2="10" style="stroke:black;stroke-width:2" /></pattern>
<pattern id="vline" width="10" height="10" patternTransform="rotate(0 0 0)" patternUnits="userSpaceOnUse"><line x1="0" y1="0" x2="0" y2="10" style="stroke:black;stroke-width:5" /></pattern>
</defs>
</svg>
