<?xml version="1.0" encoding="utf-8" standalone="no"?>
<!DOCTYPE svg PUBLIC "-//W3C//DTD SVG 1.1//EN" "http://www.w3.org/Graphics/SVG/1.1/DTD/svg11.dtd">
<svg width="3000px" height="3000px" version="1.1" xmlns="http://www.w3.org/2000/svg" xmlns:xlink="http://www.w3.org/1999/xlink">
<g id="ideograms">
<path d="M1500.000,425.000 A1075.000,1075.000 40.000 0,1 1537.444,425.652 L1539.185,375.683 A1125.000,1125.000 0.000 0,0 1500.000,375.000 Z" style="stroke-linecap:round;fill:rgb(116,196,118);fill-opacity:0.33;" />
<text x="1530.7" y="285.4" font-size="18.2px" font-family="CMUBright-Roman" style="text-anchor:start;fill:rgb(0,0,0);" transform="rotate(271.0,1530.7,285.4)" >R<tspan baseline-shift="-40%" font-size="90%">s</tspan>caffold<tspan baseline-shift="-40%" font-size="90%">2</tspan>5</text>
<line x1='1500.0' y1='375.0' x2='1500.0' y2='355.0' style="stroke-width:4.0;stroke:rgb(0,0,0);stroke-linecap:round;fill:none;" />
<text x="1506.5" y="345.0" font-size="18.2px" font-family="CMUBright-Roman" style="text-anchor:start;fill:rgb(0,0,0);" transform="rotate(270.0,1506.5,345.0)" >0</text>
<g id="highlighttrack_0">
<path d="M1525.631,425.306 A1075.000,1075.000 40.000 0,1 1528.666,425.382 L1529.999,375.400 A1125.000,1125.000 0.000 0,0 1526.823,375.320 Z" style="stroke-width:4.0;stroke:rgb(0,0,0);stroke-linecap:round;fill:rgb(116,196,118);" />
</g>
<path d="M1602.243,429.873 A1075.000,1075.000 40.000 0,1 1634.106,433.398 L1640.343,383.788 A1125.000,1125.000 0.000 0,0 1606.998,380.100 Z" style="stroke-linecap:round;fill:rgb(116,196,118);fill-opacity:0.33;" />
<text x="1643.0" y="293.4" font-size="18.2px" font-family="CMUBright-Roman" style="text-anchor:start;fill:rgb(0,0,0);" transform="rotate(276.3,1643.0,293.4)" >R<tspan baseline-shift="-40%" font-size="90%">s</tspan>caffold<tspan baseline-shift="-40%" font-size="90%">2</tspan>6</text>
<line x1='1607.0' y1='380.1' x2='1608.9' y2='360.2' style="stroke-width:4.0;stroke:rgb(0,0,0);stroke-linecap:round;fill:none;" />
<text x="1616.3" y="350.9" font-size="18.2px" font-family="CMUBright-Roman" style="text-anchor:start;fill:rgb(0,0,0);" transform="rotate(275.5,1616.3,350.9)" >0</text>
<g id="highlighttrack_0">
<path d="M1621.223,431.857 A1075.000,1075.000 40.000 0,1 1624.570,432.242 L1630.364,382.579 A1125.000,1125.000 0.000 0,0 1626.861,382.176 Z" style="stroke-width:4.0;stroke:rgb(0,0,0);stroke-linecap:round;fill:rgb(251,106,74);" />
</g>
<path d="M1698.261,443.441 A1075.000,1075.000 40.000 0,1 1702.789,444.300 L1712.221,395.198 A1125.000,1125.000 0.000 0,0 1707.482,394.298 Z" style="stroke-linecap:round;fill:rgb(116,196,118);fill-opacity:0.33;" />
<text x="1736.0" y="308.1" font-size="18.2px" font-family="CMUBright-Roman" style="text-anchor:start;fill:rgb(0,0,0);" transform="rotate(280.8,1736.0,308.1)" >R<tspan baseline-shift="-40%" font-size="90%">s</tspan>caffold<tspan baseline-shift="-40%" font-size="90%">2</tspan>9</text>
<line x1='1707.5' y1='394.3' x2='1711.2' y2='374.6' style="stroke-width:4.0;stroke:rgb(0,0,0);stroke-linecap:round;fill:none;" />
<text x="1719.4" y="366.0" font-size="18.2px" font-family="CMUBright-Roman" style="text-anchor:start;fill:rgb(0,0,0);" transform="rotate(280.6,1719.4,366.0)" >0</text>
<g id="highlighttrack_0">
<path d="M1698.513,443.488 A1075.000,1075.000 40.000 0,1 1702.718,444.287 L1712.147,395.184 A1125.000,1125.000 0.000 0,0 1707.746,394.348 Z" style="stroke-width:4.0;stroke:rgb(0,0,0);stroke-linecap:round;fill:rgb(116,196,118);" />
</g>
<path d="M1766.160,458.471 A1075.000,1075.000 40.000 1,1 1435.093,426.961 L1432.074,377.053 A1125.000,1125.000 0.000 1,0 1778.540,410.027 Z" style="stroke-linecap:round;fill:rgb(116,196,118);fill-opacity:0.33;" />
<text x="1394.3" y="2710.4" font-size="18.2px" font-family="CMUBright-Roman" style="text-anchor:end;fill:rgb(0,0,0);" transform="rotate(-84.6,1394.3,2710.4)" >NC<tspan baseline-shift="-40%" font-size="90%">0</tspan>08700.1</text>
<line x1='1778.5' y1='410.0' x2='1783.5' y2='390.6' style="stroke-width:4.0;stroke:rgb(0,0,0);stroke-linecap:round;fill:none;" />
<text x="1792.3" y="382.6" font-size="18.2px" font-family="CMUBright-Roman" style="text-anchor:start;fill:rgb(0,0,0);" transform="rotate(284.3,1792.3,382.6)" >0</text>
<line x1='1853.4' y1='431.9' x2='1859.7' y2='413.0' style="stroke-width:4.0;stroke:rgb(0,0,0);stroke-linecap:round;fill:none;" />
<text x="1869.0" y="405.5" font-size="18.2px" font-family="CMUBright-Roman" style="text-anchor:start;fill:rgb(0,0,0);" transform="rotate(288.3,1869.0,405.5)" >50</text>
<line x1='1926.6' y1='459.0' x2='1934.1' y2='440.5' style="stroke-width:4.0;stroke:rgb(0,0,0);stroke-linecap:round;fill:none;" />
<text x="1943.9" y="433.7" font-size="18.2px" font-family="CMUBright-Roman" style="text-anchor:start;fill:rgb(0,0,0);" transform="rotate(292.3,1943.9,433.7)" >100</text>
<line x1='1997.7' y1='491.1' x2='2006.5' y2='473.1' style="stroke-width:4.0;stroke:rgb(0,0,0);stroke-linecap:round;fill:none;" />
<text x="2016.8" y="467.1" font-size="18.2px" font-family="CMUBright-Roman" style="text-anchor:start;fill:rgb(0,0,0);" transform="rotate(296.3,2016.8,467.1)" >150</text>
<line x1='2066.4' y1='528.0' x2='2076.5' y2='510.7' style="stroke-width:4.0;stroke:rgb(0,0,0);stroke-linecap:round;fill:none;" />
<text x="2087.1" y="505.3" font-size="18.2px" font-family="CMUBright-Roman" style="text-anchor:start;fill:rgb(0,0,0);" transform="rotate(300.2,2087.1,505.3)" >200</text>
<line x1='2132.4' y1='569.6' x2='2143.6' y2='553.0' style="stroke-width:4.0;stroke:rgb(0,0,0);stroke-linecap:round;fill:none;" />
<text x="2154.6" y="548.4" font-size="18.2px" font-family="CMUBright-Roman" style="text-anchor:start;fill:rgb(0,0,0);" transform="rotate(304.2,2154.6,548.4)" >250</text>
<line x1='2195.3' y1='615.6' x2='2207.7' y2='599.9' style="stroke-width:4.0;stroke:rgb(0,0,0);stroke-linecap:round;fill:none;" />
<text x="2219.0" y="596.1" font-size="18.2px" font-family="CMUBright-Roman" style="text-anchor:start;fill:rgb(0,0,0);" transform="rotate(308.2,2219.0,596.1)" >300</text>
<line x1='2254.9' y1='665.9' x2='2268.4' y2='651.1' style="stroke-width:4.0;stroke:rgb(0,0,0);stroke-linecap:round;fill:none;" />
<text x="2279.9" y="648.1" font-size="18.2px" font-family="CMUBright-Roman" style="text-anchor:start;fill:rgb(0,0,0);" transform="rotate(312.1,2279.9,648.1)" >350</text>
<line x1='2310.9' y1='720.2' x2='2325.3' y2='706.4' style="stroke-width:4.0;stroke:rgb(0,0,0);stroke-linecap:round;fill:none;" />
<text x="2337.0" y="704.1" font-size="18.2px" font-family="CMUBright-Roman" style="text-anchor:start;fill:rgb(0,0,0);" transform="rotate(316.1,2337.0,704.1)" >400</text>
<line x1='2363.0' y1='778.3' x2='2378.4' y2='765.5' style="stroke-width:4.0;stroke:rgb(0,0,0);stroke-linecap:round;fill:none;" />
<text x="2390.2" y="764.1" font-size="18.2px" font-family="CMUBright-Roman" style="text-anchor:start;fill:rgb(0,0,0);" transform="rotate(320.1,2390.2,764.1)" >450</text>
<line x1='2410.9' y1='839.8' x2='2427.1' y2='828.1' style="stroke-width:4.0;stroke:rgb(0,0,0);stroke-linecap:round;fill:none;" />
<text x="2439.0" y="827.5" font-size="18.2px" font-family="CMUBright-Roman" style="text-anchor:start;fill:rgb(0,0,0);" transform="rotate(324.1,2439.0,827.5)" >500</text>
<line x1='2454.5' y1='904.6' x2='2471.5' y2='894.0' style="stroke-width:4.0;stroke:rgb(0,0,0);stroke-linecap:round;fill:none;" />
<text x="2483.4" y="894.2" font-size="18.2px" font-family="CMUBright-Roman" style="text-anchor:start;fill:rgb(0,0,0);" transform="rotate(328.0,2483.4,894.2)" >550</text>
<line x1='2493.5' y1='972.1' x2='2511.1' y2='962.7' style="stroke-width:4.0;stroke:rgb(0,0,0);stroke-linecap:round;fill:none;" />
<text x="2523.0" y="963.8" font-size="18.2px" font-family="CMUBright-Roman" style="text-anchor:start;fill:rgb(0,0,0);" transform="rotate(332.0,2523.0,963.8)" >600</text>
<line x1='2527.7' y1='1042.2' x2='2545.9' y2='1034.1' style="stroke-width:4.0;stroke:rgb(0,0,0);stroke-linecap:round;fill:none;" />
<text x="2557.7" y="1036.0" font-size="18.2px" font-family="CMUBright-Roman" style="text-anchor:start;fill:rgb(0,0,0);" transform="rotate(336.0,2557.7,1036.0)" >650</text>
<line x1='2556.9' y1='1114.5' x2='2575.7' y2='1107.7' style="stroke-width:4.0;stroke:rgb(0,0,0);stroke-linecap:round;fill:none;" />
<text x="2587.3" y="1110.4" font-size="18.2px" font-family="CMUBright-Roman" style="text-anchor:start;fill:rgb(0,0,0);" transform="rotate(340.0,2587.3,1110.4)" >700</text>
<line x1='2581.1' y1='1188.7' x2='2600.3' y2='1183.2' style="stroke-width:4.0;stroke:rgb(0,0,0);stroke-linecap:round;fill:none;" />
<text x="2611.7" y="1186.7" font-size="18.2px" font-family="CMUBright-Roman" style="text-anchor:start;fill:rgb(0,0,0);" transform="rotate(343.9,2611.7,1186.7)" >750</text>
<line x1='2600.0' y1='1264.4' x2='2619.6' y2='1260.2' style="stroke-width:4.0;stroke:rgb(0,0,0);stroke-linecap:round;fill:none;" />
<text x="2630.7" y="1264.4" font-size="18.2px" font-family="CMUBright-Roman" style="text-anchor:start;fill:rgb(0,0,0);" transform="rotate(347.9,2630.7,1264.4)" >800</text>
<line x1='2613.7' y1='1341.2' x2='2633.5' y2='1338.3' style="stroke-width:4.0;stroke:rgb(0,0,0);stroke-linecap:round;fill:none;" />
<text x="2644.3" y="1343.4" font-size="18.2px" font-family="CMUBright-Roman" style="text-anchor:start;fill:rgb(0,0,0);" transform="rotate(351.9,2644.3,1343.4)" >850</text>
<line x1='2622.1' y1='1418.7' x2='2642.0' y2='1417.3' style="stroke-width:4.0;stroke:rgb(0,0,0);stroke-linecap:round;fill:none;" />
<text x="2652.4" y="1423.0" font-size="18.2px" font-family="CMUBright-Roman" style="text-anchor:start;fill:rgb(0,0,0);" transform="rotate(355.9,2652.4,1423.0)" >900</text>
<line x1='2625.0' y1='1496.7' x2='2645.0' y2='1496.6' style="stroke-width:4.0;stroke:rgb(0,0,0);stroke-linecap:round;fill:none;" />
<text x="2655.0" y="1503.1" font-size="18.2px" font-family="CMUBright-Roman" style="text-anchor:start;fill:rgb(0,0,0);" transform="rotate(359.8,2655.0,1503.1)" >950</text>
<line x1='2622.5' y1='1574.6' x2='2642.5' y2='1576.0' style="stroke-width:4.0;stroke:rgb(0,0,0);stroke-linecap:round;fill:none;" />
<text x="2652.0" y="1583.1" font-size="18.2px" font-family="CMUBright-Roman" style="text-anchor:start;fill:rgb(0,0,0);" transform="rotate(3.8,2652.0,1583.1)" >1000</text>
<line x1='2614.7' y1='1652.2' x2='2634.5' y2='1654.9' style="stroke-width:4.0;stroke:rgb(0,0,0);stroke-linecap:round;fill:none;" />
<text x="2643.5" y="1662.7" font-size="18.2px" font-family="CMUBright-Roman" style="text-anchor:start;fill:rgb(0,0,0);" transform="rotate(7.8,2643.5,1662.7)" >1050</text>
<line x1='2601.4' y1='1729.1' x2='2621.0' y2='1733.2' style="stroke-width:4.0;stroke:rgb(0,0,0);stroke-linecap:round;fill:none;" />
<text x="2629.5" y="1741.6" font-size="18.2px" font-family="CMUBright-Roman" style="text-anchor:start;fill:rgb(0,0,0);" transform="rotate(11.8,2629.5,1741.6)" >1100</text>
<line x1='2582.9' y1='1804.9' x2='2602.2' y2='1810.3' style="stroke-width:4.0;stroke:rgb(0,0,0);stroke-linecap:round;fill:none;" />
<text x="2610.0" y="1819.3" font-size="18.2px" font-family="CMUBright-Roman" style="text-anchor:start;fill:rgb(0,0,0);" transform="rotate(15.7,2610.0,1819.3)" >1150</text>
<line x1='2559.2' y1='1879.2' x2='2578.0' y2='1885.9' style="stroke-width:4.0;stroke:rgb(0,0,0);stroke-linecap:round;fill:none;" />
<text x="2585.2" y="1895.4" font-size="18.2px" font-family="CMUBright-Roman" style="text-anchor:start;fill:rgb(0,0,0);" transform="rotate(19.7,2585.2,1895.4)" >1200</text>
<line x1='2530.4' y1='1951.7' x2='2548.7' y2='1959.7' style="stroke-width:4.0;stroke:rgb(0,0,0);stroke-linecap:round;fill:none;" />
<text x="2555.2" y="1969.7" font-size="18.2px" font-family="CMUBright-Roman" style="text-anchor:start;fill:rgb(0,0,0);" transform="rotate(23.7,2555.2,1969.7)" >1250</text>
<line x1='2496.6' y1='2022.0' x2='2514.3' y2='2031.3' style="stroke-width:4.0;stroke:rgb(0,0,0);stroke-linecap:round;fill:none;" />
<text x="2520.1" y="2041.6" font-size="18.2px" font-family="CMUBright-Roman" style="text-anchor:start;fill:rgb(0,0,0);" transform="rotate(27.6,2520.1,2041.6)" >1300</text>
<line x1='2458.0' y1='2089.8' x2='2475.0' y2='2100.3' style="stroke-width:4.0;stroke:rgb(0,0,0);stroke-linecap:round;fill:none;" />
<text x="2480.1" y="2111.0" font-size="18.2px" font-family="CMUBright-Roman" style="text-anchor:start;fill:rgb(0,0,0);" transform="rotate(31.6,2480.1,2111.0)" >1350</text>
<line x1='2414.8' y1='2154.7' x2='2431.1' y2='2166.4' style="stroke-width:4.0;stroke:rgb(0,0,0);stroke-linecap:round;fill:none;" />
<text x="2435.4" y="2177.5" font-size="18.2px" font-family="CMUBright-Roman" style="text-anchor:start;fill:rgb(0,0,0);" transform="rotate(35.6,2435.4,2177.5)" >1400</text>
<line x1='2367.3' y1='2216.6' x2='2382.7' y2='2229.3' style="stroke-width:4.0;stroke:rgb(0,0,0);stroke-linecap:round;fill:none;" />
<text x="2386.2" y="2240.7" font-size="18.2px" font-family="CMUBright-Roman" style="text-anchor:start;fill:rgb(0,0,0);" transform="rotate(39.6,2386.2,2240.7)" >1450</text>
<line x1='2315.5' y1='2274.9' x2='2330.0' y2='2288.7' style="stroke-width:4.0;stroke:rgb(0,0,0);stroke-linecap:round;fill:none;" />
<text x="2332.8" y="2300.3" font-size="18.2px" font-family="CMUBright-Roman" style="text-anchor:start;fill:rgb(0,0,0);" transform="rotate(43.5,2332.8,2300.3)" >1500</text>
<line x1='2259.9' y1='2329.6' x2='2273.4' y2='2344.3' style="stroke-width:4.0;stroke:rgb(0,0,0);stroke-linecap:round;fill:none;" />
<text x="2275.3" y="2356.1" font-size="18.2px" font-family="CMUBright-Roman" style="text-anchor:start;fill:rgb(0,0,0);" transform="rotate(47.5,2275.3,2356.1)" >1550</text>
<line x1='2200.6' y1='2380.2' x2='2213.0' y2='2395.9' style="stroke-width:4.0;stroke:rgb(0,0,0);stroke-linecap:round;fill:none;" />
<text x="2214.1" y="2407.8" font-size="18.2px" font-family="CMUBright-Roman" style="text-anchor:start;fill:rgb(0,0,0);" transform="rotate(51.5,2214.1,2407.8)" >1600</text>
<line x1='2137.9' y1='2426.7' x2='2149.2' y2='2443.2' style="stroke-width:4.0;stroke:rgb(0,0,0);stroke-linecap:round;fill:none;" />
<text x="2149.5" y="2455.1" font-size="18.2px" font-family="CMUBright-Roman" style="text-anchor:start;fill:rgb(0,0,0);" transform="rotate(55.5,2149.5,2455.1)" >1650</text>
<line x1='2072.1' y1='2468.7' x2='2082.3' y2='2485.9' style="stroke-width:4.0;stroke:rgb(0,0,0);stroke-linecap:round;fill:none;" />
<text x="2081.8" y="2497.8" font-size="18.2px" font-family="CMUBright-Roman" style="text-anchor:start;fill:rgb(0,0,0);" transform="rotate(59.4,2081.8,2497.8)" >1700</text>
<line x1='2003.6' y1='2506.0' x2='2012.6' y2='2523.9' style="stroke-width:4.0;stroke:rgb(0,0,0);stroke-linecap:round;fill:none;" />
<text x="2011.2" y="2535.7" font-size="18.2px" font-family="CMUBright-Roman" style="text-anchor:start;fill:rgb(0,0,0);" transform="rotate(63.4,2011.2,2535.7)" >1750</text>
<line x1='1932.7' y1='2538.5' x2='1940.4' y2='2556.9' style="stroke-width:4.0;stroke:rgb(0,0,0);stroke-linecap:round;fill:none;" />
<text x="1938.3" y="2568.6" font-size="18.2px" font-family="CMUBright-Roman" style="text-anchor:start;fill:rgb(0,0,0);" transform="rotate(67.4,1938.3,2568.6)" >1800</text>
<line x1='1859.7' y1='2565.9' x2='1866.1' y2='2584.9' style="stroke-width:4.0;stroke:rgb(0,0,0);stroke-linecap:round;fill:none;" />
<text x="1863.1" y="2596.4" font-size="18.2px" font-family="CMUBright-Roman" style="text-anchor:start;fill:rgb(0,0,0);" transform="rotate(71.4,1863.1,2596.4)" >1850</text>
<line x1='1785.0' y1='2588.3' x2='1790.1' y2='2607.7' style="stroke-width:4.0;stroke:rgb(0,0,0);stroke-linecap:round;fill:none;" />
<text x="1786.3" y="2619.0" font-size="18.2px" font-family="CMUBright-Roman" style="text-anchor:start;fill:rgb(0,0,0);" transform="rotate(75.3,1786.3,2619.0)" >1900</text>
<line x1='1708.9' y1='2605.4' x2='1712.6' y2='2625.1' style="stroke-width:4.0;stroke:rgb(0,0,0);stroke-linecap:round;fill:none;" />
<text x="1708.1" y="2636.1" font-size="18.2px" font-family="CMUBright-Roman" style="text-anchor:start;fill:rgb(0,0,0);" transform="rotate(79.3,1708.1,2636.1)" >1950</text>
<line x1='1631.8' y1='2617.3' x2='1634.1' y2='2637.1' style="stroke-width:4.0;stroke:rgb(0,0,0);stroke-linecap:round;fill:none;" />
<text x="1628.9" y="2647.8" font-size="18.2px" font-family="CMUBright-Roman" style="text-anchor:start;fill:rgb(0,0,0);" transform="rotate(83.3,1628.9,2647.8)" >2000</text>
<line x1='1554.1' y1='2623.7' x2='1555.0' y2='2643.7' style="stroke-width:4.0;stroke:rgb(0,0,0);stroke-linecap:round;fill:none;" />
<text x="1549.0" y="2654.0" font-size="18.2px" font-family="CMUBright-Roman" style="text-anchor:start;fill:rgb(0,0,0);" transform="rotate(87.2,1549.0,2654.0)" >2050</text>
<line x1='1476.1' y1='2624.7' x2='1475.6' y2='2644.7' style="stroke-width:4.0;stroke:rgb(0,0,0);stroke-linecap:round;fill:none;" />
<text x="1481.9" y="2654.9" font-size="18.2px" font-family="CMUBright-Roman" style="text-anchor:end;fill:rgb(0,0,0);" transform="rotate(-88.8,1481.9,2654.9)" >2100</text>
<line x1='1398.2' y1='2620.4' x2='1396.4' y2='2640.3' style="stroke-width:4.0;stroke:rgb(0,0,0);stroke-linecap:round;fill:none;" />
<text x="1401.9" y="2650.8" font-size="18.2px" font-family="CMUBright-Roman" style="text-anchor:end;fill:rgb(0,0,0);" transform="rotate(-84.8,1401.9,2650.8)" >2150</text>
<line x1='1320.8' y1='2610.6' x2='1317.6' y2='2630.4' style="stroke-width:4.0;stroke:rgb(0,0,0);stroke-linecap:round;fill:none;" />
<text x="1322.4" y="2641.3" font-size="18.2px" font-family="CMUBright-Roman" style="text-anchor:end;fill:rgb(0,0,0);" transform="rotate(-80.8,1322.4,2641.3)" >2200</text>
<line x1='1244.3' y1='2595.5' x2='1239.7' y2='2615.0' style="stroke-width:4.0;stroke:rgb(0,0,0);stroke-linecap:round;fill:none;" />
<text x="1243.8" y="2626.2" font-size="18.2px" font-family="CMUBright-Roman" style="text-anchor:end;fill:rgb(0,0,0);" transform="rotate(-76.9,1243.8,2626.2)" >2250</text>
<line x1='1169.0' y1='2575.2' x2='1163.1' y2='2594.3' style="stroke-width:4.0;stroke:rgb(0,0,0);stroke-linecap:round;fill:none;" />
<text x="1166.4" y="2605.8" font-size="18.2px" font-family="CMUBright-Roman" style="text-anchor:end;fill:rgb(0,0,0);" transform="rotate(-72.9,1166.4,2605.8)" >2300</text>
<line x1='1095.3' y1='2549.7' x2='1088.1' y2='2568.3' style="stroke-width:4.0;stroke:rgb(0,0,0);stroke-linecap:round;fill:none;" />
<text x="1090.5" y="2580.0" font-size="18.2px" font-family="CMUBright-Roman" style="text-anchor:end;fill:rgb(0,0,0);" transform="rotate(-68.9,1090.5,2580.0)" >2350</text>
<line x1='1023.5' y1='2519.1' x2='1015.0' y2='2537.2' style="stroke-width:4.0;stroke:rgb(0,0,0);stroke-linecap:round;fill:none;" />
<text x="1016.7" y="2549.0" font-size="18.2px" font-family="CMUBright-Roman" style="text-anchor:end;fill:rgb(0,0,0);" transform="rotate(-64.9,1016.7,2549.0)" >2400</text>
<line x1='954.0' y1='2483.6' x2='944.3' y2='2501.1' style="stroke-width:4.0;stroke:rgb(0,0,0);stroke-linecap:round;fill:none;" />
<text x="945.2" y="2513.0" font-size="18.2px" font-family="CMUBright-Roman" style="text-anchor:end;fill:rgb(0,0,0);" transform="rotate(-61.0,945.2,2513.0)" >2450</text>
<line x1='887.2' y1='2443.4' x2='876.3' y2='2460.2' style="stroke-width:4.0;stroke:rgb(0,0,0);stroke-linecap:round;fill:none;" />
<text x="876.3" y="2472.1" font-size="18.2px" font-family="CMUBright-Roman" style="text-anchor:end;fill:rgb(0,0,0);" transform="rotate(-57.0,876.3,2472.1)" >2500</text>
<line x1='823.3' y1='2398.7' x2='811.2' y2='2414.7' style="stroke-width:4.0;stroke:rgb(0,0,0);stroke-linecap:round;fill:none;" />
<text x="810.4" y="2426.6" font-size="18.2px" font-family="CMUBright-Roman" style="text-anchor:end;fill:rgb(0,0,0);" transform="rotate(-53.0,810.4,2426.6)" >2550</text>
<line x1='762.6' y1='2349.6' x2='749.5' y2='2364.8' style="stroke-width:4.0;stroke:rgb(0,0,0);stroke-linecap:round;fill:none;" />
<text x="747.9" y="2376.5" font-size="18.2px" font-family="CMUBright-Roman" style="text-anchor:end;fill:rgb(0,0,0);" transform="rotate(-49.0,747.9,2376.5)" >2600</text>
<line x1='705.5' y1='2296.5' x2='691.4' y2='2310.7' style="stroke-width:4.0;stroke:rgb(0,0,0);stroke-linecap:round;fill:none;" />
<text x="688.9" y="2322.3" font-size="18.2px" font-family="CMUBright-Roman" style="text-anchor:end;fill:rgb(0,0,0);" transform="rotate(-45.1,688.9,2322.3)" >2650</text>
<line x1='652.2' y1='2239.5' x2='637.2' y2='2252.7' style="stroke-width:4.0;stroke:rgb(0,0,0);stroke-linecap:round;fill:none;" />
<text x="633.9" y="2264.1" font-size="18.2px" font-family="CMUBright-Roman" style="text-anchor:end;fill:rgb(0,0,0);" transform="rotate(-41.1,633.9,2264.1)" >2700</text>
<line x1='603.0' y1='2179.0' x2='587.1' y2='2191.1' style="stroke-width:4.0;stroke:rgb(0,0,0);stroke-linecap:round;fill:none;" />
<text x="583.0" y="2202.3" font-size="18.2px" font-family="CMUBright-Roman" style="text-anchor:end;fill:rgb(0,0,0);" transform="rotate(-37.1,583.0,2202.3)" >2750</text>
<line x1='558.1' y1='2115.2' x2='541.4' y2='2126.2' style="stroke-width:4.0;stroke:rgb(0,0,0);stroke-linecap:round;fill:none;" />
<text x="536.6" y="2137.1" font-size="18.2px" font-family="CMUBright-Roman" style="text-anchor:end;fill:rgb(0,0,0);" transform="rotate(-33.2,536.6,2137.1)" >2800</text>
<line x1='517.8' y1='2048.5' x2='500.3' y2='2058.2' style="stroke-width:4.0;stroke:rgb(0,0,0);stroke-linecap:round;fill:none;" />
<text x="494.8" y="2068.8" font-size="18.2px" font-family="CMUBright-Roman" style="text-anchor:end;fill:rgb(0,0,0);" transform="rotate(-29.2,494.8,2068.8)" >2850</text>
<line x1='482.1' y1='1979.1' x2='464.0' y2='1987.6' style="stroke-width:4.0;stroke:rgb(0,0,0);stroke-linecap:round;fill:none;" />
<text x="457.8" y="1997.8" font-size="18.2px" font-family="CMUBright-Roman" style="text-anchor:end;fill:rgb(0,0,0);" transform="rotate(-25.2,457.8,1997.8)" >2900</text>
<line x1='451.4' y1='1907.4' x2='432.7' y2='1914.7' style="stroke-width:4.0;stroke:rgb(0,0,0);stroke-linecap:round;fill:none;" />
<text x="425.8" y="1924.3" font-size="18.2px" font-family="CMUBright-Roman" style="text-anchor:end;fill:rgb(0,0,0);" transform="rotate(-21.2,425.8,1924.3)" >2950</text>
<line x1='425.7' y1='1833.8' x2='406.6' y2='1839.7' style="stroke-width:4.0;stroke:rgb(0,0,0);stroke-linecap:round;fill:none;" />
<text x="399.0" y="1848.9" font-size="18.2px" font-family="CMUBright-Roman" style="text-anchor:end;fill:rgb(0,0,0);" transform="rotate(-17.3,399.0,1848.9)" >3000</text>
<line x1='405.1' y1='1758.5' x2='385.6' y2='1763.1' style="stroke-width:4.0;stroke:rgb(0,0,0);stroke-linecap:round;fill:none;" />
<text x="377.4" y="1771.7" font-size="18.2px" font-family="CMUBright-Roman" style="text-anchor:end;fill:rgb(0,0,0);" transform="rotate(-13.3,377.4,1771.7)" >3050</text>
<line x1='389.8' y1='1682.0' x2='370.1' y2='1685.3' style="stroke-width:4.0;stroke:rgb(0,0,0);stroke-linecap:round;fill:none;" />
<text x="361.3" y="1693.3" font-size="18.2px" font-family="CMUBright-Roman" style="text-anchor:end;fill:rgb(0,0,0);" transform="rotate(-9.3,361.3,1693.3)" >3100</text>
<line x1='379.9' y1='1604.7' x2='360.0' y2='1606.5' style="stroke-width:4.0;stroke:rgb(0,0,0);stroke-linecap:round;fill:none;" />
<text x="350.6" y="1613.9" font-size="18.2px" font-family="CMUBright-Roman" style="text-anchor:end;fill:rgb(0,0,0);" transform="rotate(-5.3,350.6,1613.9)" >3150</text>
<line x1='375.3' y1='1526.8' x2='355.3' y2='1527.3' style="stroke-width:4.0;stroke:rgb(0,0,0);stroke-linecap:round;fill:none;" />
<text x="345.5" y="1534.0" font-size="18.2px" font-family="CMUBright-Roman" style="text-anchor:end;fill:rgb(0,0,0);" transform="rotate(-1.4,345.5,1534.0)" >3200</text>
<line x1='376.2' y1='1448.8' x2='356.2' y2='1447.9' style="stroke-width:4.0;stroke:rgb(0,0,0);stroke-linecap:round;fill:none;" />
<text x="345.9" y="1453.9" font-size="18.2px" font-family="CMUBright-Roman" style="text-anchor:end;fill:rgb(0,0,0);" transform="rotate(2.6,345.9,1453.9)" >3250</text>
<line x1='382.4' y1='1371.1' x2='362.5' y2='1368.8' style="stroke-width:4.0;stroke:rgb(0,0,0);stroke-linecap:round;fill:none;" />
<text x="351.9" y="1374.1" font-size="18.2px" font-family="CMUBright-Roman" style="text-anchor:end;fill:rgb(0,0,0);" transform="rotate(6.6,351.9,1374.1)" >3300</text>
<line x1='394.0' y1='1293.9' x2='374.4' y2='1290.3' style="stroke-width:4.0;stroke:rgb(0,0,0);stroke-linecap:round;fill:none;" />
<text x="363.4" y="1294.8" font-size="18.2px" font-family="CMUBright-Roman" style="text-anchor:end;fill:rgb(0,0,0);" transform="rotate(10.6,363.4,1294.8)" >3350</text>
<line x1='411.0' y1='1217.8' x2='391.6' y2='1212.8' style="stroke-width:4.0;stroke:rgb(0,0,0);stroke-linecap:round;fill:none;" />
<text x="380.3" y="1216.6" font-size="18.2px" font-family="CMUBright-Roman" style="text-anchor:end;fill:rgb(0,0,0);" transform="rotate(14.5,380.3,1216.6)" >3400</text>
<line x1='433.1' y1='1143.0' x2='414.2' y2='1136.6' style="stroke-width:4.0;stroke:rgb(0,0,0);stroke-linecap:round;fill:none;" />
<text x="402.7" y="1139.6" font-size="18.2px" font-family="CMUBright-Roman" style="text-anchor:end;fill:rgb(0,0,0);" transform="rotate(18.5,402.7,1139.6)" >3450</text>
<line x1='460.5' y1='1069.9' x2='442.0' y2='1062.3' style="stroke-width:4.0;stroke:rgb(0,0,0);stroke-linecap:round;fill:none;" />
<text x="430.3" y="1064.5" font-size="18.2px" font-family="CMUBright-Roman" style="text-anchor:end;fill:rgb(0,0,0);" transform="rotate(22.5,430.3,1064.5)" >3500</text>
<line x1='492.8' y1='998.9' x2='474.8' y2='990.0' style="stroke-width:4.0;stroke:rgb(0,0,0);stroke-linecap:round;fill:none;" />
<text x="463.0" y="991.4" font-size="18.2px" font-family="CMUBright-Roman" style="text-anchor:end;fill:rgb(0,0,0);" transform="rotate(26.4,463.0,991.4)" >3550</text>
<line x1='529.9' y1='930.3' x2='512.6' y2='920.2' style="stroke-width:4.0;stroke:rgb(0,0,0);stroke-linecap:round;fill:none;" />
<text x="500.7" y="920.8" font-size="18.2px" font-family="CMUBright-Roman" style="text-anchor:end;fill:rgb(0,0,0);" transform="rotate(30.4,500.7,920.8)" >3600</text>
<line x1='571.7' y1='864.5' x2='555.2' y2='853.2' style="stroke-width:4.0;stroke:rgb(0,0,0);stroke-linecap:round;fill:none;" />
<text x="543.3" y="852.9" font-size="18.2px" font-family="CMUBright-Roman" style="text-anchor:end;fill:rgb(0,0,0);" transform="rotate(34.4,543.3,852.9)" >3650</text>
<line x1='618.0' y1='801.7' x2='602.3' y2='789.3' style="stroke-width:4.0;stroke:rgb(0,0,0);stroke-linecap:round;fill:none;" />
<text x="590.4" y="788.2" font-size="18.2px" font-family="CMUBright-Roman" style="text-anchor:end;fill:rgb(0,0,0);" transform="rotate(38.4,590.4,788.2)" >3700</text>
<line x1='668.5' y1='742.2' x2='653.7' y2='728.8' style="stroke-width:4.0;stroke:rgb(0,0,0);stroke-linecap:round;fill:none;" />
<text x="641.9" y="726.9" font-size="18.2px" font-family="CMUBright-Roman" style="text-anchor:end;fill:rgb(0,0,0);" transform="rotate(42.3,641.9,726.9)" >3750</text>
<line x1='723.0' y1='686.4' x2='709.2' y2='672.0' style="stroke-width:4.0;stroke:rgb(0,0,0);stroke-linecap:round;fill:none;" />
<text x="697.6" y="669.3" font-size="18.2px" font-family="CMUBright-Roman" style="text-anchor:end;fill:rgb(0,0,0);" transform="rotate(46.3,697.6,669.3)" >3800</text>
<line x1='781.2' y1='634.6' x2='768.4' y2='619.2' style="stroke-width:4.0;stroke:rgb(0,0,0);stroke-linecap:round;fill:none;" />
<text x="757.1" y="615.6" font-size="18.2px" font-family="CMUBright-Roman" style="text-anchor:end;fill:rgb(0,0,0);" transform="rotate(50.3,757.1,615.6)" >3850</text>
<line x1='842.9' y1='586.8' x2='831.2' y2='570.6' style="stroke-width:4.0;stroke:rgb(0,0,0);stroke-linecap:round;fill:none;" />
<text x="820.1" y="566.3" font-size="18.2px" font-family="CMUBright-Roman" style="text-anchor:end;fill:rgb(0,0,0);" transform="rotate(54.3,820.1,566.3)" >3900</text>
<line x1='907.8' y1='543.5' x2='897.3' y2='526.5' style="stroke-width:4.0;stroke:rgb(0,0,0);stroke-linecap:round;fill:none;" />
<text x="886.5" y="521.4" font-size="18.2px" font-family="CMUBright-Roman" style="text-anchor:end;fill:rgb(0,0,0);" transform="rotate(58.2,886.5,521.4)" >3950</text>
<line x1='975.5' y1='504.8' x2='966.2' y2='487.1' style="stroke-width:4.0;stroke:rgb(0,0,0);stroke-linecap:round;fill:none;" />
<text x="955.8" y="481.3" font-size="18.2px" font-family="CMUBright-Roman" style="text-anchor:end;fill:rgb(0,0,0);" transform="rotate(62.2,955.8,481.3)" >4000</text>
<line x1='1045.7' y1='470.8' x2='1037.6' y2='452.5' style="stroke-width:4.0;stroke:rgb(0,0,0);stroke-linecap:round;fill:none;" />
<text x="1027.7" y="446.0" font-size="18.2px" font-family="CMUBright-Roman" style="text-anchor:end;fill:rgb(0,0,0);" transform="rotate(66.2,1027.7,446.0)" >4050</text>
<line x1='1118.1' y1='441.8' x2='1111.3' y2='423.0' style="stroke-width:4.0;stroke:rgb(0,0,0);stroke-linecap:round;fill:none;" />
<text x="1101.8" y="415.8" font-size="18.2px" font-family="CMUBright-Roman" style="text-anchor:end;fill:rgb(0,0,0);" transform="rotate(70.2,1101.8,415.8)" >4100</text>
<line x1='1192.4' y1='417.9' x2='1186.9' y2='398.6' style="stroke-width:4.0;stroke:rgb(0,0,0);stroke-linecap:round;fill:none;" />
<text x="1177.9" y="390.8" font-size="18.2px" font-family="CMUBright-Roman" style="text-anchor:end;fill:rgb(0,0,0);" transform="rotate(74.1,1177.9,390.8)" >4150</text>
<line x1='1268.1' y1='399.2' x2='1264.0' y2='379.6' style="stroke-width:4.0;stroke:rgb(0,0,0);stroke-linecap:round;fill:none;" />
<text x="1255.5" y="371.2" font-size="18.2px" font-family="CMUBright-Roman" style="text-anchor:end;fill:rgb(0,0,0);" transform="rotate(78.1,1255.5,371.2)" >4200</text>
<line x1='1344.9' y1='385.7' x2='1342.2' y2='365.9' style="stroke-width:4.0;stroke:rgb(0,0,0);stroke-linecap:round;fill:none;" />
<text x="1334.4" y="356.9" font-size="18.2px" font-family="CMUBright-Roman" style="text-anchor:end;fill:rgb(0,0,0);" transform="rotate(82.1,1334.4,356.9)" >4250</text>
<line x1='1422.5' y1='377.7' x2='1421.1' y2='357.7' style="stroke-width:4.0;stroke:rgb(0,0,0);stroke-linecap:round;fill:none;" />
<text x="1414.0" y="348.2" font-size="18.2px" font-family="CMUBright-Roman" style="text-anchor:end;fill:rgb(0,0,0);" transform="rotate(86.1,1414.0,348.2)" >4300</text>
<g id="highlighttrack_0">
<path d="M1848.926,483.203 A1075.000,1075.000 40.000 0,1 1852.974,484.601 L1869.391,437.374 A1125.000,1125.000 0.000 0,0 1865.156,435.911 Z" style="stroke-width:4.0;stroke:rgb(0,0,0);stroke-linecap:round;fill:rgb(116,196,118);" />
<path d="M2074.978,591.691 A1075.000,1075.000 40.000 0,1 2078.592,593.989 L2105.503,551.849 A1125.000,1125.000 0.000 0,0 2101.722,549.444 Z" style="stroke-width:4.0;stroke:rgb(0,0,0);stroke-linecap:round;fill:rgb(116,196,118);" />
<path d="M2137.950,634.757 A1075.000,1075.000 40.000 0,1 2141.392,637.305 L2171.224,597.180 A1125.000,1125.000 0.000 0,0 2167.622,594.513 Z" style="stroke-width:4.0;stroke:rgb(0,0,0);stroke-linecap:round;fill:rgb(116,196,118);" />
<path d="M2146.252,640.941 A1075.000,1075.000 40.000 0,1 2149.669,643.522 L2179.886,603.686 A1125.000,1125.000 0.000 0,0 2176.311,600.984 Z" style="stroke-width:4.0;stroke:rgb(0,0,0);stroke-linecap:round;fill:rgb(116,196,118);" />
<path d="M2313.278,797.004 A1075.000,1075.000 40.000 0,1 2316.072,800.249 L2354.029,767.703 A1125.000,1125.000 0.000 0,0 2351.105,764.306 Z" style="stroke-width:4.0;stroke:rgb(0,0,0);stroke-linecap:round;fill:rgb(116,196,118);" />
<path d="M1815.786,2527.572 A1075.000,1075.000 40.000 0,1 1811.690,2528.822 L1826.188,2576.674 A1125.000,1125.000 0.000 0,0 1830.474,2575.366 Z" style="stroke-width:4.0;stroke:rgb(0,0,0);stroke-linecap:round;fill:rgb(116,196,118);" />
<path d="M437.405,1662.840 A1075.000,1075.000 40.000 0,1 436.765,1658.606 L387.312,1665.983 A1125.000,1125.000 0.000 0,0 387.982,1670.414 Z" style="stroke-width:4.0;stroke:rgb(0,0,0);stroke-linecap:round;fill:rgb(251,106,74);" />
<path d="M1392.483,430.390 A1075.000,1075.000 40.000 0,1 1396.734,429.971 L1391.931,380.203 A1125.000,1125.000 0.000 0,0 1387.483,380.641 Z" style="stroke-width:4.0;stroke:rgb(0,0,0);stroke-linecap:round;fill:rgb(251,106,74);" />
<path d="M2112.860,616.808 A1075.000,1075.000 40.000 0,1 2115.356,618.546 L2143.977,577.548 A1125.000,1125.000 0.000 0,0 2141.365,575.729 Z" style="stroke-width:4.0;stroke:rgb(0,0,0);stroke-linecap:round;fill:rgb(251,106,74);" />
<path d="M2086.738,599.243 A1075.000,1075.000 40.000 0,1 2089.538,601.073 L2116.959,559.263 A1125.000,1125.000 0.000 0,0 2114.028,557.347 Z" style="stroke-width:4.0;stroke:rgb(0,0,0);stroke-linecap:round;fill:rgb(116,196,118);" />
</g>
</g>
<g id="track_0">
<path d="M 1845.437,493.371 A 1064.250,1064.250 0.00 0,1 1849.4,494.8 L 1849.4,494.8 1825.3,563.9 1802.9,627.7 1782.0,686.5 1762.6,740.4 1744.6,789.9 1728.0,835.0 1712.6,875.9 1698.5,913.0 1685.5,946.2 1673.6,975.9 1662.8,1002.1 1653.0,1025.0 1644.1,1044.6 1636.2,1061.2 1629.1,1074.7 1622.9,1085.3 1617.5,1093.0 1612.9,1097.8 1609.0,1099.8 1606.0,1098.9 1603.6,1095.3 1602.1,1088.8 1601.2,1079.5 1601.2,1067.2 1601.8,1052.0 1603.2,1033.6 1605.4,1012.2 1608.3,987.5 1612.1,959.4 1616.6,927.7 1622.0,892.4 1628.3,853.3 1635.6,810.2 1643.7,762.8 1652.9,711.0 1663.1,654.6 1674.5,593.2 1687.0,526.8 1700.7,454.8  A 1064.250,1064.250 0.00 0,0 1696.5,454.1 L 1696.5,454.1 1683.1,526.0 1670.9,592.5 1659.8,653.9 1649.8,710.4 1640.8,762.2 1632.8,809.6 1625.8,852.8 1619.6,892.0 1614.3,927.3 1609.9,958.9 1606.3,987.0 1603.4,1011.8 1601.3,1033.2 1600.0,1051.5 1599.4,1066.8 1599.6,1079.1 1600.4,1088.4 1602.0,1094.9 1604.4,1098.5 1607.4,1099.3 1611.2,1097.3 1615.8,1092.5 1621.2,1084.8 1627.4,1074.2 1634.4,1060.6 1642.3,1044.0 1651.1,1024.3 1660.8,1001.4 1671.5,975.2 1683.3,945.5 1696.1,912.2 1710.1,875.1 1725.3,834.1 1741.8,788.9 1759.5,739.4 1778.7,685.3 1799.4,626.5 1821.6,562.6 1845.4,493.4  Z" style="stroke-width: 2.0;  stroke: rgb(82,82,82); fill: rgb(251,106,74); opacity: 0.667;" />
<path d="M 2069.229,600.774 A 1064.250,1064.250 0.00 0,1 2072.8,603.0 L 2072.8,603.0 2033.2,664.6 1996.2,721.3 1961.6,773.4 1929.3,821.0 1899.3,864.5 1871.3,903.9 1845.4,939.6 1821.2,971.6 1798.9,1000.2 1778.3,1025.4 1759.2,1047.5 1741.7,1066.5 1725.6,1082.5 1710.8,1095.6 1697.4,1106.0 1685.2,1113.6 1674.2,1118.5 1664.4,1120.7 1655.7,1120.3 1648.0,1117.3 1641.4,1111.6 1635.8,1103.2 1631.2,1092.1 1627.5,1078.2 1624.9,1061.4 1623.2,1041.7 1622.6,1019.0 1622.9,993.2 1624.2,964.1 1626.6,931.5 1630.0,895.4 1634.5,855.6 1640.1,811.8 1647.0,764.0 1655.0,711.8 1664.3,655.0 1675.0,593.4 1687.1,526.8 1700.7,454.8  A 1064.250,1064.250 0.00 0,0 1696.5,454.1 L 1696.5,454.1 1683.2,526.1 1671.4,592.7 1661.0,654.3 1651.9,711.1 1644.0,763.4 1637.4,811.3 1631.9,855.1 1627.6,894.9 1624.3,931.0 1622.1,963.6 1620.9,992.7 1620.6,1018.5 1621.4,1041.2 1623.2,1060.9 1625.9,1077.7 1629.5,1091.5 1634.2,1102.6 1639.8,1111.0 1646.5,1116.7 1654.1,1119.7 1662.9,1120.1 1672.7,1117.8 1683.7,1112.9 1695.8,1105.2 1709.2,1094.8 1723.9,1081.6 1739.9,1065.5 1757.4,1046.4 1776.4,1024.3 1796.9,999.0 1819.1,970.3 1843.1,938.2 1869.0,902.4 1896.8,862.9 1926.6,819.3 1958.7,771.5 1993.1,719.4 2029.9,662.5 2069.2,600.8  Z" style="stroke-width: 2.0;  stroke: rgb(82,82,82); fill: rgb(116,196,118); opacity: 0.667;" />
<path d="M 2069.229,600.774 A 1064.250,1064.250 0.00 0,1 2072.8,603.0 L 2072.8,603.0 2033.3,664.7 1996.5,721.5 1962.3,773.7 1930.6,821.5 1901.3,865.3 1874.2,905.0 1849.1,941.1 1826.2,973.5 1805.1,1002.5 1785.8,1028.2 1768.3,1050.8 1752.5,1070.4 1738.2,1087.0 1725.4,1100.7 1714.1,1111.7 1704.3,1120.0 1695.8,1125.6 1688.6,1128.6 1682.7,1129.0 1678.1,1126.7 1674.8,1121.9 1672.7,1114.4 1671.8,1104.3 1672.2,1091.4 1673.9,1075.7 1676.8,1057.2 1681.0,1035.7 1686.5,1011.1 1693.4,983.4 1701.6,952.4 1711.4,917.8 1722.6,879.7 1735.4,837.8 1749.8,791.8 1766.0,741.7 1783.9,687.2 1803.7,628.0 1825.5,564.0 1849.4,494.8  A 1064.250,1064.250 0.00 0,0 1845.4,493.4 L 1845.4,493.4 1821.8,562.7 1800.3,626.8 1780.7,686.1 1762.9,740.7 1747.0,790.8 1732.7,836.8 1720.1,878.8 1709.0,917.0 1699.4,951.6 1691.3,982.6 1684.5,1010.4 1679.1,1035.0 1675.0,1056.5 1672.2,1075.0 1670.6,1090.7 1670.3,1103.6 1671.1,1113.7 1673.3,1121.2 1676.6,1126.0 1681.2,1128.2 1687.1,1127.9 1694.3,1124.8 1702.8,1119.2 1712.6,1110.9 1723.8,1099.8 1736.5,1086.0 1750.7,1069.4 1766.5,1049.8 1783.9,1027.1 1803.1,1001.3 1824.1,972.2 1846.9,939.7 1871.8,903.6 1898.7,863.7 1927.9,819.8 1959.4,771.9 1993.4,719.5 2029.9,662.6 2069.2,600.8  Z" style="stroke-width: 2.0;  stroke: rgb(82,82,82); fill: rgb(107,174,214); opacity: 0.667;" />
<path d="M 2131.570,643.410 A 1064.250,1064.250 0.00 0,1 2135.0,645.9 L 2135.0,645.9 2091.1,704.5 2050.0,758.4 2011.6,807.8 1975.8,852.9 1942.4,894.0 1911.3,931.2 1882.4,964.7 1855.5,994.8 1830.6,1021.5 1807.5,1045.0 1786.2,1065.4 1766.5,1082.8 1748.4,1097.4 1731.8,1109.2 1716.6,1118.3 1702.8,1124.7 1690.2,1128.5 1679.0,1129.7 1668.9,1128.4 1659.9,1124.4 1652.1,1117.9 1645.4,1108.8 1639.7,1096.9 1635.1,1082.4 1631.5,1065.1 1629.0,1044.9 1627.5,1021.7 1627.1,995.4 1627.7,965.9 1629.5,933.0 1632.3,896.6 1636.3,856.5 1641.5,812.5 1647.9,764.4 1655.6,712.0 1664.7,655.1 1675.2,593.5 1687.2,526.8 1700.7,454.8  A 1064.250,1064.250 0.00 0,0 1696.5,454.1 L 1696.5,454.1 1683.3,526.1 1671.6,592.8 1661.3,654.5 1652.5,711.4 1645.0,763.8 1638.7,811.9 1633.7,855.9 1629.9,896.0 1627.2,932.5 1625.6,965.4 1625.1,994.9 1625.6,1021.2 1627.2,1044.3 1629.8,1064.6 1633.4,1081.9 1638.1,1096.4 1643.8,1108.2 1650.6,1117.3 1658.4,1123.8 1667.4,1127.7 1677.5,1129.0 1688.8,1127.8 1701.3,1123.9 1715.1,1117.4 1730.2,1108.3 1746.8,1096.4 1764.9,1081.8 1784.5,1064.2 1805.7,1043.7 1828.7,1020.2 1853.5,993.4 1880.2,963.2 1909.0,929.6 1940.0,892.2 1973.2,851.0 2008.9,805.8 2047.0,756.2 2087.9,702.2 2131.6,643.4  Z" style="stroke-width: 2.0;  stroke: rgb(82,82,82); fill: rgb(253,141,60); opacity: 0.667;" />
<path d="M 2131.570,643.410 A 1064.250,1064.250 0.00 0,1 2135.0,645.9 L 2135.0,645.9 2091.1,704.6 2050.3,758.6 2012.3,808.1 1977.1,853.5 1944.4,894.8 1914.1,932.4 1886.1,966.3 1860.4,996.8 1836.7,1024.0 1815.0,1048.0 1795.2,1068.9 1777.2,1086.9 1760.9,1102.1 1746.3,1114.5 1733.3,1124.3 1721.7,1131.4 1711.7,1135.9 1703.0,1137.9 1695.8,1137.3 1689.9,1134.2 1685.4,1128.5 1682.2,1120.3 1680.2,1109.4 1679.6,1095.9 1680.4,1079.6 1682.4,1060.5 1685.8,1038.5 1690.6,1013.5 1696.8,985.4 1704.4,954.0 1713.6,919.1 1724.3,880.7 1736.7,838.5 1750.7,792.3 1766.6,742.0 1784.2,687.4 1803.9,628.1 1825.6,564.0 1849.4,494.8  A 1064.250,1064.250 0.00 0,0 1845.4,493.4 L 1845.4,493.4 1821.9,562.7 1800.4,626.9 1781.0,686.2 1763.5,741.0 1747.9,791.3 1734.0,837.5 1721.9,879.8 1711.3,918.3 1702.3,953.1 1694.7,984.6 1688.7,1012.8 1684.0,1037.8 1680.7,1059.8 1678.7,1078.9 1678.0,1095.2 1678.7,1108.7 1680.6,1119.5 1683.9,1127.8 1688.5,1133.4 1694.4,1136.5 1701.6,1137.1 1710.2,1135.1 1720.3,1130.5 1731.8,1123.3 1744.8,1113.5 1759.3,1101.1 1775.6,1085.8 1793.5,1067.7 1813.2,1046.7 1834.8,1022.6 1858.4,995.4 1884.0,964.8 1911.8,930.8 1941.9,893.1 1974.5,851.6 2009.6,806.1 2047.4,756.4 2088.0,702.2 2131.6,643.4  Z" style="stroke-width: 2.0;  stroke: rgb(82,82,82); fill: rgb(255,0,0); opacity: 0.667;" />
<path d="M 2131.570,643.410 A 1064.250,1064.250 0.00 0,1 2135.0,645.9 L 2135.0,645.9 2091.3,704.7 2050.8,758.9 2013.4,808.8 1979.0,854.6 1947.3,896.6 1918.3,934.9 1891.8,969.6 1867.8,1001.0 1846.0,1029.2 1826.4,1054.3 1808.9,1076.5 1793.4,1095.9 1779.9,1112.5 1768.3,1126.4 1758.4,1137.8 1750.4,1146.7 1744.1,1153.0 1739.4,1157.0 1736.5,1158.5 1735.2,1157.6 1735.6,1154.3 1737.6,1148.6 1741.4,1140.4 1746.8,1129.7 1753.9,1116.5 1762.8,1100.7 1773.5,1082.1 1786.1,1060.8 1800.7,1036.6 1817.2,1009.4 1835.8,979.0 1856.6,945.3 1879.7,908.2 1905.2,867.5 1933.1,823.0 1963.8,774.5 1997.1,721.8 2033.4,664.8 2072.8,603.0  A 1064.250,1064.250 0.00 0,0 2069.2,600.8 L 2069.2,600.8 2030.1,662.6 1994.0,719.9 1960.9,772.7 1930.4,821.3 1902.6,865.9 1877.3,906.7 1854.4,943.9 1833.7,977.6 1815.2,1008.1 1798.8,1035.4 1784.4,1059.7 1771.9,1081.1 1761.2,1099.6 1752.4,1115.5 1745.3,1128.8 1739.9,1139.5 1736.2,1147.7 1734.2,1153.4 1733.9,1156.7 1735.1,1157.6 1738.1,1156.0 1742.7,1152.1 1749.0,1145.7 1757.0,1136.8 1766.8,1125.4 1778.4,1111.4 1791.8,1094.7 1807.2,1075.3 1824.6,1053.0 1844.1,1027.8 1865.8,999.6 1889.7,968.1 1916.1,933.2 1944.9,894.8 1976.4,852.7 2010.7,806.7 2047.8,756.7 2088.1,702.3 2131.6,643.4  Z" style="stroke-width: 2.0;  stroke: rgb(82,82,82); fill: rgb(255,0,204); opacity: 0.667;" />
<path d="M 2139.790,649.531 A 1064.250,1064.250 0.00 0,1 2143.2,652.1 L 2143.2,652.1 2098.7,710.3 2057.1,763.7 2018.2,812.7 1981.9,857.5 1948.1,898.2 1916.6,935.1 1887.3,968.3 1860.0,998.1 1834.8,1024.5 1811.4,1047.8 1789.8,1067.9 1769.8,1085.2 1751.4,1099.5 1734.6,1111.1 1719.2,1120.0 1705.1,1126.3 1692.4,1129.9 1680.9,1131.0 1670.6,1129.5 1661.5,1125.5 1653.5,1118.8 1646.6,1109.6 1640.8,1097.6 1636.1,1083.0 1632.4,1065.6 1629.8,1045.3 1628.2,1022.0 1627.6,995.7 1628.2,966.1 1629.8,933.2 1632.6,896.7 1636.5,856.6 1641.7,812.6 1648.0,764.5 1655.7,712.1 1664.7,655.2 1675.2,593.5 1687.2,526.8 1700.7,454.8  A 1064.250,1064.250 0.00 0,0 1696.5,454.1 L 1696.5,454.1 1683.3,526.1 1671.6,592.8 1661.4,654.5 1652.6,711.5 1645.1,763.9 1638.9,812.0 1634.0,856.0 1630.2,896.2 1627.6,932.7 1626.1,965.6 1625.6,995.2 1626.3,1021.5 1628.0,1044.8 1630.7,1065.1 1634.4,1082.5 1639.2,1097.1 1645.1,1109.0 1652.0,1118.2 1660.0,1124.8 1669.1,1128.8 1679.4,1130.3 1690.9,1129.2 1703.6,1125.5 1717.6,1119.2 1733.0,1110.2 1749.8,1098.5 1768.1,1084.1 1788.0,1066.8 1809.6,1046.5 1832.9,1023.2 1858.0,996.7 1885.1,966.8 1914.3,933.5 1945.7,896.4 1979.4,855.6 2015.5,810.7 2054.1,761.5 2095.5,707.9 2139.8,649.5  Z" style="stroke-width: 2.0;  stroke: rgb(82,82,82); fill: rgb(255,204,204); opacity: 0.667;" />
<path d="M 2139.790,649.531 A 1064.250,1064.250 0.00 0,1 2143.2,652.1 L 2143.2,652.1 2098.8,710.3 2057.4,763.9 2018.9,813.1 1983.2,858.1 1950.0,899.1 1919.4,936.3 1891.0,970.0 1864.9,1000.1 1840.9,1027.0 1818.9,1050.8 1798.8,1071.5 1780.5,1089.3 1763.9,1104.3 1749.1,1116.5 1735.8,1126.1 1724.0,1133.0 1713.8,1137.4 1705.0,1139.2 1697.5,1138.5 1691.5,1135.2 1686.8,1129.5 1683.4,1121.1 1681.4,1110.1 1680.6,1096.5 1681.2,1080.2 1683.2,1061.0 1686.5,1038.9 1691.1,1013.9 1697.3,985.7 1704.8,954.2 1713.9,919.3 1724.6,880.8 1736.9,838.6 1750.9,792.4 1766.6,742.1 1784.3,687.4 1803.9,628.1 1825.6,564.0 1849.4,494.8  A 1064.250,1064.250 0.00 0,0 1845.4,493.4 L 1845.4,493.4 1821.9,562.7 1800.4,626.9 1781.0,686.3 1763.6,741.0 1748.0,791.4 1734.2,837.6 1722.1,879.9 1711.6,918.4 1702.6,953.4 1695.2,984.9 1689.2,1013.1 1684.6,1038.2 1681.4,1060.3 1679.6,1079.5 1679.0,1095.8 1679.8,1109.4 1681.9,1120.4 1685.3,1128.7 1690.0,1134.5 1696.1,1137.7 1703.5,1138.4 1712.3,1136.5 1722.6,1132.1 1734.3,1125.1 1747.5,1115.5 1762.4,1103.2 1778.8,1088.2 1797.0,1070.3 1817.1,1049.5 1839.0,1025.7 1862.9,998.7 1888.9,968.4 1917.1,934.7 1947.6,897.3 1980.6,856.1 2016.2,811.0 2054.5,761.7 2095.6,707.9 2139.8,649.5  Z" style="stroke-width: 2.0;  stroke: rgb(82,82,82); fill: rgb(255,153,0); opacity: 0.667;" />
<path d="M 2139.790,649.531 A 1064.250,1064.250 0.00 0,1 2143.2,652.1 L 2143.2,652.1 2098.9,710.4 2057.9,764.2 2020.0,813.7 1985.1,859.2 1953.0,900.8 1923.6,938.8 1896.7,973.3 1872.3,1004.4 1850.1,1032.3 1830.2,1057.2 1812.4,1079.2 1796.7,1098.3 1782.9,1114.7 1771.0,1128.5 1760.9,1139.6 1752.7,1148.3 1746.1,1154.6 1741.3,1158.4 1738.2,1159.7 1736.7,1158.7 1737.0,1155.3 1738.9,1149.5 1742.4,1141.2 1747.7,1130.4 1754.7,1117.1 1763.5,1101.2 1774.2,1082.6 1786.7,1061.2 1801.1,1036.9 1817.5,1009.6 1836.1,979.2 1856.8,945.5 1879.9,908.3 1905.3,867.6 1933.2,823.1 1963.8,774.5 1997.2,721.9 2033.4,664.8 2072.8,603.0  A 1064.250,1064.250 0.00 0,0 2069.2,600.8 L 2069.2,600.8 2030.1,662.7 1994.1,719.9 1960.9,772.7 1930.5,821.3 1902.8,866.0 1877.5,906.8 1854.6,944.1 1834.0,977.8 1815.6,1008.3 1799.2,1035.7 1784.9,1060.1 1772.5,1081.5 1762.0,1100.2 1753.2,1116.1 1746.3,1129.5 1741.0,1140.2 1737.5,1148.5 1735.6,1154.4 1735.4,1157.8 1736.8,1158.8 1740.0,1157.4 1744.8,1153.6 1751.3,1147.3 1759.5,1138.6 1769.5,1127.4 1781.4,1113.6 1795.1,1097.1 1810.8,1077.9 1828.5,1055.9 1848.3,1030.9 1870.3,1002.9 1894.6,971.7 1921.3,937.1 1950.6,899.0 1982.5,857.3 2017.3,811.7 2055.0,762.0 2095.7,708.0 2139.8,649.5  Z" style="stroke-width: 2.0;  stroke: rgb(82,82,82); fill: rgb(255,204,0); opacity: 0.667;" />
<path d="M 2139.790,649.531 A 1064.250,1064.250 0.00 0,1 2143.2,652.1 L 2143.2,652.1 2098.9,710.4 2058.0,764.3 2020.3,813.9 1985.7,859.6 1953.8,901.4 1924.8,939.7 1898.3,974.4 1874.4,1005.9 1852.8,1034.2 1833.5,1059.5 1816.3,1081.9 1801.3,1101.5 1788.3,1118.5 1777.2,1132.8 1768.1,1144.7 1760.8,1154.0 1755.3,1161.0 1751.6,1165.5 1749.6,1167.8 1749.5,1167.6 1751.1,1165.2 1754.4,1160.3 1759.6,1153.1 1766.5,1143.5 1775.3,1131.4 1786.0,1116.8 1798.7,1099.6 1813.3,1079.7 1830.1,1057.0 1849.0,1031.4 1870.2,1002.7 1893.7,970.9 1919.7,935.8 1948.3,897.3 1979.6,855.1 2013.8,809.0 2051.0,759.0 2091.3,704.7 2135.0,645.9  A 1064.250,1064.250 0.00 0,0 2131.6,643.4 L 2131.6,643.4 2088.1,702.3 2048.0,756.8 2011.0,807.0 1977.0,853.2 1945.9,895.5 1917.4,934.2 1891.6,969.4 1868.2,1001.3 1847.1,1030.0 1828.3,1055.6 1811.6,1078.4 1797.1,1098.4 1784.5,1115.7 1773.8,1130.3 1765.1,1142.4 1758.2,1152.1 1753.1,1159.3 1749.7,1164.2 1748.1,1166.6 1748.3,1166.8 1750.2,1164.5 1753.9,1160.0 1759.4,1153.0 1766.6,1143.6 1775.7,1131.7 1786.7,1117.3 1799.7,1100.3 1814.7,1080.7 1831.7,1058.2 1850.9,1032.8 1872.4,1004.4 1896.2,972.8 1922.5,938.0 1951.5,899.6 1983.1,857.7 2017.6,811.9 2055.1,762.1 2095.8,708.0 2139.8,649.5  Z" style="stroke-width: 2.0;  stroke: rgb(82,82,82); fill: rgb(255,255,0); opacity: 0.667;" />
<path d="M 2305.145,804.034 A 1064.250,1064.250 0.00 0,1 2307.9,807.2 L 2307.9,807.2 2252.0,854.6 2199.7,897.9 2150.8,937.2 2105.1,972.9 2062.5,1005.0 2022.7,1033.8 1985.7,1059.4 1951.2,1081.9 1919.2,1101.6 1889.5,1118.4 1861.9,1132.6 1836.4,1144.3 1812.8,1153.4 1791.0,1160.1 1771.0,1164.4 1752.6,1166.4 1735.8,1166.0 1720.5,1163.4 1706.6,1158.5 1694.1,1151.2 1682.9,1141.6 1673.0,1129.6 1664.4,1115.2 1657.0,1098.2 1650.8,1078.7 1645.8,1056.5 1642.0,1031.5 1639.4,1003.5 1638.1,972.6 1638.0,938.4 1639.1,900.8 1641.6,859.7 1645.5,814.8 1650.7,766.0 1657.5,713.1 1665.8,655.7 1675.7,593.8 1687.3,526.9 1700.7,454.8  A 1064.250,1064.250 0.00 0,0 1696.5,454.1 L 1696.5,454.1 1683.4,526.1 1672.1,593.1 1662.4,655.1 1654.3,712.5 1647.8,765.4 1642.8,814.2 1639.1,859.1 1636.8,900.2 1635.7,937.8 1636.0,972.0 1637.5,1003.0 1640.1,1030.9 1644.0,1055.9 1649.1,1078.1 1655.4,1097.6 1662.8,1114.5 1671.5,1128.9 1681.5,1140.9 1692.7,1150.4 1705.2,1157.6 1719.1,1162.5 1734.4,1165.1 1751.2,1165.4 1769.6,1163.3 1789.6,1158.9 1811.4,1152.2 1834.9,1142.9 1860.4,1131.2 1887.9,1116.9 1917.6,1099.9 1949.6,1080.1 1984.0,1057.4 2020.9,1031.7 2060.5,1002.8 2103.0,970.5 2148.6,934.6 2197.3,895.1 2249.4,851.6 2305.1,804.0  Z" style="stroke-width: 2.0;  stroke: rgb(82,82,82); fill: rgb(204,255,0); opacity: 0.667;" />
<path d="M 2305.145,804.034 A 1064.250,1064.250 0.00 0,1 2307.9,807.2 L 2307.9,807.2 2252.1,854.7 2200.0,898.1 2151.5,937.6 2106.3,973.6 2064.4,1006.0 2025.4,1035.2 1989.3,1061.2 1955.9,1084.3 1925.1,1104.5 1896.7,1121.9 1870.6,1136.7 1846.7,1149.0 1824.9,1158.8 1805.1,1166.1 1787.2,1171.2 1771.1,1173.9 1756.7,1174.3 1744.1,1172.4 1733.0,1168.2 1723.6,1161.8 1715.7,1153.1 1709.3,1142.0 1704.5,1128.5 1701.1,1112.5 1699.2,1094.0 1698.8,1072.8 1700.0,1049.0 1702.6,1022.3 1706.9,992.6 1712.7,959.8 1720.3,923.7 1729.5,884.2 1740.5,841.1 1753.5,794.1 1768.3,743.2 1785.3,688.0 1804.3,628.4 1825.7,564.0 1849.4,494.8  A 1064.250,1064.250 0.00 0,0 1845.4,493.4 L 1845.4,493.4 1822.0,562.8 1800.9,627.2 1782.0,686.9 1765.3,742.1 1750.7,793.1 1737.9,840.1 1727.1,883.3 1718.0,922.8 1710.6,958.9 1704.9,991.7 1700.7,1021.5 1698.2,1048.2 1697.1,1072.1 1697.6,1093.2 1699.6,1111.7 1703.0,1127.6 1707.9,1141.1 1714.3,1152.2 1722.3,1160.9 1731.7,1167.3 1742.8,1171.4 1755.4,1173.2 1769.8,1172.8 1785.9,1170.0 1803.8,1164.9 1823.5,1157.5 1845.3,1147.6 1869.1,1135.3 1895.2,1120.4 1923.5,1102.8 1954.2,1082.5 1987.5,1059.3 2023.5,1033.1 2062.4,1003.8 2104.2,971.1 2149.3,935.0 2197.6,895.3 2249.5,851.7 2305.1,804.0  Z" style="stroke-width: 2.0;  stroke: rgb(82,82,82); fill: rgb(0,255,0); opacity: 0.667;" />
<path d="M 2305.145,804.034 A 1064.250,1064.250 0.00 0,1 2307.9,807.2 L 2307.9,807.2 2252.2,854.8 2200.5,898.4 2152.5,938.4 2108.1,974.9 2067.2,1008.0 2029.4,1038.0 1994.7,1065.0 1962.9,1089.1 1933.9,1110.4 1907.5,1129.1 1883.7,1145.2 1862.3,1158.9 1843.2,1170.2 1826.3,1179.1 1811.6,1185.9 1798.9,1190.3 1788.3,1192.6 1779.6,1192.8 1772.9,1190.7 1768.0,1186.5 1765.1,1180.1 1764.0,1171.5 1764.8,1160.7 1767.4,1147.5 1772.0,1132.0 1778.5,1114.0 1787.0,1093.5 1797.6,1070.4 1810.2,1044.5 1825.0,1015.8 1842.1,984.1 1861.5,949.3 1883.3,911.1 1907.7,869.5 1934.8,824.3 1964.7,775.3 1997.6,722.2 2033.6,664.9 2072.8,603.0  A 1064.250,1064.250 0.00 0,0 2069.2,600.8 L 2069.2,600.8 2030.2,662.7 1994.5,720.2 1961.8,773.4 1932.1,822.6 1905.2,867.9 1881.0,909.6 1859.3,947.8 1840.0,982.8 1823.1,1014.5 1808.4,1043.3 1795.9,1069.2 1785.4,1092.4 1777.0,1112.9 1770.5,1130.9 1766.0,1146.5 1763.4,1159.6 1762.7,1170.5 1763.8,1179.1 1766.8,1185.5 1771.6,1189.7 1778.4,1191.7 1787.0,1191.5 1797.7,1189.2 1810.3,1184.6 1825.0,1177.8 1841.9,1168.8 1860.9,1157.4 1882.3,1143.7 1906.1,1127.4 1932.4,1108.7 1961.3,1087.2 1993.0,1063.0 2027.5,1035.9 2065.2,1005.8 2106.0,972.4 2150.3,935.8 2198.1,895.6 2249.6,851.8 2305.1,804.0  Z" style="stroke-width: 2.0;  stroke: rgb(82,82,82); fill: rgb(53,128,0); opacity: 0.667;" />
<path d="M 2305.145,804.034 A 1064.250,1064.250 0.00 0,1 2307.9,807.2 L 2307.9,807.2 2252.2,854.8 2200.6,898.5 2152.8,938.6 2108.7,975.3 2067.9,1008.7 2030.5,1039.0 1996.2,1066.3 1964.9,1090.7 1936.4,1112.5 1910.6,1131.6 1887.4,1148.2 1866.7,1162.4 1848.3,1174.2 1832.3,1183.8 1818.4,1191.2 1806.7,1196.4 1797.1,1199.4 1789.6,1200.3 1784.0,1199.1 1780.5,1195.8 1778.9,1190.3 1779.2,1182.7 1781.6,1172.9 1786.0,1160.9 1792.3,1146.6 1800.8,1129.9 1811.3,1110.8 1824.1,1089.1 1839.0,1064.8 1856.3,1037.7 1876.0,1007.8 1898.2,974.9 1923.1,938.7 1950.7,899.3 1981.2,856.4 2014.7,809.8 2051.4,759.3 2091.4,704.8 2135.0,645.9  A 1064.250,1064.250 0.00 0,0 2131.6,643.4 L 2131.6,643.4 2088.2,702.4 2048.4,757.1 2011.9,807.7 1978.6,854.5 1948.3,897.5 1920.8,937.1 1896.1,973.3 1874.0,1006.3 1854.5,1036.3 1837.3,1063.4 1822.4,1087.8 1809.8,1109.5 1799.3,1128.7 1790.9,1145.4 1784.6,1159.8 1780.3,1171.8 1778.0,1181.6 1777.6,1189.2 1779.2,1194.7 1782.8,1198.0 1788.4,1199.2 1795.9,1198.2 1805.5,1195.1 1817.2,1189.9 1831.0,1182.5 1847.0,1172.9 1865.3,1160.9 1886.0,1146.7 1909.1,1129.9 1934.9,1110.7 1963.3,1088.9 1994.5,1064.3 2028.7,1036.9 2066.0,1006.4 2106.6,972.9 2150.6,936.0 2198.2,895.7 2249.7,851.8 2305.1,804.0  Z" style="stroke-width: 2.0;  stroke: rgb(82,82,82); fill: rgb(0,0,204); opacity: 0.667;" />
<path d="M 2305.145,804.034 A 1064.250,1064.250 0.00 0,1 2307.9,807.2 L 2307.9,807.2 2252.3,854.8 2200.6,898.5 2152.9,938.7 2108.7,975.4 2068.0,1008.8 2030.7,1039.1 1996.4,1066.4 1965.2,1090.9 1936.7,1112.7 1911.0,1131.9 1887.9,1148.6 1867.3,1162.9 1849.0,1174.8 1833.1,1184.5 1819.3,1191.9 1807.8,1197.2 1798.3,1200.4 1790.9,1201.4 1785.5,1200.3 1782.1,1197.1 1780.7,1191.8 1781.3,1184.3 1783.8,1174.7 1788.4,1162.8 1795.0,1148.7 1803.7,1132.2 1814.5,1113.2 1827.5,1091.8 1842.8,1067.7 1860.4,1040.9 1880.5,1011.2 1903.1,978.5 1928.3,942.7 1956.3,903.6 1987.3,861.0 2021.3,814.7 2058.5,764.6 2099.0,710.5 2143.2,652.1  A 1064.250,1064.250 0.00 0,0 2139.8,649.5 L 2139.8,649.5 2095.9,708.1 2055.5,762.4 2018.5,812.7 1984.7,859.0 1954.0,901.8 1926.1,941.0 1901.0,976.9 1878.5,1009.7 1858.6,1039.4 1841.1,1066.3 1825.9,1090.5 1813.0,1112.0 1802.2,1130.9 1793.6,1147.5 1787.1,1161.7 1782.5,1173.5 1780.0,1183.2 1779.5,1190.7 1780.9,1196.0 1784.3,1199.2 1789.7,1200.2 1797.1,1199.2 1806.6,1196.0 1818.1,1190.7 1831.8,1183.2 1847.7,1173.4 1865.9,1161.4 1886.5,1147.1 1909.6,1130.3 1935.2,1111.0 1963.5,1089.1 1994.7,1064.5 2028.8,1037.0 2066.1,1006.5 2106.6,972.9 2150.6,936.1 2198.2,895.8 2249.7,851.8 2305.1,804.0  Z" style="stroke-width: 2.0;  stroke: rgb(82,82,82); fill: rgb(102,153,255); opacity: 0.667;" />
<path d="M 1812.628,2517.296 A 1064.250,1064.250 0.00 0,1 1808.6,2518.5 L 1808.6,2518.5 1788.2,2447.2 1771.0,2378.8 1756.5,2313.1 1744.5,2250.0 1734.7,2189.3 1726.7,2131.0 1720.2,2074.8 1715.1,2020.6 1711.1,1968.2 1707.9,1917.5 1705.5,1868.3 1703.5,1820.5 1701.8,1774.0 1700.3,1728.4 1698.9,1683.8 1697.5,1640.0 1696.0,1596.7 1694.2,1553.9 1692.3,1511.3 1690.0,1468.8 1687.6,1426.2 1684.8,1383.4 1681.8,1340.2 1678.7,1296.4 1675.4,1251.9 1672.1,1206.5 1668.9,1160.0 1665.9,1112.3 1663.3,1063.1 1661.1,1012.4 1659.7,959.9 1659.1,905.4 1659.6,848.8 1661.5,789.9 1665.0,728.6 1670.3,664.6 1677.9,597.7 1687.9,527.9 1700.7,454.8  A 1064.250,1064.250 0.00 0,0 1696.5,454.1 L 1696.5,454.1 1684.0,527.2 1674.3,597.0 1667.0,663.9 1661.9,727.9 1658.7,789.3 1657.0,848.2 1656.7,904.8 1657.5,959.2 1659.2,1011.7 1661.5,1062.5 1664.4,1111.6 1667.6,1159.3 1671.0,1205.8 1674.4,1251.2 1677.9,1295.7 1681.2,1339.5 1684.3,1382.7 1687.3,1425.4 1689.9,1468.0 1692.3,1510.5 1694.4,1553.1 1696.3,1595.9 1698.1,1639.2 1699.7,1683.0 1701.2,1727.6 1702.9,1773.1 1704.7,1819.7 1706.9,1867.5 1709.6,1916.6 1713.0,1967.3 1717.2,2019.7 1722.5,2073.9 1729.2,2130.1 1737.4,2188.4 1747.5,2249.0 1759.8,2312.1 1774.5,2377.7 1792.0,2446.1 1812.6,2517.3  Z" style="stroke-width: 2.0;  stroke: rgb(82,82,82); fill: rgb(153,204,255); opacity: 0.667;" />
<path d="M 1812.628,2517.296 A 1064.250,1064.250 0.00 0,1 1808.6,2518.5 L 1808.6,2518.5 1788.2,2447.3 1771.0,2379.1 1756.6,2313.8 1744.7,2251.2 1735.1,2191.2 1727.3,2133.5 1721.3,2078.1 1716.7,2024.7 1713.3,1973.2 1710.9,1923.3 1709.4,1875.1 1708.5,1828.2 1708.2,1782.6 1708.3,1738.0 1708.6,1694.3 1709.2,1651.3 1709.9,1608.9 1710.7,1566.9 1711.5,1525.1 1712.3,1483.4 1713.2,1441.7 1714.1,1399.7 1715.1,1357.3 1716.3,1314.3 1717.7,1270.6 1719.4,1226.1 1721.6,1180.5 1724.4,1133.7 1727.8,1085.5 1732.2,1035.8 1737.7,984.5 1744.4,931.3 1752.7,876.2 1762.8,818.9 1774.9,759.3 1789.3,697.2 1806.3,632.5 1826.2,565.1 1849.4,494.8  A 1064.250,1064.250 0.00 0,0 1845.4,493.4 L 1845.4,493.4 1822.5,563.8 1802.8,631.3 1786.1,696.1 1771.9,758.2 1760.1,817.8 1750.2,875.2 1742.2,930.4 1735.6,983.6 1730.4,1034.9 1726.2,1084.6 1722.9,1132.8 1720.3,1179.6 1718.3,1225.2 1716.8,1269.8 1715.6,1313.5 1714.6,1356.4 1713.7,1398.8 1713.0,1440.8 1712.2,1482.6 1711.6,1524.3 1710.9,1566.0 1710.3,1608.0 1709.8,1650.4 1709.4,1693.4 1709.2,1737.1 1709.3,1781.7 1709.8,1827.4 1710.9,1874.3 1712.6,1922.5 1715.2,1972.3 1718.8,2023.8 1723.6,2077.2 1729.8,2132.6 1737.8,2190.3 1747.7,2250.3 1759.8,2312.8 1774.5,2378.0 1792.0,2446.1 1812.6,2517.3  Z" style="stroke-width: 2.0;  stroke: rgb(82,82,82); fill: rgb(0,255,255); opacity: 0.667;" />
<path d="M 1812.628,2517.296 A 1064.250,1064.250 0.00 0,1 1808.6,2518.5 L 1808.6,2518.5 1788.2,2447.4 1771.0,2379.7 1756.6,2315.0 1744.9,2253.3 1735.4,2194.3 1728.0,2137.8 1722.4,2083.7 1718.5,2031.8 1715.9,1981.8 1714.6,1933.7 1714.4,1887.1 1715.2,1842.1 1716.8,1798.3 1719.1,1755.6 1722.0,1713.8 1725.5,1672.9 1729.5,1632.5 1734.0,1592.7 1739.0,1553.1 1744.4,1513.6 1750.4,1474.2 1756.8,1434.5 1763.9,1394.6 1771.6,1354.2 1780.1,1313.3 1789.4,1271.6 1799.8,1229.0 1811.2,1185.4 1824.0,1140.7 1838.3,1094.6 1854.3,1047.2 1872.1,998.3 1892.2,947.7 1914.6,895.4 1939.7,841.1 1967.7,784.9 1999.0,726.5 2033.9,666.0 2072.8,603.0  A 1064.250,1064.250 0.00 0,0 2069.2,600.8 L 2069.2,600.8 2030.6,663.8 1995.9,724.6 1964.9,783.0 1937.0,839.4 1912.2,893.7 1890.0,946.2 1870.1,996.8 1852.5,1045.8 1836.7,1093.3 1822.6,1139.4 1810.0,1184.1 1798.7,1227.8 1788.5,1270.4 1779.3,1312.2 1771.0,1353.2 1763.5,1393.6 1756.6,1433.5 1750.3,1473.2 1744.5,1512.6 1739.2,1552.1 1734.4,1591.7 1730.1,1631.6 1726.2,1672.0 1722.9,1713.0 1720.1,1754.7 1718.0,1797.4 1716.5,1841.2 1716.0,1886.3 1716.4,1932.8 1717.8,1980.9 1720.6,2030.9 1724.7,2082.8 1730.5,2136.9 1738.2,2193.3 1747.9,2252.3 1759.9,2314.0 1774.5,2378.6 1792.0,2446.3 1812.6,2517.3  Z" style="stroke-width: 2.0;  stroke: rgb(82,82,82); fill: rgb(204,255,255); opacity: 0.667;" />
<path d="M 1812.628,2517.296 A 1064.250,1064.250 0.00 0,1 1808.6,2518.5 L 1808.6,2518.5 1788.2,2447.5 1771.0,2379.8 1756.6,2315.4 1744.9,2253.9 1735.4,2195.2 1728.1,2139.2 1722.6,2085.5 1718.8,2034.0 1716.5,1984.6 1715.5,1937.0 1715.6,1891.0 1716.8,1846.6 1718.9,1803.4 1721.8,1761.4 1725.4,1720.4 1729.7,1680.2 1734.7,1640.6 1740.2,1601.5 1746.3,1562.8 1753.0,1524.2 1760.4,1485.7 1768.4,1447.1 1777.1,1408.2 1786.7,1368.9 1797.1,1329.0 1808.6,1288.5 1821.3,1247.2 1835.2,1205.0 1850.6,1161.7 1867.6,1117.3 1886.6,1071.5 1907.6,1024.4 1930.9,975.7 1956.8,925.4 1985.5,873.4 2017.4,819.5 2052.7,763.7 2091.8,705.9 2135.0,645.9  A 1064.250,1064.250 0.00 0,0 2131.6,643.4 L 2131.6,643.4 2088.6,703.5 2049.7,761.5 2014.6,817.5 1983.0,871.5 1954.5,923.6 1928.8,974.0 1905.7,1022.7 1884.9,1070.0 1866.1,1115.8 1849.2,1160.3 1834.0,1203.7 1820.2,1245.9 1807.8,1287.3 1796.5,1327.8 1786.2,1367.7 1776.8,1407.1 1768.2,1446.0 1760.3,1484.7 1753.1,1523.2 1746.6,1561.8 1740.6,1600.6 1735.2,1639.7 1730.4,1679.3 1726.3,1719.5 1722.8,1760.5 1720.1,1802.6 1718.2,1845.7 1717.2,1890.2 1717.2,1936.1 1718.4,1983.7 1720.9,2033.1 1724.9,2084.6 1730.6,2138.2 1738.2,2194.3 1747.9,2252.9 1759.9,2314.4 1774.5,2378.8 1792.0,2446.3 1812.6,2517.3  Z" style="stroke-width: 2.0;  stroke: rgb(82,82,82); fill: rgb(153,0,204); opacity: 0.667;" />
<path d="M 1812.628,2517.296 A 1064.250,1064.250 0.00 0,1 1808.6,2518.5 L 1808.6,2518.5 1788.2,2447.5 1771.0,2379.9 1756.6,2315.4 1744.8,2254.0 1735.4,2195.4 1728.1,2139.3 1722.6,2085.7 1718.8,2034.3 1716.5,1984.9 1715.6,1937.4 1715.8,1891.6 1717.0,1847.2 1719.1,1804.1 1722.1,1762.2 1725.8,1721.3 1730.3,1681.2 1735.3,1641.8 1741.0,1602.8 1747.3,1564.2 1754.1,1525.7 1761.7,1487.3 1769.9,1448.8 1778.9,1410.1 1788.7,1370.9 1799.4,1331.2 1811.1,1290.9 1824.1,1249.8 1838.3,1207.8 1854.1,1164.7 1871.5,1120.5 1890.8,1075.0 1912.2,1028.1 1936.0,979.7 1962.3,929.7 1991.5,878.0 2023.9,824.5 2059.7,769.1 2099.4,711.6 2143.2,652.1  A 1064.250,1064.250 0.00 0,0 2139.8,649.5 L 2139.8,649.5 2096.2,709.2 2056.8,766.8 2021.2,822.4 1989.0,876.1 1960.0,927.9 1933.9,978.0 1910.3,1026.5 1889.1,1073.4 1870.0,1119.0 1852.7,1163.3 1837.2,1206.4 1823.1,1248.5 1810.3,1289.7 1798.7,1330.1 1788.1,1369.8 1778.5,1409.0 1769.7,1447.7 1761.6,1486.3 1754.2,1524.7 1747.5,1563.2 1741.4,1601.8 1735.9,1640.8 1731.0,1680.3 1726.7,1720.4 1723.2,1761.4 1720.3,1803.3 1718.4,1846.3 1717.3,1890.7 1717.3,1936.5 1718.5,1984.1 1721.0,2033.4 1725.0,2084.8 1730.6,2138.4 1738.2,2194.4 1747.8,2253.0 1759.9,2314.4 1774.5,2378.8 1792.0,2446.3 1812.6,2517.3  Z" style="stroke-width: 2.0;  stroke: rgb(82,82,82); fill: rgb(204,51,255); opacity: 0.667;" />
<path d="M 1812.628,2517.296 A 1064.250,1064.250 0.00 0,1 1808.6,2518.5 L 1808.6,2518.5 1788.2,2447.6 1770.9,2380.4 1756.5,2316.5 1744.7,2255.9 1735.2,2198.3 1728.0,2143.4 1722.7,2091.1 1719.2,2041.2 1717.4,1993.5 1717.1,1947.7 1718.1,1903.8 1720.4,1861.5 1723.8,1820.6 1728.3,1781.0 1733.8,1742.5 1740.3,1705.0 1747.7,1668.3 1756.1,1632.2 1765.4,1596.6 1775.7,1561.3 1787.0,1526.3 1799.4,1491.4 1812.8,1456.4 1827.5,1421.3 1843.6,1385.9 1861.1,1350.1 1880.2,1313.8 1901.0,1276.9 1923.8,1239.3 1948.7,1200.9 1975.9,1161.6 2005.7,1121.4 2038.2,1080.2 2073.8,1037.8 2112.8,994.3 2155.3,949.5 2201.8,903.5 2252.6,856.1 2307.9,807.2  A 1064.250,1064.250 0.00 0,0 2305.1,804.0 L 2305.1,804.0 2250.0,853.1 2199.5,900.7 2153.1,946.9 2110.8,991.9 2072.0,1035.5 2036.6,1078.0 2004.2,1119.4 1974.5,1159.7 1947.5,1199.1 1922.7,1237.6 1900.1,1275.3 1879.4,1312.2 1860.5,1348.6 1843.1,1384.5 1827.2,1420.0 1812.7,1455.2 1799.3,1490.2 1787.1,1525.2 1776.0,1560.2 1765.8,1595.5 1756.6,1631.2 1748.4,1667.3 1741.1,1704.0 1734.8,1741.6 1729.4,1780.1 1725.1,1819.7 1721.8,1860.6 1719.7,1902.9 1718.8,1946.9 1719.4,1992.6 1721.4,2040.3 1725.1,2090.2 1730.6,2142.5 1738.0,2197.3 1747.7,2254.9 1759.7,2315.5 1774.4,2379.3 1791.9,2446.5 1812.6,2517.3  Z" style="stroke-width: 2.0;  stroke: rgb(82,82,82); fill: rgb(204,153,255); opacity: 0.667;" />
<path d="M 448.031,1661.211 A 1064.250,1064.250 0.00 0,1 447.4,1657.0 L 447.4,1657.0 520.2,1645.1 588.3,1632.1 651.9,1617.9 711.5,1602.8 767.4,1586.8 819.7,1570.1 868.7,1552.7 914.8,1534.6 958.1,1516.0 998.9,1496.9 1037.4,1477.3 1073.9,1457.2 1108.4,1436.7 1141.2,1415.6 1172.6,1394.1 1202.5,1372.1 1231.2,1349.4 1258.8,1326.2 1285.5,1302.2 1311.3,1277.4 1336.4,1251.8 1360.8,1225.2 1384.6,1197.4 1407.8,1168.4 1430.6,1138.0 1453.0,1106.1 1475.0,1072.4 1496.6,1036.9 1517.8,999.2 1538.6,959.2 1558.9,916.7 1578.9,871.5 1598.3,823.2 1617.2,771.6 1635.5,716.5 1653.1,657.6 1669.9,594.5 1685.8,527.1 1700.7,454.8  A 1064.250,1064.250 0.00 0,0 1696.5,454.1 L 1696.5,454.1 1681.9,526.3 1666.3,593.9 1649.7,657.0 1632.4,716.0 1614.3,771.1 1595.6,822.8 1576.4,871.1 1556.6,916.5 1536.4,959.1 1515.8,999.1 1494.7,1036.9 1473.3,1072.5 1451.5,1106.3 1429.2,1138.3 1406.5,1168.8 1383.4,1197.9 1359.7,1225.7 1335.4,1252.5 1310.4,1278.2 1284.7,1303.1 1258.1,1327.1 1230.6,1350.5 1202.0,1373.3 1172.1,1395.4 1140.9,1417.1 1108.2,1438.2 1073.7,1458.9 1037.3,1479.1 998.9,1498.9 958.2,1518.2 914.9,1537.0 868.9,1555.2 819.9,1572.8 767.7,1589.7 712.0,1605.9 652.4,1621.3 588.8,1635.7 520.8,1649.0 448.0,1661.2  Z" style="stroke-width: 2.0;  stroke: rgb(82,82,82); fill: rgb(102,102,102); opacity: 0.667;" />
<path d="M 448.031,1661.211 A 1064.250,1064.250 0.00 0,1 447.4,1657.0 L 447.4,1657.0 520.2,1645.1 588.5,1631.8 652.6,1617.5 712.6,1602.0 769.0,1585.7 822.1,1568.7 872.0,1550.9 919.1,1532.5 963.5,1513.7 1005.6,1494.3 1045.6,1474.5 1083.6,1454.3 1119.9,1433.8 1154.6,1412.8 1188.0,1391.5 1220.2,1369.7 1251.3,1347.5 1281.6,1324.8 1311.1,1301.5 1340.0,1277.6 1368.3,1252.9 1396.2,1227.4 1423.8,1200.9 1451.2,1173.3 1478.4,1144.4 1505.4,1114.2 1532.3,1082.3 1559.2,1048.7 1586.1,1013.1 1612.9,975.4 1639.7,935.2 1666.5,892.3 1693.2,846.6 1719.8,797.6 1746.3,745.2 1772.5,689.0 1798.5,628.8 1824.2,564.1 1849.4,494.8  A 1064.250,1064.250 0.00 0,0 1845.4,493.4 L 1845.4,493.4 1820.5,562.8 1795.1,627.6 1769.3,687.9 1743.2,744.2 1717.0,796.7 1690.6,845.8 1664.0,891.7 1637.4,934.6 1610.8,974.9 1584.1,1012.8 1557.4,1048.5 1530.7,1082.2 1503.8,1114.1 1476.9,1144.5 1449.9,1173.5 1422.7,1201.2 1395.2,1227.8 1367.3,1253.4 1339.1,1278.2 1310.3,1302.3 1280.9,1325.7 1250.7,1348.5 1219.7,1370.8 1187.5,1392.7 1154.3,1414.2 1119.6,1435.3 1083.4,1456.0 1045.5,1476.3 1005.6,1496.3 963.6,1515.8 919.2,1534.9 872.2,1553.4 822.3,1571.4 769.4,1588.7 713.0,1605.2 653.0,1620.8 589.1,1635.5 520.8,1649.0 448.0,1661.2  Z" style="stroke-width: 2.0;  stroke: rgb(82,82,82); fill: rgb(153,153,153); opacity: 0.667;" />
<path d="M 448.031,1661.211 A 1064.250,1064.250 0.00 0,1 447.4,1657.0 L 447.4,1657.0 520.4,1645.0 589.0,1631.6 653.6,1616.8 714.5,1601.1 771.9,1584.3 826.1,1566.9 877.5,1548.7 926.2,1530.1 972.5,1511.0 1016.6,1491.5 1058.8,1471.8 1099.3,1451.9 1138.3,1431.7 1176.0,1411.4 1212.6,1390.9 1248.2,1370.3 1283.0,1349.5 1317.3,1328.4 1351.1,1307.0 1384.6,1285.3 1417.9,1263.2 1451.1,1240.5 1484.3,1217.2 1517.7,1193.1 1551.3,1168.0 1585.2,1141.9 1619.5,1114.5 1654.3,1085.7 1689.5,1055.2 1725.3,1022.8 1761.6,988.4 1798.5,951.5 1836.0,912.0 1874.1,869.6 1912.8,824.0 1952.0,774.9 1991.8,721.9 2032.1,664.8 2072.8,603.0  A 1064.250,1064.250 0.00 0,0 2069.2,600.8 L 2069.2,600.8 2028.7,662.7 1988.7,720.0 1949.1,773.1 1910.1,822.4 1871.6,868.2 1833.6,910.7 1796.3,950.3 1759.5,987.3 1723.4,1021.9 1687.7,1054.5 1652.6,1085.1 1618.0,1114.1 1583.8,1141.6 1550.0,1167.8 1516.5,1193.0 1483.2,1217.2 1450.0,1240.7 1416.9,1263.5 1383.7,1285.8 1350.3,1307.6 1316.6,1329.1 1282.5,1350.3 1247.7,1371.3 1212.1,1392.1 1175.6,1412.7 1138.0,1433.2 1099.1,1453.5 1058.7,1473.6 1016.6,1493.5 972.5,1513.1 926.3,1532.4 877.7,1551.2 826.4,1569.5 772.2,1587.2 714.9,1604.2 654.1,1620.2 589.5,1635.2 521.0,1648.9 448.0,1661.2  Z" style="stroke-width: 2.0;  stroke: rgb(82,82,82); fill: rgb(204,204,204); opacity: 0.667;" />
<path d="M 448.031,1661.211 A 1064.250,1064.250 0.00 0,1 447.4,1657.0 L 447.4,1657.0 520.4,1645.0 589.1,1631.5 653.9,1616.7 715.0,1600.8 772.8,1584.0 827.4,1566.4 879.1,1548.2 928.3,1529.5 975.2,1510.5 1019.9,1491.1 1062.8,1471.4 1104.0,1451.6 1143.8,1431.7 1182.3,1411.7 1219.8,1391.7 1256.4,1371.5 1292.3,1351.2 1327.7,1330.8 1362.7,1310.3 1397.5,1289.4 1432.1,1268.3 1466.8,1246.7 1501.6,1224.6 1536.6,1201.8 1572.0,1178.3 1607.8,1153.7 1644.2,1128.0 1681.0,1101.0 1718.6,1072.5 1756.8,1042.2 1795.7,1009.9 1835.4,975.3 1875.9,938.2 1917.1,898.4 1959.2,855.4 2002.0,809.0 2045.6,758.9 2089.9,704.6 2135.0,645.9  A 1064.250,1064.250 0.00 0,0 2131.6,643.4 L 2131.6,643.4 2086.8,702.3 2042.6,756.7 1999.2,807.0 1956.6,853.6 1914.7,896.7 1873.6,936.8 1833.3,974.0 1793.8,1008.7 1755.0,1041.1 1716.9,1071.6 1679.5,1100.3 1642.7,1127.5 1606.5,1153.3 1570.7,1178.0 1535.4,1201.7 1500.5,1224.6 1465.8,1246.9 1431.2,1268.6 1396.6,1289.8 1362.0,1310.8 1327.0,1331.5 1291.7,1352.1 1255.9,1372.5 1219.4,1392.8 1182.0,1413.0 1143.5,1433.2 1103.8,1453.2 1062.7,1473.2 1019.9,1493.0 975.2,1512.5 928.5,1531.8 879.3,1550.7 827.6,1569.1 773.1,1586.9 715.4,1603.9 654.4,1620.1 589.7,1635.1 521.0,1648.9 448.0,1661.2  Z" style="stroke-width: 2.0;  stroke: rgb(82,82,82); fill: rgb(204,204,153); opacity: 0.667;" />
<path d="M 448.031,1661.211 A 1064.250,1064.250 0.00 0,1 447.4,1657.0 L 447.4,1657.0 520.4,1645.0 589.2,1631.5 654.0,1616.7 715.1,1600.8 772.9,1584.0 827.5,1566.4 879.4,1548.2 928.6,1529.5 975.5,1510.4 1020.4,1491.0 1063.3,1471.4 1104.7,1451.6 1144.5,1431.8 1183.2,1411.8 1220.8,1391.8 1257.5,1371.7 1293.6,1351.5 1329.1,1331.2 1364.3,1310.8 1399.2,1290.1 1434.0,1269.0 1468.9,1247.6 1503.9,1225.7 1539.1,1203.1 1574.8,1179.8 1610.8,1155.4 1647.4,1130.0 1684.6,1103.2 1722.4,1075.0 1760.9,1045.0 1800.2,1013.0 1840.3,978.7 1881.1,942.0 1922.8,902.5 1965.3,859.9 2008.6,813.9 2052.7,764.2 2097.6,710.4 2143.2,652.1  A 1064.250,1064.250 0.00 0,0 2139.8,649.5 L 2139.8,649.5 2094.4,708.0 2049.7,762.0 2005.8,811.9 1962.7,858.1 1920.4,900.8 1878.9,940.5 1838.2,977.4 1798.3,1011.8 1759.1,1043.9 1720.7,1074.1 1683.0,1102.5 1645.9,1129.4 1609.5,1155.0 1573.5,1179.5 1538.0,1203.0 1502.8,1225.7 1467.9,1247.8 1433.1,1269.3 1398.3,1290.5 1363.5,1311.3 1328.4,1331.9 1293.0,1352.3 1257.0,1372.7 1220.4,1392.9 1182.8,1413.1 1144.3,1433.2 1104.5,1453.2 1063.2,1473.1 1020.3,1492.9 975.6,1512.5 928.7,1531.8 879.6,1550.7 827.8,1569.1 773.2,1586.9 715.5,1603.9 654.4,1620.0 589.7,1635.1 521.0,1648.9 448.0,1661.2  Z" style="stroke-width: 2.0;  stroke: rgb(82,82,82); fill: rgb(251,106,74); opacity: 0.667;" />
<path d="M 448.031,1661.211 A 1064.250,1064.250 0.00 0,1 447.4,1657.0 L 447.4,1657.0 520.5,1644.9 589.6,1631.3 655.0,1616.3 716.9,1600.2 775.6,1583.2 831.3,1565.4 884.4,1547.2 935.1,1528.5 983.7,1509.6 1030.2,1490.6 1075.1,1471.5 1118.4,1452.5 1160.5,1433.6 1201.5,1414.9 1241.6,1396.4 1281.0,1378.2 1319.9,1360.1 1358.4,1342.3 1396.8,1324.7 1435.1,1307.2 1473.5,1289.7 1512.2,1272.3 1551.3,1254.7 1590.9,1236.9 1631.1,1218.7 1672.1,1199.9 1713.9,1180.5 1756.7,1160.2 1800.5,1138.8 1845.4,1116.0 1891.4,1091.7 1938.7,1065.6 1987.3,1037.5 2037.2,1006.9 2088.5,973.7 2141.2,937.5 2195.3,897.9 2250.9,854.6 2307.9,807.2  A 1064.250,1064.250 0.00 0,0 2305.1,804.0 L 2305.1,804.0 2248.3,851.6 2192.9,895.1 2138.9,934.9 2086.4,971.3 2035.2,1004.8 1985.4,1035.5 1937.0,1063.9 1889.8,1090.2 1843.8,1114.7 1799.0,1137.6 1755.3,1159.2 1712.7,1179.7 1670.9,1199.3 1630.0,1218.2 1589.9,1236.5 1550.3,1254.5 1511.3,1272.2 1472.7,1289.9 1434.3,1307.4 1396.1,1325.1 1357.8,1342.9 1319.3,1360.8 1280.5,1379.0 1241.2,1397.4 1201.2,1416.1 1160.3,1435.0 1118.3,1454.0 1075.0,1473.2 1030.2,1492.4 983.7,1511.7 935.3,1530.8 884.6,1549.6 831.6,1568.1 775.9,1586.0 717.3,1603.3 655.4,1619.6 590.2,1634.9 521.1,1648.8 448.0,1661.2  Z" style="stroke-width: 2.0;  stroke: rgb(82,82,82); fill: rgb(116,196,118); opacity: 0.667;" />
<path d="M 448.031,1661.211 A 1064.250,1064.250 0.00 0,1 447.4,1657.0 L 447.4,1657.0 520.4,1647.1 589.0,1639.6 653.5,1634.3 714.3,1631.1 771.4,1629.8 825.3,1630.3 876.1,1632.4 924.0,1636.0 969.2,1641.1 1012.1,1647.4 1052.7,1655.0 1091.3,1663.7 1128.0,1673.6 1163.0,1684.6 1196.6,1696.7 1228.7,1709.8 1259.6,1724.1 1289.5,1739.5 1318.3,1756.0 1346.4,1773.7 1373.7,1792.8 1400.3,1813.2 1426.4,1835.0 1452.1,1858.4 1477.4,1883.5 1502.3,1910.5 1526.9,1939.5 1551.4,1970.6 1575.6,2004.0 1599.7,2040.1 1623.6,2078.8 1647.4,2120.6 1671.0,2165.6 1694.5,2214.0 1717.8,2266.3 1740.9,2322.5 1763.7,2383.1 1786.3,2448.3 1808.6,2518.5  A 1064.250,1064.250 0.00 0,0 1812.6,2517.3 L 1812.6,2517.3 1790.1,2447.2 1767.3,2382.0 1744.1,2321.5 1720.8,2265.4 1697.3,2213.3 1673.6,2164.9 1649.8,2120.0 1625.9,2078.3 1601.8,2039.7 1577.6,2003.7 1553.2,1970.4 1528.7,1939.4 1503.9,1910.5 1478.9,1883.6 1453.5,1858.6 1427.8,1835.3 1401.6,1813.5 1374.8,1793.3 1347.5,1774.4 1319.4,1756.7 1290.4,1740.3 1260.5,1725.1 1229.5,1710.9 1197.3,1697.9 1163.8,1685.9 1128.7,1675.1 1091.9,1665.3 1053.3,1656.7 1012.7,1649.3 969.8,1643.2 924.5,1638.3 876.6,1634.9 825.8,1633.0 772.0,1632.7 714.8,1634.3 654.1,1637.7 589.6,1643.2 521.0,1651.0 448.0,1661.2  Z" style="stroke-width: 2.0;  stroke: rgb(82,82,82); fill: rgb(107,174,214); opacity: 0.667;" />
<path d="M 1393.558,441.086 A 1064.250,1064.250 0.00 0,1 1397.8,440.7 L 1397.8,440.7 1405.0,513.5 1412.0,580.8 1418.8,642.9 1425.5,700.0 1432.1,752.3 1438.4,800.0 1444.7,843.5 1450.9,882.9 1456.9,918.4 1462.9,950.1 1468.8,978.2 1474.7,1002.9 1480.5,1024.3 1486.4,1042.4 1492.2,1057.5 1498.1,1069.5 1504.0,1078.5 1510.0,1084.6 1516.2,1087.7 1522.4,1088.0 1528.8,1085.4 1535.3,1079.9 1542.1,1071.5 1549.1,1060.1 1556.3,1045.7 1563.8,1028.2 1571.6,1007.5 1579.8,983.4 1588.3,956.0 1597.2,924.9 1606.5,890.2 1616.4,851.6 1626.6,808.8 1637.5,761.9 1648.8,710.4 1660.8,654.2 1673.4,593.1 1686.7,526.7 1700.7,454.8  A 1064.250,1064.250 0.00 0,0 1696.5,454.1 L 1696.5,454.1 1682.8,526.0 1669.8,592.4 1657.5,653.6 1645.7,709.8 1634.5,761.3 1623.9,808.4 1613.8,851.1 1604.1,889.8 1594.9,924.6 1586.1,955.6 1577.7,983.1 1569.7,1007.2 1561.9,1027.9 1554.5,1045.5 1547.3,1059.9 1540.4,1071.4 1533.7,1079.8 1527.1,1085.3 1520.8,1087.9 1514.5,1087.7 1508.4,1084.5 1502.4,1078.5 1496.4,1069.5 1490.4,1057.5 1484.5,1042.5 1478.6,1024.4 1472.7,1003.0 1466.7,978.4 1460.7,950.3 1454.6,918.6 1448.4,883.1 1442.1,843.8 1435.7,800.3 1429.1,752.5 1422.3,700.3 1415.4,643.2 1408.3,581.2 1401.1,513.9 1393.6,441.1  Z" style="stroke-width: 2.0;  stroke: rgb(82,82,82); fill: rgb(253,141,60); opacity: 0.667;" />
<path d="M 1393.558,441.086 A 1064.250,1064.250 0.00 0,1 1397.8,440.7 L 1397.8,440.7 1405.1,513.5 1412.4,580.9 1419.6,643.0 1426.9,700.1 1434.2,752.5 1441.4,800.4 1448.7,844.0 1456.1,883.6 1463.4,919.3 1470.9,951.3 1478.4,979.7 1486.0,1004.8 1493.7,1026.6 1501.6,1045.2 1509.6,1060.7 1517.8,1073.2 1526.3,1082.9 1535.0,1089.6 1543.9,1093.6 1553.3,1094.7 1562.9,1093.0 1573.0,1088.5 1583.4,1081.1 1594.4,1070.9 1605.9,1057.6 1617.9,1041.4 1630.5,1022.1 1643.8,999.6 1657.9,973.7 1672.6,944.4 1688.2,911.4 1704.7,874.7 1722.1,834.0 1740.5,789.2 1759.9,740.0 1780.4,686.2 1802.2,627.6 1825.1,563.8 1849.4,494.8  A 1064.250,1064.250 0.00 0,0 1845.4,493.4 L 1845.4,493.4 1821.4,562.5 1798.7,626.4 1777.2,685.1 1756.9,738.9 1737.6,788.2 1719.4,833.1 1702.2,873.9 1685.9,910.7 1670.4,943.7 1655.8,973.1 1641.9,999.0 1628.6,1021.6 1616.1,1041.0 1604.1,1057.2 1592.7,1070.5 1581.8,1080.8 1571.3,1088.2 1561.3,1092.7 1551.6,1094.5 1542.3,1093.4 1533.3,1089.5 1524.6,1082.8 1516.1,1073.2 1507.8,1060.7 1499.8,1045.2 1491.8,1026.6 1484.0,1004.9 1476.3,979.8 1468.7,951.4 1461.1,919.5 1453.6,883.8 1446.1,844.3 1438.7,800.7 1431.2,752.8 1423.7,700.4 1416.2,643.3 1408.7,581.2 1401.1,513.9 1393.6,441.1  Z" style="stroke-width: 2.0;  stroke: rgb(82,82,82); fill: rgb(255,0,0); opacity: 0.667;" />
<path d="M 1393.558,441.086 A 1064.250,1064.250 0.00 0,1 1397.8,440.7 L 1397.8,440.7 1405.2,513.6 1412.9,581.0 1420.9,643.2 1429.1,700.6 1437.5,753.3 1446.2,801.6 1455.1,845.7 1464.2,885.8 1473.6,922.1 1483.3,954.9 1493.3,984.2 1503.5,1010.2 1514.1,1033.1 1525.1,1053.0 1536.4,1069.9 1548.2,1084.0 1560.4,1095.3 1573.2,1104.0 1586.5,1109.9 1600.4,1113.3 1614.9,1114.0 1630.2,1112.1 1646.3,1107.6 1663.2,1100.4 1681.0,1090.5 1699.7,1077.8 1719.6,1062.2 1740.6,1043.7 1762.8,1022.1 1786.3,997.3 1811.2,969.2 1837.6,937.7 1865.6,902.4 1895.3,863.4 1926.7,820.3 1960.1,773.0 1995.5,721.1 2033.0,664.6 2072.8,603.0  A 1064.250,1064.250 0.00 0,0 2069.2,600.8 L 2069.2,600.8 2029.7,662.5 1992.4,719.2 1957.2,771.1 1924.0,818.6 1892.7,861.8 1863.2,901.0 1835.3,936.3 1809.1,968.0 1784.3,996.2 1760.9,1021.1 1738.8,1042.7 1717.8,1061.3 1698.1,1077.0 1679.3,1089.7 1661.6,1099.7 1644.7,1107.0 1628.7,1111.6 1613.4,1113.6 1598.8,1112.9 1584.9,1109.6 1571.6,1103.7 1558.8,1095.1 1546.5,1083.8 1534.7,1069.8 1523.3,1052.9 1512.3,1033.1 1501.6,1010.2 1491.2,984.2 1481.1,954.9 1471.3,922.2 1461.8,885.9 1452.5,845.8 1443.4,801.8 1434.5,753.5 1425.9,700.9 1417.5,643.6 1409.3,581.3 1401.3,513.9 1393.6,441.1  Z" style="stroke-width: 2.0;  stroke: rgb(82,82,82); fill: rgb(255,0,204); opacity: 0.667;" />
<path d="M 1393.558,441.086 A 1064.250,1064.250 0.00 0,1 1397.8,440.7 L 1397.8,440.7 1405.3,513.6 1413.1,581.0 1421.2,643.4 1429.7,700.8 1438.5,753.6 1447.6,802.0 1456.9,846.3 1466.6,886.7 1476.6,923.3 1486.9,956.3 1497.6,986.0 1508.6,1012.4 1520.0,1035.8 1531.9,1056.1 1544.2,1073.6 1556.9,1088.3 1570.2,1100.4 1584.1,1109.7 1598.6,1116.5 1613.8,1120.7 1629.7,1122.4 1646.4,1121.6 1664.0,1118.2 1682.6,1112.2 1702.1,1103.5 1722.8,1092.2 1744.6,1078.1 1767.7,1061.2 1792.1,1041.3 1818.1,1018.3 1845.5,992.2 1874.7,962.6 1905.6,929.6 1938.4,892.8 1973.2,852.1 2010.1,807.3 2049.3,758.2 2090.9,704.5 2135.0,645.9  A 1064.250,1064.250 0.00 0,0 2131.6,643.4 L 2131.6,643.4 2087.7,702.1 2046.4,756.0 2007.4,805.3 1970.6,850.2 1936.0,891.0 1903.3,927.9 1872.5,961.1 1843.5,990.8 1816.1,1017.1 1790.3,1040.2 1765.9,1060.1 1742.9,1077.2 1721.1,1091.3 1700.5,1102.7 1681.0,1111.4 1662.5,1117.5 1644.9,1121.0 1628.2,1121.9 1612.3,1120.3 1597.1,1116.1 1582.5,1109.4 1568.6,1100.1 1555.3,1088.1 1542.5,1073.5 1530.1,1056.0 1518.2,1035.7 1506.7,1012.4 1495.6,986.0 1484.8,956.4 1474.3,923.4 1464.2,886.8 1454.3,846.5 1444.8,802.2 1435.5,753.8 1426.5,701.1 1417.8,643.7 1409.4,581.4 1401.3,514.0 1393.6,441.1  Z" style="stroke-width: 2.0;  stroke: rgb(82,82,82); fill: rgb(255,204,204); opacity: 0.667;" />
<path d="M 1393.558,441.086 A 1064.250,1064.250 0.00 0,1 1397.8,440.7 L 1397.8,440.7 1405.3,513.6 1413.1,581.0 1421.3,643.4 1429.8,700.8 1438.6,753.6 1447.8,802.1 1457.2,846.4 1466.9,886.8 1477.0,923.4 1487.4,956.5 1498.2,986.3 1509.3,1012.8 1520.8,1036.2 1532.8,1056.6 1545.2,1074.2 1558.1,1089.0 1571.5,1101.1 1585.5,1110.6 1600.2,1117.5 1615.6,1121.8 1631.7,1123.6 1648.6,1122.9 1666.4,1119.7 1685.1,1113.9 1704.9,1105.4 1725.8,1094.3 1747.9,1080.4 1771.3,1063.7 1796.0,1044.1 1822.3,1021.4 1850.1,995.5 1879.6,966.2 1910.9,933.5 1944.1,897.0 1979.3,856.7 2016.7,812.2 2056.4,763.5 2098.5,710.2 2143.2,652.1  A 1064.250,1064.250 0.00 0,0 2139.8,649.5 L 2139.8,649.5 2095.4,707.8 2053.5,761.3 2014.0,810.2 1976.8,854.8 1941.7,895.2 1908.6,931.8 1877.4,964.7 1848.1,994.1 1820.3,1020.1 1794.2,1042.9 1769.5,1062.6 1746.2,1079.4 1724.2,1093.4 1703.3,1104.6 1683.6,1113.1 1664.9,1119.0 1647.1,1122.3 1630.2,1123.1 1614.0,1121.4 1598.7,1117.1 1584.0,1110.2 1569.9,1100.8 1556.4,1088.7 1543.5,1074.0 1531.0,1056.5 1519.0,1036.1 1507.4,1012.7 1496.1,986.3 1485.3,956.6 1474.7,923.5 1464.5,886.9 1454.6,846.6 1445.0,802.3 1435.7,753.9 1426.6,701.1 1417.9,643.7 1409.5,581.4 1401.3,514.0 1393.6,441.1  Z" style="stroke-width: 2.0;  stroke: rgb(82,82,82); fill: rgb(255,153,0); opacity: 0.667;" />
<path d="M 1393.558,441.086 A 1064.250,1064.250 0.00 0,1 1397.8,440.7 L 1397.8,440.7 1405.4,513.6 1413.6,581.2 1422.4,643.8 1431.7,701.6 1441.5,754.9 1451.8,803.9 1462.5,848.9 1473.8,890.1 1485.5,927.8 1497.7,962.0 1510.4,993.0 1523.7,1021.0 1537.4,1046.0 1551.8,1068.3 1566.7,1087.9 1582.3,1104.9 1598.6,1119.5 1615.6,1131.7 1633.5,1141.5 1652.2,1149.1 1671.9,1154.4 1692.7,1157.4 1714.5,1158.2 1737.6,1156.7 1761.9,1152.9 1787.7,1146.8 1815.0,1138.3 1843.9,1127.3 1874.5,1113.8 1907.1,1097.5 1941.6,1078.5 1978.3,1056.6 2017.2,1031.6 2058.6,1003.4 2102.6,971.8 2149.4,936.6 2199.1,897.6 2251.9,854.6 2307.9,807.2  A 1064.250,1064.250 0.00 0,0 2305.1,804.0 L 2305.1,804.0 2249.3,851.6 2196.7,894.8 2147.2,934.0 2100.5,969.4 2056.7,1001.2 2015.4,1029.6 1976.5,1054.7 1939.9,1076.8 1905.4,1095.9 1873.0,1112.3 1842.4,1125.9 1813.5,1137.0 1786.3,1145.7 1760.5,1151.9 1736.2,1155.8 1713.1,1157.3 1691.3,1156.6 1670.6,1153.7 1650.8,1148.5 1632.1,1141.0 1614.2,1131.2 1597.1,1119.1 1580.7,1104.6 1565.1,1087.6 1550.0,1068.1 1535.6,1045.9 1521.8,1020.9 1508.4,993.0 1495.6,962.0 1483.2,927.8 1471.4,890.2 1460.0,849.1 1449.0,804.1 1438.5,755.1 1428.5,701.9 1419.0,644.1 1409.9,581.6 1401.5,514.0 1393.6,441.1  Z" style="stroke-width: 2.0;  stroke: rgb(82,82,82); fill: rgb(255,204,0); opacity: 0.667;" />
<path d="M 1393.558,441.086 A 1064.250,1064.250 0.00 0,1 1397.8,440.7 L 1397.8,440.7 1406.1,514.5 1416.3,584.9 1428.0,651.9 1441.0,715.8 1454.9,776.9 1469.5,835.3 1484.6,891.3 1500.0,945.1 1515.4,997.0 1530.7,1047.0 1545.7,1095.5 1560.3,1142.6 1574.4,1188.5 1587.8,1233.4 1600.4,1277.5 1612.3,1321.0 1623.3,1364.0 1633.5,1406.8 1642.8,1449.5 1651.3,1492.3 1658.9,1535.4 1665.8,1578.8 1672.0,1622.8 1677.5,1667.6 1682.6,1713.2 1687.3,1759.8 1691.8,1807.6 1696.2,1856.7 1700.8,1907.2 1705.7,1959.3 1711.1,2013.1 1717.4,2068.7 1724.8,2126.3 1733.5,2185.9 1743.8,2247.7 1756.2,2311.7 1770.8,2378.1 1788.2,2447.0 1808.6,2518.5  A 1064.250,1064.250 0.00 0,0 1812.6,2517.3 L 1812.6,2517.3 1791.9,2445.9 1774.3,2377.0 1759.4,2310.7 1746.8,2246.7 1736.2,2185.0 1727.3,2125.4 1719.7,2067.9 1713.2,2012.3 1707.5,1958.5 1702.4,1906.4 1697.6,1855.9 1693.0,1806.8 1688.3,1759.1 1683.5,1712.5 1678.2,1666.9 1672.5,1622.1 1666.1,1578.1 1659.1,1534.7 1651.3,1491.7 1642.6,1449.0 1633.2,1406.3 1622.8,1363.5 1611.6,1320.5 1599.5,1277.1 1586.7,1233.0 1573.1,1188.2 1558.9,1142.3 1544.1,1095.3 1528.9,1046.9 1513.4,996.9 1497.8,945.1 1482.2,891.4 1466.9,835.4 1452.0,777.1 1437.9,716.0 1424.6,652.2 1412.7,585.2 1402.2,514.9 1393.6,441.1  Z" style="stroke-width: 2.0;  stroke: rgb(82,82,82); fill: rgb(255,255,0); opacity: 0.667;" />
<path d="M 1393.558,441.086 A 1064.250,1064.250 0.00 0,1 1397.8,440.7 L 1397.8,440.7 1403.9,514.0 1408.0,582.8 1410.0,647.3 1410.2,707.8 1408.7,764.5 1405.7,817.8 1401.2,867.8 1395.3,914.7 1388.1,958.9 1379.7,1000.5 1370.2,1039.7 1359.5,1076.7 1347.8,1111.7 1335.0,1144.9 1321.1,1176.3 1306.2,1206.3 1290.1,1234.8 1273.0,1262.0 1254.7,1288.1 1235.1,1313.2 1214.2,1337.3 1191.9,1360.5 1168.1,1383.0 1142.7,1404.7 1115.5,1425.8 1086.4,1446.2 1055.3,1466.1 1022.0,1485.3 986.3,1504.1 947.9,1522.3 906.8,1539.9 862.6,1557.0 815.2,1573.5 764.3,1589.3 709.6,1604.5 650.8,1618.9 587.8,1632.5 520.1,1645.3 447.4,1657.0  A 1064.250,1064.250 0.00 0,0 448.0,1661.2 L 448.0,1661.2 520.6,1649.2 588.3,1636.2 651.3,1622.3 710.0,1607.7 764.7,1592.3 815.5,1576.2 862.9,1559.5 907.0,1542.3 948.0,1524.5 986.3,1506.1 1021.9,1487.2 1055.2,1467.8 1086.2,1447.8 1115.2,1427.3 1142.3,1406.1 1167.6,1384.3 1191.4,1361.8 1213.6,1338.4 1234.4,1314.2 1253.8,1289.1 1272.1,1262.9 1289.1,1235.6 1305.0,1207.0 1319.8,1177.1 1333.6,1145.5 1346.2,1112.3 1357.8,1077.3 1368.3,1040.3 1377.7,1001.0 1385.9,959.4 1392.9,915.2 1398.6,868.2 1403.0,818.2 1405.8,764.9 1407.1,708.1 1406.6,647.7 1404.3,583.2 1400.0,514.4 1393.6,441.1  Z" style="stroke-width: 2.0;  stroke: rgb(82,82,82); fill: rgb(204,255,0); opacity: 0.667;" />
<path d="M 2106.731,625.640 A 1064.250,1064.250 0.00 0,1 2109.2,627.4 L 2109.2,627.4 2067.0,687.2 2027.3,742.2 1990.0,792.6 1955.1,838.6 1922.3,880.5 1891.5,918.4 1862.7,952.5 1835.6,983.1 1810.3,1010.2 1786.6,1034.1 1764.5,1054.9 1743.7,1072.6 1724.4,1087.4 1706.2,1099.4 1689.3,1108.7 1673.5,1115.2 1658.7,1119.1 1644.9,1120.4 1632.1,1119.0 1620.1,1115.1 1609.0,1108.5 1598.6,1099.3 1589.1,1087.4 1580.2,1072.7 1572.1,1055.3 1564.6,1034.8 1557.8,1011.4 1551.7,984.8 1546.2,955.0 1541.3,921.7 1537.1,884.8 1533.5,844.2 1530.6,799.6 1528.4,750.8 1526.9,697.6 1526.1,639.8 1526.0,577.2 1526.8,509.4 1528.4,436.1  A 1064.250,1064.250 0.00 0,0 1525.4,436.1 L 1525.4,436.1 1524.0,509.3 1523.4,577.1 1523.6,639.8 1524.6,697.6 1526.3,750.7 1528.6,799.5 1531.7,844.1 1535.4,884.7 1539.7,921.6 1544.7,954.8 1550.2,984.7 1556.5,1011.2 1563.3,1034.7 1570.8,1055.1 1579.0,1072.5 1587.9,1087.2 1597.5,1099.0 1607.9,1108.2 1619.0,1114.8 1631.0,1118.7 1643.8,1120.0 1657.6,1118.6 1672.4,1114.7 1688.2,1108.1 1705.1,1098.8 1723.2,1086.8 1742.5,1071.9 1763.2,1054.1 1785.3,1033.3 1808.9,1009.4 1834.2,982.1 1861.1,951.5 1889.8,917.3 1920.5,879.3 1953.2,837.3 1988.0,791.2 2025.2,740.7 2064.7,685.6 2106.7,625.6  Z" style="stroke-width: 2.0;  stroke: rgb(82,82,82); fill: rgb(0,255,0); opacity: 0.667;" />
<path d="M 2080.870,608.250 A 1064.250,1064.250 0.00 0,1 2083.6,610.1 L 2083.6,610.1 2043.2,671.1 2005.4,727.3 1969.9,778.9 1936.8,826.0 1905.8,868.9 1876.8,907.9 1849.8,943.1 1824.7,974.6 1801.2,1002.7 1779.4,1027.5 1759.2,1049.0 1740.4,1067.6 1723.0,1083.2 1706.9,1095.9 1692.0,1105.8 1678.4,1113.0 1665.8,1117.5 1654.3,1119.3 1643.9,1118.5 1634.4,1115.1 1625.9,1109.0 1618.2,1100.2 1611.5,1088.7 1605.6,1074.4 1600.6,1057.3 1596.4,1037.2 1593.1,1014.1 1590.5,987.8 1588.9,958.3 1588.0,925.3 1588.1,888.7 1589.0,848.3 1590.8,804.0 1593.6,755.6 1597.4,702.8 1602.2,645.4 1608.1,583.1 1615.1,515.7 1623.3,442.9  A 1064.250,1064.250 0.00 0,0 1620.0,442.5 L 1620.0,442.5 1612.0,515.3 1605.2,582.7 1599.5,645.0 1594.9,702.5 1591.3,755.3 1588.7,803.8 1587.0,848.1 1586.2,888.4 1586.2,925.0 1587.2,958.0 1588.9,987.5 1591.5,1013.8 1595.0,1036.9 1599.2,1057.0 1604.3,1074.1 1610.2,1088.4 1617.0,1099.8 1624.6,1108.6 1633.2,1114.7 1642.7,1118.1 1653.1,1118.8 1664.6,1117.0 1677.2,1112.4 1690.8,1105.2 1705.6,1095.2 1721.7,1082.5 1739.0,1066.8 1757.8,1048.2 1778.0,1026.6 1799.7,1001.7 1823.0,973.6 1848.1,942.0 1875.0,906.7 1903.8,867.7 1934.7,824.6 1967.7,777.4 2003.0,725.8 2040.7,669.5 2080.9,608.3  Z" style="stroke-width: 2.0;  stroke: rgb(82,82,82); fill: rgb(53,128,0); opacity: 0.667;" />
</g>
<defs>
<pattern id="hline-sparse" width="10" height="10" patternTransform="rotate(0 0 0)" patternUnits="userSpaceOnUse"><line x1="0" y1="0" x2="10" y2="0" style="stroke:black;stroke-width:2" /></pattern>
<pattern id="checker" width="10" height="10" patternTransform="rotate(45 0 0)" patternUnits="userSpaceOnUse"><line x1="0" y1="0" x2="10" y2="0" style="stroke:black;stroke-width:2" /><line x1="0" y1="0" x2="0" y2="10" style="stroke:black;stroke-width:2" /></pattern>
<pattern id="checker" width="10" height="10" patternTransform="rotate(45 0 0)" patternUnits="userSpaceOnUse"><line x1="0" y1="0" x2="10" y2="0" style="stroke:black;stroke-width:5" /><line x1="0" y1="0" x2="0" y2="10" style="stroke:black;stroke-width:4" /></pattern>
<pattern id="hline" width="10" height="10" patternTransform="rotate(0 0 0)" patternUnits="userSpaceOnUse"><line x1="0" y1="0" x2="10" y2="0" style="stroke:black;stroke-width:5" /></pattern>
<pattern id="vline-sparse" width="10" height="10" patternTransform="rotate(0 0 0)" patternUnits="userSpaceOnUse"><line x1="0" y1="0" x2="0" y2="10" style="stroke:black;stroke-width:2" /></pattern>
<pattern id="vline" width="10" height="10" patternTransform="rotate(0 0 0)" patternUnits="userSpaceOnUse"><line x1="0" y1="0" x2="0" y2="10" style="stroke:black;stroke-width:5" /></pattern>
</defs>
</svg>
