<?xml version="1.0" encoding="utf-8" standalone="no"?>
<!DOCTYPE svg PUBLIC "-//W3C//DTD SVG 1.1//EN" "http://www.w3.org/Graphics/SVG/1.1/DTD/svg11.dtd">
<svg width="3000px" height="3000px" version="1.1" xmlns="http://www.w3.org/2000/svg" xmlns:xlink="http://www.w3.org/1999/xlink">
<g id="ideograms">
<path d="M1500.000,425.000 A1075.000,1075.000 40.000 0,1 1784.370,463.294 L1797.597,415.076 A1125.000,1125.000 0.000 0,0 1500.000,375.000 Z" style="stroke-linecap:round;fill:rgb(116,196,118);fill-opacity:0.33;" />
<text x="1671.6" y="297.2" font-size="18.2px" font-family="CMUBright-Roman" style="text-anchor:start;fill:rgb(0,0,0);" transform="rotate(277.7,1671.6,297.2)" >R<tspan baseline-shift="-40%" font-size="90%">s</tspan>caffold<tspan baseline-shift="-40%" font-size="90%">7</tspan></text>
<line x1='1500.0' y1='375.0' x2='1500.0' y2='355.0' style="stroke-width:4.0;stroke:rgb(0,0,0);stroke-linecap:round;fill:none;" />
<text x="1506.5" y="345.0" font-size="18.2px" font-family="CMUBright-Roman" style="text-anchor:start;fill:rgb(0,0,0);" transform="rotate(270.0,1506.5,345.0)" >0</text>
<line x1='1564.6' y1='376.9' x2='1565.7' y2='356.9' style="stroke-width:4.0;stroke:rgb(0,0,0);stroke-linecap:round;fill:none;" />
<text x="1572.8" y="347.3" font-size="18.2px" font-family="CMUBright-Roman" style="text-anchor:start;fill:rgb(0,0,0);" transform="rotate(273.3,1572.8,347.3)" >50</text>
<line x1='1628.9' y1='382.4' x2='1631.2' y2='362.5' style="stroke-width:4.0;stroke:rgb(0,0,0);stroke-linecap:round;fill:none;" />
<text x="1638.8" y="353.4" font-size="18.2px" font-family="CMUBright-Roman" style="text-anchor:start;fill:rgb(0,0,0);" transform="rotate(276.6,1638.8,353.4)" >100</text>
<line x1='1692.8' y1='391.7' x2='1696.3' y2='371.9' style="stroke-width:4.0;stroke:rgb(0,0,0);stroke-linecap:round;fill:none;" />
<text x="1704.4" y="363.2" font-size="18.2px" font-family="CMUBright-Roman" style="text-anchor:start;fill:rgb(0,0,0);" transform="rotate(279.9,1704.4,363.2)" >150</text>
<line x1='1756.1' y1='404.5' x2='1760.7' y2='385.1' style="stroke-width:4.0;stroke:rgb(0,0,0);stroke-linecap:round;fill:none;" />
<text x="1769.3" y="376.8" font-size="18.2px" font-family="CMUBright-Roman" style="text-anchor:start;fill:rgb(0,0,0);" transform="rotate(283.2,1769.3,376.8)" >200</text>
<g id="highlighttrack_0">
<path d="M1757.508,456.298 A1075.000,1075.000 40.000 0,1 1763.927,457.902 L1776.203,409.433 A1125.000,1125.000 0.000 0,0 1769.486,407.753 Z" style="stroke-width:4.0;stroke:rgb(0,0,0);stroke-linecap:round;fill:rgb(116,196,118);" />
<path d="M1747.688,453.924 A1075.000,1075.000 40.000 0,1 1751.384,454.806 L1763.076,406.192 A1125.000,1125.000 0.000 0,0 1759.208,405.269 Z" style="stroke-width:4.0;stroke:rgb(0,0,0);stroke-linecap:round;fill:rgb(116,196,118);" />
</g>
<path d="M1844.722,481.770 A1075.000,1075.000 40.000 0,1 2023.134,560.875 L2047.466,517.195 A1125.000,1125.000 0.000 0,0 1860.756,434.411 Z" style="stroke-linecap:round;fill:rgb(116,196,118);fill-opacity:0.33;" />
<text x="2001.1" y="393.2" font-size="18.2px" font-family="CMUBright-Roman" style="text-anchor:start;fill:rgb(0,0,0);" transform="rotate(293.9,2001.1,393.2)" >R<tspan baseline-shift="-40%" font-size="90%">s</tspan>caffold<tspan baseline-shift="-40%" font-size="90%">1</tspan>2</text>
<line x1='1860.8' y1='434.4' x2='1867.2' y2='415.5' style="stroke-width:4.0;stroke:rgb(0,0,0);stroke-linecap:round;fill:none;" />
<text x="1876.5" y="408.1" font-size="18.2px" font-family="CMUBright-Roman" style="text-anchor:start;fill:rgb(0,0,0);" transform="rotate(288.7,1876.5,408.1)" >0</text>
<line x1='1921.3' y1='456.9' x2='1928.8' y2='438.3' style="stroke-width:4.0;stroke:rgb(0,0,0);stroke-linecap:round;fill:none;" />
<text x="1938.6" y="431.5" font-size="18.2px" font-family="CMUBright-Roman" style="text-anchor:start;fill:rgb(0,0,0);" transform="rotate(292.0,1938.6,431.5)" >50</text>
<line x1='1980.5' y1='482.8' x2='1989.0' y2='464.7' style="stroke-width:4.0;stroke:rgb(0,0,0);stroke-linecap:round;fill:none;" />
<text x="1999.2" y="458.4" font-size="18.2px" font-family="CMUBright-Roman" style="text-anchor:start;fill:rgb(0,0,0);" transform="rotate(295.3,1999.2,458.4)" >100</text>
<line x1='2038.1' y1='512.0' x2='2047.6' y2='494.5' style="stroke-width:4.0;stroke:rgb(0,0,0);stroke-linecap:round;fill:none;" />
<text x="2058.1" y="488.8" font-size="18.2px" font-family="CMUBright-Roman" style="text-anchor:start;fill:rgb(0,0,0);" transform="rotate(298.6,2058.1,488.8)" >150</text>
<g id="highlighttrack_0">
<path d="M2019.456,558.835 A1075.000,1075.000 40.000 0,1 2022.279,560.399 L2046.571,516.697 A1125.000,1125.000 0.000 0,0 2043.616,515.060 Z" style="stroke-width:4.0;stroke:rgb(0,0,0);stroke-linecap:round;fill:rgb(116,196,118);" />
</g>
<path d="M2077.348,593.195 A1075.000,1075.000 40.000 0,1 2105.216,611.553 L2133.365,570.229 A1125.000,1125.000 0.000 0,0 2104.201,551.018 Z" style="stroke-linecap:round;fill:rgb(116,196,118);fill-opacity:0.33;" />
<text x="2176.3" y="490.6" font-size="18.2px" font-family="CMUBright-Roman" style="text-anchor:start;fill:rgb(0,0,0);" transform="rotate(303.4,2176.3,490.6)" >R<tspan baseline-shift="-40%" font-size="90%">s</tspan>caffold<tspan baseline-shift="-40%" font-size="90%">2</tspan>6</text>
<line x1='2104.2' y1='551.0' x2='2114.9' y2='534.1' style="stroke-width:4.0;stroke:rgb(0,0,0);stroke-linecap:round;fill:none;" />
<text x="2125.8" y="529.2" font-size="18.2px" font-family="CMUBright-Roman" style="text-anchor:start;fill:rgb(0,0,0);" transform="rotate(302.5,2125.8,529.2)" >0</text>
<g id="highlighttrack_0">
<path d="M2083.524,597.157 A1075.000,1075.000 40.000 0,1 2089.076,600.770 L2116.474,558.945 A1125.000,1125.000 0.000 0,0 2110.665,555.165 Z" style="stroke-width:4.0;stroke:rgb(0,0,0);stroke-linecap:round;fill:rgb(116,196,118);" />
</g>
<path d="M2156.313,648.602 A1075.000,1075.000 40.000 0,1 2181.155,668.344 L2212.837,629.662 A1125.000,1125.000 0.000 0,0 2186.840,609.003 Z" style="stroke-linecap:round;fill:rgb(116,196,118);fill-opacity:0.33;" />
<text x="2263.3" y="554.7" font-size="18.2px" font-family="CMUBright-Roman" style="text-anchor:start;fill:rgb(0,0,0);" transform="rotate(308.5,2263.3,554.7)" >R<tspan baseline-shift="-40%" font-size="90%">s</tspan>caffold<tspan baseline-shift="-40%" font-size="90%">2</tspan>7</text>
<line x1='2186.8' y1='609.0' x2='2199.1' y2='593.2' style="stroke-width:4.0;stroke:rgb(0,0,0);stroke-linecap:round;fill:none;" />
<text x="2210.3" y="589.2" font-size="18.2px" font-family="CMUBright-Roman" style="text-anchor:start;fill:rgb(0,0,0);" transform="rotate(307.6,2210.3,589.2)" >0</text>
<g id="highlighttrack_0">
<path d="M2167.015,656.960 A1075.000,1075.000 40.000 0,1 2173.973,662.512 L2205.320,623.559 A1125.000,1125.000 0.000 0,0 2198.039,617.749 Z" style="stroke-width:4.0;stroke:rgb(0,0,0);stroke-linecap:round;fill:rgb(116,196,118);" />
</g>
<path d="M2228.789,709.752 A1075.000,1075.000 40.000 0,1 2244.083,724.135 L2278.691,688.049 A1125.000,1125.000 0.000 0,0 2262.686,672.997 Z" style="stroke-linecap:round;fill:rgb(116,196,118);fill-opacity:0.33;" />
<text x="2339.3" y="621.5" font-size="18.2px" font-family="CMUBright-Roman" style="text-anchor:start;fill:rgb(0,0,0);" transform="rotate(313.2,2339.3,621.5)" >R<tspan baseline-shift="-40%" font-size="90%">s</tspan>caffold<tspan baseline-shift="-40%" font-size="90%">2</tspan>9</text>
<line x1='2262.7' y1='673.0' x2='2276.2' y2='658.3' style="stroke-width:4.0;stroke:rgb(0,0,0);stroke-linecap:round;fill:none;" />
<text x="2287.8" y="655.4" font-size="18.2px" font-family="CMUBright-Roman" style="text-anchor:start;fill:rgb(0,0,0);" transform="rotate(312.7,2287.8,655.4)" >0</text>
<g id="highlighttrack_0">
<path d="M2238.070,718.414 A1075.000,1075.000 40.000 0,1 2240.972,721.164 L2275.435,684.939 A1125.000,1125.000 0.000 0,0 2272.399,682.061 Z" style="stroke-width:4.0;stroke:rgb(0,0,0);stroke-linecap:round;fill:rgb(116,196,118);" />
</g>
<path d="M2288.334,769.141 A1075.000,1075.000 40.000 0,1 2291.297,772.350 L2328.101,738.506 A1125.000,1125.000 0.000 0,0 2325.001,735.148 Z" style="stroke-linecap:round;fill:rgb(116,196,118);fill-opacity:0.33;" />
<text x="2399.1" y="682.8" font-size="18.2px" font-family="CMUBright-Roman" style="text-anchor:start;fill:rgb(0,0,0);" transform="rotate(317.3,2399.1,682.8)" >R<tspan baseline-shift="-40%" font-size="90%">s</tspan>caffold<tspan baseline-shift="-40%" font-size="90%">3</tspan>4</text>
<line x1='2325.0' y1='735.1' x2='2339.7' y2='721.6' style="stroke-width:4.0;stroke:rgb(0,0,0);stroke-linecap:round;fill:none;" />
<text x="2351.4" y="719.5" font-size="18.2px" font-family="CMUBright-Roman" style="text-anchor:start;fill:rgb(0,0,0);" transform="rotate(317.2,2351.4,719.5)" >0</text>
<g id="highlighttrack_0">
<path d="M2288.335,769.142 A1075.000,1075.000 40.000 0,1 2290.800,771.811 L2327.582,737.941 A1125.000,1125.000 0.000 0,0 2325.001,735.149 Z" style="stroke-width:4.0;stroke:rgb(0,0,0);stroke-linecap:round;fill:rgb(116,196,118);" />
</g>
<path d="M2332.637,820.044 A1075.000,1075.000 40.000 1,1 1436.911,426.853 L1433.976,376.939 A1125.000,1125.000 0.000 1,0 2371.364,788.418 Z" style="stroke-linecap:round;fill:rgb(116,196,118);fill-opacity:0.33;" />
<text x="1020.4" y="2616.3" font-size="18.2px" font-family="CMUBright-Roman" style="text-anchor:end;fill:rgb(0,0,0);" transform="rotate(-66.3,1020.4,2616.3)" >NZ<tspan baseline-shift="-40%" font-size="90%">C</tspan>P041036.1</text>
<line x1='2371.4' y1='788.4' x2='2386.9' y2='775.8' style="stroke-width:4.0;stroke:rgb(0,0,0);stroke-linecap:round;fill:none;" />
<text x="2398.7" y="774.5" font-size="18.2px" font-family="CMUBright-Roman" style="text-anchor:start;fill:rgb(0,0,0);" transform="rotate(320.8,2398.7,774.5)" >0</text>
<line x1='2410.8' y1='839.6' x2='2427.0' y2='827.9' style="stroke-width:4.0;stroke:rgb(0,0,0);stroke-linecap:round;fill:none;" />
<text x="2438.9" y="827.3" font-size="18.2px" font-family="CMUBright-Roman" style="text-anchor:start;fill:rgb(0,0,0);" transform="rotate(324.1,2438.9,827.3)" >50</text>
<line x1='2447.2' y1='893.0' x2='2464.0' y2='882.2' style="stroke-width:4.0;stroke:rgb(0,0,0);stroke-linecap:round;fill:none;" />
<text x="2475.9" y="882.2" font-size="18.2px" font-family="CMUBright-Roman" style="text-anchor:start;fill:rgb(0,0,0);" transform="rotate(327.3,2475.9,882.2)" >100</text>
<line x1='2480.4' y1='948.3' x2='2497.9' y2='938.5' style="stroke-width:4.0;stroke:rgb(0,0,0);stroke-linecap:round;fill:none;" />
<text x="2509.8" y="939.3" font-size="18.2px" font-family="CMUBright-Roman" style="text-anchor:start;fill:rgb(0,0,0);" transform="rotate(330.6,2509.8,939.3)" >150</text>
<line x1='2510.5' y1='1005.5' x2='2528.5' y2='996.7' style="stroke-width:4.0;stroke:rgb(0,0,0);stroke-linecap:round;fill:none;" />
<text x="2540.3" y="998.1" font-size="18.2px" font-family="CMUBright-Roman" style="text-anchor:start;fill:rgb(0,0,0);" transform="rotate(333.9,2540.3,998.1)" >200</text>
<line x1='2537.2' y1='1064.3' x2='2555.6' y2='1056.5' style="stroke-width:4.0;stroke:rgb(0,0,0);stroke-linecap:round;fill:none;" />
<text x="2567.4" y="1058.7" font-size="18.2px" font-family="CMUBright-Roman" style="text-anchor:start;fill:rgb(0,0,0);" transform="rotate(337.2,2567.4,1058.7)" >250</text>
<line x1='2560.5' y1='1124.5' x2='2579.3' y2='1117.9' style="stroke-width:4.0;stroke:rgb(0,0,0);stroke-linecap:round;fill:none;" />
<text x="2590.9" y="1120.7" font-size="18.2px" font-family="CMUBright-Roman" style="text-anchor:start;fill:rgb(0,0,0);" transform="rotate(340.5,2590.9,1120.7)" >300</text>
<line x1='2580.3' y1='1186.0' x2='2599.5' y2='1180.4' style="stroke-width:4.0;stroke:rgb(0,0,0);stroke-linecap:round;fill:none;" />
<text x="2610.9" y="1183.9" font-size="18.2px" font-family="CMUBright-Roman" style="text-anchor:start;fill:rgb(0,0,0);" transform="rotate(343.8,2610.9,1183.9)" >350</text>
<line x1='2596.5' y1='1248.5' x2='2616.0' y2='1244.1' style="stroke-width:4.0;stroke:rgb(0,0,0);stroke-linecap:round;fill:none;" />
<text x="2627.2" y="1248.2" font-size="18.2px" font-family="CMUBright-Roman" style="text-anchor:start;fill:rgb(0,0,0);" transform="rotate(347.1,2627.2,1248.2)" >400</text>
<line x1='2609.2' y1='1311.9' x2='2628.9' y2='1308.5' style="stroke-width:4.0;stroke:rgb(0,0,0);stroke-linecap:round;fill:none;" />
<text x="2639.8" y="1313.3" font-size="18.2px" font-family="CMUBright-Roman" style="text-anchor:start;fill:rgb(0,0,0);" transform="rotate(350.4,2639.8,1313.3)" >450</text>
<line x1='2618.1' y1='1375.8' x2='2638.0' y2='1373.6' style="stroke-width:4.0;stroke:rgb(0,0,0);stroke-linecap:round;fill:none;" />
<text x="2648.6" y="1379.0" font-size="18.2px" font-family="CMUBright-Roman" style="text-anchor:start;fill:rgb(0,0,0);" transform="rotate(353.7,2648.6,1379.0)" >500</text>
<line x1='2623.4' y1='1440.2' x2='2643.4' y2='1439.2' style="stroke-width:4.0;stroke:rgb(0,0,0);stroke-linecap:round;fill:none;" />
<text x="2653.7" y="1445.1" font-size="18.2px" font-family="CMUBright-Roman" style="text-anchor:start;fill:rgb(0,0,0);" transform="rotate(357.0,2653.7,1445.1)" >550</text>
<line x1='2625.0' y1='1504.8' x2='2645.0' y2='1504.9' style="stroke-width:4.0;stroke:rgb(0,0,0);stroke-linecap:round;fill:none;" />
<text x="2654.9" y="1511.4" font-size="18.2px" font-family="CMUBright-Roman" style="text-anchor:start;fill:rgb(0,0,0);" transform="rotate(0.2,2654.9,1511.4)" >600</text>
<line x1='2622.9' y1='1569.3' x2='2642.8' y2='1570.6' style="stroke-width:4.0;stroke:rgb(0,0,0);stroke-linecap:round;fill:none;" />
<text x="2652.4" y="1577.7" font-size="18.2px" font-family="CMUBright-Roman" style="text-anchor:start;fill:rgb(0,0,0);" transform="rotate(3.5,2652.4,1577.7)" >650</text>
<line x1='2617.0' y1='1633.7' x2='2636.9' y2='1636.0' style="stroke-width:4.0;stroke:rgb(0,0,0);stroke-linecap:round;fill:none;" />
<text x="2646.0" y="1643.7" font-size="18.2px" font-family="CMUBright-Roman" style="text-anchor:start;fill:rgb(0,0,0);" transform="rotate(6.8,2646.0,1643.7)" >700</text>
<line x1='2607.5' y1='1697.5' x2='2627.2' y2='1701.1' style="stroke-width:4.0;stroke:rgb(0,0,0);stroke-linecap:round;fill:none;" />
<text x="2635.9" y="1709.2" font-size="18.2px" font-family="CMUBright-Roman" style="text-anchor:start;fill:rgb(0,0,0);" transform="rotate(10.1,2635.9,1709.2)" >750</text>
<line x1='2594.4' y1='1760.8' x2='2613.8' y2='1765.4' style="stroke-width:4.0;stroke:rgb(0,0,0);stroke-linecap:round;fill:none;" />
<text x="2622.0" y="1774.1" font-size="18.2px" font-family="CMUBright-Roman" style="text-anchor:start;fill:rgb(0,0,0);" transform="rotate(13.4,2622.0,1774.1)" >800</text>
<line x1='2577.6' y1='1823.2' x2='2596.7' y2='1828.9' style="stroke-width:4.0;stroke:rgb(0,0,0);stroke-linecap:round;fill:none;" />
<text x="2604.4" y="1838.0" font-size="18.2px" font-family="CMUBright-Roman" style="text-anchor:start;fill:rgb(0,0,0);" transform="rotate(16.7,2604.4,1838.0)" >850</text>
<line x1='2557.3' y1='1884.5' x2='2576.1' y2='1891.3' style="stroke-width:4.0;stroke:rgb(0,0,0);stroke-linecap:round;fill:none;" />
<text x="2583.2" y="1900.8" font-size="18.2px" font-family="CMUBright-Roman" style="text-anchor:start;fill:rgb(0,0,0);" transform="rotate(20.0,2583.2,1900.8)" >900</text>
<line x1='2533.5' y1='1944.5' x2='2551.8' y2='1952.4' style="stroke-width:4.0;stroke:rgb(0,0,0);stroke-linecap:round;fill:none;" />
<text x="2558.4" y="1962.3" font-size="18.2px" font-family="CMUBright-Roman" style="text-anchor:start;fill:rgb(0,0,0);" transform="rotate(23.3,2558.4,1962.3)" >950</text>
<line x1='2506.2' y1='2003.1' x2='2524.1' y2='2012.0' style="stroke-width:4.0;stroke:rgb(0,0,0);stroke-linecap:round;fill:none;" />
<text x="2530.2" y="2022.3" font-size="18.2px" font-family="CMUBright-Roman" style="text-anchor:start;fill:rgb(0,0,0);" transform="rotate(26.6,2530.2,2022.3)" >1000</text>
<line x1='2475.7' y1='2060.0' x2='2493.1' y2='2070.0' style="stroke-width:4.0;stroke:rgb(0,0,0);stroke-linecap:round;fill:none;" />
<text x="2498.5" y="2080.6" font-size="18.2px" font-family="CMUBright-Roman" style="text-anchor:start;fill:rgb(0,0,0);" transform="rotate(29.9,2498.5,2080.6)" >1050</text>
<line x1='2442.0' y1='2115.1' x2='2458.7' y2='2126.0' style="stroke-width:4.0;stroke:rgb(0,0,0);stroke-linecap:round;fill:none;" />
<text x="2463.5" y="2136.9" font-size="18.2px" font-family="CMUBright-Roman" style="text-anchor:start;fill:rgb(0,0,0);" transform="rotate(33.1,2463.5,2136.9)" >1100</text>
<line x1='2405.1' y1='2168.1' x2='2421.2' y2='2180.0' style="stroke-width:4.0;stroke:rgb(0,0,0);stroke-linecap:round;fill:none;" />
<text x="2425.4" y="2191.2" font-size="18.2px" font-family="CMUBright-Roman" style="text-anchor:start;fill:rgb(0,0,0);" transform="rotate(36.4,2425.4,2191.2)" >1150</text>
<line x1='2365.3' y1='2219.0' x2='2380.7' y2='2231.7' style="stroke-width:4.0;stroke:rgb(0,0,0);stroke-linecap:round;fill:none;" />
<text x="2384.2" y="2243.1" font-size="18.2px" font-family="CMUBright-Roman" style="text-anchor:start;fill:rgb(0,0,0);" transform="rotate(39.7,2384.2,2243.1)" >1200</text>
<line x1='2322.6' y1='2267.4' x2='2337.2' y2='2281.1' style="stroke-width:4.0;stroke:rgb(0,0,0);stroke-linecap:round;fill:none;" />
<text x="2340.1" y="2292.6" font-size="18.2px" font-family="CMUBright-Roman" style="text-anchor:start;fill:rgb(0,0,0);" transform="rotate(43.0,2340.1,2292.6)" >1250</text>
<line x1='2277.2' y1='2313.4' x2='2291.0' y2='2327.8' style="stroke-width:4.0;stroke:rgb(0,0,0);stroke-linecap:round;fill:none;" />
<text x="2293.2" y="2339.6" font-size="18.2px" font-family="CMUBright-Roman" style="text-anchor:start;fill:rgb(0,0,0);" transform="rotate(46.3,2293.2,2339.6)" >1300</text>
<line x1='2229.2' y1='2356.6' x2='2242.2' y2='2371.9' style="stroke-width:4.0;stroke:rgb(0,0,0);stroke-linecap:round;fill:none;" />
<text x="2243.7" y="2383.7" font-size="18.2px" font-family="CMUBright-Roman" style="text-anchor:start;fill:rgb(0,0,0);" transform="rotate(49.6,2243.7,2383.7)" >1350</text>
<line x1='2178.9' y1='2397.1' x2='2190.9' y2='2413.0' style="stroke-width:4.0;stroke:rgb(0,0,0);stroke-linecap:round;fill:none;" />
<text x="2191.8" y="2424.9" font-size="18.2px" font-family="CMUBright-Roman" style="text-anchor:start;fill:rgb(0,0,0);" transform="rotate(52.9,2191.8,2424.9)" >1400</text>
<line x1='2126.3' y1='2434.6' x2='2137.4' y2='2451.2' style="stroke-width:4.0;stroke:rgb(0,0,0);stroke-linecap:round;fill:none;" />
<text x="2137.6" y="2463.1" font-size="18.2px" font-family="CMUBright-Roman" style="text-anchor:start;fill:rgb(0,0,0);" transform="rotate(56.2,2137.6,2463.1)" >1450</text>
<line x1='2071.6' y1='2469.0' x2='2081.8' y2='2486.2' style="stroke-width:4.0;stroke:rgb(0,0,0);stroke-linecap:round;fill:none;" />
<text x="2081.2" y="2498.1" font-size="18.2px" font-family="CMUBright-Roman" style="text-anchor:start;fill:rgb(0,0,0);" transform="rotate(59.5,2081.2,2498.1)" >1500</text>
<line x1='2015.1' y1='2500.2' x2='2024.2' y2='2518.0' style="stroke-width:4.0;stroke:rgb(0,0,0);stroke-linecap:round;fill:none;" />
<text x="2023.0" y="2529.8" font-size="18.2px" font-family="CMUBright-Roman" style="text-anchor:start;fill:rgb(0,0,0);" transform="rotate(62.8,2023.0,2529.8)" >1550</text>
<line x1='1956.8' y1='2528.1' x2='1964.9' y2='2546.4' style="stroke-width:4.0;stroke:rgb(0,0,0);stroke-linecap:round;fill:none;" />
<text x="1963.0" y="2558.1" font-size="18.2px" font-family="CMUBright-Roman" style="text-anchor:start;fill:rgb(0,0,0);" transform="rotate(66.0,1963.0,2558.1)" >1600</text>
<line x1='1897.1' y1='2552.6' x2='1904.1' y2='2571.3' style="stroke-width:4.0;stroke:rgb(0,0,0);stroke-linecap:round;fill:none;" />
<text x="1901.6" y="2583.0" font-size="18.2px" font-family="CMUBright-Roman" style="text-anchor:start;fill:rgb(0,0,0);" transform="rotate(69.3,1901.6,2583.0)" >1650</text>
<line x1='1836.0' y1='2573.7' x2='1842.0' y2='2592.7' style="stroke-width:4.0;stroke:rgb(0,0,0);stroke-linecap:round;fill:none;" />
<text x="1838.7" y="2604.2" font-size="18.2px" font-family="CMUBright-Roman" style="text-anchor:start;fill:rgb(0,0,0);" transform="rotate(72.6,1838.7,2604.2)" >1700</text>
<line x1='1773.8' y1='2591.2' x2='1778.7' y2='2610.6' style="stroke-width:4.0;stroke:rgb(0,0,0);stroke-linecap:round;fill:none;" />
<text x="1774.8" y="2621.8" font-size="18.2px" font-family="CMUBright-Roman" style="text-anchor:start;fill:rgb(0,0,0);" transform="rotate(75.9,1774.8,2621.8)" >1750</text>
<line x1='1710.7' y1='2605.1' x2='1714.5' y2='2624.7' style="stroke-width:4.0;stroke:rgb(0,0,0);stroke-linecap:round;fill:none;" />
<text x="1710.0" y="2635.8" font-size="18.2px" font-family="CMUBright-Roman" style="text-anchor:start;fill:rgb(0,0,0);" transform="rotate(79.2,1710.0,2635.8)" >1800</text>
<line x1='1647.0' y1='2615.4' x2='1649.6' y2='2635.2' style="stroke-width:4.0;stroke:rgb(0,0,0);stroke-linecap:round;fill:none;" />
<text x="1644.4" y="2645.9" font-size="18.2px" font-family="CMUBright-Roman" style="text-anchor:start;fill:rgb(0,0,0);" transform="rotate(82.5,1644.4,2645.9)" >1850</text>
<line x1='1582.7' y1='2622.0' x2='1584.2' y2='2641.9' style="stroke-width:4.0;stroke:rgb(0,0,0);stroke-linecap:round;fill:none;" />
<text x="1578.4" y="2652.3" font-size="18.2px" font-family="CMUBright-Roman" style="text-anchor:start;fill:rgb(0,0,0);" transform="rotate(85.8,1578.4,2652.3)" >1900</text>
<line x1='1518.2' y1='2624.9' x2='1518.5' y2='2644.9' style="stroke-width:4.0;stroke:rgb(0,0,0);stroke-linecap:round;fill:none;" />
<text x="1512.2" y="2654.9" font-size="18.2px" font-family="CMUBright-Roman" style="text-anchor:start;fill:rgb(0,0,0);" transform="rotate(89.1,1512.2,2654.9)" >1950</text>
<line x1='1453.6' y1='2624.0' x2='1452.8' y2='2644.0' style="stroke-width:4.0;stroke:rgb(0,0,0);stroke-linecap:round;fill:none;" />
<text x="1458.9" y="2654.3" font-size="18.2px" font-family="CMUBright-Roman" style="text-anchor:end;fill:rgb(0,0,0);" transform="rotate(-87.6,1458.9,2654.3)" >2000</text>
<line x1='1389.2' y1='2619.5' x2='1387.2' y2='2639.4' style="stroke-width:4.0;stroke:rgb(0,0,0);stroke-linecap:round;fill:none;" />
<text x="1392.7" y="2650.0" font-size="18.2px" font-family="CMUBright-Roman" style="text-anchor:end;fill:rgb(0,0,0);" transform="rotate(-84.3,1392.7,2650.0)" >2050</text>
<line x1='1325.1' y1='2611.3' x2='1322.0' y2='2631.1' style="stroke-width:4.0;stroke:rgb(0,0,0);stroke-linecap:round;fill:none;" />
<text x="1326.9" y="2642.0" font-size="18.2px" font-family="CMUBright-Roman" style="text-anchor:end;fill:rgb(0,0,0);" transform="rotate(-81.1,1326.9,2642.0)" >2100</text>
<line x1='1261.6' y1='2599.5' x2='1257.4' y2='2619.0' style="stroke-width:4.0;stroke:rgb(0,0,0);stroke-linecap:round;fill:none;" />
<text x="1261.6" y="2630.1" font-size="18.2px" font-family="CMUBright-Roman" style="text-anchor:end;fill:rgb(0,0,0);" transform="rotate(-77.8,1261.6,2630.1)" >2150</text>
<line x1='1198.9' y1='2584.0' x2='1193.6' y2='2603.2' style="stroke-width:4.0;stroke:rgb(0,0,0);stroke-linecap:round;fill:none;" />
<text x="1197.2" y="2614.6" font-size="18.2px" font-family="CMUBright-Roman" style="text-anchor:end;fill:rgb(0,0,0);" transform="rotate(-74.5,1197.2,2614.6)" >2200</text>
<line x1='1137.2' y1='2564.9' x2='1130.8' y2='2583.8' style="stroke-width:4.0;stroke:rgb(0,0,0);stroke-linecap:round;fill:none;" />
<text x="1133.7" y="2595.4" font-size="18.2px" font-family="CMUBright-Roman" style="text-anchor:end;fill:rgb(0,0,0);" transform="rotate(-71.2,1133.7,2595.4)" >2250</text>
<line x1='1076.7' y1='2542.3' x2='1069.2' y2='2560.9' style="stroke-width:4.0;stroke:rgb(0,0,0);stroke-linecap:round;fill:none;" />
<text x="1071.4" y="2572.5" font-size="18.2px" font-family="CMUBright-Roman" style="text-anchor:end;fill:rgb(0,0,0);" transform="rotate(-67.9,1071.4,2572.5)" >2300</text>
<line x1='1017.6' y1='2516.3' x2='1009.0' y2='2534.4' style="stroke-width:4.0;stroke:rgb(0,0,0);stroke-linecap:round;fill:none;" />
<text x="1010.6" y="2546.2" font-size="18.2px" font-family="CMUBright-Roman" style="text-anchor:end;fill:rgb(0,0,0);" transform="rotate(-64.6,1010.6,2546.2)" >2350</text>
<line x1='960.0' y1='2487.0' x2='950.4' y2='2504.5' style="stroke-width:4.0;stroke:rgb(0,0,0);stroke-linecap:round;fill:none;" />
<text x="951.4" y="2516.4" font-size="18.2px" font-family="CMUBright-Roman" style="text-anchor:end;fill:rgb(0,0,0);" transform="rotate(-61.3,951.4,2516.4)" >2400</text>
<line x1='904.3' y1='2454.3' x2='893.7' y2='2471.3' style="stroke-width:4.0;stroke:rgb(0,0,0);stroke-linecap:round;fill:none;" />
<text x="893.9" y="2483.2" font-size="18.2px" font-family="CMUBright-Roman" style="text-anchor:end;fill:rgb(0,0,0);" transform="rotate(-58.0,893.9,2483.2)" >2450</text>
<line x1='850.5' y1='2418.6' x2='839.0' y2='2434.9' style="stroke-width:4.0;stroke:rgb(0,0,0);stroke-linecap:round;fill:none;" />
<text x="838.5" y="2446.8" font-size="18.2px" font-family="CMUBright-Roman" style="text-anchor:end;fill:rgb(0,0,0);" transform="rotate(-54.7,838.5,2446.8)" >2500</text>
<line x1='798.9' y1='2379.8' x2='786.4' y2='2395.4' style="stroke-width:4.0;stroke:rgb(0,0,0);stroke-linecap:round;fill:none;" />
<text x="785.3" y="2407.3" font-size="18.2px" font-family="CMUBright-Roman" style="text-anchor:end;fill:rgb(0,0,0);" transform="rotate(-51.4,785.3,2407.3)" >2550</text>
<line x1='749.5' y1='2338.1' x2='736.2' y2='2353.0' style="stroke-width:4.0;stroke:rgb(0,0,0);stroke-linecap:round;fill:none;" />
<text x="734.4" y="2364.8" font-size="18.2px" font-family="CMUBright-Roman" style="text-anchor:end;fill:rgb(0,0,0);" transform="rotate(-48.2,734.4,2364.8)" >2600</text>
<line x1='702.7' y1='2293.7' x2='688.5' y2='2307.8' style="stroke-width:4.0;stroke:rgb(0,0,0);stroke-linecap:round;fill:none;" />
<text x="686.0" y="2319.4" font-size="18.2px" font-family="CMUBright-Roman" style="text-anchor:end;fill:rgb(0,0,0);" transform="rotate(-44.9,686.0,2319.4)" >2650</text>
<line x1='658.4' y1='2246.6' x2='643.5' y2='2259.9' style="stroke-width:4.0;stroke:rgb(0,0,0);stroke-linecap:round;fill:none;" />
<text x="640.3" y="2271.3" font-size="18.2px" font-family="CMUBright-Roman" style="text-anchor:end;fill:rgb(0,0,0);" transform="rotate(-41.6,640.3,2271.3)" >2700</text>
<line x1='617.0' y1='2197.1' x2='601.3' y2='2209.4' style="stroke-width:4.0;stroke:rgb(0,0,0);stroke-linecap:round;fill:none;" />
<text x="597.5" y="2220.7" font-size="18.2px" font-family="CMUBright-Roman" style="text-anchor:end;fill:rgb(0,0,0);" transform="rotate(-38.3,597.5,2220.7)" >2750</text>
<line x1='578.4' y1='2145.2' x2='562.0' y2='2156.7' style="stroke-width:4.0;stroke:rgb(0,0,0);stroke-linecap:round;fill:none;" />
<text x="557.6" y="2167.8" font-size="18.2px" font-family="CMUBright-Roman" style="text-anchor:end;fill:rgb(0,0,0);" transform="rotate(-35.0,557.6,2167.8)" >2800</text>
<line x1='542.9' y1='2091.3' x2='525.9' y2='2101.8' style="stroke-width:4.0;stroke:rgb(0,0,0);stroke-linecap:round;fill:none;" />
<text x="520.8" y="2112.6" font-size="18.2px" font-family="CMUBright-Roman" style="text-anchor:end;fill:rgb(0,0,0);" transform="rotate(-31.7,520.8,2112.6)" >2850</text>
<line x1='510.6' y1='2035.4' x2='493.0' y2='2044.9' style="stroke-width:4.0;stroke:rgb(0,0,0);stroke-linecap:round;fill:none;" />
<text x="487.3" y="2055.4" font-size="18.2px" font-family="CMUBright-Roman" style="text-anchor:end;fill:rgb(0,0,0);" transform="rotate(-28.4,487.3,2055.4)" >2900</text>
<line x1='481.5' y1='1977.7' x2='463.4' y2='1986.2' style="stroke-width:4.0;stroke:rgb(0,0,0);stroke-linecap:round;fill:none;" />
<text x="457.1" y="1996.3" font-size="18.2px" font-family="CMUBright-Roman" style="text-anchor:end;fill:rgb(0,0,0);" transform="rotate(-25.1,457.1,1996.3)" >2950</text>
<line x1='455.7' y1='1918.5' x2='437.2' y2='1925.9' style="stroke-width:4.0;stroke:rgb(0,0,0);stroke-linecap:round;fill:none;" />
<text x="430.3" y="1935.7" font-size="18.2px" font-family="CMUBright-Roman" style="text-anchor:end;fill:rgb(0,0,0);" transform="rotate(-21.8,430.3,1935.7)" >3000</text>
<line x1='433.4' y1='1857.9' x2='414.5' y2='1864.2' style="stroke-width:4.0;stroke:rgb(0,0,0);stroke-linecap:round;fill:none;" />
<text x="407.1" y="1873.6" font-size="18.2px" font-family="CMUBright-Roman" style="text-anchor:end;fill:rgb(0,0,0);" transform="rotate(-18.5,407.1,1873.6)" >3050</text>
<line x1='414.7' y1='1796.1' x2='395.4' y2='1801.3' style="stroke-width:4.0;stroke:rgb(0,0,0);stroke-linecap:round;fill:none;" />
<text x="387.4" y="1810.2" font-size="18.2px" font-family="CMUBright-Roman" style="text-anchor:end;fill:rgb(0,0,0);" transform="rotate(-15.3,387.4,1810.2)" >3100</text>
<line x1='399.5' y1='1733.3' x2='379.9' y2='1737.4' style="stroke-width:4.0;stroke:rgb(0,0,0);stroke-linecap:round;fill:none;" />
<text x="371.5" y="1745.9" font-size="18.2px" font-family="CMUBright-Roman" style="text-anchor:end;fill:rgb(0,0,0);" transform="rotate(-12.0,371.5,1745.9)" >3150</text>
<line x1='387.9' y1='1669.7' x2='368.1' y2='1672.8' style="stroke-width:4.0;stroke:rgb(0,0,0);stroke-linecap:round;fill:none;" />
<text x="359.2" y="1680.7" font-size="18.2px" font-family="CMUBright-Roman" style="text-anchor:end;fill:rgb(0,0,0);" transform="rotate(-8.7,359.2,1680.7)" >3200</text>
<line x1='380.0' y1='1605.6' x2='360.1' y2='1607.5' style="stroke-width:4.0;stroke:rgb(0,0,0);stroke-linecap:round;fill:none;" />
<text x="350.7" y="1614.9" font-size="18.2px" font-family="CMUBright-Roman" style="text-anchor:end;fill:rgb(0,0,0);" transform="rotate(-5.4,350.7,1614.9)" >3250</text>
<line x1='375.8' y1='1541.2' x2='355.8' y2='1541.9' style="stroke-width:4.0;stroke:rgb(0,0,0);stroke-linecap:round;fill:none;" />
<text x="346.0" y="1548.8" font-size="18.2px" font-family="CMUBright-Roman" style="text-anchor:end;fill:rgb(0,0,0);" transform="rotate(-2.1,346.0,1548.8)" >3300</text>
<line x1='375.2' y1='1476.6' x2='355.2' y2='1476.2' style="stroke-width:4.0;stroke:rgb(0,0,0);stroke-linecap:round;fill:none;" />
<text x="345.1" y="1482.5" font-size="18.2px" font-family="CMUBright-Roman" style="text-anchor:end;fill:rgb(0,0,0);" transform="rotate(1.2,345.1,1482.5)" >3350</text>
<line x1='378.4' y1='1412.1' x2='358.5' y2='1410.5' style="stroke-width:4.0;stroke:rgb(0,0,0);stroke-linecap:round;fill:none;" />
<text x="348.0" y="1416.2" font-size="18.2px" font-family="CMUBright-Roman" style="text-anchor:end;fill:rgb(0,0,0);" transform="rotate(4.5,348.0,1416.2)" >3400</text>
<line x1='385.3' y1='1347.9' x2='365.5' y2='1345.2' style="stroke-width:4.0;stroke:rgb(0,0,0);stroke-linecap:round;fill:none;" />
<text x="354.7" y="1350.2" font-size="18.2px" font-family="CMUBright-Roman" style="text-anchor:end;fill:rgb(0,0,0);" transform="rotate(7.8,354.7,1350.2)" >3450</text>
<line x1='395.9' y1='1284.1' x2='376.3' y2='1280.3' style="stroke-width:4.0;stroke:rgb(0,0,0);stroke-linecap:round;fill:none;" />
<text x="365.2" y="1284.8" font-size="18.2px" font-family="CMUBright-Roman" style="text-anchor:end;fill:rgb(0,0,0);" transform="rotate(11.1,365.2,1284.8)" >3500</text>
<line x1='410.1' y1='1221.1' x2='390.7' y2='1216.2' style="stroke-width:4.0;stroke:rgb(0,0,0);stroke-linecap:round;fill:none;" />
<text x="379.5" y="1220.0" font-size="18.2px" font-family="CMUBright-Roman" style="text-anchor:end;fill:rgb(0,0,0);" transform="rotate(14.4,379.5,1220.0)" >3550</text>
<line x1='427.9' y1='1159.0' x2='408.9' y2='1153.0' style="stroke-width:4.0;stroke:rgb(0,0,0);stroke-linecap:round;fill:none;" />
<text x="397.4" y="1156.2" font-size="18.2px" font-family="CMUBright-Roman" style="text-anchor:end;fill:rgb(0,0,0);" transform="rotate(17.6,397.4,1156.2)" >3600</text>
<line x1='449.2' y1='1098.1' x2='430.6' y2='1090.9' style="stroke-width:4.0;stroke:rgb(0,0,0);stroke-linecap:round;fill:none;" />
<text x="418.9" y="1093.4" font-size="18.2px" font-family="CMUBright-Roman" style="text-anchor:end;fill:rgb(0,0,0);" transform="rotate(20.9,418.9,1093.4)" >3650</text>
<line x1='474.0' y1='1038.4' x2='455.8' y2='1030.2' style="stroke-width:4.0;stroke:rgb(0,0,0);stroke-linecap:round;fill:none;" />
<text x="444.0" y="1032.1" font-size="18.2px" font-family="CMUBright-Roman" style="text-anchor:end;fill:rgb(0,0,0);" transform="rotate(24.2,444.0,1032.1)" >3700</text>
<line x1='502.2' y1='980.3' x2='484.5' y2='971.1' style="stroke-width:4.0;stroke:rgb(0,0,0);stroke-linecap:round;fill:none;" />
<text x="472.6" y="972.2" font-size="18.2px" font-family="CMUBright-Roman" style="text-anchor:end;fill:rgb(0,0,0);" transform="rotate(27.5,472.6,972.2)" >3750</text>
<line x1='533.7' y1='923.9' x2='516.5' y2='913.7' style="stroke-width:4.0;stroke:rgb(0,0,0);stroke-linecap:round;fill:none;" />
<text x="504.6" y="914.1" font-size="18.2px" font-family="CMUBright-Roman" style="text-anchor:end;fill:rgb(0,0,0);" transform="rotate(30.8,504.6,914.1)" >3800</text>
<line x1='568.3' y1='869.4' x2='551.8' y2='858.2' style="stroke-width:4.0;stroke:rgb(0,0,0);stroke-linecap:round;fill:none;" />
<text x="539.9" y="858.0" font-size="18.2px" font-family="CMUBright-Roman" style="text-anchor:end;fill:rgb(0,0,0);" transform="rotate(34.1,539.9,858.0)" >3850</text>
<line x1='606.1' y1='817.0' x2='590.2' y2='804.8' style="stroke-width:4.0;stroke:rgb(0,0,0);stroke-linecap:round;fill:none;" />
<text x="578.3" y="803.9" font-size="18.2px" font-family="CMUBright-Roman" style="text-anchor:end;fill:rgb(0,0,0);" transform="rotate(37.4,578.3,803.9)" >3900</text>
<line x1='646.7' y1='766.8' x2='631.6' y2='753.8' style="stroke-width:4.0;stroke:rgb(0,0,0);stroke-linecap:round;fill:none;" />
<text x="619.8" y="752.2" font-size="18.2px" font-family="CMUBright-Roman" style="text-anchor:end;fill:rgb(0,0,0);" transform="rotate(40.7,619.8,752.2)" >3950</text>
<line x1='690.2' y1='719.0' x2='675.8' y2='705.2' style="stroke-width:4.0;stroke:rgb(0,0,0);stroke-linecap:round;fill:none;" />
<text x="664.1" y="702.9" font-size="18.2px" font-family="CMUBright-Roman" style="text-anchor:end;fill:rgb(0,0,0);" transform="rotate(44.0,664.1,702.9)" >4000</text>
<line x1='736.4' y1='673.9' x2='722.8' y2='659.2' style="stroke-width:4.0;stroke:rgb(0,0,0);stroke-linecap:round;fill:none;" />
<text x="711.3" y="656.3" font-size="18.2px" font-family="CMUBright-Roman" style="text-anchor:end;fill:rgb(0,0,0);" transform="rotate(47.3,711.3,656.3)" >4050</text>
<line x1='785.0' y1='631.4' x2='772.3' y2='616.0' style="stroke-width:4.0;stroke:rgb(0,0,0);stroke-linecap:round;fill:none;" />
<text x="761.0" y="612.4" font-size="18.2px" font-family="CMUBright-Roman" style="text-anchor:end;fill:rgb(0,0,0);" transform="rotate(50.5,761.0,612.4)" >4100</text>
<line x1='836.1' y1='591.8' x2='824.3' y2='575.7' style="stroke-width:4.0;stroke:rgb(0,0,0);stroke-linecap:round;fill:none;" />
<text x="813.1" y="571.4" font-size="18.2px" font-family="CMUBright-Roman" style="text-anchor:end;fill:rgb(0,0,0);" transform="rotate(53.8,813.1,571.4)" >4150</text>
<line x1='889.3' y1='555.2' x2='878.4' y2='538.4' style="stroke-width:4.0;stroke:rgb(0,0,0);stroke-linecap:round;fill:none;" />
<text x="867.6" y="533.5" font-size="18.2px" font-family="CMUBright-Roman" style="text-anchor:end;fill:rgb(0,0,0);" transform="rotate(57.1,867.6,533.5)" >4200</text>
<line x1='944.5' y1='521.7' x2='934.6' y2='504.3' style="stroke-width:4.0;stroke:rgb(0,0,0);stroke-linecap:round;fill:none;" />
<text x="924.1" y="498.8" font-size="18.2px" font-family="CMUBright-Roman" style="text-anchor:end;fill:rgb(0,0,0);" transform="rotate(60.4,924.1,498.8)" >4250</text>
<line x1='1001.6' y1='491.4' x2='992.7' y2='473.5' style="stroke-width:4.0;stroke:rgb(0,0,0);stroke-linecap:round;fill:none;" />
<text x="982.5" y="467.4" font-size="18.2px" font-family="CMUBright-Roman" style="text-anchor:end;fill:rgb(0,0,0);" transform="rotate(63.7,982.5,467.4)" >4300</text>
<line x1='1060.3' y1='464.5' x2='1052.5' y2='446.1' style="stroke-width:4.0;stroke:rgb(0,0,0);stroke-linecap:round;fill:none;" />
<text x="1042.6" y="439.4" font-size="18.2px" font-family="CMUBright-Roman" style="text-anchor:end;fill:rgb(0,0,0);" transform="rotate(67.0,1042.6,439.4)" >4350</text>
<line x1='1120.4' y1='441.0' x2='1113.7' y2='422.1' style="stroke-width:4.0;stroke:rgb(0,0,0);stroke-linecap:round;fill:none;" />
<text x="1104.2" y="414.9" font-size="18.2px" font-family="CMUBright-Roman" style="text-anchor:end;fill:rgb(0,0,0);" transform="rotate(70.3,1104.2,414.9)" >4400</text>
<line x1='1181.8' y1='420.9' x2='1176.2' y2='401.7' style="stroke-width:4.0;stroke:rgb(0,0,0);stroke-linecap:round;fill:none;" />
<text x="1167.1" y="394.0" font-size="18.2px" font-family="CMUBright-Roman" style="text-anchor:end;fill:rgb(0,0,0);" transform="rotate(73.6,1167.1,394.0)" >4450</text>
<line x1='1244.3' y1='404.4' x2='1239.7' y2='385.0' style="stroke-width:4.0;stroke:rgb(0,0,0);stroke-linecap:round;fill:none;" />
<text x="1231.1" y="376.7" font-size="18.2px" font-family="CMUBright-Roman" style="text-anchor:end;fill:rgb(0,0,0);" transform="rotate(76.9,1231.1,376.7)" >4500</text>
<line x1='1307.6' y1='391.6' x2='1304.2' y2='371.9' style="stroke-width:4.0;stroke:rgb(0,0,0);stroke-linecap:round;fill:none;" />
<text x="1296.1" y="363.1" font-size="18.2px" font-family="CMUBright-Roman" style="text-anchor:end;fill:rgb(0,0,0);" transform="rotate(80.2,1296.1,363.1)" >4550</text>
<line x1='1371.5' y1='382.4' x2='1369.2' y2='362.5' style="stroke-width:4.0;stroke:rgb(0,0,0);stroke-linecap:round;fill:none;" />
<text x="1361.6" y="353.3" font-size="18.2px" font-family="CMUBright-Roman" style="text-anchor:end;fill:rgb(0,0,0);" transform="rotate(83.4,1361.6,353.3)" >4600</text>
<g id="highlighttrack_0">
<path d="M1388.369,430.812 A1075.000,1075.000 40.000 0,1 1392.275,430.411 L1387.264,380.663 A1125.000,1125.000 0.000 0,0 1383.177,381.082 Z" style="stroke-width:4.0;stroke:rgb(0,0,0);stroke-linecap:round;fill:rgb(116,196,118);" />
<path d="M1098.774,502.682 A1075.000,1075.000 40.000 0,1 1102.576,501.161 L1084.092,454.703 A1125.000,1125.000 0.000 0,0 1080.113,456.295 Z" style="stroke-width:4.0;stroke:rgb(0,0,0);stroke-linecap:round;fill:rgb(116,196,118);" />
<path d="M2365.098,861.854 A1075.000,1075.000 40.000 0,1 2367.423,865.018 L2407.768,835.483 A1125.000,1125.000 0.000 0,0 2405.335,832.173 Z" style="stroke-width:4.0;stroke:rgb(0,0,0);stroke-linecap:round;fill:rgb(251,106,74);" />
<path d="M2444.382,986.417 A1075.000,1075.000 40.000 0,1 2446.249,989.866 L2490.261,966.139 A1125.000,1125.000 0.000 0,0 2488.307,962.529 Z" style="stroke-width:4.0;stroke:rgb(0,0,0);stroke-linecap:round;fill:rgb(251,106,74);" />
<path d="M2453.886,1004.292 A1075.000,1075.000 40.000 0,1 2455.686,1007.770 L2500.136,984.876 A1125.000,1125.000 0.000 0,0 2498.253,981.236 Z" style="stroke-width:4.0;stroke:rgb(0,0,0);stroke-linecap:round;fill:rgb(251,106,74);" />
<path d="M579.246,945.169 A1075.000,1075.000 40.000 0,1 581.278,941.811 L538.547,915.849 A1125.000,1125.000 0.000 0,0 536.420,919.363 Z" style="stroke-width:4.0;stroke:rgb(0,0,0);stroke-linecap:round;fill:rgb(116,196,118);" />
<path d="M1696.800,2556.832 A1075.000,1075.000 40.000 0,1 1692.770,2557.575 L1701.736,2606.764 A1125.000,1125.000 0.000 0,0 1705.953,2605.987 Z" style="stroke-width:4.0;stroke:rgb(0,0,0);stroke-linecap:round;fill:rgb(251,106,74);" />
<path d="M485.601,1144.163 A1075.000,1075.000 40.000 0,1 486.965,1140.299 L439.847,1123.569 A1125.000,1125.000 0.000 0,0 438.420,1127.613 Z" style="stroke-width:4.0;stroke:rgb(0,0,0);stroke-linecap:round;fill:rgb(116,196,118);" />
<path d="M1197.157,468.539 A1075.000,1075.000 40.000 0,1 1200.992,467.421 L1187.084,419.394 A1125.000,1125.000 0.000 0,0 1183.072,420.564 Z" style="stroke-width:4.0;stroke:rgb(0,0,0);stroke-linecap:round;fill:rgb(116,196,118);" />
<path d="M838.604,652.545 A1075.000,1075.000 40.000 0,1 840.876,650.777 L810.219,611.278 A1125.000,1125.000 0.000 0,0 807.841,613.128 Z" style="stroke-width:4.0;stroke:rgb(0,0,0);stroke-linecap:round;fill:rgb(116,196,118);" />
<path d="M676.556,2191.061 A1075.000,1075.000 40.000 0,1 674.708,2188.853 L636.323,2220.893 A1125.000,1125.000 0.000 0,0 638.256,2223.203 Z" style="stroke-width:4.0;stroke:rgb(0,0,0);stroke-linecap:round;fill:rgb(116,196,118);" />
<path d="M2445.694,2011.163 A1075.000,1075.000 40.000 0,1 2444.356,2013.631 L2488.279,2037.521 A1125.000,1125.000 0.000 0,0 2489.680,2034.938 Z" style="stroke-width:4.0;stroke:rgb(0,0,0);stroke-linecap:round;fill:rgb(116,196,118);" />
<path d="M2447.743,2007.355 A1075.000,1075.000 40.000 0,1 2446.412,2009.833 L2490.431,2033.546 A1125.000,1125.000 0.000 0,0 2491.824,2030.952 Z" style="stroke-width:4.0;stroke:rgb(0,0,0);stroke-linecap:round;fill:rgb(116,196,118);" />
<path d="M1167.961,477.564 A1075.000,1075.000 40.000 0,1 1176.444,474.848 L1161.395,427.166 A1125.000,1125.000 0.000 0,0 1152.518,430.009 Z" style="stroke-width:4.0;stroke:rgb(0,0,0);stroke-linecap:round;fill:rgb(116,196,118);" />
</g>
</g>
<g id="track_0">
<path d="M 1102.787,512.655 A 1064.250,1064.250 0.00 0,1 1106.6,511.1 L 1106.6,511.1 1133.8,579.1 1159.3,641.8 1183.1,699.5 1205.4,752.4 1226.2,800.9 1245.6,845.0 1263.7,885.0 1280.5,921.1 1296.2,953.5 1310.7,982.3 1324.1,1007.7 1336.5,1029.8 1348.0,1048.7 1358.6,1064.5 1368.3,1077.3 1377.1,1087.2 1385.2,1094.2 1392.5,1098.4 1399.1,1099.8 1405.0,1098.3 1410.3,1094.1 1414.8,1087.0 1418.8,1077.0 1422.1,1064.2 1424.8,1048.3 1426.9,1029.4 1428.3,1007.4 1429.2,982.0 1429.4,953.3 1429.0,921.1 1427.9,885.1 1426.2,845.3 1423.8,801.5 1420.7,753.4 1416.8,700.8 1412.2,643.5 1406.8,581.4 1400.5,514.0 1393.4,441.1  A 1064.250,1064.250 0.00 0,0 1389.5,441.5 L 1389.5,441.5 1396.9,514.3 1403.4,581.7 1409.1,643.9 1413.9,701.1 1418.0,753.7 1421.3,801.7 1423.8,845.6 1425.7,885.4 1426.9,921.3 1427.4,953.6 1427.3,982.3 1426.5,1007.6 1425.1,1029.7 1423.1,1048.6 1420.5,1064.5 1417.2,1077.4 1413.3,1087.3 1408.8,1094.4 1403.5,1098.7 1397.6,1100.2 1391.0,1098.8 1383.7,1094.7 1375.6,1087.7 1366.7,1077.8 1356.9,1065.1 1346.3,1049.3 1334.8,1030.4 1322.2,1008.4 1308.7,983.0 1294.1,954.3 1278.3,922.0 1261.4,885.9 1243.1,845.9 1223.6,801.9 1202.6,753.6 1180.1,700.7 1156.0,643.1 1130.3,580.5 1102.8,512.7  Z" style="stroke-width: 2.0;  stroke: rgb(82,82,82); fill: rgb(251,106,74); opacity: 0.667;" />
<path d="M 2280.451,776.451 A 1064.250,1064.250 0.00 0,1 2282.9,779.1 L 2282.9,779.1 2228.6,828.4 2177.4,873.3 2129.2,914.0 2083.9,950.9 2041.2,984.1 2001.0,1013.8 1963.1,1040.2 1927.5,1063.4 1893.9,1083.7 1862.3,1101.1 1832.5,1115.7 1804.4,1127.7 1777.8,1137.2 1752.7,1144.2 1729.0,1148.8 1706.5,1151.1 1685.2,1151.1 1665.0,1148.7 1645.7,1144.1 1627.4,1137.1 1609.9,1127.8 1593.2,1116.1 1577.3,1102.0 1562.0,1085.4 1547.3,1066.2 1533.2,1044.3 1519.6,1019.5 1506.6,991.9 1494.0,961.1 1481.9,927.1 1470.3,889.7 1459.1,848.7 1448.3,803.8 1438.0,754.9 1428.1,701.7 1418.6,644.1 1409.7,581.6 1401.3,514.0 1393.4,441.1  A 1064.250,1064.250 0.00 0,0 1389.5,441.5 L 1389.5,441.5 1397.7,514.4 1406.3,581.9 1415.5,644.4 1425.2,702.0 1435.2,755.1 1445.8,804.0 1456.7,848.8 1468.1,889.8 1479.8,927.2 1492.1,961.2 1504.8,991.9 1517.9,1019.5 1531.6,1044.2 1545.7,1066.0 1560.5,1085.2 1575.9,1101.8 1591.9,1115.8 1608.6,1127.4 1626.1,1136.7 1644.5,1143.6 1663.7,1148.2 1684.0,1150.4 1705.3,1150.4 1727.8,1148.1 1751.5,1143.4 1776.5,1136.3 1803.1,1126.7 1831.2,1114.6 1860.9,1099.8 1892.5,1082.3 1926.0,1062.0 1961.6,1038.6 1999.3,1012.1 2039.4,982.3 2082.0,948.9 2127.2,911.9 2175.3,871.0 2226.3,825.9 2280.5,776.5  Z" style="stroke-width: 2.0;  stroke: rgb(82,82,82); fill: rgb(116,196,118); opacity: 0.667;" />
<path d="M 2280.451,776.451 A 1064.250,1064.250 0.00 0,1 2282.9,779.1 L 2282.9,779.1 2228.4,828.3 2176.7,873.1 2127.8,913.7 2081.3,950.3 2037.2,983.3 1995.4,1012.8 1955.6,1039.0 1917.7,1062.1 1881.7,1082.2 1847.3,1099.6 1814.5,1114.3 1783.1,1126.5 1753.0,1136.3 1724.0,1143.8 1696.1,1149.0 1669.1,1152.0 1643.0,1152.9 1617.6,1151.6 1592.9,1148.2 1568.7,1142.7 1544.9,1135.0 1521.4,1125.2 1498.3,1113.1 1475.3,1098.7 1452.4,1081.9 1429.5,1062.6 1406.6,1040.8 1383.5,1016.2 1360.3,988.7 1336.9,958.1 1313.1,924.3 1289.0,887.1 1264.5,846.3 1239.5,801.6 1214.1,752.8 1188.1,699.6 1161.5,641.8 1134.4,579.1 1106.6,511.1  A 1064.250,1064.250 0.00 0,0 1102.8,512.7 L 1102.8,512.7 1130.8,580.5 1158.3,643.1 1185.0,700.8 1211.2,753.9 1236.9,802.6 1262.0,847.2 1286.7,888.0 1310.9,925.1 1334.8,958.8 1358.4,989.2 1381.7,1016.6 1404.9,1041.1 1427.9,1062.9 1450.8,1082.1 1473.8,1098.8 1496.8,1113.1 1520.1,1125.1 1543.5,1134.9 1567.4,1142.5 1591.6,1147.9 1616.4,1151.2 1641.8,1152.4 1667.9,1151.4 1694.9,1148.3 1722.8,1143.0 1751.7,1135.5 1781.8,1125.6 1813.2,1113.3 1846.0,1098.4 1880.3,1080.9 1916.2,1060.7 1954.0,1037.4 1993.7,1011.1 2035.5,981.5 2079.4,948.4 2125.8,911.6 2174.6,870.8 2226.1,825.9 2280.5,776.5  Z" style="stroke-width: 2.0;  stroke: rgb(82,82,82); fill: rgb(107,174,214); opacity: 0.667;" />
<path d="M 2356.447,868.235 A 1064.250,1064.250 0.00 0,1 2358.7,871.4 L 2358.7,871.4 2299.2,914.2 2243.1,953.0 2190.4,988.0 2140.7,1019.4 2094.0,1047.4 2050.1,1072.2 2008.8,1094.0 1969.9,1112.9 1933.3,1129.0 1898.8,1142.6 1866.4,1153.6 1835.7,1162.2 1806.8,1168.5 1779.5,1172.6 1753.7,1174.4 1729.3,1174.1 1706.1,1171.7 1684.2,1167.1 1663.3,1160.4 1643.4,1151.5 1624.4,1140.5 1606.3,1127.2 1589.0,1111.6 1572.5,1093.7 1556.6,1073.2 1541.4,1050.2 1526.7,1024.5 1512.7,996.0 1499.2,964.4 1486.2,929.8 1473.7,891.7 1461.8,850.2 1450.3,804.9 1439.4,755.7 1429.0,702.2 1419.2,644.3 1409.9,581.7 1401.3,514.0 1393.4,441.1  A 1064.250,1064.250 0.00 0,0 1389.5,441.5 L 1389.5,441.5 1397.7,514.4 1406.6,582.0 1416.1,644.6 1426.1,702.5 1436.7,755.9 1447.8,805.1 1459.4,850.3 1471.5,891.8 1484.1,929.8 1497.2,964.4 1510.8,995.9 1525.0,1024.4 1539.7,1050.1 1555.0,1073.0 1571.0,1093.4 1587.6,1111.3 1605.0,1126.8 1623.1,1140.0 1642.1,1151.0 1662.0,1159.8 1682.9,1166.4 1704.9,1170.9 1728.1,1173.3 1752.5,1173.5 1778.3,1171.6 1805.6,1167.4 1834.5,1161.0 1865.1,1152.3 1897.5,1141.1 1931.9,1127.5 1968.5,1111.2 2007.3,1092.1 2048.6,1070.2 2092.4,1045.3 2139.0,1017.1 2188.5,985.5 2241.1,950.3 2297.0,911.3 2356.4,868.2  Z" style="stroke-width: 2.0;  stroke: rgb(82,82,82); fill: rgb(253,141,60); opacity: 0.667;" />
<path d="M 2356.447,868.235 A 1064.250,1064.250 0.00 0,1 2358.7,871.4 L 2358.7,871.4 2299.0,914.2 2242.5,952.8 2188.9,987.6 2138.2,1018.7 2090.2,1046.4 2044.6,1071.0 2001.4,1092.5 1960.3,1111.1 1921.2,1127.1 1884.0,1140.6 1848.6,1151.6 1814.7,1160.4 1782.2,1166.9 1751.1,1171.4 1721.1,1173.8 1692.2,1174.2 1664.3,1172.6 1637.1,1169.1 1610.7,1163.6 1584.9,1156.2 1559.7,1146.8 1534.8,1135.4 1510.3,1121.8 1486.0,1106.1 1461.9,1088.2 1437.9,1067.9 1413.9,1045.1 1389.8,1019.7 1365.6,991.5 1341.3,960.3 1316.7,926.0 1291.8,888.4 1266.6,847.2 1241.0,802.2 1215.1,753.2 1188.7,699.8 1161.8,641.9 1134.4,579.1 1106.6,511.1  A 1064.250,1064.250 0.00 0,0 1102.8,512.7 L 1102.8,512.7 1130.9,580.5 1158.5,643.2 1185.6,701.0 1212.2,754.3 1238.4,803.2 1264.1,848.1 1289.5,889.2 1314.5,926.7 1339.2,960.9 1363.7,992.0 1388.0,1020.1 1412.2,1045.4 1436.3,1068.1 1460.4,1088.4 1484.5,1106.2 1508.9,1121.8 1533.5,1135.2 1558.3,1146.6 1583.7,1155.9 1609.5,1163.2 1635.9,1168.6 1663.0,1172.0 1691.0,1173.5 1719.9,1173.0 1749.9,1170.5 1781.0,1165.9 1813.4,1159.2 1847.3,1150.4 1882.7,1139.2 1919.9,1125.6 1958.9,1109.5 1999.9,1090.6 2043.0,1069.0 2088.5,1044.3 2136.5,1016.4 2187.1,985.1 2240.5,950.1 2296.9,911.2 2356.4,868.2  Z" style="stroke-width: 2.0;  stroke: rgb(82,82,82); fill: rgb(255,0,0); opacity: 0.667;" />
<path d="M 2356.447,868.235 A 1064.250,1064.250 0.00 0,1 2358.7,871.4 L 2358.7,871.4 2299.6,914.5 2244.9,954.3 2194.4,990.9 2147.9,1024.4 2105.1,1055.0 2065.9,1082.8 2030.2,1108.0 1997.7,1130.6 1968.3,1150.8 1941.9,1168.7 1918.3,1184.4 1897.5,1198.0 1879.3,1209.4 1863.7,1218.9 1850.5,1226.3 1839.8,1231.9 1831.4,1235.6 1825.3,1237.4 1821.5,1237.3 1819.9,1235.4 1820.6,1231.7 1823.5,1226.0 1828.8,1218.5 1836.3,1209.0 1846.2,1197.5 1858.5,1184.0 1873.2,1168.4 1890.6,1150.6 1910.5,1130.5 1933.2,1108.1 1958.7,1083.2 1987.2,1055.7 2018.8,1025.5 2053.7,992.4 2091.9,956.4 2133.8,917.2 2179.5,874.7 2229.1,828.7 2282.9,779.1  A 1064.250,1064.250 0.00 0,0 2280.5,776.5 L 2280.5,776.5 2226.8,826.3 2177.4,872.4 2131.8,915.1 2090.1,954.4 2051.9,990.6 2017.2,1023.7 1985.7,1054.0 1957.3,1081.6 1931.8,1106.6 1909.2,1129.1 1889.4,1149.3 1872.1,1167.1 1857.4,1182.8 1845.2,1196.4 1835.3,1207.9 1827.8,1217.4 1822.6,1224.9 1819.6,1230.6 1819.0,1234.3 1820.5,1236.2 1824.3,1236.2 1830.4,1234.4 1838.8,1230.7 1849.6,1225.1 1862.7,1217.6 1878.3,1208.0 1896.4,1196.5 1917.2,1182.9 1940.7,1167.1 1967.0,1149.1 1996.3,1128.8 2028.7,1106.0 2064.4,1080.8 2103.5,1052.8 2146.1,1022.1 2192.5,988.4 2242.9,951.6 2297.5,911.6 2356.4,868.2  Z" style="stroke-width: 2.0;  stroke: rgb(82,82,82); fill: rgb(255,0,204); opacity: 0.667;" />
<path d="M 2434.938,991.553 A 1064.250,1064.250 0.00 0,1 2436.8,995.0 L 2436.8,995.0 2371.8,1029.2 2310.8,1059.8 2253.3,1087.1 2199.4,1111.2 2148.6,1132.3 2101.0,1150.5 2056.1,1166.1 2014.0,1179.2 1974.3,1189.9 1937.0,1198.3 1901.9,1204.5 1868.7,1208.6 1837.5,1210.6 1808.0,1210.7 1780.1,1208.8 1753.7,1205.1 1728.7,1199.4 1704.9,1191.9 1682.3,1182.4 1660.9,1171.0 1640.4,1157.6 1620.8,1142.2 1602.1,1124.6 1584.2,1104.9 1567.0,1082.8 1550.6,1058.3 1534.8,1031.3 1519.6,1001.6 1505.0,969.0 1491.1,933.4 1477.7,894.5 1464.9,852.3 1452.7,806.4 1441.1,756.7 1430.1,702.9 1419.8,644.7 1410.2,581.8 1401.4,514.1 1393.4,441.1  A 1064.250,1064.250 0.00 0,0 1389.5,441.5 L 1389.5,441.5 1397.8,514.5 1406.9,582.2 1416.7,645.0 1427.2,703.1 1438.4,756.9 1450.1,806.6 1462.5,852.4 1475.5,894.6 1489.0,933.4 1503.1,969.0 1517.8,1001.5 1533.1,1031.2 1549.0,1058.1 1565.5,1082.6 1582.8,1104.6 1600.7,1124.3 1619.5,1141.7 1639.1,1157.1 1659.7,1170.4 1681.2,1181.7 1703.8,1191.1 1727.6,1198.6 1752.6,1204.2 1779.0,1207.8 1806.9,1209.6 1836.4,1209.4 1867.7,1207.2 1900.8,1203.0 1935.9,1196.7 1973.2,1188.2 2012.8,1177.3 2054.9,1164.1 2099.7,1148.4 2147.3,1129.9 2198.0,1108.6 2251.8,1084.4 2309.2,1056.9 2370.1,1026.0 2434.9,991.6  Z" style="stroke-width: 2.0;  stroke: rgb(82,82,82); fill: rgb(255,204,204); opacity: 0.667;" />
<path d="M 2434.938,991.553 A 1064.250,1064.250 0.00 0,1 2436.8,995.0 L 2436.8,995.0 2371.7,1029.1 2310.1,1059.6 2252.0,1086.6 2196.9,1110.4 2144.9,1131.1 2095.6,1149.0 2048.9,1164.2 2004.6,1177.0 1962.5,1187.4 1922.5,1195.7 1884.4,1201.8 1848.0,1205.9 1813.2,1208.2 1779.9,1208.6 1747.9,1207.2 1717.0,1204.1 1687.2,1199.3 1658.3,1192.8 1630.2,1184.6 1602.8,1174.6 1576.0,1162.9 1549.7,1149.3 1523.8,1133.8 1498.1,1116.4 1472.7,1096.9 1447.4,1075.1 1422.2,1051.1 1397.0,1024.5 1371.8,995.4 1346.4,963.4 1320.8,928.3 1295.1,890.1 1269.1,848.4 1242.8,803.0 1216.2,753.7 1189.3,700.1 1162.1,642.0 1134.5,579.2 1106.6,511.1  A 1064.250,1064.250 0.00 0,0 1102.8,512.7 L 1102.8,512.7 1131.0,580.6 1158.8,643.3 1186.3,701.3 1213.4,754.8 1240.2,804.0 1266.6,849.3 1292.8,890.9 1318.7,929.0 1344.3,963.9 1369.8,995.9 1395.2,1024.9 1420.5,1051.4 1445.8,1075.4 1471.2,1097.0 1496.7,1116.4 1522.4,1133.8 1548.4,1149.1 1574.8,1162.6 1601.6,1174.2 1629.1,1184.1 1657.2,1192.2 1686.1,1198.6 1715.9,1203.3 1746.8,1206.3 1778.8,1207.6 1812.1,1207.0 1846.9,1204.7 1883.3,1200.4 1921.4,1194.1 1961.3,1185.7 2003.4,1175.2 2047.6,1162.2 2094.3,1146.8 2143.5,1128.7 2195.5,1107.8 2250.4,1083.8 2308.5,1056.6 2370.0,1026.0 2434.9,991.6  Z" style="stroke-width: 2.0;  stroke: rgb(82,82,82); fill: rgb(255,153,0); opacity: 0.667;" />
<path d="M 2434.938,991.553 A 1064.250,1064.250 0.00 0,1 2436.8,995.0 L 2436.8,995.0 2372.3,1029.6 2312.5,1061.3 2257.2,1090.2 2206.2,1116.6 2159.2,1140.4 2116.1,1161.9 2076.7,1181.1 2040.7,1198.2 2008.1,1213.2 1978.7,1226.2 1952.3,1237.2 1928.8,1246.4 1908.1,1253.8 1890.1,1259.5 1874.7,1263.4 1861.9,1265.6 1851.6,1266.2 1843.6,1265.1 1838.1,1262.3 1834.9,1257.9 1834.1,1251.7 1835.7,1243.9 1839.6,1234.3 1845.9,1222.9 1854.6,1209.6 1865.8,1194.5 1879.5,1177.3 1895.9,1158.1 1915.0,1136.8 1936.8,1113.2 1961.6,1087.2 1989.5,1058.8 2020.5,1027.8 2054.9,994.1 2092.7,957.4 2134.3,917.8 2179.7,875.0 2229.1,828.8 2282.9,779.1  A 1064.250,1064.250 0.00 0,0 2280.5,776.5 L 2280.5,776.5 2226.9,826.3 2177.6,872.7 2132.3,915.7 2090.9,955.4 2053.1,992.2 2018.9,1026.0 1988.0,1057.2 1960.2,1085.7 1935.5,1111.7 1913.7,1135.4 1894.7,1156.8 1878.4,1176.0 1864.7,1193.2 1853.6,1208.4 1844.9,1221.7 1838.6,1233.1 1834.8,1242.7 1833.3,1250.6 1834.1,1256.7 1837.3,1261.1 1842.8,1263.9 1850.7,1264.9 1861.1,1264.3 1873.9,1262.1 1889.3,1258.1 1907.2,1252.4 1927.9,1244.9 1951.3,1235.6 1977.7,1224.4 2007.1,1211.3 2039.6,1196.2 2075.5,1179.0 2114.9,1159.7 2157.9,1138.0 2204.8,1114.0 2255.7,1087.5 2310.9,1058.3 2370.5,1026.4 2434.9,991.6  Z" style="stroke-width: 2.0;  stroke: rgb(82,82,82); fill: rgb(255,204,0); opacity: 0.667;" />
<path d="M 2434.938,991.553 A 1064.250,1064.250 0.00 0,1 2436.8,995.0 L 2436.8,995.0 2372.3,1029.6 2312.6,1061.5 2257.5,1090.7 2206.8,1117.5 2160.2,1141.8 2117.5,1163.8 2078.5,1183.7 2043.1,1201.5 2011.1,1217.3 1982.3,1231.2 1956.7,1243.3 1934.1,1253.6 1914.3,1262.2 1897.3,1269.1 1883.0,1274.4 1871.4,1278.1 1862.3,1280.2 1855.7,1280.8 1851.6,1279.8 1850.0,1277.2 1850.9,1273.1 1854.2,1267.4 1860.0,1260.1 1868.4,1251.2 1879.3,1240.6 1892.8,1228.2 1909.1,1214.0 1928.1,1198.0 1950.0,1180.1 1975.0,1160.1 2003.0,1138.0 2034.3,1113.7 2069.0,1087.1 2107.2,1058.0 2149.3,1026.3 2195.2,992.0 2245.3,954.8 2299.7,914.7 2358.7,871.4  A 1064.250,1064.250 0.00 0,0 2356.4,868.2 L 2356.4,868.2 2297.6,911.8 2243.3,952.1 2193.3,989.5 2147.5,1024.0 2105.6,1055.8 2067.5,1085.0 2032.9,1111.7 2001.7,1136.2 1973.7,1158.4 1948.9,1178.4 1927.0,1196.5 1908.0,1212.6 1891.8,1226.8 1878.3,1239.2 1867.5,1249.8 1859.1,1258.8 1853.3,1266.1 1850.0,1271.8 1849.2,1276.0 1850.8,1278.5 1854.9,1279.5 1861.5,1278.9 1870.5,1276.7 1882.2,1273.0 1896.5,1267.7 1913.4,1260.7 1933.2,1252.0 1955.8,1241.6 1981.4,1229.5 2010.1,1215.5 2042.0,1199.5 2077.3,1181.6 2116.2,1161.6 2158.9,1139.4 2205.4,1114.9 2256.0,1088.0 2311.0,1058.5 2370.6,1026.5 2434.9,991.6  Z" style="stroke-width: 2.0;  stroke: rgb(82,82,82); fill: rgb(255,255,0); opacity: 0.667;" />
<path d="M 2444.347,1009.249 A 1064.250,1064.250 0.00 0,1 2446.1,1012.7 L 2446.1,1012.7 2380.5,1045.7 2318.9,1075.2 2260.9,1101.3 2206.4,1124.4 2155.2,1144.4 2107.1,1161.8 2061.8,1176.5 2019.3,1188.7 1979.3,1198.6 1941.6,1206.3 1906.2,1211.8 1872.8,1215.2 1841.2,1216.7 1811.5,1216.2 1783.3,1213.8 1756.7,1209.5 1731.5,1203.4 1707.5,1195.4 1684.7,1185.6 1663.1,1173.8 1642.4,1160.1 1622.6,1144.3 1603.8,1126.5 1585.7,1106.5 1568.4,1084.2 1551.8,1059.5 1535.8,1032.3 1520.5,1002.4 1505.8,969.6 1491.7,933.9 1478.2,894.9 1465.3,852.6 1453.0,806.6 1441.3,756.9 1430.3,703.0 1419.9,644.7 1410.3,581.9 1401.4,514.1 1393.4,441.1  A 1064.250,1064.250 0.00 0,0 1389.5,441.5 L 1389.5,441.5 1397.8,514.5 1406.9,582.2 1416.8,645.0 1427.4,703.2 1438.6,757.1 1450.5,806.8 1462.9,852.7 1476.0,895.0 1489.6,933.9 1503.9,969.6 1518.7,1002.3 1534.1,1032.1 1550.1,1059.3 1566.9,1083.9 1584.3,1106.2 1602.4,1126.1 1621.3,1143.9 1641.1,1159.6 1661.9,1173.2 1683.6,1184.9 1706.4,1194.7 1730.4,1202.6 1755.6,1208.6 1782.3,1212.8 1810.4,1215.0 1840.2,1215.4 1871.7,1213.9 1905.1,1210.3 1940.6,1204.7 1978.2,1196.9 2018.2,1186.8 2060.7,1174.4 2105.8,1159.6 2153.9,1142.1 2205.0,1121.8 2259.4,1098.5 2317.3,1072.2 2378.9,1042.5 2444.3,1009.2  Z" style="stroke-width: 2.0;  stroke: rgb(82,82,82); fill: rgb(204,255,0); opacity: 0.667;" />
<path d="M 2444.347,1009.249 A 1064.250,1064.250 0.00 0,1 2446.1,1012.7 L 2446.1,1012.7 2380.4,1045.6 2318.2,1074.9 2259.5,1100.8 2204.0,1123.5 2151.4,1143.2 2101.7,1160.2 2054.6,1174.5 2009.9,1186.5 1967.5,1196.1 1927.1,1203.6 1888.7,1209.0 1852.1,1212.5 1817.0,1214.1 1783.4,1213.9 1751.2,1212.0 1720.1,1208.4 1690.1,1203.2 1661.0,1196.2 1632.7,1187.6 1605.1,1177.3 1578.1,1165.2 1551.6,1151.3 1525.5,1135.6 1499.7,1117.9 1474.1,1098.1 1448.7,1076.2 1423.3,1052.0 1398.0,1025.3 1372.6,995.9 1347.1,963.8 1321.4,928.7 1295.5,890.3 1269.4,848.6 1243.1,803.1 1216.4,753.7 1189.4,700.1 1162.1,642.1 1134.5,579.2 1106.6,511.1  A 1064.250,1064.250 0.00 0,0 1102.8,512.7 L 1102.8,512.7 1131.0,580.6 1158.9,643.4 1186.4,701.3 1213.6,754.8 1240.4,804.1 1266.9,849.5 1293.2,891.1 1319.2,929.4 1345.0,964.4 1370.7,996.4 1396.2,1025.7 1421.6,1052.3 1447.1,1076.4 1472.6,1098.2 1498.3,1117.9 1524.1,1135.5 1550.3,1151.2 1576.9,1164.9 1603.9,1176.9 1631.5,1187.1 1659.8,1195.6 1689.0,1202.5 1719.0,1207.6 1750.1,1211.1 1782.4,1212.9 1816.0,1213.0 1851.0,1211.2 1887.7,1207.6 1926.1,1202.0 1966.4,1194.4 2008.8,1184.6 2053.4,1172.5 2100.5,1158.0 2150.1,1140.9 2202.6,1120.9 2258.0,1098.0 2316.7,1071.9 2378.7,1042.4 2444.3,1009.2  Z" style="stroke-width: 2.0;  stroke: rgb(82,82,82); fill: rgb(0,255,0); opacity: 0.667;" />
<path d="M 2444.347,1009.249 A 1064.250,1064.250 0.00 0,1 2446.1,1012.7 L 2446.1,1012.7 2381.0,1046.1 2320.6,1076.6 2264.7,1104.5 2213.2,1129.8 2165.7,1152.7 2122.1,1173.3 2082.3,1191.6 2045.9,1207.9 2012.9,1222.1 1983.1,1234.4 1956.4,1244.8 1932.6,1253.4 1911.6,1260.2 1893.3,1265.3 1877.7,1268.7 1864.6,1270.5 1854.0,1270.6 1845.9,1269.0 1840.2,1265.9 1836.8,1261.1 1835.8,1254.6 1837.2,1246.4 1840.9,1236.5 1847.0,1224.9 1855.6,1211.4 1866.7,1196.0 1880.3,1178.6 1896.6,1159.2 1915.5,1137.7 1937.3,1113.9 1962.0,1087.8 1989.8,1059.3 2020.7,1028.1 2055.0,994.3 2092.8,957.6 2134.3,917.9 2179.7,875.0 2229.1,828.8 2282.9,779.1  A 1064.250,1064.250 0.00 0,0 2280.5,776.5 L 2280.5,776.5 2226.9,826.3 2177.6,872.7 2132.4,915.7 2091.0,955.6 2053.3,992.4 2019.1,1026.4 1988.3,1057.6 1960.6,1086.2 1936.0,1112.4 1914.3,1136.3 1895.4,1157.9 1879.2,1177.3 1865.7,1194.7 1854.6,1210.1 1846.1,1223.7 1840.0,1235.3 1836.3,1245.3 1834.9,1253.4 1836.0,1259.9 1839.3,1264.7 1845.1,1267.8 1853.2,1269.3 1863.8,1269.2 1876.9,1267.4 1892.5,1263.9 1910.7,1258.7 1931.7,1251.8 1955.4,1243.1 1982.1,1232.6 2011.9,1220.2 2044.8,1205.9 2081.1,1189.5 2120.9,1171.0 2164.4,1150.3 2211.8,1127.2 2263.3,1101.7 2319.0,1073.6 2379.3,1042.9 2444.3,1009.2  Z" style="stroke-width: 2.0;  stroke: rgb(82,82,82); fill: rgb(53,128,0); opacity: 0.667;" />
<path d="M 2444.347,1009.249 A 1064.250,1064.250 0.00 0,1 2446.1,1012.7 L 2446.1,1012.7 2381.0,1046.1 2320.7,1076.8 2265.1,1105.0 2213.8,1130.7 2166.6,1154.1 2123.5,1175.2 2084.1,1194.2 2048.3,1211.2 2015.9,1226.3 1986.7,1239.5 1960.8,1250.9 1937.8,1260.6 1917.7,1268.6 1900.5,1274.9 1885.9,1279.7 1874.0,1282.9 1864.7,1284.6 1857.9,1284.8 1853.6,1283.4 1851.8,1280.5 1852.5,1276.0 1855.7,1270.0 1861.3,1262.4 1869.5,1253.2 1880.3,1242.3 1893.7,1229.7 1909.8,1215.3 1928.8,1199.1 1950.6,1181.0 1975.4,1160.8 2003.3,1138.6 2034.6,1114.1 2069.2,1087.4 2107.4,1058.2 2149.4,1026.5 2195.3,992.1 2245.3,954.9 2299.7,914.7 2358.7,871.4  A 1064.250,1064.250 0.00 0,0 2356.4,868.2 L 2356.4,868.2 2297.6,911.8 2243.3,952.2 2193.4,989.6 2147.6,1024.1 2105.8,1056.0 2067.7,1085.3 2033.1,1112.2 2002.0,1136.7 1974.2,1159.1 1949.4,1179.3 1927.7,1197.6 1908.8,1213.8 1892.7,1228.3 1879.3,1240.9 1868.6,1251.9 1860.4,1261.1 1854.8,1268.7 1851.7,1274.7 1851.0,1279.2 1852.8,1282.1 1857.1,1283.5 1863.9,1283.3 1873.2,1281.6 1885.1,1278.3 1899.6,1273.5 1916.9,1267.1 1936.9,1259.0 1959.9,1249.2 1985.8,1237.7 2014.9,1224.4 2047.2,1209.2 2083.0,1192.1 2122.3,1172.9 2165.4,1151.6 2212.4,1128.1 2263.6,1102.2 2319.2,1073.9 2379.3,1042.9 2444.3,1009.2  Z" style="stroke-width: 2.0;  stroke: rgb(82,82,82); fill: rgb(0,0,204); opacity: 0.667;" />
<path d="M 2444.347,1009.249 A 1064.250,1064.250 0.00 0,1 2446.1,1012.7 L 2446.1,1012.7 2381.0,1046.2 2320.9,1077.1 2265.4,1105.6 2214.4,1131.8 2167.7,1155.8 2124.9,1177.7 2086.0,1197.6 2050.8,1215.5 2019.1,1231.7 1990.7,1246.1 1965.5,1258.8 1943.4,1269.9 1924.3,1279.5 1908.1,1287.6 1894.6,1294.1 1883.9,1299.3 1875.9,1303.1 1870.5,1305.4 1867.7,1306.4 1867.5,1306.1 1869.9,1304.3 1874.9,1301.2 1882.6,1296.7 1892.9,1290.8 1905.9,1283.5 1921.7,1274.6 1940.4,1264.3 1962.1,1252.3 1986.8,1238.8 2014.7,1223.5 2046.0,1206.4 2080.7,1187.5 2119.1,1166.7 2161.3,1143.8 2207.5,1118.8 2258.0,1091.5 2312.8,1061.8 2372.4,1029.7 2436.8,995.0  A 1064.250,1064.250 0.00 0,0 2434.9,991.6 L 2434.9,991.6 2370.6,1026.5 2311.2,1058.9 2256.5,1088.7 2206.2,1116.2 2160.0,1141.4 2117.9,1164.4 2079.6,1185.4 2044.9,1204.4 2013.7,1221.6 1985.8,1237.0 1961.2,1250.6 1939.6,1262.7 1920.9,1273.1 1905.1,1282.0 1892.1,1289.4 1881.8,1295.3 1874.2,1299.9 1869.2,1303.0 1866.8,1304.7 1867.0,1305.1 1869.8,1304.1 1875.2,1301.7 1883.2,1297.9 1893.9,1292.7 1907.3,1286.1 1923.5,1278.0 1942.6,1268.3 1964.6,1257.1 1989.7,1244.3 2018.1,1229.8 2049.8,1213.5 2084.9,1195.4 2123.7,1175.4 2166.4,1153.4 2213.1,1129.2 2264.0,1102.9 2319.4,1074.2 2379.4,1043.0 2444.3,1009.2  Z" style="stroke-width: 2.0;  stroke: rgb(82,82,82); fill: rgb(102,153,255); opacity: 0.667;" />
<path d="M 588.454,950.717 A 1064.250,1064.250 0.00 0,1 590.5,947.4 L 590.5,947.4 653.4,985.0 712.4,1018.9 767.7,1049.4 819.4,1076.7 867.8,1100.8 913.0,1122.0 955.3,1140.4 994.8,1156.2 1031.7,1169.4 1066.1,1180.3 1098.2,1188.8 1128.1,1195.0 1156.0,1199.1 1181.9,1201.0 1206.1,1200.9 1228.5,1198.7 1249.3,1194.5 1268.7,1188.2 1286.6,1179.9 1303.1,1169.4 1318.3,1156.9 1332.3,1142.1 1345.1,1125.2 1356.8,1105.9 1367.3,1084.1 1376.7,1059.9 1385.1,1033.0 1392.3,1003.3 1398.5,970.7 1403.6,935.0 1407.5,896.0 1410.3,853.5 1411.9,807.4 1412.3,757.5 1411.3,703.4 1409.1,645.0 1405.4,582.0 1400.1,514.1 1393.4,441.1  A 1064.250,1064.250 0.00 0,0 1389.5,441.5 L 1389.5,441.5 1396.5,514.5 1402.0,582.4 1405.9,645.3 1408.4,703.7 1409.5,757.8 1409.4,807.8 1407.9,853.9 1405.3,896.3 1401.5,935.3 1396.6,971.0 1390.5,1003.7 1383.4,1033.4 1375.1,1060.3 1365.8,1084.6 1355.4,1106.4 1343.8,1125.7 1331.0,1142.8 1317.1,1157.5 1301.9,1170.1 1285.4,1180.6 1267.5,1189.0 1248.2,1195.4 1227.4,1199.7 1205.0,1202.0 1180.8,1202.2 1154.9,1200.4 1127.0,1196.4 1097.1,1190.2 1064.9,1181.9 1030.5,1171.2 993.6,1158.0 954.0,1142.4 911.7,1124.2 866.4,1103.1 817.9,1079.2 766.1,1052.1 710.7,1021.8 651.6,988.1 588.5,950.7  Z" style="stroke-width: 2.0;  stroke: rgb(82,82,82); fill: rgb(153,204,255); opacity: 0.667;" />
<path d="M 588.454,950.717 A 1064.250,1064.250 0.00 0,1 590.5,947.4 L 590.5,947.4 653.3,985.1 711.9,1019.3 766.4,1050.3 817.2,1078.1 864.4,1103.0 908.1,1125.0 948.7,1144.4 986.2,1161.1 1020.8,1175.5 1052.6,1187.4 1081.9,1197.1 1108.7,1204.6 1133.1,1209.9 1155.4,1213.1 1175.5,1214.3 1193.5,1213.5 1209.6,1210.6 1223.8,1205.7 1236.2,1198.8 1246.9,1189.8 1255.8,1178.7 1263.0,1165.5 1268.5,1150.1 1272.3,1132.4 1274.5,1112.4 1275.0,1090.0 1273.9,1064.9 1270.9,1037.3 1266.3,1006.8 1259.8,973.4 1251.4,936.9 1241.1,897.2 1228.8,854.0 1214.3,807.1 1197.7,756.5 1178.7,701.8 1157.3,642.8 1133.3,579.4 1106.6,511.1  A 1064.250,1064.250 0.00 0,0 1102.8,512.7 L 1102.8,512.7 1129.8,580.8 1154.0,644.2 1175.7,703.0 1194.9,757.6 1211.7,808.2 1226.3,855.0 1238.8,898.1 1249.3,937.9 1257.8,974.3 1264.4,1007.7 1269.2,1038.1 1272.2,1065.8 1273.5,1090.8 1273.1,1113.3 1271.0,1133.3 1267.2,1151.0 1261.7,1166.4 1254.6,1179.6 1245.7,1190.7 1235.1,1199.7 1222.8,1206.7 1208.5,1211.7 1192.5,1214.6 1174.4,1215.5 1154.3,1214.4 1132.1,1211.3 1107.6,1206.0 1080.8,1198.6 1051.5,1189.1 1019.6,1177.2 984.9,1163.0 947.4,1146.4 906.8,1127.2 862.9,1105.3 815.7,1080.6 764.8,1053.0 710.1,1022.2 651.4,988.2 588.5,950.7  Z" style="stroke-width: 2.0;  stroke: rgb(82,82,82); fill: rgb(0,255,255); opacity: 0.667;" />
<path d="M 588.454,950.717 A 1064.250,1064.250 0.00 0,1 590.5,947.4 L 590.5,947.4 654.0,984.8 714.6,1018.3 772.4,1048.2 827.7,1074.7 880.5,1098.0 931.1,1118.6 979.6,1136.5 1026.1,1151.9 1070.9,1165.2 1114.0,1176.4 1155.7,1185.7 1196.0,1193.2 1235.1,1199.1 1273.2,1203.5 1310.4,1206.5 1346.8,1208.1 1382.7,1208.4 1418.0,1207.4 1453.1,1205.2 1487.9,1201.7 1522.7,1197.0 1557.6,1191.0 1592.7,1183.6 1628.1,1174.9 1664.0,1164.7 1700.5,1152.8 1737.7,1139.3 1775.7,1124.0 1814.7,1106.7 1854.8,1087.2 1896.0,1065.4 1938.6,1041.1 1982.6,1014.0 2028.2,983.9 2075.4,950.6 2124.4,913.7 2175.2,873.1 2228.0,828.3 2282.9,779.1  A 1064.250,1064.250 0.00 0,0 2280.5,776.5 L 2280.5,776.5 2225.7,825.8 2173.1,870.8 2122.4,911.6 2073.5,948.6 2026.4,982.1 1981.0,1012.4 1937.1,1039.6 1894.5,1064.1 1853.3,1086.0 1813.3,1105.6 1774.4,1123.1 1736.4,1138.6 1699.3,1152.2 1662.8,1164.1 1627.0,1174.5 1591.6,1183.3 1556.5,1190.8 1521.7,1196.9 1486.9,1201.8 1452.0,1205.4 1417.0,1207.7 1381.6,1208.8 1345.8,1208.6 1309.3,1207.2 1272.1,1204.4 1234.0,1200.1 1194.9,1194.3 1154.5,1186.9 1112.9,1177.8 1069.7,1166.7 1024.9,1153.7 978.3,1138.4 929.7,1120.6 879.1,1100.3 826.1,1077.1 770.8,1050.8 712.8,1021.2 652.1,987.9 588.5,950.7  Z" style="stroke-width: 2.0;  stroke: rgb(82,82,82); fill: rgb(204,255,255); opacity: 0.667;" />
<path d="M 588.454,950.717 A 1064.250,1064.250 0.00 0,1 590.5,947.4 L 590.5,947.4 654.0,984.8 714.8,1018.3 773.0,1048.2 828.7,1074.7 882.1,1098.2 933.3,1118.8 982.5,1136.9 1029.8,1152.7 1075.4,1166.3 1119.4,1177.9 1162.1,1187.7 1203.4,1195.9 1243.7,1202.6 1282.9,1208.0 1321.3,1212.0 1359.1,1214.8 1396.2,1216.5 1433.0,1217.0 1469.6,1216.5 1506.0,1214.9 1542.4,1212.3 1579.0,1208.6 1615.9,1203.7 1653.3,1197.7 1691.2,1190.4 1729.9,1181.7 1769.4,1171.6 1809.9,1159.9 1851.5,1146.4 1894.4,1131.0 1938.7,1113.6 1984.5,1093.8 2031.9,1071.6 2081.2,1046.6 2132.3,1018.7 2185.5,987.4 2240.9,952.7 2298.6,914.1 2358.7,871.4  A 1064.250,1064.250 0.00 0,0 2356.4,868.2 L 2356.4,868.2 2296.5,911.2 2238.9,950.0 2183.7,984.9 2130.6,1016.4 2079.5,1044.5 2030.3,1069.7 1983.0,1092.1 1937.2,1112.0 1893.0,1129.6 1850.2,1145.1 1808.6,1158.8 1768.2,1170.6 1728.7,1180.9 1690.1,1189.7 1652.2,1197.1 1614.9,1203.3 1578.0,1208.3 1541.4,1212.2 1504.9,1214.9 1468.5,1216.6 1432.0,1217.3 1395.2,1216.8 1358.0,1215.3 1320.3,1212.6 1281.8,1208.8 1242.6,1203.6 1202.3,1197.0 1160.9,1189.0 1118.3,1179.3 1074.2,1167.8 1028.5,1154.4 981.1,1138.8 931.9,1120.9 880.6,1100.4 827.1,1077.2 771.4,1050.8 713.1,1021.2 652.2,987.9 588.5,950.7  Z" style="stroke-width: 2.0;  stroke: rgb(82,82,82); fill: rgb(153,0,204); opacity: 0.667;" />
<path d="M 588.454,950.717 A 1064.250,1064.250 0.00 0,1 590.5,947.4 L 590.5,947.4 654.1,984.8 715.2,1018.3 773.7,1048.2 829.9,1074.9 883.9,1098.5 935.9,1119.3 985.9,1137.7 1034.1,1153.9 1080.7,1168.0 1125.8,1180.3 1169.5,1190.9 1212.1,1200.0 1253.5,1207.8 1294.0,1214.4 1333.8,1219.9 1372.9,1224.3 1411.5,1227.8 1449.8,1230.5 1487.9,1232.3 1525.9,1233.3 1564.0,1233.4 1602.4,1232.8 1641.1,1231.2 1680.4,1228.8 1720.4,1225.4 1761.2,1220.9 1803.0,1215.2 1845.9,1208.3 1890.2,1200.0 1935.8,1190.0 1983.1,1178.3 2032.1,1164.7 2083.0,1148.9 2135.9,1130.7 2191.1,1109.9 2248.6,1086.2 2308.6,1059.4 2371.3,1029.1 2436.8,995.0  A 1064.250,1064.250 0.00 0,0 2434.9,991.6 L 2434.9,991.6 2369.6,1025.9 2307.0,1056.4 2247.1,1083.5 2189.7,1107.4 2134.6,1128.4 2081.7,1146.8 2030.9,1162.8 1981.9,1176.6 1934.7,1188.4 1889.1,1198.5 1844.9,1207.1 1802.0,1214.1 1760.2,1219.9 1719.4,1224.6 1679.4,1228.1 1640.1,1230.7 1601.4,1232.4 1563.0,1233.2 1524.9,1233.2 1486.9,1232.3 1448.8,1230.7 1410.5,1228.2 1371.9,1224.8 1332.8,1220.5 1293.0,1215.1 1252.5,1208.7 1211.0,1201.1 1168.4,1192.1 1124.6,1181.6 1079.5,1169.5 1032.9,1155.6 984.6,1139.6 934.5,1121.4 882.5,1100.7 828.4,1077.3 772.1,1050.9 713.4,1021.2 652.2,987.9 588.5,950.7  Z" style="stroke-width: 2.0;  stroke: rgb(82,82,82); fill: rgb(204,51,255); opacity: 0.667;" />
<path d="M 588.454,950.717 A 1064.250,1064.250 0.00 0,1 590.5,947.4 L 590.5,947.4 654.1,984.8 715.2,1018.3 773.8,1048.3 830.1,1074.9 884.2,1098.5 936.2,1119.4 986.3,1137.9 1034.7,1154.1 1081.4,1168.3 1126.6,1180.6 1170.5,1191.4 1213.2,1200.6 1254.8,1208.6 1295.5,1215.4 1335.4,1221.0 1374.7,1225.7 1413.5,1229.5 1451.9,1232.5 1490.2,1234.6 1528.4,1235.9 1566.7,1236.5 1605.3,1236.3 1644.3,1235.2 1683.8,1233.3 1724.0,1230.4 1765.1,1226.5 1807.1,1221.5 1850.4,1215.3 1894.9,1207.7 1940.9,1198.5 1988.5,1187.6 2037.8,1174.9 2089.1,1160.0 2142.5,1142.8 2198.1,1123.0 2256.1,1100.4 2316.7,1074.7 2380.0,1045.6 2446.1,1012.7  A 1064.250,1064.250 0.00 0,0 2444.3,1009.2 L 2444.3,1009.2 2378.3,1042.4 2315.2,1071.7 2254.7,1097.7 2196.8,1120.5 2141.2,1140.5 2087.9,1157.9 2036.7,1172.9 1987.3,1185.9 1939.8,1196.9 1893.8,1206.2 1849.3,1214.0 1806.1,1220.4 1764.1,1225.6 1723.0,1229.6 1682.8,1232.6 1643.3,1234.7 1604.3,1235.9 1565.8,1236.3 1527.5,1235.8 1489.2,1234.6 1451.0,1232.6 1412.5,1229.8 1373.7,1226.2 1334.4,1221.6 1294.5,1216.1 1253.7,1209.5 1212.1,1201.7 1169.4,1192.6 1125.5,1182.0 1080.2,1169.8 1033.4,1155.8 985.0,1139.7 934.8,1121.5 882.7,1100.8 828.5,1077.3 772.2,1050.9 713.5,1021.2 652.3,987.9 588.5,950.7  Z" style="stroke-width: 2.0;  stroke: rgb(82,82,82); fill: rgb(204,153,255); opacity: 0.667;" />
<path d="M 1694.832,2546.264 A 1064.250,1064.250 0.00 0,1 1690.8,2547.0 L 1690.8,2547.0 1678.7,2473.6 1669.3,2403.0 1662.2,2335.0 1657.0,2269.6 1653.6,2206.6 1651.4,2145.9 1650.3,2087.3 1649.9,2030.8 1650.0,1976.2 1650.3,1923.4 1650.7,1872.2 1650.8,1822.4 1650.7,1774.0 1649.9,1726.8 1648.6,1680.6 1646.4,1635.3 1643.4,1590.8 1639.4,1546.7 1634.3,1503.1 1628.2,1459.8 1621.0,1416.5 1612.6,1373.1 1603.2,1329.4 1592.7,1285.3 1581.3,1240.5 1568.9,1195.0 1555.6,1148.4 1541.7,1100.7 1527.1,1051.6 1512.2,1000.9 1497.0,948.4 1481.7,894.0 1466.6,837.5 1451.8,778.5 1437.7,717.0 1424.5,652.8 1412.5,585.5 1402.0,515.0 1393.4,441.1  A 1064.250,1064.250 0.00 0,0 1389.5,441.5 L 1389.5,441.5 1398.4,515.4 1409.2,585.8 1421.4,653.0 1434.9,717.3 1449.2,778.7 1464.2,837.6 1479.5,894.1 1495.0,948.4 1510.4,1000.8 1525.5,1051.4 1540.2,1100.5 1554.3,1148.2 1567.7,1194.7 1580.3,1240.2 1592.0,1284.9 1602.6,1329.0 1612.2,1372.7 1620.7,1416.0 1628.1,1459.3 1634.3,1502.6 1639.6,1546.2 1643.7,1590.2 1647.0,1634.8 1649.3,1680.1 1650.8,1726.2 1651.7,1773.5 1652.1,1821.9 1652.1,1871.6 1651.9,1922.8 1651.8,1975.7 1651.9,2030.3 1652.5,2086.8 1653.9,2145.3 1656.2,2206.0 1660.0,2269.0 1665.3,2334.4 1672.7,2402.3 1682.4,2472.9 1694.8,2546.3  Z" style="stroke-width: 2.0;  stroke: rgb(82,82,82); fill: rgb(102,102,102); opacity: 0.667;" />
<path d="M 1694.832,2546.264 A 1064.250,1064.250 0.00 0,1 1690.8,2547.0 L 1690.8,2547.0 1676.3,2474.1 1660.3,2404.9 1643.0,2339.1 1624.7,2276.5 1605.7,2216.8 1586.2,2159.8 1566.4,2105.3 1546.6,2052.9 1526.9,2002.6 1507.4,1954.0 1488.4,1907.0 1469.9,1861.3 1452.1,1816.7 1434.9,1773.1 1418.6,1730.2 1403.1,1687.9 1388.5,1645.9 1374.7,1604.1 1361.9,1562.3 1349.8,1520.4 1338.6,1478.2 1328.1,1435.5 1318.2,1392.1 1308.9,1348.0 1300.0,1303.0 1291.4,1256.9 1282.9,1209.7 1274.4,1161.1 1265.5,1111.2 1256.3,1059.7 1246.3,1006.5 1235.3,951.6 1223.2,894.9 1209.5,836.3 1193.9,775.6 1176.2,712.8 1156.0,647.9 1132.9,580.7 1106.6,511.1  A 1064.250,1064.250 0.00 0,0 1102.8,512.7 L 1102.8,512.7 1129.4,582.1 1152.8,649.2 1173.2,714.1 1191.2,776.8 1206.9,837.4 1220.9,896.0 1233.3,952.7 1244.4,1007.5 1254.6,1060.6 1264.1,1112.1 1273.1,1162.0 1281.8,1210.5 1290.5,1257.7 1299.3,1303.7 1308.3,1348.7 1317.8,1392.8 1327.8,1436.1 1338.5,1478.8 1349.9,1521.0 1362.1,1562.9 1375.1,1604.6 1389.0,1646.3 1403.8,1688.2 1419.5,1730.5 1436.0,1773.3 1453.3,1816.9 1471.3,1861.4 1490.0,1907.0 1509.2,1954.0 1528.8,2002.5 1548.7,2052.7 1568.7,2105.0 1588.7,2159.5 1608.4,2216.4 1627.6,2276.0 1646.2,2338.5 1663.7,2404.3 1680.0,2473.4 1694.8,2546.3  Z" style="stroke-width: 2.0;  stroke: rgb(82,82,82); fill: rgb(153,153,153); opacity: 0.667;" />
<path d="M 1694.832,2546.264 A 1064.250,1064.250 0.00 0,1 1690.8,2547.0 L 1690.8,2547.0 1678.7,2474.1 1669.2,2405.1 1662.2,2339.6 1657.5,2277.5 1654.8,2218.5 1653.8,2162.3 1654.5,2108.8 1656.7,2057.8 1660.1,2008.9 1664.7,1962.2 1670.3,1917.2 1676.9,1873.9 1684.3,1832.0 1692.4,1791.4 1701.2,1752.0 1710.8,1713.4 1721.0,1675.6 1731.8,1638.4 1743.3,1601.7 1755.5,1565.3 1768.4,1529.1 1782.2,1492.9 1796.8,1456.6 1812.4,1420.1 1829.1,1383.2 1847.0,1345.9 1866.4,1308.0 1887.2,1269.5 1909.8,1230.2 1934.3,1190.1 1961.0,1149.1 1990.0,1107.0 2021.7,1063.9 2056.2,1019.6 2094.0,974.2 2135.2,927.4 2180.2,879.3 2229.3,829.9 2282.9,779.1  A 1064.250,1064.250 0.00 0,0 2280.5,776.5 L 2280.5,776.5 2227.0,827.5 2178.1,877.0 2133.2,925.3 2092.2,972.1 2054.6,1017.8 2020.2,1062.1 1988.7,1105.4 1959.8,1147.5 1933.3,1188.7 1908.9,1228.8 1886.5,1268.2 1865.7,1306.8 1846.6,1344.7 1828.7,1382.1 1812.2,1419.0 1796.7,1455.5 1782.2,1491.9 1768.6,1528.1 1755.8,1564.4 1743.7,1600.9 1732.4,1637.6 1721.7,1674.8 1711.6,1712.6 1702.2,1751.2 1693.5,1790.7 1685.5,1831.4 1678.3,1873.2 1671.9,1916.6 1666.5,1961.5 1662.1,2008.3 1658.8,2057.2 1656.9,2108.2 1656.4,2161.7 1657.5,2217.9 1660.5,2276.9 1665.4,2339.0 1672.7,2404.5 1682.4,2473.5 1694.8,2546.3  Z" style="stroke-width: 2.0;  stroke: rgb(82,82,82); fill: rgb(204,204,204); opacity: 0.667;" />
<path d="M 1694.832,2546.264 A 1064.250,1064.250 0.00 0,1 1690.8,2547.0 L 1690.8,2547.0 1678.6,2474.2 1669.1,2405.4 1662.1,2340.2 1657.3,2278.5 1654.5,2220.0 1653.5,2164.4 1654.3,2111.7 1656.5,2061.4 1660.0,2013.5 1664.8,1967.7 1670.8,1923.8 1677.7,1881.6 1685.6,1841.0 1694.4,1801.7 1704.0,1763.6 1714.5,1726.5 1725.7,1690.3 1737.8,1654.8 1750.7,1619.9 1764.4,1585.4 1779.1,1551.2 1794.8,1517.1 1811.5,1483.1 1829.4,1449.0 1848.6,1414.8 1869.3,1380.2 1891.5,1345.3 1915.4,1309.9 1941.3,1274.0 1969.4,1237.4 1999.8,1200.2 2032.7,1162.2 2068.5,1123.4 2107.4,1083.7 2149.7,1043.2 2195.6,1001.7 2245.6,959.2 2299.8,915.8 2358.7,871.4  A 1064.250,1064.250 0.00 0,0 2356.4,868.2 L 2356.4,868.2 2297.7,912.9 2243.6,956.5 2193.8,999.1 2148.0,1040.8 2105.9,1081.5 2067.1,1121.3 2031.5,1160.2 1998.7,1198.3 1968.4,1235.7 1940.5,1272.3 1914.8,1308.4 1890.9,1343.8 1868.8,1378.9 1848.3,1413.5 1829.3,1447.8 1811.5,1482.0 1794.9,1516.0 1779.3,1550.2 1764.8,1584.4 1751.2,1619.0 1738.4,1654.0 1726.5,1689.5 1715.4,1725.7 1705.0,1762.8 1695.6,1801.0 1686.9,1840.3 1679.2,1880.9 1672.4,1923.1 1666.6,1967.0 1662.0,2012.9 1658.6,2060.8 1656.6,2111.1 1656.1,2163.9 1657.2,2219.4 1660.2,2277.9 1665.3,2339.6 1672.6,2404.7 1682.3,2473.5 1694.8,2546.3  Z" style="stroke-width: 2.0;  stroke: rgb(82,82,82); fill: rgb(204,204,153); opacity: 0.667;" />
<path d="M 1694.832,2546.264 A 1064.250,1064.250 0.00 0,1 1690.8,2547.0 L 1690.8,2547.0 1678.6,2474.3 1669.0,2405.7 1661.9,2340.9 1656.9,2279.7 1654.0,2221.8 1653.0,2167.0 1653.6,2115.1 1655.8,2065.9 1659.5,2019.1 1664.4,1974.5 1670.6,1932.0 1677.9,1891.2 1686.3,1852.2 1695.7,1814.6 1706.1,1778.4 1717.4,1743.3 1729.7,1709.2 1743.0,1675.9 1757.4,1643.4 1772.7,1611.4 1789.2,1579.9 1806.9,1548.7 1825.8,1517.8 1846.1,1487.0 1867.9,1456.2 1891.4,1425.4 1916.6,1394.5 1943.9,1363.4 1973.2,1332.0 2005.0,1300.3 2039.2,1268.2 2076.3,1235.7 2116.4,1202.8 2159.8,1169.4 2206.8,1135.5 2257.7,1101.1 2312.8,1066.2 2372.4,1030.8 2436.8,995.0  A 1064.250,1064.250 0.00 0,0 2434.9,991.6 L 2434.9,991.6 2370.6,1027.7 2311.2,1063.2 2256.3,1098.3 2205.5,1132.9 2158.6,1166.9 2115.3,1200.5 2075.3,1233.6 2038.4,1266.2 2004.2,1298.4 1972.6,1330.2 1943.4,1361.7 1916.3,1393.0 1891.1,1424.0 1867.8,1454.9 1846.1,1485.7 1825.9,1516.6 1807.0,1547.6 1789.5,1578.8 1773.2,1610.4 1757.9,1642.4 1743.7,1675.0 1730.5,1708.3 1718.3,1742.5 1707.1,1777.6 1696.9,1813.9 1687.6,1851.5 1679.4,1890.6 1672.2,1931.3 1666.2,1973.9 1661.4,2018.5 1658.0,2065.3 1656.0,2114.6 1655.5,2166.4 1656.8,2221.2 1659.9,2279.1 1665.1,2340.3 1672.5,2405.0 1682.3,2473.6 1694.8,2546.3  Z" style="stroke-width: 2.0;  stroke: rgb(82,82,82); fill: rgb(251,106,74); opacity: 0.667;" />
<path d="M 1694.832,2546.264 A 1064.250,1064.250 0.00 0,1 1690.8,2547.0 L 1690.8,2547.0 1678.6,2474.3 1669.0,2405.7 1661.8,2341.0 1656.9,2279.8 1653.9,2222.1 1652.9,2167.4 1653.5,2115.6 1655.7,2066.5 1659.3,2019.9 1664.3,1975.4 1670.5,1933.1 1677.8,1892.6 1686.3,1853.8 1695.7,1816.4 1706.2,1780.4 1717.7,1745.6 1730.1,1711.8 1743.6,1678.9 1758.1,1646.7 1773.6,1615.1 1790.3,1583.9 1808.2,1553.2 1827.4,1522.7 1848.0,1492.4 1870.1,1462.1 1894.0,1431.9 1919.6,1401.5 1947.2,1371.0 1977.0,1340.2 2009.2,1309.2 2043.9,1277.9 2081.5,1246.2 2122.1,1214.1 2166.1,1181.6 2213.7,1148.7 2265.2,1115.3 2320.8,1081.6 2381.0,1047.3 2446.1,1012.7  A 1064.250,1064.250 0.00 0,0 2444.3,1009.2 L 2444.3,1009.2 2379.4,1044.1 2319.3,1078.6 2263.7,1112.6 2212.4,1146.1 2164.9,1179.2 2121.1,1211.9 2080.6,1244.1 2043.1,1275.9 2008.5,1307.4 1976.4,1338.5 1946.7,1369.4 1919.2,1400.0 1893.7,1430.4 1870.0,1460.8 1848.0,1491.1 1827.5,1521.5 1808.4,1552.1 1790.6,1582.9 1774.1,1614.1 1758.6,1645.7 1744.3,1678.0 1730.9,1710.9 1718.6,1744.8 1707.3,1779.7 1696.9,1815.7 1687.6,1853.1 1679.3,1891.9 1672.1,1932.4 1666.1,1974.8 1661.3,2019.2 1657.9,2065.9 1655.9,2115.0 1655.4,2166.8 1656.7,2221.5 1659.8,2279.2 1665.0,2340.4 1672.4,2405.1 1682.3,2473.6 1694.8,2546.3  Z" style="stroke-width: 2.0;  stroke: rgb(82,82,82); fill: rgb(116,196,118); opacity: 0.667;" />
<path d="M 1694.832,2546.264 A 1064.250,1064.250 0.00 0,1 1690.8,2547.0 L 1690.8,2547.0 1676.5,2474.4 1660.8,2406.3 1644.0,2342.2 1626.3,2281.8 1607.7,2224.9 1588.5,2171.2 1568.7,2120.4 1548.5,2072.3 1527.9,2026.5 1507.0,1983.0 1486.0,1941.3 1464.7,1901.4 1443.4,1863.0 1421.9,1825.8 1400.3,1789.8 1378.6,1754.7 1356.7,1720.4 1334.6,1686.7 1312.3,1653.4 1289.6,1620.5 1266.5,1587.7 1242.9,1555.0 1218.7,1522.3 1193.7,1489.5 1167.8,1456.4 1140.8,1423.1 1112.5,1389.4 1082.8,1355.3 1051.5,1320.7 1018.2,1285.7 982.9,1250.1 945.2,1214.0 904.8,1177.4 861.5,1140.2 815.0,1102.5 765.0,1064.4 711.1,1025.8 653.1,986.7 590.5,947.4  A 1064.250,1064.250 0.00 0,0 588.5,950.7 L 588.5,950.7 651.2,989.8 709.4,1028.6 763.4,1067.1 813.6,1105.0 860.2,1142.5 903.6,1179.5 944.1,1216.0 982.0,1252.0 1017.5,1287.4 1050.8,1322.4 1082.3,1356.8 1112.1,1390.8 1140.5,1424.4 1167.6,1457.7 1193.7,1490.6 1218.8,1523.4 1243.2,1556.0 1266.9,1588.6 1290.1,1621.2 1312.9,1654.1 1335.3,1687.3 1357.5,1720.9 1379.5,1755.1 1401.4,1790.2 1423.1,1826.1 1444.8,1863.2 1466.3,1901.5 1487.6,1941.4 1508.9,1982.9 1529.9,2026.4 1550.6,2072.1 1571.0,2120.1 1591.0,2170.9 1610.5,2224.5 1629.2,2281.3 1647.2,2341.6 1664.3,2405.7 1680.2,2473.8 1694.8,2546.3  Z" style="stroke-width: 2.0;  stroke: rgb(82,82,82); fill: rgb(107,174,214); opacity: 0.667;" />
<path d="M 495.745,1147.722 A 1064.250,1064.250 0.00 0,1 497.1,1143.9 L 497.1,1143.9 566.5,1167.8 631.5,1188.8 692.2,1207.1 749.1,1222.8 802.2,1236.0 851.9,1246.9 898.3,1255.6 941.6,1262.2 982.0,1266.9 1019.7,1269.6 1054.9,1270.5 1087.8,1269.7 1118.4,1267.1 1146.9,1262.8 1173.5,1256.8 1198.2,1249.2 1221.2,1239.9 1242.7,1228.9 1262.6,1216.2 1281.0,1201.7 1298.1,1185.4 1313.9,1167.3 1328.4,1147.1 1341.7,1124.9 1353.8,1100.5 1364.8,1073.8 1374.6,1044.7 1383.3,1013.0 1390.8,978.7 1397.1,941.4 1402.3,901.0 1406.1,857.4 1408.7,810.2 1410.0,759.4 1409.8,704.6 1408.2,645.7 1405.0,582.3 1400.0,514.2 1393.4,441.1  A 1064.250,1064.250 0.00 0,0 1389.5,441.5 L 1389.5,441.5 1396.4,514.6 1401.6,582.7 1405.1,646.0 1406.9,705.0 1407.3,759.7 1406.2,810.6 1403.8,857.7 1400.1,901.4 1395.1,941.7 1388.9,979.1 1381.5,1013.5 1372.9,1045.2 1363.2,1074.3 1352.4,1101.1 1340.3,1125.5 1327.1,1147.8 1312.7,1168.0 1297.0,1186.2 1279.9,1202.6 1261.5,1217.1 1241.7,1229.9 1220.3,1241.0 1197.3,1250.3 1172.6,1258.1 1146.0,1264.1 1117.5,1268.5 1086.9,1271.2 1054.1,1272.2 1018.9,1271.4 981.1,1268.8 940.7,1264.3 897.4,1257.9 850.9,1249.3 801.2,1238.6 748.0,1225.6 691.1,1210.2 630.3,1192.1 565.2,1171.4 495.7,1147.7  Z" style="stroke-width: 2.0;  stroke: rgb(82,82,82); fill: rgb(253,141,60); opacity: 0.667;" />
<path d="M 495.745,1147.722 A 1064.250,1064.250 0.00 0,1 497.1,1143.9 L 497.1,1143.9 566.4,1167.9 630.9,1189.3 691.1,1208.0 747.0,1224.4 799.0,1238.4 847.3,1250.2 892.0,1260.0 933.4,1267.7 971.6,1273.5 1006.9,1277.5 1039.3,1279.7 1069.1,1280.2 1096.4,1278.9 1121.2,1276.0 1143.8,1271.4 1164.2,1265.2 1182.6,1257.3 1198.9,1247.7 1213.3,1236.4 1225.9,1223.4 1236.6,1208.6 1245.6,1191.9 1252.8,1173.3 1258.2,1152.6 1262.0,1129.9 1264.0,1104.9 1264.2,1077.7 1262.6,1047.9 1259.2,1015.6 1253.9,980.5 1246.6,942.5 1237.3,901.4 1225.9,857.1 1212.3,809.3 1196.3,757.9 1177.9,702.6 1156.9,643.2 1133.2,579.5 1106.6,511.1  A 1064.250,1064.250 0.00 0,0 1102.8,512.7 L 1102.8,512.7 1129.7,580.9 1153.7,644.5 1174.9,703.8 1193.5,759.1 1209.7,810.4 1223.5,858.1 1235.1,902.4 1244.5,943.5 1251.9,981.4 1257.4,1016.5 1260.9,1048.8 1262.6,1078.6 1262.5,1105.8 1260.6,1130.8 1256.9,1153.6 1251.5,1174.2 1244.4,1192.9 1235.5,1209.6 1224.8,1224.5 1212.3,1237.5 1198.0,1248.9 1181.7,1258.5 1163.4,1266.5 1143.0,1272.8 1120.4,1277.5 1095.5,1280.5 1068.3,1281.8 1038.5,1281.5 1006.0,1279.4 970.8,1275.6 932.5,1269.9 891.1,1262.3 846.3,1252.7 798.0,1241.1 746.0,1227.2 690.0,1211.1 629.8,1192.6 565.1,1171.5 495.7,1147.7  Z" style="stroke-width: 2.0;  stroke: rgb(82,82,82); fill: rgb(255,0,0); opacity: 0.667;" />
<path d="M 495.745,1147.722 A 1064.250,1064.250 0.00 0,1 497.1,1143.9 L 497.1,1143.9 567.0,1167.6 633.5,1188.0 696.8,1205.4 757.1,1220.0 814.5,1232.2 869.4,1242.0 921.8,1249.8 972.0,1255.7 1020.2,1259.9 1066.4,1262.6 1111.0,1264.0 1154.1,1264.0 1195.8,1262.9 1236.3,1260.8 1275.9,1257.7 1314.5,1253.6 1352.5,1248.7 1389.9,1242.9 1427.0,1236.3 1463.7,1228.7 1500.4,1220.3 1537.1,1211.0 1574.0,1200.6 1611.1,1189.2 1648.7,1176.5 1686.8,1162.6 1725.7,1147.3 1765.2,1130.3 1805.7,1111.6 1847.2,1091.0 1889.9,1068.2 1933.7,1043.1 1978.9,1015.3 2025.5,984.8 2073.6,951.1 2123.3,914.0 2174.7,873.2 2227.9,828.3 2282.9,779.1  A 1064.250,1064.250 0.00 0,0 2280.5,776.5 L 2280.5,776.5 2225.6,825.9 2172.6,870.9 2121.3,911.9 2071.7,949.1 2023.7,983.0 1977.3,1013.7 1932.2,1041.6 1888.4,1066.9 1845.8,1089.8 1804.4,1110.6 1764.0,1129.4 1724.4,1146.5 1685.7,1162.0 1647.6,1176.1 1610.0,1188.8 1572.9,1200.4 1536.1,1210.9 1499.4,1220.4 1462.8,1228.9 1426.0,1236.6 1389.0,1243.4 1351.6,1249.3 1313.7,1254.3 1275.0,1258.5 1235.5,1261.8 1194.9,1264.1 1153.2,1265.3 1110.1,1265.4 1065.5,1264.3 1019.3,1261.8 971.1,1257.7 920.9,1252.0 868.4,1244.4 813.5,1234.8 756.0,1222.9 695.7,1208.5 632.3,1191.3 565.7,1171.2 495.7,1147.7  Z" style="stroke-width: 2.0;  stroke: rgb(82,82,82); fill: rgb(255,0,204); opacity: 0.667;" />
<path d="M 495.745,1147.722 A 1064.250,1064.250 0.00 0,1 497.1,1143.9 L 497.1,1143.9 567.1,1167.6 633.8,1188.0 697.4,1205.3 758.1,1220.0 816.1,1232.1 871.5,1242.1 924.7,1250.0 975.6,1256.1 1024.6,1260.7 1071.8,1263.8 1117.4,1265.6 1161.5,1266.2 1204.3,1265.9 1246.0,1264.6 1286.7,1262.5 1326.7,1259.7 1366.0,1256.1 1404.9,1251.8 1443.4,1246.9 1481.7,1241.3 1520.0,1235.0 1558.5,1227.9 1597.1,1220.1 1636.2,1211.4 1675.9,1201.7 1716.2,1191.0 1757.3,1179.0 1799.4,1165.7 1842.5,1150.9 1886.8,1134.4 1932.5,1116.1 1979.5,1095.6 2028.2,1072.8 2078.5,1047.3 2130.5,1019.1 2184.5,987.6 2240.4,952.8 2298.5,914.1 2358.7,871.4  A 1064.250,1064.250 0.00 0,0 2356.4,868.2 L 2356.4,868.2 2296.4,911.2 2238.4,950.1 2182.6,985.2 2128.8,1016.8 2076.8,1045.2 2026.6,1070.8 1978.1,1093.8 1931.1,1114.5 1885.5,1133.0 1841.2,1149.7 1798.2,1164.6 1756.1,1178.1 1715.1,1190.2 1674.8,1201.1 1635.2,1210.9 1596.1,1219.8 1557.4,1227.7 1519.0,1234.9 1480.7,1241.4 1442.4,1247.1 1403.9,1252.2 1365.1,1256.6 1325.8,1260.4 1285.9,1263.4 1245.1,1265.6 1203.4,1267.0 1160.6,1267.5 1116.5,1267.0 1070.9,1265.4 1023.7,1262.5 974.7,1258.1 923.7,1252.2 870.5,1244.5 815.0,1234.8 757.0,1222.8 696.3,1208.4 632.6,1191.3 565.8,1171.2 495.7,1147.7  Z" style="stroke-width: 2.0;  stroke: rgb(82,82,82); fill: rgb(255,204,204); opacity: 0.667;" />
<path d="M 495.745,1147.722 A 1064.250,1064.250 0.00 0,1 497.1,1143.9 L 497.1,1143.9 567.2,1167.6 634.1,1188.0 698.1,1205.3 759.3,1220.0 817.9,1232.3 874.1,1242.4 928.0,1250.5 979.9,1257.0 1029.9,1262.0 1078.1,1265.6 1124.8,1268.2 1170.1,1269.7 1214.1,1270.4 1257.1,1270.4 1299.2,1269.7 1340.5,1268.4 1381.2,1266.7 1421.6,1264.5 1461.6,1261.8 1501.6,1258.8 1541.6,1255.3 1581.7,1251.3 1622.3,1246.8 1663.3,1241.7 1705.0,1236.0 1747.5,1229.5 1790.9,1222.0 1835.4,1213.6 1881.1,1204.0 1928.3,1193.0 1976.9,1180.4 2027.2,1166.1 2079.2,1149.8 2133.2,1131.3 2189.3,1110.2 2247.5,1086.4 2308.1,1059.4 2371.2,1029.1 2436.8,995.0  A 1064.250,1064.250 0.00 0,0 2434.9,991.6 L 2434.9,991.6 2369.4,1025.9 2306.5,1056.5 2246.0,1083.7 2187.9,1107.7 2131.9,1129.0 2077.9,1147.7 2025.9,1164.2 1975.7,1178.7 1927.1,1191.4 1880.1,1202.6 1834.4,1212.4 1789.9,1221.0 1746.5,1228.6 1704.0,1235.2 1662.4,1241.1 1621.3,1246.4 1580.8,1251.0 1540.6,1255.1 1500.7,1258.8 1460.7,1262.0 1420.7,1264.8 1380.4,1267.2 1339.6,1269.0 1298.3,1270.5 1256.2,1271.3 1213.3,1271.5 1169.2,1271.0 1123.9,1269.6 1077.2,1267.2 1029.0,1263.8 979.0,1259.0 927.1,1252.7 873.1,1244.7 816.9,1234.9 758.2,1222.8 697.0,1208.4 632.9,1191.3 565.9,1171.1 495.7,1147.7  Z" style="stroke-width: 2.0;  stroke: rgb(82,82,82); fill: rgb(255,153,0); opacity: 0.667;" />
<path d="M 495.745,1147.722 A 1064.250,1064.250 0.00 0,1 497.1,1143.9 L 497.1,1143.9 567.2,1167.6 634.1,1188.0 698.2,1205.3 759.5,1220.0 818.2,1232.3 874.4,1242.4 928.5,1250.6 980.5,1257.1 1030.6,1262.2 1079.0,1265.9 1125.8,1268.6 1171.2,1270.2 1215.4,1271.1 1258.5,1271.2 1300.8,1270.7 1342.3,1269.7 1383.2,1268.2 1423.7,1266.3 1464.0,1264.0 1504.1,1261.3 1544.3,1258.2 1584.7,1254.7 1625.4,1250.7 1666.7,1246.1 1708.6,1240.9 1751.3,1235.0 1795.0,1228.2 1839.8,1220.5 1885.9,1211.6 1933.3,1201.4 1982.3,1189.7 2032.9,1176.3 2085.4,1160.9 2139.8,1143.3 2196.3,1123.3 2255.1,1100.5 2316.2,1074.7 2379.9,1045.6 2446.1,1012.7  A 1064.250,1064.250 0.00 0,0 2444.3,1009.2 L 2444.3,1009.2 2378.2,1042.4 2314.7,1071.8 2253.6,1097.8 2195.0,1120.8 2138.5,1141.0 2084.1,1158.8 2031.7,1174.3 1981.1,1187.9 1932.2,1199.8 1884.8,1210.2 1838.8,1219.3 1794.0,1227.2 1750.4,1234.1 1707.7,1240.2 1665.8,1245.5 1624.5,1250.2 1583.8,1254.4 1543.4,1258.1 1503.2,1261.3 1463.1,1264.2 1422.8,1266.6 1382.3,1268.7 1341.4,1270.3 1299.9,1271.5 1257.7,1272.2 1214.6,1272.2 1170.3,1271.5 1124.9,1270.0 1078.1,1267.5 1029.7,1264.0 979.6,1259.1 927.6,1252.8 873.5,1244.8 817.1,1234.9 758.4,1222.9 697.1,1208.4 633.0,1191.3 565.9,1171.1 495.7,1147.7  Z" style="stroke-width: 2.0;  stroke: rgb(82,82,82); fill: rgb(255,204,0); opacity: 0.667;" />
<path d="M 495.745,1147.722 A 1064.250,1064.250 0.00 0,1 497.1,1143.9 L 497.1,1143.9 566.1,1168.3 630.0,1190.6 689.0,1210.9 743.4,1229.3 793.3,1245.9 839.1,1260.8 880.8,1274.0 918.8,1285.7 953.1,1295.9 983.9,1304.7 1011.5,1312.0 1035.8,1318.0 1057.1,1322.7 1075.4,1326.0 1090.8,1328.2 1103.4,1329.1 1113.3,1328.7 1120.5,1327.1 1125.1,1324.3 1127.0,1320.3 1126.3,1315.0 1123.0,1308.4 1117.0,1300.5 1108.3,1291.3 1096.9,1280.7 1082.7,1268.6 1065.7,1255.1 1045.7,1240.0 1022.6,1223.3 996.3,1204.9 966.8,1184.7 933.7,1162.7 897.1,1138.7 856.6,1112.6 812.2,1084.4 763.6,1053.9 710.6,1021.0 653.0,985.5 590.5,947.4  A 1064.250,1064.250 0.00 0,0 588.5,950.7 L 588.5,950.7 651.1,988.6 708.8,1023.9 762.0,1056.6 810.7,1086.9 855.2,1115.0 895.8,1140.9 932.5,1164.8 965.6,1186.7 995.3,1206.7 1021.6,1225.1 1044.7,1241.7 1064.8,1256.7 1081.9,1270.2 1096.1,1282.2 1107.6,1292.7 1116.3,1301.9 1122.3,1309.8 1125.6,1316.4 1126.3,1321.7 1124.4,1325.7 1119.9,1328.6 1112.7,1330.2 1102.8,1330.6 1090.2,1329.7 1074.7,1327.7 1056.4,1324.3 1035.1,1319.7 1010.8,1313.8 983.2,1306.6 952.3,1298.0 918.0,1287.9 880.0,1276.4 838.2,1263.3 792.4,1248.6 742.3,1232.2 687.9,1213.9 628.8,1193.9 564.9,1171.8 495.7,1147.7  Z" style="stroke-width: 2.0;  stroke: rgb(82,82,82); fill: rgb(255,255,0); opacity: 0.667;" />
<path d="M 495.745,1147.722 A 1064.250,1064.250 0.00 0,1 497.1,1143.9 L 497.1,1143.9 566.3,1169.6 630.8,1195.7 691.0,1222.2 747.1,1249.0 799.5,1275.9 848.4,1303.0 894.2,1330.1 937.2,1357.3 977.5,1384.5 1015.4,1411.6 1051.2,1438.8 1085.0,1466.0 1117.1,1493.2 1147.7,1520.5 1176.9,1547.8 1204.9,1575.3 1231.9,1603.1 1258.0,1631.1 1283.2,1659.5 1307.8,1688.4 1331.8,1717.9 1355.3,1748.1 1378.4,1779.2 1401.0,1811.2 1423.4,1844.5 1445.4,1879.0 1467.1,1915.1 1488.5,1952.8 1509.6,1992.5 1530.3,2034.3 1550.7,2078.4 1570.7,2125.2 1590.1,2174.7 1609.0,2227.4 1627.2,2283.4 1644.6,2343.1 1661.1,2406.7 1676.6,2474.6 1690.8,2547.0  A 1064.250,1064.250 0.00 0,0 1694.8,2546.3 L 1694.8,2546.3 1680.3,2473.9 1664.5,2406.1 1647.8,2342.5 1630.2,2282.9 1611.7,2226.9 1592.7,2174.4 1573.0,2124.9 1552.9,2078.2 1532.4,2034.2 1511.5,1992.5 1490.2,1952.9 1468.7,1915.2 1446.8,1879.2 1424.7,1844.8 1402.2,1811.6 1379.4,1779.6 1356.3,1748.7 1332.7,1718.5 1308.5,1689.1 1283.9,1660.3 1258.5,1632.0 1232.3,1604.1 1205.2,1576.5 1177.1,1549.1 1147.8,1521.8 1117.1,1494.7 1084.9,1467.6 1050.9,1440.5 1015.0,1413.5 977.0,1386.5 936.6,1359.4 893.6,1332.4 847.7,1305.5 798.6,1278.6 746.2,1251.9 689.9,1225.3 629.7,1199.1 565.1,1173.2 495.7,1147.7  Z" style="stroke-width: 2.0;  stroke: rgb(82,82,82); fill: rgb(204,255,0); opacity: 0.667;" />
<path d="M 2077.689,606.186 A 1064.250,1064.250 0.00 0,1 2083.2,609.8 L 2083.2,609.8 2042.9,670.9 2005.3,727.2 1970.2,778.9 1937.6,826.2 1907.3,869.4 1879.2,908.6 1853.1,944.1 1829.0,976.0 1806.7,1004.4 1786.2,1029.5 1767.4,1051.5 1750.2,1070.5 1734.5,1086.5 1720.3,1099.6 1707.4,1110.0 1695.9,1117.7 1685.7,1122.6 1676.7,1125.0 1668.9,1124.7 1662.2,1121.8 1656.7,1116.2 1652.4,1108.0 1649.1,1097.1 1647.0,1083.5 1645.9,1067.0 1646.0,1047.6 1647.2,1025.2 1649.5,999.7 1653.0,971.0 1657.6,938.9 1663.5,903.3 1670.7,863.9 1679.2,820.7 1689.0,773.5 1700.3,721.9 1713.1,665.9 1727.5,605.1 1743.5,539.4 1761.3,468.3  A 1064.250,1064.250 0.00 0,0 1754.9,466.7 L 1754.9,466.7 1737.6,537.9 1722.0,603.7 1708.0,664.6 1695.5,720.7 1684.5,772.3 1675.0,819.7 1666.8,862.9 1659.8,902.3 1654.2,937.9 1649.7,970.0 1646.4,998.8 1644.2,1024.3 1643.2,1046.7 1643.3,1066.1 1644.4,1082.6 1646.6,1096.2 1650.0,1107.1 1654.4,1115.3 1659.9,1120.8 1666.5,1123.7 1674.3,1123.9 1683.3,1121.5 1693.5,1116.5 1705.0,1108.7 1717.8,1098.3 1731.9,1085.0 1747.5,1068.9 1764.6,1049.9 1783.3,1027.8 1803.6,1002.5 1825.7,973.9 1849.6,941.9 1875.5,906.3 1903.4,866.9 1933.5,823.5 1965.8,776.0 2000.5,724.1 2037.8,667.6 2077.7,606.2  Z" style="stroke-width: 2.0;  stroke: rgb(82,82,82); fill: rgb(0,255,0); opacity: 0.667;" />
<path d="M 2230.690,726.230 A 1064.250,1064.250 0.00 0,1 2233.6,729.0 L 2233.6,729.0 2182.5,781.7 2134.2,829.8 2088.5,873.6 2045.2,913.3 2004.3,949.2 1965.4,981.4 1928.6,1010.1 1893.6,1035.6 1860.5,1058.0 1828.9,1077.5 1798.9,1094.1 1770.2,1108.0 1742.9,1119.3 1716.7,1128.2 1691.6,1134.6 1667.4,1138.6 1644.1,1140.3 1621.6,1139.7 1599.8,1136.9 1578.6,1131.7 1557.9,1124.2 1537.7,1114.4 1517.8,1102.1 1498.3,1087.4 1478.9,1070.2 1459.8,1050.3 1440.7,1027.6 1421.7,1002.0 1402.7,973.5 1383.6,941.7 1364.5,906.5 1345.2,867.8 1325.7,825.3 1306.1,778.8 1286.2,728.1 1266.1,673.0 1245.7,613.0 1225.0,548.1 1204.0,477.7  A 1064.250,1064.250 0.00 0,0 1200.2,478.9 L 1200.2,478.9 1221.5,549.1 1242.4,614.0 1263.0,673.8 1283.3,728.9 1303.4,779.6 1323.2,826.0 1342.8,868.4 1362.3,907.0 1381.5,942.1 1400.7,973.8 1419.8,1002.3 1438.9,1027.8 1458.1,1050.4 1477.3,1070.3 1496.7,1087.4 1516.4,1102.1 1536.3,1114.2 1556.5,1124.0 1577.3,1131.4 1598.5,1136.5 1620.3,1139.3 1642.8,1139.8 1666.1,1138.0 1690.2,1133.9 1715.3,1127.4 1741.4,1118.4 1768.8,1107.0 1797.4,1093.0 1827.3,1076.2 1858.8,1056.7 1891.9,1034.2 1926.8,1008.6 1963.5,979.7 2002.2,947.3 2043.1,911.3 2086.2,871.4 2131.7,827.5 2179.9,779.1 2230.7,726.2  Z" style="stroke-width: 2.0;  stroke: rgb(82,82,82); fill: rgb(53,128,0); opacity: 0.667;" />
<path d="M 684.790,2184.150 A 1064.250,1064.250 0.00 0,1 683.0,2182.0 L 683.0,2182.0 738.9,2134.1 790.1,2088.0 836.8,2043.6 879.5,2000.8 918.3,1959.5 953.5,1919.5 985.3,1880.8 1014.1,1843.4 1040.0,1807.0 1063.1,1771.7 1083.8,1737.2 1102.1,1703.5 1118.2,1670.5 1132.2,1638.1 1144.3,1606.2 1154.5,1574.6 1162.9,1543.2 1169.7,1512.0 1174.7,1480.7 1178.1,1449.4 1179.8,1417.8 1180.0,1385.8 1178.4,1353.4 1175.2,1320.3 1170.2,1286.5 1163.4,1251.8 1154.8,1216.2 1144.1,1179.4 1131.2,1141.3 1116.1,1101.8 1098.6,1060.8 1078.5,1018.0 1055.7,973.4 1029.8,926.9 1000.7,878.2 968.2,827.3 932.0,773.9 891.9,718.0 847.5,659.3  A 1064.250,1064.250 0.00 0,0 845.2,661.0 L 845.2,661.0 889.8,719.6 930.1,775.4 966.4,828.7 999.1,879.6 1028.3,928.2 1054.3,974.6 1077.3,1019.1 1097.5,1061.8 1115.1,1102.8 1130.3,1142.3 1143.2,1180.3 1154.0,1217.1 1162.8,1252.7 1169.7,1287.4 1174.7,1321.2 1178.0,1354.2 1179.6,1386.7 1179.6,1418.6 1177.9,1450.2 1174.6,1481.6 1169.7,1512.8 1163.1,1544.1 1154.7,1575.5 1144.6,1607.1 1132.6,1639.1 1118.7,1671.6 1102.6,1704.6 1084.4,1738.3 1063.9,1772.8 1040.8,1808.3 1015.0,1844.7 986.3,1882.2 954.6,1921.0 919.5,1961.0 880.8,2002.5 838.3,2045.4 791.7,2089.9 740.6,2136.2 684.8,2184.2  Z" style="stroke-width: 2.0;  stroke: rgb(82,82,82); fill: rgb(0,0,204); opacity: 0.667;" />
<path d="M 2438.265,2002.281 A 1064.250,1064.250 0.00 0,1 2436.9,2004.7 L 2436.9,2004.7 2372.5,1970.0 2313.0,1937.9 2258.0,1908.4 2207.6,1881.2 2161.3,1856.3 2119.0,1833.6 2080.5,1812.9 2045.7,1794.1 2014.3,1777.3 1986.3,1762.2 1961.4,1748.9 1939.6,1737.2 1920.8,1727.1 1904.8,1718.6 1891.6,1711.5 1881.1,1706.0 1873.3,1701.8 1868.1,1699.1 1865.5,1697.8 1865.5,1697.9 1868.0,1699.3 1873.1,1702.2 1880.9,1706.5 1891.2,1712.2 1904.4,1719.4 1920.2,1728.1 1939.0,1738.4 1960.7,1750.3 1985.4,1763.8 2013.4,1779.0 2044.6,1796.1 2079.4,1815.0 2117.7,1835.9 2159.9,1858.9 2206.1,1884.0 2256.4,1911.4 2311.2,1941.2 2370.6,1973.5 2434.9,2008.5  A 1064.250,1064.250 0.00 0,0 2436.2,2006.1 L 2436.2,2006.1 2371.8,1971.2 2312.3,1939.1 2257.5,1909.4 2207.1,1882.1 2160.8,1857.1 2118.6,1834.3 2080.2,1813.5 2045.4,1794.6 2014.1,1777.7 1986.1,1762.5 1961.3,1749.1 1939.6,1737.3 1920.8,1727.0 1904.9,1718.4 1891.8,1711.2 1881.4,1705.5 1873.6,1701.2 1868.5,1698.4 1866.0,1696.9 1866.0,1696.8 1868.6,1698.1 1873.8,1700.9 1881.7,1705.0 1892.2,1710.5 1905.4,1717.5 1921.4,1726.0 1940.3,1736.0 1962.1,1747.7 1987.0,1760.9 2015.1,1775.9 2046.5,1792.7 2081.3,1811.3 2119.9,1831.9 2162.2,1854.6 2208.6,1879.4 2259.1,1906.4 2314.1,1935.8 2373.7,1967.7 2438.3,2002.3  Z" style="stroke-width: 2.0;  stroke: rgb(82,82,82); fill: rgb(102,153,255); opacity: 0.667;" />
<path d="M 1171.282,487.788 A 1064.250,1064.250 0.00 0,1 1179.7,485.1 L 1179.7,485.1 1202.3,554.9 1224.5,619.3 1246.1,678.7 1267.3,733.3 1288.1,783.4 1308.5,829.3 1328.6,871.1 1348.4,909.2 1367.9,943.7 1387.2,974.7 1406.3,1002.5 1425.3,1027.3 1444.3,1049.1 1463.2,1068.0 1482.2,1084.3 1501.4,1098.0 1520.7,1109.1 1540.3,1117.8 1560.2,1124.0 1580.5,1127.8 1601.4,1129.3 1622.8,1128.3 1644.8,1125.0 1667.6,1119.2 1691.2,1111.0 1715.8,1100.2 1741.4,1086.7 1768.1,1070.6 1796.0,1051.6 1825.3,1029.7 1856.0,1004.7 1888.2,976.4 1922.1,944.7 1957.8,909.4 1995.4,870.3 2035.0,827.1 2076.7,779.6 2120.8,727.7 2167.2,670.9  A 1064.250,1064.250 0.00 0,0 2160.3,665.4 L 2160.3,665.4 2114.4,722.6 2070.8,774.9 2029.4,822.7 1990.1,866.2 1952.9,905.6 1917.5,941.2 1883.9,973.2 1851.8,1001.8 1821.4,1027.0 1792.3,1049.2 1764.5,1068.4 1738.0,1084.8 1712.5,1098.4 1688.0,1109.4 1664.5,1117.8 1641.7,1123.8 1619.7,1127.3 1598.3,1128.4 1577.5,1127.2 1557.1,1123.5 1537.1,1117.4 1517.5,1109.0 1498.0,1098.0 1478.8,1084.5 1459.6,1068.4 1440.5,1049.5 1421.4,1027.9 1402.2,1003.3 1382.8,975.7 1363.3,944.8 1343.5,910.5 1323.4,872.6 1303.0,830.9 1282.2,785.2 1261.0,735.3 1239.3,680.8 1217.2,621.6 1194.5,557.4 1171.3,487.8  Z" style="stroke-width: 2.0;  stroke: rgb(82,82,82); fill: rgb(153,204,255); opacity: 0.667;" />
<path d="M 1745.211,464.384 A 1064.250,1064.250 0.00 0,1 1748.9,465.3 L 1748.9,465.3 1731.9,536.5 1716.6,602.4 1702.8,663.3 1690.4,719.4 1679.5,770.9 1669.8,818.1 1661.5,861.2 1654.3,900.4 1648.4,935.9 1643.5,967.7 1639.8,996.2 1637.1,1021.4 1635.5,1043.4 1634.9,1062.3 1635.4,1078.4 1636.8,1091.5 1639.2,1101.8 1642.7,1109.4 1647.2,1114.2 1652.7,1116.4 1659.3,1115.9 1667.0,1112.6 1675.8,1106.7 1685.7,1098.0 1696.9,1086.5 1709.3,1072.1 1723.0,1054.8 1738.0,1034.5 1754.6,1011.0 1772.6,984.3 1792.2,954.1 1813.4,920.5 1836.4,883.1 1861.3,841.8 1888.1,796.4 1917.0,746.8 1948.0,692.6 1981.3,633.7 2017.1,569.8  A 1064.250,1064.250 0.00 0,0 2014.3,568.2 L 2014.3,568.2 1978.7,632.3 1945.6,691.3 1914.7,745.5 1886.0,795.3 1859.3,840.7 1834.6,882.1 1811.7,919.5 1790.5,953.3 1771.0,983.5 1753.1,1010.2 1736.6,1033.8 1721.6,1054.1 1707.9,1071.5 1695.6,1085.9 1684.4,1097.4 1674.5,1106.1 1665.7,1112.1 1658.0,1115.4 1651.5,1115.9 1645.9,1113.8 1641.4,1108.9 1637.9,1101.4 1635.4,1091.0 1633.9,1077.9 1633.4,1061.9 1633.9,1042.9 1635.5,1020.9 1638.0,995.7 1641.7,967.2 1646.4,935.3 1652.2,899.9 1659.2,860.7 1667.4,817.5 1676.9,770.3 1687.7,718.7 1699.8,662.6 1713.4,601.6 1728.5,535.7 1745.2,464.4  Z" style="stroke-width: 2.0;  stroke: rgb(82,82,82); fill: rgb(0,255,255); opacity: 0.667;" />
</g>
<defs>
<pattern id="hline-sparse" width="10" height="10" patternTransform="rotate(0 0 0)" patternUnits="userSpaceOnUse"><line x1="0" y1="0" x2="10" y2="0" style="stroke:black;stroke-width:2" /></pattern>
<pattern id="checker" width="10" height="10" patternTransform="rotate(45 0 0)" patternUnits="userSpaceOnUse"><line x1="0" y1="0" x2="10" y2="0" style="stroke:black;stroke-width:2" /><line x1="0" y1="0" x2="0" y2="10" style="stroke:black;stroke-width:2" /></pattern>
<pattern id="checker" width="10" height="10" patternTransform="rotate(45 0 0)" patternUnits="userSpaceOnUse"><line x1="0" y1="0" x2="10" y2="0" style="stroke:black;stroke-width:5" /><line x1="0" y1="0" x2="0" y2="10" style="stroke:black;stroke-width:4" /></pattern>
<pattern id="hline" width="10" height="10" patternTransform="rotate(0 0 0)" patternUnits="userSpaceOnUse"><line x1="0" y1="0" x2="10" y2="0" style="stroke:black;stroke-width:5" /></pattern>
<pattern id="vline-sparse" width="10" height="10" patternTransform="rotate(0 0 0)" patternUnits="userSpaceOnUse"><line x1="0" y1="0" x2="0" y2="10" style="stroke:black;stroke-width:2" /></pattern>
<pattern id="vline" width="10" height="10" patternTransform="rotate(0 0 0)" patternUnits="userSpaceOnUse"><line x1="0" y1="0" x2="0" y2="10" style="stroke:black;stroke-width:5" /></pattern>
</defs>
</svg>
