<?xml version="1.0" encoding="utf-8" standalone="no"?>
<!DOCTYPE svg PUBLIC "-//W3C//DTD SVG 1.1//EN" "http://www.w3.org/Graphics/SVG/1.1/DTD/svg11.dtd">
<svg width="3000px" height="3000px" version="1.1" xmlns="http://www.w3.org/2000/svg" xmlns:xlink="http://www.w3.org/1999/xlink">
<g id="ideograms">
<path d="M1500.000,425.000 A1075.000,1075.000 40.000 0,1 1772.551,460.125 L1785.228,411.758 A1125.000,1125.000 0.000 0,0 1500.000,375.000 Z" style="stroke-linecap:round;fill:rgb(116,196,118);fill-opacity:0.33;" />
<text x="1664.7" y="296.2" font-size="18.2px" font-family="CMUBright-Roman" style="text-anchor:start;fill:rgb(0,0,0);" transform="rotate(277.3,1664.7,296.2)" >R<tspan baseline-shift="-40%" font-size="90%">s</tspan>caffold<tspan baseline-shift="-40%" font-size="90%">7</tspan></text>
<line x1='1500.0' y1='375.0' x2='1500.0' y2='355.0' style="stroke-width:4.0;stroke:rgb(0,0,0);stroke-linecap:round;fill:none;" />
<text x="1506.5" y="345.0" font-size="18.2px" font-family="CMUBright-Roman" style="text-anchor:start;fill:rgb(0,0,0);" transform="rotate(270.0,1506.5,345.0)" >0</text>
<line x1='1561.8' y1='376.7' x2='1562.9' y2='356.7' style="stroke-width:4.0;stroke:rgb(0,0,0);stroke-linecap:round;fill:none;" />
<text x="1570.0" y="347.1" font-size="18.2px" font-family="CMUBright-Roman" style="text-anchor:start;fill:rgb(0,0,0);" transform="rotate(273.2,1570.0,347.1)" >50</text>
<line x1='1623.5' y1='381.8' x2='1625.6' y2='361.9' style="stroke-width:4.0;stroke:rgb(0,0,0);stroke-linecap:round;fill:none;" />
<text x="1633.2" y="352.7" font-size="18.2px" font-family="CMUBright-Roman" style="text-anchor:start;fill:rgb(0,0,0);" transform="rotate(276.3,1633.2,352.7)" >100</text>
<line x1='1684.7' y1='390.3' x2='1688.0' y2='370.5' style="stroke-width:4.0;stroke:rgb(0,0,0);stroke-linecap:round;fill:none;" />
<text x="1696.1" y="361.8" font-size="18.2px" font-family="CMUBright-Roman" style="text-anchor:start;fill:rgb(0,0,0);" transform="rotate(279.5,1696.1,361.8)" >150</text>
<line x1='1745.4' y1='402.1' x2='1749.8' y2='382.6' style="stroke-width:4.0;stroke:rgb(0,0,0);stroke-linecap:round;fill:none;" />
<text x="1758.3" y="374.3" font-size="18.2px" font-family="CMUBright-Roman" style="text-anchor:start;fill:rgb(0,0,0);" transform="rotate(282.6,1758.3,374.3)" >200</text>
<g id="highlighttrack_0">
<path d="M1737.335,451.526 A1075.000,1075.000 40.000 0,1 1740.882,452.336 L1752.086,403.607 A1125.000,1125.000 0.000 0,0 1748.374,402.760 Z" style="stroke-width:4.0;stroke:rgb(0,0,0);stroke-linecap:round;fill:rgb(116,196,118);" />
<path d="M1746.760,453.705 A1075.000,1075.000 40.000 0,1 1752.922,455.177 L1764.685,406.580 A1125.000,1125.000 0.000 0,0 1758.238,405.040 Z" style="stroke-width:4.0;stroke:rgb(0,0,0);stroke-linecap:round;fill:rgb(116,196,118);" />
</g>
<path d="M1833.676,478.097 A1075.000,1075.000 40.000 0,1 2005.616,551.329 L2029.133,507.204 A1125.000,1125.000 0.000 0,0 1849.195,430.567 Z" style="stroke-linecap:round;fill:rgb(116,196,118);fill-opacity:0.33;" />
<text x="1984.8" y="385.9" font-size="18.2px" font-family="CMUBright-Roman" style="text-anchor:start;fill:rgb(0,0,0);" transform="rotate(293.1,1984.8,385.9)" >R<tspan baseline-shift="-40%" font-size="90%">s</tspan>caffold<tspan baseline-shift="-40%" font-size="90%">1</tspan>2</text>
<line x1='1849.2' y1='430.6' x2='1855.4' y2='411.6' style="stroke-width:4.0;stroke:rgb(0,0,0);stroke-linecap:round;fill:none;" />
<text x="1864.7" y="404.1" font-size="18.2px" font-family="CMUBright-Roman" style="text-anchor:start;fill:rgb(0,0,0);" transform="rotate(288.1,1864.7,404.1)" >0</text>
<line x1='1907.4' y1='451.4' x2='1914.7' y2='432.7' style="stroke-width:4.0;stroke:rgb(0,0,0);stroke-linecap:round;fill:none;" />
<text x="1924.4" y="425.8" font-size="18.2px" font-family="CMUBright-Roman" style="text-anchor:start;fill:rgb(0,0,0);" transform="rotate(291.2,1924.4,425.8)" >50</text>
<line x1='1964.4' y1='475.3' x2='1972.7' y2='457.1' style="stroke-width:4.0;stroke:rgb(0,0,0);stroke-linecap:round;fill:none;" />
<text x="1982.7" y="450.7" font-size="18.2px" font-family="CMUBright-Roman" style="text-anchor:start;fill:rgb(0,0,0);" transform="rotate(294.4,1982.7,450.7)" >100</text>
<line x1='2020.0' y1='502.4' x2='2029.3' y2='484.7' style="stroke-width:4.0;stroke:rgb(0,0,0);stroke-linecap:round;fill:none;" />
<text x="2039.7" y="478.8" font-size="18.2px" font-family="CMUBright-Roman" style="text-anchor:start;fill:rgb(0,0,0);" transform="rotate(297.5,2039.7,478.8)" >150</text>
<g id="highlighttrack_0">
<path d="M2002.059,549.441 A1075.000,1075.000 40.000 0,1 2004.789,550.888 L2028.267,506.743 A1125.000,1125.000 0.000 0,0 2025.410,505.229 Z" style="stroke-width:4.0;stroke:rgb(0,0,0);stroke-linecap:round;fill:rgb(116,196,118);" />
</g>
<path d="M2060.928,582.948 A1075.000,1075.000 40.000 0,1 2087.935,600.023 L2115.281,558.164 A1125.000,1125.000 0.000 0,0 2087.018,540.294 Z" style="stroke-linecap:round;fill:rgb(116,196,118);fill-opacity:0.33;" />
<text x="2157.3" y="478.2" font-size="18.2px" font-family="CMUBright-Roman" style="text-anchor:start;fill:rgb(0,0,0);" transform="rotate(302.3,2157.3,478.2)" >R<tspan baseline-shift="-40%" font-size="90%">s</tspan>caffold<tspan baseline-shift="-40%" font-size="90%">2</tspan>6</text>
<line x1='2087.0' y1='540.3' x2='2097.5' y2='523.2' style="stroke-width:4.0;stroke:rgb(0,0,0);stroke-linecap:round;fill:none;" />
<text x="2108.2" y="518.1" font-size="18.2px" font-family="CMUBright-Roman" style="text-anchor:start;fill:rgb(0,0,0);" transform="rotate(301.5,2108.2,518.1)" >0</text>
<g id="highlighttrack_0">
<path d="M2066.910,586.634 A1075.000,1075.000 40.000 0,1 2072.288,589.994 L2098.906,547.668 A1125.000,1125.000 0.000 0,0 2093.278,544.151 Z" style="stroke-width:4.0;stroke:rgb(0,0,0);stroke-linecap:round;fill:rgb(116,196,118);" />
</g>
<path d="M2140.217,636.434 A1075.000,1075.000 40.000 0,1 2164.365,654.870 L2195.266,615.562 A1125.000,1125.000 0.000 0,0 2169.995,596.268 Z" style="stroke-linecap:round;fill:rgb(116,196,118);fill-opacity:0.33;" />
<text x="2244.8" y="540.1" font-size="18.2px" font-family="CMUBright-Roman" style="text-anchor:start;fill:rgb(0,0,0);" transform="rotate(307.4,2244.8,540.1)" >R<tspan baseline-shift="-40%" font-size="90%">s</tspan>caffold<tspan baseline-shift="-40%" font-size="90%">2</tspan>7</text>
<line x1='2170.0' y1='596.3' x2='2181.9' y2='580.2' style="stroke-width:4.0;stroke:rgb(0,0,0);stroke-linecap:round;fill:none;" />
<text x="2193.1" y="576.1" font-size="18.2px" font-family="CMUBright-Roman" style="text-anchor:start;fill:rgb(0,0,0);" transform="rotate(306.6,2193.1,576.1)" >0</text>
<g id="highlighttrack_0">
<path d="M2157.070,649.186 A1075.000,1075.000 40.000 0,1 2161.328,652.491 L2192.087,613.072 A1125.000,1125.000 0.000 0,0 2187.631,609.613 Z" style="stroke-width:4.0;stroke:rgb(0,0,0);stroke-linecap:round;fill:rgb(116,196,118);" />
</g>
<path d="M2213.264,695.712 A1075.000,1075.000 40.000 0,1 2216.388,698.493 L2249.708,661.214 A1125.000,1125.000 0.000 0,0 2246.439,658.303 Z" style="stroke-linecap:round;fill:rgb(116,196,118);fill-opacity:0.33;" />
<text x="2315.0" y="598.9" font-size="18.2px" font-family="CMUBright-Roman" style="text-anchor:start;fill:rgb(0,0,0);" transform="rotate(311.7,2315.0,598.9)" >R<tspan baseline-shift="-40%" font-size="90%">s</tspan>caffold<tspan baseline-shift="-40%" font-size="90%">3</tspan>4</text>
<line x1='2246.4' y1='658.3' x2='2259.7' y2='643.3' style="stroke-width:4.0;stroke:rgb(0,0,0);stroke-linecap:round;fill:none;" />
<text x="2271.2" y="640.2" font-size="18.2px" font-family="CMUBright-Roman" style="text-anchor:start;fill:rgb(0,0,0);" transform="rotate(311.6,2271.2,640.2)" >0</text>
<g id="highlighttrack_0">
<path d="M2213.308,695.751 A1075.000,1075.000 40.000 0,1 2216.077,698.215 L2249.383,660.923 A1125.000,1125.000 0.000 0,0 2246.485,658.344 Z" style="stroke-width:4.0;stroke:rgb(0,0,0);stroke-linecap:round;fill:rgb(251,106,74);" />
</g>
<path d="M2262.612,742.340 A1075.000,1075.000 40.000 1,1 1436.316,426.888 L1433.354,376.976 A1125.000,1125.000 0.000 1,0 2298.082,707.100 Z" style="stroke-linecap:round;fill:rgb(116,196,118);fill-opacity:0.33;" />
<text x="1075.5" y="2638.4" font-size="18.2px" font-family="CMUBright-Roman" style="text-anchor:end;fill:rgb(0,0,0);" transform="rotate(-69.1,1075.5,2638.4)" >NZ<tspan baseline-shift="-40%" font-size="90%">C</tspan>P062058.1</text>
<line x1='2298.1' y1='707.1' x2='2312.3' y2='693.0' style="stroke-width:4.0;stroke:rgb(0,0,0);stroke-linecap:round;fill:none;" />
<text x="2323.9" y="690.6" font-size="18.2px" font-family="CMUBright-Roman" style="text-anchor:start;fill:rgb(0,0,0);" transform="rotate(315.2,2323.9,690.6)" >0</text>
<line x1='2340.4' y1='752.2' x2='2355.4' y2='738.9' style="stroke-width:4.0;stroke:rgb(0,0,0);stroke-linecap:round;fill:none;" />
<text x="2367.2" y="737.1" font-size="18.2px" font-family="CMUBright-Roman" style="text-anchor:start;fill:rgb(0,0,0);" transform="rotate(318.3,2367.2,737.1)" >50</text>
<line x1='2380.3' y1='799.5' x2='2395.9' y2='787.0' style="stroke-width:4.0;stroke:rgb(0,0,0);stroke-linecap:round;fill:none;" />
<text x="2407.8" y="785.9" font-size="18.2px" font-family="CMUBright-Roman" style="text-anchor:start;fill:rgb(0,0,0);" transform="rotate(321.5,2407.8,785.9)" >100</text>
<line x1='2417.4' y1='848.9' x2='2433.7' y2='837.3' style="stroke-width:4.0;stroke:rgb(0,0,0);stroke-linecap:round;fill:none;" />
<text x="2445.7" y="836.8" font-size="18.2px" font-family="CMUBright-Roman" style="text-anchor:start;fill:rgb(0,0,0);" transform="rotate(324.6,2445.7,836.8)" >150</text>
<line x1='2451.8' y1='900.3' x2='2468.8' y2='889.6' style="stroke-width:4.0;stroke:rgb(0,0,0);stroke-linecap:round;fill:none;" />
<text x="2480.7" y="889.8" font-size="18.2px" font-family="CMUBright-Roman" style="text-anchor:start;fill:rgb(0,0,0);" transform="rotate(327.8,2480.7,889.8)" >200</text>
<line x1='2483.3' y1='953.5' x2='2500.8' y2='943.8' style="stroke-width:4.0;stroke:rgb(0,0,0);stroke-linecap:round;fill:none;" />
<text x="2512.7" y="944.6" font-size="18.2px" font-family="CMUBright-Roman" style="text-anchor:start;fill:rgb(0,0,0);" transform="rotate(330.9,2512.7,944.6)" >250</text>
<line x1='2511.9' y1='1008.4' x2='2529.9' y2='999.6' style="stroke-width:4.0;stroke:rgb(0,0,0);stroke-linecap:round;fill:none;" />
<text x="2541.7" y="1001.1" font-size="18.2px" font-family="CMUBright-Roman" style="text-anchor:start;fill:rgb(0,0,0);" transform="rotate(334.1,2541.7,1001.1)" >300</text>
<line x1='2537.4' y1='1064.7' x2='2555.8' y2='1057.0' style="stroke-width:4.0;stroke:rgb(0,0,0);stroke-linecap:round;fill:none;" />
<text x="2567.5" y="1059.1" font-size="18.2px" font-family="CMUBright-Roman" style="text-anchor:start;fill:rgb(0,0,0);" transform="rotate(337.2,2567.5,1059.1)" >350</text>
<line x1='2559.7' y1='1122.4' x2='2578.6' y2='1115.7' style="stroke-width:4.0;stroke:rgb(0,0,0);stroke-linecap:round;fill:none;" />
<text x="2590.2" y="1118.4" font-size="18.2px" font-family="CMUBright-Roman" style="text-anchor:start;fill:rgb(0,0,0);" transform="rotate(340.4,2590.2,1118.4)" >400</text>
<line x1='2578.9' y1='1181.2' x2='2598.1' y2='1175.5' style="stroke-width:4.0;stroke:rgb(0,0,0);stroke-linecap:round;fill:none;" />
<text x="2609.5" y="1178.9" font-size="18.2px" font-family="CMUBright-Roman" style="text-anchor:start;fill:rgb(0,0,0);" transform="rotate(343.5,2609.5,1178.9)" >450</text>
<line x1='2594.8' y1='1241.0' x2='2614.2' y2='1236.4' style="stroke-width:4.0;stroke:rgb(0,0,0);stroke-linecap:round;fill:none;" />
<text x="2625.4" y="1240.4" font-size="18.2px" font-family="CMUBright-Roman" style="text-anchor:start;fill:rgb(0,0,0);" transform="rotate(346.7,2625.4,1240.4)" >500</text>
<line x1='2607.4' y1='1301.5' x2='2627.0' y2='1298.0' style="stroke-width:4.0;stroke:rgb(0,0,0);stroke-linecap:round;fill:none;" />
<text x="2638.0" y="1302.6" font-size="18.2px" font-family="CMUBright-Roman" style="text-anchor:start;fill:rgb(0,0,0);" transform="rotate(349.8,2638.0,1302.6)" >550</text>
<line x1='2616.6' y1='1362.7' x2='2636.4' y2='1360.2' style="stroke-width:4.0;stroke:rgb(0,0,0);stroke-linecap:round;fill:none;" />
<text x="2647.1" y="1365.4" font-size="18.2px" font-family="CMUBright-Roman" style="text-anchor:start;fill:rgb(0,0,0);" transform="rotate(353.0,2647.1,1365.4)" >600</text>
<line x1='2622.4' y1='1424.2' x2='2642.4' y2='1422.9' style="stroke-width:4.0;stroke:rgb(0,0,0);stroke-linecap:round;fill:none;" />
<text x="2652.8" y="1428.7" font-size="18.2px" font-family="CMUBright-Roman" style="text-anchor:start;fill:rgb(0,0,0);" transform="rotate(356.1,2652.8,1428.7)" >650</text>
<line x1='2624.9' y1='1486.0' x2='2644.9' y2='1485.8' style="stroke-width:4.0;stroke:rgb(0,0,0);stroke-linecap:round;fill:none;" />
<text x="2655.0" y="1492.1" font-size="18.2px" font-family="CMUBright-Roman" style="text-anchor:start;fill:rgb(0,0,0);" transform="rotate(359.3,2655.0,1492.1)" >700</text>
<line x1='2624.0' y1='1547.9' x2='2644.0' y2='1548.7' style="stroke-width:4.0;stroke:rgb(0,0,0);stroke-linecap:round;fill:none;" />
<text x="2653.7" y="1555.6" font-size="18.2px" font-family="CMUBright-Roman" style="text-anchor:start;fill:rgb(0,0,0);" transform="rotate(2.4,2653.7,1555.6)" >750</text>
<line x1='2619.7' y1='1609.5' x2='2639.6' y2='1611.5' style="stroke-width:4.0;stroke:rgb(0,0,0);stroke-linecap:round;fill:none;" />
<text x="2648.9" y="1618.9" font-size="18.2px" font-family="CMUBright-Roman" style="text-anchor:start;fill:rgb(0,0,0);" transform="rotate(5.6,2648.9,1618.9)" >800</text>
<line x1='2611.9' y1='1670.9' x2='2631.7' y2='1673.9' style="stroke-width:4.0;stroke:rgb(0,0,0);stroke-linecap:round;fill:none;" />
<text x="2640.6" y="1681.9" font-size="18.2px" font-family="CMUBright-Roman" style="text-anchor:start;fill:rgb(0,0,0);" transform="rotate(8.7,2640.6,1681.9)" >850</text>
<line x1='2600.9' y1='1731.8' x2='2620.4' y2='1735.9' style="stroke-width:4.0;stroke:rgb(0,0,0);stroke-linecap:round;fill:none;" />
<text x="2628.9" y="1744.3" font-size="18.2px" font-family="CMUBright-Roman" style="text-anchor:start;fill:rgb(0,0,0);" transform="rotate(11.9,2628.9,1744.3)" >900</text>
<line x1='2586.5' y1='1791.9' x2='2605.8' y2='1797.1' style="stroke-width:4.0;stroke:rgb(0,0,0);stroke-linecap:round;fill:none;" />
<text x="2613.7" y="1806.0" font-size="18.2px" font-family="CMUBright-Roman" style="text-anchor:start;fill:rgb(0,0,0);" transform="rotate(15.0,2613.7,1806.0)" >950</text>
<line x1='2568.8' y1='1851.2' x2='2587.8' y2='1857.4' style="stroke-width:4.0;stroke:rgb(0,0,0);stroke-linecap:round;fill:none;" />
<text x="2595.2" y="1866.7" font-size="18.2px" font-family="CMUBright-Roman" style="text-anchor:start;fill:rgb(0,0,0);" transform="rotate(18.2,2595.2,1866.7)" >1000</text>
<line x1='2547.9' y1='1909.4' x2='2566.5' y2='1916.6' style="stroke-width:4.0;stroke:rgb(0,0,0);stroke-linecap:round;fill:none;" />
<text x="2573.4" y="1926.3" font-size="18.2px" font-family="CMUBright-Roman" style="text-anchor:start;fill:rgb(0,0,0);" transform="rotate(21.3,2573.4,1926.3)" >1050</text>
<line x1='2523.8' y1='1966.3' x2='2542.0' y2='1974.6' style="stroke-width:4.0;stroke:rgb(0,0,0);stroke-linecap:round;fill:none;" />
<text x="2548.4" y="1984.7" font-size="18.2px" font-family="CMUBright-Roman" style="text-anchor:start;fill:rgb(0,0,0);" transform="rotate(24.5,2548.4,1984.7)" >1100</text>
<line x1='2496.6' y1='2021.9' x2='2514.3' y2='2031.2' style="stroke-width:4.0;stroke:rgb(0,0,0);stroke-linecap:round;fill:none;" />
<text x="2520.2" y="2041.5" font-size="18.2px" font-family="CMUBright-Roman" style="text-anchor:start;fill:rgb(0,0,0);" transform="rotate(27.6,2520.2,2041.5)" >1150</text>
<line x1='2466.4' y1='2075.9' x2='2483.6' y2='2086.1' style="stroke-width:4.0;stroke:rgb(0,0,0);stroke-linecap:round;fill:none;" />
<text x="2488.9" y="2096.8" font-size="18.2px" font-family="CMUBright-Roman" style="text-anchor:start;fill:rgb(0,0,0);" transform="rotate(30.8,2488.9,2096.8)" >1200</text>
<line x1='2433.3' y1='2128.1' x2='2449.9' y2='2139.3' style="stroke-width:4.0;stroke:rgb(0,0,0);stroke-linecap:round;fill:none;" />
<text x="2454.6" y="2150.2" font-size="18.2px" font-family="CMUBright-Roman" style="text-anchor:start;fill:rgb(0,0,0);" transform="rotate(33.9,2454.6,2150.2)" >1250</text>
<line x1='2397.4' y1='2178.4' x2='2413.4' y2='2190.5' style="stroke-width:4.0;stroke:rgb(0,0,0);stroke-linecap:round;fill:none;" />
<text x="2417.4" y="2201.7" font-size="18.2px" font-family="CMUBright-Roman" style="text-anchor:start;fill:rgb(0,0,0);" transform="rotate(37.1,2417.4,2201.7)" >1300</text>
<line x1='2358.8' y1='2226.7' x2='2374.0' y2='2239.6' style="stroke-width:4.0;stroke:rgb(0,0,0);stroke-linecap:round;fill:none;" />
<text x="2377.5" y="2251.1" font-size="18.2px" font-family="CMUBright-Roman" style="text-anchor:start;fill:rgb(0,0,0);" transform="rotate(40.2,2377.5,2251.1)" >1350</text>
<line x1='2317.5' y1='2272.8' x2='2332.1' y2='2286.6' style="stroke-width:4.0;stroke:rgb(0,0,0);stroke-linecap:round;fill:none;" />
<text x="2334.9" y="2298.1" font-size="18.2px" font-family="CMUBright-Roman" style="text-anchor:start;fill:rgb(0,0,0);" transform="rotate(43.4,2334.9,2298.1)" >1400</text>
<line x1='2273.8' y1='2316.6' x2='2287.6' y2='2331.1' style="stroke-width:4.0;stroke:rgb(0,0,0);stroke-linecap:round;fill:none;" />
<text x="2289.7" y="2342.8" font-size="18.2px" font-family="CMUBright-Roman" style="text-anchor:start;fill:rgb(0,0,0);" transform="rotate(46.5,2289.7,2342.8)" >1450</text>
<line x1='2227.8' y1='2357.9' x2='2240.7' y2='2373.1' style="stroke-width:4.0;stroke:rgb(0,0,0);stroke-linecap:round;fill:none;" />
<text x="2242.2" y="2384.9" font-size="18.2px" font-family="CMUBright-Roman" style="text-anchor:start;fill:rgb(0,0,0);" transform="rotate(49.7,2242.2,2384.9)" >1500</text>
<line x1='2179.6' y1='2396.6' x2='2191.6' y2='2412.5' style="stroke-width:4.0;stroke:rgb(0,0,0);stroke-linecap:round;fill:none;" />
<text x="2192.5" y="2424.4" font-size="18.2px" font-family="CMUBright-Roman" style="text-anchor:start;fill:rgb(0,0,0);" transform="rotate(52.8,2192.5,2424.4)" >1550</text>
<line x1='2129.3' y1='2432.6' x2='2140.4' y2='2449.1' style="stroke-width:4.0;stroke:rgb(0,0,0);stroke-linecap:round;fill:none;" />
<text x="2140.6" y="2461.0" font-size="18.2px" font-family="CMUBright-Roman" style="text-anchor:start;fill:rgb(0,0,0);" transform="rotate(56.0,2140.6,2461.0)" >1600</text>
<line x1='2077.1' y1='2465.7' x2='2087.3' y2='2482.9' style="stroke-width:4.0;stroke:rgb(0,0,0);stroke-linecap:round;fill:none;" />
<text x="2086.9" y="2494.8" font-size="18.2px" font-family="CMUBright-Roman" style="text-anchor:start;fill:rgb(0,0,0);" transform="rotate(59.1,2086.9,2494.8)" >1650</text>
<line x1='2023.1' y1='2496.0' x2='2032.4' y2='2513.7' style="stroke-width:4.0;stroke:rgb(0,0,0);stroke-linecap:round;fill:none;" />
<text x="2031.3" y="2525.5" font-size="18.2px" font-family="CMUBright-Roman" style="text-anchor:start;fill:rgb(0,0,0);" transform="rotate(62.3,2031.3,2525.5)" >1700</text>
<line x1='1967.6' y1='2523.2' x2='1975.9' y2='2541.4' style="stroke-width:4.0;stroke:rgb(0,0,0);stroke-linecap:round;fill:none;" />
<text x="1974.2" y="2553.2" font-size="18.2px" font-family="CMUBright-Roman" style="text-anchor:start;fill:rgb(0,0,0);" transform="rotate(65.4,1974.2,2553.2)" >1750</text>
<line x1='1910.7' y1='2547.4' x2='1918.0' y2='2566.0' style="stroke-width:4.0;stroke:rgb(0,0,0);stroke-linecap:round;fill:none;" />
<text x="1915.6" y="2577.7" font-size="18.2px" font-family="CMUBright-Roman" style="text-anchor:start;fill:rgb(0,0,0);" transform="rotate(68.6,1915.6,2577.7)" >1800</text>
<line x1='1852.5' y1='2568.3' x2='1858.8' y2='2587.3' style="stroke-width:4.0;stroke:rgb(0,0,0);stroke-linecap:round;fill:none;" />
<text x="1855.7" y="2598.9" font-size="18.2px" font-family="CMUBright-Roman" style="text-anchor:start;fill:rgb(0,0,0);" transform="rotate(71.7,1855.7,2598.9)" >1850</text>
<line x1='1793.3' y1='2586.1' x2='1798.5' y2='2605.4' style="stroke-width:4.0;stroke:rgb(0,0,0);stroke-linecap:round;fill:none;" />
<text x="1794.8" y="2616.7" font-size="18.2px" font-family="CMUBright-Roman" style="text-anchor:start;fill:rgb(0,0,0);" transform="rotate(74.9,1794.8,2616.7)" >1900</text>
<line x1='1733.1' y1='2600.6' x2='1737.3' y2='2620.1' style="stroke-width:4.0;stroke:rgb(0,0,0);stroke-linecap:round;fill:none;" />
<text x="1733.0" y="2631.3" font-size="18.2px" font-family="CMUBright-Roman" style="text-anchor:start;fill:rgb(0,0,0);" transform="rotate(78.0,1733.0,2631.3)" >1950</text>
<line x1='1672.3' y1='2611.7' x2='1675.4' y2='2631.5' style="stroke-width:4.0;stroke:rgb(0,0,0);stroke-linecap:round;fill:none;" />
<text x="1670.5" y="2642.4" font-size="18.2px" font-family="CMUBright-Roman" style="text-anchor:start;fill:rgb(0,0,0);" transform="rotate(81.2,1670.5,2642.4)" >2000</text>
<line x1='1610.9' y1='2619.5' x2='1612.9' y2='2639.4' style="stroke-width:4.0;stroke:rgb(0,0,0);stroke-linecap:round;fill:none;" />
<text x="1607.4" y="2650.0" font-size="18.2px" font-family="CMUBright-Roman" style="text-anchor:start;fill:rgb(0,0,0);" transform="rotate(84.3,1607.4,2650.0)" >2050</text>
<line x1='1549.3' y1='2623.9' x2='1550.1' y2='2643.9' style="stroke-width:4.0;stroke:rgb(0,0,0);stroke-linecap:round;fill:none;" />
<text x="1544.1" y="2654.2" font-size="18.2px" font-family="CMUBright-Roman" style="text-anchor:start;fill:rgb(0,0,0);" transform="rotate(87.5,1544.1,2654.2)" >2100</text>
<line x1='1487.4' y1='2624.9' x2='1487.2' y2='2644.9' style="stroke-width:4.0;stroke:rgb(0,0,0);stroke-linecap:round;fill:none;" />
<text x="1493.6" y="2655.0" font-size="18.2px" font-family="CMUBright-Roman" style="text-anchor:end;fill:rgb(0,0,0);" transform="rotate(-89.4,1493.6,2655.0)" >2150</text>
<line x1='1425.6' y1='2622.5' x2='1424.3' y2='2642.5' style="stroke-width:4.0;stroke:rgb(0,0,0);stroke-linecap:round;fill:none;" />
<text x="1430.1" y="2652.9" font-size="18.2px" font-family="CMUBright-Roman" style="text-anchor:end;fill:rgb(0,0,0);" transform="rotate(-86.2,1430.1,2652.9)" >2200</text>
<line x1='1364.1' y1='2616.8' x2='1361.6' y2='2636.6' style="stroke-width:4.0;stroke:rgb(0,0,0);stroke-linecap:round;fill:none;" />
<text x="1366.9" y="2647.3" font-size="18.2px" font-family="CMUBright-Roman" style="text-anchor:end;fill:rgb(0,0,0);" transform="rotate(-83.1,1366.9,2647.3)" >2250</text>
<line x1='1302.9' y1='2607.6' x2='1299.4' y2='2627.3' style="stroke-width:4.0;stroke:rgb(0,0,0);stroke-linecap:round;fill:none;" />
<text x="1304.0" y="2638.3" font-size="18.2px" font-family="CMUBright-Roman" style="text-anchor:end;fill:rgb(0,0,0);" transform="rotate(-79.9,1304.0,2638.3)" >2300</text>
<line x1='1242.3' y1='2595.1' x2='1237.7' y2='2614.6' style="stroke-width:4.0;stroke:rgb(0,0,0);stroke-linecap:round;fill:none;" />
<text x="1241.8" y="2625.8" font-size="18.2px" font-family="CMUBright-Roman" style="text-anchor:end;fill:rgb(0,0,0);" transform="rotate(-76.8,1241.8,2625.8)" >2350</text>
<line x1='1182.5' y1='2579.3' x2='1176.9' y2='2598.5' style="stroke-width:4.0;stroke:rgb(0,0,0);stroke-linecap:round;fill:none;" />
<text x="1180.3" y="2609.9" font-size="18.2px" font-family="CMUBright-Roman" style="text-anchor:end;fill:rgb(0,0,0);" transform="rotate(-73.6,1180.3,2609.9)" >2400</text>
<line x1='1123.7' y1='2560.2' x2='1117.0' y2='2579.1' style="stroke-width:4.0;stroke:rgb(0,0,0);stroke-linecap:round;fill:none;" />
<text x="1119.8" y="2590.6" font-size="18.2px" font-family="CMUBright-Roman" style="text-anchor:end;fill:rgb(0,0,0);" transform="rotate(-70.5,1119.8,2590.6)" >2450</text>
<line x1='1066.0' y1='2537.9' x2='1058.3' y2='2556.4' style="stroke-width:4.0;stroke:rgb(0,0,0);stroke-linecap:round;fill:none;" />
<text x="1060.4" y="2568.1" font-size="18.2px" font-family="CMUBright-Roman" style="text-anchor:end;fill:rgb(0,0,0);" transform="rotate(-67.3,1060.4,2568.1)" >2500</text>
<line x1='1009.6' y1='2512.5' x2='1000.9' y2='2530.5' style="stroke-width:4.0;stroke:rgb(0,0,0);stroke-linecap:round;fill:none;" />
<text x="1002.4" y="2542.3" font-size="18.2px" font-family="CMUBright-Roman" style="text-anchor:end;fill:rgb(0,0,0);" transform="rotate(-64.2,1002.4,2542.3)" >2550</text>
<line x1='954.7' y1='2484.0' x2='945.0' y2='2501.5' style="stroke-width:4.0;stroke:rgb(0,0,0);stroke-linecap:round;fill:none;" />
<text x="945.9" y="2513.4" font-size="18.2px" font-family="CMUBright-Roman" style="text-anchor:end;fill:rgb(0,0,0);" transform="rotate(-61.0,945.9,2513.4)" >2600</text>
<line x1='901.5' y1='2452.6' x2='890.8' y2='2469.5' style="stroke-width:4.0;stroke:rgb(0,0,0);stroke-linecap:round;fill:none;" />
<text x="891.0" y="2481.4" font-size="18.2px" font-family="CMUBright-Roman" style="text-anchor:end;fill:rgb(0,0,0);" transform="rotate(-57.9,891.0,2481.4)" >2650</text>
<line x1='850.0' y1='2418.3' x2='838.5' y2='2434.6' style="stroke-width:4.0;stroke:rgb(0,0,0);stroke-linecap:round;fill:none;" />
<text x="838.0" y="2446.5" font-size="18.2px" font-family="CMUBright-Roman" style="text-anchor:end;fill:rgb(0,0,0);" transform="rotate(-54.7,838.0,2446.5)" >2700</text>
<line x1='800.6' y1='2381.1' x2='788.1' y2='2396.8' style="stroke-width:4.0;stroke:rgb(0,0,0);stroke-linecap:round;fill:none;" />
<text x="787.0" y="2408.7" font-size="18.2px" font-family="CMUBright-Roman" style="text-anchor:end;fill:rgb(0,0,0);" transform="rotate(-51.6,787.0,2408.7)" >2750</text>
<line x1='753.2' y1='2341.4' x2='739.9' y2='2356.3' style="stroke-width:4.0;stroke:rgb(0,0,0);stroke-linecap:round;fill:none;" />
<text x="738.2" y="2368.1" font-size="18.2px" font-family="CMUBright-Roman" style="text-anchor:end;fill:rgb(0,0,0);" transform="rotate(-48.4,738.2,2368.1)" >2800</text>
<line x1='708.1' y1='2299.1' x2='694.0' y2='2313.3' style="stroke-width:4.0;stroke:rgb(0,0,0);stroke-linecap:round;fill:none;" />
<text x="691.6" y="2324.9" font-size="18.2px" font-family="CMUBright-Roman" style="text-anchor:end;fill:rgb(0,0,0);" transform="rotate(-45.3,691.6,2324.9)" >2850</text>
<line x1='665.4' y1='2254.3' x2='650.5' y2='2267.8' style="stroke-width:4.0;stroke:rgb(0,0,0);stroke-linecap:round;fill:none;" />
<text x="647.5" y="2279.3" font-size="18.2px" font-family="CMUBright-Roman" style="text-anchor:end;fill:rgb(0,0,0);" transform="rotate(-42.1,647.5,2279.3)" >2900</text>
<line x1='625.2' y1='2207.3' x2='609.6' y2='2219.9' style="stroke-width:4.0;stroke:rgb(0,0,0);stroke-linecap:round;fill:none;" />
<text x="606.0" y="2231.2" font-size="18.2px" font-family="CMUBright-Roman" style="text-anchor:end;fill:rgb(0,0,0);" transform="rotate(-39.0,606.0,2231.2)" >2950</text>
<line x1='587.6' y1='2158.2' x2='571.4' y2='2169.9' style="stroke-width:4.0;stroke:rgb(0,0,0);stroke-linecap:round;fill:none;" />
<text x="567.1" y="2181.0" font-size="18.2px" font-family="CMUBright-Roman" style="text-anchor:end;fill:rgb(0,0,0);" transform="rotate(-35.8,567.1,2181.0)" >3000</text>
<line x1='552.9' y1='2107.1' x2='536.0' y2='2117.9' style="stroke-width:4.0;stroke:rgb(0,0,0);stroke-linecap:round;fill:none;" />
<text x="531.1" y="2128.7" font-size="18.2px" font-family="CMUBright-Roman" style="text-anchor:end;fill:rgb(0,0,0);" transform="rotate(-32.7,531.1,2128.7)" >3050</text>
<line x1='520.9' y1='2054.1' x2='503.5' y2='2064.0' style="stroke-width:4.0;stroke:rgb(0,0,0);stroke-linecap:round;fill:none;" />
<text x="498.0" y="2074.5" font-size="18.2px" font-family="CMUBright-Roman" style="text-anchor:end;fill:rgb(0,0,0);" transform="rotate(-29.5,498.0,2074.5)" >3100</text>
<line x1='492.0' y1='1999.5' x2='474.0' y2='2008.3' style="stroke-width:4.0;stroke:rgb(0,0,0);stroke-linecap:round;fill:none;" />
<text x="468.0" y="2018.6" font-size="18.2px" font-family="CMUBright-Roman" style="text-anchor:end;fill:rgb(0,0,0);" transform="rotate(-26.4,468.0,2018.6)" >3150</text>
<line x1='466.0' y1='1943.3' x2='447.6' y2='1951.2' style="stroke-width:4.0;stroke:rgb(0,0,0);stroke-linecap:round;fill:none;" />
<text x="441.0" y="1961.1" font-size="18.2px" font-family="CMUBright-Roman" style="text-anchor:end;fill:rgb(0,0,0);" transform="rotate(-23.2,441.0,1961.1)" >3200</text>
<line x1='443.2' y1='1885.8' x2='424.4' y2='1892.7' style="stroke-width:4.0;stroke:rgb(0,0,0);stroke-linecap:round;fill:none;" />
<text x="417.3" y="1902.2" font-size="18.2px" font-family="CMUBright-Roman" style="text-anchor:end;fill:rgb(0,0,0);" transform="rotate(-20.1,417.3,1902.2)" >3250</text>
<line x1='423.6' y1='1827.2' x2='404.5' y2='1833.0' style="stroke-width:4.0;stroke:rgb(0,0,0);stroke-linecap:round;fill:none;" />
<text x="396.8" y="1842.1" font-size="18.2px" font-family="CMUBright-Roman" style="text-anchor:end;fill:rgb(0,0,0);" transform="rotate(-16.9,396.8,1842.1)" >3300</text>
<line x1='407.3' y1='1767.5' x2='387.8' y2='1772.3' style="stroke-width:4.0;stroke:rgb(0,0,0);stroke-linecap:round;fill:none;" />
<text x="379.7" y="1781.0" font-size="18.2px" font-family="CMUBright-Roman" style="text-anchor:end;fill:rgb(0,0,0);" transform="rotate(-13.8,379.7,1781.0)" >3350</text>
<line x1='394.2' y1='1707.1' x2='374.6' y2='1710.8' style="stroke-width:4.0;stroke:rgb(0,0,0);stroke-linecap:round;fill:none;" />
<text x="366.0" y="1719.0" font-size="18.2px" font-family="CMUBright-Roman" style="text-anchor:end;fill:rgb(0,0,0);" transform="rotate(-10.6,366.0,1719.0)" >3400</text>
<line x1='384.5' y1='1646.0' x2='364.7' y2='1648.6' style="stroke-width:4.0;stroke:rgb(0,0,0);stroke-linecap:round;fill:none;" />
<text x="355.6" y="1656.3" font-size="18.2px" font-family="CMUBright-Roman" style="text-anchor:end;fill:rgb(0,0,0);" transform="rotate(-7.5,355.6,1656.3)" >3450</text>
<line x1='378.2' y1='1584.5' x2='358.2' y2='1586.0' style="stroke-width:4.0;stroke:rgb(0,0,0);stroke-linecap:round;fill:none;" />
<text x="348.8" y="1593.2" font-size="18.2px" font-family="CMUBright-Roman" style="text-anchor:end;fill:rgb(0,0,0);" transform="rotate(-4.3,348.8,1593.2)" >3500</text>
<line x1='375.2' y1='1522.7' x2='355.2' y2='1523.1' style="stroke-width:4.0;stroke:rgb(0,0,0);stroke-linecap:round;fill:none;" />
<text x="345.4" y="1529.8" font-size="18.2px" font-family="CMUBright-Roman" style="text-anchor:end;fill:rgb(0,0,0);" transform="rotate(-1.2,345.4,1529.8)" >3550</text>
<line x1='375.7' y1='1460.9' x2='355.7' y2='1460.2' style="stroke-width:4.0;stroke:rgb(0,0,0);stroke-linecap:round;fill:none;" />
<text x="345.5" y="1466.3" font-size="18.2px" font-family="CMUBright-Roman" style="text-anchor:end;fill:rgb(0,0,0);" transform="rotate(2.0,345.5,1466.3)" >3600</text>
<line x1='379.5' y1='1399.1' x2='359.6' y2='1397.4' style="stroke-width:4.0;stroke:rgb(0,0,0);stroke-linecap:round;fill:none;" />
<text x="349.1" y="1402.9" font-size="18.2px" font-family="CMUBright-Roman" style="text-anchor:end;fill:rgb(0,0,0);" transform="rotate(5.1,349.1,1402.9)" >3650</text>
<line x1='386.8' y1='1337.7' x2='367.0' y2='1334.8' style="stroke-width:4.0;stroke:rgb(0,0,0);stroke-linecap:round;fill:none;" />
<text x="356.2" y="1339.8" font-size="18.2px" font-family="CMUBright-Roman" style="text-anchor:end;fill:rgb(0,0,0);" transform="rotate(8.3,356.2,1339.8)" >3700</text>
<line x1='397.4' y1='1276.8' x2='377.8' y2='1272.8' style="stroke-width:4.0;stroke:rgb(0,0,0);stroke-linecap:round;fill:none;" />
<text x="366.7" y="1277.2" font-size="18.2px" font-family="CMUBright-Roman" style="text-anchor:end;fill:rgb(0,0,0);" transform="rotate(11.4,366.7,1277.2)" >3750</text>
<line x1='411.3' y1='1216.5' x2='391.9' y2='1211.5' style="stroke-width:4.0;stroke:rgb(0,0,0);stroke-linecap:round;fill:none;" />
<text x="380.6" y="1215.3" font-size="18.2px" font-family="CMUBright-Roman" style="text-anchor:end;fill:rgb(0,0,0);" transform="rotate(14.6,380.6,1215.3)" >3800</text>
<line x1='428.5' y1='1157.1' x2='409.5' y2='1151.1' style="stroke-width:4.0;stroke:rgb(0,0,0);stroke-linecap:round;fill:none;" />
<text x="398.0" y="1154.2" font-size="18.2px" font-family="CMUBright-Roman" style="text-anchor:end;fill:rgb(0,0,0);" transform="rotate(17.7,398.0,1154.2)" >3850</text>
<line x1='449.0' y1='1098.8' x2='430.3' y2='1091.7' style="stroke-width:4.0;stroke:rgb(0,0,0);stroke-linecap:round;fill:none;" />
<text x="418.6" y="1094.2" font-size="18.2px" font-family="CMUBright-Roman" style="text-anchor:end;fill:rgb(0,0,0);" transform="rotate(20.9,418.6,1094.2)" >3900</text>
<line x1='472.6' y1='1041.6' x2='454.3' y2='1033.5' style="stroke-width:4.0;stroke:rgb(0,0,0);stroke-linecap:round;fill:none;" />
<text x="442.6" y="1035.4" font-size="18.2px" font-family="CMUBright-Roman" style="text-anchor:end;fill:rgb(0,0,0);" transform="rotate(24.0,442.6,1035.4)" >3950</text>
<line x1='499.4' y1='985.9' x2='481.6' y2='976.7' style="stroke-width:4.0;stroke:rgb(0,0,0);stroke-linecap:round;fill:none;" />
<text x="469.7" y="978.0" font-size="18.2px" font-family="CMUBright-Roman" style="text-anchor:end;fill:rgb(0,0,0);" transform="rotate(27.2,469.7,978.0)" >4000</text>
<line x1='529.1' y1='931.7' x2='511.9' y2='921.6' style="stroke-width:4.0;stroke:rgb(0,0,0);stroke-linecap:round;fill:none;" />
<text x="500.0" y="922.1" font-size="18.2px" font-family="CMUBright-Roman" style="text-anchor:end;fill:rgb(0,0,0);" transform="rotate(30.3,500.0,922.1)" >4050</text>
<line x1='561.8' y1='879.2' x2='545.1' y2='868.1' style="stroke-width:4.0;stroke:rgb(0,0,0);stroke-linecap:round;fill:none;" />
<text x="533.2" y="868.0" font-size="18.2px" font-family="CMUBright-Roman" style="text-anchor:end;fill:rgb(0,0,0);" transform="rotate(33.5,533.2,868.0)" >4100</text>
<line x1='597.3' y1='828.6' x2='581.3' y2='816.6' style="stroke-width:4.0;stroke:rgb(0,0,0);stroke-linecap:round;fill:none;" />
<text x="569.4" y="815.9" font-size="18.2px" font-family="CMUBright-Roman" style="text-anchor:end;fill:rgb(0,0,0);" transform="rotate(36.6,569.4,815.9)" >4150</text>
<line x1='635.6' y1='780.0' x2='620.2' y2='767.2' style="stroke-width:4.0;stroke:rgb(0,0,0);stroke-linecap:round;fill:none;" />
<text x="608.4" y="765.8" font-size="18.2px" font-family="CMUBright-Roman" style="text-anchor:end;fill:rgb(0,0,0);" transform="rotate(39.8,608.4,765.8)" >4200</text>
<line x1='676.5' y1='733.6' x2='661.8' y2='719.9' style="stroke-width:4.0;stroke:rgb(0,0,0);stroke-linecap:round;fill:none;" />
<text x="650.1" y="717.9" font-size="18.2px" font-family="CMUBright-Roman" style="text-anchor:end;fill:rgb(0,0,0);" transform="rotate(42.9,650.1,717.9)" >4250</text>
<line x1='719.8' y1='689.5' x2='706.0' y2='675.0' style="stroke-width:4.0;stroke:rgb(0,0,0);stroke-linecap:round;fill:none;" />
<text x="694.4" y="672.4" font-size="18.2px" font-family="CMUBright-Roman" style="text-anchor:end;fill:rgb(0,0,0);" transform="rotate(46.1,694.4,672.4)" >4300</text>
<line x1='765.6' y1='647.8' x2='752.5' y2='632.7' style="stroke-width:4.0;stroke:rgb(0,0,0);stroke-linecap:round;fill:none;" />
<text x="741.1" y="629.3" font-size="18.2px" font-family="CMUBright-Roman" style="text-anchor:end;fill:rgb(0,0,0);" transform="rotate(49.2,741.1,629.3)" >4350</text>
<line x1='813.5' y1='608.7' x2='801.3' y2='592.9' style="stroke-width:4.0;stroke:rgb(0,0,0);stroke-linecap:round;fill:none;" />
<text x="790.1" y="589.0" font-size="18.2px" font-family="CMUBright-Roman" style="text-anchor:end;fill:rgb(0,0,0);" transform="rotate(52.4,790.1,589.0)" >4400</text>
<line x1='863.5' y1='572.4' x2='852.2' y2='555.9' style="stroke-width:4.0;stroke:rgb(0,0,0);stroke-linecap:round;fill:none;" />
<text x="841.2" y="551.3" font-size="18.2px" font-family="CMUBright-Roman" style="text-anchor:end;fill:rgb(0,0,0);" transform="rotate(55.5,841.2,551.3)" >4450</text>
<line x1='915.5' y1='538.8' x2='905.1' y2='521.7' style="stroke-width:4.0;stroke:rgb(0,0,0);stroke-linecap:round;fill:none;" />
<text x="894.3" y="516.5" font-size="18.2px" font-family="CMUBright-Roman" style="text-anchor:end;fill:rgb(0,0,0);" transform="rotate(58.7,894.3,516.5)" >4500</text>
<line x1='969.2' y1='508.1' x2='959.7' y2='490.5' style="stroke-width:4.0;stroke:rgb(0,0,0);stroke-linecap:round;fill:none;" />
<text x="949.3" y="484.7" font-size="18.2px" font-family="CMUBright-Roman" style="text-anchor:end;fill:rgb(0,0,0);" transform="rotate(61.8,949.3,484.7)" >4550</text>
<line x1='1024.5' y1='480.4' x2='1016.0' y2='462.3' style="stroke-width:4.0;stroke:rgb(0,0,0);stroke-linecap:round;fill:none;" />
<text x="1005.9" y="456.0" font-size="18.2px" font-family="CMUBright-Roman" style="text-anchor:end;fill:rgb(0,0,0);" transform="rotate(65.0,1005.9,456.0)" >4600</text>
<line x1='1081.2' y1='455.9' x2='1073.8' y2='437.3' style="stroke-width:4.0;stroke:rgb(0,0,0);stroke-linecap:round;fill:none;" />
<text x="1064.0" y="430.4" font-size="18.2px" font-family="CMUBright-Roman" style="text-anchor:end;fill:rgb(0,0,0);" transform="rotate(68.1,1064.0,430.4)" >4650</text>
<line x1='1139.2' y1='434.4' x2='1132.8' y2='415.5' style="stroke-width:4.0;stroke:rgb(0,0,0);stroke-linecap:round;fill:none;" />
<text x="1123.4" y="408.1" font-size="18.2px" font-family="CMUBright-Roman" style="text-anchor:end;fill:rgb(0,0,0);" transform="rotate(71.3,1123.4,408.1)" >4700</text>
<line x1='1198.3' y1='416.2' x2='1193.0' y2='396.9' style="stroke-width:4.0;stroke:rgb(0,0,0);stroke-linecap:round;fill:none;" />
<text x="1184.0" y="389.1" font-size="18.2px" font-family="CMUBright-Roman" style="text-anchor:end;fill:rgb(0,0,0);" transform="rotate(74.4,1184.0,389.1)" >4750</text>
<line x1='1258.3' y1='401.3' x2='1254.0' y2='381.7' style="stroke-width:4.0;stroke:rgb(0,0,0);stroke-linecap:round;fill:none;" />
<text x="1245.5" y="373.4" font-size="18.2px" font-family="CMUBright-Roman" style="text-anchor:end;fill:rgb(0,0,0);" transform="rotate(77.6,1245.5,373.4)" >4800</text>
<line x1='1319.1' y1='389.6' x2='1315.9' y2='369.9' style="stroke-width:4.0;stroke:rgb(0,0,0);stroke-linecap:round;fill:none;" />
<text x="1307.8" y="361.1" font-size="18.2px" font-family="CMUBright-Roman" style="text-anchor:end;fill:rgb(0,0,0);" transform="rotate(80.7,1307.8,361.1)" >4850</text>
<line x1='1380.4' y1='381.4' x2='1378.2' y2='361.5' style="stroke-width:4.0;stroke:rgb(0,0,0);stroke-linecap:round;fill:none;" />
<text x="1370.7" y="352.3" font-size="18.2px" font-family="CMUBright-Roman" style="text-anchor:end;fill:rgb(0,0,0);" transform="rotate(83.9,1370.7,352.3)" >4900</text>
<g id="highlighttrack_0">
<path d="M1238.786,2542.781 A1075.000,1075.000 40.000 0,1 1235.209,2541.878 L1222.893,2590.338 A1125.000,1125.000 0.000 0,0 1226.636,2591.282 Z" style="stroke-width:4.0;stroke:rgb(0,0,0);stroke-linecap:round;fill:rgb(251,106,74);" />
<path d="M468.032,1801.111 A1075.000,1075.000 40.000 0,1 467.008,1797.577 L418.962,1811.418 A1125.000,1125.000 0.000 0,0 420.034,1815.116 Z" style="stroke-width:4.0;stroke:rgb(0,0,0);stroke-linecap:round;fill:rgb(251,106,74);" />
<path d="M578.084,947.102 A1075.000,1075.000 40.000 0,1 579.978,943.957 L537.186,918.094 A1125.000,1125.000 0.000 0,0 535.204,921.386 Z" style="stroke-width:4.0;stroke:rgb(0,0,0);stroke-linecap:round;fill:rgb(251,106,74);" />
<path d="M610.771,895.934 A1075.000,1075.000 40.000 0,1 612.842,892.896 L571.578,864.659 A1125.000,1125.000 0.000 0,0 569.411,867.838 Z" style="stroke-width:4.0;stroke:rgb(0,0,0);stroke-linecap:round;fill:rgb(251,106,74);" />
<path d="M721.928,758.226 A1075.000,1075.000 40.000 0,1 724.471,755.567 L688.400,720.942 A1125.000,1125.000 0.000 0,0 685.738,723.725 Z" style="stroke-width:4.0;stroke:rgb(0,0,0);stroke-linecap:round;fill:rgb(251,106,74);" />
<path d="M818.688,668.472 A1075.000,1075.000 40.000 0,1 821.538,666.145 L789.982,627.361 A1125.000,1125.000 0.000 0,0 786.999,629.796 Z" style="stroke-width:4.0;stroke:rgb(0,0,0);stroke-linecap:round;fill:rgb(116,196,118);" />
<path d="M1254.374,453.438 A1075.000,1075.000 40.000 0,1 1257.943,452.606 L1246.685,403.890 A1125.000,1125.000 0.000 0,0 1242.950,404.760 Z" style="stroke-width:4.0;stroke:rgb(0,0,0);stroke-linecap:round;fill:rgb(116,196,118);" />
<path d="M1262.281,451.613 A1075.000,1075.000 40.000 0,1 1265.869,450.806 L1254.979,402.006 A1125.000,1125.000 0.000 0,0 1251.225,402.851 Z" style="stroke-width:4.0;stroke:rgb(0,0,0);stroke-linecap:round;fill:rgb(116,196,118);" />
<path d="M591.654,925.081 A1075.000,1075.000 40.000 0,1 594.572,920.496 L552.459,893.542 A1125.000,1125.000 0.000 0,0 549.405,898.341 Z" style="stroke-width:4.0;stroke:rgb(0,0,0);stroke-linecap:round;fill:rgb(116,196,118);" />
</g>
</g>
<g id="track_0">
<path d="M 1241.398,2532.353 A 1064.250,1064.250 0.00 0,1 1237.9,2531.5 L 1237.9,2531.5 1257.3,2459.9 1277.9,2392.4 1299.5,2328.7 1321.8,2268.4 1344.7,2211.4 1368.0,2157.3 1391.5,2105.8 1415.2,2056.7 1438.8,2009.8 1462.3,1964.7 1485.6,1921.3 1508.5,1879.3 1531.2,1838.6 1553.4,1798.8 1575.2,1759.8 1596.6,1721.5 1617.6,1683.6 1638.2,1646.0 1658.5,1608.4 1678.5,1570.9 1698.3,1533.1 1718.0,1494.9 1737.7,1456.4 1757.5,1417.2 1777.6,1377.3 1798.2,1336.7 1819.3,1295.1 1841.3,1252.6 1864.3,1209.1 1888.6,1164.4 1914.3,1118.6 1941.8,1071.5 1971.3,1023.3 2003.2,973.7 2037.7,922.8 2075.1,870.6 2115.9,817.1 2160.4,762.3 2208.9,706.2  A 1064.250,1064.250 0.00 0,0 2206.2,703.8 L 2206.2,703.8 2157.9,760.1 2113.6,815.0 2073.0,868.7 2035.7,921.0 2001.4,972.0 1969.7,1021.6 1940.3,1070.0 1913.0,1117.2 1887.4,1163.1 1863.3,1207.8 1840.5,1251.4 1818.6,1294.0 1797.6,1335.6 1777.2,1376.4 1757.2,1416.3 1737.5,1455.5 1718.0,1494.2 1698.4,1532.4 1678.7,1570.2 1658.9,1607.9 1638.7,1645.5 1618.2,1683.2 1597.4,1721.2 1576.1,1759.6 1554.4,1798.6 1532.3,1838.4 1509.8,1879.3 1487.0,1921.3 1463.9,1964.8 1440.6,2010.0 1417.1,2057.0 1393.6,2106.2 1370.3,2157.7 1347.1,2211.9 1324.4,2269.0 1302.3,2329.3 1280.9,2393.1 1260.6,2460.7 1241.4,2532.4  Z" style="stroke-width: 2.0;  stroke: rgb(82,82,82); fill: rgb(251,106,74); opacity: 0.667;" />
<path d="M 478.352,1798.100 A 1064.250,1064.250 0.00 0,1 477.3,1794.6 L 477.3,1794.6 548.2,1773.0 614.9,1750.3 677.7,1726.8 736.9,1702.7 792.9,1678.1 845.8,1653.1 896.0,1628.0 943.8,1602.8 989.4,1577.7 1033.1,1552.7 1075.0,1527.8 1115.5,1503.3 1154.7,1479.0 1192.8,1455.0 1230.1,1431.4 1266.8,1408.1 1302.9,1385.1 1338.8,1362.4 1374.4,1339.8 1410.1,1317.4 1445.9,1295.0 1481.9,1272.6 1518.3,1250.0 1555.2,1227.1 1592.7,1203.7 1630.8,1179.7 1669.7,1154.9 1709.4,1129.1 1749.9,1102.1 1791.4,1073.6 1833.8,1043.4 1877.2,1011.3 1921.7,976.9 1967.1,940.0 2013.5,900.3 2060.9,857.4 2109.3,811.0 2158.7,760.7 2208.9,706.2  A 1064.250,1064.250 0.00 0,0 2206.2,703.8 L 2206.2,703.8 2156.1,758.5 2107.0,808.9 2058.7,855.5 2011.4,898.5 1965.1,938.4 1919.8,975.5 1875.6,1010.0 1832.3,1042.3 1789.9,1072.6 1748.6,1101.2 1708.1,1128.4 1668.5,1154.3 1629.7,1179.3 1591.7,1203.4 1554.3,1226.9 1517.5,1249.9 1481.1,1272.7 1445.2,1295.2 1409.5,1317.7 1373.9,1340.2 1338.3,1362.9 1302.5,1385.8 1266.5,1408.9 1229.9,1432.3 1192.7,1456.1 1154.6,1480.2 1115.5,1504.6 1075.1,1529.3 1033.2,1554.3 989.7,1579.4 944.2,1604.7 896.5,1630.1 846.3,1655.4 793.5,1680.5 737.6,1705.3 678.5,1729.6 615.8,1753.3 549.2,1776.2 478.4,1798.1  Z" style="stroke-width: 2.0;  stroke: rgb(82,82,82); fill: rgb(116,196,118); opacity: 0.667;" />
<path d="M 478.352,1798.100 A 1064.250,1064.250 0.00 0,1 477.3,1794.6 L 477.3,1794.6 548.0,1774.9 614.0,1757.8 675.6,1743.1 733.0,1730.7 786.5,1720.4 836.3,1712.3 882.6,1706.1 925.6,1701.7 965.6,1699.2 1002.6,1698.4 1036.9,1699.2 1068.7,1701.7 1098.0,1705.7 1125.0,1711.3 1149.9,1718.5 1172.8,1727.2 1193.7,1737.4 1212.8,1749.3 1230.2,1762.8 1245.8,1778.0 1259.9,1794.9 1272.3,1813.6 1283.3,1834.2 1292.7,1856.8 1300.7,1881.4 1307.1,1908.3 1312.1,1937.5 1315.5,1969.1 1317.5,2003.4 1317.8,2040.5 1316.5,2080.5 1313.5,2123.6 1308.8,2170.1 1302.2,2220.1 1293.7,2273.9 1283.1,2331.7 1270.4,2393.7 1255.3,2460.2 1237.9,2531.5  A 1064.250,1064.250 0.00 0,0 1241.4,2532.4 L 1241.4,2532.4 1258.6,2461.0 1273.4,2394.5 1286.0,2332.4 1296.3,2274.6 1304.7,2220.8 1311.1,2170.7 1315.7,2124.3 1318.5,2081.1 1319.6,2041.1 1319.2,2004.0 1317.1,1969.8 1313.6,1938.1 1308.5,1909.0 1302.0,1882.1 1293.9,1857.5 1284.4,1835.0 1273.4,1814.4 1260.9,1795.7 1246.8,1778.9 1231.1,1763.7 1213.7,1750.3 1194.6,1738.5 1173.6,1728.3 1150.7,1719.7 1125.8,1712.6 1098.7,1707.1 1069.4,1703.1 1037.6,1700.8 1003.3,1700.1 966.2,1701.0 926.3,1703.7 883.3,1708.2 837.0,1714.6 787.3,1722.9 733.8,1733.3 676.4,1745.9 614.9,1760.8 549.0,1778.1 478.4,1798.1  Z" style="stroke-width: 2.0;  stroke: rgb(82,82,82); fill: rgb(107,174,214); opacity: 0.667;" />
<path d="M 587.303,952.631 A 1064.250,1064.250 0.00 0,1 589.2,949.5 L 589.2,949.5 652.7,986.8 713.2,1020.2 770.9,1049.9 825.8,1076.2 878.3,1099.5 928.4,1119.8 976.3,1137.4 1022.2,1152.6 1066.2,1165.5 1108.5,1176.3 1149.3,1185.1 1188.7,1192.1 1226.8,1197.3 1263.8,1200.9 1299.9,1203.0 1335.2,1203.6 1369.7,1202.7 1403.8,1200.5 1437.4,1196.9 1470.8,1191.9 1504.0,1185.5 1537.2,1177.6 1570.5,1168.2 1604.0,1157.3 1637.9,1144.7 1672.2,1130.4 1707.1,1114.2 1742.7,1096.0 1779.1,1075.6 1816.4,1052.9 1854.7,1027.6 1894.1,999.6 1934.7,968.6 1976.6,934.5 2019.9,896.9 2064.7,855.5 2111.1,810.2 2159.1,760.5 2208.9,706.2  A 1064.250,1064.250 0.00 0,0 2206.2,703.8 L 2206.2,703.8 2156.6,758.3 2108.7,808.1 2062.5,853.6 2017.9,895.1 1974.7,932.8 1932.9,967.1 1892.4,998.2 1853.1,1026.4 1814.9,1051.8 1777.6,1074.6 1741.3,1095.1 1705.8,1113.5 1670.9,1129.8 1636.6,1144.3 1602.8,1157.0 1569.3,1168.0 1536.1,1177.5 1502.9,1185.4 1469.7,1192.0 1436.4,1197.1 1402.8,1200.8 1368.7,1203.2 1334.2,1204.1 1298.9,1203.7 1262.8,1201.7 1225.8,1198.2 1187.6,1193.1 1148.2,1186.3 1107.4,1177.6 1065.1,1167.0 1021.0,1154.3 975.0,1139.2 927.1,1121.7 876.9,1101.6 824.4,1078.5 769.3,1052.4 711.6,1022.9 651.0,989.7 587.3,952.6  Z" style="stroke-width: 2.0;  stroke: rgb(82,82,82); fill: rgb(253,141,60); opacity: 0.667;" />
<path d="M 587.303,952.631 A 1064.250,1064.250 0.00 0,1 589.2,949.5 L 589.2,949.5 651.8,988.5 709.5,1026.7 762.8,1064.2 811.8,1101.0 857.1,1137.1 898.7,1172.5 937.1,1207.3 972.4,1241.4 1005.0,1275.1 1034.9,1308.2 1062.6,1340.9 1088.1,1373.2 1111.6,1405.2 1133.2,1437.0 1153.3,1468.7 1171.8,1500.4 1188.8,1532.1 1204.6,1564.0 1219.1,1596.2 1232.5,1628.7 1244.7,1661.8 1255.9,1695.6 1266.0,1730.2 1275.0,1765.7 1283.0,1802.3 1289.9,1840.2 1295.7,1879.5 1300.2,1920.4 1303.5,1963.1 1305.4,2007.7 1305.8,2054.5 1304.7,2103.7 1301.8,2155.4 1296.9,2209.8 1290.1,2267.3 1280.9,2327.9 1269.3,2392.0 1255.1,2459.8 1237.9,2531.5  A 1064.250,1064.250 0.00 0,0 1241.4,2532.4 L 1241.4,2532.4 1258.3,2460.6 1272.4,2392.8 1283.8,2328.7 1292.7,2268.0 1299.4,2210.5 1304.0,2156.0 1306.7,2104.3 1307.7,2055.2 1307.1,2008.4 1305.1,1963.8 1301.7,1921.1 1297.0,1880.2 1291.1,1840.9 1284.1,1803.1 1276.0,1766.5 1266.8,1731.0 1256.6,1696.4 1245.3,1662.7 1232.9,1629.6 1219.4,1597.1 1204.8,1565.0 1188.9,1533.2 1171.8,1501.5 1153.2,1469.9 1133.0,1438.3 1111.2,1406.5 1087.6,1374.6 1062.0,1342.4 1034.3,1309.8 1004.2,1276.7 971.5,1243.2 936.1,1209.2 897.6,1174.5 855.8,1139.3 810.5,1103.4 761.3,1066.7 707.9,1029.4 650.0,991.4 587.3,952.6  Z" style="stroke-width: 2.0;  stroke: rgb(82,82,82); fill: rgb(255,0,0); opacity: 0.667;" />
<path d="M 587.303,952.631 A 1064.250,1064.250 0.00 0,1 589.2,949.5 L 589.2,949.5 651.7,987.9 709.1,1024.3 761.7,1058.8 809.8,1091.7 853.6,1122.9 893.3,1152.6 929.2,1180.8 961.4,1207.7 990.1,1233.4 1015.5,1257.9 1037.7,1281.3 1056.8,1303.7 1073.1,1325.3 1086.5,1346.0 1097.2,1366.0 1105.2,1385.3 1110.6,1404.0 1113.4,1422.2 1113.6,1440.0 1111.3,1457.4 1106.5,1474.5 1099.0,1491.4 1088.9,1508.1 1076.2,1524.6 1060.7,1541.1 1042.3,1557.7 1021.0,1574.2 996.7,1590.9 969.2,1607.7 938.3,1624.8 903.9,1642.1 865.8,1659.7 823.8,1677.6 777.7,1696.0 727.3,1714.7 672.4,1733.9 612.6,1753.6 547.6,1773.8 477.3,1794.6  A 1064.250,1064.250 0.00 0,0 478.4,1798.1 L 478.4,1798.1 548.6,1777.1 613.4,1756.6 673.2,1736.7 728.1,1717.4 778.4,1698.4 824.4,1679.9 866.3,1661.9 904.4,1644.1 938.7,1626.7 969.5,1609.6 997.0,1592.6 1021.3,1575.9 1042.5,1559.2 1060.8,1542.6 1076.3,1526.1 1089.0,1509.5 1099.0,1492.7 1106.4,1475.9 1111.2,1458.7 1113.4,1441.3 1113.1,1423.6 1110.2,1405.4 1104.8,1386.6 1096.7,1367.4 1086.0,1347.4 1072.5,1326.7 1056.2,1305.3 1036.9,1282.9 1014.6,1259.5 989.2,1235.1 960.4,1209.6 928.1,1182.8 892.1,1154.7 852.3,1125.1 808.4,1094.0 760.2,1061.4 707.5,1027.0 649.9,990.8 587.3,952.6  Z" style="stroke-width: 2.0;  stroke: rgb(82,82,82); fill: rgb(255,0,204); opacity: 0.667;" />
<path d="M 619.663,901.974 A 1064.250,1064.250 0.00 0,1 621.7,899.0 L 621.7,899.0 683.0,939.8 741.4,976.5 797.1,1009.4 850.3,1038.8 901.1,1065.0 949.6,1088.0 996.1,1108.3 1040.7,1125.9 1083.4,1141.2 1124.6,1154.1 1164.3,1165.0 1202.6,1173.9 1239.8,1180.9 1275.9,1186.2 1311.2,1189.8 1345.6,1191.9 1379.4,1192.4 1412.7,1191.4 1445.6,1188.9 1478.3,1184.9 1510.9,1179.5 1543.5,1172.5 1576.2,1163.9 1609.1,1153.7 1642.4,1141.7 1676.3,1127.9 1710.7,1112.2 1745.8,1094.4 1781.7,1074.3 1818.6,1051.9 1856.5,1026.9 1895.5,999.1 1935.8,968.3 1977.4,934.3 2020.4,896.7 2065.0,855.5 2111.2,810.2 2159.2,760.5 2208.9,706.2  A 1064.250,1064.250 0.00 0,0 2206.2,703.8 L 2206.2,703.8 2156.6,758.3 2108.9,808.1 2062.8,853.5 2018.4,895.0 1975.4,932.6 1933.9,966.8 1893.8,997.7 1854.8,1025.7 1817.0,1050.8 1780.2,1073.4 1744.4,1093.5 1709.3,1111.5 1675.0,1127.3 1641.2,1141.2 1607.9,1153.3 1575.0,1163.6 1542.3,1172.3 1509.8,1179.4 1477.2,1185.0 1444.6,1189.1 1411.6,1191.7 1378.3,1192.8 1344.5,1192.4 1310.1,1190.5 1274.9,1187.0 1238.7,1181.8 1201.5,1174.9 1163.1,1166.1 1123.4,1155.4 1082.2,1142.6 1039.4,1127.5 994.8,1110.0 948.2,1089.9 899.6,1067.0 848.7,1041.1 795.5,1011.8 739.6,979.1 681.1,942.6 619.7,902.0  Z" style="stroke-width: 2.0;  stroke: rgb(82,82,82); fill: rgb(255,204,204); opacity: 0.667;" />
<path d="M 619.663,901.974 A 1064.250,1064.250 0.00 0,1 621.7,899.0 L 621.7,899.0 682.0,941.4 737.5,983.0 788.7,1023.6 835.7,1063.2 879.0,1102.0 918.7,1140.0 955.3,1177.2 988.9,1213.6 1019.9,1249.3 1048.3,1284.4 1074.5,1319.0 1098.6,1353.0 1120.9,1386.7 1141.4,1420.0 1160.3,1453.1 1177.8,1486.1 1194.0,1519.1 1208.9,1552.2 1222.7,1585.5 1235.4,1619.1 1247.0,1653.2 1257.7,1687.8 1267.3,1723.3 1276.0,1759.6 1283.7,1797.0 1290.3,1835.6 1295.8,1875.5 1300.2,1917.0 1303.4,1960.3 1305.2,2005.4 1305.6,2052.7 1304.5,2102.2 1301.6,2154.3 1296.8,2209.1 1289.9,2266.8 1280.8,2327.6 1269.3,2391.9 1255.0,2459.7 1237.9,2531.5  A 1064.250,1064.250 0.00 0,0 1241.4,2532.4 L 1241.4,2532.4 1258.3,2460.6 1272.4,2392.7 1283.7,2328.4 1292.6,2267.5 1299.2,2209.7 1303.8,2155.0 1306.5,2102.9 1307.5,2053.3 1307.0,2006.1 1305.0,1960.9 1301.7,1917.7 1297.1,1876.2 1291.5,1836.3 1284.7,1797.7 1276.9,1760.4 1268.1,1724.1 1258.3,1688.7 1247.6,1654.0 1235.8,1620.0 1223.0,1586.4 1209.1,1553.2 1194.1,1520.1 1177.8,1487.2 1160.2,1454.3 1141.1,1421.2 1120.5,1388.0 1098.1,1354.4 1073.9,1320.4 1047.6,1286.0 1019.0,1251.0 988.0,1215.3 954.2,1179.0 917.5,1142.0 877.6,1104.2 834.2,1065.5 787.0,1026.0 735.8,985.6 680.1,944.2 619.7,902.0  Z" style="stroke-width: 2.0;  stroke: rgb(82,82,82); fill: rgb(255,153,0); opacity: 0.667;" />
<path d="M 619.663,901.974 A 1064.250,1064.250 0.00 0,1 621.7,899.0 L 621.7,899.0 681.9,940.8 737.2,980.5 787.7,1018.2 833.9,1053.9 875.8,1087.8 913.8,1120.0 948.0,1150.7 978.6,1179.8 1005.8,1207.5 1029.8,1234.0 1050.8,1259.3 1068.7,1283.4 1083.8,1306.6 1096.1,1328.8 1105.8,1350.2 1112.9,1370.9 1117.4,1390.8 1119.4,1410.2 1119.0,1429.1 1116.0,1447.6 1110.5,1465.6 1102.5,1483.4 1091.9,1501.0 1078.7,1518.3 1062.8,1535.6 1044.1,1552.8 1022.5,1570.1 997.9,1587.4 970.1,1604.8 939.0,1622.4 904.4,1640.1 866.2,1658.2 824.1,1676.5 777.9,1695.2 727.4,1714.2 672.4,1733.6 612.6,1753.5 547.6,1773.8 477.3,1794.6  A 1064.250,1064.250 0.00 0,0 478.4,1798.1 L 478.4,1798.1 548.6,1777.1 613.4,1756.5 673.2,1736.4 728.2,1716.8 778.6,1697.6 824.7,1678.8 866.7,1660.3 904.9,1642.2 939.4,1624.3 970.4,1606.6 998.2,1589.1 1022.7,1571.7 1044.3,1554.4 1062.9,1537.1 1078.8,1519.8 1091.9,1502.4 1102.4,1484.8 1110.4,1467.0 1115.8,1448.9 1118.7,1430.4 1119.1,1411.5 1117.1,1392.1 1112.5,1372.2 1105.3,1351.6 1095.6,1330.2 1083.1,1308.0 1068.0,1284.9 1049.9,1260.8 1028.9,1235.6 1004.9,1209.2 977.5,1181.6 946.8,1152.6 912.5,1122.0 874.4,1090.0 832.4,1056.2 786.1,1020.6 735.4,983.1 680.0,943.6 619.7,902.0  Z" style="stroke-width: 2.0;  stroke: rgb(82,82,82); fill: rgb(255,204,0); opacity: 0.667;" />
<path d="M 619.663,901.974 A 1064.250,1064.250 0.00 0,1 621.7,899.0 L 621.7,899.0 682.1,940.3 737.9,978.6 789.2,1014.0 836.4,1046.6 879.6,1076.5 919.1,1103.9 954.9,1128.9 987.3,1151.6 1016.4,1172.2 1042.3,1190.6 1065.3,1207.1 1085.3,1221.6 1102.5,1234.3 1117.0,1245.2 1128.9,1254.4 1138.2,1261.9 1144.9,1267.8 1149.2,1272.0 1151.0,1274.6 1150.3,1275.7 1147.2,1275.1 1141.6,1273.0 1133.4,1269.3 1122.8,1263.9 1109.5,1256.9 1093.6,1248.2 1074.9,1237.8 1053.3,1225.6 1028.9,1211.6 1001.3,1195.6 970.5,1177.6 936.5,1157.5 898.8,1135.3 857.6,1110.8 812.4,1083.8 763.2,1054.4 709.8,1022.2 651.8,987.4 589.2,949.5  A 1064.250,1064.250 0.00 0,0 587.3,952.6 L 587.3,952.6 650.1,990.2 708.2,1025.0 761.7,1056.9 811.0,1086.2 856.2,1113.0 897.6,1137.3 935.3,1159.5 969.5,1179.4 1000.3,1197.3 1027.9,1213.2 1052.4,1227.1 1074.0,1239.3 1092.7,1249.6 1108.7,1258.3 1122.0,1265.2 1132.7,1270.5 1140.8,1274.2 1146.4,1276.3 1149.5,1276.9 1150.2,1275.8 1148.4,1273.2 1144.1,1269.0 1137.4,1263.2 1128.0,1255.7 1116.1,1246.6 1101.6,1235.7 1084.3,1223.1 1064.3,1208.6 1041.3,1192.2 1015.3,1173.8 986.1,1153.4 953.6,1130.8 917.7,1105.9 878.2,1078.6 834.9,1048.8 787.6,1016.4 736.1,981.2 680.2,943.1 619.7,902.0  Z" style="stroke-width: 2.0;  stroke: rgb(82,82,82); fill: rgb(255,255,0); opacity: 0.667;" />
<path d="M 729.708,765.644 A 1064.250,1064.250 0.00 0,1 732.2,763.0 L 732.2,763.0 785.9,813.3 837.2,859.1 886.3,900.7 933.3,938.3 978.3,972.3 1021.5,1002.8 1062.9,1030.1 1102.8,1054.4 1141.2,1075.9 1178.3,1094.7 1214.2,1111.1 1248.9,1125.2 1282.7,1137.2 1315.7,1147.0 1347.9,1154.9 1379.5,1160.8 1410.7,1165.0 1441.5,1167.3 1472.0,1167.9 1502.4,1166.7 1532.8,1163.8 1563.3,1159.1 1594.1,1152.6 1625.1,1144.2 1656.7,1133.9 1688.8,1121.5 1721.6,1107.1 1755.1,1090.3 1789.6,1071.2 1825.2,1049.6 1861.8,1025.2 1899.7,997.9 1938.9,967.5 1979.6,933.8 2021.9,896.5 2065.9,855.3 2111.6,810.1 2159.3,760.5 2208.9,706.2  A 1064.250,1064.250 0.00 0,0 2206.2,703.8 L 2206.2,703.8 2156.7,758.3 2109.3,808.0 2063.7,853.4 2019.8,894.7 1977.7,932.1 1937.1,966.0 1898.0,996.5 1860.2,1023.9 1823.6,1048.4 1788.2,1070.2 1753.7,1089.5 1720.2,1106.3 1687.5,1120.9 1655.4,1133.3 1623.9,1143.8 1592.9,1152.3 1562.2,1158.9 1531.7,1163.7 1501.3,1166.7 1470.9,1168.0 1440.3,1167.5 1409.5,1165.3 1378.4,1161.2 1346.7,1155.4 1314.5,1147.6 1281.5,1137.9 1247.6,1126.1 1212.8,1112.1 1176.9,1095.8 1139.8,1077.1 1101.3,1055.7 1061.3,1031.6 1019.8,1004.4 976.5,974.1 931.4,940.3 884.2,902.8 835.0,861.4 783.5,815.8 729.7,765.6  Z" style="stroke-width: 2.0;  stroke: rgb(82,82,82); fill: rgb(204,255,0); opacity: 0.667;" />
<path d="M 729.708,765.644 A 1064.250,1064.250 0.00 0,1 732.2,763.0 L 732.2,763.0 784.8,814.9 832.8,865.3 876.7,914.1 916.9,961.6 953.6,1007.6 987.0,1052.4 1017.6,1095.9 1045.5,1138.3 1071.1,1179.6 1094.4,1220.0 1115.8,1259.4 1135.4,1298.1 1153.5,1336.1 1170.1,1373.5 1185.4,1410.4 1199.5,1447.0 1212.6,1483.3 1224.8,1519.5 1236.0,1555.8 1246.4,1592.2 1256.1,1628.9 1264.9,1666.1 1273.0,1703.9 1280.3,1742.4 1286.8,1781.8 1292.5,1822.3 1297.3,1864.1 1301.0,1907.3 1303.7,1952.1 1305.2,1998.7 1305.4,2047.3 1304.1,2098.0 1301.2,2151.1 1296.4,2206.8 1289.7,2265.3 1280.7,2326.8 1269.2,2391.5 1255.0,2459.6 1237.9,2531.5  A 1064.250,1064.250 0.00 0,0 1241.4,2532.4 L 1241.4,2532.4 1258.3,2460.5 1272.3,2392.3 1283.5,2327.5 1292.3,2266.0 1298.9,2207.5 1303.4,2151.8 1306.2,2098.7 1307.3,2047.9 1307.0,1999.4 1305.3,1952.8 1302.4,1908.0 1298.5,1864.8 1293.6,1823.0 1287.8,1782.5 1281.1,1743.1 1273.7,1704.6 1265.5,1666.9 1256.5,1629.8 1246.8,1593.1 1236.2,1556.7 1224.8,1520.5 1212.6,1484.3 1199.4,1448.0 1185.1,1411.5 1169.6,1374.6 1152.9,1337.3 1134.7,1299.3 1115.0,1260.7 1093.5,1221.4 1070.0,1181.1 1044.3,1139.9 1016.2,1097.6 985.5,1054.1 951.9,1009.5 915.1,963.6 874.7,916.3 830.6,867.5 782.4,817.4 729.7,765.6  Z" style="stroke-width: 2.0;  stroke: rgb(82,82,82); fill: rgb(0,255,0); opacity: 0.667;" />
<path d="M 729.708,765.644 A 1064.250,1064.250 0.00 0,1 732.2,763.0 L 732.2,763.0 784.7,814.3 832.6,862.8 876.2,908.7 915.8,952.2 951.4,993.3 983.5,1032.3 1012.0,1069.3 1037.4,1104.4 1059.6,1137.7 1078.9,1169.4 1095.4,1199.5 1109.2,1228.3 1120.4,1255.7 1129.2,1282.0 1135.5,1307.2 1139.4,1331.4 1141.0,1354.7 1140.3,1377.3 1137.4,1399.1 1132.1,1420.4 1124.6,1441.1 1114.7,1461.4 1102.4,1481.3 1087.6,1500.8 1070.3,1520.2 1050.3,1539.4 1027.6,1558.5 1002.0,1577.5 973.4,1596.5 941.6,1615.5 906.4,1634.6 867.6,1653.9 825.1,1673.3 778.6,1692.9 727.9,1712.7 672.6,1732.8 612.7,1753.1 547.7,1773.7 477.3,1794.6  A 1064.250,1064.250 0.00 0,0 478.4,1798.1 L 478.4,1798.1 548.6,1777.0 613.5,1756.1 673.4,1735.6 728.6,1715.3 779.3,1695.3 825.7,1675.6 868.1,1656.0 906.8,1636.6 942.0,1617.4 973.7,1598.3 1002.3,1579.2 1027.8,1560.1 1050.5,1540.9 1070.4,1521.7 1087.6,1502.3 1102.3,1482.6 1114.5,1462.7 1124.4,1442.4 1131.9,1421.6 1137.0,1400.4 1139.9,1378.5 1140.5,1356.0 1138.8,1332.6 1134.8,1308.4 1128.4,1283.3 1119.6,1257.0 1108.3,1229.6 1094.4,1200.9 1077.8,1170.8 1058.4,1139.2 1036.0,1106.0 1010.6,1071.0 981.9,1034.1 949.7,995.2 913.9,954.2 874.2,910.8 830.5,865.1 782.4,816.7 729.7,765.6  Z" style="stroke-width: 2.0;  stroke: rgb(82,82,82); fill: rgb(53,128,0); opacity: 0.667;" />
<path d="M 729.708,765.644 A 1064.250,1064.250 0.00 0,1 732.2,763.0 L 732.2,763.0 784.9,813.8 833.5,861.0 878.0,904.6 918.8,945.0 956.0,982.3 989.8,1016.6 1020.2,1048.1 1047.6,1076.9 1072.0,1103.1 1093.6,1127.0 1112.4,1148.4 1128.5,1167.7 1142.1,1184.8 1153.2,1199.8 1161.9,1212.9 1168.2,1224.0 1172.1,1233.2 1173.8,1240.6 1173.1,1246.3 1170.2,1250.1 1164.9,1252.2 1157.4,1252.5 1147.4,1251.1 1135.0,1247.9 1120.2,1242.9 1102.8,1236.1 1082.7,1227.4 1060.0,1216.8 1034.3,1204.2 1005.8,1189.5 974.1,1172.8 939.2,1153.8 900.9,1132.5 859.0,1108.8 813.4,1082.5 763.8,1053.6 710.0,1021.9 651.9,987.3 589.2,949.5  A 1064.250,1064.250 0.00 0,0 587.3,952.6 L 587.3,952.6 650.2,990.2 708.4,1024.6 762.2,1056.1 811.9,1084.9 857.7,1111.0 899.6,1134.5 938.0,1155.7 973.0,1174.6 1004.7,1191.2 1033.3,1205.8 1059.0,1218.3 1081.8,1228.8 1101.9,1237.4 1119.3,1244.2 1134.2,1249.1 1146.5,1252.3 1156.5,1253.7 1164.1,1253.3 1169.3,1251.2 1172.3,1247.4 1172.9,1241.8 1171.2,1234.3 1167.2,1225.1 1160.9,1214.0 1152.2,1201.0 1141.0,1186.0 1127.4,1168.9 1111.2,1149.8 1092.3,1128.3 1070.7,1104.6 1046.2,1078.5 1018.7,1049.8 988.1,1018.4 954.2,984.2 916.9,947.0 876.0,906.8 831.3,863.2 782.6,816.3 729.7,765.6  Z" style="stroke-width: 2.0;  stroke: rgb(82,82,82); fill: rgb(0,0,204); opacity: 0.667;" />
<path d="M 729.708,765.644 A 1064.250,1064.250 0.00 0,1 732.2,763.0 L 732.2,763.0 785.0,813.8 833.6,860.8 878.2,904.4 919.1,944.6 956.5,981.7 990.5,1015.7 1021.2,1046.8 1048.9,1075.3 1073.6,1101.1 1095.4,1124.4 1114.6,1145.4 1131.1,1164.0 1145.1,1180.5 1156.7,1194.9 1165.9,1207.2 1172.7,1217.5 1177.2,1225.9 1179.4,1232.5 1179.4,1237.1 1177.2,1239.9 1172.6,1240.9 1165.8,1240.0 1156.6,1237.3 1145.1,1232.7 1131.2,1226.3 1114.8,1217.9 1095.8,1207.5 1074.1,1195.2 1049.7,1180.7 1022.4,1164.0 992.1,1145.1 958.6,1123.9 921.8,1100.1 881.6,1073.8 837.7,1044.8 789.9,1013.0 738.2,978.2 682.2,940.2 621.7,899.0  A 1064.250,1064.250 0.00 0,0 619.7,902.0 L 619.7,902.0 680.3,943.0 736.4,980.8 788.3,1015.4 836.1,1047.1 880.1,1076.0 920.4,1102.1 957.3,1125.7 990.8,1146.9 1021.2,1165.7 1048.6,1182.2 1073.1,1196.6 1094.8,1208.9 1113.8,1219.2 1130.3,1227.5 1144.2,1233.9 1155.7,1238.5 1164.9,1241.1 1171.7,1242.0 1176.3,1241.0 1178.5,1238.2 1178.5,1233.6 1176.3,1227.0 1171.7,1218.7 1164.9,1208.3 1155.7,1196.1 1144.1,1181.7 1130.0,1165.3 1113.4,1146.7 1094.2,1125.8 1072.2,1102.5 1047.4,1076.8 1019.7,1048.5 988.8,1017.4 954.7,983.5 917.2,946.6 876.2,906.5 831.4,863.1 782.6,816.2 729.7,765.6  Z" style="stroke-width: 2.0;  stroke: rgb(82,82,82); fill: rgb(102,153,255); opacity: 0.667;" />
<path d="M 825.501,676.787 A 1064.250,1064.250 0.00 0,1 828.3,674.5 L 828.3,674.5 875.3,731.0 920.4,782.7 963.7,829.9 1005.2,872.9 1045.2,912.0 1083.6,947.4 1120.6,979.3 1156.3,1007.9 1190.8,1033.6 1224.3,1056.3 1256.7,1076.4 1288.3,1093.9 1319.1,1109.0 1349.2,1121.9 1378.8,1132.5 1407.9,1141.0 1436.7,1147.5 1465.3,1152.1 1493.7,1154.6 1522.2,1155.3 1550.7,1154.0 1579.4,1150.8 1608.5,1145.6 1638.0,1138.5 1668.0,1129.2 1698.7,1117.8 1730.2,1104.1 1762.5,1088.0 1795.8,1069.5 1830.3,1048.3 1865.9,1024.3 1902.9,997.3 1941.4,967.1 1981.4,933.5 2023.1,896.3 2066.5,855.3 2111.9,810.1 2159.4,760.5 2208.9,706.2  A 1064.250,1064.250 0.00 0,0 2206.2,703.8 L 2206.2,703.8 2156.8,758.3 2109.5,808.0 2064.3,853.3 2021.0,894.5 1979.4,931.9 1939.5,965.6 1901.2,995.9 1864.3,1023.0 1828.7,1047.1 1794.3,1068.4 1761.1,1087.1 1728.8,1103.3 1697.4,1117.1 1666.7,1128.6 1636.7,1138.0 1607.3,1145.3 1578.2,1150.6 1549.5,1153.9 1521.0,1155.2 1492.5,1154.7 1464.1,1152.2 1435.5,1147.8 1406.7,1141.4 1377.5,1132.9 1347.9,1122.4 1317.7,1109.6 1286.9,1094.6 1255.3,1077.2 1222.8,1057.3 1189.2,1034.6 1154.6,1009.1 1118.8,980.6 1081.7,948.8 1043.2,913.6 1003.1,874.6 961.4,831.8 918.0,784.7 872.7,733.1 825.5,676.8  Z" style="stroke-width: 2.0;  stroke: rgb(82,82,82); fill: rgb(153,204,255); opacity: 0.667;" />
<path d="M 825.501,676.787 A 1064.250,1064.250 0.00 0,1 828.3,674.5 L 828.3,674.5 874.1,732.5 915.7,788.6 953.4,842.8 987.6,895.2 1018.6,945.9 1046.7,995.1 1072.1,1042.7 1095.1,1088.9 1116.0,1133.7 1135.0,1177.4 1152.3,1220.0 1168.1,1261.6 1182.5,1302.3 1195.8,1342.3 1208.0,1381.6 1219.3,1420.5 1229.7,1459.0 1239.4,1497.2 1248.5,1535.4 1256.9,1573.7 1264.8,1612.1 1272.1,1650.9 1278.8,1690.2 1284.9,1730.2 1290.3,1771.1 1295.1,1812.9 1299.2,1855.9 1302.3,1900.3 1304.6,1946.2 1305.7,1993.8 1305.6,2043.3 1304.1,2094.9 1301.1,2148.8 1296.3,2205.2 1289.5,2264.2 1280.6,2326.2 1269.1,2391.2 1255.0,2459.6 1237.9,2531.5  A 1064.250,1064.250 0.00 0,0 1241.4,2532.4 L 1241.4,2532.4 1258.3,2460.4 1272.2,2392.0 1283.4,2326.9 1292.2,2264.9 1298.7,2205.9 1303.3,2149.5 1306.2,2095.6 1307.5,2044.0 1307.4,1994.5 1306.1,1946.9 1303.7,1901.0 1300.4,1856.6 1296.2,1813.6 1291.3,1771.8 1285.7,1731.0 1279.4,1691.0 1272.6,1651.7 1265.2,1612.9 1257.2,1574.5 1248.6,1536.3 1239.4,1498.1 1229.6,1459.9 1219.0,1421.4 1207.6,1382.6 1195.2,1343.3 1181.8,1303.4 1167.3,1262.7 1151.3,1221.2 1133.9,1178.7 1114.8,1135.1 1093.7,1090.2 1070.5,1044.1 1044.9,996.6 1016.7,947.6 985.5,897.0 951.2,844.7 913.3,790.6 871.5,734.6 825.5,676.8  Z" style="stroke-width: 2.0;  stroke: rgb(82,82,82); fill: rgb(0,255,255); opacity: 0.667;" />
<path d="M 825.501,676.787 A 1064.250,1064.250 0.00 0,1 828.3,674.5 L 828.3,674.5 874.1,731.9 915.7,786.1 953.2,837.4 987.0,885.8 1017.2,931.7 1044.1,975.0 1067.8,1016.1 1088.6,1055.0 1106.5,1091.8 1121.7,1126.8 1134.4,1160.1 1144.6,1191.8 1152.5,1222.0 1158.1,1250.8 1161.5,1278.5 1162.7,1305.0 1161.8,1330.5 1158.8,1355.0 1153.7,1378.8 1146.5,1401.9 1137.1,1424.3 1125.5,1446.2 1111.7,1467.7 1095.6,1488.7 1077.0,1509.5 1056.0,1530.0 1032.3,1550.3 1005.8,1570.5 976.4,1590.6 943.9,1610.6 908.2,1630.7 869.0,1650.8 826.1,1671.0 779.2,1691.2 728.2,1711.6 672.8,1732.1 612.8,1752.8 547.7,1773.6 477.3,1794.6  A 1064.250,1064.250 0.00 0,0 478.4,1798.1 L 478.4,1798.1 548.6,1776.9 613.6,1755.8 673.6,1735.0 729.0,1714.2 779.9,1693.7 826.6,1673.3 869.5,1652.9 908.6,1632.7 944.3,1612.5 976.7,1592.4 1006.1,1572.2 1032.5,1551.9 1056.1,1531.5 1077.1,1510.9 1095.5,1490.1 1111.6,1469.0 1125.3,1447.5 1136.8,1425.6 1146.1,1403.1 1153.3,1380.0 1158.3,1356.2 1161.2,1331.6 1162.0,1306.1 1160.7,1279.6 1157.2,1252.0 1151.5,1223.2 1143.6,1193.0 1133.2,1161.4 1120.5,1128.1 1105.1,1093.2 1087.1,1056.4 1066.2,1017.6 1042.3,976.6 1015.3,933.3 984.9,887.6 951.0,839.2 913.2,788.1 871.5,734.0 825.5,676.8  Z" style="stroke-width: 2.0;  stroke: rgb(82,82,82); fill: rgb(204,255,255); opacity: 0.667;" />
<path d="M 825.501,676.787 A 1064.250,1064.250 0.00 0,1 828.3,674.5 L 828.3,674.5 874.4,731.4 916.6,784.3 955.2,833.4 990.4,878.9 1022.3,920.9 1051.1,959.7 1077.0,995.3 1100.0,1028.1 1120.3,1058.0 1138.0,1085.2 1153.1,1109.9 1165.9,1132.2 1176.3,1152.1 1184.4,1169.8 1190.3,1185.4 1194.0,1198.9 1195.5,1210.3 1194.9,1219.8 1192.1,1227.3 1187.2,1233.0 1180.1,1236.8 1170.8,1238.7 1159.3,1238.8 1145.4,1237.0 1129.2,1233.3 1110.5,1227.8 1089.4,1220.2 1065.5,1210.7 1039.0,1199.1 1009.5,1185.4 977.1,1169.4 941.5,1151.2 902.6,1130.6 860.2,1107.4 814.1,1081.6 764.2,1053.1 710.2,1021.7 652.0,987.2 589.2,949.5  A 1064.250,1064.250 0.00 0,0 587.3,952.6 L 587.3,952.6 650.2,990.1 708.6,1024.4 762.7,1055.6 812.7,1084.0 858.8,1109.6 901.3,1132.6 940.3,1153.1 975.9,1171.2 1008.4,1187.0 1037.9,1200.7 1064.5,1212.2 1088.4,1221.6 1109.6,1229.1 1128.3,1234.6 1144.5,1238.2 1158.4,1240.0 1169.9,1239.9 1179.2,1237.9 1186.3,1234.1 1191.2,1228.4 1194.0,1220.8 1194.5,1211.3 1193.0,1199.9 1189.2,1186.4 1183.3,1170.9 1175.1,1153.2 1164.6,1133.3 1151.8,1111.1 1136.5,1086.5 1118.8,1059.3 1098.4,1029.4 1075.3,996.8 1049.3,961.2 1020.4,922.6 988.3,880.6 953.0,835.3 914.2,786.3 871.7,733.6 825.5,676.8  Z" style="stroke-width: 2.0;  stroke: rgb(82,82,82); fill: rgb(153,0,204); opacity: 0.667;" />
<path d="M 825.501,676.787 A 1064.250,1064.250 0.00 0,1 828.3,674.5 L 828.3,674.5 874.4,731.4 916.7,784.2 955.4,833.2 990.8,878.5 1022.9,920.3 1051.9,958.8 1078.0,994.1 1101.3,1026.5 1121.9,1056.0 1139.9,1082.8 1155.5,1107.0 1168.6,1128.7 1179.5,1148.0 1188.1,1165.0 1194.4,1179.9 1198.7,1192.5 1200.8,1203.1 1200.7,1211.7 1198.6,1218.3 1194.3,1222.9 1187.9,1225.6 1179.4,1226.4 1168.7,1225.2 1155.7,1222.0 1140.4,1216.9 1122.7,1209.7 1102.5,1200.5 1079.8,1189.2 1054.4,1175.7 1026.2,1159.9 995.1,1141.9 960.9,1121.3 923.5,1098.2 882.8,1072.5 838.4,1044.0 790.4,1012.5 738.4,978.0 682.2,940.2 621.7,899.0  A 1064.250,1064.250 0.00 0,0 619.7,902.0 L 619.7,902.0 680.3,943.0 736.6,980.6 788.7,1014.9 836.9,1046.2 881.3,1074.6 922.2,1100.2 959.6,1123.2 993.9,1143.6 1025.0,1161.6 1053.3,1177.2 1078.7,1190.6 1101.5,1201.9 1121.7,1211.0 1139.4,1218.1 1154.7,1223.2 1167.7,1226.3 1178.5,1227.5 1187.0,1226.7 1193.4,1224.0 1197.6,1219.3 1199.7,1212.8 1199.7,1204.2 1197.6,1193.6 1193.4,1180.9 1186.9,1166.1 1178.3,1149.1 1167.4,1129.8 1154.1,1108.1 1138.5,1084.0 1120.4,1057.3 1099.7,1027.8 1076.3,995.6 1050.1,960.3 1020.9,921.9 988.6,880.2 953.2,835.0 914.3,786.2 871.8,733.5 825.5,676.8  Z" style="stroke-width: 2.0;  stroke: rgb(82,82,82); fill: rgb(204,51,255); opacity: 0.667;" />
<path d="M 825.501,676.787 A 1064.250,1064.250 0.00 0,1 828.3,674.5 L 828.3,674.5 874.5,731.3 917.0,783.9 956.1,832.5 991.9,877.3 1024.6,918.5 1054.3,956.3 1081.2,990.8 1105.4,1022.1 1127.0,1050.5 1146.2,1076.0 1163.0,1098.8 1177.4,1119.0 1189.7,1136.7 1199.8,1151.9 1207.9,1164.8 1213.8,1175.4 1217.8,1183.7 1219.8,1189.9 1219.8,1193.8 1217.8,1195.7 1213.8,1195.3 1207.9,1192.9 1199.9,1188.2 1189.8,1181.4 1177.6,1172.4 1163.3,1161.0 1146.7,1147.3 1127.7,1131.2 1106.4,1112.7 1082.5,1091.5 1056.0,1067.6 1026.7,1040.9 994.6,1011.3 959.4,978.6 921.0,942.6 879.3,903.3 834.0,860.3 785.1,813.6 732.2,763.0  A 1064.250,1064.250 0.00 0,0 729.7,765.6 L 729.7,765.6 782.7,816.1 831.9,862.6 877.3,905.4 919.1,944.6 957.6,980.4 992.9,1013.0 1025.2,1042.5 1054.5,1069.1 1081.1,1092.9 1105.1,1114.0 1126.5,1132.5 1145.5,1148.5 1162.1,1162.2 1176.5,1173.5 1188.7,1182.5 1198.8,1189.3 1206.8,1193.9 1212.8,1196.3 1216.8,1196.6 1218.7,1194.8 1218.7,1190.8 1216.7,1184.7 1212.7,1176.4 1206.7,1165.8 1198.6,1152.9 1188.5,1137.7 1176.1,1120.1 1161.6,1100.0 1144.7,1077.2 1125.5,1051.8 1103.8,1023.5 1079.4,992.2 1052.4,957.8 1022.6,920.2 989.7,879.1 953.8,834.4 914.5,785.9 871.8,733.5 825.5,676.8  Z" style="stroke-width: 2.0;  stroke: rgb(82,82,82); fill: rgb(204,153,255); opacity: 0.667;" />
<path d="M 1256.831,463.903 A 1064.250,1064.250 0.00 0,1 1260.4,463.1 L 1260.4,463.1 1277.4,534.4 1294.4,600.4 1311.3,661.2 1328.0,717.3 1344.7,768.9 1361.3,816.1 1377.8,859.4 1394.3,898.7 1410.9,934.5 1427.4,966.9 1444.0,995.9 1460.8,1021.9 1477.7,1044.9 1494.8,1065.1 1512.1,1082.6 1529.8,1097.4 1547.8,1109.7 1566.3,1119.5 1585.2,1126.9 1604.8,1132.0 1624.9,1134.6 1645.8,1134.9 1667.6,1132.7 1690.2,1128.2 1713.8,1121.3 1738.5,1111.8 1764.4,1099.7 1791.5,1085.0 1820.1,1067.5 1850.2,1047.1 1881.9,1023.7 1915.3,997.1 1950.6,967.2 1987.9,933.8 2027.3,896.6 2069.0,855.5 2113.0,810.2 2159.6,760.6 2208.9,706.2  A 1064.250,1064.250 0.00 0,0 2206.2,703.8 L 2206.2,703.8 2157.1,758.3 2110.7,808.1 2066.7,853.5 2025.2,894.8 1985.9,932.1 1948.8,965.7 1913.6,995.7 1880.2,1022.4 1848.6,1045.9 1818.6,1066.4 1790.1,1084.0 1763.0,1098.8 1737.2,1111.0 1712.5,1120.5 1688.9,1127.6 1666.3,1132.2 1644.6,1134.4 1623.7,1134.2 1603.5,1131.6 1583.9,1126.7 1565.0,1119.3 1546.5,1109.6 1528.4,1097.3 1510.7,1082.5 1493.3,1065.1 1476.1,1045.0 1459.1,1022.0 1442.3,996.1 1425.6,967.1 1408.9,934.8 1392.3,899.1 1375.6,859.8 1358.9,816.6 1342.2,769.4 1325.3,717.9 1308.4,661.9 1291.3,601.1 1274.1,535.2 1256.8,463.9  Z" style="stroke-width: 2.0;  stroke: rgb(82,82,82); fill: rgb(102,102,102); opacity: 0.667;" />
<path d="M 1256.831,463.903 A 1064.250,1064.250 0.00 0,1 1260.4,463.1 L 1260.4,463.1 1275.9,535.6 1288.5,605.1 1298.5,671.6 1306.3,735.4 1312.1,796.6 1316.2,855.4 1318.8,911.9 1320.3,966.4 1320.9,1019.0 1320.7,1069.8 1319.9,1119.1 1318.7,1167.0 1317.3,1213.6 1315.8,1259.2 1314.3,1303.8 1312.9,1347.7 1311.7,1391.0 1310.7,1434.0 1310.0,1476.6 1309.5,1519.2 1309.3,1561.9 1309.4,1604.8 1309.7,1648.2 1310.1,1692.1 1310.6,1736.8 1311.2,1782.4 1311.5,1829.0 1311.6,1876.9 1311.3,1926.1 1310.4,1977.0 1308.8,2029.5 1306.1,2084.0 1302.2,2140.5 1296.8,2199.2 1289.7,2260.2 1280.6,2323.8 1269.1,2390.1 1255.0,2459.3 1237.9,2531.5  A 1064.250,1064.250 0.00 0,0 1241.4,2532.4 L 1241.4,2532.4 1258.3,2460.1 1272.2,2390.9 1283.4,2324.6 1292.3,2261.0 1299.2,2199.9 1304.4,2141.1 1308.1,2084.6 1310.6,2030.2 1312.1,1977.6 1312.8,1926.8 1312.9,1877.5 1312.7,1829.6 1312.1,1783.0 1311.5,1737.4 1310.8,1692.8 1310.2,1648.8 1309.7,1605.5 1309.5,1562.6 1309.6,1519.9 1309.9,1477.3 1310.5,1434.6 1311.3,1391.7 1312.4,1348.3 1313.7,1304.4 1315.0,1259.8 1316.4,1214.2 1317.6,1167.6 1318.6,1119.7 1319.2,1070.5 1319.2,1019.6 1318.5,967.0 1316.8,912.6 1314.0,856.0 1309.7,797.2 1303.7,736.0 1295.7,672.3 1285.5,605.8 1272.6,536.4 1256.8,463.9  Z" style="stroke-width: 2.0;  stroke: rgb(82,82,82); fill: rgb(153,153,153); opacity: 0.667;" />
<path d="M 1256.831,463.903 A 1064.250,1064.250 0.00 0,1 1260.4,463.1 L 1260.4,463.1 1276.1,535.0 1289.0,602.7 1299.5,666.3 1307.6,726.3 1313.5,782.7 1317.4,835.9 1319.5,886.1 1319.8,933.5 1318.4,978.2 1315.5,1020.6 1311.2,1060.7 1305.4,1098.8 1298.4,1135.1 1290.0,1169.6 1280.4,1202.6 1269.5,1234.3 1257.3,1264.7 1243.9,1294.0 1229.1,1322.3 1213.0,1349.7 1195.4,1376.3 1176.4,1402.3 1155.7,1427.7 1133.4,1452.6 1109.2,1477.1 1083.1,1501.2 1054.8,1525.0 1024.3,1548.5 991.4,1571.8 955.7,1594.9 917.3,1617.9 875.8,1640.6 830.9,1663.2 782.5,1685.7 730.3,1707.9 674.0,1730.0 613.3,1751.8 547.8,1773.4 477.3,1794.6  A 1064.250,1064.250 0.00 0,0 478.4,1798.1 L 478.4,1798.1 548.8,1776.6 614.1,1754.8 674.8,1732.8 731.0,1710.6 783.2,1688.1 831.5,1665.5 876.3,1642.8 917.7,1619.8 956.1,1596.8 991.6,1573.6 1024.5,1550.1 1054.9,1526.5 1083.1,1502.6 1109.1,1478.4 1133.2,1453.9 1155.5,1428.9 1176.1,1403.4 1195.0,1377.4 1212.5,1350.7 1228.5,1323.2 1243.2,1294.8 1256.5,1265.5 1268.6,1235.1 1279.4,1203.4 1288.9,1170.3 1297.1,1135.7 1304.1,1099.5 1309.7,1061.4 1313.9,1021.2 1316.6,978.9 1317.8,934.1 1317.4,886.7 1315.2,836.6 1311.1,783.4 1304.9,727.0 1296.6,667.0 1286.0,603.4 1272.8,535.8 1256.8,463.9  Z" style="stroke-width: 2.0;  stroke: rgb(82,82,82); fill: rgb(204,204,204); opacity: 0.667;" />
<path d="M 1256.831,463.903 A 1064.250,1064.250 0.00 0,1 1260.4,463.1 L 1260.4,463.1 1276.4,534.6 1290.3,601.1 1302.2,662.9 1312.2,720.2 1320.4,773.3 1326.9,822.4 1331.8,867.7 1335.0,909.4 1336.8,947.7 1337.1,982.8 1335.9,1014.8 1333.3,1044.0 1329.4,1070.4 1324.1,1094.2 1317.4,1115.5 1309.3,1134.3 1299.9,1150.9 1289.0,1165.2 1276.7,1177.3 1262.9,1187.4 1247.5,1195.3 1230.5,1201.2 1211.8,1205.0 1191.4,1206.8 1169.1,1206.5 1144.8,1204.2 1118.5,1199.7 1090.0,1193.0 1059.2,1184.2 1025.9,1173.0 990.1,1159.4 951.4,1143.3 909.9,1124.6 865.3,1103.2 817.4,1078.9 766.1,1051.5 711.1,1020.9 652.2,987.0 589.2,949.5  A 1064.250,1064.250 0.00 0,0 587.3,952.6 L 587.3,952.6 650.4,989.9 709.4,1023.6 764.5,1054.0 816.0,1081.2 864.0,1105.3 908.6,1126.6 950.2,1145.2 988.9,1161.1 1024.8,1174.6 1058.1,1185.7 1089.0,1194.4 1117.5,1201.0 1143.8,1205.4 1168.1,1207.6 1190.4,1207.8 1210.8,1206.0 1229.5,1202.1 1246.5,1196.1 1261.8,1188.2 1275.6,1178.1 1287.9,1165.9 1298.7,1151.6 1308.1,1135.0 1316.1,1116.1 1322.7,1094.8 1327.9,1071.0 1331.8,1044.6 1334.2,1015.4 1335.3,983.3 1334.9,948.2 1333.0,909.9 1329.6,868.3 1324.6,823.0 1318.0,773.9 1309.6,720.9 1299.4,663.6 1287.2,601.9 1273.1,535.4 1256.8,463.9  Z" style="stroke-width: 2.0;  stroke: rgb(82,82,82); fill: rgb(204,204,153); opacity: 0.667;" />
<path d="M 1256.831,463.903 A 1064.250,1064.250 0.00 0,1 1260.4,463.1 L 1260.4,463.1 1276.4,534.6 1290.4,601.1 1302.5,662.7 1312.7,719.9 1321.1,772.8 1327.8,821.6 1333.0,866.7 1336.6,908.0 1338.7,946.0 1339.3,980.7 1338.6,1012.2 1336.5,1040.9 1333.0,1066.7 1328.2,1089.9 1322.0,1110.4 1314.5,1128.6 1305.6,1144.3 1295.3,1157.7 1283.7,1168.9 1270.5,1177.9 1255.8,1184.7 1239.6,1189.3 1221.7,1191.9 1202.1,1192.3 1180.7,1190.5 1157.4,1186.6 1132.0,1180.4 1104.6,1171.9 1074.9,1161.1 1042.9,1147.9 1008.3,1132.1 971.1,1113.6 931.0,1092.5 888.0,1068.4 841.8,1041.3 792.3,1010.9 739.2,977.2 682.5,940.0 621.7,899.0  A 1064.250,1064.250 0.00 0,0 619.7,902.0 L 619.7,902.0 680.5,942.8 737.5,979.8 790.6,1013.4 840.3,1043.5 886.5,1070.5 929.6,1094.4 969.8,1115.5 1007.0,1133.8 1041.7,1149.4 1073.8,1162.6 1103.5,1173.3 1131.0,1181.6 1156.3,1187.7 1179.6,1191.6 1201.0,1193.3 1220.7,1192.8 1238.5,1190.2 1254.8,1185.5 1269.4,1178.7 1282.5,1169.6 1294.2,1158.4 1304.4,1145.0 1313.2,1129.2 1320.7,1111.1 1326.8,1090.4 1331.5,1067.3 1334.9,1041.4 1336.9,1012.8 1337.5,981.2 1336.8,946.5 1334.5,908.6 1330.8,867.2 1325.5,822.2 1318.6,773.4 1310.0,720.6 1299.6,663.4 1287.4,601.8 1273.1,535.4 1256.8,463.9  Z" style="stroke-width: 2.0;  stroke: rgb(82,82,82); fill: rgb(251,106,74); opacity: 0.667;" />
<path d="M 1256.831,463.903 A 1064.250,1064.250 0.00 0,1 1260.4,463.1 L 1260.4,463.1 1276.5,534.5 1290.8,600.8 1303.2,662.2 1313.9,719.0 1323.0,771.4 1330.6,819.6 1336.6,863.9 1341.3,904.4 1344.5,941.4 1346.4,974.9 1347.0,1005.3 1346.3,1032.5 1344.3,1056.8 1341.1,1078.2 1336.7,1097.0 1331.0,1113.1 1324.0,1126.6 1315.8,1137.6 1306.3,1146.2 1295.4,1152.4 1283.1,1156.2 1269.4,1157.6 1254.3,1156.6 1237.5,1153.3 1219.2,1147.5 1199.1,1139.3 1177.2,1128.5 1153.5,1115.1 1127.7,1099.1 1099.9,1080.3 1069.8,1058.6 1037.4,1033.9 1002.5,1006.0 964.9,974.8 924.6,940.1 881.3,901.8 835.0,859.7 785.3,813.5 732.2,763.0  A 1064.250,1064.250 0.00 0,0 729.7,765.6 L 729.7,765.6 783.0,815.9 832.8,862.0 879.3,904.0 922.7,942.1 963.1,976.6 1000.8,1007.7 1035.8,1035.4 1068.3,1060.1 1098.5,1081.7 1126.4,1100.4 1152.2,1116.3 1176.0,1129.6 1197.9,1140.3 1218.0,1148.5 1236.3,1154.2 1253.1,1157.5 1268.3,1158.4 1282.0,1156.9 1294.2,1153.1 1305.1,1146.9 1314.6,1138.2 1322.8,1127.2 1329.7,1113.6 1335.3,1097.5 1339.7,1078.8 1342.8,1057.3 1344.7,1033.0 1345.3,1005.8 1344.6,975.5 1342.6,941.9 1339.2,905.0 1334.5,864.5 1328.3,820.2 1320.6,772.0 1311.3,719.7 1300.4,662.9 1287.7,601.5 1273.2,535.3 1256.8,463.9  Z" style="stroke-width: 2.0;  stroke: rgb(82,82,82); fill: rgb(116,196,118); opacity: 0.667;" />
<path d="M 1256.831,463.903 A 1064.250,1064.250 0.00 0,1 1260.4,463.1 L 1260.4,463.1 1276.6,534.5 1291.0,600.7 1303.8,661.9 1315.0,718.4 1324.6,770.5 1332.8,818.3 1339.6,862.1 1345.0,902.0 1349.2,938.4 1352.1,971.2 1353.8,1000.7 1354.3,1027.0 1353.6,1050.3 1351.7,1070.7 1348.8,1088.2 1344.6,1102.9 1339.3,1115.0 1332.8,1124.5 1325.1,1131.4 1316.2,1135.7 1306.1,1137.6 1294.6,1136.9 1281.8,1133.6 1267.6,1127.9 1252.0,1119.5 1234.8,1108.4 1216.0,1094.7 1195.5,1078.1 1173.2,1058.7 1149.1,1036.3 1123.0,1010.7 1094.8,981.9 1064.4,949.7 1031.6,913.8 996.4,874.3 958.7,830.8 918.2,783.1 874.8,731.1 828.3,674.5  A 1064.250,1064.250 0.00 0,0 825.5,676.8 L 825.5,676.8 872.1,733.3 915.7,785.1 956.4,832.6 994.3,876.0 1029.6,915.5 1062.5,951.1 1093.0,983.3 1121.3,1012.0 1147.5,1037.5 1171.7,1059.8 1194.1,1079.2 1214.6,1095.7 1233.4,1109.4 1250.7,1120.3 1266.4,1128.7 1280.6,1134.4 1293.4,1137.6 1304.9,1138.2 1315.0,1136.4 1323.9,1132.0 1331.5,1125.1 1338.0,1115.6 1343.3,1103.5 1347.3,1088.7 1350.3,1071.2 1352.0,1050.8 1352.7,1027.5 1352.1,1001.2 1350.3,971.7 1347.3,938.9 1343.0,902.6 1337.4,862.6 1330.5,818.9 1322.1,771.1 1312.3,719.1 1300.9,662.6 1288.0,601.4 1273.3,535.3 1256.8,463.9  Z" style="stroke-width: 2.0;  stroke: rgb(82,82,82); fill: rgb(107,174,214); opacity: 0.667;" />
<path d="M 1264.659,462.097 A 1064.250,1064.250 0.00 0,1 1268.2,461.3 L 1268.2,461.3 1284.7,532.8 1301.2,598.8 1317.6,659.8 1333.9,716.0 1350.1,767.7 1366.3,815.0 1382.5,858.4 1398.6,897.9 1414.8,933.7 1431.1,966.1 1447.4,995.3 1463.9,1021.4 1480.5,1044.4 1497.4,1064.7 1514.5,1082.2 1531.9,1097.1 1549.8,1109.5 1568.0,1119.4 1586.8,1126.8 1606.2,1131.8 1626.2,1134.5 1647.0,1134.8 1668.6,1132.7 1691.1,1128.2 1714.6,1121.3 1739.2,1111.8 1765.0,1099.8 1792.0,1085.0 1820.5,1067.5 1850.5,1047.2 1882.1,1023.8 1915.5,997.2 1950.8,967.2 1988.0,933.8 2027.4,896.6 2069.0,855.5 2113.1,810.2 2159.6,760.6 2208.9,706.2  A 1064.250,1064.250 0.00 0,0 2206.2,703.8 L 2206.2,703.8 2157.1,758.3 2110.7,808.1 2066.8,853.5 2025.3,894.8 1986.0,932.1 1948.9,965.7 1913.8,995.7 1880.5,1022.4 1849.0,1046.0 1819.0,1066.4 1790.6,1084.0 1763.6,1098.8 1737.8,1111.0 1713.3,1120.5 1689.8,1127.6 1667.3,1132.1 1645.7,1134.3 1625.0,1134.1 1604.9,1131.5 1585.5,1126.5 1566.7,1119.1 1548.4,1109.3 1530.6,1097.0 1513.1,1082.2 1495.9,1064.7 1479.0,1044.5 1462.2,1021.5 1445.7,995.5 1429.2,966.4 1412.9,934.0 1396.6,898.2 1380.3,858.8 1364.0,815.5 1347.6,768.2 1331.2,716.6 1314.7,660.5 1298.1,599.5 1281.4,533.5 1264.7,462.1  Z" style="stroke-width: 2.0;  stroke: rgb(82,82,82); fill: rgb(253,141,60); opacity: 0.667;" />
<path d="M 1264.659,462.097 A 1064.250,1064.250 0.00 0,1 1268.2,461.3 L 1268.2,461.3 1283.2,533.9 1295.3,603.5 1304.8,670.1 1312.1,734.0 1317.4,795.3 1321.1,854.1 1323.3,910.8 1324.4,965.3 1324.6,1017.9 1324.1,1068.8 1323.0,1118.1 1321.5,1166.0 1319.8,1212.7 1318.1,1258.3 1316.3,1302.9 1314.7,1346.9 1313.3,1390.2 1312.1,1433.2 1311.1,1475.9 1310.5,1518.5 1310.2,1561.3 1310.1,1604.2 1310.3,1647.6 1310.6,1691.6 1311.1,1736.3 1311.5,1781.9 1311.8,1828.6 1311.9,1876.5 1311.5,1925.8 1310.6,1976.7 1308.8,2029.3 1306.1,2083.8 1302.2,2140.3 1296.8,2199.1 1289.7,2260.2 1280.6,2323.8 1269.1,2390.1 1255.0,2459.3 1237.9,2531.5  A 1064.250,1064.250 0.00 0,0 1241.4,2532.4 L 1241.4,2532.4 1258.3,2460.1 1272.2,2390.9 1283.4,2324.5 1292.3,2260.9 1299.2,2199.8 1304.4,2141.0 1308.1,2084.5 1310.7,2030.0 1312.2,1977.4 1313.0,1926.5 1313.1,1877.2 1312.9,1829.2 1312.5,1782.6 1311.9,1736.9 1311.3,1692.2 1310.8,1648.3 1310.5,1604.9 1310.4,1561.9 1310.6,1519.2 1311.1,1476.6 1311.8,1433.8 1312.9,1390.9 1314.2,1347.5 1315.7,1303.6 1317.2,1258.9 1318.9,1213.3 1320.4,1166.6 1321.7,1118.7 1322.6,1069.4 1323.0,1018.5 1322.6,965.9 1321.3,911.4 1318.9,854.8 1315.0,795.9 1309.5,734.6 1302.0,670.8 1292.2,604.2 1279.9,534.7 1264.7,462.1  Z" style="stroke-width: 2.0;  stroke: rgb(82,82,82); fill: rgb(255,0,0); opacity: 0.667;" />
<path d="M 1264.659,462.097 A 1064.250,1064.250 0.00 0,1 1268.2,461.3 L 1268.2,461.3 1283.4,533.3 1295.8,601.1 1305.8,664.9 1313.4,724.9 1318.9,781.5 1322.4,834.7 1324.0,885.0 1324.0,932.4 1322.3,977.2 1319.1,1019.6 1314.4,1059.8 1308.4,1097.9 1301.0,1134.2 1292.4,1168.8 1282.6,1201.8 1271.4,1233.5 1259.1,1263.9 1245.5,1293.3 1230.5,1321.6 1214.2,1349.1 1196.5,1375.7 1177.3,1401.8 1156.6,1427.2 1134.1,1452.1 1109.8,1476.7 1083.6,1500.8 1055.3,1524.6 1024.7,1548.2 991.6,1571.6 956.0,1594.7 917.5,1617.7 875.9,1640.5 831.0,1663.1 782.6,1685.6 730.4,1707.9 674.0,1730.0 613.3,1751.8 547.8,1773.4 477.3,1794.6  A 1064.250,1064.250 0.00 0,0 478.4,1798.1 L 478.4,1798.1 548.8,1776.6 614.1,1754.8 674.8,1732.8 731.1,1710.5 783.2,1688.0 831.6,1665.4 876.4,1642.6 917.9,1619.7 956.3,1596.6 991.9,1573.3 1024.8,1549.8 1055.3,1526.2 1083.6,1502.2 1109.7,1478.0 1133.9,1453.4 1156.3,1428.4 1177.0,1402.9 1196.1,1376.8 1213.7,1350.0 1229.9,1322.5 1244.7,1294.1 1258.3,1264.8 1270.5,1234.3 1281.5,1202.6 1291.3,1169.5 1299.8,1134.9 1307.0,1098.6 1312.9,1060.4 1317.4,1020.2 1320.5,977.8 1322.0,933.0 1321.9,885.6 1320.1,835.3 1316.4,782.1 1310.8,725.6 1302.9,665.6 1292.7,601.8 1280.1,534.1 1264.7,462.1  Z" style="stroke-width: 2.0;  stroke: rgb(82,82,82); fill: rgb(255,0,204); opacity: 0.667;" />
<path d="M 1264.659,462.097 A 1064.250,1064.250 0.00 0,1 1268.2,461.3 L 1268.2,461.3 1283.7,532.9 1297.1,599.6 1308.5,661.5 1318.1,718.9 1325.9,772.1 1331.9,821.2 1336.4,866.6 1339.3,908.3 1340.7,946.7 1340.7,981.9 1339.2,1014.0 1336.4,1043.2 1332.2,1069.6 1326.6,1093.4 1319.7,1114.8 1311.4,1133.7 1301.8,1150.3 1290.7,1164.6 1278.2,1176.8 1264.2,1186.9 1248.7,1194.8 1231.6,1200.7 1212.8,1204.6 1192.2,1206.4 1169.8,1206.2 1145.5,1203.9 1119.0,1199.4 1090.5,1192.8 1059.6,1184.0 1026.2,1172.8 990.3,1159.3 951.6,1143.2 910.1,1124.5 865.4,1103.1 817.5,1078.8 766.1,1051.5 711.1,1020.9 652.2,987.0 589.2,949.5  A 1064.250,1064.250 0.00 0,0 587.3,952.6 L 587.3,952.6 650.4,989.9 709.4,1023.6 764.6,1054.0 816.0,1081.2 864.0,1105.3 908.8,1126.6 950.4,1145.1 989.1,1161.0 1025.1,1174.4 1058.5,1185.5 1089.4,1194.2 1118.0,1200.7 1144.5,1205.1 1168.8,1207.3 1191.2,1207.5 1211.8,1205.6 1230.6,1201.7 1247.7,1195.7 1263.2,1187.7 1277.1,1177.6 1289.6,1165.3 1300.6,1150.9 1310.2,1134.3 1318.4,1115.4 1325.2,1094.0 1330.7,1070.2 1334.8,1043.7 1337.6,1014.5 1338.9,982.4 1338.8,947.2 1337.3,908.9 1334.2,867.1 1329.6,821.8 1323.4,772.7 1315.4,719.5 1305.7,662.1 1294.0,600.3 1280.4,533.7 1264.7,462.1  Z" style="stroke-width: 2.0;  stroke: rgb(82,82,82); fill: rgb(255,204,204); opacity: 0.667;" />
<path d="M 1264.659,462.097 A 1064.250,1064.250 0.00 0,1 1268.2,461.3 L 1268.2,461.3 1283.7,532.9 1297.2,599.5 1308.8,661.3 1318.5,718.6 1326.5,771.5 1332.8,820.5 1337.6,865.5 1340.8,907.0 1342.6,945.0 1342.9,979.7 1341.9,1011.4 1339.5,1040.1 1335.8,1065.9 1330.7,1089.1 1324.3,1109.8 1316.6,1127.9 1307.5,1143.7 1297.1,1157.2 1285.2,1168.4 1271.9,1177.4 1257.1,1184.2 1240.7,1188.9 1222.7,1191.5 1202.9,1191.9 1181.4,1190.2 1158.0,1186.3 1132.6,1180.1 1105.1,1171.7 1075.3,1160.9 1043.2,1147.7 1008.5,1131.9 971.3,1113.5 931.2,1092.4 888.1,1068.3 841.9,1041.2 792.3,1010.9 739.3,977.2 682.5,940.0 621.7,899.0  A 1064.250,1064.250 0.00 0,0 619.7,902.0 L 619.7,902.0 680.5,942.8 737.5,979.8 790.7,1013.3 840.3,1043.5 886.6,1070.4 929.8,1094.3 969.9,1115.4 1007.3,1133.6 1042.0,1149.3 1074.1,1162.4 1103.9,1173.1 1131.5,1181.4 1156.9,1187.5 1180.4,1191.3 1201.9,1192.9 1221.6,1192.5 1239.6,1189.8 1256.0,1185.1 1270.8,1178.2 1284.1,1169.1 1295.9,1157.9 1306.3,1144.4 1315.3,1128.5 1323.0,1110.4 1329.3,1089.7 1334.3,1066.5 1337.9,1040.6 1340.2,1011.9 1341.2,980.3 1340.7,945.5 1338.8,907.5 1335.4,866.1 1330.5,821.0 1324.0,772.1 1315.8,719.2 1305.9,662.0 1294.1,600.2 1280.4,533.7 1264.7,462.1  Z" style="stroke-width: 2.0;  stroke: rgb(82,82,82); fill: rgb(255,153,0); opacity: 0.667;" />
<path d="M 1264.659,462.097 A 1064.250,1064.250 0.00 0,1 1268.2,461.3 L 1268.2,461.3 1283.8,532.9 1297.5,599.3 1309.5,660.8 1319.8,717.7 1328.5,770.1 1335.6,818.5 1341.3,862.8 1345.5,903.4 1348.4,940.4 1350.0,974.0 1350.3,1004.4 1349.3,1031.7 1347.1,1056.1 1343.7,1077.6 1339.0,1096.3 1333.1,1112.4 1326.0,1126.0 1317.5,1137.1 1307.8,1145.7 1296.8,1151.9 1284.4,1155.7 1270.6,1157.2 1255.2,1156.3 1238.4,1153.0 1219.9,1147.2 1199.8,1139.0 1177.8,1128.3 1154.0,1114.9 1128.1,1098.9 1100.2,1080.1 1070.1,1058.5 1037.6,1033.8 1002.6,1005.9 965.0,974.7 924.7,940.1 881.4,901.8 835.0,859.7 785.3,813.5 732.2,763.0  A 1064.250,1064.250 0.00 0,0 729.7,765.6 L 729.7,765.6 783.0,815.9 832.8,862.0 879.3,903.9 922.7,942.1 963.2,976.6 1000.9,1007.6 1036.0,1035.3 1068.6,1059.9 1098.8,1081.5 1126.8,1100.2 1152.6,1116.1 1176.5,1129.4 1198.5,1140.0 1218.7,1148.2 1237.2,1153.9 1254.1,1157.1 1269.4,1158.0 1283.2,1156.5 1295.6,1152.6 1306.6,1146.4 1316.3,1137.7 1324.7,1126.6 1331.8,1113.0 1337.6,1096.9 1342.2,1078.1 1345.6,1056.6 1347.7,1032.2 1348.6,1004.9 1348.2,974.5 1346.5,940.9 1343.5,903.9 1339.1,863.3 1333.3,819.0 1326.0,770.7 1317.1,718.3 1306.6,661.5 1294.5,600.0 1280.5,533.6 1264.7,462.1  Z" style="stroke-width: 2.0;  stroke: rgb(82,82,82); fill: rgb(255,204,0); opacity: 0.667;" />
<path d="M 1264.659,462.097 A 1064.250,1064.250 0.00 0,1 1268.2,461.3 L 1268.2,461.3 1283.9,532.8 1297.8,599.1 1310.1,660.5 1320.8,717.1 1330.0,769.2 1337.8,817.1 1344.2,861.0 1349.3,901.0 1353.1,937.4 1355.7,970.3 1357.1,999.9 1357.3,1026.3 1356.4,1049.6 1354.3,1070.0 1351.1,1087.5 1346.7,1102.3 1341.2,1114.5 1334.6,1124.0 1326.7,1130.9 1317.7,1135.3 1307.4,1137.2 1295.8,1136.5 1282.8,1133.3 1268.5,1127.6 1252.7,1119.2 1235.4,1108.2 1216.5,1094.5 1196.0,1078.0 1173.6,1058.6 1149.4,1036.1 1123.2,1010.6 1095.0,981.8 1064.5,949.6 1031.7,913.8 996.5,874.3 958.7,830.8 918.2,783.1 874.8,731.1 828.3,674.5  A 1064.250,1064.250 0.00 0,0 825.5,676.8 L 825.5,676.8 872.1,733.3 915.7,785.1 956.4,832.6 994.4,876.0 1029.7,915.4 1062.6,951.1 1093.2,983.2 1121.5,1011.9 1147.8,1037.3 1172.1,1059.7 1194.5,1079.0 1215.2,1095.5 1234.1,1109.1 1251.4,1120.1 1267.2,1128.4 1281.6,1134.1 1294.5,1137.2 1306.1,1137.8 1316.4,1135.9 1325.5,1131.5 1333.3,1124.6 1339.9,1115.0 1345.4,1102.9 1349.7,1088.1 1352.8,1070.5 1354.9,1050.1 1355.7,1026.7 1355.4,1000.4 1353.9,970.8 1351.2,937.9 1347.3,901.5 1342.0,861.5 1335.5,817.7 1327.5,769.8 1318.1,717.7 1307.2,661.1 1294.7,599.8 1280.6,533.6 1264.7,462.1  Z" style="stroke-width: 2.0;  stroke: rgb(82,82,82); fill: rgb(255,255,0); opacity: 0.667;" />
<path d="M 1264.659,462.097 A 1064.250,1064.250 0.00 0,1 1268.2,461.3 L 1268.2,461.3 1284.1,532.7 1298.9,598.8 1312.4,659.6 1324.9,715.6 1336.3,766.9 1346.7,813.8 1356.2,856.4 1364.7,895.0 1372.4,929.8 1379.3,960.9 1385.3,988.4 1390.6,1012.6 1395.2,1033.5 1399.0,1051.2 1402.2,1065.8 1404.6,1077.4 1406.4,1086.1 1407.5,1091.8 1408.0,1094.7 1407.9,1094.8 1407.1,1091.9 1405.6,1086.2 1403.5,1077.7 1400.7,1066.1 1397.2,1051.6 1393.0,1033.9 1388.1,1013.2 1382.4,989.1 1376.0,961.6 1368.8,930.6 1360.7,895.9 1351.7,857.4 1341.8,814.9 1331.0,768.1 1319.1,716.9 1306.2,661.0 1292.1,600.3 1276.9,534.4 1260.4,463.1  A 1064.250,1064.250 0.00 0,0 1256.8,463.9 L 1256.8,463.9 1273.6,535.2 1289.0,601.0 1303.3,661.7 1316.4,717.5 1328.5,768.7 1339.5,815.4 1349.5,857.9 1358.6,896.4 1366.8,931.1 1374.2,962.0 1380.7,989.5 1386.4,1013.5 1391.4,1034.3 1395.7,1051.9 1399.2,1066.5 1402.0,1078.0 1404.2,1086.6 1405.7,1092.3 1406.5,1095.1 1406.7,1095.0 1406.2,1092.1 1405.0,1086.4 1403.2,1077.7 1400.7,1066.1 1397.5,1051.5 1393.6,1033.8 1388.9,1013.0 1383.6,988.8 1377.4,961.3 1370.5,930.2 1362.6,895.5 1354.0,856.9 1344.4,814.3 1333.8,767.5 1322.2,716.2 1309.6,660.3 1295.8,599.5 1280.8,533.5 1264.7,462.1  Z" style="stroke-width: 2.0;  stroke: rgb(82,82,82); fill: rgb(204,255,0); opacity: 0.667;" />
<path d="M 1997.038,558.947 A 1064.250,1064.250 0.00 0,1 1999.7,560.4 L 1999.7,560.4 1965.2,624.9 1933.0,684.5 1903.0,739.2 1875.1,789.4 1849.2,835.3 1825.1,877.0 1802.9,914.8 1782.3,948.9 1763.3,979.4 1745.9,1006.5 1729.9,1030.3 1715.3,1051.0 1702.1,1068.5 1690.0,1083.2 1679.2,1094.9 1669.6,1103.8 1661.0,1110.0 1653.6,1113.4 1647.2,1114.1 1641.8,1112.1 1637.4,1107.3 1634.0,1099.9 1631.6,1089.6 1630.2,1076.6 1629.7,1060.6 1630.2,1041.7 1631.7,1019.7 1634.2,994.6 1637.7,966.1 1642.3,934.2 1648.0,898.8 1654.8,859.5 1662.8,816.4 1672.0,769.1 1682.5,717.5 1694.3,661.3 1707.5,600.3 1722.2,534.2 1738.5,462.8  A 1064.250,1064.250 0.00 0,0 1735.0,462.0 L 1735.0,462.0 1719.0,533.5 1704.5,599.6 1691.5,660.6 1679.8,716.8 1669.5,768.5 1660.5,815.8 1652.7,859.0 1646.0,898.3 1640.4,933.8 1636.0,965.7 1632.5,994.1 1630.1,1019.3 1628.7,1041.3 1628.3,1060.2 1628.8,1076.2 1630.3,1089.2 1632.8,1099.5 1636.2,1106.9 1640.6,1111.6 1646.0,1113.6 1652.4,1112.9 1659.8,1109.5 1668.4,1103.3 1678.0,1094.4 1688.8,1082.6 1700.8,1068.0 1714.0,1050.3 1728.5,1029.7 1744.5,1005.8 1761.8,978.7 1780.7,948.1 1801.2,914.0 1823.3,876.1 1847.3,834.3 1873.1,788.3 1900.8,738.0 1930.7,683.2 1962.7,623.6 1997.0,558.9  Z" style="stroke-width: 2.0;  stroke: rgb(82,82,82); fill: rgb(0,255,0); opacity: 0.667;" />
<path d="M 600.737,930.830 A 1064.250,1064.250 0.00 0,1 603.6,926.3 L 603.6,926.3 666.1,965.2 725.6,1000.1 782.2,1031.3 836.1,1059.1 887.5,1083.6 936.5,1105.2 983.4,1124.0 1028.2,1140.2 1071.1,1154.0 1112.3,1165.6 1152.0,1175.1 1190.2,1182.6 1227.2,1188.3 1263.0,1192.3 1297.9,1194.6 1331.9,1195.3 1365.2,1194.4 1397.9,1192.0 1430.2,1188.0 1462.1,1182.5 1493.9,1175.5 1525.5,1166.9 1557.2,1156.7 1589.1,1144.8 1621.2,1131.0 1653.7,1115.4 1686.7,1097.7 1720.2,1077.9 1754.5,1055.7 1789.5,1031.1 1825.4,1003.8 1862.3,973.6 1900.2,940.3 1939.3,903.7 1979.6,863.5 2021.2,819.4 2064.2,771.1 2108.7,718.4 2154.7,661.0  A 1064.250,1064.250 0.00 0,0 2150.5,657.7 L 2150.5,657.7 2104.8,715.4 2060.6,768.3 2017.8,816.8 1976.4,861.1 1936.3,901.5 1897.4,938.3 1859.6,971.8 1822.9,1002.2 1787.1,1029.7 1752.2,1054.5 1718.1,1076.8 1684.7,1096.8 1651.8,1114.6 1619.4,1130.4 1587.3,1144.3 1555.5,1156.4 1523.9,1166.8 1492.2,1175.6 1460.5,1182.7 1428.6,1188.4 1396.4,1192.5 1363.7,1195.1 1330.4,1196.1 1296.4,1195.6 1261.5,1193.5 1225.6,1189.7 1188.6,1184.2 1150.3,1176.8 1110.6,1167.5 1069.4,1156.2 1026.4,1142.6 981.5,1126.6 934.5,1108.0 885.4,1086.7 833.9,1062.4 779.8,1035.0 723.1,1004.0 663.4,969.4 600.7,930.8  Z" style="stroke-width: 2.0;  stroke: rgb(82,82,82); fill: rgb(53,128,0); opacity: 0.667;" />
<path d="M 2061.241,595.767 A 1064.250,1064.250 0.00 0,1 2066.6,599.1 L 2066.6,599.1 2027.4,661.0 1990.9,718.0 1956.8,770.3 1925.1,818.2 1895.6,862.0 1868.3,901.7 1842.9,937.7 1819.5,970.0 1797.8,998.9 1777.9,1024.5 1759.5,1046.8 1742.8,1066.1 1727.5,1082.4 1713.6,1095.9 1701.1,1106.5 1689.8,1114.4 1679.8,1119.6 1671.0,1122.2 1663.4,1122.1 1656.9,1119.3 1651.5,1113.9 1647.1,1105.8 1643.9,1095.0 1641.7,1081.5 1640.6,1065.1 1640.5,1045.7 1641.6,1023.4 1643.7,997.9 1647.0,969.2 1651.4,937.1 1656.9,901.4 1663.8,862.1 1671.8,818.8 1681.2,771.5 1692.0,719.8 1704.3,663.7 1718.0,602.8 1733.4,536.8 1750.4,465.6  A 1064.250,1064.250 0.00 0,0 1744.3,464.2 L 1744.3,464.2 1727.7,535.5 1712.7,601.5 1699.3,662.5 1687.4,718.7 1676.9,770.4 1667.8,817.8 1660.0,861.1 1653.4,900.5 1648.0,936.2 1643.8,968.3 1640.8,997.1 1638.8,1022.6 1637.9,1044.9 1638.0,1064.2 1639.2,1080.6 1641.5,1094.2 1644.8,1105.0 1649.2,1113.0 1654.6,1118.4 1661.1,1121.1 1668.8,1121.2 1677.6,1118.6 1687.5,1113.3 1698.7,1105.3 1711.2,1094.6 1725.0,1081.1 1740.2,1064.7 1756.9,1045.3 1775.0,1022.8 1794.8,997.2 1816.3,968.2 1839.6,935.7 1864.7,899.6 1891.9,859.7 1921.1,815.7 1952.5,767.6 1986.3,715.1 2022.5,657.9 2061.2,595.8  Z" style="stroke-width: 2.0;  stroke: rgb(82,82,82); fill: rgb(0,0,204); opacity: 0.667;" />
</g>
<defs>
<pattern id="hline-sparse" width="10" height="10" patternTransform="rotate(0 0 0)" patternUnits="userSpaceOnUse"><line x1="0" y1="0" x2="10" y2="0" style="stroke:black;stroke-width:2" /></pattern>
<pattern id="checker" width="10" height="10" patternTransform="rotate(45 0 0)" patternUnits="userSpaceOnUse"><line x1="0" y1="0" x2="10" y2="0" style="stroke:black;stroke-width:2" /><line x1="0" y1="0" x2="0" y2="10" style="stroke:black;stroke-width:2" /></pattern>
<pattern id="checker" width="10" height="10" patternTransform="rotate(45 0 0)" patternUnits="userSpaceOnUse"><line x1="0" y1="0" x2="10" y2="0" style="stroke:black;stroke-width:5" /><line x1="0" y1="0" x2="0" y2="10" style="stroke:black;stroke-width:4" /></pattern>
<pattern id="hline" width="10" height="10" patternTransform="rotate(0 0 0)" patternUnits="userSpaceOnUse"><line x1="0" y1="0" x2="10" y2="0" style="stroke:black;stroke-width:5" /></pattern>
<pattern id="vline-sparse" width="10" height="10" patternTransform="rotate(0 0 0)" patternUnits="userSpaceOnUse"><line x1="0" y1="0" x2="0" y2="10" style="stroke:black;stroke-width:2" /></pattern>
<pattern id="vline" width="10" height="10" patternTransform="rotate(0 0 0)" patternUnits="userSpaceOnUse"><line x1="0" y1="0" x2="0" y2="10" style="stroke:black;stroke-width:5" /></pattern>
</defs>
</svg>
