<?xml version="1.0" encoding="utf-8" standalone="no"?>
<!DOCTYPE svg PUBLIC "-//W3C//DTD SVG 1.1//EN" "http://www.w3.org/Graphics/SVG/1.1/DTD/svg11.dtd">
<svg width="3000px" height="3000px" version="1.1" xmlns="http://www.w3.org/2000/svg" xmlns:xlink="http://www.w3.org/1999/xlink">
<g id="ideograms">
<path d="M1500.000,425.000 A1075.000,1075.000 40.000 0,1 2072.436,590.087 L2099.061,547.765 A1125.000,1125.000 0.000 0,0 1500.000,375.000 Z" style="stroke-linecap:round;fill:rgb(116,196,118);fill-opacity:0.33;" />
<text x="1845.8" y="335.2" font-size="18.2px" font-family="CMUBright-Roman" style="text-anchor:start;fill:rgb(0,0,0);" transform="rotate(286.1,1845.8,335.2)" >R<tspan baseline-shift="-40%" font-size="90%">s</tspan>caffold<tspan baseline-shift="-40%" font-size="90%">1</tspan></text>
<line x1='1500.0' y1='375.0' x2='1500.0' y2='355.0' style="stroke-width:4.0;stroke:rgb(0,0,0);stroke-linecap:round;fill:none;" />
<text x="1506.5" y="345.0" font-size="18.2px" font-family="CMUBright-Roman" style="text-anchor:start;fill:rgb(0,0,0);" transform="rotate(270.0,1506.5,345.0)" >0</text>
<line x1='1571.1' y1='377.2' x2='1572.4' y2='357.3' style="stroke-width:4.0;stroke:rgb(0,0,0);stroke-linecap:round;fill:none;" />
<text x="1579.5" y="347.7" font-size="18.2px" font-family="CMUBright-Roman" style="text-anchor:start;fill:rgb(0,0,0);" transform="rotate(273.6,1579.5,347.7)" >50</text>
<line x1='1641.9' y1='384.0' x2='1644.4' y2='364.1' style="stroke-width:4.0;stroke:rgb(0,0,0);stroke-linecap:round;fill:none;" />
<text x="1652.2" y="355.1" font-size="18.2px" font-family="CMUBright-Roman" style="text-anchor:start;fill:rgb(0,0,0);" transform="rotate(277.2,1652.2,355.1)" >100</text>
<line x1='1712.2' y1='395.2' x2='1716.0' y2='375.5' style="stroke-width:4.0;stroke:rgb(0,0,0);stroke-linecap:round;fill:none;" />
<text x="1724.2" y="367.0" font-size="18.2px" font-family="CMUBright-Roman" style="text-anchor:start;fill:rgb(0,0,0);" transform="rotate(280.9,1724.2,367.0)" >150</text>
<line x1='1781.6' y1='410.8' x2='1786.6' y2='391.4' style="stroke-width:4.0;stroke:rgb(0,0,0);stroke-linecap:round;fill:none;" />
<text x="1795.4" y="383.4" font-size="18.2px" font-family="CMUBright-Roman" style="text-anchor:start;fill:rgb(0,0,0);" transform="rotate(284.5,1795.4,383.4)" >200</text>
<line x1='1849.9' y1='430.8' x2='1856.1' y2='411.8' style="stroke-width:4.0;stroke:rgb(0,0,0);stroke-linecap:round;fill:none;" />
<text x="1865.4" y="404.3" font-size="18.2px" font-family="CMUBright-Roman" style="text-anchor:start;fill:rgb(0,0,0);" transform="rotate(288.1,1865.4,404.3)" >250</text>
<line x1='1916.7' y1='455.0' x2='1924.1' y2='436.5' style="stroke-width:4.0;stroke:rgb(0,0,0);stroke-linecap:round;fill:none;" />
<text x="1933.9" y="429.6" font-size="18.2px" font-family="CMUBright-Roman" style="text-anchor:start;fill:rgb(0,0,0);" transform="rotate(291.7,1933.9,429.6)" >300</text>
<line x1='1982.0' y1='483.5' x2='1990.5' y2='465.4' style="stroke-width:4.0;stroke:rgb(0,0,0);stroke-linecap:round;fill:none;" />
<text x="2000.7" y="459.2" font-size="18.2px" font-family="CMUBright-Roman" style="text-anchor:start;fill:rgb(0,0,0);" transform="rotate(295.4,2000.7,459.2)" >350</text>
<line x1='2045.2' y1='516.0' x2='2054.9' y2='498.5' style="stroke-width:4.0;stroke:rgb(0,0,0);stroke-linecap:round;fill:none;" />
<text x="2065.5" y="492.9" font-size="18.2px" font-family="CMUBright-Roman" style="text-anchor:start;fill:rgb(0,0,0);" transform="rotate(299.0,2065.5,492.9)" >400</text>
<g id="highlighttrack_0">
<path d="M1586.357,428.474 A1075.000,1075.000 40.000 0,1 1856.883,485.969 L1873.482,438.804 A1125.000,1125.000 0.000 0,0 1590.374,378.636 Z" style="stroke-width:4.0;stroke:rgb(0,0,0);stroke-linecap:round;fill:rgb(116,196,118);" />
</g>
<path d="M2118.518,620.761 A1075.000,1075.000 40.000 0,1 2275.314,755.344 L2311.375,720.709 A1125.000,1125.000 0.000 0,0 2147.286,579.867 Z" style="stroke-linecap:round;fill:rgb(116,196,118);fill-opacity:0.33;" />
<text x="2298.5" y="584.3" font-size="18.2px" font-family="CMUBright-Roman" style="text-anchor:start;fill:rgb(0,0,0);" transform="rotate(310.6,2298.5,584.3)" >R<tspan baseline-shift="-40%" font-size="90%">s</tspan>caffold<tspan baseline-shift="-40%" font-size="90%">1</tspan>3</text>
<line x1='2147.3' y1='579.9' x2='2158.8' y2='563.5' style="stroke-width:4.0;stroke:rgb(0,0,0);stroke-linecap:round;fill:none;" />
<text x="2169.9" y="559.1" font-size="18.2px" font-family="CMUBright-Roman" style="text-anchor:start;fill:rgb(0,0,0);" transform="rotate(305.1,2169.9,559.1)" >0</text>
<line x1='2204.1' y1='622.6' x2='2216.7' y2='607.0' style="stroke-width:4.0;stroke:rgb(0,0,0);stroke-linecap:round;fill:none;" />
<text x="2228.0" y="603.3" font-size="18.2px" font-family="CMUBright-Roman" style="text-anchor:start;fill:rgb(0,0,0);" transform="rotate(308.7,2228.0,603.3)" >50</text>
<line x1='2258.2' y1='668.9' x2='2271.7' y2='654.1' style="stroke-width:4.0;stroke:rgb(0,0,0);stroke-linecap:round;fill:none;" />
<text x="2283.2" y="651.1" font-size="18.2px" font-family="CMUBright-Roman" style="text-anchor:start;fill:rgb(0,0,0);" transform="rotate(312.4,2283.2,651.1)" >100</text>
<line x1='2309.2' y1='718.5' x2='2323.6' y2='704.6' style="stroke-width:4.0;stroke:rgb(0,0,0);stroke-linecap:round;fill:none;" />
<text x="2335.3" y="702.3" font-size="18.2px" font-family="CMUBright-Roman" style="text-anchor:start;fill:rgb(0,0,0);" transform="rotate(316.0,2335.3,702.3)" >150</text>
<g id="highlighttrack_0">
<path d="M2120.253,621.984 A1075.000,1075.000 40.000 0,1 2122.709,623.725 L2151.673,582.968 A1125.000,1125.000 0.000 0,0 2149.102,581.147 Z" style="stroke-width:4.0;stroke:rgb(0,0,0);stroke-linecap:round;fill:rgb(116,196,118);" />
</g>
<path d="M2312.620,796.243 A1075.000,1075.000 40.000 0,1 2450.134,997.138 L2494.326,973.749 A1125.000,1125.000 0.000 0,0 2350.416,763.511 Z" style="stroke-linecap:round;fill:rgb(116,196,118);fill-opacity:0.33;" />
<text x="2507.9" y="821.6" font-size="18.2px" font-family="CMUBright-Roman" style="text-anchor:start;fill:rgb(0,0,0);" transform="rotate(325.6,2507.9,821.6)" >R<tspan baseline-shift="-40%" font-size="90%">s</tspan>caffold<tspan baseline-shift="-40%" font-size="90%">1</tspan>0</text>
<line x1='2350.4' y1='763.5' x2='2365.5' y2='750.4' style="stroke-width:4.0;stroke:rgb(0,0,0);stroke-linecap:round;fill:none;" />
<text x="2377.3" y="748.8" font-size="18.2px" font-family="CMUBright-Roman" style="text-anchor:start;fill:rgb(0,0,0);" transform="rotate(319.1,2377.3,748.8)" >0</text>
<line x1='2395.3' y1='818.7' x2='2411.2' y2='806.6' style="stroke-width:4.0;stroke:rgb(0,0,0);stroke-linecap:round;fill:none;" />
<text x="2423.1" y="805.7" font-size="18.2px" font-family="CMUBright-Roman" style="text-anchor:start;fill:rgb(0,0,0);" transform="rotate(322.7,2423.1,805.7)" >50</text>
<line x1='2436.5' y1='876.7' x2='2453.2' y2='865.6' style="stroke-width:4.0;stroke:rgb(0,0,0);stroke-linecap:round;fill:none;" />
<text x="2465.1" y="865.5" font-size="18.2px" font-family="CMUBright-Roman" style="text-anchor:start;fill:rgb(0,0,0);" transform="rotate(326.4,2465.1,865.5)" >100</text>
<line x1='2474.1' y1='937.1' x2='2491.4' y2='927.1' style="stroke-width:4.0;stroke:rgb(0,0,0);stroke-linecap:round;fill:none;" />
<text x="2503.3" y="927.7" font-size="18.2px" font-family="CMUBright-Roman" style="text-anchor:start;fill:rgb(0,0,0);" transform="rotate(330.0,2503.3,927.7)" >150</text>
<g id="highlighttrack_0">
<path d="M2411.834,930.629 A1075.000,1075.000 40.000 0,1 2413.775,933.749 L2456.276,907.412 A1125.000,1125.000 0.000 0,0 2454.245,904.147 Z" style="stroke-width:4.0;stroke:rgb(0,0,0);stroke-linecap:round;fill:rgb(116,196,118);" />
</g>
<path d="M2474.761,1046.716 A1075.000,1075.000 40.000 0,1 2527.318,1183.389 L2575.100,1168.662 A1125.000,1125.000 0.000 0,0 2520.099,1025.633 Z" style="stroke-linecap:round;fill:rgb(116,196,118);fill-opacity:0.33;" />
<text x="2637.4" y="1072.8" font-size="18.2px" font-family="CMUBright-Roman" style="text-anchor:start;fill:rgb(0,0,0);" transform="rotate(339.0,2637.4,1072.8)" >R<tspan baseline-shift="-40%" font-size="90%">s</tspan>caffold<tspan baseline-shift="-40%" font-size="90%">1</tspan>6</text>
<line x1='2520.1' y1='1025.6' x2='2538.2' y2='1017.2' style="stroke-width:4.0;stroke:rgb(0,0,0);stroke-linecap:round;fill:none;" />
<text x="2550.0" y="1018.9" font-size="18.2px" font-family="CMUBright-Roman" style="text-anchor:start;fill:rgb(0,0,0);" transform="rotate(335.1,2550.0,1018.9)" >0</text>
<line x1='2548.0' y1='1091.1' x2='2566.7' y2='1083.8' style="stroke-width:4.0;stroke:rgb(0,0,0);stroke-linecap:round;fill:none;" />
<text x="2578.3" y="1086.2" font-size="18.2px" font-family="CMUBright-Roman" style="text-anchor:start;fill:rgb(0,0,0);" transform="rotate(338.7,2578.3,1086.2)" >50</text>
<line x1='2571.8' y1='1158.1' x2='2590.8' y2='1152.0' style="stroke-width:4.0;stroke:rgb(0,0,0);stroke-linecap:round;fill:none;" />
<text x="2602.3" y="1155.2" font-size="18.2px" font-family="CMUBright-Roman" style="text-anchor:start;fill:rgb(0,0,0);" transform="rotate(342.3,2602.3,1155.2)" >100</text>
<g id="highlighttrack_0">
<path d="M2518.004,1154.612 A1075.000,1075.000 40.000 0,1 2519.016,1157.610 L2566.412,1141.685 A1125.000,1125.000 0.000 0,0 2565.353,1138.547 Z" style="stroke-width:4.0;stroke:rgb(0,0,0);stroke-linecap:round;fill:rgb(116,196,118);" />
</g>
<path d="M2542.255,1236.693 A1075.000,1075.000 40.000 0,1 2573.042,1435.149 L2622.951,1432.132 A1125.000,1125.000 0.000 0,0 2590.732,1224.447 Z" style="stroke-linecap:round;fill:rgb(116,196,118);fill-opacity:0.33;" />
<text x="2702.1" y="1323.1" font-size="18.2px" font-family="CMUBright-Roman" style="text-anchor:start;fill:rgb(0,0,0);" transform="rotate(351.2,2702.1,1323.1)" >R<tspan baseline-shift="-40%" font-size="90%">s</tspan>caffold<tspan baseline-shift="-40%" font-size="90%">1</tspan>4</text>
<line x1='2590.7' y1='1224.4' x2='2610.1' y2='1219.5' style="stroke-width:4.0;stroke:rgb(0,0,0);stroke-linecap:round;fill:none;" />
<text x="2621.4" y="1223.4" font-size="18.2px" font-family="CMUBright-Roman" style="text-anchor:start;fill:rgb(0,0,0);" transform="rotate(345.8,2621.4,1223.4)" >0</text>
<line x1='2606.0' y1='1293.9' x2='2625.6' y2='1290.3' style="stroke-width:4.0;stroke:rgb(0,0,0);stroke-linecap:round;fill:none;" />
<text x="2636.6" y="1294.8" font-size="18.2px" font-family="CMUBright-Roman" style="text-anchor:start;fill:rgb(0,0,0);" transform="rotate(349.4,2636.6,1294.8)" >50</text>
<line x1='2616.8' y1='1364.3' x2='2636.6' y2='1361.8' style="stroke-width:4.0;stroke:rgb(0,0,0);stroke-linecap:round;fill:none;" />
<text x="2647.3" y="1367.1" font-size="18.2px" font-family="CMUBright-Roman" style="text-anchor:start;fill:rgb(0,0,0);" transform="rotate(353.1,2647.3,1367.1)" >100</text>
<g id="highlighttrack_0">
<path d="M2559.528,1318.270 A1075.000,1075.000 40.000 0,1 2563.677,1344.381 L2613.150,1337.143 A1125.000,1125.000 0.000 0,0 2608.808,1309.817 Z" style="stroke-width:4.0;stroke:rgb(0,0,0);stroke-linecap:round;fill:rgb(116,196,118);" />
</g>
<path d="M2574.958,1490.473 A1075.000,1075.000 40.000 0,1 2227.070,2291.829 L2260.887,2328.659 A1125.000,1125.000 0.000 0,0 2624.956,1490.030 Z" style="stroke-linecap:round;fill:rgb(116,196,118);fill-opacity:0.33;" />
<text x="2610.7" y="1992.5" font-size="18.2px" font-family="CMUBright-Roman" style="text-anchor:start;fill:rgb(0,0,0);" transform="rotate(23.5,2610.7,1992.5)" >R<tspan baseline-shift="-40%" font-size="90%">s</tspan>caffold<tspan baseline-shift="-40%" font-size="90%">0</tspan></text>
<line x1='2625.0' y1='1490.0' x2='2645.0' y2='1489.9' style="stroke-width:4.0;stroke:rgb(0,0,0);stroke-linecap:round;fill:none;" />
<text x="2655.0" y="1496.3" font-size="18.2px" font-family="CMUBright-Roman" style="text-anchor:start;fill:rgb(0,0,0);" transform="rotate(359.5,2655.0,1496.3)" >0</text>
<line x1='2623.3' y1='1561.2' x2='2643.3' y2='1562.2' style="stroke-width:4.0;stroke:rgb(0,0,0);stroke-linecap:round;fill:none;" />
<text x="2652.9" y="1569.3" font-size="18.2px" font-family="CMUBright-Roman" style="text-anchor:start;fill:rgb(0,0,0);" transform="rotate(3.1,2652.9,1569.3)" >50</text>
<line x1='2617.2' y1='1632.0' x2='2637.1' y2='1634.4' style="stroke-width:4.0;stroke:rgb(0,0,0);stroke-linecap:round;fill:none;" />
<text x="2646.2" y="1642.0" font-size="18.2px" font-family="CMUBright-Roman" style="text-anchor:start;fill:rgb(0,0,0);" transform="rotate(6.7,2646.2,1642.0)" >100</text>
<line x1='2606.6' y1='1702.4' x2='2626.3' y2='1706.0' style="stroke-width:4.0;stroke:rgb(0,0,0);stroke-linecap:round;fill:none;" />
<text x="2635.0" y="1714.2" font-size="18.2px" font-family="CMUBright-Roman" style="text-anchor:start;fill:rgb(0,0,0);" transform="rotate(10.4,2635.0,1714.2)" >150</text>
<line x1='2591.6' y1='1771.9' x2='2611.1' y2='1776.8' style="stroke-width:4.0;stroke:rgb(0,0,0);stroke-linecap:round;fill:none;" />
<text x="2619.2" y="1785.5" font-size="18.2px" font-family="CMUBright-Roman" style="text-anchor:start;fill:rgb(0,0,0);" transform="rotate(14.0,2619.2,1785.5)" >200</text>
<line x1='2572.3' y1='1840.4' x2='2591.3' y2='1846.4' style="stroke-width:4.0;stroke:rgb(0,0,0);stroke-linecap:round;fill:none;" />
<text x="2598.9" y="1855.6" font-size="18.2px" font-family="CMUBright-Roman" style="text-anchor:start;fill:rgb(0,0,0);" transform="rotate(17.6,2598.9,1855.6)" >250</text>
<line x1='2548.6' y1='1907.5' x2='2567.3' y2='1914.7' style="stroke-width:4.0;stroke:rgb(0,0,0);stroke-linecap:round;fill:none;" />
<text x="2574.2" y="1924.4" font-size="18.2px" font-family="CMUBright-Roman" style="text-anchor:start;fill:rgb(0,0,0);" transform="rotate(21.2,2574.2,1924.4)" >300</text>
<line x1='2520.8' y1='1972.9' x2='2538.9' y2='1981.3' style="stroke-width:4.0;stroke:rgb(0,0,0);stroke-linecap:round;fill:none;" />
<text x="2545.2" y="1991.4" font-size="18.2px" font-family="CMUBright-Roman" style="text-anchor:start;fill:rgb(0,0,0);" transform="rotate(24.9,2545.2,1991.4)" >350</text>
<line x1='2488.8' y1='2036.5' x2='2506.4' y2='2046.0' style="stroke-width:4.0;stroke:rgb(0,0,0);stroke-linecap:round;fill:none;" />
<text x="2512.1" y="2056.5" font-size="18.2px" font-family="CMUBright-Roman" style="text-anchor:start;fill:rgb(0,0,0);" transform="rotate(28.5,2512.1,2056.5)" >400</text>
<line x1='2452.9' y1='2097.9' x2='2469.9' y2='2108.6' style="stroke-width:4.0;stroke:rgb(0,0,0);stroke-linecap:round;fill:none;" />
<text x="2474.9" y="2119.4" font-size="18.2px" font-family="CMUBright-Roman" style="text-anchor:start;fill:rgb(0,0,0);" transform="rotate(32.1,2474.9,2119.4)" >450</text>
<line x1='2413.3' y1='2157.0' x2='2429.5' y2='2168.6' style="stroke-width:4.0;stroke:rgb(0,0,0);stroke-linecap:round;fill:none;" />
<text x="2433.8" y="2179.7" font-size="18.2px" font-family="CMUBright-Roman" style="text-anchor:start;fill:rgb(0,0,0);" transform="rotate(35.7,2433.8,2179.7)" >500</text>
<line x1='2369.9' y1='2213.4' x2='2385.4' y2='2226.0' style="stroke-width:4.0;stroke:rgb(0,0,0);stroke-linecap:round;fill:none;" />
<text x="2389.0" y="2237.4" font-size="18.2px" font-family="CMUBright-Roman" style="text-anchor:start;fill:rgb(0,0,0);" transform="rotate(39.4,2389.0,2237.4)" >550</text>
<line x1='2323.1' y1='2266.9' x2='2337.7' y2='2280.6' style="stroke-width:4.0;stroke:rgb(0,0,0);stroke-linecap:round;fill:none;" />
<text x="2340.6" y="2292.1" font-size="18.2px" font-family="CMUBright-Roman" style="text-anchor:start;fill:rgb(0,0,0);" transform="rotate(43.0,2340.6,2292.1)" >600</text>
<line x1='2273.0' y1='2317.4' x2='2286.7' y2='2331.9' style="stroke-width:4.0;stroke:rgb(0,0,0);stroke-linecap:round;fill:none;" />
<text x="2288.8" y="2343.7" font-size="18.2px" font-family="CMUBright-Roman" style="text-anchor:start;fill:rgb(0,0,0);" transform="rotate(46.6,2288.8,2343.7)" >650</text>
<g id="highlighttrack_0">
<path d="M2449.416,2004.216 A1075.000,1075.000 40.000 0,1 2446.995,2008.749 L2491.041,2032.411 A1125.000,1125.000 0.000 0,0 2493.575,2027.668 Z" style="stroke-width:4.0;stroke:rgb(0,0,0);stroke-linecap:round;fill:rgb(116,196,118);" />
<path d="M2490.766,1917.142 A1075.000,1075.000 40.000 0,1 2489.598,1919.906 L2535.626,1939.437 A1125.000,1125.000 0.000 0,0 2536.848,1936.544 Z" style="stroke-width:4.0;stroke:rgb(0,0,0);stroke-linecap:round;fill:rgb(116,196,118);" />
<path d="M2574.616,1528.732 A1075.000,1075.000 40.000 0,1 2574.526,1531.917 L2624.504,1533.401 A1125.000,1125.000 0.000 0,0 2624.598,1530.068 Z" style="stroke-width:4.0;stroke:rgb(0,0,0);stroke-linecap:round;fill:rgb(116,196,118);" />
</g>
<path d="M2185.344,2328.208 A1075.000,1075.000 40.000 0,1 2158.688,2349.562 L2189.325,2389.076 A1125.000,1125.000 0.000 0,0 2217.220,2366.730 Z" style="stroke-linecap:round;fill:rgb(116,196,118);fill-opacity:0.33;" />
<text x="2252.2" y="2454.2" font-size="18.2px" font-family="CMUBright-Roman" style="text-anchor:start;fill:rgb(0,0,0);" transform="rotate(51.3,2252.2,2454.2)" >R<tspan baseline-shift="-40%" font-size="90%">s</tspan>caffold<tspan baseline-shift="-40%" font-size="90%">2</tspan>5</text>
<line x1='2217.2' y1='2366.7' x2='2230.0' y2='2382.1' style="stroke-width:4.0;stroke:rgb(0,0,0);stroke-linecap:round;fill:none;" />
<text x="2231.3" y="2394.0" font-size="18.2px" font-family="CMUBright-Roman" style="text-anchor:start;fill:rgb(0,0,0);" transform="rotate(50.4,2231.3,2394.0)" >0</text>
<g id="highlighttrack_0">
<path d="M2174.070,2337.410 A1075.000,1075.000 40.000 0,1 2158.759,2349.507 L2189.399,2389.019 A1125.000,1125.000 0.000 0,0 2205.422,2376.359 Z" style="stroke-width:4.0;stroke:rgb(0,0,0);stroke-linecap:round;fill:rgb(116,196,118);" />
</g>
<path d="M2114.080,2382.344 A1075.000,1075.000 40.000 0,1 2089.859,2398.717 L2117.294,2440.517 A1125.000,1125.000 0.000 0,0 2142.642,2423.383 Z" style="stroke-linecap:round;fill:rgb(116,196,118);fill-opacity:0.33;" />
<text x="2172.5" y="2511.9" font-size="18.2px" font-family="CMUBright-Roman" style="text-anchor:start;fill:rgb(0,0,0);" transform="rotate(55.9,2172.5,2511.9)" >R<tspan baseline-shift="-40%" font-size="90%">s</tspan>caffold<tspan baseline-shift="-40%" font-size="90%">2</tspan>6</text>
<line x1='2142.6' y1='2423.4' x2='2154.1' y2='2439.8' style="stroke-width:4.0;stroke:rgb(0,0,0);stroke-linecap:round;fill:none;" />
<text x="2154.4" y="2451.7" font-size="18.2px" font-family="CMUBright-Roman" style="text-anchor:start;fill:rgb(0,0,0);" transform="rotate(55.2,2154.4,2451.7)" >0</text>
<g id="highlighttrack_0">
<path d="M2113.782,2382.551 A1075.000,1075.000 40.000 0,1 2095.515,2394.978 L2123.214,2436.605 A1125.000,1125.000 0.000 0,0 2142.330,2423.600 Z" style="stroke-width:4.0;stroke:rgb(0,0,0);stroke-linecap:round;fill:rgb(116,196,118);" />
</g>
<path d="M2042.812,2427.890 A1075.000,1075.000 40.000 0,1 1947.187,2477.573 L1967.987,2523.041 A1125.000,1125.000 0.000 0,0 2068.059,2471.048 Z" style="stroke-linecap:round;fill:rgb(116,196,118);fill-opacity:0.33;" />
<text x="2051.7" y="2582.5" font-size="18.2px" font-family="CMUBright-Roman" style="text-anchor:start;fill:rgb(0,0,0);" transform="rotate(62.5,2051.7,2582.5)" >R<tspan baseline-shift="-40%" font-size="90%">s</tspan>caffold<tspan baseline-shift="-40%" font-size="90%">1</tspan>8</text>
<line x1='2068.1' y1='2471.0' x2='2078.2' y2='2488.3' style="stroke-width:4.0;stroke:rgb(0,0,0);stroke-linecap:round;fill:none;" />
<text x="2077.6" y="2500.2" font-size="18.2px" font-family="CMUBright-Roman" style="text-anchor:start;fill:rgb(0,0,0);" transform="rotate(59.7,2077.6,2500.2)" >0</text>
<line x1='2005.5' y1='2505.0' x2='2014.5' y2='2522.9' style="stroke-width:4.0;stroke:rgb(0,0,0);stroke-linecap:round;fill:none;" />
<text x="2013.2" y="2534.7" font-size="18.2px" font-family="CMUBright-Roman" style="text-anchor:start;fill:rgb(0,0,0);" transform="rotate(63.3,2013.2,2534.7)" >50</text>
<g id="highlighttrack_0">
<path d="M2029.630,2435.477 A1075.000,1075.000 40.000 0,1 2020.867,2440.384 L2045.094,2484.123 A1125.000,1125.000 0.000 0,0 2054.264,2478.987 Z" style="stroke-width:4.0;stroke:rgb(0,0,0);stroke-linecap:round;fill:rgb(116,196,118);" />
</g>
<path d="M1896.270,2499.297 A1075.000,1075.000 40.000 0,1 1892.360,2500.839 L1910.609,2547.390 A1125.000,1125.000 0.000 0,0 1914.701,2545.776 Z" style="stroke-linecap:round;fill:rgb(116,196,118);fill-opacity:0.33;" />
<text x="1936.8" y="2633.8" font-size="18.2px" font-family="CMUBright-Roman" style="text-anchor:start;fill:rgb(0,0,0);" transform="rotate(68.5,1936.8,2633.8)" >R<tspan baseline-shift="-40%" font-size="90%">s</tspan>caffold<tspan baseline-shift="-40%" font-size="90%">2</tspan>9</text>
<line x1='1914.7' y1='2545.8' x2='1922.1' y2='2564.4' style="stroke-width:4.0;stroke:rgb(0,0,0);stroke-linecap:round;fill:none;" />
<text x="1919.7" y="2576.0" font-size="18.2px" font-family="CMUBright-Roman" style="text-anchor:start;fill:rgb(0,0,0);" transform="rotate(68.4,1919.7,2576.0)" >0</text>
<g id="highlighttrack_0">
<path d="M1896.058,2499.381 A1075.000,1075.000 40.000 0,1 1892.360,2500.839 L1910.609,2547.390 A1125.000,1125.000 0.000 0,0 1914.479,2545.864 Z" style="stroke-width:4.0;stroke:rgb(0,0,0);stroke-linecap:round;fill:rgb(251,106,74);" />
</g>
<path d="M1840.318,2519.710 A1075.000,1075.000 40.000 0,1 1618.810,2568.414 L1624.336,2618.108 A1125.000,1125.000 0.000 0,0 1856.147,2567.138 Z" style="stroke-linecap:round;fill:rgb(116,196,118);fill-opacity:0.33;" />
<text x="1751.6" y="2688.7" font-size="18.2px" font-family="CMUBright-Roman" style="text-anchor:start;fill:rgb(0,0,0);" transform="rotate(77.6,1751.6,2688.7)" >R<tspan baseline-shift="-40%" font-size="90%">s</tspan>caffold<tspan baseline-shift="-40%" font-size="90%">1</tspan>1</text>
<line x1='1856.1' y1='2567.1' x2='1862.5' y2='2586.1' style="stroke-width:4.0;stroke:rgb(0,0,0);stroke-linecap:round;fill:none;" />
<text x="1859.5" y="2597.6" font-size="18.2px" font-family="CMUBright-Roman" style="text-anchor:start;fill:rgb(0,0,0);" transform="rotate(71.5,1859.5,2597.6)" >0</text>
<line x1='1788.0' y1='2587.5' x2='1793.1' y2='2606.8' style="stroke-width:4.0;stroke:rgb(0,0,0);stroke-linecap:round;fill:none;" />
<text x="1789.4" y="2618.2" font-size="18.2px" font-family="CMUBright-Roman" style="text-anchor:start;fill:rgb(0,0,0);" transform="rotate(75.2,1789.4,2618.2)" >50</text>
<line x1='1718.7' y1='2603.5' x2='1722.6' y2='2623.2' style="stroke-width:4.0;stroke:rgb(0,0,0);stroke-linecap:round;fill:none;" />
<text x="1718.1" y="2634.2" font-size="18.2px" font-family="CMUBright-Roman" style="text-anchor:start;fill:rgb(0,0,0);" transform="rotate(78.8,1718.1,2634.2)" >100</text>
<line x1='1648.5' y1='2615.2' x2='1651.1' y2='2635.0' style="stroke-width:4.0;stroke:rgb(0,0,0);stroke-linecap:round;fill:none;" />
<text x="1646.0" y="2645.7" font-size="18.2px" font-family="CMUBright-Roman" style="text-anchor:start;fill:rgb(0,0,0);" transform="rotate(82.4,1646.0,2645.7)" >150</text>
<g id="highlighttrack_0">
<path d="M1836.712,2520.906 A1075.000,1075.000 40.000 0,1 1833.862,2521.842 L1849.390,2569.370 A1125.000,1125.000 0.000 0,0 1852.373,2568.391 Z" style="stroke-width:4.0;stroke:rgb(0,0,0);stroke-linecap:round;fill:rgb(251,106,74);" />
</g>
<path d="M1563.652,2573.114 A1075.000,1075.000 40.000 0,1 1303.405,2556.871 L1294.261,2606.027 A1125.000,1125.000 0.000 0,0 1566.612,2623.026 Z" style="stroke-linecap:round;fill:rgb(116,196,118);fill-opacity:0.33;" />
<text x="1433.8" y="2713.2" font-size="18.2px" font-family="CMUBright-Roman" style="text-anchor:end;fill:rgb(0,0,0);" transform="rotate(-86.4,1433.8,2713.2)" >R<tspan baseline-shift="-40%" font-size="90%">s</tspan>caffold<tspan baseline-shift="-40%" font-size="90%">9</tspan></text>
<line x1='1566.6' y1='2623.0' x2='1567.8' y2='2643.0' style="stroke-width:4.0;stroke:rgb(0,0,0);stroke-linecap:round;fill:none;" />
<text x="1561.9" y="2653.3" font-size="18.2px" font-family="CMUBright-Roman" style="text-anchor:start;fill:rgb(0,0,0);" transform="rotate(86.6,1561.9,2653.3)" >0</text>
<line x1='1495.5' y1='2625.0' x2='1495.4' y2='2645.0' style="stroke-width:4.0;stroke:rgb(0,0,0);stroke-linecap:round;fill:none;" />
<text x="1501.9" y="2655.0" font-size="18.2px" font-family="CMUBright-Roman" style="text-anchor:end;fill:rgb(0,0,0);" transform="rotate(-89.8,1501.9,2655.0)" >50</text>
<line x1='1424.4' y1='2622.5' x2='1423.1' y2='2642.4' style="stroke-width:4.0;stroke:rgb(0,0,0);stroke-linecap:round;fill:none;" />
<text x="1428.9" y="2652.8" font-size="18.2px" font-family="CMUBright-Roman" style="text-anchor:end;fill:rgb(0,0,0);" transform="rotate(-86.1,1428.9,2652.8)" >100</text>
<line x1='1353.6' y1='2615.4' x2='1351.0' y2='2635.3' style="stroke-width:4.0;stroke:rgb(0,0,0);stroke-linecap:round;fill:none;" />
<text x="1356.2" y="2646.0" font-size="18.2px" font-family="CMUBright-Roman" style="text-anchor:end;fill:rgb(0,0,0);" transform="rotate(-82.5,1356.2,2646.0)" >150</text>
<g id="highlighttrack_0">
<path d="M1435.546,2573.066 A1075.000,1075.000 40.000 0,1 1432.366,2572.870 L1429.220,2622.771 A1125.000,1125.000 0.000 0,0 1432.548,2622.976 Z" style="stroke-width:4.0;stroke:rgb(0,0,0);stroke-linecap:round;fill:rgb(251,106,74);" />
</g>
<path d="M1249.259,2545.349 A1075.000,1075.000 40.000 0,1 780.359,2298.588 L746.888,2335.731 A1125.000,1125.000 0.000 0,0 1237.597,2593.970 Z" style="stroke-linecap:round;fill:rgb(116,196,118);fill-opacity:0.33;" />
<text x="942.6" y="2579.6" font-size="18.2px" font-family="CMUBright-Roman" style="text-anchor:end;fill:rgb(0,0,0);" transform="rotate(-62.2,942.6,2579.6)" >R<tspan baseline-shift="-40%" font-size="90%">s</tspan>caffold<tspan baseline-shift="-40%" font-size="90%">2</tspan></text>
<line x1='1237.6' y1='2594.0' x2='1232.9' y2='2613.4' style="stroke-width:4.0;stroke:rgb(0,0,0);stroke-linecap:round;fill:none;" />
<text x="1236.9" y="2624.6" font-size="18.2px" font-family="CMUBright-Roman" style="text-anchor:end;fill:rgb(0,0,0);" transform="rotate(-76.5,1236.9,2624.6)" >0</text>
<line x1='1169.0' y1='2575.2' x2='1163.1' y2='2594.3' style="stroke-width:4.0;stroke:rgb(0,0,0);stroke-linecap:round;fill:none;" />
<text x="1166.4" y="2605.8" font-size="18.2px" font-family="CMUBright-Roman" style="text-anchor:end;fill:rgb(0,0,0);" transform="rotate(-72.9,1166.4,2605.8)" >50</text>
<line x1='1101.7' y1='2552.1' x2='1094.6' y2='2570.8' style="stroke-width:4.0;stroke:rgb(0,0,0);stroke-linecap:round;fill:none;" />
<text x="1097.1" y="2582.5" font-size="18.2px" font-family="CMUBright-Roman" style="text-anchor:end;fill:rgb(0,0,0);" transform="rotate(-69.3,1097.1,2582.5)" >100</text>
<line x1='1036.0' y1='2524.8' x2='1027.7' y2='2543.1' style="stroke-width:4.0;stroke:rgb(0,0,0);stroke-linecap:round;fill:none;" />
<text x="1029.5" y="2554.8" font-size="18.2px" font-family="CMUBright-Roman" style="text-anchor:end;fill:rgb(0,0,0);" transform="rotate(-65.6,1029.5,2554.8)" >150</text>
<line x1='972.1' y1='2493.5' x2='962.7' y2='2511.1' style="stroke-width:4.0;stroke:rgb(0,0,0);stroke-linecap:round;fill:none;" />
<text x="963.8" y="2523.0" font-size="18.2px" font-family="CMUBright-Roman" style="text-anchor:end;fill:rgb(0,0,0);" transform="rotate(-62.0,963.8,2523.0)" >200</text>
<line x1='910.4' y1='2458.1' x2='899.9' y2='2475.2' style="stroke-width:4.0;stroke:rgb(0,0,0);stroke-linecap:round;fill:none;" />
<text x="900.2" y="2487.1" font-size="18.2px" font-family="CMUBright-Roman" style="text-anchor:end;fill:rgb(0,0,0);" transform="rotate(-58.4,900.2,2487.1)" >250</text>
<line x1='851.0' y1='2418.9' x2='839.5' y2='2435.3' style="stroke-width:4.0;stroke:rgb(0,0,0);stroke-linecap:round;fill:none;" />
<text x="839.0" y="2447.2" font-size="18.2px" font-family="CMUBright-Roman" style="text-anchor:end;fill:rgb(0,0,0);" transform="rotate(-54.8,839.0,2447.2)" >300</text>
<line x1='794.2' y1='2376.1' x2='781.7' y2='2391.7' style="stroke-width:4.0;stroke:rgb(0,0,0);stroke-linecap:round;fill:none;" />
<text x="780.5" y="2403.5" font-size="18.2px" font-family="CMUBright-Roman" style="text-anchor:end;fill:rgb(0,0,0);" transform="rotate(-51.1,780.5,2403.5)" >350</text>
<g id="highlighttrack_0">
<path d="M1158.429,2519.291 A1075.000,1075.000 40.000 0,1 913.176,2400.701 L885.882,2442.594 A1125.000,1125.000 0.000 0,0 1142.542,2566.700 Z" style="stroke-width:4.0;stroke:rgb(0,0,0);stroke-linecap:round;fill:rgb(116,196,118);" />
</g>
<path d="M740.203,2260.482 A1075.000,1075.000 40.000 0,1 551.984,2006.844 L507.890,2030.418 A1125.000,1125.000 0.000 0,0 704.864,2295.854 Z" style="stroke-linecap:round;fill:rgb(116,196,118);fill-opacity:0.33;" />
<text x="530.0" y="2231.6" font-size="18.2px" font-family="CMUBright-Roman" style="text-anchor:end;fill:rgb(0,0,0);" transform="rotate(-36.6,530.0,2231.6)" >R<tspan baseline-shift="-40%" font-size="90%">s</tspan>caffold<tspan baseline-shift="-40%" font-size="90%">7</tspan></text>
<line x1='704.9' y1='2295.9' x2='690.7' y2='2310.0' style="stroke-width:4.0;stroke:rgb(0,0,0);stroke-linecap:round;fill:none;" />
<text x="688.3" y="2321.7" font-size="18.2px" font-family="CMUBright-Roman" style="text-anchor:end;fill:rgb(0,0,0);" transform="rotate(-45.0,688.3,2321.7)" >0</text>
<line x1='656.2' y1='2244.0' x2='641.2' y2='2257.2' style="stroke-width:4.0;stroke:rgb(0,0,0);stroke-linecap:round;fill:none;" />
<text x="638.0" y="2268.7" font-size="18.2px" font-family="CMUBright-Roman" style="text-anchor:end;fill:rgb(0,0,0);" transform="rotate(-41.4,638.0,2268.7)" >50</text>
<line x1='610.8' y1='2189.2' x2='595.0' y2='2201.4' style="stroke-width:4.0;stroke:rgb(0,0,0);stroke-linecap:round;fill:none;" />
<text x="591.1" y="2212.7" font-size="18.2px" font-family="CMUBright-Roman" style="text-anchor:end;fill:rgb(0,0,0);" transform="rotate(-37.8,591.1,2212.7)" >100</text>
<line x1='569.0' y1='2131.6' x2='552.5' y2='2142.8' style="stroke-width:4.0;stroke:rgb(0,0,0);stroke-linecap:round;fill:none;" />
<text x="547.9" y="2153.8" font-size="18.2px" font-family="CMUBright-Roman" style="text-anchor:end;fill:rgb(0,0,0);" transform="rotate(-34.2,547.9,2153.8)" >150</text>
<line x1='531.0' y1='2071.5' x2='513.7' y2='2081.7' style="stroke-width:4.0;stroke:rgb(0,0,0);stroke-linecap:round;fill:none;" />
<text x="508.5" y="2092.3" font-size="18.2px" font-family="CMUBright-Roman" style="text-anchor:end;fill:rgb(0,0,0);" transform="rotate(-30.5,508.5,2092.3)" >200</text>
<g id="highlighttrack_0">
<path d="M650.743,2159.080 A1075.000,1075.000 40.000 0,1 648.886,2156.681 L609.299,2187.224 A1125.000,1125.000 0.000 0,0 611.242,2189.735 Z" style="stroke-width:4.0;stroke:rgb(0,0,0);stroke-linecap:round;fill:rgb(116,196,118);" />
<path d="M566.781,2033.599 A1075.000,1075.000 40.000 0,1 563.186,2027.261 L519.613,2051.784 A1125.000,1125.000 0.000 0,0 523.376,2058.417 Z" style="stroke-width:4.0;stroke:rgb(0,0,0);stroke-linecap:round;fill:rgb(116,196,118);" />
<path d="M572.355,2043.231 A1075.000,1075.000 40.000 0,1 570.247,2039.615 L527.003,2064.714 A1125.000,1125.000 0.000 0,0 529.209,2068.498 Z" style="stroke-width:4.0;stroke:rgb(0,0,0);stroke-linecap:round;fill:rgb(116,196,118);" />
</g>
<path d="M527.149,1957.369 A1075.000,1075.000 40.000 0,1 455.615,1754.726 L407.039,1766.573 A1125.000,1125.000 0.000 0,0 481.901,1978.642 Z" style="stroke-linecap:round;fill:rgb(116,196,118);fill-opacity:0.33;" />
<text x="357.5" y="1913.4" font-size="18.2px" font-family="CMUBright-Roman" style="text-anchor:end;fill:rgb(0,0,0);" transform="rotate(-19.4,357.5,1913.4)" >R<tspan baseline-shift="-40%" font-size="90%">s</tspan>caffold<tspan baseline-shift="-40%" font-size="90%">1</tspan>2</text>
<line x1='481.9' y1='1978.6' x2='463.8' y2='1987.2' style="stroke-width:4.0;stroke:rgb(0,0,0);stroke-linecap:round;fill:none;" />
<text x="457.5" y="1997.3" font-size="18.2px" font-family="CMUBright-Roman" style="text-anchor:end;fill:rgb(0,0,0);" transform="rotate(-25.2,457.5,1997.3)" >0</text>
<line x1='453.7' y1='1913.3' x2='435.1' y2='1920.7' style="stroke-width:4.0;stroke:rgb(0,0,0);stroke-linecap:round;fill:none;" />
<text x="428.2" y="1930.4" font-size="18.2px" font-family="CMUBright-Roman" style="text-anchor:end;fill:rgb(0,0,0);" transform="rotate(-21.6,428.2,1930.4)" >50</text>
<line x1='429.7' y1='1846.4' x2='410.6' y2='1852.5' style="stroke-width:4.0;stroke:rgb(0,0,0);stroke-linecap:round;fill:none;" />
<text x="403.1" y="1861.8" font-size="18.2px" font-family="CMUBright-Roman" style="text-anchor:end;fill:rgb(0,0,0);" transform="rotate(-17.9,403.1,1861.8)" >100</text>
<line x1='409.9' y1='1778.0' x2='390.5' y2='1783.0' style="stroke-width:4.0;stroke:rgb(0,0,0);stroke-linecap:round;fill:none;" />
<text x="382.5" y="1791.7" font-size="18.2px" font-family="CMUBright-Roman" style="text-anchor:end;fill:rgb(0,0,0);" transform="rotate(-14.3,382.5,1791.7)" >150</text>
<g id="highlighttrack_0">
<path d="M456.723,1759.224 A1075.000,1075.000 40.000 0,1 455.871,1755.773 L407.307,1767.670 A1125.000,1125.000 0.000 0,0 408.198,1771.281 Z" style="stroke-width:4.0;stroke:rgb(0,0,0);stroke-linecap:round;fill:rgb(116,196,118);" />
</g>
<path d="M443.887,1700.624 A1075.000,1075.000 40.000 0,1 433.130,1368.036 L383.509,1361.898 A1125.000,1125.000 0.000 0,0 394.765,1709.956 Z" style="stroke-linecap:round;fill:rgb(116,196,118);fill-opacity:0.33;" />
<text x="286.0" y="1548.8" font-size="18.2px" font-family="CMUBright-Roman" style="text-anchor:end;fill:rgb(0,0,0);" transform="rotate(-1.9,286.0,1548.8)" >R<tspan baseline-shift="-40%" font-size="90%">s</tspan>caffold<tspan baseline-shift="-40%" font-size="90%">6</tspan></text>
<line x1='394.8' y1='1710.0' x2='375.1' y2='1713.7' style="stroke-width:4.0;stroke:rgb(0,0,0);stroke-linecap:round;fill:none;" />
<text x="366.5" y="1721.9" font-size="18.2px" font-family="CMUBright-Roman" style="text-anchor:end;fill:rgb(0,0,0);" transform="rotate(-10.8,366.5,1721.9)" >0</text>
<line x1='383.7' y1='1639.7' x2='363.9' y2='1642.2' style="stroke-width:4.0;stroke:rgb(0,0,0);stroke-linecap:round;fill:none;" />
<text x="354.8" y="1649.9" font-size="18.2px" font-family="CMUBright-Roman" style="text-anchor:end;fill:rgb(0,0,0);" transform="rotate(-7.1,354.8,1649.9)" >50</text>
<line x1='377.1' y1='1568.8' x2='357.1' y2='1570.1' style="stroke-width:4.0;stroke:rgb(0,0,0);stroke-linecap:round;fill:none;" />
<text x="347.6" y="1577.2" font-size="18.2px" font-family="CMUBright-Roman" style="text-anchor:end;fill:rgb(0,0,0);" transform="rotate(-3.5,347.6,1577.2)" >100</text>
<line x1='375.0' y1='1497.7' x2='355.0' y2='1497.7' style="stroke-width:4.0;stroke:rgb(0,0,0);stroke-linecap:round;fill:none;" />
<text x="345.0" y="1504.2" font-size="18.2px" font-family="CMUBright-Roman" style="text-anchor:end;fill:rgb(0,0,0);" transform="rotate(0.1,345.0,1504.2)" >150</text>
<line x1='377.4' y1='1426.6' x2='357.4' y2='1425.3' style="stroke-width:4.0;stroke:rgb(0,0,0);stroke-linecap:round;fill:none;" />
<text x="347.1" y="1431.2" font-size="18.2px" font-family="CMUBright-Roman" style="text-anchor:end;fill:rgb(0,0,0);" transform="rotate(3.7,347.1,1431.2)" >200</text>
<g id="highlighttrack_0">
<path d="M425.507,1466.987 A1075.000,1075.000 40.000 0,1 425.609,1463.824 L375.637,1462.141 A1125.000,1125.000 0.000 0,0 375.531,1465.451 Z" style="stroke-width:4.0;stroke:rgb(0,0,0);stroke-linecap:round;fill:rgb(251,106,74);" />
<path d="M439.801,1677.770 A1075.000,1075.000 40.000 0,1 439.199,1674.143 L389.859,1682.242 A1125.000,1125.000 0.000 0,0 390.489,1686.038 Z" style="stroke-width:4.0;stroke:rgb(0,0,0);stroke-linecap:round;fill:rgb(116,196,118);" />
</g>
<path d="M441.338,1313.290 A1075.000,1075.000 40.000 0,1 966.008,567.006 L941.171,523.611 A1125.000,1125.000 0.000 0,0 392.098,1304.606 Z" style="stroke-linecap:round;fill:rgb(116,196,118);fill-opacity:0.33;" />
<text x="500.6" y="809.0" font-size="18.2px" font-family="CMUBright-Roman" style="text-anchor:end;fill:rgb(0,0,0);" transform="rotate(35.1,500.6,809.0)" >R<tspan baseline-shift="-40%" font-size="90%">s</tspan>caffold<tspan baseline-shift="-40%" font-size="90%">0</tspan></text>
<line x1='392.1' y1='1304.6' x2='372.4' y2='1301.1' style="stroke-width:4.0;stroke:rgb(0,0,0);stroke-linecap:round;fill:none;" />
<text x="361.4" y="1305.8" font-size="18.2px" font-family="CMUBright-Roman" style="text-anchor:end;fill:rgb(0,0,0);" transform="rotate(10.0,361.4,1305.8)" >0</text>
<line x1='406.7' y1='1235.0' x2='387.2' y2='1230.3' style="stroke-width:4.0;stroke:rgb(0,0,0);stroke-linecap:round;fill:none;" />
<text x="376.0" y="1234.2" font-size="18.2px" font-family="CMUBright-Roman" style="text-anchor:end;fill:rgb(0,0,0);" transform="rotate(13.6,376.0,1234.2)" >50</text>
<line x1='425.6' y1='1166.4' x2='406.5' y2='1160.5' style="stroke-width:4.0;stroke:rgb(0,0,0);stroke-linecap:round;fill:none;" />
<text x="395.0" y="1163.7" font-size="18.2px" font-family="CMUBright-Roman" style="text-anchor:end;fill:rgb(0,0,0);" transform="rotate(17.2,395.0,1163.7)" >100</text>
<line x1='448.8' y1='1099.2' x2='430.1' y2='1092.0' style="stroke-width:4.0;stroke:rgb(0,0,0);stroke-linecap:round;fill:none;" />
<text x="418.5" y="1094.6" font-size="18.2px" font-family="CMUBright-Roman" style="text-anchor:end;fill:rgb(0,0,0);" transform="rotate(20.9,418.5,1094.6)" >150</text>
<line x1='476.3' y1='1033.5' x2='458.1' y2='1025.2' style="stroke-width:4.0;stroke:rgb(0,0,0);stroke-linecap:round;fill:none;" />
<text x="446.3" y="1027.0" font-size="18.2px" font-family="CMUBright-Roman" style="text-anchor:end;fill:rgb(0,0,0);" transform="rotate(24.5,446.3,1027.0)" >200</text>
<line x1='507.8' y1='969.8' x2='490.2' y2='960.3' style="stroke-width:4.0;stroke:rgb(0,0,0);stroke-linecap:round;fill:none;" />
<text x="478.3" y="961.4" font-size="18.2px" font-family="CMUBright-Roman" style="text-anchor:end;fill:rgb(0,0,0);" transform="rotate(28.1,478.3,961.4)" >250</text>
<line x1='543.3' y1='908.1' x2='526.3' y2='897.6' style="stroke-width:4.0;stroke:rgb(0,0,0);stroke-linecap:round;fill:none;" />
<text x="514.4" y="897.9" font-size="18.2px" font-family="CMUBright-Roman" style="text-anchor:end;fill:rgb(0,0,0);" transform="rotate(31.7,514.4,897.9)" >300</text>
<line x1='582.6' y1='848.8' x2='566.3' y2='837.2' style="stroke-width:4.0;stroke:rgb(0,0,0);stroke-linecap:round;fill:none;" />
<text x="554.4" y="836.8" font-size="18.2px" font-family="CMUBright-Roman" style="text-anchor:end;fill:rgb(0,0,0);" transform="rotate(35.4,554.4,836.8)" >350</text>
<line x1='625.6' y1='792.1' x2='610.1' y2='779.6' style="stroke-width:4.0;stroke:rgb(0,0,0);stroke-linecap:round;fill:none;" />
<text x="598.2" y="778.3" font-size="18.2px" font-family="CMUBright-Roman" style="text-anchor:end;fill:rgb(0,0,0);" transform="rotate(39.0,598.2,778.3)" >400</text>
<line x1='672.1' y1='738.3' x2='657.4' y2='724.7' style="stroke-width:4.0;stroke:rgb(0,0,0);stroke-linecap:round;fill:none;" />
<text x="645.6" y="722.8" font-size="18.2px" font-family="CMUBright-Roman" style="text-anchor:end;fill:rgb(0,0,0);" transform="rotate(42.6,645.6,722.8)" >450</text>
<line x1='721.9' y1='687.5' x2='708.1' y2='673.0' style="stroke-width:4.0;stroke:rgb(0,0,0);stroke-linecap:round;fill:none;" />
<text x="696.5" y="670.3" font-size="18.2px" font-family="CMUBright-Roman" style="text-anchor:end;fill:rgb(0,0,0);" transform="rotate(46.2,696.5,670.3)" >500</text>
<line x1='774.8' y1='639.9' x2='761.9' y2='624.6' style="stroke-width:4.0;stroke:rgb(0,0,0);stroke-linecap:round;fill:none;" />
<text x="750.5" y="621.2" font-size="18.2px" font-family="CMUBright-Roman" style="text-anchor:end;fill:rgb(0,0,0);" transform="rotate(49.9,750.5,621.2)" >550</text>
<line x1='830.6' y1='595.8' x2='818.7' y2='579.7' style="stroke-width:4.0;stroke:rgb(0,0,0);stroke-linecap:round;fill:none;" />
<text x="807.6" y="575.6" font-size="18.2px" font-family="CMUBright-Roman" style="text-anchor:end;fill:rgb(0,0,0);" transform="rotate(53.5,807.6,575.6)" >600</text>
<line x1='889.1' y1='555.3' x2='878.2' y2='538.5' style="stroke-width:4.0;stroke:rgb(0,0,0);stroke-linecap:round;fill:none;" />
<text x="867.4" y="533.7" font-size="18.2px" font-family="CMUBright-Roman" style="text-anchor:end;fill:rgb(0,0,0);" transform="rotate(57.1,867.4,533.7)" >650</text>
<g id="highlighttrack_0">
<path d="M937.799,583.728 A1075.000,1075.000 40.000 0,1 942.182,581.053 L916.237,538.311 A1125.000,1125.000 0.000 0,0 911.650,541.110 Z" style="stroke-width:4.0;stroke:rgb(0,0,0);stroke-linecap:round;fill:rgb(116,196,118);" />
<path d="M584.778,936.090 A1075.000,1075.000 40.000 0,1 599.092,913.493 L557.190,886.214 A1125.000,1125.000 0.000 0,0 542.210,909.862 Z" style="stroke-width:4.0;stroke:rgb(0,0,0);stroke-linecap:round;fill:rgb(116,196,118);" />
</g>
<path d="M1014.745,540.754 A1075.000,1075.000 40.000 0,1 1047.823,524.725 L1026.791,479.364 A1125.000,1125.000 0.000 0,0 992.176,496.138 Z" style="stroke-linecap:round;fill:rgb(116,196,118);fill-opacity:0.33;" />
<text x="961.6" y="410.8" font-size="18.2px" font-family="CMUBright-Roman" style="text-anchor:end;fill:rgb(0,0,0);" transform="rotate(64.1,961.6,410.8)" >R<tspan baseline-shift="-40%" font-size="90%">s</tspan>caffold<tspan baseline-shift="-40%" font-size="90%">2</tspan>6</text>
<line x1='992.2' y1='496.1' x2='983.1' y2='478.3' style="stroke-width:4.0;stroke:rgb(0,0,0);stroke-linecap:round;fill:none;" />
<text x="972.8" y="472.3" font-size="18.2px" font-family="CMUBright-Roman" style="text-anchor:end;fill:rgb(0,0,0);" transform="rotate(63.2,972.8,472.3)" >0</text>
<g id="highlighttrack_0">
<path d="M1021.971,537.133 A1075.000,1075.000 40.000 0,1 1028.517,533.911 L1006.587,488.976 A1125.000,1125.000 0.000 0,0 999.738,492.348 Z" style="stroke-width:4.0;stroke:rgb(0,0,0);stroke-linecap:round;fill:rgb(116,196,118);" />
</g>
<path d="M1098.628,502.741 A1075.000,1075.000 40.000 0,1 1131.258,490.221 L1114.107,443.254 A1125.000,1125.000 0.000 0,0 1079.960,456.357 Z" style="stroke-linecap:round;fill:rgb(116,196,118);fill-opacity:0.33;" />
<text x="1055.9" y="369.1" font-size="18.2px" font-family="CMUBright-Roman" style="text-anchor:end;fill:rgb(0,0,0);" transform="rotate(69.0,1055.9,369.1)" >R<tspan baseline-shift="-40%" font-size="90%">s</tspan>caffold<tspan baseline-shift="-40%" font-size="90%">2</tspan>7</text>
<line x1='1080.0' y1='456.4' x2='1072.5' y2='437.8' style="stroke-width:4.0;stroke:rgb(0,0,0);stroke-linecap:round;fill:none;" />
<text x="1062.7" y="431.0" font-size="18.2px" font-family="CMUBright-Roman" style="text-anchor:end;fill:rgb(0,0,0);" transform="rotate(68.1,1062.7,431.0)" >0</text>
<g id="highlighttrack_0">
<path d="M1112.070,497.436 A1075.000,1075.000 40.000 0,1 1130.347,490.554 L1113.154,443.603 A1125.000,1125.000 0.000 0,0 1094.026,450.805 Z" style="stroke-width:4.0;stroke:rgb(0,0,0);stroke-linecap:round;fill:rgb(116,196,118);" />
</g>
<path d="M1183.729,472.577 A1075.000,1075.000 40.000 0,1 1205.902,466.012 L1192.223,417.919 A1125.000,1125.000 0.000 0,0 1169.019,424.790 Z" style="stroke-linecap:round;fill:rgb(116,196,118);fill-opacity:0.33;" />
<text x="1146.0" y="337.7" font-size="18.2px" font-family="CMUBright-Roman" style="text-anchor:end;fill:rgb(0,0,0);" transform="rotate(73.5,1146.0,337.7)" >R<tspan baseline-shift="-40%" font-size="90%">s</tspan>caffold<tspan baseline-shift="-40%" font-size="90%">2</tspan>9</text>
<line x1='1169.0' y1='424.8' x2='1163.1' y2='405.7' style="stroke-width:4.0;stroke:rgb(0,0,0);stroke-linecap:round;fill:none;" />
<text x="1154.0" y="398.0" font-size="18.2px" font-family="CMUBright-Roman" style="text-anchor:end;fill:rgb(0,0,0);" transform="rotate(72.9,1154.0,398.0)" >0</text>
<g id="highlighttrack_0">
<path d="M1183.764,472.566 A1075.000,1075.000 40.000 0,1 1204.930,466.289 L1191.206,418.209 A1125.000,1125.000 0.000 0,0 1169.056,424.779 Z" style="stroke-width:4.0;stroke:rgb(0,0,0);stroke-linecap:round;fill:rgb(116,196,118);" />
</g>
<path d="M1259.520,452.243 A1075.000,1075.000 40.000 0,1 1384.683,431.203 L1379.320,381.492 A1125.000,1125.000 0.000 0,0 1248.335,403.510 Z" style="stroke-linecap:round;fill:rgb(116,196,118);fill-opacity:0.33;" />
<text x="1289.2" y="303.4" font-size="18.2px" font-family="CMUBright-Roman" style="text-anchor:end;fill:rgb(0,0,0);" transform="rotate(80.5,1289.2,303.4)" >R<tspan baseline-shift="-40%" font-size="90%">s</tspan>caffold<tspan baseline-shift="-40%" font-size="90%">1</tspan>9</text>
<line x1='1248.3' y1='403.5' x2='1243.9' y2='384.0' style="stroke-width:4.0;stroke:rgb(0,0,0);stroke-linecap:round;fill:none;" />
<text x="1235.3" y="375.7" font-size="18.2px" font-family="CMUBright-Roman" style="text-anchor:end;fill:rgb(0,0,0);" transform="rotate(77.1,1235.3,375.7)" >0</text>
<line x1='1318.1' y1='389.8' x2='1314.9' y2='370.1' style="stroke-width:4.0;stroke:rgb(0,0,0);stroke-linecap:round;fill:none;" />
<text x="1306.9" y="361.3" font-size="18.2px" font-family="CMUBright-Roman" style="text-anchor:end;fill:rgb(0,0,0);" transform="rotate(80.7,1306.9,361.3)" >50</text>
<g id="highlighttrack_0">
<path d="M1274.080,449.007 A1075.000,1075.000 40.000 0,1 1283.899,446.945 L1273.847,397.965 A1125.000,1125.000 0.000 0,0 1263.573,400.124 Z" style="stroke-width:4.0;stroke:rgb(0,0,0);stroke-linecap:round;fill:rgb(116,196,118);" />
</g>
<path d="M1439.856,426.684 A1075.000,1075.000 40.000 0,1 1444.660,426.425 L1442.086,376.492 A1125.000,1125.000 0.000 0,0 1437.059,376.762 Z" style="stroke-linecap:round;fill:rgb(116,196,118);fill-opacity:0.33;" />
<text x="1425.3" y="287.3" font-size="18.2px" font-family="CMUBright-Roman" style="text-anchor:end;fill:rgb(0,0,0);" transform="rotate(86.9,1425.3,287.3)" >R<tspan baseline-shift="-40%" font-size="90%">s</tspan>caffold<tspan baseline-shift="-40%" font-size="90%">3</tspan>4</text>
<line x1='1437.1' y1='376.8' x2='1435.9' y2='356.8' style="stroke-width:4.0;stroke:rgb(0,0,0);stroke-linecap:round;fill:none;" />
<text x="1428.9" y="347.2" font-size="18.2px" font-family="CMUBright-Roman" style="text-anchor:end;fill:rgb(0,0,0);" transform="rotate(86.8,1428.9,347.2)" >0</text>
<g id="highlighttrack_0">
<path d="M1439.858,426.684 A1075.000,1075.000 40.000 0,1 1443.840,426.468 L1441.228,376.536 A1125.000,1125.000 0.000 0,0 1437.060,376.762 Z" style="stroke-width:4.0;stroke:rgb(0,0,0);stroke-linecap:round;fill:rgb(116,196,118);" />
</g>
</g>
<g id="track_0">
<path d="M 659.235,2152.490 A 1064.250,1064.250 0.00 0,1 657.4,2150.1 L 657.4,2150.1 715.5,2103.8 769.5,2057.9 819.8,2012.4 866.7,1967.6 910.6,1923.6 951.9,1880.3 990.8,1837.8 1027.6,1796.3 1062.6,1755.7 1096.0,1716.1 1128.3,1677.6 1159.5,1640.0 1189.9,1603.3 1219.7,1567.7 1249.1,1532.9 1278.4,1499.1 1307.6,1466.0 1337.0,1433.6 1366.6,1401.8 1396.6,1370.6 1427.2,1339.7 1458.4,1309.1 1490.3,1278.6 1523.0,1248.0 1556.6,1217.2 1591.1,1186.0 1626.5,1154.2 1662.8,1121.6 1700.1,1087.9 1738.3,1052.8 1777.5,1016.3 1817.5,977.9 1858.4,937.4 1900.1,894.4 1942.4,848.8 1985.3,800.1 2028.7,748.1 2072.5,692.3 2116.5,632.5  A 1064.250,1064.250 0.00 0,0 2114.1,630.8 L 2114.1,630.8 2070.2,690.7 2026.6,746.6 1983.3,798.8 1940.6,847.6 1898.4,893.3 1856.8,936.4 1816.1,977.0 1776.1,1015.5 1737.1,1052.2 1698.9,1087.3 1661.7,1121.1 1625.5,1153.9 1590.2,1185.8 1555.8,1217.1 1522.3,1248.0 1489.7,1278.6 1457.9,1309.2 1426.8,1339.9 1396.3,1370.8 1366.3,1402.2 1336.8,1434.0 1307.5,1466.5 1278.4,1499.7 1249.2,1533.6 1219.9,1568.5 1190.2,1604.2 1159.9,1640.9 1128.8,1678.6 1096.7,1717.3 1063.3,1757.0 1028.4,1797.6 991.7,1839.3 953.0,1881.8 911.8,1925.2 868.0,1969.4 821.2,2014.4 771.0,2059.9 717.2,2106.0 659.2,2152.5  Z" style="stroke-width: 2.0;  stroke: rgb(82,82,82); fill: rgb(251,106,74); opacity: 0.667;" />
<path d="M 943.421,592.890 A 1064.250,1064.250 0.00 0,1 947.8,590.2 L 947.8,590.2 987.2,653.0 1026.6,711.5 1065.8,766.0 1104.7,816.9 1143.1,864.5 1181.1,909.2 1218.6,951.3 1255.5,991.0 1291.7,1028.6 1327.3,1064.4 1362.3,1098.6 1396.6,1131.6 1430.2,1163.4 1463.2,1194.3 1495.7,1224.4 1527.7,1254.1 1559.2,1283.4 1590.3,1312.5 1621.2,1341.6 1651.8,1370.7 1682.5,1400.0 1713.2,1429.5 1744.1,1459.4 1775.4,1489.8 1807.3,1520.6 1839.8,1552.0 1873.4,1583.9 1908.0,1616.5 1944.1,1649.6 1981.7,1683.2 2021.2,1717.5 2062.7,1752.2 2106.7,1787.4 2153.3,1823.0 2202.9,1858.9 2255.8,1895.0 2312.3,1931.3 2372.8,1967.5 2437.5,2003.7  A 1064.250,1064.250 0.00 0,0 2439.9,1999.2 L 2439.9,1999.2 2375.0,1963.4 2314.4,1927.4 2257.7,1891.4 2204.7,1855.5 2154.9,1819.9 2108.1,1784.5 2063.9,1749.5 2022.2,1715.0 1982.6,1680.9 1944.8,1647.4 1908.6,1614.5 1873.8,1582.2 1840.1,1550.4 1807.4,1519.2 1775.3,1488.5 1743.9,1458.3 1712.8,1428.5 1682.0,1399.1 1651.2,1370.0 1620.4,1341.0 1589.4,1312.1 1558.1,1283.1 1526.5,1254.0 1494.4,1224.5 1461.8,1194.4 1428.6,1163.7 1394.8,1132.1 1360.3,1099.3 1325.2,1065.2 1289.5,1029.6 1253.0,992.2 1216.0,952.6 1178.3,910.8 1140.1,866.2 1101.4,818.8 1062.3,768.1 1022.9,713.7 983.2,655.5 943.4,592.9  Z" style="stroke-width: 2.0;  stroke: rgb(82,82,82); fill: rgb(116,196,118); opacity: 0.667;" />
<path d="M 1833.345,2510.697 A 1064.250,1064.250 0.00 0,1 1830.5,2511.6 L 1830.5,2511.6 1808.2,2441.8 1788.6,2376.7 1771.3,2316.1 1756.4,2259.7 1743.7,2207.4 1733.2,2158.8 1724.6,2113.8 1717.9,2072.3 1713.0,2033.9 1710.0,1998.5 1708.6,1966.0 1708.9,1936.2 1710.9,1908.9 1714.5,1884.1 1719.6,1861.6 1726.4,1841.3 1734.8,1823.1 1744.8,1807.0 1756.5,1792.8 1769.8,1780.5 1785.0,1770.1 1801.9,1761.5 1820.7,1754.7 1841.5,1749.7 1864.4,1746.5 1889.4,1745.0 1916.7,1745.4 1946.4,1747.7 1978.7,1751.8 2013.7,1757.9 2051.6,1766.0 2092.4,1776.2 2136.5,1788.6 2184.0,1803.3 2235.0,1820.4 2289.9,1840.0 2348.8,1862.4 2412.0,1887.5 2479.7,1915.7  A 1064.250,1064.250 0.00 0,0 2480.9,1913.0 L 2480.9,1913.0 2413.1,1885.0 2349.8,1860.0 2290.9,1837.8 2235.9,1818.3 2184.8,1801.4 2137.3,1786.8 2093.2,1774.5 2052.3,1764.4 2014.4,1756.4 1979.4,1750.4 1947.1,1746.4 1917.4,1744.3 1890.1,1744.0 1865.1,1745.5 1842.2,1748.8 1821.4,1753.8 1802.6,1760.7 1785.7,1769.3 1770.6,1779.8 1757.3,1792.1 1745.6,1806.3 1735.7,1822.5 1727.4,1840.7 1720.6,1861.0 1715.5,1883.5 1712.0,1908.3 1710.2,1935.6 1709.9,1965.4 1711.4,1997.9 1714.5,2033.3 1719.5,2071.6 1726.3,2113.2 1735.0,2158.2 1745.7,2206.7 1758.6,2259.0 1773.6,2315.3 1791.0,2375.9 1810.9,2440.9 1833.3,2510.7  Z" style="stroke-width: 2.0;  stroke: rgb(82,82,82); fill: rgb(107,174,214); opacity: 0.667;" />
<path d="M 1026.752,546.761 A 1064.250,1064.250 0.00 0,1 1033.2,543.6 L 1033.2,543.6 1064.7,610.1 1092.6,673.1 1117.1,732.9 1138.4,789.5 1156.9,843.2 1172.7,894.1 1186.0,942.6 1196.9,988.7 1205.7,1032.7 1212.4,1074.6 1217.2,1114.8 1220.2,1153.2 1221.5,1190.2 1221.1,1225.8 1219.2,1260.3 1215.7,1293.6 1210.8,1326.0 1204.3,1357.7 1196.3,1388.7 1186.8,1419.1 1175.8,1449.1 1163.1,1478.9 1148.8,1508.4 1132.7,1537.8 1114.8,1567.2 1094.8,1596.7 1072.8,1626.4 1048.4,1656.4 1021.7,1686.7 992.3,1717.4 960.1,1748.6 924.9,1780.3 886.5,1812.7 844.5,1845.7 798.8,1879.4 749.1,1913.8 695.0,1949.1 636.3,1985.1 572.6,2022.0  A 1064.250,1064.250 0.00 0,0 576.1,2028.3 L 576.1,2028.3 639.6,1990.9 698.0,1954.5 751.9,1918.9 801.4,1884.1 846.9,1850.1 888.6,1816.8 926.8,1784.2 961.8,1752.3 993.8,1720.8 1022.9,1689.9 1049.5,1659.5 1073.6,1629.3 1095.5,1599.5 1115.2,1569.8 1133.0,1540.3 1148.9,1510.8 1163.0,1481.1 1175.5,1451.3 1186.3,1421.2 1195.6,1390.7 1203.3,1359.7 1209.6,1328.0 1214.3,1295.5 1217.6,1262.2 1219.3,1227.7 1219.4,1192.1 1217.9,1155.2 1214.6,1116.7 1209.5,1076.6 1202.5,1034.7 1193.4,990.8 1182.2,944.8 1168.6,896.4 1152.5,845.5 1133.6,791.9 1111.9,735.5 1087.0,675.9 1058.7,613.1 1026.8,546.8  Z" style="stroke-width: 2.0;  stroke: rgb(82,82,82); fill: rgb(253,141,60); opacity: 0.667;" />
<path d="M 2548.932,1320.087 A 1064.250,1064.250 0.00 0,1 2553.0,1345.9 L 2553.0,1345.9 2479.6,1355.5 2409.8,1362.4 2343.4,1367.0 2280.0,1369.5 2219.7,1370.1 2162.0,1369.1 2106.8,1366.7 2053.9,1363.2 2003.1,1358.6 1954.2,1353.2 1906.9,1347.1 1861.2,1340.4 1816.8,1333.2 1773.6,1325.7 1731.3,1317.9 1689.8,1309.9 1648.9,1301.7 1608.4,1293.3 1568.2,1284.7 1528.2,1275.9 1488.1,1266.9 1447.8,1257.6 1407.2,1247.9 1366.1,1237.9 1324.5,1227.2 1282.0,1215.9 1238.7,1203.8 1194.4,1190.8 1149.0,1176.6 1102.3,1161.0 1054.2,1143.9 1004.7,1125.0 953.6,1104.1 900.8,1080.8 846.2,1055.0 789.7,1026.2 731.3,994.3 670.8,958.8 608.1,919.4  A 1064.250,1064.250 0.00 0,0 593.9,941.7 L 593.9,941.7 657.5,979.6 718.9,1013.6 778.1,1044.1 835.3,1071.4 890.5,1095.9 943.9,1117.8 995.5,1137.4 1045.5,1155.1 1094.0,1171.0 1141.0,1185.4 1186.8,1198.5 1231.5,1210.5 1275.1,1221.5 1317.8,1231.7 1359.7,1241.3 1401.0,1250.3 1441.8,1259.0 1482.3,1267.3 1522.6,1275.3 1562.9,1283.1 1603.2,1290.7 1643.9,1298.1 1685.0,1305.3 1726.7,1312.3 1769.2,1319.1 1812.6,1325.5 1857.2,1331.6 1903.0,1337.1 1950.4,1342.0 1999.4,1346.3 2050.3,1349.6 2103.3,1351.8 2158.5,1352.9 2216.2,1352.4 2276.6,1350.3 2339.8,1346.3 2406.2,1340.1 2475.8,1331.5 2548.9,1320.1  Z" style="stroke-width: 2.0;  stroke: rgb(82,82,82); fill: rgb(255,0,0); opacity: 0.667;" />
<path d="M 581.632,2037.799 A 1064.250,1064.250 0.00 0,1 579.5,2034.2 L 579.5,2034.2 642.8,1997.3 701.0,1962.9 754.6,1930.8 803.7,1901.0 848.5,1873.3 889.3,1847.5 926.2,1823.7 959.5,1801.7 989.2,1781.5 1015.6,1762.8 1038.7,1745.7 1058.7,1730.1 1075.7,1715.9 1089.7,1703.0 1101.0,1691.5 1109.4,1681.1 1115.1,1672.0 1118.1,1664.0 1118.5,1657.1 1116.2,1651.3 1111.1,1646.6 1103.4,1642.9 1093.0,1640.3 1079.7,1638.7 1063.6,1638.1 1044.5,1638.6 1022.4,1640.2 997.2,1642.8 968.7,1646.5 936.8,1651.3 901.3,1657.3 862.1,1664.5 819.0,1673.0 771.7,1682.7 720.2,1693.8 664.2,1706.3 603.3,1720.4 537.5,1736.0 466.3,1753.2  A 1064.250,1064.250 0.00 0,0 467.2,1756.6 L 467.2,1756.6 538.3,1739.2 604.1,1723.3 664.8,1709.1 720.9,1696.4 772.4,1685.1 819.5,1675.2 862.6,1666.6 901.8,1659.3 937.3,1653.2 969.2,1648.3 997.7,1644.5 1022.9,1641.8 1045.0,1640.2 1064.1,1639.6 1080.2,1640.2 1093.5,1641.7 1103.9,1644.3 1111.7,1648.0 1116.7,1652.7 1119.1,1658.5 1118.8,1665.4 1115.8,1673.4 1110.1,1682.6 1101.7,1692.9 1090.5,1704.6 1076.5,1717.5 1059.6,1731.8 1039.6,1747.5 1016.6,1764.7 990.3,1783.4 960.6,1803.8 927.5,1826.0 890.7,1849.9 850.0,1875.8 805.3,1903.7 756.3,1933.7 702.9,1966.0 644.7,2000.6 581.6,2037.8  Z" style="stroke-width: 2.0;  stroke: rgb(82,82,82); fill: rgb(255,0,204); opacity: 0.667;" />
<path d="M 1436.191,2562.335 A 1064.250,1064.250 0.00 0,1 1433.0,2562.1 L 1433.0,2562.1 1438.6,2488.8 1445.5,2420.2 1453.6,2356.3 1463.0,2296.6 1473.4,2240.8 1484.8,2188.8 1497.1,2140.3 1510.3,2095.0 1524.3,2052.6 1539.1,2013.1 1554.7,1976.0 1571.0,1941.4 1588.1,1908.9 1605.9,1878.5 1624.6,1849.9 1644.0,1823.0 1664.3,1797.7 1685.6,1773.8 1707.8,1751.4 1731.1,1730.1 1755.5,1710.1 1781.2,1691.2 1808.3,1673.3 1836.8,1656.4 1867.0,1640.5 1899.0,1625.6 1932.9,1611.5 1968.9,1598.5 2007.2,1586.4 2048.0,1575.3 2091.5,1565.3 2137.8,1556.3 2187.3,1548.6 2240.1,1542.0 2296.6,1536.8 2356.9,1533.0 2421.3,1530.8 2490.2,1530.3 2563.8,1531.6  A 1064.250,1064.250 0.00 0,0 2563.9,1528.4 L 2563.9,1528.4 2490.3,1527.4 2421.4,1528.1 2357.0,1530.5 2296.7,1534.5 2240.3,1539.8 2187.4,1546.5 2138.0,1554.5 2091.7,1563.5 2048.2,1573.7 2007.5,1584.9 1969.2,1597.1 1933.3,1610.3 1899.4,1624.4 1867.5,1639.4 1837.3,1655.4 1808.8,1672.4 1781.8,1690.3 1756.1,1709.3 1731.7,1729.5 1708.5,1750.7 1686.4,1773.3 1665.2,1797.2 1645.0,1822.6 1625.6,1849.5 1607.1,1878.2 1589.3,1908.7 1572.3,1941.2 1556.1,1975.9 1540.6,2012.9 1525.9,2052.6 1512.1,2094.9 1499.0,2140.3 1486.8,2188.9 1475.6,2240.9 1465.3,2296.7 1456.2,2356.4 1448.2,2420.4 1441.5,2488.9 1436.2,2562.3  Z" style="stroke-width: 2.0;  stroke: rgb(82,82,82); fill: rgb(255,204,204); opacity: 0.667;" />
<path d="M 1276.340,459.517 A 1064.250,1064.250 0.00 0,1 1286.1,457.5 L 1286.1,457.5 1302.2,530.0 1319.7,598.7 1338.4,663.8 1358.0,725.6 1378.4,784.4 1399.1,840.4 1420.2,893.9 1441.3,945.2 1462.4,994.4 1483.3,1041.8 1503.8,1087.7 1524.0,1132.2 1543.6,1175.5 1562.6,1217.9 1580.9,1259.5 1598.6,1300.6 1615.6,1341.3 1631.9,1381.8 1647.6,1422.3 1662.6,1463.0 1677.0,1503.9 1691.0,1545.3 1704.6,1587.3 1717.9,1630.0 1731.0,1673.6 1744.2,1718.1 1757.5,1763.8 1771.1,1810.7 1785.3,1858.9 1800.3,1908.4 1816.3,1959.5 1833.6,2012.2 1852.4,2066.6 1873.1,2122.6 1895.9,2180.5 1921.2,2240.2 1949.4,2301.9 1980.7,2365.4 2015.7,2431.0  A 1064.250,1064.250 0.00 0,0 2024.3,2426.1 L 2024.3,2426.1 1988.8,2360.9 1956.8,2297.6 1928.1,2236.3 1902.3,2176.8 1878.9,2119.1 1857.7,2063.3 1838.4,2009.1 1820.6,1956.6 1804.1,1905.6 1788.7,1856.2 1774.0,1808.1 1759.9,1761.4 1746.2,1715.9 1732.6,1671.4 1719.1,1628.0 1705.4,1585.4 1691.4,1543.5 1677.1,1502.3 1662.2,1461.5 1646.8,1421.0 1630.8,1380.6 1614.1,1340.3 1596.7,1299.7 1578.7,1258.8 1559.9,1217.3 1540.5,1175.1 1520.5,1131.9 1500.0,1087.7 1479.0,1042.0 1457.7,994.8 1436.2,945.8 1414.5,894.7 1393.0,841.4 1371.7,785.6 1350.8,727.0 1330.6,665.3 1311.3,600.4 1293.1,531.9 1276.3,459.5  Z" style="stroke-width: 2.0;  stroke: rgb(82,82,82); fill: rgb(255,153,0); opacity: 0.667;" />
<path d="M 1115.949,507.461 A 1064.250,1064.250 0.00 0,1 1134.0,500.6 L 1134.0,500.6 1160.7,570.0 1188.2,635.3 1216.4,696.9 1244.9,755.1 1273.7,810.2 1302.6,862.5 1331.3,912.3 1359.8,959.9 1388.0,1005.4 1415.6,1049.1 1442.8,1091.4 1469.3,1132.3 1495.1,1172.3 1520.2,1211.3 1544.6,1249.7 1568.2,1287.7 1591.1,1325.4 1613.3,1363.0 1634.8,1400.7 1655.8,1438.6 1676.3,1476.8 1696.3,1515.6 1716.1,1555.0 1735.7,1595.2 1755.3,1636.3 1775.0,1678.3 1795.1,1721.4 1815.8,1765.6 1837.1,1811.0 1859.5,1857.7 1883.1,1905.8 1908.2,1955.2 1935.1,2006.0 1964.1,2058.2 1995.5,2111.9 2029.7,2167.0 2066.9,2223.6 2107.6,2281.6 2152.2,2341.0  A 1064.250,1064.250 0.00 0,0 2167.3,2329.0 L 2167.3,2329.0 2121.7,2270.4 2079.9,2213.2 2041.7,2157.3 2006.5,2102.8 1974.2,2049.7 1944.2,1998.0 1916.4,1947.7 1890.4,1898.7 1865.9,1851.2 1842.7,1804.9 1820.5,1759.8 1799.1,1716.0 1778.2,1673.3 1757.7,1631.6 1737.4,1590.9 1717.1,1551.1 1696.6,1512.0 1675.8,1473.6 1654.7,1435.7 1633.0,1398.2 1610.8,1360.9 1587.9,1323.8 1564.3,1286.5 1540.0,1249.0 1514.9,1211.0 1489.1,1172.4 1462.6,1133.0 1435.3,1092.5 1407.5,1050.7 1379.0,1007.5 1350.0,962.5 1320.7,915.5 1291.0,866.2 1261.2,814.5 1231.4,759.9 1201.8,702.2 1172.6,641.1 1143.9,576.3 1115.9,507.5  Z" style="stroke-width: 2.0;  stroke: rgb(82,82,82); fill: rgb(255,204,0); opacity: 0.667;" />
<path d="M 1186.927,482.841 A 1064.250,1064.250 0.00 0,1 1207.9,476.6 L 1207.9,476.6 1229.4,547.7 1252.1,614.8 1275.7,678.3 1299.9,738.5 1324.6,795.6 1349.6,849.8 1374.6,901.6 1399.6,951.1 1424.3,998.5 1448.7,1044.2 1472.7,1088.3 1496.2,1131.1 1519.0,1172.7 1541.2,1213.5 1562.7,1253.6 1583.5,1293.2 1603.6,1332.4 1623.0,1371.5 1641.8,1410.7 1659.9,1450.0 1677.6,1489.7 1694.7,1529.8 1711.6,1570.6 1728.2,1612.1 1744.8,1654.4 1761.4,1697.8 1778.3,1742.2 1795.7,1787.8 1813.7,1834.6 1832.7,1882.8 1852.7,1932.5 1874.2,1983.5 1897.3,2036.2 1922.5,2090.3 1949.9,2146.2 1980.0,2203.6 2013.0,2262.7 2049.4,2323.5 2089.6,2386.0  A 1064.250,1064.250 0.00 0,0 2107.6,2373.7 L 2107.6,2373.7 2066.2,2312.1 2028.6,2252.0 1994.3,2193.6 1963.1,2136.8 1934.5,2081.5 1908.3,2027.9 1884.1,1975.7 1861.5,1925.1 1840.5,1875.9 1820.6,1828.1 1801.6,1781.6 1783.3,1736.4 1765.5,1692.4 1747.9,1649.4 1730.5,1607.3 1713.0,1566.2 1695.3,1525.8 1677.3,1486.0 1658.9,1446.7 1639.9,1407.8 1620.4,1369.0 1600.1,1330.3 1579.2,1291.5 1557.6,1252.4 1535.3,1212.7 1512.3,1172.4 1488.6,1131.2 1464.3,1088.9 1439.4,1045.3 1414.0,1000.2 1388.3,953.2 1362.3,904.3 1336.2,853.1 1310.2,799.3 1284.3,742.8 1258.8,683.1 1234.0,620.1 1209.9,553.5 1186.9,482.8  Z" style="stroke-width: 2.0;  stroke: rgb(82,82,82); fill: rgb(255,255,0); opacity: 0.667;" />
<path d="M 1585.494,439.190 A 1064.250,1064.250 0.00 0,1 1853.3,496.1 L 1853.3,496.1 1827.5,565.8 1800.8,631.6 1773.4,693.7 1745.5,752.5 1717.3,808.3 1689.1,861.3 1661.0,911.8 1633.2,960.1 1605.7,1006.5 1578.7,1051.1 1552.4,1094.2 1526.7,1136.1 1501.8,1177.0 1477.7,1217.0 1454.5,1256.4 1432.0,1295.4 1410.5,1334.1 1389.7,1372.8 1369.8,1411.5 1350.5,1450.6 1331.9,1490.0 1313.9,1530.0 1296.3,1570.7 1279.1,1612.3 1262.0,1654.7 1244.9,1698.2 1227.7,1742.8 1210.1,1788.7 1191.9,1835.9 1173.0,1884.4 1153.0,1934.4 1131.6,1986.0 1108.7,2039.0 1083.8,2093.7 1056.7,2150.0 1027.0,2207.9 994.5,2267.5 958.6,2328.8 919.0,2391.7  A 1064.250,1064.250 0.00 0,0 1161.8,2509.1 L 1161.8,2509.1 1184.3,2438.3 1203.6,2370.0 1220.2,2304.1 1234.3,2240.6 1246.4,2179.3 1256.7,2120.2 1265.6,2063.0 1273.2,2007.8 1280.0,1954.4 1286.2,1902.6 1291.8,1852.4 1297.3,1803.6 1302.7,1756.1 1308.3,1709.8 1314.1,1664.4 1320.3,1619.9 1327.0,1576.1 1334.3,1532.8 1342.3,1489.9 1351.0,1447.3 1360.5,1404.7 1370.8,1362.1 1381.8,1319.2 1393.6,1275.8 1406.1,1231.8 1419.2,1187.0 1432.9,1141.1 1447.1,1094.1 1461.5,1045.7 1476.2,995.7 1491.0,943.9 1505.6,890.1 1519.9,834.1 1533.7,775.7 1546.6,714.6 1558.6,650.6 1569.3,583.6 1578.3,513.2 1585.5,439.2  Z" style="stroke-width: 2.0;  stroke: rgb(82,82,82); fill: rgb(204,255,0); opacity: 0.667;" />
<path d="M 2507.824,1158.066 A 1064.250,1064.250 0.00 0,1 2508.8,1161.0 L 2508.8,1161.0 2438.1,1183.5 2370.0,1202.9 2304.4,1219.4 2241.3,1233.4 2180.5,1245.3 2121.8,1255.3 2065.2,1263.9 2010.5,1271.1 1957.6,1277.3 1906.4,1282.8 1856.7,1287.6 1808.3,1292.1 1761.3,1296.4 1715.2,1300.7 1670.2,1305.0 1625.9,1309.6 1582.3,1314.4 1539.1,1319.7 1496.3,1325.5 1453.6,1331.7 1410.9,1338.5 1368.0,1345.8 1324.8,1353.6 1281.1,1361.9 1236.7,1370.7 1191.4,1379.8 1145.0,1389.1 1097.4,1398.7 1048.4,1408.3 997.8,1417.7 945.3,1426.9 890.8,1435.6 834.2,1443.7 775.1,1450.9 713.4,1456.9 648.9,1461.5 581.4,1464.5 510.6,1465.5 436.4,1464.2  A 1064.250,1064.250 0.00 0,0 436.3,1467.3 L 436.3,1467.3 510.5,1468.4 581.3,1467.2 648.8,1464.0 713.3,1459.2 775.0,1453.0 834.0,1445.7 890.7,1437.4 945.1,1428.5 997.5,1419.2 1048.1,1409.6 1097.1,1399.9 1144.7,1390.2 1191.0,1380.7 1236.3,1371.4 1280.7,1362.6 1324.4,1354.1 1367.6,1346.2 1410.4,1338.7 1453.1,1331.8 1495.8,1325.5 1538.6,1319.6 1581.7,1314.2 1625.3,1309.2 1669.6,1304.5 1714.7,1300.0 1760.7,1295.6 1807.7,1291.2 1856.1,1286.6 1905.8,1281.6 1957.0,1276.0 2009.8,1269.6 2064.5,1262.2 2121.1,1253.5 2179.7,1243.3 2240.5,1231.2 2303.6,1217.0 2369.1,1200.3 2437.1,1180.8 2507.8,1158.1  Z" style="stroke-width: 2.0;  stroke: rgb(82,82,82); fill: rgb(0,255,0); opacity: 0.667;" />
<path d="M 1440.459,437.417 A 1064.250,1064.250 0.00 0,1 1444.4,437.2 L 1444.4,437.2 1449.5,511.3 1456.5,581.8 1465.3,648.9 1475.5,712.9 1486.8,774.0 1498.9,832.4 1511.8,888.4 1525.1,942.1 1538.6,993.8 1552.2,1043.7 1565.8,1092.0 1579.1,1138.9 1592.2,1184.5 1604.8,1229.1 1616.9,1272.9 1628.5,1316.1 1639.5,1358.7 1649.8,1401.1 1659.6,1443.4 1668.7,1485.7 1677.3,1528.2 1685.4,1571.0 1693.0,1614.4 1700.3,1658.5 1707.3,1703.4 1714.3,1749.2 1721.3,1796.2 1728.5,1844.4 1736.1,1893.9 1744.3,1945.0 1753.3,1997.7 1763.4,2052.1 1774.8,2108.4 1787.9,2166.6 1802.8,2226.9 1820.0,2289.4 1839.8,2354.1 1862.5,2421.3 1888.4,2490.8  A 1064.250,1064.250 0.00 0,0 1892.1,2489.4 L 1892.1,2489.4 1865.9,2419.9 1842.9,2352.9 1822.9,2288.2 1805.5,2225.8 1790.3,2165.5 1777.1,2107.3 1765.4,2051.1 1755.1,1996.7 1745.9,1944.1 1737.5,1893.1 1729.7,1843.5 1722.4,1795.3 1715.2,1748.4 1708.1,1702.6 1700.9,1657.7 1693.4,1613.7 1685.6,1570.3 1677.4,1527.5 1668.7,1485.0 1659.4,1442.8 1649.5,1400.6 1638.9,1358.2 1627.8,1315.6 1616.1,1272.5 1603.8,1228.8 1591.0,1184.2 1577.8,1138.6 1564.3,1091.8 1550.5,1043.5 1536.7,993.7 1523.0,942.1 1509.5,888.4 1496.5,832.5 1484.1,774.1 1472.5,713.0 1462.1,649.1 1453.1,582.0 1445.8,511.5 1440.5,437.4  Z" style="stroke-width: 2.0;  stroke: rgb(82,82,82); fill: rgb(53,128,0); opacity: 0.667;" />
<path d="M 2402.716,936.323 A 1064.250,1064.250 0.00 0,1 2404.6,939.4 L 2404.6,939.4 2340.9,977.5 2279.1,1011.8 2219.1,1042.8 2161.0,1070.9 2104.6,1096.3 2049.9,1119.3 1996.9,1140.4 1945.4,1159.8 1895.5,1177.7 1847.0,1194.5 1799.8,1210.3 1753.9,1225.4 1709.0,1240.0 1665.3,1254.2 1622.4,1268.3 1580.3,1282.3 1538.9,1296.5 1498.1,1310.9 1457.6,1325.6 1417.3,1340.7 1377.1,1356.2 1336.9,1372.3 1296.4,1388.8 1255.4,1405.9 1213.9,1423.5 1171.5,1441.5 1128.2,1460.0 1083.6,1478.8 1037.7,1497.9 990.1,1517.2 940.7,1536.5 889.2,1555.8 835.4,1574.7 779.0,1593.3 719.8,1611.3 657.6,1628.4 592.0,1644.4 522.8,1659.2 449.8,1672.4  A 1064.250,1064.250 0.00 0,0 450.4,1676.0 L 450.4,1676.0 523.4,1662.5 592.5,1647.5 658.0,1631.3 720.2,1613.9 779.3,1595.8 835.6,1577.0 889.4,1557.8 940.8,1538.4 990.2,1518.9 1037.7,1499.5 1083.6,1480.3 1128.0,1461.3 1171.3,1442.6 1213.6,1424.5 1255.1,1406.7 1296.0,1389.5 1336.4,1372.8 1376.6,1356.7 1416.8,1341.0 1457.0,1325.7 1497.4,1310.9 1538.2,1296.4 1579.6,1282.1 1621.6,1267.9 1664.4,1253.7 1708.2,1239.3 1752.9,1224.5 1798.8,1209.3 1845.9,1193.3 1894.4,1176.4 1944.3,1158.3 1995.7,1138.7 2048.6,1117.5 2103.2,1094.2 2159.5,1068.6 2217.6,1040.4 2277.4,1009.2 2339.1,974.6 2402.7,936.3  Z" style="stroke-width: 2.0;  stroke: rgb(82,82,82); fill: rgb(0,0,204); opacity: 0.667;" />
</g>
<defs>
<pattern id="hline-sparse" width="10" height="10" patternTransform="rotate(0 0 0)" patternUnits="userSpaceOnUse"><line x1="0" y1="0" x2="10" y2="0" style="stroke:black;stroke-width:2" /></pattern>
<pattern id="checker" width="10" height="10" patternTransform="rotate(45 0 0)" patternUnits="userSpaceOnUse"><line x1="0" y1="0" x2="10" y2="0" style="stroke:black;stroke-width:2" /><line x1="0" y1="0" x2="0" y2="10" style="stroke:black;stroke-width:2" /></pattern>
<pattern id="checker" width="10" height="10" patternTransform="rotate(45 0 0)" patternUnits="userSpaceOnUse"><line x1="0" y1="0" x2="10" y2="0" style="stroke:black;stroke-width:5" /><line x1="0" y1="0" x2="0" y2="10" style="stroke:black;stroke-width:4" /></pattern>
<pattern id="hline" width="10" height="10" patternTransform="rotate(0 0 0)" patternUnits="userSpaceOnUse"><line x1="0" y1="0" x2="10" y2="0" style="stroke:black;stroke-width:5" /></pattern>
<pattern id="vline-sparse" width="10" height="10" patternTransform="rotate(0 0 0)" patternUnits="userSpaceOnUse"><line x1="0" y1="0" x2="0" y2="10" style="stroke:black;stroke-width:2" /></pattern>
<pattern id="vline" width="10" height="10" patternTransform="rotate(0 0 0)" patternUnits="userSpaceOnUse"><line x1="0" y1="0" x2="0" y2="10" style="stroke:black;stroke-width:5" /></pattern>
</defs>
</svg>
