<?xml version="1.0" encoding="utf-8" standalone="no"?>
<!DOCTYPE svg PUBLIC "-//W3C//DTD SVG 1.1//EN" "http://www.w3.org/Graphics/SVG/1.1/DTD/svg11.dtd">
<svg width="3000px" height="3000px" version="1.1" xmlns="http://www.w3.org/2000/svg" xmlns:xlink="http://www.w3.org/1999/xlink">
<g id="ideograms">
<path d="M1500.000,425.000 A1075.000,1075.000 40.000 0,1 1773.173,460.288 L1785.879,411.929 A1125.000,1125.000 0.000 0,0 1500.000,375.000 Z" style="stroke-linecap:round;fill:rgb(116,196,118);fill-opacity:0.33;" />
<text x="1665.1" y="296.3" font-size="18.2px" font-family="CMUBright-Roman" style="text-anchor:start;fill:rgb(0,0,0);" transform="rotate(277.4,1665.1,296.3)" >R<tspan baseline-shift="-40%" font-size="90%">s</tspan>caffold<tspan baseline-shift="-40%" font-size="90%">7</tspan></text>
<line x1='1500.0' y1='375.0' x2='1500.0' y2='355.0' style="stroke-width:4.0;stroke:rgb(0,0,0);stroke-linecap:round;fill:none;" />
<text x="1506.5" y="345.0" font-size="18.2px" font-family="CMUBright-Roman" style="text-anchor:start;fill:rgb(0,0,0);" transform="rotate(270.0,1506.5,345.0)" >0</text>
<line x1='1562.0' y1='376.7' x2='1563.1' y2='356.7' style="stroke-width:4.0;stroke:rgb(0,0,0);stroke-linecap:round;fill:none;" />
<text x="1570.1" y="347.1" font-size="18.2px" font-family="CMUBright-Roman" style="text-anchor:start;fill:rgb(0,0,0);" transform="rotate(273.2,1570.1,347.1)" >50</text>
<line x1='1623.7' y1='381.8' x2='1625.9' y2='361.9' style="stroke-width:4.0;stroke:rgb(0,0,0);stroke-linecap:round;fill:none;" />
<text x="1633.5" y="352.7" font-size="18.2px" font-family="CMUBright-Roman" style="text-anchor:start;fill:rgb(0,0,0);" transform="rotate(276.3,1633.5,352.7)" >100</text>
<line x1='1685.1' y1='390.3' x2='1688.4' y2='370.6' style="stroke-width:4.0;stroke:rgb(0,0,0);stroke-linecap:round;fill:none;" />
<text x="1696.5" y="361.8" font-size="18.2px" font-family="CMUBright-Roman" style="text-anchor:start;fill:rgb(0,0,0);" transform="rotate(279.5,1696.5,361.8)" >150</text>
<line x1='1746.0' y1='402.2' x2='1750.4' y2='382.7' style="stroke-width:4.0;stroke:rgb(0,0,0);stroke-linecap:round;fill:none;" />
<text x="1758.9" y="374.4" font-size="18.2px" font-family="CMUBright-Roman" style="text-anchor:start;fill:rgb(0,0,0);" transform="rotate(282.6,1758.9,374.4)" >200</text>
<g id="highlighttrack_0">
<path d="M1737.879,451.650 A1075.000,1075.000 40.000 0,1 1741.434,452.463 L1752.664,403.740 A1125.000,1125.000 0.000 0,0 1748.943,402.889 Z" style="stroke-width:4.0;stroke:rgb(0,0,0);stroke-linecap:round;fill:rgb(116,196,118);" />
<path d="M1747.326,453.838 A1075.000,1075.000 40.000 0,1 1753.500,455.317 L1765.291,406.727 A1125.000,1125.000 0.000 0,0 1758.829,405.179 Z" style="stroke-width:4.0;stroke:rgb(0,0,0);stroke-linecap:round;fill:rgb(116,196,118);" />
</g>
<path d="M1833.720,478.112 A1075.000,1075.000 40.000 0,1 2006.043,551.556 L2029.579,507.442 A1125.000,1125.000 0.000 0,0 1849.242,430.582 Z" style="stroke-linecap:round;fill:rgb(116,196,118);fill-opacity:0.33;" />
<text x="1985.1" y="386.0" font-size="18.2px" font-family="CMUBright-Roman" style="text-anchor:start;fill:rgb(0,0,0);" transform="rotate(293.1,1985.1,386.0)" >R<tspan baseline-shift="-40%" font-size="90%">s</tspan>caffold<tspan baseline-shift="-40%" font-size="90%">1</tspan>2</text>
<line x1='1849.2' y1='430.6' x2='1855.5' y2='411.6' style="stroke-width:4.0;stroke:rgb(0,0,0);stroke-linecap:round;fill:none;" />
<text x="1864.7" y="404.1" font-size="18.2px" font-family="CMUBright-Roman" style="text-anchor:start;fill:rgb(0,0,0);" transform="rotate(288.1,1864.7,404.1)" >0</text>
<line x1='1907.6' y1='451.4' x2='1914.9' y2='432.8' style="stroke-width:4.0;stroke:rgb(0,0,0);stroke-linecap:round;fill:none;" />
<text x="1924.5" y="425.9" font-size="18.2px" font-family="CMUBright-Roman" style="text-anchor:start;fill:rgb(0,0,0);" transform="rotate(291.2,1924.5,425.9)" >50</text>
<line x1='1964.8' y1='475.5' x2='1973.0' y2='457.3' style="stroke-width:4.0;stroke:rgb(0,0,0);stroke-linecap:round;fill:none;" />
<text x="1983.1" y="450.9" font-size="18.2px" font-family="CMUBright-Roman" style="text-anchor:start;fill:rgb(0,0,0);" transform="rotate(294.4,1983.1,450.9)" >100</text>
<line x1='2020.5' y1='502.6' x2='2029.7' y2='484.9' style="stroke-width:4.0;stroke:rgb(0,0,0);stroke-linecap:round;fill:none;" />
<text x="2040.1" y="479.1" font-size="18.2px" font-family="CMUBright-Roman" style="text-anchor:start;fill:rgb(0,0,0);" transform="rotate(297.6,2040.1,479.1)" >150</text>
<g id="highlighttrack_0">
<path d="M2002.478,549.663 A1075.000,1075.000 40.000 0,1 2005.213,551.114 L2028.712,506.980 A1125.000,1125.000 0.000 0,0 2025.849,505.461 Z" style="stroke-width:4.0;stroke:rgb(0,0,0);stroke-linecap:round;fill:rgb(116,196,118);" />
</g>
<path d="M2060.832,582.889 A1075.000,1075.000 40.000 0,1 2087.903,600.003 L2115.248,558.143 A1125.000,1125.000 0.000 0,0 2086.918,540.233 Z" style="stroke-linecap:round;fill:rgb(116,196,118);fill-opacity:0.33;" />
<text x="2157.3" y="478.1" font-size="18.2px" font-family="CMUBright-Roman" style="text-anchor:start;fill:rgb(0,0,0);" transform="rotate(302.3,2157.3,478.1)" >R<tspan baseline-shift="-40%" font-size="90%">s</tspan>caffold<tspan baseline-shift="-40%" font-size="90%">2</tspan>6</text>
<line x1='2086.9' y1='540.2' x2='2097.4' y2='523.2' style="stroke-width:4.0;stroke:rgb(0,0,0);stroke-linecap:round;fill:none;" />
<text x="2108.1" y="518.0" font-size="18.2px" font-family="CMUBright-Roman" style="text-anchor:start;fill:rgb(0,0,0);" transform="rotate(301.4,2108.1,518.0)" >0</text>
<g id="highlighttrack_0">
<path d="M2066.828,586.583 A1075.000,1075.000 40.000 0,1 2072.220,589.951 L2098.834,547.623 A1125.000,1125.000 0.000 0,0 2093.192,544.099 Z" style="stroke-width:4.0;stroke:rgb(0,0,0);stroke-linecap:round;fill:rgb(116,196,118);" />
</g>
<path d="M2139.709,636.057 A1075.000,1075.000 40.000 0,1 2163.923,654.523 L2194.803,615.199 A1125.000,1125.000 0.000 0,0 2169.462,595.873 Z" style="stroke-linecap:round;fill:rgb(116,196,118);fill-opacity:0.33;" />
<text x="2244.3" y="539.7" font-size="18.2px" font-family="CMUBright-Roman" style="text-anchor:start;fill:rgb(0,0,0);" transform="rotate(307.3,2244.3,539.7)" >R<tspan baseline-shift="-40%" font-size="90%">s</tspan>caffold<tspan baseline-shift="-40%" font-size="90%">2</tspan>7</text>
<line x1='2169.5' y1='595.9' x2='2181.4' y2='579.8' style="stroke-width:4.0;stroke:rgb(0,0,0);stroke-linecap:round;fill:none;" />
<text x="2192.5" y="575.6" font-size="18.2px" font-family="CMUBright-Roman" style="text-anchor:start;fill:rgb(0,0,0);" transform="rotate(306.5,2192.5,575.6)" >0</text>
<g id="highlighttrack_0">
<path d="M2155.881,648.270 A1075.000,1075.000 40.000 0,1 2157.812,649.759 L2188.407,610.213 A1125.000,1125.000 0.000 0,0 2186.387,608.654 Z" style="stroke-width:4.0;stroke:rgb(0,0,0);stroke-linecap:round;fill:rgb(116,196,118);" />
</g>
<path d="M2212.398,694.944 A1075.000,1075.000 40.000 0,1 2291.346,772.404 L2328.153,738.562 A1125.000,1125.000 0.000 0,0 2245.532,657.500 Z" style="stroke-linecap:round;fill:rgb(116,196,118);fill-opacity:0.33;" />
<text x="2357.7" y="639.4" font-size="18.2px" font-family="CMUBright-Roman" style="text-anchor:start;fill:rgb(0,0,0);" transform="rotate(314.5,2357.7,639.4)" >R<tspan baseline-shift="-40%" font-size="90%">s</tspan>caffold<tspan baseline-shift="-40%" font-size="90%">1</tspan>9</text>
<line x1='2245.5' y1='657.5' x2='2258.8' y2='642.5' style="stroke-width:4.0;stroke:rgb(0,0,0);stroke-linecap:round;fill:none;" />
<text x="2270.3" y="639.4" font-size="18.2px" font-family="CMUBright-Roman" style="text-anchor:start;fill:rgb(0,0,0);" transform="rotate(311.5,2270.3,639.4)" >0</text>
<line x1='2290.8' y1='699.8' x2='2304.9' y2='685.6' style="stroke-width:4.0;stroke:rgb(0,0,0);stroke-linecap:round;fill:none;" />
<text x="2316.5" y="683.1" font-size="18.2px" font-family="CMUBright-Roman" style="text-anchor:start;fill:rgb(0,0,0);" transform="rotate(314.7,2316.5,683.1)" >50</text>
<g id="highlighttrack_0">
<path d="M2225.698,706.913 A1075.000,1075.000 40.000 0,1 2228.220,709.228 L2262.091,672.448 A1125.000,1125.000 0.000 0,0 2259.452,670.025 Z" style="stroke-width:4.0;stroke:rgb(0,0,0);stroke-linecap:round;fill:rgb(116,196,118);" />
</g>
<path d="M2332.683,820.100 A1075.000,1075.000 40.000 0,1 2335.328,823.352 L2374.180,791.880 A1125.000,1125.000 0.000 0,0 2371.413,788.477 Z" style="stroke-linecap:round;fill:rgb(116,196,118);fill-opacity:0.33;" />
<text x="2448.6" y="740.8" font-size="18.2px" font-family="CMUBright-Roman" style="text-anchor:start;fill:rgb(0,0,0);" transform="rotate(320.9,2448.6,740.8)" >R<tspan baseline-shift="-40%" font-size="90%">s</tspan>caffold<tspan baseline-shift="-40%" font-size="90%">3</tspan>4</text>
<line x1='2371.4' y1='788.5' x2='2386.9' y2='775.8' style="stroke-width:4.0;stroke:rgb(0,0,0);stroke-linecap:round;fill:none;" />
<text x="2398.7" y="774.5" font-size="18.2px" font-family="CMUBright-Roman" style="text-anchor:start;fill:rgb(0,0,0);" transform="rotate(320.8,2398.7,774.5)" >0</text>
<g id="highlighttrack_0">
<path d="M2332.684,820.101 A1075.000,1075.000 40.000 0,1 2335.324,823.347 L2374.176,791.875 A1125.000,1125.000 0.000 0,0 2371.413,788.478 Z" style="stroke-width:4.0;stroke:rgb(0,0,0);stroke-linecap:round;fill:rgb(116,196,118);" />
</g>
<path d="M2373.599,873.542 A1075.000,1075.000 40.000 1,1 1436.911,426.853 L1433.976,376.939 A1125.000,1125.000 0.000 1,0 2414.232,844.404 Z" style="stroke-linecap:round;fill:rgb(116,196,118);fill-opacity:0.33;" />
<text x="985.6" y="2600.7" font-size="18.2px" font-family="CMUBright-Roman" style="text-anchor:end;fill:rgb(0,0,0);" transform="rotate(-64.5,985.6,2600.7)" >NZ<tspan baseline-shift="-40%" font-size="90%">C</tspan>P018456.1</text>
<line x1='2414.2' y1='844.4' x2='2430.5' y2='832.7' style="stroke-width:4.0;stroke:rgb(0,0,0);stroke-linecap:round;fill:none;" />
<text x="2442.4" y="832.2" font-size="18.2px" font-family="CMUBright-Roman" style="text-anchor:start;fill:rgb(0,0,0);" transform="rotate(324.4,2442.4,832.2)" >0</text>
<line x1='2449.0' y1='895.8' x2='2465.8' y2='885.0' style="stroke-width:4.0;stroke:rgb(0,0,0);stroke-linecap:round;fill:none;" />
<text x="2477.7" y="885.1" font-size="18.2px" font-family="CMUBright-Roman" style="text-anchor:start;fill:rgb(0,0,0);" transform="rotate(327.5,2477.7,885.1)" >50</text>
<line x1='2480.8' y1='948.9' x2='2498.2' y2='939.1' style="stroke-width:4.0;stroke:rgb(0,0,0);stroke-linecap:round;fill:none;" />
<text x="2510.1" y="939.9" font-size="18.2px" font-family="CMUBright-Roman" style="text-anchor:start;fill:rgb(0,0,0);" transform="rotate(330.7,2510.1,939.9)" >100</text>
<line x1='2509.7' y1='1003.8' x2='2527.6' y2='995.0' style="stroke-width:4.0;stroke:rgb(0,0,0);stroke-linecap:round;fill:none;" />
<text x="2539.4" y="996.4" font-size="18.2px" font-family="CMUBright-Roman" style="text-anchor:start;fill:rgb(0,0,0);" transform="rotate(333.8,2539.4,996.4)" >150</text>
<line x1='2535.5' y1='1060.2' x2='2553.9' y2='1052.3' style="stroke-width:4.0;stroke:rgb(0,0,0);stroke-linecap:round;fill:none;" />
<text x="2565.6" y="1054.4" font-size="18.2px" font-family="CMUBright-Roman" style="text-anchor:start;fill:rgb(0,0,0);" transform="rotate(337.0,2565.6,1054.4)" >200</text>
<line x1='2558.1' y1='1117.9' x2='2576.9' y2='1111.1' style="stroke-width:4.0;stroke:rgb(0,0,0);stroke-linecap:round;fill:none;" />
<text x="2588.5" y="1113.8" font-size="18.2px" font-family="CMUBright-Roman" style="text-anchor:start;fill:rgb(0,0,0);" transform="rotate(340.1,2588.5,1113.8)" >250</text>
<line x1='2577.6' y1='1176.7' x2='2596.7' y2='1171.0' style="stroke-width:4.0;stroke:rgb(0,0,0);stroke-linecap:round;fill:none;" />
<text x="2608.1" y="1174.3" font-size="18.2px" font-family="CMUBright-Roman" style="text-anchor:start;fill:rgb(0,0,0);" transform="rotate(343.3,2608.1,1174.3)" >300</text>
<line x1='2593.7' y1='1236.6' x2='2613.2' y2='1231.9' style="stroke-width:4.0;stroke:rgb(0,0,0);stroke-linecap:round;fill:none;" />
<text x="2624.4" y="1235.9" font-size="18.2px" font-family="CMUBright-Roman" style="text-anchor:start;fill:rgb(0,0,0);" transform="rotate(346.5,2624.4,1235.9)" >350</text>
<line x1='2606.6' y1='1297.2' x2='2626.2' y2='1293.6' style="stroke-width:4.0;stroke:rgb(0,0,0);stroke-linecap:round;fill:none;" />
<text x="2637.2" y="1298.2" font-size="18.2px" font-family="CMUBright-Roman" style="text-anchor:start;fill:rgb(0,0,0);" transform="rotate(349.6,2637.2,1298.2)" >400</text>
<line x1='2616.1' y1='1358.5' x2='2635.9' y2='1356.0' style="stroke-width:4.0;stroke:rgb(0,0,0);stroke-linecap:round;fill:none;" />
<text x="2646.6" y="1361.1" font-size="18.2px" font-family="CMUBright-Roman" style="text-anchor:start;fill:rgb(0,0,0);" transform="rotate(352.8,2646.6,1361.1)" >450</text>
<line x1='2622.2' y1='1420.2' x2='2642.1' y2='1418.7' style="stroke-width:4.0;stroke:rgb(0,0,0);stroke-linecap:round;fill:none;" />
<text x="2652.5" y="1424.5" font-size="18.2px" font-family="CMUBright-Roman" style="text-anchor:start;fill:rgb(0,0,0);" transform="rotate(355.9,2652.5,1424.5)" >500</text>
<line x1='2624.9' y1='1482.1' x2='2644.9' y2='1481.8' style="stroke-width:4.0;stroke:rgb(0,0,0);stroke-linecap:round;fill:none;" />
<text x="2654.9" y="1488.1" font-size="18.2px" font-family="CMUBright-Roman" style="text-anchor:start;fill:rgb(0,0,0);" transform="rotate(359.1,2654.9,1488.1)" >550</text>
<line x1='2624.1' y1='1544.1' x2='2644.1' y2='1544.9' style="stroke-width:4.0;stroke:rgb(0,0,0);stroke-linecap:round;fill:none;" />
<text x="2653.8" y="1551.7" font-size="18.2px" font-family="CMUBright-Roman" style="text-anchor:start;fill:rgb(0,0,0);" transform="rotate(2.2,2653.8,1551.7)" >600</text>
<line x1='2620.0' y1='1605.9' x2='2639.9' y2='1607.8' style="stroke-width:4.0;stroke:rgb(0,0,0);stroke-linecap:round;fill:none;" />
<text x="2649.2" y="1615.2" font-size="18.2px" font-family="CMUBright-Roman" style="text-anchor:start;fill:rgb(0,0,0);" transform="rotate(5.4,2649.2,1615.2)" >650</text>
<line x1='2612.5' y1='1667.4' x2='2632.2' y2='1670.4' style="stroke-width:4.0;stroke:rgb(0,0,0);stroke-linecap:round;fill:none;" />
<text x="2641.1" y="1678.3" font-size="18.2px" font-family="CMUBright-Roman" style="text-anchor:start;fill:rgb(0,0,0);" transform="rotate(8.6,2641.1,1678.3)" >700</text>
<line x1='2601.6' y1='1728.5' x2='2621.1' y2='1732.5' style="stroke-width:4.0;stroke:rgb(0,0,0);stroke-linecap:round;fill:none;" />
<text x="2629.6" y="1740.9" font-size="18.2px" font-family="CMUBright-Roman" style="text-anchor:start;fill:rgb(0,0,0);" transform="rotate(11.7,2629.6,1740.9)" >750</text>
<line x1='2587.3' y1='1788.8' x2='2606.6' y2='1793.9' style="stroke-width:4.0;stroke:rgb(0,0,0);stroke-linecap:round;fill:none;" />
<text x="2614.6" y="1802.8" font-size="18.2px" font-family="CMUBright-Roman" style="text-anchor:start;fill:rgb(0,0,0);" transform="rotate(14.9,2614.6,1802.8)" >800</text>
<line x1='2569.7' y1='1848.2' x2='2588.8' y2='1854.4' style="stroke-width:4.0;stroke:rgb(0,0,0);stroke-linecap:round;fill:none;" />
<text x="2596.2" y="1863.7" font-size="18.2px" font-family="CMUBright-Roman" style="text-anchor:start;fill:rgb(0,0,0);" transform="rotate(18.0,2596.2,1863.7)" >850</text>
<line x1='2548.9' y1='1906.6' x2='2567.6' y2='1913.9' style="stroke-width:4.0;stroke:rgb(0,0,0);stroke-linecap:round;fill:none;" />
<text x="2574.5" y="1923.5" font-size="18.2px" font-family="CMUBright-Roman" style="text-anchor:start;fill:rgb(0,0,0);" transform="rotate(21.2,2574.5,1923.5)" >900</text>
<line x1='2524.9' y1='1963.8' x2='2543.2' y2='1972.0' style="stroke-width:4.0;stroke:rgb(0,0,0);stroke-linecap:round;fill:none;" />
<text x="2549.6" y="1982.1" font-size="18.2px" font-family="CMUBright-Roman" style="text-anchor:start;fill:rgb(0,0,0);" transform="rotate(24.3,2549.6,1982.1)" >950</text>
<line x1='2497.8' y1='2019.5' x2='2515.6' y2='2028.8' style="stroke-width:4.0;stroke:rgb(0,0,0);stroke-linecap:round;fill:none;" />
<text x="2521.4" y="2039.2" font-size="18.2px" font-family="CMUBright-Roman" style="text-anchor:start;fill:rgb(0,0,0);" transform="rotate(27.5,2521.4,2039.2)" >1000</text>
<line x1='2467.7' y1='2073.7' x2='2484.9' y2='2083.9' style="stroke-width:4.0;stroke:rgb(0,0,0);stroke-linecap:round;fill:none;" />
<text x="2490.2" y="2094.6" font-size="18.2px" font-family="CMUBright-Roman" style="text-anchor:start;fill:rgb(0,0,0);" transform="rotate(30.7,2490.2,2094.6)" >1050</text>
<line x1='2434.6' y1='2126.1' x2='2451.3' y2='2137.3' style="stroke-width:4.0;stroke:rgb(0,0,0);stroke-linecap:round;fill:none;" />
<text x="2455.9" y="2148.2" font-size="18.2px" font-family="CMUBright-Roman" style="text-anchor:start;fill:rgb(0,0,0);" transform="rotate(33.8,2455.9,2148.2)" >1100</text>
<line x1='2398.7' y1='2176.7' x2='2414.7' y2='2188.7' style="stroke-width:4.0;stroke:rgb(0,0,0);stroke-linecap:round;fill:none;" />
<text x="2418.8" y="2199.9" font-size="18.2px" font-family="CMUBright-Roman" style="text-anchor:start;fill:rgb(0,0,0);" transform="rotate(37.0,2418.8,2199.9)" >1150</text>
<line x1='2360.1' y1='2225.2' x2='2375.4' y2='2238.0' style="stroke-width:4.0;stroke:rgb(0,0,0);stroke-linecap:round;fill:none;" />
<text x="2378.8" y="2249.4" font-size="18.2px" font-family="CMUBright-Roman" style="text-anchor:start;fill:rgb(0,0,0);" transform="rotate(40.1,2378.8,2249.4)" >1200</text>
<line x1='2318.9' y1='2271.4' x2='2333.4' y2='2285.1' style="stroke-width:4.0;stroke:rgb(0,0,0);stroke-linecap:round;fill:none;" />
<text x="2336.2" y="2296.7" font-size="18.2px" font-family="CMUBright-Roman" style="text-anchor:start;fill:rgb(0,0,0);" transform="rotate(43.3,2336.2,2296.7)" >1250</text>
<line x1='2275.1' y1='2315.4' x2='2288.9' y2='2329.9' style="stroke-width:4.0;stroke:rgb(0,0,0);stroke-linecap:round;fill:none;" />
<text x="2291.1" y="2341.6" font-size="18.2px" font-family="CMUBright-Roman" style="text-anchor:start;fill:rgb(0,0,0);" transform="rotate(46.4,2291.1,2341.6)" >1300</text>
<line x1='2229.0' y1='2356.8' x2='2242.0' y2='2372.0' style="stroke-width:4.0;stroke:rgb(0,0,0);stroke-linecap:round;fill:none;" />
<text x="2243.5" y="2383.9" font-size="18.2px" font-family="CMUBright-Roman" style="text-anchor:start;fill:rgb(0,0,0);" transform="rotate(49.6,2243.5,2383.9)" >1350</text>
<line x1='2180.7' y1='2395.7' x2='2192.8' y2='2411.6' style="stroke-width:4.0;stroke:rgb(0,0,0);stroke-linecap:round;fill:none;" />
<text x="2193.7" y="2423.5" font-size="18.2px" font-family="CMUBright-Roman" style="text-anchor:start;fill:rgb(0,0,0);" transform="rotate(52.8,2193.7,2423.5)" >1400</text>
<line x1='2130.4' y1='2431.8' x2='2141.6' y2='2448.4' style="stroke-width:4.0;stroke:rgb(0,0,0);stroke-linecap:round;fill:none;" />
<text x="2141.8" y="2460.3" font-size="18.2px" font-family="CMUBright-Roman" style="text-anchor:start;fill:rgb(0,0,0);" transform="rotate(55.9,2141.8,2460.3)" >1450</text>
<line x1='2078.1' y1='2465.1' x2='2088.4' y2='2482.3' style="stroke-width:4.0;stroke:rgb(0,0,0);stroke-linecap:round;fill:none;" />
<text x="2087.9" y="2494.2" font-size="18.2px" font-family="CMUBright-Roman" style="text-anchor:start;fill:rgb(0,0,0);" transform="rotate(59.1,2087.9,2494.2)" >1500</text>
<line x1='2024.1' y1='2495.5' x2='2033.4' y2='2513.2' style="stroke-width:4.0;stroke:rgb(0,0,0);stroke-linecap:round;fill:none;" />
<text x="2032.3" y="2525.0" font-size="18.2px" font-family="CMUBright-Roman" style="text-anchor:start;fill:rgb(0,0,0);" transform="rotate(62.2,2032.3,2525.0)" >1550</text>
<line x1='1968.4' y1='2522.8' x2='1976.8' y2='2541.0' style="stroke-width:4.0;stroke:rgb(0,0,0);stroke-linecap:round;fill:none;" />
<text x="1975.0" y="2552.8" font-size="18.2px" font-family="CMUBright-Roman" style="text-anchor:start;fill:rgb(0,0,0);" transform="rotate(65.4,1975.0,2552.8)" >1600</text>
<line x1='1911.4' y1='2547.1' x2='1918.7' y2='2565.7' style="stroke-width:4.0;stroke:rgb(0,0,0);stroke-linecap:round;fill:none;" />
<text x="1916.3" y="2577.4" font-size="18.2px" font-family="CMUBright-Roman" style="text-anchor:start;fill:rgb(0,0,0);" transform="rotate(68.6,1916.3,2577.4)" >1650</text>
<line x1='1853.1' y1='2568.2' x2='1859.4' y2='2587.1' style="stroke-width:4.0;stroke:rgb(0,0,0);stroke-linecap:round;fill:none;" />
<text x="1856.3" y="2598.7" font-size="18.2px" font-family="CMUBright-Roman" style="text-anchor:start;fill:rgb(0,0,0);" transform="rotate(71.7,1856.3,2598.7)" >1700</text>
<line x1='1793.7' y1='2586.0' x2='1798.9' y2='2605.3' style="stroke-width:4.0;stroke:rgb(0,0,0);stroke-linecap:round;fill:none;" />
<text x="1795.3" y="2616.6" font-size="18.2px" font-family="CMUBright-Roman" style="text-anchor:start;fill:rgb(0,0,0);" transform="rotate(74.9,1795.3,2616.6)" >1750</text>
<line x1='1733.5' y1='2600.5' x2='1737.6' y2='2620.1' style="stroke-width:4.0;stroke:rgb(0,0,0);stroke-linecap:round;fill:none;" />
<text x="1733.3" y="2631.2" font-size="18.2px" font-family="CMUBright-Roman" style="text-anchor:start;fill:rgb(0,0,0);" transform="rotate(78.0,1733.3,2631.2)" >1800</text>
<line x1='1672.5' y1='2611.7' x2='1675.5' y2='2631.5' style="stroke-width:4.0;stroke:rgb(0,0,0);stroke-linecap:round;fill:none;" />
<text x="1670.7" y="2642.3" font-size="18.2px" font-family="CMUBright-Roman" style="text-anchor:start;fill:rgb(0,0,0);" transform="rotate(81.2,1670.7,2642.3)" >1850</text>
<line x1='1611.0' y1='2619.5' x2='1613.0' y2='2639.4' style="stroke-width:4.0;stroke:rgb(0,0,0);stroke-linecap:round;fill:none;" />
<text x="1607.5" y="2650.0" font-size="18.2px" font-family="CMUBright-Roman" style="text-anchor:start;fill:rgb(0,0,0);" transform="rotate(84.3,1607.5,2650.0)" >1900</text>
<line x1='1549.2' y1='2623.9' x2='1550.0' y2='2643.9' style="stroke-width:4.0;stroke:rgb(0,0,0);stroke-linecap:round;fill:none;" />
<text x="1544.0" y="2654.2" font-size="18.2px" font-family="CMUBright-Roman" style="text-anchor:start;fill:rgb(0,0,0);" transform="rotate(87.5,1544.0,2654.2)" >1950</text>
<line x1='1487.2' y1='2624.9' x2='1486.9' y2='2644.9' style="stroke-width:4.0;stroke:rgb(0,0,0);stroke-linecap:round;fill:none;" />
<text x="1493.3" y="2655.0" font-size="18.2px" font-family="CMUBright-Roman" style="text-anchor:end;fill:rgb(0,0,0);" transform="rotate(-89.3,1493.3,2655.0)" >2000</text>
<line x1='1425.2' y1='2622.5' x2='1423.9' y2='2642.5' style="stroke-width:4.0;stroke:rgb(0,0,0);stroke-linecap:round;fill:none;" />
<text x="1429.7" y="2652.9" font-size="18.2px" font-family="CMUBright-Roman" style="text-anchor:end;fill:rgb(0,0,0);" transform="rotate(-86.2,1429.7,2652.9)" >2050</text>
<line x1='1363.5' y1='2616.7' x2='1361.1' y2='2636.5' style="stroke-width:4.0;stroke:rgb(0,0,0);stroke-linecap:round;fill:none;" />
<text x="1366.3" y="2647.2" font-size="18.2px" font-family="CMUBright-Roman" style="text-anchor:end;fill:rgb(0,0,0);" transform="rotate(-83.0,1366.3,2647.2)" >2100</text>
<line x1='1302.2' y1='2607.5' x2='1298.7' y2='2627.2' style="stroke-width:4.0;stroke:rgb(0,0,0);stroke-linecap:round;fill:none;" />
<text x="1303.3" y="2638.1" font-size="18.2px" font-family="CMUBright-Roman" style="text-anchor:end;fill:rgb(0,0,0);" transform="rotate(-79.9,1303.3,2638.1)" >2150</text>
<line x1='1241.5' y1='2594.9' x2='1236.9' y2='2614.4' style="stroke-width:4.0;stroke:rgb(0,0,0);stroke-linecap:round;fill:none;" />
<text x="1241.0" y="2625.6" font-size="18.2px" font-family="CMUBright-Roman" style="text-anchor:end;fill:rgb(0,0,0);" transform="rotate(-76.7,1241.0,2625.6)" >2200</text>
<line x1='1181.6' y1='2579.0' x2='1175.9' y2='2598.2' style="stroke-width:4.0;stroke:rgb(0,0,0);stroke-linecap:round;fill:none;" />
<text x="1179.4" y="2609.6" font-size="18.2px" font-family="CMUBright-Roman" style="text-anchor:end;fill:rgb(0,0,0);" transform="rotate(-73.6,1179.4,2609.6)" >2250</text>
<line x1='1122.7' y1='2559.8' x2='1115.9' y2='2578.7' style="stroke-width:4.0;stroke:rgb(0,0,0);stroke-linecap:round;fill:none;" />
<text x="1118.7" y="2590.3" font-size="18.2px" font-family="CMUBright-Roman" style="text-anchor:end;fill:rgb(0,0,0);" transform="rotate(-70.4,1118.7,2590.3)" >2300</text>
<line x1='1064.9' y1='2537.4' x2='1057.1' y2='2555.9' style="stroke-width:4.0;stroke:rgb(0,0,0);stroke-linecap:round;fill:none;" />
<text x="1059.3" y="2567.6" font-size="18.2px" font-family="CMUBright-Roman" style="text-anchor:end;fill:rgb(0,0,0);" transform="rotate(-67.2,1059.3,2567.6)" >2350</text>
<line x1='1008.4' y1='2511.9' x2='999.6' y2='2529.9' style="stroke-width:4.0;stroke:rgb(0,0,0);stroke-linecap:round;fill:none;" />
<text x="1001.1" y="2541.7" font-size="18.2px" font-family="CMUBright-Roman" style="text-anchor:end;fill:rgb(0,0,0);" transform="rotate(-64.1,1001.1,2541.7)" >2400</text>
<line x1='953.4' y1='2483.3' x2='943.7' y2='2500.8' style="stroke-width:4.0;stroke:rgb(0,0,0);stroke-linecap:round;fill:none;" />
<text x="944.5" y="2512.6" font-size="18.2px" font-family="CMUBright-Roman" style="text-anchor:end;fill:rgb(0,0,0);" transform="rotate(-60.9,944.5,2512.6)" >2450</text>
<line x1='900.1' y1='2451.7' x2='889.4' y2='2468.6' style="stroke-width:4.0;stroke:rgb(0,0,0);stroke-linecap:round;fill:none;" />
<text x="889.6" y="2480.5" font-size="18.2px" font-family="CMUBright-Roman" style="text-anchor:end;fill:rgb(0,0,0);" transform="rotate(-57.8,889.6,2480.5)" >2500</text>
<line x1='848.5' y1='2417.2' x2='837.0' y2='2433.5' style="stroke-width:4.0;stroke:rgb(0,0,0);stroke-linecap:round;fill:none;" />
<text x="836.5" y="2445.4" font-size="18.2px" font-family="CMUBright-Roman" style="text-anchor:end;fill:rgb(0,0,0);" transform="rotate(-54.6,836.5,2445.4)" >2550</text>
<line x1='799.0' y1='2379.9' x2='786.6' y2='2395.6' style="stroke-width:4.0;stroke:rgb(0,0,0);stroke-linecap:round;fill:none;" />
<text x="785.4" y="2407.4" font-size="18.2px" font-family="CMUBright-Roman" style="text-anchor:end;fill:rgb(0,0,0);" transform="rotate(-51.5,785.4,2407.4)" >2600</text>
<line x1='751.6' y1='2340.0' x2='738.3' y2='2354.9' style="stroke-width:4.0;stroke:rgb(0,0,0);stroke-linecap:round;fill:none;" />
<text x="736.5" y="2366.7" font-size="18.2px" font-family="CMUBright-Roman" style="text-anchor:end;fill:rgb(0,0,0);" transform="rotate(-48.3,736.5,2366.7)" >2650</text>
<line x1='706.5' y1='2297.5' x2='692.4' y2='2311.7' style="stroke-width:4.0;stroke:rgb(0,0,0);stroke-linecap:round;fill:none;" />
<text x="689.9" y="2323.3" font-size="18.2px" font-family="CMUBright-Roman" style="text-anchor:end;fill:rgb(0,0,0);" transform="rotate(-45.1,689.9,2323.3)" >2700</text>
<line x1='663.8' y1='2252.6' x2='648.9' y2='2265.9' style="stroke-width:4.0;stroke:rgb(0,0,0);stroke-linecap:round;fill:none;" />
<text x="645.8" y="2277.4" font-size="18.2px" font-family="CMUBright-Roman" style="text-anchor:end;fill:rgb(0,0,0);" transform="rotate(-42.0,645.8,2277.4)" >2750</text>
<line x1='623.6' y1='2205.4' x2='608.0' y2='2217.9' style="stroke-width:4.0;stroke:rgb(0,0,0);stroke-linecap:round;fill:none;" />
<text x="604.3" y="2229.2" font-size="18.2px" font-family="CMUBright-Roman" style="text-anchor:end;fill:rgb(0,0,0);" transform="rotate(-38.8,604.3,2229.2)" >2800</text>
<line x1='586.1' y1='2156.0' x2='569.8' y2='2167.7' style="stroke-width:4.0;stroke:rgb(0,0,0);stroke-linecap:round;fill:none;" />
<text x="565.5" y="2178.8" font-size="18.2px" font-family="CMUBright-Roman" style="text-anchor:end;fill:rgb(0,0,0);" transform="rotate(-35.7,565.5,2178.8)" >2850</text>
<line x1='551.3' y1='2104.7' x2='534.5' y2='2115.4' style="stroke-width:4.0;stroke:rgb(0,0,0);stroke-linecap:round;fill:none;" />
<text x="529.5" y="2126.3" font-size="18.2px" font-family="CMUBright-Roman" style="text-anchor:end;fill:rgb(0,0,0);" transform="rotate(-32.5,529.5,2126.3)" >2900</text>
<line x1='519.5' y1='2051.5' x2='502.0' y2='2061.3' style="stroke-width:4.0;stroke:rgb(0,0,0);stroke-linecap:round;fill:none;" />
<text x="496.5" y="2071.9" font-size="18.2px" font-family="CMUBright-Roman" style="text-anchor:end;fill:rgb(0,0,0);" transform="rotate(-29.4,496.5,2071.9)" >2950</text>
<line x1='490.6' y1='1996.7' x2='472.6' y2='2005.5' style="stroke-width:4.0;stroke:rgb(0,0,0);stroke-linecap:round;fill:none;" />
<text x="466.5" y="2015.7" font-size="18.2px" font-family="CMUBright-Roman" style="text-anchor:end;fill:rgb(0,0,0);" transform="rotate(-26.2,466.5,2015.7)" >3000</text>
<line x1='464.7' y1='1940.3' x2='446.3' y2='1948.1' style="stroke-width:4.0;stroke:rgb(0,0,0);stroke-linecap:round;fill:none;" />
<text x="439.7" y="1958.0" font-size="18.2px" font-family="CMUBright-Roman" style="text-anchor:end;fill:rgb(0,0,0);" transform="rotate(-23.0,439.7,1958.0)" >3050</text>
<line x1='442.1' y1='1882.6' x2='423.3' y2='1889.4' style="stroke-width:4.0;stroke:rgb(0,0,0);stroke-linecap:round;fill:none;" />
<text x="416.1" y="1898.9" font-size="18.2px" font-family="CMUBright-Roman" style="text-anchor:end;fill:rgb(0,0,0);" transform="rotate(-19.9,416.1,1898.9)" >3100</text>
<line x1='422.6' y1='1823.8' x2='403.4' y2='1829.5' style="stroke-width:4.0;stroke:rgb(0,0,0);stroke-linecap:round;fill:none;" />
<text x="395.8" y="1838.6" font-size="18.2px" font-family="CMUBright-Roman" style="text-anchor:end;fill:rgb(0,0,0);" transform="rotate(-16.7,395.8,1838.6)" >3150</text>
<line x1='406.4' y1='1763.9' x2='387.0' y2='1768.6' style="stroke-width:4.0;stroke:rgb(0,0,0);stroke-linecap:round;fill:none;" />
<text x="378.8" y="1777.3" font-size="18.2px" font-family="CMUBright-Roman" style="text-anchor:end;fill:rgb(0,0,0);" transform="rotate(-13.6,378.8,1777.3)" >3200</text>
<line x1='393.5' y1='1703.3' x2='373.9' y2='1706.9' style="stroke-width:4.0;stroke:rgb(0,0,0);stroke-linecap:round;fill:none;" />
<text x="365.2" y="1715.1" font-size="18.2px" font-family="CMUBright-Roman" style="text-anchor:end;fill:rgb(0,0,0);" transform="rotate(-10.4,365.2,1715.1)" >3250</text>
<line x1='384.0' y1='1642.0' x2='364.2' y2='1644.6' style="stroke-width:4.0;stroke:rgb(0,0,0);stroke-linecap:round;fill:none;" />
<text x="355.1" y="1652.3" font-size="18.2px" font-family="CMUBright-Roman" style="text-anchor:end;fill:rgb(0,0,0);" transform="rotate(-7.3,355.1,1652.3)" >3300</text>
<line x1='377.9' y1='1580.4' x2='357.9' y2='1581.8' style="stroke-width:4.0;stroke:rgb(0,0,0);stroke-linecap:round;fill:none;" />
<text x="348.4" y="1589.0" font-size="18.2px" font-family="CMUBright-Roman" style="text-anchor:end;fill:rgb(0,0,0);" transform="rotate(-4.1,348.4,1589.0)" >3350</text>
<line x1='375.2' y1='1518.4' x2='355.2' y2='1518.8' style="stroke-width:4.0;stroke:rgb(0,0,0);stroke-linecap:round;fill:none;" />
<text x="345.3" y="1525.4" font-size="18.2px" font-family="CMUBright-Roman" style="text-anchor:end;fill:rgb(0,0,0);" transform="rotate(-0.9,345.3,1525.4)" >3400</text>
<line x1='375.8' y1='1456.4' x2='355.9' y2='1455.7' style="stroke-width:4.0;stroke:rgb(0,0,0);stroke-linecap:round;fill:none;" />
<text x="345.6" y="1461.8" font-size="18.2px" font-family="CMUBright-Roman" style="text-anchor:end;fill:rgb(0,0,0);" transform="rotate(2.2,345.6,1461.8)" >3450</text>
<line x1='379.9' y1='1394.6' x2='360.0' y2='1392.7' style="stroke-width:4.0;stroke:rgb(0,0,0);stroke-linecap:round;fill:none;" />
<text x="349.5" y="1398.3" font-size="18.2px" font-family="CMUBright-Roman" style="text-anchor:end;fill:rgb(0,0,0);" transform="rotate(5.4,349.5,1398.3)" >3500</text>
<line x1='387.5' y1='1333.1' x2='367.7' y2='1330.1' style="stroke-width:4.0;stroke:rgb(0,0,0);stroke-linecap:round;fill:none;" />
<text x="356.8" y="1335.0" font-size="18.2px" font-family="CMUBright-Roman" style="text-anchor:end;fill:rgb(0,0,0);" transform="rotate(8.5,356.8,1335.0)" >3550</text>
<line x1='398.3' y1='1272.0' x2='378.8' y2='1268.0' style="stroke-width:4.0;stroke:rgb(0,0,0);stroke-linecap:round;fill:none;" />
<text x="367.7" y="1272.3" font-size="18.2px" font-family="CMUBright-Roman" style="text-anchor:end;fill:rgb(0,0,0);" transform="rotate(11.7,367.7,1272.3)" >3600</text>
<line x1='412.6' y1='1211.7' x2='393.2' y2='1206.6' style="stroke-width:4.0;stroke:rgb(0,0,0);stroke-linecap:round;fill:none;" />
<text x="381.9" y="1210.3" font-size="18.2px" font-family="CMUBright-Roman" style="text-anchor:end;fill:rgb(0,0,0);" transform="rotate(14.8,381.9,1210.3)" >3650</text>
<line x1='430.1' y1='1152.2' x2='411.1' y2='1146.1' style="stroke-width:4.0;stroke:rgb(0,0,0);stroke-linecap:round;fill:none;" />
<text x="399.6" y="1149.2" font-size="18.2px" font-family="CMUBright-Roman" style="text-anchor:end;fill:rgb(0,0,0);" transform="rotate(18.0,399.6,1149.2)" >3700</text>
<line x1='450.9' y1='1093.8' x2='432.2' y2='1086.6' style="stroke-width:4.0;stroke:rgb(0,0,0);stroke-linecap:round;fill:none;" />
<text x="420.6" y="1089.1" font-size="18.2px" font-family="CMUBright-Roman" style="text-anchor:end;fill:rgb(0,0,0);" transform="rotate(21.2,420.6,1089.1)" >3750</text>
<line x1='474.8' y1='1036.7' x2='456.6' y2='1028.4' style="stroke-width:4.0;stroke:rgb(0,0,0);stroke-linecap:round;fill:none;" />
<text x="444.8" y="1030.2" font-size="18.2px" font-family="CMUBright-Roman" style="text-anchor:end;fill:rgb(0,0,0);" transform="rotate(24.3,444.8,1030.2)" >3800</text>
<line x1='501.9' y1='980.9' x2='484.2' y2='971.7' style="stroke-width:4.0;stroke:rgb(0,0,0);stroke-linecap:round;fill:none;" />
<text x="472.3" y="972.8" font-size="18.2px" font-family="CMUBright-Roman" style="text-anchor:end;fill:rgb(0,0,0);" transform="rotate(27.5,472.3,972.8)" >3850</text>
<line x1='532.0' y1='926.7' x2='514.8' y2='916.5' style="stroke-width:4.0;stroke:rgb(0,0,0);stroke-linecap:round;fill:none;" />
<text x="502.9" y="917.0" font-size="18.2px" font-family="CMUBright-Roman" style="text-anchor:end;fill:rgb(0,0,0);" transform="rotate(30.6,502.9,917.0)" >3900</text>
<line x1='565.1' y1='874.3' x2='548.4' y2='863.2' style="stroke-width:4.0;stroke:rgb(0,0,0);stroke-linecap:round;fill:none;" />
<text x="536.5" y="863.0" font-size="18.2px" font-family="CMUBright-Roman" style="text-anchor:end;fill:rgb(0,0,0);" transform="rotate(33.8,536.5,863.0)" >3950</text>
<line x1='601.0' y1='823.7' x2='585.0' y2='811.7' style="stroke-width:4.0;stroke:rgb(0,0,0);stroke-linecap:round;fill:none;" />
<text x="573.1" y="810.9" font-size="18.2px" font-family="CMUBright-Roman" style="text-anchor:end;fill:rgb(0,0,0);" transform="rotate(37.0,573.1,810.9)" >4000</text>
<line x1='639.6' y1='775.2' x2='624.3' y2='762.4' style="stroke-width:4.0;stroke:rgb(0,0,0);stroke-linecap:round;fill:none;" />
<text x="612.4" y="760.9" font-size="18.2px" font-family="CMUBright-Roman" style="text-anchor:end;fill:rgb(0,0,0);" transform="rotate(40.1,612.4,760.9)" >4050</text>
<line x1='680.8' y1='728.9' x2='666.2' y2='715.2' style="stroke-width:4.0;stroke:rgb(0,0,0);stroke-linecap:round;fill:none;" />
<text x="654.5" y="713.1" font-size="18.2px" font-family="CMUBright-Roman" style="text-anchor:end;fill:rgb(0,0,0);" transform="rotate(43.3,654.5,713.1)" >4100</text>
<line x1='724.5' y1='685.0' x2='710.7' y2='670.5' style="stroke-width:4.0;stroke:rgb(0,0,0);stroke-linecap:round;fill:none;" />
<text x="699.1" y="667.8" font-size="18.2px" font-family="CMUBright-Roman" style="text-anchor:end;fill:rgb(0,0,0);" transform="rotate(46.4,699.1,667.8)" >4150</text>
<line x1='770.6' y1='643.5' x2='757.6' y2='628.3' style="stroke-width:4.0;stroke:rgb(0,0,0);stroke-linecap:round;fill:none;" />
<text x="746.2" y="624.9" font-size="18.2px" font-family="CMUBright-Roman" style="text-anchor:end;fill:rgb(0,0,0);" transform="rotate(49.6,746.2,624.9)" >4200</text>
<line x1='818.9' y1='604.6' x2='806.7' y2='588.7' style="stroke-width:4.0;stroke:rgb(0,0,0);stroke-linecap:round;fill:none;" />
<text x="795.5" y="584.7" font-size="18.2px" font-family="CMUBright-Roman" style="text-anchor:end;fill:rgb(0,0,0);" transform="rotate(52.7,795.5,584.7)" >4250</text>
<line x1='869.2' y1='568.5' x2='858.0' y2='551.9' style="stroke-width:4.0;stroke:rgb(0,0,0);stroke-linecap:round;fill:none;" />
<text x="847.0" y="547.3" font-size="18.2px" font-family="CMUBright-Roman" style="text-anchor:end;fill:rgb(0,0,0);" transform="rotate(55.9,847.0,547.3)" >4300</text>
<line x1='921.5' y1='535.2' x2='911.2' y2='518.0' style="stroke-width:4.0;stroke:rgb(0,0,0);stroke-linecap:round;fill:none;" />
<text x="900.5" y="512.8" font-size="18.2px" font-family="CMUBright-Roman" style="text-anchor:end;fill:rgb(0,0,0);" transform="rotate(59.1,900.5,512.8)" >4350</text>
<line x1='975.5' y1='504.8' x2='966.2' y2='487.1' style="stroke-width:4.0;stroke:rgb(0,0,0);stroke-linecap:round;fill:none;" />
<text x="955.8" y="481.3" font-size="18.2px" font-family="CMUBright-Roman" style="text-anchor:end;fill:rgb(0,0,0);" transform="rotate(62.2,955.8,481.3)" >4400</text>
<line x1='1031.1' y1='477.4' x2='1022.8' y2='459.2' style="stroke-width:4.0;stroke:rgb(0,0,0);stroke-linecap:round;fill:none;" />
<text x="1012.7" y="452.8" font-size="18.2px" font-family="CMUBright-Roman" style="text-anchor:end;fill:rgb(0,0,0);" transform="rotate(65.4,1012.7,452.8)" >4450</text>
<line x1='1088.1' y1='453.1' x2='1080.8' y2='434.5' style="stroke-width:4.0;stroke:rgb(0,0,0);stroke-linecap:round;fill:none;" />
<text x="1071.1" y="427.6" font-size="18.2px" font-family="CMUBright-Roman" style="text-anchor:end;fill:rgb(0,0,0);" transform="rotate(68.5,1071.1,427.6)" >4500</text>
<line x1='1146.4' y1='432.0' x2='1140.1' y2='413.0' style="stroke-width:4.0;stroke:rgb(0,0,0);stroke-linecap:round;fill:none;" />
<text x="1130.8" y="405.6" font-size="18.2px" font-family="CMUBright-Roman" style="text-anchor:end;fill:rgb(0,0,0);" transform="rotate(71.7,1130.8,405.6)" >4550</text>
<line x1='1205.8' y1='414.2' x2='1200.6' y2='394.8' style="stroke-width:4.0;stroke:rgb(0,0,0);stroke-linecap:round;fill:none;" />
<text x="1191.7" y="386.9" font-size="18.2px" font-family="CMUBright-Roman" style="text-anchor:end;fill:rgb(0,0,0);" transform="rotate(74.8,1191.7,386.9)" >4600</text>
<line x1='1266.0' y1='399.6' x2='1261.9' y2='380.0' style="stroke-width:4.0;stroke:rgb(0,0,0);stroke-linecap:round;fill:none;" />
<text x="1253.5" y="371.6" font-size="18.2px" font-family="CMUBright-Roman" style="text-anchor:end;fill:rgb(0,0,0);" transform="rotate(78.0,1253.5,371.6)" >4650</text>
<line x1='1327.0' y1='388.4' x2='1323.9' y2='368.6' style="stroke-width:4.0;stroke:rgb(0,0,0);stroke-linecap:round;fill:none;" />
<text x="1316.0" y="359.8" font-size="18.2px" font-family="CMUBright-Roman" style="text-anchor:end;fill:rgb(0,0,0);" transform="rotate(81.2,1316.0,359.8)" >4700</text>
<line x1='1388.5' y1='380.5' x2='1386.5' y2='360.6' style="stroke-width:4.0;stroke:rgb(0,0,0);stroke-linecap:round;fill:none;" />
<text x="1379.1" y="351.3" font-size="18.2px" font-family="CMUBright-Roman" style="text-anchor:end;fill:rgb(0,0,0);" transform="rotate(84.3,1379.1,351.3)" >4750</text>
<g id="highlighttrack_0">
<path d="M1023.202,536.523 A1075.000,1075.000 40.000 0,1 1027.416,534.449 L1005.435,489.539 A1125.000,1125.000 0.000 0,0 1001.025,491.710 Z" style="stroke-width:4.0;stroke:rgb(0,0,0);stroke-linecap:round;fill:rgb(116,196,118);" />
<path d="M705.373,2224.012 A1075.000,1075.000 40.000 0,1 702.514,2220.861 L665.421,2254.389 A1125.000,1125.000 0.000 0,0 668.413,2257.687 Z" style="stroke-width:4.0;stroke:rgb(0,0,0);stroke-linecap:round;fill:rgb(251,106,74);" />
<path d="M1380.311,2568.316 A1075.000,1075.000 40.000 0,1 1376.195,2567.847 L1370.437,2617.514 A1125.000,1125.000 0.000 0,0 1374.744,2618.005 Z" style="stroke-width:4.0;stroke:rgb(0,0,0);stroke-linecap:round;fill:rgb(251,106,74);" />
<path d="M1389.643,2569.320 A1075.000,1075.000 40.000 0,1 1384.813,2568.811 L1379.456,2618.523 A1125.000,1125.000 0.000 0,0 1384.510,2619.056 Z" style="stroke-width:4.0;stroke:rgb(0,0,0);stroke-linecap:round;fill:rgb(251,106,74);" />
<path d="M1911.089,2493.293 A1075.000,1075.000 40.000 0,1 1907.265,2494.867 L1926.208,2541.140 A1125.000,1125.000 0.000 0,0 1930.210,2539.493 Z" style="stroke-width:4.0;stroke:rgb(0,0,0);stroke-linecap:round;fill:rgb(251,106,74);" />
<path d="M1999.713,2451.794 A1075.000,1075.000 40.000 0,1 1996.043,2453.712 L2019.115,2498.070 A1125.000,1125.000 0.000 0,0 2022.956,2496.063 Z" style="stroke-width:4.0;stroke:rgb(0,0,0);stroke-linecap:round;fill:rgb(116,196,118);" />
<path d="M2192.076,2322.591 A1075.000,1075.000 40.000 0,1 2188.351,2325.710 L2220.368,2364.115 A1125.000,1125.000 0.000 0,0 2224.265,2360.851 Z" style="stroke-width:4.0;stroke:rgb(0,0,0);stroke-linecap:round;fill:rgb(116,196,118);" />
<path d="M2238.710,2280.982 A1075.000,1075.000 40.000 0,1 2235.780,2283.743 L2270.002,2320.196 A1125.000,1125.000 0.000 0,0 2273.068,2317.307 Z" style="stroke-width:4.0;stroke:rgb(0,0,0);stroke-linecap:round;fill:rgb(116,196,118);" />
<path d="M907.498,2396.976 A1075.000,1075.000 40.000 0,1 904.982,2395.310 L877.307,2436.952 A1125.000,1125.000 0.000 0,0 879.940,2438.696 Z" style="stroke-width:4.0;stroke:rgb(0,0,0);stroke-linecap:round;fill:rgb(116,196,118);" />
<path d="M876.986,2376.058 A1075.000,1075.000 40.000 0,1 874.522,2374.301 L845.430,2414.966 A1125.000,1125.000 0.000 0,0 848.008,2416.805 Z" style="stroke-width:4.0;stroke:rgb(0,0,0);stroke-linecap:round;fill:rgb(116,196,118);" />
<path d="M868.814,2370.189 A1075.000,1075.000 40.000 0,1 866.387,2368.424 L836.916,2408.815 A1125.000,1125.000 0.000 0,0 839.456,2410.663 Z" style="stroke-width:4.0;stroke:rgb(0,0,0);stroke-linecap:round;fill:rgb(116,196,118);" />
<path d="M1931.477,2484.608 A1075.000,1075.000 40.000 0,1 1928.339,2485.977 L1948.262,2531.836 A1125.000,1125.000 0.000 0,0 1951.545,2530.404 Z" style="stroke-width:4.0;stroke:rgb(0,0,0);stroke-linecap:round;fill:rgb(251,106,74);" />
<path d="M2218.727,2299.410 A1075.000,1075.000 40.000 0,1 2216.909,2301.041 L2250.253,2338.299 A1125.000,1125.000 0.000 0,0 2252.156,2336.592 Z" style="stroke-width:4.0;stroke:rgb(0,0,0);stroke-linecap:round;fill:rgb(116,196,118);" />
</g>
</g>
<g id="track_0">
<path d="M 713.319,2216.771 A 1064.250,1064.250 0.00 0,1 710.5,2213.7 L 710.5,2213.7 764.5,2163.5 813.9,2115.0 859.1,2068.1 900.2,2022.7 937.7,1978.8 971.9,1936.1 1002.9,1894.8 1031.0,1854.6 1056.5,1815.5 1079.5,1777.4 1100.3,1740.2 1119.1,1703.7 1135.9,1667.9 1151.0,1632.7 1164.5,1597.9 1176.4,1563.4 1186.9,1529.2 1196.1,1495.0 1203.9,1460.8 1210.6,1426.4 1216.0,1391.7 1220.2,1356.6 1223.1,1320.9 1224.8,1284.5 1225.3,1247.2 1224.4,1208.8 1222.0,1169.3 1218.2,1128.5 1212.7,1086.2 1205.5,1042.3 1196.3,996.5 1185.1,948.8 1171.7,898.9 1155.9,846.6 1137.4,791.9 1116.0,734.4 1091.5,674.1 1063.7,610.7 1032.1,544.1  A 1064.250,1064.250 0.00 0,0 1028.0,546.2 L 1028.0,546.2 1059.8,612.7 1087.9,675.9 1112.7,736.1 1134.3,793.5 1153.0,848.1 1169.1,900.3 1182.7,950.1 1194.1,997.8 1203.5,1043.6 1210.9,1087.5 1216.6,1129.7 1220.6,1170.5 1223.1,1210.0 1224.2,1248.3 1223.9,1285.6 1222.3,1322.0 1219.5,1357.8 1215.5,1392.9 1210.2,1427.6 1203.7,1462.0 1196.0,1496.3 1187.0,1530.5 1176.6,1564.7 1164.8,1599.3 1151.5,1634.1 1136.6,1669.4 1119.9,1705.2 1101.3,1741.8 1080.6,1779.1 1057.7,1817.3 1032.4,1856.5 1004.4,1896.8 973.6,1938.2 939.6,1981.0 902.3,2025.1 861.3,2070.6 816.4,2117.7 767.1,2166.4 713.3,2216.8  Z" style="stroke-width: 2.0;  stroke: rgb(82,82,82); fill: rgb(251,106,74); opacity: 0.667;" />
<path d="M 1381.507,2557.633 A 1064.250,1064.250 0.00 0,1 1377.4,2557.2 L 1377.4,2557.2 1384.8,2483.4 1389.6,2413.2 1392.2,2346.2 1392.7,2282.3 1391.6,2221.2 1389.0,2162.8 1385.2,2106.8 1380.3,2053.1 1374.7,2001.4 1368.4,1951.5 1361.6,1903.3 1354.5,1856.6 1347.2,1811.1 1339.7,1766.8 1332.2,1723.3 1324.7,1680.6 1317.3,1638.4 1309.9,1596.7 1302.7,1555.2 1295.6,1513.7 1288.6,1472.2 1281.6,1430.4 1274.5,1388.2 1267.3,1345.4 1260.0,1301.9 1252.2,1257.6 1244.0,1212.3 1235.1,1165.8 1225.5,1118.1 1214.8,1069.0 1202.9,1018.4 1189.5,966.1 1174.5,912.1 1157.4,856.1 1138.2,798.2 1116.3,738.1 1091.6,675.8 1063.7,611.2 1032.1,544.1  A 1064.250,1064.250 0.00 0,0 1028.0,546.2 L 1028.0,546.2 1059.8,613.1 1088.0,677.6 1113.0,739.8 1135.1,799.8 1154.6,857.6 1171.9,913.5 1187.2,967.5 1200.8,1019.7 1212.9,1070.3 1223.8,1119.3 1233.7,1167.0 1242.7,1213.4 1251.1,1258.6 1259.1,1302.9 1266.6,1346.4 1274.0,1389.1 1281.2,1431.3 1288.4,1473.1 1295.6,1514.6 1302.9,1556.0 1310.3,1597.5 1317.8,1639.2 1325.3,1681.3 1333.0,1724.0 1340.7,1767.4 1348.3,1811.7 1355.9,1857.2 1363.2,1903.9 1370.1,1952.1 1376.6,2001.9 1382.5,2053.6 1387.5,2107.3 1391.5,2163.2 1394.4,2221.6 1395.7,2282.7 1395.4,2346.6 1393.1,2413.6 1388.6,2483.9 1381.5,2557.6  Z" style="stroke-width: 2.0;  stroke: rgb(82,82,82); fill: rgb(116,196,118); opacity: 0.667;" />
<path d="M 1381.507,2557.633 A 1064.250,1064.250 0.00 0,1 1377.4,2557.2 L 1377.4,2557.2 1385.4,2484.3 1392.0,2416.7 1397.1,2354.1 1401.0,2296.2 1403.5,2242.8 1404.9,2193.6 1405.1,2148.4 1404.2,2107.0 1402.3,2069.2 1399.2,2034.8 1395.2,2003.6 1390.1,1975.6 1384.0,1950.5 1376.9,1928.3 1368.7,1908.7 1359.5,1891.8 1349.2,1877.5 1337.8,1865.6 1325.2,1856.2 1311.5,1849.1 1296.5,1844.4 1280.2,1842.0 1262.6,1841.9 1243.5,1844.2 1222.8,1848.9 1200.6,1856.0 1176.6,1865.6 1150.8,1877.8 1123.1,1892.5 1093.4,1910.1 1061.4,1930.4 1027.2,1953.7 990.5,1980.2 951.3,2009.8 909.3,2043.0 864.4,2079.7 816.4,2120.3 765.1,2164.8 710.5,2213.7  A 1064.250,1064.250 0.00 0,0 713.3,2216.8 L 713.3,2216.8 767.8,2167.7 818.8,2123.0 866.7,2082.2 911.4,2045.3 953.3,2012.0 992.4,1982.2 1029.0,1955.6 1063.2,1932.1 1095.0,1911.7 1124.7,1894.0 1152.3,1879.1 1178.1,1866.9 1202.0,1857.2 1224.2,1850.0 1244.8,1845.3 1263.9,1842.9 1281.6,1842.9 1297.9,1845.2 1312.9,1849.8 1326.6,1856.9 1339.2,1866.3 1350.6,1878.1 1361.0,1892.4 1370.3,1909.3 1378.5,1928.7 1385.7,1951.0 1391.9,1976.0 1397.1,2004.0 1401.3,2035.1 1404.5,2069.5 1406.6,2107.3 1407.6,2148.7 1407.6,2193.9 1406.4,2243.2 1404.0,2296.6 1400.4,2354.5 1395.5,2417.1 1389.2,2484.8 1381.5,2557.6  Z" style="stroke-width: 2.0;  stroke: rgb(82,82,82); fill: rgb(107,174,214); opacity: 0.667;" />
<path d="M 1390.746,2558.627 A 1064.250,1064.250 0.00 0,1 1386.0,2558.1 L 1386.0,2558.1 1392.7,2484.3 1397.0,2414.0 1399.0,2347.0 1399.0,2283.0 1397.4,2222.0 1394.4,2163.5 1390.1,2107.5 1384.9,2053.8 1378.8,2002.1 1372.2,1952.2 1365.0,1904.0 1357.6,1857.3 1349.9,1811.8 1342.2,1767.4 1334.4,1724.0 1326.7,1681.3 1319.0,1639.1 1311.5,1597.3 1304.1,1555.8 1296.8,1514.3 1289.6,1472.7 1282.4,1430.9 1275.3,1388.7 1268.0,1345.9 1260.5,1302.4 1252.6,1258.0 1244.3,1212.7 1235.4,1166.2 1225.7,1118.4 1214.9,1069.3 1203.0,1018.6 1189.6,966.3 1174.5,912.2 1157.5,856.2 1138.2,798.3 1116.3,738.2 1091.6,675.8 1063.7,611.2 1032.1,544.1  A 1064.250,1064.250 0.00 0,0 1028.0,546.2 L 1028.0,546.2 1059.8,613.1 1088.0,677.6 1113.0,739.8 1135.1,799.8 1154.7,857.7 1172.0,913.6 1187.3,967.7 1200.9,1019.9 1213.1,1070.5 1224.0,1119.6 1234.0,1167.3 1243.1,1213.8 1251.6,1259.1 1259.6,1303.4 1267.3,1346.9 1274.8,1389.7 1282.2,1431.9 1289.5,1473.7 1296.9,1515.2 1304.4,1556.7 1311.9,1598.2 1319.7,1639.9 1327.5,1682.0 1335.4,1724.7 1343.4,1768.1 1351.3,1812.5 1359.2,1857.9 1366.9,1904.6 1374.2,1952.8 1381.1,2002.6 1387.4,2054.3 1392.8,2108.0 1397.4,2164.0 1400.7,2222.4 1402.6,2283.5 1402.8,2347.4 1401.1,2414.5 1397.2,2484.8 1390.7,2558.6  Z" style="stroke-width: 2.0;  stroke: rgb(82,82,82); fill: rgb(253,141,60); opacity: 0.667;" />
<path d="M 1390.746,2558.627 A 1064.250,1064.250 0.00 0,1 1386.0,2558.1 L 1386.0,2558.1 1393.4,2485.2 1399.4,2417.6 1404.0,2354.9 1407.3,2297.0 1409.4,2243.5 1410.4,2194.2 1410.2,2149.0 1408.9,2107.6 1406.6,2069.7 1403.2,2035.3 1398.8,2004.1 1393.4,1976.1 1387.0,1951.0 1379.6,1928.7 1371.2,1909.2 1361.8,1892.3 1351.3,1877.9 1339.7,1866.0 1326.9,1856.5 1313.0,1849.4 1297.9,1844.7 1281.4,1842.3 1263.7,1842.2 1244.4,1844.5 1223.7,1849.2 1201.3,1856.3 1177.2,1865.8 1151.4,1877.9 1123.6,1892.7 1093.7,1910.2 1061.7,1930.5 1027.4,1953.8 990.7,1980.2 951.4,2009.9 909.3,2043.0 864.4,2079.7 816.4,2120.3 765.2,2164.8 710.5,2213.7  A 1064.250,1064.250 0.00 0,0 713.3,2216.8 L 713.3,2216.8 767.8,2167.7 818.9,2123.0 866.7,2082.2 911.5,2045.3 953.4,2012.1 992.6,1982.2 1029.2,1955.7 1063.4,1932.2 1095.4,1911.8 1125.1,1894.2 1152.9,1879.3 1178.7,1867.1 1202.8,1857.5 1225.1,1850.3 1245.8,1845.5 1265.1,1843.2 1282.9,1843.2 1299.3,1845.5 1314.5,1850.2 1328.5,1857.2 1341.3,1866.7 1352.9,1878.5 1363.5,1892.8 1373.0,1909.7 1381.5,1929.2 1389.0,1951.5 1395.5,1976.5 1401.1,2004.6 1405.6,2035.7 1409.1,2070.1 1411.6,2108.0 1413.1,2149.4 1413.5,2194.6 1412.8,2243.9 1410.9,2297.4 1407.8,2355.3 1403.5,2418.0 1397.8,2485.7 1390.7,2558.6  Z" style="stroke-width: 2.0;  stroke: rgb(82,82,82); fill: rgb(255,0,0); opacity: 0.667;" />
<path d="M 1390.746,2558.627 A 1064.250,1064.250 0.00 0,1 1386.0,2558.1 L 1386.0,2558.1 1393.8,2485.3 1401.0,2418.1 1407.7,2356.1 1413.8,2299.1 1419.4,2246.8 1424.5,2199.1 1429.1,2155.6 1433.3,2116.3 1437.0,2080.9 1440.4,2049.2 1443.3,2021.2 1445.8,1996.6 1448.0,1975.3 1449.8,1957.3 1451.3,1942.4 1452.5,1930.6 1453.3,1921.8 1453.7,1915.9 1453.9,1913.0 1453.7,1913.0 1453.2,1915.9 1452.4,1921.7 1451.2,1930.5 1449.7,1942.3 1447.9,1957.1 1445.7,1975.1 1443.1,1996.3 1440.2,2020.8 1436.8,2048.9 1433.1,2080.5 1428.9,2115.8 1424.3,2155.1 1419.2,2198.5 1413.6,2246.2 1407.5,2298.4 1400.9,2355.3 1393.7,2417.3 1385.9,2484.5 1377.4,2557.2  A 1064.250,1064.250 0.00 0,0 1381.5,2557.6 L 1381.5,2557.6 1389.7,2484.9 1397.2,2417.7 1404.2,2355.7 1410.6,2298.7 1416.5,2246.5 1421.9,2198.8 1426.8,2155.4 1431.3,2116.1 1435.3,2080.7 1439.0,2049.1 1442.2,2021.1 1445.1,1996.5 1447.6,1975.3 1449.7,1957.3 1451.5,1942.5 1453.0,1930.7 1454.1,1921.9 1454.9,1916.1 1455.4,1913.2 1455.6,1913.2 1455.5,1916.1 1455.1,1922.0 1454.3,1930.8 1453.2,1942.6 1451.8,1957.5 1450.1,1975.6 1448.0,1996.8 1445.6,2021.4 1442.8,2049.5 1439.6,2081.2 1436.0,2116.6 1432.1,2156.0 1427.6,2199.4 1422.8,2247.2 1417.4,2299.5 1411.6,2356.5 1405.2,2418.5 1398.3,2485.8 1390.7,2558.6  Z" style="stroke-width: 2.0;  stroke: rgb(82,82,82); fill: rgb(255,0,204); opacity: 0.667;" />
<path d="M 1906.978,2483.360 A 1064.250,1064.250 0.00 0,1 1903.2,2484.9 L 1903.2,2484.9 1873.9,2416.5 1843.8,2351.9 1813.1,2290.8 1782.2,2232.9 1751.2,2177.9 1720.3,2125.5 1689.7,2075.5 1659.6,2027.6 1630.2,1981.5 1601.5,1937.1 1573.6,1894.1 1546.8,1852.2 1521.0,1811.2 1496.2,1770.9 1472.6,1731.2 1450.2,1691.7 1428.9,1652.4 1408.8,1613.0 1389.8,1573.5 1371.9,1533.5 1354.9,1493.0 1338.9,1451.8 1323.7,1409.8 1309.1,1366.8 1295.1,1322.7 1281.4,1277.5 1268.0,1231.0 1254.5,1183.0 1240.9,1133.6 1226.8,1082.7 1211.9,1030.0 1196.2,975.7 1179.1,919.7 1160.5,861.8 1140.0,802.0 1117.3,740.4 1092.0,676.9 1063.8,611.5 1032.1,544.1  A 1064.250,1064.250 0.00 0,0 1028.0,546.2 L 1028.0,546.2 1059.9,613.4 1088.4,678.7 1114.0,742.1 1137.0,803.6 1157.7,863.3 1176.6,921.1 1193.9,977.1 1209.9,1031.3 1224.9,1083.8 1239.3,1134.8 1253.1,1184.1 1266.8,1232.0 1280.4,1278.5 1294.3,1323.6 1308.5,1367.6 1323.2,1410.5 1338.6,1452.5 1354.8,1493.6 1372.0,1534.0 1390.1,1573.9 1409.2,1613.4 1429.5,1652.7 1450.9,1692.0 1473.5,1731.3 1497.3,1771.0 1522.1,1811.1 1548.1,1852.0 1575.2,1893.8 1603.2,1936.7 1632.0,1981.1 1661.7,2027.0 1692.0,2074.8 1722.7,2124.6 1753.8,2176.9 1785.0,2231.8 1816.2,2289.6 1847.1,2350.6 1877.4,2415.1 1907.0,2483.4  Z" style="stroke-width: 2.0;  stroke: rgb(82,82,82); fill: rgb(255,204,204); opacity: 0.667;" />
<path d="M 1906.978,2483.360 A 1064.250,1064.250 0.00 0,1 1903.2,2484.9 L 1903.2,2484.9 1874.7,2417.2 1846.9,2354.8 1819.7,2297.2 1793.1,2244.3 1767.1,2195.7 1741.6,2151.2 1716.5,2110.6 1691.9,2073.5 1667.7,2039.9 1643.8,2009.5 1620.1,1982.1 1596.7,1957.6 1573.3,1935.8 1550.1,1916.6 1526.8,1899.9 1503.4,1885.5 1479.9,1873.4 1456.1,1863.5 1432.0,1855.8 1407.4,1850.2 1382.3,1846.8 1356.6,1845.4 1330.2,1846.1 1302.9,1848.9 1274.7,1854.0 1245.4,1861.2 1214.9,1870.8 1183.2,1882.7 1150.0,1897.2 1115.3,1914.3 1078.9,1934.1 1040.7,1956.8 1000.5,1982.7 958.3,2011.7 913.8,2044.3 867.0,2080.5 817.5,2120.6 765.4,2164.9 710.5,2213.7  A 1064.250,1064.250 0.00 0,0 713.3,2216.8 L 713.3,2216.8 768.1,2167.8 820.0,2123.3 869.3,2083.0 916.0,2046.6 960.3,2013.9 1002.5,1984.6 1042.5,1958.7 1080.6,1935.8 1116.9,1915.8 1151.6,1898.6 1184.7,1884.0 1216.4,1871.9 1246.8,1862.2 1276.1,1854.9 1304.3,1849.7 1331.5,1846.8 1358.0,1845.9 1383.7,1847.2 1408.8,1850.6 1433.4,1856.1 1457.5,1863.7 1481.4,1873.5 1504.9,1885.5 1528.4,1899.8 1551.7,1916.4 1575.0,1935.5 1598.4,1957.2 1622.0,1981.7 1645.7,2008.9 1669.8,2039.3 1694.1,2072.8 1718.9,2109.7 1744.1,2150.3 1769.8,2194.7 1796.0,2243.1 1822.8,2296.0 1850.2,2353.4 1878.2,2415.8 1907.0,2483.4  Z" style="stroke-width: 2.0;  stroke: rgb(82,82,82); fill: rgb(255,153,0); opacity: 0.667;" />
<path d="M 1906.978,2483.360 A 1064.250,1064.250 0.00 0,1 1903.2,2484.9 L 1903.2,2484.9 1875.2,2417.3 1848.6,2354.9 1823.6,2297.5 1799.8,2245.0 1777.4,2196.9 1756.2,2153.2 1736.1,2113.5 1717.1,2077.8 1699.1,2045.8 1682.0,2017.3 1665.8,1992.2 1650.4,1970.4 1635.7,1951.8 1621.8,1936.2 1608.5,1923.6 1595.8,1913.9 1583.6,1907.1 1572.0,1903.0 1560.7,1901.7 1549.9,1903.2 1539.4,1907.5 1529.3,1914.6 1519.4,1924.4 1509.8,1937.2 1500.4,1952.9 1491.2,1971.7 1482.1,1993.6 1473.2,2018.7 1464.3,2047.2 1455.5,2079.2 1446.8,2114.9 1438.2,2154.5 1429.5,2198.1 1420.9,2245.9 1412.2,2298.2 1403.6,2355.3 1394.9,2417.2 1386.2,2484.5 1377.4,2557.2  A 1064.250,1064.250 0.00 0,0 1381.5,2557.6 L 1381.5,2557.6 1390.0,2484.9 1398.4,2417.6 1406.9,2355.6 1415.3,2298.6 1423.8,2246.2 1432.2,2198.3 1440.7,2154.7 1449.2,2115.1 1457.8,2079.4 1466.4,2047.3 1475.2,2018.8 1484.0,1993.6 1493.0,1971.7 1502.1,1952.9 1511.5,1937.2 1521.1,1924.4 1530.9,1914.4 1541.0,1907.3 1551.4,1903.0 1562.3,1901.5 1573.5,1902.7 1585.2,1906.8 1597.4,1913.6 1610.1,1923.2 1623.5,1935.8 1637.5,1951.3 1652.2,1969.9 1667.7,1991.6 1684.0,2016.6 1701.2,2045.0 1719.3,2077.0 1738.4,2112.6 1758.7,2152.2 1780.1,2195.9 1802.7,2243.8 1826.6,2296.3 1851.9,2353.5 1878.7,2415.8 1907.0,2483.4  Z" style="stroke-width: 2.0;  stroke: rgb(82,82,82); fill: rgb(255,204,0); opacity: 0.667;" />
<path d="M 1906.978,2483.360 A 1064.250,1064.250 0.00 0,1 1903.2,2484.9 L 1903.2,2484.9 1875.2,2417.3 1848.7,2354.9 1823.6,2297.5 1799.9,2245.0 1777.5,2196.9 1756.3,2153.2 1736.3,2113.5 1717.4,2077.8 1699.4,2045.7 1682.4,2017.3 1666.3,1992.2 1651.0,1970.4 1636.5,1951.8 1622.7,1936.2 1609.5,1923.6 1596.9,1914.0 1584.9,1907.1 1573.4,1903.1 1562.3,1901.8 1551.6,1903.3 1541.4,1907.6 1531.4,1914.7 1521.8,1924.6 1512.4,1937.4 1503.2,1953.1 1494.3,1971.9 1485.5,1993.9 1476.8,2019.0 1468.3,2047.6 1459.9,2079.6 1451.5,2115.4 1443.2,2155.0 1435.0,2198.7 1426.8,2246.6 1418.6,2298.9 1410.4,2356.0 1402.3,2418.1 1394.1,2485.3 1386.0,2558.1  A 1064.250,1064.250 0.00 0,0 1390.7,2558.6 L 1390.7,2558.6 1398.6,2485.8 1406.4,2418.5 1414.3,2356.4 1422.2,2299.3 1430.1,2246.9 1438.1,2198.9 1446.2,2155.3 1454.3,2115.6 1462.5,2079.8 1470.7,2047.7 1479.1,2019.1 1487.6,1993.9 1496.3,1972.0 1505.2,1953.1 1514.3,1937.4 1523.6,1924.5 1533.2,1914.6 1543.1,1907.4 1553.3,1903.1 1564.0,1901.6 1575.0,1902.8 1586.6,1906.8 1598.6,1913.6 1611.2,1923.2 1624.4,1935.8 1638.3,1951.3 1652.9,1969.8 1668.2,1991.6 1684.4,2016.6 1701.5,2045.0 1719.6,2076.9 1738.7,2112.6 1758.9,2152.2 1780.2,2195.8 1802.8,2243.8 1826.7,2296.3 1851.9,2353.5 1878.7,2415.8 1907.0,2483.4  Z" style="stroke-width: 2.0;  stroke: rgb(82,82,82); fill: rgb(255,255,0); opacity: 0.667;" />
<path d="M 1994.716,2442.276 A 1064.250,1064.250 0.00 0,1 1991.1,2444.2 L 1991.1,2444.2 1957.8,2377.6 1927.9,2312.8 1901.0,2249.8 1876.7,2188.7 1854.6,2129.3 1834.5,2071.8 1815.9,2016.0 1798.6,1962.0 1782.2,1909.7 1766.6,1859.0 1751.3,1809.8 1736.3,1762.2 1721.3,1716.1 1706.1,1671.2 1690.5,1627.7 1674.3,1585.2 1657.4,1543.8 1639.6,1503.3 1620.9,1463.5 1601.2,1424.4 1580.3,1385.7 1558.2,1347.4 1535.0,1309.2 1510.4,1271.0 1484.7,1232.5 1457.6,1193.6 1429.4,1154.1 1400.0,1113.8 1369.6,1072.3 1338.1,1029.6 1305.7,985.4 1272.5,939.4 1238.7,891.3 1204.4,840.9 1169.7,787.9 1135.0,732.0 1100.3,673.0 1066.0,610.4 1032.1,544.1  A 1064.250,1064.250 0.00 0,0 1028.0,546.2 L 1028.0,546.2 1062.1,612.3 1096.7,674.7 1131.6,733.6 1166.6,789.3 1201.5,842.2 1236.0,892.4 1270.1,940.4 1303.4,986.3 1336.0,1030.4 1367.7,1072.9 1398.3,1114.2 1427.9,1154.4 1456.3,1193.8 1483.5,1232.6 1509.4,1270.9 1534.1,1309.1 1557.5,1347.2 1579.8,1385.4 1600.8,1424.0 1620.7,1463.1 1639.6,1502.7 1657.5,1543.2 1674.5,1584.5 1690.9,1626.9 1706.7,1670.4 1722.1,1715.2 1737.3,1761.3 1752.5,1808.9 1767.9,1857.9 1783.8,1908.6 1800.3,1960.8 1817.9,2014.8 1836.7,2070.5 1857.1,2128.0 1879.4,2187.2 1903.9,2248.3 1931.0,2311.1 1961.2,2375.8 1994.7,2442.3  Z" style="stroke-width: 2.0;  stroke: rgb(82,82,82); fill: rgb(204,255,0); opacity: 0.667;" />
<path d="M 1994.716,2442.276 A 1064.250,1064.250 0.00 0,1 1991.1,2444.2 L 1991.1,2444.2 1956.5,2379.3 1923.0,2319.6 1890.4,2264.7 1858.8,2214.3 1828.0,2168.2 1798.0,2126.0 1768.8,2087.6 1740.3,2052.6 1712.4,2021.0 1685.0,1992.5 1658.1,1966.9 1631.7,1944.0 1605.5,1923.7 1579.6,1906.0 1553.8,1890.6 1528.1,1877.4 1502.4,1866.5 1476.5,1857.6 1450.5,1850.9 1424.1,1846.1 1397.3,1843.4 1370.0,1842.6 1342.1,1843.9 1313.4,1847.3 1283.9,1852.7 1253.4,1860.4 1221.8,1870.2 1189.0,1882.4 1154.9,1897.0 1119.3,1914.2 1082.1,1934.2 1043.2,1956.9 1002.4,1982.8 959.6,2011.9 914.7,2044.4 867.4,2080.6 817.8,2120.7 765.5,2164.9 710.5,2213.7  A 1064.250,1064.250 0.00 0,0 713.3,2216.8 L 713.3,2216.8 768.1,2167.9 820.2,2123.4 869.7,2083.1 916.8,2046.7 961.6,2014.0 1004.3,1984.8 1045.0,1958.8 1083.8,1935.8 1120.9,1915.7 1156.4,1898.4 1190.5,1883.6 1223.2,1871.3 1254.8,1861.3 1285.2,1853.6 1314.7,1848.0 1343.4,1844.6 1371.3,1843.2 1398.6,1843.8 1425.4,1846.4 1451.8,1851.1 1477.9,1857.7 1503.8,1866.5 1529.6,1877.3 1555.3,1890.4 1581.1,1905.7 1607.1,1923.3 1633.4,1943.5 1659.9,1966.2 1686.9,1991.8 1714.4,2020.2 1742.4,2051.7 1771.1,2086.5 1800.4,2124.9 1830.6,2166.9 1861.5,2212.9 1893.3,2263.2 1926.1,2318.0 1959.9,2377.6 1994.7,2442.3  Z" style="stroke-width: 2.0;  stroke: rgb(82,82,82); fill: rgb(0,255,0); opacity: 0.667;" />
<path d="M 1994.716,2442.276 A 1064.250,1064.250 0.00 0,1 1991.1,2444.2 L 1991.1,2444.2 1957.0,2379.4 1924.7,2319.7 1894.3,2264.9 1865.5,2214.8 1838.3,2169.0 1812.6,2127.5 1788.4,2089.9 1765.4,2056.1 1743.8,2025.9 1723.2,1999.1 1703.8,1975.7 1685.4,1955.4 1667.9,1938.2 1651.3,1924.0 1635.5,1912.6 1620.5,1904.0 1606.1,1898.2 1592.4,1895.2 1579.2,1894.8 1566.6,1897.1 1554.4,1902.2 1542.7,1909.9 1531.3,1920.5 1520.3,1933.8 1509.6,1950.1 1499.2,1969.3 1489.0,1991.6 1479.0,2017.1 1469.2,2045.9 1459.5,2078.2 1450.0,2114.1 1440.6,2153.9 1431.4,2197.7 1422.2,2245.6 1413.1,2298.1 1404.1,2355.2 1395.1,2417.2 1386.2,2484.4 1377.4,2557.2  A 1064.250,1064.250 0.00 0,0 1381.5,2557.6 L 1381.5,2557.6 1390.0,2484.9 1398.6,2417.6 1407.4,2355.5 1416.2,2298.4 1425.1,2245.9 1434.1,2197.9 1443.2,2154.1 1452.4,2114.3 1461.8,2078.4 1471.3,2046.0 1481.0,2017.2 1490.9,1991.6 1501.0,1969.3 1511.4,1950.0 1522.0,1933.7 1533.0,1920.3 1544.3,1909.8 1556.0,1902.0 1568.1,1896.9 1580.8,1894.5 1593.9,1894.8 1607.7,1897.8 1622.0,1903.6 1637.1,1912.1 1653.0,1923.4 1669.6,1937.6 1687.1,1954.7 1705.6,1974.9 1725.2,1998.3 1745.8,2024.9 1767.6,2055.0 1790.6,2088.8 1815.0,2126.3 1840.9,2167.7 1868.2,2213.4 1897.2,2263.4 1927.9,2318.0 1960.3,2377.6 1994.7,2442.3  Z" style="stroke-width: 2.0;  stroke: rgb(82,82,82); fill: rgb(53,128,0); opacity: 0.667;" />
<path d="M 1994.716,2442.276 A 1064.250,1064.250 0.00 0,1 1991.1,2444.2 L 1991.1,2444.2 1957.0,2379.4 1924.7,2319.7 1894.3,2264.9 1865.6,2214.8 1838.4,2169.0 1812.8,2127.4 1788.6,2089.8 1765.7,2056.0 1744.1,2025.8 1723.7,1999.1 1704.3,1975.6 1686.0,1955.4 1668.7,1938.2 1652.2,1923.9 1636.5,1912.6 1621.6,1904.0 1607.4,1898.3 1593.8,1895.2 1580.8,1894.8 1568.3,1897.2 1556.4,1902.2 1544.8,1910.0 1533.7,1920.6 1522.9,1934.0 1512.4,1950.2 1502.3,1969.5 1492.3,1991.8 1482.7,2017.4 1473.2,2046.3 1463.9,2078.6 1454.7,2114.6 1445.7,2154.4 1436.8,2198.2 1428.1,2246.3 1419.4,2298.8 1410.9,2355.9 1402.5,2418.0 1394.2,2485.3 1386.0,2558.1  A 1064.250,1064.250 0.00 0,0 1390.7,2558.6 L 1390.7,2558.6 1398.6,2485.8 1406.6,2418.5 1414.8,2356.3 1423.1,2299.1 1431.4,2246.6 1440.0,2198.5 1448.6,2154.7 1457.5,2114.8 1466.4,2078.8 1475.6,2046.4 1485.0,2017.5 1494.5,1991.9 1504.3,1969.5 1514.4,1950.2 1524.8,1933.9 1535.5,1920.5 1546.6,1909.9 1558.1,1902.0 1570.0,1896.9 1582.5,1894.5 1595.4,1894.8 1609.0,1897.8 1623.2,1903.6 1638.2,1912.0 1653.9,1923.3 1670.4,1937.5 1687.8,1954.7 1706.2,1974.9 1725.6,1998.2 1746.2,2024.9 1767.9,2055.0 1790.9,2088.7 1815.2,2126.2 1841.0,2167.7 1868.3,2213.3 1897.2,2263.4 1927.9,2318.0 1960.3,2377.6 1994.7,2442.3  Z" style="stroke-width: 2.0;  stroke: rgb(82,82,82); fill: rgb(0,0,204); opacity: 0.667;" />
<path d="M 1994.716,2442.276 A 1064.250,1064.250 0.00 0,1 1991.1,2444.2 L 1991.1,2444.2 1957.3,2379.3 1925.9,2319.3 1896.9,2264.1 1870.1,2213.4 1845.4,2167.0 1822.7,2124.7 1802.0,2086.2 1783.1,2051.4 1765.9,2020.2 1750.3,1992.4 1736.4,1967.8 1724.0,1946.3 1713.0,1927.9 1703.5,1912.4 1695.3,1899.7 1688.5,1889.8 1682.9,1882.6 1678.6,1878.2 1675.6,1876.3 1673.8,1877.2 1673.2,1880.7 1673.8,1886.8 1675.7,1895.7 1678.8,1907.3 1683.2,1921.8 1688.9,1939.1 1695.9,1959.3 1704.2,1982.7 1714.0,2009.2 1725.2,2039.1 1737.9,2072.4 1752.2,2109.3 1768.1,2150.0 1785.8,2194.6 1805.3,2243.5 1826.7,2296.7 1850.0,2354.5 1875.5,2417.2 1903.2,2484.9  A 1064.250,1064.250 0.00 0,0 1907.0,2483.4 L 1907.0,2483.4 1879.0,2415.7 1853.3,2353.1 1829.7,2295.4 1808.1,2242.3 1788.5,2193.5 1770.6,2148.9 1754.5,2108.3 1740.1,2071.4 1727.2,2038.2 1715.9,2008.4 1706.1,1981.9 1697.6,1958.6 1690.5,1938.3 1684.8,1921.1 1680.4,1906.6 1677.2,1895.0 1675.3,1886.2 1674.6,1880.0 1675.2,1876.5 1677.0,1875.7 1680.1,1877.5 1684.4,1881.9 1690.0,1889.1 1696.8,1898.9 1705.1,1911.6 1714.7,1927.0 1725.7,1945.4 1738.2,1966.9 1752.2,1991.4 1767.9,2019.2 1785.2,2050.3 1804.2,2085.0 1825.1,2123.4 1848.0,2165.7 1872.8,2212.0 1899.8,2262.6 1929.0,2317.7 1960.6,2377.5 1994.7,2442.3  Z" style="stroke-width: 2.0;  stroke: rgb(82,82,82); fill: rgb(102,153,255); opacity: 0.667;" />
<path d="M 2185.155,2314.365 A 1064.250,1064.250 0.00 0,1 2181.5,2317.5 L 2181.5,2317.5 2134.8,2259.6 2092.0,2203.0 2052.7,2147.6 2016.4,2093.6 1982.9,2040.8 1951.8,1989.5 1922.8,1939.4 1895.6,1890.8 1869.8,1843.5 1845.3,1797.5 1821.8,1752.7 1798.9,1709.3 1776.6,1667.0 1754.6,1625.8 1732.6,1585.6 1710.6,1546.4 1688.4,1508.0 1665.8,1470.4 1642.8,1433.4 1619.1,1396.9 1594.7,1360.7 1569.6,1324.7 1543.7,1288.8 1516.9,1252.7 1489.2,1216.3 1460.6,1179.3 1431.1,1141.7 1400.7,1103.1 1369.5,1063.3 1337.5,1022.1 1304.9,979.3 1271.6,934.6 1237.8,887.7 1203.6,838.3 1169.1,786.2 1134.6,731.0 1100.1,672.5 1065.9,610.3 1032.1,544.1  A 1064.250,1064.250 0.00 0,0 1028.0,546.2 L 1028.0,546.2 1062.0,612.2 1096.5,674.3 1131.2,732.6 1166.0,787.6 1200.7,839.6 1235.1,888.8 1269.1,935.6 1302.6,980.2 1335.4,1022.8 1367.6,1063.9 1399.0,1103.5 1429.5,1142.0 1459.2,1179.5 1487.9,1216.3 1515.8,1252.6 1542.8,1288.6 1568.9,1324.4 1594.1,1360.3 1618.7,1396.3 1642.5,1432.8 1665.7,1469.7 1688.5,1507.2 1710.9,1545.4 1733.0,1584.6 1755.1,1624.6 1777.4,1665.7 1799.9,1707.9 1822.9,1751.3 1846.7,1795.9 1871.4,1841.8 1897.4,1889.0 1924.8,1937.5 1954.0,1987.4 1985.4,2038.6 2019.1,2091.2 2055.6,2145.1 2095.2,2200.3 2138.2,2256.7 2185.2,2314.4  Z" style="stroke-width: 2.0;  stroke: rgb(82,82,82); fill: rgb(153,204,255); opacity: 0.667;" />
<path d="M 2185.155,2314.365 A 1064.250,1064.250 0.00 0,1 2181.5,2317.5 L 2181.5,2317.5 2133.7,2261.5 2087.8,2210.3 2043.6,2163.6 2001.1,2121.0 1960.1,2082.3 1920.6,2047.2 1882.5,2015.5 1845.6,1986.9 1809.8,1961.3 1775.1,1938.5 1741.3,1918.2 1708.3,1900.4 1676.1,1884.8 1644.5,1871.4 1613.4,1860.1 1582.6,1850.7 1552.2,1843.2 1521.9,1837.5 1491.7,1833.6 1461.4,1831.5 1430.9,1831.1 1400.1,1832.5 1368.9,1835.6 1337.2,1840.6 1304.8,1847.5 1271.6,1856.3 1237.5,1867.2 1202.4,1880.2 1166.1,1895.5 1128.5,1913.2 1089.5,1933.6 1048.9,1956.6 1006.7,1982.7 962.7,2011.9 916.7,2044.4 868.6,2080.6 818.3,2120.7 765.6,2165.0 710.5,2213.7  A 1064.250,1064.250 0.00 0,0 713.3,2216.8 L 713.3,2216.8 768.3,2167.9 820.7,2123.4 870.9,2083.1 918.8,2046.7 964.7,2014.0 1008.6,1984.6 1050.8,1958.4 1091.2,1935.2 1130.2,1914.7 1167.7,1896.8 1203.9,1881.4 1239.0,1868.2 1273.1,1857.2 1306.2,1848.2 1338.6,1841.2 1370.3,1836.1 1401.5,1832.8 1432.3,1831.3 1462.8,1831.6 1493.1,1833.6 1523.4,1837.4 1553.7,1842.9 1584.2,1850.3 1614.9,1859.5 1646.1,1870.7 1677.8,1884.0 1710.1,1899.4 1743.1,1917.1 1777.0,1937.2 1811.8,1959.9 1847.7,1985.3 1884.8,2013.7 1923.1,2045.3 1962.8,2080.2 2003.9,2118.7 2046.6,2161.1 2091.0,2207.6 2137.1,2258.6 2185.2,2314.4  Z" style="stroke-width: 2.0;  stroke: rgb(82,82,82); fill: rgb(0,255,255); opacity: 0.667;" />
<path d="M 2185.155,2314.365 A 1064.250,1064.250 0.00 0,1 2181.5,2317.5 L 2181.5,2317.5 2134.2,2261.5 2089.5,2210.2 2047.5,2163.4 2007.8,2120.8 1970.4,2082.2 1935.2,2047.4 1901.9,2016.2 1870.6,1988.4 1841.0,1963.8 1813.1,1942.4 1786.8,1924.0 1761.9,1908.4 1738.3,1895.6 1716.0,1885.5 1694.9,1877.9 1674.8,1872.9 1655.7,1870.5 1637.5,1870.5 1620.2,1872.9 1603.6,1877.9 1587.8,1885.3 1572.6,1895.2 1558.0,1907.8 1543.9,1922.9 1530.3,1940.8 1517.2,1961.5 1504.5,1985.1 1492.2,2011.8 1480.3,2041.7 1468.6,2074.9 1457.3,2111.6 1446.3,2152.0 1435.6,2196.3 1425.2,2244.7 1415.0,2297.5 1405.2,2354.9 1395.6,2417.1 1386.4,2484.4 1377.4,2557.2  A 1064.250,1064.250 0.00 0,0 1381.5,2557.6 L 1381.5,2557.6 1390.2,2484.8 1399.2,2417.5 1408.5,2355.2 1418.1,2297.8 1428.1,2245.0 1438.3,2196.5 1448.9,2152.2 1459.7,2111.7 1470.9,2075.0 1482.4,2041.7 1494.2,2011.8 1506.4,1985.1 1519.1,1961.4 1532.1,1940.7 1545.6,1922.7 1559.6,1907.5 1574.2,1894.9 1589.4,1884.9 1605.2,1877.4 1621.8,1872.4 1639.1,1869.8 1657.3,1869.8 1676.4,1872.2 1696.5,1877.0 1717.7,1884.5 1740.0,1894.5 1763.7,1907.2 1788.6,1922.7 1815.1,1941.0 1843.1,1962.3 1872.8,1986.7 1904.2,2014.3 1937.6,2045.4 1973.0,2080.0 2010.6,2118.5 2050.4,2160.9 2092.7,2207.5 2137.6,2258.6 2185.2,2314.4  Z" style="stroke-width: 2.0;  stroke: rgb(82,82,82); fill: rgb(204,255,255); opacity: 0.667;" />
<path d="M 2185.155,2314.365 A 1064.250,1064.250 0.00 0,1 2181.5,2317.5 L 2181.5,2317.5 2134.2,2261.5 2089.5,2210.2 2047.5,2163.4 2007.9,2120.7 1970.5,2082.1 1935.3,2047.3 1902.2,2016.1 1870.9,1988.3 1841.4,1963.8 1813.6,1942.4 1787.3,1923.9 1762.5,1908.3 1739.0,1895.5 1716.8,1885.4 1695.8,1877.9 1675.9,1872.9 1656.9,1870.4 1638.9,1870.4 1621.8,1872.9 1605.4,1877.9 1589.7,1885.3 1574.7,1895.3 1560.3,1907.8 1546.5,1923.0 1533.2,1941.0 1520.3,1961.7 1507.9,1985.4 1495.9,2012.1 1484.2,2042.0 1473.0,2075.2 1462.0,2112.0 1451.4,2152.5 1441.1,2196.9 1431.1,2245.3 1421.4,2298.2 1412.0,2355.6 1403.0,2417.9 1394.3,2485.3 1386.0,2558.1  A 1064.250,1064.250 0.00 0,0 1390.7,2558.6 L 1390.7,2558.6 1398.8,2485.8 1407.1,2418.3 1415.9,2356.0 1425.0,2298.5 1434.5,2245.6 1444.2,2197.1 1454.3,2152.7 1464.8,2112.2 1475.6,2075.4 1486.7,2042.1 1498.2,2012.1 1510.1,1985.3 1522.4,1961.6 1535.1,1940.8 1548.4,1922.8 1562.2,1907.6 1576.5,1894.9 1591.5,1884.9 1607.1,1877.4 1623.4,1872.3 1640.6,1869.8 1658.6,1869.7 1677.6,1872.1 1697.5,1877.0 1718.6,1884.4 1740.8,1894.4 1764.3,1907.1 1789.2,1922.6 1815.6,1940.9 1843.5,1962.2 1873.1,1986.6 1904.5,2014.3 1937.8,2045.4 1973.2,2080.0 2010.7,2118.4 2050.5,2160.9 2092.8,2207.5 2137.6,2258.6 2185.2,2314.4  Z" style="stroke-width: 2.0;  stroke: rgb(82,82,82); fill: rgb(153,0,204); opacity: 0.667;" />
<path d="M 2185.155,2314.365 A 1064.250,1064.250 0.00 0,1 2181.5,2317.5 L 2181.5,2317.5 2134.4,2261.3 2090.7,2209.7 2050.0,2162.3 2012.2,2119.0 1977.3,2079.5 1945.0,2043.7 1915.2,2011.4 1887.7,1982.4 1862.6,1956.6 1839.6,1933.9 1818.6,1914.1 1799.6,1897.1 1782.5,1882.8 1767.2,1871.3 1753.6,1862.3 1741.7,1855.8 1731.4,1851.9 1722.6,1850.4 1715.4,1851.4 1709.6,1854.8 1705.4,1860.8 1702.6,1869.2 1701.2,1880.2 1701.4,1893.7 1702.9,1909.9 1706.0,1928.9 1710.6,1950.7 1716.7,1975.4 1724.4,2003.2 1733.7,2034.2 1744.7,2068.5 1757.5,2106.3 1772.1,2147.8 1788.6,2193.1 1807.1,2242.5 1827.7,2296.1 1850.5,2354.2 1875.6,2417.1 1903.2,2484.9  A 1064.250,1064.250 0.00 0,0 1907.0,2483.4 L 1907.0,2483.4 1879.2,2415.6 1853.8,2352.9 1830.8,2294.8 1809.9,2241.3 1791.3,2192.0 1774.6,2146.7 1759.8,2105.3 1746.9,2067.5 1735.8,2033.3 1726.3,2002.3 1718.5,1974.5 1712.3,1949.8 1707.7,1928.1 1704.6,1909.1 1702.9,1892.9 1702.8,1879.3 1704.1,1868.3 1706.9,1859.9 1711.1,1854.0 1716.8,1850.5 1724.1,1849.4 1732.8,1850.9 1743.2,1854.8 1755.2,1861.2 1768.8,1870.1 1784.2,1881.6 1801.4,1895.8 1820.4,1912.6 1841.5,1932.3 1864.6,1955.0 1889.9,1980.7 1917.4,2009.5 1947.4,2041.7 1979.9,2077.4 2015.0,2116.7 2053.0,2159.8 2093.9,2207.0 2137.9,2258.5 2185.2,2314.4  Z" style="stroke-width: 2.0;  stroke: rgb(82,82,82); fill: rgb(204,51,255); opacity: 0.667;" />
<path d="M 2185.155,2314.365 A 1064.250,1064.250 0.00 0,1 2181.5,2317.5 L 2181.5,2317.5 2134.5,2261.3 2090.9,2209.6 2050.4,2162.1 2013.0,2118.6 1978.4,2078.8 1946.6,2042.7 1917.4,2010.1 1890.6,1980.7 1866.2,1954.5 1844.0,1931.4 1823.9,1911.1 1805.9,1893.6 1789.9,1878.8 1775.7,1866.6 1763.4,1857.0 1752.9,1849.9 1744.0,1845.3 1736.8,1843.0 1731.3,1843.2 1727.4,1845.8 1725.0,1850.9 1724.3,1858.4 1725.2,1868.3 1727.7,1880.8 1731.8,1895.9 1737.5,1913.6 1745.0,1934.1 1754.2,1957.5 1765.2,1983.8 1778.0,2013.2 1792.7,2045.9 1809.5,2081.9 1828.3,2121.5 1849.3,2164.8 1872.6,2212.0 1898.3,2263.3 1926.5,2319.0 1957.4,2379.2 1991.1,2444.2  A 1064.250,1064.250 0.00 0,0 1994.7,2442.3 L 1994.7,2442.3 1960.8,2377.4 1929.7,2317.3 1901.3,2261.8 1875.4,2210.5 1851.9,2163.4 1830.7,2120.2 1811.7,2080.7 1794.9,2044.7 1780.0,2012.1 1767.1,1982.8 1756.0,1956.5 1746.7,1933.2 1739.2,1912.7 1733.4,1895.0 1729.2,1879.9 1726.7,1867.4 1725.8,1857.4 1726.5,1849.9 1728.8,1844.9 1732.7,1842.2 1738.3,1842.0 1745.5,1844.2 1754.4,1848.8 1765.0,1855.9 1777.3,1865.4 1791.6,1877.5 1807.7,1892.2 1825.8,1909.6 1845.9,1929.8 1868.2,1952.9 1892.7,1979.0 1919.7,2008.2 1949.0,2040.7 1981.0,2076.7 2015.8,2116.2 2053.4,2159.6 2094.1,2206.9 2137.9,2258.4 2185.2,2314.4  Z" style="stroke-width: 2.0;  stroke: rgb(82,82,82); fill: rgb(204,153,255); opacity: 0.667;" />
<path d="M 2231.323,2273.172 A 1064.250,1064.250 0.00 0,1 2228.4,2275.9 L 2228.4,2275.9 2178.5,2220.9 2132.5,2167.0 2090.0,2114.2 2050.8,2062.5 2014.5,2012.0 1980.7,1962.7 1949.1,1914.6 1919.4,1867.7 1891.3,1822.1 1864.5,1777.7 1838.9,1734.5 1814.1,1692.4 1789.9,1651.4 1766.2,1611.5 1742.7,1572.5 1719.3,1534.4 1695.7,1497.0 1671.9,1460.4 1647.8,1424.3 1623.1,1388.6 1597.9,1353.2 1572.1,1318.0 1545.5,1282.8 1518.1,1247.4 1490.0,1211.6 1461.0,1175.2 1431.2,1138.1 1400.6,1100.1 1369.3,1060.8 1337.2,1020.0 1304.5,977.6 1271.2,933.3 1237.4,886.7 1203.3,837.6 1168.9,785.7 1134.4,730.8 1100.0,672.4 1065.9,610.3 1032.1,544.1  A 1064.250,1064.250 0.00 0,0 1028.0,546.2 L 1028.0,546.2 1062.0,612.2 1096.4,674.2 1131.1,732.4 1165.8,787.2 1200.4,838.9 1234.7,887.9 1268.7,934.3 1302.2,978.5 1335.1,1020.8 1367.4,1061.4 1398.9,1100.5 1429.6,1138.5 1459.6,1175.5 1488.7,1211.7 1517.0,1247.3 1544.5,1282.6 1571.2,1317.8 1597.3,1352.9 1622.6,1388.1 1647.4,1423.7 1671.7,1459.7 1695.6,1496.3 1719.3,1533.5 1742.9,1571.6 1766.6,1610.5 1790.5,1650.3 1814.8,1691.2 1839.7,1733.2 1865.5,1776.3 1892.4,1820.7 1920.7,1866.2 1950.6,1912.9 1982.4,1960.9 2016.4,2010.0 2052.9,2060.4 2092.3,2111.9 2135.0,2164.6 2181.2,2218.4 2231.3,2273.2  Z" style="stroke-width: 2.0;  stroke: rgb(82,82,82); fill: rgb(102,102,102); opacity: 0.667;" />
<path d="M 2231.323,2273.172 A 1064.250,1064.250 0.00 0,1 2228.4,2275.9 L 2228.4,2275.9 2177.4,2222.9 2128.5,2174.5 2081.4,2130.4 2036.3,2090.3 1992.8,2054.0 1951.0,2021.2 1910.6,1991.7 1871.7,1965.2 1834.0,1941.6 1797.5,1920.6 1762.0,1902.0 1727.5,1885.8 1693.8,1871.8 1660.8,1859.8 1628.4,1849.8 1596.4,1841.6 1564.8,1835.2 1533.5,1830.6 1502.2,1827.6 1471.0,1826.3 1439.6,1826.7 1407.9,1828.8 1375.9,1832.6 1343.4,1838.1 1310.3,1845.4 1276.4,1854.7 1241.7,1865.9 1205.9,1879.2 1169.1,1894.8 1131.0,1912.7 1091.5,1933.2 1050.5,1956.4 1007.9,1982.6 963.5,2011.8 917.2,2044.4 868.9,2080.6 818.4,2120.7 765.7,2165.0 710.5,2213.7  A 1064.250,1064.250 0.00 0,0 713.3,2216.8 L 713.3,2216.8 768.3,2167.9 820.9,2123.4 871.2,2083.1 919.4,2046.7 965.5,2013.9 1009.8,1984.5 1052.3,1958.2 1093.2,1934.8 1132.6,1914.2 1170.6,1896.1 1207.4,1880.4 1243.1,1866.9 1277.8,1855.6 1311.6,1846.2 1344.7,1838.7 1377.2,1833.1 1409.2,1829.2 1440.8,1827.0 1472.2,1826.5 1503.5,1827.6 1534.7,1830.5 1566.1,1835.0 1597.7,1841.3 1629.7,1849.3 1662.2,1859.2 1695.2,1871.1 1729.0,1885.0 1763.5,1901.1 1799.1,1919.5 1835.7,1940.3 1873.4,1963.8 1912.5,1990.2 1952.9,2019.5 1994.9,2052.2 2038.5,2088.3 2083.8,2128.2 2131.0,2172.1 2180.1,2220.3 2231.3,2273.2  Z" style="stroke-width: 2.0;  stroke: rgb(82,82,82); fill: rgb(153,153,153); opacity: 0.667;" />
<path d="M 2231.323,2273.172 A 1064.250,1064.250 0.00 0,1 2228.4,2275.9 L 2228.4,2275.9 2177.9,2222.8 2130.2,2174.3 2085.3,2130.1 2042.9,2089.9 2003.0,2053.7 1965.5,2021.1 1930.0,1992.0 1896.7,1966.1 1865.2,1943.5 1835.5,1923.8 1807.4,1907.0 1780.9,1892.9 1755.9,1881.6 1732.2,1872.8 1709.7,1866.5 1688.4,1862.7 1668.2,1861.3 1648.9,1862.3 1630.6,1865.7 1613.1,1871.5 1596.3,1879.7 1580.2,1890.3 1564.8,1903.5 1550.0,1919.3 1535.7,1937.7 1521.9,1958.9 1508.6,1983.0 1495.7,2010.0 1483.2,2040.2 1471.0,2073.7 1459.3,2110.7 1447.8,2151.3 1436.7,2195.8 1426.0,2244.4 1415.6,2297.3 1405.5,2354.7 1395.8,2417.0 1386.4,2484.4 1377.4,2557.2  A 1064.250,1064.250 0.00 0,0 1381.5,2557.6 L 1381.5,2557.6 1390.2,2484.8 1399.3,2417.4 1408.8,2355.1 1418.6,2297.6 1428.9,2244.7 1439.4,2196.1 1450.3,2151.5 1461.6,2110.9 1473.2,2073.8 1485.2,2040.3 1497.6,2010.0 1510.4,1982.9 1523.7,1958.8 1537.4,1937.6 1551.6,1919.1 1566.4,1903.3 1581.7,1890.0 1597.7,1879.3 1614.5,1871.0 1632.0,1865.2 1650.3,1861.7 1669.6,1860.6 1689.8,1862.0 1711.1,1865.7 1733.6,1871.9 1757.3,1880.6 1782.4,1891.9 1809.0,1905.8 1837.1,1922.5 1866.8,1942.1 1898.4,1964.6 1931.9,1990.3 1967.4,2019.3 2005.1,2051.8 2045.1,2087.9 2087.6,2127.9 2132.7,2171.9 2180.6,2220.3 2231.3,2273.2  Z" style="stroke-width: 2.0;  stroke: rgb(82,82,82); fill: rgb(204,204,204); opacity: 0.667;" />
<path d="M 2231.323,2273.172 A 1064.250,1064.250 0.00 0,1 2228.4,2275.9 L 2228.4,2275.9 2177.9,2222.8 2130.2,2174.3 2085.3,2130.1 2043.0,2089.9 2003.2,2053.6 1965.6,2021.0 1930.3,1991.9 1896.9,1966.1 1865.5,1943.4 1835.9,1923.7 1807.9,1906.9 1781.6,1892.9 1756.6,1881.5 1733.0,1872.7 1710.7,1866.4 1689.5,1862.6 1669.4,1861.2 1650.3,1862.2 1632.1,1865.6 1614.8,1871.4 1598.2,1879.7 1582.3,1890.4 1567.1,1903.6 1552.5,1919.4 1538.5,1937.9 1525.0,1959.1 1511.9,1983.2 1499.3,2010.3 1487.1,2040.6 1475.3,2074.1 1463.9,2111.1 1452.9,2151.8 1442.2,2196.4 1431.9,2245.0 1421.9,2298.0 1412.3,2355.5 1403.1,2417.8 1394.3,2485.3 1386.0,2558.1  A 1064.250,1064.250 0.00 0,0 1390.7,2558.6 L 1390.7,2558.6 1398.8,2485.8 1407.3,2418.3 1416.2,2355.9 1425.5,2298.3 1435.2,2245.3 1445.3,2196.6 1455.8,2152.0 1466.7,2111.3 1477.9,2074.2 1489.5,2040.6 1501.6,2010.3 1514.0,1983.2 1527.0,1959.0 1540.4,1937.7 1554.4,1919.2 1568.9,1903.4 1584.0,1890.1 1599.8,1879.3 1616.3,1871.0 1633.7,1865.1 1651.8,1861.7 1670.9,1860.6 1691.0,1861.9 1712.2,1865.6 1734.5,1871.8 1758.1,1880.5 1783.1,1891.8 1809.5,1905.7 1837.5,1922.4 1867.2,1942.0 1898.7,1964.6 1932.1,1990.3 1967.6,2019.3 2005.2,2051.8 2045.2,2087.9 2087.7,2127.9 2132.7,2171.9 2180.6,2220.3 2231.3,2273.2  Z" style="stroke-width: 2.0;  stroke: rgb(82,82,82); fill: rgb(204,204,153); opacity: 0.667;" />
<path d="M 2231.323,2273.172 A 1064.250,1064.250 0.00 0,1 2228.4,2275.9 L 2228.4,2275.9 2178.1,2222.7 2131.3,2173.8 2087.8,2129.0 2047.3,2088.1 2009.8,2050.9 1975.2,2017.2 1943.1,1986.9 1913.6,1959.8 1886.5,1935.8 1861.7,1914.8 1839.0,1896.5 1818.4,1881.0 1799.8,1868.2 1783.1,1857.9 1768.1,1850.1 1755.0,1844.8 1743.5,1841.9 1733.6,1841.4 1725.4,1843.3 1718.7,1847.6 1713.5,1854.4 1709.9,1863.5 1707.7,1875.2 1707.1,1889.4 1708.0,1906.2 1710.4,1925.6 1714.3,1947.9 1719.9,1973.1 1727.0,2001.3 1735.9,2032.6 1746.5,2067.3 1758.8,2105.4 1773.1,2147.1 1789.3,2192.6 1807.6,2242.2 1828.0,2295.9 1850.6,2354.2 1875.7,2417.1 1903.2,2484.9  A 1064.250,1064.250 0.00 0,0 1907.0,2483.4 L 1907.0,2483.4 1879.2,2415.6 1853.9,2352.8 1831.0,2294.7 1810.4,2241.0 1792.0,2191.5 1775.6,2146.0 1761.2,2104.4 1748.6,2066.3 1737.9,2031.7 1729.0,2000.4 1721.7,1972.3 1716.0,1947.1 1712.0,1924.8 1709.5,1905.4 1708.6,1888.6 1709.2,1874.4 1711.3,1862.7 1714.9,1853.5 1720.0,1846.8 1726.7,1842.5 1734.9,1840.5 1744.8,1841.0 1756.3,1843.8 1769.5,1849.1 1784.4,1856.8 1801.2,1867.0 1819.8,1879.8 1840.5,1895.3 1863.2,1913.4 1888.1,1934.4 1915.3,1958.3 1945.0,1985.3 1977.1,2015.4 2011.9,2049.0 2049.5,2086.0 2090.1,2126.8 2133.8,2171.4 2180.8,2220.1 2231.3,2273.2  Z" style="stroke-width: 2.0;  stroke: rgb(82,82,82); fill: rgb(251,106,74); opacity: 0.667;" />
<path d="M 2231.323,2273.172 A 1064.250,1064.250 0.00 0,1 2228.4,2275.9 L 2228.4,2275.9 2178.2,2222.6 2131.5,2173.6 2088.2,2128.7 2048.1,2087.6 2011.0,2050.2 1976.8,2016.2 1945.3,1985.6 1916.4,1958.1 1890.1,1933.7 1866.0,1912.2 1844.3,1893.5 1824.7,1877.4 1807.1,1864.0 1791.5,1853.1 1777.9,1844.7 1766.1,1838.8 1756.1,1835.2 1747.8,1833.9 1741.2,1835.0 1736.3,1838.5 1733.1,1844.3 1731.5,1852.5 1731.6,1863.2 1733.3,1876.3 1736.7,1892.0 1741.9,1910.3 1748.7,1931.3 1757.3,1955.1 1767.8,1981.8 1780.1,2011.6 1794.5,2044.6 1810.8,2080.9 1829.3,2120.8 1850.0,2164.3 1873.1,2211.7 1898.6,2263.1 1926.7,2318.9 1957.5,2379.1 1991.1,2444.2  A 1064.250,1064.250 0.00 0,0 1994.7,2442.3 L 1994.7,2442.3 1960.8,2377.4 1929.8,2317.2 1901.5,2261.6 1875.8,2210.2 1852.6,2162.9 1831.7,2119.5 1813.1,2079.7 1796.6,2043.5 1782.1,2010.5 1769.6,1980.8 1759.1,1954.1 1750.4,1930.3 1743.4,1909.4 1738.2,1891.1 1734.8,1875.4 1733.0,1862.3 1732.9,1851.7 1734.4,1843.4 1737.6,1837.6 1742.5,1834.1 1749.0,1833.0 1757.3,1834.2 1767.4,1837.7 1779.2,1843.7 1792.9,1852.0 1808.5,1862.9 1826.1,1876.2 1845.8,1892.2 1867.6,1910.8 1891.7,1932.2 1918.2,1956.6 1947.1,1983.9 1978.7,2014.4 2013.0,2048.2 2050.3,2085.5 2090.5,2126.5 2134.0,2171.3 2180.9,2220.1 2231.3,2273.2  Z" style="stroke-width: 2.0;  stroke: rgb(82,82,82); fill: rgb(116,196,118); opacity: 0.667;" />
<path d="M 2231.323,2273.172 A 1064.250,1064.250 0.00 0,1 2228.4,2275.9 L 2228.4,2275.9 2178.3,2222.6 2131.9,2173.3 2089.1,2128.0 2049.7,2086.3 2013.5,2048.2 1980.4,2013.5 1950.1,1981.9 1922.7,1953.4 1897.9,1927.8 1875.7,1905.0 1855.9,1884.9 1838.4,1867.3 1823.2,1852.3 1810.2,1839.6 1799.3,1829.3 1790.4,1821.3 1783.6,1815.6 1778.7,1812.0 1775.8,1810.7 1774.8,1811.6 1775.8,1814.6 1778.7,1819.9 1783.6,1827.4 1790.5,1837.1 1799.3,1849.2 1810.3,1863.7 1823.4,1880.6 1838.7,1900.1 1856.3,1922.2 1876.2,1947.0 1898.6,1974.8 1923.5,2005.5 1951.2,2039.3 1981.6,2076.4 2015.1,2117.0 2051.6,2161.2 2091.4,2209.2 2134.6,2261.2 2181.5,2317.5  A 1064.250,1064.250 0.00 0,0 2185.2,2314.4 L 2185.2,2314.4 2138.1,2258.3 2094.6,2206.5 2054.6,2158.7 2017.8,2114.6 1984.2,2074.2 1953.6,2037.3 1925.8,2003.5 1900.7,1973.0 1878.2,1945.4 1858.1,1920.6 1840.5,1898.6 1825.1,1879.2 1811.9,1862.3 1800.9,1847.9 1791.9,1835.9 1785.0,1826.2 1780.1,1818.7 1777.1,1813.5 1776.1,1810.4 1777.1,1809.6 1780.0,1810.9 1784.8,1814.4 1791.7,1820.2 1800.6,1828.2 1811.5,1838.4 1824.6,1851.0 1839.8,1866.0 1857.4,1883.5 1877.2,1903.6 1899.6,1926.3 1924.4,1951.8 1952.0,1980.2 1982.3,2011.7 2015.5,2046.3 2051.9,2084.3 2091.5,2125.8 2134.4,2170.9 2181.0,2220.0 2231.3,2273.2  Z" style="stroke-width: 2.0;  stroke: rgb(82,82,82); fill: rgb(107,174,214); opacity: 0.667;" />
<path d="M 2324.357,826.900 A 1064.250,1064.250 0.00 0,1 2327.0,830.1 L 2327.0,830.1 2269.4,875.8 2214.8,917.1 2162.9,954.5 2113.7,988.0 2066.9,1018.1 2022.4,1044.8 1980.1,1068.4 1939.8,1089.1 1901.3,1107.0 1864.5,1122.3 1829.4,1135.1 1795.6,1145.5 1763.2,1153.8 1731.9,1159.8 1701.7,1163.8 1672.5,1165.8 1644.0,1165.7 1616.3,1163.8 1589.1,1159.8 1562.5,1153.9 1536.2,1146.1 1510.2,1136.2 1484.4,1124.2 1458.6,1110.1 1432.9,1093.8 1407.1,1075.1 1381.2,1054.0 1355.0,1030.3 1328.5,1003.8 1301.6,974.5 1274.2,942.1 1246.4,906.3 1217.9,867.1 1188.9,824.1 1159.1,777.2 1128.6,726.0 1097.3,670.3 1065.1,609.8 1032.1,544.1  A 1064.250,1064.250 0.00 0,0 1028.0,546.2 L 1028.0,546.2 1061.3,611.7 1093.6,672.1 1125.2,727.6 1155.9,778.7 1185.9,825.5 1215.2,868.3 1243.8,907.4 1271.8,943.1 1299.3,975.4 1326.3,1004.6 1353.0,1030.9 1379.3,1054.5 1405.3,1075.6 1431.2,1094.1 1457.0,1110.3 1482.8,1124.3 1508.6,1136.2 1534.7,1146.0 1561.0,1153.7 1587.7,1159.5 1614.9,1163.3 1642.6,1165.2 1671.1,1165.1 1700.4,1163.0 1730.6,1158.9 1761.8,1152.7 1794.2,1144.4 1827.9,1133.8 1863.0,1120.8 1899.7,1105.4 1938.1,1087.4 1978.4,1066.5 2020.6,1042.8 2065.0,1015.9 2111.7,985.7 2160.8,951.9 2212.5,914.4 2267.0,872.8 2324.4,826.9  Z" style="stroke-width: 2.0;  stroke: rgb(82,82,82); fill: rgb(253,141,60); opacity: 0.667;" />
<path d="M 2324.357,826.900 A 1064.250,1064.250 0.00 0,1 2327.0,830.1 L 2327.0,830.1 2269.9,877.9 2216.7,925.4 2167.0,972.3 2120.4,1018.7 2076.6,1064.2 2035.3,1108.9 1996.1,1152.6 1958.9,1195.2 1923.2,1236.7 1888.8,1277.0 1855.5,1316.0 1823.0,1353.8 1791.1,1390.2 1759.6,1425.5 1728.1,1459.4 1696.7,1492.1 1665.0,1523.7 1633.0,1554.1 1600.4,1583.6 1567.1,1612.1 1533.0,1639.7 1497.9,1666.7 1461.9,1693.1 1424.7,1719.1 1386.3,1744.9 1346.6,1770.7 1305.7,1796.6 1263.3,1822.9 1219.6,1849.7 1174.5,1877.5 1128.0,1906.3 1080.2,1936.6 1031.0,1968.5 980.4,2002.4 928.7,2038.6 875.7,2077.5 821.6,2119.4 766.5,2164.6 710.5,2213.7  A 1064.250,1064.250 0.00 0,0 713.3,2216.8 L 713.3,2216.8 769.1,2167.5 824.1,2122.1 878.0,2080.0 930.8,2040.9 982.4,2004.5 1032.8,1970.3 1081.9,1938.2 1129.6,1907.8 1176.0,1878.8 1221.0,1850.9 1264.6,1823.8 1306.8,1797.4 1347.7,1771.3 1387.3,1745.4 1425.5,1719.4 1462.6,1693.3 1498.6,1666.7 1533.5,1639.6 1567.5,1611.8 1600.7,1583.2 1633.2,1553.6 1665.1,1523.1 1696.7,1491.4 1728.0,1458.5 1759.3,1424.4 1790.7,1389.1 1822.5,1352.5 1854.8,1314.6 1888.0,1275.5 1922.2,1235.0 1957.7,1193.4 1994.8,1150.7 2033.8,1106.8 2074.9,1062.0 2118.5,1016.2 2164.9,969.7 2214.4,922.6 2267.5,874.9 2324.4,826.9  Z" style="stroke-width: 2.0;  stroke: rgb(82,82,82); fill: rgb(255,0,0); opacity: 0.667;" />
<path d="M 2324.357,826.900 A 1064.250,1064.250 0.00 0,1 2327.0,830.1 L 2327.0,830.1 2270.2,877.6 2217.8,924.1 2169.5,969.8 2124.9,1014.5 2083.7,1058.4 2045.6,1101.3 2010.2,1143.3 1977.2,1184.4 1946.5,1224.7 1917.8,1264.1 1890.7,1302.8 1865.2,1340.8 1840.9,1378.2 1817.8,1415.0 1795.6,1451.4 1774.1,1487.3 1753.3,1523.0 1733.0,1558.6 1713.2,1594.0 1693.6,1629.6 1674.3,1665.4 1655.2,1701.6 1636.2,1738.2 1617.3,1775.6 1598.5,1813.8 1579.8,1853.1 1561.2,1893.6 1542.8,1935.5 1524.6,1979.1 1506.7,2024.5 1489.2,2072.1 1472.1,2121.9 1455.6,2174.3 1439.8,2229.5 1424.9,2287.8 1411.0,2349.4 1398.3,2414.6 1387.1,2483.8 1377.4,2557.2  A 1064.250,1064.250 0.00 0,0 1381.5,2557.6 L 1381.5,2557.6 1390.9,2484.2 1401.9,2415.0 1414.3,2349.7 1427.9,2288.1 1442.6,2229.7 1458.2,2174.4 1474.5,2122.0 1491.4,2072.1 1508.8,2024.5 1526.5,1979.0 1544.5,1935.4 1562.8,1893.4 1581.2,1852.8 1599.7,1813.4 1618.3,1775.1 1637.1,1737.7 1655.9,1701.0 1674.9,1664.7 1694.1,1628.9 1713.5,1593.2 1733.3,1557.7 1753.4,1522.1 1774.1,1486.3 1795.4,1450.2 1817.4,1413.8 1840.4,1376.9 1864.5,1339.4 1889.9,1301.3 1916.8,1262.5 1945.4,1222.9 1976.0,1182.5 2008.8,1141.3 2044.0,1099.1 2082.0,1056.1 2123.0,1012.1 2167.5,967.2 2215.6,921.3 2267.8,874.6 2324.4,826.9  Z" style="stroke-width: 2.0;  stroke: rgb(82,82,82); fill: rgb(255,0,204); opacity: 0.667;" />
<path d="M 2324.357,826.900 A 1064.250,1064.250 0.00 0,1 2327.0,830.1 L 2327.0,830.1 2270.2,877.6 2217.8,924.1 2169.6,969.8 2125.0,1014.5 2083.8,1058.3 2045.7,1101.1 2010.3,1143.1 1977.4,1184.2 1946.8,1224.5 1918.1,1263.9 1891.1,1302.6 1865.6,1340.6 1841.5,1377.9 1818.4,1414.7 1796.3,1451.1 1775.0,1487.0 1754.3,1522.7 1734.2,1558.2 1714.5,1593.7 1695.1,1629.3 1676.0,1665.1 1657.1,1701.3 1638.3,1738.0 1619.6,1775.5 1601.1,1813.7 1582.7,1853.1 1564.4,1893.6 1546.3,1935.6 1528.5,1979.3 1510.9,2024.8 1493.8,2072.4 1477.1,2122.3 1461.0,2174.8 1445.7,2230.1 1431.2,2288.4 1417.9,2350.1 1405.7,2415.5 1395.0,2484.7 1386.0,2558.1  A 1064.250,1064.250 0.00 0,0 1390.7,2558.6 L 1390.7,2558.6 1399.5,2485.2 1409.9,2415.9 1421.7,2350.5 1434.8,2288.7 1449.0,2230.3 1464.1,2174.9 1479.9,2122.4 1496.3,2072.4 1513.3,2024.8 1530.6,1979.2 1548.3,1935.5 1566.2,1893.4 1584.3,1852.7 1602.5,1813.3 1620.9,1775.0 1639.4,1737.5 1658.0,1700.7 1676.8,1664.4 1695.7,1628.5 1715.0,1592.9 1734.5,1557.3 1754.5,1521.7 1775.0,1485.9 1796.2,1449.9 1818.1,1413.5 1841.0,1376.6 1865.0,1339.1 1890.3,1301.0 1917.2,1262.2 1945.7,1222.7 1976.2,1182.3 2008.9,1141.1 2044.1,1099.0 2082.1,1056.0 2123.1,1012.0 2167.5,967.2 2215.6,921.3 2267.8,874.6 2324.4,826.9  Z" style="stroke-width: 2.0;  stroke: rgb(82,82,82); fill: rgb(255,204,204); opacity: 0.667;" />
<path d="M 2324.357,826.900 A 1064.250,1064.250 0.00 0,1 2327.0,830.1 L 2327.0,830.1 2270.3,877.3 2218.3,923.1 2170.7,967.5 2127.1,1010.6 2087.3,1052.5 2050.8,1093.3 2017.6,1133.0 1987.3,1171.6 1959.7,1209.4 1934.5,1246.3 1911.6,1282.4 1890.8,1317.9 1872.0,1352.8 1854.9,1387.3 1839.4,1421.4 1825.4,1455.3 1812.9,1489.0 1801.7,1522.7 1791.7,1556.6 1783.0,1590.6 1775.5,1625.1 1769.1,1660.0 1763.9,1695.7 1759.8,1732.1 1757.0,1769.4 1755.4,1807.8 1755.2,1847.5 1756.4,1888.7 1759.1,1931.4 1763.4,1975.8 1769.5,2022.2 1777.5,2070.7 1787.6,2121.4 1799.9,2174.7 1814.7,2230.6 1832.2,2289.4 1852.6,2351.2 1876.2,2416.3 1903.2,2484.9  A 1064.250,1064.250 0.00 0,0 1907.0,2483.4 L 1907.0,2483.4 1879.7,2414.9 1855.9,2349.8 1835.2,2288.1 1817.5,2229.4 1802.5,2173.5 1789.9,2120.3 1779.7,2069.6 1771.5,2021.1 1765.2,1974.8 1760.7,1930.3 1757.9,1887.7 1756.5,1846.6 1756.6,1806.9 1758.0,1768.4 1760.7,1731.1 1764.6,1694.6 1769.7,1659.0 1776.0,1624.0 1783.4,1589.5 1792.0,1555.4 1801.8,1521.5 1812.8,1487.8 1825.3,1454.0 1839.1,1420.1 1854.4,1385.9 1871.4,1351.4 1890.1,1316.4 1910.8,1280.8 1933.5,1244.6 1958.5,1207.6 1986.0,1169.7 2016.2,1131.0 2049.3,1091.1 2085.5,1050.2 2125.2,1008.2 2168.6,964.9 2216.1,920.3 2267.9,874.3 2324.4,826.9  Z" style="stroke-width: 2.0;  stroke: rgb(82,82,82); fill: rgb(255,153,0); opacity: 0.667;" />
<path d="M 2324.357,826.900 A 1064.250,1064.250 0.00 0,1 2327.0,830.1 L 2327.0,830.1 2270.3,877.2 2218.4,922.8 2170.9,967.0 2127.4,1009.8 2087.7,1051.4 2051.6,1091.7 2018.6,1130.8 1988.7,1168.9 1961.6,1206.1 1937.0,1242.4 1914.7,1277.8 1894.7,1312.6 1876.7,1346.9 1860.5,1380.6 1846.2,1414.0 1833.4,1447.1 1822.3,1480.0 1812.5,1513.0 1804.3,1546.0 1797.3,1579.2 1791.8,1612.8 1787.5,1646.9 1784.6,1681.5 1783.1,1717.0 1783.0,1753.3 1784.3,1790.7 1787.2,1829.2 1791.7,1869.2 1797.9,1910.6 1806.0,1953.6 1816.1,1998.5 1828.3,2045.4 1842.9,2094.5 1860.0,2145.9 1879.8,2199.8 1902.6,2256.4 1928.5,2315.8 1957.9,2378.4 1991.1,2444.2  A 1064.250,1064.250 0.00 0,0 1994.7,2442.3 L 1994.7,2442.3 1961.3,2376.6 1931.7,2314.2 1905.5,2254.8 1882.5,2198.3 1862.4,2144.5 1845.2,2093.2 1830.4,2044.2 1818.0,1997.3 1807.7,1952.5 1799.5,1909.4 1793.1,1868.0 1788.4,1828.1 1785.4,1789.6 1783.9,1752.2 1783.9,1715.9 1785.3,1680.4 1788.1,1645.8 1792.2,1611.7 1797.6,1578.1 1804.4,1544.8 1812.6,1511.7 1822.2,1478.8 1833.2,1445.8 1845.8,1412.6 1860.1,1379.2 1876.1,1345.4 1893.9,1311.1 1913.9,1276.2 1935.9,1240.7 1960.4,1204.3 1987.4,1167.0 2017.2,1128.8 2050.0,1089.5 2086.0,1049.1 2125.5,1007.4 2168.8,964.4 2216.2,920.1 2267.9,874.2 2324.4,826.9  Z" style="stroke-width: 2.0;  stroke: rgb(82,82,82); fill: rgb(255,204,0); opacity: 0.667;" />
<path d="M 2324.357,826.900 A 1064.250,1064.250 0.00 0,1 2327.0,830.1 L 2327.0,830.1 2270.4,877.1 2218.5,922.3 2171.1,965.9 2127.9,1007.9 2088.6,1048.5 2052.9,1087.6 2020.6,1125.5 1991.5,1162.2 1965.3,1197.8 1941.8,1232.4 1920.9,1266.1 1902.5,1299.1 1886.3,1331.3 1872.2,1363.0 1860.2,1394.3 1850.1,1425.2 1841.8,1455.8 1835.3,1486.4 1830.6,1516.9 1827.6,1547.5 1826.3,1578.4 1826.8,1609.6 1828.9,1641.2 1832.8,1673.5 1838.6,1706.5 1846.3,1740.3 1855.9,1775.1 1867.6,1811.0 1881.6,1848.2 1897.9,1886.7 1916.7,1926.7 1938.2,1968.3 1962.5,2011.7 1989.9,2057.0 2020.7,2104.4 2054.9,2154.0 2092.9,2206.0 2135.0,2260.4 2181.5,2317.5  A 1064.250,1064.250 0.00 0,0 2185.2,2314.4 L 2185.2,2314.4 2138.5,2257.5 2096.1,2203.3 2057.8,2151.5 2023.4,2102.1 1992.4,2054.8 1964.8,2009.6 1940.3,1966.3 1918.6,1924.8 1899.6,1884.9 1883.1,1846.5 1869.0,1809.4 1857.1,1773.6 1847.4,1738.8 1839.6,1705.0 1833.7,1672.1 1829.6,1639.8 1827.3,1608.2 1826.7,1577.0 1827.9,1546.1 1830.8,1515.5 1835.3,1485.0 1841.7,1454.4 1849.8,1423.7 1859.8,1392.8 1871.7,1361.5 1885.6,1329.8 1901.7,1297.5 1920.0,1264.5 1940.8,1230.7 1964.1,1196.0 1990.2,1160.3 2019.2,1123.5 2051.3,1085.5 2086.8,1046.2 2126.0,1005.5 2169.0,963.3 2216.3,919.5 2267.9,874.1 2324.4,826.9  Z" style="stroke-width: 2.0;  stroke: rgb(82,82,82); fill: rgb(255,255,0); opacity: 0.667;" />
<path d="M 2324.357,826.900 A 1064.250,1064.250 0.00 0,1 2327.0,830.1 L 2327.0,830.1 2270.4,877.1 2218.5,922.2 2171.2,965.6 2128.0,1007.4 2088.8,1047.7 2053.2,1086.5 2021.0,1124.0 1992.1,1160.3 1966.1,1195.4 1942.9,1229.5 1922.3,1262.7 1904.2,1295.1 1888.5,1326.8 1874.9,1357.9 1863.4,1388.4 1854.0,1418.6 1846.4,1448.5 1840.8,1478.3 1836.9,1508.0 1834.9,1537.8 1834.7,1567.7 1836.3,1598.0 1839.7,1628.7 1844.9,1659.9 1852.2,1691.7 1861.4,1724.3 1872.7,1757.9 1886.2,1792.4 1902.1,1828.1 1920.4,1865.0 1941.4,1903.4 1965.2,1943.2 1992.0,1984.8 2021.9,2028.1 2055.4,2073.3 2092.5,2120.5 2133.5,2170.0 2178.7,2221.7 2228.4,2275.9  A 1064.250,1064.250 0.00 0,0 2231.3,2273.2 L 2231.3,2273.2 2181.4,2219.2 2136.0,2167.6 2094.8,2118.3 2057.5,2071.2 2023.9,2026.1 1993.8,1982.9 1966.8,1941.5 1942.9,1901.7 1921.8,1863.4 1903.3,1826.6 1887.3,1790.9 1873.7,1756.4 1862.2,1723.0 1852.9,1690.4 1845.5,1658.5 1840.1,1627.4 1836.6,1596.7 1834.9,1566.5 1835.0,1536.5 1837.0,1506.7 1840.7,1477.0 1846.2,1447.2 1853.7,1417.3 1863.0,1387.0 1874.4,1356.4 1887.8,1325.3 1903.4,1293.5 1921.4,1261.1 1941.8,1227.8 1964.9,1193.6 1990.7,1158.4 2019.6,1122.0 2051.6,1084.3 2087.0,1045.4 2126.1,1005.0 2169.1,963.0 2216.3,919.4 2267.9,874.1 2324.4,826.9  Z" style="stroke-width: 2.0;  stroke: rgb(82,82,82); fill: rgb(204,255,0); opacity: 0.667;" />
<path d="M 883.216,2367.298 A 1064.250,1064.250 0.00 0,1 880.8,2365.6 L 880.8,2365.6 923.4,2306.0 962.8,2251.1 999.2,2200.4 1032.6,2153.9 1063.4,2111.2 1091.5,2072.3 1117.1,2036.9 1140.3,2004.9 1161.3,1976.1 1180.1,1950.4 1196.9,1927.7 1211.6,1907.8 1224.4,1890.7 1235.3,1876.3 1244.5,1864.4 1251.9,1855.1 1257.5,1848.2 1261.5,1843.8 1263.8,1841.9 1264.4,1842.3 1263.3,1845.1 1260.6,1850.4 1256.2,1858.1 1250.1,1868.3 1242.3,1881.1 1232.7,1896.4 1221.2,1914.5 1207.9,1935.3 1192.6,1959.0 1175.3,1985.8 1155.8,2015.6 1134.2,2048.7 1110.2,2085.2 1083.8,2125.3 1054.9,2169.2 1023.2,2217.0 988.8,2269.0 951.4,2325.4 910.9,2386.4  A 1064.250,1064.250 0.00 0,0 913.4,2388.0 L 913.4,2388.0 953.8,2326.9 991.0,2270.4 1025.3,2218.4 1056.7,2170.4 1085.6,2126.5 1111.8,2086.3 1135.7,2049.7 1157.3,2016.6 1176.6,1986.7 1193.9,1959.9 1209.1,1936.2 1222.4,1915.3 1233.8,1897.2 1243.4,1881.8 1251.2,1869.0 1257.3,1858.8 1261.6,1851.1 1264.3,1845.8 1265.3,1842.9 1264.7,1842.5 1262.4,1844.5 1258.5,1848.9 1252.9,1855.8 1245.5,1865.1 1236.4,1877.0 1225.5,1891.5 1212.7,1908.7 1198.1,1928.6 1181.4,1951.3 1162.7,1977.1 1141.8,2005.9 1118.6,2038.0 1093.1,2073.4 1065.1,2112.4 1034.5,2155.2 1001.1,2201.8 964.9,2252.6 925.7,2307.7 883.2,2367.3  Z" style="stroke-width: 2.0;  stroke: rgb(82,82,82); fill: rgb(0,255,0); opacity: 0.667;" />
<path d="M 875.126,2361.487 A 1064.250,1064.250 0.00 0,1 872.7,2359.7 L 872.7,2359.7 915.9,2300.6 955.8,2246.0 992.7,2195.7 1026.6,2149.5 1057.8,2107.2 1086.3,2068.6 1112.3,2033.5 1135.9,2001.7 1157.2,1973.2 1176.4,1947.7 1193.4,1925.2 1208.4,1905.6 1221.5,1888.6 1232.7,1874.4 1242.0,1862.7 1249.6,1853.5 1255.5,1846.8 1259.6,1842.5 1262.1,1840.7 1262.9,1841.2 1262.0,1844.2 1259.4,1849.5 1255.2,1857.4 1249.2,1867.7 1241.5,1880.5 1232.0,1895.9 1220.6,1914.1 1207.4,1935.0 1192.2,1958.7 1174.9,1985.5 1155.6,2015.4 1134.0,2048.5 1110.0,2085.1 1083.7,2125.2 1054.8,2169.1 1023.2,2217.0 988.8,2269.0 951.4,2325.4 910.9,2386.4  A 1064.250,1064.250 0.00 0,0 913.4,2388.0 L 913.4,2388.0 953.7,2326.9 991.0,2270.4 1025.2,2218.3 1056.7,2170.4 1085.5,2126.4 1111.7,2086.2 1135.5,2049.6 1157.0,2016.4 1176.3,1986.4 1193.5,1959.6 1208.6,1935.8 1221.8,1914.9 1233.1,1896.7 1242.6,1881.2 1250.2,1868.4 1256.2,1858.0 1260.4,1850.2 1263.0,1844.8 1263.8,1841.9 1263.1,1841.3 1260.6,1843.2 1256.5,1847.5 1250.6,1854.2 1243.1,1863.4 1233.7,1875.1 1222.6,1889.4 1209.5,1906.4 1194.6,1926.1 1177.6,1948.6 1158.6,1974.1 1137.3,2002.7 1113.8,2034.5 1087.9,2069.7 1059.5,2108.4 1028.4,2150.8 994.6,2197.1 957.9,2247.5 918.1,2302.2 875.1,2361.5  Z" style="stroke-width: 2.0;  stroke: rgb(82,82,82); fill: rgb(53,128,0); opacity: 0.667;" />
<path d="M 875.126,2361.487 A 1064.250,1064.250 0.00 0,1 872.7,2359.7 L 872.7,2359.7 915.9,2300.6 955.8,2246.0 992.5,2195.6 1026.4,2149.3 1057.4,2106.9 1085.7,2068.1 1111.5,2032.9 1134.9,2001.0 1155.9,1972.3 1174.8,1946.6 1191.5,1923.9 1206.2,1904.0 1218.9,1886.8 1229.6,1872.2 1238.6,1860.2 1245.7,1850.7 1251.1,1843.7 1254.7,1839.1 1256.5,1836.8 1256.7,1836.9 1255.2,1839.4 1251.9,1844.3 1246.9,1851.6 1240.1,1861.3 1231.5,1873.6 1221.1,1888.4 1208.7,1905.8 1194.5,1926.0 1178.1,1949.0 1159.7,1975.0 1139.0,2004.0 1116.1,2036.2 1090.7,2071.8 1062.8,2110.8 1032.3,2153.6 999.0,2200.3 962.7,2251.0 923.4,2306.0 880.8,2365.6  A 1064.250,1064.250 0.00 0,0 883.2,2367.3 L 883.2,2367.3 925.6,2307.6 964.8,2252.5 1000.9,2201.7 1034.1,2154.9 1064.6,2112.1 1092.3,2072.9 1117.6,2037.3 1140.5,2005.0 1161.0,1975.9 1179.4,1949.9 1195.6,1926.9 1209.9,1906.7 1222.2,1889.2 1232.6,1874.3 1241.1,1862.1 1247.9,1852.3 1252.9,1845.0 1256.1,1840.1 1257.7,1837.6 1257.5,1837.5 1255.6,1839.7 1252.0,1844.4 1246.7,1851.5 1239.6,1861.0 1230.7,1873.0 1219.9,1887.6 1207.3,1904.8 1192.7,1924.8 1176.0,1947.5 1157.3,1973.2 1136.3,2002.0 1113.0,2034.0 1087.3,2069.3 1059.1,2108.1 1028.2,2150.6 994.5,2197.0 957.8,2247.5 918.1,2302.2 875.1,2361.5  Z" style="stroke-width: 2.0;  stroke: rgb(82,82,82); fill: rgb(0,0,204); opacity: 0.667;" />
<path d="M 1735.500,462.133 A 1064.250,1064.250 0.00 0,1 1739.0,462.9 L 1739.0,462.9 1722.7,534.3 1708.0,600.4 1694.8,661.4 1682.9,717.6 1672.4,769.2 1663.2,816.5 1655.2,859.6 1648.3,898.8 1642.6,934.3 1638.0,966.2 1634.5,994.6 1632.0,1019.8 1630.4,1041.8 1629.9,1060.7 1630.4,1076.6 1631.8,1089.7 1634.2,1099.9 1637.6,1107.4 1642.0,1112.1 1647.4,1114.1 1653.8,1113.4 1661.2,1110.0 1669.8,1103.9 1679.4,1095.0 1690.2,1083.3 1702.3,1068.6 1715.5,1051.1 1730.1,1030.4 1746.1,1006.6 1763.6,979.6 1782.6,949.0 1803.1,915.0 1825.4,877.1 1849.5,835.4 1875.4,789.6 1903.4,739.4 1933.4,684.7 1965.6,625.1 2000.2,560.6  A 1064.250,1064.250 0.00 0,0 1997.5,559.2 L 1997.5,559.2 1963.1,623.8 1931.0,683.4 1901.2,738.2 1873.4,788.5 1847.6,834.4 1823.6,876.2 1801.4,914.1 1780.9,948.2 1762.1,978.8 1744.7,1005.9 1728.8,1029.8 1714.2,1050.4 1701.0,1068.0 1689.0,1082.7 1678.2,1094.4 1668.6,1103.4 1660.0,1109.5 1652.6,1113.0 1646.2,1113.7 1640.8,1111.7 1636.4,1107.0 1633.0,1099.5 1630.5,1089.3 1629.0,1076.2 1628.5,1060.3 1628.9,1041.4 1630.4,1019.4 1632.8,994.2 1636.2,965.7 1640.7,933.8 1646.3,898.4 1653.0,859.1 1660.9,815.9 1669.9,768.6 1680.3,716.9 1691.9,660.7 1705.0,599.7 1719.5,533.6 1735.5,462.1  Z" style="stroke-width: 2.0;  stroke: rgb(82,82,82); fill: rgb(102,153,255); opacity: 0.667;" />
<path d="M 1927.162,2474.762 A 1064.250,1064.250 0.00 0,1 1924.1,2476.1 L 1924.1,2476.1 1895.6,2408.0 1870.7,2343.2 1849.0,2281.5 1830.3,2222.6 1814.3,2166.4 1800.7,2112.8 1789.4,2061.4 1780.2,2012.2 1772.9,1965.0 1767.3,1919.6 1763.2,1875.8 1760.6,1833.5 1759.2,1792.5 1759.1,1752.6 1760.1,1713.7 1762.2,1675.7 1765.4,1638.3 1769.5,1601.4 1774.6,1565.0 1780.7,1528.8 1787.9,1492.6 1796.1,1456.5 1805.4,1420.1 1815.9,1383.5 1827.7,1346.4 1840.9,1308.8 1855.6,1270.5 1872.0,1231.4 1890.2,1191.4 1910.4,1150.3 1932.8,1108.1 1957.7,1064.7 1985.2,1019.9 2015.6,973.6 2049.1,925.8 2086.1,876.4 2126.9,825.2 2171.7,772.1 2220.9,717.1  A 1064.250,1064.250 0.00 0,0 2218.4,714.8 L 2218.4,714.8 2169.4,770.0 2124.7,823.2 2084.2,874.5 2047.3,924.1 2013.9,972.0 1983.6,1018.3 1956.3,1063.2 1931.6,1106.8 1909.3,1149.0 1889.2,1190.1 1871.1,1230.2 1854.8,1269.4 1840.3,1307.7 1827.2,1345.4 1815.5,1382.5 1805.1,1419.2 1795.9,1455.5 1787.8,1491.7 1780.8,1527.9 1774.8,1564.1 1769.8,1600.6 1765.8,1637.4 1762.8,1674.8 1760.8,1712.9 1759.9,1751.8 1760.2,1791.7 1761.6,1832.7 1764.4,1875.0 1768.6,1918.7 1774.4,1964.1 1781.9,2011.3 1791.2,2060.5 1802.7,2111.8 1816.4,2165.4 1832.6,2221.5 1851.5,2280.4 1873.4,2342.0 1898.5,2406.8 1927.2,2474.8  Z" style="stroke-width: 2.0;  stroke: rgb(82,82,82); fill: rgb(153,204,255); opacity: 0.667;" />
<path d="M 2149.322,656.787 A 1064.250,1064.250 0.00 0,1 2151.2,658.3 L 2151.2,658.3 2106.9,717.1 2066.8,773.4 2030.7,827.2 1998.2,878.8 1969.2,928.2 1943.2,975.6 1920.2,1021.2 1899.9,1065.0 1882.0,1107.3 1866.5,1148.1 1853.1,1187.5 1841.7,1225.8 1832.1,1263.1 1824.3,1299.4 1818.1,1335.0 1813.5,1369.9 1810.4,1404.3 1808.8,1438.3 1808.6,1472.1 1809.8,1505.8 1812.4,1539.4 1816.5,1573.3 1822.0,1607.4 1829.1,1641.9 1837.8,1676.9 1848.2,1712.6 1860.4,1749.1 1874.5,1786.4 1890.7,1824.8 1909.1,1864.4 1929.9,1905.3 1953.4,1947.5 1979.6,1991.3 2008.8,2036.8 2041.4,2084.0 2077.4,2133.1 2117.3,2184.2 2161.3,2237.5 2209.7,2293.0  A 1064.250,1064.250 0.00 0,0 2211.5,2291.4 L 2211.5,2291.4 2163.0,2236.0 2118.9,2182.8 2078.9,2131.8 2042.7,2082.8 2010.1,2035.6 1980.7,1990.2 1954.4,1946.5 1930.9,1904.3 1909.9,1863.5 1891.4,1824.0 1875.1,1785.6 1860.9,1748.2 1848.7,1711.8 1838.2,1676.1 1829.4,1641.1 1822.3,1606.6 1816.7,1572.6 1812.5,1538.7 1809.8,1505.1 1808.5,1471.4 1808.7,1437.6 1810.2,1403.6 1813.2,1369.2 1817.8,1334.2 1823.8,1298.7 1831.6,1262.3 1841.0,1225.0 1852.4,1186.7 1865.7,1147.2 1881.1,1106.4 1898.9,1064.1 1919.1,1020.2 1942.0,974.6 1967.9,927.2 1996.8,877.7 2029.2,826.0 2065.2,772.1 2105.1,715.7 2149.3,656.8  Z" style="stroke-width: 2.0;  stroke: rgb(82,82,82); fill: rgb(0,255,255); opacity: 0.667;" />
<path d="M 1744.852,464.300 A 1064.250,1064.250 0.00 0,1 1751.0,465.8 L 1751.0,465.8 1733.9,537.0 1718.5,602.9 1704.7,663.8 1692.4,719.9 1681.6,771.6 1672.2,818.9 1664.1,862.2 1657.3,901.5 1651.6,937.2 1647.2,969.3 1644.0,998.0 1641.8,1023.4 1640.7,1045.8 1640.8,1065.1 1641.9,1081.5 1644.0,1095.1 1647.3,1105.9 1651.6,1113.9 1657.0,1119.3 1663.5,1122.1 1671.1,1122.2 1679.9,1119.6 1689.9,1114.4 1701.1,1106.5 1713.6,1095.9 1727.5,1082.4 1742.8,1066.1 1759.5,1046.8 1777.9,1024.4 1797.8,998.9 1819.4,970.0 1842.9,937.7 1868.2,901.7 1895.6,862.0 1925.1,818.2 1956.8,770.3 1990.8,717.9 2027.4,660.9 2066.5,599.1  A 1064.250,1064.250 0.00 0,0 2061.2,595.7 L 2061.2,595.7 2022.4,657.8 1986.2,715.0 1952.4,767.6 1921.0,815.7 1891.8,859.6 1864.7,899.6 1839.6,935.7 1816.3,968.1 1794.8,997.1 1775.0,1022.8 1756.9,1045.3 1740.2,1064.7 1725.0,1081.1 1711.2,1094.6 1698.8,1105.3 1687.6,1113.3 1677.6,1118.6 1668.9,1121.2 1661.2,1121.1 1654.7,1118.4 1649.3,1113.0 1644.9,1105.0 1641.6,1094.2 1639.4,1080.7 1638.2,1064.3 1638.1,1045.0 1639.0,1022.6 1641.0,997.1 1644.1,968.4 1648.3,936.3 1653.7,900.6 1660.3,861.2 1668.2,817.9 1677.3,770.5 1687.8,718.8 1699.8,662.6 1713.2,601.6 1728.2,535.6 1744.9,464.3  Z" style="stroke-width: 2.0;  stroke: rgb(82,82,82); fill: rgb(204,255,255); opacity: 0.667;" />
</g>
<defs>
<pattern id="hline-sparse" width="10" height="10" patternTransform="rotate(0 0 0)" patternUnits="userSpaceOnUse"><line x1="0" y1="0" x2="10" y2="0" style="stroke:black;stroke-width:2" /></pattern>
<pattern id="checker" width="10" height="10" patternTransform="rotate(45 0 0)" patternUnits="userSpaceOnUse"><line x1="0" y1="0" x2="10" y2="0" style="stroke:black;stroke-width:2" /><line x1="0" y1="0" x2="0" y2="10" style="stroke:black;stroke-width:2" /></pattern>
<pattern id="checker" width="10" height="10" patternTransform="rotate(45 0 0)" patternUnits="userSpaceOnUse"><line x1="0" y1="0" x2="10" y2="0" style="stroke:black;stroke-width:5" /><line x1="0" y1="0" x2="0" y2="10" style="stroke:black;stroke-width:4" /></pattern>
<pattern id="hline" width="10" height="10" patternTransform="rotate(0 0 0)" patternUnits="userSpaceOnUse"><line x1="0" y1="0" x2="10" y2="0" style="stroke:black;stroke-width:5" /></pattern>
<pattern id="vline-sparse" width="10" height="10" patternTransform="rotate(0 0 0)" patternUnits="userSpaceOnUse"><line x1="0" y1="0" x2="0" y2="10" style="stroke:black;stroke-width:2" /></pattern>
<pattern id="vline" width="10" height="10" patternTransform="rotate(0 0 0)" patternUnits="userSpaceOnUse"><line x1="0" y1="0" x2="0" y2="10" style="stroke:black;stroke-width:5" /></pattern>
</defs>
</svg>
