<?xml version="1.0" encoding="utf-8" standalone="no"?>
<!DOCTYPE svg PUBLIC "-//W3C//DTD SVG 1.1//EN" "http://www.w3.org/Graphics/SVG/1.1/DTD/svg11.dtd">
<svg width="3000px" height="3000px" version="1.1" xmlns="http://www.w3.org/2000/svg" xmlns:xlink="http://www.w3.org/1999/xlink">
<g id="ideograms">
<path d="M1500.000,425.000 A1075.000,1075.000 40.000 0,1 1784.271,463.267 L1797.493,415.047 A1125.000,1125.000 0.000 0,0 1500.000,375.000 Z" style="stroke-linecap:round;fill:rgb(116,196,118);fill-opacity:0.33;" />
<text x="1671.5" y="297.2" font-size="18.2px" font-family="CMUBright-Roman" style="text-anchor:start;fill:rgb(0,0,0);" transform="rotate(277.7,1671.5,297.2)" >R<tspan baseline-shift="-40%" font-size="90%">s</tspan>caffold<tspan baseline-shift="-40%" font-size="90%">7</tspan></text>
<line x1='1500.0' y1='375.0' x2='1500.0' y2='355.0' style="stroke-width:4.0;stroke:rgb(0,0,0);stroke-linecap:round;fill:none;" />
<text x="1506.5" y="345.0" font-size="18.2px" font-family="CMUBright-Roman" style="text-anchor:start;fill:rgb(0,0,0);" transform="rotate(270.0,1506.5,345.0)" >0</text>
<line x1='1565.0' y1='376.9' x2='1566.1' y2='356.9' style="stroke-width:4.0;stroke:rgb(0,0,0);stroke-linecap:round;fill:none;" />
<text x="1573.2" y="347.3" font-size="18.2px" font-family="CMUBright-Roman" style="text-anchor:start;fill:rgb(0,0,0);" transform="rotate(273.3,1573.2,347.3)" >50</text>
<line x1='1629.7' y1='382.5' x2='1632.0' y2='362.6' style="stroke-width:4.0;stroke:rgb(0,0,0);stroke-linecap:round;fill:none;" />
<text x="1639.6" y="353.5" font-size="18.2px" font-family="CMUBright-Roman" style="text-anchor:start;fill:rgb(0,0,0);" transform="rotate(276.6,1639.6,353.5)" >100</text>
<line x1='1694.0' y1='391.9' x2='1697.5' y2='372.2' style="stroke-width:4.0;stroke:rgb(0,0,0);stroke-linecap:round;fill:none;" />
<text x="1705.6" y="363.4" font-size="18.2px" font-family="CMUBright-Roman" style="text-anchor:start;fill:rgb(0,0,0);" transform="rotate(279.9,1705.6,363.4)" >150</text>
<line x1='1757.7' y1='404.9' x2='1762.3' y2='385.4' style="stroke-width:4.0;stroke:rgb(0,0,0);stroke-linecap:round;fill:none;" />
<text x="1770.9" y="377.2" font-size="18.2px" font-family="CMUBright-Roman" style="text-anchor:start;fill:rgb(0,0,0);" transform="rotate(283.2,1770.9,377.2)" >200</text>
<g id="highlighttrack_0">
<path d="M1530.403,425.430 A1075.000,1075.000 40.000 0,1 1538.958,425.706 L1540.770,375.739 A1125.000,1125.000 0.000 0,0 1531.817,375.450 Z" style="stroke-width:4.0;stroke:rgb(0,0,0);stroke-linecap:round;fill:rgb(116,196,118);" />
</g>
<path d="M1845.188,481.928 A1075.000,1075.000 40.000 0,1 1874.338,492.282 L1891.750,445.411 A1125.000,1125.000 0.000 0,0 1861.244,434.576 Z" style="stroke-linecap:round;fill:rgb(116,196,118);fill-opacity:0.33;" />
<text x="1915.6" y="358.3" font-size="18.2px" font-family="CMUBright-Roman" style="text-anchor:start;fill:rgb(0,0,0);" transform="rotate(289.6,1915.6,358.3)" >R<tspan baseline-shift="-40%" font-size="90%">s</tspan>caffold<tspan baseline-shift="-40%" font-size="90%">2</tspan>1</text>
<line x1='1861.2' y1='434.6' x2='1867.7' y2='415.6' style="stroke-width:4.0;stroke:rgb(0,0,0);stroke-linecap:round;fill:none;" />
<text x="1877.0" y="408.3" font-size="18.2px" font-family="CMUBright-Roman" style="text-anchor:start;fill:rgb(0,0,0);" transform="rotate(288.7,1877.0,408.3)" >0</text>
<g id="highlighttrack_0">
<path d="M1865.310,488.974 A1075.000,1075.000 40.000 0,1 1867.714,489.846 L1884.817,442.862 A1125.000,1125.000 0.000 0,0 1882.301,441.950 Z" style="stroke-width:4.0;stroke:rgb(0,0,0);stroke-linecap:round;fill:rgb(116,196,118);" />
</g>
<path d="M1933.379,516.228 A1075.000,1075.000 40.000 0,1 2017.154,557.569 L2041.208,513.735 A1125.000,1125.000 0.000 0,0 1953.536,470.471 Z" style="stroke-linecap:round;fill:rgb(116,196,118);fill-opacity:0.33;" />
<text x="2046.2" y="414.7" font-size="18.2px" font-family="CMUBright-Roman" style="text-anchor:start;fill:rgb(0,0,0);" transform="rotate(296.3,2046.2,414.7)" >R<tspan baseline-shift="-40%" font-size="90%">s</tspan>caffold<tspan baseline-shift="-40%" font-size="90%">1</tspan>5</text>
<line x1='1953.5' y1='470.5' x2='1961.6' y2='452.2' style="stroke-width:4.0;stroke:rgb(0,0,0);stroke-linecap:round;fill:none;" />
<text x="1971.6" y="445.7" font-size="18.2px" font-family="CMUBright-Roman" style="text-anchor:start;fill:rgb(0,0,0);" transform="rotate(293.8,1971.6,445.7)" >0</text>
<line x1='2012.2' y1='498.4' x2='2021.3' y2='480.6' style="stroke-width:4.0;stroke:rgb(0,0,0);stroke-linecap:round;fill:none;" />
<text x="2031.7" y="474.6" font-size="18.2px" font-family="CMUBright-Roman" style="text-anchor:start;fill:rgb(0,0,0);" transform="rotate(297.1,2031.7,474.6)" >50</text>
<g id="highlighttrack_0">
<path d="M1951.632,524.473 A1075.000,1075.000 40.000 0,1 1954.887,525.986 L1976.044,480.683 A1125.000,1125.000 0.000 0,0 1972.638,479.099 Z" style="stroke-width:4.0;stroke:rgb(0,0,0);stroke-linecap:round;fill:rgb(251,106,74);" />
</g>
<path d="M2072.076,589.860 A1075.000,1075.000 40.000 0,1 2079.335,594.463 L2106.280,552.345 A1125.000,1125.000 0.000 0,0 2098.684,547.528 Z" style="stroke-linecap:round;fill:rgb(116,196,118);fill-opacity:0.33;" />
<text x="2158.7" y="479.0" font-size="18.2px" font-family="CMUBright-Roman" style="text-anchor:start;fill:rgb(0,0,0);" transform="rotate(302.4,2158.7,479.0)" >R<tspan baseline-shift="-40%" font-size="90%">s</tspan>caffold<tspan baseline-shift="-40%" font-size="90%">2</tspan>8</text>
<line x1='2098.7' y1='547.5' x2='2109.3' y2='530.6' style="stroke-width:4.0;stroke:rgb(0,0,0);stroke-linecap:round;fill:none;" />
<text x="2120.1" y="525.6" font-size="18.2px" font-family="CMUBright-Roman" style="text-anchor:start;fill:rgb(0,0,0);" transform="rotate(302.2,2120.1,525.6)" >0</text>
<g id="highlighttrack_0">
<path d="M2072.082,589.864 A1075.000,1075.000 40.000 0,1 2079.335,594.463 L2106.280,552.345 A1125.000,1125.000 0.000 0,0 2098.691,547.532 Z" style="stroke-width:4.0;stroke:rgb(0,0,0);stroke-linecap:round;fill:rgb(116,196,118);" />
</g>
<path d="M2131.962,630.374 A1075.000,1075.000 40.000 0,1 2135.902,633.251 L2165.478,592.937 A1125.000,1125.000 0.000 0,0 2161.355,589.926 Z" style="stroke-linecap:round;fill:rgb(116,196,118);fill-opacity:0.33;" />
<text x="2224.1" y="524.4" font-size="18.2px" font-family="CMUBright-Roman" style="text-anchor:start;fill:rgb(0,0,0);" transform="rotate(306.1,2224.1,524.4)" >R<tspan baseline-shift="-40%" font-size="90%">s</tspan>caffold<tspan baseline-shift="-40%" font-size="90%">3</tspan>0</text>
<line x1='2161.4' y1='589.9' x2='2173.1' y2='573.7' style="stroke-width:4.0;stroke:rgb(0,0,0);stroke-linecap:round;fill:none;" />
<text x="2184.2" y="569.5" font-size="18.2px" font-family="CMUBright-Roman" style="text-anchor:start;fill:rgb(0,0,0);" transform="rotate(306.0,2184.2,569.5)" >0</text>
<g id="highlighttrack_0">
<path d="M2131.963,630.375 A1075.000,1075.000 40.000 0,1 2135.333,632.834 L2164.883,592.500 A1125.000,1125.000 0.000 0,0 2161.356,589.927 Z" style="stroke-width:4.0;stroke:rgb(0,0,0);stroke-linecap:round;fill:rgb(116,196,118);" />
</g>
<path d="M2186.132,672.444 A1075.000,1075.000 40.000 1,1 1436.316,426.888 L1433.354,376.976 A1125.000,1125.000 0.000 1,0 2218.045,633.953 Z" style="stroke-linecap:round;fill:rgb(116,196,118);fill-opacity:0.33;" />
<text x="1130.9" y="2657.6" font-size="18.2px" font-family="CMUBright-Roman" style="text-anchor:end;fill:rgb(0,0,0);" transform="rotate(-71.9,1130.9,2657.6)" >NZ<tspan baseline-shift="-40%" font-size="90%">C</tspan>P018456.1</text>
<line x1='2218.0' y1='634.0' x2='2230.8' y2='618.6' style="stroke-width:4.0;stroke:rgb(0,0,0);stroke-linecap:round;fill:none;" />
<text x="2242.2" y="615.0" font-size="18.2px" font-family="CMUBright-Roman" style="text-anchor:start;fill:rgb(0,0,0);" transform="rotate(309.7,2242.2,615.0)" >0</text>
<line x1='2266.9' y1='676.9' x2='2280.5' y2='662.2' style="stroke-width:4.0;stroke:rgb(0,0,0);stroke-linecap:round;fill:none;" />
<text x="2292.1" y="659.4" font-size="18.2px" font-family="CMUBright-Roman" style="text-anchor:start;fill:rgb(0,0,0);" transform="rotate(313.0,2292.1,659.4)" >50</text>
<line x1='2313.1' y1='722.5' x2='2327.6' y2='708.7' style="stroke-width:4.0;stroke:rgb(0,0,0);stroke-linecap:round;fill:none;" />
<text x="2339.3" y="706.5" font-size="18.2px" font-family="CMUBright-Roman" style="text-anchor:start;fill:rgb(0,0,0);" transform="rotate(316.3,2339.3,706.5)" >100</text>
<line x1='2356.7' y1='770.8' x2='2371.9' y2='757.8' style="stroke-width:4.0;stroke:rgb(0,0,0);stroke-linecap:round;fill:none;" />
<text x="2383.7" y="756.3" font-size="18.2px" font-family="CMUBright-Roman" style="text-anchor:start;fill:rgb(0,0,0);" transform="rotate(319.6,2383.7,756.3)" >150</text>
<line x1='2397.3' y1='821.5' x2='2413.3' y2='809.4' style="stroke-width:4.0;stroke:rgb(0,0,0);stroke-linecap:round;fill:none;" />
<text x="2425.2" y="808.6" font-size="18.2px" font-family="CMUBright-Roman" style="text-anchor:start;fill:rgb(0,0,0);" transform="rotate(322.9,2425.2,808.6)" >200</text>
<line x1='2435.0' y1='874.4' x2='2451.6' y2='863.3' style="stroke-width:4.0;stroke:rgb(0,0,0);stroke-linecap:round;fill:none;" />
<text x="2463.6" y="863.1" font-size="18.2px" font-family="CMUBright-Roman" style="text-anchor:start;fill:rgb(0,0,0);" transform="rotate(326.2,2463.6,863.1)" >250</text>
<line x1='2469.6' y1='929.5' x2='2486.8' y2='919.3' style="stroke-width:4.0;stroke:rgb(0,0,0);stroke-linecap:round;fill:none;" />
<text x="2498.7" y="919.9" font-size="18.2px" font-family="CMUBright-Roman" style="text-anchor:start;fill:rgb(0,0,0);" transform="rotate(329.5,2498.7,919.9)" >300</text>
<line x1='2500.9' y1='986.4' x2='2518.7' y2='977.3' style="stroke-width:4.0;stroke:rgb(0,0,0);stroke-linecap:round;fill:none;" />
<text x="2530.6" y="978.5" font-size="18.2px" font-family="CMUBright-Roman" style="text-anchor:start;fill:rgb(0,0,0);" transform="rotate(332.8,2530.6,978.5)" >350</text>
<line x1='2528.9' y1='1045.1' x2='2547.2' y2='1037.0' style="stroke-width:4.0;stroke:rgb(0,0,0);stroke-linecap:round;fill:none;" />
<text x="2559.0" y="1038.9" font-size="18.2px" font-family="CMUBright-Roman" style="text-anchor:start;fill:rgb(0,0,0);" transform="rotate(336.1,2559.0,1038.9)" >400</text>
<line x1='2553.5' y1='1105.2' x2='2572.2' y2='1098.2' style="stroke-width:4.0;stroke:rgb(0,0,0);stroke-linecap:round;fill:none;" />
<text x="2583.8" y="1100.8" font-size="18.2px" font-family="CMUBright-Roman" style="text-anchor:start;fill:rgb(0,0,0);" transform="rotate(339.5,2583.8,1100.8)" >450</text>
<line x1='2574.5' y1='1166.7' x2='2593.6' y2='1160.8' style="stroke-width:4.0;stroke:rgb(0,0,0);stroke-linecap:round;fill:none;" />
<text x="2605.1" y="1164.1" font-size="18.2px" font-family="CMUBright-Roman" style="text-anchor:start;fill:rgb(0,0,0);" transform="rotate(342.8,2605.1,1164.1)" >500</text>
<line x1='2592.0' y1='1229.3' x2='2611.4' y2='1224.5' style="stroke-width:4.0;stroke:rgb(0,0,0);stroke-linecap:round;fill:none;" />
<text x="2622.6" y="1228.4" font-size="18.2px" font-family="CMUBright-Roman" style="text-anchor:start;fill:rgb(0,0,0);" transform="rotate(346.1,2622.6,1228.4)" >550</text>
<line x1='2605.8' y1='1292.8' x2='2625.4' y2='1289.2' style="stroke-width:4.0;stroke:rgb(0,0,0);stroke-linecap:round;fill:none;" />
<text x="2636.4" y="1293.7" font-size="18.2px" font-family="CMUBright-Roman" style="text-anchor:start;fill:rgb(0,0,0);" transform="rotate(349.4,2636.4,1293.7)" >600</text>
<line x1='2615.9' y1='1357.1' x2='2635.7' y2='1354.5' style="stroke-width:4.0;stroke:rgb(0,0,0);stroke-linecap:round;fill:none;" />
<text x="2646.4" y="1359.7" font-size="18.2px" font-family="CMUBright-Roman" style="text-anchor:start;fill:rgb(0,0,0);" transform="rotate(352.7,2646.4,1359.7)" >650</text>
<line x1='2622.3' y1='1421.7' x2='2642.2' y2='1420.3' style="stroke-width:4.0;stroke:rgb(0,0,0);stroke-linecap:round;fill:none;" />
<text x="2652.6" y="1426.1" font-size="18.2px" font-family="CMUBright-Roman" style="text-anchor:start;fill:rgb(0,0,0);" transform="rotate(356.0,2652.6,1426.1)" >700</text>
<line x1='2624.9' y1='1486.7' x2='2644.9' y2='1486.4' style="stroke-width:4.0;stroke:rgb(0,0,0);stroke-linecap:round;fill:none;" />
<text x="2655.0" y="1492.8" font-size="18.2px" font-family="CMUBright-Roman" style="text-anchor:start;fill:rgb(0,0,0);" transform="rotate(359.3,2655.0,1492.8)" >750</text>
<line x1='2623.8' y1='1551.7' x2='2643.8' y2='1552.6' style="stroke-width:4.0;stroke:rgb(0,0,0);stroke-linecap:round;fill:none;" />
<text x="2653.5" y="1559.5" font-size="18.2px" font-family="CMUBright-Roman" style="text-anchor:start;fill:rgb(0,0,0);" transform="rotate(2.6,2653.5,1559.5)" >800</text>
<line x1='2619.0' y1='1616.5' x2='2638.8' y2='1618.5' style="stroke-width:4.0;stroke:rgb(0,0,0);stroke-linecap:round;fill:none;" />
<text x="2648.1" y="1626.0" font-size="18.2px" font-family="CMUBright-Roman" style="text-anchor:start;fill:rgb(0,0,0);" transform="rotate(5.9,2648.1,1626.0)" >850</text>
<line x1='2610.4' y1='1680.9' x2='2630.1' y2='1684.1' style="stroke-width:4.0;stroke:rgb(0,0,0);stroke-linecap:round;fill:none;" />
<text x="2638.9" y="1692.1" font-size="18.2px" font-family="CMUBright-Roman" style="text-anchor:start;fill:rgb(0,0,0);" transform="rotate(9.3,2638.9,1692.1)" >900</text>
<line x1='2598.1' y1='1744.7' x2='2617.6' y2='1749.1' style="stroke-width:4.0;stroke:rgb(0,0,0);stroke-linecap:round;fill:none;" />
<text x="2625.9" y="1757.6" font-size="18.2px" font-family="CMUBright-Roman" style="text-anchor:start;fill:rgb(0,0,0);" transform="rotate(12.6,2625.9,1757.6)" >950</text>
<line x1='2582.1' y1='1807.7' x2='2601.3' y2='1813.2' style="stroke-width:4.0;stroke:rgb(0,0,0);stroke-linecap:round;fill:none;" />
<text x="2609.2" y="1822.2" font-size="18.2px" font-family="CMUBright-Roman" style="text-anchor:start;fill:rgb(0,0,0);" transform="rotate(15.9,2609.2,1822.2)" >1000</text>
<line x1='2562.5' y1='1869.7' x2='2581.4' y2='1876.3' style="stroke-width:4.0;stroke:rgb(0,0,0);stroke-linecap:round;fill:none;" />
<text x="2588.7" y="1885.7" font-size="18.2px" font-family="CMUBright-Roman" style="text-anchor:start;fill:rgb(0,0,0);" transform="rotate(19.2,2588.7,1885.7)" >1050</text>
<line x1='2539.4' y1='1930.4' x2='2557.9' y2='1938.1' style="stroke-width:4.0;stroke:rgb(0,0,0);stroke-linecap:round;fill:none;" />
<text x="2564.6" y="1947.9" font-size="18.2px" font-family="CMUBright-Roman" style="text-anchor:start;fill:rgb(0,0,0);" transform="rotate(22.5,2564.6,1947.9)" >1100</text>
<line x1='2512.8' y1='1989.7' x2='2530.8' y2='1998.4' style="stroke-width:4.0;stroke:rgb(0,0,0);stroke-linecap:round;fill:none;" />
<text x="2537.0" y="2008.6" font-size="18.2px" font-family="CMUBright-Roman" style="text-anchor:start;fill:rgb(0,0,0);" transform="rotate(25.8,2537.0,2008.6)" >1150</text>
<line x1='2482.8' y1='2047.4' x2='2500.3' y2='2057.1' style="stroke-width:4.0;stroke:rgb(0,0,0);stroke-linecap:round;fill:none;" />
<text x="2505.9" y="2067.7" font-size="18.2px" font-family="CMUBright-Roman" style="text-anchor:start;fill:rgb(0,0,0);" transform="rotate(29.1,2505.9,2067.7)" >1200</text>
<line x1='2449.6' y1='2103.3' x2='2466.5' y2='2114.0' style="stroke-width:4.0;stroke:rgb(0,0,0);stroke-linecap:round;fill:none;" />
<text x="2471.4" y="2124.8" font-size="18.2px" font-family="CMUBright-Roman" style="text-anchor:start;fill:rgb(0,0,0);" transform="rotate(32.4,2471.4,2124.8)" >1250</text>
<line x1='2413.2' y1='2157.1' x2='2429.4' y2='2168.8' style="stroke-width:4.0;stroke:rgb(0,0,0);stroke-linecap:round;fill:none;" />
<text x="2433.7" y="2179.9" font-size="18.2px" font-family="CMUBright-Roman" style="text-anchor:start;fill:rgb(0,0,0);" transform="rotate(35.7,2433.7,2179.9)" >1300</text>
<line x1='2373.7' y1='2208.7' x2='2389.2' y2='2221.3' style="stroke-width:4.0;stroke:rgb(0,0,0);stroke-linecap:round;fill:none;" />
<text x="2392.9" y="2232.7" font-size="18.2px" font-family="CMUBright-Roman" style="text-anchor:start;fill:rgb(0,0,0);" transform="rotate(39.0,2392.9,2232.7)" >1350</text>
<line x1='2331.3' y1='2258.0' x2='2346.1' y2='2271.5' style="stroke-width:4.0;stroke:rgb(0,0,0);stroke-linecap:round;fill:none;" />
<text x="2349.1" y="2283.0" font-size="18.2px" font-family="CMUBright-Roman" style="text-anchor:start;fill:rgb(0,0,0);" transform="rotate(42.4,2349.1,2283.0)" >1400</text>
<line x1='2286.1' y1='2304.7' x2='2300.1' y2='2319.0' style="stroke-width:4.0;stroke:rgb(0,0,0);stroke-linecap:round;fill:none;" />
<text x="2302.5" y="2330.7" font-size="18.2px" font-family="CMUBright-Roman" style="text-anchor:start;fill:rgb(0,0,0);" transform="rotate(45.7,2302.5,2330.7)" >1450</text>
<line x1='2238.4' y1='2348.8' x2='2251.5' y2='2363.9' style="stroke-width:4.0;stroke:rgb(0,0,0);stroke-linecap:round;fill:none;" />
<text x="2253.1" y="2375.7" font-size="18.2px" font-family="CMUBright-Roman" style="text-anchor:start;fill:rgb(0,0,0);" transform="rotate(49.0,2253.1,2375.7)" >1500</text>
<line x1='2188.1' y1='2390.0' x2='2200.3' y2='2405.8' style="stroke-width:4.0;stroke:rgb(0,0,0);stroke-linecap:round;fill:none;" />
<text x="2201.3" y="2417.7" font-size="18.2px" font-family="CMUBright-Roman" style="text-anchor:start;fill:rgb(0,0,0);" transform="rotate(52.3,2201.3,2417.7)" >1550</text>
<line x1='2135.6' y1='2428.3' x2='2146.9' y2='2444.8' style="stroke-width:4.0;stroke:rgb(0,0,0);stroke-linecap:round;fill:none;" />
<text x="2147.1" y="2456.7" font-size="18.2px" font-family="CMUBright-Roman" style="text-anchor:start;fill:rgb(0,0,0);" transform="rotate(55.6,2147.1,2456.7)" >1600</text>
<line x1='2080.9' y1='2463.4' x2='2091.2' y2='2480.5' style="stroke-width:4.0;stroke:rgb(0,0,0);stroke-linecap:round;fill:none;" />
<text x="2090.8" y="2492.4" font-size="18.2px" font-family="CMUBright-Roman" style="text-anchor:start;fill:rgb(0,0,0);" transform="rotate(58.9,2090.8,2492.4)" >1650</text>
<line x1='2024.3' y1='2495.4' x2='2033.6' y2='2513.1' style="stroke-width:4.0;stroke:rgb(0,0,0);stroke-linecap:round;fill:none;" />
<text x="2032.5" y="2524.9" font-size="18.2px" font-family="CMUBright-Roman" style="text-anchor:start;fill:rgb(0,0,0);" transform="rotate(62.2,2032.5,2524.9)" >1700</text>
<line x1='1965.9' y1='2524.0' x2='1974.2' y2='2542.2' style="stroke-width:4.0;stroke:rgb(0,0,0);stroke-linecap:round;fill:none;" />
<text x="1972.4" y="2554.0" font-size="18.2px" font-family="CMUBright-Roman" style="text-anchor:start;fill:rgb(0,0,0);" transform="rotate(65.5,1972.4,2554.0)" >1750</text>
<line x1='1906.0' y1='2549.2' x2='1913.3' y2='2567.8' style="stroke-width:4.0;stroke:rgb(0,0,0);stroke-linecap:round;fill:none;" />
<text x="1910.8" y="2579.5" font-size="18.2px" font-family="CMUBright-Roman" style="text-anchor:start;fill:rgb(0,0,0);" transform="rotate(68.8,1910.8,2579.5)" >1800</text>
<line x1='1844.8' y1='2570.9' x2='1850.9' y2='2589.9' style="stroke-width:4.0;stroke:rgb(0,0,0);stroke-linecap:round;fill:none;" />
<text x="1847.8" y="2601.4" font-size="18.2px" font-family="CMUBright-Roman" style="text-anchor:start;fill:rgb(0,0,0);" transform="rotate(72.2,1847.8,2601.4)" >1850</text>
<line x1='1782.4' y1='2589.0' x2='1787.4' y2='2608.4' style="stroke-width:4.0;stroke:rgb(0,0,0);stroke-linecap:round;fill:none;" />
<text x="1783.6" y="2619.6" font-size="18.2px" font-family="CMUBright-Roman" style="text-anchor:start;fill:rgb(0,0,0);" transform="rotate(75.5,1783.6,2619.6)" >1900</text>
<line x1='1719.0' y1='2603.5' x2='1722.9' y2='2623.1' style="stroke-width:4.0;stroke:rgb(0,0,0);stroke-linecap:round;fill:none;" />
<text x="1718.5" y="2634.2" font-size="18.2px" font-family="CMUBright-Roman" style="text-anchor:start;fill:rgb(0,0,0);" transform="rotate(78.8,1718.5,2634.2)" >1950</text>
<line x1='1654.9' y1='2614.3' x2='1657.7' y2='2634.1' style="stroke-width:4.0;stroke:rgb(0,0,0);stroke-linecap:round;fill:none;" />
<text x="1652.6" y="2644.9" font-size="18.2px" font-family="CMUBright-Roman" style="text-anchor:start;fill:rgb(0,0,0);" transform="rotate(82.1,1652.6,2644.9)" >2000</text>
<line x1='1590.3' y1='2621.4' x2='1591.9' y2='2641.3' style="stroke-width:4.0;stroke:rgb(0,0,0);stroke-linecap:round;fill:none;" />
<text x="1586.2" y="2651.8" font-size="18.2px" font-family="CMUBright-Roman" style="text-anchor:start;fill:rgb(0,0,0);" transform="rotate(85.4,1586.2,2651.8)" >2050</text>
<line x1='1525.4' y1='2624.7' x2='1525.8' y2='2644.7' style="stroke-width:4.0;stroke:rgb(0,0,0);stroke-linecap:round;fill:none;" />
<text x="1519.6" y="2654.8" font-size="18.2px" font-family="CMUBright-Roman" style="text-anchor:start;fill:rgb(0,0,0);" transform="rotate(88.7,1519.6,2654.8)" >2100</text>
<line x1='1460.4' y1='2624.3' x2='1459.7' y2='2644.3' style="stroke-width:4.0;stroke:rgb(0,0,0);stroke-linecap:round;fill:none;" />
<text x="1465.8" y="2654.5" font-size="18.2px" font-family="CMUBright-Roman" style="text-anchor:end;fill:rgb(0,0,0);" transform="rotate(-88.0,1465.8,2654.5)" >2150</text>
<line x1='1395.5' y1='2620.1' x2='1393.7' y2='2640.1' style="stroke-width:4.0;stroke:rgb(0,0,0);stroke-linecap:round;fill:none;" />
<text x="1399.2" y="2650.6" font-size="18.2px" font-family="CMUBright-Roman" style="text-anchor:end;fill:rgb(0,0,0);" transform="rotate(-84.7,1399.2,2650.6)" >2200</text>
<line x1='1331.0' y1='2612.2' x2='1328.0' y2='2632.0' style="stroke-width:4.0;stroke:rgb(0,0,0);stroke-linecap:round;fill:none;" />
<text x="1332.9" y="2642.9" font-size="18.2px" font-family="CMUBright-Roman" style="text-anchor:end;fill:rgb(0,0,0);" transform="rotate(-81.4,1332.9,2642.9)" >2250</text>
<line x1='1267.1' y1='2600.6' x2='1262.9' y2='2620.2' style="stroke-width:4.0;stroke:rgb(0,0,0);stroke-linecap:round;fill:none;" />
<text x="1267.2" y="2631.3" font-size="18.2px" font-family="CMUBright-Roman" style="text-anchor:end;fill:rgb(0,0,0);" transform="rotate(-78.1,1267.2,2631.3)" >2300</text>
<line x1='1203.9' y1='2585.3' x2='1198.6' y2='2604.6' style="stroke-width:4.0;stroke:rgb(0,0,0);stroke-linecap:round;fill:none;" />
<text x="1202.3" y="2616.0" font-size="18.2px" font-family="CMUBright-Roman" style="text-anchor:end;fill:rgb(0,0,0);" transform="rotate(-74.7,1202.3,2616.0)" >2350</text>
<line x1='1141.7' y1='2566.4' x2='1135.4' y2='2585.4' style="stroke-width:4.0;stroke:rgb(0,0,0);stroke-linecap:round;fill:none;" />
<text x="1138.3" y="2596.9" font-size="18.2px" font-family="CMUBright-Roman" style="text-anchor:end;fill:rgb(0,0,0);" transform="rotate(-71.4,1138.3,2596.9)" >2400</text>
<line x1='1080.7' y1='2544.0' x2='1073.3' y2='2562.5' style="stroke-width:4.0;stroke:rgb(0,0,0);stroke-linecap:round;fill:none;" />
<text x="1075.6" y="2574.2" font-size="18.2px" font-family="CMUBright-Roman" style="text-anchor:end;fill:rgb(0,0,0);" transform="rotate(-68.1,1075.6,2574.2)" >2450</text>
<line x1='1021.1' y1='2518.0' x2='1012.6' y2='2536.1' style="stroke-width:4.0;stroke:rgb(0,0,0);stroke-linecap:round;fill:none;" />
<text x="1014.3" y="2547.9" font-size="18.2px" font-family="CMUBright-Roman" style="text-anchor:end;fill:rgb(0,0,0);" transform="rotate(-64.8,1014.3,2547.9)" >2500</text>
<line x1='963.2' y1='2488.6' x2='953.6' y2='2506.2' style="stroke-width:4.0;stroke:rgb(0,0,0);stroke-linecap:round;fill:none;" />
<text x="954.6" y="2518.1" font-size="18.2px" font-family="CMUBright-Roman" style="text-anchor:end;fill:rgb(0,0,0);" transform="rotate(-61.5,954.6,2518.1)" >2550</text>
<line x1='907.0' y1='2456.0' x2='896.4' y2='2473.0' style="stroke-width:4.0;stroke:rgb(0,0,0);stroke-linecap:round;fill:none;" />
<text x="896.7" y="2484.9" font-size="18.2px" font-family="CMUBright-Roman" style="text-anchor:end;fill:rgb(0,0,0);" transform="rotate(-58.2,896.7,2484.9)" >2600</text>
<line x1='852.7' y1='2420.2' x2='841.2' y2='2436.5' style="stroke-width:4.0;stroke:rgb(0,0,0);stroke-linecap:round;fill:none;" />
<text x="840.8" y="2448.4" font-size="18.2px" font-family="CMUBright-Roman" style="text-anchor:end;fill:rgb(0,0,0);" transform="rotate(-54.9,840.8,2448.4)" >2650</text>
<line x1='800.7' y1='2381.2' x2='788.3' y2='2396.9' style="stroke-width:4.0;stroke:rgb(0,0,0);stroke-linecap:round;fill:none;" />
<text x="787.1" y="2408.8" font-size="18.2px" font-family="CMUBright-Roman" style="text-anchor:end;fill:rgb(0,0,0);" transform="rotate(-51.6,787.1,2408.8)" >2700</text>
<line x1='751.0' y1='2339.4' x2='737.6' y2='2354.3' style="stroke-width:4.0;stroke:rgb(0,0,0);stroke-linecap:round;fill:none;" />
<text x="735.9" y="2366.1" font-size="18.2px" font-family="CMUBright-Roman" style="text-anchor:end;fill:rgb(0,0,0);" transform="rotate(-48.3,735.9,2366.1)" >2750</text>
<line x1='703.7' y1='2294.7' x2='689.6' y2='2308.9' style="stroke-width:4.0;stroke:rgb(0,0,0);stroke-linecap:round;fill:none;" />
<text x="687.1" y="2320.5" font-size="18.2px" font-family="CMUBright-Roman" style="text-anchor:end;fill:rgb(0,0,0);" transform="rotate(-44.9,687.1,2320.5)" >2800</text>
<line x1='659.2' y1='2247.4' x2='644.2' y2='2260.7' style="stroke-width:4.0;stroke:rgb(0,0,0);stroke-linecap:round;fill:none;" />
<text x="641.1" y="2272.2" font-size="18.2px" font-family="CMUBright-Roman" style="text-anchor:end;fill:rgb(0,0,0);" transform="rotate(-41.6,641.1,2272.2)" >2850</text>
<line x1='617.4' y1='2197.6' x2='601.7' y2='2210.0' style="stroke-width:4.0;stroke:rgb(0,0,0);stroke-linecap:round;fill:none;" />
<text x="597.9" y="2221.3" font-size="18.2px" font-family="CMUBright-Roman" style="text-anchor:end;fill:rgb(0,0,0);" transform="rotate(-38.3,597.9,2221.3)" >2900</text>
<line x1='578.6' y1='2145.5' x2='562.2' y2='2157.0' style="stroke-width:4.0;stroke:rgb(0,0,0);stroke-linecap:round;fill:none;" />
<text x="557.8" y="2168.0" font-size="18.2px" font-family="CMUBright-Roman" style="text-anchor:end;fill:rgb(0,0,0);" transform="rotate(-35.0,557.8,2168.0)" >2950</text>
<line x1='542.9' y1='2091.2' x2='525.8' y2='2101.7' style="stroke-width:4.0;stroke:rgb(0,0,0);stroke-linecap:round;fill:none;" />
<text x="520.8" y="2112.5" font-size="18.2px" font-family="CMUBright-Roman" style="text-anchor:end;fill:rgb(0,0,0);" transform="rotate(-31.7,520.8,2112.5)" >3000</text>
<line x1='510.3' y1='2034.9' x2='492.7' y2='2044.5' style="stroke-width:4.0;stroke:rgb(0,0,0);stroke-linecap:round;fill:none;" />
<text x="487.0" y="2054.9" font-size="18.2px" font-family="CMUBright-Roman" style="text-anchor:end;fill:rgb(0,0,0);" transform="rotate(-28.4,487.0,2054.9)" >3050</text>
<line x1='481.1' y1='1976.9' x2='463.0' y2='1985.4' style="stroke-width:4.0;stroke:rgb(0,0,0);stroke-linecap:round;fill:none;" />
<text x="456.7" y="1995.5" font-size="18.2px" font-family="CMUBright-Roman" style="text-anchor:end;fill:rgb(0,0,0);" transform="rotate(-25.1,456.7,1995.5)" >3100</text>
<line x1='455.2' y1='1917.3' x2='436.7' y2='1924.7' style="stroke-width:4.0;stroke:rgb(0,0,0);stroke-linecap:round;fill:none;" />
<text x="429.8" y="1934.4" font-size="18.2px" font-family="CMUBright-Roman" style="text-anchor:end;fill:rgb(0,0,0);" transform="rotate(-21.8,429.8,1934.4)" >3150</text>
<line x1='432.9' y1='1856.2' x2='413.9' y2='1862.6' style="stroke-width:4.0;stroke:rgb(0,0,0);stroke-linecap:round;fill:none;" />
<text x="406.5" y="1871.9" font-size="18.2px" font-family="CMUBright-Roman" style="text-anchor:end;fill:rgb(0,0,0);" transform="rotate(-18.5,406.5,1871.9)" >3200</text>
<line x1='414.1' y1='1794.0' x2='394.8' y2='1799.2' style="stroke-width:4.0;stroke:rgb(0,0,0);stroke-linecap:round;fill:none;" />
<text x="386.9" y="1808.1" font-size="18.2px" font-family="CMUBright-Roman" style="text-anchor:end;fill:rgb(0,0,0);" transform="rotate(-15.1,386.9,1808.1)" >3250</text>
<line x1='398.9' y1='1730.8' x2='379.4' y2='1734.9' style="stroke-width:4.0;stroke:rgb(0,0,0);stroke-linecap:round;fill:none;" />
<text x="370.9" y="1743.3" font-size="18.2px" font-family="CMUBright-Roman" style="text-anchor:end;fill:rgb(0,0,0);" transform="rotate(-11.8,370.9,1743.3)" >3300</text>
<line x1='387.4' y1='1666.8' x2='367.7' y2='1669.8' style="stroke-width:4.0;stroke:rgb(0,0,0);stroke-linecap:round;fill:none;" />
<text x="358.8" y="1677.7" font-size="18.2px" font-family="CMUBright-Roman" style="text-anchor:end;fill:rgb(0,0,0);" transform="rotate(-8.5,358.8,1677.7)" >3350</text>
<line x1='379.7' y1='1602.3' x2='359.7' y2='1604.1' style="stroke-width:4.0;stroke:rgb(0,0,0);stroke-linecap:round;fill:none;" />
<text x="350.4" y="1611.5" font-size="18.2px" font-family="CMUBright-Roman" style="text-anchor:end;fill:rgb(0,0,0);" transform="rotate(-5.2,350.4,1611.5)" >3400</text>
<line x1='375.6' y1='1537.4' x2='355.6' y2='1538.1' style="stroke-width:4.0;stroke:rgb(0,0,0);stroke-linecap:round;fill:none;" />
<text x="345.9" y="1544.9" font-size="18.2px" font-family="CMUBright-Roman" style="text-anchor:end;fill:rgb(0,0,0);" transform="rotate(-1.9,345.9,1544.9)" >3450</text>
<line x1='375.3' y1='1472.5' x2='355.3' y2='1472.0' style="stroke-width:4.0;stroke:rgb(0,0,0);stroke-linecap:round;fill:none;" />
<text x="345.2" y="1478.2" font-size="18.2px" font-family="CMUBright-Roman" style="text-anchor:end;fill:rgb(0,0,0);" transform="rotate(1.4,345.2,1478.2)" >3500</text>
<line x1='378.8' y1='1407.5' x2='358.9' y2='1405.9' style="stroke-width:4.0;stroke:rgb(0,0,0);stroke-linecap:round;fill:none;" />
<text x="348.4" y="1411.6" font-size="18.2px" font-family="CMUBright-Roman" style="text-anchor:end;fill:rgb(0,0,0);" transform="rotate(4.7,348.4,1411.6)" >3550</text>
<line x1='386.0' y1='1343.0' x2='366.2' y2='1340.2' style="stroke-width:4.0;stroke:rgb(0,0,0);stroke-linecap:round;fill:none;" />
<text x="355.4" y="1345.2" font-size="18.2px" font-family="CMUBright-Roman" style="text-anchor:end;fill:rgb(0,0,0);" transform="rotate(8.0,355.4,1345.2)" >3600</text>
<line x1='396.9' y1='1278.9' x2='377.3' y2='1275.0' style="stroke-width:4.0;stroke:rgb(0,0,0);stroke-linecap:round;fill:none;" />
<text x="366.3" y="1279.4" font-size="18.2px" font-family="CMUBright-Roman" style="text-anchor:end;fill:rgb(0,0,0);" transform="rotate(11.3,366.3,1279.4)" >3650</text>
<line x1='411.6' y1='1215.6' x2='392.2' y2='1210.5' style="stroke-width:4.0;stroke:rgb(0,0,0);stroke-linecap:round;fill:none;" />
<text x="380.9" y="1214.3" font-size="18.2px" font-family="CMUBright-Roman" style="text-anchor:end;fill:rgb(0,0,0);" transform="rotate(14.6,380.9,1214.3)" >3700</text>
<line x1='429.8' y1='1153.2' x2='410.8' y2='1147.0' style="stroke-width:4.0;stroke:rgb(0,0,0);stroke-linecap:round;fill:none;" />
<text x="399.3" y="1150.1" font-size="18.2px" font-family="CMUBright-Roman" style="text-anchor:end;fill:rgb(0,0,0);" transform="rotate(18.0,399.3,1150.1)" >3750</text>
<line x1='451.6' y1='1092.0' x2='433.0' y2='1084.7' style="stroke-width:4.0;stroke:rgb(0,0,0);stroke-linecap:round;fill:none;" />
<text x="421.3" y="1087.1" font-size="18.2px" font-family="CMUBright-Roman" style="text-anchor:end;fill:rgb(0,0,0);" transform="rotate(21.3,421.3,1087.1)" >3800</text>
<line x1='476.9' y1='1032.1' x2='458.7' y2='1023.8' style="stroke-width:4.0;stroke:rgb(0,0,0);stroke-linecap:round;fill:none;" />
<text x="447.0" y="1025.5" font-size="18.2px" font-family="CMUBright-Roman" style="text-anchor:end;fill:rgb(0,0,0);" transform="rotate(24.6,447.0,1025.5)" >3850</text>
<line x1='505.7' y1='973.8' x2='488.0' y2='964.4' style="stroke-width:4.0;stroke:rgb(0,0,0);stroke-linecap:round;fill:none;" />
<text x="476.1" y="965.5" font-size="18.2px" font-family="CMUBright-Roman" style="text-anchor:end;fill:rgb(0,0,0);" transform="rotate(27.9,476.1,965.5)" >3900</text>
<line x1='537.7' y1='917.2' x2='520.6' y2='906.9' style="stroke-width:4.0;stroke:rgb(0,0,0);stroke-linecap:round;fill:none;" />
<text x="508.7" y="907.3" font-size="18.2px" font-family="CMUBright-Roman" style="text-anchor:end;fill:rgb(0,0,0);" transform="rotate(31.2,508.7,907.3)" >3950</text>
<line x1='573.0' y1='862.6' x2='556.5' y2='851.3' style="stroke-width:4.0;stroke:rgb(0,0,0);stroke-linecap:round;fill:none;" />
<text x="544.6" y="851.0" font-size="18.2px" font-family="CMUBright-Roman" style="text-anchor:end;fill:rgb(0,0,0);" transform="rotate(34.5,544.6,851.0)" >4000</text>
<line x1='611.3' y1='810.2' x2='595.5' y2='797.9' style="stroke-width:4.0;stroke:rgb(0,0,0);stroke-linecap:round;fill:none;" />
<text x="583.6" y="796.9" font-size="18.2px" font-family="CMUBright-Roman" style="text-anchor:end;fill:rgb(0,0,0);" transform="rotate(37.8,583.6,796.9)" >4050</text>
<line x1='652.6' y1='760.0' x2='637.6' y2='746.9' style="stroke-width:4.0;stroke:rgb(0,0,0);stroke-linecap:round;fill:none;" />
<text x="625.8" y="745.2" font-size="18.2px" font-family="CMUBright-Roman" style="text-anchor:end;fill:rgb(0,0,0);" transform="rotate(41.1,625.8,745.2)" >4100</text>
<line x1='696.8' y1='712.3' x2='682.5' y2='698.3' style="stroke-width:4.0;stroke:rgb(0,0,0);stroke-linecap:round;fill:none;" />
<text x="670.8" y="696.0" font-size="18.2px" font-family="CMUBright-Roman" style="text-anchor:end;fill:rgb(0,0,0);" transform="rotate(44.4,670.8,696.0)" >4150</text>
<line x1='743.6' y1='667.2' x2='730.2' y2='652.4' style="stroke-width:4.0;stroke:rgb(0,0,0);stroke-linecap:round;fill:none;" />
<text x="718.6" y="649.4" font-size="18.2px" font-family="CMUBright-Roman" style="text-anchor:end;fill:rgb(0,0,0);" transform="rotate(47.8,718.6,649.4)" >4200</text>
<line x1='793.0' y1='624.9' x2='780.4' y2='609.4' style="stroke-width:4.0;stroke:rgb(0,0,0);stroke-linecap:round;fill:none;" />
<text x="769.1" y="605.7" font-size="18.2px" font-family="CMUBright-Roman" style="text-anchor:end;fill:rgb(0,0,0);" transform="rotate(51.1,769.1,605.7)" >4250</text>
<line x1='844.7' y1='585.6' x2='833.0' y2='569.3' style="stroke-width:4.0;stroke:rgb(0,0,0);stroke-linecap:round;fill:none;" />
<text x="821.9" y="565.0" font-size="18.2px" font-family="CMUBright-Roman" style="text-anchor:end;fill:rgb(0,0,0);" transform="rotate(54.4,821.9,565.0)" >4300</text>
<line x1='898.6' y1='549.3' x2='887.9' y2='532.4' style="stroke-width:4.0;stroke:rgb(0,0,0);stroke-linecap:round;fill:none;" />
<text x="877.1" y="527.4" font-size="18.2px" font-family="CMUBright-Roman" style="text-anchor:end;fill:rgb(0,0,0);" transform="rotate(57.7,877.1,527.4)" >4350</text>
<line x1='954.5' y1='516.1' x2='944.8' y2='498.6' style="stroke-width:4.0;stroke:rgb(0,0,0);stroke-linecap:round;fill:none;" />
<text x="934.3" y="493.0" font-size="18.2px" font-family="CMUBright-Roman" style="text-anchor:end;fill:rgb(0,0,0);" transform="rotate(61.0,934.3,493.0)" >4400</text>
<line x1='1012.2' y1='486.3' x2='1003.5' y2='468.2' style="stroke-width:4.0;stroke:rgb(0,0,0);stroke-linecap:round;fill:none;" />
<text x="993.4" y="462.1" font-size="18.2px" font-family="CMUBright-Roman" style="text-anchor:end;fill:rgb(0,0,0);" transform="rotate(64.3,993.4,462.1)" >4450</text>
<line x1='1071.6' y1='459.8' x2='1063.9' y2='441.3' style="stroke-width:4.0;stroke:rgb(0,0,0);stroke-linecap:round;fill:none;" />
<text x="1054.1" y="434.5" font-size="18.2px" font-family="CMUBright-Roman" style="text-anchor:end;fill:rgb(0,0,0);" transform="rotate(67.6,1054.1,434.5)" >4500</text>
<line x1='1132.4' y1='436.8' x2='1125.8' y2='417.9' style="stroke-width:4.0;stroke:rgb(0,0,0);stroke-linecap:round;fill:none;" />
<text x="1116.4" y="410.6" font-size="18.2px" font-family="CMUBright-Roman" style="text-anchor:end;fill:rgb(0,0,0);" transform="rotate(70.9,1116.4,410.6)" >4550</text>
<line x1='1194.4' y1='417.3' x2='1188.9' y2='398.1' style="stroke-width:4.0;stroke:rgb(0,0,0);stroke-linecap:round;fill:none;" />
<text x="1180.0" y="390.2" font-size="18.2px" font-family="CMUBright-Roman" style="text-anchor:end;fill:rgb(0,0,0);" transform="rotate(74.2,1180.0,390.2)" >4600</text>
<line x1='1257.4' y1='401.5' x2='1253.1' y2='381.9' style="stroke-width:4.0;stroke:rgb(0,0,0);stroke-linecap:round;fill:none;" />
<text x="1244.6" y="373.6" font-size="18.2px" font-family="CMUBright-Roman" style="text-anchor:end;fill:rgb(0,0,0);" transform="rotate(77.5,1244.6,373.6)" >4650</text>
<line x1='1321.2' y1='389.3' x2='1318.1' y2='369.5' style="stroke-width:4.0;stroke:rgb(0,0,0);stroke-linecap:round;fill:none;" />
<text x="1310.1" y="360.7" font-size="18.2px" font-family="CMUBright-Roman" style="text-anchor:end;fill:rgb(0,0,0);" transform="rotate(80.9,1310.1,360.7)" >4700</text>
<line x1='1385.7' y1='380.8' x2='1383.6' y2='360.9' style="stroke-width:4.0;stroke:rgb(0,0,0);stroke-linecap:round;fill:none;" />
<text x="1376.2" y="351.7" font-size="18.2px" font-family="CMUBright-Roman" style="text-anchor:end;fill:rgb(0,0,0);" transform="rotate(84.2,1376.2,351.7)" >4750</text>
<g id="highlighttrack_0">
<path d="M1004.034,546.248 A1075.000,1075.000 40.000 0,1 1007.812,544.293 L984.920,499.841 A1125.000,1125.000 0.000 0,0 980.965,501.888 Z" style="stroke-width:4.0;stroke:rgb(0,0,0);stroke-linecap:round;fill:rgb(116,196,118);" />
<path d="M789.171,2306.441 A1075.000,1075.000 40.000 0,1 786.102,2303.725 L752.897,2341.108 A1125.000,1125.000 0.000 0,0 756.109,2343.950 Z" style="stroke-width:4.0;stroke:rgb(0,0,0);stroke-linecap:round;fill:rgb(251,106,74);" />
<path d="M2370.918,2130.180 A1075.000,1075.000 40.000 0,1 2368.651,2133.301 L2409.053,2162.757 A1125.000,1125.000 0.000 0,0 2411.426,2159.491 Z" style="stroke-width:4.0;stroke:rgb(0,0,0);stroke-linecap:round;fill:rgb(116,196,118);" />
<path d="M2330.904,2182.073 A1075.000,1075.000 40.000 0,1 2328.197,2185.358 L2366.718,2217.235 A1125.000,1125.000 0.000 0,0 2369.550,2213.798 Z" style="stroke-width:4.0;stroke:rgb(0,0,0);stroke-linecap:round;fill:rgb(116,196,118);" />
<path d="M2156.548,2351.216 A1075.000,1075.000 40.000 0,1 2153.394,2353.640 L2183.785,2393.344 A1125.000,1125.000 0.000 0,0 2187.086,2390.808 Z" style="stroke-width:4.0;stroke:rgb(0,0,0);stroke-linecap:round;fill:rgb(116,196,118);" />
<path d="M1535.216,2574.423 A1075.000,1075.000 40.000 0,1 1531.237,2574.546 L1532.690,2624.525 A1125.000,1125.000 0.000 0,0 1536.854,2624.396 Z" style="stroke-width:4.0;stroke:rgb(0,0,0);stroke-linecap:round;fill:rgb(251,106,74);" />
<path d="M2072.100,2410.124 A1075.000,1075.000 40.000 0,1 2068.733,2412.232 L2095.185,2454.662 A1125.000,1125.000 0.000 0,0 2098.709,2452.456 Z" style="stroke-width:4.0;stroke:rgb(0,0,0);stroke-linecap:round;fill:rgb(251,106,74);" />
<path d="M1544.576,2574.075 A1075.000,1075.000 40.000 0,1 1540.324,2574.243 L1542.200,2624.208 A1125.000,1125.000 0.000 0,0 1546.649,2624.032 Z" style="stroke-width:4.0;stroke:rgb(0,0,0);stroke-linecap:round;fill:rgb(251,106,74);" />
<path d="M977.193,2439.307 A1075.000,1075.000 40.000 0,1 974.446,2437.773 L950.001,2481.390 A1125.000,1125.000 0.000 0,0 952.876,2482.996 Z" style="stroke-width:4.0;stroke:rgb(0,0,0);stroke-linecap:round;fill:rgb(116,196,118);" />
<path d="M986.436,2444.392 A1075.000,1075.000 40.000 0,1 983.651,2442.872 L959.634,2486.727 A1125.000,1125.000 0.000 0,0 962.549,2488.317 Z" style="stroke-width:4.0;stroke:rgb(0,0,0);stroke-linecap:round;fill:rgb(116,196,118);" />
<path d="M1020.840,2462.305 A1075.000,1075.000 40.000 0,1 1018.010,2460.890 L995.592,2505.583 A1125.000,1125.000 0.000 0,0 998.554,2507.063 Z" style="stroke-width:4.0;stroke:rgb(0,0,0);stroke-linecap:round;fill:rgb(116,196,118);" />
<path d="M2091.940,2397.347 A1075.000,1075.000 40.000 0,1 2088.941,2399.319 L2116.333,2441.147 A1125.000,1125.000 0.000 0,0 2119.472,2439.084 Z" style="stroke-width:4.0;stroke:rgb(0,0,0);stroke-linecap:round;fill:rgb(116,196,118);" />
<path d="M2353.906,2153.047 A1075.000,1075.000 40.000 0,1 2352.347,2155.080 L2391.991,2185.548 A1125.000,1125.000 0.000 0,0 2393.622,2183.421 Z" style="stroke-width:4.0;stroke:rgb(0,0,0);stroke-linecap:round;fill:rgb(116,196,118);" />
</g>
</g>
<g id="track_0">
<path d="M 796.279,2298.376 A 1064.250,1064.250 0.00 0,1 793.2,2295.7 L 793.2,2295.7 841.5,2239.9 885.3,2186.1 925.1,2134.3 961.2,2084.4 993.8,2036.2 1023.2,1989.6 1049.8,1944.6 1073.7,1901.0 1095.1,1858.8 1114.3,1817.7 1131.5,1777.7 1146.8,1738.7 1160.4,1700.5 1172.4,1663.0 1183.0,1626.1 1192.2,1589.7 1200.1,1553.7 1206.9,1517.8 1212.5,1482.0 1217.1,1446.1 1220.5,1410.0 1222.8,1373.6 1224.1,1336.7 1224.2,1299.1 1223.1,1260.8 1220.7,1221.5 1217.0,1181.2 1211.9,1139.6 1205.2,1096.6 1196.8,1052.0 1186.5,1005.7 1174.1,957.6 1159.6,907.4 1142.6,855.0 1123.0,800.2 1100.4,742.9 1074.7,682.8 1045.6,619.9 1012.7,553.8  A 1064.250,1064.250 0.00 0,0 1009.0,555.8 L 1009.0,555.8 1042.1,621.7 1071.5,684.5 1097.4,744.5 1120.2,801.7 1140.1,856.4 1157.3,908.8 1172.0,958.9 1184.5,1007.0 1195.0,1053.2 1203.6,1097.7 1210.5,1140.7 1215.8,1182.3 1219.6,1222.6 1222.1,1261.9 1223.4,1300.2 1223.4,1337.8 1222.3,1374.7 1220.1,1411.1 1216.8,1447.2 1212.4,1483.1 1207.0,1518.9 1200.3,1554.8 1192.5,1590.9 1183.4,1627.4 1173.0,1664.3 1161.1,1701.8 1147.7,1740.0 1132.5,1779.1 1115.5,1819.2 1096.5,1860.3 1075.2,1902.6 1051.5,1946.3 1025.1,1991.4 995.8,2038.1 963.4,2086.4 927.5,2136.5 887.9,2188.4 844.3,2242.4 796.3,2298.4  Z" style="stroke-width: 2.0;  stroke: rgb(82,82,82); fill: rgb(251,106,74); opacity: 0.667;" />
<path d="M 2125.643,639.071 A 1064.250,1064.250 0.00 0,1 2129.0,641.5 L 2129.0,641.5 2085.1,700.3 2043.2,754.2 2003.3,803.5 1965.2,848.4 1928.8,889.2 1894.0,926.2 1860.7,959.4 1828.7,989.3 1798.1,1015.8 1768.7,1039.2 1740.3,1059.7 1712.9,1077.4 1686.4,1092.4 1660.7,1104.8 1635.7,1114.7 1611.3,1122.2 1587.3,1127.3 1563.8,1130.1 1540.6,1130.5 1517.6,1128.7 1494.7,1124.6 1471.9,1118.2 1449.1,1109.4 1426.1,1098.2 1403.0,1084.5 1379.5,1068.3 1355.7,1049.3 1331.4,1027.6 1306.5,1003.0 1281.1,975.2 1255.0,944.2 1228.1,909.8 1200.4,871.7 1171.8,829.8 1142.2,783.8 1111.6,733.5 1079.9,678.6 1046.9,618.8 1012.7,553.8  A 1064.250,1064.250 0.00 0,0 1009.0,555.8 L 1009.0,555.8 1043.4,620.6 1076.6,680.2 1108.6,735.0 1139.4,785.2 1169.2,831.1 1198.0,872.9 1225.8,910.9 1252.8,945.2 1279.0,976.1 1304.6,1003.7 1329.5,1028.3 1353.9,1049.9 1377.8,1068.8 1401.3,1084.9 1424.5,1098.5 1447.6,1109.6 1470.4,1118.3 1493.3,1124.7 1516.1,1128.7 1539.1,1130.4 1562.3,1129.8 1585.9,1126.9 1609.8,1121.7 1634.2,1114.2 1659.2,1104.2 1684.8,1091.7 1711.3,1076.6 1738.6,1058.8 1766.9,1038.2 1796.2,1014.6 1826.8,988.0 1858.6,958.1 1891.7,924.7 1926.4,887.6 1962.6,846.6 2000.6,801.6 2040.3,752.1 2082.0,698.1 2125.6,639.1  Z" style="stroke-width: 2.0;  stroke: rgb(82,82,82); fill: rgb(116,196,118); opacity: 0.667;" />
<path d="M 2125.643,639.071 A 1064.250,1064.250 0.00 0,1 2129.0,641.5 L 2129.0,641.5 2084.0,700.8 2039.3,756.2 1994.8,808.1 1950.8,856.7 1907.5,902.5 1864.9,945.7 1823.2,986.7 1782.5,1025.8 1742.8,1063.2 1704.1,1099.2 1666.7,1134.0 1630.4,1168.0 1595.3,1201.3 1561.4,1234.1 1528.7,1266.7 1497.2,1299.2 1466.8,1331.9 1437.4,1364.9 1409.0,1398.4 1381.5,1432.5 1354.8,1467.3 1328.7,1502.9 1303.2,1539.6 1278.0,1577.2 1253.0,1616.1 1228.0,1656.1 1202.9,1697.4 1177.3,1740.0 1151.2,1784.0 1124.1,1829.3 1095.9,1876.0 1066.3,1924.1 1035.0,1973.5 1001.7,2024.2 966.1,2076.2 927.8,2129.4 886.5,2183.8 841.7,2239.3 793.2,2295.7  A 1064.250,1064.250 0.00 0,0 796.3,2298.4 L 796.3,2298.4 844.6,2241.8 889.1,2186.2 930.2,2131.6 968.3,2078.3 1003.7,2026.1 1036.9,1975.3 1068.0,1925.7 1097.4,1877.6 1125.4,1830.8 1152.2,1785.3 1178.2,1741.3 1203.6,1698.5 1228.6,1657.1 1253.4,1617.0 1278.3,1578.1 1303.3,1540.3 1328.7,1503.6 1354.6,1467.8 1381.2,1432.9 1408.6,1398.7 1436.9,1365.2 1466.1,1332.1 1496.4,1299.2 1527.8,1266.6 1560.4,1233.8 1594.2,1200.9 1629.1,1167.5 1665.3,1133.4 1702.6,1098.4 1741.1,1062.2 1780.6,1024.7 1821.2,985.5 1862.8,944.3 1905.2,900.9 1948.3,855.0 1992.1,806.1 2036.4,754.1 2080.9,698.5 2125.6,639.1  Z" style="stroke-width: 2.0;  stroke: rgb(82,82,82); fill: rgb(107,174,214); opacity: 0.667;" />
<path d="M 2362.209,2123.878 A 1064.250,1064.250 0.00 0,1 2360.0,2127.0 L 2360.0,2127.0 2300.7,2082.3 2245.7,2038.1 2194.6,1994.3 2146.9,1951.1 2102.4,1908.6 2060.8,1866.8 2021.7,1825.8 1984.8,1785.6 1949.9,1746.2 1916.7,1707.6 1885.0,1669.8 1854.4,1632.9 1824.8,1596.7 1796.0,1561.4 1767.8,1526.7 1739.9,1492.6 1712.3,1459.1 1684.8,1426.1 1657.2,1393.4 1629.5,1361.0 1601.5,1328.8 1573.1,1296.5 1544.2,1264.1 1514.8,1231.3 1484.9,1198.1 1454.3,1164.2 1423.2,1129.4 1391.4,1093.5 1359.0,1056.3 1326.0,1017.6 1292.4,977.0 1258.3,934.4 1223.8,889.5 1188.9,841.9 1153.7,791.4 1118.4,737.7 1083.0,680.4 1047.7,619.2 1012.7,553.8  A 1064.250,1064.250 0.00 0,0 1009.0,555.8 L 1009.0,555.8 1044.3,621.0 1079.8,682.1 1115.4,739.2 1150.9,792.8 1186.3,843.1 1221.4,890.6 1256.1,935.4 1290.3,977.8 1324.1,1018.3 1357.2,1056.9 1389.8,1094.0 1421.7,1129.7 1453.0,1164.4 1483.7,1198.2 1513.8,1231.3 1543.3,1263.9 1572.2,1296.3 1600.8,1328.4 1628.9,1360.6 1656.8,1392.9 1684.5,1425.4 1712.1,1458.3 1739.8,1491.7 1767.8,1525.7 1796.2,1560.3 1825.1,1595.6 1854.8,1631.6 1885.5,1668.4 1917.4,1706.1 1950.8,1744.5 1985.9,1783.8 2022.9,1823.9 2062.1,1864.8 2103.9,1906.5 2148.5,1948.8 2196.3,1991.8 2247.6,2035.4 2302.8,2079.4 2362.2,2123.9  Z" style="stroke-width: 2.0;  stroke: rgb(82,82,82); fill: rgb(253,141,60); opacity: 0.667;" />
<path d="M 2362.209,2123.878 A 1064.250,1064.250 0.00 0,1 2360.0,2127.0 L 2360.0,2127.0 2299.9,2084.3 2242.7,2045.9 2188.1,2011.3 2135.9,1980.3 2086.1,1952.7 2038.5,1928.2 1992.8,1906.7 1949.1,1887.7 1907.0,1871.3 1866.5,1857.3 1827.5,1845.4 1789.8,1835.5 1753.2,1827.5 1717.6,1821.4 1682.9,1817.0 1649.0,1814.2 1615.6,1813.1 1582.8,1813.5 1550.3,1815.4 1518.0,1818.9 1485.9,1823.9 1453.7,1830.5 1421.4,1838.7 1388.8,1848.7 1355.8,1860.4 1322.4,1873.9 1288.3,1889.5 1253.5,1907.2 1217.9,1927.1 1181.4,1949.5 1143.8,1974.5 1105.1,2002.3 1065.1,2033.1 1023.7,2067.1 980.9,2104.7 936.6,2146.1 890.6,2191.5 842.8,2241.3 793.2,2295.7  A 1064.250,1064.250 0.00 0,0 796.3,2298.4 L 796.3,2298.4 845.6,2243.8 893.2,2193.8 939.0,2148.2 983.2,2106.7 1025.9,2069.0 1067.1,2034.7 1107.0,2003.8 1145.6,1975.8 1183.1,1950.7 1219.5,1928.2 1255.1,1908.1 1289.8,1890.3 1323.8,1874.6 1357.2,1860.9 1390.1,1849.1 1422.6,1839.0 1454.9,1830.7 1487.1,1824.0 1519.2,1818.8 1551.5,1815.2 1583.9,1813.2 1616.8,1812.7 1650.1,1813.7 1684.1,1816.3 1718.8,1820.6 1754.4,1826.6 1791.0,1834.5 1828.8,1844.2 1867.8,1856.0 1908.4,1869.9 1950.5,1886.1 1994.3,1904.9 2040.0,1926.3 2087.7,1950.6 2137.7,1978.1 2189.9,2008.8 2244.6,2043.2 2302.0,2081.5 2362.2,2123.9  Z" style="stroke-width: 2.0;  stroke: rgb(82,82,82); fill: rgb(255,0,0); opacity: 0.667;" />
<path d="M 2362.209,2123.878 A 1064.250,1064.250 0.00 0,1 2360.0,2127.0 L 2360.0,2127.0 2301.0,2082.9 2246.9,2040.4 2197.4,1999.2 2152.1,1959.4 2110.8,1920.9 2073.1,1883.5 2038.9,1847.2 2007.9,1812.0 1979.8,1777.7 1954.6,1744.2 1932.0,1711.5 1911.7,1679.4 1893.8,1647.9 1878.1,1616.9 1864.3,1586.2 1852.5,1555.7 1842.6,1525.4 1834.4,1495.1 1827.9,1464.7 1823.2,1434.1 1820.1,1403.2 1818.7,1371.8 1819.0,1339.9 1821.0,1307.3 1824.7,1273.9 1830.3,1239.5 1837.8,1204.0 1847.3,1167.3 1859.0,1129.3 1872.8,1089.7 1889.1,1048.5 1908.0,1005.5 1929.6,960.6 1954.1,913.6 1981.8,864.3 2012.9,812.6 2047.6,758.3 2086.2,701.4 2129.0,641.5  A 1064.250,1064.250 0.00 0,0 2125.6,639.1 L 2125.6,639.1 2083.1,699.1 2044.7,756.2 2010.2,810.6 1979.3,862.4 1951.8,911.8 1927.5,958.9 1906.1,1003.9 1887.4,1047.0 1871.3,1088.3 1857.5,1127.9 1846.0,1166.0 1836.7,1202.7 1829.3,1238.2 1823.8,1272.6 1820.2,1306.1 1818.3,1338.7 1818.2,1370.6 1819.7,1402.0 1822.9,1432.9 1827.8,1463.5 1834.3,1493.8 1842.6,1524.1 1852.7,1554.4 1864.6,1584.8 1878.5,1615.5 1894.3,1646.5 1912.4,1677.9 1932.7,1709.9 1955.5,1742.6 1980.8,1776.0 2009.0,1810.2 2040.1,1845.3 2074.5,1881.4 2112.3,1918.7 2153.7,1957.1 2199.2,1996.7 2248.9,2037.7 2303.1,2080.0 2362.2,2123.9  Z" style="stroke-width: 2.0;  stroke: rgb(82,82,82); fill: rgb(255,0,204); opacity: 0.667;" />
<path d="M 2322.595,2175.253 A 1064.250,1064.250 0.00 0,1 2319.9,2178.5 L 2319.9,2178.5 2263.5,2130.3 2211.2,2082.7 2162.7,2035.7 2117.7,1989.6 2075.7,1944.3 2036.4,1899.9 1999.6,1856.3 1964.9,1813.8 1932.0,1772.2 1900.7,1731.6 1870.8,1691.9 1841.9,1653.2 1814.0,1615.4 1786.6,1578.4 1759.8,1542.2 1733.2,1506.8 1706.8,1472.0 1680.3,1437.7 1653.6,1403.9 1626.7,1370.5 1599.4,1337.2 1571.6,1304.0 1543.3,1270.8 1514.4,1237.2 1484.8,1203.2 1454.5,1168.6 1423.6,1133.2 1391.9,1096.7 1359.6,1059.0 1326.6,1019.7 1293.0,978.7 1258.8,935.7 1224.2,890.4 1189.2,842.6 1154.0,791.9 1118.5,737.9 1083.1,680.5 1047.8,619.3 1012.7,553.8  A 1064.250,1064.250 0.00 0,0 1009.0,555.8 L 1009.0,555.8 1044.3,621.1 1079.9,682.2 1115.5,739.5 1151.2,793.2 1186.6,843.8 1221.8,891.5 1256.6,936.7 1290.9,979.6 1324.7,1020.4 1357.8,1059.5 1390.3,1097.1 1422.1,1133.5 1453.2,1168.8 1483.6,1203.3 1513.3,1237.2 1542.4,1270.6 1570.9,1303.8 1598.8,1336.8 1626.2,1370.0 1653.3,1403.3 1680.0,1437.0 1706.6,1471.2 1733.2,1505.8 1759.9,1541.2 1786.9,1577.2 1814.4,1614.1 1842.6,1651.8 1871.6,1690.4 1901.7,1730.0 1933.1,1770.5 1966.1,1811.9 2001.0,1854.4 2038.0,1897.7 2077.4,1942.0 2119.6,1987.1 2164.9,2033.1 2213.5,2079.8 2266.0,2127.2 2322.6,2175.3  Z" style="stroke-width: 2.0;  stroke: rgb(82,82,82); fill: rgb(255,204,204); opacity: 0.667;" />
<path d="M 2322.595,2175.253 A 1064.250,1064.250 0.00 0,1 2319.9,2178.5 L 2319.9,2178.5 2262.7,2132.3 2208.0,2090.4 2155.8,2052.5 2105.9,2018.5 2058.1,1987.9 2012.4,1960.6 1968.6,1936.3 1926.5,1914.9 1886.0,1896.1 1847.0,1879.8 1809.4,1865.8 1772.9,1854.0 1737.6,1844.2 1703.1,1836.3 1669.5,1830.3 1636.6,1826.0 1604.2,1823.5 1572.3,1822.6 1540.6,1823.4 1509.2,1825.8 1477.8,1829.9 1446.4,1835.6 1414.8,1843.1 1382.9,1852.3 1350.6,1863.4 1317.8,1876.4 1284.3,1891.5 1250.1,1908.7 1215.0,1928.3 1178.9,1950.4 1141.8,1975.1 1103.5,2002.7 1063.9,2033.4 1022.9,2067.3 980.4,2104.8 936.2,2146.1 890.4,2191.5 842.8,2241.3 793.2,2295.7  A 1064.250,1064.250 0.00 0,0 796.3,2298.4 L 796.3,2298.4 845.6,2243.8 893.1,2193.8 938.7,2148.3 982.7,2106.8 1025.0,2069.2 1065.9,2035.0 1105.4,2004.2 1143.6,1976.5 1180.7,1951.6 1216.6,1929.4 1251.6,1909.7 1285.8,1892.3 1319.2,1877.1 1352.0,1863.9 1384.2,1852.7 1416.1,1843.4 1447.7,1835.8 1479.1,1829.9 1510.5,1825.8 1541.9,1823.2 1573.5,1822.3 1605.5,1823.1 1637.8,1825.5 1670.8,1829.6 1704.4,1835.5 1738.9,1843.2 1774.3,1852.9 1810.8,1864.6 1848.5,1878.4 1887.6,1894.6 1928.1,1913.2 1970.3,1934.5 2014.2,1958.5 2060.0,1985.7 2107.9,2016.0 2158.0,2049.9 2210.3,2087.6 2265.1,2129.2 2322.6,2175.3  Z" style="stroke-width: 2.0;  stroke: rgb(82,82,82); fill: rgb(255,153,0); opacity: 0.667;" />
<path d="M 2322.595,2175.253 A 1064.250,1064.250 0.00 0,1 2319.9,2178.5 L 2319.9,2178.5 2263.8,2130.9 2212.4,2085.0 2165.4,2040.7 2122.6,1998.0 2083.6,1956.7 2048.2,1916.7 2016.1,1878.1 1987.1,1840.6 1961.0,1804.2 1937.5,1768.7 1916.6,1734.1 1898.0,1700.3 1881.5,1667.2 1867.1,1634.6 1854.7,1602.4 1844.1,1570.6 1835.2,1539.0 1828.0,1507.5 1822.5,1476.0 1818.6,1444.4 1816.2,1412.4 1815.5,1380.1 1816.3,1347.3 1818.9,1313.9 1823.1,1279.7 1829.0,1244.5 1836.9,1208.4 1846.6,1171.1 1858.5,1132.4 1872.5,1092.3 1888.9,1050.6 1907.9,1007.1 1929.5,961.8 1954.1,914.4 1981.8,864.8 2012.9,812.9 2047.6,758.5 2086.2,701.4 2129.0,641.5  A 1064.250,1064.250 0.00 0,0 2125.6,639.1 L 2125.6,639.1 2083.1,699.1 2044.7,756.4 2010.2,810.9 1979.4,863.0 1951.8,912.7 1927.5,960.1 1906.0,1005.6 1887.2,1049.1 1870.9,1090.9 1857.1,1131.0 1845.4,1169.7 1835.7,1207.1 1828.0,1243.3 1822.2,1278.4 1818.1,1312.6 1815.8,1346.1 1815.0,1378.9 1815.9,1411.2 1818.4,1443.1 1822.4,1474.7 1828.1,1506.2 1835.4,1537.7 1844.4,1569.3 1855.1,1601.0 1867.7,1633.1 1882.2,1665.7 1898.8,1698.8 1917.5,1732.5 1938.6,1767.0 1962.2,1802.3 1988.4,1838.7 2017.6,1876.0 2049.8,1914.6 2085.4,1954.4 2124.6,1995.5 2167.6,2038.1 2214.7,2082.2 2266.3,2127.9 2322.6,2175.3  Z" style="stroke-width: 2.0;  stroke: rgb(82,82,82); fill: rgb(255,204,0); opacity: 0.667;" />
<path d="M 2322.595,2175.253 A 1064.250,1064.250 0.00 0,1 2319.9,2178.5 L 2319.9,2178.5 2263.5,2131.8 2211.5,2088.6 2163.6,2048.7 2119.6,2011.9 2079.3,1978.2 2042.5,1947.3 2009.1,1919.1 1979.0,1893.5 1951.9,1870.3 1927.8,1849.5 1906.5,1831.0 1887.9,1814.7 1871.9,1800.4 1858.5,1788.1 1847.6,1777.9 1839.1,1769.5 1832.9,1763.0 1829.1,1758.3 1827.6,1755.5 1828.4,1754.4 1831.6,1755.1 1837.1,1757.7 1844.9,1762.0 1855.1,1768.2 1867.8,1776.2 1882.9,1786.2 1900.7,1798.2 1921.1,1812.1 1944.4,1828.2 1970.5,1846.5 1999.6,1867.0 2031.8,1889.9 2067.4,1915.3 2106.4,1943.2 2149.1,1974.0 2195.6,2007.5 2246.1,2044.1 2300.8,2083.9 2360.0,2127.0  A 1064.250,1064.250 0.00 0,0 2362.2,2123.9 L 2362.2,2123.9 2302.9,2081.0 2248.0,2041.4 2197.4,2005.0 2150.8,1971.6 2108.0,1941.1 2068.9,1913.2 2033.2,1888.0 2000.9,1865.2 1971.7,1844.8 1945.5,1826.6 1922.3,1810.6 1901.8,1796.7 1884.0,1784.8 1868.8,1774.9 1856.1,1766.9 1845.8,1760.7 1838.0,1756.4 1832.5,1753.9 1829.4,1753.2 1828.6,1754.2 1830.1,1757.1 1833.9,1761.7 1840.1,1768.2 1848.6,1776.5 1859.6,1786.8 1873.1,1798.9 1889.1,1813.1 1907.8,1829.4 1929.1,1847.9 1953.4,1868.5 1980.5,1891.6 2010.8,1917.1 2044.3,1945.1 2081.2,1975.9 2121.6,2009.5 2165.7,2046.1 2213.8,2085.8 2266.0,2128.8 2322.6,2175.3  Z" style="stroke-width: 2.0;  stroke: rgb(82,82,82); fill: rgb(255,255,0); opacity: 0.667;" />
<path d="M 2149.983,2342.704 A 1064.250,1064.250 0.00 0,1 2146.9,2345.1 L 2146.9,2345.1 2102.6,2285.3 2062.2,2226.9 2025.1,2169.8 1990.9,2114.1 1959.5,2059.9 1930.3,2007.1 1903.1,1955.7 1877.5,1905.8 1853.4,1857.3 1830.3,1810.3 1808.1,1764.5 1786.6,1720.1 1765.3,1677.0 1744.3,1635.0 1723.3,1594.2 1702.1,1554.3 1680.5,1515.4 1658.5,1477.3 1635.8,1439.8 1612.5,1403.0 1588.3,1366.5 1563.3,1330.2 1537.3,1294.1 1510.4,1257.9 1482.4,1221.4 1453.5,1184.4 1423.6,1146.8 1392.7,1108.3 1360.8,1068.7 1328.1,1027.7 1294.6,985.2 1260.4,940.7 1225.7,894.2 1190.4,845.2 1154.8,793.6 1119.1,738.9 1083.4,681.0 1047.8,619.4 1012.7,553.8  A 1064.250,1064.250 0.00 0,0 1009.0,555.8 L 1009.0,555.8 1044.4,621.2 1080.1,682.6 1116.1,740.4 1152.0,794.9 1187.8,846.5 1223.3,895.3 1258.2,941.7 1292.6,986.0 1326.3,1028.4 1359.1,1069.3 1391.1,1108.8 1422.2,1147.1 1452.2,1184.7 1481.3,1221.5 1509.4,1257.9 1536.5,1294.0 1562.6,1330.0 1587.8,1366.2 1612.1,1402.5 1635.6,1439.3 1658.4,1476.7 1680.5,1514.7 1702.2,1553.6 1723.6,1593.3 1744.8,1634.1 1766.0,1676.0 1787.4,1719.1 1809.1,1763.4 1831.5,1809.0 1854.7,1856.0 1879.0,1904.4 1904.8,1954.2 1932.2,2005.5 1961.5,2058.2 1993.2,2112.3 2027.5,2167.9 2064.8,2224.8 2105.5,2283.1 2150.0,2342.7  Z" style="stroke-width: 2.0;  stroke: rgb(82,82,82); fill: rgb(204,255,0); opacity: 0.667;" />
<path d="M 2149.983,2342.704 A 1064.250,1064.250 0.00 0,1 2146.9,2345.1 L 2146.9,2345.1 2101.6,2287.2 2058.1,2234.2 2016.3,2185.7 1976.2,2141.5 1937.6,2101.3 1900.4,2064.9 1864.6,2032.0 1830.0,2002.3 1796.5,1975.8 1764.1,1952.2 1732.5,1931.3 1701.8,1913.0 1671.9,1897.2 1642.5,1883.8 1613.6,1872.5 1585.2,1863.4 1557.0,1856.4 1529.1,1851.5 1501.2,1848.5 1473.4,1847.4 1445.4,1848.4 1417.1,1851.3 1388.5,1856.3 1359.5,1863.2 1329.9,1872.4 1299.6,1883.6 1268.6,1897.2 1236.6,1913.2 1203.7,1931.7 1169.6,1952.9 1134.3,1976.9 1097.6,2004.0 1059.4,2034.2 1019.7,2067.8 978.3,2105.1 935.0,2146.3 889.9,2191.5 842.6,2241.3 793.2,2295.7  A 1064.250,1064.250 0.00 0,0 796.3,2298.4 L 796.3,2298.4 845.5,2243.8 892.5,2193.9 937.5,2148.4 980.6,2107.1 1021.9,2069.6 1061.5,2035.9 1099.5,2005.5 1136.1,1978.3 1171.3,1954.2 1205.3,1932.9 1238.2,1914.2 1270.1,1898.1 1301.1,1884.4 1331.3,1873.0 1360.9,1863.8 1389.9,1856.7 1418.4,1851.6 1446.7,1848.6 1474.7,1847.6 1502.5,1848.5 1530.4,1851.4 1558.4,1856.2 1586.5,1863.1 1615.0,1872.1 1643.9,1883.2 1673.3,1896.6 1703.4,1912.3 1734.1,1930.5 1765.7,1951.2 1798.3,1974.7 1831.9,2001.1 1866.6,2030.6 1902.5,2063.4 1939.8,2099.7 1978.6,2139.8 2018.9,2183.8 2060.8,2232.1 2104.5,2285.0 2150.0,2342.7  Z" style="stroke-width: 2.0;  stroke: rgb(82,82,82); fill: rgb(0,255,0); opacity: 0.667;" />
<path d="M 2149.983,2342.704 A 1064.250,1064.250 0.00 0,1 2146.9,2345.1 L 2146.9,2345.1 2102.8,2286.0 2063.0,2229.3 2027.2,2175.0 1994.9,2122.8 1966.0,2072.8 1940.2,2024.7 1917.2,1978.3 1896.8,1933.7 1878.8,1890.6 1863.0,1848.9 1849.3,1808.4 1837.5,1769.1 1827.4,1730.8 1818.9,1693.4 1811.9,1656.7 1806.4,1620.5 1802.2,1584.9 1799.3,1549.6 1797.7,1514.4 1797.3,1479.3 1798.2,1444.2 1800.3,1408.8 1803.8,1373.1 1808.5,1336.8 1814.7,1300.0 1822.4,1262.4 1831.7,1223.9 1842.8,1184.3 1855.6,1143.6 1870.5,1101.6 1887.6,1058.1 1907.0,1013.0 1929.1,966.2 1953.9,917.6 1981.7,866.9 2012.9,814.1 2047.6,759.0 2086.2,701.5 2129.0,641.5  A 1064.250,1064.250 0.00 0,0 2125.6,639.1 L 2125.6,639.1 2083.1,699.3 2044.7,756.9 2010.2,812.1 1979.3,865.0 1951.6,915.8 1927.0,964.6 1905.1,1011.4 1885.9,1056.6 1869.0,1100.1 1854.2,1142.2 1841.5,1183.0 1830.7,1222.6 1821.5,1261.1 1814.0,1298.8 1807.9,1335.7 1803.2,1371.9 1799.9,1407.6 1797.9,1443.0 1797.2,1478.2 1797.7,1513.3 1799.4,1548.4 1802.5,1583.7 1806.8,1619.4 1812.5,1655.5 1819.6,1692.2 1828.2,1729.6 1838.4,1767.9 1850.4,1807.1 1864.3,1847.5 1880.2,1889.2 1898.4,1932.2 1918.9,1976.8 1942.1,2023.0 1968.1,2071.1 1997.2,2121.0 2029.7,2173.0 2065.7,2227.2 2105.7,2283.7 2150.0,2342.7  Z" style="stroke-width: 2.0;  stroke: rgb(82,82,82); fill: rgb(53,128,0); opacity: 0.667;" />
<path d="M 2149.983,2342.704 A 1064.250,1064.250 0.00 0,1 2146.9,2345.1 L 2146.9,2345.1 2102.5,2286.9 2061.8,2232.8 2024.5,2182.7 1990.5,2136.4 1959.7,2093.6 1931.8,2054.3 1906.8,2018.2 1884.5,1985.2 1864.8,1955.1 1847.5,1927.8 1832.7,1903.1 1820.2,1881.0 1809.9,1861.4 1801.8,1844.1 1795.9,1829.1 1792.1,1816.3 1790.3,1805.6 1790.6,1797.1 1792.9,1790.5 1797.3,1786.0 1803.8,1783.6 1812.3,1783.1 1823.0,1784.6 1835.9,1788.1 1851.1,1793.7 1868.5,1801.4 1888.4,1811.2 1910.8,1823.2 1935.7,1837.4 1963.4,1854.0 1994.0,1873.0 2027.5,1894.6 2064.2,1918.8 2104.2,1945.7 2147.7,1975.6 2194.8,2008.5 2245.7,2044.5 2300.7,2084.0 2360.0,2127.0  A 1064.250,1064.250 0.00 0,0 2362.2,2123.9 L 2362.2,2123.9 2302.8,2081.1 2247.6,2041.9 2196.6,2006.0 2149.4,1973.2 2105.8,1943.5 2065.7,1916.7 2029.0,1892.7 1995.3,1871.3 1964.7,1852.4 1937.0,1835.9 1911.9,1821.7 1889.5,1809.8 1869.6,1800.1 1852.1,1792.5 1836.9,1786.9 1824.0,1783.4 1813.3,1781.9 1804.8,1782.5 1798.3,1785.0 1794.0,1789.5 1791.7,1796.0 1791.4,1804.6 1793.2,1815.2 1797.1,1828.0 1803.1,1843.0 1811.2,1860.2 1821.6,1879.8 1834.2,1901.9 1849.1,1926.5 1866.4,1953.7 1886.3,1983.7 1908.7,2016.7 1933.9,2052.7 1961.9,2091.9 1992.9,2134.6 2027.0,2180.8 2064.5,2230.7 2105.4,2284.6 2150.0,2342.7  Z" style="stroke-width: 2.0;  stroke: rgb(82,82,82); fill: rgb(0,0,204); opacity: 0.667;" />
<path d="M 2149.983,2342.704 A 1064.250,1064.250 0.00 0,1 2146.9,2345.1 L 2146.9,2345.1 2102.5,2286.9 2061.7,2232.9 2024.3,2182.9 1990.1,2136.8 1959.1,2094.3 1930.9,2055.2 1905.6,2019.5 1882.9,1986.8 1862.9,1957.1 1845.2,1930.3 1829.9,1906.2 1816.9,1884.6 1806.1,1865.6 1797.5,1849.0 1791.0,1834.8 1786.5,1822.7 1784.0,1812.9 1783.6,1805.3 1785.1,1799.8 1788.7,1796.3 1794.3,1795.0 1801.9,1795.7 1811.6,1798.5 1823.5,1803.5 1837.5,1810.6 1853.7,1819.8 1872.3,1831.3 1893.3,1845.1 1916.9,1861.3 1943.0,1880.0 1971.9,1901.2 2003.7,1925.0 2038.5,1951.7 2076.4,1981.3 2117.7,2014.0 2162.5,2049.9 2211.0,2089.1 2263.4,2131.9 2319.9,2178.5  A 1064.250,1064.250 0.00 0,0 2322.6,2175.3 L 2322.6,2175.3 2265.9,2128.9 2213.4,2086.3 2164.7,2047.2 2119.7,2011.5 2078.3,1979.0 2040.2,1949.6 2005.3,1923.1 1973.5,1899.3 1944.5,1878.2 1918.3,1859.7 1894.7,1843.6 1873.6,1829.9 1855.0,1818.4 1838.7,1809.2 1824.6,1802.2 1812.8,1797.3 1803.1,1794.5 1795.4,1793.8 1789.8,1795.2 1786.3,1798.7 1784.7,1804.2 1785.2,1811.8 1787.7,1821.7 1792.2,1833.6 1798.8,1847.9 1807.5,1864.5 1818.4,1883.5 1831.4,1904.9 1846.8,1929.0 1864.5,1955.8 1884.8,1985.4 1907.5,2017.9 1933.0,2053.6 1961.3,2092.6 1992.5,2135.0 2026.8,2181.0 2064.4,2230.8 2105.4,2284.6 2150.0,2342.7  Z" style="stroke-width: 2.0;  stroke: rgb(82,82,82); fill: rgb(102,153,255); opacity: 0.667;" />
<path d="M 1534.863,2563.679 A 1064.250,1064.250 0.00 0,1 1530.9,2563.8 L 1530.9,2563.8 1527.6,2489.7 1522.2,2419.3 1515.0,2352.3 1506.3,2288.5 1496.4,2227.7 1485.5,2169.6 1473.8,2114.1 1461.5,2060.8 1448.8,2009.6 1435.8,1960.3 1422.7,1912.6 1409.6,1866.3 1396.7,1821.3 1383.9,1777.4 1371.5,1734.3 1359.4,1692.0 1347.6,1650.1 1336.2,1608.5 1325.2,1567.1 1314.5,1525.8 1304.1,1484.2 1294.0,1442.3 1284.1,1400.0 1274.2,1357.0 1264.3,1313.3 1254.2,1268.7 1243.8,1223.0 1232.9,1176.2 1221.3,1128.2 1208.8,1078.7 1195.1,1027.7 1180.2,975.1 1163.5,920.8 1145.0,864.7 1124.3,806.7 1101.1,746.7 1075.0,684.6 1045.6,620.3 1012.7,553.8  A 1064.250,1064.250 0.00 0,0 1009.0,555.8 L 1009.0,555.8 1042.2,622.1 1071.7,686.3 1098.1,748.3 1121.6,808.2 1142.5,866.1 1161.3,922.2 1178.1,976.4 1193.3,1028.9 1207.1,1079.8 1219.8,1129.3 1231.6,1177.3 1242.7,1224.0 1253.3,1269.6 1263.5,1314.2 1273.6,1357.9 1283.7,1400.8 1293.8,1443.1 1304.0,1485.0 1314.6,1526.5 1325.4,1567.8 1336.6,1609.2 1348.1,1650.7 1360.1,1692.5 1372.3,1734.8 1385.0,1777.9 1397.9,1821.7 1411.0,1866.7 1424.2,1912.9 1437.5,1960.5 1450.6,2009.8 1463.6,2061.0 1476.1,2114.2 1488.0,2169.7 1499.1,2227.7 1509.3,2288.5 1518.2,2352.2 1525.6,2419.2 1531.2,2489.6 1534.9,2563.7  Z" style="stroke-width: 2.0;  stroke: rgb(82,82,82); fill: rgb(153,204,255); opacity: 0.667;" />
<path d="M 1534.863,2563.679 A 1064.250,1064.250 0.00 0,1 1530.9,2563.8 L 1530.9,2563.8 1528.3,2490.6 1525.0,2422.7 1521.0,2360.0 1516.3,2302.1 1511.0,2248.7 1505.1,2199.7 1498.6,2154.9 1491.5,2113.9 1483.8,2076.6 1475.6,2042.8 1466.8,2012.4 1457.3,1985.1 1447.3,1960.9 1436.6,1939.7 1425.3,1921.2 1413.3,1905.5 1400.6,1892.4 1387.1,1881.8 1372.7,1873.8 1357.5,1868.3 1341.4,1865.2 1324.3,1864.6 1306.1,1866.5 1286.8,1870.9 1266.3,1877.7 1244.4,1887.2 1221.2,1899.3 1196.5,1914.2 1170.2,1931.8 1142.2,1952.4 1112.3,1976.1 1080.6,2002.9 1046.8,2033.2 1010.8,2066.9 972.5,2104.4 931.7,2145.8 888.4,2191.3 842.3,2241.2 793.2,2295.7  A 1064.250,1064.250 0.00 0,0 796.3,2298.4 L 796.3,2298.4 845.1,2243.7 891.0,2193.6 934.2,2148.0 974.8,2106.4 1013.0,2068.8 1048.8,2034.9 1082.5,2004.5 1114.2,1977.5 1143.9,1953.8 1171.8,1933.1 1198.1,1915.3 1222.7,1900.4 1245.9,1888.2 1267.7,1878.6 1288.2,1871.7 1307.5,1867.2 1325.7,1865.3 1342.8,1865.8 1358.9,1868.8 1374.1,1874.3 1388.5,1882.3 1402.0,1892.7 1414.8,1905.8 1426.9,1921.5 1438.3,1939.9 1449.0,1961.1 1459.1,1985.3 1468.7,2012.5 1477.6,2042.9 1486.0,2076.6 1493.8,2113.9 1501.0,2154.9 1507.7,2199.7 1513.8,2248.7 1519.3,2302.0 1524.2,2359.9 1528.4,2422.6 1532.0,2490.4 1534.9,2563.7  Z" style="stroke-width: 2.0;  stroke: rgb(82,82,82); fill: rgb(0,255,255); opacity: 0.667;" />
<path d="M 1534.863,2563.679 A 1064.250,1064.250 0.00 0,1 1530.9,2563.8 L 1530.9,2563.8 1529.9,2489.7 1531.2,2419.5 1534.4,2352.8 1539.3,2289.4 1545.7,2229.1 1553.4,2171.6 1562.1,2116.7 1571.7,2064.1 1582.0,2013.8 1592.8,1965.3 1604.2,1918.6 1615.8,1873.4 1627.6,1829.6 1639.7,1786.9 1651.8,1745.1 1663.9,1704.1 1676.1,1663.8 1688.3,1623.8 1700.6,1584.1 1712.9,1544.5 1725.3,1504.9 1737.9,1465.1 1750.8,1424.9 1764.0,1384.2 1777.8,1343.0 1792.1,1301.0 1807.2,1258.2 1823.3,1214.4 1840.4,1169.5 1859.0,1123.4 1879.1,1076.1 1901.0,1027.4 1924.9,977.2 1951.2,925.5 1980.2,872.2 2012.1,817.2 2047.3,760.5 2086.1,701.9 2129.0,641.5  A 1064.250,1064.250 0.00 0,0 2125.6,639.1 L 2125.6,639.1 2083.0,699.7 2044.4,758.4 2009.5,815.2 1977.8,870.4 1949.0,923.8 1922.9,975.6 1899.1,1025.8 1877.4,1074.6 1857.5,1122.0 1839.2,1168.2 1822.1,1213.1 1806.3,1257.0 1791.3,1299.9 1777.1,1341.9 1763.6,1383.2 1750.5,1423.9 1737.8,1464.1 1725.3,1504.0 1713.0,1543.7 1700.9,1583.3 1688.8,1623.1 1676.7,1663.1 1664.7,1703.5 1652.7,1744.5 1640.7,1786.3 1628.9,1829.1 1617.2,1873.0 1605.7,1918.2 1594.6,1965.0 1583.9,2013.4 1573.8,2063.9 1564.4,2116.4 1555.8,2171.4 1548.4,2228.9 1542.2,2289.2 1537.5,2352.7 1534.6,2419.4 1533.6,2489.6 1534.9,2563.7  Z" style="stroke-width: 2.0;  stroke: rgb(82,82,82); fill: rgb(204,255,255); opacity: 0.667;" />
<path d="M 1534.863,2563.679 A 1064.250,1064.250 0.00 0,1 1530.9,2563.8 L 1530.9,2563.8 1529.3,2490.5 1529.0,2422.4 1529.7,2359.3 1531.6,2300.9 1534.5,2247.0 1538.3,2197.2 1543.1,2151.4 1548.9,2109.3 1555.5,2070.8 1563.0,2035.6 1571.4,2003.6 1580.6,1974.7 1590.7,1948.5 1601.7,1925.1 1613.6,1904.4 1626.5,1886.1 1640.4,1870.3 1655.2,1856.8 1671.2,1845.5 1688.2,1836.5 1706.5,1829.7 1726.0,1825.1 1746.9,1822.6 1769.3,1822.4 1793.2,1824.3 1818.7,1828.4 1845.9,1834.8 1875.1,1843.6 1906.2,1854.8 1939.5,1868.5 1975.0,1884.8 2012.9,1903.9 2053.4,1925.8 2096.6,1950.8 2142.8,1978.9 2192.0,2010.4 2244.5,2045.4 2300.4,2084.2 2360.0,2127.0  A 1064.250,1064.250 0.00 0,0 2362.2,2123.9 L 2362.2,2123.9 2302.5,2081.3 2246.4,2042.7 2193.8,2007.9 2144.5,1976.6 2098.3,1948.6 2054.9,1923.8 2014.4,1902.0 1976.4,1883.1 1940.8,1866.9 1907.5,1853.3 1876.3,1842.3 1847.1,1833.6 1819.9,1827.3 1794.3,1823.2 1770.5,1821.4 1748.1,1821.8 1727.2,1824.3 1707.7,1829.0 1689.5,1835.9 1672.4,1844.9 1656.5,1856.2 1641.7,1869.7 1627.9,1885.6 1615.1,1904.0 1603.3,1924.8 1592.4,1948.2 1582.3,1974.4 1573.2,2003.4 1565.0,2035.4 1557.6,2070.6 1551.1,2109.2 1545.5,2151.2 1540.9,2197.1 1537.2,2246.8 1534.5,2300.8 1532.9,2359.2 1532.4,2422.3 1533.0,2490.4 1534.9,2563.7  Z" style="stroke-width: 2.0;  stroke: rgb(82,82,82); fill: rgb(153,0,204); opacity: 0.667;" />
<path d="M 1534.863,2563.679 A 1064.250,1064.250 0.00 0,1 1530.9,2563.8 L 1530.9,2563.8 1529.3,2490.5 1528.8,2422.5 1529.4,2359.5 1531.1,2301.2 1533.7,2247.4 1537.3,2197.9 1541.7,2152.3 1547.1,2110.6 1553.2,2072.4 1560.3,2037.6 1568.1,2006.1 1576.9,1977.6 1586.4,1952.0 1596.8,1929.3 1608.1,1909.2 1620.3,1891.7 1633.4,1876.7 1647.6,1864.1 1662.7,1853.8 1679.0,1845.9 1696.4,1840.2 1715.0,1836.8 1734.9,1835.7 1756.2,1836.9 1779.0,1840.3 1803.4,1846.1 1829.4,1854.3 1857.2,1864.9 1886.9,1878.1 1918.7,1893.9 1952.6,1912.5 1988.8,1934.0 2027.5,1958.5 2068.7,1986.2 2112.8,2017.2 2159.7,2051.7 2209.8,2090.0 2263.1,2132.2 2319.9,2178.5  A 1064.250,1064.250 0.00 0,0 2322.6,2175.3 L 2322.6,2175.3 2265.6,2129.1 2212.1,2087.2 2161.9,2049.1 2114.8,2014.8 2070.6,1983.9 2029.3,1956.4 1990.5,1932.1 1954.2,1910.7 1920.2,1892.3 1888.4,1876.6 1858.6,1863.5 1830.8,1853.0 1804.7,1844.9 1780.3,1839.2 1757.5,1835.8 1736.2,1834.8 1716.3,1836.0 1697.7,1839.5 1680.3,1845.2 1664.1,1853.2 1648.9,1863.5 1634.9,1876.1 1621.8,1891.2 1609.6,1908.8 1598.4,1928.9 1588.1,1951.7 1578.6,1977.3 1570.0,2005.8 1562.3,2037.4 1555.4,2072.2 1549.3,2110.4 1544.1,2152.2 1539.8,2197.7 1536.5,2247.3 1534.1,2301.1 1532.6,2359.4 1532.3,2422.4 1533.0,2490.4 1534.9,2563.7  Z" style="stroke-width: 2.0;  stroke: rgb(82,82,82); fill: rgb(204,51,255); opacity: 0.667;" />
<path d="M 1534.863,2563.679 A 1064.250,1064.250 0.00 0,1 1530.9,2563.8 L 1530.9,2563.8 1529.2,2490.6 1528.3,2422.7 1528.3,2360.0 1529.2,2302.2 1530.8,2248.9 1533.1,2200.0 1536.2,2155.3 1539.9,2114.5 1544.4,2077.4 1549.6,2044.0 1555.4,2013.9 1561.9,1987.0 1569.1,1963.3 1577.0,1942.5 1585.7,1924.7 1595.0,1909.6 1605.2,1897.2 1616.1,1887.5 1627.9,1880.5 1640.6,1876.0 1654.3,1874.0 1668.9,1874.6 1684.5,1877.8 1701.3,1883.6 1719.3,1892.0 1738.5,1903.1 1759.1,1917.0 1781.1,1933.7 1804.6,1953.4 1829.7,1976.2 1856.5,2002.1 1885.2,2031.4 1915.8,2064.2 1948.4,2100.6 1983.2,2140.9 2020.4,2185.3 2059.9,2234.0 2102.0,2287.2 2146.9,2345.1  A 1064.250,1064.250 0.00 0,0 2150.0,2342.7 L 2150.0,2342.7 2104.9,2284.9 2062.6,2231.9 2022.9,2183.4 1985.6,2139.1 1950.6,2099.0 1917.9,2062.6 1887.1,2030.0 1858.4,2000.8 1831.4,1974.9 1806.2,1952.3 1782.7,1932.7 1760.6,1916.0 1740.0,1902.2 1720.7,1891.2 1702.7,1882.8 1685.9,1877.1 1670.2,1874.0 1655.6,1873.4 1642.0,1875.4 1629.4,1880.0 1617.6,1887.1 1606.7,1896.8 1596.6,1909.2 1587.2,1924.3 1578.7,1942.2 1570.8,1963.0 1563.7,1986.8 1557.3,2013.6 1551.6,2043.8 1546.6,2077.3 1542.2,2114.4 1538.6,2155.2 1535.7,2199.9 1533.5,2248.8 1532.1,2302.1 1531.5,2359.9 1531.7,2422.6 1532.8,2490.4 1534.9,2563.7  Z" style="stroke-width: 2.0;  stroke: rgb(82,82,82); fill: rgb(204,153,255); opacity: 0.667;" />
<path d="M 2066.379,2401.023 A 1064.250,1064.250 0.00 0,1 2063.0,2403.1 L 2063.0,2403.1 2024.7,2339.3 1989.9,2277.1 1958.3,2216.6 1929.4,2157.6 1903.0,2100.4 1878.7,2044.7 1856.1,1990.7 1834.9,1938.3 1814.9,1887.5 1795.7,1838.3 1777.2,1790.6 1759.1,1744.3 1741.1,1699.3 1723.1,1655.7 1704.8,1613.2 1686.2,1571.9 1667.0,1531.6 1647.1,1492.1 1626.3,1453.4 1604.7,1415.3 1582.1,1377.7 1558.4,1340.4 1533.6,1303.3 1507.7,1266.1 1480.6,1228.7 1452.3,1190.8 1422.9,1152.4 1392.4,1113.1 1360.9,1072.7 1328.4,1031.1 1295.0,987.9 1260.9,942.8 1226.1,895.8 1190.8,846.4 1155.1,794.3 1119.3,739.4 1083.5,681.2 1047.9,619.4 1012.7,553.8  A 1064.250,1064.250 0.00 0,0 1009.0,555.8 L 1009.0,555.8 1044.4,621.2 1080.2,682.8 1116.3,740.9 1152.3,795.7 1188.2,847.6 1223.7,896.9 1258.7,943.8 1293.0,988.7 1326.6,1031.8 1359.2,1073.3 1390.9,1113.5 1421.5,1152.7 1451.1,1191.0 1479.5,1228.8 1506.7,1266.1 1532.8,1303.2 1557.7,1340.2 1581.6,1377.4 1604.3,1415.0 1626.1,1453.0 1647.0,1491.6 1667.0,1531.0 1686.4,1571.2 1705.2,1612.5 1723.6,1654.8 1741.8,1698.4 1760.0,1743.3 1778.3,1789.5 1797.0,1837.2 1816.3,1886.4 1836.5,1937.1 1857.9,1989.4 1880.7,2043.3 1905.2,2098.9 1931.9,2156.1 1960.9,2214.9 1992.8,2275.3 2027.8,2337.4 2066.4,2401.0  Z" style="stroke-width: 2.0;  stroke: rgb(82,82,82); fill: rgb(102,102,102); opacity: 0.667;" />
<path d="M 2066.379,2401.023 A 1064.250,1064.250 0.00 0,1 2063.0,2403.1 L 2063.0,2403.1 2023.6,2341.2 1985.5,2284.3 1948.9,2232.1 1913.5,2184.3 1879.4,2140.7 1846.4,2101.1 1814.5,2065.1 1783.6,2032.6 1753.6,2003.3 1724.4,1977.1 1695.9,1953.8 1668.0,1933.3 1640.7,1915.4 1613.8,1899.9 1587.3,1886.8 1561.1,1876.0 1535.0,1867.5 1509.0,1861.0 1483.0,1856.7 1456.8,1854.5 1430.5,1854.4 1403.8,1856.4 1376.6,1860.4 1348.9,1866.7 1320.6,1875.1 1291.5,1885.8 1261.6,1898.9 1230.7,1914.5 1198.7,1932.7 1165.5,1953.6 1131.0,1977.4 1095.0,2004.2 1057.5,2034.3 1018.3,2067.9 977.4,2105.1 934.5,2146.3 889.6,2191.5 842.6,2241.3 793.2,2295.7  A 1064.250,1064.250 0.00 0,0 796.3,2298.4 L 796.3,2298.4 845.4,2243.8 892.3,2193.9 937.0,2148.4 979.7,2107.1 1020.5,2069.7 1059.5,2036.0 1096.9,2005.8 1132.8,1978.8 1167.2,1954.8 1200.3,1933.8 1232.2,1915.5 1263.1,1899.8 1293.0,1886.6 1322.0,1875.8 1350.3,1867.2 1378.0,1860.9 1405.1,1856.7 1431.8,1854.7 1458.2,1854.7 1484.3,1856.8 1510.4,1861.0 1536.4,1867.3 1562.5,1875.8 1588.8,1886.5 1615.3,1899.5 1642.2,1914.8 1669.6,1932.7 1697.6,1953.1 1726.1,1976.3 1755.4,2002.4 1785.6,2031.5 1816.6,2063.9 1848.7,2099.8 1881.8,2139.3 1916.1,2182.8 1951.6,2230.4 1988.4,2282.5 2026.7,2339.2 2066.4,2401.0  Z" style="stroke-width: 2.0;  stroke: rgb(82,82,82); fill: rgb(153,153,153); opacity: 0.667;" />
<path d="M 2066.379,2401.023 A 1064.250,1064.250 0.00 0,1 2063.0,2403.1 L 2063.0,2403.1 2024.9,2340.0 1990.7,2279.6 1960.2,2221.8 1933.0,2166.5 1908.9,2113.4 1887.7,2062.5 1869.1,2013.6 1852.8,1966.6 1838.7,1921.2 1826.7,1877.4 1816.4,1835.0 1807.8,1793.8 1800.7,1753.8 1795.0,1714.7 1790.7,1676.5 1787.6,1638.9 1785.7,1601.9 1784.8,1565.2 1785.1,1528.8 1786.5,1492.6 1788.9,1456.2 1792.5,1419.8 1797.2,1383.0 1803.1,1345.8 1810.3,1307.9 1818.8,1269.4 1828.9,1230.0 1840.5,1189.6 1854.0,1148.1 1869.3,1105.3 1886.7,1061.1 1906.4,1015.4 1928.7,968.0 1953.6,918.9 1981.6,867.8 2012.8,814.6 2047.6,759.3 2086.2,701.6 2129.0,641.5  A 1064.250,1064.250 0.00 0,0 2125.6,639.1 L 2125.6,639.1 2083.1,699.3 2044.7,757.1 2010.2,812.6 1979.2,865.9 1951.4,917.1 1926.6,966.4 1904.6,1013.8 1885.0,1059.6 1867.7,1103.9 1852.6,1146.7 1839.3,1188.3 1827.8,1228.7 1817.9,1268.2 1809.5,1306.7 1802.5,1344.6 1796.7,1381.9 1792.1,1418.7 1788.7,1455.2 1786.4,1491.5 1785.2,1527.8 1785.1,1564.1 1786.0,1600.8 1788.1,1637.8 1791.3,1675.4 1795.8,1713.6 1801.6,1752.7 1808.9,1792.7 1817.6,1833.8 1828.0,1876.2 1840.3,1919.9 1854.5,1965.2 1871.0,2012.2 1889.8,2061.1 1911.2,2111.9 1935.5,2164.9 1962.8,2220.1 1993.6,2277.8 2028.0,2338.0 2066.4,2401.0  Z" style="stroke-width: 2.0;  stroke: rgb(82,82,82); fill: rgb(204,204,204); opacity: 0.667;" />
<path d="M 2066.379,2401.023 A 1064.250,1064.250 0.00 0,1 2063.0,2403.1 L 2063.0,2403.1 2024.5,2340.8 1989.3,2283.0 1957.2,2229.4 1928.1,2179.8 1901.8,2133.9 1878.3,2091.7 1857.3,2052.9 1838.8,2017.3 1822.6,1984.8 1808.8,1955.3 1797.1,1928.5 1787.5,1904.5 1780.1,1883.0 1774.6,1864.0 1771.1,1847.3 1769.5,1833.0 1769.8,1820.9 1772.1,1811.0 1776.3,1803.2 1782.4,1797.5 1790.5,1793.9 1800.5,1792.4 1812.6,1792.9 1826.8,1795.5 1843.1,1800.2 1861.7,1807.1 1882.6,1816.1 1905.9,1827.4 1931.7,1840.9 1960.2,1856.9 1991.4,1875.4 2025.5,1896.4 2062.7,1920.1 2103.2,1946.7 2147.0,1976.2 2194.4,2008.8 2245.5,2044.7 2300.7,2084.0 2360.0,2127.0  A 1064.250,1064.250 0.00 0,0 2362.2,2123.9 L 2362.2,2123.9 2302.7,2081.1 2247.5,2042.0 2196.2,2006.3 2148.7,1973.9 2104.8,1944.5 2064.2,1918.1 2027.0,1894.5 1992.7,1873.6 1961.4,1855.2 1932.9,1839.4 1907.1,1825.9 1883.7,1814.7 1862.8,1805.7 1844.2,1799.0 1827.9,1794.3 1813.7,1791.8 1801.6,1791.3 1791.5,1792.9 1783.5,1796.5 1777.4,1802.2 1773.2,1810.0 1771.0,1819.9 1770.7,1832.0 1772.3,1846.3 1775.9,1863.0 1781.5,1882.0 1789.0,1903.4 1798.7,1927.4 1810.5,1954.1 1824.4,1983.6 1840.7,2016.0 1859.3,2051.5 1880.4,2090.3 1904.2,2132.4 1930.6,2178.2 1959.9,2227.7 1992.2,2281.2 2027.6,2338.9 2066.4,2401.0  Z" style="stroke-width: 2.0;  stroke: rgb(82,82,82); fill: rgb(204,204,153); opacity: 0.667;" />
<path d="M 2066.379,2401.023 A 1064.250,1064.250 0.00 0,1 2063.0,2403.1 L 2063.0,2403.1 2024.5,2340.9 1989.2,2283.1 1956.9,2229.6 1927.7,2180.2 1901.2,2134.6 1877.3,2092.6 1856.1,2054.1 1837.2,2018.9 1820.7,1986.8 1806.4,1957.7 1794.3,1931.5 1784.2,1908.0 1776.2,1887.1 1770.1,1868.8 1766.0,1852.9 1763.8,1839.3 1763.5,1828.1 1765.0,1819.1 1768.4,1812.3 1773.7,1807.7 1780.9,1805.2 1790.0,1804.9 1801.1,1806.7 1814.2,1810.7 1829.4,1816.9 1846.8,1825.4 1866.4,1836.1 1888.4,1849.2 1912.7,1864.7 1939.7,1882.8 1969.2,1903.4 2001.6,1926.8 2036.9,1953.0 2075.4,1982.2 2117.0,2014.6 2162.1,2050.2 2210.9,2089.3 2263.4,2132.0 2319.9,2178.5  A 1064.250,1064.250 0.00 0,0 2322.6,2175.3 L 2322.6,2175.3 2265.9,2129.0 2213.2,2086.5 2164.3,2047.6 2119.1,2012.1 2077.3,1980.0 2038.7,1950.9 2003.3,1924.8 1970.8,1901.6 1941.2,1881.0 1914.2,1863.1 1889.7,1847.7 1867.7,1834.7 1848.1,1824.0 1830.7,1815.6 1815.4,1809.5 1802.3,1805.5 1791.2,1803.8 1782.1,1804.1 1774.9,1806.6 1769.6,1811.3 1766.2,1818.1 1764.7,1827.1 1765.1,1838.3 1767.3,1851.9 1771.5,1867.8 1777.6,1886.1 1785.7,1906.9 1795.9,1930.4 1808.1,1956.6 1822.5,1985.6 1839.1,2017.6 1858.1,2052.7 1879.5,2091.2 1903.5,2133.1 1930.2,2178.6 1959.6,2227.9 1992.1,2281.3 2027.6,2338.9 2066.4,2401.0  Z" style="stroke-width: 2.0;  stroke: rgb(82,82,82); fill: rgb(251,106,74); opacity: 0.667;" />
<path d="M 2066.379,2401.023 A 1064.250,1064.250 0.00 0,1 2063.0,2403.1 L 2063.0,2403.1 2024.4,2341.0 1988.7,2283.5 1956.0,2230.4 1926.0,2181.5 1898.6,2136.6 1873.7,2095.6 1851.1,2058.1 1830.9,2024.1 1812.8,1993.4 1796.7,1965.8 1782.7,1941.3 1770.6,1919.7 1760.3,1900.8 1751.9,1884.7 1745.2,1871.1 1740.3,1860.2 1737.0,1851.7 1735.4,1845.6 1735.4,1842.0 1737.2,1840.9 1740.6,1842.1 1745.6,1845.7 1752.4,1851.7 1761.0,1860.2 1771.3,1871.3 1783.4,1884.9 1797.4,1901.1 1813.4,1920.1 1831.4,1941.8 1851.6,1966.5 1874.0,1994.3 1898.6,2025.3 1925.8,2059.5 1955.4,2097.3 1987.8,2138.8 2022.9,2184.1 2061.1,2233.4 2102.3,2287.0 2146.9,2345.1  A 1064.250,1064.250 0.00 0,0 2150.0,2342.7 L 2150.0,2342.7 2105.2,2284.8 2063.8,2231.3 2025.5,2182.1 1990.1,2136.9 1957.6,2095.6 1927.8,2058.0 1900.6,2023.8 1875.8,1992.9 1853.3,1965.2 1833.1,1940.6 1815.0,1918.9 1798.9,1900.0 1784.8,1883.8 1772.6,1870.3 1762.3,1859.3 1753.7,1850.8 1746.9,1844.8 1741.8,1841.2 1738.4,1840.0 1736.7,1841.2 1736.7,1844.8 1738.3,1850.8 1741.6,1859.3 1746.6,1870.2 1753.3,1883.7 1761.8,1899.8 1772.1,1918.7 1784.3,1940.3 1798.5,1964.7 1814.6,1992.2 1832.8,2022.9 1853.2,2056.8 1875.9,2094.2 1900.9,2135.2 1928.5,2179.9 1958.7,2228.7 1991.6,2281.7 2027.5,2339.0 2066.4,2401.0  Z" style="stroke-width: 2.0;  stroke: rgb(82,82,82); fill: rgb(116,196,118); opacity: 0.667;" />
<path d="M 2066.379,2401.023 A 1064.250,1064.250 0.00 0,1 2063.0,2403.1 L 2063.0,2403.1 2024.0,2341.1 1987.3,2284.1 1952.9,2231.8 1920.6,2184.0 1890.3,2140.5 1861.9,2100.9 1835.2,2065.3 1810.3,2033.3 1786.9,2004.8 1765.0,1979.6 1744.6,1957.7 1725.4,1938.8 1707.6,1923.0 1690.8,1910.0 1675.2,1899.8 1660.7,1892.4 1647.1,1887.8 1634.4,1885.7 1622.7,1886.4 1611.7,1889.7 1601.5,1895.7 1592.1,1904.4 1583.4,1915.8 1575.3,1930.0 1568.0,1947.1 1561.2,1967.1 1555.1,1990.3 1549.6,2016.5 1544.7,2046.1 1540.4,2079.2 1536.8,2115.9 1533.7,2156.3 1531.2,2200.8 1529.4,2249.4 1528.3,2302.5 1527.8,2360.2 1528.1,2422.8 1529.1,2490.6 1530.9,2563.8  A 1064.250,1064.250 0.00 0,0 1534.9,2563.7 L 1534.9,2563.7 1532.8,2490.5 1531.5,2422.7 1531.0,2360.1 1531.3,2302.4 1532.2,2249.3 1533.8,2200.7 1536.1,2156.2 1539.0,2115.7 1542.6,2079.0 1546.8,2046.0 1551.5,2016.4 1556.9,1990.0 1563.0,1966.9 1569.6,1946.8 1576.9,1929.7 1584.9,1915.5 1593.6,1904.0 1603.0,1895.3 1613.1,1889.3 1624.1,1885.9 1635.9,1885.2 1648.5,1887.2 1662.1,1891.8 1676.7,1899.2 1692.4,1909.3 1709.1,1922.2 1727.1,1938.0 1746.3,1956.8 1766.8,1978.6 1788.8,2003.7 1812.2,2032.1 1837.3,2064.0 1864.1,2099.6 1892.6,2139.0 1923.1,2182.5 1955.6,2230.2 1990.2,2282.3 2027.1,2339.2 2066.4,2401.0  Z" style="stroke-width: 2.0;  stroke: rgb(82,82,82); fill: rgb(107,174,214); opacity: 0.667;" />
<path d="M 1544.130,2563.335 A 1064.250,1064.250 0.00 0,1 1539.9,2563.5 L 1539.9,2563.5 1536.0,2489.4 1530.0,2419.0 1522.2,2352.1 1513.0,2288.4 1502.6,2227.6 1491.2,2169.6 1479.0,2114.1 1466.2,2060.9 1453.1,2009.7 1439.8,1960.4 1426.3,1912.8 1412.9,1866.6 1399.6,1821.6 1386.6,1777.7 1373.9,1734.7 1361.5,1692.4 1349.5,1650.5 1337.9,1609.0 1326.6,1567.6 1315.8,1526.2 1305.3,1484.7 1295.0,1442.8 1284.9,1400.4 1274.9,1357.4 1264.9,1313.7 1254.7,1269.0 1244.2,1223.4 1233.2,1176.5 1221.5,1128.4 1208.9,1078.9 1195.3,1027.9 1180.3,975.3 1163.6,921.0 1145.1,864.8 1124.3,806.8 1101.1,746.7 1075.0,684.6 1045.6,620.3 1012.7,553.8  A 1064.250,1064.250 0.00 0,0 1009.0,555.8 L 1009.0,555.8 1042.2,622.2 1071.7,686.3 1098.1,748.3 1121.6,808.3 1142.6,866.2 1161.3,922.3 1178.2,976.6 1193.4,1029.1 1207.3,1080.1 1220.0,1129.5 1231.9,1177.6 1243.1,1224.4 1253.8,1270.0 1264.1,1314.6 1274.3,1358.3 1284.5,1401.3 1294.8,1443.6 1305.2,1485.4 1315.9,1526.9 1326.9,1568.3 1338.3,1609.6 1350.1,1651.1 1362.2,1692.9 1374.8,1735.2 1387.7,1778.2 1400.9,1822.0 1414.4,1866.9 1427.9,1913.1 1441.6,1960.7 1455.1,2009.9 1468.5,2061.0 1481.4,2114.2 1493.8,2169.6 1505.5,2227.6 1516.1,2288.3 1525.6,2352.0 1533.6,2418.9 1539.9,2489.3 1544.1,2563.3  Z" style="stroke-width: 2.0;  stroke: rgb(82,82,82); fill: rgb(253,141,60); opacity: 0.667;" />
<path d="M 1544.130,2563.335 A 1064.250,1064.250 0.00 0,1 1539.9,2563.5 L 1539.9,2563.5 1536.7,2490.3 1532.8,2422.5 1528.2,2359.7 1523.0,2301.9 1517.2,2248.6 1510.9,2199.6 1503.9,2154.8 1496.4,2113.8 1488.4,2076.5 1479.8,2042.8 1470.6,2012.4 1460.9,1985.2 1450.5,1961.0 1439.6,1939.7 1428.0,1921.3 1415.8,1905.6 1402.8,1892.5 1389.1,1881.9 1374.6,1874.0 1359.2,1868.4 1342.9,1865.4 1325.6,1864.8 1307.3,1866.6 1287.8,1871.0 1267.2,1877.9 1245.2,1887.3 1221.9,1899.4 1197.0,1914.3 1170.6,1931.9 1142.5,1952.5 1112.6,1976.1 1080.8,2003.0 1047.0,2033.2 1010.9,2067.0 972.6,2104.4 931.8,2145.8 888.4,2191.3 842.3,2241.2 793.2,2295.7  A 1064.250,1064.250 0.00 0,0 796.3,2298.4 L 796.3,2298.4 845.1,2243.7 891.0,2193.6 934.2,2148.0 974.9,2106.4 1013.1,2068.8 1049.0,2034.9 1082.7,2004.6 1114.5,1977.6 1144.3,1953.9 1172.3,1933.2 1198.6,1915.4 1223.4,1900.5 1246.7,1888.3 1268.6,1878.8 1289.3,1871.8 1308.7,1867.4 1327.0,1865.4 1344.3,1866.0 1360.6,1869.0 1376.0,1874.4 1390.6,1882.4 1404.3,1892.8 1417.3,1905.9 1429.7,1921.6 1441.3,1939.9 1452.3,1961.2 1462.8,1985.3 1472.6,2012.5 1481.9,2042.9 1490.6,2076.6 1498.8,2113.8 1506.5,2154.7 1513.6,2199.6 1520.2,2248.5 1526.2,2301.8 1531.6,2359.6 1536.4,2422.3 1540.6,2490.1 1544.1,2563.3  Z" style="stroke-width: 2.0;  stroke: rgb(82,82,82); fill: rgb(255,0,0); opacity: 0.667;" />
<path d="M 1544.130,2563.335 A 1064.250,1064.250 0.00 0,1 1539.9,2563.5 L 1539.9,2563.5 1538.3,2489.5 1538.9,2419.2 1541.6,2352.5 1546.0,2289.1 1551.9,2228.8 1559.0,2171.2 1567.3,2116.3 1576.5,2063.8 1586.3,2013.4 1596.8,1964.9 1607.8,1918.2 1619.1,1873.0 1630.6,1829.1 1642.3,1786.4 1654.2,1744.6 1666.1,1703.6 1678.0,1663.2 1690.0,1623.3 1702.1,1583.6 1714.2,1544.0 1726.4,1504.4 1738.9,1464.6 1751.6,1424.4 1764.7,1383.8 1778.4,1342.6 1792.6,1300.6 1807.6,1257.8 1823.6,1214.0 1840.7,1169.2 1859.2,1123.2 1879.2,1075.9 1901.1,1027.2 1925.0,977.1 1951.3,925.4 1980.2,872.2 2012.1,817.2 2047.3,760.5 2086.1,701.9 2129.0,641.5  A 1064.250,1064.250 0.00 0,0 2125.6,639.1 L 2125.6,639.1 2083.0,699.7 2044.4,758.3 2009.5,815.2 1977.8,870.3 1949.1,923.7 1923.0,975.5 1899.2,1025.7 1877.6,1074.4 1857.7,1121.8 1839.4,1167.9 1822.5,1212.8 1806.7,1256.6 1791.8,1299.5 1777.7,1341.5 1764.3,1382.8 1751.4,1423.4 1738.8,1463.6 1726.5,1503.5 1714.4,1543.2 1702.4,1582.8 1690.5,1622.5 1678.7,1662.5 1666.9,1703.0 1655.1,1744.0 1643.5,1785.8 1631.9,1828.6 1620.6,1872.5 1609.4,1917.7 1598.7,1964.5 1588.4,2013.0 1578.7,2063.5 1569.7,2116.0 1561.7,2171.0 1554.7,2228.6 1549.1,2288.9 1545.0,2352.3 1542.6,2419.1 1542.2,2489.3 1544.1,2563.3  Z" style="stroke-width: 2.0;  stroke: rgb(82,82,82); fill: rgb(255,0,204); opacity: 0.667;" />
<path d="M 1544.130,2563.335 A 1064.250,1064.250 0.00 0,1 1539.9,2563.5 L 1539.9,2563.5 1537.7,2490.2 1536.8,2422.2 1537.0,2359.1 1538.3,2300.7 1540.7,2246.7 1544.1,2197.0 1548.5,2151.2 1553.8,2109.1 1560.0,2070.6 1567.1,2035.4 1575.2,2003.4 1584.1,1974.4 1593.9,1948.2 1604.7,1924.9 1616.3,1904.1 1628.9,1885.8 1642.6,1870.0 1657.2,1856.5 1672.9,1845.2 1689.8,1836.3 1707.9,1829.5 1727.3,1824.8 1748.1,1822.4 1770.3,1822.1 1794.0,1824.1 1819.4,1828.2 1846.6,1834.7 1875.6,1843.4 1906.6,1854.6 1939.8,1868.4 1975.3,1884.7 2013.1,1903.8 2053.6,1925.7 2096.8,1950.7 2142.8,1978.9 2192.0,2010.4 2244.5,2045.4 2300.4,2084.2 2360.0,2127.0  A 1064.250,1064.250 0.00 0,0 2362.2,2123.9 L 2362.2,2123.9 2302.5,2081.3 2246.4,2042.7 2193.9,2007.9 2144.6,1976.5 2098.4,1948.6 2055.1,1923.7 2014.6,1901.9 1976.6,1883.0 1941.1,1866.8 1907.9,1853.2 1876.9,1842.1 1847.8,1833.4 1820.6,1827.1 1795.2,1823.0 1771.5,1821.1 1749.3,1821.5 1728.5,1824.0 1709.2,1828.7 1691.1,1835.6 1674.3,1844.6 1658.6,1855.9 1644.0,1869.4 1630.4,1885.3 1617.9,1903.6 1606.3,1924.5 1595.7,1947.9 1586.0,1974.1 1577.1,2003.1 1569.2,2035.1 1562.2,2070.3 1556.2,2108.9 1551.0,2151.0 1546.8,2196.8 1543.6,2246.6 1541.5,2300.5 1540.4,2358.9 1540.4,2422.0 1541.6,2490.0 1544.1,2563.3  Z" style="stroke-width: 2.0;  stroke: rgb(82,82,82); fill: rgb(255,204,204); opacity: 0.667;" />
<path d="M 1544.130,2563.335 A 1064.250,1064.250 0.00 0,1 1539.9,2563.5 L 1539.9,2563.5 1537.7,2490.2 1536.6,2422.2 1536.7,2359.2 1537.8,2301.0 1539.9,2247.2 1543.0,2197.6 1547.0,2152.1 1552.0,2110.3 1557.8,2072.1 1564.4,2037.4 1572.0,2005.8 1580.4,1977.3 1589.6,1951.8 1599.8,1929.0 1610.8,1908.9 1622.7,1891.4 1635.6,1876.4 1649.6,1863.8 1664.5,1853.5 1680.6,1845.6 1697.8,1840.0 1716.3,1836.6 1736.0,1835.5 1757.2,1836.6 1779.9,1840.1 1804.1,1845.9 1830.0,1854.1 1857.7,1864.8 1887.4,1878.0 1919.0,1893.8 1952.9,1912.4 1989.0,1933.9 2027.6,1958.4 2068.8,1986.1 2112.8,2017.1 2159.7,2051.7 2209.8,2090.0 2263.1,2132.2 2319.9,2178.5  A 1064.250,1064.250 0.00 0,0 2322.6,2175.3 L 2322.6,2175.3 2265.6,2129.1 2212.1,2087.1 2161.9,2049.1 2114.9,2014.7 2070.8,1983.9 2029.4,1956.3 1990.7,1932.0 1954.5,1910.6 1920.6,1892.2 1888.8,1876.4 1859.2,1863.3 1831.4,1852.8 1805.5,1844.7 1781.2,1839.0 1758.5,1835.6 1737.4,1834.5 1717.6,1835.7 1699.2,1839.2 1681.9,1844.9 1665.9,1852.9 1651.0,1863.2 1637.1,1875.8 1624.3,1890.9 1612.4,1908.5 1601.4,1928.6 1591.4,1951.4 1582.3,1977.0 1574.0,2005.5 1566.6,2037.1 1560.0,2071.9 1554.4,2110.1 1549.6,2151.9 1545.8,2197.5 1542.9,2247.0 1541.0,2300.8 1540.1,2359.1 1540.3,2422.1 1541.6,2490.1 1544.1,2563.3  Z" style="stroke-width: 2.0;  stroke: rgb(82,82,82); fill: rgb(255,153,0); opacity: 0.667;" />
<path d="M 1544.130,2563.335 A 1064.250,1064.250 0.00 0,1 1539.9,2563.5 L 1539.9,2563.5 1537.6,2490.3 1536.1,2422.5 1535.6,2359.8 1535.9,2301.9 1537.0,2248.7 1538.9,2199.8 1541.5,2155.1 1544.9,2114.3 1549.0,2077.2 1553.7,2043.7 1559.2,2013.6 1565.5,1986.8 1572.4,1963.0 1580.0,1942.3 1588.4,1924.4 1597.5,1909.4 1607.4,1897.0 1618.2,1887.3 1629.8,1880.2 1642.3,1875.7 1655.7,1873.8 1670.2,1874.4 1685.7,1877.6 1702.3,1883.4 1720.2,1891.9 1739.3,1903.0 1759.7,1916.9 1781.6,1933.6 1805.0,1953.3 1830.1,1976.1 1856.8,2002.0 1885.4,2031.3 1915.9,2064.1 1948.5,2100.6 1983.3,2140.9 2020.4,2185.3 2059.9,2234.0 2102.0,2287.2 2146.9,2345.1  A 1064.250,1064.250 0.00 0,0 2150.0,2342.7 L 2150.0,2342.7 2104.9,2284.9 2062.6,2231.9 2022.9,2183.4 1985.7,2139.1 1950.8,2098.9 1918.0,2062.6 1887.4,2029.9 1858.7,2000.7 1831.8,1974.8 1806.7,1952.2 1783.2,1932.6 1761.3,1915.9 1740.8,1902.1 1721.6,1891.0 1703.8,1882.7 1687.1,1876.9 1671.6,1873.8 1657.1,1873.2 1643.7,1875.2 1631.2,1879.8 1619.7,1886.9 1609.0,1896.6 1599.1,1909.0 1590.0,1924.1 1581.7,1942.0 1574.2,1962.8 1567.4,1986.5 1561.3,2013.4 1555.9,2043.5 1551.2,2077.0 1547.3,2114.1 1544.1,2154.9 1541.6,2199.6 1539.9,2248.5 1539.0,2301.8 1539.0,2359.6 1539.8,2422.3 1541.5,2490.1 1544.1,2563.3  Z" style="stroke-width: 2.0;  stroke: rgb(82,82,82); fill: rgb(255,204,0); opacity: 0.667;" />
<path d="M 1544.130,2563.335 A 1064.250,1064.250 0.00 0,1 1539.9,2563.5 L 1539.9,2563.5 1537.2,2490.4 1534.6,2422.8 1532.3,2360.5 1530.1,2303.2 1528.1,2250.6 1526.2,2202.7 1524.5,2159.0 1522.9,2119.5 1521.5,2083.9 1520.3,2052.1 1519.1,2023.9 1518.1,1999.2 1517.2,1977.9 1516.4,1959.8 1515.7,1944.8 1515.1,1933.0 1514.6,1924.1 1514.2,1918.3 1513.9,1915.3 1513.7,1915.4 1513.7,1918.3 1513.7,1924.2 1513.8,1933.0 1514.0,1944.9 1514.3,1959.8 1514.7,1977.9 1515.2,1999.3 1515.8,2024.0 1516.5,2052.2 1517.4,2084.1 1518.3,2119.6 1519.4,2159.2 1520.6,2202.9 1522.0,2250.8 1523.4,2303.4 1525.1,2360.7 1526.9,2423.0 1528.8,2490.6 1530.9,2563.8  A 1064.250,1064.250 0.00 0,0 1534.9,2563.7 L 1534.9,2563.7 1532.5,2490.5 1530.3,2422.9 1528.3,2360.6 1526.4,2303.3 1524.7,2250.8 1523.2,2202.8 1521.8,2159.1 1520.6,2119.6 1519.5,2084.0 1518.6,2052.2 1517.8,2024.0 1517.1,1999.2 1516.5,1977.9 1516.0,1959.8 1515.6,1944.8 1515.4,1933.0 1515.3,1924.1 1515.2,1918.2 1515.3,1915.3 1515.5,1915.3 1515.8,1918.2 1516.2,1924.1 1516.8,1932.9 1517.4,1944.8 1518.1,1959.7 1519.0,1977.8 1520.0,1999.1 1521.2,2023.8 1522.4,2052.0 1523.8,2083.8 1525.4,2119.4 1527.1,2158.9 1529.0,2202.6 1531.0,2250.5 1533.2,2303.0 1535.7,2360.3 1538.3,2422.6 1541.1,2490.2 1544.1,2563.3  Z" style="stroke-width: 2.0;  stroke: rgb(82,82,82); fill: rgb(255,255,0); opacity: 0.667;" />
<path d="M 1544.130,2563.335 A 1064.250,1064.250 0.00 0,1 1539.9,2563.5 L 1539.9,2563.5 1537.5,2490.3 1535.9,2422.5 1535.1,2359.9 1535.0,2302.2 1535.7,2249.2 1537.0,2200.6 1539.0,2156.1 1541.7,2115.6 1545.0,2079.0 1548.9,2045.9 1553.5,2016.3 1558.7,1990.0 1564.5,1966.9 1570.9,1946.9 1578.1,1929.8 1585.8,1915.6 1594.3,1904.2 1603.6,1895.5 1613.5,1889.5 1624.3,1886.2 1635.9,1885.6 1648.4,1887.6 1661.8,1892.3 1676.3,1899.7 1691.7,1909.8 1708.3,1922.8 1726.1,1938.7 1745.1,1957.6 1765.5,1979.5 1787.3,2004.7 1810.6,2033.2 1835.4,2065.2 1862.0,2100.9 1890.4,2140.4 1920.7,2184.0 1953.0,2231.8 1987.4,2284.1 2024.0,2341.1 2063.0,2403.1  A 1064.250,1064.250 0.00 0,0 2066.4,2401.0 L 2066.4,2401.0 2027.1,2339.2 1990.3,2282.3 1955.7,2230.1 1923.2,2182.4 1892.8,2139.0 1864.2,2099.6 1837.5,2064.0 1812.5,2032.0 1789.1,2003.6 1767.3,1978.5 1746.8,1956.7 1727.7,1937.9 1709.9,1922.0 1693.3,1909.1 1677.8,1899.0 1663.3,1891.7 1649.9,1887.0 1637.4,1885.1 1625.8,1885.7 1615.0,1889.1 1605.1,1895.1 1595.9,1903.8 1587.5,1915.2 1579.7,1929.5 1572.7,1946.6 1566.3,1966.7 1560.6,1989.8 1555.5,2016.1 1551.1,2045.7 1547.3,2078.8 1544.1,2115.5 1541.6,2155.9 1539.8,2200.4 1538.6,2249.0 1538.2,2302.1 1538.5,2359.8 1539.5,2422.4 1541.4,2490.1 1544.1,2563.3  Z" style="stroke-width: 2.0;  stroke: rgb(82,82,82); fill: rgb(204,255,0); opacity: 0.667;" />
<path d="M 991.571,2434.948 A 1064.250,1064.250 0.00 0,1 988.8,2433.4 L 988.8,2433.4 1024.0,2369.2 1056.4,2309.9 1086.4,2255.2 1113.9,2204.9 1139.1,2158.8 1162.1,2116.6 1183.0,2078.3 1201.9,2043.6 1218.9,2012.3 1234.2,1984.3 1247.6,1959.5 1259.4,1937.8 1269.5,1919.0 1278.1,1903.0 1285.2,1889.8 1290.7,1879.3 1294.8,1871.5 1297.5,1866.2 1298.7,1863.6 1298.5,1863.5 1296.9,1865.9 1293.9,1871.0 1289.4,1878.6 1283.4,1888.9 1276.0,1901.8 1267.0,1917.6 1256.5,1936.2 1244.3,1957.7 1230.4,1982.2 1214.7,2009.9 1197.2,2041.0 1177.8,2075.4 1156.4,2113.5 1132.9,2155.3 1107.2,2201.2 1079.1,2251.2 1048.6,2305.5 1015.5,2364.5 979.7,2428.4  A 1064.250,1064.250 0.00 0,0 982.4,2429.9 L 982.4,2429.9 1018.0,2366.0 1050.9,2306.9 1081.3,2252.4 1109.2,2202.3 1134.8,2156.4 1158.2,2114.5 1179.5,2076.4 1198.8,2041.8 1216.2,2010.8 1231.8,1983.0 1245.6,1958.4 1257.7,1936.9 1268.2,1918.3 1277.2,1902.5 1284.6,1889.5 1290.5,1879.2 1295.0,1871.6 1298.0,1866.5 1299.6,1864.1 1299.8,1864.2 1298.5,1866.8 1295.9,1872.1 1291.8,1879.9 1286.3,1890.5 1279.3,1903.7 1270.8,1919.6 1260.7,1938.5 1249.0,1960.3 1235.6,1985.1 1220.5,2013.1 1203.5,2044.4 1184.7,2079.2 1163.9,2117.6 1141.0,2159.8 1116.0,2206.0 1088.6,2256.4 1058.8,2311.2 1026.5,2370.6 991.6,2434.9  Z" style="stroke-width: 2.0;  stroke: rgb(82,82,82); fill: rgb(0,255,0); opacity: 0.667;" />
<path d="M 1025.632,2452.682 A 1064.250,1064.250 0.00 0,1 1022.8,2451.3 L 1022.8,2451.3 1055.6,2385.8 1085.9,2325.3 1113.7,2269.5 1139.3,2218.2 1162.6,2171.1 1183.9,2128.1 1203.2,2088.9 1220.6,2053.3 1236.2,2021.3 1250.0,1992.6 1262.2,1967.2 1272.8,1944.8 1281.8,1925.4 1289.4,1908.9 1295.4,1895.2 1300.1,1884.3 1303.3,1876.0 1305.2,1870.3 1305.7,1867.3 1304.8,1866.8 1302.5,1868.9 1298.9,1873.6 1293.8,1881.0 1287.3,1891.0 1279.4,1903.7 1270.0,1919.2 1259.0,1937.5 1246.4,1958.8 1232.2,1983.2 1216.2,2010.7 1198.4,2041.6 1178.7,2075.9 1157.1,2113.9 1133.4,2155.6 1107.5,2201.3 1079.3,2251.3 1048.7,2305.6 1015.5,2364.6 979.7,2428.4  A 1064.250,1064.250 0.00 0,0 982.4,2429.9 L 982.4,2429.9 1018.0,2366.0 1051.0,2306.9 1081.5,2252.5 1109.5,2202.5 1135.3,2156.7 1158.9,2114.9 1180.4,2076.8 1200.0,2042.5 1217.7,2011.5 1233.6,1984.0 1247.7,1959.5 1260.3,1938.2 1271.2,1919.8 1280.6,1904.3 1288.5,1891.6 1294.9,1881.6 1300.0,1874.2 1303.6,1869.5 1305.9,1867.4 1306.8,1867.8 1306.3,1870.9 1304.4,1876.6 1301.2,1884.9 1296.6,1895.8 1290.6,1909.6 1283.1,1926.1 1274.1,1945.5 1263.6,1967.9 1251.5,1993.4 1237.7,2022.1 1222.2,2054.2 1204.9,2089.7 1185.7,2129.0 1164.6,2172.1 1141.4,2219.3 1116.0,2270.7 1088.3,2326.6 1058.2,2387.1 1025.6,2452.7  Z" style="stroke-width: 2.0;  stroke: rgb(82,82,82); fill: rgb(53,128,0); opacity: 0.667;" />
<path d="M 1025.632,2452.682 A 1064.250,1064.250 0.00 0,1 1022.8,2451.3 L 1022.8,2451.3 1055.6,2385.8 1085.9,2325.4 1113.8,2269.6 1139.3,2218.3 1162.7,2171.2 1184.1,2128.2 1203.4,2089.0 1220.9,2053.5 1236.6,2021.5 1250.5,1992.9 1262.8,1967.5 1273.5,1945.2 1282.6,1925.9 1290.3,1909.4 1296.5,1895.8 1301.3,1884.9 1304.7,1876.7 1306.7,1871.2 1307.4,1868.2 1306.7,1867.8 1304.6,1870.0 1301.2,1874.9 1296.3,1882.3 1290.1,1892.5 1282.4,1905.3 1273.3,1921.0 1262.6,1939.5 1250.3,1961.0 1236.4,1985.5 1220.8,2013.3 1203.4,2044.3 1184.1,2078.9 1162.9,2117.1 1139.7,2159.1 1114.3,2205.1 1086.6,2255.3 1056.5,2310.0 1024.0,2369.3 988.8,2433.4  A 1064.250,1064.250 0.00 0,0 991.6,2434.9 L 991.6,2434.9 1026.6,2370.7 1058.9,2311.3 1088.8,2256.5 1116.3,2206.2 1141.6,2160.2 1164.7,2118.1 1185.8,2079.8 1205.0,2045.2 1222.3,2014.1 1237.8,1986.3 1251.7,1961.7 1263.9,1940.2 1274.5,1921.6 1283.6,1906.0 1291.3,1893.1 1297.5,1882.9 1302.3,1875.5 1305.7,1870.6 1307.8,1868.4 1308.5,1868.8 1307.8,1871.7 1305.8,1877.3 1302.4,1885.5 1297.7,1896.4 1291.5,1910.1 1283.9,1926.5 1274.8,1945.9 1264.2,1968.2 1251.9,1993.6 1238.1,2022.3 1222.5,2054.3 1205.1,2089.9 1185.9,2129.1 1164.7,2172.2 1141.4,2219.3 1116.0,2270.7 1088.3,2326.6 1058.2,2387.1 1025.6,2452.7  Z" style="stroke-width: 2.0;  stroke: rgb(82,82,82); fill: rgb(0,0,204); opacity: 0.667;" />
<path d="M 1530.099,436.176 A 1064.250,1064.250 0.00 0,1 1538.6,436.4 L 1538.6,436.4 1536.2,509.7 1534.8,577.4 1534.1,640.0 1534.1,697.8 1534.9,750.8 1536.4,799.5 1538.5,844.0 1541.3,884.5 1544.8,921.2 1548.9,954.3 1553.6,984.0 1559.0,1010.3 1565.0,1033.5 1571.6,1053.6 1578.9,1070.8 1586.9,1085.1 1595.6,1096.6 1605.1,1105.4 1615.3,1111.5 1626.3,1115.0 1638.2,1115.8 1650.9,1113.9 1664.6,1109.4 1679.4,1102.2 1695.1,1092.2 1712.1,1079.4 1730.2,1063.8 1749.6,1045.2 1770.4,1023.5 1792.6,998.6 1816.3,970.3 1841.7,938.6 1868.7,903.3 1897.7,864.1 1928.5,820.9 1961.4,773.5 1996.5,721.6 2033.8,665.0 2073.5,603.5  A 1064.250,1064.250 0.00 0,0 2066.4,599.0 L 2066.4,599.0 2027.1,660.8 1990.2,717.7 1955.6,769.8 1923.1,817.5 1892.6,861.0 1864.0,900.4 1837.2,935.9 1812.1,967.8 1788.5,996.3 1766.5,1021.3 1746.0,1043.2 1726.7,1061.9 1708.7,1077.7 1691.9,1090.6 1676.2,1100.7 1661.5,1108.1 1647.8,1112.7 1635.1,1114.7 1623.2,1114.0 1612.2,1110.6 1601.9,1104.6 1592.4,1095.9 1583.6,1084.4 1575.5,1070.2 1568.1,1053.1 1561.2,1033.0 1555.1,1009.8 1549.5,983.5 1544.5,953.9 1540.2,920.9 1536.4,884.2 1533.3,843.7 1530.8,799.2 1528.9,750.6 1527.7,697.5 1527.2,639.8 1527.4,577.2 1528.4,509.4 1530.1,436.2  Z" style="stroke-width: 2.0;  stroke: rgb(82,82,82); fill: rgb(102,153,255); opacity: 0.667;" />
<path d="M 1947.116,534.228 A 1064.250,1064.250 0.00 0,1 1950.3,535.7 L 1950.3,535.7 1920.1,603.1 1893.4,667.5 1870.0,729.0 1849.7,787.8 1832.1,844.2 1816.9,898.2 1804.1,950.1 1793.2,1000.0 1784.2,1048.0 1776.8,1094.3 1770.8,1139.2 1766.2,1182.6 1762.8,1224.9 1760.5,1266.1 1759.1,1306.5 1758.7,1346.1 1759.1,1385.1 1760.3,1423.7 1762.2,1462.0 1765.0,1500.2 1768.5,1538.4 1772.8,1576.8 1778.0,1615.5 1784.1,1654.7 1791.1,1694.4 1799.3,1734.9 1808.7,1776.2 1819.5,1818.6 1831.7,1862.1 1845.6,1906.9 1861.4,1953.2 1879.3,2001.0 1899.4,2050.5 1922.1,2101.8 1947.5,2155.1 1976.0,2210.5 2007.9,2268.0 2043.5,2328.0 2083.1,2390.3  A 1064.250,1064.250 0.00 0,0 2086.0,2388.4 L 2086.0,2388.4 2046.2,2326.1 2010.5,2266.3 1978.4,2208.9 1949.7,2153.6 1924.1,2100.4 1901.2,2049.2 1880.9,1999.7 1862.9,1952.0 1847.0,1905.8 1832.9,1861.0 1820.5,1817.5 1809.6,1775.2 1800.1,1733.9 1791.8,1693.4 1784.6,1653.7 1778.3,1614.6 1773.0,1575.9 1768.6,1537.5 1765.0,1499.3 1762.1,1461.2 1760.0,1422.8 1758.7,1384.3 1758.2,1345.2 1758.5,1305.6 1759.7,1265.3 1761.9,1224.0 1765.2,1181.7 1769.6,1138.3 1775.4,1093.4 1782.7,1047.0 1791.5,999.0 1802.2,949.1 1814.9,897.2 1829.9,843.1 1847.3,786.7 1867.5,727.8 1890.6,666.1 1917.1,601.7 1947.1,534.2  Z" style="stroke-width: 2.0;  stroke: rgb(82,82,82); fill: rgb(153,204,255); opacity: 0.667;" />
<path d="M 1861.657,499.084 A 1064.250,1064.250 0.00 0,1 1864.0,499.9 L 1864.0,499.9 1839.8,569.6 1818.8,635.6 1800.8,698.2 1785.7,757.7 1773.1,814.2 1762.8,868.0 1754.8,919.2 1748.7,968.1 1744.4,1014.8 1741.8,1059.5 1740.8,1102.4 1741.2,1143.6 1742.9,1183.5 1745.9,1222.0 1750.1,1259.4 1755.5,1295.8 1762.0,1331.3 1769.6,1366.2 1778.3,1400.6 1788.2,1434.5 1799.3,1468.2 1811.6,1501.7 1825.2,1535.3 1840.2,1568.8 1856.7,1602.7 1874.8,1636.8 1894.7,1671.3 1916.6,1706.3 1940.5,1742.0 1966.6,1778.3 1995.3,1815.4 2026.6,1853.4 2060.9,1892.3 2098.4,1932.1 2139.4,1973.1 2184.1,2015.1 2232.8,2058.4 2286.0,2102.8 2343.8,2148.5  A 1064.250,1064.250 0.00 0,0 2345.4,2146.5 L 2345.4,2146.5 2287.4,2100.9 2234.2,2056.6 2185.3,2013.5 2140.5,1971.6 2099.5,1930.7 2061.9,1890.9 2027.5,1852.1 1996.0,1814.2 1967.3,1777.2 1941.0,1740.9 1917.0,1705.3 1895.1,1670.4 1875.2,1635.9 1856.9,1601.8 1840.4,1568.0 1825.3,1534.5 1811.6,1501.0 1799.2,1467.5 1788.0,1433.9 1778.1,1399.9 1769.3,1365.6 1761.6,1330.7 1755.0,1295.2 1749.5,1258.8 1745.3,1221.4 1742.2,1182.9 1740.3,1143.1 1739.8,1101.8 1740.8,1058.9 1743.3,1014.2 1747.4,967.5 1753.4,918.6 1761.3,867.4 1771.5,813.6 1783.9,757.0 1798.9,697.5 1816.7,634.8 1837.5,568.8 1861.7,499.1  Z" style="stroke-width: 2.0;  stroke: rgb(82,82,82); fill: rgb(0,255,255); opacity: 0.667;" />
</g>
<defs>
<pattern id="hline-sparse" width="10" height="10" patternTransform="rotate(0 0 0)" patternUnits="userSpaceOnUse"><line x1="0" y1="0" x2="10" y2="0" style="stroke:black;stroke-width:2" /></pattern>
<pattern id="checker" width="10" height="10" patternTransform="rotate(45 0 0)" patternUnits="userSpaceOnUse"><line x1="0" y1="0" x2="10" y2="0" style="stroke:black;stroke-width:2" /><line x1="0" y1="0" x2="0" y2="10" style="stroke:black;stroke-width:2" /></pattern>
<pattern id="checker" width="10" height="10" patternTransform="rotate(45 0 0)" patternUnits="userSpaceOnUse"><line x1="0" y1="0" x2="10" y2="0" style="stroke:black;stroke-width:5" /><line x1="0" y1="0" x2="0" y2="10" style="stroke:black;stroke-width:4" /></pattern>
<pattern id="hline" width="10" height="10" patternTransform="rotate(0 0 0)" patternUnits="userSpaceOnUse"><line x1="0" y1="0" x2="10" y2="0" style="stroke:black;stroke-width:5" /></pattern>
<pattern id="vline-sparse" width="10" height="10" patternTransform="rotate(0 0 0)" patternUnits="userSpaceOnUse"><line x1="0" y1="0" x2="0" y2="10" style="stroke:black;stroke-width:2" /></pattern>
<pattern id="vline" width="10" height="10" patternTransform="rotate(0 0 0)" patternUnits="userSpaceOnUse"><line x1="0" y1="0" x2="0" y2="10" style="stroke:black;stroke-width:5" /></pattern>
</defs>
</svg>
