<?xml version="1.0" encoding="utf-8" standalone="no"?>
<!DOCTYPE svg PUBLIC "-//W3C//DTD SVG 1.1//EN" "http://www.w3.org/Graphics/SVG/1.1/DTD/svg11.dtd">
<svg width="3000px" height="3000px" version="1.1" xmlns="http://www.w3.org/2000/svg" xmlns:xlink="http://www.w3.org/1999/xlink">
<g id="ideograms">
<path d="M1500.000,425.000 A1075.000,1075.000 40.000 0,1 1531.391,425.458 L1532.851,375.480 A1125.000,1125.000 0.000 0,0 1500.000,375.000 Z" style="stroke-linecap:round;fill:rgb(116,196,118);fill-opacity:0.33;" />
<text x="1527.2" y="285.3" font-size="18.2px" font-family="CMUBright-Roman" style="text-anchor:start;fill:rgb(0,0,0);" transform="rotate(270.8,1527.2,285.3)" >R<tspan baseline-shift="-40%" font-size="90%">s</tspan>caffold<tspan baseline-shift="-40%" font-size="90%">1</tspan>5</text>
<line x1='1500.0' y1='375.0' x2='1500.0' y2='355.0' style="stroke-width:4.0;stroke:rgb(0,0,0);stroke-linecap:round;fill:none;" />
<text x="1506.5" y="345.0" font-size="18.2px" font-family="CMUBright-Roman" style="text-anchor:start;fill:rgb(0,0,0);" transform="rotate(270.0,1506.5,345.0)" >0</text>
<g id="highlighttrack_0">
<path d="M1514.493,425.098 A1075.000,1075.000 40.000 0,1 1523.995,425.268 L1525.111,375.280 A1125.000,1125.000 0.000 0,0 1515.167,375.102 Z" style="stroke-width:4.0;stroke:rgb(0,0,0);stroke-linecap:round;fill:rgb(251,106,74);" />
</g>
<path d="M1596.841,429.371 A1075.000,1075.000 40.000 0,1 1600.611,429.719 L1605.290,379.938 A1125.000,1125.000 0.000 0,0 1601.346,379.574 Z" style="stroke-linecap:round;fill:rgb(116,196,118);fill-opacity:0.33;" />
<text x="1621.0" y="291.0" font-size="18.2px" font-family="CMUBright-Roman" style="text-anchor:start;fill:rgb(0,0,0);" transform="rotate(275.3,1621.0,291.0)" >R<tspan baseline-shift="-40%" font-size="90%">s</tspan>caffold<tspan baseline-shift="-40%" font-size="90%">1</tspan>7</text>
<line x1='1601.3' y1='379.6' x2='1603.1' y2='359.7' style="stroke-width:4.0;stroke:rgb(0,0,0);stroke-linecap:round;fill:none;" />
<text x="1610.5" y="350.3" font-size="18.2px" font-family="CMUBright-Roman" style="text-anchor:start;fill:rgb(0,0,0);" transform="rotate(275.2,1610.5,350.3)" >0</text>
<g id="highlighttrack_0">
<path d="M1596.871,429.374 A1075.000,1075.000 40.000 0,1 1600.611,429.719 L1605.290,379.938 A1125.000,1125.000 0.000 0,0 1601.377,379.577 Z" style="stroke-width:4.0;stroke:rgb(0,0,0);stroke-linecap:round;fill:rgb(251,106,74);" />
</g>
<path d="M1665.672,437.843 A1075.000,1075.000 40.000 1,1 1434.464,427.000 L1431.416,377.093 A1125.000,1125.000 0.000 1,0 1673.378,388.440 Z" style="stroke-linecap:round;fill:rgb(116,196,118);fill-opacity:0.33;" />
<text x="1452.6" y="2714.1" font-size="18.2px" font-family="CMUBright-Roman" style="text-anchor:end;fill:rgb(0,0,0);" transform="rotate(-87.3,1452.6,2714.1)" >NZ<tspan baseline-shift="-40%" font-size="90%">C</tspan>P033575.1</text>
<line x1='1673.4' y1='388.4' x2='1676.5' y2='368.7' style="stroke-width:4.0;stroke:rgb(0,0,0);stroke-linecap:round;fill:none;" />
<text x="1684.4" y="359.8" font-size="18.2px" font-family="CMUBright-Roman" style="text-anchor:start;fill:rgb(0,0,0);" transform="rotate(278.9,1684.4,359.8)" >0</text>
<line x1='1740.0' y1='400.9' x2='1744.2' y2='381.4' style="stroke-width:4.0;stroke:rgb(0,0,0);stroke-linecap:round;fill:none;" />
<text x="1752.7" y="373.0" font-size="18.2px" font-family="CMUBright-Roman" style="text-anchor:start;fill:rgb(0,0,0);" transform="rotate(282.3,1752.7,373.0)" >50</text>
<line x1='1805.7' y1='417.3' x2='1811.1' y2='398.1' style="stroke-width:4.0;stroke:rgb(0,0,0);stroke-linecap:round;fill:none;" />
<text x="1820.1" y="390.2" font-size="18.2px" font-family="CMUBright-Roman" style="text-anchor:start;fill:rgb(0,0,0);" transform="rotate(285.8,1820.1,390.2)" >100</text>
<line x1='1870.3' y1='437.7' x2='1876.9' y2='418.8' style="stroke-width:4.0;stroke:rgb(0,0,0);stroke-linecap:round;fill:none;" />
<text x="1886.3" y="411.5" font-size="18.2px" font-family="CMUBright-Roman" style="text-anchor:start;fill:rgb(0,0,0);" transform="rotate(289.2,1886.3,411.5)" >150</text>
<line x1='1933.6' y1='461.9' x2='1941.3' y2='443.5' style="stroke-width:4.0;stroke:rgb(0,0,0);stroke-linecap:round;fill:none;" />
<text x="1951.2" y="436.8" font-size="18.2px" font-family="CMUBright-Roman" style="text-anchor:start;fill:rgb(0,0,0);" transform="rotate(292.7,1951.2,436.8)" >200</text>
<line x1='1995.3' y1='489.9' x2='2004.1' y2='472.0' style="stroke-width:4.0;stroke:rgb(0,0,0);stroke-linecap:round;fill:none;" />
<text x="2014.4" y="465.9" font-size="18.2px" font-family="CMUBright-Roman" style="text-anchor:start;fill:rgb(0,0,0);" transform="rotate(296.1,2014.4,465.9)" >250</text>
<line x1='2055.2' y1='521.6' x2='2065.1' y2='504.2' style="stroke-width:4.0;stroke:rgb(0,0,0);stroke-linecap:round;fill:none;" />
<text x="2075.7" y="498.7" font-size="18.2px" font-family="CMUBright-Roman" style="text-anchor:start;fill:rgb(0,0,0);" transform="rotate(299.6,2075.7,498.7)" >300</text>
<line x1='2113.1' y1='556.8' x2='2124.0' y2='540.0' style="stroke-width:4.0;stroke:rgb(0,0,0);stroke-linecap:round;fill:none;" />
<text x="2134.9" y="535.2" font-size="18.2px" font-family="CMUBright-Roman" style="text-anchor:start;fill:rgb(0,0,0);" transform="rotate(303.0,2134.9,535.2)" >350</text>
<line x1='2168.8' y1='595.4' x2='2180.7' y2='579.3' style="stroke-width:4.0;stroke:rgb(0,0,0);stroke-linecap:round;fill:none;" />
<text x="2191.8" y="575.1" font-size="18.2px" font-family="CMUBright-Roman" style="text-anchor:start;fill:rgb(0,0,0);" transform="rotate(306.5,2191.8,575.1)" >400</text>
<line x1='2222.0' y1='637.3' x2='2234.9' y2='621.9' style="stroke-width:4.0;stroke:rgb(0,0,0);stroke-linecap:round;fill:none;" />
<text x="2246.3" y="618.5" font-size="18.2px" font-family="CMUBright-Roman" style="text-anchor:start;fill:rgb(0,0,0);" transform="rotate(309.9,2246.3,618.5)" >450</text>
<line x1='2272.7' y1='682.3' x2='2286.4' y2='667.8' style="stroke-width:4.0;stroke:rgb(0,0,0);stroke-linecap:round;fill:none;" />
<text x="2298.0" y="665.0" font-size="18.2px" font-family="CMUBright-Roman" style="text-anchor:start;fill:rgb(0,0,0);" transform="rotate(313.4,2298.0,665.0)" >500</text>
<line x1='2320.5' y1='730.3' x2='2335.1' y2='716.6' style="stroke-width:4.0;stroke:rgb(0,0,0);stroke-linecap:round;fill:none;" />
<text x="2346.8" y="714.5" font-size="18.2px" font-family="CMUBright-Roman" style="text-anchor:start;fill:rgb(0,0,0);" transform="rotate(316.8,2346.8,714.5)" >550</text>
<line x1='2365.3' y1='781.1' x2='2380.7' y2='768.3' style="stroke-width:4.0;stroke:rgb(0,0,0);stroke-linecap:round;fill:none;" />
<text x="2392.6" y="766.9" font-size="18.2px" font-family="CMUBright-Roman" style="text-anchor:start;fill:rgb(0,0,0);" transform="rotate(320.3,2392.6,766.9)" >600</text>
<line x1='2407.1' y1='834.5' x2='2423.2' y2='822.7' style="stroke-width:4.0;stroke:rgb(0,0,0);stroke-linecap:round;fill:none;" />
<text x="2435.1" y="822.0" font-size="18.2px" font-family="CMUBright-Roman" style="text-anchor:start;fill:rgb(0,0,0);" transform="rotate(323.7,2435.1,822.0)" >650</text>
<line x1='2445.5' y1='890.3' x2='2462.3' y2='879.5' style="stroke-width:4.0;stroke:rgb(0,0,0);stroke-linecap:round;fill:none;" />
<text x="2474.2" y="879.5" font-size="18.2px" font-family="CMUBright-Roman" style="text-anchor:start;fill:rgb(0,0,0);" transform="rotate(327.2,2474.2,879.5)" >700</text>
<line x1='2480.5' y1='948.3' x2='2497.9' y2='938.5' style="stroke-width:4.0;stroke:rgb(0,0,0);stroke-linecap:round;fill:none;" />
<text x="2509.8" y="939.3" font-size="18.2px" font-family="CMUBright-Roman" style="text-anchor:start;fill:rgb(0,0,0);" transform="rotate(330.6,2509.8,939.3)" >750</text>
<line x1='2511.9' y1='1008.4' x2='2529.9' y2='999.6' style="stroke-width:4.0;stroke:rgb(0,0,0);stroke-linecap:round;fill:none;" />
<text x="2541.7" y="1001.1" font-size="18.2px" font-family="CMUBright-Roman" style="text-anchor:start;fill:rgb(0,0,0);" transform="rotate(334.1,2541.7,1001.1)" >800</text>
<line x1='2539.7' y1='1070.2' x2='2558.1' y2='1062.5' style="stroke-width:4.0;stroke:rgb(0,0,0);stroke-linecap:round;fill:none;" />
<text x="2569.8" y="1064.7" font-size="18.2px" font-family="CMUBright-Roman" style="text-anchor:start;fill:rgb(0,0,0);" transform="rotate(337.5,2569.8,1064.7)" >850</text>
<line x1='2563.6' y1='1133.5' x2='2582.6' y2='1127.0' style="stroke-width:4.0;stroke:rgb(0,0,0);stroke-linecap:round;fill:none;" />
<text x="2594.1" y="1129.9" font-size="18.2px" font-family="CMUBright-Roman" style="text-anchor:start;fill:rgb(0,0,0);" transform="rotate(341.0,2594.1,1129.9)" >900</text>
<line x1='2583.8' y1='1198.2' x2='2603.0' y2='1192.9' style="stroke-width:4.0;stroke:rgb(0,0,0);stroke-linecap:round;fill:none;" />
<text x="2614.4" y="1196.5" font-size="18.2px" font-family="CMUBright-Roman" style="text-anchor:start;fill:rgb(0,0,0);" transform="rotate(344.4,2614.4,1196.5)" >950</text>
<line x1='2600.0' y1='1264.0' x2='2619.5' y2='1259.8' style="stroke-width:4.0;stroke:rgb(0,0,0);stroke-linecap:round;fill:none;" />
<text x="2630.7" y="1264.1" font-size="18.2px" font-family="CMUBright-Roman" style="text-anchor:start;fill:rgb(0,0,0);" transform="rotate(347.9,2630.7,1264.1)" >1000</text>
<line x1='2612.2' y1='1330.7' x2='2632.0' y2='1327.7' style="stroke-width:4.0;stroke:rgb(0,0,0);stroke-linecap:round;fill:none;" />
<text x="2642.8" y="1332.6" font-size="18.2px" font-family="CMUBright-Roman" style="text-anchor:start;fill:rgb(0,0,0);" transform="rotate(351.3,2642.8,1332.6)" >1050</text>
<line x1='2620.4' y1='1397.9' x2='2640.3' y2='1396.1' style="stroke-width:4.0;stroke:rgb(0,0,0);stroke-linecap:round;fill:none;" />
<text x="2650.8" y="1401.7" font-size="18.2px" font-family="CMUBright-Roman" style="text-anchor:start;fill:rgb(0,0,0);" transform="rotate(354.8,2650.8,1401.7)" >1100</text>
<line x1='2624.5' y1='1465.6' x2='2644.5' y2='1465.0' style="stroke-width:4.0;stroke:rgb(0,0,0);stroke-linecap:round;fill:none;" />
<text x="2654.6" y="1471.1" font-size="18.2px" font-family="CMUBright-Roman" style="text-anchor:start;fill:rgb(0,0,0);" transform="rotate(358.2,2654.6,1471.1)" >1150</text>
<line x1='2624.5' y1='1533.3' x2='2644.5' y2='1533.9' style="stroke-width:4.0;stroke:rgb(0,0,0);stroke-linecap:round;fill:none;" />
<text x="2654.3" y="1540.7" font-size="18.2px" font-family="CMUBright-Roman" style="text-anchor:start;fill:rgb(0,0,0);" transform="rotate(1.7,2654.3,1540.7)" >1200</text>
<line x1='2620.5' y1='1601.0' x2='2640.4' y2='1602.8' style="stroke-width:4.0;stroke:rgb(0,0,0);stroke-linecap:round;fill:none;" />
<text x="2649.7" y="1610.1" font-size="18.2px" font-family="CMUBright-Roman" style="text-anchor:start;fill:rgb(0,0,0);" transform="rotate(5.1,2649.7,1610.1)" >1250</text>
<line x1='2612.4' y1='1668.2' x2='2632.1' y2='1671.2' style="stroke-width:4.0;stroke:rgb(0,0,0);stroke-linecap:round;fill:none;" />
<text x="2641.0" y="1679.1" font-size="18.2px" font-family="CMUBright-Roman" style="text-anchor:start;fill:rgb(0,0,0);" transform="rotate(8.6,2641.0,1679.1)" >1300</text>
<line x1='2600.2' y1='1734.9' x2='2619.8' y2='1739.1' style="stroke-width:4.0;stroke:rgb(0,0,0);stroke-linecap:round;fill:none;" />
<text x="2628.2" y="1747.5" font-size="18.2px" font-family="CMUBright-Roman" style="text-anchor:start;fill:rgb(0,0,0);" transform="rotate(12.1,2628.2,1747.5)" >1350</text>
<line x1='2584.1' y1='1800.7' x2='2603.3' y2='1806.0' style="stroke-width:4.0;stroke:rgb(0,0,0);stroke-linecap:round;fill:none;" />
<text x="2611.2" y="1815.0" font-size="18.2px" font-family="CMUBright-Roman" style="text-anchor:start;fill:rgb(0,0,0);" transform="rotate(15.5,2611.2,1815.0)" >1400</text>
<line x1='2564.0' y1='1865.4' x2='2582.9' y2='1871.9' style="stroke-width:4.0;stroke:rgb(0,0,0);stroke-linecap:round;fill:none;" />
<text x="2590.2" y="1881.3" font-size="18.2px" font-family="CMUBright-Roman" style="text-anchor:start;fill:rgb(0,0,0);" transform="rotate(19.0,2590.2,1881.3)" >1450</text>
<line x1='2540.1' y1='1928.8' x2='2558.6' y2='1936.4' style="stroke-width:4.0;stroke:rgb(0,0,0);stroke-linecap:round;fill:none;" />
<text x="2565.3" y="1946.2" font-size="18.2px" font-family="CMUBright-Roman" style="text-anchor:start;fill:rgb(0,0,0);" transform="rotate(22.4,2565.3,1946.2)" >1500</text>
<line x1='2512.4' y1='1990.6' x2='2530.4' y2='1999.4' style="stroke-width:4.0;stroke:rgb(0,0,0);stroke-linecap:round;fill:none;" />
<text x="2536.5" y="2009.6" font-size="18.2px" font-family="CMUBright-Roman" style="text-anchor:start;fill:rgb(0,0,0);" transform="rotate(25.9,2536.5,2009.6)" >1550</text>
<line x1='2481.0' y1='2050.7' x2='2498.4' y2='2060.5' style="stroke-width:4.0;stroke:rgb(0,0,0);stroke-linecap:round;fill:none;" />
<text x="2504.0" y="2071.0" font-size="18.2px" font-family="CMUBright-Roman" style="text-anchor:start;fill:rgb(0,0,0);" transform="rotate(29.3,2504.0,2071.0)" >1600</text>
<line x1='2446.1' y1='2108.8' x2='2462.9' y2='2119.6' style="stroke-width:4.0;stroke:rgb(0,0,0);stroke-linecap:round;fill:none;" />
<text x="2467.8" y="2130.4" font-size="18.2px" font-family="CMUBright-Roman" style="text-anchor:start;fill:rgb(0,0,0);" transform="rotate(32.8,2467.8,2130.4)" >1650</text>
<line x1='2407.7' y1='2164.6' x2='2423.8' y2='2176.4' style="stroke-width:4.0;stroke:rgb(0,0,0);stroke-linecap:round;fill:none;" />
<text x="2428.1" y="2187.6" font-size="18.2px" font-family="CMUBright-Roman" style="text-anchor:start;fill:rgb(0,0,0);" transform="rotate(36.2,2428.1,2187.6)" >1700</text>
<line x1='2366.0' y1='2218.0' x2='2381.4' y2='2230.8' style="stroke-width:4.0;stroke:rgb(0,0,0);stroke-linecap:round;fill:none;" />
<text x="2385.0" y="2242.2" font-size="18.2px" font-family="CMUBright-Roman" style="text-anchor:start;fill:rgb(0,0,0);" transform="rotate(39.7,2385.0,2242.2)" >1750</text>
<line x1='2321.3' y1='2268.9' x2='2335.9' y2='2282.5' style="stroke-width:4.0;stroke:rgb(0,0,0);stroke-linecap:round;fill:none;" />
<text x="2338.7" y="2294.1" font-size="18.2px" font-family="CMUBright-Roman" style="text-anchor:start;fill:rgb(0,0,0);" transform="rotate(43.1,2338.7,2294.1)" >1800</text>
<line x1='2273.5' y1='2316.9' x2='2287.2' y2='2331.4' style="stroke-width:4.0;stroke:rgb(0,0,0);stroke-linecap:round;fill:none;" />
<text x="2289.4" y="2343.2" font-size="18.2px" font-family="CMUBright-Roman" style="text-anchor:start;fill:rgb(0,0,0);" transform="rotate(46.6,2289.4,2343.2)" >1850</text>
<line x1='2222.9' y1='2362.0' x2='2235.7' y2='2377.3' style="stroke-width:4.0;stroke:rgb(0,0,0);stroke-linecap:round;fill:none;" />
<text x="2237.2" y="2389.2" font-size="18.2px" font-family="CMUBright-Roman" style="text-anchor:start;fill:rgb(0,0,0);" transform="rotate(50.0,2237.2,2389.2)" >1900</text>
<line x1='2169.7' y1='2404.0' x2='2181.6' y2='2420.0' style="stroke-width:4.0;stroke:rgb(0,0,0);stroke-linecap:round;fill:none;" />
<text x="2182.3" y="2431.9" font-size="18.2px" font-family="CMUBright-Roman" style="text-anchor:start;fill:rgb(0,0,0);" transform="rotate(53.5,2182.3,2431.9)" >1950</text>
<line x1='2114.1' y1='2442.6' x2='2125.0' y2='2459.4' style="stroke-width:4.0;stroke:rgb(0,0,0);stroke-linecap:round;fill:none;" />
<text x="2125.0" y="2471.3" font-size="18.2px" font-family="CMUBright-Roman" style="text-anchor:start;fill:rgb(0,0,0);" transform="rotate(56.9,2125.0,2471.3)" >2000</text>
<line x1='2056.2' y1='2477.9' x2='2066.1' y2='2495.3' style="stroke-width:4.0;stroke:rgb(0,0,0);stroke-linecap:round;fill:none;" />
<text x="2065.4" y="2507.2" font-size="18.2px" font-family="CMUBright-Roman" style="text-anchor:start;fill:rgb(0,0,0);" transform="rotate(60.4,2065.4,2507.2)" >2050</text>
<line x1='1996.3' y1='2509.6' x2='2005.1' y2='2527.6' style="stroke-width:4.0;stroke:rgb(0,0,0);stroke-linecap:round;fill:none;" />
<text x="2003.7" y="2539.4" font-size="18.2px" font-family="CMUBright-Roman" style="text-anchor:start;fill:rgb(0,0,0);" transform="rotate(63.8,2003.7,2539.4)" >2100</text>
<line x1='1934.6' y1='2537.7' x2='1942.4' y2='2556.1' style="stroke-width:4.0;stroke:rgb(0,0,0);stroke-linecap:round;fill:none;" />
<text x="1940.2" y="2567.8" font-size="18.2px" font-family="CMUBright-Roman" style="text-anchor:start;fill:rgb(0,0,0);" transform="rotate(67.3,1940.2,2567.8)" >2150</text>
<line x1='1871.4' y1='2561.9' x2='1878.0' y2='2580.8' style="stroke-width:4.0;stroke:rgb(0,0,0);stroke-linecap:round;fill:none;" />
<text x="1875.1" y="2592.4" font-size="18.2px" font-family="CMUBright-Roman" style="text-anchor:start;fill:rgb(0,0,0);" transform="rotate(70.7,1875.1,2592.4)" >2200</text>
<line x1='1806.8' y1='2582.4' x2='1812.2' y2='2601.6' style="stroke-width:4.0;stroke:rgb(0,0,0);stroke-linecap:round;fill:none;" />
<text x="1808.7" y="2613.0" font-size="18.2px" font-family="CMUBright-Roman" style="text-anchor:start;fill:rgb(0,0,0);" transform="rotate(74.2,1808.7,2613.0)" >2250</text>
<line x1='1741.1' y1='2598.9' x2='1745.3' y2='2618.4' style="stroke-width:4.0;stroke:rgb(0,0,0);stroke-linecap:round;fill:none;" />
<text x="1741.1" y="2629.5" font-size="18.2px" font-family="CMUBright-Roman" style="text-anchor:start;fill:rgb(0,0,0);" transform="rotate(77.6,1741.1,2629.5)" >2300</text>
<line x1='1674.5' y1='2611.4' x2='1677.6' y2='2631.1' style="stroke-width:4.0;stroke:rgb(0,0,0);stroke-linecap:round;fill:none;" />
<text x="1672.7" y="2642.0" font-size="18.2px" font-family="CMUBright-Roman" style="text-anchor:start;fill:rgb(0,0,0);" transform="rotate(81.1,1672.7,2642.0)" >2350</text>
<line x1='1607.2' y1='2619.9' x2='1609.2' y2='2639.8' style="stroke-width:4.0;stroke:rgb(0,0,0);stroke-linecap:round;fill:none;" />
<text x="1603.6" y="2650.3" font-size="18.2px" font-family="CMUBright-Roman" style="text-anchor:start;fill:rgb(0,0,0);" transform="rotate(84.5,1603.6,2650.3)" >2400</text>
<line x1='1539.6' y1='2624.3' x2='1540.3' y2='2644.3' style="stroke-width:4.0;stroke:rgb(0,0,0);stroke-linecap:round;fill:none;" />
<text x="1534.2" y="2654.5" font-size="18.2px" font-family="CMUBright-Roman" style="text-anchor:start;fill:rgb(0,0,0);" transform="rotate(88.0,1534.2,2654.5)" >2450</text>
<line x1='1471.9' y1='2624.6' x2='1471.4' y2='2644.6' style="stroke-width:4.0;stroke:rgb(0,0,0);stroke-linecap:round;fill:none;" />
<text x="1477.6" y="2654.8" font-size="18.2px" font-family="CMUBright-Roman" style="text-anchor:end;fill:rgb(0,0,0);" transform="rotate(-88.6,1477.6,2654.8)" >2500</text>
<line x1='1404.2' y1='2620.9' x2='1402.5' y2='2640.8' style="stroke-width:4.0;stroke:rgb(0,0,0);stroke-linecap:round;fill:none;" />
<text x="1408.2" y="2651.3" font-size="18.2px" font-family="CMUBright-Roman" style="text-anchor:end;fill:rgb(0,0,0);" transform="rotate(-85.1,1408.2,2651.3)" >2550</text>
<line x1='1336.9' y1='2613.1' x2='1334.0' y2='2632.9' style="stroke-width:4.0;stroke:rgb(0,0,0);stroke-linecap:round;fill:none;" />
<text x="1339.0" y="2643.7" font-size="18.2px" font-family="CMUBright-Roman" style="text-anchor:end;fill:rgb(0,0,0);" transform="rotate(-81.7,1339.0,2643.7)" >2600</text>
<line x1='1270.2' y1='2601.3' x2='1266.1' y2='2620.9' style="stroke-width:4.0;stroke:rgb(0,0,0);stroke-linecap:round;fill:none;" />
<text x="1270.4" y="2632.0" font-size="18.2px" font-family="CMUBright-Roman" style="text-anchor:end;fill:rgb(0,0,0);" transform="rotate(-78.2,1270.4,2632.0)" >2650</text>
<line x1='1204.3' y1='2585.4' x2='1199.1' y2='2604.7' style="stroke-width:4.0;stroke:rgb(0,0,0);stroke-linecap:round;fill:none;" />
<text x="1202.7" y="2616.1" font-size="18.2px" font-family="CMUBright-Roman" style="text-anchor:end;fill:rgb(0,0,0);" transform="rotate(-74.8,1202.7,2616.1)" >2700</text>
<line x1='1139.5' y1='2565.7' x2='1133.1' y2='2584.6' style="stroke-width:4.0;stroke:rgb(0,0,0);stroke-linecap:round;fill:none;" />
<text x="1136.1" y="2596.2" font-size="18.2px" font-family="CMUBright-Roman" style="text-anchor:end;fill:rgb(0,0,0);" transform="rotate(-71.3,1136.1,2596.2)" >2750</text>
<line x1='1076.0' y1='2542.0' x2='1068.5' y2='2560.6' style="stroke-width:4.0;stroke:rgb(0,0,0);stroke-linecap:round;fill:none;" />
<text x="1070.7" y="2572.3" font-size="18.2px" font-family="CMUBright-Roman" style="text-anchor:end;fill:rgb(0,0,0);" transform="rotate(-67.9,1070.7,2572.3)" >2800</text>
<line x1='1014.1' y1='2514.6' x2='1005.4' y2='2532.7' style="stroke-width:4.0;stroke:rgb(0,0,0);stroke-linecap:round;fill:none;" />
<text x="1007.0" y="2544.5" font-size="18.2px" font-family="CMUBright-Roman" style="text-anchor:end;fill:rgb(0,0,0);" transform="rotate(-64.4,1007.0,2544.5)" >2850</text>
<line x1='953.9' y1='2483.5' x2='944.1' y2='2501.0' style="stroke-width:4.0;stroke:rgb(0,0,0);stroke-linecap:round;fill:none;" />
<text x="945.0" y="2512.9" font-size="18.2px" font-family="CMUBright-Roman" style="text-anchor:end;fill:rgb(0,0,0);" transform="rotate(-61.0,945.0,2512.9)" >2900</text>
<line x1='895.6' y1='2448.9' x2='884.9' y2='2465.7' style="stroke-width:4.0;stroke:rgb(0,0,0);stroke-linecap:round;fill:none;" />
<text x="885.0" y="2477.7" font-size="18.2px" font-family="CMUBright-Roman" style="text-anchor:end;fill:rgb(0,0,0);" transform="rotate(-57.5,885.0,2477.7)" >2950</text>
<line x1='839.6' y1='2410.8' x2='827.9' y2='2427.0' style="stroke-width:4.0;stroke:rgb(0,0,0);stroke-linecap:round;fill:none;" />
<text x="827.3" y="2438.9" font-size="18.2px" font-family="CMUBright-Roman" style="text-anchor:end;fill:rgb(0,0,0);" transform="rotate(-54.1,827.3,2438.9)" >3000</text>
<line x1='786.0' y1='2369.4' x2='773.3' y2='2384.8' style="stroke-width:4.0;stroke:rgb(0,0,0);stroke-linecap:round;fill:none;" />
<text x="772.0" y="2396.7" font-size="18.2px" font-family="CMUBright-Roman" style="text-anchor:end;fill:rgb(0,0,0);" transform="rotate(-50.6,772.0,2396.7)" >3050</text>
<line x1='734.9' y1='2324.8' x2='721.3' y2='2339.5' style="stroke-width:4.0;stroke:rgb(0,0,0);stroke-linecap:round;fill:none;" />
<text x="719.3" y="2351.2" font-size="18.2px" font-family="CMUBright-Roman" style="text-anchor:end;fill:rgb(0,0,0);" transform="rotate(-47.2,719.3,2351.2)" >3100</text>
<line x1='686.7' y1='2277.2' x2='672.2' y2='2291.1' style="stroke-width:4.0;stroke:rgb(0,0,0);stroke-linecap:round;fill:none;" />
<text x="669.5" y="2302.7" font-size="18.2px" font-family="CMUBright-Roman" style="text-anchor:end;fill:rgb(0,0,0);" transform="rotate(-43.7,669.5,2302.7)" >3150</text>
<line x1='641.4' y1='2226.9' x2='626.1' y2='2239.8' style="stroke-width:4.0;stroke:rgb(0,0,0);stroke-linecap:round;fill:none;" />
<text x="622.7" y="2251.2" font-size="18.2px" font-family="CMUBright-Roman" style="text-anchor:end;fill:rgb(0,0,0);" transform="rotate(-40.2,622.7,2251.2)" >3200</text>
<line x1='599.1' y1='2173.9' x2='583.1' y2='2185.8' style="stroke-width:4.0;stroke:rgb(0,0,0);stroke-linecap:round;fill:none;" />
<text x="579.0" y="2197.0" font-size="18.2px" font-family="CMUBright-Roman" style="text-anchor:end;fill:rgb(0,0,0);" transform="rotate(-36.8,579.0,2197.0)" >3250</text>
<line x1='560.2' y1='2118.4' x2='543.5' y2='2129.4' style="stroke-width:4.0;stroke:rgb(0,0,0);stroke-linecap:round;fill:none;" />
<text x="538.7" y="2140.3" font-size="18.2px" font-family="CMUBright-Roman" style="text-anchor:end;fill:rgb(0,0,0);" transform="rotate(-33.3,538.7,2140.3)" >3300</text>
<line x1='524.7' y1='2060.7' x2='507.4' y2='2070.7' style="stroke-width:4.0;stroke:rgb(0,0,0);stroke-linecap:round;fill:none;" />
<text x="501.9" y="2081.3" font-size="18.2px" font-family="CMUBright-Roman" style="text-anchor:end;fill:rgb(0,0,0);" transform="rotate(-29.9,501.9,2081.3)" >3350</text>
<line x1='492.7' y1='2001.0' x2='474.8' y2='2009.9' style="stroke-width:4.0;stroke:rgb(0,0,0);stroke-linecap:round;fill:none;" />
<text x="468.8" y="2020.2" font-size="18.2px" font-family="CMUBright-Roman" style="text-anchor:end;fill:rgb(0,0,0);" transform="rotate(-26.4,468.8,2020.2)" >3400</text>
<line x1='464.4' y1='1939.4' x2='446.0' y2='1947.2' style="stroke-width:4.0;stroke:rgb(0,0,0);stroke-linecap:round;fill:none;" />
<text x="439.3" y="1957.1" font-size="18.2px" font-family="CMUBright-Roman" style="text-anchor:end;fill:rgb(0,0,0);" transform="rotate(-23.0,439.3,1957.1)" >3450</text>
<line x1='439.8' y1='1876.3' x2='420.9' y2='1883.0' style="stroke-width:4.0;stroke:rgb(0,0,0);stroke-linecap:round;fill:none;" />
<text x="413.7" y="1892.4" font-size="18.2px" font-family="CMUBright-Roman" style="text-anchor:end;fill:rgb(0,0,0);" transform="rotate(-19.5,413.7,1892.4)" >3500</text>
<line x1='419.1' y1='1811.8' x2='399.9' y2='1817.3' style="stroke-width:4.0;stroke:rgb(0,0,0);stroke-linecap:round;fill:none;" />
<text x="392.1" y="1826.3" font-size="18.2px" font-family="CMUBright-Roman" style="text-anchor:end;fill:rgb(0,0,0);" transform="rotate(-16.1,392.1,1826.3)" >3550</text>
<line x1='402.3' y1='1746.1' x2='382.7' y2='1750.5' style="stroke-width:4.0;stroke:rgb(0,0,0);stroke-linecap:round;fill:none;" />
<text x="374.4" y="1759.0" font-size="18.2px" font-family="CMUBright-Roman" style="text-anchor:end;fill:rgb(0,0,0);" transform="rotate(-12.6,374.4,1759.0)" >3600</text>
<line x1='389.4' y1='1679.6' x2='369.7' y2='1682.8' style="stroke-width:4.0;stroke:rgb(0,0,0);stroke-linecap:round;fill:none;" />
<text x="360.9" y="1690.8" font-size="18.2px" font-family="CMUBright-Roman" style="text-anchor:end;fill:rgb(0,0,0);" transform="rotate(-9.2,360.9,1690.8)" >3650</text>
<line x1='380.6' y1='1612.4' x2='360.7' y2='1614.4' style="stroke-width:4.0;stroke:rgb(0,0,0);stroke-linecap:round;fill:none;" />
<text x="351.5" y="1621.9" font-size="18.2px" font-family="CMUBright-Roman" style="text-anchor:end;fill:rgb(0,0,0);" transform="rotate(-5.7,351.5,1621.9)" >3700</text>
<line x1='375.9' y1='1544.8' x2='355.9' y2='1545.6' style="stroke-width:4.0;stroke:rgb(0,0,0);stroke-linecap:round;fill:none;" />
<text x="346.2" y="1552.5" font-size="18.2px" font-family="CMUBright-Roman" style="text-anchor:end;fill:rgb(0,0,0);" transform="rotate(-2.3,346.2,1552.5)" >3750</text>
<line x1='375.2' y1='1477.1' x2='355.2' y2='1476.7' style="stroke-width:4.0;stroke:rgb(0,0,0);stroke-linecap:round;fill:none;" />
<text x="345.1" y="1483.0" font-size="18.2px" font-family="CMUBright-Roman" style="text-anchor:end;fill:rgb(0,0,0);" transform="rotate(1.2,345.1,1483.0)" >3800</text>
<line x1='378.7' y1='1409.4' x2='358.7' y2='1407.8' style="stroke-width:4.0;stroke:rgb(0,0,0);stroke-linecap:round;fill:none;" />
<text x="348.2" y="1413.5" font-size="18.2px" font-family="CMUBright-Roman" style="text-anchor:end;fill:rgb(0,0,0);" transform="rotate(4.6,348.2,1413.5)" >3850</text>
<line x1='386.1' y1='1342.1' x2='366.3' y2='1339.3' style="stroke-width:4.0;stroke:rgb(0,0,0);stroke-linecap:round;fill:none;" />
<text x="355.5" y="1344.3" font-size="18.2px" font-family="CMUBright-Roman" style="text-anchor:end;fill:rgb(0,0,0);" transform="rotate(8.1,355.5,1344.3)" >3900</text>
<line x1='397.7' y1='1275.3' x2='378.1' y2='1271.3' style="stroke-width:4.0;stroke:rgb(0,0,0);stroke-linecap:round;fill:none;" />
<text x="367.0" y="1275.7" font-size="18.2px" font-family="CMUBright-Roman" style="text-anchor:end;fill:rgb(0,0,0);" transform="rotate(11.5,367.0,1275.7)" >3950</text>
<line x1='413.2' y1='1209.4' x2='393.9' y2='1204.2' style="stroke-width:4.0;stroke:rgb(0,0,0);stroke-linecap:round;fill:none;" />
<text x="382.6" y="1207.9" font-size="18.2px" font-family="CMUBright-Roman" style="text-anchor:end;fill:rgb(0,0,0);" transform="rotate(15.0,382.6,1207.9)" >4000</text>
<line x1='432.7' y1='1144.5' x2='413.7' y2='1138.1' style="stroke-width:4.0;stroke:rgb(0,0,0);stroke-linecap:round;fill:none;" />
<text x="402.2" y="1141.1" font-size="18.2px" font-family="CMUBright-Roman" style="text-anchor:end;fill:rgb(0,0,0);" transform="rotate(18.4,402.2,1141.1)" >4050</text>
<line x1='456.0' y1='1080.8' x2='437.4' y2='1073.4' style="stroke-width:4.0;stroke:rgb(0,0,0);stroke-linecap:round;fill:none;" />
<text x="425.8" y="1075.7" font-size="18.2px" font-family="CMUBright-Roman" style="text-anchor:end;fill:rgb(0,0,0);" transform="rotate(21.9,425.8,1075.7)" >4100</text>
<line x1='483.1' y1='1018.8' x2='465.1' y2='1010.2' style="stroke-width:4.0;stroke:rgb(0,0,0);stroke-linecap:round;fill:none;" />
<text x="453.2" y="1011.8" font-size="18.2px" font-family="CMUBright-Roman" style="text-anchor:end;fill:rgb(0,0,0);" transform="rotate(25.3,453.2,1011.8)" >4150</text>
<line x1='513.9' y1='958.4' x2='496.4' y2='948.8' style="stroke-width:4.0;stroke:rgb(0,0,0);stroke-linecap:round;fill:none;" />
<text x="484.5" y="949.7" font-size="18.2px" font-family="CMUBright-Roman" style="text-anchor:end;fill:rgb(0,0,0);" transform="rotate(28.8,484.5,949.7)" >4200</text>
<line x1='548.3' y1='900.0' x2='531.4' y2='889.4' style="stroke-width:4.0;stroke:rgb(0,0,0);stroke-linecap:round;fill:none;" />
<text x="519.5" y="889.5" font-size="18.2px" font-family="CMUBright-Roman" style="text-anchor:end;fill:rgb(0,0,0);" transform="rotate(32.2,519.5,889.5)" >4250</text>
<line x1='586.2' y1='843.8' x2='569.9' y2='832.2' style="stroke-width:4.0;stroke:rgb(0,0,0);stroke-linecap:round;fill:none;" />
<text x="558.0" y="831.6" font-size="18.2px" font-family="CMUBright-Roman" style="text-anchor:end;fill:rgb(0,0,0);" transform="rotate(35.7,558.0,831.6)" >4300</text>
<line x1='627.3' y1='790.0' x2='611.8' y2='777.4' style="stroke-width:4.0;stroke:rgb(0,0,0);stroke-linecap:round;fill:none;" />
<text x="600.0" y="776.1" font-size="18.2px" font-family="CMUBright-Roman" style="text-anchor:end;fill:rgb(0,0,0);" transform="rotate(39.1,600.0,776.1)" >4350</text>
<line x1='671.7' y1='738.8' x2='656.9' y2='725.2' style="stroke-width:4.0;stroke:rgb(0,0,0);stroke-linecap:round;fill:none;" />
<text x="645.2" y="723.3" font-size="18.2px" font-family="CMUBright-Roman" style="text-anchor:end;fill:rgb(0,0,0);" transform="rotate(42.6,645.2,723.3)" >4400</text>
<line x1='719.0' y1='690.3' x2='705.1' y2='675.9' style="stroke-width:4.0;stroke:rgb(0,0,0);stroke-linecap:round;fill:none;" />
<text x="693.5" y="673.2" font-size="18.2px" font-family="CMUBright-Roman" style="text-anchor:end;fill:rgb(0,0,0);" transform="rotate(46.0,693.5,673.2)" >4450</text>
<line x1='769.2' y1='644.7' x2='756.2' y2='629.5' style="stroke-width:4.0;stroke:rgb(0,0,0);stroke-linecap:round;fill:none;" />
<text x="744.7" y="626.2" font-size="18.2px" font-family="CMUBright-Roman" style="text-anchor:end;fill:rgb(0,0,0);" transform="rotate(49.5,744.7,626.2)" >4500</text>
<line x1='822.0' y1='602.3' x2='809.9' y2='586.3' style="stroke-width:4.0;stroke:rgb(0,0,0);stroke-linecap:round;fill:none;" />
<text x="798.7" y="582.3" font-size="18.2px" font-family="CMUBright-Roman" style="text-anchor:end;fill:rgb(0,0,0);" transform="rotate(52.9,798.7,582.3)" >4550</text>
<line x1='877.2' y1='563.1' x2='866.2' y2='546.4' style="stroke-width:4.0;stroke:rgb(0,0,0);stroke-linecap:round;fill:none;" />
<text x="855.2" y="541.7" font-size="18.2px" font-family="CMUBright-Roman" style="text-anchor:end;fill:rgb(0,0,0);" transform="rotate(56.4,855.2,541.7)" >4600</text>
<line x1='934.8' y1='527.3' x2='924.7' y2='510.0' style="stroke-width:4.0;stroke:rgb(0,0,0);stroke-linecap:round;fill:none;" />
<text x="914.1" y="504.6" font-size="18.2px" font-family="CMUBright-Roman" style="text-anchor:end;fill:rgb(0,0,0);" transform="rotate(59.8,914.1,504.6)" >4650</text>
<line x1='994.4' y1='495.0' x2='985.4' y2='477.2' style="stroke-width:4.0;stroke:rgb(0,0,0);stroke-linecap:round;fill:none;" />
<text x="975.1" y="471.2" font-size="18.2px" font-family="CMUBright-Roman" style="text-anchor:end;fill:rgb(0,0,0);" transform="rotate(63.3,975.1,471.2)" >4700</text>
<line x1='1055.8' y1='466.4' x2='1047.9' y2='448.0' style="stroke-width:4.0;stroke:rgb(0,0,0);stroke-linecap:round;fill:none;" />
<text x="1038.0" y="441.4" font-size="18.2px" font-family="CMUBright-Roman" style="text-anchor:end;fill:rgb(0,0,0);" transform="rotate(66.7,1038.0,441.4)" >4750</text>
<line x1='1118.8' y1='441.6' x2='1112.0' y2='422.7' style="stroke-width:4.0;stroke:rgb(0,0,0);stroke-linecap:round;fill:none;" />
<text x="1102.5" y="415.5" font-size="18.2px" font-family="CMUBright-Roman" style="text-anchor:end;fill:rgb(0,0,0);" transform="rotate(70.2,1102.5,415.5)" >4800</text>
<line x1='1183.2' y1='420.5' x2='1177.6' y2='401.3' style="stroke-width:4.0;stroke:rgb(0,0,0);stroke-linecap:round;fill:none;" />
<text x="1168.5" y="393.6" font-size="18.2px" font-family="CMUBright-Roman" style="text-anchor:end;fill:rgb(0,0,0);" transform="rotate(73.6,1168.5,393.6)" >4850</text>
<line x1='1248.8' y1='403.4' x2='1244.3' y2='383.9' style="stroke-width:4.0;stroke:rgb(0,0,0);stroke-linecap:round;fill:none;" />
<text x="1235.7" y="375.6" font-size="18.2px" font-family="CMUBright-Roman" style="text-anchor:end;fill:rgb(0,0,0);" transform="rotate(77.1,1235.7,375.6)" >4900</text>
<line x1='1315.2' y1='390.3' x2='1312.0' y2='370.5' style="stroke-width:4.0;stroke:rgb(0,0,0);stroke-linecap:round;fill:none;" />
<text x="1303.9" y="361.8" font-size="18.2px" font-family="CMUBright-Roman" style="text-anchor:end;fill:rgb(0,0,0);" transform="rotate(80.5,1303.9,361.8)" >4950</text>
<line x1='1382.4' y1='381.2' x2='1380.3' y2='361.3' style="stroke-width:4.0;stroke:rgb(0,0,0);stroke-linecap:round;fill:none;" />
<text x="1372.8" y="352.0" font-size="18.2px" font-family="CMUBright-Roman" style="text-anchor:end;fill:rgb(0,0,0);" transform="rotate(84.0,1372.8,352.0)" >5000</text>
<g id="highlighttrack_0">
<path d="M1936.128,517.444 A1075.000,1075.000 40.000 0,1 1939.557,518.973 L1960.002,473.344 A1125.000,1125.000 0.000 0,0 1956.413,471.743 Z" style="stroke-width:4.0;stroke:rgb(0,0,0);stroke-linecap:round;fill:rgb(116,196,118);" />
<path d="M2027.668,563.415 A1075.000,1075.000 40.000 0,1 2030.937,565.264 L2055.632,521.788 A1125.000,1125.000 0.000 0,0 2052.211,519.853 Z" style="stroke-width:4.0;stroke:rgb(0,0,0);stroke-linecap:round;fill:rgb(251,106,74);" />
<path d="M2230.605,711.430 A1075.000,1075.000 40.000 0,1 2233.561,714.179 L2267.680,677.630 A1125.000,1125.000 0.000 0,0 2264.586,674.753 Z" style="stroke-width:4.0;stroke:rgb(0,0,0);stroke-linecap:round;fill:rgb(251,106,74);" />
<path d="M2278.206,758.367 A1075.000,1075.000 40.000 0,1 2280.793,761.090 L2317.108,726.722 A1125.000,1125.000 0.000 0,0 2314.402,723.872 Z" style="stroke-width:4.0;stroke:rgb(0,0,0);stroke-linecap:round;fill:rgb(251,106,74);" />
<path d="M2413.342,933.051 A1075.000,1075.000 40.000 0,1 2415.457,936.472 L2458.036,910.261 A1125.000,1125.000 0.000 0,0 2455.823,906.682 Z" style="stroke-width:4.0;stroke:rgb(0,0,0);stroke-linecap:round;fill:rgb(251,106,74);" />
<path d="M2418.334,941.173 A1075.000,1075.000 40.000 0,1 2420.281,944.385 L2463.085,918.543 A1125.000,1125.000 0.000 0,0 2461.047,915.181 Z" style="stroke-width:4.0;stroke:rgb(0,0,0);stroke-linecap:round;fill:rgb(251,106,74);" />
<path d="M2513.468,1858.481 A1075.000,1075.000 40.000 0,1 2512.209,1862.018 L2559.289,1878.856 A1125.000,1125.000 0.000 0,0 2560.606,1875.154 Z" style="stroke-width:4.0;stroke:rgb(0,0,0);stroke-linecap:round;fill:rgb(251,106,74);" />
<path d="M698.150,2216.004 A1075.000,1075.000 40.000 0,1 695.641,2213.185 L658.229,2246.356 A1125.000,1125.000 0.000 0,0 660.855,2249.306 Z" style="stroke-width:4.0;stroke:rgb(0,0,0);stroke-linecap:round;fill:rgb(116,196,118);" />
<path d="M2573.406,1558.523 A1075.000,1075.000 40.000 0,1 2573.215,1561.926 L2623.132,1564.806 A1125.000,1125.000 0.000 0,0 2623.332,1561.245 Z" style="stroke-width:4.0;stroke:rgb(0,0,0);stroke-linecap:round;fill:rgb(116,196,118);" />
<path d="M2570.168,1601.813 A1075.000,1075.000 40.000 0,1 2569.838,1605.224 L2619.598,1610.118 A1125.000,1125.000 0.000 0,0 2619.943,1606.549 Z" style="stroke-width:4.0;stroke:rgb(0,0,0);stroke-linecap:round;fill:rgb(116,196,118);" />
<path d="M2568.792,1615.359 A1075.000,1075.000 40.000 0,1 2568.419,1618.765 L2618.113,1624.289 A1125.000,1125.000 0.000 0,0 2618.504,1620.724 Z" style="stroke-width:4.0;stroke:rgb(0,0,0);stroke-linecap:round;fill:rgb(116,196,118);" />
<path d="M2259.439,739.160 A1075.000,1075.000 40.000 0,1 2266.146,745.915 L2301.781,710.841 A1125.000,1125.000 0.000 0,0 2294.762,703.772 Z" style="stroke-width:4.0;stroke:rgb(0,0,0);stroke-linecap:round;fill:rgb(116,196,118);" />
</g>
</g>
<g id="track_0">
<path d="M 1931.767,527.269 A 1064.250,1064.250 0.00 0,1 1935.2,528.8 L 1935.2,528.8 1905.0,595.5 1876.8,657.0 1850.4,713.6 1825.7,765.5 1802.6,813.0 1781.0,856.1 1760.9,895.3 1742.2,930.6 1724.7,962.2 1708.5,990.3 1693.5,1015.0 1679.5,1036.4 1666.6,1054.7 1654.7,1069.9 1643.7,1082.2 1633.6,1091.6 1624.4,1098.1 1615.9,1101.9 1608.3,1102.8 1601.4,1101.0 1595.2,1096.4 1589.7,1089.0 1584.9,1078.8 1580.7,1065.6 1577.2,1049.5 1574.3,1030.4 1572.1,1008.1 1570.5,982.6 1569.6,953.7 1569.3,921.3 1569.7,885.2 1570.8,845.2 1572.5,801.2 1575.0,753.0 1578.3,700.4 1582.3,643.1 1587.2,580.8 1593.0,513.3 1599.6,440.4  A 1064.250,1064.250 0.00 0,0 1595.9,440.1 L 1595.9,440.1 1589.5,513.0 1584.0,580.5 1579.3,642.8 1575.5,700.1 1572.4,752.8 1570.1,801.0 1568.5,845.0 1567.5,884.9 1567.3,921.0 1567.7,953.4 1568.7,982.3 1570.4,1007.9 1572.7,1030.1 1575.6,1049.3 1579.2,1065.3 1583.4,1078.5 1588.2,1088.7 1593.8,1096.1 1600.0,1100.7 1606.9,1102.5 1614.5,1101.5 1623.0,1097.7 1632.2,1091.1 1642.2,1081.7 1653.2,1069.4 1665.0,1054.1 1677.9,1035.8 1691.8,1014.3 1706.7,989.5 1722.8,961.4 1740.2,929.7 1758.8,894.4 1778.8,855.2 1800.2,811.9 1823.1,764.4 1847.6,712.4 1873.9,655.7 1901.9,594.1 1931.8,527.3  Z" style="stroke-width: 2.0;  stroke: rgb(82,82,82); fill: rgb(251,106,74); opacity: 0.667;" />
<path d="M 2022.391,572.781 A 1064.250,1064.250 0.00 0,1 2025.6,574.6 L 2025.6,574.6 1989.2,638.2 1955.1,696.7 1923.2,750.4 1893.2,799.6 1865.3,844.5 1839.1,885.3 1814.7,922.1 1791.9,955.3 1770.7,984.9 1750.9,1011.1 1732.6,1034.0 1715.5,1053.8 1699.7,1070.5 1685.0,1084.3 1671.5,1095.2 1659.0,1103.3 1647.5,1108.7 1636.9,1111.3 1627.3,1111.3 1618.5,1108.5 1610.6,1103.0 1603.4,1094.8 1597.1,1083.8 1591.5,1070.0 1586.6,1053.3 1582.5,1033.6 1579.1,1010.8 1576.5,984.8 1574.6,955.5 1573.4,922.7 1573.0,886.3 1573.3,846.1 1574.4,801.9 1576.4,753.5 1579.2,700.7 1582.8,643.2 1587.4,580.9 1593.0,513.4 1599.6,440.4  A 1064.250,1064.250 0.00 0,0 1595.9,440.1 L 1595.9,440.1 1589.6,513.0 1584.2,580.6 1579.8,642.9 1576.4,700.4 1573.8,753.2 1572.0,801.6 1571.0,845.8 1570.8,886.1 1571.4,922.5 1572.7,955.2 1574.7,984.6 1577.4,1010.5 1580.9,1033.3 1585.1,1053.0 1590.0,1069.7 1595.6,1083.5 1602.0,1094.5 1609.2,1102.6 1617.1,1108.1 1625.9,1110.8 1635.6,1110.8 1646.1,1108.2 1657.6,1102.8 1670.0,1094.6 1683.6,1083.6 1698.2,1069.8 1713.9,1053.0 1730.9,1033.2 1749.2,1010.2 1768.9,983.9 1790.0,954.3 1812.7,921.0 1837.0,884.1 1863.0,843.2 1890.8,798.2 1920.5,748.9 1952.3,695.1 1986.2,636.5 2022.4,572.8  Z" style="stroke-width: 2.0;  stroke: rgb(82,82,82); fill: rgb(116,196,118); opacity: 0.667;" />
<path d="M 2022.391,572.781 A 1064.250,1064.250 0.00 0,1 2025.6,574.6 L 2025.6,574.6 1989.4,638.2 1955.9,697.0 1924.8,751.0 1896.1,800.7 1869.8,846.2 1845.5,887.7 1823.3,925.3 1803.1,959.3 1784.7,989.9 1768.1,1017.1 1753.3,1041.2 1740.0,1062.1 1728.3,1080.1 1718.2,1095.2 1709.5,1107.6 1702.2,1117.2 1696.3,1124.1 1691.8,1128.4 1688.6,1130.0 1686.7,1129.1 1686.2,1125.5 1686.9,1119.4 1689.0,1110.5 1692.5,1099.0 1697.3,1084.7 1703.5,1067.5 1711.1,1047.5 1720.1,1024.4 1730.7,998.2 1742.8,968.7 1756.6,935.8 1772.1,899.4 1789.3,859.2 1808.4,815.1 1829.5,766.9 1852.5,714.4 1877.8,657.4 1905.3,595.6 1935.2,528.8  A 1064.250,1064.250 0.00 0,0 1931.8,527.3 L 1931.8,527.3 1902.1,594.2 1874.8,656.1 1849.8,713.2 1826.9,765.8 1806.0,814.0 1787.1,858.2 1770.0,898.4 1754.6,934.9 1741.0,967.8 1728.9,997.4 1718.5,1023.6 1709.5,1046.7 1701.9,1066.8 1695.8,1084.0 1691.1,1098.3 1687.7,1109.9 1685.6,1118.7 1684.9,1124.9 1685.4,1128.4 1687.3,1129.4 1690.5,1127.7 1695.0,1123.4 1700.9,1116.5 1708.1,1106.8 1716.8,1094.5 1726.9,1079.3 1738.5,1061.3 1751.7,1040.3 1766.5,1016.2 1783.0,988.9 1801.2,958.3 1821.3,924.2 1843.4,886.5 1867.5,844.9 1893.7,799.3 1922.2,749.6 1953.1,695.4 1986.4,636.5 2022.4,572.8  Z" style="stroke-width: 2.0;  stroke: rgb(82,82,82); fill: rgb(107,174,214); opacity: 0.667;" />
<path d="M 2223.298,719.316 A 1064.250,1064.250 0.00 0,1 2226.2,722.0 L 2226.2,722.0 2175.9,775.3 2128.8,824.1 2084.6,868.7 2043.2,909.2 2004.4,945.8 1968.2,978.8 1934.3,1008.4 1902.7,1034.7 1873.2,1057.8 1845.6,1077.9 1819.9,1095.1 1796.0,1109.5 1773.8,1121.2 1753.1,1130.3 1733.9,1136.9 1716.1,1140.9 1699.6,1142.5 1684.4,1141.6 1670.3,1138.2 1657.4,1132.4 1645.6,1124.2 1634.8,1113.4 1625.1,1100.0 1616.3,1084.0 1608.4,1065.3 1601.5,1043.8 1595.5,1019.4 1590.4,991.9 1586.2,961.3 1582.9,927.4 1580.6,889.9 1579.3,848.8 1578.9,803.9 1579.5,754.9 1581.2,701.5 1584.0,643.7 1588.0,581.1 1593.1,513.4 1599.6,440.4  A 1064.250,1064.250 0.00 0,0 1595.9,440.1 L 1595.9,440.1 1589.7,513.1 1584.8,580.8 1581.0,643.4 1578.4,701.3 1576.9,754.6 1576.4,803.6 1577.0,848.6 1578.5,889.7 1580.9,927.1 1584.3,961.0 1588.6,991.6 1593.8,1019.0 1599.9,1043.4 1606.9,1064.9 1614.8,1083.6 1623.6,1099.5 1633.5,1112.9 1644.3,1123.6 1656.1,1131.9 1669.0,1137.6 1683.1,1140.9 1698.3,1141.7 1714.8,1140.1 1732.6,1136.0 1751.7,1129.4 1772.4,1120.2 1794.6,1108.4 1818.4,1093.9 1844.0,1076.6 1871.5,1056.4 1900.9,1033.2 1932.5,1006.8 1966.2,977.1 2002.3,943.9 2041.0,907.1 2082.2,866.5 2126.2,821.8 2173.2,772.8 2223.3,719.3  Z" style="stroke-width: 2.0;  stroke: rgb(82,82,82); fill: rgb(253,141,60); opacity: 0.667;" />
<path d="M 2223.298,719.316 A 1064.250,1064.250 0.00 0,1 2226.2,722.0 L 2226.2,722.0 2176.1,775.4 2129.5,824.5 2086.1,869.5 2046.0,910.6 2008.7,948.0 1974.3,981.8 1942.6,1012.3 1913.4,1039.6 1886.7,1063.9 1862.2,1085.2 1840.0,1103.7 1819.8,1119.4 1801.6,1132.5 1785.4,1143.1 1771.0,1151.1 1758.4,1156.7 1747.5,1159.9 1738.3,1160.7 1730.7,1159.1 1724.7,1155.1 1720.3,1148.7 1717.4,1139.9 1716.1,1128.7 1716.4,1114.8 1718.2,1098.5 1721.6,1079.4 1726.6,1057.6 1733.3,1032.9 1741.7,1005.2 1751.9,974.4 1763.8,940.3 1777.7,902.8 1793.5,861.8 1811.4,816.9 1831.4,768.1 1853.6,715.1 1878.3,657.7 1905.4,595.7 1935.2,528.8  A 1064.250,1064.250 0.00 0,0 1931.8,527.3 L 1931.8,527.3 1902.2,594.3 1875.3,656.4 1850.9,713.9 1828.8,766.9 1809.0,815.8 1791.3,860.7 1775.6,901.9 1761.9,939.4 1750.0,973.5 1740.0,1004.3 1731.7,1032.0 1725.1,1056.8 1720.1,1078.6 1716.8,1097.7 1715.0,1114.1 1714.8,1127.9 1716.1,1139.1 1719.0,1147.9 1723.4,1154.3 1729.4,1158.3 1737.0,1159.8 1746.2,1159.0 1757.1,1155.8 1769.7,1150.1 1784.1,1142.0 1800.3,1131.4 1818.4,1118.2 1838.5,1102.4 1860.7,1083.8 1885.1,1062.4 1911.7,1038.1 1940.8,1010.7 1972.4,980.0 2006.7,946.0 2043.7,908.5 2083.8,867.3 2126.9,822.1 2173.4,772.9 2223.3,719.3  Z" style="stroke-width: 2.0;  stroke: rgb(82,82,82); fill: rgb(255,0,0); opacity: 0.667;" />
<path d="M 2223.298,719.316 A 1064.250,1064.250 0.00 0,1 2226.2,722.0 L 2226.2,722.0 2176.2,775.5 2129.7,824.6 2086.6,869.8 2046.7,911.1 2009.9,948.7 1976.0,982.9 1944.9,1013.8 1916.4,1041.5 1890.4,1066.2 1866.7,1088.0 1845.4,1107.0 1826.3,1123.3 1809.2,1137.1 1794.2,1148.3 1781.1,1157.0 1769.8,1163.4 1760.4,1167.4 1752.8,1169.0 1747.0,1168.3 1742.8,1165.2 1740.4,1159.9 1739.7,1152.1 1740.7,1142.0 1743.4,1129.4 1747.8,1114.2 1754.0,1096.5 1762.1,1076.2 1771.9,1053.0 1783.7,1027.0 1797.4,997.9 1813.3,965.7 1831.2,930.3 1851.4,891.3 1873.9,848.8 1898.8,802.4 1926.3,752.0 1956.6,697.4 1989.6,638.3 2025.6,574.6  A 1064.250,1064.250 0.00 0,0 2022.4,572.8 L 2022.4,572.8 1986.6,636.6 1953.7,695.8 1923.7,750.5 1896.4,801.0 1871.6,847.5 1849.2,890.1 1829.2,929.1 1811.4,964.6 1795.7,996.9 1782.0,1026.0 1770.3,1052.0 1760.6,1075.2 1752.6,1095.6 1746.5,1113.4 1742.1,1128.5 1739.4,1141.1 1738.5,1151.3 1739.2,1159.0 1741.6,1164.4 1745.8,1167.4 1751.6,1168.1 1759.2,1166.4 1768.6,1162.4 1779.8,1156.0 1792.9,1147.2 1807.9,1135.9 1824.9,1122.1 1843.9,1105.7 1865.2,1086.6 1888.7,1064.7 1914.6,1040.0 1943.0,1012.1 1974.1,981.1 2007.8,946.8 2044.5,909.0 2084.2,867.6 2127.1,822.3 2173.4,772.9 2223.3,719.3  Z" style="stroke-width: 2.0;  stroke: rgb(82,82,82); fill: rgb(255,0,204); opacity: 0.667;" />
<path d="M 2270.424,765.783 A 1064.250,1064.250 0.00 0,1 2273.0,768.5 L 2273.0,768.5 2219.5,818.5 2169.3,864.3 2122.2,905.9 2078.2,943.7 2036.9,977.7 1998.4,1008.3 1962.3,1035.6 1928.6,1059.7 1897.2,1080.8 1867.9,1099.0 1840.5,1114.4 1815.0,1127.1 1791.3,1137.2 1769.2,1144.8 1748.7,1150.0 1729.7,1152.8 1712.1,1153.1 1695.7,1151.1 1680.7,1146.7 1666.8,1140.0 1654.1,1130.8 1642.5,1119.2 1631.9,1105.1 1622.3,1088.4 1613.7,1069.1 1606.1,1047.0 1599.5,1022.1 1593.8,994.2 1589.1,963.1 1585.3,928.8 1582.5,891.1 1580.7,849.7 1580.0,804.5 1580.3,755.3 1581.7,701.8 1584.3,643.8 1588.1,581.1 1593.2,513.4 1599.6,440.4  A 1064.250,1064.250 0.00 0,0 1595.9,440.1 L 1595.9,440.1 1589.7,513.1 1584.9,580.8 1581.3,643.6 1578.9,701.5 1577.7,755.0 1577.6,804.2 1578.5,849.4 1580.4,890.8 1583.3,928.5 1587.2,962.8 1592.0,993.9 1597.8,1021.7 1604.5,1046.7 1612.2,1068.7 1620.9,1088.0 1630.5,1104.6 1641.1,1118.7 1652.8,1130.3 1665.6,1139.4 1679.5,1146.1 1694.5,1150.4 1710.8,1152.4 1728.5,1152.0 1747.5,1149.1 1768.0,1143.9 1790.0,1136.2 1813.7,1126.0 1839.1,1113.2 1866.4,1097.7 1895.7,1079.4 1927.1,1058.2 1960.7,1034.0 1996.6,1006.6 2035.1,975.9 2076.2,941.6 2120.1,903.7 2167.0,861.9 2217.1,816.0 2270.4,765.8  Z" style="stroke-width: 2.0;  stroke: rgb(82,82,82); fill: rgb(255,204,204); opacity: 0.667;" />
<path d="M 2270.424,765.783 A 1064.250,1064.250 0.00 0,1 2273.0,768.5 L 2273.0,768.5 2219.6,818.6 2170.0,864.7 2123.8,906.8 2080.9,945.1 2041.2,980.0 2004.4,1011.4 1970.5,1039.7 1939.3,1064.9 1910.6,1087.1 1884.3,1106.6 1860.3,1123.3 1838.6,1137.4 1818.9,1148.9 1801.3,1158.0 1785.6,1164.7 1771.7,1169.1 1759.6,1171.1 1749.3,1170.8 1740.7,1168.1 1733.7,1163.2 1728.4,1155.9 1724.7,1146.3 1722.6,1134.2 1722.1,1119.7 1723.3,1102.7 1726.0,1083.0 1730.5,1060.7 1736.6,1035.5 1744.4,1007.3 1754.1,976.1 1765.6,941.7 1779.1,903.9 1794.5,862.5 1812.1,817.4 1831.9,768.4 1853.9,715.3 1878.4,657.8 1905.4,595.7 1935.2,528.8  A 1064.250,1064.250 0.00 0,0 1931.8,527.3 L 1931.8,527.3 1902.3,594.3 1875.5,656.5 1851.2,714.1 1829.3,767.3 1809.7,816.4 1792.3,861.5 1777.0,902.9 1763.7,940.8 1752.3,975.2 1742.7,1006.5 1735.0,1034.6 1728.9,1059.9 1724.6,1082.2 1721.9,1101.9 1720.8,1119.0 1721.3,1133.5 1723.5,1145.5 1727.2,1155.1 1732.6,1162.4 1739.5,1167.3 1748.2,1169.9 1758.5,1170.2 1770.5,1168.1 1784.4,1163.7 1800.1,1157.0 1817.7,1147.8 1837.3,1136.2 1859.0,1122.0 1882.9,1105.2 1909.1,1085.7 1937.7,1063.3 1968.9,1038.1 2002.7,1009.7 2039.4,978.1 2079.0,943.1 2121.7,904.6 2167.7,862.3 2217.2,816.1 2270.4,765.8  Z" style="stroke-width: 2.0;  stroke: rgb(82,82,82); fill: rgb(255,153,0); opacity: 0.667;" />
<path d="M 2270.424,765.783 A 1064.250,1064.250 0.00 0,1 2273.0,768.5 L 2273.0,768.5 2219.7,818.7 2170.1,864.8 2124.2,907.1 2081.6,945.7 2042.3,980.8 2006.1,1012.6 1972.7,1041.2 1942.1,1066.8 1914.2,1089.5 1888.7,1109.5 1865.7,1126.7 1845.0,1141.4 1826.4,1153.6 1809.9,1163.4 1795.5,1170.8 1783.1,1175.9 1772.5,1178.7 1763.8,1179.2 1756.9,1177.4 1751.8,1173.5 1748.5,1167.2 1746.9,1158.6 1747.1,1147.7 1749.1,1134.4 1752.8,1118.6 1758.4,1100.3 1765.8,1079.4 1775.1,1055.7 1786.3,1029.2 1799.6,999.7 1815.0,967.2 1832.5,931.4 1852.4,892.1 1874.6,849.3 1899.3,802.7 1926.6,752.2 1956.7,697.5 1989.6,638.4 2025.6,574.6  A 1064.250,1064.250 0.00 0,0 2022.4,572.8 L 2022.4,572.8 1986.6,636.7 1953.9,695.9 1924.0,750.7 1896.8,801.4 1872.3,848.0 1850.3,890.9 1830.6,930.2 1813.1,966.1 1797.9,998.7 1784.7,1028.2 1773.5,1054.7 1764.3,1078.4 1757.0,1099.4 1751.5,1117.7 1747.8,1133.5 1745.9,1146.8 1745.7,1157.7 1747.3,1166.3 1750.7,1172.6 1755.8,1176.6 1762.7,1178.3 1771.4,1177.7 1781.9,1174.9 1794.4,1169.7 1808.8,1162.3 1825.2,1152.5 1843.7,1140.2 1864.4,1125.4 1887.4,1108.1 1912.7,1088.1 1940.6,1065.3 1971.1,1039.6 2004.4,1010.8 2040.5,978.9 2079.7,943.6 2122.1,904.9 2167.9,862.5 2217.3,816.2 2270.4,765.8  Z" style="stroke-width: 2.0;  stroke: rgb(82,82,82); fill: rgb(255,204,0); opacity: 0.667;" />
<path d="M 2270.424,765.783 A 1064.250,1064.250 0.00 0,1 2273.0,768.5 L 2273.0,768.5 2219.8,818.8 2170.6,865.2 2125.2,907.9 2083.3,947.1 2044.9,983.0 2009.8,1015.8 1977.8,1045.5 1948.7,1072.3 1922.4,1096.4 1898.8,1117.8 1877.9,1136.7 1859.4,1153.1 1843.3,1167.2 1829.5,1179.1 1817.9,1188.7 1808.6,1196.1 1801.4,1201.4 1796.3,1204.6 1793.2,1205.7 1792.3,1204.8 1793.4,1201.7 1796.5,1196.6 1801.8,1189.3 1809.2,1179.9 1818.7,1168.3 1830.4,1154.5 1844.4,1138.3 1860.7,1119.7 1879.5,1098.6 1900.8,1074.8 1924.6,1048.4 1951.3,1019.1 1980.8,986.9 2013.2,951.5 2048.9,912.9 2087.8,870.8 2130.2,825.1 2176.3,775.6 2226.2,722.0  A 1064.250,1064.250 0.00 0,0 2223.3,719.3 L 2223.3,719.3 2173.6,773.0 2127.7,822.7 2085.4,868.6 2046.7,910.8 2011.2,949.6 1978.8,985.1 1949.5,1017.5 1922.9,1046.8 1899.2,1073.4 1878.0,1097.1 1859.3,1118.3 1843.1,1137.0 1829.1,1153.3 1817.5,1167.2 1808.0,1178.8 1800.6,1188.2 1795.4,1195.5 1792.3,1200.7 1791.2,1203.7 1792.2,1204.7 1795.2,1203.5 1800.3,1200.3 1807.5,1195.0 1816.8,1187.5 1828.3,1177.9 1842.1,1166.0 1858.1,1151.9 1876.6,1135.4 1897.5,1116.4 1921.0,1094.9 1947.2,1070.7 1976.2,1043.8 2008.1,1014.0 2043.1,981.1 2081.4,945.1 2123.1,905.7 2168.4,862.8 2217.4,816.3 2270.4,765.8  Z" style="stroke-width: 2.0;  stroke: rgb(82,82,82); fill: rgb(255,255,0); opacity: 0.667;" />
<path d="M 2404.209,938.721 A 1064.250,1064.250 0.00 0,1 2406.3,942.1 L 2406.3,942.1 2343.6,980.1 2284.8,1014.4 2229.7,1045.2 2178.1,1072.7 2129.8,1097.1 2084.7,1118.6 2042.5,1137.3 2003.1,1153.3 1966.3,1166.7 1932.0,1177.7 1899.9,1186.4 1870.1,1192.8 1842.2,1197.1 1816.2,1199.2 1792.1,1199.2 1769.6,1197.1 1748.7,1193.0 1729.4,1186.8 1711.4,1178.6 1694.8,1168.2 1679.5,1155.8 1665.4,1141.1 1652.4,1124.2 1640.6,1105.0 1630.0,1083.3 1620.4,1059.1 1611.9,1032.3 1604.4,1002.6 1598.0,970.0 1592.7,934.4 1588.5,895.4 1585.4,853.0 1583.5,806.9 1582.8,756.9 1583.4,702.9 1585.3,644.4 1588.5,581.4 1593.3,513.5 1599.6,440.4  A 1064.250,1064.250 0.00 0,0 1595.9,440.1 L 1595.9,440.1 1589.8,513.2 1585.3,581.1 1582.3,644.1 1580.6,702.6 1580.2,756.6 1581.1,806.6 1583.2,852.7 1586.4,895.1 1590.7,934.0 1596.2,969.7 1602.7,1002.2 1610.2,1031.9 1618.8,1058.7 1628.5,1082.9 1639.2,1104.5 1651.1,1123.7 1664.1,1140.5 1678.2,1155.1 1693.6,1167.5 1710.3,1177.8 1728.2,1186.0 1747.6,1192.1 1768.5,1196.1 1791.0,1198.1 1815.1,1198.0 1841.1,1195.8 1868.9,1191.5 1898.8,1184.9 1930.8,1176.1 1965.1,1165.0 2001.8,1151.4 2041.2,1135.2 2083.3,1116.4 2128.3,1094.8 2176.5,1070.2 2228.0,1042.5 2282.9,1011.4 2341.6,976.9 2404.2,938.7  Z" style="stroke-width: 2.0;  stroke: rgb(82,82,82); fill: rgb(204,255,0); opacity: 0.667;" />
<path d="M 2404.209,938.721 A 1064.250,1064.250 0.00 0,1 2406.3,942.1 L 2406.3,942.1 2343.7,980.2 2285.4,1014.8 2231.1,1046.2 2180.7,1074.4 2133.9,1099.7 2090.5,1122.2 2050.3,1141.9 2013.3,1159.2 1979.1,1173.9 1947.8,1186.3 1919.0,1196.4 1892.8,1204.3 1868.9,1210.1 1847.3,1213.8 1827.9,1215.4 1810.6,1215.0 1795.2,1212.6 1781.8,1208.1 1770.3,1201.7 1760.6,1193.2 1752.7,1182.6 1746.5,1169.9 1742.1,1155.0 1739.5,1137.8 1738.5,1118.4 1739.4,1096.5 1742.0,1072.1 1746.4,1045.0 1752.7,1015.2 1760.9,982.5 1771.1,946.7 1783.4,907.7 1797.8,865.4 1814.4,819.4 1833.3,769.7 1854.8,716.0 1878.8,658.1 1905.5,595.8 1935.2,528.8  A 1064.250,1064.250 0.00 0,0 1931.8,527.3 L 1931.8,527.3 1902.4,594.4 1875.9,656.8 1852.0,714.8 1830.8,768.5 1812.0,818.3 1795.5,864.3 1781.3,906.7 1769.2,945.8 1759.1,981.6 1751.0,1014.3 1744.8,1044.1 1740.5,1071.2 1738.0,1095.6 1737.2,1117.5 1738.2,1137.0 1740.9,1154.1 1745.4,1169.0 1751.5,1181.7 1759.5,1192.2 1769.2,1200.7 1780.8,1207.1 1794.2,1211.5 1809.5,1213.9 1826.9,1214.2 1846.3,1212.5 1867.9,1208.8 1891.7,1202.9 1917.9,1194.9 1946.6,1184.6 1977.9,1172.1 2012.0,1157.2 2049.0,1139.9 2089.1,1120.0 2132.4,1097.3 2179.1,1071.9 2229.4,1043.4 2283.6,1011.9 2341.8,977.0 2404.2,938.7  Z" style="stroke-width: 2.0;  stroke: rgb(82,82,82); fill: rgb(0,255,0); opacity: 0.667;" />
<path d="M 2404.209,938.721 A 1064.250,1064.250 0.00 0,1 2406.3,942.1 L 2406.3,942.1 2343.8,980.2 2285.6,1015.0 2231.5,1046.5 2181.4,1075.0 2134.9,1100.6 2092.0,1123.4 2052.4,1143.6 2016.0,1161.3 1982.6,1176.5 1952.0,1189.5 1924.2,1200.2 1898.9,1208.7 1876.1,1215.1 1855.7,1219.5 1837.5,1221.9 1821.6,1222.2 1807.7,1220.6 1795.9,1217.0 1786.1,1211.4 1778.3,1203.9 1772.4,1194.3 1768.4,1182.6 1766.3,1168.8 1766.1,1152.9 1767.8,1134.7 1771.4,1114.1 1777.1,1091.1 1784.7,1065.5 1794.4,1037.3 1806.3,1006.3 1820.3,972.4 1836.7,935.4 1855.5,895.1 1876.8,851.4 1900.7,804.1 1927.4,753.0 1957.0,697.8 1989.7,638.4 2025.6,574.6  A 1064.250,1064.250 0.00 0,0 2022.4,572.8 L 2022.4,572.8 1986.7,636.7 1954.2,696.2 1924.8,751.5 1898.3,802.7 1874.5,850.1 1853.4,893.9 1834.7,934.2 1818.5,971.3 1804.5,1005.3 1792.8,1036.3 1783.2,1064.5 1775.6,1090.1 1770.1,1113.1 1766.5,1133.7 1764.8,1151.9 1765.1,1167.9 1767.2,1181.7 1771.3,1193.3 1777.2,1202.9 1785.1,1210.4 1794.9,1215.9 1806.7,1219.5 1820.6,1221.0 1836.5,1220.6 1854.7,1218.2 1875.1,1213.8 1897.8,1207.2 1923.0,1198.6 1950.9,1187.8 1981.4,1174.7 2014.7,1159.4 2051.1,1141.5 2090.6,1121.2 2133.4,1098.2 2179.8,1072.5 2229.8,1043.8 2283.8,1012.0 2341.8,977.1 2404.2,938.7  Z" style="stroke-width: 2.0;  stroke: rgb(82,82,82); fill: rgb(53,128,0); opacity: 0.667;" />
<path d="M 2404.209,938.721 A 1064.250,1064.250 0.00 0,1 2406.3,942.1 L 2406.3,942.1 2343.9,980.3 2286.0,1015.4 2232.4,1047.4 2182.9,1076.6 2137.4,1103.0 2095.5,1126.9 2057.1,1148.2 2022.1,1167.2 1990.3,1183.9 1961.5,1198.4 1935.6,1210.8 1912.6,1221.2 1892.2,1229.6 1874.4,1236.1 1859.0,1240.7 1846.2,1243.4 1835.6,1244.4 1827.4,1243.5 1821.4,1240.8 1817.7,1236.2 1816.3,1229.9 1817.0,1221.6 1820.0,1211.5 1825.2,1199.4 1832.8,1185.3 1842.7,1169.1 1854.9,1150.8 1869.7,1130.2 1887.0,1107.3 1906.9,1082.0 1929.5,1054.1 1955.1,1023.5 1983.6,990.1 2015.2,953.8 2050.2,914.4 2088.6,871.6 2130.6,825.5 2176.4,775.7 2226.2,722.0  A 1064.250,1064.250 0.00 0,0 2223.3,719.3 L 2223.3,719.3 2173.7,773.1 2128.0,823.1 2086.2,869.4 2048.0,912.3 2013.2,951.9 1981.7,988.3 1953.3,1021.8 1927.9,1052.5 1905.3,1080.5 1885.5,1105.9 1868.3,1128.8 1853.6,1149.4 1841.4,1167.8 1831.6,1184.0 1824.1,1198.2 1818.9,1210.3 1816.0,1220.4 1815.2,1228.7 1816.7,1235.0 1820.5,1239.6 1826.4,1242.2 1834.7,1243.1 1845.2,1242.1 1858.1,1239.3 1873.4,1234.7 1891.2,1228.1 1911.5,1219.7 1934.6,1209.2 1960.4,1196.7 1989.1,1182.1 2020.9,1165.2 2055.8,1146.1 2094.1,1124.7 2135.9,1100.7 2181.3,1074.1 2230.7,1044.7 2284.2,1012.5 2341.9,977.2 2404.2,938.7  Z" style="stroke-width: 2.0;  stroke: rgb(82,82,82); fill: rgb(0,0,204); opacity: 0.667;" />
<path d="M 2404.209,938.721 A 1064.250,1064.250 0.00 0,1 2406.3,942.1 L 2406.3,942.1 2343.9,980.4 2286.1,1015.5 2232.6,1047.7 2183.3,1077.1 2137.9,1103.7 2096.3,1127.9 2058.2,1149.6 2023.6,1168.9 1992.1,1186.0 1963.8,1201.0 1938.4,1214.0 1915.8,1224.9 1896.0,1233.9 1878.8,1241.0 1864.1,1246.3 1852.0,1249.8 1842.2,1251.5 1834.8,1251.5 1829.8,1249.6 1827.0,1246.1 1826.6,1240.7 1828.4,1233.6 1832.6,1224.6 1839.1,1213.7 1848.0,1200.9 1859.3,1186.1 1873.1,1169.3 1889.5,1150.3 1908.6,1129.1 1930.4,1105.6 1955.0,1079.7 1982.7,1051.2 2013.5,1020.0 2047.5,986.0 2085.0,949.1 2126.1,909.0 2171.0,865.7 2219.9,818.9 2273.0,768.5  A 1064.250,1064.250 0.00 0,0 2270.4,765.8 L 2270.4,765.8 2217.5,816.4 2168.8,863.3 2124.1,906.8 2083.1,947.0 2045.7,984.1 2011.8,1018.2 1981.1,1049.5 1953.6,1078.1 1929.0,1104.1 1907.3,1127.7 1888.3,1149.0 1872.0,1168.0 1858.2,1184.9 1846.9,1199.7 1838.1,1212.5 1831.6,1223.4 1827.5,1232.4 1825.6,1239.5 1826.1,1244.9 1828.9,1248.4 1833.9,1250.2 1841.3,1250.3 1851.0,1248.5 1863.2,1245.0 1877.8,1239.6 1895.0,1232.4 1914.8,1223.3 1937.3,1212.3 1962.7,1199.3 1991.0,1184.2 2022.3,1167.0 2056.9,1147.5 2094.9,1125.6 2136.5,1101.4 2181.7,1074.5 2230.9,1045.0 2284.3,1012.6 2341.9,977.2 2404.2,938.7  Z" style="stroke-width: 2.0;  stroke: rgb(82,82,82); fill: rgb(102,153,255); opacity: 0.667;" />
<path d="M 2409.151,946.762 A 1064.250,1064.250 0.00 0,1 2411.1,949.9 L 2411.1,949.9 2348.0,987.4 2288.9,1021.1 2233.5,1051.5 2181.7,1078.5 2133.2,1102.5 2087.8,1123.6 2045.4,1141.8 2005.8,1157.5 1968.8,1170.6 1934.3,1181.3 1902.1,1189.7 1872.1,1195.8 1844.1,1199.8 1818.0,1201.6 1793.7,1201.4 1771.1,1199.1 1750.1,1194.8 1730.6,1188.4 1712.6,1180.0 1695.9,1169.5 1680.4,1156.9 1666.2,1142.1 1653.2,1125.1 1641.4,1105.7 1630.6,1084.0 1620.9,1059.7 1612.3,1032.7 1604.8,1003.0 1598.4,970.4 1593.0,934.6 1588.7,895.6 1585.6,853.1 1583.7,807.0 1582.9,757.0 1583.4,702.9 1585.3,644.5 1588.6,581.4 1593.3,513.5 1599.6,440.4  A 1064.250,1064.250 0.00 0,0 1595.9,440.1 L 1595.9,440.1 1589.9,513.2 1585.4,581.1 1582.3,644.2 1580.7,702.6 1580.3,756.7 1581.2,806.7 1583.4,852.8 1586.6,895.3 1591.0,934.3 1596.5,970.0 1603.1,1002.6 1610.7,1032.3 1619.4,1059.3 1629.1,1083.5 1640.0,1105.2 1651.9,1124.6 1665.0,1141.5 1679.2,1156.3 1694.7,1168.8 1711.4,1179.3 1729.5,1187.6 1749.0,1193.9 1770.1,1198.2 1792.6,1200.4 1816.9,1200.5 1843.0,1198.6 1871.0,1194.5 1901.0,1188.3 1933.2,1179.8 1967.7,1169.0 2004.6,1155.7 2044.2,1139.9 2086.5,1121.5 2131.8,1100.3 2180.2,1076.2 2232.0,1048.9 2287.2,1018.4 2346.2,984.4 2409.2,946.8  Z" style="stroke-width: 2.0;  stroke: rgb(82,82,82); fill: rgb(153,204,255); opacity: 0.667;" />
<path d="M 2409.151,946.762 A 1064.250,1064.250 0.00 0,1 2411.1,949.9 L 2411.1,949.9 2348.2,987.5 2289.5,1021.6 2235.0,1052.5 2184.3,1080.3 2137.2,1105.1 2093.6,1127.2 2053.2,1146.6 2015.9,1163.4 1981.6,1177.8 1950.1,1189.9 1921.2,1199.7 1894.8,1207.4 1870.8,1212.9 1849.0,1216.3 1829.5,1217.7 1812.0,1217.1 1796.6,1214.5 1783.0,1209.8 1771.4,1203.2 1761.6,1194.5 1753.6,1183.8 1747.4,1170.9 1742.9,1155.9 1740.1,1138.6 1739.1,1119.1 1739.9,1097.1 1742.4,1072.6 1746.8,1045.4 1753.0,1015.6 1761.2,982.8 1771.3,946.9 1783.5,907.9 1797.9,865.5 1814.5,819.5 1833.4,769.8 1854.8,716.0 1878.8,658.1 1905.5,595.8 1935.2,528.8  A 1064.250,1064.250 0.00 0,0 1931.8,527.3 L 1931.8,527.3 1902.4,594.4 1875.9,656.8 1852.1,714.8 1830.9,768.6 1812.1,818.4 1795.7,864.5 1781.5,906.9 1769.4,946.0 1759.4,981.9 1751.4,1014.7 1745.2,1044.6 1740.9,1071.7 1738.5,1096.2 1737.8,1118.2 1738.9,1137.8 1741.7,1155.1 1746.2,1170.1 1752.5,1182.9 1760.5,1193.6 1770.4,1202.2 1782.0,1208.8 1795.6,1213.4 1811.0,1216.0 1828.5,1216.6 1848.0,1215.1 1869.8,1211.6 1893.7,1206.0 1920.1,1198.3 1949.0,1188.3 1980.5,1176.1 2014.8,1161.6 2052.0,1144.6 2092.3,1125.1 2135.8,1102.9 2182.8,1077.9 2233.4,1049.9 2287.9,1018.8 2346.4,984.5 2409.2,946.8  Z" style="stroke-width: 2.0;  stroke: rgb(82,82,82); fill: rgb(0,255,255); opacity: 0.667;" />
<path d="M 2409.151,946.762 A 1064.250,1064.250 0.00 0,1 2411.1,949.9 L 2411.1,949.9 2348.2,987.5 2289.7,1021.8 2235.4,1052.8 2185.0,1080.8 2138.3,1106.0 2095.1,1128.4 2055.3,1148.2 2018.7,1165.5 1985.0,1180.5 1954.3,1193.1 1926.3,1203.5 1900.9,1211.7 1877.9,1217.9 1857.4,1222.0 1839.1,1224.2 1823.0,1224.3 1809.0,1222.5 1797.1,1218.7 1787.2,1213.0 1779.3,1205.2 1773.3,1195.5 1769.2,1183.7 1767.0,1169.8 1766.7,1153.7 1768.4,1135.4 1771.9,1114.7 1777.5,1091.6 1785.1,1066.0 1794.7,1037.7 1806.5,1006.6 1820.5,972.6 1836.9,935.5 1855.6,895.2 1876.9,851.5 1900.8,804.1 1927.5,753.0 1957.1,697.8 1989.7,638.5 2025.6,574.6  A 1064.250,1064.250 0.00 0,0 2022.4,572.8 L 2022.4,572.8 1986.7,636.7 1954.3,696.2 1924.9,751.5 1898.4,802.7 1874.6,850.2 1853.5,894.0 1834.9,934.4 1818.7,971.5 1804.8,1005.6 1793.1,1036.7 1783.5,1065.0 1776.1,1090.6 1770.6,1113.8 1767.1,1134.4 1765.5,1152.8 1765.8,1168.9 1768.1,1182.8 1772.2,1194.5 1778.2,1204.3 1786.2,1212.0 1796.1,1217.7 1808.1,1221.4 1822.0,1223.2 1838.1,1223.0 1856.4,1220.8 1876.9,1216.6 1899.8,1210.3 1925.2,1202.0 1953.2,1191.5 1983.9,1178.8 2017.5,1163.7 2054.1,1146.3 2093.8,1126.3 2136.9,1103.8 2183.5,1078.5 2233.8,1050.2 2288.0,1019.0 2346.4,984.6 2409.2,946.8  Z" style="stroke-width: 2.0;  stroke: rgb(82,82,82); fill: rgb(204,255,255); opacity: 0.667;" />
<path d="M 2409.151,946.762 A 1064.250,1064.250 0.00 0,1 2411.1,949.9 L 2411.1,949.9 2348.3,987.6 2290.1,1022.2 2236.3,1053.7 2186.5,1082.4 2140.7,1108.5 2098.6,1131.9 2060.0,1152.9 2024.7,1171.5 1992.7,1187.8 1963.8,1202.0 1937.7,1214.2 1914.5,1224.3 1894.0,1232.4 1876.0,1238.7 1860.5,1243.0 1847.5,1245.6 1836.9,1246.3 1828.5,1245.2 1822.5,1242.3 1818.7,1237.6 1817.1,1231.1 1817.8,1222.7 1820.7,1212.5 1825.8,1200.2 1833.3,1186.0 1843.1,1169.7 1855.3,1151.3 1870.0,1130.7 1887.2,1107.7 1907.1,1082.3 1929.7,1054.3 1955.2,1023.7 1983.7,990.3 2015.3,953.9 2050.2,914.4 2088.6,871.7 2130.6,825.5 2176.4,775.7 2226.2,722.0  A 1064.250,1064.250 0.00 0,0 2223.3,719.3 L 2223.3,719.3 2173.7,773.1 2128.0,823.1 2086.2,869.5 2048.0,912.4 2013.3,952.0 1981.8,988.5 1953.4,1022.0 1928.1,1052.7 1905.5,1080.8 1885.8,1106.3 1868.6,1129.3 1854.0,1150.0 1841.9,1168.5 1832.1,1184.8 1824.7,1199.0 1819.6,1211.3 1816.7,1221.6 1816.1,1230.0 1817.7,1236.5 1821.5,1241.2 1827.6,1244.0 1836.0,1245.1 1846.6,1244.3 1859.6,1241.7 1875.1,1237.3 1893.0,1231.0 1913.5,1222.8 1936.7,1212.6 1962.7,1200.4 1991.6,1186.1 2023.6,1169.6 2058.7,1150.9 2097.3,1129.8 2139.3,1106.2 2185.0,1080.1 2234.7,1051.2 2288.4,1019.4 2346.5,984.7 2409.2,946.8  Z" style="stroke-width: 2.0;  stroke: rgb(82,82,82); fill: rgb(153,0,204); opacity: 0.667;" />
<path d="M 2409.151,946.762 A 1064.250,1064.250 0.00 0,1 2411.1,949.9 L 2411.1,949.9 2348.3,987.7 2290.2,1022.3 2236.5,1054.0 2186.9,1082.9 2141.3,1109.2 2099.4,1132.9 2061.1,1154.2 2026.2,1173.2 1994.6,1190.0 1966.0,1204.7 1940.5,1217.3 1917.7,1228.0 1897.8,1236.7 1880.4,1243.6 1865.6,1248.7 1853.3,1251.9 1843.4,1253.4 1835.9,1253.2 1830.8,1251.2 1827.9,1247.5 1827.4,1242.0 1829.2,1234.7 1833.3,1225.6 1839.7,1214.6 1848.5,1201.7 1859.8,1186.8 1873.5,1169.9 1889.9,1150.8 1908.9,1129.5 1930.6,1105.9 1955.2,1079.9 1982.8,1051.4 2013.6,1020.1 2047.6,986.1 2085.1,949.1 2126.2,909.0 2171.0,865.7 2219.9,818.9 2273.0,768.5  A 1064.250,1064.250 0.00 0,0 2270.4,765.8 L 2270.4,765.8 2217.5,816.4 2168.8,863.3 2124.1,906.9 2083.1,947.1 2045.8,984.2 2011.9,1018.4 1981.3,1049.7 1953.8,1078.3 1929.2,1104.4 1907.6,1128.1 1888.6,1149.5 1872.4,1168.6 1858.7,1185.6 1847.5,1200.5 1838.7,1213.4 1832.3,1224.4 1828.2,1233.5 1826.5,1240.8 1827.1,1246.3 1829.9,1250.1 1835.1,1252.0 1842.6,1252.2 1852.5,1250.7 1864.7,1247.4 1879.5,1242.3 1896.8,1235.3 1916.8,1226.5 1939.5,1215.8 1965.0,1203.0 1993.5,1188.3 2025.1,1171.4 2059.9,1152.2 2098.1,1130.8 2139.9,1106.9 2185.4,1080.5 2234.9,1051.4 2288.5,1019.5 2346.5,984.7 2409.2,946.8  Z" style="stroke-width: 2.0;  stroke: rgb(82,82,82); fill: rgb(204,51,255); opacity: 0.667;" />
<path d="M 2409.151,946.762 A 1064.250,1064.250 0.00 0,1 2411.1,949.9 L 2411.1,949.9 2348.4,987.8 2290.5,1022.7 2237.1,1054.9 2188.0,1084.5 2143.0,1111.7 2101.9,1136.4 2064.4,1158.9 2030.5,1179.3 2000.0,1197.7 1972.7,1214.0 1948.5,1228.5 1927.3,1241.2 1908.9,1252.2 1893.4,1261.4 1880.5,1269.0 1870.3,1275.1 1862.6,1279.5 1857.5,1282.4 1854.9,1283.8 1854.8,1283.6 1857.2,1281.9 1862.1,1278.7 1869.6,1273.9 1879.6,1267.6 1892.3,1259.6 1907.6,1250.0 1925.8,1238.7 1946.8,1225.7 1970.7,1210.8 1997.8,1194.0 2028.1,1175.3 2061.7,1154.5 2098.9,1131.6 2139.7,1106.3 2184.5,1078.7 2233.3,1048.7 2286.4,1016.0 2344.0,980.5 2406.3,942.1  A 1064.250,1064.250 0.00 0,0 2404.2,938.7 L 2404.2,938.7 2342.0,977.3 2284.6,1013.0 2231.6,1045.9 2182.9,1076.2 2138.3,1104.0 2097.5,1129.3 2060.4,1152.4 2026.9,1173.3 1996.7,1192.2 1969.7,1209.0 1945.7,1224.0 1924.8,1237.1 1906.7,1248.5 1891.4,1258.2 1878.7,1266.2 1868.7,1272.6 1861.3,1277.4 1856.4,1280.6 1854.0,1282.3 1854.1,1282.5 1856.7,1281.1 1861.8,1278.2 1869.5,1273.7 1879.7,1267.7 1892.5,1260.0 1908.1,1250.7 1926.4,1239.7 1947.6,1227.0 1971.7,1212.4 1998.9,1195.9 2029.4,1177.5 2063.2,1157.0 2100.6,1134.3 2141.6,1109.4 2186.5,1082.1 2235.5,1052.3 2288.8,1020.0 2346.6,984.8 2409.2,946.8  Z" style="stroke-width: 2.0;  stroke: rgb(82,82,82); fill: rgb(204,153,255); opacity: 0.667;" />
<path d="M 2503.333,1854.896 A 1064.250,1064.250 0.00 0,1 2502.1,1858.4 L 2502.1,1858.4 2433.0,1832.7 2368.9,1806.7 2309.3,1780.7 2254.0,1754.5 2202.7,1728.3 2155.0,1702.1 2110.7,1675.8 2069.6,1649.5 2031.3,1623.2 1995.7,1596.9 1962.5,1570.6 1931.6,1544.1 1902.7,1517.6 1875.7,1490.9 1850.4,1464.0 1826.7,1436.8 1804.4,1409.2 1783.5,1381.2 1763.8,1352.6 1745.2,1323.4 1727.7,1293.5 1711.2,1262.6 1695.6,1230.8 1681.0,1197.8 1667.3,1163.5 1654.6,1127.7 1642.8,1090.3 1631.9,1051.1 1622.1,1009.9 1613.3,966.5 1605.7,920.7 1599.3,872.3 1594.3,821.1 1590.7,766.8 1588.7,709.1 1588.4,648.0 1590.0,583.0 1593.7,513.9 1599.6,440.4  A 1064.250,1064.250 0.00 0,0 1595.9,440.1 L 1595.9,440.1 1590.2,513.6 1586.8,582.7 1585.4,647.7 1585.9,708.8 1588.1,766.4 1591.9,820.7 1597.1,872.0 1603.7,920.3 1611.5,966.1 1620.4,1009.5 1630.3,1050.6 1641.3,1089.8 1653.3,1127.2 1666.2,1162.9 1680.0,1197.1 1694.7,1230.1 1710.3,1261.9 1726.9,1292.7 1744.6,1322.6 1763.3,1351.7 1783.1,1380.2 1804.1,1408.1 1826.5,1435.6 1850.3,1462.8 1875.7,1489.6 1902.8,1516.2 1931.8,1542.6 1962.8,1569.0 1996.0,1595.2 2031.7,1621.4 2070.1,1647.5 2111.3,1673.7 2155.7,1699.8 2203.5,1725.8 2254.9,1751.9 2310.3,1777.8 2369.9,1803.7 2434.2,1829.4 2503.3,1854.9  Z" style="stroke-width: 2.0;  stroke: rgb(82,82,82); fill: rgb(102,102,102); opacity: 0.667;" />
<path d="M 2503.333,1854.896 A 1064.250,1064.250 0.00 0,1 2502.1,1858.4 L 2502.1,1858.4 2433.1,1832.8 2369.3,1807.4 2310.2,1782.1 2255.7,1757.0 2205.3,1732.0 2158.9,1707.2 2116.2,1682.5 2076.9,1657.9 2040.8,1633.3 2007.6,1608.8 1977.3,1584.3 1949.5,1559.8 1924.2,1535.2 1901.2,1510.4 1880.3,1485.3 1861.4,1460.0 1844.5,1434.3 1829.4,1408.2 1816.0,1381.4 1804.3,1354.1 1794.3,1325.9 1785.9,1296.9 1779.1,1266.9 1773.9,1235.7 1770.3,1203.3 1768.3,1169.6 1768.1,1134.2 1769.6,1097.2 1772.9,1058.4 1778.2,1017.5 1785.5,974.5 1794.9,929.0 1806.7,881.1 1820.9,830.4 1837.7,776.8 1857.4,720.0 1880.0,659.9 1905.9,596.2 1935.2,528.8  A 1064.250,1064.250 0.00 0,0 1931.8,527.3 L 1931.8,527.3 1902.7,594.8 1877.1,658.6 1854.6,718.8 1835.2,775.6 1818.6,829.3 1804.5,880.0 1792.9,928.0 1783.6,973.5 1776.5,1016.5 1771.4,1057.4 1768.2,1096.3 1766.8,1133.3 1767.2,1168.6 1769.2,1202.4 1772.9,1234.8 1778.3,1265.9 1785.2,1295.9 1793.7,1324.9 1803.8,1353.0 1815.6,1380.3 1829.0,1407.0 1844.3,1433.1 1861.3,1458.8 1880.2,1484.0 1901.2,1509.0 1924.3,1533.7 1949.7,1558.2 1977.6,1582.7 2008.0,1607.1 2041.2,1631.4 2077.4,1655.8 2116.8,1680.3 2159.7,1704.9 2206.2,1729.6 2256.6,1754.4 2311.2,1779.3 2370.4,1804.4 2434.3,1829.6 2503.3,1854.9  Z" style="stroke-width: 2.0;  stroke: rgb(82,82,82); fill: rgb(153,153,153); opacity: 0.667;" />
<path d="M 2503.333,1854.896 A 1064.250,1064.250 0.00 0,1 2502.1,1858.4 L 2502.1,1858.4 2433.1,1832.9 2369.4,1807.6 2310.5,1782.6 2256.1,1757.8 2206.0,1733.2 2159.9,1708.8 2117.5,1684.6 2078.7,1660.6 2043.1,1636.7 2010.6,1612.8 1981.0,1589.0 1954.1,1565.2 1929.7,1541.3 1907.7,1517.3 1888.0,1493.1 1870.5,1468.6 1854.9,1443.8 1841.4,1418.5 1829.7,1392.7 1819.9,1366.2 1811.9,1339.1 1805.7,1311.1 1801.2,1282.1 1798.6,1252.1 1797.7,1220.9 1798.7,1188.3 1801.6,1154.3 1806.5,1118.7 1813.4,1081.4 1822.4,1042.1 1833.8,1000.7 1847.6,957.2 1863.9,911.2 1882.9,862.7 1904.8,811.3 1929.9,757.1 1958.2,699.7 1990.0,638.9 2025.6,574.6  A 1064.250,1064.250 0.00 0,0 2022.4,572.8 L 2022.4,572.8 1987.0,637.2 1955.4,698.1 1927.3,755.6 1902.4,809.9 1880.7,861.3 1861.8,909.9 1845.7,956.0 1832.1,999.6 1820.8,1041.0 1811.9,1080.3 1805.1,1117.6 1800.4,1153.3 1797.6,1187.3 1796.7,1219.8 1797.7,1251.0 1800.5,1281.1 1805.0,1310.0 1811.3,1338.0 1819.5,1365.1 1829.4,1391.5 1841.1,1417.3 1854.7,1442.5 1870.3,1467.3 1888.0,1491.7 1907.8,1515.9 1929.9,1539.8 1954.3,1563.6 1981.3,1587.4 2011.0,1611.0 2043.6,1634.8 2079.3,1658.6 2118.2,1682.5 2160.6,1706.5 2206.8,1730.7 2257.0,1755.1 2311.4,1779.8 2370.4,1804.6 2434.3,1829.6 2503.3,1854.9  Z" style="stroke-width: 2.0;  stroke: rgb(82,82,82); fill: rgb(204,204,204); opacity: 0.667;" />
<path d="M 2503.333,1854.896 A 1064.250,1064.250 0.00 0,1 2502.1,1858.4 L 2502.1,1858.4 2433.2,1833.0 2369.6,1808.2 2310.9,1783.8 2256.9,1759.8 2207.3,1736.3 2161.9,1713.1 2120.3,1690.3 2082.5,1667.8 2048.1,1645.6 2016.9,1623.6 1988.9,1601.7 1963.8,1580.0 1941.5,1558.3 1921.8,1536.5 1904.6,1514.7 1889.9,1492.7 1877.5,1470.5 1867.5,1448.0 1859.6,1425.1 1853.9,1401.7 1850.4,1377.7 1849.0,1353.1 1849.8,1327.7 1852.8,1301.4 1858.1,1274.1 1865.6,1245.8 1875.5,1216.3 1887.8,1185.4 1902.7,1153.1 1920.3,1119.3 1940.7,1083.8 1964.0,1046.4 1990.5,1007.1 2020.3,965.7 2053.5,922.1 2090.5,876.0 2131.5,827.4 2176.6,776.2 2226.2,722.0  A 1064.250,1064.250 0.00 0,0 2223.3,719.3 L 2223.3,719.3 2173.9,773.6 2129.0,825.1 2088.2,873.8 2051.4,920.0 2018.3,963.8 1988.6,1005.3 1962.3,1044.7 1939.1,1082.1 1918.9,1117.7 1901.4,1151.6 1886.7,1184.0 1874.4,1214.9 1864.7,1244.5 1857.2,1272.8 1852.1,1300.1 1849.2,1326.4 1848.5,1351.8 1849.9,1376.4 1853.5,1400.4 1859.3,1423.8 1867.2,1446.7 1877.4,1469.2 1889.9,1491.4 1904.7,1513.3 1921.9,1535.0 1941.7,1556.7 1964.1,1578.3 1989.3,1600.0 2017.4,1621.8 2048.6,1643.7 2083.1,1665.8 2121.0,1688.2 2162.6,1710.8 2208.1,1733.8 2257.8,1757.2 2311.9,1780.9 2370.6,1805.1 2434.4,1829.8 2503.3,1854.9  Z" style="stroke-width: 2.0;  stroke: rgb(82,82,82); fill: rgb(204,204,153); opacity: 0.667;" />
<path d="M 2503.333,1854.896 A 1064.250,1064.250 0.00 0,1 2502.1,1858.4 L 2502.1,1858.4 2433.2,1833.1 2369.6,1808.3 2311.0,1784.1 2257.1,1760.4 2207.6,1737.1 2162.3,1714.3 2120.9,1691.9 2083.3,1669.9 2049.2,1648.1 2018.3,1626.6 1990.7,1605.3 1966.0,1584.2 1944.1,1563.1 1924.9,1542.1 1908.4,1521.0 1894.3,1499.8 1882.7,1478.4 1873.4,1456.7 1866.4,1434.7 1861.7,1412.3 1859.2,1389.3 1859.0,1365.7 1861.0,1341.4 1865.4,1316.4 1872.0,1290.4 1881.1,1263.4 1892.6,1235.3 1906.7,1206.0 1923.5,1175.4 1943.1,1143.3 1965.5,1109.7 1991.1,1074.3 2020.0,1037.2 2052.3,998.0 2088.2,956.9 2128.0,913.4 2171.9,867.7 2220.1,819.4 2273.0,768.5  A 1064.250,1064.250 0.00 0,0 2270.4,765.8 L 2270.4,765.8 2217.7,816.9 2169.7,865.3 2125.9,911.2 2086.3,954.8 2050.5,996.1 2018.3,1035.3 1989.6,1072.6 1964.2,1108.0 1941.8,1141.8 1922.4,1173.9 1905.7,1204.6 1891.7,1234.0 1880.3,1262.1 1871.3,1289.1 1864.7,1315.1 1860.5,1340.2 1858.5,1364.5 1858.8,1388.0 1861.4,1411.0 1866.2,1433.4 1873.2,1455.4 1882.6,1477.0 1894.3,1498.4 1908.5,1519.6 1925.1,1540.6 1944.3,1561.6 1966.3,1582.6 1991.0,1603.6 2018.8,1624.8 2049.7,1646.2 2083.9,1667.8 2121.6,1689.7 2163.1,1712.0 2208.4,1734.7 2258.0,1757.7 2312.0,1781.3 2370.7,1805.3 2434.4,1829.8 2503.3,1854.9  Z" style="stroke-width: 2.0;  stroke: rgb(82,82,82); fill: rgb(251,106,74); opacity: 0.667;" />
<path d="M 2503.333,1854.896 A 1064.250,1064.250 0.00 0,1 2502.1,1858.4 L 2502.1,1858.4 2433.2,1833.2 2369.7,1808.8 2311.2,1785.2 2257.5,1762.3 2208.3,1740.0 2163.4,1718.4 2122.5,1697.4 2085.5,1676.8 2052.0,1656.8 2022.1,1637.2 1995.4,1617.9 1971.8,1598.9 1951.3,1580.2 1933.6,1561.6 1918.7,1543.2 1906.5,1524.8 1896.9,1506.4 1889.9,1487.9 1885.4,1469.2 1883.5,1450.4 1884.0,1431.2 1887.0,1411.7 1892.6,1391.7 1900.7,1371.2 1911.5,1350.0 1924.9,1328.2 1941.2,1305.6 1960.3,1282.2 1982.4,1257.8 2007.7,1232.4 2036.2,1205.9 2068.2,1178.2 2103.9,1149.1 2143.4,1118.7 2186.9,1086.7 2234.7,1053.2 2287.0,1018.0 2344.1,981.0 2406.3,942.1  A 1064.250,1064.250 0.00 0,0 2404.2,938.7 L 2404.2,938.7 2342.2,977.9 2285.2,1015.1 2233.0,1050.5 2185.4,1084.2 2141.9,1116.3 2102.6,1146.9 2067.0,1176.0 2035.1,1203.9 2006.7,1230.5 1981.5,1256.0 1959.5,1280.5 1940.4,1304.0 1924.3,1326.7 1910.9,1348.5 1900.2,1369.7 1892.2,1390.2 1886.7,1410.3 1883.7,1429.8 1883.3,1449.0 1885.3,1467.9 1889.8,1486.5 1896.9,1505.0 1906.6,1523.3 1918.8,1541.7 1933.8,1560.1 1951.5,1578.6 1972.2,1597.3 1995.8,1616.1 2022.5,1635.3 2052.6,1654.9 2086.1,1674.8 2123.2,1695.2 2164.2,1716.1 2209.2,1737.5 2258.4,1759.6 2312.2,1782.3 2370.8,1805.8 2434.4,1829.9 2503.3,1854.9  Z" style="stroke-width: 2.0;  stroke: rgb(82,82,82); fill: rgb(116,196,118); opacity: 0.667;" />
<path d="M 2503.333,1854.896 A 1064.250,1064.250 0.00 0,1 2502.1,1858.4 L 2502.1,1858.4 2433.2,1833.2 2369.7,1808.8 2311.2,1785.2 2257.5,1762.3 2208.4,1740.1 2163.4,1718.6 2122.6,1697.6 2085.5,1677.1 2052.1,1657.2 2022.2,1637.6 1995.5,1618.4 1972.0,1599.6 1951.5,1580.9 1933.9,1562.5 1919.0,1544.2 1906.9,1525.9 1897.4,1507.6 1890.5,1489.3 1886.1,1470.8 1884.2,1452.1 1884.9,1433.1 1888.0,1413.7 1893.7,1393.9 1902.0,1373.6 1912.9,1352.7 1926.5,1331.1 1942.9,1308.8 1962.2,1285.6 1984.5,1261.5 2010.0,1236.4 2038.8,1210.2 2071.0,1182.8 2106.9,1154.2 2146.6,1124.1 2190.4,1092.6 2238.5,1059.5 2291.2,1024.8 2348.6,988.3 2411.1,949.9  A 1064.250,1064.250 0.00 0,0 2409.2,946.8 L 2409.2,946.8 2346.8,985.3 2289.5,1022.0 2237.0,1056.9 2189.0,1090.2 2145.3,1121.9 2105.7,1152.0 2069.9,1180.8 2037.7,1208.3 2009.1,1234.6 1983.7,1259.8 1961.4,1284.0 1942.2,1307.2 1925.9,1329.6 1912.3,1351.3 1901.5,1372.2 1893.3,1392.5 1887.7,1412.4 1884.6,1431.7 1884.1,1450.7 1886.0,1469.4 1890.4,1487.9 1897.4,1506.2 1907.0,1524.5 1919.2,1542.7 1934.1,1561.0 1951.8,1579.3 1972.4,1597.9 1995.9,1616.7 2022.7,1635.8 2052.7,1655.2 2086.2,1675.1 2123.3,1695.4 2164.2,1716.3 2209.2,1737.7 2258.4,1759.7 2312.2,1782.4 2370.8,1805.8 2434.4,1829.9 2503.3,1854.9  Z" style="stroke-width: 2.0;  stroke: rgb(82,82,82); fill: rgb(107,174,214); opacity: 0.667;" />
<path d="M 706.169,2208.844 A 1064.250,1064.250 0.00 0,1 703.7,2206.1 L 703.7,2206.1 758.3,2156.1 808.6,2107.2 854.8,2059.4 897.4,2012.6 936.7,1967.0 973.0,1922.3 1006.6,1878.7 1037.8,1836.1 1066.9,1794.4 1094.0,1753.6 1119.5,1713.6 1143.6,1674.4 1166.4,1636.0 1188.1,1598.1 1209.0,1560.8 1229.2,1523.9 1248.7,1487.3 1267.8,1450.9 1286.6,1414.6 1305.0,1378.2 1323.3,1341.6 1341.4,1304.7 1359.3,1267.4 1377.2,1229.3 1395.0,1190.4 1412.7,1150.5 1430.3,1109.3 1447.7,1066.8 1464.9,1022.6 1481.8,976.6 1498.3,928.6 1514.3,878.2 1529.7,825.3 1544.2,769.7 1557.9,711.0 1570.5,649.0 1581.8,583.4 1591.5,514.0 1599.6,440.4  A 1064.250,1064.250 0.00 0,0 1595.9,440.1 L 1595.9,440.1 1588.1,513.7 1578.6,583.1 1567.5,648.7 1555.2,710.8 1541.7,769.5 1527.3,825.2 1512.1,878.2 1496.3,928.6 1480.0,976.7 1463.2,1022.7 1446.2,1067.0 1428.9,1109.6 1411.5,1150.8 1393.9,1190.8 1376.3,1229.7 1358.5,1267.8 1340.7,1305.3 1322.7,1342.3 1304.6,1378.9 1286.3,1415.3 1267.7,1451.7 1248.7,1488.1 1229.3,1524.8 1209.2,1561.8 1188.5,1599.2 1166.9,1637.1 1144.2,1675.7 1120.2,1715.0 1094.9,1755.0 1067.9,1795.9 1039.0,1837.7 1007.9,1880.4 974.5,1924.2 938.4,1968.9 899.2,2014.8 856.8,2061.7 810.7,2109.6 760.6,2158.7 706.2,2208.8  Z" style="stroke-width: 2.0;  stroke: rgb(82,82,82); fill: rgb(253,141,60); opacity: 0.667;" />
<path d="M 706.169,2208.844 A 1064.250,1064.250 0.00 0,1 703.7,2206.1 L 703.7,2206.1 758.4,2155.9 809.0,2106.6 855.8,2058.1 899.3,2010.5 939.6,1963.8 977.3,1918.1 1012.5,1873.4 1045.6,1829.8 1076.9,1787.1 1106.6,1745.5 1135.0,1704.8 1162.3,1665.2 1188.7,1626.4 1214.6,1588.5 1239.9,1551.3 1265.0,1514.9 1289.9,1479.2 1314.8,1443.9 1339.9,1409.1 1365.3,1374.5 1391.0,1340.1 1417.2,1305.8 1443.9,1271.3 1471.1,1236.5 1498.9,1201.2 1527.4,1165.2 1556.4,1128.3 1586.1,1090.4 1616.4,1051.1 1647.2,1010.3 1678.6,967.7 1710.3,923.0 1742.4,876.0 1774.7,826.4 1807.1,773.9 1839.6,718.3 1871.8,659.1 1903.7,596.0 1935.2,528.8  A 1064.250,1064.250 0.00 0,0 1931.8,527.3 L 1931.8,527.3 1900.6,594.6 1868.9,657.8 1836.8,717.1 1804.6,772.9 1772.3,825.5 1740.2,875.2 1708.3,922.3 1676.7,967.1 1645.5,1009.8 1614.8,1050.7 1584.7,1090.1 1555.1,1128.1 1526.2,1165.1 1497.9,1201.2 1470.2,1236.6 1443.1,1271.5 1416.5,1306.1 1390.5,1340.5 1364.9,1375.0 1339.6,1409.6 1314.6,1444.6 1289.8,1479.9 1265.0,1515.8 1240.1,1552.3 1214.9,1589.5 1189.2,1627.5 1162.9,1666.3 1135.7,1706.1 1107.4,1746.9 1077.9,1788.6 1046.8,1831.4 1013.8,1875.2 978.7,1920.0 941.3,1965.8 901.1,2012.6 857.8,2060.3 811.1,2109.0 760.7,2158.5 706.2,2208.8  Z" style="stroke-width: 2.0;  stroke: rgb(82,82,82); fill: rgb(255,0,0); opacity: 0.667;" />
<path d="M 706.169,2208.844 A 1064.250,1064.250 0.00 0,1 703.7,2206.1 L 703.7,2206.1 758.4,2155.9 809.1,2106.4 856.2,2057.7 899.8,2009.9 940.6,1963.0 978.6,1917.1 1014.3,1872.2 1048.0,1828.3 1079.9,1785.5 1110.4,1743.7 1139.6,1703.0 1167.9,1663.4 1195.4,1624.7 1222.3,1587.0 1248.9,1550.2 1275.3,1514.2 1301.7,1479.0 1328.2,1444.4 1355.1,1410.4 1382.3,1376.8 1410.0,1343.5 1438.3,1310.3 1467.3,1277.2 1497.0,1243.9 1527.5,1210.3 1558.8,1176.1 1591.0,1141.2 1623.9,1105.4 1657.7,1068.3 1692.2,1029.9 1727.5,989.8 1763.4,947.7 1799.9,903.5 1837.0,856.7 1874.4,807.2 1912.2,754.5 1950.0,698.4 1987.9,638.6 2025.6,574.6  A 1064.250,1064.250 0.00 0,0 2022.4,572.8 L 2022.4,572.8 1984.9,636.9 1947.2,696.9 1909.5,753.1 1872.0,805.9 1834.7,855.5 1797.8,902.4 1761.5,946.8 1725.7,989.0 1690.6,1029.2 1656.2,1067.8 1622.5,1104.9 1589.7,1140.9 1557.7,1175.9 1526.5,1210.2 1496.2,1243.9 1466.5,1277.3 1437.7,1310.6 1409.5,1343.8 1381.9,1377.2 1354.7,1410.9 1328.0,1445.0 1301.6,1479.7 1275.3,1515.0 1249.1,1551.1 1222.6,1588.0 1195.8,1625.8 1168.4,1664.5 1140.3,1704.3 1111.3,1745.1 1080.9,1787.0 1049.2,1829.9 1015.6,1873.9 980.1,1918.9 942.2,1965.0 901.6,2012.0 858.1,2060.0 811.3,2108.9 760.8,2158.5 706.2,2208.8  Z" style="stroke-width: 2.0;  stroke: rgb(82,82,82); fill: rgb(255,0,204); opacity: 0.667;" />
<path d="M 706.169,2208.844 A 1064.250,1064.250 0.00 0,1 703.7,2206.1 L 703.7,2206.1 758.5,2155.8 809.5,2106.1 857.0,2057.0 901.4,2008.7 943.0,1961.3 982.1,1914.9 1019.0,1869.5 1054.1,1825.3 1087.6,1782.3 1119.9,1740.5 1151.1,1700.0 1181.5,1660.7 1211.4,1622.7 1240.9,1585.9 1270.3,1550.3 1299.8,1515.9 1329.5,1482.5 1359.6,1450.2 1390.3,1418.8 1421.7,1388.3 1453.8,1358.4 1486.9,1329.1 1521.0,1300.3 1556.2,1271.7 1592.5,1243.2 1630.0,1214.6 1668.8,1185.7 1708.9,1156.3 1750.2,1126.2 1792.8,1095.0 1836.7,1062.6 1881.7,1028.6 1928.0,992.9 1975.4,955.0 2023.9,914.6 2073.3,871.5 2123.5,825.3 2174.6,775.6 2226.2,722.0  A 1064.250,1064.250 0.00 0,0 2223.3,719.3 L 2223.3,719.3 2171.9,773.1 2121.0,823.0 2070.9,869.4 2021.7,912.7 1973.4,953.2 1926.1,991.3 1880.0,1027.2 1835.0,1061.3 1791.3,1093.9 1748.8,1125.2 1707.6,1155.5 1667.6,1185.1 1629.0,1214.1 1591.5,1242.8 1555.3,1271.5 1520.2,1300.2 1486.3,1329.2 1453.3,1358.6 1421.2,1388.5 1390.0,1419.2 1359.4,1450.7 1329.4,1483.1 1299.8,1516.6 1270.5,1551.1 1241.2,1586.8 1211.8,1623.7 1182.1,1661.8 1151.8,1701.2 1120.7,1741.9 1088.6,1783.8 1055.2,1826.9 1020.3,1871.2 983.5,1916.7 944.6,1963.2 903.2,2010.8 859.0,2059.2 811.7,2108.5 760.9,2158.4 706.2,2208.8  Z" style="stroke-width: 2.0;  stroke: rgb(82,82,82); fill: rgb(255,204,204); opacity: 0.667;" />
<path d="M 706.169,2208.844 A 1064.250,1064.250 0.00 0,1 703.7,2206.1 L 703.7,2206.1 758.6,2155.8 809.7,2106.0 857.3,2056.8 901.8,2008.4 943.6,1960.9 983.0,1914.4 1020.3,1869.0 1055.7,1824.7 1089.7,1781.7 1122.4,1739.9 1154.1,1699.5 1185.0,1660.4 1215.5,1622.6 1245.7,1586.1 1275.8,1551.0 1306.0,1517.1 1336.5,1484.4 1367.5,1452.8 1399.0,1422.2 1431.3,1392.6 1464.5,1363.8 1498.7,1335.8 1534.0,1308.2 1570.4,1281.1 1608.1,1254.2 1647.0,1227.3 1687.3,1200.3 1729.0,1172.8 1772.0,1144.8 1816.5,1115.9 1862.3,1085.8 1909.5,1054.4 1958.0,1021.2 2007.8,986.1 2058.8,948.6 2110.9,908.4 2164.0,865.3 2218.1,818.8 2273.0,768.5  A 1064.250,1064.250 0.00 0,0 2270.4,765.8 L 2270.4,765.8 2215.7,816.3 2161.8,863.0 2108.8,906.3 2056.8,946.6 2006.0,984.3 1956.3,1019.6 1907.9,1052.9 1860.9,1084.6 1815.1,1114.8 1770.8,1143.8 1727.8,1172.0 1686.3,1199.6 1646.1,1226.8 1607.2,1253.8 1569.6,1280.9 1533.3,1308.1 1498.1,1335.8 1464.1,1364.0 1431.0,1392.9 1398.8,1422.6 1367.3,1453.2 1336.4,1484.9 1306.1,1517.7 1276.0,1551.8 1246.0,1587.0 1215.9,1623.6 1185.6,1661.5 1154.8,1700.7 1123.2,1741.3 1090.7,1783.1 1056.9,1826.3 1021.6,1870.6 984.5,1916.2 945.2,1962.8 903.6,2010.5 859.2,2059.1 811.8,2108.4 760.9,2158.4 706.2,2208.8  Z" style="stroke-width: 2.0;  stroke: rgb(82,82,82); fill: rgb(255,153,0); opacity: 0.667;" />
<path d="M 706.169,2208.844 A 1064.250,1064.250 0.00 0,1 703.7,2206.1 L 703.7,2206.1 760.1,2157.6 815.5,2113.1 869.8,2071.9 922.8,2033.9 974.7,1998.6 1025.3,1965.6 1074.5,1934.8 1122.5,1905.7 1169.1,1878.1 1214.4,1851.7 1258.4,1826.2 1301.1,1801.4 1342.6,1777.1 1383.0,1753.1 1422.2,1729.1 1460.4,1705.0 1497.6,1680.7 1534.0,1655.9 1569.7,1630.5 1604.8,1604.5 1639.3,1577.7 1673.6,1550.0 1707.7,1521.4 1741.8,1491.8 1776.1,1461.2 1810.8,1429.6 1846.1,1396.9 1882.2,1363.2 1919.3,1328.4 1957.7,1292.7 1997.6,1256.1 2039.3,1218.6 2083.1,1180.3 2129.3,1141.5 2178.1,1102.1 2229.8,1062.3 2284.9,1022.2 2343.6,982.1 2406.3,942.1  A 1064.250,1064.250 0.00 0,0 2404.2,938.7 L 2404.2,938.7 2341.7,979.0 2283.1,1019.3 2228.2,1059.5 2176.6,1099.5 2127.9,1139.1 2081.9,1178.2 2038.3,1216.6 1996.7,1254.2 1956.9,1291.0 1918.6,1326.8 1881.6,1361.7 1845.7,1395.6 1810.5,1428.4 1776.0,1460.2 1741.8,1490.9 1707.8,1520.6 1673.8,1549.4 1639.6,1577.1 1605.1,1604.1 1570.1,1630.2 1534.6,1655.7 1498.3,1680.6 1461.1,1705.1 1423.0,1729.4 1383.9,1753.5 1343.6,1777.7 1302.2,1802.1 1259.6,1827.0 1215.6,1852.7 1170.4,1879.2 1123.9,1907.0 1076.1,1936.3 1026.9,1967.3 976.4,2000.4 924.7,2035.9 871.8,2074.1 817.7,2115.4 762.4,2160.2 706.2,2208.8  Z" style="stroke-width: 2.0;  stroke: rgb(82,82,82); fill: rgb(255,204,0); opacity: 0.667;" />
<path d="M 706.169,2208.844 A 1064.250,1064.250 0.00 0,1 703.7,2206.1 L 703.7,2206.1 760.1,2157.6 815.5,2113.1 869.7,2071.9 922.8,2033.9 974.6,1998.6 1025.2,1965.8 1074.4,1934.9 1122.4,1905.9 1169.0,1878.4 1214.3,1852.0 1258.3,1826.6 1301.0,1801.9 1342.5,1777.7 1382.9,1753.8 1422.1,1729.9 1460.4,1705.9 1497.7,1681.7 1534.1,1657.0 1569.9,1631.8 1605.0,1606.0 1639.8,1579.3 1674.1,1551.8 1708.4,1523.5 1742.7,1494.1 1777.1,1463.7 1812.0,1432.3 1847.5,1399.9 1883.8,1366.4 1921.1,1332.0 1959.7,1296.6 1999.9,1260.3 2041.9,1223.2 2086.0,1185.3 2132.4,1146.9 2181.5,1107.9 2233.6,1068.5 2289.0,1029.0 2348.1,989.4 2411.1,949.9  A 1064.250,1064.250 0.00 0,0 2409.2,946.8 L 2409.2,946.8 2346.3,986.4 2287.4,1026.2 2232.1,1066.0 2180.2,1105.5 2131.2,1144.7 2084.9,1183.3 2040.9,1221.3 1999.1,1258.5 1959.0,1295.0 1920.5,1330.5 1883.3,1365.1 1847.1,1398.7 1811.8,1431.2 1777.0,1462.7 1742.6,1493.2 1708.5,1522.7 1674.3,1551.2 1640.0,1578.8 1605.4,1605.6 1570.4,1631.6 1534.7,1656.9 1498.3,1681.7 1461.1,1706.1 1422.9,1730.2 1383.8,1754.2 1343.5,1778.3 1302.1,1802.6 1259.4,1827.5 1215.5,1853.0 1170.3,1879.5 1123.8,1907.2 1075.9,1936.4 1026.8,1967.4 976.4,2000.5 924.7,2036.0 871.7,2074.2 817.6,2115.5 762.4,2160.2 706.2,2208.8  Z" style="stroke-width: 2.0;  stroke: rgb(82,82,82); fill: rgb(255,255,0); opacity: 0.667;" />
<path d="M 706.169,2208.844 A 1064.250,1064.250 0.00 0,1 703.7,2206.1 L 703.7,2206.1 759.6,2157.9 813.7,2114.0 865.9,2074.2 916.3,2038.0 965.1,2005.2 1012.4,1975.4 1058.1,1948.5 1102.5,1924.1 1145.7,1902.1 1187.7,1882.1 1228.6,1864.1 1268.7,1847.8 1307.9,1833.0 1346.4,1819.6 1384.3,1807.4 1421.8,1796.5 1459.0,1786.6 1496.0,1777.6 1532.9,1769.6 1569.9,1762.4 1607.2,1756.1 1644.9,1750.6 1683.1,1746.0 1721.9,1742.2 1761.7,1739.3 1802.4,1737.4 1844.3,1736.5 1887.5,1736.7 1932.2,1738.2 1978.6,1741.1 2026.9,1745.5 2077.2,1751.5 2129.7,1759.4 2184.6,1769.4 2242.1,1781.7 2302.4,1796.5 2365.7,1814.0 2432.2,1834.5 2502.1,1858.4  A 1064.250,1064.250 0.00 0,0 2503.3,1854.9 L 2503.3,1854.9 2433.4,1831.3 2366.8,1811.0 2303.5,1793.6 2243.1,1779.1 2185.6,1767.0 2130.6,1757.2 2078.1,1749.5 2027.7,1743.6 1979.5,1739.4 1933.1,1736.7 1888.3,1735.4 1845.1,1735.3 1803.2,1736.3 1762.5,1738.4 1722.8,1741.4 1683.9,1745.3 1645.7,1750.1 1608.1,1755.7 1570.9,1762.2 1533.9,1769.5 1496.9,1777.6 1460.0,1786.7 1422.8,1796.8 1385.4,1807.9 1347.5,1820.1 1309.0,1833.6 1269.9,1848.6 1229.9,1865.0 1189.0,1883.2 1147.1,1903.3 1104.0,1925.5 1059.7,1950.1 1014.0,1977.1 966.9,2007.0 918.2,2040.0 867.9,2076.4 815.8,2116.4 761.9,2160.5 706.2,2208.8  Z" style="stroke-width: 2.0;  stroke: rgb(82,82,82); fill: rgb(204,255,0); opacity: 0.667;" />
<path d="M 2559.466,1600.795 A 1064.250,1064.250 0.00 0,1 2559.1,1604.2 L 2559.1,1604.2 2486.3,1597.0 2419.0,1590.3 2356.9,1584.1 2299.9,1578.3 2247.6,1572.9 2199.8,1568.0 2156.4,1563.4 2117.1,1559.2 2081.7,1555.4 2050.0,1551.8 2022.0,1548.6 1997.4,1545.7 1976.2,1543.1 1958.2,1540.7 1943.4,1538.6 1931.6,1536.8 1922.9,1535.2 1917.1,1533.9 1914.2,1532.8 1914.3,1531.9 1917.3,1531.2 1923.2,1530.8 1932.1,1530.6 1944.0,1530.6 1959.0,1530.8 1977.1,1531.3 1998.5,1532.0 2023.2,1532.9 2051.4,1534.1 2083.2,1535.5 2118.8,1537.2 2158.3,1539.1 2201.9,1541.4 2249.9,1543.9 2302.4,1546.7 2359.6,1549.8 2421.9,1553.3 2489.4,1557.1 2562.5,1561.3  A 1064.250,1064.250 0.00 0,0 2562.7,1557.9 L 2562.7,1557.9 2489.6,1554.0 2422.0,1550.4 2359.8,1547.1 2302.5,1544.1 2250.0,1541.5 2202.1,1539.1 2158.4,1537.0 2118.9,1535.2 2083.3,1533.7 2051.5,1532.3 2023.3,1531.2 1998.6,1530.4 1977.2,1529.8 1959.1,1529.4 1944.1,1529.2 1932.2,1529.2 1923.3,1529.4 1917.4,1529.9 1914.4,1530.6 1914.3,1531.4 1917.2,1532.5 1923.0,1533.9 1931.7,1535.4 1943.5,1537.2 1958.3,1539.3 1976.3,1541.6 1997.6,1544.1 2022.1,1546.9 2050.2,1550.1 2081.8,1553.5 2117.3,1557.2 2156.6,1561.3 2200.1,1565.8 2247.8,1570.5 2300.1,1575.7 2357.2,1581.3 2419.3,1587.4 2486.6,1593.8 2559.5,1600.8  Z" style="stroke-width: 2.0;  stroke: rgb(82,82,82); fill: rgb(0,255,0); opacity: 0.667;" />
<path d="M 2558.105,1614.205 A 1064.250,1064.250 0.00 0,1 2557.7,1617.6 L 2557.7,1617.6 2485.0,1609.5 2417.8,1601.9 2355.8,1594.8 2298.9,1588.3 2246.6,1582.2 2199.0,1576.6 2155.6,1571.4 2116.3,1566.6 2081.0,1562.1 2049.4,1558.1 2021.4,1554.4 1996.9,1551.0 1975.7,1547.9 1957.8,1545.2 1943.0,1542.7 1931.2,1540.5 1922.5,1538.6 1916.8,1536.9 1914.0,1535.5 1914.1,1534.4 1917.1,1533.4 1923.0,1532.8 1931.9,1532.3 1943.9,1532.1 1958.9,1532.2 1977.0,1532.5 1998.4,1533.0 2023.1,1533.8 2051.3,1534.8 2083.2,1536.1 2118.7,1537.6 2158.3,1539.5 2201.9,1541.6 2249.9,1544.1 2302.4,1546.8 2359.6,1549.9 2421.9,1553.3 2489.4,1557.1 2562.5,1561.3  A 1064.250,1064.250 0.00 0,0 2562.7,1557.9 L 2562.7,1557.9 2489.6,1554.0 2422.0,1550.4 2359.8,1547.2 2302.5,1544.3 2250.0,1541.7 2202.0,1539.4 2158.4,1537.4 2118.9,1535.7 2083.3,1534.2 2051.4,1533.0 2023.2,1532.1 1998.5,1531.4 1977.1,1530.9 1959.0,1530.7 1944.0,1530.7 1932.0,1531.0 1923.1,1531.4 1917.2,1532.1 1914.2,1533.0 1914.1,1534.2 1916.9,1535.6 1922.7,1537.2 1931.4,1539.1 1943.1,1541.3 1957.9,1543.7 1975.8,1546.4 1997.0,1549.4 2021.6,1552.7 2049.6,1556.3 2081.2,1560.3 2116.5,1564.6 2155.8,1569.3 2199.2,1574.3 2246.9,1579.8 2299.1,1585.7 2356.1,1592.1 2418.1,1599.0 2485.3,1606.3 2558.1,1614.2  Z" style="stroke-width: 2.0;  stroke: rgb(82,82,82); fill: rgb(53,128,0); opacity: 0.667;" />
<path d="M 2558.105,1614.205 A 1064.250,1064.250 0.00 0,1 2557.7,1617.6 L 2557.7,1617.6 2485.0,1609.5 2417.8,1602.0 2355.8,1595.1 2298.8,1588.7 2246.6,1582.8 2198.9,1577.4 2155.5,1572.5 2116.2,1568.0 2080.8,1564.0 2049.2,1560.3 2021.2,1557.1 1996.6,1554.2 1975.4,1551.7 1957.4,1549.5 1942.5,1547.6 1930.8,1546.1 1922.0,1544.9 1916.2,1544.0 1913.3,1543.4 1913.3,1543.2 1916.3,1543.2 1922.1,1543.5 1931.0,1544.2 1942.8,1545.1 1957.7,1546.4 1975.8,1548.0 1997.0,1549.9 2021.7,1552.2 2049.8,1554.8 2081.4,1557.8 2116.9,1561.1 2156.3,1564.9 2199.7,1569.1 2247.5,1573.7 2299.9,1578.8 2356.9,1584.4 2419.0,1590.4 2486.3,1597.0 2559.1,1604.2  A 1064.250,1064.250 0.00 0,0 2559.5,1600.8 L 2559.5,1600.8 2486.6,1593.9 2419.3,1587.5 2357.2,1581.6 2300.1,1576.2 2247.8,1571.3 2200.0,1566.9 2156.5,1562.8 2117.1,1559.2 2081.6,1555.9 2049.9,1553.0 2021.8,1550.5 1997.2,1548.3 1975.9,1546.5 1957.9,1544.9 1943.0,1543.7 1931.1,1542.8 1922.3,1542.2 1916.4,1541.9 1913.5,1541.8 1913.4,1542.1 1916.3,1542.7 1922.1,1543.6 1930.9,1544.7 1942.7,1546.2 1957.5,1548.0 1975.5,1550.1 1996.8,1552.6 2021.3,1555.4 2049.4,1558.6 2081.0,1562.1 2116.4,1566.1 2155.7,1570.4 2199.1,1575.2 2246.8,1580.4 2299.1,1586.1 2356.1,1592.3 2418.1,1599.1 2485.3,1606.3 2558.1,1614.2  Z" style="stroke-width: 2.0;  stroke: rgb(82,82,82); fill: rgb(0,0,204); opacity: 0.667;" />
<path d="M 2251.845,746.769 A 1064.250,1064.250 0.00 0,1 2258.5,753.5 L 2258.5,753.5 2205.9,804.5 2156.5,851.2 2110.2,893.7 2066.7,932.3 2025.9,967.1 1987.6,998.3 1951.7,1026.2 1918.1,1050.8 1886.7,1072.4 1857.2,1091.0 1829.6,1106.9 1803.7,1120.0 1779.5,1130.5 1756.9,1138.4 1735.7,1143.9 1715.9,1146.9 1697.3,1147.5 1680.0,1145.8 1663.8,1141.6 1648.7,1135.1 1634.6,1126.1 1621.4,1114.7 1609.1,1100.8 1597.8,1084.3 1587.2,1065.1 1577.5,1043.2 1568.6,1018.4 1560.4,990.6 1553.0,959.6 1546.4,925.4 1540.5,887.6 1535.4,846.3 1531.1,801.1 1527.6,751.8 1525.0,698.2 1523.3,640.1 1522.4,577.2 1522.6,509.3 1523.8,436.0  A 1064.250,1064.250 0.00 0,0 1514.3,435.8 L 1514.3,435.8 1513.8,509.1 1514.3,577.1 1515.7,640.0 1517.9,698.0 1521.0,751.6 1524.9,800.8 1529.6,846.0 1535.1,887.3 1541.3,925.0 1548.2,959.2 1555.9,990.0 1564.3,1017.8 1573.5,1042.5 1583.4,1064.4 1594.1,1083.4 1605.6,1099.8 1618.0,1113.7 1631.2,1125.0 1645.4,1133.8 1660.6,1140.2 1676.9,1144.2 1694.2,1145.8 1712.7,1145.0 1732.5,1141.8 1753.7,1136.2 1776.2,1128.0 1800.3,1117.3 1826.1,1103.9 1853.5,1087.9 1882.9,1069.0 1914.1,1047.1 1947.5,1022.2 1983.2,994.0 2021.1,962.4 2061.6,927.3 2104.8,888.3 2150.8,845.4 2199.7,798.3 2251.8,746.8  Z" style="stroke-width: 2.0;  stroke: rgb(82,82,82); fill: rgb(102,153,255); opacity: 0.667;" />
</g>
<defs>
<pattern id="hline-sparse" width="10" height="10" patternTransform="rotate(0 0 0)" patternUnits="userSpaceOnUse"><line x1="0" y1="0" x2="10" y2="0" style="stroke:black;stroke-width:2" /></pattern>
<pattern id="checker" width="10" height="10" patternTransform="rotate(45 0 0)" patternUnits="userSpaceOnUse"><line x1="0" y1="0" x2="10" y2="0" style="stroke:black;stroke-width:2" /><line x1="0" y1="0" x2="0" y2="10" style="stroke:black;stroke-width:2" /></pattern>
<pattern id="checker" width="10" height="10" patternTransform="rotate(45 0 0)" patternUnits="userSpaceOnUse"><line x1="0" y1="0" x2="10" y2="0" style="stroke:black;stroke-width:5" /><line x1="0" y1="0" x2="0" y2="10" style="stroke:black;stroke-width:4" /></pattern>
<pattern id="hline" width="10" height="10" patternTransform="rotate(0 0 0)" patternUnits="userSpaceOnUse"><line x1="0" y1="0" x2="10" y2="0" style="stroke:black;stroke-width:5" /></pattern>
<pattern id="vline-sparse" width="10" height="10" patternTransform="rotate(0 0 0)" patternUnits="userSpaceOnUse"><line x1="0" y1="0" x2="0" y2="10" style="stroke:black;stroke-width:2" /></pattern>
<pattern id="vline" width="10" height="10" patternTransform="rotate(0 0 0)" patternUnits="userSpaceOnUse"><line x1="0" y1="0" x2="0" y2="10" style="stroke:black;stroke-width:5" /></pattern>
</defs>
</svg>
