<?xml version="1.0" encoding="utf-8" standalone="no"?>
<!DOCTYPE svg PUBLIC "-//W3C//DTD SVG 1.1//EN" "http://www.w3.org/Graphics/SVG/1.1/DTD/svg11.dtd">
<svg width="3000px" height="3000px" version="1.1" xmlns="http://www.w3.org/2000/svg" xmlns:xlink="http://www.w3.org/1999/xlink">
<g id="ideograms">
<path d="M1500.000,425.000 A1075.000,1075.000 40.000 0,1 1532.913,425.504 L1534.443,375.527 A1125.000,1125.000 0.000 0,0 1500.000,375.000 Z" style="stroke-linecap:round;fill:rgb(116,196,118);fill-opacity:0.33;" />
<text x="1528.1" y="285.3" font-size="18.2px" font-family="CMUBright-Roman" style="text-anchor:start;fill:rgb(0,0,0);" transform="rotate(270.9,1528.1,285.3)" >R<tspan baseline-shift="-40%" font-size="90%">s</tspan>caffold<tspan baseline-shift="-40%" font-size="90%">2</tspan>5</text>
<line x1='1500.0' y1='375.0' x2='1500.0' y2='355.0' style="stroke-width:4.0;stroke:rgb(0,0,0);stroke-linecap:round;fill:none;" />
<text x="1506.5" y="345.0" font-size="18.2px" font-family="CMUBright-Roman" style="text-anchor:start;fill:rgb(0,0,0);" transform="rotate(270.0,1506.5,345.0)" >0</text>
<g id="highlighttrack_0">
<path d="M1515.850,425.117 A1075.000,1075.000 40.000 0,1 1528.583,425.380 L1529.912,375.398 A1125.000,1125.000 0.000 0,0 1516.587,375.122 Z" style="stroke-width:4.0;stroke:rgb(0,0,0);stroke-linecap:round;fill:rgb(116,196,118);" />
</g>
<path d="M1598.357,429.509 A1075.000,1075.000 40.000 0,1 1602.390,429.887 L1607.152,380.115 A1125.000,1125.000 0.000 0,0 1602.932,379.719 Z" style="stroke-linecap:round;fill:rgb(116,196,118);fill-opacity:0.33;" />
<text x="1622.9" y="291.2" font-size="18.2px" font-family="CMUBright-Roman" style="text-anchor:start;fill:rgb(0,0,0);" transform="rotate(275.4,1622.9,291.2)" >R<tspan baseline-shift="-40%" font-size="90%">s</tspan>caffold<tspan baseline-shift="-40%" font-size="90%">2</tspan>9</text>
<line x1='1602.9' y1='379.7' x2='1604.8' y2='359.8' style="stroke-width:4.0;stroke:rgb(0,0,0);stroke-linecap:round;fill:none;" />
<text x="1612.1" y="350.5" font-size="18.2px" font-family="CMUBright-Roman" style="text-anchor:start;fill:rgb(0,0,0);" transform="rotate(275.2,1612.1,350.5)" >0</text>
<g id="highlighttrack_0">
<path d="M1598.603,429.532 A1075.000,1075.000 40.000 0,1 1602.327,429.881 L1607.087,380.108 A1125.000,1125.000 0.000 0,0 1603.190,379.742 Z" style="stroke-width:4.0;stroke:rgb(0,0,0);stroke-linecap:round;fill:rgb(116,196,118);" />
</g>
<path d="M1667.438,438.120 A1075.000,1075.000 40.000 1,1 1434.464,427.000 L1431.416,377.093 A1125.000,1125.000 0.000 1,0 1675.226,388.730 Z" style="stroke-linecap:round;fill:rgb(116,196,118);fill-opacity:0.33;" />
<text x="1451.6" y="2714.0" font-size="18.2px" font-family="CMUBright-Roman" style="text-anchor:end;fill:rgb(0,0,0);" transform="rotate(-87.3,1451.6,2714.0)" >NZ<tspan baseline-shift="-40%" font-size="90%">C</tspan>P020472.1</text>
<line x1='1675.2' y1='388.7' x2='1678.3' y2='369.0' style="stroke-width:4.0;stroke:rgb(0,0,0);stroke-linecap:round;fill:none;" />
<text x="1686.3" y="360.1" font-size="18.2px" font-family="CMUBright-Roman" style="text-anchor:start;fill:rgb(0,0,0);" transform="rotate(279.0,1686.3,360.1)" >0</text>
<line x1='1742.6' y1='401.5' x2='1746.9' y2='381.9' style="stroke-width:4.0;stroke:rgb(0,0,0);stroke-linecap:round;fill:none;" />
<text x="1755.4" y="373.6" font-size="18.2px" font-family="CMUBright-Roman" style="text-anchor:start;fill:rgb(0,0,0);" transform="rotate(282.5,1755.4,373.6)" >50</text>
<line x1='1809.1' y1='418.3' x2='1814.6' y2='399.1' style="stroke-width:4.0;stroke:rgb(0,0,0);stroke-linecap:round;fill:none;" />
<text x="1823.6" y="391.2" font-size="18.2px" font-family="CMUBright-Roman" style="text-anchor:start;fill:rgb(0,0,0);" transform="rotate(285.9,1823.6,391.2)" >100</text>
<line x1='1874.4' y1='439.1' x2='1881.0' y2='420.3' style="stroke-width:4.0;stroke:rgb(0,0,0);stroke-linecap:round;fill:none;" />
<text x="1890.5" y="413.0" font-size="18.2px" font-family="CMUBright-Roman" style="text-anchor:start;fill:rgb(0,0,0);" transform="rotate(289.4,1890.5,413.0)" >150</text>
<line x1='1938.3' y1='463.9' x2='1946.1' y2='445.5' style="stroke-width:4.0;stroke:rgb(0,0,0);stroke-linecap:round;fill:none;" />
<text x="1956.0" y="438.8" font-size="18.2px" font-family="CMUBright-Roman" style="text-anchor:start;fill:rgb(0,0,0);" transform="rotate(292.9,1956.0,438.8)" >200</text>
<line x1='2000.6' y1='492.5' x2='2009.5' y2='474.6' style="stroke-width:4.0;stroke:rgb(0,0,0);stroke-linecap:round;fill:none;" />
<text x="2019.8" y="468.6" font-size="18.2px" font-family="CMUBright-Roman" style="text-anchor:start;fill:rgb(0,0,0);" transform="rotate(296.4,2019.8,468.6)" >250</text>
<line x1='2061.1' y1='524.9' x2='2071.0' y2='507.6' style="stroke-width:4.0;stroke:rgb(0,0,0);stroke-linecap:round;fill:none;" />
<text x="2081.6" y="502.1" font-size="18.2px" font-family="CMUBright-Roman" style="text-anchor:start;fill:rgb(0,0,0);" transform="rotate(299.9,2081.6,502.1)" >300</text>
<line x1='2119.4' y1='560.9' x2='2130.4' y2='544.2' style="stroke-width:4.0;stroke:rgb(0,0,0);stroke-linecap:round;fill:none;" />
<text x="2141.4" y="539.4" font-size="18.2px" font-family="CMUBright-Roman" style="text-anchor:start;fill:rgb(0,0,0);" transform="rotate(303.4,2141.4,539.4)" >350</text>
<line x1='2175.5' y1='600.4' x2='2187.5' y2='584.4' style="stroke-width:4.0;stroke:rgb(0,0,0);stroke-linecap:round;fill:none;" />
<text x="2198.7" y="580.3" font-size="18.2px" font-family="CMUBright-Roman" style="text-anchor:start;fill:rgb(0,0,0);" transform="rotate(306.9,2198.7,580.3)" >400</text>
<line x1='2229.0' y1='643.2' x2='2242.0' y2='627.9' style="stroke-width:4.0;stroke:rgb(0,0,0);stroke-linecap:round;fill:none;" />
<text x="2253.4" y="624.6" font-size="18.2px" font-family="CMUBright-Roman" style="text-anchor:start;fill:rgb(0,0,0);" transform="rotate(310.4,2253.4,624.6)" >450</text>
<line x1='2279.9' y1='689.2' x2='2293.7' y2='674.8' style="stroke-width:4.0;stroke:rgb(0,0,0);stroke-linecap:round;fill:none;" />
<text x="2305.3" y="672.1" font-size="18.2px" font-family="CMUBright-Roman" style="text-anchor:start;fill:rgb(0,0,0);" transform="rotate(313.9,2305.3,672.1)" >500</text>
<line x1='2327.8' y1='738.2' x2='2342.5' y2='724.6' style="stroke-width:4.0;stroke:rgb(0,0,0);stroke-linecap:round;fill:none;" />
<text x="2354.3" y="722.7" font-size="18.2px" font-family="CMUBright-Roman" style="text-anchor:start;fill:rgb(0,0,0);" transform="rotate(317.4,2354.3,722.7)" >550</text>
<line x1='2372.7' y1='790.0' x2='2388.2' y2='777.4' style="stroke-width:4.0;stroke:rgb(0,0,0);stroke-linecap:round;fill:none;" />
<text x="2400.0" y="776.2" font-size="18.2px" font-family="CMUBright-Roman" style="text-anchor:start;fill:rgb(0,0,0);" transform="rotate(320.9,2400.0,776.2)" >600</text>
<line x1='2414.3' y1='844.5' x2='2430.6' y2='832.9' style="stroke-width:4.0;stroke:rgb(0,0,0);stroke-linecap:round;fill:none;" />
<text x="2442.5" y="832.3" font-size="18.2px" font-family="CMUBright-Roman" style="text-anchor:start;fill:rgb(0,0,0);" transform="rotate(324.4,2442.5,832.3)" >650</text>
<line x1='2452.5' y1='901.4' x2='2469.5' y2='890.8' style="stroke-width:4.0;stroke:rgb(0,0,0);stroke-linecap:round;fill:none;" />
<text x="2481.4" y="891.0" font-size="18.2px" font-family="CMUBright-Roman" style="text-anchor:start;fill:rgb(0,0,0);" transform="rotate(327.9,2481.4,891.0)" >700</text>
<line x1='2487.2' y1='960.6' x2='2504.8' y2='951.0' style="stroke-width:4.0;stroke:rgb(0,0,0);stroke-linecap:round;fill:none;" />
<text x="2516.7" y="951.9" font-size="18.2px" font-family="CMUBright-Roman" style="text-anchor:start;fill:rgb(0,0,0);" transform="rotate(331.3,2516.7,951.9)" >750</text>
<line x1='2518.3' y1='1021.7' x2='2536.4' y2='1013.2' style="stroke-width:4.0;stroke:rgb(0,0,0);stroke-linecap:round;fill:none;" />
<text x="2548.2" y="1014.8" font-size="18.2px" font-family="CMUBright-Roman" style="text-anchor:start;fill:rgb(0,0,0);" transform="rotate(334.8,2548.2,1014.8)" >800</text>
<line x1='2545.5' y1='1084.6' x2='2564.1' y2='1077.2' style="stroke-width:4.0;stroke:rgb(0,0,0);stroke-linecap:round;fill:none;" />
<text x="2575.8" y="1079.6" font-size="18.2px" font-family="CMUBright-Roman" style="text-anchor:start;fill:rgb(0,0,0);" transform="rotate(338.3,2575.8,1079.6)" >850</text>
<line x1='2568.9' y1='1149.1' x2='2587.9' y2='1142.8' style="stroke-width:4.0;stroke:rgb(0,0,0);stroke-linecap:round;fill:none;" />
<text x="2599.4" y="1145.9" font-size="18.2px" font-family="CMUBright-Roman" style="text-anchor:start;fill:rgb(0,0,0);" transform="rotate(341.8,2599.4,1145.9)" >900</text>
<line x1='2588.3' y1='1214.8' x2='2607.6' y2='1209.8' style="stroke-width:4.0;stroke:rgb(0,0,0);stroke-linecap:round;fill:none;" />
<text x="2618.9" y="1213.5" font-size="18.2px" font-family="CMUBright-Roman" style="text-anchor:start;fill:rgb(0,0,0);" transform="rotate(345.3,2618.9,1213.5)" >950</text>
<line x1='2603.6' y1='1281.7' x2='2623.2' y2='1277.8' style="stroke-width:4.0;stroke:rgb(0,0,0);stroke-linecap:round;fill:none;" />
<text x="2634.3" y="1282.2" font-size="18.2px" font-family="CMUBright-Roman" style="text-anchor:start;fill:rgb(0,0,0);" transform="rotate(348.8,2634.3,1282.2)" >1000</text>
<line x1='2614.9' y1='1349.3' x2='2634.7' y2='1346.6' style="stroke-width:4.0;stroke:rgb(0,0,0);stroke-linecap:round;fill:none;" />
<text x="2645.4" y="1351.7" font-size="18.2px" font-family="CMUBright-Roman" style="text-anchor:start;fill:rgb(0,0,0);" transform="rotate(352.3,2645.4,1351.7)" >1050</text>
<line x1='2622.0' y1='1417.5' x2='2641.9' y2='1416.0' style="stroke-width:4.0;stroke:rgb(0,0,0);stroke-linecap:round;fill:none;" />
<text x="2652.3" y="1421.8" font-size="18.2px" font-family="CMUBright-Roman" style="text-anchor:start;fill:rgb(0,0,0);" transform="rotate(355.8,2652.3,1421.8)" >1100</text>
<line x1='2624.9' y1='1486.0' x2='2644.9' y2='1485.7' style="stroke-width:4.0;stroke:rgb(0,0,0);stroke-linecap:round;fill:none;" />
<text x="2655.0" y="1492.1" font-size="18.2px" font-family="CMUBright-Roman" style="text-anchor:start;fill:rgb(0,0,0);" transform="rotate(359.3,2655.0,1492.1)" >1150</text>
<line x1='2623.7' y1='1554.5' x2='2643.7' y2='1555.5' style="stroke-width:4.0;stroke:rgb(0,0,0);stroke-linecap:round;fill:none;" />
<text x="2653.3" y="1562.5" font-size="18.2px" font-family="CMUBright-Roman" style="text-anchor:start;fill:rgb(0,0,0);" transform="rotate(2.8,2653.3,1562.5)" >1200</text>
<line x1='2618.3' y1='1622.9' x2='2638.1' y2='1625.1' style="stroke-width:4.0;stroke:rgb(0,0,0);stroke-linecap:round;fill:none;" />
<text x="2647.4" y="1632.6" font-size="18.2px" font-family="CMUBright-Roman" style="text-anchor:start;fill:rgb(0,0,0);" transform="rotate(6.3,2647.4,1632.6)" >1250</text>
<line x1='2608.7' y1='1690.8' x2='2628.4' y2='1694.2' style="stroke-width:4.0;stroke:rgb(0,0,0);stroke-linecap:round;fill:none;" />
<text x="2637.1" y="1702.3" font-size="18.2px" font-family="CMUBright-Roman" style="text-anchor:start;fill:rgb(0,0,0);" transform="rotate(9.8,2637.1,1702.3)" >1300</text>
<line x1='2595.0' y1='1758.0' x2='2614.5' y2='1762.6' style="stroke-width:4.0;stroke:rgb(0,0,0);stroke-linecap:round;fill:none;" />
<text x="2622.7" y="1771.2" font-size="18.2px" font-family="CMUBright-Roman" style="text-anchor:start;fill:rgb(0,0,0);" transform="rotate(13.3,2622.7,1771.2)" >1350</text>
<line x1='2577.3' y1='1824.2' x2='2596.4' y2='1830.0' style="stroke-width:4.0;stroke:rgb(0,0,0);stroke-linecap:round;fill:none;" />
<text x="2604.1" y="1839.1" font-size="18.2px" font-family="CMUBright-Roman" style="text-anchor:start;fill:rgb(0,0,0);" transform="rotate(16.7,2604.1,1839.1)" >1400</text>
<line x1='2555.5' y1='1889.2' x2='2574.3' y2='1896.1' style="stroke-width:4.0;stroke:rgb(0,0,0);stroke-linecap:round;fill:none;" />
<text x="2581.4" y="1905.7" font-size="18.2px" font-family="CMUBright-Roman" style="text-anchor:start;fill:rgb(0,0,0);" transform="rotate(20.2,2581.4,1905.7)" >1450</text>
<line x1='2529.9' y1='1952.8' x2='2548.2' y2='1960.8' style="stroke-width:4.0;stroke:rgb(0,0,0);stroke-linecap:round;fill:none;" />
<text x="2554.7" y="1970.8" font-size="18.2px" font-family="CMUBright-Roman" style="text-anchor:start;fill:rgb(0,0,0);" transform="rotate(23.7,2554.7,1970.8)" >1500</text>
<line x1='2500.4' y1='2014.7' x2='2518.1' y2='2023.8' style="stroke-width:4.0;stroke:rgb(0,0,0);stroke-linecap:round;fill:none;" />
<text x="2524.0" y="2034.2" font-size="18.2px" font-family="CMUBright-Roman" style="text-anchor:start;fill:rgb(0,0,0);" transform="rotate(27.2,2524.0,2034.2)" >1550</text>
<line x1='2467.1' y1='2074.7' x2='2484.3' y2='2084.9' style="stroke-width:4.0;stroke:rgb(0,0,0);stroke-linecap:round;fill:none;" />
<text x="2489.6" y="2095.6" font-size="18.2px" font-family="CMUBright-Roman" style="text-anchor:start;fill:rgb(0,0,0);" transform="rotate(30.7,2489.6,2095.6)" >1600</text>
<line x1='2430.3' y1='2132.5' x2='2446.9' y2='2143.8' style="stroke-width:4.0;stroke:rgb(0,0,0);stroke-linecap:round;fill:none;" />
<text x="2451.5" y="2154.8" font-size="18.2px" font-family="CMUBright-Roman" style="text-anchor:start;fill:rgb(0,0,0);" transform="rotate(34.2,2451.5,2154.8)" >1650</text>
<line x1='2390.1' y1='2188.0' x2='2405.9' y2='2200.3' style="stroke-width:4.0;stroke:rgb(0,0,0);stroke-linecap:round;fill:none;" />
<text x="2409.8" y="2211.5" font-size="18.2px" font-family="CMUBright-Roman" style="text-anchor:start;fill:rgb(0,0,0);" transform="rotate(37.7,2409.8,2211.5)" >1700</text>
<line x1='2346.5' y1='2241.0' x2='2361.6' y2='2254.1' style="stroke-width:4.0;stroke:rgb(0,0,0);stroke-linecap:round;fill:none;" />
<text x="2364.8" y="2265.6" font-size="18.2px" font-family="CMUBright-Roman" style="text-anchor:start;fill:rgb(0,0,0);" transform="rotate(41.2,2364.8,2265.6)" >1750</text>
<line x1='2299.8' y1='2291.2' x2='2314.0' y2='2305.2' style="stroke-width:4.0;stroke:rgb(0,0,0);stroke-linecap:round;fill:none;" />
<text x="2316.6" y="2316.9" font-size="18.2px" font-family="CMUBright-Roman" style="text-anchor:start;fill:rgb(0,0,0);" transform="rotate(44.7,2316.6,2316.9)" >1800</text>
<line x1='2250.1' y1='2338.4' x2='2263.5' y2='2353.3' style="stroke-width:4.0;stroke:rgb(0,0,0);stroke-linecap:round;fill:none;" />
<text x="2265.3" y="2365.1" font-size="18.2px" font-family="CMUBright-Roman" style="text-anchor:start;fill:rgb(0,0,0);" transform="rotate(48.2,2265.3,2365.1)" >1850</text>
<line x1='2197.7' y1='2382.5' x2='2210.1' y2='2398.2' style="stroke-width:4.0;stroke:rgb(0,0,0);stroke-linecap:round;fill:none;" />
<text x="2211.2" y="2410.1" font-size="18.2px" font-family="CMUBright-Roman" style="text-anchor:start;fill:rgb(0,0,0);" transform="rotate(51.7,2211.2,2410.1)" >1900</text>
<line x1='2142.6' y1='2423.4' x2='2154.0' y2='2439.8' style="stroke-width:4.0;stroke:rgb(0,0,0);stroke-linecap:round;fill:none;" />
<text x="2154.4" y="2451.7" font-size="18.2px" font-family="CMUBright-Roman" style="text-anchor:start;fill:rgb(0,0,0);" transform="rotate(55.2,2154.4,2451.7)" >1950</text>
<line x1='2085.2' y1='2460.8' x2='2095.6' y2='2477.9' style="stroke-width:4.0;stroke:rgb(0,0,0);stroke-linecap:round;fill:none;" />
<text x="2095.2" y="2489.8" font-size="18.2px" font-family="CMUBright-Roman" style="text-anchor:start;fill:rgb(0,0,0);" transform="rotate(58.7,2095.2,2489.8)" >2000</text>
<line x1='2025.5' y1='2494.7' x2='2034.9' y2='2512.4' style="stroke-width:4.0;stroke:rgb(0,0,0);stroke-linecap:round;fill:none;" />
<text x="2033.8" y="2524.2" font-size="18.2px" font-family="CMUBright-Roman" style="text-anchor:start;fill:rgb(0,0,0);" transform="rotate(62.2,2033.8,2524.2)" >2050</text>
<line x1='1964.0' y1='2524.9' x2='1972.2' y2='2543.1' style="stroke-width:4.0;stroke:rgb(0,0,0);stroke-linecap:round;fill:none;" />
<text x="1970.4" y="2554.9" font-size="18.2px" font-family="CMUBright-Roman" style="text-anchor:start;fill:rgb(0,0,0);" transform="rotate(65.6,1970.4,2554.9)" >2100</text>
<line x1='1900.7' y1='2551.2' x2='1907.8' y2='2569.9' style="stroke-width:4.0;stroke:rgb(0,0,0);stroke-linecap:round;fill:none;" />
<text x="1905.3" y="2581.6" font-size="18.2px" font-family="CMUBright-Roman" style="text-anchor:start;fill:rgb(0,0,0);" transform="rotate(69.1,1905.3,2581.6)" >2150</text>
<line x1='1835.9' y1='2573.7' x2='1841.9' y2='2592.8' style="stroke-width:4.0;stroke:rgb(0,0,0);stroke-linecap:round;fill:none;" />
<text x="1838.7" y="2604.2" font-size="18.2px" font-family="CMUBright-Roman" style="text-anchor:start;fill:rgb(0,0,0);" transform="rotate(72.6,1838.7,2604.2)" >2200</text>
<line x1='1769.9' y1='2592.2' x2='1774.7' y2='2611.6' style="stroke-width:4.0;stroke:rgb(0,0,0);stroke-linecap:round;fill:none;" />
<text x="1770.8" y="2622.8" font-size="18.2px" font-family="CMUBright-Roman" style="text-anchor:start;fill:rgb(0,0,0);" transform="rotate(76.1,1770.8,2622.8)" >2250</text>
<line x1='1702.8' y1='2606.6' x2='1706.4' y2='2626.2' style="stroke-width:4.0;stroke:rgb(0,0,0);stroke-linecap:round;fill:none;" />
<text x="1701.9" y="2637.2" font-size="18.2px" font-family="CMUBright-Roman" style="text-anchor:start;fill:rgb(0,0,0);" transform="rotate(79.6,1701.9,2637.2)" >2300</text>
<line x1='1635.1' y1='2616.9' x2='1637.5' y2='2636.7' style="stroke-width:4.0;stroke:rgb(0,0,0);stroke-linecap:round;fill:none;" />
<text x="1632.2" y="2647.4" font-size="18.2px" font-family="CMUBright-Roman" style="text-anchor:start;fill:rgb(0,0,0);" transform="rotate(83.1,1632.2,2647.4)" >2350</text>
<line x1='1566.8' y1='2623.0' x2='1568.0' y2='2643.0' style="stroke-width:4.0;stroke:rgb(0,0,0);stroke-linecap:round;fill:none;" />
<text x="1562.1" y="2653.3" font-size="18.2px" font-family="CMUBright-Roman" style="text-anchor:start;fill:rgb(0,0,0);" transform="rotate(86.6,1562.1,2653.3)" >2400</text>
<line x1='1498.2' y1='2625.0' x2='1498.2' y2='2645.0' style="stroke-width:4.0;stroke:rgb(0,0,0);stroke-linecap:round;fill:none;" />
<text x="1504.7" y="2655.0" font-size="18.2px" font-family="CMUBright-Roman" style="text-anchor:end;fill:rgb(0,0,0);" transform="rotate(-89.9,1504.7,2655.0)" >2450</text>
<line x1='1429.7' y1='2622.8' x2='1428.5' y2='2642.8' style="stroke-width:4.0;stroke:rgb(0,0,0);stroke-linecap:round;fill:none;" />
<text x="1434.3" y="2653.1" font-size="18.2px" font-family="CMUBright-Roman" style="text-anchor:end;fill:rgb(0,0,0);" transform="rotate(-86.4,1434.3,2653.1)" >2500</text>
<line x1='1361.4' y1='2616.4' x2='1359.0' y2='2636.3' style="stroke-width:4.0;stroke:rgb(0,0,0);stroke-linecap:round;fill:none;" />
<text x="1364.2" y="2647.0" font-size="18.2px" font-family="CMUBright-Roman" style="text-anchor:end;fill:rgb(0,0,0);" transform="rotate(-82.9,1364.2,2647.0)" >2550</text>
<line x1='1293.7' y1='2605.9' x2='1290.0' y2='2625.6' style="stroke-width:4.0;stroke:rgb(0,0,0);stroke-linecap:round;fill:none;" />
<text x="1294.6" y="2636.6" font-size="18.2px" font-family="CMUBright-Roman" style="text-anchor:end;fill:rgb(0,0,0);" transform="rotate(-79.4,1294.6,2636.6)" >2600</text>
<line x1='1226.7' y1='2591.3' x2='1221.8' y2='2610.7' style="stroke-width:4.0;stroke:rgb(0,0,0);stroke-linecap:round;fill:none;" />
<text x="1225.7" y="2622.0" font-size="18.2px" font-family="CMUBright-Roman" style="text-anchor:end;fill:rgb(0,0,0);" transform="rotate(-75.9,1225.7,2622.0)" >2650</text>
<line x1='1160.7' y1='2572.6' x2='1154.7' y2='2591.7' style="stroke-width:4.0;stroke:rgb(0,0,0);stroke-linecap:round;fill:none;" />
<text x="1157.9" y="2603.2" font-size="18.2px" font-family="CMUBright-Roman" style="text-anchor:end;fill:rgb(0,0,0);" transform="rotate(-72.4,1157.9,2603.2)" >2700</text>
<line x1='1096.0' y1='2550.0' x2='1088.8' y2='2568.6' style="stroke-width:4.0;stroke:rgb(0,0,0);stroke-linecap:round;fill:none;" />
<text x="1091.3" y="2580.3" font-size="18.2px" font-family="CMUBright-Roman" style="text-anchor:end;fill:rgb(0,0,0);" transform="rotate(-69.0,1091.3,2580.3)" >2750</text>
<line x1='1032.8' y1='2523.4' x2='1024.5' y2='2541.6' style="stroke-width:4.0;stroke:rgb(0,0,0);stroke-linecap:round;fill:none;" />
<text x="1026.3" y="2553.4" font-size="18.2px" font-family="CMUBright-Roman" style="text-anchor:end;fill:rgb(0,0,0);" transform="rotate(-65.5,1026.3,2553.4)" >2800</text>
<line x1='971.3' y1='2493.0' x2='961.9' y2='2510.7' style="stroke-width:4.0;stroke:rgb(0,0,0);stroke-linecap:round;fill:none;" />
<text x="963.0" y="2522.6" font-size="18.2px" font-family="CMUBright-Roman" style="text-anchor:end;fill:rgb(0,0,0);" transform="rotate(-62.0,963.0,2522.6)" >2850</text>
<line x1='911.8' y1='2459.0' x2='901.4' y2='2476.0' style="stroke-width:4.0;stroke:rgb(0,0,0);stroke-linecap:round;fill:none;" />
<text x="901.7" y="2488.0" font-size="18.2px" font-family="CMUBright-Roman" style="text-anchor:end;fill:rgb(0,0,0);" transform="rotate(-58.5,901.7,2488.0)" >2900</text>
<line x1='854.5' y1='2421.4' x2='843.0' y2='2437.8' style="stroke-width:4.0;stroke:rgb(0,0,0);stroke-linecap:round;fill:none;" />
<text x="842.6" y="2449.7" font-size="18.2px" font-family="CMUBright-Roman" style="text-anchor:end;fill:rgb(0,0,0);" transform="rotate(-55.0,842.6,2449.7)" >2950</text>
<line x1='799.6' y1='2380.4' x2='787.1' y2='2396.0' style="stroke-width:4.0;stroke:rgb(0,0,0);stroke-linecap:round;fill:none;" />
<text x="786.0" y="2407.9" font-size="18.2px" font-family="CMUBright-Roman" style="text-anchor:end;fill:rgb(0,0,0);" transform="rotate(-51.5,786.0,2407.9)" >3000</text>
<line x1='747.2' y1='2336.1' x2='733.9' y2='2350.9' style="stroke-width:4.0;stroke:rgb(0,0,0);stroke-linecap:round;fill:none;" />
<text x="732.0" y="2362.7" font-size="18.2px" font-family="CMUBright-Roman" style="text-anchor:end;fill:rgb(0,0,0);" transform="rotate(-48.0,732.0,2362.7)" >3050</text>
<line x1='697.7' y1='2288.6' x2='683.4' y2='2302.7' style="stroke-width:4.0;stroke:rgb(0,0,0);stroke-linecap:round;fill:none;" />
<text x="680.9" y="2314.3" font-size="18.2px" font-family="CMUBright-Roman" style="text-anchor:end;fill:rgb(0,0,0);" transform="rotate(-44.5,680.9,2314.3)" >3100</text>
<line x1='651.2' y1='2238.3' x2='636.1' y2='2251.4' style="stroke-width:4.0;stroke:rgb(0,0,0);stroke-linecap:round;fill:none;" />
<text x="632.8" y="2262.9" font-size="18.2px" font-family="CMUBright-Roman" style="text-anchor:end;fill:rgb(0,0,0);" transform="rotate(-41.0,632.8,2262.9)" >3150</text>
<line x1='607.8' y1='2185.2' x2='591.9' y2='2197.4' style="stroke-width:4.0;stroke:rgb(0,0,0);stroke-linecap:round;fill:none;" />
<text x="587.9" y="2208.6" font-size="18.2px" font-family="CMUBright-Roman" style="text-anchor:end;fill:rgb(0,0,0);" transform="rotate(-37.5,587.9,2208.6)" >3200</text>
<line x1='567.7' y1='2129.6' x2='551.1' y2='2140.8' style="stroke-width:4.0;stroke:rgb(0,0,0);stroke-linecap:round;fill:none;" />
<text x="546.5" y="2151.8" font-size="18.2px" font-family="CMUBright-Roman" style="text-anchor:end;fill:rgb(0,0,0);" transform="rotate(-34.0,546.5,2151.8)" >3250</text>
<line x1='531.1' y1='2071.6' x2='513.8' y2='2081.8' style="stroke-width:4.0;stroke:rgb(0,0,0);stroke-linecap:round;fill:none;" />
<text x="508.5" y="2092.5" font-size="18.2px" font-family="CMUBright-Roman" style="text-anchor:end;fill:rgb(0,0,0);" transform="rotate(-30.5,508.5,2092.5)" >3300</text>
<line x1='498.0' y1='2011.6' x2='480.2' y2='2020.6' style="stroke-width:4.0;stroke:rgb(0,0,0);stroke-linecap:round;fill:none;" />
<text x="474.3" y="2031.0" font-size="18.2px" font-family="CMUBright-Roman" style="text-anchor:end;fill:rgb(0,0,0);" transform="rotate(-27.0,474.3,2031.0)" >3350</text>
<line x1='468.7' y1='1949.6' x2='450.4' y2='1957.6' style="stroke-width:4.0;stroke:rgb(0,0,0);stroke-linecap:round;fill:none;" />
<text x="443.8" y="1967.5" font-size="18.2px" font-family="CMUBright-Roman" style="text-anchor:end;fill:rgb(0,0,0);" transform="rotate(-23.6,443.8,1967.5)" >3400</text>
<line x1='443.3' y1='1885.9' x2='424.5' y2='1892.8' style="stroke-width:4.0;stroke:rgb(0,0,0);stroke-linecap:round;fill:none;" />
<text x="417.3" y="1902.3" font-size="18.2px" font-family="CMUBright-Roman" style="text-anchor:end;fill:rgb(0,0,0);" transform="rotate(-20.1,417.3,1902.3)" >3450</text>
<line x1='421.7' y1='1820.8' x2='402.5' y2='1826.5' style="stroke-width:4.0;stroke:rgb(0,0,0);stroke-linecap:round;fill:none;" />
<text x="394.8" y="1835.6" font-size="18.2px" font-family="CMUBright-Roman" style="text-anchor:end;fill:rgb(0,0,0);" transform="rotate(-16.6,394.8,1835.6)" >3500</text>
<line x1='404.2' y1='1754.5' x2='384.7' y2='1759.1' style="stroke-width:4.0;stroke:rgb(0,0,0);stroke-linecap:round;fill:none;" />
<text x="376.4" y="1767.7" font-size="18.2px" font-family="CMUBright-Roman" style="text-anchor:end;fill:rgb(0,0,0);" transform="rotate(-13.1,376.4,1767.7)" >3550</text>
<line x1='390.7' y1='1687.3' x2='371.0' y2='1690.6' style="stroke-width:4.0;stroke:rgb(0,0,0);stroke-linecap:round;fill:none;" />
<text x="362.2" y="1698.7" font-size="18.2px" font-family="CMUBright-Roman" style="text-anchor:end;fill:rgb(0,0,0);" transform="rotate(-9.6,362.2,1698.7)" >3600</text>
<line x1='381.4' y1='1619.4' x2='361.5' y2='1621.5' style="stroke-width:4.0;stroke:rgb(0,0,0);stroke-linecap:round;fill:none;" />
<text x="352.2" y="1629.0" font-size="18.2px" font-family="CMUBright-Roman" style="text-anchor:end;fill:rgb(0,0,0);" transform="rotate(-6.1,352.2,1629.0)" >3650</text>
<line x1='376.2' y1='1551.0' x2='356.2' y2='1551.9' style="stroke-width:4.0;stroke:rgb(0,0,0);stroke-linecap:round;fill:none;" />
<text x="346.5" y="1558.9" font-size="18.2px" font-family="CMUBright-Roman" style="text-anchor:end;fill:rgb(0,0,0);" transform="rotate(-2.6,346.5,1558.9)" >3700</text>
<line x1='375.1' y1='1482.5' x2='355.1' y2='1482.2' style="stroke-width:4.0;stroke:rgb(0,0,0);stroke-linecap:round;fill:none;" />
<text x="345.1" y="1488.5" font-size="18.2px" font-family="CMUBright-Roman" style="text-anchor:end;fill:rgb(0,0,0);" transform="rotate(0.9,345.1,1488.5)" >3750</text>
<line x1='378.3' y1='1414.0' x2='358.4' y2='1412.4' style="stroke-width:4.0;stroke:rgb(0,0,0);stroke-linecap:round;fill:none;" />
<text x="347.9" y="1418.2" font-size="18.2px" font-family="CMUBright-Roman" style="text-anchor:end;fill:rgb(0,0,0);" transform="rotate(4.4,347.9,1418.2)" >3800</text>
<line x1='385.6' y1='1345.8' x2='365.8' y2='1343.1' style="stroke-width:4.0;stroke:rgb(0,0,0);stroke-linecap:round;fill:none;" />
<text x="355.0" y="1348.1" font-size="18.2px" font-family="CMUBright-Roman" style="text-anchor:end;fill:rgb(0,0,0);" transform="rotate(7.9,355.0,1348.1)" >3850</text>
<line x1='397.1' y1='1278.2' x2='377.5' y2='1274.3' style="stroke-width:4.0;stroke:rgb(0,0,0);stroke-linecap:round;fill:none;" />
<text x="366.4" y="1278.7" font-size="18.2px" font-family="CMUBright-Roman" style="text-anchor:end;fill:rgb(0,0,0);" transform="rotate(11.4,366.4,1278.7)" >3900</text>
<line x1='412.6' y1='1211.4' x2='393.3' y2='1206.3' style="stroke-width:4.0;stroke:rgb(0,0,0);stroke-linecap:round;fill:none;" />
<text x="382.0" y="1210.0" font-size="18.2px" font-family="CMUBright-Roman" style="text-anchor:end;fill:rgb(0,0,0);" transform="rotate(14.9,382.0,1210.0)" >3950</text>
<line x1='432.2' y1='1145.7' x2='413.3' y2='1139.4' style="stroke-width:4.0;stroke:rgb(0,0,0);stroke-linecap:round;fill:none;" />
<text x="401.7" y="1142.5" font-size="18.2px" font-family="CMUBright-Roman" style="text-anchor:end;fill:rgb(0,0,0);" transform="rotate(18.4,401.7,1142.5)" >4000</text>
<line x1='455.8' y1='1081.3' x2='437.2' y2='1073.9' style="stroke-width:4.0;stroke:rgb(0,0,0);stroke-linecap:round;fill:none;" />
<text x="425.6" y="1076.2" font-size="18.2px" font-family="CMUBright-Roman" style="text-anchor:end;fill:rgb(0,0,0);" transform="rotate(21.8,425.6,1076.2)" >4050</text>
<line x1='483.2' y1='1018.5' x2='465.2' y2='1010.0' style="stroke-width:4.0;stroke:rgb(0,0,0);stroke-linecap:round;fill:none;" />
<text x="453.4" y="1011.6" font-size="18.2px" font-family="CMUBright-Roman" style="text-anchor:end;fill:rgb(0,0,0);" transform="rotate(25.3,453.4,1011.6)" >4100</text>
<line x1='514.5' y1='957.5' x2='496.9' y2='947.8' style="stroke-width:4.0;stroke:rgb(0,0,0);stroke-linecap:round;fill:none;" />
<text x="485.1" y="948.7" font-size="18.2px" font-family="CMUBright-Roman" style="text-anchor:end;fill:rgb(0,0,0);" transform="rotate(28.8,485.1,948.7)" >4150</text>
<line x1='549.3' y1='898.4' x2='532.4' y2='887.7' style="stroke-width:4.0;stroke:rgb(0,0,0);stroke-linecap:round;fill:none;" />
<text x="520.5" y="887.9" font-size="18.2px" font-family="CMUBright-Roman" style="text-anchor:end;fill:rgb(0,0,0);" transform="rotate(32.3,520.5,887.9)" >4200</text>
<line x1='587.8' y1='841.6' x2='571.5' y2='829.9' style="stroke-width:4.0;stroke:rgb(0,0,0);stroke-linecap:round;fill:none;" />
<text x="559.6" y="829.4" font-size="18.2px" font-family="CMUBright-Roman" style="text-anchor:end;fill:rgb(0,0,0);" transform="rotate(35.8,559.6,829.4)" >4250</text>
<line x1='629.6' y1='787.3' x2='614.1' y2='774.6' style="stroke-width:4.0;stroke:rgb(0,0,0);stroke-linecap:round;fill:none;" />
<text x="602.2" y="773.3" font-size="18.2px" font-family="CMUBright-Roman" style="text-anchor:end;fill:rgb(0,0,0);" transform="rotate(39.3,602.2,773.3)" >4300</text>
<line x1='674.6' y1='735.6' x2='659.9' y2='722.0' style="stroke-width:4.0;stroke:rgb(0,0,0);stroke-linecap:round;fill:none;" />
<text x="648.2" y="720.0" font-size="18.2px" font-family="CMUBright-Roman" style="text-anchor:end;fill:rgb(0,0,0);" transform="rotate(42.8,648.2,720.0)" >4350</text>
<line x1='722.7' y1='686.7' x2='708.9' y2='672.3' style="stroke-width:4.0;stroke:rgb(0,0,0);stroke-linecap:round;fill:none;" />
<text x="697.3" y="669.6" font-size="18.2px" font-family="CMUBright-Roman" style="text-anchor:end;fill:rgb(0,0,0);" transform="rotate(46.3,697.3,669.6)" >4400</text>
<line x1='773.7' y1='640.9' x2='760.8' y2='625.6' style="stroke-width:4.0;stroke:rgb(0,0,0);stroke-linecap:round;fill:none;" />
<text x="749.3" y="622.2" font-size="18.2px" font-family="CMUBright-Roman" style="text-anchor:end;fill:rgb(0,0,0);" transform="rotate(49.8,749.3,622.2)" >4450</text>
<line x1='827.3' y1='598.2' x2='815.4' y2='582.2' style="stroke-width:4.0;stroke:rgb(0,0,0);stroke-linecap:round;fill:none;" />
<text x="804.2" y="578.1" font-size="18.2px" font-family="CMUBright-Roman" style="text-anchor:end;fill:rgb(0,0,0);" transform="rotate(53.3,804.2,578.1)" >4500</text>
<line x1='883.5' y1='558.9' x2='872.6' y2='542.2' style="stroke-width:4.0;stroke:rgb(0,0,0);stroke-linecap:round;fill:none;" />
<text x="861.7" y="537.4" font-size="18.2px" font-family="CMUBright-Roman" style="text-anchor:end;fill:rgb(0,0,0);" transform="rotate(56.8,861.7,537.4)" >4550</text>
<line x1='942.0' y1='523.1' x2='932.1' y2='505.8' style="stroke-width:4.0;stroke:rgb(0,0,0);stroke-linecap:round;fill:none;" />
<text x="921.5" y="500.3" font-size="18.2px" font-family="CMUBright-Roman" style="text-anchor:end;fill:rgb(0,0,0);" transform="rotate(60.3,921.5,500.3)" >4600</text>
<line x1='1002.5' y1='491.0' x2='993.7' y2='473.0' style="stroke-width:4.0;stroke:rgb(0,0,0);stroke-linecap:round;fill:none;" />
<text x="983.5" y="466.9" font-size="18.2px" font-family="CMUBright-Roman" style="text-anchor:end;fill:rgb(0,0,0);" transform="rotate(63.8,983.5,466.9)" >4650</text>
<line x1='1064.9' y1='462.5' x2='1057.2' y2='444.1' style="stroke-width:4.0;stroke:rgb(0,0,0);stroke-linecap:round;fill:none;" />
<text x="1047.3" y="437.4" font-size="18.2px" font-family="CMUBright-Roman" style="text-anchor:end;fill:rgb(0,0,0);" transform="rotate(67.2,1047.3,437.4)" >4700</text>
<line x1='1128.9' y1='438.0' x2='1122.3' y2='419.1' style="stroke-width:4.0;stroke:rgb(0,0,0);stroke-linecap:round;fill:none;" />
<text x="1112.9" y="411.8" font-size="18.2px" font-family="CMUBright-Roman" style="text-anchor:end;fill:rgb(0,0,0);" transform="rotate(70.7,1112.9,411.8)" >4750</text>
<line x1='1194.3' y1='417.3' x2='1188.9' y2='398.1' style="stroke-width:4.0;stroke:rgb(0,0,0);stroke-linecap:round;fill:none;" />
<text x="1179.9" y="390.2" font-size="18.2px" font-family="CMUBright-Roman" style="text-anchor:end;fill:rgb(0,0,0);" transform="rotate(74.2,1179.9,390.2)" >4800</text>
<line x1='1260.8' y1='400.7' x2='1256.6' y2='381.2' style="stroke-width:4.0;stroke:rgb(0,0,0);stroke-linecap:round;fill:none;" />
<text x="1248.1" y="372.8" font-size="18.2px" font-family="CMUBright-Roman" style="text-anchor:end;fill:rgb(0,0,0);" transform="rotate(77.7,1248.1,372.8)" >4850</text>
<line x1='1328.3' y1='388.2' x2='1325.2' y2='368.4' style="stroke-width:4.0;stroke:rgb(0,0,0);stroke-linecap:round;fill:none;" />
<text x="1317.3" y="359.5" font-size="18.2px" font-family="CMUBright-Roman" style="text-anchor:end;fill:rgb(0,0,0);" transform="rotate(81.2,1317.3,359.5)" >4900</text>
<line x1='1396.3' y1='379.8' x2='1394.5' y2='359.9' style="stroke-width:4.0;stroke:rgb(0,0,0);stroke-linecap:round;fill:none;" />
<text x="1387.1" y="350.5" font-size="18.2px" font-family="CMUBright-Roman" style="text-anchor:end;fill:rgb(0,0,0);" transform="rotate(84.7,1387.1,350.5)" >4950</text>
<g id="highlighttrack_0">
<path d="M1723.128,448.411 A1075.000,1075.000 40.000 0,1 1726.784,449.194 L1737.332,400.319 A1125.000,1125.000 0.000 0,0 1733.506,399.500 Z" style="stroke-width:4.0;stroke:rgb(0,0,0);stroke-linecap:round;fill:rgb(116,196,118);" />
<path d="M2194.589,679.530 A1075.000,1075.000 40.000 0,1 2197.438,681.951 L2229.877,643.902 A1125.000,1125.000 0.000 0,0 2226.895,641.368 Z" style="stroke-width:4.0;stroke:rgb(0,0,0);stroke-linecap:round;fill:rgb(116,196,118);" />
<path d="M2201.533,685.460 A1075.000,1075.000 40.000 0,1 2204.362,687.905 L2237.123,650.133 A1125.000,1125.000 0.000 0,0 2234.163,647.574 Z" style="stroke-width:4.0;stroke:rgb(0,0,0);stroke-linecap:round;fill:rgb(116,196,118);" />
<path d="M816.221,2329.501 A1075.000,1075.000 40.000 0,1 813.340,2327.118 L781.403,2365.588 A1125.000,1125.000 0.000 0,0 784.417,2368.082 Z" style="stroke-width:4.0;stroke:rgb(0,0,0);stroke-linecap:round;fill:rgb(251,106,74);" />
<path d="M463.630,1214.410 A1075.000,1075.000 40.000 0,1 464.629,1210.807 L416.473,1197.356 A1125.000,1125.000 0.000 0,0 415.427,1201.126 Z" style="stroke-width:4.0;stroke:rgb(0,0,0);stroke-linecap:round;fill:rgb(251,106,74);" />
<path d="M1106.770,499.502 A1075.000,1075.000 40.000 0,1 1110.253,498.141 L1092.125,451.543 A1125.000,1125.000 0.000 0,0 1088.481,452.968 Z" style="stroke-width:4.0;stroke:rgb(0,0,0);stroke-linecap:round;fill:rgb(251,106,74);" />
<path d="M1169.939,476.924 A1075.000,1075.000 40.000 0,1 1173.499,475.782 L1158.313,428.144 A1125.000,1125.000 0.000 0,0 1154.587,429.339 Z" style="stroke-width:4.0;stroke:rgb(0,0,0);stroke-linecap:round;fill:rgb(251,106,74);" />
<path d="M1363.379,433.717 A1075.000,1075.000 40.000 0,1 1367.089,433.248 L1360.907,383.632 A1125.000,1125.000 0.000 0,0 1357.025,384.122 Z" style="stroke-width:4.0;stroke:rgb(0,0,0);stroke-linecap:round;fill:rgb(251,106,74);" />
<path d="M1126.571,491.945 A1075.000,1075.000 40.000 0,1 1138.598,487.570 L1121.789,440.481 A1125.000,1125.000 0.000 0,0 1109.202,445.058 Z" style="stroke-width:4.0;stroke:rgb(0,0,0);stroke-linecap:round;fill:rgb(116,196,118);" />
</g>
</g>
<g id="track_0">
<path d="M 1720.896,458.927 A 1064.250,1064.250 0.00 0,1 1724.5,459.7 L 1724.5,459.7 1709.0,531.2 1694.5,597.3 1681.0,658.2 1668.5,714.2 1656.8,765.4 1645.9,812.2 1635.9,854.8 1626.6,893.3 1618.0,927.9 1610.1,958.8 1602.8,986.2 1596.2,1010.1 1590.2,1030.8 1584.7,1048.2 1579.7,1062.5 1575.3,1073.8 1571.4,1082.1 1567.9,1087.5 1564.9,1090.0 1562.4,1089.6 1560.3,1086.4 1558.6,1080.2 1557.4,1071.0 1556.6,1058.9 1556.2,1043.8 1556.3,1025.5 1556.8,1004.0 1557.7,979.2 1559.1,950.9 1560.9,919.1 1563.2,883.5 1566.1,844.0 1569.4,800.4 1573.2,752.5 1577.6,700.1 1582.6,642.9 1588.2,580.8 1594.4,513.5 1601.3,440.6  A 1064.250,1064.250 0.00 0,0 1597.6,440.2 L 1597.6,440.2 1591.0,513.1 1585.0,580.5 1579.6,642.7 1574.8,699.8 1570.6,752.2 1566.9,800.1 1563.8,843.7 1561.1,883.2 1558.9,918.9 1557.2,950.7 1555.9,979.0 1555.0,1003.8 1554.6,1025.3 1554.6,1043.6 1555.1,1058.7 1555.9,1070.8 1557.2,1080.0 1558.8,1086.1 1561.0,1089.4 1563.5,1089.8 1566.5,1087.3 1569.9,1081.9 1573.8,1073.6 1578.2,1062.2 1583.1,1047.9 1588.5,1030.4 1594.5,1009.8 1601.1,985.8 1608.2,958.5 1616.0,927.5 1624.5,892.9 1633.6,854.3 1643.5,811.7 1654.2,764.9 1665.7,713.6 1678.1,657.6 1691.4,596.6 1705.6,530.5 1720.9,458.9  Z" style="stroke-width: 2.0;  stroke: rgb(82,82,82); fill: rgb(251,106,74); opacity: 0.667;" />
<path d="M 2187.643,687.735 A 1064.250,1064.250 0.00 0,1 2190.5,690.1 L 2190.5,690.1 2142.6,745.6 2097.8,796.5 2055.8,843.1 2016.4,885.4 1979.6,923.9 1945.2,958.6 1913.0,989.8 1882.9,1017.5 1854.9,1042.0 1828.7,1063.5 1804.4,1081.9 1781.7,1097.5 1760.6,1110.3 1741.0,1120.4 1722.8,1127.9 1706.0,1132.8 1690.4,1135.2 1676.1,1135.1 1662.8,1132.5 1650.7,1127.3 1639.6,1119.6 1629.5,1109.4 1620.4,1096.6 1612.2,1081.1 1605.0,1062.8 1598.6,1041.7 1593.1,1017.6 1588.5,990.5 1584.8,960.2 1582.0,926.5 1580.1,889.3 1579.1,848.4 1579.1,803.6 1580.1,754.7 1582.1,701.5 1585.2,643.7 1589.3,581.2 1594.7,513.5 1601.3,440.6  A 1064.250,1064.250 0.00 0,0 1597.6,440.2 L 1597.6,440.2 1591.3,513.2 1586.1,580.9 1582.2,643.4 1579.3,701.2 1577.5,754.4 1576.7,803.3 1576.9,848.1 1578.0,889.0 1580.0,926.2 1582.9,959.9 1586.8,990.2 1591.4,1017.3 1597.0,1041.3 1603.4,1062.4 1610.8,1080.7 1619.0,1096.2 1628.2,1109.0 1638.3,1119.2 1649.4,1126.8 1661.6,1131.9 1674.8,1134.5 1689.2,1134.6 1704.7,1132.1 1721.5,1127.1 1739.7,1119.6 1759.2,1109.4 1780.3,1096.5 1802.9,1080.9 1827.2,1062.3 1853.3,1040.8 1881.3,1016.2 1911.2,988.3 1943.3,957.1 1977.6,922.2 2014.3,883.7 2053.5,841.1 2095.4,794.5 2140.0,743.4 2187.6,687.7  Z" style="stroke-width: 2.0;  stroke: rgb(82,82,82); fill: rgb(116,196,118); opacity: 0.667;" />
<path d="M 2187.643,687.735 A 1064.250,1064.250 0.00 0,1 2190.5,690.1 L 2190.5,690.1 2142.7,745.7 2098.1,796.6 2056.4,843.3 2017.5,885.9 1981.2,924.5 1947.5,959.5 1916.1,990.9 1886.9,1019.0 1859.9,1043.8 1834.9,1065.6 1811.8,1084.3 1790.5,1100.3 1770.9,1113.4 1752.9,1123.9 1736.5,1131.8 1721.6,1137.1 1708.1,1139.8 1695.9,1140.1 1685.1,1137.9 1675.5,1133.1 1667.1,1125.8 1659.9,1116.0 1653.9,1103.6 1649.1,1088.5 1645.3,1070.7 1642.8,1050.1 1641.4,1026.5 1641.1,999.9 1642.0,970.2 1644.1,937.1 1647.4,900.5 1652.0,860.3 1658.0,816.3 1665.2,768.3 1674.0,716.0 1684.2,659.2 1695.9,597.8 1709.4,531.4 1724.5,459.7  A 1064.250,1064.250 0.00 0,0 1720.9,458.9 L 1720.9,458.9 1706.0,530.6 1692.8,597.1 1681.2,658.6 1671.2,715.4 1662.7,767.7 1655.6,815.8 1649.8,859.8 1645.3,900.0 1642.1,936.6 1640.1,969.7 1639.3,999.4 1639.7,1026.0 1641.2,1049.6 1643.9,1070.2 1647.6,1088.0 1652.5,1103.1 1658.6,1115.5 1665.8,1125.3 1674.2,1132.5 1683.8,1137.2 1694.7,1139.4 1706.8,1139.1 1720.3,1136.3 1735.2,1131.0 1751.6,1123.0 1769.6,1112.5 1789.1,1099.3 1810.3,1083.3 1833.4,1064.4 1858.3,1042.6 1885.2,1017.6 1914.3,989.5 1945.6,957.9 1979.2,922.9 2015.3,884.1 2054.1,841.4 2095.6,794.6 2140.1,743.4 2187.6,687.7  Z" style="stroke-width: 2.0;  stroke: rgb(82,82,82); fill: rgb(107,174,214); opacity: 0.667;" />
<path d="M 2194.518,693.605 A 1064.250,1064.250 0.00 0,1 2197.3,696.0 L 2197.3,696.0 2149.0,751.1 2103.7,801.6 2061.3,847.8 2021.6,889.8 1984.4,927.9 1949.6,962.3 1917.1,993.2 1886.7,1020.7 1858.4,1045.0 1832.0,1066.1 1807.4,1084.4 1784.5,1099.7 1763.1,1112.3 1743.4,1122.3 1725.0,1129.6 1708.0,1134.3 1692.2,1136.6 1677.7,1136.3 1664.3,1133.5 1652.1,1128.3 1640.8,1120.5 1630.6,1110.2 1621.4,1097.2 1613.1,1081.6 1605.7,1063.3 1599.3,1042.1 1593.7,1018.0 1589.0,990.8 1585.2,960.4 1582.4,926.6 1580.4,889.4 1579.4,848.5 1579.3,803.6 1580.2,754.7 1582.2,701.5 1585.2,643.7 1589.4,581.2 1594.7,513.5 1601.3,440.6  A 1064.250,1064.250 0.00 0,0 1597.6,440.2 L 1597.6,440.2 1591.3,513.2 1586.2,580.9 1582.2,643.4 1579.4,701.2 1577.6,754.5 1576.9,803.4 1577.1,848.2 1578.3,889.1 1580.4,926.4 1583.4,960.1 1587.2,990.5 1592.0,1017.6 1597.7,1041.7 1604.2,1062.9 1611.6,1081.2 1620.0,1096.8 1629.3,1109.7 1639.5,1120.0 1650.8,1127.7 1663.1,1133.0 1676.4,1135.7 1691.0,1135.9 1706.7,1133.6 1723.7,1128.8 1742.0,1121.4 1761.8,1111.4 1783.1,1098.7 1805.9,1083.3 1830.5,1065.0 1856.8,1043.7 1885.1,1019.4 1915.3,991.8 1947.7,960.8 1982.4,926.3 2019.4,888.0 2059.0,845.8 2101.3,799.5 2146.4,748.9 2194.5,693.6  Z" style="stroke-width: 2.0;  stroke: rgb(82,82,82); fill: rgb(253,141,60); opacity: 0.667;" />
<path d="M 2194.518,693.605 A 1064.250,1064.250 0.00 0,1 2197.3,696.0 L 2197.3,696.0 2149.1,751.2 2104.0,801.7 2061.9,848.0 2022.6,890.3 1986.0,928.6 1951.9,963.2 1920.2,994.4 1890.7,1022.2 1863.4,1046.7 1838.1,1068.2 1814.8,1086.8 1793.2,1102.5 1773.4,1115.5 1755.3,1125.8 1738.7,1133.5 1723.6,1138.6 1709.9,1141.2 1697.6,1141.3 1686.5,1139.0 1676.8,1134.1 1668.3,1126.7 1661.0,1116.8 1654.9,1104.3 1649.9,1089.1 1646.1,1071.2 1643.4,1050.5 1641.9,1026.9 1641.6,1000.2 1642.4,970.4 1644.4,937.3 1647.7,900.7 1652.2,860.5 1658.1,816.4 1665.4,768.3 1674.0,716.0 1684.2,659.3 1696.0,597.8 1709.4,531.4 1724.5,459.7  A 1064.250,1064.250 0.00 0,0 1720.9,458.9 L 1720.9,458.9 1706.0,530.6 1692.8,597.1 1681.3,658.6 1671.3,715.4 1662.8,767.8 1655.7,815.9 1650.0,859.9 1645.6,900.2 1642.5,936.8 1640.5,969.9 1639.8,999.7 1640.3,1026.4 1641.9,1050.0 1644.6,1070.7 1648.5,1088.6 1653.5,1103.7 1659.7,1116.2 1667.0,1126.1 1675.5,1133.5 1685.3,1138.3 1696.3,1140.6 1708.6,1140.5 1722.3,1137.8 1737.4,1132.6 1754.0,1124.9 1772.1,1114.5 1791.9,1101.5 1813.3,1085.7 1836.6,1067.1 1861.8,1045.5 1889.0,1020.8 1918.4,992.9 1950.0,961.7 1984.0,926.9 2020.5,888.4 2059.6,846.1 2101.6,799.6 2146.5,748.9 2194.5,693.6  Z" style="stroke-width: 2.0;  stroke: rgb(82,82,82); fill: rgb(255,0,0); opacity: 0.667;" />
<path d="M 2194.518,693.605 A 1064.250,1064.250 0.00 0,1 2197.3,696.0 L 2197.3,696.0 2149.4,751.3 2105.0,802.4 2064.1,849.5 2026.6,892.8 1992.1,932.5 1960.6,968.7 1931.9,1001.7 1905.9,1031.5 1882.6,1058.3 1861.6,1082.3 1843.1,1103.6 1826.8,1122.2 1812.7,1138.3 1800.8,1151.9 1790.9,1163.1 1783.0,1171.9 1777.1,1178.5 1773.1,1182.9 1771.0,1185.0 1770.9,1184.8 1772.7,1182.5 1776.3,1177.9 1782.0,1171.1 1789.6,1162.0 1799.2,1150.5 1810.8,1136.6 1824.6,1120.3 1840.6,1101.4 1858.8,1079.9 1879.4,1055.6 1902.4,1028.5 1928.0,998.3 1956.3,965.0 1987.4,928.5 2021.5,888.4 2058.7,844.8 2099.1,797.3 2143.0,745.8 2190.5,690.1  A 1064.250,1064.250 0.00 0,0 2187.6,687.7 L 2187.6,687.7 2140.4,743.6 2096.7,795.2 2056.4,842.8 2019.4,886.6 1985.4,926.8 1954.5,963.4 1926.3,996.8 1900.8,1027.1 1877.8,1054.3 1857.3,1078.6 1839.2,1100.2 1823.3,1119.2 1809.6,1135.6 1798.0,1149.5 1788.4,1161.0 1780.8,1170.1 1775.2,1177.0 1771.6,1181.6 1769.8,1183.9 1769.9,1184.0 1772.0,1181.9 1775.9,1177.6 1781.8,1171.0 1789.7,1162.1 1799.5,1150.8 1811.5,1137.2 1825.5,1121.1 1841.7,1102.4 1860.2,1081.1 1881.0,1057.0 1904.3,1030.1 1930.2,1000.2 1958.7,967.1 1990.1,930.8 2024.4,891.0 2061.9,847.5 2102.6,800.3 2146.7,749.1 2194.5,693.6  Z" style="stroke-width: 2.0;  stroke: rgb(82,82,82); fill: rgb(255,0,204); opacity: 0.667;" />
<path d="M 823.059,2321.206 A 1064.250,1064.250 0.00 0,1 820.2,2318.8 L 820.2,2318.8 866.6,2261.1 909.0,2204.9 947.6,2150.2 983.0,2097.1 1015.3,2045.4 1044.9,1995.1 1072.1,1946.2 1097.3,1898.7 1120.6,1852.4 1142.3,1807.3 1162.7,1763.3 1182.0,1720.3 1200.4,1678.3 1218.0,1637.1 1235.1,1596.6 1251.7,1556.8 1268.1,1517.4 1284.2,1478.4 1300.3,1439.6 1316.4,1401.0 1332.5,1362.2 1348.8,1323.3 1365.2,1283.9 1381.7,1244.0 1398.4,1203.4 1415.2,1161.8 1432.0,1119.2 1448.9,1075.2 1465.7,1029.7 1482.3,982.5 1498.7,933.3 1514.7,881.9 1530.2,828.2 1544.9,771.7 1558.8,712.4 1571.6,649.8 1583.1,583.9 1593.1,514.2 1601.3,440.6  A 1064.250,1064.250 0.00 0,0 1597.6,440.2 L 1597.6,440.2 1589.7,513.9 1579.9,583.6 1568.6,649.6 1556.1,712.2 1542.4,771.6 1527.8,828.1 1512.6,881.9 1496.8,933.3 1480.5,982.5 1464.1,1029.8 1447.4,1075.4 1430.7,1119.4 1414.0,1162.1 1397.4,1203.7 1380.8,1244.4 1364.4,1284.4 1348.2,1323.8 1332.1,1362.8 1316.1,1401.6 1300.1,1440.3 1284.2,1479.2 1268.1,1518.2 1251.9,1557.6 1235.4,1597.5 1218.5,1638.1 1201.0,1679.3 1182.8,1721.4 1163.7,1764.5 1143.4,1808.5 1121.8,1853.7 1098.7,1900.1 1073.7,1947.7 1046.6,1996.7 1017.2,2047.1 985.0,2098.9 949.9,2152.1 911.4,2206.9 869.3,2263.3 823.1,2321.2  Z" style="stroke-width: 2.0;  stroke: rgb(82,82,82); fill: rgb(255,204,204); opacity: 0.667;" />
<path d="M 823.059,2321.206 A 1064.250,1064.250 0.00 0,1 820.2,2318.8 L 820.2,2318.8 866.7,2261.0 909.1,2204.7 947.9,2149.7 983.5,2096.2 1016.2,2044.1 1046.2,1993.5 1074.0,1944.1 1099.7,1896.1 1123.8,1849.4 1146.4,1803.9 1167.8,1759.6 1188.3,1716.3 1207.9,1674.0 1227.0,1632.6 1245.6,1592.1 1264.0,1552.2 1282.3,1512.9 1300.6,1474.1 1319.0,1435.6 1337.6,1397.4 1356.5,1359.1 1375.8,1320.8 1395.4,1282.1 1415.4,1243.0 1435.8,1203.3 1456.6,1162.8 1477.7,1121.2 1499.1,1078.5 1520.8,1034.2 1542.6,988.3 1564.5,940.6 1586.4,890.7 1608.0,838.4 1629.4,783.4 1650.2,725.6 1670.3,664.6 1689.6,600.1 1707.7,531.9 1724.5,459.7  A 1064.250,1064.250 0.00 0,0 1720.9,458.9 L 1720.9,458.9 1704.3,531.2 1686.4,599.5 1667.4,664.0 1647.5,725.1 1626.9,783.0 1605.7,838.0 1584.3,890.4 1562.6,940.3 1540.9,988.2 1519.2,1034.2 1497.7,1078.5 1476.4,1121.3 1455.4,1162.9 1434.7,1203.5 1414.5,1243.3 1394.6,1282.5 1375.2,1321.2 1356.1,1359.6 1337.3,1397.9 1318.8,1436.3 1300.5,1474.8 1282.3,1513.7 1264.2,1553.0 1245.9,1593.0 1227.4,1633.6 1208.5,1675.0 1189.0,1717.4 1168.7,1760.7 1147.5,1805.1 1125.0,1850.7 1101.1,1897.5 1075.5,1945.6 1047.9,1995.0 1018.0,2045.8 985.6,2098.0 950.2,2151.6 911.6,2206.7 869.3,2263.2 823.1,2321.2  Z" style="stroke-width: 2.0;  stroke: rgb(82,82,82); fill: rgb(255,153,0); opacity: 0.667;" />
<path d="M 823.059,2321.206 A 1064.250,1064.250 0.00 0,1 820.2,2318.8 L 820.2,2318.8 868.7,2262.3 916.8,2209.6 964.4,2160.4 1011.4,2114.2 1057.5,2070.9 1102.8,2029.9 1147.0,1991.1 1190.1,1954.1 1232.0,1918.6 1272.6,1884.5 1311.9,1851.3 1350.0,1818.9 1386.6,1787.1 1422.0,1755.5 1456.0,1724.1 1488.7,1692.6 1520.2,1660.8 1550.6,1628.6 1579.8,1595.8 1608.0,1562.2 1635.3,1527.8 1661.9,1492.4 1687.8,1456.0 1713.3,1418.3 1738.4,1379.4 1763.4,1339.2 1788.5,1297.6 1813.9,1254.6 1839.9,1210.2 1866.6,1164.3 1894.4,1116.9 1923.4,1068.2 1954.1,1018.0 1986.7,966.4 2021.6,913.5 2059.0,859.3 2099.4,804.0 2143.1,747.6 2190.5,690.1  A 1064.250,1064.250 0.00 0,0 2187.6,687.7 L 2187.6,687.7 2140.5,745.3 2097.0,801.9 2056.8,857.4 2019.5,911.7 1984.9,964.7 1952.4,1016.4 1921.9,1066.7 1893.0,1115.6 1865.4,1163.0 1838.9,1209.0 1813.1,1253.5 1787.8,1296.6 1762.9,1338.3 1738.0,1378.6 1713.0,1417.6 1687.7,1455.3 1661.9,1491.9 1635.4,1527.4 1608.2,1561.9 1580.1,1595.5 1551.0,1628.4 1520.8,1660.7 1489.4,1692.6 1456.8,1724.2 1422.9,1755.8 1387.6,1787.4 1351.1,1819.4 1313.2,1852.0 1273.9,1885.2 1233.4,1919.6 1191.7,1955.2 1148.7,1992.3 1104.6,2031.3 1059.5,2072.4 1013.5,2115.9 966.7,2162.3 919.3,2211.7 871.3,2264.5 823.1,2321.2  Z" style="stroke-width: 2.0;  stroke: rgb(82,82,82); fill: rgb(255,204,0); opacity: 0.667;" />
<path d="M 823.059,2321.206 A 1064.250,1064.250 0.00 0,1 820.2,2318.8 L 820.2,2318.8 868.7,2262.3 916.8,2209.7 964.4,2160.4 1011.4,2114.3 1057.5,2070.9 1102.7,2030.0 1146.9,1991.3 1190.0,1954.3 1231.9,1918.9 1272.5,1884.8 1311.9,1851.7 1350.0,1819.4 1386.7,1787.6 1422.1,1756.2 1456.2,1724.8 1489.0,1693.4 1520.6,1661.7 1551.0,1629.6 1580.3,1596.9 1608.7,1563.5 1636.2,1529.2 1662.9,1494.0 1689.0,1457.6 1714.7,1420.2 1740.1,1381.4 1765.3,1341.4 1790.7,1300.0 1816.4,1257.2 1842.7,1213.0 1869.7,1167.3 1897.8,1120.2 1927.3,1071.7 1958.3,1021.8 1991.3,970.5 2026.6,917.9 2064.5,864.1 2105.3,809.1 2149.5,753.1 2197.3,696.0  A 1064.250,1064.250 0.00 0,0 2194.5,693.6 L 2194.5,693.6 2146.9,750.8 2102.9,807.0 2062.3,862.1 2024.6,916.1 1989.5,968.8 1956.7,1020.2 1925.8,1070.2 1896.5,1118.8 1868.5,1166.0 1841.7,1211.8 1815.6,1256.1 1790.0,1299.0 1764.8,1340.5 1739.7,1380.6 1714.4,1419.4 1688.9,1457.0 1662.9,1493.4 1636.3,1528.7 1608.9,1563.1 1580.7,1596.6 1551.4,1629.4 1521.1,1661.6 1489.6,1693.4 1456.9,1725.0 1423.0,1756.4 1387.7,1788.0 1351.1,1819.9 1313.1,1852.4 1273.9,1885.6 1233.4,1919.8 1191.6,1955.4 1148.6,1992.5 1104.6,2031.4 1059.5,2072.5 1013.5,2116.0 966.7,2162.3 919.3,2211.7 871.3,2264.5 823.1,2321.2  Z" style="stroke-width: 2.0;  stroke: rgb(82,82,82); fill: rgb(255,255,0); opacity: 0.667;" />
<path d="M 473.994,1217.266 A 1064.250,1064.250 0.00 0,1 475.0,1213.7 L 475.0,1213.7 546.0,1232.7 612.6,1248.9 675.2,1262.5 733.9,1273.7 788.9,1282.6 840.6,1289.3 889.2,1294.0 934.7,1296.9 977.6,1297.9 1017.8,1297.2 1055.7,1294.9 1091.4,1291.0 1125.0,1285.6 1156.8,1278.7 1186.8,1270.3 1215.2,1260.5 1242.2,1249.2 1267.8,1236.3 1292.1,1222.0 1315.3,1206.1 1337.4,1188.5 1358.6,1169.2 1378.9,1148.2 1398.3,1125.2 1416.9,1100.2 1434.7,1073.0 1451.9,1043.6 1468.3,1011.7 1484.1,977.1 1499.2,939.8 1513.6,899.5 1527.4,855.9 1540.4,809.0 1552.7,758.3 1564.2,703.7 1574.9,644.9 1584.7,581.7 1593.5,513.7 1601.3,440.6  A 1064.250,1064.250 0.00 0,0 1597.6,440.2 L 1597.6,440.2 1590.1,513.4 1581.5,581.4 1571.9,644.7 1561.4,703.5 1550.1,758.1 1538.0,808.8 1525.1,855.9 1511.5,899.4 1497.3,939.8 1482.3,977.2 1466.6,1011.8 1450.3,1043.7 1433.2,1073.2 1415.5,1100.5 1397.0,1125.5 1377.6,1148.6 1357.5,1169.7 1336.4,1189.1 1314.3,1206.7 1291.1,1222.7 1266.9,1237.1 1241.3,1250.1 1214.4,1261.5 1186.0,1271.4 1156.0,1279.9 1124.3,1286.9 1090.7,1292.4 1055.0,1296.4 1017.1,1298.9 976.9,1299.7 934.0,1298.8 888.4,1296.2 839.9,1291.6 788.2,1285.0 733.1,1276.4 674.4,1265.4 611.8,1252.0 545.1,1236.0 474.0,1217.3  Z" style="stroke-width: 2.0;  stroke: rgb(82,82,82); fill: rgb(204,255,0); opacity: 0.667;" />
<path d="M 473.994,1217.266 A 1064.250,1064.250 0.00 0,1 475.0,1213.7 L 475.0,1213.7 546.0,1232.7 612.9,1248.8 675.7,1262.2 734.8,1273.2 790.4,1281.8 842.8,1288.3 892.1,1292.8 938.5,1295.4 982.3,1296.2 1023.7,1295.4 1062.8,1292.9 1099.8,1288.9 1134.9,1283.4 1168.3,1276.5 1200.1,1268.1 1230.4,1258.4 1259.4,1247.2 1287.2,1234.6 1313.9,1220.6 1339.6,1205.1 1364.5,1188.0 1388.5,1169.3 1411.9,1148.8 1434.7,1126.6 1456.8,1102.3 1478.5,1076.1 1499.8,1047.5 1520.6,1016.6 1541.0,983.2 1561.0,947.0 1580.7,907.9 1600.1,865.6 1619.1,819.9 1637.8,770.6 1656.0,717.3 1673.9,659.9 1691.3,598.0 1708.2,531.4 1724.5,459.7  A 1064.250,1064.250 0.00 0,0 1720.9,458.9 L 1720.9,458.9 1704.8,530.7 1688.1,597.4 1670.9,659.3 1653.3,716.8 1635.2,770.1 1616.7,819.5 1597.9,865.2 1578.7,907.6 1559.1,946.8 1539.2,983.1 1518.9,1016.6 1498.2,1047.5 1477.1,1076.1 1455.5,1102.5 1433.4,1126.8 1410.7,1149.1 1387.4,1169.7 1363.4,1188.5 1338.6,1205.6 1312.9,1221.3 1286.2,1235.4 1258.5,1248.1 1229.5,1259.3 1199.3,1269.2 1167.5,1277.6 1134.2,1284.7 1099.1,1290.3 1062.1,1294.4 1023.0,1297.0 981.6,1298.0 937.8,1297.4 891.3,1294.9 842.0,1290.6 789.7,1284.3 734.0,1275.9 674.9,1265.1 612.0,1251.9 545.1,1236.0 474.0,1217.3  Z" style="stroke-width: 2.0;  stroke: rgb(82,82,82); fill: rgb(0,255,0); opacity: 0.667;" />
<path d="M 473.994,1217.266 A 1064.250,1064.250 0.00 0,1 475.0,1213.7 L 475.0,1213.7 546.3,1232.5 614.0,1248.4 678.2,1261.4 739.1,1271.8 797.0,1280.0 852.1,1286.0 904.7,1290.2 954.8,1292.6 1002.7,1293.4 1048.6,1292.8 1092.7,1290.9 1135.1,1287.8 1176.1,1283.5 1215.8,1278.3 1254.4,1272.1 1292.0,1264.9 1328.9,1256.9 1365.1,1247.9 1400.7,1238.0 1436.1,1227.3 1471.2,1215.5 1506.2,1202.7 1541.2,1188.9 1576.5,1173.8 1611.9,1157.4 1647.8,1139.6 1684.2,1120.2 1721.1,1099.1 1758.8,1076.0 1797.2,1050.9 1836.5,1023.5 1876.7,993.5 1918.0,960.8 1960.3,925.0 2003.8,885.9 2048.5,843.1 2094.5,796.5 2141.8,745.6 2190.5,690.1  A 1064.250,1064.250 0.00 0,0 2187.6,687.7 L 2187.6,687.7 2139.2,743.4 2092.1,794.4 2046.2,841.2 2001.7,884.1 1958.3,923.4 1916.1,959.3 1875.0,992.2 1834.8,1022.3 1795.6,1049.9 1757.3,1075.1 1719.7,1098.3 1682.9,1119.6 1646.6,1139.1 1610.8,1157.0 1575.3,1173.5 1540.2,1188.7 1505.2,1202.7 1470.2,1215.6 1435.1,1227.5 1399.8,1238.4 1364.2,1248.4 1328.0,1257.5 1291.2,1265.6 1253.6,1272.9 1215.0,1279.3 1175.4,1284.7 1134.4,1289.0 1091.9,1292.3 1047.9,1294.4 1002.0,1295.1 954.0,1294.5 903.9,1292.3 851.4,1288.3 796.3,1282.4 738.3,1274.5 677.3,1264.2 613.1,1251.4 545.4,1235.9 474.0,1217.3  Z" style="stroke-width: 2.0;  stroke: rgb(82,82,82); fill: rgb(53,128,0); opacity: 0.667;" />
<path d="M 473.994,1217.266 A 1064.250,1064.250 0.00 0,1 475.0,1213.7 L 475.0,1213.7 546.3,1232.5 614.0,1248.3 678.2,1261.4 739.2,1271.8 797.2,1280.0 852.3,1286.0 904.9,1290.2 955.0,1292.6 1003.0,1293.4 1049.0,1292.8 1093.2,1290.9 1135.7,1287.9 1176.8,1283.7 1216.6,1278.5 1255.3,1272.3 1293.0,1265.2 1330.0,1257.3 1366.3,1248.4 1402.1,1238.7 1437.6,1228.0 1472.8,1216.4 1508.0,1203.7 1543.2,1190.0 1578.6,1175.1 1614.3,1158.9 1650.4,1141.3 1687.0,1122.2 1724.2,1101.3 1762.0,1078.5 1800.7,1053.7 1840.3,1026.5 1880.8,996.8 1922.4,964.4 1965.1,928.9 2008.9,890.2 2054.0,847.8 2100.4,801.6 2148.2,751.1 2197.3,696.0  A 1064.250,1064.250 0.00 0,0 2194.5,693.6 L 2194.5,693.6 2145.6,748.8 2098.0,799.5 2051.8,845.9 2006.8,888.4 1963.1,927.3 1920.5,962.9 1879.1,995.5 1838.6,1025.3 1799.2,1052.6 1760.6,1077.6 1722.8,1100.5 1685.6,1121.5 1649.1,1140.8 1613.1,1158.5 1577.5,1174.9 1542.2,1189.9 1507.0,1203.7 1471.9,1216.5 1436.6,1228.2 1401.2,1239.0 1365.4,1248.9 1329.1,1257.8 1292.2,1266.0 1254.5,1273.2 1215.8,1279.5 1176.0,1284.8 1135.0,1289.1 1092.4,1292.4 1048.3,1294.4 1002.3,1295.1 954.3,1294.5 904.1,1292.2 851.6,1288.3 796.4,1282.4 738.4,1274.5 677.4,1264.2 613.1,1251.4 545.4,1235.9 474.0,1217.3  Z" style="stroke-width: 2.0;  stroke: rgb(82,82,82); fill: rgb(0,0,204); opacity: 0.667;" />
<path d="M 473.994,1217.266 A 1064.250,1064.250 0.00 0,1 475.0,1213.7 L 475.0,1213.7 545.5,1234.1 610.7,1254.4 671.0,1274.5 726.5,1294.5 777.6,1314.4 824.5,1334.2 867.5,1353.9 906.9,1373.6 942.7,1393.2 975.2,1412.8 1004.7,1432.5 1031.2,1452.3 1054.9,1472.3 1075.9,1492.4 1094.4,1512.8 1110.5,1533.6 1124.3,1554.7 1135.8,1576.3 1145.0,1598.4 1152.1,1621.2 1157.1,1644.6 1160.0,1668.9 1160.7,1694.1 1159.3,1720.3 1155.6,1747.6 1149.8,1776.2 1141.7,1806.1 1131.1,1837.4 1118.2,1870.4 1102.6,1905.0 1084.3,1941.6 1063.2,1980.1 1039.0,2020.8 1011.7,2063.8 981.0,2109.2 946.7,2157.3 908.7,2208.1 866.6,2261.9 820.2,2318.8  A 1064.250,1064.250 0.00 0,0 823.1,2321.2 L 823.1,2321.2 869.2,2264.1 911.1,2210.2 949.0,2159.2 983.1,2111.0 1013.7,2065.5 1040.8,2022.4 1064.8,1981.6 1085.8,1943.0 1104.0,1906.4 1119.4,1871.7 1132.3,1838.7 1142.7,1807.3 1150.8,1777.4 1156.5,1748.8 1160.0,1721.5 1161.4,1695.3 1160.6,1670.1 1157.6,1645.8 1152.6,1622.4 1145.4,1599.6 1136.0,1577.5 1124.5,1556.0 1110.6,1534.9 1094.5,1514.2 1075.9,1493.9 1054.8,1473.8 1031.0,1454.0 1004.4,1434.3 974.9,1414.7 942.3,1395.1 906.4,1375.6 867.0,1356.1 824.0,1336.5 777.0,1316.9 725.8,1297.2 670.2,1277.4 609.9,1257.5 544.6,1237.4 474.0,1217.3  Z" style="stroke-width: 2.0;  stroke: rgb(82,82,82); fill: rgb(102,153,255); opacity: 0.667;" />
<path d="M 1110.703,509.507 A 1064.250,1064.250 0.00 0,1 1114.2,508.2 L 1114.2,508.2 1141.0,576.3 1166.3,639.1 1190.3,696.9 1212.9,749.9 1234.3,798.4 1254.5,842.5 1273.7,882.5 1291.7,918.6 1308.8,950.9 1325.0,979.7 1340.4,1005.0 1354.9,1027.0 1368.7,1045.9 1381.9,1061.7 1394.4,1074.5 1406.3,1084.4 1417.7,1091.4 1428.5,1095.6 1439.0,1097.0 1449.0,1095.6 1458.7,1091.4 1468.0,1084.4 1477.0,1074.5 1485.8,1061.8 1494.4,1046.1 1502.7,1027.3 1510.9,1005.4 1518.9,980.3 1526.7,951.7 1534.5,919.6 1542.1,883.8 1549.7,844.2 1557.2,800.5 1564.7,752.5 1572.1,700.1 1579.4,642.9 1586.8,580.8 1594.0,513.5 1601.3,440.6  A 1064.250,1064.250 0.00 0,0 1597.6,440.2 L 1597.6,440.2 1590.6,513.1 1583.6,580.5 1576.4,642.7 1569.3,699.8 1562.1,752.3 1554.8,800.3 1547.4,844.0 1540.0,883.7 1532.5,919.5 1524.8,951.6 1517.0,980.2 1509.1,1005.4 1501.1,1027.3 1492.8,1046.1 1484.3,1061.8 1475.6,1074.6 1466.6,1084.5 1457.3,1091.5 1447.6,1095.7 1437.6,1097.2 1427.1,1095.8 1416.2,1091.7 1404.8,1084.7 1392.9,1074.9 1380.3,1062.1 1367.2,1046.4 1353.3,1027.6 1338.7,1005.6 1323.2,980.3 1306.9,951.6 1289.7,919.3 1271.5,883.3 1252.3,843.3 1231.9,799.3 1210.3,750.9 1187.5,698.0 1163.3,640.3 1137.8,577.6 1110.7,509.5  Z" style="stroke-width: 2.0;  stroke: rgb(82,82,82); fill: rgb(153,204,255); opacity: 0.667;" />
<path d="M 1110.703,509.507 A 1064.250,1064.250 0.00 0,1 1114.2,508.2 L 1114.2,508.2 1141.0,576.3 1166.6,639.1 1190.9,696.9 1214.0,749.8 1236.0,798.3 1257.0,842.4 1276.9,882.3 1296.0,918.4 1314.2,950.8 1331.5,979.6 1348.2,1005.0 1364.2,1027.1 1379.5,1046.1 1394.3,1062.0 1408.6,1075.0 1422.4,1085.1 1435.9,1092.4 1449.0,1096.9 1461.8,1098.6 1474.4,1097.6 1486.8,1093.9 1499.0,1087.4 1511.1,1078.1 1523.2,1065.9 1535.3,1050.9 1547.4,1032.8 1559.5,1011.6 1571.8,987.2 1584.2,959.5 1596.9,928.4 1609.7,893.5 1622.8,854.9 1636.2,812.2 1649.9,765.4 1664.0,714.1 1678.5,658.2 1693.4,597.3 1708.7,531.2 1724.5,459.7  A 1064.250,1064.250 0.00 0,0 1720.9,458.9 L 1720.9,458.9 1705.3,530.5 1690.2,596.6 1675.6,657.5 1661.3,713.5 1647.4,764.9 1633.8,811.8 1620.6,854.5 1607.6,893.1 1594.9,928.0 1582.4,959.2 1570.0,987.0 1557.8,1011.4 1545.7,1032.6 1533.7,1050.7 1521.7,1065.8 1509.7,1078.0 1497.6,1087.4 1485.3,1093.9 1473.0,1097.7 1460.4,1098.8 1447.6,1097.1 1434.5,1092.6 1421.0,1085.4 1407.1,1075.3 1392.8,1062.4 1377.9,1046.5 1362.5,1027.6 1346.5,1005.5 1329.7,980.2 1312.3,951.4 1294.0,919.1 1274.8,883.1 1254.7,843.2 1233.6,799.2 1211.4,750.8 1188.1,697.9 1163.6,640.3 1137.8,577.6 1110.7,509.5  Z" style="stroke-width: 2.0;  stroke: rgb(82,82,82); fill: rgb(0,255,255); opacity: 0.667;" />
<path d="M 1110.703,509.507 A 1064.250,1064.250 0.00 0,1 1114.2,508.2 L 1114.2,508.2 1141.4,576.3 1167.8,639.2 1193.6,697.1 1218.7,750.3 1243.1,799.1 1267.0,843.7 1290.4,884.4 1313.3,921.3 1335.8,954.8 1357.9,984.9 1379.7,1011.8 1401.3,1035.8 1422.7,1056.9 1444.0,1075.3 1465.2,1091.0 1486.5,1104.3 1507.9,1115.0 1529.4,1123.4 1551.2,1129.5 1573.4,1133.2 1596.0,1134.7 1619.1,1133.8 1642.9,1130.7 1667.3,1125.2 1692.5,1117.3 1718.7,1106.9 1745.8,1094.0 1774.1,1078.5 1803.5,1060.2 1834.3,1039.0 1866.5,1014.8 1900.3,987.5 1935.8,956.8 1973.0,922.5 2012.2,884.5 2053.3,842.5 2096.7,796.2 2142.4,745.6 2190.5,690.1  A 1064.250,1064.250 0.00 0,0 2187.6,687.7 L 2187.6,687.7 2139.7,743.3 2094.3,794.2 2051.1,840.5 2010.0,882.7 1971.0,920.8 1933.9,955.2 1898.5,986.1 1864.8,1013.6 1832.7,1037.9 1802.0,1059.1 1772.6,1077.5 1744.4,1093.2 1717.3,1106.2 1691.2,1116.6 1666.0,1124.6 1641.6,1130.2 1617.8,1133.4 1594.7,1134.4 1572.1,1133.0 1550.0,1129.3 1528.1,1123.3 1506.5,1115.0 1485.1,1104.3 1463.8,1091.1 1442.5,1075.5 1421.2,1057.2 1399.7,1036.1 1378.0,1012.2 1356.1,985.4 1333.9,955.3 1311.3,922.0 1288.3,885.1 1264.8,844.5 1240.7,800.0 1216.1,751.3 1190.8,698.2 1164.8,640.4 1138.1,577.6 1110.7,509.5  Z" style="stroke-width: 2.0;  stroke: rgb(82,82,82); fill: rgb(204,255,255); opacity: 0.667;" />
<path d="M 1110.703,509.507 A 1064.250,1064.250 0.00 0,1 1114.2,508.2 L 1114.2,508.2 1141.4,576.3 1167.8,639.2 1193.6,697.1 1218.7,750.3 1243.3,799.1 1267.2,843.7 1290.6,884.4 1313.6,921.4 1336.2,954.9 1358.4,985.0 1380.3,1012.0 1401.9,1036.0 1423.4,1057.2 1444.8,1075.6 1466.1,1091.5 1487.5,1104.8 1509.0,1115.7 1530.7,1124.2 1552.6,1130.3 1574.9,1134.2 1597.7,1135.8 1621.0,1135.1 1644.9,1132.1 1669.5,1126.7 1694.9,1119.0 1721.2,1108.9 1748.6,1096.2 1777.1,1080.9 1806.8,1062.8 1837.8,1041.9 1870.3,1018.0 1904.4,990.9 1940.2,960.5 1977.8,926.5 2017.3,888.8 2058.9,847.2 2102.6,801.3 2148.7,751.0 2197.3,696.0  A 1064.250,1064.250 0.00 0,0 2194.5,693.6 L 2194.5,693.6 2146.1,748.8 2100.2,799.2 2056.6,845.2 2015.2,887.0 1975.8,924.9 1938.3,958.9 1902.6,989.5 1868.7,1016.7 1836.2,1040.7 1805.3,1061.7 1775.6,1079.9 1747.2,1095.3 1719.9,1108.1 1693.6,1118.4 1668.2,1126.2 1643.6,1131.6 1619.7,1134.7 1596.4,1135.5 1573.7,1133.9 1551.3,1130.2 1529.4,1124.1 1507.7,1115.6 1486.1,1104.8 1464.7,1091.6 1443.3,1075.8 1421.9,1057.5 1400.3,1036.4 1378.6,1012.4 1356.6,985.5 1334.3,955.5 1311.6,922.1 1288.5,885.2 1264.9,844.6 1240.8,800.0 1216.1,751.3 1190.8,698.2 1164.8,640.4 1138.1,577.6 1110.7,509.5  Z" style="stroke-width: 2.0;  stroke: rgb(82,82,82); fill: rgb(153,0,204); opacity: 0.667;" />
<path d="M 1110.703,509.507 A 1064.250,1064.250 0.00 0,1 1114.2,508.2 L 1114.2,508.2 1139.9,577.3 1162.3,643.2 1181.6,706.0 1198.0,765.9 1211.8,823.1 1223.3,877.8 1232.7,930.1 1240.2,980.2 1245.9,1028.4 1250.0,1074.7 1252.8,1119.4 1254.2,1162.7 1254.5,1204.6 1253.8,1245.5 1252.0,1285.3 1249.4,1324.3 1245.8,1362.7 1241.4,1400.5 1236.2,1438.0 1230.2,1475.3 1223.2,1512.6 1215.4,1549.9 1206.6,1587.4 1196.8,1625.2 1185.9,1663.6 1173.7,1702.5 1160.2,1742.2 1145.1,1782.8 1128.3,1824.4 1109.7,1867.0 1089.1,1910.9 1066.1,1956.1 1040.7,2002.8 1012.5,2051.0 981.3,2100.8 946.8,2152.5 908.6,2205.9 866.5,2261.4 820.2,2318.8  A 1064.250,1064.250 0.00 0,0 823.1,2321.2 L 823.1,2321.2 869.2,2263.6 911.1,2208.0 949.0,2154.4 983.4,2102.6 1014.4,2052.7 1042.5,2004.3 1067.7,1957.6 1090.5,1912.3 1111.0,1868.4 1129.5,1825.6 1146.1,1784.0 1161.0,1743.4 1174.4,1703.7 1186.5,1664.7 1197.3,1626.3 1207.0,1588.4 1215.6,1550.8 1223.3,1513.5 1230.1,1476.3 1236.0,1439.0 1241.1,1401.4 1245.3,1363.6 1248.7,1325.2 1251.3,1286.2 1252.9,1246.3 1253.5,1205.5 1253.1,1163.6 1251.4,1120.3 1248.6,1075.6 1244.2,1029.3 1238.3,981.1 1230.7,931.0 1221.2,878.7 1209.5,824.1 1195.4,767.0 1178.8,707.2 1159.3,644.4 1136.7,578.6 1110.7,509.5  Z" style="stroke-width: 2.0;  stroke: rgb(82,82,82); fill: rgb(204,51,255); opacity: 0.667;" />
<path d="M 1110.703,509.507 A 1064.250,1064.250 0.00 0,1 1114.2,508.2 L 1114.2,508.2 1140.2,576.7 1163.4,640.7 1183.8,700.5 1201.6,756.1 1216.9,808.0 1229.9,856.3 1240.7,901.1 1249.3,942.8 1255.9,981.4 1260.6,1017.2 1263.4,1050.3 1264.3,1080.9 1263.4,1109.1 1260.8,1135.0 1256.5,1158.8 1250.4,1180.6 1242.6,1200.4 1233.0,1218.4 1221.7,1234.6 1208.5,1249.1 1193.5,1262.0 1176.5,1273.3 1157.5,1283.1 1136.5,1291.3 1113.2,1297.9 1087.7,1303.1 1059.7,1306.7 1029.2,1308.8 996.0,1309.3 959.9,1308.2 920.8,1305.4 878.5,1300.9 832.8,1294.6 783.5,1286.4 730.4,1276.3 673.2,1264.1 611.8,1249.6 545.8,1232.9 475.0,1213.7  A 1064.250,1064.250 0.00 0,0 474.0,1217.3 L 474.0,1217.3 544.8,1236.2 610.9,1252.7 672.4,1266.9 729.6,1279.0 782.8,1288.9 832.1,1296.9 877.8,1303.1 920.1,1307.4 959.2,1310.1 995.3,1311.1 1028.5,1310.4 1059.1,1308.2 1087.0,1304.5 1112.5,1299.3 1135.8,1292.5 1156.8,1284.3 1175.7,1274.5 1192.6,1263.1 1207.6,1250.2 1220.7,1235.6 1232.0,1219.3 1241.5,1201.3 1249.3,1181.4 1255.3,1159.7 1259.6,1135.8 1262.1,1109.9 1262.8,1081.7 1261.8,1051.1 1258.9,1018.0 1254.1,982.3 1247.4,943.7 1238.6,902.0 1227.7,857.2 1214.5,809.0 1199.0,757.2 1181.0,701.6 1160.4,641.9 1137.0,578.0 1110.7,509.5  Z" style="stroke-width: 2.0;  stroke: rgb(82,82,82); fill: rgb(204,153,255); opacity: 0.667;" />
<path d="M 1173.240,487.155 A 1064.250,1064.250 0.00 0,1 1176.8,486.0 L 1176.8,486.0 1199.2,555.7 1220.5,620.0 1240.6,679.2 1259.7,733.5 1277.7,783.2 1294.7,828.5 1310.9,869.6 1326.1,906.8 1340.6,940.1 1354.4,969.8 1367.4,996.0 1379.8,1018.9 1391.6,1038.5 1402.8,1055.0 1413.5,1068.5 1423.7,1079.0 1433.6,1086.6 1443.0,1091.3 1452.0,1093.2 1460.8,1092.3 1469.2,1088.5 1477.4,1081.9 1485.4,1072.4 1493.2,1060.0 1500.8,1044.5 1508.3,1026.0 1515.7,1004.3 1522.9,979.4 1530.1,951.0 1537.3,919.1 1544.4,883.4 1551.4,843.9 1558.5,800.3 1565.6,752.4 1572.7,700.0 1579.8,642.9 1586.9,580.8 1594.1,513.5 1601.3,440.6  A 1064.250,1064.250 0.00 0,0 1597.6,440.2 L 1597.6,440.2 1590.7,513.1 1583.7,580.5 1576.8,642.6 1569.9,699.8 1563.0,752.2 1556.1,800.1 1549.1,843.7 1542.2,883.3 1535.2,918.9 1528.2,950.9 1521.1,979.3 1513.9,1004.3 1506.7,1026.0 1499.2,1044.5 1491.7,1060.0 1483.9,1072.4 1476.0,1082.0 1467.8,1088.6 1459.4,1092.4 1450.6,1093.4 1441.6,1091.5 1432.1,1086.8 1422.3,1079.3 1412.0,1068.8 1401.2,1055.4 1390.0,1038.9 1378.1,1019.3 1365.6,996.5 1352.5,970.3 1338.7,940.7 1324.1,907.4 1308.7,870.3 1292.4,829.2 1275.2,784.0 1257.0,734.3 1237.8,680.1 1217.5,621.0 1196.0,556.8 1173.2,487.2  Z" style="stroke-width: 2.0;  stroke: rgb(82,82,82); fill: rgb(102,102,102); opacity: 0.667;" />
<path d="M 1173.240,487.155 A 1064.250,1064.250 0.00 0,1 1176.8,486.0 L 1176.8,486.0 1199.3,555.7 1220.8,620.0 1241.3,679.2 1260.8,733.5 1279.4,783.1 1297.2,828.4 1314.2,869.6 1330.4,906.7 1346.0,940.1 1360.9,969.9 1375.2,996.2 1389.0,1019.1 1402.4,1038.9 1415.3,1055.6 1427.8,1069.2 1439.9,1080.0 1451.8,1087.8 1463.5,1092.9 1474.9,1095.1 1486.2,1094.6 1497.3,1091.2 1508.4,1085.1 1519.5,1076.1 1530.6,1064.3 1541.7,1049.5 1553.0,1031.7 1564.3,1010.7 1575.9,986.5 1587.6,959.0 1599.6,927.9 1611.9,893.2 1624.5,854.7 1637.5,812.1 1650.8,765.3 1664.6,714.1 1678.8,658.1 1693.5,597.3 1708.7,531.2 1724.5,459.7  A 1064.250,1064.250 0.00 0,0 1720.9,458.9 L 1720.9,458.9 1705.4,530.5 1690.4,596.6 1675.9,657.5 1661.9,713.5 1648.3,764.8 1635.1,811.6 1622.3,854.2 1609.8,892.8 1597.7,927.6 1585.8,958.7 1574.1,986.3 1562.6,1010.5 1551.3,1031.5 1540.2,1049.3 1529.1,1064.2 1518.0,1076.1 1507.0,1085.1 1495.9,1091.2 1484.8,1094.6 1473.5,1095.2 1462.0,1093.0 1450.4,1088.0 1438.5,1080.2 1426.3,1069.5 1413.7,1055.9 1400.8,1039.2 1387.4,1019.5 1373.5,996.6 1359.0,970.4 1344.0,940.6 1328.3,907.3 1312.0,870.2 1294.8,829.1 1276.9,783.9 1258.1,734.3 1238.4,680.1 1217.7,621.0 1196.0,556.8 1173.2,487.2  Z" style="stroke-width: 2.0;  stroke: rgb(82,82,82); fill: rgb(153,153,153); opacity: 0.667;" />
<path d="M 1173.240,487.155 A 1064.250,1064.250 0.00 0,1 1176.8,486.0 L 1176.8,486.0 1199.6,555.7 1222.0,620.1 1243.9,679.5 1265.4,734.1 1286.5,784.2 1307.2,830.0 1327.6,871.9 1347.7,910.0 1367.6,944.5 1387.2,975.7 1406.7,1003.6 1426.1,1028.5 1445.5,1050.4 1464.9,1069.6 1484.3,1086.1 1503.9,1100.0 1523.7,1111.4 1543.8,1120.3 1564.3,1126.9 1585.1,1131.1 1606.5,1132.9 1628.5,1132.5 1651.2,1129.6 1674.6,1124.4 1699.0,1116.7 1724.2,1106.5 1750.6,1093.8 1778.1,1078.4 1806.9,1060.2 1837.1,1039.1 1868.7,1014.9 1902.0,987.6 1937.0,956.8 1973.9,922.6 2012.7,884.5 2053.7,842.5 2096.9,796.3 2142.4,745.6 2190.5,690.1  A 1064.250,1064.250 0.00 0,0 2187.6,687.7 L 2187.6,687.7 2139.8,743.3 2094.4,794.2 2051.4,840.6 2010.6,882.7 1971.9,920.9 1935.1,955.3 1900.2,986.2 1867.1,1013.6 1835.5,1037.9 1805.4,1059.1 1776.6,1077.4 1749.2,1092.9 1722.9,1105.8 1697.6,1116.0 1673.3,1123.8 1649.9,1129.1 1627.2,1132.0 1605.3,1132.6 1583.9,1130.8 1563.0,1126.7 1542.5,1120.2 1522.4,1111.3 1502.5,1100.0 1482.9,1086.1 1463.4,1069.7 1443.9,1050.6 1424.5,1028.7 1405.0,1003.9 1385.4,976.1 1365.6,945.0 1345.7,910.5 1325.4,872.5 1304.9,830.7 1284.0,784.9 1262.7,734.9 1241.1,680.4 1218.9,621.1 1196.3,556.8 1173.2,487.2  Z" style="stroke-width: 2.0;  stroke: rgb(82,82,82); fill: rgb(204,204,204); opacity: 0.667;" />
<path d="M 1173.240,487.155 A 1064.250,1064.250 0.00 0,1 1176.8,486.0 L 1176.8,486.0 1199.6,555.7 1222.0,620.1 1244.0,679.5 1265.5,734.1 1286.6,784.2 1307.4,830.1 1327.8,872.0 1348.0,910.1 1367.9,944.7 1387.7,975.8 1407.2,1003.8 1426.7,1028.7 1446.2,1050.7 1465.7,1070.0 1485.2,1086.5 1504.9,1100.5 1524.9,1112.0 1545.1,1121.1 1565.6,1127.7 1586.7,1132.1 1608.2,1134.1 1630.4,1133.7 1653.2,1131.0 1676.8,1126.0 1701.3,1118.5 1726.8,1108.5 1753.4,1095.9 1781.1,1080.7 1810.2,1062.8 1840.6,1041.9 1872.6,1018.0 1906.1,991.0 1941.5,960.6 1978.7,926.6 2017.9,888.9 2059.2,847.2 2102.8,801.4 2148.8,751.0 2197.3,696.0  A 1064.250,1064.250 0.00 0,0 2194.5,693.6 L 2194.5,693.6 2146.2,748.8 2100.4,799.3 2056.9,845.3 2015.7,887.1 1976.7,924.9 1939.6,959.0 1904.4,989.6 1870.9,1016.8 1839.0,1040.7 1808.6,1061.7 1779.7,1079.8 1752.0,1095.1 1725.5,1107.7 1700.0,1117.8 1675.5,1125.3 1651.9,1130.5 1629.1,1133.3 1606.9,1133.7 1585.4,1131.8 1564.4,1127.5 1543.8,1120.9 1523.5,1111.9 1503.5,1100.5 1483.8,1086.6 1464.2,1070.1 1444.6,1050.9 1425.1,1029.0 1405.5,1004.1 1385.8,976.2 1366.0,945.1 1346.0,910.6 1325.7,872.6 1305.1,830.8 1284.1,784.9 1262.8,734.9 1241.1,680.4 1219.0,621.1 1196.3,556.8 1173.2,487.2  Z" style="stroke-width: 2.0;  stroke: rgb(82,82,82); fill: rgb(204,204,153); opacity: 0.667;" />
<path d="M 1173.240,487.155 A 1064.250,1064.250 0.00 0,1 1176.8,486.0 L 1176.8,486.0 1198.2,556.7 1216.4,624.0 1231.7,688.1 1244.3,749.1 1254.6,807.3 1262.7,862.9 1268.8,916.1 1273.2,967.0 1276.1,1015.9 1277.6,1063.0 1277.8,1108.3 1276.8,1152.2 1274.9,1194.7 1272.1,1236.0 1268.4,1276.4 1263.9,1315.9 1258.7,1354.8 1252.8,1393.1 1246.2,1431.0 1238.8,1468.8 1230.8,1506.5 1221.9,1544.2 1212.1,1582.2 1201.5,1620.5 1189.7,1659.3 1176.9,1698.7 1162.7,1738.8 1147.1,1779.8 1129.9,1821.8 1111.0,1864.8 1090.0,1909.1 1066.8,1954.7 1041.1,2001.7 1012.8,2050.2 981.5,2100.3 946.8,2152.1 908.7,2205.8 866.6,2261.3 820.2,2318.8  A 1064.250,1064.250 0.00 0,0 823.1,2321.2 L 823.1,2321.2 869.2,2263.5 911.1,2207.8 949.1,2154.1 983.5,2102.1 1014.7,2051.9 1042.9,2003.2 1068.4,1956.2 1091.4,1910.5 1112.2,1866.2 1131.1,1823.0 1148.1,1781.0 1163.6,1740.0 1177.6,1699.8 1190.3,1660.3 1201.9,1621.5 1212.4,1583.2 1222.0,1545.2 1230.8,1507.4 1238.7,1469.7 1246.0,1431.9 1252.4,1393.9 1258.2,1355.6 1263.3,1316.7 1267.6,1277.2 1271.2,1236.8 1273.9,1195.5 1275.6,1153.0 1276.4,1109.1 1276.0,1063.8 1274.4,1016.7 1271.4,967.8 1266.8,916.9 1260.5,863.7 1252.2,808.2 1241.7,750.0 1228.8,689.0 1213.3,625.0 1194.9,557.8 1173.2,487.2  Z" style="stroke-width: 2.0;  stroke: rgb(82,82,82); fill: rgb(251,106,74); opacity: 0.667;" />
<path d="M 1173.240,487.155 A 1064.250,1064.250 0.00 0,1 1176.8,486.0 L 1176.8,486.0 1198.5,556.1 1217.5,621.5 1234.0,682.5 1248.2,739.4 1260.0,792.4 1269.8,841.7 1277.5,887.5 1283.2,930.0 1287.1,969.5 1289.2,1006.0 1289.6,1039.8 1288.3,1071.1 1285.3,1099.9 1280.8,1126.4 1274.6,1150.8 1266.8,1173.0 1257.3,1193.4 1246.3,1211.9 1233.6,1228.6 1219.1,1243.6 1202.9,1256.9 1184.8,1268.6 1164.8,1278.8 1142.8,1287.4 1118.7,1294.4 1092.4,1300.0 1063.7,1304.0 1032.5,1306.4 998.7,1307.3 962.1,1306.5 922.5,1304.0 879.8,1299.8 833.8,1293.8 784.2,1285.8 730.8,1275.9 673.4,1263.8 611.9,1249.5 545.8,1232.9 475.0,1213.7  A 1064.250,1064.250 0.00 0,0 474.0,1217.3 L 474.0,1217.3 544.9,1236.2 611.0,1252.6 672.6,1266.7 730.0,1278.6 783.4,1288.3 833.0,1296.1 879.1,1302.0 921.9,1306.0 961.4,1308.4 998.0,1309.0 1031.8,1308.0 1063.0,1305.5 1091.7,1301.4 1118.0,1295.8 1142.1,1288.6 1164.1,1279.9 1184.0,1269.7 1202.0,1257.9 1218.2,1244.5 1232.6,1229.5 1245.3,1212.8 1256.3,1194.2 1265.6,1173.9 1273.4,1151.5 1279.5,1127.2 1284.0,1100.6 1286.8,1071.8 1288.0,1040.6 1287.5,1006.7 1285.3,970.2 1281.3,930.8 1275.3,888.3 1267.5,842.5 1257.6,793.2 1245.5,740.3 1231.2,683.5 1214.5,622.5 1195.2,557.1 1173.2,487.2  Z" style="stroke-width: 2.0;  stroke: rgb(82,82,82); fill: rgb(116,196,118); opacity: 0.667;" />
<path d="M 1173.240,487.155 A 1064.250,1064.250 0.00 0,1 1176.8,486.0 L 1176.8,486.0 1199.0,555.8 1219.4,620.3 1238.2,679.7 1255.3,734.4 1271.0,784.6 1285.2,830.5 1298.0,872.2 1309.6,910.1 1319.8,944.2 1328.9,974.8 1336.8,1001.9 1343.6,1025.7 1349.3,1046.3 1353.9,1063.9 1357.6,1078.4 1360.2,1090.1 1361.8,1098.9 1362.5,1104.9 1362.2,1108.1 1360.9,1108.5 1358.6,1106.2 1355.4,1101.2 1351.1,1093.3 1345.8,1082.6 1339.5,1069.0 1332.1,1052.4 1323.5,1032.8 1313.9,1010.0 1303.0,983.9 1290.8,954.5 1277.4,921.5 1262.6,884.8 1246.3,844.2 1228.5,799.6 1209.2,750.8 1188.1,697.4 1165.4,639.4 1140.7,576.4 1114.2,508.2  A 1064.250,1064.250 0.00 0,0 1110.7,509.5 L 1110.7,509.5 1137.5,577.6 1162.4,640.5 1185.3,698.5 1206.6,751.8 1226.1,800.6 1244.0,845.1 1260.4,885.6 1275.4,922.3 1288.9,955.2 1301.2,984.6 1312.2,1010.6 1321.9,1033.4 1330.5,1053.0 1338.0,1069.5 1344.4,1083.1 1349.7,1093.8 1354.0,1101.7 1357.3,1106.7 1359.5,1109.0 1360.8,1108.6 1361.1,1105.3 1360.4,1099.4 1358.8,1090.6 1356.1,1078.9 1352.4,1064.4 1347.7,1046.8 1341.9,1026.2 1335.1,1002.4 1327.1,975.3 1317.9,944.8 1307.5,910.8 1295.9,873.0 1282.9,831.2 1268.5,785.4 1252.7,735.3 1235.3,680.6 1216.3,621.2 1195.7,556.8 1173.2,487.2  Z" style="stroke-width: 2.0;  stroke: rgb(82,82,82); fill: rgb(107,174,214); opacity: 0.667;" />
<path d="M 1364.746,444.380 A 1064.250,1064.250 0.00 0,1 1368.4,443.9 L 1368.4,443.9 1377.6,516.5 1386.4,583.6 1394.7,645.5 1402.7,702.3 1410.4,754.4 1417.6,802.0 1424.6,845.2 1431.3,884.4 1437.8,919.7 1443.9,951.2 1449.9,979.1 1455.6,1003.5 1461.2,1024.6 1466.6,1042.5 1471.8,1057.3 1476.9,1069.0 1481.9,1077.7 1486.8,1083.4 1491.7,1086.3 1496.5,1086.2 1501.2,1083.2 1506.0,1077.3 1510.7,1068.5 1515.5,1056.6 1520.3,1041.7 1525.2,1023.7 1530.2,1002.4 1535.2,977.8 1540.3,949.8 1545.6,918.1 1551.0,882.7 1556.6,843.4 1562.3,799.9 1568.3,752.1 1574.4,699.9 1580.8,642.8 1587.4,580.8 1594.2,513.4 1601.3,440.6  A 1064.250,1064.250 0.00 0,0 1597.6,440.2 L 1597.6,440.2 1590.8,513.1 1584.2,580.5 1577.8,642.5 1571.6,699.6 1565.7,751.9 1559.9,799.7 1554.3,843.2 1548.9,882.5 1543.6,918.0 1538.4,949.6 1533.4,977.7 1528.4,1002.3 1523.6,1023.6 1518.7,1041.7 1514.0,1056.6 1509.2,1068.5 1504.5,1077.3 1499.8,1083.2 1495.0,1086.2 1490.2,1086.3 1485.4,1083.5 1480.4,1077.7 1475.4,1069.1 1470.3,1057.4 1465.0,1042.6 1459.5,1024.8 1453.9,1003.7 1448.1,979.2 1442.0,951.4 1435.7,919.9 1429.2,884.7 1422.4,845.5 1415.2,802.3 1407.8,754.7 1399.9,702.7 1391.8,645.8 1383.2,584.0 1374.2,517.0 1364.7,444.4  Z" style="stroke-width: 2.0;  stroke: rgb(82,82,82); fill: rgb(253,141,60); opacity: 0.667;" />
<path d="M 1364.746,444.380 A 1064.250,1064.250 0.00 0,1 1368.4,443.9 L 1368.4,443.9 1377.7,516.5 1386.7,583.6 1395.4,645.5 1403.8,702.4 1412.1,754.5 1420.1,802.1 1427.9,845.4 1435.6,884.7 1443.1,920.0 1450.5,951.6 1457.7,979.6 1464.9,1004.2 1472.0,1025.5 1479.0,1043.6 1486.1,1058.6 1493.1,1070.6 1500.2,1079.5 1507.3,1085.6 1514.6,1088.8 1521.9,1089.1 1529.4,1086.6 1537.0,1081.2 1544.9,1072.8 1552.9,1061.6 1561.3,1047.3 1569.9,1029.9 1578.9,1009.3 1588.2,985.4 1597.9,958.1 1608.0,927.3 1618.6,892.8 1629.7,854.4 1641.3,811.9 1653.5,765.2 1666.4,714.0 1679.8,658.1 1694.0,597.3 1708.9,531.2 1724.5,459.7  A 1064.250,1064.250 0.00 0,0 1720.9,458.9 L 1720.9,458.9 1705.5,530.5 1690.8,596.6 1676.9,657.5 1663.6,713.4 1651.0,764.7 1638.9,811.4 1627.5,853.9 1616.5,892.4 1606.0,926.9 1596.0,957.8 1586.4,985.1 1577.1,1009.0 1568.3,1029.6 1559.7,1047.0 1551.4,1061.4 1543.4,1072.7 1535.6,1081.1 1527.9,1086.5 1520.5,1089.1 1513.1,1088.8 1505.9,1085.6 1498.7,1079.6 1491.6,1070.6 1484.5,1058.6 1477.4,1043.7 1470.3,1025.6 1463.2,1004.4 1455.9,979.8 1448.5,951.8 1441.1,920.2 1433.4,884.9 1425.7,845.7 1417.7,802.4 1409.5,754.8 1401.1,702.7 1392.4,645.9 1383.5,584.0 1374.3,517.0 1364.7,444.4  Z" style="stroke-width: 2.0;  stroke: rgb(82,82,82); fill: rgb(255,0,0); opacity: 0.667;" />
<path d="M 1364.746,444.380 A 1064.250,1064.250 0.00 0,1 1368.4,443.9 L 1368.4,443.9 1378.0,516.6 1387.8,583.9 1398.0,646.0 1408.4,703.3 1419.1,756.0 1430.1,804.4 1441.3,848.7 1452.8,889.1 1464.5,925.8 1476.6,959.0 1489.0,988.8 1501.7,1015.5 1514.9,1039.2 1528.4,1059.9 1542.3,1077.9 1556.8,1093.1 1571.8,1105.7 1587.4,1115.8 1603.6,1123.3 1620.5,1128.4 1638.2,1131.0 1656.8,1131.2 1676.2,1128.9 1696.7,1124.1 1718.2,1116.8 1740.9,1106.9 1764.9,1094.3 1790.2,1079.0 1816.9,1060.9 1845.3,1039.8 1875.3,1015.6 1907.1,988.2 1940.8,957.4 1976.5,923.0 2014.5,884.8 2054.7,842.7 2097.3,796.4 2142.5,745.6 2190.5,690.1  A 1064.250,1064.250 0.00 0,0 2187.6,687.7 L 2187.6,687.7 2139.9,743.4 2094.8,794.3 2052.4,840.8 2012.3,883.1 1974.5,921.4 1938.9,955.9 1905.3,986.8 1873.6,1014.3 1843.7,1038.6 1815.4,1059.8 1788.7,1078.0 1763.4,1093.4 1739.5,1106.1 1716.9,1116.0 1695.4,1123.4 1674.9,1128.3 1655.5,1130.6 1636.9,1130.5 1619.2,1128.0 1602.3,1123.0 1586.0,1115.5 1570.4,1105.5 1555.4,1092.9 1540.9,1077.7 1526.9,1059.8 1513.3,1039.1 1500.1,1015.5 1487.2,988.9 1474.7,959.1 1462.5,925.9 1450.6,889.3 1439.0,848.9 1427.6,804.7 1416.5,756.3 1405.6,703.6 1395.0,646.4 1384.7,584.3 1374.6,517.0 1364.7,444.4  Z" style="stroke-width: 2.0;  stroke: rgb(82,82,82); fill: rgb(255,0,204); opacity: 0.667;" />
<path d="M 1364.746,444.380 A 1064.250,1064.250 0.00 0,1 1368.4,443.9 L 1368.4,443.9 1378.0,516.6 1387.9,583.9 1398.0,646.0 1408.5,703.4 1419.2,756.1 1430.2,804.5 1441.5,848.8 1453.0,889.2 1464.9,925.9 1477.0,959.2 1489.5,989.1 1502.3,1015.8 1515.5,1039.6 1529.2,1060.4 1543.2,1078.4 1557.8,1093.7 1572.9,1106.4 1588.6,1116.6 1605.0,1124.2 1622.0,1129.4 1639.9,1132.2 1658.6,1132.5 1678.2,1130.3 1698.8,1125.7 1720.6,1118.6 1743.5,1108.9 1767.6,1096.5 1793.2,1081.5 1820.2,1063.6 1848.8,1042.7 1879.1,1018.8 1911.2,991.7 1945.2,961.1 1981.3,927.0 2019.6,889.2 2060.2,847.4 2103.2,801.5 2148.9,751.1 2197.3,696.0  A 1064.250,1064.250 0.00 0,0 2194.5,693.6 L 2194.5,693.6 2146.3,748.8 2100.8,799.4 2057.9,845.5 2017.5,887.4 1979.3,925.4 1943.3,959.6 1909.4,990.2 1877.4,1017.5 1847.2,1041.5 1818.7,1062.4 1791.7,1080.4 1766.2,1095.6 1742.1,1108.0 1719.2,1117.8 1697.5,1125.0 1676.9,1129.7 1657.3,1131.9 1638.6,1131.7 1620.7,1129.0 1603.7,1123.9 1587.3,1116.3 1571.5,1106.2 1556.4,1093.5 1541.8,1078.2 1527.6,1060.3 1513.9,1039.5 1500.7,1015.8 1487.7,989.1 1475.2,959.3 1462.9,926.1 1450.9,889.4 1439.2,849.0 1427.8,804.7 1416.6,756.4 1405.7,703.7 1395.1,646.4 1384.7,584.3 1374.6,517.0 1364.7,444.4  Z" style="stroke-width: 2.0;  stroke: rgb(82,82,82); fill: rgb(255,204,204); opacity: 0.667;" />
<path d="M 1364.746,444.380 A 1064.250,1064.250 0.00 0,1 1368.4,443.9 L 1368.4,443.9 1376.4,517.5 1381.9,587.2 1385.1,653.5 1386.2,716.5 1385.5,776.5 1383.3,833.6 1379.6,888.2 1374.8,940.4 1368.9,990.4 1362.2,1038.4 1354.7,1084.7 1346.5,1129.4 1337.8,1172.8 1328.6,1214.9 1319.1,1256.1 1309.1,1296.4 1298.9,1336.0 1288.3,1375.1 1277.3,1413.9 1266.1,1452.6 1254.4,1491.1 1242.2,1529.8 1229.5,1568.7 1216.1,1608.0 1202.0,1647.9 1187.1,1688.3 1171.0,1729.5 1153.8,1771.6 1135.2,1814.6 1115.0,1858.7 1093.0,1904.0 1069.0,1950.6 1042.7,1998.5 1013.8,2047.9 982.1,2098.8 947.2,2151.2 908.8,2205.4 866.6,2261.2 820.2,2318.8  A 1064.250,1064.250 0.00 0,0 823.1,2321.2 L 823.1,2321.2 869.2,2263.4 911.2,2207.4 949.4,2153.2 984.1,2100.6 1015.7,2049.6 1044.4,2000.1 1070.6,1952.1 1094.4,1905.5 1116.3,1860.1 1136.3,1815.9 1154.8,1772.8 1171.8,1730.7 1187.7,1689.4 1202.6,1648.9 1216.5,1609.0 1229.7,1569.7 1242.3,1530.7 1254.3,1492.0 1265.9,1453.4 1277.0,1414.7 1287.8,1375.9 1298.3,1336.7 1308.4,1297.0 1318.2,1256.7 1327.6,1215.5 1336.7,1173.3 1345.2,1130.0 1353.2,1085.2 1360.6,1038.9 1367.2,990.8 1372.9,940.8 1377.5,888.6 1381.0,834.0 1383.0,776.9 1383.5,716.9 1382.1,653.9 1378.7,587.7 1373.0,517.9 1364.7,444.4  Z" style="stroke-width: 2.0;  stroke: rgb(82,82,82); fill: rgb(255,153,0); opacity: 0.667;" />
<path d="M 1364.746,444.380 A 1064.250,1064.250 0.00 0,1 1368.4,443.9 L 1368.4,443.9 1376.8,516.9 1383.3,584.9 1387.9,648.3 1390.8,707.3 1392.1,762.2 1391.9,813.2 1390.2,860.7 1387.1,904.7 1382.7,945.5 1377.0,983.3 1370.1,1018.3 1361.9,1050.6 1352.6,1080.5 1342.0,1108.0 1330.1,1133.3 1317.1,1156.5 1302.8,1177.7 1287.2,1197.1 1270.2,1214.6 1251.8,1230.5 1231.9,1244.7 1210.4,1257.3 1187.3,1268.3 1162.4,1277.8 1135.7,1285.7 1106.9,1292.1 1076.0,1297.0 1042.8,1300.3 1007.2,1302.0 968.9,1302.0 927.9,1300.3 883.9,1296.9 836.8,1291.5 786.3,1284.2 732.1,1274.8 674.2,1263.2 612.2,1249.2 545.9,1232.8 475.0,1213.7  A 1064.250,1064.250 0.00 0,0 474.0,1217.3 L 474.0,1217.3 545.0,1236.1 611.3,1252.3 673.4,1266.0 731.4,1277.5 785.5,1286.7 836.1,1293.8 883.2,1299.0 927.2,1302.3 968.2,1303.9 1006.5,1303.7 1042.1,1301.9 1075.3,1298.5 1106.2,1293.5 1134.9,1287.0 1161.6,1279.0 1186.5,1269.4 1209.6,1258.3 1231.0,1245.6 1250.8,1231.4 1269.2,1215.4 1286.1,1197.8 1301.7,1178.4 1315.9,1157.1 1328.9,1133.9 1340.6,1108.5 1351.1,1081.0 1360.4,1051.1 1368.4,1018.7 1375.2,983.7 1380.8,945.9 1385.1,905.1 1388.0,861.1 1389.5,813.6 1389.5,762.6 1388.1,707.7 1384.9,648.7 1380.1,585.3 1373.4,517.3 1364.7,444.4  Z" style="stroke-width: 2.0;  stroke: rgb(82,82,82); fill: rgb(255,204,0); opacity: 0.667;" />
<path d="M 1364.746,444.380 A 1064.250,1064.250 0.00 0,1 1368.4,443.9 L 1368.4,443.9 1377.3,516.6 1385.2,583.8 1392.2,645.8 1398.3,702.9 1403.6,755.3 1408.0,803.3 1411.6,847.0 1414.5,886.7 1416.7,922.5 1418.2,954.6 1419.0,983.2 1419.1,1008.4 1418.5,1030.4 1417.3,1049.2 1415.5,1064.9 1412.9,1077.7 1409.8,1087.5 1405.9,1094.5 1401.4,1098.6 1396.1,1099.9 1390.2,1098.4 1383.5,1094.1 1376.0,1087.0 1367.7,1077.0 1358.6,1064.0 1348.6,1048.1 1337.7,1029.0 1325.8,1006.8 1312.9,981.2 1299.0,952.2 1283.9,919.7 1267.6,883.4 1250.0,843.2 1231.1,798.9 1210.9,750.3 1189.1,697.1 1165.8,639.2 1140.8,576.3 1114.2,508.2  A 1064.250,1064.250 0.00 0,0 1110.7,509.5 L 1110.7,509.5 1137.6,577.6 1162.8,640.4 1186.3,698.2 1208.3,751.3 1228.7,799.8 1247.7,844.1 1265.4,884.2 1281.8,920.4 1297.1,952.9 1311.1,981.9 1324.1,1007.4 1336.1,1029.6 1347.0,1048.6 1357.1,1064.5 1366.3,1077.4 1374.6,1087.4 1382.1,1094.5 1388.8,1098.8 1394.7,1100.3 1400.0,1098.9 1404.5,1094.8 1408.3,1087.8 1411.5,1078.0 1413.9,1065.2 1415.8,1049.5 1416.9,1030.7 1417.4,1008.7 1417.2,983.5 1416.3,954.9 1414.7,922.8 1412.4,887.0 1409.4,847.3 1405.6,803.6 1401.0,755.6 1395.5,703.3 1389.2,646.2 1382.0,584.2 1373.9,517.0 1364.7,444.4  Z" style="stroke-width: 2.0;  stroke: rgb(82,82,82); fill: rgb(255,255,0); opacity: 0.667;" />
<path d="M 1364.746,444.380 A 1064.250,1064.250 0.00 0,1 1368.4,443.9 L 1368.4,443.9 1377.4,516.6 1385.4,583.8 1392.5,645.7 1398.9,702.8 1404.5,755.1 1409.3,802.9 1413.3,846.5 1416.7,886.1 1419.5,921.7 1421.6,953.7 1423.0,982.1 1423.8,1007.1 1424.1,1028.8 1423.7,1047.3 1422.8,1062.7 1421.2,1075.1 1419.1,1084.6 1416.4,1091.2 1413.1,1094.9 1409.1,1095.8 1404.5,1093.8 1399.3,1089.0 1393.4,1081.2 1386.8,1070.6 1379.5,1057.0 1371.4,1040.3 1362.5,1020.5 1352.8,997.5 1342.2,971.1 1330.7,941.2 1318.2,907.7 1304.7,870.4 1290.2,829.1 1274.5,783.6 1257.6,733.8 1239.5,679.4 1220.0,620.1 1199.1,555.7 1176.8,486.0  A 1064.250,1064.250 0.00 0,0 1173.2,487.2 L 1173.2,487.2 1195.8,556.8 1216.9,621.1 1236.6,680.3 1254.9,734.6 1272.0,784.4 1287.9,829.8 1302.6,871.1 1316.2,908.3 1328.8,941.8 1340.4,971.7 1351.0,998.0 1360.8,1021.0 1369.8,1040.8 1377.9,1057.4 1385.3,1071.0 1391.9,1081.6 1397.9,1089.3 1403.1,1094.1 1407.7,1096.1 1411.7,1095.2 1415.0,1091.5 1417.7,1084.9 1419.8,1075.4 1421.3,1063.0 1422.2,1047.5 1422.4,1029.0 1422.1,1007.3 1421.2,982.4 1419.7,954.0 1417.5,922.0 1414.6,886.4 1411.1,846.8 1406.8,803.3 1401.9,755.4 1396.1,703.1 1389.6,646.1 1382.2,584.2 1373.9,517.0 1364.7,444.4  Z" style="stroke-width: 2.0;  stroke: rgb(82,82,82); fill: rgb(204,255,0); opacity: 0.667;" />
<path d="M 1130.305,502.025 A 1064.250,1064.250 0.00 0,1 1142.2,497.7 L 1142.2,497.7 1167.0,566.6 1190.4,630.1 1212.5,688.6 1233.2,742.2 1252.8,791.3 1271.1,836.0 1288.4,876.6 1304.7,913.2 1320.0,946.0 1334.4,975.3 1347.9,1001.0 1360.6,1023.5 1372.6,1042.7 1383.9,1058.8 1394.6,1071.9 1404.6,1082.0 1414.0,1089.3 1423.0,1093.6 1431.4,1095.2 1439.3,1093.9 1446.8,1089.8 1453.9,1082.9 1460.7,1073.1 1467.0,1060.3 1473.1,1044.6 1478.8,1025.8 1484.2,1003.8 1489.4,978.5 1494.2,949.8 1498.8,917.5 1503.1,881.5 1507.2,841.7 1511.0,797.8 1514.6,749.5 1517.9,696.8 1520.9,639.4 1523.6,577.0 1526.1,509.3 1528.3,436.1  A 1064.250,1064.250 0.00 0,0 1515.7,435.9 L 1515.7,435.9 1514.4,509.1 1512.7,576.8 1510.7,639.2 1508.3,696.7 1505.7,749.4 1502.7,797.7 1499.4,841.7 1495.8,881.6 1491.9,917.6 1487.7,949.9 1483.2,978.6 1478.3,1004.0 1473.2,1026.0 1467.7,1044.9 1461.8,1060.7 1455.6,1073.6 1449.0,1083.5 1442.0,1090.5 1434.5,1094.7 1426.6,1096.0 1418.1,1094.6 1409.2,1090.3 1399.6,1083.2 1389.5,1073.2 1378.7,1060.2 1367.2,1044.2 1355.0,1025.2 1342.0,1002.9 1328.1,977.3 1313.4,948.2 1297.7,915.6 1281.0,879.1 1263.2,838.8 1244.3,794.3 1224.2,745.5 1202.8,692.1 1180.1,633.9 1156.0,570.6 1130.3,502.0  Z" style="stroke-width: 2.0;  stroke: rgb(82,82,82); fill: rgb(0,255,0); opacity: 0.667;" />
</g>
<defs>
<pattern id="hline-sparse" width="10" height="10" patternTransform="rotate(0 0 0)" patternUnits="userSpaceOnUse"><line x1="0" y1="0" x2="10" y2="0" style="stroke:black;stroke-width:2" /></pattern>
<pattern id="checker" width="10" height="10" patternTransform="rotate(45 0 0)" patternUnits="userSpaceOnUse"><line x1="0" y1="0" x2="10" y2="0" style="stroke:black;stroke-width:2" /><line x1="0" y1="0" x2="0" y2="10" style="stroke:black;stroke-width:2" /></pattern>
<pattern id="checker" width="10" height="10" patternTransform="rotate(45 0 0)" patternUnits="userSpaceOnUse"><line x1="0" y1="0" x2="10" y2="0" style="stroke:black;stroke-width:5" /><line x1="0" y1="0" x2="0" y2="10" style="stroke:black;stroke-width:4" /></pattern>
<pattern id="hline" width="10" height="10" patternTransform="rotate(0 0 0)" patternUnits="userSpaceOnUse"><line x1="0" y1="0" x2="10" y2="0" style="stroke:black;stroke-width:5" /></pattern>
<pattern id="vline-sparse" width="10" height="10" patternTransform="rotate(0 0 0)" patternUnits="userSpaceOnUse"><line x1="0" y1="0" x2="0" y2="10" style="stroke:black;stroke-width:2" /></pattern>
<pattern id="vline" width="10" height="10" patternTransform="rotate(0 0 0)" patternUnits="userSpaceOnUse"><line x1="0" y1="0" x2="0" y2="10" style="stroke:black;stroke-width:5" /></pattern>
</defs>
</svg>
