<?xml version="1.0" encoding="utf-8" standalone="no"?>
<!DOCTYPE svg PUBLIC "-//W3C//DTD SVG 1.1//EN" "http://www.w3.org/Graphics/SVG/1.1/DTD/svg11.dtd">
<svg width="3000px" height="3000px" version="1.1" xmlns="http://www.w3.org/2000/svg" xmlns:xlink="http://www.w3.org/1999/xlink">
<g id="ideograms">
<path d="M1500.000,425.000 A1075.000,1075.000 40.000 0,1 1560.997,426.732 L1563.835,376.813 A1125.000,1125.000 0.000 0,0 1500.000,375.000 Z" style="stroke-linecap:round;fill:rgb(116,196,118);fill-opacity:0.33;" />
<text x="1544.0" y="285.8" font-size="18.2px" font-family="CMUBright-Roman" style="text-anchor:start;fill:rgb(0,0,0);" transform="rotate(271.6,1544.0,285.8)" >R<tspan baseline-shift="-40%" font-size="90%">s</tspan>caffold<tspan baseline-shift="-40%" font-size="90%">3</tspan>0</text>
<line x1='1500.0' y1='375.0' x2='1500.0' y2='355.0' style="stroke-width:4.0;stroke:rgb(0,0,0);stroke-linecap:round;fill:none;" />
<text x="1506.5" y="345.0" font-size="18.2px" font-family="CMUBright-Roman" style="text-anchor:start;fill:rgb(0,0,0);" transform="rotate(270.0,1506.5,345.0)" >0</text>
<g id="highlighttrack_0">
<path d="M1515.782,425.116 A1075.000,1075.000 40.000 0,1 1528.460,425.377 L1529.784,375.394 A1125.000,1125.000 0.000 0,0 1516.516,375.121 Z" style="stroke-width:4.0;stroke:rgb(0,0,0);stroke-linecap:round;fill:rgb(116,196,118);" />
</g>
<path d="M1626.315,432.447 A1075.000,1075.000 40.000 0,1 1630.319,432.928 L1636.381,383.297 A1125.000,1125.000 0.000 0,0 1632.190,382.793 Z" style="stroke-linecap:round;fill:rgb(116,196,118);fill-opacity:0.33;" />
<text x="1654.5" y="294.9" font-size="18.2px" font-family="CMUBright-Roman" style="text-anchor:start;fill:rgb(0,0,0);" transform="rotate(276.9,1654.5,294.9)" >R<tspan baseline-shift="-40%" font-size="90%">s</tspan>caffold<tspan baseline-shift="-40%" font-size="90%">3</tspan>7</text>
<line x1='1632.2' y1='382.8' x2='1634.5' y2='362.9' style="stroke-width:4.0;stroke:rgb(0,0,0);stroke-linecap:round;fill:none;" />
<text x="1642.2" y="353.8" font-size="18.2px" font-family="CMUBright-Roman" style="text-anchor:start;fill:rgb(0,0,0);" transform="rotate(276.7,1642.2,353.8)" >0</text>
<g id="highlighttrack_0">
<path d="M1626.560,432.476 A1075.000,1075.000 40.000 0,1 1630.257,432.921 L1636.316,383.289 A1125.000,1125.000 0.000 0,0 1632.446,382.824 Z" style="stroke-width:4.0;stroke:rgb(0,0,0);stroke-linecap:round;fill:rgb(116,196,118);" />
</g>
<path d="M1695.130,442.858 A1075.000,1075.000 40.000 1,1 1434.464,427.000 L1431.416,377.093 A1125.000,1125.000 0.000 1,0 1704.206,393.689 Z" style="stroke-linecap:round;fill:rgb(116,196,118);fill-opacity:0.33;" />
<text x="1435.7" y="2713.3" font-size="18.2px" font-family="CMUBright-Roman" style="text-anchor:end;fill:rgb(0,0,0);" transform="rotate(-86.5,1435.7,2713.3)" >NZ<tspan baseline-shift="-40%" font-size="90%">C</tspan>P020472.1</text>
<line x1='1704.2' y1='393.7' x2='1707.8' y2='374.0' style="stroke-width:4.0;stroke:rgb(0,0,0);stroke-linecap:round;fill:none;" />
<text x="1716.0" y="365.4" font-size="18.2px" font-family="CMUBright-Roman" style="text-anchor:start;fill:rgb(0,0,0);" transform="rotate(280.5,1716.0,365.4)" >0</text>
<line x1='1770.9' y1='408.1' x2='1775.7' y2='388.7' style="stroke-width:4.0;stroke:rgb(0,0,0);stroke-linecap:round;fill:none;" />
<text x="1784.5" y="380.6" font-size="18.2px" font-family="CMUBright-Roman" style="text-anchor:start;fill:rgb(0,0,0);" transform="rotate(283.9,1784.5,380.6)" >50</text>
<line x1='1836.7' y1='426.6' x2='1842.6' y2='407.5' style="stroke-width:4.0;stroke:rgb(0,0,0);stroke-linecap:round;fill:none;" />
<text x="1851.8" y="399.9" font-size="18.2px" font-family="CMUBright-Roman" style="text-anchor:start;fill:rgb(0,0,0);" transform="rotate(287.4,1851.8,399.9)" >100</text>
<line x1='1901.2' y1='449.0' x2='1908.3' y2='430.3' style="stroke-width:4.0;stroke:rgb(0,0,0);stroke-linecap:round;fill:none;" />
<text x="1917.9" y="423.3" font-size="18.2px" font-family="CMUBright-Roman" style="text-anchor:start;fill:rgb(0,0,0);" transform="rotate(290.9,1917.9,423.3)" >150</text>
<line x1='1964.2' y1='475.2' x2='1972.4' y2='457.0' style="stroke-width:4.0;stroke:rgb(0,0,0);stroke-linecap:round;fill:none;" />
<text x="1982.5" y="450.6" font-size="18.2px" font-family="CMUBright-Roman" style="text-anchor:start;fill:rgb(0,0,0);" transform="rotate(294.4,1982.5,450.6)" >200</text>
<line x1='2025.5' y1='505.3' x2='2034.8' y2='487.6' style="stroke-width:4.0;stroke:rgb(0,0,0);stroke-linecap:round;fill:none;" />
<text x="2045.2" y="481.8" font-size="18.2px" font-family="CMUBright-Roman" style="text-anchor:start;fill:rgb(0,0,0);" transform="rotate(297.8,2045.2,481.8)" >250</text>
<line x1='2084.8' y1='539.0' x2='2095.2' y2='521.9' style="stroke-width:4.0;stroke:rgb(0,0,0);stroke-linecap:round;fill:none;" />
<text x="2106.0" y="516.7" font-size="18.2px" font-family="CMUBright-Roman" style="text-anchor:start;fill:rgb(0,0,0);" transform="rotate(301.3,2106.0,516.7)" >300</text>
<line x1='2142.0' y1='576.2' x2='2153.5' y2='559.8' style="stroke-width:4.0;stroke:rgb(0,0,0);stroke-linecap:round;fill:none;" />
<text x="2164.5" y="555.3" font-size="18.2px" font-family="CMUBright-Roman" style="text-anchor:start;fill:rgb(0,0,0);" transform="rotate(304.8,2164.5,555.3)" >350</text>
<line x1='2196.9' y1='616.8' x2='2209.3' y2='601.1' style="stroke-width:4.0;stroke:rgb(0,0,0);stroke-linecap:round;fill:none;" />
<text x="2220.6" y="597.3" font-size="18.2px" font-family="CMUBright-Roman" style="text-anchor:start;fill:rgb(0,0,0);" transform="rotate(308.3,2220.6,597.3)" >400</text>
<line x1='2249.2' y1='660.7' x2='2262.5' y2='645.8' style="stroke-width:4.0;stroke:rgb(0,0,0);stroke-linecap:round;fill:none;" />
<text x="2274.0" y="642.7" font-size="18.2px" font-family="CMUBright-Roman" style="text-anchor:start;fill:rgb(0,0,0);" transform="rotate(311.8,2274.0,642.7)" >450</text>
<line x1='2298.7' y1='707.7' x2='2312.9' y2='693.6' style="stroke-width:4.0;stroke:rgb(0,0,0);stroke-linecap:round;fill:none;" />
<text x="2324.6" y="691.2" font-size="18.2px" font-family="CMUBright-Roman" style="text-anchor:start;fill:rgb(0,0,0);" transform="rotate(315.2,2324.6,691.2)" >500</text>
<line x1='2345.3' y1='757.6' x2='2360.3' y2='744.4' style="stroke-width:4.0;stroke:rgb(0,0,0);stroke-linecap:round;fill:none;" />
<text x="2372.1" y="742.7" font-size="18.2px" font-family="CMUBright-Roman" style="text-anchor:start;fill:rgb(0,0,0);" transform="rotate(318.7,2372.1,742.7)" >550</text>
<line x1='2388.8' y1='810.3' x2='2404.6' y2='798.0' style="stroke-width:4.0;stroke:rgb(0,0,0);stroke-linecap:round;fill:none;" />
<text x="2416.4" y="797.0" font-size="18.2px" font-family="CMUBright-Roman" style="text-anchor:start;fill:rgb(0,0,0);" transform="rotate(322.2,2416.4,797.0)" >600</text>
<line x1='2429.0' y1='865.5' x2='2445.5' y2='854.2' style="stroke-width:4.0;stroke:rgb(0,0,0);stroke-linecap:round;fill:none;" />
<text x="2457.4" y="853.9" font-size="18.2px" font-family="CMUBright-Roman" style="text-anchor:start;fill:rgb(0,0,0);" transform="rotate(325.7,2457.4,853.9)" >650</text>
<line x1='2465.7' y1='923.0' x2='2482.9' y2='912.7' style="stroke-width:4.0;stroke:rgb(0,0,0);stroke-linecap:round;fill:none;" />
<text x="2494.8" y="913.2" font-size="18.2px" font-family="CMUBright-Roman" style="text-anchor:start;fill:rgb(0,0,0);" transform="rotate(329.1,2494.8,913.2)" >700</text>
<line x1='2499.0' y1='982.6' x2='2516.7' y2='973.4' style="stroke-width:4.0;stroke:rgb(0,0,0);stroke-linecap:round;fill:none;" />
<text x="2528.6" y="974.6" font-size="18.2px" font-family="CMUBright-Roman" style="text-anchor:start;fill:rgb(0,0,0);" transform="rotate(332.6,2528.6,974.6)" >750</text>
<line x1='2528.5' y1='1044.1' x2='2546.8' y2='1036.0' style="stroke-width:4.0;stroke:rgb(0,0,0);stroke-linecap:round;fill:none;" />
<text x="2558.5" y="1037.9" font-size="18.2px" font-family="CMUBright-Roman" style="text-anchor:start;fill:rgb(0,0,0);" transform="rotate(336.1,2558.5,1037.9)" >800</text>
<line x1='2554.3' y1='1107.4' x2='2573.0' y2='1100.4' style="stroke-width:4.0;stroke:rgb(0,0,0);stroke-linecap:round;fill:none;" />
<text x="2584.6" y="1103.0" font-size="18.2px" font-family="CMUBright-Roman" style="text-anchor:start;fill:rgb(0,0,0);" transform="rotate(339.6,2584.6,1103.0)" >850</text>
<line x1='2576.1' y1='1172.0' x2='2595.3' y2='1166.2' style="stroke-width:4.0;stroke:rgb(0,0,0);stroke-linecap:round;fill:none;" />
<text x="2606.7" y="1169.5" font-size="18.2px" font-family="CMUBright-Roman" style="text-anchor:start;fill:rgb(0,0,0);" transform="rotate(343.1,2606.7,1169.5)" >900</text>
<line x1='2594.0' y1='1237.9' x2='2613.5' y2='1233.3' style="stroke-width:4.0;stroke:rgb(0,0,0);stroke-linecap:round;fill:none;" />
<text x="2624.7" y="1237.3" font-size="18.2px" font-family="CMUBright-Roman" style="text-anchor:start;fill:rgb(0,0,0);" transform="rotate(346.5,2624.7,1237.3)" >950</text>
<line x1='2607.9' y1='1304.8' x2='2627.6' y2='1301.3' style="stroke-width:4.0;stroke:rgb(0,0,0);stroke-linecap:round;fill:none;" />
<text x="2638.6" y="1306.0" font-size="18.2px" font-family="CMUBright-Roman" style="text-anchor:start;fill:rgb(0,0,0);" transform="rotate(350.0,2638.6,1306.0)" >1000</text>
<line x1='2617.7' y1='1372.3' x2='2637.6' y2='1370.0' style="stroke-width:4.0;stroke:rgb(0,0,0);stroke-linecap:round;fill:none;" />
<text x="2648.3" y="1375.4" font-size="18.2px" font-family="CMUBright-Roman" style="text-anchor:start;fill:rgb(0,0,0);" transform="rotate(353.5,2648.3,1375.4)" >1050</text>
<line x1='2623.4' y1='1440.3' x2='2643.4' y2='1439.3' style="stroke-width:4.0;stroke:rgb(0,0,0);stroke-linecap:round;fill:none;" />
<text x="2653.7" y="1445.2" font-size="18.2px" font-family="CMUBright-Roman" style="text-anchor:start;fill:rgb(0,0,0);" transform="rotate(357.0,2653.7,1445.2)" >1100</text>
<line x1='2625.0' y1='1508.6' x2='2645.0' y2='1508.8' style="stroke-width:4.0;stroke:rgb(0,0,0);stroke-linecap:round;fill:none;" />
<text x="2654.9" y="1515.3" font-size="18.2px" font-family="CMUBright-Roman" style="text-anchor:start;fill:rgb(0,0,0);" transform="rotate(0.4,2654.9,1515.3)" >1150</text>
<line x1='2622.4' y1='1576.8' x2='2642.3' y2='1578.2' style="stroke-width:4.0;stroke:rgb(0,0,0);stroke-linecap:round;fill:none;" />
<text x="2651.8" y="1585.3" font-size="18.2px" font-family="CMUBright-Roman" style="text-anchor:start;fill:rgb(0,0,0);" transform="rotate(3.9,2651.8,1585.3)" >1200</text>
<line x1='2615.6' y1='1644.8' x2='2635.5' y2='1647.3' style="stroke-width:4.0;stroke:rgb(0,0,0);stroke-linecap:round;fill:none;" />
<text x="2644.5" y="1655.1" font-size="18.2px" font-family="CMUBright-Roman" style="text-anchor:start;fill:rgb(0,0,0);" transform="rotate(7.4,2644.5,1655.1)" >1250</text>
<line x1='2604.8' y1='1712.2' x2='2624.5' y2='1715.9' style="stroke-width:4.0;stroke:rgb(0,0,0);stroke-linecap:round;fill:none;" />
<text x="2633.0" y="1724.2" font-size="18.2px" font-family="CMUBright-Roman" style="text-anchor:start;fill:rgb(0,0,0);" transform="rotate(10.9,2633.0,1724.2)" >1300</text>
<line x1='2589.9' y1='1778.8' x2='2609.3' y2='1783.7' style="stroke-width:4.0;stroke:rgb(0,0,0);stroke-linecap:round;fill:none;" />
<text x="2617.3" y="1792.5" font-size="18.2px" font-family="CMUBright-Roman" style="text-anchor:start;fill:rgb(0,0,0);" transform="rotate(14.3,2617.3,1792.5)" >1350</text>
<line x1='2571.0' y1='1844.4' x2='2590.0' y2='1850.5' style="stroke-width:4.0;stroke:rgb(0,0,0);stroke-linecap:round;fill:none;" />
<text x="2597.5" y="1859.7" font-size="18.2px" font-family="CMUBright-Roman" style="text-anchor:start;fill:rgb(0,0,0);" transform="rotate(17.8,2597.5,1859.7)" >1400</text>
<line x1='2548.1' y1='1908.7' x2='2566.8' y2='1916.0' style="stroke-width:4.0;stroke:rgb(0,0,0);stroke-linecap:round;fill:none;" />
<text x="2573.7" y="1925.6" font-size="18.2px" font-family="CMUBright-Roman" style="text-anchor:start;fill:rgb(0,0,0);" transform="rotate(21.3,2573.7,1925.6)" >1450</text>
<line x1='2521.4' y1='1971.5' x2='2539.6' y2='1979.9' style="stroke-width:4.0;stroke:rgb(0,0,0);stroke-linecap:round;fill:none;" />
<text x="2545.9" y="1990.0" font-size="18.2px" font-family="CMUBright-Roman" style="text-anchor:start;fill:rgb(0,0,0);" transform="rotate(24.8,2545.9,1990.0)" >1500</text>
<line x1='2490.9' y1='2032.6' x2='2508.6' y2='2042.1' style="stroke-width:4.0;stroke:rgb(0,0,0);stroke-linecap:round;fill:none;" />
<text x="2514.3" y="2052.5" font-size="18.2px" font-family="CMUBright-Roman" style="text-anchor:start;fill:rgb(0,0,0);" transform="rotate(28.3,2514.3,2052.5)" >1550</text>
<line x1='2456.8' y1='2091.7' x2='2473.8' y2='2102.2' style="stroke-width:4.0;stroke:rgb(0,0,0);stroke-linecap:round;fill:none;" />
<text x="2478.9" y="2113.0" font-size="18.2px" font-family="CMUBright-Roman" style="text-anchor:start;fill:rgb(0,0,0);" transform="rotate(31.7,2478.9,2113.0)" >1600</text>
<line x1='2419.2' y1='2148.7' x2='2435.5' y2='2160.2' style="stroke-width:4.0;stroke:rgb(0,0,0);stroke-linecap:round;fill:none;" />
<text x="2439.9" y="2171.3" font-size="18.2px" font-family="CMUBright-Roman" style="text-anchor:start;fill:rgb(0,0,0);" transform="rotate(35.2,2439.9,2171.3)" >1650</text>
<line x1='2378.1' y1='2203.2' x2='2393.7' y2='2215.7' style="stroke-width:4.0;stroke:rgb(0,0,0);stroke-linecap:round;fill:none;" />
<text x="2397.5" y="2227.0" font-size="18.2px" font-family="CMUBright-Roman" style="text-anchor:start;fill:rgb(0,0,0);" transform="rotate(38.7,2397.5,2227.0)" >1700</text>
<line x1='2333.8' y1='2255.2' x2='2348.7' y2='2268.6' style="stroke-width:4.0;stroke:rgb(0,0,0);stroke-linecap:round;fill:none;" />
<text x="2351.7" y="2280.1" font-size="18.2px" font-family="CMUBright-Roman" style="text-anchor:start;fill:rgb(0,0,0);" transform="rotate(42.2,2351.7,2280.1)" >1750</text>
<line x1='2286.5' y1='2304.4' x2='2300.5' y2='2318.7' style="stroke-width:4.0;stroke:rgb(0,0,0);stroke-linecap:round;fill:none;" />
<text x="2302.8" y="2330.4" font-size="18.2px" font-family="CMUBright-Roman" style="text-anchor:start;fill:rgb(0,0,0);" transform="rotate(45.6,2302.8,2330.4)" >1800</text>
<line x1='2236.3' y1='2350.6' x2='2249.4' y2='2365.7' style="stroke-width:4.0;stroke:rgb(0,0,0);stroke-linecap:round;fill:none;" />
<text x="2251.0" y="2377.5" font-size="18.2px" font-family="CMUBright-Roman" style="text-anchor:start;fill:rgb(0,0,0);" transform="rotate(49.1,2251.0,2377.5)" >1850</text>
<line x1='2183.3' y1='2393.7' x2='2195.5' y2='2409.6' style="stroke-width:4.0;stroke:rgb(0,0,0);stroke-linecap:round;fill:none;" />
<text x="2196.4" y="2421.5" font-size="18.2px" font-family="CMUBright-Roman" style="text-anchor:start;fill:rgb(0,0,0);" transform="rotate(52.6,2196.4,2421.5)" >1900</text>
<line x1='2127.9' y1='2433.5' x2='2139.0' y2='2450.1' style="stroke-width:4.0;stroke:rgb(0,0,0);stroke-linecap:round;fill:none;" />
<text x="2139.2" y="2462.0" font-size="18.2px" font-family="CMUBright-Roman" style="text-anchor:start;fill:rgb(0,0,0);" transform="rotate(56.1,2139.2,2462.0)" >1950</text>
<line x1='2070.1' y1='2469.9' x2='2080.2' y2='2487.1' style="stroke-width:4.0;stroke:rgb(0,0,0);stroke-linecap:round;fill:none;" />
<text x="2079.7" y="2499.0" font-size="18.2px" font-family="CMUBright-Roman" style="text-anchor:start;fill:rgb(0,0,0);" transform="rotate(59.6,2079.7,2499.0)" >2000</text>
<line x1='2010.2' y1='2502.7' x2='2019.3' y2='2520.5' style="stroke-width:4.0;stroke:rgb(0,0,0);stroke-linecap:round;fill:none;" />
<text x="2018.0" y="2532.3" font-size="18.2px" font-family="CMUBright-Roman" style="text-anchor:start;fill:rgb(0,0,0);" transform="rotate(63.0,2018.0,2532.3)" >2050</text>
<line x1='1948.4' y1='2531.8' x2='1956.4' y2='2550.1' style="stroke-width:4.0;stroke:rgb(0,0,0);stroke-linecap:round;fill:none;" />
<text x="1954.4" y="2561.8" font-size="18.2px" font-family="CMUBright-Roman" style="text-anchor:start;fill:rgb(0,0,0);" transform="rotate(66.5,1954.4,2561.8)" >2100</text>
<line x1='1885.0' y1='2557.1' x2='1891.9' y2='2575.8' style="stroke-width:4.0;stroke:rgb(0,0,0);stroke-linecap:round;fill:none;" />
<text x="1889.2" y="2587.5" font-size="18.2px" font-family="CMUBright-Roman" style="text-anchor:start;fill:rgb(0,0,0);" transform="rotate(70.0,1889.2,2587.5)" >2150</text>
<line x1='1820.2' y1='2578.5' x2='1825.9' y2='2597.6' style="stroke-width:4.0;stroke:rgb(0,0,0);stroke-linecap:round;fill:none;" />
<text x="1822.5" y="2609.1" font-size="18.2px" font-family="CMUBright-Roman" style="text-anchor:start;fill:rgb(0,0,0);" transform="rotate(73.5,1822.5,2609.1)" >2200</text>
<line x1='1754.2' y1='2595.9' x2='1758.7' y2='2615.4' style="stroke-width:4.0;stroke:rgb(0,0,0);stroke-linecap:round;fill:none;" />
<text x="1754.7" y="2626.6" font-size="18.2px" font-family="CMUBright-Roman" style="text-anchor:start;fill:rgb(0,0,0);" transform="rotate(76.9,1754.7,2626.6)" >2250</text>
<line x1='1687.3' y1='2609.3' x2='1690.6' y2='2629.0' style="stroke-width:4.0;stroke:rgb(0,0,0);stroke-linecap:round;fill:none;" />
<text x="1685.9" y="2639.9" font-size="18.2px" font-family="CMUBright-Roman" style="text-anchor:start;fill:rgb(0,0,0);" transform="rotate(80.4,1685.9,2639.9)" >2300</text>
<line x1='1619.6' y1='2618.6' x2='1621.8' y2='2638.5' style="stroke-width:4.0;stroke:rgb(0,0,0);stroke-linecap:round;fill:none;" />
<text x="1616.4" y="2649.1" font-size="18.2px" font-family="CMUBright-Roman" style="text-anchor:start;fill:rgb(0,0,0);" transform="rotate(83.9,1616.4,2649.1)" >2350</text>
<line x1='1551.6' y1='2623.8' x2='1552.5' y2='2643.8' style="stroke-width:4.0;stroke:rgb(0,0,0);stroke-linecap:round;fill:none;" />
<text x="1546.5" y="2654.1" font-size="18.2px" font-family="CMUBright-Roman" style="text-anchor:start;fill:rgb(0,0,0);" transform="rotate(87.4,1546.5,2654.1)" >2400</text>
<line x1='1483.3' y1='2624.9' x2='1483.0' y2='2644.9' style="stroke-width:4.0;stroke:rgb(0,0,0);stroke-linecap:round;fill:none;" />
<text x="1489.4" y="2655.0" font-size="18.2px" font-family="CMUBright-Roman" style="text-anchor:end;fill:rgb(0,0,0);" transform="rotate(-89.2,1489.4,2655.0)" >2450</text>
<line x1='1415.1' y1='2621.8' x2='1413.6' y2='2641.7' style="stroke-width:4.0;stroke:rgb(0,0,0);stroke-linecap:round;fill:none;" />
<text x="1419.3" y="2652.2" font-size="18.2px" font-family="CMUBright-Roman" style="text-anchor:end;fill:rgb(0,0,0);" transform="rotate(-85.7,1419.3,2652.2)" >2500</text>
<line x1='1347.2' y1='2614.6' x2='1344.5' y2='2634.4' style="stroke-width:4.0;stroke:rgb(0,0,0);stroke-linecap:round;fill:none;" />
<text x="1349.6" y="2645.2" font-size="18.2px" font-family="CMUBright-Roman" style="text-anchor:end;fill:rgb(0,0,0);" transform="rotate(-82.2,1349.6,2645.2)" >2550</text>
<line x1='1279.9' y1='2603.3' x2='1276.0' y2='2622.9' style="stroke-width:4.0;stroke:rgb(0,0,0);stroke-linecap:round;fill:none;" />
<text x="1280.4" y="2633.9" font-size="18.2px" font-family="CMUBright-Roman" style="text-anchor:end;fill:rgb(0,0,0);" transform="rotate(-78.7,1280.4,2633.9)" >2600</text>
<line x1='1213.4' y1='2587.9' x2='1208.3' y2='2607.2' style="stroke-width:4.0;stroke:rgb(0,0,0);stroke-linecap:round;fill:none;" />
<text x="1212.0" y="2618.5" font-size="18.2px" font-family="CMUBright-Roman" style="text-anchor:end;fill:rgb(0,0,0);" transform="rotate(-75.2,1212.0,2618.5)" >2650</text>
<line x1='1147.9' y1='2568.5' x2='1141.7' y2='2587.5' style="stroke-width:4.0;stroke:rgb(0,0,0);stroke-linecap:round;fill:none;" />
<text x="1144.7" y="2599.0" font-size="18.2px" font-family="CMUBright-Roman" style="text-anchor:end;fill:rgb(0,0,0);" transform="rotate(-71.8,1144.7,2599.0)" >2700</text>
<line x1='1083.8' y1='2545.2' x2='1076.4' y2='2563.8' style="stroke-width:4.0;stroke:rgb(0,0,0);stroke-linecap:round;fill:none;" />
<text x="1078.7" y="2575.4" font-size="18.2px" font-family="CMUBright-Roman" style="text-anchor:end;fill:rgb(0,0,0);" transform="rotate(-68.3,1078.7,2575.4)" >2750</text>
<line x1='1021.1' y1='2518.0' x2='1012.6' y2='2536.1' style="stroke-width:4.0;stroke:rgb(0,0,0);stroke-linecap:round;fill:none;" />
<text x="1014.3" y="2547.9" font-size="18.2px" font-family="CMUBright-Roman" style="text-anchor:end;fill:rgb(0,0,0);" transform="rotate(-64.8,1014.3,2547.9)" >2800</text>
<line x1='960.3' y1='2487.1' x2='950.7' y2='2504.6' style="stroke-width:4.0;stroke:rgb(0,0,0);stroke-linecap:round;fill:none;" />
<text x="951.6" y="2516.5" font-size="18.2px" font-family="CMUBright-Roman" style="text-anchor:end;fill:rgb(0,0,0);" transform="rotate(-61.3,951.6,2516.5)" >2850</text>
<line x1='901.4' y1='2452.5' x2='890.8' y2='2469.5' style="stroke-width:4.0;stroke:rgb(0,0,0);stroke-linecap:round;fill:none;" />
<text x="891.0" y="2481.4" font-size="18.2px" font-family="CMUBright-Roman" style="text-anchor:end;fill:rgb(0,0,0);" transform="rotate(-57.9,891.0,2481.4)" >2900</text>
<line x1='844.7' y1='2414.5' x2='833.1' y2='2430.7' style="stroke-width:4.0;stroke:rgb(0,0,0);stroke-linecap:round;fill:none;" />
<text x="832.6" y="2442.6" font-size="18.2px" font-family="CMUBright-Roman" style="text-anchor:end;fill:rgb(0,0,0);" transform="rotate(-54.4,832.6,2442.6)" >2950</text>
<line x1='790.5' y1='2373.0' x2='777.9' y2='2388.6' style="stroke-width:4.0;stroke:rgb(0,0,0);stroke-linecap:round;fill:none;" />
<text x="776.6" y="2400.4" font-size="18.2px" font-family="CMUBright-Roman" style="text-anchor:end;fill:rgb(0,0,0);" transform="rotate(-50.9,776.6,2400.4)" >3000</text>
<line x1='738.8' y1='2328.4' x2='725.3' y2='2343.1' style="stroke-width:4.0;stroke:rgb(0,0,0);stroke-linecap:round;fill:none;" />
<text x="723.3" y="2354.9" font-size="18.2px" font-family="CMUBright-Roman" style="text-anchor:end;fill:rgb(0,0,0);" transform="rotate(-47.4,723.3,2354.9)" >3050</text>
<line x1='690.0' y1='2280.7' x2='675.6' y2='2294.6' style="stroke-width:4.0;stroke:rgb(0,0,0);stroke-linecap:round;fill:none;" />
<text x="672.9" y="2306.2" font-size="18.2px" font-family="CMUBright-Roman" style="text-anchor:end;fill:rgb(0,0,0);" transform="rotate(-43.9,672.9,2306.2)" >3100</text>
<line x1='644.1' y1='2230.1' x2='628.9' y2='2243.1' style="stroke-width:4.0;stroke:rgb(0,0,0);stroke-linecap:round;fill:none;" />
<text x="625.5" y="2254.5" font-size="18.2px" font-family="CMUBright-Roman" style="text-anchor:end;fill:rgb(0,0,0);" transform="rotate(-40.5,625.5,2254.5)" >3150</text>
<line x1='601.4' y1='2176.9' x2='585.4' y2='2188.9' style="stroke-width:4.0;stroke:rgb(0,0,0);stroke-linecap:round;fill:none;" />
<text x="581.4" y="2200.1" font-size="18.2px" font-family="CMUBright-Roman" style="text-anchor:end;fill:rgb(0,0,0);" transform="rotate(-37.0,581.4,2200.1)" >3200</text>
<line x1='562.0' y1='2121.1' x2='545.3' y2='2132.2' style="stroke-width:4.0;stroke:rgb(0,0,0);stroke-linecap:round;fill:none;" />
<text x="540.6" y="2143.1" font-size="18.2px" font-family="CMUBright-Roman" style="text-anchor:end;fill:rgb(0,0,0);" transform="rotate(-33.5,540.6,2143.1)" >3250</text>
<line x1='526.1' y1='2063.1' x2='508.7' y2='2073.1' style="stroke-width:4.0;stroke:rgb(0,0,0);stroke-linecap:round;fill:none;" />
<text x="503.4" y="2083.7" font-size="18.2px" font-family="CMUBright-Roman" style="text-anchor:end;fill:rgb(0,0,0);" transform="rotate(-30.0,503.4,2083.7)" >3300</text>
<line x1='493.7' y1='2003.0' x2='475.8' y2='2011.9' style="stroke-width:4.0;stroke:rgb(0,0,0);stroke-linecap:round;fill:none;" />
<text x="469.8" y="2022.2" font-size="18.2px" font-family="CMUBright-Roman" style="text-anchor:end;fill:rgb(0,0,0);" transform="rotate(-26.6,469.8,2022.2)" >3350</text>
<line x1='465.0' y1='1941.0' x2='446.6' y2='1948.9' style="stroke-width:4.0;stroke:rgb(0,0,0);stroke-linecap:round;fill:none;" />
<text x="440.0" y="1958.7" font-size="18.2px" font-family="CMUBright-Roman" style="text-anchor:end;fill:rgb(0,0,0);" transform="rotate(-23.1,440.0,1958.7)" >3400</text>
<line x1='440.2' y1='1877.4' x2='421.4' y2='1884.1' style="stroke-width:4.0;stroke:rgb(0,0,0);stroke-linecap:round;fill:none;" />
<text x="414.1" y="1893.6" font-size="18.2px" font-family="CMUBright-Roman" style="text-anchor:end;fill:rgb(0,0,0);" transform="rotate(-19.6,414.1,1893.6)" >3450</text>
<line x1='419.3' y1='1812.5' x2='400.0' y2='1818.0' style="stroke-width:4.0;stroke:rgb(0,0,0);stroke-linecap:round;fill:none;" />
<text x="392.3" y="1827.0" font-size="18.2px" font-family="CMUBright-Roman" style="text-anchor:end;fill:rgb(0,0,0);" transform="rotate(-16.1,392.3,1827.0)" >3500</text>
<line x1='402.3' y1='1746.3' x2='382.8' y2='1750.7' style="stroke-width:4.0;stroke:rgb(0,0,0);stroke-linecap:round;fill:none;" />
<text x="374.5" y="1759.2" font-size="18.2px" font-family="CMUBright-Roman" style="text-anchor:end;fill:rgb(0,0,0);" transform="rotate(-12.6,374.5,1759.2)" >3550</text>
<line x1='389.4' y1='1679.3' x2='369.6' y2='1682.5' style="stroke-width:4.0;stroke:rgb(0,0,0);stroke-linecap:round;fill:none;" />
<text x="360.8" y="1690.5" font-size="18.2px" font-family="CMUBright-Roman" style="text-anchor:end;fill:rgb(0,0,0);" transform="rotate(-9.2,360.8,1690.5)" >3600</text>
<line x1='380.5' y1='1611.6' x2='360.6' y2='1613.6' style="stroke-width:4.0;stroke:rgb(0,0,0);stroke-linecap:round;fill:none;" />
<text x="351.4" y="1621.0" font-size="18.2px" font-family="CMUBright-Roman" style="text-anchor:end;fill:rgb(0,0,0);" transform="rotate(-5.7,351.4,1621.0)" >3650</text>
<line x1='375.8' y1='1543.5' x2='355.9' y2='1544.3' style="stroke-width:4.0;stroke:rgb(0,0,0);stroke-linecap:round;fill:none;" />
<text x="346.1" y="1551.1" font-size="18.2px" font-family="CMUBright-Roman" style="text-anchor:end;fill:rgb(0,0,0);" transform="rotate(-2.2,346.1,1551.1)" >3700</text>
<line x1='375.3' y1='1475.2' x2='355.3' y2='1474.8' style="stroke-width:4.0;stroke:rgb(0,0,0);stroke-linecap:round;fill:none;" />
<text x="345.2" y="1481.1" font-size="18.2px" font-family="CMUBright-Roman" style="text-anchor:end;fill:rgb(0,0,0);" transform="rotate(1.3,345.2,1481.1)" >3750</text>
<line x1='378.8' y1='1407.1' x2='358.9' y2='1405.4' style="stroke-width:4.0;stroke:rgb(0,0,0);stroke-linecap:round;fill:none;" />
<text x="348.4" y="1411.1" font-size="18.2px" font-family="CMUBright-Roman" style="text-anchor:end;fill:rgb(0,0,0);" transform="rotate(4.7,348.4,1411.1)" >3800</text>
<line x1='386.5' y1='1339.2' x2='366.8' y2='1336.4' style="stroke-width:4.0;stroke:rgb(0,0,0);stroke-linecap:round;fill:none;" />
<text x="355.9" y="1341.4" font-size="18.2px" font-family="CMUBright-Roman" style="text-anchor:end;fill:rgb(0,0,0);" transform="rotate(8.2,355.9,1341.4)" >3850</text>
<line x1='398.4' y1='1272.0' x2='378.8' y2='1267.9' style="stroke-width:4.0;stroke:rgb(0,0,0);stroke-linecap:round;fill:none;" />
<text x="367.7" y="1272.3" font-size="18.2px" font-family="CMUBright-Roman" style="text-anchor:end;fill:rgb(0,0,0);" transform="rotate(11.7,367.7,1272.3)" >3900</text>
<line x1='414.2' y1='1205.6' x2='394.9' y2='1200.3' style="stroke-width:4.0;stroke:rgb(0,0,0);stroke-linecap:round;fill:none;" />
<text x="383.6" y="1204.0" font-size="18.2px" font-family="CMUBright-Roman" style="text-anchor:end;fill:rgb(0,0,0);" transform="rotate(15.2,383.6,1204.0)" >3950</text>
<line x1='434.1' y1='1140.3' x2='415.1' y2='1133.9' style="stroke-width:4.0;stroke:rgb(0,0,0);stroke-linecap:round;fill:none;" />
<text x="403.6" y="1136.8" font-size="18.2px" font-family="CMUBright-Roman" style="text-anchor:end;fill:rgb(0,0,0);" transform="rotate(18.6,403.6,1136.8)" >4000</text>
<line x1='457.8' y1='1076.3' x2='439.3' y2='1068.7' style="stroke-width:4.0;stroke:rgb(0,0,0);stroke-linecap:round;fill:none;" />
<text x="427.6" y="1071.0" font-size="18.2px" font-family="CMUBright-Roman" style="text-anchor:end;fill:rgb(0,0,0);" transform="rotate(22.1,427.6,1071.0)" >4050</text>
<line x1='485.5' y1='1013.8' x2='467.4' y2='1005.2' style="stroke-width:4.0;stroke:rgb(0,0,0);stroke-linecap:round;fill:none;" />
<text x="455.6" y="1006.7" font-size="18.2px" font-family="CMUBright-Roman" style="text-anchor:end;fill:rgb(0,0,0);" transform="rotate(25.6,455.6,1006.7)" >4100</text>
<line x1='516.8' y1='953.2' x2='499.3' y2='943.5' style="stroke-width:4.0;stroke:rgb(0,0,0);stroke-linecap:round;fill:none;" />
<text x="487.5" y="944.3" font-size="18.2px" font-family="CMUBright-Roman" style="text-anchor:end;fill:rgb(0,0,0);" transform="rotate(29.1,487.5,944.3)" >4150</text>
<line x1='551.8' y1='894.6' x2='534.9' y2='883.8' style="stroke-width:4.0;stroke:rgb(0,0,0);stroke-linecap:round;fill:none;" />
<text x="523.0" y="883.9" font-size="18.2px" font-family="CMUBright-Roman" style="text-anchor:end;fill:rgb(0,0,0);" transform="rotate(32.6,523.0,883.9)" >4200</text>
<line x1='590.3' y1='838.2' x2='574.1' y2='826.4' style="stroke-width:4.0;stroke:rgb(0,0,0);stroke-linecap:round;fill:none;" />
<text x="562.2" y="825.8" font-size="18.2px" font-family="CMUBright-Roman" style="text-anchor:end;fill:rgb(0,0,0);" transform="rotate(36.0,562.2,825.8)" >4250</text>
<line x1='632.1' y1='784.2' x2='616.7' y2='771.5' style="stroke-width:4.0;stroke:rgb(0,0,0);stroke-linecap:round;fill:none;" />
<text x="604.8" y="770.2" font-size="18.2px" font-family="CMUBright-Roman" style="text-anchor:end;fill:rgb(0,0,0);" transform="rotate(39.5,604.8,770.2)" >4300</text>
<line x1='677.1' y1='732.9' x2='662.5' y2='719.3' style="stroke-width:4.0;stroke:rgb(0,0,0);stroke-linecap:round;fill:none;" />
<text x="650.7" y="717.2" font-size="18.2px" font-family="CMUBright-Roman" style="text-anchor:end;fill:rgb(0,0,0);" transform="rotate(43.0,650.7,717.2)" >4350</text>
<line x1='725.1' y1='684.4' x2='711.4' y2='669.9' style="stroke-width:4.0;stroke:rgb(0,0,0);stroke-linecap:round;fill:none;" />
<text x="699.8" y="667.1" font-size="18.2px" font-family="CMUBright-Roman" style="text-anchor:end;fill:rgb(0,0,0);" transform="rotate(46.5,699.8,667.1)" >4400</text>
<line x1='776.0' y1='638.9' x2='763.2' y2='623.6' style="stroke-width:4.0;stroke:rgb(0,0,0);stroke-linecap:round;fill:none;" />
<text x="751.8" y="620.1" font-size="18.2px" font-family="CMUBright-Roman" style="text-anchor:end;fill:rgb(0,0,0);" transform="rotate(49.9,751.8,620.1)" >4450</text>
<line x1='829.6' y1='596.6' x2='817.7' y2='580.5' style="stroke-width:4.0;stroke:rgb(0,0,0);stroke-linecap:round;fill:none;" />
<text x="806.5" y="576.4" font-size="18.2px" font-family="CMUBright-Roman" style="text-anchor:end;fill:rgb(0,0,0);" transform="rotate(53.4,806.5,576.4)" >4500</text>
<line x1='885.6' y1='557.6' x2='874.7' y2='540.8' style="stroke-width:4.0;stroke:rgb(0,0,0);stroke-linecap:round;fill:none;" />
<text x="863.8" y="536.0" font-size="18.2px" font-family="CMUBright-Roman" style="text-anchor:end;fill:rgb(0,0,0);" transform="rotate(56.9,863.8,536.0)" >4550</text>
<line x1='943.9' y1='522.0' x2='934.0' y2='504.7' style="stroke-width:4.0;stroke:rgb(0,0,0);stroke-linecap:round;fill:none;" />
<text x="923.5" y="499.2" font-size="18.2px" font-family="CMUBright-Roman" style="text-anchor:end;fill:rgb(0,0,0);" transform="rotate(60.4,923.5,499.2)" >4600</text>
<line x1='1004.3' y1='490.1' x2='995.5' y2='472.2' style="stroke-width:4.0;stroke:rgb(0,0,0);stroke-linecap:round;fill:none;" />
<text x="985.2" y="466.1" font-size="18.2px" font-family="CMUBright-Roman" style="text-anchor:end;fill:rgb(0,0,0);" transform="rotate(63.9,985.2,466.1)" >4650</text>
<line x1='1066.4' y1='461.9' x2='1058.7' y2='443.4' style="stroke-width:4.0;stroke:rgb(0,0,0);stroke-linecap:round;fill:none;" />
<text x="1048.9" y="436.7" font-size="18.2px" font-family="CMUBright-Roman" style="text-anchor:end;fill:rgb(0,0,0);" transform="rotate(67.3,1048.9,436.7)" >4700</text>
<line x1='1130.2' y1='437.5' x2='1123.6' y2='418.6' style="stroke-width:4.0;stroke:rgb(0,0,0);stroke-linecap:round;fill:none;" />
<text x="1114.2" y="411.3" font-size="18.2px" font-family="CMUBright-Roman" style="text-anchor:end;fill:rgb(0,0,0);" transform="rotate(70.8,1114.2,411.3)" >4750</text>
<line x1='1195.3' y1='417.0' x2='1189.9' y2='397.8' style="stroke-width:4.0;stroke:rgb(0,0,0);stroke-linecap:round;fill:none;" />
<text x="1181.0" y="389.9" font-size="18.2px" font-family="CMUBright-Roman" style="text-anchor:end;fill:rgb(0,0,0);" transform="rotate(74.3,1181.0,389.9)" >4800</text>
<line x1='1261.6' y1='400.6' x2='1257.3' y2='381.0' style="stroke-width:4.0;stroke:rgb(0,0,0);stroke-linecap:round;fill:none;" />
<text x="1248.9" y="372.6" font-size="18.2px" font-family="CMUBright-Roman" style="text-anchor:end;fill:rgb(0,0,0);" transform="rotate(77.8,1248.9,372.6)" >4850</text>
<line x1='1328.7' y1='388.1' x2='1325.7' y2='368.4' style="stroke-width:4.0;stroke:rgb(0,0,0);stroke-linecap:round;fill:none;" />
<text x="1317.7" y="359.5" font-size="18.2px" font-family="CMUBright-Roman" style="text-anchor:end;fill:rgb(0,0,0);" transform="rotate(81.2,1317.7,359.5)" >4900</text>
<line x1='1396.5' y1='379.8' x2='1394.6' y2='359.9' style="stroke-width:4.0;stroke:rgb(0,0,0);stroke-linecap:round;fill:none;" />
<text x="1387.2" y="350.5" font-size="18.2px" font-family="CMUBright-Roman" style="text-anchor:end;fill:rgb(0,0,0);" transform="rotate(84.7,1387.2,350.5)" >4950</text>
<g id="highlighttrack_0">
<path d="M1750.294,454.544 A1075.000,1075.000 40.000 0,1 1753.913,455.417 L1765.723,406.832 A1125.000,1125.000 0.000 0,0 1761.936,405.918 Z" style="stroke-width:4.0;stroke:rgb(0,0,0);stroke-linecap:round;fill:rgb(116,196,118);" />
<path d="M2213.903,696.279 A1075.000,1075.000 40.000 0,1 2216.682,698.756 L2250.016,661.489 A1125.000,1125.000 0.000 0,0 2247.108,658.897 Z" style="stroke-width:4.0;stroke:rgb(0,0,0);stroke-linecap:round;fill:rgb(116,196,118);" />
<path d="M2220.675,702.346 A1075.000,1075.000 40.000 0,1 2223.433,704.846 L2257.081,667.863 A1125.000,1125.000 0.000 0,0 2254.195,665.246 Z" style="stroke-width:4.0;stroke:rgb(0,0,0);stroke-linecap:round;fill:rgb(116,196,118);" />
<path d="M807.712,2322.412 A1075.000,1075.000 40.000 0,1 804.868,2320.010 L772.536,2358.150 A1125.000,1125.000 0.000 0,0 775.512,2360.664 Z" style="stroke-width:4.0;stroke:rgb(0,0,0);stroke-linecap:round;fill:rgb(251,106,74);" />
<path d="M465.172,1208.873 A1075.000,1075.000 40.000 0,1 466.186,1205.291 L418.102,1191.583 A1125.000,1125.000 0.000 0,0 417.040,1195.332 Z" style="stroke-width:4.0;stroke:rgb(0,0,0);stroke-linecap:round;fill:rgb(251,106,74);" />
<path d="M1108.122,498.972 A1075.000,1075.000 40.000 0,1 1111.591,497.621 L1093.526,450.999 A1125.000,1125.000 0.000 0,0 1089.895,452.413 Z" style="stroke-width:4.0;stroke:rgb(0,0,0);stroke-linecap:round;fill:rgb(251,106,74);" />
<path d="M1171.046,476.567 A1075.000,1075.000 40.000 0,1 1174.592,475.434 L1159.457,427.780 A1125.000,1125.000 0.000 0,0 1155.746,428.966 Z" style="stroke-width:4.0;stroke:rgb(0,0,0);stroke-linecap:round;fill:rgb(251,106,74);" />
<path d="M1363.685,433.678 A1075.000,1075.000 40.000 0,1 1367.378,433.212 L1361.210,383.594 A1125.000,1125.000 0.000 0,0 1357.344,384.081 Z" style="stroke-width:4.0;stroke:rgb(0,0,0);stroke-linecap:round;fill:rgb(251,106,74);" />
<path d="M1127.847,491.473 A1075.000,1075.000 40.000 0,1 1139.828,487.132 L1123.076,440.022 A1125.000,1125.000 0.000 0,0 1110.537,444.565 Z" style="stroke-width:4.0;stroke:rgb(0,0,0);stroke-linecap:round;fill:rgb(116,196,118);" />
</g>
</g>
<g id="track_0">
<path d="M 1747.791,464.999 A 1064.250,1064.250 0.00 0,1 1751.4,465.9 L 1751.4,465.9 1734.0,537.0 1717.8,602.7 1702.8,663.2 1688.7,718.8 1675.7,769.7 1663.7,816.2 1652.5,858.5 1642.2,896.8 1632.8,931.2 1624.1,961.9 1616.1,989.0 1608.9,1012.8 1602.3,1033.3 1596.4,1050.5 1591.1,1064.7 1586.3,1075.9 1582.2,1084.1 1578.6,1089.4 1575.6,1091.9 1573.0,1091.4 1571.0,1088.1 1569.5,1081.8 1568.6,1072.7 1568.1,1060.6 1568.1,1045.4 1568.6,1027.1 1569.7,1005.7 1571.3,980.9 1573.4,952.6 1576.1,920.8 1579.3,885.3 1583.2,845.9 1587.6,802.4 1592.7,754.6 1598.5,702.4 1605.0,645.4 1612.2,583.4 1620.2,516.3 1629.0,443.6  A 1064.250,1064.250 0.00 0,0 1625.3,443.2 L 1625.3,443.2 1616.7,515.9 1609.0,583.1 1602.0,645.0 1595.7,702.0 1590.1,754.3 1585.2,802.1 1580.9,845.6 1577.2,885.1 1574.1,920.6 1571.5,952.4 1569.5,980.6 1568.0,1005.4 1567.0,1026.9 1566.5,1045.2 1566.6,1060.3 1567.1,1072.4 1568.1,1081.6 1569.6,1087.8 1571.6,1091.1 1574.1,1091.6 1577.2,1089.2 1580.8,1083.9 1584.9,1075.6 1589.6,1064.4 1594.8,1050.2 1600.7,1032.9 1607.2,1012.4 1614.4,988.6 1622.2,961.4 1630.8,930.7 1640.2,896.3 1650.3,858.0 1661.3,815.7 1673.2,769.1 1686.0,718.1 1699.9,662.5 1714.7,601.9 1730.7,536.2 1747.8,465.0  Z" style="stroke-width: 2.0;  stroke: rgb(82,82,82); fill: rgb(251,106,74); opacity: 0.667;" />
<path d="M 2206.764,704.316 A 1064.250,1064.250 0.00 0,1 2209.5,706.8 L 2209.5,706.8 2160.4,761.1 2114.4,810.9 2071.3,856.5 2030.9,897.9 1993.2,935.5 1958.0,969.4 1925.1,999.7 1894.4,1026.8 1865.8,1050.6 1839.1,1071.4 1814.4,1089.3 1791.4,1104.4 1770.0,1116.7 1750.2,1126.3 1731.9,1133.4 1715.0,1137.9 1699.4,1139.9 1685.1,1139.5 1672.0,1136.5 1660.0,1131.1 1649.2,1123.2 1639.4,1112.7 1630.6,1099.7 1622.9,1084.0 1616.1,1065.5 1610.4,1044.3 1605.5,1020.1 1601.7,992.9 1598.8,962.5 1596.9,928.7 1596.0,891.5 1596.1,850.6 1597.3,805.8 1599.5,757.0 1602.9,703.9 1607.5,646.2 1613.3,583.8 1620.4,516.4 1629.0,443.6  A 1064.250,1064.250 0.00 0,0 1625.3,443.2 L 1625.3,443.2 1617.0,515.9 1610.1,583.4 1604.5,645.9 1600.2,703.5 1596.9,756.7 1594.9,805.5 1593.8,850.3 1593.9,891.2 1594.9,928.4 1596.9,962.1 1599.9,992.5 1603.9,1019.8 1608.8,1043.9 1614.6,1065.1 1621.5,1083.5 1629.3,1099.2 1638.0,1112.2 1647.9,1122.7 1658.7,1130.6 1670.7,1135.9 1683.8,1138.8 1698.2,1139.2 1713.7,1137.2 1730.6,1132.6 1748.9,1125.5 1768.7,1115.7 1790.0,1103.3 1812.9,1088.2 1837.7,1070.3 1864.2,1049.4 1892.7,1025.4 1923.3,998.3 1956.1,967.8 1991.2,933.8 2028.8,896.1 2069.0,854.5 2112.0,808.8 2157.8,758.8 2206.8,704.3  Z" style="stroke-width: 2.0;  stroke: rgb(82,82,82); fill: rgb(116,196,118); opacity: 0.667;" />
<path d="M 2206.764,704.316 A 1064.250,1064.250 0.00 0,1 2209.5,706.8 L 2209.5,706.8 2160.5,761.2 2114.6,811.1 2071.8,856.7 2031.9,898.4 1994.8,936.1 1960.2,970.3 1928.1,1001.0 1898.3,1028.3 1870.7,1052.5 1845.2,1073.7 1821.7,1091.9 1800.1,1107.4 1780.2,1120.1 1762.0,1130.1 1745.5,1137.6 1730.4,1142.5 1716.9,1145.0 1704.8,1145.0 1694.0,1142.5 1684.6,1137.5 1676.4,1130.1 1669.5,1120.1 1663.9,1107.5 1659.4,1092.4 1656.2,1074.5 1654.2,1053.8 1653.4,1030.2 1653.9,1003.7 1655.6,973.9 1658.5,940.9 1662.8,904.5 1668.5,864.5 1675.6,820.6 1684.1,772.8 1694.2,720.7 1705.9,664.3 1719.2,603.2 1734.4,537.1 1751.4,465.9  A 1064.250,1064.250 0.00 0,0 1747.8,465.0 L 1747.8,465.0 1731.0,536.3 1716.1,602.4 1703.0,663.6 1691.5,720.1 1681.6,772.2 1673.2,820.0 1666.3,863.9 1660.8,903.9 1656.6,940.4 1653.7,973.4 1652.1,1003.1 1651.8,1029.7 1652.7,1053.3 1654.8,1074.0 1658.0,1091.8 1662.5,1107.0 1668.2,1119.5 1675.2,1129.5 1683.3,1136.9 1692.8,1141.8 1703.5,1144.3 1715.7,1144.2 1729.2,1141.7 1744.2,1136.7 1760.7,1129.2 1778.9,1119.1 1798.7,1106.3 1820.3,1090.8 1843.7,1072.5 1869.2,1051.2 1896.7,1027.0 1926.4,999.5 1958.4,968.7 1992.8,934.4 2029.9,896.5 2069.6,854.7 2112.2,808.9 2157.9,758.9 2206.8,704.3  Z" style="stroke-width: 2.0;  stroke: rgb(82,82,82); fill: rgb(107,174,214); opacity: 0.667;" />
<path d="M 2213.469,710.322 A 1064.250,1064.250 0.00 0,1 2216.2,712.8 L 2216.2,712.8 2166.6,766.7 2120.2,816.2 2076.6,861.3 2035.9,902.4 1997.8,939.6 1962.3,973.2 1929.1,1003.3 1898.1,1030.0 1869.2,1053.6 1842.3,1074.2 1817.3,1091.8 1794.1,1106.6 1772.5,1118.7 1752.5,1128.2 1734.0,1135.1 1716.9,1139.4 1701.2,1141.3 1686.7,1140.7 1673.4,1137.6 1661.3,1132.1 1650.4,1124.1 1640.5,1113.5 1631.6,1100.3 1623.7,1084.5 1616.9,1066.0 1611.0,1044.7 1606.1,1020.5 1602.2,993.2 1599.2,962.7 1597.2,928.9 1596.2,891.7 1596.3,850.7 1597.4,805.9 1599.6,757.1 1603.0,703.9 1607.5,646.3 1613.3,583.8 1620.5,516.4 1629.0,443.6  A 1064.250,1064.250 0.00 0,0 1625.3,443.2 L 1625.3,443.2 1617.0,515.9 1610.2,583.4 1604.6,645.9 1600.2,703.6 1597.1,756.7 1595.0,805.6 1594.0,850.4 1594.1,891.3 1595.2,928.6 1597.3,962.4 1600.4,992.8 1604.4,1020.1 1609.4,1044.3 1615.4,1065.6 1622.3,1084.1 1630.2,1099.9 1639.1,1113.0 1649.1,1123.5 1660.1,1131.5 1672.2,1137.0 1685.4,1140.1 1699.9,1140.6 1715.7,1138.7 1732.7,1134.3 1751.2,1127.3 1771.2,1117.8 1792.7,1105.6 1815.9,1090.7 1840.8,1073.0 1867.7,1052.3 1896.4,1028.7 1927.3,1001.8 1960.4,971.6 1995.9,937.9 2033.8,900.5 2074.4,859.3 2117.8,814.0 2164.1,764.4 2213.5,710.3  Z" style="stroke-width: 2.0;  stroke: rgb(82,82,82); fill: rgb(253,141,60); opacity: 0.667;" />
<path d="M 2213.469,710.322 A 1064.250,1064.250 0.00 0,1 2216.2,712.8 L 2216.2,712.8 2166.7,766.8 2120.4,816.3 2077.2,861.6 2036.9,902.8 1999.4,940.3 1964.5,974.1 1932.1,1004.5 1902.0,1031.6 1874.1,1055.5 1848.4,1076.4 1824.6,1094.4 1802.7,1109.7 1782.7,1122.2 1764.3,1132.0 1747.5,1139.3 1732.4,1144.1 1718.6,1146.4 1706.4,1146.2 1695.5,1143.6 1685.9,1138.5 1677.6,1131.0 1670.6,1120.9 1664.8,1108.2 1660.3,1093.0 1657.0,1075.0 1654.9,1054.3 1654.0,1030.6 1654.3,1004.0 1656.0,974.2 1658.9,941.2 1663.1,904.7 1668.7,864.6 1675.7,820.7 1684.2,772.8 1694.3,720.8 1705.9,664.3 1719.3,603.2 1734.4,537.1 1751.4,465.9  A 1064.250,1064.250 0.00 0,0 1747.8,465.0 L 1747.8,465.0 1731.0,536.3 1716.1,602.4 1703.0,663.6 1691.6,720.1 1681.7,772.2 1673.4,820.1 1666.5,864.0 1661.0,904.1 1656.9,940.6 1654.1,973.7 1652.6,1003.4 1652.3,1030.1 1653.3,1053.7 1655.5,1074.5 1658.9,1092.4 1663.5,1107.7 1669.3,1120.3 1676.3,1130.4 1684.6,1137.9 1694.2,1142.9 1705.1,1145.5 1717.4,1145.7 1731.1,1143.3 1746.3,1138.5 1763.0,1131.1 1781.4,1121.2 1801.4,1108.6 1823.2,1093.3 1846.9,1075.2 1872.6,1054.2 1900.4,1030.2 1930.4,1003.0 1962.7,972.5 1997.5,938.6 2034.9,901.0 2075.0,859.6 2118.0,814.1 2164.1,764.5 2213.5,710.3  Z" style="stroke-width: 2.0;  stroke: rgb(82,82,82); fill: rgb(255,0,0); opacity: 0.667;" />
<path d="M 2213.469,710.322 A 1064.250,1064.250 0.00 0,1 2216.2,712.8 L 2216.2,712.8 2166.9,766.9 2121.4,817.0 2079.4,863.1 2040.8,905.5 2005.4,944.3 1973.1,979.8 1943.6,1012.0 1917.0,1041.3 1892.9,1067.5 1871.4,1091.0 1852.4,1111.8 1835.7,1130.0 1821.2,1145.8 1808.9,1159.1 1798.8,1170.1 1790.7,1178.8 1784.6,1185.2 1780.5,1189.4 1778.4,1191.5 1778.3,1191.4 1780.1,1189.1 1783.9,1184.6 1789.7,1177.9 1797.5,1168.9 1807.4,1157.7 1819.4,1144.1 1833.5,1128.1 1849.9,1109.6 1868.7,1088.5 1889.8,1064.7 1913.5,1038.2 1939.8,1008.6 1968.9,976.0 2000.9,940.2 2035.9,901.0 2074.1,858.2 2115.6,811.8 2160.7,761.3 2209.5,706.8  A 1064.250,1064.250 0.00 0,0 2206.8,704.3 L 2206.8,704.3 2158.2,759.0 2113.2,809.6 2071.9,856.3 2033.8,899.2 1998.9,938.5 1967.1,974.4 1938.1,1007.1 1911.9,1036.7 1888.3,1063.4 1867.3,1087.3 1848.6,1108.4 1832.2,1127.0 1818.1,1143.0 1806.2,1156.6 1796.4,1167.9 1788.6,1176.9 1782.8,1183.6 1779.0,1188.1 1777.2,1190.4 1777.4,1190.5 1779.5,1188.5 1783.5,1184.2 1789.6,1177.7 1797.6,1169.0 1807.7,1158.0 1820.0,1144.7 1834.4,1128.9 1851.0,1110.6 1870.0,1089.7 1891.4,1066.2 1915.4,1039.8 1941.9,1010.5 1971.3,978.1 2003.5,942.5 2038.8,903.6 2077.2,861.1 2119.0,814.8 2164.4,764.6 2213.5,710.3  Z" style="stroke-width: 2.0;  stroke: rgb(82,82,82); fill: rgb(255,0,204); opacity: 0.667;" />
<path d="M 814.634,2314.188 A 1064.250,1064.250 0.00 0,1 811.8,2311.8 L 811.8,2311.8 858.8,2254.5 901.8,2198.7 941.0,2144.4 976.9,2091.6 1009.8,2040.2 1040.0,1990.2 1067.8,1941.5 1093.5,1894.2 1117.4,1848.1 1139.7,1803.1 1160.7,1759.3 1180.6,1716.5 1199.6,1674.6 1217.8,1633.5 1235.5,1593.2 1252.8,1553.5 1269.8,1514.3 1286.7,1475.5 1303.5,1437.0 1320.3,1398.5 1337.2,1360.0 1354.3,1321.2 1371.5,1282.1 1388.9,1242.5 1406.5,1202.1 1424.3,1160.9 1442.1,1118.5 1460.1,1074.9 1478.0,1029.7 1495.9,982.8 1513.5,933.9 1530.8,882.9 1547.7,829.5 1563.9,773.3 1579.3,714.3 1593.8,652.1 1607.0,586.4 1618.8,517.0 1629.0,443.6  A 1064.250,1064.250 0.00 0,0 1625.3,443.2 L 1625.3,443.2 1615.4,516.6 1603.8,586.0 1590.8,651.8 1576.6,714.0 1561.4,773.1 1545.4,829.3 1528.7,882.8 1511.5,933.9 1494.1,982.8 1476.4,1029.8 1458.6,1075.0 1440.8,1118.7 1423.1,1161.1 1405.5,1202.5 1388.0,1242.9 1370.8,1282.6 1353.7,1321.7 1336.7,1360.5 1320.0,1399.1 1303.3,1437.6 1286.6,1476.3 1269.9,1515.1 1253.0,1554.4 1235.8,1594.1 1218.3,1634.5 1200.2,1675.6 1181.4,1717.6 1161.6,1760.5 1140.8,1804.4 1118.6,1849.4 1094.9,1895.6 1069.3,1943.0 1041.7,1991.8 1011.7,2041.9 979.0,2093.4 943.3,2146.4 904.2,2200.8 861.5,2256.7 814.6,2314.2  Z" style="stroke-width: 2.0;  stroke: rgb(82,82,82); fill: rgb(255,204,204); opacity: 0.667;" />
<path d="M 814.634,2314.188 A 1064.250,1064.250 0.00 0,1 811.8,2311.8 L 811.8,2311.8 858.9,2254.5 901.9,2198.5 941.3,2143.9 977.5,2090.8 1010.7,2039.0 1041.3,1988.5 1069.7,1939.5 1096.0,1891.7 1120.7,1845.2 1143.9,1799.8 1165.9,1755.7 1186.9,1712.6 1207.1,1670.5 1226.8,1629.3 1246.1,1588.9 1265.1,1549.3 1284.1,1510.2 1303.1,1471.7 1322.2,1433.4 1341.5,1395.4 1361.2,1357.5 1381.2,1319.4 1401.6,1281.1 1422.5,1242.4 1443.8,1203.0 1465.5,1162.9 1487.6,1121.8 1510.1,1079.4 1532.9,1035.6 1555.8,990.2 1579.0,942.9 1602.1,893.5 1625.1,841.7 1647.8,787.2 1670.1,729.9 1691.9,669.4 1712.8,605.4 1732.7,537.7 1751.4,465.9  A 1064.250,1064.250 0.00 0,0 1747.8,465.0 L 1747.8,465.0 1729.4,536.9 1709.7,604.7 1689.0,668.7 1667.5,729.3 1645.4,786.7 1622.8,841.2 1600.0,893.1 1577.0,942.6 1554.1,990.0 1531.2,1035.5 1508.6,1079.4 1486.3,1121.8 1464.3,1163.0 1442.8,1203.2 1421.6,1242.7 1400.9,1281.5 1380.6,1319.8 1360.7,1357.9 1341.2,1396.0 1322.0,1434.0 1303.0,1472.3 1284.1,1511.0 1265.3,1550.1 1246.4,1589.8 1227.3,1630.2 1207.7,1671.5 1187.6,1713.7 1166.8,1756.8 1144.9,1801.1 1121.9,1846.5 1097.4,1893.1 1071.2,1941.0 1043.0,1990.1 1012.6,2040.7 979.5,2092.6 943.6,2145.9 904.3,2200.6 861.5,2256.7 814.6,2314.2  Z" style="stroke-width: 2.0;  stroke: rgb(82,82,82); fill: rgb(255,153,0); opacity: 0.667;" />
<path d="M 814.634,2314.188 A 1064.250,1064.250 0.00 0,1 811.8,2311.8 L 811.8,2311.8 860.9,2255.8 909.5,2203.6 957.6,2154.9 1005.0,2109.3 1051.6,2066.4 1097.3,2026.0 1141.8,1987.7 1185.3,1951.2 1227.6,1916.3 1268.6,1882.6 1308.3,1850.0 1346.7,1818.1 1383.7,1786.8 1419.5,1755.7 1453.9,1724.8 1487.1,1693.8 1519.1,1662.5 1549.9,1630.7 1579.6,1598.4 1608.4,1565.4 1636.4,1531.4 1663.5,1496.6 1690.2,1460.6 1716.3,1423.5 1742.2,1385.1 1768.1,1345.4 1794.0,1304.4 1820.3,1262.0 1847.2,1218.2 1874.9,1172.9 1903.7,1126.3 1933.8,1078.2 1965.6,1028.8 1999.4,978.0 2035.5,926.0 2074.1,872.8 2115.8,818.4 2160.8,763.1 2209.5,706.8  A 1064.250,1064.250 0.00 0,0 2206.8,704.3 L 2206.8,704.3 2158.2,760.8 2113.4,816.3 2072.0,870.8 2033.5,924.1 1997.6,976.3 1964.0,1027.2 1932.4,1076.7 1902.4,1124.9 1873.8,1171.6 1846.2,1217.0 1819.5,1260.9 1793.3,1303.4 1767.5,1344.5 1741.8,1384.3 1716.1,1422.7 1690.0,1459.9 1663.5,1496.0 1636.5,1531.0 1608.7,1565.0 1580.0,1598.1 1550.3,1630.6 1519.6,1662.4 1487.8,1693.8 1454.7,1724.9 1420.4,1756.0 1384.7,1787.2 1347.8,1818.6 1309.5,1850.7 1269.9,1883.4 1229.0,1917.2 1186.9,1952.3 1143.5,1988.9 1099.1,2027.4 1053.6,2068.0 1007.2,2111.0 959.9,2156.8 912.0,2205.7 863.5,2258.0 814.6,2314.2  Z" style="stroke-width: 2.0;  stroke: rgb(82,82,82); fill: rgb(255,204,0); opacity: 0.667;" />
<path d="M 814.634,2314.188 A 1064.250,1064.250 0.00 0,1 811.8,2311.8 L 811.8,2311.8 860.9,2255.8 909.5,2203.6 957.6,2154.9 1005.0,2109.3 1051.6,2066.5 1097.2,2026.1 1141.8,1987.9 1185.2,1951.5 1227.5,1916.6 1268.5,1883.0 1308.2,1850.4 1346.6,1818.6 1383.8,1787.3 1419.5,1756.4 1454.1,1725.5 1487.3,1694.6 1519.4,1663.4 1550.3,1631.8 1580.2,1599.6 1609.1,1566.6 1637.2,1532.9 1664.5,1498.1 1691.3,1462.3 1717.7,1425.3 1743.8,1387.1 1769.9,1347.6 1796.1,1306.8 1822.7,1264.6 1849.9,1221.0 1877.9,1176.0 1907.0,1129.6 1937.6,1081.8 1969.7,1032.7 2003.9,982.2 2040.4,930.5 2079.5,877.6 2121.6,823.6 2167.0,768.7 2216.2,712.8  A 1064.250,1064.250 0.00 0,0 2213.5,710.3 L 2213.5,710.3 2164.5,766.4 2119.2,821.5 2077.3,875.6 2038.4,928.6 2002.1,980.5 1968.1,1031.0 1936.1,1080.3 1905.8,1128.2 1876.8,1174.7 1848.9,1219.8 1821.9,1263.5 1795.5,1305.8 1769.4,1346.7 1743.4,1386.3 1717.4,1424.6 1691.2,1461.6 1664.5,1497.5 1637.3,1532.4 1609.3,1566.3 1580.5,1599.3 1550.7,1631.6 1519.9,1663.3 1488.0,1694.6 1454.8,1725.7 1420.4,1756.6 1384.7,1787.7 1347.7,1819.1 1309.4,1851.1 1269.8,1883.8 1228.9,1917.5 1186.8,1952.5 1143.5,1989.1 1099.0,2027.5 1053.5,2068.1 1007.1,2111.0 959.9,2156.8 912.0,2205.7 863.5,2258.0 814.6,2314.2  Z" style="stroke-width: 2.0;  stroke: rgb(82,82,82); fill: rgb(255,255,0); opacity: 0.667;" />
<path d="M 475.520,1211.784 A 1064.250,1064.250 0.00 0,1 476.5,1208.2 L 476.5,1208.2 547.4,1227.6 614.0,1244.2 676.5,1258.1 735.3,1269.5 790.4,1278.6 842.1,1285.6 890.8,1290.6 936.5,1293.6 979.5,1294.8 1019.9,1294.3 1058.1,1292.1 1094.0,1288.4 1127.9,1283.2 1160.0,1276.4 1190.4,1268.2 1219.2,1258.5 1246.6,1247.3 1272.6,1234.7 1297.5,1220.5 1321.2,1204.8 1343.9,1187.4 1365.7,1168.3 1386.6,1147.4 1406.7,1124.6 1426.1,1099.8 1444.8,1072.9 1462.8,1043.7 1480.2,1012.0 1497.0,977.7 1513.2,940.6 1528.8,900.6 1543.8,857.3 1558.1,810.5 1571.8,760.1 1584.9,705.8 1597.1,647.3 1608.6,584.2 1619.2,516.5 1629.0,443.6  A 1064.250,1064.250 0.00 0,0 1625.3,443.2 L 1625.3,443.2 1615.8,516.1 1605.4,583.9 1594.2,646.9 1582.1,705.5 1569.3,759.9 1555.8,810.3 1541.6,857.1 1526.7,900.5 1511.3,940.6 1495.2,977.7 1478.6,1012.1 1461.3,1043.8 1443.3,1073.1 1424.7,1100.1 1405.4,1125.0 1385.4,1147.8 1364.5,1168.8 1342.8,1187.9 1320.2,1205.4 1296.5,1221.2 1271.7,1235.5 1245.7,1248.2 1218.4,1259.5 1189.6,1269.3 1159.2,1277.6 1127.2,1284.4 1093.3,1289.8 1057.3,1293.7 1019.2,1295.9 978.8,1296.6 935.8,1295.5 890.1,1292.7 841.4,1287.9 789.6,1281.1 734.5,1272.2 675.7,1260.9 613.1,1247.2 546.5,1230.9 475.5,1211.8  Z" style="stroke-width: 2.0;  stroke: rgb(82,82,82); fill: rgb(204,255,0); opacity: 0.667;" />
<path d="M 475.520,1211.784 A 1064.250,1064.250 0.00 0,1 476.5,1208.2 L 476.5,1208.2 547.5,1227.6 614.3,1244.0 677.1,1257.8 736.2,1269.0 791.9,1278.0 844.3,1284.7 893.7,1289.4 940.3,1292.2 984.3,1293.2 1025.8,1292.5 1065.2,1290.3 1102.4,1286.4 1137.8,1281.1 1171.5,1274.4 1203.6,1266.3 1234.3,1256.7 1263.7,1245.8 1292.0,1233.4 1319.2,1219.6 1345.4,1204.3 1370.8,1187.5 1395.5,1169.0 1419.5,1148.9 1443.0,1126.9 1465.9,1103.0 1488.4,1077.0 1510.5,1048.8 1532.2,1018.3 1553.6,985.2 1574.7,949.4 1595.5,910.6 1616.1,868.7 1636.4,823.5 1656.4,774.5 1676.1,721.7 1695.5,664.8 1714.5,603.3 1733.2,537.1 1751.4,465.9  A 1064.250,1064.250 0.00 0,0 1747.8,465.0 L 1747.8,465.0 1729.8,536.3 1711.4,602.6 1692.6,664.1 1673.4,721.1 1653.9,774.0 1634.0,823.0 1613.9,868.3 1593.5,910.3 1572.8,949.1 1551.8,985.0 1530.5,1018.2 1508.9,1048.8 1486.9,1077.1 1464.5,1103.1 1441.7,1127.1 1418.3,1149.2 1394.4,1169.4 1369.7,1188.0 1344.4,1204.9 1318.2,1220.3 1291.0,1234.2 1262.9,1246.6 1233.5,1257.6 1202.8,1267.3 1170.8,1275.6 1137.1,1282.4 1101.7,1287.8 1064.4,1291.8 1025.1,1294.2 983.5,1295.0 939.6,1294.2 893.0,1291.5 843.6,1287.0 791.1,1280.4 735.4,1271.7 676.3,1260.6 613.4,1247.1 546.6,1230.9 475.5,1211.8  Z" style="stroke-width: 2.0;  stroke: rgb(82,82,82); fill: rgb(0,255,0); opacity: 0.667;" />
<path d="M 475.520,1211.784 A 1064.250,1064.250 0.00 0,1 476.5,1208.2 L 476.5,1208.2 547.8,1227.5 615.4,1243.6 679.5,1257.0 740.5,1267.8 798.5,1276.2 853.6,1282.6 906.3,1287.0 956.5,1289.7 1004.5,1290.8 1050.6,1290.5 1094.9,1288.8 1137.5,1286.0 1178.7,1282.1 1218.7,1277.2 1257.5,1271.3 1295.4,1264.5 1332.6,1256.8 1369.1,1248.3 1405.1,1238.9 1440.8,1228.5 1476.3,1217.3 1511.7,1205.0 1547.2,1191.7 1582.9,1177.2 1618.9,1161.4 1655.3,1144.2 1692.2,1125.5 1729.8,1105.1 1768.1,1082.9 1807.2,1058.5 1847.2,1031.9 1888.2,1002.8 1930.4,971.0 1973.6,936.2 2018.1,898.1 2063.9,856.4 2111.0,810.8 2159.5,761.1 2209.5,706.8  A 1064.250,1064.250 0.00 0,0 2206.8,704.3 L 2206.8,704.3 2157.0,758.8 2108.6,808.7 2061.7,854.4 2016.0,896.3 1971.7,934.5 1928.5,969.5 1886.5,1001.5 1845.6,1030.7 1805.6,1057.5 1766.6,1081.9 1728.4,1104.3 1690.9,1124.9 1654.0,1143.7 1617.7,1161.0 1581.8,1176.9 1546.1,1191.5 1510.7,1205.0 1475.3,1217.4 1439.8,1228.7 1404.2,1239.2 1368.2,1248.7 1331.7,1257.4 1294.6,1265.2 1256.7,1272.1 1217.9,1278.2 1178.0,1283.2 1136.8,1287.3 1094.1,1290.2 1049.9,1292.0 1003.8,1292.5 955.8,1291.6 905.5,1289.1 852.9,1284.8 797.7,1278.7 739.7,1270.4 678.7,1259.8 614.5,1246.7 546.8,1230.8 475.5,1211.8  Z" style="stroke-width: 2.0;  stroke: rgb(82,82,82); fill: rgb(53,128,0); opacity: 0.667;" />
<path d="M 475.520,1211.784 A 1064.250,1064.250 0.00 0,1 476.5,1208.2 L 476.5,1208.2 547.8,1227.5 615.4,1243.6 679.6,1257.0 740.6,1267.8 798.6,1276.2 853.8,1282.6 906.5,1287.0 956.8,1289.7 1004.9,1290.8 1051.0,1290.5 1095.4,1288.9 1138.1,1286.1 1179.4,1282.3 1219.5,1277.4 1258.4,1271.6 1296.4,1264.9 1333.7,1257.3 1370.3,1248.8 1406.4,1239.5 1442.3,1229.3 1477.9,1218.2 1513.5,1206.1 1549.1,1192.9 1585.0,1178.6 1621.2,1163.0 1657.8,1146.0 1694.9,1127.6 1732.7,1107.4 1771.2,1085.4 1810.6,1061.3 1850.9,1035.0 1892.3,1006.2 1934.7,974.7 1978.3,940.2 2023.1,902.5 2069.3,861.2 2116.8,816.0 2165.8,766.7 2216.2,712.8  A 1064.250,1064.250 0.00 0,0 2213.5,710.3 L 2213.5,710.3 2163.2,764.4 2114.4,813.9 2067.1,859.2 2021.0,900.7 1976.3,938.6 1932.9,973.2 1890.5,1004.9 1849.3,1033.8 1809.1,1060.3 1769.8,1084.5 1731.3,1106.6 1693.6,1126.9 1656.5,1145.5 1620.0,1162.6 1583.9,1178.3 1548.1,1192.7 1512.5,1206.0 1476.9,1218.2 1441.3,1229.5 1405.5,1239.8 1369.4,1249.3 1332.8,1257.8 1295.6,1265.6 1257.6,1272.4 1218.7,1278.4 1178.7,1283.4 1137.4,1287.4 1094.6,1290.3 1050.3,1292.1 1004.2,1292.5 956.0,1291.6 905.7,1289.0 853.1,1284.8 797.8,1278.6 739.8,1270.4 678.8,1259.8 614.5,1246.7 546.8,1230.8 475.5,1211.8  Z" style="stroke-width: 2.0;  stroke: rgb(82,82,82); fill: rgb(0,0,204); opacity: 0.667;" />
<path d="M 475.520,1211.784 A 1064.250,1064.250 0.00 0,1 476.5,1208.2 L 476.5,1208.2 546.9,1229.0 612.0,1249.6 672.2,1270.1 727.6,1290.3 778.6,1310.5 825.4,1330.5 868.3,1350.4 907.5,1370.2 943.2,1390.0 975.6,1409.8 1004.9,1429.6 1031.2,1449.5 1054.8,1469.5 1075.7,1489.7 1094.0,1510.2 1110.0,1530.9 1123.5,1552.1 1134.8,1573.7 1143.9,1595.8 1150.8,1618.5 1155.6,1641.9 1158.2,1666.2 1158.7,1691.3 1157.0,1717.4 1153.1,1744.6 1147.0,1773.0 1138.5,1802.7 1127.7,1833.9 1114.4,1866.7 1098.5,1901.2 1079.8,1937.5 1058.3,1975.7 1033.7,2016.1 1005.9,2058.8 974.8,2103.9 940.0,2151.6 901.4,2202.0 858.8,2255.4 811.8,2311.8  A 1064.250,1064.250 0.00 0,0 814.6,2314.2 L 814.6,2314.2 861.4,2257.6 903.9,2204.1 942.3,2153.5 976.9,2105.7 1007.9,2060.5 1035.5,2017.8 1059.9,1977.3 1081.3,1938.9 1099.8,1902.5 1115.7,1868.0 1128.9,1835.2 1139.6,1804.0 1147.9,1774.2 1154.0,1745.8 1157.7,1718.6 1159.3,1692.4 1158.8,1667.3 1156.1,1643.1 1151.2,1619.7 1144.2,1597.0 1135.1,1574.9 1123.7,1553.4 1110.1,1532.3 1094.1,1511.6 1075.6,1491.2 1054.7,1471.1 1031.1,1451.1 1004.6,1431.3 975.3,1411.6 942.8,1392.0 907.0,1372.3 867.8,1352.6 824.8,1332.8 777.9,1313.0 726.9,1293.0 671.4,1272.9 611.2,1252.7 546.0,1232.3 475.5,1211.8  Z" style="stroke-width: 2.0;  stroke: rgb(82,82,82); fill: rgb(102,153,255); opacity: 0.667;" />
<path d="M 1112.041,508.982 A 1064.250,1064.250 0.00 0,1 1115.5,507.6 L 1115.5,507.6 1142.2,575.8 1167.5,638.7 1191.5,696.5 1214.2,749.5 1235.6,798.0 1255.9,842.1 1275.2,882.1 1293.4,918.2 1310.7,950.6 1327.1,979.4 1342.7,1004.7 1357.5,1026.8 1371.6,1045.7 1385.1,1061.5 1398.0,1074.4 1410.3,1084.3 1422.1,1091.3 1433.4,1095.6 1444.4,1097.0 1454.9,1095.7 1465.2,1091.6 1475.1,1084.7 1484.9,1075.0 1494.4,1062.3 1503.7,1046.7 1512.8,1028.1 1521.9,1006.3 1530.8,981.3 1539.7,952.9 1548.5,920.9 1557.3,885.3 1566.1,845.8 1575.0,802.3 1583.8,754.5 1592.7,702.3 1601.7,645.3 1610.7,583.4 1619.8,516.3 1629.0,443.6  A 1064.250,1064.250 0.00 0,0 1625.3,443.2 L 1625.3,443.2 1616.4,515.8 1607.5,583.0 1598.7,645.0 1589.9,702.0 1581.2,754.3 1572.5,802.1 1563.9,845.6 1555.2,885.1 1546.5,920.8 1537.8,952.7 1529.0,981.2 1520.2,1006.2 1511.2,1028.0 1502.1,1046.7 1492.8,1062.3 1483.4,1075.0 1473.7,1084.8 1463.8,1091.7 1453.5,1095.9 1443.0,1097.2 1432.0,1095.8 1420.7,1091.6 1408.8,1084.6 1396.5,1074.7 1383.6,1061.9 1370.1,1046.1 1355.9,1027.3 1341.0,1005.3 1325.3,980.0 1308.8,951.3 1291.4,919.0 1273.0,882.9 1253.7,843.0 1233.2,798.9 1211.6,750.5 1188.7,697.6 1164.6,639.8 1139.0,577.1 1112.0,509.0  Z" style="stroke-width: 2.0;  stroke: rgb(82,82,82); fill: rgb(153,204,255); opacity: 0.667;" />
<path d="M 1112.041,508.982 A 1064.250,1064.250 0.00 0,1 1115.5,507.6 L 1115.5,507.6 1142.3,575.8 1167.8,638.7 1192.1,696.5 1215.3,749.4 1237.3,797.9 1258.4,842.0 1278.5,882.1 1297.6,918.2 1316.0,950.6 1333.6,979.4 1350.5,1004.9 1366.7,1027.1 1382.4,1046.1 1397.5,1062.1 1412.1,1075.2 1426.4,1085.4 1440.2,1092.8 1453.8,1097.4 1467.1,1099.2 1480.2,1098.4 1493.1,1094.8 1506.0,1088.4 1518.7,1079.3 1531.5,1067.3 1544.3,1052.5 1557.2,1034.6 1570.3,1013.7 1583.4,989.6 1596.9,962.1 1610.5,931.2 1624.5,896.7 1638.8,858.4 1653.5,816.1 1668.5,769.6 1684.1,718.6 1700.1,663.1 1716.6,602.6 1733.7,537.0 1751.4,465.9  A 1064.250,1064.250 0.00 0,0 1747.8,465.0 L 1747.8,465.0 1730.4,536.2 1713.5,601.9 1697.2,662.4 1681.4,718.0 1666.0,769.0 1651.1,815.5 1636.6,857.9 1622.4,896.3 1608.6,930.8 1595.0,961.8 1581.7,989.3 1568.6,1013.5 1555.6,1034.4 1542.8,1052.3 1530.0,1067.2 1517.3,1079.2 1504.5,1088.4 1491.7,1094.8 1478.8,1098.4 1465.7,1099.4 1452.4,1097.5 1438.8,1093.0 1424.9,1085.6 1410.7,1075.5 1396.0,1062.5 1380.8,1046.5 1365.1,1027.5 1348.8,1005.4 1331.8,980.0 1314.1,951.2 1295.6,918.9 1276.3,882.8 1256.1,842.9 1234.9,798.8 1212.7,750.4 1189.3,697.5 1164.8,639.8 1139.1,577.1 1112.0,509.0  Z" style="stroke-width: 2.0;  stroke: rgb(82,82,82); fill: rgb(0,255,255); opacity: 0.667;" />
<path d="M 1112.041,508.982 A 1064.250,1064.250 0.00 0,1 1115.5,507.6 L 1115.5,507.6 1142.6,575.8 1169.0,638.8 1194.8,696.7 1219.9,750.0 1244.4,798.8 1268.4,843.5 1291.8,884.3 1314.9,921.3 1337.5,954.9 1359.7,985.1 1381.7,1012.2 1403.5,1036.3 1425.1,1057.6 1446.6,1076.2 1468.1,1092.2 1489.7,1105.7 1511.3,1116.7 1533.2,1125.4 1555.4,1131.8 1577.9,1135.9 1600.9,1137.7 1624.4,1137.3 1648.6,1134.6 1673.5,1129.6 1699.3,1122.2 1725.9,1112.4 1753.7,1100.1 1782.5,1085.2 1812.7,1067.6 1844.2,1047.1 1877.2,1023.7 1911.8,997.1 1948.1,967.2 1986.3,933.9 2026.4,896.8 2068.7,855.8 2113.2,810.6 2160.1,761.0 2209.5,706.8  A 1064.250,1064.250 0.00 0,0 2206.8,704.3 L 2206.8,704.3 2157.5,758.8 2110.8,808.5 2066.5,853.8 2024.3,895.0 1984.3,932.2 1946.2,965.7 1910.0,995.7 1875.5,1022.4 1842.6,1045.9 1811.2,1066.5 1781.1,1084.2 1752.3,1099.2 1724.6,1111.6 1698.0,1121.5 1672.2,1129.0 1647.3,1134.1 1623.2,1136.9 1599.6,1137.4 1576.6,1135.6 1554.1,1131.6 1531.9,1125.3 1510.0,1116.7 1488.3,1105.7 1466.7,1092.3 1445.2,1076.4 1423.6,1057.9 1401.9,1036.7 1380.1,1012.6 1358.0,985.6 1335.6,955.4 1312.8,922.0 1289.7,885.0 1266.1,844.3 1242.0,799.7 1217.3,751.0 1192.0,697.8 1166.0,639.9 1139.4,577.1 1112.0,509.0  Z" style="stroke-width: 2.0;  stroke: rgb(82,82,82); fill: rgb(204,255,255); opacity: 0.667;" />
<path d="M 1112.041,508.982 A 1064.250,1064.250 0.00 0,1 1115.5,507.6 L 1115.5,507.6 1142.6,575.8 1169.0,638.8 1194.8,696.7 1219.9,750.0 1244.5,798.9 1268.5,843.6 1292.1,884.3 1315.1,921.4 1337.8,955.0 1360.2,985.3 1382.2,1012.4 1404.1,1036.6 1425.8,1058.0 1447.4,1076.6 1469.0,1092.7 1490.7,1106.2 1512.4,1117.4 1534.4,1126.2 1556.7,1132.7 1579.4,1136.9 1602.5,1138.9 1626.2,1138.6 1650.6,1136.0 1675.7,1131.2 1701.6,1124.0 1728.5,1114.4 1756.4,1102.3 1785.5,1087.6 1815.9,1070.2 1847.6,1050.0 1880.9,1026.9 1915.8,1000.6 1952.4,971.0 1990.9,938.0 2031.4,901.3 2074.1,860.6 2119.0,815.8 2166.3,766.6 2216.2,712.8  A 1064.250,1064.250 0.00 0,0 2213.5,710.3 L 2213.5,710.3 2163.8,764.3 2116.6,813.7 2071.9,858.6 2029.4,899.4 1989.0,936.3 1950.6,969.5 1914.0,999.2 1879.2,1025.6 1846.1,1048.8 1814.4,1069.1 1784.1,1086.6 1755.0,1101.4 1727.1,1113.6 1700.3,1123.3 1674.4,1130.6 1649.3,1135.5 1625.0,1138.2 1601.3,1138.5 1578.1,1136.6 1555.5,1132.5 1533.1,1126.1 1511.1,1117.3 1489.3,1106.3 1467.6,1092.8 1445.9,1076.8 1424.3,1058.2 1402.5,1036.9 1380.6,1012.8 1358.4,985.8 1335.9,955.6 1313.1,922.1 1289.9,885.1 1266.3,844.4 1242.1,799.8 1217.4,751.0 1192.0,697.8 1166.1,639.9 1139.4,577.1 1112.0,509.0  Z" style="stroke-width: 2.0;  stroke: rgb(82,82,82); fill: rgb(153,0,204); opacity: 0.667;" />
<path d="M 1112.041,508.982 A 1064.250,1064.250 0.00 0,1 1115.5,507.6 L 1115.5,507.6 1141.2,576.9 1163.5,642.8 1182.6,705.6 1199.0,765.5 1212.7,822.6 1224.2,877.2 1233.4,929.5 1240.8,979.6 1246.4,1027.7 1250.5,1074.0 1253.1,1118.6 1254.5,1161.8 1254.7,1203.6 1253.8,1244.4 1251.9,1284.1 1249.1,1323.0 1245.4,1361.3 1240.8,1399.0 1235.4,1436.4 1229.2,1473.5 1222.1,1510.6 1214.0,1547.8 1205.0,1585.1 1194.9,1622.8 1183.7,1661.0 1171.2,1699.7 1157.3,1739.2 1141.9,1779.6 1124.8,1820.9 1105.8,1863.3 1084.7,1906.9 1061.4,1951.8 1035.5,1998.2 1006.8,2046.0 975.1,2095.5 940.1,2146.8 901.4,2199.8 858.7,2254.8 811.8,2311.8  A 1064.250,1064.250 0.00 0,0 814.6,2314.2 L 814.6,2314.2 861.4,2257.0 903.8,2201.9 942.3,2148.7 977.2,2097.3 1008.7,2047.7 1037.2,1999.8 1062.9,1953.3 1086.1,1908.3 1107.1,1864.7 1125.9,1822.2 1142.9,1780.8 1158.1,1740.4 1171.9,1700.9 1184.2,1662.1 1195.3,1623.9 1205.3,1586.1 1214.2,1548.7 1222.1,1511.6 1229.1,1474.5 1235.2,1437.3 1240.5,1399.9 1244.9,1362.1 1248.5,1323.9 1251.2,1285.0 1252.9,1245.2 1253.7,1204.5 1253.3,1162.6 1251.8,1119.5 1249.0,1074.8 1244.8,1028.6 1239.0,980.5 1231.5,930.4 1222.0,878.2 1210.4,823.6 1196.4,766.5 1179.9,706.7 1160.5,643.9 1138.0,578.1 1112.0,509.0  Z" style="stroke-width: 2.0;  stroke: rgb(82,82,82); fill: rgb(204,51,255); opacity: 0.667;" />
<path d="M 1112.041,508.982 A 1064.250,1064.250 0.00 0,1 1115.5,507.6 L 1115.5,507.6 1141.5,576.2 1164.5,640.3 1184.9,700.0 1202.6,755.7 1217.9,807.6 1230.8,855.8 1241.5,900.7 1250.1,942.3 1256.7,980.9 1261.4,1016.7 1264.1,1049.8 1265.0,1080.3 1264.1,1108.5 1261.5,1134.3 1257.2,1158.1 1251.1,1179.7 1243.2,1199.5 1233.7,1217.4 1222.3,1233.5 1209.2,1248.0 1194.1,1260.7 1177.2,1271.9 1158.2,1281.5 1137.2,1289.6 1114.0,1296.1 1088.4,1301.1 1060.5,1304.5 1030.0,1306.4 996.8,1306.7 960.8,1305.4 921.7,1302.4 879.5,1297.7 833.8,1291.1 784.6,1282.7 731.5,1272.2 674.5,1259.7 613.1,1244.9 547.2,1227.8 476.5,1208.2  A 1064.250,1064.250 0.00 0,0 475.5,1211.8 L 475.5,1211.8 546.3,1231.1 612.2,1248.0 673.6,1262.5 730.8,1274.9 783.8,1285.1 833.1,1293.4 878.8,1299.8 921.1,1304.4 960.1,1307.3 996.2,1308.5 1029.3,1308.1 1059.8,1306.1 1087.8,1302.5 1113.3,1297.4 1136.5,1290.8 1157.5,1282.7 1176.4,1273.0 1193.3,1261.8 1208.3,1249.0 1221.4,1234.5 1232.7,1218.3 1242.2,1200.4 1250.0,1180.6 1256.0,1158.9 1260.2,1135.2 1262.8,1109.3 1263.6,1081.1 1262.5,1050.6 1259.7,1017.5 1254.9,981.8 1248.2,943.2 1239.5,901.6 1228.6,856.8 1215.5,808.6 1200.0,756.7 1182.1,701.1 1161.6,641.4 1138.3,577.5 1112.0,509.0  Z" style="stroke-width: 2.0;  stroke: rgb(82,82,82); fill: rgb(204,153,255); opacity: 0.667;" />
<path d="M 1174.336,486.802 A 1064.250,1064.250 0.00 0,1 1177.8,485.7 L 1177.8,485.7 1200.3,555.4 1221.5,619.7 1241.6,678.9 1260.7,733.2 1278.8,782.9 1296.0,828.3 1312.2,869.4 1327.7,906.5 1342.4,939.9 1356.3,969.6 1369.6,995.9 1382.3,1018.7 1394.4,1038.4 1405.9,1054.9 1417.0,1068.5 1427.7,1079.0 1437.9,1086.6 1447.8,1091.4 1457.4,1093.4 1466.7,1092.5 1475.7,1088.8 1484.5,1082.3 1493.2,1072.9 1501.7,1060.5 1510.1,1045.2 1518.4,1026.8 1526.7,1005.3 1534.9,980.4 1543.1,952.2 1551.3,920.4 1559.6,884.9 1567.9,845.5 1576.2,802.1 1584.7,754.4 1593.3,702.2 1602.0,645.3 1610.8,583.4 1619.8,516.2 1629.0,443.6  A 1064.250,1064.250 0.00 0,0 1625.3,443.2 L 1625.3,443.2 1616.4,515.8 1607.7,583.0 1599.0,644.9 1590.5,701.9 1582.1,754.1 1573.8,801.8 1565.6,845.3 1557.4,884.7 1549.3,920.2 1541.2,952.1 1533.1,980.3 1524.9,1005.2 1516.8,1026.8 1508.5,1045.2 1500.2,1060.5 1491.7,1072.9 1483.1,1082.3 1474.3,1088.9 1465.3,1092.6 1456.0,1093.5 1446.4,1091.6 1436.5,1086.9 1426.2,1079.2 1415.5,1068.7 1404.4,1055.3 1392.8,1038.8 1380.6,1019.2 1367.9,996.3 1354.5,970.1 1340.4,940.5 1325.6,907.2 1310.1,870.0 1293.6,829.0 1276.3,783.7 1258.1,734.1 1238.8,679.8 1218.5,620.7 1197.0,556.4 1174.3,486.8  Z" style="stroke-width: 2.0;  stroke: rgb(82,82,82); fill: rgb(102,102,102); opacity: 0.667;" />
<path d="M 1174.336,486.802 A 1064.250,1064.250 0.00 0,1 1177.8,485.7 L 1177.8,485.7 1200.3,555.4 1221.8,619.7 1242.3,678.9 1261.8,733.2 1280.5,782.9 1298.4,828.2 1315.5,869.4 1331.9,906.6 1347.7,940.0 1362.8,969.8 1377.4,996.1 1391.5,1019.2 1405.1,1039.0 1418.4,1055.7 1431.2,1069.5 1443.8,1080.3 1456.1,1088.3 1468.2,1093.4 1480.1,1095.8 1491.9,1095.4 1503.7,1092.2 1515.4,1086.2 1527.1,1077.4 1538.9,1065.8 1550.8,1051.2 1562.8,1033.5 1575.1,1012.8 1587.5,988.9 1600.3,961.6 1613.3,930.8 1626.7,896.4 1640.5,858.2 1654.7,815.9 1669.4,769.5 1684.7,718.6 1700.4,663.0 1716.8,602.6 1733.7,537.0 1751.4,465.9  A 1064.250,1064.250 0.00 0,0 1747.8,465.0 L 1747.8,465.0 1730.4,536.2 1713.7,601.8 1697.5,662.4 1682.0,718.0 1666.9,768.9 1652.4,815.4 1638.3,857.7 1624.6,896.0 1611.3,930.4 1598.4,961.2 1585.8,988.6 1573.4,1012.6 1561.2,1033.3 1549.2,1051.0 1537.4,1065.6 1525.6,1077.3 1513.9,1086.2 1502.3,1092.2 1490.5,1095.4 1478.7,1095.8 1466.8,1093.5 1454.7,1088.4 1442.3,1080.5 1429.7,1069.7 1416.8,1056.0 1403.5,1039.3 1389.8,1019.5 1375.7,996.6 1361.0,970.3 1345.7,940.5 1329.9,907.2 1313.3,870.0 1296.1,828.9 1278.1,783.7 1259.2,734.0 1239.4,679.8 1218.8,620.7 1197.1,556.4 1174.3,486.8  Z" style="stroke-width: 2.0;  stroke: rgb(82,82,82); fill: rgb(153,153,153); opacity: 0.667;" />
<path d="M 1174.336,486.802 A 1064.250,1064.250 0.00 0,1 1177.8,485.7 L 1177.8,485.7 1200.6,555.4 1223.0,619.8 1244.9,679.2 1266.4,733.9 1287.6,784.0 1308.4,830.0 1328.9,871.9 1349.1,910.1 1369.1,944.8 1388.9,976.0 1408.6,1004.1 1428.2,1029.1 1447.8,1051.2 1467.4,1070.6 1487.2,1087.3 1507.0,1101.5 1527.1,1113.1 1547.5,1122.4 1568.3,1129.3 1589.6,1133.8 1611.4,1136.1 1633.8,1136.0 1656.9,1133.6 1680.8,1128.8 1705.7,1121.7 1731.5,1112.0 1758.4,1099.9 1786.6,1085.1 1816.0,1067.5 1846.9,1047.2 1879.4,1023.8 1913.5,997.2 1949.4,967.3 1987.2,934.0 2027.0,896.9 2069.0,855.8 2113.4,810.6 2160.1,761.0 2209.5,706.8  A 1064.250,1064.250 0.00 0,0 2206.8,704.3 L 2206.8,704.3 2157.6,758.8 2111.0,808.5 2066.8,853.9 2024.9,895.0 1985.2,932.3 1947.5,965.8 1911.7,995.8 1877.7,1022.4 1845.4,1046.0 1814.5,1066.5 1785.1,1084.1 1757.0,1099.0 1730.2,1111.2 1704.4,1121.0 1679.5,1128.2 1655.6,1133.0 1632.5,1135.5 1610.1,1135.7 1588.3,1133.5 1567.1,1129.0 1546.2,1122.2 1525.8,1113.0 1505.6,1101.4 1485.7,1087.4 1465.9,1070.7 1446.3,1051.4 1426.6,1029.4 1406.9,1004.4 1387.1,976.4 1367.2,945.2 1347.1,910.7 1326.7,872.5 1306.1,830.6 1285.1,784.8 1263.8,734.7 1242.1,680.1 1219.9,620.8 1197.4,556.5 1174.3,486.8  Z" style="stroke-width: 2.0;  stroke: rgb(82,82,82); fill: rgb(204,204,204); opacity: 0.667;" />
<path d="M 1174.336,486.802 A 1064.250,1064.250 0.00 0,1 1177.8,485.7 L 1177.8,485.7 1200.6,555.4 1223.0,619.8 1245.0,679.2 1266.5,733.9 1287.7,784.1 1308.5,830.0 1329.1,872.0 1349.4,910.2 1369.5,944.9 1389.4,976.2 1409.1,1004.3 1428.8,1029.4 1448.5,1051.6 1468.2,1071.0 1488.0,1087.8 1508.0,1102.0 1528.2,1113.8 1548.8,1123.2 1569.7,1130.2 1591.1,1134.8 1613.0,1137.2 1635.6,1137.3 1658.9,1135.0 1683.0,1130.4 1708.0,1123.5 1734.0,1114.0 1761.2,1102.1 1789.5,1087.5 1819.2,1070.2 1850.4,1050.1 1883.1,1027.0 1917.5,1000.7 1953.7,971.1 1991.8,938.1 2032.0,901.3 2074.4,860.7 2119.1,815.9 2166.4,766.7 2216.2,712.8  A 1064.250,1064.250 0.00 0,0 2213.5,710.3 L 2213.5,710.3 2163.8,764.3 2116.8,813.7 2072.2,858.7 2029.9,899.5 1989.9,936.4 1951.8,969.6 1915.7,999.3 1881.4,1025.6 1848.8,1048.9 1817.7,1069.1 1788.1,1086.5 1759.8,1101.2 1732.7,1113.2 1706.7,1122.7 1681.7,1129.8 1657.6,1134.5 1634.3,1136.8 1611.8,1136.8 1589.8,1134.5 1568.4,1129.9 1547.5,1123.0 1526.9,1113.7 1506.6,1102.0 1486.6,1087.8 1466.7,1071.1 1446.9,1051.8 1427.2,1029.6 1407.4,1004.6 1387.5,976.6 1367.5,945.4 1347.3,910.8 1326.9,872.6 1306.2,830.7 1285.2,784.8 1263.9,734.7 1242.1,680.1 1220.0,620.8 1197.4,556.5 1174.3,486.8  Z" style="stroke-width: 2.0;  stroke: rgb(82,82,82); fill: rgb(204,204,153); opacity: 0.667;" />
<path d="M 1174.336,486.802 A 1064.250,1064.250 0.00 0,1 1177.8,485.7 L 1177.8,485.7 1199.2,556.4 1217.3,623.7 1232.5,687.7 1245.1,748.7 1255.3,806.9 1263.4,862.5 1269.4,915.6 1273.8,966.5 1276.6,1015.3 1277.9,1062.3 1278.1,1107.6 1277.0,1151.3 1275.0,1193.7 1272.1,1235.0 1268.2,1275.2 1263.6,1314.7 1258.3,1353.4 1252.2,1391.6 1245.4,1429.4 1237.9,1467.0 1229.6,1504.5 1220.5,1542.1 1210.5,1579.9 1199.5,1618.1 1187.5,1656.7 1174.4,1695.9 1159.9,1735.8 1144.0,1776.6 1126.4,1818.3 1107.0,1861.1 1085.7,1905.1 1062.0,1950.4 1035.9,1997.1 1007.1,2045.2 975.3,2095.0 940.2,2146.5 901.4,2199.7 858.8,2254.8 811.8,2311.8  A 1064.250,1064.250 0.00 0,0 814.6,2314.2 L 814.6,2314.2 861.4,2257.0 903.8,2201.8 942.4,2148.4 977.3,2096.8 1009.0,2046.9 1037.7,1998.7 1063.6,1951.9 1087.1,1906.5 1108.3,1862.5 1127.5,1819.6 1144.9,1777.8 1160.7,1737.0 1175.0,1697.0 1188.1,1657.8 1199.9,1619.1 1210.8,1580.9 1220.6,1543.1 1229.6,1505.5 1237.8,1467.9 1245.2,1430.3 1251.8,1392.4 1257.8,1354.2 1263.0,1315.5 1267.5,1276.1 1271.1,1235.8 1274.0,1194.5 1275.8,1152.1 1276.7,1108.3 1276.4,1063.1 1274.9,1016.1 1271.9,967.3 1267.4,916.4 1261.1,863.3 1252.9,807.8 1242.5,749.6 1229.7,688.6 1214.3,624.7 1195.9,557.4 1174.3,486.8  Z" style="stroke-width: 2.0;  stroke: rgb(82,82,82); fill: rgb(251,106,74); opacity: 0.667;" />
<path d="M 1174.336,486.802 A 1064.250,1064.250 0.00 0,1 1177.8,485.7 L 1177.8,485.7 1199.5,555.8 1218.5,621.2 1234.9,682.2 1249.0,739.1 1260.8,792.1 1270.5,841.4 1278.2,887.1 1283.9,929.7 1287.8,969.1 1289.9,1005.6 1290.3,1039.4 1288.9,1070.6 1286.0,1099.3 1281.4,1125.8 1275.2,1150.1 1267.4,1172.3 1258.0,1192.5 1246.9,1210.9 1234.2,1227.5 1219.7,1242.4 1203.5,1255.6 1185.5,1267.2 1165.5,1277.3 1143.5,1285.7 1119.4,1292.6 1093.1,1298.0 1064.5,1301.8 1033.3,1304.1 999.5,1304.7 963.0,1303.7 923.5,1301.0 880.8,1296.6 834.8,1290.3 785.3,1282.1 732.0,1271.8 674.7,1259.4 613.2,1244.8 547.2,1227.8 476.5,1208.2  A 1064.250,1064.250 0.00 0,0 475.5,1211.8 L 475.5,1211.8 546.3,1231.1 612.3,1247.9 673.9,1262.3 731.2,1274.5 784.5,1284.5 834.1,1292.6 880.1,1298.7 922.8,1303.0 962.3,1305.6 998.9,1306.5 1032.6,1305.7 1063.8,1303.3 1092.4,1299.4 1118.7,1294.0 1142.8,1287.0 1164.7,1278.4 1184.7,1268.3 1202.7,1256.7 1218.8,1243.4 1233.2,1228.5 1245.9,1211.8 1256.9,1193.4 1266.2,1173.1 1274.0,1150.8 1280.1,1126.5 1284.6,1100.1 1287.4,1071.3 1288.7,1040.1 1288.2,1006.3 1286.0,969.8 1282.0,930.4 1276.1,887.9 1268.3,842.2 1258.4,792.9 1246.4,740.0 1232.1,683.2 1215.4,622.2 1196.2,556.8 1174.3,486.8  Z" style="stroke-width: 2.0;  stroke: rgb(82,82,82); fill: rgb(116,196,118); opacity: 0.667;" />
<path d="M 1174.336,486.802 A 1064.250,1064.250 0.00 0,1 1177.8,485.7 L 1177.8,485.7 1200.0,555.5 1220.3,620.0 1239.0,679.5 1256.1,734.2 1271.8,784.4 1285.9,830.3 1298.7,872.0 1310.2,909.9 1320.4,944.0 1329.5,974.6 1337.4,1001.7 1344.1,1025.5 1349.8,1046.1 1354.4,1063.7 1358.1,1078.3 1360.7,1089.9 1362.3,1098.7 1363.0,1104.7 1362.6,1107.9 1361.4,1108.4 1359.1,1106.1 1355.9,1101.0 1351.6,1093.1 1346.3,1082.4 1340.0,1068.8 1332.7,1052.2 1324.2,1032.5 1314.5,1009.7 1303.7,983.7 1291.6,954.2 1278.1,921.2 1263.4,884.5 1247.2,843.9 1229.5,799.3 1210.2,750.4 1189.2,697.0 1166.5,638.9 1142.0,575.9 1115.5,507.6  A 1064.250,1064.250 0.00 0,0 1112.0,509.0 L 1112.0,509.0 1138.8,577.1 1163.5,640.1 1186.4,698.1 1207.6,751.4 1227.0,800.2 1244.9,844.8 1261.2,885.3 1276.1,922.0 1289.7,954.9 1301.9,984.3 1312.8,1010.4 1322.5,1033.1 1331.1,1052.8 1338.5,1069.3 1344.9,1082.9 1350.2,1093.6 1354.5,1101.5 1357.7,1106.6 1360.0,1108.9 1361.3,1108.4 1361.6,1105.2 1360.9,1099.2 1359.3,1090.4 1356.6,1078.8 1352.9,1064.2 1348.2,1046.7 1342.5,1026.0 1335.6,1002.2 1327.7,975.2 1318.5,944.6 1308.2,910.6 1296.5,872.7 1283.6,831.0 1269.3,785.2 1253.5,735.0 1236.2,680.4 1217.3,620.9 1196.7,556.5 1174.3,486.8  Z" style="stroke-width: 2.0;  stroke: rgb(82,82,82); fill: rgb(107,174,214); opacity: 0.667;" />
<path d="M 1365.048,444.341 A 1064.250,1064.250 0.00 0,1 1368.7,443.9 L 1368.7,443.9 1377.9,516.5 1386.7,583.6 1395.1,645.4 1403.2,702.3 1410.9,754.4 1418.4,802.0 1425.5,845.2 1432.4,884.4 1439.1,919.7 1445.5,951.2 1451.8,979.1 1457.8,1003.6 1463.7,1024.7 1469.4,1042.7 1475.1,1057.4 1480.6,1069.2 1486.1,1077.9 1491.5,1083.7 1496.9,1086.6 1502.2,1086.6 1507.6,1083.7 1513.0,1077.9 1518.4,1069.1 1523.9,1057.4 1529.5,1042.6 1535.3,1024.7 1541.1,1003.5 1547.1,979.0 1553.3,951.1 1559.6,919.5 1566.2,884.3 1573.0,845.1 1580.1,801.8 1587.4,754.2 1595.0,702.1 1603.0,645.2 1611.3,583.4 1619.9,516.2 1629.0,443.6  A 1064.250,1064.250 0.00 0,0 1625.3,443.2 L 1625.3,443.2 1616.5,515.8 1608.1,583.0 1600.0,644.9 1592.3,701.8 1584.8,753.9 1577.7,801.5 1570.7,844.8 1564.1,884.0 1557.6,919.3 1551.4,950.9 1545.3,978.9 1539.4,1003.4 1533.6,1024.5 1528.0,1042.5 1522.4,1057.3 1516.9,1069.1 1511.5,1077.9 1506.1,1083.7 1500.8,1086.6 1495.4,1086.6 1490.0,1083.8 1484.6,1078.0 1479.1,1069.3 1473.5,1057.5 1467.9,1042.8 1462.0,1024.9 1456.1,1003.7 1449.9,979.3 1443.6,951.4 1437.1,919.9 1430.3,884.7 1423.3,845.5 1416.0,802.3 1408.4,754.7 1400.4,702.6 1392.1,645.8 1383.5,584.0 1374.5,516.9 1365.0,444.3  Z" style="stroke-width: 2.0;  stroke: rgb(82,82,82); fill: rgb(253,141,60); opacity: 0.667;" />
<path d="M 1365.048,444.341 A 1064.250,1064.250 0.00 0,1 1368.7,443.9 L 1368.7,443.9 1378.0,516.5 1387.0,583.6 1395.7,645.5 1404.3,702.3 1412.7,754.5 1420.8,802.1 1428.8,845.5 1436.7,884.7 1444.4,920.1 1452.0,951.7 1459.6,979.8 1467.0,1004.5 1474.5,1025.8 1481.9,1044.0 1489.3,1059.1 1496.8,1071.1 1504.3,1080.2 1511.9,1086.4 1519.6,1089.7 1527.5,1090.1 1535.6,1087.7 1543.8,1082.5 1552.3,1074.3 1561.1,1063.2 1570.2,1049.1 1579.7,1031.9 1589.5,1011.5 1599.7,987.9 1610.4,960.8 1621.6,930.3 1633.4,896.0 1645.7,857.9 1658.6,815.8 1672.1,769.4 1686.4,718.6 1701.4,663.0 1717.2,602.6 1733.9,537.0 1751.4,465.9  A 1064.250,1064.250 0.00 0,0 1747.8,465.0 L 1747.8,465.0 1730.5,536.2 1714.1,601.8 1698.5,662.3 1683.7,717.9 1669.6,768.8 1656.2,815.2 1643.4,857.4 1631.3,895.6 1619.7,929.9 1608.6,960.5 1598.0,987.5 1587.8,1011.2 1578.1,1031.6 1568.7,1048.8 1559.6,1063.0 1550.9,1074.1 1542.4,1082.3 1534.1,1087.6 1526.1,1090.0 1518.2,1089.6 1510.5,1086.3 1502.8,1080.2 1495.3,1071.1 1487.8,1059.1 1480.3,1044.1 1472.8,1025.9 1465.3,1004.6 1457.8,980.0 1450.1,951.9 1442.4,920.3 1434.5,885.0 1426.6,845.7 1418.4,802.4 1410.1,754.8 1401.5,702.7 1392.8,645.8 1383.8,584.0 1374.6,516.9 1365.0,444.3  Z" style="stroke-width: 2.0;  stroke: rgb(82,82,82); fill: rgb(255,0,0); opacity: 0.667;" />
<path d="M 1365.048,444.341 A 1064.250,1064.250 0.00 0,1 1368.7,443.9 L 1368.7,443.9 1378.3,516.6 1388.1,583.9 1398.3,646.0 1408.8,703.4 1419.6,756.1 1430.7,804.6 1442.1,848.9 1453.7,889.4 1465.7,926.2 1477.9,959.5 1490.5,989.5 1503.5,1016.4 1516.9,1040.2 1530.6,1061.2 1544.9,1079.3 1559.6,1094.8 1575.0,1107.7 1590.9,1118.0 1607.5,1125.9 1624.8,1131.3 1642.9,1134.3 1661.9,1134.8 1681.8,1133.0 1702.7,1128.7 1724.8,1121.9 1748.1,1112.5 1772.6,1100.5 1798.6,1085.9 1826.0,1068.4 1855.1,1048.0 1885.9,1024.5 1918.5,997.9 1953.1,967.9 1989.8,934.4 2028.7,897.2 2070.0,856.0 2113.8,810.7 2160.3,761.1 2209.5,706.8  A 1064.250,1064.250 0.00 0,0 2206.8,704.3 L 2206.8,704.3 2157.7,758.8 2111.4,808.6 2067.8,854.1 2026.6,895.4 1987.8,932.7 1951.2,966.4 1916.8,996.5 1884.2,1023.2 1853.5,1046.8 1824.5,1067.2 1797.1,1084.8 1771.2,1099.6 1746.7,1111.6 1723.5,1121.1 1701.5,1128.0 1680.5,1132.4 1660.6,1134.3 1641.6,1133.8 1623.5,1130.9 1606.2,1125.5 1589.6,1117.7 1573.6,1107.4 1558.2,1094.6 1543.4,1079.2 1529.1,1061.0 1515.3,1040.2 1501.8,1016.4 1488.8,989.6 1476.0,959.6 1463.7,926.3 1451.6,889.6 1439.8,849.1 1428.3,804.8 1417.0,756.4 1406.1,703.7 1395.4,646.4 1385.0,584.3 1374.9,517.0 1365.0,444.3  Z" style="stroke-width: 2.0;  stroke: rgb(82,82,82); fill: rgb(255,0,204); opacity: 0.667;" />
<path d="M 1365.048,444.341 A 1064.250,1064.250 0.00 0,1 1368.7,443.9 L 1368.7,443.9 1378.3,516.6 1388.2,583.9 1398.4,646.1 1408.9,703.4 1419.7,756.2 1430.9,804.7 1442.3,849.0 1454.0,889.5 1466.0,926.4 1478.3,959.7 1491.0,989.8 1504.1,1016.7 1517.5,1040.6 1531.4,1061.6 1545.8,1079.8 1560.6,1095.4 1576.1,1108.4 1592.1,1118.8 1608.8,1126.8 1626.3,1132.3 1644.5,1135.5 1663.7,1136.2 1683.7,1134.5 1704.9,1130.3 1727.1,1123.7 1750.6,1114.5 1775.3,1102.8 1801.5,1088.3 1829.2,1071.1 1858.5,1050.9 1889.6,1027.8 1922.5,1001.4 1957.4,971.7 1994.4,938.5 2033.7,901.7 2075.4,860.9 2119.6,816.0 2166.5,766.7 2216.2,712.8  A 1064.250,1064.250 0.00 0,0 2213.5,710.3 L 2213.5,710.3 2163.9,764.4 2117.2,813.8 2073.2,858.9 2031.6,899.8 1992.5,936.8 1955.6,970.2 1920.8,1000.0 1887.9,1026.4 1857.0,1049.7 1827.7,1069.9 1800.1,1087.3 1773.9,1101.8 1749.2,1113.7 1725.8,1122.9 1703.6,1129.6 1682.5,1133.8 1662.4,1135.6 1643.3,1135.0 1625.0,1131.9 1607.5,1126.4 1590.8,1118.5 1574.7,1108.1 1559.2,1095.2 1544.3,1079.7 1529.9,1061.5 1515.9,1040.5 1502.4,1016.7 1489.3,989.8 1476.5,959.8 1464.0,926.5 1451.9,889.7 1440.0,849.2 1428.4,804.9 1417.2,756.5 1406.2,703.7 1395.4,646.4 1385.0,584.3 1374.9,517.0 1365.0,444.3  Z" style="stroke-width: 2.0;  stroke: rgb(82,82,82); fill: rgb(255,204,204); opacity: 0.667;" />
<path d="M 1365.048,444.341 A 1064.250,1064.250 0.00 0,1 1368.7,443.9 L 1368.7,443.9 1376.7,517.4 1382.2,587.2 1385.3,653.4 1386.4,716.4 1385.8,776.3 1383.5,833.4 1379.8,887.9 1375.0,940.0 1369.0,989.9 1362.2,1037.9 1354.7,1084.1 1346.5,1128.7 1337.7,1172.0 1328.4,1214.0 1318.8,1255.0 1308.7,1295.2 1298.3,1334.7 1287.6,1373.8 1276.5,1412.4 1265.0,1450.9 1253.1,1489.3 1240.8,1527.8 1227.8,1566.6 1214.2,1605.7 1199.8,1645.3 1184.6,1685.6 1168.2,1726.6 1150.7,1768.4 1131.7,1811.2 1111.1,1855.1 1088.7,1900.1 1064.3,1946.4 1037.5,1994.0 1008.1,2043.0 975.9,2093.5 940.5,2145.6 901.6,2199.3 858.8,2254.7 811.8,2311.8  A 1064.250,1064.250 0.00 0,0 814.6,2314.2 L 814.6,2314.2 861.4,2256.9 904.0,2201.3 942.7,2147.5 977.9,2095.3 1010.0,2044.7 1039.2,1995.6 1065.8,1947.9 1090.1,1901.5 1112.4,1856.4 1132.8,1812.5 1151.6,1769.6 1169.0,1727.7 1185.2,1686.7 1200.3,1646.4 1214.6,1606.7 1228.0,1567.5 1240.9,1528.7 1253.1,1490.2 1264.9,1451.7 1276.2,1413.2 1287.1,1374.5 1297.7,1335.4 1308.0,1295.9 1317.9,1255.7 1327.4,1214.6 1336.5,1172.5 1345.2,1129.3 1353.2,1084.6 1360.6,1038.4 1367.3,990.4 1373.0,940.4 1377.7,888.3 1381.2,833.8 1383.3,776.7 1383.7,716.8 1382.4,653.8 1379.0,587.6 1373.3,517.8 1365.0,444.3  Z" style="stroke-width: 2.0;  stroke: rgb(82,82,82); fill: rgb(255,153,0); opacity: 0.667;" />
<path d="M 1365.048,444.341 A 1064.250,1064.250 0.00 0,1 1368.7,443.9 L 1368.7,443.9 1377.1,516.8 1383.5,584.8 1388.1,648.2 1391.1,707.2 1392.4,762.1 1392.1,813.1 1390.5,860.5 1387.4,904.5 1383.0,945.3 1377.3,983.0 1370.4,1018.0 1362.3,1050.3 1352.9,1080.0 1342.3,1107.5 1330.5,1132.7 1317.5,1155.8 1303.2,1177.0 1287.6,1196.3 1270.7,1213.7 1252.3,1229.5 1232.4,1243.5 1211.0,1256.0 1187.9,1266.9 1163.1,1276.2 1136.3,1284.0 1107.6,1290.2 1076.7,1294.9 1043.6,1298.0 1008.0,1299.5 969.8,1299.3 928.8,1297.4 884.9,1293.7 837.8,1288.0 787.4,1280.4 733.3,1270.7 675.5,1258.8 613.5,1244.5 547.3,1227.7 476.5,1208.2  A 1064.250,1064.250 0.00 0,0 475.5,1211.8 L 475.5,1211.8 546.4,1231.0 612.7,1247.6 674.6,1261.7 732.5,1273.4 786.6,1282.9 837.1,1290.3 884.2,1295.8 928.1,1299.4 969.1,1301.1 1007.3,1301.2 1042.9,1299.6 1076.0,1296.4 1106.9,1291.6 1135.6,1285.2 1162.3,1277.4 1187.1,1268.0 1210.2,1257.0 1231.5,1244.5 1251.4,1230.3 1269.7,1214.5 1286.6,1197.0 1302.1,1177.7 1316.3,1156.5 1329.3,1133.3 1341.0,1108.0 1351.5,1080.6 1360.7,1050.7 1368.8,1018.4 1375.6,983.5 1381.1,945.7 1385.3,904.9 1388.2,860.9 1389.8,813.5 1389.8,762.5 1388.3,707.6 1385.2,648.6 1380.4,585.2 1373.7,517.2 1365.0,444.3  Z" style="stroke-width: 2.0;  stroke: rgb(82,82,82); fill: rgb(255,204,0); opacity: 0.667;" />
<path d="M 1365.048,444.341 A 1064.250,1064.250 0.00 0,1 1368.7,443.9 L 1368.7,443.9 1377.6,516.5 1385.5,583.8 1392.5,645.8 1398.5,702.9 1403.8,755.3 1408.2,803.2 1411.9,846.9 1414.8,886.6 1416.9,922.4 1418.4,954.6 1419.2,983.2 1419.3,1008.4 1418.8,1030.3 1417.6,1049.1 1415.7,1064.8 1413.2,1077.6 1410.0,1087.4 1406.2,1094.4 1401.7,1098.5 1396.5,1099.8 1390.5,1098.3 1383.9,1094.0 1376.4,1086.9 1368.2,1076.8 1359.1,1063.8 1349.1,1047.9 1338.3,1028.8 1326.4,1006.5 1313.6,981.0 1299.6,952.0 1284.6,919.4 1268.4,883.1 1250.9,842.9 1232.1,798.5 1211.9,749.9 1190.2,696.7 1166.9,638.8 1142.1,575.9 1115.5,507.6  A 1064.250,1064.250 0.00 0,0 1112.0,509.0 L 1112.0,509.0 1138.9,577.1 1164.0,639.9 1187.4,697.8 1209.3,750.9 1229.6,799.5 1248.6,843.7 1266.2,883.9 1282.6,920.1 1297.7,952.7 1311.8,981.6 1324.7,1007.1 1336.6,1029.4 1347.6,1048.4 1357.6,1064.3 1366.7,1077.3 1375.0,1087.3 1382.4,1094.4 1389.1,1098.7 1395.1,1100.2 1400.3,1098.8 1404.8,1094.7 1408.6,1087.7 1411.7,1077.9 1414.2,1065.1 1416.0,1049.4 1417.1,1030.6 1417.6,1008.7 1417.4,983.5 1416.5,954.9 1414.9,922.7 1412.6,886.9 1409.6,847.3 1405.8,803.6 1401.2,755.6 1395.8,703.2 1389.5,646.2 1382.3,584.2 1374.2,517.0 1365.0,444.3  Z" style="stroke-width: 2.0;  stroke: rgb(82,82,82); fill: rgb(255,255,0); opacity: 0.667;" />
<path d="M 1365.048,444.341 A 1064.250,1064.250 0.00 0,1 1368.7,443.9 L 1368.7,443.9 1377.6,516.5 1385.6,583.7 1392.8,645.7 1399.1,702.7 1404.7,755.1 1409.5,802.9 1413.5,846.5 1416.9,886.0 1419.7,921.7 1421.7,953.6 1423.2,982.0 1424.0,1007.0 1424.3,1028.7 1423.9,1047.2 1423.0,1062.7 1421.5,1075.1 1419.3,1084.5 1416.6,1091.1 1413.3,1094.8 1409.4,1095.7 1404.8,1093.7 1399.6,1088.9 1393.7,1081.1 1387.2,1070.5 1379.9,1056.9 1371.8,1040.2 1363.0,1020.4 1353.3,997.4 1342.7,971.0 1331.3,941.1 1318.8,907.5 1305.4,870.2 1290.9,828.9 1275.2,783.4 1258.4,733.5 1240.3,679.1 1220.9,619.8 1200.1,555.4 1177.8,485.7  A 1064.250,1064.250 0.00 0,0 1174.3,486.8 L 1174.3,486.8 1196.8,556.5 1217.9,620.8 1237.5,680.0 1255.8,734.4 1272.8,784.2 1288.6,829.6 1303.2,870.9 1316.8,908.2 1329.3,941.6 1340.9,971.5 1351.5,997.9 1361.3,1020.9 1370.2,1040.7 1378.3,1057.3 1385.7,1070.9 1392.3,1081.5 1398.2,1089.2 1403.4,1094.0 1408.0,1096.0 1411.9,1095.1 1415.2,1091.4 1417.9,1084.8 1420.0,1075.4 1421.5,1062.9 1422.4,1047.5 1422.7,1029.0 1422.3,1007.3 1421.4,982.3 1419.9,953.9 1417.7,922.0 1414.8,886.3 1411.3,846.8 1407.0,803.2 1402.1,755.4 1396.4,703.1 1389.8,646.1 1382.5,584.1 1374.2,517.0 1365.0,444.3  Z" style="stroke-width: 2.0;  stroke: rgb(82,82,82); fill: rgb(204,255,0); opacity: 0.667;" />
<path d="M 1131.568,501.558 A 1064.250,1064.250 0.00 0,1 1143.4,497.3 L 1143.4,497.3 1168.2,566.2 1191.5,629.7 1213.5,688.2 1234.1,741.9 1253.6,791.0 1271.9,835.7 1289.1,876.3 1305.3,913.0 1320.6,945.8 1334.9,975.1 1348.4,1000.8 1361.1,1023.3 1373.1,1042.5 1384.3,1058.7 1394.9,1071.8 1404.9,1081.9 1414.3,1089.2 1423.2,1093.6 1431.6,1095.1 1439.5,1093.9 1447.0,1089.8 1454.1,1082.8 1460.8,1073.0 1467.2,1060.3 1473.2,1044.5 1478.9,1025.7 1484.3,1003.7 1489.4,978.5 1494.2,949.8 1498.8,917.5 1503.1,881.5 1507.1,841.7 1510.9,797.8 1514.5,749.5 1517.8,696.8 1520.8,639.4 1523.5,577.0 1526.0,509.3 1528.2,436.1  A 1064.250,1064.250 0.00 0,0 1515.6,435.9 L 1515.6,435.9 1514.3,509.1 1512.7,576.8 1510.6,639.2 1508.3,696.7 1505.6,749.4 1502.7,797.7 1499.4,841.6 1495.8,881.5 1491.9,917.6 1487.7,949.9 1483.2,978.6 1478.4,1004.0 1473.3,1026.0 1467.8,1044.9 1462.0,1060.7 1455.8,1073.5 1449.2,1083.4 1442.2,1090.4 1434.7,1094.6 1426.8,1096.0 1418.4,1094.5 1409.5,1090.2 1400.0,1083.1 1389.9,1073.0 1379.1,1060.1 1367.7,1044.1 1355.5,1025.0 1342.5,1002.7 1328.7,977.1 1314.0,948.0 1298.4,915.3 1281.8,878.9 1264.0,838.5 1245.2,794.0 1225.2,745.1 1203.9,691.7 1181.2,633.5 1157.1,570.2 1131.6,501.6  Z" style="stroke-width: 2.0;  stroke: rgb(82,82,82); fill: rgb(0,255,0); opacity: 0.667;" />
</g>
<defs>
<pattern id="hline-sparse" width="10" height="10" patternTransform="rotate(0 0 0)" patternUnits="userSpaceOnUse"><line x1="0" y1="0" x2="10" y2="0" style="stroke:black;stroke-width:2" /></pattern>
<pattern id="checker" width="10" height="10" patternTransform="rotate(45 0 0)" patternUnits="userSpaceOnUse"><line x1="0" y1="0" x2="10" y2="0" style="stroke:black;stroke-width:2" /><line x1="0" y1="0" x2="0" y2="10" style="stroke:black;stroke-width:2" /></pattern>
<pattern id="checker" width="10" height="10" patternTransform="rotate(45 0 0)" patternUnits="userSpaceOnUse"><line x1="0" y1="0" x2="10" y2="0" style="stroke:black;stroke-width:5" /><line x1="0" y1="0" x2="0" y2="10" style="stroke:black;stroke-width:4" /></pattern>
<pattern id="hline" width="10" height="10" patternTransform="rotate(0 0 0)" patternUnits="userSpaceOnUse"><line x1="0" y1="0" x2="10" y2="0" style="stroke:black;stroke-width:5" /></pattern>
<pattern id="vline-sparse" width="10" height="10" patternTransform="rotate(0 0 0)" patternUnits="userSpaceOnUse"><line x1="0" y1="0" x2="0" y2="10" style="stroke:black;stroke-width:2" /></pattern>
<pattern id="vline" width="10" height="10" patternTransform="rotate(0 0 0)" patternUnits="userSpaceOnUse"><line x1="0" y1="0" x2="0" y2="10" style="stroke:black;stroke-width:5" /></pattern>
</defs>
</svg>
