<?xml version="1.0" encoding="utf-8" standalone="no"?>
<!DOCTYPE svg PUBLIC "-//W3C//DTD SVG 1.1//EN" "http://www.w3.org/Graphics/SVG/1.1/DTD/svg11.dtd">
<svg width="3000px" height="3000px" version="1.1" xmlns="http://www.w3.org/2000/svg" xmlns:xlink="http://www.w3.org/1999/xlink">
<g id="ideograms">
<path d="M1500.000,425.000 A1075.000,1075.000 40.000 0,1 1777.942,461.553 L1790.870,413.253 A1125.000,1125.000 0.000 0,0 1500.000,375.000 Z" style="stroke-linecap:round;fill:rgb(116,196,118);fill-opacity:0.33;" />
<text x="1667.8" y="296.6" font-size="18.2px" font-family="CMUBright-Roman" style="text-anchor:start;fill:rgb(0,0,0);" transform="rotate(277.5,1667.8,296.6)" >R<tspan baseline-shift="-40%" font-size="90%">s</tspan>caffold<tspan baseline-shift="-40%" font-size="90%">8</tspan></text>
<line x1='1500.0' y1='375.0' x2='1500.0' y2='355.0' style="stroke-width:4.0;stroke:rgb(0,0,0);stroke-linecap:round;fill:none;" />
<text x="1506.5" y="345.0" font-size="18.2px" font-family="CMUBright-Roman" style="text-anchor:start;fill:rgb(0,0,0);" transform="rotate(270.0,1506.5,345.0)" >0</text>
<line x1='1562.4' y1='376.7' x2='1563.5' y2='356.8' style="stroke-width:4.0;stroke:rgb(0,0,0);stroke-linecap:round;fill:none;" />
<text x="1570.6" y="347.2" font-size="18.2px" font-family="CMUBright-Roman" style="text-anchor:start;fill:rgb(0,0,0);" transform="rotate(273.2,1570.6,347.2)" >50</text>
<line x1='1624.6' y1='381.9' x2='1626.8' y2='362.0' style="stroke-width:4.0;stroke:rgb(0,0,0);stroke-linecap:round;fill:none;" />
<text x="1634.4" y="352.8" font-size="18.2px" font-family="CMUBright-Roman" style="text-anchor:start;fill:rgb(0,0,0);" transform="rotate(276.4,1634.4,352.8)" >100</text>
<line x1='1686.5' y1='390.6' x2='1689.8' y2='370.8' style="stroke-width:4.0;stroke:rgb(0,0,0);stroke-linecap:round;fill:none;" />
<text x="1697.8" y="362.1" font-size="18.2px" font-family="CMUBright-Roman" style="text-anchor:start;fill:rgb(0,0,0);" transform="rotate(279.5,1697.8,362.1)" >150</text>
<line x1='1747.7' y1='402.6' x2='1752.1' y2='383.1' style="stroke-width:4.0;stroke:rgb(0,0,0);stroke-linecap:round;fill:none;" />
<text x="1760.6" y="374.8" font-size="18.2px" font-family="CMUBright-Roman" style="text-anchor:start;fill:rgb(0,0,0);" transform="rotate(282.7,1760.6,374.8)" >200</text>
<g id="highlighttrack_0">
<path d="M1742.428,452.692 A1075.000,1075.000 40.000 0,1 1758.144,456.455 L1770.151,407.918 A1125.000,1125.000 0.000 0,0 1753.703,403.980 Z" style="stroke-width:4.0;stroke:rgb(0,0,0);stroke-linecap:round;fill:rgb(116,196,118);" />
</g>
<path d="M1838.972,479.842 A1075.000,1075.000 40.000 0,1 2040.111,570.535 L2065.233,527.304 A1125.000,1125.000 0.000 0,0 1854.738,432.393 Z" style="stroke-linecap:round;fill:rgb(116,196,118);fill-opacity:0.33;" />
<text x="2008.1" y="396.3" font-size="18.2px" font-family="CMUBright-Roman" style="text-anchor:start;fill:rgb(0,0,0);" transform="rotate(294.3,2008.1,396.3)" >R<tspan baseline-shift="-40%" font-size="90%">s</tspan>caffold<tspan baseline-shift="-40%" font-size="90%">1</tspan>1</text>
<line x1='1854.7' y1='432.4' x2='1861.0' y2='413.4' style="stroke-width:4.0;stroke:rgb(0,0,0);stroke-linecap:round;fill:none;" />
<text x="1870.4" y="406.0" font-size="18.2px" font-family="CMUBright-Roman" style="text-anchor:start;fill:rgb(0,0,0);" transform="rotate(288.4,1870.4,406.0)" >0</text>
<line x1='1913.4' y1='453.7' x2='1920.8' y2='435.1' style="stroke-width:4.0;stroke:rgb(0,0,0);stroke-linecap:round;fill:none;" />
<text x="1930.5" y="428.2" font-size="18.2px" font-family="CMUBright-Roman" style="text-anchor:start;fill:rgb(0,0,0);" transform="rotate(291.6,1930.5,428.2)" >50</text>
<line x1='1970.8' y1='478.3' x2='1979.2' y2='460.1' style="stroke-width:4.0;stroke:rgb(0,0,0);stroke-linecap:round;fill:none;" />
<text x="1989.3" y="453.7" font-size="18.2px" font-family="CMUBright-Roman" style="text-anchor:start;fill:rgb(0,0,0);" transform="rotate(294.7,1989.3,453.7)" >100</text>
<line x1='2026.8' y1='505.9' x2='2036.1' y2='488.3' style="stroke-width:4.0;stroke:rgb(0,0,0);stroke-linecap:round;fill:none;" />
<text x="2046.6" y="482.5" font-size="18.2px" font-family="CMUBright-Roman" style="text-anchor:start;fill:rgb(0,0,0);" transform="rotate(297.9,2046.6,482.5)" >150</text>
<g id="highlighttrack_0">
<path d="M2008.489,552.865 A1075.000,1075.000 40.000 0,1 2023.991,561.353 L2048.362,517.695 A1125.000,1125.000 0.000 0,0 2032.139,508.812 Z" style="stroke-width:4.0;stroke:rgb(0,0,0);stroke-linecap:round;fill:rgb(116,196,118);" />
</g>
<path d="M2094.225,604.164 A1075.000,1075.000 40.000 0,1 2119.539,621.480 L2148.354,580.619 A1125.000,1125.000 0.000 0,0 2121.863,562.497 Z" style="stroke-linecap:round;fill:rgb(116,196,118);fill-opacity:0.33;" />
<text x="2193.8" y="502.6" font-size="18.2px" font-family="CMUBright-Roman" style="text-anchor:start;fill:rgb(0,0,0);" transform="rotate(304.4,2193.8,502.6)" >R<tspan baseline-shift="-40%" font-size="90%">s</tspan>caffold<tspan baseline-shift="-40%" font-size="90%">2</tspan>2</text>
<line x1='2121.9' y1='562.5' x2='2132.9' y2='545.8' style="stroke-width:4.0;stroke:rgb(0,0,0);stroke-linecap:round;fill:none;" />
<text x="2143.9" y="541.1" font-size="18.2px" font-family="CMUBright-Roman" style="text-anchor:start;fill:rgb(0,0,0);" transform="rotate(303.6,2143.9,541.1)" >0</text>
<g id="highlighttrack_0">
<path d="M2111.123,615.605 A1075.000,1075.000 40.000 0,1 2113.142,617.004 L2141.660,575.934 A1125.000,1125.000 0.000 0,0 2139.547,574.471 Z" style="stroke-width:4.0;stroke:rgb(0,0,0);stroke-linecap:round;fill:rgb(251,106,74);" />
</g>
<path d="M2170.495,659.725 A1075.000,1075.000 40.000 0,1 2254.073,733.842 L2289.146,698.206 A1125.000,1125.000 0.000 0,0 2201.680,620.642 Z" style="stroke-linecap:round;fill:rgb(116,196,118);fill-opacity:0.33;" />
<text x="2313.2" y="597.3" font-size="18.2px" font-family="CMUBright-Roman" style="text-anchor:start;fill:rgb(0,0,0);" transform="rotate(311.6,2313.2,597.3)" >R<tspan baseline-shift="-40%" font-size="90%">s</tspan>caffold<tspan baseline-shift="-40%" font-size="90%">2</tspan>0</text>
<line x1='2201.7' y1='620.6' x2='2214.2' y2='605.0' style="stroke-width:4.0;stroke:rgb(0,0,0);stroke-linecap:round;fill:none;" />
<text x="2225.5" y="601.3" font-size="18.2px" font-family="CMUBright-Roman" style="text-anchor:start;fill:rgb(0,0,0);" transform="rotate(308.6,2225.5,601.3)" >0</text>
<line x1='2249.4' y1='660.9' x2='2262.7' y2='646.0' style="stroke-width:4.0;stroke:rgb(0,0,0);stroke-linecap:round;fill:none;" />
<text x="2274.2" y="642.9" font-size="18.2px" font-family="CMUBright-Roman" style="text-anchor:start;fill:rgb(0,0,0);" transform="rotate(311.8,2274.2,642.9)" >50</text>
<g id="highlighttrack_0">
<path d="M2184.729,671.283 A1075.000,1075.000 40.000 0,1 2187.292,673.408 L2219.259,634.961 A1125.000,1125.000 0.000 0,0 2216.576,632.738 Z" style="stroke-width:4.0;stroke:rgb(0,0,0);stroke-linecap:round;fill:rgb(116,196,118);" />
</g>
<path d="M2298.136,779.859 A1075.000,1075.000 40.000 0,1 2300.556,782.550 L2337.792,749.180 A1125.000,1125.000 0.000 0,0 2335.259,746.364 Z" style="stroke-linecap:round;fill:rgb(116,196,118);fill-opacity:0.33;" />
<text x="2409.8" y="694.7" font-size="18.2px" font-family="CMUBright-Roman" style="text-anchor:start;fill:rgb(0,0,0);" transform="rotate(318.0,2409.8,694.7)" >R<tspan baseline-shift="-40%" font-size="90%">s</tspan>caffold<tspan baseline-shift="-40%" font-size="90%">2</tspan>9</text>
<line x1='2335.3' y1='746.4' x2='2350.1' y2='733.0' style="stroke-width:4.0;stroke:rgb(0,0,0);stroke-linecap:round;fill:none;" />
<text x="2361.9" y="731.1" font-size="18.2px" font-family="CMUBright-Roman" style="text-anchor:start;fill:rgb(0,0,0);" transform="rotate(317.9,2361.9,731.1)" >0</text>
<g id="highlighttrack_0">
<path d="M2298.207,779.937 A1075.000,1075.000 40.000 0,1 2300.527,782.517 L2337.761,749.146 A1125.000,1125.000 0.000 0,0 2335.333,746.446 Z" style="stroke-width:4.0;stroke:rgb(0,0,0);stroke-linecap:round;fill:rgb(251,106,74);" />
</g>
<path d="M2341.653,831.236 A1075.000,1075.000 40.000 1,1 1436.316,426.888 L1433.354,376.976 A1125.000,1125.000 0.000 1,0 2380.799,800.130 Z" style="stroke-linecap:round;fill:rgb(116,196,118);fill-opacity:0.33;" />
<text x="1013.2" y="2613.2" font-size="18.2px" font-family="CMUBright-Roman" style="text-anchor:end;fill:rgb(0,0,0);" transform="rotate(-65.9,1013.2,2613.2)" >NZ<tspan baseline-shift="-40%" font-size="90%">C</tspan>P034246.1</text>
<line x1='2380.8' y1='800.1' x2='2396.5' y2='787.7' style="stroke-width:4.0;stroke:rgb(0,0,0);stroke-linecap:round;fill:none;" />
<text x="2408.3" y="786.6" font-size="18.2px" font-family="CMUBright-Roman" style="text-anchor:start;fill:rgb(0,0,0);" transform="rotate(321.5,2408.3,786.6)" >0</text>
<line x1='2418.3' y1='850.1' x2='2434.6' y2='838.5' style="stroke-width:4.0;stroke:rgb(0,0,0);stroke-linecap:round;fill:none;" />
<text x="2446.5" y="838.1" font-size="18.2px" font-family="CMUBright-Roman" style="text-anchor:start;fill:rgb(0,0,0);" transform="rotate(324.7,2446.5,838.1)" >50</text>
<line x1='2452.9' y1='902.0' x2='2469.8' y2='891.4' style="stroke-width:4.0;stroke:rgb(0,0,0);stroke-linecap:round;fill:none;" />
<text x="2481.8" y="891.6" font-size="18.2px" font-family="CMUBright-Roman" style="text-anchor:start;fill:rgb(0,0,0);" transform="rotate(327.9,2481.8,891.6)" >100</text>
<line x1='2484.6' y1='955.8' x2='2502.1' y2='946.1' style="stroke-width:4.0;stroke:rgb(0,0,0);stroke-linecap:round;fill:none;" />
<text x="2514.0" y="947.0" font-size="18.2px" font-family="CMUBright-Roman" style="text-anchor:start;fill:rgb(0,0,0);" transform="rotate(331.1,2514.0,947.0)" >150</text>
<line x1='2513.3' y1='1011.2' x2='2531.3' y2='1002.6' style="stroke-width:4.0;stroke:rgb(0,0,0);stroke-linecap:round;fill:none;" />
<text x="2543.1" y="1004.1" font-size="18.2px" font-family="CMUBright-Roman" style="text-anchor:start;fill:rgb(0,0,0);" transform="rotate(334.2,2543.1,1004.1)" >200</text>
<line x1='2538.8' y1='1068.2' x2='2557.3' y2='1060.5' style="stroke-width:4.0;stroke:rgb(0,0,0);stroke-linecap:round;fill:none;" />
<text x="2569.0" y="1062.7" font-size="18.2px" font-family="CMUBright-Roman" style="text-anchor:start;fill:rgb(0,0,0);" transform="rotate(337.4,2569.0,1062.7)" >250</text>
<line x1='2561.2' y1='1126.5' x2='2580.1' y2='1119.9' style="stroke-width:4.0;stroke:rgb(0,0,0);stroke-linecap:round;fill:none;" />
<text x="2591.6" y="1122.7" font-size="18.2px" font-family="CMUBright-Roman" style="text-anchor:start;fill:rgb(0,0,0);" transform="rotate(340.6,2591.6,1122.7)" >300</text>
<line x1='2580.3' y1='1185.9' x2='2599.5' y2='1180.4' style="stroke-width:4.0;stroke:rgb(0,0,0);stroke-linecap:round;fill:none;" />
<text x="2610.9" y="1183.8" font-size="18.2px" font-family="CMUBright-Roman" style="text-anchor:start;fill:rgb(0,0,0);" transform="rotate(343.8,2610.9,1183.8)" >350</text>
<line x1='2596.0' y1='1246.3' x2='2615.5' y2='1241.8' style="stroke-width:4.0;stroke:rgb(0,0,0);stroke-linecap:round;fill:none;" />
<text x="2626.7" y="1245.9" font-size="18.2px" font-family="CMUBright-Roman" style="text-anchor:start;fill:rgb(0,0,0);" transform="rotate(347.0,2626.7,1245.9)" >400</text>
<line x1='2608.4' y1='1307.5' x2='2628.1' y2='1304.1' style="stroke-width:4.0;stroke:rgb(0,0,0);stroke-linecap:round;fill:none;" />
<text x="2639.1" y="1308.8" font-size="18.2px" font-family="CMUBright-Roman" style="text-anchor:start;fill:rgb(0,0,0);" transform="rotate(350.1,2639.1,1308.8)" >450</text>
<line x1='2617.4' y1='1369.3' x2='2637.2' y2='1367.0' style="stroke-width:4.0;stroke:rgb(0,0,0);stroke-linecap:round;fill:none;" />
<text x="2647.9" y="1372.3" font-size="18.2px" font-family="CMUBright-Roman" style="text-anchor:start;fill:rgb(0,0,0);" transform="rotate(353.3,2647.9,1372.3)" >500</text>
<line x1='2622.9' y1='1431.5' x2='2642.9' y2='1430.3' style="stroke-width:4.0;stroke:rgb(0,0,0);stroke-linecap:round;fill:none;" />
<text x="2653.2" y="1436.2" font-size="18.2px" font-family="CMUBright-Roman" style="text-anchor:start;fill:rgb(0,0,0);" transform="rotate(356.5,2653.2,1436.2)" >550</text>
<line x1='2625.0' y1='1493.9' x2='2645.0' y2='1493.8' style="stroke-width:4.0;stroke:rgb(0,0,0);stroke-linecap:round;fill:none;" />
<text x="2655.0" y="1500.2" font-size="18.2px" font-family="CMUBright-Roman" style="text-anchor:start;fill:rgb(0,0,0);" transform="rotate(359.7,2655.0,1500.2)" >600</text>
<line x1='2623.6' y1='1556.3' x2='2643.6' y2='1557.3' style="stroke-width:4.0;stroke:rgb(0,0,0);stroke-linecap:round;fill:none;" />
<text x="2653.2" y="1564.3" font-size="18.2px" font-family="CMUBright-Roman" style="text-anchor:start;fill:rgb(0,0,0);" transform="rotate(2.9,2653.2,1564.3)" >650</text>
<line x1='2618.7' y1='1618.6' x2='2638.6' y2='1620.7' style="stroke-width:4.0;stroke:rgb(0,0,0);stroke-linecap:round;fill:none;" />
<text x="2647.9" y="1628.2" font-size="18.2px" font-family="CMUBright-Roman" style="text-anchor:start;fill:rgb(0,0,0);" transform="rotate(6.0,2647.9,1628.2)" >700</text>
<line x1='2610.4' y1='1680.4' x2='2630.2' y2='1683.6' style="stroke-width:4.0;stroke:rgb(0,0,0);stroke-linecap:round;fill:none;" />
<text x="2639.0" y="1691.7" font-size="18.2px" font-family="CMUBright-Roman" style="text-anchor:start;fill:rgb(0,0,0);" transform="rotate(9.2,2639.0,1691.7)" >750</text>
<line x1='2598.7' y1='1741.8' x2='2618.2' y2='1746.1' style="stroke-width:4.0;stroke:rgb(0,0,0);stroke-linecap:round;fill:none;" />
<text x="2626.6" y="1754.5" font-size="18.2px" font-family="CMUBright-Roman" style="text-anchor:start;fill:rgb(0,0,0);" transform="rotate(12.4,2626.6,1754.5)" >800</text>
<line x1='2583.6' y1='1802.3' x2='2602.9' y2='1807.7' style="stroke-width:4.0;stroke:rgb(0,0,0);stroke-linecap:round;fill:none;" />
<text x="2610.7" y="1816.7" font-size="18.2px" font-family="CMUBright-Roman" style="text-anchor:start;fill:rgb(0,0,0);" transform="rotate(15.6,2610.7,1816.7)" >850</text>
<line x1='2565.2' y1='1862.0' x2='2584.1' y2='1868.4' style="stroke-width:4.0;stroke:rgb(0,0,0);stroke-linecap:round;fill:none;" />
<text x="2591.5" y="1877.8" font-size="18.2px" font-family="CMUBright-Roman" style="text-anchor:start;fill:rgb(0,0,0);" transform="rotate(18.8,2591.5,1877.8)" >900</text>
<line x1='2543.5' y1='1920.5' x2='2562.0' y2='1928.0' style="stroke-width:4.0;stroke:rgb(0,0,0);stroke-linecap:round;fill:none;" />
<text x="2568.8" y="1937.7" font-size="18.2px" font-family="CMUBright-Roman" style="text-anchor:start;fill:rgb(0,0,0);" transform="rotate(21.9,2568.8,1937.7)" >950</text>
<line x1='2518.5' y1='1977.7' x2='2536.6' y2='1986.2' style="stroke-width:4.0;stroke:rgb(0,0,0);stroke-linecap:round;fill:none;" />
<text x="2542.9" y="1996.4" font-size="18.2px" font-family="CMUBright-Roman" style="text-anchor:start;fill:rgb(0,0,0);" transform="rotate(25.1,2542.9,1996.4)" >1000</text>
<line x1='2490.5' y1='2033.5' x2='2508.1' y2='2043.0' style="stroke-width:4.0;stroke:rgb(0,0,0);stroke-linecap:round;fill:none;" />
<text x="2513.8" y="2053.5" font-size="18.2px" font-family="CMUBright-Roman" style="text-anchor:start;fill:rgb(0,0,0);" transform="rotate(28.3,2513.8,2053.5)" >1050</text>
<line x1='2459.3' y1='2087.6' x2='2476.4' y2='2098.1' style="stroke-width:4.0;stroke:rgb(0,0,0);stroke-linecap:round;fill:none;" />
<text x="2481.5" y="2108.8" font-size="18.2px" font-family="CMUBright-Roman" style="text-anchor:start;fill:rgb(0,0,0);" transform="rotate(31.5,2481.5,2108.8)" >1100</text>
<line x1='2425.3' y1='2139.9' x2='2441.7' y2='2151.3' style="stroke-width:4.0;stroke:rgb(0,0,0);stroke-linecap:round;fill:none;" />
<text x="2446.2" y="2162.3" font-size="18.2px" font-family="CMUBright-Roman" style="text-anchor:start;fill:rgb(0,0,0);" transform="rotate(34.7,2446.2,2162.3)" >1150</text>
<line x1='2388.3' y1='2190.3' x2='2404.1' y2='2202.6' style="stroke-width:4.0;stroke:rgb(0,0,0);stroke-linecap:round;fill:none;" />
<text x="2408.0" y="2213.8" font-size="18.2px" font-family="CMUBright-Roman" style="text-anchor:start;fill:rgb(0,0,0);" transform="rotate(37.8,2408.0,2213.8)" >1200</text>
<line x1='2348.7' y1='2238.5' x2='2363.8' y2='2251.6' style="stroke-width:4.0;stroke:rgb(0,0,0);stroke-linecap:round;fill:none;" />
<text x="2367.0" y="2263.1" font-size="18.2px" font-family="CMUBright-Roman" style="text-anchor:start;fill:rgb(0,0,0);" transform="rotate(41.0,2367.0,2263.1)" >1250</text>
<line x1='2306.4' y1='2284.4' x2='2320.7' y2='2298.4' style="stroke-width:4.0;stroke:rgb(0,0,0);stroke-linecap:round;fill:none;" />
<text x="2323.4" y="2310.0" font-size="18.2px" font-family="CMUBright-Roman" style="text-anchor:start;fill:rgb(0,0,0);" transform="rotate(44.2,2323.4,2310.0)" >1300</text>
<line x1='2261.6' y1='2328.0' x2='2275.2' y2='2342.7' style="stroke-width:4.0;stroke:rgb(0,0,0);stroke-linecap:round;fill:none;" />
<text x="2277.2" y="2354.4" font-size="18.2px" font-family="CMUBright-Roman" style="text-anchor:start;fill:rgb(0,0,0);" transform="rotate(47.4,2277.2,2354.4)" >1350</text>
<line x1='2214.5' y1='2368.9' x2='2227.2' y2='2384.4' style="stroke-width:4.0;stroke:rgb(0,0,0);stroke-linecap:round;fill:none;" />
<text x="2228.6" y="2396.2" font-size="18.2px" font-family="CMUBright-Roman" style="text-anchor:start;fill:rgb(0,0,0);" transform="rotate(50.6,2228.6,2396.2)" >1400</text>
<line x1='2165.2' y1='2407.2' x2='2177.1' y2='2423.4' style="stroke-width:4.0;stroke:rgb(0,0,0);stroke-linecap:round;fill:none;" />
<text x="2177.7" y="2435.3" font-size="18.2px" font-family="CMUBright-Roman" style="text-anchor:start;fill:rgb(0,0,0);" transform="rotate(53.7,2177.7,2435.3)" >1450</text>
<line x1='2113.9' y1='2442.7' x2='2124.8' y2='2459.5' style="stroke-width:4.0;stroke:rgb(0,0,0);stroke-linecap:round;fill:none;" />
<text x="2124.8" y="2471.4" font-size="18.2px" font-family="CMUBright-Roman" style="text-anchor:start;fill:rgb(0,0,0);" transform="rotate(56.9,2124.8,2471.4)" >1500</text>
<line x1='2060.6' y1='2475.3' x2='2070.6' y2='2492.7' style="stroke-width:4.0;stroke:rgb(0,0,0);stroke-linecap:round;fill:none;" />
<text x="2070.0" y="2504.6" font-size="18.2px" font-family="CMUBright-Roman" style="text-anchor:start;fill:rgb(0,0,0);" transform="rotate(60.1,2070.0,2504.6)" >1550</text>
<line x1='2005.7' y1='2504.9' x2='2014.7' y2='2522.8' style="stroke-width:4.0;stroke:rgb(0,0,0);stroke-linecap:round;fill:none;" />
<text x="2013.3" y="2534.6" font-size="18.2px" font-family="CMUBright-Roman" style="text-anchor:start;fill:rgb(0,0,0);" transform="rotate(63.3,2013.3,2534.6)" >1600</text>
<line x1='1949.2' y1='2531.4' x2='1957.1' y2='2549.8' style="stroke-width:4.0;stroke:rgb(0,0,0);stroke-linecap:round;fill:none;" />
<text x="1955.2" y="2561.5" font-size="18.2px" font-family="CMUBright-Roman" style="text-anchor:start;fill:rgb(0,0,0);" transform="rotate(66.5,1955.2,2561.5)" >1650</text>
<line x1='1891.2' y1='2554.8' x2='1898.2' y2='2573.5' style="stroke-width:4.0;stroke:rgb(0,0,0);stroke-linecap:round;fill:none;" />
<text x="1895.6" y="2585.1" font-size="18.2px" font-family="CMUBright-Roman" style="text-anchor:start;fill:rgb(0,0,0);" transform="rotate(69.6,1895.6,2585.1)" >1700</text>
<line x1='1832.1' y1='2574.9' x2='1838.0' y2='2594.0' style="stroke-width:4.0;stroke:rgb(0,0,0);stroke-linecap:round;fill:none;" />
<text x="1834.8" y="2605.4" font-size="18.2px" font-family="CMUBright-Roman" style="text-anchor:start;fill:rgb(0,0,0);" transform="rotate(72.8,1834.8,2605.4)" >1750</text>
<line x1='1772.0' y1='2591.6' x2='1776.8' y2='2611.0' style="stroke-width:4.0;stroke:rgb(0,0,0);stroke-linecap:round;fill:none;" />
<text x="1772.9" y="2622.3" font-size="18.2px" font-family="CMUBright-Roman" style="text-anchor:start;fill:rgb(0,0,0);" transform="rotate(76.0,1772.9,2622.3)" >1800</text>
<line x1='1711.0' y1='2605.0' x2='1714.8' y2='2624.7' style="stroke-width:4.0;stroke:rgb(0,0,0);stroke-linecap:round;fill:none;" />
<text x="1710.3" y="2635.7" font-size="18.2px" font-family="CMUBright-Roman" style="text-anchor:start;fill:rgb(0,0,0);" transform="rotate(79.2,1710.3,2635.7)" >1850</text>
<line x1='1649.4' y1='2615.0' x2='1652.1' y2='2634.9' style="stroke-width:4.0;stroke:rgb(0,0,0);stroke-linecap:round;fill:none;" />
<text x="1646.9" y="2645.6" font-size="18.2px" font-family="CMUBright-Roman" style="text-anchor:start;fill:rgb(0,0,0);" transform="rotate(82.4,1646.9,2645.6)" >1900</text>
<line x1='1587.3' y1='2621.6' x2='1588.9' y2='2641.5' style="stroke-width:4.0;stroke:rgb(0,0,0);stroke-linecap:round;fill:none;" />
<text x="1583.2" y="2652.0" font-size="18.2px" font-family="CMUBright-Roman" style="text-anchor:start;fill:rgb(0,0,0);" transform="rotate(85.5,1583.2,2652.0)" >1950</text>
<line x1='1525.0' y1='2624.7' x2='1525.4' y2='2644.7' style="stroke-width:4.0;stroke:rgb(0,0,0);stroke-linecap:round;fill:none;" />
<text x="1519.1" y="2654.8" font-size="18.2px" font-family="CMUBright-Roman" style="text-anchor:start;fill:rgb(0,0,0);" transform="rotate(88.7,1519.1,2654.8)" >2000</text>
<line x1='1462.5' y1='2624.4' x2='1461.9' y2='2644.4' style="stroke-width:4.0;stroke:rgb(0,0,0);stroke-linecap:round;fill:none;" />
<text x="1468.0" y="2654.6" font-size="18.2px" font-family="CMUBright-Roman" style="text-anchor:end;fill:rgb(0,0,0);" transform="rotate(-88.1,1468.0,2654.6)" >2050</text>
<line x1='1400.2' y1='2620.6' x2='1398.4' y2='2640.5' style="stroke-width:4.0;stroke:rgb(0,0,0);stroke-linecap:round;fill:none;" />
<text x="1404.0" y="2651.0" font-size="18.2px" font-family="CMUBright-Roman" style="text-anchor:end;fill:rgb(0,0,0);" transform="rotate(-84.9,1404.0,2651.0)" >2100</text>
<line x1='1338.2' y1='2613.3' x2='1335.3' y2='2633.1' style="stroke-width:4.0;stroke:rgb(0,0,0);stroke-linecap:round;fill:none;" />
<text x="1340.3" y="2643.9" font-size="18.2px" font-family="CMUBright-Roman" style="text-anchor:end;fill:rgb(0,0,0);" transform="rotate(-81.7,1340.3,2643.9)" >2150</text>
<line x1='1276.7' y1='2602.6' x2='1272.7' y2='2622.2' style="stroke-width:4.0;stroke:rgb(0,0,0);stroke-linecap:round;fill:none;" />
<text x="1277.1" y="2633.3" font-size="18.2px" font-family="CMUBright-Roman" style="text-anchor:end;fill:rgb(0,0,0);" transform="rotate(-78.6,1277.1,2633.3)" >2200</text>
<line x1='1215.9' y1='2588.5' x2='1210.8' y2='2607.9' style="stroke-width:4.0;stroke:rgb(0,0,0);stroke-linecap:round;fill:none;" />
<text x="1214.6" y="2619.2" font-size="18.2px" font-family="CMUBright-Roman" style="text-anchor:end;fill:rgb(0,0,0);" transform="rotate(-75.4,1214.6,2619.2)" >2250</text>
<line x1='1155.9' y1='2571.1' x2='1149.8' y2='2590.1' style="stroke-width:4.0;stroke:rgb(0,0,0);stroke-linecap:round;fill:none;" />
<text x="1153.0" y="2601.6" font-size="18.2px" font-family="CMUBright-Roman" style="text-anchor:end;fill:rgb(0,0,0);" transform="rotate(-72.2,1153.0,2601.6)" >2300</text>
<line x1='1097.0' y1='2550.4' x2='1089.9' y2='2569.0' style="stroke-width:4.0;stroke:rgb(0,0,0);stroke-linecap:round;fill:none;" />
<text x="1092.4" y="2580.7" font-size="18.2px" font-family="CMUBright-Roman" style="text-anchor:end;fill:rgb(0,0,0);" transform="rotate(-69.0,1092.4,2580.7)" >2350</text>
<line x1='1039.4' y1='2526.4' x2='1031.2' y2='2544.6' style="stroke-width:4.0;stroke:rgb(0,0,0);stroke-linecap:round;fill:none;" />
<text x="1033.1" y="2556.4" font-size="18.2px" font-family="CMUBright-Roman" style="text-anchor:end;fill:rgb(0,0,0);" transform="rotate(-65.8,1033.1,2556.4)" >2400</text>
<line x1='983.2' y1='2499.3' x2='974.0' y2='2517.0' style="stroke-width:4.0;stroke:rgb(0,0,0);stroke-linecap:round;fill:none;" />
<text x="975.2" y="2528.9" font-size="18.2px" font-family="CMUBright-Roman" style="text-anchor:end;fill:rgb(0,0,0);" transform="rotate(-62.7,975.2,2528.9)" >2450</text>
<line x1='928.5' y1='2469.0' x2='918.4' y2='2486.3' style="stroke-width:4.0;stroke:rgb(0,0,0);stroke-linecap:round;fill:none;" />
<text x="918.9" y="2498.2" font-size="18.2px" font-family="CMUBright-Roman" style="text-anchor:end;fill:rgb(0,0,0);" transform="rotate(-59.5,918.9,2498.2)" >2500</text>
<line x1='875.7' y1='2435.9' x2='864.6' y2='2452.5' style="stroke-width:4.0;stroke:rgb(0,0,0);stroke-linecap:round;fill:none;" />
<text x="864.4" y="2464.4" font-size="18.2px" font-family="CMUBright-Roman" style="text-anchor:end;fill:rgb(0,0,0);" transform="rotate(-56.3,864.4,2464.4)" >2550</text>
<line x1='824.7' y1='2399.8' x2='812.7' y2='2415.8' style="stroke-width:4.0;stroke:rgb(0,0,0);stroke-linecap:round;fill:none;" />
<text x="811.9" y="2427.7" font-size="18.2px" font-family="CMUBright-Roman" style="text-anchor:end;fill:rgb(0,0,0);" transform="rotate(-53.1,811.9,2427.7)" >2600</text>
<line x1='775.8' y1='2360.9' x2='763.0' y2='2376.2' style="stroke-width:4.0;stroke:rgb(0,0,0);stroke-linecap:round;fill:none;" />
<text x="761.5" y="2388.1" font-size="18.2px" font-family="CMUBright-Roman" style="text-anchor:end;fill:rgb(0,0,0);" transform="rotate(-49.9,761.5,2388.1)" >2650</text>
<line x1='729.2' y1='2319.4' x2='715.5' y2='2334.0' style="stroke-width:4.0;stroke:rgb(0,0,0);stroke-linecap:round;fill:none;" />
<text x="713.4" y="2345.7" font-size="18.2px" font-family="CMUBright-Roman" style="text-anchor:end;fill:rgb(0,0,0);" transform="rotate(-46.8,713.4,2345.7)" >2700</text>
<line x1='684.9' y1='2275.4' x2='670.4' y2='2289.2' style="stroke-width:4.0;stroke:rgb(0,0,0);stroke-linecap:round;fill:none;" />
<text x="667.7" y="2300.8" font-size="18.2px" font-family="CMUBright-Roman" style="text-anchor:end;fill:rgb(0,0,0);" transform="rotate(-43.6,667.7,2300.8)" >2750</text>
<line x1='643.2' y1='2229.0' x2='627.9' y2='2242.0' style="stroke-width:4.0;stroke:rgb(0,0,0);stroke-linecap:round;fill:none;" />
<text x="624.5" y="2253.4" font-size="18.2px" font-family="CMUBright-Roman" style="text-anchor:end;fill:rgb(0,0,0);" transform="rotate(-40.4,624.5,2253.4)" >2800</text>
<line x1='604.0' y1='2180.4' x2='588.1' y2='2192.5' style="stroke-width:4.0;stroke:rgb(0,0,0);stroke-linecap:round;fill:none;" />
<text x="584.1" y="2203.7" font-size="18.2px" font-family="CMUBright-Roman" style="text-anchor:end;fill:rgb(0,0,0);" transform="rotate(-37.2,584.1,2203.7)" >2850</text>
<line x1='567.7' y1='2129.6' x2='551.1' y2='2140.8' style="stroke-width:4.0;stroke:rgb(0,0,0);stroke-linecap:round;fill:none;" />
<text x="546.5" y="2151.8" font-size="18.2px" font-family="CMUBright-Roman" style="text-anchor:end;fill:rgb(0,0,0);" transform="rotate(-34.0,546.5,2151.8)" >2900</text>
<line x1='534.2' y1='2076.9' x2='517.0' y2='2087.2' style="stroke-width:4.0;stroke:rgb(0,0,0);stroke-linecap:round;fill:none;" />
<text x="511.8" y="2097.9" font-size="18.2px" font-family="CMUBright-Roman" style="text-anchor:end;fill:rgb(0,0,0);" transform="rotate(-30.9,511.8,2097.9)" >2950</text>
<line x1='503.7' y1='2022.5' x2='486.0' y2='2031.7' style="stroke-width:4.0;stroke:rgb(0,0,0);stroke-linecap:round;fill:none;" />
<text x="480.1" y="2042.1" font-size="18.2px" font-family="CMUBright-Roman" style="text-anchor:end;fill:rgb(0,0,0);" transform="rotate(-27.7,480.1,2042.1)" >3000</text>
<line x1='476.2' y1='1966.4' x2='458.0' y2='1974.7' style="stroke-width:4.0;stroke:rgb(0,0,0);stroke-linecap:round;fill:none;" />
<text x="451.6" y="1984.7" font-size="18.2px" font-family="CMUBright-Roman" style="text-anchor:end;fill:rgb(0,0,0);" transform="rotate(-24.5,451.6,1984.7)" >3050</text>
<line x1='451.9' y1='1908.9' x2='433.3' y2='1916.1' style="stroke-width:4.0;stroke:rgb(0,0,0);stroke-linecap:round;fill:none;" />
<text x="426.4" y="1925.8" font-size="18.2px" font-family="CMUBright-Roman" style="text-anchor:end;fill:rgb(0,0,0);" transform="rotate(-21.3,426.4,1925.8)" >3100</text>
<line x1='430.9' y1='1850.1' x2='411.9' y2='1856.3' style="stroke-width:4.0;stroke:rgb(0,0,0);stroke-linecap:round;fill:none;" />
<text x="404.4" y="1865.6" font-size="18.2px" font-family="CMUBright-Roman" style="text-anchor:end;fill:rgb(0,0,0);" transform="rotate(-18.1,404.4,1865.6)" >3150</text>
<line x1='413.1' y1='1790.3' x2='393.8' y2='1795.4' style="stroke-width:4.0;stroke:rgb(0,0,0);stroke-linecap:round;fill:none;" />
<text x="385.8" y="1804.3" font-size="18.2px" font-family="CMUBright-Roman" style="text-anchor:end;fill:rgb(0,0,0);" transform="rotate(-15.0,385.8,1804.3)" >3200</text>
<line x1='398.7' y1='1729.5' x2='379.1' y2='1733.6' style="stroke-width:4.0;stroke:rgb(0,0,0);stroke-linecap:round;fill:none;" />
<text x="370.6" y="1742.0" font-size="18.2px" font-family="CMUBright-Roman" style="text-anchor:end;fill:rgb(0,0,0);" transform="rotate(-11.8,370.6,1742.0)" >3250</text>
<line x1='387.6' y1='1668.1' x2='367.8' y2='1671.1' style="stroke-width:4.0;stroke:rgb(0,0,0);stroke-linecap:round;fill:none;" />
<text x="359.0" y="1679.0" font-size="18.2px" font-family="CMUBright-Roman" style="text-anchor:end;fill:rgb(0,0,0);" transform="rotate(-8.6,359.0,1679.0)" >3300</text>
<line x1='380.0' y1='1606.1' x2='360.1' y2='1608.0' style="stroke-width:4.0;stroke:rgb(0,0,0);stroke-linecap:round;fill:none;" />
<text x="350.8" y="1615.4" font-size="18.2px" font-family="CMUBright-Roman" style="text-anchor:end;fill:rgb(0,0,0);" transform="rotate(-5.4,350.8,1615.4)" >3350</text>
<line x1='375.9' y1='1543.8' x2='355.9' y2='1544.6' style="stroke-width:4.0;stroke:rgb(0,0,0);stroke-linecap:round;fill:none;" />
<text x="346.1" y="1551.5" font-size="18.2px" font-family="CMUBright-Roman" style="text-anchor:end;fill:rgb(0,0,0);" transform="rotate(-2.2,346.1,1551.5)" >3400</text>
<line x1='375.2' y1='1481.4' x2='355.2' y2='1481.1' style="stroke-width:4.0;stroke:rgb(0,0,0);stroke-linecap:round;fill:none;" />
<text x="345.1" y="1487.4" font-size="18.2px" font-family="CMUBright-Roman" style="text-anchor:end;fill:rgb(0,0,0);" transform="rotate(0.9,345.1,1487.4)" >3450</text>
<line x1='377.9' y1='1419.0' x2='358.0' y2='1417.6' style="stroke-width:4.0;stroke:rgb(0,0,0);stroke-linecap:round;fill:none;" />
<text x="347.5" y="1423.3" font-size="18.2px" font-family="CMUBright-Roman" style="text-anchor:end;fill:rgb(0,0,0);" transform="rotate(4.1,347.5,1423.3)" >3500</text>
<line x1='384.1' y1='1356.9' x2='364.3' y2='1354.4' style="stroke-width:4.0;stroke:rgb(0,0,0);stroke-linecap:round;fill:none;" />
<text x="353.6" y="1359.5" font-size="18.2px" font-family="CMUBright-Roman" style="text-anchor:end;fill:rgb(0,0,0);" transform="rotate(7.3,353.6,1359.5)" >3550</text>
<line x1='393.8' y1='1295.2' x2='374.1' y2='1291.6' style="stroke-width:4.0;stroke:rgb(0,0,0);stroke-linecap:round;fill:none;" />
<text x="363.1" y="1296.2" font-size="18.2px" font-family="CMUBright-Roman" style="text-anchor:end;fill:rgb(0,0,0);" transform="rotate(10.5,363.1,1296.2)" >3600</text>
<line x1='406.9' y1='1234.2' x2='387.4' y2='1229.4' style="stroke-width:4.0;stroke:rgb(0,0,0);stroke-linecap:round;fill:none;" />
<text x="376.2" y="1233.4" font-size="18.2px" font-family="CMUBright-Roman" style="text-anchor:end;fill:rgb(0,0,0);" transform="rotate(13.7,376.2,1233.4)" >3650</text>
<line x1='423.3' y1='1173.9' x2='404.1' y2='1168.1' style="stroke-width:4.0;stroke:rgb(0,0,0);stroke-linecap:round;fill:none;" />
<text x="392.7" y="1171.5" font-size="18.2px" font-family="CMUBright-Roman" style="text-anchor:end;fill:rgb(0,0,0);" transform="rotate(16.8,392.7,1171.5)" >3700</text>
<line x1='443.0' y1='1114.7' x2='424.2' y2='1107.9' style="stroke-width:4.0;stroke:rgb(0,0,0);stroke-linecap:round;fill:none;" />
<text x="412.6" y="1110.6" font-size="18.2px" font-family="CMUBright-Roman" style="text-anchor:end;fill:rgb(0,0,0);" transform="rotate(20.0,412.6,1110.6)" >3750</text>
<line x1='466.0' y1='1056.7' x2='447.7' y2='1048.8' style="stroke-width:4.0;stroke:rgb(0,0,0);stroke-linecap:round;fill:none;" />
<text x="435.9" y="1050.8" font-size="18.2px" font-family="CMUBright-Roman" style="text-anchor:end;fill:rgb(0,0,0);" transform="rotate(23.2,435.9,1050.8)" >3800</text>
<line x1='492.2' y1='1000.0' x2='474.3' y2='991.1' style="stroke-width:4.0;stroke:rgb(0,0,0);stroke-linecap:round;fill:none;" />
<text x="462.5" y="992.5" font-size="18.2px" font-family="CMUBright-Roman" style="text-anchor:end;fill:rgb(0,0,0);" transform="rotate(26.4,462.5,992.5)" >3850</text>
<line x1='521.5' y1='944.9' x2='504.1' y2='935.0' style="stroke-width:4.0;stroke:rgb(0,0,0);stroke-linecap:round;fill:none;" />
<text x="492.2" y="935.7" font-size="18.2px" font-family="CMUBright-Roman" style="text-anchor:end;fill:rgb(0,0,0);" transform="rotate(29.6,492.2,935.7)" >3900</text>
<line x1='553.8' y1='891.4' x2='537.0' y2='880.6' style="stroke-width:4.0;stroke:rgb(0,0,0);stroke-linecap:round;fill:none;" />
<text x="525.1" y="880.7" font-size="18.2px" font-family="CMUBright-Roman" style="text-anchor:end;fill:rgb(0,0,0);" transform="rotate(32.7,525.1,880.7)" >3950</text>
<line x1='589.0' y1='839.9' x2='572.8' y2='828.2' style="stroke-width:4.0;stroke:rgb(0,0,0);stroke-linecap:round;fill:none;" />
<text x="560.9" y="827.6" font-size="18.2px" font-family="CMUBright-Roman" style="text-anchor:end;fill:rgb(0,0,0);" transform="rotate(35.9,560.9,827.6)" >4000</text>
<line x1='627.0' y1='790.4' x2='611.5' y2='777.8' style="stroke-width:4.0;stroke:rgb(0,0,0);stroke-linecap:round;fill:none;" />
<text x="599.7" y="776.5" font-size="18.2px" font-family="CMUBright-Roman" style="text-anchor:end;fill:rgb(0,0,0);" transform="rotate(39.1,599.7,776.5)" >4050</text>
<line x1='667.8' y1='743.0' x2='653.0' y2='729.6' style="stroke-width:4.0;stroke:rgb(0,0,0);stroke-linecap:round;fill:none;" />
<text x="641.2" y="727.7" font-size="18.2px" font-family="CMUBright-Roman" style="text-anchor:end;fill:rgb(0,0,0);" transform="rotate(42.3,641.2,727.7)" >4100</text>
<line x1='711.0' y1='698.0' x2='697.0' y2='683.8' style="stroke-width:4.0;stroke:rgb(0,0,0);stroke-linecap:round;fill:none;" />
<text x="685.4" y="681.2" font-size="18.2px" font-family="CMUBright-Roman" style="text-anchor:end;fill:rgb(0,0,0);" transform="rotate(45.5,685.4,681.2)" >4150</text>
<line x1='756.7' y1='655.5' x2='743.5' y2='640.5' style="stroke-width:4.0;stroke:rgb(0,0,0);stroke-linecap:round;fill:none;" />
<text x="732.0" y="637.3" font-size="18.2px" font-family="CMUBright-Roman" style="text-anchor:end;fill:rgb(0,0,0);" transform="rotate(48.6,732.0,637.3)" >4200</text>
<line x1='804.7' y1='615.6' x2='792.4' y2='599.9' style="stroke-width:4.0;stroke:rgb(0,0,0);stroke-linecap:round;fill:none;" />
<text x="781.1" y="596.0" font-size="18.2px" font-family="CMUBright-Roman" style="text-anchor:end;fill:rgb(0,0,0);" transform="rotate(51.8,781.1,596.0)" >4250</text>
<line x1='854.8' y1='578.4' x2='843.4' y2='562.0' style="stroke-width:4.0;stroke:rgb(0,0,0);stroke-linecap:round;fill:none;" />
<text x="832.3" y="557.5" font-size="18.2px" font-family="CMUBright-Roman" style="text-anchor:end;fill:rgb(0,0,0);" transform="rotate(55.0,832.3,557.5)" >4300</text>
<line x1='907.0' y1='544.0' x2='896.4' y2='527.0' style="stroke-width:4.0;stroke:rgb(0,0,0);stroke-linecap:round;fill:none;" />
<text x="885.6" y="521.9" font-size="18.2px" font-family="CMUBright-Roman" style="text-anchor:end;fill:rgb(0,0,0);" transform="rotate(58.2,885.6,521.9)" >4350</text>
<line x1='960.9' y1='512.6' x2='951.3' y2='495.0' style="stroke-width:4.0;stroke:rgb(0,0,0);stroke-linecap:round;fill:none;" />
<text x="940.8" y="489.4" font-size="18.2px" font-family="CMUBright-Roman" style="text-anchor:end;fill:rgb(0,0,0);" transform="rotate(61.4,940.8,489.4)" >4400</text>
<line x1='1016.5' y1='484.2' x2='1007.9' y2='466.1' style="stroke-width:4.0;stroke:rgb(0,0,0);stroke-linecap:round;fill:none;" />
<text x="997.8" y="459.9" font-size="18.2px" font-family="CMUBright-Roman" style="text-anchor:end;fill:rgb(0,0,0);" transform="rotate(64.5,997.8,459.9)" >4450</text>
<line x1='1073.6' y1='458.9' x2='1066.0' y2='440.4' style="stroke-width:4.0;stroke:rgb(0,0,0);stroke-linecap:round;fill:none;" />
<text x="1056.2" y="433.7" font-size="18.2px" font-family="CMUBright-Roman" style="text-anchor:end;fill:rgb(0,0,0);" transform="rotate(67.7,1056.2,433.7)" >4500</text>
<line x1='1132.0' y1='436.9' x2='1125.5' y2='418.0' style="stroke-width:4.0;stroke:rgb(0,0,0);stroke-linecap:round;fill:none;" />
<text x="1116.1" y="410.7" font-size="18.2px" font-family="CMUBright-Roman" style="text-anchor:end;fill:rgb(0,0,0);" transform="rotate(70.9,1116.1,410.7)" >4550</text>
<line x1='1191.6' y1='418.1' x2='1186.1' y2='398.9' style="stroke-width:4.0;stroke:rgb(0,0,0);stroke-linecap:round;fill:none;" />
<text x="1177.1" y="391.1" font-size="18.2px" font-family="CMUBright-Roman" style="text-anchor:end;fill:rgb(0,0,0);" transform="rotate(74.1,1177.1,391.1)" >4600</text>
<line x1='1252.0' y1='402.7' x2='1247.6' y2='383.2' style="stroke-width:4.0;stroke:rgb(0,0,0);stroke-linecap:round;fill:none;" />
<text x="1239.1" y="374.9" font-size="18.2px" font-family="CMUBright-Roman" style="text-anchor:end;fill:rgb(0,0,0);" transform="rotate(77.3,1239.1,374.9)" >4650</text>
<line x1='1313.3' y1='390.6' x2='1310.0' y2='370.9' style="stroke-width:4.0;stroke:rgb(0,0,0);stroke-linecap:round;fill:none;" />
<text x="1301.9" y="362.1" font-size="18.2px" font-family="CMUBright-Roman" style="text-anchor:end;fill:rgb(0,0,0);" transform="rotate(80.4,1301.9,362.1)" >4700</text>
<line x1='1375.1' y1='382.0' x2='1372.9' y2='362.1' style="stroke-width:4.0;stroke:rgb(0,0,0);stroke-linecap:round;fill:none;" />
<text x="1365.3" y="352.9" font-size="18.2px" font-family="CMUBright-Roman" style="text-anchor:end;fill:rgb(0,0,0);" transform="rotate(83.6,1365.3,352.9)" >4750</text>
<g id="highlighttrack_0">
<path d="M1393.784,430.260 A1075.000,1075.000 40.000 0,1 1397.228,429.924 L1392.448,380.153 A1125.000,1125.000 0.000 0,0 1388.843,380.505 Z" style="stroke-width:4.0;stroke:rgb(0,0,0);stroke-linecap:round;fill:rgb(251,106,74);" />
<path d="M674.335,2188.406 A1075.000,1075.000 40.000 0,1 672.123,2185.744 L633.618,2217.639 A1125.000,1125.000 0.000 0,0 635.932,2220.425 Z" style="stroke-width:4.0;stroke:rgb(0,0,0);stroke-linecap:round;fill:rgb(251,106,74);" />
<path d="M2379.968,2117.480 A1075.000,1075.000 40.000 0,1 2377.975,2120.310 L2418.811,2149.161 A1125.000,1125.000 0.000 0,0 2420.896,2146.200 Z" style="stroke-width:4.0;stroke:rgb(0,0,0);stroke-linecap:round;fill:rgb(116,196,118);" />
<path d="M2373.045,872.770 A1075.000,1075.000 40.000 0,1 2375.060,875.584 L2415.760,846.541 A1125.000,1125.000 0.000 0,0 2413.652,843.597 Z" style="stroke-width:4.0;stroke:rgb(0,0,0);stroke-linecap:round;fill:rgb(116,196,118);" />
<path d="M2487.113,1074.285 A1075.000,1075.000 40.000 0,1 2488.478,1077.464 L2534.454,1057.811 A1125.000,1125.000 0.000 0,0 2533.025,1054.484 Z" style="stroke-width:4.0;stroke:rgb(0,0,0);stroke-linecap:round;fill:rgb(116,196,118);" />
<path d="M2509.795,1131.301 A1075.000,1075.000 40.000 0,1 2510.965,1134.520 L2557.986,1117.521 A1125.000,1125.000 0.000 0,0 2556.762,1114.152 Z" style="stroke-width:4.0;stroke:rgb(0,0,0);stroke-linecap:round;fill:rgb(116,196,118);" />
<path d="M2559.241,1316.606 A1075.000,1075.000 40.000 0,1 2559.826,1320.017 L2609.120,1311.646 A1125.000,1125.000 0.000 0,0 2608.508,1308.076 Z" style="stroke-width:4.0;stroke:rgb(0,0,0);stroke-linecap:round;fill:rgb(116,196,118);" />
<path d="M2560.734,1325.446 A1075.000,1075.000 40.000 0,1 2561.290,1328.862 L2610.652,1320.902 A1125.000,1125.000 0.000 0,0 2610.070,1317.327 Z" style="stroke-width:4.0;stroke:rgb(0,0,0);stroke-linecap:round;fill:rgb(116,196,118);" />
<path d="M2491.924,1914.380 A1075.000,1075.000 40.000 0,1 2490.699,1917.302 L2536.778,1936.711 A1125.000,1125.000 0.000 0,0 2538.060,1933.654 Z" style="stroke-width:4.0;stroke:rgb(0,0,0);stroke-linecap:round;fill:rgb(116,196,118);" />
<path d="M2497.130,1901.694 A1075.000,1075.000 40.000 0,1 2495.935,1904.647 L2542.257,1923.468 A1125.000,1125.000 0.000 0,0 2543.508,1920.377 Z" style="stroke-width:4.0;stroke:rgb(0,0,0);stroke-linecap:round;fill:rgb(116,196,118);" />
<path d="M2510.891,1865.683 A1075.000,1075.000 40.000 0,1 2509.803,1868.678 L2556.770,1885.826 A1125.000,1125.000 0.000 0,0 2557.909,1882.692 Z" style="stroke-width:4.0;stroke:rgb(0,0,0);stroke-linecap:round;fill:rgb(116,196,118);" />
<path d="M2501.043,1108.160 A1075.000,1075.000 40.000 0,1 2501.937,1110.453 L2548.539,1092.334 A1125.000,1125.000 0.000 0,0 2547.603,1089.935 Z" style="stroke-width:4.0;stroke:rgb(0,0,0);stroke-linecap:round;fill:rgb(116,196,118);" />
<path d="M1416.671,428.234 A1075.000,1075.000 40.000 0,1 1419.992,427.981 L1416.271,378.120 A1125.000,1125.000 0.000 0,0 1412.796,378.385 Z" style="stroke-width:4.0;stroke:rgb(0,0,0);stroke-linecap:round;fill:rgb(116,196,118);" />
</g>
</g>
<g id="track_0">
<path d="M 682.592,2181.522 A 1064.250,1064.250 0.00 0,1 680.4,2178.9 L 680.4,2178.9 736.6,2130.9 788.3,2084.1 835.8,2038.4 879.4,1993.7 919.6,1950.2 956.5,1907.6 990.5,1866.1 1021.9,1825.5 1050.9,1785.7 1077.7,1746.8 1102.6,1708.6 1125.7,1671.1 1147.4,1634.1 1167.6,1597.7 1186.7,1561.6 1204.7,1525.8 1221.7,1490.2 1237.9,1454.7 1253.4,1419.1 1268.1,1383.3 1282.3,1347.2 1295.9,1310.6 1308.9,1273.3 1321.4,1235.3 1333.4,1196.3 1344.8,1156.1 1355.5,1114.7 1365.6,1071.8 1374.9,1027.1 1383.3,980.6 1390.9,932.0 1397.3,881.1 1402.5,827.7 1406.4,771.5 1408.7,712.3 1409.2,649.8 1407.8,583.9 1404.2,514.3 1398.3,440.6  A 1064.250,1064.250 0.00 0,0 1394.8,441.0 L 1394.8,441.0 1401.1,514.6 1404.9,584.2 1406.5,650.1 1406.1,712.6 1404.0,771.8 1400.4,828.0 1395.3,881.4 1389.0,932.4 1381.7,981.0 1373.4,1027.6 1364.2,1072.2 1354.3,1115.2 1343.6,1156.6 1332.4,1196.8 1320.6,1235.8 1308.2,1273.9 1295.3,1311.2 1281.8,1347.9 1267.8,1384.0 1253.1,1419.9 1237.8,1455.5 1221.7,1491.1 1204.7,1526.8 1186.9,1562.6 1167.9,1598.7 1147.8,1635.3 1126.3,1672.3 1103.3,1709.9 1078.5,1748.1 1051.8,1787.2 1022.9,1827.0 991.7,1867.7 957.8,1909.4 921.0,1952.0 881.0,1995.7 837.5,2040.5 790.2,2086.4 738.6,2133.4 682.6,2181.5  Z" style="stroke-width: 2.0;  stroke: rgb(82,82,82); fill: rgb(251,106,74); opacity: 0.667;" />
<path d="M 2371.168,2111.306 A 1064.250,1064.250 0.00 0,1 2369.2,2114.1 L 2369.2,2114.1 2309.4,2070.5 2254.2,2027.6 2203.2,1985.4 2156.0,1943.9 2112.2,1903.2 2071.7,1863.2 2034.0,1823.9 1999.0,1785.3 1966.3,1747.5 1935.7,1710.2 1906.9,1673.6 1879.8,1637.6 1854.1,1602.1 1829.7,1567.0 1806.3,1532.2 1783.9,1497.8 1762.2,1463.5 1741.2,1429.2 1720.8,1394.9 1700.8,1360.5 1681.1,1325.7 1661.8,1290.5 1642.8,1254.7 1624.0,1218.1 1605.5,1180.6 1587.1,1141.9 1569.0,1102.0 1551.2,1060.6 1533.7,1017.4 1516.6,972.4 1499.9,925.2 1483.9,875.6 1468.4,823.4 1453.8,768.4 1440.2,710.2 1427.6,648.6 1416.3,583.4 1406.4,514.1 1398.3,440.6  A 1064.250,1064.250 0.00 0,0 1394.8,441.0 L 1394.8,441.0 1403.3,514.4 1413.3,583.6 1424.8,648.9 1437.6,710.4 1451.5,768.5 1466.3,823.5 1481.8,875.7 1498.1,925.2 1514.9,972.3 1532.1,1017.3 1549.8,1060.4 1567.7,1101.8 1586.0,1141.6 1604.4,1180.2 1623.1,1217.7 1642.0,1254.2 1661.2,1290.0 1680.6,1325.1 1700.3,1359.8 1720.4,1394.2 1741.0,1428.5 1762.1,1462.6 1783.9,1496.9 1806.4,1531.3 1829.9,1565.9 1854.4,1600.9 1880.2,1636.4 1907.5,1672.3 1936.3,1708.8 1967.1,1746.0 1999.9,1783.7 2035.1,1822.2 2072.9,1861.3 2113.5,1901.2 2157.4,1941.8 2204.7,1983.2 2255.9,2025.2 2311.3,2067.9 2371.2,2111.3  Z" style="stroke-width: 2.0;  stroke: rgb(82,82,82); fill: rgb(116,196,118); opacity: 0.667;" />
<path d="M 2371.168,2111.306 A 1064.250,1064.250 0.00 0,1 2369.2,2114.1 L 2369.2,2114.1 2308.4,2072.4 2250.3,2034.8 2194.7,2001.0 2141.5,1970.8 2090.5,1943.8 2041.5,1919.9 1994.5,1898.7 1949.2,1880.1 1905.6,1863.8 1863.5,1849.8 1822.8,1837.7 1783.2,1827.5 1744.8,1819.0 1707.2,1812.1 1670.5,1806.8 1634.5,1802.9 1598.9,1800.3 1563.8,1799.1 1528.9,1799.1 1494.1,1800.4 1459.3,1803.1 1424.4,1807.0 1389.1,1812.3 1353.5,1818.9 1317.3,1827.1 1280.4,1836.8 1242.7,1848.2 1204.1,1861.4 1164.4,1876.6 1123.4,1893.8 1081.2,1913.4 1037.5,1935.4 992.3,1960.1 945.3,1987.7 896.5,2018.5 845.7,2052.8 792.8,2090.7 737.8,2132.6 680.4,2178.9  A 1064.250,1064.250 0.00 0,0 682.6,2181.5 L 682.6,2181.5 739.8,2135.1 794.7,2093.0 847.5,2054.9 898.1,2020.5 946.8,1989.5 993.7,1961.7 1038.9,1936.9 1082.5,1914.7 1124.7,1895.1 1165.6,1877.7 1205.2,1862.4 1243.8,1849.1 1281.5,1837.5 1318.3,1827.7 1354.5,1819.4 1390.1,1812.6 1425.4,1807.2 1460.3,1803.2 1495.1,1800.5 1529.9,1799.0 1564.7,1798.8 1599.9,1800.0 1635.4,1802.4 1671.5,1806.2 1708.2,1811.5 1745.8,1818.2 1784.3,1826.6 1823.8,1836.7 1864.6,1848.6 1906.8,1862.5 1950.4,1878.6 1995.8,1897.1 2042.9,1918.1 2091.9,1941.9 2143.0,1968.7 2196.3,1998.8 2252.0,2032.4 2310.3,2069.8 2371.2,2111.3  Z" style="stroke-width: 2.0;  stroke: rgb(82,82,82); fill: rgb(107,174,214); opacity: 0.667;" />
<path d="M 2290.225,787.138 A 1064.250,1064.250 0.00 0,1 2292.5,789.7 L 2292.5,789.7 2237.5,838.2 2185.8,882.4 2137.0,922.5 2091.1,958.8 2047.9,991.4 2007.3,1020.5 1969.0,1046.4 1933.0,1069.1 1899.1,1088.9 1867.2,1105.9 1837.1,1120.1 1808.7,1131.7 1781.9,1140.9 1756.6,1147.5 1732.6,1151.8 1710.0,1153.8 1688.5,1153.5 1668.2,1150.9 1648.8,1146.0 1630.4,1138.8 1612.8,1129.3 1596.1,1117.4 1580.1,1103.1 1564.7,1086.3 1550.1,1066.9 1536.0,1044.9 1522.4,1020.0 1509.4,992.2 1496.9,961.4 1484.9,927.2 1473.4,889.7 1462.3,848.6 1451.7,803.7 1441.5,754.7 1431.8,701.5 1422.6,643.7 1414.0,581.2 1405.8,513.6 1398.3,440.6  A 1064.250,1064.250 0.00 0,0 1394.8,441.0 L 1394.8,441.0 1402.7,513.9 1411.0,581.4 1419.9,644.0 1429.3,701.7 1439.1,754.9 1449.4,803.8 1460.2,848.7 1471.4,889.8 1483.1,927.3 1495.2,961.4 1507.8,992.2 1520.9,1019.9 1534.5,1044.8 1548.7,1066.8 1563.4,1086.1 1578.8,1102.8 1594.8,1117.1 1611.6,1128.9 1629.2,1138.4 1647.7,1145.5 1667.0,1150.3 1687.4,1152.9 1708.9,1153.1 1731.5,1151.1 1755.4,1146.7 1780.7,1140.0 1807.5,1130.7 1835.8,1119.0 1865.9,1104.7 1897.8,1087.6 1931.6,1067.7 1967.6,1044.9 2005.7,1018.9 2046.3,989.6 2089.4,956.9 2135.1,920.5 2183.8,880.2 2235.4,835.8 2290.2,787.1  Z" style="stroke-width: 2.0;  stroke: rgb(82,82,82); fill: rgb(253,141,60); opacity: 0.667;" />
<path d="M 2290.225,787.138 A 1064.250,1064.250 0.00 0,1 2292.5,789.7 L 2292.5,789.7 2236.3,838.5 2181.0,883.5 2126.7,925.2 2073.5,963.9 2021.6,999.9 1970.9,1033.7 1921.5,1065.5 1873.5,1095.6 1826.9,1124.4 1781.7,1152.0 1737.8,1178.9 1695.4,1205.1 1654.4,1231.0 1614.7,1256.7 1576.3,1282.5 1539.1,1308.6 1503.0,1335.0 1468.0,1362.1 1434.0,1389.8 1400.8,1418.5 1368.3,1448.0 1336.4,1478.6 1304.9,1510.4 1273.6,1543.3 1242.4,1577.5 1211.1,1613.0 1179.5,1649.7 1147.2,1687.8 1114.2,1727.2 1080.2,1767.8 1044.9,1809.6 1008.0,1852.7 969.3,1896.8 928.4,1942.0 885.0,1988.0 838.9,2034.9 789.7,2082.4 736.9,2130.5 680.4,2178.9  A 1064.250,1064.250 0.00 0,0 682.6,2181.5 L 682.6,2181.5 739.0,2132.9 791.5,2084.7 840.6,2037.0 886.6,1990.0 929.8,1943.8 970.5,1898.5 1009.1,1854.3 1045.9,1811.1 1081.1,1769.1 1115.0,1728.4 1147.8,1688.9 1179.9,1650.8 1211.5,1613.9 1242.7,1578.3 1273.8,1544.0 1304.9,1511.0 1336.3,1479.2 1368.1,1448.4 1400.5,1418.8 1433.7,1390.1 1467.6,1362.2 1502.5,1335.0 1538.5,1308.4 1575.6,1282.3 1613.9,1256.3 1653.5,1230.5 1694.5,1204.5 1736.8,1178.1 1780.5,1151.1 1825.7,1123.3 1872.2,1094.4 1920.1,1064.1 1969.4,1032.2 2020.0,998.3 2071.8,962.0 2124.8,923.2 2179.0,881.3 2234.2,836.1 2290.2,787.1  Z" style="stroke-width: 2.0;  stroke: rgb(82,82,82); fill: rgb(255,0,0); opacity: 0.667;" />
<path d="M 2290.225,787.138 A 1064.250,1064.250 0.00 0,1 2292.5,789.7 L 2292.5,789.7 2238.3,839.3 2188.8,886.7 2143.7,932.0 2102.8,975.3 2065.7,1016.7 2032.3,1056.4 2002.3,1094.4 1975.5,1131.0 1951.7,1166.1 1930.8,1200.0 1912.5,1232.7 1896.8,1264.4 1883.6,1295.1 1872.6,1325.0 1863.9,1354.2 1857.3,1382.8 1852.8,1410.9 1850.4,1438.6 1849.9,1466.1 1851.5,1493.3 1855.1,1520.5 1860.7,1547.8 1868.4,1575.2 1878.3,1602.8 1890.3,1630.8 1904.6,1659.3 1921.4,1688.3 1940.6,1717.9 1962.5,1748.3 1987.2,1779.5 2014.9,1811.7 2045.7,1844.9 2079.9,1879.2 2117.7,1914.8 2159.3,1951.7 2205.0,1989.9 2255.0,2029.7 2309.6,2071.1 2369.2,2114.1  A 1064.250,1064.250 0.00 0,0 2371.2,2111.3 L 2371.2,2111.3 2311.5,2068.5 2256.7,2027.3 2206.5,1987.7 2160.7,1949.5 2119.0,1912.8 2081.1,1877.4 2046.8,1843.1 2015.9,1810.0 1988.1,1778.0 1963.3,1746.8 1941.3,1716.5 1922.0,1686.9 1905.2,1658.0 1890.7,1629.6 1878.6,1601.6 1868.7,1574.0 1860.9,1546.6 1855.2,1519.4 1851.5,1492.2 1849.8,1464.9 1850.2,1437.5 1852.5,1409.8 1856.9,1381.6 1863.4,1353.0 1872.0,1323.8 1882.9,1293.9 1896.1,1263.1 1911.7,1231.4 1929.8,1198.6 1950.6,1164.7 1974.3,1129.4 2000.9,1092.8 2030.8,1054.7 2064.1,1014.9 2101.1,973.3 2141.9,929.9 2186.8,884.5 2236.2,836.9 2290.2,787.1  Z" style="stroke-width: 2.0;  stroke: rgb(82,82,82); fill: rgb(255,0,204); opacity: 0.667;" />
<path d="M 2364.315,879.042 A 1064.250,1064.250 0.00 0,1 2366.3,881.8 L 2366.3,881.8 2306.2,923.9 2249.7,962.1 2196.5,996.4 2146.4,1027.2 2099.4,1054.6 2055.1,1078.9 2013.5,1100.1 1974.3,1118.5 1937.4,1134.2 1902.7,1147.3 1870.0,1158.0 1839.2,1166.2 1810.2,1172.2 1782.7,1175.9 1756.8,1177.4 1732.2,1176.8 1709.0,1174.1 1686.9,1169.2 1666.0,1162.3 1646.0,1153.2 1627.0,1141.9 1608.9,1128.5 1591.6,1112.7 1575.0,1094.6 1559.2,1074.0 1544.0,1050.8 1529.4,1025.0 1515.4,996.3 1502.0,964.7 1489.1,929.9 1476.8,891.8 1464.9,850.1 1453.7,804.8 1442.9,755.4 1432.8,701.9 1423.2,644.0 1414.2,581.3 1405.9,513.6 1398.3,440.6  A 1064.250,1064.250 0.00 0,0 1394.8,441.0 L 1394.8,441.0 1402.7,513.9 1411.3,581.6 1420.4,644.2 1430.2,702.1 1440.5,755.6 1451.4,804.9 1462.9,850.2 1474.8,891.8 1487.3,929.9 1500.2,964.7 1513.8,996.3 1527.9,1024.9 1542.5,1050.7 1557.8,1073.8 1573.7,1094.3 1590.3,1112.4 1607.7,1128.1 1625.9,1141.5 1644.9,1152.7 1664.9,1161.8 1685.8,1168.6 1707.9,1173.4 1731.2,1176.1 1755.7,1176.6 1781.7,1175.0 1809.1,1171.2 1838.2,1165.1 1868.9,1156.8 1901.6,1146.0 1936.3,1132.8 1973.1,1117.0 2012.2,1098.5 2053.8,1077.1 2097.9,1052.7 2144.9,1025.1 2194.9,994.2 2247.9,959.6 2304.4,921.3 2364.3,879.0  Z" style="stroke-width: 2.0;  stroke: rgb(82,82,82); fill: rgb(255,204,204); opacity: 0.667;" />
<path d="M 2364.315,879.042 A 1064.250,1064.250 0.00 0,1 2366.3,881.8 L 2366.3,881.8 2306.4,926.0 2250.5,970.1 2198.0,1014.0 2148.7,1057.3 2102.3,1100.1 2058.4,1142.2 2016.8,1183.4 1977.1,1223.7 1939.1,1262.9 1902.5,1301.0 1867.0,1338.0 1832.4,1373.8 1798.5,1408.3 1765.0,1441.7 1731.7,1473.8 1698.5,1504.7 1665.2,1534.5 1631.6,1563.1 1597.5,1590.8 1562.8,1617.5 1527.3,1643.4 1491.0,1668.5 1453.6,1693.1 1415.2,1717.3 1375.7,1741.2 1334.9,1765.0 1292.8,1788.9 1249.3,1813.2 1204.5,1838.0 1158.2,1863.6 1110.6,1890.3 1061.5,1918.4 1011.0,1948.0 959.1,1979.7 905.8,2013.6 851.3,2050.1 795.5,2089.5 738.5,2132.4 680.4,2178.9  A 1064.250,1064.250 0.00 0,0 682.6,2181.5 L 682.6,2181.5 740.5,2134.8 797.4,2091.8 853.0,2052.2 907.5,2015.5 960.6,1981.4 1012.4,1949.6 1062.8,1919.8 1111.8,1891.6 1159.4,1864.7 1205.6,1838.9 1250.3,1814.0 1293.7,1789.6 1335.7,1765.5 1376.5,1741.6 1415.9,1717.5 1454.3,1693.3 1491.5,1668.6 1527.8,1643.3 1563.1,1617.3 1597.8,1590.5 1631.8,1562.7 1665.3,1533.9 1698.6,1504.1 1731.7,1473.0 1764.8,1440.8 1798.2,1407.4 1832.0,1372.7 1866.4,1336.8 1901.8,1299.7 1938.3,1261.5 1976.2,1222.1 2015.8,1181.7 2057.3,1140.4 2101.0,1098.2 2147.3,1055.3 2196.4,1011.7 2248.7,967.7 2304.6,923.4 2364.3,879.0  Z" style="stroke-width: 2.0;  stroke: rgb(82,82,82); fill: rgb(255,153,0); opacity: 0.667;" />
<path d="M 2364.315,879.042 A 1064.250,1064.250 0.00 0,1 2366.3,881.8 L 2366.3,881.8 2306.9,925.1 2252.5,966.5 2202.7,1006.2 2157.3,1044.2 2116.0,1080.7 2078.5,1115.8 2044.6,1149.6 2014.2,1182.1 1987.0,1213.5 1962.9,1243.8 1941.6,1273.2 1923.1,1301.8 1907.1,1329.6 1893.7,1356.8 1882.7,1383.4 1874.0,1409.6 1867.5,1435.4 1863.2,1461.0 1861.1,1486.5 1861.2,1511.8 1863.4,1537.3 1867.8,1562.8 1874.4,1588.6 1883.2,1614.8 1894.4,1641.4 1907.9,1668.5 1924.0,1696.2 1942.6,1724.7 1964.1,1754.0 1988.4,1784.2 2015.7,1815.5 2046.3,1847.9 2080.3,1881.5 2117.9,1916.4 2159.4,1952.7 2205.0,1990.5 2255.0,2030.0 2309.6,2071.1 2369.2,2114.1  A 1064.250,1064.250 0.00 0,0 2371.2,2111.3 L 2371.2,2111.3 2311.5,2068.5 2256.7,2027.6 2206.6,1988.3 2160.9,1950.6 2119.3,1914.4 2081.5,1879.6 2047.4,1846.1 2016.7,1813.8 1989.3,1782.7 1964.9,1752.5 1943.4,1723.3 1924.6,1694.8 1908.5,1667.2 1894.8,1640.1 1883.6,1613.5 1874.7,1587.4 1868.0,1561.6 1863.5,1536.1 1861.2,1510.7 1861.1,1485.3 1863.1,1459.9 1867.3,1434.3 1873.7,1408.4 1882.3,1382.2 1893.2,1355.5 1906.6,1328.3 1922.4,1300.4 1940.9,1271.8 1962.0,1242.3 1986.1,1211.9 2013.2,1180.5 2043.5,1147.8 2077.2,1114.0 2114.6,1078.8 2155.8,1042.1 2201.1,1003.9 2250.8,964.1 2305.1,922.5 2364.3,879.0  Z" style="stroke-width: 2.0;  stroke: rgb(82,82,82); fill: rgb(255,204,0); opacity: 0.667;" />
<path d="M 2364.315,879.042 A 1064.250,1064.250 0.00 0,1 2366.3,881.8 L 2366.3,881.8 2306.7,924.3 2251.5,963.4 2200.5,999.4 2153.6,1032.3 2110.5,1062.4 2071.0,1089.7 2034.9,1114.5 2002.2,1136.7 1972.5,1156.6 1945.9,1174.2 1922.2,1189.6 1901.2,1202.9 1882.9,1214.1 1867.2,1223.4 1853.9,1230.7 1843.1,1236.2 1834.7,1239.8 1828.6,1241.5 1824.8,1241.4 1823.3,1239.6 1824.0,1235.8 1827.1,1230.2 1832.4,1222.8 1840.1,1213.4 1850.1,1202.1 1862.6,1188.8 1877.6,1173.4 1895.2,1155.8 1915.4,1136.0 1938.4,1113.9 1964.2,1089.4 1993.1,1062.3 2025.1,1032.5 2060.4,999.9 2099.2,964.4 2141.6,925.8 2187.8,883.9 2238.1,838.6 2292.5,789.7  A 1064.250,1064.250 0.00 0,0 2290.2,787.1 L 2290.2,787.1 2235.9,836.2 2185.8,881.7 2139.7,923.7 2097.5,962.5 2058.8,998.1 2023.6,1030.8 1991.7,1060.7 1962.9,1087.9 1937.1,1112.5 1914.2,1134.7 1894.1,1154.6 1876.6,1172.2 1861.6,1187.6 1849.2,1201.0 1839.2,1212.3 1831.5,1221.7 1826.2,1229.2 1823.2,1234.8 1822.4,1238.5 1824.0,1240.4 1827.8,1240.5 1833.9,1238.7 1842.3,1235.1 1853.1,1229.6 1866.3,1222.2 1882.0,1212.9 1900.3,1201.6 1921.2,1188.2 1944.9,1172.7 1971.4,1155.1 2001.0,1135.1 2033.7,1112.7 2069.6,1087.9 2109.0,1060.4 2152.1,1030.2 2198.9,997.1 2249.8,961.0 2304.8,921.7 2364.3,879.0  Z" style="stroke-width: 2.0;  stroke: rgb(82,82,82); fill: rgb(255,255,0); opacity: 0.667;" />
<path d="M 2477.241,1078.542 A 1064.250,1064.250 0.00 0,1 2478.6,1081.7 L 2478.6,1081.7 2410.8,1109.9 2347.0,1134.8 2287.2,1156.7 2230.9,1175.6 2178.1,1191.9 2128.5,1205.6 2081.9,1216.8 2038.1,1225.9 1996.9,1232.7 1958.1,1237.5 1921.7,1240.3 1887.3,1241.2 1854.9,1240.3 1824.3,1237.6 1795.4,1233.2 1768.1,1227.0 1742.2,1219.1 1717.6,1209.5 1694.2,1198.1 1672.0,1184.9 1650.7,1169.8 1630.5,1152.8 1611.1,1133.9 1592.6,1112.8 1574.9,1089.6 1557.9,1064.1 1541.5,1036.1 1525.9,1005.5 1510.9,972.1 1496.5,935.8 1482.8,896.4 1469.7,853.6 1457.3,807.3 1445.5,757.2 1434.5,703.0 1424.2,644.6 1414.7,581.5 1406.0,513.7 1398.3,440.6  A 1064.250,1064.250 0.00 0,0 1394.8,441.0 L 1394.8,441.0 1402.8,514.0 1411.7,581.8 1421.4,644.8 1431.9,703.2 1443.1,757.3 1455.1,807.4 1467.6,853.7 1480.9,896.4 1494.7,935.8 1509.2,972.1 1524.3,1005.4 1540.0,1035.9 1556.5,1063.9 1573.5,1089.4 1591.4,1112.6 1610.0,1133.5 1629.4,1152.4 1649.7,1169.3 1670.9,1184.3 1693.2,1197.4 1716.6,1208.8 1741.3,1218.3 1767.2,1226.2 1794.6,1232.2 1823.5,1236.6 1854.1,1239.2 1886.5,1240.0 1920.8,1239.0 1957.3,1236.0 1996.0,1231.1 2037.2,1224.1 2081.0,1215.0 2127.6,1203.5 2177.1,1189.7 2229.9,1173.3 2286.1,1154.1 2345.9,1132.1 2409.5,1107.0 2477.2,1078.5  Z" style="stroke-width: 2.0;  stroke: rgb(82,82,82); fill: rgb(204,255,0); opacity: 0.667;" />
<path d="M 2477.241,1078.542 A 1064.250,1064.250 0.00 0,1 2478.6,1081.7 L 2478.6,1081.7 2410.8,1112.0 2347.0,1142.9 2286.9,1174.3 2230.2,1205.9 2176.6,1237.6 2125.8,1269.2 2077.5,1300.6 2031.4,1331.5 1987.3,1362.0 1944.9,1392.0 1903.9,1421.2 1864.3,1449.8 1825.6,1477.6 1787.7,1504.6 1750.4,1530.8 1713.5,1556.2 1676.8,1580.8 1640.2,1604.7 1603.4,1627.9 1566.4,1650.5 1529.0,1672.6 1491.0,1694.2 1452.3,1715.6 1412.8,1736.7 1372.5,1757.9 1331.1,1779.3 1288.7,1800.9 1245.2,1823.2 1200.4,1846.2 1154.4,1870.2 1107.1,1895.5 1058.5,1922.3 1008.5,1950.9 957.2,1981.6 904.5,2014.8 850.5,2050.8 795.1,2089.9 738.4,2132.4 680.4,2178.9  A 1064.250,1064.250 0.00 0,0 682.6,2181.5 L 682.6,2181.5 740.4,2134.9 797.0,2092.1 852.2,2052.9 906.2,2016.7 958.8,1983.4 1010.0,1952.5 1059.9,1923.7 1108.4,1896.7 1155.6,1871.3 1201.5,1847.2 1246.2,1824.0 1289.7,1801.6 1332.0,1779.8 1373.3,1758.3 1413.6,1737.0 1453.0,1715.7 1491.6,1694.2 1529.5,1672.5 1566.9,1650.3 1603.9,1627.6 1640.5,1604.2 1677.1,1580.2 1713.7,1555.5 1750.5,1530.0 1787.7,1503.6 1825.5,1476.5 1864.1,1448.6 1903.7,1419.9 1944.5,1390.5 1986.8,1360.5 2030.8,1329.8 2076.8,1298.7 2125.0,1267.2 2175.7,1235.4 2229.2,1203.6 2285.8,1171.8 2345.8,1140.2 2409.5,1109.1 2477.2,1078.5  Z" style="stroke-width: 2.0;  stroke: rgb(82,82,82); fill: rgb(0,255,0); opacity: 0.667;" />
<path d="M 2477.241,1078.542 A 1064.250,1064.250 0.00 0,1 2478.6,1081.7 L 2478.6,1081.7 2411.4,1111.1 2349.4,1139.5 2292.4,1167.0 2240.1,1193.6 2192.2,1219.4 2148.5,1244.4 2108.8,1268.7 2072.8,1292.4 2040.3,1315.5 2011.1,1338.1 1985.2,1360.2 1962.3,1381.9 1942.2,1403.3 1925.0,1424.5 1910.4,1445.5 1898.4,1466.4 1888.9,1487.2 1881.8,1508.2 1877.2,1529.2 1874.9,1550.5 1875.0,1572.0 1877.5,1594.0 1882.5,1616.4 1889.8,1639.3 1899.7,1662.9 1912.1,1687.2 1927.2,1712.3 1945.1,1738.4 1965.9,1765.5 1989.6,1793.6 2016.5,1823.0 2046.8,1853.7 2080.6,1885.8 2118.1,1919.5 2159.5,1954.7 2205.0,1991.7 2255.0,2030.5 2309.6,2071.3 2369.2,2114.1  A 1064.250,1064.250 0.00 0,0 2371.2,2111.3 L 2371.2,2111.3 2311.5,2068.7 2256.7,2028.1 2206.6,1989.4 2160.9,1952.6 2119.4,1917.5 2081.8,1884.0 2047.9,1852.0 2017.6,1821.4 1990.6,1792.1 1966.7,1764.0 1945.9,1737.0 1927.9,1711.0 1912.7,1685.9 1900.2,1661.6 1890.3,1638.1 1882.8,1615.1 1877.8,1592.7 1875.3,1570.8 1875.1,1549.3 1877.3,1528.0 1881.8,1506.9 1888.8,1486.0 1898.2,1465.1 1910.2,1444.2 1924.7,1423.1 1941.9,1401.9 1961.9,1380.4 1984.7,1358.6 2010.6,1336.4 2039.7,1313.7 2072.1,1290.5 2108.0,1266.8 2147.7,1242.3 2191.3,1217.1 2239.1,1191.2 2291.3,1164.4 2348.2,1136.8 2410.1,1108.2 2477.2,1078.5  Z" style="stroke-width: 2.0;  stroke: rgb(82,82,82); fill: rgb(53,128,0); opacity: 0.667;" />
<path d="M 2477.241,1078.542 A 1064.250,1064.250 0.00 0,1 2478.6,1081.7 L 2478.6,1081.7 2411.2,1110.3 2348.7,1136.3 2290.9,1160.0 2237.5,1181.4 2188.4,1200.5 2143.3,1217.6 2101.9,1232.8 2064.2,1246.0 2030.0,1257.4 1999.0,1267.0 1971.2,1274.9 1946.4,1281.2 1924.5,1285.9 1905.4,1289.0 1889.1,1290.6 1875.3,1290.7 1864.1,1289.2 1855.3,1286.3 1849.1,1281.8 1845.2,1275.8 1843.8,1268.2 1844.8,1259.0 1848.3,1248.3 1854.1,1235.8 1862.5,1221.6 1873.4,1205.6 1886.9,1187.8 1903.0,1168.0 1922.0,1146.1 1943.8,1122.1 1968.6,1095.9 1996.5,1067.3 2027.7,1036.2 2062.2,1002.5 2100.4,966.1 2142.3,926.7 2188.1,884.3 2238.1,838.7 2292.5,789.7  A 1064.250,1064.250 0.00 0,0 2290.2,787.1 L 2290.2,787.1 2236.0,836.3 2186.1,882.1 2140.4,924.7 2098.6,964.1 2060.6,1000.7 2026.2,1034.5 1995.1,1065.7 1967.3,1094.4 1942.6,1120.7 1920.8,1144.7 1902.0,1166.7 1885.9,1186.5 1872.4,1204.4 1861.6,1220.4 1853.3,1234.7 1847.4,1247.1 1844.0,1257.9 1843.1,1267.1 1844.5,1274.7 1848.4,1280.7 1854.7,1285.1 1863.4,1288.1 1874.6,1289.5 1888.4,1289.4 1904.8,1287.7 1923.9,1284.5 1945.7,1279.8 1970.5,1273.4 1998.3,1265.4 2029.2,1255.7 2063.4,1244.2 2101.1,1230.8 2142.3,1215.6 2187.4,1198.3 2236.5,1179.0 2289.8,1157.4 2347.5,1133.6 2409.9,1107.4 2477.2,1078.5  Z" style="stroke-width: 2.0;  stroke: rgb(82,82,82); fill: rgb(0,0,204); opacity: 0.667;" />
<path d="M 2477.241,1078.542 A 1064.250,1064.250 0.00 0,1 2478.6,1081.7 L 2478.6,1081.7 2411.2,1110.3 2348.9,1136.6 2291.2,1160.5 2238.1,1182.2 2189.3,1201.9 2144.5,1219.6 2103.6,1235.4 2066.4,1249.3 2032.8,1261.6 2002.5,1272.1 1975.4,1281.1 1951.4,1288.5 1930.4,1294.4 1912.2,1298.8 1896.9,1301.7 1884.2,1303.2 1874.2,1303.3 1866.8,1302.0 1862.0,1299.3 1859.7,1295.2 1859.9,1289.7 1862.6,1282.7 1867.9,1274.2 1875.8,1264.2 1886.3,1252.6 1899.5,1239.4 1915.5,1224.5 1934.3,1207.9 1956.0,1189.4 1980.8,1169.0 2008.7,1146.6 2040.0,1122.1 2074.8,1095.4 2113.1,1066.4 2155.3,1034.9 2201.5,1000.9 2251.9,964.1 2306.8,924.5 2366.3,881.8  A 1064.250,1064.250 0.00 0,0 2364.3,879.0 L 2364.3,879.0 2304.9,921.9 2250.2,961.7 2199.9,998.6 2153.8,1032.8 2111.7,1064.4 2073.4,1093.6 2038.8,1120.4 2007.6,1145.0 1979.7,1167.5 1955.0,1187.9 1933.3,1206.5 1914.6,1223.2 1898.7,1238.1 1885.5,1251.4 1875.1,1263.0 1867.2,1273.0 1861.9,1281.5 1859.2,1288.5 1859.0,1294.1 1861.3,1298.2 1866.2,1300.9 1873.6,1302.1 1883.6,1302.0 1896.3,1300.4 1911.6,1297.4 1929.7,1293.0 1950.7,1287.0 1974.7,1279.6 2001.7,1270.5 2032.0,1259.9 2065.6,1247.5 2102.8,1233.4 2143.6,1217.5 2188.3,1199.7 2237.1,1179.9 2290.1,1158.0 2347.7,1133.8 2410.0,1107.4 2477.2,1078.5  Z" style="stroke-width: 2.0;  stroke: rgb(82,82,82); fill: rgb(102,153,255); opacity: 0.667;" />
<path d="M 2499.697,1134.988 A 1064.250,1064.250 0.00 0,1 2500.9,1138.2 L 2500.9,1138.2 2431.5,1162.4 2366.4,1183.6 2305.2,1201.9 2247.8,1217.6 2193.9,1230.7 2143.2,1241.4 2095.7,1249.9 2051.0,1256.2 2009.0,1260.6 1969.5,1263.0 1932.3,1263.6 1897.3,1262.5 1864.3,1259.7 1833.1,1255.2 1803.7,1249.1 1775.8,1241.3 1749.4,1231.9 1724.3,1220.9 1700.5,1208.3 1677.7,1193.9 1656.1,1177.8 1635.4,1159.8 1615.6,1140.0 1596.7,1118.1 1578.5,1094.1 1561.1,1067.9 1544.4,1039.2 1528.4,1008.1 1513.0,974.2 1498.3,937.5 1484.3,897.7 1470.9,854.6 1458.2,808.0 1446.2,757.7 1434.9,703.3 1424.4,644.7 1414.8,581.6 1406.0,513.7 1398.3,440.6  A 1064.250,1064.250 0.00 0,0 1394.8,441.0 L 1394.8,441.0 1402.9,514.0 1411.8,581.9 1421.7,645.0 1432.3,703.5 1443.8,757.8 1456.0,808.1 1468.8,854.7 1482.3,897.7 1496.5,937.5 1511.3,974.2 1526.8,1008.0 1542.9,1039.1 1559.7,1067.7 1577.2,1093.9 1595.5,1117.8 1614.5,1139.6 1634.3,1159.4 1655.1,1177.3 1676.8,1193.3 1699.5,1207.6 1723.4,1220.2 1748.5,1231.1 1775.0,1240.4 1802.9,1248.1 1832.4,1254.1 1863.5,1258.5 1896.6,1261.2 1931.6,1262.3 1968.7,1261.5 2008.2,1259.0 2050.2,1254.5 2094.9,1248.0 2142.4,1239.3 2193.0,1228.5 2246.9,1215.2 2304.3,1199.4 2365.4,1180.9 2430.4,1159.5 2499.7,1135.0  Z" style="stroke-width: 2.0;  stroke: rgb(82,82,82); fill: rgb(153,204,255); opacity: 0.667;" />
<path d="M 2499.697,1134.988 A 1064.250,1064.250 0.00 0,1 2500.9,1138.2 L 2500.9,1138.2 2431.4,1164.5 2366.1,1191.8 2304.4,1219.6 2246.2,1247.9 2191.1,1276.4 2138.9,1305.0 2089.2,1333.6 2041.8,1361.9 1996.4,1389.9 1952.8,1417.5 1910.7,1444.5 1870.0,1471.0 1830.3,1496.9 1791.5,1522.1 1753.4,1546.6 1715.7,1570.4 1678.3,1593.6 1641.1,1616.1 1603.8,1638.1 1566.3,1659.5 1528.5,1680.5 1490.2,1701.1 1451.2,1721.6 1411.6,1742.0 1371.1,1762.4 1329.7,1783.0 1287.3,1804.1 1243.8,1825.8 1199.1,1848.3 1153.3,1871.9 1106.1,1896.8 1057.6,1923.3 1007.8,1951.6 956.7,1982.1 904.1,2015.1 850.2,2050.9 795.0,2089.9 738.3,2132.4 680.4,2178.9  A 1064.250,1064.250 0.00 0,0 682.6,2181.5 L 682.6,2181.5 740.4,2134.9 796.9,2092.2 852.0,2053.0 905.8,2017.0 958.2,1983.9 1009.3,1953.2 1059.0,1924.7 1107.4,1898.1 1154.5,1873.0 1200.3,1849.3 1244.9,1826.6 1288.3,1804.8 1330.6,1783.6 1372.0,1762.8 1412.4,1742.2 1451.9,1721.8 1490.8,1701.2 1529.0,1680.4 1566.8,1659.3 1604.2,1637.7 1641.5,1615.7 1678.6,1593.0 1715.9,1569.7 1753.5,1545.8 1791.6,1521.1 1830.3,1495.8 1869.9,1469.8 1910.6,1443.2 1952.5,1416.0 1996.0,1388.3 2041.3,1360.2 2088.7,1331.7 2138.3,1303.0 2190.4,1274.2 2245.4,1245.5 2303.5,1217.0 2365.1,1189.0 2430.4,1161.6 2499.7,1135.0  Z" style="stroke-width: 2.0;  stroke: rgb(82,82,82); fill: rgb(0,255,255); opacity: 0.667;" />
<path d="M 2499.697,1134.988 A 1064.250,1064.250 0.00 0,1 2500.9,1138.2 L 2500.9,1138.2 2432.1,1163.7 2368.6,1188.4 2310.2,1212.4 2256.5,1235.8 2207.3,1258.5 2162.4,1280.7 2121.4,1302.3 2084.3,1323.5 2050.7,1344.2 2020.6,1364.5 1993.6,1384.6 1969.8,1404.4 1949.0,1423.9 1930.9,1443.4 1915.6,1462.8 1902.9,1482.2 1892.8,1501.6 1885.2,1521.2 1880.1,1541.0 1877.3,1561.1 1877.1,1581.6 1879.2,1602.5 1883.8,1624.0 1890.9,1646.0 1900.5,1668.8 1912.8,1692.3 1927.7,1716.7 1945.4,1742.1 1966.1,1768.6 1989.7,1796.2 2016.6,1825.1 2046.8,1855.3 2080.6,1887.0 2118.0,1920.3 2159.4,1955.3 2205.0,1992.0 2255.0,2030.6 2309.6,2071.3 2369.2,2114.1  A 1064.250,1064.250 0.00 0,0 2371.2,2111.3 L 2371.2,2111.3 2311.5,2068.7 2256.7,2028.2 2206.6,1989.7 2160.9,1953.1 2119.4,1918.3 2081.8,1885.1 2048.0,1853.5 2017.6,1823.4 1990.7,1794.6 1966.9,1767.1 1946.2,1740.7 1928.4,1715.3 1913.4,1691.0 1901.1,1667.5 1891.4,1644.8 1884.2,1622.7 1879.5,1601.3 1877.3,1580.4 1877.5,1559.9 1880.2,1539.8 1885.3,1520.0 1892.8,1500.4 1902.9,1480.9 1915.5,1461.5 1930.7,1442.0 1948.7,1422.5 1969.5,1402.9 1993.3,1383.0 2020.1,1362.9 2050.2,1342.4 2083.7,1321.6 2120.8,1300.3 2161.7,1278.6 2206.5,1256.3 2255.7,1233.4 2309.3,1209.8 2367.6,1185.6 2431.0,1160.7 2499.7,1135.0  Z" style="stroke-width: 2.0;  stroke: rgb(82,82,82); fill: rgb(204,255,255); opacity: 0.667;" />
<path d="M 2499.697,1134.988 A 1064.250,1064.250 0.00 0,1 2500.9,1138.2 L 2500.9,1138.2 2431.9,1162.8 2368.0,1185.2 2308.8,1205.4 2254.2,1223.5 2203.9,1239.6 2157.7,1253.8 2115.3,1266.2 2076.7,1276.8 2041.5,1285.8 2009.7,1293.2 1981.1,1299.0 1955.6,1303.3 1933.0,1306.2 1913.3,1307.5 1896.3,1307.5 1881.9,1306.0 1870.2,1303.1 1860.9,1298.8 1854.2,1293.1 1849.9,1285.9 1848.1,1277.3 1848.6,1267.1 1851.7,1255.4 1857.2,1242.1 1865.2,1227.1 1875.8,1210.3 1888.9,1191.8 1904.8,1171.3 1923.5,1148.9 1945.0,1124.4 1969.6,1097.7 1997.3,1068.7 2028.2,1037.3 2062.6,1003.3 2100.6,966.6 2142.4,927.0 2188.2,884.5 2238.2,838.7 2292.5,789.7  A 1064.250,1064.250 0.00 0,0 2290.2,787.1 L 2290.2,787.1 2236.0,836.4 2186.2,882.2 2140.6,924.9 2098.9,964.6 2061.0,1001.4 2026.7,1035.6 1995.9,1067.1 1968.3,1096.2 1943.8,1123.0 1922.3,1147.6 1903.8,1170.0 1887.9,1190.5 1874.8,1209.1 1864.3,1225.9 1856.3,1240.9 1850.9,1254.3 1847.9,1266.0 1847.3,1276.2 1849.2,1284.8 1853.5,1292.0 1860.3,1297.7 1869.5,1302.0 1881.3,1304.8 1895.7,1306.2 1912.7,1306.2 1932.4,1304.8 1955.0,1301.9 1980.5,1297.5 2009.1,1291.6 2040.8,1284.1 2076.0,1275.0 2114.6,1264.2 2156.9,1251.7 2203.1,1237.3 2253.3,1221.1 2307.9,1202.8 2367.0,1182.4 2430.8,1159.9 2499.7,1135.0  Z" style="stroke-width: 2.0;  stroke: rgb(82,82,82); fill: rgb(153,0,204); opacity: 0.667;" />
<path d="M 2499.697,1134.988 A 1064.250,1064.250 0.00 0,1 2500.9,1138.2 L 2500.9,1138.2 2431.9,1162.9 2368.1,1185.4 2309.2,1205.9 2254.8,1224.4 2204.8,1241.0 2158.9,1255.7 2117.0,1268.8 2078.8,1280.2 2044.2,1290.1 2013.1,1298.4 1985.2,1305.2 1960.5,1310.6 1938.8,1314.7 1920.0,1317.3 1904.0,1318.7 1890.7,1318.7 1880.2,1317.3 1872.3,1314.7 1866.9,1310.8 1864.2,1305.5 1864.0,1298.9 1866.3,1290.9 1871.2,1281.4 1878.7,1270.5 1888.9,1258.1 1901.8,1244.2 1917.4,1228.6 1935.9,1211.3 1957.4,1192.3 1981.9,1171.3 2009.7,1148.5 2040.7,1123.6 2075.3,1096.5 2113.5,1067.1 2155.6,1035.4 2201.7,1001.1 2252.0,964.2 2306.8,924.5 2366.3,881.8  A 1064.250,1064.250 0.00 0,0 2364.3,879.0 L 2364.3,879.0 2305.0,921.9 2250.3,961.8 2200.1,998.9 2154.1,1033.3 2112.1,1065.2 2074.0,1094.6 2039.5,1121.8 2008.5,1146.8 1980.9,1169.8 1956.4,1190.8 1935.0,1209.9 1916.5,1227.3 1900.9,1242.9 1888.1,1256.9 1878.0,1269.3 1870.5,1280.2 1865.6,1289.7 1863.3,1297.7 1863.5,1304.3 1866.3,1309.6 1871.7,1313.5 1879.6,1316.1 1890.2,1317.4 1903.4,1317.4 1919.4,1316.0 1938.2,1313.3 1959.9,1309.2 1984.6,1303.7 2012.4,1296.8 2043.6,1288.3 2078.1,1278.4 2116.2,1266.9 2158.1,1253.7 2203.9,1238.7 2253.9,1222.0 2308.2,1203.3 2367.1,1182.7 2430.9,1159.9 2499.7,1135.0  Z" style="stroke-width: 2.0;  stroke: rgb(82,82,82); fill: rgb(204,51,255); opacity: 0.667;" />
<path d="M 2499.697,1134.988 A 1064.250,1064.250 0.00 0,1 2500.9,1138.2 L 2500.9,1138.2 2432.0,1163.0 2368.4,1185.9 2309.7,1207.0 2255.7,1226.2 2206.1,1243.8 2160.8,1259.8 2119.6,1274.3 2082.2,1287.3 2048.6,1298.9 2018.4,1309.2 1991.7,1318.2 1968.2,1325.9 1947.8,1332.5 1930.5,1337.9 1916.1,1342.1 1904.6,1345.3 1895.9,1347.4 1889.9,1348.3 1886.8,1348.2 1886.3,1347.1 1888.6,1344.8 1893.6,1341.5 1901.3,1337.1 1911.9,1331.5 1925.3,1324.8 1941.7,1317.0 1961.0,1307.9 1983.5,1297.5 2009.2,1285.8 2038.3,1272.7 2070.8,1258.3 2107.0,1242.3 2147.0,1224.7 2191.0,1205.5 2239.2,1184.6 2291.9,1161.8 2349.1,1137.2 2411.3,1110.5 2478.6,1081.7  A 1064.250,1064.250 0.00 0,0 2477.2,1078.5 L 2477.2,1078.5 2410.0,1107.6 2348.0,1134.4 2290.8,1159.3 2238.2,1182.2 2190.1,1203.3 2146.1,1222.6 2106.2,1240.3 2070.0,1256.4 2037.5,1271.0 2008.5,1284.2 1982.9,1295.9 1960.4,1306.4 1941.1,1315.5 1924.7,1323.5 1911.3,1330.2 1900.8,1335.8 1893.1,1340.3 1888.1,1343.6 1885.8,1345.8 1886.3,1347.0 1889.5,1347.1 1895.4,1346.1 1904.1,1344.0 1915.6,1340.8 1929.9,1336.5 1947.3,1331.1 1967.6,1324.4 1991.1,1316.6 2017.8,1307.5 2047.9,1297.2 2081.6,1285.4 2118.9,1272.3 2160.1,1257.7 2205.3,1241.6 2254.8,1223.8 2308.7,1204.4 2367.4,1183.2 2430.9,1160.1 2499.7,1135.0  Z" style="stroke-width: 2.0;  stroke: rgb(82,82,82); fill: rgb(204,153,255); opacity: 0.667;" />
<path d="M 2548.649,1318.440 A 1064.250,1064.250 0.00 0,1 2549.2,1321.8 L 2549.2,1321.8 2476.6,1333.3 2408.5,1342.4 2344.6,1349.2 2284.7,1354.0 2228.6,1356.9 2175.9,1357.9 2126.5,1357.3 2080.1,1355.1 2036.6,1351.4 1995.6,1346.2 1957.1,1339.7 1920.9,1331.9 1886.7,1322.8 1854.4,1312.5 1823.8,1300.9 1794.9,1288.0 1767.4,1273.9 1741.3,1258.5 1716.5,1241.8 1692.8,1223.6 1670.1,1204.0 1648.5,1182.8 1627.7,1160.0 1607.7,1135.4 1588.6,1109.0 1570.2,1080.5 1552.5,1049.9 1535.5,1016.9 1519.1,981.4 1503.5,943.2 1488.5,902.2 1474.3,858.0 1460.8,810.5 1448.1,759.3 1436.2,704.4 1425.2,645.3 1415.1,581.9 1406.1,513.8 1398.3,440.6  A 1064.250,1064.250 0.00 0,0 1394.8,441.0 L 1394.8,441.0 1403.0,514.1 1412.2,582.2 1422.4,645.6 1433.6,704.6 1445.7,759.5 1458.6,810.6 1472.2,858.1 1486.6,902.2 1501.7,943.2 1517.5,981.4 1533.9,1016.8 1551.0,1049.7 1568.8,1080.3 1587.3,1108.7 1606.6,1135.1 1626.6,1159.6 1647.4,1182.4 1669.2,1203.5 1691.9,1223.0 1715.7,1241.1 1740.6,1257.7 1766.7,1273.1 1794.2,1287.1 1823.2,1299.8 1853.8,1311.3 1886.1,1321.6 1920.3,1330.6 1956.6,1338.3 1995.1,1344.6 2036.1,1349.6 2079.6,1353.2 2126.0,1355.3 2175.4,1355.8 2228.1,1354.5 2284.2,1351.5 2344.1,1346.5 2407.9,1339.5 2476.0,1330.2 2548.6,1318.4  Z" style="stroke-width: 2.0;  stroke: rgb(82,82,82); fill: rgb(102,102,102); opacity: 0.667;" />
<path d="M 2548.649,1318.440 A 1064.250,1064.250 0.00 0,1 2549.2,1321.8 L 2549.2,1321.8 2476.3,1335.4 2407.5,1350.5 2342.3,1366.8 2280.6,1384.2 2222.1,1402.4 2166.5,1421.3 2113.6,1440.6 2063.0,1460.2 2014.7,1480.1 1968.2,1499.9 1923.4,1519.8 1880.1,1539.5 1838.0,1559.0 1797.1,1578.3 1756.9,1597.3 1717.5,1616.0 1678.5,1634.4 1639.9,1652.5 1601.4,1670.3 1562.9,1688.0 1524.3,1705.5 1485.3,1723.0 1446.0,1740.5 1406.1,1758.2 1365.5,1776.2 1324.2,1794.7 1281.9,1813.8 1238.8,1833.8 1194.5,1854.8 1149.1,1877.0 1102.5,1900.7 1054.6,1926.2 1005.4,1953.7 954.9,1983.6 902.9,2016.0 849.5,2051.4 794.6,2090.1 738.2,2132.5 680.4,2178.9  A 1064.250,1064.250 0.00 0,0 682.6,2181.5 L 682.6,2181.5 740.3,2135.0 796.5,2092.4 851.3,2053.5 904.6,2018.0 956.4,1985.3 1006.9,1955.3 1056.0,1927.7 1103.8,1902.0 1150.3,1878.1 1195.6,1855.7 1239.8,1834.6 1283.0,1814.5 1325.1,1795.3 1366.4,1776.6 1406.9,1758.5 1446.8,1740.7 1486.1,1723.0 1524.9,1705.4 1563.5,1687.8 1601.9,1670.0 1640.4,1652.0 1679.0,1633.8 1717.9,1615.3 1757.2,1596.5 1797.3,1577.3 1838.2,1557.9 1880.2,1538.3 1923.5,1518.4 1968.2,1498.4 2014.6,1478.4 2062.9,1458.4 2113.4,1438.6 2166.3,1419.1 2221.8,1400.1 2280.3,1381.7 2341.9,1364.1 2407.0,1347.5 2475.8,1332.2 2548.6,1318.4  Z" style="stroke-width: 2.0;  stroke: rgb(82,82,82); fill: rgb(153,153,153); opacity: 0.667;" />
<path d="M 2548.649,1318.440 A 1064.250,1064.250 0.00 0,1 2549.2,1321.8 L 2549.2,1321.8 2477.0,1334.6 2410.3,1347.3 2348.7,1360.1 2292.0,1372.8 2239.9,1385.6 2192.1,1398.4 2148.5,1411.3 2108.8,1424.2 2072.8,1437.2 2040.4,1450.3 2011.4,1463.6 1985.5,1477.0 1962.8,1490.6 1943.0,1504.5 1926.1,1518.6 1911.9,1533.1 1900.4,1547.9 1891.6,1563.2 1885.3,1579.0 1881.6,1595.3 1880.5,1612.2 1881.8,1629.8 1885.8,1648.2 1892.3,1667.3 1901.4,1687.4 1913.3,1708.5 1927.9,1730.6 1945.4,1753.8 1965.9,1778.3 1989.5,1804.2 2016.3,1831.4 2046.5,1860.2 2080.2,1890.7 2117.8,1922.9 2159.2,1956.9 2204.9,1993.0 2254.9,2031.1 2309.6,2071.4 2369.2,2114.1  A 1064.250,1064.250 0.00 0,0 2371.2,2111.3 L 2371.2,2111.3 2311.4,2068.8 2256.6,2028.6 2206.5,1990.7 2160.7,1954.8 2119.1,1920.9 2081.5,1888.8 2047.6,1858.5 2017.3,1829.8 1990.4,1802.6 1966.8,1776.8 1946.2,1752.4 1928.7,1729.2 1914.0,1707.1 1902.0,1686.1 1892.8,1666.1 1886.2,1646.9 1882.3,1628.6 1880.8,1611.0 1881.9,1594.1 1885.6,1577.7 1891.8,1562.0 1900.6,1546.6 1912.0,1531.8 1926.1,1517.2 1943.0,1503.0 1962.8,1489.1 1985.5,1475.4 2011.2,1461.9 2040.2,1448.6 2072.6,1435.4 2108.6,1422.3 2148.2,1409.2 2191.8,1396.2 2239.5,1383.2 2291.6,1370.3 2348.2,1357.3 2409.8,1344.4 2476.5,1331.4 2548.6,1318.4  Z" style="stroke-width: 2.0;  stroke: rgb(82,82,82); fill: rgb(204,204,204); opacity: 0.667;" />
<path d="M 2548.649,1318.440 A 1064.250,1064.250 0.00 0,1 2549.2,1321.8 L 2549.2,1321.8 2477.0,1333.7 2409.9,1344.1 2347.9,1352.9 2290.7,1360.4 2237.9,1366.5 2189.3,1371.2 2144.8,1374.8 2104.2,1377.1 2067.2,1378.3 2033.7,1378.3 2003.5,1377.3 1976.4,1375.1 1952.4,1371.9 1931.3,1367.6 1913.1,1362.3 1897.5,1355.9 1884.6,1348.4 1874.3,1339.7 1866.5,1329.9 1861.2,1319.0 1858.4,1306.8 1858.1,1293.3 1860.2,1278.6 1864.9,1262.4 1872.1,1244.8 1881.8,1225.6 1894.3,1204.8 1909.4,1182.3 1927.4,1158.0 1948.3,1131.8 1972.3,1103.6 1999.4,1073.2 2029.8,1040.6 2063.8,1005.6 2101.4,968.1 2142.9,927.9 2188.4,884.8 2238.2,838.8 2292.5,789.7  A 1064.250,1064.250 0.00 0,0 2290.2,787.1 L 2290.2,787.1 2236.1,836.5 2186.4,882.6 2141.0,925.8 2099.7,966.1 2062.2,1003.8 2028.4,1038.9 1998.0,1071.6 1971.0,1102.1 1947.1,1130.4 1926.3,1156.7 1908.4,1181.0 1893.3,1203.6 1881.0,1224.4 1871.2,1243.6 1864.1,1261.2 1859.5,1277.4 1857.4,1292.2 1857.8,1305.6 1860.6,1317.8 1866.0,1328.8 1873.8,1338.5 1884.1,1347.1 1897.1,1354.6 1912.6,1361.0 1930.9,1366.3 1952.0,1370.5 1976.0,1373.6 2003.1,1375.7 2033.3,1376.6 2066.8,1376.5 2103.8,1375.2 2144.4,1372.7 2188.9,1369.0 2237.4,1364.1 2290.2,1357.8 2347.5,1350.2 2409.4,1341.2 2476.4,1330.6 2548.6,1318.4  Z" style="stroke-width: 2.0;  stroke: rgb(82,82,82); fill: rgb(204,204,153); opacity: 0.667;" />
<path d="M 2548.649,1318.440 A 1064.250,1064.250 0.00 0,1 2549.2,1321.8 L 2549.2,1321.8 2477.0,1333.8 2410.1,1344.3 2348.2,1353.5 2291.1,1361.3 2238.6,1367.9 2190.4,1373.3 2146.3,1377.5 2106.1,1380.6 2069.6,1382.7 2036.7,1383.7 2007.2,1383.7 1980.9,1382.7 1957.7,1380.7 1937.6,1377.7 1920.3,1373.7 1905.8,1368.8 1894.1,1362.8 1885.1,1355.9 1878.7,1347.9 1875.0,1338.8 1873.8,1328.6 1875.2,1317.3 1879.3,1304.8 1885.9,1291.1 1895.3,1276.1 1907.4,1259.7 1922.3,1241.8 1940.2,1222.5 1961.0,1201.5 1984.9,1178.9 2012.1,1154.5 2042.6,1128.2 2076.7,1099.9 2114.6,1069.5 2156.3,1037.0 2202.1,1002.0 2252.2,964.6 2306.9,924.6 2366.3,881.8  A 1064.250,1064.250 0.00 0,0 2364.3,879.0 L 2364.3,879.0 2305.0,922.0 2250.5,962.2 2200.5,999.8 2154.8,1034.8 2113.2,1067.6 2075.5,1098.1 2041.4,1126.5 2011.0,1152.8 1983.9,1177.3 1960.0,1200.1 1939.3,1221.1 1921.5,1240.5 1906.6,1258.4 1894.6,1274.8 1885.3,1289.9 1878.6,1303.6 1874.6,1316.1 1873.2,1327.4 1874.4,1337.6 1878.2,1346.6 1884.6,1354.6 1893.7,1361.6 1905.4,1367.5 1919.9,1372.4 1937.2,1376.3 1957.3,1379.2 1980.5,1381.1 2006.8,1382.0 2036.3,1382.0 2069.3,1380.9 2105.7,1378.7 2145.9,1375.4 2190.0,1371.1 2238.2,1365.5 2290.7,1358.8 2347.7,1350.8 2409.6,1341.4 2476.4,1330.7 2548.6,1318.4  Z" style="stroke-width: 2.0;  stroke: rgb(82,82,82); fill: rgb(251,106,74); opacity: 0.667;" />
<path d="M 2548.649,1318.440 A 1064.250,1064.250 0.00 0,1 2549.2,1321.8 L 2549.2,1321.8 2477.0,1333.9 2410.2,1344.8 2348.6,1354.6 2291.9,1363.2 2239.7,1370.9 2192.1,1377.5 2148.6,1383.1 2109.1,1387.9 2073.4,1391.7 2041.4,1394.7 2012.9,1396.9 1987.8,1398.3 1965.9,1398.8 1947.1,1398.6 1931.4,1397.6 1918.6,1395.8 1908.7,1393.3 1901.7,1389.9 1897.5,1385.8 1896.0,1380.8 1897.3,1375.1 1901.4,1368.4 1908.4,1360.9 1918.1,1352.5 1930.8,1343.1 1946.5,1332.8 1965.2,1321.4 1987.1,1308.9 2012.2,1295.3 2040.7,1280.5 2072.8,1264.5 2108.5,1247.1 2148.2,1228.3 2191.8,1208.0 2239.8,1186.2 2292.2,1162.8 2349.3,1137.6 2411.3,1110.6 2478.6,1081.7  A 1064.250,1064.250 0.00 0,0 2477.2,1078.5 L 2477.2,1078.5 2410.1,1107.7 2348.1,1134.9 2291.1,1160.2 2238.8,1183.8 2190.9,1205.8 2147.3,1226.2 2107.7,1245.1 2072.0,1262.6 2040.0,1278.8 2011.5,1293.7 1986.4,1307.4 1964.6,1319.9 1945.9,1331.4 1930.3,1341.8 1917.7,1351.2 1907.9,1359.6 1901.0,1367.1 1896.9,1373.8 1895.6,1379.6 1897.1,1384.5 1901.3,1388.6 1908.4,1391.9 1918.3,1394.5 1931.1,1396.2 1946.8,1397.2 1965.6,1397.3 1987.5,1396.7 2012.6,1395.3 2041.1,1393.0 2073.1,1389.9 2108.7,1385.9 2148.2,1381.1 2191.7,1375.3 2239.3,1368.5 2291.4,1360.7 2348.1,1351.9 2409.7,1341.9 2476.5,1330.8 2548.6,1318.4  Z" style="stroke-width: 2.0;  stroke: rgb(82,82,82); fill: rgb(116,196,118); opacity: 0.667;" />
<path d="M 2548.649,1318.440 A 1064.250,1064.250 0.00 0,1 2549.2,1321.8 L 2549.2,1321.8 2477.0,1334.0 2410.3,1345.0 2348.7,1354.9 2292.0,1363.8 2240.0,1371.7 2192.4,1378.6 2149.0,1384.7 2109.7,1389.9 2074.2,1394.2 2042.4,1397.8 2014.1,1400.5 1989.2,1402.6 1967.6,1403.8 1949.1,1404.4 1933.7,1404.2 1921.2,1403.3 1911.7,1401.7 1905.1,1399.4 1901.2,1396.3 1900.2,1392.6 1902.1,1388.0 1906.7,1382.7 1914.2,1376.6 1924.6,1369.7 1937.9,1362.0 1954.3,1353.3 1973.7,1343.8 1996.4,1333.3 2022.4,1321.7 2051.8,1309.2 2084.8,1295.5 2121.6,1280.6 2162.3,1264.5 2207.2,1247.1 2256.3,1228.4 2310.0,1208.2 2368.5,1186.5 2432.0,1163.2 2500.9,1138.2  A 1064.250,1064.250 0.00 0,0 2499.7,1135.0 L 2499.7,1135.0 2431.0,1160.2 2367.5,1183.7 2309.1,1205.6 2255.5,1226.0 2206.4,1244.9 2161.6,1262.4 2120.9,1278.6 2084.2,1293.6 2051.2,1307.4 2021.8,1320.1 1995.9,1331.7 1973.2,1342.3 1953.8,1351.9 1937.5,1360.6 1924.2,1368.4 1913.8,1375.3 1906.3,1381.4 1901.7,1386.7 1899.9,1391.3 1900.9,1395.0 1904.7,1398.1 1911.4,1400.4 1920.9,1402.0 1933.4,1402.8 1948.8,1402.9 1967.3,1402.3 1988.9,1401.0 2013.8,1398.9 2042.1,1396.0 2073.9,1392.4 2109.4,1387.9 2148.7,1382.6 2192.0,1376.4 2239.6,1369.3 2291.6,1361.2 2348.2,1352.2 2409.8,1342.0 2476.5,1330.8 2548.6,1318.4  Z" style="stroke-width: 2.0;  stroke: rgb(82,82,82); fill: rgb(107,174,214); opacity: 0.667;" />
<path d="M 2550.126,1327.192 A 1064.250,1064.250 0.00 0,1 2550.7,1330.6 L 2550.7,1330.6 2477.9,1341.4 2409.7,1350.0 2345.8,1356.3 2285.8,1360.5 2229.6,1362.9 2176.9,1363.5 2127.5,1362.4 2081.0,1359.8 2037.5,1355.7 1996.5,1350.2 1957.9,1343.4 1921.7,1335.2 1887.4,1325.8 1855.1,1315.2 1824.5,1303.4 1795.6,1290.3 1768.1,1275.9 1742.0,1260.3 1717.1,1243.4 1693.4,1225.0 1670.7,1205.3 1649.0,1183.9 1628.2,1161.0 1608.2,1136.3 1589.0,1109.7 1570.5,1081.1 1552.8,1050.4 1535.8,1017.3 1519.4,981.8 1503.7,943.5 1488.7,902.4 1474.4,858.2 1460.9,810.6 1448.1,759.4 1436.2,704.4 1425.2,645.4 1415.1,581.9 1406.1,513.8 1398.3,440.6  A 1064.250,1064.250 0.00 0,0 1394.8,441.0 L 1394.8,441.0 1403.0,514.1 1412.2,582.2 1422.5,645.6 1433.7,704.7 1445.8,759.6 1458.7,810.7 1472.4,858.2 1486.8,902.4 1501.9,943.5 1517.7,981.7 1534.2,1017.2 1551.4,1050.2 1569.2,1080.9 1587.7,1109.4 1607.0,1135.9 1627.1,1160.6 1648.0,1183.5 1669.8,1204.7 1692.5,1224.4 1716.3,1242.7 1741.2,1259.5 1767.4,1275.1 1794.9,1289.3 1823.9,1302.3 1854.5,1314.1 1886.9,1324.6 1921.1,1333.9 1957.4,1341.9 1996.0,1348.6 2037.0,1354.0 2080.6,1357.9 2127.0,1360.4 2176.5,1361.3 2229.2,1360.6 2285.4,1358.0 2345.3,1353.5 2409.2,1347.0 2477.4,1338.3 2550.1,1327.2  Z" style="stroke-width: 2.0;  stroke: rgb(82,82,82); fill: rgb(253,141,60); opacity: 0.667;" />
<path d="M 2550.126,1327.192 A 1064.250,1064.250 0.00 0,1 2550.7,1330.6 L 2550.7,1330.6 2477.7,1343.5 2408.7,1358.0 2343.5,1373.8 2281.7,1390.7 2223.0,1408.4 2167.3,1426.8 2114.3,1445.7 2063.6,1464.9 2015.1,1484.3 1968.5,1503.9 1923.7,1523.4 1880.3,1542.8 1838.1,1562.0 1797.1,1581.0 1756.9,1599.7 1717.4,1618.1 1678.4,1636.3 1639.7,1654.2 1601.2,1671.8 1562.6,1689.3 1524.0,1706.6 1485.0,1724.0 1445.7,1741.4 1405.8,1758.9 1365.2,1776.8 1323.9,1795.2 1281.7,1814.3 1238.5,1834.1 1194.3,1855.1 1148.9,1877.2 1102.3,1900.9 1054.5,1926.4 1005.3,1953.8 954.8,1983.6 902.8,2016.1 849.4,2051.5 794.6,2090.2 738.2,2132.5 680.4,2178.9  A 1064.250,1064.250 0.00 0,0 682.6,2181.5 L 682.6,2181.5 740.3,2135.0 796.5,2092.4 851.2,2053.6 904.5,2018.0 956.3,1985.4 1006.8,1955.4 1055.9,1927.8 1103.6,1902.2 1150.1,1878.4 1195.4,1856.0 1239.6,1835.0 1282.7,1815.0 1324.8,1795.8 1366.1,1777.3 1406.6,1759.2 1446.5,1741.5 1485.8,1724.0 1524.6,1706.6 1563.2,1689.1 1601.7,1671.5 1640.2,1653.7 1678.8,1635.7 1717.8,1617.4 1757.2,1598.9 1797.3,1580.0 1838.3,1560.9 1880.4,1541.5 1923.7,1522.0 1968.6,1502.4 2015.1,1482.7 2063.5,1463.1 2114.1,1443.7 2167.1,1424.6 2222.7,1406.1 2281.3,1388.2 2343.0,1371.1 2408.2,1355.1 2477.2,1340.4 2550.1,1327.2  Z" style="stroke-width: 2.0;  stroke: rgb(82,82,82); fill: rgb(255,0,0); opacity: 0.667;" />
<path d="M 2550.126,1327.192 A 1064.250,1064.250 0.00 0,1 2550.7,1330.6 L 2550.7,1330.6 2478.4,1342.7 2411.5,1354.9 2349.8,1367.1 2293.0,1379.4 2240.8,1391.7 2193.0,1404.0 2149.3,1416.5 2109.5,1429.0 2073.5,1441.6 2041.0,1454.4 2011.9,1467.3 1986.0,1480.4 1963.2,1493.8 1943.3,1507.4 1926.3,1521.3 1912.1,1535.5 1900.6,1550.1 1891.7,1565.2 1885.4,1580.8 1881.7,1596.9 1880.5,1613.7 1881.9,1631.1 1885.8,1649.3 1892.3,1668.4 1901.4,1688.3 1913.3,1709.2 1927.9,1731.2 1945.4,1754.4 1965.8,1778.8 1989.4,1804.5 2016.2,1831.7 2046.4,1860.5 2080.2,1890.9 2117.8,1923.0 2159.2,1957.0 2204.9,1993.0 2254.9,2031.1 2309.6,2071.4 2369.2,2114.1  A 1064.250,1064.250 0.00 0,0 2371.2,2111.3 L 2371.2,2111.3 2311.4,2068.8 2256.6,2028.7 2206.5,1990.7 2160.7,1954.9 2119.1,1921.0 2081.5,1889.0 2047.6,1858.7 2017.3,1830.1 1990.4,1803.0 1966.7,1777.3 1946.2,1752.9 1928.6,1729.8 1913.9,1707.9 1902.0,1687.0 1892.8,1667.1 1886.3,1648.1 1882.3,1629.9 1880.9,1612.4 1882.0,1595.7 1885.7,1579.5 1891.9,1563.9 1900.8,1548.8 1912.2,1534.2 1926.4,1519.9 1943.3,1505.9 1963.1,1492.3 1985.9,1478.9 2011.7,1465.7 2040.8,1452.7 2073.3,1439.8 2109.3,1427.0 2149.0,1414.4 2192.7,1401.8 2240.5,1389.3 2292.6,1376.8 2349.4,1364.4 2411.1,1352.0 2477.9,1339.6 2550.1,1327.2  Z" style="stroke-width: 2.0;  stroke: rgb(82,82,82); fill: rgb(255,0,204); opacity: 0.667;" />
<path d="M 2550.126,1327.192 A 1064.250,1064.250 0.00 0,1 2550.7,1330.6 L 2550.7,1330.6 2478.3,1341.9 2411.2,1351.7 2349.1,1360.0 2291.8,1366.9 2238.9,1372.5 2190.3,1376.8 2145.8,1379.9 2105.0,1381.9 2068.0,1382.7 2034.4,1382.4 2004.2,1381.0 1977.1,1378.6 1953.1,1375.1 1931.9,1370.5 1913.6,1364.9 1898.1,1358.3 1885.1,1350.5 1874.8,1341.7 1866.9,1331.7 1861.6,1320.6 1858.8,1308.2 1858.4,1294.6 1860.6,1279.7 1865.2,1263.4 1872.3,1245.6 1882.1,1226.3 1894.5,1205.4 1909.6,1182.9 1927.6,1158.5 1948.4,1132.2 1972.4,1103.9 1999.5,1073.5 2029.9,1040.8 2063.8,1005.7 2101.4,968.2 2142.9,927.9 2188.4,884.9 2238.2,838.8 2292.5,789.7  A 1064.250,1064.250 0.00 0,0 2290.2,787.1 L 2290.2,787.1 2236.1,836.5 2186.4,882.6 2141.0,925.8 2099.7,966.2 2062.2,1003.9 2028.4,1039.1 1998.1,1071.8 1971.1,1102.4 1947.2,1130.7 1926.5,1157.1 1908.6,1181.5 1893.5,1204.2 1881.2,1225.1 1871.5,1244.4 1864.4,1262.2 1859.8,1278.5 1857.8,1293.4 1858.2,1307.1 1861.1,1319.4 1866.4,1330.5 1874.3,1340.5 1884.6,1349.3 1897.6,1357.0 1913.2,1363.6 1931.5,1369.1 1952.7,1373.6 1976.7,1377.0 2003.8,1379.4 2034.1,1380.7 2067.6,1380.9 2104.7,1379.9 2145.4,1377.9 2189.9,1374.6 2238.5,1370.1 2291.3,1364.4 2348.7,1357.2 2410.7,1348.7 2477.8,1338.7 2550.1,1327.2  Z" style="stroke-width: 2.0;  stroke: rgb(82,82,82); fill: rgb(255,204,204); opacity: 0.667;" />
<path d="M 2550.126,1327.192 A 1064.250,1064.250 0.00 0,1 2550.7,1330.6 L 2550.7,1330.6 2478.3,1342.0 2411.3,1351.9 2349.4,1360.5 2292.2,1367.9 2239.6,1374.0 2191.4,1378.9 2147.2,1382.7 2106.9,1385.4 2070.4,1387.1 2037.5,1387.8 2007.9,1387.4 1981.5,1386.1 1958.3,1383.8 1938.1,1380.6 1920.8,1376.3 1906.3,1371.2 1894.6,1365.0 1885.5,1357.8 1879.1,1349.6 1875.3,1340.4 1874.1,1330.1 1875.5,1318.6 1879.6,1306.0 1886.2,1292.1 1895.6,1276.9 1907.6,1260.4 1922.5,1242.5 1940.3,1223.0 1961.1,1202.0 1985.0,1179.3 2012.2,1154.8 2042.7,1128.4 2076.8,1100.1 2114.6,1069.7 2156.3,1037.0 2202.1,1002.1 2252.2,964.6 2306.9,924.6 2366.3,881.8  A 1064.250,1064.250 0.00 0,0 2364.3,879.0 L 2364.3,879.0 2305.0,922.0 2250.5,962.2 2200.5,999.8 2154.8,1034.9 2113.2,1067.7 2075.5,1098.2 2041.5,1126.7 2011.1,1153.1 1984.0,1177.7 1960.2,1200.5 1939.4,1221.6 1921.7,1241.1 1906.9,1259.1 1894.8,1275.7 1885.5,1290.8 1878.9,1304.7 1874.9,1317.4 1873.6,1328.9 1874.8,1339.2 1878.6,1348.4 1885.1,1356.6 1894.2,1363.7 1905.9,1369.8 1920.4,1375.0 1937.7,1379.1 1958.0,1382.3 1981.2,1384.5 2007.5,1385.8 2037.1,1386.0 2070.1,1385.3 2106.6,1383.5 2146.8,1380.6 2191.0,1376.7 2239.2,1371.6 2291.8,1365.3 2348.9,1357.8 2410.8,1349.0 2477.8,1338.8 2550.1,1327.2  Z" style="stroke-width: 2.0;  stroke: rgb(82,82,82); fill: rgb(255,153,0); opacity: 0.667;" />
<path d="M 2550.126,1327.192 A 1064.250,1064.250 0.00 0,1 2550.7,1330.6 L 2550.7,1330.6 2478.4,1342.1 2411.5,1352.4 2349.8,1361.6 2292.9,1369.8 2240.8,1376.9 2193.0,1383.1 2149.4,1388.3 2109.9,1392.7 2074.2,1396.2 2042.1,1398.8 2013.6,1400.7 1988.4,1401.7 1966.5,1402.0 1947.7,1401.5 1931.9,1400.2 1919.1,1398.2 1909.2,1395.4 1902.1,1391.9 1897.8,1387.6 1896.3,1382.4 1897.6,1376.5 1901.7,1369.7 1908.6,1362.1 1918.4,1353.5 1931.0,1344.0 1946.7,1333.5 1965.3,1322.1 1987.2,1309.5 2012.3,1295.8 2040.8,1280.9 2072.9,1264.8 2108.6,1247.3 2148.2,1228.5 2191.9,1208.1 2239.8,1186.3 2292.2,1162.8 2349.3,1137.6 2411.3,1110.6 2478.6,1081.7  A 1064.250,1064.250 0.00 0,0 2477.2,1078.5 L 2477.2,1078.5 2410.1,1107.7 2348.1,1134.9 2291.1,1160.3 2238.8,1183.9 2190.9,1205.9 2147.3,1226.4 2107.8,1245.3 2072.1,1262.9 2040.1,1279.2 2011.6,1294.1 1986.6,1307.9 1964.8,1320.6 1946.1,1332.1 1930.5,1342.6 1917.9,1352.2 1908.2,1360.7 1901.3,1368.4 1897.2,1375.2 1896.0,1381.2 1897.5,1386.3 1901.7,1390.6 1908.8,1394.1 1918.8,1396.9 1931.6,1398.8 1947.3,1400.0 1966.2,1400.5 1988.1,1400.1 2013.3,1399.0 2041.8,1397.1 2073.9,1394.3 2109.6,1390.7 2149.1,1386.2 2192.6,1380.9 2240.4,1374.5 2292.5,1367.2 2349.3,1358.9 2411.0,1349.5 2477.9,1338.9 2550.1,1327.2  Z" style="stroke-width: 2.0;  stroke: rgb(82,82,82); fill: rgb(255,204,0); opacity: 0.667;" />
<path d="M 2550.126,1327.192 A 1064.250,1064.250 0.00 0,1 2550.7,1330.6 L 2550.7,1330.6 2478.4,1342.1 2411.5,1352.5 2349.9,1361.9 2293.1,1370.3 2241.0,1377.7 2193.3,1384.2 2149.9,1389.9 2110.5,1394.7 2075.0,1398.6 2043.1,1401.9 2014.8,1404.3 1989.8,1406.0 1968.1,1407.0 1949.6,1407.3 1934.1,1406.8 1921.7,1405.7 1912.1,1403.9 1905.4,1401.4 1901.6,1398.1 1900.6,1394.2 1902.3,1389.5 1907.0,1384.0 1914.4,1377.8 1924.8,1370.7 1938.1,1362.8 1954.4,1354.1 1973.9,1344.4 1996.5,1333.8 2022.5,1322.2 2051.9,1309.5 2084.9,1295.8 2121.7,1280.8 2162.4,1264.7 2207.2,1247.3 2256.4,1228.5 2310.1,1208.2 2368.5,1186.5 2432.0,1163.2 2500.9,1138.2  A 1064.250,1064.250 0.00 0,0 2499.7,1135.0 L 2499.7,1135.0 2431.0,1160.2 2367.5,1183.7 2309.1,1205.7 2255.5,1226.1 2206.4,1245.0 2161.6,1262.6 2121.0,1278.9 2084.3,1293.9 2051.3,1307.8 2021.9,1320.5 1996.0,1332.2 1973.4,1342.9 1954.0,1352.6 1937.7,1361.4 1924.4,1369.4 1914.0,1376.4 1906.6,1382.7 1902.0,1388.2 1900.2,1392.9 1901.3,1396.8 1905.1,1400.1 1911.8,1402.6 1921.4,1404.4 1933.8,1405.5 1949.3,1405.8 1967.8,1405.5 1989.5,1404.4 2014.5,1402.6 2042.8,1400.1 2074.6,1396.8 2110.2,1392.7 2149.6,1387.8 2193.0,1382.0 2240.6,1375.3 2292.7,1367.7 2349.4,1359.2 2411.1,1349.6 2477.9,1339.0 2550.1,1327.2  Z" style="stroke-width: 2.0;  stroke: rgb(82,82,82); fill: rgb(255,255,0); opacity: 0.667;" />
<path d="M 2550.126,1327.192 A 1064.250,1064.250 0.00 0,1 2550.7,1330.6 L 2550.7,1330.6 2478.4,1342.2 2411.6,1353.0 2350.1,1362.9 2293.5,1372.0 2241.6,1380.3 2194.2,1387.9 2151.0,1394.8 2112.0,1401.0 2076.8,1406.6 2045.4,1411.6 2017.5,1416.0 1993.1,1419.8 1972.0,1423.1 1954.0,1425.9 1939.3,1428.1 1927.5,1429.9 1918.8,1431.1 1912.9,1431.9 1910.0,1432.2 1910.0,1432.0 1912.8,1431.4 1918.6,1430.2 1927.3,1428.6 1939.0,1426.5 1953.7,1423.9 1971.6,1420.7 1992.6,1417.0 2017.0,1412.8 2044.8,1408.0 2076.1,1402.5 2111.2,1396.5 2150.2,1389.8 2193.3,1382.4 2240.6,1374.4 2292.4,1365.5 2348.9,1355.9 2410.4,1345.4 2477.1,1334.1 2549.2,1321.8  A 1064.250,1064.250 0.00 0,0 2548.6,1318.4 L 2548.6,1318.4 2476.5,1330.9 2409.9,1342.5 2348.4,1353.1 2292.0,1363.0 2240.2,1372.0 2192.9,1380.2 2149.8,1387.7 2110.9,1394.5 2075.8,1400.7 2044.5,1406.2 2016.7,1411.1 1992.3,1415.4 1971.3,1419.2 1953.5,1422.4 1938.8,1425.1 1927.1,1427.2 1918.4,1428.9 1912.6,1430.1 1909.8,1430.7 1909.8,1430.9 1912.7,1430.6 1918.5,1429.8 1927.3,1428.5 1939.0,1426.7 1953.8,1424.4 1971.7,1421.6 1992.8,1418.2 2017.2,1414.3 2045.1,1409.8 2076.5,1404.7 2111.6,1399.0 2150.7,1392.7 2193.8,1385.7 2241.2,1377.9 2293.0,1369.4 2349.6,1360.1 2411.2,1350.0 2477.9,1339.1 2550.1,1327.2  Z" style="stroke-width: 2.0;  stroke: rgb(82,82,82); fill: rgb(204,255,0); opacity: 0.667;" />
<path d="M 2487.158,1897.677 A 1064.250,1064.250 0.00 0,1 2486.0,1900.6 L 2486.0,1900.6 2418.2,1873.1 2355.5,1847.6 2297.7,1824.2 2244.6,1802.6 2195.8,1782.9 2151.3,1764.9 2110.8,1748.6 2074.1,1733.8 2041.1,1720.5 2011.6,1708.6 1985.4,1698.1 1962.4,1689.0 1942.6,1681.1 1925.7,1674.4 1911.8,1669.0 1900.7,1664.7 1892.4,1661.6 1886.9,1659.6 1884.1,1658.8 1884.0,1659.0 1886.6,1660.4 1891.9,1662.9 1899.9,1666.5 1910.8,1671.3 1924.5,1677.3 1941.1,1684.5 1960.8,1693.0 1983.5,1702.7 2009.4,1713.8 2038.7,1726.3 2071.5,1740.2 2107.9,1755.7 2148.1,1772.7 2192.3,1791.4 2240.7,1811.9 2293.6,1834.2 2351.0,1858.4 2413.3,1884.7 2480.8,1913.1  A 1064.250,1064.250 0.00 0,0 2482.0,1910.2 L 2482.0,1910.2 2414.5,1882.0 2352.1,1855.9 2294.5,1831.8 2241.7,1809.7 2193.2,1789.4 2148.9,1770.8 2108.6,1753.9 2072.2,1738.5 2039.4,1724.7 2010.1,1712.3 1984.1,1701.3 1961.3,1691.6 1941.7,1683.2 1925.0,1676.1 1911.3,1670.1 1900.4,1665.4 1892.4,1661.7 1887.0,1659.2 1884.4,1657.9 1884.5,1657.6 1887.3,1658.5 1892.9,1660.4 1901.2,1663.5 1912.3,1667.8 1926.2,1673.2 1943.1,1679.8 1963.0,1687.6 1986.0,1696.7 2012.2,1707.1 2041.8,1718.9 2074.8,1732.1 2111.6,1746.8 2152.1,1763.0 2196.7,1780.9 2245.5,1800.4 2298.7,1821.8 2356.5,1845.1 2419.3,1870.3 2487.2,1897.7  Z" style="stroke-width: 2.0;  stroke: rgb(82,82,82); fill: rgb(0,255,0); opacity: 0.667;" />
<path d="M 2500.782,1862.027 A 1064.250,1064.250 0.00 0,1 2499.7,1865.0 L 2499.7,1865.0 2430.9,1839.9 2367.4,1816.8 2308.7,1795.6 2254.8,1776.1 2205.4,1758.3 2160.1,1742.1 2119.0,1727.5 2081.7,1714.3 2048.1,1702.5 2018.0,1692.0 1991.3,1682.8 1967.9,1674.9 1947.6,1668.2 1930.3,1662.6 1916.0,1658.2 1904.5,1654.9 1895.9,1652.7 1890.0,1651.5 1886.9,1651.4 1886.5,1652.4 1888.9,1654.5 1893.9,1657.6 1901.8,1661.9 1912.4,1667.2 1925.9,1673.8 1942.4,1681.4 1961.8,1690.3 1984.4,1700.5 2010.2,1711.9 2039.3,1724.8 2072.0,1739.0 2108.3,1754.7 2148.4,1772.0 2192.5,1790.9 2240.9,1811.6 2293.6,1834.0 2351.0,1858.3 2413.3,1884.7 2480.8,1913.1  A 1064.250,1064.250 0.00 0,0 2482.0,1910.2 L 2482.0,1910.2 2414.5,1882.0 2352.1,1855.8 2294.6,1831.7 2241.8,1809.4 2193.4,1788.9 2149.2,1770.1 2109.0,1752.9 2072.7,1737.3 2040.0,1723.2 2010.8,1710.4 1985.0,1699.1 1962.4,1689.0 1942.9,1680.1 1926.4,1672.5 1912.9,1666.0 1902.2,1660.7 1894.4,1656.5 1889.3,1653.3 1887.0,1651.3 1887.4,1650.3 1890.5,1650.4 1896.3,1651.5 1905.0,1653.7 1916.4,1657.0 1930.8,1661.4 1948.0,1666.9 1968.4,1673.5 1991.8,1681.4 2018.6,1690.5 2048.7,1700.8 2082.3,1712.5 2119.7,1725.6 2160.9,1740.1 2206.1,1756.2 2255.6,1773.8 2309.6,1793.2 2368.3,1814.2 2431.9,1837.2 2500.8,1862.0  Z" style="stroke-width: 2.0;  stroke: rgb(82,82,82); fill: rgb(53,128,0); opacity: 0.667;" />
<path d="M 2500.782,1862.027 A 1064.250,1064.250 0.00 0,1 2499.7,1865.0 L 2499.7,1865.0 2430.9,1839.9 2367.4,1816.8 2308.8,1795.5 2254.9,1776.0 2205.4,1758.1 2160.2,1741.9 2119.1,1727.1 2081.9,1713.8 2048.3,1701.9 2018.3,1691.4 1991.6,1682.1 1968.2,1674.0 1948.0,1667.1 1930.8,1661.4 1916.5,1656.8 1905.2,1653.2 1896.6,1650.8 1890.9,1649.4 1887.9,1649.1 1887.6,1649.9 1890.0,1651.6 1895.2,1654.5 1903.2,1658.4 1914.0,1663.4 1927.6,1669.6 1944.2,1676.9 1963.8,1685.4 1986.6,1695.1 2012.6,1706.1 2041.9,1718.4 2074.8,1732.1 2111.3,1747.3 2151.7,1764.0 2196.1,1782.3 2244.7,1802.2 2297.8,1823.9 2355.5,1847.5 2418.2,1873.0 2486.0,1900.6  A 1064.250,1064.250 0.00 0,0 2487.2,1897.7 L 2487.2,1897.7 2419.3,1870.3 2356.6,1845.0 2298.8,1821.6 2245.6,1800.0 2196.9,1780.2 2152.5,1762.0 2112.1,1745.5 2075.5,1730.4 2042.6,1716.8 2013.2,1704.6 1987.2,1693.7 1964.4,1684.0 1944.7,1675.6 1928.1,1668.3 1914.5,1662.2 1903.7,1657.2 1895.7,1653.3 1890.5,1650.5 1888.0,1648.7 1888.3,1648.0 1891.3,1648.3 1897.1,1649.6 1905.6,1652.0 1917.0,1655.5 1931.3,1660.1 1948.5,1665.8 1968.7,1672.6 1992.2,1680.6 2018.8,1689.8 2048.9,1700.3 2082.5,1712.1 2119.8,1725.3 2161.0,1739.9 2206.2,1756.0 2255.7,1773.7 2309.6,1793.1 2368.3,1814.2 2431.9,1837.1 2500.8,1862.0  Z" style="stroke-width: 2.0;  stroke: rgb(82,82,82); fill: rgb(0,0,204); opacity: 0.667;" />
<path d="M 1740.003,463.165 A 1064.250,1064.250 0.00 0,1 1755.6,466.9 L 1755.6,466.9 1738.1,538.0 1722.4,603.8 1708.1,664.6 1695.4,720.6 1684.1,772.1 1674.1,819.2 1665.5,862.2 1658.0,901.4 1651.8,936.7 1646.7,968.6 1642.8,997.0 1639.9,1022.1 1638.1,1044.1 1637.3,1063.0 1637.6,1079.0 1638.9,1092.1 1641.2,1102.4 1644.5,1110.0 1648.9,1114.8 1654.3,1116.9 1660.8,1116.4 1668.4,1113.1 1677.1,1107.2 1687.0,1098.5 1698.1,1087.0 1710.4,1072.6 1724.1,1055.3 1739.2,1035.0 1755.7,1011.6 1773.7,984.8 1793.3,954.7 1814.6,921.1 1837.7,883.7 1862.6,842.5 1889.4,797.2 1918.4,747.5 1949.5,693.4 1982.9,634.6 2018.8,570.7  A 1064.250,1064.250 0.00 0,0 2003.4,562.3 L 2003.4,562.3 1968.6,626.8 1936.2,686.2 1906.0,740.8 1877.9,790.9 1851.7,836.6 1827.5,878.3 1805.1,916.0 1784.4,950.0 1765.3,980.4 1747.7,1007.4 1731.6,1031.2 1716.9,1051.7 1703.5,1069.3 1691.4,1083.8 1680.5,1095.5 1670.8,1104.4 1662.2,1110.5 1654.7,1113.9 1648.2,1114.5 1642.8,1112.5 1638.4,1107.7 1635.0,1100.2 1632.5,1090.0 1631.1,1076.9 1630.6,1060.9 1631.1,1042.0 1632.6,1020.0 1635.1,994.8 1638.7,966.4 1643.3,934.5 1649.0,899.0 1655.8,859.8 1663.9,816.6 1673.1,769.4 1683.7,717.7 1695.6,661.6 1708.9,600.6 1723.7,534.5 1740.0,463.2  Z" style="stroke-width: 2.0;  stroke: rgb(82,82,82); fill: rgb(102,153,255); opacity: 0.667;" />
<path d="M 2105.012,624.449 A 1064.250,1064.250 0.00 0,1 2107.0,625.8 L 2107.0,625.8 2065.5,686.2 2027.7,742.5 1993.4,795.0 1962.4,843.8 1934.6,889.1 1909.8,931.2 1887.8,970.1 1868.5,1006.1 1851.9,1039.4 1837.8,1070.0 1826.0,1098.1 1816.7,1123.8 1809.6,1147.2 1804.7,1168.5 1802.0,1187.8 1801.4,1205.0 1802.9,1220.4 1806.6,1234.0 1812.4,1245.7 1820.3,1255.8 1830.4,1264.2 1842.7,1270.9 1857.3,1276.0 1874.2,1279.5 1893.6,1281.3 1915.4,1281.6 1939.9,1280.1 1967.1,1277.0 1997.1,1272.2 2030.2,1265.6 2066.4,1257.2 2105.9,1246.9 2148.9,1234.7 2195.6,1220.4 2246.2,1203.9 2300.9,1185.2 2359.9,1164.1 2423.5,1140.6 2491.9,1114.3  A 1064.250,1064.250 0.00 0,0 2491.0,1112.1 L 2491.0,1112.1 2422.7,1138.4 2359.1,1162.2 2300.2,1183.4 2245.5,1202.2 2195.0,1218.8 2148.3,1233.2 2105.3,1245.6 2065.8,1255.9 2029.6,1264.4 1996.6,1271.1 1966.5,1276.0 1939.4,1279.1 1914.9,1280.6 1893.0,1280.4 1873.7,1278.6 1856.8,1275.2 1842.2,1270.1 1829.8,1263.4 1819.7,1255.1 1811.8,1245.0 1806.0,1233.3 1802.3,1219.7 1800.7,1204.3 1801.2,1187.1 1803.9,1167.8 1808.8,1146.5 1815.8,1123.1 1825.1,1097.3 1836.8,1069.2 1850.8,1038.6 1867.4,1005.3 1886.6,969.2 1908.5,930.2 1933.2,888.1 1960.9,842.7 1991.8,793.9 2026.0,741.3 2063.7,684.9 2105.0,624.4  Z" style="stroke-width: 2.0;  stroke: rgb(82,82,82); fill: rgb(153,204,255); opacity: 0.667;" />
<path d="M 1417.505,438.952 A 1064.250,1064.250 0.00 0,1 1420.8,438.7 L 1420.8,438.7 1426.7,511.8 1433.1,579.4 1440.0,641.9 1447.4,699.6 1455.2,752.6 1463.4,801.3 1472.0,845.9 1481.0,886.6 1490.5,923.5 1500.4,956.9 1510.7,987.0 1521.5,1013.9 1532.7,1037.7 1544.5,1058.6 1556.8,1076.6 1569.7,1091.9 1583.2,1104.6 1597.4,1114.6 1612.2,1122.1 1627.9,1127.1 1644.4,1129.6 1661.7,1129.7 1680.1,1127.2 1699.4,1122.2 1719.9,1114.7 1741.6,1104.5 1764.6,1091.7 1789.0,1076.0 1814.9,1057.5 1842.3,1036.0 1871.5,1011.4 1902.4,983.6 1935.3,952.3 1970.3,917.4 2007.4,878.7 2046.8,836.0 2088.7,789.1 2133.2,737.7 2180.4,681.7  A 1064.250,1064.250 0.00 0,0 2177.9,679.6 L 2177.9,679.6 2130.8,735.8 2086.5,787.3 2044.8,834.3 2005.5,877.1 1968.5,915.9 1933.6,950.9 1900.8,982.3 1869.9,1010.3 1840.9,1035.0 1813.5,1056.6 1787.7,1075.1 1763.3,1090.8 1740.4,1103.8 1718.7,1114.0 1698.3,1121.6 1678.9,1126.7 1660.6,1129.2 1643.2,1129.2 1626.7,1126.7 1611.1,1121.8 1596.2,1114.3 1582.0,1104.3 1568.4,1091.7 1555.5,1076.4 1543.1,1058.4 1531.3,1037.6 1520.0,1013.8 1509.1,987.0 1498.7,956.9 1488.7,923.5 1479.1,886.6 1470.0,846.0 1461.2,801.4 1452.8,752.7 1444.9,699.7 1437.4,642.1 1430.3,579.6 1423.7,512.0 1417.5,439.0  Z" style="stroke-width: 2.0;  stroke: rgb(82,82,82); fill: rgb(0,255,255); opacity: 0.667;" />
</g>
<defs>
<pattern id="hline-sparse" width="10" height="10" patternTransform="rotate(0 0 0)" patternUnits="userSpaceOnUse"><line x1="0" y1="0" x2="10" y2="0" style="stroke:black;stroke-width:2" /></pattern>
<pattern id="checker" width="10" height="10" patternTransform="rotate(45 0 0)" patternUnits="userSpaceOnUse"><line x1="0" y1="0" x2="10" y2="0" style="stroke:black;stroke-width:2" /><line x1="0" y1="0" x2="0" y2="10" style="stroke:black;stroke-width:2" /></pattern>
<pattern id="checker" width="10" height="10" patternTransform="rotate(45 0 0)" patternUnits="userSpaceOnUse"><line x1="0" y1="0" x2="10" y2="0" style="stroke:black;stroke-width:5" /><line x1="0" y1="0" x2="0" y2="10" style="stroke:black;stroke-width:4" /></pattern>
<pattern id="hline" width="10" height="10" patternTransform="rotate(0 0 0)" patternUnits="userSpaceOnUse"><line x1="0" y1="0" x2="10" y2="0" style="stroke:black;stroke-width:5" /></pattern>
<pattern id="vline-sparse" width="10" height="10" patternTransform="rotate(0 0 0)" patternUnits="userSpaceOnUse"><line x1="0" y1="0" x2="0" y2="10" style="stroke:black;stroke-width:2" /></pattern>
<pattern id="vline" width="10" height="10" patternTransform="rotate(0 0 0)" patternUnits="userSpaceOnUse"><line x1="0" y1="0" x2="0" y2="10" style="stroke:black;stroke-width:5" /></pattern>
</defs>
</svg>
