<?xml version="1.0" encoding="utf-8" standalone="no"?>
<!DOCTYPE svg PUBLIC "-//W3C//DTD SVG 1.1//EN" "http://www.w3.org/Graphics/SVG/1.1/DTD/svg11.dtd">
<svg width="3000px" height="3000px" version="1.1" xmlns="http://www.w3.org/2000/svg" xmlns:xlink="http://www.w3.org/1999/xlink">
<g id="ideograms">
<path d="M1500.000,425.000 A1075.000,1075.000 40.000 0,1 1531.772,425.470 L1533.249,375.491 A1125.000,1125.000 0.000 0,0 1500.000,375.000 Z" style="stroke-linecap:round;fill:rgb(116,196,118);fill-opacity:0.33;" />
<text x="1527.5" y="285.3" font-size="18.2px" font-family="CMUBright-Roman" style="text-anchor:start;fill:rgb(0,0,0);" transform="rotate(270.8,1527.5,285.3)" >R<tspan baseline-shift="-40%" font-size="90%">s</tspan>caffold<tspan baseline-shift="-40%" font-size="90%">1</tspan>5</text>
<line x1='1500.0' y1='375.0' x2='1500.0' y2='355.0' style="stroke-width:4.0;stroke:rgb(0,0,0);stroke-linecap:round;fill:none;" />
<text x="1506.5" y="345.0" font-size="18.2px" font-family="CMUBright-Roman" style="text-anchor:start;fill:rgb(0,0,0);" transform="rotate(270.0,1506.5,345.0)" >0</text>
<g id="highlighttrack_0">
<path d="M1522.864,425.243 A1075.000,1075.000 40.000 0,1 1528.576,425.380 L1529.905,375.398 A1125.000,1125.000 0.000 0,0 1523.927,375.254 Z" style="stroke-width:4.0;stroke:rgb(0,0,0);stroke-linecap:round;fill:rgb(116,196,118);" />
</g>
<path d="M1597.220,429.405 A1075.000,1075.000 40.000 0,1 1601.035,429.759 L1605.735,379.980 A1125.000,1125.000 0.000 0,0 1601.742,379.610 Z" style="stroke-linecap:round;fill:rgb(116,196,118);fill-opacity:0.33;" />
<text x="1621.5" y="291.1" font-size="18.2px" font-family="CMUBright-Roman" style="text-anchor:start;fill:rgb(0,0,0);" transform="rotate(275.3,1621.5,291.1)" >R<tspan baseline-shift="-40%" font-size="90%">s</tspan>caffold<tspan baseline-shift="-40%" font-size="90%">1</tspan>7</text>
<line x1='1601.7' y1='379.6' x2='1603.6' y2='359.7' style="stroke-width:4.0;stroke:rgb(0,0,0);stroke-linecap:round;fill:none;" />
<text x="1610.9" y="350.3" font-size="18.2px" font-family="CMUBright-Roman" style="text-anchor:start;fill:rgb(0,0,0);" transform="rotate(275.2,1610.9,350.3)" >0</text>
<g id="highlighttrack_0">
<path d="M1597.245,429.407 A1075.000,1075.000 40.000 0,1 1600.970,429.752 L1605.666,379.973 A1125.000,1125.000 0.000 0,0 1601.768,379.612 Z" style="stroke-width:4.0;stroke:rgb(0,0,0);stroke-linecap:round;fill:rgb(116,196,118);" />
</g>
<path d="M1666.094,437.909 A1075.000,1075.000 40.000 1,1 1434.464,427.000 L1431.416,377.093 A1125.000,1125.000 0.000 1,0 1673.819,388.509 Z" style="stroke-linecap:round;fill:rgb(116,196,118);fill-opacity:0.33;" />
<text x="1452.3" y="2714.1" font-size="18.2px" font-family="CMUBright-Roman" style="text-anchor:end;fill:rgb(0,0,0);" transform="rotate(-87.3,1452.3,2714.1)" >NZ<tspan baseline-shift="-40%" font-size="90%">C</tspan>P020472.1</text>
<line x1='1673.8' y1='388.5' x2='1676.9' y2='368.7' style="stroke-width:4.0;stroke:rgb(0,0,0);stroke-linecap:round;fill:none;" />
<text x="1684.9" y="359.9" font-size="18.2px" font-family="CMUBright-Roman" style="text-anchor:start;fill:rgb(0,0,0);" transform="rotate(278.9,1684.9,359.9)" >0</text>
<line x1='1741.2' y1='401.2' x2='1745.5' y2='381.6' style="stroke-width:4.0;stroke:rgb(0,0,0);stroke-linecap:round;fill:none;" />
<text x="1754.0" y="373.3" font-size="18.2px" font-family="CMUBright-Roman" style="text-anchor:start;fill:rgb(0,0,0);" transform="rotate(282.4,1754.0,373.3)" >50</text>
<line x1='1807.7' y1='417.9' x2='1813.2' y2='398.7' style="stroke-width:4.0;stroke:rgb(0,0,0);stroke-linecap:round;fill:none;" />
<text x="1822.2" y="390.8" font-size="18.2px" font-family="CMUBright-Roman" style="text-anchor:start;fill:rgb(0,0,0);" transform="rotate(285.9,1822.2,390.8)" >100</text>
<line x1='1873.1' y1='438.7' x2='1879.7' y2='419.8' style="stroke-width:4.0;stroke:rgb(0,0,0);stroke-linecap:round;fill:none;" />
<text x="1889.2" y="412.5" font-size="18.2px" font-family="CMUBright-Roman" style="text-anchor:start;fill:rgb(0,0,0);" transform="rotate(289.4,1889.2,412.5)" >150</text>
<line x1='1937.1' y1='463.4' x2='1944.8' y2='444.9' style="stroke-width:4.0;stroke:rgb(0,0,0);stroke-linecap:round;fill:none;" />
<text x="1954.7" y="438.3" font-size="18.2px" font-family="CMUBright-Roman" style="text-anchor:start;fill:rgb(0,0,0);" transform="rotate(292.9,1954.7,438.3)" >200</text>
<line x1='1999.4' y1='491.9' x2='2008.3' y2='474.0' style="stroke-width:4.0;stroke:rgb(0,0,0);stroke-linecap:round;fill:none;" />
<text x="2018.5" y="467.9" font-size="18.2px" font-family="CMUBright-Roman" style="text-anchor:start;fill:rgb(0,0,0);" transform="rotate(296.4,2018.5,467.9)" >250</text>
<line x1='2059.9' y1='524.2' x2='2069.9' y2='506.9' style="stroke-width:4.0;stroke:rgb(0,0,0);stroke-linecap:round;fill:none;" />
<text x="2080.5" y="501.5" font-size="18.2px" font-family="CMUBright-Roman" style="text-anchor:start;fill:rgb(0,0,0);" transform="rotate(299.8,2080.5,501.5)" >300</text>
<line x1='2118.3' y1='560.2' x2='2129.3' y2='543.4' style="stroke-width:4.0;stroke:rgb(0,0,0);stroke-linecap:round;fill:none;" />
<text x="2140.2" y="538.7" font-size="18.2px" font-family="CMUBright-Roman" style="text-anchor:start;fill:rgb(0,0,0);" transform="rotate(303.3,2140.2,538.7)" >350</text>
<line x1='2174.4' y1='599.6' x2='2186.4' y2='583.6' style="stroke-width:4.0;stroke:rgb(0,0,0);stroke-linecap:round;fill:none;" />
<text x="2197.6" y="579.5" font-size="18.2px" font-family="CMUBright-Roman" style="text-anchor:start;fill:rgb(0,0,0);" transform="rotate(306.8,2197.6,579.5)" >400</text>
<line x1='2228.0' y1='642.3' x2='2241.0' y2='627.1' style="stroke-width:4.0;stroke:rgb(0,0,0);stroke-linecap:round;fill:none;" />
<text x="2252.4" y="623.7" font-size="18.2px" font-family="CMUBright-Roman" style="text-anchor:start;fill:rgb(0,0,0);" transform="rotate(310.3,2252.4,623.7)" >450</text>
<line x1='2278.9' y1='688.3' x2='2292.8' y2='673.9' style="stroke-width:4.0;stroke:rgb(0,0,0);stroke-linecap:round;fill:none;" />
<text x="2304.4" y="671.2" font-size="18.2px" font-family="CMUBright-Roman" style="text-anchor:start;fill:rgb(0,0,0);" transform="rotate(313.8,2304.4,671.2)" >500</text>
<line x1='2327.0' y1='737.3' x2='2341.7' y2='723.7' style="stroke-width:4.0;stroke:rgb(0,0,0);stroke-linecap:round;fill:none;" />
<text x="2353.4" y="721.7" font-size="18.2px" font-family="CMUBright-Roman" style="text-anchor:start;fill:rgb(0,0,0);" transform="rotate(317.3,2353.4,721.7)" >550</text>
<line x1='2371.9' y1='789.1' x2='2387.4' y2='776.4' style="stroke-width:4.0;stroke:rgb(0,0,0);stroke-linecap:round;fill:none;" />
<text x="2399.2" y="775.1" font-size="18.2px" font-family="CMUBright-Roman" style="text-anchor:start;fill:rgb(0,0,0);" transform="rotate(320.8,2399.2,775.1)" >600</text>
<line x1='2413.6' y1='843.5' x2='2429.8' y2='831.8' style="stroke-width:4.0;stroke:rgb(0,0,0);stroke-linecap:round;fill:none;" />
<text x="2441.7" y="831.3" font-size="18.2px" font-family="CMUBright-Roman" style="text-anchor:start;fill:rgb(0,0,0);" transform="rotate(324.3,2441.7,831.3)" >650</text>
<line x1='2451.9' y1='900.4' x2='2468.8' y2='889.7' style="stroke-width:4.0;stroke:rgb(0,0,0);stroke-linecap:round;fill:none;" />
<text x="2480.7" y="889.9" font-size="18.2px" font-family="CMUBright-Roman" style="text-anchor:start;fill:rgb(0,0,0);" transform="rotate(327.8,2480.7,889.9)" >700</text>
<line x1='2486.7' y1='959.5' x2='2504.2' y2='949.9' style="stroke-width:4.0;stroke:rgb(0,0,0);stroke-linecap:round;fill:none;" />
<text x="2516.1" y="950.8" font-size="18.2px" font-family="CMUBright-Roman" style="text-anchor:start;fill:rgb(0,0,0);" transform="rotate(331.3,2516.1,950.8)" >750</text>
<line x1='2517.8' y1='1020.6' x2='2535.8' y2='1012.1' style="stroke-width:4.0;stroke:rgb(0,0,0);stroke-linecap:round;fill:none;" />
<text x="2547.6" y="1013.7" font-size="18.2px" font-family="CMUBright-Roman" style="text-anchor:start;fill:rgb(0,0,0);" transform="rotate(334.8,2547.6,1013.7)" >800</text>
<line x1='2545.1' y1='1083.5' x2='2563.6' y2='1076.1' style="stroke-width:4.0;stroke:rgb(0,0,0);stroke-linecap:round;fill:none;" />
<text x="2575.3" y="1078.5" font-size="18.2px" font-family="CMUBright-Roman" style="text-anchor:start;fill:rgb(0,0,0);" transform="rotate(338.3,2575.3,1078.5)" >850</text>
<line x1='2568.5' y1='1148.0' x2='2587.5' y2='1141.7' style="stroke-width:4.0;stroke:rgb(0,0,0);stroke-linecap:round;fill:none;" />
<text x="2599.0" y="1144.8" font-size="18.2px" font-family="CMUBright-Roman" style="text-anchor:start;fill:rgb(0,0,0);" transform="rotate(341.8,2599.0,1144.8)" >900</text>
<line x1='2588.0' y1='1213.7' x2='2607.3' y2='1208.6' style="stroke-width:4.0;stroke:rgb(0,0,0);stroke-linecap:round;fill:none;" />
<text x="2618.6" y="1212.4" font-size="18.2px" font-family="CMUBright-Roman" style="text-anchor:start;fill:rgb(0,0,0);" transform="rotate(345.3,2618.6,1212.4)" >950</text>
<line x1='2603.4' y1='1280.5' x2='2623.0' y2='1276.6' style="stroke-width:4.0;stroke:rgb(0,0,0);stroke-linecap:round;fill:none;" />
<text x="2634.1" y="1281.1" font-size="18.2px" font-family="CMUBright-Roman" style="text-anchor:start;fill:rgb(0,0,0);" transform="rotate(348.8,2634.1,1281.1)" >1000</text>
<line x1='2614.7' y1='1348.2' x2='2634.5' y2='1345.5' style="stroke-width:4.0;stroke:rgb(0,0,0);stroke-linecap:round;fill:none;" />
<text x="2645.3" y="1350.6" font-size="18.2px" font-family="CMUBright-Roman" style="text-anchor:start;fill:rgb(0,0,0);" transform="rotate(352.2,2645.3,1350.6)" >1050</text>
<line x1='2621.9' y1='1416.4' x2='2641.8' y2='1414.9' style="stroke-width:4.0;stroke:rgb(0,0,0);stroke-linecap:round;fill:none;" />
<text x="2652.3" y="1420.6" font-size="18.2px" font-family="CMUBright-Roman" style="text-anchor:start;fill:rgb(0,0,0);" transform="rotate(355.7,2652.3,1420.6)" >1100</text>
<line x1='2624.9' y1='1484.9' x2='2644.9' y2='1484.6' style="stroke-width:4.0;stroke:rgb(0,0,0);stroke-linecap:round;fill:none;" />
<text x="2655.0" y="1491.0" font-size="18.2px" font-family="CMUBright-Roman" style="text-anchor:start;fill:rgb(0,0,0);" transform="rotate(359.2,2655.0,1491.0)" >1150</text>
<line x1='2623.7' y1='1553.5' x2='2643.7' y2='1554.4' style="stroke-width:4.0;stroke:rgb(0,0,0);stroke-linecap:round;fill:none;" />
<text x="2653.4" y="1561.4" font-size="18.2px" font-family="CMUBright-Roman" style="text-anchor:start;fill:rgb(0,0,0);" transform="rotate(2.7,2653.4,1561.4)" >1200</text>
<line x1='2618.4' y1='1621.8' x2='2638.3' y2='1624.0' style="stroke-width:4.0;stroke:rgb(0,0,0);stroke-linecap:round;fill:none;" />
<text x="2647.5" y="1631.5" font-size="18.2px" font-family="CMUBright-Roman" style="text-anchor:start;fill:rgb(0,0,0);" transform="rotate(6.2,2647.5,1631.5)" >1250</text>
<line x1='2608.9' y1='1689.7' x2='2628.6' y2='1693.1' style="stroke-width:4.0;stroke:rgb(0,0,0);stroke-linecap:round;fill:none;" />
<text x="2637.3" y="1701.2" font-size="18.2px" font-family="CMUBright-Roman" style="text-anchor:start;fill:rgb(0,0,0);" transform="rotate(9.7,2637.3,1701.2)" >1300</text>
<line x1='2595.3' y1='1757.0' x2='2614.7' y2='1761.5' style="stroke-width:4.0;stroke:rgb(0,0,0);stroke-linecap:round;fill:none;" />
<text x="2623.0" y="1770.1" font-size="18.2px" font-family="CMUBright-Roman" style="text-anchor:start;fill:rgb(0,0,0);" transform="rotate(13.2,2623.0,1770.1)" >1350</text>
<line x1='2577.6' y1='1823.2' x2='2596.7' y2='1829.0' style="stroke-width:4.0;stroke:rgb(0,0,0);stroke-linecap:round;fill:none;" />
<text x="2604.4" y="1838.1" font-size="18.2px" font-family="CMUBright-Roman" style="text-anchor:start;fill:rgb(0,0,0);" transform="rotate(16.7,2604.4,1838.1)" >1400</text>
<line x1='2555.9' y1='1888.3' x2='2574.6' y2='1895.2' style="stroke-width:4.0;stroke:rgb(0,0,0);stroke-linecap:round;fill:none;" />
<text x="2581.8" y="1904.7" font-size="18.2px" font-family="CMUBright-Roman" style="text-anchor:start;fill:rgb(0,0,0);" transform="rotate(20.2,2581.8,1904.7)" >1450</text>
<line x1='2530.3' y1='1951.9' x2='2548.6' y2='1959.9' style="stroke-width:4.0;stroke:rgb(0,0,0);stroke-linecap:round;fill:none;" />
<text x="2555.1" y="1969.9" font-size="18.2px" font-family="CMUBright-Roman" style="text-anchor:start;fill:rgb(0,0,0);" transform="rotate(23.7,2555.1,1969.9)" >1500</text>
<line x1='2500.8' y1='2013.8' x2='2518.6' y2='2023.0' style="stroke-width:4.0;stroke:rgb(0,0,0);stroke-linecap:round;fill:none;" />
<text x="2524.5" y="2033.3" font-size="18.2px" font-family="CMUBright-Roman" style="text-anchor:start;fill:rgb(0,0,0);" transform="rotate(27.2,2524.5,2033.3)" >1550</text>
<line x1='2467.6' y1='2073.8' x2='2484.8' y2='2084.0' style="stroke-width:4.0;stroke:rgb(0,0,0);stroke-linecap:round;fill:none;" />
<text x="2490.1" y="2094.7" font-size="18.2px" font-family="CMUBright-Roman" style="text-anchor:start;fill:rgb(0,0,0);" transform="rotate(30.7,2490.1,2094.7)" >1600</text>
<line x1='2430.9' y1='2131.7' x2='2447.4' y2='2143.0' style="stroke-width:4.0;stroke:rgb(0,0,0);stroke-linecap:round;fill:none;" />
<text x="2452.0" y="2153.9" font-size="18.2px" font-family="CMUBright-Roman" style="text-anchor:start;fill:rgb(0,0,0);" transform="rotate(34.2,2452.0,2153.9)" >1650</text>
<line x1='2390.7' y1='2187.3' x2='2406.5' y2='2199.5' style="stroke-width:4.0;stroke:rgb(0,0,0);stroke-linecap:round;fill:none;" />
<text x="2410.4" y="2210.7" font-size="18.2px" font-family="CMUBright-Roman" style="text-anchor:start;fill:rgb(0,0,0);" transform="rotate(37.7,2410.4,2210.7)" >1700</text>
<line x1='2347.1' y1='2240.3' x2='2362.2' y2='2253.4' style="stroke-width:4.0;stroke:rgb(0,0,0);stroke-linecap:round;fill:none;" />
<text x="2365.4" y="2264.9" font-size="18.2px" font-family="CMUBright-Roman" style="text-anchor:start;fill:rgb(0,0,0);" transform="rotate(41.1,2365.4,2264.9)" >1750</text>
<line x1='2300.5' y1='2290.5' x2='2314.7' y2='2304.6' style="stroke-width:4.0;stroke:rgb(0,0,0);stroke-linecap:round;fill:none;" />
<text x="2317.2" y="2316.2" font-size="18.2px" font-family="CMUBright-Roman" style="text-anchor:start;fill:rgb(0,0,0);" transform="rotate(44.6,2317.2,2316.2)" >1800</text>
<line x1='2250.8' y1='2337.8' x2='2264.1' y2='2352.7' style="stroke-width:4.0;stroke:rgb(0,0,0);stroke-linecap:round;fill:none;" />
<text x="2266.0" y="2364.5" font-size="18.2px" font-family="CMUBright-Roman" style="text-anchor:start;fill:rgb(0,0,0);" transform="rotate(48.1,2266.0,2364.5)" >1850</text>
<line x1='2198.4' y1='2382.0' x2='2210.8' y2='2397.7' style="stroke-width:4.0;stroke:rgb(0,0,0);stroke-linecap:round;fill:none;" />
<text x="2211.9" y="2409.5" font-size="18.2px" font-family="CMUBright-Roman" style="text-anchor:start;fill:rgb(0,0,0);" transform="rotate(51.6,2211.9,2409.5)" >1900</text>
<line x1='2143.3' y1='2422.9' x2='2154.8' y2='2439.3' style="stroke-width:4.0;stroke:rgb(0,0,0);stroke-linecap:round;fill:none;" />
<text x="2155.1" y="2451.2" font-size="18.2px" font-family="CMUBright-Roman" style="text-anchor:start;fill:rgb(0,0,0);" transform="rotate(55.1,2155.1,2451.2)" >1950</text>
<line x1='2085.9' y1='2460.4' x2='2096.3' y2='2477.5' style="stroke-width:4.0;stroke:rgb(0,0,0);stroke-linecap:round;fill:none;" />
<text x="2096.0" y="2489.4" font-size="18.2px" font-family="CMUBright-Roman" style="text-anchor:start;fill:rgb(0,0,0);" transform="rotate(58.6,2096.0,2489.4)" >2000</text>
<line x1='2026.3' y1='2494.3' x2='2035.6' y2='2512.0' style="stroke-width:4.0;stroke:rgb(0,0,0);stroke-linecap:round;fill:none;" />
<text x="2034.6" y="2523.8" font-size="18.2px" font-family="CMUBright-Roman" style="text-anchor:start;fill:rgb(0,0,0);" transform="rotate(62.1,2034.6,2523.8)" >2050</text>
<line x1='1964.7' y1='2524.5' x2='1973.0' y2='2542.7' style="stroke-width:4.0;stroke:rgb(0,0,0);stroke-linecap:round;fill:none;" />
<text x="1971.2" y="2554.5" font-size="18.2px" font-family="CMUBright-Roman" style="text-anchor:start;fill:rgb(0,0,0);" transform="rotate(65.6,1971.2,2554.5)" >2100</text>
<line x1='1901.4' y1='2550.9' x2='1908.6' y2='2569.6' style="stroke-width:4.0;stroke:rgb(0,0,0);stroke-linecap:round;fill:none;" />
<text x="1906.1" y="2581.3" font-size="18.2px" font-family="CMUBright-Roman" style="text-anchor:start;fill:rgb(0,0,0);" transform="rotate(69.1,1906.1,2581.3)" >2150</text>
<line x1='1836.7' y1='2573.4' x2='1842.6' y2='2592.5' style="stroke-width:4.0;stroke:rgb(0,0,0);stroke-linecap:round;fill:none;" />
<text x="1839.4" y="2604.0" font-size="18.2px" font-family="CMUBright-Roman" style="text-anchor:start;fill:rgb(0,0,0);" transform="rotate(72.6,1839.4,2604.0)" >2200</text>
<line x1='1770.6' y1='2592.0' x2='1775.4' y2='2611.4' style="stroke-width:4.0;stroke:rgb(0,0,0);stroke-linecap:round;fill:none;" />
<text x="1771.5" y="2622.6" font-size="18.2px" font-family="CMUBright-Roman" style="text-anchor:start;fill:rgb(0,0,0);" transform="rotate(76.1,1771.5,2622.6)" >2250</text>
<line x1='1703.6' y1='2606.4' x2='1707.2' y2='2626.1' style="stroke-width:4.0;stroke:rgb(0,0,0);stroke-linecap:round;fill:none;" />
<text x="1702.6" y="2637.1" font-size="18.2px" font-family="CMUBright-Roman" style="text-anchor:start;fill:rgb(0,0,0);" transform="rotate(79.6,1702.6,2637.1)" >2300</text>
<line x1='1635.8' y1='2616.8' x2='1638.2' y2='2636.6' style="stroke-width:4.0;stroke:rgb(0,0,0);stroke-linecap:round;fill:none;" />
<text x="1633.0" y="2647.3" font-size="18.2px" font-family="CMUBright-Roman" style="text-anchor:start;fill:rgb(0,0,0);" transform="rotate(83.1,1633.0,2647.3)" >2350</text>
<line x1='1567.5' y1='2623.0' x2='1568.7' y2='2642.9' style="stroke-width:4.0;stroke:rgb(0,0,0);stroke-linecap:round;fill:none;" />
<text x="1562.8" y="2653.3" font-size="18.2px" font-family="CMUBright-Roman" style="text-anchor:start;fill:rgb(0,0,0);" transform="rotate(86.6,1562.8,2653.3)" >2400</text>
<line x1='1499.0' y1='2625.0' x2='1498.9' y2='2645.0' style="stroke-width:4.0;stroke:rgb(0,0,0);stroke-linecap:round;fill:none;" />
<text x="1505.4" y="2655.0" font-size="18.2px" font-family="CMUBright-Roman" style="text-anchor:end;fill:rgb(0,0,0);" transform="rotate(-89.9,1505.4,2655.0)" >2450</text>
<line x1='1430.4' y1='2622.8' x2='1429.2' y2='2642.8' style="stroke-width:4.0;stroke:rgb(0,0,0);stroke-linecap:round;fill:none;" />
<text x="1435.0" y="2653.2" font-size="18.2px" font-family="CMUBright-Roman" style="text-anchor:end;fill:rgb(0,0,0);" transform="rotate(-86.5,1435.0,2653.2)" >2500</text>
<line x1='1362.1' y1='2616.5' x2='1359.7' y2='2636.4' style="stroke-width:4.0;stroke:rgb(0,0,0);stroke-linecap:round;fill:none;" />
<text x="1364.9" y="2647.1" font-size="18.2px" font-family="CMUBright-Roman" style="text-anchor:end;fill:rgb(0,0,0);" transform="rotate(-83.0,1364.9,2647.1)" >2550</text>
<line x1='1294.4' y1='2606.0' x2='1290.7' y2='2625.7' style="stroke-width:4.0;stroke:rgb(0,0,0);stroke-linecap:round;fill:none;" />
<text x="1295.3" y="2636.7" font-size="18.2px" font-family="CMUBright-Roman" style="text-anchor:end;fill:rgb(0,0,0);" transform="rotate(-79.5,1295.3,2636.7)" >2600</text>
<line x1='1227.3' y1='2591.5' x2='1222.5' y2='2610.9' style="stroke-width:4.0;stroke:rgb(0,0,0);stroke-linecap:round;fill:none;" />
<text x="1226.4" y="2622.1" font-size="18.2px" font-family="CMUBright-Roman" style="text-anchor:end;fill:rgb(0,0,0);" transform="rotate(-76.0,1226.4,2622.1)" >2650</text>
<line x1='1161.4' y1='2572.8' x2='1155.3' y2='2591.9' style="stroke-width:4.0;stroke:rgb(0,0,0);stroke-linecap:round;fill:none;" />
<text x="1158.5" y="2603.4" font-size="18.2px" font-family="CMUBright-Roman" style="text-anchor:end;fill:rgb(0,0,0);" transform="rotate(-72.5,1158.5,2603.4)" >2700</text>
<line x1='1096.6' y1='2550.2' x2='1089.4' y2='2568.9' style="stroke-width:4.0;stroke:rgb(0,0,0);stroke-linecap:round;fill:none;" />
<text x="1091.9" y="2580.5" font-size="18.2px" font-family="CMUBright-Roman" style="text-anchor:end;fill:rgb(0,0,0);" transform="rotate(-69.0,1091.9,2580.5)" >2750</text>
<line x1='1033.4' y1='2523.7' x2='1025.1' y2='2541.9' style="stroke-width:4.0;stroke:rgb(0,0,0);stroke-linecap:round;fill:none;" />
<text x="1026.9" y="2553.6" font-size="18.2px" font-family="CMUBright-Roman" style="text-anchor:end;fill:rgb(0,0,0);" transform="rotate(-65.5,1026.9,2553.6)" >2800</text>
<line x1='971.9' y1='2493.3' x2='962.5' y2='2511.0' style="stroke-width:4.0;stroke:rgb(0,0,0);stroke-linecap:round;fill:none;" />
<text x="963.5" y="2522.9" font-size="18.2px" font-family="CMUBright-Roman" style="text-anchor:end;fill:rgb(0,0,0);" transform="rotate(-62.0,963.5,2522.9)" >2850</text>
<line x1='912.3' y1='2459.3' x2='901.9' y2='2476.4' style="stroke-width:4.0;stroke:rgb(0,0,0);stroke-linecap:round;fill:none;" />
<text x="902.2" y="2488.3" font-size="18.2px" font-family="CMUBright-Roman" style="text-anchor:end;fill:rgb(0,0,0);" transform="rotate(-58.5,902.2,2488.3)" >2900</text>
<line x1='855.0' y1='2421.7' x2='843.5' y2='2438.1' style="stroke-width:4.0;stroke:rgb(0,0,0);stroke-linecap:round;fill:none;" />
<text x="843.1" y="2450.0" font-size="18.2px" font-family="CMUBright-Roman" style="text-anchor:end;fill:rgb(0,0,0);" transform="rotate(-55.0,843.1,2450.0)" >2950</text>
<line x1='800.0' y1='2380.7' x2='787.6' y2='2396.4' style="stroke-width:4.0;stroke:rgb(0,0,0);stroke-linecap:round;fill:none;" />
<text x="786.4" y="2408.2" font-size="18.2px" font-family="CMUBright-Roman" style="text-anchor:end;fill:rgb(0,0,0);" transform="rotate(-51.5,786.4,2408.2)" >3000</text>
<line x1='747.7' y1='2336.4' x2='734.3' y2='2351.3' style="stroke-width:4.0;stroke:rgb(0,0,0);stroke-linecap:round;fill:none;" />
<text x="732.4" y="2363.1" font-size="18.2px" font-family="CMUBright-Roman" style="text-anchor:end;fill:rgb(0,0,0);" transform="rotate(-48.0,732.4,2363.1)" >3050</text>
<line x1='698.1' y1='2289.0' x2='683.8' y2='2303.1' style="stroke-width:4.0;stroke:rgb(0,0,0);stroke-linecap:round;fill:none;" />
<text x="681.3" y="2314.7" font-size="18.2px" font-family="CMUBright-Roman" style="text-anchor:end;fill:rgb(0,0,0);" transform="rotate(-44.5,681.3,2314.7)" >3100</text>
<line x1='651.5' y1='2238.7' x2='636.4' y2='2251.8' style="stroke-width:4.0;stroke:rgb(0,0,0);stroke-linecap:round;fill:none;" />
<text x="633.2" y="2263.3" font-size="18.2px" font-family="CMUBright-Roman" style="text-anchor:end;fill:rgb(0,0,0);" transform="rotate(-41.0,633.2,2263.3)" >3150</text>
<line x1='608.1' y1='2185.6' x2='592.2' y2='2197.8' style="stroke-width:4.0;stroke:rgb(0,0,0);stroke-linecap:round;fill:none;" />
<text x="588.3" y="2209.1" font-size="18.2px" font-family="CMUBright-Roman" style="text-anchor:end;fill:rgb(0,0,0);" transform="rotate(-37.5,588.3,2209.1)" >3200</text>
<line x1='568.0' y1='2130.0' x2='551.4' y2='2141.2' style="stroke-width:4.0;stroke:rgb(0,0,0);stroke-linecap:round;fill:none;" />
<text x="546.8" y="2152.2" font-size="18.2px" font-family="CMUBright-Roman" style="text-anchor:end;fill:rgb(0,0,0);" transform="rotate(-34.1,546.8,2152.2)" >3250</text>
<line x1='531.3' y1='2072.1' x2='514.1' y2='2082.2' style="stroke-width:4.0;stroke:rgb(0,0,0);stroke-linecap:round;fill:none;" />
<text x="508.8" y="2092.9" font-size="18.2px" font-family="CMUBright-Roman" style="text-anchor:end;fill:rgb(0,0,0);" transform="rotate(-30.6,508.8,2092.9)" >3300</text>
<line x1='498.2' y1='2012.0' x2='480.4' y2='2021.1' style="stroke-width:4.0;stroke:rgb(0,0,0);stroke-linecap:round;fill:none;" />
<text x="474.5" y="2031.4" font-size="18.2px" font-family="CMUBright-Roman" style="text-anchor:end;fill:rgb(0,0,0);" transform="rotate(-27.1,474.5,2031.4)" >3350</text>
<line x1='468.9' y1='1950.0' x2='450.6' y2='1958.0' style="stroke-width:4.0;stroke:rgb(0,0,0);stroke-linecap:round;fill:none;" />
<text x="444.0" y="1967.9" font-size="18.2px" font-family="CMUBright-Roman" style="text-anchor:end;fill:rgb(0,0,0);" transform="rotate(-23.6,444.0,1967.9)" >3400</text>
<line x1='443.4' y1='1886.3' x2='424.6' y2='1893.2' style="stroke-width:4.0;stroke:rgb(0,0,0);stroke-linecap:round;fill:none;" />
<text x="417.5" y="1902.7" font-size="18.2px" font-family="CMUBright-Roman" style="text-anchor:end;fill:rgb(0,0,0);" transform="rotate(-20.1,417.5,1902.7)" >3450</text>
<line x1='421.8' y1='1821.2' x2='402.7' y2='1826.9' style="stroke-width:4.0;stroke:rgb(0,0,0);stroke-linecap:round;fill:none;" />
<text x="395.0" y="1836.0" font-size="18.2px" font-family="CMUBright-Roman" style="text-anchor:end;fill:rgb(0,0,0);" transform="rotate(-16.6,395.0,1836.0)" >3500</text>
<line x1='404.3' y1='1754.9' x2='384.8' y2='1759.5' style="stroke-width:4.0;stroke:rgb(0,0,0);stroke-linecap:round;fill:none;" />
<text x="376.5" y="1768.1" font-size="18.2px" font-family="CMUBright-Roman" style="text-anchor:end;fill:rgb(0,0,0);" transform="rotate(-13.1,376.5,1768.1)" >3550</text>
<line x1='390.8' y1='1687.7' x2='371.0' y2='1691.0' style="stroke-width:4.0;stroke:rgb(0,0,0);stroke-linecap:round;fill:none;" />
<text x="362.3" y="1699.1" font-size="18.2px" font-family="CMUBright-Roman" style="text-anchor:end;fill:rgb(0,0,0);" transform="rotate(-9.6,362.3,1699.1)" >3600</text>
<line x1='381.4' y1='1619.8' x2='361.5' y2='1621.9' style="stroke-width:4.0;stroke:rgb(0,0,0);stroke-linecap:round;fill:none;" />
<text x="352.3" y="1629.4" font-size="18.2px" font-family="CMUBright-Roman" style="text-anchor:end;fill:rgb(0,0,0);" transform="rotate(-6.1,352.3,1629.4)" >3650</text>
<line x1='376.2' y1='1551.4' x2='356.2' y2='1552.3' style="stroke-width:4.0;stroke:rgb(0,0,0);stroke-linecap:round;fill:none;" />
<text x="346.5" y="1559.2" font-size="18.2px" font-family="CMUBright-Roman" style="text-anchor:end;fill:rgb(0,0,0);" transform="rotate(-2.6,346.5,1559.2)" >3700</text>
<line x1='375.1' y1='1482.8' x2='355.1' y2='1482.5' style="stroke-width:4.0;stroke:rgb(0,0,0);stroke-linecap:round;fill:none;" />
<text x="345.1" y="1488.9" font-size="18.2px" font-family="CMUBright-Roman" style="text-anchor:end;fill:rgb(0,0,0);" transform="rotate(0.9,345.1,1488.9)" >3750</text>
<line x1='378.3' y1='1414.3' x2='358.3' y2='1412.8' style="stroke-width:4.0;stroke:rgb(0,0,0);stroke-linecap:round;fill:none;" />
<text x="347.9" y="1418.5" font-size="18.2px" font-family="CMUBright-Roman" style="text-anchor:end;fill:rgb(0,0,0);" transform="rotate(4.4,347.9,1418.5)" >3800</text>
<line x1='385.6' y1='1346.1' x2='365.8' y2='1343.4' style="stroke-width:4.0;stroke:rgb(0,0,0);stroke-linecap:round;fill:none;" />
<text x="355.0" y="1348.5" font-size="18.2px" font-family="CMUBright-Roman" style="text-anchor:end;fill:rgb(0,0,0);" transform="rotate(7.9,355.0,1348.5)" >3850</text>
<line x1='397.0' y1='1278.5' x2='377.4' y2='1274.6' style="stroke-width:4.0;stroke:rgb(0,0,0);stroke-linecap:round;fill:none;" />
<text x="366.3" y="1279.0" font-size="18.2px" font-family="CMUBright-Roman" style="text-anchor:end;fill:rgb(0,0,0);" transform="rotate(11.4,366.3,1279.0)" >3900</text>
<line x1='412.6' y1='1211.7' x2='393.2' y2='1206.6' style="stroke-width:4.0;stroke:rgb(0,0,0);stroke-linecap:round;fill:none;" />
<text x="381.9" y="1210.3" font-size="18.2px" font-family="CMUBright-Roman" style="text-anchor:end;fill:rgb(0,0,0);" transform="rotate(14.8,381.9,1210.3)" >3950</text>
<line x1='432.1' y1='1146.0' x2='413.2' y2='1139.7' style="stroke-width:4.0;stroke:rgb(0,0,0);stroke-linecap:round;fill:none;" />
<text x="401.6" y="1142.7" font-size="18.2px" font-family="CMUBright-Roman" style="text-anchor:end;fill:rgb(0,0,0);" transform="rotate(18.3,401.6,1142.7)" >4000</text>
<line x1='455.7' y1='1081.6' x2='437.1' y2='1074.2' style="stroke-width:4.0;stroke:rgb(0,0,0);stroke-linecap:round;fill:none;" />
<text x="425.5" y="1076.5" font-size="18.2px" font-family="CMUBright-Roman" style="text-anchor:end;fill:rgb(0,0,0);" transform="rotate(21.8,425.5,1076.5)" >4050</text>
<line x1='483.1' y1='1018.7' x2='465.1' y2='1010.2' style="stroke-width:4.0;stroke:rgb(0,0,0);stroke-linecap:round;fill:none;" />
<text x="453.3" y="1011.8" font-size="18.2px" font-family="CMUBright-Roman" style="text-anchor:end;fill:rgb(0,0,0);" transform="rotate(25.3,453.3,1011.8)" >4100</text>
<line x1='514.3' y1='957.7' x2='496.8' y2='948.0' style="stroke-width:4.0;stroke:rgb(0,0,0);stroke-linecap:round;fill:none;" />
<text x="484.9" y="948.9" font-size="18.2px" font-family="CMUBright-Roman" style="text-anchor:end;fill:rgb(0,0,0);" transform="rotate(28.8,484.9,948.9)" >4150</text>
<line x1='549.2' y1='898.6' x2='532.3' y2='887.9' style="stroke-width:4.0;stroke:rgb(0,0,0);stroke-linecap:round;fill:none;" />
<text x="520.4" y="888.1" font-size="18.2px" font-family="CMUBright-Roman" style="text-anchor:end;fill:rgb(0,0,0);" transform="rotate(32.3,520.4,888.1)" >4200</text>
<line x1='587.6' y1='841.8' x2='571.4' y2='830.1' style="stroke-width:4.0;stroke:rgb(0,0,0);stroke-linecap:round;fill:none;" />
<text x="559.5" y="829.5" font-size="18.2px" font-family="CMUBright-Roman" style="text-anchor:end;fill:rgb(0,0,0);" transform="rotate(35.8,559.5,829.5)" >4250</text>
<line x1='629.4' y1='787.4' x2='614.0' y2='774.8' style="stroke-width:4.0;stroke:rgb(0,0,0);stroke-linecap:round;fill:none;" />
<text x="602.1" y="773.5" font-size="18.2px" font-family="CMUBright-Roman" style="text-anchor:end;fill:rgb(0,0,0);" transform="rotate(39.3,602.1,773.5)" >4300</text>
<line x1='674.5' y1='735.7' x2='659.8' y2='722.1' style="stroke-width:4.0;stroke:rgb(0,0,0);stroke-linecap:round;fill:none;" />
<text x="648.0" y="720.1" font-size="18.2px" font-family="CMUBright-Roman" style="text-anchor:end;fill:rgb(0,0,0);" transform="rotate(42.8,648.0,720.1)" >4350</text>
<line x1='722.6' y1='686.8' x2='708.7' y2='672.4' style="stroke-width:4.0;stroke:rgb(0,0,0);stroke-linecap:round;fill:none;" />
<text x="697.1" y="669.7" font-size="18.2px" font-family="CMUBright-Roman" style="text-anchor:end;fill:rgb(0,0,0);" transform="rotate(46.3,697.1,669.7)" >4400</text>
<line x1='773.6' y1='641.0' x2='760.6' y2='625.7' style="stroke-width:4.0;stroke:rgb(0,0,0);stroke-linecap:round;fill:none;" />
<text x="749.2" y="622.3" font-size="18.2px" font-family="CMUBright-Roman" style="text-anchor:end;fill:rgb(0,0,0);" transform="rotate(49.8,749.2,622.3)" >4450</text>
<line x1='827.2' y1='598.3' x2='815.3' y2='582.3' style="stroke-width:4.0;stroke:rgb(0,0,0);stroke-linecap:round;fill:none;" />
<text x="804.1" y="578.2" font-size="18.2px" font-family="CMUBright-Roman" style="text-anchor:end;fill:rgb(0,0,0);" transform="rotate(53.3,804.1,578.2)" >4500</text>
<line x1='883.4' y1='559.0' x2='872.5' y2='542.3' style="stroke-width:4.0;stroke:rgb(0,0,0);stroke-linecap:round;fill:none;" />
<text x="861.6" y="537.5" font-size="18.2px" font-family="CMUBright-Roman" style="text-anchor:end;fill:rgb(0,0,0);" transform="rotate(56.8,861.6,537.5)" >4550</text>
<line x1='941.9' y1='523.2' x2='932.0' y2='505.8' style="stroke-width:4.0;stroke:rgb(0,0,0);stroke-linecap:round;fill:none;" />
<text x="921.4" y="500.4" font-size="18.2px" font-family="CMUBright-Roman" style="text-anchor:end;fill:rgb(0,0,0);" transform="rotate(60.3,921.4,500.4)" >4600</text>
<line x1='1002.5' y1='491.0' x2='993.6' y2='473.1' style="stroke-width:4.0;stroke:rgb(0,0,0);stroke-linecap:round;fill:none;" />
<text x="983.4" y="467.0" font-size="18.2px" font-family="CMUBright-Roman" style="text-anchor:end;fill:rgb(0,0,0);" transform="rotate(63.8,983.4,467.0)" >4650</text>
<line x1='1064.9' y1='462.6' x2='1057.1' y2='444.1' style="stroke-width:4.0;stroke:rgb(0,0,0);stroke-linecap:round;fill:none;" />
<text x="1047.3" y="437.4" font-size="18.2px" font-family="CMUBright-Roman" style="text-anchor:end;fill:rgb(0,0,0);" transform="rotate(67.2,1047.3,437.4)" >4700</text>
<line x1='1128.9' y1='438.0' x2='1122.3' y2='419.1' style="stroke-width:4.0;stroke:rgb(0,0,0);stroke-linecap:round;fill:none;" />
<text x="1112.9" y="411.8" font-size="18.2px" font-family="CMUBright-Roman" style="text-anchor:end;fill:rgb(0,0,0);" transform="rotate(70.7,1112.9,411.8)" >4750</text>
<line x1='1194.3' y1='417.3' x2='1188.8' y2='398.1' style="stroke-width:4.0;stroke:rgb(0,0,0);stroke-linecap:round;fill:none;" />
<text x="1179.9" y="390.2" font-size="18.2px" font-family="CMUBright-Roman" style="text-anchor:end;fill:rgb(0,0,0);" transform="rotate(74.2,1179.9,390.2)" >4800</text>
<line x1='1260.8' y1='400.7' x2='1256.6' y2='381.2' style="stroke-width:4.0;stroke:rgb(0,0,0);stroke-linecap:round;fill:none;" />
<text x="1248.1" y="372.8" font-size="18.2px" font-family="CMUBright-Roman" style="text-anchor:end;fill:rgb(0,0,0);" transform="rotate(77.7,1248.1,372.8)" >4850</text>
<line x1='1328.2' y1='388.2' x2='1325.2' y2='368.4' style="stroke-width:4.0;stroke:rgb(0,0,0);stroke-linecap:round;fill:none;" />
<text x="1317.2" y="359.6" font-size="18.2px" font-family="CMUBright-Roman" style="text-anchor:end;fill:rgb(0,0,0);" transform="rotate(81.2,1317.2,359.6)" >4900</text>
<line x1='1396.3' y1='379.8' x2='1394.5' y2='359.9' style="stroke-width:4.0;stroke:rgb(0,0,0);stroke-linecap:round;fill:none;" />
<text x="1387.1" y="350.5" font-size="18.2px" font-family="CMUBright-Roman" style="text-anchor:end;fill:rgb(0,0,0);" transform="rotate(84.7,1387.1,350.5)" >4950</text>
<g id="highlighttrack_0">
<path d="M1721.808,448.132 A1075.000,1075.000 40.000 0,1 1725.466,448.910 L1735.953,400.022 A1125.000,1125.000 0.000 0,0 1732.125,399.208 Z" style="stroke-width:4.0;stroke:rgb(0,0,0);stroke-linecap:round;fill:rgb(116,196,118);" />
<path d="M2193.643,678.730 A1075.000,1075.000 40.000 0,1 2196.496,681.148 L2228.891,643.062 A1125.000,1125.000 0.000 0,0 2225.906,640.532 Z" style="stroke-width:4.0;stroke:rgb(0,0,0);stroke-linecap:round;fill:rgb(116,196,118);" />
<path d="M2200.596,684.653 A1075.000,1075.000 40.000 0,1 2203.428,687.095 L2236.146,649.286 A1125.000,1125.000 0.000 0,0 2233.182,646.730 Z" style="stroke-width:4.0;stroke:rgb(0,0,0);stroke-linecap:round;fill:rgb(116,196,118);" />
<path d="M816.635,2329.842 A1075.000,1075.000 40.000 0,1 813.752,2327.460 L781.834,2365.946 A1125.000,1125.000 0.000 0,0 784.851,2368.439 Z" style="stroke-width:4.0;stroke:rgb(0,0,0);stroke-linecap:round;fill:rgb(251,106,74);" />
<path d="M463.556,1214.678 A1075.000,1075.000 40.000 0,1 464.555,1211.074 L416.394,1197.636 A1125.000,1125.000 0.000 0,0 415.349,1201.407 Z" style="stroke-width:4.0;stroke:rgb(0,0,0);stroke-linecap:round;fill:rgb(251,106,74);" />
<path d="M1106.705,499.528 A1075.000,1075.000 40.000 0,1 1110.188,498.166 L1092.057,451.569 A1125.000,1125.000 0.000 0,0 1088.412,452.995 Z" style="stroke-width:4.0;stroke:rgb(0,0,0);stroke-linecap:round;fill:rgb(251,106,74);" />
<path d="M1169.885,476.941 A1075.000,1075.000 40.000 0,1 1173.446,475.799 L1158.258,428.162 A1125.000,1125.000 0.000 0,0 1154.531,429.357 Z" style="stroke-width:4.0;stroke:rgb(0,0,0);stroke-linecap:round;fill:rgb(251,106,74);" />
<path d="M1363.365,433.719 A1075.000,1075.000 40.000 0,1 1367.075,433.250 L1360.892,383.634 A1125.000,1125.000 0.000 0,0 1357.009,384.124 Z" style="stroke-width:4.0;stroke:rgb(0,0,0);stroke-linecap:round;fill:rgb(251,106,74);" />
<path d="M1133.970,489.234 A1075.000,1075.000 40.000 0,1 1139.397,487.286 L1122.625,440.183 A1125.000,1125.000 0.000 0,0 1116.945,442.222 Z" style="stroke-width:4.0;stroke:rgb(0,0,0);stroke-linecap:round;fill:rgb(116,196,118);" />
</g>
</g>
<g id="track_0">
<path d="M 1719.590,458.651 A 1064.250,1064.250 0.00 0,1 1723.2,459.4 L 1723.2,459.4 1707.8,531.0 1693.4,597.1 1680.0,658.0 1667.5,714.0 1655.8,765.2 1645.1,812.1 1635.1,854.6 1625.8,893.1 1617.3,927.8 1609.4,958.7 1602.2,986.1 1595.6,1010.0 1589.6,1030.6 1584.1,1048.1 1579.2,1062.4 1574.8,1073.7 1570.8,1082.1 1567.4,1087.4 1564.4,1089.9 1561.9,1089.6 1559.8,1086.3 1558.1,1080.1 1556.9,1071.0 1556.0,1058.9 1555.6,1043.7 1555.7,1025.4 1556.1,1003.9 1557.0,979.1 1558.4,950.8 1560.2,919.0 1562.5,883.4 1565.2,843.9 1568.5,800.3 1572.3,752.4 1576.6,700.0 1581.5,642.8 1587.0,580.7 1593.2,513.3 1600.0,440.5  A 1064.250,1064.250 0.00 0,0 1596.3,440.1 L 1596.3,440.1 1589.7,513.0 1583.8,580.4 1578.5,642.6 1573.8,699.7 1569.7,752.1 1566.0,800.0 1562.9,843.7 1560.3,883.2 1558.2,918.8 1556.5,950.6 1555.2,978.9 1554.4,1003.7 1554.0,1025.2 1554.1,1043.5 1554.5,1058.7 1555.4,1070.8 1556.6,1079.9 1558.3,1086.1 1560.4,1089.3 1563.0,1089.7 1566.0,1087.2 1569.4,1081.8 1573.3,1073.5 1577.7,1062.1 1582.5,1047.8 1587.9,1030.3 1593.9,1009.7 1600.4,985.7 1607.5,958.3 1615.3,927.4 1623.7,892.7 1632.8,854.2 1642.7,811.6 1653.3,764.7 1664.7,713.4 1677.0,657.4 1690.2,596.4 1704.4,530.3 1719.6,458.7  Z" style="stroke-width: 2.0;  stroke: rgb(82,82,82); fill: rgb(251,106,74); opacity: 0.667;" />
<path d="M 2186.707,686.943 A 1064.250,1064.250 0.00 0,1 2189.5,689.3 L 2189.5,689.3 2141.8,744.9 2097.0,795.8 2055.0,842.4 2015.7,884.9 1978.9,923.3 1944.6,958.1 1912.4,989.3 1882.4,1017.1 1854.4,1041.6 1828.2,1063.1 1803.9,1081.6 1781.2,1097.2 1760.1,1110.0 1740.6,1120.1 1722.4,1127.6 1705.6,1132.6 1690.0,1135.0 1675.6,1134.9 1662.4,1132.3 1650.2,1127.1 1639.1,1119.5 1629.0,1109.3 1619.9,1096.4 1611.7,1080.9 1604.4,1062.7 1598.0,1041.6 1592.5,1017.5 1587.9,990.4 1584.1,960.0 1581.3,926.4 1579.3,889.2 1578.3,848.3 1578.2,803.5 1579.2,754.6 1581.1,701.4 1584.1,643.6 1588.2,581.1 1593.5,513.4 1600.0,440.5  A 1064.250,1064.250 0.00 0,0 1596.3,440.1 L 1596.3,440.1 1590.0,513.1 1585.0,580.8 1581.1,643.3 1578.3,701.1 1576.6,754.3 1575.8,803.2 1576.1,848.0 1577.2,888.9 1579.3,926.1 1582.3,959.8 1586.1,990.1 1590.8,1017.2 1596.4,1041.2 1602.9,1062.3 1610.2,1080.5 1618.5,1096.0 1627.7,1108.8 1637.8,1119.0 1649.0,1126.6 1661.1,1131.7 1674.3,1134.3 1688.7,1134.3 1704.3,1131.9 1721.1,1126.9 1739.2,1119.3 1758.8,1109.1 1779.8,1096.2 1802.4,1080.5 1826.7,1061.9 1852.8,1040.4 1880.7,1015.7 1910.6,987.8 1942.7,956.5 1976.9,921.7 2013.6,883.1 2052.7,840.5 2094.5,793.8 2139.1,742.7 2186.7,686.9  Z" style="stroke-width: 2.0;  stroke: rgb(82,82,82); fill: rgb(116,196,118); opacity: 0.667;" />
<path d="M 2186.707,686.943 A 1064.250,1064.250 0.00 0,1 2189.5,689.3 L 2189.5,689.3 2141.8,744.9 2097.3,796.0 2055.6,842.7 2016.8,885.3 1980.5,924.0 1946.8,959.0 1915.5,990.4 1886.4,1018.5 1859.4,1043.4 1834.4,1065.2 1811.3,1084.0 1790.0,1099.9 1770.4,1113.1 1752.5,1123.6 1736.1,1131.5 1721.2,1136.8 1707.7,1139.6 1695.5,1139.9 1684.6,1137.6 1675.0,1132.9 1666.6,1125.6 1659.5,1115.8 1653.4,1103.4 1648.6,1088.3 1644.8,1070.5 1642.2,1049.9 1640.8,1026.3 1640.5,999.8 1641.3,970.0 1643.4,936.9 1646.7,900.3 1651.2,860.2 1657.1,816.1 1664.3,768.1 1673.0,715.8 1683.1,659.0 1694.8,597.5 1708.1,531.1 1723.2,459.4  A 1064.250,1064.250 0.00 0,0 1719.6,458.7 L 1719.6,458.7 1704.8,530.4 1691.7,596.9 1680.2,658.4 1670.3,715.2 1661.8,767.5 1654.7,815.6 1649.0,859.6 1644.6,899.8 1641.4,936.4 1639.5,969.5 1638.7,999.3 1639.1,1025.9 1640.7,1049.4 1643.3,1070.0 1647.1,1087.8 1652.0,1102.9 1658.1,1115.3 1665.3,1125.1 1673.7,1132.3 1683.4,1137.0 1694.2,1139.2 1706.4,1138.9 1719.9,1136.1 1734.8,1130.7 1751.2,1122.8 1769.1,1112.2 1788.6,1098.9 1809.8,1082.9 1832.9,1064.0 1857.8,1042.1 1884.7,1017.2 1913.7,989.0 1944.9,957.4 1978.5,922.3 2014.6,883.5 2053.3,840.7 2094.8,793.9 2139.2,742.7 2186.7,686.9  Z" style="stroke-width: 2.0;  stroke: rgb(82,82,82); fill: rgb(107,174,214); opacity: 0.667;" />
<path d="M 2193.590,692.807 A 1064.250,1064.250 0.00 0,1 2196.4,695.2 L 2196.4,695.2 2148.2,750.4 2102.9,800.9 2060.6,847.1 2020.9,889.2 1983.7,927.4 1949.0,961.8 1916.5,992.7 1886.2,1020.2 1857.9,1044.5 1831.5,1065.8 1806.9,1084.0 1784.0,1099.4 1762.7,1112.0 1742.9,1122.0 1724.5,1129.3 1707.5,1134.1 1691.8,1136.3 1677.3,1136.1 1663.9,1133.3 1651.6,1128.1 1640.4,1120.3 1630.1,1110.0 1620.9,1097.1 1612.6,1081.5 1605.2,1063.1 1598.7,1042.0 1593.1,1017.8 1588.4,990.7 1584.6,960.3 1581.6,926.5 1579.6,889.3 1578.5,848.4 1578.4,803.5 1579.3,754.6 1581.2,701.4 1584.1,643.6 1588.2,581.1 1593.5,513.4 1600.0,440.5  A 1064.250,1064.250 0.00 0,0 1596.3,440.1 L 1596.3,440.1 1590.0,513.1 1585.0,580.8 1581.1,643.3 1578.4,701.1 1576.7,754.4 1576.0,803.3 1576.3,848.1 1577.5,889.0 1579.6,926.3 1582.7,960.0 1586.6,990.4 1591.4,1017.5 1597.1,1041.6 1603.7,1062.8 1611.1,1081.1 1619.5,1096.7 1628.8,1109.6 1639.0,1119.8 1650.3,1127.6 1662.6,1132.8 1676.0,1135.5 1690.5,1135.7 1706.3,1133.4 1723.3,1128.5 1741.6,1121.1 1761.3,1111.1 1782.6,1098.4 1805.4,1082.9 1830.0,1064.6 1856.3,1043.3 1884.5,1018.9 1914.7,991.3 1947.1,960.3 1981.7,925.7 2018.7,887.4 2058.3,845.2 2100.5,798.8 2145.6,748.1 2193.6,692.8  Z" style="stroke-width: 2.0;  stroke: rgb(82,82,82); fill: rgb(253,141,60); opacity: 0.667;" />
<path d="M 2193.590,692.807 A 1064.250,1064.250 0.00 0,1 2196.4,695.2 L 2196.4,695.2 2148.2,750.4 2103.2,801.1 2061.1,847.4 2021.9,889.7 1985.3,928.0 1951.2,962.7 1919.6,993.9 1890.2,1021.7 1862.9,1046.3 1837.6,1067.9 1814.3,1086.4 1792.8,1102.2 1773.0,1115.2 1754.8,1125.5 1738.2,1133.2 1723.1,1138.3 1709.4,1141.0 1697.1,1141.1 1686.1,1138.7 1676.4,1133.9 1667.9,1126.5 1660.5,1116.6 1654.4,1104.1 1649.4,1088.9 1645.6,1071.0 1642.9,1050.3 1641.3,1026.7 1640.9,1000.1 1641.7,970.2 1643.7,937.1 1646.9,900.5 1651.4,860.3 1657.3,816.2 1664.4,768.1 1673.1,715.8 1683.2,659.0 1694.8,597.5 1708.2,531.1 1723.2,459.4  A 1064.250,1064.250 0.00 0,0 1719.6,458.7 L 1719.6,458.7 1704.8,530.4 1691.7,596.9 1680.2,658.4 1670.3,715.2 1661.9,767.6 1654.9,815.7 1649.2,859.7 1644.9,900.0 1641.8,936.6 1639.9,969.7 1639.2,999.6 1639.7,1026.2 1641.3,1049.8 1644.1,1070.5 1648.0,1088.4 1653.0,1103.6 1659.2,1116.0 1666.6,1125.9 1675.1,1133.3 1684.9,1138.1 1695.9,1140.4 1708.2,1140.2 1721.9,1137.6 1737.0,1132.4 1753.5,1124.6 1771.6,1114.2 1791.4,1101.2 1812.9,1085.3 1836.1,1066.7 1861.3,1045.1 1888.5,1020.3 1917.8,992.4 1949.4,961.2 1983.3,926.3 2019.8,887.8 2058.9,845.4 2100.8,799.0 2145.6,748.2 2193.6,692.8  Z" style="stroke-width: 2.0;  stroke: rgb(82,82,82); fill: rgb(255,0,0); opacity: 0.667;" />
<path d="M 2193.590,692.807 A 1064.250,1064.250 0.00 0,1 2196.4,695.2 L 2196.4,695.2 2148.5,750.6 2104.2,801.7 2063.4,848.8 2025.9,892.2 1991.4,931.9 1960.0,968.2 1931.3,1001.2 1905.4,1031.0 1882.1,1057.9 1861.2,1081.9 1842.6,1103.2 1826.4,1121.8 1812.3,1137.9 1800.4,1151.5 1790.5,1162.7 1782.6,1171.6 1776.7,1178.2 1772.7,1182.5 1770.7,1184.6 1770.5,1184.5 1772.3,1182.2 1776.0,1177.6 1781.6,1170.8 1789.2,1161.6 1798.8,1150.2 1810.4,1136.3 1824.2,1119.9 1840.1,1101.0 1858.3,1079.5 1878.9,1055.2 1901.9,1028.0 1927.5,997.8 1955.7,964.5 1986.8,927.9 2020.8,887.8 2057.9,844.1 2098.3,796.6 2142.1,745.1 2189.5,689.3  A 1064.250,1064.250 0.00 0,0 2186.7,686.9 L 2186.7,686.9 2139.5,742.9 2095.8,794.6 2055.6,842.2 2018.7,886.0 1984.8,926.2 1953.8,962.9 1925.7,996.3 1900.2,1026.6 1877.3,1053.9 1856.8,1078.2 1838.7,1099.8 1822.8,1118.8 1809.1,1135.2 1797.5,1149.1 1788.0,1160.6 1780.4,1169.8 1774.9,1176.6 1771.2,1181.2 1769.4,1183.6 1769.6,1183.7 1771.6,1181.6 1775.6,1177.3 1781.4,1170.6 1789.3,1161.7 1799.1,1150.5 1811.0,1136.8 1825.0,1120.7 1841.2,1102.0 1859.7,1080.7 1880.5,1056.6 1903.8,1029.6 1929.6,999.7 1958.1,966.6 1989.5,930.2 2023.7,890.4 2061.1,846.9 2101.8,799.6 2145.9,748.3 2193.6,692.8  Z" style="stroke-width: 2.0;  stroke: rgb(82,82,82); fill: rgb(255,0,204); opacity: 0.667;" />
<path d="M 823.469,2321.543 A 1064.250,1064.250 0.00 0,1 820.6,2319.2 L 820.6,2319.2 867.0,2261.4 909.3,2205.2 948.0,2150.5 983.3,2097.3 1015.5,2045.6 1045.1,1995.4 1072.3,1946.5 1097.4,1898.9 1120.7,1852.6 1142.5,1807.5 1162.8,1763.5 1182.1,1720.5 1200.4,1678.5 1218.0,1637.3 1235.1,1596.8 1251.7,1556.9 1268.0,1517.6 1284.1,1478.6 1300.2,1439.8 1316.2,1401.1 1332.3,1362.3 1348.5,1323.4 1364.9,1284.0 1381.4,1244.1 1398.0,1203.4 1414.7,1161.9 1431.5,1119.2 1448.3,1075.2 1465.1,1029.7 1481.7,982.5 1498.0,933.3 1513.9,881.9 1529.3,828.1 1544.0,771.7 1557.8,712.3 1570.5,649.7 1581.9,583.8 1591.8,514.1 1600.0,440.5  A 1064.250,1064.250 0.00 0,0 1596.3,440.1 L 1596.3,440.1 1588.4,513.8 1578.8,583.5 1567.6,649.5 1555.1,712.1 1541.5,771.5 1527.0,828.0 1511.8,881.9 1496.0,933.3 1479.9,982.5 1463.5,1029.8 1446.9,1075.4 1430.2,1119.4 1413.6,1162.2 1397.0,1203.8 1380.5,1244.5 1364.1,1284.5 1347.9,1323.9 1331.8,1362.9 1315.9,1401.7 1300.0,1440.5 1284.0,1479.3 1268.0,1518.4 1251.9,1557.8 1235.4,1597.7 1218.5,1638.3 1201.1,1679.5 1182.9,1721.6 1163.8,1764.7 1143.5,1808.7 1122.0,1853.9 1098.8,1900.3 1073.9,1948.0 1046.8,1996.9 1017.4,2047.3 985.3,2099.1 950.2,2152.4 911.8,2207.2 869.7,2263.6 823.5,2321.5  Z" style="stroke-width: 2.0;  stroke: rgb(82,82,82); fill: rgb(255,204,204); opacity: 0.667;" />
<path d="M 823.469,2321.543 A 1064.250,1064.250 0.00 0,1 820.6,2319.2 L 820.6,2319.2 867.0,2261.3 909.5,2204.9 948.3,2150.0 983.8,2096.5 1016.4,2044.4 1046.4,1993.7 1074.2,1944.4 1099.9,1896.4 1124.0,1849.6 1146.6,1804.1 1167.9,1759.7 1188.3,1716.5 1207.9,1674.2 1227.0,1632.8 1245.6,1592.2 1264.0,1552.3 1282.2,1513.1 1300.5,1474.2 1318.9,1435.8 1337.5,1397.5 1356.3,1359.2 1375.5,1320.8 1395.1,1282.2 1415.0,1243.1 1435.4,1203.3 1456.1,1162.8 1477.2,1121.2 1498.6,1078.4 1520.2,1034.2 1542.0,988.3 1563.8,940.5 1585.6,890.5 1607.2,838.2 1628.5,783.3 1649.2,725.4 1669.3,664.4 1688.4,599.9 1706.5,531.7 1723.2,459.4  A 1064.250,1064.250 0.00 0,0 1719.6,458.7 L 1719.6,458.7 1703.1,531.0 1685.3,599.3 1666.4,663.8 1646.5,724.9 1626.0,782.8 1604.9,837.8 1583.5,890.2 1561.9,940.2 1540.2,988.1 1518.6,1034.1 1497.1,1078.4 1475.9,1121.3 1455.0,1162.9 1434.4,1203.6 1414.1,1243.4 1394.3,1282.5 1374.9,1321.3 1355.8,1359.7 1337.1,1398.0 1318.6,1436.4 1300.4,1474.9 1282.3,1513.8 1264.1,1553.2 1245.9,1593.1 1227.4,1633.7 1208.5,1675.2 1189.1,1717.5 1168.8,1760.9 1147.6,1805.3 1125.2,1850.9 1101.3,1897.7 1075.7,1945.8 1048.2,1995.3 1018.3,2046.1 985.9,2098.3 950.5,2151.9 911.9,2207.0 869.7,2263.5 823.5,2321.5  Z" style="stroke-width: 2.0;  stroke: rgb(82,82,82); fill: rgb(255,153,0); opacity: 0.667;" />
<path d="M 823.469,2321.543 A 1064.250,1064.250 0.00 0,1 820.6,2319.2 L 820.6,2319.2 869.1,2262.7 917.2,2209.9 964.8,2160.7 1011.7,2114.5 1057.8,2071.1 1103.0,2030.1 1147.2,1991.2 1190.3,1954.2 1232.2,1918.7 1272.8,1884.5 1312.1,1851.4 1350.1,1818.9 1386.8,1787.1 1422.1,1755.5 1456.1,1724.1 1488.8,1692.5 1520.3,1660.7 1550.6,1628.5 1579.8,1595.6 1608.0,1562.1 1635.3,1527.6 1661.8,1492.2 1687.7,1455.7 1713.1,1418.1 1738.2,1379.2 1763.2,1338.9 1788.3,1297.3 1813.6,1254.3 1839.5,1209.8 1866.2,1163.9 1893.9,1116.5 1922.9,1067.7 1953.6,1017.5 1986.1,965.8 2020.9,912.9 2058.3,858.7 2098.6,803.3 2142.2,746.8 2189.5,689.3  A 1064.250,1064.250 0.00 0,0 2186.7,686.9 L 2186.7,686.9 2139.6,744.6 2096.2,801.2 2056.1,856.8 2018.9,911.1 1984.3,964.2 1951.9,1015.9 1921.4,1066.2 1892.6,1115.1 1865.0,1162.6 1838.5,1208.6 1812.8,1253.2 1787.6,1296.3 1762.6,1338.0 1737.8,1378.3 1712.8,1417.3 1687.5,1455.1 1661.8,1491.7 1635.4,1527.2 1608.2,1561.7 1580.1,1595.4 1551.0,1628.3 1520.9,1660.6 1489.5,1692.6 1456.9,1724.2 1423.0,1755.8 1387.8,1787.5 1351.2,1819.5 1313.3,1852.0 1274.1,1885.3 1233.6,1919.7 1191.9,1955.3 1148.9,1992.5 1104.9,2031.5 1059.8,2072.6 1013.8,2116.2 967.1,2162.5 919.6,2212.0 871.7,2264.8 823.5,2321.5  Z" style="stroke-width: 2.0;  stroke: rgb(82,82,82); fill: rgb(255,204,0); opacity: 0.667;" />
<path d="M 823.469,2321.543 A 1064.250,1064.250 0.00 0,1 820.6,2319.2 L 820.6,2319.2 869.1,2262.7 917.2,2209.9 964.7,2160.7 1011.7,2114.5 1057.8,2071.2 1103.0,2030.2 1147.2,1991.4 1190.2,1954.4 1232.1,1919.0 1272.7,1884.9 1312.1,1851.8 1350.1,1819.4 1386.8,1787.6 1422.2,1756.1 1456.3,1724.8 1489.1,1693.3 1520.6,1661.6 1551.0,1629.5 1580.3,1596.8 1608.7,1563.3 1636.1,1529.0 1662.8,1493.8 1688.9,1457.4 1714.5,1419.9 1739.9,1381.2 1765.1,1341.1 1790.5,1299.7 1816.1,1256.8 1842.3,1212.6 1869.3,1166.9 1897.4,1119.8 1926.7,1071.2 1957.8,1021.2 1990.7,969.9 2025.9,917.3 2063.7,863.4 2104.5,808.4 2148.6,752.3 2196.4,695.2  A 1064.250,1064.250 0.00 0,0 2193.6,692.8 L 2193.6,692.8 2146.0,750.1 2102.1,806.3 2061.5,861.5 2023.9,915.5 1988.9,968.2 1956.1,1019.7 1925.3,1069.7 1896.0,1118.4 1868.1,1165.6 1841.3,1211.4 1815.3,1255.7 1789.8,1298.6 1764.6,1340.2 1739.5,1380.3 1714.3,1419.2 1688.8,1456.8 1662.8,1493.2 1636.2,1528.6 1608.9,1563.0 1580.7,1596.5 1551.5,1629.3 1521.2,1661.6 1489.7,1693.4 1457.0,1724.9 1423.1,1756.4 1387.8,1788.0 1351.2,1819.9 1313.3,1852.4 1274.1,1885.7 1233.6,1920.0 1191.8,1955.5 1148.9,1992.6 1104.8,2031.6 1059.8,2072.7 1013.8,2116.2 967.1,2162.6 919.6,2212.0 871.7,2264.8 823.5,2321.5  Z" style="stroke-width: 2.0;  stroke: rgb(82,82,82); fill: rgb(255,255,0); opacity: 0.667;" />
<path d="M 473.920,1217.531 A 1064.250,1064.250 0.00 0,1 474.9,1214.0 L 474.9,1214.0 545.9,1233.0 612.6,1249.1 675.1,1262.7 733.8,1273.9 788.9,1282.8 840.6,1289.5 889.1,1294.2 934.6,1297.0 977.5,1298.0 1017.7,1297.4 1055.6,1295.0 1091.3,1291.1 1124.9,1285.7 1156.6,1278.8 1186.6,1270.4 1215.0,1260.6 1242.0,1249.2 1267.5,1236.4 1291.9,1222.1 1315.0,1206.1 1337.1,1188.6 1358.3,1169.3 1378.5,1148.2 1397.8,1125.2 1416.4,1100.2 1434.2,1073.0 1451.3,1043.6 1467.7,1011.7 1483.5,977.1 1498.5,939.8 1512.9,899.4 1526.6,855.9 1539.6,808.9 1551.8,758.2 1563.2,703.6 1573.8,644.8 1583.5,581.6 1592.3,513.6 1600.0,440.5  A 1064.250,1064.250 0.00 0,0 1596.3,440.1 L 1596.3,440.1 1588.8,513.2 1580.3,581.3 1570.8,644.6 1560.4,703.4 1549.2,758.1 1537.1,808.8 1524.3,855.8 1510.8,899.4 1496.6,939.8 1481.7,977.2 1466.0,1011.8 1449.8,1043.7 1432.8,1073.3 1415.0,1100.5 1396.5,1125.6 1377.3,1148.6 1357.1,1169.8 1336.0,1189.1 1314.0,1206.8 1290.9,1222.8 1266.6,1237.2 1241.1,1250.1 1214.2,1261.6 1185.8,1271.5 1155.9,1280.0 1124.1,1287.0 1090.5,1292.6 1054.9,1296.6 1017.0,1299.0 976.8,1299.9 933.9,1299.0 888.4,1296.3 839.8,1291.8 788.1,1285.2 733.0,1276.6 674.3,1265.6 611.7,1252.2 545.0,1236.3 473.9,1217.5  Z" style="stroke-width: 2.0;  stroke: rgb(82,82,82); fill: rgb(204,255,0); opacity: 0.667;" />
<path d="M 473.920,1217.531 A 1064.250,1064.250 0.00 0,1 474.9,1214.0 L 474.9,1214.0 546.0,1232.9 612.8,1249.0 675.7,1262.4 734.8,1273.4 790.4,1282.0 842.7,1288.5 892.0,1293.0 938.4,1295.6 982.2,1296.4 1023.6,1295.5 1062.7,1293.0 1099.7,1289.0 1134.8,1283.5 1168.2,1276.6 1199.9,1268.2 1230.2,1258.4 1259.2,1247.3 1286.9,1234.7 1313.6,1220.7 1339.3,1205.1 1364.1,1188.0 1388.2,1169.3 1411.5,1148.8 1434.3,1126.5 1456.4,1102.3 1478.0,1076.0 1499.2,1047.5 1520.0,1016.6 1540.4,983.1 1560.4,946.9 1580.0,907.8 1599.3,865.4 1618.3,819.7 1636.9,770.4 1655.0,717.1 1672.8,659.7 1690.1,597.8 1707.0,531.2 1723.2,459.4  A 1064.250,1064.250 0.00 0,0 1719.6,458.7 L 1719.6,458.7 1703.6,530.4 1687.0,597.2 1669.9,659.1 1652.3,716.6 1634.3,769.9 1615.9,819.3 1597.1,865.1 1578.0,907.5 1558.5,946.7 1538.6,983.0 1518.3,1016.5 1497.7,1047.5 1476.6,1076.1 1455.0,1102.5 1433.0,1126.8 1410.3,1149.1 1387.0,1169.7 1363.1,1188.5 1338.3,1205.7 1312.6,1221.3 1286.0,1235.4 1258.3,1248.1 1229.4,1259.4 1199.1,1269.2 1167.4,1277.7 1134.0,1284.8 1099.0,1290.4 1062.0,1294.5 1022.9,1297.1 981.5,1298.2 937.7,1297.5 891.3,1295.1 842.0,1290.8 789.6,1284.5 734.0,1276.1 674.8,1265.3 611.9,1252.1 545.1,1236.2 473.9,1217.5  Z" style="stroke-width: 2.0;  stroke: rgb(82,82,82); fill: rgb(0,255,0); opacity: 0.667;" />
<path d="M 473.920,1217.531 A 1064.250,1064.250 0.00 0,1 474.9,1214.0 L 474.9,1214.0 546.3,1232.8 613.9,1248.6 678.1,1261.6 739.0,1272.0 797.0,1280.2 852.1,1286.2 904.6,1290.3 954.7,1292.7 1002.6,1293.5 1048.5,1292.9 1092.6,1291.0 1135.0,1287.8 1176.0,1283.6 1215.7,1278.3 1254.3,1272.1 1291.9,1264.9 1328.7,1256.9 1364.9,1247.9 1400.5,1238.0 1435.8,1227.2 1470.9,1215.4 1505.9,1202.6 1541.0,1188.7 1576.1,1173.6 1611.6,1157.2 1647.5,1139.4 1683.8,1119.9 1720.7,1098.8 1758.3,1075.7 1796.7,1050.6 1836.0,1023.1 1876.2,993.1 1917.4,960.3 1959.7,924.4 2003.1,885.3 2047.8,842.5 2093.7,795.8 2140.9,744.9 2189.5,689.3  A 1064.250,1064.250 0.00 0,0 2186.7,686.9 L 2186.7,686.9 2138.3,742.6 2091.2,793.8 2045.5,840.6 2001.0,883.5 1957.7,922.8 1915.5,958.8 1874.4,991.8 1834.3,1021.9 1795.2,1049.5 1756.9,1074.8 1719.3,1098.0 1682.5,1119.3 1646.2,1138.8 1610.4,1156.8 1575.0,1173.3 1539.9,1188.6 1504.9,1202.6 1469.9,1215.5 1434.9,1227.4 1399.6,1238.4 1364.0,1248.4 1327.8,1257.5 1291.1,1265.7 1253.5,1273.0 1214.9,1279.3 1175.2,1284.7 1134.3,1289.1 1091.8,1292.4 1047.8,1294.5 1001.9,1295.3 954.0,1294.6 903.9,1292.4 851.3,1288.5 796.2,1282.6 738.3,1274.7 677.3,1264.4 613.0,1251.7 545.3,1236.1 473.9,1217.5  Z" style="stroke-width: 2.0;  stroke: rgb(82,82,82); fill: rgb(53,128,0); opacity: 0.667;" />
<path d="M 473.920,1217.531 A 1064.250,1064.250 0.00 0,1 474.9,1214.0 L 474.9,1214.0 546.3,1232.8 613.9,1248.6 678.1,1261.6 739.1,1272.0 797.1,1280.2 852.2,1286.2 904.8,1290.3 955.0,1292.7 1002.9,1293.5 1048.9,1292.9 1093.1,1291.0 1135.6,1287.9 1176.7,1283.7 1216.5,1278.5 1255.1,1272.3 1292.9,1265.2 1329.8,1257.3 1366.1,1248.4 1401.9,1238.6 1437.4,1227.9 1472.6,1216.3 1507.7,1203.6 1543.0,1189.9 1578.3,1175.0 1614.0,1158.7 1650.0,1141.1 1686.6,1121.9 1723.7,1101.0 1761.6,1078.2 1800.2,1053.3 1839.8,1026.1 1880.3,996.4 1921.8,963.9 1964.4,928.4 2008.2,889.6 2053.3,847.2 2099.6,800.9 2147.3,750.3 2196.4,695.2  A 1064.250,1064.250 0.00 0,0 2193.6,692.8 L 2193.6,692.8 2144.7,748.1 2097.2,798.8 2051.0,845.3 2006.1,887.8 1962.4,926.8 1919.9,962.4 1878.5,995.1 1838.1,1024.9 1798.7,1052.2 1760.1,1077.3 1722.3,1100.2 1685.3,1121.3 1648.8,1140.6 1612.8,1158.3 1577.2,1174.7 1541.9,1189.7 1506.7,1203.6 1471.6,1216.4 1436.4,1228.2 1401.0,1239.0 1365.2,1248.9 1329.0,1257.9 1292.1,1266.0 1254.3,1273.2 1215.7,1279.5 1175.9,1284.9 1134.9,1289.2 1092.3,1292.5 1048.2,1294.5 1002.2,1295.3 954.2,1294.6 904.1,1292.4 851.5,1288.5 796.3,1282.6 738.3,1274.7 677.3,1264.4 613.1,1251.7 545.3,1236.1 473.9,1217.5  Z" style="stroke-width: 2.0;  stroke: rgb(82,82,82); fill: rgb(0,0,204); opacity: 0.667;" />
<path d="M 473.920,1217.531 A 1064.250,1064.250 0.00 0,1 474.9,1214.0 L 474.9,1214.0 545.4,1234.3 610.7,1254.6 670.9,1274.7 726.4,1294.7 777.6,1314.6 824.5,1334.4 867.5,1354.1 906.8,1373.7 942.7,1393.3 975.2,1413.0 1004.7,1432.7 1031.2,1452.5 1054.9,1472.4 1075.9,1492.6 1094.5,1513.0 1110.6,1533.7 1124.3,1554.8 1135.8,1576.4 1145.1,1598.5 1152.2,1621.3 1157.2,1644.8 1160.1,1669.0 1160.8,1694.2 1159.4,1720.4 1155.8,1747.8 1149.9,1776.3 1141.8,1806.2 1131.3,1837.6 1118.3,1870.5 1102.8,1905.2 1084.5,1941.8 1063.4,1980.3 1039.3,2021.0 1012.0,2064.0 981.3,2109.5 947.1,2157.6 909.0,2208.4 867.0,2262.2 820.6,2319.2  A 1064.250,1064.250 0.00 0,0 823.5,2321.5 L 823.5,2321.5 869.6,2264.4 911.5,2210.5 949.3,2159.5 983.4,2111.3 1013.9,2065.7 1041.1,2022.6 1065.1,1981.9 1086.1,1943.2 1104.2,1906.6 1119.6,1871.9 1132.5,1838.9 1142.9,1807.5 1150.9,1777.5 1156.6,1749.0 1160.1,1721.6 1161.5,1695.4 1160.6,1670.2 1157.7,1645.9 1152.6,1622.5 1145.4,1599.8 1136.1,1577.7 1124.5,1556.1 1110.7,1535.0 1094.5,1514.4 1075.9,1494.0 1054.8,1474.0 1031.0,1454.1 1004.4,1434.4 974.9,1414.8 942.3,1395.3 906.4,1375.8 867.0,1356.3 823.9,1336.7 776.9,1317.1 725.7,1297.4 670.1,1277.6 609.8,1257.7 544.5,1237.7 473.9,1217.5  Z" style="stroke-width: 2.0;  stroke: rgb(82,82,82); fill: rgb(102,153,255); opacity: 0.667;" />
<path d="M 1110.638,509.533 A 1064.250,1064.250 0.00 0,1 1114.1,508.2 L 1114.1,508.2 1140.9,576.3 1166.3,639.2 1190.2,696.9 1212.9,749.9 1234.3,798.4 1254.5,842.5 1273.6,882.5 1291.7,918.6 1308.8,950.9 1324.9,979.7 1340.3,1005.0 1354.8,1027.1 1368.6,1045.9 1381.7,1061.7 1394.2,1074.5 1406.1,1084.4 1417.4,1091.4 1428.3,1095.6 1438.7,1097.0 1448.7,1095.6 1458.4,1091.4 1467.7,1084.4 1476.7,1074.5 1485.4,1061.8 1493.9,1046.1 1502.2,1027.3 1510.3,1005.4 1518.3,980.2 1526.1,951.6 1533.8,919.6 1541.4,883.8 1548.9,844.1 1556.4,800.4 1563.7,752.4 1571.1,700.0 1578.3,642.8 1585.6,580.7 1592.8,513.3 1600.0,440.5  A 1064.250,1064.250 0.00 0,0 1596.3,440.1 L 1596.3,440.1 1589.4,513.0 1582.4,580.4 1575.4,642.6 1568.3,699.8 1561.1,752.2 1553.9,800.2 1546.6,844.0 1539.2,883.6 1531.8,919.4 1524.2,951.6 1516.5,980.1 1508.6,1005.3 1500.6,1027.3 1492.3,1046.1 1483.9,1061.8 1475.2,1074.6 1466.2,1084.5 1456.9,1091.5 1447.3,1095.7 1437.3,1097.2 1426.9,1095.8 1416.0,1091.7 1404.6,1084.7 1392.7,1074.9 1380.2,1062.1 1367.0,1046.4 1353.2,1027.6 1338.6,1005.6 1323.1,980.3 1306.8,951.6 1289.6,919.3 1271.4,883.3 1252.2,843.4 1231.8,799.3 1210.3,750.9 1187.4,698.0 1163.3,640.3 1137.7,577.6 1110.6,509.5  Z" style="stroke-width: 2.0;  stroke: rgb(82,82,82); fill: rgb(153,204,255); opacity: 0.667;" />
<path d="M 1110.638,509.533 A 1064.250,1064.250 0.00 0,1 1114.1,508.2 L 1114.1,508.2 1141.0,576.3 1166.6,639.1 1190.9,696.9 1214.0,749.9 1236.0,798.3 1256.9,842.4 1276.9,882.4 1295.9,918.4 1314.1,950.8 1331.4,979.6 1348.1,1005.0 1364.0,1027.1 1379.4,1046.1 1394.2,1062.0 1408.4,1075.0 1422.3,1085.1 1435.7,1092.4 1448.8,1096.9 1461.6,1098.6 1474.1,1097.6 1486.4,1093.9 1498.6,1087.3 1510.7,1078.0 1522.8,1065.9 1534.8,1050.8 1546.9,1032.7 1559.0,1011.5 1571.2,987.1 1583.6,959.4 1596.2,928.2 1609.0,893.4 1622.0,854.7 1635.4,812.1 1649.0,765.2 1663.0,713.9 1677.4,657.9 1692.2,597.0 1707.5,531.0 1723.2,459.4  A 1064.250,1064.250 0.00 0,0 1719.6,458.7 L 1719.6,458.7 1704.1,530.3 1689.1,596.4 1674.5,657.3 1660.3,713.3 1646.5,764.7 1633.0,811.6 1619.8,854.3 1606.9,893.0 1594.2,927.9 1581.7,959.1 1569.5,986.9 1557.3,1011.3 1545.2,1032.5 1533.3,1050.7 1521.3,1065.8 1509.3,1078.0 1497.2,1087.4 1485.0,1093.9 1472.7,1097.7 1460.2,1098.7 1447.4,1097.1 1434.3,1092.6 1420.8,1085.4 1407.0,1075.3 1392.6,1062.4 1377.8,1046.5 1362.4,1027.6 1346.4,1005.5 1329.6,980.2 1312.2,951.5 1293.9,919.2 1274.7,883.1 1254.6,843.2 1233.5,799.2 1211.4,750.9 1188.1,698.0 1163.6,640.3 1137.8,577.6 1110.6,509.5  Z" style="stroke-width: 2.0;  stroke: rgb(82,82,82); fill: rgb(0,255,255); opacity: 0.667;" />
<path d="M 1110.638,509.533 A 1064.250,1064.250 0.00 0,1 1114.1,508.2 L 1114.1,508.2 1141.3,576.3 1167.8,639.2 1193.5,697.1 1218.6,750.3 1243.1,799.1 1267.0,843.7 1290.4,884.4 1313.3,921.3 1335.7,954.7 1357.8,984.8 1379.6,1011.8 1401.2,1035.8 1422.6,1056.9 1443.9,1075.2 1465.1,1091.0 1486.3,1104.2 1507.7,1115.0 1529.2,1123.3 1551.0,1129.4 1573.2,1133.1 1595.8,1134.5 1618.9,1133.7 1642.6,1130.5 1667.0,1125.0 1692.2,1117.1 1718.3,1106.7 1745.4,1093.7 1773.6,1078.2 1803.1,1059.8 1833.8,1038.6 1866.0,1014.4 1899.8,987.0 1935.2,956.3 1972.4,921.9 2011.5,883.9 2052.6,841.8 2095.9,795.6 2141.5,744.8 2189.5,689.3  A 1064.250,1064.250 0.00 0,0 2186.7,686.9 L 2186.7,686.9 2138.9,742.6 2093.4,793.5 2050.3,839.9 2009.3,882.1 1970.3,920.3 1933.3,954.7 1898.0,985.6 1864.3,1013.2 1832.2,1037.5 1801.5,1058.8 1772.2,1077.2 1744.0,1092.9 1716.9,1105.9 1690.9,1116.4 1665.7,1124.4 1641.3,1130.0 1617.6,1133.3 1594.5,1134.2 1571.9,1132.9 1549.8,1129.2 1527.9,1123.2 1506.4,1114.9 1485.0,1104.2 1463.7,1091.1 1442.4,1075.4 1421.1,1057.1 1399.6,1036.1 1378.0,1012.2 1356.1,985.3 1333.8,955.3 1311.2,922.0 1288.2,885.1 1264.7,844.5 1240.6,800.0 1216.0,751.3 1190.7,698.2 1164.8,640.4 1138.1,577.6 1110.6,509.5  Z" style="stroke-width: 2.0;  stroke: rgb(82,82,82); fill: rgb(204,255,255); opacity: 0.667;" />
<path d="M 1110.638,509.533 A 1064.250,1064.250 0.00 0,1 1114.1,508.2 L 1114.1,508.2 1141.3,576.3 1167.8,639.2 1193.6,697.1 1218.7,750.3 1243.2,799.1 1267.1,843.8 1290.6,884.4 1313.5,921.4 1336.1,954.9 1358.3,985.0 1380.2,1012.0 1401.8,1036.0 1423.3,1057.2 1444.7,1075.6 1466.0,1091.4 1487.3,1104.7 1508.8,1115.6 1530.5,1124.1 1552.4,1130.2 1574.7,1134.1 1597.4,1135.6 1620.7,1134.9 1644.6,1131.9 1669.2,1126.5 1694.6,1118.8 1720.9,1108.6 1748.2,1095.9 1776.7,1080.5 1806.3,1062.4 1837.4,1041.5 1869.8,1017.5 1903.9,990.4 1939.6,960.0 1977.1,926.0 2016.6,888.2 2058.1,846.5 2101.8,800.6 2147.9,750.3 2196.4,695.2  A 1064.250,1064.250 0.00 0,0 2193.6,692.8 L 2193.6,692.8 2145.3,748.0 2099.4,798.6 2055.8,844.6 2014.5,886.4 1975.1,924.3 1937.7,958.4 1902.1,989.0 1868.1,1016.3 1835.8,1040.3 1804.8,1061.4 1775.2,1079.6 1746.8,1095.0 1719.5,1107.8 1693.2,1118.1 1667.9,1126.0 1643.3,1131.4 1619.4,1134.5 1596.2,1135.3 1573.4,1133.8 1551.1,1130.0 1529.2,1124.0 1507.5,1115.6 1486.0,1104.8 1464.6,1091.5 1443.2,1075.8 1421.7,1057.4 1400.2,1036.4 1378.5,1012.4 1356.5,985.5 1334.2,955.4 1311.5,922.1 1288.4,885.2 1264.9,844.6 1240.8,800.0 1216.1,751.3 1190.8,698.2 1164.8,640.4 1138.1,577.6 1110.6,509.5  Z" style="stroke-width: 2.0;  stroke: rgb(82,82,82); fill: rgb(153,0,204); opacity: 0.667;" />
<path d="M 1110.638,509.533 A 1064.250,1064.250 0.00 0,1 1114.1,508.2 L 1114.1,508.2 1139.9,577.4 1162.2,643.3 1181.5,706.1 1197.9,766.0 1211.8,823.1 1223.3,877.8 1232.7,930.1 1240.1,980.3 1245.8,1028.4 1250.0,1074.8 1252.8,1119.5 1254.2,1162.7 1254.5,1204.7 1253.8,1245.5 1252.0,1285.4 1249.4,1324.4 1245.8,1362.8 1241.5,1400.6 1236.3,1438.1 1230.2,1475.4 1223.3,1512.6 1215.5,1550.0 1206.7,1587.5 1196.9,1625.3 1186.0,1663.7 1173.8,1702.7 1160.3,1742.4 1145.2,1783.0 1128.5,1824.5 1109.9,1867.2 1089.3,1911.1 1066.4,1956.3 1041.0,2003.0 1012.8,2051.2 981.6,2101.1 947.1,2152.7 909.0,2206.2 866.9,2261.7 820.6,2319.2  A 1064.250,1064.250 0.00 0,0 823.5,2321.5 L 823.5,2321.5 869.6,2263.9 911.4,2208.3 949.4,2154.6 983.7,2102.9 1014.7,2052.9 1042.7,2004.6 1068.0,1957.8 1090.7,1912.5 1111.2,1868.5 1129.6,1825.8 1146.2,1784.2 1161.1,1743.6 1174.5,1703.8 1186.6,1664.8 1197.4,1626.4 1207.0,1588.5 1215.7,1550.9 1223.3,1513.6 1230.1,1476.4 1236.0,1439.0 1241.1,1401.5 1245.4,1363.6 1248.8,1325.3 1251.3,1286.2 1252.9,1246.4 1253.5,1205.6 1253.0,1163.6 1251.4,1120.4 1248.5,1075.6 1244.2,1029.3 1238.3,981.2 1230.7,931.0 1221.1,878.8 1209.4,824.1 1195.4,767.0 1178.8,707.2 1159.3,644.4 1136.7,578.6 1110.6,509.5  Z" style="stroke-width: 2.0;  stroke: rgb(82,82,82); fill: rgb(204,51,255); opacity: 0.667;" />
<path d="M 1110.638,509.533 A 1064.250,1064.250 0.00 0,1 1114.1,508.2 L 1114.1,508.2 1140.2,576.7 1163.3,640.7 1183.7,700.5 1201.5,756.2 1216.9,808.0 1229.9,856.3 1240.6,901.1 1249.3,942.8 1255.9,981.4 1260.6,1017.2 1263.3,1050.3 1264.3,1080.9 1263.4,1109.1 1260.8,1135.0 1256.4,1158.8 1250.4,1180.6 1242.5,1200.4 1233.0,1218.4 1221.6,1234.7 1208.5,1249.2 1193.4,1262.1 1176.5,1273.4 1157.5,1283.1 1136.4,1291.3 1113.2,1298.0 1087.7,1303.2 1059.7,1306.8 1029.2,1308.9 995.9,1309.4 959.9,1308.3 920.8,1305.6 878.5,1301.1 832.7,1294.8 783.4,1286.6 730.3,1276.5 673.1,1264.3 611.7,1249.9 545.7,1233.1 474.9,1214.0  A 1064.250,1064.250 0.00 0,0 473.9,1217.5 L 473.9,1217.5 544.8,1236.5 610.8,1253.0 672.3,1267.1 729.5,1279.2 782.7,1289.1 832.0,1297.1 877.8,1303.2 920.1,1307.6 959.2,1310.2 995.3,1311.2 1028.5,1310.5 1059.0,1308.4 1087.0,1304.6 1112.5,1299.4 1135.7,1292.6 1156.8,1284.3 1175.7,1274.5 1192.6,1263.2 1207.6,1250.2 1220.7,1235.6 1232.0,1219.4 1241.5,1201.3 1249.3,1181.5 1255.3,1159.7 1259.5,1135.9 1262.0,1109.9 1262.8,1081.7 1261.8,1051.2 1258.9,1018.1 1254.1,982.3 1247.3,943.7 1238.6,902.1 1227.6,857.2 1214.5,809.0 1198.9,757.2 1180.9,701.6 1160.3,641.9 1136.9,578.0 1110.6,509.5  Z" style="stroke-width: 2.0;  stroke: rgb(82,82,82); fill: rgb(204,153,255); opacity: 0.667;" />
<path d="M 1173.187,487.172 A 1064.250,1064.250 0.00 0,1 1176.7,486.0 L 1176.7,486.0 1199.2,555.7 1220.5,620.0 1240.6,679.2 1259.6,733.5 1277.6,783.2 1294.7,828.5 1310.8,869.6 1326.1,906.8 1340.5,940.1 1354.3,969.8 1367.3,996.0 1379.7,1018.9 1391.4,1038.5 1402.6,1055.0 1413.3,1068.5 1423.6,1079.0 1433.3,1086.6 1442.7,1091.3 1451.8,1093.2 1460.5,1092.3 1468.9,1088.5 1477.1,1081.9 1485.0,1072.4 1492.8,1059.9 1500.4,1044.5 1507.8,1026.0 1515.1,1004.3 1522.3,979.3 1529.5,950.9 1536.6,919.0 1543.6,883.4 1550.6,843.8 1557.6,800.2 1564.6,752.3 1571.7,699.9 1578.7,642.8 1585.7,580.7 1592.8,513.3 1600.0,440.5  A 1064.250,1064.250 0.00 0,0 1596.3,440.1 L 1596.3,440.1 1589.4,513.0 1582.5,580.4 1575.7,642.5 1568.9,699.7 1562.0,752.1 1555.2,800.0 1548.3,843.6 1541.5,883.2 1534.6,918.9 1527.6,950.8 1520.5,979.3 1513.4,1004.3 1506.2,1026.0 1498.8,1044.5 1491.3,1060.0 1483.6,1072.4 1475.6,1082.0 1467.5,1088.6 1459.1,1092.4 1450.4,1093.4 1441.3,1091.5 1431.9,1086.8 1422.1,1079.3 1411.8,1068.8 1401.1,1055.4 1389.8,1038.9 1378.0,1019.3 1365.5,996.5 1352.4,970.3 1338.6,940.7 1324.0,907.4 1308.6,870.3 1292.3,829.2 1275.1,784.0 1257.0,734.4 1237.7,680.1 1217.4,621.0 1195.9,556.8 1173.2,487.2  Z" style="stroke-width: 2.0;  stroke: rgb(82,82,82); fill: rgb(102,102,102); opacity: 0.667;" />
<path d="M 1173.187,487.172 A 1064.250,1064.250 0.00 0,1 1176.7,486.0 L 1176.7,486.0 1199.3,555.7 1220.8,620.0 1241.2,679.2 1260.7,733.5 1279.3,783.2 1297.1,828.4 1314.1,869.6 1330.3,906.7 1345.9,940.1 1360.8,969.9 1375.1,996.2 1388.9,1019.1 1402.2,1038.9 1415.1,1055.6 1427.6,1069.2 1439.7,1079.9 1451.6,1087.8 1463.2,1092.8 1474.6,1095.1 1485.9,1094.5 1497.0,1091.2 1508.1,1085.1 1519.1,1076.1 1530.2,1064.2 1541.3,1049.4 1552.5,1031.6 1563.8,1010.6 1575.3,986.4 1587.0,958.8 1599.0,927.8 1611.2,893.1 1623.8,854.5 1636.7,811.9 1649.9,765.1 1663.6,713.8 1677.8,657.9 1692.4,597.0 1707.5,531.0 1723.2,459.4  A 1064.250,1064.250 0.00 0,0 1719.6,458.7 L 1719.6,458.7 1704.2,530.3 1689.3,596.4 1674.8,657.3 1660.9,713.3 1647.4,764.6 1634.3,811.4 1621.5,854.1 1609.1,892.7 1597.0,927.4 1585.1,958.5 1573.5,986.2 1562.1,1010.4 1550.9,1031.4 1539.7,1049.3 1528.7,1064.1 1517.7,1076.0 1506.7,1085.0 1495.6,1091.2 1484.5,1094.6 1473.2,1095.2 1461.8,1093.0 1450.2,1088.0 1438.3,1080.2 1426.1,1069.5 1413.6,1055.9 1400.6,1039.2 1387.2,1019.5 1373.4,996.6 1358.9,970.4 1343.9,940.7 1328.3,907.3 1311.9,870.2 1294.8,829.2 1276.9,783.9 1258.1,734.3 1238.4,680.1 1217.7,621.0 1196.0,556.8 1173.2,487.2  Z" style="stroke-width: 2.0;  stroke: rgb(82,82,82); fill: rgb(153,153,153); opacity: 0.667;" />
<path d="M 1173.187,487.172 A 1064.250,1064.250 0.00 0,1 1176.7,486.0 L 1176.7,486.0 1199.6,555.8 1222.0,620.1 1243.9,679.5 1265.4,734.1 1286.4,784.2 1307.2,830.0 1327.6,871.9 1347.7,910.0 1367.5,944.5 1387.2,975.6 1406.6,1003.6 1426.0,1028.4 1445.4,1050.4 1464.8,1069.5 1484.2,1086.0 1503.8,1099.9 1523.6,1111.3 1543.6,1120.2 1564.1,1126.8 1584.9,1131.0 1606.3,1132.8 1628.3,1132.3 1650.9,1129.4 1674.3,1124.2 1698.6,1116.5 1723.9,1106.3 1750.2,1093.5 1777.7,1078.0 1806.5,1059.8 1836.6,1038.7 1868.2,1014.5 1901.5,987.1 1936.4,956.3 1973.2,922.0 2012.0,883.9 2052.9,841.9 2096.1,795.6 2141.5,744.8 2189.5,689.3  A 1064.250,1064.250 0.00 0,0 2186.7,686.9 L 2186.7,686.9 2138.9,742.6 2093.6,793.5 2050.6,840.0 2009.9,882.2 1971.2,920.4 1934.5,954.8 1899.7,985.7 1866.5,1013.2 1835.0,1037.5 1804.9,1058.7 1776.2,1077.1 1748.8,1092.6 1722.5,1105.5 1697.3,1115.8 1673.0,1123.6 1649.6,1128.9 1627.0,1131.8 1605.0,1132.4 1583.6,1130.7 1562.8,1126.6 1542.3,1120.1 1522.2,1111.2 1502.4,1099.9 1482.8,1086.1 1463.3,1069.6 1443.8,1050.6 1424.4,1028.7 1404.9,1003.9 1385.3,976.0 1365.6,945.0 1345.6,910.5 1325.4,872.5 1304.8,830.7 1284.0,784.9 1262.7,734.9 1241.0,680.4 1218.9,621.1 1196.3,556.8 1173.2,487.2  Z" style="stroke-width: 2.0;  stroke: rgb(82,82,82); fill: rgb(204,204,204); opacity: 0.667;" />
<path d="M 1173.187,487.172 A 1064.250,1064.250 0.00 0,1 1176.7,486.0 L 1176.7,486.0 1199.6,555.8 1222.0,620.1 1243.9,679.5 1265.4,734.1 1286.6,784.2 1307.3,830.1 1327.8,872.0 1347.9,910.1 1367.9,944.7 1387.6,975.8 1407.2,1003.8 1426.6,1028.7 1446.1,1050.7 1465.5,1069.9 1485.1,1086.5 1504.8,1100.4 1524.7,1111.9 1544.9,1121.0 1565.4,1127.6 1586.4,1131.9 1608.0,1133.9 1630.1,1133.5 1652.9,1130.8 1676.5,1125.7 1701.0,1118.2 1726.5,1108.2 1753.0,1095.6 1780.7,1080.4 1809.7,1062.4 1840.1,1041.5 1872.0,1017.6 1905.6,990.5 1940.9,960.1 1978.0,926.1 2017.2,888.3 2058.5,846.6 2102.0,800.7 2147.9,750.3 2196.4,695.2  A 1064.250,1064.250 0.00 0,0 2193.6,692.8 L 2193.6,692.8 2145.3,748.1 2099.6,798.6 2056.2,844.6 2015.0,886.5 1976.0,924.4 1939.0,958.5 1903.8,989.1 1870.4,1016.3 1838.5,1040.4 1808.2,1061.3 1779.3,1079.4 1751.6,1094.8 1725.1,1107.4 1699.7,1117.5 1675.2,1125.1 1651.6,1130.3 1628.8,1133.1 1606.7,1133.5 1585.2,1131.6 1564.2,1127.4 1543.6,1120.8 1523.3,1111.8 1503.4,1100.4 1483.7,1086.5 1464.0,1070.0 1444.5,1050.9 1425.0,1029.0 1405.4,1004.1 1385.8,976.2 1365.9,945.1 1345.9,910.6 1325.6,872.6 1305.0,830.8 1284.1,785.0 1262.8,734.9 1241.1,680.4 1218.9,621.1 1196.3,556.8 1173.2,487.2  Z" style="stroke-width: 2.0;  stroke: rgb(82,82,82); fill: rgb(204,204,153); opacity: 0.667;" />
<path d="M 1173.187,487.172 A 1064.250,1064.250 0.00 0,1 1176.7,486.0 L 1176.7,486.0 1198.1,556.7 1216.3,624.0 1231.6,688.1 1244.3,749.1 1254.5,807.3 1262.6,862.9 1268.8,916.1 1273.2,967.1 1276.1,1016.0 1277.5,1063.0 1277.7,1108.4 1276.8,1152.2 1274.9,1194.7 1272.1,1236.1 1268.4,1276.4 1263.9,1316.0 1258.8,1354.8 1252.8,1393.1 1246.2,1431.1 1238.9,1468.9 1230.8,1506.5 1221.9,1544.3 1212.2,1582.3 1201.6,1620.6 1189.8,1659.4 1177.0,1698.8 1162.9,1738.9 1147.3,1779.9 1130.1,1821.9 1111.2,1865.0 1090.2,1909.3 1067.0,1954.9 1041.4,2001.9 1013.1,2050.4 981.8,2100.5 947.2,2152.4 909.0,2206.1 866.9,2261.6 820.6,2319.2  A 1064.250,1064.250 0.00 0,0 823.5,2321.5 L 823.5,2321.5 869.6,2263.8 911.5,2208.1 949.4,2154.3 983.9,2102.3 1015.0,2052.1 1043.1,2003.5 1068.6,1956.4 1091.6,1910.7 1112.4,1866.3 1131.2,1823.2 1148.3,1781.2 1163.7,1740.1 1177.7,1699.9 1190.4,1660.5 1202.0,1621.6 1212.5,1583.3 1222.1,1545.3 1230.8,1507.5 1238.8,1469.8 1246.0,1432.0 1252.5,1394.0 1258.2,1355.7 1263.3,1316.8 1267.6,1277.3 1271.2,1236.9 1273.9,1195.5 1275.6,1153.0 1276.4,1109.1 1276.0,1063.8 1274.4,1016.8 1271.4,967.9 1266.8,916.9 1260.4,863.8 1252.1,808.2 1241.7,750.0 1228.8,689.0 1213.3,625.0 1194.8,557.8 1173.2,487.2  Z" style="stroke-width: 2.0;  stroke: rgb(82,82,82); fill: rgb(251,106,74); opacity: 0.667;" />
<path d="M 1173.187,487.172 A 1064.250,1064.250 0.00 0,1 1176.7,486.0 L 1176.7,486.0 1198.4,556.1 1217.5,621.5 1234.0,682.6 1248.1,739.4 1260.0,792.4 1269.7,841.7 1277.4,887.5 1283.2,930.0 1287.1,969.5 1289.2,1006.0 1289.6,1039.9 1288.3,1071.1 1285.3,1099.9 1280.7,1126.4 1274.5,1150.8 1266.7,1173.1 1257.3,1193.4 1246.3,1211.9 1233.5,1228.6 1219.1,1243.6 1202.8,1256.9 1184.8,1268.7 1164.8,1278.8 1142.8,1287.4 1118.7,1294.5 1092.3,1300.1 1063.6,1304.1 1032.5,1306.5 998.7,1307.4 962.1,1306.6 922.5,1304.2 879.8,1300.0 833.7,1293.9 784.1,1286.0 730.7,1276.1 673.4,1264.0 611.8,1249.8 545.7,1233.1 474.9,1214.0  A 1064.250,1064.250 0.00 0,0 473.9,1217.5 L 473.9,1217.5 544.8,1236.4 610.9,1252.8 672.6,1266.9 730.0,1278.8 783.4,1288.5 833.0,1296.3 879.1,1302.1 921.8,1306.2 961.4,1308.5 998.0,1309.1 1031.8,1308.2 1063.0,1305.6 1091.6,1301.5 1118.0,1295.8 1142.0,1288.7 1164.0,1280.0 1184.0,1269.8 1202.0,1258.0 1218.2,1244.6 1232.6,1229.5 1245.3,1212.8 1256.3,1194.3 1265.6,1173.9 1273.3,1151.6 1279.4,1127.2 1283.9,1100.7 1286.8,1071.8 1288.0,1040.6 1287.5,1006.8 1285.3,970.2 1281.2,930.8 1275.3,888.3 1267.5,842.5 1257.5,793.2 1245.5,740.3 1231.2,683.5 1214.4,622.5 1195.1,557.2 1173.2,487.2  Z" style="stroke-width: 2.0;  stroke: rgb(82,82,82); fill: rgb(116,196,118); opacity: 0.667;" />
<path d="M 1173.187,487.172 A 1064.250,1064.250 0.00 0,1 1176.7,486.0 L 1176.7,486.0 1198.9,555.8 1219.3,620.3 1238.1,679.7 1255.3,734.4 1270.9,784.6 1285.2,830.5 1298.0,872.3 1309.5,910.1 1319.8,944.2 1328.9,974.8 1336.8,1001.9 1343.6,1025.7 1349.3,1046.3 1353.9,1063.9 1357.6,1078.4 1360.2,1090.1 1361.8,1098.9 1362.5,1104.9 1362.2,1108.1 1360.9,1108.5 1358.6,1106.2 1355.3,1101.2 1351.1,1093.3 1345.8,1082.6 1339.5,1069.0 1332.0,1052.4 1323.5,1032.8 1313.8,1010.0 1302.9,983.9 1290.8,954.5 1277.3,921.5 1262.5,884.8 1246.3,844.3 1228.5,799.6 1209.1,750.8 1188.1,697.4 1165.3,639.4 1140.7,576.4 1114.1,508.2  A 1064.250,1064.250 0.00 0,0 1110.6,509.5 L 1110.6,509.5 1137.5,577.6 1162.3,640.6 1185.3,698.5 1206.5,751.8 1226.0,800.6 1244.0,845.1 1260.4,885.6 1275.3,922.3 1288.9,955.2 1301.1,984.6 1312.1,1010.6 1321.9,1033.4 1330.5,1053.0 1338.0,1069.5 1344.3,1083.1 1349.7,1093.8 1354.0,1101.7 1357.2,1106.7 1359.5,1109.0 1360.8,1108.6 1361.1,1105.4 1360.4,1099.4 1358.8,1090.6 1356.1,1078.9 1352.4,1064.4 1347.7,1046.8 1341.9,1026.2 1335.0,1002.4 1327.0,975.4 1317.9,944.9 1307.5,910.8 1295.8,873.0 1282.8,831.2 1268.5,785.4 1252.6,735.3 1235.3,680.7 1216.3,621.3 1195.6,556.8 1173.2,487.2  Z" style="stroke-width: 2.0;  stroke: rgb(82,82,82); fill: rgb(107,174,214); opacity: 0.667;" />
<path d="M 1364.731,444.382 A 1064.250,1064.250 0.00 0,1 1368.4,443.9 L 1368.4,443.9 1377.6,516.5 1386.4,583.6 1394.7,645.5 1402.7,702.3 1410.3,754.4 1417.6,802.0 1424.6,845.2 1431.3,884.4 1437.7,919.7 1443.9,951.2 1449.8,979.1 1455.5,1003.5 1461.0,1024.6 1466.4,1042.5 1471.6,1057.3 1476.7,1069.0 1481.7,1077.7 1486.6,1083.4 1491.4,1086.2 1496.2,1086.2 1500.9,1083.2 1505.6,1077.3 1510.4,1068.5 1515.1,1056.6 1519.9,1041.7 1524.7,1023.7 1529.6,1002.4 1534.6,977.8 1539.7,949.7 1544.9,918.1 1550.3,882.6 1555.8,843.3 1561.5,799.8 1567.3,752.1 1573.4,699.8 1579.7,642.7 1586.2,580.7 1592.9,513.3 1600.0,440.5  A 1064.250,1064.250 0.00 0,0 1596.3,440.1 L 1596.3,440.1 1589.5,513.0 1583.0,580.4 1576.7,642.4 1570.6,699.5 1564.7,751.8 1559.0,799.6 1553.5,843.1 1548.1,882.5 1542.9,917.9 1537.8,949.6 1532.8,977.7 1527.9,1002.3 1523.1,1023.6 1518.3,1041.6 1513.6,1056.6 1508.9,1068.4 1504.2,1077.3 1499.5,1083.2 1494.8,1086.2 1490.0,1086.3 1485.2,1083.5 1480.2,1077.7 1475.2,1069.0 1470.1,1057.4 1464.8,1042.6 1459.4,1024.8 1453.8,1003.7 1448.0,979.2 1441.9,951.4 1435.7,919.9 1429.1,884.7 1422.3,845.5 1415.2,802.3 1407.7,754.7 1399.9,702.7 1391.7,645.8 1383.2,584.0 1374.2,517.0 1364.7,444.4  Z" style="stroke-width: 2.0;  stroke: rgb(82,82,82); fill: rgb(253,141,60); opacity: 0.667;" />
<path d="M 1364.731,444.382 A 1064.250,1064.250 0.00 0,1 1368.4,443.9 L 1368.4,443.9 1377.7,516.5 1386.6,583.6 1395.4,645.5 1403.8,702.4 1412.0,754.5 1420.1,802.1 1427.9,845.4 1435.5,884.6 1443.0,920.0 1450.4,951.6 1457.6,979.6 1464.8,1004.2 1471.9,1025.5 1478.9,1043.6 1485.9,1058.6 1492.9,1070.5 1500.0,1079.5 1507.1,1085.6 1514.3,1088.8 1521.6,1089.1 1529.1,1086.6 1536.7,1081.1 1544.5,1072.8 1552.5,1061.5 1560.8,1047.2 1569.4,1029.8 1578.3,1009.2 1587.6,985.3 1597.3,958.0 1607.4,927.2 1617.9,892.6 1628.9,854.2 1640.5,811.7 1652.6,765.0 1665.4,713.8 1678.8,657.9 1692.9,597.0 1707.7,531.0 1723.2,459.4  A 1064.250,1064.250 0.00 0,0 1719.6,458.7 L 1719.6,458.7 1704.3,530.3 1689.7,596.4 1675.8,657.3 1662.7,713.2 1650.1,764.5 1638.1,811.2 1626.7,853.8 1615.8,892.2 1605.4,926.8 1595.4,957.7 1585.8,985.0 1576.6,1008.9 1567.8,1029.5 1559.3,1047.0 1551.0,1061.3 1543.0,1072.6 1535.2,1081.0 1527.6,1086.5 1520.2,1089.0 1512.9,1088.7 1505.7,1085.6 1498.5,1079.5 1491.5,1070.6 1484.4,1058.6 1477.3,1043.7 1470.2,1025.6 1463.1,1004.3 1455.8,979.8 1448.5,951.8 1441.0,920.2 1433.4,884.9 1425.6,845.7 1417.6,802.4 1409.5,754.8 1401.0,702.7 1392.4,645.9 1383.5,584.0 1374.2,517.0 1364.7,444.4  Z" style="stroke-width: 2.0;  stroke: rgb(82,82,82); fill: rgb(255,0,0); opacity: 0.667;" />
<path d="M 1364.731,444.382 A 1064.250,1064.250 0.00 0,1 1368.4,443.9 L 1368.4,443.9 1378.0,516.6 1387.8,583.9 1398.0,646.0 1408.4,703.3 1419.1,756.0 1430.0,804.4 1441.2,848.7 1452.7,889.1 1464.5,925.8 1476.6,959.0 1488.9,988.8 1501.7,1015.5 1514.8,1039.1 1528.3,1059.9 1542.2,1077.8 1556.7,1093.0 1571.6,1105.6 1587.2,1115.7 1603.4,1123.2 1620.3,1128.3 1638.0,1130.9 1656.5,1131.0 1676.0,1128.7 1696.4,1123.9 1717.9,1116.5 1740.6,1106.6 1764.5,1094.0 1789.8,1078.7 1816.5,1060.6 1844.8,1039.4 1874.8,1015.2 1906.5,987.8 1940.2,956.9 1975.9,922.5 2013.8,884.3 2053.9,842.1 2096.5,795.7 2141.7,744.9 2189.5,689.3  A 1064.250,1064.250 0.00 0,0 2186.7,686.9 L 2186.7,686.9 2139.0,742.6 2094.0,793.6 2051.6,840.1 2011.6,882.5 1973.9,920.8 1938.3,955.4 1904.7,986.3 1873.1,1013.9 1843.2,1038.2 1815.0,1059.5 1788.3,1077.7 1763.1,1093.1 1739.2,1105.8 1716.5,1115.8 1695.1,1123.2 1674.7,1128.1 1655.2,1130.5 1636.7,1130.4 1619.0,1127.8 1602.1,1122.8 1585.9,1115.4 1570.3,1105.4 1555.2,1092.8 1540.8,1077.7 1526.7,1059.8 1513.2,1039.1 1500.0,1015.5 1487.2,988.9 1474.7,959.0 1462.5,925.9 1450.6,889.2 1439.0,848.9 1427.6,804.7 1416.5,756.3 1405.6,703.6 1395.0,646.4 1384.6,584.3 1374.5,517.0 1364.7,444.4  Z" style="stroke-width: 2.0;  stroke: rgb(82,82,82); fill: rgb(255,0,204); opacity: 0.667;" />
<path d="M 1364.731,444.382 A 1064.250,1064.250 0.00 0,1 1368.4,443.9 L 1368.4,443.9 1378.0,516.6 1387.8,583.9 1398.0,646.0 1408.5,703.3 1419.2,756.1 1430.2,804.5 1441.5,848.8 1453.0,889.2 1464.8,925.9 1477.0,959.2 1489.4,989.1 1502.3,1015.8 1515.4,1039.5 1529.0,1060.3 1543.1,1078.3 1557.7,1093.6 1572.8,1106.3 1588.4,1116.5 1604.8,1124.1 1621.8,1129.3 1639.7,1132.0 1658.3,1132.3 1677.9,1130.1 1698.5,1125.5 1720.2,1118.3 1743.1,1108.6 1767.3,1096.2 1792.8,1081.1 1819.8,1063.2 1848.3,1042.3 1878.6,1018.4 1910.6,991.2 1944.6,960.6 1980.7,926.5 2018.9,888.6 2059.4,846.8 2102.4,800.8 2148.0,750.3 2196.4,695.2  A 1064.250,1064.250 0.00 0,0 2193.6,692.8 L 2193.6,692.8 2145.4,748.1 2100.0,798.7 2057.2,844.8 2016.8,886.8 1978.7,924.8 1942.7,959.1 1908.9,989.8 1876.9,1017.0 1846.7,1041.1 1818.2,1062.1 1791.3,1080.1 1765.9,1095.3 1741.8,1107.8 1718.9,1117.6 1697.2,1124.8 1676.7,1129.5 1657.1,1131.7 1638.4,1131.5 1620.5,1128.9 1603.5,1123.7 1587.1,1116.2 1571.4,1106.1 1556.2,1093.4 1541.6,1078.2 1527.5,1060.2 1513.8,1039.5 1500.6,1015.8 1487.7,989.1 1475.1,959.2 1462.8,926.1 1450.9,889.4 1439.2,849.0 1427.8,804.7 1416.6,756.4 1405.7,703.7 1395.0,646.4 1384.7,584.3 1374.6,517.0 1364.7,444.4  Z" style="stroke-width: 2.0;  stroke: rgb(82,82,82); fill: rgb(255,204,204); opacity: 0.667;" />
<path d="M 1364.731,444.382 A 1064.250,1064.250 0.00 0,1 1368.4,443.9 L 1368.4,443.9 1376.4,517.5 1381.9,587.2 1385.1,653.5 1386.2,716.5 1385.5,776.5 1383.3,833.6 1379.6,888.2 1374.8,940.4 1368.9,990.4 1362.2,1038.4 1354.7,1084.7 1346.5,1129.5 1337.8,1172.8 1328.6,1215.0 1319.1,1256.1 1309.2,1296.4 1298.9,1336.1 1288.3,1375.2 1277.4,1414.0 1266.1,1452.6 1254.4,1491.2 1242.3,1529.9 1229.6,1568.8 1216.2,1608.2 1202.2,1648.0 1187.2,1688.4 1171.2,1729.7 1154.0,1771.7 1135.4,1814.8 1115.2,1858.9 1093.2,1904.2 1069.2,1950.8 1042.9,1998.7 1014.1,2048.1 982.4,2099.0 947.5,2151.5 909.1,2205.7 867.0,2261.5 820.6,2319.2  A 1064.250,1064.250 0.00 0,0 823.5,2321.5 L 823.5,2321.5 869.6,2263.7 911.6,2207.7 949.8,2153.4 984.4,2100.8 1016.0,2049.8 1044.7,2000.3 1070.8,1952.3 1094.7,1905.6 1116.5,1860.3 1136.5,1816.1 1154.9,1772.9 1172.0,1730.8 1187.8,1689.5 1202.7,1649.0 1216.6,1609.1 1229.8,1569.8 1242.4,1530.8 1254.4,1492.1 1265.9,1453.4 1277.1,1414.8 1287.9,1375.9 1298.3,1336.8 1308.4,1297.1 1318.2,1256.7 1327.7,1215.6 1336.7,1173.4 1345.2,1130.0 1353.2,1085.2 1360.6,1038.9 1367.2,990.8 1372.9,940.8 1377.5,888.6 1381.0,834.1 1383.0,776.9 1383.5,716.9 1382.1,653.9 1378.7,587.7 1373.0,517.9 1364.7,444.4  Z" style="stroke-width: 2.0;  stroke: rgb(82,82,82); fill: rgb(255,153,0); opacity: 0.667;" />
<path d="M 1364.731,444.382 A 1064.250,1064.250 0.00 0,1 1368.4,443.9 L 1368.4,443.9 1376.8,516.9 1383.3,584.9 1387.9,648.3 1390.8,707.3 1392.1,762.2 1391.9,813.3 1390.2,860.7 1387.1,904.7 1382.7,945.5 1377.0,983.3 1370.1,1018.3 1361.9,1050.6 1352.5,1080.5 1341.9,1108.0 1330.1,1133.3 1317.1,1156.5 1302.8,1177.8 1287.1,1197.1 1270.1,1214.7 1251.7,1230.6 1231.9,1244.8 1210.4,1257.4 1187.3,1268.4 1162.4,1277.9 1135.6,1285.8 1106.8,1292.2 1075.9,1297.1 1042.7,1300.4 1007.1,1302.1 968.9,1302.1 927.9,1300.5 883.9,1297.0 836.7,1291.7 786.2,1284.4 732.1,1275.0 674.1,1263.4 612.1,1249.5 545.8,1233.0 474.9,1214.0  A 1064.250,1064.250 0.00 0,0 473.9,1217.5 L 473.9,1217.5 544.9,1236.4 611.3,1252.5 673.3,1266.3 731.3,1277.7 785.5,1286.9 836.0,1294.0 883.2,1299.2 927.2,1302.5 968.2,1304.0 1006.4,1303.8 1042.1,1302.0 1075.2,1298.6 1106.1,1293.6 1134.9,1287.1 1161.6,1279.0 1186.5,1269.5 1209.6,1258.4 1231.0,1245.7 1250.8,1231.4 1269.2,1215.5 1286.1,1197.9 1301.6,1178.4 1315.9,1157.1 1328.9,1133.9 1340.6,1108.5 1351.1,1081.0 1360.4,1051.1 1368.4,1018.8 1375.2,983.7 1380.8,945.9 1385.0,905.1 1388.0,861.1 1389.5,813.6 1389.5,762.6 1388.0,707.7 1384.9,648.7 1380.1,585.3 1373.4,517.3 1364.7,444.4  Z" style="stroke-width: 2.0;  stroke: rgb(82,82,82); fill: rgb(255,204,0); opacity: 0.667;" />
<path d="M 1364.731,444.382 A 1064.250,1064.250 0.00 0,1 1368.4,443.9 L 1368.4,443.9 1377.3,516.6 1385.2,583.8 1392.2,645.8 1398.3,702.9 1403.5,755.3 1408.0,803.3 1411.6,847.0 1414.5,886.7 1416.7,922.5 1418.2,954.6 1419.0,983.2 1419.1,1008.4 1418.5,1030.4 1417.3,1049.2 1415.4,1064.9 1412.9,1077.7 1409.7,1087.5 1405.9,1094.5 1401.4,1098.6 1396.1,1099.9 1390.2,1098.4 1383.5,1094.1 1376.0,1087.0 1367.7,1077.0 1358.6,1064.0 1348.6,1048.1 1337.7,1029.0 1325.8,1006.8 1312.9,981.2 1298.9,952.2 1283.8,919.7 1267.5,883.4 1250.0,843.2 1231.1,798.9 1210.8,750.3 1189.1,697.1 1165.7,639.3 1140.8,576.4 1114.1,508.2  A 1064.250,1064.250 0.00 0,0 1110.6,509.5 L 1110.6,509.5 1137.6,577.6 1162.7,640.4 1186.3,698.2 1208.2,751.3 1228.7,799.8 1247.7,844.1 1265.4,884.2 1281.8,920.4 1297.0,953.0 1311.1,981.9 1324.1,1007.4 1336.0,1029.6 1347.0,1048.6 1357.1,1064.5 1366.2,1077.4 1374.5,1087.4 1382.0,1094.5 1388.8,1098.8 1394.7,1100.3 1400.0,1098.9 1404.5,1094.8 1408.3,1087.8 1411.5,1078.0 1413.9,1065.2 1415.7,1049.5 1416.9,1030.7 1417.4,1008.7 1417.2,983.5 1416.3,954.9 1414.7,922.8 1412.4,887.0 1409.4,847.3 1405.6,803.6 1401.0,755.7 1395.5,703.3 1389.2,646.2 1382.0,584.2 1373.9,517.0 1364.7,444.4  Z" style="stroke-width: 2.0;  stroke: rgb(82,82,82); fill: rgb(255,255,0); opacity: 0.667;" />
<path d="M 1364.731,444.382 A 1064.250,1064.250 0.00 0,1 1368.4,443.9 L 1368.4,443.9 1377.3,516.6 1385.4,583.8 1392.5,645.7 1398.9,702.8 1404.4,755.1 1409.2,802.9 1413.3,846.5 1416.7,886.1 1419.5,921.7 1421.5,953.7 1423.0,982.1 1423.8,1007.1 1424.1,1028.8 1423.7,1047.3 1422.8,1062.7 1421.2,1075.1 1419.1,1084.6 1416.4,1091.2 1413.0,1094.9 1409.1,1095.8 1404.5,1093.8 1399.3,1089.0 1393.4,1081.3 1386.8,1070.6 1379.5,1057.0 1371.4,1040.4 1362.5,1020.6 1352.8,997.5 1342.2,971.1 1330.7,941.2 1318.2,907.7 1304.7,870.4 1290.1,829.1 1274.5,783.6 1257.6,733.8 1239.4,679.4 1219.9,620.1 1199.1,555.8 1176.7,486.0  A 1064.250,1064.250 0.00 0,0 1173.2,487.2 L 1173.2,487.2 1195.8,556.8 1216.9,621.1 1236.6,680.3 1254.9,734.7 1272.0,784.4 1287.8,829.8 1302.5,871.1 1316.1,908.4 1328.7,941.8 1340.3,971.7 1351.0,998.0 1360.8,1021.0 1369.8,1040.8 1377.9,1057.4 1385.3,1071.0 1391.9,1081.6 1397.9,1089.3 1403.1,1094.1 1407.7,1096.1 1411.6,1095.2 1415.0,1091.5 1417.7,1084.9 1419.8,1075.4 1421.2,1063.0 1422.1,1047.6 1422.4,1029.0 1422.1,1007.3 1421.2,982.4 1419.6,954.0 1417.5,922.0 1414.6,886.4 1411.1,846.8 1406.8,803.3 1401.8,755.4 1396.1,703.1 1389.6,646.1 1382.2,584.2 1373.9,517.0 1364.7,444.4  Z" style="stroke-width: 2.0;  stroke: rgb(82,82,82); fill: rgb(204,255,0); opacity: 0.667;" />
<path d="M 1137.630,499.342 A 1064.250,1064.250 0.00 0,1 1143.0,497.4 L 1143.0,497.4 1167.8,566.3 1191.1,629.9 1213.1,688.4 1233.8,742.0 1253.3,791.1 1271.6,835.8 1288.9,876.4 1305.1,913.0 1320.4,945.9 1334.7,975.1 1348.2,1000.9 1361.0,1023.4 1372.9,1042.6 1384.2,1058.7 1394.8,1071.8 1404.8,1081.9 1414.2,1089.2 1423.1,1093.6 1431.5,1095.1 1439.5,1093.9 1447.0,1089.8 1454.1,1082.9 1460.8,1073.0 1467.1,1060.3 1473.2,1044.6 1478.9,1025.7 1484.3,1003.7 1489.4,978.5 1494.2,949.8 1498.8,917.5 1503.1,881.5 1507.2,841.7 1511.0,797.8 1514.6,749.5 1517.9,696.8 1520.9,639.4 1523.6,577.0 1526.1,509.3 1528.3,436.1  A 1064.250,1064.250 0.00 0,0 1522.6,436.0 L 1522.6,436.0 1520.8,509.2 1518.7,576.9 1516.3,639.3 1513.6,696.8 1510.6,749.5 1507.3,797.7 1503.7,841.7 1499.9,881.5 1495.7,917.5 1491.3,949.8 1486.6,978.5 1481.6,1003.8 1476.3,1025.9 1470.7,1044.7 1464.8,1060.5 1458.5,1073.3 1451.8,1083.1 1444.8,1090.1 1437.3,1094.2 1429.4,1095.5 1421.0,1094.0 1412.0,1089.7 1402.6,1082.5 1392.5,1072.4 1381.8,1059.3 1370.5,1043.3 1358.4,1024.1 1345.6,1001.7 1331.9,976.0 1317.4,946.9 1302.0,914.1 1285.5,877.6 1268.1,837.1 1249.5,792.4 1229.8,743.5 1208.8,689.9 1186.5,631.5 1162.8,568.1 1137.6,499.3  Z" style="stroke-width: 2.0;  stroke: rgb(82,82,82); fill: rgb(0,255,0); opacity: 0.667;" />
</g>
<defs>
<pattern id="hline-sparse" width="10" height="10" patternTransform="rotate(0 0 0)" patternUnits="userSpaceOnUse"><line x1="0" y1="0" x2="10" y2="0" style="stroke:black;stroke-width:2" /></pattern>
<pattern id="checker" width="10" height="10" patternTransform="rotate(45 0 0)" patternUnits="userSpaceOnUse"><line x1="0" y1="0" x2="10" y2="0" style="stroke:black;stroke-width:2" /><line x1="0" y1="0" x2="0" y2="10" style="stroke:black;stroke-width:2" /></pattern>
<pattern id="checker" width="10" height="10" patternTransform="rotate(45 0 0)" patternUnits="userSpaceOnUse"><line x1="0" y1="0" x2="10" y2="0" style="stroke:black;stroke-width:5" /><line x1="0" y1="0" x2="0" y2="10" style="stroke:black;stroke-width:4" /></pattern>
<pattern id="hline" width="10" height="10" patternTransform="rotate(0 0 0)" patternUnits="userSpaceOnUse"><line x1="0" y1="0" x2="10" y2="0" style="stroke:black;stroke-width:5" /></pattern>
<pattern id="vline-sparse" width="10" height="10" patternTransform="rotate(0 0 0)" patternUnits="userSpaceOnUse"><line x1="0" y1="0" x2="0" y2="10" style="stroke:black;stroke-width:2" /></pattern>
<pattern id="vline" width="10" height="10" patternTransform="rotate(0 0 0)" patternUnits="userSpaceOnUse"><line x1="0" y1="0" x2="0" y2="10" style="stroke:black;stroke-width:5" /></pattern>
</defs>
</svg>
