<?xml version="1.0" encoding="utf-8" standalone="no"?>
<!DOCTYPE svg PUBLIC "-//W3C//DTD SVG 1.1//EN" "http://www.w3.org/Graphics/SVG/1.1/DTD/svg11.dtd">
<svg width="3000px" height="3000px" version="1.1" xmlns="http://www.w3.org/2000/svg" xmlns:xlink="http://www.w3.org/1999/xlink">
<g id="ideograms">
<path d="M1500.000,425.000 A1075.000,1075.000 40.000 0,1 1537.861,425.667 L1539.622,375.698 A1125.000,1125.000 0.000 0,0 1500.000,375.000 Z" style="stroke-linecap:round;fill:rgb(116,196,118);fill-opacity:0.33;" />
<text x="1530.9" y="285.4" font-size="18.2px" font-family="CMUBright-Roman" style="text-anchor:start;fill:rgb(0,0,0);" transform="rotate(271.0,1530.9,285.4)" >R<tspan baseline-shift="-40%" font-size="90%">s</tspan>caffold<tspan baseline-shift="-40%" font-size="90%">2</tspan>5</text>
<line x1='1500.0' y1='375.0' x2='1500.0' y2='355.0' style="stroke-width:4.0;stroke:rgb(0,0,0);stroke-linecap:round;fill:none;" />
<text x="1506.5" y="345.0" font-size="18.2px" font-family="CMUBright-Roman" style="text-anchor:start;fill:rgb(0,0,0);" transform="rotate(270.0,1506.5,345.0)" >0</text>
<g id="highlighttrack_0">
<path d="M1527.520,425.352 A1075.000,1075.000 40.000 0,1 1532.876,425.503 L1534.405,375.526 A1125.000,1125.000 0.000 0,0 1528.800,375.369 Z" style="stroke-width:4.0;stroke:rgb(0,0,0);stroke-linecap:round;fill:rgb(116,196,118);" />
</g>
<path d="M1603.286,429.973 A1075.000,1075.000 40.000 0,1 1607.924,430.431 L1612.943,380.684 A1125.000,1125.000 0.000 0,0 1608.090,380.205 Z" style="stroke-linecap:round;fill:rgb(116,196,118);fill-opacity:0.33;" />
<text x="1628.8" y="291.8" font-size="18.2px" font-family="CMUBright-Roman" style="text-anchor:start;fill:rgb(0,0,0);" transform="rotate(275.6,1628.8,291.8)" >R<tspan baseline-shift="-40%" font-size="90%">s</tspan>caffold<tspan baseline-shift="-40%" font-size="90%">2</tspan>9</text>
<line x1='1608.1' y1='380.2' x2='1610.0' y2='360.3' style="stroke-width:4.0;stroke:rgb(0,0,0);stroke-linecap:round;fill:none;" />
<text x="1617.4" y="351.0" font-size="18.2px" font-family="CMUBright-Roman" style="text-anchor:start;fill:rgb(0,0,0);" transform="rotate(275.5,1617.4,351.0)" >0</text>
<g id="highlighttrack_0">
<path d="M1603.570,430.001 A1075.000,1075.000 40.000 0,1 1607.852,430.424 L1612.868,380.676 A1125.000,1125.000 0.000 0,0 1608.387,380.233 Z" style="stroke-width:4.0;stroke:rgb(0,0,0);stroke-linecap:round;fill:rgb(251,106,74);" />
</g>
<path d="M1672.928,439.000 A1075.000,1075.000 40.000 1,1 1434.464,427.000 L1431.416,377.093 A1125.000,1125.000 0.000 1,0 1680.971,389.651 Z" style="stroke-linecap:round;fill:rgb(116,196,118);fill-opacity:0.33;" />
<text x="1448.4" y="2713.9" font-size="18.2px" font-family="CMUBright-Roman" style="text-anchor:end;fill:rgb(0,0,0);" transform="rotate(-87.1,1448.4,2713.9)" >NZ<tspan baseline-shift="-40%" font-size="90%">C</tspan>P022272.1</text>
<line x1='1681.0' y1='389.7' x2='1684.2' y2='369.9' style="stroke-width:4.0;stroke:rgb(0,0,0);stroke-linecap:round;fill:none;" />
<text x="1692.2" y="361.1" font-size="18.2px" font-family="CMUBright-Roman" style="text-anchor:start;fill:rgb(0,0,0);" transform="rotate(279.3,1692.2,361.1)" >0</text>
<line x1='1758.3' y1='405.1' x2='1762.9' y2='385.6' style="stroke-width:4.0;stroke:rgb(0,0,0);stroke-linecap:round;fill:none;" />
<text x="1771.5" y="377.4" font-size="18.2px" font-family="CMUBright-Roman" style="text-anchor:start;fill:rgb(0,0,0);" transform="rotate(283.3,1771.5,377.4)" >50</text>
<line x1='1834.4' y1='425.9' x2='1840.4' y2='406.8' style="stroke-width:4.0;stroke:rgb(0,0,0);stroke-linecap:round;fill:none;" />
<text x="1849.5" y="399.2" font-size="18.2px" font-family="CMUBright-Roman" style="text-anchor:start;fill:rgb(0,0,0);" transform="rotate(287.3,1849.5,399.2)" >100</text>
<line x1='1908.8' y1='451.9' x2='1916.1' y2='433.3' style="stroke-width:4.0;stroke:rgb(0,0,0);stroke-linecap:round;fill:none;" />
<text x="1925.8" y="426.4" font-size="18.2px" font-family="CMUBright-Roman" style="text-anchor:start;fill:rgb(0,0,0);" transform="rotate(291.3,1925.8,426.4)" >150</text>
<line x1='1981.3' y1='483.1' x2='1989.8' y2='465.1' style="stroke-width:4.0;stroke:rgb(0,0,0);stroke-linecap:round;fill:none;" />
<text x="2000.0" y="458.8" font-size="18.2px" font-family="CMUBright-Roman" style="text-anchor:start;fill:rgb(0,0,0);" transform="rotate(295.3,2000.0,458.8)" >200</text>
<line x1='2051.3' y1='519.4' x2='2061.1' y2='501.9' style="stroke-width:4.0;stroke:rgb(0,0,0);stroke-linecap:round;fill:none;" />
<text x="2071.7" y="496.4" font-size="18.2px" font-family="CMUBright-Roman" style="text-anchor:start;fill:rgb(0,0,0);" transform="rotate(299.3,2071.7,496.4)" >250</text>
<line x1='2118.7' y1='560.4' x2='2129.7' y2='543.7' style="stroke-width:4.0;stroke:rgb(0,0,0);stroke-linecap:round;fill:none;" />
<text x="2140.6" y="538.9" font-size="18.2px" font-family="CMUBright-Roman" style="text-anchor:start;fill:rgb(0,0,0);" transform="rotate(303.4,2140.6,538.9)" >300</text>
<line x1='2183.0' y1='606.1' x2='2195.1' y2='590.2' style="stroke-width:4.0;stroke:rgb(0,0,0);stroke-linecap:round;fill:none;" />
<text x="2206.4" y="586.2" font-size="18.2px" font-family="CMUBright-Roman" style="text-anchor:start;fill:rgb(0,0,0);" transform="rotate(307.4,2206.4,586.2)" >350</text>
<line x1='2244.0' y1='656.1' x2='2257.2' y2='641.1' style="stroke-width:4.0;stroke:rgb(0,0,0);stroke-linecap:round;fill:none;" />
<text x="2268.7" y="637.9" font-size="18.2px" font-family="CMUBright-Roman" style="text-anchor:start;fill:rgb(0,0,0);" transform="rotate(311.4,2268.7,637.9)" >400</text>
<line x1='2301.3' y1='710.3' x2='2315.5' y2='696.3' style="stroke-width:4.0;stroke:rgb(0,0,0);stroke-linecap:round;fill:none;" />
<text x="2327.2" y="693.9" font-size="18.2px" font-family="CMUBright-Roman" style="text-anchor:start;fill:rgb(0,0,0);" transform="rotate(315.4,2327.2,693.9)" >450</text>
<line x1='2354.6' y1='768.4' x2='2369.8' y2='755.4' style="stroke-width:4.0;stroke:rgb(0,0,0);stroke-linecap:round;fill:none;" />
<text x="2381.6" y="753.8" font-size="18.2px" font-family="CMUBright-Roman" style="text-anchor:start;fill:rgb(0,0,0);" transform="rotate(319.4,2381.6,753.8)" >500</text>
<line x1='2403.8' y1='830.1' x2='2419.8' y2='818.2' style="stroke-width:4.0;stroke:rgb(0,0,0);stroke-linecap:round;fill:none;" />
<text x="2431.7" y="817.4" font-size="18.2px" font-family="CMUBright-Roman" style="text-anchor:start;fill:rgb(0,0,0);" transform="rotate(323.5,2431.7,817.4)" >550</text>
<line x1='2448.5' y1='895.0' x2='2465.4' y2='884.3' style="stroke-width:4.0;stroke:rgb(0,0,0);stroke-linecap:round;fill:none;" />
<text x="2477.3" y="884.4" font-size="18.2px" font-family="CMUBright-Roman" style="text-anchor:start;fill:rgb(0,0,0);" transform="rotate(327.5,2477.3,884.4)" >600</text>
<line x1='2488.6' y1='963.0' x2='2506.1' y2='953.4' style="stroke-width:4.0;stroke:rgb(0,0,0);stroke-linecap:round;fill:none;" />
<text x="2518.0" y="954.4" font-size="18.2px" font-family="CMUBright-Roman" style="text-anchor:start;fill:rgb(0,0,0);" transform="rotate(331.5,2518.0,954.4)" >650</text>
<line x1='2523.7' y1='1033.6' x2='2541.9' y2='1025.3' style="stroke-width:4.0;stroke:rgb(0,0,0);stroke-linecap:round;fill:none;" />
<text x="2553.7" y="1027.0" font-size="18.2px" font-family="CMUBright-Roman" style="text-anchor:start;fill:rgb(0,0,0);" transform="rotate(335.5,2553.7,1027.0)" >700</text>
<line x1='2553.9' y1='1106.4' x2='2572.6' y2='1099.4' style="stroke-width:4.0;stroke:rgb(0,0,0);stroke-linecap:round;fill:none;" />
<text x="2584.3" y="1102.0" font-size="18.2px" font-family="CMUBright-Roman" style="text-anchor:start;fill:rgb(0,0,0);" transform="rotate(339.5,2584.3,1102.0)" >750</text>
<line x1='2578.9' y1='1181.2' x2='2598.1' y2='1175.6' style="stroke-width:4.0;stroke:rgb(0,0,0);stroke-linecap:round;fill:none;" />
<text x="2609.5" y="1179.0" font-size="18.2px" font-family="CMUBright-Roman" style="text-anchor:start;fill:rgb(0,0,0);" transform="rotate(343.5,2609.5,1179.0)" >800</text>
<line x1='2598.6' y1='1257.6' x2='2618.1' y2='1253.3' style="stroke-width:4.0;stroke:rgb(0,0,0);stroke-linecap:round;fill:none;" />
<text x="2629.3" y="1257.5" font-size="18.2px" font-family="CMUBright-Roman" style="text-anchor:start;fill:rgb(0,0,0);" transform="rotate(347.6,2629.3,1257.5)" >850</text>
<line x1='2612.9' y1='1335.2' x2='2632.6' y2='1332.3' style="stroke-width:4.0;stroke:rgb(0,0,0);stroke-linecap:round;fill:none;" />
<text x="2643.5" y="1337.2" font-size="18.2px" font-family="CMUBright-Roman" style="text-anchor:start;fill:rgb(0,0,0);" transform="rotate(351.6,2643.5,1337.2)" >900</text>
<line x1='2621.7' y1='1413.6' x2='2641.6' y2='1412.0' style="stroke-width:4.0;stroke:rgb(0,0,0);stroke-linecap:round;fill:none;" />
<text x="2652.1" y="1417.7" font-size="18.2px" font-family="CMUBright-Roman" style="text-anchor:start;fill:rgb(0,0,0);" transform="rotate(355.6,2652.1,1417.7)" >950</text>
<line x1='2625.0' y1='1492.4' x2='2645.0' y2='1492.2' style="stroke-width:4.0;stroke:rgb(0,0,0);stroke-linecap:round;fill:none;" />
<text x="2655.0" y="1498.7" font-size="18.2px" font-family="CMUBright-Roman" style="text-anchor:start;fill:rgb(0,0,0);" transform="rotate(359.6,2655.0,1498.7)" >1000</text>
<line x1='2622.7' y1='1571.2' x2='2642.7' y2='1572.5' style="stroke-width:4.0;stroke:rgb(0,0,0);stroke-linecap:round;fill:none;" />
<text x="2652.3" y="1579.6" font-size="18.2px" font-family="CMUBright-Roman" style="text-anchor:start;fill:rgb(0,0,0);" transform="rotate(3.6,2652.3,1579.6)" >1050</text>
<line x1='2615.0' y1='1649.7' x2='2634.8' y2='1652.4' style="stroke-width:4.0;stroke:rgb(0,0,0);stroke-linecap:round;fill:none;" />
<text x="2643.8" y="1660.1" font-size="18.2px" font-family="CMUBright-Roman" style="text-anchor:start;fill:rgb(0,0,0);" transform="rotate(7.6,2643.8,1660.1)" >1100</text>
<line x1='2601.8' y1='1727.5' x2='2621.4' y2='1731.5' style="stroke-width:4.0;stroke:rgb(0,0,0);stroke-linecap:round;fill:none;" />
<text x="2629.8" y="1739.9" font-size="18.2px" font-family="CMUBright-Roman" style="text-anchor:start;fill:rgb(0,0,0);" transform="rotate(11.7,2629.8,1739.9)" >1150</text>
<line x1='2583.1' y1='1804.1' x2='2602.4' y2='1809.5' style="stroke-width:4.0;stroke:rgb(0,0,0);stroke-linecap:round;fill:none;" />
<text x="2610.2" y="1818.5" font-size="18.2px" font-family="CMUBright-Roman" style="text-anchor:start;fill:rgb(0,0,0);" transform="rotate(15.7,2610.2,1818.5)" >1200</text>
<line x1='2559.2' y1='1879.2' x2='2578.0' y2='1886.0' style="stroke-width:4.0;stroke:rgb(0,0,0);stroke-linecap:round;fill:none;" />
<text x="2585.2" y="1895.5" font-size="18.2px" font-family="CMUBright-Roman" style="text-anchor:start;fill:rgb(0,0,0);" transform="rotate(19.7,2585.2,1895.5)" >1250</text>
<line x1='2530.0' y1='1952.5' x2='2548.3' y2='1960.6' style="stroke-width:4.0;stroke:rgb(0,0,0);stroke-linecap:round;fill:none;" />
<text x="2554.8" y="1970.5" font-size="18.2px" font-family="CMUBright-Roman" style="text-anchor:start;fill:rgb(0,0,0);" transform="rotate(23.7,2554.8,1970.5)" >1300</text>
<line x1='2495.7' y1='2023.6' x2='2513.4' y2='2032.9' style="stroke-width:4.0;stroke:rgb(0,0,0);stroke-linecap:round;fill:none;" />
<text x="2519.3" y="2043.3" font-size="18.2px" font-family="CMUBright-Roman" style="text-anchor:start;fill:rgb(0,0,0);" transform="rotate(27.7,2519.3,2043.3)" >1350</text>
<line x1='2456.6' y1='2092.0' x2='2473.6' y2='2102.6' style="stroke-width:4.0;stroke:rgb(0,0,0);stroke-linecap:round;fill:none;" />
<text x="2478.7" y="2113.3" font-size="18.2px" font-family="CMUBright-Roman" style="text-anchor:start;fill:rgb(0,0,0);" transform="rotate(31.8,2478.7,2113.3)" >1400</text>
<line x1='2412.8' y1='2157.6' x2='2429.0' y2='2169.3' style="stroke-width:4.0;stroke:rgb(0,0,0);stroke-linecap:round;fill:none;" />
<text x="2433.3" y="2180.4" font-size="18.2px" font-family="CMUBright-Roman" style="text-anchor:start;fill:rgb(0,0,0);" transform="rotate(35.8,2433.3,2180.4)" >1450</text>
<line x1='2364.5' y1='2220.0' x2='2379.8' y2='2232.8' style="stroke-width:4.0;stroke:rgb(0,0,0);stroke-linecap:round;fill:none;" />
<text x="2383.3" y="2244.1" font-size="18.2px" font-family="CMUBright-Roman" style="text-anchor:start;fill:rgb(0,0,0);" transform="rotate(39.8,2383.3,2244.1)" >1500</text>
<line x1='2311.9' y1='2278.8' x2='2326.3' y2='2292.6' style="stroke-width:4.0;stroke:rgb(0,0,0);stroke-linecap:round;fill:none;" />
<text x="2329.0" y="2304.2" font-size="18.2px" font-family="CMUBright-Roman" style="text-anchor:start;fill:rgb(0,0,0);" transform="rotate(43.8,2329.0,2304.2)" >1550</text>
<line x1='2255.3' y1='2333.7' x2='2268.8' y2='2348.5' style="stroke-width:4.0;stroke:rgb(0,0,0);stroke-linecap:round;fill:none;" />
<text x="2270.6" y="2360.3" font-size="18.2px" font-family="CMUBright-Roman" style="text-anchor:start;fill:rgb(0,0,0);" transform="rotate(47.8,2270.6,2360.3)" >1600</text>
<line x1='2195.1' y1='2384.6' x2='2207.4' y2='2400.3' style="stroke-width:4.0;stroke:rgb(0,0,0);stroke-linecap:round;fill:none;" />
<text x="2208.5" y="2412.2" font-size="18.2px" font-family="CMUBright-Roman" style="text-anchor:start;fill:rgb(0,0,0);" transform="rotate(51.8,2208.5,2412.2)" >1650</text>
<line x1='2131.4' y1='2431.1' x2='2142.6' y2='2447.7' style="stroke-width:4.0;stroke:rgb(0,0,0);stroke-linecap:round;fill:none;" />
<text x="2142.8" y="2459.6" font-size="18.2px" font-family="CMUBright-Roman" style="text-anchor:start;fill:rgb(0,0,0);" transform="rotate(55.9,2142.8,2459.6)" >1700</text>
<line x1='2064.6' y1='2473.1' x2='2074.6' y2='2490.4' style="stroke-width:4.0;stroke:rgb(0,0,0);stroke-linecap:round;fill:none;" />
<text x="2074.0" y="2502.3" font-size="18.2px" font-family="CMUBright-Roman" style="text-anchor:start;fill:rgb(0,0,0);" transform="rotate(59.9,2074.0,2502.3)" >1750</text>
<line x1='1995.0' y1='2510.2' x2='2003.8' y2='2528.2' style="stroke-width:4.0;stroke:rgb(0,0,0);stroke-linecap:round;fill:none;" />
<text x="2002.4" y="2540.0" font-size="18.2px" font-family="CMUBright-Roman" style="text-anchor:start;fill:rgb(0,0,0);" transform="rotate(63.9,2002.4,2540.0)" >1800</text>
<line x1='1923.0' y1='2542.4' x2='1930.5' y2='2561.0' style="stroke-width:4.0;stroke:rgb(0,0,0);stroke-linecap:round;fill:none;" />
<text x="1928.3" y="2572.7" font-size="18.2px" font-family="CMUBright-Roman" style="text-anchor:start;fill:rgb(0,0,0);" transform="rotate(67.9,1928.3,2572.7)" >1850</text>
<line x1='1848.9' y1='2569.5' x2='1855.1' y2='2588.5' style="stroke-width:4.0;stroke:rgb(0,0,0);stroke-linecap:round;fill:none;" />
<text x="1852.1" y="2600.0" font-size="18.2px" font-family="CMUBright-Roman" style="text-anchor:start;fill:rgb(0,0,0);" transform="rotate(71.9,1852.1,2600.0)" >1900</text>
<line x1='1773.1' y1='2591.3' x2='1778.0' y2='2610.7' style="stroke-width:4.0;stroke:rgb(0,0,0);stroke-linecap:round;fill:none;" />
<text x="1774.1" y="2622.0" font-size="18.2px" font-family="CMUBright-Roman" style="text-anchor:start;fill:rgb(0,0,0);" transform="rotate(75.9,1774.1,2622.0)" >1950</text>
<line x1='1696.0' y1='2607.8' x2='1699.5' y2='2627.5' style="stroke-width:4.0;stroke:rgb(0,0,0);stroke-linecap:round;fill:none;" />
<text x="1694.8" y="2638.4" font-size="18.2px" font-family="CMUBright-Roman" style="text-anchor:start;fill:rgb(0,0,0);" transform="rotate(80.0,1694.8,2638.4)" >2000</text>
<line x1='1617.9' y1='2618.8' x2='1620.0' y2='2638.7' style="stroke-width:4.0;stroke:rgb(0,0,0);stroke-linecap:round;fill:none;" />
<text x="1614.6" y="2649.3" font-size="18.2px" font-family="CMUBright-Roman" style="text-anchor:start;fill:rgb(0,0,0);" transform="rotate(84.0,1614.6,2649.3)" >2050</text>
<line x1='1539.2' y1='2624.3' x2='1539.9' y2='2644.3' style="stroke-width:4.0;stroke:rgb(0,0,0);stroke-linecap:round;fill:none;" />
<text x="1533.8" y="2654.5" font-size="18.2px" font-family="CMUBright-Roman" style="text-anchor:start;fill:rgb(0,0,0);" transform="rotate(88.0,1533.8,2654.5)" >2100</text>
<line x1='1460.4' y1='2624.3' x2='1459.7' y2='2644.3' style="stroke-width:4.0;stroke:rgb(0,0,0);stroke-linecap:round;fill:none;" />
<text x="1465.8" y="2654.5" font-size="18.2px" font-family="CMUBright-Roman" style="text-anchor:end;fill:rgb(0,0,0);" transform="rotate(-88.0,1465.8,2654.5)" >2150</text>
<line x1='1381.7' y1='2618.8' x2='1379.6' y2='2638.7' style="stroke-width:4.0;stroke:rgb(0,0,0);stroke-linecap:round;fill:none;" />
<text x="1385.0" y="2649.3" font-size="18.2px" font-family="CMUBright-Roman" style="text-anchor:end;fill:rgb(0,0,0);" transform="rotate(-84.0,1385.0,2649.3)" >2200</text>
<line x1='1303.6' y1='2607.7' x2='1300.1' y2='2627.4' style="stroke-width:4.0;stroke:rgb(0,0,0);stroke-linecap:round;fill:none;" />
<text x="1304.8" y="2638.4" font-size="18.2px" font-family="CMUBright-Roman" style="text-anchor:end;fill:rgb(0,0,0);" transform="rotate(-79.9,1304.8,2638.4)" >2250</text>
<line x1='1226.5' y1='2591.2' x2='1221.6' y2='2610.6' style="stroke-width:4.0;stroke:rgb(0,0,0);stroke-linecap:round;fill:none;" />
<text x="1225.5" y="2621.9" font-size="18.2px" font-family="CMUBright-Roman" style="text-anchor:end;fill:rgb(0,0,0);" transform="rotate(-75.9,1225.5,2621.9)" >2300</text>
<line x1='1150.7' y1='2569.4' x2='1144.5' y2='2588.4' style="stroke-width:4.0;stroke:rgb(0,0,0);stroke-linecap:round;fill:none;" />
<text x="1147.5" y="2599.9" font-size="18.2px" font-family="CMUBright-Roman" style="text-anchor:end;fill:rgb(0,0,0);" transform="rotate(-71.9,1147.5,2599.9)" >2350</text>
<line x1='1076.6' y1='2542.3' x2='1069.1' y2='2560.8' style="stroke-width:4.0;stroke:rgb(0,0,0);stroke-linecap:round;fill:none;" />
<text x="1071.3" y="2572.5" font-size="18.2px" font-family="CMUBright-Roman" style="text-anchor:end;fill:rgb(0,0,0);" transform="rotate(-67.9,1071.3,2572.5)" >2400</text>
<line x1='1004.6' y1='2510.1' x2='995.8' y2='2528.0' style="stroke-width:4.0;stroke:rgb(0,0,0);stroke-linecap:round;fill:none;" />
<text x="997.3" y="2539.8" font-size="18.2px" font-family="CMUBright-Roman" style="text-anchor:end;fill:rgb(0,0,0);" transform="rotate(-63.9,997.3,2539.8)" >2450</text>
<line x1='935.1' y1='2472.9' x2='925.0' y2='2490.2' style="stroke-width:4.0;stroke:rgb(0,0,0);stroke-linecap:round;fill:none;" />
<text x="925.6" y="2502.1" font-size="18.2px" font-family="CMUBright-Roman" style="text-anchor:end;fill:rgb(0,0,0);" transform="rotate(-59.9,925.6,2502.1)" >2500</text>
<line x1='868.3' y1='2430.9' x2='857.1' y2='2447.4' style="stroke-width:4.0;stroke:rgb(0,0,0);stroke-linecap:round;fill:none;" />
<text x="856.8" y="2459.4" font-size="18.2px" font-family="CMUBright-Roman" style="text-anchor:end;fill:rgb(0,0,0);" transform="rotate(-55.8,856.8,2459.4)" >2550</text>
<line x1='804.6' y1='2384.3' x2='792.3' y2='2400.1' style="stroke-width:4.0;stroke:rgb(0,0,0);stroke-linecap:round;fill:none;" />
<text x="791.2" y="2411.9" font-size="18.2px" font-family="CMUBright-Roman" style="text-anchor:end;fill:rgb(0,0,0);" transform="rotate(-51.8,791.2,2411.9)" >2600</text>
<line x1='744.4' y1='2333.5' x2='730.9' y2='2348.3' style="stroke-width:4.0;stroke:rgb(0,0,0);stroke-linecap:round;fill:none;" />
<text x="729.0" y="2360.0" font-size="18.2px" font-family="CMUBright-Roman" style="text-anchor:end;fill:rgb(0,0,0);" transform="rotate(-47.8,729.0,2360.0)" >2650</text>
<line x1='687.8' y1='2278.5' x2='673.4' y2='2292.3' style="stroke-width:4.0;stroke:rgb(0,0,0);stroke-linecap:round;fill:none;" />
<text x="670.7" y="2303.9" font-size="18.2px" font-family="CMUBright-Roman" style="text-anchor:end;fill:rgb(0,0,0);" transform="rotate(-43.8,670.7,2303.9)" >2700</text>
<line x1='635.3' y1='2219.6' x2='619.9' y2='2232.4' style="stroke-width:4.0;stroke:rgb(0,0,0);stroke-linecap:round;fill:none;" />
<text x="616.4" y="2243.8" font-size="18.2px" font-family="CMUBright-Roman" style="text-anchor:end;fill:rgb(0,0,0);" transform="rotate(-39.8,616.4,2243.8)" >2750</text>
<line x1='587.0' y1='2157.3' x2='570.8' y2='2169.0' style="stroke-width:4.0;stroke:rgb(0,0,0);stroke-linecap:round;fill:none;" />
<text x="566.5" y="2180.1" font-size="18.2px" font-family="CMUBright-Roman" style="text-anchor:end;fill:rgb(0,0,0);" transform="rotate(-35.8,566.5,2180.1)" >2800</text>
<line x1='543.2' y1='2091.7' x2='526.2' y2='2102.2' style="stroke-width:4.0;stroke:rgb(0,0,0);stroke-linecap:round;fill:none;" />
<text x="521.1" y="2113.0" font-size="18.2px" font-family="CMUBright-Roman" style="text-anchor:end;fill:rgb(0,0,0);" transform="rotate(-31.7,521.1,2113.0)" >2850</text>
<line x1='504.1' y1='2023.2' x2='486.4' y2='2032.5' style="stroke-width:4.0;stroke:rgb(0,0,0);stroke-linecap:round;fill:none;" />
<text x="480.6" y="2042.9" font-size="18.2px" font-family="CMUBright-Roman" style="text-anchor:end;fill:rgb(0,0,0);" transform="rotate(-27.7,480.6,2042.9)" >2900</text>
<line x1='469.9' y1='1952.1' x2='451.5' y2='1960.2' style="stroke-width:4.0;stroke:rgb(0,0,0);stroke-linecap:round;fill:none;" />
<text x="445.0" y="1970.1" font-size="18.2px" font-family="CMUBright-Roman" style="text-anchor:end;fill:rgb(0,0,0);" transform="rotate(-23.7,445.0,1970.1)" >2950</text>
<line x1='440.7' y1='1878.9' x2='421.9' y2='1885.6' style="stroke-width:4.0;stroke:rgb(0,0,0);stroke-linecap:round;fill:none;" />
<text x="414.7" y="1895.1" font-size="18.2px" font-family="CMUBright-Roman" style="text-anchor:end;fill:rgb(0,0,0);" transform="rotate(-19.7,414.7,1895.1)" >3000</text>
<line x1='416.8' y1='1803.7' x2='397.5' y2='1809.1' style="stroke-width:4.0;stroke:rgb(0,0,0);stroke-linecap:round;fill:none;" />
<text x="389.7" y="1818.1" font-size="18.2px" font-family="CMUBright-Roman" style="text-anchor:end;fill:rgb(0,0,0);" transform="rotate(-15.7,389.7,1818.1)" >3050</text>
<line x1='398.2' y1='1727.1' x2='378.6' y2='1731.1' style="stroke-width:4.0;stroke:rgb(0,0,0);stroke-linecap:round;fill:none;" />
<text x="370.1" y="1739.5" font-size="18.2px" font-family="CMUBright-Roman" style="text-anchor:end;fill:rgb(0,0,0);" transform="rotate(-11.6,370.1,1739.5)" >3100</text>
<line x1='385.0' y1='1649.3' x2='365.1' y2='1652.0' style="stroke-width:4.0;stroke:rgb(0,0,0);stroke-linecap:round;fill:none;" />
<text x="356.1" y="1659.7" font-size="18.2px" font-family="CMUBright-Roman" style="text-anchor:end;fill:rgb(0,0,0);" transform="rotate(-7.6,356.1,1659.7)" >3150</text>
<line x1='377.2' y1='1570.8' x2='357.3' y2='1572.1' style="stroke-width:4.0;stroke:rgb(0,0,0);stroke-linecap:round;fill:none;" />
<text x="347.7" y="1579.2" font-size="18.2px" font-family="CMUBright-Roman" style="text-anchor:end;fill:rgb(0,0,0);" transform="rotate(-3.6,347.7,1579.2)" >3200</text>
<line x1='375.0' y1='1492.0' x2='355.0' y2='1491.8' style="stroke-width:4.0;stroke:rgb(0,0,0);stroke-linecap:round;fill:none;" />
<text x="345.0" y="1498.3" font-size="18.2px" font-family="CMUBright-Roman" style="text-anchor:end;fill:rgb(0,0,0);" transform="rotate(0.4,345.0,1498.3)" >3250</text>
<line x1='378.4' y1='1413.2' x2='358.4' y2='1411.6' style="stroke-width:4.0;stroke:rgb(0,0,0);stroke-linecap:round;fill:none;" />
<text x="348.0" y="1417.3" font-size="18.2px" font-family="CMUBright-Roman" style="text-anchor:end;fill:rgb(0,0,0);" transform="rotate(4.4,348.0,1417.3)" >3300</text>
<line x1='387.2' y1='1334.8' x2='367.4' y2='1331.9' style="stroke-width:4.0;stroke:rgb(0,0,0);stroke-linecap:round;fill:none;" />
<text x="356.6" y="1336.8" font-size="18.2px" font-family="CMUBright-Roman" style="text-anchor:end;fill:rgb(0,0,0);" transform="rotate(8.4,356.6,1336.8)" >3350</text>
<line x1='401.5' y1='1257.2' x2='382.0' y2='1252.9' style="stroke-width:4.0;stroke:rgb(0,0,0);stroke-linecap:round;fill:none;" />
<text x="370.8" y="1257.1" font-size="18.2px" font-family="CMUBright-Roman" style="text-anchor:end;fill:rgb(0,0,0);" transform="rotate(12.5,370.8,1257.1)" >3400</text>
<line x1='421.2' y1='1180.9' x2='402.0' y2='1175.2' style="stroke-width:4.0;stroke:rgb(0,0,0);stroke-linecap:round;fill:none;" />
<text x="390.6" y="1178.6" font-size="18.2px" font-family="CMUBright-Roman" style="text-anchor:end;fill:rgb(0,0,0);" transform="rotate(16.5,390.6,1178.6)" >3450</text>
<line x1='446.2' y1='1106.1' x2='427.5' y2='1099.1' style="stroke-width:4.0;stroke:rgb(0,0,0);stroke-linecap:round;fill:none;" />
<text x="415.9" y="1101.7" font-size="18.2px" font-family="CMUBright-Roman" style="text-anchor:end;fill:rgb(0,0,0);" transform="rotate(20.5,415.9,1101.7)" >3500</text>
<line x1='476.4' y1='1033.2' x2='458.2' y2='1024.9' style="stroke-width:4.0;stroke:rgb(0,0,0);stroke-linecap:round;fill:none;" />
<text x="446.4" y="1026.7" font-size="18.2px" font-family="CMUBright-Roman" style="text-anchor:end;fill:rgb(0,0,0);" transform="rotate(24.5,446.4,1026.7)" >3550</text>
<line x1='511.6' y1='962.6' x2='494.1' y2='953.1' style="stroke-width:4.0;stroke:rgb(0,0,0);stroke-linecap:round;fill:none;" />
<text x="482.2" y="954.0" font-size="18.2px" font-family="CMUBright-Roman" style="text-anchor:end;fill:rgb(0,0,0);" transform="rotate(28.5,482.2,954.0)" >3600</text>
<line x1='551.7' y1='894.7' x2='534.9' y2='883.9' style="stroke-width:4.0;stroke:rgb(0,0,0);stroke-linecap:round;fill:none;" />
<text x="523.0" y="884.0" font-size="18.2px" font-family="CMUBright-Roman" style="text-anchor:end;fill:rgb(0,0,0);" transform="rotate(32.6,523.0,884.0)" >3650</text>
<line x1='596.5' y1='829.7' x2='580.4' y2='817.8' style="stroke-width:4.0;stroke:rgb(0,0,0);stroke-linecap:round;fill:none;" />
<text x="568.5" y="817.1" font-size="18.2px" font-family="CMUBright-Roman" style="text-anchor:end;fill:rgb(0,0,0);" transform="rotate(36.6,568.5,817.1)" >3700</text>
<line x1='645.6' y1='768.1' x2='630.5' y2='755.1' style="stroke-width:4.0;stroke:rgb(0,0,0);stroke-linecap:round;fill:none;" />
<text x="618.6" y="753.5" font-size="18.2px" font-family="CMUBright-Roman" style="text-anchor:end;fill:rgb(0,0,0);" transform="rotate(40.6,618.6,753.5)" >3750</text>
<line x1='699.0' y1='710.0' x2='684.8' y2='696.0' style="stroke-width:4.0;stroke:rgb(0,0,0);stroke-linecap:round;fill:none;" />
<text x="673.1" y="693.6" font-size="18.2px" font-family="CMUBright-Roman" style="text-anchor:end;fill:rgb(0,0,0);" transform="rotate(44.6,673.1,693.6)" >3800</text>
<line x1='756.3' y1='655.8' x2='743.1' y2='640.8' style="stroke-width:4.0;stroke:rgb(0,0,0);stroke-linecap:round;fill:none;" />
<text x="731.6" y="637.6" font-size="18.2px" font-family="CMUBright-Roman" style="text-anchor:end;fill:rgb(0,0,0);" transform="rotate(48.6,731.6,637.6)" >3850</text>
<line x1='817.3' y1='605.8' x2='805.2' y2='589.9' style="stroke-width:4.0;stroke:rgb(0,0,0);stroke-linecap:round;fill:none;" />
<text x="794.0" y="585.9" font-size="18.2px" font-family="CMUBright-Roman" style="text-anchor:end;fill:rgb(0,0,0);" transform="rotate(52.6,794.0,585.9)" >3900</text>
<line x1='881.6' y1='560.2' x2='870.7' y2='543.5' style="stroke-width:4.0;stroke:rgb(0,0,0);stroke-linecap:round;fill:none;" />
<text x="859.7" y="538.7" font-size="18.2px" font-family="CMUBright-Roman" style="text-anchor:end;fill:rgb(0,0,0);" transform="rotate(56.7,859.7,538.7)" >3950</text>
<line x1='949.0' y1='519.2' x2='939.2' y2='501.7' style="stroke-width:4.0;stroke:rgb(0,0,0);stroke-linecap:round;fill:none;" />
<text x="928.7" y="496.2" font-size="18.2px" font-family="CMUBright-Roman" style="text-anchor:end;fill:rgb(0,0,0);" transform="rotate(60.7,928.7,496.2)" >4000</text>
<line x1='1019.1' y1='483.0' x2='1010.5' y2='464.9' style="stroke-width:4.0;stroke:rgb(0,0,0);stroke-linecap:round;fill:none;" />
<text x="1000.4" y="458.6" font-size="18.2px" font-family="CMUBright-Roman" style="text-anchor:end;fill:rgb(0,0,0);" transform="rotate(64.7,1000.4,458.6)" >4050</text>
<line x1='1091.5' y1='451.8' x2='1084.3' y2='433.1' style="stroke-width:4.0;stroke:rgb(0,0,0);stroke-linecap:round;fill:none;" />
<text x="1074.6" y="426.2" font-size="18.2px" font-family="CMUBright-Roman" style="text-anchor:end;fill:rgb(0,0,0);" transform="rotate(68.7,1074.6,426.2)" >4100</text>
<line x1='1166.0' y1='425.7' x2='1160.0' y2='406.6' style="stroke-width:4.0;stroke:rgb(0,0,0);stroke-linecap:round;fill:none;" />
<text x="1150.9" y="399.0" font-size="18.2px" font-family="CMUBright-Roman" style="text-anchor:end;fill:rgb(0,0,0);" transform="rotate(72.7,1150.9,399.0)" >4150</text>
<line x1='1242.1' y1='405.0' x2='1237.5' y2='385.5' style="stroke-width:4.0;stroke:rgb(0,0,0);stroke-linecap:round;fill:none;" />
<text x="1228.9" y="377.3" font-size="18.2px" font-family="CMUBright-Roman" style="text-anchor:end;fill:rgb(0,0,0);" transform="rotate(76.7,1228.9,377.3)" >4200</text>
<line x1='1319.4' y1='389.6' x2='1316.2' y2='369.8' style="stroke-width:4.0;stroke:rgb(0,0,0);stroke-linecap:round;fill:none;" />
<text x="1308.2" y="361.0" font-size="18.2px" font-family="CMUBright-Roman" style="text-anchor:end;fill:rgb(0,0,0);" transform="rotate(80.8,1308.2,361.0)" >4250</text>
<line x1='1397.7' y1='379.7' x2='1395.8' y2='359.7' style="stroke-width:4.0;stroke:rgb(0,0,0);stroke-linecap:round;fill:none;" />
<text x="1388.5" y="350.4" font-size="18.2px" font-family="CMUBright-Roman" style="text-anchor:end;fill:rgb(0,0,0);" transform="rotate(84.8,1388.5,350.4)" >4300</text>
<g id="highlighttrack_0">
<path d="M1879.363,494.163 A1075.000,1075.000 40.000 0,1 1883.469,495.721 L1901.305,449.010 A1125.000,1125.000 0.000 0,0 1897.008,447.379 Z" style="stroke-width:4.0;stroke:rgb(0,0,0);stroke-linecap:round;fill:rgb(251,106,74);" />
<path d="M1951.530,524.426 A1075.000,1075.000 40.000 0,1 1955.490,526.268 L1976.676,480.978 A1125.000,1125.000 0.000 0,0 1972.532,479.050 Z" style="stroke-width:4.0;stroke:rgb(0,0,0);stroke-linecap:round;fill:rgb(251,106,74);" />
<path d="M2573.941,1547.711 A1075.000,1075.000 40.000 0,1 2573.738,1552.074 L2623.679,1554.496 A1125.000,1125.000 0.000 0,0 2623.891,1549.930 Z" style="stroke-width:4.0;stroke:rgb(0,0,0);stroke-linecap:round;fill:rgb(251,106,74);" />
<path d="M2060.482,2417.325 A1075.000,1075.000 40.000 0,1 2056.730,2419.607 L2082.624,2462.379 A1125.000,1125.000 0.000 0,0 2086.551,2459.991 Z" style="stroke-width:4.0;stroke:rgb(0,0,0);stroke-linecap:round;fill:rgb(251,106,74);" />
<path d="M779.691,702.015 A1075.000,1075.000 40.000 0,1 782.771,699.246 L749.411,662.002 A1125.000,1125.000 0.000 0,0 746.188,664.900 Z" style="stroke-width:4.0;stroke:rgb(0,0,0);stroke-linecap:round;fill:rgb(116,196,118);" />
<path d="M787.634,694.916 A1075.000,1075.000 40.000 0,1 790.862,692.071 L757.879,654.493 A1125.000,1125.000 0.000 0,0 754.501,657.471 Z" style="stroke-width:4.0;stroke:rgb(0,0,0);stroke-linecap:round;fill:rgb(116,196,118);" />
<path d="M1229.810,459.509 A1075.000,1075.000 40.000 0,1 1233.976,458.436 L1221.603,409.991 A1125.000,1125.000 0.000 0,0 1217.243,411.114 Z" style="stroke-width:4.0;stroke:rgb(0,0,0);stroke-linecap:round;fill:rgb(116,196,118);" />
<path d="M1346.735,435.982 A1075.000,1075.000 40.000 0,1 1350.996,435.377 L1344.065,385.859 A1125.000,1125.000 0.000 0,0 1339.607,386.492 Z" style="stroke-width:4.0;stroke:rgb(0,0,0);stroke-linecap:round;fill:rgb(116,196,118);" />
<path d="M1919.204,510.104 A1075.000,1075.000 40.000 0,1 1924.132,512.206 L1943.859,466.262 A1125.000,1125.000 0.000 0,0 1938.701,464.063 Z" style="stroke-width:4.0;stroke:rgb(0,0,0);stroke-linecap:round;fill:rgb(251,106,74);" />
</g>
</g>
<g id="track_0">
<path d="M 1875.569,504.221 A 1064.250,1064.250 0.00 0,1 1879.6,505.8 L 1879.6,505.8 1853.4,574.1 1828.8,637.1 1805.8,695.2 1784.3,748.4 1764.2,797.2 1745.5,841.6 1728.1,881.8 1711.9,918.2 1696.8,950.8 1682.9,979.9 1669.9,1005.5 1658.0,1027.7 1647.0,1046.8 1636.8,1062.8 1627.5,1075.8 1619.1,1085.8 1611.3,1093.0 1604.3,1097.3 1598.0,1098.8 1592.4,1097.4 1587.4,1093.3 1583.1,1086.3 1579.4,1076.5 1576.3,1063.7 1573.8,1047.9 1572.0,1029.1 1570.7,1007.1 1570.0,981.8 1569.9,953.1 1570.5,920.9 1571.6,885.0 1573.5,845.2 1576.0,801.4 1579.2,753.3 1583.1,700.8 1587.8,643.5 1593.3,581.4 1599.6,514.0 1606.8,441.1  A 1064.250,1064.250 0.00 0,0 1602.5,440.7 L 1602.5,440.7 1595.6,513.6 1589.6,581.0 1584.4,643.2 1579.9,700.4 1576.2,753.0 1573.2,801.1 1570.9,844.9 1569.2,884.7 1568.1,920.6 1567.7,952.8 1567.9,981.5 1568.7,1006.8 1570.1,1028.8 1572.0,1047.6 1574.6,1063.4 1577.7,1076.1 1581.4,1086.0 1585.8,1092.9 1590.8,1097.1 1596.4,1098.4 1602.7,1096.9 1609.7,1092.5 1617.4,1085.4 1625.8,1075.3 1635.1,1062.3 1645.1,1046.2 1656.1,1027.1 1667.9,1004.8 1680.8,979.1 1694.6,950.0 1709.5,917.4 1725.6,880.9 1742.8,840.6 1761.3,796.1 1781.2,747.3 1802.5,693.9 1825.2,635.8 1849.6,572.7 1875.6,504.2  Z" style="stroke-width: 2.0;  stroke: rgb(82,82,82); fill: rgb(251,106,74); opacity: 0.667;" />
<path d="M 1947.015,534.181 A 1064.250,1064.250 0.00 0,1 1950.9,536.0 L 1950.9,536.0 1919.7,602.2 1890.5,663.3 1863.1,719.4 1837.5,770.9 1813.6,818.0 1791.3,860.8 1770.5,899.6 1751.1,934.5 1733.0,965.8 1716.3,993.6 1700.7,1018.0 1686.3,1039.2 1673.0,1057.3 1660.7,1072.3 1649.3,1084.4 1638.9,1093.6 1629.4,1100.0 1620.8,1103.6 1612.9,1104.4 1605.8,1102.4 1599.5,1097.7 1593.9,1090.2 1588.9,1079.8 1584.7,1066.6 1581.2,1050.4 1578.3,1031.2 1576.1,1008.9 1574.6,983.3 1573.8,954.3 1573.6,921.9 1574.2,885.8 1575.4,845.8 1577.4,801.8 1580.2,753.6 1583.8,701.0 1588.2,643.6 1593.5,581.4 1599.6,514.0 1606.8,441.1  A 1064.250,1064.250 0.00 0,0 1602.5,440.7 L 1602.5,440.7 1595.7,513.6 1589.8,581.0 1584.8,643.3 1580.6,700.6 1577.2,753.3 1574.7,801.5 1572.8,845.5 1571.7,885.5 1571.3,921.6 1571.6,954.0 1572.6,983.0 1574.2,1008.6 1576.5,1030.9 1579.4,1050.1 1583.0,1066.3 1587.3,1079.5 1592.2,1089.8 1597.8,1097.3 1604.2,1102.0 1611.3,1103.9 1619.2,1103.1 1627.8,1099.5 1637.3,1093.0 1647.7,1083.8 1658.9,1071.7 1671.2,1056.6 1684.4,1038.5 1698.8,1017.2 1714.2,992.7 1730.9,964.9 1748.8,933.5 1768.0,898.5 1788.7,859.6 1810.8,816.7 1834.6,769.5 1859.9,718.0 1887.1,661.7 1916.1,600.5 1947.0,534.2  Z" style="stroke-width: 2.0;  stroke: rgb(82,82,82); fill: rgb(116,196,118); opacity: 0.667;" />
<path d="M 1947.015,534.181 A 1064.250,1064.250 0.00 0,1 1950.9,536.0 L 1950.9,536.0 1919.9,602.3 1891.1,663.5 1864.5,719.9 1839.9,771.7 1817.3,819.2 1796.5,862.5 1777.5,901.8 1760.2,937.4 1744.5,969.4 1730.4,997.9 1717.7,1023.2 1706.4,1045.2 1696.4,1064.2 1687.8,1080.2 1680.4,1093.3 1674.3,1103.5 1669.3,1111.1 1665.5,1115.8 1662.9,1117.9 1661.5,1117.3 1661.1,1114.0 1661.9,1107.9 1663.9,1099.2 1667.0,1087.6 1671.3,1073.2 1676.8,1055.9 1683.5,1035.5 1691.5,1012.1 1700.8,985.4 1711.5,955.4 1723.6,921.9 1737.1,884.7 1752.2,843.7 1768.9,798.7 1787.3,749.4 1807.5,695.7 1829.6,637.4 1853.6,574.2 1879.6,505.8  A 1064.250,1064.250 0.00 0,0 1875.6,504.2 L 1875.6,504.2 1849.8,572.7 1826.0,636.1 1804.2,694.5 1784.3,748.2 1766.1,797.6 1749.6,842.7 1734.6,883.7 1721.2,921.0 1709.3,954.5 1698.7,984.6 1689.5,1011.3 1681.6,1034.8 1675.0,1055.1 1669.6,1072.5 1665.3,1086.9 1662.3,1098.5 1660.3,1107.3 1659.6,1113.3 1659.9,1116.6 1661.4,1117.2 1664.0,1115.2 1667.7,1110.4 1672.6,1102.8 1678.8,1092.5 1686.1,1079.4 1694.6,1063.4 1704.5,1044.4 1715.7,1022.3 1728.3,997.0 1742.4,968.4 1757.9,936.4 1775.1,900.7 1793.9,861.3 1814.5,817.9 1836.9,770.3 1861.3,718.4 1887.7,661.9 1916.2,600.6 1947.0,534.2  Z" style="stroke-width: 2.0;  stroke: rgb(82,82,82); fill: rgb(107,174,214); opacity: 0.667;" />
<path d="M 2563.201,1547.234 A 1064.250,1064.250 0.00 0,1 2563.0,1551.6 L 2563.0,1551.6 2489.6,1547.1 2421.1,1541.3 2357.2,1534.3 2297.6,1526.0 2242.1,1516.7 2190.3,1506.3 2142.1,1495.0 2097.1,1482.8 2055.3,1469.7 2016.2,1455.8 1979.8,1441.1 1945.8,1425.6 1914.2,1409.2 1884.6,1392.1 1856.9,1374.2 1831.1,1355.3 1807.0,1335.6 1784.5,1314.9 1763.4,1293.1 1743.7,1270.2 1725.3,1246.2 1708.2,1220.8 1692.2,1194.0 1677.4,1165.7 1663.8,1135.7 1651.2,1103.9 1639.8,1070.1 1629.5,1034.3 1620.3,996.1 1612.4,955.4 1605.7,912.0 1600.2,865.8 1596.2,816.4 1593.6,763.7 1592.6,707.4 1593.3,647.2 1595.8,583.0 1600.2,514.4 1606.8,441.1  A 1064.250,1064.250 0.00 0,0 1602.5,440.7 L 1602.5,440.7 1596.3,514.0 1592.1,582.6 1589.9,646.9 1589.5,707.0 1590.7,763.3 1593.5,816.0 1597.7,865.4 1603.3,911.6 1610.2,954.9 1618.3,995.6 1627.6,1033.7 1638.1,1069.6 1649.6,1103.3 1662.3,1135.0 1676.1,1165.0 1691.0,1193.2 1707.0,1220.0 1724.3,1245.3 1742.8,1269.3 1762.6,1292.0 1783.7,1313.7 1806.3,1334.3 1830.6,1354.0 1856.4,1372.7 1884.1,1390.6 1913.8,1407.6 1945.5,1423.7 1979.6,1439.1 2016.0,1453.7 2055.1,1467.4 2097.1,1480.3 2142.1,1492.4 2190.3,1503.5 2242.1,1513.7 2297.7,1522.8 2357.3,1530.8 2421.2,1537.6 2489.8,1543.1 2563.2,1547.2  Z" style="stroke-width: 2.0;  stroke: rgb(82,82,82); fill: rgb(253,141,60); opacity: 0.667;" />
<path d="M 2563.201,1547.234 A 1064.250,1064.250 0.00 0,1 2563.0,1551.6 L 2563.0,1551.6 2489.7,1547.3 2421.5,1541.8 2358.1,1535.3 2299.2,1527.8 2244.7,1519.4 2194.1,1510.0 2147.3,1499.9 2104.0,1488.8 2064.0,1477.0 2027.1,1464.5 1993.2,1451.1 1961.9,1437.0 1933.3,1422.1 1907.0,1406.3 1883.1,1389.7 1861.3,1372.3 1841.6,1353.9 1823.8,1334.5 1808.0,1314.1 1793.9,1292.6 1781.6,1269.9 1771.0,1245.8 1762.0,1220.4 1754.8,1193.4 1749.2,1164.8 1745.4,1134.5 1743.2,1102.3 1742.8,1068.0 1744.2,1031.5 1747.5,992.7 1752.7,951.3 1760.0,907.3 1769.5,860.3 1781.3,810.2 1795.5,756.8 1812.2,699.9 1831.7,639.3 1854.1,574.6 1879.6,505.8  A 1064.250,1064.250 0.00 0,0 1875.6,504.2 L 1875.6,504.2 1850.3,573.2 1828.2,637.9 1808.9,698.7 1792.4,755.6 1778.5,809.1 1766.9,859.2 1757.6,906.2 1750.5,950.3 1745.4,991.7 1742.3,1030.5 1741.0,1067.0 1741.6,1101.3 1743.9,1133.5 1747.9,1163.8 1753.6,1192.4 1760.9,1219.3 1769.9,1244.7 1780.6,1268.7 1793.0,1291.4 1807.2,1312.9 1823.2,1333.2 1841.0,1352.5 1860.8,1370.8 1882.6,1388.2 1906.7,1404.7 1933.0,1420.3 1961.7,1435.1 1993.0,1449.1 2027.0,1462.3 2063.9,1474.8 2103.9,1486.4 2147.3,1497.2 2194.1,1507.2 2244.7,1516.4 2299.4,1524.6 2358.2,1531.8 2421.6,1538.1 2489.9,1543.2 2563.2,1547.2  Z" style="stroke-width: 2.0;  stroke: rgb(82,82,82); fill: rgb(255,0,0); opacity: 0.667;" />
<path d="M 2563.201,1547.234 A 1064.250,1064.250 0.00 0,1 2563.0,1551.6 L 2563.0,1551.6 2489.7,1547.3 2421.6,1542.0 2358.3,1535.6 2299.7,1528.4 2245.3,1520.2 2195.0,1511.2 2148.6,1501.4 2105.7,1490.7 2066.2,1479.4 2029.9,1467.2 1996.5,1454.3 1966.0,1440.7 1938.1,1426.3 1912.8,1411.1 1889.8,1395.0 1869.1,1378.1 1850.5,1360.3 1834.0,1341.5 1819.4,1321.7 1806.8,1300.8 1796.1,1278.7 1787.2,1255.3 1780.1,1230.6 1774.9,1204.4 1771.4,1176.6 1769.8,1147.0 1770.1,1115.7 1772.3,1082.3 1776.5,1046.8 1782.7,1009.0 1791.1,968.8 1801.7,925.9 1814.8,880.2 1830.3,831.6 1848.4,779.7 1869.4,724.4 1893.3,665.5 1920.5,602.8 1950.9,536.0  A 1064.250,1064.250 0.00 0,0 1947.0,534.2 L 1947.0,534.2 1916.8,601.1 1889.9,663.9 1866.2,722.9 1845.5,778.3 1827.5,830.2 1812.2,878.9 1799.4,924.7 1788.9,967.6 1780.7,1007.9 1774.6,1045.7 1770.6,1081.2 1768.5,1114.6 1768.4,1145.9 1770.1,1175.5 1773.7,1203.3 1779.0,1229.5 1786.2,1254.2 1795.2,1277.5 1806.0,1299.6 1818.7,1320.4 1833.3,1340.2 1849.9,1358.9 1868.6,1376.6 1889.4,1393.4 1912.4,1409.4 1937.8,1424.5 1965.8,1438.8 1996.3,1452.3 2029.7,1465.1 2066.1,1477.1 2105.7,1488.3 2148.6,1498.7 2195.1,1508.4 2245.4,1517.2 2299.8,1525.1 2358.5,1532.2 2421.7,1538.2 2489.9,1543.3 2563.2,1547.2  Z" style="stroke-width: 2.0;  stroke: rgb(82,82,82); fill: rgb(255,0,204); opacity: 0.667;" />
<path d="M 2054.877,2408.151 A 1064.250,1064.250 0.00 0,1 2051.2,2410.4 L 2051.2,2410.4 2013.8,2346.5 1980.2,2284.7 1950.2,2225.0 1923.2,2167.4 1899.0,2111.7 1877.3,2057.8 1857.7,2005.6 1840.1,1955.1 1824.2,1906.1 1809.6,1858.5 1796.3,1812.2 1784.0,1767.1 1772.6,1723.0 1761.8,1679.9 1751.5,1637.5 1741.7,1595.8 1732.1,1554.6 1722.7,1513.7 1713.5,1473.1 1704.4,1432.6 1695.3,1391.9 1686.2,1351.0 1677.1,1309.7 1668.1,1267.8 1659.2,1225.1 1650.4,1181.5 1641.8,1136.8 1633.5,1090.8 1625.7,1043.2 1618.3,994.0 1611.7,942.9 1605.9,889.7 1601.2,834.3 1597.6,776.3 1595.6,715.6 1595.2,651.9 1596.7,585.1 1600.5,514.9 1606.8,441.1  A 1064.250,1064.250 0.00 0,0 1602.5,440.7 L 1602.5,440.7 1596.6,514.5 1593.1,584.7 1591.8,651.5 1592.4,715.2 1594.7,775.9 1598.5,833.9 1603.5,889.3 1609.5,942.5 1616.3,993.6 1623.8,1042.7 1631.9,1090.2 1640.4,1136.2 1649.1,1180.9 1658.1,1224.5 1667.2,1267.1 1676.4,1309.0 1685.6,1350.3 1694.8,1391.1 1704.1,1431.7 1713.4,1472.3 1722.8,1512.8 1732.3,1553.6 1742.1,1594.8 1752.1,1636.5 1762.5,1678.8 1773.5,1721.9 1785.1,1765.9 1797.6,1811.0 1811.1,1857.3 1825.8,1904.8 1842.0,1953.7 1859.8,2004.2 1879.5,2056.2 1901.5,2110.0 1925.9,2165.6 1953.1,2223.2 1983.4,2282.7 2017.3,2344.3 2054.9,2408.2  Z" style="stroke-width: 2.0;  stroke: rgb(82,82,82); fill: rgb(255,204,204); opacity: 0.667;" />
<path d="M 2054.877,2408.151 A 1064.250,1064.250 0.00 0,1 2051.2,2410.4 L 2051.2,2410.4 2013.8,2346.6 1980.4,2285.3 1950.5,2226.3 1923.9,2169.6 1900.1,2115.0 1879.1,2062.3 1860.4,2011.5 1843.9,1962.5 1829.3,1915.0 1816.4,1869.0 1805.0,1824.2 1795.0,1780.7 1786.1,1738.2 1778.2,1696.6 1771.3,1655.8 1765.2,1615.6 1759.8,1575.8 1755.1,1536.4 1751.0,1497.2 1747.4,1457.9 1744.5,1418.6 1742.1,1379.0 1740.3,1338.9 1739.1,1298.2 1738.6,1256.8 1738.9,1214.5 1740.1,1171.1 1742.2,1126.5 1745.4,1080.4 1749.9,1032.8 1755.7,983.5 1763.2,932.3 1772.5,879.0 1783.8,823.4 1797.4,765.4 1813.5,704.9 1832.4,641.5 1854.3,575.2 1879.6,505.8  A 1064.250,1064.250 0.00 0,0 1875.6,504.2 L 1875.6,504.2 1850.5,573.8 1828.8,640.2 1810.2,703.6 1794.4,764.2 1781.1,822.3 1770.0,877.9 1760.9,931.2 1753.6,982.5 1748.0,1031.8 1743.7,1079.4 1740.6,1125.5 1738.7,1170.1 1737.7,1213.5 1737.6,1255.8 1738.3,1297.3 1739.6,1337.9 1741.6,1378.0 1744.1,1417.6 1747.3,1456.9 1751.0,1496.1 1755.2,1535.4 1760.1,1574.8 1765.7,1614.5 1771.9,1654.7 1779.0,1695.5 1787.0,1737.1 1796.1,1779.5 1806.3,1823.0 1817.9,1867.7 1831.0,1913.6 1845.8,1961.1 1862.5,2010.1 1881.4,2060.8 1902.7,2113.3 1926.6,2167.9 1953.5,2224.5 1983.6,2283.3 2017.3,2344.5 2054.9,2408.2  Z" style="stroke-width: 2.0;  stroke: rgb(82,82,82); fill: rgb(255,153,0); opacity: 0.667;" />
<path d="M 2054.877,2408.151 A 1064.250,1064.250 0.00 0,1 2051.2,2410.4 L 2051.2,2410.4 2013.8,2346.7 1980.4,2285.5 1950.6,2226.7 1924.0,2170.2 1900.4,2115.9 1879.5,2063.7 1861.0,2013.3 1844.8,1964.6 1830.5,1917.6 1818.0,1872.1 1807.1,1827.9 1797.6,1784.9 1789.3,1743.0 1782.2,1701.9 1776.2,1661.7 1771.0,1622.0 1766.7,1582.9 1763.2,1544.1 1760.4,1505.4 1758.4,1466.8 1757.0,1428.1 1756.4,1389.1 1756.5,1349.7 1757.4,1309.8 1759.1,1269.1 1761.8,1227.6 1765.5,1185.0 1770.3,1141.2 1776.5,1096.1 1784.1,1049.5 1793.3,1001.2 1804.2,951.2 1817.2,899.1 1832.4,844.9 1850.1,788.4 1870.5,729.4 1893.9,667.8 1920.6,603.4 1950.9,536.0  A 1064.250,1064.250 0.00 0,0 1947.0,534.2 L 1947.0,534.2 1917.0,601.7 1890.5,666.2 1867.4,727.9 1847.2,787.0 1829.8,843.5 1814.8,897.8 1802.0,949.9 1791.2,1000.0 1782.2,1048.4 1774.8,1095.0 1768.9,1140.1 1764.2,1183.9 1760.7,1226.5 1758.2,1268.1 1756.6,1308.7 1755.9,1348.7 1755.9,1388.1 1756.7,1427.1 1758.2,1465.8 1760.5,1504.4 1763.4,1543.0 1767.1,1581.8 1771.5,1620.9 1776.8,1660.6 1783.1,1700.8 1790.3,1741.8 1798.7,1783.7 1808.4,1826.7 1819.5,1870.8 1832.2,1916.3 1846.7,1963.2 1863.1,2011.8 1881.8,2062.1 1902.9,2114.3 1926.7,2168.5 1953.5,2224.9 1983.6,2283.5 2017.3,2344.5 2054.9,2408.2  Z" style="stroke-width: 2.0;  stroke: rgb(82,82,82); fill: rgb(255,204,0); opacity: 0.667;" />
<path d="M 2054.877,2408.151 A 1064.250,1064.250 0.00 0,1 2051.2,2410.4 L 2051.2,2410.4 2013.7,2347.4 1979.9,2288.2 1949.5,2232.8 1922.5,2180.8 1898.5,2132.1 1877.5,2086.6 1859.3,2043.9 1843.8,2004.0 1830.7,1966.6 1820.1,1931.7 1811.8,1899.0 1805.8,1868.5 1801.9,1839.9 1800.1,1813.2 1800.4,1788.3 1802.8,1765.0 1807.2,1743.2 1813.6,1722.9 1822.0,1703.9 1832.6,1686.2 1845.2,1669.7 1860.1,1654.4 1877.1,1640.2 1896.5,1627.0 1918.3,1614.9 1942.6,1603.8 1969.6,1593.6 1999.3,1584.4 2032.0,1576.1 2067.8,1568.8 2106.8,1562.5 2149.4,1557.2 2195.5,1552.9 2245.6,1549.7 2299.8,1547.6 2358.4,1546.7 2421.6,1547.0 2489.7,1548.6 2563.0,1551.6  A 1064.250,1064.250 0.00 0,0 2563.2,1547.2 L 2563.2,1547.2 2489.9,1544.6 2421.8,1543.2 2358.6,1543.2 2300.0,1544.4 2245.8,1546.7 2195.8,1550.1 2149.6,1554.6 2107.1,1560.1 2068.1,1566.5 2032.3,1574.0 1999.7,1582.3 1970.0,1591.7 1943.0,1602.0 1918.8,1613.2 1897.0,1625.4 1877.7,1638.7 1860.7,1653.0 1845.9,1668.3 1833.3,1684.9 1822.9,1702.6 1814.5,1721.6 1808.2,1742.0 1803.9,1763.7 1801.6,1787.1 1801.4,1812.0 1803.3,1838.7 1807.3,1867.2 1813.4,1897.7 1821.9,1930.4 1832.6,1965.3 1845.8,2002.6 1861.5,2042.4 1879.9,2085.0 1901.1,2130.5 1925.3,2179.1 1952.5,2230.9 1983.1,2286.3 2017.1,2345.3 2054.9,2408.2  Z" style="stroke-width: 2.0;  stroke: rgb(82,82,82); fill: rgb(255,255,0); opacity: 0.667;" />
<path d="M 786.894,709.995 A 1064.250,1064.250 0.00 0,1 789.9,707.3 L 789.9,707.3 839.2,761.5 885.7,811.2 929.4,856.5 970.7,897.6 1009.5,934.8 1046.1,968.3 1080.6,998.3 1113.0,1025.0 1143.6,1048.4 1172.5,1068.8 1199.7,1086.3 1225.4,1100.9 1249.6,1112.9 1272.6,1122.2 1294.3,1129.0 1314.9,1133.3 1334.4,1135.1 1353.0,1134.5 1370.6,1131.4 1387.4,1126.0 1403.5,1118.0 1418.8,1107.6 1433.6,1094.6 1447.7,1079.0 1461.2,1060.8 1474.3,1039.7 1486.8,1015.7 1498.9,988.8 1510.6,958.6 1521.9,925.1 1532.9,888.2 1543.4,847.5 1553.6,803.0 1563.4,754.4 1572.9,701.4 1581.9,643.9 1590.6,581.5 1598.9,514.0 1606.8,441.1  A 1064.250,1064.250 0.00 0,0 1602.5,440.7 L 1602.5,440.7 1595.0,513.6 1587.0,581.1 1578.5,643.5 1569.7,701.1 1560.4,754.1 1550.8,802.8 1540.8,847.3 1530.4,888.0 1519.6,925.0 1508.5,958.6 1496.9,988.8 1484.9,1015.8 1472.4,1039.8 1459.5,1060.9 1446.0,1079.2 1431.9,1094.9 1417.3,1107.9 1402.0,1118.4 1386.0,1126.4 1369.2,1131.9 1351.5,1135.1 1333.0,1135.7 1313.5,1134.0 1292.9,1129.8 1271.1,1123.1 1248.1,1113.9 1223.8,1102.0 1198.1,1087.4 1170.8,1070.1 1141.9,1049.8 1111.2,1026.4 1078.6,999.9 1044.0,970.1 1007.3,936.7 968.4,899.6 927.0,858.7 883.0,813.5 836.4,764.1 786.9,710.0  Z" style="stroke-width: 2.0;  stroke: rgb(82,82,82); fill: rgb(204,255,0); opacity: 0.667;" />
<path d="M 786.894,709.995 A 1064.250,1064.250 0.00 0,1 789.9,707.3 L 789.9,707.3 839.4,761.5 886.3,811.0 930.8,856.2 973.1,897.1 1013.3,934.2 1051.5,967.5 1087.8,997.4 1122.4,1023.9 1155.3,1047.3 1186.8,1067.8 1216.9,1085.3 1245.7,1100.2 1273.4,1112.5 1300.0,1122.3 1325.7,1129.6 1350.6,1134.6 1374.7,1137.3 1398.1,1137.7 1421.1,1135.8 1443.5,1131.7 1465.6,1125.2 1487.3,1116.5 1508.9,1105.4 1530.3,1091.8 1551.7,1075.8 1573.0,1057.1 1594.5,1035.7 1616.1,1011.5 1637.9,984.3 1660.0,954.0 1682.4,920.4 1705.2,883.2 1728.5,842.4 1752.2,797.6 1776.5,748.6 1801.3,695.2 1826.8,637.1 1852.8,574.1 1879.6,505.8  A 1064.250,1064.250 0.00 0,0 1875.6,504.2 L 1875.6,504.2 1849.1,572.7 1823.2,635.8 1798.0,694.0 1773.4,747.5 1749.3,796.5 1725.8,841.4 1702.7,882.4 1680.1,919.6 1657.8,953.4 1635.8,983.8 1614.1,1011.1 1592.6,1035.3 1571.3,1056.8 1550.0,1075.5 1528.7,1091.7 1507.3,1105.3 1485.8,1116.5 1464.1,1125.3 1442.0,1131.9 1419.6,1136.1 1396.7,1138.1 1373.3,1137.8 1349.1,1135.2 1324.3,1130.3 1298.6,1123.1 1271.9,1113.4 1244.2,1101.2 1215.3,1086.4 1185.1,1069.0 1153.6,1048.7 1120.5,1025.4 1085.8,999.0 1049.4,969.3 1011.1,936.1 970.8,899.2 928.4,858.4 883.7,813.4 836.5,764.0 786.9,710.0  Z" style="stroke-width: 2.0;  stroke: rgb(82,82,82); fill: rgb(0,255,0); opacity: 0.667;" />
<path d="M 786.894,709.995 A 1064.250,1064.250 0.00 0,1 789.9,707.3 L 789.9,707.3 839.4,761.5 886.5,811.0 931.2,856.1 973.8,897.1 1014.3,934.1 1052.9,967.5 1089.8,997.3 1124.9,1023.9 1158.5,1047.4 1190.7,1067.9 1221.6,1085.7 1251.3,1100.7 1279.9,1113.2 1307.5,1123.3 1334.2,1130.9 1360.2,1136.3 1385.5,1139.4 1410.3,1140.3 1434.5,1139.0 1458.4,1135.4 1482.1,1129.7 1505.5,1121.7 1528.8,1111.4 1552.2,1098.8 1575.6,1083.7 1599.1,1066.1 1622.9,1045.9 1646.9,1022.9 1671.4,997.0 1696.3,968.1 1721.7,935.9 1747.6,900.3 1774.3,861.1 1801.6,818.0 1829.7,770.8 1858.6,719.3 1888.5,663.2 1919.2,602.2 1950.9,536.0  A 1064.250,1064.250 0.00 0,0 1947.0,534.2 L 1947.0,534.2 1915.6,600.5 1885.1,661.7 1855.5,717.9 1826.8,769.5 1798.8,816.8 1771.7,860.0 1745.2,899.3 1719.4,935.0 1694.1,967.3 1669.3,996.3 1645.0,1022.3 1621.0,1045.4 1597.3,1065.7 1573.9,1083.4 1550.6,1098.6 1527.3,1111.3 1504.0,1121.7 1480.6,1129.7 1457.0,1135.6 1433.1,1139.2 1408.8,1140.6 1384.1,1139.8 1358.8,1136.8 1332.8,1131.6 1306.0,1124.0 1278.3,1114.1 1249.7,1101.7 1220.0,1086.7 1189.0,1069.1 1156.8,1048.7 1123.1,1025.4 1087.8,998.9 1050.9,969.2 1012.2,936.0 971.5,899.1 928.8,858.3 883.8,813.4 836.6,764.0 786.9,710.0  Z" style="stroke-width: 2.0;  stroke: rgb(82,82,82); fill: rgb(53,128,0); opacity: 0.667;" />
<path d="M 786.894,709.995 A 1064.250,1064.250 0.00 0,1 789.9,707.3 L 789.9,707.3 840.1,761.6 889.2,811.6 937.2,857.5 984.0,899.8 1029.8,938.8 1074.5,974.7 1118.1,1007.9 1160.7,1038.6 1202.4,1067.2 1243.2,1093.8 1283.1,1118.8 1322.3,1142.2 1360.8,1164.4 1398.6,1185.5 1436.0,1205.6 1473.0,1225.0 1509.6,1243.7 1546.1,1261.9 1582.6,1279.6 1619.1,1297.0 1655.8,1314.1 1692.9,1331.0 1730.5,1347.6 1768.9,1364.1 1808.1,1380.4 1848.3,1396.6 1889.8,1412.5 1932.7,1428.1 1977.2,1443.4 2023.6,1458.2 2072.0,1472.6 2122.8,1486.3 2176.1,1499.2 2232.1,1511.3 2291.2,1522.3 2353.5,1532.0 2419.4,1540.2 2489.2,1546.8 2563.0,1551.6  A 1064.250,1064.250 0.00 0,0 2563.2,1547.2 L 2563.2,1547.2 2489.3,1542.8 2419.6,1536.5 2353.7,1528.5 2291.3,1519.0 2232.1,1508.3 2176.1,1496.5 2122.7,1483.8 2071.9,1470.3 2023.4,1456.1 1977.0,1441.4 1932.4,1426.3 1889.4,1410.9 1847.9,1395.2 1807.6,1379.2 1768.3,1363.0 1729.9,1346.7 1692.2,1330.2 1655.1,1313.5 1618.3,1296.5 1581.7,1279.3 1545.2,1261.7 1508.6,1243.6 1471.9,1225.1 1434.9,1205.9 1397.4,1185.9 1359.5,1164.9 1320.9,1142.9 1281.6,1119.6 1241.6,1094.8 1200.7,1068.3 1158.9,1039.9 1116.2,1009.3 1072.4,976.3 1027.6,940.6 981.7,901.8 934.7,859.7 886.6,813.9 837.3,764.2 786.9,710.0  Z" style="stroke-width: 2.0;  stroke: rgb(82,82,82); fill: rgb(0,0,204); opacity: 0.667;" />
<path d="M 786.894,709.995 A 1064.250,1064.250 0.00 0,1 789.9,707.3 L 789.9,707.3 838.6,763.4 883.5,818.6 924.9,872.6 963.1,925.5 998.7,977.1 1031.8,1027.5 1062.8,1076.6 1092.1,1124.3 1119.9,1170.8 1146.4,1216.0 1172.0,1259.8 1196.9,1302.5 1221.2,1343.9 1245.3,1384.1 1269.4,1423.3 1293.5,1461.4 1317.8,1498.6 1342.6,1535.0 1367.9,1570.6 1393.9,1605.7 1420.6,1640.3 1448.2,1674.6 1476.7,1708.8 1506.1,1743.0 1536.6,1777.4 1568.0,1812.2 1600.5,1847.6 1634.0,1883.8 1668.5,1921.1 1704.0,1959.6 1740.3,1999.7 1777.5,2041.7 1815.4,2085.7 1853.9,2132.0 1893.0,2181.1 1932.4,2233.1 1972.0,2288.5 2011.6,2347.4 2051.2,2410.4  A 1064.250,1064.250 0.00 0,0 2054.9,2408.2 L 2054.9,2408.2 2015.1,2345.3 1975.2,2286.5 1935.3,2231.3 1895.7,2179.5 1856.5,2130.6 1817.8,2084.4 1779.7,2040.5 1742.4,1998.7 1705.9,1958.8 1670.3,1920.4 1635.6,1883.2 1602.0,1847.1 1569.3,1811.9 1537.7,1777.2 1507.1,1742.9 1477.6,1708.9 1448.9,1674.8 1421.2,1640.6 1394.4,1606.1 1368.3,1571.1 1342.8,1535.6 1317.9,1499.3 1293.4,1462.2 1269.1,1424.1 1244.9,1385.1 1220.7,1344.9 1196.1,1303.6 1171.1,1261.1 1145.3,1217.3 1118.6,1172.3 1090.7,1125.9 1061.2,1078.3 1030.0,1029.3 996.7,979.0 960.9,927.5 922.5,874.8 880.9,821.0 835.8,766.0 786.9,710.0  Z" style="stroke-width: 2.0;  stroke: rgb(82,82,82); fill: rgb(102,153,255); opacity: 0.667;" />
<path d="M 794.758,702.967 A 1064.250,1064.250 0.00 0,1 798.0,700.2 L 798.0,700.2 846.7,754.9 892.6,805.0 935.9,850.8 976.7,892.3 1015.1,930.0 1051.3,963.8 1085.3,994.2 1117.5,1021.2 1147.7,1044.9 1176.3,1065.6 1203.2,1083.4 1228.6,1098.3 1252.6,1110.5 1275.4,1120.1 1296.8,1127.0 1317.2,1131.5 1336.5,1133.5 1354.9,1133.1 1372.4,1130.2 1389.0,1124.9 1404.9,1117.1 1420.2,1106.8 1434.7,1093.9 1448.7,1078.4 1462.1,1060.2 1475.1,1039.3 1487.5,1015.4 1499.5,988.5 1511.1,958.4 1522.3,924.9 1533.2,888.0 1543.7,847.4 1553.8,802.9 1563.5,754.3 1573.0,701.4 1582.0,643.8 1590.7,581.5 1598.9,514.0 1606.8,441.1  A 1064.250,1064.250 0.00 0,0 1602.5,440.7 L 1602.5,440.7 1595.0,513.6 1587.0,581.1 1578.6,643.5 1569.8,701.1 1560.6,754.1 1551.0,802.7 1541.0,847.2 1530.7,887.9 1520.0,924.9 1509.0,958.3 1497.5,988.5 1485.6,1015.4 1473.2,1039.4 1460.4,1060.4 1447.0,1078.6 1433.1,1094.2 1418.6,1107.1 1403.4,1117.4 1387.5,1125.3 1370.9,1130.7 1353.4,1133.7 1335.1,1134.2 1315.7,1132.3 1295.4,1127.9 1273.8,1121.0 1251.1,1111.5 1227.0,1099.4 1201.5,1084.5 1174.5,1066.9 1145.9,1046.3 1115.6,1022.7 1083.3,995.8 1049.1,965.6 1012.8,931.9 974.2,894.4 933.3,853.0 889.8,807.5 843.7,757.5 794.8,703.0  Z" style="stroke-width: 2.0;  stroke: rgb(82,82,82); fill: rgb(153,204,255); opacity: 0.667;" />
<path d="M 794.758,702.967 A 1064.250,1064.250 0.00 0,1 798.0,700.2 L 798.0,700.2 846.8,754.9 893.2,804.9 937.3,850.5 979.1,891.9 1018.9,929.3 1056.6,963.1 1092.6,993.3 1126.8,1020.2 1159.5,1043.9 1190.6,1064.6 1220.4,1082.5 1249.0,1097.6 1276.4,1110.2 1302.8,1120.2 1328.3,1127.7 1352.9,1132.9 1376.8,1135.8 1400.1,1136.4 1422.8,1134.6 1445.1,1130.6 1467.0,1124.3 1488.6,1115.7 1510.1,1104.7 1531.4,1091.3 1552.6,1075.3 1573.9,1056.7 1595.2,1035.4 1616.7,1011.3 1638.4,984.1 1660.4,953.9 1682.8,920.3 1705.5,883.1 1728.7,842.3 1752.4,797.5 1776.6,748.6 1801.4,695.2 1826.8,637.1 1852.9,574.1 1879.6,505.8  A 1064.250,1064.250 0.00 0,0 1875.6,504.2 L 1875.6,504.2 1849.1,572.7 1823.2,635.8 1798.1,694.0 1773.5,747.5 1749.5,796.5 1726.0,841.4 1703.0,882.3 1680.4,919.5 1658.2,953.2 1636.3,983.6 1614.7,1010.8 1593.3,1035.0 1572.1,1056.4 1550.9,1075.1 1529.7,1091.1 1508.5,1104.7 1487.1,1115.7 1465.5,1124.5 1443.6,1130.9 1421.4,1134.9 1398.6,1136.8 1375.4,1136.3 1351.5,1133.5 1326.8,1128.4 1301.3,1121.0 1274.9,1111.1 1247.4,1098.6 1218.8,1083.6 1188.9,1065.9 1157.6,1045.3 1124.9,1021.7 1090.5,994.9 1054.5,964.9 1016.6,931.3 976.7,894.0 934.7,852.7 890.5,807.3 843.9,757.5 794.8,703.0  Z" style="stroke-width: 2.0;  stroke: rgb(82,82,82); fill: rgb(0,255,255); opacity: 0.667;" />
<path d="M 794.758,702.967 A 1064.250,1064.250 0.00 0,1 798.0,700.2 L 798.0,700.2 846.9,754.9 893.4,804.9 937.7,850.4 979.8,891.8 1019.9,929.3 1058.1,963.0 1094.6,993.2 1129.4,1020.2 1162.7,1044.0 1194.5,1064.8 1225.1,1082.8 1254.5,1098.1 1282.9,1110.9 1310.2,1121.2 1336.8,1129.1 1362.5,1134.6 1387.7,1137.9 1412.2,1139.0 1436.3,1137.8 1460.1,1134.4 1483.5,1128.8 1506.8,1121.0 1530.0,1110.8 1553.2,1098.3 1576.5,1083.3 1599.9,1065.8 1623.6,1045.6 1647.5,1022.7 1671.9,996.8 1696.7,967.9 1722.0,935.8 1747.9,900.2 1774.5,861.0 1801.7,818.0 1829.8,770.8 1858.7,719.3 1888.5,663.2 1919.2,602.2 1950.9,536.0  A 1064.250,1064.250 0.00 0,0 1947.0,534.2 L 1947.0,534.2 1915.6,600.5 1885.1,661.6 1855.5,717.9 1826.8,769.5 1799.0,816.8 1771.9,859.9 1745.5,899.2 1719.7,934.9 1694.5,967.1 1669.8,996.2 1645.6,1022.1 1621.7,1045.1 1598.2,1065.4 1574.8,1083.0 1551.6,1098.0 1528.5,1110.7 1505.3,1120.9 1482.0,1128.9 1458.6,1134.6 1434.9,1138.1 1410.8,1139.3 1386.2,1138.4 1361.1,1135.2 1335.3,1129.7 1308.7,1121.9 1281.3,1111.8 1252.9,1099.1 1223.5,1083.9 1192.8,1066.0 1160.8,1045.3 1127.5,1021.7 1092.5,994.9 1056.0,964.8 1017.6,931.2 977.4,893.9 935.1,852.7 890.6,807.3 843.9,757.5 794.8,703.0  Z" style="stroke-width: 2.0;  stroke: rgb(82,82,82); fill: rgb(204,255,255); opacity: 0.667;" />
<path d="M 794.758,702.967 A 1064.250,1064.250 0.00 0,1 798.0,700.2 L 798.0,700.2 847.6,755.0 896.2,805.5 943.6,851.9 990.0,894.6 1035.3,934.0 1079.6,970.3 1122.9,1003.9 1165.2,1035.0 1206.5,1063.9 1247.0,1090.9 1286.6,1116.2 1325.5,1139.9 1363.7,1162.4 1401.4,1183.7 1438.5,1204.1 1475.3,1223.6 1511.7,1242.6 1548.0,1260.9 1584.3,1278.8 1620.6,1296.3 1657.2,1313.6 1694.2,1330.6 1731.7,1347.3 1769.9,1363.9 1808.9,1380.3 1849.1,1396.5 1890.4,1412.4 1933.2,1428.1 1977.7,1443.4 2024.0,1458.3 2072.4,1472.6 2123.0,1486.3 2176.2,1499.3 2232.2,1511.3 2291.3,1522.3 2353.6,1532.0 2419.5,1540.2 2489.2,1546.8 2563.0,1551.6  A 1064.250,1064.250 0.00 0,0 2563.2,1547.2 L 2563.2,1547.2 2489.4,1542.8 2419.6,1536.5 2353.7,1528.5 2291.3,1519.1 2232.3,1508.3 2176.2,1496.5 2123.0,1483.8 2072.2,1470.3 2023.8,1456.1 1977.5,1441.4 1932.9,1426.3 1890.1,1410.8 1848.7,1395.1 1808.5,1379.0 1769.3,1362.8 1731.1,1346.4 1693.5,1329.8 1656.5,1312.9 1619.8,1295.8 1583.4,1278.5 1547.1,1260.7 1510.7,1242.5 1474.2,1223.7 1437.3,1204.3 1400.1,1184.1 1362.4,1162.9 1324.1,1140.6 1285.1,1117.0 1245.3,1091.9 1204.8,1065.1 1163.3,1036.4 1120.9,1005.4 1077.5,972.0 1033.1,935.8 987.6,896.6 941.0,854.1 893.4,807.9 844.6,757.6 794.8,703.0  Z" style="stroke-width: 2.0;  stroke: rgb(82,82,82); fill: rgb(153,0,204); opacity: 0.667;" />
<path d="M 794.758,702.967 A 1064.250,1064.250 0.00 0,1 798.0,700.2 L 798.0,700.2 846.1,756.8 890.4,812.4 931.2,866.9 969.0,920.2 1004.1,972.2 1036.7,1022.9 1067.3,1072.3 1096.1,1120.4 1123.5,1167.2 1149.7,1212.6 1174.9,1256.7 1199.4,1299.6 1223.5,1341.2 1247.3,1381.7 1271.1,1421.0 1294.9,1459.3 1319.1,1496.7 1343.6,1533.3 1368.8,1569.1 1394.6,1604.3 1421.2,1639.1 1448.6,1673.5 1477.0,1707.8 1506.3,1742.1 1536.7,1776.6 1568.1,1811.5 1600.5,1847.0 1634.0,1883.3 1668.5,1920.6 1703.9,1959.3 1740.3,1999.5 1777.4,2041.4 1815.3,2085.5 1853.9,2131.9 1892.9,2181.0 1932.3,2233.1 1972.0,2288.4 2011.6,2347.4 2051.2,2410.4  A 1064.250,1064.250 0.00 0,0 2054.9,2408.2 L 2054.9,2408.2 2015.1,2345.3 1975.2,2286.5 1935.3,2231.3 1895.7,2179.4 1856.5,2130.5 1817.7,2084.2 1779.6,2040.3 1742.3,1998.5 1705.8,1958.4 1670.2,1919.9 1635.6,1882.7 1602.0,1846.6 1569.4,1811.2 1537.8,1776.4 1507.3,1742.1 1477.8,1707.9 1449.3,1673.7 1421.7,1639.4 1395.0,1604.7 1369.1,1569.6 1343.8,1533.9 1319.1,1497.4 1294.8,1460.2 1270.8,1421.9 1246.8,1382.7 1222.9,1342.3 1198.6,1300.8 1173.9,1258.0 1148.5,1214.0 1122.2,1168.7 1094.6,1122.0 1065.6,1074.1 1034.8,1024.8 1002.0,974.2 966.7,922.3 928.7,869.2 887.6,814.9 843.1,759.4 794.8,703.0  Z" style="stroke-width: 2.0;  stroke: rgb(82,82,82); fill: rgb(204,51,255); opacity: 0.667;" />
<path d="M 794.758,702.967 A 1064.250,1064.250 0.00 0,1 798.0,700.2 L 798.0,700.2 846.2,755.2 890.8,806.0 932.0,852.9 969.7,896.0 1004.4,935.6 1036.0,971.7 1064.8,1004.6 1090.8,1034.3 1114.2,1061.2 1135.1,1085.2 1153.7,1106.4 1169.9,1125.1 1183.9,1141.2 1195.7,1154.9 1205.5,1166.3 1213.2,1175.3 1218.9,1182.1 1222.6,1186.6 1224.4,1189.0 1224.2,1189.1 1222.1,1187.1 1218.0,1182.8 1212.0,1176.4 1204.0,1167.6 1193.9,1156.6 1181.7,1143.2 1167.3,1127.4 1150.7,1109.0 1131.8,1088.1 1110.5,1064.4 1086.7,1038.0 1060.2,1008.6 1031.0,976.1 998.9,940.4 963.8,901.3 925.6,858.6 883.9,812.1 838.8,761.8 789.9,707.3  A 1064.250,1064.250 0.00 0,0 786.9,710.0 L 786.9,710.0 835.9,764.3 881.3,814.5 923.1,860.8 961.5,903.3 996.8,942.3 1029.0,977.9 1058.3,1010.3 1084.9,1039.6 1108.8,1066.0 1130.2,1089.5 1149.2,1110.4 1165.9,1128.7 1180.3,1144.4 1192.5,1157.8 1202.7,1168.8 1210.7,1177.5 1216.8,1183.9 1220.9,1188.2 1223.0,1190.2 1223.2,1190.1 1221.4,1187.7 1217.6,1183.2 1211.9,1176.5 1204.1,1167.5 1194.3,1156.2 1182.4,1142.5 1168.4,1126.4 1152.1,1107.8 1133.5,1086.6 1112.5,1062.7 1088.9,1036.0 1062.8,1006.3 1033.9,973.5 1002.1,937.5 967.3,898.1 929.4,855.2 888.1,808.5 843.3,757.8 794.8,703.0  Z" style="stroke-width: 2.0;  stroke: rgb(82,82,82); fill: rgb(204,153,255); opacity: 0.667;" />
<path d="M 1232.511,469.914 A 1064.250,1064.250 0.00 0,1 1236.6,468.9 L 1236.6,468.9 1255.0,539.7 1272.3,605.2 1288.8,665.4 1304.4,720.8 1319.2,771.4 1333.2,817.7 1346.6,859.7 1359.2,897.6 1371.2,931.7 1382.7,962.2 1393.5,989.1 1403.9,1012.6 1413.8,1032.8 1423.3,1049.9 1432.4,1063.9 1441.1,1074.9 1449.5,1082.9 1457.6,1088.1 1465.5,1090.4 1473.1,1089.8 1480.5,1086.4 1487.8,1080.1 1494.9,1070.8 1501.9,1058.7 1508.8,1043.5 1515.6,1025.2 1522.4,1003.7 1529.1,978.9 1535.9,950.7 1542.7,918.9 1549.5,883.4 1556.3,844.0 1563.2,800.4 1570.2,752.6 1577.3,700.3 1584.5,643.3 1591.8,581.2 1599.2,513.9 1606.8,441.1  A 1064.250,1064.250 0.00 0,0 1602.5,440.7 L 1602.5,440.7 1595.3,513.6 1588.1,580.9 1581.0,643.0 1574.1,700.0 1567.2,752.4 1560.4,800.2 1553.7,843.7 1547.0,883.2 1540.3,918.7 1533.7,950.6 1527.1,978.8 1520.4,1003.6 1513.7,1025.1 1506.9,1043.5 1500.1,1058.7 1493.2,1070.9 1486.1,1080.1 1478.9,1086.4 1471.5,1089.9 1463.8,1090.5 1456.0,1088.3 1447.8,1083.1 1439.4,1075.1 1430.6,1064.2 1421.5,1050.2 1412.0,1033.2 1402.0,1013.0 1391.5,989.5 1380.5,962.6 1369.0,932.3 1356.8,898.2 1344.0,860.3 1330.5,818.3 1316.3,772.2 1301.3,721.6 1285.5,666.3 1268.8,606.1 1251.1,540.7 1232.5,469.9  Z" style="stroke-width: 2.0;  stroke: rgb(82,82,82); fill: rgb(102,102,102); opacity: 0.667;" />
<path d="M 1232.511,469.914 A 1064.250,1064.250 0.00 0,1 1236.6,468.9 L 1236.6,468.9 1255.1,539.7 1273.0,605.2 1290.2,665.5 1306.9,720.8 1323.1,771.6 1338.8,817.9 1354.0,860.1 1368.8,898.2 1383.2,932.6 1397.3,963.4 1411.1,990.7 1424.6,1014.6 1438.0,1035.4 1451.2,1053.2 1464.2,1067.9 1477.3,1079.8 1490.3,1088.8 1503.3,1095.0 1516.4,1098.5 1529.6,1099.3 1543.1,1097.3 1556.7,1092.6 1570.7,1085.1 1585.0,1074.8 1599.6,1061.7 1614.8,1045.6 1630.4,1026.5 1646.6,1004.2 1663.5,978.6 1681.0,949.7 1699.2,917.2 1718.3,881.0 1738.2,840.8 1759.1,796.6 1781.0,748.1 1803.9,694.9 1827.9,637.0 1853.1,574.1 1879.6,505.8  A 1064.250,1064.250 0.00 0,0 1875.6,504.2 L 1875.6,504.2 1849.4,572.6 1824.4,635.7 1800.6,693.7 1777.9,746.9 1756.2,795.6 1735.6,839.9 1715.8,880.1 1696.9,916.4 1678.7,949.0 1661.3,978.0 1644.6,1003.6 1628.5,1025.9 1612.9,1045.1 1597.9,1061.3 1583.2,1074.5 1569.0,1084.8 1555.1,1092.4 1541.4,1097.1 1528.0,1099.2 1514.8,1098.4 1501.7,1095.0 1488.6,1088.8 1475.6,1079.9 1462.5,1068.1 1449.4,1053.4 1436.1,1035.7 1422.7,1014.9 1409.0,991.0 1395.1,963.8 1380.9,933.1 1366.3,898.7 1351.4,860.6 1336.0,818.6 1320.2,772.3 1303.8,721.6 1286.9,666.3 1269.4,606.1 1251.3,540.7 1232.5,469.9  Z" style="stroke-width: 2.0;  stroke: rgb(82,82,82); fill: rgb(153,153,153); opacity: 0.667;" />
<path d="M 1232.511,469.914 A 1064.250,1064.250 0.00 0,1 1236.6,468.9 L 1236.6,468.9 1255.2,539.7 1273.2,605.2 1290.6,665.5 1307.6,720.9 1324.1,771.7 1340.2,818.1 1356.0,860.4 1371.3,898.7 1386.4,933.2 1401.2,964.1 1415.8,991.7 1430.2,1015.9 1444.5,1037.0 1458.6,1055.0 1472.8,1070.2 1486.9,1082.4 1501.1,1091.9 1515.4,1098.7 1529.9,1102.7 1544.6,1104.1 1559.6,1102.8 1575.0,1098.9 1590.7,1092.2 1606.9,1082.8 1623.6,1070.5 1640.9,1055.4 1658.8,1037.4 1677.5,1016.3 1696.9,991.9 1717.2,964.3 1738.5,933.2 1760.7,898.4 1784.0,859.9 1808.5,817.3 1834.2,770.4 1861.2,719.1 1889.6,663.2 1919.5,602.2 1950.9,536.0  A 1064.250,1064.250 0.00 0,0 1947.0,534.2 L 1947.0,534.2 1915.9,600.5 1886.2,661.6 1858.1,717.7 1831.3,769.1 1805.7,816.0 1781.4,858.7 1758.3,897.4 1736.2,932.2 1715.1,963.4 1694.9,991.1 1675.5,1015.5 1656.9,1036.7 1639.1,1054.9 1621.8,1070.0 1605.2,1082.3 1589.0,1091.8 1573.3,1098.6 1558.0,1102.6 1543.0,1103.9 1528.3,1102.6 1513.8,1098.6 1499.5,1091.9 1485.2,1082.5 1471.0,1070.3 1456.8,1055.2 1442.6,1037.2 1428.3,1016.2 1413.8,992.0 1399.1,964.5 1384.1,933.7 1368.9,899.2 1353.4,861.0 1337.5,818.8 1321.2,772.4 1304.5,721.7 1287.3,666.3 1269.6,606.1 1251.3,540.7 1232.5,469.9  Z" style="stroke-width: 2.0;  stroke: rgb(82,82,82); fill: rgb(204,204,204); opacity: 0.667;" />
<path d="M 1232.511,469.914 A 1064.250,1064.250 0.00 0,1 1236.6,468.9 L 1236.6,468.9 1255.8,540.0 1275.7,606.4 1296.2,668.2 1317.2,725.9 1338.7,779.6 1360.5,829.7 1382.7,876.5 1405.2,920.3 1428.0,961.2 1451.1,999.5 1474.4,1035.4 1497.9,1069.2 1521.8,1101.0 1546.0,1131.0 1570.5,1159.4 1595.5,1186.4 1620.9,1211.9 1646.9,1236.3 1673.5,1259.6 1700.8,1281.9 1728.9,1303.3 1758.0,1323.9 1788.2,1343.6 1819.5,1362.7 1852.3,1381.1 1886.5,1398.7 1922.5,1415.8 1960.3,1432.1 2000.2,1447.7 2042.3,1462.6 2087.0,1476.8 2134.3,1490.1 2184.6,1502.4 2238.1,1513.8 2295.1,1524.0 2355.7,1533.1 2420.4,1540.8 2489.4,1547.0 2563.0,1551.6  A 1064.250,1064.250 0.00 0,0 2563.2,1547.2 L 2563.2,1547.2 2489.6,1543.0 2420.6,1537.0 2355.9,1529.6 2295.2,1520.8 2238.2,1510.8 2184.6,1499.6 2134.3,1487.5 2086.9,1474.4 2042.2,1460.4 2000.0,1445.7 1960.0,1430.2 1922.1,1414.0 1886.1,1397.2 1851.8,1379.6 1819.0,1361.4 1787.5,1342.5 1757.3,1322.8 1728.1,1302.4 1699.9,1281.1 1672.5,1258.9 1645.8,1235.7 1619.8,1211.4 1594.2,1186.0 1569.2,1159.1 1544.5,1130.9 1520.2,1100.9 1496.2,1069.2 1472.5,1035.5 1449.1,999.7 1425.9,961.5 1402.9,920.7 1380.2,877.0 1357.9,830.3 1335.8,780.2 1314.1,726.6 1292.9,669.0 1272.2,607.3 1252.0,541.0 1232.5,469.9  Z" style="stroke-width: 2.0;  stroke: rgb(82,82,82); fill: rgb(204,204,153); opacity: 0.667;" />
<path d="M 1232.511,469.914 A 1064.250,1064.250 0.00 0,1 1236.6,468.9 L 1236.6,468.9 1256.2,540.5 1277.0,608.3 1298.8,672.5 1321.3,733.3 1344.4,791.1 1367.8,846.1 1391.4,898.6 1415.0,948.9 1438.4,997.1 1461.5,1043.5 1484.1,1088.4 1506.3,1132.0 1527.9,1174.4 1548.8,1215.9 1569.0,1256.7 1588.6,1297.0 1607.4,1337.0 1625.4,1376.8 1642.8,1416.6 1659.6,1456.5 1675.8,1496.9 1691.5,1537.7 1706.9,1579.1 1721.9,1621.2 1736.9,1664.2 1751.8,1708.3 1767.0,1753.4 1782.5,1799.7 1798.7,1847.3 1815.6,1896.3 1833.6,1946.8 1853.0,1998.8 1873.9,2052.4 1896.8,2107.7 1921.8,2164.7 1949.4,2223.4 1979.9,2283.9 2013.7,2346.3 2051.2,2410.4  A 1064.250,1064.250 0.00 0,0 2054.9,2408.2 L 2054.9,2408.2 2017.2,2344.1 1983.1,2282.0 1952.4,2221.6 1924.5,2163.0 1899.2,2106.1 1876.2,2050.9 1855.0,1997.4 1835.5,1945.5 1817.2,1895.1 1800.1,1846.1 1783.8,1798.6 1768.0,1752.3 1752.7,1707.2 1737.6,1663.3 1722.4,1620.3 1707.2,1578.2 1691.7,1536.9 1675.8,1496.1 1659.5,1455.9 1642.5,1416.0 1625.0,1376.2 1606.7,1336.5 1587.7,1296.6 1568.1,1256.4 1547.7,1215.7 1526.6,1174.3 1504.8,1131.9 1482.5,1088.5 1459.6,1043.7 1436.4,997.4 1412.8,949.2 1389.0,899.1 1365.2,846.7 1341.6,791.7 1318.3,734.0 1295.5,673.3 1273.4,609.2 1252.3,541.5 1232.5,469.9  Z" style="stroke-width: 2.0;  stroke: rgb(82,82,82); fill: rgb(251,106,74); opacity: 0.667;" />
<path d="M 1232.511,469.914 A 1064.250,1064.250 0.00 0,1 1236.6,468.9 L 1236.6,468.9 1254.5,539.9 1270.4,605.7 1284.5,666.7 1296.9,723.0 1307.6,774.9 1316.8,822.6 1324.4,866.3 1330.6,906.2 1335.4,942.6 1338.9,975.5 1341.0,1005.1 1341.8,1031.6 1341.4,1055.1 1339.8,1075.7 1336.9,1093.5 1332.8,1108.6 1327.4,1121.1 1320.8,1131.0 1312.9,1138.4 1303.7,1143.3 1293.2,1145.7 1281.2,1145.7 1267.9,1143.2 1253.0,1138.2 1236.6,1130.7 1218.6,1120.6 1198.9,1107.9 1177.3,1092.4 1153.9,1074.2 1128.5,1053.0 1101.0,1028.8 1071.3,1001.4 1039.2,970.7 1004.7,936.6 967.6,898.8 927.7,857.1 884.9,811.5 839.0,761.6 789.9,707.3  A 1064.250,1064.250 0.00 0,0 786.9,710.0 L 786.9,710.0 836.2,764.2 882.2,813.9 925.2,859.4 965.2,900.8 1002.5,938.5 1037.2,972.5 1069.4,1003.0 1099.2,1030.3 1126.8,1054.4 1152.3,1075.5 1175.8,1093.7 1197.4,1109.0 1217.1,1121.7 1235.2,1131.7 1251.6,1139.2 1266.5,1144.1 1279.9,1146.6 1291.8,1146.5 1302.3,1144.1 1311.5,1139.1 1319.3,1131.7 1325.9,1121.7 1331.2,1109.2 1335.3,1094.1 1338.1,1076.3 1339.7,1055.7 1340.0,1032.2 1339.0,1005.7 1336.8,976.1 1333.2,943.2 1328.2,906.9 1321.9,867.0 1314.0,823.3 1304.7,775.7 1293.8,723.8 1281.2,667.6 1266.8,606.7 1250.6,540.9 1232.5,469.9  Z" style="stroke-width: 2.0;  stroke: rgb(82,82,82); fill: rgb(116,196,118); opacity: 0.667;" />
<path d="M 1232.511,469.914 A 1064.250,1064.250 0.00 0,1 1236.6,468.9 L 1236.6,468.9 1254.5,539.9 1270.4,605.7 1284.5,666.7 1297.0,723.0 1307.7,774.8 1316.9,822.5 1324.6,866.1 1330.9,906.0 1335.8,942.3 1339.3,975.2 1341.5,1004.7 1342.5,1031.1 1342.2,1054.5 1340.7,1075.0 1337.9,1092.8 1333.9,1107.8 1328.7,1120.1 1322.2,1129.9 1314.5,1137.2 1305.4,1141.9 1295.1,1144.2 1283.3,1144.0 1270.2,1141.4 1255.5,1136.2 1239.4,1128.5 1221.6,1118.1 1202.1,1105.2 1180.8,1089.4 1157.7,1070.9 1132.6,1049.4 1105.4,1024.9 1076.1,997.2 1044.4,966.2 1010.3,931.7 973.5,893.5 934.1,851.4 891.8,805.4 846.5,755.0 798.0,700.2  A 1064.250,1064.250 0.00 0,0 794.8,703.0 L 794.8,703.0 843.5,757.6 889.0,807.8 931.5,853.7 971.1,895.6 1008.0,933.6 1042.2,968.0 1074.1,998.9 1103.5,1026.5 1130.8,1050.9 1156.0,1072.3 1179.2,1090.7 1200.5,1106.4 1220.1,1119.3 1237.9,1129.5 1254.1,1137.2 1268.7,1142.3 1281.9,1144.9 1293.7,1145.1 1304.0,1142.7 1313.0,1137.9 1320.7,1130.6 1327.2,1120.8 1332.3,1108.4 1336.3,1093.4 1339.0,1075.7 1340.4,1055.2 1340.6,1031.8 1339.6,1005.3 1337.2,975.8 1333.6,943.0 1328.5,906.7 1322.1,866.9 1314.2,823.2 1304.8,775.6 1293.8,723.8 1281.2,667.5 1266.8,606.7 1250.6,540.9 1232.5,469.9  Z" style="stroke-width: 2.0;  stroke: rgb(82,82,82); fill: rgb(107,174,214); opacity: 0.667;" />
<path d="M 1348.268,446.622 A 1064.250,1064.250 0.00 0,1 1352.5,446.0 L 1352.5,446.0 1362.8,518.5 1372.6,585.5 1382.0,647.2 1390.9,703.9 1399.4,755.8 1407.5,803.3 1415.3,846.5 1422.8,885.5 1429.9,920.7 1436.8,952.1 1443.4,979.9 1449.7,1004.3 1455.9,1025.3 1461.8,1043.2 1467.6,1057.8 1473.2,1069.5 1478.7,1078.1 1484.1,1083.9 1489.4,1086.7 1494.6,1086.6 1499.8,1083.6 1505.0,1077.6 1510.2,1068.8 1515.3,1056.9 1520.5,1042.0 1525.8,1024.0 1531.1,1002.7 1536.5,978.1 1542.1,950.1 1547.7,918.4 1553.5,883.0 1559.4,843.7 1565.5,800.3 1571.8,752.5 1578.3,700.3 1585.1,643.2 1592.1,581.2 1599.3,513.9 1606.8,441.1  A 1064.250,1064.250 0.00 0,0 1602.5,440.7 L 1602.5,440.7 1595.3,513.6 1588.4,580.9 1581.7,642.9 1575.1,700.0 1568.8,752.2 1562.7,800.0 1556.8,843.5 1551.0,882.8 1545.4,918.2 1539.9,949.9 1534.4,978.0 1529.1,1002.6 1523.9,1023.9 1518.7,1041.9 1513.6,1056.9 1508.4,1068.7 1503.3,1077.6 1498.2,1083.6 1493.0,1086.6 1487.8,1086.7 1482.4,1083.9 1477.0,1078.2 1471.5,1069.6 1465.8,1058.0 1460.0,1043.3 1454.0,1025.5 1447.7,1004.5 1441.3,980.1 1434.6,952.3 1427.6,921.0 1420.3,885.8 1412.7,846.8 1404.8,803.7 1396.4,756.3 1387.7,704.3 1378.5,647.6 1368.9,586.0 1358.9,519.1 1348.3,446.6  Z" style="stroke-width: 2.0;  stroke: rgb(82,82,82); fill: rgb(253,141,60); opacity: 0.667;" />
<path d="M 1348.268,446.622 A 1064.250,1064.250 0.00 0,1 1352.5,446.0 L 1352.5,446.0 1362.9,518.5 1373.2,585.5 1383.4,647.3 1393.4,704.1 1403.3,756.2 1413.0,803.8 1422.7,847.2 1432.3,886.5 1441.9,922.0 1451.4,953.8 1460.9,982.1 1470.4,1007.0 1480.0,1028.7 1489.7,1047.2 1499.4,1062.7 1509.4,1075.2 1519.5,1084.9 1529.8,1091.7 1540.3,1095.7 1551.2,1096.9 1562.4,1095.4 1573.9,1091.0 1585.9,1083.9 1598.4,1073.9 1611.4,1061.0 1625.0,1045.1 1639.1,1026.1 1654.0,1004.0 1669.6,978.5 1686.0,949.7 1703.3,917.2 1721.4,881.0 1740.6,840.9 1760.7,796.7 1782.0,748.1 1804.5,695.0 1828.2,637.1 1853.2,574.1 1879.6,505.8  A 1064.250,1064.250 0.00 0,0 1875.6,504.2 L 1875.6,504.2 1849.4,572.6 1824.7,635.7 1801.2,693.7 1778.9,747.0 1757.9,795.6 1737.9,839.9 1718.9,880.1 1700.9,916.4 1683.8,948.9 1667.5,977.8 1652.0,1003.3 1637.2,1025.5 1623.1,1044.6 1609.6,1060.5 1596.7,1073.5 1584.2,1083.5 1572.3,1090.7 1560.7,1095.1 1549.5,1096.7 1538.7,1095.5 1528.1,1091.6 1517.8,1084.8 1507.6,1075.2 1497.7,1062.7 1487.9,1047.2 1478.1,1028.7 1468.4,1007.1 1458.8,982.2 1449.2,954.0 1439.5,922.2 1429.9,886.8 1420.1,847.5 1410.3,804.1 1400.3,756.5 1390.2,704.5 1380.0,647.7 1369.6,586.0 1359.0,519.1 1348.3,446.6  Z" style="stroke-width: 2.0;  stroke: rgb(82,82,82); fill: rgb(255,0,0); opacity: 0.667;" />
<path d="M 1348.268,446.622 A 1064.250,1064.250 0.00 0,1 1352.5,446.0 L 1352.5,446.0 1363.0,518.5 1373.4,585.5 1383.8,647.3 1394.1,704.2 1404.3,756.3 1414.5,804.1 1424.7,847.6 1434.9,887.0 1445.1,922.7 1455.3,954.7 1465.6,983.2 1476.0,1008.4 1486.5,1030.4 1497.1,1049.3 1507.9,1065.1 1519.0,1078.1 1530.3,1088.2 1541.9,1095.6 1553.8,1100.1 1566.1,1102.0 1578.9,1101.1 1592.1,1097.5 1605.9,1091.2 1620.3,1082.0 1635.3,1070.0 1651.0,1055.1 1667.5,1037.2 1684.8,1016.2 1703.1,992.0 1722.3,964.4 1742.5,933.3 1763.8,898.6 1786.3,860.0 1810.1,817.4 1835.3,770.5 1861.8,719.2 1889.9,663.2 1919.6,602.2 1950.9,536.0  A 1064.250,1064.250 0.00 0,0 1947.0,534.2 L 1947.0,534.2 1915.9,600.5 1886.5,661.6 1858.7,717.7 1832.3,769.2 1807.4,816.1 1783.7,858.8 1761.4,897.5 1740.2,932.3 1720.1,963.5 1701.0,991.1 1682.9,1015.5 1665.6,1036.5 1649.2,1054.5 1633.6,1069.5 1618.6,1081.5 1604.3,1090.7 1590.5,1097.2 1577.3,1100.8 1564.5,1101.7 1552.2,1099.9 1540.3,1095.4 1528.6,1088.1 1517.3,1078.0 1506.2,1065.1 1495.3,1049.3 1484.6,1030.4 1474.0,1008.5 1463.5,983.4 1453.1,954.9 1442.8,922.9 1432.4,887.3 1422.1,847.9 1411.7,804.4 1401.3,756.7 1390.9,704.6 1380.4,647.8 1369.8,586.0 1359.1,519.1 1348.3,446.6  Z" style="stroke-width: 2.0;  stroke: rgb(82,82,82); fill: rgb(255,0,204); opacity: 0.667;" />
<path d="M 1348.268,446.622 A 1064.250,1064.250 0.00 0,1 1352.5,446.0 L 1352.5,446.0 1363.6,518.8 1375.9,586.8 1389.2,650.3 1403.5,709.6 1418.6,764.9 1434.4,816.6 1450.9,865.0 1468.1,910.2 1485.9,952.5 1504.2,992.2 1523.1,1029.4 1542.6,1064.3 1562.6,1097.3 1583.1,1128.3 1604.3,1157.6 1626.1,1185.4 1648.5,1211.7 1671.8,1236.7 1695.8,1260.6 1720.7,1283.4 1746.6,1305.1 1773.7,1326.0 1801.9,1346.0 1831.5,1365.2 1862.7,1383.6 1895.4,1401.2 1930.0,1418.2 1966.6,1434.4 2005.4,1449.8 2046.5,1464.5 2090.3,1478.4 2136.9,1491.4 2186.5,1503.5 2239.4,1514.6 2295.9,1524.6 2356.2,1533.4 2420.6,1540.9 2489.5,1547.0 2563.0,1551.6  A 1064.250,1064.250 0.00 0,0 2563.2,1547.2 L 2563.2,1547.2 2489.7,1543.0 2420.8,1537.2 2356.3,1530.0 2296.0,1521.4 2239.5,1511.6 2186.5,1500.7 2136.8,1488.8 2090.2,1476.0 2046.4,1462.3 2005.2,1447.8 1966.3,1432.5 1929.7,1416.4 1895.0,1399.6 1862.2,1382.1 1831.0,1363.8 1801.3,1344.7 1773.0,1324.9 1745.9,1304.1 1719.8,1282.5 1694.8,1259.8 1670.7,1236.0 1647.4,1211.1 1624.8,1184.9 1602.9,1157.2 1581.6,1128.0 1561.0,1097.0 1540.8,1064.2 1521.2,1029.3 1502.2,992.1 1483.7,952.6 1465.7,910.3 1448.4,865.2 1431.7,816.9 1415.6,765.3 1400.3,710.0 1385.8,650.8 1372.3,587.3 1359.7,519.4 1348.3,446.6  Z" style="stroke-width: 2.0;  stroke: rgb(82,82,82); fill: rgb(255,204,204); opacity: 0.667;" />
<path d="M 1348.268,446.622 A 1064.250,1064.250 0.00 0,1 1352.5,446.0 L 1352.5,446.0 1364.0,519.3 1377.1,588.8 1391.6,654.7 1407.2,717.3 1423.8,776.8 1441.0,833.6 1458.7,887.7 1476.7,939.6 1494.9,989.4 1513.1,1037.3 1531.2,1083.6 1549.0,1128.4 1566.5,1172.1 1583.7,1214.7 1600.4,1256.6 1616.7,1297.8 1632.4,1338.5 1647.7,1379.0 1662.5,1419.4 1676.9,1459.9 1690.9,1500.5 1704.6,1541.6 1718.1,1583.1 1731.6,1625.4 1745.0,1668.3 1758.6,1712.2 1772.6,1757.2 1787.1,1803.2 1802.3,1850.5 1818.5,1899.2 1835.8,1949.2 1854.6,2000.8 1875.1,2054.0 1897.5,2108.9 1922.3,2165.5 1949.7,2223.9 1980.1,2284.2 2013.8,2346.3 2051.2,2410.4  A 1064.250,1064.250 0.00 0,0 2054.9,2408.2 L 2054.9,2408.2 2017.2,2344.2 1983.3,2282.2 1952.6,2222.1 1925.0,2163.8 1900.0,2107.3 1877.3,2052.5 1856.6,1999.4 1837.7,1947.9 1820.1,1897.9 1803.8,1849.3 1788.4,1802.1 1773.7,1756.1 1759.5,1711.2 1745.7,1667.3 1732.1,1624.4 1718.5,1582.3 1704.8,1540.8 1690.9,1499.8 1676.7,1459.1 1662.2,1418.8 1647.2,1378.4 1631.8,1338.0 1615.8,1297.3 1599.4,1256.2 1582.5,1214.4 1565.2,1171.8 1547.5,1128.2 1529.5,1083.4 1511.2,1037.2 1492.9,989.4 1474.5,939.7 1456.2,887.9 1438.3,833.8 1420.9,777.1 1404.1,717.7 1388.2,655.2 1373.4,589.3 1360.0,519.9 1348.3,446.6  Z" style="stroke-width: 2.0;  stroke: rgb(82,82,82); fill: rgb(255,153,0); opacity: 0.667;" />
<path d="M 1348.268,446.622 A 1064.250,1064.250 0.00 0,1 1352.5,446.0 L 1352.5,446.0 1362.3,518.6 1370.6,585.9 1377.6,648.2 1383.2,705.7 1387.6,758.8 1390.9,807.5 1392.9,852.2 1393.9,893.0 1393.7,930.1 1392.6,963.8 1390.4,994.2 1387.2,1021.3 1382.9,1045.4 1377.7,1066.6 1371.5,1085.0 1364.2,1100.7 1356.0,1113.7 1346.6,1124.1 1336.1,1132.0 1324.6,1137.4 1311.8,1140.3 1297.8,1140.7 1282.5,1138.6 1265.9,1134.1 1247.8,1127.0 1228.3,1117.3 1207.1,1104.9 1184.3,1089.9 1159.7,1072.0 1133.2,1051.1 1104.7,1027.3 1074.2,1000.2 1041.3,969.8 1006.2,935.9 968.5,898.3 928.2,856.9 885.1,811.4 839.1,761.6 789.9,707.3  A 1064.250,1064.250 0.00 0,0 786.9,710.0 L 786.9,710.0 836.2,764.1 882.5,813.8 925.7,859.1 966.2,900.4 1004.0,937.8 1039.3,971.6 1072.2,1001.8 1102.9,1028.8 1131.5,1052.6 1158.0,1073.3 1182.7,1091.1 1205.6,1106.1 1226.8,1118.3 1246.4,1127.9 1264.5,1135.0 1281.1,1139.5 1296.4,1141.5 1310.4,1141.0 1323.1,1138.1 1334.7,1132.6 1345.1,1124.7 1354.4,1114.3 1362.7,1101.2 1369.8,1085.5 1376.0,1067.1 1381.1,1045.9 1385.2,1021.8 1388.4,994.6 1390.4,964.2 1391.5,930.6 1391.4,893.4 1390.3,852.6 1388.1,807.9 1384.7,759.2 1380.1,706.2 1374.2,648.7 1367.0,586.5 1358.4,519.2 1348.3,446.6  Z" style="stroke-width: 2.0;  stroke: rgb(82,82,82); fill: rgb(255,204,0); opacity: 0.667;" />
<path d="M 1348.268,446.622 A 1064.250,1064.250 0.00 0,1 1352.5,446.0 L 1352.5,446.0 1362.3,518.6 1370.6,585.9 1377.6,648.2 1383.3,705.7 1387.8,758.7 1391.0,807.4 1393.2,852.0 1394.2,892.8 1394.1,929.9 1393.0,963.5 1390.9,993.8 1387.8,1020.9 1383.7,1044.9 1378.6,1066.1 1372.5,1084.3 1365.4,1099.9 1357.2,1112.8 1348.0,1123.1 1337.7,1130.8 1326.3,1136.1 1313.7,1138.8 1299.9,1139.1 1284.8,1136.8 1268.4,1132.1 1250.6,1124.7 1231.2,1114.8 1210.3,1102.2 1187.8,1086.9 1163.5,1068.7 1137.3,1047.6 1109.2,1023.4 1078.9,996.0 1046.5,965.3 1011.7,931.0 974.5,893.0 934.7,851.2 892.1,805.2 846.5,755.0 798.0,700.2  A 1064.250,1064.250 0.00 0,0 794.8,703.0 L 794.8,703.0 843.6,757.6 889.3,807.7 932.1,853.5 972.1,895.2 1009.5,933.0 1044.4,967.1 1076.9,997.7 1107.3,1025.0 1135.5,1049.1 1161.7,1070.1 1186.1,1088.2 1208.7,1103.4 1229.7,1115.9 1249.1,1125.7 1266.9,1133.0 1283.4,1137.7 1298.5,1139.9 1312.3,1139.5 1324.8,1136.8 1336.2,1131.5 1346.5,1123.7 1355.7,1113.4 1363.8,1100.4 1370.8,1084.9 1376.9,1066.5 1381.9,1045.4 1385.9,1021.4 1388.9,994.3 1390.9,964.0 1391.9,930.3 1391.7,893.2 1390.6,852.5 1388.3,807.8 1384.8,759.1 1380.1,706.2 1374.2,648.7 1367.0,586.4 1358.4,519.2 1348.3,446.6  Z" style="stroke-width: 2.0;  stroke: rgb(82,82,82); fill: rgb(255,255,0); opacity: 0.667;" />
<path d="M 1348.268,446.622 A 1064.250,1064.250 0.00 0,1 1352.5,446.0 L 1352.5,446.0 1362.6,518.5 1371.7,585.5 1380.1,647.4 1387.6,704.2 1394.3,756.4 1400.2,804.0 1405.5,847.4 1410.1,886.8 1414.0,922.2 1417.3,953.9 1420.0,982.1 1422.1,1006.9 1423.6,1028.3 1424.5,1046.5 1424.9,1061.7 1424.8,1073.8 1424.0,1082.9 1422.8,1089.1 1420.9,1092.5 1418.5,1092.9 1415.6,1090.5 1412.1,1085.3 1407.9,1077.1 1403.2,1065.9 1397.8,1051.8 1391.7,1034.6 1385.0,1014.2 1377.6,990.5 1369.4,963.4 1360.4,932.8 1350.5,898.5 1339.9,860.4 1328.3,818.2 1315.7,771.8 1302.1,721.0 1287.5,665.6 1271.8,605.3 1254.8,539.8 1236.6,468.9  A 1064.250,1064.250 0.00 0,0 1232.5,469.9 L 1232.5,469.9 1251.0,540.7 1268.2,606.2 1284.2,666.5 1299.0,721.8 1312.8,772.6 1325.5,818.9 1337.3,861.0 1348.1,899.1 1358.1,933.4 1367.2,963.9 1375.5,991.0 1383.1,1014.6 1389.9,1035.0 1396.0,1052.2 1401.4,1066.3 1406.2,1077.5 1410.4,1085.6 1414.0,1090.9 1416.9,1093.3 1419.3,1092.8 1421.1,1089.4 1422.4,1083.2 1423.0,1074.1 1423.2,1062.0 1422.7,1046.8 1421.7,1028.6 1420.1,1007.2 1417.9,982.4 1415.1,954.3 1411.7,922.6 1407.6,887.1 1402.9,847.8 1397.5,804.4 1391.3,756.8 1384.4,704.7 1376.6,647.8 1368.1,586.1 1358.6,519.1 1348.3,446.6  Z" style="stroke-width: 2.0;  stroke: rgb(82,82,82); fill: rgb(204,255,0); opacity: 0.667;" />
<path d="M 1915.012,520.003 A 1064.250,1064.250 0.00 0,1 1919.9,522.1 L 1919.9,522.1 1890.8,589.3 1863.4,651.2 1837.8,708.2 1813.7,760.4 1791.1,808.2 1769.9,851.6 1750.1,891.0 1731.5,926.6 1714.1,958.4 1697.9,986.6 1682.7,1011.5 1668.5,1033.1 1655.3,1051.5 1642.9,1066.9 1631.4,1079.3 1620.7,1088.7 1610.7,1095.4 1601.4,1099.2 1592.8,1100.2 1584.8,1098.4 1577.4,1093.9 1570.6,1086.5 1564.4,1076.3 1558.7,1063.1 1553.5,1047.0 1548.8,1027.9 1544.5,1005.6 1540.8,980.0 1537.5,951.1 1534.7,918.6 1532.4,882.4 1530.6,842.4 1529.3,798.3 1528.4,750.0 1528.1,697.1 1528.4,639.6 1529.2,577.1 1530.5,509.4 1532.5,436.2  A 1064.250,1064.250 0.00 0,0 1527.2,436.1 L 1527.2,436.1 1525.6,509.3 1524.6,577.0 1524.1,639.5 1524.1,697.0 1524.7,749.8 1525.8,798.2 1527.3,842.3 1529.3,882.3 1531.8,918.4 1534.8,950.9 1538.2,979.8 1542.1,1005.4 1546.4,1027.7 1551.2,1046.8 1556.5,1062.9 1562.3,1075.9 1568.6,1086.1 1575.4,1093.5 1582.8,1098.0 1590.8,1099.7 1599.4,1098.7 1608.7,1094.8 1618.6,1088.1 1629.3,1078.6 1640.7,1066.2 1653.0,1050.7 1666.2,1032.2 1680.3,1010.6 1695.3,985.6 1711.4,957.3 1728.6,925.4 1747.0,889.8 1766.7,850.3 1787.6,806.7 1810.0,758.9 1833.8,706.5 1859.2,649.4 1886.2,587.3 1915.0,520.0  Z" style="stroke-width: 2.0;  stroke: rgb(82,82,82); fill: rgb(0,255,0); opacity: 0.667;" />
</g>
<defs>
<pattern id="hline-sparse" width="10" height="10" patternTransform="rotate(0 0 0)" patternUnits="userSpaceOnUse"><line x1="0" y1="0" x2="10" y2="0" style="stroke:black;stroke-width:2" /></pattern>
<pattern id="checker" width="10" height="10" patternTransform="rotate(45 0 0)" patternUnits="userSpaceOnUse"><line x1="0" y1="0" x2="10" y2="0" style="stroke:black;stroke-width:2" /><line x1="0" y1="0" x2="0" y2="10" style="stroke:black;stroke-width:2" /></pattern>
<pattern id="checker" width="10" height="10" patternTransform="rotate(45 0 0)" patternUnits="userSpaceOnUse"><line x1="0" y1="0" x2="10" y2="0" style="stroke:black;stroke-width:5" /><line x1="0" y1="0" x2="0" y2="10" style="stroke:black;stroke-width:4" /></pattern>
<pattern id="hline" width="10" height="10" patternTransform="rotate(0 0 0)" patternUnits="userSpaceOnUse"><line x1="0" y1="0" x2="10" y2="0" style="stroke:black;stroke-width:5" /></pattern>
<pattern id="vline-sparse" width="10" height="10" patternTransform="rotate(0 0 0)" patternUnits="userSpaceOnUse"><line x1="0" y1="0" x2="0" y2="10" style="stroke:black;stroke-width:2" /></pattern>
<pattern id="vline" width="10" height="10" patternTransform="rotate(0 0 0)" patternUnits="userSpaceOnUse"><line x1="0" y1="0" x2="0" y2="10" style="stroke:black;stroke-width:5" /></pattern>
</defs>
</svg>
