<?xml version="1.0" encoding="utf-8" standalone="no"?>
<!DOCTYPE svg PUBLIC "-//W3C//DTD SVG 1.1//EN" "http://www.w3.org/Graphics/SVG/1.1/DTD/svg11.dtd">
<svg width="3000px" height="3000px" version="1.1" xmlns="http://www.w3.org/2000/svg" xmlns:xlink="http://www.w3.org/1999/xlink">
<g id="ideograms">
<path d="M1500.000,425.000 A1075.000,1075.000 40.000 0,1 1533.018,425.507 L1534.554,375.531 A1125.000,1125.000 0.000 0,0 1500.000,375.000 Z" style="stroke-linecap:round;fill:rgb(116,196,118);fill-opacity:0.33;" />
<text x="1528.2" y="285.3" font-size="18.2px" font-family="CMUBright-Roman" style="text-anchor:start;fill:rgb(0,0,0);" transform="rotate(270.9,1528.2,285.3)" >R<tspan baseline-shift="-40%" font-size="90%">s</tspan>caffold<tspan baseline-shift="-40%" font-size="90%">1</tspan>5</text>
<line x1='1500.0' y1='375.0' x2='1500.0' y2='355.0' style="stroke-width:4.0;stroke:rgb(0,0,0);stroke-linecap:round;fill:none;" />
<text x="1506.5" y="345.0" font-size="18.2px" font-family="CMUBright-Roman" style="text-anchor:start;fill:rgb(0,0,0);" transform="rotate(270.0,1506.5,345.0)" >0</text>
<g id="highlighttrack_0">
<path d="M1515.244,425.108 A1075.000,1075.000 40.000 0,1 1525.238,425.296 L1526.412,375.310 A1125.000,1125.000 0.000 0,0 1515.953,375.113 Z" style="stroke-width:4.0;stroke:rgb(0,0,0);stroke-linecap:round;fill:rgb(116,196,118);" />
</g>
<path d="M1598.462,429.519 A1075.000,1075.000 40.000 0,1 1602.426,429.891 L1607.190,380.118 A1125.000,1125.000 0.000 0,0 1603.041,379.729 Z" style="stroke-linecap:round;fill:rgb(116,196,118);fill-opacity:0.33;" />
<text x="1623.0" y="291.2" font-size="18.2px" font-family="CMUBright-Roman" style="text-anchor:start;fill:rgb(0,0,0);" transform="rotate(275.4,1623.0,291.2)" >R<tspan baseline-shift="-40%" font-size="90%">s</tspan>caffold<tspan baseline-shift="-40%" font-size="90%">1</tspan>7</text>
<line x1='1603.0' y1='379.7' x2='1604.9' y2='359.8' style="stroke-width:4.0;stroke:rgb(0,0,0);stroke-linecap:round;fill:none;" />
<text x="1612.3" y="350.5" font-size="18.2px" font-family="CMUBright-Roman" style="text-anchor:start;fill:rgb(0,0,0);" transform="rotate(275.3,1612.3,350.5)" >0</text>
<g id="highlighttrack_0">
<path d="M1598.493,429.522 A1075.000,1075.000 40.000 0,1 1602.426,429.891 L1607.190,380.118 A1125.000,1125.000 0.000 0,0 1603.074,379.732 Z" style="stroke-width:4.0;stroke:rgb(0,0,0);stroke-linecap:round;fill:rgb(116,196,118);" />
</g>
<path d="M1667.474,438.125 A1075.000,1075.000 40.000 1,1 1434.464,427.000 L1431.416,377.093 A1125.000,1125.000 0.000 1,0 1675.263,388.736 Z" style="stroke-linecap:round;fill:rgb(116,196,118);fill-opacity:0.33;" />
<text x="1451.5" y="2714.0" font-size="18.2px" font-family="CMUBright-Roman" style="text-anchor:end;fill:rgb(0,0,0);" transform="rotate(-87.3,1451.5,2714.0)" >NZ<tspan baseline-shift="-40%" font-size="90%">C</tspan>P018456.1</text>
<line x1='1675.3' y1='388.7' x2='1678.4' y2='369.0' style="stroke-width:4.0;stroke:rgb(0,0,0);stroke-linecap:round;fill:none;" />
<text x="1686.4" y="360.1" font-size="18.2px" font-family="CMUBright-Roman" style="text-anchor:start;fill:rgb(0,0,0);" transform="rotate(279.0,1686.4,360.1)" >0</text>
<line x1='1745.3' y1='402.1' x2='1749.6' y2='382.5' style="stroke-width:4.0;stroke:rgb(0,0,0);stroke-linecap:round;fill:none;" />
<text x="1758.2" y="374.2" font-size="18.2px" font-family="CMUBright-Roman" style="text-anchor:start;fill:rgb(0,0,0);" transform="rotate(282.6,1758.2,374.2)" >50</text>
<line x1='1814.3' y1='419.8' x2='1819.9' y2='400.6' style="stroke-width:4.0;stroke:rgb(0,0,0);stroke-linecap:round;fill:none;" />
<text x="1828.9" y="392.8" font-size="18.2px" font-family="CMUBright-Roman" style="text-anchor:start;fill:rgb(0,0,0);" transform="rotate(286.2,1828.9,392.8)" >100</text>
<line x1='1882.1' y1='441.9' x2='1888.9' y2='423.1' style="stroke-width:4.0;stroke:rgb(0,0,0);stroke-linecap:round;fill:none;" />
<text x="1898.4" y="415.9" font-size="18.2px" font-family="CMUBright-Roman" style="text-anchor:start;fill:rgb(0,0,0);" transform="rotate(289.9,1898.4,415.9)" >150</text>
<line x1='1948.3' y1='468.2' x2='1956.3' y2='449.8' style="stroke-width:4.0;stroke:rgb(0,0,0);stroke-linecap:round;fill:none;" />
<text x="1966.2" y="443.3" font-size="18.2px" font-family="CMUBright-Roman" style="text-anchor:start;fill:rgb(0,0,0);" transform="rotate(293.5,1966.2,443.3)" >200</text>
<line x1='2012.7' y1='498.6' x2='2021.8' y2='480.8' style="stroke-width:4.0;stroke:rgb(0,0,0);stroke-linecap:round;fill:none;" />
<text x="2032.2" y="474.9" font-size="18.2px" font-family="CMUBright-Roman" style="text-anchor:start;fill:rgb(0,0,0);" transform="rotate(297.1,2032.2,474.9)" >250</text>
<line x1='2075.1' y1='533.1' x2='2085.3' y2='515.9' style="stroke-width:4.0;stroke:rgb(0,0,0);stroke-linecap:round;fill:none;" />
<text x="2096.0" y="510.7" font-size="18.2px" font-family="CMUBright-Roman" style="text-anchor:start;fill:rgb(0,0,0);" transform="rotate(300.7,2096.0,510.7)" >300</text>
<line x1='2135.2' y1='571.5' x2='2146.5' y2='555.0' style="stroke-width:4.0;stroke:rgb(0,0,0);stroke-linecap:round;fill:none;" />
<text x="2157.5" y="550.4" font-size="18.2px" font-family="CMUBright-Roman" style="text-anchor:start;fill:rgb(0,0,0);" transform="rotate(304.4,2157.5,550.4)" >350</text>
<line x1='2192.7' y1='613.5' x2='2205.0' y2='597.8' style="stroke-width:4.0;stroke:rgb(0,0,0);stroke-linecap:round;fill:none;" />
<text x="2216.3" y="593.9" font-size="18.2px" font-family="CMUBright-Roman" style="text-anchor:start;fill:rgb(0,0,0);" transform="rotate(308.0,2216.3,593.9)" >400</text>
<line x1='2247.4' y1='659.2' x2='2260.7' y2='644.2' style="stroke-width:4.0;stroke:rgb(0,0,0);stroke-linecap:round;fill:none;" />
<text x="2272.2" y="641.1" font-size="18.2px" font-family="CMUBright-Roman" style="text-anchor:start;fill:rgb(0,0,0);" transform="rotate(311.6,2272.2,641.1)" >450</text>
<line x1='2299.2' y1='708.2' x2='2313.4' y2='694.1' style="stroke-width:4.0;stroke:rgb(0,0,0);stroke-linecap:round;fill:none;" />
<text x="2325.0" y="691.7" font-size="18.2px" font-family="CMUBright-Roman" style="text-anchor:start;fill:rgb(0,0,0);" transform="rotate(315.3,2325.0,691.7)" >500</text>
<line x1='2347.7' y1='760.4' x2='2362.8' y2='747.2' style="stroke-width:4.0;stroke:rgb(0,0,0);stroke-linecap:round;fill:none;" />
<text x="2374.6" y="745.6" font-size="18.2px" font-family="CMUBright-Roman" style="text-anchor:start;fill:rgb(0,0,0);" transform="rotate(318.9,2374.6,745.6)" >550</text>
<line x1='2392.8' y1='815.5' x2='2408.7' y2='803.4' style="stroke-width:4.0;stroke:rgb(0,0,0);stroke-linecap:round;fill:none;" />
<text x="2420.6" y="802.5" font-size="18.2px" font-family="CMUBright-Roman" style="text-anchor:start;fill:rgb(0,0,0);" transform="rotate(322.5,2420.6,802.5)" >600</text>
<line x1='2434.4' y1='873.4' x2='2451.0' y2='862.3' style="stroke-width:4.0;stroke:rgb(0,0,0);stroke-linecap:round;fill:none;" />
<text x="2462.9" y="862.1" font-size="18.2px" font-family="CMUBright-Roman" style="text-anchor:start;fill:rgb(0,0,0);" transform="rotate(326.2,2462.9,862.1)" >650</text>
<line x1='2472.2' y1='933.9' x2='2489.5' y2='923.8' style="stroke-width:4.0;stroke:rgb(0,0,0);stroke-linecap:round;fill:none;" />
<text x="2501.3" y="924.4" font-size="18.2px" font-family="CMUBright-Roman" style="text-anchor:start;fill:rgb(0,0,0);" transform="rotate(329.8,2501.3,924.4)" >700</text>
<line x1='2506.1' y1='996.6' x2='2523.9' y2='987.6' style="stroke-width:4.0;stroke:rgb(0,0,0);stroke-linecap:round;fill:none;" />
<text x="2535.8" y="988.9" font-size="18.2px" font-family="CMUBright-Roman" style="text-anchor:start;fill:rgb(0,0,0);" transform="rotate(333.4,2535.8,988.9)" >750</text>
<line x1='2535.9' y1='1061.3' x2='2554.3' y2='1053.5' style="stroke-width:4.0;stroke:rgb(0,0,0);stroke-linecap:round;fill:none;" />
<text x="2566.1" y="1055.6" font-size="18.2px" font-family="CMUBright-Roman" style="text-anchor:start;fill:rgb(0,0,0);" transform="rotate(337.0,2566.1,1055.6)" >800</text>
<line x1='2561.6' y1='1127.7' x2='2580.5' y2='1121.1' style="stroke-width:4.0;stroke:rgb(0,0,0);stroke-linecap:round;fill:none;" />
<text x="2592.1" y="1123.9" font-size="18.2px" font-family="CMUBright-Roman" style="text-anchor:start;fill:rgb(0,0,0);" transform="rotate(340.7,2592.1,1123.9)" >850</text>
<line x1='2583.1' y1='1195.7' x2='2602.3' y2='1190.3' style="stroke-width:4.0;stroke:rgb(0,0,0);stroke-linecap:round;fill:none;" />
<text x="2613.7" y="1193.8" font-size="18.2px" font-family="CMUBright-Roman" style="text-anchor:start;fill:rgb(0,0,0);" transform="rotate(344.3,2613.7,1193.8)" >900</text>
<line x1='2600.2' y1='1264.9' x2='2619.7' y2='1260.7' style="stroke-width:4.0;stroke:rgb(0,0,0);stroke-linecap:round;fill:none;" />
<text x="2630.8" y="1265.0" font-size="18.2px" font-family="CMUBright-Roman" style="text-anchor:start;fill:rgb(0,0,0);" transform="rotate(347.9,2630.8,1265.0)" >950</text>
<line x1='2612.8' y1='1335.0' x2='2632.6' y2='1332.1' style="stroke-width:4.0;stroke:rgb(0,0,0);stroke-linecap:round;fill:none;" />
<text x="2643.4" y="1337.0" font-size="18.2px" font-family="CMUBright-Roman" style="text-anchor:start;fill:rgb(0,0,0);" transform="rotate(351.6,2643.4,1337.0)" >1000</text>
<line x1='2621.0' y1='1405.8' x2='2641.0' y2='1404.1' style="stroke-width:4.0;stroke:rgb(0,0,0);stroke-linecap:round;fill:none;" />
<text x="2651.5" y="1409.8" font-size="18.2px" font-family="CMUBright-Roman" style="text-anchor:start;fill:rgb(0,0,0);" transform="rotate(355.2,2651.5,1409.8)" >1050</text>
<line x1='2624.8' y1='1477.0' x2='2644.8' y2='1476.6' style="stroke-width:4.0;stroke:rgb(0,0,0);stroke-linecap:round;fill:none;" />
<text x="2654.9" y="1482.9" font-size="18.2px" font-family="CMUBright-Roman" style="text-anchor:start;fill:rgb(0,0,0);" transform="rotate(358.8,2654.9,1482.9)" >1100</text>
<line x1='2624.0' y1='1548.2' x2='2643.9' y2='1549.1' style="stroke-width:4.0;stroke:rgb(0,0,0);stroke-linecap:round;fill:none;" />
<text x="2653.6" y="1556.0" font-size="18.2px" font-family="CMUBright-Roman" style="text-anchor:start;fill:rgb(0,0,0);" transform="rotate(2.5,2653.6,1556.0)" >1150</text>
<line x1='2618.7' y1='1619.3' x2='2638.5' y2='1621.4' style="stroke-width:4.0;stroke:rgb(0,0,0);stroke-linecap:round;fill:none;" />
<text x="2647.8" y="1629.0" font-size="18.2px" font-family="CMUBright-Roman" style="text-anchor:start;fill:rgb(0,0,0);" transform="rotate(6.1,2647.8,1629.0)" >1200</text>
<line x1='2608.9' y1='1689.9' x2='2628.6' y2='1693.3' style="stroke-width:4.0;stroke:rgb(0,0,0);stroke-linecap:round;fill:none;" />
<text x="2637.3" y="1701.4" font-size="18.2px" font-family="CMUBright-Roman" style="text-anchor:start;fill:rgb(0,0,0);" transform="rotate(9.7,2637.3,1701.4)" >1250</text>
<line x1='2594.6' y1='1759.7' x2='2614.1' y2='1764.3' style="stroke-width:4.0;stroke:rgb(0,0,0);stroke-linecap:round;fill:none;" />
<text x="2622.3" y="1773.0" font-size="18.2px" font-family="CMUBright-Roman" style="text-anchor:start;fill:rgb(0,0,0);" transform="rotate(13.3,2622.3,1773.0)" >1300</text>
<line x1='2576.0' y1='1828.5' x2='2595.1' y2='1834.4' style="stroke-width:4.0;stroke:rgb(0,0,0);stroke-linecap:round;fill:none;" />
<text x="2602.7" y="1843.5" font-size="18.2px" font-family="CMUBright-Roman" style="text-anchor:start;fill:rgb(0,0,0);" transform="rotate(17.0,2602.7,1843.5)" >1350</text>
<line x1='2553.0' y1='1896.0' x2='2571.7' y2='1903.0' style="stroke-width:4.0;stroke:rgb(0,0,0);stroke-linecap:round;fill:none;" />
<text x="2578.8" y="1912.6" font-size="18.2px" font-family="CMUBright-Roman" style="text-anchor:start;fill:rgb(0,0,0);" transform="rotate(20.6,2578.8,1912.6)" >1400</text>
<line x1='2525.8' y1='1961.9' x2='2544.1' y2='1970.1' style="stroke-width:4.0;stroke:rgb(0,0,0);stroke-linecap:round;fill:none;" />
<text x="2550.5" y="1980.1" font-size="18.2px" font-family="CMUBright-Roman" style="text-anchor:start;fill:rgb(0,0,0);" transform="rotate(24.2,2550.5,1980.1)" >1450</text>
<line x1='2494.5' y1='2025.9' x2='2512.2' y2='2035.2' style="stroke-width:4.0;stroke:rgb(0,0,0);stroke-linecap:round;fill:none;" />
<text x="2518.0" y="2045.6" font-size="18.2px" font-family="CMUBright-Roman" style="text-anchor:start;fill:rgb(0,0,0);" transform="rotate(27.9,2518.0,2045.6)" >1500</text>
<line x1='2459.2' y1='2087.8' x2='2476.3' y2='2098.3' style="stroke-width:4.0;stroke:rgb(0,0,0);stroke-linecap:round;fill:none;" />
<text x="2481.4" y="2109.0" font-size="18.2px" font-family="CMUBright-Roman" style="text-anchor:start;fill:rgb(0,0,0);" transform="rotate(31.5,2481.4,2109.0)" >1550</text>
<line x1='2420.1' y1='2147.4' x2='2436.4' y2='2158.9' style="stroke-width:4.0;stroke:rgb(0,0,0);stroke-linecap:round;fill:none;" />
<text x="2440.9" y="2169.9" font-size="18.2px" font-family="CMUBright-Roman" style="text-anchor:start;fill:rgb(0,0,0);" transform="rotate(35.1,2440.9,2169.9)" >1600</text>
<line x1='2377.2' y1='2204.3' x2='2392.8' y2='2216.8' style="stroke-width:4.0;stroke:rgb(0,0,0);stroke-linecap:round;fill:none;" />
<text x="2396.6" y="2228.2" font-size="18.2px" font-family="CMUBright-Roman" style="text-anchor:start;fill:rgb(0,0,0);" transform="rotate(38.8,2396.6,2228.2)" >1650</text>
<line x1='2330.9' y1='2258.4' x2='2345.7' y2='2271.9' style="stroke-width:4.0;stroke:rgb(0,0,0);stroke-linecap:round;fill:none;" />
<text x="2348.7" y="2283.5" font-size="18.2px" font-family="CMUBright-Roman" style="text-anchor:start;fill:rgb(0,0,0);" transform="rotate(42.4,2348.7,2283.5)" >1700</text>
<line x1='2281.2' y1='2309.5' x2='2295.1' y2='2323.9' style="stroke-width:4.0;stroke:rgb(0,0,0);stroke-linecap:round;fill:none;" />
<text x="2297.3" y="2335.6" font-size="18.2px" font-family="CMUBright-Roman" style="text-anchor:start;fill:rgb(0,0,0);" transform="rotate(46.0,2297.3,2335.6)" >1750</text>
<line x1='2228.4' y1='2357.4' x2='2241.3' y2='2372.6' style="stroke-width:4.0;stroke:rgb(0,0,0);stroke-linecap:round;fill:none;" />
<text x="2242.8" y="2384.4" font-size="18.2px" font-family="CMUBright-Roman" style="text-anchor:start;fill:rgb(0,0,0);" transform="rotate(49.7,2242.8,2384.4)" >1800</text>
<line x1='2172.6' y1='2401.8' x2='2184.6' y2='2417.8' style="stroke-width:4.0;stroke:rgb(0,0,0);stroke-linecap:round;fill:none;" />
<text x="2185.3" y="2429.7" font-size="18.2px" font-family="CMUBright-Roman" style="text-anchor:start;fill:rgb(0,0,0);" transform="rotate(53.3,2185.3,2429.7)" >1850</text>
<line x1='2114.2' y1='2442.6' x2='2125.1' y2='2459.3' style="stroke-width:4.0;stroke:rgb(0,0,0);stroke-linecap:round;fill:none;" />
<text x="2125.1" y="2471.2" font-size="18.2px" font-family="CMUBright-Roman" style="text-anchor:start;fill:rgb(0,0,0);" transform="rotate(56.9,2125.1,2471.2)" >1900</text>
<line x1='2053.3' y1='2479.5' x2='2063.1' y2='2497.0' style="stroke-width:4.0;stroke:rgb(0,0,0);stroke-linecap:round;fill:none;" />
<text x="2062.4" y="2508.9" font-size="18.2px" font-family="CMUBright-Roman" style="text-anchor:start;fill:rgb(0,0,0);" transform="rotate(60.5,2062.4,2508.9)" >1950</text>
<line x1='1990.1' y1='2512.6' x2='1998.9' y2='2530.6' style="stroke-width:4.0;stroke:rgb(0,0,0);stroke-linecap:round;fill:none;" />
<text x="1997.4" y="2542.4" font-size="18.2px" font-family="CMUBright-Roman" style="text-anchor:start;fill:rgb(0,0,0);" transform="rotate(64.2,1997.4,2542.4)" >2000</text>
<line x1='1925.0' y1='2541.6' x2='1932.6' y2='2560.1' style="stroke-width:4.0;stroke:rgb(0,0,0);stroke-linecap:round;fill:none;" />
<text x="1930.3" y="2571.8" font-size="18.2px" font-family="CMUBright-Roman" style="text-anchor:start;fill:rgb(0,0,0);" transform="rotate(67.8,1930.3,2571.8)" >2050</text>
<line x1='1858.2' y1='2566.4' x2='1864.6' y2='2585.4' style="stroke-width:4.0;stroke:rgb(0,0,0);stroke-linecap:round;fill:none;" />
<text x="1861.6" y="2596.9" font-size="18.2px" font-family="CMUBright-Roman" style="text-anchor:start;fill:rgb(0,0,0);" transform="rotate(71.4,1861.6,2596.9)" >2100</text>
<line x1='1790.0' y1='2587.0' x2='1795.1' y2='2606.3' style="stroke-width:4.0;stroke:rgb(0,0,0);stroke-linecap:round;fill:none;" />
<text x="1791.4" y="2617.6" font-size="18.2px" font-family="CMUBright-Roman" style="text-anchor:start;fill:rgb(0,0,0);" transform="rotate(75.1,1791.4,2617.6)" >2150</text>
<line x1='1720.6' y1='2603.2' x2='1724.5' y2='2622.8' style="stroke-width:4.0;stroke:rgb(0,0,0);stroke-linecap:round;fill:none;" />
<text x="1720.1" y="2633.8" font-size="18.2px" font-family="CMUBright-Roman" style="text-anchor:start;fill:rgb(0,0,0);" transform="rotate(78.7,1720.1,2633.8)" >2200</text>
<line x1='1650.3' y1='2614.9' x2='1653.0' y2='2634.7' style="stroke-width:4.0;stroke:rgb(0,0,0);stroke-linecap:round;fill:none;" />
<text x="1647.9" y="2645.5" font-size="18.2px" font-family="CMUBright-Roman" style="text-anchor:start;fill:rgb(0,0,0);" transform="rotate(82.3,1647.9,2645.5)" >2250</text>
<line x1='1579.4' y1='2622.2' x2='1580.8' y2='2642.1' style="stroke-width:4.0;stroke:rgb(0,0,0);stroke-linecap:round;fill:none;" />
<text x="1575.0" y="2652.6" font-size="18.2px" font-family="CMUBright-Roman" style="text-anchor:start;fill:rgb(0,0,0);" transform="rotate(86.0,1575.0,2652.6)" >2300</text>
<line x1='1508.2' y1='2625.0' x2='1508.3' y2='2645.0' style="stroke-width:4.0;stroke:rgb(0,0,0);stroke-linecap:round;fill:none;" />
<text x="1501.9" y="2655.0" font-size="18.2px" font-family="CMUBright-Roman" style="text-anchor:start;fill:rgb(0,0,0);" transform="rotate(89.6,1501.9,2655.0)" >2350</text>
<line x1='1436.9' y1='2623.2' x2='1435.8' y2='2643.2' style="stroke-width:4.0;stroke:rgb(0,0,0);stroke-linecap:round;fill:none;" />
<text x="1441.8" y="2653.5" font-size="18.2px" font-family="CMUBright-Roman" style="text-anchor:end;fill:rgb(0,0,0);" transform="rotate(-86.8,1441.8,2653.5)" >2400</text>
<line x1='1365.9' y1='2617.0' x2='1363.6' y2='2636.8' style="stroke-width:4.0;stroke:rgb(0,0,0);stroke-linecap:round;fill:none;" />
<text x="1368.8" y="2647.5" font-size="18.2px" font-family="CMUBright-Roman" style="text-anchor:end;fill:rgb(0,0,0);" transform="rotate(-83.2,1368.8,2647.5)" >2450</text>
<line x1='1295.5' y1='2606.3' x2='1291.9' y2='2625.9' style="stroke-width:4.0;stroke:rgb(0,0,0);stroke-linecap:round;fill:none;" />
<text x="1296.4" y="2636.9" font-size="18.2px" font-family="CMUBright-Roman" style="text-anchor:end;fill:rgb(0,0,0);" transform="rotate(-79.5,1296.4,2636.9)" >2500</text>
<line x1='1225.9' y1='2591.1' x2='1221.0' y2='2610.5' style="stroke-width:4.0;stroke:rgb(0,0,0);stroke-linecap:round;fill:none;" />
<text x="1224.9" y="2621.7" font-size="18.2px" font-family="CMUBright-Roman" style="text-anchor:end;fill:rgb(0,0,0);" transform="rotate(-75.9,1224.9,2621.7)" >2550</text>
<line x1='1157.3' y1='2571.5' x2='1151.2' y2='2590.6' style="stroke-width:4.0;stroke:rgb(0,0,0);stroke-linecap:round;fill:none;" />
<text x="1154.4" y="2602.1" font-size="18.2px" font-family="CMUBright-Roman" style="text-anchor:end;fill:rgb(0,0,0);" transform="rotate(-72.3,1154.4,2602.1)" >2600</text>
<line x1='1090.2' y1='2547.7' x2='1082.9' y2='2566.3' style="stroke-width:4.0;stroke:rgb(0,0,0);stroke-linecap:round;fill:none;" />
<text x="1085.3" y="2578.0" font-size="18.2px" font-family="CMUBright-Roman" style="text-anchor:end;fill:rgb(0,0,0);" transform="rotate(-68.6,1085.3,2578.0)" >2650</text>
<line x1='1024.7' y1='2519.6' x2='1016.2' y2='2537.8' style="stroke-width:4.0;stroke:rgb(0,0,0);stroke-linecap:round;fill:none;" />
<text x="1017.9" y="2549.6" font-size="18.2px" font-family="CMUBright-Roman" style="text-anchor:end;fill:rgb(0,0,0);" transform="rotate(-65.0,1017.9,2549.6)" >2700</text>
<line x1='961.0' y1='2487.5' x2='951.5' y2='2505.1' style="stroke-width:4.0;stroke:rgb(0,0,0);stroke-linecap:round;fill:none;" />
<text x="952.4" y="2516.9" font-size="18.2px" font-family="CMUBright-Roman" style="text-anchor:end;fill:rgb(0,0,0);" transform="rotate(-61.4,952.4,2516.9)" >2750</text>
<line x1='899.6' y1='2451.4' x2='888.9' y2='2468.3' style="stroke-width:4.0;stroke:rgb(0,0,0);stroke-linecap:round;fill:none;" />
<text x="889.1" y="2480.2" font-size="18.2px" font-family="CMUBright-Roman" style="text-anchor:end;fill:rgb(0,0,0);" transform="rotate(-57.7,889.1,2480.2)" >2800</text>
<line x1='840.6' y1='2411.5' x2='828.8' y2='2427.7' style="stroke-width:4.0;stroke:rgb(0,0,0);stroke-linecap:round;fill:none;" />
<text x="828.3" y="2439.6" font-size="18.2px" font-family="CMUBright-Roman" style="text-anchor:end;fill:rgb(0,0,0);" transform="rotate(-54.1,828.3,2439.6)" >2850</text>
<line x1='784.2' y1='2367.9' x2='771.5' y2='2383.3' style="stroke-width:4.0;stroke:rgb(0,0,0);stroke-linecap:round;fill:none;" />
<text x="770.1" y="2395.1" font-size="18.2px" font-family="CMUBright-Roman" style="text-anchor:end;fill:rgb(0,0,0);" transform="rotate(-50.5,770.1,2395.1)" >2900</text>
<line x1='730.7' y1='2320.8' x2='717.0' y2='2335.4' style="stroke-width:4.0;stroke:rgb(0,0,0);stroke-linecap:round;fill:none;" />
<text x="714.9" y="2347.1" font-size="18.2px" font-family="CMUBright-Roman" style="text-anchor:end;fill:rgb(0,0,0);" transform="rotate(-46.9,714.9,2347.1)" >2950</text>
<line x1='680.2' y1='2270.5' x2='665.7' y2='2284.2' style="stroke-width:4.0;stroke:rgb(0,0,0);stroke-linecap:round;fill:none;" />
<text x="662.8" y="2295.7" font-size="18.2px" font-family="CMUBright-Roman" style="text-anchor:end;fill:rgb(0,0,0);" transform="rotate(-43.2,662.8,2295.7)" >3000</text>
<line x1='633.1' y1='2217.0' x2='617.7' y2='2229.8' style="stroke-width:4.0;stroke:rgb(0,0,0);stroke-linecap:round;fill:none;" />
<text x="614.1" y="2241.1" font-size="18.2px" font-family="CMUBright-Roman" style="text-anchor:end;fill:rgb(0,0,0);" transform="rotate(-39.6,614.1,2241.1)" >3050</text>
<line x1='589.4' y1='2160.7' x2='573.2' y2='2172.4' style="stroke-width:4.0;stroke:rgb(0,0,0);stroke-linecap:round;fill:none;" />
<text x="569.0" y="2183.5" font-size="18.2px" font-family="CMUBright-Roman" style="text-anchor:end;fill:rgb(0,0,0);" transform="rotate(-36.0,569.0,2183.5)" >3100</text>
<line x1='549.4' y1='2101.7' x2='532.5' y2='2112.4' style="stroke-width:4.0;stroke:rgb(0,0,0);stroke-linecap:round;fill:none;" />
<text x="527.6" y="2123.2" font-size="18.2px" font-family="CMUBright-Roman" style="text-anchor:end;fill:rgb(0,0,0);" transform="rotate(-32.3,527.6,2123.2)" >3150</text>
<line x1='513.2' y1='2040.3' x2='495.7' y2='2049.9' style="stroke-width:4.0;stroke:rgb(0,0,0);stroke-linecap:round;fill:none;" />
<text x="490.1" y="2060.4" font-size="18.2px" font-family="CMUBright-Roman" style="text-anchor:end;fill:rgb(0,0,0);" transform="rotate(-28.7,490.1,2060.4)" >3200</text>
<line x1='481.0' y1='1976.7' x2='462.9' y2='1985.2' style="stroke-width:4.0;stroke:rgb(0,0,0);stroke-linecap:round;fill:none;" />
<text x="456.6" y="1995.3" font-size="18.2px" font-family="CMUBright-Roman" style="text-anchor:end;fill:rgb(0,0,0);" transform="rotate(-25.1,456.6,1995.3)" >3250</text>
<line x1='452.9' y1='1911.3' x2='434.3' y2='1918.6' style="stroke-width:4.0;stroke:rgb(0,0,0);stroke-linecap:round;fill:none;" />
<text x="427.3" y="1928.3" font-size="18.2px" font-family="CMUBright-Roman" style="text-anchor:end;fill:rgb(0,0,0);" transform="rotate(-21.4,427.3,1928.3)" >3300</text>
<line x1='428.9' y1='1844.1' x2='409.9' y2='1850.3' style="stroke-width:4.0;stroke:rgb(0,0,0);stroke-linecap:round;fill:none;" />
<text x="402.4" y="1859.5" font-size="18.2px" font-family="CMUBright-Roman" style="text-anchor:end;fill:rgb(0,0,0);" transform="rotate(-17.8,402.4,1859.5)" >3350</text>
<line x1='409.3' y1='1775.6' x2='389.9' y2='1780.5' style="stroke-width:4.0;stroke:rgb(0,0,0);stroke-linecap:round;fill:none;" />
<text x="381.8" y="1789.3" font-size="18.2px" font-family="CMUBright-Roman" style="text-anchor:end;fill:rgb(0,0,0);" transform="rotate(-14.2,381.8,1789.3)" >3400</text>
<line x1='394.0' y1='1706.0' x2='374.4' y2='1709.7' style="stroke-width:4.0;stroke:rgb(0,0,0);stroke-linecap:round;fill:none;" />
<text x="365.7" y="1717.9" font-size="18.2px" font-family="CMUBright-Roman" style="text-anchor:end;fill:rgb(0,0,0);" transform="rotate(-10.6,365.7,1717.9)" >3450</text>
<line x1='383.2' y1='1635.6' x2='363.3' y2='1638.0' style="stroke-width:4.0;stroke:rgb(0,0,0);stroke-linecap:round;fill:none;" />
<text x="354.2" y="1645.6" font-size="18.2px" font-family="CMUBright-Roman" style="text-anchor:end;fill:rgb(0,0,0);" transform="rotate(-6.9,354.2,1645.6)" >3500</text>
<line x1='376.9' y1='1564.6' x2='356.9' y2='1565.7' style="stroke-width:4.0;stroke:rgb(0,0,0);stroke-linecap:round;fill:none;" />
<text x="347.3" y="1572.8" font-size="18.2px" font-family="CMUBright-Roman" style="text-anchor:end;fill:rgb(0,0,0);" transform="rotate(-3.3,347.3,1572.8)" >3550</text>
<line x1='375.0' y1='1493.4' x2='355.0' y2='1493.2' style="stroke-width:4.0;stroke:rgb(0,0,0);stroke-linecap:round;fill:none;" />
<text x="345.0" y="1499.7" font-size="18.2px" font-family="CMUBright-Roman" style="text-anchor:end;fill:rgb(0,0,0);" transform="rotate(0.3,345.0,1499.7)" >3600</text>
<line x1='377.7' y1='1422.1' x2='357.7' y2='1420.8' style="stroke-width:4.0;stroke:rgb(0,0,0);stroke-linecap:round;fill:none;" />
<text x="347.3" y="1426.5" font-size="18.2px" font-family="CMUBright-Roman" style="text-anchor:end;fill:rgb(0,0,0);" transform="rotate(4.0,347.3,1426.5)" >3650</text>
<line x1='384.9' y1='1351.2' x2='365.1' y2='1348.6' style="stroke-width:4.0;stroke:rgb(0,0,0);stroke-linecap:round;fill:none;" />
<text x="354.3" y="1353.7" font-size="18.2px" font-family="CMUBright-Roman" style="text-anchor:end;fill:rgb(0,0,0);" transform="rotate(7.6,354.3,1353.7)" >3700</text>
<line x1='396.5' y1='1280.9' x2='376.9' y2='1277.0' style="stroke-width:4.0;stroke:rgb(0,0,0);stroke-linecap:round;fill:none;" />
<text x="365.9" y="1281.5" font-size="18.2px" font-family="CMUBright-Roman" style="text-anchor:end;fill:rgb(0,0,0);" transform="rotate(11.2,365.9,1281.5)" >3750</text>
<line x1='412.6' y1='1211.5' x2='393.3' y2='1206.4' style="stroke-width:4.0;stroke:rgb(0,0,0);stroke-linecap:round;fill:none;" />
<text x="382.0" y="1210.1" font-size="18.2px" font-family="CMUBright-Roman" style="text-anchor:end;fill:rgb(0,0,0);" transform="rotate(14.9,382.0,1210.1)" >3800</text>
<line x1='433.1' y1='1143.2' x2='414.1' y2='1136.9' style="stroke-width:4.0;stroke:rgb(0,0,0);stroke-linecap:round;fill:none;" />
<text x="402.6" y="1139.9" font-size="18.2px" font-family="CMUBright-Roman" style="text-anchor:end;fill:rgb(0,0,0);" transform="rotate(18.5,402.6,1139.9)" >3850</text>
<line x1='457.8' y1='1076.4' x2='439.3' y2='1068.9' style="stroke-width:4.0;stroke:rgb(0,0,0);stroke-linecap:round;fill:none;" />
<text x="427.6" y="1071.1" font-size="18.2px" font-family="CMUBright-Roman" style="text-anchor:end;fill:rgb(0,0,0);" transform="rotate(22.1,427.6,1071.1)" >3900</text>
<line x1='486.7' y1='1011.2' x2='468.7' y2='1002.6' style="stroke-width:4.0;stroke:rgb(0,0,0);stroke-linecap:round;fill:none;" />
<text x="456.9" y="1004.1" font-size="18.2px" font-family="CMUBright-Roman" style="text-anchor:end;fill:rgb(0,0,0);" transform="rotate(25.8,456.9,1004.1)" >3950</text>
<line x1='519.7' y1='948.1' x2='502.3' y2='938.3' style="stroke-width:4.0;stroke:rgb(0,0,0);stroke-linecap:round;fill:none;" />
<text x="490.4" y="939.0" font-size="18.2px" font-family="CMUBright-Roman" style="text-anchor:end;fill:rgb(0,0,0);" transform="rotate(29.4,490.4,939.0)" >4000</text>
<line x1='556.6' y1='887.1' x2='539.8' y2='876.2' style="stroke-width:4.0;stroke:rgb(0,0,0);stroke-linecap:round;fill:none;" />
<text x="527.9" y="876.2" font-size="18.2px" font-family="CMUBright-Roman" style="text-anchor:end;fill:rgb(0,0,0);" transform="rotate(33.0,527.9,876.2)" >4050</text>
<line x1='597.3' y1='828.6' x2='581.3' y2='816.7' style="stroke-width:4.0;stroke:rgb(0,0,0);stroke-linecap:round;fill:none;" />
<text x="569.4" y="815.9" font-size="18.2px" font-family="CMUBright-Roman" style="text-anchor:end;fill:rgb(0,0,0);" transform="rotate(36.6,569.4,815.9)" >4100</text>
<line x1='641.6' y1='772.8' x2='626.4' y2='759.9' style="stroke-width:4.0;stroke:rgb(0,0,0);stroke-linecap:round;fill:none;" />
<text x="614.6" y="758.4" font-size="18.2px" font-family="CMUBright-Roman" style="text-anchor:end;fill:rgb(0,0,0);" transform="rotate(40.3,614.6,758.4)" >4150</text>
<line x1='689.4' y1='719.9' x2='675.0' y2='706.0' style="stroke-width:4.0;stroke:rgb(0,0,0);stroke-linecap:round;fill:none;" />
<text x="663.3" y="703.8" font-size="18.2px" font-family="CMUBright-Roman" style="text-anchor:end;fill:rgb(0,0,0);" transform="rotate(43.9,663.3,703.8)" >4200</text>
<line x1='740.4' y1='670.1' x2='726.9' y2='655.4' style="stroke-width:4.0;stroke:rgb(0,0,0);stroke-linecap:round;fill:none;" />
<text x="715.4" y="652.4" font-size="18.2px" font-family="CMUBright-Roman" style="text-anchor:end;fill:rgb(0,0,0);" transform="rotate(47.5,715.4,652.4)" >4250</text>
<line x1='794.5' y1='623.7' x2='781.9' y2='608.1' style="stroke-width:4.0;stroke:rgb(0,0,0);stroke-linecap:round;fill:none;" />
<text x="770.6" y="604.4" font-size="18.2px" font-family="CMUBright-Roman" style="text-anchor:end;fill:rgb(0,0,0);" transform="rotate(51.2,770.6,604.4)" >4300</text>
<line x1='851.4' y1='580.8' x2='839.9' y2='564.5' style="stroke-width:4.0;stroke:rgb(0,0,0);stroke-linecap:round;fill:none;" />
<text x="828.8" y="560.1" font-size="18.2px" font-family="CMUBright-Roman" style="text-anchor:end;fill:rgb(0,0,0);" transform="rotate(54.8,828.8,560.1)" >4350</text>
<line x1='910.9' y1='541.6' x2='900.4' y2='524.5' style="stroke-width:4.0;stroke:rgb(0,0,0);stroke-linecap:round;fill:none;" />
<text x="889.6" y="519.4" font-size="18.2px" font-family="CMUBright-Roman" style="text-anchor:end;fill:rgb(0,0,0);" transform="rotate(58.4,889.6,519.4)" >4400</text>
<line x1='972.8' y1='506.2' x2='963.4' y2='488.5' style="stroke-width:4.0;stroke:rgb(0,0,0);stroke-linecap:round;fill:none;" />
<text x="953.0" y="482.8" font-size="18.2px" font-family="CMUBright-Roman" style="text-anchor:end;fill:rgb(0,0,0);" transform="rotate(62.1,953.0,482.8)" >4450</text>
<line x1='1036.7' y1='474.8' x2='1028.5' y2='456.6' style="stroke-width:4.0;stroke:rgb(0,0,0);stroke-linecap:round;fill:none;" />
<text x="1018.5" y="450.2" font-size="18.2px" font-family="CMUBright-Roman" style="text-anchor:end;fill:rgb(0,0,0);" transform="rotate(65.7,1018.5,450.2)" >4500</text>
<line x1='1102.6' y1='447.5' x2='1095.5' y2='428.8' style="stroke-width:4.0;stroke:rgb(0,0,0);stroke-linecap:round;fill:none;" />
<text x="1085.9" y="421.8" font-size="18.2px" font-family="CMUBright-Roman" style="text-anchor:end;fill:rgb(0,0,0);" transform="rotate(69.3,1085.9,421.8)" >4550</text>
<line x1='1170.0' y1='424.5' x2='1164.1' y2='405.4' style="stroke-width:4.0;stroke:rgb(0,0,0);stroke-linecap:round;fill:none;" />
<text x="1155.0" y="397.7" font-size="18.2px" font-family="CMUBright-Roman" style="text-anchor:end;fill:rgb(0,0,0);" transform="rotate(72.9,1155.0,397.7)" >4600</text>
<line x1='1238.8' y1='405.7' x2='1234.1' y2='386.3' style="stroke-width:4.0;stroke:rgb(0,0,0);stroke-linecap:round;fill:none;" />
<text x="1225.5" y="378.1" font-size="18.2px" font-family="CMUBright-Roman" style="text-anchor:end;fill:rgb(0,0,0);" transform="rotate(76.6,1225.5,378.1)" >4650</text>
<line x1='1308.6' y1='391.4' x2='1305.2' y2='371.7' style="stroke-width:4.0;stroke:rgb(0,0,0);stroke-linecap:round;fill:none;" />
<text x="1297.1" y="363.0" font-size="18.2px" font-family="CMUBright-Roman" style="text-anchor:end;fill:rgb(0,0,0);" transform="rotate(80.2,1297.1,363.0)" >4700</text>
<line x1='1379.2' y1='381.5' x2='1377.0' y2='361.6' style="stroke-width:4.0;stroke:rgb(0,0,0);stroke-linecap:round;fill:none;" />
<text x="1369.5" y="352.4" font-size="18.2px" font-family="CMUBright-Roman" style="text-anchor:end;fill:rgb(0,0,0);" transform="rotate(83.8,1369.5,352.4)" >4750</text>
<g id="highlighttrack_0">
<path d="M2545.267,1751.081 A1075.000,1075.000 40.000 0,1 2544.337,1754.921 L2592.911,1766.778 A1125.000,1125.000 0.000 0,0 2593.884,1762.760 Z" style="stroke-width:4.0;stroke:rgb(0,0,0);stroke-linecap:round;fill:rgb(251,106,74);" />
<path d="M2526.119,1820.475 A1075.000,1075.000 40.000 0,1 2524.836,1824.556 L2572.503,1839.651 A1125.000,1125.000 0.000 0,0 2573.846,1835.381 Z" style="stroke-width:4.0;stroke:rgb(0,0,0);stroke-linecap:round;fill:rgb(251,106,74);" />
<path d="M2415.881,2062.838 A1075.000,1075.000 40.000 0,1 2413.807,2066.199 L2456.310,2092.534 A1125.000,1125.000 0.000 0,0 2458.480,2089.017 Z" style="stroke-width:4.0;stroke:rgb(0,0,0);stroke-linecap:round;fill:rgb(251,106,74);" />
<path d="M2351.546,2156.121 A1075.000,1075.000 40.000 0,1 2349.134,2159.239 L2388.629,2189.901 A1125.000,1125.000 0.000 0,0 2391.153,2186.638 Z" style="stroke-width:4.0;stroke:rgb(0,0,0);stroke-linecap:round;fill:rgb(116,196,118);" />
<path d="M1862.999,2511.858 A1075.000,1075.000 40.000 0,1 1858.970,2513.294 L1875.667,2560.424 A1125.000,1125.000 0.000 0,0 1879.883,2558.921 Z" style="stroke-width:4.0;stroke:rgb(0,0,0);stroke-linecap:round;fill:rgb(116,196,118);" />
<path d="M1853.291,2515.289 A1075.000,1075.000 40.000 0,1 1849.557,2516.580 L1865.816,2563.863 A1125.000,1125.000 0.000 0,0 1869.723,2562.511 Z" style="stroke-width:4.0;stroke:rgb(0,0,0);stroke-linecap:round;fill:rgb(116,196,118);" />
<path d="M990.852,2446.781 A1075.000,1075.000 40.000 0,1 987.377,2444.903 L963.534,2488.852 A1125.000,1125.000 0.000 0,0 967.171,2490.817 Z" style="stroke-width:4.0;stroke:rgb(0,0,0);stroke-linecap:round;fill:rgb(116,196,118);" />
<path d="M964.141,568.077 A1075.000,1075.000 40.000 0,1 967.569,566.114 L942.805,522.678 A1125.000,1125.000 0.000 0,0 939.217,524.732 Z" style="stroke-width:4.0;stroke:rgb(0,0,0);stroke-linecap:round;fill:rgb(251,106,74);" />
<path d="M1278.777,2551.991 A1075.000,1075.000 40.000 0,1 1275.383,2551.272 L1264.936,2600.168 A1125.000,1125.000 0.000 0,0 1268.488,2600.921 Z" style="stroke-width:4.0;stroke:rgb(0,0,0);stroke-linecap:round;fill:rgb(116,196,118);" />
<path d="M1237.336,2542.417 A1075.000,1075.000 40.000 0,1 1233.964,2541.561 L1221.590,2590.006 A1125.000,1125.000 0.000 0,0 1225.119,2590.901 Z" style="stroke-width:4.0;stroke:rgb(0,0,0);stroke-linecap:round;fill:rgb(116,196,118);" />
<path d="M1226.134,2539.530 A1075.000,1075.000 40.000 0,1 1222.799,2538.646 L1209.906,2586.955 A1125.000,1125.000 0.000 0,0 1213.396,2587.880 Z" style="stroke-width:4.0;stroke:rgb(0,0,0);stroke-linecap:round;fill:rgb(116,196,118);" />
<path d="M2539.354,1774.533 A1075.000,1075.000 40.000 0,1 2536.752,1784.202 L2584.973,1797.420 A1125.000,1125.000 0.000 0,0 2587.696,1787.302 Z" style="stroke-width:4.0;stroke:rgb(0,0,0);stroke-linecap:round;fill:rgb(116,196,118);" />
</g>
</g>
<g id="track_0">
<path d="M 2534.814,1748.571 A 1064.250,1064.250 0.00 0,1 2533.9,1752.4 L 2533.9,1752.4 2462.6,1734.0 2396.2,1715.0 2334.5,1695.5 2277.0,1675.5 2223.6,1655.1 2174.0,1634.3 2127.8,1613.2 2084.8,1591.8 2044.8,1570.0 2007.5,1548.0 1972.8,1525.6 1940.4,1502.9 1910.2,1479.9 1881.9,1456.5 1855.5,1432.7 1830.7,1408.3 1807.5,1383.5 1785.7,1358.0 1765.3,1331.8 1746.1,1304.7 1728.0,1276.8 1711.1,1247.9 1695.3,1217.8 1680.4,1186.4 1666.6,1153.6 1653.8,1119.2 1641.9,1083.1 1631.2,1045.0 1621.5,1004.9 1612.9,962.5 1605.5,917.5 1599.4,869.9 1594.6,819.3 1591.3,765.6 1589.6,708.4 1589.6,647.6 1591.4,582.9 1595.3,514.0 1601.4,440.6  A 1064.250,1064.250 0.00 0,0 1597.5,440.2 L 1597.5,440.2 1591.7,513.6 1588.1,582.6 1586.4,647.3 1586.7,708.1 1588.6,765.3 1592.1,819.0 1597.1,869.5 1603.4,917.2 1610.9,962.1 1619.7,1004.5 1629.5,1044.6 1640.4,1082.6 1652.4,1118.6 1665.3,1153.0 1679.3,1185.7 1694.2,1217.1 1710.2,1247.1 1727.2,1276.0 1745.4,1303.8 1764.7,1330.8 1785.2,1356.9 1807.1,1382.3 1830.4,1407.1 1855.2,1431.4 1881.7,1455.1 1910.1,1478.4 1940.4,1501.3 1972.9,1523.9 2007.7,1546.1 2045.0,1568.0 2085.1,1589.6 2128.2,1610.9 2174.5,1631.9 2224.2,1652.5 2277.7,1672.7 2335.2,1692.4 2397.0,1711.7 2463.4,1730.5 2534.8,1748.6  Z" style="stroke-width: 2.0;  stroke: rgb(82,82,82); fill: rgb(251,106,74); opacity: 0.667;" />
<path d="M 2515.858,1817.270 A 1064.250,1064.250 0.00 0,1 2514.6,1821.3 L 2514.6,1821.3 2444.6,1798.2 2379.6,1774.7 2319.2,1750.9 2263.1,1726.9 2210.9,1702.7 2162.5,1678.4 2117.5,1653.9 2075.6,1629.3 2036.7,1604.6 2000.5,1579.8 1966.7,1554.9 1935.3,1529.7 1905.9,1504.4 1878.4,1478.9 1852.7,1453.0 1828.6,1426.9 1805.9,1400.2 1784.7,1373.1 1764.7,1345.4 1745.9,1316.9 1728.2,1287.7 1711.6,1257.5 1695.9,1226.3 1681.2,1193.8 1667.5,1160.1 1654.8,1124.8 1643.0,1087.8 1632.2,1049.0 1622.4,1008.2 1613.8,965.1 1606.3,919.7 1600.0,871.5 1595.1,820.5 1591.7,766.4 1589.9,709.0 1589.7,647.9 1591.5,583.0 1595.3,514.0 1601.4,440.6  A 1064.250,1064.250 0.00 0,0 1597.5,440.2 L 1597.5,440.2 1591.7,513.7 1588.1,582.7 1586.6,647.6 1587.0,708.7 1589.0,766.1 1592.6,820.2 1597.7,871.2 1604.1,919.3 1611.8,964.7 1620.6,1007.7 1630.5,1048.5 1641.5,1087.3 1653.4,1124.2 1666.3,1159.4 1680.1,1193.1 1694.9,1225.5 1710.7,1256.7 1727.4,1286.8 1745.2,1316.0 1764.1,1344.3 1784.2,1372.0 1805.6,1399.0 1828.3,1425.6 1852.5,1451.7 1878.3,1477.4 1905.9,1502.8 1935.4,1528.0 1967.0,1553.0 2000.8,1577.8 2037.1,1602.5 2076.2,1627.0 2118.1,1651.5 2163.2,1675.7 2211.8,1699.9 2264.0,1723.9 2320.2,1747.6 2380.7,1771.2 2445.8,1794.4 2515.9,1817.3  Z" style="stroke-width: 2.0;  stroke: rgb(82,82,82); fill: rgb(116,196,118); opacity: 0.667;" />
<path d="M 2515.858,1817.270 A 1064.250,1064.250 0.00 0,1 2514.6,1821.3 L 2514.6,1821.3 2444.8,1799.2 2380.4,1778.6 2321.0,1759.6 2266.4,1742.0 2216.4,1725.8 2170.7,1710.9 2129.2,1697.3 2091.7,1684.8 2057.9,1673.5 2027.8,1663.2 2001.1,1653.9 1977.7,1645.7 1957.6,1638.4 1940.6,1632.0 1926.6,1626.5 1915.6,1621.8 1907.5,1618.0 1902.2,1615.0 1899.8,1612.7 1900.2,1611.3 1903.4,1610.7 1909.5,1610.8 1918.4,1611.8 1930.2,1613.5 1945.1,1616.1 1962.9,1619.4 1983.9,1623.6 2008.1,1628.7 2035.7,1634.6 2066.8,1641.5 2101.6,1649.4 2140.2,1658.2 2182.7,1668.1 2229.5,1679.1 2280.6,1691.2 2336.4,1704.5 2397.0,1719.1 2462.8,1735.1 2533.9,1752.4  A 1064.250,1064.250 0.00 0,0 2534.8,1748.6 L 2534.8,1748.6 2463.6,1731.5 2397.8,1715.8 2337.1,1701.5 2281.3,1688.3 2230.1,1676.4 2183.3,1665.6 2140.8,1655.9 2102.2,1647.2 2067.4,1639.4 2036.2,1632.7 2008.6,1626.8 1984.4,1621.8 1963.3,1617.7 1945.5,1614.4 1930.7,1611.9 1918.8,1610.2 1909.9,1609.3 1903.9,1609.2 1900.6,1609.8 1900.3,1611.2 1902.7,1613.4 1908.0,1616.4 1916.1,1620.2 1927.1,1624.8 1941.1,1630.3 1958.1,1636.6 1978.3,1643.8 2001.7,1652.0 2028.4,1661.1 2058.6,1671.3 2092.4,1682.5 2130.0,1694.8 2171.6,1708.3 2217.3,1723.0 2267.4,1739.0 2322.0,1756.3 2381.5,1775.1 2446.0,1795.4 2515.9,1817.3  Z" style="stroke-width: 2.0;  stroke: rgb(82,82,82); fill: rgb(107,174,214); opacity: 0.667;" />
<path d="M 2406.722,2057.210 A 1064.250,1064.250 0.00 0,1 2404.7,2060.5 L 2404.7,2060.5 2342.5,2020.8 2285.0,1981.6 2232.0,1943.2 2182.9,1905.3 2137.6,1868.1 2095.8,1831.6 2057.1,1795.6 2021.2,1760.2 1988.0,1725.4 1957.2,1691.1 1928.5,1657.2 1901.8,1623.7 1876.9,1590.6 1853.6,1557.7 1831.7,1525.0 1811.1,1492.4 1791.6,1459.7 1773.2,1426.9 1755.8,1393.9 1739.3,1360.6 1723.6,1326.7 1708.6,1292.3 1694.4,1257.0 1680.9,1220.9 1668.1,1183.6 1656.0,1145.2 1644.7,1105.2 1634.2,1063.7 1624.6,1020.4 1616.0,975.1 1608.4,927.6 1601.9,877.7 1596.7,825.1 1592.9,769.6 1590.7,711.1 1590.3,649.1 1591.8,583.6 1595.4,514.2 1601.4,440.6  A 1064.250,1064.250 0.00 0,0 1597.5,440.2 L 1597.5,440.2 1591.8,513.8 1588.4,583.2 1587.2,648.8 1587.8,710.7 1590.2,769.3 1594.2,824.7 1599.6,877.3 1606.3,927.2 1614.0,974.7 1622.9,1020.0 1632.6,1063.2 1643.3,1104.7 1654.7,1144.6 1666.9,1183.0 1679.8,1220.2 1693.5,1256.3 1707.8,1291.5 1722.9,1325.9 1738.8,1359.7 1755.4,1393.0 1773.0,1425.9 1791.5,1458.6 1811.0,1491.2 1831.8,1523.8 1853.8,1556.4 1877.2,1589.2 1902.3,1622.3 1929.1,1655.6 1957.9,1689.4 1988.8,1723.6 2022.2,1758.3 2058.1,1793.5 2097.0,1829.4 2139.0,1865.8 2184.4,1902.8 2233.6,1940.5 2286.8,1978.8 2344.4,2017.7 2406.7,2057.2  Z" style="stroke-width: 2.0;  stroke: rgb(82,82,82); fill: rgb(253,141,60); opacity: 0.667;" />
<path d="M 2406.722,2057.210 A 1064.250,1064.250 0.00 0,1 2404.7,2060.5 L 2404.7,2060.5 2342.5,2021.8 2285.3,1985.7 2232.7,1952.0 2184.6,1920.6 2140.6,1891.5 2100.6,1864.4 2064.5,1839.4 2032.0,1816.2 2002.9,1794.8 1977.2,1775.1 1954.7,1757.1 1935.3,1740.5 1918.8,1725.4 1905.3,1711.8 1894.5,1699.4 1886.5,1688.4 1881.2,1678.6 1878.5,1669.9 1878.6,1662.5 1881.2,1656.1 1886.5,1650.9 1894.5,1646.7 1905.3,1643.6 1918.8,1641.6 1935.1,1640.6 1954.4,1640.7 1976.6,1641.9 2002.1,1644.2 2030.7,1647.5 2062.8,1652.1 2098.4,1657.8 2137.7,1664.8 2180.9,1673.0 2228.2,1682.5 2279.8,1693.4 2335.9,1705.8 2396.8,1719.7 2462.7,1735.2 2533.9,1752.4  A 1064.250,1064.250 0.00 0,0 2534.8,1748.6 L 2534.8,1748.6 2463.6,1731.7 2397.6,1716.4 2336.7,1702.7 2280.5,1690.6 2228.9,1679.8 2181.6,1670.5 2138.3,1662.4 2099.0,1655.6 2063.3,1650.0 2031.3,1645.6 2002.6,1642.3 1977.2,1640.1 1954.9,1639.0 1935.6,1639.0 1919.3,1640.0 1905.8,1642.1 1895.1,1645.3 1887.1,1649.5 1881.8,1654.7 1879.1,1661.1 1879.2,1668.6 1881.8,1677.2 1887.2,1687.0 1895.2,1698.0 1906.0,1710.3 1919.7,1723.9 1936.2,1738.9 1955.7,1755.4 1978.2,1773.4 2004.0,1793.0 2033.1,1814.2 2065.7,1837.3 2102.0,1862.2 2142.0,1889.1 2186.1,1918.1 2234.4,1949.3 2287.1,1982.8 2344.4,2018.7 2406.7,2057.2  Z" style="stroke-width: 2.0;  stroke: rgb(82,82,82); fill: rgb(255,0,0); opacity: 0.667;" />
<path d="M 2406.722,2057.210 A 1064.250,1064.250 0.00 0,1 2404.7,2060.5 L 2404.7,2060.5 2342.5,2021.8 2285.2,1985.8 2232.6,1952.3 2184.3,1921.2 2140.2,1892.4 2100.1,1865.7 2063.8,1841.1 2031.1,1818.5 2001.8,1797.7 1975.9,1778.6 1953.1,1761.3 1933.5,1745.5 1916.7,1731.3 1902.9,1718.6 1891.8,1707.2 1883.5,1697.2 1877.8,1688.6 1874.8,1681.2 1874.4,1675.0 1876.7,1670.1 1881.6,1666.4 1889.2,1663.8 1899.4,1662.5 1912.4,1662.3 1928.2,1663.3 1946.9,1665.5 1968.6,1669.0 1993.4,1673.6 2021.4,1679.6 2052.7,1686.9 2087.6,1695.5 2126.1,1705.6 2168.4,1717.1 2214.8,1730.2 2265.3,1744.9 2320.4,1761.2 2380.1,1779.4 2444.7,1799.4 2514.6,1821.3  A 1064.250,1064.250 0.00 0,0 2515.9,1817.3 L 2515.9,1817.3 2445.9,1795.6 2381.2,1775.9 2321.4,1758.0 2266.3,1741.8 2215.7,1727.3 2169.3,1714.5 2126.9,1703.1 2088.4,1693.2 2053.5,1684.7 2022.1,1677.5 1994.1,1671.7 1969.3,1667.1 1947.6,1663.8 1928.9,1661.6 1913.1,1660.7 1900.0,1660.9 1889.8,1662.3 1882.2,1664.9 1877.3,1668.7 1875.1,1673.6 1875.5,1679.7 1878.5,1687.1 1884.2,1695.8 1892.6,1705.7 1903.7,1717.0 1917.6,1729.7 1934.4,1743.9 1954.1,1759.6 1976.9,1776.9 2002.9,1795.8 2032.3,1816.5 2065.0,1839.1 2101.5,1863.5 2141.7,1890.0 2185.9,1918.7 2234.2,1949.6 2287.0,1982.9 2344.4,2018.7 2406.7,2057.2  Z" style="stroke-width: 2.0;  stroke: rgb(82,82,82); fill: rgb(255,0,204); opacity: 0.667;" />
<path d="M 2343.031,2149.559 A 1064.250,1064.250 0.00 0,1 2340.6,2152.6 L 2340.6,2152.6 2283.0,2106.5 2229.9,2061.4 2181.0,2017.3 2136.0,1974.1 2094.6,1932.0 2056.4,1890.7 2021.3,1850.4 1988.8,1811.0 1958.8,1772.3 1931.0,1734.4 1905.2,1697.1 1881.1,1660.5 1858.7,1624.4 1837.7,1588.7 1817.9,1553.4 1799.3,1518.3 1781.7,1483.4 1764.9,1448.4 1749.0,1413.4 1733.7,1378.2 1719.2,1342.5 1705.3,1306.4 1691.9,1269.6 1679.2,1232.0 1667.0,1193.4 1655.4,1153.6 1644.5,1112.5 1634.4,1069.9 1624.9,1025.6 1616.4,979.3 1608.8,931.0 1602.4,880.3 1597.2,827.0 1593.3,771.0 1591.0,712.0 1590.5,649.6 1591.9,583.8 1595.4,514.2 1601.4,440.6  A 1064.250,1064.250 0.00 0,0 1597.5,440.2 L 1597.5,440.2 1591.8,513.9 1588.5,583.5 1587.3,649.3 1588.1,711.6 1590.6,770.7 1594.7,826.7 1600.1,879.9 1606.8,930.6 1614.5,978.9 1623.2,1025.1 1632.8,1069.4 1643.1,1112.0 1654.2,1153.0 1665.9,1192.8 1678.2,1231.3 1691.1,1268.9 1704.5,1305.6 1718.6,1341.7 1733.3,1377.3 1748.7,1412.5 1764.7,1447.5 1781.6,1482.3 1799.4,1517.2 1818.1,1552.2 1838.0,1587.5 1859.2,1623.1 1881.7,1659.1 1905.9,1695.6 1931.8,1732.8 1959.8,1770.6 1989.9,1809.2 2022.6,1848.5 2057.9,1888.7 2096.2,1929.8 2137.7,1971.8 2182.9,2014.8 2231.9,2058.7 2285.2,2103.6 2343.0,2149.6  Z" style="stroke-width: 2.0;  stroke: rgb(82,82,82); fill: rgb(255,204,204); opacity: 0.667;" />
<path d="M 2343.031,2149.559 A 1064.250,1064.250 0.00 0,1 2340.6,2152.6 L 2340.6,2152.6 2283.0,2107.5 2229.9,2065.4 2181.3,2026.1 2136.9,1989.4 2096.5,1955.3 2059.9,1923.6 2026.9,1894.2 1997.3,1866.9 1971.1,1841.7 1948.0,1818.4 1927.9,1797.0 1910.8,1777.3 1896.4,1759.3 1884.9,1742.8 1876.0,1727.9 1869.8,1714.4 1866.1,1702.3 1865.0,1691.5 1866.4,1682.0 1870.4,1673.7 1876.9,1666.7 1886.1,1660.9 1897.8,1656.2 1912.3,1652.7 1929.5,1650.4 1949.6,1649.2 1972.6,1649.2 1998.7,1650.4 2028.0,1652.7 2060.6,1656.3 2096.6,1661.2 2136.4,1667.4 2179.9,1674.9 2227.5,1683.9 2279.4,1694.3 2335.7,1706.3 2396.7,1719.9 2462.7,1735.3 2533.9,1752.4  A 1064.250,1064.250 0.00 0,0 2534.8,1748.6 L 2534.8,1748.6 2463.5,1731.7 2397.5,1716.6 2336.5,1703.3 2280.1,1691.5 2228.2,1681.2 2180.6,1672.4 2137.0,1665.1 2097.2,1659.0 2061.1,1654.3 2028.5,1650.8 1999.2,1648.5 1973.2,1647.4 1950.1,1647.5 1930.1,1648.8 1912.8,1651.2 1898.4,1654.8 1886.7,1659.5 1877.5,1665.3 1871.0,1672.4 1867.1,1680.6 1865.7,1690.1 1866.8,1700.9 1870.5,1713.0 1876.8,1726.5 1885.8,1741.4 1897.4,1757.8 1911.8,1775.8 1929.0,1795.4 1949.1,1816.8 1972.3,1840.0 1998.7,1865.1 2028.3,1892.3 2061.4,1921.6 2098.2,1953.1 2138.7,1987.1 2183.3,2023.6 2232.0,2062.7 2285.2,2104.7 2343.0,2149.6  Z" style="stroke-width: 2.0;  stroke: rgb(82,82,82); fill: rgb(255,153,0); opacity: 0.667;" />
<path d="M 2343.031,2149.559 A 1064.250,1064.250 0.00 0,1 2340.6,2152.6 L 2340.6,2152.6 2282.9,2107.6 2229.9,2065.5 2181.2,2026.4 2136.6,1990.0 2096.1,1956.2 2059.3,1924.9 2026.1,1895.9 1996.3,1869.2 1969.9,1844.5 1946.5,1821.9 1926.2,1801.2 1908.8,1782.2 1894.2,1765.0 1882.3,1749.5 1873.1,1735.6 1866.5,1723.1 1862.5,1712.2 1861.1,1702.6 1862.1,1694.4 1865.7,1687.6 1871.8,1682.1 1880.5,1677.9 1891.8,1675.0 1905.8,1673.4 1922.5,1673.0 1942.0,1673.9 1964.5,1676.2 1989.9,1679.8 2018.5,1684.7 2050.4,1691.1 2085.7,1698.9 2124.7,1708.2 2167.4,1719.1 2214.0,1731.6 2264.9,1745.7 2320.1,1761.7 2380.0,1779.6 2444.7,1799.4 2514.6,1821.3  A 1064.250,1064.250 0.00 0,0 2515.9,1817.3 L 2515.9,1817.3 2445.9,1795.7 2381.1,1776.1 2321.2,1758.5 2265.9,1742.7 2214.9,1728.7 2168.2,1716.4 2125.5,1705.7 2086.5,1696.6 2051.2,1688.9 2019.2,1682.7 1990.6,1677.8 1965.1,1674.4 1942.7,1672.2 1923.2,1671.3 1906.5,1671.8 1892.5,1673.5 1881.2,1676.4 1872.5,1680.7 1866.4,1686.2 1862.8,1693.1 1861.8,1701.2 1863.3,1710.8 1867.4,1721.7 1874.0,1734.2 1883.3,1748.1 1895.2,1763.6 1909.8,1780.7 1927.3,1799.6 1947.7,1820.2 1971.1,1842.8 1997.7,1867.4 2027.6,1894.0 2060.9,1922.9 2097.8,1954.0 2138.4,1987.7 2183.1,2023.9 2231.9,2062.9 2285.2,2104.7 2343.0,2149.6  Z" style="stroke-width: 2.0;  stroke: rgb(82,82,82); fill: rgb(255,204,0); opacity: 0.667;" />
<path d="M 2343.031,2149.559 A 1064.250,1064.250 0.00 0,1 2340.6,2152.6 L 2340.6,2152.6 2282.9,2107.7 2229.5,2066.1 2180.5,2027.6 2135.4,1992.1 2094.3,1959.4 2056.7,1929.4 2022.7,1902.0 1991.9,1877.0 1964.4,1854.4 1939.8,1834.0 1918.2,1815.8 1899.5,1799.5 1883.4,1785.3 1870.0,1772.9 1859.1,1762.4 1850.7,1753.7 1844.8,1746.7 1841.3,1741.5 1840.2,1737.9 1841.6,1736.0 1845.3,1735.8 1851.4,1737.2 1860.0,1740.3 1871.1,1745.1 1884.7,1751.7 1901.0,1760.0 1920.0,1770.1 1941.7,1782.0 1966.4,1795.9 1994.0,1811.8 2024.8,1829.7 2058.9,1849.8 2096.5,1872.2 2137.7,1896.9 2182.6,1924.2 2231.6,1954.0 2284.8,1986.6 2342.4,2022.0 2404.7,2060.5  A 1064.250,1064.250 0.00 0,0 2406.7,2057.2 L 2406.7,2057.2 2344.3,2018.9 2286.6,1983.7 2233.3,1951.3 2184.2,1921.6 2139.1,1894.6 2097.9,1870.0 2060.2,1847.8 2026.0,1827.8 1995.2,1809.9 1967.4,1794.2 1942.7,1780.4 1920.9,1768.5 1902.0,1758.5 1885.7,1750.3 1872.0,1743.8 1860.9,1739.0 1852.3,1735.9 1846.1,1734.5 1842.4,1734.8 1841.1,1736.7 1842.2,1740.2 1845.7,1745.5 1851.6,1752.4 1860.1,1761.1 1871.0,1771.6 1884.4,1783.9 1900.6,1798.1 1919.4,1814.2 1941.1,1832.4 1965.7,1852.7 1993.3,1875.2 2024.1,1900.1 2058.3,1927.4 2095.9,1957.2 2137.2,1989.7 2182.4,2025.1 2231.6,2063.4 2285.1,2104.8 2343.0,2149.6  Z" style="stroke-width: 2.0;  stroke: rgb(82,82,82); fill: rgb(255,255,0); opacity: 0.667;" />
<path d="M 1859.369,2501.739 A 1064.250,1064.250 0.00 0,1 1855.4,2503.2 L 1855.4,2503.2 1831.7,2432.8 1811.3,2365.2 1793.8,2300.1 1778.9,2237.5 1766.1,2177.2 1755.3,2119.0 1746.1,2062.9 1738.3,2008.8 1731.6,1956.4 1725.9,1905.6 1720.8,1856.4 1716.2,1808.5 1711.9,1761.8 1707.8,1716.2 1703.7,1671.5 1699.5,1627.5 1695.2,1584.2 1690.6,1541.3 1685.8,1498.7 1680.5,1456.2 1674.9,1413.7 1669.0,1371.0 1662.6,1327.9 1656.0,1284.2 1649.1,1239.9 1642.0,1194.6 1634.9,1148.3 1627.7,1100.7 1620.7,1051.7 1614.0,1001.1 1607.8,948.6 1602.2,894.2 1597.5,837.5 1593.9,778.5 1591.6,716.9 1590.9,652.5 1592.1,585.1 1595.5,514.6 1601.4,440.6  A 1064.250,1064.250 0.00 0,0 1597.5,440.2 L 1597.5,440.2 1591.9,514.2 1588.8,584.8 1587.8,652.2 1588.7,716.6 1591.2,778.2 1595.1,837.2 1600.0,893.8 1605.8,948.2 1612.2,1000.7 1619.1,1051.3 1626.2,1100.3 1633.6,1147.8 1640.9,1194.1 1648.2,1239.3 1655.2,1283.7 1662.0,1327.3 1668.5,1370.3 1674.6,1413.0 1680.4,1455.5 1685.8,1498.0 1690.8,1540.6 1695.6,1583.4 1700.1,1626.7 1704.4,1670.7 1708.6,1715.4 1712.9,1761.0 1717.4,1807.6 1722.2,1855.5 1727.5,1904.7 1733.5,1955.4 1740.4,2007.8 1748.4,2061.9 1757.8,2118.0 1768.8,2176.1 1781.8,2236.4 1797.0,2298.9 1814.8,2363.9 1835.4,2431.5 1859.4,2501.7  Z" style="stroke-width: 2.0;  stroke: rgb(82,82,82); fill: rgb(204,255,0); opacity: 0.667;" />
<path d="M 1859.369,2501.739 A 1064.250,1064.250 0.00 0,1 1855.4,2503.2 L 1855.4,2503.2 1831.4,2433.8 1810.3,2369.0 1791.9,2308.6 1775.9,2252.2 1762.4,2199.6 1751.1,2150.6 1741.9,2105.1 1734.8,2062.8 1729.7,2023.4 1726.4,1987.0 1725.0,1953.2 1725.3,1921.9 1727.3,1893.0 1731.1,1866.3 1736.5,1841.8 1743.6,1819.2 1752.4,1798.6 1762.8,1779.7 1775.0,1762.6 1789.0,1747.1 1804.8,1733.3 1822.5,1721.0 1842.2,1710.2 1863.9,1700.8 1887.8,1693.0 1913.9,1686.5 1942.5,1681.6 1973.6,1678.1 2007.3,1676.1 2043.9,1675.7 2083.6,1676.9 2126.4,1679.7 2172.7,1684.2 2222.5,1690.5 2276.2,1698.7 2333.9,1708.8 2395.9,1721.1 2462.5,1735.6 2533.9,1752.4  A 1064.250,1064.250 0.00 0,0 2534.8,1748.6 L 2534.8,1748.6 2463.3,1732.0 2396.7,1717.8 2334.6,1705.8 2276.9,1695.8 2223.2,1687.8 2173.3,1681.7 2127.1,1677.4 2084.2,1674.7 2044.6,1673.7 2008.0,1674.3 1974.2,1676.4 1943.2,1680.0 1914.6,1685.0 1888.5,1691.5 1864.6,1699.5 1843.0,1708.9 1823.4,1719.8 1805.7,1732.1 1790.0,1746.1 1776.1,1761.6 1763.9,1778.7 1753.5,1797.6 1744.8,1818.3 1737.8,1840.9 1732.5,1865.4 1728.9,1892.1 1727.0,1921.0 1726.8,1952.3 1728.4,1986.1 1731.8,2022.5 1737.1,2061.8 1744.3,2104.1 1753.7,2149.6 1765.2,2198.5 1778.9,2251.1 1795.1,2307.4 1813.8,2367.8 1835.2,2432.5 1859.4,2501.7  Z" style="stroke-width: 2.0;  stroke: rgb(82,82,82); fill: rgb(0,255,0); opacity: 0.667;" />
<path d="M 1859.369,2501.739 A 1064.250,1064.250 0.00 0,1 1855.4,2503.2 L 1855.4,2503.2 1831.4,2433.9 1810.2,2369.2 1791.6,2308.8 1775.5,2252.7 1761.8,2200.4 1750.3,2151.7 1740.8,2106.6 1733.5,2064.7 1728.0,2025.9 1724.4,1990.0 1722.7,1956.9 1722.6,1926.4 1724.3,1898.3 1727.7,1872.5 1732.8,1848.9 1739.5,1827.4 1747.9,1807.8 1758.0,1790.2 1769.8,1774.4 1783.4,1760.4 1798.8,1748.0 1816.0,1737.4 1835.3,1728.3 1856.5,1720.9 1879.9,1715.0 1905.6,1710.8 1933.6,1708.1 1964.2,1707.1 1997.3,1707.8 2033.3,1710.1 2072.3,1714.3 2114.4,1720.2 2159.8,1728.1 2208.8,1738.0 2261.5,1750.0 2318.2,1764.2 2379.1,1780.7 2444.5,1799.7 2514.6,1821.3  A 1064.250,1064.250 0.00 0,0 2515.9,1817.3 L 2515.9,1817.3 2445.7,1795.9 2380.2,1777.2 2319.3,1760.9 2262.5,1746.9 2209.7,1735.2 2160.7,1725.5 2115.3,1717.8 2073.1,1712.0 2034.2,1708.0 1998.2,1705.8 1965.0,1705.3 1934.5,1706.4 1906.4,1709.1 1880.8,1713.5 1857.4,1719.4 1836.2,1727.0 1817.0,1736.1 1799.7,1746.8 1784.4,1759.2 1770.9,1773.3 1759.1,1789.2 1749.1,1806.8 1740.8,1826.4 1734.2,1847.9 1729.2,1871.6 1725.9,1897.4 1724.3,1925.5 1724.5,1956.0 1726.4,1989.1 1730.1,2025.0 1735.7,2063.8 1743.3,2105.6 1752.8,2150.7 1764.6,2199.3 1778.5,2251.6 1794.9,2307.7 1813.7,2367.9 1835.1,2432.5 1859.4,2501.7  Z" style="stroke-width: 2.0;  stroke: rgb(82,82,82); fill: rgb(53,128,0); opacity: 0.667;" />
<path d="M 1859.369,2501.739 A 1064.250,1064.250 0.00 0,1 1855.4,2503.2 L 1855.4,2503.2 1831.3,2434.0 1809.8,2369.6 1790.7,2309.8 1773.9,2254.3 1759.3,2203.0 1746.8,2155.5 1736.3,2111.7 1727.6,2071.4 1720.9,2034.4 1715.9,2000.6 1712.6,1969.7 1710.9,1941.7 1710.9,1916.4 1712.6,1893.6 1715.8,1873.3 1720.6,1855.4 1727.0,1839.8 1735.0,1826.4 1744.6,1815.2 1756.0,1806.1 1769.0,1799.0 1783.8,1794.0 1800.4,1791.1 1818.9,1790.2 1839.4,1791.4 1862.0,1794.6 1886.7,1800.0 1913.8,1807.6 1943.3,1817.4 1975.3,1829.4 2010.0,1843.9 2047.5,1860.9 2088.1,1880.5 2131.8,1902.8 2178.9,1928.0 2229.5,1956.2 2283.8,1987.6 2342.2,2022.3 2404.7,2060.5  A 1064.250,1064.250 0.00 0,0 2406.7,2057.2 L 2406.7,2057.2 2344.1,2019.2 2285.6,1984.7 2231.1,1953.5 2180.4,1925.5 2133.3,1900.5 2089.5,1878.3 2048.8,1858.9 2011.2,1842.1 1976.5,1827.7 1944.4,1815.7 1914.9,1806.0 1887.9,1798.6 1863.1,1793.3 1840.5,1790.1 1820.0,1789.0 1801.5,1790.0 1784.9,1793.0 1770.1,1798.0 1757.1,1805.1 1745.9,1814.3 1736.3,1825.5 1728.3,1838.9 1722.0,1854.6 1717.2,1872.5 1714.1,1892.8 1712.6,1915.5 1712.7,1940.9 1714.4,1968.9 1717.8,1999.7 1723.0,2033.6 1729.9,2070.5 1738.7,2110.8 1749.4,2154.5 1762.1,2201.9 1776.9,2253.2 1793.9,2308.6 1813.2,2368.3 1835.0,2432.6 1859.4,2501.7  Z" style="stroke-width: 2.0;  stroke: rgb(82,82,82); fill: rgb(0,0,204); opacity: 0.667;" />
<path d="M 1859.369,2501.739 A 1064.250,1064.250 0.00 0,1 1855.4,2503.2 L 1855.4,2503.2 1831.3,2434.0 1809.6,2369.7 1790.2,2310.2 1773.1,2255.0 1758.1,2204.0 1745.1,2157.0 1734.1,2113.7 1724.8,2074.0 1717.4,2037.7 1711.7,2004.6 1707.6,1974.6 1705.1,1947.6 1704.2,1923.3 1704.9,1901.7 1707.1,1882.7 1710.9,1866.2 1716.2,1852.1 1723.0,1840.3 1731.4,1830.9 1741.4,1823.6 1753.0,1818.6 1766.3,1815.9 1781.4,1815.3 1798.2,1816.9 1817.0,1820.8 1837.7,1826.9 1860.4,1835.4 1885.4,1846.2 1912.6,1859.5 1942.1,1875.4 1974.3,1893.9 2009.0,1915.1 2046.6,1939.2 2087.2,1966.3 2130.9,1996.6 2177.9,2030.2 2228.4,2067.2 2282.6,2108.0 2340.6,2152.6  A 1064.250,1064.250 0.00 0,0 2343.0,2149.6 L 2343.0,2149.6 2284.8,2105.1 2230.5,2064.6 2179.8,2027.7 2132.7,1994.2 2088.9,1964.1 2048.2,1937.2 2010.6,1913.2 1975.7,1892.1 1943.5,1873.7 1913.9,1858.0 1886.6,1844.8 1861.7,1834.0 1838.9,1825.7 1818.2,1819.6 1799.4,1815.8 1782.6,1814.2 1767.5,1814.9 1754.2,1817.7 1742.6,1822.7 1732.7,1830.0 1724.3,1839.5 1717.5,1851.3 1712.3,1865.4 1708.6,1881.9 1706.5,1900.9 1705.9,1922.5 1706.9,1946.8 1709.4,1973.8 1713.7,2003.8 1719.5,2036.9 1727.1,2073.1 1736.5,2112.8 1747.7,2156.0 1760.9,2203.0 1776.1,2253.9 1793.5,2309.0 1813.0,2368.5 1835.0,2432.7 1859.4,2501.7  Z" style="stroke-width: 2.0;  stroke: rgb(82,82,82); fill: rgb(102,153,255); opacity: 0.667;" />
<path d="M 1849.758,2505.136 A 1064.250,1064.250 0.00 0,1 1846.1,2506.4 L 1846.1,2506.4 1823.1,2435.9 1803.3,2368.0 1786.4,2302.8 1772.0,2240.0 1759.8,2179.5 1749.5,2121.2 1740.8,2065.0 1733.5,2010.7 1727.2,1958.2 1721.9,1907.3 1717.1,1858.0 1712.9,1810.0 1709.0,1763.3 1705.2,1717.6 1701.4,1672.8 1697.5,1628.8 1693.4,1585.4 1689.1,1542.4 1684.4,1499.7 1679.4,1457.2 1674.0,1414.6 1668.2,1371.8 1662.0,1328.7 1655.5,1285.0 1648.7,1240.5 1641.7,1195.2 1634.6,1148.8 1627.5,1101.2 1620.6,1052.1 1613.9,1001.4 1607.7,948.9 1602.2,894.4 1597.5,837.7 1593.9,778.6 1591.6,717.0 1590.9,652.6 1592.1,585.1 1595.5,514.6 1601.4,440.6  A 1064.250,1064.250 0.00 0,0 1597.5,440.2 L 1597.5,440.2 1591.9,514.2 1588.8,584.8 1587.8,652.2 1588.7,716.6 1591.2,778.3 1595.1,837.3 1599.9,894.0 1605.7,948.5 1612.1,1001.0 1618.9,1051.7 1626.0,1100.7 1633.3,1148.3 1640.6,1194.7 1647.7,1240.0 1654.7,1284.4 1661.3,1328.1 1667.7,1371.2 1673.7,1414.0 1679.2,1456.5 1684.4,1499.0 1689.3,1541.7 1693.8,1584.6 1698.0,1628.0 1702.0,1672.0 1706.0,1716.8 1709.9,1762.5 1714.0,1809.2 1718.5,1857.2 1723.4,1906.5 1728.9,1957.4 1735.3,2009.8 1742.9,2064.1 1751.8,2120.3 1762.3,2178.5 1774.7,2239.0 1789.3,2301.7 1806.5,2366.9 1826.5,2434.7 1849.8,2505.1  Z" style="stroke-width: 2.0;  stroke: rgb(82,82,82); fill: rgb(153,204,255); opacity: 0.667;" />
<path d="M 1849.758,2505.136 A 1064.250,1064.250 0.00 0,1 1846.1,2506.4 L 1846.1,2506.4 1822.8,2436.8 1802.3,2371.9 1784.4,2311.2 1769.0,2254.6 1756.0,2201.9 1745.2,2152.8 1736.5,2107.1 1729.8,2064.6 1725.1,2025.2 1722.2,1988.6 1721.1,1954.7 1721.7,1923.3 1724.1,1894.3 1728.1,1867.6 1733.8,1843.0 1741.2,1820.3 1750.2,1799.6 1760.9,1780.7 1773.3,1763.5 1787.4,1748.0 1803.4,1734.0 1821.3,1721.7 1841.1,1710.8 1862.9,1701.4 1887.0,1693.5 1913.2,1687.0 1941.9,1682.0 1973.1,1678.5 2006.9,1676.5 2043.6,1676.0 2083.3,1677.1 2126.2,1679.8 2172.5,1684.3 2222.4,1690.6 2276.1,1698.7 2333.9,1708.9 2395.9,1721.1 2462.5,1735.6 2533.9,1752.4  A 1064.250,1064.250 0.00 0,0 2534.8,1748.6 L 2534.8,1748.6 2463.3,1732.0 2396.7,1717.8 2334.6,1705.8 2276.8,1695.9 2223.1,1687.9 2173.2,1681.8 2126.9,1677.5 2084.0,1674.9 2044.3,1674.0 2007.6,1674.6 1973.7,1676.7 1942.6,1680.4 1913.9,1685.5 1887.7,1692.1 1863.7,1700.1 1841.9,1709.5 1822.1,1720.5 1804.3,1732.9 1788.4,1746.9 1774.2,1762.5 1761.9,1779.7 1751.3,1798.7 1742.3,1819.4 1735.1,1842.1 1729.5,1866.8 1725.5,1893.5 1723.3,1922.5 1722.7,1953.9 1724.0,1987.8 1727.0,2024.4 1731.9,2063.8 1738.7,2106.2 1747.6,2151.9 1758.5,2200.9 1771.8,2253.6 1787.4,2310.1 1805.5,2370.7 1826.2,2435.7 1849.8,2505.1  Z" style="stroke-width: 2.0;  stroke: rgb(82,82,82); fill: rgb(0,255,255); opacity: 0.667;" />
<path d="M 1849.758,2505.136 A 1064.250,1064.250 0.00 0,1 1846.1,2506.4 L 1846.1,2506.4 1822.7,2436.9 1802.2,2372.0 1784.2,2311.5 1768.6,2255.1 1755.4,2202.7 1744.3,2153.9 1735.4,2108.6 1728.4,2066.6 1723.4,2027.7 1720.2,1991.7 1718.7,1958.4 1719.1,1927.8 1721.1,1899.6 1724.7,1873.7 1730.1,1850.0 1737.0,1828.5 1745.7,1808.9 1756.0,1791.2 1768.0,1775.3 1781.8,1761.2 1797.4,1748.8 1814.8,1738.0 1834.2,1728.9 1855.6,1721.4 1879.1,1715.5 1904.9,1711.2 1933.0,1708.5 1963.7,1707.5 1996.9,1708.1 2033.0,1710.4 2072.0,1714.5 2114.2,1720.4 2159.7,1728.2 2208.7,1738.1 2261.5,1750.0 2318.2,1764.2 2379.1,1780.7 2444.5,1799.7 2514.6,1821.3  A 1064.250,1064.250 0.00 0,0 2515.9,1817.3 L 2515.9,1817.3 2445.7,1795.9 2380.2,1777.2 2319.2,1760.9 2262.4,1747.0 2209.6,1735.3 2160.6,1725.6 2115.1,1718.0 2072.9,1712.2 2033.8,1708.3 1997.7,1706.1 1964.5,1705.6 1933.8,1706.8 1905.7,1709.6 1879.9,1714.0 1856.4,1720.0 1835.0,1727.6 1815.7,1736.8 1798.3,1747.6 1782.8,1760.1 1769.0,1774.3 1757.1,1790.2 1746.8,1807.9 1738.3,1827.6 1731.4,1849.2 1726.1,1872.9 1722.5,1898.8 1720.6,1927.0 1720.4,1957.6 1722.0,1990.9 1725.3,2026.9 1730.5,2065.7 1737.6,2107.7 1746.7,2153.0 1757.9,2201.7 1771.4,2254.1 1787.1,2310.4 1805.4,2370.9 1826.2,2435.7 1849.8,2505.1  Z" style="stroke-width: 2.0;  stroke: rgb(82,82,82); fill: rgb(204,255,255); opacity: 0.667;" />
<path d="M 1849.758,2505.136 A 1064.250,1064.250 0.00 0,1 1846.1,2506.4 L 1846.1,2506.4 1822.6,2437.0 1801.7,2372.4 1783.2,2312.4 1767.0,2256.8 1752.9,2205.3 1740.8,2157.6 1730.8,2113.7 1722.6,2073.3 1716.2,2036.2 1711.6,2002.2 1708.6,1971.2 1707.3,1943.1 1707.6,1917.7 1709.6,1894.8 1713.0,1874.5 1718.1,1856.5 1724.7,1840.8 1733.0,1827.3 1742.8,1816.0 1754.3,1806.8 1767.5,1799.7 1782.5,1794.7 1799.3,1791.7 1817.9,1790.7 1838.5,1791.9 1861.2,1795.1 1886.1,1800.4 1913.3,1807.9 1942.8,1817.6 1974.9,1829.7 2009.7,1844.1 2047.3,1861.1 2087.9,1880.6 2131.7,1902.9 2178.8,1928.1 2229.4,1956.2 2283.8,1987.6 2342.2,2022.3 2404.7,2060.5  A 1064.250,1064.250 0.00 0,0 2406.7,2057.2 L 2406.7,2057.2 2344.1,2019.2 2285.6,1984.7 2231.1,1953.6 2180.3,1925.6 2133.1,1900.6 2089.3,1878.5 2048.6,1859.1 2011.0,1842.2 1976.1,1827.9 1944.0,1816.0 1914.4,1806.4 1887.2,1799.0 1862.3,1793.7 1839.6,1790.6 1819.0,1789.6 1800.3,1790.6 1783.6,1793.6 1768.6,1798.7 1755.5,1805.9 1744.0,1815.1 1734.2,1826.5 1726.0,1840.0 1719.4,1855.7 1714.4,1873.7 1711.0,1894.0 1709.2,1916.9 1708.9,1942.3 1710.3,1970.5 1713.4,2001.4 1718.2,2035.4 1724.7,2072.5 1733.0,2112.9 1743.3,2156.8 1755.5,2204.3 1769.7,2255.8 1786.2,2311.4 1804.9,2371.3 1826.1,2435.8 1849.8,2505.1  Z" style="stroke-width: 2.0;  stroke: rgb(82,82,82); fill: rgb(153,0,204); opacity: 0.667;" />
<path d="M 1849.758,2505.136 A 1064.250,1064.250 0.00 0,1 1846.1,2506.4 L 1846.1,2506.4 1822.6,2437.0 1801.5,2372.6 1782.8,2312.8 1766.2,2257.4 1751.7,2206.3 1739.2,2159.1 1728.6,2115.7 1719.8,2075.9 1712.7,2039.4 1707.4,2006.2 1703.6,1976.1 1701.5,1949.0 1700.9,1924.6 1701.9,1902.9 1704.4,1883.8 1708.4,1867.2 1713.9,1853.0 1720.9,1841.2 1729.5,1831.7 1739.7,1824.4 1751.5,1819.3 1765.0,1816.5 1780.2,1815.8 1797.2,1817.4 1816.1,1821.2 1836.9,1827.3 1859.8,1835.7 1884.8,1846.5 1912.1,1859.8 1941.8,1875.6 1974.0,1894.0 2008.8,1915.2 2046.5,1939.3 2087.1,1966.4 2130.8,1996.6 2177.8,2030.2 2228.4,2067.3 2282.6,2108.0 2340.6,2152.6  A 1064.250,1064.250 0.00 0,0 2343.0,2149.6 L 2343.0,2149.6 2284.8,2105.1 2230.4,2064.6 2179.8,2027.7 2132.6,1994.3 2088.8,1964.2 2048.1,1937.3 2010.3,1913.3 1975.4,1892.3 1943.2,1874.0 1913.4,1858.3 1886.1,1845.1 1861.0,1834.4 1838.1,1826.1 1817.3,1820.1 1798.4,1816.3 1781.4,1814.8 1766.2,1815.5 1752.7,1818.4 1740.9,1823.5 1730.8,1830.8 1722.2,1840.4 1715.2,1852.3 1709.7,1866.5 1705.8,1883.1 1703.4,1902.2 1702.5,1923.9 1703.1,1948.2 1705.4,1975.4 1709.2,2005.5 1714.7,2038.6 1721.9,2075.0 1730.8,2114.8 1741.6,2158.2 1754.3,2205.3 1769.0,2256.4 1785.7,2311.7 1804.7,2371.5 1826.0,2435.8 1849.8,2505.1  Z" style="stroke-width: 2.0;  stroke: rgb(82,82,82); fill: rgb(204,51,255); opacity: 0.667;" />
<path d="M 1849.758,2505.136 A 1064.250,1064.250 0.00 0,1 1846.1,2506.4 L 1846.1,2506.4 1822.3,2437.2 1800.3,2373.2 1780.0,2314.2 1761.4,2260.0 1744.4,2210.3 1728.8,2164.9 1714.7,2123.5 1701.9,2086.1 1690.4,2052.4 1680.1,2022.3 1671.1,1995.6 1663.1,1972.2 1656.3,1951.9 1650.5,1934.7 1645.8,1920.5 1642.1,1909.3 1639.4,1900.8 1637.6,1895.2 1636.9,1892.4 1637.1,1892.3 1638.2,1895.0 1640.3,1900.5 1643.4,1908.8 1647.6,1919.9 1652.7,1934.0 1658.9,1951.0 1666.1,1971.1 1674.5,1994.4 1684.0,2020.9 1694.7,2050.9 1706.7,2084.4 1720.0,2121.7 1734.6,2162.9 1750.7,2208.1 1768.3,2257.6 1787.5,2311.6 1808.3,2370.4 1830.9,2434.2 1855.4,2503.2  A 1064.250,1064.250 0.00 0,0 1859.4,2501.7 L 1859.4,2501.7 1834.6,2432.8 1811.8,2369.2 1790.7,2310.5 1771.3,2256.5 1753.5,2207.1 1737.2,2161.9 1722.4,2120.8 1709.0,2083.6 1696.9,2050.1 1686.1,2020.2 1676.4,1993.7 1668.0,1970.5 1660.6,1950.4 1654.4,1933.4 1649.2,1919.4 1645.0,1908.2 1641.9,1900.0 1639.7,1894.5 1638.6,1891.8 1638.4,1891.9 1639.1,1894.7 1640.9,1900.3 1643.6,1908.7 1647.4,1920.0 1652.2,1934.2 1658.0,1951.3 1664.9,1971.5 1672.9,1994.9 1682.1,2021.6 1692.4,2051.7 1704.1,2085.4 1717.0,2122.8 1731.3,2164.0 1747.0,2209.4 1764.2,2259.0 1783.0,2313.2 1803.5,2372.1 1825.7,2436.0 1849.8,2505.1  Z" style="stroke-width: 2.0;  stroke: rgb(82,82,82); fill: rgb(204,153,255); opacity: 0.667;" />
<path d="M 995.944,2437.313 A 1064.250,1064.250 0.00 0,1 992.5,2435.5 L 992.5,2435.5 1026.8,2369.7 1057.6,2306.0 1085.1,2244.3 1109.7,2184.7 1131.7,2127.0 1151.6,2071.1 1169.5,2017.0 1185.9,1964.5 1200.8,1913.7 1214.7,1864.3 1227.7,1816.3 1240.0,1769.6 1251.9,1724.1 1263.5,1679.6 1274.9,1636.0 1286.4,1593.2 1298.0,1551.0 1309.8,1509.4 1322.0,1468.1 1334.5,1427.0 1347.5,1386.0 1360.9,1344.8 1374.8,1303.4 1389.2,1261.5 1404.1,1218.9 1419.3,1175.6 1434.9,1131.1 1450.8,1085.5 1466.8,1038.5 1482.8,989.8 1498.8,939.2 1514.6,886.6 1529.9,831.7 1544.6,774.2 1558.6,714.0 1571.4,650.8 1583.1,584.3 1593.1,514.3 1601.4,440.6  A 1064.250,1064.250 0.00 0,0 1597.5,440.2 L 1597.5,440.2 1589.5,514.0 1579.7,584.0 1568.3,650.6 1555.7,713.8 1542.0,774.1 1527.4,831.6 1512.3,886.5 1496.8,939.2 1481.0,989.8 1465.1,1038.6 1449.2,1085.7 1433.6,1131.4 1418.1,1175.9 1403.0,1219.3 1388.4,1261.9 1374.1,1303.9 1360.4,1345.4 1347.1,1386.6 1334.2,1427.6 1321.9,1468.8 1309.9,1510.1 1298.2,1551.8 1286.7,1594.0 1275.4,1636.8 1264.1,1680.5 1252.7,1725.0 1241.0,1770.6 1228.9,1817.3 1216.0,1865.4 1202.4,1914.8 1187.6,1965.7 1171.4,2018.2 1153.7,2072.4 1134.0,2128.3 1112.2,2186.1 1087.8,2245.9 1060.5,2307.6 1030.0,2371.4 995.9,2437.3  Z" style="stroke-width: 2.0;  stroke: rgb(82,82,82); fill: rgb(102,102,102); opacity: 0.667;" />
<path d="M 995.944,2437.313 A 1064.250,1064.250 0.00 0,1 992.5,2435.5 L 992.5,2435.5 1028.5,2371.1 1064.0,2311.7 1098.8,2256.8 1133.2,2206.2 1167.0,2159.4 1200.2,2116.3 1233.0,2076.5 1265.3,2039.8 1297.2,2006.0 1328.7,1974.8 1359.8,1946.0 1390.7,1919.4 1421.4,1894.8 1452.0,1872.1 1482.5,1851.1 1513.1,1831.7 1543.8,1813.8 1574.7,1797.3 1606.0,1782.0 1637.7,1767.9 1670.0,1755.0 1703.1,1743.2 1737.0,1732.5 1771.9,1722.9 1807.9,1714.4 1845.3,1707.0 1884.1,1700.7 1924.5,1695.7 1966.8,1692.0 2011.1,1689.6 2057.6,1688.7 2106.4,1689.4 2157.9,1691.9 2212.2,1696.2 2269.5,1702.6 2330.1,1711.2 2394.2,1722.2 2462.1,1735.8 2533.9,1752.4  A 1064.250,1064.250 0.00 0,0 2534.8,1748.6 L 2534.8,1748.6 2462.9,1732.3 2395.0,1718.9 2330.9,1708.1 2270.3,1699.7 2212.9,1693.6 2158.6,1689.5 2107.1,1687.2 2058.2,1686.7 2011.8,1687.7 1967.5,1690.3 1925.2,1694.1 1884.8,1699.3 1846.0,1705.7 1808.7,1713.2 1772.7,1721.9 1737.8,1731.6 1704.0,1742.5 1671.0,1754.4 1638.7,1767.4 1607.0,1781.6 1575.8,1797.0 1544.9,1813.6 1514.3,1831.7 1483.8,1851.2 1453.4,1872.3 1422.9,1895.1 1392.3,1919.8 1361.5,1946.5 1330.4,1975.4 1299.0,2006.7 1267.3,2040.7 1235.1,2077.5 1202.5,2117.4 1169.4,2160.6 1135.8,2207.5 1101.6,2258.3 1066.9,2313.3 1031.7,2372.9 995.9,2437.3  Z" style="stroke-width: 2.0;  stroke: rgb(82,82,82); fill: rgb(153,153,153); opacity: 0.667;" />
<path d="M 995.944,2437.313 A 1064.250,1064.250 0.00 0,1 992.5,2435.5 L 992.5,2435.5 1028.5,2371.2 1063.8,2311.8 1098.5,2257.0 1132.6,2206.5 1166.2,2159.9 1199.1,2117.0 1231.6,2077.5 1263.5,2041.2 1295.0,2007.8 1326.1,1977.0 1356.9,1948.8 1387.4,1922.8 1417.6,1899.0 1447.8,1877.1 1477.9,1857.0 1508.1,1838.6 1538.3,1821.7 1568.9,1806.4 1599.8,1792.4 1631.1,1779.7 1663.0,1768.4 1695.7,1758.3 1729.2,1749.4 1763.7,1741.7 1799.3,1735.3 1836.2,1730.1 1874.5,1726.3 1914.5,1723.8 1956.3,1722.8 2000.0,1723.3 2045.8,1725.5 2094.1,1729.5 2144.8,1735.4 2198.3,1743.4 2254.8,1753.7 2314.4,1766.4 2377.4,1781.8 2444.1,1800.0 2514.6,1821.3  A 1064.250,1064.250 0.00 0,0 2515.9,1817.3 L 2515.9,1817.3 2445.3,1796.2 2378.5,1778.3 2315.4,1763.2 2255.8,1750.7 2199.3,1740.7 2145.7,1732.9 2095.0,1727.2 2046.7,1723.4 2000.8,1721.3 1957.1,1721.0 1915.4,1722.1 1875.4,1724.8 1837.1,1728.8 1800.2,1734.1 1764.6,1740.6 1730.1,1748.4 1696.7,1757.5 1664.0,1767.7 1632.2,1779.2 1600.9,1792.0 1570.0,1806.1 1539.5,1821.6 1509.3,1838.5 1479.2,1857.0 1449.2,1877.2 1419.1,1899.2 1388.9,1923.2 1358.5,1949.3 1327.9,1977.7 1296.9,2008.5 1265.5,2042.0 1233.7,2078.5 1201.4,2118.1 1168.6,2161.1 1135.2,2207.8 1101.3,2258.5 1066.8,2313.4 1031.7,2372.9 995.9,2437.3  Z" style="stroke-width: 2.0;  stroke: rgb(82,82,82); fill: rgb(204,204,204); opacity: 0.667;" />
<path d="M 995.944,2437.313 A 1064.250,1064.250 0.00 0,1 992.5,2435.5 L 992.5,2435.5 1028.3,2371.2 1063.3,2312.0 1097.3,2257.5 1130.6,2207.4 1163.1,2161.4 1194.8,2119.3 1225.9,2080.8 1256.4,2045.6 1286.3,2013.6 1315.7,1984.5 1344.7,1958.1 1373.4,1934.2 1401.8,1912.8 1430.0,1893.7 1458.1,1876.6 1486.2,1861.6 1514.4,1848.5 1542.8,1837.3 1571.5,1827.8 1600.5,1820.1 1630.1,1814.1 1660.4,1809.7 1691.3,1807.1 1723.2,1806.2 1756.1,1807.1 1790.1,1809.7 1825.4,1814.3 1862.1,1820.7 1900.3,1829.2 1940.3,1839.9 1982.2,1852.9 2026.1,1868.3 2072.2,1886.4 2120.7,1907.2 2171.7,1931.0 2225.4,1958.0 2282.0,1988.4 2341.7,2022.5 2404.7,2060.5  A 1064.250,1064.250 0.00 0,0 2406.7,2057.2 L 2406.7,2057.2 2343.6,2019.4 2283.8,1985.6 2227.1,1955.3 2173.2,1928.5 2122.2,1904.9 2073.6,1884.3 2027.4,1866.4 1983.5,1851.1 1941.6,1838.3 1901.5,1827.8 1863.2,1819.4 1826.5,1813.1 1791.2,1808.7 1757.2,1806.1 1724.3,1805.4 1692.5,1806.4 1661.5,1809.2 1631.3,1813.6 1601.7,1819.7 1572.7,1827.5 1544.0,1837.1 1515.7,1848.4 1487.5,1861.6 1459.5,1876.8 1431.4,1893.9 1403.3,1913.2 1375.0,1934.7 1346.4,1958.6 1317.5,1985.1 1288.2,2014.4 1258.4,2046.5 1228.0,2081.8 1197.1,2120.4 1165.5,2162.7 1133.2,2208.8 1100.1,2259.0 1066.2,2313.6 1031.5,2372.9 995.9,2437.3  Z" style="stroke-width: 2.0;  stroke: rgb(82,82,82); fill: rgb(204,204,153); opacity: 0.667;" />
<path d="M 995.944,2437.313 A 1064.250,1064.250 0.00 0,1 992.5,2435.5 L 992.5,2435.5 1028.3,2371.2 1063.0,2312.1 1096.8,2257.7 1129.7,2207.7 1161.7,2162.0 1192.9,2120.1 1223.3,2081.9 1253.1,2047.2 1282.2,2015.6 1310.8,1987.1 1339.0,1961.4 1366.7,1938.4 1394.2,1917.9 1421.4,1899.7 1448.4,1883.9 1475.4,1870.1 1502.5,1858.5 1529.6,1848.8 1557.1,1841.1 1584.8,1835.3 1613.0,1831.3 1641.8,1829.2 1671.3,1829.0 1701.5,1830.8 1732.7,1834.4 1764.9,1840.1 1798.2,1847.9 1832.9,1857.8 1869.0,1870.0 1906.6,1884.7 1946.0,1901.8 1987.2,1921.7 2030.5,1944.4 2075.8,1970.2 2123.5,1999.2 2173.7,2031.8 2226.5,2068.0 2282.1,2108.2 2340.6,2152.6  A 1064.250,1064.250 0.00 0,0 2343.0,2149.6 L 2343.0,2149.6 2284.3,2105.3 2228.6,2065.3 2175.6,2029.3 2125.4,1996.9 2077.6,1968.1 2032.1,1942.5 1988.8,1919.9 1947.5,1900.2 1908.0,1883.2 1870.3,1868.7 1834.2,1856.6 1799.5,1846.8 1766.1,1839.1 1733.9,1833.6 1702.7,1830.0 1672.5,1828.4 1643.0,1828.7 1614.2,1830.9 1586.1,1834.9 1558.3,1840.9 1530.9,1848.7 1503.8,1858.5 1476.8,1870.2 1449.8,1884.0 1422.8,1900.0 1395.7,1918.3 1368.3,1938.9 1340.7,1962.0 1312.6,1987.8 1284.1,2016.4 1255.1,2048.1 1225.4,2082.9 1195.1,2121.2 1164.1,2163.2 1132.3,2209.1 1099.6,2259.1 1066.0,2313.7 1031.5,2373.0 995.9,2437.3  Z" style="stroke-width: 2.0;  stroke: rgb(82,82,82); fill: rgb(251,106,74); opacity: 0.667;" />
<path d="M 995.944,2437.313 A 1064.250,1064.250 0.00 0,1 992.5,2435.5 L 992.5,2435.5 1027.9,2371.3 1061.6,2312.2 1093.8,2258.0 1124.4,2208.5 1153.6,2163.3 1181.5,2122.2 1208.1,2085.1 1233.6,2051.6 1258.0,2021.8 1281.4,1995.2 1303.9,1971.9 1325.6,1951.7 1346.5,1934.4 1366.8,1920.0 1386.5,1908.4 1405.6,1899.4 1424.3,1893.1 1442.6,1889.4 1460.6,1888.2 1478.4,1889.6 1496.0,1893.6 1513.5,1900.1 1530.9,1909.3 1548.5,1921.1 1566.1,1935.7 1583.8,1953.1 1601.8,1973.4 1620.1,1996.7 1638.7,2023.3 1657.7,2053.1 1677.1,2086.4 1697.1,2123.4 1717.6,2164.3 1738.7,2209.2 1760.5,2258.4 1783.0,2312.1 1806.3,2370.6 1830.4,2434.2 1855.4,2503.2  A 1064.250,1064.250 0.00 0,0 1859.4,2501.7 L 1859.4,2501.7 1834.1,2432.9 1809.8,2369.4 1786.3,2311.0 1763.5,2257.3 1741.5,2208.2 1720.2,2163.4 1699.5,2122.6 1679.4,2085.7 1659.8,2052.5 1640.7,2022.7 1622.0,1996.3 1603.7,1973.0 1585.6,1952.7 1567.8,1935.4 1550.1,1920.9 1532.5,1909.1 1515.0,1900.0 1497.5,1893.6 1479.9,1889.7 1462.1,1888.3 1444.1,1889.6 1425.8,1893.4 1407.1,1899.8 1388.0,1908.8 1368.4,1920.5 1348.2,1935.0 1327.3,1952.3 1305.7,1972.6 1283.3,1996.0 1259.9,2022.6 1235.6,2052.6 1210.3,2086.1 1183.8,2123.4 1156.0,2164.5 1127.0,2209.9 1096.5,2259.5 1064.6,2313.8 1031.1,2373.0 995.9,2437.3  Z" style="stroke-width: 2.0;  stroke: rgb(82,82,82); fill: rgb(116,196,118); opacity: 0.667;" />
<path d="M 995.944,2437.313 A 1064.250,1064.250 0.00 0,1 992.5,2435.5 L 992.5,2435.5 1027.9,2371.3 1061.6,2312.2 1093.7,2258.0 1124.3,2208.5 1153.5,2163.3 1181.3,2122.2 1207.9,2085.1 1233.3,2051.7 1257.6,2021.8 1280.9,1995.3 1303.3,1972.0 1324.9,1951.8 1345.7,1934.5 1365.8,1920.2 1385.4,1908.6 1404.3,1899.6 1422.9,1893.4 1441.0,1889.7 1458.8,1888.6 1476.4,1890.1 1493.8,1894.1 1511.1,1900.7 1528.3,1909.9 1545.6,1921.9 1562.9,1936.5 1580.4,1954.1 1598.1,1974.5 1616.0,1998.0 1634.3,2024.7 1652.9,2054.6 1672.0,2088.1 1691.5,2125.3 1711.6,2166.3 1732.3,2211.4 1753.6,2260.8 1775.5,2314.7 1798.3,2373.5 1821.7,2437.3 1846.1,2506.4  A 1064.250,1064.250 0.00 0,0 1849.8,2505.1 L 1849.8,2505.1 1825.2,2436.1 1801.5,2372.3 1778.5,2313.7 1756.4,2259.9 1734.9,2210.5 1714.0,2165.5 1693.8,2124.6 1674.1,2087.5 1655.0,2054.1 1636.2,2024.2 1617.9,1997.6 1599.8,1974.1 1582.1,1953.8 1564.5,1936.3 1547.2,1921.7 1529.9,1909.8 1512.6,1900.7 1495.3,1894.1 1477.9,1890.1 1460.3,1888.7 1442.5,1889.9 1424.3,1893.6 1405.8,1900.0 1386.9,1909.0 1367.4,1920.7 1347.3,1935.1 1326.6,1952.4 1305.1,1972.7 1282.7,1996.1 1259.5,2022.7 1235.3,2052.6 1210.0,2086.1 1183.6,2123.4 1155.9,2164.5 1126.9,2209.8 1096.5,2259.5 1064.6,2313.8 1031.1,2373.0 995.9,2437.3  Z" style="stroke-width: 2.0;  stroke: rgb(82,82,82); fill: rgb(107,174,214); opacity: 0.667;" />
<path d="M 969.500,577.396 A 1064.250,1064.250 0.00 0,1 972.9,575.5 L 972.9,575.5 1009.5,638.9 1044.1,697.3 1076.7,750.8 1107.4,799.8 1136.4,844.5 1163.8,885.0 1189.6,921.6 1214.0,954.5 1237.0,983.8 1258.7,1009.7 1279.2,1032.4 1298.6,1052.0 1317.0,1068.5 1334.4,1082.1 1350.9,1092.8 1366.6,1100.8 1381.5,1106.1 1395.7,1108.6 1409.2,1108.5 1422.2,1105.7 1434.6,1100.3 1446.5,1092.1 1457.9,1081.2 1468.9,1067.5 1479.5,1050.9 1489.8,1031.4 1499.8,1008.8 1509.5,983.0 1518.9,953.9 1528.1,921.4 1537.0,885.2 1545.8,845.2 1554.3,801.2 1562.6,753.0 1570.8,700.4 1578.7,643.1 1586.5,580.9 1594.0,513.5 1601.4,440.6  A 1064.250,1064.250 0.00 0,0 1597.5,440.2 L 1597.5,440.2 1590.4,513.1 1583.1,580.6 1575.6,642.8 1567.8,700.1 1559.9,752.8 1551.7,801.0 1543.4,845.0 1534.8,885.0 1526.0,921.3 1516.9,953.8 1507.6,983.0 1498.0,1008.8 1488.1,1031.4 1477.9,1051.0 1467.3,1067.6 1456.4,1081.4 1445.0,1092.3 1433.1,1100.5 1420.7,1106.0 1407.8,1108.8 1394.2,1109.0 1380.0,1106.5 1365.1,1101.3 1349.4,1093.4 1332.9,1082.7 1315.4,1069.2 1297.0,1052.7 1277.5,1033.2 1256.9,1010.6 1235.1,984.8 1212.0,955.5 1187.5,922.8 1161.5,886.2 1134.0,845.8 1104.8,801.3 1073.9,752.4 1041.1,699.0 1006.3,640.7 969.5,577.4  Z" style="stroke-width: 2.0;  stroke: rgb(82,82,82); fill: rgb(253,141,60); opacity: 0.667;" />
<path d="M 969.500,577.396 A 1064.250,1064.250 0.00 0,1 972.9,575.5 L 972.9,575.5 1010.5,639.2 1047.9,698.3 1085.1,753.3 1121.9,804.4 1158.4,852.1 1194.4,896.5 1230.0,938.0 1265.2,976.9 1299.8,1013.5 1334.0,1048.0 1367.8,1080.6 1401.1,1111.5 1434.0,1141.1 1466.6,1169.4 1498.9,1196.6 1531.0,1223.0 1562.9,1248.7 1594.9,1273.7 1626.8,1298.3 1659.0,1322.6 1691.4,1346.6 1724.3,1370.3 1757.8,1394.0 1792.0,1417.6 1827.1,1441.1 1863.2,1464.7 1900.7,1488.2 1939.6,1511.7 1980.3,1535.2 2022.8,1558.6 2067.5,1581.9 2114.6,1604.9 2164.3,1627.7 2216.9,1650.2 2272.7,1672.1 2332.0,1693.4 2395.1,1714.0 2462.3,1733.7 2533.9,1752.4  A 1064.250,1064.250 0.00 0,0 2534.8,1748.6 L 2534.8,1748.6 2463.2,1730.2 2395.9,1710.7 2332.7,1690.4 2273.4,1669.3 2217.5,1647.5 2164.7,1625.3 2114.9,1602.7 2067.8,1579.8 2023.0,1556.7 1980.4,1533.4 1939.7,1510.1 1900.7,1486.7 1863.1,1463.3 1826.8,1439.9 1791.6,1416.5 1757.4,1393.1 1723.8,1369.5 1690.9,1345.8 1658.3,1322.0 1626.1,1297.9 1594.0,1273.4 1562.0,1248.5 1530.0,1222.9 1497.8,1196.6 1465.4,1169.5 1432.7,1141.3 1399.7,1111.9 1366.2,1081.0 1332.4,1048.6 1298.0,1014.2 1263.2,977.8 1228.0,939.0 1192.2,897.6 1156.0,853.3 1119.4,805.8 1082.3,754.8 1045.0,700.0 1007.3,641.0 969.5,577.4  Z" style="stroke-width: 2.0;  stroke: rgb(82,82,82); fill: rgb(255,0,0); opacity: 0.667;" />
<path d="M 969.500,577.396 A 1064.250,1064.250 0.00 0,1 972.9,575.5 L 972.9,575.5 1010.5,639.2 1048.0,698.4 1085.3,753.5 1122.3,804.9 1159.0,852.7 1195.2,897.5 1231.0,939.4 1266.3,978.7 1301.2,1015.7 1335.5,1050.8 1369.4,1084.0 1402.8,1115.6 1435.7,1146.0 1468.3,1175.1 1500.5,1203.3 1532.5,1230.7 1564.3,1257.5 1595.9,1283.8 1627.6,1309.7 1659.3,1335.3 1691.3,1360.8 1723.6,1386.3 1756.5,1411.7 1790.0,1437.2 1824.3,1462.8 1859.7,1488.5 1896.2,1514.4 1934.2,1540.4 1973.8,1566.5 2015.2,1592.8 2058.7,1619.1 2104.6,1645.3 2153.1,1671.5 2204.4,1697.6 2258.9,1723.4 2316.9,1748.8 2378.6,1773.6 2444.4,1797.9 2514.6,1821.3  A 1064.250,1064.250 0.00 0,0 2515.9,1817.3 L 2515.9,1817.3 2445.6,1794.1 2379.7,1770.1 2317.9,1745.5 2259.8,1720.3 2205.2,1694.8 2153.8,1668.9 2105.2,1642.9 2059.2,1616.8 2015.6,1590.7 1974.0,1564.7 1934.3,1538.7 1896.3,1512.8 1859.6,1487.1 1824.2,1461.5 1789.7,1436.1 1756.1,1410.7 1723.2,1385.4 1690.8,1360.1 1658.7,1334.7 1626.9,1309.2 1595.1,1283.4 1563.4,1257.2 1531.5,1230.6 1499.4,1203.3 1467.1,1175.2 1434.4,1146.2 1401.3,1116.0 1367.8,1084.4 1333.9,1051.4 1299.4,1016.5 1264.4,979.6 1228.9,940.4 1193.0,898.6 1156.6,854.0 1119.8,806.3 1082.6,755.1 1045.1,700.1 1007.4,641.0 969.5,577.4  Z" style="stroke-width: 2.0;  stroke: rgb(82,82,82); fill: rgb(255,0,204); opacity: 0.667;" />
<path d="M 969.500,577.396 A 1064.250,1064.250 0.00 0,1 972.9,575.5 L 972.9,575.5 1010.6,639.3 1048.4,698.8 1086.2,754.5 1123.7,806.6 1160.9,855.4 1197.7,901.3 1234.1,944.5 1269.9,985.4 1305.2,1024.3 1339.8,1061.3 1373.8,1096.8 1407.1,1131.0 1439.8,1164.1 1471.9,1196.3 1503.4,1227.8 1534.3,1258.8 1564.8,1289.5 1594.8,1320.0 1624.5,1350.5 1654.0,1381.0 1683.4,1411.9 1712.8,1443.0 1742.3,1474.5 1772.2,1506.6 1802.5,1539.2 1833.5,1572.4 1865.4,1606.3 1898.3,1640.9 1932.5,1676.1 1968.3,1712.1 2005.8,1748.7 2045.4,1786.0 2087.3,1823.9 2131.8,1862.4 2179.2,1901.4 2229.9,1940.8 2284.1,1980.5 2342.3,2020.5 2404.7,2060.5  A 1064.250,1064.250 0.00 0,0 2406.7,2057.2 L 2406.7,2057.2 2344.2,2017.4 2285.9,1977.6 2231.5,1938.1 2180.7,1898.9 2133.1,1860.1 2088.5,1821.8 2046.5,1784.0 2006.7,1746.9 1969.1,1710.4 1933.2,1674.5 1898.8,1639.4 1865.8,1605.0 1833.8,1571.2 1802.6,1538.1 1772.2,1505.6 1742.2,1473.6 1712.5,1442.2 1683.0,1411.2 1653.5,1380.5 1624.0,1350.0 1594.1,1319.6 1564.0,1289.2 1533.4,1258.7 1502.4,1227.8 1470.8,1196.4 1438.6,1164.3 1405.8,1131.3 1372.3,1097.3 1338.2,1061.9 1303.4,1025.0 1268.0,986.3 1232.1,945.5 1195.5,902.4 1158.5,856.6 1121.1,807.9 1083.4,756.0 1045.5,700.5 1007.5,641.1 969.5,577.4  Z" style="stroke-width: 2.0;  stroke: rgb(82,82,82); fill: rgb(255,204,204); opacity: 0.667;" />
<path d="M 969.500,577.396 A 1064.250,1064.250 0.00 0,1 972.9,575.5 L 972.9,575.5 1010.7,639.3 1048.6,699.0 1086.5,754.9 1124.2,807.3 1161.6,856.5 1198.6,902.9 1235.2,946.8 1271.1,988.4 1306.4,1028.0 1341.0,1065.8 1374.9,1102.3 1408.1,1137.5 1440.5,1171.7 1472.2,1205.1 1503.1,1237.9 1533.4,1270.4 1563.0,1302.6 1592.0,1334.7 1620.6,1367.0 1648.8,1399.5 1676.6,1432.3 1704.4,1465.6 1732.1,1499.5 1759.9,1534.0 1788.0,1569.3 1816.6,1605.4 1845.9,1642.3 1876.0,1680.1 1907.3,1718.8 1939.9,1758.4 1974.1,1799.0 2010.2,1840.5 2048.4,1882.8 2089.1,1926.0 2132.5,1970.1 2179.1,2014.8 2229.0,2060.2 2282.8,2106.2 2340.6,2152.6  A 1064.250,1064.250 0.00 0,0 2343.0,2149.6 L 2343.0,2149.6 2285.0,2103.3 2231.1,2057.5 2180.9,2012.3 2134.3,1967.7 2090.7,1923.9 2049.8,1880.8 2011.4,1838.6 1975.2,1797.3 1940.8,1756.8 1908.1,1717.3 1876.7,1678.7 1846.4,1641.0 1817.0,1604.2 1788.3,1568.2 1760.0,1533.1 1732.1,1498.6 1704.2,1464.8 1676.4,1431.6 1648.4,1398.9 1620.1,1366.5 1591.4,1334.4 1562.3,1302.3 1532.5,1270.2 1502.1,1237.9 1471.1,1205.2 1439.3,1171.9 1406.8,1137.8 1373.5,1102.7 1339.4,1066.4 1304.7,1028.7 1269.2,989.2 1233.1,947.7 1196.4,904.0 1159.2,857.8 1121.6,808.7 1083.7,756.4 1045.7,700.7 1007.5,641.1 969.5,577.4  Z" style="stroke-width: 2.0;  stroke: rgb(82,82,82); fill: rgb(255,153,0); opacity: 0.667;" />
<path d="M 969.500,577.396 A 1064.250,1064.250 0.00 0,1 972.9,575.5 L 972.9,575.5 1008.7,640.6 1040.9,704.0 1070.0,765.6 1096.3,825.3 1120.2,883.3 1142.0,939.6 1162.0,994.1 1180.6,1047.0 1198.0,1098.3 1214.5,1148.1 1230.3,1196.3 1245.7,1243.3 1260.9,1288.9 1276.1,1333.3 1291.4,1376.6 1307.1,1418.9 1323.2,1460.4 1339.9,1501.2 1357.3,1541.3 1375.5,1581.0 1394.5,1620.4 1414.4,1659.7 1435.3,1699.0 1457.1,1738.5 1479.9,1778.4 1503.6,1818.9 1528.2,1860.3 1553.6,1902.6 1579.8,1946.1 1606.7,1991.1 1634.2,2037.8 1662.0,2086.4 1690.2,2137.3 1718.6,2190.5 1746.9,2246.5 1774.9,2305.4 1802.5,2367.7 1829.4,2433.5 1855.4,2503.2  A 1064.250,1064.250 0.00 0,0 1859.4,2501.7 L 1859.4,2501.7 1833.1,2432.2 1806.0,2366.5 1778.1,2304.3 1749.8,2245.5 1721.3,2189.6 1692.8,2136.5 1664.4,2085.8 1636.3,2037.3 1608.7,1990.7 1581.6,1945.8 1555.2,1902.3 1529.6,1860.1 1504.9,1818.9 1481.0,1778.5 1458.1,1738.6 1436.1,1699.2 1415.1,1660.0 1395.0,1620.8 1375.8,1581.5 1357.5,1541.8 1340.0,1501.8 1323.1,1461.1 1306.8,1419.7 1291.0,1377.4 1275.5,1334.1 1260.2,1289.8 1244.8,1244.2 1229.2,1197.4 1213.2,1149.1 1196.5,1099.4 1178.9,1048.2 1160.1,995.4 1139.9,940.9 1117.9,884.7 1093.8,826.8 1067.3,767.1 1038.0,705.7 1005.5,642.4 969.5,577.4  Z" style="stroke-width: 2.0;  stroke: rgb(82,82,82); fill: rgb(255,204,0); opacity: 0.667;" />
<path d="M 969.500,577.396 A 1064.250,1064.250 0.00 0,1 972.9,575.5 L 972.9,575.5 1008.7,640.6 1040.9,704.0 1070.0,765.5 1096.2,825.3 1120.1,883.2 1141.9,939.4 1161.8,994.0 1180.4,1046.8 1197.7,1098.1 1214.2,1147.8 1229.9,1196.1 1245.2,1243.0 1260.3,1288.6 1275.4,1333.0 1290.6,1376.4 1306.2,1418.7 1322.1,1460.2 1338.7,1501.0 1355.9,1541.2 1373.9,1581.0 1392.7,1620.5 1412.4,1659.8 1433.0,1699.2 1454.6,1738.9 1477.0,1778.9 1500.4,1819.6 1524.7,1861.0 1549.8,1903.5 1575.6,1947.2 1602.1,1992.4 1629.2,2039.3 1656.6,2088.1 1684.4,2139.1 1712.2,2192.6 1740.0,2248.8 1767.5,2308.0 1794.5,2370.5 1820.7,2436.5 1846.1,2506.4  A 1064.250,1064.250 0.00 0,0 1849.8,2505.1 L 1849.8,2505.1 1824.2,2435.3 1797.7,2369.4 1770.4,2307.0 1742.7,2247.9 1714.7,2191.8 1686.7,2138.5 1658.8,2087.5 1631.2,2038.8 1603.9,1992.0 1577.3,1947.0 1551.3,1903.3 1526.0,1860.9 1501.6,1819.6 1478.1,1779.0 1455.4,1739.0 1433.7,1699.5 1413.0,1660.1 1393.1,1620.9 1374.2,1581.4 1356.0,1541.7 1338.7,1501.6 1322.0,1460.9 1305.9,1419.4 1290.2,1377.1 1274.8,1333.9 1259.6,1289.5 1244.3,1243.9 1228.8,1197.1 1212.9,1148.9 1196.2,1099.2 1178.7,1048.0 1160.0,995.2 1139.8,940.8 1117.8,884.6 1093.8,826.7 1067.3,767.1 1038.0,705.7 1005.5,642.4 969.5,577.4  Z" style="stroke-width: 2.0;  stroke: rgb(82,82,82); fill: rgb(255,255,0); opacity: 0.667;" />
<path d="M 969.500,577.396 A 1064.250,1064.250 0.00 0,1 972.9,575.5 L 972.9,575.5 1008.5,640.1 1040.3,702.1 1068.6,761.6 1093.7,818.6 1115.8,873.3 1135.3,926.0 1152.3,976.6 1167.2,1025.5 1180.1,1072.6 1191.2,1118.2 1200.8,1162.4 1208.9,1205.4 1215.8,1247.2 1221.5,1288.2 1226.1,1328.3 1229.8,1367.7 1232.6,1406.7 1234.6,1445.3 1235.7,1483.6 1236.1,1521.9 1235.8,1560.3 1234.6,1598.9 1232.6,1637.9 1229.8,1677.5 1226.0,1717.7 1221.2,1758.7 1215.2,1800.7 1208.0,1843.8 1199.4,1888.2 1189.2,1934.1 1177.3,1981.5 1163.4,2030.6 1147.5,2081.6 1129.1,2134.6 1108.1,2189.8 1084.3,2247.4 1057.3,2307.4 1026.8,2370.0 992.5,2435.5  A 1064.250,1064.250 0.00 0,0 995.9,2437.3 L 995.9,2437.3 1030.0,2371.8 1060.2,2309.0 1087.0,2248.9 1110.7,2191.3 1131.4,2136.0 1149.6,2082.9 1165.4,2031.8 1179.1,1982.6 1190.8,1935.2 1200.8,1889.3 1209.3,1844.9 1216.3,1801.7 1222.1,1759.7 1226.8,1718.7 1230.4,1678.5 1233.1,1638.9 1235.0,1599.9 1236.0,1561.3 1236.2,1522.9 1235.7,1484.6 1234.4,1446.2 1232.2,1407.7 1229.3,1368.7 1225.5,1329.3 1220.7,1289.2 1214.8,1248.3 1207.8,1206.4 1199.6,1163.5 1189.8,1119.3 1178.5,1073.8 1165.5,1026.7 1150.4,977.9 1133.2,927.3 1113.5,874.8 1091.2,820.1 1065.9,763.2 1037.4,703.8 1005.4,642.0 969.5,577.4  Z" style="stroke-width: 2.0;  stroke: rgb(82,82,82); fill: rgb(204,255,0); opacity: 0.667;" />
<path d="M 1239.963,2531.993 A 1064.250,1064.250 0.00 0,1 1236.6,2531.1 L 1236.6,2531.1 1254.8,2460.2 1271.6,2394.7 1287.1,2334.3 1301.5,2278.8 1314.7,2227.9 1326.8,2181.5 1337.9,2139.2 1348.0,2101.0 1357.2,2066.6 1365.4,2035.8 1372.8,2008.6 1379.4,1984.7 1385.2,1964.2 1390.3,1946.7 1394.6,1932.4 1398.1,1921.0 1401.0,1912.6 1403.2,1907.1 1404.7,1904.5 1405.6,1904.7 1405.8,1907.7 1405.3,1913.6 1404.1,1922.4 1402.3,1934.2 1399.7,1949.0 1396.5,1966.8 1392.6,1987.8 1387.9,2012.1 1382.4,2039.8 1376.1,2071.0 1369.1,2105.9 1361.1,2144.7 1352.3,2187.4 1342.5,2234.5 1331.7,2285.9 1319.9,2342.0 1307.0,2403.0 1292.9,2469.2 1277.6,2540.8  A 1064.250,1064.250 0.00 0,0 1281.0,2541.5 L 1281.0,2541.5 1296.0,2469.8 1309.9,2403.6 1322.6,2342.6 1334.2,2286.4 1344.8,2235.0 1354.5,2187.9 1363.2,2145.1 1371.0,2106.3 1378.0,2071.4 1384.1,2040.2 1389.5,2012.5 1394.1,1988.2 1398.0,1967.1 1401.2,1949.3 1403.7,1934.5 1405.5,1922.7 1406.6,1913.9 1407.1,1908.0 1406.9,1905.0 1406.0,1904.8 1404.5,1907.4 1402.4,1912.9 1399.5,1921.4 1396.0,1932.7 1391.7,1947.1 1386.7,1964.5 1381.0,1985.1 1374.5,2009.0 1367.2,2036.2 1359.0,2067.0 1349.9,2101.5 1340.0,2139.7 1329.0,2182.0 1317.0,2228.5 1304.0,2279.4 1289.8,2335.0 1274.5,2395.4 1257.9,2461.0 1240.0,2532.0  Z" style="stroke-width: 2.0;  stroke: rgb(82,82,82); fill: rgb(0,255,0); opacity: 0.667;" />
<path d="M 1228.873,2529.135 A 1064.250,1064.250 0.00 0,1 1225.6,2528.3 L 1225.6,2528.3 1244.5,2457.5 1262.0,2392.2 1278.2,2332.0 1293.2,2276.7 1307.0,2225.9 1319.7,2179.6 1331.3,2137.5 1341.9,2099.4 1351.6,2065.1 1360.3,2034.5 1368.1,2007.4 1375.1,1983.6 1381.2,1963.1 1386.6,1945.8 1391.2,1931.5 1395.1,1920.3 1398.2,1911.9 1400.7,1906.5 1402.5,1903.9 1403.5,1904.1 1403.9,1907.2 1403.6,1913.2 1402.7,1922.1 1401.0,1933.9 1398.6,1948.7 1395.5,1966.6 1391.7,1987.6 1387.2,2011.9 1381.8,2039.6 1375.7,2070.9 1368.7,2105.8 1360.8,2144.6 1352.1,2187.4 1342.3,2234.4 1331.6,2285.9 1319.8,2342.0 1306.9,2403.0 1292.9,2469.2 1277.6,2540.8  A 1064.250,1064.250 0.00 0,0 1281.0,2541.5 L 1281.0,2541.5 1296.0,2469.8 1309.9,2403.6 1322.5,2342.6 1334.1,2286.4 1344.7,2234.9 1354.3,2187.9 1362.9,2145.0 1370.6,2106.2 1377.5,2071.3 1383.6,2040.0 1388.8,2012.3 1393.3,1988.0 1397.0,1966.9 1400.1,1949.0 1402.4,1934.2 1404.0,1922.4 1405.0,1913.5 1405.2,1907.5 1404.8,1904.4 1403.8,1904.2 1402.0,1906.8 1399.6,1912.2 1396.4,1920.6 1392.6,1931.9 1388.0,1946.2 1382.7,1963.5 1376.6,1984.0 1369.7,2007.8 1362.0,2034.9 1353.4,2065.6 1343.9,2099.9 1333.4,2138.1 1321.9,2180.2 1309.4,2226.6 1295.7,2277.3 1280.9,2332.7 1264.9,2393.0 1247.6,2458.4 1228.9,2529.1  Z" style="stroke-width: 2.0;  stroke: rgb(82,82,82); fill: rgb(53,128,0); opacity: 0.667;" />
<path d="M 1228.873,2529.135 A 1064.250,1064.250 0.00 0,1 1225.6,2528.3 L 1225.6,2528.3 1244.5,2457.5 1261.9,2392.2 1278.0,2332.0 1292.9,2276.6 1306.5,2225.8 1318.9,2179.4 1330.2,2137.2 1340.5,2099.1 1349.8,2064.7 1358.1,2033.9 1365.5,2006.7 1372.0,1982.9 1377.7,1962.3 1382.5,1944.8 1386.5,1930.4 1389.7,1919.0 1392.2,1910.5 1393.9,1904.8 1394.9,1902.1 1395.1,1902.1 1394.6,1905.0 1393.3,1910.8 1391.3,1919.4 1388.6,1930.9 1385.0,1945.5 1380.7,1963.1 1375.5,1983.8 1369.6,2007.8 1362.7,2035.1 1354.9,2066.0 1346.2,2100.5 1336.5,2138.9 1325.8,2181.2 1314.0,2227.8 1301.0,2278.7 1286.9,2334.3 1271.5,2394.7 1254.7,2460.2 1236.6,2531.1  A 1064.250,1064.250 0.00 0,0 1240.0,2532.0 L 1240.0,2532.0 1257.8,2461.0 1274.3,2395.4 1289.6,2334.9 1303.5,2279.3 1316.3,2228.4 1328.0,2181.8 1338.6,2139.4 1348.1,2101.0 1356.8,2066.5 1364.4,2035.6 1371.2,2008.2 1377.1,1984.2 1382.2,1963.4 1386.5,1945.8 1390.0,1931.3 1392.7,1919.7 1394.7,1911.1 1395.9,1905.4 1396.4,1902.5 1396.2,1902.4 1395.2,1905.2 1393.5,1910.8 1391.1,1919.3 1387.9,1930.8 1383.9,1945.2 1379.1,1962.6 1373.6,1983.3 1367.1,2007.2 1359.8,2034.4 1351.6,2065.2 1342.4,2099.6 1332.3,2137.8 1321.1,2180.0 1308.8,2226.4 1295.3,2277.2 1280.7,2332.7 1264.8,2392.9 1247.5,2458.4 1228.9,2529.1  Z" style="stroke-width: 2.0;  stroke: rgb(82,82,82); fill: rgb(0,0,204); opacity: 0.667;" />
<path d="M 2528.960,1771.788 A 1064.250,1064.250 0.00 0,1 2526.4,1781.4 L 2526.4,1781.4 2455.6,1760.9 2389.7,1740.0 2328.3,1718.5 2271.2,1696.6 2218.0,1674.4 2168.5,1651.9 2122.4,1629.1 2079.4,1606.0 2039.3,1582.7 2001.9,1559.2 1966.9,1535.5 1934.1,1511.5 1903.3,1487.2 1874.4,1462.7 1847.3,1437.8 1821.6,1412.4 1797.4,1386.7 1774.5,1360.3 1752.8,1333.3 1732.2,1305.6 1712.6,1277.1 1693.9,1247.6 1676.2,1217.0 1659.3,1185.2 1643.2,1152.0 1628.0,1117.3 1613.6,1080.9 1600.0,1042.6 1587.3,1002.3 1575.5,959.6 1564.7,914.5 1555.0,866.7 1546.3,816.0 1539.0,762.1 1532.9,704.8 1528.4,643.8 1525.4,578.9 1524.2,509.7 1525.0,436.0  A 1064.250,1064.250 0.00 0,0 1515.1,435.9 L 1515.1,435.9 1515.0,509.6 1516.8,578.7 1520.4,643.6 1525.5,704.6 1532.1,761.8 1540.0,815.6 1549.1,866.3 1559.3,914.0 1570.5,959.0 1582.7,1001.5 1595.7,1041.7 1609.7,1079.9 1624.4,1116.1 1640.0,1150.7 1656.3,1183.7 1673.5,1215.4 1691.6,1245.8 1710.5,1275.1 1730.4,1303.5 1751.3,1331.0 1773.2,1357.8 1796.4,1383.9 1820.8,1409.4 1846.7,1434.5 1874.1,1459.2 1903.2,1483.5 1934.2,1507.4 1967.2,1531.1 2002.4,1554.5 2040.1,1577.7 2080.4,1600.6 2123.6,1623.3 2169.9,1645.6 2219.6,1667.7 2273.0,1689.4 2330.3,1710.8 2391.8,1731.7 2458.0,1752.0 2529.0,1771.8  Z" style="stroke-width: 2.0;  stroke: rgb(82,82,82); fill: rgb(102,153,255); opacity: 0.667;" />
</g>
<defs>
<pattern id="hline-sparse" width="10" height="10" patternTransform="rotate(0 0 0)" patternUnits="userSpaceOnUse"><line x1="0" y1="0" x2="10" y2="0" style="stroke:black;stroke-width:2" /></pattern>
<pattern id="checker" width="10" height="10" patternTransform="rotate(45 0 0)" patternUnits="userSpaceOnUse"><line x1="0" y1="0" x2="10" y2="0" style="stroke:black;stroke-width:2" /><line x1="0" y1="0" x2="0" y2="10" style="stroke:black;stroke-width:2" /></pattern>
<pattern id="checker" width="10" height="10" patternTransform="rotate(45 0 0)" patternUnits="userSpaceOnUse"><line x1="0" y1="0" x2="10" y2="0" style="stroke:black;stroke-width:5" /><line x1="0" y1="0" x2="0" y2="10" style="stroke:black;stroke-width:4" /></pattern>
<pattern id="hline" width="10" height="10" patternTransform="rotate(0 0 0)" patternUnits="userSpaceOnUse"><line x1="0" y1="0" x2="10" y2="0" style="stroke:black;stroke-width:5" /></pattern>
<pattern id="vline-sparse" width="10" height="10" patternTransform="rotate(0 0 0)" patternUnits="userSpaceOnUse"><line x1="0" y1="0" x2="0" y2="10" style="stroke:black;stroke-width:2" /></pattern>
<pattern id="vline" width="10" height="10" patternTransform="rotate(0 0 0)" patternUnits="userSpaceOnUse"><line x1="0" y1="0" x2="0" y2="10" style="stroke:black;stroke-width:5" /></pattern>
</defs>
</svg>
