<?xml version="1.0" encoding="utf-8" standalone="no"?>
<!DOCTYPE svg PUBLIC "-//W3C//DTD SVG 1.1//EN" "http://www.w3.org/Graphics/SVG/1.1/DTD/svg11.dtd">
<svg width="3000px" height="3000px" version="1.1" xmlns="http://www.w3.org/2000/svg" xmlns:xlink="http://www.w3.org/1999/xlink">
<g id="ideograms">
<path d="M1500.000,425.000 A1075.000,1075.000 40.000 0,1 1559.186,426.631 L1561.939,376.706 A1125.000,1125.000 0.000 0,0 1500.000,375.000 Z" style="stroke-linecap:round;fill:rgb(116,196,118);fill-opacity:0.33;" />
<text x="1543.0" y="285.8" font-size="18.2px" font-family="CMUBright-Roman" style="text-anchor:start;fill:rgb(0,0,0);" transform="rotate(271.6,1543.0,285.8)" >R<tspan baseline-shift="-40%" font-size="90%">s</tspan>caffold<tspan baseline-shift="-40%" font-size="90%">3</tspan>0</text>
<line x1='1500.0' y1='375.0' x2='1500.0' y2='355.0' style="stroke-width:4.0;stroke:rgb(0,0,0);stroke-linecap:round;fill:none;" />
<text x="1506.5" y="345.0" font-size="18.2px" font-family="CMUBright-Roman" style="text-anchor:start;fill:rgb(0,0,0);" transform="rotate(270.0,1506.5,345.0)" >0</text>
<g id="highlighttrack_0">
<path d="M1513.853,425.089 A1075.000,1075.000 40.000 0,1 1517.773,425.147 L1518.599,375.154 A1125.000,1125.000 0.000 0,0 1514.497,375.093 Z" style="stroke-width:4.0;stroke:rgb(0,0,0);stroke-linecap:round;fill:rgb(251,106,74);" />
<path d="M1523.112,425.248 A1075.000,1075.000 40.000 0,1 1527.328,425.347 L1528.599,375.364 A1125.000,1125.000 0.000 0,0 1524.187,375.260 Z" style="stroke-width:4.0;stroke:rgb(0,0,0);stroke-linecap:round;fill:rgb(116,196,118);" />
</g>
<path d="M1624.513,432.235 A1075.000,1075.000 40.000 0,1 1628.399,432.696 L1634.371,383.054 A1125.000,1125.000 0.000 0,0 1630.304,382.572 Z" style="stroke-linecap:round;fill:rgb(116,196,118);fill-opacity:0.33;" />
<text x="1652.4" y="294.6" font-size="18.2px" font-family="CMUBright-Roman" style="text-anchor:start;fill:rgb(0,0,0);" transform="rotate(276.8,1652.4,294.6)" >R<tspan baseline-shift="-40%" font-size="90%">s</tspan>caffold<tspan baseline-shift="-40%" font-size="90%">3</tspan>7</text>
<line x1='1630.3' y1='382.6' x2='1632.6' y2='362.7' style="stroke-width:4.0;stroke:rgb(0,0,0);stroke-linecap:round;fill:none;" />
<text x="1640.2" y="353.5" font-size="18.2px" font-family="CMUBright-Roman" style="text-anchor:start;fill:rgb(0,0,0);" transform="rotate(276.7,1640.2,353.5)" >0</text>
<g id="highlighttrack_0">
<path d="M1624.751,432.263 A1075.000,1075.000 40.000 0,1 1628.339,432.688 L1634.308,383.046 A1125.000,1125.000 0.000 0,0 1630.553,382.601 Z" style="stroke-width:4.0;stroke:rgb(0,0,0);stroke-linecap:round;fill:rgb(116,196,118);" />
</g>
<path d="M1693.228,442.509 A1075.000,1075.000 40.000 1,1 1434.464,427.000 L1431.416,377.093 A1125.000,1125.000 0.000 1,0 1702.215,393.323 Z" style="stroke-linecap:round;fill:rgb(116,196,118);fill-opacity:0.33;" />
<text x="1436.8" y="2713.4" font-size="18.2px" font-family="CMUBright-Roman" style="text-anchor:end;fill:rgb(0,0,0);" transform="rotate(-86.6,1436.8,2713.4)" >NZ<tspan baseline-shift="-40%" font-size="90%">C</tspan>P041329.1</text>
<line x1='1702.2' y1='393.3' x2='1705.8' y2='373.6' style="stroke-width:4.0;stroke:rgb(0,0,0);stroke-linecap:round;fill:none;" />
<text x="1714.0" y="365.0" font-size="18.2px" font-family="CMUBright-Roman" style="text-anchor:start;fill:rgb(0,0,0);" transform="rotate(280.4,1714.0,365.0)" >0</text>
<line x1='1767.0' y1='407.1' x2='1771.7' y2='387.7' style="stroke-width:4.0;stroke:rgb(0,0,0);stroke-linecap:round;fill:none;" />
<text x="1780.4" y="379.6" font-size="18.2px" font-family="CMUBright-Roman" style="text-anchor:start;fill:rgb(0,0,0);" transform="rotate(283.7,1780.4,379.6)" >50</text>
<line x1='1830.9' y1='424.8' x2='1836.7' y2='405.6' style="stroke-width:4.0;stroke:rgb(0,0,0);stroke-linecap:round;fill:none;" />
<text x="1845.9" y="398.0" font-size="18.2px" font-family="CMUBright-Roman" style="text-anchor:start;fill:rgb(0,0,0);" transform="rotate(287.1,1845.9,398.0)" >100</text>
<line x1='1893.6' y1='446.1' x2='1900.6' y2='427.3' style="stroke-width:4.0;stroke:rgb(0,0,0);stroke-linecap:round;fill:none;" />
<text x="1910.1" y="420.3" font-size="18.2px" font-family="CMUBright-Roman" style="text-anchor:start;fill:rgb(0,0,0);" transform="rotate(290.5,1910.1,420.3)" >150</text>
<line x1='1954.9' y1='471.1' x2='1963.0' y2='452.8' style="stroke-width:4.0;stroke:rgb(0,0,0);stroke-linecap:round;fill:none;" />
<text x="1973.0" y="446.3" font-size="18.2px" font-family="CMUBright-Roman" style="text-anchor:start;fill:rgb(0,0,0);" transform="rotate(293.9,1973.0,446.3)" >200</text>
<line x1='2014.7' y1='499.6' x2='2023.8' y2='481.8' style="stroke-width:4.0;stroke:rgb(0,0,0);stroke-linecap:round;fill:none;" />
<text x="2034.2" y="475.9" font-size="18.2px" font-family="CMUBright-Roman" style="text-anchor:start;fill:rgb(0,0,0);" transform="rotate(297.2,2034.2,475.9)" >250</text>
<line x1='2072.7' y1='531.7' x2='2082.8' y2='514.4' style="stroke-width:4.0;stroke:rgb(0,0,0);stroke-linecap:round;fill:none;" />
<text x="2093.5" y="509.2" font-size="18.2px" font-family="CMUBright-Roman" style="text-anchor:start;fill:rgb(0,0,0);" transform="rotate(300.6,2093.5,509.2)" >300</text>
<line x1='2128.7' y1='567.0' x2='2139.8' y2='550.5' style="stroke-width:4.0;stroke:rgb(0,0,0);stroke-linecap:round;fill:none;" />
<text x="2150.8" y="545.8" font-size="18.2px" font-family="CMUBright-Roman" style="text-anchor:start;fill:rgb(0,0,0);" transform="rotate(304.0,2150.8,545.8)" >350</text>
<line x1='2182.5' y1='605.7' x2='2194.6' y2='589.8' style="stroke-width:4.0;stroke:rgb(0,0,0);stroke-linecap:round;fill:none;" />
<text x="2205.8" y="585.8" font-size="18.2px" font-family="CMUBright-Roman" style="text-anchor:start;fill:rgb(0,0,0);" transform="rotate(307.3,2205.8,585.8)" >400</text>
<line x1='2233.9' y1='647.4' x2='2247.0' y2='632.2' style="stroke-width:4.0;stroke:rgb(0,0,0);stroke-linecap:round;fill:none;" />
<text x="2258.4" y="628.9" font-size="18.2px" font-family="CMUBright-Roman" style="text-anchor:start;fill:rgb(0,0,0);" transform="rotate(310.7,2258.4,628.9)" >450</text>
<line x1='2282.8' y1='692.0' x2='2296.8' y2='677.7' style="stroke-width:4.0;stroke:rgb(0,0,0);stroke-linecap:round;fill:none;" />
<text x="2308.4" y="675.0" font-size="18.2px" font-family="CMUBright-Roman" style="text-anchor:start;fill:rgb(0,0,0);" transform="rotate(314.1,2308.4,675.0)" >500</text>
<line x1='2329.0' y1='739.5' x2='2343.8' y2='726.0' style="stroke-width:4.0;stroke:rgb(0,0,0);stroke-linecap:round;fill:none;" />
<text x="2355.5" y="724.0" font-size="18.2px" font-family="CMUBright-Roman" style="text-anchor:start;fill:rgb(0,0,0);" transform="rotate(317.5,2355.5,724.0)" >550</text>
<line x1='2372.3' y1='789.6' x2='2387.9' y2='777.0' style="stroke-width:4.0;stroke:rgb(0,0,0);stroke-linecap:round;fill:none;" />
<text x="2399.7" y="775.7" font-size="18.2px" font-family="CMUBright-Roman" style="text-anchor:start;fill:rgb(0,0,0);" transform="rotate(320.8,2399.7,775.7)" >600</text>
<line x1='2412.6' y1='842.2' x2='2428.9' y2='830.5' style="stroke-width:4.0;stroke:rgb(0,0,0);stroke-linecap:round;fill:none;" />
<text x="2440.8" y="829.9" font-size="18.2px" font-family="CMUBright-Roman" style="text-anchor:start;fill:rgb(0,0,0);" transform="rotate(324.2,2440.8,829.9)" >650</text>
<line x1='2449.8' y1='897.0' x2='2466.7' y2='886.3' style="stroke-width:4.0;stroke:rgb(0,0,0);stroke-linecap:round;fill:none;" />
<text x="2478.6" y="886.5" font-size="18.2px" font-family="CMUBright-Roman" style="text-anchor:start;fill:rgb(0,0,0);" transform="rotate(327.6,2478.6,886.5)" >700</text>
<line x1='2483.6' y1='954.0' x2='2501.1' y2='944.3' style="stroke-width:4.0;stroke:rgb(0,0,0);stroke-linecap:round;fill:none;" />
<text x="2513.0" y="945.1" font-size="18.2px" font-family="CMUBright-Roman" style="text-anchor:start;fill:rgb(0,0,0);" transform="rotate(331.0,2513.0,945.1)" >750</text>
<line x1='2514.0' y1='1012.8' x2='2532.1' y2='1004.2' style="stroke-width:4.0;stroke:rgb(0,0,0);stroke-linecap:round;fill:none;" />
<text x="2543.9" y="1005.7" font-size="18.2px" font-family="CMUBright-Roman" style="text-anchor:start;fill:rgb(0,0,0);" transform="rotate(334.3,2543.9,1005.7)" >800</text>
<line x1='2541.0' y1='1073.4' x2='2559.5' y2='1065.8' style="stroke-width:4.0;stroke:rgb(0,0,0);stroke-linecap:round;fill:none;" />
<text x="2571.2" y="1068.0" font-size="18.2px" font-family="CMUBright-Roman" style="text-anchor:start;fill:rgb(0,0,0);" transform="rotate(337.7,2571.2,1068.0)" >850</text>
<line x1='2564.3' y1='1135.4' x2='2583.2' y2='1128.9' style="stroke-width:4.0;stroke:rgb(0,0,0);stroke-linecap:round;fill:none;" />
<text x="2594.7" y="1131.8" font-size="18.2px" font-family="CMUBright-Roman" style="text-anchor:start;fill:rgb(0,0,0);" transform="rotate(341.1,2594.7,1131.8)" >900</text>
<line x1='2583.9' y1='1198.6' x2='2603.2' y2='1193.3' style="stroke-width:4.0;stroke:rgb(0,0,0);stroke-linecap:round;fill:none;" />
<text x="2614.5" y="1196.9" font-size="18.2px" font-family="CMUBright-Roman" style="text-anchor:start;fill:rgb(0,0,0);" transform="rotate(344.5,2614.5,1196.9)" >950</text>
<line x1='2599.7' y1='1262.9' x2='2619.3' y2='1258.7' style="stroke-width:4.0;stroke:rgb(0,0,0);stroke-linecap:round;fill:none;" />
<text x="2630.4" y="1263.0" font-size="18.2px" font-family="CMUBright-Roman" style="text-anchor:start;fill:rgb(0,0,0);" transform="rotate(347.8,2630.4,1263.0)" >1000</text>
<line x1='2611.8' y1='1328.1' x2='2631.6' y2='1325.0' style="stroke-width:4.0;stroke:rgb(0,0,0);stroke-linecap:round;fill:none;" />
<text x="2642.4" y="1329.9" font-size="18.2px" font-family="CMUBright-Roman" style="text-anchor:start;fill:rgb(0,0,0);" transform="rotate(351.2,2642.4,1329.9)" >1050</text>
<line x1='2620.0' y1='1393.8' x2='2639.9' y2='1391.9' style="stroke-width:4.0;stroke:rgb(0,0,0);stroke-linecap:round;fill:none;" />
<text x="2650.4" y="1397.4" font-size="18.2px" font-family="CMUBright-Roman" style="text-anchor:start;fill:rgb(0,0,0);" transform="rotate(354.6,2650.4,1397.4)" >1100</text>
<line x1='2624.3' y1='1459.9' x2='2644.3' y2='1459.2' style="stroke-width:4.0;stroke:rgb(0,0,0);stroke-linecap:round;fill:none;" />
<text x="2654.5" y="1465.3" font-size="18.2px" font-family="CMUBright-Roman" style="text-anchor:start;fill:rgb(0,0,0);" transform="rotate(358.0,2654.5,1465.3)" >1150</text>
<line x1='2624.7' y1='1526.1' x2='2644.7' y2='1526.6' style="stroke-width:4.0;stroke:rgb(0,0,0);stroke-linecap:round;fill:none;" />
<text x="2654.5" y="1533.3" font-size="18.2px" font-family="CMUBright-Roman" style="text-anchor:start;fill:rgb(0,0,0);" transform="rotate(1.3,2654.5,1533.3)" >1200</text>
<line x1='2621.2' y1='1592.3' x2='2641.1' y2='1593.9' style="stroke-width:4.0;stroke:rgb(0,0,0);stroke-linecap:round;fill:none;" />
<text x="2650.6" y="1601.2" font-size="18.2px" font-family="CMUBright-Roman" style="text-anchor:start;fill:rgb(0,0,0);" transform="rotate(4.7,2650.6,1601.2)" >1250</text>
<line x1='2613.8' y1='1658.1' x2='2633.6' y2='1660.9' style="stroke-width:4.0;stroke:rgb(0,0,0);stroke-linecap:round;fill:none;" />
<text x="2642.6" y="1668.8" font-size="18.2px" font-family="CMUBright-Roman" style="text-anchor:start;fill:rgb(0,0,0);" transform="rotate(8.1,2642.6,1668.8)" >1300</text>
<line x1='2602.6' y1='1723.4' x2='2622.2' y2='1727.4' style="stroke-width:4.0;stroke:rgb(0,0,0);stroke-linecap:round;fill:none;" />
<text x="2630.7" y="1735.7" font-size="18.2px" font-family="CMUBright-Roman" style="text-anchor:start;fill:rgb(0,0,0);" transform="rotate(11.5,2630.7,1735.7)" >1350</text>
<line x1='2587.5' y1='1787.9' x2='2606.9' y2='1793.0' style="stroke-width:4.0;stroke:rgb(0,0,0);stroke-linecap:round;fill:none;" />
<text x="2614.9" y="1801.9" font-size="18.2px" font-family="CMUBright-Roman" style="text-anchor:start;fill:rgb(0,0,0);" transform="rotate(14.8,2614.9,1801.9)" >1400</text>
<line x1='2568.7' y1='1851.4' x2='2587.7' y2='1857.7' style="stroke-width:4.0;stroke:rgb(0,0,0);stroke-linecap:round;fill:none;" />
<text x="2595.2" y="1866.9" font-size="18.2px" font-family="CMUBright-Roman" style="text-anchor:start;fill:rgb(0,0,0);" transform="rotate(18.2,2595.2,1866.9)" >1450</text>
<line x1='2546.2' y1='1913.7' x2='2564.8' y2='1921.0' style="stroke-width:4.0;stroke:rgb(0,0,0);stroke-linecap:round;fill:none;" />
<text x="2571.7" y="1930.8" font-size="18.2px" font-family="CMUBright-Roman" style="text-anchor:start;fill:rgb(0,0,0);" transform="rotate(21.6,2571.7,1930.8)" >1500</text>
<line x1='2520.0' y1='1974.5' x2='2538.1' y2='1983.0' style="stroke-width:4.0;stroke:rgb(0,0,0);stroke-linecap:round;fill:none;" />
<text x="2544.5" y="1993.1" font-size="18.2px" font-family="CMUBright-Roman" style="text-anchor:start;fill:rgb(0,0,0);" transform="rotate(24.9,2544.5,1993.1)" >1550</text>
<line x1='2490.3' y1='2033.8' x2='2507.9' y2='2043.2' style="stroke-width:4.0;stroke:rgb(0,0,0);stroke-linecap:round;fill:none;" />
<text x="2513.6" y="2053.7" font-size="18.2px" font-family="CMUBright-Roman" style="text-anchor:start;fill:rgb(0,0,0);" transform="rotate(28.3,2513.6,2053.7)" >1600</text>
<line x1='2457.2' y1='2091.1' x2='2474.2' y2='2101.6' style="stroke-width:4.0;stroke:rgb(0,0,0);stroke-linecap:round;fill:none;" />
<text x="2479.3" y="2112.4" font-size="18.2px" font-family="CMUBright-Roman" style="text-anchor:start;fill:rgb(0,0,0);" transform="rotate(31.7,2479.3,2112.4)" >1650</text>
<line x1='2420.7' y1='2146.4' x2='2437.1' y2='2157.9' style="stroke-width:4.0;stroke:rgb(0,0,0);stroke-linecap:round;fill:none;" />
<text x="2441.5" y="2169.0" font-size="18.2px" font-family="CMUBright-Roman" style="text-anchor:start;fill:rgb(0,0,0);" transform="rotate(35.1,2441.5,2169.0)" >1700</text>
<line x1='2381.1' y1='2199.5' x2='2396.8' y2='2211.9' style="stroke-width:4.0;stroke:rgb(0,0,0);stroke-linecap:round;fill:none;" />
<text x="2400.5" y="2223.2" font-size="18.2px" font-family="CMUBright-Roman" style="text-anchor:start;fill:rgb(0,0,0);" transform="rotate(38.4,2400.5,2223.2)" >1750</text>
<line x1='2338.4' y1='2250.1' x2='2353.3' y2='2263.5' style="stroke-width:4.0;stroke:rgb(0,0,0);stroke-linecap:round;fill:none;" />
<text x="2356.4" y="2275.0" font-size="18.2px" font-family="CMUBright-Roman" style="text-anchor:start;fill:rgb(0,0,0);" transform="rotate(41.8,2356.4,2275.0)" >1800</text>
<line x1='2292.8' y1='2298.2' x2='2306.9' y2='2312.4' style="stroke-width:4.0;stroke:rgb(0,0,0);stroke-linecap:round;fill:none;" />
<text x="2309.3" y="2324.0" font-size="18.2px" font-family="CMUBright-Roman" style="text-anchor:start;fill:rgb(0,0,0);" transform="rotate(45.2,2309.3,2324.0)" >1850</text>
<line x1='2244.5' y1='2343.5' x2='2257.7' y2='2358.4' style="stroke-width:4.0;stroke:rgb(0,0,0);stroke-linecap:round;fill:none;" />
<text x="2259.4" y="2370.2" font-size="18.2px" font-family="CMUBright-Roman" style="text-anchor:start;fill:rgb(0,0,0);" transform="rotate(48.6,2259.4,2370.2)" >1900</text>
<line x1='2193.5' y1='2385.8' x2='2205.9' y2='2401.6' style="stroke-width:4.0;stroke:rgb(0,0,0);stroke-linecap:round;fill:none;" />
<text x="2206.9" y="2413.4" font-size="18.2px" font-family="CMUBright-Roman" style="text-anchor:start;fill:rgb(0,0,0);" transform="rotate(51.9,2206.9,2413.4)" >1950</text>
<line x1='2140.2' y1='2425.1' x2='2151.6' y2='2441.5' style="stroke-width:4.0;stroke:rgb(0,0,0);stroke-linecap:round;fill:none;" />
<text x="2151.9" y="2453.4" font-size="18.2px" font-family="CMUBright-Roman" style="text-anchor:start;fill:rgb(0,0,0);" transform="rotate(55.3,2151.9,2453.4)" >2000</text>
<line x1='2084.6' y1='2461.2' x2='2095.0' y2='2478.2' style="stroke-width:4.0;stroke:rgb(0,0,0);stroke-linecap:round;fill:none;" />
<text x="2094.7" y="2490.2" font-size="18.2px" font-family="CMUBright-Roman" style="text-anchor:start;fill:rgb(0,0,0);" transform="rotate(58.7,2094.7,2490.2)" >2050</text>
<line x1='2027.1' y1='2493.9' x2='2036.4' y2='2511.6' style="stroke-width:4.0;stroke:rgb(0,0,0);stroke-linecap:round;fill:none;" />
<text x="2035.4" y="2523.4" font-size="18.2px" font-family="CMUBright-Roman" style="text-anchor:start;fill:rgb(0,0,0);" transform="rotate(62.1,2035.4,2523.4)" >2100</text>
<line x1='1967.6' y1='2523.2' x2='1976.0' y2='2541.4' style="stroke-width:4.0;stroke:rgb(0,0,0);stroke-linecap:round;fill:none;" />
<text x="1974.2" y="2553.2" font-size="18.2px" font-family="CMUBright-Roman" style="text-anchor:start;fill:rgb(0,0,0);" transform="rotate(65.4,1974.2,2553.2)" >2150</text>
<line x1='1906.6' y1='2548.9' x2='1913.8' y2='2567.6' style="stroke-width:4.0;stroke:rgb(0,0,0);stroke-linecap:round;fill:none;" />
<text x="1911.4" y="2579.3" font-size="18.2px" font-family="CMUBright-Roman" style="text-anchor:start;fill:rgb(0,0,0);" transform="rotate(68.8,1911.4,2579.3)" >2200</text>
<line x1='1844.2' y1='2571.1' x2='1850.3' y2='2590.1' style="stroke-width:4.0;stroke:rgb(0,0,0);stroke-linecap:round;fill:none;" />
<text x="1847.2" y="2601.6" font-size="18.2px" font-family="CMUBright-Roman" style="text-anchor:start;fill:rgb(0,0,0);" transform="rotate(72.2,1847.2,2601.6)" >2250</text>
<line x1='1780.5' y1='2589.5' x2='1785.5' y2='2608.8' style="stroke-width:4.0;stroke:rgb(0,0,0);stroke-linecap:round;fill:none;" />
<text x="1781.7" y="2620.1" font-size="18.2px" font-family="CMUBright-Roman" style="text-anchor:start;fill:rgb(0,0,0);" transform="rotate(75.6,1781.7,2620.1)" >2300</text>
<line x1='1715.9' y1='2604.1' x2='1719.8' y2='2623.7' style="stroke-width:4.0;stroke:rgb(0,0,0);stroke-linecap:round;fill:none;" />
<text x="1715.3" y="2634.8" font-size="18.2px" font-family="CMUBright-Roman" style="text-anchor:start;fill:rgb(0,0,0);" transform="rotate(78.9,1715.3,2634.8)" >2350</text>
<line x1='1650.6' y1='2614.9' x2='1653.3' y2='2634.7' style="stroke-width:4.0;stroke:rgb(0,0,0);stroke-linecap:round;fill:none;" />
<text x="1648.2" y="2645.5" font-size="18.2px" font-family="CMUBright-Roman" style="text-anchor:start;fill:rgb(0,0,0);" transform="rotate(82.3,1648.2,2645.5)" >2400</text>
<line x1='1584.7' y1='2621.8' x2='1586.2' y2='2641.7' style="stroke-width:4.0;stroke:rgb(0,0,0);stroke-linecap:round;fill:none;" />
<text x="1580.5" y="2652.2" font-size="18.2px" font-family="CMUBright-Roman" style="text-anchor:start;fill:rgb(0,0,0);" transform="rotate(85.7,1580.5,2652.2)" >2450</text>
<line x1='1518.5' y1='2624.8' x2='1518.9' y2='2644.8' style="stroke-width:4.0;stroke:rgb(0,0,0);stroke-linecap:round;fill:none;" />
<text x="1512.5" y="2654.9" font-size="18.2px" font-family="CMUBright-Roman" style="text-anchor:start;fill:rgb(0,0,0);" transform="rotate(89.1,1512.5,2654.9)" >2500</text>
<line x1='1452.3' y1='2624.0' x2='1451.5' y2='2644.0' style="stroke-width:4.0;stroke:rgb(0,0,0);stroke-linecap:round;fill:none;" />
<text x="1457.5" y="2654.2" font-size="18.2px" font-family="CMUBright-Roman" style="text-anchor:end;fill:rgb(0,0,0);" transform="rotate(-87.6,1457.5,2654.2)" >2550</text>
<line x1='1386.2' y1='2619.2' x2='1384.2' y2='2639.1' style="stroke-width:4.0;stroke:rgb(0,0,0);stroke-linecap:round;fill:none;" />
<text x="1389.7" y="2649.7" font-size="18.2px" font-family="CMUBright-Roman" style="text-anchor:end;fill:rgb(0,0,0);" transform="rotate(-84.2,1389.7,2649.7)" >2600</text>
<line x1='1320.6' y1='2610.6' x2='1317.4' y2='2630.3' style="stroke-width:4.0;stroke:rgb(0,0,0);stroke-linecap:round;fill:none;" />
<text x="1322.2" y="2641.2" font-size="18.2px" font-family="CMUBright-Roman" style="text-anchor:end;fill:rgb(0,0,0);" transform="rotate(-80.8,1322.2,2641.2)" >2650</text>
<line x1='1255.5' y1='2598.1' x2='1251.2' y2='2617.6' style="stroke-width:4.0;stroke:rgb(0,0,0);stroke-linecap:round;fill:none;" />
<text x="1255.3" y="2628.8" font-size="18.2px" font-family="CMUBright-Roman" style="text-anchor:end;fill:rgb(0,0,0);" transform="rotate(-77.4,1255.3,2628.8)" >2700</text>
<line x1='1191.3' y1='2581.8' x2='1185.8' y2='2601.1' style="stroke-width:4.0;stroke:rgb(0,0,0);stroke-linecap:round;fill:none;" />
<text x="1189.3" y="2612.4" font-size="18.2px" font-family="CMUBright-Roman" style="text-anchor:end;fill:rgb(0,0,0);" transform="rotate(-74.1,1189.3,2612.4)" >2750</text>
<line x1='1128.2' y1='2561.8' x2='1121.6' y2='2580.7' style="stroke-width:4.0;stroke:rgb(0,0,0);stroke-linecap:round;fill:none;" />
<text x="1124.4" y="2592.2" font-size="18.2px" font-family="CMUBright-Roman" style="text-anchor:end;fill:rgb(0,0,0);" transform="rotate(-70.7,1124.4,2592.2)" >2800</text>
<line x1='1066.3' y1='2538.1' x2='1058.6' y2='2556.5' style="stroke-width:4.0;stroke:rgb(0,0,0);stroke-linecap:round;fill:none;" />
<text x="1060.8" y="2568.2" font-size="18.2px" font-family="CMUBright-Roman" style="text-anchor:end;fill:rgb(0,0,0);" transform="rotate(-67.3,1060.8,2568.2)" >2850</text>
<line x1='1006.0' y1='2510.7' x2='997.2' y2='2528.7' style="stroke-width:4.0;stroke:rgb(0,0,0);stroke-linecap:round;fill:none;" />
<text x="998.7" y="2540.5" font-size="18.2px" font-family="CMUBright-Roman" style="text-anchor:end;fill:rgb(0,0,0);" transform="rotate(-64.0,998.7,2540.5)" >2900</text>
<line x1='947.4' y1='2479.9' x2='937.5' y2='2497.3' style="stroke-width:4.0;stroke:rgb(0,0,0);stroke-linecap:round;fill:none;" />
<text x="938.3" y="2509.2" font-size="18.2px" font-family="CMUBright-Roman" style="text-anchor:end;fill:rgb(0,0,0);" transform="rotate(-60.6,938.3,2509.2)" >2950</text>
<line x1='890.6' y1='2445.7' x2='879.8' y2='2462.5' style="stroke-width:4.0;stroke:rgb(0,0,0);stroke-linecap:round;fill:none;" />
<text x="879.9" y="2474.4" font-size="18.2px" font-family="CMUBright-Roman" style="text-anchor:end;fill:rgb(0,0,0);" transform="rotate(-57.2,879.9,2474.4)" >3000</text>
<line x1='836.0' y1='2408.2' x2='824.2' y2='2424.3' style="stroke-width:4.0;stroke:rgb(0,0,0);stroke-linecap:round;fill:none;" />
<text x="823.6" y="2436.2" font-size="18.2px" font-family="CMUBright-Roman" style="text-anchor:end;fill:rgb(0,0,0);" transform="rotate(-53.8,823.6,2436.2)" >3050</text>
<line x1='783.7' y1='2367.5' x2='771.0' y2='2382.9' style="stroke-width:4.0;stroke:rgb(0,0,0);stroke-linecap:round;fill:none;" />
<text x="769.7" y="2394.8" font-size="18.2px" font-family="CMUBright-Roman" style="text-anchor:end;fill:rgb(0,0,0);" transform="rotate(-50.5,769.7,2394.8)" >3100</text>
<line x1='733.9' y1='2323.9' x2='720.3' y2='2338.5' style="stroke-width:4.0;stroke:rgb(0,0,0);stroke-linecap:round;fill:none;" />
<text x="718.3" y="2350.3" font-size="18.2px" font-family="CMUBright-Roman" style="text-anchor:end;fill:rgb(0,0,0);" transform="rotate(-47.1,718.3,2350.3)" >3150</text>
<line x1='686.8' y1='2277.4' x2='672.3' y2='2291.2' style="stroke-width:4.0;stroke:rgb(0,0,0);stroke-linecap:round;fill:none;" />
<text x="669.6" y="2302.8" font-size="18.2px" font-family="CMUBright-Roman" style="text-anchor:end;fill:rgb(0,0,0);" transform="rotate(-43.7,669.6,2302.8)" >3200</text>
<line x1='642.4' y1='2228.1' x2='627.2' y2='2241.1' style="stroke-width:4.0;stroke:rgb(0,0,0);stroke-linecap:round;fill:none;" />
<text x="623.8" y="2252.5" font-size="18.2px" font-family="CMUBright-Roman" style="text-anchor:end;fill:rgb(0,0,0);" transform="rotate(-40.3,623.8,2252.5)" >3250</text>
<line x1='601.1' y1='2176.4' x2='585.1' y2='2188.4' style="stroke-width:4.0;stroke:rgb(0,0,0);stroke-linecap:round;fill:none;" />
<text x="581.0" y="2199.6" font-size="18.2px" font-family="CMUBright-Roman" style="text-anchor:end;fill:rgb(0,0,0);" transform="rotate(-37.0,581.0,2199.6)" >3300</text>
<line x1='562.8' y1='2122.3' x2='546.1' y2='2133.4' style="stroke-width:4.0;stroke:rgb(0,0,0);stroke-linecap:round;fill:none;" />
<text x="541.4" y="2144.3" font-size="18.2px" font-family="CMUBright-Roman" style="text-anchor:end;fill:rgb(0,0,0);" transform="rotate(-33.6,541.4,2144.3)" >3350</text>
<line x1='527.8' y1='2066.1' x2='510.5' y2='2076.2' style="stroke-width:4.0;stroke:rgb(0,0,0);stroke-linecap:round;fill:none;" />
<text x="505.2" y="2086.8" font-size="18.2px" font-family="CMUBright-Roman" style="text-anchor:end;fill:rgb(0,0,0);" transform="rotate(-30.2,505.2,2086.8)" >3400</text>
<line x1='496.2' y1='2007.9' x2='478.3' y2='2016.9' style="stroke-width:4.0;stroke:rgb(0,0,0);stroke-linecap:round;fill:none;" />
<text x="472.4" y="2027.2" font-size="18.2px" font-family="CMUBright-Roman" style="text-anchor:end;fill:rgb(0,0,0);" transform="rotate(-26.8,472.4,2027.2)" >3450</text>
<line x1='468.0' y1='1947.9' x2='449.7' y2='1955.9' style="stroke-width:4.0;stroke:rgb(0,0,0);stroke-linecap:round;fill:none;" />
<text x="443.1" y="1965.8" font-size="18.2px" font-family="CMUBright-Roman" style="text-anchor:end;fill:rgb(0,0,0);" transform="rotate(-23.5,443.1,1965.8)" >3500</text>
<line x1='443.5' y1='1886.4' x2='424.7' y2='1893.3' style="stroke-width:4.0;stroke:rgb(0,0,0);stroke-linecap:round;fill:none;" />
<text x="417.5" y="1902.8" font-size="18.2px" font-family="CMUBright-Roman" style="text-anchor:end;fill:rgb(0,0,0);" transform="rotate(-20.1,417.5,1902.8)" >3550</text>
<line x1='422.5' y1='1823.6' x2='403.4' y2='1829.3' style="stroke-width:4.0;stroke:rgb(0,0,0);stroke-linecap:round;fill:none;" />
<text x="395.7" y="1838.4" font-size="18.2px" font-family="CMUBright-Roman" style="text-anchor:end;fill:rgb(0,0,0);" transform="rotate(-16.7,395.7,1838.4)" >3600</text>
<line x1='405.4' y1='1759.6' x2='385.9' y2='1764.2' style="stroke-width:4.0;stroke:rgb(0,0,0);stroke-linecap:round;fill:none;" />
<text x="377.7" y="1772.8" font-size="18.2px" font-family="CMUBright-Roman" style="text-anchor:end;fill:rgb(0,0,0);" transform="rotate(-13.3,377.7,1772.8)" >3650</text>
<line x1='392.0' y1='1694.7' x2='372.3' y2='1698.2' style="stroke-width:4.0;stroke:rgb(0,0,0);stroke-linecap:round;fill:none;" />
<text x="363.6" y="1706.3" font-size="18.2px" font-family="CMUBright-Roman" style="text-anchor:end;fill:rgb(0,0,0);" transform="rotate(-10.0,363.6,1706.3)" >3700</text>
<line x1='382.4' y1='1629.2' x2='362.6' y2='1631.5' style="stroke-width:4.0;stroke:rgb(0,0,0);stroke-linecap:round;fill:none;" />
<text x="353.4" y="1639.1" font-size="18.2px" font-family="CMUBright-Roman" style="text-anchor:end;fill:rgb(0,0,0);" transform="rotate(-6.6,353.4,1639.1)" >3750</text>
<line x1='376.8' y1='1563.2' x2='356.8' y2='1564.3' style="stroke-width:4.0;stroke:rgb(0,0,0);stroke-linecap:round;fill:none;" />
<text x="347.2" y="1571.4" font-size="18.2px" font-family="CMUBright-Roman" style="text-anchor:end;fill:rgb(0,0,0);" transform="rotate(-3.2,347.2,1571.4)" >3800</text>
<line x1='375.0' y1='1497.0' x2='355.0' y2='1496.9' style="stroke-width:4.0;stroke:rgb(0,0,0);stroke-linecap:round;fill:none;" />
<text x="345.0" y="1503.4" font-size="18.2px" font-family="CMUBright-Roman" style="text-anchor:end;fill:rgb(0,0,0);" transform="rotate(0.2,345.0,1503.4)" >3850</text>
<line x1='377.1' y1='1430.8' x2='357.2' y2='1429.5' style="stroke-width:4.0;stroke:rgb(0,0,0);stroke-linecap:round;fill:none;" />
<text x="346.8" y="1435.4" font-size="18.2px" font-family="CMUBright-Roman" style="text-anchor:end;fill:rgb(0,0,0);" transform="rotate(3.5,346.8,1435.4)" >3900</text>
<line x1='383.2' y1='1364.8' x2='363.3' y2='1362.4' style="stroke-width:4.0;stroke:rgb(0,0,0);stroke-linecap:round;fill:none;" />
<text x="352.6" y="1367.7" font-size="18.2px" font-family="CMUBright-Roman" style="text-anchor:end;fill:rgb(0,0,0);" transform="rotate(6.9,352.6,1367.7)" >3950</text>
<line x1='393.0' y1='1299.3' x2='373.4' y2='1295.7' style="stroke-width:4.0;stroke:rgb(0,0,0);stroke-linecap:round;fill:none;" />
<text x="362.4" y="1300.4" font-size="18.2px" font-family="CMUBright-Roman" style="text-anchor:end;fill:rgb(0,0,0);" transform="rotate(10.3,362.4,1300.4)" >4000</text>
<line x1='406.8' y1='1234.5' x2='387.3' y2='1229.8' style="stroke-width:4.0;stroke:rgb(0,0,0);stroke-linecap:round;fill:none;" />
<text x="376.1" y="1233.7" font-size="18.2px" font-family="CMUBright-Roman" style="text-anchor:end;fill:rgb(0,0,0);" transform="rotate(13.7,376.1,1233.7)" >4050</text>
<line x1='424.3' y1='1170.6' x2='405.2' y2='1164.8' style="stroke-width:4.0;stroke:rgb(0,0,0);stroke-linecap:round;fill:none;" />
<text x="393.7" y="1168.1" font-size="18.2px" font-family="CMUBright-Roman" style="text-anchor:end;fill:rgb(0,0,0);" transform="rotate(17.0,393.7,1168.1)" >4100</text>
<line x1='445.5' y1='1107.9' x2='426.8' y2='1100.9' style="stroke-width:4.0;stroke:rgb(0,0,0);stroke-linecap:round;fill:none;" />
<text x="415.2" y="1103.5" font-size="18.2px" font-family="CMUBright-Roman" style="text-anchor:end;fill:rgb(0,0,0);" transform="rotate(20.4,415.2,1103.5)" >4150</text>
<line x1='470.5' y1='1046.5' x2='452.1' y2='1038.4' style="stroke-width:4.0;stroke:rgb(0,0,0);stroke-linecap:round;fill:none;" />
<text x="440.4" y="1040.4" font-size="18.2px" font-family="CMUBright-Roman" style="text-anchor:end;fill:rgb(0,0,0);" transform="rotate(23.8,440.4,1040.4)" >4200</text>
<line x1='498.9' y1='986.7' x2='481.1' y2='977.6' style="stroke-width:4.0;stroke:rgb(0,0,0);stroke-linecap:round;fill:none;" />
<text x="469.3" y="978.8" font-size="18.2px" font-family="CMUBright-Roman" style="text-anchor:end;fill:rgb(0,0,0);" transform="rotate(27.1,469.3,978.8)" >4250</text>
<line x1='530.9' y1='928.7' x2='513.6' y2='918.5' style="stroke-width:4.0;stroke:rgb(0,0,0);stroke-linecap:round;fill:none;" />
<text x="501.7" y="919.0" font-size="18.2px" font-family="CMUBright-Roman" style="text-anchor:end;fill:rgb(0,0,0);" transform="rotate(30.5,501.7,919.0)" >4300</text>
<line x1='566.2' y1='872.6' x2='549.6' y2='861.5' style="stroke-width:4.0;stroke:rgb(0,0,0);stroke-linecap:round;fill:none;" />
<text x="537.7" y="861.3" font-size="18.2px" font-family="CMUBright-Roman" style="text-anchor:end;fill:rgb(0,0,0);" transform="rotate(33.9,537.7,861.3)" >4350</text>
<line x1='604.7' y1='818.8' x2='588.8' y2='806.6' style="stroke-width:4.0;stroke:rgb(0,0,0);stroke-linecap:round;fill:none;" />
<text x="576.9" y="805.8" font-size="18.2px" font-family="CMUBright-Roman" style="text-anchor:end;fill:rgb(0,0,0);" transform="rotate(37.3,576.9,805.8)" >4400</text>
<line x1='646.4' y1='767.2' x2='631.2' y2='754.2' style="stroke-width:4.0;stroke:rgb(0,0,0);stroke-linecap:round;fill:none;" />
<text x="619.4" y="752.6" font-size="18.2px" font-family="CMUBright-Roman" style="text-anchor:end;fill:rgb(0,0,0);" transform="rotate(40.6,619.4,752.6)" >4450</text>
<line x1='691.0' y1='718.3' x2='676.6' y2='704.4' style="stroke-width:4.0;stroke:rgb(0,0,0);stroke-linecap:round;fill:none;" />
<text x="664.9" y="702.1" font-size="18.2px" font-family="CMUBright-Roman" style="text-anchor:end;fill:rgb(0,0,0);" transform="rotate(44.0,664.9,702.1)" >4500</text>
<line x1='738.4' y1='672.0' x2='724.8' y2='657.3' style="stroke-width:4.0;stroke:rgb(0,0,0);stroke-linecap:round;fill:none;" />
<text x="713.3" y="654.4" font-size="18.2px" font-family="CMUBright-Roman" style="text-anchor:end;fill:rgb(0,0,0);" transform="rotate(47.4,713.3,654.4)" >4550</text>
<line x1='788.4' y1='628.6' x2='775.8' y2='613.1' style="stroke-width:4.0;stroke:rgb(0,0,0);stroke-linecap:round;fill:none;" />
<text x="764.4" y="609.5" font-size="18.2px" font-family="CMUBright-Roman" style="text-anchor:end;fill:rgb(0,0,0);" transform="rotate(50.8,764.4,609.5)" >4600</text>
<line x1='840.9' y1='588.3' x2='829.2' y2='572.1' style="stroke-width:4.0;stroke:rgb(0,0,0);stroke-linecap:round;fill:none;" />
<text x="818.1" y="567.8" font-size="18.2px" font-family="CMUBright-Roman" style="text-anchor:end;fill:rgb(0,0,0);" transform="rotate(54.1,818.1,567.8)" >4650</text>
<line x1='895.7' y1='551.1' x2='885.0' y2='534.2' style="stroke-width:4.0;stroke:rgb(0,0,0);stroke-linecap:round;fill:none;" />
<text x="874.2" y="529.3" font-size="18.2px" font-family="CMUBright-Roman" style="text-anchor:end;fill:rgb(0,0,0);" transform="rotate(57.5,874.2,529.3)" >4700</text>
<line x1='952.6' y1='517.1' x2='942.9' y2='499.7' style="stroke-width:4.0;stroke:rgb(0,0,0);stroke-linecap:round;fill:none;" />
<text x="932.4" y="494.1" font-size="18.2px" font-family="CMUBright-Roman" style="text-anchor:end;fill:rgb(0,0,0);" transform="rotate(60.9,932.4,494.1)" >4750</text>
<line x1='1011.4' y1='486.6' x2='1002.8' y2='468.6' style="stroke-width:4.0;stroke:rgb(0,0,0);stroke-linecap:round;fill:none;" />
<text x="992.6" y="462.4" font-size="18.2px" font-family="CMUBright-Roman" style="text-anchor:end;fill:rgb(0,0,0);" transform="rotate(64.3,992.6,462.4)" >4800</text>
<line x1='1071.9' y1='459.6' x2='1064.3' y2='441.1' style="stroke-width:4.0;stroke:rgb(0,0,0);stroke-linecap:round;fill:none;" />
<text x="1054.5" y="434.4" font-size="18.2px" font-family="CMUBright-Roman" style="text-anchor:end;fill:rgb(0,0,0);" transform="rotate(67.6,1054.5,434.4)" >4850</text>
<line x1='1133.9' y1='436.2' x2='1127.4' y2='417.3' style="stroke-width:4.0;stroke:rgb(0,0,0);stroke-linecap:round;fill:none;" />
<text x="1118.0" y="410.0" font-size="18.2px" font-family="CMUBright-Roman" style="text-anchor:end;fill:rgb(0,0,0);" transform="rotate(71.0,1118.0,410.0)" >4900</text>
<line x1='1197.1' y1='416.5' x2='1191.8' y2='397.3' style="stroke-width:4.0;stroke:rgb(0,0,0);stroke-linecap:round;fill:none;" />
<text x="1182.8" y="389.4" font-size="18.2px" font-family="CMUBright-Roman" style="text-anchor:end;fill:rgb(0,0,0);" transform="rotate(74.4,1182.8,389.4)" >4950</text>
<line x1='1261.4' y1='400.6' x2='1257.2' y2='381.0' style="stroke-width:4.0;stroke:rgb(0,0,0);stroke-linecap:round;fill:none;" />
<text x="1248.7" y="372.7" font-size="18.2px" font-family="CMUBright-Roman" style="text-anchor:end;fill:rgb(0,0,0);" transform="rotate(77.8,1248.7,372.7)" >5000</text>
<line x1='1326.5' y1='388.5' x2='1323.5' y2='368.7' style="stroke-width:4.0;stroke:rgb(0,0,0);stroke-linecap:round;fill:none;" />
<text x="1315.5" y="359.8" font-size="18.2px" font-family="CMUBright-Roman" style="text-anchor:end;fill:rgb(0,0,0);" transform="rotate(81.1,1315.5,359.8)" >5050</text>
<line x1='1392.3' y1='380.2' x2='1390.4' y2='360.3' style="stroke-width:4.0;stroke:rgb(0,0,0);stroke-linecap:round;fill:none;" />
<text x="1382.9" y="350.9" font-size="18.2px" font-family="CMUBright-Roman" style="text-anchor:end;fill:rgb(0,0,0);" transform="rotate(84.5,1382.9,350.9)" >5100</text>
<g id="highlighttrack_0">
<path d="M1748.704,454.165 A1075.000,1075.000 40.000 0,1 1752.182,454.998 L1763.911,406.393 A1125.000,1125.000 0.000 0,0 1760.271,405.521 Z" style="stroke-width:4.0;stroke:rgb(0,0,0);stroke-linecap:round;fill:rgb(116,196,118);" />
<path d="M1988.970,542.642 A1075.000,1075.000 40.000 0,1 1992.185,544.291 L2015.077,499.840 A1125.000,1125.000 0.000 0,0 2011.712,498.114 Z" style="stroke-width:4.0;stroke:rgb(0,0,0);stroke-linecap:round;fill:rgb(116,196,118);" />
<path d="M2046.363,574.197 A1075.000,1075.000 40.000 0,1 2049.472,576.038 L2075.029,533.063 A1125.000,1125.000 0.000 0,0 2071.776,531.136 Z" style="stroke-width:4.0;stroke:rgb(0,0,0);stroke-linecap:round;fill:rgb(116,196,118);" />
<path d="M2177.783,2334.407 A1075.000,1075.000 40.000 0,1 2175.149,2336.540 L2206.552,2375.448 A1125.000,1125.000 0.000 0,0 2209.308,2373.216 Z" style="stroke-width:4.0;stroke:rgb(0,0,0);stroke-linecap:round;fill:rgb(116,196,118);" />
<path d="M450.422,1732.401 A1075.000,1075.000 40.000 0,1 449.646,1728.872 L400.793,1739.517 A1125.000,1125.000 0.000 0,0 401.604,1743.210 Z" style="stroke-width:4.0;stroke:rgb(0,0,0);stroke-linecap:round;fill:rgb(251,106,74);" />
<path d="M804.577,680.236 A1075.000,1075.000 40.000 0,1 807.337,677.904 L775.120,639.666 A1125.000,1125.000 0.000 0,0 772.232,642.108 Z" style="stroke-width:4.0;stroke:rgb(0,0,0);stroke-linecap:round;fill:rgb(251,106,74);" />
<path d="M812.925,673.228 A1075.000,1075.000 40.000 0,1 815.708,670.923 L783.880,632.361 A1125.000,1125.000 0.000 0,0 780.968,634.773 Z" style="stroke-width:4.0;stroke:rgb(0,0,0);stroke-linecap:round;fill:rgb(251,106,74);" />
<path d="M1303.219,443.164 A1075.000,1075.000 40.000 0,1 1306.773,442.509 L1297.785,393.323 A1125.000,1125.000 0.000 0,0 1294.066,394.009 Z" style="stroke-width:4.0;stroke:rgb(0,0,0);stroke-linecap:round;fill:rgb(251,106,74);" />
<path d="M2029.135,564.243 A1075.000,1075.000 40.000 0,1 2032.551,566.183 L2057.321,522.749 A1125.000,1125.000 0.000 0,0 2053.745,520.719 Z" style="stroke-width:4.0;stroke:rgb(0,0,0);stroke-linecap:round;fill:rgb(116,196,118);" />
<path d="M1096.998,503.398 A1075.000,1075.000 40.000 0,1 1099.678,502.319 L1081.059,455.915 A1125.000,1125.000 0.000 0,0 1078.254,457.045 Z" style="stroke-width:4.0;stroke:rgb(0,0,0);stroke-linecap:round;fill:rgb(116,196,118);" />
<path d="M1103.492,500.797 A1075.000,1075.000 40.000 0,1 1106.179,499.735 L1087.862,453.211 A1125.000,1125.000 0.000 0,0 1085.050,454.323 Z" style="stroke-width:4.0;stroke:rgb(0,0,0);stroke-linecap:round;fill:rgb(116,196,118);" />
<path d="M2020.800,559.578 A1075.000,1075.000 40.000 0,1 2024.484,561.628 L2048.878,517.983 A1125.000,1125.000 0.000 0,0 2045.023,515.838 Z" style="stroke-width:4.0;stroke:rgb(0,0,0);stroke-linecap:round;fill:rgb(251,106,74);" />
</g>
</g>
<g id="track_0">
<path d="M 1746.217,464.623 A 1064.250,1064.250 0.00 0,1 1749.7,465.4 L 1749.7,465.4 1732.4,536.6 1716.3,602.3 1701.4,662.8 1687.4,718.5 1674.5,769.4 1662.5,816.0 1651.5,858.3 1641.2,896.5 1631.8,930.9 1623.2,961.7 1615.3,988.8 1608.1,1012.6 1601.5,1033.1 1595.6,1050.4 1590.3,1064.6 1585.6,1075.8 1581.5,1084.0 1577.9,1089.3 1574.9,1091.7 1572.3,1091.3 1570.3,1087.9 1568.8,1081.7 1567.8,1072.6 1567.3,1060.4 1567.3,1045.3 1567.8,1027.0 1568.8,1005.5 1570.4,980.7 1572.4,952.5 1575.0,920.7 1578.2,885.2 1582.0,845.8 1586.4,802.3 1591.4,754.5 1597.1,702.2 1603.4,645.2 1610.5,583.2 1618.4,516.0 1627.1,443.4  A 1064.250,1064.250 0.00 0,0 1623.5,442.9 L 1623.5,442.9 1615.1,515.7 1607.4,582.9 1600.6,644.9 1594.4,701.9 1588.9,754.2 1584.0,802.0 1579.8,845.5 1576.2,884.9 1573.1,920.5 1570.6,952.3 1568.6,980.5 1567.2,1005.3 1566.2,1026.8 1565.8,1045.1 1565.8,1060.2 1566.4,1072.3 1567.4,1081.5 1568.9,1087.7 1571.0,1091.0 1573.5,1091.5 1576.5,1089.0 1580.1,1083.7 1584.2,1075.5 1588.9,1064.3 1594.1,1050.1 1600.0,1032.7 1606.4,1012.2 1613.6,988.5 1621.4,961.3 1629.9,930.5 1639.2,896.1 1649.3,857.8 1660.3,815.4 1672.1,768.9 1684.8,717.9 1698.6,662.2 1713.4,601.6 1729.2,535.8 1746.2,464.6  Z" style="stroke-width: 2.0;  stroke: rgb(82,82,82); fill: rgb(251,106,74); opacity: 0.667;" />
<path d="M 1984.080,552.216 A 1064.250,1064.250 0.00 0,1 1987.3,553.8 L 1987.3,553.8 1953.5,618.8 1922.0,678.7 1892.4,733.8 1864.8,784.2 1839.0,830.3 1815.0,872.2 1792.6,910.1 1771.7,944.3 1752.3,974.9 1734.3,1002.0 1717.7,1025.7 1702.2,1046.3 1688.0,1063.8 1674.8,1078.3 1662.8,1089.9 1651.7,1098.7 1641.6,1104.6 1632.5,1107.8 1624.2,1108.3 1616.8,1106.0 1610.2,1101.0 1604.4,1093.2 1599.4,1082.6 1595.2,1069.2 1591.7,1052.8 1588.9,1033.4 1586.9,1011.0 1585.7,985.3 1585.2,956.2 1585.5,923.7 1586.6,887.5 1588.5,847.5 1591.2,803.6 1594.8,755.4 1599.3,702.8 1604.7,645.5 1611.1,583.4 1618.5,516.1 1627.1,443.4  A 1064.250,1064.250 0.00 0,0 1623.5,442.9 L 1623.5,442.9 1615.2,515.7 1608.0,583.0 1601.8,645.2 1596.6,702.4 1592.3,755.1 1588.9,803.3 1586.3,847.2 1584.5,887.2 1583.6,923.4 1583.4,955.9 1584.0,985.0 1585.3,1010.7 1587.4,1033.1 1590.2,1052.5 1593.7,1068.9 1598.0,1082.3 1603.0,1092.9 1608.9,1100.6 1615.5,1105.6 1622.9,1107.9 1631.2,1107.4 1640.3,1104.1 1650.4,1098.2 1661.4,1089.4 1673.4,1077.7 1686.5,1063.2 1700.7,1045.6 1716.1,1025.0 1732.7,1001.2 1750.6,974.0 1769.9,943.4 1790.6,909.2 1812.9,871.1 1836.8,829.2 1862.4,783.0 1889.9,732.5 1919.2,677.3 1950.6,617.3 1984.1,552.2  Z" style="stroke-width: 2.0;  stroke: rgb(82,82,82); fill: rgb(116,196,118); opacity: 0.667;" />
<path d="M 1984.080,552.216 A 1064.250,1064.250 0.00 0,1 1987.3,553.8 L 1987.3,553.8 1953.6,618.9 1922.2,678.8 1893.0,734.0 1865.9,784.6 1840.7,830.8 1817.3,872.9 1795.7,911.1 1775.8,945.5 1757.5,976.3 1740.6,1003.7 1725.2,1027.8 1711.2,1048.7 1698.5,1066.5 1687.0,1081.4 1676.7,1093.4 1667.5,1102.5 1659.5,1108.9 1652.5,1112.5 1646.6,1113.4 1641.7,1111.6 1637.8,1107.0 1634.9,1099.7 1633.0,1089.7 1632.1,1076.8 1632.1,1061.0 1633.1,1042.2 1635.1,1020.4 1638.2,995.4 1642.3,967.1 1647.4,935.4 1653.7,900.1 1661.1,861.0 1669.7,818.0 1679.6,770.9 1690.7,719.4 1703.2,663.4 1717.2,602.5 1732.6,536.6 1749.7,465.4  A 1064.250,1064.250 0.00 0,0 1746.2,464.6 L 1746.2,464.6 1729.4,535.9 1714.2,601.8 1700.5,662.7 1688.1,718.8 1677.1,770.3 1667.4,817.4 1659.0,860.5 1651.7,899.6 1645.5,934.9 1640.5,966.6 1636.5,995.0 1633.5,1020.0 1631.6,1041.8 1630.6,1060.6 1630.7,1076.3 1631.6,1089.2 1633.6,1099.3 1636.5,1106.6 1640.4,1111.1 1645.3,1112.9 1651.2,1112.0 1658.2,1108.3 1666.2,1102.0 1675.3,1092.8 1685.6,1080.8 1697.0,1065.9 1709.7,1048.0 1723.6,1027.0 1739.0,1002.9 1755.7,975.5 1774.0,944.6 1793.8,910.1 1815.2,871.9 1838.4,829.7 1863.5,783.3 1890.5,732.7 1919.5,677.4 1950.6,617.3 1984.1,552.2  Z" style="stroke-width: 2.0;  stroke: rgb(82,82,82); fill: rgb(107,174,214); opacity: 0.667;" />
<path d="M 2040.900,583.455 A 1064.250,1064.250 0.00 0,1 2044.0,585.3 L 2044.0,585.3 2006.3,648.1 1971.1,705.9 1938.0,759.0 1907.2,807.6 1878.3,851.9 1851.4,892.2 1826.3,928.6 1802.9,961.3 1781.2,990.4 1761.0,1016.2 1742.2,1038.8 1724.8,1058.2 1708.7,1074.7 1693.9,1088.2 1680.2,1098.9 1667.7,1106.7 1656.2,1111.9 1645.7,1114.3 1636.2,1114.1 1627.6,1111.2 1619.9,1105.5 1613.1,1097.2 1607.1,1086.1 1601.9,1072.2 1597.6,1055.4 1594.1,1035.7 1591.4,1012.8 1589.5,986.8 1588.4,957.5 1588.1,924.7 1588.6,888.3 1590.1,848.1 1592.4,804.0 1595.6,755.7 1599.8,703.0 1605.0,645.6 1611.2,583.4 1618.6,516.1 1627.1,443.4  A 1064.250,1064.250 0.00 0,0 1623.5,442.9 L 1623.5,442.9 1615.3,515.7 1608.2,583.1 1602.1,645.3 1597.1,702.6 1593.1,755.4 1590.0,803.7 1587.9,847.8 1586.6,888.0 1586.2,924.4 1586.5,957.2 1587.7,986.5 1589.7,1012.5 1592.5,1035.3 1596.1,1055.1 1600.5,1071.9 1605.7,1085.8 1611.7,1096.8 1618.6,1105.1 1626.3,1110.7 1634.9,1113.6 1644.4,1113.8 1654.9,1111.4 1666.3,1106.2 1678.9,1098.3 1692.5,1087.5 1707.3,1074.0 1723.3,1057.5 1740.7,1038.0 1759.3,1015.4 1779.5,989.5 1801.1,960.3 1824.4,927.5 1849.4,891.0 1876.2,850.6 1904.9,806.2 1935.6,757.5 1968.4,704.3 2003.5,646.4 2040.9,583.5  Z" style="stroke-width: 2.0;  stroke: rgb(82,82,82); fill: rgb(253,141,60); opacity: 0.667;" />
<path d="M 2040.900,583.455 A 1064.250,1064.250 0.00 0,1 2044.0,585.3 L 2044.0,585.3 2006.4,648.1 1971.3,706.0 1938.6,759.2 1908.2,808.0 1880.0,852.5 1853.7,892.9 1829.5,929.6 1807.0,962.5 1786.3,992.0 1767.2,1018.1 1749.7,1041.0 1733.7,1060.8 1719.2,1077.6 1706.0,1091.4 1694.0,1102.5 1683.4,1110.8 1673.9,1116.3 1665.7,1119.2 1658.5,1119.4 1652.4,1116.9 1647.4,1111.8 1643.5,1103.9 1640.6,1093.4 1638.8,1080.0 1638.0,1063.8 1638.2,1044.6 1639.5,1022.4 1641.9,997.1 1645.4,968.5 1650.0,936.5 1655.7,901.0 1662.7,861.7 1670.9,818.5 1680.4,771.2 1691.3,719.6 1703.5,663.5 1717.3,602.6 1732.7,536.7 1749.7,465.4  A 1064.250,1064.250 0.00 0,0 1746.2,464.6 L 1746.2,464.6 1729.5,535.9 1714.3,601.9 1700.8,662.8 1688.7,719.0 1678.0,770.6 1668.6,817.9 1660.6,861.1 1653.7,900.4 1648.1,936.0 1643.6,968.0 1640.2,996.6 1637.9,1022.0 1636.7,1044.2 1636.5,1063.3 1637.4,1079.5 1639.3,1092.9 1642.2,1103.5 1646.2,1111.3 1651.2,1116.4 1657.2,1118.9 1664.4,1118.6 1672.7,1115.7 1682.1,1110.2 1692.7,1101.8 1704.6,1090.8 1717.7,1076.8 1732.3,1060.0 1748.2,1040.2 1765.6,1017.2 1784.6,991.0 1805.2,961.5 1827.5,928.5 1851.7,891.8 1877.8,851.2 1905.9,806.6 1936.2,757.7 1968.7,704.4 2003.5,646.4 2040.9,583.5  Z" style="stroke-width: 2.0;  stroke: rgb(82,82,82); fill: rgb(255,0,0); opacity: 0.667;" />
<path d="M 2040.900,583.455 A 1064.250,1064.250 0.00 0,1 2044.0,585.3 L 2044.0,585.3 2006.5,648.2 1971.9,706.3 1939.8,759.8 1910.3,808.9 1883.2,853.9 1858.3,895.0 1835.6,932.3 1814.9,966.1 1796.2,996.4 1779.4,1023.5 1764.4,1047.4 1751.1,1068.3 1739.5,1086.2 1729.5,1101.4 1721.0,1113.8 1714.0,1123.5 1708.6,1130.5 1704.5,1135.0 1702.0,1136.9 1700.8,1136.3 1701.0,1133.1 1702.7,1127.3 1705.8,1118.9 1710.4,1107.9 1716.4,1094.1 1723.9,1077.6 1733.0,1058.2 1743.6,1035.9 1755.9,1010.5 1770.0,981.9 1785.8,949.9 1803.4,914.5 1823.1,875.5 1844.7,832.6 1868.5,785.7 1894.5,734.7 1922.9,679.1 1953.8,618.9 1987.3,553.8  A 1064.250,1064.250 0.00 0,0 1984.1,552.2 L 1984.1,552.2 1950.8,617.4 1920.2,677.7 1891.9,733.3 1866.1,784.5 1842.5,831.5 1821.0,874.4 1801.5,913.5 1783.9,949.0 1768.2,980.9 1754.3,1009.6 1742.1,1035.0 1731.5,1057.4 1722.5,1076.8 1715.0,1093.4 1709.0,1107.2 1704.5,1118.2 1701.5,1126.6 1699.8,1132.4 1699.6,1135.6 1700.7,1136.3 1703.3,1134.3 1707.3,1129.9 1712.8,1122.8 1719.7,1113.0 1728.1,1100.6 1738.1,1085.4 1749.7,1067.4 1762.9,1046.5 1777.8,1022.5 1794.5,995.4 1813.1,965.0 1833.7,931.2 1856.3,893.8 1881.0,852.6 1908.0,807.5 1937.3,758.3 1969.2,704.7 2003.7,646.5 2040.9,583.5  Z" style="stroke-width: 2.0;  stroke: rgb(82,82,82); fill: rgb(255,0,204); opacity: 0.667;" />
<path d="M 2171.006,2326.063 A 1064.250,1064.250 0.00 0,1 2168.4,2328.2 L 2168.4,2328.2 2122.8,2269.9 2081.4,2213.4 2043.7,2158.7 2009.5,2105.7 1978.5,2054.3 1950.2,2004.5 1924.5,1956.1 1901.0,1909.2 1879.5,1863.5 1859.8,1819.0 1841.7,1775.6 1824.9,1733.2 1809.3,1691.7 1794.6,1650.9 1780.8,1610.9 1767.8,1571.3 1755.3,1532.1 1743.4,1493.2 1731.8,1454.4 1720.7,1415.6 1709.9,1376.6 1699.3,1337.3 1689.1,1297.5 1679.2,1257.0 1669.6,1215.7 1660.4,1173.4 1651.6,1129.9 1643.4,1085.1 1635.7,1038.7 1628.8,990.5 1622.8,940.4 1617.7,888.1 1613.9,833.5 1611.4,776.2 1610.4,716.2 1611.3,653.1 1614.2,586.8 1619.3,516.9 1627.1,443.4  A 1064.250,1064.250 0.00 0,0 1623.5,442.9 L 1623.5,442.9 1616.0,516.5 1611.1,586.4 1608.5,652.8 1607.8,715.8 1608.9,775.9 1611.6,833.1 1615.7,887.7 1620.9,940.0 1627.1,990.1 1634.2,1038.2 1642.0,1084.6 1650.4,1129.4 1659.3,1172.9 1668.7,1215.2 1678.4,1256.4 1688.4,1296.9 1698.8,1336.7 1709.4,1375.9 1720.4,1414.9 1731.7,1453.7 1743.3,1492.4 1755.4,1531.3 1768.0,1570.4 1781.2,1610.0 1795.1,1650.0 1809.9,1690.7 1825.6,1732.2 1842.6,1774.5 1860.8,1817.8 1880.7,1862.3 1902.3,1907.9 1925.9,1954.8 1951.8,2003.1 1980.2,2052.8 2011.4,2104.1 2045.8,2157.0 2083.6,2211.6 2125.2,2267.9 2171.0,2326.1  Z" style="stroke-width: 2.0;  stroke: rgb(82,82,82); fill: rgb(255,204,204); opacity: 0.667;" />
<path d="M 2171.006,2326.063 A 1064.250,1064.250 0.00 0,1 2168.4,2328.2 L 2168.4,2328.2 2122.8,2270.0 2081.5,2213.7 2043.9,2159.3 2009.9,2106.7 1979.1,2055.8 1951.2,2006.5 1925.9,1958.7 1903.0,1912.3 1882.2,1867.2 1863.3,1823.4 1846.0,1780.7 1830.3,1738.9 1815.8,1698.0 1802.6,1657.9 1790.3,1618.4 1778.9,1579.4 1768.4,1540.8 1758.5,1502.4 1749.3,1464.1 1740.7,1425.7 1732.6,1387.2 1725.1,1348.3 1718.1,1308.8 1711.7,1268.7 1705.9,1227.8 1700.7,1185.8 1696.2,1142.7 1692.6,1098.3 1689.9,1052.2 1688.2,1004.5 1687.8,954.9 1688.6,903.2 1691.0,849.2 1695.2,792.6 1701.2,733.4 1709.5,671.3 1720.1,606.1 1733.4,537.6 1749.7,465.4  A 1064.250,1064.250 0.00 0,0 1746.2,464.6 L 1746.2,464.6 1730.2,536.8 1717.1,605.4 1706.7,670.6 1698.7,732.8 1692.8,792.0 1688.9,848.5 1686.7,902.5 1686.0,954.3 1686.6,1003.9 1688.4,1051.6 1691.3,1097.6 1695.1,1142.1 1699.6,1185.2 1704.9,1227.1 1710.9,1268.0 1717.5,1308.1 1724.6,1347.5 1732.2,1386.4 1740.4,1425.0 1749.2,1463.3 1758.5,1501.6 1768.5,1539.9 1779.2,1578.5 1790.7,1617.5 1803.0,1657.0 1816.4,1697.0 1831.0,1737.9 1846.9,1779.6 1864.3,1822.3 1883.3,1866.0 1904.3,1911.0 1927.4,1957.3 1952.8,2005.0 1980.9,2054.3 2011.8,2105.1 2046.0,2157.6 2083.7,2211.9 2125.3,2268.0 2171.0,2326.1  Z" style="stroke-width: 2.0;  stroke: rgb(82,82,82); fill: rgb(255,153,0); opacity: 0.667;" />
<path d="M 2171.006,2326.063 A 1064.250,1064.250 0.00 0,1 2168.4,2328.2 L 2168.4,2328.2 2122.9,2270.1 2081.6,2214.3 2044.3,2160.5 2010.6,2108.7 1980.2,2058.8 1952.9,2010.7 1928.3,1964.2 1906.4,1919.3 1886.7,1875.7 1869.2,1833.4 1853.7,1792.3 1839.9,1752.2 1827.7,1713.0 1817.0,1674.6 1807.7,1636.9 1799.6,1599.6 1792.6,1562.8 1786.8,1526.2 1782.1,1489.7 1778.4,1453.1 1775.6,1416.4 1773.9,1379.4 1773.3,1341.9 1773.7,1303.8 1775.2,1264.9 1777.9,1225.1 1781.9,1184.3 1787.3,1142.3 1794.3,1098.9 1802.9,1053.9 1813.3,1007.3 1825.7,958.8 1840.3,908.3 1857.4,855.7 1877.0,800.7 1899.6,743.1 1925.3,683.0 1954.4,619.9 1987.3,553.8  A 1064.250,1064.250 0.00 0,0 1984.1,552.2 L 1984.1,552.2 1951.4,618.4 1922.5,681.5 1897.0,741.8 1874.7,799.4 1855.2,854.5 1838.3,907.2 1823.9,957.7 1811.6,1006.2 1801.4,1052.9 1792.9,1097.9 1786.1,1141.3 1780.8,1183.4 1777.0,1224.2 1774.4,1264.0 1773.0,1302.9 1772.7,1341.0 1773.5,1378.5 1775.3,1415.5 1778.2,1452.2 1782.0,1488.7 1786.9,1525.2 1792.8,1561.8 1799.9,1598.7 1808.1,1635.9 1817.5,1673.6 1828.4,1712.0 1840.7,1751.1 1854.6,1791.2 1870.3,1832.2 1887.9,1874.5 1907.7,1918.0 1929.8,1962.9 1954.5,2009.3 1981.9,2057.3 2012.5,2107.1 2046.3,2158.8 2083.8,2212.4 2125.3,2268.1 2171.0,2326.1  Z" style="stroke-width: 2.0;  stroke: rgb(82,82,82); fill: rgb(255,204,0); opacity: 0.667;" />
<path d="M 2171.006,2326.063 A 1064.250,1064.250 0.00 0,1 2168.4,2328.2 L 2168.4,2328.2 2122.9,2270.2 2081.6,2214.4 2044.3,2160.8 2010.7,2109.3 1980.4,2059.7 1953.2,2011.8 1928.8,1965.7 1907.1,1921.1 1887.7,1878.0 1870.5,1836.2 1855.4,1795.5 1842.0,1755.9 1830.4,1717.3 1820.3,1679.4 1811.6,1642.2 1804.3,1605.5 1798.2,1569.2 1793.4,1533.2 1789.7,1497.4 1787.1,1461.5 1785.7,1425.4 1785.4,1389.1 1786.2,1352.3 1788.2,1315.0 1791.5,1276.9 1796.1,1238.0 1802.2,1198.1 1809.8,1157.0 1819.0,1114.6 1830.1,1070.8 1843.1,1025.3 1858.3,978.1 1875.9,929.0 1896.0,877.8 1918.9,824.4 1944.9,768.6 1974.2,710.2 2007.2,649.2 2044.0,585.3  A 1064.250,1064.250 0.00 0,0 2040.9,583.5 L 2040.9,583.5 2004.3,647.5 1971.6,708.6 1942.5,767.1 1916.7,823.0 1893.9,876.5 1874.0,927.7 1856.6,976.9 1841.5,1024.2 1828.6,1069.7 1817.7,1113.6 1808.6,1156.0 1801.2,1197.1 1795.3,1237.0 1790.8,1276.0 1787.6,1314.0 1785.7,1351.4 1785.0,1388.2 1785.4,1424.5 1787.0,1460.5 1789.6,1496.4 1793.4,1532.3 1798.4,1568.3 1804.6,1604.5 1812.0,1641.2 1820.8,1678.4 1831.0,1716.2 1842.8,1754.8 1856.3,1794.4 1871.6,1835.0 1888.9,1876.8 1908.4,1919.8 1930.3,1964.3 1954.8,2010.4 1982.1,2058.1 2012.6,2107.7 2046.4,2159.1 2083.9,2212.6 2125.3,2268.2 2171.0,2326.1  Z" style="stroke-width: 2.0;  stroke: rgb(82,82,82); fill: rgb(255,255,0); opacity: 0.667;" />
<path d="M 460.917,1730.077 A 1064.250,1064.250 0.00 0,1 460.1,1726.6 L 460.1,1726.6 532.0,1709.9 599.0,1692.3 661.6,1674.0 720.1,1654.9 774.7,1635.3 825.8,1615.2 873.5,1594.5 918.3,1573.5 960.2,1552.1 999.6,1530.3 1036.7,1508.2 1071.7,1485.7 1104.8,1462.9 1136.1,1439.8 1165.9,1416.2 1194.2,1392.2 1221.3,1367.7 1247.3,1342.7 1272.2,1317.0 1296.2,1290.6 1319.4,1263.3 1341.9,1235.1 1363.7,1205.8 1384.9,1175.3 1405.6,1143.5 1425.7,1110.1 1445.2,1075.0 1464.2,1038.1 1482.7,999.0 1500.7,957.7 1518.0,913.9 1534.7,867.4 1550.8,817.9 1566.0,765.1 1580.4,708.9 1593.8,648.9 1606.1,584.9 1617.3,516.5 1627.1,443.4  A 1064.250,1064.250 0.00 0,0 1623.5,442.9 L 1623.5,442.9 1613.9,516.1 1603.0,584.5 1590.9,648.6 1577.7,708.7 1563.5,764.9 1548.5,817.7 1532.6,867.3 1516.1,913.9 1498.9,957.7 1481.1,999.1 1462.7,1038.2 1443.8,1075.2 1424.3,1110.3 1404.4,1143.8 1383.9,1175.7 1362.8,1206.3 1341.0,1235.6 1318.7,1263.9 1295.5,1291.2 1271.6,1317.8 1246.7,1343.5 1220.9,1368.7 1193.9,1393.3 1165.6,1417.3 1135.9,1441.0 1104.7,1464.3 1071.7,1487.2 1036.8,1509.7 999.8,1532.0 960.4,1553.9 918.5,1575.4 873.8,1596.6 826.1,1617.4 775.2,1637.7 720.6,1657.6 662.2,1676.8 599.7,1695.4 532.7,1713.2 460.9,1730.1  Z" style="stroke-width: 2.0;  stroke: rgb(82,82,82); fill: rgb(204,255,0); opacity: 0.667;" />
<path d="M 460.917,1730.077 A 1064.250,1064.250 0.00 0,1 460.1,1726.6 L 460.1,1726.6 532.0,1709.9 599.2,1692.1 662.1,1673.6 720.9,1654.3 776.0,1634.3 827.6,1613.9 876.1,1592.9 921.6,1571.5 964.5,1549.8 1004.9,1527.7 1043.1,1505.4 1079.4,1482.8 1113.9,1459.8 1146.7,1436.6 1178.2,1413.1 1208.4,1389.2 1237.4,1364.9 1265.6,1340.1 1292.8,1314.7 1319.4,1288.8 1345.3,1262.1 1370.7,1234.5 1395.7,1206.0 1420.3,1176.3 1444.5,1145.4 1468.4,1113.1 1492.1,1079.1 1515.6,1043.4 1538.8,1005.6 1561.7,965.7 1584.4,923.3 1606.8,878.3 1628.8,830.3 1650.4,779.2 1671.6,724.5 1692.2,666.2 1712.1,603.7 1731.3,536.9 1749.7,465.4  A 1064.250,1064.250 0.00 0,0 1746.2,464.6 L 1746.2,464.6 1728.1,536.2 1709.2,603.0 1689.4,665.5 1669.0,724.0 1648.0,778.7 1626.6,829.9 1604.7,877.9 1582.5,923.1 1559.9,965.5 1537.1,1005.5 1514.0,1043.3 1490.7,1079.1 1467.1,1113.2 1443.3,1145.6 1419.2,1176.6 1394.7,1206.3 1369.8,1234.9 1344.5,1262.6 1318.7,1289.4 1292.2,1315.4 1265.0,1340.9 1237.0,1365.7 1208.0,1390.1 1177.9,1414.2 1146.5,1437.8 1113.7,1461.1 1079.3,1484.2 1043.2,1506.9 1005.0,1529.4 964.6,1551.6 921.8,1573.5 876.4,1595.0 828.0,1616.1 776.4,1636.8 721.4,1656.9 662.7,1676.4 599.9,1695.2 532.7,1713.1 460.9,1730.1  Z" style="stroke-width: 2.0;  stroke: rgb(82,82,82); fill: rgb(0,255,0); opacity: 0.667;" />
<path d="M 460.917,1730.077 A 1064.250,1064.250 0.00 0,1 460.1,1726.6 L 460.1,1726.6 532.1,1709.8 599.7,1691.8 663.1,1672.9 722.7,1653.1 778.8,1632.7 831.6,1611.7 881.5,1590.2 928.6,1568.4 973.4,1546.3 1015.9,1524.0 1056.4,1501.5 1095.2,1478.8 1132.5,1456.1 1168.4,1433.2 1203.2,1410.3 1237.0,1387.2 1270.0,1363.9 1302.4,1340.4 1334.2,1316.6 1365.6,1292.5 1396.8,1267.9 1427.9,1242.7 1458.9,1216.8 1489.9,1190.1 1521.1,1162.4 1552.4,1133.6 1584.0,1103.5 1615.9,1071.8 1648.1,1038.5 1680.6,1003.1 1713.5,965.6 1746.8,925.7 1780.4,883.1 1814.3,837.4 1848.5,788.5 1883.0,736.1 1917.6,679.7 1952.4,619.1 1987.3,553.8  A 1064.250,1064.250 0.00 0,0 1984.1,552.2 L 1984.1,552.2 1949.5,617.5 1914.9,678.3 1880.4,734.8 1846.1,787.4 1812.1,836.4 1778.3,882.1 1744.9,924.9 1711.7,964.9 1679.0,1002.5 1646.5,1038.0 1614.5,1071.5 1582.7,1103.2 1551.2,1133.5 1519.9,1162.4 1488.9,1190.2 1457.9,1217.0 1427.0,1242.9 1396.0,1268.2 1364.9,1292.9 1333.6,1317.2 1301.8,1341.1 1269.6,1364.7 1236.6,1388.1 1202.9,1411.3 1168.2,1434.4 1132.4,1457.3 1095.2,1480.2 1056.4,1503.0 1016.0,1525.6 973.5,1548.1 928.9,1570.3 881.8,1592.3 832.0,1613.9 779.2,1635.1 723.2,1655.7 663.7,1675.7 600.3,1694.8 532.9,1713.0 460.9,1730.1  Z" style="stroke-width: 2.0;  stroke: rgb(82,82,82); fill: rgb(53,128,0); opacity: 0.667;" />
<path d="M 460.917,1730.077 A 1064.250,1064.250 0.00 0,1 460.1,1726.6 L 460.1,1726.6 532.2,1709.7 599.8,1691.7 663.4,1672.7 723.2,1652.9 779.5,1632.3 832.6,1611.2 882.9,1589.7 930.5,1567.8 975.7,1545.6 1018.7,1523.3 1059.8,1500.8 1099.3,1478.3 1137.2,1455.7 1173.9,1433.0 1209.5,1410.3 1244.2,1387.6 1278.1,1364.7 1311.5,1341.7 1344.4,1318.5 1377.0,1294.9 1409.5,1271.1 1441.8,1246.7 1474.3,1221.8 1506.9,1196.1 1539.7,1169.5 1572.8,1141.9 1606.2,1113.0 1640.1,1082.7 1674.4,1050.8 1709.2,1017.0 1744.5,981.2 1780.3,943.0 1816.7,902.1 1853.5,858.4 1890.8,811.5 1928.6,761.0 1966.7,706.7 2005.2,648.3 2044.0,585.3  A 1064.250,1064.250 0.00 0,0 2040.9,583.5 L 2040.9,583.5 2002.3,646.6 1964.0,705.2 1926.1,759.6 1888.5,810.1 1851.3,857.2 1814.7,901.1 1778.5,942.0 1742.8,980.4 1707.6,1016.3 1672.9,1050.2 1638.7,1082.3 1604.9,1112.6 1571.5,1141.6 1538.5,1169.4 1505.8,1196.0 1473.3,1221.8 1441.0,1246.9 1408.7,1271.4 1376.3,1295.4 1343.8,1319.0 1311.0,1342.3 1277.7,1365.4 1243.8,1388.4 1209.2,1411.3 1173.7,1434.1 1137.1,1456.9 1099.2,1479.6 1059.8,1502.3 1018.8,1524.9 975.8,1547.4 930.7,1569.7 883.2,1591.7 833.0,1613.5 779.9,1634.7 723.7,1655.5 664.0,1675.5 600.5,1694.7 532.9,1713.0 460.9,1730.1  Z" style="stroke-width: 2.0;  stroke: rgb(82,82,82); fill: rgb(0,0,204); opacity: 0.667;" />
<path d="M 460.917,1730.077 A 1064.250,1064.250 0.00 0,1 460.1,1726.6 L 460.1,1726.6 532.5,1711.9 601.0,1700.0 665.9,1690.8 727.5,1683.9 785.9,1679.1 841.5,1676.2 894.3,1675.1 944.7,1675.6 992.8,1677.5 1038.9,1680.7 1083.1,1685.1 1125.6,1690.6 1166.6,1697.0 1206.3,1704.4 1244.9,1712.6 1282.5,1721.7 1319.2,1731.6 1355.3,1742.3 1390.8,1753.8 1426.0,1766.2 1461.0,1779.5 1495.8,1793.8 1530.6,1809.1 1565.6,1825.6 1600.8,1843.3 1636.3,1862.4 1672.4,1883.1 1708.9,1905.5 1746.1,1929.8 1784.0,1956.2 1822.7,1984.8 1862.3,2016.0 1902.8,2050.0 1944.3,2087.0 1986.8,2127.4 2030.5,2171.3 2075.3,2219.2 2121.2,2271.4 2168.4,2328.2  A 1064.250,1064.250 0.00 0,0 2171.0,2326.1 L 2171.0,2326.1 2123.7,2269.4 2077.5,2217.4 2032.6,2169.7 1988.8,2125.8 1946.1,2085.6 1904.5,2048.7 1863.9,2014.9 1824.2,1983.8 1785.4,1955.3 1747.5,1929.0 1710.2,1904.9 1673.6,1882.6 1637.5,1862.0 1601.9,1843.0 1566.6,1825.4 1531.6,1809.0 1496.7,1793.8 1461.9,1779.6 1426.9,1766.5 1391.7,1754.2 1356.1,1742.8 1320.0,1732.2 1283.2,1722.4 1245.6,1713.5 1207.0,1705.4 1167.3,1698.1 1126.2,1691.8 1083.7,1686.5 1039.5,1682.3 993.4,1679.2 945.3,1677.5 894.9,1677.2 842.0,1678.4 786.5,1681.5 728.1,1686.5 666.6,1693.6 601.7,1703.1 533.2,1715.1 460.9,1730.1  Z" style="stroke-width: 2.0;  stroke: rgb(82,82,82); fill: rgb(102,153,255); opacity: 0.667;" />
<path d="M 811.532,688.434 A 1064.250,1064.250 0.00 0,1 814.3,686.1 L 814.3,686.1 861.9,741.9 906.8,792.9 949.1,839.5 989.0,881.9 1026.7,920.3 1062.2,954.9 1095.6,985.9 1127.2,1013.5 1157.0,1037.9 1185.1,1059.2 1211.6,1077.4 1236.7,1092.9 1260.5,1105.6 1283.0,1115.6 1304.3,1123.0 1324.6,1127.9 1343.8,1130.3 1362.2,1130.2 1379.7,1127.7 1396.4,1122.7 1412.5,1115.2 1427.8,1105.2 1442.6,1092.6 1456.9,1077.4 1470.7,1059.5 1484.0,1038.8 1496.9,1015.2 1509.4,988.5 1521.6,958.6 1533.4,925.5 1544.9,888.7 1556.2,848.3 1567.2,804.1 1577.8,755.7 1588.3,702.9 1598.4,645.6 1608.3,583.4 1617.8,516.1 1627.1,443.4  A 1064.250,1064.250 0.00 0,0 1623.5,442.9 L 1623.5,442.9 1614.5,515.7 1605.2,583.0 1595.5,645.2 1585.6,702.6 1575.3,755.4 1564.8,803.8 1554.0,848.2 1542.9,888.6 1531.5,925.3 1519.7,958.6 1507.7,988.5 1495.2,1015.2 1482.4,1038.9 1469.2,1059.6 1455.5,1077.6 1441.3,1092.8 1426.5,1105.5 1411.2,1115.5 1395.2,1123.0 1378.4,1128.1 1360.9,1130.7 1342.6,1130.8 1323.3,1128.5 1303.0,1123.7 1281.7,1116.3 1259.2,1106.4 1235.4,1093.8 1210.2,1078.4 1183.6,1060.2 1155.4,1039.0 1125.6,1014.8 1093.9,987.3 1060.3,956.4 1024.7,921.9 987.0,883.6 946.9,841.4 904.4,794.9 859.3,744.0 811.5,688.4  Z" style="stroke-width: 2.0;  stroke: rgb(82,82,82); fill: rgb(153,204,255); opacity: 0.667;" />
<path d="M 811.532,688.434 A 1064.250,1064.250 0.00 0,1 814.3,686.1 L 814.3,686.1 861.9,741.8 907.1,792.8 949.7,839.4 990.1,881.7 1028.4,920.0 1064.5,954.5 1098.8,985.4 1131.3,1013.0 1162.2,1037.3 1191.4,1058.5 1219.3,1076.8 1245.8,1092.3 1271.1,1105.1 1295.2,1115.2 1318.3,1122.8 1340.5,1127.9 1361.8,1130.6 1382.4,1130.8 1402.2,1128.7 1421.5,1124.2 1440.2,1117.2 1458.5,1107.8 1476.4,1095.9 1493.9,1081.4 1511.2,1064.3 1528.3,1044.4 1545.2,1021.7 1562.0,996.0 1578.7,967.2 1595.4,935.1 1612.1,899.5 1628.9,860.4 1645.7,817.4 1662.7,770.3 1679.7,719.0 1697.0,663.1 1714.3,602.4 1731.9,536.6 1749.7,465.4  A 1064.250,1064.250 0.00 0,0 1746.2,464.6 L 1746.2,464.6 1728.7,535.8 1711.4,601.7 1694.2,662.4 1677.1,718.4 1660.2,769.8 1643.4,816.9 1626.7,860.0 1610.1,899.2 1593.5,934.8 1576.9,966.9 1560.3,995.8 1543.6,1021.5 1526.8,1044.3 1509.8,1064.2 1492.5,1081.4 1475.0,1095.9 1457.2,1107.9 1439.0,1117.4 1420.2,1124.4 1401.0,1129.0 1381.1,1131.2 1360.6,1131.1 1339.2,1128.5 1317.1,1123.4 1293.9,1115.9 1269.7,1105.8 1244.4,1093.2 1217.9,1077.8 1190.0,1059.6 1160.6,1038.4 1129.7,1014.2 1097.1,986.8 1062.7,956.0 1026.4,921.6 988.1,883.4 947.5,841.2 904.7,794.8 859.4,744.0 811.5,688.4  Z" style="stroke-width: 2.0;  stroke: rgb(82,82,82); fill: rgb(0,255,255); opacity: 0.667;" />
<path d="M 811.532,688.434 A 1064.250,1064.250 0.00 0,1 814.3,686.1 L 814.3,686.1 862.1,741.8 907.6,792.8 951.0,839.2 992.4,881.4 1031.8,919.7 1069.4,954.2 1105.4,985.2 1139.8,1012.8 1172.7,1037.3 1204.4,1058.8 1234.8,1077.5 1264.1,1093.5 1292.3,1106.8 1319.7,1117.8 1346.3,1126.3 1372.3,1132.5 1397.6,1136.4 1422.4,1138.1 1446.9,1137.6 1471.1,1134.8 1495.0,1129.9 1518.9,1122.7 1542.7,1113.3 1566.6,1101.4 1590.6,1087.2 1614.9,1070.5 1639.5,1051.1 1664.5,1029.0 1690.0,1004.0 1716.0,976.0 1742.7,944.8 1770.1,910.2 1798.2,872.0 1827.2,830.0 1857.1,783.9 1888.0,733.5 1920.0,678.6 1953.0,618.8 1987.3,553.8  A 1064.250,1064.250 0.00 0,0 1984.1,552.2 L 1984.1,552.2 1950.1,617.3 1917.2,677.2 1885.5,732.2 1854.7,782.7 1825.0,828.9 1796.1,871.0 1768.1,909.3 1740.8,944.0 1714.2,975.3 1688.3,1003.4 1662.9,1028.5 1638.0,1050.7 1613.4,1070.1 1589.2,1086.9 1565.2,1101.2 1541.4,1113.1 1517.6,1122.7 1493.8,1129.9 1469.8,1134.9 1445.7,1137.8 1421.2,1138.4 1396.4,1136.7 1371.0,1132.9 1345.1,1126.8 1318.5,1118.4 1291.0,1107.5 1262.7,1094.3 1233.3,1078.4 1202.9,1059.8 1171.2,1038.4 1138.1,1014.0 1103.7,986.5 1067.6,955.6 1029.8,921.3 990.3,883.1 948.8,841.1 905.3,794.8 859.6,744.0 811.5,688.4  Z" style="stroke-width: 2.0;  stroke: rgb(82,82,82); fill: rgb(204,255,255); opacity: 0.667;" />
<path d="M 811.532,688.434 A 1064.250,1064.250 0.00 0,1 814.3,686.1 L 814.3,686.1 862.1,741.8 907.8,792.8 951.3,839.2 992.9,881.4 1032.7,919.7 1070.7,954.2 1107.0,985.3 1141.9,1013.0 1175.4,1037.6 1207.6,1059.2 1238.6,1078.1 1268.6,1094.2 1297.6,1107.9 1325.8,1119.1 1353.3,1128.0 1380.1,1134.6 1406.4,1139.0 1432.3,1141.2 1457.8,1141.2 1483.2,1139.2 1508.4,1134.9 1533.5,1128.5 1558.8,1119.9 1584.1,1109.0 1609.8,1095.8 1635.8,1080.2 1662.2,1062.0 1689.1,1041.1 1716.7,1017.5 1744.9,990.9 1774.0,961.1 1803.9,928.1 1834.7,891.6 1866.5,851.3 1899.5,807.1 1933.7,758.6 1969.1,705.7 2005.8,648.0 2044.0,585.3  A 1064.250,1064.250 0.00 0,0 2040.9,583.5 L 2040.9,583.5 2003.0,646.3 1966.4,704.1 1931.2,757.2 1897.2,805.7 1864.4,850.1 1832.6,890.5 1801.9,927.1 1772.1,960.2 1743.2,990.0 1715.1,1016.7 1687.6,1040.5 1660.7,1061.4 1634.4,1079.7 1608.4,1095.5 1582.8,1108.8 1557.5,1119.7 1532.3,1128.4 1507.1,1134.9 1481.9,1139.2 1456.6,1141.4 1431.1,1141.4 1405.2,1139.3 1378.9,1135.0 1352.0,1128.5 1324.5,1119.7 1296.3,1108.6 1267.2,1095.0 1237.2,1078.9 1206.1,1060.2 1173.8,1038.7 1140.3,1014.2 1105.3,986.6 1068.8,955.7 1030.7,921.3 990.9,883.1 949.1,841.0 905.4,794.7 859.6,744.0 811.5,688.4  Z" style="stroke-width: 2.0;  stroke: rgb(82,82,82); fill: rgb(153,0,204); opacity: 0.667;" />
<path d="M 811.532,688.434 A 1064.250,1064.250 0.00 0,1 814.3,686.1 L 814.3,686.1 861.3,743.8 904.6,800.5 944.7,856.1 981.8,910.4 1016.3,963.5 1048.6,1015.3 1078.9,1065.6 1107.7,1114.6 1135.1,1162.0 1161.5,1208.1 1187.1,1252.7 1212.2,1295.8 1237.0,1337.6 1261.7,1378.0 1286.5,1417.1 1311.6,1454.9 1337.2,1491.6 1363.5,1527.3 1390.5,1561.9 1418.4,1595.7 1447.2,1628.8 1477.2,1661.4 1508.4,1693.5 1540.7,1725.4 1574.4,1757.2 1609.3,1789.1 1645.6,1821.4 1683.2,1854.3 1722.1,1887.9 1762.3,1922.6 1803.7,1958.5 1846.2,1996.1 1889.9,2035.5 1934.6,2077.0 1980.1,2121.0 2026.4,2167.8 2073.3,2217.7 2120.7,2271.0 2168.4,2328.2  A 1064.250,1064.250 0.00 0,0 2171.0,2326.1 L 2171.0,2326.1 2123.1,2269.0 2075.6,2215.8 2028.5,2166.1 1982.0,2119.5 1936.4,2075.6 1891.6,2034.2 1847.8,1995.0 1805.1,1957.6 1763.6,1921.7 1723.3,1887.2 1684.3,1853.7 1646.6,1821.0 1610.2,1788.8 1575.2,1757.0 1541.4,1725.3 1509.0,1693.5 1477.7,1661.5 1447.6,1629.0 1418.6,1596.0 1390.7,1562.3 1363.5,1527.7 1337.2,1492.2 1311.5,1455.6 1286.2,1417.8 1261.3,1378.8 1236.4,1338.5 1211.5,1296.8 1186.3,1253.7 1160.5,1209.2 1134.0,1163.3 1106.4,1115.9 1077.5,1067.0 1046.9,1016.8 1014.5,965.1 979.8,912.2 942.5,857.9 902.3,802.5 858.8,746.0 811.5,688.4  Z" style="stroke-width: 2.0;  stroke: rgb(82,82,82); fill: rgb(204,51,255); opacity: 0.667;" />
<path d="M 811.532,688.434 A 1064.250,1064.250 0.00 0,1 814.3,686.1 L 814.3,686.1 861.1,742.7 903.6,796.0 942.0,846.4 976.7,894.0 1007.8,938.8 1035.5,981.3 1060.0,1021.3 1081.4,1059.2 1100.0,1095.0 1115.8,1128.9 1129.0,1161.1 1139.7,1191.6 1148.0,1220.6 1154.0,1248.2 1157.6,1274.5 1159.1,1299.6 1158.3,1323.7 1155.4,1346.8 1150.3,1369.0 1143.0,1390.5 1133.5,1411.2 1121.7,1431.3 1107.6,1450.8 1091.2,1469.8 1072.2,1488.4 1050.7,1506.7 1026.4,1524.6 999.3,1542.3 969.2,1559.7 936.0,1576.9 899.4,1594.0 859.3,1610.9 815.5,1627.7 767.7,1644.4 715.7,1661.0 659.2,1677.5 598.0,1694.0 531.7,1710.3 460.1,1726.6  A 1064.250,1064.250 0.00 0,0 460.9,1730.1 L 460.9,1730.1 532.4,1713.6 598.6,1697.0 659.8,1680.4 716.2,1663.6 768.2,1646.9 815.9,1630.0 859.7,1613.0 899.7,1596.0 936.3,1578.8 969.4,1561.5 999.5,1543.9 1026.5,1526.2 1050.7,1508.2 1072.2,1489.9 1091.1,1471.2 1107.5,1452.1 1121.5,1432.5 1133.2,1412.4 1142.6,1391.7 1149.9,1370.2 1154.9,1348.0 1157.8,1324.9 1158.4,1300.8 1156.9,1275.7 1153.1,1249.4 1147.1,1221.8 1138.7,1192.8 1127.9,1162.3 1114.6,1130.2 1098.7,1096.4 1080.0,1060.6 1058.4,1022.8 1033.8,982.8 1005.9,940.5 974.7,895.7 939.9,848.3 901.2,798.0 858.5,744.8 811.5,688.4  Z" style="stroke-width: 2.0;  stroke: rgb(82,82,82); fill: rgb(204,153,255); opacity: 0.667;" />
<path d="M 819.796,681.495 A 1064.250,1064.250 0.00 0,1 822.6,679.2 L 822.6,679.2 869.6,735.4 914.0,786.9 955.8,834.0 995.2,876.8 1032.4,915.5 1067.5,950.5 1100.6,981.9 1131.8,1009.8 1161.2,1034.5 1189.0,1056.1 1215.3,1074.6 1240.1,1090.3 1263.6,1103.2 1285.8,1113.5 1306.9,1121.1 1327.0,1126.2 1346.0,1128.8 1364.2,1128.9 1381.5,1126.5 1398.1,1121.6 1413.9,1114.3 1429.2,1104.4 1443.8,1091.9 1458.0,1076.8 1471.6,1059.0 1484.8,1038.4 1497.6,1014.8 1510.0,988.2 1522.1,958.4 1533.8,925.3 1545.3,888.6 1556.5,848.2 1567.4,804.0 1578.0,755.6 1588.3,702.9 1598.4,645.6 1608.3,583.4 1617.8,516.1 1627.1,443.4  A 1064.250,1064.250 0.00 0,0 1623.5,442.9 L 1623.5,442.9 1614.5,515.7 1605.2,583.0 1595.6,645.2 1585.7,702.6 1575.5,755.3 1565.0,803.8 1554.3,848.1 1543.2,888.5 1531.9,925.2 1520.2,958.3 1508.3,988.2 1495.9,1014.8 1483.2,1038.4 1470.1,1059.1 1456.5,1077.0 1442.5,1092.1 1427.9,1104.6 1412.6,1114.6 1396.8,1122.0 1380.3,1126.9 1362.9,1129.3 1344.8,1129.3 1325.7,1126.8 1305.6,1121.8 1284.5,1114.2 1262.2,1104.0 1238.7,1091.2 1213.8,1075.6 1187.5,1057.1 1159.7,1035.6 1130.1,1011.1 1098.8,983.2 1065.7,952.0 1030.5,917.1 993.2,878.5 953.6,835.8 911.6,788.9 867.0,737.6 819.8,681.5  Z" style="stroke-width: 2.0;  stroke: rgb(82,82,82); fill: rgb(102,102,102); opacity: 0.667;" />
<path d="M 819.796,681.495 A 1064.250,1064.250 0.00 0,1 822.6,679.2 L 822.6,679.2 869.7,735.4 914.2,786.9 956.4,833.8 996.3,876.5 1034.1,915.2 1069.9,950.1 1103.8,981.4 1135.9,1009.3 1166.4,1033.9 1195.4,1055.4 1222.9,1074.0 1249.2,1089.8 1274.2,1102.8 1298.1,1113.1 1320.9,1120.9 1342.9,1126.2 1364.0,1129.1 1384.4,1129.5 1404.1,1127.5 1423.2,1123.1 1441.7,1116.3 1459.9,1107.0 1477.6,1095.2 1495.0,1080.8 1512.2,1063.8 1529.1,1044.0 1545.9,1021.3 1562.6,995.7 1579.2,966.9 1595.8,934.9 1612.4,899.4 1629.1,860.3 1645.9,817.3 1662.8,770.3 1679.8,718.9 1697.0,663.1 1714.4,602.4 1731.9,536.6 1749.7,465.4  A 1064.250,1064.250 0.00 0,0 1746.2,464.6 L 1746.2,464.6 1728.7,535.8 1711.4,601.7 1694.2,662.4 1677.2,718.3 1660.4,769.7 1643.6,816.8 1627.0,859.9 1610.4,899.0 1593.9,934.6 1577.4,966.7 1560.9,995.5 1544.3,1021.2 1527.6,1043.9 1510.7,1063.7 1493.6,1080.8 1476.2,1095.3 1458.5,1107.1 1440.4,1116.5 1421.9,1123.4 1402.8,1127.9 1383.1,1129.9 1362.8,1129.6 1341.7,1126.8 1319.7,1121.5 1296.8,1113.8 1272.8,1103.5 1247.8,1090.6 1221.5,1074.9 1193.9,1056.5 1164.9,1035.0 1134.3,1010.5 1102.1,982.7 1068.0,951.6 1032.2,916.8 994.2,878.2 954.2,835.7 911.8,788.8 867.1,737.5 819.8,681.5  Z" style="stroke-width: 2.0;  stroke: rgb(82,82,82); fill: rgb(153,153,153); opacity: 0.667;" />
<path d="M 819.796,681.495 A 1064.250,1064.250 0.00 0,1 822.6,679.2 L 822.6,679.2 869.8,735.4 914.8,786.8 957.7,833.7 998.6,876.3 1037.6,915.0 1074.8,949.9 1110.3,981.2 1144.4,1009.2 1177.0,1034.0 1208.3,1055.8 1238.4,1074.7 1267.4,1091.0 1295.5,1104.6 1322.6,1115.7 1349.0,1124.5 1374.7,1130.9 1399.8,1135.0 1424.5,1136.8 1448.7,1136.5 1472.7,1133.9 1496.5,1129.1 1520.2,1122.0 1543.9,1112.7 1567.6,1100.9 1591.6,1086.8 1615.7,1070.1 1640.2,1050.8 1665.1,1028.8 1690.5,1003.9 1716.4,975.9 1743.0,944.7 1770.3,910.1 1798.4,872.0 1827.4,830.0 1857.2,783.9 1888.1,733.5 1920.0,678.6 1953.0,618.8 1987.3,553.8  A 1064.250,1064.250 0.00 0,0 1984.1,552.2 L 1984.1,552.2 1950.1,617.3 1917.2,677.2 1885.5,732.2 1854.8,782.7 1825.1,828.9 1796.3,871.0 1768.3,909.2 1741.2,943.9 1714.7,975.2 1688.8,1003.2 1663.5,1028.2 1638.7,1050.4 1614.3,1069.7 1590.2,1086.5 1566.3,1100.7 1542.6,1112.5 1518.9,1122.0 1495.3,1129.1 1471.5,1134.0 1447.5,1136.7 1423.2,1137.1 1398.6,1135.3 1373.4,1131.3 1347.7,1125.0 1321.3,1116.3 1294.1,1105.3 1266.0,1091.7 1237.0,1075.6 1206.8,1056.8 1175.4,1035.1 1142.7,1010.4 1108.6,982.5 1072.9,951.3 1035.6,916.5 996.5,878.0 955.5,835.5 912.4,788.8 867.2,737.5 819.8,681.5  Z" style="stroke-width: 2.0;  stroke: rgb(82,82,82); fill: rgb(204,204,204); opacity: 0.667;" />
<path d="M 819.796,681.495 A 1064.250,1064.250 0.00 0,1 822.6,679.2 L 822.6,679.2 869.8,735.4 915.0,786.8 958.0,833.7 999.1,876.3 1038.4,915.0 1076.0,949.9 1112.0,981.3 1146.5,1009.3 1179.7,1034.2 1211.5,1056.2 1242.3,1075.3 1272.0,1091.8 1300.8,1105.7 1328.7,1117.1 1355.9,1126.2 1382.5,1133.0 1408.6,1137.6 1434.3,1139.9 1459.7,1140.2 1484.8,1138.2 1509.9,1134.1 1534.9,1127.9 1560.0,1119.3 1585.2,1108.6 1610.7,1095.4 1636.6,1079.8 1662.9,1061.7 1689.8,1040.9 1717.2,1017.3 1745.4,990.7 1774.3,961.1 1804.1,928.1 1834.9,891.5 1866.7,851.3 1899.6,807.1 1933.7,758.6 1969.1,705.7 2005.8,648.0 2044.0,585.3  A 1064.250,1064.250 0.00 0,0 2040.9,583.5 L 2040.9,583.5 2003.0,646.3 1966.4,704.1 1931.2,757.2 1897.3,805.7 1864.5,850.1 1832.8,890.4 1802.2,927.0 1772.5,960.1 1743.6,989.9 1715.6,1016.6 1688.2,1040.3 1661.4,1061.2 1635.2,1079.4 1609.4,1095.0 1583.9,1108.3 1558.7,1119.2 1533.6,1127.7 1508.6,1134.1 1483.6,1138.3 1458.5,1140.3 1433.1,1140.2 1407.4,1137.9 1381.3,1133.4 1354.7,1126.7 1327.4,1117.7 1299.4,1106.3 1270.6,1092.5 1240.9,1076.2 1210.1,1057.2 1178.1,1035.3 1144.9,1010.5 1110.3,982.6 1074.2,951.3 1036.5,916.5 997.0,878.0 955.8,835.5 912.6,788.8 867.3,737.5 819.8,681.5  Z" style="stroke-width: 2.0;  stroke: rgb(82,82,82); fill: rgb(204,204,153); opacity: 0.667;" />
<path d="M 819.796,681.495 A 1064.250,1064.250 0.00 0,1 822.6,679.2 L 822.6,679.2 869.0,737.4 911.8,794.5 951.3,850.5 987.9,905.3 1021.9,958.7 1053.7,1010.8 1083.6,1061.5 1111.9,1110.7 1138.9,1158.5 1164.9,1204.8 1190.1,1249.7 1214.8,1293.1 1239.3,1335.0 1263.7,1375.6 1288.3,1414.9 1313.1,1453.0 1338.5,1489.8 1364.5,1525.6 1391.3,1560.4 1419.0,1594.4 1447.8,1627.6 1477.6,1660.3 1508.6,1692.5 1540.9,1724.5 1574.5,1756.4 1609.4,1788.5 1645.6,1820.8 1683.2,1853.8 1722.0,1887.5 1762.2,1922.2 1803.6,1958.3 1846.2,1995.9 1889.8,2035.3 1934.5,2076.9 1980.0,2120.9 2026.4,2167.7 2073.3,2217.6 2120.7,2271.0 2168.4,2328.2  A 1064.250,1064.250 0.00 0,0 2171.0,2326.1 L 2171.0,2326.1 2123.1,2269.0 2075.6,2215.8 2028.5,2166.1 1982.0,2119.4 1936.3,2075.5 1891.5,2034.1 1847.7,1994.8 1805.0,1957.3 1763.5,1921.4 1723.3,1886.8 1684.3,1853.2 1646.6,1820.4 1610.3,1788.1 1575.3,1756.2 1541.6,1724.4 1509.2,1692.5 1478.1,1660.4 1448.2,1627.8 1419.3,1594.7 1391.5,1560.8 1364.6,1526.1 1338.4,1490.4 1313.0,1453.6 1288.0,1415.6 1263.3,1376.4 1238.7,1335.9 1214.1,1294.0 1189.3,1250.7 1163.9,1205.9 1137.7,1159.7 1110.5,1112.0 1082.1,1062.9 1052.0,1012.3 1020.0,960.3 985.9,907.0 949.1,852.4 909.4,796.5 866.4,739.5 819.8,681.5  Z" style="stroke-width: 2.0;  stroke: rgb(82,82,82); fill: rgb(251,106,74); opacity: 0.667;" />
<path d="M 819.796,681.495 A 1064.250,1064.250 0.00 0,1 822.6,679.2 L 822.6,679.2 868.8,736.2 910.7,790.0 948.7,840.8 982.9,888.8 1013.5,934.0 1040.7,976.8 1064.8,1017.1 1085.9,1055.3 1104.1,1091.4 1119.5,1125.6 1132.4,1158.0 1142.8,1188.7 1150.8,1217.9 1156.5,1245.7 1159.9,1272.2 1161.1,1297.6 1160.2,1321.8 1157.0,1345.1 1151.7,1367.4 1144.3,1389.0 1134.6,1409.8 1122.7,1430.1 1108.5,1449.7 1091.9,1468.9 1072.8,1487.6 1051.2,1505.9 1026.8,1524.0 999.7,1541.7 969.5,1559.2 936.2,1576.5 899.6,1593.6 859.5,1610.6 815.6,1627.5 767.7,1644.3 715.7,1660.9 659.2,1677.5 598.0,1694.0 531.7,1710.3 460.1,1726.6  A 1064.250,1064.250 0.00 0,0 460.9,1730.1 L 460.9,1730.1 532.4,1713.6 598.6,1697.0 659.8,1680.3 716.2,1663.6 768.2,1646.7 816.0,1629.8 859.8,1612.8 899.9,1595.7 936.5,1578.4 969.7,1561.0 999.8,1543.4 1026.9,1525.5 1051.2,1507.4 1072.8,1489.0 1091.8,1470.2 1108.3,1451.0 1122.5,1431.3 1134.3,1411.1 1143.9,1390.2 1151.3,1368.6 1156.5,1346.2 1159.6,1322.9 1160.4,1298.7 1159.2,1273.4 1155.6,1246.9 1149.9,1219.1 1141.8,1189.9 1131.3,1159.2 1118.3,1126.9 1102.7,1092.8 1084.4,1056.7 1063.2,1018.6 1039.0,978.3 1011.6,935.7 980.8,890.5 946.5,842.7 908.3,792.0 866.2,738.4 819.8,681.5  Z" style="stroke-width: 2.0;  stroke: rgb(82,82,82); fill: rgb(116,196,118); opacity: 0.667;" />
<path d="M 819.796,681.495 A 1064.250,1064.250 0.00 0,1 822.6,679.2 L 822.6,679.2 869.1,735.7 912.2,787.8 951.9,836.0 988.3,880.2 1021.7,920.8 1052.2,957.8 1080.0,991.6 1105.1,1022.1 1127.7,1049.7 1147.9,1074.3 1165.8,1096.1 1181.4,1115.3 1194.9,1131.8 1206.3,1145.9 1215.7,1157.5 1223.1,1166.8 1228.6,1173.7 1232.2,1178.4 1233.9,1180.8 1233.8,1180.9 1231.7,1178.8 1227.8,1174.4 1221.9,1167.8 1214.2,1158.8 1204.4,1147.5 1192.6,1133.7 1178.7,1117.5 1162.7,1098.6 1144.5,1077.1 1123.9,1052.9 1100.8,1025.7 1075.3,995.5 1047.1,962.1 1016.1,925.5 982.2,885.3 945.2,841.5 905.0,793.8 861.4,742.1 814.3,686.1  A 1064.250,1064.250 0.00 0,0 811.5,688.4 L 811.5,688.4 858.9,744.3 902.7,795.8 943.0,843.3 980.1,887.0 1014.2,927.1 1045.3,963.7 1073.6,996.9 1099.3,1027.0 1122.4,1054.1 1143.0,1078.3 1161.4,1099.8 1177.5,1118.5 1191.4,1134.8 1203.2,1148.5 1213.0,1159.8 1220.8,1168.7 1226.7,1175.3 1230.6,1179.7 1232.7,1181.8 1232.9,1181.7 1231.1,1179.3 1227.5,1174.6 1222.0,1167.7 1214.6,1158.5 1205.1,1146.9 1193.7,1132.8 1180.1,1116.3 1164.4,1097.2 1146.5,1075.5 1126.2,1050.9 1103.5,1023.5 1078.3,993.0 1050.4,959.3 1019.8,922.4 986.2,881.9 949.6,837.8 909.8,789.8 866.6,737.8 819.8,681.5  Z" style="stroke-width: 2.0;  stroke: rgb(82,82,82); fill: rgb(107,174,214); opacity: 0.667;" />
<path d="M 1305.187,453.732 A 1064.250,1064.250 0.00 0,1 1308.7,453.1 L 1308.7,453.1 1322.0,525.1 1334.8,591.6 1346.9,652.8 1358.4,709.1 1369.4,760.7 1379.9,807.7 1389.9,850.5 1399.5,889.3 1408.6,924.1 1417.4,955.2 1425.8,982.8 1433.9,1006.9 1441.8,1027.7 1449.3,1045.3 1456.6,1059.8 1463.8,1071.3 1470.7,1079.8 1477.5,1085.3 1484.1,1088.0 1490.7,1087.8 1497.2,1084.7 1503.6,1078.8 1510.0,1069.9 1516.4,1058.0 1522.8,1043.1 1529.3,1025.0 1535.8,1003.8 1542.5,979.2 1549.2,951.2 1556.1,919.6 1563.1,884.3 1570.3,845.0 1577.7,801.7 1585.3,754.1 1593.1,701.9 1601.2,645.0 1609.5,583.2 1618.1,516.0 1627.1,443.4  A 1064.250,1064.250 0.00 0,0 1623.5,442.9 L 1623.5,442.9 1614.8,515.6 1606.4,582.8 1598.3,644.7 1590.4,701.6 1582.8,753.8 1575.3,801.4 1568.1,844.8 1561.0,884.1 1554.1,919.4 1547.4,951.0 1540.7,979.1 1534.2,1003.7 1527.7,1024.9 1521.3,1043.0 1514.9,1057.9 1508.6,1069.8 1502.2,1078.8 1495.8,1084.8 1489.3,1087.9 1482.8,1088.1 1476.1,1085.4 1469.3,1079.9 1462.3,1071.4 1455.2,1059.9 1447.8,1045.5 1440.2,1027.9 1432.3,1007.1 1424.1,983.0 1415.6,955.5 1406.7,924.4 1397.4,889.6 1387.7,850.9 1377.5,808.1 1366.9,761.1 1355.7,709.6 1344.0,653.3 1331.7,592.1 1318.8,525.7 1305.2,453.7  Z" style="stroke-width: 2.0;  stroke: rgb(82,82,82); fill: rgb(253,141,60); opacity: 0.667;" />
<path d="M 1305.187,453.732 A 1064.250,1064.250 0.00 0,1 1308.7,453.1 L 1308.7,453.1 1322.1,525.1 1335.0,591.6 1347.5,652.8 1359.5,709.1 1371.1,760.7 1382.3,807.8 1393.2,850.7 1403.7,889.5 1413.9,924.4 1423.9,955.6 1433.7,983.3 1443.2,1007.6 1452.5,1028.6 1461.8,1046.5 1470.9,1061.2 1479.9,1073.0 1488.9,1081.8 1497.9,1087.8 1506.9,1090.8 1516.0,1091.1 1525.2,1088.5 1534.5,1083.1 1544.0,1074.8 1553.7,1063.5 1563.6,1049.3 1573.8,1032.0 1584.3,1011.6 1595.2,987.9 1606.5,960.8 1618.2,930.1 1630.4,895.8 1643.0,857.7 1656.3,815.5 1670.1,769.1 1684.6,718.2 1699.7,662.7 1715.6,602.2 1732.2,536.6 1749.7,465.4  A 1064.250,1064.250 0.00 0,0 1746.2,464.6 L 1746.2,464.6 1729.0,535.8 1712.6,601.5 1697.0,662.0 1682.0,717.6 1667.7,768.5 1654.0,815.0 1640.9,857.2 1628.3,895.4 1616.3,929.8 1604.7,960.4 1593.5,987.5 1582.7,1011.3 1572.2,1031.8 1562.1,1049.1 1552.2,1063.4 1542.6,1074.6 1533.1,1083.0 1523.8,1088.4 1514.6,1091.1 1505.6,1090.8 1496.5,1087.8 1487.5,1081.9 1478.5,1073.1 1469.4,1061.3 1460.2,1046.6 1451.0,1028.8 1441.5,1007.8 1431.9,983.6 1422.1,955.9 1412.0,924.7 1401.7,889.8 1391.0,851.0 1380.0,808.2 1368.6,761.2 1356.8,709.6 1344.6,653.3 1332.0,592.1 1318.8,525.7 1305.2,453.7  Z" style="stroke-width: 2.0;  stroke: rgb(82,82,82); fill: rgb(255,0,0); opacity: 0.667;" />
<path d="M 1305.187,453.732 A 1064.250,1064.250 0.00 0,1 1308.7,453.1 L 1308.7,453.1 1322.3,525.1 1335.6,591.6 1348.8,653.0 1361.8,709.4 1374.6,761.2 1387.2,808.6 1399.8,851.7 1412.2,890.9 1424.6,926.3 1436.9,958.1 1449.2,986.4 1461.6,1011.5 1473.9,1033.4 1486.4,1052.2 1499.0,1068.0 1511.8,1081.0 1524.9,1091.2 1538.1,1098.7 1551.7,1103.4 1565.7,1105.5 1580.1,1104.9 1595.0,1101.6 1610.4,1095.7 1626.4,1087.0 1643.1,1075.4 1660.5,1061.1 1678.7,1043.7 1697.8,1023.4 1717.8,999.8 1738.9,973.0 1761.0,942.7 1784.3,908.8 1808.8,871.2 1834.7,829.5 1862.0,783.7 1890.8,733.5 1921.2,678.6 1953.4,618.8 1987.3,553.8  A 1064.250,1064.250 0.00 0,0 1984.1,552.2 L 1984.1,552.2 1950.4,617.3 1918.5,677.2 1888.2,732.2 1859.6,782.5 1832.5,828.4 1806.7,870.1 1782.3,907.9 1759.1,941.8 1737.1,972.2 1716.2,999.1 1696.2,1022.7 1677.2,1043.1 1659.1,1060.5 1641.7,1075.0 1625.0,1086.5 1609.1,1095.3 1593.7,1101.3 1578.8,1104.7 1564.4,1105.3 1550.4,1103.3 1536.8,1098.6 1523.5,1091.2 1510.4,1081.0 1497.6,1068.0 1484.9,1052.2 1472.4,1033.4 1459.9,1011.6 1447.5,986.6 1435.1,958.3 1422.7,926.6 1410.2,891.2 1397.6,852.1 1384.9,808.9 1372.1,761.6 1359.1,709.9 1345.9,653.5 1332.6,592.2 1319.0,525.7 1305.2,453.7  Z" style="stroke-width: 2.0;  stroke: rgb(82,82,82); fill: rgb(255,0,204); opacity: 0.667;" />
<path d="M 1305.187,453.732 A 1064.250,1064.250 0.00 0,1 1308.7,453.1 L 1308.7,453.1 1322.3,525.1 1335.8,591.6 1349.1,653.0 1362.3,709.5 1375.4,761.4 1388.5,808.9 1401.4,852.1 1414.3,891.5 1427.2,927.1 1440.1,959.1 1453.1,987.6 1466.1,1013.0 1479.2,1035.2 1492.5,1054.3 1506.0,1070.6 1519.7,1084.0 1533.6,1094.7 1547.9,1102.7 1562.6,1108.1 1577.8,1110.8 1593.4,1110.9 1609.6,1108.4 1626.5,1103.2 1644.0,1095.4 1662.3,1084.9 1681.4,1071.5 1701.4,1055.3 1722.4,1036.1 1744.5,1013.8 1767.8,988.3 1792.3,959.4 1818.1,927.1 1845.3,891.0 1874.0,851.0 1904.4,807.0 1936.5,758.6 1970.3,705.7 2006.1,648.0 2044.0,585.3  A 1064.250,1064.250 0.00 0,0 2040.9,583.5 L 2040.9,583.5 2003.3,646.3 1967.7,704.2 1934.0,757.2 1902.1,805.6 1871.9,849.8 1843.2,889.8 1816.1,926.0 1790.4,958.5 1766.1,987.4 1742.9,1013.0 1720.9,1035.3 1699.9,1054.6 1680.0,1070.9 1660.9,1084.3 1642.6,1094.9 1625.1,1102.8 1608.3,1108.0 1592.1,1110.6 1576.5,1110.5 1561.3,1107.9 1546.6,1102.6 1532.3,1094.6 1518.3,1084.0 1504.5,1070.6 1491.0,1054.4 1477.7,1035.2 1464.5,1013.1 1451.4,987.8 1438.3,959.3 1425.3,927.3 1412.3,891.8 1399.2,852.5 1386.1,809.2 1373.0,761.8 1359.7,710.0 1346.3,653.5 1332.7,592.2 1319.0,525.7 1305.2,453.7  Z" style="stroke-width: 2.0;  stroke: rgb(82,82,82); fill: rgb(255,204,204); opacity: 0.667;" />
<path d="M 1305.187,453.732 A 1064.250,1064.250 0.00 0,1 1308.7,453.1 L 1308.7,453.1 1323.2,525.8 1339.1,594.5 1356.3,659.5 1374.5,721.1 1393.4,779.5 1413.0,834.9 1433.0,887.8 1453.3,938.3 1473.6,986.6 1494.1,1033.0 1514.4,1077.7 1534.5,1121.0 1554.4,1163.1 1574.0,1204.1 1593.3,1244.2 1612.2,1283.7 1630.8,1322.7 1649.1,1361.5 1667.0,1400.1 1684.7,1438.7 1702.2,1477.5 1719.7,1516.6 1737.1,1556.1 1754.7,1596.2 1772.6,1637.0 1790.8,1678.7 1809.7,1721.2 1829.3,1764.7 1850.0,1809.3 1871.8,1855.0 1895.1,1902.0 1920.1,1950.3 1947.1,1999.9 1976.4,2051.0 2008.3,2103.4 2043.1,2157.4 2081.1,2212.8 2122.7,2269.7 2168.4,2328.2  A 1064.250,1064.250 0.00 0,0 2171.0,2326.1 L 2171.0,2326.1 2125.2,2267.8 2083.3,2211.0 2045.1,2155.7 2010.2,2101.8 1978.1,2049.5 1948.7,1998.5 1921.5,1949.0 1896.4,1900.8 1872.9,1853.9 1850.9,1808.2 1830.2,1763.6 1810.4,1720.2 1791.4,1677.7 1773.0,1636.2 1755.0,1595.4 1737.3,1555.4 1719.7,1515.9 1702.1,1476.8 1684.5,1438.1 1666.7,1399.5 1648.6,1361.0 1630.2,1322.3 1611.5,1283.4 1592.4,1243.9 1573.0,1203.8 1553.3,1162.9 1533.3,1120.9 1513.0,1077.7 1492.5,1033.0 1471.9,986.7 1451.4,938.4 1430.9,888.0 1410.8,835.2 1391.0,779.8 1371.9,721.5 1353.5,660.0 1336.1,595.1 1319.9,526.4 1305.2,453.7  Z" style="stroke-width: 2.0;  stroke: rgb(82,82,82); fill: rgb(255,153,0); opacity: 0.667;" />
<path d="M 1305.187,453.732 A 1064.250,1064.250 0.00 0,1 1308.7,453.1 L 1308.7,453.1 1321.1,525.6 1330.9,593.8 1338.4,657.8 1343.7,718.0 1347.1,774.6 1348.6,827.8 1348.3,877.9 1346.4,925.1 1343.1,969.6 1338.2,1011.6 1332.1,1051.3 1324.6,1088.8 1315.8,1124.5 1305.9,1158.3 1294.7,1190.6 1282.3,1221.4 1268.7,1250.8 1253.8,1279.1 1237.7,1306.3 1220.2,1332.5 1201.4,1357.9 1181.0,1382.5 1159.0,1406.4 1135.4,1429.7 1109.9,1452.4 1082.5,1474.6 1053.0,1496.4 1021.2,1517.8 986.9,1538.8 950.0,1559.4 910.3,1579.7 867.5,1599.6 821.4,1619.1 771.7,1638.2 718.2,1656.9 660.6,1675.1 598.6,1692.9 531.9,1710.0 460.1,1726.6  A 1064.250,1064.250 0.00 0,0 460.9,1730.1 L 460.9,1730.1 532.6,1713.3 599.2,1695.9 661.2,1678.0 718.7,1659.5 772.1,1640.6 821.8,1621.4 867.8,1601.7 910.6,1581.6 950.3,1561.3 987.1,1540.5 1021.2,1519.4 1053.0,1497.9 1082.4,1476.0 1109.8,1453.7 1135.1,1430.9 1158.7,1407.5 1180.6,1383.5 1200.9,1358.9 1219.7,1333.5 1237.1,1307.2 1253.1,1279.9 1267.9,1251.6 1281.4,1222.1 1293.6,1191.3 1304.7,1159.0 1314.6,1125.1 1323.2,1089.4 1330.5,1051.8 1336.6,1012.1 1341.3,970.1 1344.5,925.6 1346.2,878.4 1346.3,828.4 1344.7,775.1 1341.1,718.6 1335.6,658.4 1327.8,594.4 1317.8,526.2 1305.2,453.7  Z" style="stroke-width: 2.0;  stroke: rgb(82,82,82); fill: rgb(255,204,0); opacity: 0.667;" />
<path d="M 1305.187,453.732 A 1064.250,1064.250 0.00 0,1 1308.7,453.1 L 1308.7,453.1 1321.6,525.2 1332.8,592.0 1342.6,653.9 1350.9,711.0 1357.8,763.6 1363.4,811.9 1367.8,856.2 1370.9,896.6 1372.9,933.4 1373.7,966.6 1373.4,996.6 1372.0,1023.3 1369.6,1047.0 1366.1,1067.8 1361.5,1085.7 1355.8,1100.9 1349.0,1113.4 1341.1,1123.3 1332.1,1130.6 1321.9,1135.4 1310.6,1137.7 1297.9,1137.5 1284.0,1134.7 1268.6,1129.5 1251.9,1121.6 1233.6,1111.1 1213.8,1097.9 1192.3,1082.0 1169.0,1063.1 1143.9,1041.3 1116.8,1016.4 1087.6,988.2 1056.2,956.7 1022.5,921.6 986.3,882.8 947.6,840.0 906.1,793.2 861.7,741.9 814.3,686.1  A 1064.250,1064.250 0.00 0,0 811.5,688.4 L 811.5,688.4 859.2,744.1 903.7,795.2 945.4,841.9 984.3,884.5 1020.6,923.2 1054.4,958.2 1085.9,989.6 1115.1,1017.7 1142.3,1042.5 1167.5,1064.2 1190.9,1083.0 1212.4,1098.9 1232.3,1112.0 1250.6,1122.4 1267.4,1130.2 1282.7,1135.5 1296.7,1138.2 1309.3,1138.3 1320.7,1136.0 1330.9,1131.2 1339.9,1123.8 1347.7,1113.9 1354.4,1101.4 1360.1,1086.2 1364.6,1068.2 1368.1,1047.5 1370.4,1023.8 1371.7,997.0 1371.9,967.1 1371.0,933.8 1368.9,897.0 1365.6,856.6 1361.1,812.4 1355.3,764.0 1348.2,711.5 1339.7,654.4 1329.8,592.6 1318.3,525.8 1305.2,453.7  Z" style="stroke-width: 2.0;  stroke: rgb(82,82,82); fill: rgb(255,255,0); opacity: 0.667;" />
<path d="M 1305.187,453.732 A 1064.250,1064.250 0.00 0,1 1308.7,453.1 L 1308.7,453.1 1321.6,525.2 1332.8,592.0 1342.6,653.8 1350.9,710.9 1357.9,763.5 1363.6,811.8 1368.0,856.0 1371.2,896.4 1373.3,933.1 1374.2,966.3 1374.0,996.2 1372.7,1022.9 1370.4,1046.5 1367.0,1067.2 1362.5,1085.0 1356.9,1100.1 1350.3,1112.5 1342.6,1122.3 1333.7,1129.5 1323.7,1134.1 1312.5,1136.3 1300.1,1135.9 1286.3,1133.0 1271.2,1127.5 1254.7,1119.4 1236.7,1108.7 1217.1,1095.3 1195.9,1079.1 1172.9,1060.0 1148.1,1037.9 1121.3,1012.6 1092.5,984.2 1061.5,952.3 1028.3,916.8 992.5,877.6 954.3,834.5 913.3,787.2 869.4,735.5 822.6,679.2  A 1064.250,1064.250 0.00 0,0 819.8,681.5 L 819.8,681.5 866.8,737.6 910.9,789.2 952.0,836.3 990.4,879.3 1026.3,918.4 1059.7,953.8 1090.8,985.5 1119.7,1013.9 1146.6,1039.1 1171.4,1061.1 1194.5,1080.1 1215.8,1096.2 1235.4,1109.6 1253.4,1120.2 1270.0,1128.3 1285.1,1133.7 1298.8,1136.6 1311.3,1136.9 1322.5,1134.7 1332.5,1130.0 1341.3,1122.8 1349.0,1113.0 1355.6,1100.6 1361.1,1085.5 1365.5,1067.7 1368.8,1047.0 1371.1,1023.3 1372.3,996.7 1372.4,966.8 1371.4,933.6 1369.2,896.9 1365.8,856.5 1361.3,812.3 1355.4,764.0 1348.3,711.4 1339.8,654.4 1329.8,592.6 1318.3,525.8 1305.2,453.7  Z" style="stroke-width: 2.0;  stroke: rgb(82,82,82); fill: rgb(204,255,0); opacity: 0.667;" />
<path d="M 2023.843,573.600 A 1064.250,1064.250 0.00 0,1 2027.2,575.5 L 2027.2,575.5 1990.7,639.0 1956.3,697.4 1924.0,751.0 1893.7,800.1 1865.3,844.8 1838.6,885.5 1813.5,922.2 1790.1,955.2 1768.1,984.6 1747.5,1010.6 1728.2,1033.4 1710.1,1053.0 1693.3,1069.6 1677.4,1083.2 1662.7,1094.0 1648.8,1102.0 1635.9,1107.2 1623.9,1109.7 1612.6,1109.5 1602.1,1106.6 1592.4,1101.1 1583.3,1092.8 1574.8,1081.7 1567.0,1067.8 1559.8,1051.0 1553.1,1031.2 1547.0,1008.3 1541.5,982.2 1536.5,952.8 1532.0,919.9 1528.1,883.4 1524.8,843.1 1521.9,798.7 1519.7,750.1 1518.0,697.1 1516.9,639.5 1516.5,576.9 1516.7,509.1 1517.6,435.9  A 1064.250,1064.250 0.00 0,0 1513.7,435.8 L 1513.7,435.8 1513.1,509.1 1513.1,576.8 1513.8,639.4 1515.1,697.1 1516.9,750.1 1519.4,798.6 1522.4,843.0 1525.9,883.3 1529.9,919.8 1534.5,952.7 1539.6,982.1 1545.2,1008.1 1551.4,1031.0 1558.1,1050.8 1565.4,1067.5 1573.3,1081.4 1581.8,1092.5 1590.9,1100.7 1600.7,1106.3 1611.2,1109.1 1622.5,1109.3 1634.5,1106.7 1647.4,1101.4 1661.2,1093.4 1675.9,1082.6 1691.7,1068.9 1708.5,1052.2 1726.5,1032.5 1745.7,1009.7 1766.2,983.6 1788.1,954.1 1811.4,921.0 1836.3,884.2 1862.9,843.5 1891.2,798.6 1921.3,749.5 1953.4,695.7 1987.5,637.2 2023.8,573.6  Z" style="stroke-width: 2.0;  stroke: rgb(82,82,82); fill: rgb(0,255,0); opacity: 0.667;" />
<path d="M 1107.457,510.789 A 1064.250,1064.250 0.00 0,1 1110.1,509.7 L 1110.1,509.7 1136.9,577.9 1161.7,640.8 1184.5,698.8 1205.5,752.2 1224.7,801.1 1242.3,845.8 1258.2,886.4 1272.7,923.3 1285.7,956.4 1297.3,986.1 1307.5,1012.3 1316.5,1035.4 1324.3,1055.3 1330.8,1072.2 1336.2,1086.1 1340.4,1097.2 1343.6,1105.5 1345.6,1111.0 1346.6,1113.8 1346.4,1113.8 1345.2,1111.2 1342.9,1105.8 1339.5,1097.6 1335.0,1086.6 1329.3,1072.8 1322.5,1056.0 1314.5,1036.2 1305.2,1013.3 1294.6,987.1 1282.7,957.6 1269.4,924.6 1254.6,887.9 1238.3,847.4 1220.4,802.8 1200.8,754.1 1179.4,700.9 1156.1,643.0 1130.9,580.2 1103.7,512.3  A 1064.250,1064.250 0.00 0,0 1101.0,513.4 L 1101.0,513.4 1128.5,581.2 1153.8,643.9 1177.2,701.7 1198.8,754.9 1218.5,803.6 1236.5,848.1 1252.9,888.6 1267.8,925.2 1281.2,958.2 1293.2,987.7 1303.9,1013.8 1313.2,1036.7 1321.3,1056.5 1328.2,1073.2 1333.9,1087.1 1338.4,1098.0 1341.9,1106.2 1344.2,1111.6 1345.4,1114.2 1345.5,1114.2 1344.6,1111.4 1342.5,1105.9 1339.4,1097.6 1335.1,1086.6 1329.7,1072.6 1323.1,1055.8 1315.3,1035.9 1306.2,1012.9 1295.9,986.6 1284.2,957.0 1271.1,923.9 1256.6,887.1 1240.5,846.5 1222.8,801.8 1203.5,753.0 1182.4,699.7 1159.4,641.7 1134.5,578.8 1107.5,510.8  Z" style="stroke-width: 2.0;  stroke: rgb(82,82,82); fill: rgb(53,128,0); opacity: 0.667;" />
<path d="M 2015.592,568.983 A 1064.250,1064.250 0.00 0,1 2019.2,571.0 L 2019.2,571.0 1983.2,634.8 1949.4,693.5 1917.7,747.4 1887.8,796.8 1859.9,841.8 1833.6,882.6 1809.0,919.6 1786.0,952.8 1764.4,982.4 1744.2,1008.7 1725.3,1031.6 1707.7,1051.4 1691.1,1068.1 1675.7,1081.9 1661.3,1092.9 1647.8,1101.0 1635.3,1106.3 1623.6,1109.0 1612.7,1108.9 1602.5,1106.1 1593.1,1100.6 1584.4,1092.4 1576.3,1081.4 1568.9,1067.5 1562.0,1050.8 1555.8,1031.1 1550.1,1008.2 1545.0,982.2 1540.5,952.8 1536.5,920.0 1533.0,883.5 1530.1,843.1 1527.8,798.8 1526.1,750.3 1525.0,697.3 1524.5,639.6 1524.6,577.1 1525.5,509.3 1527.1,436.1  A 1064.250,1064.250 0.00 0,0 1522.9,436.0 L 1522.9,436.0 1521.6,509.2 1521.0,577.0 1521.1,639.6 1521.8,697.2 1523.2,750.2 1525.1,798.7 1527.6,843.0 1530.6,883.3 1534.2,919.8 1538.3,952.7 1543.0,982.0 1548.2,1008.0 1554.0,1030.8 1560.3,1050.5 1567.2,1067.3 1574.7,1081.1 1582.8,1092.1 1591.5,1100.3 1601.0,1105.7 1611.1,1108.4 1622.0,1108.5 1633.7,1105.8 1646.3,1100.4 1659.7,1092.2 1674.1,1081.3 1689.4,1067.4 1705.9,1050.6 1723.5,1030.7 1742.3,1007.7 1762.4,981.4 1783.8,951.7 1806.7,918.4 1831.2,881.3 1857.3,840.3 1885.1,795.2 1914.7,745.8 1946.3,691.8 1979.8,632.9 2015.6,569.0  Z" style="stroke-width: 2.0;  stroke: rgb(82,82,82); fill: rgb(0,0,204); opacity: 0.667;" />
</g>
<defs>
<pattern id="hline-sparse" width="10" height="10" patternTransform="rotate(0 0 0)" patternUnits="userSpaceOnUse"><line x1="0" y1="0" x2="10" y2="0" style="stroke:black;stroke-width:2" /></pattern>
<pattern id="checker" width="10" height="10" patternTransform="rotate(45 0 0)" patternUnits="userSpaceOnUse"><line x1="0" y1="0" x2="10" y2="0" style="stroke:black;stroke-width:2" /><line x1="0" y1="0" x2="0" y2="10" style="stroke:black;stroke-width:2" /></pattern>
<pattern id="checker" width="10" height="10" patternTransform="rotate(45 0 0)" patternUnits="userSpaceOnUse"><line x1="0" y1="0" x2="10" y2="0" style="stroke:black;stroke-width:5" /><line x1="0" y1="0" x2="0" y2="10" style="stroke:black;stroke-width:4" /></pattern>
<pattern id="hline" width="10" height="10" patternTransform="rotate(0 0 0)" patternUnits="userSpaceOnUse"><line x1="0" y1="0" x2="10" y2="0" style="stroke:black;stroke-width:5" /></pattern>
<pattern id="vline-sparse" width="10" height="10" patternTransform="rotate(0 0 0)" patternUnits="userSpaceOnUse"><line x1="0" y1="0" x2="0" y2="10" style="stroke:black;stroke-width:2" /></pattern>
<pattern id="vline" width="10" height="10" patternTransform="rotate(0 0 0)" patternUnits="userSpaceOnUse"><line x1="0" y1="0" x2="0" y2="10" style="stroke:black;stroke-width:5" /></pattern>
</defs>
</svg>
