<?xml version="1.0" encoding="utf-8" standalone="no"?>
<!DOCTYPE svg PUBLIC "-//W3C//DTD SVG 1.1//EN" "http://www.w3.org/Graphics/SVG/1.1/DTD/svg11.dtd">
<svg width="3000px" height="3000px" version="1.1" xmlns="http://www.w3.org/2000/svg" xmlns:xlink="http://www.w3.org/1999/xlink">
<g id="ideograms">
<path d="M1500.000,425.000 A1075.000,1075.000 40.000 0,1 1537.670,425.660 L1539.422,375.691 A1125.000,1125.000 0.000 0,0 1500.000,375.000 Z" style="stroke-linecap:round;fill:rgb(116,196,118);fill-opacity:0.33;" />
<text x="1530.8" y="285.4" font-size="18.2px" font-family="CMUBright-Roman" style="text-anchor:start;fill:rgb(0,0,0);" transform="rotate(271.0,1530.8,285.4)" >R<tspan baseline-shift="-40%" font-size="90%">s</tspan>caffold<tspan baseline-shift="-40%" font-size="90%">2</tspan>5</text>
<line x1='1500.0' y1='375.0' x2='1500.0' y2='355.0' style="stroke-width:4.0;stroke:rgb(0,0,0);stroke-linecap:round;fill:none;" />
<text x="1506.5" y="345.0" font-size="18.2px" font-family="CMUBright-Roman" style="text-anchor:start;fill:rgb(0,0,0);" transform="rotate(270.0,1506.5,345.0)" >0</text>
<g id="highlighttrack_0">
<path d="M1527.382,425.349 A1075.000,1075.000 40.000 0,1 1532.711,425.498 L1534.232,375.521 A1125.000,1125.000 0.000 0,0 1528.655,375.365 Z" style="stroke-width:4.0;stroke:rgb(0,0,0);stroke-linecap:round;fill:rgb(251,106,74);" />
</g>
<path d="M1603.096,429.955 A1075.000,1075.000 40.000 0,1 1607.710,430.410 L1612.720,380.661 A1125.000,1125.000 0.000 0,0 1607.891,380.186 Z" style="stroke-linecap:round;fill:rgb(116,196,118);fill-opacity:0.33;" />
<text x="1628.6" y="291.8" font-size="18.2px" font-family="CMUBright-Roman" style="text-anchor:start;fill:rgb(0,0,0);" transform="rotate(275.6,1628.6,291.8)" >R<tspan baseline-shift="-40%" font-size="90%">s</tspan>caffold<tspan baseline-shift="-40%" font-size="90%">2</tspan>9</text>
<line x1='1607.9' y1='380.2' x2='1609.8' y2='360.3' style="stroke-width:4.0;stroke:rgb(0,0,0);stroke-linecap:round;fill:none;" />
<text x="1617.2" y="351.0" font-size="18.2px" font-family="CMUBright-Roman" style="text-anchor:start;fill:rgb(0,0,0);" transform="rotate(275.5,1617.2,351.0)" >0</text>
<g id="highlighttrack_0">
<path d="M1603.378,429.982 A1075.000,1075.000 40.000 0,1 1607.639,430.402 L1612.645,380.654 A1125.000,1125.000 0.000 0,0 1608.187,380.214 Z" style="stroke-width:4.0;stroke:rgb(0,0,0);stroke-linecap:round;fill:rgb(116,196,118);" />
</g>
<path d="M1672.716,438.966 A1075.000,1075.000 40.000 1,1 1434.464,427.000 L1431.416,377.093 A1125.000,1125.000 0.000 1,0 1680.750,389.615 Z" style="stroke-linecap:round;fill:rgb(116,196,118);fill-opacity:0.33;" />
<text x="1448.5" y="2713.9" font-size="18.2px" font-family="CMUBright-Roman" style="text-anchor:end;fill:rgb(0,0,0);" transform="rotate(-87.1,1448.5,2713.9)" >NZ<tspan baseline-shift="-40%" font-size="90%">C</tspan>P041153.1</text>
<line x1='1680.7' y1='389.6' x2='1684.0' y2='369.9' style="stroke-width:4.0;stroke:rgb(0,0,0);stroke-linecap:round;fill:none;" />
<text x="1692.0" y="361.1" font-size="18.2px" font-family="CMUBright-Roman" style="text-anchor:start;fill:rgb(0,0,0);" transform="rotate(279.2,1692.0,361.1)" >0</text>
<line x1='1757.7' y1='404.9' x2='1762.3' y2='385.4' style="stroke-width:4.0;stroke:rgb(0,0,0);stroke-linecap:round;fill:none;" />
<text x="1770.9" y="377.2" font-size="18.2px" font-family="CMUBright-Roman" style="text-anchor:start;fill:rgb(0,0,0);" transform="rotate(283.2,1770.9,377.2)" >50</text>
<line x1='1833.4' y1='425.5' x2='1839.4' y2='406.4' style="stroke-width:4.0;stroke:rgb(0,0,0);stroke-linecap:round;fill:none;" />
<text x="1848.5" y="398.8" font-size="18.2px" font-family="CMUBright-Roman" style="text-anchor:start;fill:rgb(0,0,0);" transform="rotate(287.2,1848.5,398.8)" >100</text>
<line x1='1907.5' y1='451.4' x2='1914.8' y2='432.8' style="stroke-width:4.0;stroke:rgb(0,0,0);stroke-linecap:round;fill:none;" />
<text x="1924.4" y="425.8" font-size="18.2px" font-family="CMUBright-Roman" style="text-anchor:start;fill:rgb(0,0,0);" transform="rotate(291.2,1924.4,425.8)" >150</text>
<line x1='1979.6' y1='482.4' x2='1988.2' y2='464.3' style="stroke-width:4.0;stroke:rgb(0,0,0);stroke-linecap:round;fill:none;" />
<text x="1998.3" y="458.0" font-size="18.2px" font-family="CMUBright-Roman" style="text-anchor:start;fill:rgb(0,0,0);" transform="rotate(295.2,1998.3,458.0)" >200</text>
<line x1='2049.4' y1='518.3' x2='2059.2' y2='500.8' style="stroke-width:4.0;stroke:rgb(0,0,0);stroke-linecap:round;fill:none;" />
<text x="2069.7" y="495.3" font-size="18.2px" font-family="CMUBright-Roman" style="text-anchor:start;fill:rgb(0,0,0);" transform="rotate(299.2,2069.7,495.3)" >250</text>
<line x1='2116.5' y1='559.0' x2='2127.5' y2='542.2' style="stroke-width:4.0;stroke:rgb(0,0,0);stroke-linecap:round;fill:none;" />
<text x="2138.4" y="537.5" font-size="18.2px" font-family="CMUBright-Roman" style="text-anchor:start;fill:rgb(0,0,0);" transform="rotate(303.2,2138.4,537.5)" >300</text>
<line x1='2180.6' y1='604.2' x2='2192.7' y2='588.3' style="stroke-width:4.0;stroke:rgb(0,0,0);stroke-linecap:round;fill:none;" />
<text x="2203.9" y="584.3" font-size="18.2px" font-family="CMUBright-Roman" style="text-anchor:start;fill:rgb(0,0,0);" transform="rotate(307.2,2203.9,584.3)" >350</text>
<line x1='2241.4' y1='653.9' x2='2254.6' y2='638.8' style="stroke-width:4.0;stroke:rgb(0,0,0);stroke-linecap:round;fill:none;" />
<text x="2266.0" y="635.6" font-size="18.2px" font-family="CMUBright-Roman" style="text-anchor:start;fill:rgb(0,0,0);" transform="rotate(311.2,2266.0,635.6)" >400</text>
<line x1='2298.6' y1='707.6' x2='2312.8' y2='693.5' style="stroke-width:4.0;stroke:rgb(0,0,0);stroke-linecap:round;fill:none;" />
<text x="2324.4" y="691.1" font-size="18.2px" font-family="CMUBright-Roman" style="text-anchor:start;fill:rgb(0,0,0);" transform="rotate(315.2,2324.4,691.1)" >450</text>
<line x1='2351.9' y1='765.2' x2='2367.0' y2='752.1' style="stroke-width:4.0;stroke:rgb(0,0,0);stroke-linecap:round;fill:none;" />
<text x="2378.8" y="750.5" font-size="18.2px" font-family="CMUBright-Roman" style="text-anchor:start;fill:rgb(0,0,0);" transform="rotate(319.2,2378.8,750.5)" >500</text>
<line x1='2401.0' y1='826.4' x2='2417.0' y2='814.4' style="stroke-width:4.0;stroke:rgb(0,0,0);stroke-linecap:round;fill:none;" />
<text x="2428.9" y="813.6" font-size="18.2px" font-family="CMUBright-Roman" style="text-anchor:start;fill:rgb(0,0,0);" transform="rotate(323.2,2428.9,813.6)" >550</text>
<line x1='2445.8' y1='890.8' x2='2462.6' y2='880.0' style="stroke-width:4.0;stroke:rgb(0,0,0);stroke-linecap:round;fill:none;" />
<text x="2474.5" y="880.1" font-size="18.2px" font-family="CMUBright-Roman" style="text-anchor:start;fill:rgb(0,0,0);" transform="rotate(327.2,2474.5,880.1)" >600</text>
<line x1='2486.0' y1='958.2' x2='2503.5' y2='948.6' style="stroke-width:4.0;stroke:rgb(0,0,0);stroke-linecap:round;fill:none;" />
<text x="2515.4" y="949.5" font-size="18.2px" font-family="CMUBright-Roman" style="text-anchor:start;fill:rgb(0,0,0);" transform="rotate(331.2,2515.4,949.5)" >650</text>
<line x1='2521.3' y1='1028.3' x2='2539.5' y2='1019.9' style="stroke-width:4.0;stroke:rgb(0,0,0);stroke-linecap:round;fill:none;" />
<text x="2551.3" y="1021.6" font-size="18.2px" font-family="CMUBright-Roman" style="text-anchor:start;fill:rgb(0,0,0);" transform="rotate(335.2,2551.3,1021.6)" >700</text>
<line x1='2551.7' y1='1100.6' x2='2570.4' y2='1093.5' style="stroke-width:4.0;stroke:rgb(0,0,0);stroke-linecap:round;fill:none;" />
<text x="2582.1" y="1096.1" font-size="18.2px" font-family="CMUBright-Roman" style="text-anchor:start;fill:rgb(0,0,0);" transform="rotate(339.2,2582.1,1096.1)" >750</text>
<line x1='2577.0' y1='1174.9' x2='2596.2' y2='1169.2' style="stroke-width:4.0;stroke:rgb(0,0,0);stroke-linecap:round;fill:none;" />
<text x="2607.6" y="1172.5" font-size="18.2px" font-family="CMUBright-Roman" style="text-anchor:start;fill:rgb(0,0,0);" transform="rotate(343.2,2607.6,1172.5)" >800</text>
<line x1='2597.1' y1='1250.8' x2='2616.6' y2='1246.4' style="stroke-width:4.0;stroke:rgb(0,0,0);stroke-linecap:round;fill:none;" />
<text x="2627.7" y="1250.5" font-size="18.2px" font-family="CMUBright-Roman" style="text-anchor:start;fill:rgb(0,0,0);" transform="rotate(347.2,2627.7,1250.5)" >850</text>
<line x1='2611.8' y1='1327.9' x2='2631.5' y2='1324.8' style="stroke-width:4.0;stroke:rgb(0,0,0);stroke-linecap:round;fill:none;" />
<text x="2642.4" y="1329.7" font-size="18.2px" font-family="CMUBright-Roman" style="text-anchor:start;fill:rgb(0,0,0);" transform="rotate(351.2,2642.4,1329.7)" >900</text>
<line x1='2621.1' y1='1405.8' x2='2641.0' y2='1404.1' style="stroke-width:4.0;stroke:rgb(0,0,0);stroke-linecap:round;fill:none;" />
<text x="2651.5" y="1409.8" font-size="18.2px" font-family="CMUBright-Roman" style="text-anchor:start;fill:rgb(0,0,0);" transform="rotate(355.2,2651.5,1409.8)" >950</text>
<line x1='2624.9' y1='1484.2' x2='2644.9' y2='1483.9' style="stroke-width:4.0;stroke:rgb(0,0,0);stroke-linecap:round;fill:none;" />
<text x="2655.0" y="1490.3" font-size="18.2px" font-family="CMUBright-Roman" style="text-anchor:start;fill:rgb(0,0,0);" transform="rotate(359.2,2655.0,1490.3)" >1000</text>
<line x1='2623.3' y1='1562.6' x2='2643.2' y2='1563.8' style="stroke-width:4.0;stroke:rgb(0,0,0);stroke-linecap:round;fill:none;" />
<text x="2652.8" y="1570.8" font-size="18.2px" font-family="CMUBright-Roman" style="text-anchor:start;fill:rgb(0,0,0);" transform="rotate(3.2,2652.8,1570.8)" >1050</text>
<line x1='2616.2' y1='1640.8' x2='2636.0' y2='1643.3' style="stroke-width:4.0;stroke:rgb(0,0,0);stroke-linecap:round;fill:none;" />
<text x="2645.1" y="1651.0" font-size="18.2px" font-family="CMUBright-Roman" style="text-anchor:start;fill:rgb(0,0,0);" transform="rotate(7.2,2645.1,1651.0)" >1100</text>
<line x1='2603.6' y1='1718.3' x2='2623.2' y2='1722.1' style="stroke-width:4.0;stroke:rgb(0,0,0);stroke-linecap:round;fill:none;" />
<text x="2631.8" y="1730.5" font-size="18.2px" font-family="CMUBright-Roman" style="text-anchor:start;fill:rgb(0,0,0);" transform="rotate(11.2,2631.8,1730.5)" >1150</text>
<line x1='2585.7' y1='1794.7' x2='2605.0' y2='1799.9' style="stroke-width:4.0;stroke:rgb(0,0,0);stroke-linecap:round;fill:none;" />
<text x="2613.0" y="1808.8" font-size="18.2px" font-family="CMUBright-Roman" style="text-anchor:start;fill:rgb(0,0,0);" transform="rotate(15.2,2613.0,1808.8)" >1200</text>
<line x1='2562.5' y1='1869.6' x2='2581.4' y2='1876.2' style="stroke-width:4.0;stroke:rgb(0,0,0);stroke-linecap:round;fill:none;" />
<text x="2588.7" y="1885.6" font-size="18.2px" font-family="CMUBright-Roman" style="text-anchor:start;fill:rgb(0,0,0);" transform="rotate(19.2,2588.7,1885.6)" >1250</text>
<line x1='2534.2' y1='1942.8' x2='2552.6' y2='1950.7' style="stroke-width:4.0;stroke:rgb(0,0,0);stroke-linecap:round;fill:none;" />
<text x="2559.2" y="1960.6" font-size="18.2px" font-family="CMUBright-Roman" style="text-anchor:start;fill:rgb(0,0,0);" transform="rotate(23.2,2559.2,1960.6)" >1300</text>
<line x1='2500.8' y1='2013.8' x2='2518.6' y2='2023.0' style="stroke-width:4.0;stroke:rgb(0,0,0);stroke-linecap:round;fill:none;" />
<text x="2524.5" y="2033.3" font-size="18.2px" font-family="CMUBright-Roman" style="text-anchor:start;fill:rgb(0,0,0);" transform="rotate(27.2,2524.5,2033.3)" >1350</text>
<line x1='2462.5' y1='2082.4' x2='2479.7' y2='2092.7' style="stroke-width:4.0;stroke:rgb(0,0,0);stroke-linecap:round;fill:none;" />
<text x="2484.8" y="2103.4" font-size="18.2px" font-family="CMUBright-Roman" style="text-anchor:start;fill:rgb(0,0,0);" transform="rotate(31.2,2484.8,2103.4)" >1400</text>
<line x1='2419.6' y1='2148.0' x2='2436.0' y2='2159.6' style="stroke-width:4.0;stroke:rgb(0,0,0);stroke-linecap:round;fill:none;" />
<text x="2440.4" y="2170.6" font-size="18.2px" font-family="CMUBright-Roman" style="text-anchor:start;fill:rgb(0,0,0);" transform="rotate(35.2,2440.4,2170.6)" >1450</text>
<line x1='2372.2' y1='2210.6' x2='2387.7' y2='2223.2' style="stroke-width:4.0;stroke:rgb(0,0,0);stroke-linecap:round;fill:none;" />
<text x="2391.3" y="2234.5" font-size="18.2px" font-family="CMUBright-Roman" style="text-anchor:start;fill:rgb(0,0,0);" transform="rotate(39.2,2391.3,2234.5)" >1500</text>
<line x1='2320.5' y1='2269.6' x2='2335.1' y2='2283.3' style="stroke-width:4.0;stroke:rgb(0,0,0);stroke-linecap:round;fill:none;" />
<text x="2338.0" y="2294.9" font-size="18.2px" font-family="CMUBright-Roman" style="text-anchor:start;fill:rgb(0,0,0);" transform="rotate(43.2,2338.0,2294.9)" >1550</text>
<line x1='2264.9' y1='2325.0' x2='2278.5' y2='2339.6' style="stroke-width:4.0;stroke:rgb(0,0,0);stroke-linecap:round;fill:none;" />
<text x="2280.5" y="2351.4" font-size="18.2px" font-family="CMUBright-Roman" style="text-anchor:start;fill:rgb(0,0,0);" transform="rotate(47.2,2280.5,2351.4)" >1600</text>
<line x1='2205.5' y1='2376.3' x2='2218.1' y2='2391.9' style="stroke-width:4.0;stroke:rgb(0,0,0);stroke-linecap:round;fill:none;" />
<text x="2219.3" y="2403.7" font-size="18.2px" font-family="CMUBright-Roman" style="text-anchor:start;fill:rgb(0,0,0);" transform="rotate(51.2,2219.3,2403.7)" >1650</text>
<line x1='2142.7' y1='2423.3' x2='2154.1' y2='2439.8' style="stroke-width:4.0;stroke:rgb(0,0,0);stroke-linecap:round;fill:none;" />
<text x="2154.5" y="2451.7" font-size="18.2px" font-family="CMUBright-Roman" style="text-anchor:start;fill:rgb(0,0,0);" transform="rotate(55.2,2154.5,2451.7)" >1700</text>
<line x1='2076.8' y1='2465.9' x2='2087.0' y2='2483.1' style="stroke-width:4.0;stroke:rgb(0,0,0);stroke-linecap:round;fill:none;" />
<text x="2086.6" y="2495.0" font-size="18.2px" font-family="CMUBright-Roman" style="text-anchor:start;fill:rgb(0,0,0);" transform="rotate(59.2,2086.6,2495.0)" >1750</text>
<line x1='2008.0' y1='2503.8' x2='2017.1' y2='2521.6' style="stroke-width:4.0;stroke:rgb(0,0,0);stroke-linecap:round;fill:none;" />
<text x="2015.8" y="2533.4" font-size="18.2px" font-family="CMUBright-Roman" style="text-anchor:start;fill:rgb(0,0,0);" transform="rotate(63.2,2015.8,2533.4)" >1800</text>
<line x1='1936.8' y1='2536.7' x2='1944.6' y2='2555.2' style="stroke-width:4.0;stroke:rgb(0,0,0);stroke-linecap:round;fill:none;" />
<text x="1942.5" y="2566.9" font-size="18.2px" font-family="CMUBright-Roman" style="text-anchor:start;fill:rgb(0,0,0);" transform="rotate(67.2,1942.5,2566.9)" >1850</text>
<line x1='1863.5' y1='2564.7' x2='1870.0' y2='2583.6' style="stroke-width:4.0;stroke:rgb(0,0,0);stroke-linecap:round;fill:none;" />
<text x="1867.0" y="2595.1" font-size="18.2px" font-family="CMUBright-Roman" style="text-anchor:start;fill:rgb(0,0,0);" transform="rotate(71.1,1867.0,2595.1)" >1900</text>
<line x1='1788.4' y1='2587.4' x2='1793.5' y2='2606.7' style="stroke-width:4.0;stroke:rgb(0,0,0);stroke-linecap:round;fill:none;" />
<text x="1789.8" y="2618.1" font-size="18.2px" font-family="CMUBright-Roman" style="text-anchor:start;fill:rgb(0,0,0);" transform="rotate(75.1,1789.8,2618.1)" >1950</text>
<line x1='1711.9' y1='2604.9' x2='1715.6' y2='2624.5' style="stroke-width:4.0;stroke:rgb(0,0,0);stroke-linecap:round;fill:none;" />
<text x="1711.1" y="2635.5" font-size="18.2px" font-family="CMUBright-Roman" style="text-anchor:start;fill:rgb(0,0,0);" transform="rotate(79.1,1711.1,2635.5)" >2000</text>
<line x1='1634.3' y1='2617.0' x2='1636.7' y2='2636.8' style="stroke-width:4.0;stroke:rgb(0,0,0);stroke-linecap:round;fill:none;" />
<text x="1631.5" y="2647.5" font-size="18.2px" font-family="CMUBright-Roman" style="text-anchor:start;fill:rgb(0,0,0);" transform="rotate(83.1,1631.5,2647.5)" >2050</text>
<line x1='1556.1' y1='2623.6' x2='1557.1' y2='2643.6' style="stroke-width:4.0;stroke:rgb(0,0,0);stroke-linecap:round;fill:none;" />
<text x="1551.2" y="2653.9" font-size="18.2px" font-family="CMUBright-Roman" style="text-anchor:start;fill:rgb(0,0,0);" transform="rotate(87.1,1551.2,2653.9)" >2100</text>
<line x1='1477.7' y1='2624.8' x2='1477.3' y2='2644.8' style="stroke-width:4.0;stroke:rgb(0,0,0);stroke-linecap:round;fill:none;" />
<text x="1483.6" y="2654.9" font-size="18.2px" font-family="CMUBright-Roman" style="text-anchor:end;fill:rgb(0,0,0);" transform="rotate(-88.9,1483.6,2654.9)" >2150</text>
<line x1='1399.3' y1='2620.5' x2='1397.5' y2='2640.4' style="stroke-width:4.0;stroke:rgb(0,0,0);stroke-linecap:round;fill:none;" />
<text x="1403.1" y="2650.9" font-size="18.2px" font-family="CMUBright-Roman" style="text-anchor:end;fill:rgb(0,0,0);" transform="rotate(-84.9,1403.1,2650.9)" >2200</text>
<line x1='1321.5' y1='2610.7' x2='1318.3' y2='2630.5' style="stroke-width:4.0;stroke:rgb(0,0,0);stroke-linecap:round;fill:none;" />
<text x="1323.1" y="2641.4" font-size="18.2px" font-family="CMUBright-Roman" style="text-anchor:end;fill:rgb(0,0,0);" transform="rotate(-80.9,1323.1,2641.4)" >2250</text>
<line x1='1244.5' y1='2595.6' x2='1239.9' y2='2615.1' style="stroke-width:4.0;stroke:rgb(0,0,0);stroke-linecap:round;fill:none;" />
<text x="1244.0" y="2626.3" font-size="18.2px" font-family="CMUBright-Roman" style="text-anchor:end;fill:rgb(0,0,0);" transform="rotate(-76.9,1244.0,2626.3)" >2300</text>
<line x1='1168.7' y1='2575.1' x2='1162.8' y2='2594.2' style="stroke-width:4.0;stroke:rgb(0,0,0);stroke-linecap:round;fill:none;" />
<text x="1166.1" y="2605.7" font-size="18.2px" font-family="CMUBright-Roman" style="text-anchor:end;fill:rgb(0,0,0);" transform="rotate(-72.9,1166.1,2605.7)" >2350</text>
<line x1='1094.6' y1='2549.4' x2='1087.4' y2='2568.1' style="stroke-width:4.0;stroke:rgb(0,0,0);stroke-linecap:round;fill:none;" />
<text x="1089.8" y="2579.7" font-size="18.2px" font-family="CMUBright-Roman" style="text-anchor:end;fill:rgb(0,0,0);" transform="rotate(-68.9,1089.8,2579.7)" >2400</text>
<line x1='1022.4' y1='2518.6' x2='1013.9' y2='2536.7' style="stroke-width:4.0;stroke:rgb(0,0,0);stroke-linecap:round;fill:none;" />
<text x="1015.6" y="2548.5" font-size="18.2px" font-family="CMUBright-Roman" style="text-anchor:end;fill:rgb(0,0,0);" transform="rotate(-64.9,1015.6,2548.5)" >2450</text>
<line x1='952.5' y1='2482.8' x2='942.8' y2='2500.3' style="stroke-width:4.0;stroke:rgb(0,0,0);stroke-linecap:round;fill:none;" />
<text x="943.6" y="2512.2" font-size="18.2px" font-family="CMUBright-Roman" style="text-anchor:end;fill:rgb(0,0,0);" transform="rotate(-60.9,943.6,2512.2)" >2500</text>
<line x1='885.4' y1='2442.3' x2='874.4' y2='2459.0' style="stroke-width:4.0;stroke:rgb(0,0,0);stroke-linecap:round;fill:none;" />
<text x="874.4" y="2470.9" font-size="18.2px" font-family="CMUBright-Roman" style="text-anchor:end;fill:rgb(0,0,0);" transform="rotate(-56.9,874.4,2470.9)" >2550</text>
<line x1='821.2' y1='2397.1' x2='809.1' y2='2413.1' style="stroke-width:4.0;stroke:rgb(0,0,0);stroke-linecap:round;fill:none;" />
<text x="808.3" y="2424.9" font-size="18.2px" font-family="CMUBright-Roman" style="text-anchor:end;fill:rgb(0,0,0);" transform="rotate(-52.9,808.3,2424.9)" >2600</text>
<line x1='760.3' y1='2347.6' x2='747.1' y2='2362.7' style="stroke-width:4.0;stroke:rgb(0,0,0);stroke-linecap:round;fill:none;" />
<text x="745.5" y="2374.5" font-size="18.2px" font-family="CMUBright-Roman" style="text-anchor:end;fill:rgb(0,0,0);" transform="rotate(-48.9,745.5,2374.5)" >2650</text>
<line x1='703.0' y1='2294.0' x2='688.8' y2='2308.1' style="stroke-width:4.0;stroke:rgb(0,0,0);stroke-linecap:round;fill:none;" />
<text x="686.3" y="2319.7" font-size="18.2px" font-family="CMUBright-Roman" style="text-anchor:end;fill:rgb(0,0,0);" transform="rotate(-44.9,686.3,2319.7)" >2700</text>
<line x1='649.6' y1='2236.5' x2='634.5' y2='2249.6' style="stroke-width:4.0;stroke:rgb(0,0,0);stroke-linecap:round;fill:none;" />
<text x="631.2" y="2261.0" font-size="18.2px" font-family="CMUBright-Roman" style="text-anchor:end;fill:rgb(0,0,0);" transform="rotate(-40.9,631.2,2261.0)" >2750</text>
<line x1='600.3' y1='2175.4' x2='584.3' y2='2187.4' style="stroke-width:4.0;stroke:rgb(0,0,0);stroke-linecap:round;fill:none;" />
<text x="580.2" y="2198.6" font-size="18.2px" font-family="CMUBright-Roman" style="text-anchor:end;fill:rgb(0,0,0);" transform="rotate(-36.9,580.2,2198.6)" >2800</text>
<line x1='555.4' y1='2111.1' x2='538.6' y2='2121.9' style="stroke-width:4.0;stroke:rgb(0,0,0);stroke-linecap:round;fill:none;" />
<text x="533.8" y="2132.8" font-size="18.2px" font-family="CMUBright-Roman" style="text-anchor:end;fill:rgb(0,0,0);" transform="rotate(-32.9,533.8,2132.8)" >2850</text>
<line x1='515.1' y1='2043.7' x2='497.6' y2='2053.4' style="stroke-width:4.0;stroke:rgb(0,0,0);stroke-linecap:round;fill:none;" />
<text x="492.0" y="2063.9" font-size="18.2px" font-family="CMUBright-Roman" style="text-anchor:end;fill:rgb(0,0,0);" transform="rotate(-28.9,492.0,2063.9)" >2900</text>
<line x1='479.6' y1='1973.7' x2='461.5' y2='1982.2' style="stroke-width:4.0;stroke:rgb(0,0,0);stroke-linecap:round;fill:none;" />
<text x="455.2" y="1992.3" font-size="18.2px" font-family="CMUBright-Roman" style="text-anchor:end;fill:rgb(0,0,0);" transform="rotate(-24.9,455.2,1992.3)" >2950</text>
<line x1='449.1' y1='1901.4' x2='430.4' y2='1908.6' style="stroke-width:4.0;stroke:rgb(0,0,0);stroke-linecap:round;fill:none;" />
<text x="423.4" y="1918.2" font-size="18.2px" font-family="CMUBright-Roman" style="text-anchor:end;fill:rgb(0,0,0);" transform="rotate(-20.9,423.4,1918.2)" >3000</text>
<line x1='423.6' y1='1827.2' x2='404.5' y2='1833.0' style="stroke-width:4.0;stroke:rgb(0,0,0);stroke-linecap:round;fill:none;" />
<text x="396.8" y="1842.1" font-size="18.2px" font-family="CMUBright-Roman" style="text-anchor:end;fill:rgb(0,0,0);" transform="rotate(-16.9,396.8,1842.1)" >3050</text>
<line x1='403.4' y1='1751.4' x2='383.9' y2='1755.8' style="stroke-width:4.0;stroke:rgb(0,0,0);stroke-linecap:round;fill:none;" />
<text x="375.7" y="1764.4" font-size="18.2px" font-family="CMUBright-Roman" style="text-anchor:end;fill:rgb(0,0,0);" transform="rotate(-12.9,375.7,1764.4)" >3100</text>
<line x1='388.6' y1='1674.3' x2='368.8' y2='1677.4' style="stroke-width:4.0;stroke:rgb(0,0,0);stroke-linecap:round;fill:none;" />
<text x="360.0" y="1685.4" font-size="18.2px" font-family="CMUBright-Roman" style="text-anchor:end;fill:rgb(0,0,0);" transform="rotate(-8.9,360.0,1685.4)" >3150</text>
<line x1='379.1' y1='1596.4' x2='359.2' y2='1598.1' style="stroke-width:4.0;stroke:rgb(0,0,0);stroke-linecap:round;fill:none;" />
<text x="349.8" y="1605.5" font-size="18.2px" font-family="CMUBright-Roman" style="text-anchor:end;fill:rgb(0,0,0);" transform="rotate(-4.9,349.8,1605.5)" >3200</text>
<line x1='375.1' y1='1518.0' x2='355.1' y2='1518.4' style="stroke-width:4.0;stroke:rgb(0,0,0);stroke-linecap:round;fill:none;" />
<text x="345.3" y="1525.0" font-size="18.2px" font-family="CMUBright-Roman" style="text-anchor:end;fill:rgb(0,0,0);" transform="rotate(-0.9,345.3,1525.0)" >3250</text>
<line x1='376.6' y1='1439.6' x2='356.7' y2='1438.5' style="stroke-width:4.0;stroke:rgb(0,0,0);stroke-linecap:round;fill:none;" />
<text x="346.3" y="1444.5" font-size="18.2px" font-family="CMUBright-Roman" style="text-anchor:end;fill:rgb(0,0,0);" transform="rotate(3.1,346.3,1444.5)" >3300</text>
<line x1='383.6' y1='1361.4' x2='363.7' y2='1359.0' style="stroke-width:4.0;stroke:rgb(0,0,0);stroke-linecap:round;fill:none;" />
<text x="353.0" y="1364.2" font-size="18.2px" font-family="CMUBright-Roman" style="text-anchor:end;fill:rgb(0,0,0);" transform="rotate(7.1,353.0,1364.2)" >3350</text>
<line x1='395.9' y1='1283.9' x2='376.3' y2='1280.1' style="stroke-width:4.0;stroke:rgb(0,0,0);stroke-linecap:round;fill:none;" />
<text x="365.3" y="1284.5" font-size="18.2px" font-family="CMUBright-Roman" style="text-anchor:end;fill:rgb(0,0,0);" transform="rotate(11.1,365.3,1284.5)" >3400</text>
<line x1='413.7' y1='1207.5' x2='394.4' y2='1202.3' style="stroke-width:4.0;stroke:rgb(0,0,0);stroke-linecap:round;fill:none;" />
<text x="383.1" y="1206.0" font-size="18.2px" font-family="CMUBright-Roman" style="text-anchor:end;fill:rgb(0,0,0);" transform="rotate(15.1,383.1,1206.0)" >3450</text>
<line x1='436.7' y1='1132.5' x2='417.8' y2='1125.9' style="stroke-width:4.0;stroke:rgb(0,0,0);stroke-linecap:round;fill:none;" />
<text x="406.3" y="1128.8" font-size="18.2px" font-family="CMUBright-Roman" style="text-anchor:end;fill:rgb(0,0,0);" transform="rotate(19.1,406.3,1128.8)" >3500</text>
<line x1='464.9' y1='1059.2' x2='446.5' y2='1051.4' style="stroke-width:4.0;stroke:rgb(0,0,0);stroke-linecap:round;fill:none;" />
<text x="434.8" y="1053.5" font-size="18.2px" font-family="CMUBright-Roman" style="text-anchor:end;fill:rgb(0,0,0);" transform="rotate(23.1,434.8,1053.5)" >3550</text>
<line x1='498.2' y1='988.2' x2='480.4' y2='979.1' style="stroke-width:4.0;stroke:rgb(0,0,0);stroke-linecap:round;fill:none;" />
<text x="468.5" y="980.3" font-size="18.2px" font-family="CMUBright-Roman" style="text-anchor:end;fill:rgb(0,0,0);" transform="rotate(27.1,468.5,980.3)" >3600</text>
<line x1='536.3' y1='919.6' x2='519.2' y2='909.2' style="stroke-width:4.0;stroke:rgb(0,0,0);stroke-linecap:round;fill:none;" />
<text x="507.3" y="909.7" font-size="18.2px" font-family="CMUBright-Roman" style="text-anchor:end;fill:rgb(0,0,0);" transform="rotate(31.1,507.3,909.7)" >3650</text>
<line x1='579.1' y1='853.8' x2='562.7' y2='842.3' style="stroke-width:4.0;stroke:rgb(0,0,0);stroke-linecap:round;fill:none;" />
<text x="550.8" y="841.9" font-size="18.2px" font-family="CMUBright-Roman" style="text-anchor:end;fill:rgb(0,0,0);" transform="rotate(35.1,550.8,841.9)" >3700</text>
<line x1='626.4' y1='791.2' x2='610.9' y2='778.6' style="stroke-width:4.0;stroke:rgb(0,0,0);stroke-linecap:round;fill:none;" />
<text x="599.0" y="777.3" font-size="18.2px" font-family="CMUBright-Roman" style="text-anchor:end;fill:rgb(0,0,0);" transform="rotate(39.1,599.0,777.3)" >3750</text>
<line x1='677.9' y1='732.0' x2='663.3' y2='718.3' style="stroke-width:4.0;stroke:rgb(0,0,0);stroke-linecap:round;fill:none;" />
<text x="651.6" y="716.3" font-size="18.2px" font-family="CMUBright-Roman" style="text-anchor:end;fill:rgb(0,0,0);" transform="rotate(43.1,651.6,716.3)" >3800</text>
<line x1='733.5' y1='676.6' x2='719.9' y2='661.9' style="stroke-width:4.0;stroke:rgb(0,0,0);stroke-linecap:round;fill:none;" />
<text x="708.3" y="659.0" font-size="18.2px" font-family="CMUBright-Roman" style="text-anchor:end;fill:rgb(0,0,0);" transform="rotate(47.1,708.3,659.0)" >3850</text>
<line x1='792.7' y1='625.1' x2='780.2' y2='609.6' style="stroke-width:4.0;stroke:rgb(0,0,0);stroke-linecap:round;fill:none;" />
<text x="768.8" y="605.9" font-size="18.2px" font-family="CMUBright-Roman" style="text-anchor:end;fill:rgb(0,0,0);" transform="rotate(51.0,768.8,605.9)" >3900</text>
<line x1='855.5' y1='577.9' x2='844.0' y2='561.6' style="stroke-width:4.0;stroke:rgb(0,0,0);stroke-linecap:round;fill:none;" />
<text x="833.0" y="557.1" font-size="18.2px" font-family="CMUBright-Roman" style="text-anchor:end;fill:rgb(0,0,0);" transform="rotate(55.0,833.0,557.1)" >3950</text>
<line x1='921.3' y1='535.3' x2='911.0' y2='518.1' style="stroke-width:4.0;stroke:rgb(0,0,0);stroke-linecap:round;fill:none;" />
<text x="900.3" y="512.9" font-size="18.2px" font-family="CMUBright-Roman" style="text-anchor:end;fill:rgb(0,0,0);" transform="rotate(59.0,900.3,512.9)" >4000</text>
<line x1='990.0' y1='497.3' x2='980.9' y2='479.4' style="stroke-width:4.0;stroke:rgb(0,0,0);stroke-linecap:round;fill:none;" />
<text x="970.6" y="473.5" font-size="18.2px" font-family="CMUBright-Roman" style="text-anchor:end;fill:rgb(0,0,0);" transform="rotate(63.0,970.6,473.5)" >4050</text>
<line x1='1061.1' y1='464.1' x2='1053.3' y2='445.7' style="stroke-width:4.0;stroke:rgb(0,0,0);stroke-linecap:round;fill:none;" />
<text x="1043.4" y="439.1" font-size="18.2px" font-family="CMUBright-Roman" style="text-anchor:end;fill:rgb(0,0,0);" transform="rotate(67.0,1043.4,439.1)" >4100</text>
<line x1='1134.4' y1='436.1' x2='1127.9' y2='417.2' style="stroke-width:4.0;stroke:rgb(0,0,0);stroke-linecap:round;fill:none;" />
<text x="1118.5" y="409.8" font-size="18.2px" font-family="CMUBright-Roman" style="text-anchor:end;fill:rgb(0,0,0);" transform="rotate(71.0,1118.5,409.8)" >4150</text>
<line x1='1209.5' y1='413.2' x2='1204.3' y2='393.8' style="stroke-width:4.0;stroke:rgb(0,0,0);stroke-linecap:round;fill:none;" />
<text x="1195.4" y="385.9" font-size="18.2px" font-family="CMUBright-Roman" style="text-anchor:end;fill:rgb(0,0,0);" transform="rotate(75.0,1195.4,385.9)" >4200</text>
<line x1='1285.9' y1='395.6' x2='1282.1' y2='375.9' style="stroke-width:4.0;stroke:rgb(0,0,0);stroke-linecap:round;fill:none;" />
<text x="1273.8" y="367.4" font-size="18.2px" font-family="CMUBright-Roman" style="text-anchor:end;fill:rgb(0,0,0);" transform="rotate(79.0,1273.8,367.4)" >4250</text>
<line x1='1363.4' y1='383.3' x2='1361.0' y2='363.5' style="stroke-width:4.0;stroke:rgb(0,0,0);stroke-linecap:round;fill:none;" />
<text x="1353.3" y="354.3" font-size="18.2px" font-family="CMUBright-Roman" style="text-anchor:end;fill:rgb(0,0,0);" transform="rotate(83.0,1353.3,354.3)" >4300</text>
<g id="highlighttrack_0">
<path d="M1879.129,494.075 A1075.000,1075.000 40.000 0,1 1883.193,495.615 L1901.016,448.900 A1125.000,1125.000 0.000 0,0 1896.763,447.287 Z" style="stroke-width:4.0;stroke:rgb(0,0,0);stroke-linecap:round;fill:rgb(116,196,118);" />
<path d="M1951.322,524.329 A1075.000,1075.000 40.000 0,1 1955.262,526.161 L1976.437,480.867 A1125.000,1125.000 0.000 0,0 1972.313,478.949 Z" style="stroke-width:4.0;stroke:rgb(0,0,0);stroke-linecap:round;fill:rgb(116,196,118);" />
<path d="M2574.770,1477.753 A1075.000,1075.000 40.000 0,1 2574.851,1482.098 L2624.844,1481.265 A1125.000,1125.000 0.000 0,0 2624.759,1476.718 Z" style="stroke-width:4.0;stroke:rgb(0,0,0);stroke-linecap:round;fill:rgb(116,196,118);" />
<path d="M2140.552,2363.318 A1075.000,1075.000 40.000 0,1 2137.056,2365.901 L2166.687,2406.175 A1125.000,1125.000 0.000 0,0 2170.345,2403.473 Z" style="stroke-width:4.0;stroke:rgb(0,0,0);stroke-linecap:round;fill:rgb(116,196,118);" />
<path d="M763.111,717.300 A1075.000,1075.000 40.000 0,1 766.202,714.401 L732.072,677.862 A1125.000,1125.000 0.000 0,0 728.837,680.895 Z" style="stroke-width:4.0;stroke:rgb(0,0,0);stroke-linecap:round;fill:rgb(251,106,74);" />
<path d="M770.889,710.049 A1075.000,1075.000 40.000 0,1 774.089,707.108 L740.325,670.229 A1125.000,1125.000 0.000 0,0 736.977,673.307 Z" style="stroke-width:4.0;stroke:rgb(0,0,0);stroke-linecap:round;fill:rgb(251,106,74);" />
<path d="M1253.702,453.596 A1075.000,1075.000 40.000 0,1 1257.841,452.630 L1246.578,403.915 A1125.000,1125.000 0.000 0,0 1242.246,404.926 Z" style="stroke-width:4.0;stroke:rgb(0,0,0);stroke-linecap:round;fill:rgb(251,106,74);" />
<path d="M1370.343,432.848 A1075.000,1075.000 40.000 0,1 1374.551,432.345 L1368.716,382.686 A1125.000,1125.000 0.000 0,0 1364.313,383.213 Z" style="stroke-width:4.0;stroke:rgb(0,0,0);stroke-linecap:round;fill:rgb(251,106,74);" />
<path d="M844.633,647.873 A1075.000,1075.000 40.000 0,1 847.218,645.892 L816.856,606.166 A1125.000,1125.000 0.000 0,0 814.151,608.240 Z" style="stroke-width:4.0;stroke:rgb(0,0,0);stroke-linecap:round;fill:rgb(251,106,74);" />
<path d="M1146.823,484.672 A1075.000,1075.000 40.000 0,1 1149.899,483.607 L1133.615,436.333 A1125.000,1125.000 0.000 0,0 1130.396,437.448 Z" style="stroke-width:4.0;stroke:rgb(0,0,0);stroke-linecap:round;fill:rgb(116,196,118);" />
<path d="M1919.086,510.054 A1075.000,1075.000 40.000 0,1 1923.990,512.145 L1943.710,466.198 A1125.000,1125.000 0.000 0,0 1938.578,464.010 Z" style="stroke-width:4.0;stroke:rgb(0,0,0);stroke-linecap:round;fill:rgb(116,196,118);" />
</g>
</g>
<g id="track_0">
<path d="M 1875.338,504.134 A 1064.250,1064.250 0.00 0,1 1879.4,505.7 L 1879.4,505.7 1853.1,574.0 1828.5,637.1 1805.6,695.1 1784.1,748.4 1764.0,797.1 1745.3,841.5 1727.9,881.8 1711.7,918.2 1696.7,950.8 1682.7,979.8 1669.8,1005.4 1657.9,1027.7 1646.9,1046.8 1636.7,1062.8 1627.4,1075.8 1618.9,1085.8 1611.2,1093.0 1604.2,1097.3 1597.9,1098.8 1592.3,1097.4 1587.3,1093.3 1583.0,1086.3 1579.3,1076.4 1576.2,1063.7 1573.7,1047.9 1571.9,1029.0 1570.6,1007.0 1569.9,981.8 1569.8,953.1 1570.3,920.9 1571.5,885.0 1573.3,845.2 1575.8,801.4 1579.0,753.3 1583.0,700.8 1587.6,643.5 1593.1,581.3 1599.4,514.0 1606.6,441.1  A 1064.250,1064.250 0.00 0,0 1602.3,440.7 L 1602.3,440.7 1595.5,513.6 1589.4,581.0 1584.2,643.2 1579.8,700.4 1576.1,753.0 1573.1,801.1 1570.7,844.9 1569.1,884.7 1568.0,920.6 1567.6,952.8 1567.8,981.5 1568.6,1006.8 1570.0,1028.8 1571.9,1047.6 1574.5,1063.3 1577.6,1076.1 1581.4,1086.0 1585.7,1092.9 1590.7,1097.1 1596.3,1098.4 1602.6,1096.9 1609.6,1092.5 1617.3,1085.3 1625.7,1075.3 1635.0,1062.2 1645.0,1046.2 1656.0,1027.1 1667.8,1004.7 1680.6,979.1 1694.5,950.0 1709.4,917.3 1725.4,880.9 1742.7,840.5 1761.2,796.0 1781.0,747.2 1802.3,693.9 1825.0,635.7 1849.4,572.6 1875.3,504.1  Z" style="stroke-width: 2.0;  stroke: rgb(82,82,82); fill: rgb(251,106,74); opacity: 0.667;" />
<path d="M 1946.808,534.086 A 1064.250,1064.250 0.00 0,1 1950.7,535.9 L 1950.7,535.9 1919.5,602.1 1890.3,663.2 1862.9,719.4 1837.3,770.8 1813.4,817.9 1791.1,860.7 1770.3,899.5 1750.9,934.5 1732.9,965.8 1716.1,993.6 1700.6,1018.0 1686.2,1039.2 1672.9,1057.3 1660.6,1072.3 1649.2,1084.4 1638.9,1093.6 1629.3,1099.9 1620.7,1103.5 1612.8,1104.3 1605.7,1102.4 1599.4,1097.7 1593.8,1090.1 1588.9,1079.8 1584.6,1066.6 1581.1,1050.4 1578.2,1031.2 1576.0,1008.8 1574.5,983.3 1573.7,954.3 1573.5,921.9 1574.1,885.7 1575.3,845.8 1577.3,801.8 1580.1,753.6 1583.6,700.9 1588.0,643.6 1593.3,581.4 1599.4,514.0 1606.6,441.1  A 1064.250,1064.250 0.00 0,0 1602.3,440.7 L 1602.3,440.7 1595.5,513.6 1589.6,581.0 1584.6,643.3 1580.4,700.6 1577.1,753.3 1574.5,801.5 1572.7,845.5 1571.6,885.5 1571.2,921.6 1571.5,954.0 1572.5,983.0 1574.1,1008.5 1576.4,1030.9 1579.3,1050.1 1582.9,1066.2 1587.2,1079.5 1592.1,1089.8 1597.8,1097.3 1604.1,1102.0 1611.2,1103.9 1619.1,1103.0 1627.7,1099.4 1637.2,1093.0 1647.6,1083.8 1658.8,1071.6 1671.1,1056.6 1684.3,1038.4 1698.7,1017.2 1714.1,992.7 1730.7,964.8 1748.7,933.5 1767.9,898.4 1788.5,859.5 1810.7,816.6 1834.4,769.5 1859.8,717.9 1886.9,661.6 1915.9,600.5 1946.8,534.1  Z" style="stroke-width: 2.0;  stroke: rgb(82,82,82); fill: rgb(116,196,118); opacity: 0.667;" />
<path d="M 1946.808,534.086 A 1064.250,1064.250 0.00 0,1 1950.7,535.9 L 1950.7,535.9 1919.7,602.2 1890.9,663.4 1864.3,719.8 1839.7,771.6 1817.1,819.1 1796.4,862.4 1777.4,901.8 1760.1,937.4 1744.4,969.3 1730.2,997.9 1717.5,1023.1 1706.3,1045.2 1696.3,1064.1 1687.7,1080.1 1680.3,1093.2 1674.2,1103.5 1669.2,1111.0 1665.4,1115.8 1662.8,1117.9 1661.4,1117.2 1661.0,1113.9 1661.8,1107.9 1663.8,1099.1 1666.9,1087.5 1671.2,1073.1 1676.7,1055.8 1683.4,1035.5 1691.4,1012.0 1700.7,985.4 1711.4,955.3 1723.4,921.8 1737.0,884.6 1752.1,843.6 1768.8,798.6 1787.1,749.3 1807.3,695.7 1829.3,637.3 1853.3,574.1 1879.4,505.7  A 1064.250,1064.250 0.00 0,0 1875.3,504.1 L 1875.3,504.1 1849.6,572.6 1825.8,636.0 1804.0,694.4 1784.1,748.2 1765.9,797.5 1749.4,842.6 1734.5,883.7 1721.1,920.9 1709.2,954.5 1698.6,984.6 1689.4,1011.3 1681.5,1034.7 1674.9,1055.1 1669.5,1072.5 1665.2,1086.9 1662.2,1098.5 1660.3,1107.2 1659.5,1113.3 1659.8,1116.6 1661.3,1117.2 1663.9,1115.1 1667.6,1110.3 1672.6,1102.8 1678.7,1092.5 1686.0,1079.4 1694.5,1063.3 1704.4,1044.3 1715.6,1022.2 1728.2,997.0 1742.3,968.4 1757.8,936.3 1775.0,900.6 1793.8,861.2 1814.4,817.8 1836.8,770.3 1861.1,718.3 1887.5,661.8 1916.0,600.5 1946.8,534.1  Z" style="stroke-width: 2.0;  stroke: rgb(82,82,82); fill: rgb(107,174,214); opacity: 0.667;" />
<path d="M 2564.022,1477.976 A 1064.250,1064.250 0.00 0,1 2564.1,1482.3 L 2564.1,1482.3 2490.6,1482.7 2421.9,1481.4 2357.8,1478.7 2298.1,1474.5 2242.3,1468.9 2190.3,1462.2 2141.8,1454.2 2096.6,1445.2 2054.5,1435.1 2015.2,1424.0 1978.5,1412.0 1944.3,1398.9 1912.4,1384.9 1882.7,1370.0 1854.9,1354.0 1828.9,1337.1 1804.7,1319.1 1782.0,1300.1 1760.9,1279.8 1741.2,1258.4 1722.8,1235.7 1705.7,1211.5 1689.8,1185.9 1675.1,1158.6 1661.5,1129.6 1649.1,1098.6 1637.8,1065.7 1627.7,1030.5 1618.7,993.0 1611.0,952.9 1604.4,910.1 1599.2,864.3 1595.4,815.3 1593.0,762.9 1592.1,706.9 1592.9,646.9 1595.5,582.9 1600.0,514.3 1606.6,441.1  A 1064.250,1064.250 0.00 0,0 1602.3,440.7 L 1602.3,440.7 1596.1,513.9 1591.9,582.5 1589.5,646.6 1589.0,706.5 1590.0,762.5 1592.6,814.9 1596.7,863.9 1602.1,909.6 1608.8,952.5 1616.7,992.5 1625.8,1030.0 1636.1,1065.1 1647.5,1098.0 1660.1,1128.9 1673.7,1157.9 1688.5,1185.1 1704.5,1210.7 1721.7,1234.8 1740.2,1257.4 1760.0,1278.8 1781.2,1298.9 1803.9,1317.9 1828.3,1335.8 1854.3,1352.6 1882.1,1368.4 1912.0,1383.3 1943.9,1397.1 1978.2,1410.0 2014.8,1422.0 2054.2,1432.9 2096.4,1442.8 2141.6,1451.6 2190.1,1459.4 2242.2,1465.9 2297.9,1471.2 2357.7,1475.2 2421.8,1477.7 2490.5,1478.7 2564.0,1478.0  Z" style="stroke-width: 2.0;  stroke: rgb(82,82,82); fill: rgb(253,141,60); opacity: 0.667;" />
<path d="M 2564.022,1477.976 A 1064.250,1064.250 0.00 0,1 2564.1,1482.3 L 2564.1,1482.3 2490.7,1482.8 2422.3,1481.9 2358.8,1479.7 2299.8,1476.2 2245.0,1471.6 2194.2,1465.8 2147.1,1459.0 2103.6,1451.1 2063.4,1442.3 2026.3,1432.5 1992.1,1421.8 1960.7,1410.1 1931.9,1397.5 1905.5,1383.9 1881.4,1369.3 1859.5,1353.8 1839.6,1337.2 1821.8,1319.4 1805.9,1300.5 1791.8,1280.4 1779.4,1259.0 1768.9,1236.2 1760.0,1211.9 1752.8,1186.0 1747.3,1158.4 1743.6,1128.9 1741.5,1097.5 1741.3,1064.0 1742.8,1028.2 1746.3,990.0 1751.7,949.2 1759.1,905.6 1768.7,859.0 1780.6,809.3 1795.0,756.2 1811.8,699.6 1831.4,639.1 1853.8,574.5 1879.4,505.7  A 1064.250,1064.250 0.00 0,0 1875.3,504.1 L 1875.3,504.1 1850.1,573.1 1827.9,637.7 1808.6,698.3 1791.9,755.0 1777.9,808.2 1766.2,858.0 1756.7,904.6 1749.4,948.2 1744.2,989.0 1740.9,1027.2 1739.5,1063.0 1739.9,1096.6 1742.1,1128.0 1746.0,1157.4 1751.6,1185.0 1758.8,1210.8 1767.8,1235.1 1778.5,1257.9 1790.9,1279.3 1805.1,1299.3 1821.1,1318.1 1839.0,1335.8 1858.9,1352.3 1880.8,1367.8 1905.0,1382.3 1931.4,1395.7 1960.3,1408.2 1991.8,1419.8 2026.0,1430.4 2063.2,1440.0 2103.4,1448.7 2147.0,1456.4 2194.0,1463.0 2244.9,1468.6 2299.7,1473.0 2358.7,1476.2 2422.3,1478.2 2490.6,1478.8 2564.0,1478.0  Z" style="stroke-width: 2.0;  stroke: rgb(82,82,82); fill: rgb(255,0,0); opacity: 0.667;" />
<path d="M 2564.022,1477.976 A 1064.250,1064.250 0.00 0,1 2564.1,1482.3 L 2564.1,1482.3 2490.7,1482.8 2422.4,1482.1 2359.0,1480.0 2300.2,1476.8 2245.6,1472.4 2195.2,1466.9 2148.5,1460.5 2105.4,1453.0 2065.7,1444.6 2029.1,1435.2 1995.6,1425.0 1964.9,1413.8 1936.8,1401.6 1911.3,1388.6 1888.2,1374.6 1867.3,1359.5 1848.6,1343.5 1832.1,1326.3 1817.5,1308.1 1804.8,1288.6 1794.1,1267.8 1785.2,1245.7 1778.2,1222.1 1773.0,1196.9 1769.7,1170.1 1768.2,1141.4 1768.5,1110.9 1770.9,1078.3 1775.2,1043.4 1781.6,1006.3 1790.1,966.6 1800.9,924.2 1814.0,879.0 1829.7,830.6 1848.0,779.1 1869.0,724.0 1893.1,665.3 1920.2,602.7 1950.7,535.9  A 1064.250,1064.250 0.00 0,0 1946.8,534.1 L 1946.8,534.1 1916.6,601.0 1889.7,663.7 1865.9,722.5 1845.1,777.7 1827.0,829.3 1811.5,877.7 1798.6,923.0 1787.9,965.4 1779.6,1005.1 1773.3,1042.3 1769.2,1077.2 1767.0,1109.8 1766.7,1140.3 1768.3,1169.0 1771.8,1195.8 1777.1,1220.9 1784.2,1244.5 1793.2,1266.6 1804.0,1287.3 1816.7,1306.8 1831.4,1325.0 1848.0,1342.1 1866.7,1358.1 1887.7,1373.0 1910.8,1386.9 1936.4,1399.9 1964.5,1411.9 1995.3,1423.0 2028.9,1433.1 2065.4,1442.3 2105.2,1450.6 2148.3,1457.8 2195.0,1464.1 2245.5,1469.4 2300.1,1473.5 2358.9,1476.5 2422.4,1478.3 2490.6,1478.8 2564.0,1478.0  Z" style="stroke-width: 2.0;  stroke: rgb(82,82,82); fill: rgb(255,0,204); opacity: 0.667;" />
<path d="M 2134.146,2354.685 A 1064.250,1064.250 0.00 0,1 2130.7,2357.2 L 2130.7,2357.2 2087.7,2296.9 2048.8,2238.6 2013.6,2182.1 1981.7,2127.4 1952.8,2074.4 1926.6,2023.1 1902.9,1973.3 1881.2,1925.0 1861.5,1878.1 1843.3,1832.4 1826.6,1787.9 1811.2,1744.5 1796.8,1702.0 1783.2,1660.3 1770.4,1619.4 1758.2,1579.0 1746.4,1539.0 1735.1,1499.4 1724.0,1459.9 1713.2,1420.5 1702.6,1380.9 1692.2,1341.0 1682.0,1300.6 1672.0,1259.6 1662.2,1217.9 1652.6,1175.1 1643.4,1131.2 1634.6,1085.9 1626.4,1039.1 1618.7,990.6 1611.8,940.1 1605.9,887.5 1601.0,832.6 1597.4,775.1 1595.3,714.8 1594.9,651.4 1596.5,584.9 1600.3,514.9 1606.6,441.1  A 1064.250,1064.250 0.00 0,0 1602.3,440.7 L 1602.3,440.7 1596.4,514.5 1592.9,584.5 1591.6,651.1 1592.2,714.4 1594.5,774.7 1598.3,832.2 1603.4,887.1 1609.6,939.7 1616.7,990.1 1624.5,1038.6 1633.0,1085.4 1642.0,1130.6 1651.3,1174.5 1661.1,1217.2 1671.0,1258.9 1681.2,1299.9 1691.6,1340.2 1702.2,1380.1 1712.9,1419.6 1723.9,1459.0 1735.1,1498.5 1746.6,1538.1 1758.5,1577.9 1770.9,1618.3 1783.9,1659.2 1797.6,1700.8 1812.2,1743.2 1827.8,1786.6 1844.7,1831.0 1863.0,1876.6 1882.9,1923.5 1904.8,1971.7 1928.8,2021.4 1955.1,2072.6 1984.3,2125.4 2016.4,2180.0 2051.8,2236.4 2091.0,2294.6 2134.1,2354.7  Z" style="stroke-width: 2.0;  stroke: rgb(82,82,82); fill: rgb(255,204,204); opacity: 0.667;" />
<path d="M 2134.146,2354.685 A 1064.250,1064.250 0.00 0,1 2130.7,2357.2 L 2130.7,2357.2 2087.8,2297.1 2049.0,2239.2 2014.0,2183.4 1982.5,2129.6 1954.1,2077.7 1928.7,2027.6 1905.8,1979.2 1885.3,1932.3 1867.0,1886.9 1850.5,1842.8 1835.8,1799.8 1822.6,1758.0 1810.8,1717.1 1800.2,1677.0 1790.8,1637.5 1782.3,1598.6 1774.8,1560.2 1768.1,1521.9 1762.2,1483.8 1757.0,1445.7 1752.5,1407.4 1748.8,1368.8 1745.8,1329.7 1743.6,1289.9 1742.2,1249.4 1741.7,1207.9 1742.2,1165.4 1743.7,1121.5 1746.5,1076.2 1750.6,1029.3 1756.1,980.6 1763.4,930.0 1772.5,877.2 1783.7,822.1 1797.2,764.6 1813.3,704.3 1832.1,641.2 1854.0,575.1 1879.4,505.7  A 1064.250,1064.250 0.00 0,0 1875.3,504.1 L 1875.3,504.1 1850.3,573.6 1828.6,639.9 1810.0,703.1 1794.2,763.4 1781.0,821.0 1770.0,876.1 1761.1,928.9 1754.0,979.6 1748.7,1028.3 1744.8,1075.2 1742.2,1120.5 1740.8,1164.4 1740.5,1207.0 1741.2,1248.4 1742.8,1288.9 1745.1,1328.7 1748.3,1367.8 1752.2,1406.4 1756.8,1444.7 1762.1,1482.8 1768.2,1520.9 1775.0,1559.1 1782.7,1597.5 1791.3,1636.4 1801.0,1675.7 1811.7,1715.8 1823.7,1756.7 1837.0,1798.5 1851.9,1841.3 1868.5,1885.4 1887.1,1930.7 1907.8,1977.5 1930.8,2025.9 1956.5,2075.9 1985.0,2127.6 2016.8,2181.3 2052.0,2237.0 2091.0,2294.7 2134.1,2354.7  Z" style="stroke-width: 2.0;  stroke: rgb(82,82,82); fill: rgb(255,153,0); opacity: 0.667;" />
<path d="M 2134.146,2354.685 A 1064.250,1064.250 0.00 0,1 2130.7,2357.2 L 2130.7,2357.2 2087.8,2297.2 2049.0,2239.4 2014.1,2183.8 1982.7,2130.2 1954.4,2078.7 1929.1,2028.9 1906.5,1980.9 1886.3,1934.5 1868.2,1889.5 1852.2,1845.9 1838.0,1803.5 1825.4,1762.2 1814.2,1721.8 1804.4,1682.3 1795.8,1643.4 1788.4,1605.1 1781.9,1567.2 1776.4,1529.6 1771.8,1492.1 1768.1,1454.6 1765.3,1416.9 1763.3,1378.9 1762.2,1340.5 1762.0,1301.5 1762.9,1261.7 1764.7,1221.0 1767.8,1179.2 1772.0,1136.2 1777.7,1091.9 1784.9,1046.0 1793.8,998.3 1804.5,948.8 1817.3,897.3 1832.4,843.6 1850.0,787.5 1870.3,728.8 1893.7,667.5 1920.4,603.2 1950.7,535.9  A 1064.250,1064.250 0.00 0,0 1946.8,534.1 L 1946.8,534.1 1916.8,601.5 1890.3,665.9 1867.2,727.4 1847.1,786.1 1829.7,842.3 1814.9,896.0 1802.3,947.6 1791.7,997.1 1783.0,1044.8 1776.0,1090.7 1770.6,1135.1 1766.5,1178.1 1763.6,1219.9 1761.9,1260.6 1761.2,1300.4 1761.6,1339.4 1762.8,1377.9 1764.9,1415.8 1767.9,1453.5 1771.8,1491.0 1776.5,1528.5 1782.2,1566.1 1788.8,1603.9 1796.4,1642.2 1805.2,1681.0 1815.1,1720.5 1826.4,1760.9 1839.2,1802.1 1853.6,1844.5 1869.8,1888.0 1888.0,1932.9 1908.4,1979.3 1931.3,2027.2 1956.8,2076.8 1985.2,2128.3 2016.9,2181.7 2052.0,2237.1 2091.0,2294.8 2134.1,2354.7  Z" style="stroke-width: 2.0;  stroke: rgb(82,82,82); fill: rgb(255,204,0); opacity: 0.667;" />
<path d="M 2134.146,2354.685 A 1064.250,1064.250 0.00 0,1 2130.7,2357.2 L 2130.7,2357.2 2087.7,2297.8 2048.7,2242.0 2013.5,2189.6 1981.8,2140.3 1953.6,2094.1 1928.5,2050.8 1906.5,2010.1 1887.4,1971.9 1871.0,1936.1 1857.2,1902.5 1846.0,1871.0 1837.2,1841.4 1830.7,1813.6 1826.5,1787.5 1824.6,1763.1 1824.8,1740.0 1827.2,1718.4 1831.8,1698.0 1838.5,1678.9 1847.4,1660.9 1858.6,1643.9 1872.0,1628.0 1887.8,1612.9 1905.9,1598.8 1926.6,1585.5 1949.9,1573.0 1975.9,1561.3 2004.8,1550.4 2036.6,1540.3 2071.7,1530.9 2110.1,1522.2 2152.1,1514.3 2197.8,1507.1 2247.5,1500.8 2301.4,1495.3 2359.7,1490.6 2422.7,1486.9 2490.8,1484.1 2564.1,1482.3  A 1064.250,1064.250 0.00 0,0 2564.0,1478.0 L 2564.0,1478.0 2490.7,1480.1 2422.7,1483.1 2359.6,1487.2 2301.3,1492.0 2247.5,1497.8 2197.8,1504.3 2152.1,1511.6 2110.2,1519.7 2071.8,1528.5 2036.8,1538.1 2005.0,1548.4 1976.1,1559.4 1950.2,1571.2 1926.9,1583.8 1906.3,1597.1 1888.2,1611.4 1872.5,1626.4 1859.2,1642.5 1848.1,1659.5 1839.2,1677.5 1832.6,1696.7 1828.1,1717.1 1825.8,1738.7 1825.6,1761.7 1827.7,1786.2 1832.0,1812.3 1838.5,1840.0 1847.5,1869.6 1858.8,1901.1 1872.7,1934.6 1889.3,1970.3 1908.5,2008.4 1930.7,2049.0 1956.0,2092.3 1984.4,2138.4 2016.3,2187.5 2051.7,2239.8 2090.9,2295.4 2134.1,2354.7  Z" style="stroke-width: 2.0;  stroke: rgb(82,82,82); fill: rgb(255,255,0); opacity: 0.667;" />
<path d="M 770.480,725.127 A 1064.250,1064.250 0.00 0,1 773.5,722.3 L 773.5,722.3 824.0,775.5 871.5,824.1 916.2,868.5 958.4,908.7 998.1,945.1 1035.5,977.8 1070.7,1007.1 1103.9,1033.0 1135.2,1055.8 1164.7,1075.5 1192.5,1092.4 1218.7,1106.5 1243.5,1118.0 1266.9,1126.8 1289.1,1133.1 1310.1,1137.0 1330.0,1138.4 1348.9,1137.5 1366.9,1134.1 1384.1,1128.3 1400.5,1120.1 1416.1,1109.4 1431.1,1096.2 1445.5,1080.4 1459.3,1061.9 1472.5,1040.7 1485.3,1016.5 1497.6,989.4 1509.5,959.1 1521.0,925.5 1532.1,888.5 1542.8,847.7 1553.1,803.1 1563.0,754.5 1572.5,701.5 1581.7,643.9 1590.4,581.5 1598.7,514.0 1606.6,441.1  A 1064.250,1064.250 0.00 0,0 1602.3,440.7 L 1602.3,440.7 1594.8,513.6 1586.7,581.1 1578.3,643.6 1569.3,701.2 1560.0,754.2 1550.3,802.9 1540.2,847.6 1529.6,888.4 1518.7,925.5 1507.4,959.1 1495.6,989.4 1483.4,1016.6 1470.7,1040.8 1457.5,1062.1 1443.8,1080.6 1429.5,1096.4 1414.6,1109.7 1399.0,1120.5 1382.6,1128.7 1365.5,1134.6 1347.5,1138.1 1328.6,1139.1 1308.6,1137.8 1287.6,1134.0 1265.4,1127.7 1242.0,1119.0 1217.1,1107.6 1190.9,1093.6 1163.0,1076.8 1133.4,1057.2 1102.1,1034.6 1068.8,1008.8 1033.4,979.7 995.9,947.1 956.1,910.9 913.7,870.8 868.8,826.6 821.1,778.2 770.5,725.1  Z" style="stroke-width: 2.0;  stroke: rgb(82,82,82); fill: rgb(204,255,0); opacity: 0.667;" />
<path d="M 770.480,725.127 A 1064.250,1064.250 0.00 0,1 773.5,722.3 L 773.5,722.3 824.1,775.4 872.1,824.0 917.6,868.2 960.8,908.3 1001.9,944.5 1040.9,977.0 1077.9,1006.1 1113.2,1031.9 1146.9,1054.6 1179.0,1074.4 1209.6,1091.4 1239.0,1105.7 1267.2,1117.5 1294.3,1126.7 1320.5,1133.6 1345.7,1138.2 1370.2,1140.5 1394.1,1140.5 1417.3,1138.3 1440.1,1133.8 1462.5,1127.1 1484.5,1118.1 1506.4,1106.7 1528.1,1093.0 1549.7,1076.7 1571.3,1057.9 1592.9,1036.4 1614.8,1012.0 1636.8,984.7 1659.0,954.3 1681.6,920.6 1704.5,883.3 1727.9,842.4 1751.7,797.6 1776.1,748.6 1801.0,695.2 1826.5,637.1 1852.6,574.0 1879.4,505.7  A 1064.250,1064.250 0.00 0,0 1875.3,504.1 L 1875.3,504.1 1848.8,572.6 1823.0,635.8 1797.7,694.0 1773.0,747.5 1748.9,796.6 1725.2,841.5 1702.0,882.5 1679.3,919.8 1656.8,953.7 1634.7,984.2 1612.8,1011.6 1591.1,1036.0 1569.5,1057.6 1548.0,1076.5 1526.4,1092.8 1504.8,1106.7 1483.0,1118.1 1461.0,1127.2 1438.6,1134.0 1415.9,1138.6 1392.6,1140.9 1368.8,1141.0 1344.3,1138.8 1319.0,1134.3 1292.8,1127.5 1265.7,1118.4 1237.5,1106.7 1208.0,1092.5 1177.3,1075.7 1145.1,1056.0 1111.4,1033.4 1076.0,1007.7 1038.8,978.8 999.7,946.4 958.5,910.4 915.1,870.5 869.4,826.5 821.3,778.1 770.5,725.1  Z" style="stroke-width: 2.0;  stroke: rgb(82,82,82); fill: rgb(0,255,0); opacity: 0.667;" />
<path d="M 770.480,725.127 A 1064.250,1064.250 0.00 0,1 773.5,722.3 L 773.5,722.3 824.2,775.4 872.3,824.0 918.0,868.1 961.5,908.2 1002.9,944.4 1042.3,976.9 1079.9,1006.0 1115.8,1031.9 1150.1,1054.7 1182.9,1074.5 1214.3,1091.7 1244.5,1106.2 1273.6,1118.1 1301.7,1127.7 1328.9,1134.9 1355.3,1139.8 1381.0,1142.5 1406.2,1143.0 1430.8,1141.4 1455.0,1137.5 1479.0,1131.5 1502.7,1123.3 1526.3,1112.7 1549.9,1099.9 1573.6,1084.6 1597.3,1066.9 1621.3,1046.5 1645.6,1023.4 1670.2,997.4 1695.3,968.4 1720.8,936.1 1747.0,900.4 1773.7,861.1 1801.2,818.0 1829.4,770.8 1858.4,719.3 1888.2,663.1 1919.0,602.1 1950.7,535.9  A 1064.250,1064.250 0.00 0,0 1946.8,534.1 L 1946.8,534.1 1915.4,600.4 1884.8,661.6 1855.2,717.8 1826.4,769.5 1798.4,816.8 1771.1,860.0 1744.5,899.4 1718.6,935.2 1693.1,967.6 1668.2,996.7 1643.7,1022.8 1619.5,1046.0 1595.6,1066.5 1571.9,1084.3 1548.3,1099.7 1524.8,1112.6 1501.2,1123.2 1477.5,1131.6 1453.6,1137.7 1429.4,1141.6 1404.7,1143.4 1379.6,1143.0 1353.9,1140.4 1327.5,1135.6 1300.3,1128.5 1272.1,1119.0 1243.0,1107.2 1212.7,1092.8 1181.2,1075.8 1148.3,1056.0 1113.9,1033.4 1078.0,1007.7 1040.3,978.7 1000.7,946.3 959.2,910.3 915.5,870.4 869.6,826.5 821.3,778.1 770.5,725.1  Z" style="stroke-width: 2.0;  stroke: rgb(82,82,82); fill: rgb(53,128,0); opacity: 0.667;" />
<path d="M 770.480,725.127 A 1064.250,1064.250 0.00 0,1 773.5,722.3 L 773.5,722.3 824.8,775.5 874.9,824.4 923.7,869.3 971.3,910.5 1017.7,948.4 1062.9,983.2 1107.0,1015.3 1150.1,1044.9 1192.2,1072.3 1233.3,1097.7 1273.6,1121.5 1313.1,1143.7 1351.9,1164.6 1390.0,1184.3 1427.7,1203.0 1465.0,1220.9 1501.9,1238.1 1538.7,1254.7 1575.5,1270.8 1612.4,1286.5 1649.5,1301.8 1687.0,1316.7 1725.1,1331.4 1763.8,1345.7 1803.5,1359.8 1844.2,1373.5 1886.2,1386.9 1929.6,1399.9 1974.6,1412.4 2021.5,1424.3 2070.4,1435.5 2121.7,1445.9 2175.4,1455.4 2231.9,1463.7 2291.3,1470.8 2354.0,1476.4 2420.2,1480.4 2490.1,1482.4 2564.1,1482.3  A 1064.250,1064.250 0.00 0,0 2564.0,1478.0 L 2564.0,1478.0 2490.1,1478.4 2420.1,1476.6 2353.9,1473.0 2291.2,1467.6 2231.7,1460.8 2175.2,1452.7 2121.4,1443.4 2070.2,1433.2 2021.2,1422.2 1974.3,1410.5 1929.2,1398.2 1885.7,1385.4 1843.7,1372.1 1802.9,1358.6 1763.2,1344.7 1724.4,1330.4 1686.3,1315.9 1648.7,1301.1 1611.5,1286.0 1574.6,1270.5 1537.8,1254.6 1500.9,1238.1 1463.8,1221.1 1426.5,1203.3 1388.8,1184.7 1350.5,1165.1 1311.7,1144.4 1272.1,1122.4 1231.7,1098.8 1190.5,1073.5 1148.3,1046.3 1105.1,1016.8 1060.9,984.9 1015.5,950.3 969.0,912.6 921.2,871.6 872.2,826.9 822.0,778.2 770.5,725.1  Z" style="stroke-width: 2.0;  stroke: rgb(82,82,82); fill: rgb(0,0,204); opacity: 0.667;" />
<path d="M 770.480,725.127 A 1064.250,1064.250 0.00 0,1 773.5,722.3 L 773.5,722.3 823.4,777.4 869.5,831.7 912.1,885.0 951.7,937.2 988.5,988.2 1023.0,1038.1 1055.4,1086.6 1086.1,1133.9 1115.3,1179.9 1143.3,1224.5 1170.3,1267.8 1196.7,1309.8 1222.7,1350.5 1248.4,1390.0 1274.0,1428.3 1299.9,1465.5 1326.0,1501.7 1352.6,1536.9 1379.8,1571.3 1407.8,1605.0 1436.6,1638.1 1466.3,1670.7 1497.0,1703.1 1528.8,1735.3 1561.8,1767.6 1595.8,1800.1 1631.1,1833.1 1667.5,1866.8 1705.1,1901.4 1743.8,1937.1 1783.6,1974.3 1824.4,2013.1 1866.2,2053.9 1908.8,2096.9 1952.2,2142.6 1996.2,2191.1 2040.8,2242.8 2085.6,2298.0 2130.7,2357.2  A 1064.250,1064.250 0.00 0,0 2134.1,2354.7 L 2134.1,2354.7 2088.9,2295.7 2043.8,2240.6 1999.0,2189.0 1954.8,2140.7 1911.2,2095.3 1868.4,2052.4 1826.5,2011.8 1785.5,1973.1 1745.6,1936.1 1706.7,1900.5 1669.0,1866.1 1632.4,1832.6 1597.1,1799.7 1562.8,1767.3 1529.8,1735.2 1497.8,1703.1 1467.0,1670.8 1437.1,1638.3 1408.2,1605.3 1380.1,1571.8 1352.8,1537.5 1326.0,1502.4 1299.7,1466.3 1273.8,1429.2 1248.0,1391.0 1222.1,1351.6 1196.0,1311.0 1169.4,1269.1 1142.2,1225.9 1114.0,1181.4 1084.6,1135.5 1053.8,1088.4 1021.2,1040.0 986.5,990.3 949.5,939.4 909.7,887.3 866.9,834.2 820.6,780.1 770.5,725.1  Z" style="stroke-width: 2.0;  stroke: rgb(82,82,82); fill: rgb(102,153,255); opacity: 0.667;" />
<path d="M 778.180,717.948 A 1064.250,1064.250 0.00 0,1 781.3,715.0 L 781.3,715.0 831.2,768.8 878.2,817.9 922.5,862.7 964.2,903.4 1003.5,940.2 1040.5,973.3 1075.4,1002.9 1108.2,1029.1 1139.2,1052.2 1168.4,1072.3 1195.9,1089.4 1221.9,1103.8 1246.4,1115.5 1269.6,1124.6 1291.6,1131.2 1312.4,1135.2 1332.1,1136.8 1350.8,1136.0 1368.7,1132.8 1385.7,1127.2 1401.9,1119.1 1417.4,1108.5 1432.2,1095.4 1446.5,1079.7 1460.2,1061.3 1473.3,1040.2 1486.0,1016.2 1498.2,989.1 1510.0,958.9 1521.4,925.3 1532.4,888.3 1543.0,847.6 1553.2,803.1 1563.1,754.4 1572.6,701.4 1581.7,643.9 1590.4,581.5 1598.7,514.0 1606.6,441.1  A 1064.250,1064.250 0.00 0,0 1602.3,440.7 L 1602.3,440.7 1594.8,513.6 1586.8,581.1 1578.3,643.6 1569.4,701.1 1560.1,754.2 1550.5,802.9 1540.4,847.5 1530.0,888.2 1519.1,925.3 1507.9,958.8 1496.2,989.1 1484.1,1016.2 1471.5,1040.3 1458.4,1061.5 1444.8,1079.9 1430.6,1095.7 1415.8,1108.9 1400.4,1119.5 1384.2,1127.6 1367.2,1133.3 1349.4,1136.6 1330.6,1137.5 1310.9,1136.0 1290.1,1132.0 1268.1,1125.5 1244.9,1116.5 1220.3,1105.0 1194.2,1090.7 1166.7,1073.6 1137.4,1053.7 1106.3,1030.7 1073.4,1004.6 1038.4,975.1 1001.3,942.2 961.8,905.5 920.0,865.0 875.5,820.4 828.3,771.5 778.2,717.9  Z" style="stroke-width: 2.0;  stroke: rgb(82,82,82); fill: rgb(153,204,255); opacity: 0.667;" />
<path d="M 778.180,717.948 A 1064.250,1064.250 0.00 0,1 781.3,715.0 L 781.3,715.0 831.4,768.7 878.9,817.8 923.9,862.4 966.7,902.9 1007.3,939.5 1045.9,972.4 1082.6,1001.9 1117.6,1028.1 1150.9,1051.1 1182.7,1071.2 1213.1,1088.5 1242.2,1103.1 1270.1,1115.1 1297.0,1124.6 1323.0,1131.7 1348.0,1136.5 1372.3,1138.9 1396.0,1139.1 1419.1,1137.1 1441.7,1132.8 1463.9,1126.2 1485.8,1117.3 1507.5,1106.1 1529.1,1092.4 1550.6,1076.2 1572.1,1057.5 1593.6,1036.1 1615.3,1011.8 1637.3,984.5 1659.4,954.1 1681.9,920.4 1704.8,883.3 1728.1,842.4 1751.9,797.5 1776.2,748.6 1801.0,695.2 1826.5,637.1 1852.6,574.0 1879.4,505.7  A 1064.250,1064.250 0.00 0,0 1875.3,504.1 L 1875.3,504.1 1848.8,572.6 1823.0,635.7 1797.8,693.9 1773.1,747.4 1749.0,796.5 1725.4,841.4 1702.3,882.4 1679.6,919.7 1657.2,953.5 1635.2,984.0 1613.4,1011.3 1591.8,1035.7 1570.3,1057.2 1548.9,1076.0 1527.4,1092.3 1505.9,1106.0 1484.3,1117.4 1462.4,1126.3 1440.2,1133.0 1417.6,1137.4 1394.5,1139.6 1370.9,1139.5 1346.6,1137.1 1321.5,1132.4 1295.5,1125.4 1268.6,1116.0 1240.6,1104.1 1211.4,1089.6 1181.0,1072.5 1149.1,1052.5 1115.7,1029.6 1080.6,1003.6 1043.8,974.3 1005.0,941.5 964.3,905.1 921.3,864.7 876.1,820.3 828.4,771.4 778.2,717.9  Z" style="stroke-width: 2.0;  stroke: rgb(82,82,82); fill: rgb(0,255,255); opacity: 0.667;" />
<path d="M 778.180,717.948 A 1064.250,1064.250 0.00 0,1 781.3,715.0 L 781.3,715.0 831.4,768.7 879.0,817.7 924.3,862.4 967.4,902.9 1008.3,939.4 1047.4,972.4 1084.6,1001.8 1120.1,1028.1 1154.1,1051.2 1186.6,1071.4 1217.8,1088.8 1247.7,1103.5 1276.6,1115.8 1304.5,1125.6 1331.4,1133.0 1357.6,1138.1 1383.2,1141.0 1408.1,1141.7 1432.6,1140.2 1456.6,1136.5 1480.4,1130.6 1504.0,1122.5 1527.5,1112.1 1551.0,1099.4 1574.5,1084.2 1598.1,1066.5 1622.0,1046.2 1646.2,1023.1 1670.7,997.2 1695.7,968.2 1721.2,936.0 1747.2,900.3 1773.9,861.1 1801.3,818.0 1829.4,770.8 1858.4,719.3 1888.2,663.1 1919.0,602.1 1950.7,535.9  A 1064.250,1064.250 0.00 0,0 1946.8,534.1 L 1946.8,534.1 1915.4,600.4 1884.9,661.6 1855.3,717.8 1826.5,769.5 1798.5,816.8 1771.3,860.0 1744.8,899.3 1718.9,935.1 1693.5,967.4 1668.7,996.5 1644.2,1022.6 1620.2,1045.7 1596.4,1066.1 1572.8,1083.9 1549.3,1099.1 1525.9,1112.0 1502.5,1122.5 1478.9,1130.7 1455.2,1136.7 1431.1,1140.5 1406.6,1142.1 1381.7,1141.5 1356.2,1138.7 1330.0,1133.7 1302.9,1126.3 1275.0,1116.7 1246.1,1104.6 1216.1,1089.9 1184.9,1072.6 1152.3,1052.6 1118.2,1029.6 1082.6,1003.5 1045.3,974.2 1006.1,941.4 965.0,905.0 921.7,864.7 876.3,820.3 828.5,771.4 778.2,717.9  Z" style="stroke-width: 2.0;  stroke: rgb(82,82,82); fill: rgb(204,255,255); opacity: 0.667;" />
<path d="M 778.180,717.948 A 1064.250,1064.250 0.00 0,1 781.3,715.0 L 781.3,715.0 832.1,768.8 881.6,818.2 930.0,863.6 977.1,905.2 1023.1,943.5 1067.9,978.7 1111.7,1011.2 1154.4,1041.2 1196.2,1069.0 1237.0,1094.7 1277.0,1118.8 1316.2,1141.3 1354.8,1162.5 1392.7,1182.4 1430.2,1201.4 1467.2,1219.6 1504.0,1237.0 1540.6,1253.7 1577.2,1270.0 1613.9,1285.8 1650.9,1301.2 1688.3,1316.3 1726.2,1331.0 1764.8,1345.5 1804.4,1359.6 1845.0,1373.4 1886.8,1386.9 1930.1,1399.9 1975.1,1412.4 2021.9,1424.3 2070.8,1435.5 2121.9,1446.0 2175.6,1455.4 2232.0,1463.8 2291.4,1470.8 2354.1,1476.4 2420.2,1480.4 2490.1,1482.4 2564.1,1482.3  A 1064.250,1064.250 0.00 0,0 2564.0,1478.0 L 2564.0,1478.0 2490.1,1478.4 2420.1,1476.6 2354.0,1473.0 2291.3,1467.6 2231.8,1460.8 2175.4,1452.7 2121.7,1443.4 2070.5,1433.2 2021.6,1422.2 1974.7,1410.5 1929.7,1398.1 1886.4,1385.3 1844.5,1372.0 1803.8,1358.4 1764.2,1344.4 1725.5,1330.1 1687.5,1315.5 1650.1,1300.6 1613.1,1285.3 1576.3,1269.7 1539.6,1253.6 1502.9,1236.9 1466.1,1219.7 1428.9,1201.7 1391.4,1182.9 1353.4,1163.0 1314.8,1142.0 1275.5,1119.7 1235.4,1095.8 1194.5,1070.2 1152.6,1042.6 1109.7,1012.8 1065.8,980.5 1020.8,945.4 974.7,907.3 927.4,865.9 878.9,820.7 829.2,771.5 778.2,717.9  Z" style="stroke-width: 2.0;  stroke: rgb(82,82,82); fill: rgb(153,0,204); opacity: 0.667;" />
<path d="M 778.180,717.948 A 1064.250,1064.250 0.00 0,1 781.3,715.0 L 781.3,715.0 830.7,770.7 876.2,825.5 918.3,879.2 957.4,931.8 993.8,983.2 1027.8,1033.4 1059.8,1082.3 1090.0,1129.9 1118.8,1176.2 1146.4,1221.1 1173.1,1264.7 1199.2,1306.9 1224.8,1347.9 1250.3,1387.6 1275.7,1426.1 1301.2,1463.5 1327.2,1499.8 1353.6,1535.2 1380.6,1569.8 1408.4,1603.6 1437.0,1636.8 1466.6,1669.6 1497.3,1702.1 1529.0,1734.4 1561.8,1766.8 1595.9,1799.4 1631.1,1832.5 1667.5,1866.3 1705.0,1901.0 1743.7,1936.8 1783.5,1974.0 1824.4,2012.9 1866.1,2053.7 1908.8,2096.8 1952.2,2142.5 1996.2,2191.0 2040.8,2242.7 2085.6,2298.0 2130.7,2357.2  A 1064.250,1064.250 0.00 0,0 2134.1,2354.7 L 2134.1,2354.7 2088.9,2295.7 2043.7,2240.6 1999.0,2189.0 1954.8,2140.6 1911.2,2095.2 1868.4,2052.2 1826.4,2011.6 1785.4,1972.8 1745.5,1935.8 1706.7,1900.1 1669.0,1865.6 1632.4,1832.0 1597.1,1799.0 1562.9,1766.5 1529.9,1734.3 1498.1,1702.1 1467.3,1669.7 1437.6,1637.1 1408.8,1604.0 1380.9,1570.3 1353.7,1535.8 1327.2,1500.5 1301.1,1464.3 1275.4,1427.0 1249.8,1388.6 1224.2,1349.0 1198.4,1308.1 1172.2,1266.0 1145.3,1222.5 1117.5,1177.7 1088.5,1131.6 1058.1,1084.1 1025.9,1035.3 991.7,985.3 955.1,934.0 915.8,881.5 873.5,828.0 827.7,773.4 778.2,717.9  Z" style="stroke-width: 2.0;  stroke: rgb(82,82,82); fill: rgb(204,51,255); opacity: 0.667;" />
<path d="M 778.180,717.948 A 1064.250,1064.250 0.00 0,1 781.3,715.0 L 781.3,715.0 830.8,769.0 876.4,818.9 918.5,864.9 957.2,907.3 992.7,946.1 1025.0,981.5 1054.5,1013.8 1081.1,1043.0 1105.1,1069.3 1126.5,1092.9 1145.5,1113.8 1162.1,1132.1 1176.4,1147.9 1188.5,1161.4 1198.5,1172.5 1206.4,1181.4 1212.3,1188.0 1216.1,1192.5 1217.9,1194.8 1217.8,1195.0 1215.6,1193.0 1211.5,1188.8 1205.3,1182.4 1197.1,1173.9 1186.7,1163.1 1174.3,1149.9 1159.6,1134.4 1142.6,1116.4 1123.3,1095.9 1101.5,1072.7 1077.1,1046.7 1050.1,1017.9 1020.2,986.0 987.4,951.0 951.4,912.6 912.3,870.7 869.7,825.2 823.5,775.7 773.5,722.3  A 1064.250,1064.250 0.00 0,0 770.5,725.1 L 770.5,725.1 820.7,778.4 867.0,827.7 909.8,873.0 949.1,914.8 985.2,953.0 1018.2,987.9 1048.2,1019.7 1075.3,1048.4 1099.8,1074.3 1121.7,1097.4 1141.1,1117.8 1158.1,1135.7 1172.9,1151.2 1185.4,1164.3 1195.8,1175.1 1204.0,1183.6 1210.2,1189.9 1214.4,1194.1 1216.5,1196.1 1216.7,1195.9 1214.9,1193.6 1211.0,1189.2 1205.2,1182.6 1197.2,1173.7 1187.2,1162.7 1175.0,1149.2 1160.6,1133.5 1143.9,1115.2 1124.9,1094.4 1103.4,1070.9 1079.3,1044.7 1052.5,1015.6 1022.9,983.4 990.4,948.1 954.8,909.5 916.0,867.3 873.7,821.5 827.8,771.7 778.2,717.9  Z" style="stroke-width: 2.0;  stroke: rgb(82,82,82); fill: rgb(204,153,255); opacity: 0.667;" />
<path d="M 1256.164,464.060 A 1064.250,1064.250 0.00 0,1 1260.3,463.1 L 1260.3,463.1 1277.0,534.4 1292.8,600.2 1307.8,660.8 1322.0,716.5 1335.6,767.5 1348.4,814.0 1360.6,856.3 1372.2,894.6 1383.2,928.9 1393.7,959.6 1403.7,986.8 1413.3,1010.5 1422.4,1030.9 1431.1,1048.2 1439.6,1062.3 1447.6,1073.5 1455.4,1081.7 1463.0,1087.0 1470.3,1089.4 1477.5,1089.0 1484.4,1085.6 1491.2,1079.4 1498.0,1070.3 1504.6,1058.2 1511.1,1043.1 1517.6,1024.9 1524.1,1003.4 1530.6,978.7 1537.1,950.5 1543.6,918.8 1550.2,883.3 1556.8,843.9 1563.6,800.4 1570.4,752.6 1577.4,700.3 1584.4,643.3 1591.7,581.2 1599.0,513.9 1606.6,441.1  A 1064.250,1064.250 0.00 0,0 1602.3,440.7 L 1602.3,440.7 1595.1,513.5 1588.0,580.9 1581.0,642.9 1574.2,700.0 1567.4,752.3 1560.8,800.1 1554.2,843.6 1547.7,883.1 1541.3,918.6 1534.9,950.4 1528.5,978.6 1522.1,1003.3 1515.7,1024.8 1509.3,1043.1 1502.8,1058.2 1496.2,1070.3 1489.6,1079.5 1482.8,1085.7 1475.8,1089.1 1468.7,1089.5 1461.4,1087.2 1453.8,1081.9 1446.0,1073.7 1437.8,1062.6 1429.4,1048.5 1420.5,1031.2 1411.3,1010.8 1401.7,987.1 1391.6,960.0 1380.9,929.4 1369.8,895.1 1358.0,856.9 1345.7,814.7 1332.7,768.2 1319.0,717.2 1304.5,661.6 1289.2,601.0 1273.1,535.3 1256.2,464.1  Z" style="stroke-width: 2.0;  stroke: rgb(82,82,82); fill: rgb(102,102,102); opacity: 0.667;" />
<path d="M 1256.164,464.060 A 1064.250,1064.250 0.00 0,1 1260.3,463.1 L 1260.3,463.1 1277.1,534.4 1293.4,600.2 1309.2,660.9 1324.6,716.6 1339.4,767.7 1353.9,814.3 1368.0,856.8 1381.7,895.2 1395.1,929.9 1408.3,960.9 1421.2,988.5 1434.0,1012.7 1446.5,1033.7 1459.0,1051.6 1471.4,1066.5 1483.8,1078.6 1496.2,1087.7 1508.7,1094.1 1521.2,1097.7 1534.0,1098.6 1547.0,1096.7 1560.2,1092.1 1573.7,1084.7 1587.6,1074.5 1602.0,1061.4 1616.8,1045.4 1632.1,1026.3 1648.0,1004.0 1664.6,978.5 1681.9,949.6 1699.9,917.1 1718.8,880.9 1738.5,840.8 1759.3,796.5 1781.0,748.0 1803.8,694.9 1827.7,637.0 1852.9,574.0 1879.4,505.7  A 1064.250,1064.250 0.00 0,0 1875.3,504.1 L 1875.3,504.1 1849.2,572.6 1824.2,635.6 1800.5,693.6 1777.9,746.9 1756.4,795.5 1735.9,839.8 1716.3,880.0 1697.6,916.3 1679.7,948.9 1662.5,977.9 1646.0,1003.4 1630.2,1025.8 1614.9,1044.9 1600.2,1061.0 1585.9,1074.2 1572.1,1084.4 1558.5,1091.9 1545.3,1096.6 1532.4,1098.5 1519.6,1097.6 1507.0,1094.1 1494.5,1087.7 1482.1,1078.6 1469.7,1066.7 1457.2,1051.8 1444.7,1033.9 1432.0,1012.9 1419.2,988.8 1406.2,961.3 1392.9,930.3 1379.3,895.7 1365.4,857.3 1351.2,814.9 1336.5,768.3 1321.5,717.3 1305.9,661.6 1289.9,601.0 1273.3,535.3 1256.2,464.1  Z" style="stroke-width: 2.0;  stroke: rgb(82,82,82); fill: rgb(153,153,153); opacity: 0.667;" />
<path d="M 1256.164,464.060 A 1064.250,1064.250 0.00 0,1 1260.3,463.1 L 1260.3,463.1 1277.2,534.4 1293.6,600.2 1309.6,660.9 1325.2,716.7 1340.5,767.8 1355.4,814.6 1370.0,857.1 1384.3,895.7 1398.4,930.5 1412.2,961.7 1425.9,989.5 1439.5,1014.0 1453.0,1035.3 1466.5,1053.5 1479.9,1068.8 1493.4,1081.3 1507.1,1090.9 1520.8,1097.8 1534.8,1102.0 1549.0,1103.5 1563.5,1102.3 1578.4,1098.4 1593.7,1091.8 1609.6,1082.5 1625.9,1070.3 1642.9,1055.3 1660.5,1037.3 1678.9,1016.2 1698.1,991.9 1718.2,964.2 1739.2,933.1 1761.2,898.4 1784.4,859.8 1808.7,817.2 1834.3,770.4 1861.2,719.1 1889.5,663.1 1919.3,602.1 1950.7,535.9  A 1064.250,1064.250 0.00 0,0 1946.8,534.1 L 1946.8,534.1 1915.7,600.4 1886.1,661.5 1858.0,717.6 1831.3,769.0 1805.9,816.0 1781.8,858.7 1758.8,897.3 1736.9,932.2 1716.0,963.4 1696.0,991.1 1676.9,1015.4 1658.6,1036.6 1641.1,1054.7 1624.2,1069.8 1607.9,1082.1 1592.1,1091.5 1576.8,1098.1 1561.9,1102.1 1547.4,1103.3 1533.2,1101.9 1519.2,1097.7 1505.4,1090.9 1491.8,1081.3 1478.2,1068.9 1464.7,1053.7 1451.2,1035.4 1437.6,1014.2 1423.9,989.8 1410.1,962.1 1396.1,930.9 1381.9,896.2 1367.4,857.6 1352.7,815.1 1337.6,768.5 1322.2,717.4 1306.3,661.7 1290.1,601.1 1273.3,535.3 1256.2,464.1  Z" style="stroke-width: 2.0;  stroke: rgb(82,82,82); fill: rgb(204,204,204); opacity: 0.667;" />
<path d="M 1256.164,464.060 A 1064.250,1064.250 0.00 0,1 1260.3,463.1 L 1260.3,463.1 1277.8,534.7 1296.1,601.3 1315.0,663.4 1334.4,721.3 1354.4,775.2 1374.8,825.4 1395.6,872.2 1416.8,915.9 1438.3,956.6 1460.2,994.7 1482.4,1030.3 1504.9,1063.7 1527.8,1095.0 1551.1,1124.4 1574.8,1152.1 1599.0,1178.2 1623.7,1202.8 1649.1,1226.2 1675.1,1248.3 1702.0,1269.3 1729.7,1289.2 1758.5,1308.2 1788.4,1326.3 1819.6,1343.4 1852.1,1359.8 1886.3,1375.3 1922.2,1389.9 1960.0,1403.7 1999.9,1416.7 2042.2,1428.7 2086.9,1439.7 2134.4,1449.7 2184.9,1458.6 2238.5,1466.3 2295.6,1472.7 2356.5,1477.6 2421.3,1480.9 2490.4,1482.5 2564.1,1482.3  A 1064.250,1064.250 0.00 0,0 2564.0,1478.0 L 2564.0,1478.0 2490.3,1478.5 2421.2,1477.2 2356.4,1474.1 2295.5,1469.4 2238.4,1463.3 2184.7,1455.9 2134.2,1447.2 2086.7,1437.4 2041.9,1426.5 1999.6,1414.6 1959.6,1401.9 1921.8,1388.2 1885.8,1373.7 1851.6,1358.3 1818.9,1342.1 1787.7,1325.1 1757.7,1307.2 1728.9,1288.3 1701.1,1268.5 1674.1,1247.6 1648.0,1225.6 1622.5,1202.3 1597.7,1177.8 1573.4,1151.8 1549.6,1124.2 1526.2,1094.9 1503.2,1063.7 1480.5,1030.4 1458.2,994.9 1436.2,956.9 1414.5,916.2 1393.1,872.6 1372.1,825.9 1351.5,775.8 1331.3,722.0 1311.6,664.2 1292.5,602.2 1274.0,535.6 1256.2,464.1  Z" style="stroke-width: 2.0;  stroke: rgb(82,82,82); fill: rgb(204,204,153); opacity: 0.667;" />
<path d="M 1256.164,464.060 A 1064.250,1064.250 0.00 0,1 1260.3,463.1 L 1260.3,463.1 1278.1,535.1 1297.3,603.2 1317.6,667.5 1338.7,728.5 1360.4,786.3 1382.5,841.3 1404.9,893.7 1427.5,943.8 1450.0,991.7 1472.3,1037.9 1494.4,1082.4 1516.1,1125.5 1537.4,1167.4 1558.3,1208.3 1578.6,1248.5 1598.5,1288.1 1617.8,1327.3 1636.6,1366.3 1654.9,1405.2 1672.9,1444.2 1690.4,1483.4 1707.8,1523.1 1724.9,1563.3 1742.0,1604.1 1759.3,1645.7 1776.8,1688.2 1794.7,1731.7 1813.3,1776.3 1832.6,1822.0 1853.1,1869.0 1874.8,1917.3 1898.2,1967.0 1923.3,2018.1 1950.6,2070.8 1980.4,2124.9 2012.9,2180.6 2048.5,2237.9 2087.7,2296.8 2130.7,2357.2  A 1064.250,1064.250 0.00 0,0 2134.1,2354.7 L 2134.1,2354.7 2090.9,2294.4 2051.5,2235.7 2015.6,2178.5 1982.9,2123.0 1952.9,2068.9 1925.4,2016.4 1900.0,1965.4 1876.5,1915.8 1854.6,1867.6 1834.0,1820.7 1814.4,1775.0 1795.6,1730.5 1777.5,1687.1 1759.9,1644.7 1742.5,1603.1 1725.2,1562.4 1707.9,1522.3 1690.4,1482.7 1672.6,1443.5 1654.6,1404.6 1636.1,1365.7 1617.1,1326.8 1597.6,1287.7 1577.6,1248.2 1557.1,1208.1 1536.1,1167.2 1514.6,1125.4 1492.7,1082.4 1470.5,1038.0 1447.9,991.9 1425.3,944.0 1402.5,894.1 1379.9,841.8 1357.6,786.9 1335.6,729.1 1314.3,668.3 1293.8,604.0 1274.3,536.0 1256.2,464.1  Z" style="stroke-width: 2.0;  stroke: rgb(82,82,82); fill: rgb(251,106,74); opacity: 0.667;" />
<path d="M 1256.164,464.060 A 1064.250,1064.250 0.00 0,1 1260.3,463.1 L 1260.3,463.1 1276.4,534.5 1290.8,600.8 1303.4,662.1 1314.3,718.8 1323.7,771.0 1331.5,819.0 1337.9,863.1 1342.9,903.3 1346.5,940.0 1348.8,973.2 1349.9,1003.2 1349.7,1030.0 1348.3,1053.8 1345.7,1074.8 1341.9,1092.9 1336.9,1108.4 1330.6,1121.3 1323.2,1131.6 1314.4,1139.4 1304.4,1144.7 1293.1,1147.6 1280.3,1148.1 1266.2,1146.1 1250.5,1141.6 1233.3,1134.6 1214.5,1125.1 1193.9,1112.9 1171.6,1098.1 1147.3,1080.5 1121.1,1060.0 1092.7,1036.5 1062.1,1009.9 1029.1,980.0 993.6,946.7 955.5,909.8 914.6,869.1 870.7,824.4 823.8,775.6 773.5,722.3  A 1064.250,1064.250 0.00 0,0 770.5,725.1 L 770.5,725.1 820.9,778.2 868.1,826.9 912.1,871.4 953.2,912.0 991.4,948.7 1027.0,981.9 1060.1,1011.7 1090.9,1038.2 1119.3,1061.5 1145.7,1081.9 1170.0,1099.4 1192.4,1114.2 1213.0,1126.2 1231.9,1135.7 1249.1,1142.6 1264.8,1147.0 1278.9,1148.9 1291.7,1148.4 1303.0,1145.5 1313.0,1140.1 1321.7,1132.3 1329.1,1121.9 1335.3,1109.1 1340.3,1093.6 1344.0,1075.4 1346.6,1054.4 1347.9,1030.6 1347.9,1003.8 1346.8,973.8 1344.3,940.6 1340.5,904.0 1335.4,863.7 1328.8,819.7 1320.8,771.7 1311.2,719.5 1300.1,662.9 1287.2,601.6 1272.6,535.4 1256.2,464.1  Z" style="stroke-width: 2.0;  stroke: rgb(82,82,82); fill: rgb(116,196,118); opacity: 0.667;" />
<path d="M 1256.164,464.060 A 1064.250,1064.250 0.00 0,1 1260.3,463.1 L 1260.3,463.1 1276.5,534.5 1290.8,600.8 1303.4,662.1 1314.4,718.7 1323.8,770.9 1331.7,818.9 1338.1,862.9 1343.2,903.1 1346.9,939.8 1349.3,972.9 1350.5,1002.8 1350.4,1029.6 1349.1,1053.3 1346.6,1074.1 1342.9,1092.2 1338.0,1107.6 1331.9,1120.3 1324.5,1130.5 1316.0,1138.2 1306.1,1143.4 1294.9,1146.1 1282.4,1146.4 1268.4,1144.2 1253.0,1139.5 1236.0,1132.3 1217.4,1122.6 1197.1,1110.2 1175.0,1095.1 1151.0,1077.2 1125.1,1056.4 1097.0,1032.6 1066.7,1005.7 1034.1,975.5 999.0,941.8 961.3,904.5 920.9,863.3 877.5,818.2 831.0,768.8 781.3,715.0  A 1064.250,1064.250 0.00 0,0 778.2,717.9 L 778.2,717.9 828.1,771.6 874.7,820.7 918.3,865.7 958.9,906.6 996.8,943.8 1032.0,977.3 1064.7,1007.4 1095.1,1034.3 1123.3,1058.0 1149.3,1078.6 1173.4,1096.4 1195.5,1111.4 1215.9,1123.7 1234.5,1133.4 1251.5,1140.5 1267.0,1145.1 1281.0,1147.2 1293.5,1146.9 1304.7,1144.1 1314.5,1138.9 1323.1,1131.2 1330.4,1121.0 1336.4,1108.2 1341.3,1092.8 1344.9,1074.8 1347.3,1053.9 1348.5,1030.2 1348.5,1003.4 1347.2,973.5 1344.7,940.4 1340.8,903.8 1335.6,863.6 1329.0,819.6 1320.9,771.6 1311.3,719.5 1300.1,662.9 1287.3,601.6 1272.6,535.4 1256.2,464.1  Z" style="stroke-width: 2.0;  stroke: rgb(82,82,82); fill: rgb(107,174,214); opacity: 0.667;" />
<path d="M 1371.640,443.519 A 1064.250,1064.250 0.00 0,1 1375.8,443.0 L 1375.8,443.0 1384.5,515.7 1392.8,582.9 1400.7,644.8 1408.3,701.7 1415.5,753.8 1422.5,801.4 1429.2,844.7 1435.6,883.9 1441.7,919.2 1447.7,950.8 1453.4,978.7 1458.9,1003.2 1464.3,1024.4 1469.5,1042.3 1474.6,1057.1 1479.6,1068.8 1484.6,1077.5 1489.4,1083.3 1494.2,1086.2 1498.9,1086.1 1503.7,1083.2 1508.4,1077.3 1513.2,1068.5 1518.0,1056.7 1522.8,1041.8 1527.8,1023.8 1532.8,1002.6 1537.9,978.0 1543.2,950.0 1548.6,918.3 1554.2,883.0 1559.9,843.6 1565.9,800.2 1572.0,752.5 1578.4,700.2 1585.0,643.2 1591.9,581.2 1599.1,513.9 1606.6,441.1  A 1064.250,1064.250 0.00 0,0 1602.3,440.7 L 1602.3,440.7 1595.2,513.5 1588.3,580.8 1581.6,642.9 1575.2,699.9 1569.0,752.2 1563.1,800.0 1557.3,843.4 1551.7,882.7 1546.3,918.2 1541.0,949.8 1535.8,977.9 1530.8,1002.5 1525.9,1023.7 1521.0,1041.8 1516.2,1056.6 1511.5,1068.5 1506.7,1077.3 1502.0,1083.2 1497.3,1086.2 1492.5,1086.2 1487.7,1083.4 1482.9,1077.6 1477.9,1068.9 1472.9,1057.2 1467.7,1042.4 1462.4,1024.5 1457.0,1003.4 1451.3,978.9 1445.5,951.0 1439.4,919.5 1433.1,884.2 1426.6,845.0 1419.7,801.7 1412.6,754.1 1405.1,702.0 1397.3,645.2 1389.2,583.3 1380.6,516.2 1371.6,443.5  Z" style="stroke-width: 2.0;  stroke: rgb(82,82,82); fill: rgb(253,141,60); opacity: 0.667;" />
<path d="M 1371.640,443.519 A 1064.250,1064.250 0.00 0,1 1375.8,443.0 L 1375.8,443.0 1384.6,515.7 1393.4,582.9 1402.1,644.9 1410.8,701.9 1419.4,754.1 1428.0,801.9 1436.5,845.5 1445.1,885.0 1453.7,920.6 1462.2,952.6 1470.9,981.0 1479.6,1006.0 1488.4,1027.8 1497.4,1046.5 1506.5,1062.1 1515.8,1074.7 1525.3,1084.4 1535.0,1091.3 1545.1,1095.4 1555.4,1096.7 1566.2,1095.2 1577.3,1090.9 1588.9,1083.8 1601.0,1073.8 1613.7,1060.9 1626.9,1045.0 1640.8,1026.1 1655.4,1003.9 1670.7,978.5 1686.9,949.6 1703.9,917.2 1721.9,881.0 1740.8,840.9 1760.9,796.6 1782.0,748.0 1804.4,694.9 1828.0,637.0 1853.0,574.0 1879.4,505.7  A 1064.250,1064.250 0.00 0,0 1875.3,504.1 L 1875.3,504.1 1849.2,572.6 1824.5,635.7 1801.1,693.7 1779.0,746.9 1758.0,795.6 1738.2,839.9 1719.4,880.1 1701.6,916.4 1684.7,948.9 1668.6,977.8 1653.4,1003.3 1638.9,1025.5 1625.1,1044.5 1611.9,1060.5 1599.3,1073.4 1587.2,1083.4 1575.7,1090.6 1564.6,1094.9 1553.8,1096.5 1543.5,1095.2 1533.4,1091.2 1523.6,1084.3 1514.1,1074.6 1504.7,1062.0 1495.6,1046.5 1486.6,1027.9 1477.7,1006.1 1468.8,981.1 1460.1,952.7 1451.4,920.8 1442.7,885.2 1434.0,845.7 1425.2,802.2 1416.5,754.5 1407.6,702.2 1398.8,645.3 1389.8,583.3 1380.8,516.2 1371.6,443.5  Z" style="stroke-width: 2.0;  stroke: rgb(82,82,82); fill: rgb(255,0,0); opacity: 0.667;" />
<path d="M 1371.640,443.519 A 1064.250,1064.250 0.00 0,1 1375.8,443.0 L 1375.8,443.0 1384.7,515.7 1393.6,582.9 1402.5,644.9 1411.5,702.0 1420.5,754.3 1429.5,802.2 1438.5,845.9 1447.7,885.6 1456.9,921.4 1466.2,953.5 1475.6,982.2 1485.2,1007.5 1494.9,1029.6 1504.8,1048.6 1515.0,1064.6 1525.4,1077.6 1536.1,1087.8 1547.1,1095.2 1558.6,1099.9 1570.4,1101.8 1582.7,1101.0 1595.5,1097.4 1608.9,1091.1 1622.9,1082.0 1637.6,1070.0 1653.0,1055.1 1669.2,1037.2 1686.2,1016.2 1704.2,992.0 1723.1,964.4 1743.2,933.3 1764.3,898.5 1786.7,860.0 1810.3,817.3 1835.3,770.5 1861.8,719.1 1889.8,663.1 1919.4,602.1 1950.7,535.9  A 1064.250,1064.250 0.00 0,0 1946.8,534.1 L 1946.8,534.1 1915.7,600.4 1886.4,661.5 1858.6,717.7 1832.4,769.1 1807.5,816.1 1784.1,858.8 1761.9,897.5 1740.9,932.3 1721.0,963.5 1702.1,991.2 1684.3,1015.5 1667.3,1036.5 1651.2,1054.5 1635.8,1069.5 1621.2,1081.5 1607.3,1090.7 1593.9,1097.0 1581.1,1100.6 1568.8,1101.5 1557.0,1099.6 1545.5,1095.0 1534.5,1087.7 1523.7,1077.5 1513.2,1064.5 1503.0,1048.6 1493.0,1029.6 1483.2,1007.6 1473.6,982.3 1464.0,953.7 1454.6,921.5 1445.2,885.8 1436.0,846.2 1426.7,802.5 1417.5,754.7 1408.3,702.3 1399.2,645.3 1390.0,583.4 1380.8,516.2 1371.6,443.5  Z" style="stroke-width: 2.0;  stroke: rgb(82,82,82); fill: rgb(255,0,204); opacity: 0.667;" />
<path d="M 1371.640,443.519 A 1064.250,1064.250 0.00 0,1 1375.8,443.0 L 1375.8,443.0 1385.3,516.0 1396.0,584.2 1407.7,647.7 1420.4,707.0 1434.0,762.4 1448.5,814.0 1463.6,862.2 1479.5,907.2 1496.1,949.2 1513.2,988.5 1531.0,1025.3 1549.5,1059.7 1568.5,1092.0 1588.2,1122.3 1608.5,1150.8 1629.5,1177.7 1651.3,1203.0 1674.0,1226.9 1697.5,1249.5 1721.9,1270.9 1747.5,1291.2 1774.2,1310.4 1802.2,1328.7 1831.6,1345.9 1862.6,1362.3 1895.2,1377.8 1929.8,1392.3 1966.4,1406.0 2005.2,1418.7 2046.4,1430.5 2090.3,1441.3 2137.0,1451.1 2186.8,1459.7 2239.8,1467.1 2296.5,1473.2 2357.0,1477.9 2421.5,1481.1 2490.5,1482.6 2564.1,1482.3  A 1064.250,1064.250 0.00 0,0 2564.0,1478.0 L 2564.0,1478.0 2490.4,1478.6 2421.4,1477.4 2356.9,1474.5 2296.4,1470.0 2239.7,1464.1 2186.6,1456.9 2136.8,1448.5 2090.0,1438.9 2046.1,1428.3 2004.9,1416.7 1966.0,1404.1 1929.4,1390.6 1894.7,1376.2 1862.0,1360.8 1831.0,1344.6 1801.5,1327.5 1773.4,1309.3 1746.6,1290.2 1721.0,1270.0 1696.5,1248.7 1672.9,1226.2 1650.2,1202.4 1628.3,1177.2 1607.1,1150.4 1586.7,1122.0 1566.9,1091.7 1547.7,1059.5 1529.2,1025.1 1511.2,988.4 1493.9,949.2 1477.2,907.3 1461.1,862.3 1445.8,814.2 1431.1,762.6 1417.3,707.4 1404.4,648.1 1392.4,584.6 1381.4,516.5 1371.6,443.5  Z" style="stroke-width: 2.0;  stroke: rgb(82,82,82); fill: rgb(255,204,204); opacity: 0.667;" />
<path d="M 1371.640,443.519 A 1064.250,1064.250 0.00 0,1 1375.8,443.0 L 1375.8,443.0 1385.6,516.5 1397.2,586.1 1410.1,652.0 1424.3,714.5 1439.5,773.9 1455.5,830.4 1472.1,884.3 1489.1,935.8 1506.4,985.2 1523.9,1032.7 1541.4,1078.5 1558.9,1122.8 1576.2,1165.9 1593.3,1207.8 1610.1,1249.0 1626.7,1289.4 1643.0,1329.3 1659.0,1368.9 1674.7,1408.3 1690.3,1447.7 1705.7,1487.3 1721.0,1527.2 1736.3,1567.5 1751.8,1608.3 1767.6,1649.9 1783.7,1692.2 1800.5,1735.5 1818.0,1779.8 1836.4,1825.2 1856.1,1871.8 1877.1,1919.7 1899.9,1969.0 1924.5,2019.7 1951.4,2071.9 1980.9,2125.7 2013.2,2181.1 2048.6,2238.1 2087.7,2296.8 2130.7,2357.2  A 1064.250,1064.250 0.00 0,0 2134.1,2354.7 L 2134.1,2354.7 2090.9,2294.4 2051.6,2235.9 2015.9,2179.0 1983.4,2123.8 1953.7,2070.1 1926.6,2018.0 1901.8,1967.4 1878.8,1918.2 1857.6,1870.4 1837.7,1823.8 1819.1,1778.5 1801.4,1734.3 1784.5,1691.1 1768.2,1648.8 1752.3,1607.3 1736.6,1566.5 1721.1,1526.3 1705.6,1486.5 1690.1,1447.0 1674.4,1407.6 1658.5,1368.3 1642.3,1328.7 1625.9,1288.9 1609.1,1248.5 1592.1,1207.5 1574.8,1165.6 1557.4,1122.6 1539.7,1078.3 1522.1,1032.6 1504.4,985.2 1486.9,935.9 1469.7,884.4 1452.9,830.6 1436.7,774.1 1421.2,714.8 1406.8,652.3 1393.6,586.5 1381.8,517.0 1371.6,443.5  Z" style="stroke-width: 2.0;  stroke: rgb(82,82,82); fill: rgb(255,153,0); opacity: 0.667;" />
<path d="M 1371.640,443.519 A 1064.250,1064.250 0.00 0,1 1375.8,443.0 L 1375.8,443.0 1384.0,515.8 1390.8,583.3 1396.2,645.8 1400.5,703.5 1403.5,756.7 1405.4,805.7 1406.2,850.5 1405.9,891.6 1404.7,928.9 1402.4,962.8 1399.1,993.4 1394.9,1020.7 1389.7,1045.1 1383.5,1066.6 1376.4,1085.2 1368.2,1101.2 1359.1,1114.5 1348.9,1125.2 1337.6,1133.4 1325.2,1139.2 1311.6,1142.5 1296.8,1143.3 1280.7,1141.7 1263.3,1137.6 1244.5,1131.0 1224.1,1121.9 1202.1,1110.1 1178.5,1095.6 1153.1,1078.4 1125.7,1058.2 1096.4,1035.1 1064.9,1008.8 1031.2,979.2 995.1,946.1 956.4,909.4 915.1,868.9 871.0,824.3 823.8,775.5 773.5,722.3  A 1064.250,1064.250 0.00 0,0 770.5,725.1 L 770.5,725.1 821.0,778.2 868.3,826.8 912.6,871.2 954.1,911.5 992.9,948.1 1029.2,981.0 1063.0,1010.5 1094.6,1036.7 1124.0,1059.7 1151.4,1079.8 1176.9,1096.9 1200.6,1111.3 1222.6,1123.0 1243.0,1132.0 1261.9,1138.6 1279.3,1142.6 1295.4,1144.1 1310.2,1143.2 1323.8,1139.9 1336.1,1134.1 1347.4,1125.8 1357.5,1115.0 1366.7,1101.7 1374.7,1085.7 1381.8,1067.0 1387.9,1045.5 1393.0,1021.2 1397.1,993.8 1400.3,963.2 1402.4,929.3 1403.5,891.9 1403.6,850.9 1402.7,806.0 1400.6,757.1 1397.3,703.9 1392.9,646.2 1387.1,583.8 1380.1,516.3 1371.6,443.5  Z" style="stroke-width: 2.0;  stroke: rgb(82,82,82); fill: rgb(255,204,0); opacity: 0.667;" />
<path d="M 1371.640,443.519 A 1064.250,1064.250 0.00 0,1 1375.8,443.0 L 1375.8,443.0 1384.0,515.8 1390.8,583.3 1396.3,645.8 1400.5,703.5 1403.6,756.7 1405.6,805.6 1406.4,850.4 1406.3,891.4 1405.1,928.7 1402.9,962.5 1399.7,993.0 1395.6,1020.3 1390.5,1044.6 1384.4,1066.0 1377.4,1084.5 1369.3,1100.4 1360.3,1113.5 1350.3,1124.2 1339.1,1132.3 1326.9,1137.9 1313.5,1141.0 1298.9,1141.7 1283.0,1139.9 1265.8,1135.6 1247.1,1128.8 1227.0,1119.4 1205.3,1107.4 1181.9,1092.7 1156.8,1075.1 1129.7,1054.7 1100.7,1031.2 1069.6,1004.5 1036.2,974.6 1000.5,941.1 962.3,904.0 921.4,863.1 877.7,818.1 831.1,768.8 781.3,715.0  A 1064.250,1064.250 0.00 0,0 778.2,717.9 L 778.2,717.9 828.2,771.5 875.0,820.6 918.8,865.4 959.9,906.2 998.3,943.2 1034.1,976.5 1067.6,1006.3 1098.8,1032.8 1127.9,1056.2 1155.1,1076.5 1180.3,1093.9 1203.7,1108.6 1225.5,1120.5 1245.6,1129.8 1264.3,1136.5 1281.5,1140.7 1297.4,1142.5 1312.1,1141.7 1325.4,1138.6 1337.7,1132.9 1348.8,1124.8 1358.8,1114.1 1367.8,1100.9 1375.7,1085.0 1382.7,1066.4 1388.7,1045.0 1393.7,1020.7 1397.7,993.4 1400.7,962.9 1402.8,929.1 1403.9,891.8 1403.9,850.8 1402.8,805.9 1400.7,757.1 1397.4,703.9 1392.9,646.2 1387.2,583.8 1380.1,516.3 1371.6,443.5  Z" style="stroke-width: 2.0;  stroke: rgb(82,82,82); fill: rgb(255,255,0); opacity: 0.667;" />
<path d="M 1371.640,443.519 A 1064.250,1064.250 0.00 0,1 1375.8,443.0 L 1375.8,443.0 1384.3,515.7 1392.0,582.9 1398.9,644.9 1405.2,701.9 1410.7,754.2 1415.7,802.0 1420.0,845.5 1423.7,884.9 1426.8,920.5 1429.4,952.2 1431.5,980.5 1433.1,1005.2 1434.1,1026.7 1434.7,1045.0 1434.7,1060.1 1434.3,1072.2 1433.4,1081.3 1432.0,1087.5 1430.1,1090.8 1427.7,1091.2 1424.8,1088.7 1421.4,1083.4 1417.5,1075.1 1413.0,1063.9 1408.0,1049.6 1402.3,1032.2 1396.1,1011.7 1389.2,987.8 1381.6,960.6 1373.3,929.8 1364.3,895.2 1354.5,856.9 1343.9,814.5 1332.4,767.8 1320.0,716.7 1306.6,661.0 1292.3,600.3 1276.8,534.4 1260.3,463.1  A 1064.250,1064.250 0.00 0,0 1256.2,464.1 L 1256.2,464.1 1273.0,535.3 1288.7,601.1 1303.3,661.7 1316.9,717.4 1329.5,768.5 1341.2,815.1 1352.0,857.5 1361.9,895.8 1371.1,930.3 1379.5,961.0 1387.2,988.3 1394.1,1012.1 1400.5,1032.6 1406.2,1050.0 1411.3,1064.2 1415.8,1075.4 1419.8,1083.7 1423.2,1089.0 1426.1,1091.5 1428.5,1091.1 1430.4,1087.8 1431.7,1081.6 1432.6,1072.4 1433.0,1060.3 1432.9,1045.2 1432.2,1027.0 1431.1,1005.5 1429.5,980.7 1427.3,952.5 1424.6,920.7 1421.3,885.2 1417.4,845.8 1412.9,802.3 1407.8,754.6 1402.0,702.3 1395.6,645.3 1388.4,583.4 1380.4,516.2 1371.6,443.5  Z" style="stroke-width: 2.0;  stroke: rgb(82,82,82); fill: rgb(204,255,0); opacity: 0.667;" />
<path d="M 1150.354,494.825 A 1064.250,1064.250 0.00 0,1 1153.4,493.8 L 1153.4,493.8 1177.1,563.1 1198.5,627.3 1218.0,686.6 1235.5,741.4 1251.1,791.7 1264.9,838.0 1277.0,880.3 1287.5,918.8 1296.5,953.8 1303.9,985.3 1309.9,1013.6 1314.4,1038.7 1317.6,1060.8 1319.4,1080.0 1319.8,1096.4 1319.0,1110.1 1316.8,1121.2 1313.3,1129.6 1308.5,1135.4 1302.3,1138.7 1294.8,1139.5 1285.8,1137.8 1275.5,1133.5 1263.6,1126.6 1250.2,1117.1 1235.2,1105.0 1218.5,1090.1 1200.1,1072.4 1179.8,1051.8 1157.7,1028.2 1133.5,1001.4 1107.2,971.3 1078.7,937.8 1047.9,900.7 1014.5,859.8 978.6,814.9 939.9,765.9 898.4,712.5 853.7,654.4  A 1064.250,1064.250 0.00 0,0 851.2,656.4 L 851.2,656.4 896.0,714.3 937.7,767.6 976.5,816.5 1012.6,861.3 1046.1,902.1 1077.0,939.1 1105.6,972.5 1132.0,1002.5 1156.3,1029.2 1178.5,1052.8 1198.8,1073.3 1217.3,1091.0 1234.0,1105.8 1249.0,1117.9 1262.5,1127.3 1274.4,1134.2 1284.7,1138.4 1293.7,1140.1 1301.2,1139.3 1307.4,1136.0 1312.2,1130.1 1315.7,1121.7 1317.8,1110.7 1318.6,1097.0 1318.1,1080.6 1316.2,1061.4 1313.0,1039.3 1308.4,1014.1 1302.3,985.9 1294.8,954.4 1285.8,919.4 1275.2,880.9 1262.9,838.7 1248.9,792.5 1233.2,742.2 1215.5,687.5 1195.9,628.2 1174.2,564.0 1150.4,494.8  Z" style="stroke-width: 2.0;  stroke: rgb(82,82,82); fill: rgb(0,255,0); opacity: 0.667;" />
<path d="M 1914.895,519.954 A 1064.250,1064.250 0.00 0,1 1919.7,522.0 L 1919.7,522.0 1890.7,589.2 1863.3,651.2 1837.7,708.1 1813.6,760.4 1791.0,808.1 1769.8,851.6 1750.0,891.0 1731.4,926.5 1714.1,958.3 1697.8,986.6 1682.6,1011.5 1668.4,1033.0 1655.2,1051.5 1642.8,1066.8 1631.3,1079.2 1620.6,1088.7 1610.6,1095.3 1601.3,1099.2 1592.7,1100.2 1584.7,1098.4 1577.4,1093.8 1570.6,1086.5 1564.3,1076.3 1558.6,1063.1 1553.4,1047.0 1548.7,1027.9 1544.5,1005.6 1540.7,980.0 1537.4,951.1 1534.6,918.6 1532.3,882.4 1530.5,842.4 1529.2,798.3 1528.3,750.0 1528.0,697.1 1528.2,639.6 1529.0,577.1 1530.4,509.4 1532.4,436.2  A 1064.250,1064.250 0.00 0,0 1527.1,436.1 L 1527.1,436.1 1525.5,509.3 1524.4,577.0 1524.0,639.5 1524.0,697.0 1524.6,749.8 1525.7,798.2 1527.2,842.2 1529.3,882.3 1531.8,918.4 1534.7,950.9 1538.1,979.8 1542.0,1005.4 1546.3,1027.7 1551.1,1046.8 1556.4,1062.8 1562.2,1075.9 1568.5,1086.1 1575.4,1093.5 1582.8,1098.0 1590.7,1099.7 1599.3,1098.7 1608.6,1094.8 1618.6,1088.1 1629.2,1078.6 1640.7,1066.1 1653.0,1050.7 1666.1,1032.2 1680.2,1010.6 1695.3,985.6 1711.4,957.3 1728.6,925.4 1747.0,889.8 1766.6,850.3 1787.6,806.7 1809.9,758.8 1833.7,706.5 1859.1,649.4 1886.1,587.3 1914.9,520.0  Z" style="stroke-width: 2.0;  stroke: rgb(82,82,82); fill: rgb(53,128,0); opacity: 0.667;" />
</g>
<defs>
<pattern id="hline-sparse" width="10" height="10" patternTransform="rotate(0 0 0)" patternUnits="userSpaceOnUse"><line x1="0" y1="0" x2="10" y2="0" style="stroke:black;stroke-width:2" /></pattern>
<pattern id="checker" width="10" height="10" patternTransform="rotate(45 0 0)" patternUnits="userSpaceOnUse"><line x1="0" y1="0" x2="10" y2="0" style="stroke:black;stroke-width:2" /><line x1="0" y1="0" x2="0" y2="10" style="stroke:black;stroke-width:2" /></pattern>
<pattern id="checker" width="10" height="10" patternTransform="rotate(45 0 0)" patternUnits="userSpaceOnUse"><line x1="0" y1="0" x2="10" y2="0" style="stroke:black;stroke-width:5" /><line x1="0" y1="0" x2="0" y2="10" style="stroke:black;stroke-width:4" /></pattern>
<pattern id="hline" width="10" height="10" patternTransform="rotate(0 0 0)" patternUnits="userSpaceOnUse"><line x1="0" y1="0" x2="10" y2="0" style="stroke:black;stroke-width:5" /></pattern>
<pattern id="vline-sparse" width="10" height="10" patternTransform="rotate(0 0 0)" patternUnits="userSpaceOnUse"><line x1="0" y1="0" x2="0" y2="10" style="stroke:black;stroke-width:2" /></pattern>
<pattern id="vline" width="10" height="10" patternTransform="rotate(0 0 0)" patternUnits="userSpaceOnUse"><line x1="0" y1="0" x2="0" y2="10" style="stroke:black;stroke-width:5" /></pattern>
</defs>
</svg>
