<?xml version="1.0" encoding="utf-8" standalone="no"?>
<!DOCTYPE svg PUBLIC "-//W3C//DTD SVG 1.1//EN" "http://www.w3.org/Graphics/SVG/1.1/DTD/svg11.dtd">
<svg width="3000px" height="3000px" version="1.1" xmlns="http://www.w3.org/2000/svg" xmlns:xlink="http://www.w3.org/1999/xlink">
<g id="ideograms">
<path d="M1500.000,425.000 A1075.000,1075.000 40.000 0,1 1807.131,469.808 L1821.417,421.892 A1125.000,1125.000 0.000 0,0 1500.000,375.000 Z" style="stroke-linecap:round;fill:rgb(116,196,118);fill-opacity:0.33;" />
<text x="1684.8" y="299.1" font-size="18.2px" font-family="CMUBright-Roman" style="text-anchor:start;fill:rgb(0,0,0);" transform="rotate(278.3,1684.8,299.1)" >R<tspan baseline-shift="-40%" font-size="90%">s</tspan>caffold<tspan baseline-shift="-40%" font-size="90%">7</tspan></text>
<line x1='1500.0' y1='375.0' x2='1500.0' y2='355.0' style="stroke-width:4.0;stroke:rgb(0,0,0);stroke-linecap:round;fill:none;" />
<text x="1506.5" y="345.0" font-size="18.2px" font-family="CMUBright-Roman" style="text-anchor:start;fill:rgb(0,0,0);" transform="rotate(270.0,1506.5,345.0)" >0</text>
<line x1='1569.9' y1='377.2' x2='1571.1' y2='357.2' style="stroke-width:4.0;stroke:rgb(0,0,0);stroke-linecap:round;fill:none;" />
<text x="1578.2" y="347.7" font-size="18.2px" font-family="CMUBright-Roman" style="text-anchor:start;fill:rgb(0,0,0);" transform="rotate(273.6,1578.2,347.7)" >50</text>
<line x1='1639.5' y1='383.7' x2='1641.9' y2='363.8' style="stroke-width:4.0;stroke:rgb(0,0,0);stroke-linecap:round;fill:none;" />
<text x="1649.6" y="354.7" font-size="18.2px" font-family="CMUBright-Roman" style="text-anchor:start;fill:rgb(0,0,0);" transform="rotate(277.1,1649.6,354.7)" >100</text>
<line x1='1708.5' y1='394.5' x2='1712.2' y2='374.8' style="stroke-width:4.0;stroke:rgb(0,0,0);stroke-linecap:round;fill:none;" />
<text x="1720.5" y="366.2" font-size="18.2px" font-family="CMUBright-Roman" style="text-anchor:start;fill:rgb(0,0,0);" transform="rotate(280.7,1720.5,366.2)" >150</text>
<line x1='1776.8' y1='409.6' x2='1781.7' y2='390.2' style="stroke-width:4.0;stroke:rgb(0,0,0);stroke-linecap:round;fill:none;" />
<text x="1790.5" y="382.1" font-size="18.2px" font-family="CMUBright-Roman" style="text-anchor:start;fill:rgb(0,0,0);" transform="rotate(284.2,1790.5,382.1)" >200</text>
<g id="highlighttrack_0">
<path d="M1767.649,458.852 A1075.000,1075.000 40.000 0,1 1771.630,459.884 L1784.264,411.506 A1125.000,1125.000 0.000 0,0 1780.097,410.426 Z" style="stroke-width:4.0;stroke:rgb(0,0,0);stroke-linecap:round;fill:rgb(116,196,118);" />
<path d="M1778.225,461.628 A1075.000,1075.000 40.000 0,1 1785.135,463.504 L1798.397,415.295 A1125.000,1125.000 0.000 0,0 1791.166,413.332 Z" style="stroke-width:4.0;stroke:rgb(0,0,0);stroke-linecap:round;fill:rgb(116,196,118);" />
</g>
<path d="M1867.621,489.812 A1075.000,1075.000 40.000 0,1 2058.005,581.167 L2083.959,538.430 A1125.000,1125.000 0.000 0,0 1884.720,442.827 Z" style="stroke-linecap:round;fill:rgb(116,196,118);fill-opacity:0.33;" />
<text x="2034.2" y="408.7" font-size="18.2px" font-family="CMUBright-Roman" style="text-anchor:start;fill:rgb(0,0,0);" transform="rotate(295.6,2034.2,408.7)" >R<tspan baseline-shift="-40%" font-size="90%">s</tspan>caffold<tspan baseline-shift="-40%" font-size="90%">1</tspan>2</text>
<line x1='1884.7' y1='442.8' x2='1891.6' y2='424.0' style="stroke-width:4.0;stroke:rgb(0,0,0);stroke-linecap:round;fill:none;" />
<text x="1901.1" y="416.9" font-size="18.2px" font-family="CMUBright-Roman" style="text-anchor:start;fill:rgb(0,0,0);" transform="rotate(290.0,1901.1,416.9)" >0</text>
<line x1='1949.6' y1='468.8' x2='1957.6' y2='450.4' style="stroke-width:4.0;stroke:rgb(0,0,0);stroke-linecap:round;fill:none;" />
<text x="1967.6" y="443.9" font-size="18.2px" font-family="CMUBright-Roman" style="text-anchor:start;fill:rgb(0,0,0);" transform="rotate(293.6,1967.6,443.9)" >50</text>
<line x1='2012.8' y1='498.7' x2='2021.9' y2='480.9' style="stroke-width:4.0;stroke:rgb(0,0,0);stroke-linecap:round;fill:none;" />
<text x="2032.3" y="475.0" font-size="18.2px" font-family="CMUBright-Roman" style="text-anchor:start;fill:rgb(0,0,0);" transform="rotate(297.1,2032.3,475.0)" >100</text>
<line x1='2074.0' y1='532.5' x2='2084.2' y2='515.3' style="stroke-width:4.0;stroke:rgb(0,0,0);stroke-linecap:round;fill:none;" />
<text x="2094.9" y="510.0" font-size="18.2px" font-family="CMUBright-Roman" style="text-anchor:start;fill:rgb(0,0,0);" transform="rotate(300.7,2094.9,510.0)" >150</text>
<g id="highlighttrack_0">
<path d="M2054.110,578.812 A1075.000,1075.000 40.000 0,1 2057.100,580.617 L2083.011,537.855 A1125.000,1125.000 0.000 0,0 2079.882,535.966 Z" style="stroke-width:4.0;stroke:rgb(0,0,0);stroke-linecap:round;fill:rgb(116,196,118);" />
</g>
<path d="M2111.458,615.837 A1075.000,1075.000 40.000 0,1 2140.813,636.876 L2170.618,596.730 A1125.000,1125.000 0.000 0,0 2139.898,574.713 Z" style="stroke-linecap:round;fill:rgb(116,196,118);fill-opacity:0.33;" />
<text x="2215.5" y="518.0" font-size="18.2px" font-family="CMUBright-Roman" style="text-anchor:start;fill:rgb(0,0,0);" transform="rotate(305.6,2215.5,518.0)" >R<tspan baseline-shift="-40%" font-size="90%">s</tspan>caffold<tspan baseline-shift="-40%" font-size="90%">2</tspan>6</text>
<line x1='2139.9' y1='574.7' x2='2151.3' y2='558.3' style="stroke-width:4.0;stroke:rgb(0,0,0);stroke-linecap:round;fill:none;" />
<text x="2162.3" y="553.8" font-size="18.2px" font-family="CMUBright-Roman" style="text-anchor:start;fill:rgb(0,0,0);" transform="rotate(304.7,2162.3,553.8)" >0</text>
<g id="highlighttrack_0">
<path d="M2117.973,620.378 A1075.000,1075.000 40.000 0,1 2123.825,624.518 L2152.840,583.798 A1125.000,1125.000 0.000 0,0 2146.716,579.466 Z" style="stroke-width:4.0;stroke:rgb(0,0,0);stroke-linecap:round;fill:rgb(116,196,118);" />
</g>
<path d="M2190.820,676.354 A1075.000,1075.000 40.000 0,1 2216.775,698.839 L2250.113,661.576 A1125.000,1125.000 0.000 0,0 2222.951,638.045 Z" style="stroke-linecap:round;fill:rgb(116,196,118);fill-opacity:0.33;" />
<text x="2302.7" y="587.9" font-size="18.2px" font-family="CMUBright-Roman" style="text-anchor:start;fill:rgb(0,0,0);" transform="rotate(310.9,2302.7,587.9)" >R<tspan baseline-shift="-40%" font-size="90%">s</tspan>caffold<tspan baseline-shift="-40%" font-size="90%">2</tspan>7</text>
<line x1='2223.0' y1='638.0' x2='2235.8' y2='622.7' style="stroke-width:4.0;stroke:rgb(0,0,0);stroke-linecap:round;fill:none;" />
<text x="2247.2" y="619.3" font-size="18.2px" font-family="CMUBright-Roman" style="text-anchor:start;fill:rgb(0,0,0);" transform="rotate(310.0,2247.2,619.3)" >0</text>
<g id="highlighttrack_0">
<path d="M2209.392,692.295 A1075.000,1075.000 40.000 0,1 2215.433,697.640 L2248.709,660.321 A1125.000,1125.000 0.000 0,0 2242.387,654.727 Z" style="stroke-width:4.0;stroke:rgb(0,0,0);stroke-linecap:round;fill:rgb(116,196,118);" />
</g>
<path d="M2262.977,742.708 A1075.000,1075.000 40.000 0,1 2266.300,746.071 L2301.942,711.004 A1125.000,1125.000 0.000 0,0 2298.465,707.486 Z" style="stroke-linecap:round;fill:rgb(116,196,118);fill-opacity:0.33;" />
<text x="2370.9" y="652.8" font-size="18.2px" font-family="CMUBright-Roman" style="text-anchor:start;fill:rgb(0,0,0);" transform="rotate(315.3,2370.9,652.8)" >R<tspan baseline-shift="-40%" font-size="90%">s</tspan>caffold<tspan baseline-shift="-40%" font-size="90%">3</tspan>4</text>
<line x1='2298.5' y1='707.5' x2='2312.7' y2='693.4' style="stroke-width:4.0;stroke:rgb(0,0,0);stroke-linecap:round;fill:none;" />
<text x="2324.3" y="691.0" font-size="18.2px" font-family="CMUBright-Roman" style="text-anchor:start;fill:rgb(0,0,0);" transform="rotate(315.2,2324.3,691.0)" >0</text>
<g id="highlighttrack_0">
<path d="M2263.023,742.755 A1075.000,1075.000 40.000 0,1 2265.714,745.476 L2301.329,710.382 A1125.000,1125.000 0.000 0,0 2298.513,707.534 Z" style="stroke-width:4.0;stroke:rgb(0,0,0);stroke-linecap:round;fill:rgb(116,196,118);" />
</g>
<path d="M2309.617,792.791 A1075.000,1075.000 40.000 1,1 1436.316,426.888 L1433.354,376.976 A1125.000,1125.000 0.000 1,0 2347.274,759.898 Z" style="stroke-linecap:round;fill:rgb(116,196,118);fill-opacity:0.33;" />
<text x="1039.3" y="2624.2" font-size="18.2px" font-family="CMUBright-Roman" style="text-anchor:end;fill:rgb(0,0,0);" transform="rotate(-67.3,1039.3,2624.2)" >NZ<tspan baseline-shift="-40%" font-size="90%">C</tspan>P022272.1</text>
<line x1='2347.3' y1='759.9' x2='2362.3' y2='746.7' style="stroke-width:4.0;stroke:rgb(0,0,0);stroke-linecap:round;fill:none;" />
<text x="2374.1" y="745.1" font-size="18.2px" font-family="CMUBright-Roman" style="text-anchor:start;fill:rgb(0,0,0);" transform="rotate(318.9,2374.1,745.1)" >0</text>
<line x1='2391.6' y1='813.9' x2='2407.5' y2='801.7' style="stroke-width:4.0;stroke:rgb(0,0,0);stroke-linecap:round;fill:none;" />
<text x="2419.3" y="800.8" font-size="18.2px" font-family="CMUBright-Roman" style="text-anchor:start;fill:rgb(0,0,0);" transform="rotate(322.4,2419.3,800.8)" >50</text>
<line x1='2432.5' y1='870.6' x2='2449.1' y2='859.5' style="stroke-width:4.0;stroke:rgb(0,0,0);stroke-linecap:round;fill:none;" />
<text x="2461.0" y="859.3" font-size="18.2px" font-family="CMUBright-Roman" style="text-anchor:start;fill:rgb(0,0,0);" transform="rotate(326.0,2461.0,859.3)" >100</text>
<line x1='2469.8' y1='929.8' x2='2487.0' y2='919.6' style="stroke-width:4.0;stroke:rgb(0,0,0);stroke-linecap:round;fill:none;" />
<text x="2498.9" y="920.2" font-size="18.2px" font-family="CMUBright-Roman" style="text-anchor:start;fill:rgb(0,0,0);" transform="rotate(329.5,2498.9,920.2)" >150</text>
<line x1='2503.3' y1='991.1' x2='2521.2' y2='982.1' style="stroke-width:4.0;stroke:rgb(0,0,0);stroke-linecap:round;fill:none;" />
<text x="2533.0" y="983.3" font-size="18.2px" font-family="CMUBright-Roman" style="text-anchor:start;fill:rgb(0,0,0);" transform="rotate(333.1,2533.0,983.3)" >200</text>
<line x1='2533.0' y1='1054.4' x2='2551.3' y2='1046.5' style="stroke-width:4.0;stroke:rgb(0,0,0);stroke-linecap:round;fill:none;" />
<text x="2563.1" y="1048.5" font-size="18.2px" font-family="CMUBright-Roman" style="text-anchor:start;fill:rgb(0,0,0);" transform="rotate(336.7,2563.1,1048.5)" >250</text>
<line x1='2558.7' y1='1119.4' x2='2577.5' y2='1112.6' style="stroke-width:4.0;stroke:rgb(0,0,0);stroke-linecap:round;fill:none;" />
<text x="2589.1" y="1115.4" font-size="18.2px" font-family="CMUBright-Roman" style="text-anchor:start;fill:rgb(0,0,0);" transform="rotate(340.2,2589.1,1115.4)" >300</text>
<line x1='2580.3' y1='1185.9' x2='2599.5' y2='1180.3' style="stroke-width:4.0;stroke:rgb(0,0,0);stroke-linecap:round;fill:none;" />
<text x="2610.9" y="1183.8" font-size="18.2px" font-family="CMUBright-Roman" style="text-anchor:start;fill:rgb(0,0,0);" transform="rotate(343.8,2610.9,1183.8)" >350</text>
<line x1='2597.7' y1='1253.6' x2='2617.2' y2='1249.2' style="stroke-width:4.0;stroke:rgb(0,0,0);stroke-linecap:round;fill:none;" />
<text x="2628.4" y="1253.4" font-size="18.2px" font-family="CMUBright-Roman" style="text-anchor:start;fill:rgb(0,0,0);" transform="rotate(347.3,2628.4,1253.4)" >400</text>
<line x1='2610.9' y1='1322.2' x2='2630.6' y2='1319.1' style="stroke-width:4.0;stroke:rgb(0,0,0);stroke-linecap:round;fill:none;" />
<text x="2641.5" y="1323.9" font-size="18.2px" font-family="CMUBright-Roman" style="text-anchor:start;fill:rgb(0,0,0);" transform="rotate(350.9,2641.5,1323.9)" >450</text>
<line x1='2619.8' y1='1391.6' x2='2639.7' y2='1389.6' style="stroke-width:4.0;stroke:rgb(0,0,0);stroke-linecap:round;fill:none;" />
<text x="2650.2" y="1395.1" font-size="18.2px" font-family="CMUBright-Roman" style="text-anchor:start;fill:rgb(0,0,0);" transform="rotate(354.5,2650.2,1395.1)" >500</text>
<line x1='2624.3' y1='1461.3' x2='2644.3' y2='1460.6' style="stroke-width:4.0;stroke:rgb(0,0,0);stroke-linecap:round;fill:none;" />
<text x="2654.5" y="1466.8" font-size="18.2px" font-family="CMUBright-Roman" style="text-anchor:start;fill:rgb(0,0,0);" transform="rotate(358.0,2654.5,1466.8)" >550</text>
<line x1='2624.6' y1='1531.2' x2='2644.6' y2='1531.8' style="stroke-width:4.0;stroke:rgb(0,0,0);stroke-linecap:round;fill:none;" />
<text x="2654.4" y="1538.5" font-size="18.2px" font-family="CMUBright-Roman" style="text-anchor:start;fill:rgb(0,0,0);" transform="rotate(1.6,2654.4,1538.5)" >600</text>
<line x1='2620.5' y1='1601.0' x2='2640.4' y2='1602.8' style="stroke-width:4.0;stroke:rgb(0,0,0);stroke-linecap:round;fill:none;" />
<text x="2649.7" y="1610.2" font-size="18.2px" font-family="CMUBright-Roman" style="text-anchor:start;fill:rgb(0,0,0);" transform="rotate(5.2,2649.7,1610.2)" >650</text>
<line x1='2612.0' y1='1670.4' x2='2631.8' y2='1673.4' style="stroke-width:4.0;stroke:rgb(0,0,0);stroke-linecap:round;fill:none;" />
<text x="2640.7" y="1681.4" font-size="18.2px" font-family="CMUBright-Roman" style="text-anchor:start;fill:rgb(0,0,0);" transform="rotate(8.7,2640.7,1681.4)" >700</text>
<line x1='2599.3' y1='1739.1' x2='2618.8' y2='1743.4' style="stroke-width:4.0;stroke:rgb(0,0,0);stroke-linecap:round;fill:none;" />
<text x="2627.2" y="1751.8" font-size="18.2px" font-family="CMUBright-Roman" style="text-anchor:start;fill:rgb(0,0,0);" transform="rotate(12.3,2627.2,1751.8)" >750</text>
<line x1='2582.3' y1='1806.9' x2='2601.6' y2='1812.4' style="stroke-width:4.0;stroke:rgb(0,0,0);stroke-linecap:round;fill:none;" />
<text x="2609.4" y="1821.4" font-size="18.2px" font-family="CMUBright-Roman" style="text-anchor:start;fill:rgb(0,0,0);" transform="rotate(15.8,2609.4,1821.4)" >800</text>
<line x1='2561.2' y1='1873.6' x2='2580.0' y2='1880.2' style="stroke-width:4.0;stroke:rgb(0,0,0);stroke-linecap:round;fill:none;" />
<text x="2587.3" y="1889.6" font-size="18.2px" font-family="CMUBright-Roman" style="text-anchor:start;fill:rgb(0,0,0);" transform="rotate(19.4,2587.3,1889.6)" >850</text>
<line x1='2535.9' y1='1938.7' x2='2554.3' y2='1946.5' style="stroke-width:4.0;stroke:rgb(0,0,0);stroke-linecap:round;fill:none;" />
<text x="2561.0" y="1956.4" font-size="18.2px" font-family="CMUBright-Roman" style="text-anchor:start;fill:rgb(0,0,0);" transform="rotate(23.0,2561.0,1956.4)" >900</text>
<line x1='2506.7' y1='2002.2' x2='2524.6' y2='2011.2' style="stroke-width:4.0;stroke:rgb(0,0,0);stroke-linecap:round;fill:none;" />
<text x="2530.6" y="2021.4" font-size="18.2px" font-family="CMUBright-Roman" style="text-anchor:start;fill:rgb(0,0,0);" transform="rotate(26.5,2530.6,2021.4)" >950</text>
<line x1='2473.5' y1='2063.8' x2='2490.8' y2='2073.8' style="stroke-width:4.0;stroke:rgb(0,0,0);stroke-linecap:round;fill:none;" />
<text x="2496.2" y="2084.4" font-size="18.2px" font-family="CMUBright-Roman" style="text-anchor:start;fill:rgb(0,0,0);" transform="rotate(30.1,2496.2,2084.4)" >1000</text>
<line x1='2436.6' y1='2123.1' x2='2453.3' y2='2134.2' style="stroke-width:4.0;stroke:rgb(0,0,0);stroke-linecap:round;fill:none;" />
<text x="2458.0" y="2145.2" font-size="18.2px" font-family="CMUBright-Roman" style="text-anchor:start;fill:rgb(0,0,0);" transform="rotate(33.6,2458.0,2145.2)" >1050</text>
<line x1='2396.1' y1='2180.1' x2='2412.1' y2='2192.2' style="stroke-width:4.0;stroke:rgb(0,0,0);stroke-linecap:round;fill:none;" />
<text x="2416.1" y="2203.4" font-size="18.2px" font-family="CMUBright-Roman" style="text-anchor:start;fill:rgb(0,0,0);" transform="rotate(37.2,2416.1,2203.4)" >1100</text>
<line x1='2352.2' y1='2234.5' x2='2367.3' y2='2247.5' style="stroke-width:4.0;stroke:rgb(0,0,0);stroke-linecap:round;fill:none;" />
<text x="2370.6" y="2259.0" font-size="18.2px" font-family="CMUBright-Roman" style="text-anchor:start;fill:rgb(0,0,0);" transform="rotate(40.8,2370.6,2259.0)" >1150</text>
<line x1='2304.9' y1='2286.0' x2='2319.2' y2='2299.9' style="stroke-width:4.0;stroke:rgb(0,0,0);stroke-linecap:round;fill:none;" />
<text x="2321.8" y="2311.6" font-size="18.2px" font-family="CMUBright-Roman" style="text-anchor:start;fill:rgb(0,0,0);" transform="rotate(44.3,2321.8,2311.6)" >1200</text>
<line x1='2254.5' y1='2334.4' x2='2268.0' y2='2349.3' style="stroke-width:4.0;stroke:rgb(0,0,0);stroke-linecap:round;fill:none;" />
<text x="2269.8" y="2361.0" font-size="18.2px" font-family="CMUBright-Roman" style="text-anchor:start;fill:rgb(0,0,0);" transform="rotate(47.9,2269.8,2361.0)" >1250</text>
<line x1='2201.3' y1='2379.7' x2='2213.7' y2='2395.3' style="stroke-width:4.0;stroke:rgb(0,0,0);stroke-linecap:round;fill:none;" />
<text x="2214.9" y="2407.2" font-size="18.2px" font-family="CMUBright-Roman" style="text-anchor:start;fill:rgb(0,0,0);" transform="rotate(51.4,2214.9,2407.2)" >1300</text>
<line x1='2145.3' y1='2421.5' x2='2156.8' y2='2437.9' style="stroke-width:4.0;stroke:rgb(0,0,0);stroke-linecap:round;fill:none;" />
<text x="2157.2" y="2449.8" font-size="18.2px" font-family="CMUBright-Roman" style="text-anchor:start;fill:rgb(0,0,0);" transform="rotate(55.0,2157.2,2449.8)" >1350</text>
<line x1='2086.8' y1='2459.8' x2='2097.2' y2='2476.9' style="stroke-width:4.0;stroke:rgb(0,0,0);stroke-linecap:round;fill:none;" />
<text x="2096.9" y="2488.8" font-size="18.2px" font-family="CMUBright-Roman" style="text-anchor:start;fill:rgb(0,0,0);" transform="rotate(58.6,2096.9,2488.8)" >1400</text>
<line x1='2026.1' y1='2494.4' x2='2035.4' y2='2512.1' style="stroke-width:4.0;stroke:rgb(0,0,0);stroke-linecap:round;fill:none;" />
<text x="2034.3" y="2524.0" font-size="18.2px" font-family="CMUBright-Roman" style="text-anchor:start;fill:rgb(0,0,0);" transform="rotate(62.1,2034.3,2524.0)" >1450</text>
<line x1='1963.3' y1='2525.2' x2='1971.5' y2='2543.4' style="stroke-width:4.0;stroke:rgb(0,0,0);stroke-linecap:round;fill:none;" />
<text x="1969.7" y="2555.2" font-size="18.2px" font-family="CMUBright-Roman" style="text-anchor:start;fill:rgb(0,0,0);" transform="rotate(65.7,1969.7,2555.2)" >1500</text>
<line x1='1898.7' y1='2552.0' x2='1905.8' y2='2570.7' style="stroke-width:4.0;stroke:rgb(0,0,0);stroke-linecap:round;fill:none;" />
<text x="1903.3" y="2582.3" font-size="18.2px" font-family="CMUBright-Roman" style="text-anchor:start;fill:rgb(0,0,0);" transform="rotate(69.2,1903.3,2582.3)" >1550</text>
<line x1='1832.6' y1='2574.7' x2='1838.5' y2='2593.8' style="stroke-width:4.0;stroke:rgb(0,0,0);stroke-linecap:round;fill:none;" />
<text x="1835.3" y="2605.3" font-size="18.2px" font-family="CMUBright-Roman" style="text-anchor:start;fill:rgb(0,0,0);" transform="rotate(72.8,1835.3,2605.3)" >1600</text>
<line x1='1765.2' y1='2593.3' x2='1770.0' y2='2612.7' style="stroke-width:4.0;stroke:rgb(0,0,0);stroke-linecap:round;fill:none;" />
<text x="1766.0" y="2624.0" font-size="18.2px" font-family="CMUBright-Roman" style="text-anchor:start;fill:rgb(0,0,0);" transform="rotate(76.4,1766.0,2624.0)" >1650</text>
<line x1='1696.8' y1='2607.6' x2='1700.3' y2='2627.3' style="stroke-width:4.0;stroke:rgb(0,0,0);stroke-linecap:round;fill:none;" />
<text x="1695.7" y="2638.3" font-size="18.2px" font-family="CMUBright-Roman" style="text-anchor:start;fill:rgb(0,0,0);" transform="rotate(79.9,1695.7,2638.3)" >1700</text>
<line x1='1627.7' y1='2617.7' x2='1629.9' y2='2637.6' style="stroke-width:4.0;stroke:rgb(0,0,0);stroke-linecap:round;fill:none;" />
<text x="1624.6" y="2648.3" font-size="18.2px" font-family="CMUBright-Roman" style="text-anchor:start;fill:rgb(0,0,0);" transform="rotate(83.5,1624.6,2648.3)" >1750</text>
<line x1='1558.0' y1='2623.5' x2='1559.0' y2='2643.5' style="stroke-width:4.0;stroke:rgb(0,0,0);stroke-linecap:round;fill:none;" />
<text x="1553.1" y="2653.8" font-size="18.2px" font-family="CMUBright-Roman" style="text-anchor:start;fill:rgb(0,0,0);" transform="rotate(87.0,1553.1,2653.8)" >1800</text>
<line x1='1488.1' y1='2624.9' x2='1487.9' y2='2644.9' style="stroke-width:4.0;stroke:rgb(0,0,0);stroke-linecap:round;fill:none;" />
<text x="1494.3" y="2655.0" font-size="18.2px" font-family="CMUBright-Roman" style="text-anchor:end;fill:rgb(0,0,0);" transform="rotate(-89.4,1494.3,2655.0)" >1850</text>
<line x1='1418.3' y1='2622.0' x2='1416.8' y2='2642.0' style="stroke-width:4.0;stroke:rgb(0,0,0);stroke-linecap:round;fill:none;" />
<text x="1422.6" y="2652.4" font-size="18.2px" font-family="CMUBright-Roman" style="text-anchor:end;fill:rgb(0,0,0);" transform="rotate(-85.8,1422.6,2652.4)" >1900</text>
<line x1='1348.7' y1='2614.8' x2='1346.1' y2='2634.6' style="stroke-width:4.0;stroke:rgb(0,0,0);stroke-linecap:round;fill:none;" />
<text x="1351.2" y="2645.4" font-size="18.2px" font-family="CMUBright-Roman" style="text-anchor:end;fill:rgb(0,0,0);" transform="rotate(-82.3,1351.2,2645.4)" >1950</text>
<line x1='1279.8' y1='2603.2' x2='1275.9' y2='2622.9' style="stroke-width:4.0;stroke:rgb(0,0,0);stroke-linecap:round;fill:none;" />
<text x="1280.3" y="2633.9" font-size="18.2px" font-family="CMUBright-Roman" style="text-anchor:end;fill:rgb(0,0,0);" transform="rotate(-78.7,1280.3,2633.9)" >2000</text>
<line x1='1211.7' y1='2587.4' x2='1206.6' y2='2606.8' style="stroke-width:4.0;stroke:rgb(0,0,0);stroke-linecap:round;fill:none;" />
<text x="1210.3" y="2618.1" font-size="18.2px" font-family="CMUBright-Roman" style="text-anchor:end;fill:rgb(0,0,0);" transform="rotate(-75.2,1210.3,2618.1)" >2050</text>
<line x1='1144.7' y1='2567.4' x2='1138.4' y2='2586.4' style="stroke-width:4.0;stroke:rgb(0,0,0);stroke-linecap:round;fill:none;" />
<text x="1141.4" y="2597.9" font-size="18.2px" font-family="CMUBright-Roman" style="text-anchor:end;fill:rgb(0,0,0);" transform="rotate(-71.6,1141.4,2597.9)" >2100</text>
<line x1='1079.1' y1='2543.3' x2='1071.6' y2='2561.9' style="stroke-width:4.0;stroke:rgb(0,0,0);stroke-linecap:round;fill:none;" />
<text x="1073.9" y="2573.5" font-size="18.2px" font-family="CMUBright-Roman" style="text-anchor:end;fill:rgb(0,0,0);" transform="rotate(-68.0,1073.9,2573.5)" >2150</text>
<line x1='1015.1' y1='2515.2' x2='1006.5' y2='2533.2' style="stroke-width:4.0;stroke:rgb(0,0,0);stroke-linecap:round;fill:none;" />
<text x="1008.1" y="2545.0" font-size="18.2px" font-family="CMUBright-Roman" style="text-anchor:end;fill:rgb(0,0,0);" transform="rotate(-64.5,1008.1,2545.0)" >2200</text>
<line x1='953.0' y1='2483.1' x2='943.3' y2='2500.6' style="stroke-width:4.0;stroke:rgb(0,0,0);stroke-linecap:round;fill:none;" />
<text x="944.1" y="2512.4" font-size="18.2px" font-family="CMUBright-Roman" style="text-anchor:end;fill:rgb(0,0,0);" transform="rotate(-60.9,944.1,2512.4)" >2250</text>
<line x1='893.0' y1='2447.2' x2='882.2' y2='2464.1' style="stroke-width:4.0;stroke:rgb(0,0,0);stroke-linecap:round;fill:none;" />
<text x="882.3" y="2476.0" font-size="18.2px" font-family="CMUBright-Roman" style="text-anchor:end;fill:rgb(0,0,0);" transform="rotate(-57.3,882.3,2476.0)" >2300</text>
<line x1='835.4' y1='2407.7' x2='823.6' y2='2423.8' style="stroke-width:4.0;stroke:rgb(0,0,0);stroke-linecap:round;fill:none;" />
<text x="822.9" y="2435.7" font-size="18.2px" font-family="CMUBright-Roman" style="text-anchor:end;fill:rgb(0,0,0);" transform="rotate(-53.8,822.9,2435.7)" >2350</text>
<line x1='780.3' y1='2364.7' x2='767.5' y2='2380.0' style="stroke-width:4.0;stroke:rgb(0,0,0);stroke-linecap:round;fill:none;" />
<text x="766.1" y="2391.9" font-size="18.2px" font-family="CMUBright-Roman" style="text-anchor:end;fill:rgb(0,0,0);" transform="rotate(-50.2,766.1,2391.9)" >2400</text>
<line x1='728.0' y1='2318.3' x2='714.3' y2='2332.8' style="stroke-width:4.0;stroke:rgb(0,0,0);stroke-linecap:round;fill:none;" />
<text x="712.1" y="2344.6" font-size="18.2px" font-family="CMUBright-Roman" style="text-anchor:end;fill:rgb(0,0,0);" transform="rotate(-46.7,712.1,2344.6)" >2450</text>
<line x1='678.7' y1='2268.8' x2='664.1' y2='2282.4' style="stroke-width:4.0;stroke:rgb(0,0,0);stroke-linecap:round;fill:none;" />
<text x="661.2" y="2294.0" font-size="18.2px" font-family="CMUBright-Roman" style="text-anchor:end;fill:rgb(0,0,0);" transform="rotate(-43.1,661.2,2294.0)" >2500</text>
<line x1='632.5' y1='2216.3' x2='617.1' y2='2229.0' style="stroke-width:4.0;stroke:rgb(0,0,0);stroke-linecap:round;fill:none;" />
<text x="613.5" y="2240.4" font-size="18.2px" font-family="CMUBright-Roman" style="text-anchor:end;fill:rgb(0,0,0);" transform="rotate(-39.5,613.5,2240.4)" >2550</text>
<line x1='589.7' y1='2161.0' x2='573.5' y2='2172.8' style="stroke-width:4.0;stroke:rgb(0,0,0);stroke-linecap:round;fill:none;" />
<text x="569.2" y="2183.9" font-size="18.2px" font-family="CMUBright-Roman" style="text-anchor:end;fill:rgb(0,0,0);" transform="rotate(-36.0,569.2,2183.9)" >2600</text>
<line x1='550.4' y1='2103.2' x2='533.5' y2='2113.9' style="stroke-width:4.0;stroke:rgb(0,0,0);stroke-linecap:round;fill:none;" />
<text x="528.6" y="2124.8" font-size="18.2px" font-family="CMUBright-Roman" style="text-anchor:end;fill:rgb(0,0,0);" transform="rotate(-32.4,528.6,2124.8)" >2650</text>
<line x1='514.8' y1='2043.1' x2='497.2' y2='2052.7' style="stroke-width:4.0;stroke:rgb(0,0,0);stroke-linecap:round;fill:none;" />
<text x="491.6" y="2063.2" font-size="18.2px" font-family="CMUBright-Roman" style="text-anchor:end;fill:rgb(0,0,0);" transform="rotate(-28.9,491.6,2063.2)" >2700</text>
<line x1='482.9' y1='1980.8' x2='464.9' y2='1989.4' style="stroke-width:4.0;stroke:rgb(0,0,0);stroke-linecap:round;fill:none;" />
<text x="458.6" y="1999.5" font-size="18.2px" font-family="CMUBright-Roman" style="text-anchor:end;fill:rgb(0,0,0);" transform="rotate(-25.3,458.6,1999.5)" >2750</text>
<line x1='455.0' y1='1916.7' x2='436.5' y2='1924.2' style="stroke-width:4.0;stroke:rgb(0,0,0);stroke-linecap:round;fill:none;" />
<text x="429.6" y="1933.9" font-size="18.2px" font-family="CMUBright-Roman" style="text-anchor:end;fill:rgb(0,0,0);" transform="rotate(-21.7,429.6,1933.9)" >2800</text>
<line x1='431.2' y1='1851.0' x2='412.2' y2='1857.3' style="stroke-width:4.0;stroke:rgb(0,0,0);stroke-linecap:round;fill:none;" />
<text x="404.7" y="1866.6" font-size="18.2px" font-family="CMUBright-Roman" style="text-anchor:end;fill:rgb(0,0,0);" transform="rotate(-18.2,404.7,1866.6)" >2850</text>
<line x1='411.4' y1='1784.0' x2='392.1' y2='1789.0' style="stroke-width:4.0;stroke:rgb(0,0,0);stroke-linecap:round;fill:none;" />
<text x="384.1" y="1797.8" font-size="18.2px" font-family="CMUBright-Roman" style="text-anchor:end;fill:rgb(0,0,0);" transform="rotate(-14.6,384.1,1797.8)" >2900</text>
<line x1='395.9' y1='1715.8' x2='376.3' y2='1719.7' style="stroke-width:4.0;stroke:rgb(0,0,0);stroke-linecap:round;fill:none;" />
<text x="367.7" y="1728.0" font-size="18.2px" font-family="CMUBright-Roman" style="text-anchor:end;fill:rgb(0,0,0);" transform="rotate(-11.1,367.7,1728.0)" >2950</text>
<line x1='384.6' y1='1646.8' x2='364.8' y2='1649.5' style="stroke-width:4.0;stroke:rgb(0,0,0);stroke-linecap:round;fill:none;" />
<text x="355.7" y="1657.2" font-size="18.2px" font-family="CMUBright-Roman" style="text-anchor:end;fill:rgb(0,0,0);" transform="rotate(-7.5,355.7,1657.2)" >3000</text>
<line x1='377.7' y1='1577.3' x2='357.7' y2='1578.7' style="stroke-width:4.0;stroke:rgb(0,0,0);stroke-linecap:round;fill:none;" />
<text x="348.2" y="1585.8" font-size="18.2px" font-family="CMUBright-Roman" style="text-anchor:end;fill:rgb(0,0,0);" transform="rotate(-3.9,348.2,1585.8)" >3050</text>
<line x1='375.0' y1='1507.4' x2='355.0' y2='1507.6' style="stroke-width:4.0;stroke:rgb(0,0,0);stroke-linecap:round;fill:none;" />
<text x="345.1" y="1514.1" font-size="18.2px" font-family="CMUBright-Roman" style="text-anchor:end;fill:rgb(0,0,0);" transform="rotate(-0.4,345.1,1514.1)" >3100</text>
<line x1='376.7' y1='1437.6' x2='356.8' y2='1436.4' style="stroke-width:4.0;stroke:rgb(0,0,0);stroke-linecap:round;fill:none;" />
<text x="346.4" y="1442.4" font-size="18.2px" font-family="CMUBright-Roman" style="text-anchor:end;fill:rgb(0,0,0);" transform="rotate(3.2,346.4,1442.4)" >3150</text>
<line x1='382.8' y1='1367.9' x2='362.9' y2='1365.6' style="stroke-width:4.0;stroke:rgb(0,0,0);stroke-linecap:round;fill:none;" />
<text x="352.2" y="1370.9" font-size="18.2px" font-family="CMUBright-Roman" style="text-anchor:end;fill:rgb(0,0,0);" transform="rotate(6.7,352.2,1370.9)" >3200</text>
<line x1='393.1' y1='1298.8' x2='373.5' y2='1295.2' style="stroke-width:4.0;stroke:rgb(0,0,0);stroke-linecap:round;fill:none;" />
<text x="362.5" y="1299.8" font-size="18.2px" font-family="CMUBright-Roman" style="text-anchor:end;fill:rgb(0,0,0);" transform="rotate(10.3,362.5,1299.8)" >3250</text>
<line x1='407.8' y1='1230.4' x2='388.4' y2='1225.6' style="stroke-width:4.0;stroke:rgb(0,0,0);stroke-linecap:round;fill:none;" />
<text x="377.1" y="1229.6" font-size="18.2px" font-family="CMUBright-Roman" style="text-anchor:end;fill:rgb(0,0,0);" transform="rotate(13.9,377.1,1229.6)" >3300</text>
<line x1='426.6' y1='1163.1' x2='407.5' y2='1157.1' style="stroke-width:4.0;stroke:rgb(0,0,0);stroke-linecap:round;fill:none;" />
<text x="396.1" y="1160.3" font-size="18.2px" font-family="CMUBright-Roman" style="text-anchor:end;fill:rgb(0,0,0);" transform="rotate(17.4,396.1,1160.3)" >3350</text>
<line x1='449.6' y1='1097.1' x2='430.9' y2='1090.0' style="stroke-width:4.0;stroke:rgb(0,0,0);stroke-linecap:round;fill:none;" />
<text x="419.3" y="1092.4" font-size="18.2px" font-family="CMUBright-Roman" style="text-anchor:end;fill:rgb(0,0,0);" transform="rotate(21.0,419.3,1092.4)" >3400</text>
<line x1='476.7' y1='1032.7' x2='458.5' y2='1024.3' style="stroke-width:4.0;stroke:rgb(0,0,0);stroke-linecap:round;fill:none;" />
<text x="446.7" y="1026.1" font-size="18.2px" font-family="CMUBright-Roman" style="text-anchor:end;fill:rgb(0,0,0);" transform="rotate(24.5,446.7,1026.1)" >3450</text>
<line x1='507.7' y1='970.0' x2='490.0' y2='960.6' style="stroke-width:4.0;stroke:rgb(0,0,0);stroke-linecap:round;fill:none;" />
<text x="478.2" y="961.6" font-size="18.2px" font-family="CMUBright-Roman" style="text-anchor:end;fill:rgb(0,0,0);" transform="rotate(28.1,478.2,961.6)" >3500</text>
<line x1='542.5' y1='909.4' x2='525.5' y2='898.9' style="stroke-width:4.0;stroke:rgb(0,0,0);stroke-linecap:round;fill:none;" />
<text x="513.6" y="899.2" font-size="18.2px" font-family="CMUBright-Roman" style="text-anchor:end;fill:rgb(0,0,0);" transform="rotate(31.7,513.6,899.2)" >3550</text>
<line x1='581.0' y1='851.1' x2='564.7' y2='839.5' style="stroke-width:4.0;stroke:rgb(0,0,0);stroke-linecap:round;fill:none;" />
<text x="552.8" y="839.1" font-size="18.2px" font-family="CMUBright-Roman" style="text-anchor:end;fill:rgb(0,0,0);" transform="rotate(35.2,552.8,839.1)" >3600</text>
<line x1='623.1' y1='795.3' x2='607.5' y2='782.7' style="stroke-width:4.0;stroke:rgb(0,0,0);stroke-linecap:round;fill:none;" />
<text x="595.7" y="781.5" font-size="18.2px" font-family="CMUBright-Roman" style="text-anchor:end;fill:rgb(0,0,0);" transform="rotate(38.8,595.7,781.5)" >3650</text>
<line x1='668.6' y1='742.2' x2='653.8' y2='728.7' style="stroke-width:4.0;stroke:rgb(0,0,0);stroke-linecap:round;fill:none;" />
<text x="642.0" y="726.8" font-size="18.2px" font-family="CMUBright-Roman" style="text-anchor:end;fill:rgb(0,0,0);" transform="rotate(42.3,642.0,726.8)" >3700</text>
<line x1='717.2' y1='692.0' x2='703.3' y2='677.6' style="stroke-width:4.0;stroke:rgb(0,0,0);stroke-linecap:round;fill:none;" />
<text x="691.7" y="675.0" font-size="18.2px" font-family="CMUBright-Roman" style="text-anchor:end;fill:rgb(0,0,0);" transform="rotate(45.9,691.7,675.0)" >3750</text>
<line x1='768.9' y1='644.9' x2='755.9' y2='629.7' style="stroke-width:4.0;stroke:rgb(0,0,0);stroke-linecap:round;fill:none;" />
<text x="744.5" y="626.4" font-size="18.2px" font-family="CMUBright-Roman" style="text-anchor:end;fill:rgb(0,0,0);" transform="rotate(49.5,744.5,626.4)" >3800</text>
<line x1='823.4' y1='601.2' x2='811.4' y2='585.2' style="stroke-width:4.0;stroke:rgb(0,0,0);stroke-linecap:round;fill:none;" />
<text x="800.2" y="581.1" font-size="18.2px" font-family="CMUBright-Roman" style="text-anchor:end;fill:rgb(0,0,0);" transform="rotate(53.0,800.2,581.1)" >3850</text>
<line x1='880.6' y1='560.9' x2='869.6' y2='544.2' style="stroke-width:4.0;stroke:rgb(0,0,0);stroke-linecap:round;fill:none;" />
<text x="858.6" y="539.4" font-size="18.2px" font-family="CMUBright-Roman" style="text-anchor:end;fill:rgb(0,0,0);" transform="rotate(56.6,858.6,539.4)" >3900</text>
<line x1='940.1' y1='524.2' x2='930.1' y2='506.9' style="stroke-width:4.0;stroke:rgb(0,0,0);stroke-linecap:round;fill:none;" />
<text x="919.5" y="501.5" font-size="18.2px" font-family="CMUBright-Roman" style="text-anchor:end;fill:rgb(0,0,0);" transform="rotate(60.2,919.5,501.5)" >3950</text>
<line x1='1001.8' y1='491.3' x2='992.9' y2='473.4' style="stroke-width:4.0;stroke:rgb(0,0,0);stroke-linecap:round;fill:none;" />
<text x="982.7" y="467.3" font-size="18.2px" font-family="CMUBright-Roman" style="text-anchor:end;fill:rgb(0,0,0);" transform="rotate(63.7,982.7,467.3)" >4000</text>
<line x1='1065.4' y1='462.3' x2='1057.6' y2='443.9' style="stroke-width:4.0;stroke:rgb(0,0,0);stroke-linecap:round;fill:none;" />
<text x="1047.8" y="437.2" font-size="18.2px" font-family="CMUBright-Roman" style="text-anchor:end;fill:rgb(0,0,0);" transform="rotate(67.3,1047.8,437.2)" >4050</text>
<line x1='1130.6' y1='437.4' x2='1124.1' y2='418.5' style="stroke-width:4.0;stroke:rgb(0,0,0);stroke-linecap:round;fill:none;" />
<text x="1114.7" y="411.2" font-size="18.2px" font-family="CMUBright-Roman" style="text-anchor:end;fill:rgb(0,0,0);" transform="rotate(70.8,1114.7,411.2)" >4100</text>
<line x1='1197.4' y1='416.5' x2='1192.0' y2='397.2' style="stroke-width:4.0;stroke:rgb(0,0,0);stroke-linecap:round;fill:none;" />
<text x="1183.0" y="389.3" font-size="18.2px" font-family="CMUBright-Roman" style="text-anchor:end;fill:rgb(0,0,0);" transform="rotate(74.4,1183.0,389.3)" >4150</text>
<line x1='1265.2' y1='399.8' x2='1261.1' y2='380.2' style="stroke-width:4.0;stroke:rgb(0,0,0);stroke-linecap:round;fill:none;" />
<text x="1252.6" y="371.8" font-size="18.2px" font-family="CMUBright-Roman" style="text-anchor:end;fill:rgb(0,0,0);" transform="rotate(78.0,1252.6,371.8)" >4200</text>
<line x1='1334.0' y1='387.3' x2='1331.1' y2='367.5' style="stroke-width:4.0;stroke:rgb(0,0,0);stroke-linecap:round;fill:none;" />
<text x="1323.2" y="358.6" font-size="18.2px" font-family="CMUBright-Roman" style="text-anchor:end;fill:rgb(0,0,0);" transform="rotate(81.5,1323.2,358.6)" >4250</text>
<line x1='1403.4' y1='379.2' x2='1401.7' y2='359.2' style="stroke-width:4.0;stroke:rgb(0,0,0);stroke-linecap:round;fill:none;" />
<text x="1394.4" y="349.8" font-size="18.2px" font-family="CMUBright-Roman" style="text-anchor:end;fill:rgb(0,0,0);" transform="rotate(85.1,1394.4,349.8)" >4300</text>
<g id="highlighttrack_0">
<path d="M2420.968,945.524 A1075.000,1075.000 40.000 0,1 2423.197,949.243 L2466.136,923.627 A1125.000,1125.000 0.000 0,0 2463.804,919.735 Z" style="stroke-width:4.0;stroke:rgb(0,0,0);stroke-linecap:round;fill:rgb(251,106,74);" />
<path d="M2454.900,1006.247 A1075.000,1075.000 40.000 0,1 2456.778,1009.897 L2501.279,987.101 A1125.000,1125.000 0.000 0,0 2499.314,983.282 Z" style="stroke-width:4.0;stroke:rgb(0,0,0);stroke-linecap:round;fill:rgb(251,106,74);" />
<path d="M2405.009,2080.159 A1075.000,1075.000 40.000 0,1 2402.793,2083.601 L2444.783,2110.745 A1125.000,1125.000 0.000 0,0 2447.102,2107.143 Z" style="stroke-width:4.0;stroke:rgb(0,0,0);stroke-linecap:round;fill:rgb(251,106,74);" />
<path d="M1644.038,2565.306 A1075.000,1075.000 40.000 0,1 1639.591,2565.898 L1646.084,2615.475 A1125.000,1125.000 0.000 0,0 1650.738,2614.856 Z" style="stroke-width:4.0;stroke:rgb(0,0,0);stroke-linecap:round;fill:rgb(251,106,74);" />
<path d="M844.237,648.179 A1075.000,1075.000 40.000 0,1 847.424,645.735 L817.071,606.001 A1125.000,1125.000 0.000 0,0 813.736,608.559 Z" style="stroke-width:4.0;stroke:rgb(0,0,0);stroke-linecap:round;fill:rgb(116,196,118);" />
<path d="M851.845,642.375 A1075.000,1075.000 40.000 0,1 855.175,639.869 L825.183,599.863 A1125.000,1125.000 0.000 0,0 821.698,602.486 Z" style="stroke-width:4.0;stroke:rgb(0,0,0);stroke-linecap:round;fill:rgb(116,196,118);" />
<path d="M1254.441,453.422 A1075.000,1075.000 40.000 0,1 1258.545,452.468 L1247.314,403.745 A1125.000,1125.000 0.000 0,0 1243.020,404.744 Z" style="stroke-width:4.0;stroke:rgb(0,0,0);stroke-linecap:round;fill:rgb(116,196,118);" />
<path d="M1358.463,434.358 A1075.000,1075.000 40.000 0,1 1362.598,433.817 L1356.207,384.227 A1125.000,1125.000 0.000 0,0 1351.880,384.794 Z" style="stroke-width:4.0;stroke:rgb(0,0,0);stroke-linecap:round;fill:rgb(116,196,118);" />
<path d="M2438.516,975.774 A1075.000,1075.000 40.000 0,1 2442.415,982.817 L2486.248,958.762 A1125.000,1125.000 0.000 0,0 2482.168,951.391 Z" style="stroke-width:4.0;stroke:rgb(0,0,0);stroke-linecap:round;fill:rgb(251,106,74);" />
</g>
</g>
<g id="track_0">
<path d="M 2411.758,951.069 A 1064.250,1064.250 0.00 0,1 2414.0,954.8 L 2414.0,954.8 2351.0,992.1 2292.7,1026.4 2238.7,1057.8 2188.9,1086.3 2143.1,1112.3 2101.0,1135.6 2062.5,1156.6 2027.3,1175.3 1995.5,1191.7 1966.7,1206.0 1940.8,1218.3 1917.9,1228.6 1897.6,1237.0 1880.0,1243.5 1864.9,1248.2 1852.3,1251.1 1842.1,1252.3 1834.3,1251.6 1828.8,1249.2 1825.5,1245.1 1824.6,1239.2 1826.0,1231.4 1829.6,1221.8 1835.6,1210.4 1844.0,1197.0 1854.7,1181.5 1868.0,1164.1 1883.7,1144.4 1902.1,1122.5 1923.2,1098.3 1947.2,1071.6 1974.1,1042.3 2004.1,1010.3 2037.3,975.5 2074.0,937.6 2114.2,896.6 2158.1,852.3 2206.0,804.5 2258.1,753.0  A 1064.250,1064.250 0.00 0,0 2255.4,750.3 L 2255.4,750.3 2203.5,802.0 2155.8,850.0 2112.0,894.4 2072.0,935.6 2035.5,973.5 2002.4,1008.5 1972.5,1040.6 1945.7,1070.0 1921.8,1096.8 1900.8,1121.1 1882.4,1143.0 1866.7,1162.7 1853.6,1180.2 1842.9,1195.7 1834.6,1209.1 1828.6,1220.6 1825.0,1230.2 1823.6,1237.9 1824.6,1243.9 1827.8,1248.0 1833.3,1250.3 1841.1,1250.9 1851.3,1249.8 1863.9,1246.8 1879.0,1242.0 1896.6,1235.4 1916.8,1227.0 1939.7,1216.6 1965.5,1204.2 1994.2,1189.7 2026.0,1173.1 2061.1,1154.3 2099.5,1133.2 2141.5,1109.7 2187.2,1083.6 2236.9,1054.8 2290.8,1023.2 2349.0,988.7 2411.8,951.1  Z" style="stroke-width: 2.0;  stroke: rgb(82,82,82); fill: rgb(251,106,74); opacity: 0.667;" />
<path d="M 2445.351,1011.185 A 1064.250,1064.250 0.00 0,1 2447.2,1014.8 L 2447.2,1014.8 2382.0,1048.0 2321.5,1078.4 2265.5,1106.0 2213.8,1131.1 2166.2,1153.7 2122.4,1174.0 2082.3,1192.1 2045.7,1208.1 2012.5,1222.0 1982.4,1233.9 1955.4,1243.9 1931.3,1252.1 1910.0,1258.5 1891.4,1263.2 1875.4,1266.2 1861.9,1267.4 1850.9,1267.1 1842.3,1265.0 1836.0,1261.3 1832.1,1255.9 1830.6,1248.8 1831.3,1240.0 1834.4,1229.4 1839.9,1217.0 1847.7,1202.8 1858.0,1186.5 1870.8,1168.3 1886.1,1148.0 1904.1,1125.5 1924.9,1100.7 1948.5,1073.5 1975.1,1043.8 2004.9,1011.4 2037.9,976.2 2074.3,938.1 2114.4,896.9 2158.2,852.4 2206.0,804.5 2258.1,753.0  A 1064.250,1064.250 0.00 0,0 2255.4,750.3 L 2255.4,750.3 2203.6,802.0 2155.9,850.1 2112.2,894.7 2072.3,936.1 2036.0,974.3 2003.1,1009.6 1973.5,1042.1 1947.0,1071.9 1923.5,1099.2 1902.8,1124.1 1884.9,1146.6 1869.6,1167.0 1856.9,1185.3 1846.6,1201.5 1838.8,1215.8 1833.4,1228.2 1830.4,1238.8 1829.6,1247.6 1831.2,1254.7 1835.2,1260.1 1841.4,1263.7 1850.0,1265.8 1861.0,1266.1 1874.5,1264.8 1890.5,1261.7 1909.1,1257.0 1930.4,1250.5 1954.4,1242.2 1981.4,1232.1 2011.4,1220.0 2044.6,1206.0 2081.2,1189.9 2121.2,1171.7 2164.8,1151.2 2212.4,1128.4 2264.0,1103.1 2319.8,1075.2 2380.2,1044.6 2445.4,1011.2  Z" style="stroke-width: 2.0;  stroke: rgb(82,82,82); fill: rgb(116,196,118); opacity: 0.667;" />
<path d="M 2445.351,1011.185 A 1064.250,1064.250 0.00 0,1 2447.2,1014.8 L 2447.2,1014.8 2382.0,1048.1 2321.8,1078.9 2266.2,1107.1 2215.0,1133.0 2168.1,1156.7 2125.2,1178.2 2086.1,1197.7 2050.6,1215.3 2018.7,1231.0 1990.0,1244.9 1964.6,1257.2 1942.2,1267.7 1922.7,1276.7 1906.2,1284.2 1892.4,1290.1 1881.3,1294.6 1872.9,1297.6 1867.0,1299.2 1863.8,1299.4 1863.1,1298.2 1865.0,1295.5 1869.4,1291.4 1876.5,1285.9 1886.1,1278.9 1898.5,1270.3 1913.6,1260.2 1931.5,1248.5 1952.4,1235.2 1976.2,1220.1 2003.3,1203.2 2033.5,1184.4 2067.2,1163.7 2104.5,1140.9 2145.6,1116.0 2190.5,1088.8 2239.6,1059.2 2293.1,1027.0 2351.1,992.3 2414.0,954.8  A 1064.250,1064.250 0.00 0,0 2411.8,951.1 L 2411.8,951.1 2349.1,988.9 2291.2,1023.9 2237.9,1056.2 2188.9,1086.0 2144.0,1113.4 2103.1,1138.5 2065.9,1161.4 2032.3,1182.3 2002.1,1201.2 1975.1,1218.2 1951.3,1233.4 1930.5,1246.8 1912.6,1258.6 1897.6,1268.7 1885.3,1277.3 1875.6,1284.4 1868.6,1290.0 1864.2,1294.1 1862.3,1296.7 1863.0,1298.0 1866.2,1297.8 1872.1,1296.2 1880.5,1293.1 1891.6,1288.6 1905.3,1282.6 1921.9,1275.1 1941.3,1266.0 1963.6,1255.4 1989.0,1243.1 2017.6,1229.0 2049.5,1213.2 2084.9,1195.5 2123.9,1175.8 2166.8,1154.1 2213.6,1130.3 2264.7,1104.2 2320.2,1075.7 2380.3,1044.8 2445.4,1011.2  Z" style="stroke-width: 2.0;  stroke: rgb(82,82,82); fill: rgb(107,174,214); opacity: 0.667;" />
<path d="M 2395.959,2074.357 A 1064.250,1064.250 0.00 0,1 2393.8,2077.8 L 2393.8,2077.8 2332.5,2037.2 2276.2,1998.1 2224.6,1960.4 2177.3,1924.1 2134.2,1888.9 2095.0,1854.9 2059.4,1822.0 2027.2,1790.0 1998.2,1759.0 1972.2,1728.7 1949.1,1699.2 1928.6,1670.3 1910.6,1642.0 1895.1,1614.1 1881.9,1586.5 1870.8,1559.2 1862.0,1532.1 1855.1,1505.0 1850.3,1477.9 1847.5,1450.6 1846.7,1423.1 1847.9,1395.2 1851.1,1366.8 1856.4,1337.8 1863.8,1308.2 1873.3,1277.7 1885.2,1246.3 1899.4,1213.9 1916.0,1180.3 1935.4,1145.4 1957.5,1109.1 1982.5,1071.3 2010.7,1031.8 2042.2,990.6 2077.3,947.4 2116.2,902.2 2159.1,854.8 2206.3,805.2 2258.1,753.0  A 1064.250,1064.250 0.00 0,0 2255.4,750.3 L 2255.4,750.3 2203.8,802.6 2156.8,852.5 2114.0,900.0 2075.3,945.4 2040.4,988.7 2009.0,1030.0 1981.0,1069.6 1956.1,1107.5 1934.1,1143.8 1914.9,1178.8 1898.3,1212.4 1884.3,1244.9 1872.5,1276.4 1863.1,1306.9 1855.8,1336.5 1850.7,1365.5 1847.6,1393.9 1846.5,1421.8 1847.4,1449.3 1850.3,1476.6 1855.2,1503.7 1862.1,1530.8 1871.1,1557.9 1882.2,1585.1 1895.6,1612.6 1911.2,1640.4 1929.2,1668.7 1949.8,1697.5 1973.1,1726.9 1999.2,1757.1 2028.3,1788.0 2060.6,1819.8 2096.4,1852.6 2135.7,1886.5 2178.9,1921.5 2226.3,1957.7 2278.1,1995.2 2334.5,2034.0 2396.0,2074.4  Z" style="stroke-width: 2.0;  stroke: rgb(82,82,82); fill: rgb(253,141,60); opacity: 0.667;" />
<path d="M 2395.959,2074.357 A 1064.250,1064.250 0.00 0,1 2393.8,2077.8 L 2393.8,2077.8 2332.5,2037.4 2276.2,1998.7 2224.7,1961.7 2177.6,1926.3 2134.8,1892.3 2095.8,1859.7 2060.7,1828.4 2029.0,1798.2 2000.8,1769.2 1975.6,1741.1 1953.5,1713.9 1934.2,1687.6 1917.7,1662.0 1903.8,1637.0 1892.5,1612.5 1883.5,1588.5 1877.0,1564.8 1872.8,1541.5 1870.9,1518.2 1871.3,1495.1 1874.1,1472.0 1879.1,1448.8 1886.5,1425.4 1896.2,1401.7 1908.5,1377.6 1923.3,1353.2 1940.7,1328.2 1960.9,1302.5 1984.0,1276.2 2010.1,1249.0 2039.4,1221.0 2072.1,1192.0 2108.4,1162.0 2148.5,1130.8 2192.5,1098.4 2240.8,1064.6 2293.7,1029.5 2351.3,992.9 2414.0,954.8  A 1064.250,1064.250 0.00 0,0 2411.8,951.1 L 2411.8,951.1 2349.2,989.5 2291.8,1026.3 2239.1,1061.7 2190.9,1095.6 2147.0,1128.2 2107.0,1159.5 2070.9,1189.7 2038.3,1218.8 2009.1,1247.0 1983.1,1274.2 1960.1,1300.7 1940.0,1326.4 1922.7,1351.5 1908.0,1376.0 1895.8,1400.1 1886.2,1423.8 1878.9,1447.3 1873.9,1470.5 1871.3,1493.7 1871.0,1516.8 1873.0,1540.0 1877.2,1563.4 1883.9,1587.0 1892.9,1611.0 1904.3,1635.4 1918.3,1660.4 1935.0,1685.9 1954.3,1712.2 1976.5,1739.3 2001.8,1767.2 2030.2,1796.2 2061.9,1826.2 2097.2,1857.4 2136.2,1889.9 2179.2,1923.7 2226.4,1959.0 2278.1,1995.8 2334.5,2034.2 2396.0,2074.4  Z" style="stroke-width: 2.0;  stroke: rgb(82,82,82); fill: rgb(255,0,0); opacity: 0.667;" />
<path d="M 2395.959,2074.357 A 1064.250,1064.250 0.00 0,1 2393.8,2077.8 L 2393.8,2077.8 2332.5,2037.4 2276.2,1998.9 2224.7,1962.1 2177.6,1926.9 2134.8,1893.2 2096.0,1861.0 2060.9,1830.1 2029.3,1800.5 2001.2,1772.0 1976.2,1744.5 1954.3,1718.0 1935.3,1692.4 1919.0,1667.6 1905.5,1643.4 1894.5,1619.9 1886.0,1596.8 1880.0,1574.2 1876.3,1551.9 1875.1,1529.8 1876.2,1507.9 1879.6,1486.1 1885.5,1464.3 1893.8,1442.4 1904.5,1420.3 1917.8,1398.0 1933.7,1375.3 1952.4,1352.2 1973.9,1328.6 1998.3,1304.5 2025.9,1279.7 2056.8,1254.1 2091.1,1227.8 2129.2,1200.6 2171.1,1172.4 2217.0,1143.2 2267.4,1113.0 2322.3,1081.5 2382.2,1048.8 2447.2,1014.8  A 1064.250,1064.250 0.00 0,0 2445.4,1011.2 L 2445.4,1011.2 2380.5,1045.4 2320.7,1078.4 2265.9,1110.0 2215.7,1140.5 2169.8,1169.9 2128.0,1198.2 2090.1,1225.5 2055.9,1252.0 2025.1,1277.7 1997.6,1302.6 1973.2,1326.8 1951.8,1350.5 1933.2,1373.6 1917.4,1396.4 1904.2,1418.8 1893.5,1440.9 1885.3,1462.8 1879.6,1484.7 1876.2,1506.5 1875.2,1528.4 1876.5,1550.4 1880.2,1572.7 1886.4,1595.3 1894.9,1618.4 1906.0,1641.9 1919.7,1666.0 1936.0,1690.8 1955.1,1716.3 1977.1,1742.7 2002.2,1770.1 2030.5,1798.5 2062.1,1828.0 2097.3,1858.7 2136.3,1890.8 2179.3,1924.3 2226.5,1959.3 2278.1,1995.9 2334.5,2034.2 2396.0,2074.4  Z" style="stroke-width: 2.0;  stroke: rgb(82,82,82); fill: rgb(255,0,204); opacity: 0.667;" />
<path d="M 1642.598,2554.653 A 1064.250,1064.250 0.00 0,1 1638.2,2555.2 L 1638.2,2555.2 1629.7,2481.8 1623.7,2412.2 1620.1,2346.3 1618.5,2283.7 1618.8,2224.2 1620.7,2167.6 1624.1,2113.7 1628.7,2062.2 1634.5,2013.0 1641.2,1965.8 1648.8,1920.4 1657.2,1876.6 1666.2,1834.3 1675.9,1793.2 1686.1,1753.2 1696.8,1714.1 1708.0,1675.7 1719.7,1637.9 1732.0,1600.5 1744.7,1563.4 1758.1,1526.4 1772.1,1489.4 1786.9,1452.3 1802.5,1414.9 1819.0,1377.0 1836.7,1338.7 1855.6,1299.8 1875.9,1260.1 1897.8,1219.6 1921.6,1178.3 1947.3,1135.9 1975.3,1092.5 2005.8,1047.9 2039.1,1002.1 2075.5,955.0 2115.3,906.6 2158.7,856.9 2206.2,805.7 2258.1,753.0  A 1064.250,1064.250 0.00 0,0 2255.4,750.3 L 2255.4,750.3 2203.7,803.2 2156.4,854.5 2113.1,904.5 2073.6,953.0 2037.4,1000.2 2004.2,1046.1 1973.9,1090.8 1946.0,1134.3 1920.4,1176.8 1896.9,1218.2 1875.1,1258.8 1854.9,1298.5 1836.2,1337.5 1818.6,1375.9 1802.2,1413.7 1786.8,1451.2 1772.1,1488.4 1758.3,1525.5 1745.0,1562.5 1732.4,1599.7 1720.4,1637.1 1708.8,1674.9 1697.7,1713.3 1687.2,1752.5 1677.1,1792.5 1667.7,1833.6 1658.8,1876.0 1650.6,1919.8 1643.2,1965.2 1636.6,2012.4 1631.1,2061.7 1626.6,2113.2 1623.5,2167.1 1621.8,2223.7 1621.8,2283.2 1623.6,2345.8 1627.5,2411.7 1633.8,2481.3 1642.6,2554.7  Z" style="stroke-width: 2.0;  stroke: rgb(82,82,82); fill: rgb(255,204,204); opacity: 0.667;" />
<path d="M 1642.598,2554.653 A 1064.250,1064.250 0.00 0,1 1638.2,2555.2 L 1638.2,2555.2 1629.6,2482.0 1623.6,2412.8 1619.7,2347.5 1618.0,2285.8 1618.1,2227.4 1619.9,2172.1 1623.2,2119.7 1627.9,2070.0 1633.9,2022.6 1641.0,1977.5 1649.2,1934.4 1658.4,1893.1 1668.5,1853.4 1679.4,1815.2 1691.2,1778.2 1703.7,1742.3 1717.1,1707.4 1731.4,1673.3 1746.4,1639.8 1762.4,1606.8 1779.3,1574.3 1797.3,1542.0 1816.4,1509.8 1836.8,1477.7 1858.5,1445.6 1881.8,1413.3 1906.7,1380.8 1933.4,1348.0 1962.2,1314.9 1993.2,1281.4 2026.7,1247.3 2062.8,1212.8 2101.9,1177.7 2144.1,1142.1 2189.9,1105.8 2239.4,1069.0 2293.1,1031.5 2351.1,993.4 2414.0,954.8  A 1064.250,1064.250 0.00 0,0 2411.8,951.1 L 2411.8,951.1 2349.1,990.0 2291.2,1028.3 2237.7,1066.0 2188.3,1103.1 2142.7,1139.5 2100.6,1175.3 2061.6,1210.5 2025.6,1245.2 1992.3,1279.4 1961.5,1313.0 1932.8,1346.3 1906.2,1379.2 1881.4,1411.8 1858.3,1444.1 1836.7,1476.4 1816.5,1508.5 1797.5,1540.8 1779.7,1573.1 1762.9,1605.8 1747.0,1638.8 1732.1,1672.3 1718.0,1706.5 1704.8,1741.5 1692.3,1777.4 1680.7,1814.4 1669.9,1852.7 1660.0,1892.4 1651.0,1933.8 1643.0,1976.9 1636.1,2022.1 1630.3,2069.4 1625.8,2119.2 1622.7,2171.6 1621.1,2226.9 1621.3,2285.3 1623.3,2347.0 1627.4,2412.3 1633.7,2481.4 1642.6,2554.7  Z" style="stroke-width: 2.0;  stroke: rgb(82,82,82); fill: rgb(255,153,0); opacity: 0.667;" />
<path d="M 1642.598,2554.653 A 1064.250,1064.250 0.00 0,1 1638.2,2555.2 L 1638.2,2555.2 1629.6,2482.0 1623.5,2412.9 1619.6,2347.8 1617.8,2286.3 1617.8,2228.2 1619.6,2173.3 1622.8,2121.3 1627.5,2072.0 1633.5,2025.2 1640.7,1980.7 1648.9,1938.2 1658.2,1897.6 1668.5,1858.7 1679.7,1821.3 1691.7,1785.2 1704.7,1750.2 1718.5,1716.3 1733.3,1683.3 1748.9,1651.0 1765.6,1619.2 1783.3,1588.0 1802.1,1557.1 1822.2,1526.5 1843.6,1496.0 1866.5,1465.6 1890.9,1435.1 1917.2,1404.6 1945.3,1373.9 1975.6,1343.0 2008.2,1311.8 2043.3,1280.3 2081.3,1248.4 2122.2,1216.2 2166.4,1183.6 2214.2,1150.7 2265.9,1117.3 2321.7,1083.5 2382.0,1049.3 2447.2,1014.8  A 1064.250,1064.250 0.00 0,0 2445.4,1011.2 L 2445.4,1011.2 2380.3,1045.9 2320.1,1080.3 2264.4,1114.3 2212.9,1147.9 2165.2,1181.1 2121.1,1213.9 2080.3,1246.2 2042.5,1278.2 2007.5,1309.8 1975.0,1341.1 1944.9,1372.2 1916.8,1403.0 1890.7,1433.6 1866.4,1464.1 1843.6,1494.6 1822.3,1525.2 1802.4,1555.9 1783.7,1586.9 1766.1,1618.2 1749.6,1650.0 1734.0,1682.4 1719.4,1715.5 1705.7,1749.4 1692.9,1784.4 1681.0,1820.5 1670.0,1858.0 1659.9,1897.0 1650.8,1937.6 1642.7,1980.1 1635.7,2024.7 1629.9,2071.5 1625.4,2120.8 1622.4,2172.8 1620.9,2227.7 1621.1,2285.8 1623.2,2347.3 1627.3,2412.4 1633.7,2481.4 1642.6,2554.7  Z" style="stroke-width: 2.0;  stroke: rgb(82,82,82); fill: rgb(255,204,0); opacity: 0.667;" />
<path d="M 1642.598,2554.653 A 1064.250,1064.250 0.00 0,1 1638.2,2555.2 L 1638.2,2555.2 1629.2,2482.5 1621.9,2414.8 1616.2,2352.1 1612.0,2293.9 1609.2,2240.1 1607.8,2190.4 1607.7,2144.5 1608.9,2102.3 1611.3,2063.6 1614.9,2028.2 1619.7,1995.9 1625.6,1966.5 1632.7,1940.0 1640.9,1916.1 1650.2,1894.8 1660.8,1875.9 1672.5,1859.4 1685.4,1845.2 1699.7,1833.2 1715.2,1823.4 1732.2,1815.7 1750.6,1810.1 1770.5,1806.6 1792.1,1805.1 1815.3,1805.8 1840.4,1808.7 1867.4,1813.7 1896.5,1821.0 1927.7,1830.5 1961.3,1842.5 1997.3,1856.9 2035.9,1874.0 2077.2,1893.7 2121.6,1916.3 2169.0,1941.9 2219.7,1970.7 2274.0,2002.8 2331.9,2038.4 2393.8,2077.8  A 1064.250,1064.250 0.00 0,0 2396.0,2074.4 L 2396.0,2074.4 2334.0,2035.2 2275.9,1999.8 2221.5,1967.9 2170.7,1939.3 2123.1,1913.9 2078.7,1891.5 2037.3,1871.9 1998.6,1855.0 1962.6,1840.7 1929.0,1828.9 1897.7,1819.4 1868.7,1812.3 1841.6,1807.4 1816.5,1804.6 1793.3,1804.0 1771.7,1805.5 1751.8,1809.1 1733.4,1814.8 1716.5,1822.5 1701.0,1832.4 1686.8,1844.5 1673.9,1858.7 1662.3,1875.3 1651.8,1894.2 1642.6,1915.5 1634.5,1939.4 1627.5,1966.0 1621.7,1995.4 1617.1,2027.7 1613.7,2063.2 1611.4,2101.9 1610.4,2144.1 1610.7,2189.9 1612.3,2239.6 1615.3,2293.4 1619.7,2351.6 1625.7,2414.3 1633.3,2481.9 1642.6,2554.7  Z" style="stroke-width: 2.0;  stroke: rgb(82,82,82); fill: rgb(255,255,0); opacity: 0.667;" />
<path d="M 850.794,656.697 A 1064.250,1064.250 0.00 0,1 853.9,654.3 L 853.9,654.3 899.2,712.2 942.8,765.3 984.7,813.8 1025.0,858.1 1063.9,898.4 1101.4,935.0 1137.6,968.1 1172.7,997.9 1206.7,1024.7 1239.7,1048.6 1271.8,1069.8 1303.1,1088.5 1333.8,1104.8 1363.9,1118.8 1393.5,1130.6 1422.8,1140.4 1451.8,1148.2 1480.7,1154.0 1509.5,1157.9 1538.4,1159.9 1567.5,1160.1 1597.0,1158.4 1626.8,1154.8 1657.1,1149.2 1688.1,1141.6 1719.9,1132.0 1752.5,1120.1 1786.2,1106.0 1821.0,1089.5 1857.0,1070.4 1894.4,1048.7 1933.3,1024.1 1973.8,996.4 2016.0,965.4 2060.2,930.9 2106.3,892.7 2154.6,850.5 2205.1,804.0 2258.1,753.0  A 1064.250,1064.250 0.00 0,0 2255.4,750.3 L 2255.4,750.3 2202.6,801.5 2152.3,848.2 2104.1,890.5 2058.1,928.9 2014.1,963.5 1972.0,994.7 1931.6,1022.5 1892.8,1047.3 1855.4,1069.2 1819.5,1088.4 1784.8,1105.0 1751.2,1119.2 1718.6,1131.2 1686.8,1140.9 1655.9,1148.6 1625.5,1154.3 1595.7,1158.0 1566.3,1159.9 1537.2,1159.8 1508.3,1157.9 1479.4,1154.1 1450.5,1148.4 1421.5,1140.7 1392.2,1131.1 1362.5,1119.3 1332.3,1105.4 1301.6,1089.3 1270.2,1070.7 1238.0,1049.6 1204.9,1025.8 1170.8,999.2 1135.6,969.5 1099.3,936.5 1061.6,900.1 1022.6,859.9 982.1,815.8 940.0,767.4 896.3,714.5 850.8,656.7  Z" style="stroke-width: 2.0;  stroke: rgb(82,82,82); fill: rgb(204,255,0); opacity: 0.667;" />
<path d="M 850.794,656.697 A 1064.250,1064.250 0.00 0,1 853.9,654.3 L 853.9,654.3 899.4,712.2 943.3,765.4 985.9,814.1 1027.2,858.6 1067.1,899.3 1106.0,936.4 1143.7,970.1 1180.4,1000.8 1216.1,1028.5 1251.1,1053.7 1285.3,1076.3 1318.8,1096.6 1351.8,1114.8 1384.3,1131.0 1416.4,1145.3 1448.4,1157.9 1480.2,1168.7 1512.0,1178.0 1543.9,1185.7 1576.0,1191.8 1608.5,1196.5 1641.4,1199.8 1675.0,1201.5 1709.3,1201.7 1744.5,1200.4 1780.7,1197.4 1818.1,1192.8 1856.8,1186.4 1896.9,1178.0 1938.7,1167.7 1982.2,1155.2 2027.7,1140.4 2075.2,1123.1 2125.0,1103.1 2177.2,1080.1 2232.1,1054.1 2289.7,1024.7 2350.3,991.7 2414.0,954.8  A 1064.250,1064.250 0.00 0,0 2411.8,951.1 L 2411.8,951.1 2348.2,988.3 2287.8,1021.5 2230.3,1051.2 2175.5,1077.4 2123.4,1100.5 2073.7,1120.7 2026.2,1138.3 1980.8,1153.3 1937.3,1165.9 1895.6,1176.4 1855.5,1184.9 1816.9,1191.5 1779.5,1196.3 1743.3,1199.4 1708.1,1200.9 1673.8,1200.8 1640.3,1199.2 1607.3,1196.1 1574.8,1191.5 1542.7,1185.5 1510.7,1177.9 1478.9,1168.8 1447.1,1158.0 1415.1,1145.6 1382.9,1131.4 1350.3,1115.4 1317.3,1097.3 1283.7,1077.1 1249.4,1054.6 1214.4,1029.6 1178.5,1002.0 1141.7,971.5 1103.9,937.9 1064.9,900.9 1024.8,860.4 983.4,816.0 940.6,767.5 896.4,714.5 850.8,656.7  Z" style="stroke-width: 2.0;  stroke: rgb(82,82,82); fill: rgb(0,255,0); opacity: 0.667;" />
<path d="M 850.794,656.697 A 1064.250,1064.250 0.00 0,1 853.9,654.3 L 853.9,654.3 899.4,712.2 943.5,765.4 986.2,814.2 1027.7,858.8 1068.0,899.6 1107.1,936.9 1145.2,970.8 1182.3,1001.7 1218.5,1029.8 1253.9,1055.3 1288.6,1078.4 1322.7,1099.2 1356.2,1118.0 1389.3,1134.8 1422.0,1149.9 1454.5,1163.3 1487.0,1175.0 1519.4,1185.3 1552.0,1194.1 1584.8,1201.6 1618.0,1207.6 1651.7,1212.3 1686.0,1215.6 1721.1,1217.6 1757.2,1218.1 1794.3,1217.1 1832.6,1214.6 1872.3,1210.4 1913.5,1204.5 1956.5,1196.8 2001.2,1187.0 2048.0,1175.1 2097.0,1160.8 2148.4,1144.1 2202.3,1124.6 2259.0,1102.2 2318.5,1076.6 2381.2,1047.5 2447.2,1014.8  A 1064.250,1064.250 0.00 0,0 2445.4,1011.2 L 2445.4,1011.2 2379.5,1044.2 2316.9,1073.4 2257.4,1099.3 2200.9,1121.9 2147.0,1141.6 2095.7,1158.6 2046.8,1173.0 2000.0,1185.1 1955.3,1195.0 1912.4,1203.0 1871.2,1209.0 1831.5,1213.3 1793.2,1216.0 1756.1,1217.1 1720.0,1216.7 1684.9,1214.9 1650.6,1211.7 1616.9,1207.2 1583.6,1201.2 1550.8,1193.9 1518.2,1185.2 1485.7,1175.1 1453.3,1163.4 1420.7,1150.2 1387.9,1135.2 1354.7,1118.5 1321.2,1099.9 1287.0,1079.2 1252.3,1056.2 1216.8,1030.9 1180.5,1002.9 1143.2,972.1 1105.0,938.3 1065.8,901.2 1025.3,860.6 983.7,816.1 940.8,767.5 896.5,714.5 850.8,656.7  Z" style="stroke-width: 2.0;  stroke: rgb(82,82,82); fill: rgb(53,128,0); opacity: 0.667;" />
<path d="M 850.794,656.697 A 1064.250,1064.250 0.00 0,1 853.9,654.3 L 853.9,654.3 900.0,712.5 945.6,766.7 990.7,817.1 1035.2,864.1 1078.9,908.1 1121.9,949.3 1164.1,988.1 1205.4,1024.8 1245.7,1059.7 1285.1,1093.0 1323.6,1125.0 1361.1,1155.9 1397.7,1186.0 1433.4,1215.4 1468.2,1244.4 1502.3,1273.1 1535.6,1301.8 1568.3,1330.6 1600.4,1359.5 1632.2,1388.9 1663.6,1418.6 1694.8,1449.0 1726.0,1479.9 1757.3,1511.6 1789.0,1544.1 1821.1,1577.4 1853.9,1611.5 1887.7,1646.5 1922.6,1682.3 1958.9,1719.0 1996.8,1756.5 2036.6,1794.8 2078.6,1833.7 2123.1,1873.4 2170.4,1913.6 2220.7,1954.2 2274.5,1995.2 2332.1,2036.5 2393.8,2077.8  A 1064.250,1064.250 0.00 0,0 2396.0,2074.4 L 2396.0,2074.4 2334.1,2033.3 2276.4,1992.3 2222.4,1951.5 2171.9,1911.0 2124.5,1871.0 2079.9,1831.5 2037.7,1792.7 1997.8,1754.6 1959.7,1717.2 1923.3,1680.7 1888.3,1645.0 1854.4,1610.1 1821.4,1576.2 1789.1,1543.0 1757.4,1510.7 1725.9,1479.1 1694.6,1448.2 1663.3,1418.0 1631.7,1388.4 1599.9,1359.2 1567.7,1330.3 1534.9,1301.7 1501.4,1273.1 1467.3,1244.5 1432.3,1215.6 1396.5,1186.3 1359.8,1156.4 1322.2,1125.6 1283.6,1093.8 1244.1,1060.6 1203.6,1025.9 1162.2,989.4 1119.9,950.7 1076.7,909.7 1032.8,865.9 988.1,819.0 942.8,768.8 897.0,714.8 850.8,656.7  Z" style="stroke-width: 2.0;  stroke: rgb(82,82,82); fill: rgb(0,0,204); opacity: 0.667;" />
<path d="M 850.794,656.697 A 1064.250,1064.250 0.00 0,1 853.9,654.3 L 853.9,654.3 898.0,713.9 938.1,771.9 974.6,828.3 1007.9,883.0 1038.3,936.2 1066.1,988.0 1091.7,1038.2 1115.3,1087.0 1137.2,1134.6 1157.6,1180.8 1176.8,1225.8 1195.1,1269.8 1212.6,1312.7 1229.4,1354.8 1245.8,1396.0 1262.0,1436.6 1278.0,1476.6 1293.9,1516.2 1309.9,1555.5 1326.1,1594.7 1342.4,1633.8 1359.0,1673.1 1375.9,1712.8 1393.1,1752.9 1410.5,1793.8 1428.2,1835.5 1446.1,1878.2 1464.1,1922.3 1482.3,1967.8 1500.4,2015.0 1518.4,2064.1 1536.1,2115.4 1553.4,2169.0 1570.1,2225.3 1586.1,2284.5 1601.1,2346.8 1615.0,2412.5 1627.4,2481.9 1638.2,2555.2  A 1064.250,1064.250 0.00 0,0 1642.6,2554.7 L 1642.6,2554.7 1631.5,2481.3 1618.8,2412.0 1604.6,2346.3 1589.3,2284.1 1573.1,2225.0 1556.2,2168.8 1538.6,2115.2 1520.7,2064.0 1502.5,2015.0 1484.2,1967.8 1465.9,1922.4 1447.7,1878.4 1429.6,1835.7 1411.7,1794.1 1394.1,1753.3 1376.8,1713.2 1359.8,1673.7 1343.0,1634.4 1326.5,1595.3 1310.2,1556.2 1294.0,1517.0 1277.9,1477.5 1261.8,1437.5 1245.5,1397.0 1228.9,1355.8 1211.9,1313.8 1194.3,1271.0 1175.8,1227.1 1156.4,1182.1 1135.8,1135.9 1113.7,1088.5 1090.0,1039.7 1064.2,989.6 1036.2,938.0 1005.6,884.9 972.1,830.2 935.4,774.0 895.1,716.2 850.8,656.7  Z" style="stroke-width: 2.0;  stroke: rgb(82,82,82); fill: rgb(102,153,255); opacity: 0.667;" />
<path d="M 858.327,650.951 A 1064.250,1064.250 0.00 0,1 861.6,648.5 L 861.6,648.5 906.4,706.8 949.4,760.3 990.8,809.2 1030.7,853.8 1069.2,894.5 1106.3,931.4 1142.2,964.8 1176.9,994.9 1210.6,1022.0 1243.3,1046.1 1275.1,1067.6 1306.2,1086.5 1336.7,1103.0 1366.5,1117.2 1395.9,1129.2 1425.0,1139.2 1453.8,1147.1 1482.5,1153.0 1511.2,1157.1 1540.0,1159.2 1568.9,1159.5 1598.2,1157.9 1627.9,1154.3 1658.1,1148.8 1689.0,1141.3 1720.6,1131.7 1753.2,1120.0 1786.7,1105.9 1821.4,1089.4 1857.4,1070.4 1894.7,1048.6 1933.5,1024.0 1973.9,996.3 2016.1,965.4 2060.2,930.9 2106.3,892.7 2154.6,850.5 2205.1,804.0 2258.1,753.0  A 1064.250,1064.250 0.00 0,0 2255.4,750.3 L 2255.4,750.3 2202.6,801.5 2152.3,848.2 2104.2,890.5 2058.2,928.9 2014.2,963.5 1972.1,994.7 1931.8,1022.5 1893.1,1047.2 1855.8,1069.1 1819.9,1088.3 1785.3,1104.9 1751.8,1119.1 1719.3,1131.0 1687.7,1140.7 1656.8,1148.3 1626.6,1153.9 1596.9,1157.6 1567.7,1159.3 1538.7,1159.1 1509.9,1157.1 1481.2,1153.1 1452.5,1147.3 1423.7,1139.5 1394.5,1129.6 1365.1,1117.7 1335.1,1103.6 1304.7,1087.3 1273.5,1068.5 1241.6,1047.1 1208.8,1023.1 1175.0,996.2 1140.1,966.2 1104.1,932.9 1066.9,896.1 1028.2,855.7 988.2,811.2 946.6,762.4 903.3,709.1 858.3,651.0  Z" style="stroke-width: 2.0;  stroke: rgb(82,82,82); fill: rgb(153,204,255); opacity: 0.667;" />
<path d="M 858.327,650.951 A 1064.250,1064.250 0.00 0,1 861.6,648.5 L 861.6,648.5 906.5,706.8 950.0,760.4 992.1,809.5 1032.9,854.4 1072.5,895.4 1110.9,932.8 1148.3,966.8 1184.6,997.8 1220.1,1025.8 1254.7,1051.2 1288.6,1074.1 1321.9,1094.6 1354.6,1113.1 1386.9,1129.4 1418.9,1143.9 1450.6,1156.7 1482.2,1167.7 1513.8,1177.1 1545.6,1184.9 1577.5,1191.2 1609.9,1196.0 1642.7,1199.3 1676.1,1201.1 1710.3,1201.4 1745.4,1200.2 1781.5,1197.3 1818.7,1192.7 1857.3,1186.3 1897.4,1178.0 1939.0,1167.7 1982.5,1155.2 2027.9,1140.4 2075.4,1123.1 2125.1,1103.1 2177.3,1080.1 2232.1,1054.1 2289.7,1024.7 2350.3,991.7 2414.0,954.8  A 1064.250,1064.250 0.00 0,0 2411.8,951.1 L 2411.8,951.1 2348.2,988.3 2287.8,1021.5 2230.3,1051.2 2175.6,1077.4 2123.5,1100.5 2073.9,1120.7 2026.4,1138.3 1981.1,1153.2 1937.7,1165.9 1896.1,1176.4 1856.1,1184.8 1817.5,1191.4 1780.3,1196.1 1744.2,1199.2 1709.1,1200.6 1674.9,1200.4 1641.5,1198.7 1608.7,1195.6 1576.3,1190.9 1544.3,1184.7 1512.6,1177.0 1480.9,1167.7 1449.3,1156.8 1417.5,1144.3 1385.5,1129.9 1353.1,1113.6 1320.3,1095.3 1287.0,1074.9 1253.0,1052.1 1218.2,1026.9 1182.7,999.0 1146.2,968.2 1108.7,934.3 1070.1,897.0 1030.4,856.2 989.4,811.4 947.1,762.5 903.5,709.1 858.3,651.0  Z" style="stroke-width: 2.0;  stroke: rgb(82,82,82); fill: rgb(0,255,255); opacity: 0.667;" />
<path d="M 858.327,650.951 A 1064.250,1064.250 0.00 0,1 861.6,648.5 L 861.6,648.5 906.6,706.8 950.1,760.4 992.4,809.6 1033.5,854.5 1073.3,895.7 1112.1,933.3 1149.8,967.5 1186.6,998.7 1222.5,1027.1 1257.6,1052.8 1292.0,1076.2 1325.8,1097.2 1359.0,1116.2 1391.9,1133.3 1424.4,1148.5 1456.8,1162.1 1489.0,1174.0 1521.2,1184.4 1553.6,1193.4 1586.3,1201.0 1619.3,1207.1 1652.9,1211.9 1687.1,1215.3 1722.1,1217.3 1758.0,1217.9 1795.0,1217.0 1833.3,1214.5 1872.9,1210.4 1914.0,1204.5 1956.8,1196.8 2001.5,1187.0 2048.3,1175.1 2097.2,1160.9 2148.5,1144.1 2202.4,1124.6 2259.0,1102.2 2318.6,1076.6 2381.2,1047.5 2447.2,1014.8  A 1064.250,1064.250 0.00 0,0 2445.4,1011.2 L 2445.4,1011.2 2379.5,1044.2 2316.9,1073.5 2257.5,1099.3 2201.0,1121.9 2147.2,1141.6 2095.9,1158.6 2047.0,1173.0 2000.3,1185.1 1955.7,1195.0 1912.9,1202.9 1871.7,1209.0 1832.2,1213.2 1793.9,1215.8 1756.9,1216.9 1721.0,1216.5 1686.0,1214.6 1651.8,1211.3 1618.2,1206.7 1585.1,1200.6 1552.5,1193.2 1520.0,1184.4 1487.7,1174.1 1455.4,1162.3 1423.1,1148.8 1390.5,1133.7 1357.5,1116.8 1324.2,1097.9 1290.3,1077.0 1255.8,1053.8 1220.6,1028.2 1184.6,999.9 1147.7,968.9 1109.9,934.8 1071.0,897.3 1031.0,856.4 989.7,811.5 947.3,762.6 903.5,709.1 858.3,651.0  Z" style="stroke-width: 2.0;  stroke: rgb(82,82,82); fill: rgb(204,255,255); opacity: 0.667;" />
<path d="M 858.327,650.951 A 1064.250,1064.250 0.00 0,1 861.6,648.5 L 861.6,648.5 907.1,707.2 952.2,761.7 996.8,812.5 1040.9,859.9 1084.2,904.2 1126.8,945.8 1168.6,984.9 1209.6,1022.0 1249.6,1057.1 1288.7,1090.7 1326.9,1122.9 1364.1,1154.1 1400.4,1184.4 1435.9,1214.1 1470.5,1243.3 1504.4,1272.2 1537.5,1301.0 1570.0,1329.9 1602.0,1359.0 1633.5,1388.5 1664.8,1418.4 1695.9,1448.8 1726.9,1479.8 1758.2,1511.6 1789.7,1544.1 1821.7,1577.4 1854.5,1611.6 1888.2,1646.6 1923.0,1682.4 1959.2,1719.1 1997.0,1756.6 2036.8,1794.8 2078.8,1833.8 2123.2,1873.4 2170.4,1913.6 2220.7,1954.2 2274.5,1995.2 2332.1,2036.5 2393.8,2077.8  A 1064.250,1064.250 0.00 0,0 2396.0,2074.4 L 2396.0,2074.4 2334.1,2033.3 2276.4,1992.3 2222.5,1951.5 2172.0,1911.0 2124.6,1871.1 2080.0,1831.6 2037.9,1792.8 1998.0,1754.7 1960.0,1717.3 1923.7,1680.8 1888.7,1645.1 1854.9,1610.2 1822.0,1576.2 1789.9,1543.0 1758.2,1510.6 1726.9,1479.0 1695.7,1448.0 1664.5,1417.7 1633.1,1388.0 1601.4,1358.7 1569.3,1329.7 1536.7,1300.9 1503.5,1272.2 1469.5,1243.4 1434.8,1214.3 1399.2,1184.8 1362.8,1154.6 1325.4,1123.6 1287.1,1091.5 1247.9,1058.1 1207.7,1023.1 1166.6,986.2 1124.7,947.2 1081.9,905.8 1038.4,861.7 994.2,814.5 949.4,763.8 904.0,709.5 858.3,651.0  Z" style="stroke-width: 2.0;  stroke: rgb(82,82,82); fill: rgb(153,0,204); opacity: 0.667;" />
<path d="M 858.327,650.951 A 1064.250,1064.250 0.00 0,1 861.6,648.5 L 861.6,648.5 905.2,708.5 944.7,766.9 980.7,823.6 1013.5,878.7 1043.5,932.2 1070.9,984.2 1096.0,1034.7 1119.2,1083.8 1140.7,1131.5 1160.8,1178.0 1179.7,1223.2 1197.6,1267.4 1214.8,1310.5 1231.4,1352.7 1247.6,1394.1 1263.5,1434.8 1279.3,1475.0 1295.0,1514.7 1310.9,1554.1 1326.9,1593.4 1343.1,1632.7 1359.5,1672.1 1376.3,1711.8 1393.4,1752.1 1410.7,1793.0 1428.4,1834.8 1446.2,1877.7 1464.2,1921.8 1482.3,1967.4 1500.4,2014.6 1518.3,2063.8 1536.0,2115.2 1553.3,2168.9 1570.1,2225.2 1586.1,2284.4 1601.1,2346.7 1614.9,2412.5 1627.4,2481.9 1638.2,2555.2  A 1064.250,1064.250 0.00 0,0 1642.6,2554.7 L 1642.6,2554.7 1631.5,2481.3 1618.8,2412.0 1604.6,2346.3 1589.3,2284.0 1573.1,2224.9 1556.1,2168.6 1538.6,2115.0 1520.7,2063.7 1502.5,2014.6 1484.3,1967.4 1466.0,1921.9 1447.8,1877.9 1429.8,1835.1 1412.0,1793.4 1394.4,1752.5 1377.2,1712.3 1360.3,1672.6 1343.6,1633.3 1327.3,1594.1 1311.1,1554.9 1295.1,1515.5 1279.2,1475.9 1263.3,1435.8 1247.2,1395.1 1230.9,1353.8 1214.1,1311.6 1196.8,1268.6 1178.7,1224.5 1159.6,1179.3 1139.3,1132.9 1117.6,1085.3 1094.2,1036.3 1068.9,985.9 1041.3,934.0 1011.1,880.6 978.1,825.6 941.9,769.0 902.1,710.8 858.3,651.0  Z" style="stroke-width: 2.0;  stroke: rgb(82,82,82); fill: rgb(204,51,255); opacity: 0.667;" />
<path d="M 858.327,650.951 A 1064.250,1064.250 0.00 0,1 861.6,648.5 L 861.6,648.5 905.5,707.0 946.1,761.2 983.5,811.1 1017.8,857.0 1049.3,899.1 1078.1,937.5 1104.2,972.5 1127.9,1004.2 1149.2,1032.7 1168.2,1058.3 1185.0,1080.9 1199.8,1100.7 1212.5,1117.9 1223.3,1132.5 1232.1,1144.5 1239.1,1154.1 1244.3,1161.3 1247.7,1166.1 1249.3,1168.6 1249.1,1168.7 1247.2,1166.5 1243.5,1161.9 1238.0,1155.0 1230.7,1145.6 1221.5,1133.8 1210.4,1119.5 1197.3,1102.6 1182.2,1083.0 1165.0,1060.7 1145.6,1035.4 1123.9,1007.2 1099.9,975.8 1073.3,941.1 1044.1,903.0 1012.2,861.3 977.3,815.7 939.5,766.2 898.4,712.4 853.9,654.3  A 1064.250,1064.250 0.00 0,0 850.8,656.7 L 850.8,656.7 895.5,714.7 936.7,768.3 974.8,817.7 1009.8,863.1 1041.9,904.7 1071.2,942.7 1097.9,977.3 1122.1,1008.6 1143.9,1036.7 1163.4,1061.9 1180.7,1084.2 1195.8,1103.7 1209.0,1120.6 1220.1,1134.9 1229.3,1146.6 1236.7,1156.0 1242.2,1162.9 1245.9,1167.4 1247.9,1169.6 1248.0,1169.5 1246.4,1167.1 1243.0,1162.3 1237.8,1155.1 1230.8,1145.6 1221.9,1133.5 1211.0,1119.0 1198.2,1101.9 1183.4,1082.1 1166.5,1059.5 1147.4,1034.1 1126.0,1005.6 1102.2,974.0 1075.9,939.1 1047.0,900.8 1015.3,858.8 980.8,813.1 943.2,763.3 902.5,709.4 858.3,651.0  Z" style="stroke-width: 2.0;  stroke: rgb(82,82,82); fill: rgb(204,153,255); opacity: 0.667;" />
<path d="M 1256.897,463.888 A 1064.250,1064.250 0.00 0,1 1261.0,462.9 L 1261.0,462.9 1278.0,534.3 1295.1,600.3 1312.1,661.2 1329.0,717.4 1346.0,769.1 1362.9,816.5 1379.8,859.9 1396.7,899.6 1413.7,935.6 1430.8,968.3 1448.0,997.8 1465.4,1024.2 1482.9,1047.7 1500.7,1068.4 1518.8,1086.5 1537.2,1102.0 1556.1,1115.0 1575.5,1125.7 1595.4,1133.9 1615.9,1139.9 1637.1,1143.6 1659.2,1145.0 1682.1,1144.1 1706.0,1140.9 1730.9,1135.4 1757.1,1127.4 1784.5,1117.0 1813.3,1104.0 1843.6,1088.4 1875.5,1070.0 1909.2,1048.7 1944.8,1024.3 1982.4,996.8 2022.1,965.8 2064.1,931.3 2108.6,893.0 2155.6,850.6 2205.4,804.1 2258.1,753.0  A 1064.250,1064.250 0.00 0,0 2255.4,750.3 L 2255.4,750.3 2202.9,801.6 2153.3,848.3 2106.4,890.8 2062.1,929.3 2020.2,963.9 1980.6,995.0 1943.1,1022.7 1907.6,1047.2 1874.0,1068.6 1842.1,1087.2 1811.9,1102.9 1783.1,1116.0 1755.7,1126.5 1729.6,1134.6 1704.7,1140.2 1680.8,1143.5 1657.9,1144.4 1635.8,1143.1 1614.5,1139.5 1594.0,1133.6 1574.0,1125.4 1554.6,1114.8 1535.7,1101.9 1517.2,1086.4 1499.0,1068.4 1481.2,1047.8 1463.5,1024.3 1446.1,998.0 1428.8,968.6 1411.5,936.0 1394.4,900.0 1377.3,860.4 1360.2,817.1 1343.1,769.7 1326.0,718.1 1308.8,662.0 1291.5,601.1 1274.2,535.2 1256.9,463.9  Z" style="stroke-width: 2.0;  stroke: rgb(82,82,82); fill: rgb(102,102,102); opacity: 0.667;" />
<path d="M 1256.897,463.888 A 1064.250,1064.250 0.00 0,1 1261.0,462.9 L 1261.0,462.9 1278.2,534.3 1295.6,600.5 1313.2,661.7 1331.1,718.3 1349.1,770.6 1367.2,818.7 1385.6,863.0 1404.1,903.7 1422.9,941.0 1441.8,975.1 1461.0,1006.2 1480.5,1034.4 1500.3,1060.1 1520.5,1083.1 1541.1,1103.8 1562.1,1122.2 1583.8,1138.5 1606.0,1152.6 1629.0,1164.7 1652.7,1174.8 1677.4,1183.0 1703.0,1189.3 1729.6,1193.7 1757.5,1196.2 1786.7,1196.7 1817.3,1195.3 1849.5,1191.9 1883.4,1186.4 1919.1,1178.7 1956.9,1168.8 1996.8,1156.5 2038.9,1141.7 2083.6,1124.3 2130.9,1104.1 2181.1,1080.9 2234.3,1054.6 2290.7,1025.0 2350.5,991.8 2414.0,954.8  A 1064.250,1064.250 0.00 0,0 2411.8,951.1 L 2411.8,951.1 2348.5,988.3 2288.8,1021.8 2232.5,1051.7 2179.4,1078.2 2129.3,1101.5 2082.1,1121.9 2037.5,1139.5 1995.4,1154.5 1955.5,1166.9 1917.9,1177.0 1882.2,1184.8 1848.3,1190.5 1816.1,1194.0 1785.5,1195.5 1756.3,1195.1 1728.4,1192.8 1701.7,1188.5 1676.1,1182.3 1651.4,1174.2 1627.7,1164.2 1604.7,1152.2 1582.4,1138.1 1560.7,1122.0 1539.5,1103.7 1518.8,1083.0 1498.6,1060.0 1478.7,1034.5 1459.1,1006.3 1439.7,975.3 1420.7,941.3 1401.8,904.1 1383.1,863.5 1364.6,819.2 1346.2,771.2 1328.0,719.0 1310.0,662.5 1292.1,601.3 1274.4,535.2 1256.9,463.9  Z" style="stroke-width: 2.0;  stroke: rgb(82,82,82); fill: rgb(153,153,153); opacity: 0.667;" />
<path d="M 1256.897,463.888 A 1064.250,1064.250 0.00 0,1 1261.0,462.9 L 1261.0,462.9 1278.2,534.4 1295.7,600.6 1313.6,661.9 1331.6,718.6 1349.9,771.0 1368.4,819.4 1387.1,864.0 1406.0,905.0 1425.1,942.6 1444.5,977.2 1464.2,1008.8 1484.2,1037.6 1504.5,1063.8 1525.2,1087.6 1546.4,1109.1 1568.1,1128.4 1590.3,1145.6 1613.2,1160.7 1636.8,1174.0 1661.2,1185.3 1686.6,1194.9 1712.9,1202.6 1740.4,1208.6 1769.1,1212.7 1799.2,1215.1 1830.7,1215.6 1863.9,1214.2 1898.8,1210.9 1935.6,1205.6 1974.5,1198.2 2015.7,1188.6 2059.2,1176.7 2105.4,1162.3 2154.3,1145.3 2206.1,1125.5 2261.1,1102.7 2319.5,1076.9 2381.5,1047.6 2447.2,1014.8  A 1064.250,1064.250 0.00 0,0 2445.4,1011.2 L 2445.4,1011.2 2379.7,1044.3 2317.9,1073.7 2259.6,1099.8 2204.7,1122.8 2152.9,1142.8 2104.1,1160.0 2058.0,1174.5 2014.5,1186.6 1973.4,1196.4 1934.5,1204.0 1897.7,1209.4 1862.8,1212.8 1829.6,1214.3 1798.1,1213.9 1768.0,1211.7 1739.3,1207.6 1711.8,1201.8 1685.4,1194.2 1660.0,1184.7 1635.5,1173.5 1611.9,1160.3 1588.9,1145.2 1566.6,1128.1 1544.9,1108.9 1523.6,1087.5 1502.8,1063.8 1482.4,1037.7 1462.3,1008.9 1442.5,977.4 1422.9,942.9 1403.7,905.3 1384.6,864.4 1365.7,819.9 1347.0,771.6 1328.5,719.3 1310.3,662.6 1292.2,601.4 1274.4,535.2 1256.9,463.9  Z" style="stroke-width: 2.0;  stroke: rgb(82,82,82); fill: rgb(204,204,204); opacity: 0.667;" />
<path d="M 1256.897,463.888 A 1064.250,1064.250 0.00 0,1 1261.0,462.9 L 1261.0,462.9 1278.7,534.8 1297.6,602.3 1317.4,665.7 1338.0,725.4 1359.3,781.7 1381.1,834.9 1403.4,885.1 1425.9,932.8 1448.6,978.1 1471.4,1021.3 1494.3,1062.6 1517.2,1102.3 1540.2,1140.5 1563.1,1177.6 1586.0,1213.5 1608.9,1248.6 1631.8,1283.0 1654.8,1316.9 1677.9,1350.4 1701.2,1383.7 1724.8,1416.8 1748.9,1449.9 1773.4,1483.2 1798.6,1516.7 1824.7,1550.4 1851.7,1584.6 1879.8,1619.2 1909.3,1654.2 1940.4,1689.8 1973.2,1726.0 2008.1,1762.8 2045.3,1800.2 2085.0,1838.2 2127.5,1876.8 2173.2,1915.9 2222.3,1955.7 2275.2,1995.9 2332.2,2036.6 2393.8,2077.8  A 1064.250,1064.250 0.00 0,0 2396.0,2074.4 L 2396.0,2074.4 2334.3,2033.5 2277.1,1993.0 2224.0,1952.9 2174.7,1913.4 2128.9,1874.4 2086.2,1835.9 2046.4,1798.1 2009.1,1760.8 1974.1,1724.2 1941.1,1688.1 1909.9,1652.7 1880.3,1617.7 1852.0,1583.2 1824.8,1549.2 1798.7,1515.5 1773.4,1482.2 1748.7,1449.0 1724.5,1415.9 1700.8,1382.9 1677.3,1349.7 1654.1,1316.3 1630.9,1282.5 1607.9,1248.2 1584.9,1213.2 1561.8,1177.3 1538.8,1140.4 1515.7,1102.2 1492.6,1062.7 1469.5,1021.4 1446.5,978.3 1423.6,933.1 1400.9,885.5 1378.5,835.3 1356.5,782.3 1335.0,726.1 1314.1,666.5 1294.0,603.1 1274.9,535.7 1256.9,463.9  Z" style="stroke-width: 2.0;  stroke: rgb(82,82,82); fill: rgb(204,204,153); opacity: 0.667;" />
<path d="M 1256.897,463.888 A 1064.250,1064.250 0.00 0,1 1261.0,462.9 L 1261.0,462.9 1276.5,535.7 1289.2,605.8 1299.4,673.3 1307.5,738.4 1313.9,801.1 1318.8,861.6 1322.6,919.9 1325.5,976.3 1327.8,1030.8 1329.8,1083.5 1331.7,1134.6 1333.7,1184.3 1336.0,1232.6 1338.7,1279.7 1342.0,1325.7 1346.0,1370.9 1350.8,1415.2 1356.6,1459.0 1363.3,1502.4 1371.1,1545.5 1379.9,1588.5 1389.8,1631.5 1400.8,1674.8 1412.8,1718.5 1425.8,1762.8 1439.7,1807.9 1454.5,1853.9 1469.9,1901.1 1486.0,1949.7 1502.6,1999.8 1519.4,2051.7 1536.3,2105.5 1553.2,2161.5 1569.7,2219.9 1585.6,2280.9 1600.7,2344.7 1614.7,2411.5 1627.3,2481.6 1638.2,2555.2  A 1064.250,1064.250 0.00 0,0 1642.6,2554.7 L 1642.6,2554.7 1631.4,2481.1 1618.5,2411.0 1604.3,2344.3 1588.9,2280.5 1572.7,2219.6 1555.9,2161.3 1538.8,2105.4 1521.7,2051.6 1504.6,1999.8 1487.9,1949.7 1471.6,1901.2 1455.9,1854.1 1441.0,1808.1 1426.9,1763.1 1413.7,1718.9 1401.5,1675.2 1390.4,1632.0 1380.3,1589.0 1371.3,1546.0 1363.3,1503.0 1356.4,1459.6 1350.5,1415.8 1345.5,1371.5 1341.3,1326.3 1337.8,1280.3 1334.9,1233.2 1332.5,1184.9 1330.3,1135.3 1328.2,1084.2 1326.0,1031.4 1323.4,977.0 1320.3,920.6 1316.3,862.3 1311.1,801.8 1304.5,739.1 1296.2,674.1 1285.7,606.6 1272.7,536.6 1256.9,463.9  Z" style="stroke-width: 2.0;  stroke: rgb(82,82,82); fill: rgb(251,106,74); opacity: 0.667;" />
<path d="M 1256.897,463.888 A 1064.250,1064.250 0.00 0,1 1261.0,462.9 L 1261.0,462.9 1277.1,534.4 1291.6,600.5 1304.4,661.7 1315.7,718.2 1325.4,770.2 1333.7,817.9 1340.7,861.6 1346.3,901.4 1350.7,937.6 1353.8,970.3 1355.8,999.6 1356.6,1025.7 1356.2,1048.8 1354.7,1068.9 1352.1,1086.1 1348.3,1100.6 1343.4,1112.3 1337.4,1121.4 1330.2,1128.0 1321.8,1131.9 1312.2,1133.3 1301.4,1132.1 1289.2,1128.4 1275.7,1122.0 1260.7,1113.0 1244.3,1101.4 1226.3,1087.0 1206.7,1069.7 1185.3,1049.5 1162.2,1026.2 1137.1,999.8 1110.1,970.0 1080.9,936.8 1049.4,899.9 1015.6,859.3 979.3,814.6 940.3,765.7 898.6,712.3 853.9,654.3  A 1064.250,1064.250 0.00 0,0 850.8,656.7 L 850.8,656.7 895.7,714.6 937.6,767.8 976.7,816.5 1013.2,861.1 1047.2,901.6 1078.8,938.4 1108.1,971.5 1135.3,1001.1 1160.4,1027.5 1183.6,1050.7 1205.1,1070.8 1224.7,1088.0 1242.8,1102.3 1259.3,1113.9 1274.2,1122.9 1287.8,1129.2 1300.0,1132.9 1310.8,1134.0 1320.4,1132.6 1328.8,1128.6 1336.0,1122.1 1341.9,1112.9 1346.8,1101.1 1350.5,1086.7 1353.0,1069.4 1354.4,1049.3 1354.7,1026.3 1353.8,1000.1 1351.8,970.8 1348.5,938.2 1344.0,902.0 1338.2,862.2 1331.1,818.6 1322.6,770.9 1312.6,718.9 1301.1,662.5 1288.1,601.4 1273.4,535.2 1256.9,463.9  Z" style="stroke-width: 2.0;  stroke: rgb(82,82,82); fill: rgb(116,196,118); opacity: 0.667;" />
<path d="M 1256.897,463.888 A 1064.250,1064.250 0.00 0,1 1261.0,462.9 L 1261.0,462.9 1277.2,534.4 1291.6,600.5 1304.5,661.7 1315.7,718.2 1325.5,770.1 1333.9,817.8 1340.9,861.5 1346.6,901.3 1351.1,937.4 1354.3,970.0 1356.3,999.3 1357.2,1025.4 1356.9,1048.3 1355.5,1068.4 1353.0,1085.5 1349.4,1099.9 1344.6,1111.6 1338.7,1120.6 1331.7,1127.0 1323.5,1130.8 1314.0,1132.1 1303.4,1130.7 1291.4,1126.8 1278.0,1120.4 1263.3,1111.2 1247.1,1099.4 1229.4,1084.7 1210.0,1067.3 1189.0,1046.8 1166.1,1023.3 1141.4,996.6 1114.6,966.6 1085.8,933.1 1054.7,895.9 1021.3,854.9 985.5,809.9 947.0,760.6 905.8,706.9 861.6,648.5  A 1064.250,1064.250 0.00 0,0 858.3,651.0 L 858.3,651.0 902.7,709.2 944.1,762.8 982.8,811.9 1018.8,856.8 1052.4,897.7 1083.6,934.7 1112.6,968.1 1139.4,998.0 1164.3,1024.6 1187.2,1048.0 1208.3,1068.4 1227.8,1085.8 1245.6,1100.3 1261.8,1112.1 1276.6,1121.2 1289.9,1127.7 1301.9,1131.5 1312.6,1132.8 1322.0,1131.5 1330.2,1127.6 1337.3,1121.2 1343.1,1112.2 1347.8,1100.5 1351.4,1086.1 1353.8,1068.9 1355.2,1048.9 1355.3,1025.9 1354.4,999.8 1352.2,970.6 1348.9,938.0 1344.3,901.9 1338.4,862.1 1331.2,818.5 1322.7,770.8 1312.7,718.9 1301.2,662.5 1288.1,601.3 1273.4,535.2 1256.9,463.9  Z" style="stroke-width: 2.0;  stroke: rgb(82,82,82); fill: rgb(107,174,214); opacity: 0.667;" />
<path d="M 1359.879,445.015 A 1064.250,1064.250 0.00 0,1 1364.0,444.5 L 1364.0,444.5 1373.9,517.1 1384.2,584.4 1394.9,646.6 1405.9,704.0 1417.2,756.9 1428.9,805.5 1440.8,850.0 1453.1,890.7 1465.8,927.7 1478.8,961.3 1492.1,991.7 1505.9,1018.9 1520.1,1043.2 1534.7,1064.7 1549.8,1083.4 1565.5,1099.6 1581.8,1113.1 1598.7,1124.3 1616.3,1133.0 1634.8,1139.4 1654.0,1143.4 1674.2,1145.0 1695.4,1144.4 1717.7,1141.4 1741.2,1135.9 1765.9,1128.1 1792.1,1117.7 1819.7,1104.7 1848.9,1089.1 1879.9,1070.6 1912.7,1049.3 1947.5,1024.8 1984.4,997.2 2023.5,966.1 2065.0,931.5 2109.1,893.1 2155.8,850.7 2205.4,804.1 2258.1,753.0  A 1064.250,1064.250 0.00 0,0 2255.4,750.3 L 2255.4,750.3 2203.0,801.6 2153.5,848.4 2106.9,890.9 2063.0,929.5 2021.6,964.3 1982.6,995.4 1945.8,1023.2 1911.1,1047.8 1878.3,1069.3 1847.4,1087.8 1818.3,1103.6 1790.7,1116.7 1764.6,1127.1 1739.8,1135.1 1716.4,1140.6 1694.1,1143.7 1672.9,1144.4 1652.7,1142.8 1633.4,1138.9 1615.0,1132.6 1597.3,1123.9 1580.3,1112.9 1564.0,1099.3 1548.3,1083.3 1533.0,1064.6 1518.3,1043.2 1504.0,1018.9 1490.2,991.7 1476.7,961.4 1463.6,927.9 1450.8,890.9 1438.3,850.2 1426.2,805.7 1414.3,757.2 1402.8,704.4 1391.6,647.0 1380.6,584.9 1370.1,517.6 1359.9,445.0  Z" style="stroke-width: 2.0;  stroke: rgb(82,82,82); fill: rgb(253,141,60); opacity: 0.667;" />
<path d="M 1359.879,445.015 A 1064.250,1064.250 0.00 0,1 1364.0,444.5 L 1364.0,444.5 1374.0,517.2 1384.7,584.7 1396.0,647.2 1407.9,705.0 1420.3,758.5 1433.2,807.8 1446.5,853.3 1460.4,895.1 1474.8,933.4 1489.6,968.5 1505.0,1000.6 1520.8,1029.7 1537.2,1056.1 1554.3,1080.0 1571.9,1101.4 1590.2,1120.4 1609.2,1137.2 1629.0,1151.9 1649.7,1164.4 1671.4,1174.9 1694.0,1183.4 1717.8,1190.0 1742.7,1194.6 1769.0,1197.2 1796.7,1197.8 1826.0,1196.5 1856.9,1193.0 1889.6,1187.5 1924.3,1179.8 1961.1,1169.7 2000.1,1157.3 2041.5,1142.4 2085.5,1124.9 2132.3,1104.5 2182.0,1081.2 2234.8,1054.8 2290.9,1025.1 2350.6,991.8 2414.0,954.8  A 1064.250,1064.250 0.00 0,0 2411.8,951.1 L 2411.8,951.1 2348.5,988.3 2289.0,1021.9 2233.0,1051.8 2180.3,1078.5 2130.7,1102.0 2084.0,1122.5 2040.1,1140.2 1998.7,1155.3 1959.7,1167.9 1923.0,1178.1 1888.4,1185.9 1855.7,1191.6 1824.8,1195.1 1795.5,1196.6 1767.8,1196.1 1741.5,1193.6 1716.5,1189.1 1692.7,1182.6 1670.1,1174.2 1648.4,1163.8 1627.7,1151.3 1607.8,1136.8 1588.7,1120.1 1570.3,1101.1 1552.6,1079.8 1535.5,1056.0 1519.0,1029.6 1503.0,1000.5 1487.5,968.5 1472.6,933.5 1458.1,895.2 1444.0,853.5 1430.5,808.1 1417.4,758.8 1404.8,705.4 1392.7,647.6 1381.2,585.1 1370.2,517.7 1359.9,445.0  Z" style="stroke-width: 2.0;  stroke: rgb(82,82,82); fill: rgb(255,0,0); opacity: 0.667;" />
<path d="M 1359.879,445.015 A 1064.250,1064.250 0.00 0,1 1364.0,444.5 L 1364.0,444.5 1374.1,517.2 1384.9,584.7 1396.3,647.4 1408.4,705.4 1421.0,759.0 1434.2,808.6 1448.0,854.3 1462.2,896.4 1477.0,935.2 1492.3,970.7 1508.1,1003.3 1524.5,1033.0 1541.4,1060.1 1558.9,1084.6 1577.1,1106.8 1596.0,1126.7 1615.7,1144.5 1636.1,1160.2 1657.5,1173.9 1679.8,1185.6 1703.1,1195.5 1727.6,1203.4 1753.4,1209.6 1780.5,1213.9 1809.1,1216.3 1839.3,1216.9 1871.2,1215.5 1905.0,1212.2 1940.7,1206.8 1978.7,1199.3 2019.0,1189.6 2061.8,1177.5 2107.3,1162.9 2155.6,1145.7 2207.0,1125.8 2261.6,1102.9 2319.7,1077.0 2381.5,1047.6 2447.2,1014.8  A 1064.250,1064.250 0.00 0,0 2445.4,1011.2 L 2445.4,1011.2 2379.8,1044.3 2318.1,1073.8 2260.1,1100.0 2205.6,1123.1 2154.2,1143.2 2106.0,1160.6 2060.6,1175.3 2017.8,1187.6 1977.6,1197.5 1939.6,1205.1 1903.8,1210.7 1870.1,1214.1 1838.2,1215.6 1808.0,1215.2 1779.4,1212.8 1752.3,1208.6 1726.5,1202.6 1702.0,1194.7 1678.6,1184.9 1656.2,1173.3 1634.8,1159.7 1614.3,1144.1 1594.6,1126.4 1575.6,1106.5 1557.3,1084.4 1539.7,1059.9 1522.7,1032.9 1506.2,1003.2 1490.2,970.7 1474.8,935.3 1459.9,896.6 1445.5,854.5 1431.6,808.8 1418.2,759.3 1405.3,705.7 1393.0,647.8 1381.3,585.2 1370.3,517.7 1359.9,445.0  Z" style="stroke-width: 2.0;  stroke: rgb(82,82,82); fill: rgb(255,0,204); opacity: 0.667;" />
<path d="M 1359.879,445.015 A 1064.250,1064.250 0.00 0,1 1364.0,444.5 L 1364.0,444.5 1374.5,517.7 1386.6,586.5 1400.0,651.4 1414.6,712.5 1430.1,770.2 1446.5,824.7 1463.6,876.3 1481.2,925.2 1499.4,971.8 1518.0,1016.2 1536.9,1058.6 1556.1,1099.4 1575.5,1138.6 1595.1,1176.5 1614.9,1213.3 1634.9,1249.1 1655.2,1284.2 1675.7,1318.6 1696.5,1352.6 1717.7,1386.2 1739.4,1419.7 1761.6,1453.0 1784.5,1486.4 1808.2,1519.9 1832.9,1553.7 1858.6,1587.7 1885.7,1622.1 1914.1,1657.0 1944.3,1692.4 1976.4,1728.2 2010.5,1764.7 2047.1,1801.8 2086.3,1839.4 2128.4,1877.7 2173.7,1916.6 2222.6,1956.1 2275.3,1996.1 2332.3,2036.7 2393.8,2077.8  A 1064.250,1064.250 0.00 0,0 2396.0,2074.4 L 2396.0,2074.4 2334.3,2033.5 2277.2,1993.2 2224.4,1953.3 2175.3,1914.0 2129.8,1875.3 2087.6,1837.2 2048.2,1799.7 2011.5,1762.8 1977.2,1726.4 1945.0,1690.7 1914.7,1655.4 1886.1,1620.7 1859.0,1586.3 1833.1,1552.4 1808.3,1518.7 1784.5,1485.3 1761.4,1452.0 1739.1,1418.8 1717.3,1385.4 1695.9,1351.8 1675.0,1318.0 1654.3,1283.6 1633.9,1248.6 1613.8,1212.9 1593.8,1176.2 1574.1,1138.3 1554.5,1099.2 1535.2,1058.5 1516.1,1016.1 1497.4,971.8 1479.0,925.3 1461.1,876.4 1443.9,824.9 1427.3,770.4 1411.5,712.8 1396.7,651.8 1383.1,587.0 1370.7,518.2 1359.9,445.0  Z" style="stroke-width: 2.0;  stroke: rgb(82,82,82); fill: rgb(255,204,204); opacity: 0.667;" />
<path d="M 1359.879,445.015 A 1064.250,1064.250 0.00 0,1 1364.0,444.5 L 1364.0,444.5 1374.7,518.2 1387.1,588.5 1401.0,655.6 1416.0,719.7 1431.7,781.1 1448.0,840.0 1464.6,896.5 1481.1,950.9 1497.5,1003.3 1513.5,1054.0 1528.9,1103.1 1543.6,1150.8 1557.4,1197.4 1570.3,1243.0 1582.1,1287.9 1592.7,1332.0 1602.2,1375.8 1610.3,1419.3 1617.2,1462.7 1622.9,1506.1 1627.3,1549.9 1630.5,1594.0 1632.6,1638.7 1633.6,1684.1 1633.6,1730.5 1632.9,1777.8 1631.4,1826.4 1629.4,1876.4 1627.0,1927.8 1624.5,1980.9 1622.1,2035.7 1619.9,2092.5 1618.4,2151.4 1617.7,2212.5 1618.1,2275.8 1620.1,2341.7 1623.8,2410.1 1629.7,2481.3 1638.2,2555.2  A 1064.250,1064.250 0.00 0,0 1642.6,2554.7 L 1642.6,2554.7 1633.8,2480.7 1627.6,2409.6 1623.6,2341.2 1621.4,2275.3 1620.7,2212.0 1621.1,2150.9 1622.4,2092.0 1624.3,2035.2 1626.5,1980.4 1628.8,1927.3 1630.9,1875.8 1632.7,1825.9 1634.0,1777.3 1634.6,1729.9 1634.4,1683.6 1633.2,1638.1 1630.9,1593.4 1627.5,1549.3 1623.0,1505.6 1617.1,1462.2 1610.1,1418.8 1601.7,1375.4 1592.1,1331.7 1581.3,1287.5 1569.3,1242.8 1556.3,1197.2 1542.3,1150.7 1527.4,1103.0 1511.8,1053.9 1495.6,1003.3 1479.0,950.9 1462.2,896.6 1445.5,840.2 1428.9,781.4 1413.0,720.1 1397.7,656.0 1383.6,588.9 1370.9,518.7 1359.9,445.0  Z" style="stroke-width: 2.0;  stroke: rgb(82,82,82); fill: rgb(255,153,0); opacity: 0.667;" />
<path d="M 1359.879,445.015 A 1064.250,1064.250 0.00 0,1 1364.0,444.5 L 1364.0,444.5 1373.0,517.2 1380.7,584.5 1387.2,646.8 1392.5,704.2 1396.6,757.1 1399.7,805.7 1401.6,850.2 1402.6,890.7 1402.6,927.6 1401.7,960.9 1399.8,990.8 1396.9,1017.4 1393.2,1041.0 1388.5,1061.6 1382.9,1079.3 1376.4,1094.2 1368.9,1106.4 1360.4,1115.9 1351.0,1122.8 1340.5,1127.1 1328.9,1128.9 1316.2,1128.1 1302.3,1124.7 1287.2,1118.7 1270.7,1110.0 1252.9,1098.7 1233.7,1084.6 1212.9,1067.6 1190.5,1047.7 1166.4,1024.7 1140.5,998.6 1112.6,969.1 1082.8,936.1 1050.8,899.4 1016.5,858.9 979.8,814.4 940.6,765.6 898.7,712.3 853.9,654.3  A 1064.250,1064.250 0.00 0,0 850.8,656.7 L 850.8,656.7 895.7,714.5 937.8,767.7 977.2,816.3 1014.1,860.7 1048.5,901.1 1080.7,937.6 1110.7,970.5 1138.6,999.9 1164.6,1026.0 1188.8,1048.9 1211.3,1068.7 1232.1,1085.6 1251.4,1099.6 1269.3,1110.9 1285.7,1119.5 1300.9,1125.4 1314.8,1128.8 1327.5,1129.5 1339.1,1127.7 1349.5,1123.4 1359.0,1116.4 1367.4,1106.9 1374.8,1094.7 1381.3,1079.7 1386.8,1062.0 1391.4,1041.4 1395.1,1017.8 1397.8,991.2 1399.6,961.2 1400.4,927.9 1400.3,891.1 1399.1,850.6 1397.0,806.1 1393.7,757.5 1389.4,704.7 1383.9,647.2 1377.2,585.0 1369.2,517.7 1359.9,445.0  Z" style="stroke-width: 2.0;  stroke: rgb(82,82,82); fill: rgb(255,204,0); opacity: 0.667;" />
<path d="M 1359.879,445.015 A 1064.250,1064.250 0.00 0,1 1364.0,444.5 L 1364.0,444.5 1373.0,517.2 1380.8,584.5 1387.2,646.8 1392.6,704.2 1396.7,757.1 1399.8,805.6 1401.9,850.1 1402.9,890.6 1403.0,927.4 1402.1,960.6 1400.3,990.5 1397.6,1017.1 1393.9,1040.6 1389.3,1061.1 1383.9,1078.7 1377.5,1093.6 1370.1,1105.6 1361.8,1115.1 1352.5,1121.9 1342.1,1126.1 1330.7,1127.7 1318.2,1126.7 1304.5,1123.2 1289.6,1117.0 1273.3,1108.2 1255.8,1096.7 1236.8,1082.4 1216.3,1065.2 1194.1,1045.1 1170.3,1021.9 1144.7,995.4 1117.2,965.7 1087.7,932.4 1056.1,895.4 1022.2,854.6 986.0,809.7 947.2,760.5 905.8,706.9 861.6,648.5  A 1064.250,1064.250 0.00 0,0 858.3,651.0 L 858.3,651.0 902.7,709.2 944.3,762.7 983.3,811.7 1019.7,856.4 1053.7,897.1 1085.5,934.0 1115.2,967.1 1142.8,996.8 1168.5,1023.1 1192.4,1046.3 1214.6,1066.3 1235.2,1083.4 1254.2,1097.6 1271.8,1109.1 1288.1,1117.9 1303.0,1124.0 1316.7,1127.4 1329.3,1128.3 1340.7,1126.7 1351.0,1122.4 1360.3,1115.6 1368.6,1106.2 1375.9,1094.0 1382.2,1079.2 1387.6,1061.6 1392.1,1041.0 1395.7,1017.5 1398.3,990.9 1400.0,961.0 1400.8,927.8 1400.6,891.0 1399.4,850.4 1397.1,806.0 1393.8,757.5 1389.5,704.6 1383.9,647.2 1377.2,585.0 1369.2,517.7 1359.9,445.0  Z" style="stroke-width: 2.0;  stroke: rgb(82,82,82); fill: rgb(255,255,0); opacity: 0.667;" />
<path d="M 1359.879,445.015 A 1064.250,1064.250 0.00 0,1 1364.0,444.5 L 1364.0,444.5 1373.3,517.1 1381.7,584.2 1389.4,646.1 1396.3,703.0 1402.6,755.2 1408.1,802.9 1413.0,846.4 1417.2,885.7 1420.9,921.2 1424.0,952.9 1426.5,981.1 1428.4,1005.8 1429.9,1027.2 1430.8,1045.4 1431.2,1060.5 1431.1,1072.6 1430.5,1081.7 1429.4,1087.8 1427.8,1091.1 1425.7,1091.5 1423.0,1089.0 1419.9,1083.6 1416.2,1075.3 1411.9,1064.0 1407.0,1049.7 1401.6,1032.3 1395.5,1011.7 1388.7,987.9 1381.3,960.6 1373.2,929.8 1364.3,895.2 1354.6,856.8 1344.1,814.4 1332.7,767.7 1320.4,716.6 1307.1,660.8 1292.8,600.1 1277.5,534.3 1261.0,462.9  A 1064.250,1064.250 0.00 0,0 1256.9,463.9 L 1256.9,463.9 1273.7,535.1 1289.3,601.0 1303.8,661.6 1317.3,717.3 1329.8,768.4 1341.4,815.0 1352.1,857.4 1361.9,895.8 1370.9,930.3 1379.2,961.1 1386.7,988.3 1393.6,1012.2 1399.7,1032.7 1405.3,1050.1 1410.2,1064.4 1414.5,1075.6 1418.2,1083.9 1421.4,1089.3 1424.1,1091.8 1426.2,1091.4 1427.8,1088.1 1428.9,1082.0 1429.5,1072.9 1429.5,1060.8 1429.0,1045.7 1428.0,1027.5 1426.5,1006.1 1424.5,981.4 1421.8,953.2 1418.6,921.5 1414.8,886.1 1410.4,846.7 1405.4,803.3 1399.7,755.6 1393.3,703.4 1386.1,646.5 1378.2,584.7 1369.5,517.6 1359.9,445.0  Z" style="stroke-width: 2.0;  stroke: rgb(82,82,82); fill: rgb(204,255,0); opacity: 0.667;" />
<path d="M 2429.131,981.016 A 1064.250,1064.250 0.00 0,1 2433.0,988.0 L 2433.0,988.0 2368.7,1023.0 2309.1,1055.1 2253.8,1084.2 2202.8,1110.6 2155.7,1134.5 2112.4,1155.9 2072.7,1174.9 2036.3,1191.6 2003.3,1206.2 1973.3,1218.7 1946.3,1229.2 1922.1,1237.8 1900.7,1244.5 1881.9,1249.3 1865.5,1252.3 1851.7,1253.6 1840.2,1253.1 1831.0,1250.8 1824.1,1246.8 1819.5,1240.9 1817.1,1233.3 1817.0,1223.9 1819.0,1212.6 1823.4,1199.3 1830.0,1184.1 1838.9,1166.8 1850.2,1147.4 1864.0,1125.8 1880.3,1101.8 1899.2,1075.5 1920.8,1046.5 1945.3,1014.9 1972.8,980.4 2003.3,943.0 2037.1,902.5 2074.3,858.7 2115.1,811.4 2159.7,760.5 2208.3,705.7  A 1064.250,1064.250 0.00 0,0 2202.3,700.4 L 2202.3,700.4 2154.1,755.5 2109.9,806.8 2069.5,854.4 2032.6,898.5 1999.1,939.3 1968.8,976.9 1941.7,1011.6 1917.4,1043.4 1896.0,1072.5 1877.3,1099.0 1861.2,1123.1 1847.6,1144.8 1836.4,1164.3 1827.6,1181.7 1821.1,1196.9 1816.9,1210.2 1814.9,1221.5 1815.1,1231.0 1817.6,1238.6 1822.2,1244.3 1829.1,1248.3 1838.3,1250.5 1849.8,1251.0 1863.7,1249.6 1880.0,1246.5 1898.8,1241.5 1920.2,1234.6 1944.3,1225.9 1971.2,1215.2 2001.1,1202.5 2034.0,1187.6 2070.2,1170.6 2109.8,1151.3 2152.9,1129.6 2199.8,1105.4 2250.7,1078.6 2305.7,1049.0 2365.1,1016.5 2429.1,981.0  Z" style="stroke-width: 2.0;  stroke: rgb(82,82,82); fill: rgb(0,255,0); opacity: 0.667;" />
<path d="M 2048.569,588.024 A 1064.250,1064.250 0.00 0,1 2051.5,589.8 L 2051.5,589.8 2013.4,652.3 1977.9,709.9 1944.8,762.9 1914.0,811.4 1885.5,855.7 1859.0,896.0 1834.4,932.4 1811.8,965.2 1790.9,994.6 1771.7,1020.5 1754.2,1043.3 1738.1,1063.0 1723.6,1079.7 1710.4,1093.5 1698.5,1104.5 1688.0,1112.7 1678.7,1118.3 1670.5,1121.1 1663.6,1121.3 1657.8,1118.8 1653.1,1113.7 1649.5,1105.9 1646.9,1095.4 1645.5,1082.1 1645.1,1065.9 1645.8,1046.8 1647.7,1024.7 1650.6,999.5 1654.7,971.1 1660.0,939.2 1666.5,903.8 1674.3,864.7 1683.4,821.7 1693.8,774.6 1705.7,723.3 1719.1,667.4 1734.0,606.8 1750.6,541.2 1768.9,470.3  A 1064.250,1064.250 0.00 0,0 1765.0,469.3 L 1765.0,469.3 1746.9,540.2 1730.6,605.9 1715.9,666.6 1702.7,722.5 1691.0,773.9 1680.8,821.0 1671.9,864.0 1664.3,903.2 1657.9,938.6 1652.7,970.5 1648.8,999.0 1645.9,1024.2 1644.2,1046.3 1643.5,1065.4 1643.9,1081.5 1645.4,1094.9 1648.0,1105.4 1651.7,1113.2 1656.4,1118.3 1662.3,1120.7 1669.2,1120.5 1677.3,1117.7 1686.6,1112.1 1697.2,1103.8 1709.0,1092.8 1722.1,1079.0 1736.7,1062.2 1752.7,1042.5 1770.2,1019.6 1789.3,993.6 1810.0,964.2 1832.6,931.3 1857.0,894.8 1883.4,854.4 1911.8,810.0 1942.4,761.4 1975.3,708.4 2010.7,650.7 2048.6,588.0  Z" style="stroke-width: 2.0;  stroke: rgb(82,82,82); fill: rgb(53,128,0); opacity: 0.667;" />
<path d="M 2111.793,629.174 A 1064.250,1064.250 0.00 0,1 2117.6,633.3 L 2117.6,633.3 2074.9,692.8 2035.1,747.5 1998.0,797.8 1963.5,843.8 1931.4,885.7 1901.7,923.8 1874.1,958.1 1848.6,989.0 1825.1,1016.4 1803.4,1040.7 1783.6,1061.9 1765.4,1080.1 1748.9,1095.4 1733.9,1107.9 1720.4,1117.6 1708.3,1124.7 1697.5,1129.2 1688.1,1131.1 1679.9,1130.4 1673.0,1127.1 1667.4,1121.2 1662.9,1112.7 1659.6,1101.6 1657.4,1087.7 1656.5,1071.0 1656.7,1051.5 1658.1,1029.0 1660.7,1003.5 1664.6,974.7 1669.8,942.6 1676.3,907.0 1684.1,867.8 1693.3,824.7 1704.0,777.6 1716.3,726.3 1730.2,670.5 1745.7,610.0 1763.1,544.5 1782.3,473.9  A 1064.250,1064.250 0.00 0,0 1775.4,472.0 L 1775.4,472.0 1756.7,542.8 1739.8,608.4 1724.6,669.0 1711.1,724.8 1699.2,776.3 1688.8,823.4 1679.9,866.6 1672.3,905.9 1666.1,941.5 1661.1,973.6 1657.4,1002.4 1655.0,1028.0 1653.7,1050.5 1653.6,1070.0 1654.7,1086.7 1656.9,1100.5 1660.3,1111.7 1664.8,1120.1 1670.6,1126.0 1677.5,1129.2 1685.6,1129.8 1695.0,1127.9 1705.8,1123.4 1717.8,1116.2 1731.3,1106.3 1746.2,1093.7 1762.6,1078.3 1780.7,1060.0 1800.4,1038.7 1821.8,1014.3 1845.2,986.7 1870.5,955.6 1897.8,921.1 1927.3,882.8 1959.1,840.7 1993.3,794.5 2030.1,744.0 2069.5,689.0 2111.8,629.2  Z" style="stroke-width: 2.0;  stroke: rgb(82,82,82); fill: rgb(0,0,204); opacity: 0.667;" />
</g>
<defs>
<pattern id="hline-sparse" width="10" height="10" patternTransform="rotate(0 0 0)" patternUnits="userSpaceOnUse"><line x1="0" y1="0" x2="10" y2="0" style="stroke:black;stroke-width:2" /></pattern>
<pattern id="checker" width="10" height="10" patternTransform="rotate(45 0 0)" patternUnits="userSpaceOnUse"><line x1="0" y1="0" x2="10" y2="0" style="stroke:black;stroke-width:2" /><line x1="0" y1="0" x2="0" y2="10" style="stroke:black;stroke-width:2" /></pattern>
<pattern id="checker" width="10" height="10" patternTransform="rotate(45 0 0)" patternUnits="userSpaceOnUse"><line x1="0" y1="0" x2="10" y2="0" style="stroke:black;stroke-width:5" /><line x1="0" y1="0" x2="0" y2="10" style="stroke:black;stroke-width:4" /></pattern>
<pattern id="hline" width="10" height="10" patternTransform="rotate(0 0 0)" patternUnits="userSpaceOnUse"><line x1="0" y1="0" x2="10" y2="0" style="stroke:black;stroke-width:5" /></pattern>
<pattern id="vline-sparse" width="10" height="10" patternTransform="rotate(0 0 0)" patternUnits="userSpaceOnUse"><line x1="0" y1="0" x2="0" y2="10" style="stroke:black;stroke-width:2" /></pattern>
<pattern id="vline" width="10" height="10" patternTransform="rotate(0 0 0)" patternUnits="userSpaceOnUse"><line x1="0" y1="0" x2="0" y2="10" style="stroke:black;stroke-width:5" /></pattern>
</defs>
</svg>
