<?xml version="1.0" encoding="utf-8" standalone="no"?>
<!DOCTYPE svg PUBLIC "-//W3C//DTD SVG 1.1//EN" "http://www.w3.org/Graphics/SVG/1.1/DTD/svg11.dtd">
<svg width="3000px" height="3000px" version="1.1" xmlns="http://www.w3.org/2000/svg" xmlns:xlink="http://www.w3.org/1999/xlink">
<g id="ideograms">
<path d="M1500.000,425.000 A1075.000,1075.000 40.000 0,1 1504.203,425.008 L1504.398,375.009 A1125.000,1125.000 0.000 0,0 1500.000,375.000 Z" style="stroke-linecap:round;fill:rgb(116,196,118);fill-opacity:0.33;" />
<text x="1511.9" y="285.1" font-size="18.2px" font-family="CMUBright-Roman" style="text-anchor:start;fill:rgb(0,0,0);" transform="rotate(270.1,1511.9,285.1)" >R<tspan baseline-shift="-40%" font-size="90%">s</tspan>caffold<tspan baseline-shift="-40%" font-size="90%">1</tspan>7</text>
<line x1='1500.0' y1='375.0' x2='1500.0' y2='355.0' style="stroke-width:4.0;stroke:rgb(0,0,0);stroke-linecap:round;fill:none;" />
<text x="1506.5" y="345.0" font-size="18.2px" font-family="CMUBright-Roman" style="text-anchor:start;fill:rgb(0,0,0);" transform="rotate(270.0,1506.5,345.0)" >0</text>
<g id="highlighttrack_0">
<path d="M1500.027,425.000 A1075.000,1075.000 40.000 0,1 1504.131,425.008 L1504.323,375.008 A1125.000,1125.000 0.000 0,0 1500.029,375.000 Z" style="stroke-width:4.0;stroke:rgb(0,0,0);stroke-linecap:round;fill:rgb(251,106,74);" />
</g>
<path d="M1570.372,427.306 A1075.000,1075.000 40.000 1,1 1433.822,427.039 L1430.744,377.134 A1125.000,1125.000 0.000 1,0 1573.645,377.413 Z" style="stroke-linecap:round;fill:rgb(116,196,118);fill-opacity:0.33;" />
<text x="1507.1" y="2715.0" font-size="18.2px" font-family="CMUBright-Roman" style="text-anchor:end;fill:rgb(0,0,0);" transform="rotate(-89.9,1507.1,2715.0)" >NC<tspan baseline-shift="-40%" font-size="90%">0</tspan>09092.1</text>
<line x1='1573.6' y1='377.4' x2='1575.0' y2='357.5' style="stroke-width:4.0;stroke:rgb(0,0,0);stroke-linecap:round;fill:none;" />
<text x="1582.1" y="347.9" font-size="18.2px" font-family="CMUBright-Roman" style="text-anchor:start;fill:rgb(0,0,0);" transform="rotate(273.8,1582.1,347.9)" >0</text>
<line x1='1648.5' y1='384.8' x2='1651.1' y2='365.0' style="stroke-width:4.0;stroke:rgb(0,0,0);stroke-linecap:round;fill:none;" />
<text x="1658.9" y="356.0" font-size="18.2px" font-family="CMUBright-Roman" style="text-anchor:start;fill:rgb(0,0,0);" transform="rotate(277.6,1658.9,356.0)" >50</text>
<line x1='1722.7' y1='397.3' x2='1726.6' y2='377.7' style="stroke-width:4.0;stroke:rgb(0,0,0);stroke-linecap:round;fill:none;" />
<text x="1735.0" y="369.2" font-size="18.2px" font-family="CMUBright-Roman" style="text-anchor:start;fill:rgb(0,0,0);" transform="rotate(281.4,1735.0,369.2)" >100</text>
<line x1='1795.9' y1='414.6' x2='1801.1' y2='395.3' style="stroke-width:4.0;stroke:rgb(0,0,0);stroke-linecap:round;fill:none;" />
<text x="1810.0" y="387.4" font-size="18.2px" font-family="CMUBright-Roman" style="text-anchor:start;fill:rgb(0,0,0);" transform="rotate(285.2,1810.0,387.4)" >150</text>
<line x1='1867.8' y1='436.8' x2='1874.3' y2='417.9' style="stroke-width:4.0;stroke:rgb(0,0,0);stroke-linecap:round;fill:none;" />
<text x="1883.7" y="410.6" font-size="18.2px" font-family="CMUBright-Roman" style="text-anchor:start;fill:rgb(0,0,0);" transform="rotate(289.1,1883.7,410.6)" >200</text>
<line x1='1938.0' y1='463.8' x2='1945.8' y2='445.3' style="stroke-width:4.0;stroke:rgb(0,0,0);stroke-linecap:round;fill:none;" />
<text x="1955.6" y="438.7" font-size="18.2px" font-family="CMUBright-Roman" style="text-anchor:start;fill:rgb(0,0,0);" transform="rotate(292.9,1955.6,438.7)" >250</text>
<line x1='2006.3' y1='495.3' x2='2015.3' y2='477.5' style="stroke-width:4.0;stroke:rgb(0,0,0);stroke-linecap:round;fill:none;" />
<text x="2025.5" y="471.5" font-size="18.2px" font-family="CMUBright-Roman" style="text-anchor:start;fill:rgb(0,0,0);" transform="rotate(296.7,2025.5,471.5)" >300</text>
<line x1='2072.3' y1='531.4' x2='2082.4' y2='514.2' style="stroke-width:4.0;stroke:rgb(0,0,0);stroke-linecap:round;fill:none;" />
<text x="2093.1" y="508.9" font-size="18.2px" font-family="CMUBright-Roman" style="text-anchor:start;fill:rgb(0,0,0);" transform="rotate(300.6,2093.1,508.9)" >350</text>
<line x1='2135.7' y1='571.8' x2='2147.0' y2='555.3' style="stroke-width:4.0;stroke:rgb(0,0,0);stroke-linecap:round;fill:none;" />
<text x="2158.0" y="550.8" font-size="18.2px" font-family="CMUBright-Roman" style="text-anchor:start;fill:rgb(0,0,0);" transform="rotate(304.4,2158.0,550.8)" >400</text>
<line x1='2196.3' y1='616.4' x2='2208.7' y2='600.7' style="stroke-width:4.0;stroke:rgb(0,0,0);stroke-linecap:round;fill:none;" />
<text x="2220.0" y="596.9" font-size="18.2px" font-family="CMUBright-Roman" style="text-anchor:start;fill:rgb(0,0,0);" transform="rotate(308.2,2220.0,596.9)" >450</text>
<line x1='2253.8' y1='664.9' x2='2267.2' y2='650.0' style="stroke-width:4.0;stroke:rgb(0,0,0);stroke-linecap:round;fill:none;" />
<text x="2278.7" y="647.0" font-size="18.2px" font-family="CMUBright-Roman" style="text-anchor:start;fill:rgb(0,0,0);" transform="rotate(312.1,2278.7,647.0)" >500</text>
<line x1='2307.9' y1='717.1' x2='2322.3' y2='703.2' style="stroke-width:4.0;stroke:rgb(0,0,0);stroke-linecap:round;fill:none;" />
<text x="2334.0" y="700.9" font-size="18.2px" font-family="CMUBright-Roman" style="text-anchor:start;fill:rgb(0,0,0);" transform="rotate(315.9,2334.0,700.9)" >550</text>
<line x1='2358.4' y1='772.9' x2='2373.7' y2='759.9' style="stroke-width:4.0;stroke:rgb(0,0,0);stroke-linecap:round;fill:none;" />
<text x="2385.5" y="758.5" font-size="18.2px" font-family="CMUBright-Roman" style="text-anchor:start;fill:rgb(0,0,0);" transform="rotate(319.7,2385.5,758.5)" >600</text>
<line x1='2405.1' y1='831.9' x2='2421.2' y2='820.0' style="stroke-width:4.0;stroke:rgb(0,0,0);stroke-linecap:round;fill:none;" />
<text x="2433.1" y="819.3" font-size="18.2px" font-family="CMUBright-Roman" style="text-anchor:start;fill:rgb(0,0,0);" transform="rotate(323.6,2433.1,819.3)" >650</text>
<line x1='2447.7' y1='893.8' x2='2464.6' y2='883.1' style="stroke-width:4.0;stroke:rgb(0,0,0);stroke-linecap:round;fill:none;" />
<text x="2476.5" y="883.2" font-size="18.2px" font-family="CMUBright-Roman" style="text-anchor:start;fill:rgb(0,0,0);" transform="rotate(327.4,2476.5,883.2)" >700</text>
<line x1='2486.1' y1='958.5' x2='2503.7' y2='948.9' style="stroke-width:4.0;stroke:rgb(0,0,0);stroke-linecap:round;fill:none;" />
<text x="2515.5" y="949.8" font-size="18.2px" font-family="CMUBright-Roman" style="text-anchor:start;fill:rgb(0,0,0);" transform="rotate(331.2,2515.5,949.8)" >750</text>
<line x1='2520.1' y1='1025.6' x2='2538.2' y2='1017.2' style="stroke-width:4.0;stroke:rgb(0,0,0);stroke-linecap:round;fill:none;" />
<text x="2550.0" y="1018.9" font-size="18.2px" font-family="CMUBright-Roman" style="text-anchor:start;fill:rgb(0,0,0);" transform="rotate(335.1,2550.0,1018.9)" >800</text>
<line x1='2549.5' y1='1094.9' x2='2568.2' y2='1087.7' style="stroke-width:4.0;stroke:rgb(0,0,0);stroke-linecap:round;fill:none;" />
<text x="2579.8" y="1090.1" font-size="18.2px" font-family="CMUBright-Roman" style="text-anchor:start;fill:rgb(0,0,0);" transform="rotate(338.9,2579.8,1090.1)" >850</text>
<line x1='2574.2' y1='1165.9' x2='2593.3' y2='1160.0' style="stroke-width:4.0;stroke:rgb(0,0,0);stroke-linecap:round;fill:none;" />
<text x="2604.8" y="1163.2" font-size="18.2px" font-family="CMUBright-Roman" style="text-anchor:start;fill:rgb(0,0,0);" transform="rotate(342.7,2604.8,1163.2)" >900</text>
<line x1='2594.2' y1='1238.4' x2='2613.6' y2='1233.8' style="stroke-width:4.0;stroke:rgb(0,0,0);stroke-linecap:round;fill:none;" />
<text x="2624.8" y="1237.8" font-size="18.2px" font-family="CMUBright-Roman" style="text-anchor:start;fill:rgb(0,0,0);" transform="rotate(346.6,2624.8,1237.8)" >950</text>
<line x1='2609.2' y1='1312.1' x2='2628.9' y2='1308.8' style="stroke-width:4.0;stroke:rgb(0,0,0);stroke-linecap:round;fill:none;" />
<text x="2639.9" y="1313.6" font-size="18.2px" font-family="CMUBright-Roman" style="text-anchor:start;fill:rgb(0,0,0);" transform="rotate(350.4,2639.9,1313.6)" >1000</text>
<line x1='2619.3' y1='1386.7' x2='2639.2' y2='1384.7' style="stroke-width:4.0;stroke:rgb(0,0,0);stroke-linecap:round;fill:none;" />
<text x="2649.8" y="1390.1" font-size="18.2px" font-family="CMUBright-Roman" style="text-anchor:start;fill:rgb(0,0,0);" transform="rotate(354.2,2649.8,1390.1)" >1050</text>
<line x1='2624.3' y1='1461.7' x2='2644.3' y2='1461.1' style="stroke-width:4.0;stroke:rgb(0,0,0);stroke-linecap:round;fill:none;" />
<text x="2654.5" y="1467.2" font-size="18.2px" font-family="CMUBright-Roman" style="text-anchor:start;fill:rgb(0,0,0);" transform="rotate(358.1,2654.5,1467.2)" >1100</text>
<line x1='2624.4' y1='1537.0' x2='2644.4' y2='1537.6' style="stroke-width:4.0;stroke:rgb(0,0,0);stroke-linecap:round;fill:none;" />
<text x="2654.1" y="1544.4" font-size="18.2px" font-family="CMUBright-Roman" style="text-anchor:start;fill:rgb(0,0,0);" transform="rotate(1.9,2654.1,1544.4)" >1150</text>
<line x1='2619.4' y1='1612.0' x2='2639.3' y2='1614.0' style="stroke-width:4.0;stroke:rgb(0,0,0);stroke-linecap:round;fill:none;" />
<text x="2648.6" y="1621.5" font-size="18.2px" font-family="CMUBright-Roman" style="text-anchor:start;fill:rgb(0,0,0);" transform="rotate(5.7,2648.6,1621.5)" >1200</text>
<line x1='2609.4' y1='1686.6' x2='2629.1' y2='1689.9' style="stroke-width:4.0;stroke:rgb(0,0,0);stroke-linecap:round;fill:none;" />
<text x="2637.9" y="1698.0" font-size="18.2px" font-family="CMUBright-Roman" style="text-anchor:start;fill:rgb(0,0,0);" transform="rotate(9.5,2637.9,1698.0)" >1250</text>
<line x1='2594.5' y1='1760.3' x2='2613.9' y2='1764.9' style="stroke-width:4.0;stroke:rgb(0,0,0);stroke-linecap:round;fill:none;" />
<text x="2622.1" y="1773.6" font-size="18.2px" font-family="CMUBright-Roman" style="text-anchor:start;fill:rgb(0,0,0);" transform="rotate(13.4,2622.1,1773.6)" >1300</text>
<line x1='2574.6' y1='1832.9' x2='2593.7' y2='1838.8' style="stroke-width:4.0;stroke:rgb(0,0,0);stroke-linecap:round;fill:none;" />
<text x="2601.3" y="1847.9" font-size="18.2px" font-family="CMUBright-Roman" style="text-anchor:start;fill:rgb(0,0,0);" transform="rotate(17.2,2601.3,1847.9)" >1350</text>
<line x1='2550.0' y1='1903.9' x2='2568.7' y2='1911.1' style="stroke-width:4.0;stroke:rgb(0,0,0);stroke-linecap:round;fill:none;" />
<text x="2575.6" y="1920.8" font-size="18.2px" font-family="CMUBright-Roman" style="text-anchor:start;fill:rgb(0,0,0);" transform="rotate(21.0,2575.6,1920.8)" >1400</text>
<line x1='2520.6' y1='1973.2' x2='2538.8' y2='1981.6' style="stroke-width:4.0;stroke:rgb(0,0,0);stroke-linecap:round;fill:none;" />
<text x="2545.1" y="1991.7" font-size="18.2px" font-family="CMUBright-Roman" style="text-anchor:start;fill:rgb(0,0,0);" transform="rotate(24.9,2545.1,1991.7)" >1450</text>
<line x1='2486.7' y1='2040.3' x2='2504.3' y2='2049.9' style="stroke-width:4.0;stroke:rgb(0,0,0);stroke-linecap:round;fill:none;" />
<text x="2509.9" y="2060.4" font-size="18.2px" font-family="CMUBright-Roman" style="text-anchor:start;fill:rgb(0,0,0);" transform="rotate(28.7,2509.9,2060.4)" >1500</text>
<line x1='2448.4' y1='2105.1' x2='2465.3' y2='2115.8' style="stroke-width:4.0;stroke:rgb(0,0,0);stroke-linecap:round;fill:none;" />
<text x="2470.2" y="2126.7" font-size="18.2px" font-family="CMUBright-Roman" style="text-anchor:start;fill:rgb(0,0,0);" transform="rotate(32.5,2470.2,2126.7)" >1550</text>
<line x1='2405.9' y1='2167.1' x2='2422.0' y2='2179.0' style="stroke-width:4.0;stroke:rgb(0,0,0);stroke-linecap:round;fill:none;" />
<text x="2426.2" y="2190.1" font-size="18.2px" font-family="CMUBright-Roman" style="text-anchor:start;fill:rgb(0,0,0);" transform="rotate(36.4,2426.2,2190.1)" >1600</text>
<line x1='2359.3' y1='2226.1' x2='2374.5' y2='2239.1' style="stroke-width:4.0;stroke:rgb(0,0,0);stroke-linecap:round;fill:none;" />
<text x="2378.0" y="2250.5" font-size="18.2px" font-family="CMUBright-Roman" style="text-anchor:start;fill:rgb(0,0,0);" transform="rotate(40.2,2378.0,2250.5)" >1650</text>
<line x1='2308.8' y1='2281.9' x2='2323.2' y2='2295.8' style="stroke-width:4.0;stroke:rgb(0,0,0);stroke-linecap:round;fill:none;" />
<text x="2325.9" y="2307.5" font-size="18.2px" font-family="CMUBright-Roman" style="text-anchor:start;fill:rgb(0,0,0);" transform="rotate(44.0,2325.9,2307.5)" >1700</text>
<line x1='2254.8' y1='2334.2' x2='2268.2' y2='2349.1' style="stroke-width:4.0;stroke:rgb(0,0,0);stroke-linecap:round;fill:none;" />
<text x="2270.1" y="2360.8" font-size="18.2px" font-family="CMUBright-Roman" style="text-anchor:start;fill:rgb(0,0,0);" transform="rotate(47.9,2270.1,2360.8)" >1750</text>
<line x1='2197.3' y1='2382.8' x2='2209.7' y2='2398.5' style="stroke-width:4.0;stroke:rgb(0,0,0);stroke-linecap:round;fill:none;" />
<text x="2210.8" y="2410.4" font-size="18.2px" font-family="CMUBright-Roman" style="text-anchor:start;fill:rgb(0,0,0);" transform="rotate(51.7,2210.8,2410.4)" >1800</text>
<line x1='2136.8' y1='2427.4' x2='2148.1' y2='2443.9' style="stroke-width:4.0;stroke:rgb(0,0,0);stroke-linecap:round;fill:none;" />
<text x="2148.4" y="2455.8" font-size="18.2px" font-family="CMUBright-Roman" style="text-anchor:start;fill:rgb(0,0,0);" transform="rotate(55.5,2148.4,2455.8)" >1850</text>
<line x1='2073.4' y1='2467.9' x2='2083.6' y2='2485.1' style="stroke-width:4.0;stroke:rgb(0,0,0);stroke-linecap:round;fill:none;" />
<text x="2083.1" y="2497.0" font-size="18.2px" font-family="CMUBright-Roman" style="text-anchor:start;fill:rgb(0,0,0);" transform="rotate(59.4,2083.1,2497.0)" >1900</text>
<line x1='2007.4' y1='2504.1' x2='2016.4' y2='2521.9' style="stroke-width:4.0;stroke:rgb(0,0,0);stroke-linecap:round;fill:none;" />
<text x="2015.1" y="2533.8" font-size="18.2px" font-family="CMUBright-Roman" style="text-anchor:start;fill:rgb(0,0,0);" transform="rotate(63.2,2015.1,2533.8)" >1950</text>
<line x1='1939.2' y1='2535.7' x2='1947.0' y2='2554.2' style="stroke-width:4.0;stroke:rgb(0,0,0);stroke-linecap:round;fill:none;" />
<text x="1944.9" y="2565.9" font-size="18.2px" font-family="CMUBright-Roman" style="text-anchor:start;fill:rgb(0,0,0);" transform="rotate(67.0,1944.9,2565.9)" >2000</text>
<line x1='1869.0' y1='2562.8' x2='1875.5' y2='2581.7' style="stroke-width:4.0;stroke:rgb(0,0,0);stroke-linecap:round;fill:none;" />
<text x="1872.7" y="2593.2" font-size="18.2px" font-family="CMUBright-Roman" style="text-anchor:start;fill:rgb(0,0,0);" transform="rotate(70.9,1872.7,2593.2)" >2050</text>
<line x1='1797.1' y1='2585.1' x2='1802.4' y2='2604.3' style="stroke-width:4.0;stroke:rgb(0,0,0);stroke-linecap:round;fill:none;" />
<text x="1798.8" y="2615.7" font-size="18.2px" font-family="CMUBright-Roman" style="text-anchor:start;fill:rgb(0,0,0);" transform="rotate(74.7,1798.8,2615.7)" >2100</text>
<line x1='1724.0' y1='2602.5' x2='1727.9' y2='2622.1' style="stroke-width:4.0;stroke:rgb(0,0,0);stroke-linecap:round;fill:none;" />
<text x="1723.6" y="2633.2" font-size="18.2px" font-family="CMUBright-Roman" style="text-anchor:start;fill:rgb(0,0,0);" transform="rotate(78.5,1723.6,2633.2)" >2150</text>
<line x1='1649.8' y1='2615.0' x2='1652.4' y2='2634.8' style="stroke-width:4.0;stroke:rgb(0,0,0);stroke-linecap:round;fill:none;" />
<text x="1647.3" y="2645.6" font-size="18.2px" font-family="CMUBright-Roman" style="text-anchor:start;fill:rgb(0,0,0);" transform="rotate(82.3,1647.3,2645.6)" >2200</text>
<line x1='1574.9' y1='2622.5' x2='1576.3' y2='2642.5' style="stroke-width:4.0;stroke:rgb(0,0,0);stroke-linecap:round;fill:none;" />
<text x="1570.4" y="2652.8" font-size="18.2px" font-family="CMUBright-Roman" style="text-anchor:start;fill:rgb(0,0,0);" transform="rotate(86.2,1570.4,2652.8)" >2250</text>
<line x1='1499.8' y1='2625.0' x2='1499.7' y2='2645.0' style="stroke-width:4.0;stroke:rgb(0,0,0);stroke-linecap:round;fill:none;" />
<text x="1506.2" y="2655.0" font-size="18.2px" font-family="CMUBright-Roman" style="text-anchor:end;fill:rgb(0,0,0);" transform="rotate(-90.0,1506.2,2655.0)" >2300</text>
<line x1='1424.6' y1='2622.5' x2='1423.2' y2='2642.4' style="stroke-width:4.0;stroke:rgb(0,0,0);stroke-linecap:round;fill:none;" />
<text x="1429.0" y="2652.8" font-size="18.2px" font-family="CMUBright-Roman" style="text-anchor:end;fill:rgb(0,0,0);" transform="rotate(-86.2,1429.0,2652.8)" >2350</text>
<line x1='1349.7' y1='2614.9' x2='1347.1' y2='2634.7' style="stroke-width:4.0;stroke:rgb(0,0,0);stroke-linecap:round;fill:none;" />
<text x="1352.2" y="2645.5" font-size="18.2px" font-family="CMUBright-Roman" style="text-anchor:end;fill:rgb(0,0,0);" transform="rotate(-82.3,1352.2,2645.5)" >2400</text>
<line x1='1275.6' y1='2602.4' x2='1271.6' y2='2622.0' style="stroke-width:4.0;stroke:rgb(0,0,0);stroke-linecap:round;fill:none;" />
<text x="1275.9" y="2633.1" font-size="18.2px" font-family="CMUBright-Roman" style="text-anchor:end;fill:rgb(0,0,0);" transform="rotate(-78.5,1275.9,2633.1)" >2450</text>
<line x1='1202.4' y1='2584.9' x2='1197.1' y2='2604.2' style="stroke-width:4.0;stroke:rgb(0,0,0);stroke-linecap:round;fill:none;" />
<text x="1200.7" y="2615.6" font-size="18.2px" font-family="CMUBright-Roman" style="text-anchor:end;fill:rgb(0,0,0);" transform="rotate(-74.7,1200.7,2615.6)" >2500</text>
<line x1='1130.6' y1='2562.6' x2='1124.0' y2='2581.5' style="stroke-width:4.0;stroke:rgb(0,0,0);stroke-linecap:round;fill:none;" />
<text x="1126.9" y="2593.1" font-size="18.2px" font-family="CMUBright-Roman" style="text-anchor:end;fill:rgb(0,0,0);" transform="rotate(-70.8,1126.9,2593.1)" >2550</text>
<line x1='1060.4' y1='2535.5' x2='1052.6' y2='2554.0' style="stroke-width:4.0;stroke:rgb(0,0,0);stroke-linecap:round;fill:none;" />
<text x="1054.6" y="2565.7" font-size="18.2px" font-family="CMUBright-Roman" style="text-anchor:end;fill:rgb(0,0,0);" transform="rotate(-67.0,1054.6,2565.7)" >2600</text>
<line x1='992.2' y1='2503.9' x2='983.1' y2='2521.7' style="stroke-width:4.0;stroke:rgb(0,0,0);stroke-linecap:round;fill:none;" />
<text x="984.4" y="2533.5" font-size="18.2px" font-family="CMUBright-Roman" style="text-anchor:end;fill:rgb(0,0,0);" transform="rotate(-63.2,984.4,2533.5)" >2650</text>
<line x1='926.2' y1='2467.7' x2='916.0' y2='2484.9' style="stroke-width:4.0;stroke:rgb(0,0,0);stroke-linecap:round;fill:none;" />
<text x="916.5" y="2496.8" font-size="18.2px" font-family="CMUBright-Roman" style="text-anchor:end;fill:rgb(0,0,0);" transform="rotate(-59.3,916.5,2496.8)" >2700</text>
<line x1='862.8' y1='2427.2' x2='851.5' y2='2443.6' style="stroke-width:4.0;stroke:rgb(0,0,0);stroke-linecap:round;fill:none;" />
<text x="851.2" y="2455.6" font-size="18.2px" font-family="CMUBright-Roman" style="text-anchor:end;fill:rgb(0,0,0);" transform="rotate(-55.5,851.2,2455.6)" >2750</text>
<line x1='802.3' y1='2382.5' x2='789.9' y2='2398.2' style="stroke-width:4.0;stroke:rgb(0,0,0);stroke-linecap:round;fill:none;" />
<text x="788.8" y="2410.1" font-size="18.2px" font-family="CMUBright-Roman" style="text-anchor:end;fill:rgb(0,0,0);" transform="rotate(-51.7,788.8,2410.1)" >2800</text>
<line x1='744.9' y1='2333.9' x2='731.4' y2='2348.7' style="stroke-width:4.0;stroke:rgb(0,0,0);stroke-linecap:round;fill:none;" />
<text x="729.6" y="2360.5" font-size="18.2px" font-family="CMUBright-Roman" style="text-anchor:end;fill:rgb(0,0,0);" transform="rotate(-47.8,729.6,2360.5)" >2850</text>
<line x1='690.8' y1='2281.6' x2='676.4' y2='2295.5' style="stroke-width:4.0;stroke:rgb(0,0,0);stroke-linecap:round;fill:none;" />
<text x="673.8" y="2307.1" font-size="18.2px" font-family="CMUBright-Roman" style="text-anchor:end;fill:rgb(0,0,0);" transform="rotate(-44.0,673.8,2307.1)" >2900</text>
<line x1='640.4' y1='2225.8' x2='625.1' y2='2238.7' style="stroke-width:4.0;stroke:rgb(0,0,0);stroke-linecap:round;fill:none;" />
<text x="621.7" y="2250.1" font-size="18.2px" font-family="CMUBright-Roman" style="text-anchor:end;fill:rgb(0,0,0);" transform="rotate(-40.2,621.7,2250.1)" >2950</text>
<line x1='593.8' y1='2166.7' x2='577.7' y2='2178.6' style="stroke-width:4.0;stroke:rgb(0,0,0);stroke-linecap:round;fill:none;" />
<text x="573.5" y="2189.7" font-size="18.2px" font-family="CMUBright-Roman" style="text-anchor:end;fill:rgb(0,0,0);" transform="rotate(-36.3,573.5,2189.7)" >3000</text>
<line x1='551.3' y1='2104.7' x2='534.4' y2='2115.4' style="stroke-width:4.0;stroke:rgb(0,0,0);stroke-linecap:round;fill:none;" />
<text x="529.5" y="2126.2" font-size="18.2px" font-family="CMUBright-Roman" style="text-anchor:end;fill:rgb(0,0,0);" transform="rotate(-32.5,529.5,2126.2)" >3050</text>
<line x1='513.0' y1='2039.9' x2='495.5' y2='2049.5' style="stroke-width:4.0;stroke:rgb(0,0,0);stroke-linecap:round;fill:none;" />
<text x="489.8" y="2060.0" font-size="18.2px" font-family="CMUBright-Roman" style="text-anchor:end;fill:rgb(0,0,0);" transform="rotate(-28.7,489.8,2060.0)" >3100</text>
<line x1='479.1' y1='1972.7' x2='461.0' y2='1981.1' style="stroke-width:4.0;stroke:rgb(0,0,0);stroke-linecap:round;fill:none;" />
<text x="454.7" y="1991.2" font-size="18.2px" font-family="CMUBright-Roman" style="text-anchor:end;fill:rgb(0,0,0);" transform="rotate(-24.8,454.7,1991.2)" >3150</text>
<line x1='449.8' y1='1903.5' x2='431.2' y2='1910.6' style="stroke-width:4.0;stroke:rgb(0,0,0);stroke-linecap:round;fill:none;" />
<text x="424.2" y="1920.3" font-size="18.2px" font-family="CMUBright-Roman" style="text-anchor:end;fill:rgb(0,0,0);" transform="rotate(-21.0,424.2,1920.3)" >3200</text>
<line x1='425.2' y1='1832.4' x2='406.1' y2='1838.3' style="stroke-width:4.0;stroke:rgb(0,0,0);stroke-linecap:round;fill:none;" />
<text x="398.5" y="1847.5" font-size="18.2px" font-family="CMUBright-Roman" style="text-anchor:end;fill:rgb(0,0,0);" transform="rotate(-17.2,398.5,1847.5)" >3250</text>
<line x1='405.4' y1='1759.8' x2='386.0' y2='1764.4' style="stroke-width:4.0;stroke:rgb(0,0,0);stroke-linecap:round;fill:none;" />
<text x="377.7" y="1773.1" font-size="18.2px" font-family="CMUBright-Roman" style="text-anchor:end;fill:rgb(0,0,0);" transform="rotate(-13.4,377.7,1773.1)" >3300</text>
<line x1='390.5' y1='1686.1' x2='370.8' y2='1689.4' style="stroke-width:4.0;stroke:rgb(0,0,0);stroke-linecap:round;fill:none;" />
<text x="362.0" y="1697.5" font-size="18.2px" font-family="CMUBright-Roman" style="text-anchor:end;fill:rgb(0,0,0);" transform="rotate(-9.5,362.0,1697.5)" >3350</text>
<line x1='380.5' y1='1611.5' x2='360.6' y2='1613.5' style="stroke-width:4.0;stroke:rgb(0,0,0);stroke-linecap:round;fill:none;" />
<text x="351.4" y="1621.0" font-size="18.2px" font-family="CMUBright-Roman" style="text-anchor:end;fill:rgb(0,0,0);" transform="rotate(-5.7,351.4,1621.0)" >3400</text>
<line x1='375.6' y1='1536.5' x2='355.6' y2='1537.1' style="stroke-width:4.0;stroke:rgb(0,0,0);stroke-linecap:round;fill:none;" />
<text x="345.8" y="1543.9" font-size="18.2px" font-family="CMUBright-Roman" style="text-anchor:end;fill:rgb(0,0,0);" transform="rotate(-1.9,345.8,1543.9)" >3450</text>
<line x1='375.7' y1='1461.2' x2='355.7' y2='1460.6' style="stroke-width:4.0;stroke:rgb(0,0,0);stroke-linecap:round;fill:none;" />
<text x="345.5" y="1466.7" font-size="18.2px" font-family="CMUBright-Roman" style="text-anchor:end;fill:rgb(0,0,0);" transform="rotate(2.0,345.5,1466.7)" >3500</text>
<line x1='380.8' y1='1386.2' x2='360.9' y2='1384.2' style="stroke-width:4.0;stroke:rgb(0,0,0);stroke-linecap:round;fill:none;" />
<text x="350.3" y="1389.6" font-size="18.2px" font-family="CMUBright-Roman" style="text-anchor:end;fill:rgb(0,0,0);" transform="rotate(5.8,350.3,1389.6)" >3550</text>
<line x1='390.9' y1='1311.7' x2='371.2' y2='1308.3' style="stroke-width:4.0;stroke:rgb(0,0,0);stroke-linecap:round;fill:none;" />
<text x="360.2" y="1313.1" font-size="18.2px" font-family="CMUBright-Roman" style="text-anchor:end;fill:rgb(0,0,0);" transform="rotate(9.6,360.2,1313.1)" >3600</text>
<line x1='405.9' y1='1238.0' x2='386.5' y2='1233.3' style="stroke-width:4.0;stroke:rgb(0,0,0);stroke-linecap:round;fill:none;" />
<text x="375.3" y="1237.3" font-size="18.2px" font-family="CMUBright-Roman" style="text-anchor:end;fill:rgb(0,0,0);" transform="rotate(13.5,375.3,1237.3)" >3650</text>
<line x1='425.9' y1='1165.4' x2='406.8' y2='1159.5' style="stroke-width:4.0;stroke:rgb(0,0,0);stroke-linecap:round;fill:none;" />
<text x="395.3" y="1162.7" font-size="18.2px" font-family="CMUBright-Roman" style="text-anchor:end;fill:rgb(0,0,0);" transform="rotate(17.3,395.3,1162.7)" >3700</text>
<line x1='450.7' y1='1094.4' x2='432.0' y2='1087.2' style="stroke-width:4.0;stroke:rgb(0,0,0);stroke-linecap:round;fill:none;" />
<text x="420.3" y="1089.7" font-size="18.2px" font-family="CMUBright-Roman" style="text-anchor:end;fill:rgb(0,0,0);" transform="rotate(21.1,420.3,1089.7)" >3750</text>
<line x1='480.1' y1='1025.2' x2='462.0' y2='1016.7' style="stroke-width:4.0;stroke:rgb(0,0,0);stroke-linecap:round;fill:none;" />
<text x="450.2" y="1018.4" font-size="18.2px" font-family="CMUBright-Roman" style="text-anchor:end;fill:rgb(0,0,0);" transform="rotate(25.0,450.2,1018.4)" >3800</text>
<line x1='514.1' y1='958.1' x2='496.6' y2='948.5' style="stroke-width:4.0;stroke:rgb(0,0,0);stroke-linecap:round;fill:none;" />
<text x="484.7" y="949.4" font-size="18.2px" font-family="CMUBright-Roman" style="text-anchor:end;fill:rgb(0,0,0);" transform="rotate(28.8,484.7,949.4)" >3850</text>
<line x1='552.5' y1='893.4' x2='535.7' y2='882.6' style="stroke-width:4.0;stroke:rgb(0,0,0);stroke-linecap:round;fill:none;" />
<text x="523.8" y="882.7" font-size="18.2px" font-family="CMUBright-Roman" style="text-anchor:end;fill:rgb(0,0,0);" transform="rotate(32.6,523.8,882.7)" >3900</text>
<line x1='595.2' y1='831.5' x2='579.1' y2='819.6' style="stroke-width:4.0;stroke:rgb(0,0,0);stroke-linecap:round;fill:none;" />
<text x="567.2" y="818.9" font-size="18.2px" font-family="CMUBright-Roman" style="text-anchor:end;fill:rgb(0,0,0);" transform="rotate(36.5,567.2,818.9)" >3950</text>
<line x1='641.9' y1='772.5' x2='626.6' y2='759.6' style="stroke-width:4.0;stroke:rgb(0,0,0);stroke-linecap:round;fill:none;" />
<text x="614.8" y="758.1" font-size="18.2px" font-family="CMUBright-Roman" style="text-anchor:end;fill:rgb(0,0,0);" transform="rotate(40.3,614.8,758.1)" >4000</text>
<line x1='692.4' y1='716.8' x2='678.1' y2='702.9' style="stroke-width:4.0;stroke:rgb(0,0,0);stroke-linecap:round;fill:none;" />
<text x="666.4" y="700.6" font-size="18.2px" font-family="CMUBright-Roman" style="text-anchor:end;fill:rgb(0,0,0);" transform="rotate(44.1,666.4,700.6)" >4050</text>
<line x1='746.6' y1='664.6' x2='733.2' y2='649.7' style="stroke-width:4.0;stroke:rgb(0,0,0);stroke-linecap:round;fill:none;" />
<text x="721.7" y="646.6" font-size="18.2px" font-family="CMUBright-Roman" style="text-anchor:end;fill:rgb(0,0,0);" transform="rotate(48.0,721.7,646.6)" >4100</text>
<line x1='804.1' y1='616.1' x2='791.7' y2='600.4' style="stroke-width:4.0;stroke:rgb(0,0,0);stroke-linecap:round;fill:none;" />
<text x="780.4" y="596.5" font-size="18.2px" font-family="CMUBright-Roman" style="text-anchor:end;fill:rgb(0,0,0);" transform="rotate(51.8,780.4,596.5)" >4150</text>
<line x1='864.7' y1='571.5' x2='853.4' y2='555.0' style="stroke-width:4.0;stroke:rgb(0,0,0);stroke-linecap:round;fill:none;" />
<text x="842.4" y="550.5" font-size="18.2px" font-family="CMUBright-Roman" style="text-anchor:end;fill:rgb(0,0,0);" transform="rotate(55.6,842.4,550.5)" >4200</text>
<line x1='928.2' y1='531.2' x2='918.0' y2='513.9' style="stroke-width:4.0;stroke:rgb(0,0,0);stroke-linecap:round;fill:none;" />
<text x="907.3" y="508.7" font-size="18.2px" font-family="CMUBright-Roman" style="text-anchor:end;fill:rgb(0,0,0);" transform="rotate(59.4,907.3,508.7)" >4250</text>
<line x1='994.2' y1='495.1' x2='985.2' y2='477.3' style="stroke-width:4.0;stroke:rgb(0,0,0);stroke-linecap:round;fill:none;" />
<text x="974.9" y="471.3" font-size="18.2px" font-family="CMUBright-Roman" style="text-anchor:end;fill:rgb(0,0,0);" transform="rotate(63.3,974.9,471.3)" >4300</text>
<line x1='1062.5' y1='463.6' x2='1054.7' y2='445.1' style="stroke-width:4.0;stroke:rgb(0,0,0);stroke-linecap:round;fill:none;" />
<text x="1044.8" y="438.5" font-size="18.2px" font-family="CMUBright-Roman" style="text-anchor:end;fill:rgb(0,0,0);" transform="rotate(67.1,1044.8,438.5)" >4350</text>
<line x1='1132.7' y1='436.6' x2='1126.2' y2='417.7' style="stroke-width:4.0;stroke:rgb(0,0,0);stroke-linecap:round;fill:none;" />
<text x="1116.8" y="410.4" font-size="18.2px" font-family="CMUBright-Roman" style="text-anchor:end;fill:rgb(0,0,0);" transform="rotate(70.9,1116.8,410.4)" >4400</text>
<line x1='1204.6' y1='414.5' x2='1199.3' y2='395.2' style="stroke-width:4.0;stroke:rgb(0,0,0);stroke-linecap:round;fill:none;" />
<text x="1190.4" y="387.3" font-size="18.2px" font-family="CMUBright-Roman" style="text-anchor:end;fill:rgb(0,0,0);" transform="rotate(74.8,1190.4,387.3)" >4450</text>
<line x1='1277.8' y1='397.2' x2='1273.8' y2='377.6' style="stroke-width:4.0;stroke:rgb(0,0,0);stroke-linecap:round;fill:none;" />
<text x="1265.5" y="369.1" font-size="18.2px" font-family="CMUBright-Roman" style="text-anchor:end;fill:rgb(0,0,0);" transform="rotate(78.6,1265.5,369.1)" >4500</text>
<line x1='1352.0' y1='384.8' x2='1349.4' y2='365.0' style="stroke-width:4.0;stroke:rgb(0,0,0);stroke-linecap:round;fill:none;" />
<text x="1341.6" y="355.9" font-size="18.2px" font-family="CMUBright-Roman" style="text-anchor:end;fill:rgb(0,0,0);" transform="rotate(82.4,1341.6,355.9)" >4550</text>
<line x1='1426.8' y1='377.4' x2='1425.5' y2='357.4' style="stroke-width:4.0;stroke:rgb(0,0,0);stroke-linecap:round;fill:none;" />
<text x="1418.4" y="347.9" font-size="18.2px" font-family="CMUBright-Roman" style="text-anchor:end;fill:rgb(0,0,0);" transform="rotate(86.3,1418.4,347.9)" >4600</text>
<g id="highlighttrack_0">
<path d="M1787.110,464.050 A1075.000,1075.000 40.000 0,1 1791.062,465.153 L1804.600,417.021 A1125.000,1125.000 0.000 0,0 1800.464,415.866 Z" style="stroke-width:4.0;stroke:rgb(0,0,0);stroke-linecap:round;fill:rgb(251,106,74);" />
<path d="M1858.471,486.529 A1075.000,1075.000 40.000 0,1 1862.338,487.905 L1879.190,440.831 A1125.000,1125.000 0.000 0,0 1875.145,439.391 Z" style="stroke-width:4.0;stroke:rgb(0,0,0);stroke-linecap:round;fill:rgb(251,106,74);" />
<path d="M889.064,2384.523 A1075.000,1075.000 40.000 0,1 885.691,2382.185 L857.119,2423.217 A1125.000,1125.000 0.000 0,0 860.648,2425.664 Z" style="stroke-width:4.0;stroke:rgb(0,0,0);stroke-linecap:round;fill:rgb(116,196,118);" />
<path d="M425.104,1485.046 A1075.000,1075.000 40.000 0,1 425.169,1480.943 L375.177,1480.057 A1125.000,1125.000 0.000 0,0 375.109,1484.350 Z" style="stroke-width:4.0;stroke:rgb(0,0,0);stroke-linecap:round;fill:rgb(116,196,118);" />
<path d="M793.525,689.742 A1075.000,1075.000 40.000 0,1 796.623,687.051 L763.907,649.240 A1125.000,1125.000 0.000 0,0 760.665,652.056 Z" style="stroke-width:4.0;stroke:rgb(0,0,0);stroke-linecap:round;fill:rgb(116,196,118);" />
<path d="M800.964,683.316 A1075.000,1075.000 40.000 0,1 804.086,680.653 L771.718,642.544 A1125.000,1125.000 0.000 0,0 768.450,645.331 Z" style="stroke-width:4.0;stroke:rgb(0,0,0);stroke-linecap:round;fill:rgb(116,196,118);" />
<path d="M1196.890,468.618 A1075.000,1075.000 40.000 0,1 1200.829,467.468 L1186.914,419.444 A1125.000,1125.000 0.000 0,0 1182.791,420.647 Z" style="stroke-width:4.0;stroke:rgb(0,0,0);stroke-linecap:round;fill:rgb(116,196,118);" />
<path d="M1337.652,437.330 A1075.000,1075.000 40.000 0,1 1341.709,436.718 L1334.347,387.263 A1125.000,1125.000 0.000 0,0 1330.101,387.903 Z" style="stroke-width:4.0;stroke:rgb(0,0,0);stroke-linecap:round;fill:rgb(116,196,118);" />
</g>
</g>
<g id="track_0">
<path d="M 1784.239,474.409 A 1064.250,1064.250 0.00 0,1 1788.2,475.5 L 1788.2,475.5 1768.2,545.9 1749.4,610.9 1731.7,670.8 1715.1,725.8 1699.5,776.1 1684.8,822.0 1671.1,863.7 1658.2,901.4 1646.1,935.3 1634.7,965.4 1624.1,992.1 1614.2,1015.4 1604.8,1035.4 1596.1,1052.2 1587.9,1066.0 1580.3,1076.7 1573.1,1084.5 1566.4,1089.5 1560.1,1091.5 1554.3,1090.7 1548.8,1087.0 1543.7,1080.4 1539.0,1070.9 1534.6,1058.5 1530.5,1043.0 1526.7,1024.4 1523.2,1002.6 1520.0,977.5 1517.1,949.0 1514.5,916.8 1512.2,881.0 1510.1,841.2 1508.3,797.3 1506.9,749.2 1505.7,696.5 1504.8,639.1 1504.2,576.6 1504.0,509.0 1504.1,435.8  A 1064.250,1064.250 0.00 0,0 1500.0,435.8 L 1500.0,435.8 1500.2,509.0 1500.7,576.6 1501.5,639.1 1502.6,696.5 1504.0,749.2 1505.7,797.3 1507.6,841.2 1509.8,880.9 1512.3,916.8 1515.0,948.9 1518.1,977.5 1521.3,1002.6 1524.9,1024.3 1528.8,1042.9 1532.9,1058.4 1537.4,1070.8 1542.1,1080.3 1547.2,1086.8 1552.7,1090.5 1558.6,1091.3 1564.8,1089.2 1571.5,1084.3 1578.6,1076.4 1586.3,1065.6 1594.4,1051.8 1603.1,1035.0 1612.3,1014.9 1622.2,991.6 1632.7,964.9 1643.9,934.7 1655.9,900.8 1668.6,863.1 1682.2,821.3 1696.7,775.4 1712.1,725.0 1728.5,669.9 1746.0,610.0 1764.5,544.9 1784.2,474.4  Z" style="stroke-width: 2.0;  stroke: rgb(82,82,82); fill: rgb(251,106,74); opacity: 0.667;" />
<path d="M 1854.887,496.664 A 1064.250,1064.250 0.00 0,1 1858.7,498.0 L 1858.7,498.0 1833.8,566.9 1810.4,630.4 1788.4,688.9 1767.8,742.5 1748.3,791.6 1730.1,836.3 1713.0,876.9 1696.9,913.5 1681.9,946.3 1667.8,975.6 1654.5,1001.4 1642.1,1023.8 1630.5,1043.0 1619.6,1059.1 1609.4,1072.2 1599.9,1082.4 1591.0,1089.6 1582.6,1094.0 1574.8,1095.5 1567.5,1094.2 1560.7,1090.1 1554.3,1083.2 1548.4,1073.3 1542.9,1060.5 1537.7,1044.8 1533.0,1025.9 1528.6,1003.9 1524.6,978.5 1520.9,949.8 1517.6,917.5 1514.7,881.5 1512.0,841.6 1509.8,797.6 1507.9,749.4 1506.3,696.6 1505.2,639.1 1504.4,576.7 1504.0,509.0 1504.1,435.8  A 1064.250,1064.250 0.00 0,0 1500.0,435.8 L 1500.0,435.8 1500.2,509.0 1500.9,576.7 1501.9,639.1 1503.2,696.6 1505.0,749.3 1507.1,797.6 1509.5,841.5 1512.3,881.4 1515.4,917.4 1518.8,949.7 1522.6,978.4 1526.7,1003.8 1531.2,1025.8 1536.0,1044.6 1541.2,1060.4 1546.7,1073.1 1552.7,1082.9 1559.1,1089.9 1565.9,1094.0 1573.2,1095.2 1581.1,1093.7 1589.4,1089.2 1598.3,1082.0 1607.8,1071.8 1617.9,1058.7 1628.8,1042.5 1640.3,1023.3 1652.6,1000.8 1665.7,974.9 1679.8,945.7 1694.7,912.7 1710.6,876.1 1727.6,835.4 1745.6,790.6 1764.9,741.5 1785.3,687.8 1807.1,629.2 1830.3,565.6 1854.9,496.7  Z" style="stroke-width: 2.0;  stroke: rgb(82,82,82); fill: rgb(116,196,118); opacity: 0.667;" />
<path d="M 800.589,697.845 A 1064.250,1064.250 0.00 0,1 803.7,695.2 L 803.7,695.2 851.9,750.3 897.3,800.8 940.0,846.9 980.1,888.9 1017.7,926.9 1053.0,961.2 1086.1,991.9 1117.2,1019.2 1146.4,1043.3 1173.8,1064.4 1199.4,1082.4 1223.5,1097.6 1246.1,1110.1 1267.2,1119.9 1287.1,1127.0 1305.7,1131.7 1323.2,1133.8 1339.6,1133.4 1355.0,1130.5 1369.4,1125.2 1382.9,1117.3 1395.6,1107.0 1407.5,1094.0 1418.6,1078.3 1429.0,1060.0 1438.7,1038.7 1447.7,1014.6 1456.0,987.4 1463.8,957.0 1470.8,923.2 1477.3,885.9 1483.0,844.9 1488.2,800.0 1492.6,751.0 1496.4,697.6 1499.5,639.7 1501.8,576.9 1503.4,509.0 1504.1,435.8  A 1064.250,1064.250 0.00 0,0 1500.0,435.8 L 1500.0,435.8 1499.6,509.0 1498.3,576.9 1496.2,639.7 1493.4,697.7 1489.8,751.0 1485.5,800.1 1480.5,845.0 1474.9,886.0 1468.6,923.3 1461.7,957.1 1454.1,987.6 1445.8,1014.8 1436.9,1039.0 1427.3,1060.2 1417.0,1078.6 1405.9,1094.3 1394.1,1107.4 1381.5,1117.8 1368.0,1125.7 1353.5,1131.1 1338.2,1134.0 1321.8,1134.4 1304.3,1132.4 1285.7,1127.8 1265.8,1120.7 1244.6,1111.0 1222.0,1098.7 1197.8,1083.6 1172.1,1065.6 1144.7,1044.7 1115.4,1020.7 1084.2,993.5 1050.9,962.9 1015.5,928.8 977.7,890.9 937.5,849.1 894.7,803.1 849.1,752.8 800.6,697.8  Z" style="stroke-width: 2.0;  stroke: rgb(82,82,82); fill: rgb(204,255,0); opacity: 0.667;" />
<path d="M 800.589,697.845 A 1064.250,1064.250 0.00 0,1 803.7,695.2 L 803.7,695.2 852.1,750.3 898.0,800.6 941.4,846.6 982.5,888.3 1021.5,926.1 1058.5,960.1 1093.5,990.6 1126.8,1017.7 1158.4,1041.6 1188.4,1062.5 1217.1,1080.4 1244.4,1095.6 1270.5,1108.1 1295.4,1118.0 1319.4,1125.4 1342.5,1130.4 1364.7,1133.0 1386.2,1133.2 1407.0,1131.0 1427.3,1126.5 1447.1,1119.6 1466.5,1110.3 1485.5,1098.5 1504.2,1084.2 1522.8,1067.3 1541.2,1047.7 1559.5,1025.3 1577.7,999.9 1596.0,971.5 1614.3,939.8 1632.8,904.8 1651.4,866.1 1670.1,823.6 1689.1,777.1 1708.3,726.4 1727.8,671.1 1747.6,611.1 1767.7,546.0 1788.2,475.5  A 1064.250,1064.250 0.00 0,0 1784.2,474.4 L 1784.2,474.4 1764.1,544.9 1744.2,610.1 1724.7,670.2 1705.4,725.6 1686.4,776.4 1667.6,823.0 1648.9,865.5 1630.5,904.3 1612.2,939.4 1594.0,971.1 1575.8,999.6 1557.7,1025.1 1539.4,1047.5 1521.1,1067.2 1502.6,1084.2 1483.9,1098.6 1465.0,1110.4 1445.6,1119.8 1425.9,1126.8 1405.6,1131.4 1384.8,1133.6 1363.3,1133.5 1341.1,1131.0 1318.0,1126.1 1294.0,1118.8 1269.0,1109.0 1242.8,1096.6 1215.5,1081.5 1186.8,1063.6 1156.6,1042.9 1124.9,1019.1 1091.6,992.1 1056.4,961.8 1019.3,927.9 980.2,890.3 938.9,848.7 895.3,802.9 849.2,752.7 800.6,697.8  Z" style="stroke-width: 2.0;  stroke: rgb(82,82,82); fill: rgb(0,255,0); opacity: 0.667;" />
<path d="M 800.589,697.845 A 1064.250,1064.250 0.00 0,1 803.7,695.2 L 803.7,695.2 852.1,750.3 898.1,800.6 941.8,846.5 983.2,888.2 1022.5,926.0 1059.9,960.0 1095.4,990.4 1129.2,1017.5 1161.5,1041.5 1192.2,1062.4 1221.6,1080.4 1249.7,1095.7 1276.7,1108.4 1302.6,1118.5 1327.6,1126.1 1351.8,1131.4 1375.2,1134.3 1398.0,1134.8 1420.2,1133.1 1441.9,1129.0 1463.3,1122.6 1484.3,1113.9 1505.1,1102.7 1525.7,1089.1 1546.3,1073.0 1566.8,1054.2 1587.4,1032.6 1608.1,1008.2 1629.0,980.8 1650.1,950.2 1671.5,916.2 1693.3,878.7 1715.4,837.5 1738.0,792.3 1761.0,742.9 1784.6,689.0 1808.7,630.5 1833.4,566.9 1858.7,498.0  A 1064.250,1064.250 0.00 0,0 1854.9,496.7 L 1854.9,496.7 1829.8,565.6 1805.4,629.3 1781.5,688.0 1758.1,741.9 1735.3,791.4 1712.9,836.7 1690.9,878.0 1669.3,915.6 1648.0,949.6 1627.0,980.3 1606.2,1007.8 1585.6,1032.3 1565.1,1053.9 1544.6,1072.8 1524.1,1089.0 1503.6,1102.7 1482.8,1113.9 1461.8,1122.8 1440.5,1129.2 1418.8,1133.4 1396.6,1135.2 1373.8,1134.7 1350.4,1131.9 1326.2,1126.8 1301.2,1119.2 1275.2,1109.2 1248.2,1096.7 1220.0,1081.5 1190.5,1063.6 1159.7,1042.8 1127.4,1019.0 1093.5,992.0 1057.8,961.7 1020.3,927.8 980.9,890.2 939.3,848.7 895.5,802.9 849.3,752.7 800.6,697.8  Z" style="stroke-width: 2.0;  stroke: rgb(82,82,82); fill: rgb(53,128,0); opacity: 0.667;" />
<path d="M 800.589,697.845 A 1064.250,1064.250 0.00 0,1 803.7,695.2 L 803.7,695.2 851.1,751.5 894.2,805.7 933.3,857.6 968.6,907.6 1000.4,955.7 1029.0,1002.0 1054.7,1046.6 1077.6,1089.7 1097.9,1131.4 1116.0,1171.8 1131.9,1211.1 1145.9,1249.3 1158.0,1286.6 1168.3,1323.1 1177.1,1359.0 1184.4,1394.4 1190.2,1429.3 1194.7,1464.0 1197.8,1498.6 1199.6,1533.1 1200.1,1567.8 1199.3,1602.8 1197.2,1638.1 1193.7,1674.1 1188.7,1710.7 1182.2,1748.1 1174.1,1786.4 1164.2,1825.9 1152.5,1866.6 1138.8,1908.7 1122.9,1952.3 1104.6,1997.6 1083.8,2044.6 1060.2,2093.7 1033.6,2144.8 1003.7,2198.2 970.3,2254.0 933.1,2312.3 891.8,2373.4  A 1064.250,1064.250 0.00 0,0 895.2,2375.7 L 895.2,2375.7 936.3,2314.5 973.2,2256.0 1006.4,2200.1 1036.1,2146.6 1062.5,2095.3 1085.9,2046.2 1106.5,1999.1 1124.6,1953.7 1140.4,1910.1 1153.9,1867.9 1165.5,1827.2 1175.2,1787.7 1183.1,1749.3 1189.5,1711.8 1194.3,1675.2 1197.7,1639.3 1199.7,1603.9 1200.4,1569.0 1199.7,1534.3 1197.8,1499.7 1194.5,1465.2 1189.9,1430.5 1184.0,1395.6 1176.6,1360.2 1167.7,1324.4 1157.1,1287.9 1144.9,1250.7 1130.8,1212.5 1114.8,1173.3 1096.5,1133.0 1076.0,1091.3 1052.9,1048.3 1027.1,1003.8 998.3,957.6 966.3,909.6 930.8,859.8 891.6,808.0 848.3,754.0 800.6,697.8  Z" style="stroke-width: 2.0;  stroke: rgb(82,82,82); fill: rgb(0,0,204); opacity: 0.667;" />
<path d="M 800.589,697.845 A 1064.250,1064.250 0.00 0,1 803.7,695.2 L 803.7,695.2 851.2,751.0 894.6,803.3 934.0,852.5 969.5,898.7 1001.5,941.9 1030.1,982.5 1055.5,1020.6 1077.7,1056.2 1097.1,1089.6 1113.6,1120.9 1127.5,1150.2 1138.8,1177.7 1147.6,1203.4 1153.9,1227.4 1157.9,1250.0 1159.5,1271.1 1158.8,1290.8 1155.8,1309.3 1150.6,1326.6 1143.0,1342.8 1133.1,1358.0 1120.8,1372.1 1106.1,1385.3 1088.8,1397.5 1069.0,1408.9 1046.4,1419.5 1021.1,1429.2 992.8,1438.2 961.4,1446.3 926.8,1453.6 888.7,1460.2 847.1,1465.9 801.6,1470.8 752.1,1474.9 698.4,1478.1 640.2,1480.3 577.2,1481.6 509.2,1481.9 435.9,1481.1  A 1064.250,1064.250 0.00 0,0 435.9,1485.2 L 435.9,1485.2 509.2,1485.7 577.2,1485.2 640.1,1483.6 698.3,1481.1 752.1,1477.8 801.5,1473.5 847.0,1468.4 888.6,1462.5 926.6,1455.8 961.2,1448.4 992.6,1440.1 1020.8,1431.1 1046.1,1421.2 1068.6,1410.6 1088.4,1399.1 1105.6,1386.8 1120.3,1373.5 1132.5,1359.4 1142.4,1344.2 1149.9,1328.0 1155.1,1310.6 1158.0,1292.1 1158.6,1272.4 1156.9,1251.3 1152.9,1228.8 1146.4,1204.7 1137.6,1179.1 1126.2,1151.7 1112.2,1122.4 1095.5,1091.2 1076.0,1057.8 1053.6,1022.3 1028.1,984.3 999.4,943.9 967.2,900.7 931.5,854.7 891.9,805.7 848.4,753.4 800.6,697.8  Z" style="stroke-width: 2.0;  stroke: rgb(82,82,82); fill: rgb(102,153,255); opacity: 0.667;" />
<path d="M 807.954,691.483 A 1064.250,1064.250 0.00 0,1 811.0,688.8 L 811.0,688.8 858.8,744.4 903.7,795.3 945.9,841.9 985.6,884.2 1022.8,922.6 1057.8,957.2 1090.6,988.2 1121.3,1015.8 1150.2,1040.2 1177.3,1061.5 1202.7,1079.8 1226.5,1095.2 1248.8,1107.9 1269.8,1117.9 1289.4,1125.3 1307.9,1130.1 1325.1,1132.3 1341.4,1132.1 1356.6,1129.4 1370.8,1124.2 1384.2,1116.5 1396.8,1106.2 1408.5,1093.3 1419.5,1077.8 1429.8,1059.5 1439.4,1038.3 1448.3,1014.2 1456.6,987.1 1464.2,956.7 1471.2,923.0 1477.5,885.8 1483.3,844.8 1488.4,799.9 1492.8,750.9 1496.5,697.6 1499.5,639.7 1501.8,576.9 1503.4,509.0 1504.1,435.8  A 1064.250,1064.250 0.00 0,0 1500.0,435.8 L 1500.0,435.8 1499.6,509.0 1498.3,576.9 1496.3,639.7 1493.4,697.6 1489.9,751.0 1485.7,800.0 1480.8,844.9 1475.2,885.9 1469.0,923.1 1462.1,956.9 1454.6,987.3 1446.5,1014.4 1437.6,1038.6 1428.1,1059.7 1417.9,1078.1 1407.0,1093.7 1395.3,1106.6 1382.8,1116.9 1369.4,1124.7 1355.2,1130.0 1340.0,1132.7 1323.7,1133.0 1306.4,1130.8 1288.0,1126.1 1268.3,1118.8 1247.3,1108.9 1224.9,1096.3 1201.1,1080.9 1175.6,1062.7 1148.5,1041.6 1119.5,1017.3 1088.6,989.8 1055.7,958.9 1020.6,924.4 983.2,886.2 943.4,844.0 901.0,797.6 855.9,746.9 808.0,691.5  Z" style="stroke-width: 2.0;  stroke: rgb(82,82,82); fill: rgb(153,204,255); opacity: 0.667;" />
<path d="M 807.954,691.483 A 1064.250,1064.250 0.00 0,1 811.0,688.8 L 811.0,688.8 859.0,744.4 904.4,795.2 947.4,841.5 988.1,883.6 1026.7,921.8 1063.2,956.1 1097.9,986.9 1130.9,1014.3 1162.2,1038.5 1191.9,1059.6 1220.3,1077.9 1247.4,1093.3 1273.2,1106.0 1298.0,1116.1 1321.8,1123.7 1344.6,1128.9 1366.7,1131.6 1388.0,1132.0 1408.7,1130.0 1428.8,1125.6 1448.4,1118.8 1467.7,1109.6 1486.6,1097.9 1505.2,1083.7 1523.6,1066.9 1541.9,1047.3 1560.1,1025.0 1578.3,999.7 1596.5,971.3 1614.7,939.7 1633.1,904.7 1651.6,866.0 1670.3,823.6 1689.2,777.1 1708.4,726.3 1727.9,671.1 1747.6,611.0 1767.7,546.0 1788.2,475.5  A 1064.250,1064.250 0.00 0,0 1784.2,474.4 L 1784.2,474.4 1764.1,544.9 1744.2,610.1 1724.7,670.2 1705.5,725.5 1686.5,776.4 1667.7,822.9 1649.2,865.4 1630.8,904.1 1612.6,939.3 1594.4,970.9 1576.4,999.4 1558.3,1024.8 1540.2,1047.2 1522.0,1066.8 1503.6,1083.7 1485.0,1098.0 1466.2,1109.7 1447.0,1119.0 1427.4,1125.8 1407.2,1130.3 1386.6,1132.4 1365.3,1132.1 1343.2,1129.5 1320.3,1124.4 1296.5,1116.9 1271.7,1106.9 1245.8,1094.2 1218.7,1078.9 1190.3,1060.8 1160.4,1039.8 1129.0,1015.7 1096.0,988.4 1061.2,957.8 1024.5,923.6 985.7,885.6 944.8,843.6 901.7,797.5 856.1,746.8 808.0,691.5  Z" style="stroke-width: 2.0;  stroke: rgb(82,82,82); fill: rgb(0,255,255); opacity: 0.667;" />
<path d="M 807.954,691.483 A 1064.250,1064.250 0.00 0,1 811.0,688.8 L 811.0,688.8 859.0,744.4 904.5,795.1 947.7,841.5 988.7,883.5 1027.7,921.6 1064.7,956.0 1099.8,986.8 1133.3,1014.2 1165.3,1038.4 1195.7,1059.6 1224.8,1077.9 1252.7,1093.4 1279.5,1106.3 1305.2,1116.6 1330.0,1124.4 1354.0,1129.9 1377.2,1132.9 1399.8,1133.6 1421.8,1132.0 1443.4,1128.1 1464.6,1121.8 1485.5,1113.2 1506.2,1102.1 1526.7,1088.6 1547.1,1072.5 1567.6,1053.8 1588.0,1032.3 1608.7,1008.0 1629.5,980.6 1650.5,950.0 1671.8,916.1 1693.5,878.6 1715.6,837.4 1738.1,792.2 1761.1,742.9 1784.6,689.0 1808.7,630.5 1833.4,566.9 1858.7,498.0  A 1064.250,1064.250 0.00 0,0 1854.9,496.7 L 1854.9,496.7 1829.8,565.6 1805.4,629.3 1781.5,687.9 1758.2,741.9 1735.4,791.3 1713.0,836.6 1691.1,877.9 1669.6,915.5 1648.4,949.5 1627.5,980.1 1606.8,1007.6 1586.3,1032.0 1565.8,1053.6 1545.5,1072.4 1525.1,1088.5 1504.6,1102.1 1484.0,1113.2 1463.2,1122.0 1442.0,1128.3 1420.4,1132.3 1398.4,1134.0 1375.8,1133.4 1352.5,1130.4 1328.6,1125.1 1303.7,1117.4 1278.0,1107.1 1251.2,1094.4 1223.2,1078.9 1194.0,1060.8 1163.5,1039.7 1131.5,1015.6 1097.9,988.3 1062.6,957.6 1025.5,923.4 986.4,885.5 945.2,843.6 901.8,797.4 856.1,746.8 808.0,691.5  Z" style="stroke-width: 2.0;  stroke: rgb(82,82,82); fill: rgb(204,255,255); opacity: 0.667;" />
<path d="M 807.954,691.483 A 1064.250,1064.250 0.00 0,1 811.0,688.8 L 811.0,688.8 858.0,745.7 900.6,800.2 939.2,852.5 974.0,902.9 1005.4,951.3 1033.6,997.9 1058.9,1042.8 1081.4,1086.2 1101.5,1128.1 1119.2,1168.8 1134.8,1208.2 1148.5,1246.7 1160.3,1284.2 1170.4,1320.9 1178.9,1356.9 1186.0,1392.4 1191.6,1427.5 1195.9,1462.4 1198.9,1497.1 1200.5,1531.7 1200.9,1566.6 1200.0,1601.7 1197.7,1637.1 1194.1,1673.2 1189.1,1709.9 1182.5,1747.4 1174.3,1785.8 1164.4,1825.4 1152.6,1866.2 1138.9,1908.3 1122.9,1952.0 1104.7,1997.3 1083.8,2044.5 1060.2,2093.5 1033.6,2144.7 1003.7,2198.2 970.3,2254.0 933.1,2312.3 891.8,2373.4  A 1064.250,1064.250 0.00 0,0 895.2,2375.7 L 895.2,2375.7 936.3,2314.5 973.2,2256.0 1006.4,2200.0 1036.1,2146.5 1062.5,2095.2 1085.9,2046.0 1106.6,1998.8 1124.7,1953.4 1140.4,1909.7 1154.0,1867.5 1165.6,1826.6 1175.4,1787.1 1183.4,1748.6 1189.9,1711.0 1194.8,1674.3 1198.3,1638.3 1200.4,1602.8 1201.2,1567.7 1200.7,1532.9 1198.9,1498.2 1195.8,1463.5 1191.4,1428.7 1185.6,1393.6 1178.4,1358.1 1169.7,1322.1 1159.5,1285.5 1147.5,1248.0 1133.7,1209.6 1117.9,1170.2 1100.0,1129.6 1079.8,1087.8 1057.1,1044.5 1031.7,999.7 1003.3,953.2 971.8,904.9 936.7,854.7 898.0,802.5 855.1,748.1 808.0,691.5  Z" style="stroke-width: 2.0;  stroke: rgb(82,82,82); fill: rgb(153,0,204); opacity: 0.667;" />
<path d="M 807.954,691.483 A 1064.250,1064.250 0.00 0,1 811.0,688.8 L 811.0,688.8 858.1,745.1 901.0,797.9 939.9,847.4 975.0,893.9 1006.6,937.5 1034.8,978.4 1059.8,1016.8 1081.7,1052.7 1100.7,1086.4 1117.0,1117.9 1130.6,1147.4 1141.6,1175.1 1150.1,1201.0 1156.2,1225.2 1159.9,1247.9 1161.3,1269.2 1160.5,1289.1 1157.3,1307.8 1151.9,1325.2 1144.2,1341.5 1134.1,1356.8 1121.7,1371.0 1106.9,1384.3 1089.5,1396.7 1069.6,1408.2 1046.9,1418.8 1021.5,1428.7 993.1,1437.7 961.7,1445.9 927.0,1453.3 888.9,1459.9 847.2,1465.7 801.7,1470.7 752.2,1474.8 698.5,1478.0 640.2,1480.3 577.2,1481.6 509.2,1481.9 435.9,1481.1  A 1064.250,1064.250 0.00 0,0 435.9,1485.2 L 435.9,1485.2 509.2,1485.7 577.2,1485.1 640.2,1483.6 698.4,1481.1 752.1,1477.6 801.6,1473.3 847.1,1468.2 888.8,1462.2 926.8,1455.5 961.5,1447.9 992.9,1439.6 1021.2,1430.5 1046.6,1420.6 1069.2,1409.8 1089.1,1398.2 1106.4,1385.8 1121.2,1372.5 1133.6,1358.2 1143.6,1342.9 1151.2,1326.5 1156.6,1309.1 1159.7,1290.4 1160.5,1270.5 1159.0,1249.2 1155.1,1226.5 1148.9,1202.3 1140.3,1176.4 1129.2,1148.8 1115.5,1119.3 1099.2,1087.9 1080.0,1054.3 1057.9,1018.5 1032.8,980.2 1004.4,939.4 972.7,895.9 937.4,849.6 898.3,800.1 855.2,747.5 808.0,691.5  Z" style="stroke-width: 2.0;  stroke: rgb(82,82,82); fill: rgb(204,51,255); opacity: 0.667;" />
<path d="M 1854.887,496.664 A 1064.250,1064.250 0.00 0,1 1858.7,498.0 L 1858.7,498.0 1834.0,566.9 1811.1,630.6 1789.9,689.2 1770.3,743.1 1752.2,792.5 1735.6,837.5 1720.4,878.5 1706.5,915.6 1693.9,948.9 1682.5,978.6 1672.3,1004.9 1663.1,1028.0 1655.0,1047.8 1648.0,1064.5 1641.9,1078.3 1636.8,1089.1 1632.6,1097.1 1629.4,1102.2 1627.0,1104.5 1625.6,1104.0 1625.0,1100.8 1625.3,1094.7 1626.6,1085.8 1628.7,1074.1 1631.7,1059.3 1635.6,1041.6 1640.5,1020.7 1646.4,996.7 1653.3,969.3 1661.2,938.4 1670.3,904.0 1680.4,865.7 1691.8,823.5 1704.4,777.2 1718.2,726.5 1733.5,671.2 1750.2,611.1 1768.4,546.0 1788.2,475.5  A 1064.250,1064.250 0.00 0,0 1784.2,474.4 L 1784.2,474.4 1764.7,545.0 1746.8,610.2 1730.3,670.3 1715.3,725.7 1701.6,776.4 1689.2,822.8 1678.0,865.1 1668.0,903.3 1659.1,937.8 1651.3,968.7 1644.5,996.1 1638.7,1020.2 1633.9,1041.1 1630.0,1058.8 1627.0,1073.6 1625.0,1085.3 1623.8,1094.2 1623.5,1100.3 1624.1,1103.6 1625.5,1104.0 1627.9,1101.7 1631.1,1096.5 1635.2,1088.6 1640.3,1077.7 1646.3,1064.0 1653.3,1047.2 1661.3,1027.3 1670.4,1004.3 1680.5,977.9 1691.8,948.1 1704.3,914.8 1718.0,877.7 1733.1,836.6 1749.5,791.5 1767.4,742.1 1786.8,688.1 1807.8,629.4 1830.4,565.7 1854.9,496.7  Z" style="stroke-width: 2.0;  stroke: rgb(82,82,82); fill: rgb(107,174,214); opacity: 0.667;" />
<path d="M 807.954,691.483 A 1064.250,1064.250 0.00 0,1 811.0,688.8 L 811.0,688.8 858.4,744.6 902.2,796.2 942.5,843.8 979.6,887.5 1013.6,927.6 1044.7,964.2 1072.9,997.5 1098.4,1027.7 1121.4,1054.9 1142.0,1079.2 1160.1,1100.8 1176.1,1119.7 1189.8,1136.1 1201.4,1150.0 1211.0,1161.5 1218.6,1170.6 1224.2,1177.5 1227.8,1182.1 1229.6,1184.4 1229.4,1184.5 1227.4,1182.5 1223.4,1178.1 1217.5,1171.5 1209.6,1162.7 1199.7,1151.4 1187.8,1137.8 1173.7,1121.8 1157.4,1103.1 1138.9,1081.9 1118.0,1057.9 1094.6,1031.0 1068.7,1001.1 1040.1,968.1 1008.6,931.9 974.2,892.1 936.6,848.8 895.8,801.7 851.6,750.5 803.7,695.2  A 1064.250,1064.250 0.00 0,0 800.6,697.8 L 800.6,697.8 848.7,753.0 893.2,804.0 934.2,851.0 971.9,894.2 1006.4,933.7 1038.0,969.9 1066.8,1002.8 1092.8,1032.5 1116.3,1059.3 1137.3,1083.2 1155.9,1104.4 1172.3,1123.0 1186.4,1139.0 1198.4,1152.6 1208.3,1163.8 1216.2,1172.6 1222.2,1179.2 1226.2,1183.5 1228.2,1185.6 1228.4,1185.5 1226.6,1183.1 1222.9,1178.5 1217.3,1171.7 1209.7,1162.6 1200.1,1151.1 1188.4,1137.3 1174.6,1121.0 1158.6,1102.1 1140.4,1080.6 1119.7,1056.4 1096.6,1029.3 1071.0,999.2 1042.6,965.9 1011.4,929.4 977.3,889.5 940.0,845.9 899.5,798.5 855.5,747.1 808.0,691.5  Z" style="stroke-width: 2.0;  stroke: rgb(82,82,82); fill: rgb(204,153,255); opacity: 0.667;" />
<path d="M 1199.921,478.932 A 1064.250,1064.250 0.00 0,1 1203.8,477.8 L 1203.8,477.8 1224.4,548.1 1243.7,612.9 1261.9,672.6 1279.0,727.5 1295.1,777.7 1310.2,823.5 1324.4,865.0 1337.7,902.6 1350.2,936.4 1361.9,966.4 1372.9,993.0 1383.3,1016.2 1393.0,1036.1 1402.1,1052.8 1410.6,1066.5 1418.6,1077.2 1426.1,1085.0 1433.1,1089.8 1439.7,1091.8 1445.9,1091.0 1451.7,1087.2 1457.1,1080.6 1462.2,1071.1 1467.0,1058.6 1471.4,1043.1 1475.5,1024.5 1479.4,1002.7 1482.9,977.6 1486.2,949.0 1489.3,916.9 1492.0,881.0 1494.5,841.2 1496.7,797.3 1498.7,749.2 1500.4,696.5 1501.8,639.1 1502.8,576.6 1503.6,509.0 1504.1,435.8  A 1064.250,1064.250 0.00 0,0 1500.0,435.8 L 1500.0,435.8 1499.8,509.0 1499.3,576.6 1498.5,639.1 1497.3,696.5 1495.8,749.2 1494.1,797.4 1492.0,841.3 1489.7,881.0 1487.0,916.9 1484.1,949.1 1481.0,977.7 1477.5,1002.8 1473.7,1024.6 1469.6,1043.3 1465.3,1058.8 1460.6,1071.3 1455.5,1080.8 1450.1,1087.4 1444.3,1091.2 1438.1,1092.1 1431.5,1090.1 1424.5,1085.3 1417.0,1077.5 1408.9,1066.9 1400.3,1053.2 1391.2,1036.5 1381.4,1016.6 1371.0,993.5 1359.9,967.0 1348.0,936.9 1335.4,903.2 1321.9,865.7 1307.6,824.2 1292.3,778.5 1276.1,728.3 1258.7,673.6 1240.3,613.9 1220.7,549.1 1199.9,478.9  Z" style="stroke-width: 2.0;  stroke: rgb(82,82,82); fill: rgb(102,102,102); opacity: 0.667;" />
<path d="M 1199.921,478.932 A 1064.250,1064.250 0.00 0,1 1203.8,477.8 L 1203.8,477.8 1224.5,548.1 1244.4,612.9 1263.4,672.6 1281.6,727.4 1299.0,777.5 1315.8,823.3 1332.0,864.9 1347.5,902.5 1362.5,936.3 1377.0,966.5 1391.0,993.2 1404.6,1016.6 1417.8,1036.8 1430.8,1053.9 1443.5,1068.0 1455.9,1079.2 1468.2,1087.5 1480.3,1093.0 1492.4,1095.8 1504.4,1095.7 1516.5,1092.9 1528.6,1087.3 1540.8,1078.9 1553.2,1067.6 1565.7,1053.4 1578.5,1036.2 1591.6,1015.9 1605.0,992.4 1618.9,965.6 1633.1,935.3 1647.8,901.3 1663.1,863.6 1678.9,821.9 1695.3,776.0 1712.4,725.7 1730.1,670.7 1748.7,610.9 1768.0,545.9 1788.2,475.5  A 1064.250,1064.250 0.00 0,0 1784.2,474.4 L 1784.2,474.4 1764.3,544.9 1745.3,610.0 1727.0,669.9 1709.4,724.9 1692.5,775.3 1676.3,821.2 1660.6,863.0 1645.5,900.8 1630.9,934.8 1616.8,965.1 1603.1,992.0 1589.8,1015.6 1576.7,1035.9 1564.0,1053.2 1551.5,1067.4 1539.2,1078.7 1527.0,1087.2 1514.9,1092.8 1502.9,1095.7 1490.9,1095.8 1478.8,1093.1 1466.6,1087.7 1454.3,1079.4 1441.8,1068.3 1429.1,1054.2 1416.1,1037.2 1402.7,1017.0 1389.0,993.7 1374.9,967.0 1360.3,936.9 1345.2,903.1 1329.5,865.6 1313.2,824.0 1296.3,778.3 1278.6,728.2 1260.2,673.5 1241.0,613.9 1220.9,549.1 1199.9,478.9  Z" style="stroke-width: 2.0;  stroke: rgb(82,82,82); fill: rgb(153,153,153); opacity: 0.667;" />
<path d="M 1199.921,478.932 A 1064.250,1064.250 0.00 0,1 1203.8,477.8 L 1203.8,477.8 1224.6,548.1 1244.5,612.9 1263.7,672.6 1282.2,727.4 1300.1,777.6 1317.3,823.4 1333.9,865.1 1350.0,902.8 1365.6,936.7 1380.8,967.0 1395.6,993.9 1410.0,1017.4 1424.2,1037.8 1438.1,1055.2 1451.8,1069.5 1465.3,1081.0 1478.8,1089.7 1492.2,1095.6 1505.6,1098.7 1519.1,1099.1 1532.7,1096.8 1546.5,1091.8 1560.5,1084.0 1574.7,1073.3 1589.3,1059.8 1604.2,1043.4 1619.6,1023.9 1635.5,1001.3 1651.9,975.4 1668.9,946.1 1686.6,913.2 1705.0,876.5 1724.2,836.0 1744.1,791.3 1765.0,742.3 1786.9,688.8 1809.7,630.4 1833.7,566.9 1858.7,498.0  A 1064.250,1064.250 0.00 0,0 1854.9,496.7 L 1854.9,496.7 1830.1,565.6 1806.4,629.2 1783.8,687.7 1762.1,741.3 1741.4,790.4 1721.6,835.2 1702.6,875.8 1684.4,912.5 1666.8,945.4 1649.9,974.8 1633.6,1000.8 1617.8,1023.5 1602.5,1043.0 1587.6,1059.5 1573.1,1073.1 1558.9,1083.7 1544.9,1091.6 1531.2,1096.7 1517.6,1099.1 1504.1,1098.7 1490.7,1095.6 1477.2,1089.8 1463.7,1081.2 1450.1,1069.7 1436.4,1055.4 1422.4,1038.1 1408.2,1017.8 1393.6,994.3 1378.7,967.5 1363.5,937.2 1347.7,903.3 1331.5,865.7 1314.7,824.1 1297.3,778.4 1279.3,728.3 1260.6,673.5 1241.2,613.9 1220.9,549.1 1199.9,478.9  Z" style="stroke-width: 2.0;  stroke: rgb(82,82,82); fill: rgb(204,204,204); opacity: 0.667;" />
<path d="M 1199.921,478.932 A 1064.250,1064.250 0.00 0,1 1203.8,477.8 L 1203.8,477.8 1223.3,549.1 1239.7,617.0 1253.3,681.8 1264.3,743.5 1273.0,802.5 1279.7,858.9 1284.6,912.9 1287.9,964.7 1289.7,1014.5 1290.3,1062.5 1289.8,1108.8 1288.4,1153.6 1286.0,1197.1 1283.0,1239.5 1279.3,1280.9 1274.9,1321.5 1270.1,1361.5 1264.7,1401.1 1258.8,1440.3 1252.4,1479.3 1245.4,1518.3 1237.8,1557.5 1229.6,1596.9 1220.7,1636.8 1210.9,1677.2 1200.3,1718.3 1188.5,1760.3 1175.5,1803.2 1161.2,1847.2 1145.2,1892.5 1127.5,1939.0 1107.8,1987.1 1085.9,2036.7 1061.5,2087.9 1034.3,2141.0 1004.1,2196.0 970.5,2253.0 933.2,2312.1 891.8,2373.4  A 1064.250,1064.250 0.00 0,0 895.2,2375.7 L 895.2,2375.7 936.3,2314.2 973.3,2255.0 1006.7,2197.9 1036.8,2142.8 1063.7,2089.6 1088.0,2038.2 1109.7,1988.6 1129.2,1940.5 1146.7,1893.8 1162.5,1848.5 1176.7,1804.5 1189.5,1761.5 1201.1,1719.5 1211.6,1678.3 1221.2,1637.8 1230.0,1597.9 1238.1,1558.5 1245.5,1519.3 1252.3,1480.2 1258.6,1441.2 1264.3,1402.0 1269.6,1362.4 1274.3,1322.4 1278.4,1281.8 1282.0,1240.3 1284.9,1197.9 1287.0,1154.4 1288.3,1109.6 1288.7,1063.3 1287.9,1015.3 1285.8,965.6 1282.4,913.8 1277.3,859.8 1270.4,803.4 1261.4,744.5 1250.2,682.7 1236.4,618.0 1219.7,550.2 1199.9,478.9  Z" style="stroke-width: 2.0;  stroke: rgb(82,82,82); fill: rgb(204,204,153); opacity: 0.667;" />
<path d="M 1199.921,478.932 A 1064.250,1064.250 0.00 0,1 1203.8,477.8 L 1203.8,477.8 1223.6,548.5 1240.5,614.8 1254.9,676.9 1266.9,735.1 1276.6,789.5 1284.1,840.5 1289.6,888.2 1293.2,932.8 1295.0,974.6 1295.0,1013.7 1293.3,1050.4 1290.0,1084.7 1285.2,1116.8 1278.8,1147.0 1270.8,1175.2 1261.3,1201.8 1250.3,1226.7 1237.8,1250.1 1223.6,1272.1 1207.8,1292.7 1190.3,1312.2 1171.0,1330.4 1149.8,1347.5 1126.7,1363.6 1101.4,1378.7 1074.0,1392.7 1044.3,1405.8 1012.0,1417.9 977.1,1429.1 939.3,1439.3 898.5,1448.5 854.5,1456.7 807.0,1463.9 755.8,1469.9 700.8,1474.8 641.5,1478.4 577.8,1480.8 509.4,1481.7 435.9,1481.1  A 1064.250,1064.250 0.00 0,0 435.9,1485.2 L 435.9,1485.2 509.3,1485.5 577.7,1484.3 641.4,1481.7 700.7,1477.8 755.7,1472.8 806.9,1466.5 854.3,1459.2 898.3,1450.8 939.1,1441.5 976.8,1431.1 1011.7,1419.8 1043.9,1407.6 1073.6,1394.4 1101.0,1380.2 1126.1,1365.0 1149.2,1348.9 1170.3,1331.7 1189.5,1313.3 1207.0,1293.8 1222.7,1273.1 1236.8,1251.1 1249.3,1227.6 1260.2,1202.7 1269.6,1176.1 1277.4,1147.8 1283.7,1117.7 1288.4,1085.5 1291.6,1051.2 1293.1,1014.5 1293.0,975.4 1291.0,933.6 1287.3,889.0 1281.6,841.3 1273.9,790.4 1264.0,736.0 1251.8,677.9 1237.2,615.8 1219.9,549.6 1199.9,478.9  Z" style="stroke-width: 2.0;  stroke: rgb(82,82,82); fill: rgb(251,106,74); opacity: 0.667;" />
<path d="M 1199.921,478.932 A 1064.250,1064.250 0.00 0,1 1203.8,477.8 L 1203.8,477.8 1223.9,548.2 1242.0,613.5 1258.2,673.9 1272.5,729.6 1285.1,781.0 1296.1,828.2 1305.4,871.5 1313.2,911.0 1319.5,946.9 1324.4,979.3 1328.0,1008.6 1330.1,1034.6 1331.0,1057.7 1330.5,1077.9 1328.8,1095.3 1325.8,1110.0 1321.5,1122.1 1315.9,1131.6 1309.0,1138.6 1300.8,1143.1 1291.1,1145.1 1280.1,1144.6 1267.7,1141.6 1253.7,1136.1 1238.1,1128.1 1221.0,1117.5 1202.1,1104.2 1181.4,1088.2 1158.8,1069.3 1134.2,1047.6 1107.5,1022.7 1078.6,994.7 1047.4,963.3 1013.8,928.4 977.5,889.9 938.6,847.5 896.7,801.1 851.8,750.4 803.7,695.2  A 1064.250,1064.250 0.00 0,0 800.6,697.8 L 800.6,697.8 848.9,752.9 894.0,803.4 936.1,849.7 975.2,891.9 1011.6,930.3 1045.4,965.0 1076.7,996.3 1105.7,1024.2 1132.5,1048.9 1157.1,1070.6 1179.8,1089.4 1200.5,1105.4 1219.5,1118.6 1236.7,1129.1 1252.3,1137.1 1266.3,1142.5 1278.8,1145.4 1289.8,1145.9 1299.4,1143.8 1307.6,1139.3 1314.5,1132.3 1320.1,1122.8 1324.3,1110.7 1327.3,1096.0 1328.9,1078.6 1329.3,1058.4 1328.4,1035.3 1326.1,1009.2 1322.4,980.0 1317.4,947.6 1311.0,911.7 1303.0,872.2 1293.5,829.0 1282.4,781.9 1269.6,730.5 1255.1,674.8 1238.7,614.5 1220.3,549.3 1199.9,478.9  Z" style="stroke-width: 2.0;  stroke: rgb(82,82,82); fill: rgb(116,196,118); opacity: 0.667;" />
<path d="M 1199.921,478.932 A 1064.250,1064.250 0.00 0,1 1203.8,477.8 L 1203.8,477.8 1223.9,548.2 1242.1,613.5 1258.3,673.9 1272.6,729.6 1285.3,781.0 1296.2,828.1 1305.6,871.4 1313.5,910.8 1319.9,946.6 1324.9,979.1 1328.5,1008.2 1330.7,1034.2 1331.7,1057.2 1331.3,1077.4 1329.7,1094.7 1326.8,1109.3 1322.7,1121.3 1317.2,1130.7 1310.4,1137.5 1302.3,1141.9 1292.9,1143.7 1282.1,1143.1 1269.8,1140.0 1256.0,1134.3 1240.6,1126.1 1223.7,1115.3 1205.0,1101.8 1184.6,1085.5 1162.3,1066.4 1138.0,1044.4 1111.6,1019.3 1083.1,990.9 1052.2,959.3 1018.9,924.1 983.1,885.2 944.5,842.4 903.1,795.6 858.7,744.5 811.0,688.8  A 1064.250,1064.250 0.00 0,0 808.0,691.5 L 808.0,691.5 855.8,746.9 900.4,797.9 942.0,844.6 980.7,887.2 1016.7,925.9 1050.1,961.0 1081.1,992.5 1109.8,1020.8 1136.2,1045.8 1160.6,1067.7 1183.0,1086.7 1203.5,1102.9 1222.2,1116.3 1239.2,1127.1 1254.6,1135.2 1268.4,1140.8 1280.7,1143.9 1291.5,1144.5 1301.0,1142.6 1309.0,1138.2 1315.8,1131.4 1321.2,1121.9 1325.3,1110.0 1328.2,1095.3 1329.7,1078.0 1330.0,1057.9 1329.0,1034.9 1326.6,1008.9 1322.9,979.7 1317.8,947.3 1311.2,911.5 1303.2,872.1 1293.7,828.9 1282.5,781.8 1269.7,730.5 1255.1,674.8 1238.7,614.5 1220.3,549.3 1199.9,478.9  Z" style="stroke-width: 2.0;  stroke: rgb(82,82,82); fill: rgb(107,174,214); opacity: 0.667;" />
<path d="M 1339.275,447.956 A 1064.250,1064.250 0.00 0,1 1343.3,447.4 L 1343.3,447.4 1354.2,519.7 1364.4,586.6 1374.0,648.2 1383.1,704.9 1391.6,756.8 1399.6,804.2 1407.1,847.3 1414.2,886.3 1420.9,921.4 1427.1,952.7 1432.9,980.5 1438.4,1004.8 1443.6,1025.8 1448.4,1043.5 1453.0,1058.1 1457.2,1069.6 1461.2,1078.2 1465.0,1083.8 1468.5,1086.5 1471.8,1086.2 1474.9,1083.1 1477.9,1077.0 1480.6,1068.0 1483.2,1055.9 1485.6,1040.8 1487.8,1022.6 1489.9,1001.1 1491.8,976.2 1493.7,947.9 1495.3,916.0 1496.9,880.3 1498.3,840.7 1499.5,797.0 1500.7,748.9 1501.6,696.3 1502.5,639.0 1503.2,576.6 1503.7,509.0 1504.1,435.8  A 1064.250,1064.250 0.00 0,0 1500.0,435.8 L 1500.0,435.8 1499.9,509.0 1499.7,576.6 1499.2,639.0 1498.6,696.3 1497.8,748.9 1496.8,797.0 1495.7,840.7 1494.5,880.4 1493.1,916.0 1491.5,948.0 1489.8,976.3 1488.0,1001.1 1486.0,1022.6 1483.8,1040.9 1481.5,1056.0 1478.9,1068.0 1476.2,1077.1 1473.3,1083.2 1470.3,1086.3 1466.9,1086.6 1463.4,1083.9 1459.6,1078.3 1455.6,1069.8 1451.3,1058.3 1446.7,1043.7 1441.8,1026.0 1436.5,1005.0 1431.0,980.7 1425.0,953.0 1418.6,921.7 1411.9,886.6 1404.7,847.6 1397.0,804.6 1388.8,757.2 1380.1,705.3 1370.8,648.7 1360.9,587.1 1350.4,520.3 1339.3,448.0  Z" style="stroke-width: 2.0;  stroke: rgb(82,82,82); fill: rgb(253,141,60); opacity: 0.667;" />
<path d="M 1339.275,447.956 A 1064.250,1064.250 0.00 0,1 1343.3,447.4 L 1343.3,447.4 1354.3,519.7 1365.1,586.6 1375.5,648.3 1385.7,704.9 1395.6,756.9 1405.3,804.3 1414.7,847.5 1424.0,886.7 1433.2,921.9 1442.1,953.5 1451.0,981.5 1459.8,1006.1 1468.5,1027.4 1477.2,1045.5 1485.9,1060.6 1494.6,1072.7 1503.4,1081.8 1512.3,1088.1 1521.3,1091.5 1530.4,1092.1 1539.8,1089.8 1549.4,1084.7 1559.2,1076.8 1569.4,1065.9 1579.9,1052.0 1590.8,1035.1 1602.2,1015.1 1614.0,991.8 1626.3,965.1 1639.2,935.0 1652.7,901.1 1666.8,863.5 1681.7,821.8 1697.3,776.0 1713.6,725.7 1730.9,670.7 1749.0,610.9 1768.1,545.9 1788.2,475.5  A 1064.250,1064.250 0.00 0,0 1784.2,474.4 L 1784.2,474.4 1764.4,544.9 1745.6,610.0 1727.7,669.9 1710.7,724.9 1694.5,775.2 1679.1,821.1 1664.4,862.9 1650.4,900.6 1637.0,934.4 1624.3,964.6 1612.0,991.3 1600.3,1014.7 1589.0,1034.8 1578.2,1051.7 1567.7,1065.6 1557.6,1076.5 1547.8,1084.5 1538.2,1089.7 1528.9,1091.9 1519.7,1091.4 1510.7,1088.0 1501.8,1081.8 1493.0,1072.7 1484.2,1060.6 1475.5,1045.6 1466.7,1027.5 1457.9,1006.2 1449.0,981.7 1440.0,953.7 1430.9,922.2 1421.7,887.0 1412.3,847.9 1402.6,804.7 1392.8,757.3 1382.6,705.4 1372.3,648.7 1361.6,587.1 1350.6,520.3 1339.3,448.0  Z" style="stroke-width: 2.0;  stroke: rgb(82,82,82); fill: rgb(255,0,0); opacity: 0.667;" />
<path d="M 895.173,2375.678 A 1064.250,1064.250 0.00 0,1 891.8,2373.4 L 891.8,2373.4 933.2,2311.9 970.7,2252.3 1004.6,2194.6 1035.2,2138.7 1063.0,2084.5 1088.3,2031.9 1111.3,1980.9 1132.3,1931.5 1151.6,1883.4 1169.4,1836.6 1185.9,1791.1 1201.4,1746.7 1216.1,1703.3 1230.1,1660.8 1243.6,1619.0 1256.7,1577.9 1269.6,1537.3 1282.2,1497.1 1294.9,1457.1 1307.5,1417.2 1320.1,1377.2 1332.8,1337.0 1345.7,1296.4 1358.5,1255.3 1371.5,1213.3 1384.5,1170.5 1397.4,1126.5 1410.2,1081.3 1422.8,1034.5 1435.1,986.0 1447.0,935.6 1458.2,883.0 1468.7,828.1 1478.2,770.6 1486.6,710.2 1493.6,646.8 1499.1,580.1 1502.6,509.8 1504.1,435.8  A 1064.250,1064.250 0.00 0,0 1500.0,435.8 L 1500.0,435.8 1498.9,509.8 1495.6,580.1 1490.4,646.9 1483.6,710.3 1475.4,770.7 1466.1,828.2 1455.8,883.2 1444.8,935.8 1433.2,986.2 1421.1,1034.8 1408.6,1081.6 1396.0,1126.9 1383.2,1170.9 1370.4,1213.8 1357.6,1255.8 1344.9,1297.0 1332.2,1337.7 1319.7,1377.9 1307.2,1418.0 1294.7,1457.9 1282.2,1497.9 1269.7,1538.2 1257.0,1578.8 1244.1,1620.0 1230.7,1661.8 1216.9,1704.4 1202.4,1747.8 1187.0,1792.3 1170.6,1837.9 1153.0,1884.7 1133.9,1932.9 1113.1,1982.4 1090.3,2033.5 1065.3,2086.1 1037.7,2140.5 1007.2,2196.5 973.5,2254.3 936.3,2314.1 895.2,2375.7  Z" style="stroke-width: 2.0;  stroke: rgb(82,82,82); fill: rgb(253,141,60); opacity: 0.667;" />
<path d="M 1339.275,447.956 A 1064.250,1064.250 0.00 0,1 1343.3,447.4 L 1343.3,447.4 1354.4,519.7 1365.2,586.6 1375.9,648.3 1386.3,705.0 1396.6,757.0 1406.7,804.5 1416.7,847.8 1426.5,887.0 1436.3,922.4 1445.9,954.1 1455.6,982.3 1465.2,1007.1 1474.8,1028.6 1484.5,1047.0 1494.2,1062.3 1504.0,1074.7 1514.0,1084.2 1524.1,1090.9 1534.5,1094.7 1545.1,1095.7 1556.0,1094.0 1567.3,1089.5 1578.9,1082.1 1590.9,1071.9 1603.5,1058.7 1616.5,1042.5 1630.2,1023.3 1644.4,1000.8 1659.3,975.1 1675.0,945.9 1691.4,913.1 1708.7,876.5 1726.9,836.0 1746.1,791.4 1766.3,742.4 1787.6,688.8 1810.1,630.4 1833.7,566.9 1858.7,498.0  A 1064.250,1064.250 0.00 0,0 1854.9,496.7 L 1854.9,496.7 1830.2,565.6 1806.7,629.2 1784.5,687.7 1763.4,741.4 1743.4,790.4 1724.4,835.2 1706.4,875.7 1689.2,912.4 1672.9,945.2 1657.3,974.5 1642.5,1000.3 1628.3,1022.8 1614.8,1042.1 1601.8,1058.3 1589.3,1071.5 1577.3,1081.8 1565.7,1089.2 1554.5,1093.8 1543.6,1095.6 1532.9,1094.6 1522.6,1090.8 1512.4,1084.2 1502.4,1074.7 1492.5,1062.4 1482.7,1047.1 1473.0,1028.7 1463.3,1007.2 1453.6,982.4 1443.9,954.3 1434.1,922.7 1424.2,887.3 1414.2,848.1 1404.1,804.9 1393.8,757.4 1383.3,705.4 1372.6,648.8 1361.8,587.2 1350.6,520.3 1339.3,448.0  Z" style="stroke-width: 2.0;  stroke: rgb(82,82,82); fill: rgb(255,0,204); opacity: 0.667;" />
<path d="M 1339.275,447.956 A 1064.250,1064.250 0.00 0,1 1343.3,447.4 L 1343.3,447.4 1353.1,520.7 1360.2,590.5 1364.9,656.8 1367.5,720.0 1368.3,780.2 1367.4,837.7 1365.1,892.7 1361.7,945.4 1357.1,996.0 1351.7,1044.7 1345.6,1091.6 1338.8,1137.1 1331.5,1181.2 1323.9,1224.1 1315.8,1266.1 1307.5,1307.3 1299.0,1347.9 1290.2,1388.0 1281.1,1427.8 1271.8,1467.4 1262.2,1507.1 1252.3,1547.0 1241.9,1587.1 1231.1,1627.7 1219.6,1668.9 1207.4,1710.8 1194.3,1753.5 1180.2,1797.2 1164.8,1842.0 1148.0,1888.0 1129.6,1935.3 1109.3,1984.1 1086.9,2034.4 1062.2,2086.3 1034.7,2139.9 1004.3,2195.3 970.5,2252.7 933.2,2312.0 891.8,2373.4  A 1064.250,1064.250 0.00 0,0 895.2,2375.7 L 895.2,2375.7 936.3,2314.1 973.4,2254.7 1006.9,2197.2 1037.1,2141.7 1064.4,2087.9 1089.0,2035.9 1111.2,1985.6 1131.3,1936.8 1149.5,1889.4 1166.1,1843.3 1181.3,1798.4 1195.3,1754.7 1208.2,1711.9 1220.3,1669.9 1231.6,1628.7 1242.3,1588.1 1252.5,1547.9 1262.3,1508.0 1271.7,1468.3 1280.8,1428.6 1289.7,1388.8 1298.4,1348.6 1306.8,1308.0 1315.0,1266.8 1322.8,1224.8 1330.3,1181.8 1337.4,1137.7 1344.0,1092.2 1350.0,1045.2 1355.2,996.5 1359.5,945.9 1362.8,893.2 1364.9,838.2 1365.5,780.7 1364.6,720.5 1361.7,657.3 1356.7,591.0 1349.3,521.3 1339.3,448.0  Z" style="stroke-width: 2.0;  stroke: rgb(82,82,82); fill: rgb(255,204,204); opacity: 0.667;" />
<path d="M 1339.275,447.956 A 1064.250,1064.250 0.00 0,1 1343.3,447.4 L 1343.3,447.4 1353.3,520.2 1361.1,588.3 1366.8,652.1 1370.6,711.8 1372.5,767.6 1372.7,819.8 1371.4,868.6 1368.5,914.2 1364.1,956.9 1358.4,996.9 1351.4,1034.3 1343.1,1069.4 1333.5,1102.2 1322.7,1133.0 1310.6,1162.0 1297.3,1189.1 1282.7,1214.6 1266.8,1238.7 1249.5,1261.3 1230.8,1282.6 1210.6,1302.6 1188.9,1321.5 1165.4,1339.3 1140.2,1356.0 1113.1,1371.7 1084.0,1386.5 1052.7,1400.2 1019.0,1413.0 982.8,1424.9 943.9,1435.7 902.1,1445.6 857.2,1454.4 809.0,1462.0 757.2,1468.6 701.6,1473.9 642.0,1477.9 578.0,1480.5 509.4,1481.6 435.9,1481.1  A 1064.250,1064.250 0.00 0,0 435.9,1485.2 L 435.9,1485.2 509.4,1485.4 578.0,1484.0 641.9,1481.2 701.5,1476.9 757.1,1471.4 808.9,1464.7 857.0,1456.8 901.9,1447.8 943.6,1437.8 982.5,1426.8 1018.6,1414.9 1052.3,1402.0 1083.6,1388.1 1112.6,1373.2 1139.7,1357.4 1164.8,1340.6 1188.2,1322.7 1209.9,1303.7 1230.0,1283.6 1248.6,1262.2 1265.8,1239.6 1281.6,1215.5 1296.1,1189.9 1309.3,1162.7 1321.3,1133.7 1332.0,1102.9 1341.4,1070.0 1349.6,1034.9 1356.5,997.4 1362.1,957.4 1366.2,914.7 1369.0,869.1 1370.2,820.2 1369.7,768.1 1367.6,712.3 1363.6,652.6 1357.6,588.9 1349.6,520.7 1339.3,448.0  Z" style="stroke-width: 2.0;  stroke: rgb(82,82,82); fill: rgb(255,153,0); opacity: 0.667;" />
<path d="M 1339.275,447.956 A 1064.250,1064.250 0.00 0,1 1343.3,447.4 L 1343.3,447.4 1353.7,519.9 1362.7,587.1 1370.3,649.2 1376.5,706.7 1381.5,759.6 1385.3,808.2 1387.9,852.8 1389.4,893.5 1389.8,930.5 1389.1,964.0 1387.4,994.2 1384.7,1021.2 1381.0,1045.2 1376.2,1066.2 1370.5,1084.4 1363.7,1099.8 1355.9,1112.6 1347.0,1122.8 1337.0,1130.4 1325.9,1135.5 1313.6,1138.1 1300.1,1138.2 1285.3,1135.8 1269.2,1130.9 1251.6,1123.4 1232.6,1113.3 1212.0,1100.6 1189.7,1085.0 1165.7,1066.6 1139.8,1045.3 1112.0,1020.9 1082.1,993.2 1050.0,962.2 1015.6,927.6 978.7,889.4 939.2,847.2 897.0,800.9 851.8,750.3 803.7,695.2  A 1064.250,1064.250 0.00 0,0 800.6,697.8 L 800.6,697.8 849.0,752.8 894.3,803.3 936.7,849.4 976.4,891.4 1013.4,929.5 1048.0,963.9 1080.2,994.8 1110.2,1022.3 1138.1,1046.7 1164.1,1067.9 1188.1,1086.2 1210.5,1101.7 1231.1,1114.4 1250.2,1124.4 1267.8,1131.8 1283.9,1136.7 1298.7,1139.0 1312.2,1138.8 1324.5,1136.2 1335.6,1131.0 1345.5,1123.4 1354.4,1113.2 1362.2,1100.4 1368.9,1084.9 1374.6,1066.7 1379.2,1045.6 1382.9,1021.7 1385.5,994.7 1387.1,964.5 1387.6,930.9 1387.1,893.9 1385.4,853.2 1382.6,808.7 1378.7,760.0 1373.5,707.2 1367.0,649.8 1359.2,587.6 1350.0,520.4 1339.3,448.0  Z" style="stroke-width: 2.0;  stroke: rgb(82,82,82); fill: rgb(255,204,0); opacity: 0.667;" />
<path d="M 1339.275,447.956 A 1064.250,1064.250 0.00 0,1 1343.3,447.4 L 1343.3,447.4 1353.7,519.9 1362.7,587.1 1370.3,649.2 1376.6,706.6 1381.6,759.5 1385.5,808.1 1388.1,852.6 1389.7,893.3 1390.1,930.3 1389.6,963.8 1387.9,993.9 1385.3,1020.9 1381.7,1044.7 1377.0,1065.7 1371.4,1083.8 1364.7,1099.1 1357.0,1111.8 1348.3,1121.9 1338.4,1129.4 1327.5,1134.4 1315.4,1136.8 1302.0,1136.8 1287.4,1134.2 1271.5,1129.1 1254.1,1121.4 1235.3,1111.1 1215.0,1098.2 1193.0,1082.4 1169.2,1063.8 1143.6,1042.1 1116.1,1017.4 1086.5,989.5 1054.8,958.2 1020.7,923.3 984.2,884.7 945.2,842.1 903.4,795.5 858.7,744.5 811.0,688.8  A 1064.250,1064.250 0.00 0,0 808.0,691.5 L 808.0,691.5 855.8,746.9 900.7,797.8 942.7,844.3 981.9,886.6 1018.5,925.1 1052.7,959.9 1084.6,991.1 1114.3,1018.9 1141.9,1043.5 1167.5,1065.0 1191.4,1083.6 1213.4,1099.2 1233.8,1112.2 1252.7,1122.4 1270.1,1130.0 1286.0,1135.0 1300.6,1137.5 1314.0,1137.5 1326.1,1135.0 1337.0,1130.0 1346.8,1122.5 1355.6,1112.4 1363.2,1099.7 1369.8,1084.3 1375.4,1066.2 1379.9,1045.2 1383.5,1021.3 1386.0,994.3 1387.5,964.2 1388.0,930.7 1387.4,893.7 1385.7,853.1 1382.8,808.6 1378.8,760.0 1373.6,707.1 1367.1,649.7 1359.2,587.6 1350.0,520.4 1339.3,448.0  Z" style="stroke-width: 2.0;  stroke: rgb(82,82,82); fill: rgb(255,255,0); opacity: 0.667;" />
<path d="M 1339.275,447.956 A 1064.250,1064.250 0.00 0,1 1343.3,447.4 L 1343.3,447.4 1354.0,519.8 1363.7,586.7 1372.5,648.5 1380.4,705.3 1387.4,757.4 1393.7,805.0 1399.2,848.4 1403.9,887.8 1407.9,923.2 1411.3,955.0 1414.0,983.2 1416.0,1008.0 1417.4,1029.5 1418.2,1047.8 1418.3,1063.0 1417.9,1075.2 1416.9,1084.5 1415.2,1090.8 1413.0,1094.3 1410.1,1094.9 1406.6,1092.7 1402.4,1087.6 1397.6,1079.6 1392.1,1068.7 1386.0,1054.8 1379.0,1037.9 1371.3,1017.7 1362.9,994.3 1353.5,967.6 1343.3,937.3 1332.2,903.4 1320.1,865.7 1307.0,824.0 1292.9,778.0 1277.6,727.7 1261.1,672.8 1243.3,613.0 1224.3,548.1 1203.8,477.8  A 1064.250,1064.250 0.00 0,0 1199.9,478.9 L 1199.9,478.9 1220.6,549.1 1240.0,614.0 1257.9,673.7 1274.6,728.6 1290.1,778.8 1304.5,824.7 1317.7,866.4 1330.0,904.1 1341.2,937.9 1351.5,968.2 1360.9,994.9 1369.5,1018.2 1377.3,1038.3 1384.3,1055.3 1390.5,1069.1 1396.0,1080.0 1400.9,1088.0 1405.0,1093.1 1408.5,1095.3 1411.4,1094.6 1413.6,1091.2 1415.3,1084.8 1416.3,1075.5 1416.7,1063.3 1416.4,1048.1 1415.6,1029.8 1414.1,1008.3 1412.0,983.5 1409.2,955.3 1405.7,923.6 1401.6,888.1 1396.7,848.8 1391.0,805.5 1384.6,757.8 1377.4,705.7 1369.2,649.0 1360.2,587.2 1350.2,520.3 1339.3,448.0  Z" style="stroke-width: 2.0;  stroke: rgb(82,82,82); fill: rgb(204,255,0); opacity: 0.667;" />
<path d="M 895.173,2375.678 A 1064.250,1064.250 0.00 0,1 891.8,2373.4 L 891.8,2373.4 933.3,2311.7 970.9,2251.8 1005.2,2193.4 1036.4,2136.7 1064.9,2081.5 1091.1,2028.0 1115.3,1975.9 1137.7,1925.4 1158.6,1876.3 1178.4,1828.6 1197.2,1782.2 1215.3,1737.0 1232.8,1693.0 1250.1,1650.0 1267.2,1607.9 1284.4,1566.8 1301.7,1526.3 1319.3,1486.4 1337.2,1447.0 1355.7,1407.9 1374.7,1369.0 1394.3,1330.1 1414.6,1291.1 1435.5,1251.7 1457.1,1211.7 1479.3,1171.1 1502.1,1129.5 1525.5,1086.9 1549.4,1042.9 1573.7,997.3 1598.4,949.9 1623.2,900.5 1648.0,848.8 1672.7,794.6 1697.2,737.5 1721.2,677.4 1744.5,613.8 1766.9,546.7 1788.2,475.5  A 1064.250,1064.250 0.00 0,0 1784.2,474.4 L 1784.2,474.4 1763.3,545.6 1741.1,612.9 1718.0,676.5 1694.3,736.8 1670.0,793.9 1645.5,848.3 1620.9,900.1 1596.3,949.6 1571.8,997.0 1547.7,1042.7 1524.0,1086.8 1500.7,1129.5 1478.0,1171.2 1456.0,1211.9 1434.5,1251.9 1413.8,1291.4 1393.7,1330.5 1374.2,1369.5 1355.3,1408.5 1337.0,1447.7 1319.2,1487.1 1301.8,1527.1 1284.6,1567.6 1267.6,1608.8 1250.7,1650.9 1233.6,1694.0 1216.2,1738.1 1198.3,1783.3 1179.6,1829.8 1160.1,1877.6 1139.3,1926.8 1117.1,1977.4 1093.1,2029.5 1067.2,2083.2 1038.8,2138.4 1007.8,2195.3 973.8,2253.8 936.4,2313.9 895.2,2375.7  Z" style="stroke-width: 2.0;  stroke: rgb(82,82,82); fill: rgb(255,0,0); opacity: 0.667;" />
<path d="M 895.173,2375.678 A 1064.250,1064.250 0.00 0,1 891.8,2373.4 L 891.8,2373.4 933.3,2311.7 971.0,2251.6 1005.4,2193.1 1036.8,2136.2 1065.5,2080.8 1091.9,2027.0 1116.4,1974.8 1139.2,1924.0 1160.6,1874.7 1180.8,1826.8 1200.2,1780.3 1219.0,1735.0 1237.3,1690.9 1255.4,1648.0 1273.4,1606.0 1291.6,1565.0 1310.0,1524.7 1328.8,1485.2 1348.1,1446.1 1368.1,1407.5 1388.6,1369.2 1410.0,1330.9 1432.1,1292.5 1455.0,1253.9 1478.7,1214.9 1503.2,1175.3 1528.4,1134.8 1554.4,1093.2 1581.1,1050.4 1608.4,1006.2 1636.1,960.1 1664.3,912.1 1692.7,861.9 1721.1,809.2 1749.6,753.6 1777.7,695.1 1805.5,633.1 1832.5,567.6 1858.7,498.0  A 1064.250,1064.250 0.00 0,0 1854.9,496.7 L 1854.9,496.7 1829.0,566.3 1802.2,632.0 1774.7,694.0 1746.7,752.7 1718.5,808.3 1690.2,861.2 1662.0,911.5 1634.1,959.6 1606.5,1005.7 1579.4,1050.1 1552.9,1093.0 1527.0,1134.7 1501.9,1175.2 1477.6,1215.0 1454.0,1254.1 1431.3,1292.8 1409.3,1331.2 1388.1,1369.6 1367.7,1408.0 1347.9,1446.7 1328.8,1485.8 1310.1,1525.5 1291.8,1565.8 1273.8,1606.9 1256.0,1648.9 1238.0,1691.9 1219.9,1736.1 1201.3,1781.4 1182.1,1828.0 1162.0,1876.0 1140.8,1925.4 1118.2,1976.2 1093.9,2028.6 1067.7,2082.5 1039.2,2138.0 1008.0,2195.0 973.9,2253.6 936.4,2313.9 895.2,2375.7  Z" style="stroke-width: 2.0;  stroke: rgb(82,82,82); fill: rgb(255,0,204); opacity: 0.667;" />
<path d="M 435.853,1485.196 A 1064.250,1064.250 0.00 0,1 435.9,1481.1 L 435.9,1481.1 509.5,1481.6 578.3,1480.3 642.6,1477.4 702.7,1473.0 758.9,1467.2 811.4,1460.2 860.5,1452.0 906.4,1442.6 949.4,1432.2 989.6,1420.8 1027.3,1408.4 1062.6,1395.0 1095.8,1380.7 1126.9,1365.5 1156.2,1349.3 1183.8,1332.2 1209.9,1314.0 1234.5,1294.8 1257.7,1274.4 1279.7,1252.9 1300.5,1230.1 1320.3,1205.9 1339.0,1180.3 1356.8,1153.1 1373.6,1124.1 1389.5,1093.3 1404.5,1060.4 1418.6,1025.4 1431.8,988.0 1444.1,948.0 1455.4,905.3 1465.8,859.6 1475.1,810.7 1483.2,758.3 1490.2,702.3 1495.9,642.3 1500.2,578.1 1502.9,509.3 1504.1,435.8  A 1064.250,1064.250 0.00 0,0 1500.0,435.8 L 1500.0,435.8 1499.2,509.3 1496.6,578.1 1492.6,642.3 1487.1,702.3 1480.4,758.4 1472.4,810.8 1463.3,859.7 1453.2,905.5 1442.0,948.3 1429.9,988.3 1416.8,1025.7 1402.8,1060.8 1387.9,1093.7 1372.1,1124.6 1355.4,1153.6 1337.8,1180.9 1319.2,1206.6 1299.5,1230.9 1278.8,1253.7 1256.9,1275.4 1233.7,1295.8 1209.2,1315.1 1183.2,1333.4 1155.7,1350.6 1126.4,1366.9 1095.3,1382.3 1062.2,1396.7 1026.9,1410.2 989.3,1422.7 949.1,1434.3 906.2,1444.9 860.3,1454.4 811.2,1462.8 758.8,1470.1 702.6,1476.0 642.5,1480.6 578.2,1483.8 509.4,1485.3 435.9,1485.2  Z" style="stroke-width: 2.0;  stroke: rgb(82,82,82); fill: rgb(255,204,204); opacity: 0.667;" />
<path d="M 435.853,1485.196 A 1064.250,1064.250 0.00 0,1 435.9,1481.1 L 435.9,1481.1 509.6,1481.5 578.8,1479.9 643.7,1476.5 704.7,1471.6 762.1,1465.2 816.0,1457.5 866.7,1448.6 914.6,1438.5 959.7,1427.4 1002.4,1415.4 1042.8,1402.4 1081.1,1388.6 1117.6,1374.0 1152.4,1358.6 1185.6,1342.4 1217.5,1325.3 1248.2,1307.4 1277.9,1288.6 1306.5,1268.9 1334.4,1248.2 1361.5,1226.4 1388.0,1203.5 1414.0,1179.2 1439.5,1153.6 1464.6,1126.4 1489.4,1097.5 1513.9,1066.8 1538.2,1034.0 1562.2,999.1 1586.0,961.7 1609.6,921.6 1633.0,878.7 1656.1,832.7 1679.0,783.3 1701.7,730.2 1723.9,673.2 1745.8,612.0 1767.3,546.2 1788.2,475.5  A 1064.250,1064.250 0.00 0,0 1784.2,474.4 L 1784.2,474.4 1763.6,545.2 1742.4,611.0 1720.8,672.4 1698.7,729.5 1676.3,782.6 1653.6,832.1 1630.6,878.2 1607.4,921.2 1583.9,961.3 1560.3,998.8 1536.4,1033.9 1512.3,1066.7 1487.9,1097.6 1463.2,1126.5 1438.2,1153.8 1412.8,1179.6 1386.9,1203.9 1360.5,1227.0 1333.4,1248.9 1305.7,1269.7 1277.1,1289.5 1247.5,1308.4 1216.9,1326.4 1185.0,1343.6 1151.8,1359.9 1117.1,1375.5 1080.7,1390.2 1042.4,1404.2 1002.0,1417.3 959.4,1429.5 914.3,1440.7 866.5,1451.0 815.8,1460.1 761.9,1468.0 704.6,1474.6 643.7,1479.8 578.7,1483.4 509.6,1485.2 435.9,1485.2  Z" style="stroke-width: 2.0;  stroke: rgb(82,82,82); fill: rgb(255,153,0); opacity: 0.667;" />
<path d="M 435.853,1485.196 A 1064.250,1064.250 0.00 0,1 435.9,1481.1 L 435.9,1481.1 509.7,1481.4 578.9,1479.8 644.1,1476.3 705.3,1471.3 762.9,1464.8 817.2,1456.9 868.4,1447.9 916.7,1437.7 962.4,1426.5 1005.7,1414.4 1046.8,1401.4 1085.9,1387.6 1123.3,1373.0 1159.0,1357.7 1193.2,1341.6 1226.2,1324.8 1258.1,1307.1 1289.0,1288.7 1319.0,1269.4 1348.3,1249.1 1377.0,1227.9 1405.2,1205.5 1432.9,1181.9 1460.4,1157.0 1487.5,1130.7 1514.5,1102.7 1541.3,1073.0 1568.1,1041.3 1594.8,1007.4 1621.4,971.2 1648.0,932.4 1674.6,890.8 1701.2,846.1 1727.7,798.1 1754.2,746.5 1780.6,691.0 1806.9,631.3 1832.9,567.1 1858.7,498.0  A 1064.250,1064.250 0.00 0,0 1854.9,496.7 L 1854.9,496.7 1829.4,565.8 1803.5,630.2 1777.5,690.0 1751.4,745.6 1725.1,797.3 1698.7,845.3 1672.3,890.1 1645.8,931.8 1619.4,970.7 1592.9,1007.0 1566.3,1041.0 1539.7,1072.8 1513.0,1102.7 1486.1,1130.7 1459.0,1157.2 1431.7,1182.2 1404.0,1205.9 1375.9,1228.3 1347.3,1249.7 1318.1,1270.1 1288.2,1289.5 1257.4,1308.1 1225.6,1325.8 1192.6,1342.8 1158.4,1359.0 1122.8,1374.5 1085.5,1389.2 1046.5,1403.1 1005.4,1416.3 962.1,1428.6 916.5,1439.9 868.2,1450.3 817.1,1459.5 762.8,1467.6 705.2,1474.3 644.0,1479.6 578.9,1483.3 509.6,1485.2 435.9,1485.2  Z" style="stroke-width: 2.0;  stroke: rgb(82,82,82); fill: rgb(255,204,0); opacity: 0.667;" />
<path d="M 435.853,1485.196 A 1064.250,1064.250 0.00 0,1 435.9,1481.1 L 435.9,1481.1 509.2,1483.0 577.3,1485.9 640.4,1489.8 698.8,1494.6 752.7,1500.3 802.5,1506.9 848.3,1514.2 890.4,1522.3 929.0,1531.2 964.2,1540.9 996.3,1551.3 1025.4,1562.5 1051.6,1574.4 1075.2,1587.2 1096.1,1600.7 1114.6,1615.2 1130.8,1630.5 1144.6,1646.8 1156.1,1664.1 1165.5,1682.5 1172.8,1702.0 1177.9,1722.8 1180.9,1744.8 1181.7,1768.2 1180.5,1793.2 1177.0,1819.8 1171.3,1848.0 1163.3,1878.2 1152.9,1910.3 1140.1,1944.5 1124.7,1980.9 1106.7,2019.8 1085.8,2061.2 1061.9,2105.4 1034.9,2152.4 1004.6,2202.6 970.8,2256.0 933.3,2312.8 891.8,2373.4  A 1064.250,1064.250 0.00 0,0 895.2,2375.7 L 895.2,2375.7 936.4,2315.0 973.7,2258.0 1007.3,2204.4 1037.4,2154.2 1064.2,2107.0 1087.9,2062.8 1108.6,2021.3 1126.6,1982.3 1141.8,1945.8 1154.5,1911.6 1164.8,1879.4 1172.6,1849.3 1178.2,1821.0 1181.6,1794.4 1182.8,1769.5 1181.8,1746.0 1178.7,1724.0 1173.5,1703.3 1166.2,1683.8 1156.8,1665.4 1145.1,1648.2 1131.3,1631.9 1115.1,1616.7 1096.5,1602.3 1075.5,1588.8 1051.9,1576.1 1025.6,1564.3 996.5,1553.2 964.4,1542.9 929.1,1533.4 890.5,1524.7 848.4,1516.7 802.5,1509.5 752.7,1503.2 698.8,1497.7 640.4,1493.1 577.3,1489.5 509.2,1486.8 435.9,1485.2  Z" style="stroke-width: 2.0;  stroke: rgb(82,82,82); fill: rgb(255,255,0); opacity: 0.667;" />
</g>
<defs>
<pattern id="hline-sparse" width="10" height="10" patternTransform="rotate(0 0 0)" patternUnits="userSpaceOnUse"><line x1="0" y1="0" x2="10" y2="0" style="stroke:black;stroke-width:2" /></pattern>
<pattern id="checker" width="10" height="10" patternTransform="rotate(45 0 0)" patternUnits="userSpaceOnUse"><line x1="0" y1="0" x2="10" y2="0" style="stroke:black;stroke-width:2" /><line x1="0" y1="0" x2="0" y2="10" style="stroke:black;stroke-width:2" /></pattern>
<pattern id="checker" width="10" height="10" patternTransform="rotate(45 0 0)" patternUnits="userSpaceOnUse"><line x1="0" y1="0" x2="10" y2="0" style="stroke:black;stroke-width:5" /><line x1="0" y1="0" x2="0" y2="10" style="stroke:black;stroke-width:4" /></pattern>
<pattern id="hline" width="10" height="10" patternTransform="rotate(0 0 0)" patternUnits="userSpaceOnUse"><line x1="0" y1="0" x2="10" y2="0" style="stroke:black;stroke-width:5" /></pattern>
<pattern id="vline-sparse" width="10" height="10" patternTransform="rotate(0 0 0)" patternUnits="userSpaceOnUse"><line x1="0" y1="0" x2="0" y2="10" style="stroke:black;stroke-width:2" /></pattern>
<pattern id="vline" width="10" height="10" patternTransform="rotate(0 0 0)" patternUnits="userSpaceOnUse"><line x1="0" y1="0" x2="0" y2="10" style="stroke:black;stroke-width:5" /></pattern>
</defs>
</svg>
