<?xml version="1.0" encoding="utf-8" standalone="no"?>
<!DOCTYPE svg PUBLIC "-//W3C//DTD SVG 1.1//EN" "http://www.w3.org/Graphics/SVG/1.1/DTD/svg11.dtd">
<svg width="3000px" height="3000px" version="1.1" xmlns="http://www.w3.org/2000/svg" xmlns:xlink="http://www.w3.org/1999/xlink">
<g id="ideograms">
<path d="M1500.000,425.000 A1075.000,1075.000 40.000 0,1 1782.854,462.880 L1796.010,414.641 A1125.000,1125.000 0.000 0,0 1500.000,375.000 Z" style="stroke-linecap:round;fill:rgb(116,196,118);fill-opacity:0.33;" />
<text x="1670.7" y="297.0" font-size="18.2px" font-family="CMUBright-Roman" style="text-anchor:start;fill:rgb(0,0,0);" transform="rotate(277.6,1670.7,297.0)" >R<tspan baseline-shift="-40%" font-size="90%">s</tspan>caffold<tspan baseline-shift="-40%" font-size="90%">8</tspan></text>
<line x1='1500.0' y1='375.0' x2='1500.0' y2='355.0' style="stroke-width:4.0;stroke:rgb(0,0,0);stroke-linecap:round;fill:none;" />
<text x="1506.5" y="345.0" font-size="18.2px" font-family="CMUBright-Roman" style="text-anchor:start;fill:rgb(0,0,0);" transform="rotate(270.0,1506.5,345.0)" >0</text>
<line x1='1563.5' y1='376.8' x2='1564.7' y2='356.8' style="stroke-width:4.0;stroke:rgb(0,0,0);stroke-linecap:round;fill:none;" />
<text x="1571.7" y="347.2" font-size="18.2px" font-family="CMUBright-Roman" style="text-anchor:start;fill:rgb(0,0,0);" transform="rotate(273.2,1571.7,347.2)" >50</text>
<line x1='1626.9' y1='382.2' x2='1629.1' y2='362.3' style="stroke-width:4.0;stroke:rgb(0,0,0);stroke-linecap:round;fill:none;" />
<text x="1636.7" y="353.1" font-size="18.2px" font-family="CMUBright-Roman" style="text-anchor:start;fill:rgb(0,0,0);" transform="rotate(276.5,1636.7,353.1)" >100</text>
<line x1='1689.8' y1='391.1' x2='1693.2' y2='371.4' style="stroke-width:4.0;stroke:rgb(0,0,0);stroke-linecap:round;fill:none;" />
<text x="1701.3" y="362.7" font-size="18.2px" font-family="CMUBright-Roman" style="text-anchor:start;fill:rgb(0,0,0);" transform="rotate(279.7,1701.3,362.7)" >150</text>
<line x1='1752.1' y1='403.6' x2='1756.6' y2='384.1' style="stroke-width:4.0;stroke:rgb(0,0,0);stroke-linecap:round;fill:none;" />
<text x="1765.2" y="375.9" font-size="18.2px" font-family="CMUBright-Roman" style="text-anchor:start;fill:rgb(0,0,0);" transform="rotate(283.0,1765.2,375.9)" >200</text>
<g id="highlighttrack_0">
<path d="M1520.814,425.202 A1075.000,1075.000 40.000 0,1 1537.334,425.648 L1539.070,375.679 A1125.000,1125.000 0.000 0,0 1521.782,375.211 Z" style="stroke-width:4.0;stroke:rgb(0,0,0);stroke-linecap:round;fill:rgb(116,196,118);" />
</g>
<path d="M1844.371,481.652 A1075.000,1075.000 40.000 0,1 2048.428,575.418 L2073.937,532.414 A1125.000,1125.000 0.000 0,0 1860.389,434.287 Z" style="stroke-linecap:round;fill:rgb(116,196,118);fill-opacity:0.33;" />
<text x="2015.9" y="400.0" font-size="18.2px" font-family="CMUBright-Roman" style="text-anchor:start;fill:rgb(0,0,0);" transform="rotate(294.7,2015.9,400.0)" >R<tspan baseline-shift="-40%" font-size="90%">s</tspan>caffold<tspan baseline-shift="-40%" font-size="90%">1</tspan>0</text>
<line x1='1860.4' y1='434.3' x2='1866.8' y2='415.3' style="stroke-width:4.0;stroke:rgb(0,0,0);stroke-linecap:round;fill:none;" />
<text x="1876.2" y="408.0" font-size="18.2px" font-family="CMUBright-Roman" style="text-anchor:start;fill:rgb(0,0,0);" transform="rotate(288.7,1876.2,408.0)" >0</text>
<line x1='1920.0' y1='456.3' x2='1927.5' y2='437.8' style="stroke-width:4.0;stroke:rgb(0,0,0);stroke-linecap:round;fill:none;" />
<text x="1937.2" y="431.0" font-size="18.2px" font-family="CMUBright-Roman" style="text-anchor:start;fill:rgb(0,0,0);" transform="rotate(291.9,1937.2,431.0)" >50</text>
<line x1='1978.3' y1='481.7' x2='1986.8' y2='463.6' style="stroke-width:4.0;stroke:rgb(0,0,0);stroke-linecap:round;fill:none;" />
<text x="1996.9" y="457.4" font-size="18.2px" font-family="CMUBright-Roman" style="text-anchor:start;fill:rgb(0,0,0);" transform="rotate(295.2,1996.9,457.4)" >100</text>
<line x1='2035.0' y1='510.4' x2='2044.5' y2='492.8' style="stroke-width:4.0;stroke:rgb(0,0,0);stroke-linecap:round;fill:none;" />
<text x="2055.0" y="487.1" font-size="18.2px" font-family="CMUBright-Roman" style="text-anchor:start;fill:rgb(0,0,0);" transform="rotate(298.4,2055.0,487.1)" >150</text>
<g id="highlighttrack_0">
<path d="M2016.326,557.115 A1075.000,1075.000 40.000 0,1 2032.099,565.925 L2056.848,522.480 A1125.000,1125.000 0.000 0,0 2040.342,513.260 Z" style="stroke-width:4.0;stroke:rgb(0,0,0);stroke-linecap:round;fill:rgb(251,106,74);" />
</g>
<path d="M2102.741,609.871 A1075.000,1075.000 40.000 0,1 2132.790,630.976 L2162.222,590.556 A1125.000,1125.000 0.000 0,0 2130.775,568.470 Z" style="stroke-linecap:round;fill:rgb(116,196,118);fill-opacity:0.33;" />
<text x="2206.1" y="511.2" font-size="18.2px" font-family="CMUBright-Roman" style="text-anchor:start;fill:rgb(0,0,0);" transform="rotate(305.1,2206.1,511.2)" >R<tspan baseline-shift="-40%" font-size="90%">s</tspan>caffold<tspan baseline-shift="-40%" font-size="90%">1</tspan>9</text>
<line x1='2130.8' y1='568.5' x2='2142.0' y2='551.9' style="stroke-width:4.0;stroke:rgb(0,0,0);stroke-linecap:round;fill:none;" />
<text x="2153.0" y="547.3" font-size="18.2px" font-family="CMUBright-Roman" style="text-anchor:start;fill:rgb(0,0,0);" transform="rotate(304.1,2153.0,547.3)" >0</text>
<g id="highlighttrack_0">
<path d="M2108.588,613.859 A1075.000,1075.000 40.000 0,1 2121.903,623.153 L2150.829,582.369 A1125.000,1125.000 0.000 0,0 2136.894,572.643 Z" style="stroke-width:4.0;stroke:rgb(0,0,0);stroke-linecap:round;fill:rgb(116,196,118);" />
</g>
<path d="M2183.628,670.375 A1075.000,1075.000 40.000 0,1 2187.526,673.602 L2219.503,635.165 A1125.000,1125.000 0.000 0,0 2215.425,631.788 Z" style="stroke-linecap:round;fill:rgb(116,196,118);fill-opacity:0.33;" />
<text x="2282.2" y="570.2" font-size="18.2px" font-family="CMUBright-Roman" style="text-anchor:start;fill:rgb(0,0,0);" transform="rotate(309.6,2282.2,570.2)" >R<tspan baseline-shift="-40%" font-size="90%">s</tspan>caffold<tspan baseline-shift="-40%" font-size="90%">2</tspan>4</text>
<line x1='2215.4' y1='631.8' x2='2228.1' y2='616.4' style="stroke-width:4.0;stroke:rgb(0,0,0);stroke-linecap:round;fill:none;" />
<text x="2239.5" y="612.8" font-size="18.2px" font-family="CMUBright-Roman" style="text-anchor:start;fill:rgb(0,0,0);" transform="rotate(309.5,2239.5,612.8)" >0</text>
<g id="highlighttrack_0">
<path d="M2184.584,671.164 A1075.000,1075.000 40.000 0,1 2187.304,673.418 L2219.272,634.972 A1125.000,1125.000 0.000 0,0 2216.425,632.613 Z" style="stroke-width:4.0;stroke:rgb(0,0,0);stroke-linecap:round;fill:rgb(251,106,74);" />
</g>
<path d="M2235.717,716.198 A1075.000,1075.000 40.000 1,1 1435.711,426.924 L1432.720,377.014 A1125.000,1125.000 0.000 1,0 2269.936,679.742 Z" style="stroke-linecap:round;fill:rgb(116,196,118);fill-opacity:0.33;" />
<text x="1095.8" y="2645.8" font-size="18.2px" font-family="CMUBright-Roman" style="text-anchor:end;fill:rgb(0,0,0);" transform="rotate(-70.1,1095.8,2645.8)" >NZ<tspan baseline-shift="-40%" font-size="90%">C</tspan>P034015.1</text>
<line x1='2269.9' y1='679.7' x2='2283.6' y2='665.2' style="stroke-width:4.0;stroke:rgb(0,0,0);stroke-linecap:round;fill:none;" />
<text x="2295.2" y="662.3" font-size="18.2px" font-family="CMUBright-Roman" style="text-anchor:start;fill:rgb(0,0,0);" transform="rotate(313.2,2295.2,662.3)" >0</text>
<line x1='2315.0' y1='724.5' x2='2329.5' y2='710.7' style="stroke-width:4.0;stroke:rgb(0,0,0);stroke-linecap:round;fill:none;" />
<text x="2341.2" y="708.6" font-size="18.2px" font-family="CMUBright-Roman" style="text-anchor:start;fill:rgb(0,0,0);" transform="rotate(316.4,2341.2,708.6)" >50</text>
<line x1='2357.5' y1='771.8' x2='2372.8' y2='758.9' style="stroke-width:4.0;stroke:rgb(0,0,0);stroke-linecap:round;fill:none;" />
<text x="2384.6" y="757.3" font-size="18.2px" font-family="CMUBright-Roman" style="text-anchor:start;fill:rgb(0,0,0);" transform="rotate(319.7,2384.6,757.3)" >100</text>
<line x1='2397.3' y1='821.4' x2='2413.2' y2='809.3' style="stroke-width:4.0;stroke:rgb(0,0,0);stroke-linecap:round;fill:none;" />
<text x="2425.1" y="808.5" font-size="18.2px" font-family="CMUBright-Roman" style="text-anchor:start;fill:rgb(0,0,0);" transform="rotate(322.9,2425.1,808.5)" >150</text>
<line x1='2434.2' y1='873.1' x2='2450.8' y2='862.0' style="stroke-width:4.0;stroke:rgb(0,0,0);stroke-linecap:round;fill:none;" />
<text x="2462.7" y="861.8" font-size="18.2px" font-family="CMUBright-Roman" style="text-anchor:start;fill:rgb(0,0,0);" transform="rotate(326.1,2462.7,861.8)" >200</text>
<line x1='2468.1' y1='926.9' x2='2485.3' y2='916.7' style="stroke-width:4.0;stroke:rgb(0,0,0);stroke-linecap:round;fill:none;" />
<text x="2497.2" y="917.2" font-size="18.2px" font-family="CMUBright-Roman" style="text-anchor:start;fill:rgb(0,0,0);" transform="rotate(329.4,2497.2,917.2)" >250</text>
<line x1='2498.9' y1='982.5' x2='2516.7' y2='973.3' style="stroke-width:4.0;stroke:rgb(0,0,0);stroke-linecap:round;fill:none;" />
<text x="2528.5" y="974.5" font-size="18.2px" font-family="CMUBright-Roman" style="text-anchor:start;fill:rgb(0,0,0);" transform="rotate(332.6,2528.5,974.5)" >300</text>
<line x1='2526.5' y1='1039.7' x2='2544.8' y2='1031.6' style="stroke-width:4.0;stroke:rgb(0,0,0);stroke-linecap:round;fill:none;" />
<text x="2556.6" y="1033.4" font-size="18.2px" font-family="CMUBright-Roman" style="text-anchor:start;fill:rgb(0,0,0);" transform="rotate(335.9,2556.6,1033.4)" >350</text>
<line x1='2550.9' y1='1098.4' x2='2569.6' y2='1091.3' style="stroke-width:4.0;stroke:rgb(0,0,0);stroke-linecap:round;fill:none;" />
<text x="2581.2" y="1093.8" font-size="18.2px" font-family="CMUBright-Roman" style="text-anchor:start;fill:rgb(0,0,0);" transform="rotate(339.1,2581.2,1093.8)" >400</text>
<line x1='2571.9' y1='1158.4' x2='2591.0' y2='1152.4' style="stroke-width:4.0;stroke:rgb(0,0,0);stroke-linecap:round;fill:none;" />
<text x="2602.4" y="1155.5" font-size="18.2px" font-family="CMUBright-Roman" style="text-anchor:start;fill:rgb(0,0,0);" transform="rotate(342.3,2602.4,1155.5)" >450</text>
<line x1='2589.5' y1='1219.5' x2='2608.8' y2='1214.5' style="stroke-width:4.0;stroke:rgb(0,0,0);stroke-linecap:round;fill:none;" />
<text x="2620.1" y="1218.3" font-size="18.2px" font-family="CMUBright-Roman" style="text-anchor:start;fill:rgb(0,0,0);" transform="rotate(345.6,2620.1,1218.3)" >500</text>
<line x1='2603.6' y1='1281.5' x2='2623.2' y2='1277.6' style="stroke-width:4.0;stroke:rgb(0,0,0);stroke-linecap:round;fill:none;" />
<text x="2634.2" y="1282.0" font-size="18.2px" font-family="CMUBright-Roman" style="text-anchor:start;fill:rgb(0,0,0);" transform="rotate(348.8,2634.2,1282.0)" >550</text>
<line x1='2614.2' y1='1344.2' x2='2634.0' y2='1341.4' style="stroke-width:4.0;stroke:rgb(0,0,0);stroke-linecap:round;fill:none;" />
<text x="2644.7" y="1346.4" font-size="18.2px" font-family="CMUBright-Roman" style="text-anchor:start;fill:rgb(0,0,0);" transform="rotate(352.0,2644.7,1346.4)" >600</text>
<line x1='2621.2' y1='1407.3' x2='2641.1' y2='1405.7' style="stroke-width:4.0;stroke:rgb(0,0,0);stroke-linecap:round;fill:none;" />
<text x="2651.6" y="1411.3" font-size="18.2px" font-family="CMUBright-Roman" style="text-anchor:start;fill:rgb(0,0,0);" transform="rotate(355.3,2651.6,1411.3)" >650</text>
<line x1='2624.6' y1='1470.8' x2='2644.6' y2='1470.3' style="stroke-width:4.0;stroke:rgb(0,0,0);stroke-linecap:round;fill:none;" />
<text x="2654.8" y="1476.5" font-size="18.2px" font-family="CMUBright-Roman" style="text-anchor:start;fill:rgb(0,0,0);" transform="rotate(358.5,2654.8,1476.5)" >700</text>
<line x1='2624.5' y1='1534.4' x2='2644.5' y2='1535.0' style="stroke-width:4.0;stroke:rgb(0,0,0);stroke-linecap:round;fill:none;" />
<text x="2654.2" y="1541.8" font-size="18.2px" font-family="CMUBright-Roman" style="text-anchor:start;fill:rgb(0,0,0);" transform="rotate(1.8,2654.2,1541.8)" >750</text>
<line x1='2620.7' y1='1597.8' x2='2640.7' y2='1599.6' style="stroke-width:4.0;stroke:rgb(0,0,0);stroke-linecap:round;fill:none;" />
<text x="2650.0" y="1606.9" font-size="18.2px" font-family="CMUBright-Roman" style="text-anchor:start;fill:rgb(0,0,0);" transform="rotate(5.0,2650.0,1606.9)" >800</text>
<line x1='2613.4' y1='1660.9' x2='2633.2' y2='1663.8' style="stroke-width:4.0;stroke:rgb(0,0,0);stroke-linecap:round;fill:none;" />
<text x="2642.2" y="1671.7" font-size="18.2px" font-family="CMUBright-Roman" style="text-anchor:start;fill:rgb(0,0,0);" transform="rotate(8.2,2642.2,1671.7)" >850</text>
<line x1='2602.6' y1='1723.6' x2='2622.2' y2='1727.5' style="stroke-width:4.0;stroke:rgb(0,0,0);stroke-linecap:round;fill:none;" />
<text x="2630.7" y="1735.9" font-size="18.2px" font-family="CMUBright-Roman" style="text-anchor:start;fill:rgb(0,0,0);" transform="rotate(11.5,2630.7,1735.9)" >900</text>
<line x1='2588.2' y1='1785.5' x2='2607.5' y2='1790.6' style="stroke-width:4.0;stroke:rgb(0,0,0);stroke-linecap:round;fill:none;" />
<text x="2615.5" y="1799.4" font-size="18.2px" font-family="CMUBright-Roman" style="text-anchor:start;fill:rgb(0,0,0);" transform="rotate(14.7,2615.5,1799.4)" >950</text>
<line x1='2570.3' y1='1846.5' x2='2589.3' y2='1852.6' style="stroke-width:4.0;stroke:rgb(0,0,0);stroke-linecap:round;fill:none;" />
<text x="2596.8" y="1861.9" font-size="18.2px" font-family="CMUBright-Roman" style="text-anchor:start;fill:rgb(0,0,0);" transform="rotate(17.9,2596.8,1861.9)" >1000</text>
<line x1='2549.0' y1='1906.4' x2='2567.7' y2='1913.6' style="stroke-width:4.0;stroke:rgb(0,0,0);stroke-linecap:round;fill:none;" />
<text x="2574.6" y="1923.3" font-size="18.2px" font-family="CMUBright-Roman" style="text-anchor:start;fill:rgb(0,0,0);" transform="rotate(21.2,2574.6,1923.3)" >1050</text>
<line x1='2524.4' y1='1965.0' x2='2542.6' y2='1973.2' style="stroke-width:4.0;stroke:rgb(0,0,0);stroke-linecap:round;fill:none;" />
<text x="2549.0" y="1983.3" font-size="18.2px" font-family="CMUBright-Roman" style="text-anchor:start;fill:rgb(0,0,0);" transform="rotate(24.4,2549.0,1983.3)" >1100</text>
<line x1='2496.5' y1='2022.1' x2='2514.2' y2='2031.4' style="stroke-width:4.0;stroke:rgb(0,0,0);stroke-linecap:round;fill:none;" />
<text x="2520.1" y="2041.8" font-size="18.2px" font-family="CMUBright-Roman" style="text-anchor:start;fill:rgb(0,0,0);" transform="rotate(27.7,2520.1,2041.8)" >1150</text>
<line x1='2465.4' y1='2077.5' x2='2482.6' y2='2087.8' style="stroke-width:4.0;stroke:rgb(0,0,0);stroke-linecap:round;fill:none;" />
<text x="2487.8" y="2098.5" font-size="18.2px" font-family="CMUBright-Roman" style="text-anchor:start;fill:rgb(0,0,0);" transform="rotate(30.9,2487.8,2098.5)" >1200</text>
<line x1='2431.3' y1='2131.1' x2='2447.8' y2='2142.4' style="stroke-width:4.0;stroke:rgb(0,0,0);stroke-linecap:round;fill:none;" />
<text x="2452.5" y="2153.3" font-size="18.2px" font-family="CMUBright-Roman" style="text-anchor:start;fill:rgb(0,0,0);" transform="rotate(34.1,2452.5,2153.3)" >1250</text>
<line x1='2394.2' y1='2182.7' x2='2410.1' y2='2194.9' style="stroke-width:4.0;stroke:rgb(0,0,0);stroke-linecap:round;fill:none;" />
<text x="2414.0" y="2206.1" font-size="18.2px" font-family="CMUBright-Roman" style="text-anchor:start;fill:rgb(0,0,0);" transform="rotate(37.4,2414.0,2206.1)" >1300</text>
<line x1='2354.2' y1='2232.1' x2='2369.4' y2='2245.1' style="stroke-width:4.0;stroke:rgb(0,0,0);stroke-linecap:round;fill:none;" />
<text x="2372.7" y="2256.6" font-size="18.2px" font-family="CMUBright-Roman" style="text-anchor:start;fill:rgb(0,0,0);" transform="rotate(40.6,2372.7,2256.6)" >1350</text>
<line x1='2311.5' y1='2279.2' x2='2325.9' y2='2293.1' style="stroke-width:4.0;stroke:rgb(0,0,0);stroke-linecap:round;fill:none;" />
<text x="2328.6" y="2304.7" font-size="18.2px" font-family="CMUBright-Roman" style="text-anchor:start;fill:rgb(0,0,0);" transform="rotate(43.8,2328.6,2304.7)" >1400</text>
<line x1='2266.2' y1='2323.8' x2='2279.8' y2='2338.4' style="stroke-width:4.0;stroke:rgb(0,0,0);stroke-linecap:round;fill:none;" />
<text x="2281.8" y="2350.2" font-size="18.2px" font-family="CMUBright-Roman" style="text-anchor:start;fill:rgb(0,0,0);" transform="rotate(47.1,2281.8,2350.2)" >1450</text>
<line x1='2218.4' y1='2365.7' x2='2231.2' y2='2381.1' style="stroke-width:4.0;stroke:rgb(0,0,0);stroke-linecap:round;fill:none;" />
<text x="2232.6" y="2393.0" font-size="18.2px" font-family="CMUBright-Roman" style="text-anchor:start;fill:rgb(0,0,0);" transform="rotate(50.3,2232.6,2393.0)" >1500</text>
<line x1='2168.4' y1='2404.9' x2='2180.3' y2='2421.0' style="stroke-width:4.0;stroke:rgb(0,0,0);stroke-linecap:round;fill:none;" />
<text x="2181.0" y="2432.9" font-size="18.2px" font-family="CMUBright-Roman" style="text-anchor:start;fill:rgb(0,0,0);" transform="rotate(53.6,2181.0,2432.9)" >1550</text>
<line x1='2116.2' y1='2441.2' x2='2127.2' y2='2458.0' style="stroke-width:4.0;stroke:rgb(0,0,0);stroke-linecap:round;fill:none;" />
<text x="2127.2" y="2469.9" font-size="18.2px" font-family="CMUBright-Roman" style="text-anchor:start;fill:rgb(0,0,0);" transform="rotate(56.8,2127.2,2469.9)" >1600</text>
<line x1='2062.1' y1='2474.5' x2='2072.1' y2='2491.9' style="stroke-width:4.0;stroke:rgb(0,0,0);stroke-linecap:round;fill:none;" />
<text x="2071.4" y="2503.7" font-size="18.2px" font-family="CMUBright-Roman" style="text-anchor:start;fill:rgb(0,0,0);" transform="rotate(60.0,2071.4,2503.7)" >1650</text>
<line x1='2006.1' y1='2504.7' x2='2015.1' y2='2522.6' style="stroke-width:4.0;stroke:rgb(0,0,0);stroke-linecap:round;fill:none;" />
<text x="2013.8" y="2534.4" font-size="18.2px" font-family="CMUBright-Roman" style="text-anchor:start;fill:rgb(0,0,0);" transform="rotate(63.3,2013.8,2534.4)" >1700</text>
<line x1='1948.6' y1='2531.7' x2='1956.6' y2='2550.0' style="stroke-width:4.0;stroke:rgb(0,0,0);stroke-linecap:round;fill:none;" />
<text x="1954.6" y="2561.8" font-size="18.2px" font-family="CMUBright-Roman" style="text-anchor:start;fill:rgb(0,0,0);" transform="rotate(66.5,1954.6,2561.8)" >1750</text>
<line x1='1889.6' y1='2555.4' x2='1896.5' y2='2574.1' style="stroke-width:4.0;stroke:rgb(0,0,0);stroke-linecap:round;fill:none;" />
<text x="1893.9" y="2585.8" font-size="18.2px" font-family="CMUBright-Roman" style="text-anchor:start;fill:rgb(0,0,0);" transform="rotate(69.7,1893.9,2585.8)" >1800</text>
<line x1='1829.4' y1='2575.7' x2='1835.2' y2='2594.8' style="stroke-width:4.0;stroke:rgb(0,0,0);stroke-linecap:round;fill:none;" />
<text x="1831.9" y="2606.3" font-size="18.2px" font-family="CMUBright-Roman" style="text-anchor:start;fill:rgb(0,0,0);" transform="rotate(73.0,1831.9,2606.3)" >1850</text>
<line x1='1768.1' y1='2592.6' x2='1772.9' y2='2612.0' style="stroke-width:4.0;stroke:rgb(0,0,0);stroke-linecap:round;fill:none;" />
<text x="1768.9" y="2623.3" font-size="18.2px" font-family="CMUBright-Roman" style="text-anchor:start;fill:rgb(0,0,0);" transform="rotate(76.2,1768.9,2623.3)" >1900</text>
<line x1='1706.0' y1='2606.0' x2='1709.6' y2='2625.6' style="stroke-width:4.0;stroke:rgb(0,0,0);stroke-linecap:round;fill:none;" />
<text x="1705.1" y="2636.6" font-size="18.2px" font-family="CMUBright-Roman" style="text-anchor:start;fill:rgb(0,0,0);" transform="rotate(79.5,1705.1,2636.6)" >1950</text>
<line x1='1643.2' y1='2615.9' x2='1645.7' y2='2635.7' style="stroke-width:4.0;stroke:rgb(0,0,0);stroke-linecap:round;fill:none;" />
<text x="1640.5" y="2646.4" font-size="18.2px" font-family="CMUBright-Roman" style="text-anchor:start;fill:rgb(0,0,0);" transform="rotate(82.7,1640.5,2646.4)" >2000</text>
<line x1='1579.9' y1='2622.2' x2='1581.4' y2='2642.1' style="stroke-width:4.0;stroke:rgb(0,0,0);stroke-linecap:round;fill:none;" />
<text x="1575.6" y="2652.5" font-size="18.2px" font-family="CMUBright-Roman" style="text-anchor:start;fill:rgb(0,0,0);" transform="rotate(85.9,1575.6,2652.5)" >2050</text>
<line x1='1516.4' y1='2624.9' x2='1516.7' y2='2644.9' style="stroke-width:4.0;stroke:rgb(0,0,0);stroke-linecap:round;fill:none;" />
<text x="1510.4" y="2655.0" font-size="18.2px" font-family="CMUBright-Roman" style="text-anchor:start;fill:rgb(0,0,0);" transform="rotate(89.2,1510.4,2655.0)" >2100</text>
<line x1='1452.9' y1='2624.0' x2='1452.0' y2='2644.0' style="stroke-width:4.0;stroke:rgb(0,0,0);stroke-linecap:round;fill:none;" />
<text x="1458.1" y="2654.2" font-size="18.2px" font-family="CMUBright-Roman" style="text-anchor:end;fill:rgb(0,0,0);" transform="rotate(-87.6,1458.1,2654.2)" >2150</text>
<line x1='1389.5' y1='2619.6' x2='1387.5' y2='2639.5' style="stroke-width:4.0;stroke:rgb(0,0,0);stroke-linecap:round;fill:none;" />
<text x="1393.0" y="2650.0" font-size="18.2px" font-family="CMUBright-Roman" style="text-anchor:end;fill:rgb(0,0,0);" transform="rotate(-84.4,1393.0,2650.0)" >2200</text>
<line x1='1326.4' y1='2611.5' x2='1323.3' y2='2631.3' style="stroke-width:4.0;stroke:rgb(0,0,0);stroke-linecap:round;fill:none;" />
<text x="1328.2" y="2642.2" font-size="18.2px" font-family="CMUBright-Roman" style="text-anchor:end;fill:rgb(0,0,0);" transform="rotate(-81.1,1328.2,2642.2)" >2250</text>
<line x1='1263.9' y1='2600.0' x2='1259.7' y2='2619.5' style="stroke-width:4.0;stroke:rgb(0,0,0);stroke-linecap:round;fill:none;" />
<text x="1264.0" y="2630.6" font-size="18.2px" font-family="CMUBright-Roman" style="text-anchor:end;fill:rgb(0,0,0);" transform="rotate(-77.9,1264.0,2630.6)" >2300</text>
<line x1='1202.2' y1='2584.9' x2='1196.9' y2='2604.1' style="stroke-width:4.0;stroke:rgb(0,0,0);stroke-linecap:round;fill:none;" />
<text x="1200.5" y="2615.5" font-size="18.2px" font-family="CMUBright-Roman" style="text-anchor:end;fill:rgb(0,0,0);" transform="rotate(-74.6,1200.5,2615.5)" >2350</text>
<line x1='1141.4' y1='2566.3' x2='1135.0' y2='2585.3' style="stroke-width:4.0;stroke:rgb(0,0,0);stroke-linecap:round;fill:none;" />
<text x="1138.0" y="2596.8" font-size="18.2px" font-family="CMUBright-Roman" style="text-anchor:end;fill:rgb(0,0,0);" transform="rotate(-71.4,1138.0,2596.8)" >2400</text>
<line x1='1081.7' y1='2544.4' x2='1074.3' y2='2562.9' style="stroke-width:4.0;stroke:rgb(0,0,0);stroke-linecap:round;fill:none;" />
<text x="1076.6" y="2574.6" font-size="18.2px" font-family="CMUBright-Roman" style="text-anchor:end;fill:rgb(0,0,0);" transform="rotate(-68.2,1076.6,2574.6)" >2450</text>
<line x1='1023.4' y1='2519.1' x2='1015.0' y2='2537.2' style="stroke-width:4.0;stroke:rgb(0,0,0);stroke-linecap:round;fill:none;" />
<text x="1016.6" y="2549.0" font-size="18.2px" font-family="CMUBright-Roman" style="text-anchor:end;fill:rgb(0,0,0);" transform="rotate(-64.9,1016.6,2549.0)" >2500</text>
<line x1='966.6' y1='2490.5' x2='957.2' y2='2508.1' style="stroke-width:4.0;stroke:rgb(0,0,0);stroke-linecap:round;fill:none;" />
<text x="958.1" y="2520.0" font-size="18.2px" font-family="CMUBright-Roman" style="text-anchor:end;fill:rgb(0,0,0);" transform="rotate(-61.7,958.1,2520.0)" >2550</text>
<line x1='911.5' y1='2458.8' x2='901.1' y2='2475.9' style="stroke-width:4.0;stroke:rgb(0,0,0);stroke-linecap:round;fill:none;" />
<text x="901.4" y="2487.8" font-size="18.2px" font-family="CMUBright-Roman" style="text-anchor:end;fill:rgb(0,0,0);" transform="rotate(-58.5,901.4,2487.8)" >2600</text>
<line x1='858.3' y1='2424.1' x2='846.9' y2='2440.5' style="stroke-width:4.0;stroke:rgb(0,0,0);stroke-linecap:round;fill:none;" />
<text x="846.6" y="2452.4" font-size="18.2px" font-family="CMUBright-Roman" style="text-anchor:end;fill:rgb(0,0,0);" transform="rotate(-55.2,846.6,2452.4)" >2650</text>
<line x1='807.2' y1='2386.3' x2='794.9' y2='2402.1' style="stroke-width:4.0;stroke:rgb(0,0,0);stroke-linecap:round;fill:none;" />
<text x="793.8" y="2414.0" font-size="18.2px" font-family="CMUBright-Roman" style="text-anchor:end;fill:rgb(0,0,0);" transform="rotate(-52.0,793.8,2414.0)" >2700</text>
<line x1='758.2' y1='2345.8' x2='745.0' y2='2360.8' style="stroke-width:4.0;stroke:rgb(0,0,0);stroke-linecap:round;fill:none;" />
<text x="743.3" y="2372.6" font-size="18.2px" font-family="CMUBright-Roman" style="text-anchor:end;fill:rgb(0,0,0);" transform="rotate(-48.7,743.3,2372.6)" >2750</text>
<line x1='711.6' y1='2302.6' x2='697.6' y2='2316.8' style="stroke-width:4.0;stroke:rgb(0,0,0);stroke-linecap:round;fill:none;" />
<text x="695.3" y="2328.5" font-size="18.2px" font-family="CMUBright-Roman" style="text-anchor:end;fill:rgb(0,0,0);" transform="rotate(-45.5,695.3,2328.5)" >2800</text>
<line x1='667.6' y1='2256.8' x2='652.8' y2='2270.2' style="stroke-width:4.0;stroke:rgb(0,0,0);stroke-linecap:round;fill:none;" />
<text x="649.8" y="2281.7" font-size="18.2px" font-family="CMUBright-Roman" style="text-anchor:end;fill:rgb(0,0,0);" transform="rotate(-42.3,649.8,2281.7)" >2850</text>
<line x1='626.2' y1='2208.5' x2='610.6' y2='2221.1' style="stroke-width:4.0;stroke:rgb(0,0,0);stroke-linecap:round;fill:none;" />
<text x="607.0" y="2232.5" font-size="18.2px" font-family="CMUBright-Roman" style="text-anchor:end;fill:rgb(0,0,0);" transform="rotate(-39.0,607.0,2232.5)" >2900</text>
<line x1='587.5' y1='2158.1' x2='571.3' y2='2169.8' style="stroke-width:4.0;stroke:rgb(0,0,0);stroke-linecap:round;fill:none;" />
<text x="567.0" y="2180.9" font-size="18.2px" font-family="CMUBright-Roman" style="text-anchor:end;fill:rgb(0,0,0);" transform="rotate(-35.8,567.0,2180.9)" >2950</text>
<line x1='551.8' y1='2105.5' x2='535.0' y2='2116.2' style="stroke-width:4.0;stroke:rgb(0,0,0);stroke-linecap:round;fill:none;" />
<text x="530.1" y="2127.1" font-size="18.2px" font-family="CMUBright-Roman" style="text-anchor:end;fill:rgb(0,0,0);" transform="rotate(-32.6,530.1,2127.1)" >3000</text>
<line x1='519.2' y1='2051.0' x2='501.7' y2='2060.8' style="stroke-width:4.0;stroke:rgb(0,0,0);stroke-linecap:round;fill:none;" />
<text x="496.2" y="2071.3" font-size="18.2px" font-family="CMUBright-Roman" style="text-anchor:end;fill:rgb(0,0,0);" transform="rotate(-29.3,496.2,2071.3)" >3050</text>
<line x1='489.6' y1='1994.7' x2='471.6' y2='2003.5' style="stroke-width:4.0;stroke:rgb(0,0,0);stroke-linecap:round;fill:none;" />
<text x="465.5" y="2013.7" font-size="18.2px" font-family="CMUBright-Roman" style="text-anchor:end;fill:rgb(0,0,0);" transform="rotate(-26.1,465.5,2013.7)" >3100</text>
<line x1='463.3' y1='1936.8' x2='444.8' y2='1944.6' style="stroke-width:4.0;stroke:rgb(0,0,0);stroke-linecap:round;fill:none;" />
<text x="438.2" y="1954.5" font-size="18.2px" font-family="CMUBright-Roman" style="text-anchor:end;fill:rgb(0,0,0);" transform="rotate(-22.8,438.2,1954.5)" >3150</text>
<line x1='440.3' y1='1877.6' x2='421.4' y2='1884.3' style="stroke-width:4.0;stroke:rgb(0,0,0);stroke-linecap:round;fill:none;" />
<text x="414.2" y="1893.8" font-size="18.2px" font-family="CMUBright-Roman" style="text-anchor:end;fill:rgb(0,0,0);" transform="rotate(-19.6,414.2,1893.8)" >3200</text>
<line x1='420.6' y1='1817.1' x2='401.4' y2='1822.8' style="stroke-width:4.0;stroke:rgb(0,0,0);stroke-linecap:round;fill:none;" />
<text x="393.7" y="1831.8" font-size="18.2px" font-family="CMUBright-Roman" style="text-anchor:end;fill:rgb(0,0,0);" transform="rotate(-16.4,393.7,1831.8)" >3250</text>
<line x1='404.4' y1='1755.7' x2='385.0' y2='1760.2' style="stroke-width:4.0;stroke:rgb(0,0,0);stroke-linecap:round;fill:none;" />
<text x="376.7" y="1768.8" font-size="18.2px" font-family="CMUBright-Roman" style="text-anchor:end;fill:rgb(0,0,0);" transform="rotate(-13.1,376.7,1768.8)" >3300</text>
<line x1='391.7' y1='1693.4' x2='372.0' y2='1696.8' style="stroke-width:4.0;stroke:rgb(0,0,0);stroke-linecap:round;fill:none;" />
<text x="363.3" y="1705.0" font-size="18.2px" font-family="CMUBright-Roman" style="text-anchor:end;fill:rgb(0,0,0);" transform="rotate(-9.9,363.3,1705.0)" >3350</text>
<line x1='382.6' y1='1630.5' x2='362.7' y2='1632.8' style="stroke-width:4.0;stroke:rgb(0,0,0);stroke-linecap:round;fill:none;" />
<text x="353.6" y="1640.4" font-size="18.2px" font-family="CMUBright-Roman" style="text-anchor:end;fill:rgb(0,0,0);" transform="rotate(-6.7,353.6,1640.4)" >3400</text>
<line x1='377.0' y1='1567.2' x2='357.0' y2='1568.4' style="stroke-width:4.0;stroke:rgb(0,0,0);stroke-linecap:round;fill:none;" />
<text x="347.5" y="1575.5" font-size="18.2px" font-family="CMUBright-Roman" style="text-anchor:end;fill:rgb(0,0,0);" transform="rotate(-3.4,347.5,1575.5)" >3450</text>
<line x1='375.0' y1='1503.7' x2='355.0' y2='1503.7' style="stroke-width:4.0;stroke:rgb(0,0,0);stroke-linecap:round;fill:none;" />
<text x="345.0" y="1510.3" font-size="18.2px" font-family="CMUBright-Roman" style="text-anchor:end;fill:rgb(0,0,0);" transform="rotate(-0.2,345.0,1510.3)" >3500</text>
<line x1='376.6' y1='1440.1' x2='356.6' y2='1439.1' style="stroke-width:4.0;stroke:rgb(0,0,0);stroke-linecap:round;fill:none;" />
<text x="346.3" y="1445.0" font-size="18.2px" font-family="CMUBright-Roman" style="text-anchor:end;fill:rgb(0,0,0);" transform="rotate(3.1,346.3,1445.0)" >3550</text>
<line x1='381.8' y1='1376.8' x2='361.9' y2='1374.6' style="stroke-width:4.0;stroke:rgb(0,0,0);stroke-linecap:round;fill:none;" />
<text x="351.3" y="1379.9" font-size="18.2px" font-family="CMUBright-Roman" style="text-anchor:end;fill:rgb(0,0,0);" transform="rotate(6.3,351.3,1379.9)" >3600</text>
<line x1='390.5' y1='1313.8' x2='370.8' y2='1310.5' style="stroke-width:4.0;stroke:rgb(0,0,0);stroke-linecap:round;fill:none;" />
<text x="359.9" y="1315.3" font-size="18.2px" font-family="CMUBright-Roman" style="text-anchor:end;fill:rgb(0,0,0);" transform="rotate(9.5,359.9,1315.3)" >3650</text>
<line x1='402.8' y1='1251.5' x2='383.3' y2='1247.0' style="stroke-width:4.0;stroke:rgb(0,0,0);stroke-linecap:round;fill:none;" />
<text x="372.1" y="1251.2" font-size="18.2px" font-family="CMUBright-Roman" style="text-anchor:end;fill:rgb(0,0,0);" transform="rotate(12.8,372.1,1251.2)" >3700</text>
<line x1='418.6' y1='1189.9' x2='399.4' y2='1184.4' style="stroke-width:4.0;stroke:rgb(0,0,0);stroke-linecap:round;fill:none;" />
<text x="388.0" y="1187.9" font-size="18.2px" font-family="CMUBright-Roman" style="text-anchor:end;fill:rgb(0,0,0);" transform="rotate(16.0,388.0,1187.9)" >3750</text>
<line x1='437.8' y1='1129.3' x2='418.9' y2='1122.7' style="stroke-width:4.0;stroke:rgb(0,0,0);stroke-linecap:round;fill:none;" />
<text x="407.4" y="1125.6" font-size="18.2px" font-family="CMUBright-Roman" style="text-anchor:end;fill:rgb(0,0,0);" transform="rotate(19.2,407.4,1125.6)" >3800</text>
<line x1='460.5' y1='1069.9' x2='442.0' y2='1062.3' style="stroke-width:4.0;stroke:rgb(0,0,0);stroke-linecap:round;fill:none;" />
<text x="430.3" y="1064.5" font-size="18.2px" font-family="CMUBright-Roman" style="text-anchor:end;fill:rgb(0,0,0);" transform="rotate(22.5,430.3,1064.5)" >3850</text>
<line x1='486.4' y1='1011.9' x2='468.4' y2='1003.2' style="stroke-width:4.0;stroke:rgb(0,0,0);stroke-linecap:round;fill:none;" />
<text x="456.6" y="1004.7" font-size="18.2px" font-family="CMUBright-Roman" style="text-anchor:end;fill:rgb(0,0,0);" transform="rotate(25.7,456.6,1004.7)" >3900</text>
<line x1='515.6' y1='955.4' x2='498.1' y2='945.7' style="stroke-width:4.0;stroke:rgb(0,0,0);stroke-linecap:round;fill:none;" />
<text x="486.2" y="946.6" font-size="18.2px" font-family="CMUBright-Roman" style="text-anchor:end;fill:rgb(0,0,0);" transform="rotate(29.0,486.2,946.6)" >3950</text>
<line x1='547.9' y1='900.7' x2='531.0' y2='890.0' style="stroke-width:4.0;stroke:rgb(0,0,0);stroke-linecap:round;fill:none;" />
<text x="519.1" y="890.2" font-size="18.2px" font-family="CMUBright-Roman" style="text-anchor:end;fill:rgb(0,0,0);" transform="rotate(32.2,519.1,890.2)" >4000</text>
<line x1='583.3' y1='847.9' x2='567.0' y2='836.3' style="stroke-width:4.0;stroke:rgb(0,0,0);stroke-linecap:round;fill:none;" />
<text x="555.1" y="835.8" font-size="18.2px" font-family="CMUBright-Roman" style="text-anchor:end;fill:rgb(0,0,0);" transform="rotate(35.4,555.1,835.8)" >4050</text>
<line x1='621.6' y1='797.2' x2='606.0' y2='784.7' style="stroke-width:4.0;stroke:rgb(0,0,0);stroke-linecap:round;fill:none;" />
<text x="594.1" y="783.5" font-size="18.2px" font-family="CMUBright-Roman" style="text-anchor:end;fill:rgb(0,0,0);" transform="rotate(38.7,594.1,783.5)" >4100</text>
<line x1='662.7' y1='748.7' x2='647.8' y2='735.3' style="stroke-width:4.0;stroke:rgb(0,0,0);stroke-linecap:round;fill:none;" />
<text x="636.0" y="733.5" font-size="18.2px" font-family="CMUBright-Roman" style="text-anchor:end;fill:rgb(0,0,0);" transform="rotate(41.9,636.0,733.5)" >4150</text>
<line x1='706.4' y1='702.6' x2='692.3' y2='688.4' style="stroke-width:4.0;stroke:rgb(0,0,0);stroke-linecap:round;fill:none;" />
<text x="680.7" y="685.9" font-size="18.2px" font-family="CMUBright-Roman" style="text-anchor:end;fill:rgb(0,0,0);" transform="rotate(45.1,680.7,685.9)" >4200</text>
<line x1='752.7' y1='659.0' x2='739.5' y2='644.1' style="stroke-width:4.0;stroke:rgb(0,0,0);stroke-linecap:round;fill:none;" />
<text x="728.0" y="640.9" font-size="18.2px" font-family="CMUBright-Roman" style="text-anchor:end;fill:rgb(0,0,0);" transform="rotate(48.4,728.0,640.9)" >4250</text>
<line x1='801.4' y1='618.2' x2='789.0' y2='602.5' style="stroke-width:4.0;stroke:rgb(0,0,0);stroke-linecap:round;fill:none;" />
<text x="777.7" y="598.7" font-size="18.2px" font-family="CMUBright-Roman" style="text-anchor:end;fill:rgb(0,0,0);" transform="rotate(51.6,777.7,598.7)" >4300</text>
<line x1='852.3' y1='580.1' x2='840.8' y2='563.8' style="stroke-width:4.0;stroke:rgb(0,0,0);stroke-linecap:round;fill:none;" />
<text x="829.8" y="559.4" font-size="18.2px" font-family="CMUBright-Roman" style="text-anchor:end;fill:rgb(0,0,0);" transform="rotate(54.9,829.8,559.4)" >4350</text>
<line x1='905.3' y1='545.0' x2='894.8' y2='528.0' style="stroke-width:4.0;stroke:rgb(0,0,0);stroke-linecap:round;fill:none;" />
<text x="884.0" y="523.0" font-size="18.2px" font-family="CMUBright-Roman" style="text-anchor:end;fill:rgb(0,0,0);" transform="rotate(58.1,884.0,523.0)" >4400</text>
<line x1='960.2' y1='513.0' x2='950.6' y2='495.4' style="stroke-width:4.0;stroke:rgb(0,0,0);stroke-linecap:round;fill:none;" />
<text x="940.1" y="489.8" font-size="18.2px" font-family="CMUBright-Roman" style="text-anchor:end;fill:rgb(0,0,0);" transform="rotate(61.3,940.1,489.8)" >4450</text>
<line x1='1016.8' y1='484.1' x2='1008.2' y2='466.0' style="stroke-width:4.0;stroke:rgb(0,0,0);stroke-linecap:round;fill:none;" />
<text x="998.1" y="459.8" font-size="18.2px" font-family="CMUBright-Roman" style="text-anchor:end;fill:rgb(0,0,0);" transform="rotate(64.6,998.1,459.8)" >4500</text>
<line x1='1075.0' y1='458.4' x2='1067.4' y2='439.9' style="stroke-width:4.0;stroke:rgb(0,0,0);stroke-linecap:round;fill:none;" />
<text x="1057.6" y="433.1" font-size="18.2px" font-family="CMUBright-Roman" style="text-anchor:end;fill:rgb(0,0,0);" transform="rotate(67.8,1057.6,433.1)" >4550</text>
<line x1='1134.5' y1='436.0' x2='1128.0' y2='417.1' style="stroke-width:4.0;stroke:rgb(0,0,0);stroke-linecap:round;fill:none;" />
<text x="1118.6" y="409.8" font-size="18.2px" font-family="CMUBright-Roman" style="text-anchor:end;fill:rgb(0,0,0);" transform="rotate(71.0,1118.6,409.8)" >4600</text>
<line x1='1195.1' y1='417.1' x2='1189.7' y2='397.8' style="stroke-width:4.0;stroke:rgb(0,0,0);stroke-linecap:round;fill:none;" />
<text x="1180.8" y="390.0" font-size="18.2px" font-family="CMUBright-Roman" style="text-anchor:end;fill:rgb(0,0,0);" transform="rotate(74.3,1180.8,390.0)" >4650</text>
<line x1='1256.8' y1='401.6' x2='1252.5' y2='382.1' style="stroke-width:4.0;stroke:rgb(0,0,0);stroke-linecap:round;fill:none;" />
<text x="1243.9" y="373.7" font-size="18.2px" font-family="CMUBright-Roman" style="text-anchor:end;fill:rgb(0,0,0);" transform="rotate(77.5,1243.9,373.7)" >4700</text>
<line x1='1319.2' y1='389.6' x2='1316.0' y2='369.9' style="stroke-width:4.0;stroke:rgb(0,0,0);stroke-linecap:round;fill:none;" />
<text x="1308.0" y="361.1" font-size="18.2px" font-family="CMUBright-Roman" style="text-anchor:end;fill:rgb(0,0,0);" transform="rotate(80.8,1308.0,361.1)" >4750</text>
<line x1='1382.2' y1='381.2' x2='1380.1' y2='361.3' style="stroke-width:4.0;stroke:rgb(0,0,0);stroke-linecap:round;fill:none;" />
<text x="1372.6" y="352.0" font-size="18.2px" font-family="CMUBright-Roman" style="text-anchor:end;fill:rgb(0,0,0);" transform="rotate(84.0,1372.6,352.0)" >4800</text>
<g id="highlighttrack_0">
<path d="M735.132,744.618 A1075.000,1075.000 40.000 0,1 737.657,742.070 L702.199,706.818 A1125.000,1125.000 0.000 0,0 699.557,709.484 Z" style="stroke-width:4.0;stroke:rgb(0,0,0);stroke-linecap:round;fill:rgb(116,196,118);" />
<path d="M2380.053,882.641 A1075.000,1075.000 40.000 0,1 2382.107,885.580 L2423.135,857.002 A1125.000,1125.000 0.000 0,0 2420.985,853.926 Z" style="stroke-width:4.0;stroke:rgb(0,0,0);stroke-linecap:round;fill:rgb(116,196,118);" />
<path d="M2449.607,996.143 A1075.000,1075.000 40.000 0,1 2451.282,999.314 L2495.528,976.026 A1125.000,1125.000 0.000 0,0 2493.775,972.708 Z" style="stroke-width:4.0;stroke:rgb(0,0,0);stroke-linecap:round;fill:rgb(251,106,74);" />
<path d="M2501.921,1110.410 A1075.000,1075.000 40.000 0,1 2503.314,1114.012 L2549.979,1096.059 A1125.000,1125.000 0.000 0,0 2548.521,1092.290 Z" style="stroke-width:4.0;stroke:rgb(0,0,0);stroke-linecap:round;fill:rgb(251,106,74);" />
<path d="M1486.290,2574.913 A1075.000,1075.000 40.000 0,1 1482.428,2574.856 L1481.611,2624.850 A1125.000,1125.000 0.000 0,0 1485.652,2624.909 Z" style="stroke-width:4.0;stroke:rgb(0,0,0);stroke-linecap:round;fill:rgb(251,106,74);" />
<path d="M2523.781,1172.130 A1075.000,1075.000 40.000 0,1 2524.869,1175.549 L2572.537,1160.458 A1125.000,1125.000 0.000 0,0 2571.398,1156.881 Z" style="stroke-width:4.0;stroke:rgb(0,0,0);stroke-linecap:round;fill:rgb(251,106,74);" />
<path d="M2568.957,1386.180 A1075.000,1075.000 40.000 0,1 2569.331,1389.748 L2619.068,1384.620 A1125.000,1125.000 0.000 0,0 2618.676,1380.886 Z" style="stroke-width:4.0;stroke:rgb(0,0,0);stroke-linecap:round;fill:rgb(251,106,74);" />
<path d="M2567.723,1375.128 A1075.000,1075.000 40.000 0,1 2568.157,1378.895 L2617.838,1373.262 A1125.000,1125.000 0.000 0,0 2617.384,1369.320 Z" style="stroke-width:4.0;stroke:rgb(0,0,0);stroke-linecap:round;fill:rgb(251,106,74);" />
<path d="M615.817,888.571 A1075.000,1075.000 40.000 0,1 617.397,886.292 L576.346,857.748 A1125.000,1125.000 0.000 0,0 574.692,860.133 Z" style="stroke-width:4.0;stroke:rgb(0,0,0);stroke-linecap:round;fill:rgb(116,196,118);" />
<path d="M1481.975,2574.849 A1075.000,1075.000 40.000 0,1 1479.202,2574.799 L1478.235,2624.789 A1125.000,1125.000 0.000 0,0 1481.137,2624.842 Z" style="stroke-width:4.0;stroke:rgb(0,0,0);stroke-linecap:round;fill:rgb(116,196,118);" />
<path d="M2543.822,1242.979 A1075.000,1075.000 40.000 0,1 2544.482,1245.673 L2593.063,1233.843 A1125.000,1125.000 0.000 0,0 2592.372,1231.024 Z" style="stroke-width:4.0;stroke:rgb(0,0,0);stroke-linecap:round;fill:rgb(116,196,118);" />
<path d="M2481.284,1938.984 A1075.000,1075.000 40.000 0,1 2480.036,1941.764 L2525.619,1962.311 A1125.000,1125.000 0.000 0,0 2526.925,1959.402 Z" style="stroke-width:4.0;stroke:rgb(0,0,0);stroke-linecap:round;fill:rgb(116,196,118);" />
<path d="M1341.142,2563.198 A1075.000,1075.000 40.000 0,1 1338.079,2562.735 L1330.548,2612.165 A1125.000,1125.000 0.000 0,0 1333.753,2612.649 Z" style="stroke-width:4.0;stroke:rgb(0,0,0);stroke-linecap:round;fill:rgb(116,196,118);" />
<path d="M2513.680,1142.120 A1075.000,1075.000 40.000 0,1 2518.969,1157.470 L2566.363,1141.538 A1125.000,1125.000 0.000 0,0 2560.828,1125.475 Z" style="stroke-width:4.0;stroke:rgb(0,0,0);stroke-linecap:round;fill:rgb(116,196,118);" />
</g>
</g>
<g id="track_0">
<path d="M 2177.738,679.452 A 1064.250,1064.250 0.00 0,1 2180.4,681.7 L 2180.4,681.7 2132.8,737.7 2087.0,788.9 2043.0,835.7 2000.8,878.3 1960.1,917.0 1920.9,952.1 1883.1,983.7 1846.5,1012.2 1811.2,1037.7 1776.9,1060.3 1743.6,1080.4 1711.1,1098.0 1679.4,1113.2 1648.4,1126.3 1617.8,1137.2 1587.7,1146.1 1557.9,1153.1 1528.3,1158.2 1498.8,1161.4 1469.2,1162.8 1439.5,1162.4 1409.6,1160.1 1379.2,1156.0 1348.4,1150.0 1317.0,1142.0 1284.8,1131.9 1251.8,1119.7 1217.8,1105.3 1182.8,1088.5 1146.5,1069.1 1108.9,1047.1 1069.9,1022.2 1029.2,994.3 986.9,963.1 942.7,928.4 896.6,890.0 848.4,847.6 798.0,800.9 745.3,749.6  A 1064.250,1064.250 0.00 0,0 742.8,752.2 L 742.8,752.2 795.7,803.2 846.2,849.8 894.6,892.0 940.8,930.3 985.1,964.8 1027.5,995.9 1068.3,1023.7 1107.4,1048.4 1145.1,1070.3 1181.4,1089.5 1216.5,1106.2 1250.5,1120.6 1283.6,1132.6 1315.8,1142.6 1347.2,1150.5 1378.1,1156.4 1408.4,1160.4 1438.4,1162.6 1468.1,1162.9 1497.7,1161.4 1527.2,1158.1 1556.8,1152.9 1586.5,1145.8 1616.6,1136.8 1647.1,1125.8 1678.2,1112.6 1709.8,1097.3 1742.2,1079.6 1775.5,1059.4 1809.7,1036.6 1844.9,1011.1 1881.4,982.5 1919.1,950.7 1958.2,915.5 1998.7,876.7 2040.9,833.9 2084.7,787.0 2130.3,735.6 2177.7,679.5  Z" style="stroke-width: 2.0;  stroke: rgb(82,82,82); fill: rgb(251,106,74); opacity: 0.667;" />
<path d="M 2371.252,888.814 A 1064.250,1064.250 0.00 0,1 2373.3,891.7 L 2373.3,891.7 2312.3,933.0 2254.1,970.3 2198.5,1003.6 2145.4,1033.5 2094.6,1060.0 2045.9,1083.6 1999.3,1104.3 1954.5,1122.4 1911.5,1138.1 1870.0,1151.6 1829.9,1163.0 1791.1,1172.5 1753.4,1180.1 1716.8,1186.1 1681.0,1190.4 1645.9,1193.2 1611.4,1194.6 1577.4,1194.5 1543.7,1193.0 1510.2,1190.0 1476.7,1185.7 1443.2,1179.9 1409.4,1172.6 1375.4,1163.8 1340.9,1153.3 1305.8,1141.0 1270.0,1127.0 1233.5,1110.9 1196.0,1092.8 1157.4,1072.3 1117.8,1049.4 1076.8,1023.8 1034.5,995.3 990.6,963.7 945.2,928.7 898.0,890.1 849.1,847.6 798.2,800.9 745.3,749.6  A 1064.250,1064.250 0.00 0,0 742.8,752.2 L 742.8,752.2 795.9,803.3 846.9,849.8 896.0,892.2 943.3,930.6 988.8,965.4 1032.8,996.9 1075.2,1025.2 1116.3,1050.7 1156.0,1073.5 1194.6,1093.8 1232.2,1111.8 1268.8,1127.7 1304.6,1141.7 1339.7,1153.8 1374.2,1164.2 1408.3,1172.9 1442.1,1180.1 1475.6,1185.8 1509.1,1190.0 1542.7,1192.8 1576.4,1194.2 1610.4,1194.2 1644.9,1192.8 1680.0,1189.8 1715.7,1185.4 1752.4,1179.3 1790.0,1171.5 1828.8,1161.9 1868.8,1150.4 1910.3,1136.7 1953.3,1120.9 1998.0,1102.6 2044.5,1081.8 2093.1,1058.1 2143.8,1031.3 2196.8,1001.3 2252.3,967.7 2310.4,930.3 2371.3,888.8  Z" style="stroke-width: 2.0;  stroke: rgb(82,82,82); fill: rgb(116,196,118); opacity: 0.667;" />
<path d="M 2371.252,888.814 A 1064.250,1064.250 0.00 0,1 2373.3,891.7 L 2373.3,891.7 2313.1,933.4 2257.3,971.7 2205.6,1006.7 2157.9,1038.6 2113.9,1067.6 2073.4,1093.8 2036.3,1117.3 2002.4,1138.2 1971.6,1156.6 1943.7,1172.8 1918.5,1186.6 1896.1,1198.3 1876.2,1207.8 1858.8,1215.3 1843.7,1220.7 1831.0,1224.2 1820.5,1225.7 1812.3,1225.3 1806.1,1222.9 1802.2,1218.6 1800.3,1212.3 1800.6,1204.0 1803.0,1193.7 1807.5,1181.3 1814.2,1166.8 1823.2,1150.1 1834.4,1131.0 1847.9,1109.7 1863.8,1085.8 1882.3,1059.4 1903.3,1030.2 1927.0,998.2 1953.6,963.3 1983.1,925.2 2015.7,883.8 2051.6,838.9 2090.9,790.4 2133.8,738.1 2180.4,681.7  A 1064.250,1064.250 0.00 0,0 2177.7,679.5 L 2177.7,679.5 2131.2,736.0 2088.5,788.5 2049.4,837.1 2013.7,882.1 1981.2,923.6 1951.8,961.8 1925.4,996.8 1901.7,1028.9 1880.8,1058.1 1862.5,1084.6 1846.6,1108.5 1833.1,1129.9 1822.0,1149.0 1813.1,1165.7 1806.5,1180.3 1802.0,1192.7 1799.6,1203.0 1799.4,1211.3 1801.2,1217.6 1805.2,1221.9 1811.3,1224.2 1819.6,1224.6 1830.1,1223.1 1842.8,1219.6 1857.8,1214.1 1875.2,1206.6 1895.1,1197.0 1917.5,1185.2 1942.6,1171.3 1970.4,1155.1 2001.2,1136.5 2035.0,1115.5 2072.0,1091.9 2112.4,1065.6 2156.3,1036.5 2204.0,1004.4 2255.5,969.2 2311.2,930.7 2371.3,888.8  Z" style="stroke-width: 2.0;  stroke: rgb(82,82,82); fill: rgb(107,174,214); opacity: 0.667;" />
<path d="M 2440.111,1001.182 A 1064.250,1064.250 0.00 0,1 2441.8,1004.3 L 2441.8,1004.3 2376.1,1037.8 2313.5,1067.5 2253.9,1093.7 2197.0,1116.8 2142.7,1136.9 2090.8,1154.3 2041.2,1169.2 1993.6,1181.8 1947.9,1192.3 1904.0,1200.9 1861.6,1207.7 1820.7,1212.9 1781.1,1216.5 1742.5,1218.7 1704.9,1219.6 1668.2,1219.2 1632.1,1217.5 1596.5,1214.7 1561.3,1210.6 1526.4,1205.4 1491.5,1198.9 1456.7,1191.2 1421.7,1182.2 1386.4,1171.8 1350.8,1159.9 1314.6,1146.5 1277.7,1131.4 1240.1,1114.4 1201.6,1095.5 1162.2,1074.4 1121.6,1050.9 1079.8,1024.9 1036.8,996.0 992.3,964.2 946.3,929.0 898.7,890.3 849.4,847.7 798.3,800.9 745.3,749.6  A 1064.250,1064.250 0.00 0,0 742.8,752.2 L 742.8,752.2 795.9,803.3 847.2,849.9 896.6,892.3 944.4,930.9 990.5,965.9 1035.1,997.6 1078.3,1026.3 1120.1,1052.2 1160.8,1075.5 1200.3,1096.5 1238.8,1115.3 1276.5,1132.1 1313.4,1147.1 1349.6,1160.4 1385.3,1172.2 1420.6,1182.4 1455.7,1191.3 1490.5,1198.9 1525.4,1205.3 1560.3,1210.4 1595.5,1214.3 1631.1,1217.1 1667.2,1218.6 1704.0,1218.9 1741.6,1217.9 1780.1,1215.6 1819.8,1211.8 1860.7,1206.5 1903.0,1199.6 1946.9,1190.8 1992.5,1180.1 2040.0,1167.4 2089.6,1152.3 2141.5,1134.7 2195.7,1114.4 2252.5,1091.2 2312.0,1064.8 2374.5,1034.9 2440.1,1001.2  Z" style="stroke-width: 2.0;  stroke: rgb(82,82,82); fill: rgb(253,141,60); opacity: 0.667;" />
<path d="M 2440.111,1001.182 A 1064.250,1064.250 0.00 0,1 2441.8,1004.3 L 2441.8,1004.3 2376.9,1038.2 2316.6,1069.1 2260.8,1097.2 2209.1,1122.6 2161.5,1145.4 2117.6,1165.8 2077.3,1183.8 2040.4,1199.6 2006.8,1213.3 1976.2,1224.9 1948.6,1234.5 1923.9,1242.2 1901.8,1248.0 1882.3,1252.0 1865.4,1254.2 1850.9,1254.6 1838.7,1253.3 1828.8,1250.2 1821.2,1245.3 1815.8,1238.7 1812.7,1230.2 1811.7,1219.9 1812.9,1207.7 1816.3,1193.6 1822.0,1177.5 1829.9,1159.3 1840.2,1138.9 1852.9,1116.3 1868.0,1091.3 1885.7,1063.8 1906.1,1033.8 1929.2,1001.0 1955.2,965.3 1984.2,926.6 2016.5,884.7 2052.0,839.5 2091.1,790.7 2133.8,738.1 2180.4,681.7  A 1064.250,1064.250 0.00 0,0 2177.7,679.5 L 2177.7,679.5 2131.3,736.1 2088.7,788.7 2049.8,837.6 2014.4,883.0 1982.4,925.0 1953.4,963.8 1927.5,999.6 1904.5,1032.4 1884.3,1062.6 1866.7,1090.1 1851.6,1115.1 1839.0,1137.8 1828.8,1158.2 1820.9,1176.4 1815.3,1192.6 1811.9,1206.7 1810.8,1218.9 1811.8,1229.2 1815.0,1237.6 1820.4,1244.2 1828.0,1249.1 1837.9,1252.1 1850.0,1253.4 1864.6,1253.0 1881.5,1250.7 1901.0,1246.7 1923.0,1240.8 1947.7,1233.0 1975.3,1223.3 2005.8,1211.6 2039.4,1197.8 2076.2,1181.9 2116.5,1163.7 2160.3,1143.2 2207.9,1120.2 2259.4,1094.7 2315.2,1066.4 2375.3,1035.3 2440.1,1001.2  Z" style="stroke-width: 2.0;  stroke: rgb(82,82,82); fill: rgb(255,0,0); opacity: 0.667;" />
<path d="M 2440.111,1001.182 A 1064.250,1064.250 0.00 0,1 2441.8,1004.3 L 2441.8,1004.3 2377.0,1038.3 2317.0,1069.7 2261.6,1098.4 2210.6,1124.6 2163.8,1148.6 2120.9,1170.3 2081.8,1189.8 2046.3,1207.4 2014.2,1223.0 1985.4,1236.7 1959.7,1248.6 1937.1,1258.8 1917.3,1267.4 1900.4,1274.3 1886.2,1279.6 1874.6,1283.4 1865.6,1285.6 1859.2,1286.3 1855.3,1285.5 1853.9,1283.2 1855.0,1279.3 1858.5,1274.0 1864.6,1267.0 1873.3,1258.5 1884.6,1248.3 1898.5,1236.4 1915.2,1222.8 1934.7,1207.4 1957.1,1190.1 1982.5,1170.8 2011.1,1149.5 2043.0,1126.0 2078.4,1100.3 2117.4,1072.2 2160.1,1041.6 2206.9,1008.4 2257.9,972.5 2313.3,933.6 2373.3,891.7  A 1064.250,1064.250 0.00 0,0 2371.3,888.8 L 2371.3,888.8 2311.4,930.9 2256.1,970.0 2205.3,1006.1 2158.6,1039.4 2115.9,1070.1 2077.0,1098.4 2041.8,1124.2 2009.9,1147.8 1981.4,1169.2 1956.0,1188.6 1933.7,1205.9 1914.2,1221.4 1897.6,1235.1 1883.7,1247.0 1872.5,1257.2 1863.9,1265.8 1857.8,1272.8 1854.2,1278.2 1853.2,1282.0 1854.6,1284.3 1858.5,1285.1 1864.9,1284.4 1873.9,1282.1 1885.4,1278.3 1899.6,1273.0 1916.6,1266.0 1936.3,1257.4 1958.9,1247.1 1984.5,1235.1 2013.3,1221.2 2045.3,1205.5 2080.8,1187.9 2119.8,1168.2 2162.6,1146.3 2209.4,1122.3 2260.3,1095.8 2315.5,1066.9 2375.4,1035.4 2440.1,1001.2  Z" style="stroke-width: 2.0;  stroke: rgb(82,82,82); fill: rgb(255,0,204); opacity: 0.667;" />
<path d="M 2491.901,1114.306 A 1064.250,1064.250 0.00 0,1 2493.3,1117.9 L 2493.3,1117.9 2424.0,1143.4 2358.2,1165.5 2295.6,1184.6 2236.0,1200.8 2179.1,1214.4 2124.9,1225.6 2073.1,1234.7 2023.5,1241.8 1976.0,1247.2 1930.4,1250.9 1886.4,1253.1 1844.0,1253.9 1802.9,1253.5 1763.0,1252.0 1724.2,1249.3 1686.2,1245.7 1648.9,1241.0 1612.2,1235.4 1575.9,1228.8 1539.9,1221.2 1504.1,1212.6 1468.2,1202.9 1432.2,1192.2 1396.0,1180.2 1359.4,1167.0 1322.3,1152.3 1284.5,1136.1 1246.0,1118.2 1206.7,1098.4 1166.4,1076.6 1125.1,1052.6 1082.6,1026.1 1038.9,996.9 993.8,964.7 947.3,929.3 899.3,890.4 849.6,847.8 798.3,800.9 745.3,749.6  A 1064.250,1064.250 0.00 0,0 742.8,752.2 L 742.8,752.2 796.0,803.3 847.5,849.9 897.2,892.5 945.4,931.2 992.0,966.4 1037.2,998.4 1081.0,1027.5 1123.6,1053.8 1165.0,1077.7 1205.4,1099.4 1244.7,1119.0 1283.3,1136.8 1321.1,1152.9 1358.3,1167.4 1394.9,1180.5 1431.2,1192.4 1467.2,1203.0 1503.1,1212.5 1539.0,1221.0 1575.0,1228.5 1611.3,1234.9 1648.0,1240.5 1685.3,1245.0 1723.3,1248.5 1762.2,1251.0 1802.0,1252.5 1843.1,1252.7 1885.5,1251.7 1929.5,1249.3 1975.1,1245.5 2022.6,1240.0 2072.2,1232.7 2123.9,1223.4 2178.1,1212.0 2234.9,1198.1 2294.5,1181.7 2357.0,1162.5 2422.8,1140.1 2491.9,1114.3  Z" style="stroke-width: 2.0;  stroke: rgb(82,82,82); fill: rgb(255,204,204); opacity: 0.667;" />
<path d="M 2491.901,1114.306 A 1064.250,1064.250 0.00 0,1 2493.3,1117.9 L 2493.3,1117.9 2424.8,1143.9 2361.2,1167.3 2302.3,1188.4 2247.7,1207.2 2197.4,1223.8 2151.0,1238.3 2108.3,1250.9 2069.2,1261.5 2033.5,1270.3 2001.0,1277.4 1971.6,1282.7 1945.2,1286.4 1921.5,1288.5 1900.6,1289.0 1882.2,1287.9 1866.4,1285.2 1853.0,1281.0 1841.9,1275.2 1833.2,1267.8 1826.7,1258.8 1822.6,1248.2 1820.6,1235.9 1820.9,1221.8 1823.5,1206.0 1828.3,1188.2 1835.5,1168.5 1845.0,1146.8 1857.0,1122.9 1871.5,1096.8 1888.6,1068.3 1908.4,1037.3 1931.0,1003.7 1956.6,967.3 1985.2,928.0 2017.1,885.6 2052.4,840.0 2091.2,790.9 2133.8,738.2 2180.4,681.7  A 1064.250,1064.250 0.00 0,0 2177.7,679.5 L 2177.7,679.5 2131.3,736.1 2088.9,789.0 2050.2,838.2 2015.1,883.9 1983.3,926.4 1954.8,965.8 1929.4,1002.3 1906.9,1036.0 1887.2,1067.0 1870.2,1095.6 1855.8,1121.7 1843.9,1145.7 1834.4,1167.4 1827.3,1187.1 1822.5,1204.9 1820.0,1220.8 1819.7,1234.8 1821.7,1247.1 1825.9,1257.7 1832.4,1266.7 1841.1,1274.0 1852.2,1279.8 1865.6,1283.9 1881.5,1286.5 1899.8,1287.5 1920.8,1287.0 1944.4,1284.8 1970.9,1281.0 2000.2,1275.6 2032.7,1268.4 2068.4,1259.5 2107.4,1248.7 2150.0,1236.0 2196.4,1221.3 2246.7,1204.5 2301.2,1185.5 2360.0,1164.3 2423.5,1140.6 2491.9,1114.3  Z" style="stroke-width: 2.0;  stroke: rgb(82,82,82); fill: rgb(255,153,0); opacity: 0.667;" />
<path d="M 2491.901,1114.306 A 1064.250,1064.250 0.00 0,1 2493.3,1117.9 L 2493.3,1117.9 2424.9,1144.0 2361.6,1167.9 2303.1,1189.6 2249.2,1209.3 2199.6,1227.1 2154.1,1243.0 2112.6,1257.1 2074.8,1269.5 2040.6,1280.3 2009.8,1289.5 1982.2,1297.2 1957.8,1303.5 1936.4,1308.3 1918.0,1311.7 1902.3,1313.7 1889.4,1314.5 1879.1,1313.8 1871.5,1311.9 1866.5,1308.5 1864.0,1303.9 1864.1,1297.9 1866.7,1290.4 1871.9,1281.6 1879.8,1271.3 1890.2,1259.5 1903.4,1246.1 1919.4,1231.1 1938.3,1214.4 1960.1,1195.9 1985.0,1175.5 2013.1,1153.3 2044.6,1128.9 2079.6,1102.5 2118.2,1073.7 2160.7,1042.6 2207.2,1009.0 2258.0,972.7 2313.3,933.7 2373.3,891.7  A 1064.250,1064.250 0.00 0,0 2371.3,888.8 L 2371.3,888.8 2311.4,931.0 2256.3,970.2 2205.6,1006.6 2159.2,1040.4 2116.8,1071.7 2078.2,1100.5 2043.3,1127.1 2012.0,1151.5 1983.9,1173.9 1959.1,1194.3 1937.3,1212.9 1918.5,1229.7 1902.6,1244.7 1889.4,1258.1 1879.0,1270.0 1871.2,1280.3 1866.0,1289.2 1863.4,1296.6 1863.3,1302.6 1865.8,1307.3 1870.8,1310.6 1878.5,1312.5 1888.7,1313.1 1901.6,1312.3 1917.3,1310.2 1935.8,1306.7 1957.1,1301.8 1981.5,1295.5 2009.0,1287.7 2039.8,1278.3 2074.0,1267.4 2111.7,1254.9 2153.2,1240.6 2198.6,1224.6 2248.1,1206.6 2302.0,1186.8 2360.4,1164.8 2423.6,1140.7 2491.9,1114.3  Z" style="stroke-width: 2.0;  stroke: rgb(82,82,82); fill: rgb(255,204,0); opacity: 0.667;" />
<path d="M 2491.901,1114.306 A 1064.250,1064.250 0.00 0,1 2493.3,1117.9 L 2493.3,1117.9 2424.9,1144.1 2361.7,1168.2 2303.4,1190.2 2249.7,1210.4 2200.4,1228.7 2155.3,1245.3 2114.2,1260.2 2076.9,1273.5 2043.2,1285.3 2013.0,1295.6 1986.2,1304.5 1962.5,1312.1 1941.9,1318.3 1924.4,1323.3 1909.7,1327.0 1897.8,1329.5 1888.7,1330.8 1882.3,1330.8 1878.5,1329.7 1877.5,1327.4 1879.1,1323.8 1883.3,1319.0 1890.3,1313.0 1900.0,1305.7 1912.5,1297.1 1927.8,1287.1 1946.0,1275.8 1967.3,1262.9 1991.7,1248.6 2019.4,1232.7 2050.4,1215.1 2085.0,1195.8 2123.3,1174.7 2165.5,1151.7 2211.7,1126.7 2262.2,1099.5 2317.3,1070.2 2377.0,1038.5 2441.8,1004.3  A 1064.250,1064.250 0.00 0,0 2440.1,1001.2 L 2440.1,1001.2 2375.5,1035.6 2315.8,1067.5 2260.9,1097.0 2210.5,1124.3 2164.3,1149.5 2122.2,1172.6 2084.0,1193.9 2049.5,1213.3 2018.5,1230.9 1990.9,1246.9 1966.5,1261.4 1945.3,1274.2 1927.1,1285.7 1911.8,1295.7 1899.3,1304.3 1889.7,1311.7 1882.7,1317.7 1878.5,1322.5 1876.9,1326.1 1877.9,1328.4 1881.7,1329.5 1888.1,1329.4 1897.2,1328.1 1909.0,1325.6 1923.7,1321.8 1941.3,1316.8 1961.9,1310.5 1985.5,1302.8 2012.3,1293.8 2042.5,1283.3 2076.1,1271.4 2113.3,1258.0 2154.4,1242.9 2199.4,1226.2 2248.6,1207.7 2302.3,1187.4 2360.5,1165.1 2423.6,1140.8 2491.9,1114.3  Z" style="stroke-width: 2.0;  stroke: rgb(82,82,82); fill: rgb(255,255,0); opacity: 0.667;" />
<path d="M 1486.427,2564.163 A 1064.250,1064.250 0.00 0,1 1482.6,2564.1 L 1482.6,2564.1 1482.7,2490.1 1480.6,2420.1 1476.6,2353.9 1471.0,2291.1 1463.9,2231.5 1455.5,2174.8 1446.0,2120.9 1435.6,2069.5 1424.4,2020.3 1412.6,1973.1 1400.2,1927.8 1387.3,1884.1 1374.1,1841.8 1360.5,1800.8 1346.6,1760.8 1332.6,1721.6 1318.2,1683.1 1303.6,1645.2 1288.8,1607.6 1273.6,1570.2 1258.0,1532.9 1242.0,1495.6 1225.4,1458.0 1208.2,1420.1 1190.2,1381.8 1171.3,1342.9 1151.3,1303.4 1130.0,1263.1 1107.3,1222.0 1082.9,1179.9 1056.6,1136.9 1028.2,1092.7 997.4,1047.5 963.9,1001.1 927.4,953.4 887.7,904.5 844.3,854.2 796.9,802.6 745.3,749.6  A 1064.250,1064.250 0.00 0,0 742.8,752.2 L 742.8,752.2 794.6,805.0 842.1,856.4 885.7,906.5 925.6,955.3 962.2,1002.9 995.9,1049.2 1026.9,1094.3 1055.4,1138.4 1081.9,1181.3 1106.4,1223.3 1129.3,1264.3 1150.7,1304.6 1170.8,1344.0 1189.9,1382.8 1208.0,1421.1 1225.3,1458.9 1242.0,1496.5 1258.2,1533.8 1273.9,1571.0 1289.2,1608.3 1304.2,1645.9 1318.9,1683.8 1333.4,1722.2 1347.6,1761.3 1361.6,1801.3 1375.3,1842.3 1388.7,1884.5 1401.7,1928.2 1414.3,1973.4 1426.3,2020.5 1437.7,2069.7 1448.3,2121.1 1457.9,2175.0 1466.5,2231.6 1473.8,2291.2 1479.7,2353.9 1483.9,2420.2 1486.2,2490.2 1486.4,2564.2  Z" style="stroke-width: 2.0;  stroke: rgb(82,82,82); fill: rgb(204,255,0); opacity: 0.667;" />
<path d="M 1486.427,2564.163 A 1064.250,1064.250 0.00 0,1 1482.6,2564.1 L 1482.6,2564.1 1485.0,2490.1 1489.4,2420.0 1495.6,2353.6 1503.4,2290.5 1512.5,2230.6 1522.8,2173.6 1534.0,2119.2 1546.0,2067.3 1558.6,2017.6 1571.7,1969.8 1585.2,1923.8 1598.9,1879.3 1612.8,1836.2 1626.9,1794.2 1641.0,1753.3 1655.2,1713.1 1669.4,1673.5 1683.6,1634.3 1697.9,1595.4 1712.3,1556.6 1726.8,1517.8 1741.5,1478.9 1756.6,1439.6 1772.0,1399.9 1788.0,1359.6 1804.7,1318.6 1822.3,1276.8 1840.8,1234.1 1860.6,1190.5 1881.8,1145.7 1904.7,1099.8 1929.4,1052.6 1956.3,1004.0 1985.7,954.1 2017.9,902.7 2053.0,849.8 2091.6,795.4 2134.0,739.4 2180.4,681.7  A 1064.250,1064.250 0.00 0,0 2177.7,679.5 L 2177.7,679.5 2131.5,737.3 2089.3,793.5 2050.9,848.0 2015.9,901.0 1983.9,952.5 1954.7,1002.5 1927.9,1051.1 1903.3,1098.4 1880.6,1144.4 1859.6,1189.3 1840.0,1233.0 1821.5,1275.7 1804.1,1317.6 1787.6,1358.6 1771.7,1399.0 1756.4,1438.7 1741.5,1478.1 1726.9,1517.1 1712.5,1555.9 1698.3,1594.7 1684.1,1633.7 1670.0,1672.9 1656.0,1712.5 1641.9,1752.8 1628.0,1793.8 1614.1,1835.8 1600.3,1879.0 1586.7,1923.5 1573.4,1969.5 1560.5,2017.3 1548.0,2067.1 1536.2,2119.1 1525.2,2173.5 1515.1,2230.6 1506.2,2290.5 1498.7,2353.6 1492.7,2420.0 1488.5,2490.1 1486.4,2564.2  Z" style="stroke-width: 2.0;  stroke: rgb(82,82,82); fill: rgb(0,255,0); opacity: 0.667;" />
<path d="M 1486.427,2564.163 A 1064.250,1064.250 0.00 0,1 1482.6,2564.1 L 1482.6,2564.1 1484.9,2490.2 1489.2,2420.6 1495.2,2354.9 1502.7,2292.8 1511.7,2234.1 1521.8,2178.5 1533.0,2125.8 1545.1,2075.7 1558.0,2028.0 1571.6,1982.5 1585.8,1938.9 1600.5,1897.1 1615.7,1856.8 1631.4,1817.8 1647.5,1780.0 1663.9,1743.2 1680.8,1707.3 1698.2,1671.9 1716.0,1637.1 1734.3,1602.7 1753.3,1568.5 1772.9,1534.4 1793.3,1500.3 1814.7,1466.1 1837.1,1431.7 1860.7,1396.9 1885.6,1361.8 1912.1,1326.2 1940.3,1290.1 1970.5,1253.5 2002.9,1216.1 2037.7,1178.1 2075.2,1139.4 2115.7,1100.0 2159.4,1059.9 2206.7,1018.9 2257.9,977.3 2313.3,934.9 2373.3,891.7  A 1064.250,1064.250 0.00 0,0 2371.3,888.8 L 2371.3,888.8 2311.4,932.1 2256.1,974.7 2205.1,1016.6 2157.9,1057.7 2114.3,1098.0 2074.0,1137.5 2036.6,1176.3 2001.9,1214.5 1969.7,1251.9 1939.6,1288.7 1911.5,1324.9 1885.2,1360.5 1860.3,1395.7 1836.9,1430.5 1814.6,1465.0 1793.4,1499.3 1773.0,1533.5 1753.5,1567.6 1734.7,1601.9 1716.5,1636.4 1698.8,1671.3 1681.6,1706.6 1664.8,1742.7 1648.5,1779.5 1632.5,1817.4 1617.0,1856.4 1602.0,1896.7 1587.4,1938.6 1573.3,1982.3 1559.9,2027.8 1547.2,2075.6 1535.2,2125.7 1524.2,2178.4 1514.3,2234.0 1505.6,2292.8 1498.3,2354.9 1492.5,2420.6 1488.5,2490.3 1486.4,2564.2  Z" style="stroke-width: 2.0;  stroke: rgb(82,82,82); fill: rgb(53,128,0); opacity: 0.667;" />
<path d="M 1486.427,2564.163 A 1064.250,1064.250 0.00 0,1 1482.6,2564.1 L 1482.6,2564.1 1484.9,2490.3 1489.0,2420.9 1494.9,2355.4 1502.3,2293.8 1511.1,2235.7 1521.1,2180.7 1532.2,2128.8 1544.2,2079.6 1557.1,2032.9 1570.8,1988.5 1585.1,1946.1 1600.1,1905.6 1615.7,1866.7 1631.8,1829.3 1648.5,1793.1 1665.8,1758.1 1683.6,1724.0 1702.0,1690.7 1721.0,1658.1 1740.8,1625.9 1761.3,1594.2 1782.7,1562.8 1805.1,1531.5 1828.6,1500.3 1853.3,1469.1 1879.4,1437.8 1907.1,1406.3 1936.5,1374.7 1967.8,1342.7 2001.3,1310.5 2037.2,1277.9 2075.7,1245.0 2117.0,1211.7 2161.5,1178.0 2209.5,1143.9 2261.1,1109.5 2316.8,1074.7 2376.9,1039.6 2441.8,1004.3  A 1064.250,1064.250 0.00 0,0 2440.1,1001.2 L 2440.1,1001.2 2375.4,1036.7 2315.4,1072.0 2259.8,1106.9 2208.3,1141.5 2160.4,1175.7 2116.1,1209.6 2074.8,1243.0 2036.5,1276.1 2000.7,1308.8 1967.3,1341.2 1936.1,1373.2 1906.8,1405.0 1879.2,1436.5 1853.2,1467.9 1828.6,1499.2 1805.2,1530.5 1783.0,1561.8 1761.7,1593.3 1741.3,1625.1 1721.6,1657.3 1702.7,1690.0 1684.4,1723.4 1666.7,1757.5 1649.6,1792.6 1633.0,1828.8 1617.0,1866.3 1601.6,1905.2 1586.7,1945.8 1572.5,1988.2 1559.0,2032.7 1546.3,2079.5 1534.4,2128.7 1523.5,2180.7 1513.7,2235.6 1505.2,2293.8 1498.0,2355.5 1492.3,2420.9 1488.4,2490.4 1486.4,2564.2  Z" style="stroke-width: 2.0;  stroke: rgb(82,82,82); fill: rgb(0,0,204); opacity: 0.667;" />
<path d="M 1486.427,2564.163 A 1064.250,1064.250 0.00 0,1 1482.6,2564.1 L 1482.6,2564.1 1484.8,2490.4 1488.9,2421.1 1494.6,2356.0 1501.9,2294.8 1510.5,2237.1 1520.3,2182.8 1531.2,2131.6 1543.1,2083.3 1555.9,2037.5 1569.5,1994.1 1583.9,1952.9 1599.0,1913.7 1614.8,1876.2 1631.2,1840.2 1648.4,1805.7 1666.1,1772.5 1684.6,1740.3 1703.8,1709.0 1723.8,1678.5 1744.6,1648.7 1766.3,1619.5 1789.1,1590.8 1813.0,1562.4 1838.1,1534.2 1864.6,1506.3 1892.7,1478.5 1922.5,1450.8 1954.2,1423.1 1987.9,1395.4 2024.0,1367.7 2062.5,1339.9 2103.9,1312.1 2148.2,1284.3 2195.8,1256.4 2247.0,1228.6 2302.0,1200.7 2361.1,1172.9 2424.8,1145.3 2493.3,1117.9  A 1064.250,1064.250 0.00 0,0 2491.9,1114.3 L 2491.9,1114.3 2423.5,1142.0 2360.0,1169.9 2300.9,1197.8 2246.0,1225.9 2194.9,1253.9 2147.4,1282.0 2103.2,1310.0 2062.0,1337.9 2023.5,1365.8 1987.5,1393.7 1953.9,1421.5 1922.3,1449.3 1892.6,1477.1 1864.7,1505.0 1838.2,1533.0 1813.2,1561.2 1789.4,1589.7 1766.7,1618.6 1745.1,1647.9 1724.4,1677.7 1704.5,1708.3 1685.5,1739.6 1667.1,1771.9 1649.5,1805.2 1632.5,1839.8 1616.1,1875.8 1600.5,1913.3 1585.5,1952.6 1571.3,1993.9 1557.8,2037.3 1545.2,2083.1 1533.4,2131.5 1522.7,2182.8 1513.1,2237.1 1504.7,2294.7 1497.7,2356.0 1492.2,2421.1 1488.4,2490.4 1486.4,2564.2  Z" style="stroke-width: 2.0;  stroke: rgb(82,82,82); fill: rgb(102,153,255); opacity: 0.667;" />
<path d="M 2513.543,1175.409 A 1064.250,1064.250 0.00 0,1 2514.6,1178.8 L 2514.6,1178.8 2443.9,1200.1 2376.8,1218.2 2312.9,1233.4 2252.2,1245.9 2194.4,1256.0 2139.2,1264.0 2086.6,1269.9 2036.2,1274.1 1988.0,1276.7 1941.7,1277.7 1897.1,1277.5 1854.1,1276.1 1812.5,1273.5 1772.1,1269.9 1732.7,1265.4 1694.3,1260.0 1656.6,1253.7 1619.4,1246.6 1582.7,1238.6 1546.2,1229.8 1510.0,1220.1 1473.7,1209.4 1437.3,1197.7 1400.6,1184.9 1363.5,1170.8 1326.0,1155.5 1287.8,1138.7 1248.9,1120.3 1209.2,1100.1 1168.5,1077.9 1126.8,1053.5 1084.0,1026.8 1039.9,997.3 994.6,965.0 947.8,929.5 899.6,890.5 849.8,847.8 798.4,800.9 745.3,749.6  A 1064.250,1064.250 0.00 0,0 742.8,752.2 L 742.8,752.2 796.0,803.3 847.6,850.0 897.5,892.5 945.9,931.4 992.8,966.7 1038.3,998.9 1082.4,1028.1 1125.3,1054.8 1167.1,1079.0 1207.9,1101.1 1247.7,1121.1 1286.6,1139.4 1324.8,1156.1 1362.4,1171.3 1399.5,1185.2 1436.2,1197.9 1472.7,1209.5 1509.0,1220.0 1545.3,1229.6 1581.8,1238.4 1618.6,1246.2 1655.7,1253.2 1693.5,1259.4 1732.0,1264.7 1771.3,1269.0 1811.7,1272.5 1853.4,1274.9 1896.4,1276.2 1941.0,1276.3 1987.3,1275.0 2035.5,1272.3 2085.8,1268.0 2138.4,1261.8 2193.6,1253.7 2251.4,1243.4 2312.0,1230.6 2375.8,1215.2 2442.9,1196.9 2513.5,1175.4  Z" style="stroke-width: 2.0;  stroke: rgb(82,82,82); fill: rgb(153,204,255); opacity: 0.667;" />
<path d="M 2513.543,1175.409 A 1064.250,1064.250 0.00 0,1 2514.6,1178.8 L 2514.6,1178.8 2444.7,1200.6 2379.7,1220.0 2319.5,1237.4 2263.8,1252.6 2212.3,1265.9 2164.9,1277.2 2121.3,1286.8 2081.3,1294.7 2044.8,1300.9 2011.5,1305.5 1981.4,1308.6 1954.2,1310.1 1930.0,1310.2 1908.4,1308.8 1889.5,1305.9 1873.1,1301.6 1859.2,1295.9 1847.6,1288.6 1838.4,1279.9 1831.6,1269.7 1827.0,1257.9 1824.6,1244.5 1824.5,1229.4 1826.7,1212.6 1831.2,1194.0 1838.1,1173.5 1847.3,1151.0 1859.0,1126.5 1873.2,1099.7 1890.0,1070.7 1909.5,1039.2 1931.9,1005.2 1957.2,968.4 1985.7,928.8 2017.4,886.1 2052.6,840.3 2091.3,791.0 2133.9,738.2 2180.4,681.7  A 1064.250,1064.250 0.00 0,0 2177.7,679.5 L 2177.7,679.5 2131.4,736.2 2089.0,789.1 2050.4,838.4 2015.4,884.4 1983.8,927.2 1955.5,966.9 1930.3,1003.7 1908.0,1037.9 1888.6,1069.4 1871.8,1098.5 1857.7,1125.3 1846.1,1149.9 1837.0,1172.4 1830.2,1192.9 1825.8,1211.5 1823.6,1228.3 1823.8,1243.4 1826.2,1256.8 1830.8,1268.6 1837.7,1278.8 1846.9,1287.5 1858.5,1294.7 1872.4,1300.4 1888.8,1304.6 1907.8,1307.4 1929.3,1308.8 1953.6,1308.6 1980.7,1307.0 2010.9,1303.8 2044.1,1299.1 2080.6,1292.8 2120.6,1284.8 2164.1,1275.0 2211.5,1263.5 2263.0,1250.0 2318.6,1234.6 2378.8,1217.1 2443.7,1197.4 2513.5,1175.4  Z" style="stroke-width: 2.0;  stroke: rgb(82,82,82); fill: rgb(0,255,255); opacity: 0.667;" />
<path d="M 2513.543,1175.409 A 1064.250,1064.250 0.00 0,1 2514.6,1178.8 L 2514.6,1178.8 2444.8,1200.7 2380.1,1220.6 2320.3,1238.6 2265.1,1254.8 2214.4,1269.2 2167.9,1282.0 2125.4,1293.1 2086.7,1302.8 2051.6,1311.0 2020.0,1317.8 1991.7,1323.2 1966.6,1327.4 1944.5,1330.2 1925.4,1331.7 1909.2,1332.0 1895.7,1331.1 1884.9,1328.9 1876.8,1325.5 1871.3,1320.9 1868.4,1315.0 1868.1,1307.8 1870.3,1299.3 1875.2,1289.4 1882.6,1278.1 1892.8,1265.4 1905.7,1251.2 1921.4,1235.5 1939.9,1218.1 1961.5,1199.0 1986.2,1178.1 2014.0,1155.3 2045.3,1130.5 2080.1,1103.6 2118.6,1074.5 2160.9,1043.1 2207.4,1009.3 2258.1,972.9 2313.3,933.7 2373.3,891.7  A 1064.250,1064.250 0.00 0,0 2371.3,888.8 L 2371.3,888.8 2311.4,931.0 2256.3,970.3 2205.7,1006.9 2159.4,1040.9 2117.2,1072.5 2078.8,1101.7 2044.1,1128.7 2012.9,1153.5 1985.1,1176.4 1960.5,1197.4 1939.0,1216.6 1920.5,1234.1 1904.8,1249.9 1892.0,1264.1 1881.9,1276.9 1874.5,1288.1 1869.6,1298.0 1867.4,1306.5 1867.8,1313.7 1870.7,1319.6 1876.2,1324.3 1884.3,1327.6 1895.1,1329.8 1908.6,1330.7 1924.9,1330.3 1944.0,1328.7 1966.0,1325.8 1991.1,1321.6 2019.4,1316.1 2051.0,1309.2 2086.0,1300.9 2124.7,1291.1 2167.2,1279.7 2213.6,1266.8 2264.3,1252.2 2319.4,1235.9 2379.1,1217.7 2443.8,1197.6 2513.5,1175.4  Z" style="stroke-width: 2.0;  stroke: rgb(82,82,82); fill: rgb(204,255,255); opacity: 0.667;" />
<path d="M 2513.543,1175.409 A 1064.250,1064.250 0.00 0,1 2514.6,1178.8 L 2514.6,1178.8 2444.8,1200.8 2380.2,1220.9 2320.6,1239.2 2265.6,1255.8 2215.2,1270.8 2169.0,1284.3 2126.9,1296.3 2088.7,1306.8 2054.2,1316.1 2023.1,1324.0 1995.5,1330.6 1971.1,1336.1 1949.9,1340.3 1931.6,1343.4 1916.4,1345.4 1903.9,1346.2 1894.3,1346.0 1887.4,1344.6 1883.2,1342.1 1881.7,1338.5 1882.9,1333.8 1886.7,1327.9 1893.3,1320.9 1902.7,1312.6 1914.8,1303.1 1929.8,1292.4 1947.8,1280.2 1968.8,1266.7 1993.0,1251.7 2020.4,1235.3 2051.3,1217.2 2085.7,1197.4 2123.8,1175.9 2165.8,1152.5 2211.9,1127.2 2262.4,1099.8 2317.3,1070.3 2377.0,1038.5 2441.8,1004.3  A 1064.250,1064.250 0.00 0,0 2440.1,1001.2 L 2440.1,1001.2 2375.5,1035.6 2315.9,1067.6 2261.0,1097.3 2210.7,1124.8 2164.7,1150.3 2122.7,1173.8 2084.6,1195.5 2050.3,1215.3 2019.5,1233.5 1992.2,1250.1 1968.0,1265.2 1947.1,1278.7 1929.1,1290.9 1914.2,1301.8 1902.0,1311.3 1892.7,1319.6 1886.2,1326.6 1882.3,1332.5 1881.1,1337.3 1882.6,1340.8 1886.8,1343.3 1893.7,1344.7 1903.4,1344.9 1915.8,1344.0 1931.1,1342.0 1949.3,1338.8 1970.6,1334.5 1994.9,1329.0 2022.6,1322.2 2053.5,1314.2 2088.1,1304.9 2126.3,1294.2 2168.3,1282.1 2214.4,1268.4 2264.8,1253.3 2319.7,1236.5 2379.3,1218.0 2443.8,1197.6 2513.5,1175.4  Z" style="stroke-width: 2.0;  stroke: rgb(82,82,82); fill: rgb(153,0,204); opacity: 0.667;" />
<path d="M 2513.543,1175.409 A 1064.250,1064.250 0.00 0,1 2514.6,1178.8 L 2514.6,1178.8 2444.8,1200.9 2380.3,1221.2 2320.8,1239.8 2266.1,1256.9 2215.9,1272.4 2170.0,1286.6 2128.2,1299.3 2090.3,1310.8 2056.2,1321.0 2025.6,1330.0 1998.5,1337.9 1974.7,1344.7 1954.1,1350.4 1936.5,1355.0 1921.9,1358.6 1910.3,1361.3 1901.5,1362.9 1895.5,1363.6 1892.3,1363.3 1891.9,1362.0 1894.2,1359.8 1899.3,1356.6 1907.2,1352.4 1917.9,1347.2 1931.6,1340.9 1948.2,1333.6 1967.9,1325.2 1990.7,1315.6 2016.8,1304.8 2046.3,1292.8 2079.3,1279.5 2116.1,1264.8 2156.7,1248.7 2201.4,1231.1 2250.3,1212.0 2303.7,1191.1 2361.9,1168.6 2425.0,1144.2 2493.3,1117.9  A 1064.250,1064.250 0.00 0,0 2491.9,1114.3 L 2491.9,1114.3 2423.7,1140.9 2360.7,1165.5 2302.6,1188.3 2249.3,1209.3 2200.4,1228.6 2155.8,1246.4 2115.2,1262.6 2078.5,1277.4 2045.5,1290.9 2016.1,1303.0 1990.0,1313.8 1967.2,1323.5 1947.6,1332.0 1931.0,1339.4 1917.4,1345.7 1906.7,1351.0 1898.8,1355.2 1893.7,1358.4 1891.4,1360.7 1891.8,1361.9 1895.0,1362.2 1901.0,1361.5 1909.8,1359.8 1921.5,1357.2 1936.0,1353.5 1953.5,1348.8 1974.2,1343.1 1998.0,1336.2 2025.0,1328.3 2055.6,1319.2 2089.7,1308.8 2127.5,1297.2 2169.2,1284.3 2215.1,1270.0 2265.2,1254.3 2319.9,1237.1 2379.4,1218.2 2443.8,1197.7 2513.5,1175.4  Z" style="stroke-width: 2.0;  stroke: rgb(82,82,82); fill: rgb(204,51,255); opacity: 0.667;" />
<path d="M 2513.543,1175.409 A 1064.250,1064.250 0.00 0,1 2514.6,1178.8 L 2514.6,1178.8 2444.6,1202.0 2379.5,1225.6 2318.9,1249.6 2262.4,1273.9 2209.9,1298.5 2161.0,1323.2 2115.4,1348.1 2072.8,1373.1 2033.1,1398.3 1995.9,1423.5 1961.1,1448.9 1928.5,1474.5 1897.8,1500.2 1868.9,1526.1 1841.6,1552.2 1815.7,1578.7 1791.2,1605.6 1767.8,1632.9 1745.6,1660.8 1724.3,1689.3 1704.0,1718.6 1684.5,1748.8 1665.8,1780.0 1647.8,1812.3 1630.6,1846.0 1614.0,1881.1 1598.2,1917.9 1583.0,1956.4 1568.7,1997.1 1555.1,2039.9 1542.4,2085.2 1530.6,2133.1 1519.8,2183.9 1510.1,2237.9 1501.6,2295.2 1494.5,2356.3 1488.8,2421.2 1484.8,2490.4 1482.6,2564.1  A 1064.250,1064.250 0.00 0,0 1486.4,2564.2 L 1486.4,2564.2 1488.4,2490.5 1492.1,2421.3 1497.5,2356.3 1504.5,2295.2 1512.7,2237.8 1522.2,2183.8 1532.8,2133.0 1544.5,2085.0 1557.0,2039.7 1570.5,1996.8 1584.7,1956.2 1599.7,1917.5 1615.4,1880.7 1631.8,1845.5 1648.9,1811.8 1666.8,1779.4 1685.4,1748.2 1704.8,1717.9 1725.0,1688.6 1746.2,1660.0 1768.3,1632.0 1791.6,1604.6 1816.0,1577.7 1841.8,1551.1 1869.0,1524.8 1897.8,1498.8 1928.4,1473.0 1961.0,1447.4 1995.7,1421.9 2032.7,1396.5 2072.4,1371.2 2114.9,1346.0 2160.4,1321.0 2209.2,1296.1 2261.7,1271.4 2318.0,1246.9 2378.6,1222.7 2443.6,1198.8 2513.5,1175.4  Z" style="stroke-width: 2.0;  stroke: rgb(82,82,82); fill: rgb(204,153,255); opacity: 0.667;" />
<path d="M 2558.268,1387.319 A 1064.250,1064.250 0.00 0,1 2558.6,1390.9 L 2558.6,1390.9 2485.0,1397.3 2415.2,1401.3 2349.1,1403.1 2286.3,1403.0 2226.7,1401.0 2170.0,1397.6 2115.9,1392.7 2064.3,1386.7 2015.0,1379.7 1967.7,1371.7 1922.1,1363.0 1878.3,1353.6 1835.8,1343.6 1794.6,1333.0 1754.4,1322.0 1715.2,1310.6 1676.6,1298.7 1638.6,1286.4 1601.0,1273.7 1563.7,1260.5 1526.4,1246.8 1489.2,1232.4 1451.7,1217.4 1414.0,1201.6 1375.9,1185.0 1337.2,1167.3 1297.9,1148.3 1257.8,1128.1 1216.9,1106.3 1175.1,1082.7 1132.3,1057.2 1088.4,1029.4 1043.3,999.2 997.0,966.2 949.5,930.3 900.5,890.9 850.2,848.0 798.5,801.0 745.3,749.6  A 1064.250,1064.250 0.00 0,0 742.8,752.2 L 742.8,752.2 796.2,803.3 848.1,850.1 898.5,892.9 947.6,932.1 995.3,967.9 1041.7,1000.7 1086.8,1030.8 1130.8,1058.4 1173.7,1083.8 1215.6,1107.2 1256.6,1128.9 1296.7,1149.0 1336.1,1167.8 1374.8,1185.4 1413.0,1201.9 1450.8,1217.6 1488.3,1232.5 1525.6,1246.7 1562.9,1260.3 1600.3,1273.4 1637.9,1286.0 1675.9,1298.1 1714.5,1309.9 1753.8,1321.2 1794.0,1332.0 1835.3,1342.4 1877.8,1352.3 1921.7,1361.6 1967.2,1370.2 2014.6,1378.0 2064.0,1384.8 2115.6,1390.7 2169.6,1395.3 2226.4,1398.6 2286.0,1400.3 2348.7,1400.3 2414.9,1398.3 2484.6,1394.0 2558.3,1387.3  Z" style="stroke-width: 2.0;  stroke: rgb(82,82,82); fill: rgb(102,102,102); opacity: 0.667;" />
<path d="M 2558.268,1387.319 A 1064.250,1064.250 0.00 0,1 2558.6,1390.9 L 2558.6,1390.9 2485.7,1397.9 2418.0,1403.5 2355.2,1407.7 2297.2,1410.6 2243.5,1412.3 2194.1,1412.8 2148.7,1412.1 2107.1,1410.3 2069.0,1407.5 2034.3,1403.6 2002.8,1398.7 1974.4,1392.8 1948.9,1385.8 1926.2,1377.8 1906.3,1368.8 1888.8,1358.8 1873.9,1347.7 1861.4,1335.4 1851.3,1322.0 1843.5,1307.4 1838.1,1291.5 1834.8,1274.4 1833.9,1255.8 1835.3,1235.7 1838.9,1214.1 1844.9,1190.8 1853.4,1165.8 1864.3,1138.9 1877.7,1110.0 1893.8,1079.0 1912.7,1045.8 1934.4,1010.3 1959.2,972.2 1987.1,931.4 2018.3,887.8 2053.1,841.2 2091.6,791.5 2133.9,738.3 2180.4,681.7  A 1064.250,1064.250 0.00 0,0 2177.7,679.5 L 2177.7,679.5 2131.4,736.3 2089.2,789.5 2050.9,839.4 2016.3,886.1 1985.2,929.8 1957.4,970.7 1932.8,1008.8 1911.2,1044.5 1892.4,1077.7 1876.4,1108.8 1863.1,1137.7 1852.3,1164.6 1843.9,1189.7 1838.0,1213.0 1834.4,1234.6 1833.1,1254.7 1834.1,1273.2 1837.4,1290.4 1842.9,1306.3 1850.7,1320.8 1860.9,1334.2 1873.4,1346.4 1888.4,1357.5 1905.8,1367.5 1925.8,1376.4 1948.5,1384.3 1974.0,1391.2 2002.5,1397.0 2034.0,1401.8 2068.7,1405.6 2106.8,1408.3 2148.4,1409.9 2193.8,1410.5 2243.2,1409.8 2296.9,1408.0 2354.9,1404.9 2417.6,1400.4 2485.3,1394.6 2558.3,1387.3  Z" style="stroke-width: 2.0;  stroke: rgb(82,82,82); fill: rgb(153,153,153); opacity: 0.667;" />
<path d="M 2558.268,1387.319 A 1064.250,1064.250 0.00 0,1 2558.6,1390.9 L 2558.6,1390.9 2485.8,1398.1 2418.2,1404.1 2355.9,1409.0 2298.3,1412.9 2245.4,1415.8 2196.8,1417.7 2152.3,1418.7 2111.8,1418.8 2075.1,1418.0 2041.9,1416.3 2012.2,1413.8 1985.7,1410.5 1962.3,1406.4 1942.0,1401.4 1924.6,1395.6 1910.1,1389.0 1898.3,1381.5 1889.2,1373.1 1882.7,1363.7 1878.9,1353.4 1877.7,1342.2 1879.1,1329.9 1883.1,1316.5 1889.8,1301.9 1899.2,1286.2 1911.4,1269.1 1926.4,1250.8 1944.3,1231.0 1965.2,1209.7 1989.2,1186.8 2016.6,1162.2 2047.3,1135.8 2081.6,1107.6 2119.7,1077.3 2161.7,1044.9 2207.8,1010.3 2258.3,973.3 2313.4,933.8 2373.3,891.7  A 1064.250,1064.250 0.00 0,0 2371.3,888.8 L 2371.3,888.8 2311.5,931.1 2256.5,970.8 2206.2,1008.0 2160.1,1042.7 2118.3,1075.3 2080.3,1105.6 2046.1,1134.0 2015.4,1160.5 1988.2,1185.2 1964.2,1208.1 1943.4,1229.5 1925.5,1249.4 1910.6,1267.8 1898.5,1284.8 1889.2,1300.6 1882.5,1315.2 1878.5,1328.6 1877.2,1340.9 1878.4,1352.2 1882.3,1362.5 1888.7,1371.8 1897.9,1380.1 1909.7,1387.6 1924.3,1394.2 1941.7,1400.0 1962.0,1404.9 1985.4,1408.9 2011.9,1412.1 2041.6,1414.5 2074.8,1416.0 2111.6,1416.7 2152.1,1416.5 2196.5,1415.4 2245.1,1413.3 2298.0,1410.2 2355.5,1406.2 2417.9,1401.0 2485.4,1394.8 2558.3,1387.3  Z" style="stroke-width: 2.0;  stroke: rgb(82,82,82); fill: rgb(204,204,204); opacity: 0.667;" />
<path d="M 2558.268,1387.319 A 1064.250,1064.250 0.00 0,1 2558.6,1390.9 L 2558.6,1390.9 2485.8,1398.1 2418.4,1404.4 2356.1,1409.7 2298.7,1414.0 2246.0,1417.5 2197.7,1420.1 2153.6,1421.9 2113.5,1422.9 2077.3,1423.2 2044.6,1422.7 2015.5,1421.4 1989.7,1419.4 1967.1,1416.8 1947.7,1413.4 1931.2,1409.2 1917.6,1404.4 1906.9,1398.8 1899.0,1392.4 1893.9,1385.3 1891.5,1377.3 1891.8,1368.5 1894.8,1358.8 1900.6,1348.2 1909.2,1336.7 1920.7,1324.1 1935.0,1310.5 1952.3,1295.7 1972.7,1279.8 1996.3,1262.6 2023.1,1244.1 2053.5,1224.2 2087.4,1202.9 2125.1,1179.9 2166.8,1155.4 2212.6,1129.1 2262.7,1100.9 2317.5,1070.8 2377.1,1038.6 2441.8,1004.3  A 1064.250,1064.250 0.00 0,0 2440.1,1001.2 L 2440.1,1001.2 2375.5,1035.7 2316.1,1068.1 2261.4,1098.3 2211.3,1126.7 2165.6,1153.1 2124.0,1177.9 2086.4,1200.9 2052.5,1222.4 2022.3,1242.4 1995.5,1261.0 1972.0,1278.2 1951.6,1294.2 1934.4,1309.0 1920.1,1322.7 1908.7,1335.3 1900.1,1346.9 1894.4,1357.5 1891.3,1367.2 1891.1,1376.0 1893.5,1383.9 1898.7,1391.1 1906.6,1397.4 1917.3,1403.0 1930.9,1407.8 1947.4,1411.9 1966.8,1415.2 1989.4,1417.8 2015.2,1419.7 2044.4,1420.8 2077.0,1421.2 2113.3,1420.9 2153.4,1419.7 2197.4,1417.8 2245.7,1415.0 2298.4,1411.3 2355.8,1406.8 2418.0,1401.3 2485.4,1394.8 2558.3,1387.3  Z" style="stroke-width: 2.0;  stroke: rgb(82,82,82); fill: rgb(204,204,153); opacity: 0.667;" />
<path d="M 2558.268,1387.319 A 1064.250,1064.250 0.00 0,1 2558.6,1390.9 L 2558.6,1390.9 2485.8,1398.2 2418.4,1404.7 2356.3,1410.3 2299.0,1415.1 2246.5,1419.1 2198.4,1422.4 2154.6,1425.0 2114.8,1427.0 2078.9,1428.2 2046.7,1428.8 2018.1,1428.8 1992.8,1428.2 1970.8,1427.0 1951.9,1425.1 1936.1,1422.7 1923.4,1419.6 1913.5,1415.9 1906.5,1411.6 1902.3,1406.6 1901.0,1401.0 1902.4,1394.7 1906.7,1387.7 1913.9,1379.9 1923.9,1371.4 1936.8,1362.1 1952.8,1351.9 1971.9,1340.8 1994.1,1328.8 2019.7,1315.8 2048.7,1301.8 2081.3,1286.7 2117.6,1270.4 2157.8,1252.8 2202.2,1234.0 2250.9,1213.8 2304.1,1192.2 2362.0,1169.1 2425.0,1144.3 2493.3,1117.9  A 1064.250,1064.250 0.00 0,0 2491.9,1114.3 L 2491.9,1114.3 2423.7,1141.0 2360.8,1166.0 2302.9,1189.3 2249.8,1211.1 2201.2,1231.5 2156.9,1250.5 2116.8,1268.2 2080.5,1284.6 2048.0,1299.8 2019.0,1314.0 1993.5,1327.1 1971.3,1339.2 1952.3,1350.3 1936.3,1360.5 1923.4,1369.9 1913.4,1378.5 1906.3,1386.3 1902.1,1393.3 1900.6,1399.6 1902.0,1405.3 1906.2,1410.2 1913.2,1414.5 1923.1,1418.2 1935.9,1421.2 1951.7,1423.6 1970.5,1425.4 1992.5,1426.5 2017.8,1427.1 2046.5,1427.0 2078.7,1426.3 2114.6,1424.9 2154.4,1422.9 2198.2,1420.1 2246.2,1416.6 2298.7,1412.4 2356.0,1407.4 2418.1,1401.6 2485.5,1394.9 2558.3,1387.3  Z" style="stroke-width: 2.0;  stroke: rgb(82,82,82); fill: rgb(251,106,74); opacity: 0.667;" />
<path d="M 2558.268,1387.319 A 1064.250,1064.250 0.00 0,1 2558.6,1390.9 L 2558.6,1390.9 2485.5,1399.3 2417.2,1409.1 2353.4,1419.9 2293.9,1431.8 2238.3,1444.7 2186.4,1458.5 2137.9,1473.0 2092.5,1488.3 2050.1,1504.3 2010.4,1521.0 1973.2,1538.3 1938.3,1556.3 1905.5,1574.9 1874.7,1594.2 1845.6,1614.2 1818.2,1634.9 1792.2,1656.4 1767.6,1678.6 1744.3,1701.8 1722.1,1726.0 1701.1,1751.2 1681.0,1777.6 1661.8,1805.3 1643.6,1834.5 1626.2,1865.2 1609.7,1897.6 1593.9,1931.8 1579.0,1968.2 1565.0,2006.7 1551.8,2047.7 1539.5,2091.3 1528.1,2137.8 1517.8,2187.4 1508.6,2240.3 1500.6,2296.8 1493.9,2357.1 1488.5,2421.6 1484.7,2490.5 1482.6,2564.1  A 1064.250,1064.250 0.00 0,0 1486.4,2564.2 L 1486.4,2564.2 1488.3,2490.6 1491.8,2421.6 1496.9,2357.2 1503.5,2296.8 1511.3,2240.3 1520.3,2187.3 1530.4,2137.7 1541.6,2091.2 1553.7,2047.5 1566.8,2006.5 1580.7,1967.9 1595.5,1931.5 1611.1,1897.2 1627.5,1864.7 1644.8,1834.0 1662.9,1804.8 1682.0,1777.0 1702.0,1750.5 1723.0,1725.2 1745.0,1701.0 1768.3,1677.7 1792.8,1655.4 1818.6,1633.8 1846.0,1613.0 1875.0,1593.0 1905.8,1573.6 1938.5,1554.8 1973.4,1536.7 2010.5,1519.3 2050.2,1502.5 2092.5,1486.3 2137.8,1470.9 2186.2,1456.2 2238.1,1442.2 2293.6,1429.2 2353.1,1417.1 2416.9,1406.0 2485.1,1396.0 2558.3,1387.3  Z" style="stroke-width: 2.0;  stroke: rgb(82,82,82); fill: rgb(116,196,118); opacity: 0.667;" />
<path d="M 2558.268,1387.319 A 1064.250,1064.250 0.00 0,1 2558.6,1390.9 L 2558.6,1390.9 2485.8,1398.2 2418.5,1404.8 2356.3,1410.6 2299.2,1415.6 2246.7,1420.0 2198.7,1423.7 2155.0,1426.7 2115.4,1429.1 2079.6,1430.9 2047.6,1432.1 2019.1,1432.8 1994.1,1432.8 1972.3,1432.4 1953.7,1431.4 1938.2,1429.8 1925.8,1427.7 1916.2,1425.0 1909.6,1421.8 1905.9,1418.0 1905.0,1413.7 1906.9,1408.7 1911.7,1403.1 1919.4,1396.9 1930.0,1390.0 1943.6,1382.4 1960.2,1374.1 1980.0,1365.0 2003.0,1355.1 2029.4,1344.3 2059.3,1332.7 2092.8,1320.1 2130.1,1306.5 2171.4,1291.9 2216.9,1276.2 2266.7,1259.3 2321.2,1241.2 2380.5,1221.8 2444.9,1201.0 2514.6,1178.8  A 1064.250,1064.250 0.00 0,0 2513.5,1175.4 L 2513.5,1175.4 2443.9,1197.9 2379.5,1218.8 2320.3,1238.5 2265.9,1256.8 2216.1,1273.8 2170.7,1289.7 2129.4,1304.4 2092.2,1318.1 2058.7,1330.8 2028.9,1342.6 2002.5,1353.4 1979.5,1363.4 1959.8,1372.5 1943.2,1380.9 1929.6,1388.6 1919.0,1395.5 1911.4,1401.7 1906.6,1407.3 1904.7,1412.3 1905.6,1416.7 1909.4,1420.4 1916.0,1423.6 1925.5,1426.3 1938.0,1428.3 1953.5,1429.8 1972.1,1430.8 1993.8,1431.2 2018.9,1431.0 2047.4,1430.3 2079.4,1429.0 2115.2,1427.0 2154.8,1424.5 2198.5,1421.3 2246.4,1417.5 2298.9,1413.0 2356.0,1407.7 2418.1,1401.7 2485.5,1394.9 2558.3,1387.3  Z" style="stroke-width: 2.0;  stroke: rgb(82,82,82); fill: rgb(107,174,214); opacity: 0.667;" />
<path d="M 2557.046,1376.377 A 1064.250,1064.250 0.00 0,1 2557.5,1380.1 L 2557.5,1380.1 2483.9,1387.3 2414.2,1392.1 2348.1,1394.5 2285.4,1395.0 2225.8,1393.7 2169.1,1390.8 2115.1,1386.5 2063.5,1381.0 2014.1,1374.4 1966.8,1366.9 1921.3,1358.6 1877.4,1349.6 1835.0,1340.0 1793.8,1329.8 1753.6,1319.1 1714.4,1308.0 1675.8,1296.4 1637.9,1284.4 1600.3,1271.9 1563.0,1258.9 1525.7,1245.4 1488.5,1231.2 1451.1,1216.4 1413.4,1200.8 1375.3,1184.2 1336.7,1166.6 1297.4,1147.8 1257.4,1127.7 1216.6,1105.9 1174.8,1082.4 1132.0,1057.0 1088.2,1029.3 1043.2,999.1 996.9,966.2 949.4,930.2 900.5,890.9 850.2,848.0 798.5,801.0 745.3,749.6  A 1064.250,1064.250 0.00 0,0 742.8,752.2 L 742.8,752.2 796.2,803.3 848.0,850.1 898.5,892.9 947.5,932.1 995.1,967.9 1041.5,1000.6 1086.6,1030.6 1130.6,1058.2 1173.4,1083.5 1215.3,1106.9 1256.2,1128.5 1296.2,1148.5 1335.5,1167.2 1374.2,1184.6 1412.4,1201.0 1450.1,1216.6 1487.6,1231.3 1524.9,1245.3 1562.1,1258.7 1599.5,1271.5 1637.1,1283.9 1675.1,1295.8 1713.7,1307.2 1753.0,1318.2 1793.2,1328.8 1834.4,1338.8 1876.9,1348.3 1920.8,1357.1 1966.3,1365.3 2013.7,1372.6 2063.1,1379.0 2114.7,1384.3 2168.7,1388.4 2225.4,1391.1 2285.0,1392.2 2347.7,1391.5 2413.8,1388.8 2483.5,1383.9 2557.0,1376.4  Z" style="stroke-width: 2.0;  stroke: rgb(82,82,82); fill: rgb(253,141,60); opacity: 0.667;" />
<path d="M 2557.046,1376.377 A 1064.250,1064.250 0.00 0,1 2557.5,1380.1 L 2557.5,1380.1 2484.6,1387.9 2417.0,1394.2 2354.3,1399.1 2296.3,1402.6 2242.7,1404.9 2193.3,1405.9 2147.9,1405.8 2106.3,1404.5 2068.3,1402.1 2033.6,1398.6 2002.2,1394.1 1973.8,1388.6 1948.3,1382.0 1925.7,1374.3 1905.7,1365.6 1888.3,1355.9 1873.4,1345.0 1861.0,1333.0 1850.9,1319.9 1843.1,1305.5 1837.6,1289.8 1834.4,1272.8 1833.5,1254.4 1834.9,1234.5 1838.6,1213.1 1844.7,1189.9 1853.1,1165.0 1864.0,1138.3 1877.5,1109.5 1893.6,1078.6 1912.5,1045.5 1934.3,1010.0 1959.1,972.0 1987.0,931.3 2018.3,887.7 2053.1,841.2 2091.5,791.4 2133.9,738.3 2180.4,681.7  A 1064.250,1064.250 0.00 0,0 2177.7,679.5 L 2177.7,679.5 2131.4,736.3 2089.2,789.5 2050.9,839.4 2016.3,886.0 1985.1,929.7 1957.3,970.5 1932.7,1008.6 1911.0,1044.1 1892.3,1077.3 1876.2,1108.2 1862.8,1137.0 1852.0,1163.9 1843.6,1188.8 1837.7,1211.9 1834.0,1233.4 1832.7,1253.3 1833.7,1271.7 1836.9,1288.7 1842.5,1304.3 1850.3,1318.7 1860.4,1331.8 1872.9,1343.7 1887.8,1354.5 1905.2,1364.2 1925.2,1372.9 1947.9,1380.4 1973.4,1386.9 2001.8,1392.4 2033.3,1396.8 2067.9,1400.1 2106.0,1402.3 2147.6,1403.5 2193.0,1403.5 2242.4,1402.3 2295.9,1399.8 2353.9,1396.1 2416.6,1391.0 2484.2,1384.4 2557.0,1376.4  Z" style="stroke-width: 2.0;  stroke: rgb(82,82,82); fill: rgb(255,0,0); opacity: 0.667;" />
<path d="M 2557.046,1376.377 A 1064.250,1064.250 0.00 0,1 2557.5,1380.1 L 2557.5,1380.1 2484.7,1388.1 2417.2,1394.8 2354.9,1400.4 2297.4,1404.9 2244.5,1408.4 2196.0,1410.8 2151.6,1412.3 2111.1,1412.9 2074.4,1412.5 2041.3,1411.3 2011.6,1409.3 1985.1,1406.3 1961.8,1402.5 1941.5,1397.9 1924.1,1392.4 1909.6,1386.0 1897.8,1378.8 1888.7,1370.6 1882.3,1361.6 1878.5,1351.5 1877.4,1340.4 1878.8,1328.3 1882.8,1315.1 1889.6,1300.7 1899.0,1285.1 1911.2,1268.2 1926.2,1250.0 1944.1,1230.3 1965.0,1209.1 1989.1,1186.3 2016.5,1161.9 2047.2,1135.6 2081.5,1107.4 2119.6,1077.2 2161.6,1044.8 2207.8,1010.3 2258.3,973.3 2313.4,933.8 2373.3,891.7  A 1064.250,1064.250 0.00 0,0 2371.3,888.8 L 2371.3,888.8 2311.5,931.1 2256.5,970.8 2206.1,1007.9 2160.1,1042.6 2118.2,1075.1 2080.2,1105.4 2046.0,1133.7 2015.3,1160.1 1988.1,1184.7 1964.1,1207.6 1943.2,1228.8 1925.3,1248.6 1910.4,1266.9 1898.3,1283.8 1888.9,1299.4 1882.2,1313.8 1878.2,1327.0 1876.8,1339.1 1878.0,1350.2 1881.9,1360.2 1888.3,1369.3 1897.4,1377.4 1909.2,1384.6 1923.8,1390.9 1941.2,1396.4 1961.5,1400.9 1984.8,1404.6 2011.3,1407.5 2041.0,1409.4 2074.1,1410.5 2110.8,1410.7 2151.3,1410.0 2195.7,1408.4 2244.2,1405.7 2297.1,1402.1 2354.6,1397.4 2416.9,1391.6 2484.3,1384.6 2557.0,1376.4  Z" style="stroke-width: 2.0;  stroke: rgb(82,82,82); fill: rgb(255,0,204); opacity: 0.667;" />
<path d="M 2557.046,1376.377 A 1064.250,1064.250 0.00 0,1 2557.5,1380.1 L 2557.5,1380.1 2484.7,1388.1 2417.3,1395.1 2355.1,1401.0 2297.8,1406.0 2245.2,1410.0 2196.9,1413.2 2152.9,1415.5 2112.9,1417.0 2076.6,1417.7 2044.0,1417.7 2014.9,1416.8 1989.2,1415.2 1966.6,1412.9 1947.2,1409.8 1930.7,1406.0 1917.2,1401.4 1906.5,1396.1 1898.6,1390.0 1893.5,1383.1 1891.1,1375.3 1891.5,1366.7 1894.6,1357.3 1900.4,1346.8 1909.0,1335.4 1920.5,1323.0 1934.8,1309.6 1952.1,1294.9 1972.5,1279.1 1996.1,1262.1 2023.0,1243.7 2053.4,1223.9 2087.3,1202.6 2125.0,1179.7 2166.7,1155.2 2212.5,1129.0 2262.7,1100.8 2317.5,1070.8 2377.1,1038.6 2441.8,1004.3  A 1064.250,1064.250 0.00 0,0 2440.1,1001.2 L 2440.1,1001.2 2375.5,1035.7 2316.0,1068.0 2261.4,1098.3 2211.3,1126.6 2165.6,1153.0 2124.0,1177.7 2086.3,1200.6 2052.5,1222.0 2022.2,1241.9 1995.3,1260.4 1971.8,1277.6 1951.4,1293.4 1934.2,1308.1 1919.9,1321.6 1908.4,1334.1 1899.9,1345.5 1894.1,1355.9 1891.0,1365.4 1890.7,1374.0 1893.1,1381.7 1898.3,1388.6 1906.2,1394.7 1916.9,1400.0 1930.4,1404.5 1946.9,1408.3 1966.3,1411.3 1988.9,1413.5 2014.6,1415.0 2043.7,1415.7 2076.3,1415.7 2112.6,1414.9 2152.6,1413.2 2196.6,1410.8 2244.9,1407.4 2297.5,1403.2 2354.8,1398.0 2417.0,1391.8 2484.3,1384.7 2557.0,1376.4  Z" style="stroke-width: 2.0;  stroke: rgb(82,82,82); fill: rgb(255,204,204); opacity: 0.667;" />
<path d="M 2557.046,1376.377 A 1064.250,1064.250 0.00 0,1 2557.5,1380.1 L 2557.5,1380.1 2484.7,1388.2 2417.4,1395.4 2355.3,1401.6 2298.2,1407.1 2245.7,1411.7 2197.7,1415.6 2153.9,1418.7 2114.2,1421.1 2078.3,1422.8 2046.1,1423.8 2017.5,1424.2 1992.3,1424.0 1970.3,1423.1 1951.5,1421.6 1935.7,1419.4 1923.0,1416.6 1913.1,1413.2 1906.2,1409.2 1902.0,1404.4 1900.7,1399.0 1902.2,1392.9 1906.5,1386.1 1913.6,1378.6 1923.7,1370.2 1936.6,1361.0 1952.6,1351.0 1971.7,1340.0 1994.0,1328.2 2019.6,1315.3 2048.6,1301.3 2081.2,1286.3 2117.5,1270.1 2157.8,1252.6 2202.2,1233.9 2250.8,1213.7 2304.0,1192.2 2362.0,1169.0 2425.0,1144.3 2493.3,1117.9  A 1064.250,1064.250 0.00 0,0 2491.9,1114.3 L 2491.9,1114.3 2423.7,1141.0 2360.8,1165.9 2302.9,1189.3 2249.8,1211.0 2201.2,1231.4 2156.9,1250.3 2116.7,1267.9 2080.4,1284.2 2047.9,1299.4 2018.9,1313.4 1993.4,1326.4 1971.1,1338.4 1952.1,1349.4 1936.1,1359.5 1923.2,1368.7 1913.2,1377.1 1906.1,1384.7 1901.8,1391.5 1900.3,1397.6 1901.7,1403.0 1905.8,1407.7 1912.8,1411.8 1922.7,1415.1 1935.4,1417.9 1951.2,1420.0 1970.0,1421.4 1992.0,1422.2 2017.2,1422.4 2045.9,1421.9 2078.0,1420.8 2113.9,1418.9 2153.6,1416.4 2197.4,1413.1 2245.4,1409.1 2297.8,1404.3 2355.0,1398.6 2417.0,1392.1 2484.3,1384.7 2557.0,1376.4  Z" style="stroke-width: 2.0;  stroke: rgb(82,82,82); fill: rgb(255,153,0); opacity: 0.667;" />
<path d="M 2557.046,1376.377 A 1064.250,1064.250 0.00 0,1 2557.5,1380.1 L 2557.5,1380.1 2484.4,1389.3 2416.2,1399.8 2352.5,1411.3 2293.1,1423.8 2237.6,1437.3 2185.8,1451.6 2137.3,1466.7 2092.1,1482.5 2049.8,1499.0 2010.2,1516.1 1973.0,1533.8 1938.2,1552.2 1905.5,1571.2 1874.7,1590.8 1845.7,1611.1 1818.3,1632.1 1792.4,1653.8 1767.8,1676.3 1744.5,1699.8 1722.4,1724.2 1701.3,1749.6 1681.3,1776.2 1662.1,1804.1 1643.9,1833.4 1626.5,1864.2 1609.9,1896.7 1594.2,1931.1 1579.3,1967.6 1565.2,2006.2 1552.0,2047.3 1539.6,2091.0 1528.3,2137.6 1517.9,2187.2 1508.7,2240.2 1500.6,2296.7 1493.9,2357.1 1488.5,2421.6 1484.7,2490.5 1482.6,2564.1  A 1064.250,1064.250 0.00 0,0 1486.4,2564.2 L 1486.4,2564.2 1488.3,2490.5 1491.9,2421.6 1497.0,2357.1 1503.5,2296.7 1511.4,2240.2 1520.4,2187.2 1530.6,2137.5 1541.8,2090.9 1553.9,2047.1 1567.0,2006.0 1580.9,1967.3 1595.7,1930.8 1611.4,1896.4 1627.8,1863.8 1645.1,1832.9 1663.2,1803.5 1682.3,1775.6 1702.2,1748.9 1723.2,1723.4 1745.3,1698.9 1768.5,1675.4 1792.9,1652.8 1818.8,1630.9 1846.1,1609.9 1875.0,1589.5 1905.7,1569.7 1938.4,1550.6 1973.2,1532.2 2010.2,1514.3 2049.8,1497.0 2092.0,1480.4 2137.2,1464.4 2185.6,1449.2 2237.4,1434.7 2292.8,1421.0 2352.2,1408.3 2415.8,1396.5 2484.0,1385.9 2557.0,1376.4  Z" style="stroke-width: 2.0;  stroke: rgb(82,82,82); fill: rgb(255,204,0); opacity: 0.667;" />
<path d="M 2557.046,1376.377 A 1064.250,1064.250 0.00 0,1 2557.5,1380.1 L 2557.5,1380.1 2484.7,1388.2 2417.5,1395.5 2355.4,1402.0 2298.3,1407.6 2245.9,1412.6 2198.0,1416.8 2154.3,1420.3 2114.7,1423.2 2079.0,1425.5 2047.0,1427.1 2018.6,1428.2 1993.6,1428.6 1971.8,1428.5 1953.3,1427.8 1937.8,1426.5 1925.4,1424.7 1915.9,1422.3 1909.3,1419.4 1905.6,1415.8 1904.7,1411.7 1906.6,1406.9 1911.5,1401.5 1919.2,1395.5 1929.8,1388.8 1943.4,1381.3 1960.1,1373.1 1979.8,1364.2 2002.9,1354.4 2029.3,1343.8 2059.2,1332.2 2092.7,1319.7 2130.0,1306.3 2171.4,1291.7 2216.8,1276.1 2266.7,1259.2 2321.2,1241.1 2380.5,1221.8 2444.9,1201.0 2514.6,1178.8  A 1064.250,1064.250 0.00 0,0 2513.5,1175.4 L 2513.5,1175.4 2443.9,1197.9 2379.5,1218.8 2320.3,1238.4 2265.9,1256.7 2216.1,1273.7 2170.7,1289.5 2129.4,1304.2 2092.1,1317.8 2058.6,1330.4 2028.8,1342.0 2002.4,1352.7 1979.4,1362.6 1959.6,1371.6 1943.0,1379.8 1929.4,1387.3 1918.8,1394.1 1911.1,1400.1 1906.3,1405.5 1904.4,1410.3 1905.3,1414.4 1909.0,1418.0 1915.6,1420.9 1925.1,1423.3 1937.6,1425.0 1953.0,1426.2 1971.6,1426.8 1993.3,1426.9 2018.3,1426.3 2046.8,1425.2 2078.8,1423.4 2114.5,1421.1 2154.0,1418.0 2197.7,1414.3 2245.6,1409.9 2298.0,1404.8 2355.0,1398.9 2417.1,1392.3 2484.3,1384.8 2557.0,1376.4  Z" style="stroke-width: 2.0;  stroke: rgb(82,82,82); fill: rgb(255,255,0); opacity: 0.667;" />
<path d="M 2557.046,1376.377 A 1064.250,1064.250 0.00 0,1 2557.5,1380.1 L 2557.5,1380.1 2484.7,1388.4 2417.5,1396.0 2355.6,1403.1 2298.6,1409.6 2246.4,1415.5 2198.7,1421.0 2155.3,1426.0 2116.0,1430.5 2080.6,1434.6 2049.0,1438.3 2021.0,1441.6 1996.5,1444.5 1975.2,1447.1 1957.3,1449.3 1942.4,1451.1 1930.6,1452.6 1921.9,1453.8 1916.0,1454.6 1913.2,1455.2 1913.2,1455.4 1916.1,1455.3 1922.0,1454.9 1930.8,1454.2 1942.6,1453.1 1957.5,1451.7 1975.6,1450.0 1996.8,1448.0 2021.4,1445.6 2049.5,1442.8 2081.2,1439.6 2116.6,1436.1 2156.0,1432.1 2199.4,1427.7 2247.2,1422.8 2299.5,1417.5 2356.5,1411.6 2418.5,1405.3 2485.8,1398.4 2558.6,1390.9  A 1064.250,1064.250 0.00 0,0 2558.3,1387.3 L 2558.3,1387.3 2485.5,1395.1 2418.2,1402.2 2356.2,1408.8 2299.2,1414.8 2246.9,1420.3 2199.2,1425.3 2155.7,1429.9 2116.4,1434.0 2081.0,1437.7 2049.3,1440.9 2021.2,1443.8 1996.6,1446.3 1975.4,1448.4 1957.4,1450.2 1942.5,1451.6 1930.6,1452.7 1921.8,1453.5 1916.0,1453.9 1913.0,1454.0 1913.0,1453.7 1915.9,1453.2 1921.7,1452.3 1930.5,1451.1 1942.2,1449.6 1957.1,1447.7 1975.0,1445.4 1996.3,1442.8 2020.8,1439.8 2048.8,1436.4 2080.4,1432.6 2115.8,1428.4 2155.0,1423.7 2198.4,1418.5 2246.1,1412.9 2298.3,1406.7 2355.2,1400.0 2417.2,1392.8 2484.3,1384.9 2557.0,1376.4  Z" style="stroke-width: 2.0;  stroke: rgb(82,82,82); fill: rgb(204,255,0); opacity: 0.667;" />
<path d="M 1482.156,2564.100 A 1064.250,1064.250 0.00 0,1 1479.4,2564.1 L 1479.4,2564.1 1479.8,2490.2 1478.0,2420.5 1474.4,2354.7 1469.1,2292.5 1462.3,2233.7 1454.2,2178.0 1444.9,2125.1 1434.6,2074.9 1423.4,2027.1 1411.4,1981.4 1398.7,1937.7 1385.3,1895.7 1371.4,1855.3 1357.0,1816.3 1342.1,1778.4 1326.6,1741.5 1310.7,1705.5 1294.3,1670.2 1277.3,1635.3 1259.8,1600.9 1241.5,1566.8 1222.5,1532.7 1202.7,1498.7 1181.9,1464.6 1160.0,1430.3 1136.8,1395.7 1112.2,1360.7 1086.1,1325.3 1058.2,1289.4 1028.2,1252.8 996.1,1215.7 961.4,1177.9 924.1,1139.4 883.7,1100.1 840.1,1060.1 792.8,1019.3 741.7,977.8 686.3,935.5 626.2,892.4  A 1064.250,1064.250 0.00 0,0 624.7,894.7 L 624.7,894.7 684.8,937.6 740.3,979.8 791.6,1021.2 838.9,1061.8 882.7,1101.7 923.1,1140.9 960.6,1179.3 995.3,1217.0 1027.6,1254.1 1057.6,1290.5 1085.6,1326.4 1111.9,1361.7 1136.5,1396.6 1159.8,1431.1 1181.8,1465.4 1202.7,1499.5 1222.6,1533.4 1241.7,1567.4 1260.0,1601.5 1277.7,1635.9 1294.7,1670.7 1311.3,1706.0 1327.3,1742.0 1342.8,1778.8 1357.8,1816.6 1372.3,1855.7 1386.3,1896.0 1399.8,1938.0 1412.6,1981.6 1424.7,2027.3 1436.1,2075.1 1446.5,2125.3 1455.9,2178.1 1464.2,2233.8 1471.1,2292.6 1476.6,2354.7 1480.4,2420.5 1482.3,2490.2 1482.2,2564.1  Z" style="stroke-width: 2.0;  stroke: rgb(82,82,82); fill: rgb(0,255,0); opacity: 0.667;" />
<path d="M 2533.384,1245.549 A 1064.250,1064.250 0.00 0,1 2534.0,1248.2 L 2534.0,1248.2 2461.9,1264.6 2393.3,1278.1 2327.9,1288.8 2265.5,1297.2 2206.0,1303.4 2149.1,1307.6 2094.7,1310.2 2042.5,1311.3 1992.4,1311.2 1944.1,1309.8 1897.5,1307.5 1852.4,1304.4 1808.6,1300.5 1766.0,1296.0 1724.3,1290.9 1683.4,1285.3 1643.2,1279.3 1603.4,1272.8 1564.0,1265.9 1524.7,1258.6 1485.4,1250.8 1446.0,1242.5 1406.3,1233.6 1366.1,1224.1 1325.4,1213.8 1284.0,1202.7 1241.8,1190.5 1198.6,1177.2 1154.3,1162.5 1108.8,1146.4 1061.9,1128.5 1013.7,1108.6 963.8,1086.6 912.3,1062.1 859.0,1034.9 803.9,1004.6 746.8,971.0 687.6,933.7 626.2,892.4  A 1064.250,1064.250 0.00 0,0 624.7,894.7 L 624.7,894.7 686.1,935.8 745.4,972.9 802.6,1006.4 857.8,1036.5 911.2,1063.6 962.8,1088.0 1012.7,1109.9 1061.0,1129.6 1107.9,1147.4 1153.4,1163.4 1197.7,1178.0 1241.0,1191.2 1283.3,1203.2 1324.7,1214.3 1365.4,1224.4 1405.6,1233.9 1445.3,1242.6 1484.8,1250.8 1524.1,1258.5 1563.4,1265.7 1602.8,1272.5 1642.6,1278.9 1682.9,1284.8 1723.8,1290.3 1765.5,1295.3 1808.1,1299.7 1851.9,1303.5 1897.0,1306.5 1943.6,1308.7 1991.9,1309.9 2042.0,1309.9 2094.2,1308.7 2148.7,1306.0 2205.5,1301.5 2265.0,1295.2 2327.3,1286.7 2392.7,1275.8 2461.3,1262.1 2533.4,1245.5  Z" style="stroke-width: 2.0;  stroke: rgb(82,82,82); fill: rgb(53,128,0); opacity: 0.667;" />
<path d="M 2533.384,1245.549 A 1064.250,1064.250 0.00 0,1 2534.0,1248.2 L 2534.0,1248.2 2462.7,1266.6 2396.1,1285.7 2334.2,1305.4 2276.4,1325.7 2222.6,1346.4 2172.4,1367.6 2125.6,1389.1 2081.8,1411.0 2041.0,1433.1 2002.8,1455.6 1966.9,1478.4 1933.3,1501.5 1901.7,1524.9 1872.0,1548.6 1843.9,1572.8 1817.3,1597.4 1792.2,1622.5 1768.2,1648.1 1745.5,1674.5 1723.8,1701.6 1703.0,1729.5 1683.1,1758.5 1664.1,1788.5 1645.9,1819.8 1628.5,1852.5 1611.7,1886.7 1595.8,1922.6 1580.6,1960.4 1566.1,2000.4 1552.5,2042.6 1539.8,2087.3 1528.0,2134.7 1517.1,2185.1 1507.4,2238.7 1498.9,2295.7 1491.7,2356.5 1486.0,2421.3 1481.8,2490.4 1479.4,2564.1  A 1064.250,1064.250 0.00 0,0 1482.2,2564.1 L 1482.2,2564.1 1484.4,2490.4 1488.3,2421.3 1493.9,2356.5 1501.0,2295.7 1509.3,2238.7 1518.9,2185.0 1529.6,2134.6 1541.3,2087.2 1553.9,2042.4 1567.4,2000.2 1581.8,1960.2 1596.9,1922.4 1612.7,1886.4 1629.4,1852.1 1646.7,1819.4 1664.9,1788.1 1683.8,1758.0 1703.6,1729.0 1724.3,1701.0 1745.9,1673.9 1768.6,1647.5 1792.5,1621.7 1817.6,1596.5 1844.1,1571.9 1872.1,1547.7 1901.8,1523.8 1933.3,1500.3 1966.9,1477.2 2002.6,1454.3 2040.8,1431.7 2081.6,1409.5 2125.3,1387.5 2172.0,1365.8 2222.2,1344.5 2276.0,1323.7 2333.7,1303.3 2395.6,1283.4 2462.1,1264.1 2533.4,1245.5  Z" style="stroke-width: 2.0;  stroke: rgb(82,82,82); fill: rgb(0,0,204); opacity: 0.667;" />
<path d="M 1342.731,2552.566 A 1064.250,1064.250 0.00 0,1 1339.7,2552.1 L 1339.7,2552.1 1351.5,2479.6 1364.0,2412.3 1377.0,2349.8 1390.7,2292.0 1404.9,2238.4 1419.5,2188.9 1434.7,2143.2 1450.4,2101.0 1466.5,2062.1 1483.0,2026.4 1500.1,1993.7 1517.7,1963.6 1535.8,1936.2 1554.5,1911.2 1573.8,1888.6 1593.7,1868.1 1614.4,1849.7 1635.9,1833.2 1658.2,1818.7 1681.5,1806.1 1705.8,1795.2 1731.3,1786.1 1758.0,1778.8 1786.0,1773.1 1815.6,1769.3 1846.7,1767.2 1879.5,1766.9 1914.3,1768.4 1951.1,1771.9 1990.1,1777.4 2031.4,1785.0 2075.3,1794.8 2122.0,1806.9 2171.5,1821.5 2224.2,1838.7 2280.1,1858.7 2339.7,1881.7 2403.0,1907.8 2470.2,1937.3  A 1064.250,1064.250 0.00 0,0 2471.5,1934.6 L 2471.5,1934.6 2404.1,1905.3 2340.7,1879.3 2281.2,1856.5 2225.1,1836.7 2172.4,1819.6 2122.8,1805.2 2076.2,1793.2 2032.2,1783.5 1990.9,1776.0 1951.9,1770.6 1915.1,1767.3 1880.3,1765.8 1847.4,1766.2 1816.3,1768.4 1786.8,1772.3 1758.8,1778.0 1732.1,1785.5 1706.7,1794.6 1682.4,1805.6 1659.1,1818.3 1636.9,1832.9 1615.4,1849.3 1594.8,1867.8 1574.9,1888.3 1555.7,1911.1 1537.1,1936.1 1519.0,1963.6 1501.5,1993.7 1484.6,2026.5 1468.1,2062.2 1452.1,2101.1 1436.6,2143.3 1421.5,2189.1 1407.0,2238.7 1393.0,2292.3 1379.5,2350.2 1366.6,2412.7 1354.3,2480.0 1342.7,2552.6  Z" style="stroke-width: 2.0;  stroke: rgb(82,82,82); fill: rgb(102,153,255); opacity: 0.667;" />
<path d="M 1520.606,435.950 A 1064.250,1064.250 0.00 0,1 1537.0,436.4 L 1537.0,436.4 1534.7,509.6 1533.2,577.3 1532.5,639.9 1532.4,697.6 1533.1,750.5 1534.3,799.1 1536.2,843.4 1538.7,883.8 1541.8,920.3 1545.5,953.2 1549.8,982.6 1554.6,1008.7 1560.1,1031.5 1566.1,1051.3 1572.8,1068.1 1580.1,1082.0 1588.0,1093.1 1596.6,1101.4 1606.0,1107.0 1616.1,1109.8 1626.9,1110.0 1638.6,1107.5 1651.2,1102.2 1664.7,1094.2 1679.2,1083.4 1694.7,1069.7 1711.4,1053.1 1729.2,1033.5 1748.3,1010.7 1768.7,984.6 1790.5,955.2 1813.8,922.1 1838.7,885.4 1865.2,844.7 1893.6,799.9 1923.8,750.8 1956.0,697.2 1990.3,638.8 2026.8,575.3  A 1064.250,1064.250 0.00 0,0 2011.2,566.5 L 2011.2,566.5 1975.7,630.6 1942.4,689.6 1911.1,743.8 1881.7,793.4 1854.2,838.7 1828.3,879.8 1804.1,916.9 1781.3,950.4 1760.0,980.2 1740.1,1006.6 1721.4,1029.7 1704.0,1049.7 1687.6,1066.5 1672.3,1080.5 1658.1,1091.5 1644.7,1099.8 1632.2,1105.2 1620.6,1107.9 1609.8,1108.0 1599.7,1105.3 1590.3,1099.9 1581.5,1091.7 1573.4,1080.8 1566.0,1067.0 1559.1,1050.3 1552.7,1030.6 1546.9,1007.9 1541.7,981.9 1537.0,952.5 1532.8,919.7 1529.2,883.2 1526.1,842.9 1523.5,798.6 1521.5,750.1 1520.1,697.1 1519.3,639.5 1519.0,576.9 1519.5,509.2 1520.6,435.9  Z" style="stroke-width: 2.0;  stroke: rgb(82,82,82); fill: rgb(153,204,255); opacity: 0.667;" />
<path d="M 2102.502,622.721 A 1064.250,1064.250 0.00 0,1 2115.7,631.9 L 2115.7,631.9 2073.6,691.9 2035.3,747.9 2000.5,800.1 1969.1,848.7 1941.0,893.9 1915.8,935.9 1893.6,974.9 1874.1,1011.0 1857.3,1044.3 1843.1,1075.1 1831.2,1103.4 1821.8,1129.5 1814.7,1153.3 1809.8,1175.0 1807.1,1194.7 1806.6,1212.5 1808.2,1228.5 1812.0,1242.8 1817.9,1255.3 1826.0,1266.2 1836.3,1275.5 1848.8,1283.2 1863.7,1289.4 1880.9,1294.0 1900.5,1297.1 1922.8,1298.7 1947.6,1298.8 1975.3,1297.2 2005.8,1294.1 2039.4,1289.3 2076.2,1282.8 2116.3,1274.6 2160.1,1264.6 2207.5,1252.6 2258.9,1238.7 2314.5,1222.6 2374.6,1204.4 2439.2,1183.9 2508.8,1160.9  A 1064.250,1064.250 0.00 0,0 2503.5,1145.7 L 2503.5,1145.7 2434.3,1169.7 2370.0,1191.2 2310.3,1210.4 2254.9,1227.2 2203.7,1242.0 2156.4,1254.6 2112.9,1265.3 2072.8,1274.2 2036.1,1281.2 2002.6,1286.5 1972.1,1290.1 1944.5,1292.0 1919.7,1292.4 1897.4,1291.1 1877.7,1288.3 1860.4,1283.9 1845.5,1278.0 1832.9,1270.4 1822.4,1261.3 1814.2,1250.5 1808.0,1238.1 1804.1,1223.9 1802.2,1207.9 1802.4,1190.1 1804.8,1170.4 1809.4,1148.6 1816.2,1124.6 1825.2,1098.5 1836.6,1070.0 1850.4,1039.0 1866.7,1005.4 1885.6,969.0 1907.3,929.7 1931.8,887.3 1959.3,841.7 1989.9,792.6 2023.9,739.9 2061.3,683.3 2102.5,622.7  Z" style="stroke-width: 2.0;  stroke: rgb(82,82,82); fill: rgb(0,255,255); opacity: 0.667;" />
</g>
<defs>
<pattern id="hline-sparse" width="10" height="10" patternTransform="rotate(0 0 0)" patternUnits="userSpaceOnUse"><line x1="0" y1="0" x2="10" y2="0" style="stroke:black;stroke-width:2" /></pattern>
<pattern id="checker" width="10" height="10" patternTransform="rotate(45 0 0)" patternUnits="userSpaceOnUse"><line x1="0" y1="0" x2="10" y2="0" style="stroke:black;stroke-width:2" /><line x1="0" y1="0" x2="0" y2="10" style="stroke:black;stroke-width:2" /></pattern>
<pattern id="checker" width="10" height="10" patternTransform="rotate(45 0 0)" patternUnits="userSpaceOnUse"><line x1="0" y1="0" x2="10" y2="0" style="stroke:black;stroke-width:5" /><line x1="0" y1="0" x2="0" y2="10" style="stroke:black;stroke-width:4" /></pattern>
<pattern id="hline" width="10" height="10" patternTransform="rotate(0 0 0)" patternUnits="userSpaceOnUse"><line x1="0" y1="0" x2="10" y2="0" style="stroke:black;stroke-width:5" /></pattern>
<pattern id="vline-sparse" width="10" height="10" patternTransform="rotate(0 0 0)" patternUnits="userSpaceOnUse"><line x1="0" y1="0" x2="0" y2="10" style="stroke:black;stroke-width:2" /></pattern>
<pattern id="vline" width="10" height="10" patternTransform="rotate(0 0 0)" patternUnits="userSpaceOnUse"><line x1="0" y1="0" x2="0" y2="10" style="stroke:black;stroke-width:5" /></pattern>
</defs>
</svg>
