<?xml version="1.0" encoding="utf-8" standalone="no"?>
<!DOCTYPE svg PUBLIC "-//W3C//DTD SVG 1.1//EN" "http://www.w3.org/Graphics/SVG/1.1/DTD/svg11.dtd">
<svg width="3000px" height="3000px" version="1.1" xmlns="http://www.w3.org/2000/svg" xmlns:xlink="http://www.w3.org/1999/xlink">
<g id="ideograms">
<path d="M1500.000,425.000 A1075.000,1075.000 40.000 0,1 1768.177,458.988 L1780.650,410.569 A1125.000,1125.000 0.000 0,0 1500.000,375.000 Z" style="stroke-linecap:round;fill:rgb(116,196,118);fill-opacity:0.33;" />
<text x="1662.2" y="295.9" font-size="18.2px" font-family="CMUBright-Roman" style="text-anchor:start;fill:rgb(0,0,0);" transform="rotate(277.2,1662.2,295.9)" >R<tspan baseline-shift="-40%" font-size="90%">s</tspan>caffold<tspan baseline-shift="-40%" font-size="90%">8</tspan></text>
<line x1='1500.0' y1='375.0' x2='1500.0' y2='355.0' style="stroke-width:4.0;stroke:rgb(0,0,0);stroke-linecap:round;fill:none;" />
<text x="1506.5" y="345.0" font-size="18.2px" font-family="CMUBright-Roman" style="text-anchor:start;fill:rgb(0,0,0);" transform="rotate(270.0,1506.5,345.0)" >0</text>
<line x1='1560.2' y1='376.6' x2='1561.2' y2='356.6' style="stroke-width:4.0;stroke:rgb(0,0,0);stroke-linecap:round;fill:none;" />
<text x="1568.3" y="347.0" font-size="18.2px" font-family="CMUBright-Roman" style="text-anchor:start;fill:rgb(0,0,0);" transform="rotate(273.1,1568.3,347.0)" >50</text>
<line x1='1620.2' y1='381.4' x2='1622.3' y2='361.6' style="stroke-width:4.0;stroke:rgb(0,0,0);stroke-linecap:round;fill:none;" />
<text x="1629.8" y="352.3" font-size="18.2px" font-family="CMUBright-Roman" style="text-anchor:start;fill:rgb(0,0,0);" transform="rotate(276.1,1629.8,352.3)" >100</text>
<line x1='1679.8' y1='389.5' x2='1683.0' y2='369.7' style="stroke-width:4.0;stroke:rgb(0,0,0);stroke-linecap:round;fill:none;" />
<text x="1691.0" y="360.9" font-size="18.2px" font-family="CMUBright-Roman" style="text-anchor:start;fill:rgb(0,0,0);" transform="rotate(279.2,1691.0,360.9)" >150</text>
<line x1='1739.0' y1='400.7' x2='1743.2' y2='381.1' style="stroke-width:4.0;stroke:rgb(0,0,0);stroke-linecap:round;fill:none;" />
<text x="1751.7" y="372.8" font-size="18.2px" font-family="CMUBright-Roman" style="text-anchor:start;fill:rgb(0,0,0);" transform="rotate(282.3,1751.7,372.8)" >200</text>
<g id="highlighttrack_0">
<path d="M1519.710,425.181 A1075.000,1075.000 40.000 0,1 1535.354,425.582 L1536.998,375.609 A1125.000,1125.000 0.000 0,0 1520.627,375.189 Z" style="stroke-width:4.0;stroke:rgb(0,0,0);stroke-linecap:round;fill:rgb(116,196,118);" />
</g>
<path d="M1829.376,476.703 A1075.000,1075.000 40.000 0,1 2024.402,561.582 L2048.792,517.935 A1125.000,1125.000 0.000 0,0 1844.696,429.108 Z" style="stroke-linecap:round;fill:rgb(116,196,118);fill-opacity:0.33;" />
<text x="1993.6" y="389.8" font-size="18.2px" font-family="CMUBright-Roman" style="text-anchor:start;fill:rgb(0,0,0);" transform="rotate(293.5,1993.6,389.8)" >R<tspan baseline-shift="-40%" font-size="90%">s</tspan>caffold<tspan baseline-shift="-40%" font-size="90%">1</tspan>0</text>
<line x1='1844.7' y1='429.1' x2='1850.8' y2='410.1' style="stroke-width:4.0;stroke:rgb(0,0,0);stroke-linecap:round;fill:none;" />
<text x="1860.1" y="402.6" font-size="18.2px" font-family="CMUBright-Roman" style="text-anchor:start;fill:rgb(0,0,0);" transform="rotate(287.8,1860.1,402.6)" >0</text>
<line x1='1901.5' y1='449.1' x2='1908.6' y2='430.4' style="stroke-width:4.0;stroke:rgb(0,0,0);stroke-linecap:round;fill:none;" />
<text x="1918.2" y="423.4" font-size="18.2px" font-family="CMUBright-Roman" style="text-anchor:start;fill:rgb(0,0,0);" transform="rotate(290.9,1918.2,423.4)" >50</text>
<line x1='1957.1' y1='472.1' x2='1965.2' y2='453.8' style="stroke-width:4.0;stroke:rgb(0,0,0);stroke-linecap:round;fill:none;" />
<text x="1975.2" y="447.3" font-size="18.2px" font-family="CMUBright-Roman" style="text-anchor:start;fill:rgb(0,0,0);" transform="rotate(294.0,1975.2,447.3)" >100</text>
<line x1='2011.4' y1='498.0' x2='2020.5' y2='480.2' style="stroke-width:4.0;stroke:rgb(0,0,0);stroke-linecap:round;fill:none;" />
<text x="2030.8" y="474.2" font-size="18.2px" font-family="CMUBright-Roman" style="text-anchor:start;fill:rgb(0,0,0);" transform="rotate(297.0,2030.8,474.2)" >150</text>
<g id="highlighttrack_0">
<path d="M1993.581,545.011 A1075.000,1075.000 40.000 0,1 2008.716,552.987 L2032.377,508.940 A1125.000,1125.000 0.000 0,0 2016.538,500.593 Z" style="stroke-width:4.0;stroke:rgb(0,0,0);stroke-linecap:round;fill:rgb(251,106,74);" />
</g>
<path d="M2079.073,594.296 A1075.000,1075.000 40.000 0,1 2166.873,656.848 L2197.890,617.631 A1125.000,1125.000 0.000 0,0 2106.007,552.170 Z" style="stroke-linecap:round;fill:rgb(116,196,118);fill-opacity:0.33;" />
<text x="2212.7" y="516.0" font-size="18.2px" font-family="CMUBright-Roman" style="text-anchor:start;fill:rgb(0,0,0);" transform="rotate(305.5,2212.7,516.0)" >R<tspan baseline-shift="-40%" font-size="90%">s</tspan>caffold<tspan baseline-shift="-40%" font-size="90%">1</tspan>7</text>
<line x1='2106.0' y1='552.2' x2='2116.8' y2='535.3' style="stroke-width:4.0;stroke:rgb(0,0,0);stroke-linecap:round;fill:none;" />
<text x="2127.6" y="530.4" font-size="18.2px" font-family="CMUBright-Roman" style="text-anchor:start;fill:rgb(0,0,0);" transform="rotate(302.6,2127.6,530.4)" >0</text>
<line x1='2155.8' y1='585.9' x2='2167.5' y2='569.7' style="stroke-width:4.0;stroke:rgb(0,0,0);stroke-linecap:round;fill:none;" />
<text x="2178.6" y="565.4" font-size="18.2px" font-family="CMUBright-Roman" style="text-anchor:start;fill:rgb(0,0,0);" transform="rotate(305.7,2178.6,565.4)" >50</text>
<g id="highlighttrack_0">
<path d="M2150.210,643.932 A1075.000,1075.000 40.000 0,1 2152.853,645.946 L2183.219,606.223 A1125.000,1125.000 0.000 0,0 2180.452,604.115 Z" style="stroke-width:4.0;stroke:rgb(0,0,0);stroke-linecap:round;fill:rgb(116,196,118);" />
</g>
<path d="M2215.650,697.834 A1075.000,1075.000 40.000 0,1 2241.219,721.399 L2275.695,685.185 A1125.000,1125.000 0.000 0,0 2248.936,660.524 Z" style="stroke-linecap:round;fill:rgb(116,196,118);fill-opacity:0.33;" />
<text x="2330.4" y="613.0" font-size="18.2px" font-family="CMUBright-Roman" style="text-anchor:start;fill:rgb(0,0,0);" transform="rotate(312.7,2330.4,613.0)" >R<tspan baseline-shift="-40%" font-size="90%">s</tspan>caffold<tspan baseline-shift="-40%" font-size="90%">1</tspan>9</text>
<line x1='2248.9' y1='660.5' x2='2262.3' y2='645.6' style="stroke-width:4.0;stroke:rgb(0,0,0);stroke-linecap:round;fill:none;" />
<text x="2273.7" y="642.5" font-size="18.2px" font-family="CMUBright-Roman" style="text-anchor:start;fill:rgb(0,0,0);" transform="rotate(311.7,2273.7,642.5)" >0</text>
<g id="highlighttrack_0">
<path d="M2225.067,706.336 A1075.000,1075.000 40.000 0,1 2226.813,707.935 L2260.618,671.094 A1125.000,1125.000 0.000 0,0 2258.791,669.421 Z" style="stroke-width:4.0;stroke:rgb(0,0,0);stroke-linecap:round;fill:rgb(251,106,74);" />
</g>
<path d="M2286.042,766.677 A1075.000,1075.000 40.000 0,1 2289.303,770.188 L2326.015,736.243 A1125.000,1125.000 0.000 0,0 2322.602,732.569 Z" style="stroke-linecap:round;fill:rgb(116,196,118);fill-opacity:0.33;" />
<text x="2396.7" y="680.1" font-size="18.2px" font-family="CMUBright-Roman" style="text-anchor:start;fill:rgb(0,0,0);" transform="rotate(317.1,2396.7,680.1)" >R<tspan baseline-shift="-40%" font-size="90%">s</tspan>caffold<tspan baseline-shift="-40%" font-size="90%">2</tspan>4</text>
<line x1='2322.6' y1='732.6' x2='2337.2' y2='718.9' style="stroke-width:4.0;stroke:rgb(0,0,0);stroke-linecap:round;fill:none;" />
<text x="2349.0" y="716.9" font-size="18.2px" font-family="CMUBright-Roman" style="text-anchor:start;fill:rgb(0,0,0);" transform="rotate(317.0,2349.0,716.9)" >0</text>
<g id="highlighttrack_0">
<path d="M2286.612,767.288 A1075.000,1075.000 40.000 0,1 2289.118,769.988 L2325.821,736.034 A1125.000,1125.000 0.000 0,0 2323.198,733.208 Z" style="stroke-width:4.0;stroke:rgb(0,0,0);stroke-linecap:round;fill:rgb(251,106,74);" />
</g>
<path d="M2331.151,818.229 A1075.000,1075.000 40.000 1,1 1436.316,426.888 L1433.354,376.976 A1125.000,1125.000 0.000 1,0 2369.810,786.518 Z" style="stroke-linecap:round;fill:rgb(116,196,118);fill-opacity:0.33;" />
<text x="1021.9" y="2617.0" font-size="18.2px" font-family="CMUBright-Roman" style="text-anchor:end;fill:rgb(0,0,0);" transform="rotate(-66.4,1021.9,2617.0)" >NZ<tspan baseline-shift="-40%" font-size="90%">C</tspan>P046378.1</text>
<line x1='2369.8' y1='786.5' x2='2385.3' y2='773.8' style="stroke-width:4.0;stroke:rgb(0,0,0);stroke-linecap:round;fill:none;" />
<text x="2397.1" y="772.5" font-size="18.2px" font-family="CMUBright-Roman" style="text-anchor:start;fill:rgb(0,0,0);" transform="rotate(320.6,2397.1,772.5)" >0</text>
<line x1='2406.7' y1='834.1' x2='2422.8' y2='822.2' style="stroke-width:4.0;stroke:rgb(0,0,0);stroke-linecap:round;fill:none;" />
<text x="2434.7" y="821.5" font-size="18.2px" font-family="CMUBright-Roman" style="text-anchor:start;fill:rgb(0,0,0);" transform="rotate(323.7,2434.7,821.5)" >50</text>
<line x1='2441.0' y1='883.5' x2='2457.8' y2='872.5' style="stroke-width:4.0;stroke:rgb(0,0,0);stroke-linecap:round;fill:none;" />
<text x="2469.7" y="872.5" font-size="18.2px" font-family="CMUBright-Roman" style="text-anchor:start;fill:rgb(0,0,0);" transform="rotate(326.8,2469.7,872.5)" >100</text>
<line x1='2472.7' y1='934.7' x2='2490.0' y2='924.7' style="stroke-width:4.0;stroke:rgb(0,0,0);stroke-linecap:round;fill:none;" />
<text x="2501.9" y="925.3" font-size="18.2px" font-family="CMUBright-Roman" style="text-anchor:start;fill:rgb(0,0,0);" transform="rotate(329.8,2501.9,925.3)" >150</text>
<line x1='2501.5' y1='987.5' x2='2519.3' y2='978.4' style="stroke-width:4.0;stroke:rgb(0,0,0);stroke-linecap:round;fill:none;" />
<text x="2531.2" y="979.7" font-size="18.2px" font-family="CMUBright-Roman" style="text-anchor:start;fill:rgb(0,0,0);" transform="rotate(332.9,2531.2,979.7)" >200</text>
<line x1='2527.5' y1='1041.8' x2='2545.7' y2='1033.7' style="stroke-width:4.0;stroke:rgb(0,0,0);stroke-linecap:round;fill:none;" />
<text x="2557.5" y="1035.6" font-size="18.2px" font-family="CMUBright-Roman" style="text-anchor:start;fill:rgb(0,0,0);" transform="rotate(336.0,2557.5,1035.6)" >250</text>
<line x1='2550.5' y1='1097.4' x2='2569.2' y2='1090.3' style="stroke-width:4.0;stroke:rgb(0,0,0);stroke-linecap:round;fill:none;" />
<text x="2580.8" y="1092.8" font-size="18.2px" font-family="CMUBright-Roman" style="text-anchor:start;fill:rgb(0,0,0);" transform="rotate(339.0,2580.8,1092.8)" >300</text>
<line x1='2570.5' y1='1154.2' x2='2589.6' y2='1148.1' style="stroke-width:4.0;stroke:rgb(0,0,0);stroke-linecap:round;fill:none;" />
<text x="2601.1" y="1151.2" font-size="18.2px" font-family="CMUBright-Roman" style="text-anchor:start;fill:rgb(0,0,0);" transform="rotate(342.1,2601.1,1151.2)" >350</text>
<line x1='2587.5' y1='1212.0' x2='2606.8' y2='1206.8' style="stroke-width:4.0;stroke:rgb(0,0,0);stroke-linecap:round;fill:none;" />
<text x="2618.1" y="1210.6" font-size="18.2px" font-family="CMUBright-Roman" style="text-anchor:start;fill:rgb(0,0,0);" transform="rotate(345.2,2618.1,1210.6)" >400</text>
<line x1='2601.3' y1='1270.5' x2='2620.9' y2='1266.5' style="stroke-width:4.0;stroke:rgb(0,0,0);stroke-linecap:round;fill:none;" />
<text x="2632.0" y="1270.8" font-size="18.2px" font-family="CMUBright-Roman" style="text-anchor:start;fill:rgb(0,0,0);" transform="rotate(348.2,2632.0,1270.8)" >450</text>
<line x1='2612.0' y1='1329.8' x2='2631.8' y2='1326.7' style="stroke-width:4.0;stroke:rgb(0,0,0);stroke-linecap:round;fill:none;" />
<text x="2642.7" y="1331.7" font-size="18.2px" font-family="CMUBright-Roman" style="text-anchor:start;fill:rgb(0,0,0);" transform="rotate(351.3,2642.7,1331.7)" >500</text>
<line x1='2619.6' y1='1389.5' x2='2639.5' y2='1387.5' style="stroke-width:4.0;stroke:rgb(0,0,0);stroke-linecap:round;fill:none;" />
<text x="2650.0" y="1393.0" font-size="18.2px" font-family="CMUBright-Roman" style="text-anchor:start;fill:rgb(0,0,0);" transform="rotate(354.4,2650.0,1393.0)" >550</text>
<line x1='2623.9' y1='1449.5' x2='2643.8' y2='1448.6' style="stroke-width:4.0;stroke:rgb(0,0,0);stroke-linecap:round;fill:none;" />
<text x="2654.1" y="1454.7" font-size="18.2px" font-family="CMUBright-Roman" style="text-anchor:start;fill:rgb(0,0,0);" transform="rotate(357.4,2654.1,1454.7)" >600</text>
<line x1='2625.0' y1='1509.7' x2='2645.0' y2='1509.9' style="stroke-width:4.0;stroke:rgb(0,0,0);stroke-linecap:round;fill:none;" />
<text x="2654.9" y="1516.5" font-size="18.2px" font-family="CMUBright-Roman" style="text-anchor:start;fill:rgb(0,0,0);" transform="rotate(0.5,2654.9,1516.5)" >650</text>
<line x1='2622.8' y1='1569.8' x2='2642.8' y2='1571.1' style="stroke-width:4.0;stroke:rgb(0,0,0);stroke-linecap:round;fill:none;" />
<text x="2652.3" y="1578.2" font-size="18.2px" font-family="CMUBright-Roman" style="text-anchor:start;fill:rgb(0,0,0);" transform="rotate(3.6,2652.3,1578.2)" >700</text>
<line x1='2617.5' y1='1629.8' x2='2637.4' y2='1632.1' style="stroke-width:4.0;stroke:rgb(0,0,0);stroke-linecap:round;fill:none;" />
<text x="2646.5" y="1639.7" font-size="18.2px" font-family="CMUBright-Roman" style="text-anchor:start;fill:rgb(0,0,0);" transform="rotate(6.6,2646.5,1639.7)" >750</text>
<line x1='2608.9' y1='1689.4' x2='2628.7' y2='1692.7' style="stroke-width:4.0;stroke:rgb(0,0,0);stroke-linecap:round;fill:none;" />
<text x="2637.4" y="1700.8" font-size="18.2px" font-family="CMUBright-Roman" style="text-anchor:start;fill:rgb(0,0,0);" transform="rotate(9.7,2637.4,1700.8)" >800</text>
<line x1='2597.2' y1='1748.4' x2='2616.7' y2='1752.8' style="stroke-width:4.0;stroke:rgb(0,0,0);stroke-linecap:round;fill:none;" />
<text x="2625.0" y="1761.4" font-size="18.2px" font-family="CMUBright-Roman" style="text-anchor:start;fill:rgb(0,0,0);" transform="rotate(12.8,2625.0,1761.4)" >850</text>
<line x1='2582.4' y1='1806.7' x2='2601.6' y2='1812.2' style="stroke-width:4.0;stroke:rgb(0,0,0);stroke-linecap:round;fill:none;" />
<text x="2609.4" y="1821.2" font-size="18.2px" font-family="CMUBright-Roman" style="text-anchor:start;fill:rgb(0,0,0);" transform="rotate(15.8,2609.4,1821.2)" >900</text>
<line x1='2564.4' y1='1864.2' x2='2583.3' y2='1870.7' style="stroke-width:4.0;stroke:rgb(0,0,0);stroke-linecap:round;fill:none;" />
<text x="2590.7" y="1880.0" font-size="18.2px" font-family="CMUBright-Roman" style="text-anchor:start;fill:rgb(0,0,0);" transform="rotate(18.9,2590.7,1880.0)" >950</text>
<line x1='2543.4' y1='1920.6' x2='2562.0' y2='1928.1' style="stroke-width:4.0;stroke:rgb(0,0,0);stroke-linecap:round;fill:none;" />
<text x="2568.8" y="1937.8" font-size="18.2px" font-family="CMUBright-Roman" style="text-anchor:start;fill:rgb(0,0,0);" transform="rotate(22.0,2568.8,1937.8)" >1000</text>
<line x1='2519.4' y1='1975.8' x2='2537.6' y2='1984.3' style="stroke-width:4.0;stroke:rgb(0,0,0);stroke-linecap:round;fill:none;" />
<text x="2543.8" y="1994.4" font-size="18.2px" font-family="CMUBright-Roman" style="text-anchor:start;fill:rgb(0,0,0);" transform="rotate(25.0,2543.8,1994.4)" >1050</text>
<line x1='2492.5' y1='2029.6' x2='2510.2' y2='2039.1' style="stroke-width:4.0;stroke:rgb(0,0,0);stroke-linecap:round;fill:none;" />
<text x="2515.9" y="2049.5" font-size="18.2px" font-family="CMUBright-Roman" style="text-anchor:start;fill:rgb(0,0,0);" transform="rotate(28.1,2515.9,2049.5)" >1100</text>
<line x1='2462.8' y1='2082.0' x2='2479.9' y2='2092.3' style="stroke-width:4.0;stroke:rgb(0,0,0);stroke-linecap:round;fill:none;" />
<text x="2485.1" y="2103.0" font-size="18.2px" font-family="CMUBright-Roman" style="text-anchor:start;fill:rgb(0,0,0);" transform="rotate(31.2,2485.1,2103.0)" >1150</text>
<line x1='2430.3' y1='2132.6' x2='2446.8' y2='2143.9' style="stroke-width:4.0;stroke:rgb(0,0,0);stroke-linecap:round;fill:none;" />
<text x="2451.4" y="2154.9" font-size="18.2px" font-family="CMUBright-Roman" style="text-anchor:start;fill:rgb(0,0,0);" transform="rotate(34.2,2451.4,2154.9)" >1200</text>
<line x1='2395.1' y1='2181.5' x2='2411.0' y2='2193.6' style="stroke-width:4.0;stroke:rgb(0,0,0);stroke-linecap:round;fill:none;" />
<text x="2415.0" y="2204.8" font-size="18.2px" font-family="CMUBright-Roman" style="text-anchor:start;fill:rgb(0,0,0);" transform="rotate(37.3,2415.0,2204.8)" >1250</text>
<line x1='2357.4' y1='2228.4' x2='2372.6' y2='2241.3' style="stroke-width:4.0;stroke:rgb(0,0,0);stroke-linecap:round;fill:none;" />
<text x="2376.0" y="2252.7" font-size="18.2px" font-family="CMUBright-Roman" style="text-anchor:start;fill:rgb(0,0,0);" transform="rotate(40.3,2376.0,2252.7)" >1300</text>
<line x1='2317.2' y1='2273.2' x2='2331.7' y2='2286.9' style="stroke-width:4.0;stroke:rgb(0,0,0);stroke-linecap:round;fill:none;" />
<text x="2334.5" y="2298.5" font-size="18.2px" font-family="CMUBright-Roman" style="text-anchor:start;fill:rgb(0,0,0);" transform="rotate(43.4,2334.5,2298.5)" >1350</text>
<line x1='2274.7' y1='2315.8' x2='2288.5' y2='2330.3' style="stroke-width:4.0;stroke:rgb(0,0,0);stroke-linecap:round;fill:none;" />
<text x="2290.6" y="2342.0" font-size="18.2px" font-family="CMUBright-Roman" style="text-anchor:start;fill:rgb(0,0,0);" transform="rotate(46.5,2290.6,2342.0)" >1400</text>
<line x1='2229.9' y1='2356.0' x2='2242.9' y2='2371.3' style="stroke-width:4.0;stroke:rgb(0,0,0);stroke-linecap:round;fill:none;" />
<text x="2244.4" y="2383.1" font-size="18.2px" font-family="CMUBright-Roman" style="text-anchor:start;fill:rgb(0,0,0);" transform="rotate(49.5,2244.4,2383.1)" >1450</text>
<line x1='2183.1' y1='2393.9' x2='2195.3' y2='2409.7' style="stroke-width:4.0;stroke:rgb(0,0,0);stroke-linecap:round;fill:none;" />
<text x="2196.2" y="2421.6" font-size="18.2px" font-family="CMUBright-Roman" style="text-anchor:start;fill:rgb(0,0,0);" transform="rotate(52.6,2196.2,2421.6)" >1500</text>
<line x1='2134.3' y1='2429.1' x2='2145.6' y2='2445.6' style="stroke-width:4.0;stroke:rgb(0,0,0);stroke-linecap:round;fill:none;" />
<text x="2145.9" y="2457.5" font-size="18.2px" font-family="CMUBright-Roman" style="text-anchor:start;fill:rgb(0,0,0);" transform="rotate(55.7,2145.9,2457.5)" >1550</text>
<line x1='2083.7' y1='2461.7' x2='2094.1' y2='2478.8' style="stroke-width:4.0;stroke:rgb(0,0,0);stroke-linecap:round;fill:none;" />
<text x="2093.7" y="2490.7" font-size="18.2px" font-family="CMUBright-Roman" style="text-anchor:start;fill:rgb(0,0,0);" transform="rotate(58.7,2093.7,2490.7)" >1600</text>
<line x1='2031.5' y1='2491.6' x2='2040.9' y2='2509.2' style="stroke-width:4.0;stroke:rgb(0,0,0);stroke-linecap:round;fill:none;" />
<text x="2039.9" y="2521.0" font-size="18.2px" font-family="CMUBright-Roman" style="text-anchor:start;fill:rgb(0,0,0);" transform="rotate(61.8,2039.9,2521.0)" >1650</text>
<line x1='1977.7' y1='2518.6' x2='1986.2' y2='2536.7' style="stroke-width:4.0;stroke:rgb(0,0,0);stroke-linecap:round;fill:none;" />
<text x="1984.5" y="2548.5" font-size="18.2px" font-family="CMUBright-Roman" style="text-anchor:start;fill:rgb(0,0,0);" transform="rotate(64.9,1984.5,2548.5)" >1700</text>
<line x1='1922.5' y1='2542.6' x2='1930.0' y2='2561.2' style="stroke-width:4.0;stroke:rgb(0,0,0);stroke-linecap:round;fill:none;" />
<text x="1927.7" y="2572.9" font-size="18.2px" font-family="CMUBright-Roman" style="text-anchor:start;fill:rgb(0,0,0);" transform="rotate(67.9,1927.7,2572.9)" >1750</text>
<line x1='1866.1' y1='2563.7' x2='1872.7' y2='2582.7' style="stroke-width:4.0;stroke:rgb(0,0,0);stroke-linecap:round;fill:none;" />
<text x="1869.8" y="2594.2" font-size="18.2px" font-family="CMUBright-Roman" style="text-anchor:start;fill:rgb(0,0,0);" transform="rotate(71.0,1869.8,2594.2)" >1800</text>
<line x1='1808.7' y1='2581.8' x2='1814.2' y2='2601.0' style="stroke-width:4.0;stroke:rgb(0,0,0);stroke-linecap:round;fill:none;" />
<text x="1810.7" y="2612.4" font-size="18.2px" font-family="CMUBright-Roman" style="text-anchor:start;fill:rgb(0,0,0);" transform="rotate(74.1,1810.7,2612.4)" >1850</text>
<line x1='1750.4' y1='2596.8' x2='1754.9' y2='2616.3' style="stroke-width:4.0;stroke:rgb(0,0,0);stroke-linecap:round;fill:none;" />
<text x="1750.8" y="2627.4" font-size="18.2px" font-family="CMUBright-Roman" style="text-anchor:start;fill:rgb(0,0,0);" transform="rotate(77.1,1750.8,2627.4)" >1900</text>
<line x1='1691.4' y1='2608.6' x2='1694.8' y2='2628.3' style="stroke-width:4.0;stroke:rgb(0,0,0);stroke-linecap:round;fill:none;" />
<text x="1690.1" y="2639.2" font-size="18.2px" font-family="CMUBright-Roman" style="text-anchor:start;fill:rgb(0,0,0);" transform="rotate(80.2,1690.1,2639.2)" >1950</text>
<line x1='1631.8' y1='2617.2' x2='1634.2' y2='2637.1' style="stroke-width:4.0;stroke:rgb(0,0,0);stroke-linecap:round;fill:none;" />
<text x="1628.9" y="2647.8" font-size="18.2px" font-family="CMUBright-Roman" style="text-anchor:start;fill:rgb(0,0,0);" transform="rotate(83.3,1628.9,2647.8)" >2000</text>
<line x1='1571.9' y1='2622.7' x2='1573.2' y2='2642.7' style="stroke-width:4.0;stroke:rgb(0,0,0);stroke-linecap:round;fill:none;" />
<text x="1567.3" y="2653.0" font-size="18.2px" font-family="CMUBright-Roman" style="text-anchor:start;fill:rgb(0,0,0);" transform="rotate(86.3,1567.3,2653.0)" >2050</text>
<line x1='1511.8' y1='2624.9' x2='1512.0' y2='2644.9' style="stroke-width:4.0;stroke:rgb(0,0,0);stroke-linecap:round;fill:none;" />
<text x="1505.6" y="2655.0" font-size="18.2px" font-family="CMUBright-Roman" style="text-anchor:start;fill:rgb(0,0,0);" transform="rotate(89.4,1505.6,2655.0)" >2100</text>
<line x1='1451.6' y1='2624.0' x2='1450.7' y2='2643.9' style="stroke-width:4.0;stroke:rgb(0,0,0);stroke-linecap:round;fill:none;" />
<text x="1456.8" y="2654.2" font-size="18.2px" font-family="CMUBright-Roman" style="text-anchor:end;fill:rgb(0,0,0);" transform="rotate(-87.5,1456.8,2654.2)" >2150</text>
<line x1='1391.5' y1='2619.8' x2='1389.6' y2='2639.7' style="stroke-width:4.0;stroke:rgb(0,0,0);stroke-linecap:round;fill:none;" />
<text x="1395.1" y="2650.2" font-size="18.2px" font-family="CMUBright-Roman" style="text-anchor:end;fill:rgb(0,0,0);" transform="rotate(-84.5,1395.1,2650.2)" >2200</text>
<line x1='1331.8' y1='2612.4' x2='1328.8' y2='2632.1' style="stroke-width:4.0;stroke:rgb(0,0,0);stroke-linecap:round;fill:none;" />
<text x="1333.7" y="2643.0" font-size="18.2px" font-family="CMUBright-Roman" style="text-anchor:end;fill:rgb(0,0,0);" transform="rotate(-81.4,1333.7,2643.0)" >2250</text>
<line x1='1272.6' y1='2601.8' x2='1268.5' y2='2621.4' style="stroke-width:4.0;stroke:rgb(0,0,0);stroke-linecap:round;fill:none;" />
<text x="1272.9" y="2632.4" font-size="18.2px" font-family="CMUBright-Roman" style="text-anchor:end;fill:rgb(0,0,0);" transform="rotate(-78.3,1272.9,2632.4)" >2300</text>
<line x1='1214.0' y1='2588.0' x2='1208.9' y2='2607.4' style="stroke-width:4.0;stroke:rgb(0,0,0);stroke-linecap:round;fill:none;" />
<text x="1212.6" y="2618.7" font-size="18.2px" font-family="CMUBright-Roman" style="text-anchor:end;fill:rgb(0,0,0);" transform="rotate(-75.3,1212.6,2618.7)" >2350</text>
<line x1='1156.2' y1='2571.2' x2='1150.1' y2='2590.2' style="stroke-width:4.0;stroke:rgb(0,0,0);stroke-linecap:round;fill:none;" />
<text x="1153.2" y="2601.7" font-size="18.2px" font-family="CMUBright-Roman" style="text-anchor:end;fill:rgb(0,0,0);" transform="rotate(-72.2,1153.2,2601.7)" >2400</text>
<line x1='1099.4' y1='2551.3' x2='1092.3' y2='2569.9' style="stroke-width:4.0;stroke:rgb(0,0,0);stroke-linecap:round;fill:none;" />
<text x="1094.8" y="2581.6" font-size="18.2px" font-family="CMUBright-Roman" style="text-anchor:end;fill:rgb(0,0,0);" transform="rotate(-69.1,1094.8,2581.6)" >2450</text>
<line x1='1043.7' y1='2528.3' x2='1035.6' y2='2546.6' style="stroke-width:4.0;stroke:rgb(0,0,0);stroke-linecap:round;fill:none;" />
<text x="1037.5" y="2558.4" font-size="18.2px" font-family="CMUBright-Roman" style="text-anchor:end;fill:rgb(0,0,0);" transform="rotate(-66.1,1037.5,2558.4)" >2500</text>
<line x1='989.4' y1='2502.4' x2='980.3' y2='2520.3' style="stroke-width:4.0;stroke:rgb(0,0,0);stroke-linecap:round;fill:none;" />
<text x="981.6" y="2532.1" font-size="18.2px" font-family="CMUBright-Roman" style="text-anchor:end;fill:rgb(0,0,0);" transform="rotate(-63.0,981.6,2532.1)" >2550</text>
<line x1='936.5' y1='2473.7' x2='926.5' y2='2491.0' style="stroke-width:4.0;stroke:rgb(0,0,0);stroke-linecap:round;fill:none;" />
<text x="927.1" y="2502.9" font-size="18.2px" font-family="CMUBright-Roman" style="text-anchor:end;fill:rgb(0,0,0);" transform="rotate(-59.9,927.1,2502.9)" >2600</text>
<line x1='885.2' y1='2442.2' x2='874.3' y2='2458.9' style="stroke-width:4.0;stroke:rgb(0,0,0);stroke-linecap:round;fill:none;" />
<text x="874.3" y="2470.8" font-size="18.2px" font-family="CMUBright-Roman" style="text-anchor:end;fill:rgb(0,0,0);" transform="rotate(-56.9,874.3,2470.8)" >2650</text>
<line x1='835.7' y1='2407.9' x2='823.9' y2='2424.1' style="stroke-width:4.0;stroke:rgb(0,0,0);stroke-linecap:round;fill:none;" />
<text x="823.3" y="2436.0" font-size="18.2px" font-family="CMUBright-Roman" style="text-anchor:end;fill:rgb(0,0,0);" transform="rotate(-53.8,823.3,2436.0)" >2700</text>
<line x1='788.1' y1='2371.1' x2='775.5' y2='2386.6' style="stroke-width:4.0;stroke:rgb(0,0,0);stroke-linecap:round;fill:none;" />
<text x="774.2" y="2398.4" font-size="18.2px" font-family="CMUBright-Roman" style="text-anchor:end;fill:rgb(0,0,0);" transform="rotate(-50.7,774.2,2398.4)" >2750</text>
<line x1='742.5' y1='2331.8' x2='729.1' y2='2346.6' style="stroke-width:4.0;stroke:rgb(0,0,0);stroke-linecap:round;fill:none;" />
<text x="727.2" y="2358.3" font-size="18.2px" font-family="CMUBright-Roman" style="text-anchor:end;fill:rgb(0,0,0);" transform="rotate(-47.7,727.2,2358.3)" >2800</text>
<line x1='699.1' y1='2290.1' x2='684.9' y2='2304.1' style="stroke-width:4.0;stroke:rgb(0,0,0);stroke-linecap:round;fill:none;" />
<text x="682.4" y="2315.8" font-size="18.2px" font-family="CMUBright-Roman" style="text-anchor:end;fill:rgb(0,0,0);" transform="rotate(-44.6,682.4,2315.8)" >2850</text>
<line x1='658.0' y1='2246.1' x2='643.1' y2='2259.4' style="stroke-width:4.0;stroke:rgb(0,0,0);stroke-linecap:round;fill:none;" />
<text x="639.9" y="2270.9" font-size="18.2px" font-family="CMUBright-Roman" style="text-anchor:end;fill:rgb(0,0,0);" transform="rotate(-41.5,639.9,2270.9)" >2900</text>
<line x1='619.3' y1='2200.0' x2='603.7' y2='2212.5' style="stroke-width:4.0;stroke:rgb(0,0,0);stroke-linecap:round;fill:none;" />
<text x="599.9" y="2223.8" font-size="18.2px" font-family="CMUBright-Roman" style="text-anchor:end;fill:rgb(0,0,0);" transform="rotate(-38.5,599.9,2223.8)" >2950</text>
<line x1='583.2' y1='2151.9' x2='566.9' y2='2163.5' style="stroke-width:4.0;stroke:rgb(0,0,0);stroke-linecap:round;fill:none;" />
<text x="562.5" y="2174.6" font-size="18.2px" font-family="CMUBright-Roman" style="text-anchor:end;fill:rgb(0,0,0);" transform="rotate(-35.4,562.5,2174.6)" >3000</text>
<line x1='549.6' y1='2102.0' x2='532.7' y2='2112.7' style="stroke-width:4.0;stroke:rgb(0,0,0);stroke-linecap:round;fill:none;" />
<text x="527.7" y="2123.5" font-size="18.2px" font-family="CMUBright-Roman" style="text-anchor:end;fill:rgb(0,0,0);" transform="rotate(-32.3,527.7,2123.5)" >3050</text>
<line x1='518.8' y1='2050.3' x2='501.3' y2='2060.1' style="stroke-width:4.0;stroke:rgb(0,0,0);stroke-linecap:round;fill:none;" />
<text x="495.8" y="2070.6" font-size="18.2px" font-family="CMUBright-Roman" style="text-anchor:end;fill:rgb(0,0,0);" transform="rotate(-29.3,495.8,2070.6)" >3100</text>
<line x1='490.7' y1='1997.0' x2='472.8' y2='2005.8' style="stroke-width:4.0;stroke:rgb(0,0,0);stroke-linecap:round;fill:none;" />
<text x="466.7" y="2016.1" font-size="18.2px" font-family="CMUBright-Roman" style="text-anchor:end;fill:rgb(0,0,0);" transform="rotate(-26.2,466.7,2016.1)" >3150</text>
<line x1='465.6' y1='1942.3' x2='447.2' y2='1950.2' style="stroke-width:4.0;stroke:rgb(0,0,0);stroke-linecap:round;fill:none;" />
<text x="440.6" y="1960.1" font-size="18.2px" font-family="CMUBright-Roman" style="text-anchor:end;fill:rgb(0,0,0);" transform="rotate(-23.2,440.6,1960.1)" >3200</text>
<line x1='443.4' y1='1886.4' x2='424.6' y2='1893.2' style="stroke-width:4.0;stroke:rgb(0,0,0);stroke-linecap:round;fill:none;" />
<text x="417.5" y="1902.8" font-size="18.2px" font-family="CMUBright-Roman" style="text-anchor:end;fill:rgb(0,0,0);" transform="rotate(-20.1,417.5,1902.8)" >3250</text>
<line x1='424.3' y1='1829.3' x2='405.2' y2='1835.2' style="stroke-width:4.0;stroke:rgb(0,0,0);stroke-linecap:round;fill:none;" />
<text x="397.5" y="1844.3" font-size="18.2px" font-family="CMUBright-Roman" style="text-anchor:end;fill:rgb(0,0,0);" transform="rotate(-17.0,397.5,1844.3)" >3300</text>
<line x1='408.2' y1='1771.3' x2='388.8' y2='1776.1' style="stroke-width:4.0;stroke:rgb(0,0,0);stroke-linecap:round;fill:none;" />
<text x="380.7" y="1784.8" font-size="18.2px" font-family="CMUBright-Roman" style="text-anchor:end;fill:rgb(0,0,0);" transform="rotate(-14.0,380.7,1784.8)" >3350</text>
<line x1='395.3' y1='1712.5' x2='375.6' y2='1716.3' style="stroke-width:4.0;stroke:rgb(0,0,0);stroke-linecap:round;fill:none;" />
<text x="367.0" y="1724.6" font-size="18.2px" font-family="CMUBright-Roman" style="text-anchor:end;fill:rgb(0,0,0);" transform="rotate(-10.9,367.0,1724.6)" >3400</text>
<line x1='385.5' y1='1653.1' x2='365.7' y2='1655.9' style="stroke-width:4.0;stroke:rgb(0,0,0);stroke-linecap:round;fill:none;" />
<text x="356.7" y="1663.7" font-size="18.2px" font-family="CMUBright-Roman" style="text-anchor:end;fill:rgb(0,0,0);" transform="rotate(-7.8,356.7,1663.7)" >3450</text>
<line x1='378.9' y1='1593.3' x2='358.9' y2='1595.0' style="stroke-width:4.0;stroke:rgb(0,0,0);stroke-linecap:round;fill:none;" />
<text x="349.5" y="1602.3" font-size="18.2px" font-family="CMUBright-Roman" style="text-anchor:end;fill:rgb(0,0,0);" transform="rotate(-4.8,349.5,1602.3)" >3500</text>
<line x1='375.5' y1='1533.2' x2='355.5' y2='1533.8' style="stroke-width:4.0;stroke:rgb(0,0,0);stroke-linecap:round;fill:none;" />
<text x="345.7" y="1540.6" font-size="18.2px" font-family="CMUBright-Roman" style="text-anchor:end;fill:rgb(0,0,0);" transform="rotate(-1.7,345.7,1540.6)" >3550</text>
<line x1='375.3' y1='1473.0' x2='355.3' y2='1472.5' style="stroke-width:4.0;stroke:rgb(0,0,0);stroke-linecap:round;fill:none;" />
<text x="345.2" y="1478.8" font-size="18.2px" font-family="CMUBright-Roman" style="text-anchor:end;fill:rgb(0,0,0);" transform="rotate(1.4,345.2,1478.8)" >3600</text>
<line x1='378.4' y1='1412.9' x2='358.4' y2='1411.4' style="stroke-width:4.0;stroke:rgb(0,0,0);stroke-linecap:round;fill:none;" />
<text x="348.0" y="1417.1" font-size="18.2px" font-family="CMUBright-Roman" style="text-anchor:end;fill:rgb(0,0,0);" transform="rotate(4.4,348.0,1417.1)" >3650</text>
<line x1='384.6' y1='1353.1' x2='364.8' y2='1350.4' style="stroke-width:4.0;stroke:rgb(0,0,0);stroke-linecap:round;fill:none;" />
<text x="354.1" y="1355.6" font-size="18.2px" font-family="CMUBright-Roman" style="text-anchor:end;fill:rgb(0,0,0);" transform="rotate(7.5,354.1,1355.6)" >3700</text>
<line x1='394.1' y1='1293.6' x2='374.4' y2='1289.9' style="stroke-width:4.0;stroke:rgb(0,0,0);stroke-linecap:round;fill:none;" />
<text x="363.4" y="1294.5" font-size="18.2px" font-family="CMUBright-Roman" style="text-anchor:end;fill:rgb(0,0,0);" transform="rotate(10.6,363.4,1294.5)" >3750</text>
<line x1='406.7' y1='1234.8' x2='387.3' y2='1230.0' style="stroke-width:4.0;stroke:rgb(0,0,0);stroke-linecap:round;fill:none;" />
<text x="376.0" y="1234.0" font-size="18.2px" font-family="CMUBright-Roman" style="text-anchor:end;fill:rgb(0,0,0);" transform="rotate(13.6,376.0,1234.0)" >3800</text>
<line x1='422.5' y1='1176.7' x2='403.3' y2='1170.9' style="stroke-width:4.0;stroke:rgb(0,0,0);stroke-linecap:round;fill:none;" />
<text x="391.9" y="1174.3" font-size="18.2px" font-family="CMUBright-Roman" style="text-anchor:end;fill:rgb(0,0,0);" transform="rotate(16.7,391.9,1174.3)" >3850</text>
<line x1='441.3' y1='1119.5' x2='422.5' y2='1112.7' style="stroke-width:4.0;stroke:rgb(0,0,0);stroke-linecap:round;fill:none;" />
<text x="410.9" y="1115.5" font-size="18.2px" font-family="CMUBright-Roman" style="text-anchor:end;fill:rgb(0,0,0);" transform="rotate(19.8,410.9,1115.5)" >3900</text>
<line x1='463.2' y1='1063.4' x2='444.7' y2='1055.7' style="stroke-width:4.0;stroke:rgb(0,0,0);stroke-linecap:round;fill:none;" />
<text x="433.0" y="1057.8" font-size="18.2px" font-family="CMUBright-Roman" style="text-anchor:end;fill:rgb(0,0,0);" transform="rotate(22.8,433.0,1057.8)" >3950</text>
<line x1='488.0' y1='1008.6' x2='470.0' y2='999.9' style="stroke-width:4.0;stroke:rgb(0,0,0);stroke-linecap:round;fill:none;" />
<text x="458.2" y="1001.3" font-size="18.2px" font-family="CMUBright-Roman" style="text-anchor:end;fill:rgb(0,0,0);" transform="rotate(25.9,458.2,1001.3)" >4000</text>
<line x1='515.7' y1='955.2' x2='498.2' y2='945.5' style="stroke-width:4.0;stroke:rgb(0,0,0);stroke-linecap:round;fill:none;" />
<text x="486.3" y="946.3" font-size="18.2px" font-family="CMUBright-Roman" style="text-anchor:end;fill:rgb(0,0,0);" transform="rotate(29.0,486.3,946.3)" >4050</text>
<line x1='546.3' y1='903.3' x2='529.3' y2='892.7' style="stroke-width:4.0;stroke:rgb(0,0,0);stroke-linecap:round;fill:none;" />
<text x="517.4" y="892.9" font-size="18.2px" font-family="CMUBright-Roman" style="text-anchor:end;fill:rgb(0,0,0);" transform="rotate(32.0,517.4,892.9)" >4100</text>
<line x1='579.6' y1='853.2' x2='563.2' y2='841.7' style="stroke-width:4.0;stroke:rgb(0,0,0);stroke-linecap:round;fill:none;" />
<text x="551.3" y="841.2" font-size="18.2px" font-family="CMUBright-Roman" style="text-anchor:end;fill:rgb(0,0,0);" transform="rotate(35.1,551.3,841.2)" >4150</text>
<line x1='615.5' y1='804.9' x2='599.7' y2='792.5' style="stroke-width:4.0;stroke:rgb(0,0,0);stroke-linecap:round;fill:none;" />
<text x="587.9" y="791.4" font-size="18.2px" font-family="CMUBright-Roman" style="text-anchor:end;fill:rgb(0,0,0);" transform="rotate(38.2,587.9,791.4)" >4200</text>
<line x1='653.9' y1='758.5' x2='638.9' y2='745.4' style="stroke-width:4.0;stroke:rgb(0,0,0);stroke-linecap:round;fill:none;" />
<text x="627.1" y="743.7" font-size="18.2px" font-family="CMUBright-Roman" style="text-anchor:end;fill:rgb(0,0,0);" transform="rotate(41.2,627.1,743.7)" >4250</text>
<line x1='694.8' y1='714.4' x2='680.5' y2='700.4' style="stroke-width:4.0;stroke:rgb(0,0,0);stroke-linecap:round;fill:none;" />
<text x="668.8" y="698.1" font-size="18.2px" font-family="CMUBright-Roman" style="text-anchor:end;fill:rgb(0,0,0);" transform="rotate(44.3,668.8,698.1)" >4300</text>
<line x1='737.9' y1='672.4' x2='724.4' y2='657.7' style="stroke-width:4.0;stroke:rgb(0,0,0);stroke-linecap:round;fill:none;" />
<text x="712.9" y="654.8" font-size="18.2px" font-family="CMUBright-Roman" style="text-anchor:end;fill:rgb(0,0,0);" transform="rotate(47.4,712.9,654.8)" >4350</text>
<line x1='783.3' y1='632.8' x2='770.6' y2='617.4' style="stroke-width:4.0;stroke:rgb(0,0,0);stroke-linecap:round;fill:none;" />
<text x="759.2" y="613.9" font-size="18.2px" font-family="CMUBright-Roman" style="text-anchor:end;fill:rgb(0,0,0);" transform="rotate(50.4,759.2,613.9)" >4400</text>
<line x1='830.7' y1='595.8' x2='818.8' y2='579.7' style="stroke-width:4.0;stroke:rgb(0,0,0);stroke-linecap:round;fill:none;" />
<text x="807.6" y="575.5" font-size="18.2px" font-family="CMUBright-Roman" style="text-anchor:end;fill:rgb(0,0,0);" transform="rotate(53.5,807.6,575.5)" >4450</text>
<line x1='880.0' y1='561.3' x2='869.0' y2='544.6' style="stroke-width:4.0;stroke:rgb(0,0,0);stroke-linecap:round;fill:none;" />
<text x="858.1" y="539.8" font-size="18.2px" font-family="CMUBright-Roman" style="text-anchor:end;fill:rgb(0,0,0);" transform="rotate(56.6,858.1,539.8)" >4500</text>
<line x1='931.1' y1='529.4' x2='921.0' y2='512.2' style="stroke-width:4.0;stroke:rgb(0,0,0);stroke-linecap:round;fill:none;" />
<text x="910.3" y="506.9" font-size="18.2px" font-family="CMUBright-Roman" style="text-anchor:end;fill:rgb(0,0,0);" transform="rotate(59.6,910.3,506.9)" >4550</text>
<line x1='983.8' y1='500.4' x2='974.7' y2='482.6' style="stroke-width:4.0;stroke:rgb(0,0,0);stroke-linecap:round;fill:none;" />
<text x="964.3" y="476.7" font-size="18.2px" font-family="CMUBright-Roman" style="text-anchor:end;fill:rgb(0,0,0);" transform="rotate(62.7,964.3,476.7)" >4600</text>
<line x1='1038.0' y1='474.2' x2='1029.8' y2='456.0' style="stroke-width:4.0;stroke:rgb(0,0,0);stroke-linecap:round;fill:none;" />
<text x="1019.8" y="449.6" font-size="18.2px" font-family="CMUBright-Roman" style="text-anchor:end;fill:rgb(0,0,0);" transform="rotate(65.8,1019.8,449.6)" >4650</text>
<line x1='1093.6' y1='451.0' x2='1086.3' y2='432.3' style="stroke-width:4.0;stroke:rgb(0,0,0);stroke-linecap:round;fill:none;" />
<text x="1076.7" y="425.4" font-size="18.2px" font-family="CMUBright-Roman" style="text-anchor:end;fill:rgb(0,0,0);" transform="rotate(68.8,1076.7,425.4)" >4700</text>
<line x1='1150.2' y1='430.8' x2='1144.0' y2='411.7' style="stroke-width:4.0;stroke:rgb(0,0,0);stroke-linecap:round;fill:none;" />
<text x="1134.7" y="404.3" font-size="18.2px" font-family="CMUBright-Roman" style="text-anchor:end;fill:rgb(0,0,0);" transform="rotate(71.9,1134.7,404.3)" >4750</text>
<line x1='1207.9' y1='413.6' x2='1202.7' y2='394.3' style="stroke-width:4.0;stroke:rgb(0,0,0);stroke-linecap:round;fill:none;" />
<text x="1193.9" y="386.3" font-size="18.2px" font-family="CMUBright-Roman" style="text-anchor:end;fill:rgb(0,0,0);" transform="rotate(75.0,1193.9,386.3)" >4800</text>
<line x1='1266.4' y1='399.5' x2='1262.3' y2='379.9' style="stroke-width:4.0;stroke:rgb(0,0,0);stroke-linecap:round;fill:none;" />
<text x="1253.9" y="371.5" font-size="18.2px" font-family="CMUBright-Roman" style="text-anchor:end;fill:rgb(0,0,0);" transform="rotate(78.0,1253.9,371.5)" >4850</text>
<line x1='1325.6' y1='388.6' x2='1322.5' y2='368.8' style="stroke-width:4.0;stroke:rgb(0,0,0);stroke-linecap:round;fill:none;" />
<text x="1314.6" y="360.0" font-size="18.2px" font-family="CMUBright-Roman" style="text-anchor:end;fill:rgb(0,0,0);" transform="rotate(81.1,1314.6,360.0)" >4900</text>
<line x1='1385.3' y1='380.9' x2='1383.3' y2='361.0' style="stroke-width:4.0;stroke:rgb(0,0,0);stroke-linecap:round;fill:none;" />
<text x="1375.8" y="351.7" font-size="18.2px" font-family="CMUBright-Roman" style="text-anchor:end;fill:rgb(0,0,0);" transform="rotate(84.1,1375.8,351.7)" >4950</text>
<g id="highlighttrack_0">
<path d="M1395.404,430.101 A1075.000,1075.000 40.000 0,1 1399.216,429.735 L1394.528,379.955 A1125.000,1125.000 0.000 0,0 1390.539,380.338 Z" style="stroke-width:4.0;stroke:rgb(0,0,0);stroke-linecap:round;fill:rgb(116,196,118);" />
<path d="M1153.900,482.238 A1075.000,1075.000 40.000 0,1 1157.613,480.983 L1141.688,433.587 A1125.000,1125.000 0.000 0,0 1137.803,434.900 Z" style="stroke-width:4.0;stroke:rgb(0,0,0);stroke-linecap:round;fill:rgb(116,196,118);" />
<path d="M2361.943,857.599 A1075.000,1075.000 40.000 0,1 2364.279,860.745 L2404.478,831.013 A1125.000,1125.000 0.000 0,0 2402.034,827.720 Z" style="stroke-width:4.0;stroke:rgb(0,0,0);stroke-linecap:round;fill:rgb(251,106,74);" />
<path d="M1557.139,2573.480 A1075.000,1075.000 40.000 0,1 1553.008,2573.692 L1555.473,2623.631 A1125.000,1125.000 0.000 0,0 1559.797,2623.410 Z" style="stroke-width:4.0;stroke:rgb(0,0,0);stroke-linecap:round;fill:rgb(251,106,74);" />
<path d="M451.396,1263.242 A1075.000,1075.000 40.000 0,1 452.294,1259.299 L403.563,1248.104 A1125.000,1125.000 0.000 0,0 402.624,1252.230 Z" style="stroke-width:4.0;stroke:rgb(0,0,0);stroke-linecap:round;fill:rgb(116,196,118);" />
<path d="M1060.647,518.881 A1075.000,1075.000 40.000 0,1 1064.334,517.239 L1044.070,471.529 A1125.000,1125.000 0.000 0,0 1040.212,473.248 Z" style="stroke-width:4.0;stroke:rgb(0,0,0);stroke-linecap:round;fill:rgb(116,196,118);" />
<path d="M887.116,616.825 A1075.000,1075.000 40.000 0,1 890.297,614.626 L861.939,573.446 A1125.000,1125.000 0.000 0,0 858.609,575.747 Z" style="stroke-width:4.0;stroke:rgb(0,0,0);stroke-linecap:round;fill:rgb(116,196,118);" />
<path d="M880.280,621.608 A1075.000,1075.000 40.000 0,1 883.583,619.287 L854.912,578.324 A1125.000,1125.000 0.000 0,0 851.456,580.753 Z" style="stroke-width:4.0;stroke:rgb(0,0,0);stroke-linecap:round;fill:rgb(116,196,118);" />
<path d="M1417.708,428.154 A1075.000,1075.000 40.000 0,1 1421.022,427.905 L1417.349,378.040 A1125.000,1125.000 0.000 0,0 1413.880,378.301 Z" style="stroke-width:4.0;stroke:rgb(0,0,0);stroke-linecap:round;fill:rgb(251,106,74);" />
<path d="M1085.225,508.240 A1075.000,1075.000 40.000 0,1 1087.415,507.328 L1068.225,461.157 A1125.000,1125.000 0.000 0,0 1065.933,462.112 Z" style="stroke-width:4.0;stroke:rgb(0,0,0);stroke-linecap:round;fill:rgb(116,196,118);" />
<path d="M541.650,1012.978 A1075.000,1075.000 40.000 0,1 543.038,1010.257 L498.528,987.478 A1125.000,1125.000 0.000 0,0 497.076,990.326 Z" style="stroke-width:4.0;stroke:rgb(0,0,0);stroke-linecap:round;fill:rgb(116,196,118);" />
<path d="M522.558,1052.527 A1075.000,1075.000 40.000 0,1 523.841,1049.736 L478.438,1028.794 A1125.000,1125.000 0.000 0,0 477.096,1031.714 Z" style="stroke-width:4.0;stroke:rgb(0,0,0);stroke-linecap:round;fill:rgb(116,196,118);" />
</g>
</g>
<g id="track_0">
<path d="M 1157.361,492.415 A 1064.250,1064.250 0.00 0,1 1161.0,491.2 L 1161.0,491.2 1184.5,560.5 1206.4,624.5 1227.0,683.5 1246.1,737.6 1264.0,787.1 1280.7,832.3 1296.2,873.3 1310.7,910.3 1324.1,943.5 1336.5,973.2 1348.0,999.3 1358.6,1022.1 1368.4,1041.7 1377.4,1058.1 1385.7,1071.5 1393.2,1081.9 1400.0,1089.5 1406.2,1094.1 1411.7,1095.9 1416.6,1094.8 1421.0,1091.0 1424.7,1084.2 1427.9,1074.6 1430.6,1062.0 1432.6,1046.4 1434.2,1027.7 1435.2,1005.9 1435.6,980.7 1435.5,952.2 1434.9,920.0 1433.6,884.2 1431.8,844.5 1429.3,800.7 1426.2,752.7 1422.5,700.2 1418.0,642.9 1412.9,580.7 1406.9,513.3 1400.2,440.4  A 1064.250,1064.250 0.00 0,0 1396.4,440.8 L 1396.4,440.8 1403.4,513.7 1409.6,581.1 1415.0,643.2 1419.6,700.4 1423.6,753.0 1426.8,801.0 1429.4,844.8 1431.4,884.5 1432.8,920.3 1433.6,952.4 1433.8,981.0 1433.4,1006.1 1432.5,1028.0 1431.0,1046.7 1429.0,1062.3 1426.4,1074.8 1423.2,1084.5 1419.5,1091.3 1415.2,1095.2 1410.3,1096.2 1404.7,1094.4 1398.5,1089.8 1391.7,1082.3 1384.1,1071.9 1375.8,1058.6 1366.8,1042.2 1356.9,1022.6 1346.2,999.9 1334.6,973.8 1322.1,944.2 1308.5,911.0 1294.0,874.0 1278.3,833.1 1261.4,788.0 1243.4,738.5 1224.0,684.5 1203.3,625.6 1181.1,561.7 1157.4,492.4  Z" style="stroke-width: 2.0;  stroke: rgb(82,82,82); fill: rgb(251,106,74); opacity: 0.667;" />
<path d="M 2278.746,774.615 A 1064.250,1064.250 0.00 0,1 2281.2,777.3 L 2281.2,777.3 2227.0,826.7 2176.0,871.7 2127.9,912.6 2082.7,949.6 2040.1,982.9 2000.0,1012.7 1962.3,1039.2 1926.8,1062.5 1893.3,1082.8 1861.8,1100.3 1832.2,1115.0 1804.2,1127.1 1777.7,1136.7 1752.8,1143.8 1729.2,1148.4 1706.9,1150.7 1685.7,1150.7 1665.7,1148.4 1646.6,1143.8 1628.4,1136.9 1611.2,1127.6 1594.7,1115.9 1578.9,1101.8 1563.8,1085.2 1549.4,1066.0 1535.5,1044.1 1522.2,1019.3 1509.4,991.6 1497.1,960.9 1485.3,926.8 1474.0,889.4 1463.1,848.3 1452.6,803.4 1442.7,754.5 1433.2,701.3 1424.2,643.5 1415.6,581.0 1407.6,513.4 1400.2,440.4  A 1064.250,1064.250 0.00 0,0 1396.4,440.8 L 1396.4,440.8 1404.1,513.7 1412.4,581.3 1421.1,643.8 1430.3,701.5 1440.0,754.7 1450.2,803.6 1460.8,848.4 1471.8,889.5 1483.3,926.9 1495.2,960.9 1507.6,991.6 1520.5,1019.2 1533.9,1043.9 1547.8,1065.8 1562.3,1085.0 1577.5,1101.5 1593.3,1115.6 1609.8,1127.2 1627.2,1136.4 1645.3,1143.3 1664.4,1147.9 1684.5,1150.1 1705.7,1150.0 1728.0,1147.6 1751.6,1142.9 1776.5,1135.7 1802.9,1126.1 1830.8,1113.9 1860.5,1099.1 1891.9,1081.5 1925.3,1061.0 1960.7,1037.6 1998.3,1011.0 2038.3,981.0 2080.8,947.6 2125.9,910.5 2173.8,869.4 2224.7,824.2 2278.7,774.6  Z" style="stroke-width: 2.0;  stroke: rgb(82,82,82); fill: rgb(116,196,118); opacity: 0.667;" />
<path d="M 2278.746,774.615 A 1064.250,1064.250 0.00 0,1 2281.2,777.3 L 2281.2,777.3 2226.9,826.6 2175.4,871.6 2126.7,912.3 2080.6,949.1 2036.8,982.2 1995.4,1011.8 1956.1,1038.1 1918.7,1061.2 1883.2,1081.4 1849.5,1098.9 1817.3,1113.6 1786.5,1125.8 1757.2,1135.5 1729.0,1142.9 1701.9,1147.9 1675.9,1150.7 1650.7,1151.4 1626.4,1149.8 1602.7,1146.1 1579.6,1140.2 1557.1,1132.1 1534.9,1121.8 1513.1,1109.2 1491.6,1094.2 1470.3,1076.8 1449.1,1056.8 1428.0,1034.2 1406.9,1008.8 1385.7,980.4 1364.4,948.9 1343.0,914.2 1321.3,875.9 1299.4,834.0 1277.2,788.2 1254.7,738.2 1231.9,683.7 1208.7,624.6 1185.1,560.5 1161.0,491.2  A 1064.250,1064.250 0.00 0,0 1157.4,492.4 L 1157.4,492.4 1181.6,561.7 1205.5,625.7 1228.9,684.7 1252.0,739.1 1274.6,789.0 1297.0,834.7 1319.0,876.6 1340.8,914.8 1362.4,949.4 1383.8,980.8 1405.1,1009.1 1426.3,1034.5 1447.5,1057.0 1468.8,1076.9 1490.2,1094.2 1511.7,1109.1 1533.6,1121.7 1555.7,1131.9 1578.3,1139.9 1601.4,1145.8 1625.1,1149.4 1649.5,1150.9 1674.7,1150.1 1700.7,1147.2 1727.7,1142.1 1755.9,1134.6 1785.2,1124.8 1815.9,1112.5 1848.1,1097.7 1881.8,1080.1 1917.2,1059.8 1954.5,1036.5 1993.7,1010.1 2035.1,980.3 2078.7,947.1 2124.7,910.1 2173.3,869.2 2224.6,824.2 2278.7,774.6  Z" style="stroke-width: 2.0;  stroke: rgb(82,82,82); fill: rgb(107,174,214); opacity: 0.667;" />
<path d="M 2353.324,864.023 A 1064.250,1064.250 0.00 0,1 2355.6,867.1 L 2355.6,867.1 2296.3,910.3 2240.4,949.4 2187.9,984.6 2138.5,1016.3 2092.0,1044.6 2048.2,1069.6 2007.1,1091.6 1968.4,1110.7 1932.0,1127.0 1897.7,1140.7 1865.4,1151.9 1834.9,1160.7 1806.2,1167.2 1779.1,1171.4 1753.5,1173.4 1729.2,1173.2 1706.2,1170.8 1684.5,1166.3 1663.8,1159.7 1644.1,1150.9 1625.4,1139.9 1607.5,1126.7 1590.4,1111.2 1574.1,1093.2 1558.5,1072.8 1543.5,1049.9 1529.1,1024.2 1515.3,995.6 1502.1,964.1 1489.5,929.4 1477.3,891.4 1465.7,849.8 1454.6,804.5 1444.1,755.2 1434.1,701.7 1424.7,643.8 1415.9,581.1 1407.7,513.4 1400.2,440.4  A 1064.250,1064.250 0.00 0,0 1396.4,440.8 L 1396.4,440.8 1404.2,513.8 1412.6,581.4 1421.6,644.0 1431.3,702.0 1441.4,755.4 1452.1,804.6 1463.4,849.9 1475.1,891.4 1487.4,929.4 1500.2,964.1 1513.5,995.6 1527.4,1024.1 1541.9,1049.7 1556.9,1072.6 1572.6,1093.0 1589.0,1110.8 1606.1,1126.3 1624.1,1139.5 1642.8,1150.4 1662.6,1159.1 1683.3,1165.7 1705.1,1170.1 1728.0,1172.3 1752.3,1172.4 1777.9,1170.4 1805.0,1166.1 1833.7,1159.5 1864.1,1150.6 1896.4,1139.3 1930.6,1125.5 1967.0,1109.0 2005.6,1089.7 2046.7,1067.6 2090.3,1042.4 2136.7,1014.0 2186.0,982.1 2238.4,946.7 2294.1,907.4 2353.3,864.0  Z" style="stroke-width: 2.0;  stroke: rgb(82,82,82); fill: rgb(253,141,60); opacity: 0.667;" />
<path d="M 2353.324,864.023 A 1064.250,1064.250 0.00 0,1 2355.6,867.1 L 2355.6,867.1 2296.2,910.2 2239.9,949.2 2186.7,984.3 2136.4,1015.7 2088.8,1043.7 2043.7,1068.5 2000.9,1090.2 1960.4,1109.1 1922.0,1125.3 1885.4,1138.9 1850.6,1150.0 1817.5,1158.8 1785.8,1165.4 1755.5,1169.9 1726.4,1172.2 1698.4,1172.5 1671.5,1170.7 1645.4,1167.0 1620.1,1161.3 1595.5,1153.5 1571.5,1143.8 1548.0,1131.9 1524.9,1117.9 1502.1,1101.6 1479.6,1083.0 1457.3,1062.1 1435.1,1038.5 1413.0,1012.3 1390.9,983.2 1368.7,951.1 1346.4,915.9 1324.0,877.2 1301.5,834.9 1278.7,788.7 1255.7,738.5 1232.4,683.9 1208.9,624.7 1185.1,560.6 1161.0,491.2  A 1064.250,1064.250 0.00 0,0 1157.4,492.4 L 1157.4,492.4 1181.7,561.7 1205.7,625.8 1229.5,684.9 1252.9,739.4 1276.1,789.6 1299.0,835.6 1321.8,877.8 1344.3,916.4 1366.7,951.6 1389.0,983.6 1411.2,1012.6 1433.4,1038.7 1455.7,1062.2 1478.1,1083.1 1500.7,1101.6 1523.5,1117.8 1546.7,1131.7 1570.2,1143.5 1594.3,1153.2 1618.9,1160.8 1644.2,1166.5 1670.3,1170.1 1697.2,1171.8 1725.2,1171.4 1754.3,1168.9 1784.6,1164.4 1816.2,1157.7 1849.4,1148.7 1884.1,1137.5 1920.6,1123.7 1959.0,1107.4 1999.5,1088.4 2042.1,1066.5 2087.1,1041.6 2134.6,1013.4 2184.8,981.8 2237.9,946.5 2294.0,907.3 2353.3,864.0  Z" style="stroke-width: 2.0;  stroke: rgb(82,82,82); fill: rgb(255,0,0); opacity: 0.667;" />
<path d="M 2353.324,864.023 A 1064.250,1064.250 0.00 0,1 2355.6,867.1 L 2355.6,867.1 2296.7,910.6 2242.2,950.7 2191.9,987.5 2145.5,1021.2 2102.9,1052.0 2063.9,1080.1 2028.3,1105.4 1995.9,1128.2 1966.7,1148.6 1940.4,1166.7 1916.9,1182.5 1896.2,1196.2 1878.1,1207.7 1862.5,1217.3 1849.4,1224.9 1838.7,1230.5 1830.3,1234.3 1824.3,1236.1 1820.5,1236.1 1819.0,1234.3 1819.7,1230.6 1822.7,1225.0 1827.9,1217.5 1835.4,1208.0 1845.3,1196.5 1857.6,1183.0 1872.4,1167.4 1889.6,1149.6 1909.5,1129.5 1932.2,1107.0 1957.7,1082.1 1986.1,1054.5 2017.7,1024.2 2052.5,991.1 2090.7,955.0 2132.5,915.7 2178.0,873.1 2227.5,827.0 2281.2,777.3  A 1064.250,1064.250 0.00 0,0 2278.7,774.6 L 2278.7,774.6 2225.2,824.6 2175.9,870.8 2130.5,913.6 2088.8,953.0 2050.7,989.2 2016.0,1022.5 1984.6,1052.8 1956.2,1080.5 1930.8,1105.5 1908.3,1128.1 1888.4,1148.2 1871.2,1166.1 1856.5,1181.8 1844.3,1195.3 1834.4,1206.8 1826.9,1216.3 1821.7,1223.8 1818.7,1229.4 1818.0,1233.2 1819.6,1235.0 1823.3,1235.0 1829.4,1233.1 1837.7,1229.3 1848.4,1223.6 1861.5,1216.0 1877.0,1206.4 1895.1,1194.7 1915.7,1181.0 1939.1,1165.1 1965.4,1146.9 1994.6,1126.4 2026.8,1103.5 2062.4,1078.0 2101.3,1049.9 2143.8,1018.9 2190.0,985.0 2240.2,948.0 2294.6,907.7 2353.3,864.0  Z" style="stroke-width: 2.0;  stroke: rgb(82,82,82); fill: rgb(255,0,204); opacity: 0.667;" />
<path d="M 1556.568,2562.746 A 1064.250,1064.250 0.00 0,1 1552.5,2563.0 L 1552.5,2563.0 1547.6,2488.7 1540.7,2417.7 1532.2,2349.8 1522.3,2284.8 1511.4,2222.5 1499.7,2162.8 1487.6,2105.3 1475.2,2050.1 1462.8,1996.7 1450.6,1945.2 1438.9,1895.2 1427.6,1846.6 1417.1,1799.3 1407.4,1753.0 1398.7,1707.5 1391.0,1662.8 1384.3,1618.6 1378.9,1574.7 1374.5,1531.0 1371.4,1487.3 1369.4,1443.4 1368.6,1399.2 1368.9,1354.4 1370.1,1309.1 1372.3,1262.8 1375.3,1215.6 1378.9,1167.3 1383.1,1117.6 1387.6,1066.4 1392.3,1013.7 1396.9,959.1 1401.3,902.6 1405.1,844.1 1408.1,783.2 1410.0,720.0 1410.5,654.3 1409.3,585.9 1406.0,514.6 1400.2,440.4  A 1064.250,1064.250 0.00 0,0 1396.4,440.8 L 1396.4,440.8 1402.5,515.0 1406.1,586.2 1407.5,654.6 1407.3,720.4 1405.6,783.6 1402.8,844.4 1399.2,903.0 1395.0,959.5 1390.6,1014.1 1386.1,1066.9 1381.7,1118.0 1377.7,1167.7 1374.3,1216.1 1371.4,1263.3 1369.4,1309.5 1368.4,1354.9 1368.3,1399.6 1369.3,1443.9 1371.4,1487.7 1374.7,1531.4 1379.2,1575.1 1384.8,1619.0 1391.6,1663.2 1399.5,1707.9 1408.4,1753.3 1418.3,1799.6 1429.0,1846.9 1440.4,1895.4 1452.4,1945.3 1464.7,1996.9 1477.3,2050.1 1489.9,2105.4 1502.2,2162.8 1514.1,2222.5 1525.3,2284.7 1535.4,2349.7 1544.2,2417.5 1551.4,2488.5 1556.6,2562.7  Z" style="stroke-width: 2.0;  stroke: rgb(82,82,82); fill: rgb(255,204,204); opacity: 0.667;" />
<path d="M 1556.568,2562.746 A 1064.250,1064.250 0.00 0,1 1552.5,2563.0 L 1552.5,2563.0 1547.6,2488.8 1540.7,2418.2 1532.2,2350.9 1522.2,2286.8 1511.1,2225.4 1499.2,2166.7 1486.6,2110.5 1473.5,2056.4 1460.3,2004.4 1447.0,1954.2 1433.9,1905.5 1420.9,1858.3 1408.4,1812.3 1396.4,1767.3 1384.9,1723.2 1374.1,1679.7 1363.9,1636.6 1354.4,1593.9 1345.7,1551.3 1337.6,1508.6 1330.2,1465.7 1323.4,1422.5 1317.2,1378.7 1311.4,1334.2 1306.0,1288.9 1300.8,1242.6 1295.7,1195.2 1290.4,1146.5 1285.0,1096.5 1279.0,1044.9 1272.3,991.6 1264.7,936.5 1256.0,879.5 1245.7,820.5 1233.6,759.4 1219.5,696.0 1202.9,630.2 1183.6,562.0 1161.0,491.2  A 1064.250,1064.250 0.00 0,0 1157.4,492.4 L 1157.4,492.4 1180.1,563.1 1199.7,631.3 1216.6,697.0 1230.9,760.4 1243.2,821.5 1253.7,880.4 1262.7,937.4 1270.5,992.4 1277.3,1045.7 1283.5,1097.3 1289.2,1147.3 1294.6,1196.0 1299.9,1243.4 1305.2,1289.6 1310.8,1334.9 1316.8,1379.4 1323.2,1423.1 1330.1,1466.3 1337.7,1509.2 1345.9,1551.8 1354.8,1594.4 1364.4,1637.1 1374.8,1680.1 1385.8,1723.6 1397.4,1767.7 1409.6,1812.6 1422.3,1858.6 1435.4,1905.8 1448.8,1954.4 1462.2,2004.5 1475.7,2056.5 1488.9,2110.5 1501.7,2166.7 1513.9,2225.4 1525.2,2286.7 1535.5,2350.8 1544.3,2418.1 1551.4,2488.6 1556.6,2562.7  Z" style="stroke-width: 2.0;  stroke: rgb(82,82,82); fill: rgb(255,153,0); opacity: 0.667;" />
<path d="M 1556.568,2562.746 A 1064.250,1064.250 0.00 0,1 1552.5,2563.0 L 1552.5,2563.0 1549.9,2489.1 1549.7,2419.2 1551.4,2353.0 1554.9,2290.3 1560.0,2230.8 1566.5,2174.3 1574.3,2120.5 1583.0,2069.2 1592.7,2020.2 1603.1,1973.3 1614.2,1928.2 1625.9,1884.8 1638.1,1842.8 1650.8,1802.0 1663.8,1762.4 1677.3,1723.7 1691.1,1685.6 1705.2,1648.2 1719.8,1611.1 1734.8,1574.4 1750.3,1537.7 1766.4,1501.1 1783.1,1464.2 1800.7,1427.2 1819.1,1389.7 1838.5,1351.8 1859.2,1313.2 1881.2,1274.0 1904.8,1234.0 1930.2,1193.2 1957.6,1151.4 1987.2,1108.6 2019.3,1064.8 2054.2,1019.9 2092.2,973.8 2133.5,926.6 2178.6,878.1 2227.7,828.3 2281.2,777.3  A 1064.250,1064.250 0.00 0,0 2278.7,774.6 L 2278.7,774.6 2225.4,825.8 2176.5,875.7 2131.6,924.4 2090.4,971.8 2052.6,1018.0 2017.8,1063.0 1985.9,1107.0 1956.4,1149.8 1929.2,1191.7 1903.9,1232.6 1880.5,1272.7 1858.6,1312.0 1838.0,1350.6 1818.7,1388.6 1800.4,1426.1 1783.1,1463.2 1766.4,1500.1 1750.5,1536.8 1735.1,1573.5 1720.2,1610.4 1705.8,1647.5 1691.8,1685.0 1678.1,1723.0 1664.9,1761.8 1652.0,1801.5 1639.5,1842.3 1627.4,1884.3 1615.9,1927.8 1604.9,1972.9 1594.7,2019.9 1585.2,2068.9 1576.6,2120.2 1569.1,2174.0 1562.9,2230.6 1558.0,2290.1 1554.7,2352.8 1553.2,2419.0 1553.7,2488.9 1556.6,2562.7  Z" style="stroke-width: 2.0;  stroke: rgb(82,82,82); fill: rgb(255,204,0); opacity: 0.667;" />
<path d="M 1556.568,2562.746 A 1064.250,1064.250 0.00 0,1 1552.5,2563.0 L 1552.5,2563.0 1549.9,2489.1 1549.6,2419.4 1551.2,2353.5 1554.7,2291.2 1559.7,2232.2 1566.1,2176.3 1573.8,2123.2 1582.6,2072.7 1592.4,2024.6 1603.0,1978.6 1614.4,1934.5 1626.5,1892.2 1639.2,1851.4 1652.4,1811.9 1666.2,1773.6 1680.5,1736.3 1695.4,1699.8 1710.7,1664.0 1726.7,1628.7 1743.2,1593.8 1760.4,1559.1 1778.4,1524.5 1797.2,1490.0 1817.0,1455.3 1837.9,1420.3 1860.0,1385.1 1883.6,1349.4 1908.7,1313.2 1935.5,1276.5 1964.4,1239.1 1995.4,1201.1 2028.9,1162.3 2065.1,1122.7 2104.3,1082.3 2146.8,1041.0 2192.8,998.9 2242.7,955.8 2296.9,911.9 2355.6,867.1  A 1064.250,1064.250 0.00 0,0 2353.3,864.0 L 2353.3,864.0 2294.7,909.0 2240.7,953.1 2191.0,996.3 2145.1,1038.7 2102.8,1080.1 2063.8,1120.6 2027.7,1160.3 1994.3,1199.3 1963.4,1237.4 1934.7,1274.9 1908.0,1311.7 1883.0,1348.0 1859.6,1383.7 1837.6,1419.1 1816.9,1454.1 1797.2,1488.9 1778.5,1523.5 1760.7,1558.2 1743.6,1592.9 1727.2,1627.9 1711.4,1663.2 1696.1,1699.1 1681.5,1735.6 1667.3,1773.0 1653.6,1811.3 1640.5,1850.8 1628.0,1891.7 1616.1,1934.1 1604.9,1978.2 1594.4,2024.2 1584.8,2072.4 1576.2,2122.9 1568.7,2176.0 1562.5,2232.0 1557.7,2291.0 1554.5,2353.3 1553.1,2419.2 1553.7,2488.9 1556.6,2562.7  Z" style="stroke-width: 2.0;  stroke: rgb(82,82,82); fill: rgb(255,255,0); opacity: 0.667;" />
<path d="M 461.882,1265.610 A 1064.250,1064.250 0.00 0,1 462.8,1261.7 L 462.8,1261.7 534.5,1277.4 601.6,1290.7 664.4,1301.6 723.1,1310.3 777.9,1317.0 829.1,1321.7 876.9,1324.6 921.5,1325.7 963.2,1325.2 1002.0,1323.1 1038.3,1319.5 1072.2,1314.3 1103.8,1307.7 1133.2,1299.7 1160.7,1290.2 1186.3,1279.4 1210.3,1267.0 1232.5,1253.2 1253.3,1237.9 1272.6,1220.9 1290.5,1202.4 1307.2,1182.1 1322.5,1160.0 1336.7,1136.1 1349.7,1110.1 1361.5,1081.9 1372.2,1051.5 1381.8,1018.6 1390.1,983.1 1397.4,944.8 1403.3,903.6 1408.1,859.2 1411.5,811.5 1413.6,760.1 1414.2,704.9 1413.2,645.6 1410.7,581.9 1406.4,513.6 1400.2,440.4  A 1064.250,1064.250 0.00 0,0 1396.4,440.8 L 1396.4,440.8 1402.9,514.0 1407.4,582.2 1410.2,645.9 1411.3,705.2 1410.9,760.4 1409.1,811.8 1405.8,859.6 1401.2,904.0 1395.4,945.2 1388.3,983.5 1380.0,1019.0 1370.6,1051.9 1360.0,1082.4 1348.3,1110.6 1335.4,1136.7 1321.3,1160.7 1306.0,1182.8 1289.4,1203.2 1271.6,1221.8 1252.3,1238.8 1231.6,1254.2 1209.4,1268.1 1185.5,1280.5 1159.9,1291.5 1132.5,1301.1 1103.1,1309.2 1071.5,1315.9 1037.7,1321.2 1001.4,1325.0 962.5,1327.2 920.9,1327.9 876.2,1326.9 828.4,1324.2 777.2,1319.7 722.4,1313.2 663.7,1304.7 600.9,1294.1 533.7,1281.1 461.9,1265.6  Z" style="stroke-width: 2.0;  stroke: rgb(82,82,82); fill: rgb(204,255,0); opacity: 0.667;" />
<path d="M 461.882,1265.610 A 1064.250,1064.250 0.00 0,1 462.8,1261.7 L 462.8,1261.7 534.4,1277.5 601.2,1291.1 663.5,1302.4 721.4,1311.7 775.3,1319.1 825.4,1324.6 871.8,1328.3 914.9,1330.4 954.8,1330.9 991.6,1329.8 1025.6,1327.2 1057.0,1323.1 1085.8,1317.6 1112.2,1310.6 1136.4,1302.3 1158.5,1292.4 1178.5,1281.2 1196.5,1268.4 1212.7,1254.1 1227.1,1238.2 1239.7,1220.7 1250.6,1201.5 1259.9,1180.5 1267.5,1157.6 1273.5,1132.7 1277.8,1105.7 1280.5,1076.5 1281.4,1044.9 1280.7,1010.8 1278.2,974.0 1273.8,934.4 1267.5,891.7 1259.2,845.8 1248.8,796.6 1236.2,743.7 1221.3,686.9 1203.8,626.1 1183.8,560.9 1161.0,491.2  A 1064.250,1064.250 0.00 0,0 1157.4,492.4 L 1157.4,492.4 1180.4,562.1 1200.7,627.2 1218.3,687.9 1233.4,744.6 1246.2,797.5 1256.8,846.7 1265.3,892.6 1271.7,935.2 1276.2,974.8 1278.9,1011.6 1279.8,1045.7 1278.9,1077.3 1276.4,1106.5 1272.1,1133.5 1266.3,1158.5 1258.7,1181.4 1249.6,1202.4 1238.7,1221.7 1226.1,1239.2 1211.8,1255.2 1195.7,1269.5 1177.7,1282.4 1157.7,1293.7 1135.7,1303.6 1111.5,1312.1 1085.1,1319.1 1056.3,1324.8 1025.0,1329.0 991.0,1331.7 954.1,1332.9 914.3,1332.6 871.2,1330.7 824.7,1327.1 774.6,1321.8 720.7,1314.6 662.7,1305.6 600.4,1294.4 533.6,1281.2 461.9,1265.6  Z" style="stroke-width: 2.0;  stroke: rgb(82,82,82); fill: rgb(0,255,0); opacity: 0.667;" />
<path d="M 461.882,1265.610 A 1064.250,1064.250 0.00 0,1 462.8,1261.7 L 462.8,1261.7 535.0,1277.2 603.6,1289.8 668.8,1299.7 730.8,1307.2 789.8,1312.7 846.0,1316.1 899.7,1317.9 951.1,1318.1 1000.2,1317.0 1047.5,1314.6 1093.0,1311.2 1136.9,1306.8 1179.4,1301.5 1220.7,1295.5 1260.9,1288.7 1300.3,1281.3 1338.9,1273.2 1377.0,1264.5 1414.7,1255.2 1452.2,1245.2 1489.5,1234.5 1526.9,1223.1 1564.4,1210.9 1602.3,1197.8 1640.6,1183.6 1679.4,1168.3 1718.9,1151.7 1759.2,1133.7 1800.3,1114.1 1842.5,1092.6 1885.7,1069.1 1930.1,1043.4 1975.8,1015.2 2022.9,984.2 2071.4,950.1 2121.4,912.7 2173.0,871.7 2226.3,826.7 2281.2,777.3  A 1064.250,1064.250 0.00 0,0 2278.7,774.6 L 2278.7,774.6 2223.9,824.2 2170.8,869.4 2119.4,910.6 2069.5,948.2 2021.1,982.4 1974.2,1013.5 1928.6,1041.9 1884.2,1067.8 1841.1,1091.5 1799.0,1113.1 1757.9,1132.8 1717.7,1151.0 1678.2,1167.7 1639.5,1183.2 1601.2,1197.4 1563.4,1210.7 1525.9,1223.1 1488.6,1234.6 1451.3,1245.4 1413.9,1255.5 1376.2,1265.0 1338.1,1273.8 1299.5,1282.0 1260.1,1289.6 1219.9,1296.5 1178.7,1302.7 1136.2,1308.2 1092.3,1312.7 1046.8,1316.3 999.6,1318.9 950.4,1320.2 899.0,1320.2 845.3,1318.6 789.1,1315.3 730.1,1310.1 668.0,1302.8 602.8,1293.1 534.2,1280.8 461.9,1265.6  Z" style="stroke-width: 2.0;  stroke: rgb(82,82,82); fill: rgb(53,128,0); opacity: 0.667;" />
<path d="M 461.882,1265.610 A 1064.250,1064.250 0.00 0,1 462.8,1261.7 L 462.8,1261.7 535.1,1277.2 603.9,1289.7 669.4,1299.6 731.7,1307.2 791.3,1312.6 848.1,1316.1 902.5,1318.0 954.6,1318.4 1004.6,1317.5 1052.7,1315.5 1099.1,1312.5 1144.0,1308.7 1187.6,1304.1 1230.0,1298.9 1271.5,1293.1 1312.1,1286.8 1352.1,1280.0 1391.6,1272.8 1430.7,1265.2 1469.7,1257.0 1508.7,1248.4 1547.7,1239.3 1587.1,1229.5 1626.8,1219.0 1667.1,1207.8 1708.1,1195.6 1749.9,1182.4 1792.6,1167.9 1836.3,1152.1 1881.3,1134.7 1927.5,1115.6 1975.0,1094.4 2024.1,1071.0 2074.8,1045.0 2127.2,1016.3 2181.4,984.4 2237.5,949.2 2295.5,910.2 2355.6,867.1  A 1064.250,1064.250 0.00 0,0 2353.3,864.0 L 2353.3,864.0 2293.4,907.3 2235.5,946.5 2179.5,982.0 2125.5,1014.0 2073.2,1042.9 2022.6,1069.1 1973.6,1092.7 1926.0,1114.0 1879.9,1133.4 1835.1,1150.9 1791.4,1166.9 1748.7,1181.5 1707.0,1194.9 1666.1,1207.2 1625.8,1218.6 1586.1,1229.2 1546.8,1239.1 1507.7,1248.4 1468.8,1257.2 1429.8,1265.4 1390.7,1273.3 1351.3,1280.6 1311.3,1287.5 1270.7,1294.0 1229.3,1299.9 1186.9,1305.3 1143.3,1310.0 1098.4,1314.0 1052.0,1317.2 1003.9,1319.4 953.9,1320.4 901.8,1320.2 847.4,1318.6 790.6,1315.2 731.0,1310.0 668.6,1302.7 603.1,1293.1 534.3,1280.8 461.9,1265.6  Z" style="stroke-width: 2.0;  stroke: rgb(82,82,82); fill: rgb(0,0,204); opacity: 0.667;" />
<path d="M 461.882,1265.610 A 1064.250,1064.250 0.00 0,1 462.8,1261.7 L 462.8,1261.7 534.4,1279.2 601.2,1297.4 663.4,1316.4 721.5,1335.9 775.7,1356.0 826.2,1376.5 873.4,1397.5 917.5,1418.9 958.8,1440.6 997.4,1462.6 1033.7,1485.0 1067.8,1507.7 1099.9,1530.7 1130.2,1554.1 1158.8,1577.9 1186.0,1602.2 1211.8,1627.0 1236.3,1652.3 1259.8,1678.4 1282.2,1705.2 1303.7,1732.8 1324.4,1761.5 1344.3,1791.2 1363.4,1822.2 1381.8,1854.6 1399.5,1888.5 1416.6,1924.1 1432.9,1961.7 1448.6,2001.3 1463.5,2043.2 1477.6,2087.7 1490.9,2134.9 1503.2,2185.0 1514.6,2238.4 1524.9,2295.2 1533.9,2355.8 1541.6,2420.4 1547.9,2489.4 1552.5,2563.0  A 1064.250,1064.250 0.00 0,0 1556.6,2562.7 L 1556.6,2562.7 1551.7,2489.2 1545.2,2420.3 1537.2,2355.7 1527.9,2295.1 1517.4,2238.3 1505.9,2185.0 1493.3,2134.9 1479.9,2087.8 1465.6,2043.4 1450.5,2001.5 1434.7,1961.9 1418.2,1924.5 1401.0,1888.9 1383.2,1855.0 1364.6,1822.7 1345.4,1791.8 1325.4,1762.1 1304.6,1733.6 1283.0,1706.0 1260.5,1679.3 1236.9,1653.3 1212.3,1628.0 1186.4,1603.4 1159.1,1579.2 1130.4,1555.5 1100.0,1532.2 1067.8,1509.3 1033.7,1486.7 997.3,1464.5 958.6,1442.6 917.2,1421.1 873.0,1399.9 825.7,1379.1 775.1,1358.7 720.9,1338.8 662.7,1319.5 600.4,1300.8 533.6,1282.8 461.9,1265.6  Z" style="stroke-width: 2.0;  stroke: rgb(82,82,82); fill: rgb(102,153,255); opacity: 0.667;" />
<path d="M 1065.040,528.693 A 1064.250,1064.250 0.00 0,1 1068.7,527.1 L 1068.7,527.1 1098.5,593.9 1126.5,655.6 1152.7,712.3 1177.2,764.3 1200.1,811.8 1221.5,855.1 1241.4,894.3 1260.0,929.7 1277.2,961.3 1293.3,989.5 1308.2,1014.2 1322.0,1035.7 1334.8,1054.1 1346.6,1069.4 1357.5,1081.7 1367.4,1091.2 1376.6,1097.8 1384.9,1101.5 1392.5,1102.5 1399.3,1100.7 1405.4,1096.2 1410.9,1088.8 1415.6,1078.6 1419.7,1065.5 1423.1,1049.4 1426.0,1030.3 1428.1,1008.0 1429.7,982.5 1430.5,953.6 1430.8,921.2 1430.4,885.1 1429.2,845.2 1427.4,801.2 1424.9,753.0 1421.6,700.4 1417.5,643.1 1412.6,580.8 1406.9,513.4 1400.2,440.4  A 1064.250,1064.250 0.00 0,0 1396.4,440.8 L 1396.4,440.8 1403.4,513.7 1409.4,581.1 1414.5,643.4 1418.8,700.7 1422.2,753.3 1424.9,801.5 1426.9,845.5 1428.2,885.4 1428.7,921.5 1428.6,953.9 1427.8,982.8 1426.4,1008.3 1424.3,1030.5 1421.5,1049.7 1418.1,1065.8 1414.1,1078.9 1409.4,1089.1 1404.0,1096.5 1397.9,1101.1 1391.0,1102.9 1383.5,1102.0 1375.1,1098.2 1365.9,1091.7 1355.9,1082.3 1345.0,1070.0 1333.1,1054.7 1320.3,1036.4 1306.4,1015.0 1291.4,990.3 1275.2,962.2 1257.8,930.6 1239.1,895.3 1219.0,856.1 1197.5,812.9 1174.4,765.5 1149.8,713.6 1123.4,657.0 1095.1,595.4 1065.0,528.7  Z" style="stroke-width: 2.0;  stroke: rgb(82,82,82); fill: rgb(153,204,255); opacity: 0.667;" />
<path d="M 1065.040,528.693 A 1064.250,1064.250 0.00 0,1 1068.7,527.1 L 1068.7,527.1 1098.4,594.0 1126.0,655.7 1151.5,712.6 1175.1,764.9 1196.8,812.8 1216.8,856.4 1235.2,896.1 1251.9,932.0 1267.1,964.2 1280.9,993.0 1293.3,1018.4 1304.4,1040.6 1314.2,1059.6 1322.8,1075.7 1330.2,1088.8 1336.5,1099.1 1341.6,1106.6 1345.6,1111.3 1348.6,1113.3 1350.5,1112.6 1351.4,1109.1 1351.1,1102.9 1349.9,1093.9 1347.5,1082.1 1344.1,1067.4 1339.6,1049.8 1334.0,1029.1 1327.2,1005.2 1319.2,978.1 1309.9,947.6 1299.4,913.5 1287.5,875.8 1274.2,834.1 1259.5,788.4 1243.2,738.4 1225.3,684.0 1205.7,624.8 1184.3,560.6 1161.0,491.2  A 1064.250,1064.250 0.00 0,0 1157.4,492.4 L 1157.4,492.4 1180.9,561.7 1202.5,625.8 1222.3,685.0 1240.4,739.4 1256.9,789.3 1271.8,835.0 1285.2,876.6 1297.2,914.3 1307.9,948.3 1317.2,978.8 1325.3,1005.9 1332.2,1029.7 1338.0,1050.3 1342.5,1068.0 1346.0,1082.7 1348.4,1094.5 1349.7,1103.4 1349.9,1109.7 1349.1,1113.1 1347.2,1113.9 1344.2,1111.9 1340.1,1107.2 1335.0,1099.7 1328.7,1089.5 1321.2,1076.4 1312.6,1060.3 1302.7,1041.3 1291.5,1019.1 1279.0,993.8 1265.1,965.1 1249.8,932.9 1232.9,897.1 1214.4,857.5 1194.3,813.9 1172.3,766.1 1148.6,713.9 1122.8,657.1 1095.0,595.5 1065.0,528.7  Z" style="stroke-width: 2.0;  stroke: rgb(82,82,82); fill: rgb(0,255,255); opacity: 0.667;" />
<path d="M 1065.040,528.693 A 1064.250,1064.250 0.00 0,1 1068.7,527.1 L 1068.7,527.1 1099.1,593.9 1128.7,655.6 1157.6,712.3 1185.8,764.5 1213.3,812.3 1240.2,856.1 1266.5,896.1 1292.2,932.4 1317.6,965.4 1342.5,995.2 1367.1,1022.0 1391.4,1046.0 1415.5,1067.2 1439.5,1085.9 1463.4,1102.1 1487.4,1116.0 1511.5,1127.6 1535.8,1137.0 1560.4,1144.3 1585.4,1149.4 1610.8,1152.5 1636.8,1153.5 1663.6,1152.3 1691.1,1149.1 1719.5,1143.7 1748.9,1136.0 1779.5,1126.0 1811.3,1113.7 1844.5,1098.8 1879.2,1081.3 1915.5,1061.1 1953.5,1037.9 1993.5,1011.6 2035.5,982.0 2079.7,949.0 2126.2,912.2 2175.2,871.5 2226.8,826.6 2281.2,777.3  A 1064.250,1064.250 0.00 0,0 2278.7,774.6 L 2278.7,774.6 2224.5,824.1 2173.1,869.2 2124.2,910.1 2077.8,947.0 2033.7,980.2 1991.8,1009.9 1951.9,1036.3 1913.9,1059.6 1877.7,1080.0 1843.1,1097.6 1809.9,1112.6 1778.2,1125.1 1747.6,1135.2 1718.2,1142.9 1689.8,1148.4 1662.3,1151.8 1635.6,1153.0 1609.6,1152.1 1584.1,1149.2 1559.1,1144.1 1534.5,1136.9 1510.2,1127.6 1486.0,1116.1 1462.0,1102.3 1438.0,1086.1 1413.9,1067.5 1389.7,1046.4 1365.3,1022.5 1340.6,995.8 1315.6,966.1 1290.1,933.2 1264.2,897.0 1237.7,857.1 1210.7,813.4 1183.0,765.7 1154.7,713.6 1125.6,657.0 1095.7,595.4 1065.0,528.7  Z" style="stroke-width: 2.0;  stroke: rgb(82,82,82); fill: rgb(204,255,255); opacity: 0.667;" />
<path d="M 1065.040,528.693 A 1064.250,1064.250 0.00 0,1 1068.7,527.1 L 1068.7,527.1 1099.2,593.9 1129.0,655.6 1158.2,712.5 1186.8,764.8 1214.8,812.9 1242.2,856.9 1269.2,897.2 1295.7,934.0 1321.9,967.5 1347.7,997.9 1373.2,1025.3 1398.6,1050.1 1423.8,1072.2 1448.9,1091.9 1474.0,1109.3 1499.2,1124.4 1524.7,1137.4 1550.3,1148.4 1576.4,1157.3 1602.9,1164.3 1629.9,1169.4 1657.7,1172.6 1686.2,1173.8 1715.6,1173.1 1746.1,1170.4 1777.6,1165.7 1810.5,1158.9 1844.7,1149.9 1880.5,1138.6 1917.9,1125.0 1957.2,1108.8 1998.4,1089.9 2041.8,1068.2 2087.4,1043.5 2135.5,1015.5 2186.2,984.2 2239.7,949.1 2296.1,910.2 2355.6,867.1  A 1064.250,1064.250 0.00 0,0 2353.3,864.0 L 2353.3,864.0 2293.9,907.3 2237.7,946.4 2184.3,981.7 2133.8,1013.2 2085.8,1041.3 2040.2,1066.2 1996.9,1088.1 1955.8,1107.1 1916.6,1123.5 1879.2,1137.3 1843.4,1148.7 1809.2,1157.8 1776.4,1164.7 1744.8,1169.5 1714.4,1172.3 1685.0,1173.1 1656.5,1172.0 1628.7,1168.9 1601.6,1164.0 1575.1,1157.0 1549.0,1148.2 1523.3,1137.3 1497.8,1124.4 1472.6,1109.4 1447.4,1092.1 1422.2,1072.5 1396.9,1050.4 1371.5,1025.8 1345.8,998.4 1319.9,968.2 1293.6,934.8 1266.9,898.1 1239.8,857.9 1212.2,813.9 1184.0,766.0 1155.2,713.8 1125.8,657.0 1095.8,595.4 1065.0,528.7  Z" style="stroke-width: 2.0;  stroke: rgb(82,82,82); fill: rgb(153,0,204); opacity: 0.667;" />
<path d="M 1065.040,528.693 A 1064.250,1064.250 0.00 0,1 1068.7,527.1 L 1068.7,527.1 1097.7,595.4 1123.2,661.4 1145.8,725.1 1165.6,786.6 1183.1,846.1 1198.5,903.5 1212.2,959.0 1224.4,1012.7 1235.5,1064.8 1245.6,1115.2 1255.0,1164.2 1263.9,1211.9 1272.4,1258.4 1280.8,1303.8 1289.2,1348.2 1297.7,1391.8 1306.5,1434.8 1315.5,1477.3 1325.0,1519.4 1335.0,1561.4 1345.5,1603.2 1356.5,1645.3 1368.0,1687.6 1380.0,1730.4 1392.5,1773.9 1405.4,1818.2 1418.7,1863.5 1432.2,1910.1 1445.9,1958.1 1459.6,2007.7 1473.1,2059.1 1486.3,2112.6 1499.1,2168.4 1511.1,2226.6 1522.3,2287.5 1532.2,2351.4 1540.8,2418.4 1547.6,2488.9 1552.5,2563.0  A 1064.250,1064.250 0.00 0,0 1556.6,2562.7 L 1556.6,2562.7 1551.4,2488.7 1544.3,2418.3 1535.5,2351.3 1525.3,2287.5 1513.9,2226.6 1501.6,2168.4 1488.7,2112.7 1475.3,2059.2 1461.5,2007.8 1447.7,1958.3 1433.8,1910.3 1420.1,1863.8 1406.7,1818.5 1393.6,1774.3 1380.9,1730.9 1368.7,1688.1 1357.0,1645.8 1345.9,1603.8 1335.3,1562.0 1325.1,1520.1 1315.5,1478.0 1306.2,1435.6 1297.3,1392.6 1288.6,1349.0 1280.1,1304.6 1271.5,1259.2 1262.8,1212.8 1253.7,1165.2 1244.2,1116.2 1233.9,1065.8 1222.6,1013.8 1210.2,960.1 1196.3,904.6 1180.6,847.3 1162.9,787.9 1142.9,726.4 1120.1,662.8 1094.3,596.9 1065.0,528.7  Z" style="stroke-width: 2.0;  stroke: rgb(82,82,82); fill: rgb(204,51,255); opacity: 0.667;" />
<path d="M 1065.040,528.693 A 1064.250,1064.250 0.00 0,1 1068.7,527.1 L 1068.7,527.1 1097.9,594.3 1124.0,657.2 1147.1,715.9 1167.5,770.7 1185.2,821.8 1200.4,869.4 1213.3,913.8 1223.8,955.0 1232.2,993.3 1238.5,1028.8 1242.8,1061.8 1245.2,1092.3 1245.6,1120.5 1244.2,1146.5 1240.9,1170.5 1235.9,1192.5 1229.0,1212.7 1220.2,1231.1 1209.7,1247.8 1197.2,1263.0 1182.8,1276.5 1166.3,1288.6 1147.8,1299.2 1127.2,1308.4 1104.3,1316.1 1079.0,1322.5 1051.2,1327.4 1020.8,1330.9 987.7,1333.0 951.6,1333.5 912.4,1332.6 869.9,1330.0 824.0,1325.9 774.3,1320.0 720.8,1312.3 663.1,1302.8 601.1,1291.2 534.4,1277.6 462.8,1261.7  A 1064.250,1064.250 0.00 0,0 461.9,1265.6 L 461.9,1265.6 533.5,1281.2 600.3,1294.6 662.4,1305.9 720.1,1315.3 773.7,1322.7 823.3,1328.4 869.3,1332.4 911.8,1334.8 951.0,1335.6 987.0,1334.9 1020.2,1332.7 1050.6,1329.1 1078.3,1324.1 1103.6,1317.6 1126.5,1309.8 1147.1,1300.5 1165.6,1289.9 1181.9,1277.7 1196.3,1264.1 1208.7,1248.9 1219.2,1232.1 1227.9,1213.7 1234.7,1193.5 1239.7,1171.4 1242.9,1147.5 1244.2,1121.4 1243.6,1093.2 1241.2,1062.7 1236.7,1029.8 1230.3,994.3 1221.8,956.0 1211.1,914.8 1198.1,870.6 1182.7,823.0 1164.8,772.0 1144.2,717.3 1120.8,658.6 1094.5,595.9 1065.0,528.7  Z" style="stroke-width: 2.0;  stroke: rgb(82,82,82); fill: rgb(204,153,255); opacity: 0.667;" />
<path d="M 893.244,625.657 A 1064.250,1064.250 0.00 0,1 896.4,623.5 L 896.4,623.5 938.2,683.6 977.4,738.9 1014.1,789.6 1048.5,835.9 1080.7,878.1 1110.8,916.3 1138.9,950.7 1165.1,981.6 1189.6,1009.1 1212.4,1033.2 1233.6,1054.3 1253.3,1072.2 1271.7,1087.3 1288.7,1099.6 1304.4,1109.0 1319.0,1115.8 1332.4,1119.9 1344.8,1121.4 1356.1,1120.2 1366.5,1116.4 1376.0,1110.0 1384.5,1101.0 1392.2,1089.2 1399.0,1074.7 1405.0,1057.3 1410.2,1037.0 1414.6,1013.7 1418.2,987.2 1420.9,957.4 1422.9,924.3 1424.1,887.5 1424.4,847.0 1423.8,802.6 1422.3,753.9 1419.9,701.0 1416.6,643.4 1412.2,580.9 1406.8,513.4 1400.2,440.4  A 1064.250,1064.250 0.00 0,0 1396.4,440.8 L 1396.4,440.8 1403.3,513.7 1408.9,581.3 1413.5,643.7 1417.1,701.3 1419.7,754.2 1421.3,802.8 1422.0,847.3 1421.9,887.8 1420.9,924.6 1419.0,957.7 1416.3,987.5 1412.8,1014.0 1408.5,1037.3 1403.4,1057.6 1397.5,1075.0 1390.7,1089.6 1383.1,1101.4 1374.6,1110.5 1365.2,1116.9 1354.8,1120.7 1343.4,1121.9 1331.1,1120.5 1317.6,1116.4 1303.0,1109.7 1287.2,1100.3 1270.2,1088.1 1251.8,1073.1 1232.0,1055.2 1210.7,1034.3 1187.8,1010.2 1163.2,982.8 1136.9,952.0 1108.7,917.7 1078.4,879.6 1046.1,837.5 1011.6,791.4 974.7,740.8 935.3,685.6 893.2,625.7  Z" style="stroke-width: 2.0;  stroke: rgb(82,82,82); fill: rgb(102,102,102); opacity: 0.667;" />
<path d="M 893.244,625.657 A 1064.250,1064.250 0.00 0,1 896.4,623.5 L 896.4,623.5 938.1,683.7 976.9,739.1 1013.0,790.1 1046.5,836.7 1077.5,879.3 1106.3,918.0 1132.8,953.0 1157.2,984.5 1179.7,1012.5 1200.3,1037.4 1219.0,1059.2 1236.1,1077.9 1251.4,1093.8 1265.3,1106.9 1277.6,1117.2 1288.4,1124.9 1297.9,1129.9 1306.0,1132.4 1312.7,1132.2 1318.2,1129.5 1322.3,1124.2 1325.2,1116.2 1326.9,1105.7 1327.3,1092.4 1326.4,1076.3 1324.2,1057.4 1320.8,1035.6 1316.0,1010.7 1309.8,982.6 1302.3,951.3 1293.3,916.5 1282.8,878.0 1270.7,835.8 1257.0,789.6 1241.6,739.2 1224.4,684.4 1205.3,624.9 1184.2,560.6 1161.0,491.2  A 1064.250,1064.250 0.00 0,0 1157.4,492.4 L 1157.4,492.4 1180.8,561.8 1202.1,626.0 1221.4,685.4 1238.8,740.1 1254.4,790.5 1268.3,836.6 1280.5,878.8 1291.1,917.2 1300.3,952.0 1307.9,983.3 1314.2,1011.4 1319.1,1036.2 1322.6,1058.1 1324.8,1077.0 1325.8,1093.0 1325.4,1106.3 1323.8,1116.9 1321.0,1124.8 1316.8,1130.1 1311.4,1132.9 1304.6,1133.1 1296.5,1130.6 1287.1,1125.6 1276.2,1118.0 1263.9,1107.7 1250.0,1094.7 1234.5,1078.9 1217.4,1060.2 1198.6,1038.5 1177.9,1013.7 1155.4,985.7 1130.8,954.3 1104.2,919.4 1075.3,880.8 1044.1,838.4 1010.4,791.8 974.1,741.0 935.1,685.7 893.2,625.7  Z" style="stroke-width: 2.0;  stroke: rgb(82,82,82); fill: rgb(153,153,153); opacity: 0.667;" />
<path d="M 893.244,625.657 A 1064.250,1064.250 0.00 0,1 896.4,623.5 L 896.4,623.5 938.8,683.6 979.6,738.7 1019.0,789.3 1057.0,835.5 1093.8,877.6 1129.4,916.0 1163.8,950.8 1197.2,982.2 1229.7,1010.6 1261.3,1036.0 1292.2,1058.7 1322.4,1078.8 1352.1,1096.4 1381.3,1111.7 1410.1,1124.8 1438.6,1135.8 1467.0,1144.8 1495.3,1151.8 1523.7,1156.9 1552.2,1160.0 1581.0,1161.3 1610.1,1160.7 1639.8,1158.2 1670.1,1153.7 1701.0,1147.2 1732.9,1138.7 1765.7,1128.0 1799.6,1115.0 1834.7,1099.7 1871.1,1081.8 1909.0,1061.3 1948.5,1037.9 1989.8,1011.5 2032.9,981.9 2078.0,948.8 2125.2,912.1 2174.8,871.5 2226.7,826.6 2281.2,777.3  A 1064.250,1064.250 0.00 0,0 2278.7,774.6 L 2278.7,774.6 2224.4,824.1 2172.6,869.2 2123.2,910.0 2076.1,946.9 2031.1,980.1 1988.1,1009.8 1946.9,1036.4 1907.5,1059.9 1869.7,1080.5 1833.3,1098.5 1798.2,1114.0 1764.4,1127.1 1731.6,1137.9 1699.8,1146.6 1668.8,1153.1 1638.6,1157.7 1609.0,1160.3 1579.8,1161.1 1551.0,1159.9 1522.5,1156.8 1494.1,1151.8 1465.7,1144.9 1437.3,1136.1 1408.7,1125.2 1379.9,1112.2 1350.6,1096.9 1320.9,1079.4 1290.6,1059.4 1259.7,1036.9 1228.0,1011.6 1195.4,983.3 1161.8,952.0 1127.3,917.3 1091.6,879.1 1054.7,837.1 1016.5,791.0 976.9,740.6 935.8,685.6 893.2,625.7  Z" style="stroke-width: 2.0;  stroke: rgb(82,82,82); fill: rgb(204,204,204); opacity: 0.667;" />
<path d="M 893.244,625.657 A 1064.250,1064.250 0.00 0,1 896.4,623.5 L 896.4,623.5 938.8,683.6 979.9,738.8 1019.6,789.4 1058.0,835.7 1095.3,878.0 1131.5,916.6 1166.6,951.7 1200.8,983.5 1234.1,1012.3 1266.6,1038.3 1298.5,1061.6 1329.7,1082.4 1360.4,1100.9 1390.7,1117.2 1420.7,1131.4 1450.5,1143.7 1480.2,1154.0 1510.0,1162.6 1539.8,1169.3 1569.8,1174.3 1600.2,1177.6 1631.1,1179.2 1662.5,1179.1 1694.7,1177.2 1727.7,1173.5 1761.7,1167.9 1796.7,1160.4 1833.0,1150.9 1870.7,1139.2 1909.9,1125.2 1950.8,1108.8 1993.5,1089.7 2038.1,1068.0 2084.8,1043.2 2133.8,1015.3 2185.2,984.0 2239.2,949.1 2296.0,910.2 2355.6,867.1  A 1064.250,1064.250 0.00 0,0 2353.3,864.0 L 2353.3,864.0 2293.8,907.3 2237.2,946.4 2183.4,981.5 2132.1,1013.0 2083.2,1041.1 2036.5,1066.0 1992.0,1088.0 1949.4,1107.1 1908.6,1123.7 1869.4,1137.8 1831.8,1149.6 1795.5,1159.3 1760.5,1167.0 1726.5,1172.7 1693.5,1176.5 1661.4,1178.5 1629.9,1178.7 1599.1,1177.3 1568.6,1174.1 1538.6,1169.2 1508.7,1162.5 1479.0,1154.1 1449.3,1143.9 1419.4,1131.7 1389.4,1117.6 1359.0,1101.4 1328.2,1083.0 1296.9,1062.3 1265.0,1039.1 1232.3,1013.3 1198.9,984.6 1164.6,952.9 1129.4,917.9 1093.1,879.5 1055.6,837.3 1017.0,791.1 977.1,740.6 935.9,685.6 893.2,625.7  Z" style="stroke-width: 2.0;  stroke: rgb(82,82,82); fill: rgb(204,204,153); opacity: 0.667;" />
<path d="M 893.244,625.657 A 1064.250,1064.250 0.00 0,1 896.4,623.5 L 896.4,623.5 937.5,685.2 974.6,745.0 1008.3,803.0 1038.8,859.3 1066.4,913.8 1091.5,966.7 1114.5,1018.0 1135.5,1067.8 1154.8,1116.2 1172.7,1163.3 1189.5,1209.1 1205.2,1253.8 1220.2,1297.5 1234.6,1340.2 1248.5,1382.2 1262.2,1423.4 1275.7,1464.2 1289.1,1504.5 1302.5,1544.6 1316.0,1584.5 1329.7,1624.5 1343.5,1664.7 1357.5,1705.2 1371.7,1746.3 1386.1,1788.1 1400.6,1830.8 1415.2,1874.6 1429.8,1919.7 1444.3,1966.2 1458.7,2014.5 1472.7,2064.7 1486.2,2117.0 1499.2,2171.7 1511.3,2229.0 1522.5,2289.1 1532.4,2352.3 1540.9,2418.9 1547.7,2489.0 1552.5,2563.0  A 1064.250,1064.250 0.00 0,0 1556.6,2562.7 L 1556.6,2562.7 1551.5,2488.8 1544.4,2418.7 1535.7,2352.2 1525.5,2289.0 1514.1,2229.0 1501.8,2171.7 1488.6,2117.1 1474.9,2064.8 1460.6,2014.7 1446.1,1966.4 1431.4,1919.9 1416.7,1874.9 1401.9,1831.1 1387.2,1788.5 1372.7,1746.8 1358.3,1705.7 1344.1,1665.2 1330.2,1625.1 1316.4,1585.2 1302.7,1545.3 1289.1,1505.3 1275.6,1465.0 1261.9,1424.3 1248.1,1383.1 1234.0,1341.2 1219.5,1298.5 1204.3,1254.9 1188.4,1210.3 1171.5,1164.5 1153.4,1117.5 1133.9,1069.2 1112.7,1019.4 1089.6,968.2 1064.3,915.4 1036.5,861.0 1005.8,804.8 971.9,746.9 934.5,687.2 893.2,625.7  Z" style="stroke-width: 2.0;  stroke: rgb(82,82,82); fill: rgb(251,106,74); opacity: 0.667;" />
<path d="M 893.244,625.657 A 1064.250,1064.250 0.00 0,1 896.4,623.5 L 896.4,623.5 937.6,684.1 975.0,740.8 1008.9,793.7 1039.3,843.2 1066.6,889.3 1090.8,932.2 1112.1,972.2 1130.7,1009.3 1146.5,1043.8 1159.9,1075.8 1170.8,1105.5 1179.4,1132.9 1185.6,1158.2 1189.6,1181.4 1191.5,1202.8 1191.1,1222.4 1188.7,1240.3 1184.1,1256.5 1177.3,1271.1 1168.4,1284.3 1157.2,1296.0 1143.9,1306.2 1128.2,1315.1 1110.1,1322.6 1089.5,1328.8 1066.4,1333.6 1040.6,1337.1 1012.0,1339.3 980.4,1340.1 945.7,1339.4 907.8,1337.4 866.4,1333.8 821.4,1328.7 772.6,1322.0 719.7,1313.7 662.5,1303.6 600.8,1291.6 534.3,1277.7 462.8,1261.7  A 1064.250,1064.250 0.00 0,0 461.9,1265.6 L 461.9,1265.6 533.5,1281.3 600.0,1295.0 661.7,1306.7 719.0,1316.6 771.9,1324.8 820.8,1331.3 865.8,1336.2 907.2,1339.6 945.1,1341.5 979.8,1342.0 1011.4,1341.1 1040.0,1338.9 1065.8,1335.3 1088.9,1330.3 1109.4,1324.1 1127.5,1316.5 1143.1,1307.6 1156.5,1297.2 1167.6,1285.5 1176.5,1272.3 1183.2,1257.7 1187.7,1241.4 1190.1,1223.5 1190.4,1203.9 1188.5,1182.6 1184.4,1159.3 1178.0,1134.0 1169.4,1106.7 1158.4,1077.1 1144.9,1045.1 1128.9,1010.7 1110.2,973.6 1088.8,933.7 1064.4,890.8 1037.0,844.8 1006.3,795.5 972.3,742.7 934.7,686.1 893.2,625.7  Z" style="stroke-width: 2.0;  stroke: rgb(82,82,82); fill: rgb(116,196,118); opacity: 0.667;" />
<path d="M 893.244,625.657 A 1064.250,1064.250 0.00 0,1 896.4,623.5 L 896.4,623.5 938.0,683.7 976.7,739.2 1012.5,790.3 1045.7,837.1 1076.3,879.9 1104.5,918.9 1130.4,954.1 1154.2,985.9 1175.9,1014.4 1195.6,1039.6 1213.4,1061.8 1229.4,1081.0 1243.6,1097.4 1256.2,1111.0 1267.2,1121.9 1276.6,1130.1 1284.5,1135.8 1290.9,1138.9 1295.9,1139.4 1299.5,1137.5 1301.6,1132.9 1302.3,1125.8 1301.6,1116.1 1299.5,1103.8 1296.0,1088.7 1291.0,1070.9 1284.5,1050.2 1276.5,1026.5 1266.9,999.7 1255.7,969.7 1242.8,936.4 1228.1,899.5 1211.6,859.0 1193.1,814.5 1172.7,766.0 1150.1,713.3 1125.4,656.0 1098.3,594.0 1068.7,527.1  A 1064.250,1064.250 0.00 0,0 1065.0,528.7 L 1065.0,528.7 1094.9,595.6 1122.2,657.4 1147.2,714.6 1169.9,767.3 1190.6,815.7 1209.2,860.0 1225.8,900.5 1240.6,937.3 1253.7,970.7 1265.0,1000.6 1274.7,1027.3 1282.8,1051.0 1289.4,1071.7 1294.5,1089.5 1298.1,1104.5 1300.2,1116.9 1300.9,1126.6 1300.2,1133.7 1298.1,1138.2 1294.6,1140.2 1289.6,1139.7 1283.2,1136.6 1275.3,1131.0 1265.8,1122.7 1254.8,1111.9 1242.2,1098.3 1227.8,1082.0 1211.8,1062.9 1193.9,1040.7 1174.1,1015.6 1152.3,987.2 1128.5,955.5 1102.4,920.3 1074.1,881.4 1043.3,838.8 1010.0,792.1 973.9,741.1 935.1,685.7 893.2,625.7  Z" style="stroke-width: 2.0;  stroke: rgb(82,82,82); fill: rgb(107,174,214); opacity: 0.667;" />
<path d="M 886.477,630.392 A 1064.250,1064.250 0.00 0,1 889.7,628.1 L 889.7,628.1 932.0,687.9 971.6,742.9 1008.8,793.3 1043.5,839.3 1076.1,881.2 1106.5,919.2 1134.9,953.4 1161.4,984.1 1186.2,1011.3 1209.2,1035.3 1230.7,1056.2 1250.7,1074.0 1269.2,1088.9 1286.4,1101.0 1302.4,1110.3 1317.1,1117.0 1330.7,1121.0 1343.2,1122.3 1354.7,1121.1 1365.2,1117.2 1374.8,1110.7 1383.5,1101.6 1391.3,1089.7 1398.2,1075.1 1404.3,1057.7 1409.6,1037.3 1414.0,1013.9 1417.7,987.4 1420.6,957.6 1422.6,924.4 1423.8,887.6 1424.2,847.1 1423.6,802.6 1422.2,754.0 1419.9,701.0 1416.5,643.4 1412.2,580.9 1406.8,513.4 1400.2,440.4  A 1064.250,1064.250 0.00 0,0 1396.4,440.8 L 1396.4,440.8 1403.3,513.7 1408.9,581.3 1413.5,643.7 1417.0,701.3 1419.6,754.3 1421.2,802.9 1421.8,847.4 1421.6,887.9 1420.5,924.7 1418.6,957.9 1415.9,987.7 1412.3,1014.2 1407.9,1037.6 1402.7,1058.0 1396.7,1075.5 1389.8,1090.1 1382.0,1102.0 1373.4,1111.2 1363.8,1117.7 1353.3,1121.6 1341.8,1122.9 1329.3,1121.6 1315.7,1117.7 1300.9,1111.1 1284.9,1101.8 1267.7,1089.8 1249.1,1074.9 1229.0,1057.2 1207.5,1036.4 1184.3,1012.5 1159.5,985.4 1132.9,954.8 1104.3,920.7 1073.8,882.8 1041.1,841.1 1006.1,795.1 968.8,744.9 929.0,690.1 886.5,630.4  Z" style="stroke-width: 2.0;  stroke: rgb(82,82,82); fill: rgb(253,141,60); opacity: 0.667;" />
<path d="M 886.477,630.392 A 1064.250,1064.250 0.00 0,1 889.7,628.1 L 889.7,628.1 931.9,688.0 971.1,743.1 1007.6,793.8 1041.5,840.2 1072.9,882.5 1102.0,920.9 1128.8,955.7 1153.6,987.0 1176.3,1014.9 1197.1,1039.5 1216.1,1061.1 1233.4,1079.7 1249.0,1095.4 1263.0,1108.4 1275.5,1118.6 1286.6,1126.1 1296.2,1131.0 1304.4,1133.3 1311.3,1133.1 1316.9,1130.3 1321.2,1124.9 1324.2,1116.9 1326.0,1106.2 1326.5,1092.9 1325.7,1076.7 1323.6,1057.8 1320.2,1035.9 1315.5,1011.0 1309.5,982.8 1302.0,951.4 1293.0,916.6 1282.6,878.1 1270.6,835.9 1256.9,789.6 1241.5,739.2 1224.3,684.4 1205.2,625.0 1184.2,560.6 1161.0,491.2  A 1064.250,1064.250 0.00 0,0 1157.4,492.4 L 1157.4,492.4 1180.8,561.8 1202.1,626.0 1221.3,685.4 1238.7,740.2 1254.3,790.5 1268.1,836.7 1280.3,878.9 1290.9,917.3 1300.0,952.2 1307.6,983.5 1313.7,1011.6 1318.5,1036.6 1322.0,1058.4 1324.1,1077.4 1325.0,1093.5 1324.5,1106.9 1322.8,1117.5 1319.8,1125.5 1315.5,1131.0 1310.0,1133.8 1303.1,1134.1 1294.8,1131.8 1285.2,1126.9 1274.1,1119.4 1261.6,1109.3 1247.5,1096.4 1231.8,1080.7 1214.5,1062.2 1195.4,1040.7 1174.5,1016.1 1151.7,988.3 1126.8,957.1 1099.8,922.4 1070.6,884.1 1039.0,841.9 1005.0,795.6 968.3,745.1 928.8,690.1 886.5,630.4  Z" style="stroke-width: 2.0;  stroke: rgb(82,82,82); fill: rgb(255,0,0); opacity: 0.667;" />
<path d="M 886.477,630.392 A 1064.250,1064.250 0.00 0,1 889.7,628.1 L 889.7,628.1 932.6,687.9 973.8,742.7 1013.7,792.9 1052.1,838.9 1089.2,880.7 1125.1,918.8 1159.8,953.4 1193.5,984.6 1226.3,1012.8 1258.2,1038.0 1289.3,1060.5 1319.8,1080.4 1349.6,1097.8 1379.0,1113.0 1408.0,1126.0 1436.7,1136.8 1465.2,1145.7 1493.7,1152.6 1522.2,1157.5 1550.9,1160.6 1579.8,1161.8 1609.1,1161.1 1638.8,1158.5 1669.2,1154.0 1700.3,1147.4 1732.2,1138.9 1765.1,1128.1 1799.1,1115.1 1834.3,1099.7 1870.8,1081.9 1908.7,1061.3 1948.3,1037.9 1989.6,1011.5 2032.8,981.9 2077.9,948.8 2125.2,912.1 2174.7,871.5 2226.7,826.6 2281.2,777.3  A 1064.250,1064.250 0.00 0,0 2278.7,774.6 L 2278.7,774.6 2224.4,824.1 2172.6,869.2 2123.2,910.0 2076.0,946.9 2031.0,980.1 1987.9,1009.9 1946.7,1036.4 1907.2,1059.9 1869.3,1080.6 1832.9,1098.6 1797.7,1114.1 1763.8,1127.2 1731.0,1138.1 1699.1,1146.8 1668.0,1153.4 1637.6,1158.0 1607.9,1160.7 1578.6,1161.5 1549.7,1160.4 1521.0,1157.5 1492.5,1152.6 1464.0,1145.8 1435.4,1137.1 1406.6,1126.3 1377.6,1113.5 1348.1,1098.4 1318.2,1081.0 1287.7,1061.3 1256.5,1038.9 1224.5,1013.8 1191.6,985.8 1157.8,954.7 1122.9,920.2 1086.9,882.3 1049.6,840.5 1011.0,794.8 971.0,744.7 929.5,690.0 886.5,630.4  Z" style="stroke-width: 2.0;  stroke: rgb(82,82,82); fill: rgb(255,0,204); opacity: 0.667;" />
<path d="M 886.477,630.392 A 1064.250,1064.250 0.00 0,1 889.7,628.1 L 889.7,628.1 932.6,687.9 974.1,742.8 1014.2,793.1 1053.1,839.1 1090.7,881.1 1127.2,919.5 1162.6,954.3 1197.1,985.9 1230.7,1014.5 1263.5,1040.2 1295.5,1063.4 1327.0,1084.0 1358.0,1102.3 1388.5,1118.5 1418.7,1132.5 1448.6,1144.6 1478.5,1154.9 1508.4,1163.3 1538.3,1169.9 1568.5,1174.8 1599.0,1178.1 1630.0,1179.6 1661.6,1179.4 1693.9,1177.4 1727.0,1173.7 1761.0,1168.1 1796.2,1160.5 1832.6,1150.9 1870.3,1139.2 1909.6,1125.2 1950.5,1108.8 1993.3,1089.8 2037.9,1068.0 2084.7,1043.2 2133.8,1015.3 2185.2,984.0 2239.2,949.1 2296.0,910.2 2355.6,867.1  A 1064.250,1064.250 0.00 0,0 2353.3,864.0 L 2353.3,864.0 2293.8,907.3 2237.2,946.4 2183.3,981.5 2132.0,1013.0 2083.0,1041.1 2036.4,1066.0 1991.8,1088.0 1949.1,1107.1 1908.2,1123.7 1869.0,1137.9 1831.3,1149.7 1794.9,1159.4 1759.8,1167.1 1725.8,1172.8 1692.7,1176.7 1660.4,1178.8 1628.8,1179.1 1597.9,1177.7 1567.3,1174.6 1537.1,1169.8 1507.1,1163.3 1477.2,1155.0 1447.3,1144.8 1417.3,1132.9 1387.0,1118.9 1356.5,1102.9 1325.5,1084.7 1293.9,1064.1 1261.7,1041.1 1228.9,1015.5 1195.2,987.0 1160.6,955.6 1125.0,920.9 1088.4,882.7 1050.6,840.8 1011.6,794.9 971.3,744.7 929.6,690.0 886.5,630.4  Z" style="stroke-width: 2.0;  stroke: rgb(82,82,82); fill: rgb(255,204,204); opacity: 0.667;" />
<path d="M 886.477,630.392 A 1064.250,1064.250 0.00 0,1 889.7,628.1 L 889.7,628.1 931.3,689.5 968.9,749.0 1003.0,806.8 1033.9,862.8 1061.9,917.1 1087.4,969.7 1110.7,1020.8 1132.0,1070.5 1151.7,1118.7 1169.9,1165.6 1186.9,1211.2 1203.0,1255.8 1218.2,1299.3 1232.8,1341.9 1247.0,1383.7 1260.9,1424.9 1274.5,1465.5 1288.1,1505.7 1301.7,1545.7 1315.3,1585.5 1329.1,1625.4 1343.0,1665.5 1357.1,1706.0 1371.4,1747.0 1385.9,1788.7 1400.5,1831.3 1415.1,1875.0 1429.7,1920.1 1444.3,1966.6 1458.6,2014.8 1472.7,2064.9 1486.2,2117.2 1499.2,2171.9 1511.3,2229.1 1522.5,2289.2 1532.4,2352.4 1540.9,2418.9 1547.7,2489.0 1552.5,2563.0  A 1064.250,1064.250 0.00 0,0 1556.6,2562.7 L 1556.6,2562.7 1551.5,2488.8 1544.4,2418.7 1535.7,2352.2 1525.5,2289.1 1514.1,2229.1 1501.8,2171.9 1488.6,2117.3 1474.9,2065.0 1460.6,2015.0 1446.1,1966.8 1431.4,1920.3 1416.5,1875.4 1401.7,1831.7 1387.0,1789.1 1372.4,1747.5 1357.9,1706.5 1343.7,1666.1 1329.6,1626.1 1315.6,1586.2 1301.8,1546.4 1288.1,1506.5 1274.4,1466.4 1260.6,1425.8 1246.6,1384.7 1232.3,1342.9 1217.5,1300.4 1202.1,1256.9 1185.9,1212.4 1168.7,1166.8 1150.3,1120.0 1130.4,1071.8 1108.9,1022.3 1085.4,971.3 1059.7,918.7 1031.5,864.5 1000.4,808.6 966.1,751.0 928.2,691.6 886.5,630.4  Z" style="stroke-width: 2.0;  stroke: rgb(82,82,82); fill: rgb(255,153,0); opacity: 0.667;" />
<path d="M 886.477,630.392 A 1064.250,1064.250 0.00 0,1 889.7,628.1 L 889.7,628.1 931.4,688.4 969.3,744.8 1003.5,797.5 1034.4,846.6 1062.0,892.5 1086.6,935.2 1108.2,974.9 1127.1,1011.9 1143.2,1046.2 1156.9,1078.1 1168.0,1107.5 1176.8,1134.8 1183.3,1159.9 1187.5,1183.1 1189.6,1204.3 1189.4,1223.8 1187.1,1241.5 1182.7,1257.7 1176.1,1272.2 1167.3,1285.3 1156.3,1296.9 1143.0,1307.0 1127.4,1315.8 1109.4,1323.3 1088.9,1329.4 1065.9,1334.1 1040.2,1337.6 1011.6,1339.7 980.1,1340.4 945.5,1339.7 907.6,1337.6 866.3,1334.0 821.3,1328.9 772.5,1322.1 719.6,1313.7 662.5,1303.6 600.8,1291.6 534.3,1277.7 462.8,1261.7  A 1064.250,1064.250 0.00 0,0 461.9,1265.6 L 461.9,1265.6 533.5,1281.3 600.0,1295.0 661.7,1306.7 718.9,1316.7 771.8,1324.9 820.7,1331.4 865.7,1336.4 907.0,1339.8 944.9,1341.8 979.5,1342.3 1011.0,1341.5 1039.6,1339.3 1065.3,1335.8 1088.3,1330.9 1108.7,1324.7 1126.7,1317.2 1142.3,1308.4 1155.5,1298.1 1166.5,1286.5 1175.2,1273.4 1181.8,1258.9 1186.2,1242.7 1188.4,1225.0 1188.5,1205.5 1186.4,1184.2 1182.0,1161.1 1175.5,1136.0 1166.6,1108.8 1155.3,1079.3 1141.5,1047.6 1125.2,1013.3 1106.2,976.4 1084.5,936.7 1059.7,894.1 1031.9,848.4 1000.9,799.3 966.4,746.8 928.4,690.5 886.5,630.4  Z" style="stroke-width: 2.0;  stroke: rgb(82,82,82); fill: rgb(255,204,0); opacity: 0.667;" />
<path d="M 886.477,630.392 A 1064.250,1064.250 0.00 0,1 889.7,628.1 L 889.7,628.1 931.8,688.0 970.9,743.2 1007.2,794.0 1040.7,840.6 1071.7,883.1 1100.3,921.8 1126.5,956.9 1150.5,988.5 1172.5,1016.7 1192.4,1041.8 1210.5,1063.8 1226.7,1082.8 1241.2,1099.1 1254.0,1112.5 1265.1,1123.3 1274.7,1131.4 1282.8,1136.9 1289.4,1139.9 1294.5,1140.3 1298.2,1138.3 1300.5,1133.6 1301.3,1126.5 1300.7,1116.7 1298.7,1104.3 1295.3,1089.2 1290.4,1071.3 1284.0,1050.5 1276.0,1026.8 1266.5,999.9 1255.4,969.9 1242.5,936.5 1227.9,899.6 1211.4,859.0 1193.0,814.6 1172.6,766.1 1150.1,713.3 1125.3,656.0 1098.2,594.0 1068.7,527.1  A 1064.250,1064.250 0.00 0,0 1065.0,528.7 L 1065.0,528.7 1094.8,595.6 1122.2,657.4 1147.1,714.6 1169.9,767.3 1190.5,815.7 1209.0,860.1 1225.6,900.6 1240.4,937.5 1253.4,970.8 1264.7,1000.8 1274.3,1027.6 1282.3,1051.3 1288.8,1072.1 1293.8,1089.9 1297.3,1105.0 1299.3,1117.5 1299.9,1127.2 1299.1,1134.4 1296.8,1139.0 1293.2,1141.1 1288.0,1140.7 1281.5,1137.7 1273.4,1132.2 1263.7,1124.1 1252.5,1113.4 1239.7,1100.0 1225.2,1083.9 1208.9,1064.9 1190.7,1042.9 1170.7,1017.9 1148.6,989.8 1124.5,958.3 1098.1,923.3 1069.4,884.7 1038.2,842.3 1004.5,795.9 968.1,745.2 928.8,690.1 886.5,630.4  Z" style="stroke-width: 2.0;  stroke: rgb(82,82,82); fill: rgb(255,255,0); opacity: 0.667;" />
<path d="M 886.477,630.392 A 1064.250,1064.250 0.00 0,1 889.7,628.1 L 889.7,628.1 931.7,688.1 970.5,743.5 1006.3,794.5 1039.2,841.5 1069.4,884.5 1096.9,923.8 1122.0,959.6 1144.8,992.0 1165.2,1021.1 1183.6,1047.1 1199.8,1070.2 1214.1,1090.4 1226.4,1107.8 1236.9,1122.6 1245.5,1134.8 1252.4,1144.5 1257.6,1151.6 1261.1,1156.4 1262.9,1158.7 1263.1,1158.6 1261.5,1156.1 1258.3,1151.2 1253.4,1143.8 1246.8,1133.9 1238.4,1121.6 1228.2,1106.6 1216.2,1088.9 1202.2,1068.5 1186.3,1045.2 1168.3,1019.0 1148.2,989.6 1125.8,957.0 1101.1,921.0 1073.9,881.4 1044.1,838.1 1011.6,790.9 976.3,739.5 937.9,683.8 896.4,623.5  A 1064.250,1064.250 0.00 0,0 893.2,625.7 L 893.2,625.7 935.0,685.8 973.5,741.4 1009.1,792.6 1041.7,839.7 1071.6,882.9 1099.0,922.4 1123.8,958.3 1146.3,990.9 1166.6,1020.2 1184.7,1046.4 1200.7,1069.6 1214.7,1089.9 1226.8,1107.6 1237.0,1122.5 1245.5,1134.9 1252.1,1144.7 1257.0,1152.0 1260.3,1157.0 1261.8,1159.4 1261.7,1159.5 1259.9,1157.2 1256.3,1152.5 1251.1,1145.4 1244.2,1135.8 1235.5,1123.6 1224.9,1108.9 1212.5,1091.5 1198.2,1071.3 1181.9,1048.3 1163.4,1022.4 1142.9,993.3 1120.0,961.0 1094.8,925.4 1067.1,886.2 1036.7,843.2 1003.7,796.4 967.7,745.5 928.7,690.2 886.5,630.4  Z" style="stroke-width: 2.0;  stroke: rgb(82,82,82); fill: rgb(204,255,0); opacity: 0.667;" />
<path d="M 2143.708,652.493 A 1064.250,1064.250 0.00 0,1 2146.3,654.5 L 2146.3,654.5 2101.5,712.4 2059.2,765.6 2019.4,814.2 1981.9,858.5 1946.6,898.7 1913.4,935.1 1882.1,967.7 1852.6,996.9 1824.9,1022.7 1798.7,1045.3 1774.1,1064.9 1750.9,1081.5 1729.0,1095.3 1708.4,1106.4 1688.8,1114.7 1670.4,1120.5 1652.9,1123.6 1636.3,1124.3 1620.6,1122.4 1605.7,1117.9 1591.5,1110.9 1578.0,1101.3 1565.1,1089.1 1552.8,1074.2 1541.1,1056.5 1529.8,1036.0 1519.0,1012.4 1508.7,985.8 1498.8,956.0 1489.3,922.7 1480.2,885.9 1471.5,845.4 1463.2,801.0 1455.3,752.3 1447.8,699.4 1440.6,641.8 1433.9,579.3 1427.6,511.7 1421.8,438.6  A 1064.250,1064.250 0.00 0,0 1418.5,438.9 L 1418.5,438.9 1424.6,511.9 1431.1,579.5 1438.0,642.0 1445.3,699.5 1453.0,752.5 1461.1,801.1 1469.5,845.5 1478.3,886.0 1487.5,922.8 1497.1,956.0 1507.1,985.8 1517.5,1012.4 1528.4,1035.9 1539.7,1056.4 1551.5,1074.0 1563.9,1088.9 1576.8,1101.1 1590.3,1110.6 1604.5,1117.6 1619.5,1122.0 1635.2,1123.8 1651.7,1123.2 1669.2,1119.9 1687.6,1114.1 1707.1,1105.7 1727.8,1094.6 1749.6,1080.8 1772.8,1064.1 1797.3,1044.4 1823.4,1021.7 1851.1,995.8 1880.4,966.5 1911.6,933.8 1944.7,897.3 1979.9,857.0 2017.3,812.6 2056.9,763.9 2099.0,710.6 2143.7,652.5  Z" style="stroke-width: 2.0;  stroke: rgb(82,82,82); fill: rgb(0,255,0); opacity: 0.667;" />
<path d="M 1519.513,435.929 A 1064.250,1064.250 0.00 0,1 1535.0,436.3 L 1535.0,436.3 1532.9,509.5 1531.5,577.3 1530.8,639.8 1530.8,697.4 1531.4,750.4 1532.6,798.9 1534.4,843.2 1536.8,883.4 1539.8,919.9 1543.3,952.7 1547.4,982.0 1552.0,1007.9 1557.2,1030.6 1563.0,1050.3 1569.4,1066.9 1576.4,1080.6 1584.0,1091.5 1592.2,1099.6 1601.2,1104.9 1610.8,1107.5 1621.2,1107.4 1632.4,1104.5 1644.4,1099.0 1657.4,1090.6 1671.2,1079.4 1686.1,1065.3 1702.0,1048.3 1719.1,1028.2 1737.3,1004.9 1756.8,978.3 1777.7,948.3 1799.9,914.6 1823.7,877.2 1849.1,835.9 1876.2,790.4 1905.1,740.6 1935.9,686.1 1968.7,626.8 2003.6,562.5  A 1064.250,1064.250 0.00 0,0 1988.6,554.6 L 1988.6,554.6 1954.8,619.5 1922.9,679.3 1893.0,734.2 1864.9,784.5 1838.5,830.4 1813.8,872.2 1790.6,909.9 1768.9,943.9 1748.5,974.3 1729.5,1001.2 1711.6,1024.8 1694.9,1045.1 1679.3,1062.4 1664.7,1076.8 1651.0,1088.2 1638.2,1096.7 1626.3,1102.5 1615.2,1105.5 1604.8,1105.8 1595.2,1103.4 1586.2,1098.2 1577.8,1090.2 1570.1,1079.5 1562.9,1065.9 1556.3,1049.4 1550.3,1029.8 1544.7,1007.2 1539.7,981.3 1535.2,952.1 1531.3,919.3 1527.8,882.9 1524.8,842.7 1522.3,798.5 1520.4,750.0 1519.1,697.1 1518.3,639.5 1518.0,576.9 1518.5,509.2 1519.5,435.9  Z" style="stroke-width: 2.0;  stroke: rgb(82,82,82); fill: rgb(53,128,0); opacity: 0.667;" />
<path d="M 2217.816,714.272 A 1064.250,1064.250 0.00 0,1 2219.5,715.9 L 2219.5,715.9 2169.4,769.5 2121.8,818.5 2076.6,863.0 2033.7,903.5 1992.9,940.0 1954.1,972.9 1917.1,1002.3 1881.9,1028.5 1848.3,1051.5 1816.2,1071.6 1785.4,1088.9 1755.9,1103.5 1727.6,1115.6 1700.3,1125.2 1673.9,1132.4 1648.3,1137.3 1623.5,1139.9 1599.3,1140.2 1575.6,1138.4 1552.4,1134.3 1529.5,1128.0 1506.9,1119.3 1484.5,1108.4 1462.1,1095.1 1439.8,1079.3 1417.4,1061.0 1394.9,1040.0 1372.2,1016.1 1349.2,989.4 1325.8,959.5 1302.1,926.4 1277.9,889.8 1253.2,849.5 1228.0,805.4 1202.1,757.1 1175.6,704.4 1148.3,647.1 1120.3,584.8 1091.5,517.3  A 1064.250,1064.250 0.00 0,0 1089.4,518.2 L 1089.4,518.2 1118.3,585.6 1146.4,647.8 1173.8,705.1 1200.5,757.7 1226.5,806.0 1251.8,850.1 1276.6,890.3 1300.9,926.8 1324.6,959.9 1348.0,989.7 1371.1,1016.4 1393.9,1040.2 1416.4,1061.2 1438.9,1079.4 1461.2,1095.2 1483.6,1108.4 1506.1,1119.3 1528.7,1127.9 1551.6,1134.2 1574.8,1138.2 1598.5,1140.0 1622.7,1139.6 1647.5,1136.9 1673.1,1132.0 1699.4,1124.7 1726.7,1115.1 1755.0,1103.0 1784.5,1088.3 1815.2,1070.9 1847.3,1050.7 1880.9,1027.6 1916.0,1001.4 1952.9,971.9 1991.7,939.0 2032.4,902.3 2075.2,861.8 2120.3,817.1 2167.8,768.0 2217.8,714.3  Z" style="stroke-width: 2.0;  stroke: rgb(82,82,82); fill: rgb(0,0,204); opacity: 0.667;" />
<path d="M 532.332,1057.002 A 1064.250,1064.250 0.00 0,1 533.6,1054.2 L 533.6,1054.2 600.1,1084.9 661.5,1113.1 718.2,1139.1 770.3,1163.0 818.2,1184.8 861.9,1204.7 901.7,1222.7 937.7,1239.0 970.2,1253.6 999.3,1266.5 1025.1,1277.9 1047.8,1287.8 1067.4,1296.3 1084.1,1303.4 1098.0,1309.1 1109.1,1313.4 1117.4,1316.5 1123.1,1318.2 1126.1,1318.7 1126.5,1317.9 1124.3,1315.8 1119.4,1312.4 1111.8,1307.7 1101.6,1301.7 1088.5,1294.3 1072.7,1285.6 1053.9,1275.3 1032.1,1263.6 1007.2,1250.4 979.0,1235.5 947.5,1218.9 912.4,1200.6 873.7,1180.4 831.0,1158.3 784.4,1134.2 733.4,1107.9 677.9,1079.4 617.8,1048.5 552.6,1015.2  A 1064.250,1064.250 0.00 0,0 551.2,1017.8 L 551.2,1017.8 616.5,1051.0 676.7,1081.7 732.3,1110.1 783.3,1136.2 830.1,1160.2 872.8,1182.2 911.6,1202.3 946.7,1220.5 978.3,1237.0 1006.5,1251.8 1031.4,1264.9 1053.2,1276.6 1072.0,1286.8 1087.9,1295.5 1101.0,1302.8 1111.3,1308.8 1118.8,1313.5 1123.7,1316.9 1126.0,1319.0 1125.6,1319.8 1122.6,1319.3 1116.9,1317.6 1108.5,1314.5 1097.4,1310.2 1083.6,1304.5 1066.8,1297.5 1047.2,1289.1 1024.5,1279.3 998.6,1268.0 969.5,1255.1 937.0,1240.6 900.9,1224.5 861.0,1206.5 817.3,1186.8 769.4,1165.1 717.2,1141.4 660.4,1115.5 598.9,1087.4 532.3,1057.0  Z" style="stroke-width: 2.0;  stroke: rgb(82,82,82); fill: rgb(102,153,255); opacity: 0.667;" />
</g>
<defs>
<pattern id="hline-sparse" width="10" height="10" patternTransform="rotate(0 0 0)" patternUnits="userSpaceOnUse"><line x1="0" y1="0" x2="10" y2="0" style="stroke:black;stroke-width:2" /></pattern>
<pattern id="checker" width="10" height="10" patternTransform="rotate(45 0 0)" patternUnits="userSpaceOnUse"><line x1="0" y1="0" x2="10" y2="0" style="stroke:black;stroke-width:2" /><line x1="0" y1="0" x2="0" y2="10" style="stroke:black;stroke-width:2" /></pattern>
<pattern id="checker" width="10" height="10" patternTransform="rotate(45 0 0)" patternUnits="userSpaceOnUse"><line x1="0" y1="0" x2="10" y2="0" style="stroke:black;stroke-width:5" /><line x1="0" y1="0" x2="0" y2="10" style="stroke:black;stroke-width:4" /></pattern>
<pattern id="hline" width="10" height="10" patternTransform="rotate(0 0 0)" patternUnits="userSpaceOnUse"><line x1="0" y1="0" x2="10" y2="0" style="stroke:black;stroke-width:5" /></pattern>
<pattern id="vline-sparse" width="10" height="10" patternTransform="rotate(0 0 0)" patternUnits="userSpaceOnUse"><line x1="0" y1="0" x2="0" y2="10" style="stroke:black;stroke-width:2" /></pattern>
<pattern id="vline" width="10" height="10" patternTransform="rotate(0 0 0)" patternUnits="userSpaceOnUse"><line x1="0" y1="0" x2="0" y2="10" style="stroke:black;stroke-width:5" /></pattern>
</defs>
</svg>
