<?xml version="1.0" encoding="utf-8" standalone="no"?>
<!DOCTYPE svg PUBLIC "-//W3C//DTD SVG 1.1//EN" "http://www.w3.org/Graphics/SVG/1.1/DTD/svg11.dtd">
<svg width="3000px" height="3000px" version="1.1" xmlns="http://www.w3.org/2000/svg" xmlns:xlink="http://www.w3.org/1999/xlink">
<g id="ideograms">
<path d="M1500.000,425.000 A1075.000,1075.000 40.000 0,1 1783.730,463.119 L1796.927,414.892 A1125.000,1125.000 0.000 0,0 1500.000,375.000 Z" style="stroke-linecap:round;fill:rgb(116,196,118);fill-opacity:0.33;" />
<text x="1671.2" y="297.1" font-size="18.2px" font-family="CMUBright-Roman" style="text-anchor:start;fill:rgb(0,0,0);" transform="rotate(277.7,1671.2,297.1)" >R<tspan baseline-shift="-40%" font-size="90%">s</tspan>caffold<tspan baseline-shift="-40%" font-size="90%">7</tspan></text>
<line x1='1500.0' y1='375.0' x2='1500.0' y2='355.0' style="stroke-width:4.0;stroke:rgb(0,0,0);stroke-linecap:round;fill:none;" />
<text x="1506.5" y="345.0" font-size="18.2px" font-family="CMUBright-Roman" style="text-anchor:start;fill:rgb(0,0,0);" transform="rotate(270.0,1506.5,345.0)" >0</text>
<line x1='1564.8' y1='376.9' x2='1566.0' y2='356.9' style="stroke-width:4.0;stroke:rgb(0,0,0);stroke-linecap:round;fill:none;" />
<text x="1573.1" y="347.3" font-size="18.2px" font-family="CMUBright-Roman" style="text-anchor:start;fill:rgb(0,0,0);" transform="rotate(273.3,1573.1,347.3)" >50</text>
<line x1='1629.5' y1='382.5' x2='1631.8' y2='362.6' style="stroke-width:4.0;stroke:rgb(0,0,0);stroke-linecap:round;fill:none;" />
<text x="1639.4" y="353.4" font-size="18.2px" font-family="CMUBright-Roman" style="text-anchor:start;fill:rgb(0,0,0);" transform="rotate(276.6,1639.4,353.4)" >100</text>
<line x1='1693.7' y1='391.8' x2='1697.1' y2='372.1' style="stroke-width:4.0;stroke:rgb(0,0,0);stroke-linecap:round;fill:none;" />
<text x="1705.2" y="363.4" font-size="18.2px" font-family="CMUBright-Roman" style="text-anchor:start;fill:rgb(0,0,0);" transform="rotate(279.9,1705.2,363.4)" >150</text>
<line x1='1757.2' y1='404.8' x2='1761.8' y2='385.3' style="stroke-width:4.0;stroke:rgb(0,0,0);stroke-linecap:round;fill:none;" />
<text x="1770.4" y="377.1" font-size="18.2px" font-family="CMUBright-Roman" style="text-anchor:start;fill:rgb(0,0,0);" transform="rotate(283.2,1770.4,377.1)" >200</text>
<g id="highlighttrack_0">
<path d="M1530.344,425.428 A1075.000,1075.000 40.000 0,1 1538.882,425.703 L1540.691,375.736 A1125.000,1125.000 0.000 0,0 1531.755,375.448 Z" style="stroke-width:4.0;stroke:rgb(0,0,0);stroke-linecap:round;fill:rgb(116,196,118);" />
</g>
<path d="M1844.658,481.749 A1075.000,1075.000 40.000 0,1 1873.757,492.066 L1891.141,445.185 A1125.000,1125.000 0.000 0,0 1860.688,434.388 Z" style="stroke-linecap:round;fill:rgb(116,196,118);fill-opacity:0.33;" />
<text x="1915.0" y="358.1" font-size="18.2px" font-family="CMUBright-Roman" style="text-anchor:start;fill:rgb(0,0,0);" transform="rotate(289.5,1915.0,358.1)" >R<tspan baseline-shift="-40%" font-size="90%">s</tspan>caffold<tspan baseline-shift="-40%" font-size="90%">2</tspan>1</text>
<line x1='1860.7' y1='434.4' x2='1867.1' y2='415.4' style="stroke-width:4.0;stroke:rgb(0,0,0);stroke-linecap:round;fill:none;" />
<text x="1876.5" y="408.1" font-size="18.2px" font-family="CMUBright-Roman" style="text-anchor:start;fill:rgb(0,0,0);" transform="rotate(288.7,1876.5,408.1)" >0</text>
<g id="highlighttrack_0">
<path d="M1864.744,488.770 A1075.000,1075.000 40.000 0,1 1867.143,489.638 L1884.220,442.645 A1125.000,1125.000 0.000 0,0 1881.709,441.736 Z" style="stroke-width:4.0;stroke:rgb(0,0,0);stroke-linecap:round;fill:rgb(251,106,74);" />
</g>
<path d="M1932.811,515.978 A1075.000,1075.000 40.000 0,1 2016.450,557.183 L2040.471,513.331 A1125.000,1125.000 0.000 0,0 1952.942,470.209 Z" style="stroke-linecap:round;fill:rgb(116,196,118);fill-opacity:0.33;" />
<text x="2045.5" y="414.3" font-size="18.2px" font-family="CMUBright-Roman" style="text-anchor:start;fill:rgb(0,0,0);" transform="rotate(296.2,2045.5,414.3)" >R<tspan baseline-shift="-40%" font-size="90%">s</tspan>caffold<tspan baseline-shift="-40%" font-size="90%">1</tspan>5</text>
<line x1='1952.9' y1='470.2' x2='1961.0' y2='451.9' style="stroke-width:4.0;stroke:rgb(0,0,0);stroke-linecap:round;fill:none;" />
<text x="1971.0" y="445.4" font-size="18.2px" font-family="CMUBright-Roman" style="text-anchor:start;fill:rgb(0,0,0);" transform="rotate(293.7,1971.0,445.4)" >0</text>
<line x1='2011.5' y1='498.0' x2='2020.6' y2='480.2' style="stroke-width:4.0;stroke:rgb(0,0,0);stroke-linecap:round;fill:none;" />
<text x="2031.0" y="474.3" font-size="18.2px" font-family="CMUBright-Roman" style="text-anchor:start;fill:rgb(0,0,0);" transform="rotate(297.0,2031.0,474.3)" >50</text>
<g id="highlighttrack_0">
<path d="M1951.034,524.196 A1075.000,1075.000 40.000 0,1 1954.171,525.652 L1975.295,480.334 A1125.000,1125.000 0.000 0,0 1972.012,478.810 Z" style="stroke-width:4.0;stroke:rgb(0,0,0);stroke-linecap:round;fill:rgb(116,196,118);" />
</g>
<path d="M2071.396,589.433 A1075.000,1075.000 40.000 0,1 2078.644,594.022 L2105.558,551.884 A1125.000,1125.000 0.000 0,0 2097.973,547.081 Z" style="stroke-linecap:round;fill:rgb(116,196,118);fill-opacity:0.33;" />
<text x="2157.9" y="478.5" font-size="18.2px" font-family="CMUBright-Roman" style="text-anchor:start;fill:rgb(0,0,0);" transform="rotate(302.3,2157.9,478.5)" >R<tspan baseline-shift="-40%" font-size="90%">s</tspan>caffold<tspan baseline-shift="-40%" font-size="90%">2</tspan>8</text>
<line x1='2098.0' y1='547.1' x2='2108.6' y2='530.1' style="stroke-width:4.0;stroke:rgb(0,0,0);stroke-linecap:round;fill:none;" />
<text x="2119.4" y="525.1" font-size="18.2px" font-family="CMUBright-Roman" style="text-anchor:start;fill:rgb(0,0,0);" transform="rotate(302.1,2119.4,525.1)" >0</text>
<g id="highlighttrack_0">
<path d="M2071.402,589.437 A1075.000,1075.000 40.000 0,1 2078.644,594.022 L2105.558,551.884 A1125.000,1125.000 0.000 0,0 2097.979,547.086 Z" style="stroke-width:4.0;stroke:rgb(0,0,0);stroke-linecap:round;fill:rgb(116,196,118);" />
</g>
<path d="M2131.299,629.893 A1075.000,1075.000 40.000 0,1 2135.233,632.761 L2164.779,592.424 A1125.000,1125.000 0.000 0,0 2160.661,589.422 Z" style="stroke-linecap:round;fill:rgb(116,196,118);fill-opacity:0.33;" />
<text x="2223.4" y="523.8" font-size="18.2px" font-family="CMUBright-Roman" style="text-anchor:start;fill:rgb(0,0,0);" transform="rotate(306.1,2223.4,523.8)" >R<tspan baseline-shift="-40%" font-size="90%">s</tspan>caffold<tspan baseline-shift="-40%" font-size="90%">3</tspan>0</text>
<line x1='2160.7' y1='589.4' x2='2172.4' y2='573.2' style="stroke-width:4.0;stroke:rgb(0,0,0);stroke-linecap:round;fill:none;" />
<text x="2183.5" y="569.0" font-size="18.2px" font-family="CMUBright-Roman" style="text-anchor:start;fill:rgb(0,0,0);" transform="rotate(306.0,2183.5,569.0)" >0</text>
<g id="highlighttrack_0">
<path d="M2131.300,629.893 A1075.000,1075.000 40.000 0,1 2135.227,632.756 L2164.773,592.419 A1125.000,1125.000 0.000 0,0 2160.662,589.423 Z" style="stroke-width:4.0;stroke:rgb(0,0,0);stroke-linecap:round;fill:rgb(116,196,118);" />
</g>
<path d="M2185.493,671.916 A1075.000,1075.000 40.000 1,1 1436.316,426.888 L1433.354,376.976 A1125.000,1125.000 0.000 1,0 2217.377,633.400 Z" style="stroke-linecap:round;fill:rgb(116,196,118);fill-opacity:0.33;" />
<text x="1131.3" y="2657.7" font-size="18.2px" font-family="CMUBright-Roman" style="text-anchor:end;fill:rgb(0,0,0);" transform="rotate(-71.9,1131.3,2657.7)" >NZ<tspan baseline-shift="-40%" font-size="90%">C</tspan>P034246.1</text>
<line x1='2217.4' y1='633.4' x2='2230.1' y2='618.0' style="stroke-width:4.0;stroke:rgb(0,0,0);stroke-linecap:round;fill:none;" />
<text x="2241.5" y="614.4" font-size="18.2px" font-family="CMUBright-Roman" style="text-anchor:start;fill:rgb(0,0,0);" transform="rotate(309.6,2241.5,614.4)" >0</text>
<line x1='2266.1' y1='676.2' x2='2279.8' y2='661.5' style="stroke-width:4.0;stroke:rgb(0,0,0);stroke-linecap:round;fill:none;" />
<text x="2291.3" y="658.7" font-size="18.2px" font-family="CMUBright-Roman" style="text-anchor:start;fill:rgb(0,0,0);" transform="rotate(312.9,2291.3,658.7)" >50</text>
<line x1='2312.3' y1='721.7' x2='2326.8' y2='707.9' style="stroke-width:4.0;stroke:rgb(0,0,0);stroke-linecap:round;fill:none;" />
<text x="2338.5" y="705.7" font-size="18.2px" font-family="CMUBright-Roman" style="text-anchor:start;fill:rgb(0,0,0);" transform="rotate(316.2,2338.5,705.7)" >100</text>
<line x1='2355.8' y1='769.8' x2='2371.1' y2='756.8' style="stroke-width:4.0;stroke:rgb(0,0,0);stroke-linecap:round;fill:none;" />
<text x="2382.9" y="755.3" font-size="18.2px" font-family="CMUBright-Roman" style="text-anchor:start;fill:rgb(0,0,0);" transform="rotate(319.5,2382.9,755.3)" >150</text>
<line x1='2396.5' y1='820.4' x2='2412.4' y2='808.3' style="stroke-width:4.0;stroke:rgb(0,0,0);stroke-linecap:round;fill:none;" />
<text x="2424.3" y="807.4" font-size="18.2px" font-family="CMUBright-Roman" style="text-anchor:start;fill:rgb(0,0,0);" transform="rotate(322.8,2424.3,807.4)" >200</text>
<line x1='2434.2' y1='873.2' x2='2450.8' y2='862.0' style="stroke-width:4.0;stroke:rgb(0,0,0);stroke-linecap:round;fill:none;" />
<text x="2462.7" y="861.9" font-size="18.2px" font-family="CMUBright-Roman" style="text-anchor:start;fill:rgb(0,0,0);" transform="rotate(326.1,2462.7,861.9)" >250</text>
<line x1='2468.8' y1='928.1' x2='2486.0' y2='917.9' style="stroke-width:4.0;stroke:rgb(0,0,0);stroke-linecap:round;fill:none;" />
<text x="2497.9" y="918.4" font-size="18.2px" font-family="CMUBright-Roman" style="text-anchor:start;fill:rgb(0,0,0);" transform="rotate(329.4,2497.9,918.4)" >300</text>
<line x1='2500.1' y1='984.8' x2='2517.9' y2='975.7' style="stroke-width:4.0;stroke:rgb(0,0,0);stroke-linecap:round;fill:none;" />
<text x="2529.7" y="976.9" font-size="18.2px" font-family="CMUBright-Roman" style="text-anchor:start;fill:rgb(0,0,0);" transform="rotate(332.7,2529.7,976.9)" >350</text>
<line x1='2528.1' y1='1043.3' x2='2546.4' y2='1035.2' style="stroke-width:4.0;stroke:rgb(0,0,0);stroke-linecap:round;fill:none;" />
<text x="2558.2" y="1037.1" font-size="18.2px" font-family="CMUBright-Roman" style="text-anchor:start;fill:rgb(0,0,0);" transform="rotate(336.1,2558.2,1037.1)" >400</text>
<line x1='2552.8' y1='1103.4' x2='2571.5' y2='1096.3' style="stroke-width:4.0;stroke:rgb(0,0,0);stroke-linecap:round;fill:none;" />
<text x="2583.1" y="1098.9" font-size="18.2px" font-family="CMUBright-Roman" style="text-anchor:start;fill:rgb(0,0,0);" transform="rotate(339.4,2583.1,1098.9)" >450</text>
<line x1='2573.9' y1='1164.7' x2='2593.0' y2='1158.7' style="stroke-width:4.0;stroke:rgb(0,0,0);stroke-linecap:round;fill:none;" />
<text x="2604.4" y="1162.0" font-size="18.2px" font-family="CMUBright-Roman" style="text-anchor:start;fill:rgb(0,0,0);" transform="rotate(342.7,2604.4,1162.0)" >500</text>
<line x1='2591.4' y1='1227.1' x2='2610.8' y2='1222.3' style="stroke-width:4.0;stroke:rgb(0,0,0);stroke-linecap:round;fill:none;" />
<text x="2622.1" y="1226.2" font-size="18.2px" font-family="CMUBright-Roman" style="text-anchor:start;fill:rgb(0,0,0);" transform="rotate(346.0,2622.1,1226.2)" >550</text>
<line x1='2605.3' y1='1290.5' x2='2625.0' y2='1286.8' style="stroke-width:4.0;stroke:rgb(0,0,0);stroke-linecap:round;fill:none;" />
<text x="2636.0" y="1291.3" font-size="18.2px" font-family="CMUBright-Roman" style="text-anchor:start;fill:rgb(0,0,0);" transform="rotate(349.3,2636.0,1291.3)" >600</text>
<line x1='2615.6' y1='1354.6' x2='2635.4' y2='1352.0' style="stroke-width:4.0;stroke:rgb(0,0,0);stroke-linecap:round;fill:none;" />
<text x="2646.1" y="1357.1" font-size="18.2px" font-family="CMUBright-Roman" style="text-anchor:start;fill:rgb(0,0,0);" transform="rotate(352.6,2646.1,1357.1)" >650</text>
<line x1='2622.1' y1='1419.1' x2='2642.0' y2='1417.7' style="stroke-width:4.0;stroke:rgb(0,0,0);stroke-linecap:round;fill:none;" />
<text x="2652.5" y="1423.4" font-size="18.2px" font-family="CMUBright-Roman" style="text-anchor:start;fill:rgb(0,0,0);" transform="rotate(355.9,2652.5,1423.4)" >700</text>
<line x1='2624.9' y1='1483.9' x2='2644.9' y2='1483.6' style="stroke-width:4.0;stroke:rgb(0,0,0);stroke-linecap:round;fill:none;" />
<text x="2655.0" y="1490.0" font-size="18.2px" font-family="CMUBright-Roman" style="text-anchor:start;fill:rgb(0,0,0);" transform="rotate(359.2,2655.0,1490.0)" >750</text>
<line x1='2623.9' y1='1548.8' x2='2643.9' y2='1549.6' style="stroke-width:4.0;stroke:rgb(0,0,0);stroke-linecap:round;fill:none;" />
<text x="2653.6" y="1556.6" font-size="18.2px" font-family="CMUBright-Roman" style="text-anchor:start;fill:rgb(0,0,0);" transform="rotate(2.5,2653.6,1556.6)" >800</text>
<line x1='2619.3' y1='1613.5' x2='2639.2' y2='1615.5' style="stroke-width:4.0;stroke:rgb(0,0,0);stroke-linecap:round;fill:none;" />
<text x="2648.4" y="1623.0" font-size="18.2px" font-family="CMUBright-Roman" style="text-anchor:start;fill:rgb(0,0,0);" transform="rotate(5.8,2648.4,1623.0)" >850</text>
<line x1='2610.9' y1='1677.8' x2='2630.6' y2='1680.9' style="stroke-width:4.0;stroke:rgb(0,0,0);stroke-linecap:round;fill:none;" />
<text x="2639.4" y="1688.9" font-size="18.2px" font-family="CMUBright-Roman" style="text-anchor:start;fill:rgb(0,0,0);" transform="rotate(9.1,2639.4,1688.9)" >900</text>
<line x1='2598.8' y1='1741.5' x2='2618.3' y2='1745.8' style="stroke-width:4.0;stroke:rgb(0,0,0);stroke-linecap:round;fill:none;" />
<text x="2626.7" y="1754.3" font-size="18.2px" font-family="CMUBright-Roman" style="text-anchor:start;fill:rgb(0,0,0);" transform="rotate(12.4,2626.7,1754.3)" >950</text>
<line x1='2583.0' y1='1804.4' x2='2602.3' y2='1809.9' style="stroke-width:4.0;stroke:rgb(0,0,0);stroke-linecap:round;fill:none;" />
<text x="2610.1" y="1818.8" font-size="18.2px" font-family="CMUBright-Roman" style="text-anchor:start;fill:rgb(0,0,0);" transform="rotate(15.7,2610.1,1818.8)" >1000</text>
<line x1='2563.7' y1='1866.4' x2='2582.6' y2='1872.9' style="stroke-width:4.0;stroke:rgb(0,0,0);stroke-linecap:round;fill:none;" />
<text x="2589.9" y="1882.3" font-size="18.2px" font-family="CMUBright-Roman" style="text-anchor:start;fill:rgb(0,0,0);" transform="rotate(19.0,2589.9,1882.3)" >1050</text>
<line x1='2540.8' y1='1927.1' x2='2559.3' y2='1934.6' style="stroke-width:4.0;stroke:rgb(0,0,0);stroke-linecap:round;fill:none;" />
<text x="2566.1" y="1944.4" font-size="18.2px" font-family="CMUBright-Roman" style="text-anchor:start;fill:rgb(0,0,0);" transform="rotate(22.3,2566.1,1944.4)" >1100</text>
<line x1='2514.4' y1='1986.3' x2='2532.5' y2='1995.0' style="stroke-width:4.0;stroke:rgb(0,0,0);stroke-linecap:round;fill:none;" />
<text x="2538.7" y="2005.2" font-size="18.2px" font-family="CMUBright-Roman" style="text-anchor:start;fill:rgb(0,0,0);" transform="rotate(25.6,2538.7,2005.2)" >1150</text>
<line x1='2484.7' y1='2044.0' x2='2502.2' y2='2053.7' style="stroke-width:4.0;stroke:rgb(0,0,0);stroke-linecap:round;fill:none;" />
<text x="2507.8" y="2064.2" font-size="18.2px" font-family="CMUBright-Roman" style="text-anchor:start;fill:rgb(0,0,0);" transform="rotate(28.9,2507.8,2064.2)" >1200</text>
<line x1='2451.7' y1='2099.8' x2='2468.7' y2='2110.5' style="stroke-width:4.0;stroke:rgb(0,0,0);stroke-linecap:round;fill:none;" />
<text x="2473.6" y="2121.3" font-size="18.2px" font-family="CMUBright-Roman" style="text-anchor:start;fill:rgb(0,0,0);" transform="rotate(32.2,2473.6,2121.3)" >1250</text>
<line x1='2415.6' y1='2153.7' x2='2431.9' y2='2165.3' style="stroke-width:4.0;stroke:rgb(0,0,0);stroke-linecap:round;fill:none;" />
<text x="2436.2" y="2176.4" font-size="18.2px" font-family="CMUBright-Roman" style="text-anchor:start;fill:rgb(0,0,0);" transform="rotate(35.5,2436.2,2176.4)" >1300</text>
<line x1='2376.4' y1='2205.4' x2='2392.0' y2='2217.9' style="stroke-width:4.0;stroke:rgb(0,0,0);stroke-linecap:round;fill:none;" />
<text x="2395.7" y="2229.2" font-size="18.2px" font-family="CMUBright-Roman" style="text-anchor:start;fill:rgb(0,0,0);" transform="rotate(38.8,2395.7,2229.2)" >1350</text>
<line x1='2334.3' y1='2254.7' x2='2349.1' y2='2268.1' style="stroke-width:4.0;stroke:rgb(0,0,0);stroke-linecap:round;fill:none;" />
<text x="2352.1" y="2279.7" font-size="18.2px" font-family="CMUBright-Roman" style="text-anchor:start;fill:rgb(0,0,0);" transform="rotate(42.1,2352.1,2279.7)" >1400</text>
<line x1='2289.4' y1='2301.6' x2='2303.4' y2='2315.8' style="stroke-width:4.0;stroke:rgb(0,0,0);stroke-linecap:round;fill:none;" />
<text x="2305.8" y="2327.5" font-size="18.2px" font-family="CMUBright-Roman" style="text-anchor:start;fill:rgb(0,0,0);" transform="rotate(45.4,2305.8,2327.5)" >1450</text>
<line x1='2241.9' y1='2345.7' x2='2255.1' y2='2360.8' style="stroke-width:4.0;stroke:rgb(0,0,0);stroke-linecap:round;fill:none;" />
<text x="2256.8" y="2372.5" font-size="18.2px" font-family="CMUBright-Roman" style="text-anchor:start;fill:rgb(0,0,0);" transform="rotate(48.7,2256.8,2372.5)" >1500</text>
<line x1='2191.9' y1='2387.1' x2='2204.2' y2='2402.8' style="stroke-width:4.0;stroke:rgb(0,0,0);stroke-linecap:round;fill:none;" />
<text x="2205.2" y="2414.7" font-size="18.2px" font-family="CMUBright-Roman" style="text-anchor:start;fill:rgb(0,0,0);" transform="rotate(52.0,2205.2,2414.7)" >1550</text>
<line x1='2139.6' y1='2425.5' x2='2151.0' y2='2441.9' style="stroke-width:4.0;stroke:rgb(0,0,0);stroke-linecap:round;fill:none;" />
<text x="2151.3" y="2453.8" font-size="18.2px" font-family="CMUBright-Roman" style="text-anchor:start;fill:rgb(0,0,0);" transform="rotate(55.4,2151.3,2453.8)" >1600</text>
<line x1='2085.2' y1='2460.8' x2='2095.6' y2='2477.9' style="stroke-width:4.0;stroke:rgb(0,0,0);stroke-linecap:round;fill:none;" />
<text x="2095.3" y="2489.8" font-size="18.2px" font-family="CMUBright-Roman" style="text-anchor:start;fill:rgb(0,0,0);" transform="rotate(58.7,2095.3,2489.8)" >1650</text>
<line x1='2028.9' y1='2492.9' x2='2038.3' y2='2510.6' style="stroke-width:4.0;stroke:rgb(0,0,0);stroke-linecap:round;fill:none;" />
<text x="2037.2" y="2522.5" font-size="18.2px" font-family="CMUBright-Roman" style="text-anchor:start;fill:rgb(0,0,0);" transform="rotate(62.0,2037.2,2522.5)" >1700</text>
<line x1='1970.8' y1='2521.8' x2='1979.1' y2='2539.9' style="stroke-width:4.0;stroke:rgb(0,0,0);stroke-linecap:round;fill:none;" />
<text x="1977.4" y="2551.7" font-size="18.2px" font-family="CMUBright-Roman" style="text-anchor:start;fill:rgb(0,0,0);" transform="rotate(65.3,1977.4,2551.7)" >1750</text>
<line x1='1911.1' y1='2547.2' x2='1918.4' y2='2565.8' style="stroke-width:4.0;stroke:rgb(0,0,0);stroke-linecap:round;fill:none;" />
<text x="1916.0" y="2577.5" font-size="18.2px" font-family="CMUBright-Roman" style="text-anchor:start;fill:rgb(0,0,0);" transform="rotate(68.6,1916.0,2577.5)" >1800</text>
<line x1='1850.0' y1='2569.2' x2='1856.3' y2='2588.2' style="stroke-width:4.0;stroke:rgb(0,0,0);stroke-linecap:round;fill:none;" />
<text x="1853.2" y="2599.7" font-size="18.2px" font-family="CMUBright-Roman" style="text-anchor:start;fill:rgb(0,0,0);" transform="rotate(71.9,1853.2,2599.7)" >1850</text>
<line x1='1787.8' y1='2587.6' x2='1793.0' y2='2606.9' style="stroke-width:4.0;stroke:rgb(0,0,0);stroke-linecap:round;fill:none;" />
<text x="1789.2" y="2618.2" font-size="18.2px" font-family="CMUBright-Roman" style="text-anchor:start;fill:rgb(0,0,0);" transform="rotate(75.2,1789.2,2618.2)" >1900</text>
<line x1='1724.7' y1='2602.3' x2='1728.7' y2='2621.9' style="stroke-width:4.0;stroke:rgb(0,0,0);stroke-linecap:round;fill:none;" />
<text x="1724.3" y="2633.0" font-size="18.2px" font-family="CMUBright-Roman" style="text-anchor:start;fill:rgb(0,0,0);" transform="rotate(78.5,1724.3,2633.0)" >1950</text>
<line x1='1660.8' y1='2613.5' x2='1663.6' y2='2633.2' style="stroke-width:4.0;stroke:rgb(0,0,0);stroke-linecap:round;fill:none;" />
<text x="1658.6" y="2644.1" font-size="18.2px" font-family="CMUBright-Roman" style="text-anchor:start;fill:rgb(0,0,0);" transform="rotate(81.8,1658.6,2644.1)" >2000</text>
<line x1='1596.3' y1='2620.9' x2='1598.0' y2='2640.8' style="stroke-width:4.0;stroke:rgb(0,0,0);stroke-linecap:round;fill:none;" />
<text x="1592.4" y="2651.3" font-size="18.2px" font-family="CMUBright-Roman" style="text-anchor:start;fill:rgb(0,0,0);" transform="rotate(85.1,1592.4,2651.3)" >2050</text>
<line x1='1531.6' y1='2624.6' x2='1532.1' y2='2644.5' style="stroke-width:4.0;stroke:rgb(0,0,0);stroke-linecap:round;fill:none;" />
<text x="1525.9" y="2654.7" font-size="18.2px" font-family="CMUBright-Roman" style="text-anchor:start;fill:rgb(0,0,0);" transform="rotate(88.4,1525.9,2654.7)" >2100</text>
<line x1='1466.7' y1='2624.5' x2='1466.1' y2='2644.5' style="stroke-width:4.0;stroke:rgb(0,0,0);stroke-linecap:round;fill:none;" />
<text x="1472.3" y="2654.7" font-size="18.2px" font-family="CMUBright-Roman" style="text-anchor:end;fill:rgb(0,0,0);" transform="rotate(-88.3,1472.3,2654.7)" >2150</text>
<line x1='1401.9' y1='2620.7' x2='1400.2' y2='2640.6' style="stroke-width:4.0;stroke:rgb(0,0,0);stroke-linecap:round;fill:none;" />
<text x="1405.8" y="2651.2" font-size="18.2px" font-family="CMUBright-Roman" style="text-anchor:end;fill:rgb(0,0,0);" transform="rotate(-85.0,1405.8,2651.2)" >2200</text>
<line x1='1337.5' y1='2613.2' x2='1334.6' y2='2633.0' style="stroke-width:4.0;stroke:rgb(0,0,0);stroke-linecap:round;fill:none;" />
<text x="1339.6" y="2643.8" font-size="18.2px" font-family="CMUBright-Roman" style="text-anchor:end;fill:rgb(0,0,0);" transform="rotate(-81.7,1339.6,2643.8)" >2250</text>
<line x1='1273.6' y1='2602.0' x2='1269.6' y2='2621.6' style="stroke-width:4.0;stroke:rgb(0,0,0);stroke-linecap:round;fill:none;" />
<text x="1274.0" y="2632.7" font-size="18.2px" font-family="CMUBright-Roman" style="text-anchor:end;fill:rgb(0,0,0);" transform="rotate(-78.4,1274.0,2632.7)" >2300</text>
<line x1='1210.5' y1='2587.1' x2='1205.3' y2='2606.4' style="stroke-width:4.0;stroke:rgb(0,0,0);stroke-linecap:round;fill:none;" />
<text x="1209.1" y="2617.8" font-size="18.2px" font-family="CMUBright-Roman" style="text-anchor:end;fill:rgb(0,0,0);" transform="rotate(-75.1,1209.1,2617.8)" >2350</text>
<line x1='1148.3' y1='2568.6' x2='1142.1' y2='2587.6' style="stroke-width:4.0;stroke:rgb(0,0,0);stroke-linecap:round;fill:none;" />
<text x="1145.1" y="2599.1" font-size="18.2px" font-family="CMUBright-Roman" style="text-anchor:end;fill:rgb(0,0,0);" transform="rotate(-71.8,1145.1,2599.1)" >2400</text>
<line x1='1087.3' y1='2546.6' x2='1080.0' y2='2565.2' style="stroke-width:4.0;stroke:rgb(0,0,0);stroke-linecap:round;fill:none;" />
<text x="1082.4" y="2576.8" font-size="18.2px" font-family="CMUBright-Roman" style="text-anchor:end;fill:rgb(0,0,0);" transform="rotate(-68.5,1082.4,2576.8)" >2450</text>
<line x1='1027.7' y1='2521.0' x2='1019.3' y2='2539.2' style="stroke-width:4.0;stroke:rgb(0,0,0);stroke-linecap:round;fill:none;" />
<text x="1021.0" y="2551.0" font-size="18.2px" font-family="CMUBright-Roman" style="text-anchor:end;fill:rgb(0,0,0);" transform="rotate(-65.2,1021.0,2551.0)" >2500</text>
<line x1='969.6' y1='2492.1' x2='960.2' y2='2509.8' style="stroke-width:4.0;stroke:rgb(0,0,0);stroke-linecap:round;fill:none;" />
<text x="961.2" y="2521.6" font-size="18.2px" font-family="CMUBright-Roman" style="text-anchor:end;fill:rgb(0,0,0);" transform="rotate(-61.9,961.2,2521.6)" >2550</text>
<line x1='913.3' y1='2459.9' x2='902.9' y2='2477.0' style="stroke-width:4.0;stroke:rgb(0,0,0);stroke-linecap:round;fill:none;" />
<text x="903.2" y="2488.9" font-size="18.2px" font-family="CMUBright-Roman" style="text-anchor:end;fill:rgb(0,0,0);" transform="rotate(-58.6,903.2,2488.9)" >2600</text>
<line x1='859.0' y1='2424.5' x2='847.6' y2='2440.9' style="stroke-width:4.0;stroke:rgb(0,0,0);stroke-linecap:round;fill:none;" />
<text x="847.2" y="2452.8" font-size="18.2px" font-family="CMUBright-Roman" style="text-anchor:end;fill:rgb(0,0,0);" transform="rotate(-55.3,847.2,2452.8)" >2650</text>
<line x1='806.7' y1='2386.0' x2='794.4' y2='2401.8' style="stroke-width:4.0;stroke:rgb(0,0,0);stroke-linecap:round;fill:none;" />
<text x="793.4" y="2413.6" font-size="18.2px" font-family="CMUBright-Roman" style="text-anchor:end;fill:rgb(0,0,0);" transform="rotate(-52.0,793.4,2413.6)" >2700</text>
<line x1='756.8' y1='2344.6' x2='743.6' y2='2359.6' style="stroke-width:4.0;stroke:rgb(0,0,0);stroke-linecap:round;fill:none;" />
<text x="741.9" y="2371.4" font-size="18.2px" font-family="CMUBright-Roman" style="text-anchor:end;fill:rgb(0,0,0);" transform="rotate(-48.7,741.9,2371.4)" >2750</text>
<line x1='709.4' y1='2300.3' x2='695.3' y2='2314.6' style="stroke-width:4.0;stroke:rgb(0,0,0);stroke-linecap:round;fill:none;" />
<text x="692.9" y="2326.2" font-size="18.2px" font-family="CMUBright-Roman" style="text-anchor:end;fill:rgb(0,0,0);" transform="rotate(-45.4,692.9,2326.2)" >2800</text>
<line x1='664.6' y1='2253.4' x2='649.7' y2='2266.8' style="stroke-width:4.0;stroke:rgb(0,0,0);stroke-linecap:round;fill:none;" />
<text x="646.7" y="2278.4" font-size="18.2px" font-family="CMUBright-Roman" style="text-anchor:end;fill:rgb(0,0,0);" transform="rotate(-42.0,646.7,2278.4)" >2850</text>
<line x1='622.5' y1='2204.0' x2='606.9' y2='2216.6' style="stroke-width:4.0;stroke:rgb(0,0,0);stroke-linecap:round;fill:none;" />
<text x="603.2" y="2227.9" font-size="18.2px" font-family="CMUBright-Roman" style="text-anchor:end;fill:rgb(0,0,0);" transform="rotate(-38.7,603.2,2227.9)" >2900</text>
<line x1='583.4' y1='2152.3' x2='567.1' y2='2163.9' style="stroke-width:4.0;stroke:rgb(0,0,0);stroke-linecap:round;fill:none;" />
<text x="562.8" y="2175.0" font-size="18.2px" font-family="CMUBright-Roman" style="text-anchor:end;fill:rgb(0,0,0);" transform="rotate(-35.4,562.8,2175.0)" >2950</text>
<line x1='547.3' y1='2098.4' x2='530.4' y2='2109.0' style="stroke-width:4.0;stroke:rgb(0,0,0);stroke-linecap:round;fill:none;" />
<text x="525.4" y="2119.8" font-size="18.2px" font-family="CMUBright-Roman" style="text-anchor:end;fill:rgb(0,0,0);" transform="rotate(-32.1,525.4,2119.8)" >3000</text>
<line x1='514.4' y1='2042.5' x2='496.9' y2='2052.1' style="stroke-width:4.0;stroke:rgb(0,0,0);stroke-linecap:round;fill:none;" />
<text x="491.3" y="2062.6" font-size="18.2px" font-family="CMUBright-Roman" style="text-anchor:end;fill:rgb(0,0,0);" transform="rotate(-28.8,491.3,2062.6)" >3050</text>
<line x1='484.8' y1='1984.8' x2='466.8' y2='1993.4' style="stroke-width:4.0;stroke:rgb(0,0,0);stroke-linecap:round;fill:none;" />
<text x="460.6" y="2003.6" font-size="18.2px" font-family="CMUBright-Roman" style="text-anchor:end;fill:rgb(0,0,0);" transform="rotate(-25.5,460.6,2003.6)" >3100</text>
<line x1='458.6' y1='1925.5' x2='440.0' y2='1933.0' style="stroke-width:4.0;stroke:rgb(0,0,0);stroke-linecap:round;fill:none;" />
<text x="433.3" y="1942.8" font-size="18.2px" font-family="CMUBright-Roman" style="text-anchor:end;fill:rgb(0,0,0);" transform="rotate(-22.2,433.3,1942.8)" >3150</text>
<line x1='435.8' y1='1864.7' x2='416.8' y2='1871.2' style="stroke-width:4.0;stroke:rgb(0,0,0);stroke-linecap:round;fill:none;" />
<text x="409.5" y="1880.6" font-size="18.2px" font-family="CMUBright-Roman" style="text-anchor:end;fill:rgb(0,0,0);" transform="rotate(-18.9,409.5,1880.6)" >3200</text>
<line x1='416.5' y1='1802.8' x2='397.2' y2='1808.2' style="stroke-width:4.0;stroke:rgb(0,0,0);stroke-linecap:round;fill:none;" />
<text x="389.4" y="1817.1" font-size="18.2px" font-family="CMUBright-Roman" style="text-anchor:end;fill:rgb(0,0,0);" transform="rotate(-15.6,389.4,1817.1)" >3250</text>
<line x1='400.9' y1='1739.8' x2='381.3' y2='1744.1' style="stroke-width:4.0;stroke:rgb(0,0,0);stroke-linecap:round;fill:none;" />
<text x="373.0" y="1752.6" font-size="18.2px" font-family="CMUBright-Roman" style="text-anchor:end;fill:rgb(0,0,0);" transform="rotate(-12.3,373.0,1752.6)" >3300</text>
<line x1='388.9' y1='1676.1' x2='369.1' y2='1679.2' style="stroke-width:4.0;stroke:rgb(0,0,0);stroke-linecap:round;fill:none;" />
<text x="360.3" y="1687.2" font-size="18.2px" font-family="CMUBright-Roman" style="text-anchor:end;fill:rgb(0,0,0);" transform="rotate(-9.0,360.3,1687.2)" >3350</text>
<line x1='380.6' y1='1611.7' x2='360.7' y2='1613.7' style="stroke-width:4.0;stroke:rgb(0,0,0);stroke-linecap:round;fill:none;" />
<text x="351.4" y="1621.2" font-size="18.2px" font-family="CMUBright-Roman" style="text-anchor:end;fill:rgb(0,0,0);" transform="rotate(-5.7,351.4,1621.2)" >3400</text>
<line x1='376.0' y1='1547.0' x2='356.0' y2='1547.9' style="stroke-width:4.0;stroke:rgb(0,0,0);stroke-linecap:round;fill:none;" />
<text x="346.3" y="1554.8" font-size="18.2px" font-family="CMUBright-Roman" style="text-anchor:end;fill:rgb(0,0,0);" transform="rotate(-2.4,346.3,1554.8)" >3450</text>
<line x1='375.1' y1='1482.2' x2='355.1' y2='1481.9' style="stroke-width:4.0;stroke:rgb(0,0,0);stroke-linecap:round;fill:none;" />
<text x="345.1" y="1488.2" font-size="18.2px" font-family="CMUBright-Roman" style="text-anchor:end;fill:rgb(0,0,0);" transform="rotate(0.9,345.1,1488.2)" >3500</text>
<line x1='378.0' y1='1417.4' x2='358.1' y2='1415.9' style="stroke-width:4.0;stroke:rgb(0,0,0);stroke-linecap:round;fill:none;" />
<text x="347.7" y="1421.7" font-size="18.2px" font-family="CMUBright-Roman" style="text-anchor:end;fill:rgb(0,0,0);" transform="rotate(4.2,347.7,1421.7)" >3550</text>
<line x1='384.7' y1='1352.8' x2='364.8' y2='1350.2' style="stroke-width:4.0;stroke:rgb(0,0,0);stroke-linecap:round;fill:none;" />
<text x="354.1" y="1355.4" font-size="18.2px" font-family="CMUBright-Roman" style="text-anchor:end;fill:rgb(0,0,0);" transform="rotate(7.5,354.1,1355.4)" >3600</text>
<line x1='395.0' y1='1288.8' x2='375.4' y2='1285.1' style="stroke-width:4.0;stroke:rgb(0,0,0);stroke-linecap:round;fill:none;" />
<text x="364.3" y="1289.6" font-size="18.2px" font-family="CMUBright-Roman" style="text-anchor:end;fill:rgb(0,0,0);" transform="rotate(10.8,364.3,1289.6)" >3650</text>
<line x1='409.0' y1='1225.5' x2='389.6' y2='1220.6' style="stroke-width:4.0;stroke:rgb(0,0,0);stroke-linecap:round;fill:none;" />
<text x="378.3" y="1224.5" font-size="18.2px" font-family="CMUBright-Roman" style="text-anchor:end;fill:rgb(0,0,0);" transform="rotate(14.1,378.3,1224.5)" >3700</text>
<line x1='426.6' y1='1163.0' x2='407.6' y2='1157.1' style="stroke-width:4.0;stroke:rgb(0,0,0);stroke-linecap:round;fill:none;" />
<text x="396.1" y="1160.3" font-size="18.2px" font-family="CMUBright-Roman" style="text-anchor:end;fill:rgb(0,0,0);" transform="rotate(17.4,396.1,1160.3)" >3750</text>
<line x1='447.9' y1='1101.7' x2='429.1' y2='1094.7' style="stroke-width:4.0;stroke:rgb(0,0,0);stroke-linecap:round;fill:none;" />
<text x="417.5" y="1097.2" font-size="18.2px" font-family="CMUBright-Roman" style="text-anchor:end;fill:rgb(0,0,0);" transform="rotate(20.7,417.5,1097.2)" >3800</text>
<line x1='472.6' y1='1041.8' x2='454.3' y2='1033.6' style="stroke-width:4.0;stroke:rgb(0,0,0);stroke-linecap:round;fill:none;" />
<text x="442.5" y="1035.5" font-size="18.2px" font-family="CMUBright-Roman" style="text-anchor:end;fill:rgb(0,0,0);" transform="rotate(24.0,442.5,1035.5)" >3850</text>
<line x1='500.7' y1='983.3' x2='482.9' y2='974.1' style="stroke-width:4.0;stroke:rgb(0,0,0);stroke-linecap:round;fill:none;" />
<text x="471.1" y="975.3" font-size="18.2px" font-family="CMUBright-Roman" style="text-anchor:end;fill:rgb(0,0,0);" transform="rotate(27.3,471.1,975.3)" >3900</text>
<line x1='532.1' y1='926.6' x2='514.9' y2='916.4' style="stroke-width:4.0;stroke:rgb(0,0,0);stroke-linecap:round;fill:none;" />
<text x="503.0" y="916.9" font-size="18.2px" font-family="CMUBright-Roman" style="text-anchor:end;fill:rgb(0,0,0);" transform="rotate(30.6,503.0,916.9)" >3950</text>
<line x1='566.8' y1='871.7' x2='550.2' y2='860.6' style="stroke-width:4.0;stroke:rgb(0,0,0);stroke-linecap:round;fill:none;" />
<text x="538.3" y="860.4" font-size="18.2px" font-family="CMUBright-Roman" style="text-anchor:end;fill:rgb(0,0,0);" transform="rotate(33.9,538.3,860.4)" >4000</text>
<line x1='604.5' y1='819.0' x2='588.6' y2='806.9' style="stroke-width:4.0;stroke:rgb(0,0,0);stroke-linecap:round;fill:none;" />
<text x="576.7" y="806.0" font-size="18.2px" font-family="CMUBright-Roman" style="text-anchor:end;fill:rgb(0,0,0);" transform="rotate(37.3,576.7,806.0)" >4050</text>
<line x1='645.3' y1='768.5' x2='630.1' y2='755.5' style="stroke-width:4.0;stroke:rgb(0,0,0);stroke-linecap:round;fill:none;" />
<text x="618.3" y="754.0" font-size="18.2px" font-family="CMUBright-Roman" style="text-anchor:end;fill:rgb(0,0,0);" transform="rotate(40.6,618.3,754.0)" >4100</text>
<line x1='688.9' y1='720.5' x2='674.4' y2='706.6' style="stroke-width:4.0;stroke:rgb(0,0,0);stroke-linecap:round;fill:none;" />
<text x="662.7" y="704.4" font-size="18.2px" font-family="CMUBright-Roman" style="text-anchor:end;fill:rgb(0,0,0);" transform="rotate(43.9,662.7,704.4)" >4150</text>
<line x1='735.1' y1='675.0' x2='721.5' y2='660.3' style="stroke-width:4.0;stroke:rgb(0,0,0);stroke-linecap:round;fill:none;" />
<text x="710.0" y="657.4" font-size="18.2px" font-family="CMUBright-Roman" style="text-anchor:end;fill:rgb(0,0,0);" transform="rotate(47.2,710.0,657.4)" >4200</text>
<line x1='784.0' y1='632.3' x2='771.2' y2='616.9' style="stroke-width:4.0;stroke:rgb(0,0,0);stroke-linecap:round;fill:none;" />
<text x="759.9" y="613.3" font-size="18.2px" font-family="CMUBright-Roman" style="text-anchor:end;fill:rgb(0,0,0);" transform="rotate(50.5,759.9,613.3)" >4250</text>
<line x1='835.2' y1='592.5' x2='823.3' y2='576.3' style="stroke-width:4.0;stroke:rgb(0,0,0);stroke-linecap:round;fill:none;" />
<text x="812.2" y="572.1" font-size="18.2px" font-family="CMUBright-Roman" style="text-anchor:end;fill:rgb(0,0,0);" transform="rotate(53.8,812.2,572.1)" >4300</text>
<line x1='888.6' y1='555.7' x2='877.7' y2='538.9' style="stroke-width:4.0;stroke:rgb(0,0,0);stroke-linecap:round;fill:none;" />
<text x="866.8" y="534.0" font-size="18.2px" font-family="CMUBright-Roman" style="text-anchor:end;fill:rgb(0,0,0);" transform="rotate(57.1,866.8,534.0)" >4350</text>
<line x1='944.0' y1='522.0' x2='934.1' y2='504.6' style="stroke-width:4.0;stroke:rgb(0,0,0);stroke-linecap:round;fill:none;" />
<text x="923.5" y="499.1" font-size="18.2px" font-family="CMUBright-Roman" style="text-anchor:end;fill:rgb(0,0,0);" transform="rotate(60.4,923.5,499.1)" >4400</text>
<line x1='1001.3' y1='491.6' x2='992.4' y2='473.6' style="stroke-width:4.0;stroke:rgb(0,0,0);stroke-linecap:round;fill:none;" />
<text x="982.2" y="467.6" font-size="18.2px" font-family="CMUBright-Roman" style="text-anchor:end;fill:rgb(0,0,0);" transform="rotate(63.7,982.2,467.6)" >4450</text>
<line x1='1060.3' y1='464.5' x2='1052.4' y2='446.1' style="stroke-width:4.0;stroke:rgb(0,0,0);stroke-linecap:round;fill:none;" />
<text x="1042.6" y="439.5" font-size="18.2px" font-family="CMUBright-Roman" style="text-anchor:end;fill:rgb(0,0,0);" transform="rotate(67.0,1042.6,439.5)" >4500</text>
<line x1='1120.7' y1='440.9' x2='1113.9' y2='422.1' style="stroke-width:4.0;stroke:rgb(0,0,0);stroke-linecap:round;fill:none;" />
<text x="1104.4" y="414.8" font-size="18.2px" font-family="CMUBright-Roman" style="text-anchor:end;fill:rgb(0,0,0);" transform="rotate(70.3,1104.4,414.8)" >4550</text>
<line x1='1182.3' y1='420.8' x2='1176.7' y2='401.6' style="stroke-width:4.0;stroke:rgb(0,0,0);stroke-linecap:round;fill:none;" />
<text x="1167.6" y="393.9" font-size="18.2px" font-family="CMUBright-Roman" style="text-anchor:end;fill:rgb(0,0,0);" transform="rotate(73.6,1167.6,393.9)" >4600</text>
<line x1='1245.1' y1='404.3' x2='1240.5' y2='384.8' style="stroke-width:4.0;stroke:rgb(0,0,0);stroke-linecap:round;fill:none;" />
<text x="1231.9" y="376.5" font-size="18.2px" font-family="CMUBright-Roman" style="text-anchor:end;fill:rgb(0,0,0);" transform="rotate(76.9,1231.9,376.5)" >4650</text>
<line x1='1308.6' y1='391.4' x2='1305.2' y2='371.7' style="stroke-width:4.0;stroke:rgb(0,0,0);stroke-linecap:round;fill:none;" />
<text x="1297.1" y="363.0" font-size="18.2px" font-family="CMUBright-Roman" style="text-anchor:end;fill:rgb(0,0,0);" transform="rotate(80.2,1297.1,363.0)" >4700</text>
<line x1='1372.9' y1='382.2' x2='1370.6' y2='362.3' style="stroke-width:4.0;stroke:rgb(0,0,0);stroke-linecap:round;fill:none;" />
<text x="1363.0" y="353.2" font-size="18.2px" font-family="CMUBright-Roman" style="text-anchor:end;fill:rgb(0,0,0);" transform="rotate(83.5,1363.0,353.2)" >4750</text>
<g id="highlighttrack_0">
<path d="M1392.128,430.426 A1075.000,1075.000 40.000 0,1 1396.501,429.994 L1391.687,380.226 A1125.000,1125.000 0.000 0,0 1387.111,380.678 Z" style="stroke-width:4.0;stroke:rgb(0,0,0);stroke-linecap:round;fill:rgb(116,196,118);" />
<path d="M736.631,2256.897 A1075.000,1075.000 40.000 0,1 733.170,2253.390 L697.504,2288.432 A1125.000,1125.000 0.000 0,0 701.126,2292.102 Z" style="stroke-width:4.0;stroke:rgb(0,0,0);stroke-linecap:round;fill:rgb(116,196,118);" />
<path d="M2225.692,706.907 A1075.000,1075.000 40.000 0,1 2228.955,709.905 L2262.860,673.157 A1125.000,1125.000 0.000 0,0 2259.445,670.019 Z" style="stroke-width:4.0;stroke:rgb(0,0,0);stroke-linecap:round;fill:rgb(251,106,74);" />
<path d="M2383.653,887.805 A1075.000,1075.000 40.000 0,1 2386.379,891.758 L2427.606,863.468 A1125.000,1125.000 0.000 0,0 2424.753,859.331 Z" style="stroke-width:4.0;stroke:rgb(0,0,0);stroke-linecap:round;fill:rgb(251,106,74);" />
<path d="M2418.604,941.617 A1075.000,1075.000 40.000 0,1 2420.859,945.344 L2463.690,919.546 A1125.000,1125.000 0.000 0,0 2461.330,915.645 Z" style="stroke-width:4.0;stroke:rgb(0,0,0);stroke-linecap:round;fill:rgb(251,106,74);" />
<path d="M2505.695,1120.259 A1075.000,1075.000 40.000 0,1 2507.432,1124.893 L2554.289,1107.446 A1125.000,1125.000 0.000 0,0 2552.471,1102.597 Z" style="stroke-width:4.0;stroke:rgb(0,0,0);stroke-linecap:round;fill:rgb(251,106,74);" />
<path d="M2509.104,1129.414 A1075.000,1075.000 40.000 0,1 2510.632,1133.601 L2557.638,1116.559 A1125.000,1125.000 0.000 0,0 2556.039,1112.177 Z" style="stroke-width:4.0;stroke:rgb(0,0,0);stroke-linecap:round;fill:rgb(251,106,74);" />
<path d="M2466.366,1970.916 A1075.000,1075.000 40.000 0,1 2464.484,1974.759 L2509.343,1996.841 A1125.000,1125.000 0.000 0,0 2511.313,1992.819 Z" style="stroke-width:4.0;stroke:rgb(0,0,0);stroke-linecap:round;fill:rgb(251,106,74);" />
<path d="M2557.830,1691.366 A1075.000,1075.000 40.000 0,1 2557.236,1694.622 L2606.409,1703.675 A1125.000,1125.000 0.000 0,0 2607.031,1700.266 Z" style="stroke-width:4.0;stroke:rgb(0,0,0);stroke-linecap:round;fill:rgb(116,196,118);" />
<path d="M2549.966,1730.641 A1075.000,1075.000 40.000 0,1 2549.251,1733.874 L2598.054,1744.751 A1125.000,1125.000 0.000 0,0 2598.802,1741.369 Z" style="stroke-width:4.0;stroke:rgb(0,0,0);stroke-linecap:round;fill:rgb(116,196,118);" />
<path d="M2546.817,1744.537 A1075.000,1075.000 40.000 0,1 2546.064,1747.742 L2594.718,1759.265 A1125.000,1125.000 0.000 0,0 2595.506,1755.911 Z" style="stroke-width:4.0;stroke:rgb(0,0,0);stroke-linecap:round;fill:rgb(116,196,118);" />
<path d="M2405.421,920.486 A1075.000,1075.000 40.000 0,1 2406.797,922.640 L2448.974,895.787 A1125.000,1125.000 0.000 0,0 2447.534,893.531 Z" style="stroke-width:4.0;stroke:rgb(0,0,0);stroke-linecap:round;fill:rgb(116,196,118);" />
<path d="M1415.905,428.294 A1075.000,1075.000 40.000 0,1 1419.355,428.029 L1415.604,378.170 A1125.000,1125.000 0.000 0,0 1411.993,378.448 Z" style="stroke-width:4.0;stroke:rgb(0,0,0);stroke-linecap:round;fill:rgb(116,196,118);" />
</g>
</g>
<g id="track_0">
<path d="M 744.265,2249.328 A 1064.250,1064.250 0.00 0,1 740.8,2245.9 L 740.8,2245.9 792.8,2193.3 840.4,2142.1 883.9,2092.3 923.8,2043.9 960.3,1996.7 993.8,1950.8 1024.5,1906.2 1052.8,1862.6 1078.8,1820.1 1102.8,1778.6 1125.0,1738.0 1145.7,1698.2 1165.0,1659.2 1183.1,1620.7 1200.2,1582.8 1216.3,1545.3 1231.7,1508.0 1246.3,1470.9 1260.4,1433.9 1273.9,1396.7 1287.0,1359.3 1299.6,1321.4 1311.7,1283.0 1323.5,1243.9 1334.8,1203.9 1345.6,1162.8 1355.9,1120.5 1365.6,1076.7 1374.7,1031.3 1382.9,984.1 1390.3,934.8 1396.7,883.3 1401.8,829.3 1405.7,772.6 1407.9,713.0 1408.5,650.3 1407.1,584.2 1403.6,514.4 1397.5,440.7  A 1064.250,1064.250 0.00 0,0 1393.2,441.1 L 1393.2,441.1 1399.5,514.8 1403.4,584.6 1405.0,650.7 1404.7,713.4 1402.7,773.0 1399.1,829.7 1394.1,883.7 1388.0,935.3 1380.8,984.6 1372.7,1031.8 1363.9,1077.3 1354.4,1121.1 1344.2,1163.5 1333.6,1204.6 1322.4,1244.7 1310.9,1283.9 1298.9,1322.3 1286.4,1360.2 1273.5,1397.7 1260.2,1434.9 1246.3,1472.1 1231.8,1509.2 1216.6,1546.5 1200.6,1584.1 1183.7,1622.2 1165.8,1660.7 1146.7,1699.8 1126.2,1739.7 1104.1,1780.4 1080.3,1822.0 1054.4,1864.6 1026.4,1908.3 995.9,1953.2 962.6,1999.2 926.3,2046.5 886.7,2095.1 843.3,2145.1 796.0,2196.5 744.3,2249.3  Z" style="stroke-width: 2.0;  stroke: rgb(82,82,82); fill: rgb(251,106,74); opacity: 0.667;" />
<path d="M 2124.987,638.594 A 1064.250,1064.250 0.00 0,1 2128.9,641.4 L 2128.9,641.4 2085.2,700.3 2044.0,754.3 2005.2,803.7 1968.6,848.8 1934.2,889.7 1901.7,926.7 1871.0,960.0 1842.2,989.8 1814.9,1016.1 1789.2,1039.3 1765.0,1059.4 1742.1,1076.5 1720.5,1090.7 1700.0,1102.2 1680.6,1110.9 1662.2,1117.0 1644.8,1120.6 1628.2,1121.5 1612.4,1120.0 1597.3,1115.8 1583.0,1109.1 1569.2,1099.8 1556.0,1087.9 1543.3,1073.2 1531.1,1055.8 1519.4,1035.5 1508.0,1012.2 1497.1,985.8 1486.5,956.2 1476.2,923.2 1466.3,886.6 1456.6,846.3 1447.3,802.0 1438.2,753.6 1429.5,700.8 1421.0,643.4 1412.9,581.1 1405.0,513.6 1397.5,440.7  A 1064.250,1064.250 0.00 0,0 1393.2,441.1 L 1393.2,441.1 1401.0,514.0 1409.1,581.4 1417.5,643.7 1426.2,701.1 1435.2,753.8 1444.4,802.2 1453.9,846.4 1463.7,886.7 1473.8,923.3 1484.2,956.2 1494.9,985.8 1506.0,1012.2 1517.4,1035.4 1529.3,1055.7 1541.5,1073.0 1554.3,1087.6 1567.5,1099.5 1581.3,1108.8 1595.7,1115.4 1610.8,1119.5 1626.6,1121.0 1643.1,1119.9 1660.6,1116.3 1678.9,1110.1 1698.2,1101.3 1718.7,1089.7 1740.2,1075.4 1763.0,1058.2 1787.2,1038.0 1812.8,1014.7 1839.9,988.2 1868.6,958.3 1899.1,924.9 1931.4,887.7 1965.7,846.7 2002.1,801.4 2040.7,751.8 2081.6,697.7 2125.0,638.6  Z" style="stroke-width: 2.0;  stroke: rgb(82,82,82); fill: rgb(116,196,118); opacity: 0.667;" />
<path d="M 2124.987,638.594 A 1064.250,1064.250 0.00 0,1 2128.9,641.4 L 2128.9,641.4 2084.0,700.7 2039.3,756.0 1994.9,807.7 1951.1,856.2 1907.8,901.7 1865.4,944.6 1823.7,985.3 1783.0,1023.9 1743.3,1060.8 1704.6,1096.3 1667.0,1130.6 1630.5,1164.0 1595.1,1196.6 1560.9,1228.8 1527.7,1260.6 1495.6,1292.4 1464.4,1324.3 1434.2,1356.3 1404.9,1388.8 1376.3,1421.9 1348.4,1455.6 1321.0,1490.1 1293.9,1525.5 1267.1,1561.9 1240.4,1599.3 1213.5,1637.8 1186.3,1677.5 1158.5,1718.4 1130.0,1760.6 1100.4,1803.9 1069.6,1848.6 1037.2,1894.4 1003.0,1941.5 966.6,1989.7 927.8,2039.0 886.1,2089.4 841.3,2140.7 793.0,2192.9 740.8,2245.9  A 1064.250,1064.250 0.00 0,0 744.3,2249.3 L 744.3,2249.3 796.2,2196.1 844.3,2143.7 888.8,2092.2 930.2,2041.6 968.9,1992.1 1005.0,1943.7 1039.0,1896.5 1071.2,1850.5 1101.8,1805.8 1131.2,1762.3 1159.5,1720.0 1187.1,1678.9 1214.1,1639.1 1240.8,1600.5 1267.4,1562.9 1294.1,1526.4 1320.9,1490.9 1348.2,1456.3 1376.0,1422.5 1404.4,1389.3 1433.6,1356.7 1463.7,1324.4 1494.6,1292.4 1526.6,1260.5 1559.7,1228.5 1593.8,1196.2 1629.0,1163.4 1665.3,1129.9 1702.8,1095.4 1741.3,1059.8 1780.9,1022.6 1821.4,983.8 1862.8,943.0 1905.1,899.9 1948.1,854.1 1991.8,805.5 2035.9,753.6 2080.3,698.1 2125.0,638.6  Z" style="stroke-width: 2.0;  stroke: rgb(82,82,82); fill: rgb(107,174,214); opacity: 0.667;" />
<path d="M 2218.435,714.838 A 1064.250,1064.250 0.00 0,1 2221.7,717.8 L 2221.7,717.8 2171.6,771.3 2124.4,820.3 2079.9,864.9 2038.1,905.4 1998.6,942.1 1961.5,975.0 1926.5,1004.5 1893.6,1030.6 1862.5,1053.6 1833.3,1073.6 1805.7,1090.6 1779.7,1104.9 1755.1,1116.5 1731.8,1125.5 1709.9,1132.0 1689.0,1135.9 1669.3,1137.5 1650.6,1136.6 1632.7,1133.3 1615.8,1127.6 1599.6,1119.5 1584.1,1108.8 1569.3,1095.7 1555.1,1079.9 1541.5,1061.5 1528.5,1040.3 1515.9,1016.2 1503.8,989.1 1492.1,958.8 1480.8,925.3 1470.0,888.2 1459.5,847.5 1449.4,802.9 1439.8,754.2 1430.5,701.1 1421.6,643.6 1413.1,581.1 1405.1,513.6 1397.5,440.7  A 1064.250,1064.250 0.00 0,0 1393.2,441.1 L 1393.2,441.1 1401.1,514.0 1409.4,581.5 1418.1,643.9 1427.2,701.4 1436.7,754.4 1446.6,803.1 1456.9,847.6 1467.5,888.3 1478.5,925.3 1489.9,958.9 1501.7,989.1 1513.9,1016.1 1526.6,1040.2 1539.7,1061.3 1553.4,1079.7 1567.7,1095.4 1582.5,1108.5 1598.0,1119.1 1614.2,1127.1 1631.2,1132.8 1649.1,1136.0 1667.8,1136.8 1687.5,1135.2 1708.3,1131.1 1730.3,1124.5 1753.5,1115.4 1778.0,1103.8 1804.0,1089.4 1831.5,1072.2 1860.7,1052.1 1891.6,1029.0 1924.5,1002.7 1959.3,973.1 1996.3,940.0 2035.6,903.2 2077.3,862.5 2121.6,817.7 2168.6,768.6 2218.4,714.8  Z" style="stroke-width: 2.0;  stroke: rgb(82,82,82); fill: rgb(253,141,60); opacity: 0.667;" />
<path d="M 2218.435,714.838 A 1064.250,1064.250 0.00 0,1 2221.7,717.8 L 2221.7,717.8 2170.3,771.7 2119.5,821.7 2069.5,868.4 2020.2,911.9 1971.9,952.7 1924.7,991.0 1878.5,1027.3 1833.6,1061.8 1789.9,1094.8 1747.5,1126.5 1706.4,1157.3 1666.7,1187.3 1628.2,1216.9 1591.1,1246.2 1555.2,1275.4 1520.6,1304.7 1487.1,1334.4 1454.7,1364.5 1423.3,1395.2 1392.8,1426.6 1363.1,1459.0 1334.0,1492.3 1305.5,1526.7 1277.2,1562.2 1249.1,1599.0 1221.0,1637.1 1192.7,1676.4 1163.9,1717.1 1134.5,1759.1 1104.1,1802.5 1072.5,1847.2 1039.4,1893.2 1004.6,1940.4 967.8,1988.9 928.5,2038.4 886.5,2089.0 841.5,2140.5 793.1,2192.8 740.8,2245.9  A 1064.250,1064.250 0.00 0,0 744.3,2249.3 L 744.3,2249.3 796.3,2196.1 844.5,2143.5 889.3,2091.8 931.0,2041.0 970.0,1991.3 1006.7,1942.7 1041.2,1895.3 1074.1,1849.1 1105.5,1804.3 1135.7,1760.8 1165.0,1718.6 1193.6,1677.8 1221.7,1638.3 1249.6,1600.2 1277.6,1563.3 1305.6,1527.6 1334.1,1493.1 1363.0,1459.6 1392.6,1427.2 1422.9,1395.6 1454.2,1364.7 1486.4,1334.5 1519.8,1304.7 1554.3,1275.2 1590.0,1245.8 1627.1,1216.4 1665.4,1186.7 1705.0,1156.5 1746.0,1125.5 1788.2,1093.6 1831.8,1060.4 1876.6,1025.8 1922.6,989.3 1969.7,950.7 2017.8,909.8 2066.8,866.0 2116.7,819.2 2167.3,768.9 2218.4,714.8  Z" style="stroke-width: 2.0;  stroke: rgb(82,82,82); fill: rgb(255,0,0); opacity: 0.667;" />
<path d="M 2218.435,714.838 A 1064.250,1064.250 0.00 0,1 2221.7,717.8 L 2221.7,717.8 2172.0,771.6 2126.0,821.1 2083.4,866.7 2044.2,908.6 2008.1,946.8 1975.0,981.7 1944.8,1013.2 1917.2,1041.7 1892.3,1067.2 1869.8,1089.8 1849.7,1109.8 1831.9,1127.0 1816.3,1141.8 1802.7,1154.1 1791.2,1163.9 1781.7,1171.4 1774.2,1176.7 1768.5,1179.6 1764.8,1180.3 1762.9,1178.7 1762.8,1174.9 1764.6,1168.8 1768.3,1160.3 1773.8,1149.6 1781.3,1136.4 1790.7,1120.8 1802.2,1102.6 1815.7,1081.8 1831.4,1058.2 1849.3,1031.8 1869.5,1002.4 1892.2,970.0 1917.4,934.2 1945.2,895.0 1975.8,852.3 2009.3,805.7 2045.9,755.2 2085.7,700.5 2128.9,641.4  A 1064.250,1064.250 0.00 0,0 2125.0,638.6 L 2125.0,638.6 2082.1,697.9 2042.5,752.8 2006.1,803.4 1972.8,850.1 1942.4,893.0 1914.8,932.3 1889.8,968.2 1867.3,1000.8 1847.2,1030.3 1829.4,1056.7 1813.9,1080.4 1800.4,1101.3 1789.1,1119.5 1779.7,1135.2 1772.3,1148.4 1766.8,1159.2 1763.1,1167.6 1761.4,1173.7 1761.5,1177.6 1763.4,1179.1 1767.2,1178.5 1772.8,1175.5 1780.3,1170.3 1789.8,1162.7 1801.3,1152.8 1814.7,1140.5 1830.3,1125.7 1848.1,1108.3 1868.1,1088.3 1890.5,1065.6 1915.3,1040.0 1942.7,1011.4 1972.9,979.7 2005.8,944.7 2041.7,906.3 2080.8,864.3 2123.1,818.6 2169.0,768.8 2218.4,714.8  Z" style="stroke-width: 2.0;  stroke: rgb(82,82,82); fill: rgb(255,0,204); opacity: 0.667;" />
<path d="M 2374.816,893.927 A 1064.250,1064.250 0.00 0,1 2377.5,897.8 L 2377.5,897.8 2316.7,938.8 2259.4,975.9 2205.5,1009.2 2154.9,1039.1 2107.2,1065.6 2062.4,1089.0 2020.2,1109.5 1980.6,1127.1 1943.3,1142.1 1908.2,1154.5 1875.1,1164.5 1843.9,1172.2 1814.5,1177.6 1786.7,1180.8 1760.4,1181.8 1735.6,1180.8 1712.0,1177.7 1689.7,1172.4 1668.5,1165.1 1648.3,1155.7 1629.1,1144.2 1610.7,1130.4 1593.2,1114.4 1576.4,1096.0 1560.4,1075.2 1545.0,1051.9 1530.2,1025.9 1516.0,997.1 1502.4,965.3 1489.4,930.4 1476.9,892.2 1464.9,850.4 1453.5,805.0 1442.7,755.6 1432.4,702.1 1422.7,644.1 1413.6,581.4 1405.2,513.7 1397.5,440.7  A 1064.250,1064.250 0.00 0,0 1393.2,441.1 L 1393.2,441.1 1401.2,514.1 1409.9,581.7 1419.2,644.4 1429.1,702.3 1439.6,755.9 1450.7,805.2 1462.3,850.6 1474.4,892.2 1487.1,930.4 1500.2,965.3 1514.0,997.0 1528.3,1025.7 1543.1,1051.7 1558.6,1075.0 1574.8,1095.7 1591.6,1114.0 1609.2,1129.9 1627.6,1143.6 1646.9,1155.1 1667.1,1164.4 1688.3,1171.6 1710.7,1176.7 1734.2,1179.8 1759.0,1180.7 1785.3,1179.5 1813.0,1176.2 1842.4,1170.7 1873.6,1162.9 1906.6,1152.7 1941.7,1140.1 1978.9,1125.0 2018.5,1107.2 2060.6,1086.5 2105.3,1062.9 2152.8,1036.2 2203.3,1006.1 2257.0,972.5 2314.1,935.2 2374.8,893.9  Z" style="stroke-width: 2.0;  stroke: rgb(82,82,82); fill: rgb(255,204,204); opacity: 0.667;" />
<path d="M 2374.816,893.927 A 1064.250,1064.250 0.00 0,1 2377.5,897.8 L 2377.5,897.8 2316.9,940.9 2260.3,983.9 2207.2,1026.6 2157.5,1068.9 2110.7,1110.7 2066.6,1151.8 2024.7,1192.2 1984.9,1231.7 1946.9,1270.2 1910.3,1307.8 1875.0,1344.4 1840.6,1379.8 1807.0,1414.3 1774.0,1447.6 1741.3,1479.9 1708.7,1511.1 1676.1,1541.4 1643.2,1570.7 1610.0,1599.3 1576.3,1627.0 1542.0,1654.1 1506.9,1680.7 1470.9,1706.9 1434.0,1732.9 1396.1,1758.9 1357.0,1784.9 1316.8,1811.3 1275.4,1838.2 1232.7,1865.9 1188.8,1894.6 1143.7,1924.5 1097.3,1956.0 1049.7,1989.3 1000.9,2024.8 950.9,2062.7 899.8,2103.4 847.7,2147.3 794.7,2194.6 740.8,2245.9  A 1064.250,1064.250 0.00 0,0 744.3,2249.3 L 744.3,2249.3 797.9,2197.8 850.7,2150.2 902.6,2106.2 953.5,2065.2 1003.3,2027.1 1051.9,1991.4 1099.4,1957.9 1145.7,1926.1 1190.7,1896.0 1234.4,1867.1 1276.9,1839.2 1318.2,1812.1 1358.3,1785.6 1397.2,1759.4 1435.1,1733.3 1471.9,1707.1 1507.7,1680.7 1542.7,1654.0 1576.9,1626.7 1610.5,1598.8 1643.6,1570.1 1676.3,1540.6 1708.7,1510.2 1741.2,1478.8 1773.8,1446.4 1806.7,1412.9 1840.1,1378.3 1874.3,1342.7 1909.5,1306.0 1945.9,1268.2 1983.7,1229.5 2023.3,1189.8 2065.0,1149.3 2109.0,1108.0 2155.6,1066.0 2205.1,1023.4 2257.9,980.5 2314.4,937.3 2374.8,893.9  Z" style="stroke-width: 2.0;  stroke: rgb(82,82,82); fill: rgb(255,153,0); opacity: 0.667;" />
<path d="M 2374.816,893.927 A 1064.250,1064.250 0.00 0,1 2377.5,897.8 L 2377.5,897.8 2317.0,939.1 2260.9,976.9 2208.8,1011.4 2160.6,1042.8 2116.2,1071.2 2075.2,1096.8 2037.6,1119.7 2003.2,1140.0 1971.7,1157.8 1943.2,1173.2 1917.4,1186.4 1894.2,1197.3 1873.6,1206.2 1855.3,1212.9 1839.5,1217.5 1825.8,1220.2 1814.4,1220.9 1805.1,1219.5 1797.9,1216.2 1792.8,1211.0 1789.7,1203.7 1788.7,1194.3 1789.7,1182.9 1792.8,1169.4 1797.9,1153.7 1805.2,1135.6 1814.6,1115.3 1826.3,1092.5 1840.3,1067.1 1856.6,1039.0 1875.4,1008.2 1896.7,974.4 1920.7,937.5 1947.6,897.3 1977.3,853.7 2010.2,806.6 2046.3,755.6 2085.8,700.6 2128.9,641.4  A 1064.250,1064.250 0.00 0,0 2125.0,638.6 L 2125.0,638.6 2082.2,698.0 2042.9,753.1 2007.0,804.3 1974.4,851.6 1944.8,895.3 1918.2,935.6 1894.3,972.6 1873.1,1006.5 1854.5,1037.4 1838.3,1065.5 1824.5,1091.0 1812.9,1113.9 1803.6,1134.3 1796.4,1152.3 1791.3,1168.1 1788.3,1181.6 1787.3,1193.1 1788.4,1202.4 1791.5,1209.7 1796.6,1214.9 1803.8,1218.2 1813.1,1219.4 1824.6,1218.7 1838.2,1216.0 1854.1,1211.3 1872.3,1204.5 1892.9,1195.6 1916.0,1184.5 1941.7,1171.3 1970.2,1155.7 2001.5,1137.7 2035.9,1117.3 2073.4,1094.2 2114.2,1068.4 2158.6,1039.8 2206.6,1008.2 2258.5,973.5 2314.5,935.5 2374.8,893.9  Z" style="stroke-width: 2.0;  stroke: rgb(82,82,82); fill: rgb(255,204,0); opacity: 0.667;" />
<path d="M 2374.816,893.927 A 1064.250,1064.250 0.00 0,1 2377.5,897.8 L 2377.5,897.8 2317.1,939.1 2261.0,977.1 2209.2,1011.8 2161.4,1043.6 2117.3,1072.4 2076.9,1098.5 2039.8,1121.9 2006.1,1142.9 1975.4,1161.4 1947.7,1177.7 1922.8,1191.7 1900.7,1203.6 1881.1,1213.4 1864.1,1221.1 1849.6,1227.0 1837.4,1230.8 1827.5,1232.8 1819.8,1232.9 1814.4,1231.1 1811.2,1227.4 1810.2,1221.7 1811.4,1214.2 1814.7,1204.7 1820.3,1193.2 1828.1,1179.6 1838.3,1163.9 1850.8,1145.9 1865.7,1125.7 1883.2,1103.1 1903.2,1078.0 1925.9,1050.3 1951.5,1019.9 1980.0,986.6 2011.6,950.3 2046.5,910.8 2084.7,868.0 2126.5,821.7 2172.1,771.7 2221.7,717.8  A 1064.250,1064.250 0.00 0,0 2218.4,714.8 L 2218.4,714.8 2169.1,768.9 2123.7,819.1 2082.1,865.6 2044.0,908.6 2009.4,948.2 1977.9,984.6 1949.5,1018.0 1924.1,1048.6 1901.4,1076.4 1881.5,1101.5 1864.2,1124.2 1849.3,1144.5 1836.9,1162.4 1826.8,1178.2 1819.0,1191.8 1813.5,1203.4 1810.1,1212.9 1809.0,1220.4 1810.0,1226.0 1813.3,1229.7 1818.7,1231.5 1826.3,1231.4 1836.2,1229.4 1848.4,1225.4 1862.9,1219.5 1879.9,1211.7 1899.4,1201.8 1921.5,1189.8 1946.3,1175.7 1973.9,1159.3 2004.5,1140.6 2038.1,1119.5 2075.1,1095.9 2115.4,1069.6 2159.3,1040.6 2207.0,1008.7 2258.7,973.7 2314.6,935.5 2374.8,893.9  Z" style="stroke-width: 2.0;  stroke: rgb(82,82,82); fill: rgb(255,255,0); opacity: 0.667;" />
<path d="M 2409.418,947.200 A 1064.250,1064.250 0.00 0,1 2411.7,950.9 L 2411.7,950.9 2348.4,988.2 2289.0,1021.7 2233.1,1051.8 2180.5,1078.5 2131.1,1102.0 2084.6,1122.6 2040.9,1140.4 1999.9,1155.6 1961.2,1168.2 1924.8,1178.4 1890.6,1186.4 1858.3,1192.1 1827.8,1195.7 1799.1,1197.2 1771.9,1196.6 1746.2,1194.1 1721.9,1189.6 1698.7,1183.1 1676.8,1174.6 1655.9,1164.1 1636.0,1151.5 1617.0,1136.8 1598.9,1120.0 1581.5,1100.8 1564.9,1079.3 1549.0,1055.4 1533.7,1028.8 1519.0,999.5 1505.0,967.2 1491.5,931.9 1478.6,893.4 1466.3,851.3 1454.6,805.7 1443.4,756.1 1432.9,702.3 1423.0,644.2 1413.8,581.4 1405.3,513.7 1397.5,440.7  A 1064.250,1064.250 0.00 0,0 1393.2,441.1 L 1393.2,441.1 1401.2,514.1 1410.0,581.8 1419.5,644.5 1429.6,702.6 1440.4,756.3 1451.7,805.8 1463.6,851.5 1476.1,893.4 1489.2,932.0 1502.8,967.2 1517.0,999.4 1531.8,1028.7 1547.2,1055.2 1563.2,1079.1 1579.9,1100.5 1597.3,1119.6 1615.5,1136.4 1634.6,1151.0 1654.5,1163.5 1675.5,1173.9 1697.5,1182.3 1720.6,1188.7 1745.0,1193.1 1770.7,1195.5 1797.9,1195.9 1826.6,1194.3 1857.0,1190.6 1889.3,1184.8 1923.5,1176.7 1959.9,1166.4 1998.5,1153.6 2039.5,1138.2 2083.1,1120.3 2129.5,1099.5 2178.8,1075.7 2231.2,1048.8 2287.0,1018.6 2346.4,984.8 2409.4,947.2  Z" style="stroke-width: 2.0;  stroke: rgb(82,82,82); fill: rgb(204,255,0); opacity: 0.667;" />
<path d="M 2409.418,947.200 A 1064.250,1064.250 0.00 0,1 2411.7,950.9 L 2411.7,950.9 2348.6,990.3 2289.6,1029.8 2234.3,1069.2 2182.3,1108.4 2133.4,1147.2 2087.2,1185.6 2043.3,1223.4 2001.6,1260.4 1961.8,1296.7 1923.5,1332.1 1886.5,1366.6 1850.7,1400.2 1815.7,1432.9 1781.3,1464.5 1747.4,1495.2 1713.7,1525.0 1680.0,1554.0 1646.3,1582.0 1612.3,1609.4 1577.9,1636.0 1543.0,1662.2 1507.3,1687.8 1471.0,1713.2 1433.7,1738.4 1395.5,1763.6 1356.2,1788.9 1315.9,1814.7 1274.4,1841.0 1231.8,1868.2 1187.9,1896.5 1142.9,1926.0 1096.6,1957.1 1049.1,1990.2 1000.4,2025.4 950.6,2063.1 899.6,2103.6 847.6,2147.4 794.7,2194.6 740.8,2245.9  A 1064.250,1064.250 0.00 0,0 744.3,2249.3 L 744.3,2249.3 797.9,2197.9 850.6,2150.3 902.4,2106.4 953.1,2065.6 1002.8,2027.7 1051.3,1992.2 1098.7,1959.0 1144.8,1927.6 1189.7,1897.9 1233.5,1869.5 1276.0,1842.1 1317.3,1815.6 1357.6,1789.6 1396.7,1764.1 1434.8,1738.7 1471.9,1713.4 1508.2,1687.8 1543.7,1662.0 1578.5,1635.8 1612.8,1609.0 1646.7,1581.5 1680.3,1553.2 1713.8,1524.2 1747.4,1494.3 1781.2,1463.4 1815.4,1431.6 1850.3,1398.8 1886.0,1365.1 1922.8,1330.4 1961.0,1294.8 2000.7,1258.4 2042.2,1221.2 2085.9,1183.2 2132.0,1144.7 2180.7,1105.6 2232.6,1066.2 2287.7,1026.6 2346.5,986.8 2409.4,947.2  Z" style="stroke-width: 2.0;  stroke: rgb(82,82,82); fill: rgb(0,255,0); opacity: 0.667;" />
<path d="M 2409.418,947.200 A 1064.250,1064.250 0.00 0,1 2411.7,950.9 L 2411.7,950.9 2348.8,988.5 2290.4,1022.8 2236.3,1054.0 2186.2,1082.3 2139.9,1107.8 2097.2,1130.7 2058.0,1151.0 2022.1,1168.9 1989.3,1184.4 1959.4,1197.7 1932.4,1208.9 1908.1,1218.0 1886.3,1225.0 1867.1,1230.1 1850.3,1233.2 1835.7,1234.5 1823.5,1233.8 1813.4,1231.2 1805.4,1226.7 1799.6,1220.4 1795.9,1212.1 1794.2,1201.8 1794.7,1189.5 1797.2,1175.1 1801.8,1158.7 1808.6,1139.9 1817.6,1118.9 1828.8,1095.5 1842.3,1069.6 1858.3,1041.1 1876.7,1009.8 1897.8,975.6 1921.5,938.4 1948.1,898.0 1977.7,854.2 2010.4,806.8 2046.4,755.7 2085.8,700.6 2128.9,641.4  A 1064.250,1064.250 0.00 0,0 2125.0,638.6 L 2125.0,638.6 2082.2,698.0 2043.0,753.2 2007.3,804.5 1974.8,852.0 1945.4,896.0 1919.0,936.5 1895.4,973.8 1874.5,1008.1 1856.2,1039.5 1840.4,1068.1 1827.0,1094.1 1815.9,1117.5 1807.0,1138.6 1800.3,1157.3 1795.7,1173.9 1793.3,1188.2 1792.9,1200.5 1794.6,1210.8 1798.4,1219.1 1804.3,1225.5 1812.2,1229.9 1822.3,1232.4 1834.6,1233.1 1849.1,1231.8 1866.0,1228.6 1885.2,1223.5 1906.9,1216.3 1931.2,1207.1 1958.2,1195.9 1988.0,1182.4 2020.7,1166.7 2056.6,1148.7 2095.7,1128.2 2138.3,1105.2 2184.5,1079.5 2234.5,1051.0 2288.5,1019.6 2346.7,985.0 2409.4,947.2  Z" style="stroke-width: 2.0;  stroke: rgb(82,82,82); fill: rgb(53,128,0); opacity: 0.667;" />
<path d="M 2409.418,947.200 A 1064.250,1064.250 0.00 0,1 2411.7,950.9 L 2411.7,950.9 2348.8,988.5 2290.6,1023.0 2236.7,1054.5 2186.9,1083.1 2141.0,1109.0 2098.8,1132.4 2060.2,1153.3 2024.9,1171.8 1992.8,1188.1 1963.8,1202.2 1937.7,1214.3 1914.4,1224.3 1893.8,1232.4 1875.8,1238.5 1860.2,1242.8 1847.1,1245.2 1836.4,1245.9 1828.0,1244.7 1821.8,1241.7 1817.9,1236.9 1816.2,1230.3 1816.7,1221.8 1819.5,1211.4 1824.6,1199.0 1831.9,1184.7 1841.6,1168.3 1853.6,1149.7 1868.1,1128.9 1885.2,1105.7 1904.9,1080.2 1927.3,1052.0 1952.5,1021.2 1980.8,987.6 2012.2,951.0 2046.8,911.3 2084.9,868.3 2126.6,821.8 2172.1,771.7 2221.7,717.8  A 1064.250,1064.250 0.00 0,0 2218.4,714.8 L 2218.4,714.8 2169.1,769.0 2123.8,819.3 2082.3,865.9 2044.4,909.0 2009.9,948.9 1978.7,985.6 1950.6,1019.4 1925.4,1050.3 1903.1,1078.5 1883.5,1104.2 1866.6,1127.4 1852.2,1148.2 1840.2,1166.9 1830.6,1183.3 1823.3,1197.7 1818.3,1210.1 1815.6,1220.5 1815.1,1229.0 1816.8,1235.6 1820.7,1240.4 1826.9,1243.4 1835.3,1244.5 1846.1,1243.8 1859.2,1241.3 1874.7,1237.0 1892.7,1230.8 1913.3,1222.6 1936.6,1212.5 1962.6,1200.4 1991.6,1186.1 2023.6,1169.7 2058.8,1151.0 2097.3,1130.0 2139.4,1106.5 2185.2,1080.3 2234.9,1051.5 2288.7,1019.8 2346.8,985.1 2409.4,947.2  Z" style="stroke-width: 2.0;  stroke: rgb(82,82,82); fill: rgb(0,0,204); opacity: 0.667;" />
<path d="M 2409.418,947.200 A 1064.250,1064.250 0.00 0,1 2411.7,950.9 L 2411.7,950.9 2348.9,988.6 2290.9,1023.4 2237.4,1055.5 2188.2,1084.8 2143.0,1111.7 2101.7,1136.1 2064.0,1158.3 2029.9,1178.3 1999.1,1196.2 1971.5,1212.1 1947.0,1226.1 1925.4,1238.3 1906.7,1248.6 1890.7,1257.3 1877.4,1264.2 1866.7,1269.5 1858.5,1273.2 1852.9,1275.2 1849.7,1275.7 1849.0,1274.6 1850.8,1272.0 1855.0,1267.7 1861.7,1261.8 1871.0,1254.2 1882.8,1245.0 1897.3,1234.0 1914.5,1221.3 1934.5,1206.7 1957.4,1190.2 1983.3,1171.7 2012.3,1151.1 2044.7,1128.3 2080.5,1103.2 2119.8,1075.7 2163.0,1045.7 2210.2,1013.1 2261.5,977.7 2317.2,939.3 2377.5,897.8  A 1064.250,1064.250 0.00 0,0 2374.8,893.9 L 2374.8,893.9 2314.7,935.6 2259.1,974.3 2208.0,1009.9 2161.0,1042.8 2117.9,1073.0 2078.7,1100.6 2043.0,1125.8 2010.8,1148.8 1981.8,1169.5 1956.0,1188.2 1933.2,1204.8 1913.2,1219.5 1896.1,1232.3 1881.7,1243.3 1869.9,1252.6 1860.7,1260.2 1854.0,1266.2 1849.8,1270.5 1848.1,1273.2 1848.8,1274.3 1851.9,1273.8 1857.6,1271.7 1865.7,1268.0 1876.4,1262.6 1889.7,1255.6 1905.6,1247.0 1924.3,1236.5 1945.8,1224.3 1970.3,1210.2 1997.8,1194.2 2028.6,1176.2 2062.6,1156.0 2100.2,1133.7 2141.4,1109.1 2186.5,1082.0 2235.6,1052.5 2289.0,1020.2 2346.8,985.2 2409.4,947.2  Z" style="stroke-width: 2.0;  stroke: rgb(82,82,82); fill: rgb(102,153,255); opacity: 0.667;" />
<path d="M 2495.638,1124.057 A 1064.250,1064.250 0.00 0,1 2497.4,1128.6 L 2497.4,1128.6 2428.2,1153.6 2363.3,1175.4 2302.4,1194.3 2245.1,1210.5 2191.4,1224.1 2140.9,1235.3 2093.5,1244.3 2048.9,1251.1 2007.1,1255.9 1967.7,1258.7 1930.6,1259.7 1895.7,1258.9 1862.8,1256.4 1831.7,1252.2 1802.3,1246.4 1774.5,1238.9 1748.1,1229.8 1723.1,1219.0 1699.3,1206.5 1676.7,1192.4 1655.1,1176.4 1634.4,1158.6 1614.7,1138.9 1595.8,1117.2 1577.7,1093.3 1560.3,1067.2 1543.7,1038.7 1527.7,1007.7 1512.3,973.9 1497.7,937.2 1483.6,897.5 1470.3,854.5 1457.6,807.9 1445.6,757.6 1434.3,703.3 1423.8,644.8 1414.1,581.7 1405.4,513.7 1397.5,440.7  A 1064.250,1064.250 0.00 0,0 1393.2,441.1 L 1393.2,441.1 1401.3,514.1 1410.4,582.0 1420.3,645.1 1431.0,703.6 1442.5,757.8 1454.7,808.1 1467.6,854.6 1481.2,897.6 1495.4,937.2 1510.2,973.8 1525.6,1007.5 1541.8,1038.5 1558.5,1066.9 1576.0,1093.0 1594.2,1116.8 1613.2,1138.4 1633.0,1158.0 1653.7,1175.7 1675.4,1191.6 1698.1,1205.6 1721.9,1218.0 1747.0,1228.6 1773.3,1237.6 1801.2,1245.0 1830.6,1250.7 1861.7,1254.7 1894.6,1257.1 1929.5,1257.7 1966.6,1256.6 2005.9,1253.5 2047.8,1248.6 2092.3,1241.6 2139.7,1232.4 2190.1,1220.9 2243.8,1207.1 2301.0,1190.6 2361.8,1171.4 2426.6,1149.3 2495.6,1124.1  Z" style="stroke-width: 2.0;  stroke: rgb(82,82,82); fill: rgb(153,204,255); opacity: 0.667;" />
<path d="M 2495.638,1124.057 A 1064.250,1064.250 0.00 0,1 2497.4,1128.6 L 2497.4,1128.6 2428.2,1155.6 2363.3,1183.4 2302.1,1211.8 2244.4,1240.5 2189.9,1269.5 2138.3,1298.6 2089.3,1327.5 2042.6,1356.3 1998.1,1384.8 1955.3,1412.9 1914.1,1440.6 1874.3,1467.7 1835.6,1494.3 1797.8,1520.4 1760.7,1545.8 1724.2,1570.7 1688.0,1595.1 1651.9,1618.9 1615.9,1642.3 1579.7,1665.3 1543.3,1688.0 1506.4,1710.5 1469.0,1733.0 1431.0,1755.6 1392.2,1778.4 1352.6,1801.5 1312.1,1825.3 1270.6,1849.9 1228.1,1875.4 1184.5,1902.2 1139.8,1930.5 1094.0,1960.6 1047.0,1992.7 998.8,2027.1 949.4,2064.2 898.9,2104.2 847.3,2147.6 794.6,2194.7 740.8,2245.9  A 1064.250,1064.250 0.00 0,0 744.3,2249.3 L 744.3,2249.3 797.8,2197.9 850.3,2150.6 901.7,2107.0 952.0,2066.7 1001.2,2029.4 1049.2,1994.7 1096.1,1962.4 1141.8,1932.2 1186.4,1903.7 1229.8,1876.7 1272.2,1850.9 1313.6,1826.2 1354.0,1802.2 1393.5,1778.9 1432.1,1755.9 1470.1,1733.2 1507.4,1710.5 1544.1,1687.8 1580.5,1664.9 1616.5,1641.7 1652.5,1618.2 1688.4,1594.2 1724.5,1569.7 1760.9,1544.6 1797.9,1519.0 1835.6,1492.8 1874.1,1466.0 1913.8,1438.7 1954.9,1410.8 1997.5,1382.5 2042.0,1353.8 2088.5,1324.8 2137.3,1295.6 2188.8,1266.3 2243.2,1237.1 2300.7,1208.1 2361.8,1179.5 2426.6,1151.4 2495.6,1124.1  Z" style="stroke-width: 2.0;  stroke: rgb(82,82,82); fill: rgb(0,255,255); opacity: 0.667;" />
<path d="M 2495.638,1124.057 A 1064.250,1064.250 0.00 0,1 2497.4,1128.6 L 2497.4,1128.6 2428.6,1153.9 2364.7,1176.5 2305.4,1196.8 2250.4,1214.8 2199.7,1230.5 2152.8,1244.2 2109.7,1255.9 2070.1,1265.7 2033.8,1273.6 2000.7,1279.8 1970.7,1284.3 1943.6,1287.1 1919.2,1288.3 1897.5,1287.8 1878.3,1285.8 1861.6,1282.2 1847.2,1277.0 1835.2,1270.2 1825.4,1261.8 1817.8,1251.8 1812.4,1240.1 1809.1,1226.6 1808.0,1211.4 1809.1,1194.3 1812.4,1175.3 1817.9,1154.3 1825.6,1131.1 1835.7,1105.8 1848.2,1078.1 1863.1,1048.0 1880.7,1015.3 1900.9,979.8 1923.9,941.5 1949.8,900.1 1978.8,855.6 2011.0,807.6 2046.7,756.1 2085.9,700.7 2128.9,641.4  A 1064.250,1064.250 0.00 0,0 2125.0,638.6 L 2125.0,638.6 2082.3,698.1 2043.3,753.6 2007.9,805.3 1975.9,853.4 1947.1,898.1 1921.3,939.6 1898.5,978.0 1878.5,1013.6 1861.1,1046.3 1846.3,1076.5 1833.9,1104.3 1824.0,1129.7 1816.3,1152.8 1810.9,1173.9 1807.7,1192.9 1806.7,1210.0 1807.9,1225.2 1811.2,1238.6 1816.6,1250.3 1824.3,1260.3 1834.1,1268.7 1846.2,1275.4 1860.6,1280.5 1877.3,1284.1 1896.5,1286.0 1918.2,1286.3 1942.6,1285.1 1969.7,1282.1 1999.7,1277.5 2032.8,1271.2 2069.0,1263.1 2108.5,1253.1 2151.6,1241.2 2198.4,1227.3 2249.1,1211.3 2304.0,1193.1 2363.2,1172.6 2427.0,1149.6 2495.6,1124.1  Z" style="stroke-width: 2.0;  stroke: rgb(82,82,82); fill: rgb(204,255,255); opacity: 0.667;" />
<path d="M 2495.638,1124.057 A 1064.250,1064.250 0.00 0,1 2497.4,1128.6 L 2497.4,1128.6 2428.6,1153.9 2364.8,1176.8 2305.7,1197.3 2251.1,1215.6 2200.7,1231.8 2154.3,1246.0 2111.7,1258.4 2072.7,1268.8 2037.1,1277.5 2004.9,1284.6 1975.7,1289.9 1949.6,1293.7 1926.3,1295.9 1905.7,1296.5 1887.8,1295.7 1872.5,1293.3 1859.7,1289.4 1849.2,1284.1 1841.2,1277.2 1835.5,1268.7 1832.2,1258.7 1831.2,1247.0 1832.4,1233.6 1836.1,1218.6 1842.1,1201.7 1850.5,1182.9 1861.3,1162.2 1874.7,1139.4 1890.7,1114.5 1909.4,1087.3 1931.0,1057.7 1955.4,1025.6 1983.0,990.8 2013.7,953.2 2047.9,912.7 2085.5,869.1 2126.9,822.2 2172.2,771.8 2221.7,717.8  A 1064.250,1064.250 0.00 0,0 2218.4,714.8 L 2218.4,714.8 2169.2,769.1 2124.1,819.6 2082.9,866.7 2045.4,910.5 2011.5,951.1 1980.9,988.8 1953.5,1023.7 1929.1,1055.9 1907.7,1085.6 1889.1,1112.8 1873.2,1137.8 1859.9,1160.7 1849.1,1181.4 1840.8,1200.2 1834.9,1217.1 1831.3,1232.2 1830.1,1245.6 1831.2,1257.2 1834.5,1267.2 1840.3,1275.7 1848.3,1282.5 1858.7,1287.9 1871.6,1291.7 1886.9,1293.9 1904.8,1294.7 1925.3,1294.0 1948.6,1291.6 1974.8,1287.8 2003.9,1282.2 2036.1,1275.1 2071.6,1266.2 2110.6,1255.6 2153.1,1243.0 2199.4,1228.6 2249.8,1212.2 2304.3,1193.6 2363.3,1172.8 2427.0,1149.7 2495.6,1124.1  Z" style="stroke-width: 2.0;  stroke: rgb(82,82,82); fill: rgb(153,0,204); opacity: 0.667;" />
<path d="M 2495.638,1124.057 A 1064.250,1064.250 0.00 0,1 2497.4,1128.6 L 2497.4,1128.6 2428.7,1154.0 2365.1,1177.2 2306.4,1198.3 2252.2,1217.4 2202.5,1234.6 2156.8,1250.0 2115.1,1263.6 2077.2,1275.6 2042.8,1286.0 2011.9,1294.8 1984.3,1302.2 1959.8,1308.2 1938.3,1312.7 1919.8,1315.9 1904.0,1317.7 1891.1,1318.2 1880.8,1317.4 1873.1,1315.3 1868.1,1311.9 1865.6,1307.1 1865.7,1301.0 1868.4,1293.6 1873.7,1284.7 1881.5,1274.4 1892.1,1262.6 1905.4,1249.2 1921.4,1234.3 1940.4,1217.7 1962.3,1199.3 1987.3,1179.1 2015.6,1157.0 2047.2,1132.8 2082.4,1106.6 2121.2,1078.1 2163.9,1047.3 2210.7,1014.0 2261.7,978.0 2317.2,939.4 2377.5,897.8  A 1064.250,1064.250 0.00 0,0 2374.8,893.9 L 2374.8,893.9 2314.7,935.7 2259.4,974.6 2208.5,1010.8 2161.9,1044.3 2119.3,1075.3 2080.6,1104.0 2045.6,1130.4 2014.1,1154.7 1985.9,1176.9 1961.0,1197.2 1939.1,1215.7 1920.2,1232.4 1904.2,1247.4 1891.0,1260.8 1880.5,1272.7 1872.7,1283.0 1867.5,1291.9 1864.8,1299.4 1864.8,1305.5 1867.2,1310.2 1872.3,1313.6 1880.0,1315.7 1890.2,1316.4 1903.2,1315.9 1918.9,1314.0 1937.4,1310.7 1958.9,1306.1 1983.4,1300.0 2011.0,1292.5 2041.9,1283.5 2076.2,1273.0 2114.0,1260.8 2155.7,1247.0 2201.2,1231.4 2250.9,1214.0 2305.0,1194.6 2363.6,1173.3 2427.1,1149.8 2495.6,1124.1  Z" style="stroke-width: 2.0;  stroke: rgb(82,82,82); fill: rgb(204,51,255); opacity: 0.667;" />
<path d="M 2495.638,1124.057 A 1064.250,1064.250 0.00 0,1 2497.4,1128.6 L 2497.4,1128.6 2428.7,1154.1 2365.2,1177.4 2306.5,1198.6 2252.5,1217.9 2202.9,1235.4 2157.4,1251.1 2115.9,1265.1 2078.2,1277.5 2044.1,1288.4 2013.5,1297.7 1986.2,1305.7 1962.1,1312.3 1941.0,1317.5 1922.9,1321.4 1907.7,1324.0 1895.2,1325.3 1885.5,1325.4 1878.5,1324.3 1874.1,1321.9 1872.3,1318.2 1873.2,1313.3 1876.6,1307.1 1882.8,1299.5 1891.6,1290.6 1903.1,1280.3 1917.5,1268.6 1934.7,1255.4 1954.8,1240.6 1978.0,1224.2 2004.4,1206.0 2034.2,1186.1 2067.3,1164.4 2104.1,1140.6 2144.7,1114.8 2189.3,1086.9 2238.1,1056.6 2291.2,1024.0 2349.0,988.8 2411.7,950.9  A 1064.250,1064.250 0.00 0,0 2409.4,947.2 L 2409.4,947.2 2346.9,985.3 2289.3,1020.8 2236.3,1053.6 2187.6,1084.1 2143.2,1112.2 2102.7,1138.2 2066.0,1162.1 2032.9,1184.0 2003.2,1204.0 1976.9,1222.2 1953.7,1238.7 1933.6,1253.6 1916.5,1266.9 1902.2,1278.6 1890.7,1289.0 1881.9,1297.9 1875.8,1305.5 1872.4,1311.7 1871.5,1316.6 1873.3,1320.3 1877.7,1322.6 1884.7,1323.7 1894.5,1323.6 1906.9,1322.2 1922.1,1319.5 1940.2,1315.5 1961.2,1310.2 1985.3,1303.5 2012.6,1295.4 2043.2,1285.9 2077.2,1274.9 2114.8,1262.3 2156.2,1248.1 2201.6,1232.2 2251.2,1214.5 2305.1,1194.9 2363.7,1173.4 2427.1,1149.8 2495.6,1124.1  Z" style="stroke-width: 2.0;  stroke: rgb(82,82,82); fill: rgb(204,153,255); opacity: 0.667;" />
<path d="M 2499.013,1133.120 A 1064.250,1064.250 0.00 0,1 2500.5,1137.3 L 2500.5,1137.3 2431.2,1161.6 2366.1,1182.8 2304.9,1201.2 2247.5,1216.9 2193.6,1230.0 2143.0,1240.8 2095.4,1249.3 2050.8,1255.7 2008.8,1260.1 1969.3,1262.6 1932.1,1263.3 1897.1,1262.2 1864.1,1259.3 1832.9,1254.9 1803.5,1248.8 1775.6,1241.1 1749.2,1231.7 1724.1,1220.7 1700.2,1208.1 1677.5,1193.7 1655.9,1177.6 1635.2,1159.7 1615.4,1139.9 1596.4,1118.0 1578.2,1094.0 1560.8,1067.8 1544.1,1039.2 1528.0,1008.1 1512.7,974.2 1497.9,937.5 1483.9,897.7 1470.4,854.6 1457.7,808.0 1445.7,757.7 1434.4,703.4 1423.8,644.8 1414.2,581.7 1405.4,513.7 1397.5,440.7  A 1064.250,1064.250 0.00 0,0 1393.2,441.1 L 1393.2,441.1 1401.3,514.1 1410.4,582.0 1420.4,645.1 1431.1,703.6 1442.6,757.9 1454.9,808.2 1467.8,854.7 1481.4,897.8 1495.6,937.5 1510.5,974.2 1526.0,1008.0 1542.2,1039.0 1559.0,1067.6 1576.6,1093.7 1594.8,1117.6 1613.9,1139.4 1633.8,1159.2 1654.5,1177.0 1676.3,1193.0 1699.0,1207.3 1722.9,1219.8 1748.1,1230.7 1774.5,1239.9 1802.4,1247.5 1831.9,1253.5 1863.1,1257.8 1896.1,1260.5 1931.2,1261.5 1968.3,1260.7 2007.8,1258.0 2049.8,1253.4 2094.4,1246.9 2141.9,1238.1 2192.5,1227.2 2246.3,1213.8 2303.7,1197.9 2364.8,1179.3 2429.8,1157.7 2499.0,1133.1  Z" style="stroke-width: 2.0;  stroke: rgb(82,82,82); fill: rgb(102,102,102); opacity: 0.667;" />
<path d="M 2499.013,1133.120 A 1064.250,1064.250 0.00 0,1 2500.5,1137.3 L 2500.5,1137.3 2431.2,1163.7 2366.0,1190.9 2304.6,1218.7 2246.7,1246.9 2192.0,1275.4 2140.1,1304.0 2091.0,1332.6 2044.1,1361.0 1999.3,1389.1 1956.4,1416.8 1915.1,1444.2 1875.1,1471.0 1836.3,1497.3 1798.3,1523.1 1761.1,1548.3 1724.5,1572.9 1688.2,1597.0 1652.0,1620.6 1615.9,1643.8 1579.7,1666.7 1543.2,1689.2 1506.3,1711.6 1468.8,1734.0 1430.8,1756.4 1392.0,1779.1 1352.4,1802.1 1311.9,1825.8 1270.4,1850.3 1227.9,1875.8 1184.3,1902.5 1139.7,1930.7 1093.8,1960.7 1046.8,1992.8 998.7,2027.2 949.4,2064.2 898.9,2104.3 847.3,2147.6 794.6,2194.7 740.8,2245.9  A 1064.250,1064.250 0.00 0,0 744.3,2249.3 L 744.3,2249.3 797.8,2197.9 850.3,2150.6 901.7,2107.0 952.0,2066.7 1001.1,2029.5 1049.1,1994.9 1095.9,1962.6 1141.6,1932.4 1186.2,1904.0 1229.6,1877.0 1272.0,1851.4 1313.4,1826.7 1353.8,1802.8 1393.3,1779.6 1432.0,1756.7 1469.9,1734.1 1507.2,1711.6 1544.0,1689.1 1580.5,1666.4 1616.6,1643.4 1652.6,1620.0 1688.6,1596.3 1724.8,1572.0 1761.4,1547.2 1798.5,1521.8 1836.3,1495.9 1875.0,1469.4 1914.9,1442.4 1956.1,1414.9 1998.9,1387.0 2043.5,1358.7 2090.3,1330.1 2139.3,1301.4 2191.0,1272.6 2245.6,1243.8 2303.4,1215.4 2364.7,1187.3 2429.8,1159.8 2499.0,1133.1  Z" style="stroke-width: 2.0;  stroke: rgb(82,82,82); fill: rgb(153,153,153); opacity: 0.667;" />
<path d="M 2499.013,1133.120 A 1064.250,1064.250 0.00 0,1 2500.5,1137.3 L 2500.5,1137.3 2431.5,1161.9 2367.4,1184.0 2307.9,1203.7 2252.8,1221.2 2201.9,1236.5 2154.9,1249.7 2111.6,1261.0 2071.9,1270.4 2035.5,1278.0 2002.3,1283.8 1972.2,1287.9 1944.9,1290.4 1920.5,1291.3 1898.6,1290.6 1879.4,1288.3 1862.6,1284.5 1848.1,1279.1 1836.0,1272.1 1826.1,1263.5 1818.5,1253.3 1813.0,1241.4 1809.7,1227.8 1808.6,1212.5 1809.6,1195.2 1812.8,1176.1 1818.3,1155.0 1826.0,1131.7 1836.0,1106.3 1848.4,1078.5 1863.3,1048.3 1880.8,1015.5 1901.0,980.0 1924.0,941.7 1949.9,900.2 1978.8,855.6 2011.0,807.6 2046.7,756.1 2085.9,700.7 2128.9,641.4  A 1064.250,1064.250 0.00 0,0 2125.0,638.6 L 2125.0,638.6 2082.3,698.1 2043.3,753.6 2007.9,805.3 1975.9,853.5 1947.1,898.2 1921.4,939.8 1898.6,978.2 1878.6,1013.8 1861.3,1046.7 1846.5,1077.0 1834.2,1104.8 1824.3,1130.3 1816.7,1153.6 1811.4,1174.7 1808.2,1193.9 1807.3,1211.1 1808.5,1226.5 1811.9,1240.1 1817.4,1251.9 1825.1,1262.1 1835.0,1270.7 1847.2,1277.6 1861.6,1283.0 1878.5,1286.7 1897.7,1288.9 1919.6,1289.6 1944.0,1288.6 1971.3,1286.0 2001.4,1281.7 2034.5,1275.7 2070.9,1268.0 2110.6,1258.5 2153.8,1247.0 2200.8,1233.6 2251.7,1218.1 2306.7,1200.4 2366.1,1180.4 2430.1,1158.0 2499.0,1133.1  Z" style="stroke-width: 2.0;  stroke: rgb(82,82,82); fill: rgb(204,204,204); opacity: 0.667;" />
<path d="M 2499.013,1133.120 A 1064.250,1064.250 0.00 0,1 2500.5,1137.3 L 2500.5,1137.3 2431.6,1161.9 2367.6,1184.2 2308.3,1204.2 2253.5,1222.0 2202.9,1237.8 2156.3,1251.6 2113.6,1263.5 2074.5,1273.5 2038.8,1281.9 2006.4,1288.5 1977.1,1293.6 1950.9,1297.0 1927.5,1299.0 1906.9,1299.3 1888.9,1298.2 1873.5,1295.6 1860.6,1291.6 1850.1,1286.0 1842.0,1278.9 1836.2,1270.2 1832.8,1260.0 1831.7,1248.2 1833.0,1234.7 1836.5,1219.5 1842.5,1202.5 1850.8,1183.6 1861.6,1162.8 1875.0,1139.9 1891.0,1114.9 1909.6,1087.6 1931.1,1057.9 1955.6,1025.8 1983.1,991.0 2013.8,953.3 2047.9,912.8 2085.5,869.1 2126.9,822.2 2172.2,771.8 2221.7,717.8  A 1064.250,1064.250 0.00 0,0 2218.4,714.8 L 2218.4,714.8 2169.2,769.1 2124.1,819.6 2082.9,866.7 2045.5,910.5 2011.5,951.2 1981.0,989.0 1953.6,1023.9 1929.3,1056.2 1907.9,1085.9 1889.4,1113.3 1873.5,1138.4 1860.2,1161.3 1849.5,1182.2 1841.2,1201.1 1835.4,1218.1 1831.9,1233.3 1830.7,1246.8 1831.8,1258.7 1835.3,1268.8 1841.1,1277.5 1849.2,1284.5 1859.7,1290.1 1872.6,1294.1 1888.0,1296.6 1906.0,1297.7 1926.7,1297.2 1950.0,1295.2 1976.3,1291.6 2005.5,1286.4 2037.9,1279.6 2073.5,1271.2 2112.6,1260.9 2155.3,1248.8 2201.8,1234.9 2252.3,1218.9 2307.1,1200.9 2366.3,1180.6 2430.2,1158.1 2499.0,1133.1  Z" style="stroke-width: 2.0;  stroke: rgb(82,82,82); fill: rgb(204,204,153); opacity: 0.667;" />
<path d="M 2499.013,1133.120 A 1064.250,1064.250 0.00 0,1 2500.5,1137.3 L 2500.5,1137.3 2431.6,1162.1 2367.9,1184.7 2308.9,1205.3 2254.6,1223.9 2204.7,1240.6 2158.9,1255.5 2117.0,1268.7 2079.0,1280.3 2044.5,1290.3 2013.4,1298.9 1985.7,1305.9 1961.1,1311.5 1939.5,1315.8 1920.9,1318.7 1905.1,1320.3 1892.0,1320.6 1881.6,1319.6 1873.9,1317.2 1868.8,1313.6 1866.3,1308.7 1866.3,1302.4 1868.9,1294.8 1874.1,1285.8 1882.0,1275.4 1892.5,1263.4 1905.7,1250.0 1921.7,1234.9 1940.6,1218.2 1962.5,1199.7 1987.5,1179.5 2015.7,1157.3 2047.3,1133.1 2082.4,1106.7 2121.2,1078.2 2163.9,1047.3 2210.7,1014.0 2261.7,978.1 2317.2,939.4 2377.5,897.8  A 1064.250,1064.250 0.00 0,0 2374.8,893.9 L 2374.8,893.9 2314.7,935.7 2259.4,974.7 2208.5,1010.8 2161.9,1044.4 2119.4,1075.4 2080.7,1104.2 2045.7,1130.6 2014.2,1155.0 1986.1,1177.3 1961.2,1197.7 1939.4,1216.2 1920.5,1233.1 1904.6,1248.2 1891.4,1261.7 1881.0,1273.7 1873.2,1284.2 1868.0,1293.2 1865.5,1300.9 1865.4,1307.1 1868.0,1312.0 1873.1,1315.6 1880.9,1317.9 1891.2,1318.9 1904.3,1318.6 1920.1,1316.9 1938.7,1314.0 1960.3,1309.6 1984.9,1303.9 2012.6,1296.7 2043.6,1288.1 2078.0,1277.9 2116.1,1266.2 2157.8,1252.8 2203.6,1237.6 2253.5,1220.7 2307.7,1201.9 2366.6,1181.1 2430.2,1158.2 2499.0,1133.1  Z" style="stroke-width: 2.0;  stroke: rgb(82,82,82); fill: rgb(251,106,74); opacity: 0.667;" />
<path d="M 2499.013,1133.120 A 1064.250,1064.250 0.00 0,1 2500.5,1137.3 L 2500.5,1137.3 2431.7,1162.1 2367.9,1184.8 2309.1,1205.5 2254.9,1224.4 2205.1,1241.3 2159.4,1256.6 2117.8,1270.2 2080.0,1282.2 2045.8,1292.7 2015.0,1301.8 1987.6,1309.4 1963.4,1315.6 1942.2,1320.6 1924.0,1324.2 1908.7,1326.6 1896.1,1327.7 1886.3,1327.6 1879.2,1326.2 1874.8,1323.6 1872.9,1319.8 1873.7,1314.7 1877.2,1308.3 1883.2,1300.6 1892.0,1291.6 1903.5,1281.2 1917.8,1269.3 1934.9,1256.0 1955.0,1241.1 1978.2,1224.6 2004.6,1206.4 2034.3,1186.4 2067.4,1164.6 2104.2,1140.8 2144.8,1115.0 2189.3,1087.0 2238.1,1056.7 2291.2,1024.0 2349.0,988.8 2411.7,950.9  A 1064.250,1064.250 0.00 0,0 2409.4,947.2 L 2409.4,947.2 2346.9,985.3 2289.3,1020.8 2236.3,1053.7 2187.7,1084.2 2143.2,1112.4 2102.8,1138.4 2066.1,1162.3 2033.0,1184.3 2003.4,1204.4 1977.1,1222.7 1954.0,1239.3 1933.9,1254.2 1916.8,1267.6 1902.6,1279.5 1891.1,1290.0 1882.4,1299.1 1876.4,1306.8 1873.0,1313.2 1872.2,1318.3 1874.1,1322.1 1878.5,1324.7 1885.6,1326.0 1895.4,1326.1 1908.0,1324.9 1923.3,1322.5 1941.5,1318.8 1962.6,1313.7 1986.8,1307.4 2014.2,1299.6 2044.9,1290.5 2079.1,1279.8 2116.8,1267.6 2158.4,1253.9 2204.0,1238.4 2253.7,1221.2 2307.9,1202.2 2366.6,1181.2 2430.3,1158.2 2499.0,1133.1  Z" style="stroke-width: 2.0;  stroke: rgb(82,82,82); fill: rgb(116,196,118); opacity: 0.667;" />
<path d="M 2499.013,1133.120 A 1064.250,1064.250 0.00 0,1 2500.5,1137.3 L 2500.5,1137.3 2431.7,1162.2 2368.1,1185.2 2309.5,1206.5 2255.6,1226.0 2206.1,1243.9 2161.0,1260.2 2119.9,1275.0 2082.7,1288.4 2049.2,1300.5 2019.2,1311.2 1992.7,1320.8 1969.4,1329.1 1949.3,1336.3 1932.2,1342.3 1918.1,1347.3 1906.9,1351.2 1898.5,1354.1 1892.9,1355.9 1890.1,1356.8 1890.1,1356.6 1892.7,1355.4 1898.2,1353.2 1906.4,1350.0 1917.5,1345.7 1931.5,1340.3 1948.4,1333.9 1968.4,1326.3 1991.5,1317.6 2017.9,1307.7 2047.7,1296.5 2081.1,1284.0 2118.1,1270.1 2159.0,1254.8 2204.0,1238.0 2253.2,1219.6 2307.0,1199.6 2365.4,1177.8 2428.8,1154.2 2497.4,1128.6  A 1064.250,1064.250 0.00 0,0 2495.6,1124.1 L 2495.6,1124.1 2427.2,1149.9 2363.9,1173.8 2305.6,1195.9 2251.9,1216.2 2202.8,1234.8 2157.9,1251.8 2117.0,1267.3 2080.1,1281.3 2046.8,1294.0 2017.0,1305.3 1990.7,1315.4 1967.6,1324.2 1947.6,1331.9 1930.7,1338.4 1916.8,1343.8 1905.7,1348.1 1897.5,1351.4 1892.1,1353.7 1889.4,1354.9 1889.5,1355.1 1892.3,1354.2 1897.9,1352.4 1906.2,1349.5 1917.4,1345.5 1931.5,1340.5 1948.6,1334.4 1968.7,1327.1 1991.9,1318.7 2018.4,1309.1 2048.3,1298.2 2081.8,1286.0 2119.0,1272.4 2160.0,1257.4 2205.1,1240.9 2254.4,1222.9 2308.3,1203.1 2366.8,1181.7 2430.3,1158.3 2499.0,1133.1  Z" style="stroke-width: 2.0;  stroke: rgb(82,82,82); fill: rgb(107,174,214); opacity: 0.667;" />
<path d="M 2456.702,1966.207 A 1064.250,1064.250 0.00 0,1 2454.8,1970.0 L 2454.8,1970.0 2389.1,1936.4 2328.0,1902.9 2271.2,1869.6 2218.5,1836.4 2169.5,1803.5 2123.9,1770.8 2081.4,1738.5 2041.7,1706.4 2004.6,1674.6 1969.8,1643.1 1937.1,1611.8 1906.3,1580.8 1877.2,1550.0 1849.6,1519.3 1823.2,1488.7 1798.1,1458.1 1774.0,1427.4 1750.7,1396.6 1728.3,1365.4 1706.5,1333.9 1685.3,1302.0 1664.7,1269.3 1644.5,1235.9 1624.8,1201.6 1605.4,1166.2 1586.5,1129.5 1567.9,1091.3 1549.8,1051.6 1532.1,1009.9 1514.9,966.3 1498.2,920.3 1482.2,871.9 1467.0,820.7 1452.5,766.5 1439.0,709.0 1426.6,647.9 1415.5,583.1 1405.7,514.1 1397.5,440.7  A 1064.250,1064.250 0.00 0,0 1393.2,441.1 L 1393.2,441.1 1401.7,514.5 1411.7,583.4 1423.2,648.2 1435.8,709.2 1449.5,766.7 1464.2,820.8 1479.7,872.0 1495.9,920.4 1512.7,966.2 1530.1,1009.8 1547.9,1051.4 1566.2,1091.1 1584.9,1129.1 1604.0,1165.7 1623.5,1201.1 1643.4,1235.3 1663.7,1268.7 1684.5,1301.2 1705.8,1333.1 1727.7,1364.5 1750.3,1395.6 1773.7,1426.3 1797.9,1456.9 1823.2,1487.4 1849.6,1517.9 1877.4,1548.5 1906.6,1579.2 1937.5,1610.1 1970.4,1641.2 2005.3,1672.6 2042.5,1704.2 2082.3,1736.1 2124.9,1768.4 2170.7,1800.8 2219.8,1833.6 2272.7,1866.5 2329.6,1899.6 2390.8,1932.9 2456.7,1966.2  Z" style="stroke-width: 2.0;  stroke: rgb(82,82,82); fill: rgb(253,141,60); opacity: 0.667;" />
<path d="M 2456.702,1966.207 A 1064.250,1064.250 0.00 0,1 2454.8,1970.0 L 2454.8,1970.0 2388.2,1938.3 2324.8,1910.4 2264.4,1885.7 2206.8,1864.3 2151.8,1845.6 2099.3,1829.6 2049.1,1816.0 2000.9,1804.6 1954.7,1795.3 1910.3,1787.8 1867.5,1782.0 1826.1,1777.7 1786.0,1775.0 1747.0,1773.6 1709.1,1773.5 1671.9,1774.6 1635.4,1776.8 1599.5,1780.3 1563.9,1784.8 1528.6,1790.5 1493.5,1797.3 1458.3,1805.4 1422.9,1814.6 1387.3,1825.3 1351.3,1837.3 1314.7,1850.8 1277.5,1866.0 1239.5,1883.0 1200.7,1902.0 1160.9,1923.0 1120.0,1946.4 1077.8,1972.3 1034.4,2001.0 989.5,2032.7 943.2,2067.6 895.2,2106.1 845.6,2148.4 794.1,2194.9 740.8,2245.9  A 1064.250,1064.250 0.00 0,0 744.3,2249.3 L 744.3,2249.3 797.3,2198.1 848.6,2151.4 898.0,2108.9 945.8,2070.2 992.0,2035.0 1036.7,2003.1 1080.0,1974.3 1122.0,1948.2 1162.8,1924.6 1202.5,1903.3 1241.3,1884.2 1279.2,1867.1 1316.3,1851.7 1352.8,1838.0 1388.7,1825.8 1424.3,1815.0 1459.6,1805.6 1494.8,1797.4 1529.9,1790.4 1565.2,1784.6 1600.7,1779.9 1636.6,1776.3 1673.1,1773.9 1710.2,1772.7 1748.2,1772.6 1787.1,1773.9 1827.2,1776.5 1868.6,1780.5 1911.5,1786.1 1955.9,1793.5 2002.1,1802.6 2050.3,1813.8 2100.6,1827.2 2153.2,1843.0 2208.2,1861.4 2265.9,1882.7 2326.4,1907.1 2390.0,1934.8 2456.7,1966.2  Z" style="stroke-width: 2.0;  stroke: rgb(82,82,82); fill: rgb(255,0,0); opacity: 0.667;" />
<path d="M 2456.702,1966.207 A 1064.250,1064.250 0.00 0,1 2454.8,1970.0 L 2454.8,1970.0 2389.2,1936.8 2328.8,1904.5 2273.1,1872.9 2221.9,1842.1 2174.9,1812.0 2131.9,1782.5 2092.6,1753.7 2056.7,1725.4 2024.1,1697.6 1994.5,1670.2 1967.8,1643.2 1943.8,1616.5 1922.3,1590.0 1903.2,1563.7 1886.4,1537.4 1871.8,1511.1 1859.2,1484.7 1848.6,1458.0 1840.0,1431.1 1833.3,1403.7 1828.5,1375.8 1825.5,1347.3 1824.4,1318.1 1825.2,1288.0 1827.9,1256.9 1832.7,1224.7 1839.5,1191.3 1848.4,1156.5 1859.6,1120.2 1873.1,1082.3 1889.2,1042.5 1907.9,1000.9 1929.4,957.1 1953.9,911.1 1981.6,862.6 2012.7,811.6 2047.4,757.9 2086.1,701.2 2128.9,641.4  A 1064.250,1064.250 0.00 0,0 2125.0,638.6 L 2125.0,638.6 2082.5,698.6 2044.1,755.4 2009.6,809.3 1978.7,860.5 1951.2,909.0 1926.9,955.2 1905.6,999.0 1887.1,1040.8 1871.2,1080.6 1857.9,1118.6 1846.8,1155.0 1838.1,1189.8 1831.4,1223.3 1826.8,1255.5 1824.2,1286.6 1823.6,1316.7 1824.8,1345.9 1827.9,1374.4 1832.8,1402.3 1839.7,1429.7 1848.4,1456.6 1859.1,1483.2 1871.8,1509.6 1886.5,1535.8 1903.4,1562.0 1922.6,1588.3 1944.2,1614.7 1968.4,1641.3 1995.2,1668.2 2024.9,1695.5 2057.6,1723.2 2093.6,1751.3 2133.0,1780.0 2176.1,1809.3 2223.2,1839.2 2274.6,1869.8 2330.4,1901.2 2391.0,1933.3 2456.7,1966.2  Z" style="stroke-width: 2.0;  stroke: rgb(82,82,82); fill: rgb(255,0,204); opacity: 0.667;" />
<path d="M 2456.702,1966.207 A 1064.250,1064.250 0.00 0,1 2454.8,1970.0 L 2454.8,1970.0 2389.3,1936.9 2328.8,1904.7 2273.2,1873.5 2222.2,1843.1 2175.4,1813.5 2132.7,1784.7 2093.7,1756.5 2058.3,1729.0 2026.1,1702.1 1997.2,1675.6 1971.2,1649.6 1947.9,1623.9 1927.4,1598.5 1909.3,1573.4 1893.7,1548.3 1880.3,1523.3 1869.2,1498.2 1860.2,1473.0 1853.3,1447.5 1848.5,1421.8 1845.8,1395.5 1845.1,1368.8 1846.4,1341.4 1849.9,1313.2 1855.5,1284.2 1863.3,1254.2 1873.3,1223.1 1885.7,1190.8 1900.6,1157.2 1918.2,1122.1 1938.4,1085.4 1961.6,1047.0 1987.8,1006.7 2017.3,964.4 2050.3,919.9 2087.0,873.2 2127.6,824.1 2172.4,772.3 2221.7,717.8  A 1064.250,1064.250 0.00 0,0 2218.4,714.8 L 2218.4,714.8 2169.4,769.5 2124.8,821.5 2084.4,870.8 2047.9,917.7 2015.1,962.3 1985.8,1004.7 1959.7,1045.1 1936.7,1083.6 1916.6,1120.4 1899.2,1155.6 1884.5,1189.3 1872.2,1221.6 1862.2,1252.7 1854.6,1282.8 1849.1,1311.8 1845.8,1340.0 1844.5,1367.4 1845.3,1394.1 1848.2,1420.3 1853.1,1446.1 1860.1,1471.5 1869.2,1496.7 1880.4,1521.8 1893.8,1546.7 1909.6,1571.7 1927.8,1596.8 1948.4,1622.1 1971.7,1647.7 1997.9,1673.6 2026.9,1700.0 2059.2,1726.8 2094.7,1754.2 2133.8,1782.2 2176.7,1810.8 2223.6,1840.2 2274.7,1870.4 2330.4,1901.4 2391.0,1933.4 2456.7,1966.2  Z" style="stroke-width: 2.0;  stroke: rgb(82,82,82); fill: rgb(255,204,204); opacity: 0.667;" />
<path d="M 2456.702,1966.207 A 1064.250,1064.250 0.00 0,1 2454.8,1970.0 L 2454.8,1970.0 2389.3,1937.0 2328.9,1905.3 2273.5,1874.7 2222.6,1845.2 2176.2,1816.7 2133.8,1789.1 2095.4,1762.4 2060.6,1736.5 2029.2,1711.4 2001.2,1686.9 1976.3,1663.1 1954.4,1639.7 1935.3,1616.8 1919.0,1594.2 1905.2,1571.9 1894.0,1549.9 1885.3,1527.9 1879.0,1506.0 1875.1,1484.0 1873.5,1462.0 1874.2,1439.7 1877.3,1417.1 1882.8,1394.1 1890.7,1370.7 1901.1,1346.6 1914.1,1322.0 1929.7,1296.5 1948.0,1270.3 1969.2,1243.1 1993.4,1214.8 2020.8,1185.5 2051.5,1154.9 2085.8,1123.0 2123.7,1089.6 2165.6,1054.7 2211.7,1018.2 2262.2,980.0 2317.4,939.9 2377.5,897.8  A 1064.250,1064.250 0.00 0,0 2374.8,893.9 L 2374.8,893.9 2314.9,936.2 2259.9,976.6 2209.5,1015.0 2163.6,1051.8 2121.9,1086.8 2084.1,1120.3 2050.0,1152.4 2019.4,1183.2 1992.2,1212.7 1968.1,1241.0 1947.0,1268.3 1928.7,1294.7 1913.3,1320.2 1900.4,1344.9 1890.1,1369.0 1882.3,1392.5 1876.9,1415.5 1873.9,1438.1 1873.3,1460.4 1874.9,1482.5 1879.0,1504.4 1885.4,1526.3 1894.2,1548.2 1905.5,1570.3 1919.3,1592.5 1935.8,1615.0 1954.9,1637.9 1977.0,1661.1 2002.0,1684.9 2030.1,1709.3 2061.5,1734.3 2096.4,1760.0 2135.0,1786.6 2177.4,1813.9 2224.0,1842.3 2275.0,1871.6 2330.5,1902.0 2391.0,1933.5 2456.7,1966.2  Z" style="stroke-width: 2.0;  stroke: rgb(82,82,82); fill: rgb(255,153,0); opacity: 0.667;" />
<path d="M 2456.702,1966.207 A 1064.250,1064.250 0.00 0,1 2454.8,1970.0 L 2454.8,1970.0 2389.3,1937.1 2328.9,1905.4 2273.5,1875.0 2222.7,1845.7 2176.3,1817.5 2134.0,1790.3 2095.7,1764.0 2061.0,1738.6 2029.8,1714.0 2002.0,1690.1 1977.3,1666.8 1955.7,1644.1 1936.9,1621.9 1920.9,1600.0 1907.6,1578.6 1896.9,1557.3 1888.7,1536.3 1882.9,1515.4 1879.6,1494.4 1878.7,1473.4 1880.3,1452.3 1884.2,1431.0 1890.6,1409.3 1899.5,1387.2 1911.0,1364.7 1925.1,1341.6 1941.9,1317.9 1961.5,1293.4 1984.1,1268.1 2009.8,1242.0 2038.8,1214.8 2071.2,1186.5 2107.2,1157.1 2147.0,1126.4 2190.9,1094.4 2239.0,1060.9 2291.7,1025.9 2349.1,989.3 2411.7,950.9  A 1064.250,1064.250 0.00 0,0 2409.4,947.2 L 2409.4,947.2 2347.0,985.8 2289.7,1022.7 2237.2,1057.9 2189.2,1091.6 2145.5,1123.8 2105.8,1154.7 2069.9,1184.2 2037.6,1212.6 2008.8,1239.9 1983.2,1266.2 1960.7,1291.6 1941.1,1316.1 1924.4,1339.9 1910.4,1363.1 1899.0,1385.6 1890.2,1407.7 1883.9,1429.4 1880.1,1450.8 1878.6,1471.9 1879.6,1492.9 1883.0,1513.8 1888.8,1534.7 1897.1,1555.7 1907.9,1576.9 1921.3,1598.4 1937.4,1620.1 1956.3,1642.3 1978.0,1664.9 2002.8,1688.1 2030.7,1711.9 2061.9,1736.4 2096.7,1761.6 2135.2,1787.8 2177.6,1814.8 2224.1,1842.8 2275.0,1871.9 2330.5,1902.1 2391.0,1933.5 2456.7,1966.2  Z" style="stroke-width: 2.0;  stroke: rgb(82,82,82); fill: rgb(255,204,0); opacity: 0.667;" />
<path d="M 2456.702,1966.207 A 1064.250,1064.250 0.00 0,1 2454.8,1970.0 L 2454.8,1970.0 2389.3,1937.2 2329.0,1905.9 2273.5,1876.0 2222.8,1847.5 2176.5,1820.2 2134.4,1794.1 2096.2,1769.1 2061.8,1745.2 2031.0,1722.2 2003.7,1700.1 1979.5,1678.7 1958.5,1658.2 1940.5,1638.2 1925.4,1618.9 1913.1,1600.1 1903.5,1581.7 1896.6,1563.6 1892.3,1545.9 1890.6,1528.4 1891.4,1511.1 1894.9,1493.9 1901.0,1476.7 1909.7,1459.4 1921.1,1442.1 1935.2,1424.6 1952.2,1406.9 1972.1,1388.9 1995.1,1370.5 2021.3,1351.7 2050.7,1332.5 2083.7,1312.7 2120.3,1292.4 2160.8,1271.4 2205.3,1249.6 2254.2,1227.2 2307.5,1203.9 2365.6,1179.8 2428.8,1154.7 2497.4,1128.6  A 1064.250,1064.250 0.00 0,0 2495.6,1124.1 L 2495.6,1124.1 2427.2,1150.4 2364.2,1175.8 2306.1,1200.2 2252.9,1223.7 2204.2,1246.4 2159.7,1268.3 2119.4,1289.5 2082.8,1310.1 2049.9,1330.0 2020.6,1349.4 1994.5,1368.3 1971.6,1386.7 1951.8,1404.9 1934.9,1422.7 1920.8,1440.2 1909.5,1457.6 1900.8,1474.9 1894.8,1492.2 1891.5,1509.4 1890.7,1526.8 1892.4,1544.2 1896.8,1562.0 1903.8,1580.0 1913.5,1598.3 1925.9,1617.1 1941.1,1636.4 1959.1,1656.3 1980.2,1676.8 2004.4,1698.0 2031.9,1720.0 2062.8,1742.9 2097.3,1766.7 2135.5,1791.6 2177.8,1817.5 2224.2,1844.6 2275.0,1872.9 2330.6,1902.6 2391.0,1933.6 2456.7,1966.2  Z" style="stroke-width: 2.0;  stroke: rgb(82,82,82); fill: rgb(255,255,0); opacity: 0.667;" />
<path d="M 2456.702,1966.207 A 1064.250,1064.250 0.00 0,1 2454.8,1970.0 L 2454.8,1970.0 2389.3,1937.2 2328.9,1905.9 2273.5,1876.0 2222.8,1847.5 2176.5,1820.3 2134.4,1794.3 2096.2,1769.4 2061.9,1745.5 2031.1,1722.6 2003.7,1700.5 1979.6,1679.3 1958.6,1658.8 1940.6,1639.0 1925.5,1619.8 1913.3,1601.1 1903.7,1582.8 1896.8,1564.9 1892.6,1547.4 1891.0,1530.0 1891.9,1512.9 1895.4,1495.9 1901.6,1478.9 1910.4,1461.8 1921.8,1444.7 1936.1,1427.5 1953.2,1410.0 1973.2,1392.3 1996.3,1374.2 2022.6,1355.8 2052.2,1336.9 2085.3,1317.5 2122.1,1297.5 2162.8,1276.9 2207.5,1255.6 2256.5,1233.6 2310.0,1210.8 2368.4,1187.2 2431.8,1162.7 2500.5,1137.3  A 1064.250,1064.250 0.00 0,0 2499.0,1133.1 L 2499.0,1133.1 2430.4,1158.8 2367.1,1183.6 2308.8,1207.5 2255.4,1230.5 2206.5,1252.7 2161.8,1274.1 2121.3,1294.9 2084.6,1315.0 2051.5,1334.6 2022.0,1353.6 1995.8,1372.2 1972.8,1390.3 1952.8,1408.2 1935.8,1425.7 1921.6,1443.0 1910.2,1460.2 1901.5,1477.2 1895.4,1494.2 1891.9,1511.3 1891.1,1528.5 1892.8,1545.8 1897.1,1563.3 1904.0,1581.2 1913.7,1599.4 1926.0,1618.1 1941.2,1637.2 1959.2,1657.0 1980.3,1677.4 2004.5,1698.5 2032.0,1720.4 2062.8,1743.2 2097.3,1767.0 2135.5,1791.7 2177.8,1817.6 2224.2,1844.7 2275.0,1873.0 2330.6,1902.6 2391.0,1933.7 2456.7,1966.2  Z" style="stroke-width: 2.0;  stroke: rgb(82,82,82); fill: rgb(204,255,0); opacity: 0.667;" />
<path d="M 2539.467,1728.335 A 1064.250,1064.250 0.00 0,1 2538.8,1731.5 L 2538.8,1731.5 2467.3,1715.6 2401.3,1700.8 2340.5,1687.1 2284.5,1674.5 2233.3,1662.9 2186.5,1652.2 2143.9,1642.4 2105.3,1633.5 2070.7,1625.5 2039.7,1618.2 2012.2,1611.6 1988.2,1605.8 1967.4,1600.6 1949.9,1596.2 1935.4,1592.4 1923.9,1589.2 1915.4,1586.6 1909.8,1584.6 1907.1,1583.2 1907.3,1582.4 1910.3,1582.2 1916.2,1582.6 1925.1,1583.5 1936.9,1585.1 1951.7,1587.2 1969.6,1590.0 1990.7,1593.3 2015.1,1597.4 2042.9,1602.1 2074.3,1607.5 2109.4,1613.6 2148.4,1620.4 2191.4,1628.1 2238.6,1636.5 2290.4,1645.9 2346.8,1656.1 2408.1,1667.3 2474.7,1679.4 2546.7,1692.7  A 1064.250,1064.250 0.00 0,0 2547.3,1689.5 L 2547.3,1689.5 2475.2,1676.4 2408.6,1664.5 2347.3,1653.5 2290.8,1643.4 2239.1,1634.3 2191.8,1625.9 2148.7,1618.4 2109.8,1611.7 2074.7,1605.7 2043.3,1600.4 2015.4,1595.8 1991.0,1591.8 1969.9,1588.5 1951.9,1585.8 1937.1,1583.7 1925.3,1582.2 1916.5,1581.3 1910.6,1580.9 1907.5,1581.2 1907.4,1582.0 1910.1,1583.4 1915.7,1585.3 1924.2,1587.9 1935.7,1591.0 1950.1,1594.8 1967.7,1599.2 1988.5,1604.3 2012.6,1610.0 2040.0,1616.5 2071.0,1623.7 2105.8,1631.7 2144.3,1640.5 2186.9,1650.1 2233.8,1660.6 2285.1,1672.1 2341.0,1684.5 2401.9,1698.0 2468.0,1712.6 2539.5,1728.3  Z" style="stroke-width: 2.0;  stroke: rgb(82,82,82); fill: rgb(0,255,0); opacity: 0.667;" />
<path d="M 2536.349,1742.092 A 1064.250,1064.250 0.00 0,1 2535.6,1745.3 L 2535.6,1745.3 2464.4,1728.4 2398.6,1712.7 2337.9,1698.2 2282.2,1684.8 2231.1,1672.4 2184.5,1661.0 2142.0,1650.6 2103.6,1641.1 2069.1,1632.4 2038.2,1624.6 2010.9,1617.5 1986.9,1611.2 1966.3,1605.6 1948.8,1600.7 1934.4,1596.5 1923.1,1593.0 1914.6,1590.0 1909.1,1587.7 1906.5,1586.1 1906.7,1585.0 1909.8,1584.5 1915.8,1584.6 1924.7,1585.3 1936.5,1586.7 1951.4,1588.6 1969.3,1591.2 1990.5,1594.4 2014.9,1598.2 2042.8,1602.8 2074.2,1608.0 2109.3,1614.0 2148.3,1620.8 2191.3,1628.3 2238.6,1636.7 2290.3,1646.0 2346.8,1656.2 2408.1,1667.3 2474.7,1679.5 2546.7,1692.7  A 1064.250,1064.250 0.00 0,0 2547.3,1689.5 L 2547.3,1689.5 2475.2,1676.5 2408.6,1664.5 2347.2,1653.6 2290.8,1643.5 2239.0,1634.4 2191.7,1626.2 2148.7,1618.8 2109.7,1612.2 2074.5,1606.3 2043.1,1601.1 2015.2,1596.7 1990.8,1592.9 1969.6,1589.7 1951.6,1587.2 1936.8,1585.3 1924.9,1584.0 1916.0,1583.3 1910.1,1583.2 1907.0,1583.7 1906.7,1584.8 1909.4,1586.5 1914.9,1588.8 1923.3,1591.7 1934.7,1595.2 1949.1,1599.4 1966.6,1604.2 1987.3,1609.7 2011.2,1615.9 2038.6,1622.9 2069.5,1630.7 2104.1,1639.2 2142.5,1648.6 2184.9,1658.9 2231.6,1670.1 2282.8,1682.4 2338.5,1695.6 2399.2,1709.9 2465.1,1725.4 2536.3,1742.1  Z" style="stroke-width: 2.0;  stroke: rgb(82,82,82); fill: rgb(53,128,0); opacity: 0.667;" />
<path d="M 2536.349,1742.092 A 1064.250,1064.250 0.00 0,1 2535.6,1745.3 L 2535.6,1745.3 2464.4,1728.4 2398.6,1712.8 2337.9,1698.4 2282.1,1685.1 2231.0,1672.9 2184.3,1661.8 2141.8,1651.6 2103.3,1642.4 2068.7,1634.1 2037.8,1626.6 2010.4,1620.0 1986.3,1614.1 1965.6,1609.0 1948.0,1604.6 1933.5,1601.0 1922.0,1598.0 1913.4,1595.8 1907.8,1594.2 1905.0,1593.2 1905.0,1593.0 1908.0,1593.3 1913.8,1594.4 1922.4,1596.1 1934.1,1598.4 1948.7,1601.5 1966.4,1605.2 1987.3,1609.7 2011.5,1614.9 2039.1,1620.9 2070.2,1627.7 2105.0,1635.3 2143.6,1643.8 2186.2,1653.2 2233.1,1663.6 2284.4,1675.0 2340.4,1687.4 2401.3,1700.9 2467.3,1715.6 2538.8,1731.5  A 1064.250,1064.250 0.00 0,0 2539.5,1728.3 L 2539.5,1728.3 2468.0,1712.6 2401.9,1698.1 2341.0,1684.8 2285.0,1672.6 2233.6,1661.4 2186.7,1651.1 2144.0,1641.9 2105.4,1633.5 2070.6,1626.0 2039.5,1619.3 2011.9,1613.4 1987.7,1608.2 1966.8,1603.8 1949.0,1600.1 1934.4,1597.1 1922.7,1594.8 1914.0,1593.1 1908.3,1592.1 1905.3,1591.7 1905.3,1592.0 1908.1,1592.9 1913.7,1594.5 1922.3,1596.8 1933.8,1599.7 1948.3,1603.3 1965.9,1607.6 1986.7,1612.6 2010.7,1618.4 2038.2,1625.0 2069.1,1632.3 2103.8,1640.5 2142.3,1649.6 2184.8,1659.7 2231.5,1670.7 2282.7,1682.7 2338.5,1695.8 2399.2,1710.0 2465.1,1725.4 2536.3,1742.1  Z" style="stroke-width: 2.0;  stroke: rgb(82,82,82); fill: rgb(0,0,204); opacity: 0.667;" />
<path d="M 2396.367,926.281 A 1064.250,1064.250 0.00 0,1 2397.7,928.4 L 2397.7,928.4 2335.7,967.4 2277.8,1002.9 2223.9,1034.9 2173.7,1063.8 2127.0,1089.6 2083.7,1112.5 2043.5,1132.7 2006.3,1150.2 1972.0,1165.2 1940.3,1177.8 1911.2,1188.1 1884.4,1196.1 1860.0,1201.9 1837.7,1205.5 1817.5,1207.0 1799.3,1206.5 1783.0,1203.9 1768.5,1199.2 1755.8,1192.5 1744.8,1183.7 1735.4,1172.7 1727.7,1159.6 1721.7,1144.2 1717.2,1126.6 1714.3,1106.5 1713.1,1084.0 1713.4,1058.9 1715.4,1031.0 1719.1,1000.4 1724.5,966.7 1731.7,929.9 1740.8,889.8 1751.8,846.2 1764.8,798.9 1779.8,747.8 1797.1,692.5 1816.8,632.9 1838.8,568.7 1863.5,499.7  A 1064.250,1064.250 0.00 0,0 1861.1,498.9 L 1861.1,498.9 1836.6,567.9 1814.7,632.2 1795.2,691.8 1778.1,747.1 1763.1,798.3 1750.2,845.6 1739.3,889.2 1730.4,929.4 1723.3,966.2 1717.9,999.8 1714.3,1030.5 1712.4,1058.4 1712.1,1083.5 1713.4,1106.0 1716.3,1126.0 1720.8,1143.7 1726.9,1159.1 1734.7,1172.2 1744.0,1183.1 1755.0,1191.9 1767.8,1198.6 1782.3,1203.2 1798.6,1205.8 1816.8,1206.3 1837.0,1204.7 1859.3,1201.0 1883.7,1195.1 1910.4,1187.1 1939.5,1176.8 1971.2,1164.1 2005.5,1149.0 2042.6,1131.4 2082.8,1111.2 2126.1,1088.1 2172.7,1062.2 2222.8,1033.2 2276.7,1001.0 2334.4,965.4 2396.4,926.3  Z" style="stroke-width: 2.0;  stroke: rgb(82,82,82); fill: rgb(102,153,255); opacity: 0.667;" />
<path d="M 1946.523,533.954 A 1064.250,1064.250 0.00 0,1 1949.6,535.4 L 1949.6,535.4 1918.4,601.6 1888.9,662.7 1861.1,718.8 1834.9,770.1 1810.2,817.1 1786.8,859.7 1764.8,898.4 1744.1,933.2 1724.5,964.3 1706.0,991.9 1688.5,1016.2 1672.0,1037.2 1656.4,1055.1 1641.7,1070.0 1627.7,1082.0 1614.4,1091.1 1601.8,1097.3 1589.8,1100.8 1578.4,1101.6 1567.5,1099.6 1557.0,1094.9 1547.0,1087.3 1537.5,1077.0 1528.3,1063.8 1519.4,1047.7 1510.8,1028.5 1502.6,1006.3 1494.6,980.8 1486.8,951.9 1479.3,919.5 1471.9,883.5 1464.8,843.6 1457.9,799.7 1451.1,751.5 1444.6,698.9 1438.2,641.6 1432.0,579.3 1426.0,511.8 1420.2,438.7  A 1064.250,1064.250 0.00 0,0 1416.7,439.0 L 1416.7,439.0 1422.8,512.0 1429.0,579.5 1435.4,641.8 1442.0,699.1 1448.7,751.7 1455.6,799.8 1462.7,843.7 1469.9,883.6 1477.4,919.6 1485.0,952.0 1492.9,980.8 1501.0,1006.3 1509.3,1028.5 1517.9,1047.6 1526.9,1063.7 1536.1,1076.9 1545.7,1087.2 1555.7,1094.7 1566.2,1099.4 1577.1,1101.3 1588.5,1100.6 1600.5,1097.0 1613.1,1090.7 1626.3,1081.6 1640.3,1069.6 1655.0,1054.6 1670.5,1036.7 1687.0,1015.6 1704.4,991.3 1722.8,963.6 1742.2,932.4 1762.9,897.5 1784.8,858.8 1808.0,816.1 1832.5,769.1 1858.6,717.6 1886.2,661.4 1915.5,600.3 1946.5,534.0  Z" style="stroke-width: 2.0;  stroke: rgb(82,82,82); fill: rgb(153,204,255); opacity: 0.667;" />
<path d="M 1530.041,436.174 A 1064.250,1064.250 0.00 0,1 1538.5,436.4 L 1538.5,436.4 1536.2,509.7 1534.7,577.4 1534.0,640.0 1534.0,697.8 1534.8,750.8 1536.3,799.5 1538.5,844.0 1541.3,884.5 1544.7,921.2 1548.8,954.3 1553.5,983.9 1558.9,1010.3 1564.9,1033.5 1571.5,1053.6 1578.8,1070.7 1586.8,1085.1 1595.5,1096.6 1604.9,1105.4 1615.1,1111.4 1626.1,1114.9 1638.0,1115.7 1650.7,1113.8 1664.4,1109.3 1679.1,1102.0 1694.9,1092.1 1711.8,1079.3 1729.9,1063.6 1749.3,1045.0 1770.0,1023.3 1792.2,998.4 1815.9,970.1 1841.3,938.4 1868.3,903.0 1897.2,863.8 1928.0,820.6 1960.8,773.1 1995.9,721.2 2033.2,664.6 2072.9,603.1  A 1064.250,1064.250 0.00 0,0 2065.7,598.5 L 2065.7,598.5 2026.5,660.4 1989.6,717.3 1955.0,769.5 1922.6,817.2 1892.1,860.7 1863.5,900.1 1836.8,935.7 1811.7,967.6 1788.2,996.0 1766.2,1021.1 1745.7,1043.0 1726.4,1061.8 1708.5,1077.6 1691.7,1090.5 1676.0,1100.6 1661.3,1108.0 1647.7,1112.6 1634.9,1114.6 1623.1,1113.9 1612.0,1110.5 1601.8,1104.5 1592.3,1095.8 1583.5,1084.4 1575.4,1070.1 1568.0,1053.0 1561.2,1032.9 1555.0,1009.8 1549.4,983.5 1544.5,953.9 1540.1,920.8 1536.4,884.2 1533.2,843.7 1530.7,799.2 1528.9,750.6 1527.7,697.5 1527.2,639.8 1527.4,577.2 1528.3,509.4 1530.0,436.2  Z" style="stroke-width: 2.0;  stroke: rgb(82,82,82); fill: rgb(0,255,255); opacity: 0.667;" />
</g>
<defs>
<pattern id="hline-sparse" width="10" height="10" patternTransform="rotate(0 0 0)" patternUnits="userSpaceOnUse"><line x1="0" y1="0" x2="10" y2="0" style="stroke:black;stroke-width:2" /></pattern>
<pattern id="checker" width="10" height="10" patternTransform="rotate(45 0 0)" patternUnits="userSpaceOnUse"><line x1="0" y1="0" x2="10" y2="0" style="stroke:black;stroke-width:2" /><line x1="0" y1="0" x2="0" y2="10" style="stroke:black;stroke-width:2" /></pattern>
<pattern id="checker" width="10" height="10" patternTransform="rotate(45 0 0)" patternUnits="userSpaceOnUse"><line x1="0" y1="0" x2="10" y2="0" style="stroke:black;stroke-width:5" /><line x1="0" y1="0" x2="0" y2="10" style="stroke:black;stroke-width:4" /></pattern>
<pattern id="hline" width="10" height="10" patternTransform="rotate(0 0 0)" patternUnits="userSpaceOnUse"><line x1="0" y1="0" x2="10" y2="0" style="stroke:black;stroke-width:5" /></pattern>
<pattern id="vline-sparse" width="10" height="10" patternTransform="rotate(0 0 0)" patternUnits="userSpaceOnUse"><line x1="0" y1="0" x2="0" y2="10" style="stroke:black;stroke-width:2" /></pattern>
<pattern id="vline" width="10" height="10" patternTransform="rotate(0 0 0)" patternUnits="userSpaceOnUse"><line x1="0" y1="0" x2="0" y2="10" style="stroke:black;stroke-width:5" /></pattern>
</defs>
</svg>
