<?xml version="1.0" encoding="utf-8" standalone="no"?>
<!DOCTYPE svg PUBLIC "-//W3C//DTD SVG 1.1//EN" "http://www.w3.org/Graphics/SVG/1.1/DTD/svg11.dtd">
<svg width="3000px" height="3000px" version="1.1" xmlns="http://www.w3.org/2000/svg" xmlns:xlink="http://www.w3.org/1999/xlink">
<g id="ideograms">
<path d="M1500.000,425.000 A1075.000,1075.000 40.000 0,1 1569.763,427.266 L1573.008,377.371 A1125.000,1125.000 0.000 0,0 1500.000,375.000 Z" style="stroke-linecap:round;fill:rgb(116,196,118);fill-opacity:0.33;" />
<text x="1548.9" y="286.0" font-size="18.2px" font-family="CMUBright-Roman" style="text-anchor:start;fill:rgb(0,0,0);" transform="rotate(271.9,1548.9,286.0)" >R<tspan baseline-shift="-40%" font-size="90%">s</tspan>caffold<tspan baseline-shift="-40%" font-size="90%">3</tspan>0</text>
<line x1='1500.0' y1='375.0' x2='1500.0' y2='355.0' style="stroke-width:4.0;stroke:rgb(0,0,0);stroke-linecap:round;fill:none;" />
<text x="1506.5" y="345.0" font-size="18.2px" font-family="CMUBright-Roman" style="text-anchor:start;fill:rgb(0,0,0);" transform="rotate(270.0,1506.5,345.0)" >0</text>
<g id="highlighttrack_0">
<path d="M1527.247,425.345 A1075.000,1075.000 40.000 0,1 1532.549,425.493 L1534.063,375.516 A1125.000,1125.000 0.000 0,0 1528.514,375.361 Z" style="stroke-width:4.0;stroke:rgb(0,0,0);stroke-linecap:round;fill:rgb(116,196,118);" />
</g>
<path d="M1635.032,433.514 A1075.000,1075.000 40.000 0,1 1639.607,434.104 L1646.101,384.527 A1125.000,1125.000 0.000 0,0 1641.312,383.910 Z" style="stroke-linecap:round;fill:rgb(116,196,118);fill-opacity:0.33;" />
<text x="1664.6" y="296.2" font-size="18.2px" font-family="CMUBright-Roman" style="text-anchor:start;fill:rgb(0,0,0);" transform="rotate(277.3,1664.6,296.2)" >R<tspan baseline-shift="-40%" font-size="90%">s</tspan>caffold<tspan baseline-shift="-40%" font-size="90%">3</tspan>7</text>
<line x1='1641.3' y1='383.9' x2='1643.8' y2='364.1' style="stroke-width:4.0;stroke:rgb(0,0,0);stroke-linecap:round;fill:none;" />
<text x="1651.5" y="355.0" font-size="18.2px" font-family="CMUBright-Roman" style="text-anchor:start;fill:rgb(0,0,0);" transform="rotate(277.2,1651.5,355.0)" >0</text>
<g id="highlighttrack_0">
<path d="M1635.311,433.550 A1075.000,1075.000 40.000 0,1 1639.536,434.094 L1646.027,384.517 A1125.000,1125.000 0.000 0,0 1641.605,383.948 Z" style="stroke-width:4.0;stroke:rgb(0,0,0);stroke-linecap:round;fill:rgb(251,106,74);" />
</g>
<path d="M1704.329,444.597 A1075.000,1075.000 40.000 1,1 1434.464,427.000 L1431.416,377.093 A1125.000,1125.000 0.000 1,0 1713.833,395.509 Z" style="stroke-linecap:round;fill:rgb(116,196,118);fill-opacity:0.33;" />
<text x="1430.4" y="2713.0" font-size="18.2px" font-family="CMUBright-Roman" style="text-anchor:end;fill:rgb(0,0,0);" transform="rotate(-86.3,1430.4,2713.0)" >NZ<tspan baseline-shift="-40%" font-size="90%">C</tspan>P041153.1</text>
<line x1='1713.8' y1='395.5' x2='1717.6' y2='375.9' style="stroke-width:4.0;stroke:rgb(0,0,0);stroke-linecap:round;fill:none;" />
<text x="1725.9" y="367.3" font-size="18.2px" font-family="CMUBright-Roman" style="text-anchor:start;fill:rgb(0,0,0);" transform="rotate(281.0,1725.9,367.3)" >0</text>
<line x1='1789.9' y1='413.0' x2='1795.1' y2='393.7' style="stroke-width:4.0;stroke:rgb(0,0,0);stroke-linecap:round;fill:none;" />
<text x="1803.9" y="385.7" font-size="18.2px" font-family="CMUBright-Roman" style="text-anchor:start;fill:rgb(0,0,0);" transform="rotate(284.9,1803.9,385.7)" >50</text>
<line x1='1864.6' y1='435.7' x2='1871.1' y2='416.8' style="stroke-width:4.0;stroke:rgb(0,0,0);stroke-linecap:round;fill:none;" />
<text x="1880.5" y="409.5" font-size="18.2px" font-family="CMUBright-Roman" style="text-anchor:start;fill:rgb(0,0,0);" transform="rotate(288.9,1880.5,409.5)" >100</text>
<line x1='1937.6' y1='463.6' x2='1945.4' y2='445.2' style="stroke-width:4.0;stroke:rgb(0,0,0);stroke-linecap:round;fill:none;" />
<text x="1955.2" y="438.5" font-size="18.2px" font-family="CMUBright-Roman" style="text-anchor:start;fill:rgb(0,0,0);" transform="rotate(292.9,1955.2,438.5)" >150</text>
<line x1='2008.4' y1='496.4' x2='2017.5' y2='478.6' style="stroke-width:4.0;stroke:rgb(0,0,0);stroke-linecap:round;fill:none;" />
<text x="2027.8" y="472.6" font-size="18.2px" font-family="CMUBright-Roman" style="text-anchor:start;fill:rgb(0,0,0);" transform="rotate(296.9,2027.8,472.6)" >200</text>
<line x1='2076.8' y1='534.1' x2='2087.1' y2='517.0' style="stroke-width:4.0;stroke:rgb(0,0,0);stroke-linecap:round;fill:none;" />
<text x="2097.8" y="511.7" font-size="18.2px" font-family="CMUBright-Roman" style="text-anchor:start;fill:rgb(0,0,0);" transform="rotate(300.8,2097.8,511.7)" >250</text>
<line x1='2142.4' y1='576.5' x2='2153.9' y2='560.1' style="stroke-width:4.0;stroke:rgb(0,0,0);stroke-linecap:round;fill:none;" />
<text x="2164.9" y="555.6" font-size="18.2px" font-family="CMUBright-Roman" style="text-anchor:start;fill:rgb(0,0,0);" transform="rotate(304.8,2164.9,555.6)" >300</text>
<line x1='2205.0' y1='623.3' x2='2217.5' y2='607.7' style="stroke-width:4.0;stroke:rgb(0,0,0);stroke-linecap:round;fill:none;" />
<text x="2228.8" y="604.0" font-size="18.2px" font-family="CMUBright-Roman" style="text-anchor:start;fill:rgb(0,0,0);" transform="rotate(308.8,2228.8,604.0)" >350</text>
<line x1='2264.1' y1='674.3' x2='2277.7' y2='659.6' style="stroke-width:4.0;stroke:rgb(0,0,0);stroke-linecap:round;fill:none;" />
<text x="2289.2" y="656.7" font-size="18.2px" font-family="CMUBright-Roman" style="text-anchor:start;fill:rgb(0,0,0);" transform="rotate(312.8,2289.2,656.7)" >400</text>
<line x1='2319.5' y1='729.3' x2='2334.1' y2='715.6' style="stroke-width:4.0;stroke:rgb(0,0,0);stroke-linecap:round;fill:none;" />
<text x="2345.8" y="713.5" font-size="18.2px" font-family="CMUBright-Roman" style="text-anchor:start;fill:rgb(0,0,0);" transform="rotate(316.8,2345.8,713.5)" >450</text>
<line x1='2371.0' y1='788.0' x2='2386.5' y2='775.3' style="stroke-width:4.0;stroke:rgb(0,0,0);stroke-linecap:round;fill:none;" />
<text x="2398.3" y="774.0" font-size="18.2px" font-family="CMUBright-Roman" style="text-anchor:start;fill:rgb(0,0,0);" transform="rotate(320.7,2398.3,774.0)" >500</text>
<line x1='2418.3' y1='850.1' x2='2434.6' y2='838.6' style="stroke-width:4.0;stroke:rgb(0,0,0);stroke-linecap:round;fill:none;" />
<text x="2446.5" y="838.1" font-size="18.2px" font-family="CMUBright-Roman" style="text-anchor:start;fill:rgb(0,0,0);" transform="rotate(324.7,2446.5,838.1)" >550</text>
<line x1='2461.2' y1='915.4' x2='2478.3' y2='905.0' style="stroke-width:4.0;stroke:rgb(0,0,0);stroke-linecap:round;fill:none;" />
<text x="2490.2" y="905.4" font-size="18.2px" font-family="CMUBright-Roman" style="text-anchor:start;fill:rgb(0,0,0);" transform="rotate(328.7,2490.2,905.4)" >600</text>
<line x1='2499.4' y1='983.5' x2='2517.2' y2='974.3' style="stroke-width:4.0;stroke:rgb(0,0,0);stroke-linecap:round;fill:none;" />
<text x="2529.0" y="975.5" font-size="18.2px" font-family="CMUBright-Roman" style="text-anchor:start;fill:rgb(0,0,0);" transform="rotate(332.7,2529.0,975.5)" >650</text>
<line x1='2532.8' y1='1054.0' x2='2551.2' y2='1046.1' style="stroke-width:4.0;stroke:rgb(0,0,0);stroke-linecap:round;fill:none;" />
<text x="2562.9" y="1048.1" font-size="18.2px" font-family="CMUBright-Roman" style="text-anchor:start;fill:rgb(0,0,0);" transform="rotate(336.6,2562.9,1048.1)" >700</text>
<line x1='2561.3' y1='1126.8' x2='2580.1' y2='1120.1' style="stroke-width:4.0;stroke:rgb(0,0,0);stroke-linecap:round;fill:none;" />
<text x="2591.7" y="1122.9" font-size="18.2px" font-family="CMUBright-Roman" style="text-anchor:start;fill:rgb(0,0,0);" transform="rotate(340.6,2591.7,1122.9)" >750</text>
<line x1='2584.6' y1='1201.3' x2='2603.9' y2='1196.0' style="stroke-width:4.0;stroke:rgb(0,0,0);stroke-linecap:round;fill:none;" />
<text x="2615.2" y="1199.6" font-size="18.2px" font-family="CMUBright-Roman" style="text-anchor:start;fill:rgb(0,0,0);" transform="rotate(344.6,2615.2,1199.6)" >800</text>
<line x1='2602.7' y1='1277.2' x2='2622.3' y2='1273.3' style="stroke-width:4.0;stroke:rgb(0,0,0);stroke-linecap:round;fill:none;" />
<text x="2633.4" y="1277.7" font-size="18.2px" font-family="CMUBright-Roman" style="text-anchor:start;fill:rgb(0,0,0);" transform="rotate(348.6,2633.4,1277.7)" >850</text>
<line x1='2615.5' y1='1354.3' x2='2635.4' y2='1351.7' style="stroke-width:4.0;stroke:rgb(0,0,0);stroke-linecap:round;fill:none;" />
<text x="2646.1" y="1356.8" font-size="18.2px" font-family="CMUBright-Roman" style="text-anchor:start;fill:rgb(0,0,0);" transform="rotate(352.6,2646.1,1356.8)" >900</text>
<line x1='2622.9' y1='1432.0' x2='2642.9' y2='1430.8' style="stroke-width:4.0;stroke:rgb(0,0,0);stroke-linecap:round;fill:none;" />
<text x="2653.3" y="1436.7" font-size="18.2px" font-family="CMUBright-Roman" style="text-anchor:start;fill:rgb(0,0,0);" transform="rotate(356.5,2653.3,1436.7)" >950</text>
<line x1='2625.0' y1='1510.1' x2='2645.0' y2='1510.2' style="stroke-width:4.0;stroke:rgb(0,0,0);stroke-linecap:round;fill:none;" />
<text x="2654.9" y="1516.8" font-size="18.2px" font-family="CMUBright-Roman" style="text-anchor:start;fill:rgb(0,0,0);" transform="rotate(0.5,2654.9,1516.8)" >1000</text>
<line x1='2621.5' y1='1588.1' x2='2641.5' y2='1589.6' style="stroke-width:4.0;stroke:rgb(0,0,0);stroke-linecap:round;fill:none;" />
<text x="2650.9" y="1596.9" font-size="18.2px" font-family="CMUBright-Roman" style="text-anchor:start;fill:rgb(0,0,0);" transform="rotate(4.5,2650.9,1596.9)" >1050</text>
<line x1='2612.7' y1='1665.7' x2='2632.5' y2='1668.6' style="stroke-width:4.0;stroke:rgb(0,0,0);stroke-linecap:round;fill:none;" />
<text x="2641.4" y="1676.5" font-size="18.2px" font-family="CMUBright-Roman" style="text-anchor:start;fill:rgb(0,0,0);" transform="rotate(8.5,2641.4,1676.5)" >1100</text>
<line x1='2598.6' y1='1742.5' x2='2618.1' y2='1746.8' style="stroke-width:4.0;stroke:rgb(0,0,0);stroke-linecap:round;fill:none;" />
<text x="2626.4" y="1755.3" font-size="18.2px" font-family="CMUBright-Roman" style="text-anchor:start;fill:rgb(0,0,0);" transform="rotate(12.4,2626.4,1755.3)" >1150</text>
<line x1='2579.1' y1='1818.1' x2='2598.3' y2='1823.7' style="stroke-width:4.0;stroke:rgb(0,0,0);stroke-linecap:round;fill:none;" />
<text x="2606.0" y="1832.8" font-size="18.2px" font-family="CMUBright-Roman" style="text-anchor:start;fill:rgb(0,0,0);" transform="rotate(16.4,2606.0,1832.8)" >1200</text>
<line x1='2554.4' y1='1892.2' x2='2573.2' y2='1899.1' style="stroke-width:4.0;stroke:rgb(0,0,0);stroke-linecap:round;fill:none;" />
<text x="2580.3" y="1908.7" font-size="18.2px" font-family="CMUBright-Roman" style="text-anchor:start;fill:rgb(0,0,0);" transform="rotate(20.4,2580.3,1908.7)" >1250</text>
<line x1='2524.7' y1='1964.4' x2='2542.9' y2='1972.6' style="stroke-width:4.0;stroke:rgb(0,0,0);stroke-linecap:round;fill:none;" />
<text x="2549.3" y="1982.7" font-size="18.2px" font-family="CMUBright-Roman" style="text-anchor:start;fill:rgb(0,0,0);" transform="rotate(24.4,2549.3,1982.7)" >1300</text>
<line x1='2490.0' y1='2034.3' x2='2507.6' y2='2043.8' style="stroke-width:4.0;stroke:rgb(0,0,0);stroke-linecap:round;fill:none;" />
<text x="2513.3" y="2054.3" font-size="18.2px" font-family="CMUBright-Roman" style="text-anchor:start;fill:rgb(0,0,0);" transform="rotate(28.4,2513.3,2054.3)" >1350</text>
<line x1='2450.6' y1='2101.7' x2='2467.5' y2='2112.4' style="stroke-width:4.0;stroke:rgb(0,0,0);stroke-linecap:round;fill:none;" />
<text x="2472.4" y="2123.2" font-size="18.2px" font-family="CMUBright-Roman" style="text-anchor:start;fill:rgb(0,0,0);" transform="rotate(32.3,2472.4,2123.2)" >1400</text>
<line x1='2406.5' y1='2166.2' x2='2422.6' y2='2178.1' style="stroke-width:4.0;stroke:rgb(0,0,0);stroke-linecap:round;fill:none;" />
<text x="2426.8" y="2189.2" font-size="18.2px" font-family="CMUBright-Roman" style="text-anchor:start;fill:rgb(0,0,0);" transform="rotate(36.3,2426.8,2189.2)" >1450</text>
<line x1='2358.1' y1='2227.5' x2='2373.4' y2='2240.4' style="stroke-width:4.0;stroke:rgb(0,0,0);stroke-linecap:round;fill:none;" />
<text x="2376.8" y="2251.8" font-size="18.2px" font-family="CMUBright-Roman" style="text-anchor:start;fill:rgb(0,0,0);" transform="rotate(40.3,2376.8,2251.8)" >1500</text>
<line x1='2305.6' y1='2285.3' x2='2319.9' y2='2299.2' style="stroke-width:4.0;stroke:rgb(0,0,0);stroke-linecap:round;fill:none;" />
<text x="2322.5" y="2310.8" font-size="18.2px" font-family="CMUBright-Roman" style="text-anchor:start;fill:rgb(0,0,0);" transform="rotate(44.3,2322.5,2310.8)" >1550</text>
<line x1='2249.2' y1='2339.3' x2='2262.5' y2='2354.2' style="stroke-width:4.0;stroke:rgb(0,0,0);stroke-linecap:round;fill:none;" />
<text x="2264.3" y="2366.0" font-size="18.2px" font-family="CMUBright-Roman" style="text-anchor:start;fill:rgb(0,0,0);" transform="rotate(48.2,2264.3,2366.0)" >1600</text>
<line x1='2189.2' y1='2389.2' x2='2201.4' y2='2405.0' style="stroke-width:4.0;stroke:rgb(0,0,0);stroke-linecap:round;fill:none;" />
<text x="2202.4" y="2416.9" font-size="18.2px" font-family="CMUBright-Roman" style="text-anchor:start;fill:rgb(0,0,0);" transform="rotate(52.2,2202.4,2416.9)" >1650</text>
<line x1='2125.8' y1='2434.9' x2='2136.9' y2='2451.5' style="stroke-width:4.0;stroke:rgb(0,0,0);stroke-linecap:round;fill:none;" />
<text x="2137.1" y="2463.4" font-size="18.2px" font-family="CMUBright-Roman" style="text-anchor:start;fill:rgb(0,0,0);" transform="rotate(56.2,2137.1,2463.4)" >1700</text>
<line x1='2059.5' y1='2476.0' x2='2069.4' y2='2493.4' style="stroke-width:4.0;stroke:rgb(0,0,0);stroke-linecap:round;fill:none;" />
<text x="2068.7" y="2505.3" font-size="18.2px" font-family="CMUBright-Roman" style="text-anchor:start;fill:rgb(0,0,0);" transform="rotate(60.2,2068.7,2505.3)" >1750</text>
<line x1='1990.4' y1='2512.5' x2='1999.1' y2='2530.5' style="stroke-width:4.0;stroke:rgb(0,0,0);stroke-linecap:round;fill:none;" />
<text x="1997.6" y="2542.3" font-size="18.2px" font-family="CMUBright-Roman" style="text-anchor:start;fill:rgb(0,0,0);" transform="rotate(64.2,1997.6,2542.3)" >1800</text>
<line x1='1919.0' y1='2544.1' x2='1926.4' y2='2562.6' style="stroke-width:4.0;stroke:rgb(0,0,0);stroke-linecap:round;fill:none;" />
<text x="1924.1" y="2574.3" font-size="18.2px" font-family="CMUBright-Roman" style="text-anchor:start;fill:rgb(0,0,0);" transform="rotate(68.1,1924.1,2574.3)" >1850</text>
<line x1='1845.5' y1='2570.6' x2='1851.7' y2='2589.7' style="stroke-width:4.0;stroke:rgb(0,0,0);stroke-linecap:round;fill:none;" />
<text x="1848.6" y="2601.1" font-size="18.2px" font-family="CMUBright-Roman" style="text-anchor:start;fill:rgb(0,0,0);" transform="rotate(72.1,1848.6,2601.1)" >1900</text>
<line x1='1770.4' y1='2592.0' x2='1775.3' y2='2611.4' style="stroke-width:4.0;stroke:rgb(0,0,0);stroke-linecap:round;fill:none;" />
<text x="1771.3" y="2622.7" font-size="18.2px" font-family="CMUBright-Roman" style="text-anchor:start;fill:rgb(0,0,0);" transform="rotate(76.1,1771.3,2622.7)" >1950</text>
<line x1='1694.0' y1='2608.1' x2='1697.5' y2='2627.8' style="stroke-width:4.0;stroke:rgb(0,0,0);stroke-linecap:round;fill:none;" />
<text x="1692.8" y="2638.8" font-size="18.2px" font-family="CMUBright-Roman" style="text-anchor:start;fill:rgb(0,0,0);" transform="rotate(80.1,1692.8,2638.8)" >2000</text>
<line x1='1616.7' y1='2618.9' x2='1618.8' y2='2638.8' style="stroke-width:4.0;stroke:rgb(0,0,0);stroke-linecap:round;fill:none;" />
<text x="1613.4" y="2649.4" font-size="18.2px" font-family="CMUBright-Roman" style="text-anchor:start;fill:rgb(0,0,0);" transform="rotate(84.0,1613.4,2649.4)" >2050</text>
<line x1='1538.8' y1='2624.3' x2='1539.5' y2='2644.3' style="stroke-width:4.0;stroke:rgb(0,0,0);stroke-linecap:round;fill:none;" />
<text x="1533.3" y="2654.5" font-size="18.2px" font-family="CMUBright-Roman" style="text-anchor:start;fill:rgb(0,0,0);" transform="rotate(88.0,1533.3,2654.5)" >2100</text>
<line x1='1460.7' y1='2624.3' x2='1460.0' y2='2644.3' style="stroke-width:4.0;stroke:rgb(0,0,0);stroke-linecap:round;fill:none;" />
<text x="1466.2" y="2654.5" font-size="18.2px" font-family="CMUBright-Roman" style="text-anchor:end;fill:rgb(0,0,0);" transform="rotate(-88.0,1466.2,2654.5)" >2150</text>
<line x1='1382.8' y1='2618.9' x2='1380.7' y2='2638.8' style="stroke-width:4.0;stroke:rgb(0,0,0);stroke-linecap:round;fill:none;" />
<text x="1386.2" y="2649.4" font-size="18.2px" font-family="CMUBright-Roman" style="text-anchor:end;fill:rgb(0,0,0);" transform="rotate(-84.0,1386.2,2649.4)" >2200</text>
<line x1='1305.5' y1='2608.1' x2='1302.0' y2='2627.8' style="stroke-width:4.0;stroke:rgb(0,0,0);stroke-linecap:round;fill:none;" />
<text x="1306.7" y="2638.7" font-size="18.2px" font-family="CMUBright-Roman" style="text-anchor:end;fill:rgb(0,0,0);" transform="rotate(-80.0,1306.7,2638.7)" >2250</text>
<line x1='1229.1' y1='2591.9' x2='1224.3' y2='2611.3' style="stroke-width:4.0;stroke:rgb(0,0,0);stroke-linecap:round;fill:none;" />
<text x="1228.2" y="2622.6" font-size="18.2px" font-family="CMUBright-Roman" style="text-anchor:end;fill:rgb(0,0,0);" transform="rotate(-76.1,1228.2,2622.6)" >2300</text>
<line x1='1154.0' y1='2570.5' x2='1147.8' y2='2589.5' style="stroke-width:4.0;stroke:rgb(0,0,0);stroke-linecap:round;fill:none;" />
<text x="1151.0" y="2601.0" font-size="18.2px" font-family="CMUBright-Roman" style="text-anchor:end;fill:rgb(0,0,0);" transform="rotate(-72.1,1151.0,2601.0)" >2350</text>
<line x1='1080.6' y1='2543.9' x2='1073.1' y2='2562.4' style="stroke-width:4.0;stroke:rgb(0,0,0);stroke-linecap:round;fill:none;" />
<text x="1075.4" y="2574.1" font-size="18.2px" font-family="CMUBright-Roman" style="text-anchor:end;fill:rgb(0,0,0);" transform="rotate(-68.1,1075.4,2574.1)" >2400</text>
<line x1='1009.2' y1='2512.3' x2='1000.4' y2='2530.3' style="stroke-width:4.0;stroke:rgb(0,0,0);stroke-linecap:round;fill:none;" />
<text x="1001.9" y="2542.1" font-size="18.2px" font-family="CMUBright-Roman" style="text-anchor:end;fill:rgb(0,0,0);" transform="rotate(-64.1,1001.9,2542.1)" >2450</text>
<line x1='940.1' y1='2475.8' x2='930.2' y2='2493.1' style="stroke-width:4.0;stroke:rgb(0,0,0);stroke-linecap:round;fill:none;" />
<text x="930.8" y="2505.0" font-size="18.2px" font-family="CMUBright-Roman" style="text-anchor:end;fill:rgb(0,0,0);" transform="rotate(-60.2,930.8,2505.0)" >2500</text>
<line x1='873.8' y1='2434.6' x2='862.7' y2='2451.2' style="stroke-width:4.0;stroke:rgb(0,0,0);stroke-linecap:round;fill:none;" />
<text x="862.5" y="2463.1" font-size="18.2px" font-family="CMUBright-Roman" style="text-anchor:end;fill:rgb(0,0,0);" transform="rotate(-56.2,862.5,2463.1)" >2550</text>
<line x1='810.5' y1='2388.9' x2='798.2' y2='2404.7' style="stroke-width:4.0;stroke:rgb(0,0,0);stroke-linecap:round;fill:none;" />
<text x="797.2" y="2416.6" font-size="18.2px" font-family="CMUBright-Roman" style="text-anchor:end;fill:rgb(0,0,0);" transform="rotate(-52.2,797.2,2416.6)" >2600</text>
<line x1='750.5' y1='2338.9' x2='737.1' y2='2353.9' style="stroke-width:4.0;stroke:rgb(0,0,0);stroke-linecap:round;fill:none;" />
<text x="735.3" y="2365.6" font-size="18.2px" font-family="CMUBright-Roman" style="text-anchor:end;fill:rgb(0,0,0);" transform="rotate(-48.2,735.3,2365.6)" >2650</text>
<line x1='694.1' y1='2284.9' x2='679.7' y2='2298.9' style="stroke-width:4.0;stroke:rgb(0,0,0);stroke-linecap:round;fill:none;" />
<text x="677.1" y="2310.5" font-size="18.2px" font-family="CMUBright-Roman" style="text-anchor:end;fill:rgb(0,0,0);" transform="rotate(-44.2,677.1,2310.5)" >2700</text>
<line x1='641.6' y1='2227.1' x2='626.3' y2='2240.1' style="stroke-width:4.0;stroke:rgb(0,0,0);stroke-linecap:round;fill:none;" />
<text x="622.9" y="2251.5" font-size="18.2px" font-family="CMUBright-Roman" style="text-anchor:end;fill:rgb(0,0,0);" transform="rotate(-40.3,622.9,2251.5)" >2750</text>
<line x1='593.2' y1='2165.8' x2='577.1' y2='2177.7' style="stroke-width:4.0;stroke:rgb(0,0,0);stroke-linecap:round;fill:none;" />
<text x="572.9" y="2188.8" font-size="18.2px" font-family="CMUBright-Roman" style="text-anchor:end;fill:rgb(0,0,0);" transform="rotate(-36.3,572.9,2188.8)" >2800</text>
<line x1='549.2' y1='2101.3' x2='532.3' y2='2112.0' style="stroke-width:4.0;stroke:rgb(0,0,0);stroke-linecap:round;fill:none;" />
<text x="527.3" y="2122.8" font-size="18.2px" font-family="CMUBright-Roman" style="text-anchor:end;fill:rgb(0,0,0);" transform="rotate(-32.3,527.3,2122.8)" >2850</text>
<line x1='509.8' y1='2033.9' x2='492.2' y2='2043.4' style="stroke-width:4.0;stroke:rgb(0,0,0);stroke-linecap:round;fill:none;" />
<text x="486.5" y="2053.9" font-size="18.2px" font-family="CMUBright-Roman" style="text-anchor:end;fill:rgb(0,0,0);" transform="rotate(-28.3,486.5,2053.9)" >2900</text>
<line x1='475.1' y1='1963.9' x2='456.9' y2='1972.2' style="stroke-width:4.0;stroke:rgb(0,0,0);stroke-linecap:round;fill:none;" />
<text x="450.5" y="1982.2" font-size="18.2px" font-family="CMUBright-Roman" style="text-anchor:end;fill:rgb(0,0,0);" transform="rotate(-24.4,450.5,1982.2)" >2950</text>
<line x1='445.4' y1='1891.7' x2='426.7' y2='1898.7' style="stroke-width:4.0;stroke:rgb(0,0,0);stroke-linecap:round;fill:none;" />
<text x="419.6" y="1908.3" font-size="18.2px" font-family="CMUBright-Roman" style="text-anchor:end;fill:rgb(0,0,0);" transform="rotate(-20.4,419.6,1908.3)" >3000</text>
<line x1='420.8' y1='1817.6' x2='401.6' y2='1823.3' style="stroke-width:4.0;stroke:rgb(0,0,0);stroke-linecap:round;fill:none;" />
<text x="393.8" y="1832.3" font-size="18.2px" font-family="CMUBright-Roman" style="text-anchor:end;fill:rgb(0,0,0);" transform="rotate(-16.4,393.8,1832.3)" >3050</text>
<line x1='401.3' y1='1742.0' x2='381.8' y2='1746.3' style="stroke-width:4.0;stroke:rgb(0,0,0);stroke-linecap:round;fill:none;" />
<text x="373.5" y="1754.8" font-size="18.2px" font-family="CMUBright-Roman" style="text-anchor:end;fill:rgb(0,0,0);" transform="rotate(-12.4,373.5,1754.8)" >3100</text>
<line x1='387.2' y1='1665.2' x2='367.4' y2='1668.1' style="stroke-width:4.0;stroke:rgb(0,0,0);stroke-linecap:round;fill:none;" />
<text x="358.5" y="1676.0" font-size="18.2px" font-family="CMUBright-Roman" style="text-anchor:end;fill:rgb(0,0,0);" transform="rotate(-8.4,358.5,1676.0)" >3150</text>
<line x1='378.4' y1='1587.6' x2='358.5' y2='1589.2' style="stroke-width:4.0;stroke:rgb(0,0,0);stroke-linecap:round;fill:none;" />
<text x="349.0" y="1596.4" font-size="18.2px" font-family="CMUBright-Roman" style="text-anchor:end;fill:rgb(0,0,0);" transform="rotate(-4.5,349.0,1596.4)" >3200</text>
<line x1='375.0' y1='1509.6' x2='355.0' y2='1509.8' style="stroke-width:4.0;stroke:rgb(0,0,0);stroke-linecap:round;fill:none;" />
<text x="345.1" y="1516.3" font-size="18.2px" font-family="CMUBright-Roman" style="text-anchor:end;fill:rgb(0,0,0);" transform="rotate(-0.5,345.1,1516.3)" >3250</text>
<line x1='377.1' y1='1431.5' x2='357.1' y2='1430.3' style="stroke-width:4.0;stroke:rgb(0,0,0);stroke-linecap:round;fill:none;" />
<text x="346.8" y="1436.2" font-size="18.2px" font-family="CMUBright-Roman" style="text-anchor:end;fill:rgb(0,0,0);" transform="rotate(3.5,346.8,1436.2)" >3300</text>
<line x1='384.5' y1='1353.8' x2='364.7' y2='1351.2' style="stroke-width:4.0;stroke:rgb(0,0,0);stroke-linecap:round;fill:none;" />
<text x="354.0" y="1356.3" font-size="18.2px" font-family="CMUBright-Roman" style="text-anchor:end;fill:rgb(0,0,0);" transform="rotate(7.5,354.0,1356.3)" >3350</text>
<line x1='397.4' y1='1276.8' x2='377.8' y2='1272.8' style="stroke-width:4.0;stroke:rgb(0,0,0);stroke-linecap:round;fill:none;" />
<text x="366.7" y="1277.2" font-size="18.2px" font-family="CMUBright-Roman" style="text-anchor:end;fill:rgb(0,0,0);" transform="rotate(11.4,366.7,1277.2)" >3400</text>
<line x1='415.5' y1='1200.8' x2='396.2' y2='1195.5' style="stroke-width:4.0;stroke:rgb(0,0,0);stroke-linecap:round;fill:none;" />
<text x="384.9" y="1199.1" font-size="18.2px" font-family="CMUBright-Roman" style="text-anchor:end;fill:rgb(0,0,0);" transform="rotate(15.4,384.9,1199.1)" >3450</text>
<line x1='438.9' y1='1126.3' x2='420.0' y2='1119.7' style="stroke-width:4.0;stroke:rgb(0,0,0);stroke-linecap:round;fill:none;" />
<text x="408.4" y="1122.5" font-size="18.2px" font-family="CMUBright-Roman" style="text-anchor:end;fill:rgb(0,0,0);" transform="rotate(19.4,408.4,1122.5)" >3500</text>
<line x1='467.4' y1='1053.6' x2='449.0' y2='1045.7' style="stroke-width:4.0;stroke:rgb(0,0,0);stroke-linecap:round;fill:none;" />
<text x="437.3" y="1047.7" font-size="18.2px" font-family="CMUBright-Roman" style="text-anchor:end;fill:rgb(0,0,0);" transform="rotate(23.4,437.3,1047.7)" >3550</text>
<line x1='500.8' y1='983.0' x2='483.0' y2='973.8' style="stroke-width:4.0;stroke:rgb(0,0,0);stroke-linecap:round;fill:none;" />
<text x="471.2" y="975.0" font-size="18.2px" font-family="CMUBright-Roman" style="text-anchor:end;fill:rgb(0,0,0);" transform="rotate(27.4,471.2,975.0)" >3600</text>
<line x1='539.1' y1='915.0' x2='522.0' y2='904.6' style="stroke-width:4.0;stroke:rgb(0,0,0);stroke-linecap:round;fill:none;" />
<text x="510.1" y="904.9" font-size="18.2px" font-family="CMUBright-Roman" style="text-anchor:end;fill:rgb(0,0,0);" transform="rotate(31.3,510.1,904.9)" >3650</text>
<line x1='582.0' y1='849.7' x2='565.7' y2='838.2' style="stroke-width:4.0;stroke:rgb(0,0,0);stroke-linecap:round;fill:none;" />
<text x="553.8" y="837.7" font-size="18.2px" font-family="CMUBright-Roman" style="text-anchor:end;fill:rgb(0,0,0);" transform="rotate(35.3,553.8,837.7)" >3700</text>
<line x1='629.3' y1='787.6' x2='613.8' y2='774.9' style="stroke-width:4.0;stroke:rgb(0,0,0);stroke-linecap:round;fill:none;" />
<text x="602.0" y="773.7" font-size="18.2px" font-family="CMUBright-Roman" style="text-anchor:end;fill:rgb(0,0,0);" transform="rotate(39.3,602.0,773.7)" >3750</text>
<line x1='680.8' y1='728.9' x2='666.3' y2='715.2' style="stroke-width:4.0;stroke:rgb(0,0,0);stroke-linecap:round;fill:none;" />
<text x="654.5" y="713.1" font-size="18.2px" font-family="CMUBright-Roman" style="text-anchor:end;fill:rgb(0,0,0);" transform="rotate(43.3,654.5,713.1)" >3800</text>
<line x1='736.3' y1='674.0' x2='722.7' y2='659.3' style="stroke-width:4.0;stroke:rgb(0,0,0);stroke-linecap:round;fill:none;" />
<text x="711.2" y="656.4" font-size="18.2px" font-family="CMUBright-Roman" style="text-anchor:end;fill:rgb(0,0,0);" transform="rotate(47.2,711.2,656.4)" >3850</text>
<line x1='795.4' y1='623.0' x2='782.9' y2='607.4' style="stroke-width:4.0;stroke:rgb(0,0,0);stroke-linecap:round;fill:none;" />
<text x="771.6" y="603.7" font-size="18.2px" font-family="CMUBright-Roman" style="text-anchor:end;fill:rgb(0,0,0);" transform="rotate(51.2,771.6,603.7)" >3900</text>
<line x1='858.0' y1='576.2' x2='846.5' y2='559.8' style="stroke-width:4.0;stroke:rgb(0,0,0);stroke-linecap:round;fill:none;" />
<text x="835.5" y="555.3" font-size="18.2px" font-family="CMUBright-Roman" style="text-anchor:end;fill:rgb(0,0,0);" transform="rotate(55.2,835.5,555.3)" >3950</text>
<line x1='923.6' y1='533.9' x2='913.3' y2='516.7' style="stroke-width:4.0;stroke:rgb(0,0,0);stroke-linecap:round;fill:none;" />
<text x="902.6" y="511.5" font-size="18.2px" font-family="CMUBright-Roman" style="text-anchor:end;fill:rgb(0,0,0);" transform="rotate(59.2,902.6,511.5)" >4000</text>
<line x1='992.0' y1='496.2' x2='983.0' y2='478.4' style="stroke-width:4.0;stroke:rgb(0,0,0);stroke-linecap:round;fill:none;" />
<text x="972.7" y="472.4" font-size="18.2px" font-family="CMUBright-Roman" style="text-anchor:end;fill:rgb(0,0,0);" transform="rotate(63.2,972.7,472.4)" >4050</text>
<line x1='1062.8' y1='463.4' x2='1055.1' y2='445.0' style="stroke-width:4.0;stroke:rgb(0,0,0);stroke-linecap:round;fill:none;" />
<text x="1045.2" y="438.3" font-size="18.2px" font-family="CMUBright-Roman" style="text-anchor:end;fill:rgb(0,0,0);" transform="rotate(67.1,1045.2,438.3)" >4100</text>
<line x1='1135.8' y1='435.6' x2='1129.3' y2='416.7' style="stroke-width:4.0;stroke:rgb(0,0,0);stroke-linecap:round;fill:none;" />
<text x="1120.0" y="409.3" font-size="18.2px" font-family="CMUBright-Roman" style="text-anchor:end;fill:rgb(0,0,0);" transform="rotate(71.1,1120.0,409.3)" >4150</text>
<line x1='1210.5' y1='412.9' x2='1205.4' y2='393.6' style="stroke-width:4.0;stroke:rgb(0,0,0);stroke-linecap:round;fill:none;" />
<text x="1196.5" y="385.6" font-size="18.2px" font-family="CMUBright-Roman" style="text-anchor:end;fill:rgb(0,0,0);" transform="rotate(75.1,1196.5,385.6)" >4200</text>
<line x1='1286.6' y1='395.4' x2='1282.8' y2='375.8' style="stroke-width:4.0;stroke:rgb(0,0,0);stroke-linecap:round;fill:none;" />
<text x="1274.6" y="367.2" font-size="18.2px" font-family="CMUBright-Roman" style="text-anchor:end;fill:rgb(0,0,0);" transform="rotate(79.1,1274.6,367.2)" >4250</text>
<line x1='1363.8' y1='383.3' x2='1361.3' y2='363.4' style="stroke-width:4.0;stroke:rgb(0,0,0);stroke-linecap:round;fill:none;" />
<text x="1353.7" y="354.3" font-size="18.2px" font-family="CMUBright-Roman" style="text-anchor:end;fill:rgb(0,0,0);" transform="rotate(83.0,1353.7,354.3)" >4300</text>
<g id="highlighttrack_0">
<path d="M1908.028,505.446 A1075.000,1075.000 40.000 0,1 1912.026,507.095 L1931.190,460.914 A1125.000,1125.000 0.000 0,0 1927.007,459.188 Z" style="stroke-width:4.0;stroke:rgb(0,0,0);stroke-linecap:round;fill:rgb(251,106,74);" />
<path d="M1978.971,537.601 A1075.000,1075.000 40.000 0,1 1982.838,539.536 L2005.296,494.863 A1125.000,1125.000 0.000 0,0 2001.249,492.838 Z" style="stroke-width:4.0;stroke:rgb(0,0,0);stroke-linecap:round;fill:rgb(251,106,74);" />
<path d="M2574.997,1502.505 A1075.000,1075.000 40.000 0,1 2574.978,1506.829 L2624.977,1507.147 A1125.000,1125.000 0.000 0,0 2624.997,1502.622 Z" style="stroke-width:4.0;stroke:rgb(0,0,0);stroke-linecap:round;fill:rgb(251,106,74);" />
<path d="M2124.621,2374.913 A1075.000,1075.000 40.000 0,1 2121.097,2377.419 L2149.985,2418.229 A1125.000,1125.000 0.000 0,0 2153.673,2415.607 Z" style="stroke-width:4.0;stroke:rgb(0,0,0);stroke-linecap:round;fill:rgb(251,106,74);" />
<path d="M765.794,714.783 A1075.000,1075.000 40.000 0,1 768.879,711.909 L734.874,675.254 A1125.000,1125.000 0.000 0,0 731.644,678.261 Z" style="stroke-width:4.0;stroke:rgb(0,0,0);stroke-linecap:round;fill:rgb(116,196,118);" />
<path d="M773.558,707.594 A1075.000,1075.000 40.000 0,1 776.751,704.678 L743.112,667.687 A1125.000,1125.000 0.000 0,0 739.770,670.738 Z" style="stroke-width:4.0;stroke:rgb(0,0,0);stroke-linecap:round;fill:rgb(116,196,118);" />
<path d="M1254.579,453.389 A1075.000,1075.000 40.000 0,1 1258.700,452.432 L1247.476,403.708 A1125.000,1125.000 0.000 0,0 1243.164,404.710 Z" style="stroke-width:4.0;stroke:rgb(0,0,0);stroke-linecap:round;fill:rgb(116,196,118);" />
<path d="M1370.658,432.809 A1075.000,1075.000 40.000 0,1 1374.845,432.310 L1369.024,382.650 A1125.000,1125.000 0.000 0,0 1364.642,383.173 Z" style="stroke-width:4.0;stroke:rgb(0,0,0);stroke-linecap:round;fill:rgb(116,196,118);" />
<path d="M1947.313,522.485 A1075.000,1075.000 40.000 0,1 1952.132,524.704 L1973.161,479.342 A1125.000,1125.000 0.000 0,0 1968.119,477.019 Z" style="stroke-width:4.0;stroke:rgb(0,0,0);stroke-linecap:round;fill:rgb(251,106,74);" />
<path d="M847.134,645.956 A1075.000,1075.000 40.000 0,1 849.711,643.992 L819.465,604.178 A1125.000,1125.000 0.000 0,0 816.768,606.234 Z" style="stroke-width:4.0;stroke:rgb(0,0,0);stroke-linecap:round;fill:rgb(116,196,118);" />
<path d="M1148.193,484.197 A1075.000,1075.000 40.000 0,1 1151.255,483.141 L1135.034,435.845 A1125.000,1125.000 0.000 0,0 1131.830,436.950 Z" style="stroke-width:4.0;stroke:rgb(0,0,0);stroke-linecap:round;fill:rgb(251,106,74);" />
</g>
</g>
<g id="track_0">
<path d="M 1903.948,515.391 A 1064.250,1064.250 0.00 0,1 1907.9,517.0 L 1907.9,517.0 1879.7,584.6 1853.3,646.9 1828.7,704.2 1805.7,756.9 1784.2,805.0 1764.3,848.8 1745.7,888.6 1728.5,924.5 1712.5,956.7 1697.7,985.3 1684.1,1010.5 1671.5,1032.5 1660.0,1051.2 1649.4,1066.9 1639.8,1079.6 1631.0,1089.4 1623.1,1096.4 1616.0,1100.5 1609.7,1101.8 1604.1,1100.3 1599.3,1096.0 1595.2,1088.9 1591.8,1078.9 1589.1,1066.1 1587.1,1050.3 1585.8,1031.4 1585.2,1009.3 1585.3,984.1 1586.1,955.4 1587.6,923.2 1589.8,887.4 1592.8,847.7 1596.7,803.9 1601.3,756.0 1606.8,703.6 1613.2,646.5 1620.5,584.5 1628.8,517.4 1638.1,444.8  A 1064.250,1064.250 0.00 0,0 1634.0,444.2 L 1634.0,444.2 1624.9,516.9 1616.9,584.1 1609.8,646.1 1603.6,703.2 1598.3,755.6 1593.9,803.6 1590.3,847.3 1587.4,887.0 1585.3,922.9 1583.9,955.1 1583.2,983.7 1583.2,1009.0 1583.9,1031.0 1585.3,1049.9 1587.4,1065.7 1590.1,1078.6 1593.6,1088.5 1597.7,1095.6 1602.5,1099.9 1608.1,1101.3 1614.4,1100.0 1621.5,1095.9 1629.3,1088.9 1638.1,1079.1 1647.7,1066.3 1658.2,1050.6 1669.6,1031.8 1682.1,1009.8 1695.7,984.5 1710.3,955.8 1726.2,923.6 1743.2,887.6 1761.6,847.8 1781.4,803.9 1802.7,755.6 1825.5,702.9 1849.9,645.5 1876.0,583.1 1903.9,515.4  Z" style="stroke-width: 2.0;  stroke: rgb(82,82,82); fill: rgb(251,106,74); opacity: 0.667;" />
<path d="M 1974.181,547.225 A 1064.250,1064.250 0.00 0,1 1978.0,549.1 L 1978.0,549.1 1944.9,614.5 1914.0,674.7 1885.0,730.0 1858.0,780.8 1832.8,827.1 1809.3,869.3 1787.4,907.5 1767.0,941.9 1748.1,972.6 1730.6,1000.0 1714.3,1023.9 1699.4,1044.7 1685.5,1062.4 1672.8,1077.1 1661.2,1088.8 1650.6,1097.7 1640.9,1103.8 1632.2,1107.2 1624.3,1107.8 1617.3,1105.6 1611.1,1100.7 1605.8,1093.0 1601.2,1082.6 1597.4,1069.2 1594.4,1053.0 1592.1,1033.7 1590.6,1011.3 1589.8,985.7 1589.9,956.7 1590.7,924.3 1592.3,888.2 1594.8,848.3 1598.1,804.4 1602.3,756.3 1607.4,703.8 1613.5,646.6 1620.7,584.6 1628.8,517.4 1638.1,444.8  A 1064.250,1064.250 0.00 0,0 1634.0,444.2 L 1634.0,444.2 1624.9,516.9 1617.0,584.1 1610.2,646.2 1604.3,703.4 1599.4,755.9 1595.3,804.0 1592.2,847.9 1589.9,887.8 1588.4,923.9 1587.7,956.4 1587.8,985.3 1588.6,1010.9 1590.2,1033.3 1592.6,1052.6 1595.7,1068.8 1599.5,1082.2 1604.1,1092.6 1609.5,1100.3 1615.7,1105.1 1622.7,1107.3 1630.6,1106.6 1639.3,1103.3 1649.0,1097.1 1659.6,1088.2 1671.1,1076.4 1683.8,1061.6 1697.5,1043.9 1712.4,1023.1 1728.6,999.0 1746.0,971.6 1764.8,940.8 1785.0,906.3 1806.7,868.0 1830.1,825.8 1855.1,779.3 1881.9,728.5 1910.7,673.0 1941.4,612.7 1974.2,547.2  Z" style="stroke-width: 2.0;  stroke: rgb(82,82,82); fill: rgb(116,196,118); opacity: 0.667;" />
<path d="M 1974.181,547.225 A 1064.250,1064.250 0.00 0,1 1978.0,549.1 L 1978.0,549.1 1945.1,614.5 1914.6,674.9 1886.4,730.5 1860.4,781.6 1836.4,828.4 1814.5,871.1 1794.4,909.9 1776.1,945.0 1759.5,976.5 1744.5,1004.7 1731.1,1029.5 1719.2,1051.2 1708.7,1069.9 1699.6,1085.7 1691.9,1098.5 1685.4,1108.7 1680.3,1116.0 1676.4,1120.7 1673.7,1122.7 1672.3,1122.0 1672.1,1118.7 1673.0,1112.7 1675.3,1104.0 1678.7,1092.5 1683.4,1078.2 1689.4,1061.1 1696.7,1041.0 1705.4,1017.7 1715.5,991.4 1727.0,961.7 1740.0,928.5 1754.6,891.7 1770.9,851.2 1788.9,806.6 1808.7,757.9 1830.4,704.9 1854.1,647.2 1879.9,584.7 1907.9,517.0  A 1064.250,1064.250 0.00 0,0 1903.9,515.4 L 1903.9,515.4 1876.2,583.1 1850.7,645.8 1827.2,703.5 1805.7,756.7 1786.1,805.5 1768.3,850.1 1752.2,890.7 1737.7,927.5 1724.8,960.7 1713.4,990.5 1703.4,1016.9 1694.9,1040.2 1687.6,1060.3 1681.7,1077.5 1677.1,1091.8 1673.7,1103.3 1671.5,1112.0 1670.5,1118.0 1670.8,1121.3 1672.2,1122.0 1674.9,1120.0 1678.7,1115.3 1683.9,1107.9 1690.3,1097.8 1697.9,1084.9 1707.0,1069.1 1717.4,1050.4 1729.2,1028.6 1742.5,1003.7 1757.3,975.5 1773.8,943.9 1792.0,908.7 1811.9,869.9 1833.7,827.1 1857.5,780.2 1883.3,729.0 1911.3,673.2 1941.5,612.7 1974.2,547.2  Z" style="stroke-width: 2.0;  stroke: rgb(82,82,82); fill: rgb(107,174,214); opacity: 0.667;" />
<path d="M 2564.247,1502.480 A 1064.250,1064.250 0.00 0,1 2564.2,1506.8 L 2564.2,1506.8 2490.7,1505.5 2422.1,1502.7 2358.1,1498.4 2298.5,1492.9 2242.9,1486.1 2191.1,1478.1 2142.8,1469.1 2097.9,1459.1 2056.0,1448.1 2017.1,1436.1 1980.8,1423.2 1947.0,1409.4 1915.5,1394.7 1886.2,1379.1 1858.8,1362.6 1833.4,1345.1 1809.7,1326.6 1787.6,1307.0 1767.1,1286.3 1748.0,1264.5 1730.3,1241.3 1714.0,1216.8 1698.8,1190.8 1685.0,1163.2 1672.3,1133.9 1660.8,1102.7 1650.6,1069.5 1641.5,1034.2 1633.7,996.4 1627.1,956.2 1621.9,913.2 1618.1,867.3 1615.7,818.3 1614.9,765.9 1615.7,709.9 1618.4,650.1 1622.9,586.1 1629.4,517.8 1638.1,444.8  A 1064.250,1064.250 0.00 0,0 1634.0,444.2 L 1634.0,444.2 1625.5,517.3 1619.2,585.6 1615.0,649.6 1612.6,709.5 1612.0,765.5 1613.0,817.9 1615.6,866.9 1619.6,912.8 1625.0,955.7 1631.7,995.9 1639.6,1033.6 1648.9,1068.9 1659.3,1102.1 1670.9,1133.2 1683.6,1162.5 1697.6,1190.0 1712.8,1215.9 1729.3,1240.4 1747.1,1263.5 1766.2,1285.3 1786.9,1305.9 1809.0,1325.3 1832.8,1343.7 1858.3,1361.1 1885.7,1377.6 1915.1,1393.1 1946.6,1407.6 1980.5,1421.3 2016.8,1434.0 2055.8,1445.8 2097.7,1456.7 2142.7,1466.5 2191.0,1475.4 2242.8,1483.1 2298.4,1489.7 2358.1,1495.0 2422.1,1498.9 2490.7,1501.5 2564.2,1502.5  Z" style="stroke-width: 2.0;  stroke: rgb(82,82,82); fill: rgb(253,141,60); opacity: 0.667;" />
<path d="M 2564.247,1502.480 A 1064.250,1064.250 0.00 0,1 2564.2,1506.8 L 2564.2,1506.8 2490.8,1505.6 2422.5,1503.1 2359.1,1499.5 2300.1,1494.7 2245.5,1488.8 2194.9,1481.9 2148.0,1474.0 2104.7,1465.2 2064.8,1455.5 2027.9,1444.9 1994.1,1433.4 1963.0,1421.0 1934.5,1407.8 1908.5,1393.6 1884.8,1378.6 1863.4,1362.5 1844.0,1345.5 1826.7,1327.4 1811.3,1308.2 1797.8,1287.8 1786.1,1266.2 1776.2,1243.2 1768.0,1218.8 1761.6,1192.8 1756.9,1165.1 1754.0,1135.6 1752.9,1104.2 1753.6,1070.8 1756.2,1035.1 1760.8,997.1 1767.4,956.5 1776.1,913.2 1787.1,867.0 1800.4,817.6 1816.3,765.0 1834.8,708.9 1856.1,649.0 1880.4,585.1 1907.9,517.0  A 1064.250,1064.250 0.00 0,0 1903.9,515.4 L 1903.9,515.4 1876.7,583.6 1852.7,647.5 1831.6,707.5 1813.3,763.7 1797.7,816.4 1784.5,865.8 1773.7,912.1 1765.2,955.4 1758.8,996.0 1754.4,1034.1 1751.9,1069.8 1751.3,1103.2 1752.6,1134.6 1755.6,1164.1 1760.4,1191.7 1766.9,1217.7 1775.2,1242.1 1785.2,1265.1 1796.9,1286.7 1810.5,1307.0 1826.0,1326.1 1843.4,1344.1 1862.8,1361.1 1884.3,1377.0 1908.1,1392.0 1934.1,1406.0 1962.7,1419.2 1993.8,1431.4 2027.7,1442.7 2064.6,1453.2 2104.6,1462.8 2147.9,1471.4 2194.8,1479.1 2245.4,1485.8 2300.1,1491.5 2359.0,1496.0 2422.5,1499.4 2490.8,1501.6 2564.2,1502.5  Z" style="stroke-width: 2.0;  stroke: rgb(82,82,82); fill: rgb(255,0,0); opacity: 0.667;" />
<path d="M 2564.247,1502.480 A 1064.250,1064.250 0.00 0,1 2564.2,1506.8 L 2564.2,1506.8 2490.8,1505.6 2422.6,1503.3 2359.3,1499.8 2300.5,1495.2 2246.1,1489.6 2195.8,1483.0 2149.3,1475.5 2106.4,1467.1 2067.0,1457.8 2030.7,1447.6 1997.4,1436.6 1967.0,1424.8 1939.3,1412.1 1914.2,1398.5 1891.4,1383.9 1871.0,1368.5 1852.8,1352.1 1836.7,1334.6 1822.7,1316.0 1810.6,1296.3 1800.4,1275.4 1792.2,1253.1 1785.9,1229.4 1781.4,1204.2 1778.8,1177.3 1778.1,1148.7 1779.4,1118.3 1782.7,1085.8 1788.0,1051.2 1795.4,1014.3 1805.1,974.9 1817.1,932.9 1831.6,888.1 1848.6,840.2 1868.4,789.2 1891.0,734.8 1916.7,676.8 1945.6,615.0 1978.0,549.1  A 1064.250,1064.250 0.00 0,0 1974.2,547.2 L 1974.2,547.2 1942.1,613.2 1913.4,675.2 1887.9,733.3 1865.5,787.8 1846.0,838.8 1829.1,886.7 1814.8,931.6 1803.0,973.7 1793.5,1013.1 1786.2,1050.0 1781.0,1084.7 1777.9,1117.2 1776.7,1147.6 1777.5,1176.2 1780.2,1203.0 1784.8,1228.2 1791.2,1251.9 1799.5,1274.2 1809.8,1295.1 1821.9,1314.7 1836.0,1333.2 1852.2,1350.6 1870.5,1367.0 1891.0,1382.4 1913.8,1396.8 1939.0,1410.3 1966.7,1422.9 1997.2,1434.6 2030.5,1445.5 2066.8,1455.5 2106.3,1464.7 2149.2,1472.9 2195.7,1480.2 2246.1,1486.6 2300.5,1492.0 2359.3,1496.3 2422.6,1499.6 2490.9,1501.7 2564.2,1502.5  Z" style="stroke-width: 2.0;  stroke: rgb(82,82,82); fill: rgb(255,0,204); opacity: 0.667;" />
<path d="M 2118.375,2366.164 A 1064.250,1064.250 0.00 0,1 2114.9,2368.6 L 2114.9,2368.6 2073.1,2307.6 2035.2,2248.5 2001.1,2191.4 1970.2,2136.2 1942.3,2082.8 1917.1,2031.0 1894.3,1980.9 1873.6,1932.2 1854.7,1885.0 1837.5,1839.1 1821.8,1794.3 1807.2,1750.7 1793.7,1708.0 1781.0,1666.1 1769.1,1625.0 1757.8,1584.4 1747.0,1544.3 1736.5,1504.5 1726.4,1464.9 1716.6,1425.3 1707.0,1385.5 1697.7,1345.5 1688.5,1305.0 1679.6,1263.8 1670.9,1221.9 1662.6,1179.0 1654.6,1134.9 1647.1,1089.5 1640.2,1042.6 1633.9,993.9 1628.5,943.4 1624.1,890.7 1620.9,835.7 1619.0,778.1 1618.7,717.9 1620.2,654.6 1623.8,588.2 1629.7,518.3 1638.1,444.8  A 1064.250,1064.250 0.00 0,0 1634.0,444.2 L 1634.0,444.2 1625.8,517.8 1620.2,587.7 1616.9,654.1 1615.6,717.4 1616.2,777.7 1618.3,835.2 1621.7,890.2 1626.3,942.9 1631.9,993.4 1638.4,1042.0 1645.5,1088.9 1653.2,1134.3 1661.3,1178.3 1669.8,1221.2 1678.7,1263.1 1687.7,1304.2 1697.1,1344.7 1706.6,1384.7 1716.3,1424.4 1726.3,1464.0 1736.6,1503.6 1747.1,1543.4 1758.1,1583.4 1769.6,1623.9 1781.7,1665.0 1794.5,1706.8 1808.2,1749.4 1822.9,1793.0 1838.9,1837.7 1856.3,1883.6 1875.3,1930.7 1896.2,1979.3 1919.2,2029.3 1944.6,2081.0 1972.7,2134.3 2003.8,2189.4 2038.2,2246.4 2076.3,2305.3 2118.4,2366.2  Z" style="stroke-width: 2.0;  stroke: rgb(82,82,82); fill: rgb(255,204,204); opacity: 0.667;" />
<path d="M 2118.375,2366.164 A 1064.250,1064.250 0.00 0,1 2114.9,2368.6 L 2114.9,2368.6 2073.1,2307.7 2035.4,2249.1 2001.4,2192.7 1970.9,2138.4 1943.5,2086.1 1919.0,2035.6 1897.1,1986.8 1877.5,1939.6 1860.0,1893.9 1844.4,1849.6 1830.6,1806.5 1818.2,1764.4 1807.3,1723.4 1797.6,1683.2 1789.0,1643.7 1781.4,1604.7 1774.7,1566.2 1768.9,1527.9 1763.8,1489.8 1759.6,1451.7 1756.0,1413.4 1753.3,1374.8 1751.3,1335.7 1750.1,1296.1 1749.8,1255.6 1750.4,1214.3 1752.0,1171.8 1754.7,1128.1 1758.7,1083.0 1764.1,1036.3 1771.1,987.9 1779.8,937.6 1790.4,885.1 1803.2,830.5 1818.3,773.4 1836.1,713.6 1856.8,651.1 1880.6,585.7 1907.9,517.0  A 1064.250,1064.250 0.00 0,0 1903.9,515.4 L 1903.9,515.4 1876.9,584.1 1853.3,649.7 1832.9,712.3 1815.4,772.1 1800.5,829.3 1787.9,884.0 1777.5,936.4 1769.0,986.8 1762.3,1035.3 1757.1,1082.0 1753.2,1127.1 1750.7,1170.8 1749.2,1213.3 1748.8,1254.6 1749.3,1295.1 1750.6,1334.7 1752.8,1373.8 1755.7,1412.4 1759.4,1450.6 1763.8,1488.8 1769.0,1526.9 1774.9,1565.1 1781.8,1603.6 1789.5,1642.5 1798.3,1682.0 1808.2,1722.2 1819.3,1763.2 1831.8,1805.1 1845.8,1848.2 1861.6,1892.5 1879.2,1938.1 1899.0,1985.2 1921.2,2033.9 1945.9,2084.3 1973.5,2136.5 2004.2,2190.7 2038.4,2247.0 2076.3,2305.4 2118.4,2366.2  Z" style="stroke-width: 2.0;  stroke: rgb(82,82,82); fill: rgb(255,153,0); opacity: 0.667;" />
<path d="M 2118.375,2366.164 A 1064.250,1064.250 0.00 0,1 2114.9,2368.6 L 2114.9,2368.6 2073.1,2307.8 2035.4,2249.3 2001.5,2193.1 1971.1,2139.1 1943.8,2087.0 1919.4,2036.9 1897.7,1988.5 1878.4,1941.8 1861.2,1896.6 1846.0,1852.7 1832.6,1810.2 1820.9,1768.7 1810.6,1728.2 1801.6,1688.6 1793.8,1649.7 1787.2,1611.3 1781.6,1573.4 1776.9,1535.8 1773.2,1498.3 1770.4,1460.8 1768.5,1423.2 1767.4,1385.3 1767.3,1347.0 1768.1,1308.1 1770.0,1268.4 1772.9,1227.9 1777.1,1186.3 1782.5,1143.6 1789.4,1099.5 1797.8,1053.9 1808.0,1006.6 1820.1,957.5 1834.4,906.4 1851.0,853.2 1870.2,797.7 1892.2,739.7 1917.3,679.0 1945.8,615.6 1978.0,549.1  A 1064.250,1064.250 0.00 0,0 1974.2,547.2 L 1974.2,547.2 1942.2,613.8 1914.0,677.3 1889.1,738.1 1867.3,796.2 1848.4,851.8 1832.0,905.1 1817.9,956.2 1806.0,1005.4 1796.0,1052.7 1787.8,1098.3 1781.1,1142.4 1775.8,1185.2 1771.8,1226.8 1769.0,1267.3 1767.4,1307.0 1766.7,1345.9 1767.0,1384.2 1768.2,1422.1 1770.2,1459.7 1773.2,1497.2 1777.1,1534.6 1781.9,1572.3 1787.6,1610.2 1794.4,1648.5 1802.3,1687.4 1811.5,1727.0 1821.9,1767.4 1833.9,1808.8 1847.5,1851.3 1862.8,1895.1 1880.1,1940.3 1899.7,1986.9 1921.6,2035.2 1946.2,2085.2 1973.6,2137.2 2004.3,2191.1 2038.4,2247.2 2076.3,2305.5 2118.4,2366.2  Z" style="stroke-width: 2.0;  stroke: rgb(82,82,82); fill: rgb(255,204,0); opacity: 0.667;" />
<path d="M 2118.375,2366.164 A 1064.250,1064.250 0.00 0,1 2114.9,2368.6 L 2114.9,2368.6 2073.0,2308.5 2035.0,2251.9 2000.7,2198.9 1970.0,2149.1 1942.6,2102.4 1918.3,2058.6 1897.0,2017.6 1878.6,1979.1 1862.9,1943.0 1849.7,1909.2 1839.0,1877.5 1830.8,1847.9 1824.8,1820.0 1821.1,1794.0 1819.6,1769.5 1820.2,1746.6 1823.0,1725.1 1828.0,1704.9 1835.0,1686.0 1844.3,1668.2 1855.7,1651.6 1869.5,1636.0 1885.5,1621.4 1903.9,1607.7 1924.8,1594.9 1948.3,1583.0 1974.6,1572.0 2003.7,1561.8 2035.7,1552.4 2071.0,1543.8 2109.5,1536.1 2151.7,1529.2 2197.5,1523.1 2247.3,1517.9 2301.3,1513.7 2359.7,1510.4 2422.8,1508.1 2490.9,1506.9 2564.2,1506.8  A 1064.250,1064.250 0.00 0,0 2564.2,1502.5 L 2564.2,1502.5 2490.9,1502.9 2422.8,1504.4 2359.7,1506.9 2301.3,1510.5 2247.4,1514.9 2197.6,1520.3 2151.8,1526.6 2109.7,1533.6 2071.1,1541.5 2035.9,1550.2 2003.9,1559.8 1974.9,1570.1 1948.7,1581.2 1925.2,1593.2 1904.3,1606.1 1886.0,1619.8 1870.0,1634.5 1856.4,1650.1 1845.0,1666.8 1835.8,1684.6 1828.8,1703.6 1823.9,1723.8 1821.2,1745.3 1820.6,1768.2 1822.3,1792.7 1826.1,1818.7 1832.2,1846.5 1840.6,1876.2 1851.3,1907.8 1864.6,1941.6 1880.5,1977.6 1899.1,2016.0 1920.6,2056.9 1945.0,2100.6 1972.6,2147.2 2003.6,2196.9 2038.0,2249.8 2076.2,2306.1 2118.4,2366.2  Z" style="stroke-width: 2.0;  stroke: rgb(82,82,82); fill: rgb(255,255,0); opacity: 0.667;" />
<path d="M 773.136,722.635 A 1064.250,1064.250 0.00 0,1 776.2,719.8 L 776.2,719.8 826.4,773.2 873.8,822.0 918.5,866.5 960.7,906.8 1000.4,943.3 1037.8,976.1 1073.1,1005.5 1106.4,1031.5 1137.9,1054.3 1167.5,1074.2 1195.6,1091.1 1222.1,1105.3 1247.2,1116.8 1270.9,1125.8 1293.5,1132.2 1314.9,1136.2 1335.3,1137.7 1354.7,1136.8 1373.3,1133.6 1391.0,1127.9 1408.1,1119.8 1424.4,1109.3 1440.1,1096.2 1455.3,1080.6 1470.0,1062.3 1484.2,1041.2 1498.0,1017.3 1511.3,990.4 1524.4,960.3 1537.1,926.9 1549.5,890.1 1561.5,849.6 1573.3,805.3 1584.9,756.8 1596.1,704.1 1607.1,646.8 1617.7,584.6 1628.1,517.4 1638.1,444.8  A 1064.250,1064.250 0.00 0,0 1634.0,444.2 L 1634.0,444.2 1624.2,516.9 1614.1,584.2 1603.7,646.3 1593.0,703.7 1581.9,756.5 1570.6,805.0 1559.0,849.4 1547.0,889.9 1534.8,926.8 1522.2,960.2 1509.3,990.3 1496.0,1017.3 1482.4,1041.3 1468.2,1062.4 1453.7,1080.7 1438.5,1096.4 1422.9,1109.6 1406.6,1120.2 1389.6,1128.3 1371.8,1134.1 1353.3,1137.4 1333.9,1138.3 1313.5,1136.9 1292.0,1133.0 1269.5,1126.7 1245.7,1117.8 1220.5,1106.4 1194.0,1092.3 1165.9,1075.5 1136.1,1055.7 1104.6,1033.0 1071.2,1007.1 1035.8,977.9 998.2,945.3 958.3,909.0 916.0,868.7 871.2,824.5 823.6,775.8 773.1,722.6  Z" style="stroke-width: 2.0;  stroke: rgb(82,82,82); fill: rgb(204,255,0); opacity: 0.667;" />
<path d="M 773.136,722.635 A 1064.250,1064.250 0.00 0,1 776.2,719.8 L 776.2,719.8 826.6,773.1 874.5,821.9 919.9,866.2 963.1,906.4 1004.1,942.7 1043.2,975.4 1080.3,1004.6 1115.7,1030.6 1149.5,1053.4 1181.8,1073.3 1212.7,1090.5 1242.3,1104.9 1270.8,1116.9 1298.2,1126.3 1324.7,1133.4 1350.3,1138.2 1375.3,1140.7 1399.5,1140.9 1423.3,1139.0 1446.6,1134.8 1469.6,1128.4 1492.2,1119.7 1514.7,1108.7 1537.1,1095.3 1559.5,1079.5 1582.0,1061.1 1604.5,1040.1 1627.3,1016.2 1650.3,989.4 1673.7,959.5 1697.4,926.3 1721.6,889.7 1746.3,849.4 1771.6,805.2 1797.4,756.9 1823.9,704.2 1851.2,646.9 1879.2,584.6 1907.9,517.0  A 1064.250,1064.250 0.00 0,0 1903.9,515.4 L 1903.9,515.4 1875.5,583.0 1847.7,645.5 1820.7,702.9 1794.4,755.7 1768.8,804.2 1743.7,848.4 1719.1,888.8 1695.1,925.6 1671.5,958.8 1648.2,988.8 1625.3,1015.7 1602.7,1039.6 1580.2,1060.8 1557.8,1079.3 1535.5,1095.2 1513.2,1108.7 1490.7,1119.8 1468.1,1128.5 1445.1,1135.0 1421.9,1139.3 1398.1,1141.3 1373.8,1141.2 1348.9,1138.8 1323.2,1134.1 1296.7,1127.1 1269.3,1117.8 1240.7,1106.0 1211.1,1091.6 1180.1,1074.6 1147.7,1054.8 1113.9,1032.1 1078.4,1006.3 1041.1,977.2 1001.9,944.7 960.8,908.5 917.4,868.5 871.8,824.3 823.8,775.8 773.1,722.6  Z" style="stroke-width: 2.0;  stroke: rgb(82,82,82); fill: rgb(0,255,0); opacity: 0.667;" />
<path d="M 773.136,722.635 A 1064.250,1064.250 0.00 0,1 776.2,719.8 L 776.2,719.8 826.7,773.1 874.6,821.8 920.3,866.2 963.8,906.4 1005.2,942.7 1044.6,975.4 1082.3,1004.6 1118.3,1030.6 1152.7,1053.5 1185.7,1073.6 1217.3,1090.9 1247.8,1105.5 1277.1,1117.7 1305.5,1127.4 1333.1,1134.9 1359.8,1140.0 1385.9,1143.0 1411.5,1143.8 1436.6,1142.4 1461.4,1138.9 1485.8,1133.2 1510.2,1125.4 1534.4,1115.2 1558.7,1102.8 1583.1,1088.0 1607.6,1070.8 1632.4,1050.9 1657.6,1028.3 1683.2,1002.9 1709.3,974.5 1736.0,942.9 1763.3,907.9 1791.3,869.3 1820.1,827.0 1849.8,780.5 1880.3,729.8 1911.9,674.6 1944.4,614.4 1978.0,549.1  A 1064.250,1064.250 0.00 0,0 1974.2,547.2 L 1974.2,547.2 1940.8,612.6 1908.5,672.9 1877.2,728.3 1846.9,779.1 1817.4,825.7 1788.8,868.2 1760.9,906.8 1733.7,941.9 1707.2,973.7 1681.2,1002.2 1655.7,1027.7 1630.6,1050.4 1605.9,1070.3 1581.4,1087.7 1557.1,1102.6 1532.9,1115.1 1508.7,1125.3 1484.4,1133.3 1459.9,1139.1 1435.2,1142.7 1410.1,1144.1 1384.5,1143.4 1358.4,1140.6 1331.6,1135.5 1304.1,1128.2 1275.6,1118.6 1246.2,1106.5 1215.7,1092.0 1184.0,1074.8 1150.9,1054.9 1116.4,1032.1 1080.3,1006.2 1042.6,977.1 1003.0,944.6 961.4,908.5 917.8,868.4 872.0,824.3 823.8,775.8 773.1,722.6  Z" style="stroke-width: 2.0;  stroke: rgb(82,82,82); fill: rgb(53,128,0); opacity: 0.667;" />
<path d="M 773.136,722.635 A 1064.250,1064.250 0.00 0,1 776.2,719.8 L 776.2,719.8 827.3,773.2 877.2,822.3 925.9,867.4 973.4,908.8 1019.8,946.9 1065.0,981.9 1109.1,1014.2 1152.1,1044.1 1194.2,1071.8 1235.3,1097.5 1275.6,1121.5 1315.1,1144.1 1353.9,1165.3 1392.0,1185.4 1429.7,1204.6 1466.9,1222.9 1503.9,1240.5 1540.7,1257.6 1577.4,1274.2 1614.2,1290.4 1651.3,1306.3 1688.7,1321.9 1726.7,1337.2 1765.4,1352.3 1804.9,1367.1 1845.5,1381.7 1887.4,1396.0 1930.6,1409.9 1975.6,1423.3 2022.3,1436.3 2071.2,1448.6 2122.3,1460.2 2175.9,1470.9 2232.3,1480.5 2291.6,1489.0 2354.2,1496.1 2420.4,1501.5 2490.3,1505.2 2564.2,1506.8  A 1064.250,1064.250 0.00 0,0 2564.2,1502.5 L 2564.2,1502.5 2490.3,1501.2 2420.4,1497.8 2354.2,1492.6 2291.6,1485.8 2232.2,1477.6 2175.8,1468.1 2122.1,1457.7 2070.9,1446.3 2022.1,1434.2 1975.3,1421.4 1930.3,1408.1 1887.0,1394.4 1845.0,1380.3 1804.4,1365.9 1764.8,1351.2 1726.0,1336.3 1688.0,1321.1 1650.5,1305.7 1613.4,1290.0 1576.5,1273.9 1539.7,1257.5 1502.9,1240.5 1465.8,1223.0 1428.5,1204.8 1390.8,1185.8 1352.5,1165.9 1313.7,1144.8 1274.1,1122.4 1233.7,1098.6 1192.5,1073.0 1150.3,1045.5 1107.2,1015.8 1062.9,983.6 1017.6,948.8 971.1,910.9 923.4,869.7 874.6,824.8 824.5,775.9 773.1,722.6  Z" style="stroke-width: 2.0;  stroke: rgb(82,82,82); fill: rgb(0,0,204); opacity: 0.667;" />
<path d="M 773.136,722.635 A 1064.250,1064.250 0.00 0,1 776.2,719.8 L 776.2,719.8 825.9,775.1 871.8,829.6 914.2,883.0 953.5,935.3 990.1,986.4 1024.4,1036.3 1056.5,1085.0 1086.9,1132.3 1115.9,1178.3 1143.6,1223.1 1170.4,1266.5 1196.5,1308.6 1222.2,1349.4 1247.6,1389.1 1273.0,1427.5 1298.5,1464.9 1324.3,1501.3 1350.5,1536.8 1377.4,1571.4 1404.9,1605.4 1433.3,1638.8 1462.6,1671.7 1492.9,1704.5 1524.3,1737.1 1556.7,1769.8 1590.3,1802.8 1625.0,1836.3 1660.8,1870.5 1697.8,1905.7 1735.9,1942.0 1775.0,1979.8 1815.1,2019.3 1856.1,2060.7 1897.9,2104.5 1940.4,2150.8 1983.5,2200.1 2027.1,2252.6 2070.9,2308.6 2114.9,2368.6  A 1064.250,1064.250 0.00 0,0 2118.4,2366.2 L 2118.4,2366.2 2074.2,2306.3 2030.1,2250.4 1986.4,2198.1 1943.1,2149.1 1900.3,2102.9 1858.4,2059.3 1817.2,2018.0 1776.9,1978.7 1737.7,1941.1 1699.5,1904.9 1662.3,1869.9 1626.3,1835.8 1591.5,1802.4 1557.8,1769.6 1525.2,1737.0 1493.8,1704.5 1463.3,1671.9 1433.9,1639.0 1405.4,1605.7 1377.7,1571.9 1350.7,1537.3 1324.3,1502.0 1298.3,1465.7 1272.7,1428.4 1247.2,1390.1 1221.6,1350.5 1195.8,1309.8 1169.5,1267.8 1142.5,1224.5 1114.6,1179.9 1085.5,1133.9 1054.9,1086.7 1022.6,1038.2 988.1,988.4 951.3,937.4 911.8,885.3 869.1,832.0 823.0,777.8 773.1,722.6  Z" style="stroke-width: 2.0;  stroke: rgb(82,82,82); fill: rgb(102,153,255); opacity: 0.667;" />
<path d="M 780.822,715.518 A 1064.250,1064.250 0.00 0,1 784.0,712.6 L 784.0,712.6 833.7,766.5 880.6,815.8 924.8,860.7 966.5,901.5 1005.8,938.4 1042.8,971.6 1077.8,1001.3 1110.8,1027.6 1141.9,1050.8 1171.2,1071.0 1199.0,1088.2 1225.2,1102.7 1250.1,1114.4 1273.6,1123.6 1296.0,1130.2 1317.2,1134.4 1337.4,1136.1 1356.6,1135.4 1375.0,1132.3 1392.6,1126.8 1409.5,1118.8 1425.7,1108.4 1441.3,1095.5 1456.3,1079.9 1470.9,1061.7 1485.0,1040.8 1498.6,1016.9 1511.9,990.1 1524.9,960.1 1537.5,926.7 1549.8,890.0 1561.8,849.5 1573.5,805.2 1585.0,756.8 1596.2,704.0 1607.1,646.7 1617.8,584.6 1628.1,517.4 1638.1,444.8  A 1064.250,1064.250 0.00 0,0 1634.0,444.2 L 1634.0,444.2 1624.2,516.9 1614.1,584.2 1603.7,646.3 1593.0,703.7 1582.1,756.4 1570.8,804.9 1559.2,849.3 1547.4,889.8 1535.2,926.6 1522.7,960.0 1509.9,990.0 1496.7,1016.9 1483.1,1040.8 1469.1,1061.9 1454.7,1080.1 1439.7,1095.7 1424.1,1108.7 1408.0,1119.2 1391.1,1127.2 1373.6,1132.8 1355.2,1136.0 1335.9,1136.8 1315.7,1135.1 1294.5,1131.1 1272.1,1124.5 1248.5,1115.4 1223.7,1103.8 1197.4,1089.4 1169.5,1072.3 1140.1,1052.3 1108.9,1029.2 1075.8,1003.0 1040.7,973.4 1003.5,940.4 964.1,903.7 922.2,863.0 877.8,818.3 830.8,769.2 780.8,715.5  Z" style="stroke-width: 2.0;  stroke: rgb(82,82,82); fill: rgb(153,204,255); opacity: 0.667;" />
<path d="M 780.822,715.518 A 1064.250,1064.250 0.00 0,1 784.0,712.6 L 784.0,712.6 833.9,766.5 881.2,815.7 926.2,860.5 968.9,901.1 1009.5,937.8 1048.2,970.9 1085.0,1000.5 1120.1,1026.8 1153.5,1050.0 1185.5,1070.2 1216.1,1087.6 1245.5,1102.3 1273.7,1114.5 1300.9,1124.2 1327.2,1131.5 1352.6,1136.5 1377.4,1139.2 1401.5,1139.6 1425.0,1137.8 1448.2,1133.8 1471.0,1127.5 1493.5,1119.0 1515.9,1108.1 1538.2,1094.8 1560.4,1079.0 1582.8,1060.7 1605.2,1039.7 1627.9,1015.9 1650.8,989.2 1674.1,959.4 1697.7,926.2 1721.9,889.6 1746.5,849.4 1771.7,805.2 1797.5,756.9 1824.0,704.2 1851.2,646.9 1879.2,584.6 1907.9,517.0  A 1064.250,1064.250 0.00 0,0 1903.9,515.4 L 1903.9,515.4 1875.5,583.0 1847.8,645.5 1820.8,702.9 1794.5,755.7 1768.9,804.1 1743.9,848.4 1719.4,888.7 1695.4,925.4 1671.9,958.7 1648.7,988.6 1625.9,1015.4 1603.4,1039.3 1581.0,1060.4 1558.7,1078.8 1536.5,1094.6 1514.3,1108.0 1492.0,1119.0 1469.5,1127.6 1446.7,1134.0 1423.6,1138.1 1400.0,1140.0 1375.9,1139.7 1351.2,1137.1 1325.7,1132.2 1299.4,1125.0 1272.2,1115.4 1243.9,1103.4 1214.5,1088.7 1183.8,1071.4 1151.7,1051.3 1118.2,1028.3 1083.0,1002.1 1046.1,972.7 1007.3,939.8 966.5,903.2 923.6,862.8 878.5,818.2 830.9,769.2 780.8,715.5  Z" style="stroke-width: 2.0;  stroke: rgb(82,82,82); fill: rgb(0,255,255); opacity: 0.667;" />
<path d="M 780.822,715.518 A 1064.250,1064.250 0.00 0,1 784.0,712.6 L 784.0,712.6 833.9,766.5 881.4,815.7 926.6,860.4 969.6,901.1 1010.6,937.8 1049.7,970.9 1087.0,1000.5 1122.6,1026.8 1156.7,1050.1 1189.4,1070.4 1220.8,1088.0 1251.0,1102.9 1280.1,1115.3 1308.3,1125.3 1335.6,1133.0 1362.1,1138.4 1388.0,1141.5 1413.4,1142.5 1438.4,1141.3 1462.9,1137.9 1487.3,1132.4 1511.5,1124.6 1535.6,1114.6 1559.7,1102.3 1584.0,1087.6 1608.4,1070.4 1633.1,1050.6 1658.2,1028.1 1683.7,1002.7 1709.7,974.3 1736.3,942.8 1763.6,907.8 1791.5,869.3 1820.3,826.9 1849.9,780.5 1880.4,729.8 1911.9,674.6 1944.4,614.4 1978.0,549.1  A 1064.250,1064.250 0.00 0,0 1974.2,547.2 L 1974.2,547.2 1940.8,612.6 1908.6,672.9 1877.3,728.3 1847.0,779.1 1817.6,825.6 1789.0,868.1 1761.2,906.8 1734.1,941.8 1707.6,973.5 1681.7,1002.0 1656.3,1027.5 1631.3,1050.1 1606.7,1070.0 1582.3,1087.2 1558.1,1102.0 1534.0,1114.5 1510.0,1124.6 1485.8,1132.4 1461.5,1138.1 1436.9,1141.5 1412.0,1142.8 1386.6,1142.0 1360.7,1138.9 1334.1,1133.6 1306.7,1126.1 1278.5,1116.2 1249.4,1103.9 1219.1,1089.1 1187.7,1071.7 1154.9,1051.5 1120.7,1028.3 1085.0,1002.1 1047.5,972.7 1008.3,939.8 967.2,903.2 924.0,862.7 878.6,818.1 831.0,769.2 780.8,715.5  Z" style="stroke-width: 2.0;  stroke: rgb(82,82,82); fill: rgb(204,255,255); opacity: 0.667;" />
<path d="M 780.822,715.518 A 1064.250,1064.250 0.00 0,1 784.0,712.6 L 784.0,712.6 834.6,766.6 884.0,816.2 932.2,861.7 979.3,903.6 1025.2,942.1 1070.0,977.5 1113.7,1010.2 1156.4,1040.5 1198.2,1068.5 1239.0,1094.6 1279.0,1118.9 1318.2,1141.7 1356.8,1163.2 1394.7,1183.6 1432.1,1203.0 1469.2,1221.5 1505.9,1239.4 1542.5,1256.6 1579.1,1273.4 1615.8,1289.8 1652.7,1305.8 1690.0,1321.5 1727.8,1336.9 1766.4,1352.1 1805.8,1367.0 1846.3,1381.6 1888.0,1395.9 1931.2,1409.8 1976.0,1423.3 2022.7,1436.3 2071.5,1448.6 2122.5,1460.2 2176.1,1470.9 2232.4,1480.6 2291.7,1489.0 2354.3,1496.1 2420.4,1501.5 2490.3,1505.2 2564.2,1506.8  A 1064.250,1064.250 0.00 0,0 2564.2,1502.5 L 2564.2,1502.5 2490.3,1501.2 2420.4,1497.8 2354.3,1492.6 2291.7,1485.8 2232.3,1477.6 2175.9,1468.2 2122.3,1457.7 2071.3,1446.3 2022.5,1434.2 1975.7,1421.4 1930.8,1408.1 1887.6,1394.3 1845.8,1380.2 1805.2,1365.7 1765.8,1351.0 1727.1,1336.0 1689.2,1320.7 1651.9,1305.1 1614.9,1289.3 1578.2,1273.1 1541.6,1256.5 1504.9,1239.4 1468.1,1221.7 1430.9,1203.3 1393.4,1184.0 1355.4,1163.8 1316.8,1142.5 1277.5,1119.8 1237.4,1095.6 1196.5,1069.7 1154.6,1041.8 1111.8,1011.8 1067.9,979.2 1022.9,944.0 976.9,905.7 929.6,864.0 881.2,818.6 831.6,769.3 780.8,715.5  Z" style="stroke-width: 2.0;  stroke: rgb(82,82,82); fill: rgb(153,0,204); opacity: 0.667;" />
<path d="M 780.822,715.518 A 1064.250,1064.250 0.00 0,1 784.0,712.6 L 784.0,712.6 833.1,768.5 878.5,823.4 920.4,877.2 959.2,929.9 995.4,981.4 1029.1,1031.7 1060.9,1080.7 1090.9,1128.4 1119.4,1174.7 1146.8,1219.7 1173.2,1263.4 1199.0,1305.7 1224.4,1346.8 1249.5,1386.6 1274.6,1425.3 1299.8,1462.9 1325.4,1499.4 1351.5,1535.1 1378.1,1569.9 1405.6,1604.0 1433.8,1637.5 1463.0,1670.6 1493.2,1703.5 1524.4,1736.2 1556.8,1769.0 1590.3,1802.1 1625.0,1835.7 1660.8,1870.0 1697.8,1905.3 1735.8,1941.7 1774.9,1979.5 1815.0,2019.1 1856.0,2060.6 1897.9,2104.4 1940.4,2150.8 1983.5,2200.0 2027.1,2252.6 2070.9,2308.6 2114.9,2368.6  A 1064.250,1064.250 0.00 0,0 2118.4,2366.2 L 2118.4,2366.2 2074.2,2306.3 2030.1,2250.4 1986.3,2198.1 1943.0,2149.0 1900.3,2102.8 1858.3,2059.1 1817.1,2017.8 1776.8,1978.4 1737.6,1940.7 1699.4,1904.5 1662.3,1869.4 1626.3,1835.2 1591.5,1801.8 1557.9,1768.8 1525.4,1736.1 1494.0,1703.5 1463.7,1670.8 1434.4,1637.8 1406.0,1604.3 1378.4,1570.4 1351.6,1535.7 1325.4,1500.1 1299.7,1463.7 1274.3,1426.2 1249.0,1387.7 1223.7,1347.9 1198.2,1306.9 1172.3,1264.7 1145.6,1221.1 1118.1,1176.2 1089.4,1130.0 1059.2,1082.5 1027.3,1033.6 993.3,983.5 956.9,932.1 917.9,879.5 875.7,825.9 830.2,771.2 780.8,715.5  Z" style="stroke-width: 2.0;  stroke: rgb(82,82,82); fill: rgb(204,51,255); opacity: 0.667;" />
<path d="M 780.822,715.518 A 1064.250,1064.250 0.00 0,1 784.0,712.6 L 784.0,712.6 833.2,766.8 878.7,816.8 920.7,863.0 959.2,905.4 994.5,944.4 1026.8,979.9 1056.1,1012.3 1082.7,1041.6 1106.5,1068.0 1127.9,1091.6 1146.8,1112.6 1163.3,1131.0 1177.6,1146.9 1189.7,1160.4 1199.6,1171.5 1207.5,1180.4 1213.3,1187.1 1217.1,1191.6 1219.0,1193.9 1218.8,1194.0 1216.7,1192.0 1212.5,1187.8 1206.4,1181.5 1198.2,1172.9 1187.9,1162.0 1175.5,1148.8 1160.8,1133.2 1143.9,1115.2 1124.7,1094.6 1102.9,1071.3 1078.7,1045.3 1051.7,1016.3 1021.9,984.4 989.2,949.2 953.4,910.7 914.4,868.7 872.0,823.0 826.0,773.4 776.2,719.8  A 1064.250,1064.250 0.00 0,0 773.1,722.6 L 773.1,722.6 823.1,776.1 869.3,825.5 912.0,871.0 951.1,912.9 987.1,951.2 1019.9,986.3 1049.8,1018.1 1076.9,1046.9 1101.3,1072.9 1123.1,1096.1 1142.4,1116.6 1159.4,1134.6 1174.1,1150.1 1186.6,1163.2 1196.9,1174.1 1205.1,1182.6 1211.3,1189.0 1215.4,1193.1 1217.6,1195.1 1217.7,1195.0 1215.9,1192.7 1212.1,1188.2 1206.2,1181.6 1198.3,1172.7 1188.3,1161.6 1176.2,1148.1 1161.9,1132.3 1145.2,1114.0 1126.3,1093.1 1104.8,1069.6 1080.8,1043.3 1054.2,1014.1 1024.7,981.8 992.3,946.4 956.8,907.6 918.1,865.3 876.0,819.4 830.3,769.5 780.8,715.5  Z" style="stroke-width: 2.0;  stroke: rgb(82,82,82); fill: rgb(204,153,255); opacity: 0.667;" />
<path d="M 1257.033,463.856 A 1064.250,1064.250 0.00 0,1 1261.1,462.9 L 1261.1,462.9 1277.8,534.2 1293.6,600.0 1308.6,660.7 1323.0,716.4 1336.6,767.4 1349.6,813.9 1361.9,856.2 1373.7,894.5 1385.0,928.9 1395.8,959.6 1406.1,986.7 1416.0,1010.5 1425.5,1030.9 1434.6,1048.2 1443.5,1062.4 1452.0,1073.6 1460.3,1081.9 1468.4,1087.3 1476.4,1089.8 1484.1,1089.4 1491.8,1086.1 1499.3,1080.0 1506.8,1071.0 1514.2,1059.0 1521.7,1044.0 1529.1,1025.9 1536.6,1004.6 1544.2,980.1 1551.8,952.0 1559.6,920.4 1567.5,885.1 1575.6,845.9 1583.8,802.6 1592.3,755.1 1600.9,703.0 1609.8,646.2 1619.0,584.4 1628.4,517.3 1638.1,444.8  A 1064.250,1064.250 0.00 0,0 1634.0,444.2 L 1634.0,444.2 1624.5,516.8 1615.4,583.9 1606.4,645.7 1597.8,702.6 1589.3,754.7 1581.1,802.3 1573.0,845.6 1565.1,884.9 1557.3,920.2 1549.7,951.8 1542.1,979.9 1534.7,1004.5 1527.3,1025.8 1519.9,1044.0 1512.5,1059.0 1505.1,1071.0 1497.6,1080.0 1490.1,1086.2 1482.5,1089.4 1474.7,1089.8 1466.8,1087.4 1458.7,1082.1 1450.3,1073.8 1441.7,1062.7 1432.8,1048.5 1423.6,1031.2 1414.0,1010.8 1404.0,987.1 1393.6,960.0 1382.7,929.3 1371.3,895.0 1359.4,856.8 1346.9,814.5 1333.7,768.0 1319.9,717.1 1305.3,661.4 1290.1,600.9 1274.0,535.1 1257.0,463.9  Z" style="stroke-width: 2.0;  stroke: rgb(82,82,82); fill: rgb(102,102,102); opacity: 0.667;" />
<path d="M 1257.033,463.856 A 1064.250,1064.250 0.00 0,1 1261.1,462.9 L 1261.1,462.9 1277.9,534.2 1294.2,600.1 1310.1,660.7 1325.5,716.5 1340.4,767.6 1355.0,814.3 1369.3,856.8 1383.2,895.3 1396.9,930.0 1410.3,961.1 1423.5,988.8 1436.5,1013.1 1449.4,1034.2 1462.3,1052.3 1475.1,1067.3 1487.9,1079.5 1500.7,1088.9 1513.7,1095.5 1526.8,1099.3 1540.1,1100.4 1553.7,1098.8 1567.6,1094.5 1581.8,1087.4 1596.5,1077.5 1611.6,1064.8 1627.3,1049.1 1643.5,1030.4 1660.4,1008.6 1678.0,983.5 1696.4,955.1 1715.7,923.1 1735.8,887.5 1756.9,847.9 1779.0,804.3 1802.3,756.4 1826.7,704.0 1852.4,646.8 1879.5,584.5 1907.9,517.0  A 1064.250,1064.250 0.00 0,0 1903.9,515.4 L 1903.9,515.4 1875.8,583.0 1849.0,645.4 1823.5,702.7 1799.3,755.2 1776.2,803.2 1754.3,846.9 1733.3,886.5 1713.3,922.3 1694.2,954.3 1676.0,982.8 1658.5,1007.9 1641.6,1029.8 1625.5,1048.6 1609.9,1064.3 1594.8,1077.1 1580.2,1087.1 1566.0,1094.2 1552.1,1098.6 1538.5,1100.3 1525.2,1099.2 1512.1,1095.4 1499.1,1088.9 1486.2,1079.6 1473.3,1067.4 1460.5,1052.4 1447.6,1034.4 1434.6,1013.3 1421.5,989.1 1408.1,961.5 1394.6,930.4 1380.8,895.8 1366.7,857.3 1352.3,814.9 1337.6,768.2 1322.4,717.2 1306.8,661.5 1290.7,600.9 1274.1,535.1 1257.0,463.9  Z" style="stroke-width: 2.0;  stroke: rgb(82,82,82); fill: rgb(153,153,153); opacity: 0.667;" />
<path d="M 1257.033,463.856 A 1064.250,1064.250 0.00 0,1 1261.1,462.9 L 1261.1,462.9 1278.0,534.2 1294.4,600.1 1310.5,660.8 1326.2,716.6 1341.5,767.8 1356.5,814.6 1371.3,857.2 1385.8,895.8 1400.1,930.7 1414.2,962.0 1428.1,989.9 1442.0,1014.5 1455.8,1035.9 1469.6,1054.3 1483.5,1069.8 1497.4,1082.4 1511.5,1092.3 1525.7,1099.4 1540.2,1103.9 1554.9,1105.6 1570.0,1104.8 1585.6,1101.2 1601.5,1095.0 1618.1,1086.0 1635.2,1074.2 1653.0,1059.6 1671.5,1042.1 1690.8,1021.5 1711.0,997.7 1732.1,970.7 1754.2,940.1 1777.5,906.0 1801.9,868.1 1827.6,826.3 1854.7,780.2 1883.1,729.7 1913.1,674.5 1944.7,614.4 1978.0,549.1  A 1064.250,1064.250 0.00 0,0 1974.2,547.2 L 1974.2,547.2 1941.2,612.6 1909.8,672.8 1880.0,728.1 1851.8,778.7 1824.9,824.9 1799.4,866.9 1775.1,904.9 1752.0,939.1 1730.0,969.7 1708.9,996.9 1688.9,1020.7 1669.6,1041.4 1651.2,1059.0 1633.5,1073.7 1616.4,1085.5 1599.9,1094.6 1584.0,1100.9 1568.5,1104.5 1553.4,1105.4 1538.6,1103.7 1524.1,1099.3 1509.8,1092.2 1495.7,1082.4 1481.8,1069.9 1467.9,1054.4 1454.0,1036.1 1440.1,1014.7 1426.1,990.2 1412.0,962.4 1397.8,931.1 1383.4,896.3 1368.7,857.7 1353.8,815.1 1338.6,768.4 1323.1,717.3 1307.2,661.5 1290.9,600.9 1274.2,535.1 1257.0,463.9  Z" style="stroke-width: 2.0;  stroke: rgb(82,82,82); fill: rgb(204,204,204); opacity: 0.667;" />
<path d="M 1257.033,463.856 A 1064.250,1064.250 0.00 0,1 1261.1,462.9 L 1261.1,462.9 1278.6,534.5 1296.8,601.2 1315.7,663.4 1335.2,721.3 1355.2,775.3 1375.6,825.6 1396.5,872.6 1417.7,916.4 1439.3,957.4 1461.2,995.6 1483.4,1031.5 1506.0,1065.1 1528.9,1096.7 1552.3,1126.4 1576.0,1154.4 1600.2,1180.9 1625.0,1205.9 1650.4,1229.7 1676.4,1252.3 1703.2,1273.8 1731.0,1294.3 1759.7,1313.8 1789.5,1332.5 1820.7,1350.4 1853.2,1367.5 1887.3,1383.7 1923.1,1399.2 1960.8,1413.9 2000.7,1427.8 2042.8,1440.8 2087.5,1452.9 2134.9,1464.1 2185.3,1474.2 2238.8,1483.1 2295.9,1490.9 2356.7,1497.2 2421.5,1502.1 2490.6,1505.3 2564.2,1506.8  A 1064.250,1064.250 0.00 0,0 2564.2,1502.5 L 2564.2,1502.5 2490.6,1501.3 2421.5,1498.4 2356.7,1493.8 2295.8,1487.7 2238.8,1480.2 2185.1,1471.4 2134.7,1461.5 2087.3,1450.6 2042.6,1438.6 2000.4,1425.8 1960.5,1412.1 1922.7,1397.5 1886.8,1382.2 1852.6,1366.0 1820.1,1349.1 1788.9,1331.4 1758.9,1312.8 1730.1,1293.3 1702.3,1273.0 1675.4,1251.6 1649.3,1229.1 1623.8,1205.4 1599.0,1180.5 1574.6,1154.1 1550.8,1126.2 1527.4,1096.6 1504.3,1065.1 1481.6,1031.6 1459.2,995.8 1437.1,957.6 1415.4,916.7 1394.0,873.0 1373.0,826.1 1352.3,775.9 1332.1,722.0 1312.4,664.1 1293.3,602.0 1274.8,535.4 1257.0,463.9  Z" style="stroke-width: 2.0;  stroke: rgb(82,82,82); fill: rgb(204,204,153); opacity: 0.667;" />
<path d="M 1257.033,463.856 A 1064.250,1064.250 0.00 0,1 1261.1,462.9 L 1261.1,462.9 1278.9,535.0 1298.1,603.1 1318.3,667.5 1339.3,728.5 1361.0,786.4 1383.1,841.5 1405.5,894.0 1428.0,944.2 1450.4,992.3 1472.6,1038.6 1494.6,1083.3 1516.2,1126.5 1537.4,1168.6 1558.1,1209.8 1578.3,1250.1 1597.9,1289.9 1616.9,1329.3 1635.5,1368.5 1653.5,1407.7 1671.1,1446.9 1688.3,1486.4 1705.2,1526.3 1721.9,1566.8 1738.5,1607.9 1755.3,1649.8 1772.2,1692.7 1789.5,1736.5 1807.4,1781.4 1826.1,1827.6 1845.8,1875.0 1866.8,1923.7 1889.3,1973.9 1913.6,2025.6 1940.0,2078.7 1968.8,2133.5 2000.3,2189.8 2034.9,2247.8 2073.0,2307.4 2114.9,2368.6  A 1064.250,1064.250 0.00 0,0 2118.4,2366.2 L 2118.4,2366.2 2076.2,2305.1 2037.9,2245.6 2003.1,2187.8 1971.3,2131.6 1942.3,2077.0 1915.7,2023.9 1891.2,1972.3 1868.5,1922.3 1847.3,1873.6 1827.4,1826.3 1808.5,1780.2 1790.4,1735.3 1773.0,1691.6 1755.9,1648.8 1739.0,1607.0 1722.2,1565.9 1705.3,1525.5 1688.2,1485.7 1670.9,1446.2 1653.2,1407.1 1635.0,1368.0 1616.3,1328.9 1597.1,1289.5 1577.3,1249.8 1557.0,1209.5 1536.1,1168.5 1514.8,1126.5 1493.0,1083.3 1470.8,1038.7 1448.4,992.5 1425.8,944.5 1403.1,894.4 1380.5,842.0 1358.2,787.0 1336.3,729.1 1315.0,668.2 1294.5,603.9 1275.1,535.8 1257.0,463.9  Z" style="stroke-width: 2.0;  stroke: rgb(82,82,82); fill: rgb(251,106,74); opacity: 0.667;" />
<path d="M 1257.033,463.856 A 1064.250,1064.250 0.00 0,1 1261.1,462.9 L 1261.1,462.9 1277.2,534.4 1291.5,600.6 1304.1,661.9 1315.0,718.6 1324.3,770.8 1332.1,818.9 1338.5,862.9 1343.4,903.2 1347.1,939.8 1349.4,973.0 1350.4,1003.0 1350.3,1029.8 1348.9,1053.6 1346.3,1074.5 1342.5,1092.6 1337.5,1108.1 1331.3,1120.9 1323.8,1131.2 1315.1,1138.9 1305.1,1144.2 1293.8,1147.1 1281.1,1147.4 1267.0,1145.4 1251.4,1140.8 1234.3,1133.8 1215.5,1124.2 1195.1,1112.0 1172.8,1097.1 1148.6,1079.4 1122.5,1058.8 1094.2,1035.2 1063.7,1008.5 1030.8,978.5 995.5,945.0 957.5,908.0 916.7,867.1 873.0,822.3 826.2,773.3 776.2,719.8  A 1064.250,1064.250 0.00 0,0 773.1,722.6 L 773.1,722.6 823.4,775.9 870.4,824.8 914.2,869.4 955.2,910.1 993.3,947.0 1028.8,980.3 1061.7,1010.2 1092.4,1036.8 1120.7,1060.3 1147.0,1080.8 1171.2,1098.4 1193.5,1113.2 1214.1,1125.3 1232.9,1134.8 1250.0,1141.8 1265.6,1146.3 1279.8,1148.3 1292.4,1147.9 1303.7,1145.0 1313.7,1139.7 1322.4,1131.9 1329.8,1121.6 1335.9,1108.7 1340.9,1093.2 1344.6,1075.1 1347.1,1054.2 1348.4,1030.4 1348.5,1003.5 1347.3,973.6 1344.9,940.4 1341.1,903.8 1335.9,863.6 1329.4,819.5 1321.4,771.5 1311.9,719.3 1300.8,662.7 1288.0,601.4 1273.4,535.2 1257.0,463.9  Z" style="stroke-width: 2.0;  stroke: rgb(82,82,82); fill: rgb(116,196,118); opacity: 0.667;" />
<path d="M 1257.033,463.856 A 1064.250,1064.250 0.00 0,1 1261.1,462.9 L 1261.1,462.9 1277.2,534.4 1291.6,600.6 1304.1,661.9 1315.1,718.6 1324.4,770.8 1332.3,818.8 1338.7,862.8 1343.7,903.0 1347.4,939.6 1349.8,972.7 1351.0,1002.6 1350.9,1029.3 1349.6,1053.0 1347.1,1073.9 1343.5,1091.9 1338.6,1107.2 1332.5,1120.0 1325.2,1130.1 1316.6,1137.7 1306.8,1142.9 1295.7,1145.5 1283.2,1145.8 1269.3,1143.5 1253.9,1138.8 1237.0,1131.5 1218.4,1121.7 1198.2,1109.2 1176.2,1094.1 1152.3,1076.1 1126.5,1055.2 1098.5,1031.3 1068.3,1004.3 1035.8,973.9 1000.9,940.1 963.3,902.7 923.0,861.4 879.8,816.1 833.5,766.6 784.0,712.6  A 1064.250,1064.250 0.00 0,0 780.8,715.5 L 780.8,715.5 830.5,769.3 877.0,818.6 920.4,863.7 960.9,904.8 998.6,942.1 1033.7,975.8 1066.3,1006.0 1096.6,1032.9 1124.7,1056.7 1150.6,1077.5 1174.6,1095.4 1196.6,1110.5 1216.9,1122.8 1235.5,1132.6 1252.4,1139.8 1267.9,1144.4 1281.8,1146.6 1294.3,1146.4 1305.4,1143.6 1315.2,1138.5 1323.7,1130.8 1331.0,1120.6 1337.0,1107.9 1341.9,1092.5 1345.5,1074.5 1347.9,1053.6 1349.1,1029.9 1349.0,1003.2 1347.8,973.3 1345.2,940.2 1341.4,903.6 1336.2,863.4 1329.6,819.4 1321.5,771.5 1312.0,719.3 1300.8,662.7 1288.0,601.4 1273.4,535.2 1257.0,463.9  Z" style="stroke-width: 2.0;  stroke: rgb(82,82,82); fill: rgb(107,174,214); opacity: 0.667;" />
<path d="M 1371.952,443.481 A 1064.250,1064.250 0.00 0,1 1376.1,443.0 L 1376.1,443.0 1384.8,515.7 1393.1,582.8 1401.1,644.7 1408.8,701.6 1416.2,753.8 1423.3,801.4 1430.2,844.7 1436.8,884.0 1443.2,919.3 1449.5,950.8 1455.5,978.8 1461.4,1003.3 1467.2,1024.5 1472.8,1042.5 1478.4,1057.3 1483.9,1069.1 1489.3,1077.9 1494.7,1083.7 1500.1,1086.6 1505.5,1086.7 1510.9,1083.8 1516.4,1078.1 1521.9,1069.3 1527.6,1057.6 1533.3,1042.9 1539.2,1025.0 1545.3,1003.9 1551.5,979.5 1557.9,951.6 1564.6,920.1 1571.5,884.9 1578.7,845.7 1586.1,802.5 1593.9,755.0 1602.0,702.9 1610.4,646.1 1619.3,584.4 1628.5,517.3 1638.1,444.8  A 1064.250,1064.250 0.00 0,0 1634.0,444.2 L 1634.0,444.2 1624.6,516.8 1615.6,583.9 1607.0,645.7 1598.8,702.5 1590.9,754.6 1583.3,802.2 1576.1,845.4 1569.1,884.6 1562.3,919.8 1555.8,951.3 1549.5,979.3 1543.3,1003.7 1537.4,1024.8 1531.5,1042.7 1525.8,1057.5 1520.2,1069.3 1514.7,1078.0 1509.3,1083.8 1503.9,1086.7 1498.5,1086.7 1493.1,1083.7 1487.6,1077.9 1482.2,1069.1 1476.6,1057.4 1471.0,1042.6 1465.3,1024.6 1459.5,1003.5 1453.5,979.0 1447.3,951.0 1440.9,919.5 1434.4,884.2 1427.6,845.0 1420.6,801.7 1413.3,754.1 1405.7,702.0 1397.7,645.1 1389.5,583.3 1380.9,516.1 1372.0,443.5  Z" style="stroke-width: 2.0;  stroke: rgb(82,82,82); fill: rgb(253,141,60); opacity: 0.667;" />
<path d="M 1371.952,443.481 A 1064.250,1064.250 0.00 0,1 1376.1,443.0 L 1376.1,443.0 1384.9,515.7 1393.7,582.9 1402.5,644.9 1411.3,701.9 1420.0,754.2 1428.8,802.0 1437.5,845.6 1446.3,885.2 1455.1,920.9 1463.9,952.9 1472.9,981.4 1481.9,1006.6 1491.1,1028.5 1500.4,1047.2 1510.0,1063.0 1519.7,1075.8 1529.7,1085.7 1539.9,1092.8 1550.5,1097.1 1561.5,1098.6 1572.8,1097.4 1584.6,1093.3 1596.9,1086.5 1609.8,1076.9 1623.2,1064.3 1637.3,1048.8 1652.2,1030.3 1667.7,1008.6 1684.1,983.6 1701.4,955.2 1719.6,923.2 1738.9,887.6 1759.2,848.0 1780.6,804.4 1803.3,756.5 1827.3,704.0 1852.7,646.8 1879.5,584.6 1907.9,517.0  A 1064.250,1064.250 0.00 0,0 1903.9,515.4 L 1903.9,515.4 1875.9,583.0 1849.3,645.4 1824.1,702.7 1800.4,755.3 1777.8,803.3 1756.6,847.0 1736.4,886.6 1717.3,922.4 1699.2,954.4 1682.0,982.8 1665.7,1007.9 1650.3,1029.7 1635.5,1048.3 1621.5,1063.8 1608.1,1076.4 1595.3,1086.1 1583.0,1093.0 1571.2,1097.1 1559.9,1098.3 1548.9,1096.9 1538.3,1092.6 1528.0,1085.6 1518.0,1075.7 1508.2,1062.9 1498.7,1047.2 1489.3,1028.5 1480.0,1006.6 1470.9,981.5 1461.8,953.1 1452.8,921.1 1443.9,885.4 1434.9,845.9 1426.0,802.3 1417.1,754.5 1408.1,702.2 1399.2,645.3 1390.1,583.3 1381.1,516.2 1372.0,443.5  Z" style="stroke-width: 2.0;  stroke: rgb(82,82,82); fill: rgb(255,0,0); opacity: 0.667;" />
<path d="M 1371.952,443.481 A 1064.250,1064.250 0.00 0,1 1376.1,443.0 L 1376.1,443.0 1385.0,515.7 1393.9,582.9 1402.9,644.9 1412.0,702.0 1421.1,754.4 1430.2,802.4 1439.5,846.1 1448.8,885.8 1458.3,921.7 1467.8,953.9 1477.5,982.7 1487.4,1008.1 1497.5,1030.4 1507.8,1049.5 1518.3,1065.7 1529.2,1078.9 1540.3,1089.3 1551.9,1097.0 1563.8,1101.9 1576.2,1104.1 1589.1,1103.5 1602.6,1100.3 1616.6,1094.3 1631.3,1085.6 1646.8,1074.0 1663.0,1059.6 1680.1,1042.1 1698.1,1021.6 1717.0,997.9 1737.0,970.9 1758.2,940.4 1780.6,906.2 1804.2,868.3 1829.2,826.4 1855.7,780.3 1883.7,729.7 1913.4,674.5 1944.8,614.4 1978.0,549.1  A 1064.250,1064.250 0.00 0,0 1974.2,547.2 L 1974.2,547.2 1941.2,612.6 1910.1,672.9 1880.6,728.2 1852.8,778.9 1826.5,825.1 1801.7,867.1 1778.2,905.1 1755.9,939.3 1734.9,969.9 1715.0,997.0 1696.1,1020.8 1678.2,1041.4 1661.2,1058.9 1645.1,1073.4 1629.7,1085.1 1615.0,1093.9 1601.0,1099.9 1587.5,1103.2 1574.6,1103.7 1562.2,1101.6 1550.3,1096.8 1538.7,1089.2 1527.5,1078.8 1516.6,1065.6 1506.0,1049.5 1495.6,1030.4 1485.5,1008.2 1475.5,982.8 1465.7,954.1 1456.0,921.9 1446.4,886.0 1436.9,846.3 1427.5,802.6 1418.1,754.7 1408.8,702.4 1399.6,645.3 1390.3,583.3 1381.1,516.2 1372.0,443.5  Z" style="stroke-width: 2.0;  stroke: rgb(82,82,82); fill: rgb(255,0,204); opacity: 0.667;" />
<path d="M 1371.952,443.481 A 1064.250,1064.250 0.00 0,1 1376.1,443.0 L 1376.1,443.0 1385.6,516.0 1396.3,584.2 1408.0,647.8 1420.8,707.2 1434.5,762.6 1448.9,814.3 1464.2,862.7 1480.1,907.8 1496.7,950.0 1514.0,989.5 1531.8,1026.5 1550.3,1061.2 1569.4,1093.8 1589.1,1124.4 1609.5,1153.2 1630.6,1180.5 1652.4,1206.2 1675.1,1230.5 1698.6,1253.6 1723.0,1275.5 1748.6,1296.3 1775.2,1316.1 1803.2,1335.0 1832.6,1353.0 1863.5,1370.0 1896.1,1386.3 1930.6,1401.7 1967.1,1416.2 2005.9,1429.9 2047.0,1442.7 2090.8,1454.6 2137.4,1465.4 2187.1,1475.3 2240.1,1484.0 2296.7,1491.4 2357.1,1497.6 2421.7,1502.3 2490.6,1505.4 2564.2,1506.8  A 1064.250,1064.250 0.00 0,0 2564.2,1502.5 L 2564.2,1502.5 2490.6,1501.4 2421.7,1498.5 2357.1,1494.1 2296.7,1488.2 2240.1,1481.0 2187.0,1472.5 2137.3,1462.9 2090.6,1452.2 2046.8,1440.5 2005.6,1427.9 1966.8,1414.3 1930.2,1399.9 1895.7,1384.7 1863.0,1368.6 1832.0,1351.6 1802.6,1333.8 1774.5,1315.0 1747.8,1295.3 1722.2,1274.6 1697.6,1252.8 1674.0,1229.8 1651.3,1205.6 1629.4,1179.9 1608.2,1152.8 1587.7,1124.0 1567.8,1093.5 1548.6,1061.0 1530.0,1026.4 1512.0,989.4 1494.6,950.0 1477.8,907.9 1461.7,862.8 1446.2,814.5 1431.6,762.9 1417.7,707.5 1404.7,648.2 1392.7,584.6 1381.7,516.5 1372.0,443.5  Z" style="stroke-width: 2.0;  stroke: rgb(82,82,82); fill: rgb(255,204,204); opacity: 0.667;" />
<path d="M 1371.952,443.481 A 1064.250,1064.250 0.00 0,1 1376.1,443.0 L 1376.1,443.0 1385.9,516.5 1397.4,586.1 1410.4,652.0 1424.6,714.6 1439.8,774.1 1455.7,830.7 1472.3,884.7 1489.3,936.4 1506.6,985.9 1524.0,1033.5 1541.4,1079.5 1558.7,1123.9 1575.9,1167.2 1592.9,1209.3 1609.5,1250.6 1625.9,1291.2 1642.0,1331.4 1657.7,1371.2 1673.2,1410.8 1688.4,1450.5 1703.4,1490.3 1718.3,1530.4 1733.2,1571.0 1748.2,1612.1 1763.4,1654.0 1779.0,1696.7 1795.2,1740.3 1812.0,1784.9 1829.8,1830.7 1848.7,1877.8 1869.0,1926.1 1890.9,1975.9 1914.8,2027.1 1940.8,2079.9 1969.2,2134.3 2000.6,2190.3 2035.0,2248.0 2073.0,2307.4 2114.9,2368.6  A 1064.250,1064.250 0.00 0,0 2118.4,2366.2 L 2118.4,2366.2 2076.3,2305.1 2038.0,2245.8 2003.3,2188.3 1971.8,2132.4 1943.1,2078.1 1916.9,2025.5 1892.9,1974.3 1870.7,1924.7 1850.3,1876.4 1831.1,1829.4 1813.2,1783.7 1796.2,1739.1 1779.8,1695.5 1764.1,1652.9 1748.7,1611.1 1733.5,1570.0 1718.5,1529.5 1703.4,1489.5 1688.2,1449.7 1672.8,1410.1 1657.2,1370.5 1641.3,1330.8 1625.1,1290.7 1608.6,1250.2 1591.7,1208.9 1574.6,1166.9 1557.2,1123.7 1539.7,1079.3 1522.1,1033.4 1504.5,985.9 1487.1,936.4 1469.9,884.8 1453.1,830.9 1436.9,774.3 1421.5,714.9 1407.1,652.4 1393.8,586.5 1382.0,517.0 1372.0,443.5  Z" style="stroke-width: 2.0;  stroke: rgb(82,82,82); fill: rgb(255,153,0); opacity: 0.667;" />
<path d="M 1371.952,443.481 A 1064.250,1064.250 0.00 0,1 1376.1,443.0 L 1376.1,443.0 1384.2,515.8 1391.0,583.3 1396.5,645.8 1400.7,703.5 1403.7,756.7 1405.6,805.6 1406.5,850.5 1406.2,891.5 1404.9,928.8 1402.7,962.7 1399.4,993.2 1395.2,1020.6 1390.1,1044.9 1383.9,1066.3 1376.8,1085.0 1368.7,1100.9 1359.6,1114.1 1349.4,1124.8 1338.2,1133.0 1325.8,1138.7 1312.3,1142.0 1297.6,1142.7 1281.5,1141.1 1264.2,1136.9 1245.4,1130.3 1225.1,1121.0 1203.2,1109.2 1179.7,1094.6 1154.3,1077.3 1127.1,1057.0 1097.9,1033.7 1066.5,1007.3 1032.9,977.6 996.9,944.4 958.4,907.6 917.3,866.9 873.3,822.2 826.3,773.2 776.2,719.8  A 1064.250,1064.250 0.00 0,0 773.1,722.6 L 773.1,722.6 823.5,775.9 870.6,824.7 914.8,869.2 956.1,909.7 994.8,946.4 1030.9,979.4 1064.6,1009.0 1096.0,1035.3 1125.4,1058.5 1152.7,1078.6 1178.1,1095.9 1201.7,1110.3 1223.6,1122.1 1243.9,1131.3 1262.8,1137.9 1280.1,1141.9 1296.2,1143.5 1310.9,1142.7 1324.4,1139.4 1336.7,1133.7 1347.9,1125.4 1358.1,1114.7 1367.1,1101.4 1375.2,1085.4 1382.2,1066.8 1388.3,1045.4 1393.4,1021.0 1397.5,993.6 1400.6,963.1 1402.7,929.2 1403.8,891.8 1403.9,850.8 1402.9,806.0 1400.8,757.1 1397.6,703.9 1393.1,646.2 1387.4,583.7 1380.4,516.3 1372.0,443.5  Z" style="stroke-width: 2.0;  stroke: rgb(82,82,82); fill: rgb(255,204,0); opacity: 0.667;" />
<path d="M 1371.952,443.481 A 1064.250,1064.250 0.00 0,1 1376.1,443.0 L 1376.1,443.0 1384.2,515.8 1391.0,583.3 1396.5,645.8 1400.8,703.5 1403.9,756.6 1405.8,805.5 1406.7,850.3 1406.5,891.3 1405.3,928.6 1403.2,962.4 1400.0,992.9 1395.9,1020.2 1390.8,1044.4 1384.8,1065.8 1377.8,1084.3 1369.8,1100.1 1360.8,1113.2 1350.8,1123.8 1339.7,1131.9 1327.5,1137.4 1314.2,1140.5 1299.6,1141.1 1283.8,1139.2 1266.6,1134.9 1248.1,1128.0 1228.0,1118.6 1206.4,1106.5 1183.1,1091.6 1158.0,1074.0 1131.1,1053.5 1102.2,1029.9 1071.2,1003.1 1037.9,973.0 1002.3,939.5 964.3,902.2 923.5,861.2 880.0,816.0 833.6,766.6 784.0,712.6  A 1064.250,1064.250 0.00 0,0 780.8,715.5 L 780.8,715.5 830.6,769.3 877.3,818.5 921.0,863.5 961.9,904.4 1000.1,941.5 1035.8,974.9 1069.2,1004.9 1100.3,1031.5 1129.3,1055.0 1156.3,1075.4 1181.5,1092.9 1204.8,1107.6 1226.5,1119.7 1246.6,1129.0 1265.2,1135.8 1282.4,1140.1 1298.2,1141.9 1312.7,1141.2 1326.1,1138.1 1338.3,1132.5 1349.3,1124.4 1359.3,1113.8 1368.2,1100.6 1376.1,1084.8 1383.1,1066.2 1389.0,1044.9 1394.0,1020.6 1398.0,993.3 1401.0,962.8 1403.1,929.0 1404.1,891.7 1404.1,850.7 1403.1,805.9 1400.9,757.0 1397.7,703.8 1393.2,646.2 1387.4,583.7 1380.4,516.3 1372.0,443.5  Z" style="stroke-width: 2.0;  stroke: rgb(82,82,82); fill: rgb(255,255,0); opacity: 0.667;" />
<path d="M 1371.952,443.481 A 1064.250,1064.250 0.00 0,1 1376.1,443.0 L 1376.1,443.0 1384.6,515.7 1392.2,582.9 1399.2,644.9 1405.4,701.9 1410.9,754.2 1415.9,802.0 1420.2,845.5 1423.9,884.9 1427.0,920.4 1429.6,952.2 1431.7,980.4 1433.2,1005.2 1434.3,1026.7 1434.8,1044.9 1434.9,1060.1 1434.5,1072.1 1433.6,1081.3 1432.2,1087.5 1430.3,1090.7 1428.0,1091.2 1425.1,1088.7 1421.7,1083.3 1417.8,1075.0 1413.3,1063.8 1408.3,1049.5 1402.7,1032.1 1396.4,1011.6 1389.6,987.7 1382.0,960.5 1373.8,929.7 1364.8,895.1 1355.0,856.8 1344.4,814.3 1333.0,767.7 1320.6,716.6 1307.3,660.8 1293.0,600.1 1277.6,534.2 1261.1,462.9  A 1064.250,1064.250 0.00 0,0 1257.0,463.9 L 1257.0,463.9 1273.8,535.1 1289.5,600.9 1304.0,661.6 1317.5,717.3 1330.1,768.4 1341.7,815.0 1352.5,857.3 1362.4,895.7 1371.5,930.2 1379.9,960.9 1387.5,988.2 1394.5,1012.0 1400.8,1032.5 1406.5,1049.9 1411.6,1064.1 1416.1,1075.4 1420.1,1083.6 1423.5,1089.0 1426.3,1091.4 1428.7,1091.0 1430.6,1087.7 1431.9,1081.5 1432.8,1072.4 1433.2,1060.3 1433.0,1045.2 1432.4,1026.9 1431.3,1005.5 1429.6,980.7 1427.5,952.5 1424.7,920.7 1421.5,885.2 1417.6,845.8 1413.1,802.3 1408.0,754.5 1402.3,702.3 1395.8,645.3 1388.6,583.3 1380.7,516.2 1372.0,443.5  Z" style="stroke-width: 2.0;  stroke: rgb(82,82,82); fill: rgb(204,255,0); opacity: 0.667;" />
<path d="M 1942.840,532.260 A 1064.250,1064.250 0.00 0,1 1947.6,534.5 L 1947.6,534.5 1916.6,600.8 1887.4,661.9 1860.1,718.1 1834.4,769.6 1810.3,816.7 1787.7,859.5 1766.6,898.3 1746.7,933.2 1728.2,964.5 1710.9,992.2 1694.6,1016.6 1679.5,1037.7 1665.4,1055.7 1652.2,1070.7 1639.8,1082.7 1628.4,1091.8 1617.7,1098.2 1607.8,1101.7 1598.5,1102.4 1590.0,1100.4 1582.1,1095.6 1574.7,1088.0 1568.0,1077.6 1561.9,1064.3 1556.2,1048.0 1551.1,1028.7 1546.5,1006.3 1542.5,980.6 1538.9,951.5 1535.8,919.0 1533.2,882.7 1531.2,842.6 1529.6,798.5 1528.6,750.1 1528.1,697.2 1528.2,639.7 1528.9,577.1 1530.3,509.4 1532.2,436.2  A 1064.250,1064.250 0.00 0,0 1527.0,436.1 L 1527.0,436.1 1525.4,509.3 1524.4,577.0 1524.0,639.5 1524.2,697.1 1524.9,749.9 1526.2,798.3 1527.9,842.5 1530.2,882.6 1532.9,918.8 1536.2,951.4 1539.9,980.4 1544.1,1006.1 1548.8,1028.5 1554.0,1047.7 1559.7,1064.0 1565.9,1077.2 1572.7,1087.6 1580.1,1095.2 1588.0,1099.9 1596.6,1101.9 1605.8,1101.1 1615.7,1097.6 1626.4,1091.2 1637.8,1082.0 1650.0,1069.9 1663.2,1054.9 1677.2,1036.8 1692.3,1015.6 1708.4,991.2 1725.6,963.3 1743.9,932.0 1763.6,897.0 1784.5,858.1 1806.9,815.1 1830.8,768.0 1856.2,716.3 1883.3,660.0 1912.1,598.7 1942.8,532.3  Z" style="stroke-width: 2.0;  stroke: rgb(82,82,82); fill: rgb(0,255,0); opacity: 0.667;" />
<path d="M 1151.711,494.355 A 1064.250,1064.250 0.00 0,1 1154.7,493.3 L 1154.7,493.3 1178.3,562.6 1199.7,626.8 1219.1,686.2 1236.5,741.0 1252.0,791.4 1265.8,837.6 1277.9,879.9 1288.4,918.5 1297.3,953.4 1304.7,985.0 1310.6,1013.2 1315.1,1038.4 1318.3,1060.5 1320.1,1079.7 1320.5,1096.1 1319.7,1109.8 1317.5,1120.8 1314.0,1129.2 1309.2,1135.0 1303.1,1138.3 1295.6,1139.0 1286.7,1137.2 1276.3,1132.9 1264.5,1126.0 1251.1,1116.5 1236.2,1104.3 1219.6,1089.3 1201.2,1071.6 1181.1,1050.9 1159.0,1027.2 1134.9,1000.3 1108.7,970.2 1080.3,936.6 1049.6,899.4 1016.4,858.4 980.6,813.4 942.1,764.3 900.7,710.7 856.2,652.6  A 1064.250,1064.250 0.00 0,0 853.7,654.5 L 853.7,654.5 898.3,712.5 939.9,766.0 978.5,815.0 1014.5,859.9 1047.8,900.7 1078.6,937.9 1107.1,971.4 1133.4,1001.4 1157.6,1028.2 1179.7,1051.9 1199.9,1072.5 1218.3,1090.2 1235.0,1105.1 1250.0,1117.2 1263.4,1126.7 1275.2,1133.6 1285.6,1137.9 1294.5,1139.6 1302.0,1138.9 1308.1,1135.6 1312.9,1129.7 1316.4,1121.3 1318.5,1110.3 1319.3,1096.6 1318.8,1080.2 1317.0,1061.0 1313.7,1038.9 1309.1,1013.8 1303.1,985.6 1295.6,954.1 1286.6,919.1 1276.0,880.6 1263.8,838.4 1249.9,792.1 1234.2,741.8 1216.6,687.1 1197.1,627.8 1175.5,563.6 1151.7,494.4  Z" style="stroke-width: 2.0;  stroke: rgb(82,82,82); fill: rgb(53,128,0); opacity: 0.667;" />
</g>
<defs>
<pattern id="hline-sparse" width="10" height="10" patternTransform="rotate(0 0 0)" patternUnits="userSpaceOnUse"><line x1="0" y1="0" x2="10" y2="0" style="stroke:black;stroke-width:2" /></pattern>
<pattern id="checker" width="10" height="10" patternTransform="rotate(45 0 0)" patternUnits="userSpaceOnUse"><line x1="0" y1="0" x2="10" y2="0" style="stroke:black;stroke-width:2" /><line x1="0" y1="0" x2="0" y2="10" style="stroke:black;stroke-width:2" /></pattern>
<pattern id="checker" width="10" height="10" patternTransform="rotate(45 0 0)" patternUnits="userSpaceOnUse"><line x1="0" y1="0" x2="10" y2="0" style="stroke:black;stroke-width:5" /><line x1="0" y1="0" x2="0" y2="10" style="stroke:black;stroke-width:4" /></pattern>
<pattern id="hline" width="10" height="10" patternTransform="rotate(0 0 0)" patternUnits="userSpaceOnUse"><line x1="0" y1="0" x2="10" y2="0" style="stroke:black;stroke-width:5" /></pattern>
<pattern id="vline-sparse" width="10" height="10" patternTransform="rotate(0 0 0)" patternUnits="userSpaceOnUse"><line x1="0" y1="0" x2="0" y2="10" style="stroke:black;stroke-width:2" /></pattern>
<pattern id="vline" width="10" height="10" patternTransform="rotate(0 0 0)" patternUnits="userSpaceOnUse"><line x1="0" y1="0" x2="0" y2="10" style="stroke:black;stroke-width:5" /></pattern>
</defs>
</svg>
