<?xml version="1.0" encoding="utf-8" standalone="no"?>
<!DOCTYPE svg PUBLIC "-//W3C//DTD SVG 1.1//EN" "http://www.w3.org/Graphics/SVG/1.1/DTD/svg11.dtd">
<svg width="3000px" height="3000px" version="1.1" xmlns="http://www.w3.org/2000/svg" xmlns:xlink="http://www.w3.org/1999/xlink">
<g id="ideograms">
<path d="M1500.000,425.000 A1075.000,1075.000 40.000 0,1 1789.593,464.741 L1803.062,416.590 A1125.000,1125.000 0.000 0,0 1500.000,375.000 Z" style="stroke-linecap:round;fill:rgb(116,196,118);fill-opacity:0.33;" />
<text x="1674.6" y="297.6" font-size="18.2px" font-family="CMUBright-Roman" style="text-anchor:start;fill:rgb(0,0,0);" transform="rotate(277.8,1674.6,297.6)" >R<tspan baseline-shift="-40%" font-size="90%">s</tspan>caffold<tspan baseline-shift="-40%" font-size="90%">8</tspan></text>
<line x1='1500.0' y1='375.0' x2='1500.0' y2='355.0' style="stroke-width:4.0;stroke:rgb(0,0,0);stroke-linecap:round;fill:none;" />
<text x="1506.5" y="345.0" font-size="18.2px" font-family="CMUBright-Roman" style="text-anchor:start;fill:rgb(0,0,0);" transform="rotate(270.0,1506.5,345.0)" >0</text>
<line x1='1565.1' y1='376.9' x2='1566.2' y2='356.9' style="stroke-width:4.0;stroke:rgb(0,0,0);stroke-linecap:round;fill:none;" />
<text x="1573.3" y="347.3" font-size="18.2px" font-family="CMUBright-Roman" style="text-anchor:start;fill:rgb(0,0,0);" transform="rotate(273.3,1573.3,347.3)" >50</text>
<line x1='1630.0' y1='382.5' x2='1632.3' y2='362.7' style="stroke-width:4.0;stroke:rgb(0,0,0);stroke-linecap:round;fill:none;" />
<text x="1639.9" y="353.5" font-size="18.2px" font-family="CMUBright-Roman" style="text-anchor:start;fill:rgb(0,0,0);" transform="rotate(276.6,1639.9,353.5)" >100</text>
<line x1='1694.4' y1='391.9' x2='1697.8' y2='372.2' style="stroke-width:4.0;stroke:rgb(0,0,0);stroke-linecap:round;fill:none;" />
<text x="1706.0" y="363.5" font-size="18.2px" font-family="CMUBright-Roman" style="text-anchor:start;fill:rgb(0,0,0);" transform="rotate(279.9,1706.0,363.5)" >150</text>
<line x1='1758.2' y1='405.0' x2='1762.8' y2='385.6' style="stroke-width:4.0;stroke:rgb(0,0,0);stroke-linecap:round;fill:none;" />
<text x="1771.4" y="377.3" font-size="18.2px" font-family="CMUBright-Roman" style="text-anchor:start;fill:rgb(0,0,0);" transform="rotate(283.3,1771.4,377.3)" >200</text>
<g id="highlighttrack_0">
<path d="M1521.323,425.211 A1075.000,1075.000 40.000 0,1 1538.245,425.681 L1540.024,375.712 A1125.000,1125.000 0.000 0,0 1522.314,375.221 Z" style="stroke-width:4.0;stroke:rgb(0,0,0);stroke-linecap:round;fill:rgb(116,196,118);" />
</g>
<path d="M1850.414,483.715 A1075.000,1075.000 40.000 0,1 2058.613,581.536 L2084.595,538.816 A1125.000,1125.000 0.000 0,0 1866.712,436.446 Z" style="stroke-linecap:round;fill:rgb(116,196,118);fill-opacity:0.33;" />
<text x="2025.3" y="404.4" font-size="18.2px" font-family="CMUBright-Roman" style="text-anchor:start;fill:rgb(0,0,0);" transform="rotate(295.2,2025.3,404.4)" >R<tspan baseline-shift="-40%" font-size="90%">s</tspan>caffold<tspan baseline-shift="-40%" font-size="90%">1</tspan>0</text>
<line x1='1866.7' y1='436.4' x2='1873.2' y2='417.5' style="stroke-width:4.0;stroke:rgb(0,0,0);stroke-linecap:round;fill:none;" />
<text x="1882.6" y="410.2" font-size="18.2px" font-family="CMUBright-Roman" style="text-anchor:start;fill:rgb(0,0,0);" transform="rotate(289.0,1882.6,410.2)" >0</text>
<line x1='1927.6' y1='459.4' x2='1935.2' y2='440.9' style="stroke-width:4.0;stroke:rgb(0,0,0);stroke-linecap:round;fill:none;" />
<text x="1945.0" y="434.2" font-size="18.2px" font-family="CMUBright-Roman" style="text-anchor:start;fill:rgb(0,0,0);" transform="rotate(292.3,1945.0,434.2)" >50</text>
<line x1='1987.1' y1='485.9' x2='1995.8' y2='467.9' style="stroke-width:4.0;stroke:rgb(0,0,0);stroke-linecap:round;fill:none;" />
<text x="2006.0" y="461.7" font-size="18.2px" font-family="CMUBright-Roman" style="text-anchor:start;fill:rgb(0,0,0);" transform="rotate(295.7,2006.0,461.7)" >100</text>
<line x1='2045.0' y1='515.8' x2='2054.7' y2='498.3' style="stroke-width:4.0;stroke:rgb(0,0,0);stroke-linecap:round;fill:none;" />
<text x="2065.2" y="492.7" font-size="18.2px" font-family="CMUBright-Roman" style="text-anchor:start;fill:rgb(0,0,0);" transform="rotate(299.0,2065.2,492.7)" >150</text>
<g id="highlighttrack_0">
<path d="M2025.928,562.437 A1075.000,1075.000 40.000 0,1 2041.991,571.630 L2067.200,528.450 A1125.000,1125.000 0.000 0,0 2050.390,518.829 Z" style="stroke-width:4.0;stroke:rgb(0,0,0);stroke-linecap:round;fill:rgb(251,106,74);" />
</g>
<path d="M2112.042,616.241 A1075.000,1075.000 40.000 0,1 2142.588,638.196 L2172.475,598.112 A1125.000,1125.000 0.000 0,0 2140.509,575.136 Z" style="stroke-linecap:round;fill:rgb(116,196,118);fill-opacity:0.33;" />
<text x="2216.8" y="519.0" font-size="18.2px" font-family="CMUBright-Roman" style="text-anchor:start;fill:rgb(0,0,0);" transform="rotate(305.7,2216.8,519.0)" >R<tspan baseline-shift="-40%" font-size="90%">s</tspan>caffold<tspan baseline-shift="-40%" font-size="90%">1</tspan>9</text>
<line x1='2140.5' y1='575.1' x2='2151.9' y2='558.7' style="stroke-width:4.0;stroke:rgb(0,0,0);stroke-linecap:round;fill:none;" />
<text x="2162.9" y="554.2" font-size="18.2px" font-family="CMUBright-Roman" style="text-anchor:start;fill:rgb(0,0,0);" transform="rotate(304.7,2162.9,554.2)" >0</text>
<g id="highlighttrack_0">
<path d="M2124.242,624.816 A1075.000,1075.000 40.000 0,1 2131.526,630.057 L2160.899,589.595 A1125.000,1125.000 0.000 0,0 2153.277,584.110 Z" style="stroke-width:4.0;stroke:rgb(0,0,0);stroke-linecap:round;fill:rgb(116,196,118);" />
</g>
<path d="M2192.513,677.777 A1075.000,1075.000 40.000 0,1 2207.921,691.005 L2240.847,653.377 A1125.000,1125.000 0.000 0,0 2224.723,639.534 Z" style="stroke-linecap:round;fill:rgb(116,196,118);fill-opacity:0.33;" />
<text x="2298.6" y="584.3" font-size="18.2px" font-family="CMUBright-Roman" style="text-anchor:start;fill:rgb(0,0,0);" transform="rotate(310.6,2298.6,584.3)" >R<tspan baseline-shift="-40%" font-size="90%">s</tspan>caffold<tspan baseline-shift="-40%" font-size="90%">2</tspan>1</text>
<line x1='2224.7' y1='639.5' x2='2237.6' y2='624.2' style="stroke-width:4.0;stroke:rgb(0,0,0);stroke-linecap:round;fill:none;" />
<text x="2249.0" y="620.8" font-size="18.2px" font-family="CMUBright-Roman" style="text-anchor:start;fill:rgb(0,0,0);" transform="rotate(310.1,2249.0,620.8)" >0</text>
<g id="highlighttrack_0">
<path d="M2195.176,680.028 A1075.000,1075.000 40.000 0,1 2198.245,682.639 L2230.722,644.623 A1125.000,1125.000 0.000 0,0 2227.510,641.889 Z" style="stroke-width:4.0;stroke:rgb(0,0,0);stroke-linecap:round;fill:rgb(116,196,118);" />
</g>
<path d="M2254.603,734.363 A1075.000,1075.000 40.000 0,1 2258.286,738.011 L2293.555,702.569 A1125.000,1125.000 0.000 0,0 2289.700,698.752 Z" style="stroke-linecap:round;fill:rgb(116,196,118);fill-opacity:0.33;" />
<text x="2361.7" y="643.4" font-size="18.2px" font-family="CMUBright-Roman" style="text-anchor:start;fill:rgb(0,0,0);" transform="rotate(314.7,2361.7,643.4)" >R<tspan baseline-shift="-40%" font-size="90%">s</tspan>caffold<tspan baseline-shift="-40%" font-size="90%">2</tspan>4</text>
<line x1='2289.7' y1='698.8' x2='2303.7' y2='684.5' style="stroke-width:4.0;stroke:rgb(0,0,0);stroke-linecap:round;fill:none;" />
<text x="2315.4" y="682.0" font-size="18.2px" font-family="CMUBright-Roman" style="text-anchor:start;fill:rgb(0,0,0);" transform="rotate(314.6,2315.4,682.0)" >0</text>
<g id="highlighttrack_0">
<path d="M2255.475,735.224 A1075.000,1075.000 40.000 0,1 2258.077,737.803 L2293.336,702.352 A1125.000,1125.000 0.000 0,0 2290.614,699.653 Z" style="stroke-width:4.0;stroke:rgb(0,0,0);stroke-linecap:round;fill:rgb(251,106,74);" />
</g>
<path d="M2302.095,784.270 A1075.000,1075.000 40.000 1,1 1436.316,426.888 L1433.354,376.976 A1125.000,1125.000 0.000 1,0 2339.401,750.980 Z" style="stroke-linecap:round;fill:rgb(116,196,118);fill-opacity:0.33;" />
<text x="1045.2" y="2626.7" font-size="18.2px" font-family="CMUBright-Roman" style="text-anchor:end;fill:rgb(0,0,0);" transform="rotate(-67.6,1045.2,2626.7)" >NZ<tspan baseline-shift="-40%" font-size="90%">C</tspan>P041036.1</text>
<line x1='2339.4' y1='751.0' x2='2354.3' y2='737.7' style="stroke-width:4.0;stroke:rgb(0,0,0);stroke-linecap:round;fill:none;" />
<text x="2366.1" y="735.9" font-size="18.2px" font-family="CMUBright-Roman" style="text-anchor:start;fill:rgb(0,0,0);" transform="rotate(318.3,2366.1,735.9)" >0</text>
<line x1='2381.3' y1='800.8' x2='2397.0' y2='788.4' style="stroke-width:4.0;stroke:rgb(0,0,0);stroke-linecap:round;fill:none;" />
<text x="2408.9" y="787.3" font-size="18.2px" font-family="CMUBright-Roman" style="text-anchor:start;fill:rgb(0,0,0);" transform="rotate(321.6,2408.9,787.3)" >50</text>
<line x1='2420.3' y1='853.0' x2='2436.7' y2='841.5' style="stroke-width:4.0;stroke:rgb(0,0,0);stroke-linecap:round;fill:none;" />
<text x="2448.6" y="841.0" font-size="18.2px" font-family="CMUBright-Roman" style="text-anchor:start;fill:rgb(0,0,0);" transform="rotate(324.9,2448.6,841.0)" >100</text>
<line x1='2456.2' y1='907.3' x2='2473.2' y2='896.7' style="stroke-width:4.0;stroke:rgb(0,0,0);stroke-linecap:round;fill:none;" />
<text x="2485.1" y="897.0" font-size="18.2px" font-family="CMUBright-Roman" style="text-anchor:start;fill:rgb(0,0,0);" transform="rotate(328.2,2485.1,897.0)" >150</text>
<line x1='2488.9' y1='963.6' x2='2506.5' y2='954.1' style="stroke-width:4.0;stroke:rgb(0,0,0);stroke-linecap:round;fill:none;" />
<text x="2518.3" y="955.0" font-size="18.2px" font-family="CMUBright-Roman" style="text-anchor:start;fill:rgb(0,0,0);" transform="rotate(331.5,2518.3,955.0)" >200</text>
<line x1='2518.3' y1='1021.7' x2='2536.4' y2='1013.2' style="stroke-width:4.0;stroke:rgb(0,0,0);stroke-linecap:round;fill:none;" />
<text x="2548.2" y="1014.8" font-size="18.2px" font-family="CMUBright-Roman" style="text-anchor:start;fill:rgb(0,0,0);" transform="rotate(334.8,2548.2,1014.8)" >250</text>
<line x1='2544.2' y1='1081.4' x2='2562.8' y2='1074.0' style="stroke-width:4.0;stroke:rgb(0,0,0);stroke-linecap:round;fill:none;" />
<text x="2574.5" y="1076.3" font-size="18.2px" font-family="CMUBright-Roman" style="text-anchor:start;fill:rgb(0,0,0);" transform="rotate(338.2,2574.5,1076.3)" >300</text>
<line x1='2566.7' y1='1142.5' x2='2585.7' y2='1136.2' style="stroke-width:4.0;stroke:rgb(0,0,0);stroke-linecap:round;fill:none;" />
<text x="2597.2" y="1139.2" font-size="18.2px" font-family="CMUBright-Roman" style="text-anchor:start;fill:rgb(0,0,0);" transform="rotate(341.5,2597.2,1139.2)" >350</text>
<line x1='2585.6' y1='1204.8' x2='2604.9' y2='1199.6' style="stroke-width:4.0;stroke:rgb(0,0,0);stroke-linecap:round;fill:none;" />
<text x="2616.2" y="1203.2" font-size="18.2px" font-family="CMUBright-Roman" style="text-anchor:start;fill:rgb(0,0,0);" transform="rotate(344.8,2616.2,1203.2)" >400</text>
<line x1='2600.8' y1='1268.1' x2='2620.4' y2='1264.0' style="stroke-width:4.0;stroke:rgb(0,0,0);stroke-linecap:round;fill:none;" />
<text x="2631.5" y="1268.3" font-size="18.2px" font-family="CMUBright-Roman" style="text-anchor:start;fill:rgb(0,0,0);" transform="rotate(348.1,2631.5,1268.3)" >450</text>
<line x1='2612.4' y1='1332.2' x2='2632.2' y2='1329.2' style="stroke-width:4.0;stroke:rgb(0,0,0);stroke-linecap:round;fill:none;" />
<text x="2643.0" y="1334.2" font-size="18.2px" font-family="CMUBright-Roman" style="text-anchor:start;fill:rgb(0,0,0);" transform="rotate(351.4,2643.0,1334.2)" >500</text>
<line x1='2620.3' y1='1396.9' x2='2640.2' y2='1395.0' style="stroke-width:4.0;stroke:rgb(0,0,0);stroke-linecap:round;fill:none;" />
<text x="2650.7" y="1400.6" font-size="18.2px" font-family="CMUBright-Roman" style="text-anchor:start;fill:rgb(0,0,0);" transform="rotate(354.7,2650.7,1400.6)" >550</text>
<line x1='2624.4' y1='1461.8' x2='2644.3' y2='1461.2' style="stroke-width:4.0;stroke:rgb(0,0,0);stroke-linecap:round;fill:none;" />
<text x="2654.5" y="1467.3" font-size="18.2px" font-family="CMUBright-Roman" style="text-anchor:start;fill:rgb(0,0,0);" transform="rotate(358.1,2654.5,1467.3)" >600</text>
<line x1='2624.7' y1='1526.9' x2='2644.7' y2='1527.4' style="stroke-width:4.0;stroke:rgb(0,0,0);stroke-linecap:round;fill:none;" />
<text x="2654.5" y="1534.2" font-size="18.2px" font-family="CMUBright-Roman" style="text-anchor:start;fill:rgb(0,0,0);" transform="rotate(1.4,2654.5,1534.2)" >650</text>
<line x1='2621.2' y1='1592.0' x2='2641.2' y2='1593.6' style="stroke-width:4.0;stroke:rgb(0,0,0);stroke-linecap:round;fill:none;" />
<text x="2650.6" y="1600.9" font-size="18.2px" font-family="CMUBright-Roman" style="text-anchor:start;fill:rgb(0,0,0);" transform="rotate(4.7,2650.6,1600.9)" >700</text>
<line x1='2614.0' y1='1656.7' x2='2633.8' y2='1659.5' style="stroke-width:4.0;stroke:rgb(0,0,0);stroke-linecap:round;fill:none;" />
<text x="2642.8" y="1667.3" font-size="18.2px" font-family="CMUBright-Roman" style="text-anchor:start;fill:rgb(0,0,0);" transform="rotate(8.0,2642.8,1667.3)" >750</text>
<line x1='2603.1' y1='1720.9' x2='2622.7' y2='1724.8' style="stroke-width:4.0;stroke:rgb(0,0,0);stroke-linecap:round;fill:none;" />
<text x="2631.2" y="1733.1" font-size="18.2px" font-family="CMUBright-Roman" style="text-anchor:start;fill:rgb(0,0,0);" transform="rotate(11.3,2631.2,1733.1)" >800</text>
<line x1='2588.5' y1='1784.3' x2='2607.8' y2='1789.4' style="stroke-width:4.0;stroke:rgb(0,0,0);stroke-linecap:round;fill:none;" />
<text x="2615.8" y="1798.2" font-size="18.2px" font-family="CMUBright-Roman" style="text-anchor:start;fill:rgb(0,0,0);" transform="rotate(14.6,2615.8,1798.2)" >850</text>
<line x1='2570.2' y1='1846.8' x2='2589.2' y2='1853.0' style="stroke-width:4.0;stroke:rgb(0,0,0);stroke-linecap:round;fill:none;" />
<text x="2596.7" y="1862.2" font-size="18.2px" font-family="CMUBright-Roman" style="text-anchor:start;fill:rgb(0,0,0);" transform="rotate(18.0,2596.7,1862.2)" >900</text>
<line x1='2548.4' y1='1908.1' x2='2567.0' y2='1915.4' style="stroke-width:4.0;stroke:rgb(0,0,0);stroke-linecap:round;fill:none;" />
<text x="2573.9" y="1925.1" font-size="18.2px" font-family="CMUBright-Roman" style="text-anchor:start;fill:rgb(0,0,0);" transform="rotate(21.3,2573.9,1925.1)" >950</text>
<line x1='2523.0' y1='1968.1' x2='2541.2' y2='1976.4' style="stroke-width:4.0;stroke:rgb(0,0,0);stroke-linecap:round;fill:none;" />
<text x="2547.5" y="1986.5" font-size="18.2px" font-family="CMUBright-Roman" style="text-anchor:start;fill:rgb(0,0,0);" transform="rotate(24.6,2547.5,1986.5)" >1000</text>
<line x1='2494.2' y1='2026.5' x2='2511.9' y2='2035.9' style="stroke-width:4.0;stroke:rgb(0,0,0);stroke-linecap:round;fill:none;" />
<text x="2517.6" y="2046.3" font-size="18.2px" font-family="CMUBright-Roman" style="text-anchor:start;fill:rgb(0,0,0);" transform="rotate(27.9,2517.6,2046.3)" >1050</text>
<line x1='2462.1' y1='2083.1' x2='2479.2' y2='2093.5' style="stroke-width:4.0;stroke:rgb(0,0,0);stroke-linecap:round;fill:none;" />
<text x="2484.3" y="2104.2" font-size="18.2px" font-family="CMUBright-Roman" style="text-anchor:start;fill:rgb(0,0,0);" transform="rotate(31.2,2484.3,2104.2)" >1100</text>
<line x1='2426.7' y1='2137.8' x2='2443.2' y2='2149.2' style="stroke-width:4.0;stroke:rgb(0,0,0);stroke-linecap:round;fill:none;" />
<text x="2447.7" y="2160.2" font-size="18.2px" font-family="CMUBright-Roman" style="text-anchor:start;fill:rgb(0,0,0);" transform="rotate(34.5,2447.7,2160.2)" >1150</text>
<line x1='2388.3' y1='2190.4' x2='2404.1' y2='2202.6' style="stroke-width:4.0;stroke:rgb(0,0,0);stroke-linecap:round;fill:none;" />
<text x="2407.9" y="2213.9" font-size="18.2px" font-family="CMUBright-Roman" style="text-anchor:start;fill:rgb(0,0,0);" transform="rotate(37.9,2407.9,2213.9)" >1200</text>
<line x1='2346.8' y1='2240.6' x2='2361.9' y2='2253.8' style="stroke-width:4.0;stroke:rgb(0,0,0);stroke-linecap:round;fill:none;" />
<text x="2365.1" y="2265.2" font-size="18.2px" font-family="CMUBright-Roman" style="text-anchor:start;fill:rgb(0,0,0);" transform="rotate(41.2,2365.1,2265.2)" >1250</text>
<line x1='2302.6' y1='2288.4' x2='2316.8' y2='2302.4' style="stroke-width:4.0;stroke:rgb(0,0,0);stroke-linecap:round;fill:none;" />
<text x="2319.4" y="2314.0" font-size="18.2px" font-family="CMUBright-Roman" style="text-anchor:start;fill:rgb(0,0,0);" transform="rotate(44.5,2319.4,2314.0)" >1300</text>
<line x1='2255.6' y1='2333.5' x2='2269.0' y2='2348.3' style="stroke-width:4.0;stroke:rgb(0,0,0);stroke-linecap:round;fill:none;" />
<text x="2270.9" y="2360.0" font-size="18.2px" font-family="CMUBright-Roman" style="text-anchor:start;fill:rgb(0,0,0);" transform="rotate(47.8,2270.9,2360.0)" >1350</text>
<line x1='2206.1' y1='2375.8' x2='2218.7' y2='2391.4' style="stroke-width:4.0;stroke:rgb(0,0,0);stroke-linecap:round;fill:none;" />
<text x="2219.9" y="2403.2" font-size="18.2px" font-family="CMUBright-Roman" style="text-anchor:start;fill:rgb(0,0,0);" transform="rotate(51.1,2219.9,2403.2)" >1400</text>
<line x1='2154.3' y1='2415.2' x2='2165.9' y2='2431.4' style="stroke-width:4.0;stroke:rgb(0,0,0);stroke-linecap:round;fill:none;" />
<text x="2166.4" y="2443.3" font-size="18.2px" font-family="CMUBright-Roman" style="text-anchor:start;fill:rgb(0,0,0);" transform="rotate(54.4,2166.4,2443.3)" >1450</text>
<line x1='2100.2' y1='2451.5' x2='2110.9' y2='2468.4' style="stroke-width:4.0;stroke:rgb(0,0,0);stroke-linecap:round;fill:none;" />
<text x="2110.7" y="2480.3" font-size="18.2px" font-family="CMUBright-Roman" style="text-anchor:start;fill:rgb(0,0,0);" transform="rotate(57.8,2110.7,2480.3)" >1500</text>
<line x1='2044.2' y1='2484.6' x2='2053.9' y2='2502.1' style="stroke-width:4.0;stroke:rgb(0,0,0);stroke-linecap:round;fill:none;" />
<text x="2053.0" y="2514.0" font-size="18.2px" font-family="CMUBright-Roman" style="text-anchor:start;fill:rgb(0,0,0);" transform="rotate(61.1,2053.0,2514.0)" >1550</text>
<line x1='1986.3' y1='2514.5' x2='1995.0' y2='2532.5' style="stroke-width:4.0;stroke:rgb(0,0,0);stroke-linecap:round;fill:none;" />
<text x="1993.4" y="2544.3" font-size="18.2px" font-family="CMUBright-Roman" style="text-anchor:start;fill:rgb(0,0,0);" transform="rotate(64.4,1993.4,2544.3)" >1600</text>
<line x1='1926.8' y1='2540.9' x2='1934.4' y2='2559.4' style="stroke-width:4.0;stroke:rgb(0,0,0);stroke-linecap:round;fill:none;" />
<text x="1932.2" y="2571.1" font-size="18.2px" font-family="CMUBright-Roman" style="text-anchor:start;fill:rgb(0,0,0);" transform="rotate(67.7,1932.2,2571.1)" >1650</text>
<line x1='1865.9' y1='2563.8' x2='1872.4' y2='2582.8' style="stroke-width:4.0;stroke:rgb(0,0,0);stroke-linecap:round;fill:none;" />
<text x="1869.5" y="2594.3" font-size="18.2px" font-family="CMUBright-Roman" style="text-anchor:start;fill:rgb(0,0,0);" transform="rotate(71.0,1869.5,2594.3)" >1700</text>
<line x1='1803.7' y1='2583.2' x2='1809.1' y2='2602.5' style="stroke-width:4.0;stroke:rgb(0,0,0);stroke-linecap:round;fill:none;" />
<text x="1805.5" y="2613.9" font-size="18.2px" font-family="CMUBright-Roman" style="text-anchor:start;fill:rgb(0,0,0);" transform="rotate(74.3,1805.5,2613.9)" >1750</text>
<line x1='1740.5' y1='2599.0' x2='1744.8' y2='2618.5' style="stroke-width:4.0;stroke:rgb(0,0,0);stroke-linecap:round;fill:none;" />
<text x="1740.6" y="2629.7" font-size="18.2px" font-family="CMUBright-Roman" style="text-anchor:start;fill:rgb(0,0,0);" transform="rotate(77.7,1740.6,2629.7)" >1800</text>
<line x1='1676.6' y1='2611.1' x2='1679.7' y2='2630.8' style="stroke-width:4.0;stroke:rgb(0,0,0);stroke-linecap:round;fill:none;" />
<text x="1674.8" y="2641.7" font-size="18.2px" font-family="CMUBright-Roman" style="text-anchor:start;fill:rgb(0,0,0);" transform="rotate(81.0,1674.8,2641.7)" >1850</text>
<line x1='1612.0' y1='2619.4' x2='1614.0' y2='2639.3' style="stroke-width:4.0;stroke:rgb(0,0,0);stroke-linecap:round;fill:none;" />
<text x="1608.5" y="2649.9" font-size="18.2px" font-family="CMUBright-Roman" style="text-anchor:start;fill:rgb(0,0,0);" transform="rotate(84.3,1608.5,2649.9)" >1900</text>
<line x1='1547.0' y1='2624.0' x2='1547.9' y2='2644.0' style="stroke-width:4.0;stroke:rgb(0,0,0);stroke-linecap:round;fill:none;" />
<text x="1541.8" y="2654.2" font-size="18.2px" font-family="CMUBright-Roman" style="text-anchor:start;fill:rgb(0,0,0);" transform="rotate(87.6,1541.8,2654.2)" >1950</text>
<line x1='1481.9' y1='2624.9' x2='1481.6' y2='2644.9' style="stroke-width:4.0;stroke:rgb(0,0,0);stroke-linecap:round;fill:none;" />
<text x="1487.9" y="2654.9" font-size="18.2px" font-family="CMUBright-Roman" style="text-anchor:end;fill:rgb(0,0,0);" transform="rotate(-89.1,1487.9,2654.9)" >2000</text>
<line x1='1416.9' y1='2621.9' x2='1415.4' y2='2641.9' style="stroke-width:4.0;stroke:rgb(0,0,0);stroke-linecap:round;fill:none;" />
<text x="1421.1" y="2652.3" font-size="18.2px" font-family="CMUBright-Roman" style="text-anchor:end;fill:rgb(0,0,0);" transform="rotate(-85.8,1421.1,2652.3)" >2050</text>
<line x1='1352.1' y1='2615.2' x2='1349.5' y2='2635.1' style="stroke-width:4.0;stroke:rgb(0,0,0);stroke-linecap:round;fill:none;" />
<text x="1354.6" y="2645.8" font-size="18.2px" font-family="CMUBright-Roman" style="text-anchor:end;fill:rgb(0,0,0);" transform="rotate(-82.4,1354.6,2645.8)" >2100</text>
<line x1='1287.8' y1='2604.8' x2='1284.1' y2='2624.5' style="stroke-width:4.0;stroke:rgb(0,0,0);stroke-linecap:round;fill:none;" />
<text x="1288.6" y="2635.5" font-size="18.2px" font-family="CMUBright-Roman" style="text-anchor:end;fill:rgb(0,0,0);" transform="rotate(-79.1,1288.6,2635.5)" >2150</text>
<line x1='1224.3' y1='2590.7' x2='1219.4' y2='2610.1' style="stroke-width:4.0;stroke:rgb(0,0,0);stroke-linecap:round;fill:none;" />
<text x="1223.2" y="2621.3" font-size="18.2px" font-family="CMUBright-Roman" style="text-anchor:end;fill:rgb(0,0,0);" transform="rotate(-75.8,1223.2,2621.3)" >2200</text>
<line x1='1161.6' y1='2572.9' x2='1155.6' y2='2592.0' style="stroke-width:4.0;stroke:rgb(0,0,0);stroke-linecap:round;fill:none;" />
<text x="1158.8" y="2603.5" font-size="18.2px" font-family="CMUBright-Roman" style="text-anchor:end;fill:rgb(0,0,0);" transform="rotate(-72.5,1158.8,2603.5)" >2250</text>
<line x1='1100.1' y1='2551.5' x2='1093.0' y2='2570.2' style="stroke-width:4.0;stroke:rgb(0,0,0);stroke-linecap:round;fill:none;" />
<text x="1095.5" y="2581.9" font-size="18.2px" font-family="CMUBright-Roman" style="text-anchor:end;fill:rgb(0,0,0);" transform="rotate(-69.2,1095.5,2581.9)" >2300</text>
<line x1='1040.0' y1='2526.6' x2='1031.8' y2='2544.9' style="stroke-width:4.0;stroke:rgb(0,0,0);stroke-linecap:round;fill:none;" />
<text x="1033.6" y="2556.7" font-size="18.2px" font-family="CMUBright-Roman" style="text-anchor:end;fill:rgb(0,0,0);" transform="rotate(-65.9,1033.6,2556.7)" >2350</text>
<line x1='981.3' y1='2498.3' x2='972.1' y2='2516.1' style="stroke-width:4.0;stroke:rgb(0,0,0);stroke-linecap:round;fill:none;" />
<text x="973.3" y="2527.9" font-size="18.2px" font-family="CMUBright-Roman" style="text-anchor:end;fill:rgb(0,0,0);" transform="rotate(-62.5,973.3,2527.9)" >2400</text>
<line x1='924.5' y1='2466.6' x2='914.2' y2='2483.8' style="stroke-width:4.0;stroke:rgb(0,0,0);stroke-linecap:round;fill:none;" />
<text x="914.7" y="2495.7" font-size="18.2px" font-family="CMUBright-Roman" style="text-anchor:end;fill:rgb(0,0,0);" transform="rotate(-59.2,914.7,2495.7)" >2450</text>
<line x1='869.5' y1='2431.7' x2='858.3' y2='2448.3' style="stroke-width:4.0;stroke:rgb(0,0,0);stroke-linecap:round;fill:none;" />
<text x="858.1" y="2460.2" font-size="18.2px" font-family="CMUBright-Roman" style="text-anchor:end;fill:rgb(0,0,0);" transform="rotate(-55.9,858.1,2460.2)" >2500</text>
<line x1='816.6' y1='2393.7' x2='804.5' y2='2409.6' style="stroke-width:4.0;stroke:rgb(0,0,0);stroke-linecap:round;fill:none;" />
<text x="803.6" y="2421.4" font-size="18.2px" font-family="CMUBright-Roman" style="text-anchor:end;fill:rgb(0,0,0);" transform="rotate(-52.6,803.6,2421.4)" >2550</text>
<line x1='766.1' y1='2352.6' x2='753.0' y2='2367.8' style="stroke-width:4.0;stroke:rgb(0,0,0);stroke-linecap:round;fill:none;" />
<text x="751.5" y="2379.6" font-size="18.2px" font-family="CMUBright-Roman" style="text-anchor:end;fill:rgb(0,0,0);" transform="rotate(-49.3,751.5,2379.6)" >2600</text>
<line x1='718.0' y1='2308.8' x2='704.1' y2='2323.1' style="stroke-width:4.0;stroke:rgb(0,0,0);stroke-linecap:round;fill:none;" />
<text x="701.8" y="2334.8" font-size="18.2px" font-family="CMUBright-Roman" style="text-anchor:end;fill:rgb(0,0,0);" transform="rotate(-46.0,701.8,2334.8)" >2650</text>
<line x1='672.5' y1='2262.2' x2='657.8' y2='2275.7' style="stroke-width:4.0;stroke:rgb(0,0,0);stroke-linecap:round;fill:none;" />
<text x="654.9" y="2287.3" font-size="18.2px" font-family="CMUBright-Roman" style="text-anchor:end;fill:rgb(0,0,0);" transform="rotate(-42.6,654.9,2287.3)" >2700</text>
<line x1='629.8' y1='2213.0' x2='614.3' y2='2225.7' style="stroke-width:4.0;stroke:rgb(0,0,0);stroke-linecap:round;fill:none;" />
<text x="610.7" y="2237.0" font-size="18.2px" font-family="CMUBright-Roman" style="text-anchor:end;fill:rgb(0,0,0);" transform="rotate(-39.3,610.7,2237.0)" >2750</text>
<line x1='590.0' y1='2161.5' x2='573.8' y2='2173.2' style="stroke-width:4.0;stroke:rgb(0,0,0);stroke-linecap:round;fill:none;" />
<text x="569.6" y="2184.4" font-size="18.2px" font-family="CMUBright-Roman" style="text-anchor:end;fill:rgb(0,0,0);" transform="rotate(-36.0,569.6,2184.4)" >2800</text>
<line x1='553.3' y1='2107.7' x2='536.4' y2='2118.5' style="stroke-width:4.0;stroke:rgb(0,0,0);stroke-linecap:round;fill:none;" />
<text x="531.5" y="2129.4" font-size="18.2px" font-family="CMUBright-Roman" style="text-anchor:end;fill:rgb(0,0,0);" transform="rotate(-32.7,531.5,2129.4)" >2850</text>
<line x1='519.7' y1='2051.9' x2='502.3' y2='2061.7' style="stroke-width:4.0;stroke:rgb(0,0,0);stroke-linecap:round;fill:none;" />
<text x="496.8" y="2072.3" font-size="18.2px" font-family="CMUBright-Roman" style="text-anchor:end;fill:rgb(0,0,0);" transform="rotate(-29.4,496.8,2072.3)" >2900</text>
<line x1='489.4' y1='1994.3' x2='471.4' y2='2003.1' style="stroke-width:4.0;stroke:rgb(0,0,0);stroke-linecap:round;fill:none;" />
<text x="465.3" y="2013.3" font-size="18.2px" font-family="CMUBright-Roman" style="text-anchor:end;fill:rgb(0,0,0);" transform="rotate(-26.1,465.3,2013.3)" >2950</text>
<line x1='462.5' y1='1935.0' x2='444.1' y2='1942.7' style="stroke-width:4.0;stroke:rgb(0,0,0);stroke-linecap:round;fill:none;" />
<text x="437.4" y="1952.6" font-size="18.2px" font-family="CMUBright-Roman" style="text-anchor:end;fill:rgb(0,0,0);" transform="rotate(-22.7,437.4,1952.6)" >3000</text>
<line x1='439.1' y1='1874.2' x2='420.2' y2='1880.9' style="stroke-width:4.0;stroke:rgb(0,0,0);stroke-linecap:round;fill:none;" />
<text x="413.0" y="1890.3" font-size="18.2px" font-family="CMUBright-Roman" style="text-anchor:end;fill:rgb(0,0,0);" transform="rotate(-19.4,413.0,1890.3)" >3050</text>
<line x1='419.2' y1='1812.2' x2='400.0' y2='1817.8' style="stroke-width:4.0;stroke:rgb(0,0,0);stroke-linecap:round;fill:none;" />
<text x="392.2" y="1826.8" font-size="18.2px" font-family="CMUBright-Roman" style="text-anchor:end;fill:rgb(0,0,0);" transform="rotate(-16.1,392.2,1826.8)" >3100</text>
<line x1='402.9' y1='1749.2' x2='383.4' y2='1753.6' style="stroke-width:4.0;stroke:rgb(0,0,0);stroke-linecap:round;fill:none;" />
<text x="375.1" y="1762.2" font-size="18.2px" font-family="CMUBright-Roman" style="text-anchor:end;fill:rgb(0,0,0);" transform="rotate(-12.8,375.1,1762.2)" >3150</text>
<line x1='390.4' y1='1685.3' x2='370.6' y2='1688.6' style="stroke-width:4.0;stroke:rgb(0,0,0);stroke-linecap:round;fill:none;" />
<text x="361.9" y="1696.7" font-size="18.2px" font-family="CMUBright-Roman" style="text-anchor:end;fill:rgb(0,0,0);" transform="rotate(-9.5,361.9,1696.7)" >3200</text>
<line x1='381.5' y1='1620.8' x2='361.6' y2='1622.9' style="stroke-width:4.0;stroke:rgb(0,0,0);stroke-linecap:round;fill:none;" />
<text x="352.4" y="1630.5" font-size="18.2px" font-family="CMUBright-Roman" style="text-anchor:end;fill:rgb(0,0,0);" transform="rotate(-6.2,352.4,1630.5)" >3250</text>
<line x1='376.4' y1='1555.9' x2='356.4' y2='1556.9' style="stroke-width:4.0;stroke:rgb(0,0,0);stroke-linecap:round;fill:none;" />
<text x="346.8" y="1563.9" font-size="18.2px" font-family="CMUBright-Roman" style="text-anchor:end;fill:rgb(0,0,0);" transform="rotate(-2.8,346.8,1563.9)" >3300</text>
<line x1='375.0' y1='1490.8' x2='355.0' y2='1490.6' style="stroke-width:4.0;stroke:rgb(0,0,0);stroke-linecap:round;fill:none;" />
<text x="345.0" y="1497.0" font-size="18.2px" font-family="CMUBright-Roman" style="text-anchor:end;fill:rgb(0,0,0);" transform="rotate(0.5,345.0,1497.0)" >3350</text>
<line x1='377.5' y1='1425.7' x2='357.5' y2='1424.4' style="stroke-width:4.0;stroke:rgb(0,0,0);stroke-linecap:round;fill:none;" />
<text x="347.1" y="1430.2" font-size="18.2px" font-family="CMUBright-Roman" style="text-anchor:end;fill:rgb(0,0,0);" transform="rotate(3.8,347.1,1430.2)" >3400</text>
<line x1='383.6' y1='1360.9' x2='363.8' y2='1358.4' style="stroke-width:4.0;stroke:rgb(0,0,0);stroke-linecap:round;fill:none;" />
<text x="353.1" y="1363.6" font-size="18.2px" font-family="CMUBright-Roman" style="text-anchor:end;fill:rgb(0,0,0);" transform="rotate(7.1,353.1,1363.6)" >3450</text>
<line x1='393.5' y1='1296.6' x2='373.9' y2='1292.9' style="stroke-width:4.0;stroke:rgb(0,0,0);stroke-linecap:round;fill:none;" />
<text x="362.9" y="1297.5" font-size="18.2px" font-family="CMUBright-Roman" style="text-anchor:end;fill:rgb(0,0,0);" transform="rotate(10.4,362.9,1297.5)" >3500</text>
<line x1='407.2' y1='1232.9' x2='387.7' y2='1228.1' style="stroke-width:4.0;stroke:rgb(0,0,0);stroke-linecap:round;fill:none;" />
<text x="376.5" y="1232.1" font-size="18.2px" font-family="CMUBright-Roman" style="text-anchor:end;fill:rgb(0,0,0);" transform="rotate(13.7,376.5,1232.1)" >3550</text>
<line x1='424.5' y1='1170.1' x2='405.3' y2='1164.2' style="stroke-width:4.0;stroke:rgb(0,0,0);stroke-linecap:round;fill:none;" />
<text x="393.9" y="1167.5" font-size="18.2px" font-family="CMUBright-Roman" style="text-anchor:end;fill:rgb(0,0,0);" transform="rotate(17.1,393.9,1167.5)" >3600</text>
<line x1='445.3' y1='1108.4' x2='426.6' y2='1101.5' style="stroke-width:4.0;stroke:rgb(0,0,0);stroke-linecap:round;fill:none;" />
<text x="415.0" y="1104.1" font-size="18.2px" font-family="CMUBright-Roman" style="text-anchor:end;fill:rgb(0,0,0);" transform="rotate(20.4,415.0,1104.1)" >3650</text>
<line x1='469.8' y1='1048.1' x2='451.4' y2='1040.0' style="stroke-width:4.0;stroke:rgb(0,0,0);stroke-linecap:round;fill:none;" />
<text x="439.7" y="1042.0" font-size="18.2px" font-family="CMUBright-Roman" style="text-anchor:end;fill:rgb(0,0,0);" transform="rotate(23.7,439.7,1042.0)" >3700</text>
<line x1='497.6' y1='989.2' x2='479.8' y2='980.1' style="stroke-width:4.0;stroke:rgb(0,0,0);stroke-linecap:round;fill:none;" />
<text x="468.0" y="981.4" font-size="18.2px" font-family="CMUBright-Roman" style="text-anchor:end;fill:rgb(0,0,0);" transform="rotate(27.0,468.0,981.4)" >3750</text>
<line x1='528.9' y1='932.1' x2='511.6' y2='922.0' style="stroke-width:4.0;stroke:rgb(0,0,0);stroke-linecap:round;fill:none;" />
<text x="499.7" y="922.6" font-size="18.2px" font-family="CMUBright-Roman" style="text-anchor:end;fill:rgb(0,0,0);" transform="rotate(30.3,499.7,922.6)" >3800</text>
<line x1='563.3' y1='876.9' x2='546.7' y2='865.8' style="stroke-width:4.0;stroke:rgb(0,0,0);stroke-linecap:round;fill:none;" />
<text x="534.8" y="865.7" font-size="18.2px" font-family="CMUBright-Roman" style="text-anchor:end;fill:rgb(0,0,0);" transform="rotate(33.6,534.8,865.7)" >3850</text>
<line x1='601.0' y1='823.7' x2='585.0' y2='811.7' style="stroke-width:4.0;stroke:rgb(0,0,0);stroke-linecap:round;fill:none;" />
<text x="573.1" y="810.9" font-size="18.2px" font-family="CMUBright-Roman" style="text-anchor:end;fill:rgb(0,0,0);" transform="rotate(37.0,573.1,810.9)" >3900</text>
<line x1='641.6' y1='772.8' x2='626.3' y2='759.9' style="stroke-width:4.0;stroke:rgb(0,0,0);stroke-linecap:round;fill:none;" />
<text x="614.5" y="758.4" font-size="18.2px" font-family="CMUBright-Roman" style="text-anchor:end;fill:rgb(0,0,0);" transform="rotate(40.3,614.5,758.4)" >3950</text>
<line x1='685.1' y1='724.4' x2='670.6' y2='710.6' style="stroke-width:4.0;stroke:rgb(0,0,0);stroke-linecap:round;fill:none;" />
<text x="658.9" y="708.4" font-size="18.2px" font-family="CMUBright-Roman" style="text-anchor:end;fill:rgb(0,0,0);" transform="rotate(43.6,658.9,708.4)" >4000</text>
<line x1='731.3' y1='678.5' x2='717.7' y2='663.9' style="stroke-width:4.0;stroke:rgb(0,0,0);stroke-linecap:round;fill:none;" />
<text x="706.1" y="661.1" font-size="18.2px" font-family="CMUBright-Roman" style="text-anchor:end;fill:rgb(0,0,0);" transform="rotate(46.9,706.1,661.1)" >4050</text>
<line x1='780.2' y1='635.5' x2='767.4' y2='620.1' style="stroke-width:4.0;stroke:rgb(0,0,0);stroke-linecap:round;fill:none;" />
<text x="756.0" y="616.6" font-size="18.2px" font-family="CMUBright-Roman" style="text-anchor:end;fill:rgb(0,0,0);" transform="rotate(50.2,756.0,616.6)" >4100</text>
<line x1='831.4' y1='595.3' x2='819.5' y2='579.2' style="stroke-width:4.0;stroke:rgb(0,0,0);stroke-linecap:round;fill:none;" />
<text x="808.3" y="575.0" font-size="18.2px" font-family="CMUBright-Roman" style="text-anchor:end;fill:rgb(0,0,0);" transform="rotate(53.5,808.3,575.0)" >4150</text>
<line x1='884.8' y1='558.1' x2='873.9' y2='541.3' style="stroke-width:4.0;stroke:rgb(0,0,0);stroke-linecap:round;fill:none;" />
<text x="863.0" y="536.5" font-size="18.2px" font-family="CMUBright-Roman" style="text-anchor:end;fill:rgb(0,0,0);" transform="rotate(56.9,863.0,536.5)" >4200</text>
<line x1='940.4' y1='524.1' x2='930.4' y2='506.7' style="stroke-width:4.0;stroke:rgb(0,0,0);stroke-linecap:round;fill:none;" />
<text x="919.8" y="501.3" font-size="18.2px" font-family="CMUBright-Roman" style="text-anchor:end;fill:rgb(0,0,0);" transform="rotate(60.2,919.8,501.3)" >4250</text>
<line x1='997.8' y1='493.3' x2='988.8' y2='475.4' style="stroke-width:4.0;stroke:rgb(0,0,0);stroke-linecap:round;fill:none;" />
<text x="978.6" y="469.4" font-size="18.2px" font-family="CMUBright-Roman" style="text-anchor:end;fill:rgb(0,0,0);" transform="rotate(63.5,978.6,469.4)" >4300</text>
<line x1='1056.8' y1='466.0' x2='1049.0' y2='447.6' style="stroke-width:4.0;stroke:rgb(0,0,0);stroke-linecap:round;fill:none;" />
<text x="1039.1" y="441.0" font-size="18.2px" font-family="CMUBright-Roman" style="text-anchor:end;fill:rgb(0,0,0);" transform="rotate(66.8,1039.1,441.0)" >4350</text>
<line x1='1117.4' y1='442.1' x2='1110.6' y2='423.2' style="stroke-width:4.0;stroke:rgb(0,0,0);stroke-linecap:round;fill:none;" />
<text x="1101.1" y="416.1" font-size="18.2px" font-family="CMUBright-Roman" style="text-anchor:end;fill:rgb(0,0,0);" transform="rotate(70.1,1101.1,416.1)" >4400</text>
<line x1='1179.2' y1='421.7' x2='1173.5' y2='402.5' style="stroke-width:4.0;stroke:rgb(0,0,0);stroke-linecap:round;fill:none;" />
<text x="1164.5" y="394.8" font-size="18.2px" font-family="CMUBright-Roman" style="text-anchor:end;fill:rgb(0,0,0);" transform="rotate(73.4,1164.5,394.8)" >4450</text>
<line x1='1242.2' y1='404.9' x2='1237.6' y2='385.5' style="stroke-width:4.0;stroke:rgb(0,0,0);stroke-linecap:round;fill:none;" />
<text x="1229.0" y="377.2" font-size="18.2px" font-family="CMUBright-Roman" style="text-anchor:end;fill:rgb(0,0,0);" transform="rotate(76.8,1229.0,377.2)" >4500</text>
<line x1='1306.0' y1='391.9' x2='1302.5' y2='372.2' style="stroke-width:4.0;stroke:rgb(0,0,0);stroke-linecap:round;fill:none;" />
<text x="1294.4" y="363.5" font-size="18.2px" font-family="CMUBright-Roman" style="text-anchor:end;fill:rgb(0,0,0);" transform="rotate(80.1,1294.4,363.5)" >4550</text>
<line x1='1370.4' y1='382.5' x2='1368.1' y2='362.6' style="stroke-width:4.0;stroke:rgb(0,0,0);stroke-linecap:round;fill:none;" />
<text x="1360.5" y="353.5" font-size="18.2px" font-family="CMUBright-Roman" style="text-anchor:end;fill:rgb(0,0,0);" transform="rotate(83.4,1360.5,353.5)" >4600</text>
<g id="highlighttrack_0">
<path d="M1387.385,430.915 A1075.000,1075.000 40.000 0,1 1391.322,430.508 L1386.267,380.764 A1125.000,1125.000 0.000 0,0 1382.147,381.190 Z" style="stroke-width:4.0;stroke:rgb(0,0,0);stroke-linecap:round;fill:rgb(116,196,118);" />
<path d="M2336.797,825.170 A1075.000,1075.000 40.000 0,1 2339.102,828.038 L2378.130,796.784 A1125.000,1125.000 0.000 0,0 2375.718,793.782 Z" style="stroke-width:4.0;stroke:rgb(0,0,0);stroke-linecap:round;fill:rgb(251,106,74);" />
<path d="M2421.847,946.988 A1075.000,1075.000 40.000 0,1 2423.875,950.382 L2466.846,924.819 A1125.000,1125.000 0.000 0,0 2464.724,921.266 Z" style="stroke-width:4.0;stroke:rgb(0,0,0);stroke-linecap:round;fill:rgb(251,106,74);" />
<path d="M2432.318,964.829 A1075.000,1075.000 40.000 0,1 2434.140,968.015 L2477.588,943.271 A1125.000,1125.000 0.000 0,0 2475.682,939.937 Z" style="stroke-width:4.0;stroke:rgb(0,0,0);stroke-linecap:round;fill:rgb(251,106,74);" />
<path d="M1095.611,503.961 A1075.000,1075.000 40.000 0,1 1099.438,502.415 L1080.808,456.016 A1125.000,1125.000 0.000 0,0 1076.802,457.633 Z" style="stroke-width:4.0;stroke:rgb(0,0,0);stroke-linecap:round;fill:rgb(116,196,118);" />
<path d="M1725.253,2551.136 A1075.000,1075.000 40.000 0,1 1721.213,2551.993 L1731.502,2600.923 A1125.000,1125.000 0.000 0,0 1735.730,2600.026 Z" style="stroke-width:4.0;stroke:rgb(0,0,0);stroke-linecap:round;fill:rgb(251,106,74);" />
<path d="M574.617,952.925 A1075.000,1075.000 40.000 0,1 576.494,949.763 L533.540,924.170 A1125.000,1125.000 0.000 0,0 531.576,927.480 Z" style="stroke-width:4.0;stroke:rgb(0,0,0);stroke-linecap:round;fill:rgb(116,196,118);" />
<path d="M482.072,1154.387 A1075.000,1075.000 40.000 0,1 483.242,1150.960 L435.951,1134.725 A1125.000,1125.000 0.000 0,0 434.727,1138.312 Z" style="stroke-width:4.0;stroke:rgb(0,0,0);stroke-linecap:round;fill:rgb(116,196,118);" />
<path d="M1165.284,478.437 A1075.000,1075.000 40.000 0,1 1173.828,475.677 L1158.658,428.034 A1125.000,1125.000 0.000 0,0 1149.716,430.923 Z" style="stroke-width:4.0;stroke:rgb(0,0,0);stroke-linecap:round;fill:rgb(251,106,74);" />
<path d="M1194.693,469.266 A1075.000,1075.000 40.000 0,1 1198.556,468.130 L1184.535,420.136 A1125.000,1125.000 0.000 0,0 1180.493,421.325 Z" style="stroke-width:4.0;stroke:rgb(0,0,0);stroke-linecap:round;fill:rgb(251,106,74);" />
<path d="M2462.623,1978.521 A1075.000,1075.000 40.000 0,1 2461.360,1981.054 L2506.074,2003.428 A1125.000,1125.000 0.000 0,0 2507.396,2000.778 Z" style="stroke-width:4.0;stroke:rgb(0,0,0);stroke-linecap:round;fill:rgb(116,196,118);" />
<path d="M2464.556,1974.613 A1075.000,1075.000 40.000 0,1 2463.300,1977.156 L2508.105,1999.350 A1125.000,1125.000 0.000 0,0 2509.419,1996.688 Z" style="stroke-width:4.0;stroke:rgb(0,0,0);stroke-linecap:round;fill:rgb(116,196,118);" />
<path d="M689.440,2206.129 A1075.000,1075.000 40.000 0,1 687.537,2203.938 L649.748,2236.679 A1125.000,1125.000 0.000 0,0 651.740,2238.972 Z" style="stroke-width:4.0;stroke:rgb(0,0,0);stroke-linecap:round;fill:rgb(116,196,118);" />
<path d="M834.002,656.157 A1075.000,1075.000 40.000 0,1 836.282,654.362 L805.412,615.030 A1125.000,1125.000 0.000 0,0 803.025,616.908 Z" style="stroke-width:4.0;stroke:rgb(0,0,0);stroke-linecap:round;fill:rgb(116,196,118);" />
</g>
</g>
<g id="track_0">
<path d="M 2247.921,742.872 A 1064.250,1064.250 0.00 0,1 2250.5,745.4 L 2250.5,745.4 2198.4,797.0 2149.3,844.2 2103.1,887.1 2059.6,925.9 2018.6,961.0 1980.0,992.5 1943.7,1020.6 1909.4,1045.4 1877.2,1067.1 1846.8,1085.9 1818.1,1101.9 1791.0,1115.1 1765.5,1125.8 1741.3,1133.9 1718.5,1139.5 1696.8,1142.7 1676.3,1143.6 1656.8,1142.0 1638.2,1138.1 1620.6,1131.9 1603.7,1123.2 1587.6,1112.1 1572.2,1098.5 1557.4,1082.4 1543.2,1063.6 1529.5,1042.1 1516.4,1017.8 1503.7,990.4 1491.5,960.0 1479.7,926.2 1468.4,889.0 1457.4,848.2 1446.9,803.5 1436.7,754.7 1427.0,701.6 1417.7,644.0 1408.8,581.6 1400.4,514.1 1392.4,441.2  A 1064.250,1064.250 0.00 0,0 1388.5,441.6 L 1388.5,441.6 1396.7,514.5 1405.4,582.0 1414.5,644.3 1424.0,701.9 1434.0,754.9 1444.3,803.7 1455.0,848.3 1466.1,889.1 1477.6,926.3 1489.5,960.0 1501.9,990.4 1514.6,1017.7 1527.9,1042.0 1541.6,1063.5 1555.9,1082.2 1570.7,1098.3 1586.2,1111.8 1602.4,1122.9 1619.3,1131.5 1637.0,1137.7 1655.5,1141.5 1675.0,1143.0 1695.6,1142.1 1717.2,1138.8 1740.0,1133.1 1764.2,1124.9 1789.7,1114.2 1816.7,1100.8 1845.3,1084.7 1875.7,1065.8 1907.9,1044.0 1942.0,1019.0 1978.3,990.9 2016.8,959.2 2057.6,924.0 2101.0,885.0 2147.1,842.0 2196.0,794.7 2247.9,742.9  Z" style="stroke-width: 2.0;  stroke: rgb(82,82,82); fill: rgb(251,106,74); opacity: 0.667;" />
<path d="M 2328.429,831.918 A 1064.250,1064.250 0.00 0,1 2330.7,834.8 L 2330.7,834.8 2273.1,880.1 2218.8,921.4 2167.8,958.7 2119.7,992.2 2074.5,1022.3 2031.9,1049.0 1991.9,1072.6 1954.2,1093.2 1918.7,1111.0 1885.2,1126.1 1853.7,1138.5 1824.0,1148.5 1796.0,1156.1 1769.5,1161.3 1744.4,1164.3 1720.7,1165.0 1698.2,1163.5 1676.8,1159.8 1656.5,1153.9 1637.2,1145.8 1618.8,1135.4 1601.2,1122.8 1584.4,1107.8 1568.2,1090.4 1552.8,1070.4 1537.9,1047.9 1523.7,1022.5 1510.0,994.4 1496.8,963.1 1484.1,928.7 1471.9,891.0 1460.2,849.6 1448.9,804.5 1438.2,755.4 1428.0,702.1 1418.2,644.3 1409.0,581.7 1400.4,514.1 1392.4,441.2  A 1064.250,1064.250 0.00 0,0 1388.5,441.6 L 1388.5,441.6 1396.8,514.5 1405.7,582.1 1415.1,644.6 1425.0,702.4 1435.5,755.7 1446.4,804.7 1457.8,849.8 1469.7,891.1 1482.0,928.8 1494.8,963.2 1508.1,994.3 1521.9,1022.5 1536.3,1047.7 1551.2,1070.3 1566.8,1090.1 1582.9,1107.5 1599.8,1122.4 1617.5,1135.0 1635.9,1145.3 1655.3,1153.4 1675.6,1159.2 1697.0,1162.8 1719.5,1164.2 1743.2,1163.4 1768.3,1160.4 1794.7,1155.1 1822.8,1147.4 1852.5,1137.3 1883.9,1124.8 1917.3,1109.6 1952.8,1091.7 1990.4,1071.0 2030.4,1047.2 2072.8,1020.3 2117.9,990.1 2165.9,956.4 2216.8,918.9 2271.0,877.5 2328.4,831.9  Z" style="stroke-width: 2.0;  stroke: rgb(82,82,82); fill: rgb(116,196,118); opacity: 0.667;" />
<path d="M 2328.429,831.918 A 1064.250,1064.250 0.00 0,1 2330.7,834.8 L 2330.7,834.8 2273.5,880.5 2220.6,922.6 2171.7,961.3 2126.7,996.8 2085.2,1029.2 2047.3,1058.7 2012.7,1085.4 1981.2,1109.4 1952.7,1130.9 1927.1,1149.9 1904.3,1166.6 1884.0,1181.0 1866.4,1193.2 1851.2,1203.3 1838.3,1211.4 1827.8,1217.4 1819.6,1221.4 1813.5,1223.5 1809.7,1223.6 1808.0,1221.7 1808.6,1217.9 1811.3,1212.2 1816.1,1204.4 1823.3,1194.6 1832.6,1182.7 1844.3,1168.6 1858.4,1152.4 1874.9,1133.8 1893.9,1112.9 1915.6,1089.5 1940.0,1063.5 1967.2,1034.7 1997.5,1003.2 2030.9,968.6 2067.5,930.9 2107.6,889.9 2151.4,845.5 2198.9,797.4 2250.5,745.4  A 1064.250,1064.250 0.00 0,0 2247.9,742.9 L 2247.9,742.9 2196.5,795.0 2149.1,843.3 2105.5,887.9 2065.6,929.0 2029.0,966.8 1995.8,1001.5 1965.6,1033.2 1938.5,1062.0 1914.2,1088.1 1892.6,1111.6 1873.6,1132.6 1857.2,1151.2 1843.2,1167.5 1831.5,1181.6 1822.2,1193.5 1815.1,1203.3 1810.3,1211.1 1807.6,1216.9 1807.1,1220.7 1808.8,1222.5 1812.6,1222.4 1818.6,1220.3 1826.8,1216.3 1837.3,1210.2 1850.1,1202.1 1865.3,1192.0 1882.9,1179.7 1903.1,1165.2 1925.9,1148.4 1951.5,1129.3 1979.9,1107.7 2011.3,1083.6 2045.8,1056.8 2083.6,1027.2 2124.9,994.6 2169.9,959.0 2218.6,920.1 2271.4,877.8 2328.4,831.9  Z" style="stroke-width: 2.0;  stroke: rgb(82,82,82); fill: rgb(107,174,214); opacity: 0.667;" />
<path d="M 2412.629,952.518 A 1064.250,1064.250 0.00 0,1 2414.6,955.9 L 2414.6,955.9 2351.2,992.8 2291.6,1026.1 2235.5,1055.8 2182.7,1082.2 2133.1,1105.4 2086.5,1125.8 2042.6,1143.3 2001.4,1158.2 1962.6,1170.6 1926.0,1180.6 1891.6,1188.3 1859.2,1193.9 1828.6,1197.3 1799.7,1198.6 1772.4,1197.9 1746.5,1195.3 1722.0,1190.6 1698.7,1184.0 1676.6,1175.4 1655.6,1164.8 1635.5,1152.2 1616.3,1137.4 1598.0,1120.5 1580.5,1101.3 1563.6,1079.8 1547.5,1055.7 1532.0,1029.1 1517.1,999.8 1502.8,967.6 1489.1,932.2 1476.0,893.7 1463.4,851.7 1451.4,806.0 1439.9,756.4 1429.1,702.7 1418.9,644.6 1409.3,581.9 1400.5,514.2 1392.4,441.2  A 1064.250,1064.250 0.00 0,0 1388.5,441.6 L 1388.5,441.6 1396.9,514.5 1406.0,582.2 1415.7,644.9 1426.2,703.0 1437.2,756.7 1448.8,806.2 1461.0,851.8 1473.7,893.8 1487.0,932.3 1500.9,967.5 1515.3,999.7 1530.3,1029.0 1545.9,1055.6 1562.1,1079.5 1579.0,1101.0 1596.6,1120.1 1615.0,1137.0 1634.2,1151.7 1654.3,1164.2 1675.4,1174.8 1697.6,1183.3 1720.9,1189.8 1745.4,1194.4 1771.3,1196.9 1798.6,1197.5 1827.5,1196.1 1858.1,1192.6 1890.5,1186.9 1924.9,1179.1 1961.4,1168.9 2000.1,1156.4 2041.3,1141.3 2085.1,1123.6 2131.7,1103.1 2181.2,1079.6 2233.8,1053.1 2289.8,1023.1 2349.3,989.7 2412.6,952.5  Z" style="stroke-width: 2.0;  stroke: rgb(82,82,82); fill: rgb(253,141,60); opacity: 0.667;" />
<path d="M 2412.629,952.518 A 1064.250,1064.250 0.00 0,1 2414.6,955.9 L 2414.6,955.9 2351.6,993.2 2293.2,1027.4 2239.2,1058.6 2189.4,1087.1 2143.4,1112.9 2101.3,1136.2 2062.7,1157.0 2027.5,1175.6 1995.5,1191.9 1966.6,1206.1 1940.7,1218.3 1917.6,1228.5 1897.2,1236.7 1879.5,1243.1 1864.3,1247.6 1851.6,1250.4 1841.2,1251.4 1833.2,1250.6 1827.6,1248.0 1824.2,1243.7 1823.1,1237.6 1824.2,1229.6 1827.7,1219.8 1833.5,1208.1 1841.6,1194.5 1852.1,1178.8 1865.1,1161.1 1880.6,1141.2 1898.7,1119.0 1919.5,1094.5 1943.1,1067.4 1969.7,1037.8 1999.3,1005.4 2032.1,970.2 2068.4,932.0 2108.1,890.5 2151.6,845.7 2199.0,797.4 2250.5,745.4  A 1064.250,1064.250 0.00 0,0 2247.9,742.9 L 2247.9,742.9 2196.6,795.1 2149.4,843.5 2106.0,888.5 2066.4,930.0 2030.3,968.4 1997.6,1003.7 1968.1,1036.2 1941.6,1065.9 1918.1,1093.0 1897.4,1117.6 1879.3,1139.9 1863.9,1159.8 1851.0,1177.6 1840.5,1193.3 1832.5,1207.0 1826.7,1218.7 1823.3,1228.5 1822.1,1236.4 1823.3,1242.5 1826.7,1246.8 1832.3,1249.4 1840.3,1250.1 1850.7,1249.1 1863.4,1246.3 1878.6,1241.7 1896.3,1235.3 1916.6,1226.9 1939.7,1216.7 1965.5,1204.4 1994.4,1190.1 2026.3,1173.7 2061.4,1155.0 2099.9,1134.0 2142.0,1110.6 2187.8,1084.6 2237.6,1055.9 2291.5,1024.5 2349.8,990.0 2412.6,952.5  Z" style="stroke-width: 2.0;  stroke: rgb(82,82,82); fill: rgb(255,0,0); opacity: 0.667;" />
<path d="M 2412.629,952.518 A 1064.250,1064.250 0.00 0,1 2414.6,955.9 L 2414.6,955.9 2351.7,993.2 2293.4,1027.6 2239.6,1059.1 2190.0,1088.0 2144.5,1114.2 2102.7,1138.1 2064.6,1159.6 2030.0,1178.8 1998.7,1196.0 1970.5,1211.1 1945.4,1224.2 1923.2,1235.4 1903.8,1244.8 1887.1,1252.4 1873.1,1258.3 1861.6,1262.5 1852.6,1265.0 1846.0,1265.8 1841.9,1265.0 1840.1,1262.5 1840.8,1258.3 1843.9,1252.5 1849.4,1244.9 1857.3,1235.6 1867.8,1224.5 1880.7,1211.5 1896.4,1196.7 1914.7,1179.8 1935.8,1160.9 1959.8,1139.9 1986.9,1116.6 2017.1,1090.9 2050.6,1062.8 2087.5,1032.1 2128.1,998.7 2172.6,962.4 2221.0,923.1 2273.6,880.6 2330.7,834.8  A 1064.250,1064.250 0.00 0,0 2328.4,831.9 L 2328.4,831.9 2271.5,877.9 2219.0,920.6 2170.7,960.1 2126.4,996.5 2085.9,1030.1 2049.1,1060.9 2015.7,1089.2 1985.5,1114.9 1958.6,1138.3 1934.6,1159.4 1913.6,1178.4 1895.3,1195.3 1879.7,1210.2 1866.8,1223.2 1856.4,1234.3 1848.5,1243.7 1843.0,1251.2 1840.0,1257.1 1839.3,1261.3 1841.0,1263.7 1845.2,1264.6 1851.7,1263.7 1860.7,1261.2 1872.2,1257.0 1886.2,1251.0 1902.9,1243.4 1922.3,1233.9 1944.4,1222.6 1969.5,1209.4 1997.6,1194.2 2028.8,1176.9 2063.4,1157.5 2101.4,1135.9 2143.0,1111.9 2188.5,1085.4 2238.0,1056.4 2291.7,1024.7 2349.8,990.1 2412.6,952.5  Z" style="stroke-width: 2.0;  stroke: rgb(82,82,82); fill: rgb(255,0,204); opacity: 0.667;" />
<path d="M 2422.995,970.180 A 1064.250,1064.250 0.00 0,1 2424.8,973.3 L 2424.8,973.3 2360.7,1009.1 2300.4,1041.1 2243.7,1069.8 2190.3,1095.1 2140.2,1117.4 2093.1,1136.8 2048.8,1153.5 2007.1,1167.6 1967.9,1179.2 1931.0,1188.5 1896.3,1195.5 1863.5,1200.4 1832.6,1203.2 1803.4,1204.0 1775.8,1202.8 1749.7,1199.6 1725.0,1194.5 1701.5,1187.5 1679.2,1178.5 1657.9,1167.6 1637.6,1154.6 1618.3,1139.5 1599.8,1122.3 1582.0,1102.9 1565.0,1081.1 1548.7,1056.9 1533.1,1030.1 1518.1,1000.6 1503.6,968.2 1489.8,932.8 1476.5,894.1 1463.8,852.0 1451.7,806.2 1440.2,756.6 1429.2,702.8 1419.0,644.7 1409.4,581.9 1400.5,514.2 1392.4,441.2  A 1064.250,1064.250 0.00 0,0 1388.5,441.6 L 1388.5,441.6 1396.9,514.5 1406.0,582.2 1415.8,645.0 1426.3,703.1 1437.4,756.8 1449.1,806.4 1461.4,852.1 1474.3,894.2 1487.7,932.8 1501.7,968.2 1516.2,1000.5 1531.4,1030.0 1547.1,1056.7 1563.5,1080.9 1580.6,1102.6 1598.4,1122.0 1617.0,1139.1 1636.4,1154.1 1656.7,1167.0 1678.0,1177.9 1700.4,1186.8 1723.9,1193.8 1748.7,1198.8 1774.8,1201.8 1802.4,1203.0 1831.6,1202.1 1862.5,1199.2 1895.2,1194.2 1930.0,1187.0 1966.8,1177.6 2006.0,1165.9 2047.6,1151.6 2091.9,1134.8 2138.9,1115.2 2189.0,1092.8 2242.2,1067.2 2298.8,1038.4 2359.0,1006.1 2423.0,970.2  Z" style="stroke-width: 2.0;  stroke: rgb(82,82,82); fill: rgb(255,204,204); opacity: 0.667;" />
<path d="M 2422.995,970.180 A 1064.250,1064.250 0.00 0,1 2424.8,973.3 L 2424.8,973.3 2361.1,1009.4 2302.0,1042.5 2247.4,1072.7 2197.0,1100.1 2150.5,1125.0 2107.8,1147.4 2068.7,1167.4 2033.1,1185.1 2000.7,1200.7 1971.4,1214.2 1945.1,1225.7 1921.7,1235.3 1901.0,1243.0 1883.0,1248.8 1867.5,1252.9 1854.5,1255.1 1843.9,1255.7 1835.7,1254.5 1829.8,1251.5 1826.2,1246.8 1824.9,1240.4 1825.9,1232.1 1829.2,1222.0 1834.8,1210.1 1842.7,1196.2 1853.1,1180.3 1865.9,1162.3 1881.3,1142.2 1899.3,1119.9 1920.0,1095.2 1943.5,1068.0 1970.0,1038.2 1999.5,1005.8 2032.3,970.4 2068.5,932.1 2108.2,890.6 2151.6,845.8 2199.0,797.5 2250.5,745.4  A 1064.250,1064.250 0.00 0,0 2247.9,742.9 L 2247.9,742.9 2196.6,795.1 2149.4,843.6 2106.1,888.5 2066.5,930.2 2030.5,968.6 1997.8,1004.1 1968.4,1036.6 1942.0,1066.5 1918.6,1093.7 1898.0,1118.5 1880.1,1140.9 1864.8,1161.1 1852.0,1179.1 1841.7,1195.0 1833.8,1208.9 1828.2,1220.9 1825.0,1231.0 1824.0,1239.3 1825.3,1245.7 1828.9,1250.4 1834.8,1253.3 1843.0,1254.5 1853.6,1253.9 1866.6,1251.6 1882.1,1247.5 1900.1,1241.6 1920.8,1233.9 1944.2,1224.2 1970.5,1212.6 1999.7,1199.0 2032.0,1183.3 2067.6,1165.4 2106.6,1145.3 2149.2,1122.8 2195.6,1097.7 2245.9,1070.1 2300.5,1039.7 2359.4,1006.5 2423.0,970.2  Z" style="stroke-width: 2.0;  stroke: rgb(82,82,82); fill: rgb(255,153,0); opacity: 0.667;" />
<path d="M 2422.995,970.180 A 1064.250,1064.250 0.00 0,1 2424.8,973.3 L 2424.8,973.3 2361.1,1009.5 2302.2,1042.7 2247.8,1073.2 2197.6,1101.0 2151.5,1126.3 2109.2,1149.2 2070.7,1169.9 2035.6,1188.4 2003.9,1204.8 1975.3,1219.2 1949.8,1231.7 1927.3,1242.3 1907.6,1251.1 1890.6,1258.2 1876.2,1263.6 1864.4,1267.3 1855.2,1269.3 1848.4,1269.7 1844.0,1268.5 1842.1,1265.6 1842.6,1261.1 1845.5,1255.0 1850.8,1247.1 1858.6,1237.6 1868.8,1226.2 1881.7,1213.0 1897.2,1197.9 1915.4,1180.9 1936.4,1161.8 1960.3,1140.6 1987.2,1117.2 2017.4,1091.4 2050.8,1063.1 2087.7,1032.3 2128.2,998.8 2172.6,962.5 2221.0,923.1 2273.6,880.6 2330.7,834.8  A 1064.250,1064.250 0.00 0,0 2328.4,831.9 L 2328.4,831.9 2271.5,877.9 2219.0,920.6 2170.8,960.2 2126.5,996.7 2086.1,1030.3 2049.3,1061.3 2016.0,1089.6 1985.9,1115.5 1959.1,1139.0 1935.2,1160.3 1914.3,1179.5 1896.1,1196.6 1880.7,1211.7 1867.9,1224.9 1857.7,1236.3 1849.9,1245.9 1844.6,1253.8 1841.8,1260.0 1841.3,1264.5 1843.2,1267.3 1847.6,1268.5 1854.4,1268.1 1863.6,1266.0 1875.4,1262.3 1889.7,1256.9 1906.7,1249.7 1926.4,1240.8 1948.9,1230.1 1974.4,1217.6 2002.9,1203.1 2034.5,1186.6 2069.5,1168.0 2108.0,1147.2 2150.2,1124.1 2196.2,1098.6 2246.3,1070.6 2300.6,1040.0 2359.5,1006.5 2423.0,970.2  Z" style="stroke-width: 2.0;  stroke: rgb(82,82,82); fill: rgb(255,204,0); opacity: 0.667;" />
<path d="M 2422.995,970.180 A 1064.250,1064.250 0.00 0,1 2424.8,973.3 L 2424.8,973.3 2361.2,1009.5 2302.4,1043.0 2248.2,1073.8 2198.3,1102.1 2152.6,1128.0 2110.8,1151.7 2072.8,1173.2 2038.3,1192.6 2007.3,1210.1 1979.6,1225.7 1954.9,1239.5 1933.3,1251.5 1914.6,1261.8 1898.8,1270.6 1885.6,1277.7 1875.1,1283.3 1867.3,1287.4 1862.0,1290.0 1859.3,1291.1 1859.0,1290.7 1861.4,1288.9 1866.2,1285.6 1873.7,1280.8 1883.7,1274.4 1896.4,1266.5 1911.8,1257.0 1930.1,1245.9 1951.2,1233.1 1975.3,1218.4 2002.6,1202.0 2033.1,1183.6 2067.0,1163.3 2104.5,1140.8 2145.7,1116.2 2190.8,1089.2 2240.1,1059.9 2293.6,1027.9 2351.7,993.3 2414.6,955.9  A 1064.250,1064.250 0.00 0,0 2412.6,952.5 L 2412.6,952.5 2349.9,990.2 2291.9,1025.0 2238.4,1057.1 2189.3,1086.7 2144.3,1113.8 2103.2,1138.6 2065.8,1161.2 2032.0,1181.7 2001.5,1200.2 1974.3,1216.7 1950.2,1231.4 1929.2,1244.3 1911.0,1255.5 1895.6,1265.1 1882.9,1273.1 1872.9,1279.4 1865.5,1284.3 1860.6,1287.6 1858.3,1289.5 1858.5,1289.8 1861.3,1288.7 1866.5,1286.1 1874.4,1282.0 1884.8,1276.4 1898.0,1269.2 1913.8,1260.4 1932.5,1250.0 1954.0,1237.9 1978.6,1224.0 2006.3,1208.4 2037.3,1190.8 2071.7,1171.2 2109.6,1149.6 2151.3,1125.8 2197.0,1099.7 2246.7,1071.2 2300.8,1040.3 2359.5,1006.6 2423.0,970.2  Z" style="stroke-width: 2.0;  stroke: rgb(82,82,82); fill: rgb(255,255,0); opacity: 0.667;" />
<path d="M 1099.654,513.921 A 1064.250,1064.250 0.00 0,1 1103.4,512.4 L 1103.4,512.4 1130.9,580.3 1156.6,642.9 1180.6,700.5 1203.1,753.4 1224.1,801.7 1243.6,845.8 1261.8,885.7 1278.8,921.8 1294.5,954.1 1309.2,982.9 1322.7,1008.2 1335.2,1030.3 1346.8,1049.1 1357.4,1064.9 1367.2,1077.7 1376.1,1087.6 1384.3,1094.5 1391.7,1098.7 1398.3,1100.0 1404.3,1098.6 1409.5,1094.3 1414.1,1087.2 1418.1,1077.2 1421.4,1064.3 1424.2,1048.5 1426.2,1029.6 1427.7,1007.5 1428.6,982.2 1428.8,953.4 1428.4,921.2 1427.3,885.2 1425.6,845.4 1423.1,801.5 1420.0,753.4 1416.1,700.9 1411.4,643.6 1406.0,581.4 1399.6,514.1 1392.4,441.2  A 1064.250,1064.250 0.00 0,0 1388.5,441.6 L 1388.5,441.6 1396.0,514.4 1402.6,581.8 1408.3,644.0 1413.2,701.2 1417.3,753.7 1420.6,801.8 1423.2,845.7 1425.0,885.5 1426.2,921.4 1426.8,953.7 1426.7,982.4 1425.9,1007.8 1424.5,1029.8 1422.5,1048.8 1419.8,1064.6 1416.5,1077.5 1412.6,1087.5 1408.0,1094.6 1402.8,1098.9 1396.8,1100.4 1390.1,1099.1 1382.7,1095.0 1374.6,1088.0 1365.6,1078.2 1355.8,1065.5 1345.1,1049.7 1333.4,1030.9 1320.8,1008.9 1307.2,983.6 1292.5,954.9 1276.6,922.6 1259.5,886.7 1241.1,846.8 1221.4,802.8 1200.2,754.5 1177.5,701.7 1153.3,644.2 1127.4,581.7 1099.7,513.9  Z" style="stroke-width: 2.0;  stroke: rgb(82,82,82); fill: rgb(204,255,0); opacity: 0.667;" />
<path d="M 1099.654,513.921 A 1064.250,1064.250 0.00 0,1 1103.4,512.4 L 1103.4,512.4 1131.4,580.3 1158.7,642.9 1185.4,700.6 1211.4,753.6 1236.8,802.3 1261.7,846.8 1286.1,887.4 1310.0,924.4 1333.5,957.9 1356.7,988.2 1379.7,1015.4 1402.4,1039.7 1424.9,1061.1 1447.4,1080.0 1469.9,1096.3 1492.4,1110.2 1515.1,1121.7 1538.0,1130.9 1561.3,1137.9 1584.9,1142.7 1609.0,1145.4 1633.7,1145.8 1659.1,1144.0 1685.2,1140.0 1712.3,1133.8 1740.4,1125.2 1769.5,1114.2 1799.9,1100.8 1831.6,1084.7 1864.8,1065.9 1899.6,1044.2 1936.0,1019.5 1974.3,991.6 2014.6,960.3 2057.0,925.4 2101.6,886.7 2148.7,844.0 2198.2,797.0 2250.5,745.4  A 1064.250,1064.250 0.00 0,0 2247.9,742.9 L 2247.9,742.9 2195.8,794.6 2146.4,841.8 2099.5,884.7 2055.0,923.5 2012.8,958.5 1972.6,990.0 1934.4,1018.0 1898.0,1042.8 1863.3,1064.6 1830.2,1083.5 1798.5,1099.7 1768.2,1113.3 1739.0,1124.4 1711.0,1133.1 1684.0,1139.4 1657.8,1143.5 1632.4,1145.3 1607.7,1145.0 1583.6,1142.5 1559.9,1137.8 1536.7,1130.8 1513.7,1121.7 1491.0,1110.2 1468.4,1096.4 1445.9,1080.2 1423.3,1061.5 1400.6,1040.0 1377.8,1015.9 1354.8,988.8 1331.5,958.6 1307.8,925.1 1283.7,888.3 1259.2,847.7 1234.1,803.3 1208.5,754.7 1182.3,701.8 1155.4,644.2 1127.9,581.7 1099.7,513.9  Z" style="stroke-width: 2.0;  stroke: rgb(82,82,82); fill: rgb(0,255,0); opacity: 0.667;" />
<path d="M 1099.654,513.921 A 1064.250,1064.250 0.00 0,1 1103.4,512.4 L 1103.4,512.4 1131.5,580.3 1159.0,643.0 1185.9,700.7 1212.4,753.9 1238.3,802.8 1263.8,847.6 1288.9,888.6 1313.6,926.0 1338.0,960.0 1362.2,990.8 1386.1,1018.7 1409.9,1043.8 1433.6,1066.1 1457.3,1086.0 1481.0,1103.4 1504.9,1118.6 1529.0,1131.5 1553.4,1142.3 1578.2,1150.9 1603.5,1157.6 1629.3,1162.2 1655.9,1164.8 1683.2,1165.4 1711.4,1164.0 1740.7,1160.4 1771.1,1154.8 1802.7,1146.9 1835.7,1136.8 1870.3,1124.3 1906.4,1109.3 1944.4,1091.7 1984.3,1071.2 2026.3,1047.9 2070.5,1021.4 2117.1,991.6 2166.3,958.3 2218.2,921.2 2272.9,880.1 2330.7,834.8  A 1064.250,1064.250 0.00 0,0 2328.4,831.9 L 2328.4,831.9 2270.8,877.5 2216.2,918.7 2164.4,956.0 2115.4,989.5 2068.9,1019.4 2024.8,1046.1 1982.8,1069.6 1943.0,1090.1 1905.1,1107.9 1868.9,1123.0 1834.4,1135.7 1801.5,1145.9 1769.8,1153.9 1739.5,1159.6 1710.2,1163.2 1682.0,1164.8 1654.6,1164.3 1628.1,1161.8 1602.2,1157.2 1576.9,1150.7 1552.1,1142.1 1527.6,1131.4 1503.5,1118.6 1479.5,1103.5 1455.7,1086.2 1432.0,1066.4 1408.2,1044.1 1384.3,1019.2 1360.2,991.4 1336.0,960.6 1311.4,926.7 1286.6,889.4 1261.3,848.5 1235.6,803.8 1209.5,755.0 1182.9,702.0 1155.7,644.3 1128.0,581.7 1099.7,513.9  Z" style="stroke-width: 2.0;  stroke: rgb(82,82,82); fill: rgb(53,128,0); opacity: 0.667;" />
<path d="M 1099.654,513.921 A 1064.250,1064.250 0.00 0,1 1103.4,512.4 L 1103.4,512.4 1131.6,580.3 1159.3,643.1 1186.6,701.0 1213.6,754.4 1240.1,803.6 1266.4,848.8 1292.3,890.2 1317.9,928.2 1343.3,962.9 1368.5,994.6 1393.5,1023.4 1418.5,1049.6 1443.5,1073.2 1468.5,1094.4 1493.6,1113.4 1518.9,1130.2 1544.5,1145.0 1570.5,1157.9 1597.0,1168.9 1624.0,1178.0 1651.6,1185.3 1680.1,1190.9 1709.4,1194.7 1739.8,1196.6 1771.3,1196.8 1804.0,1195.1 1838.2,1191.5 1873.9,1185.9 1911.3,1178.2 1950.6,1168.3 1991.8,1156.1 2035.2,1141.5 2081.0,1124.3 2129.3,1104.3 2180.2,1081.4 2234.0,1055.3 2290.9,1025.8 2351.0,992.8 2414.6,955.9  A 1064.250,1064.250 0.00 0,0 2412.6,952.5 L 2412.6,952.5 2349.2,989.6 2289.2,1022.9 2232.4,1052.6 2178.7,1078.9 2127.8,1102.0 2079.6,1122.2 2033.9,1139.6 1990.5,1154.3 1949.3,1166.7 1910.1,1176.7 1872.7,1184.5 1837.0,1190.3 1802.9,1194.0 1770.1,1195.8 1738.6,1195.8 1708.3,1193.9 1678.9,1190.2 1650.4,1184.8 1622.7,1177.6 1595.7,1168.5 1569.2,1157.7 1543.2,1144.9 1517.5,1130.2 1492.1,1113.4 1466.9,1094.5 1441.8,1073.4 1416.8,1049.9 1391.7,1023.8 1366.5,995.1 1341.2,963.5 1315.7,928.9 1289.9,891.0 1263.9,849.7 1237.5,804.6 1210.7,755.5 1183.6,702.2 1156.0,644.4 1128.1,581.7 1099.7,513.9  Z" style="stroke-width: 2.0;  stroke: rgb(82,82,82); fill: rgb(0,0,204); opacity: 0.667;" />
<path d="M 1099.654,513.921 A 1064.250,1064.250 0.00 0,1 1103.4,512.4 L 1103.4,512.4 1131.6,580.3 1159.4,643.1 1186.7,701.0 1213.7,754.5 1240.4,803.7 1266.7,848.9 1292.7,890.5 1318.4,928.5 1344.0,963.4 1369.3,995.2 1394.5,1024.1 1419.6,1050.4 1444.8,1074.2 1469.9,1095.6 1495.2,1114.8 1520.7,1131.9 1546.5,1147.0 1572.7,1160.2 1599.3,1171.5 1626.6,1181.0 1654.4,1188.7 1683.1,1194.7 1712.7,1198.9 1743.3,1201.4 1775.1,1202.1 1808.1,1200.9 1842.6,1197.9 1878.6,1193.0 1916.3,1186.0 1956.0,1176.9 1997.6,1165.5 2041.4,1151.7 2087.6,1135.3 2136.4,1116.3 2187.9,1094.3 2242.2,1069.3 2299.7,1040.9 2360.5,1009.0 2424.8,973.3  A 1064.250,1064.250 0.00 0,0 2423.0,970.2 L 2423.0,970.2 2358.8,1006.1 2298.2,1038.2 2240.8,1066.7 2186.5,1092.0 2135.1,1114.1 2086.4,1133.3 2040.2,1149.8 1996.4,1163.8 1954.8,1175.3 1915.2,1184.6 1877.5,1191.7 1841.5,1196.8 1807.0,1199.9 1774.0,1201.1 1742.2,1200.5 1711.6,1198.2 1682.0,1194.1 1653.3,1188.2 1625.4,1180.6 1598.1,1171.2 1571.4,1160.0 1545.2,1146.9 1519.4,1131.9 1493.8,1114.9 1468.4,1095.8 1443.2,1074.4 1417.9,1050.7 1392.7,1024.5 1367.4,995.7 1341.9,964.0 1316.3,929.2 1290.4,891.3 1264.2,849.8 1237.7,804.7 1210.9,755.6 1183.7,702.3 1156.1,644.4 1128.1,581.7 1099.7,513.9  Z" style="stroke-width: 2.0;  stroke: rgb(82,82,82); fill: rgb(102,153,255); opacity: 0.667;" />
<path d="M 1723.001,2540.624 A 1064.250,1064.250 0.00 0,1 1719.0,2541.5 L 1719.0,2541.5 1704.9,2468.4 1693.5,2398.1 1684.6,2330.4 1677.8,2265.3 1672.7,2202.5 1668.9,2142.0 1666.3,2083.6 1664.5,2027.2 1663.3,1972.7 1662.3,1920.0 1661.5,1868.9 1660.6,1819.3 1659.3,1771.0 1657.7,1723.8 1655.4,1677.8 1652.4,1632.5 1648.6,1588.1 1643.8,1544.2 1638.1,1500.7 1631.4,1457.4 1623.6,1414.2 1614.8,1371.0 1605.0,1327.4 1594.1,1283.5 1582.3,1238.9 1569.5,1193.4 1556.0,1147.0 1541.9,1099.5 1527.1,1050.5 1512.0,1000.0 1496.7,947.7 1481.3,893.5 1466.0,837.1 1451.2,778.3 1437.0,716.9 1423.8,652.7 1411.7,585.5 1401.1,515.1 1392.4,441.2  A 1064.250,1064.250 0.00 0,0 1388.5,441.6 L 1388.5,441.6 1397.5,515.5 1408.3,585.8 1420.6,653.0 1434.1,717.1 1448.5,778.4 1463.6,837.2 1479.0,893.5 1494.6,947.7 1510.2,1000.0 1525.5,1050.4 1540.4,1099.3 1554.8,1146.8 1568.4,1193.2 1581.3,1238.5 1593.3,1283.1 1604.3,1327.0 1614.4,1370.5 1623.3,1413.8 1631.3,1456.9 1638.2,1500.1 1644.0,1543.6 1648.9,1587.5 1652.9,1632.0 1656.1,1677.2 1658.5,1723.2 1660.4,1770.4 1661.8,1818.7 1662.9,1868.3 1664.0,1919.4 1665.1,1972.1 1666.5,2026.6 1668.6,2082.9 1671.4,2141.3 1675.4,2201.8 1680.7,2264.6 1687.8,2329.7 1697.0,2397.4 1708.6,2467.6 1723.0,2540.6  Z" style="stroke-width: 2.0;  stroke: rgb(82,82,82); fill: rgb(153,204,255); opacity: 0.667;" />
<path d="M 1723.001,2540.624 A 1064.250,1064.250 0.00 0,1 1719.0,2541.5 L 1719.0,2541.5 1704.9,2469.0 1693.6,2400.2 1684.8,2334.9 1678.4,2272.8 1674.1,2213.8 1671.7,2157.6 1670.9,2104.0 1671.7,2052.8 1673.8,2003.8 1677.0,1956.7 1681.4,1911.5 1686.7,1867.8 1692.8,1825.6 1699.8,1784.6 1707.4,1744.7 1715.7,1705.7 1724.7,1667.5 1734.3,1629.8 1744.6,1592.5 1755.6,1555.5 1767.2,1518.7 1779.7,1481.8 1793.0,1444.8 1807.2,1407.6 1822.5,1369.9 1839.0,1331.8 1856.8,1293.0 1876.1,1253.5 1897.1,1213.2 1919.9,1171.9 1944.8,1129.7 1972.1,1086.3 2001.9,1041.7 2034.5,995.9 2070.3,948.7 2109.4,900.2 2152.3,850.1 2199.2,798.6 2250.5,745.4  A 1064.250,1064.250 0.00 0,0 2247.9,742.9 L 2247.9,742.9 2196.8,796.2 2150.0,847.9 2107.3,898.1 2068.4,946.8 2032.8,994.1 2000.3,1040.0 1970.7,1084.7 1943.6,1128.1 1918.8,1170.5 1896.1,1211.8 1875.3,1252.2 1856.1,1291.8 1838.4,1330.6 1822.1,1368.8 1806.9,1406.5 1792.8,1443.8 1779.7,1480.8 1767.3,1517.7 1755.8,1554.6 1745.0,1591.6 1734.9,1628.9 1725.4,1666.6 1716.6,1704.9 1708.4,1744.0 1700.9,1783.9 1694.1,1824.9 1688.1,1867.1 1683.0,1910.8 1678.8,1956.1 1675.7,2003.1 1673.8,2052.1 1673.2,2103.4 1674.2,2156.9 1676.8,2213.1 1681.4,2272.1 1688.0,2334.2 1697.0,2399.4 1708.6,2468.2 1723.0,2540.6  Z" style="stroke-width: 2.0;  stroke: rgb(82,82,82); fill: rgb(0,255,255); opacity: 0.667;" />
<path d="M 1723.001,2540.624 A 1064.250,1064.250 0.00 0,1 1719.0,2541.5 L 1719.0,2541.5 1704.8,2469.0 1693.5,2400.4 1684.7,2335.4 1678.2,2273.8 1673.9,2215.3 1671.4,2159.7 1670.7,2106.9 1671.6,2056.5 1673.8,2008.3 1677.4,1962.2 1682.1,1918.0 1687.8,1875.5 1694.5,1834.5 1702.2,1794.8 1710.7,1756.3 1720.0,1718.7 1730.1,1682.0 1741.0,1646.0 1752.8,1610.4 1765.4,1575.3 1778.9,1540.4 1793.3,1505.6 1808.9,1470.8 1825.5,1435.9 1843.4,1400.7 1862.8,1365.2 1883.6,1329.3 1906.2,1292.8 1930.6,1255.7 1957.2,1217.8 1986.0,1179.2 2017.4,1139.8 2051.5,1099.4 2088.7,1058.0 2129.2,1015.6 2173.3,972.1 2221.4,927.5 2273.8,881.7 2330.7,834.8  A 1064.250,1064.250 0.00 0,0 2328.4,831.9 L 2328.4,831.9 2271.6,879.1 2219.5,925.0 2171.5,969.8 2127.5,1013.4 2087.2,1056.0 2050.1,1097.5 2016.1,1138.0 1984.9,1177.6 1956.2,1216.3 1929.8,1254.2 1905.5,1291.4 1883.0,1327.9 1862.3,1364.0 1843.1,1399.5 1825.3,1434.7 1808.8,1469.7 1793.4,1504.6 1779.1,1539.4 1765.7,1574.3 1753.2,1609.5 1741.6,1645.1 1730.8,1681.2 1720.8,1717.9 1711.7,1755.5 1703.3,1794.1 1695.8,1833.8 1689.3,1874.8 1683.7,1917.4 1679.1,1961.6 1675.8,2007.7 1673.7,2055.8 1673.1,2106.2 1674.0,2159.1 1676.6,2214.7 1681.2,2273.1 1687.9,2334.7 1696.9,2399.7 1708.6,2468.2 1723.0,2540.6  Z" style="stroke-width: 2.0;  stroke: rgb(82,82,82); fill: rgb(204,255,255); opacity: 0.667;" />
<path d="M 1723.001,2540.624 A 1064.250,1064.250 0.00 0,1 1719.0,2541.5 L 1719.0,2541.5 1704.8,2469.1 1693.4,2400.7 1684.5,2336.1 1677.9,2275.0 1673.5,2217.2 1671.0,2162.4 1670.2,2110.4 1671.1,2061.0 1673.5,2014.0 1677.2,1969.1 1682.2,1926.3 1688.4,1885.2 1695.6,1845.8 1704.0,1807.8 1713.3,1771.1 1723.6,1735.4 1734.9,1700.8 1747.2,1666.9 1760.5,1633.7 1774.8,1601.1 1790.2,1568.8 1806.8,1536.9 1824.7,1505.1 1843.9,1473.4 1864.6,1441.7 1886.9,1409.8 1911.0,1377.7 1937.1,1345.4 1965.2,1312.7 1995.7,1279.6 2028.7,1246.0 2064.4,1211.9 2103.2,1177.2 2145.2,1142.0 2190.8,1106.1 2240.2,1069.5 2293.7,1032.3 2351.8,994.4 2414.6,955.9  A 1064.250,1064.250 0.00 0,0 2412.6,952.5 L 2412.6,952.5 2349.9,991.3 2292.0,1029.4 2238.6,1066.8 2189.3,1103.5 2143.9,1139.6 2102.0,1175.0 2063.3,1209.8 2027.7,1244.1 1994.8,1277.8 1964.5,1311.0 1936.5,1343.8 1910.6,1376.2 1886.6,1408.4 1864.4,1440.3 1843.8,1472.1 1824.7,1503.9 1807.0,1535.7 1790.5,1567.8 1775.2,1600.1 1761.0,1632.8 1747.8,1666.0 1735.7,1699.9 1724.5,1734.6 1714.3,1770.3 1705.2,1807.0 1697.0,1845.1 1689.9,1884.5 1683.8,1925.6 1679.0,1968.5 1675.4,2013.3 1673.3,2060.3 1672.6,2109.7 1673.5,2161.7 1676.2,2216.5 1680.9,2274.3 1687.7,2335.4 1696.8,2400.0 1708.5,2468.3 1723.0,2540.6  Z" style="stroke-width: 2.0;  stroke: rgb(82,82,82); fill: rgb(153,0,204); opacity: 0.667;" />
<path d="M 1723.001,2540.624 A 1064.250,1064.250 0.00 0,1 1719.0,2541.5 L 1719.0,2541.5 1704.8,2469.1 1693.4,2400.8 1684.5,2336.2 1677.9,2275.2 1673.4,2217.4 1670.9,2162.7 1670.1,2110.9 1671.0,2061.6 1673.4,2014.7 1677.1,1970.1 1682.2,1927.4 1688.4,1886.6 1695.7,1847.4 1704.1,1809.6 1713.5,1773.1 1724.0,1737.8 1735.4,1703.4 1747.8,1669.9 1761.3,1637.0 1775.8,1604.7 1791.5,1572.9 1808.3,1541.3 1826.5,1510.0 1846.0,1478.7 1867.1,1447.5 1889.8,1416.2 1914.3,1384.7 1940.7,1352.9 1969.3,1320.9 2000.3,1288.5 2033.8,1255.6 2070.1,1222.3 2109.4,1188.5 2152.0,1154.1 2198.2,1119.1 2248.3,1083.6 2302.5,1047.4 2361.2,1010.7 2424.8,973.3  A 1064.250,1064.250 0.00 0,0 2423.0,970.2 L 2423.0,970.2 2359.6,1007.7 2300.9,1044.7 2246.8,1081.0 2196.9,1116.7 2150.8,1151.8 2108.3,1186.4 2069.1,1220.3 2032.9,1253.8 1999.6,1286.7 1968.7,1319.3 1940.2,1351.4 1913.9,1383.2 1889.5,1414.8 1866.9,1446.2 1846.0,1477.5 1826.6,1508.8 1808.5,1540.2 1791.8,1571.8 1776.2,1603.7 1761.8,1636.1 1748.5,1669.0 1736.2,1702.6 1724.9,1737.0 1714.6,1772.3 1705.3,1808.9 1697.0,1846.6 1689.9,1885.9 1683.8,1926.7 1678.9,1969.4 1675.4,2014.1 1673.2,2061.0 1672.5,2110.2 1673.4,2162.1 1676.2,2216.8 1680.8,2274.5 1687.7,2335.5 1696.8,2400.0 1708.5,2468.3 1723.0,2540.6  Z" style="stroke-width: 2.0;  stroke: rgb(82,82,82); fill: rgb(204,51,255); opacity: 0.667;" />
<path d="M 1723.001,2540.624 A 1064.250,1064.250 0.00 0,1 1719.0,2541.5 L 1719.0,2541.5 1702.5,2469.0 1684.6,2400.2 1665.5,2334.8 1645.5,2272.6 1624.9,2213.4 1603.9,2156.8 1582.7,2102.7 1561.5,2050.8 1540.5,2000.8 1519.9,1952.6 1499.7,1906.0 1480.1,1860.6 1461.3,1816.4 1443.2,1773.1 1426.0,1730.5 1409.6,1688.4 1394.2,1646.6 1379.7,1605.0 1366.2,1563.4 1353.5,1521.6 1341.7,1479.5 1330.6,1436.9 1320.2,1393.6 1310.4,1349.5 1301.1,1304.5 1292.0,1258.5 1283.1,1211.2 1274.2,1162.6 1265.0,1112.6 1255.4,1061.1 1245.2,1007.9 1233.9,952.9 1221.5,896.1 1207.5,837.4 1191.7,776.7 1173.8,713.9 1153.3,649.0 1130.0,581.8 1103.4,512.4  A 1064.250,1064.250 0.00 0,0 1099.7,513.9 L 1099.7,513.9 1126.5,583.3 1150.1,650.3 1170.8,715.2 1189.0,777.9 1205.0,838.6 1219.2,897.2 1231.8,954.0 1243.3,1008.8 1253.8,1062.0 1263.6,1113.5 1272.9,1163.5 1282.0,1212.0 1291.1,1259.3 1300.3,1305.3 1309.8,1350.3 1319.8,1394.3 1330.3,1437.5 1341.6,1480.1 1353.6,1522.2 1366.4,1563.9 1380.1,1605.5 1394.8,1647.0 1410.4,1688.7 1426.8,1730.7 1444.2,1773.3 1462.5,1816.5 1481.5,1860.7 1501.3,1906.0 1521.6,1952.6 1542.5,2000.7 1563.7,2050.5 1585.0,2102.4 1606.4,2156.4 1627.7,2212.9 1648.5,2272.1 1668.7,2334.2 1688.1,2399.5 1706.2,2468.2 1723.0,2540.6  Z" style="stroke-width: 2.0;  stroke: rgb(82,82,82); fill: rgb(204,153,255); opacity: 0.667;" />
<path d="M 583.871,958.396 A 1064.250,1064.250 0.00 0,1 585.7,955.3 L 585.7,955.3 649.0,992.3 708.3,1025.8 763.9,1055.8 815.9,1082.5 864.5,1106.2 910.0,1127.0 952.4,1145.0 992.1,1160.5 1029.2,1173.4 1063.7,1183.9 1096.0,1192.1 1126.0,1198.0 1154.0,1201.8 1180.1,1203.5 1204.4,1203.2 1226.9,1200.8 1247.9,1196.3 1267.3,1189.9 1285.3,1181.3 1301.9,1170.8 1317.2,1158.1 1331.2,1143.2 1344.1,1126.1 1355.8,1106.7 1366.4,1084.8 1375.9,1060.5 1384.2,1033.5 1391.5,1003.7 1397.7,971.0 1402.8,935.3 1406.7,896.2 1409.5,853.8 1411.1,807.6 1411.5,757.6 1410.6,703.5 1408.3,645.1 1404.5,582.1 1399.3,514.2 1392.4,441.2  A 1064.250,1064.250 0.00 0,0 1388.5,441.6 L 1388.5,441.6 1395.6,514.6 1401.1,582.5 1405.1,645.5 1407.6,703.9 1408.8,758.0 1408.6,808.0 1407.2,854.1 1404.5,896.6 1400.7,935.6 1395.8,971.4 1389.7,1004.1 1382.5,1033.9 1374.3,1060.9 1364.9,1085.3 1354.4,1107.2 1342.8,1126.6 1330.0,1143.8 1315.9,1158.7 1300.7,1171.4 1284.1,1182.1 1266.2,1190.7 1246.8,1197.2 1225.9,1201.7 1203.3,1204.2 1179.1,1204.6 1153.0,1203.0 1125.0,1199.3 1094.9,1193.5 1062.7,1185.4 1028.1,1175.0 991.0,1162.2 951.2,1146.9 908.7,1129.0 863.1,1108.4 814.4,1084.9 762.3,1058.3 706.7,1028.5 647.3,995.2 583.9,958.4  Z" style="stroke-width: 2.0;  stroke: rgb(82,82,82); fill: rgb(102,102,102); opacity: 0.667;" />
<path d="M 583.871,958.396 A 1064.250,1064.250 0.00 0,1 585.7,955.3 L 585.7,955.3 649.5,992.1 710.4,1025.1 768.4,1054.5 823.7,1080.5 876.6,1103.4 927.2,1123.4 975.6,1140.9 1022.0,1155.9 1066.6,1168.6 1109.5,1179.3 1150.9,1188.1 1190.9,1195.1 1229.7,1200.5 1267.5,1204.3 1304.3,1206.6 1340.3,1207.5 1375.7,1207.1 1410.6,1205.4 1445.1,1202.4 1479.4,1198.0 1513.5,1192.4 1547.8,1185.4 1582.1,1177.1 1616.8,1167.2 1651.9,1155.8 1687.5,1142.8 1723.8,1128.0 1760.8,1111.2 1798.7,1092.5 1837.6,1071.4 1877.7,1048.0 1918.9,1022.0 1961.5,993.1 2005.5,961.1 2051.0,925.8 2098.2,886.8 2147.1,844.0 2197.8,797.0 2250.5,745.4  A 1064.250,1064.250 0.00 0,0 2247.9,742.9 L 2247.9,742.9 2195.4,794.6 2144.9,841.8 2096.1,884.8 2049.1,923.9 2003.6,959.4 1959.8,991.5 1917.3,1020.5 1876.1,1046.7 1836.2,1070.3 1797.3,1091.4 1759.5,1110.4 1722.5,1127.2 1686.3,1142.1 1650.7,1155.3 1615.7,1166.8 1581.0,1176.8 1546.7,1185.3 1512.5,1192.4 1478.3,1198.1 1444.1,1202.6 1409.6,1205.7 1374.7,1207.6 1339.3,1208.1 1303.3,1207.3 1266.5,1205.1 1228.7,1201.4 1189.9,1196.2 1149.8,1189.3 1108.4,1180.7 1065.5,1170.1 1020.8,1157.5 974.3,1142.7 925.9,1125.4 875.2,1105.5 822.3,1082.8 766.8,1057.0 708.7,1027.8 647.8,995.1 583.9,958.4  Z" style="stroke-width: 2.0;  stroke: rgb(82,82,82); fill: rgb(153,153,153); opacity: 0.667;" />
<path d="M 583.871,958.396 A 1064.250,1064.250 0.00 0,1 585.7,955.3 L 585.7,955.3 649.6,992.1 710.6,1025.1 768.9,1054.5 824.7,1080.5 878.2,1103.5 929.3,1123.6 978.5,1141.2 1025.7,1156.5 1071.2,1169.6 1115.0,1180.7 1157.4,1190.0 1198.5,1197.6 1238.5,1203.7 1277.4,1208.4 1315.5,1211.8 1352.9,1213.9 1389.7,1214.8 1426.1,1214.5 1462.1,1213.2 1498.1,1210.7 1534.0,1207.1 1570.1,1202.3 1606.4,1196.4 1643.1,1189.1 1680.4,1180.6 1718.3,1170.6 1757.0,1159.1 1796.7,1145.8 1837.4,1130.8 1879.4,1113.8 1922.6,1094.6 1967.3,1073.0 2013.5,1048.8 2061.4,1021.8 2111.2,991.7 2162.9,958.2 2216.6,921.1 2272.5,880.1 2330.7,834.8  A 1064.250,1064.250 0.00 0,0 2328.4,831.9 L 2328.4,831.9 2270.4,877.4 2214.6,918.7 2161.0,955.9 2109.4,989.6 2059.8,1019.8 2012.0,1047.0 1965.8,1071.4 1921.2,1093.1 1878.0,1112.5 1836.2,1129.6 1795.5,1144.8 1755.9,1158.2 1717.2,1169.9 1679.3,1180.0 1642.0,1188.7 1605.3,1196.0 1569.0,1202.1 1533.0,1207.0 1497.1,1210.7 1461.2,1213.3 1425.1,1214.8 1388.7,1215.1 1351.9,1214.4 1314.5,1212.4 1276.4,1209.2 1237.5,1204.6 1197.5,1198.7 1156.4,1191.2 1113.9,1182.0 1070.0,1171.0 1024.5,1158.1 977.2,1143.0 928.1,1125.6 876.8,1105.6 823.3,1082.8 767.4,1057.0 709.0,1027.8 647.9,995.1 583.9,958.4  Z" style="stroke-width: 2.0;  stroke: rgb(82,82,82); fill: rgb(204,204,204); opacity: 0.667;" />
<path d="M 583.871,958.396 A 1064.250,1064.250 0.00 0,1 585.7,955.3 L 585.7,955.3 649.7,992.1 711.0,1025.1 769.7,1054.5 826.0,1080.6 880.0,1103.7 932.0,1124.1 981.9,1142.0 1030.1,1157.6 1076.6,1171.2 1121.5,1182.9 1165.1,1192.9 1207.4,1201.5 1248.6,1208.6 1288.9,1214.5 1328.4,1219.3 1367.2,1223.0 1405.6,1225.7 1443.5,1227.5 1481.3,1228.4 1518.9,1228.4 1556.7,1227.6 1594.6,1225.8 1632.9,1223.1 1671.8,1219.4 1711.3,1214.7 1751.5,1208.8 1792.8,1201.7 1835.1,1193.2 1878.7,1183.1 1923.6,1171.4 1970.1,1157.9 2018.3,1142.3 2068.3,1124.5 2120.2,1104.1 2174.3,1081.1 2230.6,1055.0 2289.4,1025.6 2350.7,992.7 2414.6,955.9  A 1064.250,1064.250 0.00 0,0 2412.6,952.5 L 2412.6,952.5 2348.8,989.6 2287.6,1022.7 2229.0,1052.3 2172.8,1078.6 2118.8,1101.9 2066.9,1122.4 2017.0,1140.4 1968.9,1156.2 1922.4,1169.9 1877.5,1181.7 1834.0,1191.9 1791.7,1200.6 1750.5,1207.9 1710.2,1213.9 1670.8,1218.8 1631.9,1222.6 1593.6,1225.4 1555.7,1227.3 1518.0,1228.3 1480.3,1228.4 1442.6,1227.7 1404.6,1226.0 1366.3,1223.4 1327.4,1219.9 1287.9,1215.2 1247.6,1209.5 1206.4,1202.5 1164.0,1194.1 1120.4,1184.2 1075.4,1172.6 1028.9,1159.2 980.7,1143.7 930.7,1126.0 878.7,1105.8 824.5,1082.9 768.1,1057.0 709.3,1027.8 648.0,995.1 583.9,958.4  Z" style="stroke-width: 2.0;  stroke: rgb(82,82,82); fill: rgb(204,204,153); opacity: 0.667;" />
<path d="M 583.871,958.396 A 1064.250,1064.250 0.00 0,1 585.7,955.3 L 585.7,955.3 649.7,992.1 711.0,1025.1 769.8,1054.5 826.1,1080.6 880.3,1103.8 932.3,1124.2 982.4,1142.1 1030.7,1157.8 1077.3,1171.4 1122.4,1183.2 1166.1,1193.4 1208.6,1202.1 1250.0,1209.4 1290.4,1215.5 1330.1,1220.4 1369.1,1224.4 1407.6,1227.3 1445.8,1229.4 1483.7,1230.6 1521.6,1231.0 1559.5,1230.5 1597.7,1229.2 1636.3,1227.0 1675.4,1223.8 1715.1,1219.6 1755.7,1214.3 1797.2,1207.8 1839.9,1200.0 1883.8,1190.7 1929.1,1179.8 1975.9,1167.1 2024.5,1152.3 2074.9,1135.4 2127.4,1116.0 2182.0,1094.0 2238.8,1069.0 2298.2,1040.7 2360.1,1008.9 2424.8,973.3  A 1064.250,1064.250 0.00 0,0 2423.0,970.2 L 2423.0,970.2 2358.4,1006.0 2296.6,1038.0 2237.4,1066.4 2180.6,1091.6 2126.1,1113.9 2073.7,1133.4 2023.3,1150.5 1974.8,1165.4 1928.0,1178.3 1882.7,1189.4 1838.8,1198.9 1796.2,1206.8 1754.7,1213.5 1714.2,1218.9 1674.4,1223.2 1635.3,1226.5 1596.8,1228.9 1558.6,1230.3 1520.7,1230.9 1482.8,1230.7 1444.8,1229.6 1406.7,1227.7 1368.2,1224.8 1329.1,1221.0 1289.5,1216.2 1249.0,1210.2 1207.6,1203.1 1165.1,1194.5 1121.3,1184.5 1076.2,1172.9 1029.5,1159.4 981.2,1143.9 931.0,1126.1 878.9,1105.9 824.7,1082.9 768.2,1057.0 709.4,1027.8 648.0,995.1 583.9,958.4  Z" style="stroke-width: 2.0;  stroke: rgb(82,82,82); fill: rgb(251,106,74); opacity: 0.667;" />
<path d="M 583.871,958.396 A 1064.250,1064.250 0.00 0,1 585.7,955.3 L 585.7,955.3 648.9,992.4 707.8,1026.1 762.6,1056.6 813.6,1084.0 861.0,1108.4 905.0,1130.1 945.8,1149.0 983.4,1165.5 1018.2,1179.5 1050.2,1191.1 1079.6,1200.5 1106.5,1207.7 1131.1,1212.8 1153.4,1215.8 1173.6,1216.8 1191.7,1215.7 1207.9,1212.7 1222.2,1207.6 1234.6,1200.5 1245.3,1191.4 1254.2,1180.2 1261.4,1166.9 1266.9,1151.4 1270.8,1133.7 1272.9,1113.6 1273.4,1091.0 1272.2,1066.0 1269.3,1038.3 1264.5,1007.8 1258.0,974.3 1249.5,937.8 1239.1,898.1 1226.7,854.9 1212.1,808.1 1195.3,757.5 1176.2,702.8 1154.6,643.9 1130.4,580.5 1103.4,512.4  A 1064.250,1064.250 0.00 0,0 1099.7,513.9 L 1099.7,513.9 1126.8,582.0 1151.3,645.3 1173.1,704.1 1192.5,758.7 1209.5,809.2 1224.2,855.9 1236.8,899.1 1247.4,938.8 1256.0,975.3 1262.6,1008.7 1267.5,1039.1 1270.6,1066.8 1271.9,1091.9 1271.5,1114.4 1269.4,1134.5 1265.6,1152.3 1260.2,1167.8 1253.0,1181.1 1244.1,1192.3 1233.5,1201.5 1221.1,1208.6 1206.8,1213.7 1190.7,1216.8 1172.6,1217.9 1152.4,1217.0 1130.1,1214.1 1105.5,1209.1 1078.5,1202.0 1049.1,1192.7 1017.1,1181.1 982.3,1167.2 944.5,1150.9 903.7,1132.1 859.7,1110.6 812.2,1086.3 761.1,1059.1 706.1,1028.9 647.1,995.3 583.9,958.4  Z" style="stroke-width: 2.0;  stroke: rgb(82,82,82); fill: rgb(116,196,118); opacity: 0.667;" />
<path d="M 583.871,958.396 A 1064.250,1064.250 0.00 0,1 585.7,955.3 L 585.7,955.3 648.7,994.1 707.1,1032.6 761.3,1070.8 811.7,1108.6 858.6,1145.9 902.3,1182.8 943.1,1219.1 981.2,1254.9 1017.0,1290.3 1050.7,1325.1 1082.5,1359.4 1112.7,1393.3 1141.5,1426.8 1169.0,1459.9 1195.4,1492.7 1221.0,1525.3 1245.8,1557.8 1270.0,1590.2 1293.8,1622.7 1317.1,1655.3 1340.1,1688.3 1363.0,1721.7 1385.6,1755.7 1408.2,1790.5 1430.7,1826.2 1453.1,1862.9 1475.4,1901.0 1497.7,1940.5 1519.9,1981.8 1541.9,2024.9 1563.7,2070.2 1585.2,2117.9 1606.4,2168.3 1627.1,2221.5 1647.2,2278.0 1666.6,2337.9 1685.2,2401.6 1702.7,2469.3 1719.0,2541.5  A 1064.250,1064.250 0.00 0,0 1723.0,2540.6 L 1723.0,2540.6 1706.4,2468.5 1688.6,2400.9 1669.8,2337.2 1650.2,2277.4 1629.9,2221.0 1609.0,2167.8 1587.6,2117.6 1565.9,2070.0 1543.9,2024.7 1521.7,1981.7 1499.4,1940.5 1477.0,1901.0 1454.5,1863.1 1431.9,1826.4 1409.3,1790.8 1386.6,1756.1 1363.8,1722.2 1340.9,1688.9 1317.7,1656.0 1294.3,1623.4 1270.4,1591.0 1246.1,1558.6 1221.1,1526.3 1195.5,1493.8 1168.9,1461.0 1141.2,1428.0 1112.4,1394.6 1082.1,1360.8 1050.1,1326.6 1016.3,1291.9 980.4,1256.7 942.1,1221.0 901.2,1184.8 857.4,1148.1 810.4,1110.9 759.9,1073.3 705.5,1035.3 647.0,997.0 583.9,958.4  Z" style="stroke-width: 2.0;  stroke: rgb(82,82,82); fill: rgb(107,174,214); opacity: 0.667;" />
<path d="M 492.252,1157.843 A 1064.250,1064.250 0.00 0,1 493.4,1154.5 L 493.4,1154.5 563.1,1177.6 628.3,1198.0 689.2,1215.6 746.3,1230.6 799.6,1243.2 849.4,1253.6 896.0,1261.8 939.4,1267.9 980.0,1272.1 1017.8,1274.4 1053.1,1274.9 1086.0,1273.7 1116.7,1270.8 1145.3,1266.1 1172.0,1259.9 1196.8,1252.0 1219.9,1242.4 1241.4,1231.2 1261.4,1218.2 1279.9,1203.5 1297.0,1187.0 1312.8,1168.7 1327.4,1148.3 1340.8,1126.0 1352.9,1101.4 1363.9,1074.6 1373.8,1045.4 1382.5,1013.6 1390.0,979.1 1396.3,941.8 1401.5,901.3 1405.4,857.6 1408.0,810.4 1409.2,759.6 1409.1,704.8 1407.4,645.8 1404.1,582.4 1399.2,514.3 1392.4,441.2  A 1064.250,1064.250 0.00 0,0 1388.5,441.6 L 1388.5,441.6 1395.5,514.7 1400.7,582.8 1404.2,646.2 1406.1,705.1 1406.5,759.9 1405.5,810.8 1403.0,858.0 1399.3,901.7 1394.3,942.1 1388.1,979.5 1380.7,1014.1 1372.1,1045.9 1362.4,1075.1 1351.5,1102.0 1339.4,1126.5 1326.1,1149.0 1311.6,1169.3 1295.9,1187.7 1278.8,1204.3 1260.4,1219.0 1240.4,1232.0 1219.0,1243.4 1195.9,1253.0 1171.1,1261.0 1144.5,1267.4 1115.9,1272.1 1085.2,1275.1 1052.3,1276.5 1017.0,1276.1 979.2,1273.9 938.6,1269.8 895.2,1263.8 848.6,1255.8 798.8,1245.6 745.4,1233.1 688.3,1218.3 627.2,1200.9 562.0,1180.8 492.3,1157.8  Z" style="stroke-width: 2.0;  stroke: rgb(82,82,82); fill: rgb(253,141,60); opacity: 0.667;" />
<path d="M 492.252,1157.843 A 1064.250,1064.250 0.00 0,1 493.4,1154.5 L 493.4,1154.5 563.5,1177.4 630.2,1197.1 693.6,1213.9 753.9,1227.9 811.3,1239.4 866.1,1248.6 918.4,1255.9 968.4,1261.2 1016.3,1264.8 1062.3,1267.0 1106.6,1267.7 1149.4,1267.1 1190.7,1265.4 1230.9,1262.6 1270.0,1258.8 1308.2,1254.0 1345.7,1248.3 1382.6,1241.7 1419.1,1234.2 1455.2,1225.8 1491.3,1216.4 1527.3,1206.0 1563.4,1194.6 1599.8,1182.0 1636.6,1168.2 1673.9,1152.9 1711.7,1136.2 1750.3,1117.8 1789.8,1097.6 1830.1,1075.4 1871.5,1051.0 1914.0,1024.1 1957.7,994.5 2002.8,962.0 2049.2,926.3 2097.2,887.1 2146.6,844.1 2197.7,797.0 2250.5,745.4  A 1064.250,1064.250 0.00 0,0 2247.9,742.9 L 2247.9,742.9 2195.3,794.6 2144.4,841.9 2095.1,885.1 2047.3,924.5 2001.0,960.3 1956.0,993.0 1912.4,1022.7 1870.0,1049.7 1828.7,1074.3 1788.4,1096.6 1749.0,1117.0 1710.5,1135.5 1672.7,1152.3 1635.5,1167.7 1598.8,1181.7 1562.4,1194.4 1526.3,1205.9 1490.3,1216.4 1454.3,1225.9 1418.2,1234.5 1381.7,1242.1 1344.8,1248.8 1307.4,1254.7 1269.2,1259.6 1230.1,1263.5 1189.9,1266.5 1148.6,1268.3 1105.8,1269.0 1061.5,1268.4 1015.5,1266.5 967.6,1263.0 917.5,1257.8 865.2,1250.8 810.4,1241.7 753.0,1230.4 692.6,1216.6 629.2,1200.1 562.5,1180.6 492.3,1157.8  Z" style="stroke-width: 2.0;  stroke: rgb(82,82,82); fill: rgb(255,0,0); opacity: 0.667;" />
<path d="M 492.252,1157.843 A 1064.250,1064.250 0.00 0,1 493.4,1154.5 L 493.4,1154.5 563.6,1177.4 630.5,1197.1 694.2,1213.8 754.9,1227.8 812.8,1239.3 868.2,1248.7 921.2,1256.0 972.0,1261.5 1020.8,1265.4 1067.8,1267.9 1113.1,1269.1 1156.9,1269.1 1199.4,1268.1 1240.8,1266.1 1281.1,1263.3 1320.7,1259.7 1359.6,1255.3 1398.0,1250.2 1436.0,1244.3 1473.9,1237.7 1511.6,1230.4 1549.5,1222.2 1587.6,1213.2 1626.1,1203.3 1665.0,1192.3 1704.6,1180.2 1745.0,1166.8 1786.2,1152.0 1828.4,1135.6 1871.8,1117.4 1916.4,1097.2 1962.3,1074.8 2009.7,1050.0 2058.7,1022.6 2109.4,992.1 2161.8,958.4 2216.1,921.2 2272.4,880.1 2330.7,834.8  A 1064.250,1064.250 0.00 0,0 2328.4,831.9 L 2328.4,831.9 2270.3,877.4 2214.1,918.7 2160.0,956.2 2107.6,990.0 2057.1,1020.6 2008.2,1048.3 1960.9,1073.3 1915.0,1095.8 1870.5,1116.1 1827.2,1134.4 1785.0,1151.0 1743.8,1166.0 1703.5,1179.5 1664.0,1191.8 1625.0,1202.9 1586.6,1212.9 1548.6,1222.1 1510.7,1230.3 1473.0,1237.8 1435.1,1244.5 1397.1,1250.5 1358.8,1255.8 1319.9,1260.3 1280.3,1264.1 1240.0,1267.0 1198.6,1269.1 1156.1,1270.3 1112.3,1270.4 1067.0,1269.4 1020.0,1267.1 971.2,1263.3 920.4,1257.9 867.4,1250.8 812.0,1241.7 754.0,1230.3 693.2,1216.5 629.4,1200.0 562.5,1180.6 492.3,1157.8  Z" style="stroke-width: 2.0;  stroke: rgb(82,82,82); fill: rgb(255,0,204); opacity: 0.667;" />
<path d="M 492.252,1157.843 A 1064.250,1064.250 0.00 0,1 493.4,1154.5 L 493.4,1154.5 563.7,1177.4 630.8,1197.1 694.9,1213.8 756.1,1227.8 814.7,1239.4 870.8,1248.9 924.7,1256.4 976.4,1262.2 1026.2,1266.6 1074.2,1269.6 1120.7,1271.5 1165.7,1272.3 1209.5,1272.3 1252.2,1271.5 1294.0,1270.1 1335.0,1268.0 1375.4,1265.4 1415.4,1262.3 1455.1,1258.7 1494.6,1254.6 1534.2,1250.0 1574.0,1244.9 1614.1,1239.2 1654.7,1232.8 1695.8,1225.7 1737.8,1217.7 1780.6,1208.8 1824.5,1198.7 1869.6,1187.4 1916.0,1174.6 1963.9,1160.2 2013.3,1143.9 2064.5,1125.5 2117.5,1104.8 2172.5,1081.4 2229.6,1055.2 2288.9,1025.7 2350.5,992.7 2414.6,955.9  A 1064.250,1064.250 0.00 0,0 2412.6,952.5 L 2412.6,952.5 2348.7,989.6 2287.1,1022.8 2227.9,1052.5 2171.0,1078.9 2116.1,1102.5 2063.1,1123.4 2012.0,1142.0 1962.6,1158.5 1914.8,1173.1 1868.5,1186.0 1823.4,1197.5 1779.6,1207.7 1736.8,1216.8 1694.8,1224.9 1653.7,1232.2 1613.1,1238.7 1573.1,1244.6 1533.3,1249.8 1493.8,1254.6 1454.2,1258.8 1414.5,1262.5 1374.6,1265.8 1334.2,1268.6 1293.2,1270.8 1251.4,1272.4 1208.7,1273.3 1164.9,1273.5 1119.9,1272.8 1073.5,1271.0 1025.4,1268.2 975.6,1264.0 923.9,1258.3 870.0,1251.0 813.8,1241.7 755.2,1230.3 693.9,1216.5 629.8,1200.0 562.6,1180.6 492.3,1157.8  Z" style="stroke-width: 2.0;  stroke: rgb(82,82,82); fill: rgb(255,204,204); opacity: 0.667;" />
<path d="M 492.252,1157.843 A 1064.250,1064.250 0.00 0,1 493.4,1154.5 L 493.4,1154.5 563.7,1177.4 630.8,1197.1 695.0,1213.8 756.3,1227.8 815.0,1239.4 871.2,1248.9 925.1,1256.5 977.0,1262.4 1026.9,1266.8 1075.1,1269.9 1121.7,1271.9 1166.9,1272.8 1210.8,1273.0 1253.7,1272.4 1295.6,1271.1 1336.8,1269.3 1377.4,1266.9 1417.6,1264.1 1457.5,1260.8 1497.3,1257.1 1537.1,1252.9 1577.1,1248.2 1617.4,1243.0 1658.2,1237.1 1699.7,1230.5 1741.9,1223.2 1785.1,1214.9 1829.3,1205.5 1874.7,1194.9 1921.5,1182.9 1969.7,1169.3 2019.6,1153.9 2071.2,1136.4 2124.7,1116.6 2180.2,1094.3 2237.8,1069.1 2297.7,1040.8 2360.0,1009.0 2424.8,973.3  A 1064.250,1064.250 0.00 0,0 2423.0,970.2 L 2423.0,970.2 2358.3,1006.0 2296.1,1038.0 2236.3,1066.6 2178.8,1092.0 2123.3,1114.5 2069.9,1134.4 2018.4,1152.1 1968.6,1167.7 1920.4,1181.5 1873.7,1193.6 1828.3,1204.4 1784.1,1213.9 1741.0,1222.3 1698.8,1229.9 1657.3,1236.6 1616.5,1242.5 1576.2,1247.9 1536.3,1252.8 1496.5,1257.1 1456.7,1260.9 1416.8,1264.4 1376.7,1267.3 1336.1,1269.8 1294.9,1271.8 1252.9,1273.2 1210.1,1273.9 1166.1,1274.0 1120.9,1273.1 1074.3,1271.3 1026.1,1268.4 976.2,1264.1 924.3,1258.4 870.3,1251.0 814.1,1241.7 755.4,1230.3 694.0,1216.5 629.8,1200.0 562.6,1180.6 492.3,1157.8  Z" style="stroke-width: 2.0;  stroke: rgb(82,82,82); fill: rgb(255,153,0); opacity: 0.667;" />
<path d="M 492.252,1157.843 A 1064.250,1064.250 0.00 0,1 493.4,1154.5 L 493.4,1154.5 562.9,1177.8 627.7,1198.4 688.1,1216.5 744.2,1232.2 796.4,1245.7 844.8,1257.0 889.7,1266.2 931.2,1273.5 969.5,1278.9 1004.9,1282.5 1037.4,1284.3 1067.3,1284.4 1094.6,1282.8 1119.6,1279.6 1142.2,1274.7 1162.6,1268.2 1181.0,1260.1 1197.4,1250.3 1211.8,1238.8 1224.4,1225.5 1235.1,1210.5 1244.1,1193.7 1251.3,1174.9 1256.7,1154.2 1260.4,1131.3 1262.4,1106.3 1262.5,1078.9 1260.9,1049.1 1257.4,1016.7 1252.1,981.5 1244.7,943.5 1235.3,902.4 1223.8,858.1 1210.1,810.3 1194.0,758.9 1175.4,703.6 1154.2,644.3 1130.3,580.6 1103.4,512.4  A 1064.250,1064.250 0.00 0,0 1099.7,513.9 L 1099.7,513.9 1126.8,582.0 1150.9,645.6 1172.3,704.9 1191.1,760.1 1207.4,811.4 1221.4,859.1 1233.1,903.4 1242.6,944.5 1250.1,982.5 1255.6,1017.6 1259.2,1050.0 1260.9,1079.8 1260.9,1107.1 1259.0,1132.2 1255.4,1155.1 1250.1,1175.8 1242.9,1194.6 1234.0,1211.5 1223.4,1226.5 1210.9,1239.8 1196.5,1251.3 1180.1,1261.2 1161.8,1269.4 1141.4,1275.9 1118.8,1280.9 1093.9,1284.2 1066.5,1285.9 1036.7,1285.9 1004.1,1284.2 968.8,1280.7 930.4,1275.4 888.9,1268.3 844.0,1259.2 795.5,1248.1 743.3,1234.8 687.1,1219.3 626.7,1201.3 561.8,1180.9 492.3,1157.8  Z" style="stroke-width: 2.0;  stroke: rgb(82,82,82); fill: rgb(255,204,0); opacity: 0.667;" />
<path d="M 492.252,1157.843 A 1064.250,1064.250 0.00 0,1 493.4,1154.5 L 493.4,1154.5 562.9,1179.4 627.7,1204.9 688.2,1230.8 744.6,1257.0 797.3,1283.4 846.6,1310.0 892.8,1336.7 936.1,1363.5 976.8,1390.3 1015.2,1417.1 1051.4,1443.9 1085.7,1470.8 1118.3,1497.7 1149.4,1524.6 1179.1,1551.7 1207.7,1578.9 1235.2,1606.3 1261.9,1634.0 1287.8,1662.1 1313.0,1690.6 1337.7,1719.8 1361.9,1749.7 1385.7,1780.4 1409.2,1812.1 1432.4,1844.9 1455.3,1879.1 1478.0,1914.7 1500.4,1952.1 1522.6,1991.3 1544.5,2032.7 1566.1,2076.4 1587.3,2122.7 1608.1,2171.8 1628.4,2224.0 1648.2,2279.6 1667.2,2338.8 1685.4,2402.0 1702.8,2469.4 1719.0,2541.5  A 1064.250,1064.250 0.00 0,0 1723.0,2540.6 L 1723.0,2540.6 1706.5,2468.6 1688.9,2401.3 1670.4,2338.1 1651.1,2279.0 1631.2,2223.5 1610.7,2171.3 1589.7,2122.3 1568.3,2076.1 1546.5,2032.5 1524.5,1991.2 1502.1,1952.0 1479.6,1914.8 1456.8,1879.2 1433.7,1845.1 1410.4,1812.4 1386.8,1780.7 1362.9,1750.1 1338.6,1720.3 1313.8,1691.3 1288.4,1662.8 1262.4,1634.8 1235.7,1607.2 1208.0,1579.9 1179.4,1552.8 1149.5,1525.8 1118.3,1499.0 1085.7,1472.2 1051.2,1445.5 1014.9,1418.7 976.5,1392.1 935.7,1365.4 892.3,1338.8 846.0,1312.2 796.6,1285.8 743.8,1259.5 687.3,1233.5 626.7,1207.9 561.8,1182.6 492.3,1157.8  Z" style="stroke-width: 2.0;  stroke: rgb(82,82,82); fill: rgb(255,255,0); opacity: 0.667;" />
<path d="M 492.252,1157.843 A 1064.250,1064.250 0.00 0,1 493.4,1154.5 L 493.4,1154.5 562.7,1178.1 626.8,1199.7 686.0,1219.4 740.6,1237.2 790.7,1253.3 836.6,1267.7 878.5,1280.5 916.6,1291.8 951.0,1301.6 982.0,1310.0 1009.6,1317.0 1034.0,1322.7 1055.3,1327.2 1073.7,1330.3 1089.1,1332.3 1101.8,1333.0 1111.7,1332.5 1118.9,1330.8 1123.4,1328.0 1125.3,1323.9 1124.6,1318.5 1121.2,1311.9 1115.2,1304.1 1106.5,1294.9 1095.0,1284.3 1080.7,1272.4 1063.5,1259.0 1043.4,1244.1 1020.2,1227.5 993.8,1209.3 964.0,1189.4 930.8,1167.6 894.0,1143.9 853.3,1118.2 808.6,1090.4 759.8,1060.3 706.5,1027.8 648.6,992.8 585.7,955.3  A 1064.250,1064.250 0.00 0,0 583.9,958.4 L 583.9,958.4 646.8,995.8 704.9,1030.5 758.3,1062.8 807.2,1092.7 852.0,1120.4 892.7,1146.0 929.7,1169.6 963.0,1191.2 992.8,1211.1 1019.3,1229.2 1042.5,1245.6 1062.7,1260.5 1079.9,1273.8 1094.2,1285.7 1105.8,1296.2 1114.5,1305.4 1120.6,1313.2 1124.0,1319.8 1124.7,1325.1 1122.8,1329.2 1118.3,1332.1 1111.1,1333.8 1101.2,1334.4 1088.6,1333.7 1073.1,1331.8 1054.7,1328.7 1033.4,1324.3 1009.0,1318.7 981.3,1311.7 950.3,1303.4 915.9,1293.7 877.8,1282.6 835.8,1269.9 789.9,1255.7 739.7,1239.8 685.1,1222.1 625.8,1202.7 561.6,1181.3 492.3,1157.8  Z" style="stroke-width: 2.0;  stroke: rgb(82,82,82); fill: rgb(204,255,0); opacity: 0.667;" />
<path d="M 1168.631,488.653 A 1064.250,1064.250 0.00 0,1 1177.1,485.9 L 1177.1,485.9 1199.9,555.6 1222.1,620.0 1243.8,679.3 1264.9,733.8 1285.6,783.8 1305.9,829.5 1325.8,871.2 1345.3,909.1 1364.5,943.3 1383.4,974.1 1402.1,1001.7 1420.7,1026.1 1439.2,1047.5 1457.6,1066.1 1476.1,1082.0 1494.6,1095.2 1513.3,1105.8 1532.2,1113.8 1551.3,1119.4 1570.9,1122.6 1590.8,1123.3 1611.3,1121.6 1632.3,1117.4 1654.1,1110.7 1676.6,1101.4 1699.9,1089.6 1724.2,1075.0 1749.5,1057.7 1775.9,1037.4 1803.6,1014.1 1832.6,987.6 1863.0,957.8 1895.0,924.5 1928.6,887.4 1963.9,846.5 2001.1,801.4 2040.4,751.9 2081.7,697.8 2125.2,638.8  A 1064.250,1064.250 0.00 0,0 2118.0,633.6 L 2118.0,633.6 2075.0,692.9 2034.1,747.4 1995.3,797.2 1958.4,842.6 1923.4,883.9 1890.1,921.2 1858.5,954.8 1828.3,984.9 1799.5,1011.6 1772.1,1035.1 1745.8,1055.6 1720.6,1073.2 1696.5,1087.9 1673.2,1100.0 1650.8,1109.4 1629.1,1116.3 1608.1,1120.7 1587.7,1122.6 1567.7,1122.0 1548.1,1119.0 1528.9,1113.6 1510.0,1105.7 1491.2,1095.2 1472.6,1082.2 1454.0,1066.5 1435.4,1048.1 1416.8,1026.8 1398.0,1002.5 1379.0,975.1 1359.8,944.5 1340.3,910.4 1320.5,872.7 1300.3,831.2 1279.7,785.6 1258.5,735.8 1236.9,681.5 1214.8,622.3 1192.0,558.2 1168.6,488.7  Z" style="stroke-width: 2.0;  stroke: rgb(82,82,82); fill: rgb(0,255,0); opacity: 0.667;" />
<path d="M 2188.225,688.227 A 1064.250,1064.250 0.00 0,1 2191.3,690.8 L 2191.3,690.8 2143.2,746.2 2097.6,796.9 2054.5,843.1 2013.6,885.1 1974.8,923.1 1938.0,957.3 1903.2,988.0 1870.1,1015.3 1838.6,1039.4 1808.6,1060.5 1780.0,1078.6 1752.8,1094.0 1726.7,1106.7 1701.8,1116.8 1677.8,1124.3 1654.7,1129.5 1632.4,1132.2 1610.9,1132.5 1589.9,1130.5 1569.6,1126.2 1549.6,1119.4 1530.1,1110.2 1510.9,1098.6 1492.0,1084.5 1473.2,1067.7 1454.6,1048.3 1436.0,1026.0 1417.5,1000.8 1398.9,972.6 1380.2,941.1 1361.4,906.2 1342.4,867.7 1323.2,825.4 1303.7,779.1 1283.9,728.5 1263.9,673.4 1243.5,613.6 1222.7,548.7 1201.6,478.4  A 1064.250,1064.250 0.00 0,0 1197.7,479.6 L 1197.7,479.6 1219.1,549.7 1240.2,614.6 1260.8,674.3 1281.0,729.3 1301.0,779.8 1320.6,826.1 1340.0,868.3 1359.1,906.7 1378.1,941.5 1396.9,973.0 1415.6,1001.2 1434.3,1026.3 1452.9,1048.5 1471.6,1067.8 1490.4,1084.5 1509.4,1098.6 1528.7,1110.1 1548.2,1119.2 1568.2,1125.9 1588.6,1130.2 1609.5,1132.1 1631.0,1131.7 1653.3,1128.9 1676.4,1123.7 1700.3,1116.0 1725.3,1105.8 1751.3,1093.1 1778.5,1077.6 1807.0,1059.3 1836.8,1038.2 1868.2,1013.9 1901.3,986.5 1936.0,955.7 1972.6,921.3 2011.3,883.1 2052.0,841.0 2095.0,794.6 2140.3,743.8 2188.2,688.2  Z" style="stroke-width: 2.0;  stroke: rgb(82,82,82); fill: rgb(53,128,0); opacity: 0.667;" />
<path d="M 1521.109,435.959 A 1064.250,1064.250 0.00 0,1 1537.9,436.4 L 1537.9,436.4 1535.6,509.6 1534.0,577.4 1533.3,639.9 1533.2,697.6 1533.8,750.6 1535.1,799.2 1537.0,843.6 1539.6,883.9 1542.7,920.5 1546.5,953.4 1550.8,982.9 1555.7,1009.0 1561.3,1031.9 1567.4,1051.8 1574.2,1068.7 1581.6,1082.7 1589.7,1093.8 1598.5,1102.2 1608.0,1107.9 1618.3,1110.9 1629.4,1111.2 1641.3,1108.8 1654.1,1103.7 1667.8,1095.8 1682.6,1085.2 1698.4,1071.7 1715.4,1055.3 1733.5,1035.8 1752.9,1013.2 1773.7,987.4 1795.9,958.2 1819.6,925.4 1845.0,889.0 1872.0,848.6 1900.9,804.1 1931.6,755.4 1964.4,702.1 1999.4,644.0 2036.6,580.9  A 1064.250,1064.250 0.00 0,0 2020.7,571.8 L 2020.7,571.8 1984.6,635.5 1950.6,694.2 1918.8,748.1 1888.8,797.3 1860.8,842.3 1834.4,883.1 1809.7,920.0 1786.6,953.2 1764.9,982.8 1744.6,1009.0 1725.6,1031.9 1707.8,1051.6 1691.1,1068.3 1675.6,1082.1 1661.0,1093.0 1647.5,1101.1 1634.8,1106.4 1622.9,1109.0 1611.9,1108.9 1601.6,1106.1 1592.0,1100.6 1583.1,1092.4 1574.9,1081.3 1567.3,1067.5 1560.2,1050.7 1553.8,1031.0 1547.9,1008.2 1542.6,982.1 1537.8,952.7 1533.5,919.9 1529.8,883.4 1526.7,843.0 1524.0,798.7 1522.0,750.2 1520.6,697.2 1519.7,639.5 1519.5,577.0 1520.0,509.2 1521.1,436.0  Z" style="stroke-width: 2.0;  stroke: rgb(82,82,82); fill: rgb(0,0,204); opacity: 0.667;" />
<path d="M 2454.910,1969.867 A 1064.250,1064.250 0.00 0,1 2453.7,1972.4 L 2453.7,1972.4 2388.1,1939.9 2327.5,1909.9 2271.6,1882.2 2220.2,1856.8 2173.1,1833.5 2130.1,1812.2 2090.9,1792.8 2055.4,1775.3 2023.5,1759.5 1995.0,1745.4 1969.7,1732.9 1947.5,1722.0 1928.3,1712.6 1912.1,1704.6 1898.6,1698.0 1888.0,1692.8 1880.0,1688.9 1874.7,1686.4 1872.0,1685.2 1872.0,1685.3 1874.6,1686.6 1879.8,1689.3 1887.7,1693.4 1898.3,1698.7 1911.6,1705.5 1927.8,1713.6 1946.9,1723.3 1969.0,1734.4 1994.2,1747.0 2022.6,1761.3 2054.5,1777.3 2089.8,1795.0 2128.9,1814.6 2171.8,1836.1 2218.8,1859.6 2270.0,1885.3 2325.8,1913.2 2386.3,1943.5 2451.7,1976.2  A 1064.250,1064.250 0.00 0,0 2453.0,1973.7 L 2453.0,1973.7 2387.4,1941.1 2326.9,1911.0 2271.1,1883.3 2219.7,1857.7 2172.7,1834.3 2129.7,1812.9 2090.6,1793.5 2055.2,1775.8 2023.3,1759.9 1994.8,1745.7 1969.6,1733.1 1947.5,1722.1 1928.4,1712.5 1912.2,1704.4 1898.8,1697.7 1888.2,1692.3 1880.3,1688.3 1875.1,1685.7 1872.5,1684.3 1872.5,1684.2 1875.2,1685.4 1880.5,1687.9 1888.5,1691.8 1899.2,1697.0 1912.6,1703.5 1928.9,1711.5 1948.1,1720.8 1970.3,1731.7 1995.6,1744.1 2024.2,1758.1 2056.2,1773.8 2091.7,1791.3 2130.9,1810.5 2174.0,1831.7 2221.1,1854.9 2272.6,1880.2 2328.5,1907.7 2389.2,1937.6 2454.9,1969.9  Z" style="stroke-width: 2.0;  stroke: rgb(82,82,82); fill: rgb(102,153,255); opacity: 0.667;" />
<path d="M 840.662,664.595 A 1064.250,1064.250 0.00 0,1 842.9,662.8 L 842.9,662.8 887.7,721.3 928.1,777.0 964.6,830.2 997.4,881.1 1026.7,929.6 1052.8,976.1 1076.0,1020.7 1096.3,1063.4 1114.1,1104.4 1129.4,1144.0 1142.5,1182.1 1153.5,1219.0 1162.4,1254.7 1169.5,1289.5 1174.7,1323.5 1178.3,1356.7 1180.1,1389.3 1180.3,1421.4 1178.9,1453.2 1175.8,1484.8 1171.2,1516.3 1164.9,1547.8 1156.9,1579.5 1147.1,1611.5 1135.5,1643.8 1121.9,1676.6 1106.3,1710.0 1088.6,1744.1 1068.5,1779.1 1045.9,1814.9 1020.6,1851.9 992.5,1889.9 961.3,1929.2 926.9,1969.9 888.8,2012.0 847.0,2055.7 801.0,2101.0 750.7,2148.0 695.7,2196.9  A 1064.250,1064.250 0.00 0,0 697.5,2199.1 L 697.5,2199.1 752.5,2150.0 802.7,2102.9 848.5,2057.4 890.2,2013.7 928.1,1971.5 962.5,1930.7 993.6,1891.3 1021.6,1853.2 1046.7,1816.2 1069.2,1780.2 1089.2,1745.2 1106.9,1711.0 1122.4,1677.6 1135.9,1644.7 1147.4,1612.4 1157.1,1580.4 1165.0,1548.8 1171.2,1517.2 1175.8,1485.7 1178.8,1454.1 1180.1,1422.3 1179.8,1390.1 1177.9,1357.5 1174.3,1324.3 1168.9,1290.4 1161.8,1255.6 1152.7,1219.9 1141.7,1183.1 1128.5,1145.0 1113.0,1105.5 1095.1,1064.5 1074.7,1021.8 1051.4,977.3 1025.2,930.9 995.7,882.4 962.8,831.7 926.2,778.6 885.6,722.9 840.7,664.6  Z" style="stroke-width: 2.0;  stroke: rgb(82,82,82); fill: rgb(153,204,255); opacity: 0.667;" />
</g>
<defs>
<pattern id="hline-sparse" width="10" height="10" patternTransform="rotate(0 0 0)" patternUnits="userSpaceOnUse"><line x1="0" y1="0" x2="10" y2="0" style="stroke:black;stroke-width:2" /></pattern>
<pattern id="checker" width="10" height="10" patternTransform="rotate(45 0 0)" patternUnits="userSpaceOnUse"><line x1="0" y1="0" x2="10" y2="0" style="stroke:black;stroke-width:2" /><line x1="0" y1="0" x2="0" y2="10" style="stroke:black;stroke-width:2" /></pattern>
<pattern id="checker" width="10" height="10" patternTransform="rotate(45 0 0)" patternUnits="userSpaceOnUse"><line x1="0" y1="0" x2="10" y2="0" style="stroke:black;stroke-width:5" /><line x1="0" y1="0" x2="0" y2="10" style="stroke:black;stroke-width:4" /></pattern>
<pattern id="hline" width="10" height="10" patternTransform="rotate(0 0 0)" patternUnits="userSpaceOnUse"><line x1="0" y1="0" x2="10" y2="0" style="stroke:black;stroke-width:5" /></pattern>
<pattern id="vline-sparse" width="10" height="10" patternTransform="rotate(0 0 0)" patternUnits="userSpaceOnUse"><line x1="0" y1="0" x2="0" y2="10" style="stroke:black;stroke-width:2" /></pattern>
<pattern id="vline" width="10" height="10" patternTransform="rotate(0 0 0)" patternUnits="userSpaceOnUse"><line x1="0" y1="0" x2="0" y2="10" style="stroke:black;stroke-width:5" /></pattern>
</defs>
</svg>
