<?xml version="1.0" encoding="utf-8" standalone="no"?>
<!DOCTYPE svg PUBLIC "-//W3C//DTD SVG 1.1//EN" "http://www.w3.org/Graphics/SVG/1.1/DTD/svg11.dtd">
<svg width="3000px" height="3000px" version="1.1" xmlns="http://www.w3.org/2000/svg" xmlns:xlink="http://www.w3.org/1999/xlink">
<g id="ideograms">
<path d="M1500.000,425.000 A1075.000,1075.000 40.000 0,1 2297.751,779.432 L2334.856,745.917 A1125.000,1125.000 0.000 0,0 1500.000,375.000 Z" style="stroke-linecap:round;fill:rgb(116,196,118);fill-opacity:0.33;" />
<text x="2002.0" y="393.5" font-size="18.2px" font-family="CMUBright-Roman" style="text-anchor:start;fill:rgb(0,0,0);" transform="rotate(294.0,2002.0,393.5)" >R<tspan baseline-shift="-40%" font-size="90%">s</tspan>caffold<tspan baseline-shift="-40%" font-size="90%">0</tspan></text>
<line x1='1500.0' y1='375.0' x2='1500.0' y2='355.0' style="stroke-width:4.0;stroke:rgb(0,0,0);stroke-linecap:round;fill:none;" />
<text x="1506.5" y="345.0" font-size="18.2px" font-family="CMUBright-Roman" style="text-anchor:start;fill:rgb(0,0,0);" transform="rotate(270.0,1506.5,345.0)" >0</text>
<line x1='1567.8' y1='377.0' x2='1569.1' y2='357.1' style="stroke-width:4.0;stroke:rgb(0,0,0);stroke-linecap:round;fill:none;" />
<text x="1576.1" y="347.5" font-size="18.2px" font-family="CMUBright-Roman" style="text-anchor:start;fill:rgb(0,0,0);" transform="rotate(273.5,1576.1,347.5)" >50</text>
<line x1='1635.4' y1='383.2' x2='1637.9' y2='363.3' style="stroke-width:4.0;stroke:rgb(0,0,0);stroke-linecap:round;fill:none;" />
<text x="1645.5" y="354.2" font-size="18.2px" font-family="CMUBright-Roman" style="text-anchor:start;fill:rgb(0,0,0);" transform="rotate(276.9,1645.5,354.2)" >100</text>
<line x1='1702.6' y1='393.4' x2='1706.2' y2='373.7' style="stroke-width:4.0;stroke:rgb(0,0,0);stroke-linecap:round;fill:none;" />
<text x="1714.3" y="365.1" font-size="18.2px" font-family="CMUBright-Roman" style="text-anchor:start;fill:rgb(0,0,0);" transform="rotate(280.4,1714.3,365.1)" >150</text>
<line x1='1768.9' y1='407.6' x2='1773.7' y2='388.2' style="stroke-width:4.0;stroke:rgb(0,0,0);stroke-linecap:round;fill:none;" />
<text x="1782.4" y="380.1" font-size="18.2px" font-family="CMUBright-Roman" style="text-anchor:start;fill:rgb(0,0,0);" transform="rotate(283.8,1782.4,380.1)" >200</text>
<line x1='1834.3' y1='425.8' x2='1840.3' y2='406.7' style="stroke-width:4.0;stroke:rgb(0,0,0);stroke-linecap:round;fill:none;" />
<text x="1849.4" y="399.1" font-size="18.2px" font-family="CMUBright-Roman" style="text-anchor:start;fill:rgb(0,0,0);" transform="rotate(287.3,1849.4,399.1)" >250</text>
<line x1='1898.5' y1='447.9' x2='1905.6' y2='429.2' style="stroke-width:4.0;stroke:rgb(0,0,0);stroke-linecap:round;fill:none;" />
<text x="1915.2" y="422.2" font-size="18.2px" font-family="CMUBright-Roman" style="text-anchor:start;fill:rgb(0,0,0);" transform="rotate(290.7,1915.2,422.2)" >300</text>
<line x1='1961.2' y1='473.9' x2='1969.4' y2='455.6' style="stroke-width:4.0;stroke:rgb(0,0,0);stroke-linecap:round;fill:none;" />
<text x="1979.4" y="449.2" font-size="18.2px" font-family="CMUBright-Roman" style="text-anchor:start;fill:rgb(0,0,0);" transform="rotate(294.2,1979.4,449.2)" >350</text>
<line x1='2022.3' y1='503.6' x2='2031.5' y2='485.9' style="stroke-width:4.0;stroke:rgb(0,0,0);stroke-linecap:round;fill:none;" />
<text x="2041.9" y="480.0" font-size="18.2px" font-family="CMUBright-Roman" style="text-anchor:start;fill:rgb(0,0,0);" transform="rotate(297.7,2041.9,480.0)" >400</text>
<line x1='2081.4' y1='536.9' x2='2091.7' y2='519.8' style="stroke-width:4.0;stroke:rgb(0,0,0);stroke-linecap:round;fill:none;" />
<text x="2102.5" y="514.6" font-size="18.2px" font-family="CMUBright-Roman" style="text-anchor:start;fill:rgb(0,0,0);" transform="rotate(301.1,2102.5,514.6)" >450</text>
<line x1='2138.4' y1='573.7' x2='2149.8' y2='557.2' style="stroke-width:4.0;stroke:rgb(0,0,0);stroke-linecap:round;fill:none;" />
<text x="2160.8" y="552.7" font-size="18.2px" font-family="CMUBright-Roman" style="text-anchor:start;fill:rgb(0,0,0);" transform="rotate(304.6,2160.8,552.7)" >500</text>
<line x1='2193.1' y1='613.9' x2='2205.5' y2='598.1' style="stroke-width:4.0;stroke:rgb(0,0,0);stroke-linecap:round;fill:none;" />
<text x="2216.7" y="594.3" font-size="18.2px" font-family="CMUBright-Roman" style="text-anchor:start;fill:rgb(0,0,0);" transform="rotate(308.0,2216.7,594.3)" >550</text>
<line x1='2245.3' y1='657.3' x2='2258.6' y2='642.3' style="stroke-width:4.0;stroke:rgb(0,0,0);stroke-linecap:round;fill:none;" />
<text x="2270.0" y="639.2" font-size="18.2px" font-family="CMUBright-Roman" style="text-anchor:start;fill:rgb(0,0,0);" transform="rotate(311.5,2270.0,639.2)" >600</text>
<line x1='2294.8' y1='703.8' x2='2308.9' y2='689.6' style="stroke-width:4.0;stroke:rgb(0,0,0);stroke-linecap:round;fill:none;" />
<text x="2320.6" y="687.2" font-size="18.2px" font-family="CMUBright-Roman" style="text-anchor:start;fill:rgb(0,0,0);" transform="rotate(314.9,2320.6,687.2)" >650</text>
<g id="highlighttrack_0">
<path d="M1879.006,494.028 A1075.000,1075.000 40.000 0,1 1902.781,503.309 L1921.515,456.952 A1125.000,1125.000 0.000 0,0 1896.634,447.239 Z" style="stroke-width:4.0;stroke:rgb(0,0,0);stroke-linecap:round;fill:rgb(116,196,118);" />
<path d="M2276.442,756.520 A1075.000,1075.000 40.000 0,1 2279.822,760.066 L2316.093,725.651 A1125.000,1125.000 0.000 0,0 2312.556,721.940 Z" style="stroke-width:4.0;stroke:rgb(0,0,0);stroke-linecap:round;fill:rgb(116,196,118);" />
</g>
<path d="M2334.369,822.170 A1075.000,1075.000 40.000 0,1 2572.192,1422.353 L2622.062,1418.742 A1125.000,1125.000 0.000 0,0 2373.177,790.643 Z" style="stroke-linecap:round;fill:rgb(116,196,118);fill-opacity:0.33;" />
<text x="2633.0" y="1061.3" font-size="18.2px" font-family="CMUBright-Roman" style="text-anchor:start;fill:rgb(0,0,0);" transform="rotate(338.4,2633.0,1061.3)" >R<tspan baseline-shift="-40%" font-size="90%">s</tspan>caffold<tspan baseline-shift="-40%" font-size="90%">1</tspan></text>
<line x1='2373.2' y1='790.6' x2='2388.7' y2='778.0' style="stroke-width:4.0;stroke:rgb(0,0,0);stroke-linecap:round;fill:none;" />
<text x="2400.5" y="776.8" font-size="18.2px" font-family="CMUBright-Roman" style="text-anchor:start;fill:rgb(0,0,0);" transform="rotate(320.9,2400.5,776.8)" >0</text>
<line x1='2414.4' y1='844.6' x2='2430.6' y2='832.9' style="stroke-width:4.0;stroke:rgb(0,0,0);stroke-linecap:round;fill:none;" />
<text x="2442.5" y="832.4" font-size="18.2px" font-family="CMUBright-Roman" style="text-anchor:start;fill:rgb(0,0,0);" transform="rotate(324.4,2442.5,832.4)" >50</text>
<line x1='2452.2' y1='900.9' x2='2469.2' y2='890.3' style="stroke-width:4.0;stroke:rgb(0,0,0);stroke-linecap:round;fill:none;" />
<text x="2481.1" y="890.5" font-size="18.2px" font-family="CMUBright-Roman" style="text-anchor:start;fill:rgb(0,0,0);" transform="rotate(327.8,2481.1,890.5)" >100</text>
<line x1='2486.6' y1='959.5' x2='2504.2' y2='949.8' style="stroke-width:4.0;stroke:rgb(0,0,0);stroke-linecap:round;fill:none;" />
<text x="2516.0" y="950.7" font-size="18.2px" font-family="CMUBright-Roman" style="text-anchor:start;fill:rgb(0,0,0);" transform="rotate(331.3,2516.0,950.7)" >150</text>
<line x1='2517.4' y1='1019.9' x2='2535.5' y2='1011.4' style="stroke-width:4.0;stroke:rgb(0,0,0);stroke-linecap:round;fill:none;" />
<text x="2547.3" y="1013.0" font-size="18.2px" font-family="CMUBright-Roman" style="text-anchor:start;fill:rgb(0,0,0);" transform="rotate(334.7,2547.3,1013.0)" >200</text>
<line x1='2544.5' y1='1082.2' x2='2563.1' y2='1074.7' style="stroke-width:4.0;stroke:rgb(0,0,0);stroke-linecap:round;fill:none;" />
<text x="2574.8" y="1077.1" font-size="18.2px" font-family="CMUBright-Roman" style="text-anchor:start;fill:rgb(0,0,0);" transform="rotate(338.2,2574.8,1077.1)" >250</text>
<line x1='2567.8' y1='1145.9' x2='2586.8' y2='1139.6' style="stroke-width:4.0;stroke:rgb(0,0,0);stroke-linecap:round;fill:none;" />
<text x="2598.3" y="1142.7" font-size="18.2px" font-family="CMUBright-Roman" style="text-anchor:start;fill:rgb(0,0,0);" transform="rotate(341.7,2598.3,1142.7)" >300</text>
<line x1='2587.2' y1='1211.0' x2='2606.6' y2='1205.8' style="stroke-width:4.0;stroke:rgb(0,0,0);stroke-linecap:round;fill:none;" />
<text x="2617.9" y="1209.5" font-size="18.2px" font-family="CMUBright-Roman" style="text-anchor:start;fill:rgb(0,0,0);" transform="rotate(345.1,2617.9,1209.5)" >350</text>
<line x1='2602.7' y1='1277.1' x2='2622.3' y2='1273.1' style="stroke-width:4.0;stroke:rgb(0,0,0);stroke-linecap:round;fill:none;" />
<text x="2633.4" y="1277.5" font-size="18.2px" font-family="CMUBright-Roman" style="text-anchor:start;fill:rgb(0,0,0);" transform="rotate(348.6,2633.4,1277.5)" >400</text>
<line x1='2614.1' y1='1344.0' x2='2633.9' y2='1341.2' style="stroke-width:4.0;stroke:rgb(0,0,0);stroke-linecap:round;fill:none;" />
<text x="2644.7" y="1346.3" font-size="18.2px" font-family="CMUBright-Roman" style="text-anchor:start;fill:rgb(0,0,0);" transform="rotate(352.0,2644.7,1346.3)" >450</text>
<line x1='2621.5' y1='1411.5' x2='2641.4' y2='1409.9' style="stroke-width:4.0;stroke:rgb(0,0,0);stroke-linecap:round;fill:none;" />
<text x="2651.9" y="1415.6" font-size="18.2px" font-family="CMUBright-Roman" style="text-anchor:start;fill:rgb(0,0,0);" transform="rotate(355.5,2651.9,1415.6)" >500</text>
<g id="highlighttrack_0">
<path d="M2348.159,839.507 A1075.000,1075.000 40.000 0,1 2350.310,842.278 L2389.859,811.687 A1125.000,1125.000 0.000 0,0 2387.608,808.786 Z" style="stroke-width:4.0;stroke:rgb(0,0,0);stroke-linecap:round;fill:rgb(116,196,118);" />
<path d="M2456.567,1009.486 A1075.000,1075.000 40.000 0,1 2457.941,1012.175 L2502.497,989.485 A1125.000,1125.000 0.000 0,0 2501.059,986.672 Z" style="stroke-width:4.0;stroke:rgb(0,0,0);stroke-linecap:round;fill:rgb(116,196,118);" />
</g>
<path d="M2574.786,1478.574 A1075.000,1075.000 40.000 0,1 2465.510,1972.669 L2510.417,1994.653 A1125.000,1125.000 0.000 0,0 2624.777,1477.577 Z" style="stroke-linecap:round;fill:rgb(116,196,118);fill-opacity:0.33;" />
<text x="2684.2" y="1771.6" font-size="18.2px" font-family="CMUBright-Roman" style="text-anchor:start;fill:rgb(0,0,0);" transform="rotate(12.5,2684.2,1771.6)" >R<tspan baseline-shift="-40%" font-size="90%">s</tspan>caffold<tspan baseline-shift="-40%" font-size="90%">4</tspan></text>
<line x1='2624.8' y1='1477.6' x2='2644.8' y2='1477.2' style="stroke-width:4.0;stroke:rgb(0,0,0);stroke-linecap:round;fill:none;" />
<text x="2654.9" y="1483.5" font-size="18.2px" font-family="CMUBright-Roman" style="text-anchor:start;fill:rgb(0,0,0);" transform="rotate(358.9,2654.9,1483.5)" >0</text>
<line x1='2624.1' y1='1545.5' x2='2644.1' y2='1546.3' style="stroke-width:4.0;stroke:rgb(0,0,0);stroke-linecap:round;fill:none;" />
<text x="2653.8" y="1553.2" font-size="18.2px" font-family="CMUBright-Roman" style="text-anchor:start;fill:rgb(0,0,0);" transform="rotate(2.3,2653.8,1553.2)" >50</text>
<line x1='2619.3' y1='1613.2' x2='2639.2' y2='1615.2' style="stroke-width:4.0;stroke:rgb(0,0,0);stroke-linecap:round;fill:none;" />
<text x="2648.5" y="1622.6" font-size="18.2px" font-family="CMUBright-Roman" style="text-anchor:start;fill:rgb(0,0,0);" transform="rotate(5.8,2648.5,1622.6)" >100</text>
<line x1='2610.4' y1='1680.5' x2='2630.2' y2='1683.7' style="stroke-width:4.0;stroke:rgb(0,0,0);stroke-linecap:round;fill:none;" />
<text x="2639.0" y="1691.7" font-size="18.2px" font-family="CMUBright-Roman" style="text-anchor:start;fill:rgb(0,0,0);" transform="rotate(9.2,2639.0,1691.7)" >150</text>
<line x1='2597.5' y1='1747.1' x2='2617.0' y2='1751.5' style="stroke-width:4.0;stroke:rgb(0,0,0);stroke-linecap:round;fill:none;" />
<text x="2625.3" y="1760.0" font-size="18.2px" font-family="CMUBright-Roman" style="text-anchor:start;fill:rgb(0,0,0);" transform="rotate(12.7,2625.3,1760.0)" >200</text>
<line x1='2580.6' y1='1812.8' x2='2599.8' y2='1818.4' style="stroke-width:4.0;stroke:rgb(0,0,0);stroke-linecap:round;fill:none;" />
<text x="2607.6" y="1827.4" font-size="18.2px" font-family="CMUBright-Roman" style="text-anchor:start;fill:rgb(0,0,0);" transform="rotate(16.1,2607.6,1827.4)" >250</text>
<line x1='2559.8' y1='1877.4' x2='2578.6' y2='1884.2' style="stroke-width:4.0;stroke:rgb(0,0,0);stroke-linecap:round;fill:none;" />
<text x="2585.9" y="1893.6" font-size="18.2px" font-family="CMUBright-Roman" style="text-anchor:start;fill:rgb(0,0,0);" transform="rotate(19.6,2585.9,1893.6)" >300</text>
<line x1='2535.1' y1='1940.7' x2='2553.5' y2='1948.5' style="stroke-width:4.0;stroke:rgb(0,0,0);stroke-linecap:round;fill:none;" />
<text x="2560.1" y="1958.4" font-size="18.2px" font-family="CMUBright-Roman" style="text-anchor:start;fill:rgb(0,0,0);" transform="rotate(23.1,2560.1,1958.4)" >350</text>
<g id="highlighttrack_0">
<path d="M2572.802,1568.715 A1075.000,1075.000 40.000 0,1 2524.930,1824.258 L2572.601,1839.339 A1125.000,1125.000 0.000 0,0 2622.699,1571.911 Z" style="stroke-width:4.0;stroke:rgb(0,0,0);stroke-linecap:round;fill:rgb(116,196,118);" />
</g>
<path d="M2439.449,2022.552 A1075.000,1075.000 40.000 0,1 2132.892,2368.949 L2162.329,2409.365 A1125.000,1125.000 0.000 0,0 2483.144,2046.857 Z" style="stroke-linecap:round;fill:rgb(116,196,118);fill-opacity:0.33;" />
<text x="2403.5" y="2312.3" font-size="18.2px" font-family="CMUBright-Roman" style="text-anchor:start;fill:rgb(0,0,0);" transform="rotate(41.5,2403.5,2312.3)" >R<tspan baseline-shift="-40%" font-size="90%">s</tspan>caffold<tspan baseline-shift="-40%" font-size="90%">6</tspan></text>
<line x1='2483.1' y1='2046.9' x2='2500.6' y2='2056.6' style="stroke-width:4.0;stroke:rgb(0,0,0);stroke-linecap:round;fill:none;" />
<text x="2506.2" y="2067.1" font-size="18.2px" font-family="CMUBright-Roman" style="text-anchor:start;fill:rgb(0,0,0);" transform="rotate(29.1,2506.2,2067.1)" >0</text>
<line x1='2448.4' y1='2105.2' x2='2465.2' y2='2115.9' style="stroke-width:4.0;stroke:rgb(0,0,0);stroke-linecap:round;fill:none;" />
<text x="2470.2" y="2126.8" font-size="18.2px" font-family="CMUBright-Roman" style="text-anchor:start;fill:rgb(0,0,0);" transform="rotate(32.5,2470.2,2126.8)" >50</text>
<line x1='2410.2' y1='2161.2' x2='2426.3' y2='2173.0' style="stroke-width:4.0;stroke:rgb(0,0,0);stroke-linecap:round;fill:none;" />
<text x="2430.6" y="2184.1" font-size="18.2px" font-family="CMUBright-Roman" style="text-anchor:start;fill:rgb(0,0,0);" transform="rotate(36.0,2430.6,2184.1)" >100</text>
<line x1='2368.6' y1='2214.9' x2='2384.1' y2='2227.6' style="stroke-width:4.0;stroke:rgb(0,0,0);stroke-linecap:round;fill:none;" />
<text x="2387.6" y="2239.0" font-size="18.2px" font-family="CMUBright-Roman" style="text-anchor:start;fill:rgb(0,0,0);" transform="rotate(39.5,2387.6,2239.0)" >150</text>
<line x1='2323.9' y1='2266.0' x2='2338.6' y2='2279.6' style="stroke-width:4.0;stroke:rgb(0,0,0);stroke-linecap:round;fill:none;" />
<text x="2341.4" y="2291.2" font-size="18.2px" font-family="CMUBright-Roman" style="text-anchor:start;fill:rgb(0,0,0);" transform="rotate(42.9,2341.4,2291.2)" >200</text>
<line x1='2276.2' y1='2314.3' x2='2290.0' y2='2328.8' style="stroke-width:4.0;stroke:rgb(0,0,0);stroke-linecap:round;fill:none;" />
<text x="2292.2" y="2340.5" font-size="18.2px" font-family="CMUBright-Roman" style="text-anchor:start;fill:rgb(0,0,0);" transform="rotate(46.4,2292.2,2340.5)" >250</text>
<line x1='2225.7' y1='2359.6' x2='2238.6' y2='2374.9' style="stroke-width:4.0;stroke:rgb(0,0,0);stroke-linecap:round;fill:none;" />
<text x="2240.1" y="2386.7" font-size="18.2px" font-family="CMUBright-Roman" style="text-anchor:start;fill:rgb(0,0,0);" transform="rotate(49.8,2240.1,2386.7)" >300</text>
<line x1='2172.5' y1='2401.8' x2='2184.5' y2='2417.9' style="stroke-width:4.0;stroke:rgb(0,0,0);stroke-linecap:round;fill:none;" />
<text x="2185.2" y="2429.8" font-size="18.2px" font-family="CMUBright-Roman" style="text-anchor:start;fill:rgb(0,0,0);" transform="rotate(53.3,2185.2,2429.8)" >350</text>
<g id="highlighttrack_0">
<path d="M2373.043,2127.232 A1075.000,1075.000 40.000 0,1 2135.809,2366.817 L2165.382,2407.134 A1125.000,1125.000 0.000 0,0 2413.650,2156.406 Z" style="stroke-width:4.0;stroke:rgb(0,0,0);stroke-linecap:round;fill:rgb(116,196,118);" />
</g>
<path d="M2086.547,2400.881 A1075.000,1075.000 40.000 0,1 1810.267,2529.252 L1824.698,2577.124 A1125.000,1125.000 0.000 0,0 2113.829,2442.783 Z" style="stroke-linecap:round;fill:rgb(116,196,118);fill-opacity:0.33;" />
<text x="2003.3" y="2605.8" font-size="18.2px" font-family="CMUBright-Roman" style="text-anchor:start;fill:rgb(0,0,0);" transform="rotate(65.1,2003.3,2605.8)" >R<tspan baseline-shift="-40%" font-size="90%">s</tspan>caffold<tspan baseline-shift="-40%" font-size="90%">8</tspan></text>
<line x1='2113.8' y1='2442.8' x2='2124.7' y2='2459.5' style="stroke-width:4.0;stroke:rgb(0,0,0);stroke-linecap:round;fill:none;" />
<text x="2124.7" y="2471.5" font-size="18.2px" font-family="CMUBright-Roman" style="text-anchor:start;fill:rgb(0,0,0);" transform="rotate(56.9,2124.7,2471.5)" >0</text>
<line x1='2055.9' y1='2478.1' x2='2065.7' y2='2495.5' style="stroke-width:4.0;stroke:rgb(0,0,0);stroke-linecap:round;fill:none;" />
<text x="2065.0" y="2507.4" font-size="18.2px" font-family="CMUBright-Roman" style="text-anchor:start;fill:rgb(0,0,0);" transform="rotate(60.4,2065.0,2507.4)" >50</text>
<line x1='1995.9' y1='2509.8' x2='2004.7' y2='2527.8' style="stroke-width:4.0;stroke:rgb(0,0,0);stroke-linecap:round;fill:none;" />
<text x="2003.2" y="2539.6" font-size="18.2px" font-family="CMUBright-Roman" style="text-anchor:start;fill:rgb(0,0,0);" transform="rotate(63.8,2003.2,2539.6)" >100</text>
<line x1='1934.0' y1='2537.9' x2='1941.8' y2='2556.3' style="stroke-width:4.0;stroke:rgb(0,0,0);stroke-linecap:round;fill:none;" />
<text x="1939.6" y="2568.1" font-size="18.2px" font-family="CMUBright-Roman" style="text-anchor:start;fill:rgb(0,0,0);" transform="rotate(67.3,1939.6,2568.1)" >150</text>
<line x1='1870.7' y1='2562.2' x2='1877.3' y2='2581.1' style="stroke-width:4.0;stroke:rgb(0,0,0);stroke-linecap:round;fill:none;" />
<text x="1874.4" y="2592.6" font-size="18.2px" font-family="CMUBright-Roman" style="text-anchor:start;fill:rgb(0,0,0);" transform="rotate(70.8,1874.4,2592.6)" >200</text>
<g id="highlighttrack_0">
<path d="M2067.794,2412.817 A1075.000,1075.000 40.000 0,1 2064.893,2414.615 L2091.167,2457.155 A1125.000,1125.000 0.000 0,0 2094.203,2455.274 Z" style="stroke-width:4.0;stroke:rgb(0,0,0);stroke-linecap:round;fill:rgb(251,106,74);" />
<path d="M2064.874,2414.627 A1075.000,1075.000 40.000 0,1 2052.732,2422.016 L2078.440,2464.900 A1125.000,1125.000 0.000 0,0 2091.147,2457.168 Z" style="stroke-width:4.0;stroke:rgb(0,0,0);stroke-linecap:round;fill:rgb(116,196,118);" />
<path d="M1936.934,2482.199 A1075.000,1075.000 40.000 0,1 1934.287,2483.372 L1954.487,2529.110 A1125.000,1125.000 0.000 0,0 1957.256,2527.882 Z" style="stroke-width:4.0;stroke:rgb(0,0,0);stroke-linecap:round;fill:rgb(116,196,118);" />
</g>
<path d="M1755.975,2544.079 A1075.000,1075.000 40.000 0,1 1518.187,2574.846 L1519.033,2624.839 A1125.000,1125.000 0.000 0,0 1767.880,2592.641 Z" style="stroke-linecap:round;fill:rgb(116,196,118);fill-opacity:0.33;" />
<text x="1646.5" y="2706.1" font-size="18.2px" font-family="CMUBright-Roman" style="text-anchor:start;fill:rgb(0,0,0);" transform="rotate(82.6,1646.5,2706.1)" >R<tspan baseline-shift="-40%" font-size="90%">s</tspan>caffold<tspan baseline-shift="-40%" font-size="90%">1</tspan>0</text>
<line x1='1767.9' y1='2592.6' x2='1772.6' y2='2612.1' style="stroke-width:4.0;stroke:rgb(0,0,0);stroke-linecap:round;fill:none;" />
<text x="1768.7" y="2623.3" font-size="18.2px" font-family="CMUBright-Roman" style="text-anchor:start;fill:rgb(0,0,0);" transform="rotate(76.2,1768.7,2623.3)" >0</text>
<line x1='1701.5' y1='2606.8' x2='1705.1' y2='2626.5' style="stroke-width:4.0;stroke:rgb(0,0,0);stroke-linecap:round;fill:none;" />
<text x="1700.5" y="2637.5" font-size="18.2px" font-family="CMUBright-Roman" style="text-anchor:start;fill:rgb(0,0,0);" transform="rotate(79.7,1700.5,2637.5)" >50</text>
<line x1='1634.4' y1='2616.9' x2='1636.8' y2='2636.8' style="stroke-width:4.0;stroke:rgb(0,0,0);stroke-linecap:round;fill:none;" />
<text x="1631.5" y="2647.5" font-size="18.2px" font-family="CMUBright-Roman" style="text-anchor:start;fill:rgb(0,0,0);" transform="rotate(83.1,1631.5,2647.5)" >100</text>
<line x1='1566.8' y1='2623.0' x2='1568.0' y2='2643.0' style="stroke-width:4.0;stroke:rgb(0,0,0);stroke-linecap:round;fill:none;" />
<text x="1562.1" y="2653.3" font-size="18.2px" font-family="CMUBright-Roman" style="text-anchor:start;fill:rgb(0,0,0);" transform="rotate(86.6,1562.1,2653.3)" >150</text>
<g id="highlighttrack_0">
<path d="M1541.754,2574.189 A1075.000,1075.000 40.000 0,1 1538.352,2574.316 L1540.136,2624.284 A1125.000,1125.000 0.000 0,0 1543.696,2624.151 Z" style="stroke-width:4.0;stroke:rgb(0,0,0);stroke-linecap:round;fill:rgb(116,196,118);" />
<path d="M1557.626,2573.454 A1075.000,1075.000 40.000 0,1 1541.777,2574.188 L1543.720,2624.150 A1125.000,1125.000 0.000 0,0 1560.307,2623.382 Z" style="stroke-width:4.0;stroke:rgb(0,0,0);stroke-linecap:round;fill:rgb(251,106,74);" />
</g>
<path d="M1461.909,2574.325 A1075.000,1075.000 40.000 0,1 1340.858,2563.155 L1333.456,2612.604 A1125.000,1125.000 0.000 0,0 1460.137,2624.294 Z" style="stroke-linecap:round;fill:rgb(116,196,118);fill-opacity:0.33;" />
<text x="1397.8" y="2710.7" font-size="18.2px" font-family="CMUBright-Roman" style="text-anchor:end;fill:rgb(0,0,0);" transform="rotate(-84.7,1397.8,2710.7)" >R<tspan baseline-shift="-40%" font-size="90%">s</tspan>caffold<tspan baseline-shift="-40%" font-size="90%">1</tspan>7</text>
<line x1='1460.1' y1='2624.3' x2='1459.4' y2='2644.3' style="stroke-width:4.0;stroke:rgb(0,0,0);stroke-linecap:round;fill:none;" />
<text x="1465.6" y="2654.5" font-size="18.2px" font-family="CMUBright-Roman" style="text-anchor:end;fill:rgb(0,0,0);" transform="rotate(-88.0,1465.6,2654.5)" >0</text>
<line x1='1392.4' y1='2619.8' x2='1390.5' y2='2639.8' style="stroke-width:4.0;stroke:rgb(0,0,0);stroke-linecap:round;fill:none;" />
<text x="1396.0" y="2650.3" font-size="18.2px" font-family="CMUBright-Roman" style="text-anchor:end;fill:rgb(0,0,0);" transform="rotate(-84.5,1396.0,2650.3)" >50</text>
<g id="highlighttrack_0">
<path d="M1364.868,2566.473 A1075.000,1075.000 40.000 0,1 1355.376,2565.227 L1348.650,2614.773 A1125.000,1125.000 0.000 0,0 1358.582,2616.076 Z" style="stroke-width:4.0;stroke:rgb(0,0,0);stroke-linecap:round;fill:rgb(116,196,118);" />
</g>
<path d="M1285.434,2553.369 A1075.000,1075.000 40.000 0,1 1247.157,2544.842 L1235.397,2593.440 A1125.000,1125.000 0.000 0,0 1275.455,2602.363 Z" style="stroke-linecap:round;fill:rgb(116,196,118);fill-opacity:0.33;" />
<text x="1245.1" y="2688.0" font-size="18.2px" font-family="CMUBright-Roman" style="text-anchor:end;fill:rgb(0,0,0);" transform="rotate(-77.4,1245.1,2688.0)" >R<tspan baseline-shift="-40%" font-size="90%">s</tspan>caffold<tspan baseline-shift="-40%" font-size="90%">1</tspan>9</text>
<line x1='1275.5' y1='2602.4' x2='1271.5' y2='2622.0' style="stroke-width:4.0;stroke:rgb(0,0,0);stroke-linecap:round;fill:none;" />
<text x="1275.8" y="2633.0" font-size="18.2px" font-family="CMUBright-Roman" style="text-anchor:end;fill:rgb(0,0,0);" transform="rotate(-78.5,1275.8,2633.0)" >0</text>
<g id="highlighttrack_0">
<path d="M1278.827,2552.002 A1075.000,1075.000 40.000 0,1 1260.624,2548.010 L1249.491,2596.754 A1125.000,1125.000 0.000 0,0 1268.539,2600.932 Z" style="stroke-width:4.0;stroke:rgb(0,0,0);stroke-linecap:round;fill:rgb(251,106,74);" />
</g>
<path d="M1192.821,2530.178 A1075.000,1075.000 40.000 0,1 1172.594,2523.929 L1157.366,2571.554 A1125.000,1125.000 0.000 0,0 1178.534,2578.093 Z" style="stroke-linecap:round;fill:rgb(116,196,118);fill-opacity:0.33;" />
<text x="1150.5" y="2663.6" font-size="18.2px" font-family="CMUBright-Roman" style="text-anchor:end;fill:rgb(0,0,0);" transform="rotate(-72.8,1150.5,2663.6)" >R<tspan baseline-shift="-40%" font-size="90%">s</tspan>caffold<tspan baseline-shift="-40%" font-size="90%">2</tspan>1</text>
<line x1='1178.5' y1='2578.1' x2='1172.8' y2='2597.3' style="stroke-width:4.0;stroke:rgb(0,0,0);stroke-linecap:round;fill:none;" />
<text x="1176.2" y="2608.7" font-size="18.2px" font-family="CMUBright-Roman" style="text-anchor:end;fill:rgb(0,0,0);" transform="rotate(-73.4,1176.2,2608.7)" >0</text>
<g id="highlighttrack_0">
<path d="M1192.746,2530.155 A1075.000,1075.000 40.000 0,1 1172.620,2523.937 L1157.393,2571.562 A1125.000,1125.000 0.000 0,0 1178.456,2578.070 Z" style="stroke-width:4.0;stroke:rgb(0,0,0);stroke-linecap:round;fill:rgb(116,196,118);" />
</g>
<path d="M1119.455,2505.391 A1075.000,1075.000 40.000 0,1 1114.406,2503.465 L1096.471,2550.138 A1125.000,1125.000 0.000 0,0 1101.755,2552.153 Z" style="stroke-linecap:round;fill:rgb(116,196,118);fill-opacity:0.33;" />
<text x="1075.9" y="2638.6" font-size="18.2px" font-family="CMUBright-Roman" style="text-anchor:end;fill:rgb(0,0,0);" transform="rotate(-69.1,1075.9,2638.6)" >R<tspan baseline-shift="-40%" font-size="90%">s</tspan>caffold<tspan baseline-shift="-40%" font-size="90%">2</tspan>4</text>
<line x1='1101.8' y1='2552.2' x2='1094.7' y2='2570.9' style="stroke-width:4.0;stroke:rgb(0,0,0);stroke-linecap:round;fill:none;" />
<text x="1097.2" y="2582.5" font-size="18.2px" font-family="CMUBright-Roman" style="text-anchor:end;fill:rgb(0,0,0);" transform="rotate(-69.3,1097.2,2582.5)" >0</text>
<g id="highlighttrack_0">
<path d="M1118.248,2504.933 A1075.000,1075.000 40.000 0,1 1114.693,2503.575 L1096.772,2550.253 A1125.000,1125.000 0.000 0,0 1100.492,2551.674 Z" style="stroke-width:4.0;stroke:rgb(0,0,0);stroke-linecap:round;fill:rgb(116,196,118);" />
</g>
<path d="M1062.417,2481.909 A1075.000,1075.000 40.000 0,1 622.450,2120.911 L581.634,2149.791 A1125.000,1125.000 0.000 0,0 1042.064,2527.580 Z" style="stroke-linecap:round;fill:rgb(116,196,118);fill-opacity:0.33;" />
<text x="736.7" y="2445.3" font-size="18.2px" font-family="CMUBright-Roman" style="text-anchor:end;fill:rgb(0,0,0);" transform="rotate(-50.6,736.7,2445.3)" >R<tspan baseline-shift="-40%" font-size="90%">s</tspan>caffold<tspan baseline-shift="-40%" font-size="90%">1</tspan></text>
<line x1='1042.1' y1='2527.6' x2='1033.9' y2='2545.8' style="stroke-width:4.0;stroke:rgb(0,0,0);stroke-linecap:round;fill:none;" />
<text x="1035.8" y="2557.6" font-size="18.2px" font-family="CMUBright-Roman" style="text-anchor:end;fill:rgb(0,0,0);" transform="rotate(-66.0,1035.8,2557.6)" >0</text>
<line x1='980.9' y1='2498.1' x2='971.7' y2='2515.8' style="stroke-width:4.0;stroke:rgb(0,0,0);stroke-linecap:round;fill:none;" />
<text x="972.9" y="2527.7" font-size="18.2px" font-family="CMUBright-Roman" style="text-anchor:end;fill:rgb(0,0,0);" transform="rotate(-62.5,972.9,2527.7)" >50</text>
<line x1='921.7' y1='2465.0' x2='911.4' y2='2482.1' style="stroke-width:4.0;stroke:rgb(0,0,0);stroke-linecap:round;fill:none;" />
<text x="911.8" y="2494.0" font-size="18.2px" font-family="CMUBright-Roman" style="text-anchor:end;fill:rgb(0,0,0);" transform="rotate(-59.1,911.8,2494.0)" >100</text>
<line x1='864.5' y1='2428.3' x2='853.2' y2='2444.8' style="stroke-width:4.0;stroke:rgb(0,0,0);stroke-linecap:round;fill:none;" />
<text x="853.0" y="2456.7" font-size="18.2px" font-family="CMUBright-Roman" style="text-anchor:end;fill:rgb(0,0,0);" transform="rotate(-55.6,853.0,2456.7)" >150</text>
<line x1='809.7' y1='2388.3' x2='797.4' y2='2404.1' style="stroke-width:4.0;stroke:rgb(0,0,0);stroke-linecap:round;fill:none;" />
<text x="796.4" y="2416.0" font-size="18.2px" font-family="CMUBright-Roman" style="text-anchor:end;fill:rgb(0,0,0);" transform="rotate(-52.1,796.4,2416.0)" >200</text>
<line x1='757.4' y1='2345.1' x2='744.2' y2='2360.1' style="stroke-width:4.0;stroke:rgb(0,0,0);stroke-linecap:round;fill:none;" />
<text x="742.5" y="2371.9" font-size="18.2px" font-family="CMUBright-Roman" style="text-anchor:end;fill:rgb(0,0,0);" transform="rotate(-48.7,742.5,2371.9)" >250</text>
<line x1='707.8' y1='2298.7' x2='693.7' y2='2312.9' style="stroke-width:4.0;stroke:rgb(0,0,0);stroke-linecap:round;fill:none;" />
<text x="691.3" y="2324.6" font-size="18.2px" font-family="CMUBright-Roman" style="text-anchor:end;fill:rgb(0,0,0);" transform="rotate(-45.2,691.3,2324.6)" >300</text>
<line x1='661.0' y1='2249.5' x2='646.1' y2='2262.8' style="stroke-width:4.0;stroke:rgb(0,0,0);stroke-linecap:round;fill:none;" />
<text x="643.0" y="2274.3" font-size="18.2px" font-family="CMUBright-Roman" style="text-anchor:end;fill:rgb(0,0,0);" transform="rotate(-41.8,643.0,2274.3)" >350</text>
<line x1='617.4' y1='2197.6' x2='601.7' y2='2210.0' style="stroke-width:4.0;stroke:rgb(0,0,0);stroke-linecap:round;fill:none;" />
<text x="597.9" y="2221.2" font-size="18.2px" font-family="CMUBright-Roman" style="text-anchor:end;fill:rgb(0,0,0);" transform="rotate(-38.3,597.9,2221.2)" >400</text>
<g id="highlighttrack_0">
<path d="M988.436,2445.477 A1075.000,1075.000 40.000 0,1 773.466,2292.321 L739.673,2329.173 A1125.000,1125.000 0.000 0,0 964.642,2489.453 Z" style="stroke-width:4.0;stroke:rgb(0,0,0);stroke-linecap:round;fill:rgb(116,196,118);" />
</g>
<path d="M591.157,2074.133 A1075.000,1075.000 40.000 0,1 501.578,1898.471 L455.140,1917.004 A1125.000,1125.000 0.000 0,0 548.885,2100.837 Z" style="stroke-linecap:round;fill:rgb(116,196,118);fill-opacity:0.33;" />
<text x="422.0" y="2060.4" font-size="18.2px" font-family="CMUBright-Roman" style="text-anchor:end;fill:rgb(0,0,0);" transform="rotate(-27.0,422.0,2060.4)" >R<tspan baseline-shift="-40%" font-size="90%">s</tspan>caffold<tspan baseline-shift="-40%" font-size="90%">1</tspan>3</text>
<line x1='548.9' y1='2100.8' x2='532.0' y2='2111.5' style="stroke-width:4.0;stroke:rgb(0,0,0);stroke-linecap:round;fill:none;" />
<text x="527.0" y="2122.3" font-size="18.2px" font-family="CMUBright-Roman" style="text-anchor:end;fill:rgb(0,0,0);" transform="rotate(-32.3,527.0,2122.3)" >0</text>
<line x1='514.4' y1='2042.4' x2='496.9' y2='2052.0' style="stroke-width:4.0;stroke:rgb(0,0,0);stroke-linecap:round;fill:none;" />
<text x="491.2" y="2062.5" font-size="18.2px" font-family="CMUBright-Roman" style="text-anchor:end;fill:rgb(0,0,0);" transform="rotate(-28.8,491.2,2062.5)" >50</text>
<line x1='483.5' y1='1982.0' x2='465.4' y2='1990.5' style="stroke-width:4.0;stroke:rgb(0,0,0);stroke-linecap:round;fill:none;" />
<text x="459.2" y="2000.7" font-size="18.2px" font-family="CMUBright-Roman" style="text-anchor:end;fill:rgb(0,0,0);" transform="rotate(-25.4,459.2,2000.7)" >100</text>
<line x1='456.2' y1='1919.8' x2='437.7' y2='1927.2' style="stroke-width:4.0;stroke:rgb(0,0,0);stroke-linecap:round;fill:none;" />
<text x="430.9" y="1937.0" font-size="18.2px" font-family="CMUBright-Roman" style="text-anchor:end;fill:rgb(0,0,0);" transform="rotate(-21.9,430.9,1937.0)" >150</text>
<g id="highlighttrack_0">
<path d="M590.076,2072.420 A1075.000,1075.000 40.000 0,1 588.550,2069.986 L546.157,2096.497 A1125.000,1125.000 0.000 0,0 547.754,2099.044 Z" style="stroke-width:4.0;stroke:rgb(0,0,0);stroke-linecap:round;fill:rgb(251,106,74);" />
</g>
<path d="M482.092,1845.671 A1075.000,1075.000 40.000 0,1 431.595,1618.895 L381.902,1624.425 A1125.000,1125.000 0.000 0,0 434.748,1861.749 Z" style="stroke-linecap:round;fill:rgb(116,196,118);fill-opacity:0.33;" />
<text x="316.1" y="1773.3" font-size="18.2px" font-family="CMUBright-Roman" style="text-anchor:end;fill:rgb(0,0,0);" transform="rotate(-12.6,316.1,1773.3)" >R<tspan baseline-shift="-40%" font-size="90%">s</tspan>caffold<tspan baseline-shift="-40%" font-size="90%">1</tspan>0</text>
<line x1='434.7' y1='1861.7' x2='415.8' y2='1868.2' style="stroke-width:4.0;stroke:rgb(0,0,0);stroke-linecap:round;fill:none;" />
<text x="408.4" y="1877.5" font-size="18.2px" font-family="CMUBright-Roman" style="text-anchor:end;fill:rgb(0,0,0);" transform="rotate(-18.8,408.4,1877.5)" >0</text>
<line x1='414.9' y1='1796.8' x2='395.6' y2='1802.1' style="stroke-width:4.0;stroke:rgb(0,0,0);stroke-linecap:round;fill:none;" />
<text x="387.7" y="1811.0" font-size="18.2px" font-family="CMUBright-Roman" style="text-anchor:end;fill:rgb(0,0,0);" transform="rotate(-15.3,387.7,1811.0)" >50</text>
<line x1='398.9' y1='1730.9' x2='379.4' y2='1735.0' style="stroke-width:4.0;stroke:rgb(0,0,0);stroke-linecap:round;fill:none;" />
<text x="370.9" y="1743.4" font-size="18.2px" font-family="CMUBright-Roman" style="text-anchor:end;fill:rgb(0,0,0);" transform="rotate(-11.8,370.9,1743.4)" >100</text>
<line x1='387.0' y1='1664.0' x2='367.2' y2='1667.0' style="stroke-width:4.0;stroke:rgb(0,0,0);stroke-linecap:round;fill:none;" />
<text x="358.3" y="1674.8" font-size="18.2px" font-family="CMUBright-Roman" style="text-anchor:end;fill:rgb(0,0,0);" transform="rotate(-8.4,358.3,1674.8)" >150</text>
<g id="highlighttrack_0">
<path d="M442.169,1691.357 A1075.000,1075.000 40.000 0,1 441.550,1687.907 L392.320,1696.647 A1125.000,1125.000 0.000 0,0 392.967,1700.258 Z" style="stroke-width:4.0;stroke:rgb(0,0,0);stroke-linecap:round;fill:rgb(116,196,118);" />
</g>
<path d="M426.837,1562.816 A1075.000,1075.000 40.000 0,1 427.754,1423.096 L377.882,1419.519 A1125.000,1125.000 0.000 0,0 376.922,1565.738 Z" style="stroke-linecap:round;fill:rgb(116,196,118);fill-opacity:0.33;" />
<text x="285.0" y="1501.5" font-size="18.2px" font-family="CMUBright-Roman" style="text-anchor:end;fill:rgb(0,0,0);" transform="rotate(0.4,285.0,1501.5)" >R<tspan baseline-shift="-40%" font-size="90%">s</tspan>caffold<tspan baseline-shift="-40%" font-size="90%">1</tspan>6</text>
<line x1='376.9' y1='1565.7' x2='357.0' y2='1566.9' style="stroke-width:4.0;stroke:rgb(0,0,0);stroke-linecap:round;fill:none;" />
<text x="347.4" y="1574.0" font-size="18.2px" font-family="CMUBright-Roman" style="text-anchor:end;fill:rgb(0,0,0);" transform="rotate(-3.3,347.4,1574.0)" >0</text>
<line x1='375.0' y1='1497.9' x2='355.0' y2='1497.8' style="stroke-width:4.0;stroke:rgb(0,0,0);stroke-linecap:round;fill:none;" />
<text x="345.0" y="1504.3" font-size="18.2px" font-family="CMUBright-Roman" style="text-anchor:end;fill:rgb(0,0,0);" transform="rotate(0.1,345.0,1504.3)" >50</text>
<line x1='377.2' y1='1430.0' x2='357.2' y2='1428.8' style="stroke-width:4.0;stroke:rgb(0,0,0);stroke-linecap:round;fill:none;" />
<text x="346.8" y="1434.7" font-size="18.2px" font-family="CMUBright-Roman" style="text-anchor:end;fill:rgb(0,0,0);" transform="rotate(3.6,346.8,1434.7)" >100</text>
<g id="highlighttrack_0">
<path d="M426.076,1451.907 A1075.000,1075.000 40.000 0,1 426.216,1448.891 L376.272,1446.513 A1125.000,1125.000 0.000 0,0 376.126,1449.670 Z" style="stroke-width:4.0;stroke:rgb(0,0,0);stroke-linecap:round;fill:rgb(251,106,74);" />
</g>
<path d="M433.249,1367.085 A1075.000,1075.000 40.000 0,1 473.801,1179.781 L426.071,1164.887 A1125.000,1125.000 0.000 0,0 383.632,1360.902 Z" style="stroke-linecap:round;fill:rgb(116,196,118);fill-opacity:0.33;" />
<text x="310.5" y="1252.2" font-size="18.2px" font-family="CMUBright-Roman" style="text-anchor:end;fill:rgb(0,0,0);" transform="rotate(12.2,310.5,1252.2)" >R<tspan baseline-shift="-40%" font-size="90%">s</tspan>caffold<tspan baseline-shift="-40%" font-size="90%">1</tspan>4</text>
<line x1='383.6' y1='1360.9' x2='363.8' y2='1358.4' style="stroke-width:4.0;stroke:rgb(0,0,0);stroke-linecap:round;fill:none;" />
<text x="353.1" y="1363.6" font-size="18.2px" font-family="CMUBright-Roman" style="text-anchor:end;fill:rgb(0,0,0);" transform="rotate(7.1,353.1,1363.6)" >0</text>
<line x1='394.1' y1='1293.8' x2='374.4' y2='1290.2' style="stroke-width:4.0;stroke:rgb(0,0,0);stroke-linecap:round;fill:none;" />
<text x="363.4" y="1294.7" font-size="18.2px" font-family="CMUBright-Roman" style="text-anchor:end;fill:rgb(0,0,0);" transform="rotate(10.6,363.4,1294.7)" >50</text>
<line x1='408.5' y1='1227.5' x2='389.1' y2='1222.7' style="stroke-width:4.0;stroke:rgb(0,0,0);stroke-linecap:round;fill:none;" />
<text x="377.8" y="1226.5" font-size="18.2px" font-family="CMUBright-Roman" style="text-anchor:end;fill:rgb(0,0,0);" transform="rotate(14.0,377.8,1226.5)" >100</text>
<g id="highlighttrack_0">
<path d="M446.001,1288.551 A1075.000,1075.000 40.000 0,1 451.253,1263.877 L402.474,1252.894 A1125.000,1125.000 0.000 0,0 396.978,1278.716 Z" style="stroke-width:4.0;stroke:rgb(0,0,0);stroke-linecap:round;fill:rgb(116,196,118);" />
</g>
<path d="M491.966,1126.513 A1075.000,1075.000 40.000 0,1 1064.132,517.328 L1043.859,471.622 A1125.000,1125.000 0.000 0,0 445.081,1109.141 Z" style="stroke-linecap:round;fill:rgb(116,196,118);fill-opacity:0.33;" />
<text x="607.9" y="675.1" font-size="18.2px" font-family="CMUBright-Roman" style="text-anchor:end;fill:rgb(0,0,0);" transform="rotate(43.2,607.9,675.1)" >R<tspan baseline-shift="-40%" font-size="90%">s</tspan>caffold<tspan baseline-shift="-40%" font-size="90%">0</tspan></text>
<line x1='445.1' y1='1109.1' x2='426.3' y2='1102.2' style="stroke-width:4.0;stroke:rgb(0,0,0);stroke-linecap:round;fill:none;" />
<text x="414.7" y="1104.8" font-size="18.2px" font-family="CMUBright-Roman" style="text-anchor:end;fill:rgb(0,0,0);" transform="rotate(20.3,414.7,1104.8)" >0</text>
<line x1='470.6' y1='1046.2' x2='452.3' y2='1038.2' style="stroke-width:4.0;stroke:rgb(0,0,0);stroke-linecap:round;fill:none;" />
<text x="440.5" y="1040.1" font-size="18.2px" font-family="CMUBright-Roman" style="text-anchor:end;fill:rgb(0,0,0);" transform="rotate(23.8,440.5,1040.1)" >50</text>
<line x1='499.8' y1='985.0' x2='482.0' y2='975.8' style="stroke-width:4.0;stroke:rgb(0,0,0);stroke-linecap:round;fill:none;" />
<text x="470.2" y="977.0" font-size="18.2px" font-family="CMUBright-Roman" style="text-anchor:end;fill:rgb(0,0,0);" transform="rotate(27.2,470.2,977.0)" >100</text>
<line x1='532.7' y1='925.6' x2='515.5' y2='915.4' style="stroke-width:4.0;stroke:rgb(0,0,0);stroke-linecap:round;fill:none;" />
<text x="503.6" y="915.9" font-size="18.2px" font-family="CMUBright-Roman" style="text-anchor:end;fill:rgb(0,0,0);" transform="rotate(30.7,503.6,915.9)" >150</text>
<line x1='569.1' y1='868.3' x2='552.5' y2='857.1' style="stroke-width:4.0;stroke:rgb(0,0,0);stroke-linecap:round;fill:none;" />
<text x="540.6" y="856.8" font-size="18.2px" font-family="CMUBright-Roman" style="text-anchor:end;fill:rgb(0,0,0);" transform="rotate(34.2,540.6,856.8)" >200</text>
<line x1='608.9' y1='813.3' x2='593.0' y2='801.1' style="stroke-width:4.0;stroke:rgb(0,0,0);stroke-linecap:round;fill:none;" />
<text x="581.2" y="800.2" font-size="18.2px" font-family="CMUBright-Roman" style="text-anchor:end;fill:rgb(0,0,0);" transform="rotate(37.6,581.2,800.2)" >250</text>
<line x1='651.9' y1='760.8' x2='636.8' y2='747.7' style="stroke-width:4.0;stroke:rgb(0,0,0);stroke-linecap:round;fill:none;" />
<text x="625.1" y="746.0" font-size="18.2px" font-family="CMUBright-Roman" style="text-anchor:end;fill:rgb(0,0,0);" transform="rotate(41.1,625.1,746.0)" >300</text>
<line x1='698.0' y1='711.0' x2='683.8' y2='697.0' style="stroke-width:4.0;stroke:rgb(0,0,0);stroke-linecap:round;fill:none;" />
<text x="672.1" y="694.6" font-size="18.2px" font-family="CMUBright-Roman" style="text-anchor:end;fill:rgb(0,0,0);" transform="rotate(44.5,672.1,694.6)" >350</text>
<line x1='747.1' y1='664.1' x2='733.7' y2='649.2' style="stroke-width:4.0;stroke:rgb(0,0,0);stroke-linecap:round;fill:none;" />
<text x="722.2" y="646.2" font-size="18.2px" font-family="CMUBright-Roman" style="text-anchor:end;fill:rgb(0,0,0);" transform="rotate(48.0,722.2,646.2)" >400</text>
<line x1='798.9' y1='620.2' x2='786.4' y2='604.6' style="stroke-width:4.0;stroke:rgb(0,0,0);stroke-linecap:round;fill:none;" />
<text x="775.1" y="600.8" font-size="18.2px" font-family="CMUBright-Roman" style="text-anchor:end;fill:rgb(0,0,0);" transform="rotate(51.4,775.1,600.8)" >450</text>
<line x1='853.2' y1='579.5' x2='841.7' y2='563.2' style="stroke-width:4.0;stroke:rgb(0,0,0);stroke-linecap:round;fill:none;" />
<text x="830.7" y="558.7" font-size="18.2px" font-family="CMUBright-Roman" style="text-anchor:end;fill:rgb(0,0,0);" transform="rotate(54.9,830.7,558.7)" >500</text>
<line x1='909.9' y1='542.2' x2='899.4' y2='525.2' style="stroke-width:4.0;stroke:rgb(0,0,0);stroke-linecap:round;fill:none;" />
<text x="888.6" y="520.1" font-size="18.2px" font-family="CMUBright-Roman" style="text-anchor:end;fill:rgb(0,0,0);" transform="rotate(58.4,888.6,520.1)" >550</text>
<line x1='968.7' y1='508.3' x2='959.3' y2='490.7' style="stroke-width:4.0;stroke:rgb(0,0,0);stroke-linecap:round;fill:none;" />
<text x="948.9" y="485.0" font-size="18.2px" font-family="CMUBright-Roman" style="text-anchor:end;fill:rgb(0,0,0);" transform="rotate(61.8,948.9,485.0)" >600</text>
<line x1='1029.5' y1='478.1' x2='1021.1' y2='459.9' style="stroke-width:4.0;stroke:rgb(0,0,0);stroke-linecap:round;fill:none;" />
<text x="1011.1" y="453.6" font-size="18.2px" font-family="CMUBright-Roman" style="text-anchor:end;fill:rgb(0,0,0);" transform="rotate(65.3,1011.1,453.6)" >650</text>
<g id="highlighttrack_0">
<path d="M505.229,1092.502 A1075.000,1075.000 40.000 0,1 710.637,770.253 L673.922,736.311 A1125.000,1125.000 0.000 0,0 458.960,1073.548 Z" style="stroke-width:4.0;stroke:rgb(0,0,0);stroke-linecap:round;fill:rgb(116,196,118);" />
<path d="M773.791,707.381 A1075.000,1075.000 40.000 0,1 777.413,704.077 L743.805,667.057 A1125.000,1125.000 0.000 0,0 740.014,670.515 Z" style="stroke-width:4.0;stroke:rgb(0,0,0);stroke-linecap:round;fill:rgb(116,196,118);" />
</g>
<path d="M1116.159,495.863 A1075.000,1075.000 40.000 0,1 1146.771,484.690 L1130.342,437.466 A1125.000,1125.000 0.000 0,0 1098.306,449.159 Z" style="stroke-linecap:round;fill:rgb(116,196,118);fill-opacity:0.33;" />
<text x="1074.5" y="361.9" font-size="18.2px" font-family="CMUBright-Roman" style="text-anchor:end;fill:rgb(0,0,0);" transform="rotate(69.9,1074.5,361.9)" >R<tspan baseline-shift="-40%" font-size="90%">s</tspan>caffold<tspan baseline-shift="-40%" font-size="90%">2</tspan>5</text>
<line x1='1098.3' y1='449.2' x2='1091.2' y2='430.5' style="stroke-width:4.0;stroke:rgb(0,0,0);stroke-linecap:round;fill:none;" />
<text x="1081.5" y="423.5" font-size="18.2px" font-family="CMUBright-Roman" style="text-anchor:end;fill:rgb(0,0,0);" transform="rotate(69.1,1081.5,423.5)" >0</text>
<g id="highlighttrack_0">
<path d="M1129.160,490.989 A1075.000,1075.000 40.000 0,1 1146.690,484.718 L1130.257,437.496 A1125.000,1125.000 0.000 0,0 1111.912,444.058 Z" style="stroke-width:4.0;stroke:rgb(0,0,0);stroke-linecap:round;fill:rgb(116,196,118);" />
</g>
<path d="M1200.392,467.595 A1075.000,1075.000 40.000 0,1 1227.281,460.169 L1214.596,411.804 A1125.000,1125.000 0.000 0,0 1186.457,419.576 Z" style="stroke-linecap:round;fill:rgb(116,196,118);fill-opacity:0.33;" />
<text x="1167.4" y="331.4" font-size="18.2px" font-family="CMUBright-Roman" style="text-anchor:end;fill:rgb(0,0,0);" transform="rotate(74.6,1167.4,331.4)" >R<tspan baseline-shift="-40%" font-size="90%">s</tspan>caffold<tspan baseline-shift="-40%" font-size="90%">2</tspan>6</text>
<line x1='1186.5' y1='419.6' x2='1180.9' y2='400.4' style="stroke-width:4.0;stroke:rgb(0,0,0);stroke-linecap:round;fill:none;" />
<text x="1171.9" y="392.6" font-size="18.2px" font-family="CMUBright-Roman" style="text-anchor:end;fill:rgb(0,0,0);" transform="rotate(73.8,1171.9,392.6)" >0</text>
<g id="highlighttrack_0">
<path d="M1200.725,467.498 A1075.000,1075.000 40.000 0,1 1221.029,461.829 L1208.053,413.542 A1125.000,1125.000 0.000 0,0 1186.805,419.475 Z" style="stroke-width:4.0;stroke:rgb(0,0,0);stroke-linecap:round;fill:rgb(251,106,74);" />
</g>
<path d="M1282.075,447.321 A1075.000,1075.000 40.000 0,1 1383.644,431.316 L1378.232,381.609 A1125.000,1125.000 0.000 0,0 1271.939,398.359 Z" style="stroke-linecap:round;fill:rgb(116,196,118);fill-opacity:0.33;" />
<text x="1301.5" y="301.3" font-size="18.2px" font-family="CMUBright-Roman" style="text-anchor:end;fill:rgb(0,0,0);" transform="rotate(81.0,1301.5,301.3)" >R<tspan baseline-shift="-40%" font-size="90%">s</tspan>caffold<tspan baseline-shift="-40%" font-size="90%">1</tspan>8</text>
<line x1='1271.9' y1='398.4' x2='1267.9' y2='378.8' style="stroke-width:4.0;stroke:rgb(0,0,0);stroke-linecap:round;fill:none;" />
<text x="1259.5" y="370.3" font-size="18.2px" font-family="CMUBright-Roman" style="text-anchor:end;fill:rgb(0,0,0);" transform="rotate(78.3,1259.5,370.3)" >0</text>
<line x1='1338.8' y1='386.6' x2='1335.9' y2='366.8' style="stroke-width:4.0;stroke:rgb(0,0,0);stroke-linecap:round;fill:none;" />
<text x="1328.1" y="357.9" font-size="18.2px" font-family="CMUBright-Roman" style="text-anchor:end;fill:rgb(0,0,0);" transform="rotate(81.8,1328.1,357.9)" >50</text>
<g id="highlighttrack_0">
<path d="M1296.305,444.475 A1075.000,1075.000 40.000 0,1 1305.722,442.701 L1296.686,393.524 A1125.000,1125.000 0.000 0,0 1286.831,395.381 Z" style="stroke-width:4.0;stroke:rgb(0,0,0);stroke-linecap:round;fill:rgb(251,106,74);" />
</g>
<path d="M1439.734,426.691 A1075.000,1075.000 40.000 0,1 1443.739,426.473 L1441.122,376.542 A1125.000,1125.000 0.000 0,0 1436.931,376.769 Z" style="stroke-linecap:round;fill:rgb(116,196,118);fill-opacity:0.33;" />
<text x="1424.7" y="287.3" font-size="18.2px" font-family="CMUBright-Roman" style="text-anchor:end;fill:rgb(0,0,0);" transform="rotate(86.9,1424.7,287.3)" >R<tspan baseline-shift="-40%" font-size="90%">s</tspan>caffold<tspan baseline-shift="-40%" font-size="90%">2</tspan>9</text>
<line x1='1436.9' y1='376.8' x2='1435.8' y2='356.8' style="stroke-width:4.0;stroke:rgb(0,0,0);stroke-linecap:round;fill:none;" />
<text x="1428.8" y="347.2" font-size="18.2px" font-family="CMUBright-Roman" style="text-anchor:end;fill:rgb(0,0,0);" transform="rotate(86.8,1428.8,347.2)" >0</text>
<g id="highlighttrack_0">
<path d="M1439.952,426.678 A1075.000,1075.000 40.000 0,1 1443.739,426.473 L1441.122,376.542 A1125.000,1125.000 0.000 0,0 1437.159,376.756 Z" style="stroke-width:4.0;stroke:rgb(0,0,0);stroke-linecap:round;fill:rgb(116,196,118);" />
</g>
</g>
<g id="track_0">
<path d="M 452.747,1689.444 A 1064.250,1064.250 0.00 0,1 452.1,1686.0 L 452.1,1686.0 524.9,1671.9 593.8,1656.3 658.9,1639.4 720.6,1621.6 779.1,1602.9 834.8,1583.6 887.8,1563.9 938.5,1543.9 987.0,1523.8 1033.7,1503.6 1078.6,1483.6 1122.2,1463.7 1164.5,1444.1 1205.7,1424.8 1246.1,1405.9 1285.9,1387.3 1325.2,1369.1 1364.2,1351.3 1403.1,1333.8 1442.0,1316.5 1481.1,1299.5 1520.5,1282.6 1560.4,1265.7 1600.9,1248.7 1642.1,1231.5 1684.1,1213.9 1727.0,1195.8 1770.9,1176.9 1816.0,1157.0 1862.2,1136.0 1909.8,1113.6 1958.6,1089.5 2008.8,1063.5 2060.5,1035.2 2113.7,1004.4 2168.4,970.7 2224.6,933.8 2282.4,893.3 2341.8,848.9  A 1064.250,1064.250 0.00 0,0 2339.7,846.1 L 2339.7,846.1 2280.4,890.7 2222.8,931.4 2166.7,968.5 2112.1,1002.4 2059.0,1033.4 2007.4,1061.8 1957.3,1088.0 1908.5,1112.3 1861.1,1134.8 1814.9,1156.0 1769.9,1176.0 1726.0,1195.0 1683.1,1213.3 1641.2,1231.1 1600.1,1248.4 1559.6,1265.5 1519.8,1282.5 1480.4,1299.6 1441.4,1316.7 1402.5,1334.1 1363.7,1351.7 1324.8,1369.7 1285.5,1388.0 1245.8,1406.7 1205.5,1425.8 1164.3,1445.2 1122.0,1465.0 1078.6,1485.0 1033.7,1505.1 987.1,1525.4 938.6,1545.7 888.0,1565.9 835.1,1585.8 779.5,1605.2 721.0,1624.1 659.3,1642.2 594.3,1659.2 525.5,1675.1 452.7,1689.4  Z" style="stroke-width: 2.0;  stroke: rgb(82,82,82); fill: rgb(251,106,74); opacity: 0.667;" />
<path d="M 436.816,1452.387 A 1064.250,1064.250 0.00 0,1 437.0,1449.4 L 437.0,1449.4 511.1,1451.7 581.6,1451.8 648.7,1449.8 712.7,1446.0 773.8,1440.7 832.1,1434.2 888.0,1426.7 941.6,1418.3 993.2,1409.3 1042.9,1399.9 1090.9,1390.1 1137.5,1380.1 1182.8,1370.1 1227.0,1360.1 1270.3,1350.2 1312.9,1340.5 1354.9,1330.9 1396.6,1321.6 1438.0,1312.5 1479.4,1303.6 1521.0,1294.8 1562.8,1286.2 1605.1,1277.6 1647.9,1269.0 1691.4,1260.3 1735.8,1251.2 1781.3,1241.8 1827.8,1231.7 1875.6,1220.9 1924.8,1209.1 1975.5,1196.1 2027.8,1181.7 2081.8,1165.6 2137.7,1147.5 2195.6,1127.2 2255.5,1104.4 2317.5,1078.6 2381.8,1049.6 2448.4,1017.1  A 1064.250,1064.250 0.00 0,0 2447.0,1014.4 L 2447.0,1014.4 2380.5,1047.2 2316.3,1076.3 2254.3,1102.3 2194.5,1125.3 2136.7,1145.8 2080.9,1164.0 2026.9,1180.2 1974.6,1194.8 1924.0,1207.9 1874.8,1219.8 1827.0,1230.8 1780.5,1241.0 1735.1,1250.6 1690.8,1259.7 1647.2,1268.6 1604.4,1277.4 1562.2,1286.0 1520.4,1294.8 1478.9,1303.6 1437.5,1312.6 1396.1,1321.9 1354.4,1331.3 1312.4,1341.0 1269.9,1350.8 1226.6,1360.9 1182.4,1371.0 1137.1,1381.2 1090.6,1391.2 1042.6,1401.2 992.9,1410.7 941.4,1419.9 887.8,1428.4 832.0,1436.1 773.6,1442.8 712.6,1448.2 648.6,1452.1 581.4,1454.3 510.9,1454.5 436.8,1452.4  Z" style="stroke-width: 2.0;  stroke: rgb(82,82,82); fill: rgb(116,196,118); opacity: 0.667;" />
<path d="M 1541.336,2563.447 A 1064.250,1064.250 0.00 0,1 1538.0,2563.6 L 1538.0,2563.6 1535.7,2490.4 1534.2,2422.6 1533.5,2360.0 1533.5,2302.3 1534.3,2249.3 1535.7,2200.6 1537.7,2156.2 1540.5,2115.7 1543.8,2079.1 1547.8,2046.1 1552.4,2016.5 1557.6,1990.2 1563.4,1967.1 1569.9,1947.1 1577.0,1930.1 1584.8,1915.9 1593.3,1904.5 1602.5,1895.9 1612.4,1889.9 1623.1,1886.7 1634.7,1886.1 1647.1,1888.2 1660.5,1892.9 1674.9,1900.4 1690.3,1910.6 1706.8,1923.7 1724.4,1939.6 1743.4,1958.6 1763.6,1980.6 1785.2,2005.9 1808.4,2034.5 1833.1,2066.6 1859.5,2102.4 1887.7,2142.1 1917.8,2185.8 1949.9,2233.7 1984.1,2286.2 2020.5,2343.3 2059.2,2405.5  A 1064.250,1064.250 0.00 0,0 2062.1,2403.7 L 2062.1,2403.7 2023.2,2341.7 1986.6,2284.6 1952.2,2232.3 1920.0,2184.4 1889.8,2140.8 1861.5,2101.3 1834.9,2065.5 1810.1,2033.5 1786.9,2005.0 1765.1,1979.8 1744.8,1957.8 1725.8,1938.9 1708.1,1923.0 1691.6,1910.0 1676.1,1899.8 1661.8,1892.4 1648.4,1887.7 1635.9,1885.6 1624.4,1886.3 1613.6,1889.6 1603.7,1895.5 1594.5,1904.2 1586.1,1915.6 1578.4,1929.8 1571.3,1946.9 1564.9,1966.9 1559.1,1990.0 1554.0,2016.3 1549.5,2045.9 1545.7,2079.0 1542.4,2115.6 1539.8,2156.1 1537.9,2200.5 1536.6,2249.2 1536.1,2302.2 1536.2,2359.9 1537.1,2422.5 1538.8,2490.2 1541.3,2563.4  Z" style="stroke-width: 2.0;  stroke: rgb(82,82,82); fill: rgb(107,174,214); opacity: 0.667;" />
<path d="M 456.541,1290.665 A 1064.250,1064.250 0.00 0,1 461.7,1266.2 L 461.7,1266.2 533.8,1281.5 601.7,1294.0 665.7,1304.0 726.1,1311.6 783.1,1317.0 837.0,1320.5 887.9,1322.1 936.0,1322.0 981.7,1320.3 1025.0,1317.1 1066.3,1312.5 1105.6,1306.6 1143.1,1299.5 1179.1,1291.1 1213.6,1281.6 1246.9,1270.9 1279.1,1259.0 1310.2,1246.0 1340.6,1231.7 1370.2,1216.2 1399.1,1199.4 1427.6,1181.2 1455.7,1161.5 1483.4,1140.2 1510.9,1117.3 1538.3,1092.4 1565.5,1065.6 1592.7,1036.7 1620.0,1005.4 1647.2,971.5 1674.6,935.0 1702.1,895.4 1729.8,852.7 1757.6,806.4 1785.5,756.5 1813.7,702.5 1841.9,644.2 1870.3,581.2 1898.8,513.3  A 1064.250,1064.250 0.00 0,0 1875.2,504.1 L 1875.2,504.1 1848.4,572.7 1821.5,636.3 1794.6,695.3 1767.8,749.9 1741.0,800.5 1714.4,847.4 1687.7,890.8 1661.2,931.0 1634.7,968.2 1608.2,1002.7 1581.7,1034.6 1555.2,1064.2 1528.6,1091.6 1501.8,1117.1 1474.9,1140.7 1447.7,1162.6 1420.1,1183.0 1392.1,1201.8 1363.5,1219.3 1334.3,1235.5 1304.3,1250.5 1273.4,1264.3 1241.6,1276.9 1208.6,1288.4 1174.3,1298.7 1138.5,1307.9 1101.1,1315.9 1062.0,1322.8 1020.9,1328.3 977.6,1332.5 932.0,1335.3 883.8,1336.5 832.9,1336.1 779.0,1333.9 721.9,1329.8 661.4,1323.6 597.1,1315.1 528.9,1304.2 456.5,1290.7  Z" style="stroke-width: 2.0;  stroke: rgb(82,82,82); fill: rgb(253,141,60); opacity: 0.667;" />
<path d="M 1366.219,2555.808 A 1064.250,1064.250 0.00 0,1 1356.8,2554.6 L 1356.8,2554.6 1365.6,2480.8 1371.8,2410.2 1375.7,2342.6 1377.6,2277.9 1377.9,2215.7 1376.8,2156.0 1374.6,2098.6 1371.6,2043.3 1367.9,1990.0 1363.9,1938.4 1359.5,1888.4 1355.2,1839.8 1350.9,1792.5 1346.9,1746.3 1343.2,1701.0 1339.9,1656.5 1337.1,1612.5 1334.9,1568.9 1333.3,1525.5 1332.3,1482.3 1331.9,1438.9 1332.0,1395.3 1332.8,1351.2 1333.9,1306.5 1335.5,1261.1 1337.4,1214.7 1339.5,1167.3 1341.5,1118.6 1343.5,1068.5 1345.2,1016.7 1346.3,963.3 1346.8,907.9 1346.3,850.5 1344.6,790.8 1341.4,728.7 1336.4,664.1 1329.4,596.7 1319.9,526.5 1307.7,453.3  A 1064.250,1064.250 0.00 0,0 1298.3,455.0 L 1298.3,455.0 1311.2,528.2 1321.3,598.3 1329.0,665.6 1334.5,730.2 1338.3,792.2 1340.5,851.9 1341.5,909.3 1341.6,964.7 1340.9,1018.1 1339.7,1069.9 1338.1,1120.0 1336.5,1168.7 1334.9,1216.2 1333.4,1262.6 1332.2,1308.0 1331.4,1352.7 1331.1,1396.8 1331.3,1440.4 1332.1,1483.8 1333.5,1527.0 1335.5,1570.4 1338.1,1613.9 1341.3,1657.9 1345.0,1702.4 1349.1,1747.7 1353.5,1793.9 1358.2,1841.1 1363.0,1889.6 1367.8,1939.6 1372.3,1991.1 1376.4,2044.4 1380.0,2099.7 1382.7,2157.1 1384.3,2216.8 1384.6,2278.9 1383.2,2343.7 1379.9,2411.3 1374.4,2482.0 1366.2,2555.8  Z" style="stroke-width: 2.0;  stroke: rgb(82,82,82); fill: rgb(255,0,0); opacity: 0.667;" />
<path d="M 1281.038,2541.482 A 1064.250,1064.250 0.00 0,1 1263.0,2537.5 L 1263.0,2537.5 1278.4,2465.0 1290.8,2395.7 1300.6,2329.4 1308.2,2265.8 1313.7,2205.0 1317.5,2146.6 1319.8,2090.4 1320.9,2036.4 1321.0,1984.4 1320.2,1934.0 1318.8,1885.3 1316.9,1838.0 1314.6,1791.9 1312.1,1746.9 1309.5,1702.8 1306.9,1659.5 1304.3,1616.7 1301.7,1574.3 1299.3,1532.2 1297.0,1490.1 1294.8,1448.0 1292.6,1405.6 1290.5,1362.7 1288.4,1319.4 1286.1,1275.3 1283.6,1230.3 1280.8,1184.2 1277.5,1137.0 1273.5,1088.4 1268.7,1038.3 1262.9,986.5 1255.9,933.0 1247.4,877.5 1237.2,819.8 1225.0,759.9 1210.5,697.6 1193.5,632.8 1173.5,565.3 1150.2,494.9  A 1064.250,1064.250 0.00 0,0 1132.9,501.1 L 1132.9,501.1 1157.3,571.0 1178.5,638.2 1196.7,702.8 1212.2,764.8 1225.5,824.5 1236.7,881.9 1246.1,937.3 1254.1,990.7 1260.8,1042.4 1266.4,1092.4 1271.2,1140.9 1275.3,1188.1 1279.0,1234.0 1282.2,1279.0 1285.3,1323.1 1288.2,1366.4 1291.0,1409.2 1293.9,1451.5 1296.8,1493.6 1299.9,1535.7 1303.1,1577.7 1306.3,1620.1 1309.7,1662.8 1313.1,1706.1 1316.4,1750.2 1319.7,1795.1 1322.8,1841.1 1325.5,1888.4 1327.8,1937.1 1329.4,1987.4 1330.2,2039.5 1330.1,2093.5 1328.7,2149.6 1325.9,2208.1 1321.5,2269.1 1315.0,2332.7 1306.4,2399.2 1295.1,2468.7 1281.0,2541.5  Z" style="stroke-width: 2.0;  stroke: rgb(82,82,82); fill: rgb(255,0,204); opacity: 0.667;" />
<path d="M 1195.819,2519.854 A 1064.250,1064.250 0.00 0,1 1175.9,2513.7 L 1175.9,2513.7 1197.3,2442.8 1215.6,2374.7 1231.0,2309.5 1243.9,2246.9 1254.6,2186.8 1263.3,2129.0 1270.3,2073.3 1275.9,2019.7 1280.4,1967.9 1283.8,1917.7 1286.4,1869.1 1288.4,1821.9 1290.0,1775.9 1291.2,1730.9 1292.2,1686.9 1293.0,1643.5 1293.9,1600.7 1294.7,1558.4 1295.6,1516.2 1296.6,1474.2 1297.7,1432.1 1298.8,1389.7 1300.0,1346.9 1301.2,1303.6 1302.2,1259.5 1303.2,1214.5 1303.8,1168.5 1304.0,1121.2 1303.6,1072.6 1302.5,1022.3 1300.6,970.4 1297.5,916.5 1293.0,860.6 1287.1,802.4 1279.2,741.9 1269.3,678.7 1257.0,612.9 1241.9,544.1 1223.8,472.2  A 1064.250,1064.250 0.00 0,0 1203.7,477.8 L 1203.7,477.8 1223.2,549.3 1239.6,617.8 1253.2,683.4 1264.4,746.4 1273.4,806.8 1280.5,864.8 1286.1,920.6 1290.2,974.4 1293.2,1026.3 1295.3,1076.5 1296.6,1125.2 1297.3,1172.4 1297.6,1218.5 1297.6,1263.4 1297.4,1307.5 1297.0,1350.9 1296.7,1393.7 1296.4,1436.1 1296.1,1478.2 1296.0,1520.2 1295.9,1562.4 1295.9,1604.8 1295.9,1647.5 1295.9,1690.9 1295.7,1735.0 1295.4,1780.0 1294.8,1826.0 1293.7,1873.3 1292.0,1921.9 1289.6,1972.1 1286.2,2024.0 1281.6,2077.7 1275.6,2133.5 1268.1,2191.5 1258.6,2251.8 1246.9,2314.6 1232.8,2380.2 1215.9,2448.5 1195.8,2519.9  Z" style="stroke-width: 2.0;  stroke: rgb(82,82,82); fill: rgb(255,204,204); opacity: 0.667;" />
<path d="M 2364.313,2120.960 A 1064.250,1064.250 0.00 0,1 2129.5,2358.1 L 2129.5,2358.1 2084.5,2298.9 2039.8,2243.7 1995.5,2192.1 1951.6,2143.7 1908.4,2098.4 1866.0,2055.6 1824.3,2015.1 1783.6,1976.7 1743.9,1940.0 1705.1,1904.8 1667.5,1870.7 1630.9,1837.7 1595.4,1805.3 1560.9,1773.5 1527.5,1742.0 1495.1,1710.6 1463.7,1679.2 1433.1,1647.5 1403.4,1615.5 1374.3,1582.9 1345.8,1549.8 1317.8,1515.8 1290.2,1481.0 1262.6,1445.3 1235.1,1408.5 1207.4,1370.7 1179.3,1331.8 1150.6,1291.7 1121.0,1250.4 1090.4,1207.9 1058.4,1164.3 1024.8,1119.5 989.4,1073.6 951.7,1026.5 911.5,978.5 868.4,929.5 822.1,879.6 772.3,828.9 718.5,777.6  A 1064.250,1064.250 0.00 0,0 515.2,1096.6 L 515.2,1096.6 583.5,1125.9 647.8,1155.9 708.5,1186.4 765.9,1217.2 820.2,1248.1 871.7,1279.0 920.8,1309.6 967.7,1339.8 1012.6,1369.6 1055.8,1398.8 1097.6,1427.2 1138.2,1455.0 1177.8,1481.9 1216.6,1507.9 1254.8,1533.1 1292.7,1557.4 1330.3,1580.8 1368.0,1603.4 1405.7,1625.2 1443.8,1646.3 1482.4,1666.8 1521.5,1686.7 1561.3,1706.2 1602.0,1725.4 1643.6,1744.4 1686.3,1763.5 1730.1,1782.8 1775.1,1802.5 1821.4,1822.9 1869.0,1844.0 1918.1,1866.4 1968.6,1890.1 2020.6,1915.4 2074.1,1942.8 2129.1,1972.4 2185.6,2004.7 2243.7,2040.0 2303.3,2078.6 2364.3,2121.0  Z" style="stroke-width: 2.0;  stroke: rgb(82,82,82); fill: rgb(255,153,0); opacity: 0.667;" />
<path d="M 2059.225,2405.481 A 1064.250,1064.250 0.00 0,1 2047.2,2412.8 L 2047.2,2412.8 2009.3,2350.1 1973.7,2292.5 1940.2,2239.6 1908.8,2191.2 1879.4,2147.1 1851.9,2107.0 1826.0,2070.9 1801.9,2038.4 1779.3,2009.5 1758.1,1983.9 1738.3,1961.5 1719.9,1942.3 1702.6,1926.1 1686.5,1912.8 1671.5,1902.4 1657.5,1894.7 1644.5,1889.7 1632.4,1887.5 1621.2,1887.9 1610.8,1891.0 1601.1,1896.8 1592.2,1905.3 1584.1,1916.6 1576.6,1930.7 1569.7,1947.6 1563.5,1967.5 1558.0,1990.5 1553.0,2016.7 1548.7,2046.2 1545.0,2079.2 1541.9,2115.8 1539.4,2156.2 1537.6,2200.6 1536.4,2249.2 1535.9,2302.3 1536.1,2359.9 1537.1,2422.5 1538.8,2490.2 1541.4,2563.4  A 1064.250,1064.250 0.00 0,0 1557.1,2562.7 L 1557.1,2562.7 1553.4,2489.6 1550.7,2421.9 1548.8,2359.3 1547.7,2301.6 1547.4,2248.6 1547.9,2200.0 1549.1,2155.6 1550.9,2115.2 1553.5,2078.5 1556.7,2045.5 1560.5,2015.9 1565.1,1989.7 1570.3,1966.6 1576.2,1946.6 1582.7,1929.6 1590.0,1915.4 1598.0,1904.0 1606.8,1895.4 1616.3,1889.5 1626.6,1886.2 1637.8,1885.7 1649.9,1887.8 1663.0,1892.5 1677.0,1900.0 1692.1,1910.3 1708.4,1923.4 1725.8,1939.4 1744.5,1958.3 1764.6,1980.4 1786.0,2005.7 1809.0,2034.3 1833.6,2066.5 1859.9,2102.3 1888.0,2142.0 1918.0,2185.7 1950.0,2233.7 1984.1,2286.2 2020.5,2343.3 2059.2,2405.5  Z" style="stroke-width: 2.0;  stroke: rgb(82,82,82); fill: rgb(255,204,0); opacity: 0.667;" />
<path d="M 1440.552,437.412 A 1064.250,1064.250 0.00 0,1 1444.3,437.2 L 1444.3,437.2 1447.0,511.4 1447.3,582.0 1445.6,649.5 1442.2,713.8 1437.3,775.4 1431.1,834.3 1424.0,890.7 1416.2,945.0 1407.7,997.2 1398.9,1047.7 1389.9,1096.4 1380.8,1143.8 1371.8,1189.9 1363.0,1234.9 1354.4,1279.1 1346.1,1322.5 1338.2,1365.4 1330.6,1408.0 1323.5,1450.3 1316.8,1492.7 1310.5,1535.2 1304.5,1578.0 1298.7,1621.2 1293.2,1665.1 1287.7,1709.8 1282.3,1755.3 1276.6,1801.9 1270.6,1849.8 1264.1,1899.0 1256.9,1949.6 1248.7,2001.9 1239.4,2055.9 1228.7,2111.9 1216.4,2169.8 1202.0,2229.8 1185.4,2292.1 1166.2,2356.7 1144.0,2423.8 1118.5,2493.5  A 1064.250,1064.250 0.00 0,0 1122.1,2494.9 L 1122.1,2494.9 1147.3,2425.1 1169.2,2357.9 1188.2,2293.2 1204.6,2230.9 1218.7,2170.8 1230.9,2112.8 1241.4,2056.9 1250.5,2002.8 1258.4,1950.5 1265.5,1899.8 1271.8,1850.6 1277.7,1802.7 1283.2,1756.1 1288.5,1710.5 1293.8,1665.8 1299.2,1621.9 1304.8,1578.7 1310.6,1535.8 1316.8,1493.3 1323.3,1451.0 1330.3,1408.6 1337.7,1366.0 1345.4,1323.0 1353.6,1279.6 1362.0,1235.4 1370.7,1190.3 1379.6,1144.2 1388.5,1096.8 1397.3,1048.0 1406.0,997.6 1414.2,945.3 1421.9,891.0 1428.8,834.5 1434.7,775.6 1439.4,714.0 1442.6,649.7 1444.1,582.2 1443.5,511.6 1440.6,437.4  Z" style="stroke-width: 2.0;  stroke: rgb(82,82,82); fill: rgb(255,255,0); opacity: 0.667;" />
<path d="M 1932.564,2472.377 A 1064.250,1064.250 0.00 0,1 1929.9,2473.5 L 1929.9,2473.5 1899.5,2406.6 1869.6,2344.8 1840.3,2287.8 1811.5,2235.4 1783.3,2187.1 1755.5,2142.8 1728.1,2102.2 1701.1,2065.1 1674.5,2031.2 1648.1,2000.3 1622.0,1972.3 1596.0,1946.9 1570.2,1924.0 1544.4,1903.6 1518.5,1885.3 1492.5,1869.2 1466.3,1855.1 1439.8,1842.9 1412.8,1832.7 1385.4,1824.2 1357.3,1817.6 1328.6,1812.8 1299.0,1809.7 1268.4,1808.5 1236.7,1809.1 1203.9,1811.5 1169.6,1815.9 1133.9,1822.3 1096.6,1830.9 1057.4,1841.6 1016.3,1854.7 973.2,1870.3 927.7,1888.5 879.8,1909.6 829.4,1933.7 776.1,1960.9 719.8,1991.6 660.4,2026.0 597.7,2064.3  A 1064.250,1064.250 0.00 0,0 599.2,2066.7 L 599.2,2066.7 661.8,2028.2 721.1,1993.7 777.3,1962.9 830.5,1935.4 880.9,1911.3 928.8,1890.1 974.2,1871.7 1017.3,1856.0 1058.3,1842.8 1097.4,1831.9 1134.8,1823.3 1170.5,1816.8 1204.7,1812.3 1237.6,1809.8 1269.2,1809.1 1299.8,1810.3 1329.4,1813.2 1358.2,1818.0 1386.3,1824.5 1413.7,1832.9 1440.7,1843.1 1467.2,1855.2 1493.5,1869.2 1519.5,1885.3 1545.5,1903.4 1571.3,1923.9 1597.2,1946.6 1623.3,1971.9 1649.5,1999.9 1675.9,2030.7 1702.6,2064.5 1729.7,2101.6 1757.2,2142.1 1785.1,2186.3 1813.5,2234.5 1842.4,2286.9 1871.9,2343.8 1901.9,2405.5 1932.6,2472.4  Z" style="stroke-width: 2.0;  stroke: rgb(82,82,82); fill: rgb(204,255,0); opacity: 0.667;" />
<path d="M 2562.074,1568.028 A 1064.250,1064.250 0.00 0,1 2514.7,1821.0 L 2514.7,1821.0 2444.0,1799.7 2376.9,1781.7 2313.2,1766.5 2252.7,1753.9 2195.0,1743.8 2140.2,1735.9 2087.8,1730.0 2037.8,1725.8 1989.9,1723.4 1944.0,1722.4 1899.9,1722.8 1857.3,1724.5 1816.2,1727.3 1776.3,1731.2 1737.5,1736.1 1699.6,1741.9 1662.5,1748.7 1626.0,1756.4 1590.0,1765.0 1554.2,1774.6 1518.7,1785.1 1483.3,1796.6 1447.7,1809.3 1412.0,1823.1 1375.9,1838.2 1339.4,1854.7 1302.3,1872.8 1264.6,1892.6 1226.2,1914.3 1186.8,1938.0 1146.6,1964.0 1105.3,1992.5 1062.9,2023.8 1019.2,2058.0 974.3,2095.5 928.1,2136.6 880.5,2181.6 831.4,2230.7 780.7,2284.4  A 1064.250,1064.250 0.00 0,0 993.6,2436.0 L 993.6,2436.0 1029.6,2371.6 1065.2,2312.0 1100.5,2256.8 1135.3,2205.7 1169.7,2158.4 1203.6,2114.6 1237.1,2073.9 1270.2,2036.2 1302.9,2001.2 1335.2,1968.7 1367.2,1938.3 1399.0,1910.0 1430.5,1883.4 1461.9,1858.6 1493.1,1835.2 1524.4,1813.1 1555.8,1792.2 1587.4,1772.5 1619.3,1753.7 1651.6,1735.8 1684.4,1718.8 1718.0,1702.5 1752.3,1687.0 1787.6,1672.2 1824.1,1658.1 1861.8,1644.8 1901.0,1632.1 1941.9,1620.3 1984.6,1609.3 2029.4,1599.2 2076.4,1590.1 2125.9,1582.1 2178.1,1575.3 2233.3,1569.8 2291.6,1565.8 2353.4,1563.4 2418.9,1562.9 2488.4,1564.3 2562.1,1568.0  Z" style="stroke-width: 2.0;  stroke: rgb(82,82,82); fill: rgb(0,255,0); opacity: 0.667;" />
<path d="M 2268.678,763.955 A 1064.250,1064.250 0.00 0,1 2272.0,767.5 L 2272.0,767.5 2218.1,817.5 2166.5,863.0 2117.1,904.3 2069.8,941.6 2024.6,975.3 1981.1,1005.6 1939.4,1032.7 1899.3,1056.7 1860.6,1078.1 1823.3,1096.8 1787.3,1113.0 1752.3,1127.0 1718.2,1138.8 1685.1,1148.6 1652.6,1156.4 1620.8,1162.3 1589.4,1166.4 1558.4,1168.7 1527.7,1169.3 1497.0,1168.1 1466.4,1165.3 1435.7,1160.6 1404.7,1154.2 1373.4,1145.9 1341.6,1135.8 1309.2,1123.6 1276.2,1109.3 1242.3,1092.7 1207.6,1073.8 1171.8,1052.4 1134.8,1028.3 1096.6,1001.2 1057.0,971.1 1015.9,937.7 973.3,900.8 929.0,860.0 882.8,815.1 834.7,765.9 784.6,712.0  A 1064.250,1064.250 0.00 0,0 781.1,715.3 L 781.1,715.3 831.4,769.0 879.7,818.0 926.0,862.6 970.6,903.2 1013.4,939.9 1054.6,973.2 1094.3,1003.1 1132.7,1029.9 1169.7,1053.9 1205.6,1075.2 1240.5,1093.9 1274.4,1110.3 1307.5,1124.4 1339.9,1136.5 1371.8,1146.5 1403.1,1154.7 1434.1,1160.9 1464.9,1165.4 1495.5,1168.2 1526.2,1169.2 1556.9,1168.4 1587.9,1166.0 1619.2,1161.7 1651.0,1155.7 1683.5,1147.7 1716.6,1137.8 1750.6,1125.9 1785.5,1111.7 1821.5,1095.3 1858.7,1076.4 1897.3,1054.9 1937.3,1030.7 1978.9,1003.4 2022.2,972.9 2067.3,939.0 2114.4,901.5 2163.6,859.9 2214.9,814.2 2268.7,764.0  Z" style="stroke-width: 2.0;  stroke: rgb(82,82,82); fill: rgb(53,128,0); opacity: 0.667;" />
</g>
<defs>
<pattern id="hline-sparse" width="10" height="10" patternTransform="rotate(0 0 0)" patternUnits="userSpaceOnUse"><line x1="0" y1="0" x2="10" y2="0" style="stroke:black;stroke-width:2" /></pattern>
<pattern id="checker" width="10" height="10" patternTransform="rotate(45 0 0)" patternUnits="userSpaceOnUse"><line x1="0" y1="0" x2="10" y2="0" style="stroke:black;stroke-width:2" /><line x1="0" y1="0" x2="0" y2="10" style="stroke:black;stroke-width:2" /></pattern>
<pattern id="checker" width="10" height="10" patternTransform="rotate(45 0 0)" patternUnits="userSpaceOnUse"><line x1="0" y1="0" x2="10" y2="0" style="stroke:black;stroke-width:5" /><line x1="0" y1="0" x2="0" y2="10" style="stroke:black;stroke-width:4" /></pattern>
<pattern id="hline" width="10" height="10" patternTransform="rotate(0 0 0)" patternUnits="userSpaceOnUse"><line x1="0" y1="0" x2="10" y2="0" style="stroke:black;stroke-width:5" /></pattern>
<pattern id="vline-sparse" width="10" height="10" patternTransform="rotate(0 0 0)" patternUnits="userSpaceOnUse"><line x1="0" y1="0" x2="0" y2="10" style="stroke:black;stroke-width:2" /></pattern>
<pattern id="vline" width="10" height="10" patternTransform="rotate(0 0 0)" patternUnits="userSpaceOnUse"><line x1="0" y1="0" x2="0" y2="10" style="stroke:black;stroke-width:5" /></pattern>
</defs>
</svg>
