<?xml version="1.0" encoding="utf-8" standalone="no"?>
<!DOCTYPE svg PUBLIC "-//W3C//DTD SVG 1.1//EN" "http://www.w3.org/Graphics/SVG/1.1/DTD/svg11.dtd">
<svg width="3000px" height="3000px" version="1.1" xmlns="http://www.w3.org/2000/svg" xmlns:xlink="http://www.w3.org/1999/xlink">
<g id="ideograms">
<path d="M1500.000,425.000 A1075.000,1075.000 40.000 0,1 1805.758,469.400 L1819.979,421.465 A1125.000,1125.000 0.000 0,0 1500.000,375.000 Z" style="stroke-linecap:round;fill:rgb(116,196,118);fill-opacity:0.33;" />
<text x="1684.0" y="299.0" font-size="18.2px" font-family="CMUBright-Roman" style="text-anchor:start;fill:rgb(0,0,0);" transform="rotate(278.3,1684.0,299.0)" >R<tspan baseline-shift="-40%" font-size="90%">s</tspan>caffold<tspan baseline-shift="-40%" font-size="90%">7</tspan></text>
<line x1='1500.0' y1='375.0' x2='1500.0' y2='355.0' style="stroke-width:4.0;stroke:rgb(0,0,0);stroke-linecap:round;fill:none;" />
<text x="1506.5" y="345.0" font-size="18.2px" font-family="CMUBright-Roman" style="text-anchor:start;fill:rgb(0,0,0);" transform="rotate(270.0,1506.5,345.0)" >0</text>
<line x1='1569.5' y1='377.2' x2='1570.8' y2='357.2' style="stroke-width:4.0;stroke:rgb(0,0,0);stroke-linecap:round;fill:none;" />
<text x="1577.9" y="347.6" font-size="18.2px" font-family="CMUBright-Roman" style="text-anchor:start;fill:rgb(0,0,0);" transform="rotate(273.5,1577.9,347.6)" >50</text>
<line x1='1638.8' y1='383.6' x2='1641.3' y2='363.8' style="stroke-width:4.0;stroke:rgb(0,0,0);stroke-linecap:round;fill:none;" />
<text x="1649.0" y="354.6" font-size="18.2px" font-family="CMUBright-Roman" style="text-anchor:start;fill:rgb(0,0,0);" transform="rotate(277.1,1649.0,354.6)" >100</text>
<line x1='1707.6' y1='394.3' x2='1711.3' y2='374.7' style="stroke-width:4.0;stroke:rgb(0,0,0);stroke-linecap:round;fill:none;" />
<text x="1719.5" y="366.0" font-size="18.2px" font-family="CMUBright-Roman" style="text-anchor:start;fill:rgb(0,0,0);" transform="rotate(280.6,1719.5,366.0)" >150</text>
<line x1='1775.5' y1='409.3' x2='1780.4' y2='389.9' style="stroke-width:4.0;stroke:rgb(0,0,0);stroke-linecap:round;fill:none;" />
<text x="1789.2" y="381.8" font-size="18.2px" font-family="CMUBright-Roman" style="text-anchor:start;fill:rgb(0,0,0);" transform="rotate(284.2,1789.2,381.8)" >200</text>
<g id="highlighttrack_0">
<path d="M1776.974,461.294 A1075.000,1075.000 40.000 0,1 1783.855,463.153 L1797.057,414.928 A1125.000,1125.000 0.000 0,0 1789.857,412.982 Z" style="stroke-width:4.0;stroke:rgb(0,0,0);stroke-linecap:round;fill:rgb(116,196,118);" />
<path d="M1766.443,458.543 A1075.000,1075.000 40.000 0,1 1770.407,459.565 L1782.984,411.173 A1125.000,1125.000 0.000 0,0 1778.836,410.103 Z" style="stroke-width:4.0;stroke:rgb(0,0,0);stroke-linecap:round;fill:rgb(116,196,118);" />
</g>
<path d="M1866.274,489.323 A1075.000,1075.000 40.000 0,1 2055.948,579.920 L2081.806,537.126 A1125.000,1125.000 0.000 0,0 1883.310,442.315 Z" style="stroke-linecap:round;fill:rgb(116,196,118);fill-opacity:0.33;" />
<text x="2032.2" y="407.8" font-size="18.2px" font-family="CMUBright-Roman" style="text-anchor:start;fill:rgb(0,0,0);" transform="rotate(295.5,2032.2,407.8)" >R<tspan baseline-shift="-40%" font-size="90%">s</tspan>caffold<tspan baseline-shift="-40%" font-size="90%">1</tspan>2</text>
<line x1='1883.3' y1='442.3' x2='1890.1' y2='423.5' style="stroke-width:4.0;stroke:rgb(0,0,0);stroke-linecap:round;fill:none;" />
<text x="1899.6" y="416.3" font-size="18.2px" font-family="CMUBright-Roman" style="text-anchor:start;fill:rgb(0,0,0);" transform="rotate(289.9,1899.6,416.3)" >0</text>
<line x1='1948.0' y1='468.0' x2='1955.9' y2='449.7' style="stroke-width:4.0;stroke:rgb(0,0,0);stroke-linecap:round;fill:none;" />
<text x="1965.9" y="443.1" font-size="18.2px" font-family="CMUBright-Roman" style="text-anchor:start;fill:rgb(0,0,0);" transform="rotate(293.5,1965.9,443.1)" >50</text>
<line x1='2010.9' y1='497.7' x2='2020.0' y2='479.9' style="stroke-width:4.0;stroke:rgb(0,0,0);stroke-linecap:round;fill:none;" />
<text x="2030.3" y="473.9" font-size="18.2px" font-family="CMUBright-Roman" style="text-anchor:start;fill:rgb(0,0,0);" transform="rotate(297.0,2030.3,473.9)" >100</text>
<line x1='2071.9' y1='531.2' x2='2082.1' y2='514.0' style="stroke-width:4.0;stroke:rgb(0,0,0);stroke-linecap:round;fill:none;" />
<text x="2092.7" y="508.7" font-size="18.2px" font-family="CMUBright-Roman" style="text-anchor:start;fill:rgb(0,0,0);" transform="rotate(300.6,2092.7,508.7)" >150</text>
<g id="highlighttrack_0">
<path d="M2052.065,577.585 A1075.000,1075.000 40.000 0,1 2055.045,579.375 L2080.861,536.555 A1125.000,1125.000 0.000 0,0 2077.742,534.682 Z" style="stroke-width:4.0;stroke:rgb(0,0,0);stroke-linecap:round;fill:rgb(116,196,118);" />
</g>
<path d="M2109.478,614.471 A1075.000,1075.000 40.000 0,1 2138.746,635.345 L2168.455,595.128 A1125.000,1125.000 0.000 0,0 2137.825,573.283 Z" style="stroke-linecap:round;fill:rgb(116,196,118);fill-opacity:0.33;" />
<text x="2213.2" y="516.4" font-size="18.2px" font-family="CMUBright-Roman" style="text-anchor:start;fill:rgb(0,0,0);" transform="rotate(305.5,2213.2,516.4)" >R<tspan baseline-shift="-40%" font-size="90%">s</tspan>caffold<tspan baseline-shift="-40%" font-size="90%">2</tspan>6</text>
<line x1='2137.8' y1='573.3' x2='2149.2' y2='556.8' style="stroke-width:4.0;stroke:rgb(0,0,0);stroke-linecap:round;fill:none;" />
<text x="2160.2" y="552.3" font-size="18.2px" font-family="CMUBright-Roman" style="text-anchor:start;fill:rgb(0,0,0);" transform="rotate(304.5,2160.2,552.3)" >0</text>
<g id="highlighttrack_0">
<path d="M2115.973,618.977 A1075.000,1075.000 40.000 0,1 2121.807,623.084 L2150.728,582.298 A1125.000,1125.000 0.000 0,0 2144.623,577.999 Z" style="stroke-width:4.0;stroke:rgb(0,0,0);stroke-linecap:round;fill:rgb(116,196,118);" />
</g>
<path d="M2188.847,674.703 A1075.000,1075.000 40.000 0,1 2214.738,697.022 L2247.982,659.674 A1125.000,1125.000 0.000 0,0 2220.887,636.317 Z" style="stroke-linecap:round;fill:rgb(116,196,118);fill-opacity:0.33;" />
<text x="2300.5" y="585.9" font-size="18.2px" font-family="CMUBright-Roman" style="text-anchor:start;fill:rgb(0,0,0);" transform="rotate(310.8,2300.5,585.9)" >R<tspan baseline-shift="-40%" font-size="90%">s</tspan>caffold<tspan baseline-shift="-40%" font-size="90%">2</tspan>7</text>
<line x1='2220.9' y1='636.3' x2='2233.7' y2='621.0' style="stroke-width:4.0;stroke:rgb(0,0,0);stroke-linecap:round;fill:none;" />
<text x="2245.1" y="617.5" font-size="18.2px" font-family="CMUBright-Roman" style="text-anchor:start;fill:rgb(0,0,0);" transform="rotate(309.9,2245.1,617.5)" >0</text>
<g id="highlighttrack_0">
<path d="M2207.373,690.526 A1075.000,1075.000 40.000 0,1 2213.399,695.832 L2246.580,658.428 A1125.000,1125.000 0.000 0,0 2240.274,652.876 Z" style="stroke-width:4.0;stroke:rgb(0,0,0);stroke-linecap:round;fill:rgb(116,196,118);" />
</g>
<path d="M2261.052,740.773 A1075.000,1075.000 40.000 0,1 2264.368,744.112 L2299.920,708.954 A1125.000,1125.000 0.000 0,0 2296.450,705.460 Z" style="stroke-linecap:round;fill:rgb(116,196,118);fill-opacity:0.33;" />
<text x="2368.7" y="650.5" font-size="18.2px" font-family="CMUBright-Roman" style="text-anchor:start;fill:rgb(0,0,0);" transform="rotate(315.2,2368.7,650.5)" >R<tspan baseline-shift="-40%" font-size="90%">s</tspan>caffold<tspan baseline-shift="-40%" font-size="90%">3</tspan>4</text>
<line x1='2296.4' y1='705.5' x2='2310.6' y2='691.3' style="stroke-width:4.0;stroke:rgb(0,0,0);stroke-linecap:round;fill:none;" />
<text x="2322.3" y="688.9" font-size="18.2px" font-family="CMUBright-Roman" style="text-anchor:start;fill:rgb(0,0,0);" transform="rotate(315.1,2322.3,688.9)" >0</text>
<g id="highlighttrack_0">
<path d="M2261.098,740.819 A1075.000,1075.000 40.000 0,1 2263.783,743.521 L2299.308,708.336 A1125.000,1125.000 0.000 0,0 2296.498,705.509 Z" style="stroke-width:4.0;stroke:rgb(0,0,0);stroke-linecap:round;fill:rgb(251,106,74);" />
</g>
<path d="M2307.805,790.721 A1075.000,1075.000 40.000 1,1 1436.316,426.888 L1433.354,376.976 A1125.000,1125.000 0.000 1,0 2345.377,757.731 Z" style="stroke-linecap:round;fill:rgb(116,196,118);fill-opacity:0.33;" />
<text x="1040.7" y="2624.8" font-size="18.2px" font-family="CMUBright-Roman" style="text-anchor:end;fill:rgb(0,0,0);" transform="rotate(-67.3,1040.7,2624.8)" >NZ<tspan baseline-shift="-40%" font-size="90%">C</tspan>P041153.1</text>
<line x1='2345.4' y1='757.7' x2='2360.4' y2='744.5' style="stroke-width:4.0;stroke:rgb(0,0,0);stroke-linecap:round;fill:none;" />
<text x="2372.2" y="742.8" font-size="18.2px" font-family="CMUBright-Roman" style="text-anchor:start;fill:rgb(0,0,0);" transform="rotate(318.7,2372.2,742.8)" >0</text>
<line x1='2389.6' y1='811.4' x2='2405.5' y2='799.2' style="stroke-width:4.0;stroke:rgb(0,0,0);stroke-linecap:round;fill:none;" />
<text x="2417.3" y="798.2" font-size="18.2px" font-family="CMUBright-Roman" style="text-anchor:start;fill:rgb(0,0,0);" transform="rotate(322.3,2417.3,798.2)" >50</text>
<line x1='2430.5' y1='867.7' x2='2447.1' y2='856.5' style="stroke-width:4.0;stroke:rgb(0,0,0);stroke-linecap:round;fill:none;" />
<text x="2459.0" y="856.3" font-size="18.2px" font-family="CMUBright-Roman" style="text-anchor:start;fill:rgb(0,0,0);" transform="rotate(325.8,2459.0,856.3)" >100</text>
<line x1='2467.8' y1='926.5' x2='2485.0' y2='916.3' style="stroke-width:4.0;stroke:rgb(0,0,0);stroke-linecap:round;fill:none;" />
<text x="2496.9" y="916.8" font-size="18.2px" font-family="CMUBright-Roman" style="text-anchor:start;fill:rgb(0,0,0);" transform="rotate(329.3,2496.9,916.8)" >150</text>
<line x1='2501.4' y1='987.4' x2='2519.2' y2='978.3' style="stroke-width:4.0;stroke:rgb(0,0,0);stroke-linecap:round;fill:none;" />
<text x="2531.1" y="979.5" font-size="18.2px" font-family="CMUBright-Roman" style="text-anchor:start;fill:rgb(0,0,0);" transform="rotate(332.9,2531.1,979.5)" >200</text>
<line x1='2531.2' y1='1050.3' x2='2549.5' y2='1042.3' style="stroke-width:4.0;stroke:rgb(0,0,0);stroke-linecap:round;fill:none;" />
<text x="2561.3" y="1044.2" font-size="18.2px" font-family="CMUBright-Roman" style="text-anchor:start;fill:rgb(0,0,0);" transform="rotate(336.4,2561.3,1044.2)" >250</text>
<line x1='2557.0' y1='1114.9' x2='2575.8' y2='1108.0' style="stroke-width:4.0;stroke:rgb(0,0,0);stroke-linecap:round;fill:none;" />
<text x="2587.4" y="1110.7" font-size="18.2px" font-family="CMUBright-Roman" style="text-anchor:start;fill:rgb(0,0,0);" transform="rotate(340.0,2587.4,1110.7)" >300</text>
<line x1='2578.8' y1='1181.0' x2='2598.0' y2='1175.3' style="stroke-width:4.0;stroke:rgb(0,0,0);stroke-linecap:round;fill:none;" />
<text x="2609.4" y="1178.7" font-size="18.2px" font-family="CMUBright-Roman" style="text-anchor:start;fill:rgb(0,0,0);" transform="rotate(343.5,2609.4,1178.7)" >350</text>
<line x1='2596.5' y1='1248.3' x2='2616.0' y2='1243.8' style="stroke-width:4.0;stroke:rgb(0,0,0);stroke-linecap:round;fill:none;" />
<text x="2627.1" y="1247.9" font-size="18.2px" font-family="CMUBright-Roman" style="text-anchor:start;fill:rgb(0,0,0);" transform="rotate(347.1,2627.1,1247.9)" >400</text>
<line x1='2609.9' y1='1316.5' x2='2629.7' y2='1313.3' style="stroke-width:4.0;stroke:rgb(0,0,0);stroke-linecap:round;fill:none;" />
<text x="2640.6" y="1318.1" font-size="18.2px" font-family="CMUBright-Roman" style="text-anchor:start;fill:rgb(0,0,0);" transform="rotate(350.6,2640.6,1318.1)" >450</text>
<line x1='2619.2' y1='1385.5' x2='2639.1' y2='1383.5' style="stroke-width:4.0;stroke:rgb(0,0,0);stroke-linecap:round;fill:none;" />
<text x="2649.6" y="1388.9" font-size="18.2px" font-family="CMUBright-Roman" style="text-anchor:start;fill:rgb(0,0,0);" transform="rotate(354.2,2649.6,1388.9)" >500</text>
<line x1='2624.1' y1='1454.9' x2='2644.1' y2='1454.1' style="stroke-width:4.0;stroke:rgb(0,0,0);stroke-linecap:round;fill:none;" />
<text x="2654.3" y="1460.2" font-size="18.2px" font-family="CMUBright-Roman" style="text-anchor:start;fill:rgb(0,0,0);" transform="rotate(357.7,2654.3,1460.2)" >550</text>
<line x1='2624.7' y1='1524.5' x2='2644.7' y2='1524.9' style="stroke-width:4.0;stroke:rgb(0,0,0);stroke-linecap:round;fill:none;" />
<text x="2654.6" y="1531.6" font-size="18.2px" font-family="CMUBright-Roman" style="text-anchor:start;fill:rgb(0,0,0);" transform="rotate(1.2,2654.6,1531.6)" >600</text>
<line x1='2621.1' y1='1594.0' x2='2641.0' y2='1595.6' style="stroke-width:4.0;stroke:rgb(0,0,0);stroke-linecap:round;fill:none;" />
<text x="2650.4" y="1602.9" font-size="18.2px" font-family="CMUBright-Roman" style="text-anchor:start;fill:rgb(0,0,0);" transform="rotate(4.8,2650.4,1602.9)" >650</text>
<line x1='2613.1' y1='1663.1' x2='2632.9' y2='1666.0' style="stroke-width:4.0;stroke:rgb(0,0,0);stroke-linecap:round;fill:none;" />
<text x="2641.8" y="1673.9" font-size="18.2px" font-family="CMUBright-Roman" style="text-anchor:start;fill:rgb(0,0,0);" transform="rotate(8.3,2641.8,1673.9)" >700</text>
<line x1='2600.9' y1='1731.6' x2='2620.5' y2='1735.7' style="stroke-width:4.0;stroke:rgb(0,0,0);stroke-linecap:round;fill:none;" />
<text x="2628.9" y="1744.1" font-size="18.2px" font-family="CMUBright-Roman" style="text-anchor:start;fill:rgb(0,0,0);" transform="rotate(11.9,2628.9,1744.1)" >750</text>
<line x1='2584.5' y1='1799.2' x2='2603.8' y2='1804.5' style="stroke-width:4.0;stroke:rgb(0,0,0);stroke-linecap:round;fill:none;" />
<text x="2611.7" y="1813.4" font-size="18.2px" font-family="CMUBright-Roman" style="text-anchor:start;fill:rgb(0,0,0);" transform="rotate(15.4,2611.7,1813.4)" >800</text>
<line x1='2563.9' y1='1865.7' x2='2582.8' y2='1872.2' style="stroke-width:4.0;stroke:rgb(0,0,0);stroke-linecap:round;fill:none;" />
<text x="2590.2" y="1881.6" font-size="18.2px" font-family="CMUBright-Roman" style="text-anchor:start;fill:rgb(0,0,0);" transform="rotate(19.0,2590.2,1881.6)" >850</text>
<line x1='2539.3' y1='1930.7' x2='2557.7' y2='1938.4' style="stroke-width:4.0;stroke:rgb(0,0,0);stroke-linecap:round;fill:none;" />
<text x="2564.5" y="1948.2" font-size="18.2px" font-family="CMUBright-Roman" style="text-anchor:start;fill:rgb(0,0,0);" transform="rotate(22.5,2564.5,1948.2)" >900</text>
<line x1='2510.7' y1='1994.2' x2='2528.6' y2='2002.9' style="stroke-width:4.0;stroke:rgb(0,0,0);stroke-linecap:round;fill:none;" />
<text x="2534.7" y="2013.2" font-size="18.2px" font-family="CMUBright-Roman" style="text-anchor:start;fill:rgb(0,0,0);" transform="rotate(26.1,2534.7,2013.2)" >950</text>
<line x1='2478.2' y1='2055.7' x2='2495.6' y2='2065.6' style="stroke-width:4.0;stroke:rgb(0,0,0);stroke-linecap:round;fill:none;" />
<text x="2501.0" y="2076.2" font-size="18.2px" font-family="CMUBright-Roman" style="text-anchor:start;fill:rgb(0,0,0);" transform="rotate(29.6,2501.0,2076.2)" >1000</text>
<line x1='2442.0' y1='2115.1' x2='2458.7' y2='2126.0' style="stroke-width:4.0;stroke:rgb(0,0,0);stroke-linecap:round;fill:none;" />
<text x="2463.5" y="2136.9" font-size="18.2px" font-family="CMUBright-Roman" style="text-anchor:start;fill:rgb(0,0,0);" transform="rotate(33.1,2463.5,2136.9)" >1050</text>
<line x1='2402.1' y1='2172.2' x2='2418.2' y2='2184.1' style="stroke-width:4.0;stroke:rgb(0,0,0);stroke-linecap:round;fill:none;" />
<text x="2422.3" y="2195.3" font-size="18.2px" font-family="CMUBright-Roman" style="text-anchor:start;fill:rgb(0,0,0);" transform="rotate(36.7,2422.3,2195.3)" >1100</text>
<line x1='2358.8' y1='2226.6' x2='2374.1' y2='2239.6' style="stroke-width:4.0;stroke:rgb(0,0,0);stroke-linecap:round;fill:none;" />
<text x="2377.5" y="2251.0" font-size="18.2px" font-family="CMUBright-Roman" style="text-anchor:start;fill:rgb(0,0,0);" transform="rotate(40.2,2377.5,2251.0)" >1150</text>
<line x1='2312.3' y1='2278.3' x2='2326.7' y2='2292.2' style="stroke-width:4.0;stroke:rgb(0,0,0);stroke-linecap:round;fill:none;" />
<text x="2329.4" y="2303.8" font-size="18.2px" font-family="CMUBright-Roman" style="text-anchor:start;fill:rgb(0,0,0);" transform="rotate(43.8,2329.4,2303.8)" >1200</text>
<line x1='2262.6' y1='2327.1' x2='2276.2' y2='2341.8' style="stroke-width:4.0;stroke:rgb(0,0,0);stroke-linecap:round;fill:none;" />
<text x="2278.2" y="2353.5" font-size="18.2px" font-family="CMUBright-Roman" style="text-anchor:start;fill:rgb(0,0,0);" transform="rotate(47.3,2278.2,2353.5)" >1250</text>
<line x1='2210.0' y1='2372.6' x2='2222.6' y2='2388.1' style="stroke-width:4.0;stroke:rgb(0,0,0);stroke-linecap:round;fill:none;" />
<text x="2223.9" y="2400.0" font-size="18.2px" font-family="CMUBright-Roman" style="text-anchor:start;fill:rgb(0,0,0);" transform="rotate(50.9,2223.9,2400.0)" >1300</text>
<line x1='2154.7' y1='2414.9' x2='2166.4' y2='2431.1' style="stroke-width:4.0;stroke:rgb(0,0,0);stroke-linecap:round;fill:none;" />
<text x="2166.9" y="2443.0" font-size="18.2px" font-family="CMUBright-Roman" style="text-anchor:start;fill:rgb(0,0,0);" transform="rotate(54.4,2166.9,2443.0)" >1350</text>
<line x1='2096.9' y1='2453.6' x2='2107.5' y2='2470.5' style="stroke-width:4.0;stroke:rgb(0,0,0);stroke-linecap:round;fill:none;" />
<text x="2107.3" y="2482.4" font-size="18.2px" font-family="CMUBright-Roman" style="text-anchor:start;fill:rgb(0,0,0);" transform="rotate(58.0,2107.3,2482.4)" >1400</text>
<line x1='2036.8' y1='2488.7' x2='2046.4' y2='2506.2' style="stroke-width:4.0;stroke:rgb(0,0,0);stroke-linecap:round;fill:none;" />
<text x="2045.4" y="2518.1" font-size="18.2px" font-family="CMUBright-Roman" style="text-anchor:start;fill:rgb(0,0,0);" transform="rotate(61.5,2045.4,2518.1)" >1450</text>
<line x1='1974.7' y1='2520.0' x2='1983.1' y2='2538.1' style="stroke-width:4.0;stroke:rgb(0,0,0);stroke-linecap:round;fill:none;" />
<text x="1981.4" y="2549.9" font-size="18.2px" font-family="CMUBright-Roman" style="text-anchor:start;fill:rgb(0,0,0);" transform="rotate(65.0,1981.4,2549.9)" >1500</text>
<line x1='1910.7' y1='2547.3' x2='1918.0' y2='2566.0' style="stroke-width:4.0;stroke:rgb(0,0,0);stroke-linecap:round;fill:none;" />
<text x="1915.6" y="2577.6" font-size="18.2px" font-family="CMUBright-Roman" style="text-anchor:start;fill:rgb(0,0,0);" transform="rotate(68.6,1915.6,2577.6)" >1550</text>
<line x1='1845.2' y1='2570.7' x2='1851.3' y2='2589.8' style="stroke-width:4.0;stroke:rgb(0,0,0);stroke-linecap:round;fill:none;" />
<text x="1848.2" y="2601.3" font-size="18.2px" font-family="CMUBright-Roman" style="text-anchor:start;fill:rgb(0,0,0);" transform="rotate(72.1,1848.2,2601.3)" >1600</text>
<line x1='1778.3' y1='2590.0' x2='1783.3' y2='2609.4' style="stroke-width:4.0;stroke:rgb(0,0,0);stroke-linecap:round;fill:none;" />
<text x="1779.5" y="2620.7" font-size="18.2px" font-family="CMUBright-Roman" style="text-anchor:start;fill:rgb(0,0,0);" transform="rotate(75.7,1779.5,2620.7)" >1650</text>
<line x1='1710.4' y1='2605.1' x2='1714.2' y2='2624.8' style="stroke-width:4.0;stroke:rgb(0,0,0);stroke-linecap:round;fill:none;" />
<text x="1709.6" y="2635.8" font-size="18.2px" font-family="CMUBright-Roman" style="text-anchor:start;fill:rgb(0,0,0);" transform="rotate(79.2,1709.6,2635.8)" >1700</text>
<line x1='1641.7' y1='2616.0' x2='1644.2' y2='2635.9' style="stroke-width:4.0;stroke:rgb(0,0,0);stroke-linecap:round;fill:none;" />
<text x="1639.0" y="2646.6" font-size="18.2px" font-family="CMUBright-Roman" style="text-anchor:start;fill:rgb(0,0,0);" transform="rotate(82.8,1639.0,2646.6)" >1750</text>
<line x1='1572.4' y1='2622.7' x2='1573.7' y2='2642.6' style="stroke-width:4.0;stroke:rgb(0,0,0);stroke-linecap:round;fill:none;" />
<text x="1567.9" y="2653.0" font-size="18.2px" font-family="CMUBright-Roman" style="text-anchor:start;fill:rgb(0,0,0);" transform="rotate(86.3,1567.9,2653.0)" >1800</text>
<line x1='1502.9' y1='2625.0' x2='1502.9' y2='2645.0' style="stroke-width:4.0;stroke:rgb(0,0,0);stroke-linecap:round;fill:none;" />
<text x="1496.5" y="2655.0" font-size="18.2px" font-family="CMUBright-Roman" style="text-anchor:start;fill:rgb(0,0,0);" transform="rotate(89.9,1496.5,2655.0)" >1850</text>
<line x1='1433.3' y1='2623.0' x2='1432.2' y2='2643.0' style="stroke-width:4.0;stroke:rgb(0,0,0);stroke-linecap:round;fill:none;" />
<text x="1438.0" y="2653.3" font-size="18.2px" font-family="CMUBright-Roman" style="text-anchor:end;fill:rgb(0,0,0);" transform="rotate(-86.6,1438.0,2653.3)" >1900</text>
<line x1='1364.0' y1='2616.8' x2='1361.6' y2='2636.6' style="stroke-width:4.0;stroke:rgb(0,0,0);stroke-linecap:round;fill:none;" />
<text x="1366.9" y="2647.3" font-size="18.2px" font-family="CMUBright-Roman" style="text-anchor:end;fill:rgb(0,0,0);" transform="rotate(-83.1,1366.9,2647.3)" >1950</text>
<line x1='1295.3' y1='2606.2' x2='1291.6' y2='2625.9' style="stroke-width:4.0;stroke:rgb(0,0,0);stroke-linecap:round;fill:none;" />
<text x="1296.2" y="2636.9" font-size="18.2px" font-family="CMUBright-Roman" style="text-anchor:end;fill:rgb(0,0,0);" transform="rotate(-79.5,1296.2,2636.9)" >2000</text>
<line x1='1227.3' y1='2591.4' x2='1222.4' y2='2610.8' style="stroke-width:4.0;stroke:rgb(0,0,0);stroke-linecap:round;fill:none;" />
<text x="1226.3" y="2622.1" font-size="18.2px" font-family="CMUBright-Roman" style="text-anchor:end;fill:rgb(0,0,0);" transform="rotate(-76.0,1226.3,2622.1)" >2050</text>
<line x1='1160.3' y1='2572.5' x2='1154.3' y2='2591.6' style="stroke-width:4.0;stroke:rgb(0,0,0);stroke-linecap:round;fill:none;" />
<text x="1157.5" y="2603.0" font-size="18.2px" font-family="CMUBright-Roman" style="text-anchor:end;fill:rgb(0,0,0);" transform="rotate(-72.4,1157.5,2603.0)" >2100</text>
<line x1='1094.7' y1='2549.4' x2='1087.5' y2='2568.1' style="stroke-width:4.0;stroke:rgb(0,0,0);stroke-linecap:round;fill:none;" />
<text x="1089.9" y="2579.8" font-size="18.2px" font-family="CMUBright-Roman" style="text-anchor:end;fill:rgb(0,0,0);" transform="rotate(-68.9,1089.9,2579.8)" >2150</text>
<line x1='1030.6' y1='2522.4' x2='1022.2' y2='2540.6' style="stroke-width:4.0;stroke:rgb(0,0,0);stroke-linecap:round;fill:none;" />
<text x="1024.0" y="2552.3" font-size="18.2px" font-family="CMUBright-Roman" style="text-anchor:end;fill:rgb(0,0,0);" transform="rotate(-65.3,1024.0,2552.3)" >2200</text>
<line x1='968.3' y1='2491.4' x2='958.8' y2='2509.0' style="stroke-width:4.0;stroke:rgb(0,0,0);stroke-linecap:round;fill:none;" />
<text x="959.8" y="2520.9" font-size="18.2px" font-family="CMUBright-Roman" style="text-anchor:end;fill:rgb(0,0,0);" transform="rotate(-61.8,959.8,2520.9)" >2250</text>
<line x1='908.0' y1='2456.6' x2='897.5' y2='2473.6' style="stroke-width:4.0;stroke:rgb(0,0,0);stroke-linecap:round;fill:none;" />
<text x="897.7" y="2485.6" font-size="18.2px" font-family="CMUBright-Roman" style="text-anchor:end;fill:rgb(0,0,0);" transform="rotate(-58.2,897.7,2485.6)" >2300</text>
<line x1='850.0' y1='2418.2' x2='838.4' y2='2434.5' style="stroke-width:4.0;stroke:rgb(0,0,0);stroke-linecap:round;fill:none;" />
<text x="838.0" y="2446.4" font-size="18.2px" font-family="CMUBright-Roman" style="text-anchor:end;fill:rgb(0,0,0);" transform="rotate(-54.7,838.0,2446.4)" >2350</text>
<line x1='794.5' y1='2376.3' x2='781.9' y2='2391.8' style="stroke-width:4.0;stroke:rgb(0,0,0);stroke-linecap:round;fill:none;" />
<text x="780.7" y="2403.7" font-size="18.2px" font-family="CMUBright-Roman" style="text-anchor:end;fill:rgb(0,0,0);" transform="rotate(-51.2,780.7,2403.7)" >2400</text>
<line x1='741.6' y1='2331.0' x2='728.2' y2='2345.7' style="stroke-width:4.0;stroke:rgb(0,0,0);stroke-linecap:round;fill:none;" />
<text x="726.2" y="2357.5" font-size="18.2px" font-family="CMUBright-Roman" style="text-anchor:end;fill:rgb(0,0,0);" transform="rotate(-47.6,726.2,2357.5)" >2450</text>
<line x1='691.7' y1='2282.5' x2='677.4' y2='2296.4' style="stroke-width:4.0;stroke:rgb(0,0,0);stroke-linecap:round;fill:none;" />
<text x="674.7" y="2308.0" font-size="18.2px" font-family="CMUBright-Roman" style="text-anchor:end;fill:rgb(0,0,0);" transform="rotate(-44.1,674.7,2308.0)" >2500</text>
<line x1='644.9' y1='2231.0' x2='629.7' y2='2244.0' style="stroke-width:4.0;stroke:rgb(0,0,0);stroke-linecap:round;fill:none;" />
<text x="626.3" y="2255.5" font-size="18.2px" font-family="CMUBright-Roman" style="text-anchor:end;fill:rgb(0,0,0);" transform="rotate(-40.5,626.3,2255.5)" >2550</text>
<line x1='601.3' y1='2176.8' x2='585.4' y2='2188.8' style="stroke-width:4.0;stroke:rgb(0,0,0);stroke-linecap:round;fill:none;" />
<text x="581.3" y="2200.0" font-size="18.2px" font-family="CMUBright-Roman" style="text-anchor:end;fill:rgb(0,0,0);" transform="rotate(-37.0,581.3,2200.0)" >2600</text>
<line x1='561.2' y1='2119.9' x2='544.5' y2='2131.0' style="stroke-width:4.0;stroke:rgb(0,0,0);stroke-linecap:round;fill:none;" />
<text x="539.8" y="2141.9" font-size="18.2px" font-family="CMUBright-Roman" style="text-anchor:end;fill:rgb(0,0,0);" transform="rotate(-33.4,539.8,2141.9)" >2650</text>
<line x1='524.7' y1='2060.7' x2='507.4' y2='2070.7' style="stroke-width:4.0;stroke:rgb(0,0,0);stroke-linecap:round;fill:none;" />
<text x="501.9" y="2081.3" font-size="18.2px" font-family="CMUBright-Roman" style="text-anchor:end;fill:rgb(0,0,0);" transform="rotate(-29.9,501.9,2081.3)" >2700</text>
<line x1='491.9' y1='1999.3' x2='474.0' y2='2008.2' style="stroke-width:4.0;stroke:rgb(0,0,0);stroke-linecap:round;fill:none;" />
<text x="467.9" y="2018.5" font-size="18.2px" font-family="CMUBright-Roman" style="text-anchor:end;fill:rgb(0,0,0);" transform="rotate(-26.4,467.9,2018.5)" >2750</text>
<line x1='463.0' y1='1936.1' x2='444.5' y2='1943.8' style="stroke-width:4.0;stroke:rgb(0,0,0);stroke-linecap:round;fill:none;" />
<text x="437.8" y="1953.7" font-size="18.2px" font-family="CMUBright-Roman" style="text-anchor:end;fill:rgb(0,0,0);" transform="rotate(-22.8,437.8,1953.7)" >2800</text>
<line x1='438.0' y1='1871.1' x2='419.1' y2='1877.7' style="stroke-width:4.0;stroke:rgb(0,0,0);stroke-linecap:round;fill:none;" />
<text x="411.8" y="1887.2" font-size="18.2px" font-family="CMUBright-Roman" style="text-anchor:end;fill:rgb(0,0,0);" transform="rotate(-19.3,411.8,1887.2)" >2850</text>
<line x1='417.1' y1='1804.8' x2='397.8' y2='1810.2' style="stroke-width:4.0;stroke:rgb(0,0,0);stroke-linecap:round;fill:none;" />
<text x="390.0" y="1819.1" font-size="18.2px" font-family="CMUBright-Roman" style="text-anchor:end;fill:rgb(0,0,0);" transform="rotate(-15.7,390.0,1819.1)" >2900</text>
<line x1='400.3' y1='1737.2' x2='380.7' y2='1741.5' style="stroke-width:4.0;stroke:rgb(0,0,0);stroke-linecap:round;fill:none;" />
<text x="372.4" y="1749.9" font-size="18.2px" font-family="CMUBright-Roman" style="text-anchor:end;fill:rgb(0,0,0);" transform="rotate(-12.2,372.4,1749.9)" >2950</text>
<line x1='387.7' y1='1668.8' x2='368.0' y2='1671.8' style="stroke-width:4.0;stroke:rgb(0,0,0);stroke-linecap:round;fill:none;" />
<text x="359.1" y="1679.7" font-size="18.2px" font-family="CMUBright-Roman" style="text-anchor:end;fill:rgb(0,0,0);" transform="rotate(-8.6,359.1,1679.7)" >3000</text>
<line x1='379.4' y1='1599.7' x2='359.5' y2='1601.5' style="stroke-width:4.0;stroke:rgb(0,0,0);stroke-linecap:round;fill:none;" />
<text x="350.1" y="1608.8" font-size="18.2px" font-family="CMUBright-Roman" style="text-anchor:end;fill:rgb(0,0,0);" transform="rotate(-5.1,350.1,1608.8)" >3050</text>
<line x1='375.4' y1='1530.3' x2='355.4' y2='1530.8' style="stroke-width:4.0;stroke:rgb(0,0,0);stroke-linecap:round;fill:none;" />
<text x="345.6" y="1537.6" font-size="18.2px" font-family="CMUBright-Roman" style="text-anchor:end;fill:rgb(0,0,0);" transform="rotate(-1.5,345.6,1537.6)" >3100</text>
<line x1='375.7' y1='1460.7' x2='355.7' y2='1460.0' style="stroke-width:4.0;stroke:rgb(0,0,0);stroke-linecap:round;fill:none;" />
<text x="345.5" y="1466.1" font-size="18.2px" font-family="CMUBright-Roman" style="text-anchor:end;fill:rgb(0,0,0);" transform="rotate(2.0,345.5,1466.1)" >3150</text>
<line x1='380.3' y1='1391.2' x2='360.4' y2='1389.3' style="stroke-width:4.0;stroke:rgb(0,0,0);stroke-linecap:round;fill:none;" />
<text x="349.8" y="1394.8" font-size="18.2px" font-family="CMUBright-Roman" style="text-anchor:end;fill:rgb(0,0,0);" transform="rotate(5.5,349.8,1394.8)" >3200</text>
<line x1='389.1' y1='1322.2' x2='369.4' y2='1319.1' style="stroke-width:4.0;stroke:rgb(0,0,0);stroke-linecap:round;fill:none;" />
<text x="358.5" y="1323.9" font-size="18.2px" font-family="CMUBright-Roman" style="text-anchor:end;fill:rgb(0,0,0);" transform="rotate(9.1,358.5,1323.9)" >3250</text>
<line x1='402.2' y1='1253.9' x2='382.7' y2='1249.5' style="stroke-width:4.0;stroke:rgb(0,0,0);stroke-linecap:round;fill:none;" />
<text x="371.6" y="1253.7" font-size="18.2px" font-family="CMUBright-Roman" style="text-anchor:end;fill:rgb(0,0,0);" transform="rotate(12.6,371.6,1253.7)" >3300</text>
<line x1='419.6' y1='1186.5' x2='400.4' y2='1180.9' style="stroke-width:4.0;stroke:rgb(0,0,0);stroke-linecap:round;fill:none;" />
<text x="389.0" y="1184.4" font-size="18.2px" font-family="CMUBright-Roman" style="text-anchor:end;fill:rgb(0,0,0);" transform="rotate(16.2,389.0,1184.4)" >3350</text>
<line x1='441.0' y1='1120.3' x2='422.2' y2='1113.6' style="stroke-width:4.0;stroke:rgb(0,0,0);stroke-linecap:round;fill:none;" />
<text x="410.6" y="1116.3" font-size="18.2px" font-family="CMUBright-Roman" style="text-anchor:end;fill:rgb(0,0,0);" transform="rotate(19.7,410.6,1116.3)" >3400</text>
<line x1='466.5' y1='1055.6' x2='448.1' y2='1047.7' style="stroke-width:4.0;stroke:rgb(0,0,0);stroke-linecap:round;fill:none;" />
<text x="436.4" y="1049.7" font-size="18.2px" font-family="CMUBright-Roman" style="text-anchor:end;fill:rgb(0,0,0);" transform="rotate(23.3,436.4,1049.7)" >3450</text>
<line x1='496.0' y1='992.5' x2='478.1' y2='983.5' style="stroke-width:4.0;stroke:rgb(0,0,0);stroke-linecap:round;fill:none;" />
<text x="466.3" y="984.8" font-size="18.2px" font-family="CMUBright-Roman" style="text-anchor:end;fill:rgb(0,0,0);" transform="rotate(26.8,466.3,984.8)" >3500</text>
<line x1='529.2' y1='931.4' x2='512.0' y2='921.3' style="stroke-width:4.0;stroke:rgb(0,0,0);stroke-linecap:round;fill:none;" />
<text x="500.1" y="921.9" font-size="18.2px" font-family="CMUBright-Roman" style="text-anchor:end;fill:rgb(0,0,0);" transform="rotate(30.4,500.1,921.9)" >3550</text>
<line x1='566.3' y1='872.5' x2='549.7' y2='861.4' style="stroke-width:4.0;stroke:rgb(0,0,0);stroke-linecap:round;fill:none;" />
<text x="537.7" y="861.2" font-size="18.2px" font-family="CMUBright-Roman" style="text-anchor:end;fill:rgb(0,0,0);" transform="rotate(33.9,537.7,861.2)" >3600</text>
<line x1='606.8' y1='816.0' x2='590.9' y2='803.8' style="stroke-width:4.0;stroke:rgb(0,0,0);stroke-linecap:round;fill:none;" />
<text x="579.1" y="802.9" font-size="18.2px" font-family="CMUBright-Roman" style="text-anchor:end;fill:rgb(0,0,0);" transform="rotate(37.4,579.1,802.9)" >3650</text>
<line x1='650.8' y1='762.1' x2='635.7' y2='749.0' style="stroke-width:4.0;stroke:rgb(0,0,0);stroke-linecap:round;fill:none;" />
<text x="623.9" y="747.3" font-size="18.2px" font-family="CMUBright-Roman" style="text-anchor:end;fill:rgb(0,0,0);" transform="rotate(41.0,623.9,747.3)" >3700</text>
<line x1='698.1' y1='711.0' x2='683.8' y2='697.0' style="stroke-width:4.0;stroke:rgb(0,0,0);stroke-linecap:round;fill:none;" />
<text x="672.1" y="694.6" font-size="18.2px" font-family="CMUBright-Roman" style="text-anchor:end;fill:rgb(0,0,0);" transform="rotate(44.5,672.1,694.6)" >3750</text>
<line x1='748.4' y1='662.9' x2='735.0' y2='648.1' style="stroke-width:4.0;stroke:rgb(0,0,0);stroke-linecap:round;fill:none;" />
<text x="723.5" y="645.0" font-size="18.2px" font-family="CMUBright-Roman" style="text-anchor:end;fill:rgb(0,0,0);" transform="rotate(48.1,723.5,645.0)" >3800</text>
<line x1='801.6' y1='618.1' x2='789.1' y2='602.4' style="stroke-width:4.0;stroke:rgb(0,0,0);stroke-linecap:round;fill:none;" />
<text x="777.8" y="598.6" font-size="18.2px" font-family="CMUBright-Roman" style="text-anchor:end;fill:rgb(0,0,0);" transform="rotate(51.6,777.8,598.6)" >3850</text>
<line x1='857.4' y1='576.6' x2='846.0' y2='560.2' style="stroke-width:4.0;stroke:rgb(0,0,0);stroke-linecap:round;fill:none;" />
<text x="835.0" y="555.7" font-size="18.2px" font-family="CMUBright-Roman" style="text-anchor:end;fill:rgb(0,0,0);" transform="rotate(55.2,835.0,555.7)" >3900</text>
<line x1='915.7' y1='538.6' x2='905.3' y2='521.5' style="stroke-width:4.0;stroke:rgb(0,0,0);stroke-linecap:round;fill:none;" />
<text x="894.6" y="516.4" font-size="18.2px" font-family="CMUBright-Roman" style="text-anchor:end;fill:rgb(0,0,0);" transform="rotate(58.7,894.6,516.4)" >3950</text>
<line x1='976.3' y1='504.3' x2='967.0' y2='486.6' style="stroke-width:4.0;stroke:rgb(0,0,0);stroke-linecap:round;fill:none;" />
<text x="956.6" y="480.8" font-size="18.2px" font-family="CMUBright-Roman" style="text-anchor:end;fill:rgb(0,0,0);" transform="rotate(62.3,956.6,480.8)" >4000</text>
<line x1='1038.8' y1='473.9' x2='1030.6' y2='455.6' style="stroke-width:4.0;stroke:rgb(0,0,0);stroke-linecap:round;fill:none;" />
<text x="1020.6" y="449.2" font-size="18.2px" font-family="CMUBright-Roman" style="text-anchor:end;fill:rgb(0,0,0);" transform="rotate(65.8,1020.6,449.2)" >4050</text>
<line x1='1103.1' y1='447.3' x2='1096.1' y2='428.6' style="stroke-width:4.0;stroke:rgb(0,0,0);stroke-linecap:round;fill:none;" />
<text x="1086.5" y="421.6" font-size="18.2px" font-family="CMUBright-Roman" style="text-anchor:end;fill:rgb(0,0,0);" transform="rotate(69.3,1086.5,421.6)" >4100</text>
<line x1='1169.0' y1='424.8' x2='1163.1' y2='405.7' style="stroke-width:4.0;stroke:rgb(0,0,0);stroke-linecap:round;fill:none;" />
<text x="1153.9" y="398.1" font-size="18.2px" font-family="CMUBright-Roman" style="text-anchor:end;fill:rgb(0,0,0);" transform="rotate(72.9,1153.9,398.1)" >4150</text>
<line x1='1236.1' y1='406.4' x2='1231.4' y2='387.0' style="stroke-width:4.0;stroke:rgb(0,0,0);stroke-linecap:round;fill:none;" />
<text x="1222.7" y="378.8" font-size="18.2px" font-family="CMUBright-Roman" style="text-anchor:end;fill:rgb(0,0,0);" transform="rotate(76.4,1222.7,378.8)" >4200</text>
<line x1='1304.2' y1='392.2' x2='1300.7' y2='372.5' style="stroke-width:4.0;stroke:rgb(0,0,0);stroke-linecap:round;fill:none;" />
<text x="1292.6" y="363.8" font-size="18.2px" font-family="CMUBright-Roman" style="text-anchor:end;fill:rgb(0,0,0);" transform="rotate(80.0,1292.6,363.8)" >4250</text>
<line x1='1373.1' y1='382.2' x2='1370.8' y2='362.3' style="stroke-width:4.0;stroke:rgb(0,0,0);stroke-linecap:round;fill:none;" />
<text x="1363.2" y="353.1" font-size="18.2px" font-family="CMUBright-Roman" style="text-anchor:end;fill:rgb(0,0,0);" transform="rotate(83.5,1363.2,353.1)" >4300</text>
<g id="highlighttrack_0">
<path d="M1379.400,431.786 A1075.000,1075.000 40.000 0,1 1383.403,431.342 L1377.980,381.637 A1125.000,1125.000 0.000 0,0 1373.790,382.102 Z" style="stroke-width:4.0;stroke:rgb(0,0,0);stroke-linecap:round;fill:rgb(251,106,74);" />
<path d="M1275.770,448.646 A1075.000,1075.000 40.000 0,1 1279.655,447.825 L1269.407,398.886 A1125.000,1125.000 0.000 0,0 1265.341,399.745 Z" style="stroke-width:4.0;stroke:rgb(0,0,0);stroke-linecap:round;fill:rgb(251,106,74);" />
<path d="M835.818,654.726 A1075.000,1075.000 40.000 0,1 839.085,652.170 L808.345,612.736 A1125.000,1125.000 0.000 0,0 804.926,615.411 Z" style="stroke-width:4.0;stroke:rgb(0,0,0);stroke-linecap:round;fill:rgb(251,106,74);" />
<path d="M828.356,660.644 A1075.000,1075.000 40.000 0,1 831.454,658.174 L800.359,619.019 A1125.000,1125.000 0.000 0,0 797.117,621.604 Z" style="stroke-width:4.0;stroke:rgb(0,0,0);stroke-linecap:round;fill:rgb(251,106,74);" />
<path d="M1729.921,2550.124 A1075.000,1075.000 40.000 0,1 1725.607,2551.060 L1736.101,2599.946 A1125.000,1125.000 0.000 0,0 1740.615,2598.967 Z" style="stroke-width:4.0;stroke:rgb(0,0,0);stroke-linecap:round;fill:rgb(116,196,118);" />
<path d="M2437.894,2025.338 A1075.000,1075.000 40.000 0,1 2435.951,2028.791 L2479.484,2053.386 A1125.000,1125.000 0.000 0,0 2481.517,2049.772 Z" style="stroke-width:4.0;stroke:rgb(0,0,0);stroke-linecap:round;fill:rgb(116,196,118);" />
<path d="M2453.677,1003.891 A1075.000,1075.000 40.000 0,1 2455.525,1007.458 L2499.968,984.549 A1125.000,1125.000 0.000 0,0 2498.034,980.816 Z" style="stroke-width:4.0;stroke:rgb(0,0,0);stroke-linecap:round;fill:rgb(116,196,118);" />
<path d="M2419.574,943.216 A1075.000,1075.000 40.000 0,1 2421.751,946.827 L2464.623,921.098 A1125.000,1125.000 0.000 0,0 2462.345,917.319 Z" style="stroke-width:4.0;stroke:rgb(0,0,0);stroke-linecap:round;fill:rgb(116,196,118);" />
<path d="M2437.266,973.542 A1075.000,1075.000 40.000 0,1 2441.164,980.543 L2484.939,956.382 A1125.000,1125.000 0.000 0,0 2480.859,949.056 Z" style="stroke-width:4.0;stroke:rgb(0,0,0);stroke-linecap:round;fill:rgb(251,106,74);" />
<path d="M905.070,604.632 A1075.000,1075.000 40.000 0,1 907.477,603.038 L879.918,561.319 A1125.000,1125.000 0.000 0,0 877.399,562.987 Z" style="stroke-width:4.0;stroke:rgb(0,0,0);stroke-linecap:round;fill:rgb(251,106,74);" />
<path d="M1180.272,473.648 A1075.000,1075.000 40.000 0,1 1183.029,472.793 L1168.286,425.016 A1125.000,1125.000 0.000 0,0 1165.401,425.910 Z" style="stroke-width:4.0;stroke:rgb(0,0,0);stroke-linecap:round;fill:rgb(116,196,118);" />
</g>
</g>
<g id="track_0">
<path d="M 1278.012,459.159 A 1064.250,1064.250 0.00 0,1 1281.9,458.3 L 1281.9,458.3 1296.9,530.0 1311.0,596.2 1324.0,657.1 1336.2,713.2 1347.5,764.5 1357.9,811.4 1367.5,854.0 1376.4,892.6 1384.6,927.3 1392.1,958.3 1399.0,985.7 1405.3,1009.7 1410.9,1030.4 1416.0,1047.9 1420.6,1062.3 1424.6,1073.7 1428.2,1082.1 1431.2,1087.5 1433.8,1090.1 1435.9,1089.7 1437.6,1086.5 1438.8,1080.4 1439.5,1071.3 1439.9,1059.3 1439.7,1044.2 1439.2,1026.0 1438.1,1004.5 1436.6,979.8 1434.7,951.6 1432.2,919.8 1429.2,884.2 1425.7,844.8 1421.7,801.3 1417.1,753.5 1411.9,701.1 1406.1,644.1 1399.6,582.1 1392.4,514.8 1384.6,442.0  A 1064.250,1064.250 0.00 0,0 1380.6,442.5 L 1380.6,442.5 1388.8,515.2 1396.2,582.5 1402.9,644.5 1408.9,701.5 1414.3,753.8 1419.1,801.6 1423.3,845.1 1426.9,884.5 1430.0,920.0 1432.6,951.8 1434.7,980.0 1436.3,1004.8 1437.4,1026.2 1438.0,1044.4 1438.2,1059.5 1437.9,1071.5 1437.2,1080.6 1436.0,1086.8 1434.4,1090.0 1432.3,1090.3 1429.7,1087.8 1426.6,1082.3 1423.0,1074.0 1419.0,1062.6 1414.3,1048.3 1409.2,1030.8 1403.4,1010.1 1397.1,986.1 1390.1,958.7 1382.5,927.8 1374.2,893.1 1365.2,854.5 1355.3,811.9 1344.7,765.1 1333.3,713.8 1320.9,657.8 1307.6,596.9 1293.3,530.7 1278.0,459.2  Z" style="stroke-width: 2.0;  stroke: rgb(82,82,82); fill: rgb(251,106,74); opacity: 0.667;" />
<path d="M 842.460,663.179 A 1064.250,1064.250 0.00 0,1 845.7,660.6 L 845.7,660.6 891.0,718.2 933.5,771.1 973.2,819.4 1010.5,863.6 1045.3,903.7 1077.8,940.0 1108.2,972.6 1136.6,1001.8 1163.0,1027.6 1187.7,1050.3 1210.6,1069.9 1231.9,1086.6 1251.6,1100.4 1269.9,1111.5 1286.9,1119.9 1302.6,1125.7 1317.0,1128.9 1330.3,1129.5 1342.4,1127.5 1353.5,1123.0 1363.6,1116.0 1372.7,1106.3 1380.8,1093.9 1388.1,1078.9 1394.4,1061.1 1399.8,1040.3 1404.3,1016.6 1408.0,989.8 1410.7,959.8 1412.6,926.4 1413.6,889.4 1413.6,848.7 1412.6,804.1 1410.7,755.4 1407.7,702.4 1403.7,644.8 1398.5,582.4 1392.2,514.9 1384.6,442.0  A 1064.250,1064.250 0.00 0,0 1380.6,442.5 L 1380.6,442.5 1388.5,515.3 1395.1,582.8 1400.5,645.2 1404.8,702.8 1407.9,755.8 1410.0,804.5 1411.1,849.1 1411.3,889.7 1410.5,926.7 1408.7,960.1 1406.1,990.2 1402.5,1017.0 1398.1,1040.7 1392.7,1061.5 1386.5,1079.3 1379.3,1094.4 1371.2,1106.8 1362.2,1116.5 1352.1,1123.6 1341.0,1128.2 1328.9,1130.1 1315.6,1129.6 1301.1,1126.5 1285.4,1120.8 1268.5,1112.4 1250.1,1101.4 1230.3,1087.6 1208.9,1071.0 1185.9,1051.5 1161.2,1028.9 1134.7,1003.2 1106.2,974.1 1075.7,941.6 1043.0,905.4 1008.0,865.5 970.6,821.5 930.7,773.2 888.0,720.6 842.5,663.2  Z" style="stroke-width: 2.0;  stroke: rgb(82,82,82); fill: rgb(116,196,118); opacity: 0.667;" />
<path d="M 842.460,663.179 A 1064.250,1064.250 0.00 0,1 845.7,660.6 L 845.7,660.6 890.9,718.2 933.2,771.1 972.7,819.6 1009.6,863.9 1044.0,904.2 1075.9,940.7 1105.7,973.5 1133.3,1002.9 1158.8,1029.0 1182.5,1052.0 1204.4,1071.9 1224.5,1088.9 1243.0,1103.0 1260.0,1114.4 1275.4,1123.1 1289.5,1129.2 1302.2,1132.7 1313.7,1133.6 1323.9,1132.0 1332.8,1127.8 1340.6,1121.1 1347.3,1111.8 1352.9,1099.8 1357.3,1085.1 1360.7,1067.7 1362.9,1047.4 1364.1,1024.1 1364.1,997.8 1363.1,968.2 1360.8,935.4 1357.4,899.0 1352.8,858.9 1346.9,815.0 1339.7,767.0 1331.2,714.8 1321.2,658.0 1309.7,596.6 1296.6,530.1 1281.9,458.3  A 1064.250,1064.250 0.00 0,0 1278.0,459.2 L 1278.0,459.2 1293.0,530.8 1306.3,597.3 1318.1,658.7 1328.3,715.4 1337.0,767.6 1344.4,815.6 1350.4,859.5 1355.2,899.5 1358.7,935.9 1361.1,968.7 1362.3,998.3 1362.3,1024.6 1361.2,1047.9 1359.1,1068.2 1355.8,1085.7 1351.4,1100.3 1345.9,1112.3 1339.2,1121.7 1331.4,1128.5 1322.5,1132.7 1312.3,1134.3 1300.8,1133.4 1288.1,1130.0 1274.0,1124.0 1258.5,1115.3 1241.5,1104.0 1222.9,1089.9 1202.7,1073.0 1180.8,1053.2 1157.0,1030.4 1131.3,1004.4 1103.6,975.1 1073.8,942.3 1041.7,906.0 1007.2,865.8 970.1,821.7 930.4,773.3 887.9,720.6 842.5,663.2  Z" style="stroke-width: 2.0;  stroke: rgb(82,82,82); fill: rgb(107,174,214); opacity: 0.667;" />
<path d="M 835.072,669.037 A 1064.250,1064.250 0.00 0,1 838.1,666.6 L 838.1,666.6 884.0,723.7 926.9,776.2 967.2,824.2 1004.8,868.0 1040.1,907.8 1073.0,943.7 1103.7,976.1 1132.4,1005.0 1159.2,1030.6 1184.1,1053.0 1207.3,1072.4 1228.8,1088.9 1248.8,1102.5 1267.4,1113.4 1284.5,1121.6 1300.4,1127.2 1315.0,1130.2 1328.5,1130.7 1340.8,1128.6 1352.1,1124.0 1362.3,1116.8 1371.5,1107.0 1379.8,1094.6 1387.1,1079.5 1393.6,1061.5 1399.1,1040.7 1403.7,1017.0 1407.5,990.1 1410.3,960.0 1412.2,926.6 1413.3,889.6 1413.4,848.8 1412.5,804.2 1410.6,755.5 1407.7,702.4 1403.7,644.8 1398.5,582.4 1392.2,514.9 1384.6,442.0  A 1064.250,1064.250 0.00 0,0 1380.6,442.5 L 1380.6,442.5 1388.5,515.3 1395.1,582.8 1400.5,645.2 1404.7,702.8 1407.8,755.8 1409.9,804.6 1410.9,849.2 1411.0,889.9 1410.1,926.9 1408.3,960.4 1405.5,990.5 1401.9,1017.3 1397.4,1041.1 1391.9,1061.9 1385.6,1079.9 1378.3,1095.0 1370.1,1107.5 1360.9,1117.3 1350.7,1124.6 1339.4,1129.2 1327.1,1131.3 1313.7,1130.9 1299.0,1128.0 1283.1,1122.4 1265.9,1114.3 1247.4,1103.4 1227.3,1089.9 1205.7,1073.5 1182.4,1054.2 1157.4,1031.8 1130.6,1006.3 1101.8,977.6 1070.9,945.3 1037.9,909.5 1002.5,869.8 964.7,826.2 924.3,778.3 881.1,726.0 835.1,669.0  Z" style="stroke-width: 2.0;  stroke: rgb(82,82,82); fill: rgb(253,141,60); opacity: 0.667;" />
<path d="M 835.072,669.037 A 1064.250,1064.250 0.00 0,1 838.1,666.6 L 838.1,666.6 883.9,723.8 926.7,776.3 966.7,824.4 1004.0,868.3 1038.7,908.3 1071.1,944.5 1101.2,977.0 1129.1,1006.2 1155.0,1032.0 1178.9,1054.7 1201.1,1074.4 1221.5,1091.1 1240.2,1105.1 1257.4,1116.3 1273.1,1124.8 1287.4,1130.7 1300.3,1134.1 1311.9,1134.9 1322.2,1133.1 1331.4,1128.8 1339.3,1122.0 1346.1,1112.5 1351.8,1100.5 1356.4,1085.7 1359.9,1068.2 1362.2,1047.8 1363.5,1024.5 1363.6,998.1 1362.6,968.5 1360.5,935.6 1357.1,899.1 1352.6,859.0 1346.8,815.1 1339.6,767.1 1331.1,714.8 1321.1,658.1 1309.6,596.6 1296.6,530.1 1281.9,458.3  A 1064.250,1064.250 0.00 0,0 1278.0,459.2 L 1278.0,459.2 1293.0,530.8 1306.3,597.3 1318.0,658.7 1328.2,715.4 1336.9,767.7 1344.2,815.7 1350.2,859.6 1354.9,899.7 1358.4,936.1 1360.7,969.0 1361.8,998.6 1361.7,1025.0 1360.5,1048.3 1358.3,1068.7 1354.9,1086.2 1350.3,1101.0 1344.7,1113.1 1337.9,1122.6 1330.0,1129.4 1320.9,1133.8 1310.5,1135.5 1298.9,1134.8 1286.0,1131.5 1271.7,1125.6 1256.0,1117.2 1238.8,1106.0 1220.0,1092.2 1199.5,1075.5 1177.3,1055.9 1153.3,1033.3 1127.3,1007.5 1099.2,978.5 1069.0,946.0 1036.5,910.0 1001.6,870.2 964.2,826.4 924.0,778.4 881.1,726.0 835.1,669.0  Z" style="stroke-width: 2.0;  stroke: rgb(82,82,82); fill: rgb(255,0,0); opacity: 0.667;" />
<path d="M 835.072,669.037 A 1064.250,1064.250 0.00 0,1 838.1,666.6 L 838.1,666.6 883.7,723.9 925.7,776.9 964.5,825.7 1000.2,870.6 1033.0,911.7 1062.9,949.2 1090.1,983.4 1114.7,1014.3 1136.9,1042.2 1156.8,1067.0 1174.4,1089.1 1189.9,1108.4 1203.3,1125.0 1214.6,1139.1 1224.1,1150.8 1231.6,1160.0 1237.2,1166.8 1241.0,1171.3 1242.9,1173.5 1243.1,1173.3 1241.4,1170.9 1238.0,1166.2 1232.7,1159.1 1225.5,1149.6 1216.4,1137.8 1205.4,1123.4 1192.3,1106.5 1177.2,1086.9 1159.9,1064.6 1140.4,1039.4 1118.6,1011.3 1094.4,980.0 1067.5,945.6 1038.1,907.7 1005.8,866.2 970.6,820.9 932.3,771.7 890.7,718.4 845.7,660.6  A 1064.250,1064.250 0.00 0,0 842.5,663.2 L 842.5,663.2 887.7,720.7 929.5,773.9 968.0,823.0 1003.4,868.1 1035.8,909.4 1065.4,947.2 1092.4,981.6 1116.7,1012.8 1138.7,1040.8 1158.3,1065.9 1175.6,1088.1 1190.8,1107.6 1203.9,1124.5 1215.0,1138.8 1224.1,1150.7 1231.4,1160.1 1236.7,1167.2 1240.2,1171.9 1241.9,1174.3 1241.7,1174.4 1239.7,1172.3 1235.9,1167.8 1230.3,1161.0 1222.8,1151.8 1213.3,1140.2 1201.9,1126.1 1188.4,1109.5 1172.9,1090.3 1155.2,1068.3 1135.2,1043.5 1112.9,1015.8 1088.2,984.9 1060.8,950.9 1030.8,913.4 997.9,872.4 962.1,827.7 923.1,779.0 880.8,726.2 835.1,669.0  Z" style="stroke-width: 2.0;  stroke: rgb(82,82,82); fill: rgb(255,0,204); opacity: 0.667;" />
<path d="M 1727.622,2539.623 A 1064.250,1064.250 0.00 0,1 1723.4,2540.5 L 1723.4,2540.5 1708.9,2467.6 1697.3,2397.3 1688.1,2329.6 1681.0,2264.5 1675.6,2201.7 1671.6,2141.2 1668.7,2082.8 1666.7,2026.4 1665.2,1972.0 1664.0,1919.2 1662.9,1868.1 1661.8,1818.5 1660.3,1770.2 1658.4,1723.0 1655.9,1677.0 1652.7,1631.8 1648.6,1587.3 1643.6,1543.4 1637.7,1499.9 1630.7,1456.7 1622.7,1413.6 1613.6,1370.4 1603.4,1326.9 1592.3,1283.0 1580.2,1238.5 1567.2,1193.1 1553.3,1146.8 1538.8,1099.3 1523.8,1050.5 1508.3,1000.0 1492.5,947.8 1476.8,893.7 1461.1,837.4 1445.9,778.7 1431.2,717.4 1417.5,653.3 1404.9,586.2 1393.8,515.8 1384.6,442.0  A 1064.250,1064.250 0.00 0,0 1380.6,442.5 L 1380.6,442.5 1390.2,516.3 1401.5,586.6 1414.3,653.6 1428.3,717.7 1443.2,778.9 1458.6,837.5 1474.5,893.8 1490.5,947.9 1506.4,1000.0 1522.1,1050.4 1537.3,1099.2 1552.0,1146.6 1566.0,1192.9 1579.2,1238.1 1591.5,1282.6 1602.8,1326.5 1613.1,1369.9 1622.4,1413.1 1630.6,1456.2 1637.7,1499.4 1643.8,1542.8 1649.0,1586.7 1653.2,1631.1 1656.6,1676.3 1659.3,1722.4 1661.4,1769.5 1663.1,1817.8 1664.5,1867.5 1665.7,1918.6 1667.1,1971.3 1668.8,2025.8 1671.1,2082.1 1674.2,2140.5 1678.5,2201.0 1684.1,2263.7 1691.5,2328.9 1701.0,2396.5 1712.9,2466.7 1727.6,2539.6  Z" style="stroke-width: 2.0;  stroke: rgb(82,82,82); fill: rgb(255,204,204); opacity: 0.667;" />
<path d="M 1727.622,2539.623 A 1064.250,1064.250 0.00 0,1 1723.4,2540.5 L 1723.4,2540.5 1708.9,2467.5 1697.2,2397.1 1688.0,2329.2 1680.7,2263.7 1675.1,2200.6 1670.9,2139.7 1667.7,2080.9 1665.2,2024.1 1663.2,1969.3 1661.4,1916.2 1659.6,1864.7 1657.6,1814.8 1655.1,1766.3 1652.1,1719.0 1648.3,1672.8 1643.7,1627.6 1638.0,1583.2 1631.3,1539.5 1623.4,1496.2 1614.3,1453.4 1604.0,1410.7 1592.4,1368.0 1579.5,1325.1 1565.4,1281.9 1550.1,1238.2 1533.7,1193.7 1516.2,1148.4 1497.8,1101.9 1478.6,1054.1 1458.7,1004.9 1438.3,953.9 1417.5,901.0 1396.6,846.0 1375.7,788.6 1355.2,728.7 1335.3,665.9 1316.2,600.1 1298.3,531.0 1281.9,458.3  A 1064.250,1064.250 0.00 0,0 1278.0,459.2 L 1278.0,459.2 1294.7,531.7 1312.9,600.7 1332.2,666.5 1352.4,729.2 1373.1,789.1 1394.2,846.4 1415.3,901.3 1436.2,954.1 1456.9,1005.0 1477.0,1054.2 1496.4,1101.9 1515.0,1148.3 1532.6,1193.6 1549.2,1237.9 1564.6,1281.6 1578.9,1324.8 1591.9,1367.6 1603.7,1410.2 1614.2,1452.9 1623.5,1495.7 1631.5,1538.9 1638.4,1582.6 1644.2,1627.0 1649.0,1672.2 1653.0,1718.4 1656.2,1765.6 1658.9,1814.2 1661.1,1864.1 1663.1,1915.5 1665.1,1968.6 1667.3,2023.5 1670.0,2080.2 1673.5,2139.0 1678.0,2199.9 1683.8,2263.0 1691.4,2328.4 1700.9,2396.3 1712.9,2466.6 1727.6,2539.6  Z" style="stroke-width: 2.0;  stroke: rgb(82,82,82); fill: rgb(255,153,0); opacity: 0.667;" />
<path d="M 1727.622,2539.623 A 1064.250,1064.250 0.00 0,1 1723.4,2540.5 L 1723.4,2540.5 1706.6,2468.3 1688.5,2400.0 1669.3,2335.4 1649.3,2274.3 1628.5,2216.3 1607.2,2161.2 1585.6,2108.7 1563.8,2058.6 1542.0,2010.6 1520.3,1964.5 1498.8,1920.0 1477.5,1876.9 1456.6,1835.1 1436.1,1794.2 1416.0,1754.1 1396.3,1714.7 1377.1,1675.7 1358.3,1637.0 1339.9,1598.3 1321.8,1559.6 1304.0,1520.7 1286.4,1481.4 1268.8,1441.6 1251.2,1401.2 1233.4,1360.1 1215.3,1318.1 1196.6,1275.2 1177.3,1231.3 1157.0,1186.2 1135.5,1139.9 1112.7,1092.4 1088.3,1043.5 1061.9,993.2 1033.3,941.6 1002.2,888.4 968.3,833.7 931.1,777.6 890.4,719.9 845.7,660.6  A 1064.250,1064.250 0.00 0,0 842.5,663.2 L 842.5,663.2 887.4,722.2 928.3,779.8 965.7,835.8 999.9,890.3 1031.2,943.4 1060.0,994.9 1086.5,1045.1 1111.2,1093.9 1134.2,1141.3 1155.8,1187.5 1176.2,1232.5 1195.8,1276.4 1214.6,1319.2 1232.9,1361.1 1250.9,1402.2 1268.6,1442.5 1286.4,1482.2 1304.1,1521.4 1322.1,1560.3 1340.3,1598.9 1358.9,1637.5 1377.8,1676.2 1397.2,1715.1 1417.0,1754.5 1437.3,1794.4 1458.0,1835.2 1479.1,1877.0 1500.5,1920.0 1522.2,1964.4 1544.1,2010.4 1566.1,2058.3 1588.1,2108.4 1609.9,2160.8 1631.4,2215.8 1652.4,2273.7 1672.8,2334.7 1692.2,2399.2 1710.6,2467.4 1727.6,2539.6  Z" style="stroke-width: 2.0;  stroke: rgb(82,82,82); fill: rgb(255,204,0); opacity: 0.667;" />
<path d="M 1727.622,2539.623 A 1064.250,1064.250 0.00 0,1 1723.4,2540.5 L 1723.4,2540.5 1706.6,2468.3 1688.5,2400.0 1669.4,2335.5 1649.3,2274.4 1628.5,2216.4 1607.2,2161.4 1585.6,2109.0 1563.9,2058.9 1542.0,2010.9 1520.3,1964.9 1498.7,1920.5 1477.4,1877.5 1456.5,1835.7 1435.9,1794.9 1415.7,1755.0 1396.0,1715.6 1376.6,1676.7 1357.7,1638.1 1339.2,1599.6 1320.9,1561.0 1303.0,1522.2 1285.1,1483.0 1267.4,1443.4 1249.5,1403.2 1231.5,1362.2 1213.1,1320.4 1194.1,1277.7 1174.4,1233.9 1153.8,1189.1 1132.1,1143.0 1108.9,1095.7 1084.0,1047.1 1057.3,997.1 1028.2,945.7 996.7,892.9 962.2,838.5 924.6,782.7 883.3,725.4 838.1,666.6  A 1064.250,1064.250 0.00 0,0 835.1,669.0 L 835.1,669.0 880.5,727.7 921.9,784.9 959.8,840.5 994.4,894.7 1026.2,947.4 1055.4,998.7 1082.4,1048.6 1107.4,1097.2 1130.8,1144.4 1152.7,1190.3 1173.5,1235.1 1193.3,1278.8 1212.4,1321.5 1231.0,1363.2 1249.2,1404.1 1267.2,1444.3 1285.1,1483.8 1303.1,1522.9 1321.2,1561.7 1339.6,1600.2 1358.3,1638.6 1377.4,1677.2 1396.9,1716.0 1416.8,1755.3 1437.1,1795.2 1457.9,1835.8 1479.0,1877.5 1500.5,1920.4 1522.2,1964.8 1544.1,2010.7 1566.2,2058.6 1588.1,2108.6 1609.9,2160.9 1631.4,2215.9 1652.5,2273.8 1672.8,2334.8 1692.2,2399.2 1710.6,2467.4 1727.6,2539.6  Z" style="stroke-width: 2.0;  stroke: rgb(82,82,82); fill: rgb(255,255,0); opacity: 0.667;" />
<path d="M 2428.515,2020.085 A 1064.250,1064.250 0.00 0,1 2426.6,2023.5 L 2426.6,2023.5 2362.8,1986.2 2303.6,1949.2 2248.8,1912.5 2197.8,1876.2 2150.5,1840.4 2106.6,1804.9 2065.6,1769.9 2027.4,1735.4 1991.7,1701.3 1958.2,1667.6 1926.7,1634.3 1897.0,1601.4 1868.9,1568.8 1842.1,1536.4 1816.6,1504.3 1792.2,1472.2 1768.7,1440.2 1746.0,1408.1 1723.9,1375.8 1702.5,1343.2 1681.5,1310.2 1661.0,1276.7 1640.8,1242.5 1621.0,1207.4 1601.5,1171.2 1582.3,1133.9 1563.5,1095.2 1544.9,1054.9 1526.8,1012.9 1509.0,968.8 1491.8,922.5 1475.1,873.8 1459.1,822.3 1443.9,767.9 1429.6,710.3 1416.4,649.2 1404.3,584.3 1393.7,515.4 1384.6,442.0  A 1064.250,1064.250 0.00 0,0 1380.6,442.5 L 1380.6,442.5 1390.0,515.8 1400.9,584.7 1413.2,649.5 1426.7,710.6 1441.2,768.2 1456.6,822.5 1472.8,873.9 1489.6,922.6 1507.1,968.8 1525.0,1012.8 1543.3,1054.8 1562.0,1095.0 1581.0,1133.6 1600.3,1170.9 1619.9,1206.9 1639.9,1241.9 1660.1,1276.1 1680.8,1309.6 1701.9,1342.5 1723.5,1375.0 1745.6,1407.2 1768.5,1439.2 1792.1,1471.1 1816.7,1503.1 1842.3,1535.2 1869.1,1567.4 1897.4,1599.9 1927.2,1632.7 1958.8,1665.9 1992.4,1699.5 2028.3,1733.4 2066.6,1767.8 2107.7,1802.7 2151.8,1838.0 2199.2,1873.7 2250.3,1909.8 2305.3,1946.2 2364.6,1983.0 2428.5,2020.1  Z" style="stroke-width: 2.0;  stroke: rgb(82,82,82); fill: rgb(204,255,0); opacity: 0.667;" />
<path d="M 2428.515,2020.085 A 1064.250,1064.250 0.00 0,1 2426.6,2023.5 L 2426.6,2023.5 2362.8,1986.2 2303.5,1949.0 2248.4,1912.1 2197.3,1875.6 2149.6,1839.4 2105.2,1803.7 2063.7,1768.3 2024.9,1733.5 1988.5,1699.1 1954.2,1665.1 1921.8,1631.5 1891.1,1598.4 1861.9,1565.6 1833.9,1533.2 1807.0,1501.0 1781.1,1468.9 1755.9,1437.0 1731.4,1405.1 1707.4,1373.0 1683.8,1340.8 1660.6,1308.2 1637.6,1275.2 1614.8,1241.6 1592.1,1207.1 1569.6,1171.8 1547.1,1135.3 1524.7,1097.5 1502.4,1058.1 1480.3,1017.1 1458.3,974.2 1436.5,929.0 1415.1,881.5 1394.0,831.2 1373.4,778.1 1353.3,721.7 1334.0,661.9 1315.5,598.2 1298.1,530.5 1281.9,458.3  A 1064.250,1064.250 0.00 0,0 1278.0,459.2 L 1278.0,459.2 1294.5,531.2 1312.2,598.9 1330.9,662.5 1350.4,722.3 1370.7,778.6 1391.5,831.6 1412.8,881.8 1434.4,929.3 1456.4,974.3 1478.5,1017.2 1500.8,1058.1 1523.2,1097.4 1545.7,1135.1 1568.3,1171.5 1591.0,1206.8 1613.8,1241.1 1636.7,1274.7 1659.9,1307.7 1683.2,1340.1 1706.9,1372.3 1731.0,1404.2 1755.7,1436.1 1781.0,1467.9 1807.0,1499.8 1834.0,1531.9 1862.1,1564.3 1891.5,1597.0 1922.3,1630.0 1954.8,1663.4 1989.2,1697.3 2025.8,1731.5 2064.7,1766.3 2106.3,1801.4 2150.9,1837.0 2198.6,1873.0 2250.0,1909.4 2305.1,1946.0 2364.5,1983.0 2428.5,2020.1  Z" style="stroke-width: 2.0;  stroke: rgb(82,82,82); fill: rgb(0,255,0); opacity: 0.667;" />
<path d="M 2428.515,2020.085 A 1064.250,1064.250 0.00 0,1 2426.6,2023.5 L 2426.6,2023.5 2362.6,1986.0 2302.7,1948.3 2246.7,1910.6 2194.2,1873.1 2144.8,1835.9 2098.3,1799.1 2054.3,1762.7 2012.6,1726.9 1972.9,1691.8 1934.8,1657.3 1898.3,1623.5 1863.0,1590.5 1828.7,1558.2 1795.2,1526.7 1762.2,1495.9 1729.7,1465.7 1697.4,1436.2 1665.2,1407.3 1632.9,1378.8 1600.3,1350.7 1567.4,1323.0 1534.0,1295.3 1500.1,1267.7 1465.5,1240.0 1430.1,1212.0 1394.0,1183.5 1357.0,1154.3 1319.1,1124.2 1280.4,1093.1 1240.7,1060.6 1200.0,1026.4 1158.5,990.5 1116.1,952.3 1072.8,911.7 1028.7,868.4 983.8,822.0 938.3,772.1 892.3,718.4 845.7,660.6  A 1064.250,1064.250 0.00 0,0 842.5,663.2 L 842.5,663.2 889.3,720.8 935.5,774.3 981.2,823.9 1026.2,870.2 1070.5,913.4 1113.9,953.8 1156.5,991.8 1198.2,1027.6 1239.0,1061.6 1278.8,1093.9 1317.7,1124.9 1355.7,1154.9 1392.8,1183.9 1429.0,1212.3 1464.5,1240.2 1499.2,1267.8 1533.2,1295.2 1566.7,1322.7 1599.7,1350.4 1632.4,1378.3 1664.8,1406.7 1697.2,1435.5 1729.6,1464.9 1762.2,1494.9 1795.3,1525.6 1828.9,1557.0 1863.3,1589.2 1898.8,1622.1 1935.4,1655.7 1973.6,1690.0 2013.4,1725.0 2055.3,1760.7 2099.4,1796.9 2146.0,1833.5 2195.5,1870.6 2248.2,1907.9 2304.4,1945.3 2364.3,1982.8 2428.5,2020.1  Z" style="stroke-width: 2.0;  stroke: rgb(82,82,82); fill: rgb(53,128,0); opacity: 0.667;" />
<path d="M 2428.515,2020.085 A 1064.250,1064.250 0.00 0,1 2426.6,2023.5 L 2426.6,2023.5 2362.6,1986.0 2302.7,1948.3 2246.7,1910.6 2194.1,1873.1 2144.7,1835.8 2098.1,1799.0 2054.1,1762.6 2012.3,1726.8 1972.5,1691.7 1934.5,1657.2 1897.8,1623.4 1862.4,1590.4 1828.0,1558.2 1794.4,1526.7 1761.4,1495.9 1728.7,1465.8 1696.3,1436.4 1663.9,1407.6 1631.5,1379.2 1598.8,1351.3 1565.7,1323.6 1532.1,1296.2 1498.0,1268.7 1463.2,1241.2 1427.6,1213.4 1391.3,1185.1 1354.0,1156.1 1315.9,1126.3 1276.8,1095.4 1236.8,1063.2 1195.9,1029.4 1154.0,993.7 1111.2,955.9 1067.5,915.7 1023.0,872.7 977.8,826.7 931.8,777.2 885.2,724.0 838.1,666.6  A 1064.250,1064.250 0.00 0,0 835.1,669.0 L 835.1,669.0 882.4,726.2 929.1,779.3 975.3,828.6 1020.7,874.5 1065.4,917.3 1109.2,957.4 1152.2,995.0 1194.2,1030.5 1235.2,1064.2 1275.4,1096.3 1314.5,1127.0 1352.8,1156.7 1390.1,1185.5 1426.6,1213.6 1462.2,1241.3 1497.1,1268.7 1531.4,1296.0 1565.0,1323.4 1598.2,1350.9 1631.0,1378.7 1663.6,1407.0 1696.1,1435.7 1728.6,1465.0 1761.4,1495.0 1794.5,1525.6 1828.3,1557.0 1862.8,1589.1 1898.3,1622.0 1935.0,1655.6 1973.2,1689.9 2013.2,1724.9 2055.1,1760.6 2099.2,1796.8 2145.9,1833.5 2195.5,1870.5 2248.2,1907.8 2304.3,1945.3 2364.3,1982.8 2428.5,2020.1  Z" style="stroke-width: 2.0;  stroke: rgb(82,82,82); fill: rgb(0,0,204); opacity: 0.667;" />
<path d="M 2428.515,2020.085 A 1064.250,1064.250 0.00 0,1 2426.6,2023.5 L 2426.6,2023.5 2362.5,1987.9 2302.6,1955.7 2246.6,1926.9 2194.3,1901.2 2145.5,1878.4 2100.1,1858.4 2057.7,1841.1 2018.3,1826.3 1981.7,1813.9 1947.7,1803.9 1916.2,1796.2 1887.0,1790.5 1860.0,1787.1 1835.1,1785.6 1812.1,1786.2 1791.0,1788.8 1771.7,1793.4 1754.1,1800.0 1738.1,1808.6 1723.6,1819.3 1710.6,1832.0 1699.0,1846.9 1688.9,1863.9 1680.1,1883.3 1672.7,1905.0 1666.6,1929.2 1661.9,1956.0 1658.6,1985.6 1656.6,2018.0 1656.0,2053.4 1656.9,2092.0 1659.2,2134.1 1663.1,2179.6 1668.6,2229.0 1675.8,2282.3 1684.8,2339.9 1695.7,2402.0 1708.5,2468.8 1723.4,2540.5  A 1064.250,1064.250 0.00 0,0 1727.6,2539.6 L 1727.6,2539.6 1712.4,2467.9 1699.4,2401.2 1688.3,2339.2 1679.1,2281.6 1671.6,2228.3 1665.9,2179.0 1661.8,2133.4 1659.3,2091.4 1658.3,2052.8 1658.7,2017.4 1660.5,1984.9 1663.8,1955.4 1668.4,1928.6 1674.3,1904.3 1681.6,1882.6 1690.3,1863.2 1700.4,1846.1 1711.9,1831.2 1724.8,1818.4 1739.3,1807.7 1755.3,1799.0 1772.9,1792.4 1792.2,1787.7 1813.2,1785.0 1836.2,1784.4 1861.1,1785.7 1888.1,1789.1 1917.3,1794.6 1948.9,1802.3 1982.9,1812.2 2019.5,1824.4 2059.0,1839.0 2101.4,1856.2 2146.9,1876.0 2195.8,1898.6 2248.2,1924.1 2304.3,1952.8 2364.3,1984.7 2428.5,2020.1  Z" style="stroke-width: 2.0;  stroke: rgb(82,82,82); fill: rgb(102,153,255); opacity: 0.667;" />
<path d="M 2444.141,1008.852 A 1064.250,1064.250 0.00 0,1 2446.0,1012.4 L 2446.0,1012.4 2380.4,1045.4 2318.7,1074.9 2260.7,1101.0 2206.2,1124.1 2155.0,1144.2 2106.8,1161.5 2061.5,1176.2 2018.9,1188.5 1978.9,1198.4 1941.1,1206.0 1905.6,1211.5 1872.1,1215.0 1840.5,1216.4 1810.6,1215.9 1782.3,1213.6 1755.6,1209.3 1730.2,1203.2 1706.1,1195.2 1683.1,1185.4 1661.3,1173.7 1640.4,1160.0 1620.5,1144.3 1601.4,1126.5 1583.1,1106.5 1565.5,1084.2 1548.6,1059.6 1532.4,1032.4 1516.7,1002.6 1501.7,969.9 1487.3,934.2 1473.4,895.3 1460.1,853.0 1447.4,807.2 1435.2,757.4 1423.7,703.6 1412.9,645.4 1402.7,582.6 1393.2,514.9 1384.6,442.0  A 1064.250,1064.250 0.00 0,0 1380.6,442.5 L 1380.6,442.5 1389.5,515.4 1399.2,583.0 1409.7,645.8 1420.7,703.9 1432.5,757.7 1444.8,807.4 1457.7,853.2 1471.1,895.4 1485.2,934.2 1499.7,969.9 1514.9,1002.5 1530.6,1032.3 1547.0,1059.4 1563.9,1084.0 1581.6,1106.2 1600.0,1126.1 1619.1,1143.8 1639.1,1159.4 1660.1,1173.1 1682.0,1184.7 1704.9,1194.5 1729.1,1202.4 1754.5,1208.4 1781.3,1212.5 1809.5,1214.8 1839.4,1215.1 1871.0,1213.6 1904.5,1210.0 1940.0,1204.4 1977.7,1196.6 2017.8,1186.5 2060.3,1174.1 2105.6,1159.3 2153.7,1141.7 2204.8,1121.5 2259.2,1098.2 2317.1,1071.8 2378.7,1042.1 2444.1,1008.9  Z" style="stroke-width: 2.0;  stroke: rgb(82,82,82); fill: rgb(153,204,255); opacity: 0.667;" />
<path d="M 2444.141,1008.852 A 1064.250,1064.250 0.00 0,1 2446.0,1012.4 L 2446.0,1012.4 2380.3,1045.4 2318.5,1074.8 2260.2,1100.8 2205.4,1123.7 2153.7,1143.7 2105.0,1160.9 2059.0,1175.4 2015.7,1187.5 1974.7,1197.2 1936.1,1204.8 1899.5,1210.2 1864.8,1213.6 1831.9,1215.0 1800.7,1214.5 1771.0,1212.2 1742.6,1208.1 1715.6,1202.1 1689.6,1194.4 1664.7,1184.8 1640.7,1173.4 1617.6,1160.1 1595.2,1144.9 1573.5,1127.6 1552.4,1108.2 1531.9,1086.6 1511.9,1062.6 1492.2,1036.2 1473.0,1007.2 1454.1,975.4 1435.6,940.6 1417.3,902.7 1399.4,861.5 1381.7,816.6 1364.3,768.0 1347.2,715.3 1330.3,658.3 1313.8,596.6 1297.7,530.1 1281.9,458.3  A 1064.250,1064.250 0.00 0,0 1278.0,459.2 L 1278.0,459.2 1294.1,530.8 1310.5,597.3 1327.2,658.9 1344.3,715.9 1361.6,768.5 1379.2,817.1 1397.0,861.8 1415.1,903.0 1433.5,940.9 1452.2,975.6 1471.2,1007.3 1490.5,1036.3 1510.2,1062.6 1530.4,1086.5 1551.0,1108.0 1572.2,1127.3 1593.9,1144.5 1616.3,1159.7 1639.5,1172.9 1663.5,1184.2 1688.5,1193.7 1714.4,1201.3 1741.6,1207.2 1769.9,1211.2 1799.7,1213.4 1830.9,1213.7 1863.8,1212.2 1898.4,1208.7 1935.0,1203.1 1973.6,1195.5 2014.5,1185.6 2057.8,1173.3 2103.7,1158.6 2152.3,1141.3 2204.0,1121.1 2258.7,1098.0 2316.9,1071.7 2378.6,1042.1 2444.1,1008.9  Z" style="stroke-width: 2.0;  stroke: rgb(82,82,82); fill: rgb(0,255,255); opacity: 0.667;" />
<path d="M 2444.141,1008.852 A 1064.250,1064.250 0.00 0,1 2446.0,1012.4 L 2446.0,1012.4 2380.1,1045.3 2317.4,1074.5 2257.9,1100.2 2201.3,1122.8 2147.4,1142.4 2096.0,1159.3 2047.0,1173.7 2000.2,1185.7 1955.4,1195.6 1912.4,1203.5 1871.1,1209.6 1831.4,1213.8 1793.0,1216.5 1755.8,1217.6 1719.6,1217.2 1684.4,1215.4 1649.9,1212.3 1616.1,1207.7 1582.8,1201.9 1549.8,1194.6 1517.1,1186.0 1484.5,1175.9 1451.9,1164.3 1419.2,1151.2 1386.2,1136.4 1352.9,1119.8 1319.2,1101.3 1284.9,1080.7 1249.9,1057.9 1214.2,1032.7 1177.7,1005.0 1140.2,974.4 1101.8,940.8 1062.2,903.9 1021.5,863.5 979.6,819.3 936.3,770.9 891.7,718.2 845.7,660.6  A 1064.250,1064.250 0.00 0,0 842.5,663.2 L 842.5,663.2 888.7,720.5 933.5,773.1 977.0,821.3 1019.1,865.3 1059.9,905.6 1099.6,942.3 1138.2,975.8 1175.8,1006.2 1212.4,1033.8 1248.2,1058.9 1283.3,1081.5 1317.6,1102.0 1351.5,1120.4 1384.8,1136.8 1417.9,1151.5 1450.6,1164.5 1483.3,1176.0 1515.9,1185.9 1548.7,1194.5 1581.7,1201.6 1615.0,1207.3 1648.9,1211.7 1683.3,1214.8 1718.6,1216.4 1754.7,1216.6 1791.9,1215.4 1830.3,1212.6 1870.0,1208.2 1911.3,1202.0 1954.2,1193.9 1999.0,1183.9 2045.8,1171.7 2094.7,1157.1 2146.0,1140.0 2199.9,1120.2 2256.4,1097.4 2315.8,1071.4 2378.4,1042.0 2444.1,1008.9  Z" style="stroke-width: 2.0;  stroke: rgb(82,82,82); fill: rgb(204,255,255); opacity: 0.667;" />
<path d="M 2444.141,1008.852 A 1064.250,1064.250 0.00 0,1 2446.0,1012.4 L 2446.0,1012.4 2380.1,1045.3 2317.4,1074.5 2257.9,1100.2 2201.2,1122.8 2147.3,1142.4 2095.8,1159.3 2046.8,1173.7 1999.9,1185.8 1955.0,1195.7 1912.0,1203.6 1870.6,1209.6 1830.7,1214.0 1792.2,1216.7 1754.9,1217.8 1718.7,1217.5 1683.3,1215.8 1648.7,1212.7 1614.8,1208.3 1581.3,1202.5 1548.2,1195.4 1515.3,1186.9 1482.5,1177.0 1449.7,1165.6 1416.8,1152.6 1383.6,1138.0 1350.1,1121.6 1316.1,1103.3 1281.6,1083.0 1246.3,1060.4 1210.3,1035.5 1173.5,1008.0 1135.7,977.8 1096.9,944.5 1057.0,907.9 1015.9,867.9 973.5,824.0 929.8,776.0 884.7,723.7 838.1,666.6  A 1064.250,1064.250 0.00 0,0 835.1,669.0 L 835.1,669.0 881.8,726.0 927.1,778.2 971.0,825.9 1013.5,869.7 1054.8,909.6 1094.9,946.0 1133.8,979.1 1171.7,1009.2 1208.6,1036.6 1244.7,1061.4 1280.0,1083.8 1314.7,1104.0 1348.7,1122.1 1382.3,1138.4 1415.5,1152.9 1448.5,1165.7 1481.3,1177.0 1514.1,1186.8 1547.1,1195.2 1580.2,1202.2 1613.7,1207.9 1647.7,1212.2 1682.3,1215.1 1717.6,1216.7 1753.9,1216.9 1791.2,1215.6 1829.7,1212.7 1869.5,1208.2 1910.9,1202.0 1953.9,1194.0 1998.7,1183.9 2045.6,1171.7 2094.6,1157.1 2145.9,1140.0 2199.8,1120.2 2256.4,1097.4 2315.8,1071.4 2378.3,1042.0 2444.1,1008.9  Z" style="stroke-width: 2.0;  stroke: rgb(82,82,82); fill: rgb(153,0,204); opacity: 0.667;" />
<path d="M 2444.141,1008.852 A 1064.250,1064.250 0.00 0,1 2446.0,1012.4 L 2446.0,1012.4 2380.9,1047.0 2320.7,1081.2 2265.1,1115.0 2213.7,1148.2 2166.2,1181.1 2122.4,1213.4 2081.9,1245.4 2044.5,1276.9 2010.0,1308.1 1978.0,1339.0 1948.5,1369.6 1921.2,1399.9 1895.9,1430.1 1872.5,1460.3 1850.8,1490.4 1830.7,1520.5 1812.0,1550.9 1794.7,1581.5 1778.6,1612.5 1763.7,1643.9 1750.0,1676.0 1737.3,1708.8 1725.7,1742.5 1715.1,1777.3 1705.6,1813.1 1697.2,1850.3 1689.9,1889.1 1683.8,1929.4 1678.9,1971.6 1675.3,2015.9 1673.1,2062.4 1672.4,2111.3 1673.4,2162.9 1676.2,2217.3 1681.0,2274.8 1687.9,2335.7 1697.1,2400.1 1708.8,2468.3 1723.4,2540.5  A 1064.250,1064.250 0.00 0,0 1727.6,2539.6 L 1727.6,2539.6 1712.8,2467.4 1700.8,2399.3 1691.3,2334.9 1684.2,2274.1 1679.2,2216.6 1676.2,2162.2 1674.9,2110.6 1675.4,2061.7 1677.4,2015.2 1680.8,1970.9 1685.5,1928.7 1691.5,1888.3 1698.7,1849.6 1706.9,1812.3 1716.3,1776.4 1726.7,1741.7 1738.2,1707.9 1750.7,1675.1 1764.3,1642.9 1779.1,1611.4 1795.0,1580.4 1812.2,1549.7 1830.8,1519.3 1850.8,1489.0 1872.4,1458.8 1895.7,1428.6 1920.9,1398.3 1948.0,1367.9 1977.4,1337.2 2009.3,1306.2 2043.7,1274.9 2081.0,1243.2 2121.3,1211.1 2165.0,1178.6 2212.4,1145.6 2263.7,1112.1 2319.2,1078.2 2379.2,1043.7 2444.1,1008.9  Z" style="stroke-width: 2.0;  stroke: rgb(82,82,82); fill: rgb(204,51,255); opacity: 0.667;" />
<path d="M 2444.141,1008.852 A 1064.250,1064.250 0.00 0,1 2446.0,1012.4 L 2446.0,1012.4 2381.0,1046.5 2321.3,1079.3 2266.4,1110.7 2216.2,1140.9 2170.3,1169.9 2128.6,1197.8 2090.7,1224.7 2056.5,1250.7 2025.9,1275.8 1998.5,1300.2 1974.3,1323.8 1953.1,1346.8 1934.8,1369.3 1919.3,1391.3 1906.4,1412.8 1896.1,1434.1 1888.4,1455.2 1883.1,1476.1 1880.3,1496.9 1879.9,1517.7 1881.9,1538.6 1886.4,1559.7 1893.3,1581.0 1902.8,1602.7 1914.8,1624.7 1929.5,1647.3 1946.9,1670.4 1967.2,1694.2 1990.5,1718.8 2016.9,1744.1 2046.6,1770.4 2079.7,1797.7 2116.5,1826.0 2157.2,1855.5 2201.9,1886.3 2251.0,1918.4 2304.6,1951.9 2363.0,1986.9 2426.6,2023.5  A 1064.250,1064.250 0.00 0,0 2428.5,2020.1 L 2428.5,2020.1 2364.8,1983.7 2306.2,1948.9 2252.5,1915.6 2203.3,1883.7 2158.5,1853.1 2117.7,1823.8 2080.8,1795.5 2047.6,1768.4 2017.8,1742.2 1991.3,1717.0 1967.9,1692.5 1947.5,1668.8 1930.0,1645.7 1915.3,1623.2 1903.2,1601.2 1893.6,1579.6 1886.6,1558.3 1882.1,1537.2 1880.0,1516.3 1880.3,1495.5 1883.0,1474.6 1888.2,1453.7 1895.9,1432.6 1906.1,1411.3 1918.9,1389.7 1934.3,1367.6 1952.5,1345.1 1973.6,1322.0 1997.8,1298.3 2025.0,1273.9 2055.6,1248.6 2089.7,1222.5 2127.4,1195.5 2169.1,1167.4 2214.8,1138.2 2265.0,1107.8 2319.7,1076.2 2379.3,1043.2 2444.1,1008.9  Z" style="stroke-width: 2.0;  stroke: rgb(82,82,82); fill: rgb(204,153,255); opacity: 0.667;" />
<path d="M 2410.378,948.784 A 1064.250,1064.250 0.00 0,1 2412.5,952.4 L 2412.5,952.4 2349.2,989.6 2289.7,1023.0 2233.7,1052.9 2181.1,1079.5 2131.5,1103.0 2085.0,1123.5 2041.2,1141.2 1999.9,1156.2 1961.1,1168.8 1924.6,1178.9 1890.2,1186.8 1857.7,1192.4 1827.1,1195.9 1798.2,1197.4 1770.8,1196.8 1744.9,1194.2 1720.3,1189.7 1696.9,1183.2 1674.7,1174.7 1653.5,1164.2 1633.3,1151.6 1614.0,1137.0 1595.5,1120.1 1577.8,1101.0 1560.8,1079.6 1544.4,1055.6 1528.7,1029.1 1513.6,999.8 1499.0,967.7 1485.0,932.4 1471.6,893.9 1458.7,852.0 1446.3,806.4 1434.5,756.9 1423.2,703.3 1412.6,645.3 1402.5,582.6 1393.2,514.9 1384.6,442.0  A 1064.250,1064.250 0.00 0,0 1380.6,442.5 L 1380.6,442.5 1389.5,515.3 1399.1,582.9 1409.4,645.6 1420.2,703.6 1431.7,757.2 1443.7,806.6 1456.2,852.2 1469.3,894.1 1482.9,932.5 1497.0,967.7 1511.7,999.8 1527.0,1029.0 1542.8,1055.4 1559.2,1079.3 1576.3,1100.7 1594.1,1119.7 1612.6,1136.5 1632.0,1151.1 1652.2,1163.6 1673.4,1174.0 1695.7,1182.4 1719.1,1188.8 1743.7,1193.3 1769.6,1195.8 1797.0,1196.2 1825.9,1194.7 1856.5,1191.0 1889.0,1185.3 1923.4,1177.3 1959.9,1167.0 1998.6,1154.3 2039.7,1139.1 2083.5,1121.2 2130.0,1100.5 2179.4,1076.9 2232.0,1050.0 2287.8,1019.9 2347.2,986.2 2410.4,948.8  Z" style="stroke-width: 2.0;  stroke: rgb(82,82,82); fill: rgb(102,102,102); opacity: 0.667;" />
<path d="M 2410.378,948.784 A 1064.250,1064.250 0.00 0,1 2412.5,952.4 L 2412.5,952.4 2349.2,989.5 2289.5,1022.9 2233.2,1052.7 2180.2,1079.2 2130.2,1102.5 2083.1,1122.9 2038.6,1140.4 1996.6,1155.4 1957.0,1167.8 1919.5,1177.8 1884.0,1185.6 1850.4,1191.2 1818.5,1194.7 1788.2,1196.1 1759.4,1195.6 1731.9,1193.2 1705.6,1188.8 1680.4,1182.5 1656.2,1174.3 1632.9,1164.1 1610.4,1151.9 1588.7,1137.7 1567.6,1121.4 1547.1,1102.9 1527.1,1082.1 1507.6,1058.8 1488.5,1033.0 1469.8,1004.6 1451.4,973.3 1433.3,939.0 1415.5,901.4 1397.9,860.5 1380.6,815.9 1363.5,767.5 1346.6,715.0 1330.0,658.1 1313.7,596.6 1297.6,530.1 1281.9,458.3  A 1064.250,1064.250 0.00 0,0 1278.0,459.2 L 1278.0,459.2 1294.0,530.8 1310.3,597.3 1326.9,658.7 1343.7,715.6 1360.8,768.0 1378.0,816.4 1395.5,860.9 1413.3,901.7 1431.2,939.2 1449.5,973.5 1468.0,1004.7 1486.8,1033.1 1506.0,1058.8 1525.6,1081.9 1545.6,1102.7 1566.2,1121.1 1587.3,1137.4 1609.1,1151.5 1631.6,1163.6 1654.9,1173.7 1679.2,1181.8 1704.4,1188.0 1730.7,1192.3 1758.2,1194.6 1787.1,1195.0 1817.4,1193.4 1849.2,1189.8 1882.8,1184.1 1918.2,1176.2 1955.7,1166.0 1995.3,1153.4 2037.2,1138.3 2081.6,1120.6 2128.6,1100.1 2178.5,1076.5 2231.5,1049.9 2287.6,1019.8 2347.2,986.2 2410.4,948.8  Z" style="stroke-width: 2.0;  stroke: rgb(82,82,82); fill: rgb(153,153,153); opacity: 0.667;" />
<path d="M 2410.378,948.784 A 1064.250,1064.250 0.00 0,1 2412.5,952.4 L 2412.5,952.4 2348.9,989.5 2288.4,1022.6 2230.9,1052.2 2176.1,1078.4 2123.9,1101.4 2074.1,1121.6 2026.5,1139.0 1981.0,1154.0 1937.5,1166.6 1895.7,1177.1 1855.5,1185.5 1816.8,1192.1 1779.3,1196.8 1743.0,1199.9 1707.8,1201.4 1673.4,1201.3 1639.7,1199.8 1606.6,1196.7 1574.0,1192.2 1541.7,1186.2 1509.7,1178.6 1477.7,1169.6 1445.7,1159.0 1413.6,1146.6 1381.2,1132.6 1348.5,1116.6 1315.3,1098.7 1281.5,1078.6 1247.0,1056.3 1211.8,1031.5 1175.7,1004.0 1138.7,973.7 1100.6,940.3 1061.4,903.6 1021.0,863.3 979.3,819.2 936.2,770.9 891.7,718.2 845.7,660.6  A 1064.250,1064.250 0.00 0,0 842.5,663.2 L 842.5,663.2 888.7,720.5 933.4,773.1 976.6,821.2 1018.5,865.2 1059.1,905.3 1098.4,941.9 1136.6,975.1 1173.8,1005.3 1210.0,1032.6 1245.3,1057.3 1279.9,1079.5 1313.7,1099.4 1347.0,1117.2 1379.8,1133.0 1412.2,1147.0 1444.4,1159.2 1476.4,1169.7 1508.4,1178.6 1540.5,1186.0 1572.8,1191.9 1605.4,1196.3 1638.5,1199.2 1672.2,1200.7 1706.6,1200.6 1741.9,1199.0 1778.1,1195.7 1815.6,1190.8 1854.3,1184.1 1894.4,1175.5 1936.2,1164.9 1979.7,1152.1 2025.1,1136.9 2072.6,1119.3 2122.3,1099.0 2174.4,1075.7 2229.1,1049.3 2286.6,1019.5 2346.9,986.1 2410.4,948.8  Z" style="stroke-width: 2.0;  stroke: rgb(82,82,82); fill: rgb(204,204,204); opacity: 0.667;" />
<path d="M 2410.378,948.784 A 1064.250,1064.250 0.00 0,1 2412.5,952.4 L 2412.5,952.4 2348.9,989.5 2288.4,1022.6 2230.8,1052.2 2176.0,1078.4 2123.7,1101.4 2073.9,1121.6 2026.3,1139.0 1980.7,1154.0 1937.1,1166.6 1895.2,1177.1 1855.0,1185.6 1816.1,1192.2 1778.6,1197.0 1742.2,1200.2 1706.8,1201.7 1672.3,1201.7 1638.5,1200.2 1605.3,1197.2 1572.5,1192.8 1540.1,1186.9 1507.9,1179.6 1475.7,1170.7 1443.6,1160.2 1411.2,1148.1 1378.6,1134.2 1345.7,1118.4 1312.2,1100.7 1278.2,1080.9 1243.4,1058.8 1207.9,1034.3 1171.5,1007.1 1134.2,977.1 1095.7,944.0 1056.1,907.6 1015.3,867.7 973.2,823.9 929.6,776.0 884.7,723.7 838.1,666.6  A 1064.250,1064.250 0.00 0,0 835.1,669.0 L 835.1,669.0 881.8,726.0 927.0,778.1 970.7,825.9 1013.0,869.5 1053.9,909.3 1093.7,945.5 1132.2,978.4 1169.7,1008.3 1206.2,1035.3 1241.8,1059.8 1276.6,1081.7 1310.7,1101.4 1344.2,1119.0 1377.3,1134.6 1409.9,1148.4 1442.3,1160.4 1474.5,1170.7 1506.7,1179.5 1538.9,1186.8 1571.3,1192.5 1604.1,1196.8 1637.3,1199.7 1671.1,1201.0 1705.7,1200.9 1741.0,1199.2 1777.4,1195.9 1814.9,1190.9 1853.7,1184.2 1894.0,1175.6 1935.8,1164.9 1979.4,1152.1 2024.9,1137.0 2072.4,1119.3 2122.2,1099.0 2174.3,1075.7 2229.1,1049.3 2286.5,1019.5 2346.9,986.1 2410.4,948.8  Z" style="stroke-width: 2.0;  stroke: rgb(82,82,82); fill: rgb(204,204,153); opacity: 0.667;" />
<path d="M 2410.378,948.784 A 1064.250,1064.250 0.00 0,1 2412.5,952.4 L 2412.5,952.4 2349.8,991.2 2291.9,1029.3 2238.5,1066.7 2189.2,1103.4 2143.8,1139.5 2101.9,1174.9 2063.3,1209.7 2027.7,1244.0 1994.8,1277.7 1964.5,1310.9 1936.5,1343.7 1910.6,1376.1 1886.6,1408.3 1864.4,1440.2 1843.8,1472.0 1824.7,1503.8 1807.0,1535.7 1790.5,1567.7 1775.2,1600.0 1761.0,1632.7 1747.9,1665.9 1735.7,1699.8 1724.6,1734.5 1714.4,1770.2 1705.3,1807.0 1697.1,1845.0 1690.0,1884.5 1684.0,1925.5 1679.2,1968.4 1675.6,2013.3 1673.4,2060.3 1672.8,2109.7 1673.7,2161.7 1676.5,2216.5 1681.2,2274.3 1688.0,2335.4 1697.1,2399.9 1708.9,2468.2 1723.4,2540.5  A 1064.250,1064.250 0.00 0,0 1727.6,2539.6 L 1727.6,2539.6 1712.8,2467.4 1700.8,2399.1 1691.4,2334.6 1684.3,2273.5 1679.4,2215.7 1676.4,2160.9 1675.3,2109.0 1675.7,2059.6 1677.7,2012.5 1681.1,1967.7 1685.7,1924.8 1691.6,1883.7 1698.5,1844.2 1706.5,1806.1 1715.5,1769.3 1725.6,1733.6 1736.6,1698.9 1748.6,1664.9 1761.6,1631.7 1775.6,1598.9 1790.8,1566.5 1807.1,1534.5 1824.8,1502.5 1843.7,1470.7 1864.2,1438.8 1886.2,1406.8 1910.1,1374.5 1935.9,1342.0 1963.7,1309.1 1993.9,1275.7 2026.7,1241.9 2062.2,1207.5 2100.6,1172.6 2142.4,1137.0 2187.7,1100.7 2236.8,1063.8 2290.1,1026.2 2347.8,987.8 2410.4,948.8  Z" style="stroke-width: 2.0;  stroke: rgb(82,82,82); fill: rgb(251,106,74); opacity: 0.667;" />
<path d="M 2410.378,948.784 A 1064.250,1064.250 0.00 0,1 2412.5,952.4 L 2412.5,952.4 2349.9,990.7 2292.4,1027.3 2239.7,1062.4 2191.5,1096.0 2147.6,1128.3 2107.6,1159.2 2071.5,1189.0 2039.0,1217.6 2009.9,1245.2 1984.0,1271.9 1961.2,1297.7 1941.3,1322.8 1924.2,1347.1 1909.8,1370.9 1898.0,1394.2 1888.7,1417.1 1881.9,1439.6 1877.4,1461.9 1875.3,1484.0 1875.6,1506.1 1878.3,1528.2 1883.3,1550.3 1890.7,1572.7 1900.6,1595.3 1913.1,1618.3 1928.1,1641.7 1945.8,1665.6 1966.3,1690.1 1989.8,1715.3 2016.4,1741.3 2046.2,1768.2 2079.5,1795.9 2116.4,1824.7 2157.1,1854.6 2201.9,1885.7 2250.9,1918.0 2304.6,1951.7 2363.0,1986.9 2426.6,2023.5  A 1064.250,1064.250 0.00 0,0 2428.5,2020.1 L 2428.5,2020.1 2364.8,1983.7 2306.2,1948.8 2252.5,1915.3 2203.3,1883.1 2158.4,1852.2 2117.6,1822.4 2080.6,1793.8 2047.2,1766.1 2017.3,1739.4 1990.6,1713.5 1967.0,1688.4 1946.4,1663.9 1928.6,1640.1 1913.5,1616.7 1901.0,1593.8 1891.0,1571.2 1883.5,1548.9 1878.4,1526.7 1875.6,1504.7 1875.3,1482.6 1877.3,1460.5 1881.6,1438.2 1888.4,1415.6 1897.6,1392.7 1909.3,1369.3 1923.6,1345.5 1940.6,1321.0 1960.4,1295.9 1983.1,1270.0 2008.9,1243.2 2037.9,1215.5 2070.3,1186.7 2106.3,1156.8 2146.1,1125.7 2189.9,1093.3 2238.0,1059.5 2290.6,1024.2 2347.9,987.3 2410.4,948.8  Z" style="stroke-width: 2.0;  stroke: rgb(82,82,82); fill: rgb(116,196,118); opacity: 0.667;" />
<path d="M 2410.378,948.784 A 1064.250,1064.250 0.00 0,1 2412.5,952.4 L 2412.5,952.4 2349.8,990.1 2291.9,1025.0 2238.5,1057.2 2189.5,1087.0 2144.6,1114.3 2103.6,1139.3 2066.4,1162.2 2032.7,1183.0 2002.5,1201.9 1975.5,1218.8 1951.7,1234.0 1930.9,1247.4 1913.0,1259.1 1897.9,1269.3 1885.6,1277.8 1875.9,1284.9 1868.9,1290.5 1864.4,1294.6 1862.6,1297.2 1863.3,1298.5 1866.5,1298.3 1872.3,1296.7 1880.8,1293.6 1891.8,1289.1 1905.6,1283.1 1922.2,1275.7 1941.6,1266.6 1963.9,1256.0 1989.4,1243.7 2018.0,1229.7 2049.9,1213.9 2085.3,1196.2 2124.4,1176.6 2167.2,1155.0 2214.1,1131.2 2265.2,1105.2 2320.7,1076.8 2380.9,1045.9 2446.0,1012.4  A 1064.250,1064.250 0.00 0,0 2444.1,1008.9 L 2444.1,1008.9 2379.2,1042.6 2319.1,1073.7 2263.7,1102.3 2212.7,1128.5 2165.9,1152.5 2123.1,1174.3 2084.2,1194.1 2048.8,1211.8 2016.9,1227.7 1988.4,1241.9 1963.0,1254.2 1940.7,1265.0 1921.3,1274.1 1904.8,1281.6 1891.0,1287.6 1880.0,1292.2 1871.6,1295.2 1865.7,1296.9 1862.5,1297.1 1861.8,1295.8 1863.7,1293.2 1868.1,1289.0 1875.1,1283.4 1884.7,1276.4 1897.0,1267.7 1912.0,1257.5 1929.9,1245.7 1950.6,1232.2 1974.4,1217.0 2001.3,1199.9 2031.5,1181.0 2065.0,1160.0 2102.2,1137.0 2143.0,1111.8 2187.8,1084.3 2236.7,1054.3 2290.0,1021.9 2347.8,986.7 2410.4,948.8  Z" style="stroke-width: 2.0;  stroke: rgb(82,82,82); fill: rgb(107,174,214); opacity: 0.667;" />
<path d="M 2253.487,748.411 A 1064.250,1064.250 0.00 0,1 2256.1,751.1 L 2256.1,751.1 2203.7,802.3 2154.2,849.1 2107.6,891.6 2063.8,930.1 2022.4,964.9 1983.5,996.0 1946.8,1023.8 1912.3,1048.4 1879.7,1069.8 1849.1,1088.4 1820.1,1104.1 1792.8,1117.2 1766.9,1127.6 1742.5,1135.5 1719.4,1141.0 1697.5,1144.1 1676.7,1144.8 1656.9,1143.1 1638.1,1139.1 1620.1,1132.7 1603.0,1124.0 1586.6,1112.8 1570.9,1099.2 1555.8,1083.0 1541.3,1064.2 1527.3,1042.6 1513.8,1018.3 1500.8,990.9 1488.2,960.4 1476.1,926.7 1464.3,889.5 1453.0,848.7 1442.0,804.0 1431.4,755.3 1421.2,702.3 1411.4,644.7 1402.0,582.3 1393.1,514.9 1384.6,442.0  A 1064.250,1064.250 0.00 0,0 1380.6,442.5 L 1380.6,442.5 1389.4,515.3 1398.6,582.7 1408.2,645.0 1418.2,702.6 1428.6,755.5 1439.4,804.2 1450.5,848.9 1462.0,889.7 1473.9,926.8 1486.2,960.5 1498.9,990.9 1512.0,1018.2 1525.6,1042.6 1539.6,1064.0 1554.2,1082.8 1569.4,1098.9 1585.2,1112.5 1601.6,1123.6 1618.8,1132.3 1636.8,1138.6 1655.6,1142.5 1675.4,1144.1 1696.2,1143.4 1718.1,1140.2 1741.2,1134.7 1765.6,1126.7 1791.4,1116.1 1818.7,1103.0 1847.6,1087.2 1878.2,1068.5 1910.7,1046.9 1945.1,1022.2 1981.7,994.3 2020.5,963.0 2061.7,928.1 2105.5,889.4 2151.9,846.7 2201.2,799.8 2253.5,748.4  Z" style="stroke-width: 2.0;  stroke: rgb(82,82,82); fill: rgb(253,141,60); opacity: 0.667;" />
<path d="M 2253.487,748.411 A 1064.250,1064.250 0.00 0,1 2256.1,751.1 L 2256.1,751.1 2203.6,802.3 2154.0,849.0 2107.1,891.4 2062.9,929.9 2021.0,964.5 1981.5,995.6 1944.2,1023.3 1908.9,1047.7 1875.4,1069.1 1843.8,1087.6 1813.8,1103.3 1785.3,1116.4 1758.2,1126.9 1732.4,1134.8 1707.8,1140.4 1684.2,1143.6 1661.7,1144.5 1640.1,1143.1 1619.3,1139.3 1599.2,1133.3 1579.8,1125.0 1561.0,1114.2 1542.7,1101.1 1524.8,1085.5 1507.4,1067.2 1490.3,1046.4 1473.4,1022.7 1456.8,996.1 1440.4,966.4 1424.2,933.6 1408.1,897.3 1392.1,857.4 1376.2,813.7 1360.4,766.0 1344.6,714.1 1328.8,657.6 1313.1,596.3 1297.5,530.0 1281.9,458.3  A 1064.250,1064.250 0.00 0,0 1278.0,459.2 L 1278.0,459.2 1293.9,530.8 1309.8,597.0 1325.7,658.2 1341.7,714.6 1357.7,766.5 1373.7,814.2 1389.8,857.8 1405.9,897.6 1422.1,933.9 1438.5,966.7 1455.0,996.3 1471.7,1022.8 1488.6,1046.4 1505.8,1067.2 1523.3,1085.4 1541.2,1100.9 1559.6,1114.0 1578.5,1124.7 1597.9,1133.0 1618.0,1138.9 1638.8,1142.6 1660.4,1143.9 1683.0,1143.0 1706.5,1139.7 1731.0,1134.0 1756.8,1125.9 1783.9,1115.4 1812.3,1102.2 1842.3,1086.4 1873.9,1067.8 1907.3,1046.3 1942.5,1021.7 1979.7,993.9 2019.1,962.7 2060.8,927.9 2105.0,889.3 2151.7,846.7 2201.1,799.8 2253.5,748.4  Z" style="stroke-width: 2.0;  stroke: rgb(82,82,82); fill: rgb(255,0,0); opacity: 0.667;" />
<path d="M 2253.487,748.411 A 1064.250,1064.250 0.00 0,1 2256.1,751.1 L 2256.1,751.1 2203.3,802.2 2152.9,848.8 2104.7,891.2 2058.6,929.5 2014.6,964.1 1972.3,995.2 1931.8,1023.0 1893.0,1047.7 1855.6,1069.6 1819.5,1088.8 1784.7,1105.4 1751.0,1119.6 1718.3,1131.6 1686.5,1141.4 1655.4,1149.1 1625.0,1154.8 1595.1,1158.5 1565.6,1160.4 1536.4,1160.4 1507.3,1158.6 1478.3,1154.8 1449.3,1149.2 1420.1,1141.6 1390.7,1132.1 1360.8,1120.5 1330.5,1106.7 1299.6,1090.7 1268.0,1072.3 1235.6,1051.3 1202.3,1027.7 1168.0,1001.2 1132.6,971.7 1096.0,939.0 1058.1,902.7 1018.8,862.8 978.0,818.9 935.6,770.8 891.5,718.1 845.7,660.6  A 1064.250,1064.250 0.00 0,0 842.5,663.2 L 842.5,663.2 888.5,720.5 932.8,773.0 975.4,820.9 1016.4,864.7 1055.8,904.4 1093.9,940.5 1130.6,973.1 1166.1,1002.5 1200.5,1028.9 1233.9,1052.3 1266.4,1073.2 1298.0,1091.5 1329.0,1107.4 1359.4,1121.0 1389.3,1132.5 1418.8,1142.0 1448.0,1149.4 1477.0,1154.9 1506.0,1158.6 1535.1,1160.3 1564.3,1160.2 1593.8,1158.2 1623.7,1154.3 1654.2,1148.5 1685.2,1140.7 1717.0,1130.8 1749.7,1118.7 1783.3,1104.4 1818.1,1087.6 1854.0,1068.3 1891.3,1046.3 1930.1,1021.4 1970.5,993.5 2012.6,962.2 2056.6,927.5 2102.5,889.0 2150.6,846.5 2200.9,799.8 2253.5,748.4  Z" style="stroke-width: 2.0;  stroke: rgb(82,82,82); fill: rgb(255,0,204); opacity: 0.667;" />
<path d="M 2253.487,748.411 A 1064.250,1064.250 0.00 0,1 2256.1,751.1 L 2256.1,751.1 2203.3,802.2 2152.9,848.8 2104.7,891.2 2058.5,929.5 2014.4,964.1 1972.1,995.2 1931.6,1023.0 1892.7,1047.8 1855.2,1069.7 1819.1,1088.9 1784.2,1105.5 1750.4,1119.8 1717.6,1131.8 1685.7,1141.6 1654.5,1149.4 1623.9,1155.2 1593.9,1159.1 1564.2,1161.0 1534.8,1161.1 1505.6,1159.4 1476.5,1155.8 1447.3,1150.3 1417.9,1142.9 1388.3,1133.6 1358.2,1122.1 1327.7,1108.6 1296.5,1092.7 1264.7,1074.6 1232.0,1053.9 1198.4,1030.5 1163.8,1004.3 1128.1,975.1 1091.1,942.7 1052.9,906.8 1013.2,867.2 971.9,823.7 929.1,775.9 884.5,723.7 838.1,666.6  A 1064.250,1064.250 0.00 0,0 835.1,669.0 L 835.1,669.0 881.7,725.9 926.4,778.0 969.4,825.6 1010.8,869.0 1050.7,908.4 1089.1,944.2 1126.2,976.5 1162.0,1005.6 1196.7,1031.6 1230.4,1054.9 1263.1,1075.4 1295.0,1093.5 1326.2,1109.2 1356.8,1122.7 1386.9,1134.0 1416.6,1143.2 1446.0,1150.5 1475.2,1155.9 1504.4,1159.4 1533.6,1161.0 1563.0,1160.8 1592.6,1158.7 1622.7,1154.8 1653.2,1148.9 1684.4,1141.0 1716.3,1131.0 1749.0,1118.9 1782.8,1104.5 1817.6,1087.7 1853.7,1068.4 1891.0,1046.4 1929.9,1021.5 1970.4,993.5 2012.5,962.3 2056.5,927.5 2102.5,889.0 2150.6,846.5 2200.8,799.8 2253.5,748.4  Z" style="stroke-width: 2.0;  stroke: rgb(82,82,82); fill: rgb(255,204,204); opacity: 0.667;" />
<path d="M 2253.487,748.411 A 1064.250,1064.250 0.00 0,1 2256.1,751.1 L 2256.1,751.1 2204.4,803.8 2157.1,855.0 2113.9,904.7 2074.4,952.9 2038.4,999.8 2005.4,1045.3 1975.3,1089.6 1947.8,1132.7 1922.7,1174.7 1899.6,1215.7 1878.4,1255.8 1858.9,1295.1 1840.9,1333.7 1824.3,1371.6 1808.9,1409.1 1794.5,1446.2 1781.1,1483.0 1768.6,1519.7 1756.9,1556.4 1745.9,1593.3 1735.7,1630.4 1726.0,1668.0 1717.1,1706.1 1708.8,1745.0 1701.2,1784.8 1694.4,1825.7 1688.4,1867.8 1683.2,1911.4 1679.0,1956.5 1675.9,2003.5 1674.0,2052.4 1673.4,2103.6 1674.4,2157.1 1677.1,2213.2 1681.6,2272.2 1688.3,2334.2 1697.3,2399.4 1708.9,2468.1 1723.4,2540.5  A 1064.250,1064.250 0.00 0,0 1727.6,2539.6 L 1727.6,2539.6 1712.9,2467.2 1701.0,2398.6 1691.7,2333.4 1684.8,2271.4 1680.0,2212.5 1677.1,2156.4 1675.9,2102.9 1676.2,2051.7 1678.0,2002.8 1680.9,1955.8 1684.9,1910.7 1689.9,1867.1 1695.8,1825.0 1702.4,1784.1 1709.9,1744.2 1718.0,1705.3 1726.8,1667.1 1736.2,1629.5 1746.4,1592.4 1757.2,1555.5 1768.8,1518.7 1781.1,1482.0 1794.4,1445.1 1808.6,1408.0 1823.9,1370.4 1840.3,1332.4 1858.2,1293.8 1877.5,1254.5 1898.6,1214.3 1921.5,1173.2 1946.5,1131.1 1973.9,1087.9 2003.8,1043.5 2036.6,997.9 2072.5,950.9 2111.8,902.5 2154.8,852.7 2202.0,801.3 2253.5,748.4  Z" style="stroke-width: 2.0;  stroke: rgb(82,82,82); fill: rgb(255,153,0); opacity: 0.667;" />
<path d="M 2253.487,748.411 A 1064.250,1064.250 0.00 0,1 2256.1,751.1 L 2256.1,751.1 2204.5,803.3 2157.4,853.0 2114.6,900.3 2075.9,945.4 2040.9,988.4 2009.5,1029.4 1981.5,1068.5 1956.6,1106.0 1934.7,1141.8 1915.6,1176.2 1899.2,1209.3 1885.3,1241.1 1873.8,1271.9 1864.6,1301.6 1857.6,1330.5 1852.8,1358.7 1850.2,1386.1 1849.6,1413.1 1851.0,1439.6 1854.5,1465.8 1860.1,1491.8 1867.8,1517.7 1877.6,1543.5 1889.6,1569.4 1903.9,1595.4 1920.6,1621.7 1939.8,1648.4 1961.6,1675.4 1986.2,1703.0 2013.6,1731.1 2044.2,1760.0 2078.1,1789.5 2115.4,1819.9 2156.5,1851.2 2201.5,1883.5 2250.8,1916.8 2304.5,1951.2 2363.0,1986.7 2426.6,2023.5  A 1064.250,1064.250 0.00 0,0 2428.5,2020.1 L 2428.5,2020.1 2364.8,1983.5 2306.2,1948.2 2252.3,1914.0 2202.9,1880.9 2157.8,1848.8 2116.6,1817.7 2079.1,1787.4 2045.2,1758.0 2014.5,1729.3 1986.9,1701.2 1962.3,1673.7 1940.4,1646.8 1921.1,1620.2 1904.3,1594.0 1889.9,1568.0 1877.8,1542.1 1867.9,1516.3 1860.1,1490.5 1854.4,1464.6 1850.8,1438.4 1849.3,1411.9 1849.8,1384.9 1852.3,1357.4 1857.0,1329.2 1863.9,1300.3 1873.0,1270.5 1884.3,1239.7 1898.1,1207.8 1914.5,1174.7 1933.4,1140.3 1955.2,1104.3 1980.0,1066.8 2007.9,1027.6 2039.1,986.5 2073.9,943.4 2112.5,898.2 2155.1,850.7 2202.0,800.8 2253.5,748.4  Z" style="stroke-width: 2.0;  stroke: rgb(82,82,82); fill: rgb(255,204,0); opacity: 0.667;" />
<path d="M 2253.487,748.411 A 1064.250,1064.250 0.00 0,1 2256.1,751.1 L 2256.1,751.1 2204.3,802.7 2156.6,850.8 2112.8,895.3 2072.9,936.7 2036.6,974.9 2003.6,1010.1 1974.0,1042.6 1947.4,1072.4 1923.9,1099.6 1903.2,1124.5 1885.2,1147.0 1869.9,1167.4 1857.2,1185.6 1846.9,1201.9 1839.1,1216.2 1833.7,1228.6 1830.7,1239.2 1829.9,1248.0 1831.5,1255.1 1835.4,1260.4 1841.7,1264.1 1850.3,1266.2 1861.3,1266.5 1874.8,1265.2 1890.8,1262.2 1909.4,1257.5 1930.7,1251.0 1954.8,1242.8 1981.8,1232.7 2011.8,1220.6 2045.0,1206.7 2081.5,1190.6 2121.6,1172.5 2165.3,1152.0 2212.8,1129.3 2264.5,1104.1 2320.4,1076.3 2380.8,1045.8 2446.0,1012.4  A 1064.250,1064.250 0.00 0,0 2444.1,1008.9 L 2444.1,1008.9 2379.1,1042.5 2318.8,1073.2 2263.0,1101.2 2211.5,1126.6 2164.0,1149.6 2120.3,1170.1 2080.4,1188.5 2043.9,1204.6 2010.7,1218.7 1980.8,1230.9 1953.8,1241.1 1929.8,1249.4 1908.5,1256.0 1889.9,1260.8 1873.9,1263.8 1860.4,1265.2 1849.4,1264.9 1840.8,1262.9 1834.5,1259.2 1830.6,1253.9 1829.0,1246.8 1829.7,1238.0 1832.7,1227.4 1838.1,1214.9 1845.9,1200.6 1856.1,1184.4 1868.7,1166.1 1884.0,1145.7 1901.8,1123.0 1922.4,1098.1 1945.9,1070.8 1972.3,1040.9 2001.9,1008.3 2034.7,973.0 2070.9,934.6 2110.7,893.2 2154.3,848.4 2201.8,800.3 2253.5,748.4  Z" style="stroke-width: 2.0;  stroke: rgb(82,82,82); fill: rgb(255,255,0); opacity: 0.667;" />
<path d="M 2253.487,748.411 A 1064.250,1064.250 0.00 0,1 2256.1,751.1 L 2256.1,751.1 2204.2,802.7 2156.5,850.6 2112.6,895.1 2072.5,936.2 2036.0,974.1 2002.9,1009.0 1972.9,1041.1 1946.1,1070.4 1922.2,1097.2 1901.2,1121.5 1882.8,1143.4 1867.1,1163.1 1853.9,1180.6 1843.2,1196.1 1834.9,1209.5 1828.9,1221.0 1825.3,1230.6 1823.9,1238.3 1824.9,1244.2 1828.1,1248.4 1833.6,1250.8 1841.5,1251.4 1851.6,1250.2 1864.2,1247.3 1879.3,1242.5 1896.9,1236.0 1917.2,1227.5 1940.1,1217.2 1965.9,1204.8 1994.6,1190.4 2026.5,1173.9 2061.6,1155.1 2100.0,1134.1 2142.1,1110.6 2187.8,1084.5 2237.6,1055.8 2291.4,1024.3 2349.7,989.9 2412.5,952.4  A 1064.250,1064.250 0.00 0,0 2410.4,948.8 L 2410.4,948.8 2347.7,986.6 2289.6,1021.2 2235.8,1053.0 2186.2,1081.8 2140.5,1108.1 2098.6,1131.7 2060.2,1152.9 2025.2,1171.8 1993.4,1188.5 1964.8,1203.0 1939.0,1215.5 1916.1,1225.9 1895.9,1234.4 1878.3,1241.1 1863.3,1245.9 1850.7,1248.9 1840.5,1250.1 1832.7,1249.5 1827.2,1247.2 1823.9,1243.0 1823.0,1237.1 1824.3,1229.4 1827.9,1219.8 1833.8,1208.3 1842.1,1194.8 1852.8,1179.3 1865.9,1161.8 1881.5,1142.1 1899.8,1120.1 1920.8,1095.7 1944.6,1068.8 1971.3,1039.4 2001.1,1007.2 2034.1,972.2 2070.5,934.1 2110.5,892.9 2154.2,848.3 2201.8,800.2 2253.5,748.4  Z" style="stroke-width: 2.0;  stroke: rgb(82,82,82); fill: rgb(204,255,0); opacity: 0.667;" />
<path d="M 2200.299,698.621 A 1064.250,1064.250 0.00 0,1 2206.3,703.9 L 2206.3,703.9 2157.8,758.8 2113.4,809.8 2072.7,857.2 2035.6,901.1 2001.9,941.8 1971.4,979.3 1944.1,1013.8 1919.7,1045.5 1898.1,1074.5 1879.3,1100.9 1863.1,1124.9 1849.3,1146.6 1838.1,1166.0 1829.2,1183.3 1822.6,1198.5 1818.3,1211.8 1816.3,1223.1 1816.5,1232.5 1818.9,1240.2 1823.5,1246.0 1830.4,1250.0 1839.6,1252.2 1851.1,1252.7 1864.9,1251.5 1881.2,1248.4 1900.1,1243.5 1921.5,1236.8 1945.7,1228.2 1972.6,1217.6 2002.6,1205.0 2035.6,1190.3 2071.9,1173.5 2111.5,1154.4 2154.8,1132.9 2201.8,1108.9 2252.8,1082.4 2308.0,1053.1 2367.5,1020.9 2431.8,985.7  A 1064.250,1064.250 0.00 0,0 2427.9,978.8 L 2427.9,978.8 2364.0,1014.5 2304.6,1047.1 2249.7,1076.8 2198.9,1103.7 2152.0,1128.0 2108.9,1149.8 2069.4,1169.2 2033.3,1186.3 2000.4,1201.3 1970.5,1214.1 1943.6,1224.8 1919.5,1233.6 1898.1,1240.5 1879.4,1245.5 1863.1,1248.7 1849.2,1250.1 1837.7,1249.7 1828.5,1247.5 1821.6,1243.6 1816.9,1237.8 1814.4,1230.2 1814.2,1220.8 1816.1,1209.4 1820.3,1196.1 1826.8,1180.8 1835.6,1163.5 1846.7,1144.0 1860.2,1122.2 1876.3,1098.1 1894.9,1071.5 1916.3,1042.3 1940.5,1010.5 1967.5,975.7 1997.7,938.0 2031.1,897.2 2067.9,853.0 2108.2,805.3 2152.3,753.9 2200.3,698.6  Z" style="stroke-width: 2.0;  stroke: rgb(82,82,82); fill: rgb(0,255,0); opacity: 0.667;" />
<path d="M 1774.205,471.681 A 1064.250,1064.250 0.00 0,1 1781.0,473.5 L 1781.0,473.5 1761.9,544.2 1744.6,609.7 1729.1,670.2 1715.3,726.0 1703.1,777.4 1692.5,824.5 1683.3,867.6 1675.5,906.8 1669.1,942.4 1663.9,974.5 1660.1,1003.2 1657.5,1028.8 1656.0,1051.3 1655.8,1070.8 1656.8,1087.4 1658.9,1101.3 1662.2,1112.4 1666.7,1120.9 1672.4,1126.8 1679.3,1130.0 1687.4,1130.7 1696.8,1128.8 1707.5,1124.3 1719.6,1117.2 1733.1,1107.4 1748.0,1094.8 1764.5,1079.5 1782.6,1061.2 1802.4,1040.0 1824.0,1015.7 1847.5,988.2 1872.9,957.3 1900.3,922.8 1930.0,884.7 1962.0,842.7 1996.4,796.7 2033.4,746.3 2073.1,691.5 2115.6,631.9  A 1064.250,1064.250 0.00 0,0 2109.8,627.8 L 2109.8,627.8 2067.7,687.7 2028.4,742.8 1991.7,793.4 1957.6,839.7 1925.9,881.9 1896.5,920.2 1869.2,954.8 1844.0,985.9 1820.8,1013.6 1799.4,1038.0 1779.7,1059.4 1761.7,1077.7 1745.4,1093.2 1730.5,1105.8 1717.1,1115.7 1705.0,1122.9 1694.4,1127.5 1685.0,1129.5 1676.8,1128.9 1669.9,1125.6 1664.2,1119.8 1659.7,1111.4 1656.3,1100.3 1654.1,1086.4 1653.0,1069.8 1653.1,1050.3 1654.3,1027.8 1656.8,1002.2 1660.4,973.4 1665.4,941.3 1671.5,905.6 1679.1,866.4 1688.0,823.2 1698.3,776.0 1710.2,724.6 1723.6,668.7 1738.7,608.1 1755.5,542.5 1774.2,471.7  Z" style="stroke-width: 2.0;  stroke: rgb(82,82,82); fill: rgb(53,128,0); opacity: 0.667;" />
<path d="M 1183.469,483.911 A 1064.250,1064.250 0.00 0,1 1186.2,483.1 L 1186.2,483.1 1207.6,553.1 1227.1,617.9 1244.7,677.8 1260.5,733.0 1274.6,783.8 1287.2,830.3 1298.1,872.9 1307.6,911.6 1315.7,946.6 1322.5,978.2 1327.9,1006.5 1332.0,1031.5 1334.8,1053.5 1336.4,1072.4 1336.8,1088.6 1336.1,1101.9 1334.1,1112.5 1330.9,1120.4 1326.5,1125.6 1320.9,1128.3 1314.0,1128.3 1305.9,1125.8 1296.4,1120.6 1285.6,1112.8 1273.4,1102.2 1259.8,1088.9 1244.6,1072.8 1227.9,1053.7 1209.5,1031.6 1189.4,1006.4 1167.4,977.9 1143.6,945.9 1117.7,910.5 1089.6,871.2 1059.4,828.1 1026.8,780.8 991.6,729.2 953.9,673.0 913.4,612.0  A 1064.250,1064.250 0.00 0,0 911.0,613.6 L 911.0,613.6 951.7,674.5 989.6,730.5 1024.8,782.1 1057.6,829.3 1088.0,872.3 1116.1,911.5 1142.1,946.9 1166.0,978.8 1188.1,1007.2 1208.3,1032.4 1226.7,1054.4 1243.5,1073.4 1258.7,1089.6 1272.4,1102.8 1284.6,1113.3 1295.4,1121.1 1304.9,1126.3 1313.0,1128.8 1319.9,1128.8 1325.5,1126.1 1329.9,1120.8 1333.0,1112.9 1335.0,1102.3 1335.7,1089.0 1335.3,1072.9 1333.6,1053.9 1330.7,1031.9 1326.5,1006.9 1321.1,978.7 1314.2,947.1 1306.1,912.1 1296.5,873.4 1285.4,830.9 1272.7,784.4 1258.4,733.7 1242.5,678.5 1224.7,618.6 1205.1,553.9 1183.5,483.9  Z" style="stroke-width: 2.0;  stroke: rgb(82,82,82); fill: rgb(0,0,204); opacity: 0.667;" />
<path d="M 1763.779,468.957 A 1064.250,1064.250 0.00 0,1 1767.7,470.0 L 1767.7,470.0 1749.5,540.9 1732.9,606.5 1718.1,667.1 1704.8,723.0 1693.0,774.4 1682.6,821.5 1673.5,864.5 1665.8,903.6 1659.3,939.0 1654.1,970.8 1650.0,999.3 1647.0,1024.5 1645.2,1046.6 1644.5,1065.7 1644.9,1081.8 1646.3,1095.1 1648.8,1105.7 1652.4,1113.5 1657.1,1118.6 1662.9,1121.0 1669.9,1120.8 1678.0,1117.9 1687.3,1112.4 1697.8,1104.1 1709.6,1093.1 1722.7,1079.2 1737.2,1062.5 1753.2,1042.8 1770.7,1020.0 1789.8,993.9 1810.6,964.6 1833.2,931.7 1857.6,895.2 1884.0,854.8 1912.5,810.5 1943.2,761.9 1976.1,708.9 2011.5,651.2 2049.5,588.6  A 1064.250,1064.250 0.00 0,0 2046.5,586.8 L 2046.5,586.8 2008.8,649.5 1973.6,707.3 1940.8,760.5 1910.3,809.1 1881.9,853.6 1855.7,894.0 1831.3,930.6 1808.9,963.5 1788.2,993.0 1769.1,1019.1 1751.7,1041.9 1735.8,1061.7 1721.3,1078.5 1708.2,1092.4 1696.4,1103.4 1685.9,1111.7 1676.6,1117.3 1668.6,1120.2 1661.6,1120.4 1655.8,1118.0 1651.1,1112.9 1647.4,1105.1 1644.8,1094.6 1643.3,1081.3 1642.9,1065.2 1643.5,1046.1 1645.3,1024.0 1648.1,998.8 1652.1,970.3 1657.2,938.4 1663.5,903.0 1671.1,863.8 1680.0,820.8 1690.2,773.7 1701.8,722.3 1714.9,666.3 1729.5,605.6 1745.8,539.9 1763.8,469.0  Z" style="stroke-width: 2.0;  stroke: rgb(82,82,82); fill: rgb(102,153,255); opacity: 0.667;" />
</g>
<defs>
<pattern id="hline-sparse" width="10" height="10" patternTransform="rotate(0 0 0)" patternUnits="userSpaceOnUse"><line x1="0" y1="0" x2="10" y2="0" style="stroke:black;stroke-width:2" /></pattern>
<pattern id="checker" width="10" height="10" patternTransform="rotate(45 0 0)" patternUnits="userSpaceOnUse"><line x1="0" y1="0" x2="10" y2="0" style="stroke:black;stroke-width:2" /><line x1="0" y1="0" x2="0" y2="10" style="stroke:black;stroke-width:2" /></pattern>
<pattern id="checker" width="10" height="10" patternTransform="rotate(45 0 0)" patternUnits="userSpaceOnUse"><line x1="0" y1="0" x2="10" y2="0" style="stroke:black;stroke-width:5" /><line x1="0" y1="0" x2="0" y2="10" style="stroke:black;stroke-width:4" /></pattern>
<pattern id="hline" width="10" height="10" patternTransform="rotate(0 0 0)" patternUnits="userSpaceOnUse"><line x1="0" y1="0" x2="10" y2="0" style="stroke:black;stroke-width:5" /></pattern>
<pattern id="vline-sparse" width="10" height="10" patternTransform="rotate(0 0 0)" patternUnits="userSpaceOnUse"><line x1="0" y1="0" x2="0" y2="10" style="stroke:black;stroke-width:2" /></pattern>
<pattern id="vline" width="10" height="10" patternTransform="rotate(0 0 0)" patternUnits="userSpaceOnUse"><line x1="0" y1="0" x2="0" y2="10" style="stroke:black;stroke-width:5" /></pattern>
</defs>
</svg>
