<?xml version="1.0" encoding="utf-8" standalone="no"?>
<!DOCTYPE svg PUBLIC "-//W3C//DTD SVG 1.1//EN" "http://www.w3.org/Graphics/SVG/1.1/DTD/svg11.dtd">
<svg width="3000px" height="3000px" version="1.1" xmlns="http://www.w3.org/2000/svg" xmlns:xlink="http://www.w3.org/1999/xlink">
<g id="ideograms">
<path d="M1500.000,425.000 A1075.000,1075.000 40.000 0,1 1533.129,425.511 L1534.670,375.534 A1125.000,1125.000 0.000 0,0 1500.000,375.000 Z" style="stroke-linecap:round;fill:rgb(116,196,118);fill-opacity:0.33;" />
<text x="1528.2" y="285.3" font-size="18.2px" font-family="CMUBright-Roman" style="text-anchor:start;fill:rgb(0,0,0);" transform="rotate(270.9,1528.2,285.3)" >R<tspan baseline-shift="-40%" font-size="90%">s</tspan>caffold<tspan baseline-shift="-40%" font-size="90%">2</tspan>5</text>
<line x1='1500.0' y1='375.0' x2='1500.0' y2='355.0' style="stroke-width:4.0;stroke:rgb(0,0,0);stroke-linecap:round;fill:none;" />
<text x="1506.5" y="345.0" font-size="18.2px" font-family="CMUBright-Roman" style="text-anchor:start;fill:rgb(0,0,0);" transform="rotate(270.0,1506.5,345.0)" >0</text>
<g id="highlighttrack_0">
<path d="M1515.954,425.118 A1075.000,1075.000 40.000 0,1 1528.771,425.385 L1530.109,375.403 A1125.000,1125.000 0.000 0,0 1516.696,375.124 Z" style="stroke-width:4.0;stroke:rgb(0,0,0);stroke-linecap:round;fill:rgb(116,196,118);" />
</g>
<path d="M1598.572,429.529 A1075.000,1075.000 40.000 0,1 1602.632,429.910 L1607.406,380.139 A1125.000,1125.000 0.000 0,0 1603.157,379.739 Z" style="stroke-linecap:round;fill:rgb(116,196,118);fill-opacity:0.33;" />
<text x="1623.2" y="291.3" font-size="18.2px" font-family="CMUBright-Roman" style="text-anchor:start;fill:rgb(0,0,0);" transform="rotate(275.4,1623.2,291.3)" >R<tspan baseline-shift="-40%" font-size="90%">s</tspan>caffold<tspan baseline-shift="-40%" font-size="90%">2</tspan>9</text>
<line x1='1603.2' y1='379.7' x2='1605.0' y2='359.8' style="stroke-width:4.0;stroke:rgb(0,0,0);stroke-linecap:round;fill:none;" />
<text x="1612.4" y="350.5" font-size="18.2px" font-family="CMUBright-Roman" style="text-anchor:start;fill:rgb(0,0,0);" transform="rotate(275.3,1612.4,350.5)" >0</text>
<g id="highlighttrack_0">
<path d="M1598.821,429.552 A1075.000,1075.000 40.000 0,1 1602.569,429.904 L1607.340,380.133 A1125.000,1125.000 0.000 0,0 1603.417,379.763 Z" style="stroke-width:4.0;stroke:rgb(0,0,0);stroke-linecap:round;fill:rgb(116,196,118);" />
</g>
<path d="M1667.678,438.158 A1075.000,1075.000 40.000 1,1 1434.464,427.000 L1431.416,377.093 A1125.000,1125.000 0.000 1,0 1675.477,388.770 Z" style="stroke-linecap:round;fill:rgb(116,196,118);fill-opacity:0.33;" />
<text x="1451.4" y="2714.0" font-size="18.2px" font-family="CMUBright-Roman" style="text-anchor:end;fill:rgb(0,0,0);" transform="rotate(-87.3,1451.4,2714.0)" >NZ<tspan baseline-shift="-40%" font-size="90%">C</tspan>P062058.1</text>
<line x1='1675.5' y1='388.8' x2='1678.6' y2='369.0' style="stroke-width:4.0;stroke:rgb(0,0,0);stroke-linecap:round;fill:none;" />
<text x="1686.6" y="360.2" font-size="18.2px" font-family="CMUBright-Roman" style="text-anchor:start;fill:rgb(0,0,0);" transform="rotate(279.0,1686.6,360.2)" >0</text>
<line x1='1743.3' y1='401.6' x2='1747.6' y2='382.1' style="stroke-width:4.0;stroke:rgb(0,0,0);stroke-linecap:round;fill:none;" />
<text x="1756.1" y="373.8" font-size="18.2px" font-family="CMUBright-Roman" style="text-anchor:start;fill:rgb(0,0,0);" transform="rotate(282.5,1756.1,373.8)" >50</text>
<line x1='1810.2' y1='418.6' x2='1815.7' y2='399.4' style="stroke-width:4.0;stroke:rgb(0,0,0);stroke-linecap:round;fill:none;" />
<text x="1824.7" y="391.6" font-size="18.2px" font-family="CMUBright-Roman" style="text-anchor:start;fill:rgb(0,0,0);" transform="rotate(286.0,1824.7,391.6)" >100</text>
<line x1='1875.9' y1='439.7' x2='1882.6' y2='420.8' style="stroke-width:4.0;stroke:rgb(0,0,0);stroke-linecap:round;fill:none;" />
<text x="1892.0" y="413.6" font-size="18.2px" font-family="CMUBright-Roman" style="text-anchor:start;fill:rgb(0,0,0);" transform="rotate(289.5,1892.0,413.6)" >150</text>
<line x1='1940.2' y1='464.7' x2='1948.0' y2='446.3' style="stroke-width:4.0;stroke:rgb(0,0,0);stroke-linecap:round;fill:none;" />
<text x="1957.9" y="439.7" font-size="18.2px" font-family="CMUBright-Roman" style="text-anchor:start;fill:rgb(0,0,0);" transform="rotate(293.0,1957.9,439.7)" >200</text>
<line x1='2002.9' y1='493.6' x2='2011.8' y2='475.8' style="stroke-width:4.0;stroke:rgb(0,0,0);stroke-linecap:round;fill:none;" />
<text x="2022.1" y="469.7" font-size="18.2px" font-family="CMUBright-Roman" style="text-anchor:start;fill:rgb(0,0,0);" transform="rotate(296.6,2022.1,469.7)" >250</text>
<line x1='2063.6' y1='526.4' x2='2073.6' y2='509.1' style="stroke-width:4.0;stroke:rgb(0,0,0);stroke-linecap:round;fill:none;" />
<text x="2084.3" y="503.7" font-size="18.2px" font-family="CMUBright-Roman" style="text-anchor:start;fill:rgb(0,0,0);" transform="rotate(300.1,2084.3,503.7)" >300</text>
<line x1='2122.3' y1='562.8' x2='2133.3' y2='546.1' style="stroke-width:4.0;stroke:rgb(0,0,0);stroke-linecap:round;fill:none;" />
<text x="2144.3" y="541.4" font-size="18.2px" font-family="CMUBright-Roman" style="text-anchor:start;fill:rgb(0,0,0);" transform="rotate(303.6,2144.3,541.4)" >350</text>
<line x1='2178.6' y1='602.7' x2='2190.6' y2='586.7' style="stroke-width:4.0;stroke:rgb(0,0,0);stroke-linecap:round;fill:none;" />
<text x="2201.8" y="582.7" font-size="18.2px" font-family="CMUBright-Roman" style="text-anchor:start;fill:rgb(0,0,0);" transform="rotate(307.1,2201.8,582.7)" >400</text>
<line x1='2232.3' y1='646.0' x2='2245.3' y2='630.8' style="stroke-width:4.0;stroke:rgb(0,0,0);stroke-linecap:round;fill:none;" />
<text x="2256.8" y="627.4" font-size="18.2px" font-family="CMUBright-Roman" style="text-anchor:start;fill:rgb(0,0,0);" transform="rotate(310.6,2256.8,627.4)" >450</text>
<line x1='2283.3' y1='692.5' x2='2297.2' y2='678.1' style="stroke-width:4.0;stroke:rgb(0,0,0);stroke-linecap:round;fill:none;" />
<text x="2308.8" y="675.5" font-size="18.2px" font-family="CMUBright-Roman" style="text-anchor:start;fill:rgb(0,0,0);" transform="rotate(314.1,2308.8,675.5)" >500</text>
<line x1='2331.3' y1='742.0' x2='2346.1' y2='728.6' style="stroke-width:4.0;stroke:rgb(0,0,0);stroke-linecap:round;fill:none;" />
<text x="2357.9" y="726.6" font-size="18.2px" font-family="CMUBright-Roman" style="text-anchor:start;fill:rgb(0,0,0);" transform="rotate(317.6,2357.9,726.6)" >550</text>
<line x1='2376.2' y1='794.4' x2='2391.8' y2='781.9' style="stroke-width:4.0;stroke:rgb(0,0,0);stroke-linecap:round;fill:none;" />
<text x="2403.7" y="780.7" font-size="18.2px" font-family="CMUBright-Roman" style="text-anchor:start;fill:rgb(0,0,0);" transform="rotate(321.2,2403.7,780.7)" >600</text>
<line x1='2417.9' y1='849.5' x2='2434.2' y2='837.9' style="stroke-width:4.0;stroke:rgb(0,0,0);stroke-linecap:round;fill:none;" />
<text x="2446.1" y="837.5" font-size="18.2px" font-family="CMUBright-Roman" style="text-anchor:start;fill:rgb(0,0,0);" transform="rotate(324.7,2446.1,837.5)" >650</text>
<line x1='2456.0' y1='907.0' x2='2473.0' y2='896.5' style="stroke-width:4.0;stroke:rgb(0,0,0);stroke-linecap:round;fill:none;" />
<text x="2484.9" y="896.7" font-size="18.2px" font-family="CMUBright-Roman" style="text-anchor:start;fill:rgb(0,0,0);" transform="rotate(328.2,2484.9,896.7)" >700</text>
<line x1='2490.6' y1='966.7' x2='2508.2' y2='957.2' style="stroke-width:4.0;stroke:rgb(0,0,0);stroke-linecap:round;fill:none;" />
<text x="2520.1" y="958.2" font-size="18.2px" font-family="CMUBright-Roman" style="text-anchor:start;fill:rgb(0,0,0);" transform="rotate(331.7,2520.1,958.2)" >750</text>
<line x1='2521.4' y1='1028.5' x2='2539.6' y2='1020.1' style="stroke-width:4.0;stroke:rgb(0,0,0);stroke-linecap:round;fill:none;" />
<text x="2551.4" y="1021.8" font-size="18.2px" font-family="CMUBright-Roman" style="text-anchor:start;fill:rgb(0,0,0);" transform="rotate(335.2,2551.4,1021.8)" >800</text>
<line x1='2548.4' y1='1092.0' x2='2567.0' y2='1084.7' style="stroke-width:4.0;stroke:rgb(0,0,0);stroke-linecap:round;fill:none;" />
<text x="2578.7" y="1087.2" font-size="18.2px" font-family="CMUBright-Roman" style="text-anchor:start;fill:rgb(0,0,0);" transform="rotate(338.7,2578.7,1087.2)" >850</text>
<line x1='2571.4' y1='1157.0' x2='2590.5' y2='1150.9' style="stroke-width:4.0;stroke:rgb(0,0,0);stroke-linecap:round;fill:none;" />
<text x="2602.0" y="1154.1" font-size="18.2px" font-family="CMUBright-Roman" style="text-anchor:start;fill:rgb(0,0,0);" transform="rotate(342.3,2602.0,1154.1)" >900</text>
<line x1='2590.5' y1='1223.4' x2='2609.8' y2='1218.5' style="stroke-width:4.0;stroke:rgb(0,0,0);stroke-linecap:round;fill:none;" />
<text x="2621.1" y="1222.3" font-size="18.2px" font-family="CMUBright-Roman" style="text-anchor:start;fill:rgb(0,0,0);" transform="rotate(345.8,2621.1,1222.3)" >950</text>
<line x1='2605.4' y1='1290.8' x2='2625.0' y2='1287.0' style="stroke-width:4.0;stroke:rgb(0,0,0);stroke-linecap:round;fill:none;" />
<text x="2636.0" y="1291.6" font-size="18.2px" font-family="CMUBright-Roman" style="text-anchor:start;fill:rgb(0,0,0);" transform="rotate(349.3,2636.0,1291.6)" >1000</text>
<line x1='2616.1' y1='1358.9' x2='2636.0' y2='1356.4' style="stroke-width:4.0;stroke:rgb(0,0,0);stroke-linecap:round;fill:none;" />
<text x="2646.7" y="1361.6" font-size="18.2px" font-family="CMUBright-Roman" style="text-anchor:start;fill:rgb(0,0,0);" transform="rotate(352.8,2646.7,1361.6)" >1050</text>
<line x1='2622.7' y1='1427.6' x2='2642.6' y2='1426.4' style="stroke-width:4.0;stroke:rgb(0,0,0);stroke-linecap:round;fill:none;" />
<text x="2653.0" y="1432.2" font-size="18.2px" font-family="CMUBright-Roman" style="text-anchor:start;fill:rgb(0,0,0);" transform="rotate(356.3,2653.0,1432.2)" >1100</text>
<line x1='2625.0' y1='1496.6' x2='2645.0' y2='1496.6' style="stroke-width:4.0;stroke:rgb(0,0,0);stroke-linecap:round;fill:none;" />
<text x="2655.0" y="1503.0" font-size="18.2px" font-family="CMUBright-Roman" style="text-anchor:start;fill:rgb(0,0,0);" transform="rotate(359.8,2655.0,1503.0)" >1150</text>
<line x1='2623.1' y1='1565.6' x2='2643.1' y2='1566.8' style="stroke-width:4.0;stroke:rgb(0,0,0);stroke-linecap:round;fill:none;" />
<text x="2652.6" y="1573.8" font-size="18.2px" font-family="CMUBright-Roman" style="text-anchor:start;fill:rgb(0,0,0);" transform="rotate(3.3,2652.6,1573.8)" >1200</text>
<line x1='2616.9' y1='1634.3' x2='2636.8' y2='1636.7' style="stroke-width:4.0;stroke:rgb(0,0,0);stroke-linecap:round;fill:none;" />
<text x="2645.9" y="1644.4" font-size="18.2px" font-family="CMUBright-Roman" style="text-anchor:start;fill:rgb(0,0,0);" transform="rotate(6.9,2645.9,1644.4)" >1250</text>
<line x1='2606.6' y1='1702.6' x2='2626.3' y2='1706.2' style="stroke-width:4.0;stroke:rgb(0,0,0);stroke-linecap:round;fill:none;" />
<text x="2634.9" y="1714.4" font-size="18.2px" font-family="CMUBright-Roman" style="text-anchor:start;fill:rgb(0,0,0);" transform="rotate(10.4,2634.9,1714.4)" >1300</text>
<line x1='2592.1' y1='1770.1' x2='2611.5' y2='1774.9' style="stroke-width:4.0;stroke:rgb(0,0,0);stroke-linecap:round;fill:none;" />
<text x="2619.7" y="1783.6" font-size="18.2px" font-family="CMUBright-Roman" style="text-anchor:start;fill:rgb(0,0,0);" transform="rotate(13.9,2619.7,1783.6)" >1350</text>
<line x1='2573.5' y1='1836.5' x2='2592.6' y2='1842.5' style="stroke-width:4.0;stroke:rgb(0,0,0);stroke-linecap:round;fill:none;" />
<text x="2600.2" y="1851.7" font-size="18.2px" font-family="CMUBright-Roman" style="text-anchor:start;fill:rgb(0,0,0);" transform="rotate(17.4,2600.2,1851.7)" >1400</text>
<line x1='2550.8' y1='1901.7' x2='2569.5' y2='1908.8' style="stroke-width:4.0;stroke:rgb(0,0,0);stroke-linecap:round;fill:none;" />
<text x="2576.5" y="1918.5" font-size="18.2px" font-family="CMUBright-Roman" style="text-anchor:start;fill:rgb(0,0,0);" transform="rotate(20.9,2576.5,1918.5)" >1450</text>
<line x1='2524.2' y1='1965.4' x2='2542.4' y2='1973.7' style="stroke-width:4.0;stroke:rgb(0,0,0);stroke-linecap:round;fill:none;" />
<text x="2548.8" y="1983.7" font-size="18.2px" font-family="CMUBright-Roman" style="text-anchor:start;fill:rgb(0,0,0);" transform="rotate(24.4,2548.8,1983.7)" >1500</text>
<line x1='2493.8' y1='2027.3' x2='2511.4' y2='2036.7' style="stroke-width:4.0;stroke:rgb(0,0,0);stroke-linecap:round;fill:none;" />
<text x="2517.2" y="2047.1" font-size="18.2px" font-family="CMUBright-Roman" style="text-anchor:start;fill:rgb(0,0,0);" transform="rotate(28.0,2517.2,2047.1)" >1550</text>
<line x1='2459.6' y1='2087.2' x2='2476.6' y2='2097.7' style="stroke-width:4.0;stroke:rgb(0,0,0);stroke-linecap:round;fill:none;" />
<text x="2481.7" y="2108.4" font-size="18.2px" font-family="CMUBright-Roman" style="text-anchor:start;fill:rgb(0,0,0);" transform="rotate(31.5,2481.7,2108.4)" >1600</text>
<line x1='2421.8' y1='2145.0' x2='2438.1' y2='2156.4' style="stroke-width:4.0;stroke:rgb(0,0,0);stroke-linecap:round;fill:none;" />
<text x="2442.6" y="2167.5" font-size="18.2px" font-family="CMUBright-Roman" style="text-anchor:start;fill:rgb(0,0,0);" transform="rotate(35.0,2442.6,2167.5)" >1650</text>
<line x1='2380.5' y1='2200.3' x2='2396.1' y2='2212.7' style="stroke-width:4.0;stroke:rgb(0,0,0);stroke-linecap:round;fill:none;" />
<text x="2399.9" y="2224.0" font-size="18.2px" font-family="CMUBright-Roman" style="text-anchor:start;fill:rgb(0,0,0);" transform="rotate(38.5,2399.9,2224.0)" >1700</text>
<line x1='2335.9' y1='2253.0' x2='2350.7' y2='2266.3' style="stroke-width:4.0;stroke:rgb(0,0,0);stroke-linecap:round;fill:none;" />
<text x="2353.8" y="2277.9" font-size="18.2px" font-family="CMUBright-Roman" style="text-anchor:start;fill:rgb(0,0,0);" transform="rotate(42.0,2353.8,2277.9)" >1750</text>
<line x1='2288.1' y1='2302.8' x2='2302.1' y2='2317.1' style="stroke-width:4.0;stroke:rgb(0,0,0);stroke-linecap:round;fill:none;" />
<text x="2304.5" y="2328.7" font-size="18.2px" font-family="CMUBright-Roman" style="text-anchor:start;fill:rgb(0,0,0);" transform="rotate(45.5,2304.5,2328.7)" >1800</text>
<line x1='2237.4' y1='2349.6' x2='2250.5' y2='2364.7' style="stroke-width:4.0;stroke:rgb(0,0,0);stroke-linecap:round;fill:none;" />
<text x="2252.2" y="2376.5" font-size="18.2px" font-family="CMUBright-Roman" style="text-anchor:start;fill:rgb(0,0,0);" transform="rotate(49.0,2252.2,2376.5)" >1850</text>
<line x1='2183.9' y1='2393.2' x2='2196.1' y2='2409.1' style="stroke-width:4.0;stroke:rgb(0,0,0);stroke-linecap:round;fill:none;" />
<text x="2197.0" y="2421.0" font-size="18.2px" font-family="CMUBright-Roman" style="text-anchor:start;fill:rgb(0,0,0);" transform="rotate(52.6,2197.0,2421.0)" >1900</text>
<line x1='2127.9' y1='2433.5' x2='2139.0' y2='2450.1' style="stroke-width:4.0;stroke:rgb(0,0,0);stroke-linecap:round;fill:none;" />
<text x="2139.2" y="2462.0" font-size="18.2px" font-family="CMUBright-Roman" style="text-anchor:start;fill:rgb(0,0,0);" transform="rotate(56.1,2139.2,2462.0)" >1950</text>
<line x1='2069.5' y1='2470.2' x2='2079.6' y2='2487.5' style="stroke-width:4.0;stroke:rgb(0,0,0);stroke-linecap:round;fill:none;" />
<text x="2079.0" y="2499.4" font-size="18.2px" font-family="CMUBright-Roman" style="text-anchor:start;fill:rgb(0,0,0);" transform="rotate(59.6,2079.0,2499.4)" >2000</text>
<line x1='2008.9' y1='2503.3' x2='2018.0' y2='2521.2' style="stroke-width:4.0;stroke:rgb(0,0,0);stroke-linecap:round;fill:none;" />
<text x="2016.7" y="2533.0" font-size="18.2px" font-family="CMUBright-Roman" style="text-anchor:start;fill:rgb(0,0,0);" transform="rotate(63.1,2016.7,2533.0)" >2050</text>
<line x1='1946.4' y1='2532.6' x2='1954.4' y2='2551.0' style="stroke-width:4.0;stroke:rgb(0,0,0);stroke-linecap:round;fill:none;" />
<text x="1952.4" y="2562.7" font-size="18.2px" font-family="CMUBright-Roman" style="text-anchor:start;fill:rgb(0,0,0);" transform="rotate(66.6,1952.4,2562.7)" >2100</text>
<line x1='1882.3' y1='2558.1' x2='1889.1' y2='2576.9' style="stroke-width:4.0;stroke:rgb(0,0,0);stroke-linecap:round;fill:none;" />
<text x="1886.3" y="2588.5" font-size="18.2px" font-family="CMUBright-Roman" style="text-anchor:start;fill:rgb(0,0,0);" transform="rotate(70.1,1886.3,2588.5)" >2150</text>
<line x1='1816.7' y1='2579.5' x2='1822.3' y2='2598.7' style="stroke-width:4.0;stroke:rgb(0,0,0);stroke-linecap:round;fill:none;" />
<text x="1818.9" y="2610.1" font-size="18.2px" font-family="CMUBright-Roman" style="text-anchor:start;fill:rgb(0,0,0);" transform="rotate(73.7,1818.9,2610.1)" >2200</text>
<line x1='1749.9' y1='2596.9' x2='1754.3' y2='2616.4' style="stroke-width:4.0;stroke:rgb(0,0,0);stroke-linecap:round;fill:none;" />
<text x="1750.2" y="2627.6" font-size="18.2px" font-family="CMUBright-Roman" style="text-anchor:start;fill:rgb(0,0,0);" transform="rotate(77.2,1750.2,2627.6)" >2250</text>
<line x1='1682.2' y1='2610.2' x2='1685.4' y2='2629.9' style="stroke-width:4.0;stroke:rgb(0,0,0);stroke-linecap:round;fill:none;" />
<text x="1680.6" y="2640.8" font-size="18.2px" font-family="CMUBright-Roman" style="text-anchor:start;fill:rgb(0,0,0);" transform="rotate(80.7,1680.6,2640.8)" >2300</text>
<line x1='1613.7' y1='2619.2' x2='1615.8' y2='2639.1' style="stroke-width:4.0;stroke:rgb(0,0,0);stroke-linecap:round;fill:none;" />
<text x="1610.3" y="2649.7" font-size="18.2px" font-family="CMUBright-Roman" style="text-anchor:start;fill:rgb(0,0,0);" transform="rotate(84.2,1610.3,2649.7)" >2350</text>
<line x1='1544.9' y1='2624.1' x2='1545.7' y2='2644.1' style="stroke-width:4.0;stroke:rgb(0,0,0);stroke-linecap:round;fill:none;" />
<text x="1539.6" y="2654.3" font-size="18.2px" font-family="CMUBright-Roman" style="text-anchor:start;fill:rgb(0,0,0);" transform="rotate(87.7,1539.6,2654.3)" >2400</text>
<line x1='1475.9' y1='2624.7' x2='1475.5' y2='2644.7' style="stroke-width:4.0;stroke:rgb(0,0,0);stroke-linecap:round;fill:none;" />
<text x="1481.7" y="2654.9" font-size="18.2px" font-family="CMUBright-Roman" style="text-anchor:end;fill:rgb(0,0,0);" transform="rotate(-88.8,1481.7,2654.9)" >2450</text>
<line x1='1407.0' y1='2621.1' x2='1405.3' y2='2641.1' style="stroke-width:4.0;stroke:rgb(0,0,0);stroke-linecap:round;fill:none;" />
<text x="1411.0" y="2651.6" font-size="18.2px" font-family="CMUBright-Roman" style="text-anchor:end;fill:rgb(0,0,0);" transform="rotate(-85.3,1411.0,2651.6)" >2500</text>
<line x1='1338.4' y1='2613.3' x2='1335.5' y2='2633.1' style="stroke-width:4.0;stroke:rgb(0,0,0);stroke-linecap:round;fill:none;" />
<text x="1340.5" y="2643.9" font-size="18.2px" font-family="CMUBright-Roman" style="text-anchor:end;fill:rgb(0,0,0);" transform="rotate(-81.7,1340.5,2643.9)" >2550</text>
<line x1='1270.4' y1='2601.3' x2='1266.4' y2='2620.9' style="stroke-width:4.0;stroke:rgb(0,0,0);stroke-linecap:round;fill:none;" />
<text x="1270.7" y="2632.0" font-size="18.2px" font-family="CMUBright-Roman" style="text-anchor:end;fill:rgb(0,0,0);" transform="rotate(-78.2,1270.7,2632.0)" >2600</text>
<line x1='1203.3' y1='2585.2' x2='1198.1' y2='2604.5' style="stroke-width:4.0;stroke:rgb(0,0,0);stroke-linecap:round;fill:none;" />
<text x="1201.7" y="2615.8" font-size="18.2px" font-family="CMUBright-Roman" style="text-anchor:end;fill:rgb(0,0,0);" transform="rotate(-74.7,1201.7,2615.8)" >2650</text>
<line x1='1137.4' y1='2564.9' x2='1130.9' y2='2583.9' style="stroke-width:4.0;stroke:rgb(0,0,0);stroke-linecap:round;fill:none;" />
<text x="1133.8" y="2595.4" font-size="18.2px" font-family="CMUBright-Roman" style="text-anchor:end;fill:rgb(0,0,0);" transform="rotate(-71.2,1133.8,2595.4)" >2700</text>
<line x1='1072.7' y1='2540.7' x2='1065.1' y2='2559.2' style="stroke-width:4.0;stroke:rgb(0,0,0);stroke-linecap:round;fill:none;" />
<text x="1067.4" y="2570.9" font-size="18.2px" font-family="CMUBright-Roman" style="text-anchor:end;fill:rgb(0,0,0);" transform="rotate(-67.7,1067.4,2570.9)" >2750</text>
<line x1='1009.7' y1='2512.6' x2='1001.0' y2='2530.6' style="stroke-width:4.0;stroke:rgb(0,0,0);stroke-linecap:round;fill:none;" />
<text x="1002.5" y="2542.4" font-size="18.2px" font-family="CMUBright-Roman" style="text-anchor:end;fill:rgb(0,0,0);" transform="rotate(-64.2,1002.5,2542.4)" >2800</text>
<line x1='948.6' y1='2480.6' x2='938.8' y2='2498.0' style="stroke-width:4.0;stroke:rgb(0,0,0);stroke-linecap:round;fill:none;" />
<text x="939.5" y="2509.9" font-size="18.2px" font-family="CMUBright-Roman" style="text-anchor:end;fill:rgb(0,0,0);" transform="rotate(-60.6,939.5,2509.9)" >2850</text>
<line x1='889.5' y1='2444.9' x2='878.6' y2='2461.7' style="stroke-width:4.0;stroke:rgb(0,0,0);stroke-linecap:round;fill:none;" />
<text x="878.7" y="2473.6" font-size="18.2px" font-family="CMUBright-Roman" style="text-anchor:end;fill:rgb(0,0,0);" transform="rotate(-57.1,878.7,2473.6)" >2900</text>
<line x1='832.7' y1='2405.7' x2='820.8' y2='2421.8' style="stroke-width:4.0;stroke:rgb(0,0,0);stroke-linecap:round;fill:none;" />
<text x="820.1" y="2433.7" font-size="18.2px" font-family="CMUBright-Roman" style="text-anchor:end;fill:rgb(0,0,0);" transform="rotate(-53.6,820.1,2433.7)" >2950</text>
<line x1='778.4' y1='2363.1' x2='765.6' y2='2378.4' style="stroke-width:4.0;stroke:rgb(0,0,0);stroke-linecap:round;fill:none;" />
<text x="764.2" y="2390.3" font-size="18.2px" font-family="CMUBright-Roman" style="text-anchor:end;fill:rgb(0,0,0);" transform="rotate(-50.1,764.2,2390.3)" >3000</text>
<line x1='726.8' y1='2317.2' x2='713.1' y2='2331.8' style="stroke-width:4.0;stroke:rgb(0,0,0);stroke-linecap:round;fill:none;" />
<text x="711.0" y="2343.5" font-size="18.2px" font-family="CMUBright-Roman" style="text-anchor:end;fill:rgb(0,0,0);" transform="rotate(-46.6,711.0,2343.5)" >3050</text>
<line x1='678.2' y1='2268.3' x2='663.6' y2='2281.9' style="stroke-width:4.0;stroke:rgb(0,0,0);stroke-linecap:round;fill:none;" />
<text x="660.7" y="2293.5" font-size="18.2px" font-family="CMUBright-Roman" style="text-anchor:end;fill:rgb(0,0,0);" transform="rotate(-43.1,660.7,2293.5)" >3100</text>
<line x1='632.6' y1='2216.4' x2='617.2' y2='2229.2' style="stroke-width:4.0;stroke:rgb(0,0,0);stroke-linecap:round;fill:none;" />
<text x="613.6" y="2240.5" font-size="18.2px" font-family="CMUBright-Roman" style="text-anchor:end;fill:rgb(0,0,0);" transform="rotate(-39.6,613.6,2240.5)" >3150</text>
<line x1='590.3' y1='2161.9' x2='574.2' y2='2173.7' style="stroke-width:4.0;stroke:rgb(0,0,0);stroke-linecap:round;fill:none;" />
<text x="569.9" y="2184.8" font-size="18.2px" font-family="CMUBright-Roman" style="text-anchor:end;fill:rgb(0,0,0);" transform="rotate(-36.0,569.9,2184.8)" >3200</text>
<line x1='551.5' y1='2104.9' x2='534.6' y2='2115.6' style="stroke-width:4.0;stroke:rgb(0,0,0);stroke-linecap:round;fill:none;" />
<text x="529.7" y="2126.5" font-size="18.2px" font-family="CMUBright-Roman" style="text-anchor:end;fill:rgb(0,0,0);" transform="rotate(-32.5,529.7,2126.5)" >3250</text>
<line x1='516.1' y1='2045.6' x2='498.7' y2='2055.3' style="stroke-width:4.0;stroke:rgb(0,0,0);stroke-linecap:round;fill:none;" />
<text x="493.1" y="2065.8" font-size="18.2px" font-family="CMUBright-Roman" style="text-anchor:end;fill:rgb(0,0,0);" transform="rotate(-29.0,493.1,2065.8)" >3300</text>
<line x1='484.5' y1='1984.2' x2='466.5' y2='1992.8' style="stroke-width:4.0;stroke:rgb(0,0,0);stroke-linecap:round;fill:none;" />
<text x="460.3" y="2003.0" font-size="18.2px" font-family="CMUBright-Roman" style="text-anchor:end;fill:rgb(0,0,0);" transform="rotate(-25.5,460.3,2003.0)" >3350</text>
<line x1='456.8' y1='1921.1' x2='438.2' y2='1928.5' style="stroke-width:4.0;stroke:rgb(0,0,0);stroke-linecap:round;fill:none;" />
<text x="431.4" y="1938.3" font-size="18.2px" font-family="CMUBright-Roman" style="text-anchor:end;fill:rgb(0,0,0);" transform="rotate(-22.0,431.4,1938.3)" >3400</text>
<line x1='432.9' y1='1856.3' x2='413.9' y2='1862.6' style="stroke-width:4.0;stroke:rgb(0,0,0);stroke-linecap:round;fill:none;" />
<text x="406.5" y="1872.0" font-size="18.2px" font-family="CMUBright-Roman" style="text-anchor:end;fill:rgb(0,0,0);" transform="rotate(-18.5,406.5,1872.0)" >3450</text>
<line x1='413.1' y1='1790.2' x2='393.7' y2='1795.4' style="stroke-width:4.0;stroke:rgb(0,0,0);stroke-linecap:round;fill:none;" />
<text x="385.8" y="1804.2" font-size="18.2px" font-family="CMUBright-Roman" style="text-anchor:end;fill:rgb(0,0,0);" transform="rotate(-14.9,385.8,1804.2)" >3500</text>
<line x1='397.3' y1='1723.0' x2='377.7' y2='1727.0' style="stroke-width:4.0;stroke:rgb(0,0,0);stroke-linecap:round;fill:none;" />
<text x="369.2" y="1735.3" font-size="18.2px" font-family="CMUBright-Roman" style="text-anchor:end;fill:rgb(0,0,0);" transform="rotate(-11.4,369.2,1735.3)" >3550</text>
<line x1='385.7' y1='1655.0' x2='365.9' y2='1657.7' style="stroke-width:4.0;stroke:rgb(0,0,0);stroke-linecap:round;fill:none;" />
<text x="356.9" y="1665.5" font-size="18.2px" font-family="CMUBright-Roman" style="text-anchor:end;fill:rgb(0,0,0);" transform="rotate(-7.9,356.9,1665.5)" >3600</text>
<line x1='378.3' y1='1586.4' x2='358.4' y2='1587.9' style="stroke-width:4.0;stroke:rgb(0,0,0);stroke-linecap:round;fill:none;" />
<text x="348.9" y="1595.1" font-size="18.2px" font-family="CMUBright-Roman" style="text-anchor:end;fill:rgb(0,0,0);" transform="rotate(-4.4,348.9,1595.1)" >3650</text>
<line x1='375.1' y1='1517.4' x2='355.1' y2='1517.7' style="stroke-width:4.0;stroke:rgb(0,0,0);stroke-linecap:round;fill:none;" />
<text x="345.3" y="1524.4" font-size="18.2px" font-family="CMUBright-Roman" style="text-anchor:end;fill:rgb(0,0,0);" transform="rotate(-0.9,345.3,1524.4)" >3700</text>
<line x1='376.2' y1='1448.4' x2='356.2' y2='1447.5' style="stroke-width:4.0;stroke:rgb(0,0,0);stroke-linecap:round;fill:none;" />
<text x="345.9" y="1453.5" font-size="18.2px" font-family="CMUBright-Roman" style="text-anchor:end;fill:rgb(0,0,0);" transform="rotate(2.6,345.9,1453.5)" >3750</text>
<line x1='381.5' y1='1379.6' x2='361.6' y2='1377.5' style="stroke-width:4.0;stroke:rgb(0,0,0);stroke-linecap:round;fill:none;" />
<text x="351.0" y="1382.9" font-size="18.2px" font-family="CMUBright-Roman" style="text-anchor:end;fill:rgb(0,0,0);" transform="rotate(6.1,351.0,1382.9)" >3800</text>
<line x1='390.9' y1='1311.2' x2='371.2' y2='1307.9' style="stroke-width:4.0;stroke:rgb(0,0,0);stroke-linecap:round;fill:none;" />
<text x="360.3" y="1312.6" font-size="18.2px" font-family="CMUBright-Roman" style="text-anchor:end;fill:rgb(0,0,0);" transform="rotate(9.7,360.3,1312.6)" >3850</text>
<line x1='404.6' y1='1243.6' x2='385.1' y2='1239.0' style="stroke-width:4.0;stroke:rgb(0,0,0);stroke-linecap:round;fill:none;" />
<text x="373.9" y="1243.1" font-size="18.2px" font-family="CMUBright-Roman" style="text-anchor:end;fill:rgb(0,0,0);" transform="rotate(13.2,373.9,1243.1)" >3900</text>
<line x1='422.4' y1='1176.9' x2='403.2' y2='1171.2' style="stroke-width:4.0;stroke:rgb(0,0,0);stroke-linecap:round;fill:none;" />
<text x="391.8" y="1174.5" font-size="18.2px" font-family="CMUBright-Roman" style="text-anchor:end;fill:rgb(0,0,0);" transform="rotate(16.7,391.8,1174.5)" >3950</text>
<line x1='444.2' y1='1111.4' x2='425.5' y2='1104.5' style="stroke-width:4.0;stroke:rgb(0,0,0);stroke-linecap:round;fill:none;" />
<text x="413.9" y="1107.2" font-size="18.2px" font-family="CMUBright-Roman" style="text-anchor:end;fill:rgb(0,0,0);" transform="rotate(20.2,413.9,1107.2)" >4000</text>
<line x1='470.0' y1='1047.4' x2='451.7' y2='1039.4' style="stroke-width:4.0;stroke:rgb(0,0,0);stroke-linecap:round;fill:none;" />
<text x="440.0" y="1041.3" font-size="18.2px" font-family="CMUBright-Roman" style="text-anchor:end;fill:rgb(0,0,0);" transform="rotate(23.7,440.0,1041.3)" >4050</text>
<line x1='499.7' y1='985.1' x2='481.9' y2='976.0' style="stroke-width:4.0;stroke:rgb(0,0,0);stroke-linecap:round;fill:none;" />
<text x="470.1" y="977.2" font-size="18.2px" font-family="CMUBright-Roman" style="text-anchor:end;fill:rgb(0,0,0);" transform="rotate(27.2,470.1,977.2)" >4100</text>
<line x1='533.2' y1='924.8' x2='516.0' y2='914.5' style="stroke-width:4.0;stroke:rgb(0,0,0);stroke-linecap:round;fill:none;" />
<text x="504.1" y="915.0" font-size="18.2px" font-family="CMUBright-Roman" style="text-anchor:end;fill:rgb(0,0,0);" transform="rotate(30.8,504.1,915.0)" >4150</text>
<line x1='570.3' y1='866.6' x2='553.7' y2='855.3' style="stroke-width:4.0;stroke:rgb(0,0,0);stroke-linecap:round;fill:none;" />
<text x="541.8" y="855.1" font-size="18.2px" font-family="CMUBright-Roman" style="text-anchor:end;fill:rgb(0,0,0);" transform="rotate(34.3,541.8,855.1)" >4200</text>
<line x1='610.9' y1='810.8' x2='595.1' y2='798.5' style="stroke-width:4.0;stroke:rgb(0,0,0);stroke-linecap:round;fill:none;" />
<text x="583.2" y="797.5" font-size="18.2px" font-family="CMUBright-Roman" style="text-anchor:end;fill:rgb(0,0,0);" transform="rotate(37.8,583.2,797.5)" >4250</text>
<line x1='654.8' y1='757.5' x2='639.8' y2='744.3' style="stroke-width:4.0;stroke:rgb(0,0,0);stroke-linecap:round;fill:none;" />
<text x="628.0" y="742.6" font-size="18.2px" font-family="CMUBright-Roman" style="text-anchor:end;fill:rgb(0,0,0);" transform="rotate(41.3,628.0,742.6)" >4300</text>
<line x1='701.9' y1='707.1' x2='687.7' y2='693.0' style="stroke-width:4.0;stroke:rgb(0,0,0);stroke-linecap:round;fill:none;" />
<text x="676.1" y="690.6" font-size="18.2px" font-family="CMUBright-Roman" style="text-anchor:end;fill:rgb(0,0,0);" transform="rotate(44.8,676.1,690.6)" >4350</text>
<line x1='752.0' y1='659.7' x2='738.7' y2='644.7' style="stroke-width:4.0;stroke:rgb(0,0,0);stroke-linecap:round;fill:none;" />
<text x="727.2" y="641.6" font-size="18.2px" font-family="CMUBright-Roman" style="text-anchor:end;fill:rgb(0,0,0);" transform="rotate(48.3,727.2,641.6)" >4400</text>
<line x1='805.0' y1='615.4' x2='792.6' y2='599.7' style="stroke-width:4.0;stroke:rgb(0,0,0);stroke-linecap:round;fill:none;" />
<text x="781.3" y="595.8" font-size="18.2px" font-family="CMUBright-Roman" style="text-anchor:end;fill:rgb(0,0,0);" transform="rotate(51.8,781.3,595.8)" >4450</text>
<line x1='860.5' y1='574.4' x2='849.2' y2='558.0' style="stroke-width:4.0;stroke:rgb(0,0,0);stroke-linecap:round;fill:none;" />
<text x="838.1" y="553.5" font-size="18.2px" font-family="CMUBright-Roman" style="text-anchor:end;fill:rgb(0,0,0);" transform="rotate(55.4,838.1,553.5)" >4500</text>
<line x1='918.5' y1='537.0' x2='908.1' y2='519.8' style="stroke-width:4.0;stroke:rgb(0,0,0);stroke-linecap:round;fill:none;" />
<text x="897.4" y="514.6" font-size="18.2px" font-family="CMUBright-Roman" style="text-anchor:end;fill:rgb(0,0,0);" transform="rotate(58.9,897.4,514.6)" >4550</text>
<line x1='978.6' y1='503.1' x2='969.4' y2='485.4' style="stroke-width:4.0;stroke:rgb(0,0,0);stroke-linecap:round;fill:none;" />
<text x="959.0" y="479.6" font-size="18.2px" font-family="CMUBright-Roman" style="text-anchor:end;fill:rgb(0,0,0);" transform="rotate(62.4,959.0,479.6)" >4600</text>
<line x1='1040.7' y1='473.0' x2='1032.6' y2='454.8' style="stroke-width:4.0;stroke:rgb(0,0,0);stroke-linecap:round;fill:none;" />
<text x="1022.6" y="448.3" font-size="18.2px" font-family="CMUBright-Roman" style="text-anchor:end;fill:rgb(0,0,0);" transform="rotate(65.9,1022.6,448.3)" >4650</text>
<line x1='1104.6' y1='446.8' x2='1097.5' y2='428.1' style="stroke-width:4.0;stroke:rgb(0,0,0);stroke-linecap:round;fill:none;" />
<text x="1087.9" y="421.0" font-size="18.2px" font-family="CMUBright-Roman" style="text-anchor:end;fill:rgb(0,0,0);" transform="rotate(69.4,1087.9,421.0)" >4700</text>
<line x1='1169.9' y1='424.5' x2='1164.0' y2='405.4' style="stroke-width:4.0;stroke:rgb(0,0,0);stroke-linecap:round;fill:none;" />
<text x="1154.9" y="397.8" font-size="18.2px" font-family="CMUBright-Roman" style="text-anchor:end;fill:rgb(0,0,0);" transform="rotate(72.9,1154.9,397.8)" >4750</text>
<line x1='1236.5' y1='406.3' x2='1231.8' y2='386.9' style="stroke-width:4.0;stroke:rgb(0,0,0);stroke-linecap:round;fill:none;" />
<text x="1223.1" y="378.7" font-size="18.2px" font-family="CMUBright-Roman" style="text-anchor:end;fill:rgb(0,0,0);" transform="rotate(76.5,1223.1,378.7)" >4800</text>
<line x1='1304.0' y1='392.2' x2='1300.5' y2='372.5' style="stroke-width:4.0;stroke:rgb(0,0,0);stroke-linecap:round;fill:none;" />
<text x="1292.4" y="363.8" font-size="18.2px" font-family="CMUBright-Roman" style="text-anchor:end;fill:rgb(0,0,0);" transform="rotate(80.0,1292.4,363.8)" >4850</text>
<line x1='1372.3' y1='382.3' x2='1370.0' y2='362.4' style="stroke-width:4.0;stroke:rgb(0,0,0);stroke-linecap:round;fill:none;" />
<text x="1362.4" y="353.2" font-size="18.2px" font-family="CMUBright-Roman" style="text-anchor:end;fill:rgb(0,0,0);" transform="rotate(83.5,1362.4,353.2)" >4900</text>
<g id="highlighttrack_0">
<path d="M1591.546,2571.095 A1075.000,1075.000 40.000 0,1 1587.800,2571.409 L1591.883,2621.241 A1125.000,1125.000 0.000 0,0 1595.804,2620.913 Z" style="stroke-width:4.0;stroke:rgb(0,0,0);stroke-linecap:round;fill:rgb(251,106,74);" />
<path d="M553.441,2009.559 A1075.000,1075.000 40.000 0,1 551.666,2006.249 L507.558,2029.796 A1125.000,1125.000 0.000 0,0 509.415,2033.260 Z" style="stroke-width:4.0;stroke:rgb(0,0,0);stroke-linecap:round;fill:rgb(251,106,74);" />
<path d="M521.012,1055.920 A1075.000,1075.000 40.000 0,1 522.566,1052.510 L477.104,1031.696 A1125.000,1125.000 0.000 0,0 475.478,1035.265 Z" style="stroke-width:4.0;stroke:rgb(0,0,0);stroke-linecap:round;fill:rgb(251,106,74);" />
<path d="M550.933,995.127 A1075.000,1075.000 40.000 0,1 552.697,991.824 L508.637,968.188 A1125.000,1125.000 0.000 0,0 506.790,971.645 Z" style="stroke-width:4.0;stroke:rgb(0,0,0);stroke-linecap:round;fill:rgb(251,106,74);" />
<path d="M659.276,830.068 A1075.000,1075.000 40.000 0,1 661.623,827.134 L622.628,795.838 A1125.000,1125.000 0.000 0,0 620.173,798.909 Z" style="stroke-width:4.0;stroke:rgb(0,0,0);stroke-linecap:round;fill:rgb(251,106,74);" />
<path d="M758.974,721.215 A1075.000,1075.000 40.000 0,1 761.701,718.630 L727.361,682.287 A1125.000,1125.000 0.000 0,0 724.508,684.993 Z" style="stroke-width:4.0;stroke:rgb(0,0,0);stroke-linecap:round;fill:rgb(116,196,118);" />
<path d="M1232.172,458.898 A1075.000,1075.000 40.000 0,1 1235.804,457.970 L1223.516,409.504 A1125.000,1125.000 0.000 0,0 1219.715,410.475 Z" style="stroke-width:4.0;stroke:rgb(0,0,0);stroke-linecap:round;fill:rgb(116,196,118);" />
<path d="M1240.962,456.676 A1075.000,1075.000 40.000 0,1 1244.606,455.778 L1232.727,407.210 A1125.000,1125.000 0.000 0,0 1228.914,408.150 Z" style="stroke-width:4.0;stroke:rgb(0,0,0);stroke-linecap:round;fill:rgb(116,196,118);" />
<path d="M529.930,1036.762 A1075.000,1075.000 40.000 0,1 535.551,1025.170 L490.693,1003.085 A1125.000,1125.000 0.000 0,0 484.811,1015.216 Z" style="stroke-width:4.0;stroke:rgb(0,0,0);stroke-linecap:round;fill:rgb(116,196,118);" />
</g>
</g>
<g id="track_0">
<path d="M 1590.631,2560.384 A 1064.250,1064.250 0.00 0,1 1586.9,2560.7 L 1586.9,2560.7 1582.1,2486.5 1579.6,2415.4 1579.3,2347.4 1580.7,2282.1 1583.6,2219.4 1587.6,2159.2 1592.5,2101.3 1598.0,2045.5 1603.9,1991.7 1610.0,1939.6 1616.1,1889.2 1621.9,1840.1 1627.4,1792.4 1632.4,1745.7 1636.8,1700.0 1640.5,1655.0 1643.5,1610.6 1645.5,1566.6 1646.7,1522.8 1647.0,1479.2 1646.4,1435.4 1645.0,1391.4 1642.7,1347.0 1639.6,1301.9 1635.8,1256.1 1631.4,1209.4 1626.6,1161.6 1621.4,1112.5 1616.1,1061.9 1610.7,1009.8 1605.5,955.9 1600.8,900.0 1596.7,842.0 1593.5,781.8 1591.5,719.1 1591.0,653.8 1592.2,585.7 1595.7,514.7 1601.5,440.6  A 1064.250,1064.250 0.00 0,0 1597.8,440.3 L 1597.8,440.3 1592.2,514.4 1589.0,585.4 1588.0,653.5 1588.8,718.8 1591.0,781.5 1594.4,841.7 1598.7,899.6 1603.6,955.5 1609.0,1009.4 1614.5,1061.5 1620.1,1112.0 1625.4,1161.1 1630.4,1209.0 1635.0,1255.7 1638.9,1301.5 1642.1,1346.5 1644.6,1390.9 1646.2,1434.9 1647.0,1478.7 1646.8,1522.3 1645.8,1566.1 1643.8,1610.1 1641.1,1654.5 1637.5,1699.5 1633.3,1745.2 1628.4,1791.9 1623.1,1839.7 1617.4,1888.8 1611.5,1939.2 1605.6,1991.3 1599.9,2045.2 1594.6,2101.0 1589.9,2158.9 1586.1,2219.1 1583.5,2281.8 1582.3,2347.1 1582.8,2415.2 1585.5,2486.2 1590.6,2560.4  Z" style="stroke-width: 2.0;  stroke: rgb(82,82,82); fill: rgb(251,106,74); opacity: 0.667;" />
<path d="M 562.906,2004.464 A 1064.250,1064.250 0.00 0,1 561.1,2001.2 L 561.1,2001.2 625.8,1965.4 685.8,1929.9 741.5,1894.6 793.1,1859.7 841.2,1825.1 885.8,1790.8 927.4,1756.9 966.2,1723.4 1002.5,1690.3 1036.5,1657.6 1068.4,1625.2 1098.5,1593.1 1126.9,1561.2 1154.0,1529.6 1179.7,1498.1 1204.3,1466.6 1228.0,1435.1 1250.8,1403.6 1272.8,1371.8 1294.2,1339.6 1315.1,1307.0 1335.5,1273.8 1355.5,1239.9 1375.0,1205.1 1394.2,1169.2 1413.0,1132.1 1431.5,1093.6 1449.5,1053.4 1467.2,1011.5 1484.3,967.5 1500.9,921.3 1516.9,872.6 1532.2,821.2 1546.7,766.8 1560.1,709.2 1572.5,648.0 1583.7,583.1 1593.4,514.0 1601.5,440.6  A 1064.250,1064.250 0.00 0,0 1597.8,440.3 L 1597.8,440.3 1590.0,513.7 1580.5,582.8 1569.6,647.8 1557.4,709.0 1544.1,766.7 1529.8,821.1 1514.7,872.6 1498.9,921.3 1482.5,967.6 1465.5,1011.6 1448.0,1053.6 1430.0,1093.8 1411.7,1132.4 1393.0,1169.6 1374.0,1205.5 1354.5,1240.4 1334.7,1274.4 1314.4,1307.7 1293.7,1340.3 1272.4,1372.6 1250.4,1404.4 1227.7,1436.1 1204.2,1467.6 1179.7,1499.2 1154.1,1530.8 1127.2,1562.5 1098.8,1594.5 1068.8,1626.7 1037.0,1659.2 1003.1,1692.1 967.0,1725.3 928.3,1758.9 886.8,1792.9 842.3,1827.4 794.4,1862.1 742.8,1897.3 687.3,1932.8 627.4,1968.5 562.9,2004.5  Z" style="stroke-width: 2.0;  stroke: rgb(82,82,82); fill: rgb(116,196,118); opacity: 0.667;" />
<path d="M 562.906,2004.464 A 1064.250,1064.250 0.00 0,1 561.1,2001.2 L 561.1,2001.2 626.2,1967.2 687.4,1936.8 744.9,1909.8 798.9,1885.9 849.7,1865.0 897.3,1846.9 942.1,1831.4 984.2,1818.5 1023.8,1808.0 1061.0,1799.7 1096.0,1793.7 1129.0,1789.7 1160.1,1787.7 1189.4,1787.8 1217.0,1789.7 1243.2,1793.6 1267.9,1799.4 1291.4,1807.0 1313.6,1816.6 1334.7,1828.1 1354.8,1841.6 1374.0,1857.2 1392.2,1874.9 1409.6,1894.8 1426.2,1917.0 1442.1,1941.6 1457.3,1968.8 1471.8,1998.6 1485.7,2031.4 1498.9,2067.1 1511.4,2106.1 1523.4,2148.5 1534.6,2194.5 1545.2,2244.4 1555.1,2298.4 1564.3,2356.7 1572.7,2419.7 1580.2,2487.6 1586.9,2560.7  A 1064.250,1064.250 0.00 0,0 1590.6,2560.4 L 1590.6,2560.4 1583.7,2487.3 1575.9,2419.4 1567.3,2356.5 1557.9,2298.2 1547.8,2244.2 1537.1,2194.4 1525.6,2148.4 1513.6,2106.1 1500.9,2067.1 1487.5,2031.4 1473.6,1998.7 1459.0,1968.9 1443.7,1941.8 1427.7,1917.2 1411.0,1895.1 1393.5,1875.2 1375.2,1857.6 1356.0,1842.1 1335.9,1828.7 1314.7,1817.2 1292.4,1807.7 1269.0,1800.2 1244.2,1794.5 1218.1,1790.7 1190.4,1788.8 1161.1,1788.9 1130.0,1791.0 1097.1,1795.1 1062.1,1801.3 1024.9,1809.6 985.3,1820.3 943.3,1833.4 898.5,1849.0 850.9,1867.3 800.3,1888.3 746.3,1912.4 688.9,1939.7 627.9,1970.3 562.9,2004.5  Z" style="stroke-width: 2.0;  stroke: rgb(82,82,82); fill: rgb(107,174,214); opacity: 0.667;" />
<path d="M 530.802,1060.361 A 1064.250,1064.250 0.00 0,1 532.3,1057.0 L 532.3,1057.0 599.4,1086.9 662.4,1113.5 721.7,1136.8 777.3,1157.3 829.6,1174.9 878.7,1189.9 924.8,1202.4 968.2,1212.6 1009.0,1220.5 1047.4,1226.3 1083.5,1230.1 1117.5,1231.9 1149.6,1231.9 1179.9,1230.0 1208.5,1226.3 1235.6,1220.8 1261.2,1213.5 1285.6,1204.5 1308.7,1193.6 1330.7,1180.9 1351.7,1166.3 1371.7,1149.8 1390.9,1131.2 1409.2,1110.6 1426.8,1087.7 1443.6,1062.4 1459.7,1034.7 1475.2,1004.3 1490.0,971.2 1504.2,935.0 1517.8,895.8 1530.7,853.1 1543.0,806.9 1554.6,756.9 1565.6,702.9 1575.8,644.5 1585.2,581.5 1593.8,513.6 1601.5,440.6  A 1064.250,1064.250 0.00 0,0 1597.8,440.3 L 1597.8,440.3 1590.4,513.3 1582.0,581.2 1572.8,644.2 1562.8,702.6 1552.0,756.7 1540.6,806.8 1528.4,853.0 1515.6,895.7 1502.2,935.0 1488.2,971.2 1473.4,1004.4 1458.1,1034.8 1442.1,1062.6 1425.3,1087.9 1407.9,1110.9 1389.6,1131.6 1370.5,1150.3 1350.5,1166.9 1329.6,1181.5 1307.6,1194.3 1284.5,1205.2 1260.2,1214.4 1234.6,1221.7 1207.5,1227.3 1178.9,1231.1 1148.6,1233.1 1116.6,1233.3 1082.5,1231.6 1046.4,1227.9 1008.0,1222.2 967.2,1214.4 923.8,1204.4 877.6,1192.1 828.5,1177.2 776.1,1159.8 720.4,1139.6 661.1,1116.4 598.0,1090.0 530.8,1060.4  Z" style="stroke-width: 2.0;  stroke: rgb(82,82,82); fill: rgb(253,141,60); opacity: 0.667;" />
<path d="M 530.802,1060.361 A 1064.250,1064.250 0.00 0,1 532.3,1057.0 L 532.3,1057.0 599.0,1088.7 661.0,1120.4 718.6,1152.0 772.1,1183.6 821.8,1215.0 868.2,1246.2 911.3,1277.3 951.6,1308.1 989.3,1338.7 1024.6,1369.0 1057.8,1399.2 1089.0,1429.3 1118.5,1459.2 1146.4,1489.0 1172.9,1518.8 1198.3,1548.7 1222.5,1578.7 1245.8,1608.9 1268.3,1639.4 1290.0,1670.4 1311.1,1701.9 1331.5,1734.1 1351.5,1767.1 1370.9,1801.1 1389.9,1836.2 1408.4,1872.6 1426.5,1910.5 1444.1,1950.1 1461.2,1991.6 1477.7,2035.1 1493.7,2080.9 1508.9,2129.3 1523.4,2180.5 1537.0,2234.7 1549.5,2292.2 1561.0,2353.2 1571.1,2418.1 1579.8,2487.2 1586.9,2560.7  A 1064.250,1064.250 0.00 0,0 1590.6,2560.4 L 1590.6,2560.4 1583.3,2486.9 1574.3,2417.9 1564.0,2353.0 1552.3,2292.0 1539.5,2234.6 1525.8,2180.4 1511.1,2129.3 1495.7,2081.0 1479.6,2035.2 1462.9,1991.7 1445.7,1950.3 1427.9,1910.8 1409.7,1873.0 1391.1,1836.6 1372.0,1801.6 1352.4,1767.6 1332.3,1734.7 1311.8,1702.6 1290.6,1671.1 1268.8,1640.2 1246.2,1609.8 1222.8,1579.6 1198.4,1549.7 1173.0,1519.9 1146.3,1490.2 1118.3,1460.5 1088.7,1430.7 1057.4,1400.8 1024.2,1370.7 988.8,1340.4 951.0,1310.0 910.6,1279.3 867.3,1248.4 820.8,1217.4 771.0,1186.1 717.3,1154.8 659.7,1123.3 597.6,1091.8 530.8,1060.4  Z" style="stroke-width: 2.0;  stroke: rgb(82,82,82); fill: rgb(255,0,0); opacity: 0.667;" />
<path d="M 530.802,1060.361 A 1064.250,1064.250 0.00 0,1 532.3,1057.0 L 532.3,1057.0 598.8,1088.0 660.0,1117.8 716.2,1146.4 767.8,1174.0 814.9,1200.5 857.8,1226.0 896.8,1250.6 932.0,1274.5 963.6,1297.5 991.9,1319.9 1016.9,1341.6 1038.8,1362.8 1057.8,1383.6 1074.0,1403.9 1087.4,1423.9 1098.1,1443.6 1106.2,1463.2 1111.8,1482.6 1114.9,1502.0 1115.5,1521.5 1113.6,1541.0 1109.2,1560.8 1102.3,1580.8 1092.8,1601.1 1080.6,1621.9 1065.7,1643.2 1048.1,1665.0 1027.4,1687.5 1003.8,1710.8 977.0,1734.8 946.8,1759.8 913.1,1785.7 875.7,1812.6 834.4,1840.7 789.0,1870.1 739.2,1900.7 684.9,1932.7 625.6,1966.2 561.1,2001.2  A 1064.250,1064.250 0.00 0,0 562.9,2004.5 L 562.9,2004.5 627.2,1969.2 686.4,1935.5 740.6,1903.3 790.3,1872.5 835.6,1843.1 876.8,1814.8 914.1,1787.7 947.7,1761.7 977.8,1736.6 1004.5,1712.5 1028.1,1689.2 1048.6,1666.6 1066.2,1644.7 1081.0,1623.4 1093.1,1602.6 1102.6,1582.2 1109.4,1562.1 1113.8,1542.4 1115.6,1522.8 1114.9,1503.4 1111.8,1484.0 1106.1,1464.5 1097.9,1445.0 1087.1,1425.3 1073.6,1405.4 1057.4,1385.1 1038.4,1364.4 1016.3,1343.3 991.2,1321.6 962.9,1299.4 931.2,1276.4 895.9,1252.7 856.9,1228.2 813.9,1202.9 766.6,1176.5 715.0,1149.2 658.7,1120.7 597.4,1091.2 530.8,1060.4  Z" style="stroke-width: 2.0;  stroke: rgb(82,82,82); fill: rgb(255,0,204); opacity: 0.667;" />
<path d="M 560.423,1000.176 A 1064.250,1064.250 0.00 0,1 562.2,996.9 L 562.2,996.9 627.2,1031.0 688.3,1061.5 745.8,1088.7 799.8,1112.6 850.6,1133.6 898.3,1151.8 943.1,1167.3 985.3,1180.3 1024.9,1190.9 1062.2,1199.2 1097.4,1205.3 1130.5,1209.4 1161.7,1211.4 1191.1,1211.4 1219.0,1209.5 1245.3,1205.7 1270.3,1200.0 1294.0,1192.3 1316.5,1182.8 1337.9,1171.4 1358.3,1157.9 1377.7,1142.4 1396.3,1124.8 1414.1,1105.0 1431.2,1082.9 1447.5,1058.4 1463.1,1031.3 1478.1,1001.5 1492.5,968.9 1506.3,933.2 1519.5,894.4 1532.1,852.1 1544.0,806.2 1555.4,756.4 1566.1,702.5 1576.1,644.3 1585.3,581.4 1593.9,513.6 1601.5,440.6  A 1064.250,1064.250 0.00 0,0 1597.8,440.3 L 1597.8,440.3 1590.4,513.3 1582.1,581.1 1573.1,644.0 1563.3,702.3 1552.8,756.2 1541.6,806.0 1529.8,852.0 1517.4,894.3 1504.3,933.2 1490.7,968.9 1476.4,1001.6 1461.5,1031.4 1445.9,1058.6 1429.7,1083.2 1412.7,1105.3 1395.0,1125.2 1376.5,1142.9 1357.1,1158.4 1336.7,1171.9 1315.4,1183.5 1292.9,1193.1 1269.3,1200.8 1244.3,1206.6 1218.0,1210.5 1190.1,1212.5 1160.7,1212.5 1129.4,1210.7 1096.3,1206.7 1061.2,1200.7 1023.8,1192.6 984.2,1182.1 941.9,1169.3 897.0,1153.9 849.3,1135.9 798.5,1115.1 744.4,1091.3 686.8,1064.4 625.6,1034.0 560.4,1000.2  Z" style="stroke-width: 2.0;  stroke: rgb(82,82,82); fill: rgb(255,204,204); opacity: 0.667;" />
<path d="M 560.423,1000.176 A 1064.250,1064.250 0.00 0,1 562.2,996.9 L 562.2,996.9 626.8,1032.8 686.7,1068.4 742.2,1103.8 793.8,1138.8 841.7,1173.5 886.2,1207.8 927.7,1241.7 966.4,1275.2 1002.5,1308.4 1036.3,1341.2 1068.1,1373.6 1098.0,1405.7 1126.2,1437.6 1153.0,1469.3 1178.5,1500.8 1202.9,1532.3 1226.3,1563.8 1248.8,1595.5 1270.6,1627.3 1291.7,1659.5 1312.2,1692.2 1332.2,1725.5 1351.8,1759.5 1370.9,1794.4 1389.7,1830.4 1408.0,1867.6 1426.0,1906.2 1443.5,1946.5 1460.5,1988.6 1477.1,2032.7 1493.1,2079.0 1508.4,2127.8 1522.9,2179.4 1536.6,2233.9 1549.3,2291.7 1560.8,2353.0 1571.0,2418.0 1579.8,2487.2 1586.9,2560.7  A 1064.250,1064.250 0.00 0,0 1590.6,2560.4 L 1590.6,2560.4 1583.3,2486.9 1574.3,2417.8 1563.8,2352.7 1552.0,2291.5 1539.2,2233.8 1525.3,2179.3 1510.6,2127.8 1495.1,2079.0 1479.0,2032.7 1462.3,1988.7 1445.0,1946.7 1427.4,1906.5 1409.3,1867.9 1390.8,1830.8 1371.9,1794.9 1352.7,1760.0 1333.0,1726.1 1312.9,1692.9 1292.2,1660.3 1271.0,1628.1 1249.1,1596.3 1226.5,1564.8 1203.0,1533.4 1178.5,1502.0 1152.9,1470.5 1126.0,1438.9 1097.6,1407.1 1067.6,1375.1 1035.8,1342.8 1001.8,1310.1 965.6,1277.1 926.8,1243.7 885.2,1209.9 840.6,1175.8 792.5,1141.3 740.8,1106.4 685.2,1071.2 625.1,1035.8 560.4,1000.2  Z" style="stroke-width: 2.0;  stroke: rgb(82,82,82); fill: rgb(255,153,0); opacity: 0.667;" />
<path d="M 560.423,1000.176 A 1064.250,1064.250 0.00 0,1 562.2,996.9 L 562.2,996.9 626.5,1032.1 685.7,1065.8 740.1,1098.1 789.8,1129.1 835.2,1158.8 876.5,1187.4 913.9,1214.9 947.6,1241.3 977.8,1266.9 1004.8,1291.6 1028.6,1315.6 1049.3,1338.8 1067.2,1361.5 1082.4,1383.6 1094.8,1405.3 1104.7,1426.7 1112.0,1447.7 1116.9,1468.5 1119.3,1489.3 1119.3,1510.0 1116.8,1530.7 1111.9,1551.5 1104.5,1572.5 1094.6,1593.9 1082.1,1615.5 1067.0,1637.6 1049.0,1660.3 1028.2,1683.5 1004.4,1707.4 977.4,1732.0 947.1,1757.5 913.3,1783.9 875.8,1811.3 834.5,1839.8 789.0,1869.5 739.3,1900.3 684.9,1932.5 625.6,1966.1 561.1,2001.2  A 1064.250,1064.250 0.00 0,0 562.9,2004.5 L 562.9,2004.5 627.2,1969.2 686.4,1935.4 740.7,1903.0 790.3,1872.0 835.7,1842.2 876.9,1813.5 914.3,1786.0 948.0,1759.5 978.2,1733.9 1005.1,1709.1 1028.8,1685.1 1049.6,1661.8 1067.4,1639.1 1082.5,1617.0 1095.0,1595.3 1104.8,1573.9 1112.1,1552.9 1116.9,1532.0 1119.3,1511.3 1119.3,1490.6 1116.8,1469.9 1111.9,1449.1 1104.4,1428.0 1094.5,1406.7 1082.0,1385.1 1066.8,1363.0 1048.8,1340.4 1027.9,1317.2 1004.1,1293.3 977.0,1268.7 946.7,1243.3 912.9,1216.9 875.4,1189.6 834.0,1161.1 788.5,1131.6 738.7,1100.8 684.2,1068.6 624.9,1035.1 560.4,1000.2  Z" style="stroke-width: 2.0;  stroke: rgb(82,82,82); fill: rgb(255,204,0); opacity: 0.667;" />
<path d="M 560.423,1000.176 A 1064.250,1064.250 0.00 0,1 562.2,996.9 L 562.2,996.9 626.7,1031.5 686.2,1063.6 741.1,1093.3 791.5,1120.6 837.6,1145.7 879.8,1168.8 918.1,1189.8 952.7,1209.0 983.8,1226.3 1011.5,1242.0 1036.1,1255.9 1057.5,1268.3 1076.0,1279.2 1091.5,1288.5 1104.3,1296.5 1114.3,1303.0 1121.6,1308.2 1126.2,1312.1 1128.2,1314.6 1127.6,1315.9 1124.4,1315.8 1118.5,1314.4 1109.9,1311.8 1098.7,1307.8 1084.7,1302.4 1067.8,1295.7 1048.0,1287.6 1025.2,1278.0 999.2,1266.8 970.0,1254.2 937.3,1239.9 901.2,1223.9 861.2,1206.1 817.4,1186.5 769.5,1164.9 717.2,1141.3 660.5,1115.5 598.9,1087.4 532.3,1057.0  A 1064.250,1064.250 0.00 0,0 530.8,1060.4 L 530.8,1060.4 597.5,1090.6 659.1,1118.4 716.0,1144.0 768.3,1167.4 816.3,1188.9 860.2,1208.3 900.2,1226.0 936.4,1241.8 969.1,1256.0 998.4,1268.6 1024.4,1279.6 1047.2,1289.1 1067.1,1297.2 1084.0,1303.9 1098.0,1309.2 1109.3,1313.1 1117.8,1315.8 1123.7,1317.1 1127.0,1317.2 1127.6,1315.9 1125.6,1313.4 1120.9,1309.6 1113.6,1304.4 1103.6,1297.9 1090.8,1290.0 1075.2,1280.7 1056.7,1269.9 1035.2,1257.6 1010.7,1243.7 982.8,1228.1 951.7,1210.9 917.0,1191.9 878.6,1170.9 836.4,1148.0 790.2,1123.1 739.7,1095.9 684.7,1066.5 625.0,1034.6 560.4,1000.2  Z" style="stroke-width: 2.0;  stroke: rgb(82,82,82); fill: rgb(255,255,0); opacity: 0.667;" />
<path d="M 667.683,836.768 A 1064.250,1064.250 0.00 0,1 670.0,833.9 L 670.0,833.9 727.6,879.3 781.8,920.6 832.8,958.0 880.8,991.6 926.0,1021.7 968.4,1048.5 1008.4,1072.2 1046.0,1092.8 1081.5,1110.6 1114.8,1125.7 1146.2,1138.2 1175.9,1148.3 1203.8,1155.9 1230.2,1161.1 1255.2,1164.1 1278.8,1164.8 1301.2,1163.3 1322.4,1159.7 1342.5,1153.8 1361.7,1145.7 1380.0,1135.3 1397.4,1122.7 1414.1,1107.7 1430.0,1090.3 1445.3,1070.3 1460.0,1047.7 1474.0,1022.4 1487.5,994.2 1500.5,962.9 1512.9,928.5 1524.8,890.7 1536.3,849.3 1547.2,804.2 1557.6,755.0 1567.5,701.7 1576.9,643.8 1585.7,581.2 1594.0,513.6 1601.5,440.6  A 1064.250,1064.250 0.00 0,0 1597.8,440.3 L 1597.8,440.3 1590.5,513.2 1582.5,580.9 1573.9,643.5 1564.8,701.4 1555.0,754.8 1544.8,804.0 1534.0,849.2 1522.7,890.6 1510.9,928.5 1498.6,962.9 1485.7,994.2 1472.3,1022.5 1458.4,1047.9 1443.8,1070.5 1428.6,1090.5 1412.7,1108.0 1396.1,1123.1 1378.7,1135.8 1360.5,1146.2 1341.3,1154.3 1321.2,1160.3 1300.0,1164.0 1277.6,1165.6 1254.0,1164.9 1229.0,1162.1 1202.6,1156.9 1174.6,1149.4 1145.0,1139.5 1113.5,1127.1 1080.1,1112.1 1044.6,1094.4 1006.9,1073.9 966.9,1050.4 924.3,1023.7 879.0,993.8 830.9,960.3 779.8,923.1 725.4,882.0 667.7,836.8  Z" style="stroke-width: 2.0;  stroke: rgb(82,82,82); fill: rgb(204,255,0); opacity: 0.667;" />
<path d="M 667.683,836.768 A 1064.250,1064.250 0.00 0,1 670.0,833.9 L 670.0,833.9 727.0,881.0 779.5,927.3 828.0,972.7 872.7,1017.1 914.0,1060.6 952.2,1103.2 987.6,1144.9 1020.5,1185.7 1051.1,1225.7 1079.8,1264.9 1106.6,1303.4 1132.0,1341.2 1156.0,1378.3 1178.8,1415.0 1200.6,1451.2 1221.7,1487.0 1242.0,1522.6 1261.7,1558.1 1281.0,1593.5 1299.8,1629.1 1318.4,1664.9 1336.7,1701.1 1354.9,1737.9 1372.8,1775.3 1390.5,1813.7 1408.1,1853.2 1425.4,1893.8 1442.6,1936.0 1459.4,1979.8 1475.8,2025.5 1491.7,2073.3 1507.1,2123.4 1521.9,2176.1 1535.7,2231.6 1548.6,2290.2 1560.4,2352.1 1570.9,2417.6 1579.8,2487.1 1586.9,2560.7  A 1064.250,1064.250 0.00 0,0 1590.6,2560.4 L 1590.6,2560.4 1583.2,2486.8 1574.1,2417.4 1563.4,2351.9 1551.4,2290.0 1538.3,2231.5 1524.2,2176.0 1509.3,2123.4 1493.8,2073.3 1477.6,2025.6 1461.0,1980.0 1444.1,1936.2 1426.8,1894.1 1409.3,1853.5 1391.6,1814.1 1373.7,1775.8 1355.7,1738.4 1337.5,1701.7 1319.0,1665.5 1300.3,1629.8 1281.3,1594.3 1261.9,1558.9 1242.0,1523.5 1221.6,1488.0 1200.5,1452.2 1178.5,1416.1 1155.5,1379.5 1131.4,1342.4 1106.0,1304.7 1078.9,1266.4 1050.2,1227.3 1019.4,1187.4 986.3,1146.7 950.8,1105.1 912.4,1062.7 871.0,1019.3 826.1,975.0 777.5,929.8 724.8,883.7 667.7,836.8  Z" style="stroke-width: 2.0;  stroke: rgb(82,82,82); fill: rgb(0,255,0); opacity: 0.667;" />
<path d="M 667.683,836.768 A 1064.250,1064.250 0.00 0,1 670.0,833.9 L 670.0,833.9 726.8,880.3 778.8,924.6 826.3,966.9 869.5,1007.2 908.7,1045.6 944.1,1082.4 975.9,1117.5 1004.3,1151.2 1029.6,1183.5 1051.8,1214.5 1071.2,1244.3 1087.8,1273.1 1101.9,1301.0 1113.4,1328.0 1122.5,1354.3 1129.2,1379.9 1133.7,1405.0 1135.9,1429.6 1135.9,1453.9 1133.6,1478.0 1129.2,1501.8 1122.4,1525.6 1113.4,1549.5 1102.0,1573.4 1088.2,1597.6 1071.9,1622.0 1053.0,1646.7 1031.3,1672.0 1006.8,1697.7 979.2,1724.1 948.4,1751.2 914.2,1779.0 876.4,1807.6 834.9,1837.2 789.3,1867.8 739.4,1899.4 684.9,1932.1 625.6,1966.0 561.1,2001.2  A 1064.250,1064.250 0.00 0,0 562.9,2004.5 L 562.9,2004.5 627.2,1969.1 686.4,1934.9 740.8,1902.0 790.5,1870.2 836.1,1839.5 877.5,1809.8 915.2,1781.0 949.3,1753.1 980.0,1725.9 1007.5,1699.5 1031.9,1673.6 1053.5,1648.3 1072.4,1623.5 1088.6,1599.0 1102.3,1574.8 1113.6,1550.8 1122.5,1527.0 1129.2,1503.1 1133.6,1479.2 1135.7,1455.2 1135.6,1430.9 1133.4,1406.3 1128.8,1381.2 1122.0,1355.6 1112.8,1329.3 1101.2,1302.4 1087.0,1274.6 1070.3,1245.8 1050.8,1216.0 1028.5,1185.1 1003.1,1152.9 974.6,1119.4 942.6,1084.3 907.1,1047.7 867.8,1009.4 824.5,969.2 776.8,927.2 724.7,883.1 667.7,836.8  Z" style="stroke-width: 2.0;  stroke: rgb(82,82,82); fill: rgb(53,128,0); opacity: 0.667;" />
<path d="M 667.683,836.768 A 1064.250,1064.250 0.00 0,1 670.0,833.9 L 670.0,833.9 727.0,879.8 779.5,922.5 827.7,962.2 871.8,998.9 912.1,1032.8 948.7,1064.1 981.8,1093.0 1011.5,1119.4 1038.0,1143.6 1061.4,1165.6 1081.9,1185.6 1099.6,1203.6 1114.5,1219.8 1126.7,1234.1 1136.3,1246.7 1143.4,1257.6 1147.9,1266.9 1150.0,1274.5 1149.6,1280.7 1146.8,1285.3 1141.5,1288.3 1133.7,1289.9 1123.4,1290.0 1110.5,1288.6 1094.9,1285.6 1076.6,1281.1 1055.5,1275.0 1031.5,1267.4 1004.4,1258.0 974.2,1246.9 940.7,1234.1 903.8,1219.4 863.2,1202.8 818.8,1184.1 770.4,1163.4 717.7,1140.4 660.7,1115.1 599.0,1087.3 532.3,1057.0  A 1064.250,1064.250 0.00 0,0 530.8,1060.4 L 530.8,1060.4 597.5,1090.5 659.3,1118.0 716.5,1143.1 769.2,1165.9 817.7,1186.5 862.1,1205.0 902.8,1221.5 939.8,1236.0 973.4,1248.8 1003.6,1259.7 1030.7,1269.0 1054.7,1276.6 1075.8,1282.6 1094.1,1287.0 1109.7,1289.9 1122.6,1291.3 1133.0,1291.2 1140.8,1289.6 1146.1,1286.5 1148.9,1281.9 1149.2,1275.8 1147.1,1268.1 1142.5,1258.8 1135.4,1248.0 1125.8,1235.4 1113.5,1221.1 1098.5,1205.0 1080.8,1187.1 1060.3,1167.2 1036.8,1145.2 1010.2,1121.1 980.3,1094.8 947.2,1066.1 910.5,1034.9 870.1,1001.1 825.8,964.5 777.5,925.0 724.8,882.5 667.7,836.8  Z" style="stroke-width: 2.0;  stroke: rgb(82,82,82); fill: rgb(0,0,204); opacity: 0.667;" />
<path d="M 667.683,836.768 A 1064.250,1064.250 0.00 0,1 670.0,833.9 L 670.0,833.9 727.0,879.8 779.6,922.4 827.9,961.9 872.2,998.4 912.6,1032.0 949.4,1063.0 982.7,1091.4 1012.7,1117.4 1039.5,1141.1 1063.2,1162.6 1084.0,1182.0 1102.1,1199.3 1117.3,1214.7 1130.0,1228.2 1140.1,1239.9 1147.6,1249.9 1152.7,1258.2 1155.3,1264.8 1155.5,1269.7 1153.3,1273.1 1148.6,1274.9 1141.5,1275.0 1131.9,1273.6 1119.8,1270.5 1105.1,1265.9 1087.7,1259.5 1067.5,1251.5 1044.5,1241.7 1018.6,1230.1 989.5,1216.6 957.2,1201.2 921.6,1183.8 882.4,1164.3 839.5,1142.6 792.7,1118.6 741.7,1092.1 686.5,1063.1 626.7,1031.4 562.2,996.9  A 1064.250,1064.250 0.00 0,0 560.4,1000.2 L 560.4,1000.2 625.1,1034.5 685.0,1065.9 740.3,1094.7 791.3,1121.0 838.2,1144.9 881.2,1166.5 920.5,1185.9 956.2,1203.1 988.5,1218.4 1017.6,1231.8 1043.6,1243.3 1066.7,1253.0 1086.9,1261.0 1104.3,1267.2 1119.0,1271.9 1131.2,1274.9 1140.8,1276.3 1147.9,1276.1 1152.5,1274.3 1154.7,1271.0 1154.5,1266.0 1151.8,1259.4 1146.7,1251.1 1139.2,1241.2 1129.0,1229.5 1116.3,1216.0 1101.0,1200.7 1082.9,1183.4 1062.0,1164.1 1038.2,1142.7 1011.3,1119.1 981.3,1093.3 947.9,1064.9 911.0,1034.1 870.4,1000.6 826.0,964.2 777.6,924.9 724.9,882.5 667.7,836.8  Z" style="stroke-width: 2.0;  stroke: rgb(82,82,82); fill: rgb(102,153,255); opacity: 0.667;" />
<path d="M 766.385,729.003 A 1064.250,1064.250 0.00 0,1 769.1,726.4 L 769.1,726.4 819.8,779.4 867.6,827.8 912.6,871.8 955.0,911.9 994.9,948.0 1032.5,980.5 1067.9,1009.5 1101.3,1035.3 1132.7,1057.9 1162.3,1077.4 1190.2,1094.2 1216.5,1108.1 1241.4,1119.4 1264.9,1128.1 1287.1,1134.4 1308.1,1138.1 1328.1,1139.4 1347.0,1138.3 1365.0,1134.8 1382.2,1129.0 1398.5,1120.6 1414.1,1109.9 1429.1,1096.6 1443.4,1080.7 1457.1,1062.1 1470.3,1040.8 1483.0,1016.6 1495.2,989.5 1506.9,959.1 1518.2,925.5 1529.1,888.3 1539.6,847.6 1549.7,802.9 1559.4,754.2 1568.7,701.1 1577.6,643.5 1586.0,581.1 1594.0,513.5 1601.5,440.6  A 1064.250,1064.250 0.00 0,0 1597.8,440.3 L 1597.8,440.3 1590.6,513.2 1582.8,580.8 1574.6,643.2 1565.9,700.9 1556.8,754.0 1547.3,802.7 1537.4,847.4 1527.0,888.2 1516.2,925.4 1505.0,959.1 1493.4,989.5 1481.3,1016.7 1468.7,1040.9 1455.6,1062.3 1441.9,1080.9 1427.7,1096.8 1412.8,1110.2 1397.2,1121.0 1380.9,1129.4 1363.8,1135.3 1345.8,1138.9 1326.8,1140.0 1306.9,1138.8 1285.8,1135.1 1263.6,1129.0 1240.1,1120.3 1215.2,1109.1 1188.8,1095.3 1160.8,1078.6 1131.1,1059.1 1099.6,1036.7 1066.2,1011.0 1030.7,982.1 993.0,949.8 953.0,913.8 910.4,873.9 865.3,830.0 817.3,781.8 766.4,729.0  Z" style="stroke-width: 2.0;  stroke: rgb(82,82,82); fill: rgb(153,204,255); opacity: 0.667;" />
<path d="M 766.385,729.003 A 1064.250,1064.250 0.00 0,1 769.1,726.4 L 769.1,726.4 819.1,781.1 864.9,834.3 906.9,886.2 945.3,936.8 980.7,986.0 1013.2,1034.0 1043.1,1080.7 1070.8,1126.3 1096.6,1170.7 1120.6,1214.0 1143.1,1256.3 1164.4,1297.8 1184.5,1338.3 1203.8,1378.2 1222.4,1417.4 1240.3,1456.1 1257.9,1494.3 1275.1,1532.3 1292.1,1570.1 1308.9,1607.8 1325.7,1645.7 1342.4,1683.9 1359.1,1722.5 1375.9,1761.7 1392.7,1801.7 1409.4,1842.7 1426.1,1884.8 1442.7,1928.3 1459.2,1973.4 1475.4,2020.2 1491.2,2069.0 1506.6,2120.1 1521.3,2173.6 1535.3,2229.8 1548.3,2289.0 1560.2,2351.4 1570.7,2417.3 1579.7,2487.0 1586.9,2560.7  A 1064.250,1064.250 0.00 0,0 1590.6,2560.4 L 1590.6,2560.4 1583.2,2486.7 1573.9,2417.1 1563.2,2351.2 1551.0,2288.8 1537.8,2229.7 1523.6,2173.5 1508.7,2120.1 1493.2,2069.1 1477.2,2020.3 1460.8,1973.5 1444.2,1928.5 1427.5,1885.1 1410.6,1843.0 1393.7,1802.1 1376.8,1762.2 1359.9,1723.0 1343.1,1684.5 1326.2,1646.3 1309.3,1608.5 1292.3,1570.8 1275.2,1533.1 1257.9,1495.2 1240.2,1457.0 1222.1,1418.4 1203.4,1379.2 1184.0,1339.4 1163.6,1298.9 1142.3,1257.6 1119.6,1215.3 1095.4,1172.1 1069.5,1127.8 1041.7,1082.3 1011.5,1035.7 978.9,987.8 943.4,938.7 904.7,888.3 862.6,836.5 816.6,783.4 766.4,729.0  Z" style="stroke-width: 2.0;  stroke: rgb(82,82,82); fill: rgb(0,255,255); opacity: 0.667;" />
<path d="M 766.385,729.003 A 1064.250,1064.250 0.00 0,1 769.1,726.4 L 769.1,726.4 819.0,780.4 864.4,831.6 905.6,880.4 942.8,926.7 976.3,970.9 1006.3,1012.9 1033.1,1053.1 1056.7,1091.4 1077.4,1128.0 1095.4,1163.1 1110.7,1196.8 1123.6,1229.2 1134.1,1260.4 1142.4,1290.6 1148.4,1319.8 1152.3,1348.2 1154.1,1375.9 1153.9,1403.1 1151.7,1429.7 1147.4,1456.0 1141.1,1481.9 1132.6,1507.7 1122.1,1533.4 1109.4,1559.1 1094.3,1584.9 1076.9,1610.9 1057.1,1637.2 1034.6,1663.8 1009.3,1690.8 981.1,1718.4 949.8,1746.6 915.2,1775.4 877.2,1804.9 835.3,1835.3 789.5,1866.5 739.5,1898.6 684.9,1931.8 625.6,1965.9 561.1,2001.2  A 1064.250,1064.250 0.00 0,0 562.9,2004.5 L 562.9,2004.5 627.2,1969.0 686.5,1934.6 740.9,1901.3 790.8,1869.0 836.5,1837.6 878.2,1807.1 916.2,1777.4 950.7,1748.5 981.9,1720.2 1010.0,1692.6 1035.1,1665.4 1057.5,1638.7 1077.3,1612.4 1094.6,1586.3 1109.6,1560.5 1122.2,1534.7 1132.7,1509.0 1141.0,1483.2 1147.2,1457.2 1151.4,1430.9 1153.6,1404.3 1153.7,1377.2 1151.8,1349.4 1147.8,1321.0 1141.6,1291.8 1133.3,1261.7 1122.7,1230.5 1109.7,1198.2 1094.2,1164.5 1076.1,1129.5 1055.3,1092.9 1031.5,1054.7 1004.6,1014.7 974.5,972.7 940.8,928.7 903.4,882.4 862.1,833.8 816.5,782.7 766.4,729.0  Z" style="stroke-width: 2.0;  stroke: rgb(82,82,82); fill: rgb(204,255,255); opacity: 0.667;" />
<path d="M 766.385,729.003 A 1064.250,1064.250 0.00 0,1 769.1,726.4 L 769.1,726.4 819.2,779.8 865.2,829.5 907.3,875.7 945.6,918.6 980.5,958.3 1011.9,995.1 1040.2,1029.0 1065.4,1060.2 1087.6,1088.8 1107.1,1115.0 1123.8,1138.9 1137.9,1160.6 1149.5,1180.2 1158.7,1197.8 1165.4,1213.4 1169.8,1227.2 1171.8,1239.1 1171.6,1249.3 1169.0,1257.8 1164.1,1264.6 1156.9,1269.7 1147.3,1273.3 1135.4,1275.2 1121.0,1275.5 1104.0,1274.1 1084.4,1271.1 1062.2,1266.4 1037.1,1260.0 1009.1,1251.9 978.0,1241.9 943.7,1230.1 906.0,1216.3 864.8,1200.4 819.9,1182.5 771.1,1162.3 718.2,1139.8 660.9,1114.8 599.0,1087.2 532.3,1057.0  A 1064.250,1064.250 0.00 0,0 530.8,1060.4 L 530.8,1060.4 597.6,1090.4 659.5,1117.7 716.9,1142.5 769.9,1164.8 818.8,1184.8 863.8,1202.7 905.0,1218.3 942.7,1232.0 977.1,1243.7 1008.2,1253.6 1036.2,1261.7 1061.3,1268.0 1083.6,1272.6 1103.2,1275.5 1120.2,1276.8 1134.6,1276.4 1146.6,1274.5 1156.1,1270.9 1163.3,1265.7 1168.1,1258.9 1170.7,1250.4 1170.9,1240.2 1168.8,1228.3 1164.4,1214.6 1157.6,1199.0 1148.4,1181.4 1136.7,1161.9 1122.5,1140.3 1105.7,1116.4 1086.2,1090.3 1063.8,1061.7 1038.5,1030.6 1010.2,996.8 978.6,960.2 943.6,920.5 905.1,877.8 862.9,831.8 816.7,782.2 766.4,729.0  Z" style="stroke-width: 2.0;  stroke: rgb(82,82,82); fill: rgb(153,0,204); opacity: 0.667;" />
<path d="M 766.385,729.003 A 1064.250,1064.250 0.00 0,1 769.1,726.4 L 769.1,726.4 819.2,779.8 865.3,829.4 907.5,875.4 946.0,918.1 981.0,957.6 1012.7,994.0 1041.2,1027.5 1066.6,1058.3 1089.2,1086.4 1109.0,1112.1 1126.1,1135.4 1140.6,1156.4 1152.6,1175.3 1162.2,1192.0 1169.3,1206.8 1174.2,1219.6 1176.8,1230.6 1177.1,1239.7 1175.1,1247.0 1170.8,1252.6 1164.3,1256.4 1155.4,1258.5 1144.2,1258.9 1130.5,1257.6 1114.4,1254.5 1095.7,1249.6 1074.3,1243.0 1050.3,1234.5 1023.3,1224.1 993.4,1211.7 960.3,1197.3 923.9,1180.8 884.1,1162.0 840.7,1141.0 793.4,1117.5 742.2,1091.5 686.7,1062.8 626.8,1031.3 562.2,996.9  A 1064.250,1064.250 0.00 0,0 560.4,1000.2 L 560.4,1000.2 625.2,1034.4 685.2,1065.7 740.8,1094.1 792.1,1120.0 839.4,1143.3 882.9,1164.2 922.8,1182.8 959.2,1199.2 992.4,1213.5 1022.3,1225.7 1049.3,1236.0 1073.5,1244.5 1094.8,1251.0 1113.5,1255.8 1129.7,1258.9 1143.3,1260.2 1154.5,1259.7 1163.4,1257.6 1170.0,1253.7 1174.2,1248.1 1176.2,1240.8 1175.8,1231.7 1173.2,1220.8 1168.3,1207.9 1161.1,1193.2 1151.4,1176.5 1139.4,1157.7 1124.8,1136.7 1107.6,1113.5 1087.7,1087.9 1065.1,1059.8 1039.5,1029.1 1010.9,995.7 979.1,959.4 944.0,920.1 905.3,877.5 862.9,831.6 816.7,782.2 766.4,729.0  Z" style="stroke-width: 2.0;  stroke: rgb(82,82,82); fill: rgb(204,51,255); opacity: 0.667;" />
<path d="M 766.385,729.003 A 1064.250,1064.250 0.00 0,1 769.1,726.4 L 769.1,726.4 819.3,779.7 865.6,829.1 908.1,874.7 947.1,916.7 982.7,955.5 1015.1,991.0 1044.4,1023.4 1070.8,1053.0 1094.3,1079.8 1115.2,1104.0 1133.5,1125.6 1149.4,1144.8 1162.8,1161.6 1173.9,1176.3 1182.7,1188.7 1189.3,1199.0 1193.7,1207.2 1195.9,1213.4 1196.0,1217.6 1194.0,1219.8 1189.8,1220.1 1183.5,1218.3 1174.9,1214.6 1164.1,1208.8 1151.0,1201.1 1135.5,1191.2 1117.7,1179.2 1097.2,1164.9 1074.2,1148.4 1048.5,1129.6 1019.8,1108.2 988.2,1084.3 953.5,1057.7 915.5,1028.3 874.1,995.9 829.0,960.5 780.1,921.8 727.2,879.6 670.0,833.9  A 1064.250,1064.250 0.00 0,0 667.7,836.8 L 667.7,836.8 725.0,882.3 778.1,924.3 827.1,962.8 872.3,998.1 913.9,1030.3 952.0,1059.6 986.8,1086.1 1018.5,1109.9 1047.2,1131.1 1073.0,1149.9 1096.1,1166.3 1116.5,1180.5 1134.5,1192.5 1150.0,1202.3 1163.1,1210.0 1173.9,1215.7 1182.5,1219.4 1188.8,1221.1 1193.0,1220.9 1195.1,1218.7 1194.9,1214.5 1192.7,1208.3 1188.2,1200.1 1181.6,1189.8 1172.8,1177.4 1161.6,1162.8 1148.1,1146.0 1132.2,1126.9 1113.9,1105.3 1092.9,1081.2 1069.2,1054.5 1042.7,1025.0 1013.3,992.7 980.8,957.3 945.1,918.7 905.9,876.7 863.2,831.3 816.8,782.1 766.4,729.0  Z" style="stroke-width: 2.0;  stroke: rgb(82,82,82); fill: rgb(204,153,255); opacity: 0.667;" />
<path d="M 1234.850,469.309 A 1064.250,1064.250 0.00 0,1 1238.4,468.4 L 1238.4,468.4 1256.6,539.3 1273.9,604.8 1290.2,665.1 1305.7,720.4 1320.4,771.1 1334.3,817.4 1347.5,859.4 1360.0,897.4 1371.9,931.5 1383.2,962.0 1394.0,988.9 1404.2,1012.4 1414.0,1032.7 1423.4,1049.7 1432.3,1063.7 1440.9,1074.7 1449.2,1082.8 1457.2,1088.0 1464.9,1090.2 1472.4,1089.7 1479.6,1086.2 1486.7,1079.9 1493.7,1070.7 1500.5,1058.5 1507.2,1043.3 1513.9,1025.0 1520.5,1003.5 1527.0,978.7 1533.5,950.5 1540.1,918.7 1546.7,883.1 1553.3,843.7 1559.9,800.1 1566.6,752.3 1573.4,700.0 1580.3,642.9 1587.3,580.8 1594.3,513.5 1601.5,440.6  A 1064.250,1064.250 0.00 0,0 1597.8,440.3 L 1597.8,440.3 1590.9,513.1 1584.0,580.5 1577.3,642.6 1570.6,699.7 1564.0,752.1 1557.4,799.9 1551.0,843.5 1544.5,882.9 1538.1,918.5 1531.6,950.4 1525.2,978.6 1518.7,1003.5 1512.2,1025.0 1505.6,1043.3 1499.0,1058.5 1492.2,1070.7 1485.3,1080.0 1478.2,1086.3 1470.9,1089.8 1463.5,1090.4 1455.7,1088.1 1447.7,1083.0 1439.4,1075.0 1430.8,1064.0 1421.8,1050.0 1412.4,1033.0 1402.5,1012.8 1392.2,989.3 1381.4,962.4 1369.9,932.0 1357.9,897.9 1345.3,859.9 1331.9,818.0 1317.9,771.8 1303.0,721.1 1287.3,665.8 1270.8,605.6 1253.3,540.2 1234.9,469.3  Z" style="stroke-width: 2.0;  stroke: rgb(82,82,82); fill: rgb(102,102,102); opacity: 0.667;" />
<path d="M 1234.850,469.309 A 1064.250,1064.250 0.00 0,1 1238.4,468.4 L 1238.4,468.4 1255.5,540.8 1269.7,610.4 1281.3,677.6 1290.8,742.2 1298.4,804.5 1304.4,864.6 1309.2,922.5 1313.1,978.5 1316.2,1032.6 1318.9,1085.0 1321.4,1135.9 1323.8,1185.2 1326.4,1233.3 1329.4,1280.1 1332.7,1326.0 1336.7,1371.0 1341.4,1415.3 1346.8,1459.0 1353.1,1502.3 1360.3,1545.4 1368.4,1588.4 1377.4,1631.6 1387.3,1675.0 1398.2,1718.8 1409.8,1763.3 1422.3,1808.6 1435.4,1854.9 1449.1,1902.4 1463.2,1951.2 1477.6,2001.7 1492.2,2053.9 1506.7,2108.1 1520.9,2164.5 1534.7,2223.3 1547.7,2284.7 1559.7,2348.9 1570.5,2416.2 1579.6,2486.7 1586.9,2560.7  A 1064.250,1064.250 0.00 0,0 1590.6,2560.4 L 1590.6,2560.4 1583.1,2486.4 1573.7,2415.9 1562.7,2348.7 1550.4,2284.5 1537.2,2223.2 1523.2,2164.4 1508.8,2108.1 1494.1,2053.9 1479.4,2001.8 1464.8,1951.4 1450.5,1902.6 1436.6,1855.1 1423.3,1808.9 1410.7,1763.6 1398.9,1719.2 1387.9,1675.4 1377.8,1632.0 1368.7,1588.9 1360.4,1545.9 1353.1,1502.8 1346.7,1459.5 1341.1,1415.8 1336.3,1371.6 1332.1,1326.6 1328.6,1280.7 1325.5,1233.9 1322.7,1185.8 1320.1,1136.5 1317.5,1085.7 1314.6,1033.3 1311.2,979.2 1307.2,923.2 1302.2,865.3 1295.9,805.2 1288.1,742.9 1278.5,678.3 1266.6,611.3 1252.2,541.6 1234.9,469.3  Z" style="stroke-width: 2.0;  stroke: rgb(82,82,82); fill: rgb(153,153,153); opacity: 0.667;" />
<path d="M 1234.850,469.309 A 1064.250,1064.250 0.00 0,1 1238.4,468.4 L 1238.4,468.4 1255.6,540.1 1269.9,607.7 1281.5,671.7 1290.6,732.2 1297.5,789.4 1302.3,843.5 1305.3,894.9 1306.4,943.6 1305.9,990.0 1303.9,1034.1 1300.6,1076.3 1295.9,1116.6 1289.9,1155.3 1282.8,1192.5 1274.5,1228.4 1265.1,1263.1 1254.6,1296.9 1243.0,1329.8 1230.2,1361.9 1216.3,1393.5 1201.1,1424.6 1184.6,1455.3 1166.7,1485.8 1147.4,1516.2 1126.4,1546.4 1103.7,1576.8 1079.1,1607.2 1052.4,1637.8 1023.6,1668.7 992.2,1699.9 958.3,1731.5 921.5,1763.4 881.5,1795.9 838.2,1828.8 791.3,1862.2 740.5,1896.1 685.4,1930.6 625.7,1965.6 561.1,2001.2  A 1064.250,1064.250 0.00 0,0 562.9,2004.5 L 562.9,2004.5 627.3,1968.7 686.9,1933.4 741.8,1898.8 792.6,1864.7 839.4,1831.1 882.6,1798.0 922.4,1765.5 959.1,1733.4 992.9,1701.7 1024.1,1670.4 1052.9,1639.4 1079.5,1608.7 1104.0,1578.2 1126.6,1547.8 1147.4,1517.4 1166.7,1487.0 1184.5,1456.4 1200.8,1425.6 1215.9,1394.5 1229.8,1362.9 1242.4,1330.7 1253.9,1297.7 1264.3,1264.0 1273.6,1229.2 1281.7,1193.3 1288.7,1156.0 1294.5,1117.3 1299.1,1077.0 1302.3,1034.8 1304.2,990.7 1304.5,944.3 1303.1,895.6 1300.1,844.2 1295.1,790.1 1288.0,732.9 1278.6,672.5 1266.8,608.6 1252.3,540.9 1234.9,469.3  Z" style="stroke-width: 2.0;  stroke: rgb(82,82,82); fill: rgb(204,204,204); opacity: 0.667;" />
<path d="M 1234.850,469.309 A 1064.250,1064.250 0.00 0,1 1238.4,468.4 L 1238.4,468.4 1255.9,539.6 1271.1,605.9 1284.2,667.6 1295.1,725.0 1304.1,778.2 1311.2,827.5 1316.6,873.2 1320.2,915.4 1322.2,954.3 1322.7,990.1 1321.6,1023.0 1319.0,1053.1 1314.9,1080.6 1309.4,1105.6 1302.4,1128.2 1294.0,1148.6 1284.1,1166.8 1272.6,1182.8 1259.7,1196.9 1245.1,1209.0 1229.0,1219.3 1211.1,1227.6 1191.4,1234.1 1169.9,1238.7 1146.4,1241.5 1120.8,1242.4 1093.0,1241.5 1062.9,1238.6 1030.4,1233.8 995.2,1226.9 957.3,1217.9 916.5,1206.7 872.5,1193.2 825.3,1177.3 774.5,1158.9 720.1,1137.8 661.7,1113.9 599.2,1087.0 532.3,1057.0  A 1064.250,1064.250 0.00 0,0 530.8,1060.4 L 530.8,1060.4 597.8,1090.2 660.4,1116.8 718.8,1140.5 773.4,1161.4 824.2,1179.7 871.5,1195.4 915.4,1208.8 956.3,1219.8 994.3,1228.7 1029.4,1235.4 1062.0,1240.2 1092.1,1242.9 1119.9,1243.8 1145.5,1242.7 1169.0,1239.9 1190.5,1235.2 1210.1,1228.6 1228.0,1220.2 1244.1,1209.9 1258.6,1197.8 1271.5,1183.6 1282.9,1167.5 1292.8,1149.3 1301.1,1128.9 1308.0,1106.3 1313.5,1081.2 1317.4,1053.7 1319.9,1023.6 1320.9,990.7 1320.3,954.9 1318.2,916.0 1314.4,873.8 1308.9,828.2 1301.6,778.9 1292.4,725.7 1281.2,668.4 1268.0,606.7 1252.6,540.5 1234.9,469.3  Z" style="stroke-width: 2.0;  stroke: rgb(82,82,82); fill: rgb(204,204,153); opacity: 0.667;" />
<path d="M 1234.850,469.309 A 1064.250,1064.250 0.00 0,1 1238.4,468.4 L 1238.4,468.4 1256.0,539.6 1271.3,605.8 1284.4,667.4 1295.5,724.6 1304.8,777.6 1312.2,826.6 1317.8,872.0 1321.8,913.8 1324.2,952.2 1325.0,987.5 1324.3,1019.9 1322.1,1049.4 1318.5,1076.2 1313.5,1100.4 1307.0,1122.2 1299.1,1141.7 1289.7,1158.9 1278.8,1173.9 1266.5,1186.8 1252.5,1197.7 1237.0,1206.6 1219.8,1213.5 1200.8,1218.4 1180.0,1221.4 1157.3,1222.5 1132.6,1221.5 1105.7,1218.5 1076.6,1213.5 1045.0,1206.3 1011.0,1197.0 974.2,1185.4 934.6,1171.4 892.0,1155.0 846.2,1136.0 797.0,1114.2 744.2,1089.6 687.6,1062.0 627.0,1031.1 562.2,996.9  A 1064.250,1064.250 0.00 0,0 560.4,1000.2 L 560.4,1000.2 625.4,1034.2 686.1,1064.8 742.8,1092.2 795.6,1116.7 844.9,1138.2 890.8,1157.1 933.5,1173.4 973.1,1187.2 1009.9,1198.7 1044.0,1207.9 1075.6,1215.0 1104.7,1219.9 1131.6,1222.8 1156.4,1223.6 1179.1,1222.5 1199.9,1219.5 1218.8,1214.5 1236.0,1207.5 1251.5,1198.6 1265.4,1187.6 1277.7,1174.7 1288.5,1159.6 1297.8,1142.4 1305.7,1122.9 1312.1,1101.1 1317.1,1076.8 1320.6,1050.0 1322.6,1020.5 1323.2,988.2 1322.3,952.8 1319.7,914.4 1315.6,872.6 1309.8,827.3 1302.2,778.3 1292.8,725.3 1281.5,668.2 1268.1,606.6 1252.6,540.4 1234.9,469.3  Z" style="stroke-width: 2.0;  stroke: rgb(82,82,82); fill: rgb(251,106,74); opacity: 0.667;" />
<path d="M 1234.850,469.309 A 1064.250,1064.250 0.00 0,1 1238.4,468.4 L 1238.4,468.4 1256.1,539.5 1271.6,605.6 1285.2,666.8 1296.9,723.5 1306.8,775.9 1315.1,824.2 1321.7,868.6 1326.7,909.4 1330.3,946.7 1332.4,980.6 1333.0,1011.4 1332.3,1039.2 1330.3,1064.2 1326.8,1086.4 1322.1,1105.9 1315.9,1123.0 1308.5,1137.5 1299.6,1149.7 1289.4,1159.5 1277.6,1167.0 1264.4,1172.3 1249.7,1175.3 1233.4,1176.1 1215.3,1174.6 1195.6,1170.8 1174.0,1164.7 1150.4,1156.2 1124.8,1145.3 1097.0,1131.9 1067.0,1115.9 1034.6,1097.2 999.6,1075.7 961.9,1051.3 921.4,1023.7 877.8,992.9 831.1,958.7 781.0,921.0 727.4,879.4 670.0,833.9  A 1064.250,1064.250 0.00 0,0 667.7,836.8 L 667.7,836.8 725.2,882.1 779.0,923.5 829.2,961.1 876.1,995.1 919.7,1025.7 960.3,1053.1 998.1,1077.5 1033.2,1098.9 1065.7,1117.4 1095.8,1133.3 1123.6,1146.6 1149.2,1157.4 1172.8,1165.8 1194.4,1171.8 1214.2,1175.6 1232.2,1177.0 1248.6,1176.2 1263.3,1173.1 1276.5,1167.8 1288.2,1160.2 1298.4,1150.4 1307.2,1138.2 1314.6,1123.6 1320.7,1106.6 1325.4,1087.0 1328.7,1064.8 1330.7,1039.8 1331.3,1012.0 1330.6,981.2 1328.4,947.2 1324.7,910.0 1319.5,869.2 1312.7,824.8 1304.3,776.6 1294.2,724.2 1282.3,667.6 1268.5,606.4 1252.7,540.4 1234.9,469.3  Z" style="stroke-width: 2.0;  stroke: rgb(82,82,82); fill: rgb(116,196,118); opacity: 0.667;" />
<path d="M 1234.850,469.309 A 1064.250,1064.250 0.00 0,1 1238.4,468.4 L 1238.4,468.4 1256.1,539.5 1271.9,605.4 1285.8,666.4 1298.0,722.8 1308.5,774.8 1317.4,822.6 1324.8,866.4 1330.8,906.5 1335.3,943.0 1338.5,976.0 1340.3,1005.9 1340.8,1032.6 1340.1,1056.3 1338.1,1077.1 1334.8,1095.2 1330.3,1110.6 1324.6,1123.4 1317.5,1133.7 1309.2,1141.5 1299.5,1146.8 1288.5,1149.7 1276.0,1150.1 1262.1,1148.1 1246.7,1143.7 1229.7,1136.7 1211.0,1127.2 1190.6,1115.2 1168.3,1100.4 1144.1,1082.9 1117.9,1062.5 1089.5,1039.1 1058.9,1012.6 1025.8,982.9 990.2,949.8 952.0,913.0 910.9,872.5 866.8,828.1 819.6,779.5 769.1,726.4  A 1064.250,1064.250 0.00 0,0 766.4,729.0 L 766.4,729.0 817.1,781.8 864.5,830.3 908.7,874.6 949.9,914.9 988.3,951.5 1024.0,984.6 1057.2,1014.2 1087.9,1040.6 1116.4,1063.8 1142.7,1084.1 1166.9,1101.6 1189.3,1116.2 1209.7,1128.3 1228.4,1137.7 1245.5,1144.6 1260.9,1149.0 1274.8,1150.9 1287.3,1150.4 1298.3,1147.5 1307.9,1142.2 1316.2,1134.3 1323.2,1124.1 1329.0,1111.2 1333.4,1095.8 1336.6,1077.7 1338.5,1056.8 1339.2,1033.1 1338.6,1006.4 1336.6,976.6 1333.4,943.5 1328.7,907.1 1322.6,867.0 1315.1,823.2 1306.0,775.4 1295.3,723.5 1282.9,667.2 1268.8,606.2 1252.8,540.3 1234.9,469.3  Z" style="stroke-width: 2.0;  stroke: rgb(82,82,82); fill: rgb(107,174,214); opacity: 0.667;" />
<path d="M 1243.552,467.110 A 1064.250,1064.250 0.00 0,1 1247.2,466.2 L 1247.2,466.2 1264.8,537.3 1281.4,602.9 1297.2,663.3 1312.2,718.8 1326.4,769.6 1339.9,816.0 1352.7,858.1 1364.8,896.2 1376.3,930.5 1387.3,961.0 1397.7,988.0 1407.7,1011.6 1417.2,1031.9 1426.3,1049.1 1435.0,1063.2 1443.3,1074.2 1451.4,1082.3 1459.2,1087.6 1466.7,1089.9 1474.0,1089.4 1481.1,1086.0 1488.0,1079.7 1494.8,1070.5 1501.5,1058.4 1508.1,1043.2 1514.6,1024.9 1521.1,1003.4 1527.6,978.6 1534.0,950.4 1540.5,918.6 1547.0,883.1 1553.5,843.6 1560.1,800.1 1566.7,752.3 1573.5,699.9 1580.3,642.9 1587.3,580.8 1594.3,513.5 1601.5,440.6  A 1064.250,1064.250 0.00 0,0 1597.8,440.3 L 1597.8,440.3 1590.9,513.1 1584.1,580.5 1577.3,642.6 1570.7,699.7 1564.1,752.0 1557.6,799.9 1551.2,843.4 1544.8,882.9 1538.4,918.5 1532.1,950.3 1525.7,978.5 1519.4,1003.3 1513.0,1024.9 1506.5,1043.2 1500.0,1058.4 1493.3,1070.5 1486.6,1079.7 1479.6,1086.0 1472.6,1089.5 1465.3,1090.0 1457.7,1087.7 1449.9,1082.5 1441.9,1074.4 1433.5,1063.4 1424.7,1049.4 1415.6,1032.2 1406.0,1011.9 1396.0,988.4 1385.4,961.4 1374.3,930.9 1362.7,896.7 1350.4,858.7 1337.5,816.6 1323.9,770.3 1309.5,719.5 1294.3,664.0 1278.3,603.7 1261.4,538.1 1243.6,467.1  Z" style="stroke-width: 2.0;  stroke: rgb(82,82,82); fill: rgb(253,141,60); opacity: 0.667;" />
<path d="M 1243.552,467.110 A 1064.250,1064.250 0.00 0,1 1247.2,466.2 L 1247.2,466.2 1263.7,538.7 1277.2,608.5 1288.3,675.8 1297.2,740.5 1304.3,802.9 1309.8,863.1 1314.2,921.1 1317.6,977.2 1320.3,1031.4 1322.7,1083.8 1324.8,1134.7 1326.9,1184.1 1329.1,1232.2 1331.8,1279.1 1334.9,1325.0 1338.6,1370.0 1343.0,1414.4 1348.2,1458.1 1354.3,1501.5 1361.3,1544.6 1369.2,1587.7 1378.1,1630.9 1387.9,1674.3 1398.6,1718.2 1410.2,1762.8 1422.6,1808.1 1435.6,1854.4 1449.2,1902.0 1463.3,1950.9 1477.7,2001.4 1492.2,2053.7 1506.7,2107.9 1520.9,2164.4 1534.7,2223.2 1547.7,2284.6 1559.7,2348.9 1570.5,2416.2 1579.6,2486.7 1586.9,2560.7  A 1064.250,1064.250 0.00 0,0 1590.6,2560.4 L 1590.6,2560.4 1583.1,2486.4 1573.7,2415.9 1562.7,2348.7 1550.4,2284.5 1537.2,2223.1 1523.2,2164.3 1508.8,2107.9 1494.2,2053.7 1479.5,2001.5 1464.9,1951.0 1450.6,1902.2 1436.8,1854.7 1423.6,1808.4 1411.1,1763.1 1399.4,1718.6 1388.5,1674.7 1378.6,1631.3 1369.5,1588.2 1361.5,1545.1 1354.3,1502.0 1348.1,1458.7 1342.7,1414.9 1338.1,1370.6 1334.3,1325.6 1331.0,1279.7 1328.2,1232.8 1325.8,1184.7 1323.5,1135.3 1321.2,1084.4 1318.7,1032.0 1315.8,977.8 1312.2,921.8 1307.6,863.7 1301.8,803.6 1294.6,741.2 1285.4,676.5 1274.1,609.3 1260.3,539.6 1243.6,467.1  Z" style="stroke-width: 2.0;  stroke: rgb(82,82,82); fill: rgb(255,0,0); opacity: 0.667;" />
<path d="M 1243.552,467.110 A 1064.250,1064.250 0.00 0,1 1247.2,466.2 L 1247.2,466.2 1263.7,538.0 1277.4,605.9 1288.5,669.9 1297.1,730.5 1303.5,787.8 1307.9,842.0 1310.3,893.5 1311.1,942.3 1310.2,988.7 1307.8,1032.9 1304.1,1075.1 1299.1,1115.5 1292.9,1154.2 1285.5,1191.5 1276.9,1227.4 1267.3,1262.2 1256.5,1296.0 1244.7,1328.9 1231.7,1361.1 1217.6,1392.8 1202.3,1423.9 1185.6,1454.7 1167.6,1485.2 1148.1,1515.6 1127.0,1545.9 1104.2,1576.3 1079.5,1606.8 1052.8,1637.5 1023.8,1668.4 992.5,1699.6 958.5,1731.2 921.6,1763.3 881.6,1795.7 838.3,1828.7 791.4,1862.1 740.5,1896.1 685.4,1930.6 625.7,1965.6 561.1,2001.2  A 1064.250,1064.250 0.00 0,0 562.9,2004.5 L 562.9,2004.5 627.3,1968.7 686.9,1933.4 741.9,1898.7 792.6,1864.6 839.5,1831.0 882.7,1797.9 922.5,1765.3 959.3,1733.1 993.2,1701.4 1024.4,1670.1 1053.3,1639.0 1079.9,1608.3 1104.5,1577.7 1127.2,1547.2 1148.2,1516.8 1167.6,1486.4 1185.5,1455.8 1202.0,1424.9 1217.2,1393.7 1231.3,1362.1 1244.1,1329.8 1255.8,1296.9 1266.4,1263.0 1276.0,1228.2 1284.4,1192.2 1291.7,1155.0 1297.8,1116.2 1302.6,1075.8 1306.2,1033.6 1308.4,989.4 1309.1,943.0 1308.2,894.1 1305.6,842.7 1301.0,788.5 1294.4,731.2 1285.6,670.7 1274.3,606.6 1260.4,538.9 1243.6,467.1  Z" style="stroke-width: 2.0;  stroke: rgb(82,82,82); fill: rgb(255,0,204); opacity: 0.667;" />
<path d="M 1243.552,467.110 A 1064.250,1064.250 0.00 0,1 1247.2,466.2 L 1247.2,466.2 1264.1,537.6 1278.7,604.0 1291.1,665.9 1301.6,723.3 1310.1,776.7 1316.8,826.1 1321.7,871.8 1325.0,914.1 1326.6,953.1 1326.7,989.0 1325.3,1021.9 1322.4,1052.1 1318.0,1079.7 1312.2,1104.7 1305.0,1127.4 1296.3,1147.8 1286.2,1166.0 1274.5,1182.2 1261.4,1196.3 1246.7,1208.4 1230.3,1218.7 1212.3,1227.1 1192.4,1233.6 1170.8,1238.3 1147.1,1241.1 1121.5,1242.1 1093.6,1241.2 1063.4,1238.4 1030.8,1233.5 995.5,1226.7 957.6,1217.7 916.7,1206.6 872.7,1193.1 825.4,1177.3 774.6,1158.9 720.1,1137.8 661.8,1113.9 599.2,1087.0 532.3,1057.0  A 1064.250,1064.250 0.00 0,0 530.8,1060.4 L 530.8,1060.4 597.8,1090.2 660.4,1116.8 718.9,1140.5 773.4,1161.4 824.3,1179.6 871.6,1195.3 915.6,1208.6 956.6,1219.6 994.6,1228.5 1029.8,1235.2 1062.5,1239.9 1092.7,1242.6 1120.6,1243.4 1146.2,1242.4 1169.9,1239.4 1191.5,1234.7 1211.3,1228.1 1229.3,1219.6 1245.6,1209.3 1260.3,1197.1 1273.4,1182.9 1285.0,1166.8 1295.1,1148.5 1303.7,1128.1 1310.8,1105.4 1316.5,1080.3 1320.8,1052.7 1323.6,1022.5 1324.9,989.6 1324.7,953.7 1322.9,914.7 1319.5,872.5 1314.4,826.7 1307.6,777.3 1298.9,724.0 1288.2,666.6 1275.5,604.8 1260.7,538.4 1243.6,467.1  Z" style="stroke-width: 2.0;  stroke: rgb(82,82,82); fill: rgb(255,204,204); opacity: 0.667;" />
<path d="M 1243.552,467.110 A 1064.250,1064.250 0.00 0,1 1247.2,466.2 L 1247.2,466.2 1264.1,537.6 1278.8,603.9 1291.4,665.7 1302.0,722.9 1310.8,776.0 1317.7,825.2 1322.9,870.6 1326.5,912.5 1328.5,951.0 1329.0,986.4 1328.0,1018.8 1325.5,1048.4 1321.6,1075.2 1316.3,1099.5 1309.6,1121.4 1301.4,1140.9 1291.8,1158.1 1280.7,1173.2 1268.2,1186.2 1254.1,1197.1 1238.4,1206.0 1221.0,1213.0 1201.9,1218.0 1181.0,1221.0 1158.1,1222.1 1133.3,1221.2 1106.3,1218.2 1077.0,1213.2 1045.4,1206.1 1011.3,1196.8 974.5,1185.2 934.8,1171.3 892.1,1154.9 846.3,1135.9 797.0,1114.2 744.2,1089.6 687.6,1061.9 627.0,1031.1 562.2,996.9  A 1064.250,1064.250 0.00 0,0 560.4,1000.2 L 560.4,1000.2 625.4,1034.2 686.1,1064.8 742.8,1092.2 795.7,1116.6 845.0,1138.2 890.9,1157.0 933.7,1173.3 973.4,1187.1 1010.2,1198.5 1044.4,1207.7 1076.0,1214.7 1105.3,1219.6 1132.3,1222.4 1157.2,1223.3 1180.0,1222.1 1200.9,1219.0 1220.0,1214.0 1237.3,1207.0 1253.0,1198.0 1267.1,1187.0 1279.6,1174.0 1290.6,1158.9 1300.1,1141.6 1308.2,1122.0 1314.9,1100.2 1320.1,1075.9 1323.9,1049.0 1326.3,1019.4 1327.2,987.0 1326.6,951.6 1324.5,913.1 1320.7,871.2 1315.4,825.8 1308.2,776.7 1299.3,723.6 1288.5,666.4 1275.7,604.7 1260.7,538.4 1243.6,467.1  Z" style="stroke-width: 2.0;  stroke: rgb(82,82,82); fill: rgb(255,153,0); opacity: 0.667;" />
<path d="M 1243.552,467.110 A 1064.250,1064.250 0.00 0,1 1247.2,466.2 L 1247.2,466.2 1264.2,537.5 1279.2,603.7 1292.2,665.0 1303.4,721.9 1312.9,774.4 1320.6,822.8 1326.8,867.3 1331.5,908.1 1334.7,945.5 1336.4,979.5 1336.7,1010.4 1335.7,1038.3 1333.4,1063.3 1329.7,1085.5 1324.6,1105.2 1318.3,1122.2 1310.6,1136.8 1301.5,1149.0 1291.1,1158.9 1279.2,1166.5 1265.8,1171.8 1250.9,1174.8 1234.4,1175.6 1216.3,1174.2 1196.4,1170.4 1174.7,1164.4 1151.0,1155.9 1125.3,1145.1 1097.5,1131.7 1067.3,1115.7 1034.8,1097.1 999.8,1075.6 962.1,1051.2 921.5,1023.7 877.9,992.9 831.2,958.7 781.0,921.0 727.4,879.4 670.0,833.9  A 1064.250,1064.250 0.00 0,0 667.7,836.8 L 667.7,836.8 725.2,882.1 779.0,923.5 829.3,961.1 876.1,995.1 919.8,1025.7 960.5,1053.1 998.3,1077.3 1033.4,1098.7 1066.0,1117.3 1096.2,1133.1 1124.1,1146.4 1149.8,1157.2 1173.5,1165.5 1195.2,1171.5 1215.2,1175.2 1233.3,1176.6 1249.8,1175.7 1264.7,1172.6 1278.0,1167.2 1289.9,1159.6 1300.3,1149.7 1309.3,1137.5 1317.0,1122.9 1323.3,1105.8 1328.2,1086.1 1331.8,1063.9 1334.1,1038.9 1335.0,1011.0 1334.6,980.1 1332.7,946.1 1329.4,908.7 1324.6,867.9 1318.3,823.4 1310.3,775.0 1300.7,722.6 1289.3,665.8 1276.0,604.4 1260.8,538.3 1243.6,467.1  Z" style="stroke-width: 2.0;  stroke: rgb(82,82,82); fill: rgb(255,204,0); opacity: 0.667;" />
<path d="M 1243.552,467.110 A 1064.250,1064.250 0.00 0,1 1247.2,466.2 L 1247.2,466.2 1264.3,537.4 1279.4,603.5 1292.8,664.6 1304.5,721.1 1314.5,773.2 1323.0,821.1 1330.0,865.1 1335.5,905.2 1339.7,941.8 1342.5,975.0 1344.0,1004.9 1344.2,1031.6 1343.2,1055.4 1340.9,1076.3 1337.4,1094.5 1332.7,1109.9 1326.7,1122.8 1319.5,1133.1 1310.9,1140.9 1301.1,1146.3 1289.9,1149.2 1277.3,1149.7 1263.2,1147.7 1247.7,1143.3 1230.5,1136.4 1211.7,1127.0 1191.2,1114.9 1168.9,1100.2 1144.6,1082.7 1118.3,1062.3 1089.8,1039.0 1059.1,1012.5 1026.0,982.8 990.3,949.7 952.0,913.0 910.9,872.5 866.8,828.1 819.6,779.5 769.1,726.4  A 1064.250,1064.250 0.00 0,0 766.4,729.0 L 766.4,729.0 817.1,781.8 864.5,830.3 908.7,874.6 950.0,914.9 988.4,951.5 1024.2,984.5 1057.4,1014.1 1088.2,1040.4 1116.7,1063.7 1143.1,1083.9 1167.5,1101.3 1189.9,1116.0 1210.4,1128.0 1229.3,1137.4 1246.4,1144.2 1262.0,1148.6 1276.1,1150.5 1288.7,1149.9 1299.8,1147.0 1309.7,1141.6 1318.2,1133.7 1325.4,1123.4 1331.3,1110.5 1336.0,1095.0 1339.5,1076.9 1341.7,1056.0 1342.6,1032.2 1342.3,1005.4 1340.7,975.5 1337.7,942.4 1333.5,905.8 1327.8,865.7 1320.6,821.8 1312.0,773.9 1301.8,721.8 1289.9,665.4 1276.3,604.3 1260.9,538.3 1243.6,467.1  Z" style="stroke-width: 2.0;  stroke: rgb(82,82,82); fill: rgb(255,255,0); opacity: 0.667;" />
<path d="M 1243.552,467.110 A 1064.250,1064.250 0.00 0,1 1247.2,466.2 L 1247.2,466.2 1264.5,537.3 1280.6,603.0 1295.4,663.6 1309.0,719.3 1321.4,770.4 1332.8,817.0 1343.1,859.5 1352.4,897.9 1360.8,932.5 1368.3,963.5 1374.9,990.9 1380.7,1014.9 1385.6,1035.7 1389.8,1053.3 1393.2,1067.9 1395.9,1079.5 1397.9,1088.1 1399.1,1093.8 1399.7,1096.7 1399.5,1096.8 1398.6,1094.0 1397.0,1088.3 1394.7,1079.8 1391.6,1068.3 1387.8,1053.8 1383.2,1036.3 1377.9,1015.6 1371.7,991.7 1364.7,964.4 1356.8,933.5 1347.9,899.0 1338.2,860.7 1327.4,818.4 1315.5,771.8 1302.6,720.9 1288.4,665.3 1273.1,604.9 1256.4,539.3 1238.4,468.4  A 1064.250,1064.250 0.00 0,0 1234.9,469.3 L 1234.9,469.3 1253.1,540.2 1270.0,605.7 1285.5,666.1 1299.8,721.6 1313.0,772.5 1325.0,819.0 1335.9,861.3 1345.9,899.6 1354.8,934.0 1362.8,964.8 1369.9,992.1 1376.2,1016.0 1381.6,1036.7 1386.3,1054.2 1390.1,1068.7 1393.2,1080.1 1395.6,1088.7 1397.2,1094.3 1398.1,1097.1 1398.2,1097.1 1397.7,1094.2 1396.5,1088.4 1394.5,1079.8 1391.7,1068.3 1388.3,1053.7 1384.0,1036.1 1379.0,1015.3 1373.1,991.3 1366.4,963.9 1358.8,933.0 1350.3,898.4 1340.9,860.0 1330.4,817.6 1318.9,771.0 1306.3,720.0 1292.5,664.3 1277.5,603.8 1261.2,538.2 1243.6,467.1  Z" style="stroke-width: 2.0;  stroke: rgb(82,82,82); fill: rgb(204,255,0); opacity: 0.667;" />
<path d="M 539.631,1041.394 A 1064.250,1064.250 0.00 0,1 545.2,1029.9 L 545.2,1029.9 611.3,1061.7 673.5,1090.1 731.7,1115.3 786.4,1137.4 837.7,1156.7 885.8,1173.3 931.0,1187.3 973.3,1198.9 1013.0,1208.2 1050.3,1215.2 1085.2,1220.2 1118.1,1223.1 1148.9,1224.1 1177.9,1223.1 1205.1,1220.3 1230.8,1215.6 1254.9,1209.0 1277.7,1200.6 1299.1,1190.3 1319.4,1178.0 1338.5,1163.8 1356.6,1147.6 1373.6,1129.3 1389.7,1108.8 1404.9,1086.0 1419.3,1060.8 1432.8,1033.1 1445.5,1002.7 1457.4,969.4 1468.4,933.1 1478.7,893.7 1488.2,850.8 1496.8,804.4 1504.5,754.1 1511.3,699.7 1517.2,641.0 1522.1,577.7 1525.8,509.5 1528.5,436.1  A 1064.250,1064.250 0.00 0,0 1515.8,435.9 L 1515.8,435.9 1514.0,509.3 1511.1,577.5 1507.0,640.8 1501.8,699.6 1495.6,754.1 1488.5,804.4 1480.4,851.0 1471.5,894.0 1461.7,933.6 1451.0,970.0 1439.5,1003.4 1427.2,1033.9 1414.0,1061.8 1400.0,1087.2 1385.1,1110.2 1369.2,1130.9 1352.4,1149.4 1334.5,1165.8 1315.6,1180.2 1295.5,1192.7 1274.1,1203.3 1251.5,1212.0 1227.4,1218.8 1201.8,1223.8 1174.6,1227.0 1145.6,1228.3 1114.8,1227.7 1081.9,1225.2 1046.9,1220.6 1009.6,1214.0 969.7,1205.2 927.3,1194.1 882.0,1180.7 833.7,1164.7 782.1,1146.0 727.2,1124.5 668.6,1100.1 606.2,1072.4 539.6,1041.4  Z" style="stroke-width: 2.0;  stroke: rgb(82,82,82); fill: rgb(0,255,0); opacity: 0.667;" />
</g>
<defs>
<pattern id="hline-sparse" width="10" height="10" patternTransform="rotate(0 0 0)" patternUnits="userSpaceOnUse"><line x1="0" y1="0" x2="10" y2="0" style="stroke:black;stroke-width:2" /></pattern>
<pattern id="checker" width="10" height="10" patternTransform="rotate(45 0 0)" patternUnits="userSpaceOnUse"><line x1="0" y1="0" x2="10" y2="0" style="stroke:black;stroke-width:2" /><line x1="0" y1="0" x2="0" y2="10" style="stroke:black;stroke-width:2" /></pattern>
<pattern id="checker" width="10" height="10" patternTransform="rotate(45 0 0)" patternUnits="userSpaceOnUse"><line x1="0" y1="0" x2="10" y2="0" style="stroke:black;stroke-width:5" /><line x1="0" y1="0" x2="0" y2="10" style="stroke:black;stroke-width:4" /></pattern>
<pattern id="hline" width="10" height="10" patternTransform="rotate(0 0 0)" patternUnits="userSpaceOnUse"><line x1="0" y1="0" x2="10" y2="0" style="stroke:black;stroke-width:5" /></pattern>
<pattern id="vline-sparse" width="10" height="10" patternTransform="rotate(0 0 0)" patternUnits="userSpaceOnUse"><line x1="0" y1="0" x2="0" y2="10" style="stroke:black;stroke-width:2" /></pattern>
<pattern id="vline" width="10" height="10" patternTransform="rotate(0 0 0)" patternUnits="userSpaceOnUse"><line x1="0" y1="0" x2="0" y2="10" style="stroke:black;stroke-width:5" /></pattern>
</defs>
</svg>
