<?xml version="1.0" encoding="utf-8" standalone="no"?>
<!DOCTYPE svg PUBLIC "-//W3C//DTD SVG 1.1//EN" "http://www.w3.org/Graphics/SVG/1.1/DTD/svg11.dtd">
<svg width="3000px" height="3000px" version="1.1" xmlns="http://www.w3.org/2000/svg" xmlns:xlink="http://www.w3.org/1999/xlink">
<g id="ideograms">
<path d="M1500.000,425.000 A1075.000,1075.000 40.000 0,1 1680.164,440.205 L1688.544,390.912 A1125.000,1125.000 0.000 0,0 1500.000,375.000 Z" style="stroke-linecap:round;fill:rgb(116,196,118);fill-opacity:0.33;" />
<text x="1611.6" y="290.1" font-size="18.2px" font-family="CMUBright-Roman" style="text-anchor:start;fill:rgb(0,0,0);" transform="rotate(274.8,1611.6,290.1)" >R<tspan baseline-shift="-40%" font-size="90%">s</tspan>caffold<tspan baseline-shift="-40%" font-size="90%">7</tspan></text>
<line x1='1500.0' y1='375.0' x2='1500.0' y2='355.0' style="stroke-width:4.0;stroke:rgb(0,0,0);stroke-linecap:round;fill:none;" />
<text x="1506.5" y="345.0" font-size="18.2px" font-family="CMUBright-Roman" style="text-anchor:start;fill:rgb(0,0,0);" transform="rotate(270.0,1506.5,345.0)" >0</text>
<line x1='1558.2' y1='376.5' x2='1559.2' y2='356.5' style="stroke-width:4.0;stroke:rgb(0,0,0);stroke-linecap:round;fill:none;" />
<text x="1566.2" y="346.9" font-size="18.2px" font-family="CMUBright-Roman" style="text-anchor:start;fill:rgb(0,0,0);" transform="rotate(273.0,1566.2,346.9)" >50</text>
<line x1='1616.2' y1='381.0' x2='1618.3' y2='361.1' style="stroke-width:4.0;stroke:rgb(0,0,0);stroke-linecap:round;fill:none;" />
<text x="1625.8" y="351.9" font-size="18.2px" font-family="CMUBright-Roman" style="text-anchor:start;fill:rgb(0,0,0);" transform="rotate(275.9,1625.8,351.9)" >100</text>
<line x1='1673.9' y1='388.5' x2='1677.0' y2='368.8' style="stroke-width:4.0;stroke:rgb(0,0,0);stroke-linecap:round;fill:none;" />
<text x="1685.0" y="359.9" font-size="18.2px" font-family="CMUBright-Roman" style="text-anchor:start;fill:rgb(0,0,0);" transform="rotate(278.9,1685.0,359.9)" >150</text>
<g id="highlighttrack_0">
<path d="M1574.478,427.583 A1075.000,1075.000 40.000 0,1 1577.805,427.819 L1581.424,377.950 A1125.000,1125.000 0.000 0,0 1577.942,377.703 Z" style="stroke-width:4.0;stroke:rgb(0,0,0);stroke-linecap:round;fill:rgb(116,196,118);" />
</g>
<path d="M1735.383,451.086 A1075.000,1075.000 40.000 0,1 2232.620,713.303 L2266.696,676.712 A1125.000,1125.000 0.000 0,0 1746.331,402.300 Z" style="stroke-linecap:round;fill:rgb(116,196,118);fill-opacity:0.33;" />
<text x="2075.1" y="429.7" font-size="18.2px" font-family="CMUBright-Roman" style="text-anchor:start;fill:rgb(0,0,0);" transform="rotate(297.8,2075.1,429.7)" >R<tspan baseline-shift="-40%" font-size="90%">s</tspan>caffold<tspan baseline-shift="-40%" font-size="90%">2</tspan></text>
<line x1='1746.3' y1='402.3' x2='1750.7' y2='382.8' style="stroke-width:4.0;stroke:rgb(0,0,0);stroke-linecap:round;fill:none;" />
<text x="1759.2" y="374.5" font-size="18.2px" font-family="CMUBright-Roman" style="text-anchor:start;fill:rgb(0,0,0);" transform="rotate(282.6,1759.2,374.5)" >0</text>
<line x1='1802.8' y1='416.5' x2='1808.2' y2='397.2' style="stroke-width:4.0;stroke:rgb(0,0,0);stroke-linecap:round;fill:none;" />
<text x="1817.1" y="389.4" font-size="18.2px" font-family="CMUBright-Roman" style="text-anchor:start;fill:rgb(0,0,0);" transform="rotate(285.6,1817.1,389.4)" >50</text>
<line x1='1858.4' y1='433.6' x2='1864.8' y2='414.7' style="stroke-width:4.0;stroke:rgb(0,0,0);stroke-linecap:round;fill:none;" />
<text x="1874.1" y="407.3" font-size="18.2px" font-family="CMUBright-Roman" style="text-anchor:start;fill:rgb(0,0,0);" transform="rotate(288.6,1874.1,407.3)" >100</text>
<line x1='1913.1' y1='453.6' x2='1920.4' y2='435.0' style="stroke-width:4.0;stroke:rgb(0,0,0);stroke-linecap:round;fill:none;" />
<text x="1930.1" y="428.1" font-size="18.2px" font-family="CMUBright-Roman" style="text-anchor:start;fill:rgb(0,0,0);" transform="rotate(291.5,1930.1,428.1)" >150</text>
<line x1='1966.7' y1='476.4' x2='1975.0' y2='458.2' style="stroke-width:4.0;stroke:rgb(0,0,0);stroke-linecap:round;fill:none;" />
<text x="1985.0" y="451.8" font-size="18.2px" font-family="CMUBright-Roman" style="text-anchor:start;fill:rgb(0,0,0);" transform="rotate(294.5,1985.0,451.8)" >200</text>
<line x1='2019.0' y1='501.9' x2='2028.2' y2='484.1' style="stroke-width:4.0;stroke:rgb(0,0,0);stroke-linecap:round;fill:none;" />
<text x="2038.6" y="478.3" font-size="18.2px" font-family="CMUBright-Roman" style="text-anchor:start;fill:rgb(0,0,0);" transform="rotate(297.5,2038.6,478.3)" >250</text>
<line x1='2069.9' y1='530.0' x2='2080.1' y2='512.8' style="stroke-width:4.0;stroke:rgb(0,0,0);stroke-linecap:round;fill:none;" />
<text x="2090.7" y="507.5" font-size="18.2px" font-family="CMUBright-Roman" style="text-anchor:start;fill:rgb(0,0,0);" transform="rotate(300.4,2090.7,507.5)" >300</text>
<line x1='2119.3' y1='560.8' x2='2130.3' y2='544.1' style="stroke-width:4.0;stroke:rgb(0,0,0);stroke-linecap:round;fill:none;" />
<text x="2141.3" y="539.4" font-size="18.2px" font-family="CMUBright-Roman" style="text-anchor:start;fill:rgb(0,0,0);" transform="rotate(303.4,2141.3,539.4)" >350</text>
<line x1='2167.1' y1='594.1' x2='2178.9' y2='578.0' style="stroke-width:4.0;stroke:rgb(0,0,0);stroke-linecap:round;fill:none;" />
<text x="2190.1" y="573.8" font-size="18.2px" font-family="CMUBright-Roman" style="text-anchor:start;fill:rgb(0,0,0);" transform="rotate(306.4,2190.1,573.8)" >400</text>
<line x1='2213.0' y1='629.8' x2='2225.7' y2='614.4' style="stroke-width:4.0;stroke:rgb(0,0,0);stroke-linecap:round;fill:none;" />
<text x="2237.1" y="610.8" font-size="18.2px" font-family="CMUBright-Roman" style="text-anchor:start;fill:rgb(0,0,0);" transform="rotate(309.3,2237.1,610.8)" >450</text>
<line x1='2257.1' y1='667.9' x2='2270.6' y2='653.1' style="stroke-width:4.0;stroke:rgb(0,0,0);stroke-linecap:round;fill:none;" />
<text x="2282.1" y="650.1" font-size="18.2px" font-family="CMUBright-Roman" style="text-anchor:start;fill:rgb(0,0,0);" transform="rotate(312.3,2282.1,650.1)" >500</text>
<g id="highlighttrack_0">
<path d="M2151.203,644.687 A1075.000,1075.000 40.000 0,1 2153.802,646.672 L2184.211,606.982 A1125.000,1125.000 0.000 0,0 2181.492,604.905 Z" style="stroke-width:4.0;stroke:rgb(0,0,0);stroke-linecap:round;fill:rgb(116,196,118);" />
<path d="M2080.041,594.916 A1075.000,1075.000 40.000 0,1 2082.508,596.502 L2109.602,554.478 A1125.000,1125.000 0.000 0,0 2107.020,552.819 Z" style="stroke-width:4.0;stroke:rgb(0,0,0);stroke-linecap:round;fill:rgb(116,196,118);" />
<path d="M2076.666,592.762 A1075.000,1075.000 40.000 0,1 2078.964,594.226 L2105.892,552.097 A1125.000,1125.000 0.000 0,0 2103.488,550.565 Z" style="stroke-width:4.0;stroke:rgb(0,0,0);stroke-linecap:round;fill:rgb(251,106,74);" />
</g>
<path d="M2272.789,752.723 A1075.000,1075.000 40.000 0,1 2389.013,2104.384 L2430.363,2132.495 A1125.000,1125.000 0.000 0,0 2308.733,717.966 Z" style="stroke-linecap:round;fill:rgb(116,196,118);fill-opacity:0.33;" />
<text x="2711.3" y="1405.4" font-size="18.2px" font-family="CMUBright-Roman" style="text-anchor:start;fill:rgb(0,0,0);" transform="rotate(355.1,2711.3,1405.4)" >R<tspan baseline-shift="-40%" font-size="90%">s</tspan>caffold<tspan baseline-shift="-40%" font-size="90%">0</tspan></text>
<line x1='2308.7' y1='718.0' x2='2323.1' y2='704.1' style="stroke-width:4.0;stroke:rgb(0,0,0);stroke-linecap:round;fill:none;" />
<text x="2334.8" y="701.8" font-size="18.2px" font-family="CMUBright-Roman" style="text-anchor:start;fill:rgb(0,0,0);" transform="rotate(316.0,2334.8,701.8)" >0</text>
<line x1='2348.1' y1='760.8' x2='2363.2' y2='747.7' style="stroke-width:4.0;stroke:rgb(0,0,0);stroke-linecap:round;fill:none;" />
<text x="2375.0" y="746.0" font-size="18.2px" font-family="CMUBright-Roman" style="text-anchor:start;fill:rgb(0,0,0);" transform="rotate(318.9,2375.0,746.0)" >50</text>
<line x1='2385.2' y1='805.7' x2='2400.9' y2='793.4' style="stroke-width:4.0;stroke:rgb(0,0,0);stroke-linecap:round;fill:none;" />
<text x="2412.8" y="792.3" font-size="18.2px" font-family="CMUBright-Roman" style="text-anchor:start;fill:rgb(0,0,0);" transform="rotate(321.9,2412.8,792.3)" >100</text>
<line x1='2419.9' y1='852.4' x2='2436.3' y2='840.9' style="stroke-width:4.0;stroke:rgb(0,0,0);stroke-linecap:round;fill:none;" />
<text x="2448.2" y="840.5" font-size="18.2px" font-family="CMUBright-Roman" style="text-anchor:start;fill:rgb(0,0,0);" transform="rotate(324.9,2448.2,840.5)" >150</text>
<line x1='2452.2' y1='900.9' x2='2469.1' y2='890.2' style="stroke-width:4.0;stroke:rgb(0,0,0);stroke-linecap:round;fill:none;" />
<text x="2481.0" y="890.4" font-size="18.2px" font-family="CMUBright-Roman" style="text-anchor:start;fill:rgb(0,0,0);" transform="rotate(327.8,2481.0,890.4)" >200</text>
<line x1='2481.9' y1='950.9' x2='2499.4' y2='941.2' style="stroke-width:4.0;stroke:rgb(0,0,0);stroke-linecap:round;fill:none;" />
<text x="2511.2" y="942.0" font-size="18.2px" font-family="CMUBright-Roman" style="text-anchor:start;fill:rgb(0,0,0);" transform="rotate(330.8,2511.2,942.0)" >250</text>
<line x1='2509.0' y1='1002.4' x2='2526.9' y2='993.6' style="stroke-width:4.0;stroke:rgb(0,0,0);stroke-linecap:round;fill:none;" />
<text x="2538.8" y="995.0" font-size="18.2px" font-family="CMUBright-Roman" style="text-anchor:start;fill:rgb(0,0,0);" transform="rotate(333.8,2538.8,995.0)" >300</text>
<line x1='2533.4' y1='1055.3' x2='2551.7' y2='1047.4' style="stroke-width:4.0;stroke:rgb(0,0,0);stroke-linecap:round;fill:none;" />
<text x="2563.5" y="1049.4" font-size="18.2px" font-family="CMUBright-Roman" style="text-anchor:start;fill:rgb(0,0,0);" transform="rotate(336.7,2563.5,1049.4)" >350</text>
<line x1='2555.0' y1='1109.3' x2='2573.7' y2='1102.4' style="stroke-width:4.0;stroke:rgb(0,0,0);stroke-linecap:round;fill:none;" />
<text x="2585.4" y="1105.0" font-size="18.2px" font-family="CMUBright-Roman" style="text-anchor:start;fill:rgb(0,0,0);" transform="rotate(339.7,2585.4,1105.0)" >400</text>
<line x1='2573.8' y1='1164.4' x2='2592.9' y2='1158.5' style="stroke-width:4.0;stroke:rgb(0,0,0);stroke-linecap:round;fill:none;" />
<text x="2604.3" y="1161.7" font-size="18.2px" font-family="CMUBright-Roman" style="text-anchor:start;fill:rgb(0,0,0);" transform="rotate(342.6,2604.3,1161.7)" >450</text>
<line x1='2589.7' y1='1220.4' x2='2609.1' y2='1215.4' style="stroke-width:4.0;stroke:rgb(0,0,0);stroke-linecap:round;fill:none;" />
<text x="2620.4" y="1219.3" font-size="18.2px" font-family="CMUBright-Roman" style="text-anchor:start;fill:rgb(0,0,0);" transform="rotate(345.6,2620.4,1219.3)" >500</text>
<line x1='2602.7' y1='1277.2' x2='2622.3' y2='1273.2' style="stroke-width:4.0;stroke:rgb(0,0,0);stroke-linecap:round;fill:none;" />
<text x="2633.4" y="1277.6" font-size="18.2px" font-family="CMUBright-Roman" style="text-anchor:start;fill:rgb(0,0,0);" transform="rotate(348.6,2633.4,1277.6)" >550</text>
<line x1='2612.8' y1='1334.5' x2='2632.5' y2='1331.5' style="stroke-width:4.0;stroke:rgb(0,0,0);stroke-linecap:round;fill:none;" />
<text x="2643.4" y="1336.5" font-size="18.2px" font-family="CMUBright-Roman" style="text-anchor:start;fill:rgb(0,0,0);" transform="rotate(351.5,2643.4,1336.5)" >600</text>
<line x1='2619.8' y1='1392.3' x2='2639.7' y2='1390.4' style="stroke-width:4.0;stroke:rgb(0,0,0);stroke-linecap:round;fill:none;" />
<text x="2650.3" y="1395.9" font-size="18.2px" font-family="CMUBright-Roman" style="text-anchor:start;fill:rgb(0,0,0);" transform="rotate(354.5,2650.3,1395.9)" >650</text>
<line x1='2623.9' y1='1450.3' x2='2643.9' y2='1449.5' style="stroke-width:4.0;stroke:rgb(0,0,0);stroke-linecap:round;fill:none;" />
<text x="2654.1" y="1455.5" font-size="18.2px" font-family="CMUBright-Roman" style="text-anchor:start;fill:rgb(0,0,0);" transform="rotate(357.5,2654.1,1455.5)" >700</text>
<line x1='2625.0' y1='1508.5' x2='2645.0' y2='1508.7' style="stroke-width:4.0;stroke:rgb(0,0,0);stroke-linecap:round;fill:none;" />
<text x="2654.9" y="1515.3" font-size="18.2px" font-family="CMUBright-Roman" style="text-anchor:start;fill:rgb(0,0,0);" transform="rotate(0.4,2654.9,1515.3)" >750</text>
<line x1='2623.0' y1='1566.7' x2='2643.0' y2='1567.9' style="stroke-width:4.0;stroke:rgb(0,0,0);stroke-linecap:round;fill:none;" />
<text x="2652.6" y="1575.0" font-size="18.2px" font-family="CMUBright-Roman" style="text-anchor:start;fill:rgb(0,0,0);" transform="rotate(3.4,2652.6,1575.0)" >800</text>
<line x1='2618.1' y1='1624.7' x2='2637.9' y2='1626.9' style="stroke-width:4.0;stroke:rgb(0,0,0);stroke-linecap:round;fill:none;" />
<text x="2647.1" y="1634.5" font-size="18.2px" font-family="CMUBright-Roman" style="text-anchor:start;fill:rgb(0,0,0);" transform="rotate(6.4,2647.1,1634.5)" >850</text>
<line x1='2610.1' y1='1682.4' x2='2629.9' y2='1685.6' style="stroke-width:4.0;stroke:rgb(0,0,0);stroke-linecap:round;fill:none;" />
<text x="2638.7" y="1693.6" font-size="18.2px" font-family="CMUBright-Roman" style="text-anchor:start;fill:rgb(0,0,0);" transform="rotate(9.3,2638.7,1693.6)" >900</text>
<line x1='2599.2' y1='1739.5' x2='2618.7' y2='1743.8' style="stroke-width:4.0;stroke:rgb(0,0,0);stroke-linecap:round;fill:none;" />
<text x="2627.1" y="1752.3" font-size="18.2px" font-family="CMUBright-Roman" style="text-anchor:start;fill:rgb(0,0,0);" transform="rotate(12.3,2627.1,1752.3)" >950</text>
<line x1='2585.3' y1='1796.1' x2='2604.6' y2='1801.3' style="stroke-width:4.0;stroke:rgb(0,0,0);stroke-linecap:round;fill:none;" />
<text x="2612.6" y="1810.2" font-size="18.2px" font-family="CMUBright-Roman" style="text-anchor:start;fill:rgb(0,0,0);" transform="rotate(15.3,2612.6,1810.2)" >1000</text>
<line x1='2568.6' y1='1851.8' x2='2587.6' y2='1858.1' style="stroke-width:4.0;stroke:rgb(0,0,0);stroke-linecap:round;fill:none;" />
<text x="2595.0" y="1867.4" font-size="18.2px" font-family="CMUBright-Roman" style="text-anchor:start;fill:rgb(0,0,0);" transform="rotate(18.2,2595.0,1867.4)" >1050</text>
<line x1='2548.9' y1='1906.6' x2='2567.6' y2='1913.9' style="stroke-width:4.0;stroke:rgb(0,0,0);stroke-linecap:round;fill:none;" />
<text x="2574.5" y="1923.5" font-size="18.2px" font-family="CMUBright-Roman" style="text-anchor:start;fill:rgb(0,0,0);" transform="rotate(21.2,2574.5,1923.5)" >1100</text>
<line x1='2526.5' y1='1960.3' x2='2544.8' y2='1968.5' style="stroke-width:4.0;stroke:rgb(0,0,0);stroke-linecap:round;fill:none;" />
<text x="2551.2" y="1978.5" font-size="18.2px" font-family="CMUBright-Roman" style="text-anchor:start;fill:rgb(0,0,0);" transform="rotate(24.2,2551.2,1978.5)" >1150</text>
<line x1='2501.3' y1='2012.8' x2='2519.1' y2='2021.9' style="stroke-width:4.0;stroke:rgb(0,0,0);stroke-linecap:round;fill:none;" />
<text x="2525.0" y="2032.3" font-size="18.2px" font-family="CMUBright-Roman" style="text-anchor:start;fill:rgb(0,0,0);" transform="rotate(27.1,2525.0,2032.3)" >1200</text>
<line x1='2473.5' y1='2063.9' x2='2490.8' y2='2073.9' style="stroke-width:4.0;stroke:rgb(0,0,0);stroke-linecap:round;fill:none;" />
<text x="2496.1" y="2084.6" font-size="18.2px" font-family="CMUBright-Roman" style="text-anchor:start;fill:rgb(0,0,0);" transform="rotate(30.1,2496.1,2084.6)" >1250</text>
<line x1='2443.0' y1='2113.5' x2='2459.8' y2='2124.4' style="stroke-width:4.0;stroke:rgb(0,0,0);stroke-linecap:round;fill:none;" />
<text x="2464.6" y="2135.3" font-size="18.2px" font-family="CMUBright-Roman" style="text-anchor:start;fill:rgb(0,0,0);" transform="rotate(33.0,2464.6,2135.3)" >1300</text>
<g id="highlighttrack_0">
<path d="M2387.864,893.929 A1075.000,1075.000 40.000 0,1 2504.941,1118.270 L2551.683,1100.515 A1125.000,1125.000 0.000 0,0 2429.160,865.739 Z" style="stroke-width:4.0;stroke:rgb(0,0,0);stroke-linecap:round;fill:rgb(116,196,118);" />
<path d="M2476.039,1950.524 A1075.000,1075.000 40.000 0,1 2475.061,1952.638 L2520.412,1973.691 A1125.000,1125.000 0.000 0,0 2521.437,1971.479 Z" style="stroke-width:4.0;stroke:rgb(0,0,0);stroke-linecap:round;fill:rgb(116,196,118);" />
<path d="M2572.872,1567.603 A1075.000,1075.000 40.000 0,1 2572.329,1575.728 L2622.205,1579.251 A1125.000,1125.000 0.000 0,0 2622.773,1570.747 Z" style="stroke-width:4.0;stroke:rgb(0,0,0);stroke-linecap:round;fill:rgb(116,196,118);" />
</g>
<path d="M2356.164,2150.083 A1075.000,1075.000 40.000 0,1 2115.083,2381.645 L2143.692,2422.652 A1125.000,1125.000 0.000 0,0 2395.986,2180.320 Z" style="stroke-linecap:round;fill:rgb(116,196,118);fill-opacity:0.33;" />
<text x="2334.8" y="2382.8" font-size="18.2px" font-family="CMUBright-Roman" style="text-anchor:start;fill:rgb(0,0,0);" transform="rotate(46.2,2334.8,2382.8)" >R<tspan baseline-shift="-40%" font-size="90%">s</tspan>caffold<tspan baseline-shift="-40%" font-size="90%">3</tspan></text>
<line x1='2396.0' y1='2180.3' x2='2411.9' y2='2192.4' style="stroke-width:4.0;stroke:rgb(0,0,0);stroke-linecap:round;fill:none;" />
<text x="2415.9" y="2203.6" font-size="18.2px" font-family="CMUBright-Roman" style="text-anchor:start;fill:rgb(0,0,0);" transform="rotate(37.2,2415.9,2203.6)" >0</text>
<line x1='2359.6' y1='2225.8' x2='2374.9' y2='2238.7' style="stroke-width:4.0;stroke:rgb(0,0,0);stroke-linecap:round;fill:none;" />
<text x="2378.3" y="2250.1" font-size="18.2px" font-family="CMUBright-Roman" style="text-anchor:start;fill:rgb(0,0,0);" transform="rotate(40.2,2378.3,2250.1)" >50</text>
<line x1='2320.9' y1='2269.2' x2='2335.5' y2='2282.9' style="stroke-width:4.0;stroke:rgb(0,0,0);stroke-linecap:round;fill:none;" />
<text x="2338.3" y="2294.5" font-size="18.2px" font-family="CMUBright-Roman" style="text-anchor:start;fill:rgb(0,0,0);" transform="rotate(43.1,2338.3,2294.5)" >100</text>
<line x1='2280.0' y1='2310.7' x2='2293.9' y2='2325.1' style="stroke-width:4.0;stroke:rgb(0,0,0);stroke-linecap:round;fill:none;" />
<text x="2296.1" y="2336.8" font-size="18.2px" font-family="CMUBright-Roman" style="text-anchor:start;fill:rgb(0,0,0);" transform="rotate(46.1,2296.1,2336.8)" >150</text>
<line x1='2237.0' y1='2349.9' x2='2250.1' y2='2365.0' style="stroke-width:4.0;stroke:rgb(0,0,0);stroke-linecap:round;fill:none;" />
<text x="2251.8" y="2376.8" font-size="18.2px" font-family="CMUBright-Roman" style="text-anchor:start;fill:rgb(0,0,0);" transform="rotate(49.1,2251.8,2376.8)" >200</text>
<line x1='2192.1' y1='2386.9' x2='2204.4' y2='2402.7' style="stroke-width:4.0;stroke:rgb(0,0,0);stroke-linecap:round;fill:none;" />
<text x="2205.4" y="2414.6" font-size="18.2px" font-family="CMUBright-Roman" style="text-anchor:start;fill:rgb(0,0,0);" transform="rotate(52.0,2205.4,2414.6)" >250</text>
<line x1='2145.3' y1='2421.5' x2='2156.8' y2='2437.9' style="stroke-width:4.0;stroke:rgb(0,0,0);stroke-linecap:round;fill:none;" />
<text x="2157.2" y="2449.8" font-size="18.2px" font-family="CMUBright-Roman" style="text-anchor:start;fill:rgb(0,0,0);" transform="rotate(55.0,2157.2,2449.8)" >300</text>
<g id="highlighttrack_0">
<path d="M2268.701,2251.481 A1075.000,1075.000 40.000 0,1 2266.528,2253.697 L2302.181,2288.753 A1125.000,1125.000 0.000 0,0 2304.455,2286.433 Z" style="stroke-width:4.0;stroke:rgb(0,0,0);stroke-linecap:round;fill:rgb(251,106,74);" />
</g>
<path d="M2068.099,2412.628 A1075.000,1075.000 40.000 0,1 1388.327,2569.184 L1383.132,2618.913 A1125.000,1125.000 0.000 0,0 2094.522,2455.075 Z" style="stroke-linecap:round;fill:rgb(116,196,118);fill-opacity:0.33;" />
<text x="1763.4" y="2686.1" font-size="18.2px" font-family="CMUBright-Roman" style="text-anchor:start;fill:rgb(0,0,0);" transform="rotate(77.0,1763.4,2686.1)" >R<tspan baseline-shift="-40%" font-size="90%">s</tspan>caffold<tspan baseline-shift="-40%" font-size="90%">1</tspan></text>
<line x1='2094.5' y1='2455.1' x2='2105.1' y2='2472.1' style="stroke-width:4.0;stroke:rgb(0,0,0);stroke-linecap:round;fill:none;" />
<text x="2104.8" y="2484.0" font-size="18.2px" font-family="CMUBright-Roman" style="text-anchor:start;fill:rgb(0,0,0);" transform="rotate(58.1,2104.8,2484.0)" >0</text>
<line x1='2044.3' y1='2484.5' x2='2054.0' y2='2502.1' style="stroke-width:4.0;stroke:rgb(0,0,0);stroke-linecap:round;fill:none;" />
<text x="2053.1" y="2513.9" font-size="18.2px" font-family="CMUBright-Roman" style="text-anchor:start;fill:rgb(0,0,0);" transform="rotate(61.1,2053.1,2513.9)" >50</text>
<line x1='1992.7' y1='2511.4' x2='2001.4' y2='2529.4' style="stroke-width:4.0;stroke:rgb(0,0,0);stroke-linecap:round;fill:none;" />
<text x="2000.0" y="2541.2" font-size="18.2px" font-family="CMUBright-Roman" style="text-anchor:start;fill:rgb(0,0,0);" transform="rotate(64.0,2000.0,2541.2)" >100</text>
<line x1='1939.7' y1='2535.5' x2='1947.5' y2='2553.9' style="stroke-width:4.0;stroke:rgb(0,0,0);stroke-linecap:round;fill:none;" />
<text x="1945.4" y="2565.7" font-size="18.2px" font-family="CMUBright-Roman" style="text-anchor:start;fill:rgb(0,0,0);" transform="rotate(67.0,1945.4,2565.7)" >150</text>
<line x1='1885.6' y1='2556.9' x2='1892.4' y2='2575.7' style="stroke-width:4.0;stroke:rgb(0,0,0);stroke-linecap:round;fill:none;" />
<text x="1889.7" y="2587.3" font-size="18.2px" font-family="CMUBright-Roman" style="text-anchor:start;fill:rgb(0,0,0);" transform="rotate(70.0,1889.7,2587.3)" >200</text>
<line x1='1830.4' y1='2575.4' x2='1836.2' y2='2594.5' style="stroke-width:4.0;stroke:rgb(0,0,0);stroke-linecap:round;fill:none;" />
<text x="1833.0" y="2606.0" font-size="18.2px" font-family="CMUBright-Roman" style="text-anchor:start;fill:rgb(0,0,0);" transform="rotate(72.9,1833.0,2606.0)" >250</text>
<line x1='1774.3' y1='2591.0' x2='1779.2' y2='2610.4' style="stroke-width:4.0;stroke:rgb(0,0,0);stroke-linecap:round;fill:none;" />
<text x="1775.3" y="2621.7" font-size="18.2px" font-family="CMUBright-Roman" style="text-anchor:start;fill:rgb(0,0,0);" transform="rotate(75.9,1775.3,2621.7)" >300</text>
<line x1='1717.5' y1='2603.8' x2='1721.4' y2='2623.4' style="stroke-width:4.0;stroke:rgb(0,0,0);stroke-linecap:round;fill:none;" />
<text x="1716.9" y="2634.4" font-size="18.2px" font-family="CMUBright-Roman" style="text-anchor:start;fill:rgb(0,0,0);" transform="rotate(78.9,1716.9,2634.4)" >350</text>
<line x1='1660.1' y1='2613.5' x2='1663.0' y2='2633.3' style="stroke-width:4.0;stroke:rgb(0,0,0);stroke-linecap:round;fill:none;" />
<text x="1658.0" y="2644.1" font-size="18.2px" font-family="CMUBright-Roman" style="text-anchor:start;fill:rgb(0,0,0);" transform="rotate(81.8,1658.0,2644.1)" >400</text>
<line x1='1602.3' y1='2620.3' x2='1604.1' y2='2640.3' style="stroke-width:4.0;stroke:rgb(0,0,0);stroke-linecap:round;fill:none;" />
<text x="1598.6" y="2650.8" font-size="18.2px" font-family="CMUBright-Roman" style="text-anchor:start;fill:rgb(0,0,0);" transform="rotate(84.8,1598.6,2650.8)" >450</text>
<line x1='1544.2' y1='2624.1' x2='1545.0' y2='2644.1' style="stroke-width:4.0;stroke:rgb(0,0,0);stroke-linecap:round;fill:none;" />
<text x="1538.9" y="2654.3" font-size="18.2px" font-family="CMUBright-Roman" style="text-anchor:start;fill:rgb(0,0,0);" transform="rotate(87.7,1538.9,2654.3)" >500</text>
<line x1='1486.0' y1='2624.9' x2='1485.8' y2='2644.9' style="stroke-width:4.0;stroke:rgb(0,0,0);stroke-linecap:round;fill:none;" />
<text x="1492.1" y="2655.0" font-size="18.2px" font-family="CMUBright-Roman" style="text-anchor:end;fill:rgb(0,0,0);" transform="rotate(-89.3,1492.1,2655.0)" >550</text>
<line x1='1427.9' y1='2622.7' x2='1426.6' y2='2642.6' style="stroke-width:4.0;stroke:rgb(0,0,0);stroke-linecap:round;fill:none;" />
<text x="1432.4" y="2653.0" font-size="18.2px" font-family="CMUBright-Roman" style="text-anchor:end;fill:rgb(0,0,0);" transform="rotate(-86.3,1432.4,2653.0)" >600</text>
<g id="highlighttrack_0">
<path d="M1817.052,2527.182 A1075.000,1075.000 40.000 0,1 1814.646,2527.922 L1829.281,2575.732 A1125.000,1125.000 0.000 0,0 1831.798,2574.958 Z" style="stroke-width:4.0;stroke:rgb(0,0,0);stroke-linecap:round;fill:rgb(116,196,118);" />
<path d="M1502.686,2574.997 A1075.000,1075.000 40.000 0,1 1485.925,2574.908 L1485.271,2624.904 A1125.000,1125.000 0.000 0,0 1502.811,2624.996 Z" style="stroke-width:4.0;stroke:rgb(0,0,0);stroke-linecap:round;fill:rgb(116,196,118);" />
<path d="M1961.405,2470.943 A1075.000,1075.000 40.000 0,1 1959.115,2472.028 L1980.469,2517.238 A1125.000,1125.000 0.000 0,0 1982.865,2516.103 Z" style="stroke-width:4.0;stroke:rgb(0,0,0);stroke-linecap:round;fill:rgb(116,196,118);" />
</g>
<path d="M1332.523,2561.874 A1075.000,1075.000 40.000 0,1 1162.485,2520.641 L1146.786,2568.113 A1125.000,1125.000 0.000 0,0 1324.733,2611.263 Z" style="stroke-linecap:round;fill:rgb(116,196,118);fill-opacity:0.33;" />
<text x="1222.9" y="2683.0" font-size="18.2px" font-family="CMUBright-Roman" style="text-anchor:end;fill:rgb(0,0,0);" transform="rotate(-76.4,1222.9,2683.0)" >R<tspan baseline-shift="-40%" font-size="90%">s</tspan>caffold<tspan baseline-shift="-40%" font-size="90%">8</tspan></text>
<line x1='1324.7' y1='2611.3' x2='1321.6' y2='2631.0' style="stroke-width:4.0;stroke:rgb(0,0,0);stroke-linecap:round;fill:none;" />
<text x="1326.5" y="2641.9" font-size="18.2px" font-family="CMUBright-Roman" style="text-anchor:end;fill:rgb(0,0,0);" transform="rotate(-81.0,1326.5,2641.9)" >0</text>
<line x1='1267.5' y1='2600.7' x2='1263.4' y2='2620.3' style="stroke-width:4.0;stroke:rgb(0,0,0);stroke-linecap:round;fill:none;" />
<text x="1267.7" y="2631.4" font-size="18.2px" font-family="CMUBright-Roman" style="text-anchor:end;fill:rgb(0,0,0);" transform="rotate(-78.1,1267.7,2631.4)" >50</text>
<line x1='1210.9' y1='2587.2' x2='1205.7' y2='2606.5' style="stroke-width:4.0;stroke:rgb(0,0,0);stroke-linecap:round;fill:none;" />
<text x="1209.4" y="2617.9" font-size="18.2px" font-family="CMUBright-Roman" style="text-anchor:end;fill:rgb(0,0,0);" transform="rotate(-75.1,1209.4,2617.9)" >100</text>
<line x1='1155.0' y1='2570.8' x2='1148.9' y2='2589.8' style="stroke-width:4.0;stroke:rgb(0,0,0);stroke-linecap:round;fill:none;" />
<text x="1152.0" y="2601.3" font-size="18.2px" font-family="CMUBright-Roman" style="text-anchor:end;fill:rgb(0,0,0);" transform="rotate(-72.1,1152.0,2601.3)" >150</text>
<g id="highlighttrack_0">
<path d="M1283.238,2552.919 A1075.000,1075.000 40.000 0,1 1278.819,2552.000 L1268.532,2600.930 A1125.000,1125.000 0.000 0,0 1273.156,2601.892 Z" style="stroke-width:4.0;stroke:rgb(0,0,0);stroke-linecap:round;fill:rgb(116,196,118);" />
</g>
<path d="M1109.531,2501.578 A1075.000,1075.000 40.000 0,1 1084.528,2491.468 L1065.204,2537.582 A1125.000,1125.000 0.000 0,0 1091.370,2548.163 Z" style="stroke-linecap:round;fill:rgb(116,196,118);fill-opacity:0.33;" />
<text x="1053.3" y="2629.9" font-size="18.2px" font-family="CMUBright-Roman" style="text-anchor:end;fill:rgb(0,0,0);" transform="rotate(-68.0,1053.3,2629.9)" >R<tspan baseline-shift="-40%" font-size="90%">s</tspan>caffold<tspan baseline-shift="-40%" font-size="90%">1</tspan>5</text>
<line x1='1091.4' y1='2548.2' x2='1084.1' y2='2566.8' style="stroke-width:4.0;stroke:rgb(0,0,0);stroke-linecap:round;fill:none;" />
<text x="1086.5" y="2578.5" font-size="18.2px" font-family="CMUBright-Roman" style="text-anchor:end;fill:rgb(0,0,0);" transform="rotate(-68.7,1086.5,2578.5)" >0</text>
<g id="highlighttrack_0">
<path d="M1099.194,2497.487 A1075.000,1075.000 40.000 0,1 1084.528,2491.468 L1065.204,2537.582 A1125.000,1125.000 0.000 0,0 1080.552,2543.881 Z" style="stroke-width:4.0;stroke:rgb(0,0,0);stroke-linecap:round;fill:rgb(116,196,118);" />
</g>
<path d="M1033.208,2468.365 A1075.000,1075.000 40.000 0,1 1017.036,2460.401 L994.572,2505.071 A1125.000,1125.000 0.000 0,0 1011.497,2513.405 Z" style="stroke-linecap:round;fill:rgb(116,196,118);fill-opacity:0.33;" />
<text x="971.8" y="2594.2" font-size="18.2px" font-family="CMUBright-Roman" style="text-anchor:end;fill:rgb(0,0,0);" transform="rotate(-63.8,971.8,2594.2)" >R<tspan baseline-shift="-40%" font-size="90%">s</tspan>caffold<tspan baseline-shift="-40%" font-size="90%">1</tspan>6</text>
<line x1='1011.5' y1='2513.4' x2='1002.8' y2='2531.4' style="stroke-width:4.0;stroke:rgb(0,0,0);stroke-linecap:round;fill:none;" />
<text x="1004.3" y="2543.2" font-size="18.2px" font-family="CMUBright-Roman" style="text-anchor:end;fill:rgb(0,0,0);" transform="rotate(-64.3,1004.3,2543.2)" >0</text>
<g id="highlighttrack_0">
<path d="M1033.181,2468.352 A1075.000,1075.000 40.000 0,1 1017.036,2460.401 L994.572,2505.071 A1125.000,1125.000 0.000 0,0 1011.469,2513.391 Z" style="stroke-width:4.0;stroke:rgb(0,0,0);stroke-linecap:round;fill:rgb(116,196,118);" />
</g>
<path d="M967.434,2433.809 A1075.000,1075.000 40.000 0,1 896.310,2389.485 L868.231,2430.856 A1125.000,1125.000 0.000 0,0 942.664,2477.242 Z" style="stroke-linecap:round;fill:rgb(116,196,118);fill-opacity:0.33;" />
<text x="865.5" y="2536.1" font-size="18.2px" font-family="CMUBright-Roman" style="text-anchor:end;fill:rgb(0,0,0);" transform="rotate(-58.1,865.5,2536.1)" >R<tspan baseline-shift="-40%" font-size="90%">s</tspan>caffold<tspan baseline-shift="-40%" font-size="90%">1</tspan>2</text>
<line x1='942.7' y1='2477.2' x2='932.8' y2='2494.6' style="stroke-width:4.0;stroke:rgb(0,0,0);stroke-linecap:round;fill:none;" />
<text x="933.5" y="2506.5" font-size="18.2px" font-family="CMUBright-Roman" style="text-anchor:end;fill:rgb(0,0,0);" transform="rotate(-60.3,933.5,2506.5)" >0</text>
<line x1='892.9' y1='2447.1' x2='882.1' y2='2463.9' style="stroke-width:4.0;stroke:rgb(0,0,0);stroke-linecap:round;fill:none;" />
<text x="882.2" y="2475.9" font-size="18.2px" font-family="CMUBright-Roman" style="text-anchor:end;fill:rgb(0,0,0);" transform="rotate(-57.3,882.2,2475.9)" >50</text>
<g id="highlighttrack_0">
<path d="M956.282,2427.359 A1075.000,1075.000 40.000 0,1 932.277,2412.861 L905.871,2455.320 A1125.000,1125.000 0.000 0,0 930.992,2470.492 Z" style="stroke-width:4.0;stroke:rgb(0,0,0);stroke-linecap:round;fill:rgb(116,196,118);" />
</g>
<path d="M850.585,2356.671 A1075.000,1075.000 40.000 0,1 847.996,2354.702 L817.671,2394.456 A1125.000,1125.000 0.000 0,0 820.380,2396.516 Z" style="stroke-linecap:round;fill:rgb(116,196,118);fill-opacity:0.33;" />
<text x="772.1" y="2472.8" font-size="18.2px" font-family="CMUBright-Roman" style="text-anchor:end;fill:rgb(0,0,0);" transform="rotate(-52.7,772.1,2472.8)" >R<tspan baseline-shift="-40%" font-size="90%">s</tspan>caffold<tspan baseline-shift="-40%" font-size="90%">1</tspan>7</text>
<line x1='820.4' y1='2396.5' x2='808.3' y2='2412.5' style="stroke-width:4.0;stroke:rgb(0,0,0);stroke-linecap:round;fill:none;" />
<text x="807.4" y="2424.3" font-size="18.2px" font-family="CMUBright-Roman" style="text-anchor:end;fill:rgb(0,0,0);" transform="rotate(-52.8,807.4,2424.3)" >0</text>
<g id="highlighttrack_0">
<path d="M850.584,2356.670 A1075.000,1075.000 40.000 0,1 847.998,2354.704 L817.672,2394.457 A1125.000,1125.000 0.000 0,0 820.379,2396.515 Z" style="stroke-width:4.0;stroke:rgb(0,0,0);stroke-linecap:round;fill:rgb(116,196,118);" />
</g>
<path d="M804.158,2319.408 A1075.000,1075.000 40.000 0,1 659.680,2170.438 L620.596,2201.622 A1125.000,1125.000 0.000 0,0 771.794,2357.520 Z" style="stroke-linecap:round;fill:rgb(116,196,118);fill-opacity:0.33;" />
<text x="634.5" y="2352.7" font-size="18.2px" font-family="CMUBright-Roman" style="text-anchor:end;fill:rgb(0,0,0);" transform="rotate(-44.1,634.5,2352.7)" >R<tspan baseline-shift="-40%" font-size="90%">s</tspan>caffold<tspan baseline-shift="-40%" font-size="90%">8</tspan></text>
<line x1='771.8' y1='2357.5' x2='758.8' y2='2372.8' style="stroke-width:4.0;stroke:rgb(0,0,0);stroke-linecap:round;fill:none;" />
<text x="757.3" y="2384.6" font-size="18.2px" font-family="CMUBright-Roman" style="text-anchor:end;fill:rgb(0,0,0);" transform="rotate(-49.7,757.3,2384.6)" >0</text>
<line x1='728.4' y1='2318.7' x2='714.7' y2='2333.3' style="stroke-width:4.0;stroke:rgb(0,0,0);stroke-linecap:round;fill:none;" />
<text x="712.6" y="2345.0" font-size="18.2px" font-family="CMUBright-Roman" style="text-anchor:end;fill:rgb(0,0,0);" transform="rotate(-46.7,712.6,2345.0)" >50</text>
<line x1='687.1' y1='2277.7' x2='672.6' y2='2291.5' style="stroke-width:4.0;stroke:rgb(0,0,0);stroke-linecap:round;fill:none;" />
<text x="669.9" y="2303.1" font-size="18.2px" font-family="CMUBright-Roman" style="text-anchor:end;fill:rgb(0,0,0);" transform="rotate(-43.7,669.9,2303.1)" >100</text>
<line x1='648.0' y1='2234.6' x2='632.8' y2='2247.7' style="stroke-width:4.0;stroke:rgb(0,0,0);stroke-linecap:round;fill:none;" />
<text x="629.5" y="2259.1" font-size="18.2px" font-family="CMUBright-Roman" style="text-anchor:end;fill:rgb(0,0,0);" transform="rotate(-40.8,629.5,2259.1)" >150</text>
<g id="highlighttrack_0">
<path d="M731.386,2251.570 A1075.000,1075.000 40.000 0,1 729.102,2249.227 L693.246,2284.074 A1125.000,1125.000 0.000 0,0 695.636,2286.526 Z" style="stroke-width:4.0;stroke:rgb(0,0,0);stroke-linecap:round;fill:rgb(116,196,118);" />
</g>
<path d="M625.744,2125.541 A1075.000,1075.000 40.000 0,1 439.008,1672.980 L389.660,1681.025 A1125.000,1125.000 0.000 0,0 585.081,2154.636 Z" style="stroke-linecap:round;fill:rgb(116,196,118);fill-opacity:0.33;" />
<text x="380.5" y="1972.2" font-size="18.2px" font-family="CMUBright-Roman" style="text-anchor:end;fill:rgb(0,0,0);" transform="rotate(-22.4,380.5,1972.2)" >R<tspan baseline-shift="-40%" font-size="90%">s</tspan>caffold<tspan baseline-shift="-40%" font-size="90%">1</tspan></text>
<line x1='585.1' y1='2154.6' x2='568.8' y2='2166.3' style="stroke-width:4.0;stroke:rgb(0,0,0);stroke-linecap:round;fill:none;" />
<text x="564.5" y="2177.4" font-size="18.2px" font-family="CMUBright-Roman" style="text-anchor:end;fill:rgb(0,0,0);" transform="rotate(-35.6,564.5,2177.4)" >0</text>
<line x1='552.4' y1='2106.4' x2='535.6' y2='2117.2' style="stroke-width:4.0;stroke:rgb(0,0,0);stroke-linecap:round;fill:none;" />
<text x="530.7" y="2128.1" font-size="18.2px" font-family="CMUBright-Roman" style="text-anchor:end;fill:rgb(0,0,0);" transform="rotate(-32.6,530.7,2128.1)" >50</text>
<line x1='522.3' y1='2056.6' x2='505.0' y2='2066.5' style="stroke-width:4.0;stroke:rgb(0,0,0);stroke-linecap:round;fill:none;" />
<text x="499.5" y="2077.1" font-size="18.2px" font-family="CMUBright-Roman" style="text-anchor:end;fill:rgb(0,0,0);" transform="rotate(-29.7,499.5,2077.1)" >100</text>
<line x1='494.9' y1='2005.3' x2='477.0' y2='2014.3' style="stroke-width:4.0;stroke:rgb(0,0,0);stroke-linecap:round;fill:none;" />
<text x="471.0" y="2024.6" font-size="18.2px" font-family="CMUBright-Roman" style="text-anchor:end;fill:rgb(0,0,0);" transform="rotate(-26.7,471.0,2024.6)" >150</text>
<line x1='470.1' y1='1952.6' x2='451.8' y2='1960.7' style="stroke-width:4.0;stroke:rgb(0,0,0);stroke-linecap:round;fill:none;" />
<text x="445.2" y="1970.6" font-size="18.2px" font-family="CMUBright-Roman" style="text-anchor:end;fill:rgb(0,0,0);" transform="rotate(-23.7,445.2,1970.6)" >200</text>
<line x1='448.0' y1='1898.8' x2='429.3' y2='1905.8' style="stroke-width:4.0;stroke:rgb(0,0,0);stroke-linecap:round;fill:none;" />
<text x="422.3" y="1915.5" font-size="18.2px" font-family="CMUBright-Roman" style="text-anchor:end;fill:rgb(0,0,0);" transform="rotate(-20.8,422.3,1915.5)" >250</text>
<line x1='428.8' y1='1843.8' x2='409.8' y2='1849.9' style="stroke-width:4.0;stroke:rgb(0,0,0);stroke-linecap:round;fill:none;" />
<text x="402.3" y="1859.2" font-size="18.2px" font-family="CMUBright-Roman" style="text-anchor:end;fill:rgb(0,0,0);" transform="rotate(-17.8,402.3,1859.2)" >300</text>
<line x1='412.5' y1='1787.9' x2='393.1' y2='1793.1' style="stroke-width:4.0;stroke:rgb(0,0,0);stroke-linecap:round;fill:none;" />
<text x="385.2" y="1801.9" font-size="18.2px" font-family="CMUBright-Roman" style="text-anchor:end;fill:rgb(0,0,0);" transform="rotate(-14.8,385.2,1801.9)" >350</text>
<line x1='399.0' y1='1731.3' x2='379.5' y2='1735.4' style="stroke-width:4.0;stroke:rgb(0,0,0);stroke-linecap:round;fill:none;" />
<text x="371.0" y="1743.8" font-size="18.2px" font-family="CMUBright-Roman" style="text-anchor:end;fill:rgb(0,0,0);" transform="rotate(-11.9,371.0,1743.8)" >400</text>
<g id="highlighttrack_0">
<path d="M586.530,2066.743 A1075.000,1075.000 40.000 0,1 470.582,1809.714 L422.702,1824.119 A1125.000,1125.000 0.000 0,0 544.043,2093.103 Z" style="stroke-width:4.0;stroke:rgb(0,0,0);stroke-linecap:round;fill:rgb(116,196,118);" />
</g>
<path d="M431.409,1617.215 A1075.000,1075.000 40.000 0,1 426.251,1448.144 L376.310,1445.732 A1125.000,1125.000 0.000 0,0 381.708,1622.666 Z" style="stroke-linecap:round;fill:rgb(116,196,118);fill-opacity:0.33;" />
<text x="285.9" y="1546.5" font-size="18.2px" font-family="CMUBright-Roman" style="text-anchor:end;fill:rgb(0,0,0);" transform="rotate(-1.7,285.9,1546.5)" >R<tspan baseline-shift="-40%" font-size="90%">s</tspan>caffold<tspan baseline-shift="-40%" font-size="90%">1</tspan>3</text>
<line x1='381.7' y1='1622.7' x2='361.8' y2='1624.8' style="stroke-width:4.0;stroke:rgb(0,0,0);stroke-linecap:round;fill:none;" />
<text x="352.6" y="1632.4" font-size="18.2px" font-family="CMUBright-Roman" style="text-anchor:end;fill:rgb(0,0,0);" transform="rotate(-6.3,352.6,1632.4)" >0</text>
<line x1='376.9' y1='1564.7' x2='356.9' y2='1565.8' style="stroke-width:4.0;stroke:rgb(0,0,0);stroke-linecap:round;fill:none;" />
<text x="347.3" y="1572.9" font-size="18.2px" font-family="CMUBright-Roman" style="text-anchor:end;fill:rgb(0,0,0);" transform="rotate(-3.3,347.3,1572.9)" >50</text>
<line x1='375.0' y1='1506.5' x2='355.0' y2='1506.6' style="stroke-width:4.0;stroke:rgb(0,0,0);stroke-linecap:round;fill:none;" />
<text x="345.1" y="1513.2" font-size="18.2px" font-family="CMUBright-Roman" style="text-anchor:end;fill:rgb(0,0,0);" transform="rotate(-0.3,345.1,1513.2)" >100</text>
<line x1='376.2' y1='1448.3' x2='356.2' y2='1447.4' style="stroke-width:4.0;stroke:rgb(0,0,0);stroke-linecap:round;fill:none;" />
<text x="345.9" y="1453.4" font-size="18.2px" font-family="CMUBright-Roman" style="text-anchor:end;fill:rgb(0,0,0);" transform="rotate(2.6,345.9,1453.4)" >150</text>
<g id="highlighttrack_0">
<path d="M425.050,1510.363 A1075.000,1075.000 40.000 0,1 425.002,1502.295 L375.003,1502.402 A1125.000,1125.000 0.000 0,0 375.052,1510.845 Z" style="stroke-width:4.0;stroke:rgb(0,0,0);stroke-linecap:round;fill:rgb(116,196,118);" />
</g>
<path d="M430.437,1392.019 A1075.000,1075.000 40.000 0,1 449.101,1273.646 L400.222,1263.118 A1125.000,1125.000 0.000 0,0 380.690,1386.997 Z" style="stroke-linecap:round;fill:rgb(116,196,118);fill-opacity:0.33;" />
<text x="298.4" y="1320.2" font-size="18.2px" font-family="CMUBright-Roman" style="text-anchor:end;fill:rgb(0,0,0);" transform="rotate(9.0,298.4,1320.2)" >R<tspan baseline-shift="-40%" font-size="90%">s</tspan>caffold<tspan baseline-shift="-40%" font-size="90%">1</tspan>6</text>
<line x1='380.7' y1='1387.0' x2='360.8' y2='1385.0' style="stroke-width:4.0;stroke:rgb(0,0,0);stroke-linecap:round;fill:none;" />
<text x="350.2" y="1390.5" font-size="18.2px" font-family="CMUBright-Roman" style="text-anchor:end;fill:rgb(0,0,0);" transform="rotate(5.8,350.2,1390.5)" >0</text>
<line x1='388.0' y1='1329.3' x2='368.3' y2='1326.2' style="stroke-width:4.0;stroke:rgb(0,0,0);stroke-linecap:round;fill:none;" />
<text x="357.4" y="1331.1" font-size="18.2px" font-family="CMUBright-Roman" style="text-anchor:end;fill:rgb(0,0,0);" transform="rotate(8.7,357.4,1331.1)" >50</text>
<line x1='398.4' y1='1272.0' x2='378.8' y2='1267.9' style="stroke-width:4.0;stroke:rgb(0,0,0);stroke-linecap:round;fill:none;" />
<text x="367.7" y="1272.3" font-size="18.2px" font-family="CMUBright-Roman" style="text-anchor:end;fill:rgb(0,0,0);" transform="rotate(11.7,367.7,1272.3)" >100</text>
<g id="highlighttrack_0">
<path d="M444.218,1297.639 A1075.000,1075.000 40.000 0,1 444.659,1295.354 L395.573,1285.836 A1125.000,1125.000 0.000 0,0 395.112,1288.227 Z" style="stroke-width:4.0;stroke:rgb(0,0,0);stroke-linecap:round;fill:rgb(251,106,74);" />
</g>
<path d="M462.388,1218.956 A1075.000,1075.000 40.000 0,1 874.007,626.068 L844.891,585.420 A1125.000,1125.000 0.000 0,0 414.127,1205.884 Z" style="stroke-linecap:round;fill:rgb(116,196,118);fill-opacity:0.33;" />
<text x="496.6" y="814.9" font-size="18.2px" font-family="CMUBright-Roman" style="text-anchor:end;fill:rgb(0,0,0);" transform="rotate(34.8,496.6,814.9)" >R<tspan baseline-shift="-40%" font-size="90%">s</tspan>caffold<tspan baseline-shift="-40%" font-size="90%">0</tspan></text>
<line x1='414.1' y1='1205.9' x2='394.8' y2='1200.7' style="stroke-width:4.0;stroke:rgb(0,0,0);stroke-linecap:round;fill:none;" />
<text x="383.5" y="1204.3" font-size="18.2px" font-family="CMUBright-Roman" style="text-anchor:end;fill:rgb(0,0,0);" transform="rotate(15.2,383.5,1204.3)" >0</text>
<line x1='430.8' y1='1150.1' x2='411.8' y2='1143.9' style="stroke-width:4.0;stroke:rgb(0,0,0);stroke-linecap:round;fill:none;" />
<text x="400.3" y="1147.0" font-size="18.2px" font-family="CMUBright-Roman" style="text-anchor:end;fill:rgb(0,0,0);" transform="rotate(18.1,400.3,1147.0)" >50</text>
<line x1='450.3' y1='1095.3' x2='431.7' y2='1088.1' style="stroke-width:4.0;stroke:rgb(0,0,0);stroke-linecap:round;fill:none;" />
<text x="420.0" y="1090.6" font-size="18.2px" font-family="CMUBright-Roman" style="text-anchor:end;fill:rgb(0,0,0);" transform="rotate(21.1,420.0,1090.6)" >100</text>
<line x1='472.7' y1='1041.5' x2='454.4' y2='1033.4' style="stroke-width:4.0;stroke:rgb(0,0,0);stroke-linecap:round;fill:none;" />
<text x="442.6" y="1035.2" font-size="18.2px" font-family="CMUBright-Roman" style="text-anchor:end;fill:rgb(0,0,0);" transform="rotate(24.0,442.6,1035.2)" >150</text>
<line x1='497.7' y1='989.0' x2='479.9' y2='979.9' style="stroke-width:4.0;stroke:rgb(0,0,0);stroke-linecap:round;fill:none;" />
<text x="468.1" y="981.2" font-size="18.2px" font-family="CMUBright-Roman" style="text-anchor:end;fill:rgb(0,0,0);" transform="rotate(27.0,468.1,981.2)" >200</text>
<line x1='525.5' y1='937.8' x2='508.2' y2='927.9' style="stroke-width:4.0;stroke:rgb(0,0,0);stroke-linecap:round;fill:none;" />
<text x="496.3" y="928.5" font-size="18.2px" font-family="CMUBright-Roman" style="text-anchor:end;fill:rgb(0,0,0);" transform="rotate(30.0,496.3,928.5)" >250</text>
<line x1='555.9' y1='888.2' x2='539.1' y2='877.3' style="stroke-width:4.0;stroke:rgb(0,0,0);stroke-linecap:round;fill:none;" />
<text x="527.2" y="877.3" font-size="18.2px" font-family="CMUBright-Roman" style="text-anchor:end;fill:rgb(0,0,0);" transform="rotate(32.9,527.2,877.3)" >300</text>
<line x1='588.8' y1='840.2' x2='572.6' y2='828.5' style="stroke-width:4.0;stroke:rgb(0,0,0);stroke-linecap:round;fill:none;" />
<text x="560.7" y="827.9" font-size="18.2px" font-family="CMUBright-Roman" style="text-anchor:end;fill:rgb(0,0,0);" transform="rotate(35.9,560.7,827.9)" >350</text>
<line x1='624.2' y1='793.9' x2='608.6' y2='781.4' style="stroke-width:4.0;stroke:rgb(0,0,0);stroke-linecap:round;fill:none;" />
<text x="596.7" y="780.2" font-size="18.2px" font-family="CMUBright-Roman" style="text-anchor:end;fill:rgb(0,0,0);" transform="rotate(38.9,596.7,780.2)" >400</text>
<line x1='661.9' y1='749.6' x2='647.0' y2='736.2' style="stroke-width:4.0;stroke:rgb(0,0,0);stroke-linecap:round;fill:none;" />
<text x="635.2" y="734.4" font-size="18.2px" font-family="CMUBright-Roman" style="text-anchor:end;fill:rgb(0,0,0);" transform="rotate(41.8,635.2,734.4)" >450</text>
<line x1='701.8' y1='707.2' x2='687.6' y2='693.1' style="stroke-width:4.0;stroke:rgb(0,0,0);stroke-linecap:round;fill:none;" />
<text x="675.9" y="690.7" font-size="18.2px" font-family="CMUBright-Roman" style="text-anchor:end;fill:rgb(0,0,0);" transform="rotate(44.8,675.9,690.7)" >500</text>
<line x1='743.9' y1='667.0' x2='730.4' y2='652.2' style="stroke-width:4.0;stroke:rgb(0,0,0);stroke-linecap:round;fill:none;" />
<text x="718.9" y="649.2" font-size="18.2px" font-family="CMUBright-Roman" style="text-anchor:end;fill:rgb(0,0,0);" transform="rotate(47.8,718.9,649.2)" >550</text>
<line x1='788.0' y1='629.0' x2='775.3' y2='613.5' style="stroke-width:4.0;stroke:rgb(0,0,0);stroke-linecap:round;fill:none;" />
<text x="764.0" y="609.9" font-size="18.2px" font-family="CMUBright-Roman" style="text-anchor:end;fill:rgb(0,0,0);" transform="rotate(50.7,764.0,609.9)" >600</text>
<line x1='834.0' y1='593.3' x2='822.1' y2='577.2' style="stroke-width:4.0;stroke:rgb(0,0,0);stroke-linecap:round;fill:none;" />
<text x="811.0" y="573.0" font-size="18.2px" font-family="CMUBright-Roman" style="text-anchor:end;fill:rgb(0,0,0);" transform="rotate(53.7,811.0,573.0)" >650</text>
<g id="highlighttrack_0">
<path d="M611.400,895.008 A1075.000,1075.000 40.000 0,1 612.819,892.929 L571.555,864.693 A1125.000,1125.000 0.000 0,0 570.070,866.868 Z" style="stroke-width:4.0;stroke:rgb(0,0,0);stroke-linecap:round;fill:rgb(116,196,118);" />
<path d="M471.936,1185.818 A1075.000,1075.000 40.000 0,1 472.897,1182.692 L425.125,1167.934 A1125.000,1125.000 0.000 0,0 424.120,1171.205 Z" style="stroke-width:4.0;stroke:rgb(0,0,0);stroke-linecap:round;fill:rgb(251,106,74);" />
<path d="M516.636,1065.696 A1075.000,1075.000 40.000 0,1 517.662,1063.380 L471.972,1043.072 A1125.000,1125.000 0.000 0,0 470.898,1045.496 Z" style="stroke-width:4.0;stroke:rgb(0,0,0);stroke-linecap:round;fill:rgb(116,196,118);" />
<path d="M551.799,993.502 A1075.000,1075.000 40.000 0,1 553.179,990.927 L509.141,967.249 A1125.000,1125.000 0.000 0,0 507.697,969.944 Z" style="stroke-width:4.0;stroke:rgb(0,0,0);stroke-linecap:round;fill:rgb(251,106,74);" />
<path d="M553.792,989.788 A1075.000,1075.000 40.000 0,1 555.087,987.394 L511.138,963.552 A1125.000,1125.000 0.000 0,0 509.783,966.058 Z" style="stroke-width:4.0;stroke:rgb(0,0,0);stroke-linecap:round;fill:rgb(116,196,118);" />
<path d="M580.165,943.647 A1075.000,1075.000 40.000 0,1 581.776,940.993 L539.067,914.993 A1125.000,1125.000 0.000 0,0 537.382,917.770 Z" style="stroke-width:4.0;stroke:rgb(0,0,0);stroke-linecap:round;fill:rgb(116,196,118);" />
</g>
<path d="M920.603,594.503 A1075.000,1075.000 40.000 0,1 1086.037,507.901 L1066.783,461.757 A1125.000,1125.000 0.000 0,0 893.654,552.387 Z" style="stroke-linecap:round;fill:rgb(116,196,118);fill-opacity:0.33;" />
<text x="928.1" y="428.0" font-size="18.2px" font-family="CMUBright-Roman" style="text-anchor:end;fill:rgb(0,0,0);" transform="rotate(62.4,928.1,428.0)" >R<tspan baseline-shift="-40%" font-size="90%">s</tspan>caffold<tspan baseline-shift="-40%" font-size="90%">1</tspan>1</text>
<line x1='893.7' y1='552.4' x2='882.9' y2='535.5' style="stroke-width:4.0;stroke:rgb(0,0,0);stroke-linecap:round;fill:none;" />
<text x="872.0" y="530.6" font-size="18.2px" font-family="CMUBright-Roman" style="text-anchor:end;fill:rgb(0,0,0);" transform="rotate(57.4,872.0,530.6)" >0</text>
<line x1='943.5' y1='522.3' x2='933.6' y2='504.9' style="stroke-width:4.0;stroke:rgb(0,0,0);stroke-linecap:round;fill:none;" />
<text x="923.0" y="499.5" font-size="18.2px" font-family="CMUBright-Roman" style="text-anchor:end;fill:rgb(0,0,0);" transform="rotate(60.4,923.0,499.5)" >50</text>
<line x1='994.8' y1='494.8' x2='985.8' y2='476.9' style="stroke-width:4.0;stroke:rgb(0,0,0);stroke-linecap:round;fill:none;" />
<text x="975.5" y="470.9" font-size="18.2px" font-family="CMUBright-Roman" style="text-anchor:end;fill:rgb(0,0,0);" transform="rotate(63.3,975.5,470.9)" >100</text>
<line x1='1047.5' y1='470.0' x2='1039.4' y2='451.7' style="stroke-width:4.0;stroke:rgb(0,0,0);stroke-linecap:round;fill:none;" />
<text x="1029.5" y="445.2" font-size="18.2px" font-family="CMUBright-Roman" style="text-anchor:end;fill:rgb(0,0,0);" transform="rotate(66.3,1029.5,445.2)" >150</text>
<g id="highlighttrack_0">
<path d="M953.537,574.255 A1075.000,1075.000 40.000 0,1 968.163,565.776 L943.426,522.324 A1125.000,1125.000 0.000 0,0 928.120,531.198 Z" style="stroke-width:4.0;stroke:rgb(0,0,0);stroke-linecap:round;fill:rgb(116,196,118);" />
<path d="M1006.698,544.868 A1075.000,1075.000 40.000 0,1 1010.706,542.808 L987.948,498.287 A1125.000,1125.000 0.000 0,0 983.753,500.443 Z" style="stroke-width:4.0;stroke:rgb(0,0,0);stroke-linecap:round;fill:rgb(116,196,118);" />
</g>
<path d="M1138.527,487.596 A1075.000,1075.000 40.000 0,1 1164.964,478.542 L1149.381,431.033 A1125.000,1125.000 0.000 0,0 1121.714,440.507 Z" style="stroke-linecap:round;fill:rgb(116,196,118);fill-opacity:0.33;" />
<text x="1097.4" y="353.6" font-size="18.2px" font-family="CMUBright-Roman" style="text-anchor:end;fill:rgb(0,0,0);" transform="rotate(71.1,1097.4,353.6)" >R<tspan baseline-shift="-40%" font-size="90%">s</tspan>caffold<tspan baseline-shift="-40%" font-size="90%">2</tspan>5</text>
<line x1='1121.7' y1='440.5' x2='1115.0' y2='421.7' style="stroke-width:4.0;stroke:rgb(0,0,0);stroke-linecap:round;fill:none;" />
<text x="1105.5" y="414.5" font-size="18.2px" font-family="CMUBright-Roman" style="text-anchor:end;fill:rgb(0,0,0);" transform="rotate(70.4,1105.5,414.5)" >0</text>
<g id="highlighttrack_0">
<path d="M1149.762,483.655 A1075.000,1075.000 40.000 0,1 1164.779,478.603 L1149.187,431.096 A1125.000,1125.000 0.000 0,0 1133.472,436.383 Z" style="stroke-width:4.0;stroke:rgb(0,0,0);stroke-linecap:round;fill:rgb(116,196,118);" />
</g>
<path d="M1218.882,462.408 A1075.000,1075.000 40.000 0,1 1242.038,456.410 L1230.040,407.871 A1125.000,1125.000 0.000 0,0 1205.806,414.148 Z" style="stroke-linecap:round;fill:rgb(116,196,118);fill-opacity:0.33;" />
<text x="1186.2" y="326.2" font-size="18.2px" font-family="CMUBright-Roman" style="text-anchor:end;fill:rgb(0,0,0);" transform="rotate(75.5,1186.2,326.2)" >R<tspan baseline-shift="-40%" font-size="90%">s</tspan>caffold<tspan baseline-shift="-40%" font-size="90%">2</tspan>6</text>
<line x1='1205.8' y1='414.1' x2='1200.6' y2='394.8' style="stroke-width:4.0;stroke:rgb(0,0,0);stroke-linecap:round;fill:none;" />
<text x="1191.7" y="386.9" font-size="18.2px" font-family="CMUBright-Roman" style="text-anchor:end;fill:rgb(0,0,0);" transform="rotate(74.8,1191.7,386.9)" >0</text>
<g id="highlighttrack_0">
<path d="M1219.168,462.330 A1075.000,1075.000 40.000 0,1 1236.581,457.774 L1224.329,409.298 A1125.000,1125.000 0.000 0,0 1206.107,414.066 Z" style="stroke-width:4.0;stroke:rgb(0,0,0);stroke-linecap:round;fill:rgb(116,196,118);" />
</g>
<path d="M1297.009,444.339 A1075.000,1075.000 40.000 0,1 1384.212,431.254 L1378.827,381.545 A1125.000,1125.000 0.000 0,0 1287.567,395.239 Z" style="stroke-linecap:round;fill:rgb(116,196,118);fill-opacity:0.33;" />
<text x="1310.3" y="299.9" font-size="18.2px" font-family="CMUBright-Roman" style="text-anchor:end;fill:rgb(0,0,0);" transform="rotate(81.5,1310.3,299.9)" >R<tspan baseline-shift="-40%" font-size="90%">s</tspan>caffold<tspan baseline-shift="-40%" font-size="90%">1</tspan>8</text>
<line x1='1287.6' y1='395.2' x2='1283.8' y2='375.6' style="stroke-width:4.0;stroke:rgb(0,0,0);stroke-linecap:round;fill:none;" />
<text x="1275.5" y="367.0" font-size="18.2px" font-family="CMUBright-Roman" style="text-anchor:end;fill:rgb(0,0,0);" transform="rotate(79.1,1275.5,367.0)" >0</text>
<line x1='1345.0' y1='385.7' x2='1342.2' y2='365.9' style="stroke-width:4.0;stroke:rgb(0,0,0);stroke-linecap:round;fill:none;" />
<text x="1334.4" y="356.9" font-size="18.2px" font-family="CMUBright-Roman" style="text-anchor:end;fill:rgb(0,0,0);" transform="rotate(82.1,1334.4,356.9)" >50</text>
<g id="highlighttrack_0">
<path d="M1309.939,441.935 A1075.000,1075.000 40.000 0,1 1340.485,436.901 L1333.065,387.454 A1125.000,1125.000 0.000 0,0 1301.099,392.723 Z" style="stroke-width:4.0;stroke:rgb(0,0,0);stroke-linecap:round;fill:rgb(116,196,118);" />
</g>
<path d="M1440.305,426.659 A1075.000,1075.000 40.000 0,1 1443.739,426.473 L1441.122,376.542 A1125.000,1125.000 0.000 0,0 1437.528,376.736 Z" style="stroke-linecap:round;fill:rgb(116,196,118);fill-opacity:0.33;" />
<text x="1425.0" y="287.3" font-size="18.2px" font-family="CMUBright-Roman" style="text-anchor:end;fill:rgb(0,0,0);" transform="rotate(86.9,1425.0,287.3)" >R<tspan baseline-shift="-40%" font-size="90%">s</tspan>caffold<tspan baseline-shift="-40%" font-size="90%">2</tspan>9</text>
<line x1='1437.5' y1='376.7' x2='1436.4' y2='356.8' style="stroke-width:4.0;stroke:rgb(0,0,0);stroke-linecap:round;fill:none;" />
<text x="1429.4" y="347.2" font-size="18.2px" font-family="CMUBright-Roman" style="text-anchor:end;fill:rgb(0,0,0);" transform="rotate(86.8,1429.4,347.2)" >0</text>
<g id="highlighttrack_0">
<path d="M1440.495,426.648 A1075.000,1075.000 40.000 0,1 1443.739,426.473 L1441.122,376.542 A1125.000,1125.000 0.000 0,0 1437.727,376.725 Z" style="stroke-width:4.0;stroke:rgb(0,0,0);stroke-linecap:round;fill:rgb(116,196,118);" />
</g>
</g>
<g id="track_0">
<path d="M 620.286,901.057 A 1064.250,1064.250 0.00 0,1 621.7,899.0 L 621.7,899.0 682.1,941.8 738.2,984.1 790.2,1025.9 838.5,1067.2 883.5,1107.8 925.4,1147.8 964.6,1187.1 1001.4,1225.8 1036.0,1263.7 1068.6,1301.0 1099.6,1337.6 1129.2,1373.6 1157.5,1408.9 1184.8,1443.8 1211.3,1478.2 1237.1,1512.1 1262.4,1545.8 1287.3,1579.2 1311.9,1612.6 1336.4,1645.9 1360.9,1679.4 1385.4,1713.1 1410.0,1747.3 1434.7,1782.0 1459.6,1817.6 1484.7,1854.0 1510.0,1891.6 1535.5,1930.6 1561.2,1971.1 1587.0,2013.4 1612.9,2057.7 1638.8,2104.3 1664.7,2153.5 1690.3,2205.4 1715.7,2260.5 1740.7,2318.9 1765.1,2381.0 1788.7,2447.2 1811.5,2517.6  A 1064.250,1064.250 0.00 0,0 1813.9,2516.9 L 1813.9,2516.9 1790.9,2446.5 1767.1,2380.4 1742.6,2318.3 1717.5,2260.0 1692.0,2205.0 1666.2,2153.1 1640.3,2104.0 1614.2,2057.5 1588.2,2013.2 1562.3,1970.9 1536.5,1930.5 1510.9,1891.6 1485.5,1854.1 1460.3,1817.7 1435.3,1782.2 1410.5,1747.5 1385.9,1713.4 1361.3,1679.7 1336.8,1646.3 1312.2,1613.0 1287.5,1579.7 1262.5,1546.4 1237.1,1512.8 1211.3,1478.8 1184.7,1444.5 1157.3,1409.8 1128.9,1374.4 1099.3,1338.5 1068.2,1302.0 1035.4,1264.8 1000.8,1226.9 963.9,1188.4 924.6,1149.2 882.6,1109.3 837.5,1068.7 789.1,1027.6 737.0,985.9 680.8,943.7 620.3,901.1  Z" style="stroke-width: 2.0;  stroke: rgb(82,82,82); fill: rgb(251,106,74); opacity: 0.667;" />
<path d="M 959.001,583.513 A 1064.250,1064.250 0.00 0,1 973.5,575.1 L 973.5,575.1 1009.1,640.1 1041.1,703.0 1069.7,763.7 1095.3,822.4 1118.2,879.2 1138.8,934.2 1157.3,987.3 1174.1,1038.9 1189.4,1088.8 1203.4,1137.4 1216.3,1184.6 1228.4,1230.5 1239.8,1275.4 1250.8,1319.3 1261.4,1362.4 1271.8,1404.7 1282.2,1446.5 1292.5,1487.9 1302.9,1528.9 1313.5,1569.9 1324.2,1610.9 1335.1,1652.1 1346.3,1693.7 1357.7,1735.8 1369.2,1778.6 1380.8,1822.3 1392.5,1867.2 1404.1,1913.3 1415.6,1960.8 1426.8,2010.1 1437.6,2061.2 1447.8,2114.4 1457.3,2169.9 1465.8,2228.0 1473.2,2288.8 1479.1,2352.6 1483.5,2419.6 1485.9,2490.0 1486.1,2564.2  A 1064.250,1064.250 0.00 0,0 1502.7,2564.2 L 1502.7,2564.2 1501.3,2490.1 1497.8,2419.7 1492.4,2352.8 1485.5,2289.1 1477.1,2228.4 1467.7,2170.5 1457.4,2115.2 1446.3,2062.1 1434.7,2011.2 1422.8,1962.1 1410.5,1914.7 1398.2,1868.8 1385.8,1824.2 1373.5,1780.6 1361.3,1738.0 1349.3,1696.1 1337.5,1654.7 1325.9,1613.7 1314.6,1572.8 1303.4,1532.0 1292.3,1491.1 1281.3,1449.9 1270.4,1408.3 1259.3,1366.1 1248.0,1323.3 1236.3,1279.5 1224.2,1234.8 1211.4,1189.1 1197.7,1142.1 1182.9,1093.8 1166.9,1044.0 1149.3,992.8 1129.9,939.9 1108.5,885.3 1084.7,828.9 1058.1,770.6 1028.6,710.3 995.7,647.9 959.0,583.5  Z" style="stroke-width: 2.0;  stroke: rgb(82,82,82); fill: rgb(116,196,118); opacity: 0.667;" />
<path d="M 482.217,1188.960 A 1064.250,1064.250 0.00 0,1 483.2,1185.9 L 483.2,1185.9 553.9,1206.7 621.0,1224.3 684.6,1239.1 744.9,1251.3 802.2,1261.1 856.7,1268.6 908.6,1274.1 958.0,1277.8 1005.2,1279.8 1050.5,1280.3 1093.8,1279.4 1135.5,1277.1 1175.7,1273.6 1214.6,1268.9 1252.4,1263.2 1289.2,1256.4 1325.1,1248.6 1360.3,1239.8 1395.0,1229.9 1429.3,1218.9 1463.2,1206.9 1497.1,1193.7 1530.9,1179.3 1564.8,1163.6 1598.9,1146.4 1633.3,1127.7 1668.1,1107.2 1703.5,1084.9 1739.4,1060.6 1776.0,1034.1 1813.3,1005.1 1851.5,973.4 1890.6,938.9 1930.6,901.2 1971.7,860.1 2013.9,815.2 2057.2,766.4 2101.6,713.1 2147.3,655.2  A 1064.250,1064.250 0.00 0,0 2144.7,653.2 L 2144.7,653.2 2099.2,711.3 2054.9,764.7 2011.8,813.7 1969.8,858.7 1928.8,899.9 1888.9,937.7 1849.9,972.4 1811.8,1004.1 1774.6,1033.2 1738.0,1059.9 1702.2,1084.3 1666.9,1106.7 1632.2,1127.3 1597.8,1146.1 1563.8,1163.4 1529.9,1179.2 1496.2,1193.7 1462.4,1207.0 1428.4,1219.2 1394.2,1230.2 1359.5,1240.2 1324.3,1249.1 1288.4,1257.1 1251.7,1264.0 1213.9,1269.8 1175.1,1274.6 1134.8,1278.2 1093.2,1280.6 1049.8,1281.7 1004.6,1281.4 957.3,1279.5 907.9,1275.9 856.0,1270.6 801.5,1263.2 744.2,1253.6 683.8,1241.6 620.2,1227.0 553.0,1209.5 482.2,1189.0  Z" style="stroke-width: 2.0;  stroke: rgb(82,82,82); fill: rgb(107,174,214); opacity: 0.667;" />
<path d="M 595.665,2061.076 A 1064.250,1064.250 0.00 0,1 480.9,1806.6 L 480.9,1806.6 551.8,1784.0 619.0,1760.3 682.8,1735.7 743.4,1710.4 801.1,1684.9 856.2,1659.1 908.8,1633.5 959.4,1608.2 1008.0,1583.3 1055.0,1558.9 1100.5,1535.4 1144.7,1512.6 1188.0,1490.8 1230.4,1470.0 1272.2,1450.3 1313.6,1431.8 1354.8,1414.3 1395.8,1398.0 1437.0,1382.8 1478.5,1368.7 1520.4,1355.7 1562.9,1343.6 1606.2,1332.3 1650.3,1321.8 1695.5,1312.0 1741.8,1302.6 1789.4,1293.5 1838.3,1284.6 1888.8,1275.6 1940.8,1266.2 1994.6,1256.3 2050.1,1245.6 2107.5,1233.8 2166.8,1220.7 2228.2,1205.8 2291.6,1188.8 2357.1,1169.5 2424.9,1147.4 2494.9,1122.1  A 1064.250,1064.250 0.00 0,0 2379.0,900.0 L 2379.0,900.0 2316.8,941.0 2256.1,978.3 2196.8,1012.5 2139.0,1043.9 2082.8,1072.8 2028.1,1099.6 1975.0,1124.6 1923.5,1148.1 1873.5,1170.4 1825.0,1191.9 1778.1,1212.7 1732.6,1233.1 1688.5,1253.3 1645.7,1273.5 1604.2,1294.0 1563.9,1314.9 1524.7,1336.3 1486.4,1358.5 1449.0,1381.4 1412.2,1405.3 1376.1,1430.3 1340.3,1456.3 1304.9,1483.6 1269.4,1512.0 1233.9,1541.6 1198.1,1572.6 1161.8,1604.7 1124.7,1638.1 1086.7,1672.6 1047.5,1708.2 1006.9,1744.9 964.5,1782.5 920.1,1821.0 873.5,1860.1 824.3,1899.9 772.3,1940.0 717.0,1980.4 658.3,2020.8 595.7,2061.1  Z" style="stroke-width: 2.0;  stroke: rgb(82,82,82); fill: rgb(253,141,60); opacity: 0.667;" />
<path d="M 454.776,1299.662 A 1064.250,1064.250 0.00 0,1 455.2,1297.4 L 455.2,1297.4 527.9,1312.7 596.9,1329.5 662.4,1347.6 724.6,1366.6 783.9,1386.2 840.4,1406.4 894.5,1426.8 946.4,1447.3 996.2,1467.7 1044.2,1487.8 1090.7,1507.6 1135.9,1526.9 1179.9,1545.6 1223.0,1563.6 1265.4,1580.9 1307.2,1597.4 1348.6,1613.1 1389.9,1628.1 1431.1,1642.2 1472.5,1655.6 1514.2,1668.3 1556.4,1680.4 1599.2,1691.9 1642.7,1703.0 1687.2,1713.9 1732.6,1724.5 1779.3,1735.2 1827.2,1746.0 1876.4,1757.2 1927.2,1769.1 1979.5,1781.7 2033.5,1795.5 2089.3,1810.7 2146.9,1827.5 2206.5,1846.3 2268.1,1867.4 2331.7,1891.1 2397.4,1917.9 2465.3,1948.1  A 1064.250,1064.250 0.00 0,0 2466.3,1946.0 L 2466.3,1946.0 2398.3,1916.0 2332.5,1889.3 2268.9,1865.7 2207.3,1844.7 2147.7,1826.1 2090.0,1809.4 2034.2,1794.4 1980.1,1780.7 1927.8,1768.1 1877.0,1756.4 1827.7,1745.3 1779.8,1734.6 1733.1,1724.0 1687.6,1713.5 1643.2,1702.7 1599.6,1691.7 1556.8,1680.3 1514.6,1668.3 1472.8,1655.7 1431.4,1642.4 1390.1,1628.3 1348.8,1613.5 1307.4,1597.8 1265.5,1581.4 1223.1,1564.2 1180.0,1546.3 1136.0,1527.7 1090.8,1508.5 1044.2,1488.8 996.1,1468.8 946.2,1448.5 894.4,1428.1 840.2,1407.8 783.6,1387.8 724.3,1368.2 662.0,1349.4 596.5,1331.5 527.5,1314.8 454.8,1299.7  Z" style="stroke-width: 2.0;  stroke: rgb(82,82,82); fill: rgb(255,0,0); opacity: 0.667;" />
<path d="M 1956.791,2461.234 A 1064.250,1064.250 0.00 0,1 1954.5,2462.3 L 1954.5,2462.3 1921.9,2395.9 1889.0,2333.9 1856.0,2276.0 1823.0,2221.8 1790.0,2171.2 1757.3,2123.6 1724.7,2078.9 1692.4,2036.7 1660.5,1996.9 1628.9,1959.0 1597.7,1923.0 1566.8,1888.5 1536.3,1855.4 1506.1,1823.3 1476.2,1792.3 1446.6,1762.0 1417.2,1732.3 1387.8,1703.1 1358.5,1674.2 1329.1,1645.4 1299.6,1616.8 1269.7,1588.1 1239.3,1559.4 1208.3,1530.5 1176.6,1501.3 1143.9,1471.9 1110.1,1442.2 1074.9,1412.1 1038.1,1381.7 999.6,1351.0 959.0,1320.0 916.1,1288.7 870.6,1257.2 822.3,1225.5 770.9,1193.7 716.0,1162.0 657.4,1130.3 594.7,1098.9 527.5,1067.7  A 1064.250,1064.250 0.00 0,0 526.5,1070.0 L 526.5,1070.0 593.7,1101.0 656.5,1132.3 715.2,1163.8 770.2,1195.5 821.7,1227.1 870.1,1258.7 915.6,1290.1 958.5,1321.2 999.2,1352.2 1037.8,1382.8 1074.7,1413.1 1109.9,1443.1 1143.8,1472.7 1176.6,1502.1 1208.4,1531.2 1239.5,1560.0 1269.9,1588.7 1299.8,1617.3 1329.5,1645.8 1358.9,1674.5 1388.3,1703.3 1417.7,1732.5 1447.2,1762.1 1476.9,1792.3 1506.9,1823.3 1537.1,1855.3 1567.7,1888.3 1598.7,1922.8 1630.0,1958.7 1661.7,1996.5 1693.7,2036.3 1726.1,2078.4 1758.7,2123.0 1791.6,2170.5 1824.7,2221.1 1857.8,2275.1 1890.9,2332.9 1924.0,2394.9 1956.8,2461.2  Z" style="stroke-width: 2.0;  stroke: rgb(82,82,82); fill: rgb(255,0,204); opacity: 0.667;" />
<path d="M 561.281,998.567 A 1064.250,1064.250 0.00 0,1 562.6,996.0 L 562.6,996.0 627.9,1030.1 689.8,1060.4 748.6,1087.2 804.4,1110.8 857.4,1131.3 907.9,1149.1 955.9,1164.3 1001.7,1177.0 1045.5,1187.5 1087.3,1195.9 1127.5,1202.4 1166.0,1207.0 1203.1,1209.8 1239.0,1210.9 1273.8,1210.5 1307.5,1208.5 1340.4,1204.9 1372.7,1199.9 1404.3,1193.4 1435.5,1185.3 1466.3,1175.8 1496.9,1164.6 1527.5,1151.7 1558.0,1137.2 1588.6,1120.8 1619.5,1102.4 1650.6,1082.0 1682.1,1059.3 1714.1,1034.3 1746.7,1006.7 1779.9,976.3 1813.8,943.0 1848.6,906.5 1884.1,866.6 1920.6,822.9 1958.0,775.3 1996.5,723.4 2036.0,666.9 2076.7,605.5  A 1064.250,1064.250 0.00 0,0 2074.2,604.0 L 2074.2,604.0 2033.8,665.5 1994.4,722.0 1956.1,774.0 1918.7,821.8 1882.4,865.5 1846.9,905.6 1812.3,942.2 1778.5,975.6 1745.4,1006.0 1712.9,1033.7 1680.9,1058.8 1649.5,1081.6 1618.4,1102.1 1587.6,1120.5 1557.0,1137.0 1526.5,1151.7 1496.0,1164.6 1465.4,1175.8 1434.6,1185.5 1403.5,1193.6 1371.8,1200.3 1339.6,1205.4 1306.7,1209.0 1273.0,1211.1 1238.2,1211.6 1202.4,1210.6 1165.2,1207.9 1126.6,1203.4 1086.5,1197.1 1044.6,1188.8 1000.9,1178.4 955.0,1165.8 906.9,1150.7 856.4,1133.1 803.3,1112.7 747.5,1089.2 688.6,1062.6 626.6,1032.4 561.3,998.6  Z" style="stroke-width: 2.0;  stroke: rgb(82,82,82); fill: rgb(255,204,204); opacity: 0.667;" />
<path d="M 563.254,994.890 A 1064.250,1064.250 0.00 0,1 564.5,992.5 L 564.5,992.5 629.7,1026.8 691.5,1057.4 750.1,1084.4 805.8,1108.2 858.7,1129.0 909.0,1146.9 957.0,1162.3 1002.7,1175.2 1046.3,1185.8 1088.1,1194.4 1128.1,1200.9 1166.6,1205.6 1203.6,1208.6 1239.4,1209.8 1274.0,1209.4 1307.7,1207.5 1340.5,1204.0 1372.6,1199.1 1404.1,1192.6 1435.2,1184.6 1465.9,1175.0 1496.4,1163.8 1526.8,1151.0 1557.2,1136.4 1587.7,1119.9 1618.4,1101.5 1649.4,1081.1 1680.8,1058.4 1712.6,1033.2 1745.1,1005.6 1778.1,975.1 1811.8,941.7 1846.4,905.1 1881.7,865.0 1918.0,821.2 1955.2,773.5 1993.5,721.4 2032.8,664.8 2073.2,603.3  A 1064.250,1064.250 0.00 0,0 2070.9,601.8 L 2070.9,601.8 2030.6,663.5 1991.5,720.2 1953.4,772.3 1916.3,820.2 1880.1,864.1 1844.9,904.2 1810.4,940.9 1776.8,974.4 1743.8,1005.0 1711.5,1032.7 1679.7,1057.9 1648.4,1080.7 1617.4,1101.2 1586.8,1119.7 1556.3,1136.2 1525.9,1150.9 1495.6,1163.8 1465.1,1175.1 1434.4,1184.7 1403.3,1192.8 1371.8,1199.4 1339.7,1204.4 1306.9,1208.0 1273.3,1210.0 1238.6,1210.5 1202.8,1209.3 1165.8,1206.5 1127.3,1201.9 1087.3,1195.4 1045.5,1187.0 1001.9,1176.4 956.1,1163.6 908.2,1148.4 857.8,1130.6 804.8,1110.0 749.1,1086.3 690.3,1059.4 628.5,1029.0 563.3,994.9  Z" style="stroke-width: 2.0;  stroke: rgb(82,82,82); fill: rgb(255,153,0); opacity: 0.667;" />
<path d="M 1011.631,554.419 A 1064.250,1064.250 0.00 0,1 1015.6,552.4 L 1015.6,552.4 1048.3,618.8 1077.3,682.8 1103.0,744.4 1125.7,803.7 1145.8,860.8 1163.5,916.0 1179.1,969.2 1192.9,1020.7 1205.2,1070.5 1216.0,1118.8 1225.7,1165.8 1234.4,1211.4 1242.4,1256.0 1249.6,1299.7 1256.4,1342.5 1262.7,1384.6 1268.7,1426.2 1274.5,1467.5 1280.1,1508.5 1285.6,1549.5 1290.9,1590.5 1296.2,1631.8 1301.3,1673.6 1306.2,1715.9 1310.9,1759.0 1315.3,1803.0 1319.4,1848.1 1322.9,1894.5 1325.9,1942.3 1328.1,1991.8 1329.4,2043.1 1329.5,2096.3 1328.4,2151.8 1325.8,2209.7 1321.4,2270.1 1315.0,2333.3 1306.4,2399.5 1295.1,2468.8 1281.0,2541.5  A 1064.250,1064.250 0.00 0,0 1285.4,2542.4 L 1285.4,2542.4 1299.2,2469.6 1310.1,2400.3 1318.5,2334.1 1324.7,2270.8 1328.8,2210.4 1331.2,2152.5 1332.1,2097.0 1331.6,2043.8 1330.2,1992.5 1327.8,1943.0 1324.6,1895.2 1320.8,1848.8 1316.6,1803.8 1312.0,1759.8 1307.1,1716.7 1302.0,1674.4 1296.7,1632.7 1291.3,1591.4 1285.8,1550.4 1280.2,1509.4 1274.4,1468.4 1268.4,1427.2 1262.2,1385.6 1255.7,1343.5 1248.8,1300.7 1241.3,1257.1 1233.2,1212.6 1224.3,1166.9 1214.4,1120.0 1203.4,1071.8 1190.9,1022.0 1176.9,970.6 1161.1,917.4 1143.1,862.3 1122.8,805.3 1099.8,746.0 1073.9,684.6 1044.6,620.7 1011.6,554.4  Z" style="stroke-width: 2.0;  stroke: rgb(82,82,82); fill: rgb(255,204,0); opacity: 0.667;" />
<path d="M 2261.014,2243.966 A 1064.250,1064.250 0.00 0,1 2258.9,2246.2 L 2258.9,2246.2 2205.0,2194.9 2152.1,2147.6 2100.1,2103.8 2049.2,2063.3 1999.4,2025.5 1950.7,1990.3 1903.2,1957.2 1856.9,1926.0 1811.8,1896.4 1768.0,1868.2 1725.4,1840.9 1683.9,1814.5 1643.6,1788.7 1604.4,1763.3 1566.2,1738.0 1529.0,1712.7 1492.6,1687.3 1457.0,1661.5 1422.1,1635.3 1387.8,1608.6 1353.9,1581.2 1320.2,1553.0 1286.7,1523.9 1253.1,1494.0 1219.2,1463.2 1185.0,1431.4 1150.1,1398.6 1114.3,1364.8 1077.5,1330.1 1039.4,1294.5 999.6,1258.1 958.1,1220.8 914.4,1182.9 868.3,1144.3 819.6,1105.2 767.8,1065.7 712.6,1026.0 653.8,986.3 591.0,946.6  A 1064.250,1064.250 0.00 0,0 589.4,949.2 L 589.4,949.2 652.3,988.7 711.3,1028.3 766.5,1067.8 818.4,1107.2 867.3,1146.1 913.5,1184.5 957.3,1222.4 998.9,1259.5 1038.8,1295.9 1077.0,1331.4 1113.9,1365.9 1149.8,1399.6 1184.8,1432.3 1219.1,1464.0 1253.0,1494.7 1286.7,1524.5 1320.4,1553.5 1354.1,1581.6 1388.1,1608.9 1422.5,1635.6 1457.5,1661.7 1493.1,1687.3 1529.6,1712.6 1566.9,1737.8 1605.1,1762.9 1644.4,1788.3 1684.8,1814.0 1726.3,1840.3 1769.1,1867.4 1813.0,1895.5 1858.1,1925.0 1904.5,1956.1 1952.1,1989.0 2000.9,2024.1 2050.8,2061.7 2101.9,2102.1 2154.0,2145.7 2207.0,2192.9 2261.0,2244.0  Z" style="stroke-width: 2.0;  stroke: rgb(82,82,82); fill: rgb(255,255,0); opacity: 0.667;" />
<path d="M 1153.264,493.818 A 1064.250,1064.250 0.00 0,1 1168.1,488.8 L 1168.1,488.8 1190.1,559.5 1208.9,627.1 1224.7,691.8 1238.0,753.8 1248.9,813.3 1257.9,870.3 1265.0,925.1 1270.5,977.9 1274.7,1028.8 1277.8,1078.0 1279.9,1125.6 1281.2,1171.9 1281.8,1216.9 1281.9,1260.9 1281.6,1303.9 1280.9,1346.3 1279.9,1388.1 1278.6,1429.4 1277.2,1470.6 1275.6,1511.6 1273.7,1552.7 1271.7,1594.1 1269.3,1635.8 1266.7,1678.0 1263.6,1721.0 1260.0,1764.8 1255.8,1809.7 1250.8,1855.7 1244.9,1903.0 1237.9,1951.8 1229.7,2002.2 1219.9,2054.3 1208.5,2108.4 1195.1,2164.6 1179.4,2222.9 1161.3,2283.7 1140.3,2346.9 1116.2,2412.8 1088.7,2481.6  A 1064.250,1064.250 0.00 0,0 1103.2,2487.5 L 1103.2,2487.5 1129.7,2418.4 1152.8,2352.1 1172.9,2288.6 1190.1,2227.6 1204.9,2169.0 1217.5,2112.6 1228.2,2058.4 1237.1,2006.1 1244.6,1955.6 1250.9,1906.7 1256.1,1859.3 1260.4,1813.2 1263.9,1768.4 1266.9,1724.5 1269.3,1681.5 1271.4,1639.2 1273.1,1597.4 1274.5,1556.0 1275.8,1514.9 1276.8,1473.9 1277.6,1432.7 1278.3,1391.3 1278.6,1349.5 1278.7,1307.2 1278.4,1264.1 1277.7,1220.1 1276.4,1175.1 1274.4,1128.9 1271.6,1081.3 1267.8,1032.2 1262.9,981.4 1256.5,928.7 1248.6,874.0 1238.9,817.0 1227.0,757.8 1212.9,696.0 1196.1,631.5 1176.3,564.2 1153.3,493.8  Z" style="stroke-width: 2.0;  stroke: rgb(82,82,82); fill: rgb(204,255,0); opacity: 0.667;" />
<path d="M 1441.090,437.382 A 1064.250,1064.250 0.00 0,1 1444.3,437.2 L 1444.3,437.2 1447.0,511.2 1447.4,581.4 1445.8,648.0 1442.4,711.4 1437.4,771.6 1431.1,829.1 1423.6,883.9 1415.1,936.4 1405.9,986.7 1396.0,1035.0 1385.7,1081.6 1374.9,1126.7 1363.7,1170.4 1352.4,1213.0 1340.9,1254.5 1329.2,1295.3 1317.4,1335.5 1305.6,1375.2 1293.6,1414.7 1281.4,1454.0 1269.1,1493.3 1256.5,1532.8 1243.5,1572.7 1230.1,1612.9 1216.2,1653.8 1201.6,1695.3 1186.1,1737.7 1169.6,1781.0 1151.9,1825.3 1132.8,1870.8 1112.0,1917.5 1089.4,1965.6 1064.6,2015.1 1037.4,2066.1 1007.6,2118.7 974.7,2172.9 938.4,2228.9 898.5,2286.6 854.5,2346.2  A 1064.250,1064.250 0.00 0,0 857.1,2348.1 L 857.1,2348.1 900.9,2288.4 940.6,2230.6 976.7,2174.5 1009.4,2120.2 1039.2,2067.5 1066.2,2016.4 1090.8,1966.9 1113.3,1918.7 1133.9,1871.9 1152.9,1826.4 1170.4,1782.0 1186.8,1738.6 1202.2,1696.2 1216.7,1654.6 1230.5,1613.7 1243.8,1573.4 1256.6,1533.6 1269.1,1494.0 1281.3,1454.7 1293.3,1415.3 1305.2,1375.8 1316.9,1336.1 1328.6,1295.9 1340.1,1255.0 1351.5,1213.4 1362.7,1170.8 1373.7,1127.1 1384.4,1082.0 1394.6,1035.3 1404.4,987.0 1413.4,936.6 1421.7,884.1 1429.0,829.3 1435.2,771.8 1440.0,711.5 1443.2,648.2 1444.7,581.5 1444.0,511.4 1441.1,437.4  Z" style="stroke-width: 2.0;  stroke: rgb(82,82,82); fill: rgb(0,255,0); opacity: 0.667;" />
<path d="M 1221.977,472.707 A 1064.250,1064.250 0.00 0,1 1239.2,468.2 L 1239.2,468.2 1256.2,540.2 1270.3,609.0 1281.6,674.7 1290.5,737.4 1297.3,797.5 1302.2,855.0 1305.5,910.2 1307.4,963.2 1308.0,1014.3 1307.7,1063.6 1306.5,1111.3 1304.6,1157.5 1302.1,1202.4 1299.1,1246.3 1295.8,1289.3 1292.1,1331.5 1288.2,1373.1 1284.1,1414.3 1279.8,1455.2 1275.4,1496.0 1270.7,1536.9 1265.8,1578.0 1260.5,1619.5 1255.0,1661.5 1248.9,1704.1 1242.3,1747.6 1235.0,1792.0 1226.9,1837.6 1217.7,1884.4 1207.4,1932.6 1195.7,1982.3 1182.3,2033.6 1167.2,2086.8 1149.9,2141.9 1130.3,2199.1 1108.0,2258.4 1082.7,2320.1 1054.1,2384.1 1021.9,2450.8  A 1064.250,1064.250 0.00 0,0 1037.8,2458.7 L 1037.8,2458.7 1069.0,2391.5 1096.5,2326.9 1120.7,2264.9 1142.0,2205.2 1160.7,2147.7 1177.0,2092.3 1191.3,2038.9 1203.8,1987.3 1214.7,1937.4 1224.2,1889.1 1232.5,1842.1 1239.9,1796.4 1246.5,1751.9 1252.4,1708.3 1257.7,1665.6 1262.6,1623.5 1267.1,1581.9 1271.3,1540.8 1275.3,1499.8 1279.1,1458.9 1282.7,1417.9 1286.1,1376.6 1289.3,1335.0 1292.3,1292.7 1294.9,1249.7 1297.1,1205.8 1298.9,1160.8 1300.0,1114.5 1300.4,1066.9 1299.9,1017.6 1298.4,966.5 1295.6,913.5 1291.4,858.4 1285.6,801.0 1277.8,741.0 1267.8,678.4 1255.4,613.0 1240.2,544.5 1222.0,472.7  Z" style="stroke-width: 2.0;  stroke: rgb(82,82,82); fill: rgb(53,128,0); opacity: 0.667;" />
<path d="M 2562.144,1566.927 A 1064.250,1064.250 0.00 0,1 2561.6,1575.0 L 2561.6,1575.0 2487.3,1570.9 2416.0,1569.3 2347.7,1569.7 2282.1,1571.8 2219.1,1575.2 2158.4,1579.7 2100.1,1584.9 2043.9,1590.7 1989.6,1596.8 1937.0,1602.8 1886.1,1608.8 1836.7,1614.3 1788.5,1619.4 1741.5,1623.8 1695.4,1627.4 1650.1,1630.1 1605.5,1631.8 1561.3,1632.5 1517.4,1632.2 1473.6,1630.7 1429.8,1628.0 1385.7,1624.3 1341.3,1619.5 1296.3,1613.7 1250.6,1607.0 1204.0,1599.4 1156.3,1591.1 1107.3,1582.1 1057.0,1572.7 1005.0,1563.1 951.2,1553.4 895.5,1543.8 837.6,1534.5 777.5,1525.9 714.8,1518.2 649.5,1511.6 581.4,1506.6 510.2,1503.3 435.8,1502.3  A 1064.250,1064.250 0.00 0,0 435.8,1510.3 L 435.8,1510.3 510.2,1510.8 581.4,1513.4 649.6,1518.0 715.0,1524.1 777.7,1531.3 837.9,1539.5 895.8,1548.3 951.6,1557.5 1005.5,1566.8 1057.5,1576.1 1108.0,1585.1 1157.0,1593.6 1204.7,1601.6 1251.4,1608.8 1297.2,1615.3 1342.2,1620.7 1386.7,1625.2 1430.8,1628.6 1474.6,1630.8 1518.4,1632.0 1562.3,1632.1 1606.5,1631.0 1651.1,1628.9 1696.4,1625.9 1742.4,1621.9 1789.4,1617.2 1837.5,1611.8 1887.0,1605.8 1937.8,1599.5 1990.3,1593.1 2044.5,1586.6 2100.7,1580.4 2159.0,1574.7 2219.6,1569.7 2282.6,1565.8 2348.2,1563.3 2416.5,1562.4 2487.8,1563.5 2562.1,1566.9  Z" style="stroke-width: 2.0;  stroke: rgb(82,82,82); fill: rgb(0,0,204); opacity: 0.667;" />
<path d="M 961.719,2418.086 A 1064.250,1064.250 0.00 0,1 938.0,2403.7 L 938.0,2403.7 976.1,2340.3 1010.3,2279.0 1041.1,2219.9 1068.7,2162.7 1093.4,2107.6 1115.6,2054.2 1135.5,2002.6 1153.5,1952.6 1169.7,1904.1 1184.4,1857.0 1197.8,1811.2 1210.1,1766.5 1221.4,1722.9 1232.0,1680.1 1242.0,1638.2 1251.5,1596.8 1260.6,1556.0 1269.3,1515.4 1277.8,1475.1 1286.2,1434.8 1294.3,1394.4 1302.3,1353.7 1310.2,1312.6 1317.9,1270.9 1325.4,1228.4 1332.6,1185.0 1339.4,1140.4 1345.8,1094.5 1351.7,1047.1 1356.9,998.1 1361.2,947.1 1364.5,894.1 1366.7,838.8 1367.4,781.0 1366.6,720.6 1363.9,657.2 1359.1,590.7 1351.9,520.9 1342.1,447.5  A 1064.250,1064.250 0.00 0,0 1311.8,452.5 L 1311.8,452.5 1323.8,525.6 1333.0,595.2 1339.7,661.5 1344.2,724.7 1346.8,785.1 1347.7,842.9 1347.1,898.2 1345.3,951.3 1342.4,1002.3 1338.7,1051.5 1334.2,1099.0 1329.1,1145.0 1323.5,1189.7 1317.5,1233.4 1311.2,1276.0 1304.7,1317.9 1298.0,1359.2 1291.1,1400.1 1284.1,1440.7 1276.9,1481.1 1269.5,1521.7 1261.8,1562.4 1253.9,1603.5 1245.5,1645.0 1236.7,1687.2 1227.2,1730.2 1217.0,1774.1 1205.9,1819.1 1193.7,1865.2 1180.3,1912.7 1165.4,1961.6 1148.7,2012.0 1130.2,2064.1 1109.4,2118.0 1086.1,2173.8 1060.0,2231.6 1030.8,2291.5 998.2,2353.6 961.7,2418.1  Z" style="stroke-width: 2.0;  stroke: rgb(82,82,82); fill: rgb(102,153,255); opacity: 0.667;" />
<path d="M 1573.733,438.307 A 1064.250,1064.250 0.00 0,1 1577.0,438.5 L 1577.0,438.5 1570.5,512.3 1562.2,581.9 1552.3,647.8 1541.0,710.1 1528.6,769.2 1515.2,825.3 1500.9,878.6 1486.0,929.5 1470.6,978.1 1454.7,1024.6 1438.6,1069.4 1422.1,1112.5 1405.6,1154.3 1388.9,1194.8 1372.1,1234.4 1355.2,1273.1 1338.3,1311.2 1321.3,1348.8 1304.1,1386.1 1286.8,1423.3 1269.3,1460.4 1251.4,1497.6 1233.2,1535.1 1214.3,1572.9 1194.8,1611.2 1174.5,1650.1 1153.2,1689.6 1130.7,1730.0 1106.9,1771.1 1081.4,1813.2 1054.2,1856.3 1024.8,1900.4 993.2,1945.6 958.9,1992.0 921.6,2039.5 881.1,2088.2 837.1,2138.2 789.1,2189.3 736.8,2241.7  A 1064.250,1064.250 0.00 0,0 739.1,2244.1 L 739.1,2244.1 791.2,2191.5 839.0,2140.2 882.9,2090.1 923.3,2041.3 960.3,1993.6 994.5,1947.2 1026.1,1901.9 1055.3,1857.6 1082.4,1814.5 1107.7,1772.3 1131.4,1731.1 1153.8,1690.7 1175.0,1651.1 1195.2,1612.1 1214.5,1573.8 1233.3,1535.9 1251.4,1498.4 1269.2,1461.1 1286.6,1423.9 1303.8,1386.7 1320.8,1349.4 1337.7,1311.7 1354.5,1273.6 1371.2,1234.8 1387.9,1195.2 1404.5,1154.5 1420.9,1112.7 1437.2,1069.5 1453.3,1024.8 1469.0,978.2 1484.3,929.5 1499.0,878.6 1513.1,825.2 1526.3,769.1 1538.6,710.0 1549.7,647.6 1559.4,581.7 1567.5,512.1 1573.7,438.3  Z" style="stroke-width: 2.0;  stroke: rgb(82,82,82); fill: rgb(153,204,255); opacity: 0.667;" />
</g>
<defs>
<pattern id="hline-sparse" width="10" height="10" patternTransform="rotate(0 0 0)" patternUnits="userSpaceOnUse"><line x1="0" y1="0" x2="10" y2="0" style="stroke:black;stroke-width:2" /></pattern>
<pattern id="checker" width="10" height="10" patternTransform="rotate(45 0 0)" patternUnits="userSpaceOnUse"><line x1="0" y1="0" x2="10" y2="0" style="stroke:black;stroke-width:2" /><line x1="0" y1="0" x2="0" y2="10" style="stroke:black;stroke-width:2" /></pattern>
<pattern id="checker" width="10" height="10" patternTransform="rotate(45 0 0)" patternUnits="userSpaceOnUse"><line x1="0" y1="0" x2="10" y2="0" style="stroke:black;stroke-width:5" /><line x1="0" y1="0" x2="0" y2="10" style="stroke:black;stroke-width:4" /></pattern>
<pattern id="hline" width="10" height="10" patternTransform="rotate(0 0 0)" patternUnits="userSpaceOnUse"><line x1="0" y1="0" x2="10" y2="0" style="stroke:black;stroke-width:5" /></pattern>
<pattern id="vline-sparse" width="10" height="10" patternTransform="rotate(0 0 0)" patternUnits="userSpaceOnUse"><line x1="0" y1="0" x2="0" y2="10" style="stroke:black;stroke-width:2" /></pattern>
<pattern id="vline" width="10" height="10" patternTransform="rotate(0 0 0)" patternUnits="userSpaceOnUse"><line x1="0" y1="0" x2="0" y2="10" style="stroke:black;stroke-width:5" /></pattern>
</defs>
</svg>
