<?xml version="1.0" encoding="utf-8" standalone="no"?>
<!DOCTYPE svg PUBLIC "-//W3C//DTD SVG 1.1//EN" "http://www.w3.org/Graphics/SVG/1.1/DTD/svg11.dtd">
<svg width="3000px" height="3000px" version="1.1" xmlns="http://www.w3.org/2000/svg" xmlns:xlink="http://www.w3.org/1999/xlink">
<g id="ideograms">
<path d="M1500.000,425.000 A1075.000,1075.000 40.000 0,1 1566.695,427.071 L1569.797,377.167 A1125.000,1125.000 0.000 0,0 1500.000,375.000 Z" style="stroke-linecap:round;fill:rgb(116,196,118);fill-opacity:0.33;" />
<text x="1547.2" y="285.9" font-size="18.2px" font-family="CMUBright-Roman" style="text-anchor:start;fill:rgb(0,0,0);" transform="rotate(271.8,1547.2,285.9)" >R<tspan baseline-shift="-40%" font-size="90%">s</tspan>caffold<tspan baseline-shift="-40%" font-size="90%">3</tspan>0</text>
<line x1='1500.0' y1='375.0' x2='1500.0' y2='355.0' style="stroke-width:4.0;stroke:rgb(0,0,0);stroke-linecap:round;fill:none;" />
<text x="1506.5" y="345.0" font-size="18.2px" font-family="CMUBright-Roman" style="text-anchor:start;fill:rgb(0,0,0);" transform="rotate(270.0,1506.5,345.0)" >0</text>
<g id="highlighttrack_0">
<path d="M1552.974,426.306 A1075.000,1075.000 40.000 0,1 1556.066,426.463 L1558.674,376.531 A1125.000,1125.000 0.000 0,0 1555.437,376.367 Z" style="stroke-width:4.0;stroke:rgb(0,0,0);stroke-linecap:round;fill:rgb(116,196,118);" />
<path d="M1516.637,425.129 A1075.000,1075.000 40.000 0,1 1535.684,425.592 L1537.344,375.620 A1125.000,1125.000 0.000 0,0 1517.411,375.135 Z" style="stroke-width:4.0;stroke:rgb(0,0,0);stroke-linecap:round;fill:rgb(251,106,74);" />
</g>
<path d="M1631.981,433.133 A1075.000,1075.000 40.000 0,1 1636.357,433.683 L1642.699,384.087 A1125.000,1125.000 0.000 0,0 1638.119,383.511 Z" style="stroke-linecap:round;fill:rgb(116,196,118);fill-opacity:0.33;" />
<text x="1661.1" y="295.7" font-size="18.2px" font-family="CMUBright-Roman" style="text-anchor:start;fill:rgb(0,0,0);" transform="rotate(277.2,1661.1,295.7)" >R<tspan baseline-shift="-40%" font-size="90%">s</tspan>caffold<tspan baseline-shift="-40%" font-size="90%">3</tspan>7</text>
<line x1='1638.1' y1='383.5' x2='1640.6' y2='363.7' style="stroke-width:4.0;stroke:rgb(0,0,0);stroke-linecap:round;fill:none;" />
<text x="1648.3" y="354.6" font-size="18.2px" font-family="CMUBright-Roman" style="text-anchor:start;fill:rgb(0,0,0);" transform="rotate(277.1,1648.3,354.6)" >0</text>
<g id="highlighttrack_0">
<path d="M1632.254,433.166 A1075.000,1075.000 40.000 0,1 1636.357,433.683 L1642.699,384.087 A1125.000,1125.000 0.000 0,0 1638.405,383.546 Z" style="stroke-width:4.0;stroke:rgb(0,0,0);stroke-linecap:round;fill:rgb(251,106,74);" />
</g>
<path d="M1701.110,443.979 A1075.000,1075.000 40.000 1,1 1434.464,427.000 L1431.416,377.093 A1125.000,1125.000 0.000 1,0 1710.464,394.862 Z" style="stroke-linecap:round;fill:rgb(116,196,118);fill-opacity:0.33;" />
<text x="1432.3" y="2713.1" font-size="18.2px" font-family="CMUBright-Roman" style="text-anchor:end;fill:rgb(0,0,0);" transform="rotate(-86.4,1432.3,2713.1)" >NC<tspan baseline-shift="-40%" font-size="90%">0</tspan>07954.1</text>
<line x1='1710.5' y1='394.9' x2='1714.2' y2='375.2' style="stroke-width:4.0;stroke:rgb(0,0,0);stroke-linecap:round;fill:none;" />
<text x="1722.5" y="366.6" font-size="18.2px" font-family="CMUBright-Roman" style="text-anchor:start;fill:rgb(0,0,0);" transform="rotate(280.8,1722.5,366.6)" >0</text>
<line x1='1783.3' y1='411.3' x2='1788.3' y2='391.9' style="stroke-width:4.0;stroke:rgb(0,0,0);stroke-linecap:round;fill:none;" />
<text x="1797.1" y="383.9" font-size="18.2px" font-family="CMUBright-Roman" style="text-anchor:start;fill:rgb(0,0,0);" transform="rotate(284.6,1797.1,383.9)" >50</text>
<line x1='1854.9' y1='432.4' x2='1861.2' y2='413.5' style="stroke-width:4.0;stroke:rgb(0,0,0);stroke-linecap:round;fill:none;" />
<text x="1870.5" y="406.0" font-size="18.2px" font-family="CMUBright-Roman" style="text-anchor:start;fill:rgb(0,0,0);" transform="rotate(288.4,1870.5,406.0)" >100</text>
<line x1='1924.9' y1='458.3' x2='1932.4' y2='439.8' style="stroke-width:4.0;stroke:rgb(0,0,0);stroke-linecap:round;fill:none;" />
<text x="1942.2" y="433.0" font-size="18.2px" font-family="CMUBright-Roman" style="text-anchor:start;fill:rgb(0,0,0);" transform="rotate(292.2,1942.2,433.0)" >150</text>
<line x1='1993.0' y1='488.8' x2='2001.8' y2='470.8' style="stroke-width:4.0;stroke:rgb(0,0,0);stroke-linecap:round;fill:none;" />
<text x="2012.0" y="464.7" font-size="18.2px" font-family="CMUBright-Roman" style="text-anchor:start;fill:rgb(0,0,0);" transform="rotate(296.0,2012.0,464.7)" >200</text>
<line x1='2059.0' y1='523.7' x2='2069.0' y2='506.4' style="stroke-width:4.0;stroke:rgb(0,0,0);stroke-linecap:round;fill:none;" />
<text x="2079.6" y="500.9" font-size="18.2px" font-family="CMUBright-Roman" style="text-anchor:start;fill:rgb(0,0,0);" transform="rotate(299.8,2079.6,500.9)" >250</text>
<line x1='2122.5' y1='562.9' x2='2133.6' y2='546.3' style="stroke-width:4.0;stroke:rgb(0,0,0);stroke-linecap:round;fill:none;" />
<text x="2144.5" y="541.6" font-size="18.2px" font-family="CMUBright-Roman" style="text-anchor:start;fill:rgb(0,0,0);" transform="rotate(303.6,2144.5,541.6)" >300</text>
<line x1='2183.3' y1='606.3' x2='2195.5' y2='590.4' style="stroke-width:4.0;stroke:rgb(0,0,0);stroke-linecap:round;fill:none;" />
<text x="2206.7" y="586.4" font-size="18.2px" font-family="CMUBright-Roman" style="text-anchor:start;fill:rgb(0,0,0);" transform="rotate(307.4,2206.7,586.4)" >350</text>
<line x1='2241.1' y1='653.6' x2='2254.2' y2='638.5' style="stroke-width:4.0;stroke:rgb(0,0,0);stroke-linecap:round;fill:none;" />
<text x="2265.7" y="635.3" font-size="18.2px" font-family="CMUBright-Roman" style="text-anchor:start;fill:rgb(0,0,0);" transform="rotate(311.2,2265.7,635.3)" >400</text>
<line x1='2295.6' y1='704.6' x2='2309.7' y2='690.4' style="stroke-width:4.0;stroke:rgb(0,0,0);stroke-linecap:round;fill:none;" />
<text x="2321.4" y="688.0" font-size="18.2px" font-family="CMUBright-Roman" style="text-anchor:start;fill:rgb(0,0,0);" transform="rotate(315.0,2321.4,688.0)" >450</text>
<line x1='2346.6' y1='759.1' x2='2361.6' y2='745.9' style="stroke-width:4.0;stroke:rgb(0,0,0);stroke-linecap:round;fill:none;" />
<text x="2373.4" y="744.2" font-size="18.2px" font-family="CMUBright-Roman" style="text-anchor:start;fill:rgb(0,0,0);" transform="rotate(318.8,2373.4,744.2)" >500</text>
<line x1='2393.8' y1='816.9' x2='2409.7' y2='804.7' style="stroke-width:4.0;stroke:rgb(0,0,0);stroke-linecap:round;fill:none;" />
<text x="2421.6" y="803.8" font-size="18.2px" font-family="CMUBright-Roman" style="text-anchor:start;fill:rgb(0,0,0);" transform="rotate(322.6,2421.6,803.8)" >550</text>
<line x1='2437.2' y1='877.7' x2='2453.8' y2='866.6' style="stroke-width:4.0;stroke:rgb(0,0,0);stroke-linecap:round;fill:none;" />
<text x="2465.8" y="866.5" font-size="18.2px" font-family="CMUBright-Roman" style="text-anchor:start;fill:rgb(0,0,0);" transform="rotate(326.4,2465.8,866.5)" >600</text>
<line x1='2476.4' y1='941.2' x2='2493.7' y2='931.2' style="stroke-width:4.0;stroke:rgb(0,0,0);stroke-linecap:round;fill:none;" />
<text x="2505.6" y="931.9" font-size="18.2px" font-family="CMUBright-Roman" style="text-anchor:start;fill:rgb(0,0,0);" transform="rotate(330.2,2505.6,931.9)" >650</text>
<line x1='2511.3' y1='1007.2' x2='2529.3' y2='998.4' style="stroke-width:4.0;stroke:rgb(0,0,0);stroke-linecap:round;fill:none;" />
<text x="2541.1" y="999.9" font-size="18.2px" font-family="CMUBright-Roman" style="text-anchor:start;fill:rgb(0,0,0);" transform="rotate(334.0,2541.1,999.9)" >700</text>
<line x1='2541.8' y1='1075.3' x2='2560.3' y2='1067.8' style="stroke-width:4.0;stroke:rgb(0,0,0);stroke-linecap:round;fill:none;" />
<text x="2572.0" y="1070.0" font-size="18.2px" font-family="CMUBright-Roman" style="text-anchor:start;fill:rgb(0,0,0);" transform="rotate(337.8,2572.0,1070.0)" >750</text>
<line x1='2567.6' y1='1145.3' x2='2586.6' y2='1139.0' style="stroke-width:4.0;stroke:rgb(0,0,0);stroke-linecap:round;fill:none;" />
<text x="2598.1" y="1142.0" font-size="18.2px" font-family="CMUBright-Roman" style="text-anchor:start;fill:rgb(0,0,0);" transform="rotate(341.6,2598.1,1142.0)" >800</text>
<line x1='2588.8' y1='1216.9' x2='2608.2' y2='1211.9' style="stroke-width:4.0;stroke:rgb(0,0,0);stroke-linecap:round;fill:none;" />
<text x="2619.5" y="1215.7" font-size="18.2px" font-family="CMUBright-Roman" style="text-anchor:start;fill:rgb(0,0,0);" transform="rotate(345.4,2619.5,1215.7)" >850</text>
<line x1='2605.2' y1='1289.7' x2='2624.8' y2='1286.0' style="stroke-width:4.0;stroke:rgb(0,0,0);stroke-linecap:round;fill:none;" />
<text x="2635.8" y="1290.5" font-size="18.2px" font-family="CMUBright-Roman" style="text-anchor:start;fill:rgb(0,0,0);" transform="rotate(349.2,2635.8,1290.5)" >900</text>
<line x1='2616.7' y1='1363.5' x2='2636.5' y2='1361.1' style="stroke-width:4.0;stroke:rgb(0,0,0);stroke-linecap:round;fill:none;" />
<text x="2647.2" y="1366.3" font-size="18.2px" font-family="CMUBright-Roman" style="text-anchor:start;fill:rgb(0,0,0);" transform="rotate(353.0,2647.2,1366.3)" >950</text>
<line x1='2623.3' y1='1437.9' x2='2643.3' y2='1436.8' style="stroke-width:4.0;stroke:rgb(0,0,0);stroke-linecap:round;fill:none;" />
<text x="2653.6" y="1442.7" font-size="18.2px" font-family="CMUBright-Roman" style="text-anchor:start;fill:rgb(0,0,0);" transform="rotate(356.8,2653.6,1442.7)" >1000</text>
<line x1='2624.9' y1='1512.5' x2='2644.9' y2='1512.7' style="stroke-width:4.0;stroke:rgb(0,0,0);stroke-linecap:round;fill:none;" />
<text x="2654.8" y="1519.3" font-size="18.2px" font-family="CMUBright-Roman" style="text-anchor:start;fill:rgb(0,0,0);" transform="rotate(0.6,2654.8,1519.3)" >1050</text>
<line x1='2621.6' y1='1587.1' x2='2641.6' y2='1588.6' style="stroke-width:4.0;stroke:rgb(0,0,0);stroke-linecap:round;fill:none;" />
<text x="2651.0" y="1595.9" font-size="18.2px" font-family="CMUBright-Roman" style="text-anchor:start;fill:rgb(0,0,0);" transform="rotate(4.4,2651.0,1595.9)" >1100</text>
<line x1='2613.4' y1='1661.3' x2='2633.2' y2='1664.1' style="stroke-width:4.0;stroke:rgb(0,0,0);stroke-linecap:round;fill:none;" />
<text x="2642.1" y="1672.0" font-size="18.2px" font-family="CMUBright-Roman" style="text-anchor:start;fill:rgb(0,0,0);" transform="rotate(8.2,2642.1,1672.0)" >1150</text>
<line x1='2600.2' y1='1734.7' x2='2619.8' y2='1738.9' style="stroke-width:4.0;stroke:rgb(0,0,0);stroke-linecap:round;fill:none;" />
<text x="2628.2" y="1747.4" font-size="18.2px" font-family="CMUBright-Roman" style="text-anchor:start;fill:rgb(0,0,0);" transform="rotate(12.0,2628.2,1747.4)" >1200</text>
<line x1='2582.2' y1='1807.2' x2='2601.5' y2='1812.7' style="stroke-width:4.0;stroke:rgb(0,0,0);stroke-linecap:round;fill:none;" />
<text x="2609.3" y="1821.6" font-size="18.2px" font-family="CMUBright-Roman" style="text-anchor:start;fill:rgb(0,0,0);" transform="rotate(15.8,2609.3,1821.6)" >1250</text>
<line x1='2559.5' y1='1878.3' x2='2578.3' y2='1885.0' style="stroke-width:4.0;stroke:rgb(0,0,0);stroke-linecap:round;fill:none;" />
<text x="2585.5" y="1894.5" font-size="18.2px" font-family="CMUBright-Roman" style="text-anchor:start;fill:rgb(0,0,0);" transform="rotate(19.6,2585.5,1894.5)" >1300</text>
<line x1='2532.1' y1='1947.7' x2='2550.4' y2='1955.7' style="stroke-width:4.0;stroke:rgb(0,0,0);stroke-linecap:round;fill:none;" />
<text x="2557.0" y="1965.6" font-size="18.2px" font-family="CMUBright-Roman" style="text-anchor:start;fill:rgb(0,0,0);" transform="rotate(23.5,2557.0,1965.6)" >1350</text>
<line x1='2500.1' y1='2015.2' x2='2517.9' y2='2024.3' style="stroke-width:4.0;stroke:rgb(0,0,0);stroke-linecap:round;fill:none;" />
<text x="2523.8" y="2034.7" font-size="18.2px" font-family="CMUBright-Roman" style="text-anchor:start;fill:rgb(0,0,0);" transform="rotate(27.3,2523.8,2034.7)" >1400</text>
<line x1='2463.7' y1='2080.4' x2='2480.9' y2='2090.7' style="stroke-width:4.0;stroke:rgb(0,0,0);stroke-linecap:round;fill:none;" />
<text x="2486.1" y="2101.4" font-size="18.2px" font-family="CMUBright-Roman" style="text-anchor:start;fill:rgb(0,0,0);" transform="rotate(31.1,2486.1,2101.4)" >1450</text>
<line x1='2423.1' y1='2143.0' x2='2439.5' y2='2154.4' style="stroke-width:4.0;stroke:rgb(0,0,0);stroke-linecap:round;fill:none;" />
<text x="2444.0" y="2165.5" font-size="18.2px" font-family="CMUBright-Roman" style="text-anchor:start;fill:rgb(0,0,0);" transform="rotate(34.9,2444.0,2165.5)" >1500</text>
<line x1='2378.5' y1='2202.8' x2='2394.1' y2='2215.3' style="stroke-width:4.0;stroke:rgb(0,0,0);stroke-linecap:round;fill:none;" />
<text x="2397.8" y="2226.6" font-size="18.2px" font-family="CMUBright-Roman" style="text-anchor:start;fill:rgb(0,0,0);" transform="rotate(38.7,2397.8,2226.6)" >1550</text>
<line x1='2329.9' y1='2259.5' x2='2344.7' y2='2273.0' style="stroke-width:4.0;stroke:rgb(0,0,0);stroke-linecap:round;fill:none;" />
<text x="2347.6" y="2284.6" font-size="18.2px" font-family="CMUBright-Roman" style="text-anchor:start;fill:rgb(0,0,0);" transform="rotate(42.5,2347.6,2284.6)" >1600</text>
<line x1='2277.7' y1='2312.9' x2='2291.5' y2='2327.3' style="stroke-width:4.0;stroke:rgb(0,0,0);stroke-linecap:round;fill:none;" />
<text x="2293.7" y="2339.0" font-size="18.2px" font-family="CMUBright-Roman" style="text-anchor:start;fill:rgb(0,0,0);" transform="rotate(46.3,2293.7,2339.0)" >1650</text>
<line x1='2222.1' y1='2362.7' x2='2234.9' y2='2378.0' style="stroke-width:4.0;stroke:rgb(0,0,0);stroke-linecap:round;fill:none;" />
<text x="2236.3" y="2389.8" font-size="18.2px" font-family="CMUBright-Roman" style="text-anchor:start;fill:rgb(0,0,0);" transform="rotate(50.1,2236.3,2389.8)" >1700</text>
<line x1='2163.3' y1='2408.7' x2='2175.1' y2='2424.8' style="stroke-width:4.0;stroke:rgb(0,0,0);stroke-linecap:round;fill:none;" />
<text x="2175.7" y="2436.7" font-size="18.2px" font-family="CMUBright-Roman" style="text-anchor:start;fill:rgb(0,0,0);" transform="rotate(53.9,2175.7,2436.7)" >1750</text>
<line x1='2101.6' y1='2450.7' x2='2112.3' y2='2467.6' style="stroke-width:4.0;stroke:rgb(0,0,0);stroke-linecap:round;fill:none;" />
<text x="2112.1" y="2479.5" font-size="18.2px" font-family="CMUBright-Roman" style="text-anchor:start;fill:rgb(0,0,0);" transform="rotate(57.7,2112.1,2479.5)" >1800</text>
<line x1='2037.2' y1='2488.5' x2='2046.7' y2='2506.0' style="stroke-width:4.0;stroke:rgb(0,0,0);stroke-linecap:round;fill:none;" />
<text x="2045.8" y="2517.9" font-size="18.2px" font-family="CMUBright-Roman" style="text-anchor:start;fill:rgb(0,0,0);" transform="rotate(61.5,2045.8,2517.9)" >1850</text>
<line x1='1970.5' y1='2521.9' x2='1978.8' y2='2540.1' style="stroke-width:4.0;stroke:rgb(0,0,0);stroke-linecap:round;fill:none;" />
<text x="1977.1" y="2551.9" font-size="18.2px" font-family="CMUBright-Roman" style="text-anchor:start;fill:rgb(0,0,0);" transform="rotate(65.3,1977.1,2551.9)" >1900</text>
<line x1='1901.6' y1='2550.9' x2='1908.8' y2='2569.5' style="stroke-width:4.0;stroke:rgb(0,0,0);stroke-linecap:round;fill:none;" />
<text x="1906.3" y="2581.2" font-size="18.2px" font-family="CMUBright-Roman" style="text-anchor:start;fill:rgb(0,0,0);" transform="rotate(69.1,1906.3,2581.2)" >1950</text>
<line x1='1831.1' y1='2575.2' x2='1837.0' y2='2594.3' style="stroke-width:4.0;stroke:rgb(0,0,0);stroke-linecap:round;fill:none;" />
<text x="1833.7" y="2605.7" font-size="18.2px" font-family="CMUBright-Roman" style="text-anchor:start;fill:rgb(0,0,0);" transform="rotate(72.9,1833.7,2605.7)" >2000</text>
<line x1='1759.0' y1='2594.8' x2='1763.6' y2='2614.2' style="stroke-width:4.0;stroke:rgb(0,0,0);stroke-linecap:round;fill:none;" />
<text x="1759.6" y="2625.4" font-size="18.2px" font-family="CMUBright-Roman" style="text-anchor:start;fill:rgb(0,0,0);" transform="rotate(76.7,1759.6,2625.4)" >2050</text>
<line x1='1685.9' y1='2609.5' x2='1689.2' y2='2629.3' style="stroke-width:4.0;stroke:rgb(0,0,0);stroke-linecap:round;fill:none;" />
<text x="1684.4" y="2640.2" font-size="18.2px" font-family="CMUBright-Roman" style="text-anchor:start;fill:rgb(0,0,0);" transform="rotate(80.5,1684.4,2640.2)" >2100</text>
<line x1='1611.9' y1='2619.4' x2='1613.9' y2='2639.3' style="stroke-width:4.0;stroke:rgb(0,0,0);stroke-linecap:round;fill:none;" />
<text x="1608.4" y="2649.9" font-size="18.2px" font-family="CMUBright-Roman" style="text-anchor:start;fill:rgb(0,0,0);" transform="rotate(84.3,1608.4,2649.9)" >2150</text>
<line x1='1537.4' y1='2624.4' x2='1538.1' y2='2644.4' style="stroke-width:4.0;stroke:rgb(0,0,0);stroke-linecap:round;fill:none;" />
<text x="1531.9" y="2654.6" font-size="18.2px" font-family="CMUBright-Roman" style="text-anchor:start;fill:rgb(0,0,0);" transform="rotate(88.1,1531.9,2654.6)" >2200</text>
<line x1='1462.7' y1='2624.4' x2='1462.1' y2='2644.4' style="stroke-width:4.0;stroke:rgb(0,0,0);stroke-linecap:round;fill:none;" />
<text x="1468.2" y="2654.6" font-size="18.2px" font-family="CMUBright-Roman" style="text-anchor:end;fill:rgb(0,0,0);" transform="rotate(-88.1,1468.2,2654.6)" >2250</text>
<line x1='1388.3' y1='2619.4' x2='1386.3' y2='2639.3' style="stroke-width:4.0;stroke:rgb(0,0,0);stroke-linecap:round;fill:none;" />
<text x="1391.7" y="2649.9" font-size="18.2px" font-family="CMUBright-Roman" style="text-anchor:end;fill:rgb(0,0,0);" transform="rotate(-84.3,1391.7,2649.9)" >2300</text>
<line x1='1314.3' y1='2609.6' x2='1311.0' y2='2629.3' style="stroke-width:4.0;stroke:rgb(0,0,0);stroke-linecap:round;fill:none;" />
<text x="1315.7" y="2640.2" font-size="18.2px" font-family="CMUBright-Roman" style="text-anchor:end;fill:rgb(0,0,0);" transform="rotate(-80.5,1315.7,2640.2)" >2350</text>
<line x1='1241.1' y1='2594.8' x2='1236.5' y2='2614.3' style="stroke-width:4.0;stroke:rgb(0,0,0);stroke-linecap:round;fill:none;" />
<text x="1240.5" y="2625.5" font-size="18.2px" font-family="CMUBright-Roman" style="text-anchor:end;fill:rgb(0,0,0);" transform="rotate(-76.7,1240.5,2625.5)" >2400</text>
<line x1='1169.0' y1='2575.2' x2='1163.2' y2='2594.3' style="stroke-width:4.0;stroke:rgb(0,0,0);stroke-linecap:round;fill:none;" />
<text x="1166.4" y="2605.8" font-size="18.2px" font-family="CMUBright-Roman" style="text-anchor:end;fill:rgb(0,0,0);" transform="rotate(-72.9,1166.4,2605.8)" >2450</text>
<line x1='1098.5' y1='2550.9' x2='1091.3' y2='2569.6' style="stroke-width:4.0;stroke:rgb(0,0,0);stroke-linecap:round;fill:none;" />
<text x="1093.8" y="2581.2" font-size="18.2px" font-family="CMUBright-Roman" style="text-anchor:end;fill:rgb(0,0,0);" transform="rotate(-69.1,1093.8,2581.2)" >2500</text>
<line x1='1029.7' y1='2522.0' x2='1021.3' y2='2540.1' style="stroke-width:4.0;stroke:rgb(0,0,0);stroke-linecap:round;fill:none;" />
<text x="1023.0" y="2551.9" font-size="18.2px" font-family="CMUBright-Roman" style="text-anchor:end;fill:rgb(0,0,0);" transform="rotate(-65.3,1023.0,2551.9)" >2550</text>
<line x1='962.9' y1='2488.5' x2='953.4' y2='2506.1' style="stroke-width:4.0;stroke:rgb(0,0,0);stroke-linecap:round;fill:none;" />
<text x="954.3" y="2518.0" font-size="18.2px" font-family="CMUBright-Roman" style="text-anchor:end;fill:rgb(0,0,0);" transform="rotate(-61.5,954.3,2518.0)" >2600</text>
<line x1='898.5' y1='2450.7' x2='887.9' y2='2467.6' style="stroke-width:4.0;stroke:rgb(0,0,0);stroke-linecap:round;fill:none;" />
<text x="888.0" y="2479.5" font-size="18.2px" font-family="CMUBright-Roman" style="text-anchor:end;fill:rgb(0,0,0);" transform="rotate(-57.7,888.0,2479.5)" >2650</text>
<line x1='836.8' y1='2408.7' x2='825.0' y2='2424.9' style="stroke-width:4.0;stroke:rgb(0,0,0);stroke-linecap:round;fill:none;" />
<text x="824.4" y="2436.8" font-size="18.2px" font-family="CMUBright-Roman" style="text-anchor:end;fill:rgb(0,0,0);" transform="rotate(-53.9,824.4,2436.8)" >2700</text>
<line x1='778.0' y1='2362.8' x2='765.2' y2='2378.1' style="stroke-width:4.0;stroke:rgb(0,0,0);stroke-linecap:round;fill:none;" />
<text x="763.8" y="2389.9" font-size="18.2px" font-family="CMUBright-Roman" style="text-anchor:end;fill:rgb(0,0,0);" transform="rotate(-50.1,763.8,2389.9)" >2750</text>
<line x1='722.4' y1='2313.0' x2='708.6' y2='2327.4' style="stroke-width:4.0;stroke:rgb(0,0,0);stroke-linecap:round;fill:none;" />
<text x="706.4" y="2339.1" font-size="18.2px" font-family="CMUBright-Roman" style="text-anchor:end;fill:rgb(0,0,0);" transform="rotate(-46.3,706.4,2339.1)" >2800</text>
<line x1='670.2' y1='2259.6' x2='655.4' y2='2273.1' style="stroke-width:4.0;stroke:rgb(0,0,0);stroke-linecap:round;fill:none;" />
<text x="652.5" y="2284.7" font-size="18.2px" font-family="CMUBright-Roman" style="text-anchor:end;fill:rgb(0,0,0);" transform="rotate(-42.5,652.5,2284.7)" >2850</text>
<line x1='621.6' y1='2202.9' x2='606.0' y2='2215.4' style="stroke-width:4.0;stroke:rgb(0,0,0);stroke-linecap:round;fill:none;" />
<text x="602.3" y="2226.7" font-size="18.2px" font-family="CMUBright-Roman" style="text-anchor:end;fill:rgb(0,0,0);" transform="rotate(-38.7,602.3,2226.7)" >2900</text>
<line x1='576.9' y1='2143.1' x2='560.5' y2='2154.6' style="stroke-width:4.0;stroke:rgb(0,0,0);stroke-linecap:round;fill:none;" />
<text x="556.1" y="2165.6" font-size="18.2px" font-family="CMUBright-Roman" style="text-anchor:end;fill:rgb(0,0,0);" transform="rotate(-34.9,556.1,2165.6)" >2950</text>
<line x1='536.3' y1='2080.5' x2='519.2' y2='2090.8' style="stroke-width:4.0;stroke:rgb(0,0,0);stroke-linecap:round;fill:none;" />
<text x="514.0" y="2101.5" font-size="18.2px" font-family="CMUBright-Roman" style="text-anchor:end;fill:rgb(0,0,0);" transform="rotate(-31.1,514.0,2101.5)" >3000</text>
<line x1='500.0' y1='2015.3' x2='482.2' y2='2024.5' style="stroke-width:4.0;stroke:rgb(0,0,0);stroke-linecap:round;fill:none;" />
<text x="476.3" y="2034.8" font-size="18.2px" font-family="CMUBright-Roman" style="text-anchor:end;fill:rgb(0,0,0);" transform="rotate(-27.3,476.3,2034.8)" >3050</text>
<line x1='468.0' y1='1947.8' x2='449.6' y2='1955.8' style="stroke-width:4.0;stroke:rgb(0,0,0);stroke-linecap:round;fill:none;" />
<text x="443.1" y="1965.7" font-size="18.2px" font-family="CMUBright-Roman" style="text-anchor:end;fill:rgb(0,0,0);" transform="rotate(-23.5,443.1,1965.7)" >3100</text>
<line x1='440.6' y1='1878.4' x2='421.7' y2='1885.1' style="stroke-width:4.0;stroke:rgb(0,0,0);stroke-linecap:round;fill:none;" />
<text x="414.5" y="1894.6" font-size="18.2px" font-family="CMUBright-Roman" style="text-anchor:end;fill:rgb(0,0,0);" transform="rotate(-19.7,414.5,1894.6)" >3150</text>
<line x1='417.8' y1='1807.3' x2='398.6' y2='1812.8' style="stroke-width:4.0;stroke:rgb(0,0,0);stroke-linecap:round;fill:none;" />
<text x="390.7" y="1821.8" font-size="18.2px" font-family="CMUBright-Roman" style="text-anchor:end;fill:rgb(0,0,0);" transform="rotate(-15.9,390.7,1821.8)" >3200</text>
<line x1='399.8' y1='1734.9' x2='380.2' y2='1739.0' style="stroke-width:4.0;stroke:rgb(0,0,0);stroke-linecap:round;fill:none;" />
<text x="371.8" y="1747.5" font-size="18.2px" font-family="CMUBright-Roman" style="text-anchor:end;fill:rgb(0,0,0);" transform="rotate(-12.1,371.8,1747.5)" >3250</text>
<line x1='386.6' y1='1661.4' x2='366.8' y2='1664.3' style="stroke-width:4.0;stroke:rgb(0,0,0);stroke-linecap:round;fill:none;" />
<text x="357.9" y="1672.1" font-size="18.2px" font-family="CMUBright-Roman" style="text-anchor:end;fill:rgb(0,0,0);" transform="rotate(-8.2,357.9,1672.1)" >3300</text>
<line x1='378.4' y1='1587.2' x2='358.4' y2='1588.7' style="stroke-width:4.0;stroke:rgb(0,0,0);stroke-linecap:round;fill:none;" />
<text x="349.0" y="1596.0" font-size="18.2px" font-family="CMUBright-Roman" style="text-anchor:end;fill:rgb(0,0,0);" transform="rotate(-4.4,349.0,1596.0)" >3350</text>
<line x1='375.1' y1='1512.6' x2='355.1' y2='1512.8' style="stroke-width:4.0;stroke:rgb(0,0,0);stroke-linecap:round;fill:none;" />
<text x="345.2" y="1519.5" font-size="18.2px" font-family="CMUBright-Roman" style="text-anchor:end;fill:rgb(0,0,0);" transform="rotate(-0.6,345.2,1519.5)" >3400</text>
<line x1='376.7' y1='1438.0' x2='356.7' y2='1436.9' style="stroke-width:4.0;stroke:rgb(0,0,0);stroke-linecap:round;fill:none;" />
<text x="346.4" y="1442.8" font-size="18.2px" font-family="CMUBright-Roman" style="text-anchor:end;fill:rgb(0,0,0);" transform="rotate(3.2,346.4,1442.8)" >3450</text>
<line x1='383.3' y1='1363.6' x2='363.4' y2='1361.2' style="stroke-width:4.0;stroke:rgb(0,0,0);stroke-linecap:round;fill:none;" />
<text x="352.7" y="1366.5" font-size="18.2px" font-family="CMUBright-Roman" style="text-anchor:end;fill:rgb(0,0,0);" transform="rotate(7.0,352.7,1366.5)" >3500</text>
<line x1='394.8' y1='1289.9' x2='375.1' y2='1286.1' style="stroke-width:4.0;stroke:rgb(0,0,0);stroke-linecap:round;fill:none;" />
<text x="364.1" y="1290.7" font-size="18.2px" font-family="CMUBright-Roman" style="text-anchor:end;fill:rgb(0,0,0);" transform="rotate(10.8,364.1,1290.7)" >3550</text>
<line x1='411.2' y1='1217.0' x2='391.8' y2='1212.0' style="stroke-width:4.0;stroke:rgb(0,0,0);stroke-linecap:round;fill:none;" />
<text x="380.5" y="1215.8" font-size="18.2px" font-family="CMUBright-Roman" style="text-anchor:end;fill:rgb(0,0,0);" transform="rotate(14.6,380.5,1215.8)" >3600</text>
<line x1='432.3' y1='1145.5' x2='413.3' y2='1139.2' style="stroke-width:4.0;stroke:rgb(0,0,0);stroke-linecap:round;fill:none;" />
<text x="401.8" y="1142.2" font-size="18.2px" font-family="CMUBright-Roman" style="text-anchor:end;fill:rgb(0,0,0);" transform="rotate(18.4,401.8,1142.2)" >3650</text>
<line x1='458.2' y1='1075.4' x2='439.7' y2='1067.9' style="stroke-width:4.0;stroke:rgb(0,0,0);stroke-linecap:round;fill:none;" />
<text x="428.0" y="1070.1" font-size="18.2px" font-family="CMUBright-Roman" style="text-anchor:end;fill:rgb(0,0,0);" transform="rotate(22.2,428.0,1070.1)" >3700</text>
<line x1='488.6' y1='1007.3' x2='470.7' y2='998.5' style="stroke-width:4.0;stroke:rgb(0,0,0);stroke-linecap:round;fill:none;" />
<text x="458.8" y="1000.0" font-size="18.2px" font-family="CMUBright-Roman" style="text-anchor:end;fill:rgb(0,0,0);" transform="rotate(26.0,458.8,1000.0)" >3750</text>
<line x1='523.5' y1='941.3' x2='506.2' y2='931.4' style="stroke-width:4.0;stroke:rgb(0,0,0);stroke-linecap:round;fill:none;" />
<text x="494.3" y="932.0" font-size="18.2px" font-family="CMUBright-Roman" style="text-anchor:end;fill:rgb(0,0,0);" transform="rotate(29.8,494.3,932.0)" >3800</text>
<line x1='562.7' y1='877.8' x2='546.1' y2='866.7' style="stroke-width:4.0;stroke:rgb(0,0,0);stroke-linecap:round;fill:none;" />
<text x="534.2" y="866.6" font-size="18.2px" font-family="CMUBright-Roman" style="text-anchor:end;fill:rgb(0,0,0);" transform="rotate(33.6,534.2,866.6)" >3850</text>
<line x1='606.1' y1='817.0' x2='590.2' y2='804.8' style="stroke-width:4.0;stroke:rgb(0,0,0);stroke-linecap:round;fill:none;" />
<text x="578.3" y="803.9" font-size="18.2px" font-family="CMUBright-Roman" style="text-anchor:end;fill:rgb(0,0,0);" transform="rotate(37.4,578.3,803.9)" >3900</text>
<line x1='653.3' y1='759.2' x2='638.3' y2='746.0' style="stroke-width:4.0;stroke:rgb(0,0,0);stroke-linecap:round;fill:none;" />
<text x="626.5" y="744.3" font-size="18.2px" font-family="CMUBright-Roman" style="text-anchor:end;fill:rgb(0,0,0);" transform="rotate(41.2,626.5,744.3)" >3950</text>
<line x1='704.3' y1='704.7' x2='690.2' y2='690.5' style="stroke-width:4.0;stroke:rgb(0,0,0);stroke-linecap:round;fill:none;" />
<text x="678.5" y="688.1" font-size="18.2px" font-family="CMUBright-Roman" style="text-anchor:end;fill:rgb(0,0,0);" transform="rotate(45.0,678.5,688.1)" >4000</text>
<line x1='758.8' y1='653.7' x2='745.7' y2='638.6' style="stroke-width:4.0;stroke:rgb(0,0,0);stroke-linecap:round;fill:none;" />
<text x="734.2" y="635.4" font-size="18.2px" font-family="CMUBright-Roman" style="text-anchor:end;fill:rgb(0,0,0);" transform="rotate(48.8,734.2,635.4)" >4050</text>
<line x1='816.6' y1='606.4' x2='804.4' y2='590.5' style="stroke-width:4.0;stroke:rgb(0,0,0);stroke-linecap:round;fill:none;" />
<text x="793.2" y="586.5" font-size="18.2px" font-family="CMUBright-Roman" style="text-anchor:end;fill:rgb(0,0,0);" transform="rotate(52.6,793.2,586.5)" >4100</text>
<line x1='877.4' y1='563.0' x2='866.3' y2='546.4' style="stroke-width:4.0;stroke:rgb(0,0,0);stroke-linecap:round;fill:none;" />
<text x="855.4" y="541.6" font-size="18.2px" font-family="CMUBright-Roman" style="text-anchor:end;fill:rgb(0,0,0);" transform="rotate(56.4,855.4,541.6)" >4150</text>
<line x1='940.9' y1='523.8' x2='930.9' y2='506.4' style="stroke-width:4.0;stroke:rgb(0,0,0);stroke-linecap:round;fill:none;" />
<text x="920.3" y="501.0" font-size="18.2px" font-family="CMUBright-Roman" style="text-anchor:end;fill:rgb(0,0,0);" transform="rotate(60.2,920.3,501.0)" >4200</text>
<line x1='1006.8' y1='488.8' x2='998.1' y2='470.9' style="stroke-width:4.0;stroke:rgb(0,0,0);stroke-linecap:round;fill:none;" />
<text x="987.9" y="464.8" font-size="18.2px" font-family="CMUBright-Roman" style="text-anchor:end;fill:rgb(0,0,0);" transform="rotate(64.0,987.9,464.8)" >4250</text>
<line x1='1075.0' y1='458.4' x2='1067.4' y2='439.9' style="stroke-width:4.0;stroke:rgb(0,0,0);stroke-linecap:round;fill:none;" />
<text x="1057.6" y="433.1" font-size="18.2px" font-family="CMUBright-Roman" style="text-anchor:end;fill:rgb(0,0,0);" transform="rotate(67.8,1057.6,433.1)" >4300</text>
<line x1='1145.0' y1='432.5' x2='1138.7' y2='413.5' style="stroke-width:4.0;stroke:rgb(0,0,0);stroke-linecap:round;fill:none;" />
<text x="1129.4" y="406.1" font-size="18.2px" font-family="CMUBright-Roman" style="text-anchor:end;fill:rgb(0,0,0);" transform="rotate(71.6,1129.4,406.1)" >4350</text>
<line x1='1216.6' y1='411.3' x2='1211.5' y2='391.9' style="stroke-width:4.0;stroke:rgb(0,0,0);stroke-linecap:round;fill:none;" />
<text x="1202.7" y="383.9" font-size="18.2px" font-family="CMUBright-Roman" style="text-anchor:end;fill:rgb(0,0,0);" transform="rotate(75.4,1202.7,383.9)" >4400</text>
<line x1='1289.4' y1='394.9' x2='1285.7' y2='375.2' style="stroke-width:4.0;stroke:rgb(0,0,0);stroke-linecap:round;fill:none;" />
<text x="1277.4" y="366.7" font-size="18.2px" font-family="CMUBright-Roman" style="text-anchor:end;fill:rgb(0,0,0);" transform="rotate(79.2,1277.4,366.7)" >4450</text>
<line x1='1363.2' y1='383.4' x2='1360.7' y2='363.5' style="stroke-width:4.0;stroke:rgb(0,0,0);stroke-linecap:round;fill:none;" />
<text x="1353.1" y="354.4" font-size="18.2px" font-family="CMUBright-Roman" style="text-anchor:end;fill:rgb(0,0,0);" transform="rotate(83.0,1353.1,354.4)" >4500</text>
<g id="highlighttrack_0">
<path d="M1284.575,446.806 A1075.000,1075.000 40.000 0,1 1288.621,445.987 L1278.789,396.963 A1125.000,1125.000 0.000 0,0 1274.555,397.821 Z" style="stroke-width:4.0;stroke:rgb(0,0,0);stroke-linecap:round;fill:rgb(116,196,118);" />
<path d="M1763.387,457.766 A1075.000,1075.000 40.000 0,1 1767.246,458.749 L1779.676,410.318 A1125.000,1125.000 0.000 0,0 1775.637,409.290 Z" style="stroke-width:4.0;stroke:rgb(0,0,0);stroke-linecap:round;fill:rgb(251,106,74);" />
<path d="M1059.953,519.193 A1075.000,1075.000 40.000 0,1 1063.706,517.517 L1043.414,471.820 A1125.000,1125.000 0.000 0,0 1039.485,473.574 Z" style="stroke-width:4.0;stroke:rgb(0,0,0);stroke-linecap:round;fill:rgb(116,196,118);" />
<path d="M869.764,629.123 A1075.000,1075.000 40.000 0,1 873.132,626.695 L843.975,586.076 A1125.000,1125.000 0.000 0,0 840.450,588.617 Z" style="stroke-width:4.0;stroke:rgb(0,0,0);stroke-linecap:round;fill:rgb(116,196,118);" />
<path d="M2050.579,576.697 A1075.000,1075.000 40.000 0,1 2054.141,578.831 L2079.915,535.986 A1125.000,1125.000 0.000 0,0 2076.187,533.753 Z" style="stroke-width:4.0;stroke:rgb(0,0,0);stroke-linecap:round;fill:rgb(251,106,74);" />
<path d="M2219.521,701.305 A1075.000,1075.000 40.000 0,1 2222.570,704.062 L2256.178,667.042 A1125.000,1125.000 0.000 0,0 2252.987,664.156 Z" style="stroke-width:4.0;stroke:rgb(0,0,0);stroke-linecap:round;fill:rgb(251,106,74);" />
<path d="M425.000,1499.617 A1075.000,1075.000 40.000 0,1 425.009,1495.506 L375.010,1495.297 A1125.000,1125.000 0.000 0,0 375.000,1499.599 Z" style="stroke-width:4.0;stroke:rgb(0,0,0);stroke-linecap:round;fill:rgb(116,196,118);" />
<path d="M2283.605,2235.927 A1075.000,1075.000 40.000 0,1 2280.773,2238.930 L2317.088,2273.299 A1125.000,1125.000 0.000 0,0 2320.052,2270.156 Z" style="stroke-width:4.0;stroke:rgb(0,0,0);stroke-linecap:round;fill:rgb(251,106,74);" />
<path d="M1336.209,437.551 A1075.000,1075.000 40.000 0,1 1340.879,436.842 L1333.478,387.393 A1125.000,1125.000 0.000 0,0 1328.591,388.135 Z" style="stroke-width:4.0;stroke:rgb(0,0,0);stroke-linecap:round;fill:rgb(251,106,74);" />
<path d="M2030.112,564.796 A1075.000,1075.000 40.000 0,1 2034.175,567.111 L2059.021,523.721 A1125.000,1125.000 0.000 0,0 2054.769,521.299 Z" style="stroke-width:4.0;stroke:rgb(0,0,0);stroke-linecap:round;fill:rgb(116,196,118);" />
<path d="M2479.733,1942.434 A1075.000,1075.000 40.000 0,1 2478.009,1946.232 L2523.498,1966.987 A1125.000,1125.000 0.000 0,0 2525.302,1963.013 Z" style="stroke-width:4.0;stroke:rgb(0,0,0);stroke-linecap:round;fill:rgb(116,196,118);" />
<path d="M2481.539,1938.412 A1075.000,1075.000 40.000 0,1 2479.831,1942.217 L2525.405,1962.785 A1125.000,1125.000 0.000 0,0 2527.192,1958.803 Z" style="stroke-width:4.0;stroke:rgb(0,0,0);stroke-linecap:round;fill:rgb(116,196,118);" />
<path d="M1947.006,522.344 A1075.000,1075.000 40.000 0,1 1949.832,523.641 L1970.754,478.229 A1125.000,1125.000 0.000 0,0 1967.797,476.872 Z" style="stroke-width:4.0;stroke:rgb(0,0,0);stroke-linecap:round;fill:rgb(251,106,74);" />
<path d="M1965.494,531.011 A1075.000,1075.000 40.000 0,1 1982.611,539.421 L2005.058,494.743 A1125.000,1125.000 0.000 0,0 1987.145,485.942 Z" style="stroke-width:4.0;stroke:rgb(0,0,0);stroke-linecap:round;fill:rgb(116,196,118);" />
<path d="M1441.995,2573.434 A1075.000,1075.000 40.000 0,1 1414.081,2571.561 L1410.085,2621.401 A1125.000,1125.000 0.000 0,0 1439.297,2623.361 Z" style="stroke-width:4.0;stroke:rgb(0,0,0);stroke-linecap:round;fill:rgb(116,196,118);" />
<path d="M1232.863,458.721 A1075.000,1075.000 40.000 0,1 1260.083,452.114 L1248.924,403.375 A1125.000,1125.000 0.000 0,0 1220.438,410.289 Z" style="stroke-width:4.0;stroke:rgb(0,0,0);stroke-linecap:round;fill:rgb(116,196,118);" />
</g>
</g>
<g id="track_0">
<path d="M 1630.931,443.835 A 1064.250,1064.250 0.00 0,1 1635.0,444.3 L 1635.0,444.3 1625.5,516.9 1616.3,584.0 1607.4,645.8 1598.8,702.7 1590.5,754.8 1582.4,802.3 1574.5,845.6 1566.8,884.8 1559.3,920.1 1551.9,951.7 1544.7,979.7 1537.6,1004.2 1530.6,1025.5 1523.6,1043.5 1516.7,1058.5 1509.8,1070.4 1502.9,1079.3 1496.0,1085.3 1489.0,1088.4 1481.9,1088.7 1474.7,1086.1 1467.3,1080.6 1459.8,1072.1 1452.1,1060.7 1444.2,1046.3 1435.9,1028.8 1427.4,1008.1 1418.6,984.2 1409.4,956.7 1399.9,925.8 1389.9,891.1 1379.4,852.5 1368.5,809.9 1357.1,763.0 1345.0,711.6 1332.4,655.6 1319.2,594.5 1305.3,528.3 1290.7,456.5  A 1064.250,1064.250 0.00 0,0 1286.7,457.3 L 1286.7,457.3 1301.6,529.0 1315.7,595.2 1329.2,656.2 1342.0,712.2 1354.2,763.6 1365.9,810.4 1376.9,853.0 1387.5,891.5 1397.7,926.2 1407.3,957.1 1416.6,984.5 1425.5,1008.4 1434.1,1029.1 1442.4,1046.6 1450.4,1060.9 1458.2,1072.3 1465.7,1080.7 1473.1,1086.2 1480.3,1088.8 1487.4,1088.5 1494.4,1085.3 1501.3,1079.3 1508.2,1070.3 1515.0,1058.4 1521.9,1043.4 1528.8,1025.4 1535.7,1004.1 1542.7,979.5 1549.8,951.5 1557.1,919.9 1564.4,884.6 1572.0,845.3 1579.7,802.0 1587.6,754.4 1595.8,702.3 1604.2,645.4 1612.8,583.6 1621.7,516.5 1630.9,443.8  Z" style="stroke-width: 2.0;  stroke: rgb(82,82,82); fill: rgb(251,106,74); opacity: 0.667;" />
<path d="M 1760.753,468.188 A 1064.250,1064.250 0.00 0,1 1764.6,469.2 L 1764.6,469.2 1746.1,540.0 1728.5,605.4 1711.6,665.7 1695.6,721.0 1680.2,771.6 1665.5,817.8 1651.4,859.8 1637.9,897.8 1625.0,932.0 1612.5,962.4 1600.5,989.4 1588.9,1013.0 1577.6,1033.3 1566.7,1050.5 1556.1,1064.7 1545.8,1075.9 1535.6,1084.1 1525.6,1089.5 1515.8,1092.1 1506.0,1091.8 1496.3,1088.8 1486.6,1082.8 1476.9,1074.0 1467.2,1062.3 1457.3,1047.6 1447.3,1029.9 1437.2,1008.9 1426.9,984.8 1416.3,957.2 1405.5,926.1 1394.4,891.3 1382.9,852.7 1371.1,810.0 1358.9,763.1 1346.2,711.7 1333.1,655.6 1319.5,594.5 1305.4,528.3 1290.7,456.5  A 1064.250,1064.250 0.00 0,0 1286.7,457.3 L 1286.7,457.3 1301.7,529.0 1316.1,595.2 1329.9,656.2 1343.2,712.3 1356.1,763.6 1368.4,810.5 1380.4,853.1 1392.0,891.7 1403.3,926.5 1414.2,957.5 1424.9,985.1 1435.3,1009.2 1445.6,1030.1 1455.6,1047.8 1465.5,1062.4 1475.3,1074.1 1485.0,1082.9 1494.7,1088.8 1504.5,1091.8 1514.2,1092.0 1524.1,1089.4 1534.0,1084.0 1544.2,1075.7 1554.5,1064.5 1565.1,1050.3 1575.9,1033.1 1587.1,1012.7 1598.6,989.0 1610.5,962.0 1622.8,931.5 1635.7,897.3 1649.0,859.3 1663.0,817.2 1677.5,771.0 1692.7,720.3 1708.5,664.9 1725.2,604.6 1742.5,539.1 1760.8,468.2  Z" style="stroke-width: 2.0;  stroke: rgb(82,82,82); fill: rgb(116,196,118); opacity: 0.667;" />
<path d="M 1760.753,468.188 A 1064.250,1064.250 0.00 0,1 1764.6,469.2 L 1764.6,469.2 1746.3,540.0 1729.3,605.5 1713.4,665.8 1698.6,721.3 1685.0,772.0 1672.3,818.4 1660.5,860.5 1649.7,898.6 1639.7,932.9 1630.6,963.4 1622.2,990.5 1614.5,1014.1 1607.6,1034.5 1601.4,1051.7 1595.8,1065.8 1590.8,1076.9 1586.4,1085.0 1582.6,1090.3 1579.4,1092.6 1576.7,1092.1 1574.6,1088.8 1573.0,1082.5 1572.0,1073.3 1571.4,1061.1 1571.4,1046.0 1572.0,1027.7 1573.1,1006.2 1574.7,981.4 1576.9,953.2 1579.7,921.4 1583.1,885.8 1587.1,846.4 1591.8,803.0 1597.1,755.2 1603.1,703.0 1609.9,646.0 1617.4,584.1 1625.8,517.0 1635.0,444.3  A 1064.250,1064.250 0.00 0,0 1630.9,443.8 L 1630.9,443.8 1622.0,516.5 1613.9,583.7 1606.6,645.6 1600.1,702.6 1594.2,754.8 1589.1,802.6 1584.6,846.1 1580.7,885.5 1577.5,921.1 1574.8,952.9 1572.7,981.1 1571.2,1005.9 1570.2,1027.4 1569.7,1045.7 1569.8,1060.9 1570.3,1073.0 1571.4,1082.2 1573.0,1088.5 1575.2,1091.8 1577.9,1092.3 1581.1,1090.0 1584.8,1084.7 1589.2,1076.6 1594.1,1065.4 1599.7,1051.3 1605.9,1034.1 1612.7,1013.7 1620.3,990.0 1628.6,962.9 1637.6,932.3 1647.5,898.0 1658.2,859.9 1669.7,817.7 1682.3,771.3 1695.8,720.5 1710.3,665.0 1725.9,604.7 1742.7,539.1 1760.8,468.2  Z" style="stroke-width: 2.0;  stroke: rgb(82,82,82); fill: rgb(107,174,214); opacity: 0.667;" />
<path d="M 1064.353,529.001 A 1064.250,1064.250 0.00 0,1 1068.1,527.3 L 1068.1,527.3 1097.9,594.2 1125.7,655.9 1151.7,712.6 1175.8,764.7 1198.2,812.4 1218.9,855.8 1238.2,895.2 1255.9,930.7 1272.3,962.6 1287.3,990.9 1301.1,1015.9 1313.7,1037.7 1325.2,1056.3 1335.5,1071.8 1344.8,1084.4 1353.1,1094.1 1360.4,1101.0 1366.8,1105.1 1372.3,1106.4 1376.9,1104.9 1380.6,1100.7 1383.4,1093.7 1385.5,1083.8 1386.6,1071.1 1386.9,1055.5 1386.4,1036.8 1385.0,1015.0 1382.7,990.0 1379.5,961.6 1375.4,929.8 1370.4,894.3 1364.3,855.0 1357.3,811.8 1349.2,764.3 1339.9,712.5 1329.5,656.1 1317.9,594.8 1305.0,528.3 1290.7,456.5  A 1064.250,1064.250 0.00 0,0 1286.7,457.3 L 1286.7,457.3 1301.3,529.1 1314.4,595.5 1326.3,656.7 1336.9,713.1 1346.3,764.9 1354.6,812.3 1361.9,855.6 1368.1,894.8 1373.2,930.3 1377.5,962.1 1380.8,990.4 1383.1,1015.4 1384.6,1037.2 1385.2,1055.9 1385.0,1071.6 1383.9,1084.3 1381.9,1094.1 1379.1,1101.2 1375.4,1105.4 1370.8,1106.9 1365.3,1105.6 1358.9,1101.5 1351.6,1094.7 1343.2,1085.0 1333.9,1072.4 1323.5,1056.9 1312.0,1038.4 1299.3,1016.7 1285.4,991.8 1270.3,963.5 1253.8,931.6 1235.9,896.2 1216.5,856.9 1195.5,813.5 1173.0,766.0 1148.7,714.0 1122.5,657.3 1094.4,595.7 1064.4,529.0  Z" style="stroke-width: 2.0;  stroke: rgb(82,82,82); fill: rgb(253,141,60); opacity: 0.667;" />
<path d="M 1064.353,529.001 A 1064.250,1064.250 0.00 0,1 1068.1,527.3 L 1068.1,527.3 1098.1,594.1 1126.5,655.7 1153.4,712.3 1178.8,764.1 1202.9,811.4 1225.6,854.5 1247.2,893.6 1267.5,928.7 1286.9,960.2 1305.2,988.1 1322.6,1012.7 1339.1,1034.0 1354.8,1052.3 1369.8,1067.4 1384.1,1079.7 1397.8,1089.0 1410.9,1095.6 1423.4,1099.4 1435.5,1100.4 1447.2,1098.7 1458.5,1094.3 1469.5,1087.0 1480.1,1077.0 1490.5,1064.1 1500.7,1048.3 1510.7,1029.4 1520.6,1007.5 1530.3,982.3 1539.9,953.8 1549.4,921.7 1558.9,886.1 1568.4,846.5 1577.8,803.0 1587.3,755.2 1596.8,702.9 1606.3,646.0 1615.8,584.1 1625.4,517.0 1635.0,444.3  A 1064.250,1064.250 0.00 0,0 1630.9,443.8 L 1630.9,443.8 1621.6,516.5 1612.3,583.6 1603.0,645.6 1593.7,702.6 1584.4,754.8 1575.2,802.7 1565.9,846.3 1556.6,885.8 1547.2,921.6 1537.8,953.6 1528.3,982.2 1518.7,1007.4 1508.9,1029.4 1499.0,1048.3 1488.9,1064.1 1478.5,1077.1 1467.9,1087.1 1457.0,1094.4 1445.7,1098.9 1434.0,1100.7 1421.9,1099.7 1409.3,1095.9 1396.2,1089.4 1382.5,1080.1 1368.2,1067.9 1353.1,1052.8 1337.3,1034.7 1320.7,1013.4 1303.2,988.9 1284.8,961.0 1265.4,929.6 1244.8,894.5 1223.1,855.6 1200.2,812.6 1176.0,765.3 1150.4,713.6 1123.3,657.1 1094.6,595.7 1064.4,529.0  Z" style="stroke-width: 2.0;  stroke: rgb(82,82,82); fill: rgb(255,0,0); opacity: 0.667;" />
<path d="M 1064.353,529.001 A 1064.250,1064.250 0.00 0,1 1068.1,527.3 L 1068.1,527.3 1098.2,594.1 1126.8,655.7 1154.1,712.2 1180.0,764.0 1204.7,811.3 1228.2,854.4 1250.6,893.4 1272.0,928.6 1292.5,960.1 1312.1,988.1 1330.8,1012.8 1348.9,1034.3 1366.2,1052.6 1382.9,1068.0 1399.1,1080.5 1414.8,1090.2 1430.1,1097.1 1445.0,1101.3 1459.6,1102.7 1473.9,1101.5 1488.1,1097.7 1502.1,1091.1 1516.0,1081.7 1529.9,1069.6 1543.8,1054.6 1557.7,1036.6 1571.8,1015.6 1586.0,991.5 1600.4,964.0 1615.1,933.2 1630.0,898.7 1645.3,860.5 1660.9,818.3 1677.0,771.9 1693.5,721.1 1710.4,665.7 1727.9,605.5 1746.0,540.0 1764.6,469.2  A 1064.250,1064.250 0.00 0,0 1760.8,468.2 L 1760.8,468.2 1742.4,539.1 1724.6,604.6 1707.3,665.0 1690.6,720.4 1674.3,771.2 1658.4,817.7 1642.9,859.9 1627.8,898.2 1613.0,932.7 1598.4,963.7 1584.1,991.2 1570.0,1015.4 1556.0,1036.4 1542.1,1054.4 1528.3,1069.5 1514.4,1081.7 1500.6,1091.1 1486.6,1097.7 1472.4,1101.7 1458.1,1102.9 1443.5,1101.5 1428.6,1097.4 1413.3,1090.5 1397.5,1080.9 1381.3,1068.5 1364.5,1053.1 1347.1,1034.8 1329.0,1013.4 1310.1,988.8 1290.4,960.9 1269.8,929.5 1248.3,894.4 1225.7,855.4 1202.0,812.5 1177.2,765.2 1151.1,713.5 1123.6,657.1 1094.7,595.7 1064.4,529.0  Z" style="stroke-width: 2.0;  stroke: rgb(82,82,82); fill: rgb(255,0,204); opacity: 0.667;" />
<path d="M 876.066,637.832 A 1064.250,1064.250 0.00 0,1 879.4,635.4 L 879.4,635.4 922.3,694.8 962.4,749.3 999.9,799.4 1034.9,845.1 1067.5,886.8 1097.8,924.6 1126.0,958.7 1152.1,989.2 1176.4,1016.4 1198.8,1040.3 1219.5,1061.2 1238.6,1079.0 1256.2,1094.0 1272.2,1106.1 1286.9,1115.6 1300.2,1122.3 1312.2,1126.4 1323.0,1127.9 1332.7,1126.8 1341.1,1123.1 1348.5,1116.8 1354.8,1107.9 1360.0,1096.3 1364.1,1082.0 1367.2,1064.8 1369.3,1044.8 1370.3,1021.8 1370.2,995.6 1369.1,966.3 1366.9,933.5 1363.6,897.3 1359.0,857.3 1353.3,813.4 1346.4,765.5 1338.1,713.2 1328.5,656.5 1317.4,594.9 1304.9,528.4 1290.7,456.5  A 1064.250,1064.250 0.00 0,0 1286.7,457.3 L 1286.7,457.3 1301.1,529.1 1314.0,595.6 1325.3,657.1 1335.1,713.9 1343.6,766.1 1350.7,814.0 1356.6,857.8 1361.2,897.8 1364.7,934.0 1367.1,966.8 1368.3,996.1 1368.4,1022.3 1367.5,1045.3 1365.5,1065.3 1362.5,1082.5 1358.4,1096.8 1353.2,1108.5 1347.0,1117.4 1339.7,1123.7 1331.2,1127.5 1321.6,1128.6 1310.8,1127.1 1298.7,1123.1 1285.4,1116.4 1270.7,1107.0 1254.6,1094.9 1237.0,1080.0 1217.8,1062.3 1197.1,1041.5 1174.5,1017.6 1150.2,990.6 1123.9,960.1 1095.6,926.1 1065.1,888.5 1032.3,846.9 997.2,801.3 959.5,751.4 919.2,697.0 876.1,637.8  Z" style="stroke-width: 2.0;  stroke: rgb(82,82,82); fill: rgb(255,204,204); opacity: 0.667;" />
<path d="M 876.066,637.832 A 1064.250,1064.250 0.00 0,1 879.4,635.4 L 879.4,635.4 922.5,694.7 963.2,749.1 1001.6,798.9 1037.8,844.3 1072.0,885.5 1104.3,922.8 1134.8,956.4 1163.5,986.4 1190.7,1013.0 1216.4,1036.4 1240.6,1056.7 1263.6,1074.0 1285.4,1088.5 1306.1,1100.1 1325.7,1109.1 1344.3,1115.4 1362.1,1119.1 1379.1,1120.3 1395.3,1118.9 1410.9,1115.0 1425.9,1108.5 1440.2,1099.4 1454.1,1087.6 1467.5,1073.2 1480.5,1056.0 1493.2,1035.9 1505.5,1012.8 1517.4,986.7 1529.2,957.3 1540.6,924.5 1551.9,888.2 1562.9,848.1 1573.7,804.1 1584.4,755.9 1594.9,703.4 1605.2,646.2 1615.3,584.2 1625.2,517.0 1635.0,444.3  A 1064.250,1064.250 0.00 0,0 1630.9,443.8 L 1630.9,443.8 1621.5,516.5 1611.8,583.7 1601.9,645.8 1591.8,703.0 1581.5,755.6 1571.1,803.8 1560.4,847.9 1549.5,888.0 1538.4,924.4 1527.1,957.2 1515.5,986.6 1503.6,1012.8 1491.4,1035.9 1478.8,1056.1 1465.9,1073.3 1452.5,1087.8 1438.7,1099.6 1424.3,1108.8 1409.4,1115.3 1393.9,1119.3 1377.6,1120.8 1360.7,1119.7 1342.9,1116.0 1324.2,1109.8 1304.5,1100.9 1283.8,1089.3 1262.0,1074.9 1238.9,1057.7 1214.6,1037.5 1188.8,1014.2 1161.5,987.7 1132.7,957.8 1102.1,924.3 1069.7,887.2 1035.3,846.0 998.9,800.8 960.3,751.2 919.4,696.9 876.1,637.8  Z" style="stroke-width: 2.0;  stroke: rgb(82,82,82); fill: rgb(255,153,0); opacity: 0.667;" />
<path d="M 876.066,637.832 A 1064.250,1064.250 0.00 0,1 879.4,635.4 L 879.4,635.4 922.6,694.7 963.5,749.0 1002.3,798.7 1039.0,844.1 1073.8,885.2 1106.8,922.5 1138.2,956.0 1167.9,985.9 1196.2,1012.6 1223.1,1035.9 1248.8,1056.3 1273.3,1073.7 1296.7,1088.2 1319.1,1100.1 1340.6,1109.2 1361.3,1115.8 1381.2,1119.9 1400.5,1121.4 1419.3,1120.5 1437.5,1117.1 1455.3,1111.1 1472.7,1102.7 1489.9,1091.7 1506.8,1078.0 1523.5,1061.7 1540.1,1042.5 1556.6,1020.4 1573.1,995.4 1589.6,967.1 1606.2,935.5 1622.9,900.5 1639.8,861.8 1656.8,819.2 1674.1,772.5 1691.6,721.5 1709.4,665.9 1727.4,605.5 1745.8,540.0 1764.6,469.2  A 1064.250,1064.250 0.00 0,0 1760.8,468.2 L 1760.8,468.2 1742.3,539.1 1724.1,604.7 1706.3,665.2 1688.7,720.8 1671.4,771.8 1654.3,818.6 1637.4,861.3 1620.7,900.0 1604.1,935.2 1587.6,966.8 1571.2,995.1 1554.8,1020.2 1538.4,1042.4 1521.8,1061.6 1505.2,1078.0 1488.3,1091.7 1471.2,1102.8 1453.8,1111.3 1436.1,1117.3 1417.8,1120.8 1399.1,1121.8 1379.8,1120.3 1359.8,1116.4 1339.1,1109.9 1317.5,1100.8 1295.1,1089.0 1271.6,1074.5 1247.1,1057.2 1221.4,1037.0 1194.3,1013.7 1166.0,987.2 1136.1,957.4 1104.6,924.0 1071.4,886.9 1036.5,845.9 999.6,800.7 960.6,751.1 919.5,696.9 876.1,637.8  Z" style="stroke-width: 2.0;  stroke: rgb(82,82,82); fill: rgb(255,204,0); opacity: 0.667;" />
<path d="M 876.066,637.832 A 1064.250,1064.250 0.00 0,1 879.4,635.4 L 879.4,635.4 922.2,694.8 962.0,749.6 998.8,799.9 1033.0,846.0 1064.5,888.2 1093.6,926.5 1120.3,961.2 1144.8,992.5 1167.2,1020.4 1187.6,1045.2 1206.0,1066.9 1222.6,1085.7 1237.4,1101.7 1250.5,1114.9 1261.9,1125.5 1271.8,1133.4 1280.1,1138.7 1286.9,1141.6 1292.2,1141.8 1296.1,1139.6 1298.6,1134.9 1299.6,1127.6 1299.2,1117.7 1297.3,1105.2 1294.0,1089.9 1289.2,1072.0 1282.9,1051.1 1275.1,1027.3 1265.7,1000.4 1254.6,970.3 1241.8,936.9 1227.2,900.0 1210.8,859.3 1192.5,814.9 1172.1,766.3 1149.5,713.6 1124.8,656.3 1097.7,594.3 1068.1,527.3  A 1064.250,1064.250 0.00 0,0 1064.4,529.0 L 1064.4,529.0 1094.2,595.8 1121.6,657.7 1146.5,714.9 1169.3,767.6 1189.8,816.1 1208.4,860.5 1224.9,901.0 1239.7,937.9 1252.6,971.3 1263.8,1001.3 1273.3,1028.2 1281.2,1052.0 1287.6,1072.8 1292.4,1090.7 1295.8,1105.9 1297.7,1118.5 1298.2,1128.3 1297.2,1135.6 1294.7,1140.4 1290.9,1142.7 1285.5,1142.4 1278.7,1139.6 1270.4,1134.3 1260.5,1126.4 1249.0,1115.9 1235.8,1102.7 1221.0,1086.8 1204.3,1068.0 1185.8,1046.4 1165.4,1021.7 1142.9,993.8 1118.3,962.7 1091.4,928.1 1062.2,889.9 1030.5,847.8 996.1,801.8 959.1,751.7 919.1,697.1 876.1,637.8  Z" style="stroke-width: 2.0;  stroke: rgb(82,82,82); fill: rgb(255,255,0); opacity: 0.667;" />
<path d="M 2045.073,585.930 A 1064.250,1064.250 0.00 0,1 2048.6,588.0 L 2048.6,588.0 2010.4,650.6 1974.3,708.1 1940.1,760.8 1907.7,809.0 1877.0,852.9 1847.9,892.7 1820.3,928.6 1794.2,960.9 1769.4,989.6 1745.8,1015.0 1723.3,1037.2 1701.9,1056.3 1681.5,1072.4 1662.0,1085.7 1643.4,1096.2 1625.4,1104.0 1608.2,1109.1 1591.5,1111.6 1575.5,1111.5 1559.8,1108.8 1544.7,1103.5 1529.8,1095.5 1515.3,1084.9 1501.1,1071.5 1487.0,1055.3 1473.1,1036.3 1459.4,1014.2 1445.7,989.0 1432.0,960.5 1418.4,928.7 1404.7,893.3 1390.9,854.1 1377.0,811.0 1363.1,763.7 1349.0,712.1 1334.7,655.8 1320.2,594.6 1305.6,528.3 1290.7,456.5  A 1064.250,1064.250 0.00 0,0 1286.7,457.3 L 1286.7,457.3 1301.9,529.0 1316.8,595.3 1331.4,656.4 1345.9,712.6 1360.2,764.2 1374.4,811.5 1388.4,854.5 1402.3,893.6 1416.2,929.0 1429.9,960.8 1443.7,989.2 1457.5,1014.3 1471.4,1036.4 1485.3,1055.4 1499.4,1071.5 1513.7,1084.8 1528.3,1095.4 1543.1,1103.3 1558.3,1108.6 1574.0,1111.2 1590.0,1111.3 1606.7,1108.7 1623.9,1103.5 1641.8,1095.7 1660.4,1085.1 1679.9,1071.7 1700.2,1055.5 1721.5,1036.3 1743.9,1014.0 1767.4,988.6 1792.1,959.7 1818.1,927.4 1845.6,891.4 1874.5,851.4 1905.0,807.4 1937.2,759.1 1971.2,706.3 2007.1,648.6 2045.1,585.9  Z" style="stroke-width: 2.0;  stroke: rgb(82,82,82); fill: rgb(204,255,0); opacity: 0.667;" />
<path d="M 2045.073,585.930 A 1064.250,1064.250 0.00 0,1 2048.6,588.0 L 2048.6,588.0 2010.6,650.7 1975.1,708.3 1941.8,761.2 1910.7,809.7 1881.7,853.8 1854.5,894.0 1829.3,930.2 1805.7,962.8 1783.9,991.9 1763.5,1017.6 1744.7,1040.1 1727.2,1059.4 1711.1,1075.8 1696.2,1089.2 1682.5,1099.8 1670.0,1107.7 1658.5,1112.8 1648.0,1115.2 1638.6,1114.9 1630.1,1111.9 1622.5,1106.3 1615.7,1097.9 1609.9,1086.8 1604.9,1072.9 1600.7,1056.1 1597.4,1036.3 1594.9,1013.4 1593.2,987.4 1592.3,958.1 1592.3,925.3 1593.2,889.0 1594.9,848.8 1597.6,804.7 1601.2,756.4 1605.8,703.7 1611.4,646.4 1618.1,584.3 1626.0,517.0 1635.0,444.3  A 1064.250,1064.250 0.00 0,0 1630.9,443.8 L 1630.9,443.8 1622.2,516.5 1614.6,583.8 1608.1,646.0 1602.7,703.3 1598.3,756.0 1594.9,804.3 1592.4,848.5 1590.8,888.6 1590.1,925.0 1590.2,957.8 1591.2,987.1 1593.0,1013.1 1595.6,1035.9 1599.0,1055.7 1603.2,1072.5 1608.3,1086.4 1614.2,1097.5 1620.9,1105.8 1628.6,1111.4 1637.1,1114.3 1646.6,1114.6 1657.0,1112.1 1668.5,1107.0 1681.0,1099.1 1694.6,1088.5 1709.5,1075.0 1725.5,1058.6 1742.9,1039.1 1761.7,1016.6 1781.9,990.8 1803.7,961.7 1827.1,929.0 1852.2,892.6 1879.2,852.4 1908.0,808.1 1938.9,759.5 1972.0,706.5 2007.3,648.7 2045.1,585.9  Z" style="stroke-width: 2.0;  stroke: rgb(82,82,82); fill: rgb(0,255,0); opacity: 0.667;" />
<path d="M 2045.073,585.930 A 1064.250,1064.250 0.00 0,1 2048.6,588.0 L 2048.6,588.0 2010.7,650.7 1975.4,708.4 1942.4,761.5 1911.8,810.1 1883.4,854.4 1857.0,894.8 1832.6,931.3 1810.0,964.2 1789.3,993.6 1770.1,1019.6 1752.6,1042.5 1736.7,1062.2 1722.1,1079.0 1709.0,1092.8 1697.2,1103.8 1686.6,1112.1 1677.3,1117.6 1669.2,1120.5 1662.2,1120.7 1656.3,1118.3 1651.6,1113.2 1647.9,1105.4 1645.3,1094.8 1643.8,1081.5 1643.4,1065.4 1644.0,1046.3 1645.7,1024.2 1648.6,998.9 1652.6,970.4 1657.7,938.5 1664.1,903.1 1671.6,864.0 1680.5,820.9 1690.8,773.8 1702.4,722.4 1715.6,666.5 1730.2,605.8 1746.5,540.1 1764.6,469.2  A 1064.250,1064.250 0.00 0,0 1760.8,468.2 L 1760.8,468.2 1743.0,539.2 1726.9,605.0 1712.5,665.7 1699.5,721.7 1688.1,773.1 1678.0,820.3 1669.3,863.3 1661.8,902.5 1655.6,938.0 1650.6,969.9 1646.7,998.4 1644.0,1023.6 1642.3,1045.7 1641.8,1064.8 1642.3,1081.0 1643.8,1094.3 1646.4,1104.8 1650.1,1112.6 1654.9,1117.7 1660.7,1120.1 1667.7,1119.9 1675.8,1117.0 1685.1,1111.4 1695.6,1103.1 1707.4,1092.0 1720.5,1078.1 1735.0,1061.3 1750.9,1041.5 1768.3,1018.6 1787.3,992.5 1808.0,963.0 1830.4,930.1 1854.7,893.4 1880.9,853.0 1909.2,808.5 1939.6,759.8 1972.3,706.6 2007.4,648.7 2045.1,585.9  Z" style="stroke-width: 2.0;  stroke: rgb(82,82,82); fill: rgb(53,128,0); opacity: 0.667;" />
<path d="M 2045.073,585.930 A 1064.250,1064.250 0.00 0,1 2048.6,588.0 L 2048.6,588.0 2010.3,650.6 1973.8,708.1 1938.9,760.7 1905.6,808.9 1873.8,852.8 1843.4,892.6 1814.2,928.6 1786.3,960.9 1759.5,989.8 1733.7,1015.5 1708.9,1038.0 1684.9,1057.5 1661.7,1074.2 1639.1,1088.1 1617.2,1099.4 1595.8,1108.1 1574.8,1114.2 1554.1,1117.9 1533.7,1119.1 1513.5,1117.8 1493.4,1114.1 1473.4,1107.9 1453.3,1099.2 1433.1,1088.0 1412.7,1074.1 1392.1,1057.5 1371.1,1038.1 1349.7,1015.7 1327.8,990.3 1305.4,961.7 1282.4,929.7 1258.6,894.2 1234.2,854.9 1208.9,811.6 1182.7,764.1 1155.6,712.3 1127.5,655.7 1098.4,594.1 1068.1,527.3  A 1064.250,1064.250 0.00 0,0 1064.4,529.0 L 1064.4,529.0 1094.9,595.7 1124.3,657.1 1152.6,713.6 1179.9,765.4 1206.3,812.7 1231.7,855.9 1256.3,895.1 1280.2,930.6 1303.3,962.5 1325.9,991.0 1347.8,1016.3 1369.3,1038.6 1390.4,1057.9 1411.1,1074.4 1431.5,1088.2 1451.8,1099.4 1471.9,1108.0 1492.0,1114.1 1512.1,1117.7 1532.3,1118.9 1552.6,1117.6 1573.3,1113.9 1594.2,1107.7 1615.6,1098.9 1637.6,1087.6 1660.0,1073.6 1683.2,1056.8 1707.1,1037.2 1731.9,1014.6 1757.5,988.8 1784.2,959.8 1812.0,927.4 1841.0,891.3 1871.3,851.3 1902.9,807.3 1936.0,759.1 1970.7,706.2 2007.0,648.6 2045.1,585.9  Z" style="stroke-width: 2.0;  stroke: rgb(82,82,82); fill: rgb(0,0,204); opacity: 0.667;" />
<path d="M 2045.073,585.930 A 1064.250,1064.250 0.00 0,1 2048.6,588.0 L 2048.6,588.0 2010.2,650.6 1973.3,708.1 1937.8,760.8 1903.7,809.0 1870.9,853.0 1839.2,893.0 1808.7,929.2 1779.2,961.9 1750.6,991.3 1722.9,1017.5 1695.9,1040.7 1669.6,1061.0 1643.9,1078.7 1618.7,1093.7 1594.0,1106.2 1569.5,1116.3 1545.3,1124.1 1521.2,1129.6 1497.2,1132.8 1473.1,1133.8 1448.9,1132.5 1424.4,1129.0 1399.7,1123.2 1374.5,1115.1 1348.8,1104.6 1322.4,1091.7 1295.4,1076.2 1267.6,1058.0 1238.8,1037.1 1209.1,1013.3 1178.2,986.3 1146.2,956.1 1112.8,922.4 1078.0,885.1 1041.7,844.0 1003.8,798.7 964.2,749.0 922.8,694.7 879.4,635.4  A 1064.250,1064.250 0.00 0,0 876.1,637.8 L 876.1,637.8 919.7,696.9 961.3,751.1 1001.1,800.6 1039.2,845.7 1075.6,886.8 1110.6,923.9 1144.1,957.5 1176.2,987.6 1207.2,1014.4 1237.0,1038.1 1265.9,1058.9 1293.8,1077.0 1320.9,1092.4 1347.2,1105.2 1373.0,1115.6 1398.2,1123.6 1423.0,1129.3 1447.5,1132.7 1471.7,1133.9 1495.8,1132.8 1519.8,1129.5 1543.8,1123.9 1568.0,1116.1 1592.4,1105.9 1617.2,1093.2 1642.3,1078.1 1667.9,1060.4 1694.1,1039.9 1721.0,1016.6 1748.6,990.3 1777.1,960.9 1806.5,928.1 1836.9,891.7 1868.3,851.6 1901.0,807.5 1934.9,759.1 1970.2,706.3 2006.9,648.6 2045.1,585.9  Z" style="stroke-width: 2.0;  stroke: rgb(82,82,82); fill: rgb(102,153,255); opacity: 0.667;" />
<path d="M 2212.326,709.292 A 1064.250,1064.250 0.00 0,1 2215.3,712.0 L 2215.3,712.0 2165.6,765.9 2118.7,815.2 2074.3,860.1 2032.4,900.9 1992.8,937.8 1955.4,971.0 1920.0,1000.6 1886.5,1026.9 1854.8,1050.1 1824.8,1070.2 1796.3,1087.5 1769.2,1102.0 1743.5,1113.8 1719.1,1123.0 1695.7,1129.8 1673.4,1134.1 1652.0,1135.9 1631.5,1135.4 1611.8,1132.6 1592.7,1127.3 1574.3,1119.6 1556.5,1109.5 1539.1,1097.0 1522.1,1081.8 1505.6,1064.0 1489.3,1043.5 1473.3,1020.2 1457.6,993.9 1442.0,964.5 1426.6,931.8 1411.2,895.6 1396.0,855.8 1380.9,812.2 1365.8,764.5 1350.7,712.6 1335.7,656.1 1320.7,594.7 1305.7,528.3 1290.7,456.5  A 1064.250,1064.250 0.00 0,0 1286.7,457.3 L 1286.7,457.3 1302.0,529.1 1317.2,595.4 1332.5,656.7 1347.7,713.1 1363.0,765.1 1378.3,812.7 1393.6,856.2 1408.9,896.0 1424.4,932.0 1439.9,964.7 1455.6,994.1 1471.5,1020.3 1487.6,1043.6 1503.9,1064.0 1520.5,1081.7 1537.5,1096.8 1555.0,1109.3 1572.9,1119.3 1591.3,1126.9 1610.4,1132.1 1630.1,1134.9 1650.6,1135.4 1672.0,1133.4 1694.3,1129.0 1717.6,1122.2 1742.1,1112.9 1767.7,1101.0 1794.7,1086.4 1823.1,1069.0 1853.1,1048.7 1884.7,1025.5 1918.0,999.0 1953.3,969.2 1990.6,935.9 2030.1,898.9 2071.9,858.0 2116.0,812.9 2162.8,763.4 2212.3,709.3  Z" style="stroke-width: 2.0;  stroke: rgb(82,82,82); fill: rgb(153,204,255); opacity: 0.667;" />
<path d="M 2212.326,709.292 A 1064.250,1064.250 0.00 0,1 2215.3,712.0 L 2215.3,712.0 2165.8,766.0 2119.4,815.5 2076.0,860.7 2035.3,901.8 1997.3,939.1 1961.8,972.7 1928.7,1002.9 1897.8,1029.7 1869.0,1053.3 1842.2,1073.9 1817.3,1091.6 1794.1,1106.5 1772.7,1118.6 1752.8,1128.1 1734.4,1135.0 1717.4,1139.4 1701.8,1141.3 1687.5,1140.8 1674.3,1137.7 1662.4,1132.2 1651.6,1124.2 1641.8,1113.7 1633.1,1100.6 1625.4,1084.8 1618.8,1066.3 1613.1,1045.0 1608.4,1020.8 1604.7,993.5 1601.9,963.1 1600.2,929.3 1599.5,892.1 1599.8,851.2 1601.3,806.4 1603.8,757.6 1607.5,704.5 1612.4,646.9 1618.6,584.5 1626.1,517.1 1635.0,444.3  A 1064.250,1064.250 0.00 0,0 1630.9,443.8 L 1630.9,443.8 1622.3,516.6 1615.0,584.0 1609.1,646.4 1604.4,704.1 1600.9,757.2 1598.6,806.0 1597.3,850.8 1597.2,891.7 1598.0,929.0 1599.9,962.7 1602.7,993.1 1606.5,1020.4 1611.3,1044.6 1617.1,1065.9 1623.8,1084.3 1631.6,1100.0 1640.3,1113.1 1650.1,1123.6 1661.0,1131.6 1672.9,1137.1 1686.1,1140.1 1700.4,1140.6 1716.0,1138.6 1733.0,1134.2 1751.4,1127.2 1771.2,1117.6 1792.6,1105.3 1815.7,1090.4 1840.6,1072.6 1867.3,1051.9 1896.0,1028.2 1926.8,1001.2 1959.8,971.0 1995.2,937.2 2033.0,899.8 2073.5,858.5 2116.8,813.1 2163.0,763.5 2212.3,709.3  Z" style="stroke-width: 2.0;  stroke: rgb(82,82,82); fill: rgb(0,255,255); opacity: 0.667;" />
<path d="M 2212.326,709.292 A 1064.250,1064.250 0.00 0,1 2215.3,712.0 L 2215.3,712.0 2165.9,766.0 2119.7,815.6 2076.6,861.0 2036.4,902.3 1999.0,939.8 1964.2,973.7 1931.9,1004.2 1902.0,1031.4 1874.2,1055.4 1848.6,1076.4 1825.0,1094.4 1803.3,1109.7 1783.4,1122.3 1765.3,1132.3 1748.7,1139.6 1733.8,1144.5 1720.3,1146.9 1708.3,1146.8 1697.7,1144.3 1688.4,1139.3 1680.4,1131.8 1673.7,1121.8 1668.3,1109.2 1664.1,1094.1 1661.2,1076.2 1659.5,1055.5 1659.1,1032.0 1659.9,1005.5 1662.0,975.8 1665.5,942.9 1670.3,906.5 1676.5,866.6 1684.1,822.9 1693.3,775.2 1704.1,723.3 1716.5,667.0 1730.7,606.0 1746.7,540.2 1764.6,469.2  A 1064.250,1064.250 0.00 0,0 1760.8,468.2 L 1760.8,468.2 1743.1,539.3 1727.4,605.2 1713.4,666.2 1701.2,722.5 1690.6,774.4 1681.6,822.2 1674.1,865.9 1668.1,905.9 1663.4,942.3 1660.1,975.2 1658.1,1004.9 1657.3,1031.4 1657.8,1054.9 1659.6,1075.6 1662.6,1093.4 1666.8,1108.6 1672.3,1121.1 1679.0,1131.1 1687.0,1138.5 1696.3,1143.5 1707.0,1146.0 1719.0,1146.1 1732.4,1143.6 1747.4,1138.7 1763.9,1131.3 1782.0,1121.2 1801.9,1108.6 1823.5,1093.2 1847.0,1075.0 1872.5,1053.9 1900.2,1029.8 1930.0,1002.6 1962.2,972.0 1996.8,937.9 2034.1,900.3 2074.1,858.8 2117.1,813.3 2163.1,763.5 2212.3,709.3  Z" style="stroke-width: 2.0;  stroke: rgb(82,82,82); fill: rgb(204,255,255); opacity: 0.667;" />
<path d="M 2212.326,709.292 A 1064.250,1064.250 0.00 0,1 2215.3,712.0 L 2215.3,712.0 2165.5,765.9 2118.1,815.1 2073.1,860.0 2030.3,900.6 1989.6,937.4 1950.9,970.5 1913.9,1000.1 1878.7,1026.4 1845.1,1049.7 1812.9,1070.0 1782.0,1087.5 1752.4,1102.3 1723.9,1114.6 1696.4,1124.4 1669.8,1131.8 1643.9,1136.9 1618.8,1139.8 1594.3,1140.4 1570.3,1138.8 1546.6,1135.0 1523.3,1129.0 1500.2,1120.7 1477.3,1110.1 1454.4,1097.1 1431.4,1081.7 1408.4,1063.8 1385.2,1043.2 1361.7,1019.8 1337.9,993.5 1313.7,964.1 1289.0,931.5 1263.8,895.5 1238.1,855.7 1211.7,812.2 1184.5,764.5 1156.7,712.4 1128.0,655.8 1098.5,594.2 1068.1,527.3  A 1064.250,1064.250 0.00 0,0 1064.4,529.0 L 1064.4,529.0 1095.0,595.7 1124.8,657.2 1153.7,713.8 1181.7,765.7 1209.0,813.3 1235.6,856.8 1261.5,896.4 1286.9,932.3 1311.6,964.9 1336.0,994.1 1359.9,1020.3 1383.4,1043.6 1406.7,1064.1 1429.8,1082.0 1452.8,1097.3 1475.8,1110.2 1498.8,1120.7 1521.9,1128.9 1545.2,1134.8 1568.9,1138.5 1592.9,1140.0 1617.4,1139.3 1642.6,1136.4 1668.3,1131.2 1694.9,1123.6 1722.4,1113.7 1750.9,1101.3 1780.4,1086.4 1811.2,1068.8 1843.3,1048.4 1876.9,1025.0 1912.0,998.5 1948.8,968.8 1987.5,935.5 2028.0,898.6 2070.7,857.8 2115.5,812.8 2162.7,763.4 2212.3,709.3  Z" style="stroke-width: 2.0;  stroke: rgb(82,82,82); fill: rgb(153,0,204); opacity: 0.667;" />
<path d="M 2212.326,709.292 A 1064.250,1064.250 0.00 0,1 2215.3,712.0 L 2215.3,712.0 2165.4,765.9 2117.6,815.1 2072.0,859.9 2028.4,900.6 1986.7,937.4 1946.7,970.6 1908.4,1000.4 1871.6,1027.0 1836.2,1050.5 1802.0,1071.3 1769.1,1089.4 1737.1,1104.9 1706.2,1118.1 1676.0,1128.9 1646.6,1137.6 1617.8,1144.1 1589.4,1148.5 1561.5,1150.9 1533.8,1151.3 1506.3,1149.7 1478.8,1146.2 1451.3,1140.6 1423.7,1132.9 1395.8,1123.2 1367.5,1111.2 1338.8,1097.0 1309.6,1080.4 1279.6,1061.3 1249.0,1039.6 1217.4,1015.1 1184.9,987.6 1151.4,957.0 1116.7,923.0 1080.8,885.5 1043.5,844.1 1004.9,798.7 964.7,749.0 922.9,694.7 879.4,635.4  A 1064.250,1064.250 0.00 0,0 876.1,637.8 L 876.1,637.8 919.8,696.9 961.8,751.1 1002.2,800.6 1041.0,845.9 1078.4,887.1 1114.5,924.5 1149.3,958.3 1182.9,988.8 1215.5,1016.2 1247.2,1040.6 1277.9,1062.2 1307.9,1081.2 1337.3,1097.6 1366.0,1111.7 1394.3,1123.6 1422.3,1133.2 1450.0,1140.8 1477.5,1146.3 1504.9,1149.7 1532.5,1151.2 1560.1,1150.7 1588.1,1148.2 1616.4,1143.6 1645.2,1137.0 1674.6,1128.2 1704.7,1117.3 1735.6,1104.0 1767.5,1088.4 1800.4,1070.1 1834.4,1049.3 1869.8,1025.5 1906.5,998.8 1944.7,968.9 1984.5,935.5 2026.1,898.6 2069.6,857.7 2115.0,812.7 2162.6,763.4 2212.3,709.3  Z" style="stroke-width: 2.0;  stroke: rgb(82,82,82); fill: rgb(204,51,255); opacity: 0.667;" />
<path d="M 2212.326,709.292 A 1064.250,1064.250 0.00 0,1 2215.3,712.0 L 2215.3,712.0 2166.0,766.1 2120.3,816.0 2077.9,861.8 2038.8,903.7 2002.7,942.0 1969.4,976.8 1939.0,1008.3 1911.1,1036.6 1885.8,1061.8 1862.8,1084.2 1842.1,1103.7 1823.6,1120.5 1807.1,1134.8 1792.7,1146.5 1780.3,1155.7 1769.7,1162.6 1761.0,1167.0 1754.0,1169.1 1748.8,1168.9 1745.4,1166.4 1743.7,1161.5 1743.7,1154.2 1745.5,1144.6 1749.0,1132.5 1754.2,1117.9 1761.3,1100.7 1770.2,1080.9 1781.0,1058.3 1793.8,1032.8 1808.5,1004.4 1825.4,972.8 1844.5,938.0 1865.8,899.8 1889.6,858.0 1915.8,812.3 1944.7,762.8 1976.4,709.0 2011.0,650.8 2048.6,588.0  A 1064.250,1064.250 0.00 0,0 2045.1,585.9 L 2045.1,585.9 2007.7,648.9 1973.3,707.2 1941.9,761.0 1913.2,810.7 1887.1,856.5 1863.5,898.4 1842.3,936.7 1823.4,971.6 1806.6,1003.2 1792.0,1031.7 1779.3,1057.2 1768.6,1079.8 1759.8,1099.7 1752.8,1116.9 1747.6,1131.5 1744.1,1143.6 1742.4,1153.3 1742.4,1160.5 1744.1,1165.4 1747.6,1168.0 1752.7,1168.2 1759.7,1166.0 1768.4,1161.5 1779.0,1154.7 1791.4,1145.4 1805.7,1133.6 1822.1,1119.3 1840.6,1102.4 1861.2,1082.8 1884.1,1060.3 1909.3,1035.0 1937.1,1006.6 1967.4,975.0 2000.5,940.1 2036.5,901.7 2075.5,859.6 2117.7,813.6 2163.2,763.6 2212.3,709.3  Z" style="stroke-width: 2.0;  stroke: rgb(82,82,82); fill: rgb(204,153,255); opacity: 0.667;" />
<path d="M 435.750,1499.621 A 1064.250,1064.250 0.00 0,1 435.8,1495.6 L 435.8,1495.6 509.3,1495.1 577.8,1493.1 641.6,1489.7 701.1,1485.0 756.5,1479.0 808.0,1471.9 855.9,1463.7 900.4,1454.5 941.8,1444.2 980.2,1433.0 1015.9,1420.9 1049.0,1407.8 1079.7,1393.8 1108.2,1378.8 1134.6,1362.9 1159.0,1346.0 1181.6,1328.0 1202.4,1309.0 1221.5,1288.8 1239.2,1267.4 1255.3,1244.7 1269.9,1220.6 1283.2,1195.0 1295.1,1167.8 1305.6,1138.9 1314.8,1108.1 1322.7,1075.2 1329.1,1040.2 1334.2,1002.9 1337.8,963.0 1339.9,920.4 1340.4,874.9 1339.2,826.4 1336.2,774.4 1331.4,719.0 1324.6,659.7 1315.7,596.4 1304.4,528.7 1290.7,456.5  A 1064.250,1064.250 0.00 0,0 1286.7,457.3 L 1286.7,457.3 1300.7,529.5 1312.2,597.1 1321.4,660.4 1328.4,719.6 1333.5,775.1 1336.6,827.0 1338.0,875.6 1337.6,921.0 1335.7,963.6 1332.3,1003.5 1327.4,1040.9 1321.0,1075.9 1313.3,1108.8 1304.3,1139.6 1293.8,1168.6 1282.0,1195.9 1268.9,1221.5 1254.3,1245.7 1238.3,1268.4 1220.7,1289.9 1201.6,1310.1 1180.9,1329.2 1158.4,1347.3 1134.1,1364.3 1107.7,1380.3 1079.3,1395.4 1048.7,1409.5 1015.6,1422.7 980.0,1435.0 941.6,1446.4 900.3,1456.7 855.8,1466.2 807.9,1474.5 756.4,1481.9 701.1,1488.0 641.6,1493.0 577.8,1496.6 509.2,1498.9 435.8,1499.6  Z" style="stroke-width: 2.0;  stroke: rgb(82,82,82); fill: rgb(102,102,102); opacity: 0.667;" />
<path d="M 435.750,1499.621 A 1064.250,1064.250 0.00 0,1 435.8,1495.6 L 435.8,1495.6 509.4,1494.9 578.4,1492.5 642.9,1488.5 703.4,1483.0 760.1,1476.2 813.2,1468.0 863.0,1458.7 909.7,1448.3 953.6,1436.9 994.9,1424.6 1033.8,1411.3 1070.5,1397.1 1105.1,1382.1 1137.9,1366.2 1169.0,1349.5 1198.5,1331.8 1226.7,1313.3 1253.6,1293.7 1279.3,1273.2 1304.0,1251.5 1327.8,1228.7 1350.7,1204.6 1372.8,1179.1 1394.1,1152.1 1414.8,1123.5 1434.8,1093.1 1454.3,1060.7 1473.1,1026.2 1491.4,989.4 1509.0,950.1 1526.1,908.0 1542.5,863.1 1558.3,814.9 1573.3,763.3 1587.5,708.1 1600.9,648.8 1613.3,585.3 1624.7,517.3 1635.0,444.3  A 1064.250,1064.250 0.00 0,0 1630.9,443.8 L 1630.9,443.8 1621.0,516.8 1609.8,584.9 1597.6,648.4 1584.5,707.7 1570.5,763.1 1555.6,814.7 1540.1,862.9 1523.8,907.9 1506.9,950.0 1489.4,989.4 1471.3,1026.3 1452.6,1060.9 1433.3,1093.3 1413.4,1123.8 1392.8,1152.5 1371.5,1179.6 1349.5,1205.2 1326.7,1229.4 1303.1,1252.3 1278.5,1274.0 1252.8,1294.7 1226.0,1314.3 1197.9,1333.0 1168.4,1350.7 1137.4,1367.6 1104.6,1383.6 1070.1,1398.8 1033.4,1413.1 994.6,1426.5 953.4,1439.0 909.5,1450.6 862.8,1461.2 813.1,1470.7 760.0,1479.0 703.4,1486.1 642.9,1491.8 578.3,1496.1 509.4,1498.7 435.8,1499.6  Z" style="stroke-width: 2.0;  stroke: rgb(82,82,82); fill: rgb(153,153,153); opacity: 0.667;" />
<path d="M 435.750,1499.621 A 1064.250,1064.250 0.00 0,1 435.8,1495.6 L 435.8,1495.6 509.5,1494.9 578.6,1492.4 643.5,1488.2 704.4,1482.4 761.6,1475.3 815.3,1466.8 865.9,1457.2 913.5,1446.6 958.4,1434.9 1000.8,1422.3 1040.9,1408.8 1079.0,1394.5 1115.1,1379.4 1149.6,1363.5 1182.5,1346.8 1214.0,1329.3 1244.3,1310.9 1273.5,1291.7 1301.7,1271.6 1329.1,1250.5 1355.7,1228.2 1381.7,1204.8 1407.1,1180.2 1432.0,1154.1 1456.4,1126.5 1480.5,1097.2 1504.3,1066.0 1527.7,1032.8 1550.9,997.4 1573.8,959.5 1596.5,919.0 1618.8,875.6 1640.9,829.1 1662.6,779.3 1684.0,725.7 1704.9,668.3 1725.4,606.6 1745.3,540.3 1764.6,469.2  A 1064.250,1064.250 0.00 0,0 1760.8,468.2 L 1760.8,468.2 1741.8,539.4 1722.1,605.7 1701.9,667.5 1681.1,725.1 1660.0,778.7 1638.4,828.6 1616.5,875.2 1594.3,918.7 1571.8,959.2 1549.1,997.2 1526.0,1032.7 1502.7,1066.0 1479.0,1097.2 1455.1,1126.6 1430.7,1154.4 1405.9,1180.5 1380.6,1205.3 1354.7,1228.8 1328.2,1251.1 1300.9,1272.4 1272.7,1292.6 1243.6,1311.9 1213.4,1330.4 1181.9,1348.0 1149.1,1364.8 1114.7,1380.9 1078.6,1396.1 1040.6,1410.6 1000.5,1424.2 958.1,1437.0 913.3,1448.8 865.7,1459.7 815.2,1469.5 761.5,1478.1 704.3,1485.5 643.4,1491.4 578.6,1495.9 509.4,1498.7 435.8,1499.6  Z" style="stroke-width: 2.0;  stroke: rgb(82,82,82); fill: rgb(204,204,204); opacity: 0.667;" />
<path d="M 435.750,1499.621 A 1064.250,1064.250 0.00 0,1 435.8,1495.6 L 435.8,1495.6 509.2,1495.2 577.4,1493.5 640.9,1490.6 699.8,1486.5 754.4,1481.3 804.9,1475.1 851.7,1467.9 894.8,1459.7 934.7,1450.6 971.3,1440.6 1005.0,1429.7 1035.9,1417.9 1064.1,1405.2 1089.8,1391.6 1113.2,1377.0 1134.3,1361.5 1153.3,1345.0 1170.2,1327.3 1185.1,1308.6 1198.2,1288.7 1209.3,1267.4 1218.7,1244.9 1226.2,1220.9 1231.9,1195.3 1235.9,1168.0 1238.0,1139.0 1238.3,1108.0 1236.6,1075.0 1233.1,1039.8 1227.5,1002.2 1219.8,962.1 1210.0,919.3 1197.8,873.6 1183.1,824.8 1165.9,772.7 1146.0,717.2 1123.2,657.9 1097.2,594.7 1068.1,527.3  A 1064.250,1064.250 0.00 0,0 1064.4,529.0 L 1064.4,529.0 1093.8,596.3 1119.9,659.3 1143.0,718.5 1163.1,774.0 1180.5,826.0 1195.4,874.7 1207.7,920.4 1217.8,963.2 1225.6,1003.2 1231.3,1040.8 1235.0,1076.0 1236.8,1109.0 1236.6,1140.0 1234.6,1169.0 1230.8,1196.3 1225.1,1221.9 1217.7,1246.0 1208.4,1268.6 1197.4,1289.8 1184.4,1309.8 1169.5,1328.6 1152.7,1346.3 1133.8,1362.9 1112.7,1378.5 1089.4,1393.2 1063.7,1406.9 1035.6,1419.7 1004.7,1431.6 971.1,1442.6 934.5,1452.8 894.7,1462.0 851.5,1470.4 804.8,1477.8 754.3,1484.2 699.7,1489.6 640.9,1493.9 577.4,1497.0 509.2,1499.0 435.8,1499.6  Z" style="stroke-width: 2.0;  stroke: rgb(82,82,82); fill: rgb(204,204,153); opacity: 0.667;" />
<path d="M 435.750,1499.621 A 1064.250,1064.250 0.00 0,1 435.8,1495.6 L 435.8,1495.6 509.1,1495.3 577.2,1493.9 640.3,1491.5 698.7,1488.1 752.6,1483.7 802.4,1478.5 848.2,1472.3 890.3,1465.4 928.8,1457.6 964.0,1449.0 996.0,1439.5 1025.1,1429.3 1051.2,1418.2 1074.7,1406.3 1095.5,1393.6 1113.8,1379.9 1129.8,1365.3 1143.4,1349.7 1154.7,1333.1 1163.9,1315.4 1170.8,1296.5 1175.6,1276.4 1178.3,1255.0 1178.8,1232.1 1177.1,1207.7 1173.2,1181.7 1167.0,1154.0 1158.6,1124.4 1147.7,1092.9 1134.3,1059.2 1118.3,1023.3 1099.6,985.0 1078.0,944.1 1053.5,900.5 1025.7,854.0 994.7,804.4 960.1,751.6 921.7,695.3 879.4,635.4  A 1064.250,1064.250 0.00 0,0 876.1,637.8 L 876.1,637.8 918.6,697.6 957.2,753.7 992.0,806.4 1023.3,855.8 1051.2,902.2 1075.9,945.7 1097.6,986.5 1116.5,1024.8 1132.6,1060.6 1146.1,1094.2 1157.1,1125.7 1165.7,1155.3 1172.0,1183.0 1176.0,1209.0 1177.7,1233.3 1177.3,1256.2 1174.8,1277.7 1170.0,1297.8 1163.2,1316.7 1154.1,1334.5 1142.8,1351.1 1129.3,1366.7 1113.4,1381.4 1095.1,1395.1 1074.3,1408.0 1050.9,1420.0 1024.8,1431.1 995.8,1441.5 963.8,1451.0 928.7,1459.8 890.2,1467.7 848.1,1474.8 802.3,1481.1 752.6,1486.6 698.6,1491.2 640.3,1494.8 577.2,1497.4 509.1,1499.1 435.8,1499.6  Z" style="stroke-width: 2.0;  stroke: rgb(82,82,82); fill: rgb(251,106,74); opacity: 0.667;" />
<path d="M 435.750,1499.621 A 1064.250,1064.250 0.00 0,1 435.8,1495.6 L 435.8,1495.6 509.6,1494.8 579.2,1492.0 644.8,1487.4 706.7,1481.3 765.2,1473.6 820.5,1464.7 872.9,1454.7 922.6,1443.6 969.8,1431.7 1014.9,1419.0 1057.9,1405.5 1099.1,1391.4 1138.7,1376.8 1176.9,1361.5 1213.9,1345.7 1249.8,1329.4 1284.8,1312.6 1319.1,1295.2 1352.7,1277.2 1386.0,1258.5 1418.8,1239.0 1451.5,1218.8 1484.1,1197.6 1516.7,1175.4 1549.3,1152.0 1582.2,1127.2 1615.3,1101.0 1648.7,1073.1 1682.6,1043.3 1716.8,1011.4 1751.5,977.2 1786.8,940.4 1822.6,900.9 1858.9,858.2 1895.7,812.2 1933.2,762.5 1971.1,708.8 2009.6,650.8 2048.6,588.0  A 1064.250,1064.250 0.00 0,0 2045.1,585.9 L 2045.1,585.9 2006.3,648.8 1968.1,707.0 1930.3,760.8 1893.1,810.7 1856.4,856.9 1820.2,899.6 1784.6,939.3 1749.5,976.2 1714.9,1010.5 1680.8,1042.6 1647.1,1072.5 1613.8,1100.5 1580.8,1126.9 1548.0,1151.8 1515.4,1175.3 1482.9,1197.7 1450.4,1219.0 1417.8,1239.4 1385.0,1258.9 1351.9,1277.7 1318.3,1295.9 1284.1,1313.4 1249.1,1330.4 1213.3,1346.8 1176.4,1362.8 1138.2,1378.1 1098.7,1393.0 1057.5,1407.2 1014.5,1420.8 969.6,1433.7 922.4,1445.8 872.7,1457.1 820.4,1467.3 765.1,1476.4 706.6,1484.3 644.8,1490.7 579.2,1495.5 509.6,1498.6 435.8,1499.6  Z" style="stroke-width: 2.0;  stroke: rgb(82,82,82); fill: rgb(116,196,118); opacity: 0.667;" />
<path d="M 435.750,1499.621 A 1064.250,1064.250 0.00 0,1 435.8,1495.6 L 435.8,1495.6 509.7,1494.7 579.6,1491.8 645.7,1487.1 708.4,1480.7 767.7,1472.9 824.1,1463.8 877.7,1453.7 928.8,1442.6 977.5,1430.8 1024.3,1418.3 1069.1,1405.3 1112.3,1391.7 1154.1,1377.8 1194.6,1363.6 1234.1,1349.0 1272.6,1334.1 1310.5,1319.0 1347.8,1303.5 1384.7,1287.8 1421.3,1271.6 1457.9,1255.1 1494.4,1238.0 1531.2,1220.3 1568.2,1201.9 1605.6,1182.6 1643.4,1162.4 1681.9,1141.0 1721.1,1118.2 1761.0,1093.9 1801.8,1067.9 1843.4,1039.9 1886.1,1009.7 1929.7,977.0 1974.5,941.6 2020.3,903.1 2067.3,861.2 2115.5,815.6 2164.8,766.0 2215.3,712.0  A 1064.250,1064.250 0.00 0,0 2212.3,709.3 L 2212.3,709.3 2162.0,763.5 2112.8,813.3 2064.9,859.0 2018.0,901.1 1972.3,939.8 1927.7,975.4 1884.2,1008.2 1841.7,1038.6 1800.1,1066.8 1759.4,1092.9 1719.6,1117.4 1680.5,1140.3 1642.2,1161.8 1604.3,1182.2 1567.0,1201.6 1530.1,1220.2 1493.4,1238.0 1456.9,1255.2 1420.5,1271.9 1383.9,1288.2 1347.0,1304.1 1309.8,1319.7 1272.0,1335.0 1233.5,1350.0 1194.1,1364.7 1153.6,1379.1 1111.9,1393.2 1068.8,1406.9 1023.9,1420.1 977.3,1432.8 928.5,1444.8 877.5,1456.1 823.9,1466.4 767.6,1475.7 708.3,1483.7 645.7,1490.4 579.6,1495.4 509.7,1498.5 435.8,1499.6  Z" style="stroke-width: 2.0;  stroke: rgb(82,82,82); fill: rgb(107,174,214); opacity: 0.667;" />
<path d="M 2275.769,2228.568 A 1064.250,1064.250 0.00 0,1 2273.0,2231.5 L 2273.0,2231.5 2220.0,2179.8 2171.2,2129.1 2126.3,2079.5 2084.9,2031.0 2046.7,1983.6 2011.4,1937.3 1978.5,1892.1 1948.0,1847.9 1919.4,1804.8 1892.6,1762.7 1867.2,1721.5 1843.1,1681.2 1820.0,1641.7 1797.8,1602.9 1776.2,1564.8 1755.2,1527.2 1734.5,1490.0 1714.1,1453.2 1693.9,1416.6 1673.6,1380.0 1653.4,1343.4 1633.0,1306.6 1612.5,1269.3 1591.8,1231.6 1570.9,1193.0 1549.9,1153.6 1528.7,1113.1 1507.3,1071.2 1485.9,1027.9 1464.5,982.7 1443.1,935.6 1422.0,886.3 1401.1,834.5 1380.7,779.9 1360.8,722.4 1341.7,661.6 1323.5,597.2 1306.4,528.9 1290.7,456.5  A 1064.250,1064.250 0.00 0,0 1286.7,457.3 L 1286.7,457.3 1302.7,529.7 1320.0,597.9 1338.5,662.2 1357.8,722.9 1377.9,780.4 1398.5,834.9 1419.6,886.6 1441.0,935.8 1462.5,982.9 1484.1,1027.9 1505.7,1071.2 1527.2,1113.0 1548.6,1153.4 1569.8,1192.8 1590.8,1231.2 1611.6,1268.9 1632.3,1306.1 1652.8,1342.8 1673.2,1379.4 1693.5,1415.9 1714.0,1452.4 1734.5,1489.1 1755.3,1526.2 1776.5,1563.7 1798.2,1601.8 1820.5,1640.5 1843.8,1679.9 1868.0,1720.1 1893.6,1761.2 1920.6,1803.2 1949.3,1846.2 1980.0,1890.2 2013.0,1935.3 2048.6,1981.5 2087.0,2028.7 2128.5,2077.1 2173.6,2126.5 2222.6,2177.0 2275.8,2228.6  Z" style="stroke-width: 2.0;  stroke: rgb(82,82,82); fill: rgb(253,141,60); opacity: 0.667;" />
<path d="M 2275.769,2228.568 A 1064.250,1064.250 0.00 0,1 2273.0,2231.5 L 2273.0,2231.5 2220.0,2180.0 2171.6,2129.8 2127.1,2080.9 2086.5,2033.4 2049.2,1987.1 2015.0,1942.1 1983.7,1898.2 1954.9,1855.4 1928.4,1813.7 1904.0,1772.9 1881.4,1732.9 1860.4,1693.8 1840.9,1655.3 1822.7,1617.4 1805.6,1580.0 1789.5,1543.0 1774.3,1506.2 1759.8,1469.6 1746.1,1432.9 1732.9,1396.1 1720.4,1359.0 1708.3,1321.5 1696.8,1283.4 1685.8,1244.5 1675.4,1204.8 1665.5,1163.9 1656.2,1121.8 1647.7,1078.2 1639.9,1033.0 1632.9,985.9 1627.0,936.8 1622.2,885.5 1618.7,831.7 1616.6,775.2 1616.1,715.8 1617.5,653.3 1621.0,587.3 1626.7,517.8 1635.0,444.3  A 1064.250,1064.250 0.00 0,0 1630.9,443.8 L 1630.9,443.8 1622.9,517.3 1617.5,586.9 1614.3,652.8 1613.1,715.4 1613.8,774.8 1616.1,831.3 1619.8,885.0 1624.8,936.4 1630.9,985.4 1638.1,1032.5 1646.0,1077.6 1654.8,1121.2 1664.2,1163.3 1674.2,1204.1 1684.9,1243.8 1696.0,1282.6 1707.6,1320.7 1719.8,1358.2 1732.5,1395.2 1745.8,1432.0 1759.7,1468.6 1774.3,1505.2 1789.7,1541.9 1805.9,1578.9 1823.1,1616.2 1841.5,1654.0 1861.2,1692.4 1882.3,1731.5 1905.0,1771.3 1929.6,1812.0 1956.3,1853.7 1985.2,1896.4 2016.7,1940.1 2051.1,1985.0 2088.5,2031.1 2129.4,2078.5 2174.0,2127.2 2222.7,2177.2 2275.8,2228.6  Z" style="stroke-width: 2.0;  stroke: rgb(82,82,82); fill: rgb(255,0,0); opacity: 0.667;" />
<path d="M 2275.769,2228.568 A 1064.250,1064.250 0.00 0,1 2273.0,2231.5 L 2273.0,2231.5 2220.1,2180.0 2171.7,2130.0 2127.4,2081.5 2086.9,2034.4 2050.0,1988.6 2016.2,1944.1 1985.4,1900.9 1957.2,1858.7 1931.4,1817.6 1907.8,1777.5 1886.2,1738.3 1866.4,1699.8 1848.2,1662.0 1831.5,1624.8 1816.0,1588.0 1801.7,1551.6 1788.5,1515.4 1776.3,1479.3 1765.0,1443.2 1754.5,1406.9 1744.9,1370.3 1736.0,1333.3 1727.9,1295.6 1720.6,1257.2 1714.1,1217.8 1708.4,1177.4 1703.7,1135.7 1700.0,1092.6 1697.4,1047.9 1696.0,1001.4 1695.9,952.9 1697.3,902.2 1700.3,849.2 1705.2,793.5 1712.1,735.1 1721.3,673.7 1732.9,609.0 1747.2,540.9 1764.6,469.2  A 1064.250,1064.250 0.00 0,0 1760.8,468.2 L 1760.8,468.2 1743.7,540.0 1729.6,608.2 1718.2,672.9 1709.3,734.3 1702.6,792.8 1697.9,848.4 1695.1,901.5 1693.9,952.2 1694.1,1000.7 1695.7,1047.2 1698.5,1091.9 1702.4,1135.0 1707.2,1176.6 1713.0,1217.0 1719.7,1256.3 1727.1,1294.7 1735.4,1332.4 1744.4,1369.4 1754.2,1406.0 1764.8,1442.2 1776.2,1478.3 1788.6,1514.3 1801.9,1550.5 1816.3,1586.8 1831.9,1623.5 1848.8,1660.7 1867.2,1698.4 1887.2,1736.8 1908.9,1776.0 1932.6,1816.0 1958.6,1857.0 1986.9,1899.0 2017.9,1942.2 2051.8,1986.5 2089.0,2032.1 2129.6,2079.1 2174.1,2127.4 2222.7,2177.3 2275.8,2228.6  Z" style="stroke-width: 2.0;  stroke: rgb(82,82,82); fill: rgb(255,0,204); opacity: 0.667;" />
<path d="M 2275.769,2228.568 A 1064.250,1064.250 0.00 0,1 2273.0,2231.5 L 2273.0,2231.5 2219.9,2179.7 2170.9,2128.7 2125.6,2078.6 2083.7,2029.5 2044.7,1981.5 2008.5,1934.5 1974.6,1888.7 1942.7,1843.9 1912.7,1800.2 1884.1,1757.5 1856.8,1716.0 1830.5,1675.4 1805.0,1635.8 1780.1,1597.1 1755.6,1559.2 1731.3,1522.1 1707.1,1485.7 1682.8,1449.8 1658.3,1414.4 1633.4,1379.3 1608.2,1344.4 1582.5,1309.6 1556.2,1274.6 1529.4,1239.3 1501.8,1203.6 1473.7,1167.2 1444.8,1129.9 1415.4,1091.6 1385.3,1052.0 1354.6,1010.9 1323.4,967.9 1291.8,923.0 1259.9,875.7 1227.7,825.9 1195.4,773.2 1163.1,717.3 1131.0,657.9 1099.3,594.7 1068.1,527.3  A 1064.250,1064.250 0.00 0,0 1064.4,529.0 L 1064.4,529.0 1095.8,596.2 1127.8,659.3 1160.1,718.6 1192.6,774.3 1225.1,826.9 1257.5,876.6 1289.6,923.8 1321.4,968.6 1352.7,1011.4 1383.6,1052.5 1413.8,1091.9 1443.4,1130.2 1472.4,1167.3 1500.7,1203.6 1528.4,1239.2 1555.4,1274.4 1581.8,1309.2 1607.6,1344.0 1633.0,1378.8 1657.9,1413.8 1682.6,1449.1 1707.0,1484.9 1731.4,1521.3 1755.8,1558.3 1780.4,1596.0 1805.5,1634.6 1831.2,1674.1 1857.6,1714.6 1885.1,1756.1 1913.8,1798.6 1944.1,1842.2 1976.1,1886.8 2010.1,1932.6 2046.6,1979.4 2085.7,2027.3 2127.8,2076.2 2173.3,2126.1 2222.5,2176.9 2275.8,2228.6  Z" style="stroke-width: 2.0;  stroke: rgb(82,82,82); fill: rgb(255,204,204); opacity: 0.667;" />
<path d="M 2275.769,2228.568 A 1064.250,1064.250 0.00 0,1 2273.0,2231.5 L 2273.0,2231.5 2219.8,2179.6 2170.6,2128.3 2124.9,2077.9 2082.4,2028.4 2042.7,1979.8 2005.6,1932.4 1970.6,1886.0 1937.6,1840.8 1906.1,1796.8 1876.0,1754.0 1846.9,1712.4 1818.6,1671.9 1791.0,1632.7 1763.7,1594.5 1736.6,1557.5 1709.5,1521.4 1682.2,1486.3 1654.5,1452.1 1626.4,1418.6 1597.7,1385.7 1568.3,1353.3 1538.1,1321.3 1507.0,1289.6 1474.9,1257.8 1441.9,1226.0 1407.8,1193.8 1372.6,1161.1 1336.4,1127.6 1299.0,1093.2 1260.7,1057.6 1221.3,1020.4 1181.0,981.6 1139.8,940.7 1097.8,897.5 1055.0,851.7 1011.7,802.9 967.9,750.8 923.7,695.1 879.4,635.4  A 1064.250,1064.250 0.00 0,0 876.1,637.8 L 876.1,637.8 920.6,697.3 965.0,752.9 1009.0,804.8 1052.5,853.4 1095.4,899.1 1137.6,942.1 1179.0,982.8 1219.5,1021.5 1259.0,1058.5 1297.5,1094.0 1334.9,1128.3 1371.3,1161.6 1406.6,1194.2 1440.8,1226.2 1474.0,1257.9 1506.2,1289.5 1537.4,1321.2 1567.8,1353.1 1597.3,1385.3 1626.1,1418.1 1654.3,1451.5 1682.1,1485.6 1709.5,1520.6 1736.8,1556.6 1764.0,1593.5 1791.5,1631.6 1819.3,1670.7 1847.7,1711.0 1876.9,1752.5 1907.2,1795.2 1938.9,1839.1 1972.1,1884.2 2007.3,1930.4 2044.6,1977.7 2084.4,2026.1 2127.1,2075.5 2173.0,2125.7 2222.4,2176.8 2275.8,2228.6  Z" style="stroke-width: 2.0;  stroke: rgb(82,82,82); fill: rgb(255,153,0); opacity: 0.667;" />
<path d="M 2275.769,2228.568 A 1064.250,1064.250 0.00 0,1 2273.0,2231.5 L 2273.0,2231.5 2220.1,2180.2 2171.8,2130.7 2127.8,2082.9 2087.8,2036.9 2051.4,1992.3 2018.4,1949.3 1988.6,1907.6 1961.6,1867.2 1937.3,1828.0 1915.5,1789.8 1896.0,1752.6 1878.5,1716.2 1863.1,1680.6 1849.5,1645.6 1837.5,1611.1 1827.2,1576.9 1818.4,1543.1 1811.0,1509.3 1805.0,1475.6 1800.4,1441.8 1797.1,1407.7 1795.2,1373.2 1794.6,1338.2 1795.4,1302.5 1797.6,1266.1 1801.4,1228.7 1806.7,1190.2 1813.8,1150.5 1822.6,1109.4 1833.4,1066.8 1846.3,1022.5 1861.4,976.3 1879.0,928.2 1899.3,877.9 1922.4,825.2 1948.6,770.1 1978.2,712.3 2011.4,651.7 2048.6,588.0  A 1064.250,1064.250 0.00 0,0 2045.1,585.9 L 2045.1,585.9 2008.2,649.7 1975.2,710.5 1945.8,768.4 1919.8,823.6 1896.9,876.3 1876.8,926.7 1859.4,974.9 1844.4,1021.2 1831.7,1065.5 1821.1,1108.2 1812.4,1149.3 1805.5,1189.0 1800.3,1227.5 1796.7,1264.9 1794.6,1301.4 1794.0,1337.0 1794.7,1372.0 1796.8,1406.5 1800.2,1440.6 1804.9,1474.4 1811.0,1508.1 1818.5,1541.8 1827.5,1575.7 1837.9,1609.8 1850.0,1644.2 1863.8,1679.2 1879.4,1714.8 1896.9,1751.1 1916.6,1788.2 1938.6,1826.3 1963.0,1865.4 1990.1,1905.7 2020.1,1947.3 2053.3,1990.2 2089.8,2034.6 2130.1,2080.5 2174.3,2128.1 2222.7,2177.4 2275.8,2228.6  Z" style="stroke-width: 2.0;  stroke: rgb(82,82,82); fill: rgb(255,204,0); opacity: 0.667;" />
<path d="M 2275.769,2228.568 A 1064.250,1064.250 0.00 0,1 2273.0,2231.5 L 2273.0,2231.5 2220.1,2180.3 2171.9,2131.2 2128.0,2084.0 2088.1,2038.6 2052.0,1995.0 2019.4,1953.0 1990.0,1912.6 1963.7,1873.5 1940.2,1835.7 1919.3,1799.1 1900.9,1763.5 1884.9,1728.9 1870.9,1695.1 1859.1,1662.1 1849.2,1629.6 1841.1,1597.6 1834.8,1566.0 1830.3,1534.5 1827.4,1503.3 1826.2,1472.0 1826.7,1440.5 1828.9,1408.9 1832.7,1376.9 1838.3,1344.3 1845.8,1311.2 1855.1,1277.3 1866.4,1242.6 1879.8,1206.9 1895.5,1170.0 1913.5,1131.9 1934.1,1092.5 1957.4,1051.5 1983.6,1008.9 2013.0,964.6 2045.7,918.4 2082.0,870.1 2122.2,819.8 2166.5,767.1 2215.3,712.0  A 1064.250,1064.250 0.00 0,0 2212.3,709.3 L 2212.3,709.3 2163.7,764.6 2119.6,817.4 2079.6,867.9 2043.4,916.3 2010.9,962.6 1981.7,1007.1 1955.7,1049.8 1932.5,1090.8 1912.1,1130.3 1894.2,1168.5 1878.7,1205.4 1865.4,1241.2 1854.3,1276.0 1845.1,1309.9 1837.8,1343.0 1832.3,1375.6 1828.5,1407.6 1826.5,1439.3 1826.1,1470.7 1827.4,1502.0 1830.4,1533.3 1835.1,1564.7 1841.5,1596.3 1849.7,1628.3 1859.7,1660.7 1871.7,1693.7 1885.7,1727.4 1902.0,1762.0 1920.5,1797.5 1941.5,1834.0 1965.1,1871.7 1991.6,1910.7 2021.1,1951.0 2053.9,1992.9 2090.2,2036.4 2130.3,2081.6 2174.3,2128.6 2222.7,2177.5 2275.8,2228.6  Z" style="stroke-width: 2.0;  stroke: rgb(82,82,82); fill: rgb(255,255,0); opacity: 0.667;" />
<path d="M 2275.769,2228.568 A 1064.250,1064.250 0.00 0,1 2273.0,2231.5 L 2273.0,2231.5 2218.4,2181.5 2165.3,2135.7 2113.7,2093.8 2063.4,2055.5 2014.4,2020.3 1966.8,1988.1 1920.4,1958.4 1875.2,1931.1 1831.2,1905.8 1788.2,1882.3 1746.1,1860.5 1705.0,1839.9 1664.7,1820.6 1625.1,1802.2 1586.1,1784.7 1547.5,1767.9 1509.4,1751.6 1471.5,1735.8 1433.7,1720.4 1395.8,1705.2 1357.8,1690.3 1319.5,1675.6 1280.6,1661.0 1241.2,1646.6 1200.8,1632.3 1159.5,1618.2 1117.0,1604.4 1073.1,1590.8 1027.6,1577.6 980.3,1564.9 930.9,1552.8 879.4,1541.4 825.3,1530.8 768.6,1521.2 708.9,1512.9 646.1,1505.9 579.8,1500.5 509.8,1497.0 435.8,1495.6  A 1064.250,1064.250 0.00 0,0 435.8,1499.6 L 435.8,1499.6 509.8,1500.8 579.8,1504.0 646.1,1509.2 709.0,1515.9 768.7,1524.0 825.5,1533.4 879.5,1543.7 931.1,1555.0 980.5,1566.9 1027.9,1579.5 1073.4,1592.5 1117.4,1605.8 1160.0,1619.5 1201.4,1633.4 1241.7,1647.5 1281.3,1661.8 1320.1,1676.3 1358.5,1690.9 1396.6,1705.6 1434.5,1720.7 1472.4,1735.9 1510.3,1751.6 1548.6,1767.7 1587.2,1784.4 1626.2,1801.8 1665.9,1820.0 1706.3,1839.1 1747.5,1859.5 1789.6,1881.2 1832.7,1904.5 1876.9,1929.6 1922.2,1956.8 1968.7,1986.3 2016.4,2018.3 2065.5,2053.3 2115.9,2091.5 2167.8,2133.2 2221.0,2178.7 2275.8,2228.6  Z" style="stroke-width: 2.0;  stroke: rgb(82,82,82); fill: rgb(204,255,0); opacity: 0.667;" />
<path d="M 2024.811,574.148 A 1064.250,1064.250 0.00 0,1 2028.8,576.4 L 2028.8,576.4 1992.1,639.8 1957.3,698.1 1924.4,751.6 1893.4,800.5 1864.0,845.0 1836.2,885.5 1809.9,922.0 1785.1,954.8 1761.5,984.1 1739.2,1010.0 1718.0,1032.6 1697.9,1052.1 1678.8,1068.6 1660.5,1082.2 1643.2,1093.0 1626.6,1101.0 1610.7,1106.3 1595.5,1108.9 1580.8,1108.9 1566.7,1106.3 1553.0,1101.0 1539.8,1093.0 1526.9,1082.3 1514.3,1068.8 1502.1,1052.4 1490.0,1033.1 1478.2,1010.8 1466.5,985.3 1455.0,956.6 1443.6,924.3 1432.3,888.5 1421.0,848.9 1409.8,805.3 1398.6,757.6 1387.4,705.4 1376.2,648.6 1365.0,586.8 1353.7,519.9 1342.5,447.5  A 1064.250,1064.250 0.00 0,0 1337.8,448.2 L 1337.8,448.2 1349.4,520.5 1360.9,587.4 1372.4,649.1 1383.9,705.9 1395.3,758.0 1406.7,805.8 1418.1,849.3 1429.6,888.8 1441.1,924.6 1452.6,956.8 1464.3,985.5 1476.1,1010.9 1488.0,1033.2 1500.1,1052.4 1512.4,1068.7 1525.0,1082.1 1538.0,1092.8 1551.3,1100.7 1564.9,1106.0 1579.1,1108.6 1593.7,1108.5 1609.0,1105.8 1624.8,1100.4 1641.4,1092.4 1658.7,1081.5 1676.9,1067.8 1695.9,1051.2 1716.0,1031.6 1737.0,1008.9 1759.2,982.9 1782.7,953.6 1807.4,920.7 1833.5,884.0 1861.1,843.5 1890.3,798.8 1921.2,749.7 1953.8,696.1 1988.3,637.7 2024.8,574.1  Z" style="stroke-width: 2.0;  stroke: rgb(82,82,82); fill: rgb(0,255,0); opacity: 0.667;" />
<path d="M 2471.724,1934.028 A 1064.250,1064.250 0.00 0,1 2470.0,1937.8 L 2470.0,1937.8 2403.3,1907.7 2341.7,1879.9 2284.8,1854.2 2232.6,1830.7 2184.6,1809.1 2140.9,1789.3 2101.0,1771.4 2065.0,1755.1 2032.5,1740.5 2003.5,1727.5 1977.7,1715.9 1955.2,1705.8 1935.7,1697.1 1919.2,1689.7 1905.5,1683.6 1894.6,1678.7 1886.6,1675.2 1881.2,1672.8 1878.5,1671.7 1878.4,1671.8 1881.1,1673.1 1886.4,1675.6 1894.4,1679.3 1905.2,1684.3 1918.7,1690.6 1935.2,1698.1 1954.6,1707.1 1977.1,1717.4 2002.7,1729.1 2031.7,1742.4 2064.0,1757.2 2100.0,1773.6 2139.7,1791.8 2183.4,1811.8 2231.2,1833.6 2283.4,1857.4 2340.1,1883.3 2401.6,1911.4 2468.2,1941.8  A 1064.250,1064.250 0.00 0,0 2469.9,1938.0 L 2469.9,1938.0 2403.2,1907.9 2341.6,1880.0 2284.8,1854.4 2232.5,1830.7 2184.6,1809.1 2140.9,1789.3 2101.1,1771.3 2065.0,1755.0 2032.6,1740.3 2003.6,1727.2 1977.9,1715.5 1955.4,1705.3 1936.0,1696.5 1919.5,1688.9 1905.9,1682.7 1895.1,1677.8 1887.0,1674.1 1881.7,1671.6 1879.1,1670.3 1879.1,1670.2 1881.8,1671.3 1887.2,1673.7 1895.3,1677.2 1906.2,1682.0 1919.9,1688.0 1936.4,1695.4 1956.0,1704.0 1978.6,1714.1 2004.4,1725.5 2033.4,1738.5 2066.0,1753.0 2102.1,1769.1 2142.0,1786.8 2185.8,1806.4 2233.8,1827.8 2286.2,1851.2 2343.1,1876.6 2404.9,1904.2 2471.7,1934.0  Z" style="stroke-width: 2.0;  stroke: rgb(82,82,82); fill: rgb(53,128,0); opacity: 0.667;" />
<path d="M 1552.444,437.043 A 1064.250,1064.250 0.00 0,1 1555.5,437.2 L 1555.5,437.2 1551.9,510.3 1549.1,578.0 1546.9,640.4 1545.5,698.0 1544.7,750.8 1544.5,799.1 1544.9,843.2 1545.9,883.3 1547.5,919.6 1549.6,952.1 1552.3,981.1 1555.5,1006.8 1559.3,1029.2 1563.7,1048.5 1568.6,1064.7 1574.1,1078.0 1580.2,1088.4 1586.9,1095.9 1594.3,1100.7 1602.3,1102.7 1611.0,1101.9 1620.5,1098.3 1630.7,1091.9 1641.8,1082.8 1653.7,1070.7 1666.5,1055.6 1680.3,1037.6 1695.1,1016.4 1711.0,991.9 1728.0,964.1 1746.3,932.8 1765.8,897.8 1786.7,858.9 1809.0,816.0 1832.9,768.9 1858.3,717.3 1885.5,661.0 1914.5,599.8 1945.3,533.4  A 1064.250,1064.250 0.00 0,0 1942.5,532.1 L 1942.5,532.1 1911.9,598.6 1883.1,659.9 1856.1,716.3 1830.8,767.9 1807.0,815.1 1784.8,858.1 1764.1,897.0 1744.6,932.1 1726.5,963.5 1709.5,991.3 1693.7,1015.8 1679.0,1037.1 1665.2,1055.2 1652.5,1070.2 1640.6,1082.3 1629.6,1091.6 1619.3,1098.0 1609.9,1101.5 1601.2,1102.4 1593.1,1100.4 1585.8,1095.7 1579.0,1088.1 1572.9,1077.8 1567.4,1064.5 1562.4,1048.3 1558.0,1029.0 1554.1,1006.6 1550.8,981.0 1548.0,952.0 1545.8,919.4 1544.1,883.2 1543.0,843.1 1542.5,799.0 1542.5,750.6 1543.2,697.8 1544.5,640.3 1546.4,577.9 1549.1,510.2 1552.4,437.0  Z" style="stroke-width: 2.0;  stroke: rgb(82,82,82); fill: rgb(0,0,204); opacity: 0.667;" />
<path d="M 1516.471,435.877 A 1064.250,1064.250 0.00 0,1 1535.3,436.3 L 1535.3,436.3 1533.2,509.5 1531.7,577.3 1530.9,639.8 1530.7,697.4 1531.2,750.3 1532.2,798.7 1533.9,842.9 1536.0,883.1 1538.7,919.5 1542.0,952.2 1545.8,981.3 1550.1,1007.2 1555.0,1029.8 1560.4,1049.2 1566.4,1065.7 1573.0,1079.2 1580.1,1089.9 1587.9,1097.7 1596.3,1102.8 1605.4,1105.1 1615.3,1104.7 1625.8,1101.5 1637.2,1095.6 1649.5,1086.8 1662.6,1075.2 1676.7,1060.7 1691.7,1043.2 1707.9,1022.6 1725.2,998.8 1743.7,971.7 1763.4,941.0 1784.6,906.8 1807.1,868.7 1831.2,826.7 1856.9,780.4 1884.3,729.8 1913.6,674.5 1944.7,614.3 1977.8,549.0  A 1064.250,1064.250 0.00 0,0 1960.8,540.7 L 1960.8,540.7 1928.9,606.6 1898.8,667.3 1870.6,723.1 1844.1,774.2 1819.2,820.9 1795.9,863.4 1774.0,901.8 1753.5,936.5 1734.3,967.4 1716.3,994.9 1699.4,1019.0 1683.6,1039.9 1668.8,1057.7 1655.0,1072.4 1642.1,1084.2 1630.0,1093.2 1618.8,1099.3 1608.2,1102.7 1598.4,1103.3 1589.3,1101.1 1580.7,1096.2 1572.8,1088.5 1565.5,1078.0 1558.7,1064.6 1552.4,1048.2 1546.6,1028.9 1541.4,1006.4 1536.6,980.6 1532.3,951.5 1528.5,918.9 1525.1,882.6 1522.2,842.4 1519.8,798.3 1517.9,749.8 1516.5,696.9 1515.7,639.4 1515.3,576.8 1515.6,509.1 1516.5,435.9  Z" style="stroke-width: 2.0;  stroke: rgb(82,82,82); fill: rgb(102,153,255); opacity: 0.667;" />
<path d="M 1235.534,469.133 A 1064.250,1064.250 0.00 0,1 1262.5,462.6 L 1262.5,462.6 1277.9,535.3 1290.4,605.0 1300.4,672.0 1308.1,736.4 1314.0,798.3 1318.3,857.9 1321.4,915.4 1323.4,970.8 1324.6,1024.3 1325.2,1076.1 1325.5,1126.3 1325.6,1175.1 1325.7,1222.7 1326.0,1269.1 1326.5,1314.6 1327.5,1359.3 1328.8,1403.4 1330.8,1447.1 1333.3,1490.4 1336.4,1533.6 1340.2,1576.9 1344.6,1620.3 1349.6,1664.1 1355.2,1708.5 1361.2,1753.6 1367.7,1799.6 1374.4,1846.7 1381.4,1895.0 1388.3,1944.7 1395.2,1996.1 1401.7,2049.2 1407.8,2104.3 1413.1,2161.6 1417.4,2221.2 1420.5,2283.3 1422.1,2348.1 1422.0,2415.9 1419.7,2486.7 1414.9,2560.8  A 1064.250,1064.250 0.00 0,0 1442.6,2562.7 L 1442.6,2562.7 1445.4,2488.5 1445.8,2417.6 1444.2,2349.9 1440.9,2285.1 1436.2,2223.1 1430.3,2163.6 1423.5,2106.5 1416.0,2051.6 1408.1,1998.6 1399.9,1947.5 1391.7,1898.0 1383.5,1849.8 1375.5,1803.0 1367.9,1757.1 1360.6,1712.2 1353.9,1668.0 1347.8,1624.3 1342.3,1581.0 1337.4,1537.9 1333.1,1494.7 1329.4,1451.5 1326.4,1407.9 1323.9,1363.9 1321.8,1319.2 1320.1,1273.7 1318.6,1227.3 1317.2,1179.8 1315.8,1131.0 1314.2,1080.8 1312.2,1029.0 1309.6,975.5 1306.2,920.2 1301.7,862.9 1295.8,803.4 1288.3,741.7 1278.9,677.5 1267.1,610.8 1252.8,541.4 1235.5,469.1  Z" style="stroke-width: 2.0;  stroke: rgb(82,82,82); fill: rgb(153,204,255); opacity: 0.667;" />
</g>
<defs>
<pattern id="hline-sparse" width="10" height="10" patternTransform="rotate(0 0 0)" patternUnits="userSpaceOnUse"><line x1="0" y1="0" x2="10" y2="0" style="stroke:black;stroke-width:2" /></pattern>
<pattern id="checker" width="10" height="10" patternTransform="rotate(45 0 0)" patternUnits="userSpaceOnUse"><line x1="0" y1="0" x2="10" y2="0" style="stroke:black;stroke-width:2" /><line x1="0" y1="0" x2="0" y2="10" style="stroke:black;stroke-width:2" /></pattern>
<pattern id="checker" width="10" height="10" patternTransform="rotate(45 0 0)" patternUnits="userSpaceOnUse"><line x1="0" y1="0" x2="10" y2="0" style="stroke:black;stroke-width:5" /><line x1="0" y1="0" x2="0" y2="10" style="stroke:black;stroke-width:4" /></pattern>
<pattern id="hline" width="10" height="10" patternTransform="rotate(0 0 0)" patternUnits="userSpaceOnUse"><line x1="0" y1="0" x2="10" y2="0" style="stroke:black;stroke-width:5" /></pattern>
<pattern id="vline-sparse" width="10" height="10" patternTransform="rotate(0 0 0)" patternUnits="userSpaceOnUse"><line x1="0" y1="0" x2="0" y2="10" style="stroke:black;stroke-width:2" /></pattern>
<pattern id="vline" width="10" height="10" patternTransform="rotate(0 0 0)" patternUnits="userSpaceOnUse"><line x1="0" y1="0" x2="0" y2="10" style="stroke:black;stroke-width:5" /></pattern>
</defs>
</svg>
