<?xml version="1.0" encoding="utf-8" standalone="no"?>
<!DOCTYPE svg PUBLIC "-//W3C//DTD SVG 1.1//EN" "http://www.w3.org/Graphics/SVG/1.1/DTD/svg11.dtd">
<svg width="3000px" height="3000px" version="1.1" xmlns="http://www.w3.org/2000/svg" xmlns:xlink="http://www.w3.org/1999/xlink">
<g id="ideograms">
<path d="M1500.000,425.000 A1075.000,1075.000 40.000 0,1 1680.197,440.210 L1688.578,390.918 A1125.000,1125.000 0.000 0,0 1500.000,375.000 Z" style="stroke-linecap:round;fill:rgb(116,196,118);fill-opacity:0.33;" />
<text x="1611.7" y="290.1" font-size="18.2px" font-family="CMUBright-Roman" style="text-anchor:start;fill:rgb(0,0,0);" transform="rotate(274.8,1611.7,290.1)" >R<tspan baseline-shift="-40%" font-size="90%">s</tspan>caffold<tspan baseline-shift="-40%" font-size="90%">7</tspan></text>
<line x1='1500.0' y1='375.0' x2='1500.0' y2='355.0' style="stroke-width:4.0;stroke:rgb(0,0,0);stroke-linecap:round;fill:none;" />
<text x="1506.5" y="345.0" font-size="18.2px" font-family="CMUBright-Roman" style="text-anchor:start;fill:rgb(0,0,0);" transform="rotate(270.0,1506.5,345.0)" >0</text>
<line x1='1558.2' y1='376.5' x2='1559.2' y2='356.5' style="stroke-width:4.0;stroke:rgb(0,0,0);stroke-linecap:round;fill:none;" />
<text x="1566.2" y="346.9" font-size="18.2px" font-family="CMUBright-Roman" style="text-anchor:start;fill:rgb(0,0,0);" transform="rotate(273.0,1566.2,346.9)" >50</text>
<line x1='1616.2' y1='381.0' x2='1618.3' y2='361.1' style="stroke-width:4.0;stroke:rgb(0,0,0);stroke-linecap:round;fill:none;" />
<text x="1625.8" y="351.9" font-size="18.2px" font-family="CMUBright-Roman" style="text-anchor:start;fill:rgb(0,0,0);" transform="rotate(275.9,1625.8,351.9)" >100</text>
<line x1='1674.0' y1='388.5' x2='1677.1' y2='368.8' style="stroke-width:4.0;stroke:rgb(0,0,0);stroke-linecap:round;fill:none;" />
<text x="1685.0" y="359.9" font-size="18.2px" font-family="CMUBright-Roman" style="text-anchor:start;fill:rgb(0,0,0);" transform="rotate(278.9,1685.0,359.9)" >150</text>
<g id="highlighttrack_0">
<path d="M1574.492,427.584 A1075.000,1075.000 40.000 0,1 1577.820,427.820 L1581.439,377.952 A1125.000,1125.000 0.000 0,0 1577.957,377.704 Z" style="stroke-width:4.0;stroke:rgb(0,0,0);stroke-linecap:round;fill:rgb(116,196,118);" />
</g>
<path d="M1735.415,451.094 A1075.000,1075.000 40.000 0,1 2232.721,713.397 L2266.801,676.811 A1125.000,1125.000 0.000 0,0 1746.365,402.307 Z" style="stroke-linecap:round;fill:rgb(116,196,118);fill-opacity:0.33;" />
<text x="2075.2" y="429.8" font-size="18.2px" font-family="CMUBright-Roman" style="text-anchor:start;fill:rgb(0,0,0);" transform="rotate(297.8,2075.2,429.8)" >R<tspan baseline-shift="-40%" font-size="90%">s</tspan>caffold<tspan baseline-shift="-40%" font-size="90%">2</tspan></text>
<line x1='1746.4' y1='402.3' x2='1750.7' y2='382.8' style="stroke-width:4.0;stroke:rgb(0,0,0);stroke-linecap:round;fill:none;" />
<text x="1759.3" y="374.5" font-size="18.2px" font-family="CMUBright-Roman" style="text-anchor:start;fill:rgb(0,0,0);" transform="rotate(282.6,1759.3,374.5)" >0</text>
<line x1='1802.8' y1='416.5' x2='1808.2' y2='397.3' style="stroke-width:4.0;stroke:rgb(0,0,0);stroke-linecap:round;fill:none;" />
<text x="1817.2" y="389.4" font-size="18.2px" font-family="CMUBright-Roman" style="text-anchor:start;fill:rgb(0,0,0);" transform="rotate(285.6,1817.2,389.4)" >50</text>
<line x1='1858.5' y1='433.6' x2='1864.8' y2='414.7' style="stroke-width:4.0;stroke:rgb(0,0,0);stroke-linecap:round;fill:none;" />
<text x="1874.2" y="407.3" font-size="18.2px" font-family="CMUBright-Roman" style="text-anchor:start;fill:rgb(0,0,0);" transform="rotate(288.6,1874.2,407.3)" >100</text>
<line x1='1913.2' y1='453.6' x2='1920.5' y2='435.0' style="stroke-width:4.0;stroke:rgb(0,0,0);stroke-linecap:round;fill:none;" />
<text x="1930.2" y="428.1" font-size="18.2px" font-family="CMUBright-Roman" style="text-anchor:start;fill:rgb(0,0,0);" transform="rotate(291.5,1930.2,428.1)" >150</text>
<line x1='1966.7' y1='476.4' x2='1975.0' y2='458.2' style="stroke-width:4.0;stroke:rgb(0,0,0);stroke-linecap:round;fill:none;" />
<text x="1985.1" y="451.8" font-size="18.2px" font-family="CMUBright-Roman" style="text-anchor:start;fill:rgb(0,0,0);" transform="rotate(294.5,1985.1,451.8)" >200</text>
<line x1='2019.1' y1='501.9' x2='2028.3' y2='484.2' style="stroke-width:4.0;stroke:rgb(0,0,0);stroke-linecap:round;fill:none;" />
<text x="2038.7" y="478.3" font-size="18.2px" font-family="CMUBright-Roman" style="text-anchor:start;fill:rgb(0,0,0);" transform="rotate(297.5,2038.7,478.3)" >250</text>
<line x1='2070.0' y1='530.1' x2='2080.1' y2='512.8' style="stroke-width:4.0;stroke:rgb(0,0,0);stroke-linecap:round;fill:none;" />
<text x="2090.8" y="507.5" font-size="18.2px" font-family="CMUBright-Roman" style="text-anchor:start;fill:rgb(0,0,0);" transform="rotate(300.4,2090.8,507.5)" >300</text>
<line x1='2119.4' y1='560.9' x2='2130.4' y2='544.2' style="stroke-width:4.0;stroke:rgb(0,0,0);stroke-linecap:round;fill:none;" />
<text x="2141.4" y="539.4" font-size="18.2px" font-family="CMUBright-Roman" style="text-anchor:start;fill:rgb(0,0,0);" transform="rotate(303.4,2141.4,539.4)" >350</text>
<line x1='2167.2' y1='594.2' x2='2179.0' y2='578.1' style="stroke-width:4.0;stroke:rgb(0,0,0);stroke-linecap:round;fill:none;" />
<text x="2190.2" y="573.9" font-size="18.2px" font-family="CMUBright-Roman" style="text-anchor:start;fill:rgb(0,0,0);" transform="rotate(306.4,2190.2,573.9)" >400</text>
<line x1='2213.1' y1='629.9' x2='2225.8' y2='614.4' style="stroke-width:4.0;stroke:rgb(0,0,0);stroke-linecap:round;fill:none;" />
<text x="2237.2" y="610.8" font-size="18.2px" font-family="CMUBright-Roman" style="text-anchor:start;fill:rgb(0,0,0);" transform="rotate(309.3,2237.2,610.8)" >450</text>
<line x1='2257.2' y1='668.0' x2='2270.7' y2='653.2' style="stroke-width:4.0;stroke:rgb(0,0,0);stroke-linecap:round;fill:none;" />
<text x="2282.2" y="650.2" font-size="18.2px" font-family="CMUBright-Roman" style="text-anchor:start;fill:rgb(0,0,0);" transform="rotate(312.3,2282.2,650.2)" >500</text>
<g id="highlighttrack_0">
<path d="M2076.752,592.816 A1075.000,1075.000 40.000 0,1 2082.594,596.557 L2109.692,554.537 A1125.000,1125.000 0.000 0,0 2103.577,550.621 Z" style="stroke-width:4.0;stroke:rgb(0,0,0);stroke-linecap:round;fill:rgb(116,196,118);" />
<path d="M2151.297,644.759 A1075.000,1075.000 40.000 0,1 2153.896,646.744 L2184.310,607.058 A1125.000,1125.000 0.000 0,0 2181.590,604.980 Z" style="stroke-width:4.0;stroke:rgb(0,0,0);stroke-linecap:round;fill:rgb(116,196,118);" />
</g>
<path d="M2272.885,752.822 A1075.000,1075.000 40.000 0,1 2388.784,2104.721 L2430.123,2132.848 A1125.000,1125.000 0.000 0,0 2308.833,718.070 Z" style="stroke-linecap:round;fill:rgb(116,196,118);fill-opacity:0.33;" />
<text x="2711.3" y="1405.7" font-size="18.2px" font-family="CMUBright-Roman" style="text-anchor:start;fill:rgb(0,0,0);" transform="rotate(355.1,2711.3,1405.7)" >R<tspan baseline-shift="-40%" font-size="90%">s</tspan>caffold<tspan baseline-shift="-40%" font-size="90%">0</tspan></text>
<line x1='2308.8' y1='718.1' x2='2323.2' y2='704.2' style="stroke-width:4.0;stroke:rgb(0,0,0);stroke-linecap:round;fill:none;" />
<text x="2334.9" y="701.9" font-size="18.2px" font-family="CMUBright-Roman" style="text-anchor:start;fill:rgb(0,0,0);" transform="rotate(316.0,2334.9,701.9)" >0</text>
<line x1='2348.2' y1='761.0' x2='2363.3' y2='747.8' style="stroke-width:4.0;stroke:rgb(0,0,0);stroke-linecap:round;fill:none;" />
<text x="2375.1" y="746.2" font-size="18.2px" font-family="CMUBright-Roman" style="text-anchor:start;fill:rgb(0,0,0);" transform="rotate(318.9,2375.1,746.2)" >50</text>
<line x1='2385.3' y1='805.8' x2='2401.0' y2='793.5' style="stroke-width:4.0;stroke:rgb(0,0,0);stroke-linecap:round;fill:none;" />
<text x="2412.9" y="792.4" font-size="18.2px" font-family="CMUBright-Roman" style="text-anchor:start;fill:rgb(0,0,0);" transform="rotate(321.9,2412.9,792.4)" >100</text>
<line x1='2420.0' y1='852.6' x2='2436.4' y2='841.0' style="stroke-width:4.0;stroke:rgb(0,0,0);stroke-linecap:round;fill:none;" />
<text x="2448.3" y="840.6" font-size="18.2px" font-family="CMUBright-Roman" style="text-anchor:start;fill:rgb(0,0,0);" transform="rotate(324.9,2448.3,840.6)" >150</text>
<line x1='2452.3' y1='901.0' x2='2469.2' y2='890.4' style="stroke-width:4.0;stroke:rgb(0,0,0);stroke-linecap:round;fill:none;" />
<text x="2481.1" y="890.6" font-size="18.2px" font-family="CMUBright-Roman" style="text-anchor:start;fill:rgb(0,0,0);" transform="rotate(327.8,2481.1,890.6)" >200</text>
<line x1='2482.0' y1='951.1' x2='2499.5' y2='941.3' style="stroke-width:4.0;stroke:rgb(0,0,0);stroke-linecap:round;fill:none;" />
<text x="2511.3" y="942.1" font-size="18.2px" font-family="CMUBright-Roman" style="text-anchor:start;fill:rgb(0,0,0);" transform="rotate(330.8,2511.3,942.1)" >250</text>
<line x1='2509.1' y1='1002.6' x2='2527.0' y2='993.8' style="stroke-width:4.0;stroke:rgb(0,0,0);stroke-linecap:round;fill:none;" />
<text x="2538.8" y="995.2" font-size="18.2px" font-family="CMUBright-Roman" style="text-anchor:start;fill:rgb(0,0,0);" transform="rotate(333.8,2538.8,995.2)" >300</text>
<line x1='2533.5' y1='1055.5' x2='2551.8' y2='1047.6' style="stroke-width:4.0;stroke:rgb(0,0,0);stroke-linecap:round;fill:none;" />
<text x="2563.6" y="1049.6" font-size="18.2px" font-family="CMUBright-Roman" style="text-anchor:start;fill:rgb(0,0,0);" transform="rotate(336.7,2563.6,1049.6)" >350</text>
<line x1='2555.1' y1='1109.6' x2='2573.8' y2='1102.6' style="stroke-width:4.0;stroke:rgb(0,0,0);stroke-linecap:round;fill:none;" />
<text x="2585.4" y="1105.2" font-size="18.2px" font-family="CMUBright-Roman" style="text-anchor:start;fill:rgb(0,0,0);" transform="rotate(339.7,2585.4,1105.2)" >400</text>
<line x1='2573.9' y1='1164.7' x2='2592.9' y2='1158.7' style="stroke-width:4.0;stroke:rgb(0,0,0);stroke-linecap:round;fill:none;" />
<text x="2604.4" y="1161.9" font-size="18.2px" font-family="CMUBright-Roman" style="text-anchor:start;fill:rgb(0,0,0);" transform="rotate(342.7,2604.4,1161.9)" >450</text>
<line x1='2589.8' y1='1220.7' x2='2609.1' y2='1215.7' style="stroke-width:4.0;stroke:rgb(0,0,0);stroke-linecap:round;fill:none;" />
<text x="2620.4" y="1219.5" font-size="18.2px" font-family="CMUBright-Roman" style="text-anchor:start;fill:rgb(0,0,0);" transform="rotate(345.6,2620.4,1219.5)" >500</text>
<line x1='2602.8' y1='1277.4' x2='2622.4' y2='1273.5' style="stroke-width:4.0;stroke:rgb(0,0,0);stroke-linecap:round;fill:none;" />
<text x="2633.4" y="1277.9" font-size="18.2px" font-family="CMUBright-Roman" style="text-anchor:start;fill:rgb(0,0,0);" transform="rotate(348.6,2633.4,1277.9)" >550</text>
<line x1='2612.8' y1='1334.8' x2='2632.6' y2='1331.8' style="stroke-width:4.0;stroke:rgb(0,0,0);stroke-linecap:round;fill:none;" />
<text x="2643.4" y="1336.8" font-size="18.2px" font-family="CMUBright-Roman" style="text-anchor:start;fill:rgb(0,0,0);" transform="rotate(351.6,2643.4,1336.8)" >600</text>
<line x1='2619.9' y1='1392.6' x2='2639.8' y2='1390.6' style="stroke-width:4.0;stroke:rgb(0,0,0);stroke-linecap:round;fill:none;" />
<text x="2650.3" y="1396.2" font-size="18.2px" font-family="CMUBright-Roman" style="text-anchor:start;fill:rgb(0,0,0);" transform="rotate(354.5,2650.3,1396.2)" >650</text>
<line x1='2623.9' y1='1450.6' x2='2643.9' y2='1449.8' style="stroke-width:4.0;stroke:rgb(0,0,0);stroke-linecap:round;fill:none;" />
<text x="2654.2" y="1455.8" font-size="18.2px" font-family="CMUBright-Roman" style="text-anchor:start;fill:rgb(0,0,0);" transform="rotate(357.5,2654.2,1455.8)" >700</text>
<line x1='2625.0' y1='1508.8' x2='2645.0' y2='1509.0' style="stroke-width:4.0;stroke:rgb(0,0,0);stroke-linecap:round;fill:none;" />
<text x="2654.9" y="1515.6" font-size="18.2px" font-family="CMUBright-Roman" style="text-anchor:start;fill:rgb(0,0,0);" transform="rotate(0.5,2654.9,1515.6)" >750</text>
<line x1='2623.0' y1='1567.0' x2='2643.0' y2='1568.2' style="stroke-width:4.0;stroke:rgb(0,0,0);stroke-linecap:round;fill:none;" />
<text x="2652.5" y="1575.3" font-size="18.2px" font-family="CMUBright-Roman" style="text-anchor:start;fill:rgb(0,0,0);" transform="rotate(3.4,2652.5,1575.3)" >800</text>
<line x1='2618.0' y1='1625.0' x2='2637.9' y2='1627.3' style="stroke-width:4.0;stroke:rgb(0,0,0);stroke-linecap:round;fill:none;" />
<text x="2647.1" y="1634.8" font-size="18.2px" font-family="CMUBright-Roman" style="text-anchor:start;fill:rgb(0,0,0);" transform="rotate(6.4,2647.1,1634.8)" >850</text>
<line x1='2610.1' y1='1682.7' x2='2629.8' y2='1686.0' style="stroke-width:4.0;stroke:rgb(0,0,0);stroke-linecap:round;fill:none;" />
<text x="2638.6" y="1694.0" font-size="18.2px" font-family="CMUBright-Roman" style="text-anchor:start;fill:rgb(0,0,0);" transform="rotate(9.3,2638.6,1694.0)" >900</text>
<line x1='2599.1' y1='1739.9' x2='2618.7' y2='1744.2' style="stroke-width:4.0;stroke:rgb(0,0,0);stroke-linecap:round;fill:none;" />
<text x="2627.0" y="1752.6" font-size="18.2px" font-family="CMUBright-Roman" style="text-anchor:start;fill:rgb(0,0,0);" transform="rotate(12.3,2627.0,1752.6)" >950</text>
<line x1='2585.2' y1='1796.4' x2='2604.5' y2='1801.7' style="stroke-width:4.0;stroke:rgb(0,0,0);stroke-linecap:round;fill:none;" />
<text x="2612.5" y="1810.6" font-size="18.2px" font-family="CMUBright-Roman" style="text-anchor:start;fill:rgb(0,0,0);" transform="rotate(15.3,2612.5,1810.6)" >1000</text>
<line x1='2568.5' y1='1852.2' x2='2587.5' y2='1858.4' style="stroke-width:4.0;stroke:rgb(0,0,0);stroke-linecap:round;fill:none;" />
<text x="2594.9" y="1867.7" font-size="18.2px" font-family="CMUBright-Roman" style="text-anchor:start;fill:rgb(0,0,0);" transform="rotate(18.2,2594.9,1867.7)" >1050</text>
<line x1='2548.8' y1='1907.0' x2='2567.5' y2='1914.2' style="stroke-width:4.0;stroke:rgb(0,0,0);stroke-linecap:round;fill:none;" />
<text x="2574.4" y="1923.9" font-size="18.2px" font-family="CMUBright-Roman" style="text-anchor:start;fill:rgb(0,0,0);" transform="rotate(21.2,2574.4,1923.9)" >1100</text>
<line x1='2526.3' y1='1960.7' x2='2544.6' y2='1968.9' style="stroke-width:4.0;stroke:rgb(0,0,0);stroke-linecap:round;fill:none;" />
<text x="2551.0" y="1978.9" font-size="18.2px" font-family="CMUBright-Roman" style="text-anchor:start;fill:rgb(0,0,0);" transform="rotate(24.2,2551.0,1978.9)" >1150</text>
<line x1='2501.1' y1='2013.2' x2='2518.9' y2='2022.3' style="stroke-width:4.0;stroke:rgb(0,0,0);stroke-linecap:round;fill:none;" />
<text x="2524.9" y="2032.6" font-size="18.2px" font-family="CMUBright-Roman" style="text-anchor:start;fill:rgb(0,0,0);" transform="rotate(27.1,2524.9,2032.6)" >1200</text>
<line x1='2473.3' y1='2064.3' x2='2490.6' y2='2074.3' style="stroke-width:4.0;stroke:rgb(0,0,0);stroke-linecap:round;fill:none;" />
<text x="2495.9" y="2084.9" font-size="18.2px" font-family="CMUBright-Roman" style="text-anchor:start;fill:rgb(0,0,0);" transform="rotate(30.1,2495.9,2084.9)" >1250</text>
<line x1='2442.8' y1='2113.9' x2='2459.5' y2='2124.8' style="stroke-width:4.0;stroke:rgb(0,0,0);stroke-linecap:round;fill:none;" />
<text x="2464.3" y="2135.7" font-size="18.2px" font-family="CMUBright-Roman" style="text-anchor:start;fill:rgb(0,0,0);" transform="rotate(33.1,2464.3,2135.7)" >1300</text>
<g id="highlighttrack_0">
<path d="M2572.853,1567.904 A1075.000,1075.000 40.000 0,1 2572.308,1576.031 L2622.183,1579.567 A1125.000,1125.000 0.000 0,0 2622.753,1571.062 Z" style="stroke-width:4.0;stroke:rgb(0,0,0);stroke-linecap:round;fill:rgb(116,196,118);" />
<path d="M2503.886,1115.504 A1075.000,1075.000 40.000 0,1 2505.019,1118.474 L2551.764,1100.728 A1125.000,1125.000 0.000 0,0 2550.579,1097.621 Z" style="stroke-width:4.0;stroke:rgb(0,0,0);stroke-linecap:round;fill:rgb(116,196,118);" />
<path d="M2475.882,1950.864 A1075.000,1075.000 40.000 0,1 2474.903,1952.979 L2520.247,1974.047 A1125.000,1125.000 0.000 0,0 2521.272,1971.835 Z" style="stroke-width:4.0;stroke:rgb(0,0,0);stroke-linecap:round;fill:rgb(116,196,118);" />
<path d="M2387.961,894.070 A1075.000,1075.000 40.000 0,1 2389.316,896.061 L2430.679,867.970 A1125.000,1125.000 0.000 0,0 2429.261,865.887 Z" style="stroke-width:4.0;stroke:rgb(0,0,0);stroke-linecap:round;fill:rgb(116,196,118);" />
</g>
<path d="M2355.918,2150.408 A1075.000,1075.000 40.000 0,1 2114.699,2381.913 L2143.289,2422.932 A1125.000,1125.000 0.000 0,0 2395.728,2180.659 Z" style="stroke-linecap:round;fill:rgb(116,196,118);fill-opacity:0.33;" />
<text x="2334.4" y="2383.2" font-size="18.2px" font-family="CMUBright-Roman" style="text-anchor:start;fill:rgb(0,0,0);" transform="rotate(46.2,2334.4,2383.2)" >R<tspan baseline-shift="-40%" font-size="90%">s</tspan>caffold<tspan baseline-shift="-40%" font-size="90%">3</tspan></text>
<line x1='2395.7' y1='2180.7' x2='2411.7' y2='2192.8' style="stroke-width:4.0;stroke:rgb(0,0,0);stroke-linecap:round;fill:none;" />
<text x="2415.7" y="2204.0" font-size="18.2px" font-family="CMUBright-Roman" style="text-anchor:start;fill:rgb(0,0,0);" transform="rotate(37.2,2415.7,2204.0)" >0</text>
<line x1='2359.3' y1='2226.1' x2='2374.6' y2='2239.0' style="stroke-width:4.0;stroke:rgb(0,0,0);stroke-linecap:round;fill:none;" />
<text x="2378.0" y="2250.4" font-size="18.2px" font-family="CMUBright-Roman" style="text-anchor:start;fill:rgb(0,0,0);" transform="rotate(40.2,2378.0,2250.4)" >50</text>
<line x1='2320.6' y1='2269.6' x2='2335.2' y2='2283.3' style="stroke-width:4.0;stroke:rgb(0,0,0);stroke-linecap:round;fill:none;" />
<text x="2338.0" y="2294.8" font-size="18.2px" font-family="CMUBright-Roman" style="text-anchor:start;fill:rgb(0,0,0);" transform="rotate(43.2,2338.0,2294.8)" >100</text>
<line x1='2279.7' y1='2311.0' x2='2293.6' y2='2325.4' style="stroke-width:4.0;stroke:rgb(0,0,0);stroke-linecap:round;fill:none;" />
<text x="2295.8" y="2337.1" font-size="18.2px" font-family="CMUBright-Roman" style="text-anchor:start;fill:rgb(0,0,0);" transform="rotate(46.1,2295.8,2337.1)" >150</text>
<line x1='2236.7' y1='2350.2' x2='2249.8' y2='2365.4' style="stroke-width:4.0;stroke:rgb(0,0,0);stroke-linecap:round;fill:none;" />
<text x="2251.4" y="2377.2" font-size="18.2px" font-family="CMUBright-Roman" style="text-anchor:start;fill:rgb(0,0,0);" transform="rotate(49.1,2251.4,2377.2)" >200</text>
<line x1='2191.7' y1='2387.2' x2='2204.0' y2='2403.0' style="stroke-width:4.0;stroke:rgb(0,0,0);stroke-linecap:round;fill:none;" />
<text x="2205.0" y="2414.9" font-size="18.2px" font-family="CMUBright-Roman" style="text-anchor:start;fill:rgb(0,0,0);" transform="rotate(52.1,2205.0,2414.9)" >250</text>
<line x1='2144.9' y1='2421.8' x2='2156.4' y2='2438.2' style="stroke-width:4.0;stroke:rgb(0,0,0);stroke-linecap:round;fill:none;" />
<text x="2156.8" y="2450.1" font-size="18.2px" font-family="CMUBright-Roman" style="text-anchor:start;fill:rgb(0,0,0);" transform="rotate(55.0,2156.8,2450.1)" >300</text>
<g id="highlighttrack_0">
<path d="M2268.399,2251.789 A1075.000,1075.000 40.000 0,1 2266.225,2254.005 L2301.863,2289.075 A1125.000,1125.000 0.000 0,0 2304.139,2286.756 Z" style="stroke-width:4.0;stroke:rgb(0,0,0);stroke-linecap:round;fill:rgb(116,196,118);" />
</g>
<path d="M2067.700,2412.875 A1075.000,1075.000 40.000 0,1 1387.730,2569.121 L1382.509,2618.848 A1125.000,1125.000 0.000 0,0 2094.105,2455.335 Z" style="stroke-linecap:round;fill:rgb(116,196,118);fill-opacity:0.33;" />
<text x="1762.8" y="2686.2" font-size="18.2px" font-family="CMUBright-Roman" style="text-anchor:start;fill:rgb(0,0,0);" transform="rotate(77.1,1762.8,2686.2)" >R<tspan baseline-shift="-40%" font-size="90%">s</tspan>caffold<tspan baseline-shift="-40%" font-size="90%">1</tspan></text>
<line x1='2094.1' y1='2455.3' x2='2104.7' y2='2472.3' style="stroke-width:4.0;stroke:rgb(0,0,0);stroke-linecap:round;fill:none;" />
<text x="2104.4" y="2484.2" font-size="18.2px" font-family="CMUBright-Roman" style="text-anchor:start;fill:rgb(0,0,0);" transform="rotate(58.1,2104.4,2484.2)" >0</text>
<line x1='2043.9' y1='2484.8' x2='2053.6' y2='2502.3' style="stroke-width:4.0;stroke:rgb(0,0,0);stroke-linecap:round;fill:none;" />
<text x="2052.7" y="2514.2" font-size="18.2px" font-family="CMUBright-Roman" style="text-anchor:start;fill:rgb(0,0,0);" transform="rotate(61.1,2052.7,2514.2)" >50</text>
<line x1='1992.2' y1='2511.6' x2='2001.0' y2='2529.6' style="stroke-width:4.0;stroke:rgb(0,0,0);stroke-linecap:round;fill:none;" />
<text x="1999.5" y="2541.4" font-size="18.2px" font-family="CMUBright-Roman" style="text-anchor:start;fill:rgb(0,0,0);" transform="rotate(64.1,1999.5,2541.4)" >100</text>
<line x1='1939.2' y1='2535.7' x2='1947.0' y2='2554.1' style="stroke-width:4.0;stroke:rgb(0,0,0);stroke-linecap:round;fill:none;" />
<text x="1944.9" y="2565.9" font-size="18.2px" font-family="CMUBright-Roman" style="text-anchor:start;fill:rgb(0,0,0);" transform="rotate(67.0,1944.9,2565.9)" >150</text>
<line x1='1885.1' y1='2557.1' x2='1891.9' y2='2575.8' style="stroke-width:4.0;stroke:rgb(0,0,0);stroke-linecap:round;fill:none;" />
<text x="1889.2" y="2587.4" font-size="18.2px" font-family="CMUBright-Roman" style="text-anchor:start;fill:rgb(0,0,0);" transform="rotate(70.0,1889.2,2587.4)" >200</text>
<line x1='1829.9' y1='2575.6' x2='1835.7' y2='2594.7' style="stroke-width:4.0;stroke:rgb(0,0,0);stroke-linecap:round;fill:none;" />
<text x="1832.4" y="2606.1" font-size="18.2px" font-family="CMUBright-Roman" style="text-anchor:start;fill:rgb(0,0,0);" transform="rotate(73.0,1832.4,2606.1)" >250</text>
<line x1='1773.8' y1='2591.2' x2='1778.6' y2='2610.6' style="stroke-width:4.0;stroke:rgb(0,0,0);stroke-linecap:round;fill:none;" />
<text x="1774.8" y="2621.8" font-size="18.2px" font-family="CMUBright-Roman" style="text-anchor:start;fill:rgb(0,0,0);" transform="rotate(75.9,1774.8,2621.8)" >300</text>
<line x1='1716.9' y1='2603.9' x2='1720.8' y2='2623.5' style="stroke-width:4.0;stroke:rgb(0,0,0);stroke-linecap:round;fill:none;" />
<text x="1716.4" y="2634.6" font-size="18.2px" font-family="CMUBright-Roman" style="text-anchor:start;fill:rgb(0,0,0);" transform="rotate(78.9,1716.4,2634.6)" >350</text>
<line x1='1659.6' y1='2613.6' x2='1662.4' y2='2633.4' style="stroke-width:4.0;stroke:rgb(0,0,0);stroke-linecap:round;fill:none;" />
<text x="1657.4" y="2644.2" font-size="18.2px" font-family="CMUBright-Roman" style="text-anchor:start;fill:rgb(0,0,0);" transform="rotate(81.8,1657.4,2644.2)" >400</text>
<line x1='1601.7' y1='2620.4' x2='1603.5' y2='2640.3' style="stroke-width:4.0;stroke:rgb(0,0,0);stroke-linecap:round;fill:none;" />
<text x="1598.0" y="2650.8" font-size="18.2px" font-family="CMUBright-Roman" style="text-anchor:start;fill:rgb(0,0,0);" transform="rotate(84.8,1598.0,2650.8)" >450</text>
<line x1='1543.6' y1='2624.2' x2='1544.4' y2='2644.1' style="stroke-width:4.0;stroke:rgb(0,0,0);stroke-linecap:round;fill:none;" />
<text x="1538.3" y="2654.4" font-size="18.2px" font-family="CMUBright-Roman" style="text-anchor:start;fill:rgb(0,0,0);" transform="rotate(87.8,1538.3,2654.4)" >500</text>
<line x1='1485.4' y1='2624.9' x2='1485.2' y2='2644.9' style="stroke-width:4.0;stroke:rgb(0,0,0);stroke-linecap:round;fill:none;" />
<text x="1491.5" y="2655.0" font-size="18.2px" font-family="CMUBright-Roman" style="text-anchor:end;fill:rgb(0,0,0);" transform="rotate(-89.3,1491.5,2655.0)" >550</text>
<line x1='1427.2' y1='2622.6' x2='1425.9' y2='2642.6' style="stroke-width:4.0;stroke:rgb(0,0,0);stroke-linecap:round;fill:none;" />
<text x="1431.8" y="2653.0" font-size="18.2px" font-family="CMUBright-Roman" style="text-anchor:end;fill:rgb(0,0,0);" transform="rotate(-86.3,1431.8,2653.0)" >600</text>
<g id="highlighttrack_0">
<path d="M1816.555,2527.335 A1075.000,1075.000 40.000 0,1 1814.149,2528.074 L1828.760,2575.891 A1125.000,1125.000 0.000 0,0 1831.278,2575.118 Z" style="stroke-width:4.0;stroke:rgb(0,0,0);stroke-linecap:round;fill:rgb(116,196,118);" />
<path d="M1960.961,2471.154 A1075.000,1075.000 40.000 0,1 1958.671,2472.238 L1980.004,2517.458 A1125.000,1125.000 0.000 0,0 1982.401,2516.324 Z" style="stroke-width:4.0;stroke:rgb(0,0,0);stroke-linecap:round;fill:rgb(116,196,118);" />
<path d="M1502.107,2574.998 A1075.000,1075.000 40.000 0,1 1485.344,2574.900 L1484.662,2624.895 A1125.000,1125.000 0.000 0,0 1502.205,2624.998 Z" style="stroke-width:4.0;stroke:rgb(0,0,0);stroke-linecap:round;fill:rgb(116,196,118);" />
</g>
<path d="M1331.931,2561.780 A1075.000,1075.000 40.000 0,1 1161.885,2520.443 L1146.159,2567.905 A1125.000,1125.000 0.000 0,0 1324.114,2611.166 Z" style="stroke-linecap:round;fill:rgb(116,196,118);fill-opacity:0.33;" />
<text x="1222.2" y="2682.8" font-size="18.2px" font-family="CMUBright-Roman" style="text-anchor:end;fill:rgb(0,0,0);" transform="rotate(-76.3,1222.2,2682.8)" >R<tspan baseline-shift="-40%" font-size="90%">s</tspan>caffold<tspan baseline-shift="-40%" font-size="90%">8</tspan></text>
<line x1='1324.1' y1='2611.2' x2='1321.0' y2='2630.9' style="stroke-width:4.0;stroke:rgb(0,0,0);stroke-linecap:round;fill:none;" />
<text x="1325.8" y="2641.8" font-size="18.2px" font-family="CMUBright-Roman" style="text-anchor:end;fill:rgb(0,0,0);" transform="rotate(-81.0,1325.8,2641.8)" >0</text>
<line x1='1266.9' y1='2600.6' x2='1262.7' y2='2620.1' style="stroke-width:4.0;stroke:rgb(0,0,0);stroke-linecap:round;fill:none;" />
<text x="1267.0" y="2631.3" font-size="18.2px" font-family="CMUBright-Roman" style="text-anchor:end;fill:rgb(0,0,0);" transform="rotate(-78.0,1267.0,2631.3)" >50</text>
<line x1='1210.2' y1='2587.0' x2='1205.1' y2='2606.4' style="stroke-width:4.0;stroke:rgb(0,0,0);stroke-linecap:round;fill:none;" />
<text x="1208.8" y="2617.7" font-size="18.2px" font-family="CMUBright-Roman" style="text-anchor:end;fill:rgb(0,0,0);" transform="rotate(-75.1,1208.8,2617.7)" >100</text>
<line x1='1154.4' y1='2570.6' x2='1148.2' y2='2589.6' style="stroke-width:4.0;stroke:rgb(0,0,0);stroke-linecap:round;fill:none;" />
<text x="1151.4" y="2601.1" font-size="18.2px" font-family="CMUBright-Roman" style="text-anchor:end;fill:rgb(0,0,0);" transform="rotate(-72.1,1151.4,2601.1)" >150</text>
<g id="highlighttrack_0">
<path d="M1282.642,2552.797 A1075.000,1075.000 40.000 0,1 1278.223,2551.874 L1267.907,2600.799 A1125.000,1125.000 0.000 0,0 1272.532,2601.764 Z" style="stroke-width:4.0;stroke:rgb(0,0,0);stroke-linecap:round;fill:rgb(116,196,118);" />
</g>
<path d="M1108.943,2501.349 A1075.000,1075.000 40.000 0,1 1083.941,2491.221 L1064.590,2537.325 A1125.000,1125.000 0.000 0,0 1090.754,2547.923 Z" style="stroke-linecap:round;fill:rgb(116,196,118);fill-opacity:0.33;" />
<text x="1052.7" y="2629.7" font-size="18.2px" font-family="CMUBright-Roman" style="text-anchor:end;fill:rgb(0,0,0);" transform="rotate(-67.9,1052.7,2629.7)" >R<tspan baseline-shift="-40%" font-size="90%">s</tspan>caffold<tspan baseline-shift="-40%" font-size="90%">1</tspan>5</text>
<line x1='1090.8' y1='2547.9' x2='1083.5' y2='2566.6' style="stroke-width:4.0;stroke:rgb(0,0,0);stroke-linecap:round;fill:none;" />
<text x="1085.9" y="2578.2" font-size="18.2px" font-family="CMUBright-Roman" style="text-anchor:end;fill:rgb(0,0,0);" transform="rotate(-68.7,1085.9,2578.2)" >0</text>
<g id="highlighttrack_0">
<path d="M1098.606,2497.250 A1075.000,1075.000 40.000 0,1 1083.941,2491.221 L1064.590,2537.325 A1125.000,1125.000 0.000 0,0 1079.936,2543.634 Z" style="stroke-width:4.0;stroke:rgb(0,0,0);stroke-linecap:round;fill:rgb(116,196,118);" />
</g>
<path d="M1032.635,2468.088 A1075.000,1075.000 40.000 0,1 1016.464,2460.114 L993.974,2504.770 A1125.000,1125.000 0.000 0,0 1010.897,2513.116 Z" style="stroke-linecap:round;fill:rgb(116,196,118);fill-opacity:0.33;" />
<text x="971.1" y="2593.9" font-size="18.2px" font-family="CMUBright-Roman" style="text-anchor:end;fill:rgb(0,0,0);" transform="rotate(-63.7,971.1,2593.9)" >R<tspan baseline-shift="-40%" font-size="90%">s</tspan>caffold<tspan baseline-shift="-40%" font-size="90%">1</tspan>6</text>
<line x1='1010.9' y1='2513.1' x2='1002.2' y2='2531.1' style="stroke-width:4.0;stroke:rgb(0,0,0);stroke-linecap:round;fill:none;" />
<text x="1003.7" y="2542.9" font-size="18.2px" font-family="CMUBright-Roman" style="text-anchor:end;fill:rgb(0,0,0);" transform="rotate(-64.2,1003.7,2542.9)" >0</text>
<g id="highlighttrack_0">
<path d="M1032.608,2468.075 A1075.000,1075.000 40.000 0,1 1016.464,2460.114 L993.974,2504.770 A1125.000,1125.000 0.000 0,0 1010.869,2513.102 Z" style="stroke-width:4.0;stroke:rgb(0,0,0);stroke-linecap:round;fill:rgb(116,196,118);" />
</g>
<path d="M966.879,2433.492 A1075.000,1075.000 40.000 0,1 895.768,2389.117 L867.664,2430.471 A1125.000,1125.000 0.000 0,0 942.082,2476.910 Z" style="stroke-linecap:round;fill:rgb(116,196,118);fill-opacity:0.33;" />
<text x="864.9" y="2535.8" font-size="18.2px" font-family="CMUBright-Roman" style="text-anchor:end;fill:rgb(0,0,0);" transform="rotate(-58.0,864.9,2535.8)" >R<tspan baseline-shift="-40%" font-size="90%">s</tspan>caffold<tspan baseline-shift="-40%" font-size="90%">1</tspan>2</text>
<line x1='942.1' y1='2476.9' x2='932.2' y2='2494.3' style="stroke-width:4.0;stroke:rgb(0,0,0);stroke-linecap:round;fill:none;" />
<text x="932.9" y="2506.2" font-size="18.2px" font-family="CMUBright-Roman" style="text-anchor:end;fill:rgb(0,0,0);" transform="rotate(-60.3,932.9,2506.2)" >0</text>
<line x1='892.3' y1='2446.7' x2='881.5' y2='2463.6' style="stroke-width:4.0;stroke:rgb(0,0,0);stroke-linecap:round;fill:none;" />
<text x="881.6" y="2475.5" font-size="18.2px" font-family="CMUBright-Roman" style="text-anchor:end;fill:rgb(0,0,0);" transform="rotate(-57.3,881.6,2475.5)" >50</text>
<g id="highlighttrack_0">
<path d="M955.728,2427.034 A1075.000,1075.000 40.000 0,1 931.727,2412.519 L905.296,2454.962 A1125.000,1125.000 0.000 0,0 930.413,2470.152 Z" style="stroke-width:4.0;stroke:rgb(0,0,0);stroke-linecap:round;fill:rgb(116,196,118);" />
</g>
<path d="M850.063,2356.275 A1075.000,1075.000 40.000 0,1 847.475,2354.305 L817.125,2394.040 A1125.000,1125.000 0.000 0,0 819.833,2396.102 Z" style="stroke-linecap:round;fill:rgb(116,196,118);fill-opacity:0.33;" />
<text x="771.5" y="2472.4" font-size="18.2px" font-family="CMUBright-Roman" style="text-anchor:end;fill:rgb(0,0,0);" transform="rotate(-52.7,771.5,2472.4)" >R<tspan baseline-shift="-40%" font-size="90%">s</tspan>caffold<tspan baseline-shift="-40%" font-size="90%">1</tspan>7</text>
<line x1='819.8' y1='2396.1' x2='807.7' y2='2412.0' style="stroke-width:4.0;stroke:rgb(0,0,0);stroke-linecap:round;fill:none;" />
<text x="806.9" y="2423.9" font-size="18.2px" font-family="CMUBright-Roman" style="text-anchor:end;fill:rgb(0,0,0);" transform="rotate(-52.8,806.9,2423.9)" >0</text>
<g id="highlighttrack_0">
<path d="M850.062,2356.274 A1075.000,1075.000 40.000 0,1 847.477,2354.306 L817.127,2394.041 A1125.000,1125.000 0.000 0,0 819.832,2396.101 Z" style="stroke-width:4.0;stroke:rgb(0,0,0);stroke-linecap:round;fill:rgb(116,196,118);" />
</g>
<path d="M803.658,2318.983 A1075.000,1075.000 40.000 0,1 659.674,2170.430 L620.589,2201.613 A1125.000,1125.000 0.000 0,0 771.270,2357.075 Z" style="stroke-linecap:round;fill:rgb(116,196,118);fill-opacity:0.33;" />
<text x="634.2" y="2352.4" font-size="18.2px" font-family="CMUBright-Roman" style="text-anchor:end;fill:rgb(0,0,0);" transform="rotate(-44.1,634.2,2352.4)" >R<tspan baseline-shift="-40%" font-size="90%">s</tspan>caffold<tspan baseline-shift="-40%" font-size="90%">4</tspan></text>
<line x1='771.3' y1='2357.1' x2='758.3' y2='2372.3' style="stroke-width:4.0;stroke:rgb(0,0,0);stroke-linecap:round;fill:none;" />
<text x="756.8" y="2384.1" font-size="18.2px" font-family="CMUBright-Roman" style="text-anchor:end;fill:rgb(0,0,0);" transform="rotate(-49.6,756.8,2384.1)" >0</text>
<line x1='727.9' y1='2318.2' x2='714.2' y2='2332.8' style="stroke-width:4.0;stroke:rgb(0,0,0);stroke-linecap:round;fill:none;" />
<text x="712.1" y="2344.5" font-size="18.2px" font-family="CMUBright-Roman" style="text-anchor:end;fill:rgb(0,0,0);" transform="rotate(-46.7,712.1,2344.5)" >50</text>
<line x1='686.6' y1='2277.2' x2='672.2' y2='2291.0' style="stroke-width:4.0;stroke:rgb(0,0,0);stroke-linecap:round;fill:none;" />
<text x="669.4" y="2302.6" font-size="18.2px" font-family="CMUBright-Roman" style="text-anchor:end;fill:rgb(0,0,0);" transform="rotate(-43.7,669.4,2302.6)" >100</text>
<line x1='647.5' y1='2234.1' x2='632.3' y2='2247.1' style="stroke-width:4.0;stroke:rgb(0,0,0);stroke-linecap:round;fill:none;" />
<text x="629.0" y="2258.6" font-size="18.2px" font-family="CMUBright-Roman" style="text-anchor:end;fill:rgb(0,0,0);" transform="rotate(-40.7,629.0,2258.6)" >150</text>
<g id="highlighttrack_0">
<path d="M730.914,2251.087 A1075.000,1075.000 40.000 0,1 728.631,2248.743 L692.754,2283.568 A1125.000,1125.000 0.000 0,0 695.143,2286.022 Z" style="stroke-width:4.0;stroke:rgb(0,0,0);stroke-linecap:round;fill:rgb(116,196,118);" />
</g>
<path d="M625.738,2125.532 A1075.000,1075.000 40.000 0,1 537.820,1979.411 L493.067,2001.709 A1125.000,1125.000 0.000 0,0 585.074,2154.626 Z" style="stroke-linecap:round;fill:rgb(116,196,118);fill-opacity:0.33;" />
<text x="463.8" y="2134.5" font-size="18.2px" font-family="CMUBright-Roman" style="text-anchor:end;fill:rgb(0,0,0);" transform="rotate(-31.0,463.8,2134.5)" >R<tspan baseline-shift="-40%" font-size="90%">s</tspan>caffold<tspan baseline-shift="-40%" font-size="90%">1</tspan>0</text>
<line x1='585.1' y1='2154.6' x2='568.8' y2='2166.3' style="stroke-width:4.0;stroke:rgb(0,0,0);stroke-linecap:round;fill:none;" />
<text x="564.5" y="2177.4" font-size="18.2px" font-family="CMUBright-Roman" style="text-anchor:end;fill:rgb(0,0,0);" transform="rotate(-35.6,564.5,2177.4)" >0</text>
<line x1='552.4' y1='2106.4' x2='535.6' y2='2117.2' style="stroke-width:4.0;stroke:rgb(0,0,0);stroke-linecap:round;fill:none;" />
<text x="530.7" y="2128.1" font-size="18.2px" font-family="CMUBright-Roman" style="text-anchor:end;fill:rgb(0,0,0);" transform="rotate(-32.6,530.7,2128.1)" >50</text>
<line x1='522.3' y1='2056.6' x2='504.9' y2='2066.5' style="stroke-width:4.0;stroke:rgb(0,0,0);stroke-linecap:round;fill:none;" />
<text x="499.5" y="2077.1" font-size="18.2px" font-family="CMUBright-Roman" style="text-anchor:end;fill:rgb(0,0,0);" transform="rotate(-29.7,499.5,2077.1)" >100</text>
<line x1='494.8' y1='2005.3' x2='477.0' y2='2014.2' style="stroke-width:4.0;stroke:rgb(0,0,0);stroke-linecap:round;fill:none;" />
<text x="471.0" y="2024.5" font-size="18.2px" font-family="CMUBright-Roman" style="text-anchor:end;fill:rgb(0,0,0);" transform="rotate(-26.7,471.0,2024.5)" >150</text>
<g id="highlighttrack_0">
<path d="M586.518,2066.723 A1075.000,1075.000 40.000 0,1 585.252,2064.678 L542.706,2090.942 A1125.000,1125.000 0.000 0,0 544.030,2093.082 Z" style="stroke-width:4.0;stroke:rgb(0,0,0);stroke-linecap:round;fill:rgb(116,196,118);" />
</g>
<path d="M514.048,1928.397 A1075.000,1075.000 40.000 0,1 431.398,1617.106 L381.695,1622.553 A1125.000,1125.000 0.000 0,0 468.190,1948.322 Z" style="stroke-linecap:round;fill:rgb(116,196,118);fill-opacity:0.33;" />
<text x="328.2" y="1821.0" font-size="18.2px" font-family="CMUBright-Roman" style="text-anchor:end;fill:rgb(0,0,0);" transform="rotate(-14.9,328.2,1821.0)" >R<tspan baseline-shift="-40%" font-size="90%">s</tspan>caffold<tspan baseline-shift="-40%" font-size="90%">1</tspan></text>
<line x1='468.2' y1='1948.3' x2='449.8' y2='1956.3' style="stroke-width:4.0;stroke:rgb(0,0,0);stroke-linecap:round;fill:none;" />
<text x="443.3" y="1966.2" font-size="18.2px" font-family="CMUBright-Roman" style="text-anchor:end;fill:rgb(0,0,0);" transform="rotate(-23.5,443.3,1966.2)" >0</text>
<line x1='446.4' y1='1894.3' x2='427.6' y2='1901.4' style="stroke-width:4.0;stroke:rgb(0,0,0);stroke-linecap:round;fill:none;" />
<text x="420.6" y="1910.9" font-size="18.2px" font-family="CMUBright-Roman" style="text-anchor:end;fill:rgb(0,0,0);" transform="rotate(-20.5,420.6,1910.9)" >50</text>
<line x1='427.4' y1='1839.3' x2='408.3' y2='1845.3' style="stroke-width:4.0;stroke:rgb(0,0,0);stroke-linecap:round;fill:none;" />
<text x="400.8" y="1854.5" font-size="18.2px" font-family="CMUBright-Roman" style="text-anchor:end;fill:rgb(0,0,0);" transform="rotate(-17.6,400.8,1854.5)" >100</text>
<line x1='411.3' y1='1783.4' x2='391.9' y2='1788.4' style="stroke-width:4.0;stroke:rgb(0,0,0);stroke-linecap:round;fill:none;" />
<text x="383.9" y="1797.2" font-size="18.2px" font-family="CMUBright-Roman" style="text-anchor:end;fill:rgb(0,0,0);" transform="rotate(-14.6,383.9,1797.2)" >150</text>
<line x1='398.1' y1='1726.7' x2='378.5' y2='1730.7' style="stroke-width:4.0;stroke:rgb(0,0,0);stroke-linecap:round;fill:none;" />
<text x="370.0" y="1739.1" font-size="18.2px" font-family="CMUBright-Roman" style="text-anchor:end;fill:rgb(0,0,0);" transform="rotate(-11.6,370.0,1739.1)" >200</text>
<line x1='387.8' y1='1669.4' x2='368.0' y2='1672.4' style="stroke-width:4.0;stroke:rgb(0,0,0);stroke-linecap:round;fill:none;" />
<text x="359.2" y="1680.3" font-size="18.2px" font-family="CMUBright-Roman" style="text-anchor:end;fill:rgb(0,0,0);" transform="rotate(-8.7,359.2,1680.3)" >250</text>
<g id="highlighttrack_0">
<path d="M456.542,1758.497 A1075.000,1075.000 40.000 0,1 455.782,1755.409 L407.214,1767.288 A1125.000,1125.000 0.000 0,0 408.009,1770.520 Z" style="stroke-width:4.0;stroke:rgb(0,0,0);stroke-linecap:round;fill:rgb(116,196,118);" />
</g>
<path d="M426.733,1561.019 A1075.000,1075.000 40.000 0,1 430.451,1391.880 L380.705,1386.851 A1125.000,1125.000 0.000 0,0 376.814,1563.857 Z" style="stroke-linecap:round;fill:rgb(116,196,118);fill-opacity:0.33;" />
<text x="285.1" y="1482.8" font-size="18.2px" font-family="CMUBright-Roman" style="text-anchor:end;fill:rgb(0,0,0);" transform="rotate(1.3,285.1,1482.8)" >R<tspan baseline-shift="-40%" font-size="90%">s</tspan>caffold<tspan baseline-shift="-40%" font-size="90%">1</tspan>1</text>
<line x1='376.8' y1='1563.9' x2='356.8' y2='1565.0' style="stroke-width:4.0;stroke:rgb(0,0,0);stroke-linecap:round;fill:none;" />
<text x="347.2" y="1572.0" font-size="18.2px" font-family="CMUBright-Roman" style="text-anchor:end;fill:rgb(0,0,0);" transform="rotate(-3.3,347.2,1572.0)" >0</text>
<line x1='375.0' y1='1505.7' x2='355.0' y2='1505.8' style="stroke-width:4.0;stroke:rgb(0,0,0);stroke-linecap:round;fill:none;" />
<text x="345.1" y="1512.3" font-size="18.2px" font-family="CMUBright-Roman" style="text-anchor:end;fill:rgb(0,0,0);" transform="rotate(-0.3,345.1,1512.3)" >50</text>
<line x1='376.2' y1='1447.5' x2='356.2' y2='1446.5' style="stroke-width:4.0;stroke:rgb(0,0,0);stroke-linecap:round;fill:none;" />
<text x="346.0" y="1452.6" font-size="18.2px" font-family="CMUBright-Roman" style="text-anchor:end;fill:rgb(0,0,0);" transform="rotate(2.7,346.0,1452.6)" >100</text>
<line x1='380.5' y1='1389.4' x2='360.5' y2='1387.4' style="stroke-width:4.0;stroke:rgb(0,0,0);stroke-linecap:round;fill:none;" />
<text x="350.0" y="1392.9" font-size="18.2px" font-family="CMUBright-Roman" style="text-anchor:end;fill:rgb(0,0,0);" transform="rotate(5.6,350.0,1392.9)" >150</text>
<g id="highlighttrack_0">
<path d="M425.986,1453.978 A1075.000,1075.000 40.000 0,1 426.361,1445.917 L376.425,1443.402 A1125.000,1125.000 0.000 0,0 376.031,1451.838 Z" style="stroke-width:4.0;stroke:rgb(0,0,0);stroke-linecap:round;fill:rgb(116,196,118);" />
</g>
<path d="M437.575,1336.052 A1075.000,1075.000 40.000 0,1 462.430,1218.800 L414.171,1205.720 A1125.000,1125.000 0.000 0,0 388.160,1328.426 Z" style="stroke-linecap:round;fill:rgb(116,196,118);fill-opacity:0.33;" />
<text x="309.5" y="1257.3" font-size="18.2px" font-family="CMUBright-Roman" style="text-anchor:end;fill:rgb(0,0,0);" transform="rotate(12.0,309.5,1257.3)" >R<tspan baseline-shift="-40%" font-size="90%">s</tspan>caffold<tspan baseline-shift="-40%" font-size="90%">1</tspan>8</text>
<line x1='388.2' y1='1328.4' x2='368.4' y2='1325.4' style="stroke-width:4.0;stroke:rgb(0,0,0);stroke-linecap:round;fill:none;" />
<text x="357.5" y="1330.3" font-size="18.2px" font-family="CMUBright-Roman" style="text-anchor:end;fill:rgb(0,0,0);" transform="rotate(8.8,357.5,1330.3)" >0</text>
<line x1='398.5' y1='1271.1' x2='378.9' y2='1267.1' style="stroke-width:4.0;stroke:rgb(0,0,0);stroke-linecap:round;fill:none;" />
<text x="367.8" y="1271.4" font-size="18.2px" font-family="CMUBright-Roman" style="text-anchor:end;fill:rgb(0,0,0);" transform="rotate(11.7,367.8,1271.4)" >50</text>
<line x1='411.8' y1='1214.5' x2='392.5' y2='1209.4' style="stroke-width:4.0;stroke:rgb(0,0,0);stroke-linecap:round;fill:none;" />
<text x="381.2" y="1213.1" font-size="18.2px" font-family="CMUBright-Roman" style="text-anchor:end;fill:rgb(0,0,0);" transform="rotate(14.7,381.2,1213.1)" >100</text>
<g id="highlighttrack_0">
<path d="M441.182,1314.178 A1075.000,1075.000 40.000 0,1 441.587,1311.887 L392.358,1303.137 A1125.000,1125.000 0.000 0,0 391.935,1305.535 Z" style="stroke-width:4.0;stroke:rgb(0,0,0);stroke-linecap:round;fill:rgb(116,196,118);" />
</g>
<path d="M478.569,1164.883 A1075.000,1075.000 40.000 0,1 920.368,594.654 L893.408,552.545 A1125.000,1125.000 0.000 0,0 431.061,1149.296 Z" style="stroke-linecap:round;fill:rgb(116,196,118);fill-opacity:0.33;" />
<text x="533.8" y="763.4" font-size="18.2px" font-family="CMUBright-Roman" style="text-anchor:end;fill:rgb(0,0,0);" transform="rotate(37.8,533.8,763.4)" >R<tspan baseline-shift="-40%" font-size="90%">s</tspan>caffold<tspan baseline-shift="-40%" font-size="90%">0</tspan></text>
<line x1='431.1' y1='1149.3' x2='412.1' y2='1143.1' style="stroke-width:4.0;stroke:rgb(0,0,0);stroke-linecap:round;fill:none;" />
<text x="400.5" y="1146.1" font-size="18.2px" font-family="CMUBright-Roman" style="text-anchor:end;fill:rgb(0,0,0);" transform="rotate(18.2,400.5,1146.1)" >0</text>
<line x1='450.6' y1='1094.5' x2='432.0' y2='1087.3' style="stroke-width:4.0;stroke:rgb(0,0,0);stroke-linecap:round;fill:none;" />
<text x="420.3" y="1089.7" font-size="18.2px" font-family="CMUBright-Roman" style="text-anchor:end;fill:rgb(0,0,0);" transform="rotate(21.1,420.3,1089.7)" >50</text>
<line x1='473.0' y1='1040.7' x2='454.8' y2='1032.6' style="stroke-width:4.0;stroke:rgb(0,0,0);stroke-linecap:round;fill:none;" />
<text x="443.0" y="1034.4" font-size="18.2px" font-family="CMUBright-Roman" style="text-anchor:end;fill:rgb(0,0,0);" transform="rotate(24.1,443.0,1034.4)" >100</text>
<line x1='498.2' y1='988.2' x2='480.3' y2='979.1' style="stroke-width:4.0;stroke:rgb(0,0,0);stroke-linecap:round;fill:none;" />
<text x="468.5" y="980.4" font-size="18.2px" font-family="CMUBright-Roman" style="text-anchor:end;fill:rgb(0,0,0);" transform="rotate(27.1,468.5,980.4)" >150</text>
<line x1='526.0' y1='937.1' x2='508.7' y2='927.1' style="stroke-width:4.0;stroke:rgb(0,0,0);stroke-linecap:round;fill:none;" />
<text x="496.8" y="927.7" font-size="18.2px" font-family="CMUBright-Roman" style="text-anchor:end;fill:rgb(0,0,0);" transform="rotate(30.0,496.8,927.7)" >200</text>
<line x1='556.4' y1='887.4' x2='539.6' y2='876.5' style="stroke-width:4.0;stroke:rgb(0,0,0);stroke-linecap:round;fill:none;" />
<text x="527.7" y="876.6" font-size="18.2px" font-family="CMUBright-Roman" style="text-anchor:end;fill:rgb(0,0,0);" transform="rotate(33.0,527.7,876.6)" >250</text>
<line x1='589.4' y1='839.4' x2='573.2' y2='827.7' style="stroke-width:4.0;stroke:rgb(0,0,0);stroke-linecap:round;fill:none;" />
<text x="561.3" y="827.1" font-size="18.2px" font-family="CMUBright-Roman" style="text-anchor:end;fill:rgb(0,0,0);" transform="rotate(36.0,561.3,827.1)" >300</text>
<line x1='624.7' y1='793.2' x2='609.2' y2='780.6' style="stroke-width:4.0;stroke:rgb(0,0,0);stroke-linecap:round;fill:none;" />
<text x="597.3" y="779.4" font-size="18.2px" font-family="CMUBright-Roman" style="text-anchor:end;fill:rgb(0,0,0);" transform="rotate(38.9,597.3,779.4)" >350</text>
<line x1='662.5' y1='748.9' x2='647.6' y2='735.5' style="stroke-width:4.0;stroke:rgb(0,0,0);stroke-linecap:round;fill:none;" />
<text x="635.8" y="733.7" font-size="18.2px" font-family="CMUBright-Roman" style="text-anchor:end;fill:rgb(0,0,0);" transform="rotate(41.9,635.8,733.7)" >400</text>
<line x1='702.5' y1='706.6' x2='688.3' y2='692.4' style="stroke-width:4.0;stroke:rgb(0,0,0);stroke-linecap:round;fill:none;" />
<text x="676.6" y="690.0" font-size="18.2px" font-family="CMUBright-Roman" style="text-anchor:end;fill:rgb(0,0,0);" transform="rotate(44.9,676.6,690.0)" >450</text>
<line x1='744.6' y1='666.4' x2='731.1' y2='651.5' style="stroke-width:4.0;stroke:rgb(0,0,0);stroke-linecap:round;fill:none;" />
<text x="719.6" y="648.5" font-size="18.2px" font-family="CMUBright-Roman" style="text-anchor:end;fill:rgb(0,0,0);" transform="rotate(47.8,719.6,648.5)" >500</text>
<line x1='788.7' y1='628.4' x2='776.1' y2='612.9' style="stroke-width:4.0;stroke:rgb(0,0,0);stroke-linecap:round;fill:none;" />
<text x="764.7" y="609.3" font-size="18.2px" font-family="CMUBright-Roman" style="text-anchor:end;fill:rgb(0,0,0);" transform="rotate(50.8,764.7,609.3)" >550</text>
<line x1='834.8' y1='592.8' x2='822.9' y2='576.6' style="stroke-width:4.0;stroke:rgb(0,0,0);stroke-linecap:round;fill:none;" />
<text x="811.8" y="572.4" font-size="18.2px" font-family="CMUBright-Roman" style="text-anchor:end;fill:rgb(0,0,0);" transform="rotate(53.7,811.8,572.4)" >600</text>
<line x1='882.6' y1='559.6' x2='871.6' y2='542.8' style="stroke-width:4.0;stroke:rgb(0,0,0);stroke-linecap:round;fill:none;" />
<text x="860.7" y="538.1" font-size="18.2px" font-family="CMUBright-Roman" style="text-anchor:end;fill:rgb(0,0,0);" transform="rotate(56.7,860.7,538.1)" >650</text>
<g id="highlighttrack_0">
<path d="M610.327,896.588 A1075.000,1075.000 40.000 0,1 612.073,894.021 L570.774,865.836 A1125.000,1125.000 0.000 0,0 568.947,868.522 Z" style="stroke-width:4.0;stroke:rgb(0,0,0);stroke-linecap:round;fill:rgb(251,106,74);" />
<path d="M644.054,849.629 A1075.000,1075.000 40.000 0,1 645.579,847.627 L605.839,817.284 A1125.000,1125.000 0.000 0,0 604.243,819.380 Z" style="stroke-width:4.0;stroke:rgb(0,0,0);stroke-linecap:round;fill:rgb(116,196,118);" />
<path d="M540.528,1015.192 A1075.000,1075.000 40.000 0,1 541.673,1012.932 L497.100,990.278 A1125.000,1125.000 0.000 0,0 495.901,992.643 Z" style="stroke-width:4.0;stroke:rgb(0,0,0);stroke-linecap:round;fill:rgb(116,196,118);" />
<path d="M579.402,944.910 A1075.000,1075.000 40.000 0,1 583.004,938.980 L540.353,912.886 A1125.000,1125.000 0.000 0,0 536.584,919.092 Z" style="stroke-width:4.0;stroke:rgb(0,0,0);stroke-linecap:round;fill:rgb(251,106,74);" />
<path d="M489.640,1132.852 A1075.000,1075.000 40.000 0,1 490.762,1129.780 L443.820,1112.560 A1125.000,1125.000 0.000 0,0 442.646,1115.775 Z" style="stroke-width:4.0;stroke:rgb(0,0,0);stroke-linecap:round;fill:rgb(251,106,74);" />
</g>
<path d="M968.545,565.559 A1075.000,1075.000 40.000 0,1 1138.289,487.681 L1121.465,440.596 A1125.000,1125.000 0.000 0,0 943.826,522.097 Z" style="stroke-linecap:round;fill:rgb(116,196,118);fill-opacity:0.33;" />
<text x="984.7" y="399.7" font-size="18.2px" font-family="CMUBright-Roman" style="text-anchor:end;fill:rgb(0,0,0);" transform="rotate(65.4,984.7,399.7)" >R<tspan baseline-shift="-40%" font-size="90%">s</tspan>caffold<tspan baseline-shift="-40%" font-size="90%">7</tspan></text>
<line x1='943.8' y1='522.1' x2='933.9' y2='504.7' style="stroke-width:4.0;stroke:rgb(0,0,0);stroke-linecap:round;fill:none;" />
<text x="923.4" y="499.2" font-size="18.2px" font-family="CMUBright-Roman" style="text-anchor:end;fill:rgb(0,0,0);" transform="rotate(60.4,923.4,499.2)" >0</text>
<line x1='995.2' y1='494.6' x2='986.2' y2='476.8' style="stroke-width:4.0;stroke:rgb(0,0,0);stroke-linecap:round;fill:none;" />
<text x="975.9" y="470.8" font-size="18.2px" font-family="CMUBright-Roman" style="text-anchor:end;fill:rgb(0,0,0);" transform="rotate(63.3,975.9,470.8)" >50</text>
<line x1='1047.8' y1='469.9' x2='1039.8' y2='451.5' style="stroke-width:4.0;stroke:rgb(0,0,0);stroke-linecap:round;fill:none;" />
<text x="1029.8" y="445.0" font-size="18.2px" font-family="CMUBright-Roman" style="text-anchor:end;fill:rgb(0,0,0);" transform="rotate(66.3,1029.8,445.0)" >100</text>
<line x1='1101.7' y1='447.9' x2='1094.7' y2='429.1' style="stroke-width:4.0;stroke:rgb(0,0,0);stroke-linecap:round;fill:none;" />
<text x="1085.1" y="422.1" font-size="18.2px" font-family="CMUBright-Roman" style="text-anchor:end;fill:rgb(0,0,0);" transform="rotate(69.3,1085.1,422.1)" >150</text>
<g id="highlighttrack_0">
<path d="M1057.124,520.467 A1075.000,1075.000 40.000 0,1 1061.235,518.618 L1040.828,472.972 A1125.000,1125.000 0.000 0,0 1036.525,474.907 Z" style="stroke-width:4.0;stroke:rgb(0,0,0);stroke-linecap:round;fill:rgb(116,196,118);" />
<path d="M1002.494,547.050 A1075.000,1075.000 40.000 0,1 1017.545,539.343 L995.105,494.661 A1125.000,1125.000 0.000 0,0 979.355,502.727 Z" style="stroke-width:4.0;stroke:rgb(0,0,0);stroke-linecap:round;fill:rgb(116,196,118);" />
</g>
<path d="M1191.765,470.138 A1075.000,1075.000 40.000 0,1 1241.967,456.427 L1229.965,407.889 A1125.000,1125.000 0.000 0,0 1177.429,422.237 Z" style="stroke-linecap:round;fill:rgb(116,196,118);fill-opacity:0.33;" />
<text x="1170.7" y="330.5" font-size="18.2px" font-family="CMUBright-Roman" style="text-anchor:end;fill:rgb(0,0,0);" transform="rotate(74.7,1170.7,330.5)" >R<tspan baseline-shift="-40%" font-size="90%">s</tspan>caffold<tspan baseline-shift="-40%" font-size="90%">3</tspan>0</text>
<line x1='1177.4' y1='422.2' x2='1171.7' y2='403.1' style="stroke-width:4.0;stroke:rgb(0,0,0);stroke-linecap:round;fill:none;" />
<text x="1162.6" y="395.4" font-size="18.2px" font-family="CMUBright-Roman" style="text-anchor:end;fill:rgb(0,0,0);" transform="rotate(73.3,1162.6,395.4)" >0</text>
<g id="highlighttrack_0">
<path d="M1219.093,462.351 A1075.000,1075.000 40.000 0,1 1236.509,457.792 L1224.253,409.317 A1125.000,1125.000 0.000 0,0 1206.028,414.088 Z" style="stroke-width:4.0;stroke:rgb(0,0,0);stroke-linecap:round;fill:rgb(116,196,118);" />
<path d="M1203.193,466.786 A1075.000,1075.000 40.000 0,1 1218.455,462.523 L1205.360,414.269 A1125.000,1125.000 0.000 0,0 1189.388,418.730 Z" style="stroke-width:4.0;stroke:rgb(0,0,0);stroke-linecap:round;fill:rgb(116,196,118);" />
</g>
<path d="M1296.937,444.353 A1075.000,1075.000 40.000 0,1 1384.212,431.254 L1378.826,381.545 A1125.000,1125.000 0.000 0,0 1287.492,395.253 Z" style="stroke-linecap:round;fill:rgb(116,196,118);fill-opacity:0.33;" />
<text x="1310.3" y="299.9" font-size="18.2px" font-family="CMUBright-Roman" style="text-anchor:end;fill:rgb(0,0,0);" transform="rotate(81.5,1310.3,299.9)" >R<tspan baseline-shift="-40%" font-size="90%">s</tspan>caffold<tspan baseline-shift="-40%" font-size="90%">2</tspan>1</text>
<line x1='1287.5' y1='395.3' x2='1283.7' y2='375.6' style="stroke-width:4.0;stroke:rgb(0,0,0);stroke-linecap:round;fill:none;" />
<text x="1275.4" y="367.0" font-size="18.2px" font-family="CMUBright-Roman" style="text-anchor:end;fill:rgb(0,0,0);" transform="rotate(79.1,1275.4,367.0)" >0</text>
<line x1='1344.9' y1='385.7' x2='1342.2' y2='365.9' style="stroke-width:4.0;stroke:rgb(0,0,0);stroke-linecap:round;fill:none;" />
<text x="1334.4" y="356.9" font-size="18.2px" font-family="CMUBright-Roman" style="text-anchor:end;fill:rgb(0,0,0);" transform="rotate(82.1,1334.4,356.9)" >50</text>
<g id="highlighttrack_0">
<path d="M1309.888,441.944 A1075.000,1075.000 40.000 0,1 1340.440,436.908 L1333.018,387.461 A1125.000,1125.000 0.000 0,0 1301.046,392.732 Z" style="stroke-width:4.0;stroke:rgb(0,0,0);stroke-linecap:round;fill:rgb(116,196,118);" />
</g>
<path d="M1440.304,426.659 A1075.000,1075.000 40.000 0,1 1443.739,426.473 L1441.122,376.542 A1125.000,1125.000 0.000 0,0 1437.528,376.736 Z" style="stroke-linecap:round;fill:rgb(116,196,118);fill-opacity:0.33;" />
<text x="1425.0" y="287.3" font-size="18.2px" font-family="CMUBright-Roman" style="text-anchor:end;fill:rgb(0,0,0);" transform="rotate(86.9,1425.0,287.3)" >R<tspan baseline-shift="-40%" font-size="90%">s</tspan>caffold<tspan baseline-shift="-40%" font-size="90%">3</tspan>7</text>
<line x1='1437.5' y1='376.7' x2='1436.4' y2='356.8' style="stroke-width:4.0;stroke:rgb(0,0,0);stroke-linecap:round;fill:none;" />
<text x="1429.4" y="347.2" font-size="18.2px" font-family="CMUBright-Roman" style="text-anchor:end;fill:rgb(0,0,0);" transform="rotate(86.8,1429.4,347.2)" >0</text>
<g id="highlighttrack_0">
<path d="M1440.494,426.648 A1075.000,1075.000 40.000 0,1 1443.739,426.473 L1441.122,376.542 A1125.000,1125.000 0.000 0,0 1437.727,376.725 Z" style="stroke-width:4.0;stroke:rgb(0,0,0);stroke-linecap:round;fill:rgb(116,196,118);" />
</g>
</g>
<g id="track_0">
<path d="M 2260.715,2244.272 A 1064.250,1064.250 0.00 0,1 2258.6,2246.5 L 2258.6,2246.5 2204.7,2195.2 2151.7,2147.8 2099.7,2103.9 2048.7,2063.2 1998.7,2025.2 1950.0,1989.7 1902.4,1956.4 1856.0,1924.9 1810.9,1894.9 1767.0,1866.2 1724.4,1838.5 1683.0,1811.6 1642.8,1785.3 1603.8,1759.2 1565.8,1733.3 1528.9,1707.3 1492.9,1681.1 1457.8,1654.5 1423.5,1627.5 1389.7,1599.7 1356.5,1571.3 1323.7,1541.9 1291.0,1511.7 1258.4,1480.5 1225.6,1448.3 1192.5,1415.0 1158.9,1380.7 1124.5,1345.3 1089.1,1308.8 1052.4,1271.3 1014.3,1232.9 974.4,1193.5 932.5,1153.2 888.3,1112.2 841.4,1070.6 791.5,1028.4 738.4,985.8 681.7,943.0 621.0,900.1  A 1064.250,1064.250 0.00 0,0 619.2,902.6 L 619.2,902.6 680.1,945.4 736.9,988.0 790.2,1030.4 840.1,1072.5 887.1,1114.0 931.5,1154.9 973.5,1195.0 1013.5,1234.3 1051.8,1272.6 1088.5,1310.0 1124.0,1346.4 1158.5,1381.7 1192.3,1415.9 1225.5,1449.1 1258.3,1481.2 1291.0,1512.3 1323.8,1542.5 1356.7,1571.7 1390.0,1600.0 1423.8,1627.7 1458.3,1654.7 1493.5,1681.1 1529.5,1707.2 1566.5,1733.1 1604.5,1758.9 1643.6,1784.9 1683.9,1811.1 1725.4,1837.9 1768.1,1865.5 1812.0,1894.0 1857.2,1923.9 1903.7,1955.2 1951.4,1988.4 2000.3,2023.8 2050.3,2061.6 2101.4,2102.2 2153.6,2145.9 2206.7,2193.1 2260.7,2244.3  Z" style="stroke-width: 2.0;  stroke: rgb(82,82,82); fill: rgb(251,106,74); opacity: 0.667;" />
<path d="M 1037.282,2458.394 A 1064.250,1064.250 0.00 0,1 1021.3,2450.5 L 1021.3,2450.5 1053.6,2383.9 1082.2,2319.8 1107.5,2258.2 1129.8,2198.8 1149.5,2141.7 1166.8,2086.6 1182.0,2033.5 1195.4,1982.1 1207.1,1932.4 1217.5,1884.2 1226.6,1837.5 1234.8,1791.9 1242.1,1747.5 1248.8,1704.0 1254.8,1661.4 1260.4,1619.4 1265.6,1577.9 1270.6,1536.8 1275.3,1496.0 1279.8,1455.1 1284.1,1414.2 1288.2,1373.0 1292.1,1331.4 1295.7,1289.2 1299.1,1246.3 1302.0,1202.4 1304.5,1157.5 1306.4,1111.2 1307.7,1063.6 1308.0,1014.3 1307.3,963.2 1305.4,910.2 1302.2,855.0 1297.2,797.5 1290.4,737.4 1281.5,674.7 1270.2,609.0 1256.2,540.3 1239.1,468.2  A 1064.250,1064.250 0.00 0,0 1221.9,472.7 L 1221.9,472.7 1240.1,544.5 1255.3,613.0 1267.7,678.5 1277.7,741.1 1285.5,801.0 1291.4,858.4 1295.6,913.5 1298.4,966.5 1299.9,1017.6 1300.4,1066.9 1300.0,1114.5 1298.8,1160.8 1297.1,1205.8 1294.8,1249.7 1292.2,1292.7 1289.3,1334.9 1286.1,1376.6 1282.6,1417.8 1279.0,1458.8 1275.2,1499.7 1271.2,1540.7 1267.0,1581.8 1262.4,1623.4 1257.5,1665.5 1252.2,1708.2 1246.3,1751.8 1239.7,1796.3 1232.3,1842.0 1223.9,1888.9 1214.4,1937.3 1203.5,1987.1 1191.0,2038.7 1176.7,2092.1 1160.3,2147.5 1141.6,2204.9 1120.3,2264.6 1096.0,2326.7 1068.4,2391.2 1037.3,2458.4  Z" style="stroke-width: 2.0;  stroke: rgb(82,82,82); fill: rgb(116,196,118); opacity: 0.667;" />
<path d="M 961.170,2417.764 A 1064.250,1064.250 0.00 0,1 937.4,2403.4 L 937.4,2403.4 975.6,2339.9 1009.9,2278.7 1040.6,2219.6 1068.3,2162.5 1093.0,2107.3 1115.3,2054.0 1135.2,2002.4 1153.2,1952.4 1169.4,1903.9 1184.1,1856.8 1197.6,1811.0 1209.9,1766.4 1221.3,1722.7 1231.9,1680.0 1241.9,1638.0 1251.4,1596.7 1260.5,1555.9 1269.2,1515.3 1277.8,1475.0 1286.1,1434.7 1294.3,1394.4 1302.3,1353.7 1310.2,1312.6 1317.8,1270.9 1325.3,1228.4 1332.5,1184.9 1339.4,1140.4 1345.8,1094.5 1351.7,1047.1 1356.8,998.1 1361.2,947.1 1364.5,894.1 1366.7,838.8 1367.4,781.0 1366.6,720.6 1363.9,657.2 1359.1,590.7 1351.9,520.9 1342.0,447.5  A 1064.250,1064.250 0.00 0,0 1311.8,452.5 L 1311.8,452.5 1323.8,525.6 1332.9,595.2 1339.7,661.5 1344.2,724.7 1346.8,785.1 1347.7,842.9 1347.1,898.2 1345.3,951.3 1342.4,1002.3 1338.6,1051.5 1334.1,1099.0 1329.0,1145.0 1323.4,1189.7 1317.5,1233.3 1311.2,1276.0 1304.7,1317.9 1297.9,1359.1 1291.1,1400.0 1284.0,1440.6 1276.8,1481.1 1269.4,1521.6 1261.7,1562.3 1253.7,1603.4 1245.4,1644.9 1236.5,1687.1 1227.0,1730.1 1216.8,1774.0 1205.7,1818.9 1193.5,1865.1 1180.0,1912.5 1165.1,1961.4 1148.4,2011.8 1129.8,2063.9 1109.0,2117.8 1085.7,2173.6 1059.6,2231.3 1030.3,2291.2 997.7,2353.3 961.2,2417.8  Z" style="stroke-width: 2.0;  stroke: rgb(82,82,82); fill: rgb(107,174,214); opacity: 0.667;" />
<path d="M 1573.747,438.308 A 1064.250,1064.250 0.00 0,1 1577.0,438.5 L 1577.0,438.5 1570.5,512.3 1562.2,581.9 1552.3,647.8 1541.1,710.1 1528.6,769.2 1515.2,825.3 1501.0,878.6 1486.0,929.5 1470.6,978.0 1454.7,1024.6 1438.6,1069.3 1422.1,1112.5 1405.6,1154.2 1388.8,1194.8 1372.1,1234.3 1355.2,1273.0 1338.3,1311.1 1321.2,1348.7 1304.1,1386.0 1286.8,1423.2 1269.2,1460.3 1251.4,1497.5 1233.1,1534.9 1214.2,1572.7 1194.7,1611.0 1174.4,1649.9 1153.1,1689.4 1130.6,1729.7 1106.7,1770.9 1081.2,1813.0 1053.9,1856.0 1024.6,1900.1 992.9,1945.3 958.5,1991.6 921.3,2039.1 880.8,2087.8 836.7,2137.7 788.7,2188.9 736.3,2241.3  A 1064.250,1064.250 0.00 0,0 738.6,2243.6 L 738.6,2243.6 790.8,2191.0 838.6,2139.8 882.6,2089.7 922.9,2040.9 960.0,1993.3 994.2,1946.9 1025.8,1901.6 1055.0,1857.4 1082.2,1814.2 1107.5,1772.1 1131.3,1730.9 1153.6,1690.5 1174.8,1650.9 1195.1,1612.0 1214.4,1573.6 1233.2,1535.7 1251.3,1498.2 1269.1,1461.0 1286.5,1423.8 1303.7,1386.6 1320.8,1349.3 1337.7,1311.6 1354.5,1273.5 1371.2,1234.7 1387.9,1195.1 1404.5,1154.5 1420.9,1112.7 1437.2,1069.5 1453.3,1024.7 1469.0,978.1 1484.3,929.5 1499.0,878.6 1513.1,825.2 1526.4,769.1 1538.6,710.0 1549.7,647.6 1559.4,581.7 1567.5,512.1 1573.7,438.3  Z" style="stroke-width: 2.0;  stroke: rgb(82,82,82); fill: rgb(253,141,60); opacity: 0.667;" />
<path d="M 1061.553,530.262 A 1064.250,1064.250 0.00 0,1 1065.6,528.4 L 1065.6,528.4 1094.8,596.5 1120.5,662.0 1143.0,725.0 1162.6,785.6 1179.8,843.9 1194.7,900.1 1207.7,954.4 1219.0,1006.8 1228.8,1057.5 1237.5,1106.6 1245.1,1154.3 1251.8,1200.7 1257.9,1245.9 1263.4,1290.2 1268.6,1333.6 1273.5,1376.3 1278.1,1418.5 1282.7,1460.2 1287.1,1501.8 1291.5,1543.2 1295.9,1584.7 1300.3,1626.5 1304.7,1668.7 1308.9,1711.5 1313.1,1755.0 1317.0,1799.4 1320.6,1844.9 1323.8,1891.7 1326.4,1939.9 1328.3,1989.8 1329.4,2041.4 1329.4,2095.0 1328.2,2150.8 1325.4,2208.9 1321.0,2269.5 1314.6,2332.9 1305.9,2399.2 1294.6,2468.6 1280.4,2541.4  A 1064.250,1064.250 0.00 0,0 1284.8,2542.3 L 1284.8,2542.3 1298.7,2469.5 1309.6,2400.0 1318.1,2333.7 1324.2,2270.3 1328.4,2209.6 1330.9,2151.5 1331.9,2095.7 1331.7,2042.1 1330.4,1990.5 1328.2,1940.7 1325.4,1892.5 1322.0,1845.7 1318.2,1800.2 1314.1,1755.8 1309.8,1712.3 1305.4,1669.5 1300.9,1627.4 1296.3,1585.6 1291.7,1544.1 1287.1,1502.6 1282.5,1461.1 1277.8,1419.4 1272.9,1377.3 1267.9,1334.6 1262.6,1291.2 1256.8,1247.0 1250.6,1201.7 1243.6,1155.4 1235.8,1107.7 1227.0,1058.6 1216.9,1008.0 1205.4,955.6 1192.2,901.4 1177.0,845.3 1159.6,787.0 1139.7,726.5 1116.9,663.6 1091.0,598.2 1061.6,530.3  Z" style="stroke-width: 2.0;  stroke: rgb(82,82,82); fill: rgb(255,0,0); opacity: 0.667;" />
<path d="M 652.614,856.133 A 1064.250,1064.250 0.00 0,1 654.1,854.2 L 654.1,854.2 712.3,900.0 766.1,945.3 816.0,989.9 862.3,1033.7 905.2,1076.8 945.2,1119.1 982.6,1160.5 1017.6,1201.2 1050.5,1241.0 1081.6,1280.0 1111.1,1318.3 1139.3,1355.8 1166.3,1392.7 1192.4,1428.9 1217.8,1464.6 1242.6,1499.7 1266.9,1534.5 1291.0,1569.0 1314.8,1603.3 1338.7,1637.6 1362.5,1671.9 1386.5,1706.5 1410.6,1741.4 1435.0,1776.9 1459.6,1813.1 1484.5,1850.1 1509.6,1888.3 1535.0,1927.8 1560.6,1968.8 1586.3,2011.5 1612.2,2056.2 1638.1,2103.2 1664.0,2152.7 1689.7,2204.9 1715.1,2260.2 1740.1,2318.8 1764.6,2381.1 1788.2,2447.3 1811.0,2517.8  A 1064.250,1064.250 0.00 0,0 1813.4,2517.1 L 1813.4,2517.1 1790.5,2446.6 1766.6,2380.4 1742.1,2318.2 1716.9,2259.7 1691.4,2204.5 1665.5,2152.3 1639.6,2102.9 1613.5,2056.0 1587.5,2011.3 1561.7,1968.6 1536.0,1927.7 1510.5,1888.3 1485.3,1850.2 1460.3,1813.2 1435.6,1777.0 1411.2,1741.6 1387.0,1706.8 1362.9,1672.3 1339.0,1638.0 1315.1,1603.8 1291.1,1569.5 1267.0,1535.1 1242.6,1500.3 1217.7,1465.2 1192.3,1429.6 1166.1,1393.5 1139.0,1356.7 1110.7,1319.2 1081.1,1281.0 1049.9,1242.1 1016.9,1202.3 981.8,1161.7 944.3,1120.4 904.2,1078.2 861.2,1035.2 814.8,991.5 764.8,947.0 710.9,901.9 652.6,856.1  Z" style="stroke-width: 2.0;  stroke: rgb(82,82,82); fill: rgb(255,0,204); opacity: 0.667;" />
<path d="M 436.726,1454.439 A 1064.250,1064.250 0.00 0,1 437.1,1446.5 L 437.1,1446.5 511.4,1451.4 582.4,1458.4 650.3,1467.0 715.4,1476.9 777.8,1487.9 837.6,1499.6 895.2,1511.7 950.6,1524.0 1004.0,1536.4 1055.7,1548.5 1105.8,1560.1 1154.4,1571.2 1201.9,1581.6 1248.3,1591.1 1293.8,1599.5 1338.6,1607.0 1382.9,1613.3 1426.9,1618.4 1470.6,1622.2 1514.4,1624.9 1558.3,1626.3 1602.5,1626.6 1647.3,1625.7 1692.7,1623.7 1738.9,1620.8 1786.1,1617.0 1834.4,1612.5 1884.1,1607.3 1935.2,1601.8 1988.0,1596.0 2042.5,1590.3 2099.0,1584.7 2157.6,1579.6 2218.4,1575.2 2281.6,1571.9 2347.4,1569.9 2415.9,1569.5 2487.2,1571.2 2561.6,1575.3  A 1064.250,1064.250 0.00 0,0 2562.1,1567.2 L 2562.1,1567.2 2487.8,1563.7 2416.4,1562.6 2347.9,1563.5 2282.2,1566.0 2219.0,1569.8 2158.2,1574.6 2099.6,1580.1 2043.2,1586.1 1988.7,1592.3 1936.0,1598.5 1884.9,1604.4 1835.3,1609.9 1786.9,1614.8 1739.8,1619.0 1693.6,1622.3 1648.2,1624.6 1603.5,1625.8 1559.2,1625.9 1515.3,1624.8 1471.6,1622.4 1427.8,1618.9 1383.8,1614.1 1339.4,1608.2 1294.6,1601.1 1249.0,1592.9 1202.5,1583.8 1155.0,1573.8 1106.2,1563.1 1056.1,1551.8 1004.3,1540.1 950.8,1528.2 895.3,1516.2 837.6,1504.5 777.7,1493.3 715.3,1482.8 650.1,1473.4 582.1,1465.3 511.0,1458.8 436.7,1454.4  Z" style="stroke-width: 2.0;  stroke: rgb(82,82,82); fill: rgb(255,204,204); opacity: 0.667;" />
<path d="M 466.977,1755.912 A 1064.250,1064.250 0.00 0,1 466.2,1752.9 L 466.2,1752.9 538.2,1734.0 606.4,1713.8 671.3,1692.6 733.0,1670.6 791.7,1648.1 847.8,1625.2 901.5,1602.4 953.0,1579.6 1002.6,1557.1 1050.4,1535.1 1096.7,1513.6 1141.8,1492.9 1185.7,1473.0 1228.8,1454.0 1271.3,1435.9 1313.2,1418.9 1354.8,1402.8 1396.3,1387.8 1437.9,1373.9 1479.7,1360.9 1521.8,1348.8 1564.5,1337.7 1607.9,1327.3 1652.1,1317.5 1697.3,1308.4 1743.6,1299.6 1791.1,1291.1 1840.0,1282.6 1890.3,1274.0 1942.2,1265.1 1995.7,1255.5 2051.1,1245.0 2108.3,1233.5 2167.4,1220.5 2228.6,1205.7 2291.9,1188.9 2357.3,1169.6 2425.0,1147.6 2495.0,1122.3  A 1064.250,1064.250 0.00 0,0 2493.8,1119.3 L 2493.8,1119.3 2424.0,1144.8 2356.3,1167.1 2291.0,1186.6 2227.7,1203.6 2166.6,1218.5 2107.5,1231.7 2050.3,1243.4 1995.0,1254.0 1941.5,1263.7 1889.6,1272.9 1839.3,1281.6 1790.5,1290.2 1743.0,1298.9 1696.7,1307.8 1651.6,1317.1 1607.4,1326.9 1564.0,1337.5 1521.4,1348.8 1479.3,1360.9 1437.5,1374.0 1396.0,1388.1 1354.5,1403.3 1312.9,1419.4 1271.1,1436.6 1228.7,1454.8 1185.7,1473.9 1141.7,1494.0 1096.8,1514.8 1050.5,1536.4 1002.7,1558.6 953.2,1581.2 901.8,1604.1 848.2,1627.2 792.2,1650.2 733.5,1672.9 671.9,1695.1 607.1,1716.5 538.9,1736.9 467.0,1755.9  Z" style="stroke-width: 2.0;  stroke: rgb(82,82,82); fill: rgb(255,153,0); opacity: 0.667;" />
<path d="M 550.123,1020.040 A 1064.250,1064.250 0.00 0,1 551.3,1017.8 L 551.3,1017.8 616.8,1052.4 677.8,1087.1 734.9,1121.9 788.2,1156.5 838.1,1191.1 884.9,1225.3 928.9,1259.3 970.5,1292.8 1009.8,1326.0 1047.1,1358.7 1082.7,1391.0 1116.8,1422.9 1149.7,1454.3 1181.4,1485.3 1212.3,1515.9 1242.5,1546.2 1272.1,1576.2 1301.4,1606.0 1330.4,1635.8 1359.3,1665.5 1388.2,1695.4 1417.1,1725.5 1446.3,1756.1 1475.7,1787.1 1505.4,1818.9 1535.4,1851.5 1565.8,1885.3 1596.6,1920.3 1627.9,1956.9 1659.5,1995.1 1691.5,2035.4 1723.8,2077.9 1756.5,2122.9 1789.3,2170.7 1822.4,2221.6 1855.5,2275.9 1888.5,2334.0 1921.4,2396.0 1954.1,2462.5  A 1064.250,1064.250 0.00 0,0 1956.4,2461.4 L 1956.4,2461.4 1923.6,2395.0 1890.5,2333.0 1857.3,2275.1 1824.1,2220.9 1790.9,2170.0 1757.9,2122.3 1725.2,2077.4 1692.8,2034.9 1660.7,1994.8 1628.9,1956.6 1597.6,1920.1 1566.7,1885.1 1536.2,1851.5 1506.1,1818.9 1476.3,1787.2 1446.9,1756.2 1417.7,1725.7 1388.6,1695.7 1359.7,1665.9 1330.7,1636.2 1301.6,1606.5 1272.3,1576.7 1242.6,1546.8 1212.3,1516.6 1181.4,1486.0 1149.5,1455.1 1116.6,1423.8 1082.5,1392.0 1046.8,1359.8 1009.4,1327.2 970.0,1294.1 928.4,1260.6 884.2,1226.8 837.3,1192.6 787.4,1158.2 734.0,1123.7 676.9,1089.1 615.7,1054.5 550.1,1020.0  Z" style="stroke-width: 2.0;  stroke: rgb(82,82,82); fill: rgb(255,204,0); opacity: 0.667;" />
<path d="M 1206.161,477.118 A 1064.250,1064.250 0.00 0,1 1221.3,472.9 L 1221.3,472.9 1239.6,544.7 1254.8,613.3 1267.2,678.9 1277.3,741.6 1285.1,801.8 1291.1,859.5 1295.5,914.9 1298.4,968.2 1300.2,1019.6 1300.9,1069.2 1300.9,1117.3 1300.1,1163.9 1298.8,1209.3 1297.1,1253.6 1295.1,1297.1 1292.8,1339.7 1290.4,1381.8 1287.9,1423.5 1285.2,1465.0 1282.5,1506.3 1279.6,1547.8 1276.6,1589.4 1273.5,1631.5 1270.1,1674.1 1266.4,1717.4 1262.2,1761.6 1257.5,1806.7 1252.1,1853.1 1245.8,1900.7 1238.5,1949.8 1230.0,2000.5 1220.0,2053.0 1208.4,2107.3 1194.8,2163.7 1179.1,2222.3 1160.9,2283.2 1139.8,2346.6 1115.7,2412.6 1088.1,2481.3  A 1064.250,1064.250 0.00 0,0 1102.6,2487.3 L 1102.6,2487.3 1129.2,2418.1 1152.4,2351.8 1172.4,2288.1 1189.8,2227.0 1204.7,2168.1 1217.4,2111.6 1228.2,2057.0 1237.4,2004.4 1245.2,1953.6 1251.7,1904.4 1257.3,1856.7 1262.0,1810.3 1266.1,1765.1 1269.6,1720.8 1272.7,1677.5 1275.5,1634.8 1278.0,1592.7 1280.3,1551.0 1282.6,1509.6 1284.7,1468.2 1286.8,1426.7 1288.7,1384.9 1290.5,1342.8 1292.1,1300.1 1293.5,1256.7 1294.6,1212.3 1295.2,1166.9 1295.2,1120.3 1294.6,1072.2 1293.1,1022.6 1290.6,971.3 1286.9,918.0 1281.7,862.6 1274.9,805.0 1266.1,745.0 1255.2,682.4 1241.7,617.0 1225.5,548.6 1206.2,477.1  Z" style="stroke-width: 2.0;  stroke: rgb(82,82,82); fill: rgb(255,255,0); opacity: 0.667;" />
<path d="M 856.561,2347.712 A 1064.250,1064.250 0.00 0,1 854.0,2345.8 L 854.0,2345.8 898.0,2286.2 938.0,2228.5 974.3,2172.6 1007.2,2118.4 1037.1,2065.8 1064.3,2014.9 1089.1,1965.4 1111.7,1917.3 1132.5,1870.6 1151.7,1825.1 1169.4,1780.8 1185.9,1737.5 1201.4,1695.2 1216.1,1653.6 1230.0,1612.8 1243.4,1572.5 1256.4,1532.7 1269.0,1493.2 1281.3,1453.9 1293.5,1414.6 1305.5,1375.2 1317.4,1335.4 1329.2,1295.3 1340.8,1254.5 1352.4,1212.9 1363.7,1170.4 1374.8,1126.6 1385.6,1081.6 1396.0,1035.0 1405.9,986.6 1415.1,936.4 1423.6,883.9 1431.1,829.1 1437.4,771.6 1442.4,711.4 1445.8,648.0 1447.4,581.4 1447.0,511.2 1444.3,437.2  A 1064.250,1064.250 0.00 0,0 1441.1,437.4 L 1441.1,437.4 1444.0,511.4 1444.7,581.5 1443.2,648.2 1440.0,711.5 1435.2,771.8 1429.0,829.3 1421.7,884.1 1413.4,936.6 1404.4,986.9 1394.6,1035.3 1384.4,1081.9 1373.7,1127.0 1362.7,1170.8 1351.5,1213.4 1340.1,1255.0 1328.6,1295.8 1316.9,1336.0 1305.1,1375.8 1293.2,1415.2 1281.2,1454.6 1269.0,1493.9 1256.5,1533.5 1243.6,1573.3 1230.4,1613.6 1216.5,1654.5 1202.0,1696.1 1186.6,1738.5 1170.2,1781.8 1152.6,1826.2 1133.6,1871.7 1113.0,1918.5 1090.5,1966.6 1065.9,2016.2 1038.8,2067.2 1009.1,2119.9 976.3,2174.2 940.2,2230.2 900.4,2288.1 856.6,2347.7  Z" style="stroke-width: 2.0;  stroke: rgb(82,82,82); fill: rgb(204,255,0); opacity: 0.667;" />
<path d="M 2070.984,601.888 A 1064.250,1064.250 0.00 0,1 2076.8,605.6 L 2076.8,605.6 2036.1,667.0 1996.7,723.4 1958.4,775.2 1921.1,822.8 1884.9,866.3 1849.6,906.1 1815.2,942.4 1781.7,975.5 1748.8,1005.6 1716.7,1032.8 1685.1,1057.5 1654.0,1079.7 1623.3,1099.6 1593.0,1117.4 1562.9,1133.2 1532.9,1147.0 1502.9,1159.0 1472.8,1169.3 1442.5,1178.0 1412.0,1184.9 1381.0,1190.3 1349.4,1194.1 1317.2,1196.3 1284.1,1196.8 1250.2,1195.7 1215.1,1192.8 1178.8,1188.2 1141.2,1181.7 1102.0,1173.2 1061.2,1162.6 1018.6,1149.8 974.0,1134.5 927.2,1116.7 878.2,1096.2 826.7,1072.7 772.5,1046.0 715.4,1016.0 655.4,982.2 592.2,944.6  A 1064.250,1064.250 0.00 0,0 588.6,950.5 L 588.6,950.5 652.1,987.7 712.3,1021.0 769.5,1050.7 823.9,1077.0 875.6,1100.2 924.8,1120.4 971.6,1137.9 1016.4,1152.9 1059.1,1165.4 1099.9,1175.8 1139.1,1184.0 1176.8,1190.3 1213.1,1194.7 1248.2,1197.3 1282.2,1198.2 1315.2,1197.4 1347.4,1195.1 1379.0,1191.1 1409.9,1185.5 1440.5,1178.3 1470.7,1169.5 1500.7,1159.0 1530.6,1146.8 1560.5,1132.8 1590.5,1116.8 1620.7,1098.8 1651.3,1078.7 1682.2,1056.3 1713.6,1031.5 1745.6,1004.0 1778.3,973.7 1811.6,940.4 1845.8,903.9 1880.8,863.8 1916.8,820.1 1953.7,772.3 1991.7,720.2 2030.8,663.5 2071.0,601.9  Z" style="stroke-width: 2.0;  stroke: rgb(82,82,82); fill: rgb(0,255,0); opacity: 0.667;" />
<path d="M 2466.124,1946.356 A 1064.250,1064.250 0.00 0,1 2465.2,1948.4 L 2465.2,1948.4 2397.3,1918.2 2331.6,1891.4 2268.0,1867.7 2206.5,1846.6 2147.0,1827.8 2089.4,1811.0 2033.7,1795.9 1979.8,1782.2 1927.5,1769.6 1876.8,1757.9 1827.6,1746.7 1779.7,1736.0 1733.2,1725.5 1687.7,1715.1 1643.3,1704.4 1599.7,1693.5 1556.9,1682.3 1514.7,1670.4 1473.0,1658.0 1431.5,1645.0 1390.2,1631.2 1348.8,1616.6 1307.3,1601.3 1265.4,1585.3 1222.9,1568.5 1179.6,1551.0 1135.5,1532.9 1090.1,1514.2 1043.4,1495.1 995.2,1475.6 945.1,1456.0 893.1,1436.3 838.8,1416.7 782.0,1397.4 722.5,1378.7 660.0,1360.7 594.3,1343.7 525.1,1328.0 452.2,1313.8  A 1064.250,1064.250 0.00 0,0 451.8,1316.0 L 451.8,1316.0 524.7,1330.1 594.0,1345.6 659.7,1362.5 722.2,1380.4 781.8,1399.0 838.6,1418.1 892.9,1437.6 945.0,1457.2 995.1,1476.7 1043.4,1496.1 1090.2,1515.1 1135.5,1533.7 1179.8,1551.7 1223.0,1569.1 1265.6,1585.8 1307.5,1601.8 1349.1,1617.0 1390.5,1631.4 1431.8,1645.1 1473.3,1658.1 1515.1,1670.4 1557.3,1682.1 1600.1,1693.3 1643.7,1704.1 1688.2,1714.6 1733.6,1725.0 1780.3,1735.4 1828.1,1746.0 1877.4,1757.0 1928.1,1768.7 1980.4,1781.2 2034.4,1794.8 2090.1,1809.7 2147.7,1826.4 2207.3,1845.0 2268.8,1866.0 2332.4,1889.6 2398.2,1916.3 2466.1,1946.4  Z" style="stroke-width: 2.0;  stroke: rgb(82,82,82); fill: rgb(53,128,0); opacity: 0.667;" />
<path d="M 2144.784,653.311 A 1064.250,1064.250 0.00 0,1 2147.4,655.3 L 2147.4,655.3 2101.7,713.2 2057.4,766.4 2014.2,815.2 1972.2,859.9 1931.4,900.9 1891.5,938.5 1852.7,972.8 1814.8,1004.2 1777.8,1032.9 1741.5,1059.1 1705.9,1083.0 1671.0,1104.8 1636.5,1124.8 1602.4,1142.9 1568.7,1159.4 1535.1,1174.4 1501.7,1188.0 1468.2,1200.3 1434.5,1211.3 1400.6,1221.2 1366.3,1229.9 1331.5,1237.4 1295.9,1243.9 1259.6,1249.2 1222.2,1253.3 1183.7,1256.2 1144.0,1257.9 1102.7,1258.2 1059.9,1257.1 1015.2,1254.4 968.6,1250.0 919.7,1243.8 868.6,1235.6 814.8,1225.2 758.4,1212.5 699.0,1197.2 636.4,1179.1 570.4,1157.9 500.9,1133.5  A 1064.250,1064.250 0.00 0,0 499.7,1136.5 L 499.7,1136.5 569.4,1160.8 635.4,1181.7 698.0,1199.6 757.5,1214.8 814.0,1227.3 867.8,1237.5 919.0,1245.6 967.8,1251.6 1014.5,1255.9 1059.1,1258.4 1102.0,1259.4 1143.2,1259.0 1183.0,1257.2 1221.5,1254.2 1258.8,1249.9 1295.2,1244.5 1330.7,1238.0 1365.5,1230.3 1399.8,1221.5 1433.7,1211.5 1467.3,1200.4 1500.7,1188.0 1534.1,1174.3 1567.6,1159.2 1601.3,1142.6 1635.3,1124.3 1669.8,1104.3 1704.7,1082.4 1740.2,1058.4 1776.4,1032.1 1813.3,1003.3 1851.1,971.7 1889.8,937.3 1929.5,899.6 1970.3,858.5 2012.1,813.6 2055.1,764.7 2099.3,711.4 2144.8,653.3  Z" style="stroke-width: 2.0;  stroke: rgb(82,82,82); fill: rgb(0,0,204); opacity: 0.667;" />
<path d="M 2379.081,900.129 A 1064.250,1064.250 0.00 0,1 2380.4,902.1 L 2380.4,902.1 2318.2,942.9 2257.3,980.1 2198.0,1014.2 2140.1,1045.4 2083.8,1074.2 2029.1,1100.8 1975.9,1125.7 1924.3,1149.1 1874.3,1171.3 1825.8,1192.7 1778.8,1213.4 1733.2,1233.6 1689.1,1253.8 1646.3,1273.9 1604.7,1294.3 1564.4,1315.1 1525.1,1336.4 1486.7,1358.5 1449.2,1381.3 1412.5,1405.2 1376.2,1430.0 1340.4,1456.0 1304.9,1483.1 1269.4,1511.5 1233.9,1541.1 1198.0,1571.9 1161.6,1603.9 1124.4,1637.2 1086.4,1671.6 1047.1,1707.2 1006.3,1743.8 963.9,1781.3 919.4,1819.6 872.7,1858.7 823.4,1898.3 771.3,1938.4 715.9,1978.6 657.1,2018.9 594.4,2059.0  A 1064.250,1064.250 0.00 0,0 595.7,2061.1 L 595.7,2061.1 658.3,2020.8 717.0,1980.4 772.3,1940.0 824.3,1899.8 873.5,1860.1 920.1,1820.9 964.5,1782.5 1006.9,1744.9 1047.5,1708.2 1086.7,1672.6 1124.7,1638.0 1161.8,1604.7 1198.1,1572.6 1233.9,1541.6 1269.5,1512.0 1304.9,1483.6 1340.4,1456.3 1376.1,1430.3 1412.2,1405.4 1449.0,1381.4 1486.4,1358.5 1524.7,1336.3 1563.9,1314.9 1604.3,1294.0 1645.8,1273.6 1688.5,1253.3 1732.6,1233.1 1778.1,1212.7 1825.1,1191.9 1873.5,1170.5 1923.5,1148.2 1975.1,1124.6 2028.2,1099.7 2082.9,1072.9 2139.1,1044.0 2196.9,1012.6 2256.2,978.4 2316.9,941.1 2379.1,900.1  Z" style="stroke-width: 2.0;  stroke: rgb(82,82,82); fill: rgb(102,153,255); opacity: 0.667;" />
<path d="M 1502.086,2564.248 A 1064.250,1064.250 0.00 0,1 1485.5,2564.2 L 1485.5,2564.2 1485.3,2490.0 1482.9,2419.4 1478.6,2352.3 1472.7,2288.3 1465.4,2227.3 1456.9,2169.0 1447.5,2113.2 1437.4,2059.6 1426.8,2008.1 1415.8,1958.5 1404.6,1910.6 1393.3,1864.0 1382.1,1818.8 1370.9,1774.6 1360.0,1731.3 1349.3,1688.7 1338.8,1646.7 1328.7,1605.0 1318.9,1563.5 1309.4,1522.0 1300.1,1480.3 1291.0,1438.4 1282.0,1396.0 1273.0,1353.0 1264.0,1309.3 1254.7,1264.7 1245.1,1219.0 1235.0,1172.3 1224.1,1124.2 1212.3,1074.8 1199.4,1023.8 1185.1,971.3 1169.2,916.9 1151.3,860.8 1131.3,802.7 1108.7,742.5 1083.2,680.3 1054.6,615.8 1022.4,548.9  A 1064.250,1064.250 0.00 0,0 1007.5,556.6 L 1007.5,556.6 1040.7,622.9 1070.4,686.9 1096.8,748.8 1120.3,808.6 1141.3,866.3 1160.0,922.2 1176.8,976.3 1192.0,1028.6 1205.7,1079.4 1218.2,1128.6 1229.8,1176.5 1240.7,1223.1 1251.1,1268.6 1261.0,1313.0 1270.7,1356.6 1280.4,1399.4 1290.0,1441.7 1299.8,1483.5 1309.7,1525.0 1319.9,1566.3 1330.4,1607.7 1341.1,1649.2 1352.2,1691.1 1363.6,1733.5 1375.2,1776.6 1387.1,1820.6 1399.0,1865.7 1411.0,1912.0 1423.0,1959.8 1434.8,2009.2 1446.2,2060.5 1457.1,2113.9 1467.4,2169.6 1476.7,2227.8 1485.0,2288.7 1491.9,2352.5 1497.3,2419.6 1500.8,2490.1 1502.1,2564.2  Z" style="stroke-width: 2.0;  stroke: rgb(82,82,82); fill: rgb(153,204,255); opacity: 0.667;" />
</g>
<defs>
<pattern id="hline-sparse" width="10" height="10" patternTransform="rotate(0 0 0)" patternUnits="userSpaceOnUse"><line x1="0" y1="0" x2="10" y2="0" style="stroke:black;stroke-width:2" /></pattern>
<pattern id="checker" width="10" height="10" patternTransform="rotate(45 0 0)" patternUnits="userSpaceOnUse"><line x1="0" y1="0" x2="10" y2="0" style="stroke:black;stroke-width:2" /><line x1="0" y1="0" x2="0" y2="10" style="stroke:black;stroke-width:2" /></pattern>
<pattern id="checker" width="10" height="10" patternTransform="rotate(45 0 0)" patternUnits="userSpaceOnUse"><line x1="0" y1="0" x2="10" y2="0" style="stroke:black;stroke-width:5" /><line x1="0" y1="0" x2="0" y2="10" style="stroke:black;stroke-width:4" /></pattern>
<pattern id="hline" width="10" height="10" patternTransform="rotate(0 0 0)" patternUnits="userSpaceOnUse"><line x1="0" y1="0" x2="10" y2="0" style="stroke:black;stroke-width:5" /></pattern>
<pattern id="vline-sparse" width="10" height="10" patternTransform="rotate(0 0 0)" patternUnits="userSpaceOnUse"><line x1="0" y1="0" x2="0" y2="10" style="stroke:black;stroke-width:2" /></pattern>
<pattern id="vline" width="10" height="10" patternTransform="rotate(0 0 0)" patternUnits="userSpaceOnUse"><line x1="0" y1="0" x2="0" y2="10" style="stroke:black;stroke-width:5" /></pattern>
</defs>
</svg>
