<?xml version="1.0" encoding="utf-8" standalone="no"?>
<!DOCTYPE svg PUBLIC "-//W3C//DTD SVG 1.1//EN" "http://www.w3.org/Graphics/SVG/1.1/DTD/svg11.dtd">
<svg width="3000px" height="3000px" version="1.1" xmlns="http://www.w3.org/2000/svg" xmlns:xlink="http://www.w3.org/1999/xlink">
<g id="ideograms">
<path d="M1500.000,425.000 A1075.000,1075.000 40.000 0,1 1788.779,464.514 L1802.211,416.352 A1125.000,1125.000 0.000 0,0 1500.000,375.000 Z" style="stroke-linecap:round;fill:rgb(116,196,118);fill-opacity:0.33;" />
<text x="1674.1" y="297.5" font-size="18.2px" font-family="CMUBright-Roman" style="text-anchor:start;fill:rgb(0,0,0);" transform="rotate(277.8,1674.1,297.5)" >R<tspan baseline-shift="-40%" font-size="90%">s</tspan>caffold<tspan baseline-shift="-40%" font-size="90%">8</tspan></text>
<line x1='1500.0' y1='375.0' x2='1500.0' y2='355.0' style="stroke-width:4.0;stroke:rgb(0,0,0);stroke-linecap:round;fill:none;" />
<text x="1506.5" y="345.0" font-size="18.2px" font-family="CMUBright-Roman" style="text-anchor:start;fill:rgb(0,0,0);" transform="rotate(270.0,1506.5,345.0)" >0</text>
<line x1='1564.9' y1='376.9' x2='1566.1' y2='356.9' style="stroke-width:4.0;stroke:rgb(0,0,0);stroke-linecap:round;fill:none;" />
<text x="1573.1" y="347.3" font-size="18.2px" font-family="CMUBright-Roman" style="text-anchor:start;fill:rgb(0,0,0);" transform="rotate(273.3,1573.1,347.3)" >50</text>
<line x1='1629.6' y1='382.5' x2='1631.9' y2='362.6' style="stroke-width:4.0;stroke:rgb(0,0,0);stroke-linecap:round;fill:none;" />
<text x="1639.5" y="353.5" font-size="18.2px" font-family="CMUBright-Roman" style="text-anchor:start;fill:rgb(0,0,0);" transform="rotate(276.6,1639.5,353.5)" >100</text>
<line x1='1693.8' y1='391.8' x2='1697.3' y2='372.1' style="stroke-width:4.0;stroke:rgb(0,0,0);stroke-linecap:round;fill:none;" />
<text x="1705.4" y="363.4" font-size="18.2px" font-family="CMUBright-Roman" style="text-anchor:start;fill:rgb(0,0,0);" transform="rotate(279.9,1705.4,363.4)" >150</text>
<line x1='1757.4' y1='404.9' x2='1762.0' y2='385.4' style="stroke-width:4.0;stroke:rgb(0,0,0);stroke-linecap:round;fill:none;" />
<text x="1770.6" y="377.2" font-size="18.2px" font-family="CMUBright-Roman" style="text-anchor:start;fill:rgb(0,0,0);" transform="rotate(283.2,1770.6,377.2)" >200</text>
<g id="highlighttrack_0">
<path d="M1521.261,425.210 A1075.000,1075.000 40.000 0,1 1538.135,425.677 L1539.909,375.708 A1125.000,1125.000 0.000 0,0 1522.250,375.220 Z" style="stroke-width:4.0;stroke:rgb(0,0,0);stroke-linecap:round;fill:rgb(116,196,118);" />
</g>
<path d="M1850.773,483.839 A1075.000,1075.000 40.000 0,1 2058.370,581.388 L2084.341,538.662 A1125.000,1125.000 0.000 0,0 1867.088,436.576 Z" style="stroke-linecap:round;fill:rgb(116,196,118);fill-opacity:0.33;" />
<text x="2025.3" y="404.4" font-size="18.2px" font-family="CMUBright-Roman" style="text-anchor:start;fill:rgb(0,0,0);" transform="rotate(295.2,2025.3,404.4)" >R<tspan baseline-shift="-40%" font-size="90%">s</tspan>caffold<tspan baseline-shift="-40%" font-size="90%">1</tspan>0</text>
<line x1='1867.1' y1='436.6' x2='1873.6' y2='417.7' style="stroke-width:4.0;stroke:rgb(0,0,0);stroke-linecap:round;fill:none;" />
<text x="1883.0" y="410.4" font-size="18.2px" font-family="CMUBright-Roman" style="text-anchor:start;fill:rgb(0,0,0);" transform="rotate(289.0,1883.0,410.4)" >0</text>
<line x1='1927.8' y1='459.5' x2='1935.4' y2='441.0' style="stroke-width:4.0;stroke:rgb(0,0,0);stroke-linecap:round;fill:none;" />
<text x="1945.2" y="434.3" font-size="18.2px" font-family="CMUBright-Roman" style="text-anchor:start;fill:rgb(0,0,0);" transform="rotate(292.4,1945.2,434.3)" >50</text>
<line x1='1987.1' y1='485.9' x2='1995.8' y2='467.9' style="stroke-width:4.0;stroke:rgb(0,0,0);stroke-linecap:round;fill:none;" />
<text x="2006.0" y="461.7" font-size="18.2px" font-family="CMUBright-Roman" style="text-anchor:start;fill:rgb(0,0,0);" transform="rotate(295.7,2006.0,461.7)" >100</text>
<line x1='2044.8' y1='515.7' x2='2054.5' y2='498.2' style="stroke-width:4.0;stroke:rgb(0,0,0);stroke-linecap:round;fill:none;" />
<text x="2065.0" y="492.6" font-size="18.2px" font-family="CMUBright-Roman" style="text-anchor:start;fill:rgb(0,0,0);" transform="rotate(299.0,2065.0,492.6)" >150</text>
<g id="highlighttrack_0">
<path d="M2025.776,562.351 A1075.000,1075.000 40.000 0,1 2041.794,571.515 L2066.993,528.330 A1125.000,1125.000 0.000 0,0 2050.230,518.740 Z" style="stroke-width:4.0;stroke:rgb(0,0,0);stroke-linecap:round;fill:rgb(251,106,74);" />
</g>
<path d="M2112.816,616.778 A1075.000,1075.000 40.000 0,1 2117.055,619.734 L2145.756,578.792 A1125.000,1125.000 0.000 0,0 2141.319,575.698 Z" style="stroke-linecap:round;fill:rgb(116,196,118);fill-opacity:0.33;" />
<text x="2202.8" y="508.9" font-size="18.2px" font-family="CMUBright-Roman" style="text-anchor:start;fill:rgb(0,0,0);" transform="rotate(304.9,2202.8,508.9)" >R<tspan baseline-shift="-40%" font-size="90%">s</tspan>caffold<tspan baseline-shift="-40%" font-size="90%">2</tspan>4</text>
<line x1='2141.3' y1='575.7' x2='2152.7' y2='559.3' style="stroke-width:4.0;stroke:rgb(0,0,0);stroke-linecap:round;fill:none;" />
<text x="2163.8" y="554.8" font-size="18.2px" font-family="CMUBright-Roman" style="text-anchor:start;fill:rgb(0,0,0);" transform="rotate(304.8,2163.8,554.8)" >0</text>
<g id="highlighttrack_0">
<path d="M2113.556,617.292 A1075.000,1075.000 40.000 0,1 2116.766,619.531 L2145.452,578.579 A1125.000,1125.000 0.000 0,0 2142.093,576.235 Z" style="stroke-width:4.0;stroke:rgb(0,0,0);stroke-linecap:round;fill:rgb(116,196,118);" />
</g>
<path d="M2169.079,658.597 A1075.000,1075.000 40.000 1,1 1435.093,426.961 L1432.074,377.053 A1125.000,1125.000 0.000 1,0 2200.199,619.462 Z" style="stroke-linecap:round;fill:rgb(116,196,118);fill-opacity:0.33;" />
<text x="1143.4" y="2661.5" font-size="18.2px" font-family="CMUBright-Roman" style="text-anchor:end;fill:rgb(0,0,0);" transform="rotate(-72.5,1143.4,2661.5)" >NZ<tspan baseline-shift="-40%" font-size="90%">C</tspan>P020373.1</text>
<line x1='2200.2' y1='619.5' x2='2212.6' y2='603.8' style="stroke-width:4.0;stroke:rgb(0,0,0);stroke-linecap:round;fill:none;" />
<text x="2223.9" y="600.0" font-size="18.2px" font-family="CMUBright-Roman" style="text-anchor:start;fill:rgb(0,0,0);" transform="rotate(308.5,2223.9,600.0)" >0</text>
<line x1='2249.8' y1='661.3' x2='2263.2' y2='646.4' style="stroke-width:4.0;stroke:rgb(0,0,0);stroke-linecap:round;fill:none;" />
<text x="2274.7" y="643.3" font-size="18.2px" font-family="CMUBright-Roman" style="text-anchor:start;fill:rgb(0,0,0);" transform="rotate(311.8,2274.7,643.3)" >50</text>
<line x1='2297.0' y1='706.0' x2='2311.1' y2='691.9' style="stroke-width:4.0;stroke:rgb(0,0,0);stroke-linecap:round;fill:none;" />
<text x="2322.8" y="689.4" font-size="18.2px" font-family="CMUBright-Roman" style="text-anchor:start;fill:rgb(0,0,0);" transform="rotate(315.1,2322.8,689.4)" >100</text>
<line x1='2341.4' y1='753.3' x2='2356.4' y2='740.0' style="stroke-width:4.0;stroke:rgb(0,0,0);stroke-linecap:round;fill:none;" />
<text x="2368.2" y="738.2" font-size="18.2px" font-family="CMUBright-Roman" style="text-anchor:start;fill:rgb(0,0,0);" transform="rotate(318.4,2368.2,738.2)" >150</text>
<line x1='2383.1' y1='803.1' x2='2398.8' y2='790.7' style="stroke-width:4.0;stroke:rgb(0,0,0);stroke-linecap:round;fill:none;" />
<text x="2410.7" y="789.6" font-size="18.2px" font-family="CMUBright-Roman" style="text-anchor:start;fill:rgb(0,0,0);" transform="rotate(321.7,2410.7,789.6)" >200</text>
<line x1='2421.8' y1='855.2' x2='2438.2' y2='843.7' style="stroke-width:4.0;stroke:rgb(0,0,0);stroke-linecap:round;fill:none;" />
<text x="2450.1" y="843.3" font-size="18.2px" font-family="CMUBright-Roman" style="text-anchor:start;fill:rgb(0,0,0);" transform="rotate(325.0,2450.1,843.3)" >250</text>
<line x1='2457.5' y1='909.4' x2='2474.5' y2='898.9' style="stroke-width:4.0;stroke:rgb(0,0,0);stroke-linecap:round;fill:none;" />
<text x="2486.4" y="899.2" font-size="18.2px" font-family="CMUBright-Roman" style="text-anchor:start;fill:rgb(0,0,0);" transform="rotate(328.3,2486.4,899.2)" >300</text>
<line x1='2490.0' y1='965.6' x2='2507.6' y2='956.1' style="stroke-width:4.0;stroke:rgb(0,0,0);stroke-linecap:round;fill:none;" />
<text x="2519.5" y="957.1" font-size="18.2px" font-family="CMUBright-Roman" style="text-anchor:start;fill:rgb(0,0,0);" transform="rotate(331.6,2519.5,957.1)" >350</text>
<line x1='2519.2' y1='1023.6' x2='2537.3' y2='1015.2' style="stroke-width:4.0;stroke:rgb(0,0,0);stroke-linecap:round;fill:none;" />
<text x="2549.1" y="1016.8" font-size="18.2px" font-family="CMUBright-Roman" style="text-anchor:start;fill:rgb(0,0,0);" transform="rotate(334.9,2549.1,1016.8)" >400</text>
<line x1='2544.9' y1='1083.2' x2='2563.5' y2='1075.8' style="stroke-width:4.0;stroke:rgb(0,0,0);stroke-linecap:round;fill:none;" />
<text x="2575.2" y="1078.1" font-size="18.2px" font-family="CMUBright-Roman" style="text-anchor:start;fill:rgb(0,0,0);" transform="rotate(338.3,2575.2,1078.1)" >450</text>
<line x1='2567.2' y1='1144.2' x2='2586.2' y2='1137.9' style="stroke-width:4.0;stroke:rgb(0,0,0);stroke-linecap:round;fill:none;" />
<text x="2597.7" y="1140.9" font-size="18.2px" font-family="CMUBright-Roman" style="text-anchor:start;fill:rgb(0,0,0);" transform="rotate(341.6,2597.7,1140.9)" >500</text>
<line x1='2586.0' y1='1206.3' x2='2605.3' y2='1201.1' style="stroke-width:4.0;stroke:rgb(0,0,0);stroke-linecap:round;fill:none;" />
<text x="2616.6" y="1204.8" font-size="18.2px" font-family="CMUBright-Roman" style="text-anchor:start;fill:rgb(0,0,0);" transform="rotate(344.9,2616.6,1204.8)" >550</text>
<line x1='2601.1' y1='1269.5' x2='2620.7' y2='1265.4' style="stroke-width:4.0;stroke:rgb(0,0,0);stroke-linecap:round;fill:none;" />
<text x="2631.8" y="1269.7" font-size="18.2px" font-family="CMUBright-Roman" style="text-anchor:start;fill:rgb(0,0,0);" transform="rotate(348.2,2631.8,1269.7)" >600</text>
<line x1='2612.6' y1='1333.4' x2='2632.4' y2='1330.4' style="stroke-width:4.0;stroke:rgb(0,0,0);stroke-linecap:round;fill:none;" />
<text x="2643.2" y="1335.4" font-size="18.2px" font-family="CMUBright-Roman" style="text-anchor:start;fill:rgb(0,0,0);" transform="rotate(351.5,2643.2,1335.4)" >650</text>
<line x1='2620.4' y1='1397.8' x2='2640.3' y2='1396.0' style="stroke-width:4.0;stroke:rgb(0,0,0);stroke-linecap:round;fill:none;" />
<text x="2650.8" y="1401.6" font-size="18.2px" font-family="CMUBright-Roman" style="text-anchor:start;fill:rgb(0,0,0);" transform="rotate(354.8,2650.8,1401.6)" >700</text>
<line x1='2624.4' y1='1462.6' x2='2644.4' y2='1462.0' style="stroke-width:4.0;stroke:rgb(0,0,0);stroke-linecap:round;fill:none;" />
<text x="2654.6" y="1468.1" font-size="18.2px" font-family="CMUBright-Roman" style="text-anchor:start;fill:rgb(0,0,0);" transform="rotate(358.1,2654.6,1468.1)" >750</text>
<line x1='2624.7' y1='1527.6' x2='2644.7' y2='1528.1' style="stroke-width:4.0;stroke:rgb(0,0,0);stroke-linecap:round;fill:none;" />
<text x="2654.5" y="1534.8" font-size="18.2px" font-family="CMUBright-Roman" style="text-anchor:start;fill:rgb(0,0,0);" transform="rotate(1.4,2654.5,1534.8)" >800</text>
<line x1='2621.2' y1='1592.4' x2='2641.1' y2='1594.0' style="stroke-width:4.0;stroke:rgb(0,0,0);stroke-linecap:round;fill:none;" />
<text x="2650.5" y="1601.3" font-size="18.2px" font-family="CMUBright-Roman" style="text-anchor:start;fill:rgb(0,0,0);" transform="rotate(4.7,2650.5,1601.3)" >850</text>
<line x1='2614.0' y1='1656.9' x2='2633.8' y2='1659.7' style="stroke-width:4.0;stroke:rgb(0,0,0);stroke-linecap:round;fill:none;" />
<text x="2642.8" y="1667.5" font-size="18.2px" font-family="CMUBright-Roman" style="text-anchor:start;fill:rgb(0,0,0);" transform="rotate(8.0,2642.8,1667.5)" >900</text>
<line x1='2603.1' y1='1720.9' x2='2622.7' y2='1724.9' style="stroke-width:4.0;stroke:rgb(0,0,0);stroke-linecap:round;fill:none;" />
<text x="2631.2" y="1733.2" font-size="18.2px" font-family="CMUBright-Roman" style="text-anchor:start;fill:rgb(0,0,0);" transform="rotate(11.3,2631.2,1733.2)" >950</text>
<line x1='2588.5' y1='1784.2' x2='2607.9' y2='1789.2' style="stroke-width:4.0;stroke:rgb(0,0,0);stroke-linecap:round;fill:none;" />
<text x="2615.9" y="1798.1" font-size="18.2px" font-family="CMUBright-Roman" style="text-anchor:start;fill:rgb(0,0,0);" transform="rotate(14.6,2615.9,1798.1)" >1000</text>
<line x1='2570.3' y1='1846.5' x2='2589.3' y2='1852.7' style="stroke-width:4.0;stroke:rgb(0,0,0);stroke-linecap:round;fill:none;" />
<text x="2596.8" y="1861.9" font-size="18.2px" font-family="CMUBright-Roman" style="text-anchor:start;fill:rgb(0,0,0);" transform="rotate(17.9,2596.8,1861.9)" >1050</text>
<line x1='2548.5' y1='1907.7' x2='2567.2' y2='1914.9' style="stroke-width:4.0;stroke:rgb(0,0,0);stroke-linecap:round;fill:none;" />
<text x="2574.1" y="1924.6" font-size="18.2px" font-family="CMUBright-Roman" style="text-anchor:start;fill:rgb(0,0,0);" transform="rotate(21.2,2574.1,1924.6)" >1100</text>
<line x1='2523.3' y1='1967.5' x2='2541.5' y2='1975.8' style="stroke-width:4.0;stroke:rgb(0,0,0);stroke-linecap:round;fill:none;" />
<text x="2547.8" y="1985.9" font-size="18.2px" font-family="CMUBright-Roman" style="text-anchor:start;fill:rgb(0,0,0);" transform="rotate(24.6,2547.8,1985.9)" >1150</text>
<line x1='2494.6' y1='2025.7' x2='2512.3' y2='2035.1' style="stroke-width:4.0;stroke:rgb(0,0,0);stroke-linecap:round;fill:none;" />
<text x="2518.1" y="2045.5" font-size="18.2px" font-family="CMUBright-Roman" style="text-anchor:start;fill:rgb(0,0,0);" transform="rotate(27.9,2518.1,2045.5)" >1200</text>
<line x1='2462.6' y1='2082.2' x2='2479.7' y2='2092.6' style="stroke-width:4.0;stroke:rgb(0,0,0);stroke-linecap:round;fill:none;" />
<text x="2484.9" y="2103.3" font-size="18.2px" font-family="CMUBright-Roman" style="text-anchor:start;fill:rgb(0,0,0);" transform="rotate(31.2,2484.9,2103.3)" >1250</text>
<line x1='2427.4' y1='2136.8' x2='2443.9' y2='2148.1' style="stroke-width:4.0;stroke:rgb(0,0,0);stroke-linecap:round;fill:none;" />
<text x="2448.5" y="2159.1" font-size="18.2px" font-family="CMUBright-Roman" style="text-anchor:start;fill:rgb(0,0,0);" transform="rotate(34.5,2448.5,2159.1)" >1300</text>
<line x1='2389.1' y1='2189.2' x2='2405.0' y2='2201.5' style="stroke-width:4.0;stroke:rgb(0,0,0);stroke-linecap:round;fill:none;" />
<text x="2408.9" y="2212.7" font-size="18.2px" font-family="CMUBright-Roman" style="text-anchor:start;fill:rgb(0,0,0);" transform="rotate(37.8,2408.9,2212.7)" >1350</text>
<line x1='2347.9' y1='2239.4' x2='2363.0' y2='2252.5' style="stroke-width:4.0;stroke:rgb(0,0,0);stroke-linecap:round;fill:none;" />
<text x="2366.2" y="2264.0" font-size="18.2px" font-family="CMUBright-Roman" style="text-anchor:start;fill:rgb(0,0,0);" transform="rotate(41.1,2366.2,2264.0)" >1400</text>
<line x1='2303.8' y1='2287.1' x2='2318.1' y2='2301.1' style="stroke-width:4.0;stroke:rgb(0,0,0);stroke-linecap:round;fill:none;" />
<text x="2320.7" y="2312.7" font-size="18.2px" font-family="CMUBright-Roman" style="text-anchor:start;fill:rgb(0,0,0);" transform="rotate(44.4,2320.7,2312.7)" >1450</text>
<line x1='2257.1' y1='2332.1' x2='2270.6' y2='2346.9' style="stroke-width:4.0;stroke:rgb(0,0,0);stroke-linecap:round;fill:none;" />
<text x="2272.5" y="2358.7" font-size="18.2px" font-family="CMUBright-Roman" style="text-anchor:start;fill:rgb(0,0,0);" transform="rotate(47.7,2272.5,2358.7)" >1500</text>
<line x1='2207.8' y1='2374.4' x2='2220.4' y2='2390.0' style="stroke-width:4.0;stroke:rgb(0,0,0);stroke-linecap:round;fill:none;" />
<text x="2221.6" y="2401.8" font-size="18.2px" font-family="CMUBright-Roman" style="text-anchor:start;fill:rgb(0,0,0);" transform="rotate(51.0,2221.6,2401.8)" >1550</text>
<line x1='2156.2' y1='2413.8' x2='2167.9' y2='2430.0' style="stroke-width:4.0;stroke:rgb(0,0,0);stroke-linecap:round;fill:none;" />
<text x="2168.4" y="2441.9" font-size="18.2px" font-family="CMUBright-Roman" style="text-anchor:start;fill:rgb(0,0,0);" transform="rotate(54.3,2168.4,2441.9)" >1600</text>
<line x1='2102.4' y1='2450.1' x2='2113.1' y2='2467.0' style="stroke-width:4.0;stroke:rgb(0,0,0);stroke-linecap:round;fill:none;" />
<text x="2113.0" y="2478.9" font-size="18.2px" font-family="CMUBright-Roman" style="text-anchor:start;fill:rgb(0,0,0);" transform="rotate(57.6,2113.0,2478.9)" >1650</text>
<line x1='2046.6' y1='2483.3' x2='2056.3' y2='2500.8' style="stroke-width:4.0;stroke:rgb(0,0,0);stroke-linecap:round;fill:none;" />
<text x="2055.5" y="2512.7" font-size="18.2px" font-family="CMUBright-Roman" style="text-anchor:start;fill:rgb(0,0,0);" transform="rotate(60.9,2055.5,2512.7)" >1700</text>
<line x1='1989.0' y1='2513.2' x2='1997.7' y2='2531.2' style="stroke-width:4.0;stroke:rgb(0,0,0);stroke-linecap:round;fill:none;" />
<text x="1996.1" y="2543.0" font-size="18.2px" font-family="CMUBright-Roman" style="text-anchor:start;fill:rgb(0,0,0);" transform="rotate(64.2,1996.1,2543.0)" >1750</text>
<line x1='1929.7' y1='2539.7' x2='1937.3' y2='2558.2' style="stroke-width:4.0;stroke:rgb(0,0,0);stroke-linecap:round;fill:none;" />
<text x="1935.1" y="2569.9" font-size="18.2px" font-family="CMUBright-Roman" style="text-anchor:start;fill:rgb(0,0,0);" transform="rotate(67.5,1935.1,2569.9)" >1800</text>
<line x1='1869.0' y1='2562.8' x2='1875.6' y2='2581.7' style="stroke-width:4.0;stroke:rgb(0,0,0);stroke-linecap:round;fill:none;" />
<text x="1872.7" y="2593.2" font-size="18.2px" font-family="CMUBright-Roman" style="text-anchor:start;fill:rgb(0,0,0);" transform="rotate(70.9,1872.7,2593.2)" >1850</text>
<line x1='1807.1' y1='2582.3' x2='1812.5' y2='2601.5' style="stroke-width:4.0;stroke:rgb(0,0,0);stroke-linecap:round;fill:none;" />
<text x="1809.0" y="2612.9" font-size="18.2px" font-family="CMUBright-Roman" style="text-anchor:start;fill:rgb(0,0,0);" transform="rotate(74.2,1809.0,2612.9)" >1900</text>
<line x1='1744.1' y1='2598.2' x2='1748.5' y2='2617.7' style="stroke-width:4.0;stroke:rgb(0,0,0);stroke-linecap:round;fill:none;" />
<text x="1744.3" y="2628.9" font-size="18.2px" font-family="CMUBright-Roman" style="text-anchor:start;fill:rgb(0,0,0);" transform="rotate(77.5,1744.3,2628.9)" >1950</text>
<line x1='1680.4' y1='2610.4' x2='1683.6' y2='2630.2' style="stroke-width:4.0;stroke:rgb(0,0,0);stroke-linecap:round;fill:none;" />
<text x="1678.8" y="2641.1" font-size="18.2px" font-family="CMUBright-Roman" style="text-anchor:start;fill:rgb(0,0,0);" transform="rotate(80.8,1678.8,2641.1)" >2000</text>
<line x1='1616.0' y1='2619.0' x2='1618.1' y2='2638.9' style="stroke-width:4.0;stroke:rgb(0,0,0);stroke-linecap:round;fill:none;" />
<text x="1612.7" y="2649.5" font-size="18.2px" font-family="CMUBright-Roman" style="text-anchor:start;fill:rgb(0,0,0);" transform="rotate(84.1,1612.7,2649.5)" >2050</text>
<line x1='1551.3' y1='2623.8' x2='1552.2' y2='2643.8' style="stroke-width:4.0;stroke:rgb(0,0,0);stroke-linecap:round;fill:none;" />
<text x="1546.2" y="2654.1" font-size="18.2px" font-family="CMUBright-Roman" style="text-anchor:start;fill:rgb(0,0,0);" transform="rotate(87.4,1546.2,2654.1)" >2100</text>
<line x1='1486.4' y1='2624.9' x2='1486.1' y2='2644.9' style="stroke-width:4.0;stroke:rgb(0,0,0);stroke-linecap:round;fill:none;" />
<text x="1492.5" y="2655.0" font-size="18.2px" font-family="CMUBright-Roman" style="text-anchor:end;fill:rgb(0,0,0);" transform="rotate(-89.3,1492.5,2655.0)" >2150</text>
<line x1='1421.5' y1='2622.3' x2='1420.1' y2='2642.2' style="stroke-width:4.0;stroke:rgb(0,0,0);stroke-linecap:round;fill:none;" />
<text x="1425.9" y="2652.6" font-size="18.2px" font-family="CMUBright-Roman" style="text-anchor:end;fill:rgb(0,0,0);" transform="rotate(-86.0,1425.9,2652.6)" >2200</text>
<line x1='1356.9' y1='2615.9' x2='1354.3' y2='2635.7' style="stroke-width:4.0;stroke:rgb(0,0,0);stroke-linecap:round;fill:none;" />
<text x="1359.5" y="2646.4" font-size="18.2px" font-family="CMUBright-Roman" style="text-anchor:end;fill:rgb(0,0,0);" transform="rotate(-82.7,1359.5,2646.4)" >2250</text>
<line x1='1292.8' y1='2605.7' x2='1289.1' y2='2625.4' style="stroke-width:4.0;stroke:rgb(0,0,0);stroke-linecap:round;fill:none;" />
<text x="1293.6" y="2636.4" font-size="18.2px" font-family="CMUBright-Roman" style="text-anchor:end;fill:rgb(0,0,0);" transform="rotate(-79.4,1293.6,2636.4)" >2300</text>
<line x1='1229.3' y1='2591.9' x2='1224.5' y2='2611.4' style="stroke-width:4.0;stroke:rgb(0,0,0);stroke-linecap:round;fill:none;" />
<text x="1228.4" y="2622.6" font-size="18.2px" font-family="CMUBright-Roman" style="text-anchor:end;fill:rgb(0,0,0);" transform="rotate(-76.1,1228.4,2622.6)" >2350</text>
<line x1='1166.8' y1='2574.5' x2='1160.8' y2='2593.6' style="stroke-width:4.0;stroke:rgb(0,0,0);stroke-linecap:round;fill:none;" />
<text x="1164.1" y="2605.1" font-size="18.2px" font-family="CMUBright-Roman" style="text-anchor:end;fill:rgb(0,0,0);" transform="rotate(-72.8,1164.1,2605.1)" >2400</text>
<line x1='1105.3' y1='2553.5' x2='1098.3' y2='2572.2' style="stroke-width:4.0;stroke:rgb(0,0,0);stroke-linecap:round;fill:none;" />
<text x="1100.9" y="2583.9" font-size="18.2px" font-family="CMUBright-Roman" style="text-anchor:end;fill:rgb(0,0,0);" transform="rotate(-69.5,1100.9,2583.9)" >2450</text>
<line x1='1045.2' y1='2529.0' x2='1037.1' y2='2547.3' style="stroke-width:4.0;stroke:rgb(0,0,0);stroke-linecap:round;fill:none;" />
<text x="1039.1" y="2559.0" font-size="18.2px" font-family="CMUBright-Roman" style="text-anchor:end;fill:rgb(0,0,0);" transform="rotate(-66.2,1039.1,2559.0)" >2500</text>
<line x1='986.6' y1='2501.0' x2='977.5' y2='2518.8' style="stroke-width:4.0;stroke:rgb(0,0,0);stroke-linecap:round;fill:none;" />
<text x="978.7" y="2530.7" font-size="18.2px" font-family="CMUBright-Roman" style="text-anchor:end;fill:rgb(0,0,0);" transform="rotate(-62.8,978.7,2530.7)" >2550</text>
<line x1='929.7' y1='2469.8' x2='919.6' y2='2487.0' style="stroke-width:4.0;stroke:rgb(0,0,0);stroke-linecap:round;fill:none;" />
<text x="920.1" y="2498.9" font-size="18.2px" font-family="CMUBright-Roman" style="text-anchor:end;fill:rgb(0,0,0);" transform="rotate(-59.5,920.1,2498.9)" >2600</text>
<line x1='874.7' y1='2435.2' x2='863.6' y2='2451.9' style="stroke-width:4.0;stroke:rgb(0,0,0);stroke-linecap:round;fill:none;" />
<text x="863.5" y="2463.8" font-size="18.2px" font-family="CMUBright-Roman" style="text-anchor:end;fill:rgb(0,0,0);" transform="rotate(-56.2,863.5,2463.8)" >2650</text>
<line x1='821.8' y1='2397.6' x2='809.8' y2='2413.6' style="stroke-width:4.0;stroke:rgb(0,0,0);stroke-linecap:round;fill:none;" />
<text x="808.9" y="2425.5" font-size="18.2px" font-family="CMUBright-Roman" style="text-anchor:end;fill:rgb(0,0,0);" transform="rotate(-52.9,808.9,2425.5)" >2700</text>
<line x1='771.2' y1='2357.0' x2='758.2' y2='2372.2' style="stroke-width:4.0;stroke:rgb(0,0,0);stroke-linecap:round;fill:none;" />
<text x="756.7" y="2384.0" font-size="18.2px" font-family="CMUBright-Roman" style="text-anchor:end;fill:rgb(0,0,0);" transform="rotate(-49.6,756.7,2384.0)" >2750</text>
<line x1='723.0' y1='2313.5' x2='709.1' y2='2328.0' style="stroke-width:4.0;stroke:rgb(0,0,0);stroke-linecap:round;fill:none;" />
<text x="706.9" y="2339.7" font-size="18.2px" font-family="CMUBright-Roman" style="text-anchor:end;fill:rgb(0,0,0);" transform="rotate(-46.3,706.9,2339.7)" >2800</text>
<line x1='677.3' y1='2267.3' x2='662.7' y2='2281.0' style="stroke-width:4.0;stroke:rgb(0,0,0);stroke-linecap:round;fill:none;" />
<text x="659.8" y="2292.6" font-size="18.2px" font-family="CMUBright-Roman" style="text-anchor:end;fill:rgb(0,0,0);" transform="rotate(-43.0,659.8,2292.6)" >2850</text>
<line x1='634.4' y1='2218.6' x2='619.0' y2='2231.4' style="stroke-width:4.0;stroke:rgb(0,0,0);stroke-linecap:round;fill:none;" />
<text x="615.5" y="2242.8" font-size="18.2px" font-family="CMUBright-Roman" style="text-anchor:end;fill:rgb(0,0,0);" transform="rotate(-39.7,615.5,2242.8)" >2900</text>
<line x1='594.4' y1='2167.5' x2='578.3' y2='2179.4' style="stroke-width:4.0;stroke:rgb(0,0,0);stroke-linecap:round;fill:none;" />
<text x="574.1" y="2190.5" font-size="18.2px" font-family="CMUBright-Roman" style="text-anchor:end;fill:rgb(0,0,0);" transform="rotate(-36.4,574.1,2190.5)" >2950</text>
<line x1='557.4' y1='2114.1' x2='540.7' y2='2125.0' style="stroke-width:4.0;stroke:rgb(0,0,0);stroke-linecap:round;fill:none;" />
<text x="535.8" y="2135.9" font-size="18.2px" font-family="CMUBright-Roman" style="text-anchor:end;fill:rgb(0,0,0);" transform="rotate(-33.1,535.8,2135.9)" >3000</text>
<line x1='523.6' y1='2058.7' x2='506.2' y2='2068.7' style="stroke-width:4.0;stroke:rgb(0,0,0);stroke-linecap:round;fill:none;" />
<text x="500.8" y="2079.3" font-size="18.2px" font-family="CMUBright-Roman" style="text-anchor:end;fill:rgb(0,0,0);" transform="rotate(-29.8,500.8,2079.3)" >3050</text>
<line x1='493.0' y1='2001.5' x2='475.0' y2='2010.4' style="stroke-width:4.0;stroke:rgb(0,0,0);stroke-linecap:round;fill:none;" />
<text x="469.0" y="2020.7" font-size="18.2px" font-family="CMUBright-Roman" style="text-anchor:end;fill:rgb(0,0,0);" transform="rotate(-26.5,469.0,2020.7)" >3100</text>
<line x1='465.7' y1='1942.5' x2='447.3' y2='1950.4' style="stroke-width:4.0;stroke:rgb(0,0,0);stroke-linecap:round;fill:none;" />
<text x="440.7" y="1960.3" font-size="18.2px" font-family="CMUBright-Roman" style="text-anchor:end;fill:rgb(0,0,0);" transform="rotate(-23.2,440.7,1960.3)" >3150</text>
<line x1='441.9' y1='1882.1' x2='423.1' y2='1888.9' style="stroke-width:4.0;stroke:rgb(0,0,0);stroke-linecap:round;fill:none;" />
<text x="415.9" y="1898.4" font-size="18.2px" font-family="CMUBright-Roman" style="text-anchor:end;fill:rgb(0,0,0);" transform="rotate(-19.9,415.9,1898.4)" >3200</text>
<line x1='421.6' y1='1820.5' x2='402.4' y2='1826.2' style="stroke-width:4.0;stroke:rgb(0,0,0);stroke-linecap:round;fill:none;" />
<text x="394.7" y="1835.2" font-size="18.2px" font-family="CMUBright-Roman" style="text-anchor:end;fill:rgb(0,0,0);" transform="rotate(-16.6,394.7,1835.2)" >3250</text>
<line x1='404.9' y1='1757.7' x2='385.5' y2='1762.3' style="stroke-width:4.0;stroke:rgb(0,0,0);stroke-linecap:round;fill:none;" />
<text x="377.2" y="1770.9" font-size="18.2px" font-family="CMUBright-Roman" style="text-anchor:end;fill:rgb(0,0,0);" transform="rotate(-13.2,377.2,1770.9)" >3300</text>
<line x1='391.9' y1='1694.1' x2='372.2' y2='1697.6' style="stroke-width:4.0;stroke:rgb(0,0,0);stroke-linecap:round;fill:none;" />
<text x="363.5" y="1705.7" font-size="18.2px" font-family="CMUBright-Roman" style="text-anchor:end;fill:rgb(0,0,0);" transform="rotate(-9.9,363.5,1705.7)" >3350</text>
<line x1='382.5' y1='1629.9' x2='362.7' y2='1632.2' style="stroke-width:4.0;stroke:rgb(0,0,0);stroke-linecap:round;fill:none;" />
<text x="353.5" y="1639.8" font-size="18.2px" font-family="CMUBright-Roman" style="text-anchor:end;fill:rgb(0,0,0);" transform="rotate(-6.6,353.5,1639.8)" >3400</text>
<line x1='376.9' y1='1565.2' x2='356.9' y2='1566.4' style="stroke-width:4.0;stroke:rgb(0,0,0);stroke-linecap:round;fill:none;" />
<text x="347.3" y="1573.4" font-size="18.2px" font-family="CMUBright-Roman" style="text-anchor:end;fill:rgb(0,0,0);" transform="rotate(-3.3,347.3,1573.4)" >3450</text>
<line x1='375.0' y1='1500.3' x2='355.0' y2='1500.3' style="stroke-width:4.0;stroke:rgb(0,0,0);stroke-linecap:round;fill:none;" />
<text x="345.0" y="1506.8" font-size="18.2px" font-family="CMUBright-Roman" style="text-anchor:end;fill:rgb(0,0,0);" transform="rotate(-0.0,345.0,1506.8)" >3500</text>
<line x1='376.9' y1='1435.4' x2='356.9' y2='1434.3' style="stroke-width:4.0;stroke:rgb(0,0,0);stroke-linecap:round;fill:none;" />
<text x="346.6" y="1440.2" font-size="18.2px" font-family="CMUBright-Roman" style="text-anchor:end;fill:rgb(0,0,0);" transform="rotate(3.3,346.6,1440.2)" >3550</text>
<line x1='382.5' y1='1370.7' x2='362.6' y2='1368.4' style="stroke-width:4.0;stroke:rgb(0,0,0);stroke-linecap:round;fill:none;" />
<text x="351.9" y="1373.7" font-size="18.2px" font-family="CMUBright-Roman" style="text-anchor:end;fill:rgb(0,0,0);" transform="rotate(6.6,351.9,1373.7)" >3600</text>
<line x1='391.8' y1='1306.5' x2='372.1' y2='1303.0' style="stroke-width:4.0;stroke:rgb(0,0,0);stroke-linecap:round;fill:none;" />
<text x="361.1" y="1307.7" font-size="18.2px" font-family="CMUBright-Roman" style="text-anchor:end;fill:rgb(0,0,0);" transform="rotate(9.9,361.1,1307.7)" >3650</text>
<line x1='404.8' y1='1242.9' x2='385.3' y2='1238.3' style="stroke-width:4.0;stroke:rgb(0,0,0);stroke-linecap:round;fill:none;" />
<text x="374.1" y="1242.3" font-size="18.2px" font-family="CMUBright-Roman" style="text-anchor:end;fill:rgb(0,0,0);" transform="rotate(13.2,374.1,1242.3)" >3700</text>
<line x1='421.4' y1='1180.1' x2='402.3' y2='1174.4' style="stroke-width:4.0;stroke:rgb(0,0,0);stroke-linecap:round;fill:none;" />
<text x="390.8" y="1177.8" font-size="18.2px" font-family="CMUBright-Roman" style="text-anchor:end;fill:rgb(0,0,0);" transform="rotate(16.5,390.8,1177.8)" >3750</text>
<line x1='441.7' y1='1118.4' x2='422.9' y2='1111.6' style="stroke-width:4.0;stroke:rgb(0,0,0);stroke-linecap:round;fill:none;" />
<text x="411.3" y="1114.4" font-size="18.2px" font-family="CMUBright-Roman" style="text-anchor:end;fill:rgb(0,0,0);" transform="rotate(19.8,411.3,1114.4)" >3800</text>
<line x1='465.5' y1='1058.0' x2='447.1' y2='1050.2' style="stroke-width:4.0;stroke:rgb(0,0,0);stroke-linecap:round;fill:none;" />
<text x="435.3" y="1052.2" font-size="18.2px" font-family="CMUBright-Roman" style="text-anchor:end;fill:rgb(0,0,0);" transform="rotate(23.1,435.3,1052.2)" >3850</text>
<line x1='492.7' y1='999.1' x2='474.8' y2='990.2' style="stroke-width:4.0;stroke:rgb(0,0,0);stroke-linecap:round;fill:none;" />
<text x="462.9" y="991.5" font-size="18.2px" font-family="CMUBright-Roman" style="text-anchor:end;fill:rgb(0,0,0);" transform="rotate(26.4,462.9,991.5)" >3900</text>
<line x1='523.3' y1='941.8' x2='505.9' y2='931.9' style="stroke-width:4.0;stroke:rgb(0,0,0);stroke-linecap:round;fill:none;" />
<text x="494.0" y="932.6" font-size="18.2px" font-family="CMUBright-Roman" style="text-anchor:end;fill:rgb(0,0,0);" transform="rotate(29.7,494.0,932.6)" >3950</text>
<line x1='557.1' y1='886.4' x2='540.3' y2='875.5' style="stroke-width:4.0;stroke:rgb(0,0,0);stroke-linecap:round;fill:none;" />
<text x="528.4" y="875.5" font-size="18.2px" font-family="CMUBright-Roman" style="text-anchor:end;fill:rgb(0,0,0);" transform="rotate(33.1,528.4,875.5)" >4000</text>
<line x1='594.1' y1='833.0' x2='577.9' y2='821.1' style="stroke-width:4.0;stroke:rgb(0,0,0);stroke-linecap:round;fill:none;" />
<text x="566.1" y="820.5" font-size="18.2px" font-family="CMUBright-Roman" style="text-anchor:end;fill:rgb(0,0,0);" transform="rotate(36.4,566.1,820.5)" >4050</text>
<line x1='634.0' y1='781.9' x2='618.6' y2='769.1' style="stroke-width:4.0;stroke:rgb(0,0,0);stroke-linecap:round;fill:none;" />
<text x="606.8" y="767.7" font-size="18.2px" font-family="CMUBright-Roman" style="text-anchor:end;fill:rgb(0,0,0);" transform="rotate(39.7,606.8,767.7)" >4100</text>
<line x1='676.9' y1='733.1' x2='662.3' y2='719.5' style="stroke-width:4.0;stroke:rgb(0,0,0);stroke-linecap:round;fill:none;" />
<text x="650.5" y="717.4" font-size="18.2px" font-family="CMUBright-Roman" style="text-anchor:end;fill:rgb(0,0,0);" transform="rotate(43.0,650.5,717.4)" >4150</text>
<line x1='722.5' y1='686.9' x2='708.7' y2='672.4' style="stroke-width:4.0;stroke:rgb(0,0,0);stroke-linecap:round;fill:none;" />
<text x="697.1" y="669.7" font-size="18.2px" font-family="CMUBright-Roman" style="text-anchor:end;fill:rgb(0,0,0);" transform="rotate(46.3,697.1,669.7)" >4200</text>
<line x1='770.7' y1='643.4' x2='757.8' y2='628.2' style="stroke-width:4.0;stroke:rgb(0,0,0);stroke-linecap:round;fill:none;" />
<text x="746.3" y="624.8" font-size="18.2px" font-family="CMUBright-Roman" style="text-anchor:end;fill:rgb(0,0,0);" transform="rotate(49.6,746.3,624.8)" >4250</text>
<line x1='821.3' y1='602.8' x2='809.3' y2='586.8' style="stroke-width:4.0;stroke:rgb(0,0,0);stroke-linecap:round;fill:none;" />
<text x="798.1" y="582.8" font-size="18.2px" font-family="CMUBright-Roman" style="text-anchor:end;fill:rgb(0,0,0);" transform="rotate(52.9,798.1,582.8)" >4300</text>
<line x1='874.2' y1='565.1' x2='863.1' y2='548.5' style="stroke-width:4.0;stroke:rgb(0,0,0);stroke-linecap:round;fill:none;" />
<text x="852.2" y="543.8" font-size="18.2px" font-family="CMUBright-Roman" style="text-anchor:end;fill:rgb(0,0,0);" transform="rotate(56.2,852.2,543.8)" >4350</text>
<line x1='929.2' y1='530.6' x2='919.1' y2='513.3' style="stroke-width:4.0;stroke:rgb(0,0,0);stroke-linecap:round;fill:none;" />
<text x="908.4" y="508.0" font-size="18.2px" font-family="CMUBright-Roman" style="text-anchor:end;fill:rgb(0,0,0);" transform="rotate(59.5,908.4,508.0)" >4400</text>
<line x1='986.1' y1='499.2' x2='977.0' y2='481.5' style="stroke-width:4.0;stroke:rgb(0,0,0);stroke-linecap:round;fill:none;" />
<text x="966.6" y="475.5" font-size="18.2px" font-family="CMUBright-Roman" style="text-anchor:end;fill:rgb(0,0,0);" transform="rotate(62.8,966.6,475.5)" >4450</text>
<line x1='1044.7' y1='471.3' x2='1036.6' y2='453.0' style="stroke-width:4.0;stroke:rgb(0,0,0);stroke-linecap:round;fill:none;" />
<text x="1026.6" y="446.5" font-size="18.2px" font-family="CMUBright-Roman" style="text-anchor:end;fill:rgb(0,0,0);" transform="rotate(66.1,1026.6,446.5)" >4500</text>
<line x1='1104.8' y1='446.7' x2='1097.7' y2='428.0' style="stroke-width:4.0;stroke:rgb(0,0,0);stroke-linecap:round;fill:none;" />
<text x="1088.2" y="420.9" font-size="18.2px" font-family="CMUBright-Roman" style="text-anchor:end;fill:rgb(0,0,0);" transform="rotate(69.4,1088.2,420.9)" >4550</text>
<line x1='1166.2' y1='425.7' x2='1160.3' y2='406.6' style="stroke-width:4.0;stroke:rgb(0,0,0);stroke-linecap:round;fill:none;" />
<text x="1151.1" y="399.0" font-size="18.2px" font-family="CMUBright-Roman" style="text-anchor:end;fill:rgb(0,0,0);" transform="rotate(72.7,1151.1,399.0)" >4600</text>
<line x1='1228.7' y1='408.2' x2='1223.9' y2='388.8' style="stroke-width:4.0;stroke:rgb(0,0,0);stroke-linecap:round;fill:none;" />
<text x="1215.2" y="380.7" font-size="18.2px" font-family="CMUBright-Roman" style="text-anchor:end;fill:rgb(0,0,0);" transform="rotate(76.0,1215.2,380.7)" >4650</text>
<line x1='1292.2' y1='394.4' x2='1288.5' y2='374.7' style="stroke-width:4.0;stroke:rgb(0,0,0);stroke-linecap:round;fill:none;" />
<text x="1280.2" y="366.1" font-size="18.2px" font-family="CMUBright-Roman" style="text-anchor:end;fill:rgb(0,0,0);" transform="rotate(79.4,1280.2,366.1)" >4700</text>
<line x1='1356.3' y1='384.2' x2='1353.7' y2='364.4' style="stroke-width:4.0;stroke:rgb(0,0,0);stroke-linecap:round;fill:none;" />
<text x="1346.0" y="355.3" font-size="18.2px" font-family="CMUBright-Roman" style="text-anchor:end;fill:rgb(0,0,0);" transform="rotate(82.7,1346.0,355.3)" >4750</text>
<line x1='1420.9' y1='377.8' x2='1419.5' y2='357.8' style="stroke-width:4.0;stroke:rgb(0,0,0);stroke-linecap:round;fill:none;" />
<text x="1412.3" y="348.3" font-size="18.2px" font-family="CMUBright-Roman" style="text-anchor:end;fill:rgb(0,0,0);" transform="rotate(86.0,1412.3,348.3)" >4800</text>
<g id="highlighttrack_0">
<path d="M2347.650,2161.146 A1075.000,1075.000 40.000 0,1 2345.256,2164.204 L2384.570,2195.098 A1125.000,1125.000 0.000 0,0 2387.076,2191.897 Z" style="stroke-width:4.0;stroke:rgb(0,0,0);stroke-linecap:round;fill:rgb(116,196,118);" />
<path d="M729.765,2249.909 A1075.000,1075.000 40.000 0,1 727.175,2247.239 L691.229,2281.994 A1125.000,1125.000 0.000 0,0 693.941,2284.789 Z" style="stroke-width:4.0;stroke:rgb(0,0,0);stroke-linecap:round;fill:rgb(251,106,74);" />
<path d="M664.811,823.180 A1075.000,1075.000 40.000 0,1 667.159,820.294 L628.422,788.680 A1125.000,1125.000 0.000 0,0 625.965,791.700 Z" style="stroke-width:4.0;stroke:rgb(0,0,0);stroke-linecap:round;fill:rgb(251,106,74);" />
<path d="M747.177,732.613 A1075.000,1075.000 40.000 0,1 749.837,730.013 L714.945,694.200 A1125.000,1125.000 0.000 0,0 712.162,696.920 Z" style="stroke-width:4.0;stroke:rgb(0,0,0);stroke-linecap:round;fill:rgb(116,196,118);" />
<path d="M938.961,583.016 A1075.000,1075.000 40.000 0,1 942.258,581.007 L916.316,538.263 A1125.000,1125.000 0.000 0,0 912.866,540.365 Z" style="stroke-width:4.0;stroke:rgb(0,0,0);stroke-linecap:round;fill:rgb(116,196,118);" />
<path d="M994.391,551.325 A1075.000,1075.000 40.000 0,1 997.676,549.581 L974.313,505.376 A1125.000,1125.000 0.000 0,0 970.875,507.200 Z" style="stroke-width:4.0;stroke:rgb(0,0,0);stroke-linecap:round;fill:rgb(116,196,118);" />
<path d="M1001.603,547.516 A1075.000,1075.000 40.000 0,1 1004.902,545.797 L981.875,501.416 A1125.000,1125.000 0.000 0,0 978.422,503.215 Z" style="stroke-width:4.0;stroke:rgb(0,0,0);stroke-linecap:round;fill:rgb(116,196,118);" />
<path d="M1174.955,475.319 A1075.000,1075.000 40.000 0,1 1178.659,474.152 L1163.713,426.438 A1125.000,1125.000 0.000 0,0 1159.836,427.660 Z" style="stroke-width:4.0;stroke:rgb(0,0,0);stroke-linecap:round;fill:rgb(116,196,118);" />
<path d="M1676.831,2560.357 A1075.000,1075.000 40.000 0,1 1643.899,2565.325 L1650.592,2614.875 A1125.000,1125.000 0.000 0,0 1685.055,2609.675 Z" style="stroke-width:4.0;stroke:rgb(0,0,0);stroke-linecap:round;fill:rgb(116,196,118);" />
<path d="M795.935,2312.353 A1075.000,1075.000 40.000 0,1 771.072,2290.120 L737.169,2326.869 A1125.000,1125.000 0.000 0,0 763.188,2350.137 Z" style="stroke-width:4.0;stroke:rgb(0,0,0);stroke-linecap:round;fill:rgb(116,196,118);" />
<path d="M1072.161,513.806 A1075.000,1075.000 40.000 0,1 1075.872,512.204 L1056.145,466.260 A1125.000,1125.000 0.000 0,0 1052.262,467.936 Z" style="stroke-width:4.0;stroke:rgb(0,0,0);stroke-linecap:round;fill:rgb(116,196,118);" />
<path d="M1076.428,511.966 A1075.000,1075.000 40.000 0,1 1080.145,510.380 L1060.617,464.352 A1125.000,1125.000 0.000 0,0 1056.727,466.011 Z" style="stroke-width:4.0;stroke:rgb(0,0,0);stroke-linecap:round;fill:rgb(116,196,118);" />
</g>
</g>
<g id="track_0">
<path d="M 2339.174,2154.534 A 1064.250,1064.250 0.00 0,1 2336.8,2157.6 L 2336.8,2157.6 2279.5,2111.4 2227.0,2066.8 2178.9,2023.7 2135.0,1982.1 2095.0,1941.8 2058.6,1902.8 2025.5,1865.0 1995.6,1828.3 1968.6,1792.6 1944.3,1757.8 1922.5,1723.8 1903.0,1690.5 1885.8,1657.8 1870.6,1625.6 1857.4,1593.8 1846.1,1562.3 1836.5,1531.0 1828.5,1499.7 1822.3,1468.4 1817.6,1436.9 1814.6,1405.1 1813.1,1372.9 1813.2,1340.2 1815.0,1306.7 1818.4,1272.5 1823.6,1237.3 1830.6,1201.0 1839.6,1163.5 1850.6,1124.7 1863.8,1084.3 1879.3,1042.3 1897.3,998.5 1918.0,952.7 1941.6,904.8 1968.2,854.7 1998.2,802.2 2031.7,747.0 2069.1,689.1 2110.6,628.3  A 1064.250,1064.250 0.00 0,0 2107.4,626.1 L 2107.4,626.1 2066.2,687.1 2029.0,745.1 1995.7,800.3 1965.9,853.0 1939.4,903.2 1916.0,951.2 1895.5,997.0 1877.7,1040.9 1862.3,1083.0 1849.3,1123.4 1838.4,1162.3 1829.6,1199.8 1822.7,1236.1 1817.6,1271.3 1814.3,1305.6 1812.6,1339.0 1812.6,1371.8 1814.2,1404.0 1817.4,1435.8 1822.2,1467.3 1828.5,1498.5 1836.6,1529.8 1846.3,1561.1 1857.8,1592.5 1871.1,1624.3 1886.4,1656.4 1903.7,1689.0 1923.3,1722.2 1945.2,1756.1 1969.6,1790.9 1996.8,1826.5 2026.8,1863.1 2060.0,1900.8 2096.6,1939.7 2136.7,1979.8 2180.8,2021.3 2229.0,2064.2 2281.7,2108.6 2339.2,2154.5  Z" style="stroke-width: 2.0;  stroke: rgb(82,82,82); fill: rgb(251,106,74); opacity: 0.667;" />
<path d="M 737.468,2242.410 A 1064.250,1064.250 0.00 0,1 734.9,2239.8 L 734.9,2239.8 787.5,2187.2 836.2,2135.4 881.3,2084.5 923.3,2034.6 962.4,1985.6 999.0,1937.8 1033.5,1891.0 1066.1,1845.5 1097.1,1801.1 1126.7,1758.0 1155.4,1716.1 1183.2,1675.4 1210.4,1635.8 1237.3,1597.4 1264.0,1560.0 1290.7,1523.7 1317.6,1488.3 1344.9,1453.7 1372.6,1419.9 1400.9,1386.7 1430.0,1354.0 1459.8,1321.7 1490.6,1289.6 1522.3,1257.5 1555.0,1225.3 1588.7,1192.7 1623.5,1159.6 1659.4,1125.7 1696.3,1090.9 1734.2,1054.8 1773.2,1017.2 1813.0,977.9 1853.8,936.6 1895.3,892.9 1937.5,846.6 1980.3,797.3 2023.5,744.7 2067.0,688.5 2110.6,628.3  A 1064.250,1064.250 0.00 0,0 2107.4,626.1 L 2107.4,626.1 2064.0,686.5 2020.7,742.8 1977.7,795.5 1935.1,845.0 1893.1,891.5 1851.7,935.3 1811.1,976.8 1771.4,1016.3 1732.6,1054.0 1694.8,1090.2 1658.0,1125.1 1622.3,1159.1 1587.6,1192.4 1553.9,1225.0 1521.4,1257.4 1489.8,1289.6 1459.2,1321.8 1429.4,1354.3 1400.5,1387.1 1372.3,1420.3 1344.7,1454.3 1317.5,1488.9 1290.8,1524.4 1264.2,1560.8 1237.6,1598.3 1210.9,1636.8 1183.8,1676.5 1156.1,1717.3 1127.6,1759.3 1098.1,1802.5 1067.3,1847.0 1034.8,1892.7 1000.6,1939.5 964.1,1987.5 925.1,2036.6 883.3,2086.7 838.4,2137.7 789.9,2189.7 737.5,2242.4  Z" style="stroke-width: 2.0;  stroke: rgb(82,82,82); fill: rgb(116,196,118); opacity: 0.667;" />
<path d="M 737.468,2242.410 A 1064.250,1064.250 0.00 0,1 734.9,2239.8 L 734.9,2239.8 788.5,2189.2 839.9,2143.2 889.4,2101.4 936.9,2063.5 982.6,2029.3 1026.6,1998.4 1069.1,1970.6 1110.1,1945.7 1149.8,1923.5 1188.3,1903.8 1225.6,1886.4 1262.0,1871.1 1297.5,1857.9 1332.3,1846.6 1366.5,1837.0 1400.2,1829.1 1433.6,1822.9 1466.7,1818.2 1499.6,1815.0 1532.6,1813.3 1565.7,1813.1 1599.1,1814.4 1632.9,1817.2 1667.3,1821.6 1702.2,1827.6 1738.0,1835.3 1774.7,1844.8 1812.5,1856.3 1851.4,1869.7 1891.7,1885.4 1933.5,1903.4 1976.8,1924.0 2021.9,1947.3 2068.9,1973.5 2117.8,2002.9 2169.0,2035.8 2222.4,2072.3 2278.3,2112.8 2336.8,2157.6  A 1064.250,1064.250 0.00 0,0 2339.2,2154.5 L 2339.2,2154.5 2280.5,2110.0 2224.5,2069.7 2170.9,2033.4 2119.7,2000.7 2070.6,1971.5 2023.5,1945.4 1978.3,1922.3 1934.9,1901.9 1893.1,1884.0 1852.8,1868.5 1813.8,1855.1 1776.0,1843.8 1739.2,1834.4 1703.4,1826.9 1668.4,1821.0 1634.1,1816.7 1600.3,1814.0 1566.9,1812.9 1533.7,1813.2 1500.7,1815.0 1467.8,1818.3 1434.7,1823.1 1401.4,1829.5 1367.7,1837.5 1333.6,1847.1 1298.8,1858.6 1263.3,1872.0 1227.0,1887.3 1189.7,1904.9 1151.3,1924.7 1111.7,1947.0 1070.7,1972.1 1028.4,2000.0 984.4,2031.1 938.8,2065.5 891.5,2103.6 842.2,2145.5 790.9,2191.7 737.5,2242.4  Z" style="stroke-width: 2.0;  stroke: rgb(82,82,82); fill: rgb(107,174,214); opacity: 0.667;" />
<path d="M 673.163,829.948 A 1064.250,1064.250 0.00 0,1 675.5,827.1 L 675.5,827.1 733.0,872.9 787.8,914.5 839.9,952.0 889.6,985.7 937.0,1015.9 982.3,1042.8 1025.6,1066.6 1067.0,1087.6 1106.7,1105.9 1144.8,1121.6 1181.5,1134.9 1216.9,1146.1 1251.1,1155.0 1284.3,1162.0 1316.6,1166.9 1348.1,1170.0 1378.9,1171.3 1409.2,1170.8 1439.0,1168.5 1468.6,1164.4 1497.9,1158.5 1527.2,1150.8 1556.5,1141.2 1586.0,1129.6 1615.7,1116.1 1645.7,1100.4 1676.2,1082.4 1707.3,1062.1 1739.0,1039.3 1771.4,1013.8 1804.6,985.4 1838.8,954.0 1873.9,919.3 1910.2,881.1 1947.6,839.2 1986.3,793.2 2026.3,742.9 2067.7,688.1 2110.6,628.3  A 1064.250,1064.250 0.00 0,0 2107.4,626.1 L 2107.4,626.1 2064.8,686.0 2023.5,741.0 1983.7,791.4 1945.2,837.5 1907.9,879.6 1871.8,918.0 1836.8,952.8 1802.8,984.3 1769.6,1012.8 1737.3,1038.4 1705.7,1061.4 1674.7,1081.8 1644.3,1099.8 1614.3,1115.6 1584.7,1129.3 1555.3,1141.0 1526.0,1150.7 1496.7,1158.5 1467.4,1164.5 1437.8,1168.7 1408.0,1171.1 1377.7,1171.7 1346.9,1170.6 1315.4,1167.6 1283.1,1162.7 1249.9,1155.9 1215.7,1147.0 1180.2,1136.0 1143.5,1122.8 1105.3,1107.2 1065.6,1089.1 1024.1,1068.3 980.7,1044.6 935.4,1017.8 887.8,987.8 838.0,954.3 785.7,916.9 730.8,875.6 673.2,829.9  Z" style="stroke-width: 2.0;  stroke: rgb(82,82,82); fill: rgb(253,141,60); opacity: 0.667;" />
<path d="M 673.163,829.948 A 1064.250,1064.250 0.00 0,1 675.5,827.1 L 675.5,827.1 733.9,873.2 791.3,915.7 847.5,954.8 902.4,991.1 956.0,1024.8 1008.3,1056.3 1059.1,1085.8 1108.5,1113.8 1156.4,1140.5 1202.9,1166.2 1247.9,1191.1 1291.4,1215.6 1333.5,1239.7 1374.3,1263.8 1413.8,1288.1 1452.0,1312.6 1489.0,1337.7 1525.0,1363.4 1560.1,1389.9 1594.3,1417.3 1627.8,1445.7 1660.8,1475.2 1693.3,1505.9 1725.6,1537.8 1757.9,1571.1 1790.3,1605.6 1823.1,1641.4 1856.5,1678.6 1890.6,1717.0 1925.9,1756.7 1962.4,1797.7 2000.5,1839.7 2040.5,1882.9 2082.6,1927.0 2127.2,1972.0 2174.6,2017.6 2225.1,2063.9 2279.0,2110.6 2336.8,2157.6  A 1064.250,1064.250 0.00 0,0 2339.2,2154.5 L 2339.2,2154.5 2281.2,2107.8 2227.1,2061.3 2176.4,2015.2 2128.9,1969.7 2084.1,1924.9 2041.8,1880.9 2001.7,1837.9 1963.5,1796.0 1926.8,1755.2 1891.4,1715.6 1857.1,1677.3 1823.6,1640.2 1790.7,1604.5 1758.2,1570.1 1725.8,1537.0 1693.4,1505.2 1660.7,1474.6 1627.6,1445.2 1594.0,1417.0 1559.7,1389.7 1524.6,1363.3 1488.5,1337.7 1451.3,1312.8 1413.0,1288.4 1373.5,1264.3 1332.6,1240.3 1290.4,1216.3 1246.8,1192.0 1201.7,1167.2 1155.2,1141.7 1107.2,1115.2 1057.7,1087.4 1006.7,1058.0 954.4,1026.7 900.7,993.2 845.6,957.1 789.3,918.1 731.8,875.9 673.2,829.9  Z" style="stroke-width: 2.0;  stroke: rgb(82,82,82); fill: rgb(255,0,0); opacity: 0.667;" />
<path d="M 673.163,829.948 A 1064.250,1064.250 0.00 0,1 675.5,827.1 L 675.5,827.1 731.9,874.2 783.6,919.5 830.8,962.9 873.7,1004.7 912.8,1044.9 948.1,1083.6 980.1,1120.9 1008.8,1157.0 1034.5,1191.9 1057.4,1225.7 1077.6,1258.5 1095.3,1290.5 1110.6,1321.8 1123.7,1352.4 1134.7,1382.5 1143.6,1412.2 1150.5,1441.6 1155.5,1470.7 1158.5,1499.8 1159.8,1528.9 1159.1,1558.1 1156.6,1587.6 1152.2,1617.4 1145.8,1647.7 1137.4,1678.6 1126.9,1710.3 1114.3,1742.7 1099.3,1776.1 1081.9,1810.5 1062.0,1846.1 1039.3,1883.1 1013.7,1921.4 985.1,1961.3 953.1,2002.8 917.5,2046.2 878.2,2091.4 834.9,2138.6 787.2,2188.1 734.9,2239.8  A 1064.250,1064.250 0.00 0,0 737.5,2242.4 L 737.5,2242.4 789.6,2190.5 837.1,2140.9 880.3,2093.5 919.4,2048.2 954.8,2004.7 986.7,1963.1 1015.2,1923.1 1040.7,1884.7 1063.2,1847.7 1083.0,1812.0 1100.3,1777.5 1115.1,1744.0 1127.7,1711.5 1138.0,1679.9 1146.3,1649.0 1152.6,1618.6 1156.9,1588.8 1159.3,1559.3 1159.9,1530.1 1158.6,1501.0 1155.4,1471.9 1150.3,1442.8 1143.3,1413.4 1134.3,1383.8 1123.2,1353.7 1110.0,1323.2 1094.5,1292.0 1076.7,1260.0 1056.4,1227.2 1033.4,1193.5 1007.6,1158.7 978.8,1122.7 946.7,1085.5 911.2,1046.9 872.0,1006.9 828.9,965.2 781.6,921.9 729.8,876.9 673.2,829.9  Z" style="stroke-width: 2.0;  stroke: rgb(82,82,82); fill: rgb(255,0,204); opacity: 0.667;" />
<path d="M 754.706,740.287 A 1064.250,1064.250 0.00 0,1 757.3,737.7 L 757.3,737.7 809.2,789.8 858.7,837.3 905.9,880.5 951.0,919.6 994.1,954.9 1035.4,986.7 1074.9,1015.1 1112.8,1040.4 1149.2,1062.8 1184.3,1082.4 1218.1,1099.4 1250.8,1113.9 1282.5,1126.1 1313.3,1136.0 1343.3,1143.7 1372.7,1149.4 1401.6,1153.1 1430.0,1154.7 1458.0,1154.4 1485.9,1152.2 1513.7,1148.0 1541.4,1141.8 1569.3,1133.5 1597.4,1123.2 1625.8,1110.7 1654.6,1096.0 1683.9,1078.9 1713.9,1059.3 1744.5,1037.1 1776.0,1012.2 1808.4,984.2 1841.7,953.2 1876.2,918.7 1911.8,880.7 1948.7,838.9 1986.9,793.1 2026.6,742.9 2067.8,688.1 2110.6,628.3  A 1064.250,1064.250 0.00 0,0 2107.4,626.1 L 2107.4,626.1 2064.8,686.0 2023.8,741.0 1984.3,791.3 1946.3,837.3 1909.5,879.2 1874.0,917.4 1839.7,951.9 1806.5,983.1 1774.2,1011.1 1742.9,1036.2 1712.3,1058.5 1682.4,1078.2 1653.2,1095.4 1624.4,1110.3 1596.0,1122.8 1568.0,1133.3 1540.2,1141.6 1512.4,1147.9 1484.7,1152.2 1456.8,1154.6 1428.7,1155.0 1400.3,1153.4 1371.5,1149.9 1342.1,1144.3 1312.0,1136.6 1281.2,1126.8 1249.5,1114.8 1216.7,1100.4 1182.8,1083.5 1147.7,1064.0 1111.2,1041.8 1073.2,1016.6 1033.6,988.3 992.2,956.7 949.0,921.5 903.8,882.5 856.4,839.5 806.7,792.2 754.7,740.3  Z" style="stroke-width: 2.0;  stroke: rgb(82,82,82); fill: rgb(255,204,204); opacity: 0.667;" />
<path d="M 754.706,740.287 A 1064.250,1064.250 0.00 0,1 757.3,737.7 L 757.3,737.7 810.1,790.1 862.1,838.7 913.3,883.8 963.6,925.7 1012.8,964.8 1060.9,1001.6 1107.9,1036.1 1153.6,1068.9 1198.1,1100.1 1241.4,1130.1 1283.4,1159.0 1324.1,1187.2 1363.7,1214.9 1402.0,1242.3 1439.1,1269.5 1475.2,1296.9 1510.2,1324.5 1544.3,1352.5 1577.5,1381.1 1610.0,1410.3 1642.0,1440.3 1673.4,1471.3 1704.6,1503.2 1735.6,1536.1 1766.7,1570.1 1798.0,1605.3 1829.7,1641.7 1862.0,1679.2 1895.3,1717.9 1929.7,1757.7 1965.4,1798.7 2002.9,1840.7 2042.2,1883.7 2083.8,1927.7 2128.0,1972.4 2175.0,2018.0 2225.3,2064.1 2279.1,2110.7 2336.8,2157.6  A 1064.250,1064.250 0.00 0,0 2339.2,2154.5 L 2339.2,2154.5 2281.3,2107.8 2227.3,2061.5 2176.9,2015.5 2129.7,1970.2 2085.4,1925.5 2043.6,1881.7 2004.1,1838.9 1966.5,1797.0 1930.6,1756.2 1896.1,1716.4 1862.7,1677.9 1830.2,1640.5 1798.3,1604.2 1766.9,1569.2 1735.8,1535.2 1704.6,1502.4 1673.4,1470.6 1641.8,1439.8 1609.7,1409.9 1577.1,1380.8 1543.8,1352.3 1509.6,1324.4 1474.4,1297.0 1438.3,1269.7 1401.1,1242.6 1362.7,1215.4 1323.1,1187.8 1282.2,1159.8 1240.1,1131.0 1196.8,1101.1 1152.1,1070.1 1106.3,1037.5 1059.2,1003.1 1010.9,966.5 961.6,927.6 911.2,885.8 859.8,840.9 807.7,792.5 754.7,740.3  Z" style="stroke-width: 2.0;  stroke: rgb(82,82,82); fill: rgb(255,153,0); opacity: 0.667;" />
<path d="M 754.706,740.287 A 1064.250,1064.250 0.00 0,1 757.3,737.7 L 757.3,737.7 808.1,791.0 854.2,842.0 896.2,890.9 934.2,937.7 968.5,982.7 999.3,1025.8 1027.0,1067.3 1051.6,1107.2 1073.5,1145.7 1092.8,1182.9 1109.6,1219.0 1124.1,1254.0 1136.5,1288.0 1146.8,1321.3 1155.2,1353.8 1161.7,1385.8 1166.4,1417.4 1169.4,1448.6 1170.6,1479.6 1170.2,1510.5 1168.0,1541.5 1164.1,1572.6 1158.5,1604.0 1151.0,1635.8 1141.6,1668.1 1130.3,1701.0 1117.0,1734.7 1101.4,1769.2 1083.5,1804.8 1063.1,1841.4 1040.1,1879.2 1014.3,1918.4 985.4,1959.0 953.2,2001.2 917.6,2045.1 878.3,2090.8 834.9,2138.4 787.2,2188.0 734.9,2239.8  A 1064.250,1064.250 0.00 0,0 737.5,2242.4 L 737.5,2242.4 789.6,2190.5 837.1,2140.7 880.3,2092.9 919.5,2047.1 955.0,2003.1 987.0,1960.8 1015.7,1920.1 1041.4,1880.8 1064.3,1842.9 1084.5,1806.2 1102.3,1770.6 1117.8,1736.0 1131.0,1702.3 1142.2,1669.3 1151.5,1637.0 1158.8,1605.2 1164.4,1573.8 1168.2,1542.7 1170.2,1511.7 1170.6,1480.8 1169.2,1449.7 1166.1,1418.5 1161.3,1387.0 1154.7,1355.0 1146.2,1322.5 1135.8,1289.3 1123.3,1255.3 1108.6,1220.3 1091.7,1184.3 1072.3,1147.2 1050.3,1108.8 1025.5,1068.9 997.7,1027.5 966.7,984.5 932.2,939.7 894.1,893.0 852.0,844.3 805.6,793.4 754.7,740.3  Z" style="stroke-width: 2.0;  stroke: rgb(82,82,82); fill: rgb(255,204,0); opacity: 0.667;" />
<path d="M 754.706,740.287 A 1064.250,1064.250 0.00 0,1 757.3,737.7 L 757.3,737.7 808.4,790.2 855.4,838.8 898.7,883.7 938.4,925.1 974.7,963.2 1007.7,998.1 1037.6,1030.0 1064.5,1059.0 1088.7,1085.2 1110.1,1108.9 1128.9,1130.0 1145.2,1148.8 1159.1,1165.2 1170.6,1179.4 1179.8,1191.4 1186.8,1201.3 1191.6,1209.1 1194.2,1214.9 1194.7,1218.7 1193.0,1220.6 1189.2,1220.4 1183.2,1218.3 1174.9,1214.2 1164.5,1208.1 1151.7,1200.0 1136.6,1189.8 1119.0,1177.4 1098.9,1162.8 1076.2,1145.9 1050.8,1126.6 1022.5,1104.9 991.2,1080.6 956.8,1053.6 919.2,1023.8 878.0,991.0 833.3,955.1 784.8,915.9 732.2,873.3 675.5,827.1  A 1064.250,1064.250 0.00 0,0 673.2,829.9 L 673.2,829.9 730.1,876.0 782.8,918.4 831.4,957.4 876.3,993.2 917.5,1025.8 955.3,1055.5 989.8,1082.4 1021.1,1106.6 1049.5,1128.2 1075.0,1147.4 1097.7,1164.2 1117.9,1178.7 1135.5,1191.0 1150.7,1201.2 1163.5,1209.3 1173.9,1215.4 1182.2,1219.4 1188.2,1221.5 1192.1,1221.6 1193.7,1219.8 1193.3,1216.0 1190.6,1210.2 1185.8,1202.3 1178.8,1192.5 1169.5,1180.5 1157.9,1166.4 1144.0,1150.0 1127.6,1131.3 1108.7,1110.2 1087.2,1086.7 1063.0,1060.5 1036.0,1031.6 1005.9,999.8 972.8,965.0 936.4,927.1 896.6,885.8 853.1,841.0 805.9,792.6 754.7,740.3  Z" style="stroke-width: 2.0;  stroke: rgb(82,82,82); fill: rgb(255,255,0); opacity: 0.667;" />
<path d="M 944.571,592.186 A 1064.250,1064.250 0.00 0,1 947.8,590.2 L 947.8,590.2 986.5,652.6 1023.6,709.9 1059.3,762.5 1093.5,810.6 1126.5,854.4 1158.3,894.3 1188.9,930.4 1218.5,963.0 1247.1,992.2 1274.9,1018.3 1301.8,1041.3 1328.1,1061.5 1353.8,1079.0 1378.9,1093.9 1403.7,1106.3 1428.0,1116.2 1452.2,1123.8 1476.2,1129.1 1500.1,1132.2 1524.0,1132.9 1548.1,1131.5 1572.4,1127.8 1597.0,1121.8 1621.9,1113.4 1647.4,1102.7 1673.5,1089.5 1700.3,1073.7 1727.8,1055.3 1756.2,1034.1 1785.6,1009.9 1816.1,982.6 1847.8,952.0 1880.7,918.0 1915.0,880.3 1950.8,838.7 1988.1,793.0 2027.1,742.9 2067.9,688.1 2110.6,628.3  A 1064.250,1064.250 0.00 0,0 2107.4,626.1 L 2107.4,626.1 2065.0,686.0 2024.4,740.9 1985.5,791.2 1948.4,837.1 1912.7,878.8 1878.6,916.6 1845.8,950.8 1814.2,981.4 1783.8,1008.8 1754.5,1033.1 1726.2,1054.5 1698.7,1073.0 1672.0,1088.9 1646.0,1102.2 1620.5,1113.0 1595.6,1121.4 1571.0,1127.5 1546.8,1131.3 1522.7,1132.9 1498.8,1132.2 1474.8,1129.2 1450.8,1124.0 1426.7,1116.5 1402.2,1106.6 1377.5,1094.3 1352.3,1079.5 1326.5,1062.2 1300.2,1042.0 1273.1,1019.1 1245.3,993.1 1216.5,964.0 1186.8,931.5 1156.1,895.5 1124.2,855.8 1091.1,812.1 1056.6,764.1 1020.8,711.7 983.5,654.4 944.6,592.2  Z" style="stroke-width: 2.0;  stroke: rgb(82,82,82); fill: rgb(204,255,0); opacity: 0.667;" />
<path d="M 944.571,592.186 A 1064.250,1064.250 0.00 0,1 947.8,590.2 L 947.8,590.2 987.4,653.0 1026.9,711.7 1066.4,766.6 1105.6,818.1 1144.4,866.4 1182.7,911.9 1220.5,954.9 1257.6,995.7 1294.0,1034.6 1329.6,1071.8 1364.5,1107.5 1398.5,1142.1 1431.7,1175.8 1464.1,1208.7 1495.8,1241.1 1526.7,1273.1 1556.9,1305.0 1586.5,1336.8 1615.5,1368.8 1644.1,1401.1 1672.4,1433.8 1700.5,1467.0 1728.5,1500.8 1756.5,1535.3 1784.9,1570.6 1813.6,1606.8 1843.1,1643.8 1873.3,1681.8 1904.6,1720.7 1937.3,1760.5 1971.5,1801.3 2007.5,1843.1 2045.7,1885.7 2086.2,1929.2 2129.5,1973.6 2175.9,2018.7 2225.7,2064.4 2279.2,2110.8 2336.8,2157.6  A 1064.250,1064.250 0.00 0,0 2339.2,2154.5 L 2339.2,2154.5 2281.4,2107.9 2227.7,2061.8 2177.8,2016.2 2131.3,1971.3 2087.8,1927.1 2047.1,1883.7 2008.7,1841.2 1972.6,1799.6 1938.2,1758.9 1905.4,1719.2 1874.0,1680.4 1843.6,1642.6 1814.0,1605.6 1785.1,1569.6 1756.7,1534.4 1728.5,1500.0 1700.3,1466.3 1672.2,1433.2 1643.8,1400.6 1615.0,1368.4 1585.9,1336.5 1556.2,1304.8 1525.9,1273.0 1494.8,1241.1 1463.1,1208.8 1430.6,1176.0 1397.2,1142.5 1363.0,1108.0 1328.1,1072.4 1292.3,1035.3 1255.8,996.6 1218.5,955.9 1180.6,913.0 1142.1,867.7 1103.1,819.5 1063.7,768.2 1024.1,713.4 984.3,654.9 944.6,592.2  Z" style="stroke-width: 2.0;  stroke: rgb(82,82,82); fill: rgb(0,255,0); opacity: 0.667;" />
<path d="M 944.571,592.186 A 1064.250,1064.250 0.00 0,1 947.8,590.2 L 947.8,590.2 985.2,653.7 1018.7,714.2 1048.5,771.9 1075.0,827.0 1098.3,879.5 1118.8,929.8 1136.6,977.9 1151.9,1024.1 1165.0,1068.4 1175.9,1111.0 1185.0,1152.1 1192.2,1191.9 1197.7,1230.4 1201.7,1267.9 1204.1,1304.4 1205.1,1340.1 1204.7,1375.2 1203.0,1409.8 1200.0,1444.0 1195.6,1478.0 1189.8,1511.8 1182.7,1545.7 1174.2,1579.8 1164.1,1614.1 1152.5,1648.8 1139.2,1684.0 1124.0,1719.9 1107.0,1756.5 1087.8,1793.9 1066.3,1832.4 1042.4,1871.9 1015.9,1912.7 986.5,1954.7 953.9,1998.1 918.0,2043.1 878.4,2089.6 834.9,2137.8 787.2,2187.9 734.9,2239.8  A 1064.250,1064.250 0.00 0,0 737.5,2242.4 L 737.5,2242.4 789.6,2190.3 837.1,2140.1 880.5,2091.7 919.9,2045.1 955.6,2000.0 988.0,1956.5 1017.3,1914.3 1043.7,1873.5 1067.5,1833.9 1088.8,1795.4 1107.8,1757.8 1124.8,1721.2 1139.8,1685.3 1153.0,1650.0 1164.5,1615.2 1174.4,1580.9 1182.9,1546.8 1189.9,1512.9 1195.5,1479.0 1199.8,1445.1 1202.7,1410.8 1204.3,1376.3 1204.5,1341.2 1203.4,1305.4 1200.8,1268.9 1196.7,1231.5 1191.1,1193.0 1183.7,1153.3 1174.5,1112.2 1163.4,1069.6 1150.2,1025.3 1134.7,979.2 1116.7,931.2 1096.1,881.0 1072.6,828.5 1045.9,773.5 1015.9,715.9 982.2,655.5 944.6,592.2  Z" style="stroke-width: 2.0;  stroke: rgb(82,82,82); fill: rgb(53,128,0); opacity: 0.667;" />
<path d="M 944.571,592.186 A 1064.250,1064.250 0.00 0,1 947.8,590.2 L 947.8,590.2 985.6,652.9 1020.2,711.1 1051.8,765.0 1080.4,814.9 1106.3,860.9 1129.5,903.2 1150.2,942.1 1168.5,977.6 1184.6,1010.0 1198.4,1039.4 1210.0,1065.9 1219.7,1089.7 1227.3,1110.8 1232.9,1129.4 1236.6,1145.6 1238.5,1159.4 1238.5,1170.9 1236.6,1180.2 1232.9,1187.2 1227.3,1192.1 1219.8,1194.8 1210.3,1195.4 1198.9,1193.8 1185.5,1190.1 1170.0,1184.1 1152.4,1176.0 1132.5,1165.5 1110.3,1152.7 1085.6,1137.5 1058.4,1119.7 1028.6,1099.4 995.9,1076.3 960.3,1050.4 921.6,1021.5 879.6,989.5 834.2,954.2 785.2,915.5 732.3,873.2 675.5,827.1  A 1064.250,1064.250 0.00 0,0 673.2,829.9 L 673.2,829.9 730.2,875.9 783.2,918.0 832.3,956.6 877.9,991.7 919.9,1023.5 958.7,1052.3 994.4,1078.0 1027.2,1101.0 1057.1,1121.2 1084.4,1138.9 1109.1,1154.0 1131.3,1166.8 1151.2,1177.2 1168.9,1185.3 1184.4,1191.2 1197.9,1194.9 1209.3,1196.4 1218.7,1195.8 1226.2,1193.1 1231.8,1188.2 1235.5,1181.1 1237.3,1171.8 1237.3,1160.3 1235.4,1146.5 1231.6,1130.4 1225.9,1111.8 1218.2,1090.7 1208.5,1066.9 1196.7,1040.5 1182.8,1011.1 1166.7,978.8 1148.2,943.3 1127.4,904.5 1104.0,862.3 1077.9,816.4 1049.1,766.6 1017.4,712.8 982.6,654.8 944.6,592.2  Z" style="stroke-width: 2.0;  stroke: rgb(82,82,82); fill: rgb(0,0,204); opacity: 0.667;" />
<path d="M 944.571,592.186 A 1064.250,1064.250 0.00 0,1 947.8,590.2 L 947.8,590.2 985.7,652.9 1020.4,710.9 1052.2,764.6 1081.2,814.2 1107.5,859.8 1131.3,901.6 1152.6,939.9 1171.6,974.8 1188.4,1006.5 1203.1,1035.1 1215.7,1060.7 1226.3,1083.5 1234.9,1103.6 1241.7,1121.0 1246.7,1135.9 1249.8,1148.4 1251.2,1158.4 1250.8,1166.1 1248.7,1171.4 1244.8,1174.4 1239.0,1175.2 1231.5,1173.6 1222.2,1169.8 1210.9,1163.6 1197.7,1155.1 1182.5,1144.2 1165.3,1130.7 1145.9,1114.8 1124.2,1096.2 1100.2,1074.8 1073.7,1050.7 1044.7,1023.5 1012.9,993.3 978.4,959.8 940.8,922.9 900.1,882.4 856.0,838.2 808.5,790.1 757.3,737.7  A 1064.250,1064.250 0.00 0,0 754.7,740.3 L 754.7,740.3 806.1,792.4 853.8,840.5 897.9,884.5 938.8,924.9 976.5,961.6 1011.2,995.0 1043.0,1025.1 1072.2,1052.1 1098.7,1076.2 1122.8,1097.5 1144.5,1116.0 1164.0,1131.9 1181.3,1145.3 1196.5,1156.2 1209.7,1164.6 1221.0,1170.8 1230.4,1174.6 1237.9,1176.1 1243.6,1175.3 1247.5,1172.3 1249.6,1166.9 1250.0,1159.3 1248.6,1149.3 1245.4,1136.8 1240.4,1122.0 1233.5,1104.5 1224.8,1084.5 1214.1,1061.7 1201.4,1036.2 1186.7,1007.6 1169.8,976.0 1150.6,941.2 1129.2,903.0 1105.2,861.2 1078.8,815.7 1049.6,766.2 1017.6,712.6 982.7,654.7 944.6,592.2  Z" style="stroke-width: 2.0;  stroke: rgb(82,82,82); fill: rgb(102,153,255); opacity: 0.667;" />
<path d="M 999.447,560.811 A 1064.250,1064.250 0.00 0,1 1002.7,559.1 L 1002.7,559.1 1037.6,623.7 1071.1,683.1 1103.4,737.7 1134.5,787.6 1164.6,833.3 1193.6,874.9 1221.6,912.6 1248.7,946.8 1275.1,977.4 1300.7,1004.9 1325.7,1029.2 1350.1,1050.7 1374.0,1069.3 1397.5,1085.2 1420.7,1098.6 1443.6,1109.4 1466.4,1117.9 1489.1,1124.0 1511.8,1127.7 1534.6,1129.1 1557.6,1128.2 1580.9,1125.0 1604.6,1119.5 1628.7,1111.6 1653.3,1101.2 1678.6,1088.3 1704.7,1072.8 1731.6,1054.6 1759.4,1033.6 1788.2,1009.5 1818.2,982.4 1849.4,951.9 1881.9,917.9 1915.8,880.3 1951.3,838.7 1988.4,793.0 2027.3,742.9 2068.0,688.1 2110.6,628.3  A 1064.250,1064.250 0.00 0,0 2107.4,626.1 L 2107.4,626.1 2065.0,686.0 2024.5,740.9 1985.8,791.2 1948.9,837.1 1913.6,878.8 1879.8,916.5 1847.4,950.6 1816.3,981.2 1786.4,1008.5 1757.7,1032.6 1730.0,1053.8 1703.2,1072.1 1677.2,1087.7 1651.9,1100.7 1627.3,1111.1 1603.2,1119.1 1579.6,1124.7 1556.3,1128.0 1533.3,1129.0 1510.5,1127.6 1487.8,1124.0 1465.1,1118.0 1442.3,1109.6 1419.3,1098.8 1396.1,1085.6 1372.5,1069.7 1348.5,1051.2 1324.1,1029.8 1299.0,1005.6 1273.3,978.2 1246.8,947.6 1219.6,913.6 1191.4,876.0 1162.3,834.5 1132.1,788.9 1100.8,739.0 1068.3,684.6 1034.5,625.3 999.4,560.8  Z" style="stroke-width: 2.0;  stroke: rgb(82,82,82); fill: rgb(153,204,255); opacity: 0.667;" />
<path d="M 999.447,560.811 A 1064.250,1064.250 0.00 0,1 1002.7,559.1 L 1002.7,559.1 1038.4,624.1 1074.4,685.0 1110.4,742.0 1146.4,795.5 1182.2,845.8 1217.7,893.2 1252.7,938.0 1287.3,980.6 1321.3,1021.1 1354.8,1059.9 1387.5,1097.1 1419.6,1133.1 1451.0,1168.1 1481.7,1202.2 1511.7,1235.7 1541.1,1268.7 1569.9,1301.5 1598.2,1334.2 1626.0,1366.9 1653.5,1399.8 1680.7,1433.1 1707.8,1466.7 1734.9,1500.9 1762.2,1535.8 1789.7,1571.3 1817.8,1607.6 1846.6,1644.7 1876.3,1682.7 1907.1,1721.6 1939.2,1761.4 1973.0,1802.2 2008.7,1843.8 2046.5,1886.3 2086.8,1929.7 2129.9,1973.9 2176.1,2018.9 2225.8,2064.5 2279.2,2110.8 2336.8,2157.6  A 1064.250,1064.250 0.00 0,0 2339.2,2154.5 L 2339.2,2154.5 2281.4,2108.0 2227.8,2061.9 2178.0,2016.4 2131.6,1971.6 2088.4,1927.6 2047.9,1884.3 2009.9,1842.0 1974.1,1800.4 1940.2,1759.8 1907.9,1720.2 1876.9,1681.4 1847.1,1643.5 1818.2,1606.5 1790.0,1570.3 1762.3,1534.8 1734.9,1500.1 1707.7,1466.0 1680.5,1432.4 1653.1,1399.3 1625.6,1366.4 1597.6,1333.8 1569.2,1301.2 1540.3,1268.6 1510.8,1235.6 1480.6,1202.2 1449.8,1168.2 1418.3,1133.4 1386.1,1097.5 1353.2,1060.4 1319.7,1021.7 1285.5,981.3 1250.8,938.9 1215.6,894.2 1179.9,846.9 1144.0,796.7 1107.8,743.3 1071.6,686.5 1035.4,625.7 999.4,560.8  Z" style="stroke-width: 2.0;  stroke: rgb(82,82,82); fill: rgb(0,255,255); opacity: 0.667;" />
<path d="M 999.447,560.811 A 1064.250,1064.250 0.00 0,1 1002.7,559.1 L 1002.7,559.1 1036.3,624.7 1066.1,687.2 1092.4,746.7 1115.6,803.5 1135.8,857.7 1153.2,909.4 1168.2,958.9 1180.9,1006.3 1191.4,1051.7 1200.0,1095.5 1206.8,1137.6 1211.9,1178.3 1215.5,1217.7 1217.6,1256.0 1218.4,1293.4 1217.8,1329.9 1216.0,1365.7 1212.9,1401.0 1208.6,1435.8 1203.1,1470.4 1196.4,1504.9 1188.3,1539.4 1178.9,1574.0 1168.1,1608.9 1155.8,1644.1 1141.9,1679.9 1126.2,1716.2 1108.7,1753.3 1089.1,1791.3 1067.4,1830.2 1043.2,1870.1 1016.4,1911.2 986.8,1953.6 954.2,1997.3 918.1,2042.5 878.5,2089.3 835.0,2137.7 787.2,2187.8 734.9,2239.8  A 1064.250,1064.250 0.00 0,0 737.5,2242.4 L 737.5,2242.4 789.6,2190.3 837.2,2140.0 880.5,2091.4 920.0,2044.5 955.9,1999.2 988.4,1955.4 1017.9,1912.9 1044.5,1871.7 1068.5,1831.6 1090.2,1792.7 1109.6,1754.7 1127.0,1717.5 1142.5,1681.1 1156.3,1645.3 1168.5,1610.0 1179.2,1575.1 1188.4,1540.5 1196.4,1506.0 1203.0,1471.5 1208.4,1436.8 1212.6,1401.9 1215.5,1366.7 1217.2,1330.8 1217.7,1294.3 1216.8,1257.0 1214.5,1218.7 1210.8,1179.3 1205.6,1138.6 1198.6,1096.5 1189.9,1052.8 1179.2,1007.4 1166.3,960.0 1151.2,910.6 1133.5,858.9 1113.2,804.8 1089.8,748.2 1063.3,688.7 1033.2,626.3 999.4,560.8  Z" style="stroke-width: 2.0;  stroke: rgb(82,82,82); fill: rgb(204,255,255); opacity: 0.667;" />
<path d="M 999.447,560.811 A 1064.250,1064.250 0.00 0,1 1002.7,559.1 L 1002.7,559.1 1036.7,623.9 1067.7,684.2 1095.8,740.0 1121.3,791.6 1144.2,839.2 1164.6,883.1 1182.6,923.4 1198.5,960.3 1212.1,994.0 1223.7,1024.5 1233.4,1052.2 1241.0,1077.0 1246.8,1099.1 1250.8,1118.7 1252.9,1135.7 1253.3,1150.3 1251.9,1162.6 1248.7,1172.6 1243.8,1180.3 1237.0,1185.8 1228.5,1189.1 1218.1,1190.3 1205.8,1189.2 1191.5,1186.0 1175.2,1180.5 1156.9,1172.8 1136.3,1162.8 1113.5,1150.4 1088.3,1135.5 1060.6,1118.1 1030.3,1098.1 997.2,1075.3 961.3,1049.6 922.3,1021.0 880.1,989.2 834.5,954.0 785.3,915.5 732.4,873.2 675.5,827.1  A 1064.250,1064.250 0.00 0,0 673.2,829.9 L 673.2,829.9 730.2,875.9 783.3,917.9 832.6,956.3 878.3,991.3 920.6,1023.0 959.7,1051.5 995.8,1077.0 1028.9,1099.7 1059.3,1119.6 1087.0,1136.9 1112.3,1151.7 1135.1,1164.0 1155.7,1174.0 1174.1,1181.7 1190.4,1187.1 1204.7,1190.3 1217.0,1191.3 1227.4,1190.1 1235.9,1186.7 1242.7,1181.2 1247.6,1173.4 1250.7,1163.4 1252.1,1151.2 1251.7,1136.5 1249.5,1119.5 1245.4,1100.0 1239.6,1077.9 1231.8,1053.1 1222.1,1025.5 1210.4,995.0 1196.6,961.4 1180.6,924.5 1162.4,884.3 1141.9,840.5 1118.8,792.9 1093.2,741.4 1064.9,685.7 1033.7,625.5 999.4,560.8  Z" style="stroke-width: 2.0;  stroke: rgb(82,82,82); fill: rgb(153,0,204); opacity: 0.667;" />
<path d="M 999.447,560.811 A 1064.250,1064.250 0.00 0,1 1002.7,559.1 L 1002.7,559.1 1036.8,623.9 1067.9,684.0 1096.3,739.6 1122.1,790.9 1145.5,838.2 1166.4,881.6 1185.1,921.3 1201.6,957.6 1216.1,990.6 1228.5,1020.4 1239.1,1047.1 1247.7,1071.0 1254.6,1092.0 1259.7,1110.4 1263.1,1126.2 1264.8,1139.4 1264.7,1150.2 1263.1,1158.6 1259.7,1164.6 1254.6,1168.3 1247.9,1169.6 1239.4,1168.7 1229.1,1165.4 1217.0,1159.7 1203.0,1151.6 1187.1,1141.1 1169.2,1128.1 1149.2,1112.6 1126.9,1094.3 1102.4,1073.3 1075.5,1049.4 1046.1,1022.6 1014.0,992.6 979.1,959.3 941.2,922.6 900.3,882.3 856.2,838.1 808.6,790.0 757.3,737.7  A 1064.250,1064.250 0.00 0,0 754.7,740.3 L 754.7,740.3 806.1,792.4 853.9,840.4 898.2,884.3 939.3,924.5 977.2,961.1 1012.2,994.2 1044.4,1024.1 1073.9,1050.9 1100.9,1074.7 1125.5,1095.6 1147.8,1113.8 1167.9,1129.3 1185.9,1142.2 1201.8,1152.7 1215.8,1160.7 1228.0,1166.3 1238.2,1169.6 1246.7,1170.5 1253.5,1169.1 1258.5,1165.5 1261.9,1159.4 1263.5,1151.0 1263.5,1140.2 1261.8,1127.0 1258.4,1111.2 1253.2,1092.9 1246.2,1071.8 1237.5,1048.0 1226.9,1021.3 1214.3,991.6 1199.7,958.7 1183.1,922.4 1164.3,882.7 1143.2,839.4 1119.7,792.2 1093.7,741.0 1065.1,685.5 1033.7,625.5 999.4,560.8  Z" style="stroke-width: 2.0;  stroke: rgb(82,82,82); fill: rgb(204,51,255); opacity: 0.667;" />
<path d="M 999.447,560.811 A 1064.250,1064.250 0.00 0,1 1002.7,559.1 L 1002.7,559.1 1036.9,623.8 1068.4,683.7 1097.4,738.9 1123.9,789.7 1148.2,836.3 1170.3,878.9 1190.4,917.8 1208.4,953.0 1224.6,984.7 1238.9,1013.2 1251.5,1038.4 1262.5,1060.6 1271.8,1079.9 1279.5,1096.3 1285.7,1110.0 1290.4,1121.0 1293.6,1129.3 1295.3,1135.1 1295.6,1138.3 1294.5,1138.9 1291.9,1137.0 1287.9,1132.6 1282.4,1125.5 1275.4,1115.9 1266.8,1103.5 1256.7,1088.5 1244.9,1070.6 1231.4,1049.8 1216.2,1026.0 1199.2,999.1 1180.2,969.0 1159.3,935.4 1136.3,898.3 1111.0,857.4 1083.5,812.6 1053.5,763.7 1021.0,710.5 985.8,652.8 947.8,590.2  A 1064.250,1064.250 0.00 0,0 944.6,592.2 L 944.6,592.2 982.8,654.6 1018.2,712.2 1050.9,765.3 1081.0,814.1 1108.7,858.8 1134.1,899.6 1157.3,936.6 1178.3,970.1 1197.4,1000.2 1214.5,1027.1 1229.8,1050.8 1243.4,1071.5 1255.2,1089.3 1265.4,1104.4 1274.0,1116.7 1281.1,1126.3 1286.6,1133.3 1290.6,1137.8 1293.2,1139.7 1294.4,1139.0 1294.0,1135.8 1292.3,1130.1 1289.0,1121.7 1284.3,1110.8 1278.1,1097.1 1270.3,1080.7 1260.9,1061.5 1249.9,1039.3 1237.3,1014.1 1222.8,985.7 1206.5,954.0 1188.4,918.8 1168.2,880.1 1145.9,837.5 1121.5,791.0 1094.7,740.3 1065.6,685.2 1033.8,625.4 999.4,560.8  Z" style="stroke-width: 2.0;  stroke: rgb(82,82,82); fill: rgb(204,153,255); opacity: 0.667;" />
<path d="M 1006.587,557.041 A 1064.250,1064.250 0.00 0,1 1009.9,555.3 L 1009.9,555.3 1044.2,620.2 1077.3,679.9 1109.2,734.7 1139.9,784.9 1169.5,830.8 1198.2,872.6 1225.9,910.5 1252.7,944.8 1278.7,975.7 1304.1,1003.3 1328.8,1027.8 1353.0,1049.4 1376.6,1068.1 1399.9,1084.2 1422.9,1097.7 1445.6,1108.6 1468.2,1117.2 1490.8,1123.3 1513.3,1127.2 1536.0,1128.7 1558.9,1127.9 1582.0,1124.7 1605.6,1119.2 1629.6,1111.4 1654.1,1101.0 1679.3,1088.2 1705.3,1072.7 1732.1,1054.5 1759.8,1033.5 1788.6,1009.5 1818.5,982.3 1849.6,951.9 1882.1,917.9 1916.0,880.3 1951.4,838.7 1988.5,793.0 2027.3,742.9 2068.0,688.1 2110.6,628.3  A 1064.250,1064.250 0.00 0,0 2107.4,626.1 L 2107.4,626.1 2065.0,686.0 2024.5,740.9 1985.9,791.2 1949.0,837.1 1913.7,878.8 1879.9,916.5 1847.6,950.6 1816.6,981.2 1786.8,1008.4 1758.1,1032.6 1730.4,1053.7 1703.7,1072.0 1677.8,1087.5 1652.7,1100.5 1628.2,1110.9 1604.2,1118.9 1580.7,1124.4 1557.5,1127.6 1534.7,1128.5 1512.0,1127.1 1489.5,1123.4 1466.9,1117.3 1444.3,1108.8 1421.5,1097.9 1398.5,1084.5 1375.1,1068.5 1351.4,1049.9 1327.2,1028.4 1302.4,1004.0 1276.9,976.4 1250.8,945.7 1223.8,911.5 1196.0,873.6 1167.2,831.9 1137.4,786.1 1106.5,736.0 1074.5,681.3 1041.2,621.8 1006.6,557.0  Z" style="stroke-width: 2.0;  stroke: rgb(82,82,82); fill: rgb(102,102,102); opacity: 0.667;" />
<path d="M 1006.587,557.041 A 1064.250,1064.250 0.00 0,1 1009.9,555.3 L 1009.9,555.3 1045.1,620.6 1080.6,681.8 1116.2,739.0 1151.7,792.7 1187.1,843.3 1222.2,890.9 1256.9,936.0 1291.2,978.8 1324.9,1019.5 1358.0,1058.4 1390.5,1095.9 1422.3,1132.1 1453.5,1167.2 1483.9,1201.4 1513.8,1235.0 1543.0,1268.2 1571.6,1301.1 1599.7,1333.9 1627.4,1366.7 1654.7,1399.7 1681.8,1433.0 1708.8,1466.7 1735.7,1501.0 1762.9,1535.8 1790.4,1571.4 1818.3,1607.7 1847.0,1644.9 1876.6,1682.9 1907.4,1721.8 1939.5,1761.6 1973.2,1802.3 2008.8,1843.9 2046.7,1886.4 2086.9,1929.8 2130.0,1973.9 2176.2,2018.9 2225.8,2064.5 2279.2,2110.8 2336.8,2157.6  A 1064.250,1064.250 0.00 0,0 2339.2,2154.5 L 2339.2,2154.5 2281.4,2108.0 2227.8,2061.9 2178.0,2016.4 2131.7,1971.7 2088.5,1927.6 2048.0,1884.4 2010.1,1842.0 1974.3,1800.6 1940.4,1760.0 1908.2,1720.3 1877.3,1681.5 1847.6,1643.6 1818.7,1606.6 1790.6,1570.4 1763.0,1534.9 1735.8,1500.1 1708.6,1466.0 1681.6,1432.3 1654.4,1399.1 1626.9,1366.2 1599.1,1333.5 1570.9,1300.8 1542.2,1268.0 1512.8,1235.0 1482.9,1201.5 1452.3,1167.3 1421.1,1132.3 1389.1,1096.3 1356.5,1058.9 1323.2,1020.1 1289.4,979.5 1255.0,936.8 1220.1,891.9 1184.8,844.4 1149.3,794.0 1113.5,740.3 1077.7,683.2 1042.0,622.2 1006.6,557.0  Z" style="stroke-width: 2.0;  stroke: rgb(82,82,82); fill: rgb(153,153,153); opacity: 0.667;" />
<path d="M 1006.587,557.041 A 1064.250,1064.250 0.00 0,1 1009.9,555.3 L 1009.9,555.3 1042.9,621.2 1072.3,684.0 1098.2,743.7 1120.9,800.7 1140.6,855.0 1157.7,906.9 1172.3,956.6 1184.6,1004.1 1194.9,1049.7 1203.2,1093.6 1209.7,1135.8 1214.5,1176.7 1217.9,1216.2 1219.7,1254.6 1220.3,1292.0 1219.5,1328.6 1217.5,1364.5 1214.2,1399.9 1209.8,1434.8 1204.1,1469.5 1197.2,1504.1 1189.0,1538.6 1179.5,1573.3 1168.6,1608.2 1156.2,1643.6 1142.2,1679.4 1126.5,1715.8 1108.9,1752.9 1089.3,1790.9 1067.5,1829.9 1043.3,1869.9 1016.5,1911.0 986.9,1953.5 954.2,1997.2 918.2,2042.5 878.5,2089.3 835.0,2137.7 787.2,2187.8 734.9,2239.8  A 1064.250,1064.250 0.00 0,0 737.5,2242.4 L 737.5,2242.4 789.6,2190.3 837.2,2140.0 880.6,2091.4 920.0,2044.5 955.9,1999.1 988.5,1955.2 1017.9,1912.7 1044.6,1871.5 1068.7,1831.4 1090.3,1792.3 1109.8,1754.3 1127.3,1717.1 1142.9,1680.6 1156.7,1644.7 1169.0,1609.4 1179.8,1574.4 1189.2,1539.7 1197.2,1505.1 1204.0,1470.5 1209.5,1435.8 1213.9,1400.9 1217.0,1365.5 1218.9,1329.6 1219.5,1293.0 1218.9,1255.6 1216.9,1217.2 1213.4,1177.6 1208.4,1136.8 1201.8,1094.6 1193.3,1050.8 1182.9,1005.2 1170.4,957.7 1155.7,908.1 1138.4,856.3 1118.4,802.0 1095.5,745.1 1069.4,685.4 1039.9,622.8 1006.6,557.0  Z" style="stroke-width: 2.0;  stroke: rgb(82,82,82); fill: rgb(204,204,204); opacity: 0.667;" />
<path d="M 1006.587,557.041 A 1064.250,1064.250 0.00 0,1 1009.9,555.3 L 1009.9,555.3 1043.4,620.5 1073.9,680.9 1101.6,736.9 1126.6,788.8 1149.1,836.6 1169.1,880.7 1186.9,921.2 1202.4,958.2 1215.7,992.0 1227.1,1022.8 1236.4,1050.5 1243.8,1075.5 1249.4,1097.7 1253.1,1117.4 1255.1,1134.5 1255.2,1149.2 1253.6,1161.6 1250.3,1171.6 1245.2,1179.4 1238.3,1185.0 1229.6,1188.4 1219.1,1189.6 1206.6,1188.7 1192.3,1185.5 1175.9,1180.1 1157.4,1172.4 1136.8,1162.4 1113.9,1150.1 1088.6,1135.3 1060.9,1117.9 1030.5,1097.9 997.4,1075.1 961.4,1049.5 922.4,1020.9 880.1,989.1 834.5,954.0 785.3,915.4 732.4,873.2 675.5,827.1  A 1064.250,1064.250 0.00 0,0 673.2,829.9 L 673.2,829.9 730.2,875.9 783.3,917.9 832.6,956.3 878.4,991.3 920.7,1022.9 959.8,1051.4 995.9,1076.9 1029.1,1099.5 1059.6,1119.4 1087.4,1136.7 1112.7,1151.4 1135.6,1163.7 1156.3,1173.6 1174.8,1181.2 1191.2,1186.6 1205.6,1189.7 1218.0,1190.6 1228.5,1189.4 1237.2,1185.9 1244.1,1180.3 1249.2,1172.5 1252.5,1162.4 1254.0,1150.0 1253.8,1135.3 1251.8,1118.2 1248.0,1098.6 1242.4,1076.4 1234.8,1051.4 1225.4,1023.7 1214.0,993.0 1200.5,959.3 1184.9,922.2 1167.0,881.8 1146.8,837.8 1124.2,790.1 1099.0,738.3 1071.1,682.4 1040.3,622.0 1006.6,557.0  Z" style="stroke-width: 2.0;  stroke: rgb(82,82,82); fill: rgb(204,204,153); opacity: 0.667;" />
<path d="M 1006.587,557.041 A 1064.250,1064.250 0.00 0,1 1009.9,555.3 L 1009.9,555.3 1043.4,620.4 1074.1,680.7 1102.1,736.6 1127.5,788.1 1150.4,835.6 1171.0,879.2 1189.3,919.1 1205.5,955.5 1219.7,988.6 1231.8,1018.6 1242.1,1045.5 1250.5,1069.4 1257.2,1090.6 1262.0,1109.1 1265.2,1125.0 1266.7,1138.3 1266.5,1149.2 1264.7,1157.7 1261.1,1163.8 1255.9,1167.5 1249.0,1169.0 1240.4,1168.1 1230.0,1164.8 1217.8,1159.2 1203.7,1151.2 1187.7,1140.8 1169.7,1127.8 1149.6,1112.3 1127.3,1094.1 1102.7,1073.1 1075.7,1049.3 1046.2,1022.4 1014.1,992.5 979.2,959.2 941.3,922.5 900.4,882.2 856.2,838.1 808.6,790.0 757.3,737.7  A 1064.250,1064.250 0.00 0,0 754.7,740.3 L 754.7,740.3 806.1,792.4 853.9,840.4 898.2,884.3 939.3,924.5 977.3,961.0 1012.3,994.2 1044.6,1024.0 1074.2,1050.7 1101.2,1074.5 1125.9,1095.4 1148.3,1113.5 1168.4,1129.0 1186.5,1141.8 1202.5,1152.2 1216.6,1160.2 1228.9,1165.8 1239.3,1169.0 1247.9,1169.8 1254.8,1168.4 1260.0,1164.6 1263.5,1158.5 1265.3,1150.0 1265.5,1139.1 1263.9,1125.8 1260.7,1109.9 1255.7,1091.5 1249.0,1070.3 1240.5,1046.4 1230.2,1019.5 1217.9,989.6 1203.6,956.6 1187.3,920.2 1168.8,880.3 1148.1,836.8 1125.0,789.4 1099.4,737.9 1071.3,682.2 1040.4,622.0 1006.6,557.0  Z" style="stroke-width: 2.0;  stroke: rgb(82,82,82); fill: rgb(251,106,74); opacity: 0.667;" />
<path d="M 1006.587,557.041 A 1064.250,1064.250 0.00 0,1 1009.9,555.3 L 1009.9,555.3 1043.5,620.3 1074.6,680.4 1103.1,735.9 1129.3,786.9 1153.2,833.7 1174.9,876.5 1194.6,915.5 1212.4,950.9 1228.2,982.8 1242.3,1011.4 1254.6,1036.8 1265.3,1059.2 1274.3,1078.5 1281.8,1095.1 1287.8,1108.9 1292.3,1120.0 1295.4,1128.4 1296.9,1134.2 1297.1,1137.5 1295.8,1138.2 1293.1,1136.4 1288.9,1132.0 1283.3,1125.0 1276.2,1115.4 1267.5,1103.1 1257.3,1088.1 1245.4,1070.3 1231.9,1049.6 1216.6,1025.8 1199.5,999.0 1180.5,968.8 1159.5,935.3 1136.4,898.2 1111.1,857.4 1083.6,812.6 1053.6,763.7 1021.0,710.5 985.8,652.8 947.8,590.2  A 1064.250,1064.250 0.00 0,0 944.6,592.2 L 944.6,592.2 982.8,654.6 1018.2,712.2 1050.9,765.3 1081.1,814.1 1108.8,858.8 1134.2,899.5 1157.5,936.5 1178.6,970.0 1197.7,1000.0 1214.9,1026.8 1230.3,1050.5 1243.9,1071.2 1255.8,1089.0 1266.1,1104.0 1274.8,1116.2 1282.0,1125.8 1287.6,1132.7 1291.8,1137.1 1294.5,1138.9 1295.8,1138.2 1295.7,1134.9 1294.1,1129.1 1291.0,1120.7 1286.5,1109.6 1280.4,1095.9 1272.9,1079.3 1263.7,1060.0 1253.0,1037.7 1240.6,1012.3 1226.4,983.8 1210.5,951.9 1192.6,916.6 1172.8,877.7 1150.9,834.9 1126.8,788.2 1100.5,737.3 1071.7,681.9 1040.5,621.9 1006.6,557.0  Z" style="stroke-width: 2.0;  stroke: rgb(82,82,82); fill: rgb(116,196,118); opacity: 0.667;" />
<path d="M 1006.587,557.041 A 1064.250,1064.250 0.00 0,1 1009.9,555.3 L 1009.9,555.3 1043.6,620.3 1074.7,680.4 1103.4,735.7 1129.8,786.6 1153.9,833.3 1176.0,875.9 1196.1,914.7 1214.2,949.9 1230.6,981.5 1245.2,1009.8 1258.1,1034.9 1269.4,1056.9 1279.1,1075.9 1287.4,1092.0 1294.2,1105.3 1299.5,1115.9 1303.5,1123.9 1306.1,1129.1 1307.3,1131.8 1307.1,1131.9 1305.6,1129.4 1302.7,1124.2 1298.5,1116.5 1292.8,1106.0 1285.7,1092.9 1277.2,1076.9 1267.1,1058.1 1255.5,1036.3 1242.2,1011.3 1227.3,983.2 1210.6,951.8 1192.0,916.9 1171.6,878.3 1149.1,835.8 1124.5,789.4 1097.7,738.7 1068.5,683.6 1036.9,623.8 1002.7,559.1  A 1064.250,1064.250 0.00 0,0 999.4,560.8 L 999.4,560.8 1033.9,625.4 1065.7,685.1 1095.1,740.1 1122.0,790.7 1146.8,837.1 1169.4,879.4 1190.0,917.9 1208.7,952.8 1225.5,984.2 1240.5,1012.2 1253.9,1037.1 1265.6,1058.9 1275.7,1077.7 1284.3,1093.6 1291.5,1106.8 1297.2,1117.2 1301.5,1124.9 1304.3,1130.0 1305.9,1132.6 1306.0,1132.5 1304.8,1129.8 1302.2,1124.5 1298.2,1116.6 1292.8,1106.1 1286.0,1092.7 1277.7,1076.6 1267.9,1057.7 1256.5,1035.7 1243.5,1010.7 1228.8,982.4 1212.3,950.9 1194.1,915.8 1173.9,877.1 1151.6,834.5 1127.3,787.9 1100.8,737.1 1071.9,681.8 1040.5,621.9 1006.6,557.0  Z" style="stroke-width: 2.0;  stroke: rgb(82,82,82); fill: rgb(107,174,214); opacity: 0.667;" />
<path d="M 1178.205,485.566 A 1064.250,1064.250 0.00 0,1 1181.9,484.4 L 1181.9,484.4 1204.3,554.2 1226.2,618.7 1247.5,678.1 1268.4,732.7 1288.7,782.7 1308.6,828.5 1328.1,870.2 1347.3,908.1 1366.2,942.4 1384.8,973.2 1403.2,1000.7 1421.4,1025.1 1439.5,1046.5 1457.6,1065.1 1475.7,1080.8 1493.9,1093.9 1512.2,1104.4 1530.7,1112.3 1549.4,1117.8 1568.6,1120.7 1588.1,1121.2 1608.2,1119.3 1628.8,1114.8 1650.0,1107.8 1672.1,1098.3 1694.9,1086.1 1718.6,1071.2 1743.4,1053.5 1769.3,1032.8 1796.3,1009.1 1824.7,982.1 1854.4,951.8 1885.6,917.9 1918.5,880.3 1953.0,838.8 1989.4,793.0 2027.7,742.9 2068.1,688.1 2110.6,628.3  A 1064.250,1064.250 0.00 0,0 2107.4,626.1 L 2107.4,626.1 2065.1,686.0 2025.0,741.0 1986.8,791.3 1950.6,837.1 1916.2,878.8 1883.5,916.5 1852.4,950.5 1822.8,980.9 1794.5,1008.0 1767.6,1031.8 1741.8,1052.6 1717.1,1070.4 1693.4,1085.4 1670.6,1097.7 1648.6,1107.3 1627.4,1114.4 1606.8,1118.9 1586.7,1120.9 1567.2,1120.5 1548.1,1117.6 1529.3,1112.2 1510.7,1104.4 1492.4,1093.9 1474.2,1080.9 1456.0,1065.2 1437.9,1046.8 1419.7,1025.4 1401.4,1001.1 1382.9,973.6 1364.2,942.9 1345.2,908.7 1325.9,870.9 1306.2,829.2 1286.1,783.5 1265.6,733.5 1244.6,679.0 1223.0,619.7 1200.9,555.3 1178.2,485.6  Z" style="stroke-width: 2.0;  stroke: rgb(82,82,82); fill: rgb(253,141,60); opacity: 0.667;" />
<path d="M 1178.205,485.566 A 1064.250,1064.250 0.00 0,1 1181.9,484.4 L 1181.9,484.4 1205.1,554.8 1229.3,620.9 1254.2,683.0 1279.6,741.5 1305.5,796.7 1331.6,848.8 1357.8,898.2 1384.1,945.2 1410.3,989.9 1436.3,1032.6 1462.2,1073.6 1487.8,1113.1 1513.1,1151.3 1538.1,1188.5 1562.8,1224.7 1587.3,1260.3 1611.5,1295.4 1635.5,1330.1 1659.3,1364.6 1683.1,1399.0 1706.9,1433.6 1730.9,1468.3 1755.1,1503.4 1779.7,1538.8 1804.8,1574.8 1830.7,1611.4 1857.4,1648.6 1885.3,1686.6 1914.4,1725.3 1945.2,1764.8 1977.7,1805.1 2012.2,1846.3 2049.1,1888.4 2088.6,1931.3 2131.1,1975.0 2176.8,2019.5 2226.0,2064.8 2279.3,2110.9 2336.8,2157.6  A 1064.250,1064.250 0.00 0,0 2339.2,2154.5 L 2339.2,2154.5 2281.5,2108.0 2228.1,2062.2 2178.6,2017.1 2132.8,1972.7 2090.2,1929.1 2050.5,1886.4 2013.5,1844.5 1978.8,1803.4 1946.1,1763.2 1915.3,1723.8 1885.9,1685.2 1858.0,1647.3 1831.1,1610.2 1805.1,1573.7 1779.8,1537.8 1755.1,1502.4 1730.8,1467.5 1706.7,1432.8 1682.8,1398.4 1658.9,1364.0 1634.9,1329.6 1610.8,1295.0 1586.4,1260.0 1561.9,1224.5 1537.0,1188.3 1511.8,1151.3 1486.4,1113.2 1460.6,1073.7 1434.6,1032.8 1408.4,990.2 1382.1,945.6 1355.6,898.8 1329.2,849.5 1302.9,797.4 1276.9,742.3 1251.2,683.9 1226.1,621.8 1201.7,555.8 1178.2,485.6  Z" style="stroke-width: 2.0;  stroke: rgb(82,82,82); fill: rgb(255,0,0); opacity: 0.667;" />
<path d="M 1178.205,485.566 A 1064.250,1064.250 0.00 0,1 1181.9,484.4 L 1181.9,484.4 1202.9,555.2 1220.8,622.3 1235.8,686.2 1248.2,746.9 1258.1,804.7 1265.9,859.7 1271.7,912.3 1275.7,962.5 1278.1,1010.6 1279.0,1056.8 1278.6,1101.2 1276.9,1144.1 1274.1,1185.5 1270.3,1225.7 1265.6,1264.8 1259.9,1303.1 1253.3,1340.6 1245.8,1377.5 1237.5,1413.9 1228.3,1450.1 1218.2,1486.1 1207.1,1522.0 1194.9,1558.1 1181.6,1594.4 1167.1,1631.0 1151.2,1668.2 1133.8,1705.9 1114.8,1744.3 1093.9,1783.5 1071.1,1823.6 1046.0,1864.8 1018.4,1907.0 988.2,1950.3 955.1,1995.0 918.7,2041.0 878.8,2088.4 835.1,2137.3 787.2,2187.7 734.9,2239.8  A 1064.250,1064.250 0.00 0,0 737.5,2242.4 L 737.5,2242.4 789.6,2190.2 837.3,2139.6 880.8,2090.5 920.5,2043.0 956.8,1996.9 989.8,1952.1 1019.8,1908.6 1047.2,1866.3 1072.2,1825.1 1094.9,1784.9 1115.6,1745.6 1134.6,1707.2 1151.8,1669.4 1167.6,1632.2 1182.0,1595.5 1195.1,1559.2 1207.1,1523.0 1218.1,1487.0 1228.1,1451.0 1237.2,1414.8 1245.4,1378.4 1252.7,1341.4 1259.1,1303.9 1264.7,1265.7 1269.3,1226.5 1273.0,1186.3 1275.6,1144.9 1277.1,1102.0 1277.4,1057.6 1276.3,1011.4 1273.8,963.3 1269.6,913.1 1263.6,860.6 1255.6,805.5 1245.5,747.8 1232.9,687.1 1217.7,623.3 1199.5,556.2 1178.2,485.6  Z" style="stroke-width: 2.0;  stroke: rgb(82,82,82); fill: rgb(255,0,204); opacity: 0.667;" />
<path d="M 1178.205,485.566 A 1064.250,1064.250 0.00 0,1 1181.9,484.4 L 1181.9,484.4 1203.4,554.4 1222.7,619.4 1239.8,679.7 1254.8,735.5 1267.9,787.1 1279.1,834.6 1288.5,878.3 1296.1,918.4 1302.2,955.0 1306.6,988.3 1309.4,1018.6 1310.8,1045.8 1310.7,1070.2 1309.1,1091.9 1306.0,1111.0 1301.5,1127.5 1295.6,1141.5 1288.2,1153.2 1279.3,1162.6 1268.8,1169.6 1256.8,1174.4 1243.2,1177.0 1228.0,1177.3 1211.0,1175.3 1192.1,1171.0 1171.4,1164.5 1148.7,1155.5 1123.9,1144.1 1096.9,1130.2 1067.6,1113.7 1035.9,1094.5 1001.5,1072.5 964.4,1047.5 924.5,1019.5 881.5,988.2 835.3,953.5 785.7,915.2 732.5,873.1 675.5,827.1  A 1064.250,1064.250 0.00 0,0 673.2,829.9 L 673.2,829.9 730.3,875.8 783.6,917.7 833.4,955.8 879.7,990.3 922.8,1021.5 962.9,1049.4 1000.0,1074.2 1034.5,1096.1 1066.3,1115.2 1095.6,1131.6 1122.7,1145.4 1147.5,1156.7 1170.3,1165.6 1191.0,1172.1 1209.8,1176.3 1226.8,1178.2 1242.1,1177.9 1255.7,1175.3 1267.7,1170.5 1278.1,1163.4 1286.9,1154.0 1294.3,1142.3 1300.2,1128.2 1304.6,1111.6 1307.6,1092.6 1309.1,1070.9 1309.2,1046.5 1307.7,1019.3 1304.7,989.0 1300.2,955.7 1294.0,919.1 1286.2,879.1 1276.7,835.4 1265.3,787.9 1252.1,736.4 1236.8,680.7 1219.5,620.5 1200.0,555.5 1178.2,485.6  Z" style="stroke-width: 2.0;  stroke: rgb(82,82,82); fill: rgb(255,204,204); opacity: 0.667;" />
<path d="M 1178.205,485.566 A 1064.250,1064.250 0.00 0,1 1181.9,484.4 L 1181.9,484.4 1203.5,554.4 1222.9,619.3 1240.3,679.4 1255.7,734.9 1269.2,786.1 1281.0,833.2 1291.0,876.4 1299.4,915.9 1306.3,951.9 1311.6,984.4 1315.4,1013.8 1317.7,1040.1 1318.7,1063.5 1318.3,1084.1 1316.5,1101.9 1313.3,1117.1 1308.8,1129.7 1302.9,1139.8 1295.6,1147.4 1286.8,1152.6 1276.6,1155.5 1264.9,1155.9 1251.7,1153.9 1236.8,1149.4 1220.3,1142.6 1202.0,1133.2 1181.9,1121.2 1159.8,1106.6 1135.8,1089.3 1109.6,1069.2 1081.2,1046.1 1050.5,1019.9 1017.2,990.6 981.4,957.9 942.7,921.7 901.2,881.7 856.5,837.9 808.7,790.0 757.3,737.7  A 1064.250,1064.250 0.00 0,0 754.7,740.3 L 754.7,740.3 806.2,792.4 854.3,840.1 899.0,883.8 940.7,923.6 979.5,959.7 1015.5,992.3 1048.8,1021.5 1079.7,1047.5 1108.1,1070.5 1134.4,1090.6 1158.5,1107.8 1180.6,1122.3 1200.7,1134.2 1219.0,1143.5 1235.6,1150.4 1250.4,1154.7 1263.7,1156.7 1275.4,1156.2 1285.6,1153.4 1294.3,1148.2 1301.6,1140.5 1307.5,1130.4 1312.0,1117.7 1315.1,1102.5 1316.8,1084.7 1317.2,1064.2 1316.1,1040.8 1313.6,1014.5 1309.7,985.1 1304.3,952.6 1297.3,916.6 1288.8,877.2 1278.6,834.0 1266.7,787.0 1252.9,735.8 1237.3,680.3 1219.7,620.3 1200.1,555.5 1178.2,485.6  Z" style="stroke-width: 2.0;  stroke: rgb(82,82,82); fill: rgb(255,153,0); opacity: 0.667;" />
<path d="M 1178.205,485.566 A 1064.250,1064.250 0.00 0,1 1181.9,484.4 L 1181.9,484.4 1203.6,554.3 1223.4,619.0 1241.4,678.8 1257.6,733.9 1272.1,784.5 1285.1,830.9 1296.5,873.2 1306.5,911.7 1315.1,946.5 1322.3,977.9 1328.3,1005.9 1332.9,1030.6 1336.4,1052.3 1338.6,1070.9 1339.6,1086.7 1339.5,1099.7 1338.2,1109.9 1335.8,1117.4 1332.1,1122.2 1327.3,1124.4 1321.3,1123.9 1314.0,1120.8 1305.5,1115.0 1295.7,1106.6 1284.6,1095.4 1272.0,1081.4 1258.0,1064.5 1242.5,1044.6 1225.4,1021.7 1206.7,995.5 1186.2,966.1 1163.9,933.1 1139.7,896.6 1113.4,856.2 1085.1,811.9 1054.4,763.3 1021.4,710.3 985.9,652.7 947.8,590.2  A 1064.250,1064.250 0.00 0,0 944.6,592.2 L 944.6,592.2 982.9,654.6 1018.6,712.0 1051.8,764.9 1082.6,813.4 1111.1,857.6 1137.5,897.9 1161.9,934.4 1184.3,967.2 1204.9,996.6 1223.7,1022.7 1240.9,1045.5 1256.5,1065.3 1270.5,1082.2 1283.1,1096.1 1294.3,1107.3 1304.1,1115.7 1312.7,1121.5 1319.9,1124.5 1326.0,1125.0 1330.8,1122.8 1334.4,1117.9 1336.8,1110.4 1338.1,1100.2 1338.2,1087.3 1337.1,1071.5 1334.8,1052.9 1331.2,1031.2 1326.5,1006.5 1320.5,978.5 1313.1,947.2 1304.4,912.4 1294.3,873.9 1282.7,831.6 1269.6,785.3 1254.8,734.7 1238.4,679.7 1220.2,620.0 1200.2,555.4 1178.2,485.6  Z" style="stroke-width: 2.0;  stroke: rgb(82,82,82); fill: rgb(255,204,0); opacity: 0.667;" />
<path d="M 1178.205,485.566 A 1064.250,1064.250 0.00 0,1 1181.9,484.4 L 1181.9,484.4 1203.6,554.3 1223.6,619.0 1241.7,678.7 1258.1,733.6 1272.9,784.1 1286.2,830.3 1298.1,872.5 1308.5,910.8 1317.5,945.4 1325.3,976.4 1331.8,1004.1 1337.2,1028.5 1341.3,1049.8 1344.3,1068.1 1346.1,1083.4 1346.9,1095.9 1346.5,1105.6 1345.0,1112.5 1342.4,1116.8 1338.8,1118.3 1333.9,1117.2 1328.0,1113.3 1320.8,1106.8 1312.5,1097.5 1302.9,1085.3 1292.0,1070.4 1279.8,1052.4 1266.2,1031.5 1251.1,1007.4 1234.6,980.0 1216.4,949.2 1196.5,914.8 1174.9,876.7 1151.4,834.8 1126.0,788.7 1098.6,738.3 1068.9,683.4 1037.0,623.8 1002.7,559.1  A 1064.250,1064.250 0.00 0,0 999.4,560.8 L 999.4,560.8 1034.0,625.4 1066.1,684.9 1095.9,739.7 1123.6,790.0 1149.1,836.0 1172.8,877.9 1194.5,915.9 1214.5,950.2 1232.8,980.9 1249.4,1008.2 1264.6,1032.3 1278.3,1053.2 1290.5,1071.1 1301.5,1086.0 1311.1,1098.1 1319.5,1107.4 1326.6,1113.9 1332.6,1117.7 1337.4,1118.9 1341.1,1117.3 1343.6,1113.1 1345.1,1106.1 1345.4,1096.5 1344.6,1084.0 1342.7,1068.7 1339.7,1050.4 1335.5,1029.1 1330.1,1004.7 1323.4,977.1 1315.5,946.0 1306.4,911.5 1295.8,873.2 1283.8,831.1 1270.4,784.9 1255.3,734.5 1238.7,679.6 1220.4,620.0 1200.2,555.4 1178.2,485.6  Z" style="stroke-width: 2.0;  stroke: rgb(82,82,82); fill: rgb(255,255,0); opacity: 0.667;" />
<path d="M 1178.205,485.566 A 1064.250,1064.250 0.00 0,1 1181.9,484.4 L 1181.9,484.4 1203.7,554.3 1223.6,619.0 1241.7,678.6 1258.2,733.6 1273.0,784.1 1286.4,830.3 1298.2,872.4 1308.7,910.7 1317.9,945.2 1325.7,976.3 1332.3,1003.9 1337.7,1028.3 1341.9,1049.5 1345.0,1067.8 1347.0,1083.0 1347.8,1095.5 1347.6,1105.1 1346.2,1112.0 1343.8,1116.1 1340.2,1117.6 1335.6,1116.3 1329.8,1112.4 1322.8,1105.8 1314.7,1096.4 1305.3,1084.1 1294.6,1069.0 1282.6,1051.0 1269.3,1029.9 1254.5,1005.6 1238.2,978.1 1220.3,947.1 1200.8,912.6 1179.5,874.3 1156.4,832.2 1131.4,785.9 1104.3,735.3 1075.1,680.2 1043.7,620.3 1009.9,555.3  A 1064.250,1064.250 0.00 0,0 1006.6,557.0 L 1006.6,557.0 1040.6,621.9 1072.3,681.6 1101.7,736.7 1128.9,787.2 1154.1,833.4 1177.3,875.5 1198.7,913.6 1218.4,948.1 1236.4,979.0 1252.8,1006.5 1267.7,1030.7 1281.1,1051.7 1293.1,1069.8 1303.8,1084.8 1313.3,1097.0 1321.4,1106.4 1328.4,1113.0 1334.2,1116.9 1338.9,1118.1 1342.4,1116.7 1344.8,1112.5 1346.2,1105.6 1346.4,1096.0 1345.5,1083.6 1343.5,1068.3 1340.3,1050.1 1336.0,1028.9 1330.5,1004.5 1323.8,976.9 1315.9,945.9 1306.6,911.4 1296.0,873.1 1284.0,831.1 1270.5,784.9 1255.4,734.5 1238.8,679.6 1220.4,620.0 1200.2,555.4 1178.2,485.6  Z" style="stroke-width: 2.0;  stroke: rgb(82,82,82); fill: rgb(204,255,0); opacity: 0.667;" />
<path d="M 2020.518,571.728 A 1064.250,1064.250 0.00 0,1 2036.4,580.8 L 2036.4,580.8 1999.2,643.9 1964.3,702.0 1931.5,755.3 1900.7,804.0 1871.9,848.5 1844.8,888.9 1819.5,925.4 1795.8,958.1 1773.6,987.4 1752.8,1013.2 1733.4,1035.8 1715.3,1055.2 1698.3,1071.6 1682.5,1085.1 1667.8,1095.8 1654.0,1103.6 1641.2,1108.7 1629.3,1111.1 1618.2,1110.9 1608.0,1107.9 1598.5,1102.2 1589.7,1093.8 1581.6,1082.7 1574.2,1068.7 1567.4,1051.8 1561.2,1031.9 1555.7,1009.0 1550.7,982.9 1546.4,953.4 1542.7,920.5 1539.5,883.9 1537.0,843.6 1535.0,799.2 1533.8,750.6 1533.1,697.6 1533.2,639.9 1533.9,577.4 1535.5,509.6 1537.8,436.4  A 1064.250,1064.250 0.00 0,0 1521.0,436.0 L 1521.0,436.0 1519.9,509.2 1519.5,577.0 1519.7,639.5 1520.5,697.2 1522.0,750.2 1524.0,798.7 1526.6,843.0 1529.8,883.4 1533.5,919.9 1537.7,952.7 1542.5,982.1 1547.9,1008.1 1553.7,1031.0 1560.2,1050.7 1567.2,1067.5 1574.8,1081.3 1583.1,1092.4 1592.0,1100.6 1601.5,1106.1 1611.8,1108.9 1622.9,1109.0 1634.7,1106.4 1647.4,1101.1 1661.0,1093.0 1675.5,1082.1 1691.1,1068.3 1707.7,1051.6 1725.5,1031.8 1744.5,1008.9 1764.8,982.7 1786.5,953.1 1809.6,920.0 1834.3,883.1 1860.7,842.2 1888.7,797.3 1918.7,748.0 1950.5,694.1 1984.4,635.5 2020.5,571.7  Z" style="stroke-width: 2.0;  stroke: rgb(82,82,82); fill: rgb(0,255,0); opacity: 0.667;" />
<path d="M 802.976,2304.230 A 1064.250,1064.250 0.00 0,1 778.4,2282.2 L 778.4,2282.2 828.5,2228.7 875.7,2179.7 920.3,2135.2 962.3,2094.7 1001.9,2058.1 1039.3,2025.2 1074.5,1995.7 1107.8,1969.6 1139.2,1946.7 1168.8,1926.8 1196.8,1909.7 1223.3,1895.5 1248.4,1883.9 1272.1,1874.9 1294.7,1868.4 1316.1,1864.4 1336.5,1862.8 1356.0,1863.6 1374.6,1866.8 1392.4,1872.4 1409.4,1880.4 1425.8,1890.9 1441.6,1903.9 1456.9,1919.5 1471.7,1937.8 1486.0,1958.8 1499.8,1982.7 1513.4,2009.5 1526.5,2039.6 1539.4,2072.9 1551.9,2109.7 1564.2,2150.1 1576.2,2194.4 1587.9,2242.8 1599.4,2295.5 1610.6,2352.8 1621.5,2414.9 1632.1,2482.1 1642.5,2554.7  A 1064.250,1064.250 0.00 0,0 1675.1,2549.8 L 1675.1,2549.8 1662.5,2477.5 1649.8,2410.7 1636.9,2349.0 1623.9,2292.1 1610.9,2239.7 1597.6,2191.7 1584.3,2147.8 1570.8,2107.8 1557.1,2071.4 1543.2,2038.5 1529.1,2008.9 1514.8,1982.4 1500.2,1959.0 1485.2,1938.5 1469.9,1920.7 1454.2,1905.6 1438.0,1893.1 1421.3,1883.1 1404.0,1875.6 1386.0,1870.5 1367.3,1867.9 1347.8,1867.7 1327.5,1869.9 1306.2,1874.6 1283.9,1881.8 1260.4,1891.5 1235.7,1903.9 1209.6,1918.9 1182.2,1936.8 1153.2,1957.7 1122.5,1981.6 1090.1,2008.7 1055.8,2039.2 1019.5,2073.3 981.0,2111.1 940.3,2152.8 897.1,2198.8 851.4,2249.2 803.0,2304.2  Z" style="stroke-width: 2.0;  stroke: rgb(82,82,82); fill: rgb(53,128,0); opacity: 0.667;" />
<path d="M 1080.663,521.846 A 1064.250,1064.250 0.00 0,1 1084.3,520.3 L 1084.3,520.3 1112.9,587.7 1139.3,649.9 1163.7,707.3 1186.1,760.1 1206.6,808.5 1225.3,852.7 1242.3,893.0 1257.7,929.4 1271.6,962.2 1284.0,991.5 1295.0,1017.5 1304.6,1040.3 1312.9,1060.0 1319.9,1076.7 1325.7,1090.5 1330.2,1101.4 1333.6,1109.6 1335.8,1115.0 1336.9,1117.8 1336.8,1117.8 1335.6,1115.1 1333.2,1109.8 1329.6,1101.7 1324.9,1090.8 1318.9,1077.1 1311.7,1060.5 1303.2,1040.8 1293.4,1018.1 1282.2,992.2 1269.6,963.0 1255.6,930.3 1239.9,894.0 1222.7,853.9 1203.7,809.7 1182.9,761.5 1160.3,708.8 1135.7,651.5 1109.0,589.3 1080.1,522.1  A 1064.250,1064.250 0.00 0,0 1076.4,523.7 L 1076.4,523.7 1105.6,590.8 1132.5,652.9 1157.3,710.1 1180.2,762.7 1201.1,810.9 1220.2,854.9 1237.6,895.0 1253.4,931.2 1267.6,963.9 1280.3,993.1 1291.6,1018.9 1301.5,1041.6 1310.1,1061.2 1317.3,1077.8 1323.3,1091.5 1328.1,1102.3 1331.7,1110.4 1334.1,1115.8 1335.4,1118.4 1335.5,1118.4 1334.4,1115.6 1332.2,1110.2 1328.7,1102.0 1324.1,1091.1 1318.3,1077.3 1311.2,1060.7 1302.9,1041.0 1293.2,1018.3 1282.1,992.3 1269.6,963.0 1255.6,930.3 1240.0,893.9 1222.9,853.8 1204.0,809.6 1183.3,761.3 1160.7,708.6 1136.1,651.3 1109.5,589.1 1080.7,521.8  Z" style="stroke-width: 2.0;  stroke: rgb(82,82,82); fill: rgb(0,0,204); opacity: 0.667;" />
</g>
<defs>
<pattern id="hline-sparse" width="10" height="10" patternTransform="rotate(0 0 0)" patternUnits="userSpaceOnUse"><line x1="0" y1="0" x2="10" y2="0" style="stroke:black;stroke-width:2" /></pattern>
<pattern id="checker" width="10" height="10" patternTransform="rotate(45 0 0)" patternUnits="userSpaceOnUse"><line x1="0" y1="0" x2="10" y2="0" style="stroke:black;stroke-width:2" /><line x1="0" y1="0" x2="0" y2="10" style="stroke:black;stroke-width:2" /></pattern>
<pattern id="checker" width="10" height="10" patternTransform="rotate(45 0 0)" patternUnits="userSpaceOnUse"><line x1="0" y1="0" x2="10" y2="0" style="stroke:black;stroke-width:5" /><line x1="0" y1="0" x2="0" y2="10" style="stroke:black;stroke-width:4" /></pattern>
<pattern id="hline" width="10" height="10" patternTransform="rotate(0 0 0)" patternUnits="userSpaceOnUse"><line x1="0" y1="0" x2="10" y2="0" style="stroke:black;stroke-width:5" /></pattern>
<pattern id="vline-sparse" width="10" height="10" patternTransform="rotate(0 0 0)" patternUnits="userSpaceOnUse"><line x1="0" y1="0" x2="0" y2="10" style="stroke:black;stroke-width:2" /></pattern>
<pattern id="vline" width="10" height="10" patternTransform="rotate(0 0 0)" patternUnits="userSpaceOnUse"><line x1="0" y1="0" x2="0" y2="10" style="stroke:black;stroke-width:5" /></pattern>
</defs>
</svg>
