<?xml version="1.0" encoding="utf-8" standalone="no"?>
<!DOCTYPE svg PUBLIC "-//W3C//DTD SVG 1.1//EN" "http://www.w3.org/Graphics/SVG/1.1/DTD/svg11.dtd">
<svg width="3000px" height="3000px" version="1.1" xmlns="http://www.w3.org/2000/svg" xmlns:xlink="http://www.w3.org/1999/xlink">
<g id="ideograms">
<path d="M1500.000,425.000 A1075.000,1075.000 40.000 0,1 1819.734,473.649 L1834.605,425.912 A1125.000,1125.000 0.000 0,0 1500.000,375.000 Z" style="stroke-linecap:round;fill:rgb(116,196,118);fill-opacity:0.33;" />
<text x="1692.2" y="300.3" font-size="18.2px" font-family="CMUBright-Roman" style="text-anchor:start;fill:rgb(0,0,0);" transform="rotate(278.7,1692.2,300.3)" >R<tspan baseline-shift="-40%" font-size="90%">s</tspan>caffold<tspan baseline-shift="-40%" font-size="90%">7</tspan></text>
<line x1='1500.0' y1='375.0' x2='1500.0' y2='355.0' style="stroke-width:4.0;stroke:rgb(0,0,0);stroke-linecap:round;fill:none;" />
<text x="1506.5" y="345.0" font-size="18.2px" font-family="CMUBright-Roman" style="text-anchor:start;fill:rgb(0,0,0);" transform="rotate(270.0,1506.5,345.0)" >0</text>
<line x1='1573.3' y1='377.4' x2='1574.6' y2='357.4' style="stroke-width:4.0;stroke:rgb(0,0,0);stroke-linecap:round;fill:none;" />
<text x="1581.7" y="347.9" font-size="18.2px" font-family="CMUBright-Roman" style="text-anchor:start;fill:rgb(0,0,0);" transform="rotate(273.7,1581.7,347.9)" >50</text>
<line x1='1646.3' y1='384.6' x2='1648.9' y2='364.7' style="stroke-width:4.0;stroke:rgb(0,0,0);stroke-linecap:round;fill:none;" />
<text x="1656.6" y="355.7" font-size="18.2px" font-family="CMUBright-Roman" style="text-anchor:start;fill:rgb(0,0,0);" transform="rotate(277.5,1656.6,355.7)" >100</text>
<line x1='1718.7' y1='396.5' x2='1722.5' y2='376.8' style="stroke-width:4.0;stroke:rgb(0,0,0);stroke-linecap:round;fill:none;" />
<text x="1730.9" y="368.3" font-size="18.2px" font-family="CMUBright-Roman" style="text-anchor:start;fill:rgb(0,0,0);" transform="rotate(281.2,1730.9,368.3)" >150</text>
<line x1='1790.1' y1='413.0' x2='1795.3' y2='393.7' style="stroke-width:4.0;stroke:rgb(0,0,0);stroke-linecap:round;fill:none;" />
<text x="1804.1" y="385.8" font-size="18.2px" font-family="CMUBright-Roman" style="text-anchor:start;fill:rgb(0,0,0);" transform="rotate(284.9,1804.1,385.8)" >200</text>
<g id="highlighttrack_0">
<path d="M1534.307,425.548 A1075.000,1075.000 40.000 0,1 1543.960,425.899 L1546.004,375.941 A1125.000,1125.000 0.000 0,0 1535.903,375.573 Z" style="stroke-width:4.0;stroke:rgb(0,0,0);stroke-linecap:round;fill:rgb(116,196,118);" />
</g>
<path d="M1880.541,494.608 A1075.000,1075.000 40.000 0,1 1912.984,507.493 L1932.192,461.330 A1125.000,1125.000 0.000 0,0 1898.241,447.846 Z" style="stroke-linecap:round;fill:rgb(116,196,118);fill-opacity:0.33;" />
<text x="1957.3" y="374.3" font-size="18.2px" font-family="CMUBright-Roman" style="text-anchor:start;fill:rgb(0,0,0);" transform="rotate(291.7,1957.3,374.3)" >R<tspan baseline-shift="-40%" font-size="90%">s</tspan>caffold<tspan baseline-shift="-40%" font-size="90%">2</tspan>1</text>
<line x1='1898.2' y1='447.8' x2='1905.3' y2='429.1' style="stroke-width:4.0;stroke:rgb(0,0,0);stroke-linecap:round;fill:none;" />
<text x="1914.9" y="422.1" font-size="18.2px" font-family="CMUBright-Roman" style="text-anchor:start;fill:rgb(0,0,0);" transform="rotate(290.7,1914.9,422.1)" >0</text>
<g id="highlighttrack_0">
<path d="M1904.522,504.015 A1075.000,1075.000 40.000 0,1 1912.351,507.230 L1931.530,461.055 A1125.000,1125.000 0.000 0,0 1923.337,457.690 Z" style="stroke-width:4.0;stroke:rgb(0,0,0);stroke-linecap:round;fill:rgb(116,196,118);" />
</g>
<path d="M1971.600,533.968 A1075.000,1075.000 40.000 0,1 1980.297,538.262 L2002.637,493.530 A1125.000,1125.000 0.000 0,0 1993.535,489.036 Z" style="stroke-linecap:round;fill:rgb(116,196,118);fill-opacity:0.33;" />
<text x="2046.4" y="414.8" font-size="18.2px" font-family="CMUBright-Roman" style="text-anchor:start;fill:rgb(0,0,0);" transform="rotate(296.3,2046.4,414.8)" >R<tspan baseline-shift="-40%" font-size="90%">s</tspan>caffold<tspan baseline-shift="-40%" font-size="90%">2</tspan>8</text>
<line x1='1993.5' y1='489.0' x2='2002.3' y2='471.1' style="stroke-width:4.0;stroke:rgb(0,0,0);stroke-linecap:round;fill:none;" />
<text x="2012.5" y="464.9" font-size="18.2px" font-family="CMUBright-Roman" style="text-anchor:start;fill:rgb(0,0,0);" transform="rotate(296.0,2012.5,464.9)" >0</text>
<g id="highlighttrack_0">
<path d="M1971.608,533.972 A1075.000,1075.000 40.000 0,1 1980.297,538.262 L2002.637,493.530 A1125.000,1125.000 0.000 0,0 1993.543,489.040 Z" style="stroke-width:4.0;stroke:rgb(0,0,0);stroke-linecap:round;fill:rgb(116,196,118);" />
</g>
<path d="M2036.953,568.707 A1075.000,1075.000 40.000 0,1 2041.716,571.469 L2066.912,528.282 A1125.000,1125.000 0.000 0,0 2061.928,525.391 Z" style="stroke-linecap:round;fill:rgb(116,196,118);fill-opacity:0.33;" />
<text x="2117.8" y="453.8" font-size="18.2px" font-family="CMUBright-Roman" style="text-anchor:start;fill:rgb(0,0,0);" transform="rotate(300.1,2117.8,453.8)" >R<tspan baseline-shift="-40%" font-size="90%">s</tspan>caffold<tspan baseline-shift="-40%" font-size="90%">3</tspan>0</text>
<line x1='2061.9' y1='525.4' x2='2071.9' y2='508.1' style="stroke-width:4.0;stroke:rgb(0,0,0);stroke-linecap:round;fill:none;" />
<text x="2082.5" y="502.7" font-size="18.2px" font-family="CMUBright-Roman" style="text-anchor:start;fill:rgb(0,0,0);" transform="rotate(300.0,2082.5,502.7)" >0</text>
<g id="highlighttrack_0">
<path d="M2037.013,568.742 A1075.000,1075.000 40.000 0,1 2041.042,571.077 L2066.207,527.871 A1125.000,1125.000 0.000 0,0 2061.990,525.427 Z" style="stroke-width:4.0;stroke:rgb(0,0,0);stroke-linecap:round;fill:rgb(116,196,118);" />
</g>
<path d="M2096.276,605.528 A1075.000,1075.000 40.000 1,1 1435.711,426.924 L1432.720,377.014 A1125.000,1125.000 0.000 1,0 2124.010,563.925 Z" style="stroke-linecap:round;fill:rgb(116,196,118);fill-opacity:0.33;" />
<text x="1192.1" y="2675.3" font-size="18.2px" font-family="CMUBright-Roman" style="text-anchor:end;fill:rgb(0,0,0);" transform="rotate(-74.9,1192.1,2675.3)" >NZ<tspan baseline-shift="-40%" font-size="90%">C</tspan>P022272.1</text>
<line x1='2124.0' y1='563.9' x2='2135.1' y2='547.3' style="stroke-width:4.0;stroke:rgb(0,0,0);stroke-linecap:round;fill:none;" />
<text x="2146.0" y="542.6" font-size="18.2px" font-family="CMUBright-Roman" style="text-anchor:start;fill:rgb(0,0,0);" transform="rotate(303.7,2146.0,542.6)" >0</text>
<line x1='2183.7' y1='606.6' x2='2195.8' y2='590.7' style="stroke-width:4.0;stroke:rgb(0,0,0);stroke-linecap:round;fill:none;" />
<text x="2207.1" y="586.7" font-size="18.2px" font-family="CMUBright-Roman" style="text-anchor:start;fill:rgb(0,0,0);" transform="rotate(307.4,2207.1,586.7)" >50</text>
<line x1='2240.4' y1='653.0' x2='2253.6' y2='638.0' style="stroke-width:4.0;stroke:rgb(0,0,0);stroke-linecap:round;fill:none;" />
<text x="2265.1" y="634.7" font-size="18.2px" font-family="CMUBright-Roman" style="text-anchor:start;fill:rgb(0,0,0);" transform="rotate(311.2,2265.1,634.7)" >100</text>
<line x1='2294.0' y1='703.1' x2='2308.2' y2='688.9' style="stroke-width:4.0;stroke:rgb(0,0,0);stroke-linecap:round;fill:none;" />
<text x="2319.8" y="686.4" font-size="18.2px" font-family="CMUBright-Roman" style="text-anchor:start;fill:rgb(0,0,0);" transform="rotate(314.9,2319.8,686.4)" >150</text>
<line x1='2344.3' y1='756.5' x2='2359.3' y2='743.3' style="stroke-width:4.0;stroke:rgb(0,0,0);stroke-linecap:round;fill:none;" />
<text x="2371.1" y="741.6" font-size="18.2px" font-family="CMUBright-Roman" style="text-anchor:start;fill:rgb(0,0,0);" transform="rotate(318.6,2371.1,741.6)" >200</text>
<line x1='2390.9' y1='813.1' x2='2406.8' y2='800.9' style="stroke-width:4.0;stroke:rgb(0,0,0);stroke-linecap:round;fill:none;" />
<text x="2418.6" y="799.9" font-size="18.2px" font-family="CMUBright-Roman" style="text-anchor:start;fill:rgb(0,0,0);" transform="rotate(322.4,2418.6,799.9)" >250</text>
<line x1='2433.8' y1='872.6' x2='2450.4' y2='861.4' style="stroke-width:4.0;stroke:rgb(0,0,0);stroke-linecap:round;fill:none;" />
<text x="2462.3" y="861.3" font-size="18.2px" font-family="CMUBright-Roman" style="text-anchor:start;fill:rgb(0,0,0);" transform="rotate(326.1,2462.3,861.3)" >300</text>
<line x1='2472.7' y1='934.8' x2='2490.0' y2='924.7' style="stroke-width:4.0;stroke:rgb(0,0,0);stroke-linecap:round;fill:none;" />
<text x="2501.9" y="925.3" font-size="18.2px" font-family="CMUBright-Roman" style="text-anchor:start;fill:rgb(0,0,0);" transform="rotate(329.8,2501.9,925.3)" >350</text>
<line x1='2507.5' y1='999.3' x2='2525.4' y2='990.4' style="stroke-width:4.0;stroke:rgb(0,0,0);stroke-linecap:round;fill:none;" />
<text x="2537.2" y="991.8" font-size="18.2px" font-family="CMUBright-Roman" style="text-anchor:start;fill:rgb(0,0,0);" transform="rotate(333.6,2537.2,991.8)" >400</text>
<line x1='2537.9' y1='1066.0' x2='2556.4' y2='1058.3' style="stroke-width:4.0;stroke:rgb(0,0,0);stroke-linecap:round;fill:none;" />
<text x="2568.1" y="1060.5" font-size="18.2px" font-family="CMUBright-Roman" style="text-anchor:start;fill:rgb(0,0,0);" transform="rotate(337.3,2568.1,1060.5)" >450</text>
<line x1='2564.0' y1='1134.6' x2='2582.9' y2='1128.1' style="stroke-width:4.0;stroke:rgb(0,0,0);stroke-linecap:round;fill:none;" />
<text x="2594.5" y="1131.0" font-size="18.2px" font-family="CMUBright-Roman" style="text-anchor:start;fill:rgb(0,0,0);" transform="rotate(341.0,2594.5,1131.0)" >500</text>
<line x1='2585.6' y1='1204.7' x2='2604.9' y2='1199.5' style="stroke-width:4.0;stroke:rgb(0,0,0);stroke-linecap:round;fill:none;" />
<text x="2616.2" y="1203.1" font-size="18.2px" font-family="CMUBright-Roman" style="text-anchor:start;fill:rgb(0,0,0);" transform="rotate(344.8,2616.2,1203.1)" >550</text>
<line x1='2602.5' y1='1276.1' x2='2622.1' y2='1272.1' style="stroke-width:4.0;stroke:rgb(0,0,0);stroke-linecap:round;fill:none;" />
<text x="2633.2" y="1276.5" font-size="18.2px" font-family="CMUBright-Roman" style="text-anchor:start;fill:rgb(0,0,0);" transform="rotate(348.5,2633.2,1276.5)" >600</text>
<line x1='2614.7' y1='1348.4' x2='2634.6' y2='1345.7' style="stroke-width:4.0;stroke:rgb(0,0,0);stroke-linecap:round;fill:none;" />
<text x="2645.3" y="1350.8" font-size="18.2px" font-family="CMUBright-Roman" style="text-anchor:start;fill:rgb(0,0,0);" transform="rotate(352.3,2645.3,1350.8)" >650</text>
<line x1='2622.2' y1='1421.3' x2='2642.2' y2='1419.9' style="stroke-width:4.0;stroke:rgb(0,0,0);stroke-linecap:round;fill:none;" />
<text x="2652.6" y="1425.7" font-size="18.2px" font-family="CMUBright-Roman" style="text-anchor:start;fill:rgb(0,0,0);" transform="rotate(356.0,2652.6,1425.7)" >700</text>
<line x1='2625.0' y1='1494.6' x2='2645.0' y2='1494.5' style="stroke-width:4.0;stroke:rgb(0,0,0);stroke-linecap:round;fill:none;" />
<text x="2655.0" y="1501.0" font-size="18.2px" font-family="CMUBright-Roman" style="text-anchor:start;fill:rgb(0,0,0);" transform="rotate(359.7,2655.0,1501.0)" >750</text>
<line x1='2622.9' y1='1567.9' x2='2642.9' y2='1569.1' style="stroke-width:4.0;stroke:rgb(0,0,0);stroke-linecap:round;fill:none;" />
<text x="2652.5" y="1576.2" font-size="18.2px" font-family="CMUBright-Roman" style="text-anchor:start;fill:rgb(0,0,0);" transform="rotate(3.5,2652.5,1576.2)" >800</text>
<line x1='2616.1' y1='1640.9' x2='2636.0' y2='1643.5' style="stroke-width:4.0;stroke:rgb(0,0,0);stroke-linecap:round;fill:none;" />
<text x="2645.1" y="1651.2" font-size="18.2px" font-family="CMUBright-Roman" style="text-anchor:start;fill:rgb(0,0,0);" transform="rotate(7.2,2645.1,1651.2)" >850</text>
<line x1='2604.6' y1='1713.4' x2='2624.2' y2='1717.2' style="stroke-width:4.0;stroke:rgb(0,0,0);stroke-linecap:round;fill:none;" />
<text x="2632.8" y="1725.4" font-size="18.2px" font-family="CMUBright-Roman" style="text-anchor:start;fill:rgb(0,0,0);" transform="rotate(10.9,2632.8,1725.4)" >900</text>
<line x1='2588.3' y1='1784.9' x2='2607.7' y2='1790.0' style="stroke-width:4.0;stroke:rgb(0,0,0);stroke-linecap:round;fill:none;" />
<text x="2615.7" y="1798.8" font-size="18.2px" font-family="CMUBright-Roman" style="text-anchor:start;fill:rgb(0,0,0);" transform="rotate(14.7,2615.7,1798.8)" >950</text>
<line x1='2567.5' y1='1855.2' x2='2586.4' y2='1861.5' style="stroke-width:4.0;stroke:rgb(0,0,0);stroke-linecap:round;fill:none;" />
<text x="2593.9" y="1870.8" font-size="18.2px" font-family="CMUBright-Roman" style="text-anchor:start;fill:rgb(0,0,0);" transform="rotate(18.4,2593.9,1870.8)" >1000</text>
<line x1='2542.0' y1='1924.0' x2='2560.6' y2='1931.5' style="stroke-width:4.0;stroke:rgb(0,0,0);stroke-linecap:round;fill:none;" />
<text x="2567.4" y="1941.3" font-size="18.2px" font-family="CMUBright-Roman" style="text-anchor:start;fill:rgb(0,0,0);" transform="rotate(22.1,2567.4,1941.3)" >1050</text>
<line x1='2512.2' y1='1991.0' x2='2530.2' y2='1999.7' style="stroke-width:4.0;stroke:rgb(0,0,0);stroke-linecap:round;fill:none;" />
<text x="2536.3" y="2009.9" font-size="18.2px" font-family="CMUBright-Roman" style="text-anchor:start;fill:rgb(0,0,0);" transform="rotate(25.9,2536.3,2009.9)" >1100</text>
<line x1='2478.1' y1='2055.9' x2='2495.5' y2='2065.8' style="stroke-width:4.0;stroke:rgb(0,0,0);stroke-linecap:round;fill:none;" />
<text x="2500.9" y="2076.4" font-size="18.2px" font-family="CMUBright-Roman" style="text-anchor:start;fill:rgb(0,0,0);" transform="rotate(29.6,2500.9,2076.4)" >1150</text>
<line x1='2439.8' y1='2118.4' x2='2456.5' y2='2129.4' style="stroke-width:4.0;stroke:rgb(0,0,0);stroke-linecap:round;fill:none;" />
<text x="2461.2" y="2140.3" font-size="18.2px" font-family="CMUBright-Roman" style="text-anchor:start;fill:rgb(0,0,0);" transform="rotate(33.3,2461.2,2140.3)" >1200</text>
<line x1='2397.5' y1='2178.4' x2='2413.4' y2='2190.4' style="stroke-width:4.0;stroke:rgb(0,0,0);stroke-linecap:round;fill:none;" />
<text x="2417.5" y="2201.6" font-size="18.2px" font-family="CMUBright-Roman" style="text-anchor:start;fill:rgb(0,0,0);" transform="rotate(37.1,2417.5,2201.6)" >1250</text>
<line x1='2351.4' y1='2235.4' x2='2366.5' y2='2248.5' style="stroke-width:4.0;stroke:rgb(0,0,0);stroke-linecap:round;fill:none;" />
<text x="2369.8" y="2259.9" font-size="18.2px" font-family="CMUBright-Roman" style="text-anchor:start;fill:rgb(0,0,0);" transform="rotate(40.8,2369.8,2259.9)" >1300</text>
<line x1='2301.6' y1='2289.3' x2='2315.9' y2='2303.3' style="stroke-width:4.0;stroke:rgb(0,0,0);stroke-linecap:round;fill:none;" />
<text x="2318.4" y="2315.0" font-size="18.2px" font-family="CMUBright-Roman" style="text-anchor:start;fill:rgb(0,0,0);" transform="rotate(44.6,2318.4,2315.0)" >1350</text>
<line x1='2248.5' y1='2339.9' x2='2261.8' y2='2354.8' style="stroke-width:4.0;stroke:rgb(0,0,0);stroke-linecap:round;fill:none;" />
<text x="2263.6" y="2366.6" font-size="18.2px" font-family="CMUBright-Roman" style="text-anchor:start;fill:rgb(0,0,0);" transform="rotate(48.3,2263.6,2366.6)" >1400</text>
<line x1='2192.2' y1='2386.8' x2='2204.5' y2='2402.6' style="stroke-width:4.0;stroke:rgb(0,0,0);stroke-linecap:round;fill:none;" />
<text x="2205.5" y="2414.5" font-size="18.2px" font-family="CMUBright-Roman" style="text-anchor:start;fill:rgb(0,0,0);" transform="rotate(52.0,2205.5,2414.5)" >1450</text>
<line x1='2132.9' y1='2430.1' x2='2144.2' y2='2446.6' style="stroke-width:4.0;stroke:rgb(0,0,0);stroke-linecap:round;fill:none;" />
<text x="2144.4" y="2458.5" font-size="18.2px" font-family="CMUBright-Roman" style="text-anchor:start;fill:rgb(0,0,0);" transform="rotate(55.8,2144.4,2458.5)" >1500</text>
<line x1='2071.0' y1='2469.3' x2='2081.2' y2='2486.6' style="stroke-width:4.0;stroke:rgb(0,0,0);stroke-linecap:round;fill:none;" />
<text x="2080.6" y="2498.5" font-size="18.2px" font-family="CMUBright-Roman" style="text-anchor:start;fill:rgb(0,0,0);" transform="rotate(59.5,2080.6,2498.5)" >1550</text>
<line x1='2006.6' y1='2504.5' x2='2015.6' y2='2522.3' style="stroke-width:4.0;stroke:rgb(0,0,0);stroke-linecap:round;fill:none;" />
<text x="2014.3" y="2534.2" font-size="18.2px" font-family="CMUBright-Roman" style="text-anchor:start;fill:rgb(0,0,0);" transform="rotate(63.2,2014.3,2534.2)" >1600</text>
<line x1='1940.1' y1='2535.3' x2='1947.9' y2='2553.7' style="stroke-width:4.0;stroke:rgb(0,0,0);stroke-linecap:round;fill:none;" />
<text x="1945.9" y="2565.5" font-size="18.2px" font-family="CMUBright-Roman" style="text-anchor:start;fill:rgb(0,0,0);" transform="rotate(67.0,1945.9,2565.5)" >1650</text>
<line x1='1871.7' y1='2561.8' x2='1878.3' y2='2580.7' style="stroke-width:4.0;stroke:rgb(0,0,0);stroke-linecap:round;fill:none;" />
<text x="1875.5" y="2592.3" font-size="18.2px" font-family="CMUBright-Roman" style="text-anchor:start;fill:rgb(0,0,0);" transform="rotate(70.7,1875.5,2592.3)" >1700</text>
<line x1='1801.7' y1='2583.8' x2='1807.1' y2='2603.0' style="stroke-width:4.0;stroke:rgb(0,0,0);stroke-linecap:round;fill:none;" />
<text x="1803.5" y="2614.4" font-size="18.2px" font-family="CMUBright-Roman" style="text-anchor:start;fill:rgb(0,0,0);" transform="rotate(74.4,1803.5,2614.4)" >1750</text>
<line x1='1730.5' y1='2601.1' x2='1734.6' y2='2620.7' style="stroke-width:4.0;stroke:rgb(0,0,0);stroke-linecap:round;fill:none;" />
<text x="1730.3" y="2631.8" font-size="18.2px" font-family="CMUBright-Roman" style="text-anchor:start;fill:rgb(0,0,0);" transform="rotate(78.2,1730.3,2631.8)" >1800</text>
<line x1='1658.2' y1='2613.8' x2='1661.1' y2='2633.6' style="stroke-width:4.0;stroke:rgb(0,0,0);stroke-linecap:round;fill:none;" />
<text x="1656.0" y="2644.4" font-size="18.2px" font-family="CMUBright-Roman" style="text-anchor:start;fill:rgb(0,0,0);" transform="rotate(81.9,1656.0,2644.4)" >1850</text>
<line x1='1585.3' y1='2621.8' x2='1586.9' y2='2641.7' style="stroke-width:4.0;stroke:rgb(0,0,0);stroke-linecap:round;fill:none;" />
<text x="1581.1" y="2652.1" font-size="18.2px" font-family="CMUBright-Roman" style="text-anchor:start;fill:rgb(0,0,0);" transform="rotate(85.6,1581.1,2652.1)" >1900</text>
<line x1='1512.1' y1='2624.9' x2='1512.3' y2='2644.9' style="stroke-width:4.0;stroke:rgb(0,0,0);stroke-linecap:round;fill:none;" />
<text x="1505.9" y="2655.0" font-size="18.2px" font-family="CMUBright-Roman" style="text-anchor:start;fill:rgb(0,0,0);" transform="rotate(89.4,1505.9,2655.0)" >1950</text>
<line x1='1438.7' y1='2623.3' x2='1437.7' y2='2643.3' style="stroke-width:4.0;stroke:rgb(0,0,0);stroke-linecap:round;fill:none;" />
<text x="1443.6" y="2653.6" font-size="18.2px" font-family="CMUBright-Roman" style="text-anchor:end;fill:rgb(0,0,0);" transform="rotate(-86.9,1443.6,2653.6)" >2000</text>
<line x1='1365.7' y1='2617.0' x2='1363.3' y2='2636.8' style="stroke-width:4.0;stroke:rgb(0,0,0);stroke-linecap:round;fill:none;" />
<text x="1368.6" y="2647.5" font-size="18.2px" font-family="CMUBright-Roman" style="text-anchor:end;fill:rgb(0,0,0);" transform="rotate(-83.1,1368.6,2647.5)" >2050</text>
<line x1='1293.2' y1='2605.8' x2='1289.5' y2='2625.5' style="stroke-width:4.0;stroke:rgb(0,0,0);stroke-linecap:round;fill:none;" />
<text x="1294.1" y="2636.5" font-size="18.2px" font-family="CMUBright-Roman" style="text-anchor:end;fill:rgb(0,0,0);" transform="rotate(-79.4,1294.1,2636.5)" >2100</text>
<line x1='1221.6' y1='2590.0' x2='1216.6' y2='2609.4' style="stroke-width:4.0;stroke:rgb(0,0,0);stroke-linecap:round;fill:none;" />
<text x="1220.5" y="2620.7" font-size="18.2px" font-family="CMUBright-Roman" style="text-anchor:end;fill:rgb(0,0,0);" transform="rotate(-75.7,1220.5,2620.7)" >2150</text>
<line x1='1151.2' y1='2569.5' x2='1145.0' y2='2588.6' style="stroke-width:4.0;stroke:rgb(0,0,0);stroke-linecap:round;fill:none;" />
<text x="1148.0" y="2600.1" font-size="18.2px" font-family="CMUBright-Roman" style="text-anchor:end;fill:rgb(0,0,0);" transform="rotate(-71.9,1148.0,2600.1)" >2200</text>
<line x1='1082.2' y1='2544.5' x2='1074.8' y2='2563.1' style="stroke-width:4.0;stroke:rgb(0,0,0);stroke-linecap:round;fill:none;" />
<text x="1077.1" y="2574.8" font-size="18.2px" font-family="CMUBright-Roman" style="text-anchor:end;fill:rgb(0,0,0);" transform="rotate(-68.2,1077.1,2574.8)" >2250</text>
<line x1='1015.0' y1='2515.1' x2='1006.4' y2='2533.2' style="stroke-width:4.0;stroke:rgb(0,0,0);stroke-linecap:round;fill:none;" />
<text x="1008.0" y="2545.0" font-size="18.2px" font-family="CMUBright-Roman" style="text-anchor:end;fill:rgb(0,0,0);" transform="rotate(-64.5,1008.0,2545.0)" >2300</text>
<line x1='949.9' y1='2481.3' x2='940.1' y2='2498.8' style="stroke-width:4.0;stroke:rgb(0,0,0);stroke-linecap:round;fill:none;" />
<text x="940.9" y="2510.7" font-size="18.2px" font-family="CMUBright-Roman" style="text-anchor:end;fill:rgb(0,0,0);" transform="rotate(-60.7,940.9,2510.7)" >2350</text>
<line x1='887.2' y1='2443.4' x2='876.3' y2='2460.2' style="stroke-width:4.0;stroke:rgb(0,0,0);stroke-linecap:round;fill:none;" />
<text x="876.3" y="2472.1" font-size="18.2px" font-family="CMUBright-Roman" style="text-anchor:end;fill:rgb(0,0,0);" transform="rotate(-57.0,876.3,2472.1)" >2400</text>
<line x1='827.0' y1='2401.5' x2='815.0' y2='2417.5' style="stroke-width:4.0;stroke:rgb(0,0,0);stroke-linecap:round;fill:none;" />
<text x="814.3" y="2429.4" font-size="18.2px" font-family="CMUBright-Roman" style="text-anchor:end;fill:rgb(0,0,0);" transform="rotate(-53.3,814.3,2429.4)" >2450</text>
<line x1='769.7' y1='2355.7' x2='756.7' y2='2370.9' style="stroke-width:4.0;stroke:rgb(0,0,0);stroke-linecap:round;fill:none;" />
<text x="755.2" y="2382.7" font-size="18.2px" font-family="CMUBright-Roman" style="text-anchor:end;fill:rgb(0,0,0);" transform="rotate(-49.5,755.2,2382.7)" >2500</text>
<line x1='715.5' y1='2306.3' x2='701.5' y2='2320.7' style="stroke-width:4.0;stroke:rgb(0,0,0);stroke-linecap:round;fill:none;" />
<text x="699.2" y="2332.3" font-size="18.2px" font-family="CMUBright-Roman" style="text-anchor:end;fill:rgb(0,0,0);" transform="rotate(-45.8,699.2,2332.3)" >2550</text>
<line x1='664.6' y1='2253.5' x2='649.8' y2='2266.9' style="stroke-width:4.0;stroke:rgb(0,0,0);stroke-linecap:round;fill:none;" />
<text x="646.7" y="2278.4" font-size="18.2px" font-family="CMUBright-Roman" style="text-anchor:end;fill:rgb(0,0,0);" transform="rotate(-42.0,646.7,2278.4)" >2600</text>
<line x1='617.3' y1='2197.5' x2='601.6' y2='2209.9' style="stroke-width:4.0;stroke:rgb(0,0,0);stroke-linecap:round;fill:none;" />
<text x="597.8" y="2221.1" font-size="18.2px" font-family="CMUBright-Roman" style="text-anchor:end;fill:rgb(0,0,0);" transform="rotate(-38.3,597.8,2221.1)" >2650</text>
<line x1='573.7' y1='2138.5' x2='557.3' y2='2149.8' style="stroke-width:4.0;stroke:rgb(0,0,0);stroke-linecap:round;fill:none;" />
<text x="552.7" y="2160.8" font-size="18.2px" font-family="CMUBright-Roman" style="text-anchor:end;fill:rgb(0,0,0);" transform="rotate(-34.6,552.7,2160.8)" >2700</text>
<line x1='534.1' y1='2076.8' x2='516.9' y2='2087.0' style="stroke-width:4.0;stroke:rgb(0,0,0);stroke-linecap:round;fill:none;" />
<text x="511.7" y="2097.7" font-size="18.2px" font-family="CMUBright-Roman" style="text-anchor:end;fill:rgb(0,0,0);" transform="rotate(-30.8,511.7,2097.7)" >2750</text>
<line x1='498.6' y1='2012.6' x2='480.8' y2='2021.7' style="stroke-width:4.0;stroke:rgb(0,0,0);stroke-linecap:round;fill:none;" />
<text x="474.8" y="2032.0" font-size="18.2px" font-family="CMUBright-Roman" style="text-anchor:end;fill:rgb(0,0,0);" transform="rotate(-27.1,474.8,2032.0)" >2800</text>
<line x1='467.3' y1='1946.3' x2='448.9' y2='1954.2' style="stroke-width:4.0;stroke:rgb(0,0,0);stroke-linecap:round;fill:none;" />
<text x="442.3" y="1964.1" font-size="18.2px" font-family="CMUBright-Roman" style="text-anchor:end;fill:rgb(0,0,0);" transform="rotate(-23.4,442.3,1964.1)" >2850</text>
<line x1='440.4' y1='1878.0' x2='421.6' y2='1884.7' style="stroke-width:4.0;stroke:rgb(0,0,0);stroke-linecap:round;fill:none;" />
<text x="414.4" y="1894.2" font-size="18.2px" font-family="CMUBright-Roman" style="text-anchor:end;fill:rgb(0,0,0);" transform="rotate(-19.6,414.4,1894.2)" >2900</text>
<line x1='418.0' y1='1808.2' x2='398.8' y2='1813.7' style="stroke-width:4.0;stroke:rgb(0,0,0);stroke-linecap:round;fill:none;" />
<text x="391.0" y="1822.6" font-size="18.2px" font-family="CMUBright-Roman" style="text-anchor:end;fill:rgb(0,0,0);" transform="rotate(-15.9,391.0,1822.6)" >2950</text>
<line x1='400.3' y1='1737.0' x2='380.7' y2='1741.2' style="stroke-width:4.0;stroke:rgb(0,0,0);stroke-linecap:round;fill:none;" />
<text x="372.3" y="1749.7" font-size="18.2px" font-family="CMUBright-Roman" style="text-anchor:end;fill:rgb(0,0,0);" transform="rotate(-12.2,372.3,1749.7)" >3000</text>
<line x1='387.1' y1='1664.9' x2='367.4' y2='1667.8' style="stroke-width:4.0;stroke:rgb(0,0,0);stroke-linecap:round;fill:none;" />
<text x="358.4" y="1675.7" font-size="18.2px" font-family="CMUBright-Roman" style="text-anchor:end;fill:rgb(0,0,0);" transform="rotate(-8.4,358.4,1675.7)" >3050</text>
<line x1='378.8' y1='1592.0' x2='358.8' y2='1593.6' style="stroke-width:4.0;stroke:rgb(0,0,0);stroke-linecap:round;fill:none;" />
<text x="349.4" y="1600.9" font-size="18.2px" font-family="CMUBright-Roman" style="text-anchor:end;fill:rgb(0,0,0);" transform="rotate(-4.7,349.4,1600.9)" >3100</text>
<line x1='375.2' y1='1518.8' x2='355.2' y2='1519.1' style="stroke-width:4.0;stroke:rgb(0,0,0);stroke-linecap:round;fill:none;" />
<text x="345.3" y="1525.8" font-size="18.2px" font-family="CMUBright-Roman" style="text-anchor:end;fill:rgb(0,0,0);" transform="rotate(-1.0,345.3,1525.8)" >3150</text>
<line x1='376.3' y1='1445.4' x2='356.3' y2='1444.5' style="stroke-width:4.0;stroke:rgb(0,0,0);stroke-linecap:round;fill:none;" />
<text x="346.1" y="1450.5" font-size="18.2px" font-family="CMUBright-Roman" style="text-anchor:end;fill:rgb(0,0,0);" transform="rotate(2.8,346.1,1450.5)" >3200</text>
<line x1='382.3' y1='1372.3' x2='362.4' y2='1370.1' style="stroke-width:4.0;stroke:rgb(0,0,0);stroke-linecap:round;fill:none;" />
<text x="351.7" y="1375.4" font-size="18.2px" font-family="CMUBright-Roman" style="text-anchor:end;fill:rgb(0,0,0);" transform="rotate(6.5,351.7,1375.4)" >3250</text>
<line x1='393.0' y1='1299.8' x2='373.3' y2='1296.2' style="stroke-width:4.0;stroke:rgb(0,0,0);stroke-linecap:round;fill:none;" />
<text x="362.3" y="1300.8" font-size="18.2px" font-family="CMUBright-Roman" style="text-anchor:end;fill:rgb(0,0,0);" transform="rotate(10.3,362.3,1300.8)" >3300</text>
<line x1='408.4' y1='1228.1' x2='389.0' y2='1223.2' style="stroke-width:4.0;stroke:rgb(0,0,0);stroke-linecap:round;fill:none;" />
<text x="377.7" y="1227.1" font-size="18.2px" font-family="CMUBright-Roman" style="text-anchor:end;fill:rgb(0,0,0);" transform="rotate(14.0,377.7,1227.1)" >3350</text>
<line x1='428.4' y1='1157.5' x2='409.3' y2='1151.4' style="stroke-width:4.0;stroke:rgb(0,0,0);stroke-linecap:round;fill:none;" />
<text x="397.9" y="1154.6" font-size="18.2px" font-family="CMUBright-Roman" style="text-anchor:end;fill:rgb(0,0,0);" transform="rotate(17.7,397.9,1154.6)" >3400</text>
<line x1='453.0' y1='1088.4' x2='434.4' y2='1081.1' style="stroke-width:4.0;stroke:rgb(0,0,0);stroke-linecap:round;fill:none;" />
<text x="422.7" y="1083.5" font-size="18.2px" font-family="CMUBright-Roman" style="text-anchor:end;fill:rgb(0,0,0);" transform="rotate(21.5,422.7,1083.5)" >3450</text>
<line x1='482.0' y1='1021.1' x2='463.9' y2='1012.6' style="stroke-width:4.0;stroke:rgb(0,0,0);stroke-linecap:round;fill:none;" />
<text x="452.1" y="1014.2" font-size="18.2px" font-family="CMUBright-Roman" style="text-anchor:end;fill:rgb(0,0,0);" transform="rotate(25.2,452.1,1014.2)" >3500</text>
<line x1='515.4' y1='955.8' x2='497.9' y2='946.1' style="stroke-width:4.0;stroke:rgb(0,0,0);stroke-linecap:round;fill:none;" />
<text x="486.0" y="947.0" font-size="18.2px" font-family="CMUBright-Roman" style="text-anchor:end;fill:rgb(0,0,0);" transform="rotate(28.9,486.0,947.0)" >3550</text>
<line x1='553.0' y1='892.8' x2='536.1' y2='882.0' style="stroke-width:4.0;stroke:rgb(0,0,0);stroke-linecap:round;fill:none;" />
<text x="524.2" y="882.1" font-size="18.2px" font-family="CMUBright-Roman" style="text-anchor:end;fill:rgb(0,0,0);" transform="rotate(32.7,524.2,882.1)" >3600</text>
<line x1='594.5' y1='832.4' x2='578.4' y2='820.5' style="stroke-width:4.0;stroke:rgb(0,0,0);stroke-linecap:round;fill:none;" />
<text x="566.5" y="819.8" font-size="18.2px" font-family="CMUBright-Roman" style="text-anchor:end;fill:rgb(0,0,0);" transform="rotate(36.4,566.5,819.8)" >3650</text>
<line x1='640.0' y1='774.8' x2='624.7' y2='761.9' style="stroke-width:4.0;stroke:rgb(0,0,0);stroke-linecap:round;fill:none;" />
<text x="612.8" y="760.4" font-size="18.2px" font-family="CMUBright-Roman" style="text-anchor:end;fill:rgb(0,0,0);" transform="rotate(40.1,612.8,760.4)" >3700</text>
<line x1='689.0' y1='720.3' x2='674.6' y2='706.4' style="stroke-width:4.0;stroke:rgb(0,0,0);stroke-linecap:round;fill:none;" />
<text x="662.9" y="704.2" font-size="18.2px" font-family="CMUBright-Roman" style="text-anchor:end;fill:rgb(0,0,0);" transform="rotate(43.9,662.9,704.2)" >3750</text>
<line x1='741.6' y1='669.1' x2='728.1' y2='654.3' style="stroke-width:4.0;stroke:rgb(0,0,0);stroke-linecap:round;fill:none;" />
<text x="716.5" y="651.3" font-size="18.2px" font-family="CMUBright-Roman" style="text-anchor:end;fill:rgb(0,0,0);" transform="rotate(47.6,716.5,651.3)" >3800</text>
<line x1='797.3' y1='621.4' x2='784.8' y2='605.8' style="stroke-width:4.0;stroke:rgb(0,0,0);stroke-linecap:round;fill:none;" />
<text x="773.5" y="602.1" font-size="18.2px" font-family="CMUBright-Roman" style="text-anchor:end;fill:rgb(0,0,0);" transform="rotate(51.3,773.5,602.1)" >3850</text>
<line x1='856.0' y1='577.5' x2='844.6' y2='561.1' style="stroke-width:4.0;stroke:rgb(0,0,0);stroke-linecap:round;fill:none;" />
<text x="833.6" y="556.7" font-size="18.2px" font-family="CMUBright-Roman" style="text-anchor:end;fill:rgb(0,0,0);" transform="rotate(55.1,833.6,556.7)" >3900</text>
<line x1='917.5' y1='537.5' x2='907.2' y2='520.4' style="stroke-width:4.0;stroke:rgb(0,0,0);stroke-linecap:round;fill:none;" />
<text x="896.4" y="515.2" font-size="18.2px" font-family="CMUBright-Roman" style="text-anchor:end;fill:rgb(0,0,0);" transform="rotate(58.8,896.4,515.2)" >3950</text>
<line x1='981.5' y1='501.6' x2='972.3' y2='483.9' style="stroke-width:4.0;stroke:rgb(0,0,0);stroke-linecap:round;fill:none;" />
<text x="961.9" y="478.0" font-size="18.2px" font-family="CMUBright-Roman" style="text-anchor:end;fill:rgb(0,0,0);" transform="rotate(62.6,961.9,478.0)" >4000</text>
<line x1='1047.6' y1='470.0' x2='1039.6' y2='451.7' style="stroke-width:4.0;stroke:rgb(0,0,0);stroke-linecap:round;fill:none;" />
<text x="1029.6" y="445.1" font-size="18.2px" font-family="CMUBright-Roman" style="text-anchor:end;fill:rgb(0,0,0);" transform="rotate(66.3,1029.6,445.1)" >4050</text>
<line x1='1115.7' y1='442.7' x2='1108.9' y2='423.9' style="stroke-width:4.0;stroke:rgb(0,0,0);stroke-linecap:round;fill:none;" />
<text x="1099.3" y="416.7" font-size="18.2px" font-family="CMUBright-Roman" style="text-anchor:end;fill:rgb(0,0,0);" transform="rotate(70.0,1099.3,416.7)" >4100</text>
<line x1='1185.4' y1='419.9' x2='1179.8' y2='400.7' style="stroke-width:4.0;stroke:rgb(0,0,0);stroke-linecap:round;fill:none;" />
<text x="1170.8" y="392.9" font-size="18.2px" font-family="CMUBright-Roman" style="text-anchor:end;fill:rgb(0,0,0);" transform="rotate(73.8,1170.8,392.9)" >4150</text>
<line x1='1256.4' y1='401.7' x2='1252.1' y2='382.2' style="stroke-width:4.0;stroke:rgb(0,0,0);stroke-linecap:round;fill:none;" />
<text x="1243.6" y="373.8" font-size="18.2px" font-family="CMUBright-Roman" style="text-anchor:end;fill:rgb(0,0,0);" transform="rotate(77.5,1243.6,373.8)" >4200</text>
<line x1='1328.5' y1='388.1' x2='1325.5' y2='368.4' style="stroke-width:4.0;stroke:rgb(0,0,0);stroke-linecap:round;fill:none;" />
<text x="1317.5" y="359.5" font-size="18.2px" font-family="CMUBright-Roman" style="text-anchor:end;fill:rgb(0,0,0);" transform="rotate(81.2,1317.5,359.5)" >4250</text>
<line x1='1401.3' y1='379.3' x2='1399.6' y2='359.4' style="stroke-width:4.0;stroke:rgb(0,0,0);stroke-linecap:round;fill:none;" />
<text x="1392.2" y="350.0" font-size="18.2px" font-family="CMUBright-Roman" style="text-anchor:end;fill:rgb(0,0,0);" transform="rotate(85.0,1392.2,350.0)" >4300</text>
<g id="highlighttrack_0">
<path d="M2250.299,730.145 A1075.000,1075.000 40.000 0,1 2253.658,733.433 L2288.712,697.779 A1125.000,1125.000 0.000 0,0 2285.196,694.338 Z" style="stroke-width:4.0;stroke:rgb(0,0,0);stroke-linecap:round;fill:rgb(251,106,74);" />
<path d="M2300.816,782.840 A1075.000,1075.000 40.000 0,1 2303.773,786.156 L2341.158,752.954 A1125.000,1125.000 0.000 0,0 2338.064,749.484 Z" style="stroke-width:4.0;stroke:rgb(0,0,0);stroke-linecap:round;fill:rgb(251,106,74);" />
<path d="M2502.850,1887.190 A1075.000,1075.000 40.000 0,1 2501.241,1891.334 L2547.810,1909.535 A1125.000,1125.000 0.000 0,0 2549.494,1905.199 Z" style="stroke-width:4.0;stroke:rgb(0,0,0);stroke-linecap:round;fill:rgb(251,106,74);" />
<path d="M1810.881,2529.067 A1075.000,1075.000 40.000 0,1 1806.229,2530.460 L1820.472,2578.389 A1125.000,1125.000 0.000 0,0 1825.340,2576.930 Z" style="stroke-width:4.0;stroke:rgb(0,0,0);stroke-linecap:round;fill:rgb(251,106,74);" />
<path d="M819.040,668.183 A1075.000,1075.000 40.000 0,1 822.423,665.426 L790.907,626.609 A1125.000,1125.000 0.000 0,0 787.368,629.494 Z" style="stroke-width:4.0;stroke:rgb(0,0,0);stroke-linecap:round;fill:rgb(116,196,118);" />
<path d="M826.839,661.860 A1075.000,1075.000 40.000 0,1 830.384,659.025 L799.239,619.910 A1125.000,1125.000 0.000 0,0 795.529,622.877 Z" style="stroke-width:4.0;stroke:rgb(0,0,0);stroke-linecap:round;fill:rgb(116,196,118);" />
<path d="M1245.081,455.662 A1075.000,1075.000 40.000 0,1 1249.399,454.618 L1237.743,405.995 A1125.000,1125.000 0.000 0,0 1233.224,407.088 Z" style="stroke-width:4.0;stroke:rgb(0,0,0);stroke-linecap:round;fill:rgb(116,196,118);" />
<path d="M1354.102,434.947 A1075.000,1075.000 40.000 0,1 1358.442,434.361 L1351.858,384.797 A1125.000,1125.000 0.000 0,0 1347.316,385.409 Z" style="stroke-width:4.0;stroke:rgb(0,0,0);stroke-linecap:round;fill:rgb(116,196,118);" />
<path d="M2276.250,756.319 A1075.000,1075.000 40.000 0,1 2282.069,762.441 L2318.444,728.136 A1125.000,1125.000 0.000 0,0 2312.355,721.729 Z" style="stroke-width:4.0;stroke:rgb(0,0,0);stroke-linecap:round;fill:rgb(251,106,74);" />
</g>
</g>
<g id="track_0">
<path d="M 2242.796,737.844 A 1064.250,1064.250 0.00 0,1 2246.1,741.1 L 2246.1,741.1 2194.7,793.2 2146.9,841.1 2102.6,885.1 2061.7,925.3 2023.8,962.0 1989.0,995.2 1957.0,1025.2 1927.6,1052.1 1900.9,1076.1 1876.6,1097.2 1854.6,1115.5 1834.9,1131.2 1817.3,1144.4 1801.8,1155.1 1788.3,1163.4 1776.7,1169.3 1767.0,1172.9 1759.1,1174.2 1753.0,1173.2 1748.7,1169.9 1746.1,1164.3 1745.2,1156.3 1746.1,1146.0 1748.8,1133.2 1753.2,1118.0 1759.5,1100.2 1767.5,1079.8 1777.5,1056.6 1789.5,1030.6 1803.4,1001.6 1819.5,969.5 1837.7,934.1 1858.2,895.4 1881.1,853.0 1906.5,806.8 1934.5,756.7 1965.3,702.4 1998.9,643.7 2035.6,580.4  A 1064.250,1064.250 0.00 0,0 2031.6,578.1 L 2031.6,578.1 1995.2,641.6 1961.8,700.4 1931.3,754.8 1903.5,805.1 1878.3,851.3 1855.6,893.8 1835.2,932.7 1817.2,968.1 1801.2,1000.3 1787.4,1029.4 1775.6,1055.4 1765.7,1078.6 1757.7,1099.1 1751.6,1116.9 1747.2,1132.2 1744.6,1144.9 1743.7,1155.2 1744.6,1163.2 1747.2,1168.8 1751.6,1172.1 1757.7,1173.1 1765.6,1171.8 1775.3,1168.1 1786.8,1162.2 1800.3,1153.8 1815.8,1143.0 1833.3,1129.8 1853.0,1114.0 1874.8,1095.5 1899.0,1074.3 1925.7,1050.3 1954.9,1023.2 1986.8,993.1 2021.5,959.7 2059.1,922.9 2099.9,882.5 2144.0,838.3 2191.6,790.2 2242.8,737.8  Z" style="stroke-width: 2.0;  stroke: rgb(82,82,82); fill: rgb(251,106,74); opacity: 0.667;" />
<path d="M 2292.808,790.012 A 1064.250,1064.250 0.00 0,1 2295.7,793.3 L 2295.7,793.3 2240.9,841.8 2189.9,886.3 2142.6,927.0 2098.7,964.2 2058.2,998.0 2020.9,1028.6 1986.5,1056.0 1955.0,1080.6 1926.2,1102.3 1900.0,1121.3 1876.2,1137.7 1854.8,1151.5 1835.6,1163.0 1818.6,1172.1 1803.7,1178.8 1790.8,1183.3 1779.8,1185.6 1770.8,1185.6 1763.6,1183.5 1758.2,1179.1 1754.7,1172.5 1752.9,1163.6 1753.0,1152.4 1754.9,1138.9 1758.6,1122.9 1764.1,1104.4 1771.5,1083.4 1780.9,1059.6 1792.3,1033.1 1805.7,1003.6 1821.3,971.1 1839.1,935.4 1859.3,896.3 1881.9,853.6 1907.0,807.2 1934.8,756.9 1965.4,702.5 1999.0,643.7 2035.6,580.4  A 1064.250,1064.250 0.00 0,0 2031.6,578.1 L 2031.6,578.1 1995.2,641.6 1961.9,700.5 1931.6,755.1 1904.0,805.5 1879.1,852.0 1856.7,894.7 1836.7,933.9 1819.0,969.7 1803.6,1002.3 1790.3,1031.8 1779.0,1058.4 1769.7,1082.2 1762.4,1103.3 1756.9,1121.8 1753.3,1137.8 1751.5,1151.3 1751.5,1162.5 1753.3,1171.4 1756.9,1178.0 1762.2,1182.4 1769.4,1184.5 1778.5,1184.4 1789.4,1182.1 1802.3,1177.6 1817.2,1170.7 1834.2,1161.6 1853.3,1150.1 1874.7,1136.1 1898.4,1119.6 1924.5,1100.5 1953.3,1078.7 1984.7,1054.0 2018.9,1026.4 2056.2,995.7 2096.5,961.8 2140.2,924.4 2187.3,883.4 2238.1,838.7 2292.8,790.0  Z" style="stroke-width: 2.0;  stroke: rgb(82,82,82); fill: rgb(116,196,118); opacity: 0.667;" />
<path d="M 2292.808,790.012 A 1064.250,1064.250 0.00 0,1 2295.7,793.3 L 2295.7,793.3 2241.0,841.9 2190.3,886.7 2143.6,928.0 2100.5,965.8 2061.0,1000.5 2024.8,1032.0 1991.8,1060.7 1961.8,1086.5 1934.8,1109.7 1910.5,1130.4 1888.9,1148.5 1869.8,1164.4 1853.2,1177.9 1839.0,1189.2 1827.1,1198.4 1817.5,1205.4 1810.0,1210.4 1804.7,1213.4 1801.6,1214.3 1800.6,1213.3 1801.7,1210.2 1804.9,1205.0 1810.3,1197.9 1817.8,1188.6 1827.6,1177.2 1839.6,1163.5 1854.0,1147.6 1870.7,1129.4 1890.0,1108.8 1911.8,1085.6 1936.3,1059.7 1963.7,1031.1 1994.0,999.6 2027.3,965.1 2063.9,927.3 2103.9,886.3 2147.5,841.6 2194.8,793.3 2246.1,741.1  A 1064.250,1064.250 0.00 0,0 2242.8,737.8 L 2242.8,737.8 2191.7,790.3 2144.6,838.8 2101.2,883.6 2061.4,924.9 2025.0,962.8 1991.8,997.5 1961.6,1029.1 1934.4,1057.8 1910.0,1083.8 1888.3,1107.1 1869.1,1127.8 1852.4,1146.1 1838.1,1162.1 1826.2,1175.7 1816.5,1187.2 1809.0,1196.5 1803.6,1203.7 1800.4,1208.9 1799.4,1212.0 1800.4,1213.1 1803.5,1212.1 1808.8,1209.1 1816.2,1204.1 1825.9,1197.0 1837.7,1187.8 1851.9,1176.4 1868.4,1162.8 1887.4,1146.9 1909.0,1128.7 1933.2,1107.9 1960.1,1084.6 1990.0,1058.7 2022.8,1029.9 2058.9,998.1 2098.3,963.3 2141.2,925.3 2187.8,883.8 2238.2,838.8 2292.8,790.0  Z" style="stroke-width: 2.0;  stroke: rgb(82,82,82); fill: rgb(107,174,214); opacity: 0.667;" />
<path d="M 2492.822,1883.318 A 1064.250,1064.250 0.00 0,1 2491.2,1887.4 L 2491.2,1887.4 2423.1,1859.9 2360.0,1832.8 2301.9,1806.0 2248.2,1779.5 2198.8,1753.4 2153.4,1727.6 2111.7,1702.1 2073.5,1676.8 2038.5,1651.8 2006.6,1626.9 1977.5,1602.1 1951.2,1577.3 1927.3,1552.6 1905.9,1527.8 1886.7,1502.8 1869.6,1477.7 1854.5,1452.2 1841.4,1426.3 1830.2,1400.0 1820.8,1373.1 1813.2,1345.5 1807.4,1317.1 1803.4,1287.8 1801.1,1257.4 1800.7,1226.0 1802.1,1193.2 1805.4,1159.0 1810.6,1123.2 1818.0,1085.7 1827.5,1046.4 1839.3,1005.0 1853.5,961.5 1870.3,915.6 1889.9,867.1 1912.3,815.9 1937.9,761.9 1966.8,704.7 1999.3,644.3 2035.6,580.4  A 1064.250,1064.250 0.00 0,0 2031.6,578.1 L 2031.6,578.1 1995.6,642.1 1963.4,702.7 1934.7,760.0 1909.4,814.2 1887.1,865.4 1867.8,914.0 1851.2,959.9 1837.1,1003.6 1825.5,1045.0 1816.2,1084.4 1809.0,1121.9 1803.9,1157.7 1800.7,1191.9 1799.5,1224.7 1800.1,1256.2 1802.5,1286.5 1806.6,1315.8 1812.6,1344.1 1820.3,1371.7 1829.8,1398.6 1841.1,1424.9 1854.3,1450.7 1869.5,1476.1 1886.7,1501.2 1906.0,1526.1 1927.5,1550.8 1951.5,1575.4 1978.0,1600.1 2007.1,1624.7 2039.1,1649.5 2074.2,1674.4 2112.5,1699.6 2154.3,1724.9 2199.8,1750.5 2249.4,1776.4 2303.1,1802.7 2361.4,1829.2 2424.5,1856.1 2492.8,1883.3  Z" style="stroke-width: 2.0;  stroke: rgb(82,82,82); fill: rgb(253,141,60); opacity: 0.667;" />
<path d="M 2492.822,1883.318 A 1064.250,1064.250 0.00 0,1 2491.2,1887.4 L 2491.2,1887.4 2423.1,1860.1 2360.2,1833.3 2302.3,1807.2 2249.0,1781.7 2200.1,1756.7 2155.4,1732.3 2114.5,1708.2 2077.3,1684.6 2043.6,1661.4 2013.1,1638.4 1985.7,1615.7 1961.2,1593.2 1939.4,1570.8 1920.4,1548.5 1903.8,1526.2 1889.7,1503.7 1878.0,1481.1 1868.5,1458.3 1861.3,1435.1 1856.2,1411.5 1853.3,1387.4 1852.6,1362.6 1854.1,1337.2 1857.8,1311.0 1863.8,1283.8 1872.1,1255.6 1882.7,1226.3 1895.9,1195.8 1911.6,1163.9 1930.0,1130.5 1951.3,1095.4 1975.6,1058.7 2003.1,1020.0 2033.9,979.4 2068.3,936.6 2106.5,891.5 2148.7,844.0 2195.1,793.9 2246.1,741.1  A 1064.250,1064.250 0.00 0,0 2242.8,737.8 L 2242.8,737.8 2192.0,790.9 2145.8,841.2 2103.8,888.9 2065.9,934.1 2031.6,977.1 2001.0,1017.9 1973.7,1056.6 1949.6,1093.5 1928.4,1128.6 1910.1,1162.1 1894.5,1194.1 1881.5,1224.7 1871.0,1254.0 1862.8,1282.2 1857.0,1309.4 1853.4,1335.7 1852.0,1361.1 1852.8,1385.9 1855.8,1410.0 1861.0,1433.6 1868.3,1456.7 1877.9,1479.5 1889.7,1502.1 1903.9,1524.5 1920.6,1546.8 1939.7,1569.0 1961.5,1591.3 1986.1,1613.7 2013.6,1636.3 2044.2,1659.1 2078.1,1682.2 2115.4,1705.7 2156.3,1729.5 2201.2,1753.8 2250.2,1778.6 2303.6,1803.9 2361.6,1829.8 2424.6,1856.2 2492.8,1883.3  Z" style="stroke-width: 2.0;  stroke: rgb(82,82,82); fill: rgb(255,0,0); opacity: 0.667;" />
<path d="M 2492.822,1883.318 A 1064.250,1064.250 0.00 0,1 2491.2,1887.4 L 2491.2,1887.4 2423.1,1860.1 2360.3,1833.5 2302.4,1807.6 2249.2,1782.3 2200.4,1757.7 2155.8,1733.6 2115.1,1710.0 2078.1,1686.9 2044.7,1664.1 2014.5,1641.8 1987.4,1619.7 1963.4,1597.9 1942.2,1576.2 1923.7,1554.7 1907.7,1533.1 1894.3,1511.6 1883.3,1489.9 1874.7,1468.0 1868.4,1445.8 1864.4,1423.3 1862.6,1400.3 1863.1,1376.8 1865.9,1352.6 1871.0,1327.7 1878.5,1302.0 1888.4,1275.4 1900.8,1247.7 1915.8,1218.9 1933.6,1188.8 1954.1,1157.4 1977.7,1124.5 2004.3,1090.0 2034.3,1053.8 2067.9,1015.7 2105.1,975.7 2146.2,933.6 2191.5,889.2 2241.3,842.5 2295.7,793.3  A 1064.250,1064.250 0.00 0,0 2292.8,790.0 L 2292.8,790.0 2238.6,839.5 2189.0,886.4 2143.9,930.9 2102.9,973.2 2065.8,1013.4 2032.5,1051.6 2002.6,1087.9 1976.1,1122.5 1952.7,1155.5 1932.3,1187.0 1914.7,1217.2 1899.8,1246.0 1887.5,1273.8 1877.7,1300.4 1870.3,1326.2 1865.3,1351.1 1862.6,1375.3 1862.2,1398.8 1864.1,1421.8 1868.2,1444.3 1874.6,1466.4 1883.3,1488.3 1894.4,1509.9 1907.9,1531.4 1923.9,1552.9 1942.5,1574.4 1963.8,1596.0 1987.9,1617.7 2015.1,1639.7 2045.3,1661.9 2078.9,1684.5 2116.0,1707.4 2156.8,1730.9 2201.5,1754.8 2250.4,1779.2 2303.7,1804.3 2361.6,1829.9 2424.6,1856.3 2492.8,1883.3  Z" style="stroke-width: 2.0;  stroke: rgb(82,82,82); fill: rgb(255,0,204); opacity: 0.667;" />
<path d="M 1807.772,2518.776 A 1064.250,1064.250 0.00 0,1 1803.2,2520.2 L 1803.2,2520.2 1783.2,2448.9 1766.3,2381.0 1752.3,2316.1 1740.9,2254.2 1731.7,2194.9 1724.5,2138.2 1719.2,2083.7 1715.4,2031.5 1712.9,1981.2 1711.7,1932.7 1711.5,1885.8 1712.2,1840.3 1713.7,1796.1 1715.8,1753.0 1718.5,1710.9 1721.7,1669.5 1725.3,1628.7 1729.3,1588.3 1733.7,1548.3 1738.5,1508.3 1743.7,1468.3 1749.3,1428.2 1755.4,1387.7 1762.1,1346.7 1769.5,1305.1 1777.6,1262.7 1786.6,1219.5 1796.7,1175.1 1808.0,1129.6 1820.6,1082.8 1834.8,1034.5 1850.9,984.6 1868.9,933.0 1889.3,879.5 1912.2,824.1 1938.0,766.6 1967.0,706.9 1999.4,644.8 2035.6,580.4  A 1064.250,1064.250 0.00 0,0 2031.6,578.1 L 2031.6,578.1 1995.7,642.7 1963.5,704.9 1934.8,764.7 1909.3,822.3 1886.6,877.8 1866.5,931.4 1848.6,983.0 1832.8,1033.0 1818.8,1081.4 1806.4,1128.3 1795.3,1173.8 1785.4,1218.2 1776.6,1261.5 1768.7,1303.9 1761.5,1345.6 1755.0,1386.6 1749.0,1427.1 1743.6,1467.3 1738.6,1507.3 1733.9,1547.2 1729.7,1587.3 1725.9,1627.7 1722.4,1668.5 1719.5,1709.9 1717.0,1752.1 1715.0,1795.2 1713.8,1839.4 1713.3,1884.8 1713.7,1931.7 1715.1,1980.2 1717.8,2030.5 1721.8,2082.8 1727.4,2137.1 1734.8,2193.9 1744.3,2253.1 1756.0,2315.0 1770.3,2379.8 1787.5,2447.6 1807.8,2518.8  Z" style="stroke-width: 2.0;  stroke: rgb(82,82,82); fill: rgb(255,204,204); opacity: 0.667;" />
<path d="M 1807.772,2518.776 A 1064.250,1064.250 0.00 0,1 1803.2,2520.2 L 1803.2,2520.2 1783.2,2449.1 1766.3,2381.6 1752.2,2317.4 1740.8,2256.4 1731.7,2198.3 1724.7,2142.9 1719.6,2090.0 1716.3,2039.4 1714.6,1991.0 1714.2,1944.4 1715.2,1899.7 1717.3,1856.5 1720.4,1814.6 1724.6,1774.1 1729.6,1734.5 1735.5,1695.9 1742.2,1657.9 1749.7,1620.6 1758.0,1583.7 1767.1,1547.0 1777.1,1510.5 1788.0,1474.0 1799.8,1437.4 1812.8,1400.5 1826.9,1363.2 1842.2,1325.5 1859.1,1287.0 1877.5,1247.9 1897.6,1207.9 1919.7,1167.0 1944.0,1125.0 1970.6,1081.9 1999.9,1037.5 2032.0,991.9 2067.3,944.8 2106.1,896.3 2148.5,846.2 2195.1,794.5 2246.1,741.1  A 1064.250,1064.250 0.00 0,0 2242.8,737.8 L 2242.8,737.8 2192.0,791.5 2145.7,843.4 2103.4,893.6 2064.9,942.3 2029.8,989.6 1997.9,1035.4 1968.8,1079.8 1942.4,1123.1 1918.3,1165.1 1896.4,1206.2 1876.4,1246.2 1858.1,1285.5 1841.5,1324.0 1826.3,1361.8 1812.3,1399.1 1799.6,1436.1 1787.9,1472.8 1777.1,1509.3 1767.3,1545.9 1758.4,1582.5 1750.2,1619.5 1742.9,1656.9 1736.4,1694.8 1730.7,1733.5 1725.8,1773.0 1721.9,1813.7 1718.9,1855.5 1717.0,1898.7 1716.3,1943.5 1716.8,1990.0 1718.8,2038.4 1722.3,2089.0 1727.6,2141.9 1734.8,2197.2 1744.2,2255.3 1755.9,2316.3 1770.2,2380.4 1787.4,2447.8 1807.8,2518.8  Z" style="stroke-width: 2.0;  stroke: rgb(82,82,82); fill: rgb(255,153,0); opacity: 0.667;" />
<path d="M 1807.772,2518.776 A 1064.250,1064.250 0.00 0,1 1803.2,2520.2 L 1803.2,2520.2 1783.1,2449.1 1766.2,2381.7 1752.2,2317.8 1740.7,2257.0 1731.6,2199.2 1724.6,2144.2 1719.6,2091.7 1716.4,2041.6 1714.8,1993.7 1714.6,1947.8 1715.8,1903.6 1718.2,1861.1 1721.7,1820.0 1726.3,1780.1 1731.8,1741.4 1738.3,1703.6 1745.8,1666.6 1754.1,1630.2 1763.3,1594.3 1773.4,1558.8 1784.5,1523.4 1796.7,1488.1 1809.9,1452.8 1824.3,1417.2 1840.0,1381.4 1857.2,1345.1 1875.8,1308.4 1896.2,1271.0 1918.5,1232.8 1942.9,1193.9 1969.5,1154.0 1998.7,1113.2 2030.6,1071.3 2065.6,1028.2 2103.8,983.9 2145.6,938.3 2191.3,891.4 2241.3,843.1 2295.7,793.3  A 1064.250,1064.250 0.00 0,0 2292.8,790.0 L 2292.8,790.0 2238.5,840.0 2188.8,888.5 2143.3,935.7 2101.7,981.4 2063.6,1025.9 2028.9,1069.1 1997.1,1111.1 1968.1,1152.1 1941.6,1192.1 1917.4,1231.1 1895.3,1269.3 1875.1,1306.8 1856.5,1343.6 1839.6,1380.0 1824.0,1415.9 1809.7,1451.4 1796.7,1486.8 1784.7,1522.2 1773.7,1557.6 1763.7,1593.2 1754.7,1629.1 1746.5,1665.5 1739.3,1702.6 1732.9,1740.4 1727.6,1779.2 1723.2,1819.0 1719.8,1860.1 1717.6,1902.6 1716.6,1946.8 1717.0,1992.7 1718.8,2040.6 1722.3,2090.7 1727.5,2143.2 1734.7,2198.1 1744.1,2255.9 1755.8,2316.6 1770.2,2380.5 1787.4,2447.8 1807.8,2518.8  Z" style="stroke-width: 2.0;  stroke: rgb(82,82,82); fill: rgb(255,204,0); opacity: 0.667;" />
<path d="M 1807.772,2518.776 A 1064.250,1064.250 0.00 0,1 1803.2,2520.2 L 1803.2,2520.2 1782.8,2449.7 1765.0,2384.0 1749.5,2322.9 1736.3,2266.0 1725.2,2213.1 1716.1,2164.0 1709.0,2118.5 1703.7,2076.4 1700.2,2037.5 1698.4,2001.6 1698.2,1968.5 1699.7,1938.2 1702.8,1910.4 1707.4,1885.0 1713.5,1861.8 1721.3,1840.9 1730.6,1822.1 1741.4,1805.3 1753.9,1790.4 1768.1,1777.3 1784.0,1766.1 1801.7,1756.7 1821.2,1749.0 1842.7,1743.1 1866.3,1738.8 1892.0,1736.4 1919.9,1735.7 1950.3,1736.7 1983.2,1739.6 2018.9,1744.4 2057.4,1751.2 2098.9,1760.0 2143.6,1770.9 2191.8,1784.0 2243.5,1799.5 2299.1,1817.4 2358.8,1838.0 2422.7,1861.2 2491.2,1887.4  A 1064.250,1064.250 0.00 0,0 2492.8,1883.3 L 2492.8,1883.3 2424.2,1857.4 2360.2,1834.4 2300.4,1814.1 2244.8,1796.4 2192.9,1781.2 2144.7,1768.2 2099.9,1757.5 2058.4,1748.9 2019.9,1742.3 1984.2,1737.6 1951.3,1734.9 1920.9,1733.9 1893.0,1734.7 1867.3,1737.3 1843.8,1741.6 1822.3,1747.7 1802.8,1755.4 1785.2,1764.9 1769.3,1776.2 1755.2,1789.3 1742.8,1804.2 1732.0,1821.1 1722.8,1840.0 1715.2,1860.9 1709.1,1884.0 1704.6,1909.5 1701.7,1937.3 1700.3,1967.7 1700.6,2000.7 1702.6,2036.6 1706.3,2075.5 1711.8,2117.6 1719.1,2163.0 1728.4,2212.1 1739.7,2264.9 1753.2,2321.7 1768.9,2382.8 1787.1,2448.4 1807.8,2518.8  Z" style="stroke-width: 2.0;  stroke: rgb(82,82,82); fill: rgb(255,255,0); opacity: 0.667;" />
<path d="M 825.850,676.502 A 1064.250,1064.250 0.00 0,1 829.2,673.8 L 829.2,673.8 876.0,730.3 920.7,782.1 963.3,829.3 1004.0,872.3 1042.9,911.3 1080.1,946.5 1115.7,978.1 1149.9,1006.4 1182.7,1031.6 1214.2,1053.7 1244.6,1073.1 1274.0,1089.7 1302.5,1103.7 1330.1,1115.3 1357.0,1124.5 1383.3,1131.4 1409.1,1136.0 1434.5,1138.5 1459.5,1138.7 1484.4,1136.8 1509.1,1132.7 1533.8,1126.4 1558.6,1117.8 1583.5,1107.0 1608.7,1093.7 1634.2,1078.1 1660.1,1059.8 1686.6,1038.8 1713.7,1015.1 1741.4,988.3 1770.0,958.4 1799.4,925.2 1829.7,888.4 1861.0,847.9 1893.4,803.4 1927.0,754.7 1961.9,701.5 1998.1,643.5 2035.6,580.4  A 1064.250,1064.250 0.00 0,0 2031.6,578.1 L 2031.6,578.1 1994.3,641.3 1958.4,699.5 1923.8,752.9 1890.4,801.7 1858.2,846.4 1827.0,887.0 1796.9,923.9 1767.6,957.3 1739.2,987.3 1711.6,1014.1 1684.6,1038.0 1658.3,1059.1 1632.4,1077.5 1606.9,1093.3 1581.8,1106.6 1556.9,1117.6 1532.2,1126.2 1507.6,1132.6 1482.8,1136.9 1458.0,1138.9 1433.0,1138.7 1407.6,1136.4 1381.8,1131.9 1355.5,1125.1 1328.5,1116.0 1300.8,1104.5 1272.3,1090.6 1242.9,1074.1 1212.4,1054.9 1180.8,1032.9 1147.9,1007.9 1113.6,979.7 1077.9,948.2 1040.5,913.1 1001.5,874.3 960.6,831.5 917.8,784.4 872.9,732.9 825.8,676.5  Z" style="stroke-width: 2.0;  stroke: rgb(82,82,82); fill: rgb(204,255,0); opacity: 0.667;" />
<path d="M 825.850,676.502 A 1064.250,1064.250 0.00 0,1 829.2,673.8 L 829.2,673.8 876.2,730.3 921.3,782.1 964.7,829.4 1006.3,872.5 1046.5,911.6 1085.1,947.1 1122.4,979.1 1158.4,1008.0 1193.3,1033.8 1227.1,1056.7 1260.0,1077.1 1292.0,1094.9 1323.3,1110.4 1353.9,1123.6 1384.1,1134.7 1413.8,1143.7 1443.2,1150.7 1472.4,1155.9 1501.6,1159.1 1530.8,1160.5 1560.1,1160.0 1589.7,1157.7 1619.6,1153.5 1650.1,1147.3 1681.1,1139.1 1712.9,1128.9 1745.5,1116.4 1779.1,1101.7 1813.7,1084.6 1849.5,1064.9 1886.7,1042.6 1925.3,1017.3 1965.4,988.9 2007.3,957.3 2050.9,922.1 2096.5,883.2 2144.2,840.2 2194.0,793.0 2246.1,741.1  A 1064.250,1064.250 0.00 0,0 2242.8,737.8 L 2242.8,737.8 2190.9,789.9 2141.3,837.4 2093.8,880.6 2048.4,919.7 2004.9,955.1 1963.2,986.9 1923.2,1015.4 1884.7,1040.9 1847.6,1063.4 1811.9,1083.2 1777.3,1100.5 1743.8,1115.4 1711.3,1127.9 1679.6,1138.3 1648.6,1146.6 1618.1,1152.9 1588.2,1157.3 1558.6,1159.8 1529.3,1160.3 1500.1,1159.1 1471.0,1156.0 1441.7,1150.9 1412.3,1144.0 1382.5,1135.1 1352.4,1124.2 1321.7,1111.1 1290.3,1095.7 1258.2,1078.0 1225.3,1057.9 1191.4,1035.0 1156.4,1009.3 1120.3,980.7 1082.9,948.8 1044.1,913.5 1003.8,874.5 961.9,831.6 918.4,784.5 873.1,732.9 825.8,676.5  Z" style="stroke-width: 2.0;  stroke: rgb(82,82,82); fill: rgb(0,255,0); opacity: 0.667;" />
<path d="M 825.850,676.502 A 1064.250,1064.250 0.00 0,1 829.2,673.8 L 829.2,673.8 876.2,730.3 921.5,782.1 965.0,829.4 1007.0,872.6 1047.4,911.8 1086.4,947.4 1124.2,979.6 1160.7,1008.6 1196.1,1034.6 1230.4,1057.9 1263.9,1078.6 1296.6,1096.8 1328.6,1112.8 1360.0,1126.5 1390.9,1138.2 1421.5,1148.0 1451.7,1155.8 1481.9,1161.8 1512.0,1166.1 1542.2,1168.5 1572.6,1169.2 1603.3,1168.2 1634.5,1165.3 1666.2,1160.7 1698.6,1154.1 1731.8,1145.6 1766.0,1135.1 1801.2,1122.4 1837.6,1107.4 1875.3,1090.0 1914.4,1070.0 1955.2,1047.3 1997.6,1021.7 2041.9,992.9 2088.1,960.7 2136.5,924.9 2187.1,885.3 2240.2,841.5 2295.7,793.3  A 1064.250,1064.250 0.00 0,0 2292.8,790.0 L 2292.8,790.0 2237.4,838.4 2184.6,882.4 2134.1,922.3 2085.9,958.3 2039.8,990.6 1995.6,1019.6 1953.3,1045.4 1912.7,1068.3 1873.6,1088.5 1836.0,1106.0 1799.6,1121.1 1764.5,1134.0 1730.4,1144.7 1697.2,1153.3 1664.8,1160.0 1633.1,1164.8 1602.0,1167.8 1571.3,1168.9 1540.9,1168.4 1510.6,1166.0 1480.5,1161.9 1450.3,1156.0 1420.0,1148.3 1389.4,1138.7 1358.5,1127.1 1327.0,1113.5 1295.0,1097.7 1262.2,1079.6 1228.6,1059.0 1194.2,1035.9 1158.7,1010.0 1122.0,981.1 1084.2,949.1 1045.0,913.6 1004.4,874.6 962.3,831.6 918.6,784.5 873.1,732.9 825.8,676.5  Z" style="stroke-width: 2.0;  stroke: rgb(82,82,82); fill: rgb(53,128,0); opacity: 0.667;" />
<path d="M 825.850,676.502 A 1064.250,1064.250 0.00 0,1 829.2,673.8 L 829.2,673.8 876.8,730.6 923.8,783.2 970.1,831.9 1015.5,877.1 1060.2,919.1 1103.9,958.3 1146.8,994.9 1188.8,1029.4 1229.9,1061.8 1270.0,1092.6 1309.3,1121.9 1347.8,1150.0 1385.4,1177.1 1422.4,1203.4 1458.6,1229.1 1494.2,1254.4 1529.4,1279.4 1564.1,1304.3 1598.5,1329.2 1632.7,1354.2 1666.9,1379.4 1701.2,1404.9 1735.7,1430.7 1770.6,1457.0 1806.2,1483.7 1842.5,1510.8 1879.7,1538.4 1918.2,1566.5 1958.1,1595.0 1999.6,1623.9 2043.0,1653.2 2088.6,1682.7 2136.6,1712.3 2187.2,1742.1 2240.8,1771.8 2297.7,1801.4 2358.2,1830.6 2422.6,1859.3 2491.2,1887.4  A 1064.250,1064.250 0.00 0,0 2492.8,1883.3 L 2492.8,1883.3 2424.1,1855.5 2359.6,1827.0 2299.0,1798.1 2242.0,1768.7 2188.2,1739.3 2137.4,1709.7 2089.4,1680.2 2043.7,1650.9 2000.1,1621.9 1958.5,1593.1 1918.5,1564.8 1879.9,1536.9 1842.5,1509.4 1806.1,1482.4 1770.5,1455.8 1735.4,1429.7 1700.8,1404.0 1666.4,1378.7 1632.1,1353.6 1597.8,1328.8 1563.3,1304.0 1528.5,1279.3 1493.2,1254.4 1457.5,1229.3 1421.2,1203.7 1384.1,1177.6 1346.4,1150.6 1307.8,1122.7 1268.4,1093.5 1228.1,1062.9 1186.9,1030.6 1144.8,996.4 1101.7,959.9 1057.8,920.9 1013.0,879.0 967.4,834.0 920.9,785.5 873.7,733.1 825.8,676.5  Z" style="stroke-width: 2.0;  stroke: rgb(82,82,82); fill: rgb(0,0,204); opacity: 0.667;" />
<path d="M 825.850,676.502 A 1064.250,1064.250 0.00 0,1 829.2,673.8 L 829.2,673.8 875.0,732.1 917.0,789.1 955.3,844.7 990.5,898.8 1022.8,951.5 1052.6,1002.8 1080.3,1052.7 1106.0,1101.3 1130.1,1148.6 1152.9,1194.5 1174.6,1239.3 1195.4,1283.0 1215.5,1325.6 1235.2,1367.2 1254.5,1407.9 1273.8,1447.9 1293.1,1487.2 1312.5,1525.9 1332.2,1564.2 1352.3,1602.2 1372.8,1640.1 1393.8,1678.0 1415.3,1716.1 1437.4,1754.6 1460.1,1793.6 1483.3,1833.3 1507.1,1874.0 1531.4,1915.8 1556.1,1958.9 1581.2,2003.7 1606.6,2050.3 1632.2,2099.0 1657.8,2150.0 1683.3,2203.5 1708.5,2260.0 1733.3,2319.6 1757.5,2382.6 1780.9,2449.4 1803.2,2520.2  A 1064.250,1064.250 0.00 0,0 1807.8,2518.8 L 1807.8,2518.8 1785.2,2448.1 1761.5,2381.4 1737.0,2318.5 1712.0,2259.0 1686.5,2202.7 1660.7,2149.2 1634.9,2098.4 1609.1,2049.8 1583.5,2003.3 1558.2,1958.7 1533.3,1915.6 1508.8,1873.9 1484.8,1833.3 1461.4,1793.7 1438.6,1754.8 1416.3,1716.4 1394.6,1678.4 1373.4,1640.6 1352.8,1602.8 1332.6,1564.9 1312.7,1526.7 1293.1,1488.0 1273.6,1448.8 1254.2,1408.9 1234.7,1368.3 1214.8,1326.8 1194.5,1284.3 1173.5,1240.7 1151.7,1196.0 1128.7,1150.1 1104.4,1102.9 1078.5,1054.4 1050.6,1004.6 1020.6,953.4 988.1,900.9 952.7,846.9 914.1,791.5 871.9,734.7 825.8,676.5  Z" style="stroke-width: 2.0;  stroke: rgb(82,82,82); fill: rgb(102,153,255); opacity: 0.667;" />
<path d="M 833.570,670.241 A 1064.250,1064.250 0.00 0,1 837.1,667.4 L 837.1,667.4 883.4,724.4 927.5,776.6 969.7,824.2 1009.9,867.6 1048.4,906.9 1085.2,942.5 1120.5,974.5 1154.3,1003.1 1186.7,1028.5 1218.0,1051.0 1248.1,1070.5 1277.2,1087.4 1305.4,1101.7 1332.8,1113.5 1359.5,1122.9 1385.6,1130.0 1411.2,1134.8 1436.4,1137.4 1461.3,1137.7 1486.0,1136.0 1510.5,1132.0 1535.1,1125.8 1559.7,1117.3 1584.5,1106.5 1609.6,1093.4 1635.0,1077.7 1660.8,1059.5 1687.2,1038.6 1714.2,1014.9 1741.8,988.2 1770.3,958.3 1799.6,925.1 1829.9,888.4 1861.1,847.9 1893.5,803.4 1927.1,754.7 1961.9,701.5 1998.1,643.5 2035.6,580.4  A 1064.250,1064.250 0.00 0,0 2031.6,578.1 L 2031.6,578.1 1994.4,641.3 1958.5,699.5 1923.9,752.9 1890.5,801.7 1858.3,846.3 1827.2,887.0 1797.1,923.8 1767.9,957.2 1739.6,987.2 1712.1,1014.0 1685.2,1037.8 1658.9,1058.9 1633.2,1077.2 1607.8,1092.9 1582.8,1106.2 1558.1,1117.0 1533.5,1125.6 1509.0,1131.9 1484.4,1136.0 1459.7,1137.9 1434.8,1137.6 1409.6,1135.1 1384.0,1130.4 1357.9,1123.5 1331.2,1114.2 1303.7,1102.5 1275.5,1088.4 1246.3,1071.6 1216.1,1052.2 1184.7,1029.9 1152.2,1004.6 1118.2,976.1 1082.9,944.3 1045.9,908.9 1007.3,869.7 966.8,826.5 924.5,779.0 880.1,727.0 833.6,670.2  Z" style="stroke-width: 2.0;  stroke: rgb(82,82,82); fill: rgb(153,204,255); opacity: 0.667;" />
<path d="M 833.570,670.241 A 1064.250,1064.250 0.00 0,1 837.1,667.4 L 837.1,667.4 883.5,724.4 928.1,776.6 971.0,824.3 1012.2,867.8 1051.9,907.3 1090.2,943.1 1127.1,975.5 1162.8,1004.7 1197.3,1030.8 1230.9,1054.0 1263.4,1074.6 1295.2,1092.7 1326.2,1108.4 1356.6,1121.8 1386.6,1133.1 1416.1,1142.3 1445.3,1149.5 1474.3,1154.8 1503.3,1158.2 1532.3,1159.7 1561.5,1159.4 1590.9,1157.1 1620.8,1153.0 1651.1,1146.9 1682.0,1138.8 1713.7,1128.6 1746.2,1116.3 1779.6,1101.6 1814.2,1084.5 1849.9,1064.9 1887.0,1042.5 1925.5,1017.3 1965.6,988.9 2007.4,957.3 2051.0,922.1 2096.6,883.2 2144.2,840.2 2194.0,793.0 2246.1,741.1  A 1064.250,1064.250 0.00 0,0 2242.8,737.8 L 2242.8,737.8 2190.9,789.9 2141.3,837.4 2093.9,880.6 2048.5,919.7 2005.0,955.1 1963.4,986.9 1923.4,1015.4 1885.0,1040.8 1848.0,1063.3 1812.4,1083.1 1777.9,1100.4 1744.5,1115.2 1712.1,1127.7 1680.4,1138.0 1649.6,1146.2 1619.3,1152.5 1589.5,1156.7 1560.0,1159.1 1530.9,1159.6 1501.9,1158.2 1472.9,1154.9 1443.8,1149.7 1414.5,1142.6 1385.0,1133.6 1355.0,1122.4 1324.6,1109.1 1293.5,1093.5 1261.6,1075.6 1229.0,1055.2 1195.4,1032.0 1160.7,1006.1 1124.9,977.1 1087.8,944.9 1049.4,909.2 1009.6,869.9 968.2,826.6 925.1,779.1 880.3,727.0 833.6,670.2  Z" style="stroke-width: 2.0;  stroke: rgb(82,82,82); fill: rgb(0,255,255); opacity: 0.667;" />
<path d="M 833.570,670.241 A 1064.250,1064.250 0.00 0,1 837.1,667.4 L 837.1,667.4 883.6,724.4 928.3,776.7 971.4,824.4 1012.9,867.9 1052.9,907.5 1091.5,943.4 1128.9,976.0 1165.0,1005.3 1200.1,1031.6 1234.2,1055.2 1267.4,1076.1 1299.8,1094.6 1331.5,1110.8 1362.7,1124.8 1393.4,1136.7 1423.8,1146.6 1453.8,1154.6 1483.8,1160.8 1513.8,1165.2 1543.8,1167.8 1574.0,1168.6 1604.6,1167.6 1635.7,1164.9 1667.2,1160.3 1699.5,1153.8 1732.6,1145.4 1766.7,1134.9 1801.8,1122.2 1838.1,1107.3 1875.7,1089.9 1914.8,1070.0 1955.4,1047.3 1997.8,1021.6 2042.0,992.8 2088.2,960.7 2136.6,924.9 2187.2,885.3 2240.2,841.5 2295.7,793.3  A 1064.250,1064.250 0.00 0,0 2292.8,790.0 L 2292.8,790.0 2237.4,838.4 2184.6,882.4 2134.2,922.3 2086.0,958.3 2039.9,990.6 1995.8,1019.6 1953.5,1045.4 1913.0,1068.3 1874.0,1088.4 1836.4,1105.9 1800.2,1121.0 1765.2,1133.8 1731.2,1144.4 1698.1,1153.0 1665.8,1159.6 1634.3,1164.3 1603.2,1167.2 1572.7,1168.3 1542.4,1167.6 1512.4,1165.1 1482.4,1160.9 1452.4,1154.8 1422.3,1146.9 1391.9,1137.1 1361.1,1125.4 1329.9,1111.5 1298.1,1095.5 1265.6,1077.1 1232.3,1056.3 1198.1,1032.9 1162.9,1006.7 1126.7,977.5 1089.2,945.2 1050.4,909.4 1010.2,870.0 968.5,826.6 925.2,779.1 880.3,727.1 833.6,670.2  Z" style="stroke-width: 2.0;  stroke: rgb(82,82,82); fill: rgb(204,255,255); opacity: 0.667;" />
<path d="M 833.570,670.241 A 1064.250,1064.250 0.00 0,1 837.1,667.4 L 837.1,667.4 884.2,724.7 930.6,777.7 976.4,826.8 1021.4,872.4 1065.6,914.9 1109.0,954.4 1151.5,991.4 1193.1,1026.2 1233.9,1059.0 1273.7,1090.0 1312.7,1119.6 1350.9,1148.0 1388.3,1175.3 1425.0,1201.9 1461.0,1227.8 1496.4,1253.3 1531.4,1278.5 1565.9,1303.6 1600.1,1328.6 1634.2,1353.7 1668.2,1379.0 1702.3,1404.6 1736.7,1430.5 1771.5,1456.9 1807.0,1483.6 1843.2,1510.8 1880.3,1538.5 1918.7,1566.6 1958.5,1595.1 2000.0,1624.0 2043.3,1653.2 2088.8,1682.7 2136.7,1712.4 2187.3,1742.1 2240.9,1771.9 2297.8,1801.4 2358.2,1830.6 2422.6,1859.3 2491.2,1887.4  A 1064.250,1064.250 0.00 0,0 2492.8,1883.3 L 2492.8,1883.3 2424.1,1855.5 2359.6,1827.0 2299.0,1798.1 2242.0,1768.8 2188.3,1739.3 2137.6,1709.8 2089.6,1680.3 2043.9,1651.0 2000.5,1621.9 1958.9,1593.2 1919.0,1564.8 1880.5,1536.9 1843.2,1509.4 1806.9,1482.3 1771.4,1455.7 1736.4,1429.6 1701.9,1403.8 1667.7,1378.3 1633.6,1353.2 1599.4,1328.2 1565.1,1303.3 1530.4,1278.4 1495.4,1253.3 1459.9,1228.0 1423.7,1202.2 1386.9,1175.8 1349.4,1148.6 1311.1,1120.4 1272.0,1091.0 1232.0,1060.1 1191.1,1027.5 1149.4,992.9 1106.7,956.1 1063.2,916.7 1018.8,874.5 973.6,829.1 927.6,780.1 880.9,727.3 833.6,670.2  Z" style="stroke-width: 2.0;  stroke: rgb(82,82,82); fill: rgb(153,0,204); opacity: 0.667;" />
<path d="M 833.570,670.241 A 1064.250,1064.250 0.00 0,1 837.1,667.4 L 837.1,667.4 882.4,726.2 923.8,783.6 961.6,839.5 996.3,894.0 1028.1,947.1 1057.5,998.7 1084.7,1048.9 1110.0,1097.8 1133.8,1145.3 1156.2,1191.5 1177.5,1236.5 1197.9,1280.4 1217.8,1323.2 1237.2,1365.0 1256.3,1405.9 1275.3,1446.0 1294.4,1485.4 1313.6,1524.3 1333.1,1562.7 1353.0,1600.9 1373.4,1638.9 1394.2,1676.9 1415.7,1715.1 1437.7,1753.7 1460.2,1792.8 1483.4,1832.6 1507.2,1873.4 1531.4,1915.3 1556.1,1958.5 1581.2,2003.4 1606.6,2050.0 1632.1,2098.7 1657.7,2149.8 1683.2,2203.4 1708.5,2259.9 1733.3,2319.5 1757.5,2382.6 1780.9,2449.4 1803.2,2520.2  A 1064.250,1064.250 0.00 0,0 1807.8,2518.8 L 1807.8,2518.8 1785.2,2448.1 1761.5,2381.4 1737.0,2318.5 1711.9,2259.0 1686.4,2202.6 1660.7,2149.1 1634.8,2098.1 1609.1,2049.5 1583.5,2003.0 1558.2,1958.3 1533.3,1915.1 1508.8,1873.3 1484.9,1832.7 1461.6,1793.0 1438.8,1754.0 1416.6,1715.5 1395.1,1677.4 1374.0,1639.4 1353.5,1601.5 1333.4,1563.5 1313.8,1525.1 1294.4,1486.3 1275.1,1447.0 1255.9,1406.9 1236.6,1366.1 1217.1,1324.4 1197.0,1281.7 1176.4,1237.9 1154.9,1193.0 1132.3,1146.8 1108.3,1099.4 1082.8,1050.7 1055.4,1000.6 1025.8,949.1 993.7,896.2 958.8,841.8 920.7,786.1 879.1,728.9 833.6,670.2  Z" style="stroke-width: 2.0;  stroke: rgb(82,82,82); fill: rgb(204,51,255); opacity: 0.667;" />
<path d="M 833.570,670.241 A 1064.250,1064.250 0.00 0,1 837.1,667.4 L 837.1,667.4 882.7,724.7 924.8,777.6 963.6,826.4 999.3,871.3 1032.0,912.4 1061.9,950.0 1089.0,984.3 1113.6,1015.3 1135.7,1043.2 1155.4,1068.1 1172.9,1090.3 1188.2,1109.7 1201.5,1126.5 1212.6,1140.7 1221.8,1152.5 1229.1,1161.9 1234.5,1168.9 1238.0,1173.6 1239.7,1176.1 1239.5,1176.2 1237.5,1174.0 1233.7,1169.6 1228.0,1162.8 1220.4,1153.7 1210.8,1142.2 1199.3,1128.2 1185.7,1111.7 1170.0,1092.6 1152.2,1070.8 1132.0,1046.1 1109.5,1018.5 1084.5,987.9 1057.0,954.0 1026.6,916.7 993.5,876.0 957.3,831.5 918.0,783.1 875.3,730.6 829.2,673.8  A 1064.250,1064.250 0.00 0,0 825.8,676.5 L 825.8,676.5 872.2,733.1 915.1,785.5 954.6,833.7 991.0,878.0 1024.3,918.7 1054.7,955.8 1082.5,989.5 1107.6,1020.1 1130.2,1047.6 1150.4,1072.2 1168.4,1093.9 1184.1,1113.0 1197.8,1129.4 1209.4,1143.4 1218.9,1154.9 1226.6,1163.9 1232.3,1170.7 1236.2,1175.1 1238.2,1177.3 1238.3,1177.1 1236.6,1174.7 1233.1,1170.0 1227.7,1163.0 1220.4,1153.7 1211.1,1141.9 1199.9,1127.7 1186.6,1111.0 1171.2,1091.6 1153.6,1069.6 1133.8,1044.7 1111.5,1016.9 1086.8,986.0 1059.5,951.9 1029.5,914.4 996.6,873.4 960.8,828.7 921.7,780.1 879.4,727.3 833.6,670.2  Z" style="stroke-width: 2.0;  stroke: rgb(82,82,82); fill: rgb(204,153,255); opacity: 0.667;" />
<path d="M 1247.630,466.106 A 1064.250,1064.250 0.00 0,1 1251.9,465.1 L 1251.9,465.1 1269.4,536.2 1286.6,602.0 1303.4,662.6 1319.9,718.3 1336.0,769.4 1351.9,816.2 1367.5,858.8 1382.9,897.5 1398.1,932.4 1413.1,963.8 1428.1,991.8 1443.0,1016.6 1457.8,1038.3 1472.7,1056.9 1487.7,1072.7 1502.8,1085.7 1518.0,1096.0 1533.5,1103.6 1549.3,1108.6 1565.5,1111.0 1582.0,1110.8 1599.1,1107.9 1616.6,1102.5 1634.8,1094.4 1653.7,1083.6 1673.3,1070.0 1693.8,1053.5 1715.2,1034.1 1737.6,1011.5 1761.1,985.8 1785.7,956.7 1811.6,924.1 1838.8,887.8 1867.5,847.6 1897.6,803.3 1929.4,754.7 1963.0,701.5 1998.3,643.5 2035.6,580.4  A 1064.250,1064.250 0.00 0,0 2031.6,578.1 L 2031.6,578.1 1994.6,641.3 1959.5,699.5 1926.2,752.8 1894.6,801.6 1864.6,846.0 1836.1,886.3 1809.1,922.8 1783.3,955.5 1758.8,984.7 1735.5,1010.5 1713.2,1033.1 1691.9,1052.7 1671.5,1069.2 1651.9,1082.9 1633.1,1093.8 1614.9,1102.0 1597.4,1107.5 1580.4,1110.4 1563.8,1110.7 1547.7,1108.4 1531.9,1103.5 1516.3,1095.9 1501.0,1085.7 1485.9,1072.8 1470.9,1057.0 1455.9,1038.4 1441.0,1016.8 1426.0,992.1 1410.9,964.2 1395.7,932.8 1380.4,897.9 1364.8,859.3 1349.0,816.8 1333.0,770.1 1316.6,719.0 1299.9,663.4 1282.9,602.9 1265.5,537.2 1247.6,466.1  Z" style="stroke-width: 2.0;  stroke: rgb(82,82,82); fill: rgb(102,102,102); opacity: 0.667;" />
<path d="M 1247.630,466.106 A 1064.250,1064.250 0.00 0,1 1251.9,465.1 L 1251.9,465.1 1269.6,536.3 1287.2,602.1 1304.7,662.9 1322.1,718.9 1339.5,770.4 1356.8,817.7 1374.0,860.9 1391.3,900.4 1408.5,936.3 1425.8,968.8 1443.2,998.0 1460.7,1024.2 1478.4,1047.5 1496.3,1068.0 1514.5,1085.9 1533.0,1101.2 1551.8,1113.9 1571.2,1124.3 1591.1,1132.3 1611.5,1138.0 1632.7,1141.4 1654.6,1142.5 1677.4,1141.3 1701.1,1137.7 1725.9,1131.8 1751.8,1123.4 1778.9,1112.6 1807.4,1099.1 1837.4,1083.0 1869.0,1064.1 1902.3,1042.3 1937.4,1017.4 1974.5,989.2 2013.7,957.6 2055.1,922.4 2098.9,883.4 2145.2,840.3 2194.3,793.0 2246.1,741.1  A 1064.250,1064.250 0.00 0,0 2242.8,737.8 L 2242.8,737.8 2191.2,790.0 2142.3,837.5 2096.2,880.8 2052.6,920.0 2011.3,955.4 1972.2,987.1 1935.3,1015.4 1900.3,1040.5 1867.1,1062.5 1835.6,1081.6 1805.7,1097.8 1777.3,1111.4 1750.2,1122.3 1724.3,1130.8 1699.5,1136.8 1675.8,1140.5 1653.1,1141.8 1631.2,1140.8 1610.0,1137.5 1589.5,1131.9 1569.6,1124.0 1550.2,1113.7 1531.3,1101.0 1512.7,1085.8 1494.5,1068.0 1476.5,1047.6 1458.7,1024.4 1441.1,998.2 1423.6,969.1 1406.2,936.7 1388.8,900.9 1371.4,861.5 1353.9,818.3 1336.5,771.1 1318.9,719.7 1301.2,663.7 1283.5,603.0 1265.6,537.2 1247.6,466.1  Z" style="stroke-width: 2.0;  stroke: rgb(82,82,82); fill: rgb(153,153,153); opacity: 0.667;" />
<path d="M 1247.630,466.106 A 1064.250,1064.250 0.00 0,1 1251.9,465.1 L 1251.9,465.1 1269.6,536.3 1287.3,602.2 1305.0,663.0 1322.7,719.1 1340.4,770.8 1358.0,818.2 1375.7,861.7 1393.4,901.4 1411.2,937.6 1429.1,970.4 1447.1,1000.1 1465.2,1026.8 1483.6,1050.6 1502.2,1071.8 1521.2,1090.3 1540.5,1106.3 1560.2,1119.9 1580.5,1131.2 1601.3,1140.2 1622.8,1146.9 1645.1,1151.5 1668.1,1153.8 1692.1,1154.0 1717.1,1151.9 1743.3,1147.5 1770.6,1140.9 1799.3,1131.9 1829.5,1120.4 1861.2,1106.3 1894.7,1089.6 1929.9,1070.1 1967.2,1047.7 2006.6,1022.2 2048.2,993.4 2092.3,961.1 2138.9,925.2 2188.2,885.4 2240.4,841.5 2295.7,793.3  A 1064.250,1064.250 0.00 0,0 2292.8,790.0 L 2292.8,790.0 2237.7,838.5 2185.7,882.6 2136.5,922.6 2090.0,958.7 2046.1,991.1 2004.6,1020.1 1965.3,1045.8 1928.2,1068.4 1893.0,1088.0 1859.6,1104.8 1827.9,1119.0 1797.8,1130.6 1769.1,1139.8 1741.8,1146.5 1715.7,1151.0 1690.7,1153.2 1666.7,1153.1 1643.6,1150.9 1621.4,1146.4 1599.8,1139.8 1579.0,1130.9 1558.7,1119.7 1538.9,1106.1 1519.5,1090.2 1500.5,1071.8 1481.7,1050.7 1463.3,1027.0 1445.0,1000.4 1426.9,970.7 1408.9,938.0 1391.0,901.9 1373.1,862.2 1355.2,818.8 1337.4,771.5 1319.5,719.9 1301.6,663.8 1283.6,603.1 1265.7,537.2 1247.6,466.1  Z" style="stroke-width: 2.0;  stroke: rgb(82,82,82); fill: rgb(204,204,204); opacity: 0.667;" />
<path d="M 1247.630,466.106 A 1064.250,1064.250 0.00 0,1 1251.9,465.1 L 1251.9,465.1 1270.2,536.7 1289.5,603.7 1309.6,666.5 1330.4,725.4 1351.8,780.7 1373.8,832.7 1396.1,881.6 1418.8,927.7 1441.7,971.4 1464.8,1012.7 1488.1,1052.0 1511.6,1089.4 1535.2,1125.3 1559.0,1159.7 1583.0,1192.8 1607.1,1224.9 1631.5,1256.1 1656.2,1286.5 1681.2,1316.3 1706.7,1345.6 1732.8,1374.5 1759.6,1403.1 1787.1,1431.6 1815.6,1459.9 1845.2,1488.1 1876.0,1516.4 1908.3,1544.7 1942.2,1573.1 1977.9,1601.5 2015.7,1630.1 2055.8,1658.8 2098.4,1687.6 2143.8,1716.4 2192.2,1745.2 2244.1,1774.0 2299.6,1802.7 2359.0,1831.2 2422.8,1859.5 2491.2,1887.4  A 1064.250,1064.250 0.00 0,0 2492.8,1883.3 L 2492.8,1883.3 2424.3,1855.7 2360.4,1827.7 2300.8,1799.4 2245.2,1770.9 2193.2,1742.4 2144.7,1713.7 2099.1,1685.1 2056.4,1656.5 2016.2,1628.0 1978.3,1599.6 1942.5,1571.2 1908.5,1543.0 1876.1,1514.8 1845.1,1486.7 1815.4,1458.6 1786.8,1430.4 1759.2,1402.1 1732.3,1373.6 1706.1,1344.8 1680.5,1315.6 1655.3,1285.9 1630.5,1255.6 1606.0,1224.5 1581.7,1192.5 1557.6,1159.4 1533.7,1125.1 1509.9,1089.4 1486.3,1052.0 1462.8,1012.8 1439.5,971.6 1416.4,928.1 1393.5,882.0 1371.0,833.2 1348.9,781.3 1327.2,726.1 1306.1,667.3 1285.8,604.6 1266.2,537.6 1247.6,466.1  Z" style="stroke-width: 2.0;  stroke: rgb(82,82,82); fill: rgb(204,204,153); opacity: 0.667;" />
<path d="M 1247.630,466.106 A 1064.250,1064.250 0.00 0,1 1251.9,465.1 L 1251.9,465.1 1270.4,537.2 1290.3,605.6 1311.3,670.7 1333.0,732.8 1355.2,791.9 1377.8,848.4 1400.3,902.6 1422.7,954.6 1444.8,1004.7 1466.3,1053.0 1487.2,1099.9 1507.2,1145.5 1526.4,1190.0 1544.6,1233.7 1561.7,1276.7 1577.6,1319.2 1592.5,1361.3 1606.1,1403.4 1618.6,1445.5 1630.0,1487.8 1640.2,1530.5 1649.4,1573.8 1657.7,1617.7 1665.2,1662.5 1671.9,1708.2 1678.0,1755.1 1683.7,1803.3 1689.1,1852.8 1694.5,1903.8 1700.1,1956.5 1706.1,2010.9 1712.7,2067.1 1720.3,2125.3 1729.1,2185.5 1739.4,2247.8 1751.6,2312.4 1766.1,2379.2 1783.1,2448.5 1803.2,2520.2  A 1064.250,1064.250 0.00 0,0 1807.8,2518.8 L 1807.8,2518.8 1787.4,2447.2 1770.0,2378.0 1755.3,2311.2 1742.8,2246.7 1732.2,2184.4 1723.1,2124.3 1715.3,2066.1 1708.4,2009.9 1702.2,1955.6 1696.4,1903.0 1690.7,1852.0 1685.1,1802.5 1679.2,1754.3 1672.8,1707.5 1665.9,1661.8 1658.3,1617.0 1649.8,1573.1 1640.4,1529.9 1630.0,1487.2 1618.4,1445.0 1605.8,1402.9 1591.9,1360.9 1576.9,1318.8 1560.8,1276.4 1543.5,1233.5 1525.1,1189.9 1505.8,1145.5 1485.5,1100.0 1464.5,1053.2 1442.7,1004.9 1420.5,954.9 1397.9,903.0 1375.1,848.9 1352.3,792.5 1329.8,733.4 1307.8,671.5 1286.6,606.5 1266.5,538.1 1247.6,466.1  Z" style="stroke-width: 2.0;  stroke: rgb(82,82,82); fill: rgb(251,106,74); opacity: 0.667;" />
<path d="M 1247.630,466.106 A 1064.250,1064.250 0.00 0,1 1251.9,465.1 L 1251.9,465.1 1268.7,536.4 1283.7,602.4 1297.0,663.5 1308.7,719.9 1318.8,771.9 1327.4,819.6 1334.6,863.3 1340.4,903.2 1345.0,939.4 1348.2,972.1 1350.2,1001.6 1351.0,1027.8 1350.6,1051.1 1349.1,1071.3 1346.3,1088.8 1342.4,1103.5 1337.3,1115.5 1331.1,1124.9 1323.6,1131.8 1314.9,1136.1 1304.9,1137.8 1293.7,1137.1 1281.0,1133.8 1267.0,1128.0 1251.5,1119.5 1234.4,1108.4 1215.7,1094.6 1195.4,1078.0 1173.2,1058.5 1149.2,1036.1 1123.2,1010.4 1095.1,981.6 1064.8,949.3 1032.1,913.4 997.0,873.8 959.3,830.2 918.9,782.5 875.6,730.5 829.2,673.8  A 1064.250,1064.250 0.00 0,0 825.8,676.5 L 825.8,676.5 872.5,733.0 916.0,784.9 956.6,832.4 994.5,875.8 1029.7,915.3 1062.5,951.0 1093.0,983.2 1121.2,1012.0 1147.3,1037.5 1171.4,1059.9 1193.7,1079.3 1214.1,1095.8 1232.8,1109.5 1249.9,1120.6 1265.5,1128.9 1279.5,1134.7 1292.2,1137.9 1303.5,1138.6 1313.4,1136.8 1322.1,1132.5 1329.5,1125.6 1335.8,1116.2 1340.8,1104.1 1344.6,1089.4 1347.3,1072.0 1348.8,1051.7 1349.1,1028.5 1348.2,1002.2 1346.0,972.8 1342.7,940.0 1338.0,903.8 1332.0,864.0 1324.6,820.3 1315.8,772.6 1305.4,720.7 1293.5,664.4 1280.0,603.3 1264.7,537.3 1247.6,466.1  Z" style="stroke-width: 2.0;  stroke: rgb(82,82,82); fill: rgb(116,196,118); opacity: 0.667;" />
<path d="M 1247.630,466.106 A 1064.250,1064.250 0.00 0,1 1251.9,465.1 L 1251.9,465.1 1268.7,536.3 1283.7,602.4 1297.0,663.5 1308.7,719.9 1318.9,771.8 1327.6,819.5 1334.8,863.2 1340.7,903.0 1345.3,939.2 1348.7,971.9 1350.8,1001.3 1351.7,1027.5 1351.4,1050.6 1349.9,1070.8 1347.3,1088.2 1343.5,1102.8 1338.6,1114.7 1332.5,1124.0 1325.1,1130.7 1316.6,1134.9 1306.8,1136.5 1295.7,1135.6 1283.3,1132.2 1269.4,1126.2 1254.1,1117.5 1237.3,1106.2 1218.9,1092.2 1198.8,1075.4 1176.9,1055.7 1153.2,1032.9 1127.5,1007.0 1099.8,977.8 1069.8,945.2 1037.6,909.0 1002.9,869.1 965.7,825.1 925.7,777.0 882.9,724.6 837.1,667.4  A 1064.250,1064.250 0.00 0,0 833.6,670.2 L 833.6,670.2 879.6,727.2 922.7,779.5 962.8,827.4 1000.3,871.2 1035.1,911.0 1067.5,947.1 1097.6,979.5 1125.5,1008.6 1151.2,1034.4 1175.1,1057.0 1197.0,1076.7 1217.2,1093.4 1235.7,1107.3 1252.5,1118.6 1267.9,1127.1 1281.7,1133.1 1294.2,1136.5 1305.3,1137.3 1315.1,1135.6 1323.6,1131.4 1330.9,1124.7 1337.0,1115.4 1341.9,1103.4 1345.6,1088.8 1348.1,1071.4 1349.5,1051.2 1349.7,1028.1 1348.7,1001.9 1346.5,972.5 1343.0,939.8 1338.3,903.7 1332.2,863.9 1324.8,820.2 1315.9,772.6 1305.5,720.7 1293.6,664.3 1280.0,603.3 1264.7,537.3 1247.6,466.1  Z" style="stroke-width: 2.0;  stroke: rgb(82,82,82); fill: rgb(107,174,214); opacity: 0.667;" />
<path d="M 1355.561,445.597 A 1064.250,1064.250 0.00 0,1 1359.9,445.0 L 1359.9,445.0 1369.9,517.6 1380.0,584.7 1390.2,646.6 1400.4,703.6 1410.7,756.0 1421.1,803.9 1431.5,847.6 1442.1,887.4 1452.7,923.4 1463.5,955.7 1474.5,984.6 1485.6,1010.3 1496.9,1032.7 1508.5,1052.2 1520.4,1068.6 1532.6,1082.3 1545.2,1093.1 1558.1,1101.2 1571.5,1106.7 1585.5,1109.5 1599.9,1109.6 1615.0,1107.1 1630.8,1101.9 1647.3,1094.1 1664.6,1083.4 1682.8,1070.0 1701.9,1053.6 1722.0,1034.2 1743.3,1011.8 1765.7,986.1 1789.4,957.0 1814.4,924.3 1840.9,888.0 1869.0,847.8 1898.6,803.4 1930.0,754.7 1963.2,701.5 1998.4,643.5 2035.6,580.4  A 1064.250,1064.250 0.00 0,0 2031.6,578.1 L 2031.6,578.1 1994.7,641.3 1959.8,699.5 1926.8,752.9 1895.6,801.7 1866.1,846.2 1838.3,886.5 1812.0,923.0 1787.1,955.7 1763.5,984.9 1741.2,1010.7 1720.0,1033.3 1700.0,1052.7 1680.9,1069.2 1662.8,1082.7 1645.6,1093.4 1629.1,1101.4 1613.4,1106.6 1598.3,1109.2 1583.8,1109.1 1569.9,1106.4 1556.5,1101.0 1543.5,1092.9 1530.9,1082.1 1518.6,1068.6 1506.7,1052.1 1495.0,1032.7 1483.6,1010.3 1472.4,984.8 1461.3,955.9 1450.4,923.6 1439.6,887.6 1428.9,847.9 1418.2,804.2 1407.7,756.3 1397.2,704.0 1386.7,647.1 1376.3,585.2 1365.9,518.1 1355.6,445.6  Z" style="stroke-width: 2.0;  stroke: rgb(82,82,82); fill: rgb(253,141,60); opacity: 0.667;" />
<path d="M 1355.561,445.597 A 1064.250,1064.250 0.00 0,1 1359.9,445.0 L 1359.9,445.0 1370.1,517.6 1380.6,584.9 1391.5,647.0 1402.7,704.4 1414.1,757.2 1425.9,805.6 1438.0,850.1 1450.4,890.7 1463.1,927.6 1476.1,961.1 1489.5,991.3 1503.2,1018.5 1517.4,1042.6 1531.9,1063.9 1547.0,1082.5 1562.6,1098.4 1578.8,1111.8 1595.6,1122.7 1613.1,1131.2 1631.3,1137.3 1650.4,1141.0 1670.4,1142.4 1691.4,1141.4 1713.4,1138.0 1736.6,1132.3 1761.1,1124.0 1786.9,1113.2 1814.2,1099.8 1843.0,1083.7 1873.6,1064.8 1905.9,1042.8 1940.2,1017.9 1976.6,989.6 2015.1,957.9 2056.0,922.6 2099.4,883.5 2145.5,840.4 2194.3,793.0 2246.1,741.1  A 1064.250,1064.250 0.00 0,0 2242.8,737.8 L 2242.8,737.8 2191.2,790.0 2142.6,837.6 2096.7,880.9 2053.5,920.2 2012.8,955.7 1974.3,987.5 1938.1,1015.9 1903.9,1041.1 1871.7,1063.1 1841.2,1082.2 1812.4,1098.5 1785.2,1112.0 1759.4,1122.9 1735.0,1131.2 1711.9,1137.1 1689.8,1140.6 1668.9,1141.6 1648.9,1140.3 1629.8,1136.7 1611.5,1130.7 1594.0,1122.3 1577.2,1111.4 1560.9,1098.1 1545.3,1082.2 1530.1,1063.7 1515.5,1042.5 1501.2,1018.4 1487.4,991.4 1473.9,961.2 1460.7,927.8 1447.9,890.9 1435.3,850.3 1423.1,806.0 1411.1,757.5 1399.4,704.8 1388.0,647.5 1376.9,585.4 1366.1,518.2 1355.6,445.6  Z" style="stroke-width: 2.0;  stroke: rgb(82,82,82); fill: rgb(255,0,0); opacity: 0.667;" />
<path d="M 1355.561,445.597 A 1064.250,1064.250 0.00 0,1 1359.9,445.0 L 1359.9,445.0 1370.1,517.7 1380.8,584.9 1391.8,647.2 1403.2,704.6 1415.0,757.6 1427.2,806.2 1439.7,850.9 1452.5,891.8 1465.7,929.1 1479.3,962.9 1493.3,993.6 1507.7,1021.2 1522.5,1045.9 1537.8,1067.8 1553.7,1087.0 1570.1,1103.7 1587.1,1117.9 1604.8,1129.7 1623.3,1139.2 1642.6,1146.4 1662.7,1151.3 1683.9,1153.9 1706.0,1154.3 1729.4,1152.4 1753.9,1148.2 1779.8,1141.6 1807.2,1132.7 1836.1,1121.2 1866.8,1107.1 1899.2,1090.4 1933.5,1070.8 1970.0,1048.3 2008.6,1022.6 2049.7,993.7 2093.2,961.4 2139.4,925.4 2188.5,885.5 2240.5,841.6 2295.7,793.3  A 1064.250,1064.250 0.00 0,0 2292.8,790.0 L 2292.8,790.0 2237.8,838.5 2185.9,882.7 2137.0,922.7 2091.0,958.9 2047.6,991.5 2006.7,1020.5 1968.1,1046.3 1931.8,1069.0 1897.5,1088.7 1865.1,1105.6 1834.6,1119.8 1805.7,1131.4 1778.4,1140.5 1752.5,1147.2 1727.9,1151.5 1704.6,1153.5 1682.4,1153.2 1661.3,1150.6 1641.1,1145.8 1621.8,1138.7 1603.3,1129.3 1585.5,1117.6 1568.5,1103.4 1552.0,1086.8 1536.1,1067.6 1520.7,1045.8 1505.7,1021.2 1491.2,993.6 1477.1,963.0 1463.4,929.2 1450.0,892.0 1437.0,851.2 1424.4,806.5 1412.0,757.9 1400.0,705.0 1388.3,647.6 1377.0,585.4 1366.1,518.2 1355.6,445.6  Z" style="stroke-width: 2.0;  stroke: rgb(82,82,82); fill: rgb(255,0,204); opacity: 0.667;" />
<path d="M 1355.561,445.597 A 1064.250,1064.250 0.00 0,1 1359.9,445.0 L 1359.9,445.0 1370.6,518.1 1382.8,586.6 1396.2,650.9 1410.7,711.3 1426.1,768.0 1442.4,821.4 1459.4,871.8 1477.0,919.3 1495.2,964.2 1513.9,1006.8 1533.1,1047.3 1552.7,1085.8 1572.6,1122.7 1593.0,1158.1 1613.7,1192.1 1634.9,1225.0 1656.5,1256.8 1678.6,1287.9 1701.3,1318.1 1724.6,1347.9 1748.6,1377.1 1773.4,1405.9 1799.2,1434.5 1826.1,1462.9 1854.2,1491.1 1883.7,1519.3 1914.8,1547.5 1947.6,1575.7 1982.3,1603.9 2019.2,1632.3 2058.5,1660.6 2100.5,1689.1 2145.3,1717.6 2193.3,1746.1 2244.8,1774.6 2299.9,1803.1 2359.2,1831.4 2422.9,1859.6 2491.2,1887.4  A 1064.250,1064.250 0.00 0,0 2492.8,1883.3 L 2492.8,1883.3 2424.3,1855.7 2360.6,1827.9 2301.2,1799.8 2245.9,1771.6 2194.3,1743.3 2146.2,1714.9 2101.3,1686.6 2059.2,1658.3 2019.8,1630.1 1982.8,1602.0 1947.9,1573.9 1915.0,1545.8 1883.8,1517.8 1854.2,1489.7 1826.0,1461.5 1799.0,1433.3 1773.1,1404.8 1748.1,1376.1 1723.9,1346.9 1700.5,1317.3 1677.7,1287.1 1655.5,1256.2 1633.8,1224.4 1612.5,1191.6 1591.6,1157.7 1571.1,1122.4 1551.0,1085.6 1531.2,1047.1 1511.9,1006.7 1493.1,964.2 1474.7,919.4 1456.8,871.9 1439.6,821.7 1423.1,768.3 1407.5,711.6 1392.7,651.3 1379.1,587.1 1366.6,518.6 1355.6,445.6  Z" style="stroke-width: 2.0;  stroke: rgb(82,82,82); fill: rgb(255,204,204); opacity: 0.667;" />
<path d="M 1355.561,445.597 A 1064.250,1064.250 0.00 0,1 1359.9,445.0 L 1359.9,445.0 1370.8,518.6 1383.6,588.6 1397.7,655.2 1412.9,718.8 1429.0,779.5 1445.7,837.5 1462.7,893.2 1479.9,946.7 1497.1,998.1 1514.0,1047.9 1530.5,1096.0 1546.5,1142.8 1561.8,1188.5 1576.4,1233.2 1590.2,1277.1 1603.1,1320.4 1615.0,1363.3 1626.1,1406.0 1636.1,1448.6 1645.3,1491.3 1653.5,1534.3 1660.9,1577.8 1667.5,1621.8 1673.4,1666.6 1678.8,1712.3 1683.7,1759.1 1688.3,1807.0 1692.9,1856.3 1697.5,1907.0 1702.4,1959.3 1707.8,2013.2 1713.9,2069.1 1721.1,2126.8 1729.6,2186.6 1739.7,2248.6 1751.8,2312.9 1766.1,2379.5 1783.1,2448.5 1803.2,2520.2  A 1064.250,1064.250 0.00 0,0 1807.8,2518.8 L 1807.8,2518.8 1787.4,2447.2 1770.1,2378.3 1755.5,2311.7 1743.1,2247.5 1732.7,2185.6 1724.0,2125.8 1716.5,2068.1 1710.1,2012.3 1704.5,1958.3 1699.3,1906.1 1694.5,1855.4 1689.8,1806.2 1684.9,1758.3 1679.8,1711.5 1674.2,1665.9 1668.1,1621.1 1661.3,1577.1 1653.7,1533.7 1645.3,1490.7 1636.0,1448.0 1625.7,1405.4 1614.5,1362.8 1602.4,1319.9 1589.3,1276.7 1575.3,1232.8 1560.5,1188.2 1545.0,1142.6 1528.8,1095.9 1512.1,1047.8 1495.0,998.1 1477.7,946.7 1460.3,893.3 1443.0,837.8 1426.1,779.8 1409.7,719.1 1394.2,655.6 1379.8,589.0 1366.8,519.1 1355.6,445.6  Z" style="stroke-width: 2.0;  stroke: rgb(82,82,82); fill: rgb(255,153,0); opacity: 0.667;" />
<path d="M 1355.561,445.597 A 1064.250,1064.250 0.00 0,1 1359.9,445.0 L 1359.9,445.0 1369.2,517.7 1377.1,585.0 1383.7,647.3 1389.2,704.8 1393.4,757.7 1396.5,806.3 1398.5,850.9 1399.4,891.5 1399.4,928.5 1398.3,961.9 1396.3,992.0 1393.3,1018.9 1389.4,1042.6 1384.5,1063.4 1378.6,1081.4 1371.8,1096.6 1364.0,1109.1 1355.2,1118.9 1345.3,1126.2 1334.4,1130.9 1322.4,1133.1 1309.1,1132.7 1294.7,1129.8 1279.0,1124.3 1261.9,1116.3 1243.4,1105.5 1223.4,1092.1 1201.9,1075.8 1178.6,1056.6 1153.6,1034.4 1126.7,1009.1 1097.8,980.5 1066.8,948.5 1033.5,912.8 997.9,873.4 959.8,830.0 919.1,782.4 875.6,730.4 829.2,673.8  A 1064.250,1064.250 0.00 0,0 825.8,676.5 L 825.8,676.5 872.5,733.0 916.2,784.8 957.1,832.2 995.4,875.5 1031.1,914.7 1064.5,950.2 1095.7,982.1 1124.7,1010.6 1151.7,1035.9 1176.8,1057.9 1200.2,1077.0 1221.8,1093.2 1241.8,1106.6 1260.4,1117.2 1277.5,1125.2 1293.2,1130.6 1307.7,1133.5 1320.9,1133.8 1332.9,1131.6 1343.8,1126.8 1353.6,1119.5 1362.4,1109.6 1370.2,1097.1 1376.9,1081.9 1382.7,1063.9 1387.5,1043.1 1391.3,1019.3 1394.2,992.4 1396.1,962.3 1397.0,928.9 1396.9,892.0 1395.8,851.3 1393.6,806.8 1390.4,758.2 1385.9,705.2 1380.3,647.8 1373.4,585.5 1365.2,518.2 1355.6,445.6  Z" style="stroke-width: 2.0;  stroke: rgb(82,82,82); fill: rgb(255,204,0); opacity: 0.667;" />
<path d="M 1355.561,445.597 A 1064.250,1064.250 0.00 0,1 1359.9,445.0 L 1359.9,445.0 1369.2,517.7 1377.1,585.0 1383.8,647.3 1389.2,704.7 1393.5,757.7 1396.6,806.3 1398.7,850.8 1399.7,891.4 1399.7,928.3 1398.8,961.7 1396.8,991.7 1393.9,1018.5 1390.1,1042.2 1385.3,1062.9 1379.6,1080.8 1372.9,1095.9 1365.2,1108.3 1356.6,1118.0 1346.9,1125.1 1336.1,1129.7 1324.2,1131.8 1311.2,1131.2 1297.0,1128.2 1281.5,1122.5 1264.6,1114.3 1246.4,1103.3 1226.6,1089.7 1205.3,1073.2 1182.3,1053.8 1157.6,1031.3 1131.0,1005.7 1102.5,976.8 1071.8,944.4 1039.0,908.5 1003.8,868.7 966.2,824.9 926.0,776.9 883.0,724.5 837.1,667.4  A 1064.250,1064.250 0.00 0,0 833.6,670.2 L 833.6,670.2 879.7,727.1 922.9,779.4 963.3,827.2 1001.2,870.8 1036.5,910.4 1069.5,946.3 1100.3,978.5 1129.0,1007.3 1155.6,1032.8 1180.5,1055.1 1203.5,1074.4 1224.9,1090.8 1244.7,1104.4 1263.0,1115.3 1279.9,1123.5 1295.4,1129.0 1309.7,1132.0 1322.7,1132.5 1334.6,1130.4 1345.3,1125.8 1355.0,1118.6 1363.6,1108.8 1371.2,1096.4 1377.9,1081.3 1383.5,1063.4 1388.2,1042.6 1392.0,1018.9 1394.8,992.1 1396.6,962.1 1397.4,928.7 1397.2,891.8 1396.1,851.2 1393.8,806.7 1390.5,758.1 1386.0,705.2 1380.3,647.7 1373.4,585.5 1365.2,518.2 1355.6,445.6  Z" style="stroke-width: 2.0;  stroke: rgb(82,82,82); fill: rgb(255,255,0); opacity: 0.667;" />
<path d="M 1355.561,445.597 A 1064.250,1064.250 0.00 0,1 1359.9,445.0 L 1359.9,445.0 1369.4,517.6 1378.2,584.7 1386.1,646.5 1393.2,703.4 1399.6,755.6 1405.3,803.3 1410.3,846.7 1414.7,886.1 1418.4,921.6 1421.6,953.3 1424.1,981.5 1426.1,1006.2 1427.6,1027.6 1428.5,1045.8 1428.9,1060.9 1428.8,1073.0 1428.1,1082.1 1427.0,1088.3 1425.3,1091.6 1423.1,1092.0 1420.3,1089.5 1417.0,1084.2 1413.1,1075.9 1408.7,1064.7 1403.6,1050.5 1397.9,1033.1 1391.6,1012.6 1384.6,988.8 1376.9,961.6 1368.4,930.8 1359.2,896.4 1349.1,858.1 1338.2,815.8 1326.4,769.2 1313.6,718.2 1299.8,662.6 1285.0,602.0 1269.0,536.2 1251.9,465.1  A 1064.250,1064.250 0.00 0,0 1247.6,466.1 L 1247.6,466.1 1265.1,537.2 1281.3,602.9 1296.4,663.4 1310.4,719.0 1323.4,769.9 1335.4,816.5 1346.5,858.7 1356.7,897.0 1366.1,931.4 1374.6,962.1 1382.5,989.3 1389.6,1013.1 1396.0,1033.6 1401.7,1050.9 1406.9,1065.1 1411.4,1076.3 1415.3,1084.5 1418.6,1089.9 1421.4,1092.3 1423.6,1091.9 1425.3,1088.6 1426.4,1082.4 1427.0,1073.3 1427.1,1061.2 1426.7,1046.1 1425.7,1027.9 1424.1,1006.5 1422.0,981.8 1419.3,953.6 1416.0,921.9 1412.2,886.5 1407.6,847.1 1402.4,803.7 1396.6,756.0 1389.9,703.9 1382.6,647.0 1374.4,585.2 1365.4,518.1 1355.6,445.6  Z" style="stroke-width: 2.0;  stroke: rgb(82,82,82); fill: rgb(204,255,0); opacity: 0.667;" />
<path d="M 2268.487,763.756 A 1064.250,1064.250 0.00 0,1 2274.2,769.8 L 2274.2,769.8 2220.8,819.9 2171.0,865.8 2124.7,907.8 2081.6,946.0 2041.7,980.7 2004.7,1012.0 1970.6,1040.1 1939.1,1065.1 1910.1,1087.1 1883.6,1106.4 1859.3,1122.9 1837.2,1136.8 1817.2,1148.2 1799.1,1157.1 1783.0,1163.5 1768.7,1167.6 1756.2,1169.4 1745.3,1168.8 1736.2,1165.9 1728.6,1160.7 1722.7,1153.2 1718.3,1143.3 1715.5,1130.9 1714.3,1116.1 1714.6,1098.7 1716.5,1078.7 1720.0,1055.9 1725.2,1030.3 1732.0,1001.8 1740.6,970.1 1751.0,935.2 1763.2,896.9 1777.3,855.0 1793.5,809.4 1811.8,759.7 1832.3,705.9 1855.1,647.7 1880.4,584.9 1908.2,517.2  A 1064.250,1064.250 0.00 0,0 1900.5,514.0 L 1900.5,514.0 1873.2,581.9 1848.4,645.0 1826.0,703.3 1806.0,757.3 1788.1,807.1 1772.3,852.9 1758.4,894.9 1746.5,933.3 1736.4,968.2 1728.1,1000.0 1721.5,1028.6 1716.5,1054.2 1713.2,1077.0 1711.4,1097.0 1711.3,1114.4 1712.6,1129.2 1715.5,1141.6 1719.9,1151.5 1725.9,1159.0 1733.5,1164.1 1742.7,1166.9 1753.5,1167.4 1766.1,1165.5 1780.3,1161.3 1796.4,1154.7 1814.4,1145.7 1834.3,1134.2 1856.3,1120.1 1880.5,1103.4 1906.9,1083.9 1935.7,1061.6 1967.0,1036.4 2000.9,1008.0 2037.6,976.4 2077.3,941.4 2120.0,902.9 2166.0,860.5 2215.4,814.2 2268.5,763.8  Z" style="stroke-width: 2.0;  stroke: rgb(82,82,82); fill: rgb(0,255,0); opacity: 0.667;" />
<path d="M 1966.892,543.632 A 1064.250,1064.250 0.00 0,1 1975.5,547.9 L 1975.5,547.9 1942.5,613.3 1911.6,673.5 1882.5,728.9 1855.3,779.6 1829.8,825.9 1805.8,868.0 1783.4,906.2 1762.5,940.5 1742.9,971.2 1724.5,998.4 1707.4,1022.2 1691.4,1042.9 1676.5,1060.5 1662.6,1075.0 1649.7,1086.6 1637.6,1095.4 1626.5,1101.4 1616.1,1104.6 1606.5,1105.0 1597.6,1102.7 1589.4,1097.7 1581.8,1089.9 1574.9,1079.3 1568.6,1065.8 1562.9,1049.3 1557.7,1029.9 1553.2,1007.3 1549.1,981.5 1545.7,952.3 1542.8,919.6 1540.4,883.3 1538.6,843.1 1537.4,798.9 1536.8,750.5 1536.8,697.6 1537.5,640.0 1538.8,577.5 1540.8,509.8 1543.5,436.6  A 1064.250,1064.250 0.00 0,0 1534.0,436.3 L 1534.0,436.3 1531.9,509.5 1530.5,577.2 1529.8,639.7 1529.6,697.3 1530.1,750.2 1531.1,798.6 1532.7,842.8 1534.9,883.0 1537.6,919.3 1540.8,951.9 1544.5,981.1 1548.7,1006.8 1553.5,1029.4 1558.8,1048.8 1564.7,1065.2 1571.1,1078.6 1578.1,1089.2 1585.7,1096.9 1594.0,1101.9 1602.9,1104.1 1612.5,1103.5 1622.9,1100.3 1634.0,1094.2 1646.0,1085.3 1658.8,1073.6 1672.6,1058.9 1687.3,1041.2 1703.1,1020.4 1720.0,996.4 1738.1,969.0 1757.4,938.1 1778.1,903.6 1800.1,865.3 1823.7,823.0 1848.8,776.4 1875.6,725.5 1904.1,669.8 1934.5,609.3 1966.9,543.6  Z" style="stroke-width: 2.0;  stroke: rgb(82,82,82); fill: rgb(53,128,0); opacity: 0.667;" />
</g>
<defs>
<pattern id="hline-sparse" width="10" height="10" patternTransform="rotate(0 0 0)" patternUnits="userSpaceOnUse"><line x1="0" y1="0" x2="10" y2="0" style="stroke:black;stroke-width:2" /></pattern>
<pattern id="checker" width="10" height="10" patternTransform="rotate(45 0 0)" patternUnits="userSpaceOnUse"><line x1="0" y1="0" x2="10" y2="0" style="stroke:black;stroke-width:2" /><line x1="0" y1="0" x2="0" y2="10" style="stroke:black;stroke-width:2" /></pattern>
<pattern id="checker" width="10" height="10" patternTransform="rotate(45 0 0)" patternUnits="userSpaceOnUse"><line x1="0" y1="0" x2="10" y2="0" style="stroke:black;stroke-width:5" /><line x1="0" y1="0" x2="0" y2="10" style="stroke:black;stroke-width:4" /></pattern>
<pattern id="hline" width="10" height="10" patternTransform="rotate(0 0 0)" patternUnits="userSpaceOnUse"><line x1="0" y1="0" x2="10" y2="0" style="stroke:black;stroke-width:5" /></pattern>
<pattern id="vline-sparse" width="10" height="10" patternTransform="rotate(0 0 0)" patternUnits="userSpaceOnUse"><line x1="0" y1="0" x2="0" y2="10" style="stroke:black;stroke-width:2" /></pattern>
<pattern id="vline" width="10" height="10" patternTransform="rotate(0 0 0)" patternUnits="userSpaceOnUse"><line x1="0" y1="0" x2="0" y2="10" style="stroke:black;stroke-width:5" /></pattern>
</defs>
</svg>
