<?xml version="1.0" encoding="utf-8" standalone="no"?>
<!DOCTYPE svg PUBLIC "-//W3C//DTD SVG 1.1//EN" "http://www.w3.org/Graphics/SVG/1.1/DTD/svg11.dtd">
<svg width="3000px" height="3000px" version="1.1" xmlns="http://www.w3.org/2000/svg" xmlns:xlink="http://www.w3.org/1999/xlink">
<g id="ideograms">
<path d="M1500.000,425.000 A1075.000,1075.000 40.000 0,1 1777.652,461.475 L1790.566,413.172 A1125.000,1125.000 0.000 0,0 1500.000,375.000 Z" style="stroke-linecap:round;fill:rgb(116,196,118);fill-opacity:0.33;" />
<text x="1667.7" y="296.6" font-size="18.2px" font-family="CMUBright-Roman" style="text-anchor:start;fill:rgb(0,0,0);" transform="rotate(277.5,1667.7,296.6)" >R<tspan baseline-shift="-40%" font-size="90%">s</tspan>caffold<tspan baseline-shift="-40%" font-size="90%">8</tspan></text>
<line x1='1500.0' y1='375.0' x2='1500.0' y2='355.0' style="stroke-width:4.0;stroke:rgb(0,0,0);stroke-linecap:round;fill:none;" />
<text x="1506.5" y="345.0" font-size="18.2px" font-family="CMUBright-Roman" style="text-anchor:start;fill:rgb(0,0,0);" transform="rotate(270.0,1506.5,345.0)" >0</text>
<line x1='1562.3' y1='376.7' x2='1563.4' y2='356.8' style="stroke-width:4.0;stroke:rgb(0,0,0);stroke-linecap:round;fill:none;" />
<text x="1570.5" y="347.2" font-size="18.2px" font-family="CMUBright-Roman" style="text-anchor:start;fill:rgb(0,0,0);" transform="rotate(273.2,1570.5,347.2)" >50</text>
<line x1='1624.5' y1='381.9' x2='1626.7' y2='362.0' style="stroke-width:4.0;stroke:rgb(0,0,0);stroke-linecap:round;fill:none;" />
<text x="1634.3" y="352.8" font-size="18.2px" font-family="CMUBright-Roman" style="text-anchor:start;fill:rgb(0,0,0);" transform="rotate(276.4,1634.3,352.8)" >100</text>
<line x1='1686.3' y1='390.5' x2='1689.6' y2='370.8' style="stroke-width:4.0;stroke:rgb(0,0,0);stroke-linecap:round;fill:none;" />
<text x="1697.6" y="362.0" font-size="18.2px" font-family="CMUBright-Roman" style="text-anchor:start;fill:rgb(0,0,0);" transform="rotate(279.5,1697.6,362.0)" >150</text>
<line x1='1747.4' y1='402.6' x2='1751.8' y2='383.0' style="stroke-width:4.0;stroke:rgb(0,0,0);stroke-linecap:round;fill:none;" />
<text x="1760.4" y="374.7" font-size="18.2px" font-family="CMUBright-Roman" style="text-anchor:start;fill:rgb(0,0,0);" transform="rotate(282.7,1760.4,374.7)" >200</text>
<g id="highlighttrack_0">
<path d="M1520.422,425.194 A1075.000,1075.000 40.000 0,1 1536.631,425.624 L1538.335,375.653 A1125.000,1125.000 0.000 0,0 1521.372,375.203 Z" style="stroke-width:4.0;stroke:rgb(0,0,0);stroke-linecap:round;fill:rgb(251,106,74);" />
</g>
<path d="M1838.688,479.747 A1075.000,1075.000 40.000 0,1 2039.606,570.242 L2064.704,526.997 A1125.000,1125.000 0.000 0,0 1854.441,432.294 Z" style="stroke-linecap:round;fill:rgb(116,196,118);fill-opacity:0.33;" />
<text x="2007.6" y="396.1" font-size="18.2px" font-family="CMUBright-Roman" style="text-anchor:start;fill:rgb(0,0,0);" transform="rotate(294.2,2007.6,396.1)" >R<tspan baseline-shift="-40%" font-size="90%">s</tspan>caffold<tspan baseline-shift="-40%" font-size="90%">1</tspan>0</text>
<line x1='1854.4' y1='432.3' x2='1860.7' y2='413.3' style="stroke-width:4.0;stroke:rgb(0,0,0);stroke-linecap:round;fill:none;" />
<text x="1870.1" y="405.9" font-size="18.2px" font-family="CMUBright-Roman" style="text-anchor:start;fill:rgb(0,0,0);" transform="rotate(288.4,1870.1,405.9)" >0</text>
<line x1='1913.1' y1='453.6' x2='1920.4' y2='435.0' style="stroke-width:4.0;stroke:rgb(0,0,0);stroke-linecap:round;fill:none;" />
<text x="1930.1" y="428.1" font-size="18.2px" font-family="CMUBright-Roman" style="text-anchor:start;fill:rgb(0,0,0);" transform="rotate(291.5,1930.1,428.1)" >50</text>
<line x1='1970.4' y1='478.1' x2='1978.8' y2='459.9' style="stroke-width:4.0;stroke:rgb(0,0,0);stroke-linecap:round;fill:none;" />
<text x="1988.9" y="453.6" font-size="18.2px" font-family="CMUBright-Roman" style="text-anchor:start;fill:rgb(0,0,0);" transform="rotate(294.7,1988.9,453.6)" >100</text>
<line x1='2026.3' y1='505.7' x2='2035.7' y2='488.0' style="stroke-width:4.0;stroke:rgb(0,0,0);stroke-linecap:round;fill:none;" />
<text x="2046.1" y="482.3" font-size="18.2px" font-family="CMUBright-Roman" style="text-anchor:start;fill:rgb(0,0,0);" transform="rotate(297.9,2046.1,482.3)" >150</text>
<g id="highlighttrack_0">
<path d="M2007.944,552.573 A1075.000,1075.000 40.000 0,1 2023.497,561.077 L2047.846,517.407 A1125.000,1125.000 0.000 0,0 2031.570,508.507 Z" style="stroke-width:4.0;stroke:rgb(0,0,0);stroke-linecap:round;fill:rgb(116,196,118);" />
</g>
<path d="M2093.737,603.841 A1075.000,1075.000 40.000 0,1 2183.521,670.286 L2215.312,631.695 A1125.000,1125.000 0.000 0,0 2121.353,562.159 Z" style="stroke-linecap:round;fill:rgb(116,196,118);fill-opacity:0.33;" />
<text x="2230.4" y="529.0" font-size="18.2px" font-family="CMUBright-Roman" style="text-anchor:start;fill:rgb(0,0,0);" transform="rotate(306.5,2230.4,529.0)" >R<tspan baseline-shift="-40%" font-size="90%">s</tspan>caffold<tspan baseline-shift="-40%" font-size="90%">1</tspan>7</text>
<line x1='2121.4' y1='562.2' x2='2132.4' y2='545.5' style="stroke-width:4.0;stroke:rgb(0,0,0);stroke-linecap:round;fill:none;" />
<text x="2143.3" y="540.8" font-size="18.2px" font-family="CMUBright-Roman" style="text-anchor:start;fill:rgb(0,0,0);" transform="rotate(303.5,2143.3,540.8)" >0</text>
<line x1='2172.4' y1='598.0' x2='2184.3' y2='582.0' style="stroke-width:4.0;stroke:rgb(0,0,0);stroke-linecap:round;fill:none;" />
<text x="2195.5" y="577.9" font-size="18.2px" font-family="CMUBright-Roman" style="text-anchor:start;fill:rgb(0,0,0);" transform="rotate(306.7,2195.5,577.9)" >50</text>
<g id="highlighttrack_0">
<path d="M2166.520,656.569 A1075.000,1075.000 40.000 0,1 2169.219,658.709 L2200.345,619.579 A1125.000,1125.000 0.000 0,0 2197.521,617.340 Z" style="stroke-width:4.0;stroke:rgb(0,0,0);stroke-linecap:round;fill:rgb(251,106,74);" />
</g>
<path d="M2231.473,712.236 A1075.000,1075.000 40.000 0,1 2257.460,737.190 L2292.691,701.711 A1125.000,1125.000 0.000 0,0 2265.495,675.596 Z" style="stroke-linecap:round;fill:rgb(116,196,118);fill-opacity:0.33;" />
<text x="2348.4" y="630.2" font-size="18.2px" font-family="CMUBright-Roman" style="text-anchor:start;fill:rgb(0,0,0);" transform="rotate(313.8,2348.4,630.2)" >R<tspan baseline-shift="-40%" font-size="90%">s</tspan>caffold<tspan baseline-shift="-40%" font-size="90%">1</tspan>9</text>
<line x1='2265.5' y1='675.6' x2='2279.1' y2='660.9' style="stroke-width:4.0;stroke:rgb(0,0,0);stroke-linecap:round;fill:none;" />
<text x="2290.7" y="658.0" font-size="18.2px" font-family="CMUBright-Roman" style="text-anchor:start;fill:rgb(0,0,0);" transform="rotate(312.9,2290.7,658.0)" >0</text>
<g id="highlighttrack_0">
<path d="M2241.051,721.239 A1075.000,1075.000 40.000 0,1 2242.826,722.932 L2277.376,686.789 A1125.000,1125.000 0.000 0,0 2275.518,685.018 Z" style="stroke-width:4.0;stroke:rgb(0,0,0);stroke-linecap:round;fill:rgb(116,196,118);" />
</g>
<path d="M2301.319,783.402 A1075.000,1075.000 40.000 0,1 2304.620,787.111 L2342.045,753.953 A1125.000,1125.000 0.000 0,0 2338.590,750.072 Z" style="stroke-linecap:round;fill:rgb(116,196,118);fill-opacity:0.33;" />
<text x="2413.8" y="699.3" font-size="18.2px" font-family="CMUBright-Roman" style="text-anchor:start;fill:rgb(0,0,0);" transform="rotate(318.3,2413.8,699.3)" >R<tspan baseline-shift="-40%" font-size="90%">s</tspan>caffold<tspan baseline-shift="-40%" font-size="90%">2</tspan>4</text>
<line x1='2338.6' y1='750.1' x2='2353.5' y2='736.7' style="stroke-width:4.0;stroke:rgb(0,0,0);stroke-linecap:round;fill:none;" />
<text x="2365.3" y="734.9" font-size="18.2px" font-family="CMUBright-Roman" style="text-anchor:start;fill:rgb(0,0,0);" transform="rotate(318.2,2365.3,734.9)" >0</text>
<g id="highlighttrack_0">
<path d="M2302.129,784.309 A1075.000,1075.000 40.000 0,1 2304.433,786.899 L2341.848,753.732 A1125.000,1125.000 0.000 0,0 2339.438,751.021 Z" style="stroke-width:4.0;stroke:rgb(0,0,0);stroke-linecap:round;fill:rgb(251,106,74);" />
</g>
<path d="M2345.439,836.029 A1075.000,1075.000 40.000 1,1 1436.316,426.888 L1433.354,376.976 A1125.000,1125.000 0.000 1,0 2384.762,805.147 Z" style="stroke-linecap:round;fill:rgb(116,196,118);fill-opacity:0.33;" />
<text x="1010.0" y="2611.8" font-size="18.2px" font-family="CMUBright-Roman" style="text-anchor:end;fill:rgb(0,0,0);" transform="rotate(-65.8,1010.0,2611.8)" >NZ<tspan baseline-shift="-40%" font-size="90%">C</tspan>P034246.1</text>
<line x1='2384.8' y1='805.1' x2='2400.5' y2='792.8' style="stroke-width:4.0;stroke:rgb(0,0,0);stroke-linecap:round;fill:none;" />
<text x="2412.4" y="791.7" font-size="18.2px" font-family="CMUBright-Roman" style="text-anchor:start;fill:rgb(0,0,0);" transform="rotate(321.9,2412.4,791.7)" >0</text>
<line x1='2421.9' y1='855.2' x2='2438.3' y2='843.8' style="stroke-width:4.0;stroke:rgb(0,0,0);stroke-linecap:round;fill:none;" />
<text x="2450.2" y="843.4" font-size="18.2px" font-family="CMUBright-Roman" style="text-anchor:start;fill:rgb(0,0,0);" transform="rotate(325.0,2450.2,843.4)" >50</text>
<line x1='2456.2' y1='907.3' x2='2473.2' y2='896.8' style="stroke-width:4.0;stroke:rgb(0,0,0);stroke-linecap:round;fill:none;" />
<text x="2485.1" y="897.0" font-size="18.2px" font-family="CMUBright-Roman" style="text-anchor:start;fill:rgb(0,0,0);" transform="rotate(328.2,2485.1,897.0)" >100</text>
<line x1='2487.6' y1='961.2' x2='2505.1' y2='951.6' style="stroke-width:4.0;stroke:rgb(0,0,0);stroke-linecap:round;fill:none;" />
<text x="2517.0" y="952.6" font-size="18.2px" font-family="CMUBright-Roman" style="text-anchor:start;fill:rgb(0,0,0);" transform="rotate(331.4,2517.0,952.6)" >150</text>
<line x1='2515.9' y1='1016.8' x2='2534.0' y2='1008.2' style="stroke-width:4.0;stroke:rgb(0,0,0);stroke-linecap:round;fill:none;" />
<text x="2545.8" y="1009.8" font-size="18.2px" font-family="CMUBright-Roman" style="text-anchor:start;fill:rgb(0,0,0);" transform="rotate(334.6,2545.8,1009.8)" >200</text>
<line x1='2541.1' y1='1073.8' x2='2559.7' y2='1066.2' style="stroke-width:4.0;stroke:rgb(0,0,0);stroke-linecap:round;fill:none;" />
<text x="2571.4" y="1068.5" font-size="18.2px" font-family="CMUBright-Roman" style="text-anchor:start;fill:rgb(0,0,0);" transform="rotate(337.7,2571.4,1068.5)" >250</text>
<line x1='2563.2' y1='1132.2' x2='2582.1' y2='1125.6' style="stroke-width:4.0;stroke:rgb(0,0,0);stroke-linecap:round;fill:none;" />
<text x="2593.6" y="1128.5" font-size="18.2px" font-family="CMUBright-Roman" style="text-anchor:start;fill:rgb(0,0,0);" transform="rotate(340.9,2593.6,1128.5)" >300</text>
<line x1='2581.9' y1='1191.6' x2='2601.1' y2='1186.2' style="stroke-width:4.0;stroke:rgb(0,0,0);stroke-linecap:round;fill:none;" />
<text x="2612.5" y="1189.7" font-size="18.2px" font-family="CMUBright-Roman" style="text-anchor:start;fill:rgb(0,0,0);" transform="rotate(344.1,2612.5,1189.7)" >350</text>
<line x1='2597.3' y1='1252.1' x2='2616.8' y2='1247.7' style="stroke-width:4.0;stroke:rgb(0,0,0);stroke-linecap:round;fill:none;" />
<text x="2628.0" y="1251.8" font-size="18.2px" font-family="CMUBright-Roman" style="text-anchor:start;fill:rgb(0,0,0);" transform="rotate(347.3,2628.0,1251.8)" >400</text>
<line x1='2609.4' y1='1313.2' x2='2629.1' y2='1309.9' style="stroke-width:4.0;stroke:rgb(0,0,0);stroke-linecap:round;fill:none;" />
<text x="2640.0" y="1314.7" font-size="18.2px" font-family="CMUBright-Roman" style="text-anchor:start;fill:rgb(0,0,0);" transform="rotate(350.4,2640.0,1314.7)" >450</text>
<line x1='2618.0' y1='1375.0' x2='2637.9' y2='1372.8' style="stroke-width:4.0;stroke:rgb(0,0,0);stroke-linecap:round;fill:none;" />
<text x="2648.6" y="1378.1" font-size="18.2px" font-family="CMUBright-Roman" style="text-anchor:start;fill:rgb(0,0,0);" transform="rotate(353.6,2648.6,1378.1)" >500</text>
<line x1='2623.2' y1='1437.2' x2='2643.2' y2='1436.0' style="stroke-width:4.0;stroke:rgb(0,0,0);stroke-linecap:round;fill:none;" />
<text x="2653.5" y="1442.0" font-size="18.2px" font-family="CMUBright-Roman" style="text-anchor:start;fill:rgb(0,0,0);" transform="rotate(356.8,2653.5,1442.0)" >550</text>
<line x1='2625.0' y1='1499.5' x2='2645.0' y2='1499.5' style="stroke-width:4.0;stroke:rgb(0,0,0);stroke-linecap:round;fill:none;" />
<text x="2655.0" y="1506.0" font-size="18.2px" font-family="CMUBright-Roman" style="text-anchor:start;fill:rgb(0,0,0);" transform="rotate(360.0,2655.0,1506.0)" >600</text>
<line x1='2623.3' y1='1561.8' x2='2643.3' y2='1562.9' style="stroke-width:4.0;stroke:rgb(0,0,0);stroke-linecap:round;fill:none;" />
<text x="2652.9" y="1570.0" font-size="18.2px" font-family="CMUBright-Roman" style="text-anchor:start;fill:rgb(0,0,0);" transform="rotate(3.2,2652.9,1570.0)" >650</text>
<line x1='2618.1' y1='1624.0' x2='2638.0' y2='1626.2' style="stroke-width:4.0;stroke:rgb(0,0,0);stroke-linecap:round;fill:none;" />
<text x="2647.2" y="1633.8" font-size="18.2px" font-family="CMUBright-Roman" style="text-anchor:start;fill:rgb(0,0,0);" transform="rotate(6.3,2647.2,1633.8)" >700</text>
<line x1='2609.6' y1='1685.8' x2='2629.3' y2='1689.1' style="stroke-width:4.0;stroke:rgb(0,0,0);stroke-linecap:round;fill:none;" />
<text x="2638.1" y="1697.1" font-size="18.2px" font-family="CMUBright-Roman" style="text-anchor:start;fill:rgb(0,0,0);" transform="rotate(9.5,2638.1,1697.1)" >750</text>
<line x1='2597.6' y1='1747.0' x2='2617.1' y2='1751.3' style="stroke-width:4.0;stroke:rgb(0,0,0);stroke-linecap:round;fill:none;" />
<text x="2625.4" y="1759.9" font-size="18.2px" font-family="CMUBright-Roman" style="text-anchor:start;fill:rgb(0,0,0);" transform="rotate(12.7,2625.4,1759.9)" >800</text>
<line x1='2582.2' y1='1807.4' x2='2601.4' y2='1812.9' style="stroke-width:4.0;stroke:rgb(0,0,0);stroke-linecap:round;fill:none;" />
<text x="2609.3" y="1821.8" font-size="18.2px" font-family="CMUBright-Roman" style="text-anchor:start;fill:rgb(0,0,0);" transform="rotate(15.9,2609.3,1821.8)" >850</text>
<line x1='2563.5' y1='1866.9' x2='2582.4' y2='1873.4' style="stroke-width:4.0;stroke:rgb(0,0,0);stroke-linecap:round;fill:none;" />
<text x="2589.7" y="1882.8" font-size="18.2px" font-family="CMUBright-Roman" style="text-anchor:start;fill:rgb(0,0,0);" transform="rotate(19.0,2589.7,1882.8)" >900</text>
<line x1='2541.5' y1='1925.3' x2='2560.0' y2='1932.8' style="stroke-width:4.0;stroke:rgb(0,0,0);stroke-linecap:round;fill:none;" />
<text x="2566.8" y="1942.6" font-size="18.2px" font-family="CMUBright-Roman" style="text-anchor:start;fill:rgb(0,0,0);" transform="rotate(22.2,2566.8,1942.6)" >950</text>
<line x1='2516.4' y1='1982.3' x2='2534.4' y2='1990.9' style="stroke-width:4.0;stroke:rgb(0,0,0);stroke-linecap:round;fill:none;" />
<text x="2540.7" y="2001.0" font-size="18.2px" font-family="CMUBright-Roman" style="text-anchor:start;fill:rgb(0,0,0);" transform="rotate(25.4,2540.7,2001.0)" >1000</text>
<line x1='2488.1' y1='2037.9' x2='2505.6' y2='2047.5' style="stroke-width:4.0;stroke:rgb(0,0,0);stroke-linecap:round;fill:none;" />
<text x="2511.3" y="2057.9" font-size="18.2px" font-family="CMUBright-Roman" style="text-anchor:start;fill:rgb(0,0,0);" transform="rotate(28.6,2511.3,2057.9)" >1050</text>
<line x1='2456.7' y1='2091.8' x2='2473.8' y2='2102.3' style="stroke-width:4.0;stroke:rgb(0,0,0);stroke-linecap:round;fill:none;" />
<text x="2478.8" y="2113.1" font-size="18.2px" font-family="CMUBright-Roman" style="text-anchor:start;fill:rgb(0,0,0);" transform="rotate(31.7,2478.8,2113.1)" >1100</text>
<line x1='2422.5' y1='2143.9' x2='2438.9' y2='2155.4' style="stroke-width:4.0;stroke:rgb(0,0,0);stroke-linecap:round;fill:none;" />
<text x="2443.3" y="2166.4" font-size="18.2px" font-family="CMUBright-Roman" style="text-anchor:start;fill:rgb(0,0,0);" transform="rotate(34.9,2443.3,2166.4)" >1150</text>
<line x1='2385.4' y1='2194.1' x2='2401.1' y2='2206.4' style="stroke-width:4.0;stroke:rgb(0,0,0);stroke-linecap:round;fill:none;" />
<text x="2405.0" y="2217.7" font-size="18.2px" font-family="CMUBright-Roman" style="text-anchor:start;fill:rgb(0,0,0);" transform="rotate(38.1,2405.0,2217.7)" >1200</text>
<line x1='2345.6' y1='2242.1' x2='2360.6' y2='2255.3' style="stroke-width:4.0;stroke:rgb(0,0,0);stroke-linecap:round;fill:none;" />
<text x="2363.8" y="2266.7" font-size="18.2px" font-family="CMUBright-Roman" style="text-anchor:start;fill:rgb(0,0,0);" transform="rotate(41.3,2363.8,2266.7)" >1250</text>
<line x1='2303.1' y1='2287.8' x2='2317.4' y2='2301.8' style="stroke-width:4.0;stroke:rgb(0,0,0);stroke-linecap:round;fill:none;" />
<text x="2320.0" y="2313.4" font-size="18.2px" font-family="CMUBright-Roman" style="text-anchor:start;fill:rgb(0,0,0);" transform="rotate(44.4,2320.0,2313.4)" >1300</text>
<line x1='2258.3' y1='2331.1' x2='2271.7' y2='2345.8' style="stroke-width:4.0;stroke:rgb(0,0,0);stroke-linecap:round;fill:none;" />
<text x="2273.7" y="2357.6" font-size="18.2px" font-family="CMUBright-Roman" style="text-anchor:start;fill:rgb(0,0,0);" transform="rotate(47.6,2273.7,2357.6)" >1350</text>
<line x1='2211.0' y1='2371.8' x2='2223.7' y2='2387.3' style="stroke-width:4.0;stroke:rgb(0,0,0);stroke-linecap:round;fill:none;" />
<text x="2225.0" y="2399.2" font-size="18.2px" font-family="CMUBright-Roman" style="text-anchor:start;fill:rgb(0,0,0);" transform="rotate(50.8,2225.0,2399.2)" >1400</text>
<line x1='2161.6' y1='2409.9' x2='2173.4' y2='2426.0' style="stroke-width:4.0;stroke:rgb(0,0,0);stroke-linecap:round;fill:none;" />
<text x="2174.0" y="2437.9" font-size="18.2px" font-family="CMUBright-Roman" style="text-anchor:start;fill:rgb(0,0,0);" transform="rotate(54.0,2174.0,2437.9)" >1450</text>
<line x1='2110.2' y1='2445.1' x2='2121.0' y2='2461.9' style="stroke-width:4.0;stroke:rgb(0,0,0);stroke-linecap:round;fill:none;" />
<text x="2121.0" y="2473.8" font-size="18.2px" font-family="CMUBright-Roman" style="text-anchor:start;fill:rgb(0,0,0);" transform="rotate(57.2,2121.0,2473.8)" >1500</text>
<line x1='2056.9' y1='2477.5' x2='2066.8' y2='2494.9' style="stroke-width:4.0;stroke:rgb(0,0,0);stroke-linecap:round;fill:none;" />
<text x="2066.1" y="2506.8" font-size="18.2px" font-family="CMUBright-Roman" style="text-anchor:start;fill:rgb(0,0,0);" transform="rotate(60.3,2066.1,2506.8)" >1550</text>
<line x1='2001.9' y1='2506.9' x2='2010.8' y2='2524.8' style="stroke-width:4.0;stroke:rgb(0,0,0);stroke-linecap:round;fill:none;" />
<text x="2009.4" y="2536.6" font-size="18.2px" font-family="CMUBright-Roman" style="text-anchor:start;fill:rgb(0,0,0);" transform="rotate(63.5,2009.4,2536.6)" >1600</text>
<line x1='1945.3' y1='2533.1' x2='1953.2' y2='2551.5' style="stroke-width:4.0;stroke:rgb(0,0,0);stroke-linecap:round;fill:none;" />
<text x="1951.2" y="2563.2" font-size="18.2px" font-family="CMUBright-Roman" style="text-anchor:start;fill:rgb(0,0,0);" transform="rotate(66.7,1951.2,2563.2)" >1650</text>
<line x1='1887.4' y1='2556.2' x2='1894.3' y2='2575.0' style="stroke-width:4.0;stroke:rgb(0,0,0);stroke-linecap:round;fill:none;" />
<text x="1891.6" y="2586.6" font-size="18.2px" font-family="CMUBright-Roman" style="text-anchor:start;fill:rgb(0,0,0);" transform="rotate(69.9,1891.6,2586.6)" >1700</text>
<line x1='1828.2' y1='2576.0' x2='1834.1' y2='2595.2' style="stroke-width:4.0;stroke:rgb(0,0,0);stroke-linecap:round;fill:none;" />
<text x="1830.8" y="2606.6" font-size="18.2px" font-family="CMUBright-Roman" style="text-anchor:start;fill:rgb(0,0,0);" transform="rotate(73.0,1830.8,2606.6)" >1750</text>
<line x1='1768.1' y1='2592.6' x2='1772.9' y2='2612.0' style="stroke-width:4.0;stroke:rgb(0,0,0);stroke-linecap:round;fill:none;" />
<text x="1768.9" y="2623.3" font-size="18.2px" font-family="CMUBright-Roman" style="text-anchor:start;fill:rgb(0,0,0);" transform="rotate(76.2,1768.9,2623.3)" >1800</text>
<line x1='1707.2' y1='2605.8' x2='1710.8' y2='2625.4' style="stroke-width:4.0;stroke:rgb(0,0,0);stroke-linecap:round;fill:none;" />
<text x="1706.3" y="2636.4" font-size="18.2px" font-family="CMUBright-Roman" style="text-anchor:start;fill:rgb(0,0,0);" transform="rotate(79.4,1706.3,2636.4)" >1850</text>
<line x1='1645.6' y1='2615.5' x2='1648.2' y2='2635.4' style="stroke-width:4.0;stroke:rgb(0,0,0);stroke-linecap:round;fill:none;" />
<text x="1643.0" y="2646.1" font-size="18.2px" font-family="CMUBright-Roman" style="text-anchor:start;fill:rgb(0,0,0);" transform="rotate(82.6,1643.0,2646.1)" >1900</text>
<line x1='1583.5' y1='2621.9' x2='1585.0' y2='2641.8' style="stroke-width:4.0;stroke:rgb(0,0,0);stroke-linecap:round;fill:none;" />
<text x="1579.3" y="2652.3" font-size="18.2px" font-family="CMUBright-Roman" style="text-anchor:start;fill:rgb(0,0,0);" transform="rotate(85.7,1579.3,2652.3)" >1950</text>
<line x1='1521.2' y1='2624.8' x2='1521.6' y2='2644.8' style="stroke-width:4.0;stroke:rgb(0,0,0);stroke-linecap:round;fill:none;" />
<text x="1515.3" y="2654.9" font-size="18.2px" font-family="CMUBright-Roman" style="text-anchor:start;fill:rgb(0,0,0);" transform="rotate(88.9,1515.3,2654.9)" >2000</text>
<line x1='1458.9' y1='2624.2' x2='1458.1' y2='2644.2' style="stroke-width:4.0;stroke:rgb(0,0,0);stroke-linecap:round;fill:none;" />
<text x="1464.3" y="2654.4" font-size="18.2px" font-family="CMUBright-Roman" style="text-anchor:end;fill:rgb(0,0,0);" transform="rotate(-87.9,1464.3,2654.4)" >2050</text>
<line x1='1396.6' y1='2620.2' x2='1394.8' y2='2640.2' style="stroke-width:4.0;stroke:rgb(0,0,0);stroke-linecap:round;fill:none;" />
<text x="1400.4" y="2650.7" font-size="18.2px" font-family="CMUBright-Roman" style="text-anchor:end;fill:rgb(0,0,0);" transform="rotate(-84.7,1400.4,2650.7)" >2100</text>
<line x1='1334.7' y1='2612.8' x2='1331.8' y2='2632.6' style="stroke-width:4.0;stroke:rgb(0,0,0);stroke-linecap:round;fill:none;" />
<text x="1336.7" y="2643.4" font-size="18.2px" font-family="CMUBright-Roman" style="text-anchor:end;fill:rgb(0,0,0);" transform="rotate(-81.6,1336.7,2643.4)" >2150</text>
<line x1='1273.3' y1='2601.9' x2='1269.3' y2='2621.5' style="stroke-width:4.0;stroke:rgb(0,0,0);stroke-linecap:round;fill:none;" />
<text x="1273.6" y="2632.6" font-size="18.2px" font-family="CMUBright-Roman" style="text-anchor:end;fill:rgb(0,0,0);" transform="rotate(-78.4,1273.6,2632.6)" >2200</text>
<line x1='1212.6' y1='2587.7' x2='1207.5' y2='2607.0' style="stroke-width:4.0;stroke:rgb(0,0,0);stroke-linecap:round;fill:none;" />
<text x="1211.2" y="2618.3" font-size="18.2px" font-family="CMUBright-Roman" style="text-anchor:end;fill:rgb(0,0,0);" transform="rotate(-75.2,1211.2,2618.3)" >2250</text>
<line x1='1152.8' y1='2570.1' x2='1146.6' y2='2589.1' style="stroke-width:4.0;stroke:rgb(0,0,0);stroke-linecap:round;fill:none;" />
<text x="1149.7" y="2600.6" font-size="18.2px" font-family="CMUBright-Roman" style="text-anchor:end;fill:rgb(0,0,0);" transform="rotate(-72.0,1149.7,2600.6)" >2300</text>
<line x1='1094.0' y1='2549.2' x2='1086.8' y2='2567.8' style="stroke-width:4.0;stroke:rgb(0,0,0);stroke-linecap:round;fill:none;" />
<text x="1089.2" y="2579.5" font-size="18.2px" font-family="CMUBright-Roman" style="text-anchor:end;fill:rgb(0,0,0);" transform="rotate(-68.8,1089.2,2579.5)" >2350</text>
<line x1='1036.5' y1='2525.1' x2='1028.2' y2='2543.3' style="stroke-width:4.0;stroke:rgb(0,0,0);stroke-linecap:round;fill:none;" />
<text x="1030.1" y="2555.1" font-size="18.2px" font-family="CMUBright-Roman" style="text-anchor:end;fill:rgb(0,0,0);" transform="rotate(-65.7,1030.1,2555.1)" >2400</text>
<line x1='980.4' y1='2497.8' x2='971.2' y2='2515.6' style="stroke-width:4.0;stroke:rgb(0,0,0);stroke-linecap:round;fill:none;" />
<text x="972.3" y="2527.4" font-size="18.2px" font-family="CMUBright-Roman" style="text-anchor:end;fill:rgb(0,0,0);" transform="rotate(-62.5,972.3,2527.4)" >2450</text>
<line x1='925.9' y1='2467.5' x2='915.7' y2='2484.7' style="stroke-width:4.0;stroke:rgb(0,0,0);stroke-linecap:round;fill:none;" />
<text x="916.2" y="2496.6" font-size="18.2px" font-family="CMUBright-Roman" style="text-anchor:end;fill:rgb(0,0,0);" transform="rotate(-59.3,916.2,2496.6)" >2500</text>
<line x1='873.2' y1='2434.2' x2='862.0' y2='2450.8' style="stroke-width:4.0;stroke:rgb(0,0,0);stroke-linecap:round;fill:none;" />
<text x="861.9" y="2462.7" font-size="18.2px" font-family="CMUBright-Roman" style="text-anchor:end;fill:rgb(0,0,0);" transform="rotate(-56.1,861.9,2462.7)" >2550</text>
<line x1='822.4' y1='2398.0' x2='810.3' y2='2414.0' style="stroke-width:4.0;stroke:rgb(0,0,0);stroke-linecap:round;fill:none;" />
<text x="809.5" y="2425.9" font-size="18.2px" font-family="CMUBright-Roman" style="text-anchor:end;fill:rgb(0,0,0);" transform="rotate(-53.0,809.5,2425.9)" >2600</text>
<line x1='773.6' y1='2359.1' x2='760.7' y2='2374.4' style="stroke-width:4.0;stroke:rgb(0,0,0);stroke-linecap:round;fill:none;" />
<text x="759.3" y="2386.2" font-size="18.2px" font-family="CMUBright-Roman" style="text-anchor:end;fill:rgb(0,0,0);" transform="rotate(-49.8,759.3,2386.2)" >2650</text>
<line x1='727.2' y1='2317.5' x2='713.4' y2='2332.1' style="stroke-width:4.0;stroke:rgb(0,0,0);stroke-linecap:round;fill:none;" />
<text x="711.3" y="2343.8" font-size="18.2px" font-family="CMUBright-Roman" style="text-anchor:end;fill:rgb(0,0,0);" transform="rotate(-46.6,711.3,2343.8)" >2700</text>
<line x1='683.0' y1='2273.4' x2='668.5' y2='2287.2' style="stroke-width:4.0;stroke:rgb(0,0,0);stroke-linecap:round;fill:none;" />
<text x="665.7" y="2298.8" font-size="18.2px" font-family="CMUBright-Roman" style="text-anchor:end;fill:rgb(0,0,0);" transform="rotate(-43.4,665.7,2298.8)" >2750</text>
<line x1='641.4' y1='2227.0' x2='626.2' y2='2239.9' style="stroke-width:4.0;stroke:rgb(0,0,0);stroke-linecap:round;fill:none;" />
<text x="622.8" y="2251.3" font-size="18.2px" font-family="CMUBright-Roman" style="text-anchor:end;fill:rgb(0,0,0);" transform="rotate(-40.3,622.8,2251.3)" >2800</text>
<line x1='602.5' y1='2178.3' x2='586.5' y2='2190.3' style="stroke-width:4.0;stroke:rgb(0,0,0);stroke-linecap:round;fill:none;" />
<text x="582.5" y="2201.6" font-size="18.2px" font-family="CMUBright-Roman" style="text-anchor:end;fill:rgb(0,0,0);" transform="rotate(-37.1,582.5,2201.6)" >2850</text>
<line x1='566.3' y1='2127.5' x2='549.7' y2='2138.7' style="stroke-width:4.0;stroke:rgb(0,0,0);stroke-linecap:round;fill:none;" />
<text x="545.0" y="2149.6" font-size="18.2px" font-family="CMUBright-Roman" style="text-anchor:end;fill:rgb(0,0,0);" transform="rotate(-33.9,545.0,2149.6)" >2900</text>
<line x1='532.9' y1='2074.8' x2='515.7' y2='2085.0' style="stroke-width:4.0;stroke:rgb(0,0,0);stroke-linecap:round;fill:none;" />
<text x="510.5" y="2095.7" font-size="18.2px" font-family="CMUBright-Roman" style="text-anchor:end;fill:rgb(0,0,0);" transform="rotate(-30.7,510.5,2095.7)" >2950</text>
<line x1='502.6' y1='2020.3' x2='484.8' y2='2029.6' style="stroke-width:4.0;stroke:rgb(0,0,0);stroke-linecap:round;fill:none;" />
<text x="479.0" y="2040.0" font-size="18.2px" font-family="CMUBright-Roman" style="text-anchor:end;fill:rgb(0,0,0);" transform="rotate(-27.5,479.0,2040.0)" >3000</text>
<line x1='475.3' y1='1964.3' x2='457.0' y2='1972.5' style="stroke-width:4.0;stroke:rgb(0,0,0);stroke-linecap:round;fill:none;" />
<text x="450.6" y="1982.6" font-size="18.2px" font-family="CMUBright-Roman" style="text-anchor:end;fill:rgb(0,0,0);" transform="rotate(-24.4,450.6,1982.6)" >3050</text>
<line x1='451.1' y1='1906.8' x2='432.5' y2='1914.0' style="stroke-width:4.0;stroke:rgb(0,0,0);stroke-linecap:round;fill:none;" />
<text x="425.5" y="1923.7" font-size="18.2px" font-family="CMUBright-Roman" style="text-anchor:end;fill:rgb(0,0,0);" transform="rotate(-21.2,425.5,1923.7)" >3100</text>
<line x1='430.2' y1='1848.0' x2='411.2' y2='1854.2' style="stroke-width:4.0;stroke:rgb(0,0,0);stroke-linecap:round;fill:none;" />
<text x="403.7" y="1863.5" font-size="18.2px" font-family="CMUBright-Roman" style="text-anchor:end;fill:rgb(0,0,0);" transform="rotate(-18.0,403.7,1863.5)" >3150</text>
<line x1='412.5' y1='1788.2' x2='393.2' y2='1793.3' style="stroke-width:4.0;stroke:rgb(0,0,0);stroke-linecap:round;fill:none;" />
<text x="385.2" y="1802.2" font-size="18.2px" font-family="CMUBright-Roman" style="text-anchor:end;fill:rgb(0,0,0);" transform="rotate(-14.8,385.2,1802.2)" >3200</text>
<line x1='398.2' y1='1727.5' x2='378.7' y2='1731.5' style="stroke-width:4.0;stroke:rgb(0,0,0);stroke-linecap:round;fill:none;" />
<text x="370.2" y="1739.9" font-size="18.2px" font-family="CMUBright-Roman" style="text-anchor:end;fill:rgb(0,0,0);" transform="rotate(-11.7,370.2,1739.9)" >3250</text>
<line x1='387.3' y1='1666.1' x2='367.5' y2='1669.1' style="stroke-width:4.0;stroke:rgb(0,0,0);stroke-linecap:round;fill:none;" />
<text x="358.6" y="1677.0" font-size="18.2px" font-family="CMUBright-Roman" style="text-anchor:end;fill:rgb(0,0,0);" transform="rotate(-8.5,358.6,1677.0)" >3300</text>
<line x1='379.8' y1='1604.2' x2='359.9' y2='1606.0' style="stroke-width:4.0;stroke:rgb(0,0,0);stroke-linecap:round;fill:none;" />
<text x="350.6" y="1613.4" font-size="18.2px" font-family="CMUBright-Roman" style="text-anchor:end;fill:rgb(0,0,0);" transform="rotate(-5.3,350.6,1613.4)" >3350</text>
<line x1='375.8' y1='1542.0' x2='355.8' y2='1542.7' style="stroke-width:4.0;stroke:rgb(0,0,0);stroke-linecap:round;fill:none;" />
<text x="346.1" y="1549.6" font-size="18.2px" font-family="CMUBright-Roman" style="text-anchor:end;fill:rgb(0,0,0);" transform="rotate(-2.1,346.1,1549.6)" >3400</text>
<line x1='375.2' y1='1479.6' x2='355.2' y2='1479.2' style="stroke-width:4.0;stroke:rgb(0,0,0);stroke-linecap:round;fill:none;" />
<text x="345.1" y="1485.5" font-size="18.2px" font-family="CMUBright-Roman" style="text-anchor:end;fill:rgb(0,0,0);" transform="rotate(1.0,345.1,1485.5)" >3450</text>
<line x1='378.0' y1='1417.3' x2='358.1' y2='1415.8' style="stroke-width:4.0;stroke:rgb(0,0,0);stroke-linecap:round;fill:none;" />
<text x="347.7" y="1421.6" font-size="18.2px" font-family="CMUBright-Roman" style="text-anchor:end;fill:rgb(0,0,0);" transform="rotate(4.2,347.7,1421.6)" >3500</text>
<line x1='384.4' y1='1355.3' x2='364.5' y2='1352.7' style="stroke-width:4.0;stroke:rgb(0,0,0);stroke-linecap:round;fill:none;" />
<text x="353.8" y="1357.8" font-size="18.2px" font-family="CMUBright-Roman" style="text-anchor:end;fill:rgb(0,0,0);" transform="rotate(7.4,353.8,1357.8)" >3550</text>
<line x1='394.1' y1='1293.7' x2='374.4' y2='1290.0' style="stroke-width:4.0;stroke:rgb(0,0,0);stroke-linecap:round;fill:none;" />
<text x="363.4" y="1294.5" font-size="18.2px" font-family="CMUBright-Roman" style="text-anchor:end;fill:rgb(0,0,0);" transform="rotate(10.6,363.4,1294.5)" >3600</text>
<line x1='407.2' y1='1232.7' x2='387.8' y2='1227.9' style="stroke-width:4.0;stroke:rgb(0,0,0);stroke-linecap:round;fill:none;" />
<text x="376.6" y="1231.9" font-size="18.2px" font-family="CMUBright-Roman" style="text-anchor:end;fill:rgb(0,0,0);" transform="rotate(13.7,376.6,1231.9)" >3650</text>
<line x1='423.7' y1='1172.5' x2='404.6' y2='1166.7' style="stroke-width:4.0;stroke:rgb(0,0,0);stroke-linecap:round;fill:none;" />
<text x="393.1" y="1170.0" font-size="18.2px" font-family="CMUBright-Roman" style="text-anchor:end;fill:rgb(0,0,0);" transform="rotate(16.9,393.1,1170.0)" >3700</text>
<line x1='443.5' y1='1113.4' x2='424.7' y2='1106.5' style="stroke-width:4.0;stroke:rgb(0,0,0);stroke-linecap:round;fill:none;" />
<text x="413.1" y="1109.2" font-size="18.2px" font-family="CMUBright-Roman" style="text-anchor:end;fill:rgb(0,0,0);" transform="rotate(20.1,413.1,1109.2)" >3750</text>
<line x1='466.6' y1='1055.5' x2='448.2' y2='1047.6' style="stroke-width:4.0;stroke:rgb(0,0,0);stroke-linecap:round;fill:none;" />
<text x="436.4" y="1049.6" font-size="18.2px" font-family="CMUBright-Roman" style="text-anchor:end;fill:rgb(0,0,0);" transform="rotate(23.3,436.4,1049.6)" >3800</text>
<line x1='492.8' y1='998.9' x2='474.9' y2='990.0' style="stroke-width:4.0;stroke:rgb(0,0,0);stroke-linecap:round;fill:none;" />
<text x="463.0" y="991.3" font-size="18.2px" font-family="CMUBright-Roman" style="text-anchor:end;fill:rgb(0,0,0);" transform="rotate(26.5,463.0,991.3)" >3850</text>
<line x1='522.1' y1='943.8' x2='504.7' y2='933.9' style="stroke-width:4.0;stroke:rgb(0,0,0);stroke-linecap:round;fill:none;" />
<text x="492.8" y="934.7" font-size="18.2px" font-family="CMUBright-Roman" style="text-anchor:end;fill:rgb(0,0,0);" transform="rotate(29.6,492.8,934.7)" >3900</text>
<line x1='554.4' y1='890.5' x2='537.6' y2='879.7' style="stroke-width:4.0;stroke:rgb(0,0,0);stroke-linecap:round;fill:none;" />
<text x="525.7" y="879.7" font-size="18.2px" font-family="CMUBright-Roman" style="text-anchor:end;fill:rgb(0,0,0);" transform="rotate(32.8,525.7,879.7)" >3950</text>
<line x1='589.6' y1='839.0' x2='573.5' y2='827.3' style="stroke-width:4.0;stroke:rgb(0,0,0);stroke-linecap:round;fill:none;" />
<text x="561.6" y="826.7" font-size="18.2px" font-family="CMUBright-Roman" style="text-anchor:end;fill:rgb(0,0,0);" transform="rotate(36.0,561.6,826.7)" >4000</text>
<line x1='627.7' y1='789.6' x2='612.2' y2='777.0' style="stroke-width:4.0;stroke:rgb(0,0,0);stroke-linecap:round;fill:none;" />
<text x="600.3" y="775.7" font-size="18.2px" font-family="CMUBright-Roman" style="text-anchor:end;fill:rgb(0,0,0);" transform="rotate(39.2,600.3,775.7)" >4050</text>
<line x1='668.4' y1='742.4' x2='653.6' y2='728.9' style="stroke-width:4.0;stroke:rgb(0,0,0);stroke-linecap:round;fill:none;" />
<text x="641.8" y="727.0" font-size="18.2px" font-family="CMUBright-Roman" style="text-anchor:end;fill:rgb(0,0,0);" transform="rotate(42.3,641.8,727.0)" >4100</text>
<line x1='711.6' y1='697.4' x2='697.6' y2='683.2' style="stroke-width:4.0;stroke:rgb(0,0,0);stroke-linecap:round;fill:none;" />
<text x="686.0" y="680.6" font-size="18.2px" font-family="CMUBright-Roman" style="text-anchor:end;fill:rgb(0,0,0);" transform="rotate(45.5,686.0,680.6)" >4150</text>
<line x1='757.3' y1='655.0' x2='744.1' y2='640.0' style="stroke-width:4.0;stroke:rgb(0,0,0);stroke-linecap:round;fill:none;" />
<text x="732.6" y="636.8" font-size="18.2px" font-family="CMUBright-Roman" style="text-anchor:end;fill:rgb(0,0,0);" transform="rotate(48.7,732.6,636.8)" >4200</text>
<line x1='805.3' y1='615.1' x2='792.9' y2='599.4' style="stroke-width:4.0;stroke:rgb(0,0,0);stroke-linecap:round;fill:none;" />
<text x="781.7" y="595.6" font-size="18.2px" font-family="CMUBright-Roman" style="text-anchor:end;fill:rgb(0,0,0);" transform="rotate(51.9,781.7,595.6)" >4250</text>
<line x1='855.4' y1='578.0' x2='843.9' y2='561.6' style="stroke-width:4.0;stroke:rgb(0,0,0);stroke-linecap:round;fill:none;" />
<text x="832.9" y="557.1" font-size="18.2px" font-family="CMUBright-Roman" style="text-anchor:end;fill:rgb(0,0,0);" transform="rotate(55.0,832.9,557.1)" >4300</text>
<line x1='907.5' y1='543.7' x2='896.9' y2='526.7' style="stroke-width:4.0;stroke:rgb(0,0,0);stroke-linecap:round;fill:none;" />
<text x="886.2" y="521.6" font-size="18.2px" font-family="CMUBright-Roman" style="text-anchor:end;fill:rgb(0,0,0);" transform="rotate(58.2,886.2,521.6)" >4350</text>
<line x1='961.4' y1='512.3' x2='951.8' y2='494.8' style="stroke-width:4.0;stroke:rgb(0,0,0);stroke-linecap:round;fill:none;" />
<text x="941.3" y="489.1" font-size="18.2px" font-family="CMUBright-Roman" style="text-anchor:end;fill:rgb(0,0,0);" transform="rotate(61.4,941.3,489.1)" >4400</text>
<line x1='1016.9' y1='484.0' x2='1008.3' y2='465.9' style="stroke-width:4.0;stroke:rgb(0,0,0);stroke-linecap:round;fill:none;" />
<text x="998.2" y="459.7" font-size="18.2px" font-family="CMUBright-Roman" style="text-anchor:end;fill:rgb(0,0,0);" transform="rotate(64.6,998.2,459.7)" >4450</text>
<line x1='1074.0' y1='458.8' x2='1066.4' y2='440.3' style="stroke-width:4.0;stroke:rgb(0,0,0);stroke-linecap:round;fill:none;" />
<text x="1056.6" y="433.5" font-size="18.2px" font-family="CMUBright-Roman" style="text-anchor:end;fill:rgb(0,0,0);" transform="rotate(67.7,1056.6,433.5)" >4500</text>
<line x1='1132.3' y1='436.8' x2='1125.8' y2='417.9' style="stroke-width:4.0;stroke:rgb(0,0,0);stroke-linecap:round;fill:none;" />
<text x="1116.4" y="410.6" font-size="18.2px" font-family="CMUBright-Roman" style="text-anchor:end;fill:rgb(0,0,0);" transform="rotate(70.9,1116.4,410.6)" >4550</text>
<line x1='1191.8' y1='418.0' x2='1186.3' y2='398.8' style="stroke-width:4.0;stroke:rgb(0,0,0);stroke-linecap:round;fill:none;" />
<text x="1177.3" y="391.0" font-size="18.2px" font-family="CMUBright-Roman" style="text-anchor:end;fill:rgb(0,0,0);" transform="rotate(74.1,1177.3,391.0)" >4600</text>
<line x1='1252.2' y1='402.6' x2='1247.8' y2='383.1' style="stroke-width:4.0;stroke:rgb(0,0,0);stroke-linecap:round;fill:none;" />
<text x="1239.3" y="374.8" font-size="18.2px" font-family="CMUBright-Roman" style="text-anchor:end;fill:rgb(0,0,0);" transform="rotate(77.3,1239.3,374.8)" >4650</text>
<line x1='1313.4' y1='390.6' x2='1310.1' y2='370.9' style="stroke-width:4.0;stroke:rgb(0,0,0);stroke-linecap:round;fill:none;" />
<text x="1302.0" y="362.1" font-size="18.2px" font-family="CMUBright-Roman" style="text-anchor:end;fill:rgb(0,0,0);" transform="rotate(80.5,1302.0,362.1)" >4700</text>
<line x1='1375.2' y1='381.9' x2='1373.0' y2='362.1' style="stroke-width:4.0;stroke:rgb(0,0,0);stroke-linecap:round;fill:none;" />
<text x="1365.4" y="352.9" font-size="18.2px" font-family="CMUBright-Roman" style="text-anchor:end;fill:rgb(0,0,0);" transform="rotate(83.6,1365.4,352.9)" >4750</text>
<g id="highlighttrack_0">
<path d="M1393.831,430.256 A1075.000,1075.000 40.000 0,1 1397.524,429.895 L1392.758,380.123 A1125.000,1125.000 0.000 0,0 1388.893,380.500 Z" style="stroke-width:4.0;stroke:rgb(0,0,0);stroke-linecap:round;fill:rgb(116,196,118);" />
<path d="M672.715,2186.458 A1075.000,1075.000 40.000 0,1 670.350,2183.598 L631.762,2215.393 A1125.000,1125.000 0.000 0,0 634.236,2218.386 Z" style="stroke-width:4.0;stroke:rgb(0,0,0);stroke-linecap:round;fill:rgb(116,196,118);" />
<path d="M2377.444,2121.061 A1075.000,1075.000 40.000 0,1 2375.295,2124.086 L2416.007,2153.113 A1125.000,1125.000 0.000 0,0 2418.256,2149.947 Z" style="stroke-width:4.0;stroke:rgb(0,0,0);stroke-linecap:round;fill:rgb(251,106,74);" />
<path d="M2376.414,877.487 A1075.000,1075.000 40.000 0,1 2378.558,880.516 L2419.421,851.703 A1125.000,1125.000 0.000 0,0 2417.178,848.533 Z" style="stroke-width:4.0;stroke:rgb(0,0,0);stroke-linecap:round;fill:rgb(251,106,74);" />
<path d="M2489.297,1079.386 A1075.000,1075.000 40.000 0,1 2490.743,1082.803 L2536.824,1063.398 A1125.000,1125.000 0.000 0,0 2535.311,1059.822 Z" style="stroke-width:4.0;stroke:rgb(0,0,0);stroke-linecap:round;fill:rgb(251,106,74);" />
<path d="M2511.663,1136.457 A1075.000,1075.000 40.000 0,1 2512.912,1139.951 L2560.024,1123.205 A1125.000,1125.000 0.000 0,0 2558.717,1119.548 Z" style="stroke-width:4.0;stroke:rgb(0,0,0);stroke-linecap:round;fill:rgb(251,106,74);" />
<path d="M2560.129,1321.809 A1075.000,1075.000 40.000 0,1 2560.738,1325.470 L2610.074,1317.352 A1125.000,1125.000 0.000 0,0 2609.437,1313.521 Z" style="stroke-width:4.0;stroke:rgb(0,0,0);stroke-linecap:round;fill:rgb(251,106,74);" />
<path d="M2561.576,1330.646 A1075.000,1075.000 40.000 0,1 2562.155,1334.313 L2611.557,1326.606 A1125.000,1125.000 0.000 0,0 2610.952,1322.769 Z" style="stroke-width:4.0;stroke:rgb(0,0,0);stroke-linecap:round;fill:rgb(251,106,74);" />
<path d="M2490.031,1918.883 A1075.000,1075.000 40.000 0,1 2488.794,1921.796 L2534.784,1941.414 A1125.000,1125.000 0.000 0,0 2536.079,1938.366 Z" style="stroke-width:4.0;stroke:rgb(0,0,0);stroke-linecap:round;fill:rgb(116,196,118);" />
<path d="M2509.200,1870.325 A1075.000,1075.000 40.000 0,1 2508.099,1873.311 L2554.987,1890.675 A1125.000,1125.000 0.000 0,0 2556.139,1887.549 Z" style="stroke-width:4.0;stroke:rgb(0,0,0);stroke-linecap:round;fill:rgb(116,196,118);" />
<path d="M2495.289,1906.233 A1075.000,1075.000 40.000 0,1 2494.082,1909.178 L2540.318,1928.210 A1125.000,1125.000 0.000 0,0 2541.581,1925.128 Z" style="stroke-width:4.0;stroke:rgb(0,0,0);stroke-linecap:round;fill:rgb(116,196,118);" />
<path d="M1416.692,428.233 A1075.000,1075.000 40.000 0,1 1420.126,427.971 L1416.411,378.110 A1125.000,1125.000 0.000 0,0 1412.817,378.383 Z" style="stroke-width:4.0;stroke:rgb(0,0,0);stroke-linecap:round;fill:rgb(116,196,118);" />
<path d="M2503.130,1113.535 A1075.000,1075.000 40.000 0,1 2504.011,1115.830 L2550.709,1097.962 A1125.000,1125.000 0.000 0,0 2549.787,1095.560 Z" style="stroke-width:4.0;stroke:rgb(0,0,0);stroke-linecap:round;fill:rgb(116,196,118);" />
</g>
</g>
<g id="track_0">
<path d="M 680.988,2179.593 A 1064.250,1064.250 0.00 0,1 678.6,2176.8 L 678.6,2176.8 735.0,2128.9 786.8,2082.3 834.4,2036.7 878.1,1992.2 918.4,1948.7 955.4,1906.3 989.6,1864.8 1021.0,1824.3 1050.1,1784.6 1077.0,1745.8 1101.9,1707.6 1125.2,1670.2 1146.9,1633.3 1167.2,1596.9 1186.3,1560.9 1204.4,1525.2 1221.5,1489.7 1237.7,1454.2 1253.2,1418.6 1268.0,1382.9 1282.2,1346.8 1295.9,1310.2 1308.9,1273.0 1321.5,1235.0 1333.4,1196.0 1344.8,1155.9 1355.6,1114.5 1365.7,1071.6 1375.0,1027.0 1383.5,980.5 1391.0,931.9 1397.5,881.0 1402.7,827.6 1406.6,771.4 1408.9,712.2 1409.4,649.8 1408.1,583.9 1404.5,514.2 1398.5,440.6  A 1064.250,1064.250 0.00 0,0 1394.9,441.0 L 1394.9,441.0 1401.1,514.6 1404.9,584.2 1406.5,650.1 1406.2,712.5 1404.1,771.7 1400.4,827.9 1395.3,881.4 1389.1,932.3 1381.7,980.9 1373.4,1027.4 1364.2,1072.1 1354.3,1115.0 1343.6,1156.5 1332.4,1196.6 1320.6,1235.6 1308.2,1273.6 1295.2,1310.9 1281.7,1347.5 1267.6,1383.7 1252.9,1419.5 1237.5,1455.1 1221.4,1490.6 1204.4,1526.2 1186.5,1562.0 1167.5,1598.1 1147.3,1634.5 1125.8,1671.5 1102.7,1709.0 1077.8,1747.2 1051.1,1786.2 1022.1,1825.9 990.8,1866.6 956.8,1908.1 920.0,1950.7 879.8,1994.3 836.2,2039.0 788.8,2084.7 737.1,2131.6 681.0,2179.6  Z" style="stroke-width: 2.0;  stroke: rgb(82,82,82); fill: rgb(251,106,74); opacity: 0.667;" />
<path d="M 2368.670,2114.850 A 1064.250,1064.250 0.00 0,1 2366.5,2117.8 L 2366.5,2117.8 2307.0,2074.0 2251.9,2030.9 2201.1,1988.4 2154.0,1946.7 2110.5,1905.8 2070.1,1865.6 2032.6,1826.1 1997.7,1787.4 1965.1,1749.4 1934.6,1712.0 1906.0,1675.3 1879.0,1639.1 1853.4,1603.5 1829.0,1568.3 1805.8,1533.4 1783.4,1498.8 1761.9,1464.4 1740.9,1430.1 1720.5,1395.7 1700.6,1361.2 1681.0,1326.4 1661.8,1291.1 1642.8,1255.2 1624.1,1218.5 1605.5,1180.9 1587.2,1142.3 1569.1,1102.3 1551.3,1060.8 1533.9,1017.6 1516.8,972.5 1500.1,925.3 1484.1,875.7 1468.7,823.5 1454.1,768.4 1440.4,710.2 1427.8,648.6 1416.5,583.3 1406.7,514.1 1398.5,440.6  A 1064.250,1064.250 0.00 0,0 1394.9,441.0 L 1394.9,441.0 1403.3,514.4 1413.4,583.6 1424.9,648.9 1437.7,710.4 1451.5,768.6 1466.3,823.6 1481.9,875.8 1498.1,925.3 1514.9,972.5 1532.2,1017.5 1549.8,1060.6 1567.8,1102.0 1586.0,1142.0 1604.4,1180.6 1623.1,1218.1 1642.0,1254.7 1661.1,1290.5 1680.4,1325.7 1700.1,1360.5 1720.2,1395.0 1740.7,1429.3 1761.7,1463.5 1783.4,1497.9 1805.9,1532.3 1829.3,1567.1 1853.7,1602.2 1879.4,1637.8 1906.6,1673.9 1935.3,1710.5 1965.9,1747.8 1998.6,1785.7 2033.7,1824.3 2071.3,1863.6 2111.9,1903.7 2155.6,1944.5 2202.8,1986.0 2253.8,2028.3 2309.0,2071.2 2368.7,2114.8  Z" style="stroke-width: 2.0;  stroke: rgb(82,82,82); fill: rgb(116,196,118); opacity: 0.667;" />
<path d="M 2368.670,2114.850 A 1064.250,1064.250 0.00 0,1 2366.5,2117.8 L 2366.5,2117.8 2306.0,2075.9 2248.0,2038.0 2192.6,2004.0 2139.5,1973.5 2088.6,1946.4 2039.7,1922.2 1992.8,1900.8 1947.6,1882.0 1904.1,1865.6 1862.1,1851.4 1821.4,1839.1 1781.9,1828.8 1743.5,1820.1 1706.0,1813.1 1669.4,1807.6 1633.3,1803.5 1597.8,1800.8 1562.7,1799.5 1527.9,1799.4 1493.1,1800.6 1458.3,1803.1 1423.4,1806.9 1388.1,1812.1 1352.5,1818.7 1316.3,1826.7 1279.4,1836.3 1241.7,1847.6 1203.0,1860.7 1163.3,1875.7 1122.4,1892.9 1080.1,1912.3 1036.4,1934.2 991.0,1958.8 944.0,1986.3 895.1,2017.0 844.3,2051.1 791.3,2088.9 736.1,2130.7 678.6,2176.8  A 1064.250,1064.250 0.00 0,0 681.0,2179.6 L 681.0,2179.6 738.3,2133.3 793.3,2091.3 846.2,2053.3 896.9,2019.1 945.7,1988.2 992.6,1960.6 1037.9,1935.8 1081.5,1913.8 1123.7,1894.2 1164.6,1876.9 1204.3,1861.7 1242.9,1848.5 1280.6,1837.1 1317.4,1827.3 1353.6,1819.2 1389.2,1812.5 1424.4,1807.2 1459.4,1803.3 1494.1,1800.6 1528.9,1799.3 1563.8,1799.3 1598.9,1800.5 1634.4,1803.1 1670.4,1807.0 1707.1,1812.4 1744.6,1819.3 1783.1,1827.8 1822.6,1838.0 1863.3,1850.1 1905.4,1864.2 1949.0,1880.5 1994.2,1899.1 2041.2,1920.3 2090.1,1944.3 2141.1,1971.3 2194.3,2001.6 2249.9,2035.4 2307.9,2073.1 2368.7,2114.8  Z" style="stroke-width: 2.0;  stroke: rgb(82,82,82); fill: rgb(107,174,214); opacity: 0.667;" />
<path d="M 2294.108,791.466 A 1064.250,1064.250 0.00 0,1 2296.4,794.0 L 2296.4,794.0 2241.1,842.3 2189.1,886.2 2140.1,926.0 2094.0,962.0 2050.6,994.4 2009.8,1023.3 1971.4,1048.9 1935.2,1071.5 1901.1,1091.1 1869.0,1107.8 1838.8,1121.9 1810.3,1133.4 1783.4,1142.3 1757.9,1148.9 1733.9,1153.0 1711.2,1154.9 1689.6,1154.5 1669.2,1151.7 1649.7,1146.7 1631.2,1139.5 1613.6,1129.9 1596.8,1117.9 1580.7,1103.6 1565.4,1086.7 1550.6,1067.3 1536.5,1045.1 1522.9,1020.2 1509.9,992.4 1497.3,961.5 1485.3,927.4 1473.7,889.8 1462.6,848.7 1452.0,803.7 1441.8,754.7 1432.1,701.5 1422.9,643.7 1414.2,581.1 1406.1,513.5 1398.5,440.6  A 1064.250,1064.250 0.00 0,0 1394.9,441.0 L 1394.9,441.0 1402.7,513.9 1411.1,581.5 1420.0,644.0 1429.4,701.7 1439.2,754.9 1449.6,803.9 1460.4,848.8 1471.6,889.9 1483.3,927.4 1495.5,961.5 1508.1,992.4 1521.3,1020.2 1534.9,1045.0 1549.1,1067.1 1564.0,1086.5 1579.4,1103.3 1595.5,1117.6 1612.4,1129.5 1630.0,1139.0 1648.6,1146.3 1668.0,1151.2 1688.5,1153.8 1710.0,1154.2 1732.8,1152.3 1756.8,1148.0 1782.2,1141.4 1809.1,1132.4 1837.6,1120.8 1867.8,1106.6 1899.8,1089.8 1933.8,1070.1 1969.9,1047.4 2008.2,1021.6 2049.0,992.6 2092.3,960.1 2138.3,924.0 2187.1,884.0 2239.0,839.9 2294.1,791.5  Z" style="stroke-width: 2.0;  stroke: rgb(82,82,82); fill: rgb(253,141,60); opacity: 0.667;" />
<path d="M 2294.108,791.466 A 1064.250,1064.250 0.00 0,1 2296.4,794.0 L 2296.4,794.0 2239.9,842.5 2184.3,887.2 2129.8,928.6 2076.4,967.0 2024.3,1002.8 1973.4,1036.3 1923.8,1067.9 1875.7,1097.7 1828.9,1126.3 1783.5,1153.7 1739.6,1180.3 1697.0,1206.3 1655.8,1232.0 1616.0,1257.6 1577.5,1283.2 1540.2,1309.1 1504.0,1335.4 1468.9,1362.3 1434.7,1389.9 1401.4,1418.4 1368.8,1447.8 1336.8,1478.3 1305.1,1509.9 1273.8,1542.8 1242.5,1576.9 1211.0,1612.2 1179.2,1648.9 1146.9,1686.9 1113.8,1726.1 1079.6,1766.7 1044.2,1808.4 1007.1,1851.4 968.3,1895.4 927.3,1940.5 883.8,1986.4 837.5,2033.2 788.2,2080.6 735.3,2128.5 678.6,2176.8  A 1064.250,1064.250 0.00 0,0 681.0,2179.6 L 681.0,2179.6 737.5,2131.1 790.2,2083.0 839.4,2035.5 885.5,1988.6 928.8,1942.4 969.7,1897.3 1008.4,1853.1 1045.2,1810.0 1080.5,1768.1 1114.6,1727.5 1147.6,1688.1 1179.8,1650.0 1211.4,1613.2 1242.7,1577.7 1273.9,1543.6 1305.2,1510.6 1336.7,1478.9 1368.7,1448.3 1401.2,1418.7 1434.4,1390.1 1468.4,1362.4 1503.5,1335.4 1539.5,1309.0 1576.8,1283.0 1615.2,1257.2 1655.0,1231.5 1696.1,1205.7 1738.5,1179.5 1782.4,1152.8 1827.7,1125.2 1874.4,1096.5 1922.4,1066.5 1971.9,1034.8 2022.7,1001.1 2074.7,965.2 2128.0,926.6 2182.4,885.0 2237.8,840.1 2294.1,791.5  Z" style="stroke-width: 2.0;  stroke: rgb(82,82,82); fill: rgb(255,0,0); opacity: 0.667;" />
<path d="M 2294.108,791.466 A 1064.250,1064.250 0.00 0,1 2296.4,794.0 L 2296.4,794.0 2241.9,843.4 2192.2,890.5 2146.8,935.5 2105.6,978.6 2068.3,1019.8 2034.7,1059.3 2004.5,1097.1 1977.5,1133.5 1953.5,1168.5 1932.4,1202.3 1914.0,1234.9 1898.1,1266.5 1884.7,1297.1 1873.6,1326.9 1864.7,1356.1 1858.0,1384.6 1853.4,1412.7 1850.8,1440.3 1850.2,1467.8 1851.7,1495.0 1855.1,1522.2 1860.6,1549.5 1868.2,1576.9 1877.9,1604.6 1889.8,1632.6 1904.0,1661.1 1920.6,1690.2 1939.7,1719.9 1961.4,1750.3 1986.0,1781.7 2013.5,1814.0 2044.2,1847.3 2078.3,1881.8 2115.9,1917.5 2157.3,1954.5 2202.9,1993.0 2252.7,2033.0 2307.2,2074.6 2366.5,2117.8  A 1064.250,1064.250 0.00 0,0 2368.7,2114.8 L 2368.7,2114.8 2309.1,2071.8 2254.5,2030.4 2204.6,1990.6 2158.9,1952.2 2117.3,1915.3 2079.6,1879.8 2045.4,1845.4 2014.6,1812.2 1987.0,1780.0 1962.3,1748.8 1940.5,1718.4 1921.2,1688.7 1904.6,1659.7 1890.3,1631.3 1878.3,1603.3 1868.5,1575.7 1860.8,1548.3 1855.2,1521.0 1851.7,1493.9 1850.1,1466.6 1850.6,1439.2 1853.1,1411.5 1857.6,1383.4 1864.3,1354.9 1873.0,1325.7 1884.1,1295.8 1897.4,1265.2 1913.1,1233.5 1931.4,1200.9 1952.4,1167.1 1976.3,1132.0 2003.2,1095.5 2033.3,1057.5 2066.8,1017.9 2103.9,976.6 2145.0,933.4 2190.2,888.2 2239.8,841.0 2294.1,791.5  Z" style="stroke-width: 2.0;  stroke: rgb(82,82,82); fill: rgb(255,0,204); opacity: 0.667;" />
<path d="M 2367.650,883.712 A 1064.250,1064.250 0.00 0,1 2369.8,886.7 L 2369.8,886.7 2309.4,928.5 2252.7,966.3 2199.3,1000.3 2149.0,1030.8 2101.8,1058.0 2057.4,1082.0 2015.6,1103.0 1976.3,1121.2 1939.3,1136.6 1904.4,1149.5 1871.6,1160.0 1840.7,1168.0 1811.5,1173.8 1784.0,1177.4 1758.0,1178.8 1733.3,1178.0 1710.0,1175.2 1687.9,1170.2 1666.8,1163.2 1646.8,1154.0 1627.8,1142.6 1609.6,1129.1 1592.2,1113.2 1575.6,1095.0 1559.7,1074.4 1544.5,1051.1 1529.8,1025.3 1515.8,996.5 1502.4,964.8 1489.4,930.0 1477.1,891.9 1465.2,850.2 1454.0,804.8 1443.2,755.5 1433.0,701.9 1423.4,644.0 1414.5,581.3 1406.2,513.6 1398.5,440.6  A 1064.250,1064.250 0.00 0,0 1394.9,441.0 L 1394.9,441.0 1402.8,513.9 1411.3,581.6 1420.5,644.2 1430.3,702.2 1440.6,755.7 1451.6,805.0 1463.0,850.3 1475.0,891.9 1487.5,930.1 1500.5,964.8 1514.1,996.5 1528.2,1025.2 1542.9,1051.0 1558.2,1074.2 1574.2,1094.8 1590.9,1112.9 1608.3,1128.7 1626.5,1142.2 1645.6,1153.5 1665.7,1162.6 1686.7,1169.6 1708.9,1174.5 1732.2,1177.2 1756.8,1177.9 1782.9,1176.4 1810.4,1172.7 1839.6,1166.9 1870.5,1158.7 1903.2,1148.1 1938.0,1135.1 1975.0,1119.5 2014.2,1101.2 2055.9,1080.1 2100.3,1055.9 2147.4,1028.6 2197.6,997.9 2250.8,963.7 2307.5,925.7 2367.7,883.7  Z" style="stroke-width: 2.0;  stroke: rgb(82,82,82); fill: rgb(255,204,204); opacity: 0.667;" />
<path d="M 2367.650,883.712 A 1064.250,1064.250 0.00 0,1 2369.8,886.7 L 2369.8,886.7 2309.7,930.6 2253.4,974.4 2200.7,1017.9 2151.2,1061.0 2104.6,1103.5 2060.5,1145.3 2018.6,1186.3 1978.7,1226.3 1940.5,1265.3 1903.7,1303.3 1868.0,1340.0 1833.3,1375.6 1799.2,1410.0 1765.5,1443.2 1732.1,1475.1 1698.8,1505.9 1665.4,1535.5 1631.6,1564.0 1597.4,1591.5 1562.5,1618.1 1527.0,1643.8 1490.5,1668.9 1453.1,1693.3 1414.7,1717.3 1375.0,1741.1 1334.2,1764.7 1292.0,1788.5 1248.5,1812.7 1203.6,1837.3 1157.3,1862.8 1109.5,1889.4 1060.4,1917.3 1009.8,1946.8 957.8,1978.3 904.5,2012.0 849.8,2048.4 793.9,2087.7 736.8,2130.4 678.6,2176.8  A 1064.250,1064.250 0.00 0,0 681.0,2179.6 L 681.0,2179.6 739.0,2133.0 796.0,2090.2 851.7,2050.6 906.3,2014.1 959.5,1980.2 1011.3,1948.5 1061.8,1918.8 1110.9,1890.7 1158.5,1864.0 1204.7,1838.4 1249.6,1813.5 1293.0,1789.3 1335.1,1765.3 1375.9,1741.5 1415.4,1717.6 1453.8,1693.5 1491.1,1668.9 1527.5,1643.7 1563.0,1617.9 1597.7,1591.2 1631.8,1563.6 1665.5,1534.9 1698.8,1505.2 1732.1,1474.3 1765.3,1442.3 1798.9,1409.0 1832.8,1374.5 1867.5,1338.8 1903.0,1301.9 1939.7,1263.8 1977.8,1224.7 2017.5,1184.5 2059.3,1143.4 2103.2,1101.4 2149.7,1058.7 2199.1,1015.5 2251.6,971.8 2307.7,927.8 2367.7,883.7  Z" style="stroke-width: 2.0;  stroke: rgb(82,82,82); fill: rgb(255,153,0); opacity: 0.667;" />
<path d="M 2367.650,883.712 A 1064.250,1064.250 0.00 0,1 2369.8,886.7 L 2369.8,886.7 2310.2,929.6 2255.5,970.7 2205.5,1010.1 2159.8,1047.9 2118.3,1084.2 2080.6,1119.1 2046.6,1152.6 2016.0,1185.0 1988.6,1216.2 1964.3,1246.4 1942.9,1275.6 1924.2,1304.1 1908.1,1331.8 1894.5,1358.9 1883.4,1385.4 1874.5,1411.6 1867.9,1437.3 1863.5,1462.9 1861.3,1488.3 1861.2,1513.6 1863.3,1539.0 1867.6,1564.6 1874.0,1590.4 1882.8,1616.6 1893.8,1643.2 1907.2,1670.3 1923.2,1698.1 1941.7,1726.7 1963.0,1756.1 1987.1,1786.4 2014.3,1817.7 2044.8,1850.2 2078.6,1884.0 2116.1,1919.0 2157.5,1955.5 2202.9,1993.6 2252.7,2033.2 2307.2,2074.6 2366.5,2117.8  A 1064.250,1064.250 0.00 0,0 2368.7,2114.8 L 2368.7,2114.8 2309.1,2071.8 2254.6,2030.6 2204.6,1991.1 2159.0,1953.3 2117.6,1916.9 2080.0,1882.0 2046.0,1848.4 2015.4,1816.0 1988.1,1784.7 1963.9,1754.5 1942.5,1725.1 1923.8,1696.7 1907.8,1668.9 1894.3,1641.8 1883.2,1615.2 1874.4,1589.1 1867.8,1563.3 1863.5,1537.8 1861.3,1512.4 1861.3,1487.0 1863.4,1461.6 1867.7,1436.1 1874.2,1410.3 1883.0,1384.1 1894.1,1357.5 1907.5,1330.4 1923.5,1302.6 1942.1,1274.1 1963.4,1244.8 1987.6,1214.5 2014.9,1183.2 2045.4,1150.7 2079.3,1117.1 2116.9,1082.1 2158.3,1045.6 2203.8,1007.7 2253.7,968.1 2308.2,926.8 2367.7,883.7  Z" style="stroke-width: 2.0;  stroke: rgb(82,82,82); fill: rgb(255,204,0); opacity: 0.667;" />
<path d="M 2367.650,883.712 A 1064.250,1064.250 0.00 0,1 2369.8,886.7 L 2369.8,886.7 2309.9,928.8 2254.5,967.7 2203.3,1003.3 2156.2,1036.0 2112.9,1065.8 2073.3,1092.9 2037.1,1117.5 2004.2,1139.5 1974.5,1159.2 1947.7,1176.7 1923.9,1192.0 1902.9,1205.1 1884.5,1216.3 1868.7,1225.5 1855.4,1232.7 1844.6,1238.1 1836.1,1241.6 1830.0,1243.4 1826.2,1243.3 1824.7,1241.3 1825.5,1237.6 1828.6,1232.1 1833.9,1224.6 1841.7,1215.3 1851.8,1204.1 1864.3,1190.8 1879.4,1175.5 1897.0,1158.0 1917.4,1138.3 1940.5,1116.3 1966.5,1091.9 1995.5,1065.0 2027.7,1035.4 2063.1,1003.0 2102.1,967.7 2144.7,929.3 2191.2,887.7 2241.7,842.6 2296.4,794.0  A 1064.250,1064.250 0.00 0,0 2294.1,791.5 L 2294.1,791.5 2239.5,840.3 2189.2,885.4 2142.9,927.2 2100.4,965.7 2061.5,1001.2 2026.2,1033.7 1994.1,1063.4 1965.1,1090.4 1939.2,1114.9 1916.2,1137.0 1895.9,1156.7 1878.3,1174.2 1863.3,1189.6 1850.8,1202.9 1840.7,1214.2 1833.0,1223.5 1827.7,1231.0 1824.6,1236.5 1823.8,1240.3 1825.4,1242.2 1829.2,1242.2 1835.3,1240.5 1843.7,1236.9 1854.5,1231.5 1867.8,1224.2 1883.5,1215.0 1901.9,1203.8 1922.9,1190.5 1946.6,1175.2 1973.3,1157.6 2002.9,1137.8 2035.7,1115.6 2071.8,1091.0 2111.4,1063.7 2154.6,1033.7 2201.6,1000.9 2252.7,965.1 2307.9,926.0 2367.7,883.7  Z" style="stroke-width: 2.0;  stroke: rgb(82,82,82); fill: rgb(255,255,0); opacity: 0.667;" />
<path d="M 2479.404,1083.592 A 1064.250,1064.250 0.00 0,1 2480.8,1087.0 L 2480.8,1087.0 2412.9,1114.8 2349.0,1139.4 2289.0,1160.9 2232.6,1179.5 2179.7,1195.5 2130.0,1208.9 2083.3,1219.9 2039.4,1228.7 1998.1,1235.3 1959.3,1239.9 1922.8,1242.5 1888.3,1243.2 1855.9,1242.1 1825.2,1239.3 1796.3,1234.7 1768.9,1228.4 1742.9,1220.3 1718.3,1210.5 1694.9,1199.0 1672.6,1185.7 1651.3,1170.6 1631.1,1153.5 1611.7,1134.5 1593.1,1113.3 1575.3,1090.0 1558.3,1064.4 1541.9,1036.3 1526.3,1005.7 1511.2,972.3 1496.8,935.9 1483.1,896.5 1470.0,853.7 1457.6,807.3 1445.8,757.2 1434.7,703.0 1424.4,644.6 1414.9,581.5 1406.3,513.6 1398.5,440.6  A 1064.250,1064.250 0.00 0,0 1394.9,441.0 L 1394.9,441.0 1402.9,514.0 1411.8,581.8 1421.5,644.8 1432.0,703.2 1443.2,757.4 1455.2,807.5 1467.8,853.8 1481.0,896.5 1494.9,936.0 1509.4,972.2 1524.5,1005.6 1540.3,1036.2 1556.8,1064.2 1573.9,1089.8 1591.8,1113.0 1610.4,1134.1 1629.9,1153.1 1650.2,1170.0 1671.5,1185.1 1693.8,1198.4 1717.3,1209.8 1742.0,1219.5 1767.9,1227.4 1795.4,1233.7 1824.3,1238.2 1855.0,1240.9 1887.4,1241.9 1921.9,1241.0 1958.4,1238.3 1997.2,1233.6 2038.4,1226.8 2082.3,1217.9 2129.0,1206.7 2178.6,1193.2 2231.5,1177.0 2287.8,1158.2 2347.7,1136.4 2411.5,1111.7 2479.4,1083.6  Z" style="stroke-width: 2.0;  stroke: rgb(82,82,82); fill: rgb(204,255,0); opacity: 0.667;" />
<path d="M 2479.404,1083.592 A 1064.250,1064.250 0.00 0,1 2480.8,1087.0 L 2480.8,1087.0 2412.8,1116.9 2348.9,1147.5 2288.6,1178.6 2231.8,1209.9 2178.0,1241.3 2127.0,1272.6 2078.6,1303.7 2032.4,1334.4 1988.1,1364.7 1945.6,1394.3 1904.5,1423.4 1864.7,1451.8 1825.9,1479.3 1787.9,1506.2 1750.5,1532.2 1713.5,1557.4 1676.7,1581.9 1640.0,1605.6 1603.1,1628.7 1566.0,1651.1 1528.5,1673.0 1490.4,1694.5 1451.7,1715.7 1412.2,1736.8 1371.7,1757.8 1330.3,1779.0 1287.9,1800.6 1244.3,1822.6 1199.5,1845.5 1153.4,1869.4 1106.1,1894.5 1057.4,1921.2 1007.3,1949.7 955.9,1980.3 903.2,2013.3 849.0,2049.1 793.5,2088.0 736.7,2130.5 678.6,2176.8  A 1064.250,1064.250 0.00 0,0 681.0,2179.6 L 681.0,2179.6 738.9,2133.1 795.6,2090.5 850.9,2051.3 904.9,2015.4 957.6,1982.1 1008.9,1951.4 1058.8,1922.7 1107.4,1895.9 1154.7,1870.6 1200.7,1846.6 1245.4,1823.5 1288.9,1801.3 1331.3,1779.6 1372.6,1758.3 1413.0,1737.1 1452.4,1715.9 1491.1,1694.6 1529.1,1672.9 1566.6,1650.9 1603.6,1628.3 1640.4,1605.1 1677.0,1581.3 1713.7,1556.7 1750.6,1531.3 1787.9,1505.2 1825.8,1478.2 1864.5,1450.5 1904.2,1422.0 1945.2,1392.8 1987.6,1363.0 2031.8,1332.6 2077.9,1301.7 2126.3,1270.4 2177.1,1238.9 2230.8,1207.3 2287.5,1175.8 2347.7,1144.6 2411.5,1113.8 2479.4,1083.6  Z" style="stroke-width: 2.0;  stroke: rgb(82,82,82); fill: rgb(0,255,0); opacity: 0.667;" />
<path d="M 2479.404,1083.592 A 1064.250,1064.250 0.00 0,1 2480.8,1087.0 L 2480.8,1087.0 2413.5,1116.0 2351.3,1144.1 2294.2,1171.3 2241.8,1197.6 2193.8,1223.1 2149.9,1247.9 2110.0,1272.0 2073.9,1295.4 2041.3,1318.4 2012.0,1340.8 1986.0,1362.7 1962.9,1384.3 1942.8,1405.6 1925.4,1426.7 1910.7,1447.6 1898.6,1468.4 1889.0,1489.2 1881.8,1510.1 1877.1,1531.1 1874.7,1552.3 1874.8,1573.8 1877.2,1595.8 1882.0,1618.1 1889.2,1641.1 1899.0,1664.7 1911.3,1689.1 1926.3,1714.3 1944.1,1740.4 1964.7,1767.5 1988.4,1795.8 2015.2,1825.3 2045.3,1856.1 2078.9,1888.4 2116.2,1922.1 2157.5,1957.6 2202.9,1994.7 2252.7,2033.8 2307.2,2074.8 2366.5,2117.8  A 1064.250,1064.250 0.00 0,0 2368.7,2114.8 L 2368.7,2114.8 2309.1,2072.0 2254.5,2031.2 2204.6,1992.3 2159.1,1955.3 2117.7,1920.0 2080.2,1886.4 2046.5,1854.2 2016.3,1823.5 1989.4,1794.1 1965.6,1765.9 1944.9,1738.9 1927.1,1712.8 1912.0,1687.7 1899.6,1663.3 1889.7,1639.8 1882.4,1616.8 1877.5,1594.4 1875.0,1572.5 1874.9,1551.0 1877.2,1529.8 1881.9,1508.7 1888.9,1487.8 1898.5,1467.0 1910.5,1446.2 1925.1,1425.2 1942.4,1404.1 1962.5,1382.7 1985.5,1361.0 2011.5,1339.0 2040.7,1316.5 2073.2,1293.5 2109.2,1269.9 2149.0,1245.6 2192.8,1220.7 2240.7,1195.0 2293.1,1168.5 2350.1,1141.1 2412.1,1112.9 2479.4,1083.6  Z" style="stroke-width: 2.0;  stroke: rgb(82,82,82); fill: rgb(53,128,0); opacity: 0.667;" />
<path d="M 2479.404,1083.592 A 1064.250,1064.250 0.00 0,1 2480.8,1087.0 L 2480.8,1087.0 2413.3,1115.2 2350.7,1140.9 2292.7,1164.3 2239.3,1185.3 2190.0,1204.3 2144.8,1221.1 2103.4,1236.0 2065.6,1249.0 2031.3,1260.2 2000.3,1269.7 1972.4,1277.5 1947.6,1283.6 1925.7,1288.2 1906.6,1291.2 1890.2,1292.7 1876.4,1292.7 1865.2,1291.2 1856.5,1288.2 1850.3,1283.7 1846.5,1277.6 1845.1,1270.1 1846.1,1260.9 1849.6,1250.2 1855.6,1237.7 1864.0,1223.6 1875.0,1207.7 1888.6,1189.9 1904.9,1170.2 1923.9,1148.4 1945.9,1124.5 1970.8,1098.4 1998.9,1070.0 2030.2,1039.1 2064.9,1005.6 2103.3,969.4 2145.4,930.3 2191.5,888.1 2241.7,842.8 2296.4,794.0  A 1064.250,1064.250 0.00 0,0 2294.1,791.5 L 2294.1,791.5 2239.6,840.4 2189.5,885.9 2143.6,928.2 2101.6,967.4 2063.3,1003.8 2028.7,1037.4 1997.5,1068.4 1969.5,1096.9 1944.6,1123.1 1922.8,1147.0 1903.8,1168.8 1887.6,1188.6 1874.0,1206.4 1863.1,1222.4 1854.7,1236.6 1848.8,1249.0 1845.3,1259.8 1844.3,1268.9 1845.7,1276.5 1849.5,1282.5 1855.8,1287.0 1864.5,1290.0 1875.7,1291.4 1889.5,1291.4 1905.9,1289.8 1925.0,1286.8 1946.9,1282.1 1971.7,1275.9 1999.5,1268.0 2030.5,1258.4 2064.7,1247.1 2102.5,1233.9 2143.8,1218.9 2189.0,1201.9 2238.2,1182.8 2291.6,1161.5 2349.4,1138.0 2411.9,1112.1 2479.4,1083.6  Z" style="stroke-width: 2.0;  stroke: rgb(82,82,82); fill: rgb(0,0,204); opacity: 0.667;" />
<path d="M 2479.404,1083.592 A 1064.250,1064.250 0.00 0,1 2480.8,1087.0 L 2480.8,1087.0 2413.3,1115.3 2350.8,1141.2 2293.0,1164.8 2239.8,1186.2 2190.9,1205.6 2146.0,1223.1 2105.1,1238.6 2067.8,1252.4 2034.1,1264.5 2003.7,1274.9 1976.6,1283.7 1952.5,1290.9 1931.5,1296.7 1913.3,1301.0 1898.0,1303.9 1885.3,1305.3 1875.3,1305.4 1867.9,1304.1 1863.1,1301.3 1860.8,1297.2 1861.0,1291.7 1863.8,1284.7 1869.2,1276.2 1877.1,1266.3 1887.7,1254.8 1901.0,1241.6 1917.0,1226.8 1935.9,1210.3 1957.7,1192.0 1982.6,1171.7 2010.7,1149.5 2042.1,1125.2 2077.0,1098.7 2115.6,1069.8 2157.9,1038.6 2204.3,1004.8 2254.9,968.3 2310.0,929.0 2369.8,886.7  A 1064.250,1064.250 0.00 0,0 2367.7,883.7 L 2367.7,883.7 2308.0,926.2 2253.1,965.7 2202.6,1002.4 2156.3,1036.3 2114.1,1067.7 2075.6,1096.7 2040.8,1123.3 2009.5,1147.7 1981.5,1170.0 1956.6,1190.4 1934.9,1208.8 1916.0,1225.4 1900.1,1240.2 1886.8,1253.4 1876.3,1265.0 1868.4,1275.0 1863.1,1283.4 1860.3,1290.4 1860.1,1296.0 1862.4,1300.1 1867.2,1302.8 1874.6,1304.1 1884.6,1304.0 1897.3,1302.5 1912.7,1299.6 1930.8,1295.2 1951.8,1289.4 1975.8,1282.0 2002.9,1273.1 2033.2,1262.6 2066.9,1250.5 2104.1,1236.6 2145.1,1220.8 2189.9,1203.3 2238.7,1183.7 2291.9,1162.0 2349.6,1138.2 2412.0,1112.1 2479.4,1083.6  Z" style="stroke-width: 2.0;  stroke: rgb(82,82,82); fill: rgb(102,153,255); opacity: 0.667;" />
<path d="M 2501.546,1140.092 A 1064.250,1064.250 0.00 0,1 2502.8,1143.6 L 2502.8,1143.6 2433.3,1167.4 2368.0,1188.3 2306.8,1206.3 2249.2,1221.6 2195.2,1234.4 2144.5,1244.8 2096.9,1253.0 2052.1,1259.1 2010.1,1263.2 1970.5,1265.5 1933.3,1265.9 1898.2,1264.5 1865.2,1261.5 1833.9,1256.9 1804.4,1250.6 1776.5,1242.7 1750.1,1233.2 1724.9,1222.0 1701.1,1209.3 1678.3,1194.8 1656.6,1178.5 1635.9,1160.5 1616.1,1140.6 1597.1,1118.6 1579.0,1094.5 1561.5,1068.2 1544.8,1039.6 1528.7,1008.3 1513.4,974.4 1498.6,937.7 1484.6,897.8 1471.2,854.7 1458.4,808.0 1446.4,757.7 1435.2,703.3 1424.7,644.7 1415.1,581.6 1406.3,513.7 1398.5,440.6  A 1064.250,1064.250 0.00 0,0 1394.9,441.0 L 1394.9,441.0 1402.9,514.0 1411.9,581.9 1421.7,645.0 1432.4,703.6 1443.9,757.9 1456.1,808.2 1468.9,854.8 1482.5,897.9 1496.7,937.7 1511.6,974.4 1527.1,1008.2 1543.2,1039.4 1560.0,1068.0 1577.6,1094.3 1595.8,1118.3 1614.9,1140.2 1634.8,1160.0 1655.5,1178.0 1677.3,1194.2 1700.1,1208.6 1724.0,1221.3 1749.1,1232.3 1775.6,1241.7 1803.6,1249.5 1833.1,1255.7 1864.3,1260.3 1897.4,1263.2 1932.5,1264.4 1969.7,1263.8 2009.2,1261.5 2051.3,1257.2 2096.0,1250.9 2143.6,1242.6 2194.3,1232.0 2248.3,1219.0 2305.8,1203.5 2367.0,1185.3 2432.1,1164.2 2501.5,1140.1  Z" style="stroke-width: 2.0;  stroke: rgb(82,82,82); fill: rgb(153,204,255); opacity: 0.667;" />
<path d="M 2501.546,1140.092 A 1064.250,1064.250 0.00 0,1 2502.8,1143.6 L 2502.8,1143.6 2433.2,1169.5 2367.7,1196.4 2305.9,1223.9 2247.6,1251.9 2192.4,1280.1 2140.0,1308.4 2090.1,1336.7 2042.6,1364.8 1997.1,1392.5 1953.4,1419.9 1911.2,1446.7 1870.3,1473.0 1830.5,1498.7 1791.6,1523.7 1753.4,1548.0 1715.6,1571.7 1678.1,1594.7 1640.8,1617.0 1603.4,1638.8 1565.9,1660.1 1528.0,1680.9 1489.6,1701.5 1450.6,1721.8 1410.9,1742.0 1370.4,1762.3 1328.9,1782.8 1286.4,1803.7 1242.9,1825.3 1198.2,1847.6 1152.2,1871.1 1105.0,1895.8 1056.5,1922.2 1006.6,1950.4 955.4,1980.8 902.8,2013.6 848.8,2049.3 793.4,2088.1 736.7,2130.5 678.6,2176.8  A 1064.250,1064.250 0.00 0,0 681.0,2179.6 L 681.0,2179.6 738.9,2133.1 795.5,2090.5 850.7,2051.5 904.6,2015.7 957.1,1982.6 1008.2,1952.1 1058.0,1923.7 1106.4,1897.2 1153.5,1872.3 1199.4,1848.7 1244.0,1826.1 1287.5,1804.4 1329.9,1783.4 1371.3,1762.7 1411.7,1742.3 1451.4,1721.9 1490.3,1701.5 1528.6,1680.8 1566.4,1659.9 1603.9,1638.5 1641.2,1616.5 1678.5,1594.0 1715.8,1570.9 1753.5,1547.1 1791.7,1522.7 1830.5,1497.5 1870.2,1471.7 1911.0,1445.3 1953.1,1418.3 1996.7,1390.8 2042.1,1362.9 2089.6,1334.7 2139.3,1306.2 2191.6,1277.7 2246.7,1249.3 2305.0,1221.1 2366.7,1193.4 2432.1,1166.3 2501.5,1140.1  Z" style="stroke-width: 2.0;  stroke: rgb(82,82,82); fill: rgb(0,255,255); opacity: 0.667;" />
<path d="M 2501.546,1140.092 A 1064.250,1064.250 0.00 0,1 2502.8,1143.6 L 2502.8,1143.6 2433.9,1168.7 2370.3,1193.0 2311.7,1216.8 2257.9,1239.8 2208.6,1262.3 2163.5,1284.2 2122.5,1305.6 2085.2,1326.6 2051.5,1347.1 2021.3,1367.3 1994.3,1387.2 1970.4,1406.8 1949.4,1426.3 1931.3,1445.6 1915.9,1464.9 1903.1,1484.2 1892.9,1503.6 1885.2,1523.1 1879.9,1542.9 1877.1,1563.0 1876.7,1583.4 1878.8,1604.3 1883.3,1625.7 1890.3,1647.8 1899.8,1670.6 1911.9,1694.2 1926.8,1718.6 1944.4,1744.1 1964.9,1770.6 1988.4,1798.3 2015.2,1827.3 2045.3,1857.7 2078.9,1889.5 2116.2,1923.0 2157.5,1958.1 2202.9,1995.0 2252.7,2033.9 2307.2,2074.8 2366.5,2117.8  A 1064.250,1064.250 0.00 0,0 2368.7,2114.8 L 2368.7,2114.8 2309.1,2072.0 2254.5,2031.3 2204.6,1992.6 2159.1,1955.8 2117.7,1920.8 2080.2,1887.5 2046.5,1855.8 2016.3,1825.5 1989.5,1796.6 1965.8,1769.0 1945.2,1742.6 1927.5,1717.2 1912.6,1692.8 1900.4,1669.2 1890.8,1646.5 1883.7,1624.4 1879.1,1603.0 1877.0,1582.1 1877.3,1561.7 1880.1,1541.6 1885.2,1521.8 1892.9,1502.2 1903.0,1482.8 1915.7,1463.5 1931.1,1444.1 1949.1,1424.7 1970.0,1405.2 1993.9,1385.5 2020.8,1365.5 2051.0,1345.2 2084.6,1324.5 2121.8,1303.5 2162.8,1281.9 2207.8,1259.8 2257.0,1237.2 2310.7,1214.0 2369.2,1190.0 2432.7,1165.4 2501.5,1140.1  Z" style="stroke-width: 2.0;  stroke: rgb(82,82,82); fill: rgb(204,255,255); opacity: 0.667;" />
<path d="M 2501.546,1140.092 A 1064.250,1064.250 0.00 0,1 2502.8,1143.6 L 2502.8,1143.6 2433.7,1167.9 2369.7,1189.9 2310.4,1209.7 2255.7,1227.5 2205.3,1243.3 2159.0,1257.3 2116.6,1269.5 2077.9,1279.9 2042.7,1288.7 2010.8,1295.9 1982.2,1301.6 1956.7,1305.8 1934.1,1308.5 1914.3,1309.8 1897.3,1309.6 1883.0,1308.1 1871.2,1305.1 1862.0,1300.8 1855.3,1295.0 1851.1,1287.8 1849.3,1279.2 1849.9,1269.0 1853.0,1257.3 1858.6,1244.0 1866.7,1229.1 1877.3,1212.4 1890.6,1193.9 1906.6,1173.6 1925.4,1151.2 1947.1,1126.8 1971.8,1100.3 1999.6,1071.4 2030.8,1040.1 2065.3,1006.3 2103.5,969.8 2145.5,930.5 2191.5,888.2 2241.8,842.8 2296.4,794.0  A 1064.250,1064.250 0.00 0,0 2294.1,791.5 L 2294.1,791.5 2239.6,840.4 2189.6,886.0 2143.7,928.4 2101.8,967.9 2063.7,1004.5 2029.3,1038.4 1998.2,1069.8 1970.5,1098.7 1945.9,1125.4 1924.3,1149.8 1905.5,1172.2 1889.6,1192.6 1876.4,1211.1 1865.8,1227.9 1857.7,1242.8 1852.2,1256.1 1849.1,1267.9 1848.5,1278.0 1850.4,1286.7 1854.6,1293.8 1861.4,1299.6 1870.6,1303.9 1882.3,1306.8 1896.7,1308.3 1913.7,1308.4 1933.4,1307.0 1956.0,1304.2 1981.5,1299.9 2010.1,1294.2 2041.9,1286.9 2077.1,1277.9 2115.8,1267.3 2158.2,1255.0 2204.4,1240.9 2254.8,1224.9 2309.4,1206.9 2368.6,1186.9 2432.6,1164.6 2501.5,1140.1  Z" style="stroke-width: 2.0;  stroke: rgb(82,82,82); fill: rgb(153,0,204); opacity: 0.667;" />
<path d="M 2501.546,1140.092 A 1064.250,1064.250 0.00 0,1 2502.8,1143.6 L 2502.8,1143.6 2433.7,1167.9 2369.8,1190.1 2310.7,1210.2 2256.2,1228.4 2206.1,1244.8 2160.2,1259.3 2118.2,1272.1 2080.0,1283.4 2045.4,1293.0 2014.2,1301.2 1986.2,1307.9 1961.5,1313.1 1939.8,1317.0 1920.9,1319.6 1905.0,1320.9 1891.7,1320.8 1881.2,1319.4 1873.3,1316.8 1868.0,1312.8 1865.2,1307.5 1865.1,1300.9 1867.4,1292.9 1872.4,1283.5 1880.0,1272.6 1890.2,1260.3 1903.2,1246.4 1918.9,1230.9 1937.5,1213.8 1959.1,1194.8 1983.7,1174.1 2011.6,1151.3 2042.8,1126.6 2077.6,1099.7 2115.9,1070.6 2158.2,1039.1 2204.5,1005.1 2255.0,968.4 2310.0,929.0 2369.8,886.7  A 1064.250,1064.250 0.00 0,0 2367.7,883.7 L 2367.7,883.7 2308.1,926.2 2253.2,965.8 2202.8,1002.7 2156.6,1036.8 2114.5,1068.5 2076.2,1097.7 2041.5,1124.7 2010.4,1149.6 1982.6,1172.4 1958.0,1193.2 1936.5,1212.3 1918.0,1229.5 1902.3,1245.0 1889.4,1259.0 1879.2,1271.3 1871.7,1282.2 1866.7,1291.6 1864.4,1299.6 1864.6,1306.2 1867.3,1311.5 1872.7,1315.5 1880.6,1318.1 1891.1,1319.4 1904.3,1319.5 1920.3,1318.2 1939.1,1315.5 1960.8,1311.5 1985.6,1306.2 2013.5,1299.4 2044.6,1291.1 2079.2,1281.4 2117.4,1270.0 2159.4,1257.0 2205.3,1242.3 2255.3,1225.8 2309.7,1207.5 2368.7,1187.1 2432.6,1164.7 2501.5,1140.1  Z" style="stroke-width: 2.0;  stroke: rgb(82,82,82); fill: rgb(204,51,255); opacity: 0.667;" />
<path d="M 2501.546,1140.092 A 1064.250,1064.250 0.00 0,1 2502.8,1143.6 L 2502.8,1143.6 2433.8,1168.0 2370.0,1190.6 2311.2,1211.3 2257.1,1230.3 2207.5,1247.6 2162.1,1263.4 2120.8,1277.6 2083.4,1290.4 2049.6,1301.9 2019.4,1312.0 1992.6,1320.8 1969.1,1328.5 1948.7,1334.9 1931.3,1340.2 1916.9,1344.4 1905.4,1347.5 1896.7,1349.5 1890.8,1350.4 1887.6,1350.3 1887.1,1349.2 1889.4,1346.9 1894.4,1343.6 1902.2,1339.3 1912.8,1333.8 1926.3,1327.1 1942.6,1319.3 1962.1,1310.3 1984.6,1300.1 2010.4,1288.6 2039.5,1275.7 2072.1,1261.3 2108.4,1245.6 2148.5,1228.2 2192.6,1209.3 2240.9,1188.6 2293.7,1166.1 2351.1,1141.8 2413.4,1115.4 2480.8,1087.0  A 1064.250,1064.250 0.00 0,0 2479.4,1083.6 L 2479.4,1083.6 2412.1,1112.3 2349.8,1138.8 2292.5,1163.4 2239.9,1186.0 2191.6,1206.9 2147.5,1226.0 2107.5,1243.5 2071.3,1259.4 2038.7,1273.8 2009.6,1286.8 1983.9,1298.4 1961.4,1308.7 1942.0,1317.8 1925.7,1325.7 1912.2,1332.3 1901.6,1337.9 1893.9,1342.3 1888.9,1345.6 1886.6,1347.8 1887.0,1349.0 1890.2,1349.1 1896.2,1348.1 1904.9,1346.1 1916.4,1342.9 1930.8,1338.7 1948.1,1333.4 1968.5,1326.8 1992.0,1319.1 2018.8,1310.2 2049.0,1300.0 2082.7,1288.4 2120.0,1275.5 2161.3,1261.1 2206.6,1245.2 2256.2,1227.7 2310.2,1208.5 2369.0,1187.6 2432.6,1164.8 2501.5,1140.1  Z" style="stroke-width: 2.0;  stroke: rgb(82,82,82); fill: rgb(204,153,255); opacity: 0.667;" />
<path d="M 2549.527,1323.590 A 1064.250,1064.250 0.00 0,1 2550.1,1327.2 L 2550.1,1327.2 2477.4,1338.3 2409.2,1347.1 2345.3,1353.6 2285.4,1358.0 2229.2,1360.6 2176.5,1361.4 2127.1,1360.5 2080.7,1358.0 2037.1,1354.0 1996.2,1348.7 1957.7,1342.0 1921.4,1334.0 1887.2,1324.7 1854.8,1314.2 1824.3,1302.4 1795.4,1289.4 1767.9,1275.2 1741.8,1259.6 1716.9,1242.8 1693.2,1224.5 1670.6,1204.8 1648.9,1183.5 1628.1,1160.6 1608.1,1136.0 1588.9,1109.4 1570.5,1080.9 1552.8,1050.2 1535.8,1017.2 1519.4,981.6 1503.8,943.4 1488.8,902.3 1474.6,858.1 1461.0,810.5 1448.3,759.4 1436.4,704.4 1425.4,645.3 1415.4,581.9 1406.4,513.7 1398.5,440.6  A 1064.250,1064.250 0.00 0,0 1394.9,441.0 L 1394.9,441.0 1403.0,514.1 1412.2,582.2 1422.5,645.6 1433.7,704.6 1445.8,759.6 1458.7,810.7 1472.3,858.2 1486.7,902.3 1501.9,943.4 1517.6,981.6 1534.1,1017.0 1551.2,1050.0 1569.1,1080.6 1587.6,1109.1 1606.8,1135.6 1626.9,1160.2 1647.8,1183.0 1669.5,1204.2 1692.3,1223.8 1716.0,1242.0 1741.0,1258.8 1767.1,1274.2 1794.6,1288.4 1823.6,1301.3 1854.2,1312.9 1886.5,1323.3 1920.8,1332.5 1957.1,1340.4 1995.7,1347.0 2036.6,1352.2 2080.2,1356.0 2126.6,1358.3 2176.0,1359.0 2228.7,1358.1 2284.9,1355.3 2344.8,1350.7 2408.7,1343.9 2476.9,1334.9 2549.5,1323.6  Z" style="stroke-width: 2.0;  stroke: rgb(82,82,82); fill: rgb(102,102,102); opacity: 0.667;" />
<path d="M 2549.527,1323.590 A 1064.250,1064.250 0.00 0,1 2550.1,1327.2 L 2550.1,1327.2 2477.2,1340.4 2408.2,1355.1 2343.0,1371.1 2281.3,1388.2 2222.7,1406.1 2167.0,1424.7 2114.0,1443.7 2063.3,1463.1 2014.8,1482.7 1968.3,1502.4 1923.4,1522.0 1880.0,1541.5 1837.9,1560.8 1796.9,1579.9 1756.7,1598.7 1717.1,1617.2 1678.1,1635.4 1639.4,1653.3 1600.9,1671.0 1562.3,1688.5 1523.7,1705.9 1484.7,1723.2 1445.3,1740.6 1405.3,1758.2 1364.7,1776.1 1323.3,1794.4 1281.1,1813.4 1237.8,1833.2 1193.5,1854.1 1148.1,1876.2 1101.4,1899.8 1053.5,1925.1 1004.2,1952.5 953.6,1982.2 901.5,2014.5 848.0,2049.8 793.1,2088.3 736.6,2130.5 678.6,2176.8  A 1064.250,1064.250 0.00 0,0 681.0,2179.6 L 681.0,2179.6 738.8,2133.2 795.1,2090.8 849.9,2052.0 903.3,2016.6 955.3,1984.1 1005.8,1954.2 1055.0,1926.7 1102.8,1901.1 1149.4,1877.4 1194.7,1855.1 1239.0,1834.1 1282.1,1814.2 1324.3,1795.0 1365.7,1776.5 1406.2,1758.5 1446.1,1740.8 1485.4,1723.3 1524.4,1705.8 1563.0,1688.3 1601.5,1670.7 1640.0,1652.9 1678.6,1634.8 1717.6,1616.4 1757.0,1597.8 1797.1,1578.9 1838.1,1559.6 1880.2,1540.2 1923.5,1520.5 1968.3,1500.7 2014.8,1480.9 2063.2,1461.2 2113.8,1441.6 2166.7,1422.4 2222.3,1403.6 2280.9,1385.5 2342.6,1368.2 2407.7,1352.0 2476.6,1337.0 2549.5,1323.6  Z" style="stroke-width: 2.0;  stroke: rgb(82,82,82); fill: rgb(153,153,153); opacity: 0.667;" />
<path d="M 2549.527,1323.590 A 1064.250,1064.250 0.00 0,1 2550.1,1327.2 L 2550.1,1327.2 2477.9,1339.6 2411.1,1352.0 2349.4,1364.4 2292.6,1376.9 2240.4,1389.4 2192.6,1402.0 2148.9,1414.6 2109.2,1427.3 2073.2,1440.1 2040.7,1453.1 2011.6,1466.2 1985.7,1479.4 1962.9,1492.9 1943.0,1506.7 1926.0,1520.7 1911.8,1535.1 1900.3,1549.9 1891.3,1565.1 1885.0,1580.8 1881.2,1597.1 1880.0,1614.0 1881.3,1631.6 1885.1,1650.0 1891.6,1669.1 1900.6,1689.2 1912.4,1710.3 1926.9,1732.5 1944.3,1755.8 1964.7,1780.4 1988.1,1806.3 2014.8,1833.7 2044.9,1862.6 2078.6,1893.2 2115.9,1925.5 2157.3,1959.8 2202.8,1996.0 2252.6,2034.3 2307.1,2074.9 2366.5,2117.8  A 1064.250,1064.250 0.00 0,0 2368.7,2114.8 L 2368.7,2114.8 2309.1,2072.1 2254.5,2031.7 2204.5,1993.6 2158.9,1957.5 2117.4,1923.4 2079.9,1891.2 2046.2,1860.7 2016.0,1831.9 1989.2,1804.6 1965.6,1778.8 1945.2,1754.3 1927.7,1731.0 1913.1,1708.9 1901.3,1687.8 1892.1,1667.8 1885.6,1648.6 1881.7,1630.3 1880.4,1612.7 1881.6,1595.8 1885.3,1579.5 1891.6,1563.7 1900.4,1548.5 1911.9,1533.7 1926.1,1519.2 1943.0,1505.1 1962.8,1491.3 1985.6,1477.7 2011.4,1464.4 2040.5,1451.2 2073.0,1438.1 2108.9,1425.2 2148.6,1412.4 2192.3,1399.6 2240.0,1386.9 2292.2,1374.2 2348.9,1361.5 2410.6,1348.8 2477.3,1336.2 2549.5,1323.6  Z" style="stroke-width: 2.0;  stroke: rgb(82,82,82); fill: rgb(204,204,204); opacity: 0.667;" />
<path d="M 2549.527,1323.590 A 1064.250,1064.250 0.00 0,1 2550.1,1327.2 L 2550.1,1327.2 2477.8,1338.8 2410.7,1348.8 2348.7,1357.3 2291.4,1364.4 2238.5,1370.3 2190.0,1374.8 2145.5,1378.1 2104.8,1380.2 2067.8,1381.2 2034.3,1381.1 2004.1,1379.9 1977.1,1377.6 1953.1,1374.3 1932.0,1369.9 1913.8,1364.5 1898.3,1358.0 1885.4,1350.4 1875.2,1341.7 1867.4,1331.9 1862.2,1320.9 1859.5,1308.7 1859.2,1295.3 1861.4,1280.5 1866.2,1264.4 1873.4,1246.8 1883.3,1227.7 1895.9,1207.0 1911.1,1184.5 1929.3,1160.4 1950.3,1134.3 1974.4,1106.2 2001.7,1076.0 2032.3,1043.5 2066.5,1008.7 2104.3,971.4 2146.0,931.4 2191.7,888.6 2241.8,842.9 2296.4,794.0  A 1064.250,1064.250 0.00 0,0 2294.1,791.5 L 2294.1,791.5 2239.7,840.5 2189.8,886.4 2144.1,929.3 2102.6,969.4 2064.9,1006.9 2030.9,1041.8 2000.3,1074.3 1973.1,1104.6 1949.1,1132.8 1928.2,1159.0 1910.1,1183.2 1894.9,1205.7 1882.4,1226.4 1872.6,1245.5 1865.4,1263.2 1860.7,1279.3 1858.5,1294.1 1858.8,1307.5 1861.6,1319.7 1866.9,1330.6 1874.6,1340.4 1884.9,1349.1 1897.8,1356.6 1913.3,1363.1 1931.6,1368.4 1952.7,1372.7 1976.7,1376.0 2003.7,1378.2 2033.9,1379.3 2067.4,1379.3 2104.4,1378.1 2145.1,1375.9 2189.6,1372.4 2238.1,1367.7 2290.9,1361.7 2348.2,1354.4 2410.2,1345.6 2477.2,1335.4 2549.5,1323.6  Z" style="stroke-width: 2.0;  stroke: rgb(82,82,82); fill: rgb(204,204,153); opacity: 0.667;" />
<path d="M 2549.527,1323.590 A 1064.250,1064.250 0.00 0,1 2550.1,1327.2 L 2550.1,1327.2 2477.8,1338.8 2410.8,1349.0 2348.9,1357.9 2291.8,1365.4 2239.3,1371.7 2191.0,1376.8 2146.9,1380.9 2106.7,1383.8 2070.2,1385.6 2037.3,1386.5 2007.8,1386.3 1981.5,1385.2 1958.3,1383.1 1938.2,1380.0 1921.0,1375.9 1906.5,1370.9 1894.9,1364.9 1885.9,1357.9 1879.5,1349.9 1875.8,1340.8 1874.7,1330.7 1876.2,1319.4 1880.3,1306.9 1887.1,1293.2 1896.6,1278.3 1908.8,1261.9 1923.8,1244.2 1941.7,1224.9 1962.7,1204.1 1986.7,1181.6 2014.0,1157.4 2044.7,1131.2 2079.0,1103.2 2117.0,1073.0 2158.9,1040.6 2204.9,1006.0 2255.2,968.8 2310.1,929.1 2369.8,886.7  A 1064.250,1064.250 0.00 0,0 2367.7,883.7 L 2367.7,883.7 2308.1,926.3 2253.4,966.2 2203.2,1003.5 2157.3,1038.4 2115.5,1070.9 2077.6,1101.2 2043.4,1129.4 2012.8,1155.6 1985.6,1179.9 1961.6,1202.5 1940.8,1223.4 1922.9,1242.7 1907.9,1260.5 1895.8,1276.9 1886.4,1291.9 1879.7,1305.6 1875.6,1318.1 1874.1,1329.4 1875.3,1339.5 1879.0,1348.6 1885.4,1356.6 1894.4,1363.6 1906.1,1369.5 1920.5,1374.5 1937.8,1378.5 1957.9,1381.5 1981.1,1383.5 2007.4,1384.6 2036.9,1384.6 2069.8,1383.7 2106.3,1381.7 2146.5,1378.6 2190.6,1374.5 2238.8,1369.2 2291.4,1362.7 2348.4,1354.9 2410.3,1345.9 2477.3,1335.5 2549.5,1323.6  Z" style="stroke-width: 2.0;  stroke: rgb(82,82,82); fill: rgb(251,106,74); opacity: 0.667;" />
<path d="M 2549.527,1323.590 A 1064.250,1064.250 0.00 0,1 2550.1,1327.2 L 2550.1,1327.2 2477.9,1339.0 2411.0,1349.5 2349.3,1359.0 2292.5,1367.3 2240.4,1374.7 2192.7,1381.0 2149.2,1386.5 2109.7,1391.0 2074.0,1394.7 2042.0,1397.5 2013.5,1399.6 1988.3,1400.8 1966.4,1401.2 1947.7,1400.9 1931.9,1399.8 1919.2,1398.0 1909.3,1395.4 1902.3,1392.0 1898.1,1387.9 1896.6,1382.9 1898.0,1377.2 1902.1,1370.6 1909.1,1363.1 1918.9,1354.7 1931.7,1345.4 1947.4,1335.2 1966.1,1323.9 1988.1,1311.6 2013.3,1298.1 2041.9,1283.4 2074.0,1267.5 2109.9,1250.4 2149.6,1231.8 2193.4,1211.8 2241.5,1190.2 2294.0,1167.0 2351.2,1142.2 2413.4,1115.5 2480.8,1087.0  A 1064.250,1064.250 0.00 0,0 2479.4,1083.6 L 2479.4,1083.6 2412.1,1112.4 2350.0,1139.2 2292.8,1164.3 2240.4,1187.7 2192.4,1209.4 2148.7,1229.5 2109.0,1248.2 2073.2,1265.6 2041.1,1281.6 2012.6,1296.3 1987.4,1309.9 1965.5,1322.3 1946.8,1333.6 1931.1,1344.0 1918.4,1353.3 1908.6,1361.7 1901.7,1369.2 1897.6,1375.8 1896.2,1381.5 1897.7,1386.5 1901.9,1390.6 1908.9,1394.0 1918.8,1396.5 1931.6,1398.3 1947.3,1399.4 1966.1,1399.6 1988.0,1399.1 2013.1,1397.8 2041.6,1395.7 2073.6,1392.7 2109.3,1388.9 2148.8,1384.2 2192.3,1378.7 2240.0,1372.1 2292.1,1364.6 2348.8,1356.0 2410.5,1346.4 2477.3,1335.6 2549.5,1323.6  Z" style="stroke-width: 2.0;  stroke: rgb(82,82,82); fill: rgb(116,196,118); opacity: 0.667;" />
<path d="M 2549.527,1323.590 A 1064.250,1064.250 0.00 0,1 2550.1,1327.2 L 2550.1,1327.2 2477.9,1339.0 2411.1,1349.7 2349.4,1359.3 2292.7,1367.8 2240.6,1375.5 2193.0,1382.2 2149.6,1388.0 2110.3,1393.0 2074.8,1397.2 2042.9,1400.6 2014.6,1403.2 1989.7,1405.1 1968.1,1406.3 1949.6,1406.7 1934.2,1406.5 1921.7,1405.5 1912.2,1403.9 1905.6,1401.5 1901.8,1398.4 1900.8,1394.7 1902.6,1390.1 1907.3,1384.9 1914.8,1378.8 1925.3,1372.0 1938.7,1364.3 1955.1,1355.8 1974.6,1346.3 1997.3,1335.9 2023.3,1324.5 2052.8,1312.1 2085.9,1298.6 2122.8,1284.0 2163.6,1268.1 2208.5,1250.9 2257.8,1232.4 2311.6,1212.5 2370.2,1191.1 2433.8,1168.2 2502.8,1143.6  A 1064.250,1064.250 0.00 0,0 2501.5,1140.1 L 2501.5,1140.1 2432.7,1165.0 2369.1,1188.1 2310.6,1209.7 2256.9,1229.8 2207.7,1248.5 2162.8,1265.8 2122.0,1281.8 2085.2,1296.6 2052.2,1310.2 2022.7,1322.7 1996.7,1334.2 1974.0,1344.7 1954.6,1354.2 1938.2,1362.8 1924.8,1370.5 1914.4,1377.4 1906.9,1383.5 1902.3,1388.8 1900.4,1393.3 1901.4,1397.1 1905.2,1400.1 1911.9,1402.4 1921.4,1404.1 1933.8,1405.0 1949.3,1405.2 1967.7,1404.6 1989.4,1403.4 2014.3,1401.4 2042.6,1398.7 2074.4,1395.2 2109.9,1390.9 2149.2,1385.8 2192.6,1379.8 2240.2,1372.9 2292.2,1365.1 2348.9,1356.3 2410.5,1346.5 2477.3,1335.6 2549.5,1323.6  Z" style="stroke-width: 2.0;  stroke: rgb(82,82,82); fill: rgb(107,174,214); opacity: 0.667;" />
<path d="M 2550.961,1332.340 A 1064.250,1064.250 0.00 0,1 2551.5,1336.0 L 2551.5,1336.0 2478.7,1346.5 2410.5,1354.6 2346.5,1360.6 2286.5,1364.6 2230.3,1366.6 2177.5,1366.9 2128.0,1365.6 2081.6,1362.7 2038.0,1358.4 1997.0,1352.7 1958.5,1345.6 1922.2,1337.3 1887.9,1327.7 1855.6,1316.9 1825.0,1304.9 1796.0,1291.7 1768.6,1277.2 1742.4,1261.4 1717.5,1244.4 1693.8,1225.9 1671.1,1206.1 1649.4,1184.6 1628.5,1161.6 1608.6,1136.8 1589.3,1110.2 1570.9,1081.5 1553.1,1050.7 1536.1,1017.6 1519.7,982.0 1504.0,943.7 1489.0,902.5 1474.7,858.2 1461.2,810.6 1448.4,759.5 1436.5,704.5 1425.5,645.4 1415.4,581.9 1406.4,513.7 1398.5,440.6  A 1064.250,1064.250 0.00 0,0 1394.9,441.0 L 1394.9,441.0 1403.0,514.1 1412.2,582.2 1422.5,645.6 1433.7,704.7 1445.8,759.6 1458.8,810.8 1472.5,858.3 1486.9,902.6 1502.1,943.7 1517.9,981.9 1534.4,1017.5 1551.6,1050.5 1569.4,1081.3 1588.0,1109.8 1607.3,1136.4 1627.4,1161.1 1648.3,1184.1 1670.1,1205.5 1692.8,1225.3 1716.7,1243.6 1741.6,1260.6 1767.8,1276.3 1795.3,1290.6 1824.3,1303.8 1855.0,1315.7 1887.3,1326.4 1921.6,1335.8 1957.9,1344.0 1996.5,1350.9 2037.5,1356.5 2081.1,1360.7 2127.6,1363.4 2177.0,1364.6 2229.8,1364.1 2286.0,1361.8 2346.0,1357.7 2410.0,1351.5 2478.2,1343.1 2551.0,1332.3  Z" style="stroke-width: 2.0;  stroke: rgb(82,82,82); fill: rgb(253,141,60); opacity: 0.667;" />
<path d="M 2550.961,1332.340 A 1064.250,1064.250 0.00 0,1 2551.5,1336.0 L 2551.5,1336.0 2478.5,1348.6 2409.4,1362.7 2344.1,1378.1 2282.2,1394.7 2223.5,1412.1 2167.7,1430.2 2114.6,1448.8 2063.9,1467.8 2015.3,1487.0 1968.6,1506.3 1923.7,1525.5 1880.2,1544.7 1838.0,1563.7 1796.9,1582.5 1756.6,1601.1 1717.0,1619.3 1678.0,1637.3 1639.2,1655.0 1600.6,1672.5 1562.1,1689.9 1523.4,1707.1 1484.4,1724.2 1445.0,1741.5 1405.0,1758.9 1364.4,1776.7 1323.0,1794.9 1280.8,1813.8 1237.5,1833.6 1193.3,1854.4 1147.9,1876.4 1101.2,1899.9 1053.3,1925.3 1004.1,1952.6 953.5,1982.3 901.5,2014.5 848.0,2049.8 793.1,2088.3 736.6,2130.5 678.6,2176.8  A 1064.250,1064.250 0.00 0,0 681.0,2179.6 L 681.0,2179.6 738.8,2133.2 795.1,2090.8 849.9,2052.0 903.3,2016.6 955.2,1984.1 1005.7,1954.3 1054.8,1926.8 1102.6,1901.3 1149.2,1877.6 1194.5,1855.4 1238.7,1834.5 1281.8,1814.6 1324.0,1795.5 1365.4,1777.2 1405.9,1759.3 1445.8,1741.7 1485.1,1724.3 1524.1,1707.0 1562.7,1689.6 1601.2,1672.2 1639.7,1654.6 1678.4,1636.7 1717.4,1618.6 1757.0,1600.2 1797.2,1581.5 1838.2,1562.6 1880.4,1543.4 1923.8,1524.1 1968.7,1504.7 2015.2,1485.2 2063.7,1465.8 2114.4,1446.7 2167.5,1427.9 2223.2,1409.6 2281.9,1392.0 2343.7,1375.2 2408.9,1359.6 2477.9,1345.2 2551.0,1332.3  Z" style="stroke-width: 2.0;  stroke: rgb(82,82,82); fill: rgb(255,0,0); opacity: 0.667;" />
<path d="M 2550.961,1332.340 A 1064.250,1064.250 0.00 0,1 2551.5,1336.0 L 2551.5,1336.0 2479.2,1347.7 2412.3,1359.6 2350.5,1371.5 2293.6,1383.4 2241.4,1395.5 2193.5,1407.6 2149.7,1419.8 2109.9,1432.1 2073.8,1444.6 2041.2,1457.1 2012.0,1469.9 1986.1,1482.9 1963.2,1496.1 1943.3,1509.6 1926.3,1523.4 1912.0,1537.5 1900.4,1552.1 1891.5,1567.1 1885.1,1582.6 1881.3,1598.7 1880.0,1615.5 1881.3,1632.9 1885.1,1651.1 1891.5,1670.1 1900.6,1690.1 1912.3,1711.1 1926.9,1733.1 1944.3,1756.4 1964.6,1780.8 1988.1,1806.7 2014.8,1834.0 2044.9,1862.8 2078.5,1893.4 2115.9,1925.7 2157.3,1959.8 2202.7,1996.0 2252.6,2034.3 2307.1,2074.9 2366.5,2117.8  A 1064.250,1064.250 0.00 0,0 2368.7,2114.8 L 2368.7,2114.8 2309.1,2072.1 2254.5,2031.7 2204.5,1993.6 2158.8,1957.6 2117.4,1923.5 2079.9,1891.4 2046.1,1861.0 2015.9,1832.2 1989.2,1805.0 1965.6,1779.2 1945.1,1754.8 1927.7,1731.7 1913.1,1709.7 1901.3,1688.7 1892.1,1668.8 1885.6,1649.8 1881.8,1631.6 1880.4,1614.1 1881.6,1597.4 1885.4,1581.3 1891.7,1565.7 1900.6,1550.7 1912.1,1536.1 1926.4,1521.9 1943.3,1508.0 1963.2,1494.5 1986.0,1481.2 2011.9,1468.1 2041.1,1455.3 2073.6,1442.6 2109.6,1430.0 2149.4,1417.6 2193.1,1405.2 2241.0,1392.9 2293.2,1380.7 2350.1,1368.5 2411.8,1356.4 2478.7,1344.4 2551.0,1332.3  Z" style="stroke-width: 2.0;  stroke: rgb(82,82,82); fill: rgb(255,0,204); opacity: 0.667;" />
<path d="M 2550.961,1332.340 A 1064.250,1064.250 0.00 0,1 2551.5,1336.0 L 2551.5,1336.0 2479.1,1346.9 2412.0,1356.3 2349.8,1364.3 2292.4,1371.0 2239.5,1376.3 2190.9,1380.4 2146.4,1383.3 2105.7,1385.0 2068.6,1385.6 2035.0,1385.1 2004.8,1383.6 1977.7,1381.0 1953.7,1377.4 1932.6,1372.8 1914.3,1367.1 1898.8,1360.3 1885.9,1352.5 1875.6,1343.6 1867.8,1333.6 1862.6,1322.5 1859.8,1310.1 1859.5,1296.5 1861.7,1281.6 1866.4,1265.3 1873.7,1247.6 1883.6,1228.4 1896.1,1207.6 1911.3,1185.1 1929.4,1160.8 1950.4,1134.6 1974.5,1106.5 2001.8,1076.2 2032.4,1043.7 2066.5,1008.8 2104.3,971.4 2146.0,931.4 2191.8,888.6 2241.8,842.9 2296.4,794.0  A 1064.250,1064.250 0.00 0,0 2294.1,791.5 L 2294.1,791.5 2239.7,840.5 2189.8,886.4 2144.2,929.3 2102.6,969.5 2064.9,1007.0 2030.9,1042.0 2000.4,1074.6 1973.2,1104.9 1949.2,1133.2 1928.3,1159.4 1910.3,1183.7 1895.1,1206.3 1882.7,1227.1 1872.9,1246.4 1865.7,1264.1 1861.0,1280.4 1858.9,1295.3 1859.2,1308.9 1862.0,1321.3 1867.3,1332.4 1875.1,1342.4 1885.4,1351.2 1898.3,1359.0 1913.9,1365.7 1932.2,1371.3 1953.3,1375.9 1977.3,1379.4 2004.4,1381.9 2034.6,1383.3 2068.2,1383.7 2105.3,1382.9 2146.0,1381.0 2190.5,1378.0 2239.1,1373.8 2292.0,1368.2 2349.3,1361.4 2411.5,1353.2 2478.6,1343.5 2551.0,1332.3  Z" style="stroke-width: 2.0;  stroke: rgb(82,82,82); fill: rgb(255,204,204); opacity: 0.667;" />
<path d="M 2550.961,1332.340 A 1064.250,1064.250 0.00 0,1 2551.5,1336.0 L 2551.5,1336.0 2479.1,1347.0 2412.1,1356.6 2350.1,1364.9 2292.9,1371.9 2240.3,1377.8 2192.0,1382.5 2147.8,1386.0 2107.5,1388.6 2071.0,1390.0 2038.0,1390.5 2008.5,1390.1 1982.1,1388.6 1958.9,1386.2 1938.8,1382.8 1921.5,1378.6 1907.0,1373.3 1895.3,1367.1 1886.3,1359.9 1879.9,1351.7 1876.2,1342.4 1875.1,1332.1 1876.5,1320.6 1880.6,1308.0 1887.4,1294.2 1896.8,1279.1 1909.0,1262.7 1924.0,1244.8 1941.9,1225.5 1962.8,1204.5 1986.8,1182.0 2014.1,1157.6 2044.8,1131.5 2079.0,1103.3 2117.0,1073.1 2158.9,1040.7 2204.9,1006.0 2255.2,968.9 2310.1,929.1 2369.8,886.7  A 1064.250,1064.250 0.00 0,0 2367.7,883.7 L 2367.7,883.7 2308.1,926.4 2253.4,966.3 2203.2,1003.6 2157.3,1038.4 2115.5,1071.0 2077.7,1101.3 2043.5,1129.6 2012.9,1155.9 1985.7,1180.3 1961.8,1203.0 1940.9,1223.9 1923.1,1243.3 1908.1,1261.3 1896.0,1277.7 1886.6,1292.9 1880.0,1306.7 1875.9,1319.3 1874.5,1330.8 1875.7,1341.1 1879.4,1350.4 1885.8,1358.5 1894.9,1365.7 1906.6,1371.9 1921.1,1377.1 1938.4,1381.3 1958.5,1384.6 1981.8,1386.9 2008.1,1388.3 2037.7,1388.7 2070.6,1388.1 2107.1,1386.5 2147.4,1383.8 2191.6,1380.1 2239.8,1375.2 2292.4,1369.2 2349.6,1362.0 2411.6,1353.4 2478.6,1343.6 2551.0,1332.3  Z" style="stroke-width: 2.0;  stroke: rgb(82,82,82); fill: rgb(255,153,0); opacity: 0.667;" />
<path d="M 2550.961,1332.340 A 1064.250,1064.250 0.00 0,1 2551.5,1336.0 L 2551.5,1336.0 2479.2,1347.1 2412.2,1357.1 2350.5,1366.0 2293.6,1373.9 2241.4,1380.7 2193.6,1386.7 2150.0,1391.7 2110.5,1395.8 2074.7,1399.1 2042.7,1401.6 2014.1,1403.3 1988.9,1404.2 1967.0,1404.4 1948.2,1403.8 1932.4,1402.5 1919.6,1400.4 1909.7,1397.6 1902.7,1394.0 1898.4,1389.7 1896.9,1384.5 1898.3,1378.6 1902.4,1371.8 1909.3,1364.2 1919.1,1355.7 1931.9,1346.3 1947.5,1335.9 1966.3,1324.5 1988.2,1312.1 2013.4,1298.5 2042.0,1283.8 2074.1,1267.8 2110.0,1250.6 2149.7,1232.0 2193.4,1211.9 2241.5,1190.3 2294.0,1167.1 2351.2,1142.2 2413.4,1115.5 2480.8,1087.0  A 1064.250,1064.250 0.00 0,0 2479.4,1083.6 L 2479.4,1083.6 2412.1,1112.4 2350.0,1139.3 2292.8,1164.4 2240.4,1187.7 2192.4,1209.5 2148.7,1229.7 2109.1,1248.5 2073.3,1265.9 2041.2,1281.9 2012.7,1296.8 1987.6,1310.4 1965.7,1322.9 1947.0,1334.4 1931.3,1344.8 1918.6,1354.3 1908.9,1362.8 1902.0,1370.5 1897.9,1377.2 1896.5,1383.2 1898.0,1388.3 1902.3,1392.6 1909.4,1396.2 1919.3,1399.0 1932.1,1401.0 1947.8,1402.3 1966.6,1402.8 1988.6,1402.6 2013.8,1401.5 2042.3,1399.7 2074.4,1397.1 2110.1,1393.7 2149.6,1389.4 2193.2,1384.3 2241.0,1378.2 2293.2,1371.1 2350.0,1363.1 2411.7,1353.9 2478.6,1343.7 2551.0,1332.3  Z" style="stroke-width: 2.0;  stroke: rgb(82,82,82); fill: rgb(255,204,0); opacity: 0.667;" />
<path d="M 2550.961,1332.340 A 1064.250,1064.250 0.00 0,1 2551.5,1336.0 L 2551.5,1336.0 2479.2,1347.1 2412.3,1357.2 2350.6,1366.3 2293.7,1374.4 2241.6,1381.5 2193.9,1387.8 2150.5,1393.2 2111.1,1397.8 2075.5,1401.6 2043.6,1404.7 2015.3,1407.0 1990.3,1408.5 1968.6,1409.4 1950.1,1409.6 1934.6,1409.1 1922.2,1407.9 1912.6,1406.0 1905.9,1403.5 1902.1,1400.2 1901.1,1396.3 1902.9,1391.6 1907.6,1386.2 1915.1,1380.0 1925.5,1373.0 1938.8,1365.2 1955.2,1356.5 1974.7,1347.0 1997.4,1336.5 2023.4,1325.0 2052.9,1312.5 2086.0,1298.9 2122.9,1284.2 2163.6,1268.2 2208.6,1251.1 2257.8,1232.5 2311.6,1212.6 2370.2,1191.2 2433.8,1168.2 2502.8,1143.6  A 1064.250,1064.250 0.00 0,0 2501.5,1140.1 L 2501.5,1140.1 2432.7,1165.0 2369.1,1188.2 2310.6,1209.8 2256.9,1229.9 2207.7,1248.6 2162.8,1266.0 2122.1,1282.0 2085.3,1296.9 2052.3,1310.6 2022.8,1323.2 1996.8,1334.8 1974.2,1345.3 1954.7,1354.9 1938.4,1363.7 1925.0,1371.5 1914.7,1378.5 1907.2,1384.7 1902.5,1390.2 1900.7,1394.9 1901.8,1398.8 1905.6,1402.1 1912.3,1404.6 1921.8,1406.5 1934.3,1407.6 1949.8,1408.1 1968.3,1407.8 1990.0,1406.9 2014.9,1405.2 2043.3,1402.8 2075.1,1399.6 2110.7,1395.7 2150.1,1391.0 2193.5,1385.4 2241.2,1379.0 2293.3,1371.6 2350.1,1363.4 2411.8,1354.1 2478.7,1343.8 2551.0,1332.3  Z" style="stroke-width: 2.0;  stroke: rgb(82,82,82); fill: rgb(255,255,0); opacity: 0.667;" />
<path d="M 2550.961,1332.340 A 1064.250,1064.250 0.00 0,1 2551.5,1336.0 L 2551.5,1336.0 2479.2,1347.2 2412.4,1357.7 2350.8,1367.2 2294.1,1376.0 2242.2,1384.1 2194.7,1391.5 2151.6,1398.1 2112.5,1404.2 2077.3,1409.6 2045.8,1414.4 2017.9,1418.6 1993.5,1422.4 1972.3,1425.5 1954.4,1428.2 1939.6,1430.4 1927.9,1432.1 1919.1,1433.3 1913.3,1434.0 1910.4,1434.3 1910.3,1434.1 1913.2,1433.5 1919.0,1432.4 1927.7,1430.8 1939.4,1428.7 1954.1,1426.2 1972.0,1423.1 1993.0,1419.6 2017.4,1415.4 2045.2,1410.8 2076.6,1405.5 2111.7,1399.7 2150.8,1393.2 2193.9,1386.0 2241.2,1378.2 2293.1,1369.6 2349.6,1360.2 2411.2,1350.1 2477.9,1339.1 2550.1,1327.2  A 1064.250,1064.250 0.00 0,0 2549.5,1323.6 L 2549.5,1323.6 2477.3,1335.7 2410.6,1347.0 2349.2,1357.3 2292.6,1366.9 2240.8,1375.6 2193.5,1383.6 2150.4,1390.9 2111.4,1397.5 2076.3,1403.5 2044.9,1408.9 2017.1,1413.6 1992.7,1417.8 1971.7,1421.5 1953.8,1424.6 1939.1,1427.2 1927.4,1429.3 1918.7,1430.9 1913.0,1432.1 1910.1,1432.7 1910.1,1432.9 1913.1,1432.6 1918.9,1431.9 1927.6,1430.6 1939.4,1428.9 1954.2,1426.6 1972.1,1423.9 1993.2,1420.6 2017.6,1416.9 2045.5,1412.5 2077.0,1407.6 2112.1,1402.0 2151.2,1395.9 2194.3,1389.1 2241.8,1381.5 2293.7,1373.3 2350.3,1364.3 2411.9,1354.5 2478.7,1343.9 2551.0,1332.3  Z" style="stroke-width: 2.0;  stroke: rgb(82,82,82); fill: rgb(204,255,0); opacity: 0.667;" />
<path d="M 2499.108,1866.622 A 1064.250,1064.250 0.00 0,1 2498.0,1869.6 L 2498.0,1869.6 2429.4,1844.2 2365.9,1820.8 2307.4,1799.3 2253.5,1779.5 2204.2,1761.5 2159.0,1745.1 2117.9,1730.3 2080.7,1716.9 2047.1,1705.0 2017.1,1694.4 1990.5,1685.1 1967.1,1677.1 1946.8,1670.2 1929.5,1664.6 1915.2,1660.1 1903.8,1656.7 1895.2,1654.5 1889.3,1653.3 1886.2,1653.2 1885.8,1654.2 1888.2,1656.3 1893.2,1659.4 1901.0,1663.7 1911.6,1669.1 1925.1,1675.7 1941.5,1683.4 1960.9,1692.4 1983.5,1702.7 2009.2,1714.3 2038.3,1727.2 2070.9,1741.6 2107.1,1757.5 2147.2,1775.0 2191.2,1794.1 2239.4,1814.9 2292.1,1837.6 2349.4,1862.2 2411.6,1888.8 2478.9,1917.6  A 1064.250,1064.250 0.00 0,0 2480.1,1914.7 L 2480.1,1914.7 2412.7,1886.1 2350.5,1859.7 2293.1,1835.3 2240.4,1812.7 2192.1,1792.0 2148.0,1773.0 2107.9,1755.7 2071.6,1739.9 2039.0,1725.6 2009.8,1712.8 1984.1,1701.3 1961.5,1691.1 1942.1,1682.1 1925.6,1674.4 1912.1,1667.9 1901.5,1662.5 1893.7,1658.3 1888.6,1655.1 1886.3,1653.1 1886.7,1652.1 1889.8,1652.2 1895.6,1653.3 1904.3,1655.6 1915.7,1658.9 1930.0,1663.3 1947.3,1668.9 1967.6,1675.7 1991.0,1683.6 2017.7,1692.9 2047.7,1703.4 2081.3,1715.2 2118.6,1728.5 2159.7,1743.2 2204.9,1759.4 2254.4,1777.3 2308.3,1796.9 2366.8,1818.2 2430.4,1841.4 2499.1,1866.6  Z" style="stroke-width: 2.0;  stroke: rgb(82,82,82); fill: rgb(0,255,0); opacity: 0.667;" />
<path d="M 2485.336,1902.171 A 1064.250,1064.250 0.00 0,1 2484.1,1905.1 L 2484.1,1905.1 2416.4,1877.2 2353.9,1851.5 2296.2,1827.8 2243.2,1806.0 2194.6,1786.1 2150.1,1767.9 2109.7,1751.3 2073.1,1736.4 2040.1,1722.9 2010.6,1710.9 1984.5,1700.3 1961.6,1691.1 1941.7,1683.1 1924.9,1676.4 1911.0,1670.9 1899.9,1666.5 1891.7,1663.4 1886.1,1661.4 1883.3,1660.5 1883.2,1660.8 1885.8,1662.1 1891.1,1664.7 1899.2,1668.4 1910.0,1673.2 1923.7,1679.3 1940.3,1686.5 1959.9,1695.1 1982.6,1704.9 2008.5,1716.1 2037.7,1728.7 2070.4,1742.8 2106.7,1758.4 2146.9,1775.6 2191.0,1794.6 2239.3,1815.2 2292.0,1837.8 2349.4,1862.3 2411.6,1888.8 2478.9,1917.6  A 1064.250,1064.250 0.00 0,0 2480.1,1914.7 L 2480.1,1914.7 2412.7,1886.2 2350.4,1859.8 2293.0,1835.5 2240.2,1813.1 2191.9,1792.5 2147.7,1773.7 2107.5,1756.6 2071.1,1741.1 2038.4,1727.1 2009.1,1714.6 1983.2,1703.5 1960.4,1693.7 1940.8,1685.2 1924.2,1678.0 1910.5,1672.0 1899.7,1667.2 1891.6,1663.5 1886.3,1661.0 1883.7,1659.6 1883.8,1659.4 1886.6,1660.2 1892.2,1662.2 1900.4,1665.4 1911.5,1669.6 1925.4,1675.1 1942.3,1681.8 1962.1,1689.7 1985.1,1698.9 2011.2,1709.4 2040.8,1721.3 2073.8,1734.7 2110.4,1749.5 2150.9,1766.0 2195.4,1784.0 2244.1,1803.8 2297.2,1825.4 2354.9,1849.0 2417.6,1874.5 2485.3,1902.2  Z" style="stroke-width: 2.0;  stroke: rgb(82,82,82); fill: rgb(53,128,0); opacity: 0.667;" />
<path d="M 2485.336,1902.171 A 1064.250,1064.250 0.00 0,1 2484.1,1905.1 L 2484.1,1905.1 2416.5,1877.2 2353.9,1851.4 2296.3,1827.6 2243.4,1805.6 2194.8,1785.4 2150.5,1766.9 2110.2,1750.1 2073.7,1734.7 2040.9,1720.9 2011.6,1708.4 1985.7,1697.3 1963.0,1687.5 1943.4,1678.9 1926.8,1671.5 1913.2,1665.3 1902.5,1660.3 1894.5,1656.3 1889.3,1653.4 1886.9,1651.6 1887.2,1650.9 1890.2,1651.2 1895.9,1652.6 1904.5,1655.1 1915.8,1658.7 1930.0,1663.3 1947.2,1669.2 1967.4,1676.1 1990.8,1684.3 2017.4,1693.7 2047.4,1704.4 2080.9,1716.5 2118.1,1730.0 2159.1,1744.9 2204.2,1761.3 2253.6,1779.4 2307.4,1799.2 2365.9,1820.8 2429.4,1844.2 2498.0,1869.6  A 1064.250,1064.250 0.00 0,0 2499.1,1866.6 L 2499.1,1866.6 2430.4,1841.4 2366.9,1818.2 2308.3,1796.8 2254.4,1777.2 2205.0,1759.3 2159.8,1742.9 2118.7,1728.1 2081.5,1714.8 2048.0,1702.8 2017.9,1692.2 1991.3,1682.9 1968.0,1674.7 1947.7,1667.8 1930.5,1662.1 1916.3,1657.4 1904.9,1653.9 1896.4,1651.5 1890.6,1650.1 1887.6,1649.7 1887.3,1650.5 1889.8,1652.3 1895.0,1655.1 1902.9,1659.1 1913.7,1664.1 1927.4,1670.3 1943.9,1677.6 1963.5,1686.1 1986.3,1695.9 2012.2,1706.9 2041.6,1719.3 2074.4,1733.0 2110.9,1748.3 2151.3,1765.0 2195.7,1783.4 2244.3,1803.4 2297.3,1825.2 2355.0,1848.9 2417.6,1874.5 2485.3,1902.2  Z" style="stroke-width: 2.0;  stroke: rgb(82,82,82); fill: rgb(0,0,204); opacity: 0.667;" />
<path d="M 2159.855,665.003 A 1064.250,1064.250 0.00 0,1 2162.5,667.1 L 2162.5,667.1 2116.5,724.2 2073.2,776.5 2032.4,824.3 1994.0,867.9 1957.8,907.4 1923.8,943.1 1891.7,975.1 1861.6,1003.6 1833.1,1028.9 1806.4,1051.0 1781.2,1070.1 1757.4,1086.2 1735.0,1099.6 1713.8,1110.2 1693.8,1118.2 1674.9,1123.6 1657.0,1126.4 1640.1,1126.8 1624.0,1124.6 1608.7,1119.9 1594.2,1112.6 1580.4,1102.8 1567.2,1090.4 1554.6,1075.3 1542.6,1057.5 1531.1,1036.8 1520.0,1013.1 1509.5,986.4 1499.4,956.4 1489.7,923.1 1480.4,886.2 1471.5,845.6 1463.0,801.1 1455.0,752.5 1447.3,699.5 1440.0,641.9 1433.2,579.4 1426.8,511.7 1420.9,438.7  A 1064.250,1064.250 0.00 0,0 1417.5,439.0 L 1417.5,439.0 1423.7,512.0 1430.2,579.6 1437.3,642.1 1444.7,699.6 1452.6,752.6 1460.8,801.3 1469.4,845.7 1478.4,886.3 1487.8,923.1 1497.6,956.4 1507.8,986.4 1518.5,1013.1 1529.6,1036.7 1541.1,1057.3 1553.2,1075.1 1565.9,1090.2 1579.1,1102.6 1593.0,1112.3 1607.5,1119.5 1622.8,1124.2 1638.9,1126.3 1655.8,1125.9 1673.7,1123.0 1692.6,1117.6 1712.6,1109.5 1733.7,1098.8 1756.1,1085.4 1779.8,1069.2 1804.9,1050.0 1831.6,1027.8 1860.0,1002.5 1890.0,973.8 1922.0,941.7 1955.9,905.9 1992.0,866.3 2030.3,822.6 2070.9,774.7 2114.1,722.2 2159.9,665.0  Z" style="stroke-width: 2.0;  stroke: rgb(82,82,82); fill: rgb(102,153,255); opacity: 0.667;" />
<path d="M 1520.218,435.942 A 1064.250,1064.250 0.00 0,1 1536.3,436.4 L 1536.3,436.4 1534.1,509.6 1532.6,577.3 1531.9,639.9 1531.8,697.5 1532.5,750.5 1533.7,799.0 1535.6,843.3 1538.0,883.6 1541.1,920.1 1544.7,953.0 1548.9,982.4 1553.7,1008.4 1559.0,1031.2 1565.0,1050.9 1571.5,1067.7 1578.7,1081.5 1586.5,1092.5 1595.0,1100.7 1604.2,1106.2 1614.1,1109.0 1624.8,1109.0 1636.4,1106.4 1648.7,1101.0 1662.0,1092.9 1676.3,1081.9 1691.6,1068.1 1707.9,1051.3 1725.5,1031.5 1744.2,1008.5 1764.3,982.2 1785.8,952.6 1808.7,919.3 1833.2,882.3 1859.3,841.4 1887.2,796.4 1916.9,747.0 1948.6,693.0 1982.3,634.3 2018.3,570.5  A 1064.250,1064.250 0.00 0,0 2002.9,562.0 L 2002.9,562.0 1968.0,626.5 1935.2,685.8 1904.4,740.2 1875.5,790.1 1848.4,835.6 1823.0,876.9 1799.1,914.3 1776.7,947.9 1755.8,978.0 1736.2,1004.6 1717.8,1027.8 1700.6,1048.0 1684.5,1065.0 1669.5,1079.1 1655.5,1090.3 1642.3,1098.6 1630.1,1104.2 1618.6,1107.0 1608.0,1107.2 1598.0,1104.6 1588.8,1099.2 1580.2,1091.2 1572.2,1080.3 1564.8,1066.6 1558.1,1050.0 1551.8,1030.3 1546.1,1007.6 1541.0,981.6 1536.4,952.4 1532.3,919.6 1528.7,883.1 1525.6,842.9 1523.1,798.6 1521.1,750.1 1519.7,697.1 1518.9,639.5 1518.7,576.9 1519.1,509.2 1520.2,435.9  Z" style="stroke-width: 2.0;  stroke: rgb(82,82,82); fill: rgb(153,204,255); opacity: 0.667;" />
<path d="M 2233.640,729.027 A 1064.250,1064.250 0.00 0,1 2235.4,730.7 L 2235.4,730.7 2185.0,783.8 2138.8,833.3 2096.5,879.4 2058.0,922.3 2023.1,962.1 1991.6,998.9 1963.4,1033.0 1938.3,1064.5 1916.1,1093.5 1896.8,1120.1 1880.2,1144.5 1866.3,1166.8 1854.9,1187.0 1846.0,1205.2 1839.6,1221.6 1835.5,1236.2 1833.8,1249.1 1834.5,1260.3 1837.4,1269.9 1842.8,1277.9 1850.5,1284.4 1860.5,1289.3 1873.1,1292.7 1888.1,1294.6 1905.7,1295.0 1926.0,1293.9 1949.0,1291.3 1974.9,1287.0 2003.8,1281.2 2035.9,1273.7 2071.2,1264.4 2109.9,1253.5 2152.3,1240.6 2198.5,1225.8 2248.7,1209.1 2303.1,1190.2 2361.9,1169.0 2425.5,1145.6 2494.0,1119.7  A 1064.250,1064.250 0.00 0,0 2493.1,1117.4 L 2493.1,1117.4 2424.7,1143.5 2361.2,1167.1 2302.4,1188.3 2248.0,1207.3 2197.8,1224.2 2151.7,1239.1 2109.4,1252.1 2070.6,1263.1 2035.3,1272.4 2003.3,1280.0 1974.4,1285.9 1948.6,1290.2 1925.5,1292.9 1905.3,1294.1 1887.6,1293.8 1872.6,1291.9 1860.1,1288.5 1850.0,1283.6 1842.3,1277.1 1836.9,1269.1 1833.9,1259.5 1833.2,1248.3 1834.9,1235.5 1838.9,1220.8 1845.3,1204.4 1854.2,1186.2 1865.5,1165.9 1879.4,1143.6 1895.9,1119.2 1915.2,1092.6 1937.3,1063.5 1962.3,1032.0 1990.5,997.8 2021.9,960.9 2056.7,921.0 2095.1,878.1 2137.2,831.9 2183.4,782.3 2233.6,729.0  Z" style="stroke-width: 2.0;  stroke: rgb(82,82,82); fill: rgb(0,255,255); opacity: 0.667;" />
</g>
<defs>
<pattern id="hline-sparse" width="10" height="10" patternTransform="rotate(0 0 0)" patternUnits="userSpaceOnUse"><line x1="0" y1="0" x2="10" y2="0" style="stroke:black;stroke-width:2" /></pattern>
<pattern id="checker" width="10" height="10" patternTransform="rotate(45 0 0)" patternUnits="userSpaceOnUse"><line x1="0" y1="0" x2="10" y2="0" style="stroke:black;stroke-width:2" /><line x1="0" y1="0" x2="0" y2="10" style="stroke:black;stroke-width:2" /></pattern>
<pattern id="checker" width="10" height="10" patternTransform="rotate(45 0 0)" patternUnits="userSpaceOnUse"><line x1="0" y1="0" x2="10" y2="0" style="stroke:black;stroke-width:5" /><line x1="0" y1="0" x2="0" y2="10" style="stroke:black;stroke-width:4" /></pattern>
<pattern id="hline" width="10" height="10" patternTransform="rotate(0 0 0)" patternUnits="userSpaceOnUse"><line x1="0" y1="0" x2="10" y2="0" style="stroke:black;stroke-width:5" /></pattern>
<pattern id="vline-sparse" width="10" height="10" patternTransform="rotate(0 0 0)" patternUnits="userSpaceOnUse"><line x1="0" y1="0" x2="0" y2="10" style="stroke:black;stroke-width:2" /></pattern>
<pattern id="vline" width="10" height="10" patternTransform="rotate(0 0 0)" patternUnits="userSpaceOnUse"><line x1="0" y1="0" x2="0" y2="10" style="stroke:black;stroke-width:5" /></pattern>
</defs>
</svg>
