<?xml version="1.0" encoding="utf-8" standalone="no"?>
<!DOCTYPE svg PUBLIC "-//W3C//DTD SVG 1.1//EN" "http://www.w3.org/Graphics/SVG/1.1/DTD/svg11.dtd">
<svg width="3000px" height="3000px" version="1.1" xmlns="http://www.w3.org/2000/svg" xmlns:xlink="http://www.w3.org/1999/xlink">
<g id="ideograms">
<path d="M1500.000,425.000 A1075.000,1075.000 40.000 0,1 1713.259,446.366 L1723.178,397.359 A1125.000,1125.000 0.000 0,0 1500.000,375.000 Z" style="stroke-linecap:round;fill:rgb(116,196,118);fill-opacity:0.33;" />
<text x="1630.6" y="292.0" font-size="18.2px" font-family="CMUBright-Roman" style="text-anchor:start;fill:rgb(0,0,0);" transform="rotate(275.7,1630.6,292.0)" >R<tspan baseline-shift="-40%" font-size="90%">s</tspan>caffold<tspan baseline-shift="-40%" font-size="90%">1</tspan>0</text>
<line x1='1500.0' y1='375.0' x2='1500.0' y2='355.0' style="stroke-width:4.0;stroke:rgb(0,0,0);stroke-linecap:round;fill:none;" />
<text x="1506.5" y="345.0" font-size="18.2px" font-family="CMUBright-Roman" style="text-anchor:start;fill:rgb(0,0,0);" transform="rotate(270.0,1506.5,345.0)" >0</text>
<line x1='1573.2' y1='377.4' x2='1574.5' y2='357.4' style="stroke-width:4.0;stroke:rgb(0,0,0);stroke-linecap:round;fill:none;" />
<text x="1581.6" y="347.9" font-size="18.2px" font-family="CMUBright-Roman" style="text-anchor:start;fill:rgb(0,0,0);" transform="rotate(273.7,1581.6,347.9)" >50</text>
<line x1='1646.0' y1='384.5' x2='1648.6' y2='364.7' style="stroke-width:4.0;stroke:rgb(0,0,0);stroke-linecap:round;fill:none;" />
<text x="1656.4" y="355.6" font-size="18.2px" font-family="CMUBright-Roman" style="text-anchor:start;fill:rgb(0,0,0);" transform="rotate(277.5,1656.4,355.6)" >100</text>
<line x1='1718.3' y1='396.4' x2='1722.2' y2='376.8' style="stroke-width:4.0;stroke:rgb(0,0,0);stroke-linecap:round;fill:none;" />
<text x="1730.5" y="368.2" font-size="18.2px" font-family="CMUBright-Roman" style="text-anchor:start;fill:rgb(0,0,0);" transform="rotate(281.2,1730.5,368.2)" >150</text>
<g id="highlighttrack_0">
<path d="M1588.866,428.679 A1075.000,1075.000 40.000 0,1 1591.825,428.929 L1596.096,379.112 A1125.000,1125.000 0.000 0,0 1592.999,378.851 Z" style="stroke-width:4.0;stroke:rgb(0,0,0);stroke-linecap:round;fill:rgb(116,196,118);" />
</g>
<path d="M1768.110,458.971 A1075.000,1075.000 40.000 0,1 2133.564,631.541 L2163.032,591.147 A1125.000,1125.000 0.000 0,0 1780.580,410.551 Z" style="stroke-linecap:round;fill:rgb(116,196,118);fill-opacity:0.33;" />
<text x="2027.4" y="405.4" font-size="18.2px" font-family="CMUBright-Roman" style="text-anchor:start;fill:rgb(0,0,0);" transform="rotate(295.3,2027.4,405.4)" >R<tspan baseline-shift="-40%" font-size="90%">s</tspan>caffold<tspan baseline-shift="-40%" font-size="90%">1</tspan></text>
<line x1='1780.6' y1='410.6' x2='1785.6' y2='391.2' style="stroke-width:4.0;stroke:rgb(0,0,0);stroke-linecap:round;fill:none;" />
<text x="1794.4" y="383.1" font-size="18.2px" font-family="CMUBright-Roman" style="text-anchor:start;fill:rgb(0,0,0);" transform="rotate(284.4,1794.4,383.1)" >0</text>
<line x1='1850.8' y1='431.1' x2='1857.1' y2='412.1' style="stroke-width:4.0;stroke:rgb(0,0,0);stroke-linecap:round;fill:none;" />
<text x="1866.4" y="404.6" font-size="18.2px" font-family="CMUBright-Roman" style="text-anchor:start;fill:rgb(0,0,0);" transform="rotate(288.2,1866.4,404.6)" >50</text>
<line x1='1919.6' y1='456.2' x2='1927.1' y2='437.6' style="stroke-width:4.0;stroke:rgb(0,0,0);stroke-linecap:round;fill:none;" />
<text x="1936.8" y="430.8" font-size="18.2px" font-family="CMUBright-Roman" style="text-anchor:start;fill:rgb(0,0,0);" transform="rotate(291.9,1936.8,430.8)" >100</text>
<line x1='1986.6' y1='485.7' x2='1995.3' y2='467.7' style="stroke-width:4.0;stroke:rgb(0,0,0);stroke-linecap:round;fill:none;" />
<text x="2005.5" y="461.5" font-size="18.2px" font-family="CMUBright-Roman" style="text-anchor:start;fill:rgb(0,0,0);" transform="rotate(295.6,2005.5,461.5)" >150</text>
<line x1='2051.6' y1='519.5' x2='2061.4' y2='502.1' style="stroke-width:4.0;stroke:rgb(0,0,0);stroke-linecap:round;fill:none;" />
<text x="2071.9" y="496.5" font-size="18.2px" font-family="CMUBright-Roman" style="text-anchor:start;fill:rgb(0,0,0);" transform="rotate(299.4,2071.9,496.5)" >200</text>
<line x1='2114.2' y1='557.4' x2='2125.1' y2='540.7' style="stroke-width:4.0;stroke:rgb(0,0,0);stroke-linecap:round;fill:none;" />
<text x="2136.0" y="535.9" font-size="18.2px" font-family="CMUBright-Roman" style="text-anchor:start;fill:rgb(0,0,0);" transform="rotate(303.1,2136.0,535.9)" >250</text>
<g id="highlighttrack_0">
<path d="M1916.362,508.906 A1075.000,1075.000 40.000 0,1 1919.157,510.084 L1938.652,464.042 A1125.000,1125.000 0.000 0,0 1935.728,462.809 Z" style="stroke-width:4.0;stroke:rgb(0,0,0);stroke-linecap:round;fill:rgb(116,196,118);" />
</g>
<path d="M2178.147,665.889 A1075.000,1075.000 40.000 0,1 2329.057,815.683 L2367.617,783.854 A1125.000,1125.000 0.000 0,0 2209.689,627.093 Z" style="stroke-linecap:round;fill:rgb(116,196,118);fill-opacity:0.33;" />
<text x="2362.7" y="644.4" font-size="18.2px" font-family="CMUBright-Roman" style="text-anchor:start;fill:rgb(0,0,0);" transform="rotate(314.8,2362.7,644.4)" >R<tspan baseline-shift="-40%" font-size="90%">s</tspan>caffold<tspan baseline-shift="-40%" font-size="90%">1</tspan>1</text>
<line x1='2209.7' y1='627.1' x2='2222.3' y2='611.6' style="stroke-width:4.0;stroke:rgb(0,0,0);stroke-linecap:round;fill:none;" />
<text x="2233.6" y="607.9" font-size="18.2px" font-family="CMUBright-Roman" style="text-anchor:start;fill:rgb(0,0,0);" transform="rotate(309.1,2233.6,607.9)" >0</text>
<line x1='2265.0' y1='675.1' x2='2278.6' y2='660.4' style="stroke-width:4.0;stroke:rgb(0,0,0);stroke-linecap:round;fill:none;" />
<text x="2290.1" y="657.5" font-size="18.2px" font-family="CMUBright-Roman" style="text-anchor:start;fill:rgb(0,0,0);" transform="rotate(312.8,2290.1,657.5)" >50</text>
<line x1='2317.0' y1='726.6' x2='2331.5' y2='712.9' style="stroke-width:4.0;stroke:rgb(0,0,0);stroke-linecap:round;fill:none;" />
<text x="2343.2" y="710.7" font-size="18.2px" font-family="CMUBright-Roman" style="text-anchor:start;fill:rgb(0,0,0);" transform="rotate(316.6,2343.2,710.7)" >100</text>
<line x1='2365.6' y1='781.4' x2='2381.0' y2='768.6' style="stroke-width:4.0;stroke:rgb(0,0,0);stroke-linecap:round;fill:none;" />
<text x="2392.8" y="767.2" font-size="18.2px" font-family="CMUBright-Roman" style="text-anchor:start;fill:rgb(0,0,0);" transform="rotate(320.3,2392.8,767.2)" >150</text>
<g id="highlighttrack_0">
<path d="M2179.825,667.256 A1075.000,1075.000 40.000 0,1 2182.222,669.218 L2213.953,630.577 A1125.000,1125.000 0.000 0,0 2211.444,628.523 Z" style="stroke-width:4.0;stroke:rgb(0,0,0);stroke-linecap:round;fill:rgb(116,196,118);" />
</g>
<path d="M2363.735,860.010 A1075.000,1075.000 40.000 0,1 2458.117,1012.519 L2502.680,989.845 A1125.000,1125.000 0.000 0,0 2403.909,830.243 Z" style="stroke-linecap:round;fill:rgb(116,196,118);fill-opacity:0.33;" />
<text x="2538.1" y="868.7" font-size="18.2px" font-family="CMUBright-Roman" style="text-anchor:start;fill:rgb(0,0,0);" transform="rotate(328.2,2538.1,868.7)" >R<tspan baseline-shift="-40%" font-size="90%">s</tspan>caffold<tspan baseline-shift="-40%" font-size="90%">1</tspan>4</text>
<line x1='2403.9' y1='830.2' x2='2420.0' y2='818.3' style="stroke-width:4.0;stroke:rgb(0,0,0);stroke-linecap:round;fill:none;" />
<text x="2431.9" y="817.6" font-size="18.2px" font-family="CMUBright-Roman" style="text-anchor:start;fill:rgb(0,0,0);" transform="rotate(323.5,2431.9,817.6)" >0</text>
<line x1='2445.6' y1='890.5' x2='2462.4' y2='879.6' style="stroke-width:4.0;stroke:rgb(0,0,0);stroke-linecap:round;fill:none;" />
<text x="2474.3" y="879.7" font-size="18.2px" font-family="CMUBright-Roman" style="text-anchor:start;fill:rgb(0,0,0);" transform="rotate(327.2,2474.3,879.7)" >50</text>
<line x1='2483.2' y1='953.2' x2='2500.7' y2='943.5' style="stroke-width:4.0;stroke:rgb(0,0,0);stroke-linecap:round;fill:none;" />
<text x="2512.6" y="944.4" font-size="18.2px" font-family="CMUBright-Roman" style="text-anchor:start;fill:rgb(0,0,0);" transform="rotate(330.9,2512.6,944.4)" >100</text>
<g id="highlighttrack_0">
<path d="M2419.736,943.483 A1075.000,1075.000 40.000 0,1 2421.688,946.722 L2464.557,920.988 A1125.000,1125.000 0.000 0,0 2462.514,917.599 Z" style="stroke-width:4.0;stroke:rgb(0,0,0);stroke-linecap:round;fill:rgb(116,196,118);" />
</g>
<path d="M2482.316,1063.331 A1075.000,1075.000 40.000 0,1 2533.724,1204.976 L2581.805,1191.254 A1125.000,1125.000 0.000 0,0 2528.005,1043.021 Z" style="stroke-linecap:round;fill:rgb(116,196,118);fill-opacity:0.33;" />
<text x="2645.3" y="1094.4" font-size="18.2px" font-family="CMUBright-Roman" style="text-anchor:start;fill:rgb(0,0,0);" transform="rotate(340.1,2645.3,1094.4)" >R<tspan baseline-shift="-40%" font-size="90%">s</tspan>caffold<tspan baseline-shift="-40%" font-size="90%">1</tspan>8</text>
<line x1='2528.0' y1='1043.0' x2='2546.3' y2='1034.9' style="stroke-width:4.0;stroke:rgb(0,0,0);stroke-linecap:round;fill:none;" />
<text x="2558.0" y="1036.8" font-size="18.2px" font-family="CMUBright-Roman" style="text-anchor:start;fill:rgb(0,0,0);" transform="rotate(336.0,2558.0,1036.8)" >0</text>
<line x1='2555.6' y1='1110.9' x2='2574.3' y2='1103.9' style="stroke-width:4.0;stroke:rgb(0,0,0);stroke-linecap:round;fill:none;" />
<text x="2585.9" y="1106.6" font-size="18.2px" font-family="CMUBright-Roman" style="text-anchor:start;fill:rgb(0,0,0);" transform="rotate(339.8,2585.9,1106.6)" >50</text>
<line x1='2578.6' y1='1180.3' x2='2597.8' y2='1174.6' style="stroke-width:4.0;stroke:rgb(0,0,0);stroke-linecap:round;fill:none;" />
<text x="2609.2" y="1178.0" font-size="18.2px" font-family="CMUBright-Roman" style="text-anchor:start;fill:rgb(0,0,0);" transform="rotate(343.5,2609.2,1178.0)" >100</text>
<g id="highlighttrack_0">
<path d="M2493.310,1088.951 A1075.000,1075.000 40.000 0,1 2494.550,1091.962 L2540.808,1072.984 A1125.000,1125.000 0.000 0,0 2539.510,1069.833 Z" style="stroke-width:4.0;stroke:rgb(0,0,0);stroke-linecap:round;fill:rgb(116,196,118);" />
</g>
<path d="M2547.748,1259.482 A1075.000,1075.000 40.000 0,1 2574.411,1464.413 L2624.383,1462.758 A1125.000,1125.000 0.000 0,0 2596.480,1248.295 Z" style="stroke-linecap:round;fill:rgb(116,196,118);fill-opacity:0.33;" />
<text x="2706.0" y="1352.7" font-size="18.2px" font-family="CMUBright-Roman" style="text-anchor:start;fill:rgb(0,0,0);" transform="rotate(352.6,2706.0,1352.7)" >R<tspan baseline-shift="-40%" font-size="90%">s</tspan>caffold<tspan baseline-shift="-40%" font-size="90%">1</tspan>2</text>
<line x1='2596.5' y1='1248.3' x2='2616.0' y2='1243.8' style="stroke-width:4.0;stroke:rgb(0,0,0);stroke-linecap:round;fill:none;" />
<text x="2627.2" y="1247.9" font-size="18.2px" font-family="CMUBright-Roman" style="text-anchor:start;fill:rgb(0,0,0);" transform="rotate(347.1,2627.2,1247.9)" >0</text>
<line x1='2610.5' y1='1320.1' x2='2630.3' y2='1316.9' style="stroke-width:4.0;stroke:rgb(0,0,0);stroke-linecap:round;fill:none;" />
<text x="2641.2" y="1321.8" font-size="18.2px" font-family="CMUBright-Roman" style="text-anchor:start;fill:rgb(0,0,0);" transform="rotate(350.8,2641.2,1321.8)" >50</text>
<line x1='2619.9' y1='1392.8' x2='2639.8' y2='1390.9' style="stroke-width:4.0;stroke:rgb(0,0,0);stroke-linecap:round;fill:none;" />
<text x="2650.3" y="1396.4" font-size="18.2px" font-family="CMUBright-Roman" style="text-anchor:start;fill:rgb(0,0,0);" transform="rotate(354.5,2650.3,1396.4)" >100</text>
<g id="highlighttrack_0">
<path d="M2563.594,1343.817 A1075.000,1075.000 40.000 0,1 2567.206,1370.786 L2616.843,1364.776 A1125.000,1125.000 0.000 0,0 2613.063,1336.553 Z" style="stroke-width:4.0;stroke:rgb(0,0,0);stroke-linecap:round;fill:rgb(116,196,118);" />
</g>
<path d="M2574.801,1520.692 A1075.000,1075.000 40.000 0,1 2185.093,2328.415 L2216.958,2366.946 A1125.000,1125.000 0.000 0,0 2624.792,1521.655 Z" style="stroke-linecap:round;fill:rgb(116,196,118);fill-opacity:0.33;" />
<text x="2590.1" y="2036.5" font-size="18.2px" font-family="CMUBright-Roman" style="text-anchor:start;fill:rgb(0,0,0);" transform="rotate(25.8,2590.1,2036.5)" >R<tspan baseline-shift="-40%" font-size="90%">s</tspan>caffold<tspan baseline-shift="-40%" font-size="90%">0</tspan></text>
<line x1='2624.8' y1='1521.7' x2='2644.8' y2='1522.0' style="stroke-width:4.0;stroke:rgb(0,0,0);stroke-linecap:round;fill:none;" />
<text x="2654.6" y="1528.7" font-size="18.2px" font-family="CMUBright-Roman" style="text-anchor:start;fill:rgb(0,0,0);" transform="rotate(1.1,2654.6,1528.7)" >0</text>
<line x1='2621.0' y1='1594.8' x2='2640.9' y2='1596.5' style="stroke-width:4.0;stroke:rgb(0,0,0);stroke-linecap:round;fill:none;" />
<text x="2650.3" y="1603.8" font-size="18.2px" font-family="CMUBright-Roman" style="text-anchor:start;fill:rgb(0,0,0);" transform="rotate(4.8,2650.3,1603.8)" >50</text>
<line x1='2612.5' y1='1667.5' x2='2632.2' y2='1670.5' style="stroke-width:4.0;stroke:rgb(0,0,0);stroke-linecap:round;fill:none;" />
<text x="2641.1" y="1678.4" font-size="18.2px" font-family="CMUBright-Roman" style="text-anchor:start;fill:rgb(0,0,0);" transform="rotate(8.6,2641.1,1678.4)" >100</text>
<line x1='2599.2' y1='1739.5' x2='2618.8' y2='1743.7' style="stroke-width:4.0;stroke:rgb(0,0,0);stroke-linecap:round;fill:none;" />
<text x="2627.1" y="1752.2" font-size="18.2px" font-family="CMUBright-Roman" style="text-anchor:start;fill:rgb(0,0,0);" transform="rotate(12.3,2627.1,1752.2)" >150</text>
<line x1='2581.3' y1='1810.5' x2='2600.5' y2='1816.0' style="stroke-width:4.0;stroke:rgb(0,0,0);stroke-linecap:round;fill:none;" />
<text x="2608.3" y="1825.0" font-size="18.2px" font-family="CMUBright-Roman" style="text-anchor:start;fill:rgb(0,0,0);" transform="rotate(16.0,2608.3,1825.0)" >200</text>
<line x1='2558.8' y1='1880.1' x2='2577.7' y2='1886.9' style="stroke-width:4.0;stroke:rgb(0,0,0);stroke-linecap:round;fill:none;" />
<text x="2584.8" y="1896.4" font-size="18.2px" font-family="CMUBright-Roman" style="text-anchor:start;fill:rgb(0,0,0);" transform="rotate(19.7,2584.8,1896.4)" >250</text>
<line x1='2531.9' y1='1948.2' x2='2550.2' y2='1956.2' style="stroke-width:4.0;stroke:rgb(0,0,0);stroke-linecap:round;fill:none;" />
<text x="2556.8" y="1966.1" font-size="18.2px" font-family="CMUBright-Roman" style="text-anchor:start;fill:rgb(0,0,0);" transform="rotate(23.5,2556.8,1966.1)" >300</text>
<line x1='2500.5' y1='2014.4' x2='2518.3' y2='2023.5' style="stroke-width:4.0;stroke:rgb(0,0,0);stroke-linecap:round;fill:none;" />
<text x="2524.2" y="2033.9" font-size="18.2px" font-family="CMUBright-Roman" style="text-anchor:start;fill:rgb(0,0,0);" transform="rotate(27.2,2524.2,2033.9)" >350</text>
<line x1='2464.9' y1='2078.4' x2='2482.1' y2='2088.6' style="stroke-width:4.0;stroke:rgb(0,0,0);stroke-linecap:round;fill:none;" />
<text x="2487.3" y="2099.3" font-size="18.2px" font-family="CMUBright-Roman" style="text-anchor:start;fill:rgb(0,0,0);" transform="rotate(30.9,2487.3,2099.3)" >400</text>
<line x1='2425.3' y1='2139.9' x2='2441.7' y2='2151.3' style="stroke-width:4.0;stroke:rgb(0,0,0);stroke-linecap:round;fill:none;" />
<text x="2446.3" y="2162.3" font-size="18.2px" font-family="CMUBright-Roman" style="text-anchor:start;fill:rgb(0,0,0);" transform="rotate(34.7,2446.3,2162.3)" >450</text>
<line x1='2381.7' y1='2198.7' x2='2397.4' y2='2211.1' style="stroke-width:4.0;stroke:rgb(0,0,0);stroke-linecap:round;fill:none;" />
<text x="2401.2" y="2222.4" font-size="18.2px" font-family="CMUBright-Roman" style="text-anchor:start;fill:rgb(0,0,0);" transform="rotate(38.4,2401.2,2222.4)" >500</text>
<line x1='2334.4' y1='2254.6' x2='2349.2' y2='2268.0' style="stroke-width:4.0;stroke:rgb(0,0,0);stroke-linecap:round;fill:none;" />
<text x="2352.3" y="2279.5" font-size="18.2px" font-family="CMUBright-Roman" style="text-anchor:start;fill:rgb(0,0,0);" transform="rotate(42.1,2352.3,2279.5)" >550</text>
<line x1='2283.5' y1='2307.3' x2='2297.5' y2='2321.6' style="stroke-width:4.0;stroke:rgb(0,0,0);stroke-linecap:round;fill:none;" />
<text x="2299.8" y="2333.3" font-size="18.2px" font-family="CMUBright-Roman" style="text-anchor:start;fill:rgb(0,0,0);" transform="rotate(45.9,2299.8,2333.3)" >600</text>
<line x1='2229.4' y1='2356.5' x2='2242.4' y2='2371.7' style="stroke-width:4.0;stroke:rgb(0,0,0);stroke-linecap:round;fill:none;" />
<text x="2243.9" y="2383.6" font-size="18.2px" font-family="CMUBright-Roman" style="text-anchor:start;fill:rgb(0,0,0);" transform="rotate(49.6,2243.9,2383.6)" >650</text>
<g id="highlighttrack_0">
<path d="M2427.474,2043.523 A1075.000,1075.000 40.000 0,1 2424.789,2048.079 L2467.802,2073.571 A1125.000,1125.000 0.000 0,0 2470.612,2068.803 Z" style="stroke-width:4.0;stroke:rgb(0,0,0);stroke-linecap:round;fill:rgb(116,196,118);" />
<path d="M2573.364,1559.281 A1075.000,1075.000 40.000 0,1 2472.313,1958.510 L2517.537,1979.836 A1125.000,1125.000 0.000 0,0 2623.288,1562.038 Z" style="stroke-width:4.0;stroke:rgb(0,0,0);stroke-linecap:round;fill:rgb(116,196,118);" />
</g>
<path d="M2140.799,2363.135 A1075.000,1075.000 40.000 0,1 2087.092,2400.526 L2114.399,2442.411 A1125.000,1125.000 0.000 0,0 2170.603,2403.281 Z" style="stroke-linecap:round;fill:rgb(116,196,118);fill-opacity:0.33;" />
<text x="2186.4" y="2502.5" font-size="18.2px" font-family="CMUBright-Roman" style="text-anchor:start;fill:rgb(0,0,0);" transform="rotate(55.2,2186.4,2502.5)" >R<tspan baseline-shift="-40%" font-size="90%">s</tspan>caffold<tspan baseline-shift="-40%" font-size="90%">3</tspan>0</text>
<line x1='2170.6' y1='2403.3' x2='2182.5' y2='2419.3' style="stroke-width:4.0;stroke:rgb(0,0,0);stroke-linecap:round;fill:none;" />
<text x="2183.3" y="2431.2" font-size="18.2px" font-family="CMUBright-Roman" style="text-anchor:start;fill:rgb(0,0,0);" transform="rotate(53.4,2183.3,2431.2)" >0</text>
<g id="highlighttrack_0">
<path d="M2111.757,2383.956 A1075.000,1075.000 40.000 0,1 2092.925,2396.697 L2120.503,2438.404 A1125.000,1125.000 0.000 0,0 2140.210,2425.071 Z" style="stroke-width:4.0;stroke:rgb(0,0,0);stroke-linecap:round;fill:rgb(116,196,118);" />
<path d="M2128.712,2371.978 A1075.000,1075.000 40.000 0,1 2112.315,2383.570 L2140.794,2424.666 A1125.000,1125.000 0.000 0,0 2157.954,2412.535 Z" style="stroke-width:4.0;stroke:rgb(0,0,0);stroke-linecap:round;fill:rgb(116,196,118);" />
</g>
<path d="M2039.158,2430.018 A1075.000,1075.000 40.000 0,1 1940.412,2480.644 L1960.896,2526.255 A1125.000,1125.000 0.000 0,0 2064.235,2473.275 Z" style="stroke-linecap:round;fill:rgb(116,196,118);fill-opacity:0.33;" />
<text x="2045.8" y="2585.5" font-size="18.2px" font-family="CMUBright-Roman" style="text-anchor:start;fill:rgb(0,0,0);" transform="rotate(62.9,2045.8,2585.5)" >R<tspan baseline-shift="-40%" font-size="90%">s</tspan>caffold<tspan baseline-shift="-40%" font-size="90%">2</tspan>1</text>
<line x1='2064.2' y1='2473.3' x2='2074.3' y2='2490.6' style="stroke-width:4.0;stroke:rgb(0,0,0);stroke-linecap:round;fill:none;" />
<text x="2073.6" y="2502.5" font-size="18.2px" font-family="CMUBright-Roman" style="text-anchor:start;fill:rgb(0,0,0);" transform="rotate(59.9,2073.6,2502.5)" >0</text>
<line x1='1999.7' y1='2507.9' x2='2008.6' y2='2525.8' style="stroke-width:4.0;stroke:rgb(0,0,0);stroke-linecap:round;fill:none;" />
<text x="2007.2" y="2537.7" font-size="18.2px" font-family="CMUBright-Roman" style="text-anchor:start;fill:rgb(0,0,0);" transform="rotate(63.6,2007.2,2537.7)" >50</text>
<g id="highlighttrack_0">
<path d="M2025.538,2437.782 A1075.000,1075.000 40.000 0,1 2016.497,2442.792 L2040.520,2486.642 A1125.000,1125.000 0.000 0,0 2049.981,2481.400 Z" style="stroke-width:4.0;stroke:rgb(0,0,0);stroke-linecap:round;fill:rgb(116,196,118);" />
</g>
<path d="M1888.485,2502.349 A1075.000,1075.000 40.000 0,1 1884.449,2503.904 L1902.330,2550.598 A1125.000,1125.000 0.000 0,0 1906.554,2548.970 Z" style="stroke-linecap:round;fill:rgb(116,196,118);fill-opacity:0.33;" />
<text x="1927.9" y="2637.1" font-size="18.2px" font-family="CMUBright-Roman" style="text-anchor:start;fill:rgb(0,0,0);" transform="rotate(68.9,1927.9,2637.1)" >R<tspan baseline-shift="-40%" font-size="90%">s</tspan>caffold<tspan baseline-shift="-40%" font-size="90%">3</tspan>7</text>
<line x1='1906.6' y1='2549.0' x2='1913.8' y2='2567.6' style="stroke-width:4.0;stroke:rgb(0,0,0);stroke-linecap:round;fill:none;" />
<text x="1911.3" y="2579.3" font-size="18.2px" font-family="CMUBright-Roman" style="text-anchor:start;fill:rgb(0,0,0);" transform="rotate(68.8,1911.3,2579.3)" >0</text>
<g id="highlighttrack_0">
<path d="M1888.266,2502.434 A1075.000,1075.000 40.000 0,1 1884.462,2503.899 L1902.344,2550.592 A1125.000,1125.000 0.000 0,0 1906.325,2549.059 Z" style="stroke-width:4.0;stroke:rgb(0,0,0);stroke-linecap:round;fill:rgb(251,106,74);" />
</g>
<path d="M1831.382,2522.649 A1075.000,1075.000 40.000 0,1 1334.643,2562.206 L1326.951,2611.611 A1125.000,1125.000 0.000 0,0 1846.795,2570.214 Z" style="stroke-linecap:round;fill:rgb(116,196,118);fill-opacity:0.33;" />
<text x="1587.0" y="2711.9" font-size="18.2px" font-family="CMUBright-Roman" style="text-anchor:start;fill:rgb(0,0,0);" transform="rotate(85.4,1587.0,2711.9)" >R<tspan baseline-shift="-40%" font-size="90%">s</tspan>caffold<tspan baseline-shift="-40%" font-size="90%">4</tspan></text>
<line x1='1846.8' y1='2570.2' x2='1853.0' y2='2589.2' style="stroke-width:4.0;stroke:rgb(0,0,0);stroke-linecap:round;fill:none;" />
<text x="1849.9" y="2600.7" font-size="18.2px" font-family="CMUBright-Roman" style="text-anchor:start;fill:rgb(0,0,0);" transform="rotate(72.0,1849.9,2600.7)" >0</text>
<line x1='1776.5' y1='2590.5' x2='1781.4' y2='2609.9' style="stroke-width:4.0;stroke:rgb(0,0,0);stroke-linecap:round;fill:none;" />
<text x="1777.5" y="2621.2" font-size="18.2px" font-family="CMUBright-Roman" style="text-anchor:start;fill:rgb(0,0,0);" transform="rotate(75.8,1777.5,2621.2)" >50</text>
<line x1='1704.9' y1='2606.2' x2='1708.6' y2='2625.8' style="stroke-width:4.0;stroke:rgb(0,0,0);stroke-linecap:round;fill:none;" />
<text x="1704.0" y="2636.8" font-size="18.2px" font-family="CMUBright-Roman" style="text-anchor:start;fill:rgb(0,0,0);" transform="rotate(79.5,1704.0,2636.8)" >100</text>
<line x1='1632.6' y1='2617.2' x2='1634.9' y2='2637.0' style="stroke-width:4.0;stroke:rgb(0,0,0);stroke-linecap:round;fill:none;" />
<text x="1629.6" y="2647.7" font-size="18.2px" font-family="CMUBright-Roman" style="text-anchor:start;fill:rgb(0,0,0);" transform="rotate(83.2,1629.6,2647.7)" >150</text>
<line x1='1559.6' y1='2623.4' x2='1560.7' y2='2643.4' style="stroke-width:4.0;stroke:rgb(0,0,0);stroke-linecap:round;fill:none;" />
<text x="1554.7" y="2653.7" font-size="18.2px" font-family="CMUBright-Roman" style="text-anchor:start;fill:rgb(0,0,0);" transform="rotate(87.0,1554.7,2653.7)" >200</text>
<line x1='1486.4' y1='2624.9' x2='1486.2' y2='2644.9' style="stroke-width:4.0;stroke:rgb(0,0,0);stroke-linecap:round;fill:none;" />
<text x="1492.6" y="2655.0" font-size="18.2px" font-family="CMUBright-Roman" style="text-anchor:end;fill:rgb(0,0,0);" transform="rotate(-89.3,1492.6,2655.0)" >250</text>
<line x1='1413.3' y1='2621.7' x2='1411.7' y2='2641.6' style="stroke-width:4.0;stroke:rgb(0,0,0);stroke-linecap:round;fill:none;" />
<text x="1417.4" y="2652.0" font-size="18.2px" font-family="CMUBright-Roman" style="text-anchor:end;fill:rgb(0,0,0);" transform="rotate(-85.6,1417.4,2652.0)" >300</text>
<line x1='1340.5' y1='2613.6' x2='1337.7' y2='2633.4' style="stroke-width:4.0;stroke:rgb(0,0,0);stroke-linecap:round;fill:none;" />
<text x="1342.7" y="2644.2" font-size="18.2px" font-family="CMUBright-Roman" style="text-anchor:end;fill:rgb(0,0,0);" transform="rotate(-81.8,1342.7,2644.2)" >350</text>
<g id="highlighttrack_0">
<path d="M1827.660,2523.848 A1075.000,1075.000 40.000 0,1 1467.794,2574.517 L1466.296,2624.495 A1125.000,1125.000 0.000 0,0 1842.900,2571.468 Z" style="stroke-width:4.0;stroke:rgb(0,0,0);stroke-linecap:round;fill:rgb(251,106,74);" />
</g>
<path d="M1279.278,2552.096 A1075.000,1075.000 40.000 0,1 791.707,2308.670 L758.764,2346.282 A1125.000,1125.000 0.000 0,0 1269.011,2601.031 Z" style="stroke-linecap:round;fill:rgb(116,196,118);fill-opacity:0.33;" />
<text x="965.8" y="2591.3" font-size="18.2px" font-family="CMUBright-Roman" style="text-anchor:end;fill:rgb(0,0,0);" transform="rotate(-63.5,965.8,2591.3)" >R<tspan baseline-shift="-40%" font-size="90%">s</tspan>caffold<tspan baseline-shift="-40%" font-size="90%">2</tspan></text>
<line x1='1269.0' y1='2601.0' x2='1264.9' y2='2620.6' style="stroke-width:4.0;stroke:rgb(0,0,0);stroke-linecap:round;fill:none;" />
<text x="1269.2" y="2631.7" font-size="18.2px" font-family="CMUBright-Roman" style="text-anchor:end;fill:rgb(0,0,0);" transform="rotate(-78.2,1269.2,2631.7)" >0</text>
<line x1='1197.9' y1='2583.7' x2='1192.5' y2='2602.9' style="stroke-width:4.0;stroke:rgb(0,0,0);stroke-linecap:round;fill:none;" />
<text x="1196.1" y="2614.3" font-size="18.2px" font-family="CMUBright-Roman" style="text-anchor:end;fill:rgb(0,0,0);" transform="rotate(-74.4,1196.1,2614.3)" >50</text>
<line x1='1128.0' y1='2561.7' x2='1121.4' y2='2580.6' style="stroke-width:4.0;stroke:rgb(0,0,0);stroke-linecap:round;fill:none;" />
<text x="1124.3" y="2592.2" font-size="18.2px" font-family="CMUBright-Roman" style="text-anchor:end;fill:rgb(0,0,0);" transform="rotate(-70.7,1124.3,2592.2)" >100</text>
<line x1='1059.8' y1='2535.3' x2='1051.9' y2='2553.7' style="stroke-width:4.0;stroke:rgb(0,0,0);stroke-linecap:round;fill:none;" />
<text x="1054.0" y="2565.4" font-size="18.2px" font-family="CMUBright-Roman" style="text-anchor:end;fill:rgb(0,0,0);" transform="rotate(-67.0,1054.0,2565.4)" >150</text>
<line x1='993.4' y1='2504.5' x2='984.4' y2='2522.3' style="stroke-width:4.0;stroke:rgb(0,0,0);stroke-linecap:round;fill:none;" />
<text x="985.7" y="2534.2" font-size="18.2px" font-family="CMUBright-Roman" style="text-anchor:end;fill:rgb(0,0,0);" transform="rotate(-63.2,985.7,2534.2)" >200</text>
<line x1='929.1' y1='2469.4' x2='919.0' y2='2486.6' style="stroke-width:4.0;stroke:rgb(0,0,0);stroke-linecap:round;fill:none;" />
<text x="919.5" y="2498.5" font-size="18.2px" font-family="CMUBright-Roman" style="text-anchor:end;fill:rgb(0,0,0);" transform="rotate(-59.5,919.5,2498.5)" >250</text>
<line x1='867.3' y1='2430.2' x2='856.0' y2='2446.7' style="stroke-width:4.0;stroke:rgb(0,0,0);stroke-linecap:round;fill:none;" />
<text x="855.8" y="2458.6" font-size="18.2px" font-family="CMUBright-Roman" style="text-anchor:end;fill:rgb(0,0,0);" transform="rotate(-55.8,855.8,2458.6)" >300</text>
<line x1='808.1' y1='2387.1' x2='795.8' y2='2402.8' style="stroke-width:4.0;stroke:rgb(0,0,0);stroke-linecap:round;fill:none;" />
<text x="794.8" y="2414.7" font-size="18.2px" font-family="CMUBright-Roman" style="text-anchor:end;fill:rgb(0,0,0);" transform="rotate(-52.0,794.8,2414.7)" >350</text>
<g id="highlighttrack_0">
<path d="M932.678,2413.110 A1075.000,1075.000 40.000 0,1 930.088,2411.496 L903.580,2453.891 A1125.000,1125.000 0.000 0,0 906.291,2455.581 Z" style="stroke-width:4.0;stroke:rgb(0,0,0);stroke-linecap:round;fill:rgb(116,196,118);" />
<path d="M1185.106,2527.846 A1075.000,1075.000 40.000 0,1 1182.264,2526.971 L1167.485,2574.737 A1125.000,1125.000 0.000 0,0 1170.460,2575.652 Z" style="stroke-width:4.0;stroke:rgb(0,0,0);stroke-linecap:round;fill:rgb(116,196,118);" />
</g>
<path d="M750.356,2270.492 A1075.000,1075.000 40.000 0,1 552.717,2008.213 L508.658,2031.851 A1125.000,1125.000 0.000 0,0 715.488,2306.329 Z" style="stroke-linecap:round;fill:rgb(116,196,118);fill-opacity:0.33;" />
<text x="535.4" y="2238.8" font-size="18.2px" font-family="CMUBright-Roman" style="text-anchor:end;fill:rgb(0,0,0);" transform="rotate(-37.0,535.4,2238.8)" >R<tspan baseline-shift="-40%" font-size="90%">s</tspan>caffold<tspan baseline-shift="-40%" font-size="90%">8</tspan></text>
<line x1='715.5' y1='2306.3' x2='701.5' y2='2320.7' style="stroke-width:4.0;stroke:rgb(0,0,0);stroke-linecap:round;fill:none;" />
<text x="699.2" y="2332.4" font-size="18.2px" font-family="CMUBright-Roman" style="text-anchor:end;fill:rgb(0,0,0);" transform="rotate(-45.8,699.2,2332.4)" >0</text>
<line x1='664.7' y1='2253.6' x2='649.9' y2='2267.0' style="stroke-width:4.0;stroke:rgb(0,0,0);stroke-linecap:round;fill:none;" />
<text x="646.8" y="2278.5" font-size="18.2px" font-family="CMUBright-Roman" style="text-anchor:end;fill:rgb(0,0,0);" transform="rotate(-42.1,646.8,2278.5)" >50</text>
<line x1='617.5' y1='2197.7' x2='601.8' y2='2210.1' style="stroke-width:4.0;stroke:rgb(0,0,0);stroke-linecap:round;fill:none;" />
<text x="598.0" y="2221.4" font-size="18.2px" font-family="CMUBright-Roman" style="text-anchor:end;fill:rgb(0,0,0);" transform="rotate(-38.3,598.0,2221.4)" >100</text>
<line x1='573.9' y1='2138.8' x2='557.5' y2='2150.1' style="stroke-width:4.0;stroke:rgb(0,0,0);stroke-linecap:round;fill:none;" />
<text x="553.0" y="2161.2" font-size="18.2px" font-family="CMUBright-Roman" style="text-anchor:end;fill:rgb(0,0,0);" transform="rotate(-34.6,553.0,2161.2)" >150</text>
<line x1='534.4' y1='2077.2' x2='517.2' y2='2087.5' style="stroke-width:4.0;stroke:rgb(0,0,0);stroke-linecap:round;fill:none;" />
<text x="512.0" y="2098.2" font-size="18.2px" font-family="CMUBright-Roman" style="text-anchor:end;fill:rgb(0,0,0);" transform="rotate(-30.9,512.0,2098.2)" >200</text>
<g id="highlighttrack_0">
<path d="M573.762,2045.626 A1075.000,1075.000 40.000 0,1 564.287,2029.212 L520.765,2053.827 A1125.000,1125.000 0.000 0,0 530.681,2071.004 Z" style="stroke-width:4.0;stroke:rgb(0,0,0);stroke-linecap:round;fill:rgb(116,196,118);" />
<path d="M654.961,2164.481 A1075.000,1075.000 40.000 0,1 653.035,2162.024 L613.641,2192.815 A1125.000,1125.000 0.000 0,0 615.657,2195.387 Z" style="stroke-width:4.0;stroke:rgb(0,0,0);stroke-linecap:round;fill:rgb(116,196,118);" />
</g>
<path d="M527.418,1957.940 A1075.000,1075.000 40.000 0,1 446.201,1712.444 L397.187,1722.325 A1125.000,1125.000 0.000 0,0 482.181,1979.239 Z" style="stroke-linecap:round;fill:rgb(116,196,118);fill-opacity:0.33;" />
<text x="349.5" y="1890.6" font-size="18.2px" font-family="CMUBright-Roman" style="text-anchor:end;fill:rgb(0,0,0);" transform="rotate(-18.3,349.5,1890.6)" >R<tspan baseline-shift="-40%" font-size="90%">s</tspan>caffold<tspan baseline-shift="-40%" font-size="90%">1</tspan>1</text>
<line x1='482.2' y1='1979.2' x2='464.1' y2='1987.8' style="stroke-width:4.0;stroke:rgb(0,0,0);stroke-linecap:round;fill:none;" />
<text x="457.8" y="1997.9" font-size="18.2px" font-family="CMUBright-Roman" style="text-anchor:end;fill:rgb(0,0,0);" transform="rotate(-25.2,457.8,1997.9)" >0</text>
<line x1='453.2' y1='1912.0' x2='434.6' y2='1919.3' style="stroke-width:4.0;stroke:rgb(0,0,0);stroke-linecap:round;fill:none;" />
<text x="427.6" y="1929.1" font-size="18.2px" font-family="CMUBright-Roman" style="text-anchor:end;fill:rgb(0,0,0);" transform="rotate(-21.5,427.6,1929.1)" >50</text>
<line x1='428.6' y1='1843.1' x2='409.5' y2='1849.2' style="stroke-width:4.0;stroke:rgb(0,0,0);stroke-linecap:round;fill:none;" />
<text x="402.0" y="1858.4" font-size="18.2px" font-family="CMUBright-Roman" style="text-anchor:end;fill:rgb(0,0,0);" transform="rotate(-17.8,402.0,1858.4)" >100</text>
<line x1='408.5' y1='1772.6' x2='389.1' y2='1777.5' style="stroke-width:4.0;stroke:rgb(0,0,0);stroke-linecap:round;fill:none;" />
<text x="381.0" y="1786.2" font-size="18.2px" font-family="CMUBright-Roman" style="text-anchor:end;fill:rgb(0,0,0);" transform="rotate(-14.0,381.0,1786.2)" >150</text>
<g id="highlighttrack_0">
<path d="M455.417,1753.914 A1075.000,1075.000 40.000 0,1 450.716,1733.728 L401.912,1744.599 A1125.000,1125.000 0.000 0,0 406.832,1765.723 Z" style="stroke-width:4.0;stroke:rgb(0,0,0);stroke-linecap:round;fill:rgb(116,196,118);" />
</g>
<path d="M436.527,1657.001 A1075.000,1075.000 40.000 0,1 441.097,1314.663 L391.846,1306.042 A1125.000,1125.000 0.000 0,0 387.063,1664.304 Z" style="stroke-linecap:round;fill:rgb(116,196,118);fill-opacity:0.33;" />
<text x="285.0" y="1493.3" font-size="18.2px" font-family="CMUBright-Roman" style="text-anchor:end;fill:rgb(0,0,0);" transform="rotate(0.8,285.0,1493.3)" >R<tspan baseline-shift="-40%" font-size="90%">s</tspan>caffold<tspan baseline-shift="-40%" font-size="90%">7</tspan></text>
<line x1='387.1' y1='1664.3' x2='367.3' y2='1667.2' style="stroke-width:4.0;stroke:rgb(0,0,0);stroke-linecap:round;fill:none;" />
<text x="358.4" y="1675.1" font-size="18.2px" font-family="CMUBright-Roman" style="text-anchor:end;fill:rgb(0,0,0);" transform="rotate(-8.4,358.4,1675.1)" >0</text>
<line x1='378.7' y1='1591.6' x2='358.8' y2='1593.2' style="stroke-width:4.0;stroke:rgb(0,0,0);stroke-linecap:round;fill:none;" />
<text x="349.4" y="1600.5" font-size="18.2px" font-family="CMUBright-Roman" style="text-anchor:end;fill:rgb(0,0,0);" transform="rotate(-4.7,349.4,1600.5)" >50</text>
<line x1='375.2' y1='1518.4' x2='355.2' y2='1518.8' style="stroke-width:4.0;stroke:rgb(0,0,0);stroke-linecap:round;fill:none;" />
<text x="345.3" y="1525.4" font-size="18.2px" font-family="CMUBright-Roman" style="text-anchor:end;fill:rgb(0,0,0);" transform="rotate(-0.9,345.3,1525.4)" >100</text>
<line x1='376.3' y1='1445.2' x2='356.4' y2='1444.3' style="stroke-width:4.0;stroke:rgb(0,0,0);stroke-linecap:round;fill:none;" />
<text x="346.1" y="1450.3" font-size="18.2px" font-family="CMUBright-Roman" style="text-anchor:end;fill:rgb(0,0,0);" transform="rotate(2.8,346.1,1450.3)" >150</text>
<line x1='382.3' y1='1372.3' x2='362.4' y2='1370.0' style="stroke-width:4.0;stroke:rgb(0,0,0);stroke-linecap:round;fill:none;" />
<text x="351.7" y="1375.3" font-size="18.2px" font-family="CMUBright-Roman" style="text-anchor:end;fill:rgb(0,0,0);" transform="rotate(6.5,351.7,1375.3)" >200</text>
<g id="highlighttrack_0">
<path d="M428.288,1415.987 A1075.000,1075.000 40.000 0,1 428.547,1412.741 L378.712,1408.683 A1125.000,1125.000 0.000 0,0 378.441,1412.080 Z" style="stroke-width:4.0;stroke:rgb(0,0,0);stroke-linecap:round;fill:rgb(116,196,118);" />
<path d="M433.300,1633.328 A1075.000,1075.000 40.000 0,1 432.837,1629.572 L383.202,1635.599 A1125.000,1125.000 0.000 0,0 383.686,1639.529 Z" style="stroke-width:4.0;stroke:rgb(0,0,0);stroke-linecap:round;fill:rgb(116,196,118);" />
</g>
<path d="M452.248,1259.498 A1075.000,1075.000 40.000 0,1 1038.944,528.891 L1017.499,483.723 A1125.000,1125.000 0.000 0,0 403.516,1248.312 Z" style="stroke-linecap:round;fill:rgb(116,196,118);fill-opacity:0.33;" />
<text x="546.7" y="746.7" font-size="18.2px" font-family="CMUBright-Roman" style="text-anchor:end;fill:rgb(0,0,0);" transform="rotate(38.8,546.7,746.7)" >R<tspan baseline-shift="-40%" font-size="90%">s</tspan>caffold<tspan baseline-shift="-40%" font-size="90%">0</tspan></text>
<line x1='403.5' y1='1248.3' x2='384.0' y2='1243.8' style="stroke-width:4.0;stroke:rgb(0,0,0);stroke-linecap:round;fill:none;" />
<text x="372.8" y="1247.9" font-size="18.2px" font-family="CMUBright-Roman" style="text-anchor:end;fill:rgb(0,0,0);" transform="rotate(12.9,372.8,1247.9)" >0</text>
<line x1='422.2' y1='1177.5' x2='403.0' y2='1171.8' style="stroke-width:4.0;stroke:rgb(0,0,0);stroke-linecap:round;fill:none;" />
<text x="391.6" y="1175.2" font-size="18.2px" font-family="CMUBright-Roman" style="text-anchor:end;fill:rgb(0,0,0);" transform="rotate(16.7,391.6,1175.2)" >50</text>
<line x1='445.5' y1='1108.1' x2='426.7' y2='1101.1' style="stroke-width:4.0;stroke:rgb(0,0,0);stroke-linecap:round;fill:none;" />
<text x="415.1" y="1103.8" font-size="18.2px" font-family="CMUBright-Roman" style="text-anchor:end;fill:rgb(0,0,0);" transform="rotate(20.4,415.1,1103.8)" >100</text>
<line x1='473.2' y1='1040.3' x2='454.9' y2='1032.2' style="stroke-width:4.0;stroke:rgb(0,0,0);stroke-linecap:round;fill:none;" />
<text x="443.2" y="1034.0" font-size="18.2px" font-family="CMUBright-Roman" style="text-anchor:end;fill:rgb(0,0,0);" transform="rotate(24.1,443.2,1034.0)" >150</text>
<line x1='505.3' y1='974.5' x2='487.6' y2='965.2' style="stroke-width:4.0;stroke:rgb(0,0,0);stroke-linecap:round;fill:none;" />
<text x="475.7" y="966.3" font-size="18.2px" font-family="CMUBright-Roman" style="text-anchor:end;fill:rgb(0,0,0);" transform="rotate(27.8,475.7,966.3)" >200</text>
<line x1='541.5' y1='910.9' x2='524.5' y2='900.5' style="stroke-width:4.0;stroke:rgb(0,0,0);stroke-linecap:round;fill:none;" />
<text x="512.6" y="900.8" font-size="18.2px" font-family="CMUBright-Roman" style="text-anchor:end;fill:rgb(0,0,0);" transform="rotate(31.6,512.6,900.8)" >250</text>
<line x1='581.9' y1='849.9' x2='565.6' y2='838.3' style="stroke-width:4.0;stroke:rgb(0,0,0);stroke-linecap:round;fill:none;" />
<text x="553.7" y="837.8" font-size="18.2px" font-family="CMUBright-Roman" style="text-anchor:end;fill:rgb(0,0,0);" transform="rotate(35.3,553.7,837.8)" >300</text>
<line x1='626.1' y1='791.5' x2='610.6' y2='778.9' style="stroke-width:4.0;stroke:rgb(0,0,0);stroke-linecap:round;fill:none;" />
<text x="598.7" y="777.7" font-size="18.2px" font-family="CMUBright-Roman" style="text-anchor:end;fill:rgb(0,0,0);" transform="rotate(39.0,598.7,777.7)" >350</text>
<line x1='674.0' y1='736.2' x2='659.4' y2='722.6' style="stroke-width:4.0;stroke:rgb(0,0,0);stroke-linecap:round;fill:none;" />
<text x="647.6" y="720.6" font-size="18.2px" font-family="CMUBright-Roman" style="text-anchor:end;fill:rgb(0,0,0);" transform="rotate(42.8,647.6,720.6)" >400</text>
<line x1='725.5' y1='684.1' x2='711.7' y2='669.6' style="stroke-width:4.0;stroke:rgb(0,0,0);stroke-linecap:round;fill:none;" />
<text x="700.1" y="666.8" font-size="18.2px" font-family="CMUBright-Roman" style="text-anchor:end;fill:rgb(0,0,0);" transform="rotate(46.5,700.1,666.8)" >450</text>
<line x1='780.2' y1='635.4' x2='767.4' y2='620.1' style="stroke-width:4.0;stroke:rgb(0,0,0);stroke-linecap:round;fill:none;" />
<text x="756.0" y="616.5" font-size="18.2px" font-family="CMUBright-Roman" style="text-anchor:end;fill:rgb(0,0,0);" transform="rotate(50.2,756.0,616.5)" >500</text>
<line x1='837.9' y1='590.4' x2='826.2' y2='574.3' style="stroke-width:4.0;stroke:rgb(0,0,0);stroke-linecap:round;fill:none;" />
<text x="815.0" y="570.0" font-size="18.2px" font-family="CMUBright-Roman" style="text-anchor:end;fill:rgb(0,0,0);" transform="rotate(53.9,815.0,570.0)" >550</text>
<line x1='898.5' y1='549.3' x2='887.8' y2='532.4' style="stroke-width:4.0;stroke:rgb(0,0,0);stroke-linecap:round;fill:none;" />
<text x="877.0" y="527.4" font-size="18.2px" font-family="CMUBright-Roman" style="text-anchor:end;fill:rgb(0,0,0);" transform="rotate(57.7,877.0,527.4)" >600</text>
<line x1='961.6' y1='512.2' x2='952.0' y2='494.6' style="stroke-width:4.0;stroke:rgb(0,0,0);stroke-linecap:round;fill:none;" />
<text x="941.6" y="489.0" font-size="18.2px" font-family="CMUBright-Roman" style="text-anchor:end;fill:rgb(0,0,0);" transform="rotate(61.4,941.6,489.0)" >650</text>
<g id="highlighttrack_0">
<path d="M621.508,880.423 A1075.000,1075.000 40.000 0,1 637.660,858.132 L597.551,828.277 A1125.000,1125.000 0.000 0,0 580.648,851.605 Z" style="stroke-width:4.0;stroke:rgb(0,0,0);stroke-linecap:round;fill:rgb(116,196,118);" />
<path d="M1008.688,543.842 A1075.000,1075.000 40.000 0,1 1013.394,541.439 L990.762,496.854 A1125.000,1125.000 0.000 0,0 985.837,499.370 Z" style="stroke-width:4.0;stroke:rgb(0,0,0);stroke-linecap:round;fill:rgb(116,196,118);" />
</g>
<path d="M1090.400,506.092 A1075.000,1075.000 40.000 0,1 1123.878,492.946 L1106.384,446.107 A1125.000,1125.000 0.000 0,0 1071.348,459.864 Z" style="stroke-linecap:round;fill:rgb(116,196,118);fill-opacity:0.33;" />
<text x="1047.1" y="372.6" font-size="18.2px" font-family="CMUBright-Roman" style="text-anchor:end;fill:rgb(0,0,0);" transform="rotate(68.6,1047.1,372.6)" >R<tspan baseline-shift="-40%" font-size="90%">s</tspan>caffold<tspan baseline-shift="-40%" font-size="90%">2</tspan>2</text>
<line x1='1071.3' y1='459.9' x2='1063.7' y2='441.4' style="stroke-width:4.0;stroke:rgb(0,0,0);stroke-linecap:round;fill:none;" />
<text x="1053.9" y="434.6" font-size="18.2px" font-family="CMUBright-Roman" style="text-anchor:end;fill:rgb(0,0,0);" transform="rotate(67.6,1053.9,434.6)" >0</text>
<g id="highlighttrack_0">
<path d="M1104.184,500.523 A1075.000,1075.000 40.000 0,1 1122.939,493.297 L1105.402,446.474 A1125.000,1125.000 0.000 0,0 1085.774,454.036 Z" style="stroke-width:4.0;stroke:rgb(0,0,0);stroke-linecap:round;fill:rgb(116,196,118);" />
</g>
<path d="M1177.098,474.642 A1075.000,1075.000 40.000 0,1 1199.875,467.745 L1185.915,419.733 A1125.000,1125.000 0.000 0,0 1162.080,426.951 Z" style="stroke-linecap:round;fill:rgb(116,196,118);fill-opacity:0.33;" />
<text x="1138.8" y="339.9" font-size="18.2px" font-family="CMUBright-Roman" style="text-anchor:end;fill:rgb(0,0,0);" transform="rotate(73.2,1138.8,339.9)" >R<tspan baseline-shift="-40%" font-size="90%">s</tspan>caffold<tspan baseline-shift="-40%" font-size="90%">2</tspan>4</text>
<line x1='1162.1' y1='427.0' x2='1156.1' y2='407.9' style="stroke-width:4.0;stroke:rgb(0,0,0);stroke-linecap:round;fill:none;" />
<text x="1146.9" y="400.3" font-size="18.2px" font-family="CMUBright-Roman" style="text-anchor:end;fill:rgb(0,0,0);" transform="rotate(72.5,1146.9,400.3)" >0</text>
<g id="highlighttrack_0">
<path d="M1177.134,474.630 A1075.000,1075.000 40.000 0,1 1198.876,468.036 L1184.871,420.038 A1125.000,1125.000 0.000 0,0 1162.117,426.939 Z" style="stroke-width:4.0;stroke:rgb(0,0,0);stroke-linecap:round;fill:rgb(116,196,118);" />
</g>
<path d="M1254.310,453.453 A1075.000,1075.000 40.000 0,1 1383.412,431.341 L1377.989,381.636 A1125.000,1125.000 0.000 0,0 1242.883,404.776 Z" style="stroke-linecap:round;fill:rgb(116,196,118);fill-opacity:0.33;" />
<text x="1285.5" y="304.1" font-size="18.2px" font-family="CMUBright-Roman" style="text-anchor:end;fill:rgb(0,0,0);" transform="rotate(80.3,1285.5,304.1)" >R<tspan baseline-shift="-40%" font-size="90%">s</tspan>caffold<tspan baseline-shift="-40%" font-size="90%">2</tspan>0</text>
<line x1='1242.9' y1='404.8' x2='1238.3' y2='385.3' style="stroke-width:4.0;stroke:rgb(0,0,0);stroke-linecap:round;fill:none;" />
<text x="1229.7" y="377.1" font-size="18.2px" font-family="CMUBright-Roman" style="text-anchor:end;fill:rgb(0,0,0);" transform="rotate(76.8,1229.7,377.1)" >0</text>
<line x1='1314.7' y1='390.4' x2='1311.4' y2='370.6' style="stroke-width:4.0;stroke:rgb(0,0,0);stroke-linecap:round;fill:none;" />
<text x="1303.3" y="361.9" font-size="18.2px" font-family="CMUBright-Roman" style="text-anchor:end;fill:rgb(0,0,0);" transform="rotate(80.5,1303.3,361.9)" >50</text>
<g id="highlighttrack_0">
<path d="M1269.639,449.972 A1075.000,1075.000 40.000 0,1 1279.734,447.808 L1269.490,398.869 A1125.000,1125.000 0.000 0,0 1258.925,401.133 Z" style="stroke-width:4.0;stroke:rgb(0,0,0);stroke-linecap:round;fill:rgb(116,196,118);" />
</g>
<path d="M1439.501,426.704 A1075.000,1075.000 40.000 0,1 1443.739,426.473 L1441.122,376.542 A1125.000,1125.000 0.000 0,0 1436.687,376.783 Z" style="stroke-linecap:round;fill:rgb(116,196,118);fill-opacity:0.33;" />
<text x="1424.5" y="287.3" font-size="18.2px" font-family="CMUBright-Roman" style="text-anchor:end;fill:rgb(0,0,0);" transform="rotate(86.9,1424.5,287.3)" >R<tspan baseline-shift="-40%" font-size="90%">s</tspan>caffold<tspan baseline-shift="-40%" font-size="90%">2</tspan>9</text>
<line x1='1436.7' y1='376.8' x2='1435.6' y2='356.8' style="stroke-width:4.0;stroke:rgb(0,0,0);stroke-linecap:round;fill:none;" />
<text x="1428.5" y="347.2" font-size="18.2px" font-family="CMUBright-Roman" style="text-anchor:end;fill:rgb(0,0,0);" transform="rotate(86.8,1428.5,347.2)" >0</text>
<g id="highlighttrack_0">
<path d="M1439.638,426.696 A1075.000,1075.000 40.000 0,1 1443.722,426.474 L1441.104,376.543 A1125.000,1125.000 0.000 0,0 1436.830,376.775 Z" style="stroke-width:4.0;stroke:rgb(0,0,0);stroke-linecap:round;fill:rgb(116,196,118);" />
</g>
</g>
<g id="track_0">
<path d="M 2552.958,1345.379 A 1064.250,1064.250 0.00 0,1 2556.5,1372.1 L 2556.5,1372.1 2482.9,1379.8 2413.0,1385.0 2346.6,1388.0 2283.4,1388.9 2223.2,1388.0 2165.7,1385.6 2110.8,1381.8 2058.3,1376.8 2007.9,1370.9 1959.4,1364.2 1912.7,1356.7 1867.5,1348.7 1823.6,1340.2 1780.9,1331.3 1739.2,1322.1 1698.3,1312.6 1658.1,1302.9 1618.3,1293.0 1578.8,1282.8 1539.4,1272.3 1500.1,1261.6 1460.6,1250.5 1420.8,1238.9 1380.6,1226.8 1339.8,1214.1 1298.4,1200.6 1256.1,1186.3 1212.9,1170.8 1168.6,1154.0 1123.2,1135.8 1076.5,1116.0 1028.4,1094.2 978.9,1070.2 927.8,1043.8 875.1,1014.7 820.7,982.5 764.4,947.0 706.3,907.8 646.3,864.6  A 1064.250,1064.250 0.00 0,0 630.3,886.6 L 630.3,886.6 691.4,928.3 750.5,966.1 807.6,1000.1 862.9,1030.9 916.3,1058.6 968.0,1083.7 1018.2,1106.4 1066.8,1126.9 1114.0,1145.6 1159.8,1162.7 1204.5,1178.3 1248.1,1192.6 1290.8,1205.9 1332.6,1218.3 1373.7,1230.0 1414.2,1241.0 1454.2,1251.6 1494.0,1261.7 1533.6,1271.4 1573.2,1280.9 1612.9,1290.1 1653.0,1299.0 1693.5,1307.7 1734.6,1316.1 1776.6,1324.3 1819.5,1332.1 1863.5,1339.4 1908.9,1346.3 1955.8,1352.6 2004.5,1358.1 2055.0,1362.7 2107.6,1366.3 2162.6,1368.7 2220.1,1369.7 2280.3,1369.1 2343.5,1366.6 2409.8,1362.0 2479.6,1355.0 2553.0,1345.4  Z" style="stroke-width: 2.0;  stroke: rgb(82,82,82); fill: rgb(251,106,74); opacity: 0.667;" />
<path d="M 2020.282,2428.404 A 1064.250,1064.250 0.00 0,1 2011.3,2433.4 L 2011.3,2433.4 1976.7,2367.6 1945.6,2303.9 1917.8,2242.1 1892.7,2182.3 1870.1,2124.3 1849.7,2068.1 1831.1,2013.6 1814.0,1960.8 1798.2,1909.6 1783.4,1859.9 1769.3,1811.7 1755.8,1764.7 1742.6,1719.0 1729.6,1674.3 1716.5,1630.7 1703.3,1587.9 1689.8,1545.9 1675.9,1504.5 1661.4,1463.5 1646.4,1422.8 1630.7,1382.3 1614.4,1341.7 1597.4,1301.0 1579.6,1259.9 1561.2,1218.3 1542.1,1175.9 1522.4,1132.6 1502.1,1088.1 1481.4,1042.3 1460.4,994.9 1439.1,945.7 1417.8,894.5 1396.5,841.0 1375.5,785.0 1355.0,726.2 1335.1,664.5 1316.1,599.4 1298.3,530.8 1281.9,458.3  A 1064.250,1064.250 0.00 0,0 1271.9,460.5 L 1271.9,460.5 1289.0,532.8 1307.5,601.2 1327.1,666.1 1347.6,727.7 1368.7,786.2 1390.2,842.0 1412.0,895.3 1433.8,946.3 1455.5,995.3 1477.0,1042.5 1498.2,1088.1 1518.8,1132.4 1539.0,1175.5 1558.5,1217.7 1577.3,1259.2 1595.4,1300.1 1612.9,1340.7 1629.6,1381.0 1645.7,1421.4 1661.1,1461.9 1675.9,1502.8 1690.2,1544.1 1704.2,1586.0 1717.8,1628.6 1731.3,1672.1 1744.7,1716.6 1758.4,1762.2 1772.3,1809.0 1786.8,1857.2 1802.1,1906.7 1818.4,1957.8 1836.0,2010.4 1855.2,2064.7 1876.1,2120.7 1899.3,2178.5 1924.9,2238.1 1953.4,2299.6 1985.0,2363.0 2020.3,2428.4  Z" style="stroke-width: 2.0;  stroke: rgb(82,82,82); fill: rgb(116,196,118); opacity: 0.667;" />
<path d="M 2105.639,2375.117 A 1064.250,1064.250 0.00 0,1 2087.0,2387.7 L 2087.0,2387.7 2047.0,2325.1 2010.8,2264.2 1977.9,2205.0 1948.0,2147.4 1920.7,2091.5 1895.7,2037.2 1872.7,1984.5 1851.3,1933.3 1831.3,1883.6 1812.5,1835.3 1794.5,1788.4 1777.2,1742.7 1760.3,1698.3 1743.7,1654.9 1727.1,1612.5 1710.5,1570.9 1693.6,1530.1 1676.4,1490.0 1658.7,1450.3 1640.5,1411.0 1621.6,1371.9 1602.1,1332.8 1581.9,1293.5 1561.0,1254.0 1539.3,1214.0 1516.9,1173.2 1493.9,1131.6 1470.2,1088.9 1446.0,1044.8 1421.4,999.3 1396.4,951.9 1371.1,902.5 1345.8,850.9 1320.5,796.7 1295.5,739.7 1270.9,679.7 1246.9,616.3 1223.8,549.3 1201.9,478.4  A 1064.250,1064.250 0.00 0,0 1180.4,484.9 L 1180.4,484.9 1203.8,555.4 1228.3,621.9 1253.6,684.7 1279.4,744.2 1305.7,800.7 1332.1,854.3 1358.5,905.4 1384.8,954.2 1410.8,1001.0 1436.4,1046.1 1461.6,1089.6 1486.1,1131.8 1510.0,1172.9 1533.2,1213.2 1555.8,1252.8 1577.5,1291.9 1598.6,1330.6 1618.9,1369.3 1638.6,1408.0 1657.6,1447.0 1676.1,1486.3 1694.2,1526.0 1711.9,1566.5 1729.5,1607.6 1746.9,1649.7 1764.4,1692.7 1782.3,1736.8 1800.5,1782.1 1819.5,1828.6 1839.4,1876.5 1860.4,1925.8 1882.8,1976.5 1907.0,2028.7 1933.1,2082.4 1961.6,2137.8 1992.7,2194.7 2026.8,2253.2 2064.4,2313.4 2105.6,2375.1  Z" style="stroke-width: 2.0;  stroke: rgb(82,82,82); fill: rgb(107,174,214); opacity: 0.667;" />
<path d="M 439.005,1416.827 A 1064.250,1064.250 0.00 0,1 439.3,1413.6 L 439.3,1413.6 513.3,1418.5 583.8,1420.8 651.1,1421.1 715.4,1419.5 776.8,1416.3 835.6,1411.8 892.0,1406.2 946.1,1399.8 998.3,1392.7 1048.6,1385.2 1097.3,1377.3 1144.5,1369.2 1190.4,1361.1 1235.3,1353.0 1279.3,1345.1 1322.6,1337.4 1365.3,1330.0 1407.7,1322.8 1449.9,1316.0 1492.0,1309.5 1534.2,1303.2 1576.8,1297.2 1619.7,1291.3 1663.3,1285.5 1707.6,1279.7 1752.9,1273.8 1799.1,1267.6 1846.6,1260.9 1895.3,1253.7 1945.6,1245.6 1997.4,1236.6 2051.0,1226.3 2106.4,1214.5 2163.8,1201.0 2223.3,1185.4 2285.0,1167.4 2349.0,1146.8 2415.5,1123.1 2484.6,1096.0  A 1064.250,1064.250 0.00 0,0 2483.4,1093.1 L 2483.4,1093.1 2414.4,1120.3 2348.0,1144.2 2284.0,1165.0 2222.3,1183.2 2162.9,1199.0 2105.5,1212.7 2050.1,1224.6 1996.6,1235.1 1944.8,1244.3 1894.6,1252.5 1845.8,1259.9 1798.4,1266.7 1752.2,1273.0 1707.0,1279.1 1662.7,1285.0 1619.1,1290.9 1576.2,1296.9 1533.6,1303.1 1491.4,1309.5 1449.3,1316.2 1407.2,1323.1 1364.8,1330.4 1322.1,1338.0 1278.9,1345.8 1234.9,1353.8 1190.0,1362.0 1144.1,1370.3 1096.9,1378.5 1048.2,1386.5 998.0,1394.2 945.8,1401.5 891.7,1408.1 835.3,1413.8 776.6,1418.5 715.1,1421.9 650.9,1423.7 583.6,1423.6 513.0,1421.4 439.0,1416.8  Z" style="stroke-width: 2.0;  stroke: rgb(82,82,82); fill: rgb(253,141,60); opacity: 0.667;" />
<path d="M 583.024,2040.169 A 1064.250,1064.250 0.00 0,1 573.6,2023.9 L 573.6,2023.9 637.3,1987.7 695.9,1953.9 749.8,1922.4 799.2,1893.1 844.4,1865.8 885.4,1840.5 922.6,1817.1 956.0,1795.4 985.9,1775.3 1012.5,1756.9 1035.8,1739.9 1055.9,1724.4 1073.0,1710.3 1087.2,1697.4 1098.5,1685.8 1107.0,1675.4 1112.8,1666.2 1115.9,1658.0 1116.2,1651.0 1113.9,1644.9 1108.9,1639.9 1101.2,1635.9 1090.7,1632.9 1077.4,1630.9 1061.2,1629.9 1042.1,1629.8 1019.9,1630.8 994.6,1632.8 965.9,1635.8 933.9,1639.8 898.2,1645.0 858.9,1651.3 815.5,1658.8 768.1,1667.5 716.3,1677.4 660.0,1688.7 598.9,1701.5 532.7,1715.7 461.2,1731.4  A 1064.250,1064.250 0.00 0,0 465.9,1751.4 L 465.9,1751.4 537.0,1734.3 602.9,1718.8 663.8,1704.9 719.9,1692.5 771.5,1681.5 818.7,1671.9 861.9,1663.6 901.1,1656.5 936.6,1650.7 968.6,1646.0 997.2,1642.4 1022.5,1639.9 1044.6,1638.5 1063.7,1638.2 1079.9,1638.9 1093.2,1640.6 1103.8,1643.4 1111.5,1647.2 1116.6,1652.1 1119.1,1658.0 1118.8,1665.1 1115.9,1673.2 1110.2,1682.5 1101.9,1693.1 1090.8,1704.8 1076.8,1717.9 1060.0,1732.3 1040.1,1748.2 1017.1,1765.5 990.9,1784.4 961.3,1805.0 928.3,1827.2 891.5,1851.3 850.9,1877.4 806.3,1905.4 757.4,1935.6 704.1,1968.0 646.0,2002.9 583.0,2040.2  Z" style="stroke-width: 2.0;  stroke: rgb(82,82,82); fill: rgb(255,0,0); opacity: 0.667;" />
<path d="M 1013.602,553.404 A 1064.250,1064.250 0.00 0,1 1018.3,551.0 L 1018.3,551.0 1052.9,616.6 1087.7,677.8 1122.5,735.1 1157.4,788.7 1192.1,839.0 1226.5,886.2 1260.6,930.8 1294.3,973.0 1327.6,1013.0 1360.4,1051.1 1392.6,1087.6 1424.4,1122.7 1455.6,1156.6 1486.3,1189.5 1516.6,1221.6 1546.4,1253.1 1575.8,1284.2 1604.9,1315.1 1633.8,1345.8 1662.6,1376.5 1691.4,1407.3 1720.2,1438.4 1749.4,1469.8 1778.9,1501.6 1809.0,1533.9 1839.8,1566.7 1871.6,1600.1 1904.5,1634.0 1938.8,1668.6 1974.7,1703.8 2012.5,1739.6 2052.4,1776.0 2094.6,1813.0 2139.6,1850.4 2187.5,1888.3 2238.7,1926.5 2293.6,1965.1 2352.4,2003.8 2415.5,2042.6  A 1064.250,1064.250 0.00 0,0 2418.2,2038.1 L 2418.2,2038.1 2354.9,1999.6 2295.8,1961.2 2240.8,1922.9 2189.4,1884.9 2141.3,1847.2 2096.2,1810.0 2053.7,1773.3 2013.7,1737.1 1975.7,1701.5 1939.7,1666.5 1905.2,1632.0 1872.1,1598.2 1840.1,1565.0 1809.1,1532.4 1778.9,1500.2 1749.2,1468.6 1719.9,1437.3 1690.9,1406.4 1662.0,1375.7 1633.1,1345.1 1604.0,1314.6 1574.8,1283.9 1545.2,1252.9 1515.2,1221.5 1484.8,1189.5 1453.9,1156.8 1422.5,1123.0 1390.6,1088.1 1358.2,1051.8 1325.2,1013.8 1291.7,974.0 1257.8,932.0 1223.5,887.6 1188.8,840.5 1153.9,790.4 1118.8,736.9 1083.6,679.8 1048.5,618.8 1013.6,553.4  Z" style="stroke-width: 2.0;  stroke: rgb(82,82,82); fill: rgb(255,0,204); opacity: 0.667;" />
<path d="M 1108.142,510.518 A 1064.250,1064.250 0.00 0,1 1126.7,503.4 L 1126.7,503.4 1153.9,572.5 1181.9,637.7 1210.6,699.3 1239.6,757.5 1268.9,812.7 1298.1,865.1 1327.2,915.0 1356.1,962.7 1384.5,1008.4 1412.3,1052.4 1439.6,1094.9 1466.1,1136.2 1491.9,1176.5 1516.8,1215.9 1540.9,1254.8 1564.2,1293.2 1586.7,1331.4 1608.3,1369.6 1629.2,1407.8 1649.4,1446.4 1668.9,1485.3 1687.9,1524.9 1706.5,1565.1 1724.8,1606.1 1743.0,1648.1 1761.2,1691.1 1779.6,1735.2 1798.4,1780.5 1817.8,1827.1 1838.1,1875.1 1859.5,1924.5 1882.3,1975.4 1906.7,2027.7 1933.1,2081.7 1961.7,2137.1 1993.0,2194.2 2027.3,2252.8 2064.9,2313.0 2106.2,2374.7  A 1064.250,1064.250 0.00 0,0 2122.4,2363.3 L 2122.4,2363.3 2079.9,2302.3 2041.2,2242.8 2005.9,2184.8 1973.5,2128.4 1943.9,2073.5 1916.5,2020.1 1891.1,1968.2 1867.4,1917.7 1845.1,1868.7 1823.9,1821.1 1803.6,1774.9 1783.9,1729.9 1764.7,1686.1 1745.7,1643.5 1726.8,1601.9 1707.7,1561.2 1688.3,1521.3 1668.6,1482.2 1648.3,1443.6 1627.4,1405.4 1605.8,1367.6 1583.5,1329.8 1560.3,1292.1 1536.3,1254.1 1511.5,1215.7 1485.8,1176.7 1459.3,1136.9 1432.0,1096.1 1404.0,1054.1 1375.3,1010.6 1346.0,965.4 1316.3,918.3 1286.3,868.9 1256.1,817.1 1225.8,762.5 1195.7,704.8 1165.9,643.8 1136.6,579.2 1108.1,510.5  Z" style="stroke-width: 2.0;  stroke: rgb(82,82,82); fill: rgb(255,204,204); opacity: 0.667;" />
<path d="M 2562.631,1558.688 A 1064.250,1064.250 0.00 0,1 2462.6,1953.9 L 2462.6,1953.9 2395.9,1923.2 2333.3,1895.9 2274.5,1871.7 2219.4,1850.6 2167.7,1832.2 2119.2,1816.5 2073.7,1803.3 2031.0,1792.5 1991.0,1783.9 1953.4,1777.5 1918.2,1773.2 1885.1,1770.8 1854.0,1770.4 1824.7,1771.9 1797.2,1775.2 1771.4,1780.4 1747.0,1787.4 1724.0,1796.2 1702.3,1806.9 1681.8,1819.4 1662.5,1833.9 1644.2,1850.4 1626.9,1869.0 1610.5,1889.7 1595.1,1912.7 1580.5,1938.1 1566.8,1966.0 1553.9,1996.6 1541.7,2030.0 1530.4,2066.4 1519.9,2105.9 1510.2,2148.9 1501.3,2195.4 1493.3,2245.7 1486.3,2300.2 1480.1,2358.9 1475.0,2422.2 1471.0,2490.4 1468.1,2563.8  A 1064.250,1064.250 0.00 0,0 1824.4,2513.6 L 1824.4,2513.6 1802.7,2443.5 1783.8,2377.8 1767.6,2316.2 1753.9,2258.7 1742.6,2204.8 1733.4,2154.4 1726.4,2107.3 1721.4,2063.3 1718.3,2022.1 1717.0,1983.6 1717.5,1947.6 1719.6,1913.9 1723.4,1882.5 1728.9,1853.1 1735.9,1825.6 1744.5,1799.8 1754.7,1775.8 1766.6,1753.3 1780.1,1732.2 1795.3,1712.6 1812.2,1694.2 1831.0,1677.1 1851.7,1661.1 1874.5,1646.3 1899.3,1632.6 1926.4,1619.9 1955.9,1608.3 1987.9,1597.8 2022.6,1588.2 2060.2,1579.8 2100.9,1572.4 2144.8,1566.2 2192.1,1561.1 2243.2,1557.3 2298.2,1554.7 2357.3,1553.4 2420.9,1553.6 2489.3,1555.3 2562.6,1558.7  Z" style="stroke-width: 2.0;  stroke: rgb(82,82,82); fill: rgb(255,153,0); opacity: 0.667;" />
<path d="M 2173.026,675.583 A 1064.250,1064.250 0.00 0,1 2175.4,677.5 L 2175.4,677.5 2127.3,734.2 2079.7,786.9 2032.6,835.9 1986.3,881.7 1940.7,924.6 1896.0,964.8 1852.3,1002.8 1809.6,1038.8 1767.9,1073.0 1727.3,1105.9 1687.8,1137.6 1649.4,1168.3 1612.1,1198.4 1575.8,1228.0 1540.6,1257.3 1506.3,1286.5 1473.0,1315.8 1440.4,1345.3 1408.6,1375.2 1377.5,1405.7 1346.8,1436.7 1316.5,1468.5 1286.4,1501.2 1256.4,1534.7 1226.2,1569.2 1195.8,1604.8 1164.8,1641.4 1133.2,1679.0 1100.5,1717.7 1066.7,1757.5 1031.4,1798.4 994.4,1840.2 955.4,1883.0 914.1,1926.7 870.2,1971.2 823.3,2016.5 773.1,2062.3 719.3,2108.7 661.5,2155.4  A 1064.250,1064.250 0.00 0,0 663.4,2157.8 L 663.4,2157.8 721.1,2111.0 774.8,2064.4 824.8,2018.4 871.5,1973.1 915.4,1928.4 956.6,1884.6 995.4,1841.7 1032.3,1799.7 1067.5,1758.8 1101.2,1718.9 1133.7,1680.1 1165.3,1642.3 1196.1,1605.7 1226.4,1570.0 1256.5,1535.4 1286.4,1501.8 1316.4,1469.1 1346.6,1437.2 1377.2,1406.0 1408.3,1375.5 1440.0,1345.5 1472.4,1315.9 1505.7,1286.5 1539.9,1257.2 1575.0,1227.8 1611.2,1198.1 1648.4,1167.9 1686.7,1137.0 1726.2,1105.3 1766.7,1072.3 1808.2,1037.9 1850.9,1001.8 1894.5,963.7 1939.0,923.3 1984.5,880.3 2030.7,834.4 2077.6,785.2 2125.1,732.4 2173.0,675.6  Z" style="stroke-width: 2.0;  stroke: rgb(82,82,82); fill: rgb(255,204,0); opacity: 0.667;" />
<path d="M 1440.241,437.429 A 1064.250,1064.250 0.00 0,1 1444.3,437.2 L 1444.3,437.2 1449.4,511.3 1456.4,581.8 1465.2,649.0 1475.4,713.0 1486.7,774.1 1498.9,832.6 1511.7,888.6 1525.0,942.4 1538.5,994.1 1552.1,1044.1 1565.6,1092.4 1578.9,1139.3 1591.9,1185.0 1604.4,1229.7 1616.5,1273.5 1628.0,1316.7 1638.8,1359.5 1649.1,1401.9 1658.7,1444.2 1667.6,1486.6 1676.0,1529.1 1683.9,1572.1 1691.3,1615.5 1698.4,1659.7 1705.2,1704.6 1711.9,1750.5 1718.6,1797.6 1725.5,1845.9 1732.7,1895.5 1740.6,1946.7 1749.2,1999.5 1758.9,2054.0 1770.0,2110.4 1782.6,2168.8 1797.1,2229.2 1813.8,2291.8 1833.0,2356.8 1855.2,2424.1 1880.6,2493.9  A 1064.250,1064.250 0.00 0,0 1884.4,2492.4 L 1884.4,2492.4 1858.7,2422.7 1836.3,2355.5 1816.8,2290.7 1799.8,2228.1 1785.1,2167.7 1772.3,2109.4 1761.0,2053.0 1751.1,1998.5 1742.3,1945.8 1734.2,1894.6 1726.8,1845.0 1719.7,1796.7 1712.8,1749.7 1706.0,1703.8 1699.0,1658.9 1691.8,1614.8 1684.2,1571.4 1676.2,1528.5 1667.6,1485.9 1658.4,1443.6 1648.7,1401.3 1638.3,1358.9 1627.3,1316.3 1615.6,1273.1 1603.4,1229.3 1590.7,1184.7 1577.5,1139.0 1564.1,1092.1 1550.4,1043.9 1536.6,994.0 1522.8,942.3 1509.4,888.6 1496.3,832.6 1483.9,774.2 1472.4,713.1 1462.0,649.1 1453.0,582.0 1445.6,511.5 1440.2,437.4  Z" style="stroke-width: 2.0;  stroke: rgb(82,82,82); fill: rgb(255,255,0); opacity: 0.667;" />
<path d="M 1912.199,518.817 A 1064.250,1064.250 0.00 0,1 1915.0,520.0 L 1915.0,520.0 1884.9,588.0 1854.0,652.1 1822.7,712.6 1791.2,769.8 1759.6,824.1 1728.1,875.6 1696.9,924.8 1666.1,971.8 1636.0,1016.9 1606.5,1060.3 1577.8,1102.3 1549.9,1143.2 1523.0,1183.1 1497.1,1222.3 1472.1,1261.0 1448.2,1299.3 1425.3,1337.5 1403.3,1375.7 1382.3,1414.1 1362.1,1452.9 1342.7,1492.2 1324.0,1532.1 1306.0,1572.8 1288.3,1614.4 1271.0,1657.0 1253.8,1700.8 1236.5,1745.7 1219.0,1792.0 1201.1,1839.6 1182.5,1888.7 1162.9,1939.3 1142.0,1991.4 1119.7,2045.2 1095.6,2100.6 1069.3,2157.6 1040.6,2216.3 1009.0,2276.7 974.2,2338.7 935.8,2402.4  A 1064.250,1064.250 0.00 0,0 938.4,2404.0 L 938.4,2404.0 976.6,2340.2 1011.2,2278.1 1042.6,2217.6 1071.2,2158.8 1097.3,2101.7 1121.3,2046.3 1143.4,1992.5 1164.1,1940.2 1183.6,1889.6 1202.1,1840.5 1219.9,1792.8 1237.2,1746.5 1254.3,1701.4 1271.4,1657.7 1288.6,1615.0 1306.2,1573.3 1324.1,1532.6 1342.7,1492.6 1362.0,1453.3 1382.0,1414.5 1402.9,1376.0 1424.8,1337.7 1447.6,1299.5 1471.5,1261.1 1496.3,1222.3 1522.1,1183.1 1548.9,1143.1 1576.7,1102.1 1605.2,1060.0 1634.6,1016.5 1664.7,971.3 1695.3,924.2 1726.3,875.0 1757.7,823.4 1789.1,769.0 1820.5,711.7 1851.6,651.1 1882.3,586.9 1912.2,518.8  Z" style="stroke-width: 2.0;  stroke: rgb(82,82,82); fill: rgb(204,255,0); opacity: 0.667;" />
<path d="M 1587.977,439.393 A 1064.250,1064.250 0.00 0,1 1590.9,439.6 L 1590.9,439.6 1583.4,513.6 1573.9,584.0 1562.9,651.1 1550.6,715.1 1537.4,776.2 1523.3,834.7 1508.8,890.8 1494.0,944.7 1479.1,996.6 1464.2,1046.7 1449.6,1095.2 1435.4,1142.3 1421.8,1188.3 1408.7,1233.2 1396.3,1277.4 1384.7,1320.9 1373.8,1363.9 1363.8,1406.7 1354.7,1449.4 1346.3,1492.2 1338.7,1535.2 1331.9,1578.6 1325.8,1622.6 1320.2,1667.3 1315.0,1712.8 1310.3,1759.4 1305.7,1807.1 1301.1,1856.1 1296.4,1906.6 1291.3,1958.6 1285.6,2012.3 1279.0,2067.8 1271.4,2125.2 1262.4,2184.7 1251.7,2246.3 1239.0,2310.3 1224.0,2376.6 1206.3,2445.3 1185.4,2516.7  A 1064.250,1064.250 0.00 0,0 1188.3,2517.6 L 1188.3,2517.6 1208.9,2446.2 1226.4,2377.3 1241.3,2311.0 1253.8,2247.0 1264.3,2185.3 1273.2,2125.8 1280.6,2068.4 1287.0,2012.9 1292.5,1959.2 1297.5,1907.1 1302.1,1856.7 1306.5,1807.7 1311.0,1759.9 1315.6,1713.4 1320.6,1667.8 1326.1,1623.1 1332.1,1579.1 1338.8,1535.7 1346.3,1492.6 1354.5,1449.8 1363.6,1407.1 1373.5,1364.3 1384.2,1321.2 1395.7,1277.6 1407.9,1233.5 1420.9,1188.5 1434.5,1142.5 1448.5,1095.3 1463.0,1046.8 1477.7,996.6 1492.4,944.7 1507.1,890.8 1521.5,834.7 1535.4,776.1 1548.5,714.9 1560.6,650.9 1571.4,583.8 1580.6,513.4 1588.0,439.4  Z" style="stroke-width: 2.0;  stroke: rgb(82,82,82); fill: rgb(0,255,0); opacity: 0.667;" />
<path d="M 2410.538,949.048 A 1064.250,1064.250 0.00 0,1 2412.5,952.3 L 2412.5,952.3 2348.2,989.4 2286.0,1022.9 2225.7,1053.0 2167.2,1080.1 2110.5,1104.7 2055.7,1126.9 2002.4,1147.1 1950.8,1165.6 1900.8,1182.6 1852.1,1198.5 1804.8,1213.4 1758.7,1227.6 1713.8,1241.3 1669.9,1254.6 1626.8,1267.7 1584.6,1280.7 1543.0,1293.8 1501.9,1307.1 1461.1,1320.7 1420.6,1334.6 1380.1,1349.0 1339.4,1363.7 1298.5,1378.9 1257.2,1394.6 1215.2,1410.7 1172.4,1427.2 1128.5,1444.0 1083.5,1461.1 1037.0,1478.4 988.8,1495.7 938.8,1513.0 886.7,1530.1 832.3,1546.9 775.4,1563.1 715.6,1578.5 652.8,1593.0 586.7,1606.3 517.0,1618.2 443.5,1628.3  A 1064.250,1064.250 0.00 0,0 444.0,1632.0 L 444.0,1632.0 517.4,1621.6 587.1,1609.5 653.1,1596.0 715.9,1581.3 775.6,1565.6 832.5,1549.2 886.8,1532.3 938.9,1515.0 988.8,1497.5 1036.9,1480.0 1083.3,1462.6 1128.3,1445.3 1172.1,1428.3 1214.9,1411.7 1256.8,1395.4 1298.1,1379.6 1339.0,1364.3 1379.5,1349.4 1420.0,1334.9 1460.5,1320.8 1501.2,1307.1 1542.2,1293.7 1583.8,1280.4 1626.0,1267.2 1669.0,1254.0 1712.9,1240.5 1757.8,1226.7 1803.8,1212.4 1851.0,1197.3 1899.6,1181.2 1949.7,1164.0 2001.2,1145.3 2054.3,1124.9 2109.2,1102.5 2165.7,1077.8 2224.1,1050.4 2284.3,1020.1 2346.4,986.4 2410.5,949.0  Z" style="stroke-width: 2.0;  stroke: rgb(82,82,82); fill: rgb(53,128,0); opacity: 0.667;" />
</g>
<defs>
<pattern id="hline-sparse" width="10" height="10" patternTransform="rotate(0 0 0)" patternUnits="userSpaceOnUse"><line x1="0" y1="0" x2="10" y2="0" style="stroke:black;stroke-width:2" /></pattern>
<pattern id="checker" width="10" height="10" patternTransform="rotate(45 0 0)" patternUnits="userSpaceOnUse"><line x1="0" y1="0" x2="10" y2="0" style="stroke:black;stroke-width:2" /><line x1="0" y1="0" x2="0" y2="10" style="stroke:black;stroke-width:2" /></pattern>
<pattern id="checker" width="10" height="10" patternTransform="rotate(45 0 0)" patternUnits="userSpaceOnUse"><line x1="0" y1="0" x2="10" y2="0" style="stroke:black;stroke-width:5" /><line x1="0" y1="0" x2="0" y2="10" style="stroke:black;stroke-width:4" /></pattern>
<pattern id="hline" width="10" height="10" patternTransform="rotate(0 0 0)" patternUnits="userSpaceOnUse"><line x1="0" y1="0" x2="10" y2="0" style="stroke:black;stroke-width:5" /></pattern>
<pattern id="vline-sparse" width="10" height="10" patternTransform="rotate(0 0 0)" patternUnits="userSpaceOnUse"><line x1="0" y1="0" x2="0" y2="10" style="stroke:black;stroke-width:2" /></pattern>
<pattern id="vline" width="10" height="10" patternTransform="rotate(0 0 0)" patternUnits="userSpaceOnUse"><line x1="0" y1="0" x2="0" y2="10" style="stroke:black;stroke-width:5" /></pattern>
</defs>
</svg>
