<?xml version="1.0" encoding="utf-8" standalone="no"?>
<!DOCTYPE svg PUBLIC "-//W3C//DTD SVG 1.1//EN" "http://www.w3.org/Graphics/SVG/1.1/DTD/svg11.dtd">
<svg width="3000px" height="3000px" version="1.1" xmlns="http://www.w3.org/2000/svg" xmlns:xlink="http://www.w3.org/1999/xlink">
<g id="ideograms">
<path d="M1500.000,425.000 A1075.000,1075.000 40.000 0,1 1536.366,425.615 L1538.057,375.644 A1125.000,1125.000 0.000 0,0 1500.000,375.000 Z" style="stroke-linecap:round;fill:rgb(116,196,118);fill-opacity:0.33;" />
<text x="1530.1" y="285.4" font-size="18.2px" font-family="CMUBright-Roman" style="text-anchor:start;fill:rgb(0,0,0);" transform="rotate(271.0,1530.1,285.4)" >R<tspan baseline-shift="-40%" font-size="90%">s</tspan>caffold<tspan baseline-shift="-40%" font-size="90%">1</tspan>5</text>
<line x1='1500.0' y1='375.0' x2='1500.0' y2='355.0' style="stroke-width:4.0;stroke:rgb(0,0,0);stroke-linecap:round;fill:none;" />
<text x="1506.5" y="345.0" font-size="18.2px" font-family="CMUBright-Roman" style="text-anchor:start;fill:rgb(0,0,0);" transform="rotate(270.0,1506.5,345.0)" >0</text>
<g id="highlighttrack_0">
<path d="M1526.329,425.322 A1075.000,1075.000 40.000 0,1 1532.648,425.496 L1534.166,375.519 A1125.000,1125.000 0.000 0,0 1527.554,375.337 Z" style="stroke-width:4.0;stroke:rgb(0,0,0);stroke-linecap:round;fill:rgb(116,196,118);" />
</g>
<path d="M1601.797,429.831 A1075.000,1075.000 40.000 0,1 1606.162,430.255 L1611.099,380.499 A1125.000,1125.000 0.000 0,0 1606.531,380.055 Z" style="stroke-linecap:round;fill:rgb(116,196,118);fill-opacity:0.33;" />
<text x="1627.0" y="291.7" font-size="18.2px" font-family="CMUBright-Roman" style="text-anchor:start;fill:rgb(0,0,0);" transform="rotate(275.6,1627.0,291.7)" >R<tspan baseline-shift="-40%" font-size="90%">s</tspan>caffold<tspan baseline-shift="-40%" font-size="90%">1</tspan>7</text>
<line x1='1606.5' y1='380.1' x2='1608.4' y2='360.1' style="stroke-width:4.0;stroke:rgb(0,0,0);stroke-linecap:round;fill:none;" />
<text x="1615.8" y="350.8" font-size="18.2px" font-family="CMUBright-Roman" style="text-anchor:start;fill:rgb(0,0,0);" transform="rotate(275.4,1615.8,350.8)" >0</text>
<g id="highlighttrack_0">
<path d="M1601.825,429.833 A1075.000,1075.000 40.000 0,1 1606.087,430.247 L1611.021,380.492 A1125.000,1125.000 0.000 0,0 1606.561,380.058 Z" style="stroke-width:4.0;stroke:rgb(0,0,0);stroke-linecap:round;fill:rgb(116,196,118);" />
</g>
<path d="M1671.180,438.717 A1075.000,1075.000 40.000 1,1 1434.464,427.000 L1431.416,377.093 A1125.000,1125.000 0.000 1,0 1679.142,389.355 Z" style="stroke-linecap:round;fill:rgb(116,196,118);fill-opacity:0.33;" />
<text x="1449.4" y="2713.9" font-size="18.2px" font-family="CMUBright-Roman" style="text-anchor:end;fill:rgb(0,0,0);" transform="rotate(-87.2,1449.4,2713.9)" >NZ<tspan baseline-shift="-40%" font-size="90%">C</tspan>P041153.1</text>
<line x1='1679.1' y1='389.4' x2='1682.3' y2='369.6' style="stroke-width:4.0;stroke:rgb(0,0,0);stroke-linecap:round;fill:none;" />
<text x="1690.3" y="360.8" font-size="18.2px" font-family="CMUBright-Roman" style="text-anchor:start;fill:rgb(0,0,0);" transform="rotate(279.2,1690.3,360.8)" >0</text>
<line x1='1756.2' y1='404.5' x2='1760.7' y2='385.1' style="stroke-width:4.0;stroke:rgb(0,0,0);stroke-linecap:round;fill:none;" />
<text x="1769.3" y="376.8" font-size="18.2px" font-family="CMUBright-Roman" style="text-anchor:start;fill:rgb(0,0,0);" transform="rotate(283.2,1769.3,376.8)" >50</text>
<line x1='1831.9' y1='425.1' x2='1837.8' y2='406.0' style="stroke-width:4.0;stroke:rgb(0,0,0);stroke-linecap:round;fill:none;" />
<text x="1847.0" y="398.3" font-size="18.2px" font-family="CMUBright-Roman" style="text-anchor:start;fill:rgb(0,0,0);" transform="rotate(287.2,1847.0,398.3)" >100</text>
<line x1='1906.1' y1='450.8' x2='1913.3' y2='432.2' style="stroke-width:4.0;stroke:rgb(0,0,0);stroke-linecap:round;fill:none;" />
<text x="1922.9" y="425.2" font-size="18.2px" font-family="CMUBright-Roman" style="text-anchor:start;fill:rgb(0,0,0);" transform="rotate(291.2,1922.9,425.2)" >150</text>
<line x1='1978.2' y1='481.7' x2='1986.7' y2='463.6' style="stroke-width:4.0;stroke:rgb(0,0,0);stroke-linecap:round;fill:none;" />
<text x="1996.9" y="457.3" font-size="18.2px" font-family="CMUBright-Roman" style="text-anchor:start;fill:rgb(0,0,0);" transform="rotate(295.2,1996.9,457.3)" >200</text>
<line x1='2048.1' y1='517.5' x2='2057.8' y2='500.1' style="stroke-width:4.0;stroke:rgb(0,0,0);stroke-linecap:round;fill:none;" />
<text x="2068.3" y="494.5" font-size="18.2px" font-family="CMUBright-Roman" style="text-anchor:start;fill:rgb(0,0,0);" transform="rotate(299.2,2068.3,494.5)" >250</text>
<line x1='2115.2' y1='558.1' x2='2126.2' y2='541.4' style="stroke-width:4.0;stroke:rgb(0,0,0);stroke-linecap:round;fill:none;" />
<text x="2137.1" y="536.6" font-size="18.2px" font-family="CMUBright-Roman" style="text-anchor:start;fill:rgb(0,0,0);" transform="rotate(303.2,2137.1,536.6)" >300</text>
<line x1='2179.4' y1='603.3' x2='2191.5' y2='587.4' style="stroke-width:4.0;stroke:rgb(0,0,0);stroke-linecap:round;fill:none;" />
<text x="2202.7" y="583.4" font-size="18.2px" font-family="CMUBright-Roman" style="text-anchor:start;fill:rgb(0,0,0);" transform="rotate(307.2,2202.7,583.4)" >350</text>
<line x1='2240.3' y1='652.9' x2='2253.4' y2='637.8' style="stroke-width:4.0;stroke:rgb(0,0,0);stroke-linecap:round;fill:none;" />
<text x="2264.9" y="634.6" font-size="18.2px" font-family="CMUBright-Roman" style="text-anchor:start;fill:rgb(0,0,0);" transform="rotate(311.2,2264.9,634.6)" >400</text>
<line x1='2297.6' y1='706.6' x2='2311.7' y2='692.5' style="stroke-width:4.0;stroke:rgb(0,0,0);stroke-linecap:round;fill:none;" />
<text x="2323.4" y="690.0" font-size="18.2px" font-family="CMUBright-Roman" style="text-anchor:start;fill:rgb(0,0,0);" transform="rotate(315.1,2323.4,690.0)" >450</text>
<line x1='2350.9' y1='764.1' x2='2366.1' y2='751.0' style="stroke-width:4.0;stroke:rgb(0,0,0);stroke-linecap:round;fill:none;" />
<text x="2377.9" y="749.4" font-size="18.2px" font-family="CMUBright-Roman" style="text-anchor:start;fill:rgb(0,0,0);" transform="rotate(319.1,2377.9,749.4)" >500</text>
<line x1='2400.2' y1='825.2' x2='2416.2' y2='813.2' style="stroke-width:4.0;stroke:rgb(0,0,0);stroke-linecap:round;fill:none;" />
<text x="2428.1" y="812.5" font-size="18.2px" font-family="CMUBright-Roman" style="text-anchor:start;fill:rgb(0,0,0);" transform="rotate(323.1,2428.1,812.5)" >550</text>
<line x1='2445.0' y1='889.6' x2='2461.8' y2='878.8' style="stroke-width:4.0;stroke:rgb(0,0,0);stroke-linecap:round;fill:none;" />
<text x="2473.8" y="878.8" font-size="18.2px" font-family="CMUBright-Roman" style="text-anchor:start;fill:rgb(0,0,0);" transform="rotate(327.1,2473.8,878.8)" >600</text>
<line x1='2485.3' y1='957.0' x2='2502.8' y2='947.4' style="stroke-width:4.0;stroke:rgb(0,0,0);stroke-linecap:round;fill:none;" />
<text x="2514.7" y="948.3" font-size="18.2px" font-family="CMUBright-Roman" style="text-anchor:start;fill:rgb(0,0,0);" transform="rotate(331.1,2514.7,948.3)" >650</text>
<line x1='2520.8' y1='1027.1' x2='2538.9' y2='1018.6' style="stroke-width:4.0;stroke:rgb(0,0,0);stroke-linecap:round;fill:none;" />
<text x="2550.7" y="1020.4" font-size="18.2px" font-family="CMUBright-Roman" style="text-anchor:start;fill:rgb(0,0,0);" transform="rotate(335.1,2550.7,1020.4)" >700</text>
<line x1='2551.3' y1='1099.4' x2='2569.9' y2='1092.3' style="stroke-width:4.0;stroke:rgb(0,0,0);stroke-linecap:round;fill:none;" />
<text x="2581.6" y="1094.8" font-size="18.2px" font-family="CMUBright-Roman" style="text-anchor:start;fill:rgb(0,0,0);" transform="rotate(339.1,2581.6,1094.8)" >750</text>
<line x1='2576.6' y1='1173.7' x2='2595.8' y2='1167.9' style="stroke-width:4.0;stroke:rgb(0,0,0);stroke-linecap:round;fill:none;" />
<text x="2607.2" y="1171.2" font-size="18.2px" font-family="CMUBright-Roman" style="text-anchor:start;fill:rgb(0,0,0);" transform="rotate(343.1,2607.2,1171.2)" >800</text>
<line x1='2596.8' y1='1249.5' x2='2616.3' y2='1245.1' style="stroke-width:4.0;stroke:rgb(0,0,0);stroke-linecap:round;fill:none;" />
<text x="2627.4" y="1249.2" font-size="18.2px" font-family="CMUBright-Roman" style="text-anchor:start;fill:rgb(0,0,0);" transform="rotate(347.1,2627.4,1249.2)" >850</text>
<line x1='2611.6' y1='1326.6' x2='2631.3' y2='1323.5' style="stroke-width:4.0;stroke:rgb(0,0,0);stroke-linecap:round;fill:none;" />
<text x="2642.2" y="1328.4" font-size="18.2px" font-family="CMUBright-Roman" style="text-anchor:start;fill:rgb(0,0,0);" transform="rotate(351.1,2642.2,1328.4)" >900</text>
<line x1='2620.9' y1='1404.5' x2='2640.9' y2='1402.8' style="stroke-width:4.0;stroke:rgb(0,0,0);stroke-linecap:round;fill:none;" />
<text x="2651.4" y="1408.5" font-size="18.2px" font-family="CMUBright-Roman" style="text-anchor:start;fill:rgb(0,0,0);" transform="rotate(355.1,2651.4,1408.5)" >950</text>
<line x1='2624.9' y1='1482.9' x2='2644.9' y2='1482.6' style="stroke-width:4.0;stroke:rgb(0,0,0);stroke-linecap:round;fill:none;" />
<text x="2654.9" y="1489.0" font-size="18.2px" font-family="CMUBright-Roman" style="text-anchor:start;fill:rgb(0,0,0);" transform="rotate(359.1,2654.9,1489.0)" >1000</text>
<line x1='2623.3' y1='1561.4' x2='2643.3' y2='1562.5' style="stroke-width:4.0;stroke:rgb(0,0,0);stroke-linecap:round;fill:none;" />
<text x="2652.9" y="1569.5" font-size="18.2px" font-family="CMUBright-Roman" style="text-anchor:start;fill:rgb(0,0,0);" transform="rotate(3.1,2652.9,1569.5)" >1050</text>
<line x1='2616.3' y1='1639.6' x2='2636.2' y2='1642.1' style="stroke-width:4.0;stroke:rgb(0,0,0);stroke-linecap:round;fill:none;" />
<text x="2645.2" y="1649.8" font-size="18.2px" font-family="CMUBright-Roman" style="text-anchor:start;fill:rgb(0,0,0);" transform="rotate(7.1,2645.2,1649.8)" >1100</text>
<line x1='2603.9' y1='1717.1' x2='2623.5' y2='1721.0' style="stroke-width:4.0;stroke:rgb(0,0,0);stroke-linecap:round;fill:none;" />
<text x="2632.0" y="1729.3" font-size="18.2px" font-family="CMUBright-Roman" style="text-anchor:start;fill:rgb(0,0,0);" transform="rotate(11.1,2632.0,1729.3)" >1150</text>
<line x1='2586.0' y1='1793.5' x2='2605.3' y2='1798.8' style="stroke-width:4.0;stroke:rgb(0,0,0);stroke-linecap:round;fill:none;" />
<text x="2613.3" y="1807.6" font-size="18.2px" font-family="CMUBright-Roman" style="text-anchor:start;fill:rgb(0,0,0);" transform="rotate(15.1,2613.3,1807.6)" >1200</text>
<line x1='2562.9' y1='1868.5' x2='2581.8' y2='1875.1' style="stroke-width:4.0;stroke:rgb(0,0,0);stroke-linecap:round;fill:none;" />
<text x="2589.1" y="1884.5" font-size="18.2px" font-family="CMUBright-Roman" style="text-anchor:start;fill:rgb(0,0,0);" transform="rotate(19.1,2589.1,1884.5)" >1250</text>
<line x1='2534.6' y1='1941.8' x2='2553.0' y2='1949.6' style="stroke-width:4.0;stroke:rgb(0,0,0);stroke-linecap:round;fill:none;" />
<text x="2559.7" y="1959.5" font-size="18.2px" font-family="CMUBright-Roman" style="text-anchor:start;fill:rgb(0,0,0);" transform="rotate(23.1,2559.7,1959.5)" >1300</text>
<line x1='2501.3' y1='2012.8' x2='2519.1' y2='2022.0' style="stroke-width:4.0;stroke:rgb(0,0,0);stroke-linecap:round;fill:none;" />
<text x="2525.0" y="2032.3" font-size="18.2px" font-family="CMUBright-Roman" style="text-anchor:start;fill:rgb(0,0,0);" transform="rotate(27.1,2525.0,2032.3)" >1350</text>
<line x1='2463.1' y1='2081.4' x2='2480.2' y2='2091.7' style="stroke-width:4.0;stroke:rgb(0,0,0);stroke-linecap:round;fill:none;" />
<text x="2485.4" y="2102.5" font-size="18.2px" font-family="CMUBright-Roman" style="text-anchor:start;fill:rgb(0,0,0);" transform="rotate(31.1,2485.4,2102.5)" >1400</text>
<line x1='2420.2' y1='2147.2' x2='2436.6' y2='2158.7' style="stroke-width:4.0;stroke:rgb(0,0,0);stroke-linecap:round;fill:none;" />
<text x="2441.0" y="2169.7" font-size="18.2px" font-family="CMUBright-Roman" style="text-anchor:start;fill:rgb(0,0,0);" transform="rotate(35.1,2441.0,2169.7)" >1450</text>
<line x1='2372.9' y1='2209.7' x2='2388.4' y2='2222.4' style="stroke-width:4.0;stroke:rgb(0,0,0);stroke-linecap:round;fill:none;" />
<text x="2392.0" y="2233.7" font-size="18.2px" font-family="CMUBright-Roman" style="text-anchor:start;fill:rgb(0,0,0);" transform="rotate(39.1,2392.0,2233.7)" >1500</text>
<line x1='2321.2' y1='2268.9' x2='2335.8' y2='2282.5' style="stroke-width:4.0;stroke:rgb(0,0,0);stroke-linecap:round;fill:none;" />
<text x="2338.7" y="2294.1" font-size="18.2px" font-family="CMUBright-Roman" style="text-anchor:start;fill:rgb(0,0,0);" transform="rotate(43.1,2338.7,2294.1)" >1550</text>
<line x1='2265.6' y1='2324.3' x2='2279.2' y2='2338.9' style="stroke-width:4.0;stroke:rgb(0,0,0);stroke-linecap:round;fill:none;" />
<text x="2281.3" y="2350.7" font-size="18.2px" font-family="CMUBright-Roman" style="text-anchor:start;fill:rgb(0,0,0);" transform="rotate(47.1,2281.3,2350.7)" >1600</text>
<line x1='2206.3' y1='2375.7' x2='2218.9' y2='2391.2' style="stroke-width:4.0;stroke:rgb(0,0,0);stroke-linecap:round;fill:none;" />
<text x="2220.1" y="2403.1" font-size="18.2px" font-family="CMUBright-Roman" style="text-anchor:start;fill:rgb(0,0,0);" transform="rotate(51.1,2220.1,2403.1)" >1650</text>
<line x1='2143.5' y1='2422.8' x2='2155.0' y2='2439.2' style="stroke-width:4.0;stroke:rgb(0,0,0);stroke-linecap:round;fill:none;" />
<text x="2155.3" y="2451.1" font-size="18.2px" font-family="CMUBright-Roman" style="text-anchor:start;fill:rgb(0,0,0);" transform="rotate(55.1,2155.3,2451.1)" >1700</text>
<line x1='2077.6' y1='2465.4' x2='2087.9' y2='2482.6' style="stroke-width:4.0;stroke:rgb(0,0,0);stroke-linecap:round;fill:none;" />
<text x="2087.4" y="2494.5" font-size="18.2px" font-family="CMUBright-Roman" style="text-anchor:start;fill:rgb(0,0,0);" transform="rotate(59.1,2087.4,2494.5)" >1750</text>
<line x1='2008.9' y1='2503.3' x2='2017.9' y2='2521.2' style="stroke-width:4.0;stroke:rgb(0,0,0);stroke-linecap:round;fill:none;" />
<text x="2016.7" y="2533.0" font-size="18.2px" font-family="CMUBright-Roman" style="text-anchor:start;fill:rgb(0,0,0);" transform="rotate(63.1,2016.7,2533.0)" >1800</text>
<line x1='1937.7' y1='2536.4' x2='1945.5' y2='2554.8' style="stroke-width:4.0;stroke:rgb(0,0,0);stroke-linecap:round;fill:none;" />
<text x="1943.4" y="2566.5" font-size="18.2px" font-family="CMUBright-Roman" style="text-anchor:start;fill:rgb(0,0,0);" transform="rotate(67.1,1943.4,2566.5)" >1850</text>
<line x1='1864.4' y1='2564.4' x2='1870.8' y2='2583.3' style="stroke-width:4.0;stroke:rgb(0,0,0);stroke-linecap:round;fill:none;" />
<text x="1867.9" y="2594.8" font-size="18.2px" font-family="CMUBright-Roman" style="text-anchor:start;fill:rgb(0,0,0);" transform="rotate(71.1,1867.9,2594.8)" >1900</text>
<line x1='1789.3' y1='2587.2' x2='1794.4' y2='2606.5' style="stroke-width:4.0;stroke:rgb(0,0,0);stroke-linecap:round;fill:none;" />
<text x="1790.7" y="2617.8" font-size="18.2px" font-family="CMUBright-Roman" style="text-anchor:start;fill:rgb(0,0,0);" transform="rotate(75.1,1790.7,2617.8)" >1950</text>
<line x1='1712.7' y1='2604.7' x2='1716.5' y2='2624.3' style="stroke-width:4.0;stroke:rgb(0,0,0);stroke-linecap:round;fill:none;" />
<text x="1712.0" y="2635.4" font-size="18.2px" font-family="CMUBright-Roman" style="text-anchor:start;fill:rgb(0,0,0);" transform="rotate(79.1,1712.0,2635.4)" >2000</text>
<line x1='1635.2' y1='2616.8' x2='1637.6' y2='2636.7' style="stroke-width:4.0;stroke:rgb(0,0,0);stroke-linecap:round;fill:none;" />
<text x="1632.3" y="2647.4" font-size="18.2px" font-family="CMUBright-Roman" style="text-anchor:start;fill:rgb(0,0,0);" transform="rotate(83.1,1632.3,2647.4)" >2050</text>
<line x1='1557.0' y1='2623.6' x2='1558.0' y2='2643.5' style="stroke-width:4.0;stroke:rgb(0,0,0);stroke-linecap:round;fill:none;" />
<text x="1552.0" y="2653.8" font-size="18.2px" font-family="CMUBright-Roman" style="text-anchor:start;fill:rgb(0,0,0);" transform="rotate(87.1,1552.0,2653.8)" >2100</text>
<line x1='1478.5' y1='2624.8' x2='1478.1' y2='2644.8' style="stroke-width:4.0;stroke:rgb(0,0,0);stroke-linecap:round;fill:none;" />
<text x="1484.4" y="2654.9" font-size="18.2px" font-family="CMUBright-Roman" style="text-anchor:end;fill:rgb(0,0,0);" transform="rotate(-88.9,1484.4,2654.9)" >2150</text>
<line x1='1400.1' y1='2620.6' x2='1398.4' y2='2640.5' style="stroke-width:4.0;stroke:rgb(0,0,0);stroke-linecap:round;fill:none;" />
<text x="1403.9" y="2651.0" font-size="18.2px" font-family="CMUBright-Roman" style="text-anchor:end;fill:rgb(0,0,0);" transform="rotate(-84.9,1403.9,2651.0)" >2200</text>
<line x1='1322.2' y1='2610.9' x2='1319.1' y2='2630.6' style="stroke-width:4.0;stroke:rgb(0,0,0);stroke-linecap:round;fill:none;" />
<text x="1323.9" y="2641.5" font-size="18.2px" font-family="CMUBright-Roman" style="text-anchor:end;fill:rgb(0,0,0);" transform="rotate(-80.9,1323.9,2641.5)" >2250</text>
<line x1='1245.2' y1='2595.8' x2='1240.7' y2='2615.2' style="stroke-width:4.0;stroke:rgb(0,0,0);stroke-linecap:round;fill:none;" />
<text x="1244.7" y="2626.4" font-size="18.2px" font-family="CMUBright-Roman" style="text-anchor:end;fill:rgb(0,0,0);" transform="rotate(-76.9,1244.7,2626.4)" >2300</text>
<line x1='1169.4' y1='2575.3' x2='1163.5' y2='2594.5' style="stroke-width:4.0;stroke:rgb(0,0,0);stroke-linecap:round;fill:none;" />
<text x="1166.8" y="2605.9" font-size="18.2px" font-family="CMUBright-Roman" style="text-anchor:end;fill:rgb(0,0,0);" transform="rotate(-72.9,1166.8,2605.9)" >2350</text>
<line x1='1095.2' y1='2549.7' x2='1088.0' y2='2568.3' style="stroke-width:4.0;stroke:rgb(0,0,0);stroke-linecap:round;fill:none;" />
<text x="1090.5" y="2580.0" font-size="18.2px" font-family="CMUBright-Roman" style="text-anchor:end;fill:rgb(0,0,0);" transform="rotate(-68.9,1090.5,2580.0)" >2400</text>
<line x1='1023.0' y1='2518.9' x2='1014.6' y2='2537.0' style="stroke-width:4.0;stroke:rgb(0,0,0);stroke-linecap:round;fill:none;" />
<text x="1016.2" y="2548.8" font-size="18.2px" font-family="CMUBright-Roman" style="text-anchor:end;fill:rgb(0,0,0);" transform="rotate(-64.9,1016.2,2548.8)" >2450</text>
<line x1='953.2' y1='2483.1' x2='943.4' y2='2500.6' style="stroke-width:4.0;stroke:rgb(0,0,0);stroke-linecap:round;fill:none;" />
<text x="944.3" y="2512.5" font-size="18.2px" font-family="CMUBright-Roman" style="text-anchor:end;fill:rgb(0,0,0);" transform="rotate(-60.9,944.3,2512.5)" >2500</text>
<line x1='885.9' y1='2442.6' x2='875.0' y2='2459.4' style="stroke-width:4.0;stroke:rgb(0,0,0);stroke-linecap:round;fill:none;" />
<text x="875.0" y="2471.3" font-size="18.2px" font-family="CMUBright-Roman" style="text-anchor:end;fill:rgb(0,0,0);" transform="rotate(-56.9,875.0,2471.3)" >2550</text>
<line x1='821.7' y1='2397.5' x2='809.6' y2='2413.5' style="stroke-width:4.0;stroke:rgb(0,0,0);stroke-linecap:round;fill:none;" />
<text x="808.8" y="2425.4" font-size="18.2px" font-family="CMUBright-Roman" style="text-anchor:end;fill:rgb(0,0,0);" transform="rotate(-52.9,808.8,2425.4)" >2600</text>
<line x1='760.8' y1='2348.0' x2='747.6' y2='2363.1' style="stroke-width:4.0;stroke:rgb(0,0,0);stroke-linecap:round;fill:none;" />
<text x="746.0" y="2374.9" font-size="18.2px" font-family="CMUBright-Roman" style="text-anchor:end;fill:rgb(0,0,0);" transform="rotate(-48.9,746.0,2374.9)" >2650</text>
<line x1='703.4' y1='2294.4' x2='689.3' y2='2308.5' style="stroke-width:4.0;stroke:rgb(0,0,0);stroke-linecap:round;fill:none;" />
<text x="686.8" y="2320.2" font-size="18.2px" font-family="CMUBright-Roman" style="text-anchor:end;fill:rgb(0,0,0);" transform="rotate(-44.9,686.8,2320.2)" >2700</text>
<line x1='650.0' y1='2236.9' x2='634.9' y2='2250.0' style="stroke-width:4.0;stroke:rgb(0,0,0);stroke-linecap:round;fill:none;" />
<text x="631.6" y="2261.5" font-size="18.2px" font-family="CMUBright-Roman" style="text-anchor:end;fill:rgb(0,0,0);" transform="rotate(-40.9,631.6,2261.5)" >2750</text>
<line x1='600.7' y1='2175.9' x2='584.7' y2='2187.9' style="stroke-width:4.0;stroke:rgb(0,0,0);stroke-linecap:round;fill:none;" />
<text x="580.6" y="2199.1" font-size="18.2px" font-family="CMUBright-Roman" style="text-anchor:end;fill:rgb(0,0,0);" transform="rotate(-36.9,580.6,2199.1)" >2800</text>
<line x1='555.7' y1='2111.5' x2='538.9' y2='2122.4' style="stroke-width:4.0;stroke:rgb(0,0,0);stroke-linecap:round;fill:none;" />
<text x="534.1" y="2133.3" font-size="18.2px" font-family="CMUBright-Roman" style="text-anchor:end;fill:rgb(0,0,0);" transform="rotate(-32.9,534.1,2133.3)" >2850</text>
<line x1='515.4' y1='2044.2' x2='497.9' y2='2053.9' style="stroke-width:4.0;stroke:rgb(0,0,0);stroke-linecap:round;fill:none;" />
<text x="492.3" y="2064.4" font-size="18.2px" font-family="CMUBright-Roman" style="text-anchor:end;fill:rgb(0,0,0);" transform="rotate(-28.9,492.3,2064.4)" >2900</text>
<line x1='479.8' y1='1974.2' x2='461.7' y2='1982.6' style="stroke-width:4.0;stroke:rgb(0,0,0);stroke-linecap:round;fill:none;" />
<text x="455.4" y="1992.7" font-size="18.2px" font-family="CMUBright-Roman" style="text-anchor:end;fill:rgb(0,0,0);" transform="rotate(-24.9,455.4,1992.7)" >2950</text>
<line x1='449.2' y1='1901.9' x2='430.6' y2='1909.1' style="stroke-width:4.0;stroke:rgb(0,0,0);stroke-linecap:round;fill:none;" />
<text x="423.6" y="1918.7" font-size="18.2px" font-family="CMUBright-Roman" style="text-anchor:end;fill:rgb(0,0,0);" transform="rotate(-20.9,423.6,1918.7)" >3000</text>
<line x1='423.8' y1='1827.7' x2='404.6' y2='1833.5' style="stroke-width:4.0;stroke:rgb(0,0,0);stroke-linecap:round;fill:none;" />
<text x="397.0" y="1842.6" font-size="18.2px" font-family="CMUBright-Roman" style="text-anchor:end;fill:rgb(0,0,0);" transform="rotate(-16.9,397.0,1842.6)" >3050</text>
<line x1='403.5' y1='1751.8' x2='384.1' y2='1756.3' style="stroke-width:4.0;stroke:rgb(0,0,0);stroke-linecap:round;fill:none;" />
<text x="375.8" y="1764.9" font-size="18.2px" font-family="CMUBright-Roman" style="text-anchor:end;fill:rgb(0,0,0);" transform="rotate(-12.9,375.8,1764.9)" >3100</text>
<line x1='388.7' y1='1674.8' x2='368.9' y2='1677.9' style="stroke-width:4.0;stroke:rgb(0,0,0);stroke-linecap:round;fill:none;" />
<text x="360.0" y="1685.8" font-size="18.2px" font-family="CMUBright-Roman" style="text-anchor:end;fill:rgb(0,0,0);" transform="rotate(-8.9,360.0,1685.8)" >3150</text>
<line x1='379.2' y1='1596.8' x2='359.3' y2='1598.6' style="stroke-width:4.0;stroke:rgb(0,0,0);stroke-linecap:round;fill:none;" />
<text x="349.9" y="1605.9" font-size="18.2px" font-family="CMUBright-Roman" style="text-anchor:end;fill:rgb(0,0,0);" transform="rotate(-4.9,349.9,1605.9)" >3200</text>
<line x1='375.2' y1='1518.5' x2='355.2' y2='1518.8' style="stroke-width:4.0;stroke:rgb(0,0,0);stroke-linecap:round;fill:none;" />
<text x="345.3" y="1525.4" font-size="18.2px" font-family="CMUBright-Roman" style="text-anchor:end;fill:rgb(0,0,0);" transform="rotate(-0.9,345.3,1525.4)" >3250</text>
<line x1='376.6' y1='1440.0' x2='356.6' y2='1438.9' style="stroke-width:4.0;stroke:rgb(0,0,0);stroke-linecap:round;fill:none;" />
<text x="346.3" y="1444.9" font-size="18.2px" font-family="CMUBright-Roman" style="text-anchor:end;fill:rgb(0,0,0);" transform="rotate(3.1,346.3,1444.9)" >3300</text>
<line x1='383.5' y1='1361.8' x2='363.7' y2='1359.3' style="stroke-width:4.0;stroke:rgb(0,0,0);stroke-linecap:round;fill:none;" />
<text x="353.0" y="1364.6" font-size="18.2px" font-family="CMUBright-Roman" style="text-anchor:end;fill:rgb(0,0,0);" transform="rotate(7.1,353.0,1364.6)" >3350</text>
<line x1='395.9' y1='1284.3' x2='376.2' y2='1280.4' style="stroke-width:4.0;stroke:rgb(0,0,0);stroke-linecap:round;fill:none;" />
<text x="365.2" y="1284.9" font-size="18.2px" font-family="CMUBright-Roman" style="text-anchor:end;fill:rgb(0,0,0);" transform="rotate(11.1,365.2,1284.9)" >3400</text>
<line x1='413.6' y1='1207.8' x2='394.3' y2='1202.6' style="stroke-width:4.0;stroke:rgb(0,0,0);stroke-linecap:round;fill:none;" />
<text x="383.0" y="1206.3" font-size="18.2px" font-family="CMUBright-Roman" style="text-anchor:end;fill:rgb(0,0,0);" transform="rotate(15.1,383.0,1206.3)" >3450</text>
<line x1='436.6' y1='1132.8' x2='417.7' y2='1126.2' style="stroke-width:4.0;stroke:rgb(0,0,0);stroke-linecap:round;fill:none;" />
<text x="406.2" y="1129.1" font-size="18.2px" font-family="CMUBright-Roman" style="text-anchor:end;fill:rgb(0,0,0);" transform="rotate(19.1,406.2,1129.1)" >3500</text>
<line x1='464.8' y1='1059.5' x2='446.4' y2='1051.7' style="stroke-width:4.0;stroke:rgb(0,0,0);stroke-linecap:round;fill:none;" />
<text x="434.7" y="1053.8" font-size="18.2px" font-family="CMUBright-Roman" style="text-anchor:end;fill:rgb(0,0,0);" transform="rotate(23.1,434.7,1053.8)" >3550</text>
<line x1='498.1' y1='988.4' x2='480.2' y2='979.3' style="stroke-width:4.0;stroke:rgb(0,0,0);stroke-linecap:round;fill:none;" />
<text x="468.4" y="980.6" font-size="18.2px" font-family="CMUBright-Roman" style="text-anchor:end;fill:rgb(0,0,0);" transform="rotate(27.0,468.4,980.6)" >3600</text>
<line x1='536.2' y1='919.8' x2='519.0' y2='909.5' style="stroke-width:4.0;stroke:rgb(0,0,0);stroke-linecap:round;fill:none;" />
<text x="507.1" y="909.9" font-size="18.2px" font-family="CMUBright-Roman" style="text-anchor:end;fill:rgb(0,0,0);" transform="rotate(31.0,507.1,909.9)" >3650</text>
<line x1='579.0' y1='854.0' x2='562.6' y2='842.5' style="stroke-width:4.0;stroke:rgb(0,0,0);stroke-linecap:round;fill:none;" />
<text x="550.7" y="842.1" font-size="18.2px" font-family="CMUBright-Roman" style="text-anchor:end;fill:rgb(0,0,0);" transform="rotate(35.0,550.7,842.1)" >3700</text>
<line x1='626.3' y1='791.3' x2='610.7' y2='778.7' style="stroke-width:4.0;stroke:rgb(0,0,0);stroke-linecap:round;fill:none;" />
<text x="598.9" y="777.5" font-size="18.2px" font-family="CMUBright-Roman" style="text-anchor:end;fill:rgb(0,0,0);" transform="rotate(39.0,598.9,777.5)" >3750</text>
<line x1='677.8' y1='732.1' x2='663.2' y2='718.5' style="stroke-width:4.0;stroke:rgb(0,0,0);stroke-linecap:round;fill:none;" />
<text x="651.4" y="716.4" font-size="18.2px" font-family="CMUBright-Roman" style="text-anchor:end;fill:rgb(0,0,0);" transform="rotate(43.0,651.4,716.4)" >3800</text>
<line x1='733.3' y1='676.7' x2='719.7' y2='662.0' style="stroke-width:4.0;stroke:rgb(0,0,0);stroke-linecap:round;fill:none;" />
<text x="708.2" y="659.2" font-size="18.2px" font-family="CMUBright-Roman" style="text-anchor:end;fill:rgb(0,0,0);" transform="rotate(47.0,708.2,659.2)" >3850</text>
<line x1='792.6' y1='625.2' x2='780.0' y2='609.7' style="stroke-width:4.0;stroke:rgb(0,0,0);stroke-linecap:round;fill:none;" />
<text x="768.7" y="606.0" font-size="18.2px" font-family="CMUBright-Roman" style="text-anchor:end;fill:rgb(0,0,0);" transform="rotate(51.0,768.7,606.0)" >3900</text>
<line x1='855.3' y1='578.0' x2='843.9' y2='561.6' style="stroke-width:4.0;stroke:rgb(0,0,0);stroke-linecap:round;fill:none;" />
<text x="832.8" y="557.2" font-size="18.2px" font-family="CMUBright-Roman" style="text-anchor:end;fill:rgb(0,0,0);" transform="rotate(55.0,832.8,557.2)" >3950</text>
<line x1='921.2' y1='535.3' x2='910.9' y2='518.2' style="stroke-width:4.0;stroke:rgb(0,0,0);stroke-linecap:round;fill:none;" />
<text x="900.2" y="513.0" font-size="18.2px" font-family="CMUBright-Roman" style="text-anchor:end;fill:rgb(0,0,0);" transform="rotate(59.0,900.2,513.0)" >4000</text>
<line x1='989.9' y1='497.3' x2='980.8' y2='479.5' style="stroke-width:4.0;stroke:rgb(0,0,0);stroke-linecap:round;fill:none;" />
<text x="970.5" y="473.5" font-size="18.2px" font-family="CMUBright-Roman" style="text-anchor:end;fill:rgb(0,0,0);" transform="rotate(63.0,970.5,473.5)" >4050</text>
<line x1='1061.0' y1='464.2' x2='1053.2' y2='445.8' style="stroke-width:4.0;stroke:rgb(0,0,0);stroke-linecap:round;fill:none;" />
<text x="1043.3" y="439.1" font-size="18.2px" font-family="CMUBright-Roman" style="text-anchor:end;fill:rgb(0,0,0);" transform="rotate(67.0,1043.3,439.1)" >4100</text>
<line x1='1134.3' y1='436.1' x2='1127.8' y2='417.2' style="stroke-width:4.0;stroke:rgb(0,0,0);stroke-linecap:round;fill:none;" />
<text x="1118.4" y="409.8" font-size="18.2px" font-family="CMUBright-Roman" style="text-anchor:end;fill:rgb(0,0,0);" transform="rotate(71.0,1118.4,409.8)" >4150</text>
<line x1='1209.4' y1='413.2' x2='1204.2' y2='393.9' style="stroke-width:4.0;stroke:rgb(0,0,0);stroke-linecap:round;fill:none;" />
<text x="1195.4" y="385.9" font-size="18.2px" font-family="CMUBright-Roman" style="text-anchor:end;fill:rgb(0,0,0);" transform="rotate(75.0,1195.4,385.9)" >4200</text>
<line x1='1285.9' y1='395.6' x2='1282.1' y2='375.9' style="stroke-width:4.0;stroke:rgb(0,0,0);stroke-linecap:round;fill:none;" />
<text x="1273.8" y="367.4" font-size="18.2px" font-family="CMUBright-Roman" style="text-anchor:end;fill:rgb(0,0,0);" transform="rotate(79.0,1273.8,367.4)" >4250</text>
<line x1='1363.4' y1='383.3' x2='1361.0' y2='363.5' style="stroke-width:4.0;stroke:rgb(0,0,0);stroke-linecap:round;fill:none;" />
<text x="1353.3" y="354.4" font-size="18.2px" font-family="CMUBright-Roman" style="text-anchor:end;fill:rgb(0,0,0);" transform="rotate(83.0,1353.3,354.4)" >4300</text>
<g id="highlighttrack_0">
<path d="M1877.721,493.545 A1075.000,1075.000 40.000 0,1 1881.727,495.057 L1899.481,448.316 A1125.000,1125.000 0.000 0,0 1895.289,446.733 Z" style="stroke-width:4.0;stroke:rgb(0,0,0);stroke-linecap:round;fill:rgb(116,196,118);" />
<path d="M1949.972,523.706 A1075.000,1075.000 40.000 0,1 1953.857,525.506 L1974.967,480.181 A1125.000,1125.000 0.000 0,0 1970.901,478.297 Z" style="stroke-width:4.0;stroke:rgb(0,0,0);stroke-linecap:round;fill:rgb(116,196,118);" />
<path d="M2574.744,1476.554 A1075.000,1075.000 40.000 0,1 2574.829,1480.835 L2624.821,1479.944 A1125.000,1125.000 0.000 0,0 2624.732,1475.463 Z" style="stroke-width:4.0;stroke:rgb(0,0,0);stroke-linecap:round;fill:rgb(116,196,118);" />
<path d="M2141.318,2362.749 A1075.000,1075.000 40.000 0,1 2137.876,2365.297 L2167.545,2405.543 A1125.000,1125.000 0.000 0,0 2171.147,2402.877 Z" style="stroke-width:4.0;stroke:rgb(0,0,0);stroke-linecap:round;fill:rgb(116,196,118);" />
<path d="M762.950,717.452 A1075.000,1075.000 40.000 0,1 766.073,714.522 L731.936,677.988 A1125.000,1125.000 0.000 0,0 728.668,681.054 Z" style="stroke-width:4.0;stroke:rgb(0,0,0);stroke-linecap:round;fill:rgb(251,106,74);" />
<path d="M770.808,710.124 A1075.000,1075.000 40.000 0,1 773.960,707.226 L740.190,670.353 A1125.000,1125.000 0.000 0,0 736.892,673.386 Z" style="stroke-width:4.0;stroke:rgb(0,0,0);stroke-linecap:round;fill:rgb(251,106,74);" />
<path d="M1253.630,453.613 A1075.000,1075.000 40.000 0,1 1257.800,452.639 L1246.535,403.925 A1125.000,1125.000 0.000 0,0 1242.171,404.943 Z" style="stroke-width:4.0;stroke:rgb(0,0,0);stroke-linecap:round;fill:rgb(251,106,74);" />
<path d="M1370.285,432.855 A1075.000,1075.000 40.000 0,1 1374.536,432.347 L1368.701,382.688 A1125.000,1125.000 0.000 0,0 1364.251,383.220 Z" style="stroke-width:4.0;stroke:rgb(0,0,0);stroke-linecap:round;fill:rgb(251,106,74);" />
<path d="M1916.803,509.091 A1075.000,1075.000 40.000 0,1 1922.617,511.557 L1942.273,465.583 A1125.000,1125.000 0.000 0,0 1936.189,463.002 Z" style="stroke-width:4.0;stroke:rgb(0,0,0);stroke-linecap:round;fill:rgb(251,106,74);" />
<path d="M844.512,647.967 A1075.000,1075.000 40.000 0,1 847.097,645.984 L816.730,606.263 A1125.000,1125.000 0.000 0,0 814.025,608.337 Z" style="stroke-width:4.0;stroke:rgb(0,0,0);stroke-linecap:round;fill:rgb(116,196,118);" />
<path d="M1146.756,484.695 A1075.000,1075.000 40.000 0,1 1149.833,483.630 L1133.546,436.357 A1125.000,1125.000 0.000 0,0 1130.326,437.472 Z" style="stroke-width:4.0;stroke:rgb(0,0,0);stroke-linecap:round;fill:rgb(251,106,74);" />
</g>
</g>
<g id="track_0">
<path d="M 1873.943,503.609 A 1064.250,1064.250 0.00 0,1 1877.9,505.1 L 1877.9,505.1 1851.8,573.5 1827.3,636.6 1804.4,694.6 1783.0,747.9 1763.0,796.7 1744.4,841.1 1727.0,881.5 1710.9,917.8 1695.9,950.5 1682.0,979.6 1669.1,1005.2 1657.2,1027.5 1646.2,1046.6 1636.1,1062.6 1626.8,1075.6 1618.3,1085.6 1610.6,1092.8 1603.6,1097.1 1597.3,1098.6 1591.7,1097.3 1586.8,1093.1 1582.4,1086.2 1578.7,1076.3 1575.6,1063.5 1573.1,1047.8 1571.2,1028.9 1569.8,1006.9 1569.1,981.7 1569.0,953.0 1569.5,920.8 1570.6,884.9 1572.4,845.1 1574.8,801.3 1578.0,753.2 1581.8,700.6 1586.4,643.4 1591.8,581.2 1598.0,513.8 1605.0,440.9  A 1064.250,1064.250 0.00 0,0 1600.8,440.5 L 1600.8,440.5 1594.0,513.4 1588.1,580.8 1583.0,643.1 1578.6,700.3 1575.0,752.9 1572.0,801.0 1569.8,844.8 1568.2,884.6 1567.2,920.5 1566.8,952.7 1567.1,981.4 1567.9,1006.7 1569.3,1028.7 1571.3,1047.5 1573.9,1063.2 1577.0,1076.0 1580.8,1085.8 1585.1,1092.8 1590.1,1096.9 1595.7,1098.2 1602.0,1096.7 1609.0,1092.4 1616.7,1085.2 1625.1,1075.1 1634.4,1062.1 1644.4,1046.0 1655.3,1026.9 1667.1,1004.5 1679.9,978.8 1693.7,949.7 1708.6,917.0 1724.6,880.6 1741.7,840.2 1760.2,795.7 1780.0,746.8 1801.2,693.4 1823.8,635.3 1848.1,572.1 1873.9,503.6  Z" style="stroke-width: 2.0;  stroke: rgb(82,82,82); fill: rgb(251,106,74); opacity: 0.667;" />
<path d="M 1945.472,533.469 A 1064.250,1064.250 0.00 0,1 1949.3,535.3 L 1949.3,535.3 1918.2,601.5 1889.1,662.6 1861.8,718.8 1836.3,770.3 1812.5,817.4 1790.2,860.3 1769.5,899.1 1750.1,934.1 1732.1,965.4 1715.4,993.3 1699.9,1017.7 1685.5,1038.9 1672.2,1057.0 1660.0,1072.1 1648.6,1084.2 1638.3,1093.4 1628.8,1099.8 1620.1,1103.4 1612.2,1104.2 1605.1,1102.2 1598.8,1097.5 1593.2,1090.0 1588.2,1079.7 1584.0,1066.5 1580.5,1050.3 1577.6,1031.1 1575.3,1008.7 1573.8,983.2 1572.9,954.2 1572.7,921.8 1573.2,885.6 1574.4,845.7 1576.3,801.7 1579.0,753.5 1582.5,700.8 1586.8,643.5 1591.9,581.3 1598.0,513.8 1605.0,440.9  A 1064.250,1064.250 0.00 0,0 1600.8,440.5 L 1600.8,440.5 1594.1,513.4 1588.3,580.9 1583.4,643.2 1579.3,700.5 1576.0,753.2 1573.5,801.4 1571.8,845.4 1570.7,885.3 1570.4,921.5 1570.7,953.9 1571.7,982.9 1573.4,1008.4 1575.7,1030.8 1578.7,1050.0 1582.3,1066.1 1586.6,1079.3 1591.5,1089.6 1597.2,1097.1 1603.6,1101.8 1610.7,1103.7 1618.5,1102.9 1627.2,1099.3 1636.6,1092.8 1647.0,1083.6 1658.2,1071.4 1670.5,1056.3 1683.7,1038.2 1698.0,1016.9 1713.4,992.4 1730.0,964.5 1747.9,933.1 1767.1,898.0 1787.7,859.1 1809.7,816.2 1833.4,769.0 1858.7,717.4 1885.7,661.1 1914.6,599.9 1945.5,533.5  Z" style="stroke-width: 2.0;  stroke: rgb(82,82,82); fill: rgb(116,196,118); opacity: 0.667;" />
<path d="M 1945.472,533.469 A 1064.250,1064.250 0.00 0,1 1949.3,535.3 L 1949.3,535.3 1918.4,601.6 1889.7,662.9 1863.2,719.3 1838.7,771.1 1816.2,818.6 1795.5,862.0 1776.5,901.4 1759.3,937.0 1743.6,969.0 1729.5,997.5 1716.9,1022.8 1705.6,1044.9 1695.7,1063.8 1687.1,1079.9 1679.7,1093.0 1673.6,1103.3 1668.7,1110.8 1664.9,1115.5 1662.3,1117.6 1660.8,1117.0 1660.5,1113.7 1661.3,1107.7 1663.2,1098.9 1666.3,1087.3 1670.6,1072.9 1676.0,1055.6 1682.7,1035.2 1690.7,1011.8 1700.0,985.1 1710.6,955.0 1722.6,921.5 1736.1,884.3 1751.1,843.2 1767.7,798.2 1786.0,748.9 1806.1,695.2 1828.1,636.8 1852.0,573.6 1877.9,505.1  A 1064.250,1064.250 0.00 0,0 1873.9,503.6 L 1873.9,503.6 1848.3,572.2 1824.6,635.5 1802.9,694.0 1783.0,747.8 1764.9,797.1 1748.5,842.3 1733.6,883.3 1720.3,920.6 1708.4,954.2 1697.9,984.3 1688.7,1011.0 1680.9,1034.5 1674.3,1054.9 1668.9,1072.2 1664.7,1086.6 1661.6,1098.2 1659.7,1107.0 1658.9,1113.0 1659.3,1116.4 1660.8,1117.0 1663.4,1114.9 1667.1,1110.1 1672.0,1102.6 1678.1,1092.3 1685.4,1079.1 1693.9,1063.1 1703.8,1044.0 1715.0,1021.9 1727.5,996.6 1741.5,968.0 1757.0,935.9 1774.2,900.3 1792.9,860.8 1813.4,817.4 1835.8,769.8 1860.1,717.8 1886.4,661.3 1914.8,599.9 1945.5,533.5  Z" style="stroke-width: 2.0;  stroke: rgb(82,82,82); fill: rgb(107,174,214); opacity: 0.667;" />
<path d="M 2563.997,1476.788 A 1064.250,1064.250 0.00 0,1 2564.1,1481.0 L 2564.1,1481.0 2490.6,1481.5 2421.9,1480.3 2357.8,1477.6 2298.0,1473.5 2242.3,1468.1 2190.2,1461.4 2141.7,1453.5 2096.5,1444.5 2054.4,1434.5 2015.1,1423.4 1978.4,1411.4 1944.2,1398.4 1912.3,1384.4 1882.5,1369.5 1854.7,1353.6 1828.7,1336.7 1804.4,1318.8 1781.8,1299.7 1760.6,1279.5 1740.8,1258.1 1722.4,1235.4 1705.3,1211.2 1689.4,1185.6 1674.6,1158.4 1661.0,1129.3 1648.6,1098.4 1637.2,1065.5 1627.0,1030.4 1618.0,992.8 1610.2,952.8 1603.6,909.9 1598.3,864.1 1594.4,815.1 1591.9,762.8 1591.0,706.7 1591.7,646.8 1594.2,582.7 1598.6,514.2 1605.0,440.9  A 1064.250,1064.250 0.00 0,0 1600.8,440.5 L 1600.8,440.5 1594.7,513.8 1590.5,582.4 1588.3,646.5 1587.8,706.4 1589.0,762.4 1591.7,814.8 1595.8,863.7 1601.2,909.5 1608.0,952.3 1616.0,992.4 1625.2,1029.8 1635.5,1065.0 1647.0,1097.9 1659.5,1128.7 1673.2,1157.7 1688.1,1184.9 1704.1,1210.4 1721.4,1234.5 1739.9,1257.1 1759.7,1278.5 1781.0,1298.6 1803.7,1317.5 1828.0,1335.4 1854.1,1352.2 1881.9,1368.0 1911.8,1382.8 1943.8,1396.6 1978.0,1409.5 2014.7,1421.4 2054.1,1432.3 2096.3,1442.1 2141.6,1450.9 2190.1,1458.6 2242.1,1465.1 2297.9,1470.3 2357.7,1474.2 2421.8,1476.7 2490.5,1477.6 2564.0,1476.8  Z" style="stroke-width: 2.0;  stroke: rgb(82,82,82); fill: rgb(253,141,60); opacity: 0.667;" />
<path d="M 2563.997,1476.788 A 1064.250,1064.250 0.00 0,1 2564.1,1481.0 L 2564.1,1481.0 2490.7,1481.6 2422.3,1480.8 2358.8,1478.7 2299.7,1475.3 2244.9,1470.7 2194.1,1465.0 2147.1,1458.2 2103.5,1450.4 2063.3,1441.6 2026.2,1431.9 1992.0,1421.2 1960.6,1409.6 1931.7,1397.0 1905.3,1383.4 1881.2,1368.9 1859.3,1353.3 1839.4,1336.7 1821.6,1319.0 1805.6,1300.2 1791.5,1280.1 1779.1,1258.7 1768.5,1235.8 1759.6,1211.6 1752.4,1185.7 1746.9,1158.1 1743.0,1128.6 1741.0,1097.2 1740.6,1063.7 1742.1,1027.9 1745.5,989.6 1750.9,948.8 1758.3,905.2 1767.8,858.7 1779.6,808.9 1793.9,755.8 1810.6,699.1 1830.1,638.6 1852.5,574.0 1877.9,505.1  A 1064.250,1064.250 0.00 0,0 1873.9,503.6 L 1873.9,503.6 1848.8,572.6 1826.7,637.3 1807.5,697.9 1790.9,754.6 1776.9,807.8 1765.3,857.6 1755.9,904.2 1748.7,947.8 1743.5,988.7 1740.3,1026.9 1738.9,1062.7 1739.4,1096.2 1741.6,1127.6 1745.5,1157.1 1751.1,1184.7 1758.4,1210.5 1767.4,1234.8 1778.1,1257.5 1790.6,1278.9 1804.8,1298.9 1820.8,1317.7 1838.8,1335.4 1858.7,1351.9 1880.7,1367.4 1904.8,1381.8 1931.3,1395.2 1960.2,1407.7 1991.7,1419.2 2025.9,1429.8 2063.1,1439.4 2103.3,1448.0 2146.9,1455.7 2194.0,1462.2 2244.8,1467.7 2299.6,1472.1 2358.7,1475.3 2422.2,1477.2 2490.6,1477.7 2564.0,1476.8  Z" style="stroke-width: 2.0;  stroke: rgb(82,82,82); fill: rgb(255,0,0); opacity: 0.667;" />
<path d="M 2563.997,1476.788 A 1064.250,1064.250 0.00 0,1 2564.1,1481.0 L 2564.1,1481.0 2490.7,1481.7 2422.4,1481.0 2359.0,1479.0 2300.2,1475.8 2245.6,1471.5 2195.1,1466.1 2148.4,1459.7 2105.3,1452.3 2065.6,1443.9 2029.0,1434.6 1995.5,1424.4 1964.8,1413.2 1936.7,1401.1 1911.1,1388.1 1888.0,1374.1 1867.1,1359.1 1848.4,1343.1 1831.8,1325.9 1817.2,1307.7 1804.5,1288.2 1793.8,1267.4 1784.9,1245.3 1777.8,1221.7 1772.6,1196.5 1769.2,1169.7 1767.6,1141.1 1768.0,1110.5 1770.3,1077.9 1774.5,1043.1 1780.9,1005.9 1789.3,966.2 1800.1,923.8 1813.2,878.5 1828.7,830.2 1846.9,778.6 1867.9,723.5 1891.9,664.7 1918.9,602.1 1949.3,535.3  A 1064.250,1064.250 0.00 0,0 1945.5,533.5 L 1945.5,533.5 1915.3,600.4 1888.5,663.2 1864.8,722.0 1844.1,777.2 1826.1,828.9 1810.7,877.3 1797.8,922.6 1787.2,965.0 1778.9,1004.8 1772.7,1042.0 1768.6,1076.8 1766.4,1109.4 1766.2,1140.0 1767.9,1168.6 1771.4,1195.4 1776.7,1220.6 1783.9,1244.2 1792.9,1266.3 1803.7,1287.0 1816.4,1306.4 1831.1,1324.6 1847.8,1341.7 1866.6,1357.6 1887.5,1372.5 1910.7,1386.4 1936.3,1399.4 1964.4,1411.4 1995.2,1422.4 2028.8,1432.5 2065.4,1441.7 2105.1,1449.9 2148.3,1457.1 2195.0,1463.3 2245.5,1468.5 2300.1,1472.6 2358.9,1475.6 2422.3,1477.3 2490.6,1477.7 2564.0,1476.8  Z" style="stroke-width: 2.0;  stroke: rgb(82,82,82); fill: rgb(255,0,204); opacity: 0.667;" />
<path d="M 2134.905,2354.122 A 1064.250,1064.250 0.00 0,1 2131.5,2356.6 L 2131.5,2356.6 2088.5,2296.4 2049.5,2238.1 2014.3,2181.6 1982.3,2126.9 1953.4,2074.0 1927.1,2022.7 1903.3,1972.9 1881.6,1924.6 1861.8,1877.7 1843.6,1832.1 1826.9,1787.6 1811.4,1744.2 1796.9,1701.7 1783.3,1660.0 1770.5,1619.1 1758.2,1578.7 1746.4,1538.8 1735.0,1499.2 1723.9,1459.7 1713.1,1420.2 1702.4,1380.6 1692.0,1340.8 1681.7,1300.4 1671.6,1259.4 1661.8,1217.7 1652.2,1174.9 1642.9,1131.0 1634.0,1085.8 1625.7,1039.0 1618.0,990.4 1611.0,940.0 1605.0,887.4 1600.0,832.4 1596.4,774.9 1594.2,714.6 1593.7,651.3 1595.2,584.8 1598.9,514.7 1605.0,440.9  A 1064.250,1064.250 0.00 0,0 1600.8,440.5 L 1600.8,440.5 1594.9,514.3 1591.5,584.4 1590.3,650.9 1591.1,714.3 1593.5,774.6 1597.4,832.1 1602.5,887.0 1608.8,939.6 1615.9,990.0 1623.8,1038.5 1632.4,1085.2 1641.4,1130.4 1650.9,1174.3 1660.6,1217.0 1670.7,1258.8 1680.9,1299.7 1691.3,1340.0 1701.9,1379.8 1712.7,1419.4 1723.7,1458.8 1735.0,1498.2 1746.5,1537.8 1758.5,1577.7 1770.9,1618.0 1784.0,1658.9 1797.7,1700.5 1812.4,1742.9 1828.0,1786.3 1845.0,1830.7 1863.3,1876.3 1883.3,1923.1 1905.2,1971.3 1929.2,2021.0 1955.7,2072.2 1984.8,2125.0 2017.0,2179.6 2052.5,2235.9 2091.7,2294.0 2134.9,2354.1  Z" style="stroke-width: 2.0;  stroke: rgb(82,82,82); fill: rgb(255,204,204); opacity: 0.667;" />
<path d="M 2134.905,2354.122 A 1064.250,1064.250 0.00 0,1 2131.5,2356.6 L 2131.5,2356.6 2088.5,2296.5 2049.7,2238.7 2014.7,2182.9 1983.1,2129.1 1954.7,2077.3 1929.2,2027.2 1906.3,1978.8 1885.7,1931.9 1867.3,1886.5 1850.8,1842.4 1836.1,1799.5 1822.8,1757.6 1811.0,1716.7 1800.4,1676.6 1790.9,1637.2 1782.4,1598.3 1774.8,1559.9 1768.0,1521.6 1762.1,1483.5 1756.9,1445.4 1752.4,1407.1 1748.6,1368.5 1745.5,1329.4 1743.3,1289.6 1741.8,1249.1 1741.3,1207.6 1741.7,1165.0 1743.2,1121.2 1745.8,1075.9 1749.9,1029.0 1755.4,980.3 1762.6,929.6 1771.6,876.8 1782.7,821.7 1796.1,764.1 1812.1,703.9 1830.9,640.7 1852.7,574.5 1877.9,505.1  A 1064.250,1064.250 0.00 0,0 1873.9,503.6 L 1873.9,503.6 1849.0,573.1 1827.4,639.4 1808.9,702.6 1793.2,763.0 1780.0,820.6 1769.1,875.8 1760.3,928.6 1753.3,979.3 1748.0,1028.0 1744.2,1074.9 1741.6,1120.2 1740.3,1164.1 1740.1,1206.7 1740.8,1248.1 1742.4,1288.7 1744.9,1328.4 1748.1,1367.5 1752.0,1406.1 1756.6,1444.4 1762.0,1482.5 1768.1,1520.6 1775.0,1558.8 1782.8,1597.2 1791.4,1636.1 1801.1,1675.4 1811.8,1715.5 1823.9,1756.4 1837.3,1798.2 1852.2,1841.0 1868.9,1885.0 1887.4,1930.4 1908.2,1977.2 1931.3,2025.5 1957.0,2075.5 1985.6,2127.2 2017.4,2180.8 2052.6,2236.5 2091.7,2294.2 2134.9,2354.1  Z" style="stroke-width: 2.0;  stroke: rgb(82,82,82); fill: rgb(255,153,0); opacity: 0.667;" />
<path d="M 2134.905,2354.122 A 1064.250,1064.250 0.00 0,1 2131.5,2356.6 L 2131.5,2356.6 2088.5,2296.6 2049.7,2238.8 2014.7,2183.3 1983.3,2129.8 1955.0,2078.2 1929.6,2028.5 1906.9,1980.5 1886.7,1934.1 1868.6,1889.1 1852.5,1845.5 1838.2,1803.1 1825.6,1761.8 1814.4,1721.5 1804.6,1681.9 1795.9,1643.1 1788.4,1604.8 1781.9,1566.9 1776.4,1529.3 1771.8,1491.8 1768.0,1454.3 1765.1,1416.6 1763.1,1378.6 1761.9,1340.2 1761.7,1301.1 1762.5,1261.3 1764.3,1220.6 1767.3,1178.9 1771.5,1135.9 1777.1,1091.5 1784.2,1045.6 1793.0,997.9 1803.7,948.4 1816.4,896.9 1831.4,843.1 1849.0,787.0 1869.2,728.3 1892.5,666.9 1919.1,602.6 1949.3,535.3  A 1064.250,1064.250 0.00 0,0 1945.5,533.5 L 1945.5,533.5 1915.5,601.0 1889.2,665.4 1866.1,726.8 1846.1,785.6 1828.8,841.8 1814.0,895.6 1801.5,947.2 1791.0,996.8 1782.4,1044.4 1775.5,1090.4 1770.1,1134.8 1766.0,1177.8 1763.2,1219.6 1761.5,1260.3 1760.9,1300.1 1761.3,1339.1 1762.6,1377.6 1764.8,1415.5 1767.8,1453.2 1771.7,1490.7 1776.5,1528.2 1782.2,1565.8 1788.8,1603.6 1796.5,1641.9 1805.3,1680.7 1815.3,1720.2 1826.6,1760.5 1839.5,1801.8 1853.9,1844.1 1870.1,1887.7 1888.4,1932.5 1908.8,1978.9 1931.7,2026.8 1957.3,2076.4 1985.8,2127.8 2017.5,2181.2 2052.7,2236.6 2091.7,2294.2 2134.9,2354.1  Z" style="stroke-width: 2.0;  stroke: rgb(82,82,82); fill: rgb(255,204,0); opacity: 0.667;" />
<path d="M 2134.905,2354.122 A 1064.250,1064.250 0.00 0,1 2131.5,2356.6 L 2131.5,2356.6 2088.4,2297.3 2049.4,2241.5 2014.1,2189.1 1982.4,2139.9 1954.1,2093.7 1929.0,2050.4 1907.0,2009.7 1887.8,1971.5 1871.4,1935.7 1857.6,1902.2 1846.3,1870.6 1837.5,1841.1 1831.0,1813.3 1826.8,1787.2 1824.8,1762.7 1825.0,1739.7 1827.4,1718.0 1832.0,1697.7 1838.7,1678.5 1847.6,1660.5 1858.7,1643.5 1872.1,1627.5 1887.9,1612.5 1906.0,1598.3 1926.7,1585.0 1949.9,1572.5 1975.9,1560.8 2004.8,1549.9 2036.7,1539.7 2071.7,1530.2 2110.1,1521.5 2152.1,1513.5 2197.8,1506.3 2247.5,1499.9 2301.3,1494.3 2359.7,1489.6 2422.7,1485.8 2490.8,1482.9 2564.1,1481.0  A 1064.250,1064.250 0.00 0,0 2564.0,1476.8 L 2564.0,1476.8 2490.7,1479.0 2422.7,1482.1 2359.6,1486.2 2301.3,1491.2 2247.5,1497.0 2197.8,1503.6 2152.1,1510.9 2110.2,1519.1 2071.9,1527.9 2036.8,1537.5 2005.0,1547.8 1976.2,1558.9 1950.2,1570.7 1927.0,1583.3 1906.4,1596.7 1888.3,1610.9 1872.6,1626.1 1859.3,1642.1 1848.2,1659.1 1839.4,1677.2 1832.7,1696.4 1828.3,1716.7 1826.0,1738.4 1825.8,1761.4 1827.9,1785.9 1832.2,1812.0 1838.8,1839.7 1847.8,1869.3 1859.2,1900.7 1873.1,1934.3 1889.7,1970.0 1909.0,2008.1 1931.2,2048.6 1956.5,2091.9 1985.0,2138.0 2016.9,2187.0 2052.3,2239.3 2091.6,2294.9 2134.9,2354.1  Z" style="stroke-width: 2.0;  stroke: rgb(82,82,82); fill: rgb(255,255,0); opacity: 0.667;" />
<path d="M 770.320,725.277 A 1064.250,1064.250 0.00 0,1 773.4,722.4 L 773.4,722.4 823.8,775.6 871.4,824.2 916.1,868.6 958.3,908.8 998.0,945.2 1035.4,977.9 1070.6,1007.1 1103.8,1033.1 1135.0,1055.8 1164.5,1075.6 1192.3,1092.5 1218.5,1106.6 1243.3,1118.0 1266.7,1126.9 1288.9,1133.2 1309.8,1137.1 1329.8,1138.5 1348.7,1137.5 1366.6,1134.1 1383.8,1128.3 1400.1,1120.1 1415.7,1109.4 1430.7,1096.2 1445.0,1080.4 1458.7,1061.9 1472.0,1040.6 1484.7,1016.5 1497.0,989.4 1508.8,959.1 1520.2,925.5 1531.2,888.4 1541.8,847.7 1552.1,803.1 1561.9,754.4 1571.4,701.3 1580.4,643.8 1589.1,581.4 1597.3,513.9 1605.0,440.9  A 1064.250,1064.250 0.00 0,0 1600.8,440.5 L 1600.8,440.5 1593.4,513.5 1585.4,581.0 1577.0,643.5 1568.2,701.1 1558.9,754.1 1549.3,802.9 1539.2,847.5 1528.8,888.3 1517.9,925.4 1506.6,959.0 1494.9,989.4 1482.8,1016.6 1470.1,1040.7 1457.0,1062.0 1443.3,1080.6 1429.1,1096.4 1414.2,1109.7 1398.6,1120.5 1382.3,1128.8 1365.2,1134.6 1347.2,1138.1 1328.3,1139.2 1308.4,1137.8 1287.4,1134.0 1265.2,1127.8 1241.8,1119.0 1217.0,1107.7 1190.7,1093.7 1162.8,1076.9 1133.3,1057.3 1101.9,1034.6 1068.6,1008.9 1033.3,979.8 995.8,947.2 955.9,911.0 913.6,870.9 868.7,826.8 821.0,778.3 770.3,725.3  Z" style="stroke-width: 2.0;  stroke: rgb(82,82,82); fill: rgb(204,255,0); opacity: 0.667;" />
<path d="M 770.320,725.277 A 1064.250,1064.250 0.00 0,1 773.4,722.4 L 773.4,722.4 824.0,775.6 872.0,824.1 917.5,868.3 960.7,908.4 1001.8,944.5 1040.7,977.1 1077.8,1006.2 1113.1,1032.0 1146.7,1054.7 1178.8,1074.5 1209.5,1091.4 1238.8,1105.7 1267.0,1117.5 1294.1,1126.8 1320.2,1133.6 1345.5,1138.2 1370.0,1140.5 1393.8,1140.5 1417.0,1138.2 1439.8,1133.8 1462.1,1127.0 1484.1,1118.0 1505.9,1106.6 1527.6,1092.8 1549.2,1076.6 1570.7,1057.7 1592.4,1036.2 1614.1,1011.8 1636.1,984.5 1658.3,954.0 1680.8,920.3 1703.7,883.0 1727.0,842.1 1750.7,797.2 1775.0,748.2 1799.8,694.7 1825.2,636.6 1851.2,573.5 1877.9,505.1  A 1064.250,1064.250 0.00 0,0 1873.9,503.6 L 1873.9,503.6 1847.5,572.1 1821.8,635.3 1796.6,693.5 1772.0,747.1 1747.9,796.2 1724.3,841.2 1701.2,882.2 1678.5,919.6 1656.1,953.4 1634.0,984.0 1612.2,1011.4 1590.5,1035.8 1569.0,1057.5 1547.5,1076.4 1526.0,1092.7 1504.4,1106.6 1482.6,1118.1 1460.6,1127.2 1438.3,1134.0 1415.6,1138.6 1392.4,1140.9 1368.5,1141.0 1344.1,1138.8 1318.8,1134.4 1292.6,1127.6 1265.5,1118.4 1237.3,1106.8 1207.9,1092.6 1177.1,1075.7 1145.0,1056.1 1111.2,1033.5 1075.9,1007.8 1038.7,978.9 999.5,946.5 958.4,910.5 915.0,870.6 869.3,826.6 821.1,778.3 770.3,725.3  Z" style="stroke-width: 2.0;  stroke: rgb(82,82,82); fill: rgb(0,255,0); opacity: 0.667;" />
<path d="M 770.320,725.277 A 1064.250,1064.250 0.00 0,1 773.4,722.4 L 773.4,722.4 824.0,775.5 872.2,824.1 917.9,868.2 961.4,908.3 1002.8,944.5 1042.2,977.0 1079.8,1006.1 1115.7,1031.9 1149.9,1054.7 1182.7,1074.6 1214.2,1091.7 1244.4,1106.2 1273.5,1118.1 1301.5,1127.7 1328.7,1134.9 1355.1,1139.8 1380.8,1142.5 1405.9,1143.0 1430.5,1141.3 1454.7,1137.5 1478.6,1131.4 1502.3,1123.2 1525.9,1112.6 1549.5,1099.8 1573.1,1084.5 1596.8,1066.7 1620.7,1046.3 1645.0,1023.2 1669.5,997.1 1694.6,968.1 1720.1,935.8 1746.1,900.1 1772.8,860.7 1800.2,817.6 1828.3,770.3 1857.2,718.8 1887.0,662.6 1917.7,601.5 1949.3,535.3  A 1064.250,1064.250 0.00 0,0 1945.5,533.5 L 1945.5,533.5 1914.1,599.9 1883.7,661.0 1854.1,717.3 1825.4,769.0 1797.5,816.4 1770.3,859.7 1743.7,899.1 1717.8,934.9 1692.4,967.3 1667.5,996.5 1643.1,1022.6 1618.9,1045.8 1595.1,1066.3 1571.4,1084.2 1547.9,1099.6 1524.4,1112.5 1500.8,1123.2 1477.2,1131.5 1453.3,1137.7 1429.1,1141.6 1404.5,1143.4 1379.4,1143.0 1353.7,1140.4 1327.3,1135.6 1300.1,1128.5 1272.0,1119.1 1242.8,1107.2 1212.6,1092.8 1181.0,1075.9 1148.2,1056.1 1113.8,1033.5 1077.8,1007.8 1040.1,978.8 1000.6,946.4 959.1,910.4 915.4,870.6 869.5,826.6 821.2,778.2 770.3,725.3  Z" style="stroke-width: 2.0;  stroke: rgb(82,82,82); fill: rgb(53,128,0); opacity: 0.667;" />
<path d="M 770.320,725.277 A 1064.250,1064.250 0.00 0,1 773.4,722.4 L 773.4,722.4 824.7,775.6 874.8,824.5 923.6,869.4 971.2,910.6 1017.6,948.4 1062.8,983.2 1106.9,1015.3 1150.0,1044.9 1192.1,1072.3 1233.2,1097.8 1273.5,1121.5 1313.0,1143.7 1351.8,1164.5 1389.9,1184.2 1427.6,1203.0 1464.9,1220.8 1501.8,1238.0 1538.6,1254.6 1575.4,1270.6 1612.3,1286.3 1649.4,1301.5 1686.9,1316.4 1725.0,1331.1 1763.8,1345.4 1803.4,1359.4 1844.1,1373.1 1886.1,1386.5 1929.5,1399.4 1974.6,1411.8 2021.4,1423.7 2070.4,1434.8 2121.6,1445.2 2175.4,1454.6 2231.8,1462.9 2291.3,1469.9 2354.0,1475.4 2420.2,1479.3 2490.1,1481.2 2564.1,1481.0  A 1064.250,1064.250 0.00 0,0 2564.0,1476.8 L 2564.0,1476.8 2490.0,1477.3 2420.1,1475.6 2353.9,1472.0 2291.2,1466.7 2231.7,1460.0 2175.2,1451.9 2121.4,1442.7 2070.1,1432.6 2021.1,1421.6 1974.2,1409.9 1929.1,1397.7 1885.6,1384.9 1843.6,1371.8 1802.9,1358.2 1763.1,1344.3 1724.3,1330.2 1686.2,1315.7 1648.6,1300.9 1611.4,1285.8 1574.5,1270.3 1537.7,1254.4 1500.8,1238.0 1463.7,1221.0 1426.4,1203.3 1388.7,1184.7 1350.4,1165.1 1311.6,1144.4 1272.0,1122.4 1231.6,1098.8 1190.4,1073.5 1148.2,1046.3 1105.0,1016.9 1060.8,985.0 1015.4,950.4 968.8,912.7 921.1,871.7 872.1,827.0 821.8,778.3 770.3,725.3  Z" style="stroke-width: 2.0;  stroke: rgb(82,82,82); fill: rgb(0,0,204); opacity: 0.667;" />
<path d="M 770.320,725.277 A 1064.250,1064.250 0.00 0,1 773.4,722.4 L 773.4,722.4 823.3,777.6 869.4,831.8 912.0,885.1 951.6,937.3 988.5,988.3 1022.9,1038.2 1055.4,1086.7 1086.0,1134.0 1115.2,1179.9 1143.2,1224.6 1170.3,1267.9 1196.7,1309.9 1222.7,1350.6 1248.4,1390.1 1274.1,1428.4 1299.9,1465.6 1326.1,1501.7 1352.7,1536.9 1380.0,1571.3 1407.9,1605.0 1436.7,1638.0 1466.5,1670.7 1497.2,1703.0 1529.1,1735.2 1562.0,1767.5 1596.1,1800.0 1631.4,1832.9 1667.9,1866.6 1705.5,1901.1 1744.2,1936.9 1784.1,1974.0 1824.9,2012.8 1866.7,2053.5 1909.4,2096.5 1952.8,2142.1 1996.9,2190.6 2041.5,2242.3 2086.4,2297.5 2131.5,2356.6  A 1064.250,1064.250 0.00 0,0 2134.9,2354.1 L 2134.9,2354.1 2089.6,2295.1 2044.4,2240.1 1999.6,2188.6 1955.4,2140.3 1911.8,2094.9 1868.9,2052.1 1827.0,2011.5 1785.9,1972.8 1746.0,1935.9 1707.1,1900.3 1669.3,1865.9 1632.7,1832.4 1597.3,1799.6 1563.1,1767.2 1530.0,1735.1 1498.0,1703.0 1467.2,1670.8 1437.3,1638.3 1408.3,1605.3 1380.2,1571.8 1352.9,1537.5 1326.1,1502.4 1299.8,1466.4 1273.8,1429.3 1248.0,1391.1 1222.1,1351.7 1196.0,1311.1 1169.4,1269.2 1142.1,1226.0 1114.0,1181.5 1084.6,1135.6 1053.7,1088.5 1021.1,1040.1 986.4,990.4 949.4,939.5 909.6,887.4 866.7,834.3 820.4,780.3 770.3,725.3  Z" style="stroke-width: 2.0;  stroke: rgb(82,82,82); fill: rgb(102,153,255); opacity: 0.667;" />
<path d="M 778.100,718.023 A 1064.250,1064.250 0.00 0,1 781.2,715.2 L 781.2,715.2 831.1,768.9 878.1,818.0 922.4,862.8 964.1,903.5 1003.4,940.2 1040.4,973.3 1075.3,1002.9 1108.1,1029.2 1139.1,1052.3 1168.2,1072.3 1195.7,1089.5 1221.7,1103.9 1246.2,1115.6 1269.4,1124.7 1291.3,1131.2 1312.1,1135.3 1331.8,1136.9 1350.6,1136.1 1368.4,1132.8 1385.3,1127.2 1401.5,1119.1 1417.0,1108.5 1431.8,1095.4 1446.0,1079.7 1459.6,1061.3 1472.8,1040.2 1485.4,1016.1 1497.5,989.1 1509.3,958.8 1520.6,925.3 1531.5,888.3 1542.1,847.6 1552.3,803.0 1562.1,754.3 1571.5,701.3 1580.5,643.7 1589.1,581.4 1597.3,513.8 1605.0,440.9  A 1064.250,1064.250 0.00 0,0 1600.8,440.5 L 1600.8,440.5 1593.4,513.5 1585.4,581.0 1577.1,643.4 1568.3,701.0 1559.1,754.1 1549.5,802.8 1539.5,847.4 1529.1,888.1 1518.3,925.2 1507.1,958.8 1495.5,989.1 1483.5,1016.2 1470.9,1040.3 1457.9,1061.5 1444.3,1079.9 1430.2,1095.7 1415.4,1108.9 1400.0,1119.5 1383.8,1127.7 1366.9,1133.4 1349.1,1136.7 1330.4,1137.5 1310.7,1136.0 1289.9,1132.0 1267.9,1125.6 1244.7,1116.6 1220.1,1105.0 1194.1,1090.7 1166.5,1073.7 1137.3,1053.7 1106.2,1030.8 1073.3,1004.6 1038.3,975.2 1001.2,942.2 961.8,905.6 919.9,865.1 875.4,820.5 828.2,771.5 778.1,718.0  Z" style="stroke-width: 2.0;  stroke: rgb(82,82,82); fill: rgb(153,204,255); opacity: 0.667;" />
<path d="M 778.100,718.023 A 1064.250,1064.250 0.00 0,1 781.2,715.2 L 781.2,715.2 831.3,768.8 878.8,817.9 923.8,862.5 966.6,903.0 1007.2,939.6 1045.8,972.5 1082.5,1002.0 1117.4,1028.1 1150.8,1051.2 1182.5,1071.3 1212.9,1088.5 1242.0,1103.1 1270.0,1115.1 1296.8,1124.6 1322.7,1131.7 1347.8,1136.5 1372.1,1138.9 1395.7,1139.1 1418.8,1137.0 1441.4,1132.7 1463.6,1126.1 1485.4,1117.2 1507.1,1106.0 1528.6,1092.3 1550.1,1076.1 1571.5,1057.3 1593.1,1035.9 1614.7,1011.6 1636.6,984.3 1658.7,953.9 1681.1,920.2 1703.9,882.9 1727.2,842.0 1750.9,797.2 1775.1,748.2 1799.9,694.7 1825.2,636.6 1851.2,573.5 1877.9,505.1  A 1064.250,1064.250 0.00 0,0 1873.9,503.6 L 1873.9,503.6 1847.5,572.1 1821.8,635.3 1796.6,693.5 1772.1,747.1 1748.1,796.2 1724.5,841.1 1701.5,882.1 1678.8,919.4 1656.5,953.3 1634.5,983.8 1612.8,1011.1 1591.2,1035.5 1569.8,1057.1 1548.4,1075.9 1527.0,1092.2 1505.5,1105.9 1483.9,1117.3 1462.1,1126.3 1439.9,1133.0 1417.3,1137.4 1394.3,1139.5 1370.6,1139.4 1346.3,1137.1 1321.3,1132.4 1295.3,1125.4 1268.4,1116.0 1240.5,1104.1 1211.3,1089.7 1180.8,1072.5 1149.0,1052.6 1115.6,1029.7 1080.5,1003.6 1043.7,974.3 1005.0,941.6 964.2,905.1 921.3,864.8 876.0,820.3 828.4,771.5 778.1,718.0  Z" style="stroke-width: 2.0;  stroke: rgb(82,82,82); fill: rgb(0,255,255); opacity: 0.667;" />
<path d="M 778.100,718.023 A 1064.250,1064.250 0.00 0,1 781.2,715.2 L 781.2,715.2 831.3,768.8 878.9,817.8 924.2,862.5 967.3,902.9 1008.2,939.5 1047.3,972.5 1084.5,1001.9 1120.0,1028.1 1154.0,1051.2 1186.5,1071.4 1217.6,1088.8 1247.6,1103.6 1276.4,1115.8 1304.3,1125.6 1331.2,1133.0 1357.4,1138.1 1382.9,1141.0 1407.8,1141.7 1432.3,1140.2 1456.3,1136.5 1480.1,1130.5 1503.6,1122.4 1527.1,1112.0 1550.5,1099.2 1574.0,1084.0 1597.6,1066.3 1621.4,1046.0 1645.6,1022.9 1670.0,996.9 1695.0,967.9 1720.4,935.6 1746.4,900.0 1773.0,860.7 1800.3,817.5 1828.4,770.3 1857.3,718.7 1887.0,662.6 1917.7,601.5 1949.3,535.3  A 1064.250,1064.250 0.00 0,0 1945.5,533.5 L 1945.5,533.5 1914.1,599.9 1883.7,661.0 1854.2,717.3 1825.5,769.0 1797.6,816.3 1770.5,859.6 1744.0,899.0 1718.1,934.8 1692.8,967.1 1668.0,996.3 1643.7,1022.3 1619.6,1045.5 1595.9,1065.9 1572.3,1083.7 1548.9,1099.0 1525.6,1111.9 1502.1,1122.4 1478.6,1130.6 1454.9,1136.6 1430.8,1140.4 1406.4,1142.0 1381.5,1141.5 1356.0,1138.7 1329.8,1133.7 1302.8,1126.3 1274.9,1116.7 1246.0,1104.6 1216.0,1089.9 1184.8,1072.7 1152.2,1052.6 1118.1,1029.6 1082.5,1003.6 1045.2,974.3 1006.0,941.5 964.9,905.1 921.7,864.8 876.2,820.3 828.4,771.5 778.1,718.0  Z" style="stroke-width: 2.0;  stroke: rgb(82,82,82); fill: rgb(204,255,255); opacity: 0.667;" />
<path d="M 778.100,718.023 A 1064.250,1064.250 0.00 0,1 781.2,715.2 L 781.2,715.2 832.0,768.9 881.5,818.3 929.9,863.7 977.0,905.3 1023.0,943.6 1067.8,978.8 1111.6,1011.3 1154.3,1041.2 1196.1,1069.0 1236.9,1094.8 1276.9,1118.8 1316.1,1141.3 1354.7,1162.4 1392.6,1182.4 1430.1,1201.4 1467.1,1219.5 1503.9,1236.8 1540.5,1253.6 1577.1,1269.8 1613.9,1285.6 1650.8,1301.0 1688.2,1316.0 1726.1,1330.7 1764.8,1345.1 1804.3,1359.2 1844.9,1373.0 1886.8,1386.4 1930.1,1399.4 1975.0,1411.8 2021.8,1423.7 2070.7,1434.9 2121.9,1445.2 2175.5,1454.6 2232.0,1462.9 2291.4,1469.9 2354.0,1475.4 2420.2,1479.3 2490.1,1481.2 2564.1,1481.0  A 1064.250,1064.250 0.00 0,0 2564.0,1476.8 L 2564.0,1476.8 2490.0,1477.3 2420.1,1475.6 2353.9,1472.0 2291.3,1466.8 2231.8,1460.0 2175.4,1451.9 2121.6,1442.8 2070.4,1432.6 2021.5,1421.6 1974.7,1409.9 1929.7,1397.7 1886.3,1384.9 1844.4,1371.6 1803.7,1358.0 1764.1,1344.1 1725.4,1329.8 1687.5,1315.3 1650.0,1300.4 1613.0,1285.1 1576.2,1269.5 1539.6,1253.4 1502.9,1236.8 1466.0,1219.6 1428.9,1201.6 1391.3,1182.8 1353.3,1163.0 1314.7,1142.0 1275.4,1119.7 1235.3,1095.8 1194.4,1070.2 1152.5,1042.6 1109.7,1012.8 1065.8,980.5 1020.8,945.5 974.6,907.4 927.3,865.9 878.8,820.8 829.1,771.6 778.1,718.0  Z" style="stroke-width: 2.0;  stroke: rgb(82,82,82); fill: rgb(153,0,204); opacity: 0.667;" />
<path d="M 778.100,718.023 A 1064.250,1064.250 0.00 0,1 781.2,715.2 L 781.2,715.2 830.6,770.8 876.1,825.6 918.2,879.3 957.3,931.9 993.7,983.3 1027.7,1033.5 1059.7,1082.4 1090.0,1130.0 1118.8,1176.3 1146.4,1221.2 1173.1,1264.7 1199.2,1307.0 1224.9,1347.9 1250.3,1387.6 1275.7,1426.1 1301.3,1463.5 1327.3,1499.9 1353.7,1535.2 1380.7,1569.8 1408.5,1603.6 1437.2,1636.8 1466.8,1669.5 1497.5,1702.0 1529.2,1734.3 1562.1,1766.7 1596.2,1799.3 1631.4,1832.4 1667.8,1866.1 1705.4,1900.7 1744.1,1936.5 1784.0,1973.7 1824.8,2012.6 1866.7,2053.4 1909.3,2096.4 1952.8,2142.0 1996.9,2190.5 2041.5,2242.2 2086.4,2297.5 2131.5,2356.6  A 1064.250,1064.250 0.00 0,0 2134.9,2354.1 L 2134.9,2354.1 2089.6,2295.1 2044.4,2240.1 1999.6,2188.6 1955.3,2140.2 1911.7,2094.8 1868.9,2051.9 1826.9,2011.3 1785.9,1972.6 1745.9,1935.5 1707.0,1899.9 1669.3,1865.4 1632.7,1831.8 1597.3,1798.9 1563.2,1766.4 1530.2,1734.2 1498.3,1702.0 1467.5,1669.7 1437.8,1637.0 1409.0,1603.9 1381.0,1570.2 1353.8,1535.8 1327.3,1500.5 1301.2,1464.3 1275.4,1427.0 1249.9,1388.6 1224.3,1349.0 1198.5,1308.2 1172.2,1266.0 1145.3,1222.6 1117.5,1177.8 1088.5,1131.6 1058.0,1084.2 1025.9,1035.4 991.6,985.3 955.1,934.1 915.8,881.6 873.4,828.1 827.7,773.5 778.1,718.0  Z" style="stroke-width: 2.0;  stroke: rgb(82,82,82); fill: rgb(204,51,255); opacity: 0.667;" />
<path d="M 778.100,718.023 A 1064.250,1064.250 0.00 0,1 781.2,715.2 L 781.2,715.2 830.7,769.1 876.3,819.0 918.4,865.0 957.1,907.3 992.6,946.1 1024.9,981.6 1054.4,1013.9 1081.0,1043.1 1105.0,1069.4 1126.5,1092.9 1145.4,1113.8 1162.0,1132.1 1176.4,1148.0 1188.5,1161.4 1198.5,1172.6 1206.4,1181.4 1212.2,1188.1 1216.0,1192.6 1217.9,1194.9 1217.7,1195.0 1215.6,1193.0 1211.4,1188.8 1205.2,1182.5 1197.0,1173.9 1186.7,1163.1 1174.2,1150.0 1159.5,1134.5 1142.6,1116.5 1123.2,1095.9 1101.4,1072.7 1077.0,1046.8 1050.0,1017.9 1020.1,986.1 987.3,951.0 951.4,912.7 912.2,870.8 869.6,825.3 823.4,775.9 773.4,722.4  A 1064.250,1064.250 0.00 0,0 770.3,725.3 L 770.3,725.3 820.5,778.6 866.9,827.8 909.7,873.2 949.0,914.9 985.1,953.1 1018.1,988.0 1048.1,1019.7 1075.2,1048.5 1099.7,1074.3 1121.6,1097.4 1141.0,1117.9 1158.1,1135.8 1172.8,1151.3 1185.4,1164.4 1195.7,1175.1 1204.0,1183.7 1210.2,1190.0 1214.3,1194.1 1216.5,1196.1 1216.7,1196.0 1214.8,1193.7 1211.0,1189.2 1205.1,1182.6 1197.2,1173.8 1187.1,1162.7 1175.0,1149.3 1160.6,1133.5 1143.9,1115.2 1124.8,1094.4 1103.3,1071.0 1079.2,1044.8 1052.5,1015.6 1022.9,983.5 990.4,948.2 954.8,909.5 915.9,867.4 873.6,821.5 827.7,771.8 778.1,718.0  Z" style="stroke-width: 2.0;  stroke: rgb(82,82,82); fill: rgb(204,153,255); opacity: 0.667;" />
<path d="M 1256.093,464.076 A 1064.250,1064.250 0.00 0,1 1260.2,463.1 L 1260.2,463.1 1276.9,534.4 1292.7,600.2 1307.8,660.8 1322.0,716.5 1335.5,767.5 1348.3,814.1 1360.5,856.3 1372.1,894.6 1383.1,929.0 1393.6,959.6 1403.6,986.8 1413.1,1010.5 1422.2,1030.9 1431.0,1048.2 1439.4,1062.3 1447.4,1073.5 1455.2,1081.7 1462.7,1087.0 1470.0,1089.4 1477.1,1088.9 1484.1,1085.6 1490.9,1079.4 1497.5,1070.3 1504.1,1058.2 1510.6,1043.1 1517.1,1024.8 1523.5,1003.4 1529.9,978.6 1536.3,950.5 1542.8,918.7 1549.3,883.2 1555.9,843.8 1562.6,800.3 1569.3,752.5 1576.2,700.2 1583.2,643.1 1590.3,581.1 1597.6,513.8 1605.0,440.9  A 1064.250,1064.250 0.00 0,0 1600.8,440.5 L 1600.8,440.5 1593.7,513.4 1586.7,580.7 1579.8,642.8 1573.0,699.9 1566.4,752.2 1559.8,800.0 1553.3,843.6 1546.9,883.0 1540.5,918.5 1534.1,950.3 1527.8,978.5 1521.5,1003.3 1515.2,1024.8 1508.8,1043.0 1502.3,1058.2 1495.8,1070.3 1489.2,1079.4 1482.4,1085.7 1475.5,1089.0 1468.4,1089.5 1461.1,1087.1 1453.5,1081.9 1445.7,1073.7 1437.6,1062.6 1429.2,1048.5 1420.4,1031.2 1411.2,1010.8 1401.5,987.1 1391.4,960.1 1380.8,929.4 1369.7,895.1 1358.0,856.9 1345.6,814.7 1332.6,768.2 1318.9,717.2 1304.4,661.6 1289.2,601.1 1273.1,535.3 1256.1,464.1  Z" style="stroke-width: 2.0;  stroke: rgb(82,82,82); fill: rgb(102,102,102); opacity: 0.667;" />
<path d="M 1256.093,464.076 A 1064.250,1064.250 0.00 0,1 1260.2,463.1 L 1260.2,463.1 1277.1,534.4 1293.4,600.2 1309.2,660.9 1324.5,716.6 1339.4,767.7 1353.8,814.3 1367.9,856.8 1381.6,895.2 1395.1,929.9 1408.2,960.9 1421.1,988.4 1433.8,1012.6 1446.4,1033.7 1458.8,1051.6 1471.2,1066.5 1483.6,1078.5 1496.0,1087.7 1508.4,1094.0 1521.0,1097.7 1533.7,1098.5 1546.6,1096.6 1559.8,1092.0 1573.3,1084.6 1587.2,1074.4 1601.5,1061.3 1616.2,1045.2 1631.5,1026.1 1647.4,1003.8 1663.9,978.3 1681.1,949.3 1699.1,916.8 1717.9,880.6 1737.6,840.4 1758.2,796.2 1779.9,747.6 1802.6,694.4 1826.5,636.5 1851.6,573.5 1877.9,505.1  A 1064.250,1064.250 0.00 0,0 1873.9,503.6 L 1873.9,503.6 1847.9,572.1 1823.0,635.2 1799.4,693.2 1776.9,746.5 1755.4,795.1 1735.0,839.5 1715.5,879.7 1696.8,916.0 1678.9,948.6 1661.8,977.6 1645.4,1003.2 1629.6,1025.6 1614.4,1044.7 1599.7,1060.9 1585.5,1074.0 1571.7,1084.3 1558.2,1091.8 1545.0,1096.5 1532.1,1098.4 1519.4,1097.6 1506.8,1094.0 1494.3,1087.7 1481.9,1078.6 1469.5,1066.6 1457.1,1051.7 1444.5,1033.9 1431.9,1012.9 1419.1,988.8 1406.1,961.3 1392.8,930.3 1379.2,895.7 1365.4,857.3 1351.1,814.9 1336.5,768.3 1321.4,717.3 1305.9,661.6 1289.8,601.1 1273.2,535.3 1256.1,464.1  Z" style="stroke-width: 2.0;  stroke: rgb(82,82,82); fill: rgb(153,153,153); opacity: 0.667;" />
<path d="M 1256.093,464.076 A 1064.250,1064.250 0.00 0,1 1260.2,463.1 L 1260.2,463.1 1277.1,534.4 1293.6,600.3 1309.6,660.9 1325.2,716.7 1340.4,767.8 1355.3,814.6 1369.9,857.1 1384.2,895.7 1398.3,930.5 1412.1,961.7 1425.8,989.5 1439.4,1013.9 1452.9,1035.2 1466.3,1053.5 1479.7,1068.8 1493.2,1081.2 1506.8,1090.8 1520.6,1097.7 1534.5,1101.9 1548.7,1103.4 1563.2,1102.2 1578.1,1098.3 1593.3,1091.7 1609.1,1082.3 1625.4,1070.1 1642.4,1055.1 1660.0,1037.0 1678.3,1015.9 1697.4,991.6 1717.4,963.9 1738.4,932.8 1760.4,898.0 1783.5,859.4 1807.7,816.8 1833.2,769.9 1860.1,718.6 1888.3,662.5 1918.0,601.5 1949.3,535.3  A 1064.250,1064.250 0.00 0,0 1945.5,533.5 L 1945.5,533.5 1914.4,599.8 1884.9,661.0 1856.9,717.1 1830.3,768.6 1805.0,815.5 1780.9,858.3 1758.0,897.0 1736.2,931.8 1715.3,963.1 1695.4,990.8 1676.4,1015.2 1658.1,1036.4 1640.6,1054.5 1623.7,1069.6 1607.5,1081.9 1591.7,1091.3 1576.5,1098.0 1561.6,1101.9 1547.1,1103.2 1532.9,1101.8 1519.0,1097.6 1505.2,1090.8 1491.6,1081.2 1478.0,1068.9 1464.5,1053.6 1451.0,1035.4 1437.5,1014.2 1423.8,989.8 1410.0,962.1 1396.0,930.9 1381.8,896.2 1367.4,857.6 1352.6,815.2 1337.5,768.5 1322.1,717.4 1306.3,661.7 1290.0,601.1 1273.3,535.3 1256.1,464.1  Z" style="stroke-width: 2.0;  stroke: rgb(82,82,82); fill: rgb(204,204,204); opacity: 0.667;" />
<path d="M 1256.093,464.076 A 1064.250,1064.250 0.00 0,1 1260.2,463.1 L 1260.2,463.1 1277.8,534.7 1296.0,601.3 1314.9,663.5 1334.4,721.3 1354.3,775.2 1374.7,825.4 1395.6,872.2 1416.7,915.9 1438.3,956.6 1460.1,994.7 1482.3,1030.3 1504.8,1063.6 1527.7,1094.9 1551.0,1124.3 1574.7,1152.0 1598.9,1178.1 1623.7,1202.7 1649.0,1226.0 1675.1,1248.1 1701.9,1269.0 1729.7,1289.0 1758.4,1307.9 1788.3,1325.9 1819.5,1343.1 1852.1,1359.4 1886.2,1374.8 1922.1,1389.4 1960.0,1403.2 1999.9,1416.1 2042.1,1428.1 2086.9,1439.0 2134.4,1449.0 2184.8,1457.8 2238.5,1465.4 2295.6,1471.7 2356.5,1476.6 2421.3,1479.8 2490.4,1481.4 2564.1,1481.0  A 1064.250,1064.250 0.00 0,0 2564.0,1476.8 L 2564.0,1476.8 2490.3,1477.4 2421.2,1476.2 2356.4,1473.2 2295.5,1468.6 2238.4,1462.5 2184.7,1455.1 2134.2,1446.5 2086.6,1436.7 2041.8,1425.9 1999.6,1414.1 1959.6,1401.4 1921.7,1387.8 1885.7,1373.3 1851.5,1358.0 1818.9,1341.8 1787.6,1324.8 1757.7,1306.9 1728.8,1288.0 1701.0,1268.2 1674.1,1247.4 1647.9,1225.4 1622.5,1202.2 1597.6,1177.7 1573.3,1151.7 1549.5,1124.1 1526.1,1094.8 1503.1,1063.6 1480.4,1030.4 1458.1,994.8 1436.1,956.9 1414.4,916.2 1393.1,872.6 1372.1,825.9 1351.5,775.8 1331.3,722.0 1311.6,664.2 1292.4,602.2 1273.9,535.6 1256.1,464.1  Z" style="stroke-width: 2.0;  stroke: rgb(82,82,82); fill: rgb(204,204,153); opacity: 0.667;" />
<path d="M 1256.093,464.076 A 1064.250,1064.250 0.00 0,1 1260.2,463.1 L 1260.2,463.1 1278.1,535.1 1297.3,603.2 1317.5,667.5 1338.6,728.5 1360.3,786.3 1382.5,841.3 1404.9,893.7 1427.4,943.7 1449.9,991.7 1472.3,1037.8 1494.4,1082.3 1516.1,1125.4 1537.4,1167.3 1558.3,1208.3 1578.7,1248.4 1598.5,1288.0 1617.8,1327.2 1636.6,1366.2 1655.0,1405.1 1672.9,1444.0 1690.5,1483.3 1707.9,1522.9 1725.1,1563.1 1742.2,1603.9 1759.5,1645.5 1777.0,1688.0 1795.0,1731.5 1813.6,1776.0 1833.0,1821.7 1853.5,1868.7 1875.3,1917.0 1898.6,1966.6 1923.8,2017.8 1951.2,2070.3 1981.0,2124.5 2013.5,2180.1 2049.2,2237.4 2088.4,2296.2 2131.5,2356.6  A 1064.250,1064.250 0.00 0,0 2134.9,2354.1 L 2134.9,2354.1 2091.6,2293.9 2052.2,2235.2 2016.2,2178.1 1983.4,2122.5 1953.4,2068.5 1925.9,2016.1 1900.5,1965.1 1876.9,1915.5 1854.9,1867.3 1834.3,1820.4 1814.7,1774.8 1795.9,1730.3 1777.8,1686.9 1760.1,1644.5 1742.6,1603.0 1725.3,1562.2 1708.0,1522.1 1690.5,1482.5 1672.7,1443.4 1654.6,1404.4 1636.1,1365.6 1617.1,1326.7 1597.7,1287.6 1577.7,1248.1 1557.1,1208.0 1536.1,1167.2 1514.6,1125.3 1492.7,1082.3 1470.4,1037.9 1447.9,991.9 1425.2,944.0 1402.5,894.1 1379.9,841.8 1357.5,786.9 1335.6,729.1 1314.2,668.3 1293.7,604.0 1274.3,536.0 1256.1,464.1  Z" style="stroke-width: 2.0;  stroke: rgb(82,82,82); fill: rgb(251,106,74); opacity: 0.667;" />
<path d="M 1256.093,464.076 A 1064.250,1064.250 0.00 0,1 1260.2,463.1 L 1260.2,463.1 1276.4,534.5 1290.8,600.8 1303.3,662.1 1314.3,718.8 1323.6,771.0 1331.5,819.0 1337.8,863.1 1342.8,903.4 1346.5,940.0 1348.8,973.2 1349.9,1003.2 1349.7,1030.0 1348.3,1053.8 1345.7,1074.8 1341.9,1092.9 1336.8,1108.4 1330.6,1121.3 1323.1,1131.6 1314.4,1139.4 1304.4,1144.7 1293.0,1147.6 1280.3,1148.1 1266.1,1146.1 1250.5,1141.6 1233.3,1134.7 1214.4,1125.1 1193.9,1113.0 1171.5,1098.2 1147.3,1080.6 1121.0,1060.1 1092.6,1036.6 1062.0,1010.0 1029.0,980.1 993.5,946.8 955.4,909.9 914.5,869.2 870.6,824.5 823.7,775.7 773.4,722.4  A 1064.250,1064.250 0.00 0,0 770.3,725.3 L 770.3,725.3 820.8,778.4 867.9,827.1 912.0,871.6 953.0,912.1 991.3,948.8 1026.9,982.0 1060.0,1011.8 1090.8,1038.2 1119.3,1061.6 1145.6,1082.0 1169.9,1099.5 1192.3,1114.2 1212.9,1126.3 1231.8,1135.7 1249.1,1142.6 1264.7,1147.0 1278.9,1149.0 1291.6,1148.5 1303.0,1145.5 1313.0,1140.2 1321.7,1132.3 1329.1,1122.0 1335.3,1109.1 1340.3,1093.6 1344.0,1075.4 1346.5,1054.4 1347.8,1030.6 1347.9,1003.8 1346.7,973.8 1344.2,940.6 1340.5,904.0 1335.3,863.7 1328.7,819.7 1320.7,771.7 1311.2,719.5 1300.0,662.9 1287.2,601.6 1272.6,535.4 1256.1,464.1  Z" style="stroke-width: 2.0;  stroke: rgb(82,82,82); fill: rgb(116,196,118); opacity: 0.667;" />
<path d="M 1256.093,464.076 A 1064.250,1064.250 0.00 0,1 1260.2,463.1 L 1260.2,463.1 1276.4,534.5 1290.8,600.8 1303.4,662.1 1314.4,718.7 1323.8,770.9 1331.6,818.9 1338.1,862.9 1343.1,903.2 1346.9,939.8 1349.3,972.9 1350.4,1002.8 1350.3,1029.6 1349.0,1053.3 1346.5,1074.2 1342.9,1092.2 1338.0,1107.6 1331.8,1120.3 1324.5,1130.5 1315.9,1138.2 1306.1,1143.4 1294.9,1146.1 1282.3,1146.4 1268.4,1144.2 1252.9,1139.5 1235.9,1132.4 1217.3,1122.6 1197.0,1110.2 1174.9,1095.1 1151.0,1077.3 1125.0,1056.5 1096.9,1032.7 1066.7,1005.8 1034.0,975.5 998.9,941.8 961.2,904.5 920.8,863.4 877.4,818.3 830.9,769.0 781.2,715.2  A 1064.250,1064.250 0.00 0,0 778.1,718.0 L 778.1,718.0 828.0,771.6 874.7,820.8 918.2,865.7 958.9,906.7 996.7,943.8 1031.9,977.4 1064.7,1007.5 1095.1,1034.3 1123.2,1058.0 1149.3,1078.7 1173.3,1096.4 1195.5,1111.4 1215.8,1123.7 1234.5,1133.4 1251.5,1140.5 1267.0,1145.1 1280.9,1147.3 1293.5,1146.9 1304.6,1144.2 1314.5,1138.9 1323.0,1131.2 1330.3,1121.0 1336.4,1108.2 1341.2,1092.9 1344.9,1074.8 1347.3,1053.9 1348.5,1030.2 1348.4,1003.4 1347.2,973.5 1344.6,940.4 1340.8,903.8 1335.5,863.6 1328.9,819.6 1320.9,771.6 1311.3,719.5 1300.1,662.9 1287.2,601.6 1272.6,535.4 1256.1,464.1  Z" style="stroke-width: 2.0;  stroke: rgb(82,82,82); fill: rgb(107,174,214); opacity: 0.667;" />
<path d="M 1371.582,443.526 A 1064.250,1064.250 0.00 0,1 1375.8,443.0 L 1375.8,443.0 1384.5,515.7 1392.8,582.9 1400.7,644.8 1408.3,701.7 1415.5,753.8 1422.4,801.4 1429.1,844.7 1435.5,883.9 1441.6,919.2 1447.6,950.8 1453.3,978.7 1458.8,1003.2 1464.2,1024.4 1469.4,1042.3 1474.5,1057.1 1479.4,1068.8 1484.3,1077.5 1489.1,1083.3 1493.9,1086.2 1498.6,1086.1 1503.3,1083.2 1508.0,1077.3 1512.7,1068.5 1517.5,1056.7 1522.3,1041.8 1527.2,1023.8 1532.2,1002.5 1537.3,978.0 1542.5,949.9 1547.8,918.3 1553.3,882.9 1559.0,843.6 1564.9,800.1 1571.0,752.4 1577.3,700.1 1583.8,643.1 1590.6,581.1 1597.7,513.8 1605.0,440.9  A 1064.250,1064.250 0.00 0,0 1600.8,440.5 L 1600.8,440.5 1593.7,513.4 1586.9,580.7 1580.4,642.8 1574.1,699.8 1568.0,752.1 1562.1,799.9 1556.4,843.3 1550.9,882.7 1545.5,918.1 1540.3,949.8 1535.2,977.8 1530.2,1002.4 1525.3,1023.7 1520.5,1041.7 1515.7,1056.6 1511.0,1068.4 1506.3,1077.3 1501.7,1083.2 1497.0,1086.1 1492.2,1086.2 1487.5,1083.4 1482.6,1077.6 1477.7,1068.9 1472.7,1057.2 1467.6,1042.4 1462.3,1024.5 1456.8,1003.4 1451.2,978.9 1445.4,951.0 1439.3,919.5 1433.0,884.2 1426.5,845.0 1419.7,801.7 1412.5,754.1 1405.1,702.0 1397.3,645.2 1389.1,583.3 1380.5,516.2 1371.6,443.5  Z" style="stroke-width: 2.0;  stroke: rgb(82,82,82); fill: rgb(253,141,60); opacity: 0.667;" />
<path d="M 1371.582,443.526 A 1064.250,1064.250 0.00 0,1 1375.8,443.0 L 1375.8,443.0 1384.6,515.7 1393.4,582.9 1402.1,644.9 1410.8,701.9 1419.4,754.1 1427.9,801.9 1436.5,845.5 1445.0,885.0 1453.6,920.6 1462.2,952.6 1470.8,981.0 1479.5,1006.0 1488.3,1027.8 1497.2,1046.4 1506.3,1062.0 1515.6,1074.6 1525.0,1084.4 1534.8,1091.2 1544.8,1095.3 1555.1,1096.6 1565.8,1095.1 1576.9,1090.8 1588.5,1083.6 1600.6,1073.7 1613.2,1060.8 1626.4,1044.9 1640.2,1025.9 1654.7,1003.7 1670.0,978.3 1686.1,949.4 1703.1,916.9 1721.0,880.7 1739.9,840.5 1759.9,796.2 1780.9,747.6 1803.2,694.5 1826.8,636.5 1851.6,573.5 1877.9,505.1  A 1064.250,1064.250 0.00 0,0 1873.9,503.6 L 1873.9,503.6 1847.9,572.1 1823.3,635.2 1800.0,693.3 1777.9,746.5 1757.1,795.2 1737.3,839.6 1718.5,879.8 1700.8,916.1 1683.9,948.6 1668.0,977.6 1652.8,1003.1 1638.3,1025.3 1624.6,1044.4 1611.4,1060.3 1598.9,1073.3 1586.8,1083.3 1575.3,1090.5 1564.2,1094.8 1553.5,1096.4 1543.2,1095.1 1533.1,1091.1 1523.4,1084.3 1513.9,1074.6 1504.6,1062.0 1495.4,1046.4 1486.4,1027.8 1477.5,1006.1 1468.7,981.1 1460.0,952.7 1451.3,920.8 1442.6,885.2 1433.9,845.7 1425.2,802.2 1416.4,754.5 1407.6,702.2 1398.7,645.3 1389.8,583.3 1380.7,516.2 1371.6,443.5  Z" style="stroke-width: 2.0;  stroke: rgb(82,82,82); fill: rgb(255,0,0); opacity: 0.667;" />
<path d="M 1371.582,443.526 A 1064.250,1064.250 0.00 0,1 1375.8,443.0 L 1375.8,443.0 1384.7,515.7 1393.6,582.9 1402.5,644.9 1411.5,702.0 1420.4,754.3 1429.4,802.2 1438.5,845.9 1447.6,885.5 1456.8,921.4 1466.1,953.5 1475.5,982.2 1485.0,1007.5 1494.8,1029.5 1504.7,1048.5 1514.8,1064.5 1525.2,1077.6 1535.9,1087.7 1546.9,1095.1 1558.3,1099.8 1570.1,1101.7 1582.4,1100.9 1595.2,1097.3 1608.5,1090.9 1622.5,1081.8 1637.1,1069.8 1652.5,1054.9 1668.6,1037.0 1685.6,1016.0 1703.5,991.7 1722.4,964.1 1742.4,933.0 1763.5,898.2 1785.8,859.5 1809.3,816.9 1834.3,770.0 1860.6,718.6 1888.6,662.5 1918.1,601.5 1949.3,535.3  A 1064.250,1064.250 0.00 0,0 1945.5,533.5 L 1945.5,533.5 1914.5,599.8 1885.2,661.0 1857.5,717.2 1831.4,768.7 1806.6,815.7 1783.2,858.4 1761.1,897.1 1740.1,932.0 1720.3,963.2 1701.5,990.9 1683.7,1015.2 1666.8,1036.3 1650.7,1054.3 1635.4,1069.3 1620.8,1081.3 1606.9,1090.5 1593.6,1096.9 1580.8,1100.5 1568.5,1101.4 1556.7,1099.6 1545.3,1095.0 1534.2,1087.6 1523.5,1077.5 1513.1,1064.4 1502.9,1048.5 1492.9,1029.6 1483.1,1007.5 1473.4,982.3 1463.9,953.6 1454.5,921.5 1445.2,885.8 1435.9,846.2 1426.7,802.5 1417.5,754.7 1408.3,702.3 1399.1,645.3 1389.9,583.4 1380.8,516.2 1371.6,443.5  Z" style="stroke-width: 2.0;  stroke: rgb(82,82,82); fill: rgb(255,0,204); opacity: 0.667;" />
<path d="M 1371.582,443.526 A 1064.250,1064.250 0.00 0,1 1375.8,443.0 L 1375.8,443.0 1385.3,516.0 1396.0,584.2 1407.7,647.7 1420.4,707.0 1434.0,762.4 1448.4,814.0 1463.6,862.2 1479.5,907.1 1496.0,949.2 1513.2,988.4 1531.0,1025.2 1549.4,1059.6 1568.4,1091.9 1588.1,1122.2 1608.5,1150.7 1629.5,1177.6 1651.3,1202.9 1673.9,1226.7 1697.4,1249.3 1721.9,1270.7 1747.4,1291.0 1774.1,1310.2 1802.1,1328.3 1831.5,1345.6 1862.5,1361.9 1895.2,1377.3 1929.7,1391.9 1966.3,1405.5 2005.1,1418.2 2046.4,1429.9 2090.2,1440.7 2136.9,1450.3 2186.7,1458.9 2239.8,1466.2 2296.5,1472.3 2356.9,1476.9 2421.5,1480.0 2490.5,1481.4 2564.1,1481.0  A 1064.250,1064.250 0.00 0,0 2564.0,1476.8 L 2564.0,1476.8 2490.4,1477.5 2421.4,1476.3 2356.8,1473.5 2296.3,1469.1 2239.7,1463.3 2186.6,1456.2 2136.7,1447.8 2090.0,1438.3 2046.1,1427.7 2004.8,1416.2 1965.9,1403.6 1929.3,1390.1 1894.7,1375.8 1862.0,1360.5 1830.9,1344.3 1801.4,1327.1 1773.4,1309.1 1746.6,1290.0 1721.0,1269.8 1696.4,1248.5 1672.8,1226.1 1650.1,1202.3 1628.2,1177.0 1607.1,1150.3 1586.6,1121.9 1566.8,1091.6 1547.7,1059.4 1529.1,1025.1 1511.2,988.4 1493.8,949.2 1477.1,907.2 1461.1,862.3 1445.7,814.2 1431.1,762.6 1417.3,707.4 1404.3,648.1 1392.3,584.6 1381.4,516.5 1371.6,443.5  Z" style="stroke-width: 2.0;  stroke: rgb(82,82,82); fill: rgb(255,204,204); opacity: 0.667;" />
<path d="M 1371.582,443.526 A 1064.250,1064.250 0.00 0,1 1375.8,443.0 L 1375.8,443.0 1385.6,516.5 1397.1,586.1 1410.1,652.0 1424.3,714.5 1439.5,773.9 1455.5,830.4 1472.1,884.3 1489.1,935.8 1506.4,985.2 1523.9,1032.7 1541.4,1078.5 1558.9,1122.8 1576.2,1165.8 1593.3,1207.8 1610.1,1248.9 1626.7,1289.3 1643.0,1329.2 1659.0,1368.8 1674.8,1408.2 1690.4,1447.6 1705.8,1487.2 1721.1,1527.0 1736.5,1567.3 1752.0,1608.1 1767.8,1649.7 1784.0,1692.0 1800.7,1735.2 1818.3,1779.5 1836.8,1824.9 1856.4,1871.5 1877.5,1919.4 1900.3,1968.6 1925.0,2019.3 1952.0,2071.5 1981.5,2125.3 2013.8,2180.6 2049.3,2237.6 2088.5,2296.3 2131.5,2356.6  A 1064.250,1064.250 0.00 0,0 2134.9,2354.1 L 2134.9,2354.1 2091.6,2293.9 2052.3,2235.4 2016.5,2178.6 1983.9,2123.3 1954.2,2069.7 1927.1,2017.6 1902.2,1967.0 1879.2,1917.9 1857.9,1870.1 1838.1,1823.6 1819.4,1778.2 1801.7,1734.0 1784.7,1690.9 1768.4,1648.6 1752.4,1607.1 1736.8,1566.3 1721.2,1526.1 1705.7,1486.3 1690.2,1446.8 1674.4,1407.5 1658.5,1368.1 1642.3,1328.6 1625.9,1288.8 1609.1,1248.4 1592.1,1207.4 1574.8,1165.5 1557.4,1122.5 1539.7,1078.3 1522.0,1032.6 1504.4,985.2 1486.9,935.9 1469.6,884.4 1452.8,830.6 1436.6,774.1 1421.2,714.8 1406.8,652.3 1393.5,586.5 1381.7,517.0 1371.6,443.5  Z" style="stroke-width: 2.0;  stroke: rgb(82,82,82); fill: rgb(255,153,0); opacity: 0.667;" />
<path d="M 1371.582,443.526 A 1064.250,1064.250 0.00 0,1 1375.8,443.0 L 1375.8,443.0 1384.0,515.8 1390.7,583.3 1396.2,645.8 1400.4,703.5 1403.5,756.7 1405.4,805.7 1406.2,850.5 1405.9,891.6 1404.7,928.9 1402.4,962.8 1399.1,993.4 1394.9,1020.8 1389.7,1045.1 1383.5,1066.6 1376.4,1085.2 1368.2,1101.2 1359.0,1114.5 1348.8,1125.2 1337.6,1133.5 1325.1,1139.2 1311.6,1142.5 1296.8,1143.4 1280.7,1141.7 1263.3,1137.7 1244.4,1131.1 1224.0,1121.9 1202.1,1110.2 1178.4,1095.7 1153.0,1078.4 1125.7,1058.3 1096.3,1035.1 1064.8,1008.8 1031.1,979.2 995.0,946.2 956.3,909.5 915.0,869.0 870.9,824.4 823.7,775.6 773.4,722.4  A 1064.250,1064.250 0.00 0,0 770.3,725.3 L 770.3,725.3 820.8,778.3 868.2,826.9 912.5,871.3 954.0,911.7 992.8,948.2 1029.0,981.1 1062.9,1010.6 1094.5,1036.8 1123.9,1059.8 1151.3,1079.8 1176.8,1097.0 1200.5,1111.4 1222.5,1123.0 1242.9,1132.1 1261.8,1138.6 1279.3,1142.6 1295.4,1144.2 1310.1,1143.3 1323.7,1139.9 1336.1,1134.1 1347.3,1125.8 1357.5,1115.0 1366.6,1101.7 1374.7,1085.7 1381.8,1067.0 1387.9,1045.6 1393.0,1021.2 1397.1,993.8 1400.2,963.2 1402.4,929.3 1403.5,891.9 1403.6,850.9 1402.6,806.1 1400.5,757.1 1397.3,703.9 1392.8,646.2 1387.1,583.8 1380.0,516.3 1371.6,443.5  Z" style="stroke-width: 2.0;  stroke: rgb(82,82,82); fill: rgb(255,204,0); opacity: 0.667;" />
<path d="M 1371.582,443.526 A 1064.250,1064.250 0.00 0,1 1375.8,443.0 L 1375.8,443.0 1384.0,515.8 1390.8,583.3 1396.3,645.8 1400.5,703.5 1403.6,756.7 1405.6,805.6 1406.4,850.4 1406.2,891.4 1405.0,928.7 1402.9,962.5 1399.7,993.0 1395.5,1020.3 1390.4,1044.6 1384.4,1066.0 1377.3,1084.5 1369.3,1100.4 1360.3,1113.6 1350.2,1124.2 1339.1,1132.3 1326.9,1137.9 1313.5,1141.0 1298.8,1141.7 1283.0,1139.9 1265.7,1135.6 1247.1,1128.8 1227.0,1119.4 1205.2,1107.4 1181.9,1092.7 1156.7,1075.2 1129.7,1054.7 1100.6,1031.2 1069.5,1004.6 1036.2,974.6 1000.4,941.2 962.2,904.1 921.3,863.2 877.6,818.2 831.0,768.9 781.2,715.2  A 1064.250,1064.250 0.00 0,0 778.1,718.0 L 778.1,718.0 828.1,771.6 874.9,820.7 918.8,865.5 959.8,906.3 998.2,943.2 1034.1,976.5 1067.5,1006.3 1098.8,1032.8 1127.9,1056.2 1155.0,1076.5 1180.2,1094.0 1203.7,1108.6 1225.4,1120.5 1245.6,1129.8 1264.3,1136.6 1281.5,1140.8 1297.4,1142.5 1312.0,1141.8 1325.4,1138.6 1337.6,1132.9 1348.7,1124.8 1358.8,1114.1 1367.7,1100.9 1375.7,1085.0 1382.7,1066.4 1388.6,1045.1 1393.6,1020.7 1397.7,993.4 1400.7,962.9 1402.8,929.1 1403.8,891.8 1403.8,850.8 1402.8,806.0 1400.6,757.1 1397.4,703.9 1392.9,646.2 1387.1,583.8 1380.0,516.3 1371.6,443.5  Z" style="stroke-width: 2.0;  stroke: rgb(82,82,82); fill: rgb(255,255,0); opacity: 0.667;" />
<path d="M 1371.582,443.526 A 1064.250,1064.250 0.00 0,1 1375.8,443.0 L 1375.8,443.0 1384.3,515.7 1392.0,582.9 1398.9,644.9 1405.2,701.9 1410.7,754.2 1415.6,802.0 1420.0,845.5 1423.7,884.9 1426.8,920.5 1429.4,952.2 1431.5,980.5 1433.0,1005.2 1434.1,1026.7 1434.6,1045.0 1434.7,1060.1 1434.3,1072.2 1433.4,1081.3 1432.0,1087.5 1430.1,1090.8 1427.7,1091.2 1424.8,1088.7 1421.4,1083.4 1417.5,1075.1 1413.0,1063.9 1408.0,1049.6 1402.3,1032.2 1396.1,1011.7 1389.2,987.8 1381.6,960.6 1373.3,929.8 1364.3,895.3 1354.5,856.9 1343.8,814.5 1332.4,767.8 1320.0,716.7 1306.6,661.0 1292.2,600.3 1276.8,534.4 1260.2,463.1  A 1064.250,1064.250 0.00 0,0 1256.1,464.1 L 1256.1,464.1 1272.9,535.3 1288.6,601.1 1303.3,661.7 1316.8,717.5 1329.4,768.5 1341.1,815.1 1351.9,857.5 1361.9,895.8 1371.0,930.3 1379.4,961.0 1387.1,988.3 1394.1,1012.1 1400.5,1032.6 1406.2,1050.0 1411.3,1064.2 1415.8,1075.4 1419.8,1083.7 1423.2,1089.0 1426.1,1091.5 1428.5,1091.1 1430.3,1087.8 1431.7,1081.6 1432.6,1072.4 1433.0,1060.4 1432.8,1045.2 1432.2,1027.0 1431.1,1005.5 1429.4,980.7 1427.2,952.5 1424.5,920.7 1421.2,885.2 1417.4,845.8 1412.9,802.3 1407.8,754.6 1402.0,702.3 1395.5,645.3 1388.3,583.4 1380.3,516.2 1371.6,443.5  Z" style="stroke-width: 2.0;  stroke: rgb(82,82,82); fill: rgb(204,255,0); opacity: 0.667;" />
<path d="M 1912.635,519.000 A 1064.250,1064.250 0.00 0,1 1918.4,521.4 L 1918.4,521.4 1889.4,588.7 1862.1,650.7 1836.6,707.7 1812.6,759.9 1790.0,807.7 1768.9,851.2 1749.2,890.7 1730.7,926.2 1713.4,958.0 1697.2,986.3 1682.0,1011.2 1667.9,1032.8 1654.7,1051.3 1642.4,1066.7 1630.9,1079.1 1620.2,1088.6 1610.3,1095.2 1601.0,1099.0 1592.4,1100.1 1584.5,1098.3 1577.1,1093.8 1570.3,1086.4 1564.1,1076.2 1558.4,1063.1 1553.2,1047.0 1548.5,1027.8 1544.3,1005.6 1540.6,980.0 1537.3,951.1 1534.6,918.6 1532.2,882.4 1530.4,842.4 1529.1,798.3 1528.3,750.0 1527.9,697.1 1528.2,639.6 1529.0,577.1 1530.3,509.4 1532.3,436.2  A 1064.250,1064.250 0.00 0,0 1526.1,436.1 L 1526.1,436.1 1524.5,509.3 1523.5,577.0 1523.1,639.5 1523.2,697.0 1523.8,749.8 1525.0,798.1 1526.6,842.2 1528.6,882.2 1531.1,918.4 1534.1,950.8 1537.5,979.8 1541.4,1005.3 1545.8,1027.6 1550.6,1046.7 1555.8,1062.7 1561.6,1075.8 1567.9,1086.0 1574.7,1093.3 1582.1,1097.8 1590.1,1099.5 1598.7,1098.4 1607.9,1094.6 1617.8,1087.9 1628.4,1078.3 1639.8,1065.8 1652.1,1050.4 1665.1,1031.8 1679.2,1010.2 1694.1,985.2 1710.2,956.8 1727.3,924.9 1745.6,889.2 1765.1,849.7 1786.0,806.0 1808.2,758.1 1831.9,705.7 1857.2,648.6 1884.0,586.4 1912.6,519.0  Z" style="stroke-width: 2.0;  stroke: rgb(82,82,82); fill: rgb(0,255,0); opacity: 0.667;" />
<path d="M 1150.289,494.848 A 1064.250,1064.250 0.00 0,1 1153.3,493.8 L 1153.3,493.8 1177.0,563.1 1198.5,627.3 1217.9,686.6 1235.4,741.4 1251.0,791.8 1264.9,838.0 1277.0,880.3 1287.5,918.8 1296.4,953.8 1303.9,985.3 1309.8,1013.6 1314.4,1038.7 1317.5,1060.8 1319.3,1080.1 1319.8,1096.5 1319.0,1110.1 1316.8,1121.2 1313.3,1129.6 1308.5,1135.4 1302.3,1138.8 1294.7,1139.5 1285.8,1137.8 1275.4,1133.5 1263.5,1126.6 1250.1,1117.2 1235.1,1105.0 1218.4,1090.2 1200.0,1072.5 1179.8,1051.8 1157.6,1028.2 1133.4,1001.4 1107.2,971.4 1078.6,937.9 1047.8,900.7 1014.5,859.9 978.5,815.0 939.8,766.0 898.3,712.6 853.6,654.5  A 1064.250,1064.250 0.00 0,0 851.1,656.5 L 851.1,656.5 895.9,714.4 937.6,767.7 976.4,816.6 1012.5,861.3 1046.0,902.1 1076.9,939.1 1105.6,972.6 1131.9,1002.5 1156.2,1029.3 1178.4,1052.8 1198.7,1073.4 1217.2,1091.0 1233.9,1105.8 1249.0,1117.9 1262.4,1127.4 1274.3,1134.2 1284.7,1138.4 1293.7,1140.2 1301.2,1139.4 1307.4,1136.0 1312.2,1130.2 1315.6,1121.7 1317.8,1110.7 1318.6,1097.0 1318.1,1080.6 1316.2,1061.4 1313.0,1039.3 1308.4,1014.2 1302.3,985.9 1294.8,954.4 1285.7,919.5 1275.1,881.0 1262.8,838.7 1248.9,792.5 1233.1,742.2 1215.5,687.5 1195.8,628.2 1174.2,564.1 1150.3,494.8  Z" style="stroke-width: 2.0;  stroke: rgb(82,82,82); fill: rgb(53,128,0); opacity: 0.667;" />
</g>
<defs>
<pattern id="hline-sparse" width="10" height="10" patternTransform="rotate(0 0 0)" patternUnits="userSpaceOnUse"><line x1="0" y1="0" x2="10" y2="0" style="stroke:black;stroke-width:2" /></pattern>
<pattern id="checker" width="10" height="10" patternTransform="rotate(45 0 0)" patternUnits="userSpaceOnUse"><line x1="0" y1="0" x2="10" y2="0" style="stroke:black;stroke-width:2" /><line x1="0" y1="0" x2="0" y2="10" style="stroke:black;stroke-width:2" /></pattern>
<pattern id="checker" width="10" height="10" patternTransform="rotate(45 0 0)" patternUnits="userSpaceOnUse"><line x1="0" y1="0" x2="10" y2="0" style="stroke:black;stroke-width:5" /><line x1="0" y1="0" x2="0" y2="10" style="stroke:black;stroke-width:4" /></pattern>
<pattern id="hline" width="10" height="10" patternTransform="rotate(0 0 0)" patternUnits="userSpaceOnUse"><line x1="0" y1="0" x2="10" y2="0" style="stroke:black;stroke-width:5" /></pattern>
<pattern id="vline-sparse" width="10" height="10" patternTransform="rotate(0 0 0)" patternUnits="userSpaceOnUse"><line x1="0" y1="0" x2="0" y2="10" style="stroke:black;stroke-width:2" /></pattern>
<pattern id="vline" width="10" height="10" patternTransform="rotate(0 0 0)" patternUnits="userSpaceOnUse"><line x1="0" y1="0" x2="0" y2="10" style="stroke:black;stroke-width:5" /></pattern>
</defs>
</svg>
