<?xml version="1.0" encoding="utf-8" standalone="no"?>
<!DOCTYPE svg PUBLIC "-//W3C//DTD SVG 1.1//EN" "http://www.w3.org/Graphics/SVG/1.1/DTD/svg11.dtd">
<svg width="3000px" height="3000px" version="1.1" xmlns="http://www.w3.org/2000/svg" xmlns:xlink="http://www.w3.org/1999/xlink">
<g id="ideograms">
<path d="M1500.000,425.000 A1075.000,1075.000 40.000 0,1 1801.792,468.231 L1815.829,420.242 A1125.000,1125.000 0.000 0,0 1500.000,375.000 Z" style="stroke-linecap:round;fill:rgb(116,196,118);fill-opacity:0.33;" />
<text x="1681.7" y="298.7" font-size="18.2px" font-family="CMUBright-Roman" style="text-anchor:start;fill:rgb(0,0,0);" transform="rotate(278.2,1681.7,298.7)" >R<tspan baseline-shift="-40%" font-size="90%">s</tspan>caffold<tspan baseline-shift="-40%" font-size="90%">7</tspan></text>
<line x1='1500.0' y1='375.0' x2='1500.0' y2='355.0' style="stroke-width:4.0;stroke:rgb(0,0,0);stroke-linecap:round;fill:none;" />
<text x="1506.5" y="345.0" font-size="18.2px" font-family="CMUBright-Roman" style="text-anchor:start;fill:rgb(0,0,0);" transform="rotate(270.0,1506.5,345.0)" >0</text>
<line x1='1569.1' y1='377.1' x2='1570.3' y2='357.2' style="stroke-width:4.0;stroke:rgb(0,0,0);stroke-linecap:round;fill:none;" />
<text x="1577.4" y="347.6" font-size="18.2px" font-family="CMUBright-Roman" style="text-anchor:start;fill:rgb(0,0,0);" transform="rotate(273.5,1577.4,347.6)" >50</text>
<line x1='1637.9' y1='383.5' x2='1640.3' y2='363.6' style="stroke-width:4.0;stroke:rgb(0,0,0);stroke-linecap:round;fill:none;" />
<text x="1648.0" y="354.5" font-size="18.2px" font-family="CMUBright-Roman" style="text-anchor:start;fill:rgb(0,0,0);" transform="rotate(277.0,1648.0,354.5)" >100</text>
<line x1='1706.2' y1='394.1' x2='1709.8' y2='374.4' style="stroke-width:4.0;stroke:rgb(0,0,0);stroke-linecap:round;fill:none;" />
<text x="1718.1" y="365.8" font-size="18.2px" font-family="CMUBright-Roman" style="text-anchor:start;fill:rgb(0,0,0);" transform="rotate(280.6,1718.1,365.8)" >150</text>
<line x1='1773.7' y1='408.8' x2='1778.6' y2='389.4' style="stroke-width:4.0;stroke:rgb(0,0,0);stroke-linecap:round;fill:none;" />
<text x="1787.3" y="381.3" font-size="18.2px" font-family="CMUBright-Roman" style="text-anchor:start;fill:rgb(0,0,0);" transform="rotate(284.1,1787.3,381.3)" >200</text>
<g id="highlighttrack_0">
<path d="M1532.327,425.486 A1075.000,1075.000 40.000 0,1 1541.423,425.798 L1543.350,375.836 A1125.000,1125.000 0.000 0,0 1533.831,375.509 Z" style="stroke-width:4.0;stroke:rgb(0,0,0);stroke-linecap:round;fill:rgb(116,196,118);" />
</g>
<path d="M1862.956,488.127 A1075.000,1075.000 40.000 0,1 1893.743,499.704 L1912.057,453.179 A1125.000,1125.000 0.000 0,0 1879.838,441.063 Z" style="stroke-linecap:round;fill:rgb(116,196,118);fill-opacity:0.33;" />
<text x="1936.6" y="366.1" font-size="18.2px" font-family="CMUBright-Roman" style="text-anchor:start;fill:rgb(0,0,0);" transform="rotate(290.6,1936.6,366.1)" >R<tspan baseline-shift="-40%" font-size="90%">s</tspan>caffold<tspan baseline-shift="-40%" font-size="90%">2</tspan>1</text>
<line x1='1879.8' y1='441.1' x2='1886.6' y2='422.2' style="stroke-width:4.0;stroke:rgb(0,0,0);stroke-linecap:round;fill:none;" />
<text x="1896.1" y="415.0" font-size="18.2px" font-family="CMUBright-Roman" style="text-anchor:start;fill:rgb(0,0,0);" transform="rotate(289.7,1896.1,415.0)" >0</text>
<g id="highlighttrack_0">
<path d="M1888.795,497.771 A1075.000,1075.000 40.000 0,1 1893.142,499.468 L1911.428,452.932 A1125.000,1125.000 0.000 0,0 1906.879,451.155 Z" style="stroke-width:4.0;stroke:rgb(0,0,0);stroke-linecap:round;fill:rgb(251,106,74);" />
</g>
<path d="M1952.860,525.042 A1075.000,1075.000 40.000 0,1 1961.133,528.928 L1982.581,483.762 A1125.000,1125.000 0.000 0,0 1973.924,479.695 Z" style="stroke-linecap:round;fill:rgb(116,196,118);fill-opacity:0.33;" />
<text x="2025.1" y="404.3" font-size="18.2px" font-family="CMUBright-Roman" style="text-anchor:start;fill:rgb(0,0,0);" transform="rotate(295.2,2025.1,404.3)" >R<tspan baseline-shift="-40%" font-size="90%">s</tspan>caffold<tspan baseline-shift="-40%" font-size="90%">2</tspan>8</text>
<line x1='1973.9' y1='479.7' x2='1982.3' y2='461.6' style="stroke-width:4.0;stroke:rgb(0,0,0);stroke-linecap:round;fill:none;" />
<text x="1992.4" y="455.2" font-size="18.2px" font-family="CMUBright-Roman" style="text-anchor:start;fill:rgb(0,0,0);" transform="rotate(294.9,1992.4,455.2)" >0</text>
<g id="highlighttrack_0">
<path d="M1952.868,525.046 A1075.000,1075.000 40.000 0,1 1961.133,528.928 L1982.581,483.762 A1125.000,1125.000 0.000 0,0 1973.931,479.699 Z" style="stroke-width:4.0;stroke:rgb(0,0,0);stroke-linecap:round;fill:rgb(116,196,118);" />
</g>
<path d="M2018.382,558.243 A1075.000,1075.000 40.000 0,1 2022.920,560.756 L2047.242,517.070 A1125.000,1125.000 0.000 0,0 2042.492,514.441 Z" style="stroke-linecap:round;fill:rgb(116,196,118);fill-opacity:0.33;" />
<text x="2096.8" y="441.6" font-size="18.2px" font-family="CMUBright-Roman" style="text-anchor:start;fill:rgb(0,0,0);" transform="rotate(299.0,2096.8,441.6)" >R<tspan baseline-shift="-40%" font-size="90%">s</tspan>caffold<tspan baseline-shift="-40%" font-size="90%">3</tspan>0</text>
<line x1='2042.5' y1='514.4' x2='2052.1' y2='496.9' style="stroke-width:4.0;stroke:rgb(0,0,0);stroke-linecap:round;fill:none;" />
<text x="2062.6" y="491.3" font-size="18.2px" font-family="CMUBright-Roman" style="text-anchor:start;fill:rgb(0,0,0);" transform="rotate(298.8,2062.6,491.3)" >0</text>
<g id="highlighttrack_0">
<path d="M2018.438,558.275 A1075.000,1075.000 40.000 0,1 2021.749,560.105 L2046.017,516.389 A1125.000,1125.000 0.000 0,0 2042.552,514.473 Z" style="stroke-width:4.0;stroke:rgb(0,0,0);stroke-linecap:round;fill:rgb(116,196,118);" />
</g>
<path d="M2078.155,593.710 A1075.000,1075.000 40.000 1,1 1435.711,426.924 L1432.720,377.014 A1125.000,1125.000 0.000 1,0 2105.046,551.557 Z" style="stroke-linecap:round;fill:rgb(116,196,118);fill-opacity:0.33;" />
<text x="1203.9" y="2678.4" font-size="18.2px" font-family="CMUBright-Roman" style="text-anchor:end;fill:rgb(0,0,0);" transform="rotate(-75.4,1203.9,2678.4)" >NC<tspan baseline-shift="-40%" font-size="90%">0</tspan>09092.1</text>
<line x1='2105.0' y1='551.6' x2='2115.8' y2='534.7' style="stroke-width:4.0;stroke:rgb(0,0,0);stroke-linecap:round;fill:none;" />
<text x="2126.7" y="529.8" font-size="18.2px" font-family="CMUBright-Roman" style="text-anchor:start;fill:rgb(0,0,0);" transform="rotate(302.5,2126.7,529.8)" >0</text>
<line x1='2162.1' y1='590.5' x2='2173.9' y2='574.3' style="stroke-width:4.0;stroke:rgb(0,0,0);stroke-linecap:round;fill:none;" />
<text x="2185.0" y="570.1" font-size="18.2px" font-family="CMUBright-Roman" style="text-anchor:start;fill:rgb(0,0,0);" transform="rotate(306.1,2185.0,570.1)" >50</text>
<line x1='2216.7' y1='632.9' x2='2229.5' y2='617.5' style="stroke-width:4.0;stroke:rgb(0,0,0);stroke-linecap:round;fill:none;" />
<text x="2240.8" y="613.9" font-size="18.2px" font-family="CMUBright-Roman" style="text-anchor:start;fill:rgb(0,0,0);" transform="rotate(309.6,2240.8,613.9)" >100</text>
<line x1='2268.6' y1='678.5' x2='2282.3' y2='663.9' style="stroke-width:4.0;stroke:rgb(0,0,0);stroke-linecap:round;fill:none;" />
<text x="2293.9" y="661.1" font-size="18.2px" font-family="CMUBright-Roman" style="text-anchor:start;fill:rgb(0,0,0);" transform="rotate(313.1,2293.9,661.1)" >150</text>
<line x1='2317.6' y1='727.3' x2='2332.1' y2='713.5' style="stroke-width:4.0;stroke:rgb(0,0,0);stroke-linecap:round;fill:none;" />
<text x="2343.9" y="711.4" font-size="18.2px" font-family="CMUBright-Roman" style="text-anchor:start;fill:rgb(0,0,0);" transform="rotate(316.6,2343.9,711.4)" >200</text>
<line x1='2363.5' y1='778.9' x2='2378.9' y2='766.1' style="stroke-width:4.0;stroke:rgb(0,0,0);stroke-linecap:round;fill:none;" />
<text x="2390.7" y="764.7" font-size="18.2px" font-family="CMUBright-Roman" style="text-anchor:start;fill:rgb(0,0,0);" transform="rotate(320.1,2390.7,764.7)" >250</text>
<line x1='2406.2' y1='833.3' x2='2422.3' y2='821.4' style="stroke-width:4.0;stroke:rgb(0,0,0);stroke-linecap:round;fill:none;" />
<text x="2434.2" y="820.8" font-size="18.2px" font-family="CMUBright-Roman" style="text-anchor:start;fill:rgb(0,0,0);" transform="rotate(323.7,2434.2,820.8)" >300</text>
<line x1='2445.4' y1='890.2' x2='2462.2' y2='879.3' style="stroke-width:4.0;stroke:rgb(0,0,0);stroke-linecap:round;fill:none;" />
<text x="2474.1" y="879.4" font-size="18.2px" font-family="CMUBright-Roman" style="text-anchor:start;fill:rgb(0,0,0);" transform="rotate(327.2,2474.1,879.4)" >350</text>
<line x1='2481.0' y1='949.4' x2='2498.5' y2='939.6' style="stroke-width:4.0;stroke:rgb(0,0,0);stroke-linecap:round;fill:none;" />
<text x="2510.4" y="940.4" font-size="18.2px" font-family="CMUBright-Roman" style="text-anchor:start;fill:rgb(0,0,0);" transform="rotate(330.7,2510.4,940.4)" >400</text>
<line x1='2513.0' y1='1010.7' x2='2531.0' y2='1002.0' style="stroke-width:4.0;stroke:rgb(0,0,0);stroke-linecap:round;fill:none;" />
<text x="2542.8" y="1003.5" font-size="18.2px" font-family="CMUBright-Roman" style="text-anchor:start;fill:rgb(0,0,0);" transform="rotate(334.2,2542.8,1003.5)" >450</text>
<line x1='2541.1' y1='1073.8' x2='2559.6' y2='1066.2' style="stroke-width:4.0;stroke:rgb(0,0,0);stroke-linecap:round;fill:none;" />
<text x="2571.3" y="1068.4" font-size="18.2px" font-family="CMUBright-Roman" style="text-anchor:start;fill:rgb(0,0,0);" transform="rotate(337.7,2571.3,1068.4)" >500</text>
<line x1='2565.3' y1='1138.5' x2='2584.3' y2='1132.1' style="stroke-width:4.0;stroke:rgb(0,0,0);stroke-linecap:round;fill:none;" />
<text x="2595.8" y="1135.0" font-size="18.2px" font-family="CMUBright-Roman" style="text-anchor:start;fill:rgb(0,0,0);" transform="rotate(341.3,2595.8,1135.0)" >550</text>
<line x1='2585.5' y1='1204.6' x2='2604.8' y2='1199.4' style="stroke-width:4.0;stroke:rgb(0,0,0);stroke-linecap:round;fill:none;" />
<text x="2616.2" y="1203.0" font-size="18.2px" font-family="CMUBright-Roman" style="text-anchor:start;fill:rgb(0,0,0);" transform="rotate(344.8,2616.2,1203.0)" >600</text>
<line x1='2601.6' y1='1271.8' x2='2621.2' y2='1267.8' style="stroke-width:4.0;stroke:rgb(0,0,0);stroke-linecap:round;fill:none;" />
<text x="2632.3" y="1272.1" font-size="18.2px" font-family="CMUBright-Roman" style="text-anchor:start;fill:rgb(0,0,0);" transform="rotate(348.3,2632.3,1272.1)" >650</text>
<line x1='2613.5' y1='1339.9' x2='2633.3' y2='1337.0' style="stroke-width:4.0;stroke:rgb(0,0,0);stroke-linecap:round;fill:none;" />
<text x="2644.1" y="1342.0" font-size="18.2px" font-family="CMUBright-Roman" style="text-anchor:start;fill:rgb(0,0,0);" transform="rotate(351.8,2644.1,1342.0)" >700</text>
<line x1='2621.3' y1='1408.6' x2='2641.2' y2='1406.9' style="stroke-width:4.0;stroke:rgb(0,0,0);stroke-linecap:round;fill:none;" />
<text x="2651.7" y="1412.6" font-size="18.2px" font-family="CMUBright-Roman" style="text-anchor:start;fill:rgb(0,0,0);" transform="rotate(355.3,2651.7,1412.6)" >750</text>
<line x1='2624.8' y1='1477.6' x2='2644.8' y2='1477.2' style="stroke-width:4.0;stroke:rgb(0,0,0);stroke-linecap:round;fill:none;" />
<text x="2654.9" y="1483.5" font-size="18.2px" font-family="CMUBright-Roman" style="text-anchor:start;fill:rgb(0,0,0);" transform="rotate(358.9,2654.9,1483.5)" >800</text>
<line x1='2624.0' y1='1546.7' x2='2644.0' y2='1547.5' style="stroke-width:4.0;stroke:rgb(0,0,0);stroke-linecap:round;fill:none;" />
<text x="2653.7" y="1554.4" font-size="18.2px" font-family="CMUBright-Roman" style="text-anchor:start;fill:rgb(0,0,0);" transform="rotate(2.4,2653.7,1554.4)" >850</text>
<line x1='2619.0' y1='1615.6' x2='2638.9' y2='1617.7' style="stroke-width:4.0;stroke:rgb(0,0,0);stroke-linecap:round;fill:none;" />
<text x="2648.2" y="1625.1" font-size="18.2px" font-family="CMUBright-Roman" style="text-anchor:start;fill:rgb(0,0,0);" transform="rotate(5.9,2648.2,1625.1)" >900</text>
<line x1='2609.8' y1='1684.1' x2='2629.6' y2='1687.4' style="stroke-width:4.0;stroke:rgb(0,0,0);stroke-linecap:round;fill:none;" />
<text x="2638.3" y="1695.4" font-size="18.2px" font-family="CMUBright-Roman" style="text-anchor:start;fill:rgb(0,0,0);" transform="rotate(9.4,2638.3,1695.4)" >950</text>
<line x1='2596.4' y1='1751.9' x2='2615.9' y2='1756.4' style="stroke-width:4.0;stroke:rgb(0,0,0);stroke-linecap:round;fill:none;" />
<text x="2624.2" y="1764.9" font-size="18.2px" font-family="CMUBright-Roman" style="text-anchor:start;fill:rgb(0,0,0);" transform="rotate(12.9,2624.2,1764.9)" >1000</text>
<line x1='2578.9' y1='1818.7' x2='2598.1' y2='1824.4' style="stroke-width:4.0;stroke:rgb(0,0,0);stroke-linecap:round;fill:none;" />
<text x="2605.8" y="1833.5" font-size="18.2px" font-family="CMUBright-Roman" style="text-anchor:start;fill:rgb(0,0,0);" transform="rotate(16.5,2605.8,1833.5)" >1050</text>
<line x1='2557.3' y1='1884.4' x2='2576.1' y2='1891.2' style="stroke-width:4.0;stroke:rgb(0,0,0);stroke-linecap:round;fill:none;" />
<text x="2583.3" y="1900.7" font-size="18.2px" font-family="CMUBright-Roman" style="text-anchor:start;fill:rgb(0,0,0);" transform="rotate(20.0,2583.3,1900.7)" >1100</text>
<line x1='2531.7' y1='1948.6' x2='2550.0' y2='1956.5' style="stroke-width:4.0;stroke:rgb(0,0,0);stroke-linecap:round;fill:none;" />
<text x="2556.6" y="1966.5" font-size="18.2px" font-family="CMUBright-Roman" style="text-anchor:start;fill:rgb(0,0,0);" transform="rotate(23.5,2556.6,1966.5)" >1150</text>
<line x1='2502.2' y1='2011.1' x2='2520.0' y2='2020.2' style="stroke-width:4.0;stroke:rgb(0,0,0);stroke-linecap:round;fill:none;" />
<text x="2526.0" y="2030.5" font-size="18.2px" font-family="CMUBright-Roman" style="text-anchor:start;fill:rgb(0,0,0);" transform="rotate(27.0,2526.0,2030.5)" >1200</text>
<line x1='2468.9' y1='2071.6' x2='2486.2' y2='2081.8' style="stroke-width:4.0;stroke:rgb(0,0,0);stroke-linecap:round;fill:none;" />
<text x="2491.5" y="2092.5" font-size="18.2px" font-family="CMUBright-Roman" style="text-anchor:start;fill:rgb(0,0,0);" transform="rotate(30.5,2491.5,2092.5)" >1250</text>
<line x1='2432.0' y1='2130.1' x2='2448.6' y2='2141.3' style="stroke-width:4.0;stroke:rgb(0,0,0);stroke-linecap:round;fill:none;" />
<text x="2453.2" y="2152.2" font-size="18.2px" font-family="CMUBright-Roman" style="text-anchor:start;fill:rgb(0,0,0);" transform="rotate(34.1,2453.2,2152.2)" >1300</text>
<line x1='2391.6' y1='2186.1' x2='2407.4' y2='2198.3' style="stroke-width:4.0;stroke:rgb(0,0,0);stroke-linecap:round;fill:none;" />
<text x="2411.4" y="2209.5" font-size="18.2px" font-family="CMUBright-Roman" style="text-anchor:start;fill:rgb(0,0,0);" transform="rotate(37.6,2411.4,2209.5)" >1350</text>
<line x1='2347.8' y1='2239.5' x2='2362.8' y2='2252.7' style="stroke-width:4.0;stroke:rgb(0,0,0);stroke-linecap:round;fill:none;" />
<text x="2366.1" y="2264.1" font-size="18.2px" font-family="CMUBright-Roman" style="text-anchor:start;fill:rgb(0,0,0);" transform="rotate(41.1,2366.1,2264.1)" >1400</text>
<line x1='2300.8' y1='2290.2' x2='2315.0' y2='2304.2' style="stroke-width:4.0;stroke:rgb(0,0,0);stroke-linecap:round;fill:none;" />
<text x="2317.5" y="2315.9" font-size="18.2px" font-family="CMUBright-Roman" style="text-anchor:start;fill:rgb(0,0,0);" transform="rotate(44.6,2317.5,2315.9)" >1450</text>
<line x1='2250.7' y1='2337.9' x2='2264.1' y2='2352.8' style="stroke-width:4.0;stroke:rgb(0,0,0);stroke-linecap:round;fill:none;" />
<text x="2265.9" y="2364.5" font-size="18.2px" font-family="CMUBright-Roman" style="text-anchor:start;fill:rgb(0,0,0);" transform="rotate(48.1,2265.9,2364.5)" >1500</text>
<line x1='2197.9' y1='2382.4' x2='2210.3' y2='2398.1' style="stroke-width:4.0;stroke:rgb(0,0,0);stroke-linecap:round;fill:none;" />
<text x="2211.4" y="2409.9" font-size="18.2px" font-family="CMUBright-Roman" style="text-anchor:start;fill:rgb(0,0,0);" transform="rotate(51.7,2211.4,2409.9)" >1550</text>
<line x1='2142.4' y1='2423.6' x2='2153.8' y2='2440.0' style="stroke-width:4.0;stroke:rgb(0,0,0);stroke-linecap:round;fill:none;" />
<text x="2154.2" y="2451.9" font-size="18.2px" font-family="CMUBright-Roman" style="text-anchor:start;fill:rgb(0,0,0);" transform="rotate(55.2,2154.2,2451.9)" >1600</text>
<line x1='2084.5' y1='2461.3' x2='2094.8' y2='2478.4' style="stroke-width:4.0;stroke:rgb(0,0,0);stroke-linecap:round;fill:none;" />
<text x="2094.5" y="2490.3" font-size="18.2px" font-family="CMUBright-Roman" style="text-anchor:start;fill:rgb(0,0,0);" transform="rotate(58.7,2094.5,2490.3)" >1650</text>
<line x1='2024.3' y1='2495.3' x2='2033.7' y2='2513.0' style="stroke-width:4.0;stroke:rgb(0,0,0);stroke-linecap:round;fill:none;" />
<text x="2032.6" y="2524.9" font-size="18.2px" font-family="CMUBright-Roman" style="text-anchor:start;fill:rgb(0,0,0);" transform="rotate(62.2,2032.6,2524.9)" >1700</text>
<line x1='1962.2' y1='2525.7' x2='1970.4' y2='2543.9' style="stroke-width:4.0;stroke:rgb(0,0,0);stroke-linecap:round;fill:none;" />
<text x="1968.6" y="2555.7" font-size="18.2px" font-family="CMUBright-Roman" style="text-anchor:start;fill:rgb(0,0,0);" transform="rotate(65.7,1968.6,2555.7)" >1750</text>
<line x1='1898.4' y1='2552.1' x2='1905.5' y2='2570.8' style="stroke-width:4.0;stroke:rgb(0,0,0);stroke-linecap:round;fill:none;" />
<text x="1902.9" y="2582.4" font-size="18.2px" font-family="CMUBright-Roman" style="text-anchor:start;fill:rgb(0,0,0);" transform="rotate(69.3,1902.9,2582.4)" >1800</text>
<line x1='1833.0' y1='2574.6' x2='1839.0' y2='2593.7' style="stroke-width:4.0;stroke:rgb(0,0,0);stroke-linecap:round;fill:none;" />
<text x="1835.7" y="2605.1" font-size="18.2px" font-family="CMUBright-Roman" style="text-anchor:start;fill:rgb(0,0,0);" transform="rotate(72.8,1835.7,2605.1)" >1850</text>
<line x1='1766.4' y1='2593.0' x2='1771.2' y2='2612.4' style="stroke-width:4.0;stroke:rgb(0,0,0);stroke-linecap:round;fill:none;" />
<text x="1767.2" y="2623.7" font-size="18.2px" font-family="CMUBright-Roman" style="text-anchor:start;fill:rgb(0,0,0);" transform="rotate(76.3,1767.2,2623.7)" >1900</text>
<line x1='1698.8' y1='2607.3' x2='1702.3' y2='2627.0' style="stroke-width:4.0;stroke:rgb(0,0,0);stroke-linecap:round;fill:none;" />
<text x="1697.7" y="2638.0" font-size="18.2px" font-family="CMUBright-Roman" style="text-anchor:start;fill:rgb(0,0,0);" transform="rotate(79.8,1697.7,2638.0)" >1950</text>
<line x1='1630.5' y1='2617.4' x2='1632.8' y2='2637.3' style="stroke-width:4.0;stroke:rgb(0,0,0);stroke-linecap:round;fill:none;" />
<text x="1627.5" y="2647.9" font-size="18.2px" font-family="CMUBright-Roman" style="text-anchor:start;fill:rgb(0,0,0);" transform="rotate(83.3,1627.5,2647.9)" >2000</text>
<line x1='1561.6' y1='2623.3' x2='1562.7' y2='2643.3' style="stroke-width:4.0;stroke:rgb(0,0,0);stroke-linecap:round;fill:none;" />
<text x="1556.7" y="2653.6" font-size="18.2px" font-family="CMUBright-Roman" style="text-anchor:start;fill:rgb(0,0,0);" transform="rotate(86.9,1556.7,2653.6)" >2050</text>
<line x1='1492.5' y1='2625.0' x2='1492.4' y2='2645.0' style="stroke-width:4.0;stroke:rgb(0,0,0);stroke-linecap:round;fill:none;" />
<text x="1498.8" y="2655.0" font-size="18.2px" font-family="CMUBright-Roman" style="text-anchor:end;fill:rgb(0,0,0);" transform="rotate(-89.6,1498.8,2655.0)" >2100</text>
<line x1='1423.5' y1='2622.4' x2='1422.1' y2='2642.3' style="stroke-width:4.0;stroke:rgb(0,0,0);stroke-linecap:round;fill:none;" />
<text x="1427.9" y="2652.7" font-size="18.2px" font-family="CMUBright-Roman" style="text-anchor:end;fill:rgb(0,0,0);" transform="rotate(-86.1,1427.9,2652.7)" >2150</text>
<line x1='1354.7' y1='2615.6' x2='1352.1' y2='2635.4' style="stroke-width:4.0;stroke:rgb(0,0,0);stroke-linecap:round;fill:none;" />
<text x="1357.3" y="2646.1" font-size="18.2px" font-family="CMUBright-Roman" style="text-anchor:end;fill:rgb(0,0,0);" transform="rotate(-82.6,1357.3,2646.1)" >2200</text>
<line x1='1286.5' y1='2604.5' x2='1282.7' y2='2624.2' style="stroke-width:4.0;stroke:rgb(0,0,0);stroke-linecap:round;fill:none;" />
<text x="1287.2" y="2635.2" font-size="18.2px" font-family="CMUBright-Roman" style="text-anchor:end;fill:rgb(0,0,0);" transform="rotate(-79.1,1287.2,2635.2)" >2250</text>
<line x1='1219.0' y1='2589.4' x2='1214.0' y2='2608.7' style="stroke-width:4.0;stroke:rgb(0,0,0);stroke-linecap:round;fill:none;" />
<text x="1217.9" y="2620.0" font-size="18.2px" font-family="CMUBright-Roman" style="text-anchor:end;fill:rgb(0,0,0);" transform="rotate(-75.5,1217.9,2620.0)" >2300</text>
<line x1='1152.7' y1='2570.0' x2='1146.5' y2='2589.1' style="stroke-width:4.0;stroke:rgb(0,0,0);stroke-linecap:round;fill:none;" />
<text x="1149.6" y="2600.6" font-size="18.2px" font-family="CMUBright-Roman" style="text-anchor:end;fill:rgb(0,0,0);" transform="rotate(-72.0,1149.6,2600.6)" >2350</text>
<line x1='1087.6' y1='2546.7' x2='1080.3' y2='2565.3' style="stroke-width:4.0;stroke:rgb(0,0,0);stroke-linecap:round;fill:none;" />
<text x="1082.7" y="2577.0" font-size="18.2px" font-family="CMUBright-Roman" style="text-anchor:end;fill:rgb(0,0,0);" transform="rotate(-68.5,1082.7,2577.0)" >2400</text>
<line x1='1024.2' y1='2519.4' x2='1015.7' y2='2537.5' style="stroke-width:4.0;stroke:rgb(0,0,0);stroke-linecap:round;fill:none;" />
<text x="1017.4" y="2549.3" font-size="18.2px" font-family="CMUBright-Roman" style="text-anchor:end;fill:rgb(0,0,0);" transform="rotate(-65.0,1017.4,2549.3)" >2450</text>
<line x1='962.5' y1='2488.3' x2='952.9' y2='2505.8' style="stroke-width:4.0;stroke:rgb(0,0,0);stroke-linecap:round;fill:none;" />
<text x="953.8" y="2517.7" font-size="18.2px" font-family="CMUBright-Roman" style="text-anchor:end;fill:rgb(0,0,0);" transform="rotate(-61.5,953.8,2517.7)" >2500</text>
<line x1='902.8' y1='2453.4' x2='892.2' y2='2470.3' style="stroke-width:4.0;stroke:rgb(0,0,0);stroke-linecap:round;fill:none;" />
<text x="892.4" y="2482.3" font-size="18.2px" font-family="CMUBright-Roman" style="text-anchor:end;fill:rgb(0,0,0);" transform="rotate(-57.9,892.4,2482.3)" >2550</text>
<line x1='845.4' y1='2414.9' x2='833.7' y2='2431.2' style="stroke-width:4.0;stroke:rgb(0,0,0);stroke-linecap:round;fill:none;" />
<text x="833.2" y="2443.1" font-size="18.2px" font-family="CMUBright-Roman" style="text-anchor:end;fill:rgb(0,0,0);" transform="rotate(-54.4,833.2,2443.1)" >2600</text>
<line x1='790.4' y1='2373.0' x2='777.8' y2='2388.5' style="stroke-width:4.0;stroke:rgb(0,0,0);stroke-linecap:round;fill:none;" />
<text x="776.6" y="2400.4" font-size="18.2px" font-family="CMUBright-Roman" style="text-anchor:end;fill:rgb(0,0,0);" transform="rotate(-50.9,776.6,2400.4)" >2650</text>
<line x1='738.2' y1='2327.8' x2='724.6' y2='2342.5' style="stroke-width:4.0;stroke:rgb(0,0,0);stroke-linecap:round;fill:none;" />
<text x="722.7" y="2354.3" font-size="18.2px" font-family="CMUBright-Roman" style="text-anchor:end;fill:rgb(0,0,0);" transform="rotate(-47.4,722.7,2354.3)" >2700</text>
<line x1='688.8' y1='2279.5' x2='674.4' y2='2293.3' style="stroke-width:4.0;stroke:rgb(0,0,0);stroke-linecap:round;fill:none;" />
<text x="671.7" y="2304.9" font-size="18.2px" font-family="CMUBright-Roman" style="text-anchor:end;fill:rgb(0,0,0);" transform="rotate(-43.9,671.7,2304.9)" >2750</text>
<line x1='642.5' y1='2228.2' x2='627.2' y2='2241.1' style="stroke-width:4.0;stroke:rgb(0,0,0);stroke-linecap:round;fill:none;" />
<text x="623.8" y="2252.5" font-size="18.2px" font-family="CMUBright-Roman" style="text-anchor:end;fill:rgb(0,0,0);" transform="rotate(-40.3,623.8,2252.5)" >2800</text>
<line x1='599.4' y1='2174.2' x2='583.4' y2='2186.1' style="stroke-width:4.0;stroke:rgb(0,0,0);stroke-linecap:round;fill:none;" />
<text x="579.3" y="2197.3" font-size="18.2px" font-family="CMUBright-Roman" style="text-anchor:end;fill:rgb(0,0,0);" transform="rotate(-36.8,579.3,2197.3)" >2850</text>
<line x1='559.7' y1='2117.6' x2='543.0' y2='2128.6' style="stroke-width:4.0;stroke:rgb(0,0,0);stroke-linecap:round;fill:none;" />
<text x="538.2" y="2139.5" font-size="18.2px" font-family="CMUBright-Roman" style="text-anchor:end;fill:rgb(0,0,0);" transform="rotate(-33.3,538.2,2139.5)" >2900</text>
<line x1='523.5' y1='2058.7' x2='506.2' y2='2068.6' style="stroke-width:4.0;stroke:rgb(0,0,0);stroke-linecap:round;fill:none;" />
<text x="500.7" y="2079.2" font-size="18.2px" font-family="CMUBright-Roman" style="text-anchor:end;fill:rgb(0,0,0);" transform="rotate(-29.8,500.7,2079.2)" >2950</text>
<line x1='491.1' y1='1997.7' x2='473.1' y2='2006.5' style="stroke-width:4.0;stroke:rgb(0,0,0);stroke-linecap:round;fill:none;" />
<text x="467.1" y="2016.8" font-size="18.2px" font-family="CMUBright-Roman" style="text-anchor:end;fill:rgb(0,0,0);" transform="rotate(-26.3,467.1,2016.8)" >3000</text>
<line x1='462.4' y1='1934.8' x2='444.0' y2='1942.5' style="stroke-width:4.0;stroke:rgb(0,0,0);stroke-linecap:round;fill:none;" />
<text x="437.3" y="1952.4" font-size="18.2px" font-family="CMUBright-Roman" style="text-anchor:end;fill:rgb(0,0,0);" transform="rotate(-22.7,437.3,1952.4)" >3050</text>
<line x1='437.7' y1='1870.3' x2='418.8' y2='1876.8' style="stroke-width:4.0;stroke:rgb(0,0,0);stroke-linecap:round;fill:none;" />
<text x="411.5" y="1886.3" font-size="18.2px" font-family="CMUBright-Roman" style="text-anchor:end;fill:rgb(0,0,0);" transform="rotate(-19.2,411.5,1886.3)" >3100</text>
<line x1='416.9' y1='1804.3' x2='397.7' y2='1809.8' style="stroke-width:4.0;stroke:rgb(0,0,0);stroke-linecap:round;fill:none;" />
<text x="389.8" y="1818.7" font-size="18.2px" font-family="CMUBright-Roman" style="text-anchor:end;fill:rgb(0,0,0);" transform="rotate(-15.7,389.8,1818.7)" >3150</text>
<line x1='400.3' y1='1737.3' x2='380.8' y2='1741.5' style="stroke-width:4.0;stroke:rgb(0,0,0);stroke-linecap:round;fill:none;" />
<text x="372.4" y="1749.9" font-size="18.2px" font-family="CMUBright-Roman" style="text-anchor:end;fill:rgb(0,0,0);" transform="rotate(-12.2,372.4,1749.9)" >3200</text>
<line x1='387.8' y1='1669.3' x2='368.0' y2='1672.3' style="stroke-width:4.0;stroke:rgb(0,0,0);stroke-linecap:round;fill:none;" />
<text x="359.1" y="1680.2" font-size="18.2px" font-family="CMUBright-Roman" style="text-anchor:end;fill:rgb(0,0,0);" transform="rotate(-8.7,359.1,1680.2)" >3250</text>
<line x1='379.5' y1='1600.7' x2='359.6' y2='1602.5' style="stroke-width:4.0;stroke:rgb(0,0,0);stroke-linecap:round;fill:none;" />
<text x="350.2" y="1609.8" font-size="18.2px" font-family="CMUBright-Roman" style="text-anchor:end;fill:rgb(0,0,0);" transform="rotate(-5.1,350.2,1609.8)" >3300</text>
<line x1='375.4' y1='1531.7' x2='355.5' y2='1532.3' style="stroke-width:4.0;stroke:rgb(0,0,0);stroke-linecap:round;fill:none;" />
<text x="345.7" y="1539.0" font-size="18.2px" font-family="CMUBright-Roman" style="text-anchor:end;fill:rgb(0,0,0);" transform="rotate(-1.6,345.7,1539.0)" >3350</text>
<line x1='375.6' y1='1462.6' x2='355.6' y2='1461.9' style="stroke-width:4.0;stroke:rgb(0,0,0);stroke-linecap:round;fill:none;" />
<text x="345.4" y="1468.1" font-size="18.2px" font-family="CMUBright-Roman" style="text-anchor:end;fill:rgb(0,0,0);" transform="rotate(1.9,345.4,1468.1)" >3400</text>
<line x1='380.0' y1='1393.6' x2='360.1' y2='1391.7' style="stroke-width:4.0;stroke:rgb(0,0,0);stroke-linecap:round;fill:none;" />
<text x="349.6" y="1397.3" font-size="18.2px" font-family="CMUBright-Roman" style="text-anchor:end;fill:rgb(0,0,0);" transform="rotate(5.4,349.6,1397.3)" >3450</text>
<line x1='388.7' y1='1325.1' x2='368.9' y2='1322.0' style="stroke-width:4.0;stroke:rgb(0,0,0);stroke-linecap:round;fill:none;" />
<text x="358.1" y="1326.8" font-size="18.2px" font-family="CMUBright-Roman" style="text-anchor:end;fill:rgb(0,0,0);" transform="rotate(8.9,358.1,1326.8)" >3500</text>
<line x1='401.5' y1='1257.2' x2='382.0' y2='1252.8' style="stroke-width:4.0;stroke:rgb(0,0,0);stroke-linecap:round;fill:none;" />
<text x="370.8" y="1257.0" font-size="18.2px" font-family="CMUBright-Roman" style="text-anchor:end;fill:rgb(0,0,0);" transform="rotate(12.5,370.8,1257.0)" >3550</text>
<line x1='418.5' y1='1190.2' x2='399.3' y2='1184.7' style="stroke-width:4.0;stroke:rgb(0,0,0);stroke-linecap:round;fill:none;" />
<text x="387.9" y="1188.2" font-size="18.2px" font-family="CMUBright-Roman" style="text-anchor:end;fill:rgb(0,0,0);" transform="rotate(16.0,387.9,1188.2)" >3600</text>
<line x1='439.6' y1='1124.4' x2='420.7' y2='1117.7' style="stroke-width:4.0;stroke:rgb(0,0,0);stroke-linecap:round;fill:none;" />
<text x="409.1" y="1120.5" font-size="18.2px" font-family="CMUBright-Roman" style="text-anchor:end;fill:rgb(0,0,0);" transform="rotate(19.5,409.1,1120.5)" >3650</text>
<line x1='464.6' y1='1060.0' x2='446.2' y2='1052.1' style="stroke-width:4.0;stroke:rgb(0,0,0);stroke-linecap:round;fill:none;" />
<text x="434.5" y="1054.2" font-size="18.2px" font-family="CMUBright-Roman" style="text-anchor:end;fill:rgb(0,0,0);" transform="rotate(23.0,434.5,1054.2)" >3700</text>
<line x1='493.6' y1='997.2' x2='475.7' y2='988.3' style="stroke-width:4.0;stroke:rgb(0,0,0);stroke-linecap:round;fill:none;" />
<text x="463.9" y="989.6" font-size="18.2px" font-family="CMUBright-Roman" style="text-anchor:end;fill:rgb(0,0,0);" transform="rotate(26.5,463.9,989.6)" >3750</text>
<line x1='526.4' y1='936.4' x2='509.1' y2='926.4' style="stroke-width:4.0;stroke:rgb(0,0,0);stroke-linecap:round;fill:none;" />
<text x="497.2" y="927.0" font-size="18.2px" font-family="CMUBright-Roman" style="text-anchor:end;fill:rgb(0,0,0);" transform="rotate(30.1,497.2,927.0)" >3800</text>
<line x1='562.8' y1='877.7' x2='546.2' y2='866.6' style="stroke-width:4.0;stroke:rgb(0,0,0);stroke-linecap:round;fill:none;" />
<text x="534.2" y="866.5" font-size="18.2px" font-family="CMUBright-Roman" style="text-anchor:end;fill:rgb(0,0,0);" transform="rotate(33.6,534.2,866.5)" >3850</text>
<line x1='602.8' y1='821.3' x2='586.8' y2='809.2' style="stroke-width:4.0;stroke:rgb(0,0,0);stroke-linecap:round;fill:none;" />
<text x="575.0" y="808.4" font-size="18.2px" font-family="CMUBright-Roman" style="text-anchor:end;fill:rgb(0,0,0);" transform="rotate(37.1,575.0,808.4)" >3900</text>
<line x1='646.2' y1='767.5' x2='631.0' y2='754.5' style="stroke-width:4.0;stroke:rgb(0,0,0);stroke-linecap:round;fill:none;" />
<text x="619.2" y="752.9" font-size="18.2px" font-family="CMUBright-Roman" style="text-anchor:end;fill:rgb(0,0,0);" transform="rotate(40.6,619.2,752.9)" >3950</text>
<line x1='692.8' y1='716.4' x2='678.4' y2='702.5' style="stroke-width:4.0;stroke:rgb(0,0,0);stroke-linecap:round;fill:none;" />
<text x="666.7" y="700.2" font-size="18.2px" font-family="CMUBright-Roman" style="text-anchor:end;fill:rgb(0,0,0);" transform="rotate(44.1,666.7,700.2)" >4000</text>
<line x1='742.4' y1='668.3' x2='728.9' y2='653.6' style="stroke-width:4.0;stroke:rgb(0,0,0);stroke-linecap:round;fill:none;" />
<text x="717.4" y="650.6" font-size="18.2px" font-family="CMUBright-Roman" style="text-anchor:end;fill:rgb(0,0,0);" transform="rotate(47.7,717.4,650.6)" >4050</text>
<line x1='794.9' y1='623.4' x2='782.3' y2='607.8' style="stroke-width:4.0;stroke:rgb(0,0,0);stroke-linecap:round;fill:none;" />
<text x="771.0" y="604.1" font-size="18.2px" font-family="CMUBright-Roman" style="text-anchor:end;fill:rgb(0,0,0);" transform="rotate(51.2,771.0,604.1)" >4100</text>
<line x1='850.0' y1='581.8' x2='838.5' y2='565.4' style="stroke-width:4.0;stroke:rgb(0,0,0);stroke-linecap:round;fill:none;" />
<text x="827.4" y="561.0" font-size="18.2px" font-family="CMUBright-Roman" style="text-anchor:end;fill:rgb(0,0,0);" transform="rotate(54.7,827.4,561.0)" >4150</text>
<line x1='907.6' y1='543.6' x2='897.1' y2='526.6' style="stroke-width:4.0;stroke:rgb(0,0,0);stroke-linecap:round;fill:none;" />
<text x="886.3" y="521.5" font-size="18.2px" font-family="CMUBright-Roman" style="text-anchor:end;fill:rgb(0,0,0);" transform="rotate(58.2,886.3,521.5)" >4200</text>
<line x1='967.5' y1='509.0' x2='958.0' y2='491.4' style="stroke-width:4.0;stroke:rgb(0,0,0);stroke-linecap:round;fill:none;" />
<text x="947.6" y="485.7" font-size="18.2px" font-family="CMUBright-Roman" style="text-anchor:end;fill:rgb(0,0,0);" transform="rotate(61.7,947.6,485.7)" >4250</text>
<line x1='1029.3' y1='478.2' x2='1021.0' y2='460.0' style="stroke-width:4.0;stroke:rgb(0,0,0);stroke-linecap:round;fill:none;" />
<text x="1010.9" y="453.7" font-size="18.2px" font-family="CMUBright-Roman" style="text-anchor:end;fill:rgb(0,0,0);" transform="rotate(65.3,1010.9,453.7)" >4300</text>
<line x1='1093.0' y1='451.2' x2='1085.7' y2='432.6' style="stroke-width:4.0;stroke:rgb(0,0,0);stroke-linecap:round;fill:none;" />
<text x="1076.0" y="425.6" font-size="18.2px" font-family="CMUBright-Roman" style="text-anchor:end;fill:rgb(0,0,0);" transform="rotate(68.8,1076.0,425.6)" >4350</text>
<line x1='1158.1' y1='428.2' x2='1152.0' y2='409.2' style="stroke-width:4.0;stroke:rgb(0,0,0);stroke-linecap:round;fill:none;" />
<text x="1142.8" y="401.6" font-size="18.2px" font-family="CMUBright-Roman" style="text-anchor:end;fill:rgb(0,0,0);" transform="rotate(72.3,1142.8,401.6)" >4400</text>
<line x1='1224.6' y1='409.2' x2='1219.7' y2='389.8' style="stroke-width:4.0;stroke:rgb(0,0,0);stroke-linecap:round;fill:none;" />
<text x="1210.9" y="381.8" font-size="18.2px" font-family="CMUBright-Roman" style="text-anchor:end;fill:rgb(0,0,0);" transform="rotate(75.8,1210.9,381.8)" >4450</text>
<line x1='1292.1' y1='394.4' x2='1288.4' y2='374.7' style="stroke-width:4.0;stroke:rgb(0,0,0);stroke-linecap:round;fill:none;" />
<text x="1280.1" y="366.1" font-size="18.2px" font-family="CMUBright-Roman" style="text-anchor:end;fill:rgb(0,0,0);" transform="rotate(79.3,1280.1,366.1)" >4500</text>
<line x1='1360.3' y1='383.7' x2='1357.9' y2='363.9' style="stroke-width:4.0;stroke:rgb(0,0,0);stroke-linecap:round;fill:none;" />
<text x="1350.2" y="354.8" font-size="18.2px" font-family="CMUBright-Roman" style="text-anchor:end;fill:rgb(0,0,0);" transform="rotate(82.9,1350.2,354.8)" >4550</text>
<line x1='1429.1' y1='377.2' x2='1427.9' y2='357.3' style="stroke-width:4.0;stroke:rgb(0,0,0);stroke-linecap:round;fill:none;" />
<text x="1420.8" y="347.7" font-size="18.2px" font-family="CMUBright-Roman" style="text-anchor:end;fill:rgb(0,0,0);" transform="rotate(86.4,1420.8,347.7)" >4600</text>
<g id="highlighttrack_0">
<path d="M2237.336,717.721 A1075.000,1075.000 40.000 0,1 2240.238,720.466 L2274.668,684.209 A1125.000,1125.000 0.000 0,0 2271.631,681.336 Z" style="stroke-width:4.0;stroke:rgb(0,0,0);stroke-linecap:round;fill:rgb(251,106,74);" />
<path d="M2285.823,766.443 A1075.000,1075.000 40.000 0,1 2288.544,769.368 L2325.220,735.385 A1125.000,1125.000 0.000 0,0 2322.373,732.324 Z" style="stroke-width:4.0;stroke:rgb(0,0,0);stroke-linecap:round;fill:rgb(251,106,74);" />
<path d="M723.238,2243.146 A1075.000,1075.000 40.000 0,1 720.482,2240.255 L684.226,2274.685 A1125.000,1125.000 0.000 0,0 687.110,2277.711 Z" style="stroke-width:4.0;stroke:rgb(0,0,0);stroke-linecap:round;fill:rgb(116,196,118);" />
<path d="M435.111,1352.909 A1075.000,1075.000 40.000 0,1 435.665,1348.953 L386.161,1341.928 A1125.000,1125.000 0.000 0,0 385.581,1346.068 Z" style="stroke-width:4.0;stroke:rgb(0,0,0);stroke-linecap:round;fill:rgb(116,196,118);" />
<path d="M839.185,652.091 A1075.000,1075.000 40.000 0,1 842.341,649.642 L811.752,610.090 A1125.000,1125.000 0.000 0,0 808.450,612.654 Z" style="stroke-width:4.0;stroke:rgb(0,0,0);stroke-linecap:round;fill:rgb(116,196,118);" />
<path d="M846.332,646.570 A1075.000,1075.000 40.000 0,1 849.507,644.148 L819.251,604.341 A1125.000,1125.000 0.000 0,0 815.929,606.875 Z" style="stroke-width:4.0;stroke:rgb(0,0,0);stroke-linecap:round;fill:rgb(116,196,118);" />
<path d="M1217.602,462.755 A1075.000,1075.000 40.000 0,1 1221.426,461.722 L1208.469,413.430 A1125.000,1125.000 0.000 0,0 1204.467,414.511 Z" style="stroke-width:4.0;stroke:rgb(0,0,0);stroke-linecap:round;fill:rgb(116,196,118);" />
<path d="M1347.306,435.900 A1075.000,1075.000 40.000 0,1 1351.261,435.340 L1344.342,385.821 A1125.000,1125.000 0.000 0,0 1340.204,386.407 Z" style="stroke-width:4.0;stroke:rgb(0,0,0);stroke-linecap:round;fill:rgb(116,196,118);" />
<path d="M2262.083,741.809 A1075.000,1075.000 40.000 0,1 2265.359,745.116 L2300.957,710.005 A1125.000,1125.000 0.000 0,0 2297.529,706.544 Z" style="stroke-width:4.0;stroke:rgb(0,0,0);stroke-linecap:round;fill:rgb(116,196,118);" />
</g>
</g>
<g id="track_0">
<path d="M 2229.963,725.544 A 1064.250,1064.250 0.00 0,1 2232.8,728.3 L 2232.8,728.3 2182.3,781.2 2135.4,830.0 2091.9,874.7 2051.6,915.7 2014.4,952.9 1980.1,986.8 1948.6,1017.3 1919.7,1044.7 1893.4,1069.1 1869.4,1090.6 1847.7,1109.3 1828.2,1125.3 1810.9,1138.8 1795.5,1149.7 1782.1,1158.2 1770.5,1164.3 1760.8,1168.1 1752.9,1169.4 1746.7,1168.5 1742.3,1165.2 1739.5,1159.6 1738.5,1151.6 1739.1,1141.3 1741.5,1128.4 1745.6,1113.1 1751.4,1095.1 1759.0,1074.5 1768.5,1051.1 1779.8,1024.8 1793.2,995.5 1808.5,963.1 1826.0,927.3 1845.7,888.1 1867.7,845.3 1892.1,798.6 1919.1,747.9 1948.7,693.0 1981.1,633.6 2016.5,569.5  A 1064.250,1064.250 0.00 0,0 2013.3,567.7 L 2013.3,567.7 1978.1,631.9 1945.9,691.4 1916.4,746.4 1889.6,797.2 1865.4,844.0 1843.5,886.9 1824.0,926.2 1806.6,962.0 1791.4,994.5 1778.2,1023.9 1766.9,1050.2 1757.5,1073.6 1749.9,1094.3 1744.2,1112.2 1740.1,1127.6 1737.8,1140.4 1737.2,1150.8 1738.3,1158.8 1741.1,1164.4 1745.5,1167.6 1751.7,1168.5 1759.6,1167.1 1769.3,1163.3 1780.8,1157.2 1794.2,1148.7 1809.5,1137.7 1826.9,1124.1 1846.3,1108.0 1867.9,1089.2 1891.8,1067.6 1918.0,1043.1 1946.8,1015.6 1978.2,985.0 2012.3,951.0 2049.4,913.6 2089.5,872.5 2132.9,827.6 2179.6,778.7 2230.0,725.5  Z" style="stroke-width: 2.0;  stroke: rgb(82,82,82); fill: rgb(251,106,74); opacity: 0.667;" />
<path d="M 2277.965,773.778 A 1064.250,1064.250 0.00 0,1 2280.7,776.7 L 2280.7,776.7 2226.8,826.3 2176.8,871.9 2130.3,913.6 2087.3,951.7 2047.5,986.4 2010.8,1017.7 1977.1,1045.9 1946.1,1071.1 1917.7,1093.4 1891.9,1112.9 1868.5,1129.8 1847.4,1144.2 1828.5,1156.0 1811.7,1165.4 1796.9,1172.5 1784.1,1177.3 1773.2,1179.8 1764.2,1180.1 1756.9,1178.0 1751.5,1173.8 1747.8,1167.2 1745.9,1158.4 1745.7,1147.2 1747.3,1133.6 1750.7,1117.6 1755.8,1099.0 1762.8,1077.8 1771.7,1053.9 1782.6,1027.2 1795.4,997.4 1810.3,964.6 1827.4,928.5 1846.7,889.0 1868.4,845.9 1892.6,799.0 1919.3,748.1 1948.8,693.1 1981.2,633.6 2016.5,569.5  A 1064.250,1064.250 0.00 0,0 2013.3,567.7 L 2013.3,567.7 1978.1,631.9 1946.0,691.5 1916.7,746.7 1890.1,797.6 1866.1,844.6 1844.6,887.8 1825.4,927.3 1808.4,963.5 1793.6,996.4 1780.9,1026.2 1770.2,1053.0 1761.4,1076.9 1754.4,1098.1 1749.3,1116.7 1746.0,1132.8 1744.5,1146.3 1744.7,1157.5 1746.6,1166.3 1750.3,1172.9 1755.8,1177.1 1763.0,1179.1 1772.0,1178.8 1782.9,1176.3 1795.7,1171.4 1810.4,1164.3 1827.2,1154.8 1846.1,1142.9 1867.1,1128.5 1890.5,1111.5 1916.2,1091.8 1944.5,1069.4 1975.4,1044.1 2009.0,1015.8 2045.6,984.3 2085.3,949.5 2128.1,911.3 2174.4,869.4 2224.3,823.6 2278.0,773.8  Z" style="stroke-width: 2.0;  stroke: rgb(82,82,82); fill: rgb(116,196,118); opacity: 0.667;" />
<path d="M 2277.965,773.778 A 1064.250,1064.250 0.00 0,1 2280.7,776.7 L 2280.7,776.7 2226.9,826.4 2177.2,872.3 2131.4,914.5 2089.1,953.3 2050.3,988.8 2014.9,1021.1 1982.5,1050.5 1953.1,1077.0 1926.6,1100.8 1902.8,1121.9 1881.6,1140.6 1862.9,1156.8 1846.6,1170.7 1832.7,1182.4 1821.0,1191.9 1811.6,1199.2 1804.3,1204.4 1799.1,1207.5 1796.0,1208.5 1795.1,1207.6 1796.2,1204.5 1799.3,1199.4 1804.6,1192.1 1812.0,1182.8 1821.6,1171.2 1833.5,1157.4 1847.6,1141.3 1864.1,1122.9 1883.0,1101.9 1904.4,1078.3 1928.5,1052.1 1955.4,1023.1 1985.1,991.1 2017.9,956.0 2053.9,917.6 2093.2,875.9 2136.0,830.5 2182.5,781.4 2232.8,728.3  A 1064.250,1064.250 0.00 0,0 2230.0,725.5 L 2230.0,725.5 2179.8,778.8 2133.5,828.1 2090.8,873.7 2051.7,915.6 2015.9,954.0 1983.2,989.3 1953.6,1021.4 1926.9,1050.5 1902.9,1076.8 1881.5,1100.5 1862.7,1121.5 1846.2,1140.1 1832.2,1156.2 1820.4,1170.0 1810.9,1181.6 1803.5,1191.0 1798.2,1198.3 1795.1,1203.4 1794.0,1206.5 1795.0,1207.4 1798.0,1206.4 1803.2,1203.2 1810.5,1198.0 1819.9,1190.7 1831.5,1181.2 1845.4,1169.5 1861.6,1155.5 1880.2,1139.2 1901.4,1120.4 1925.1,1099.2 1951.5,1075.3 1980.8,1048.7 2013.1,1019.2 2048.4,986.7 2087.1,951.1 2129.2,912.2 2174.9,869.8 2224.4,823.7 2278.0,773.8  Z" style="stroke-width: 2.0;  stroke: rgb(82,82,82); fill: rgb(107,174,214); opacity: 0.667;" />
<path d="M 731.006,2235.715 A 1064.250,1064.250 0.00 0,1 728.3,2232.9 L 728.3,2232.9 781.3,2180.8 830.3,2129.6 875.7,2079.3 917.8,2030.0 956.9,1981.7 993.5,1934.4 1027.8,1888.2 1060.1,1843.2 1090.7,1799.3 1119.9,1756.5 1147.9,1714.8 1175.1,1674.2 1201.5,1634.6 1227.4,1596.1 1253.0,1558.5 1278.5,1521.8 1304.1,1485.8 1329.8,1450.5 1355.9,1415.8 1382.4,1381.5 1409.5,1347.6 1437.2,1313.9 1465.7,1280.1 1494.9,1246.2 1524.9,1212.0 1555.7,1177.3 1587.4,1141.8 1619.9,1105.4 1653.2,1067.8 1687.4,1028.9 1722.2,988.2 1757.8,945.7 1793.9,901.0 1830.5,853.7 1867.5,803.7 1904.8,750.6 1942.1,694.1 1979.4,633.9 2016.5,569.5  A 1064.250,1064.250 0.00 0,0 2013.3,567.7 L 2013.3,567.7 1976.4,632.2 1939.3,692.6 1902.1,749.2 1865.1,802.4 1828.2,852.6 1791.8,899.9 1755.8,944.8 1720.4,987.5 1685.7,1028.2 1651.7,1067.3 1618.5,1105.0 1586.1,1141.5 1554.6,1177.1 1523.8,1211.9 1494.0,1246.3 1464.9,1280.3 1436.6,1314.1 1409.0,1348.0 1382.0,1382.0 1355.6,1416.3 1329.7,1451.1 1304.0,1486.5 1278.6,1522.6 1253.2,1559.4 1227.8,1597.1 1202.0,1635.8 1175.7,1675.4 1148.8,1716.1 1120.9,1757.9 1091.8,1800.8 1061.4,1844.8 1029.2,1890.0 995.1,1936.3 958.7,1983.7 919.8,2032.1 877.8,2081.6 832.7,2132.1 783.8,2183.5 731.0,2235.7  Z" style="stroke-width: 2.0;  stroke: rgb(82,82,82); fill: rgb(253,141,60); opacity: 0.667;" />
<path d="M 731.006,2235.715 A 1064.250,1064.250 0.00 0,1 728.3,2232.9 L 728.3,2232.9 781.4,2180.7 830.7,2129.2 876.6,2078.5 919.4,2028.6 959.5,1979.8 997.2,1932.0 1032.8,1885.3 1066.6,1839.9 1098.9,1795.8 1130.0,1752.9 1160.2,1711.4 1189.6,1671.2 1218.6,1632.3 1247.3,1594.7 1276.0,1558.4 1304.8,1523.3 1333.9,1489.4 1363.5,1456.6 1393.7,1424.7 1424.7,1393.7 1456.6,1363.5 1489.4,1333.9 1523.3,1304.8 1558.4,1276.0 1594.7,1247.3 1632.3,1218.6 1671.2,1189.6 1711.4,1160.2 1752.9,1130.0 1795.7,1098.9 1839.9,1066.6 1885.3,1032.8 1932.0,997.2 1979.8,959.5 2028.6,919.4 2078.5,876.6 2129.2,830.7 2180.7,781.4 2232.8,728.3  A 1064.250,1064.250 0.00 0,0 2230.0,725.5 L 2230.0,725.5 2178.0,778.9 2126.7,828.4 2076.2,874.5 2026.5,917.5 1977.7,957.7 1930.1,995.6 1883.6,1031.3 1838.3,1065.3 1794.3,1097.8 1751.5,1129.1 1710.1,1159.4 1670.0,1189.0 1631.3,1218.1 1593.8,1247.0 1557.6,1275.8 1522.6,1304.7 1488.8,1333.9 1456.1,1363.7 1424.3,1394.0 1393.4,1425.1 1363.3,1457.1 1333.9,1490.0 1304.9,1524.1 1276.2,1559.3 1247.7,1595.7 1219.1,1633.3 1190.3,1672.3 1161.0,1712.6 1131.0,1754.3 1100.0,1797.2 1067.8,1841.5 1034.2,1887.1 998.8,1933.8 961.3,1981.8 921.4,2030.8 878.8,2080.8 833.1,2131.7 783.9,2183.4 731.0,2235.7  Z" style="stroke-width: 2.0;  stroke: rgb(82,82,82); fill: rgb(255,0,0); opacity: 0.667;" />
<path d="M 731.006,2235.715 A 1064.250,1064.250 0.00 0,1 728.3,2232.9 L 728.3,2232.9 783.1,2182.5 837.1,2135.8 890.2,2092.5 942.3,2052.2 993.2,2014.6 1043.0,1979.3 1091.5,1945.9 1138.6,1914.3 1184.4,1884.0 1228.8,1854.9 1271.8,1826.6 1313.4,1798.9 1353.5,1771.6 1392.4,1744.5 1429.9,1717.3 1466.1,1689.8 1501.1,1662.0 1535.0,1633.5 1567.9,1604.4 1599.9,1574.4 1631.0,1543.5 1661.6,1511.4 1691.6,1478.3 1721.3,1443.9 1750.8,1408.2 1780.4,1371.2 1810.2,1332.8 1840.5,1293.1 1871.5,1252.0 1903.4,1209.6 1936.5,1165.8 1971.1,1120.8 2007.5,1074.6 2045.9,1027.2 2086.8,978.7 2130.3,929.3 2176.9,879.1 2226.9,828.2 2280.7,776.7  A 1064.250,1064.250 0.00 0,0 2278.0,773.8 L 2278.0,773.8 2224.4,825.5 2174.6,876.6 2128.2,927.0 2084.8,976.5 2044.2,1025.1 2005.9,1072.7 1969.7,1119.1 1935.3,1164.2 1902.3,1208.1 1870.6,1250.7 1839.7,1291.9 1809.6,1331.7 1779.9,1370.2 1750.5,1407.3 1721.1,1443.1 1691.5,1477.6 1661.6,1510.8 1631.2,1543.0 1600.1,1574.0 1568.3,1604.1 1535.5,1633.4 1501.7,1662.0 1466.8,1689.9 1430.7,1717.5 1393.3,1744.9 1354.6,1772.2 1314.5,1799.6 1273.0,1827.4 1230.1,1855.9 1185.8,1885.2 1140.2,1915.6 1093.1,1947.5 1044.8,1981.0 995.2,2016.5 944.3,2054.3 892.4,2094.8 839.5,2138.3 785.6,2185.1 731.0,2235.7  Z" style="stroke-width: 2.0;  stroke: rgb(82,82,82); fill: rgb(255,0,204); opacity: 0.667;" />
<path d="M 445.760,1354.380 A 1064.250,1064.250 0.00 0,1 446.3,1350.5 L 446.3,1350.5 519.5,1359.8 588.5,1366.7 653.7,1371.2 715.2,1373.7 773.4,1374.3 828.4,1373.1 880.6,1370.4 930.1,1366.2 977.1,1360.7 1022.0,1354.0 1064.8,1346.2 1105.7,1337.4 1145.0,1327.7 1182.8,1317.0 1219.4,1305.4 1254.8,1293.0 1289.2,1279.6 1322.8,1265.4 1355.6,1250.3 1388.0,1234.2 1419.9,1217.1 1451.5,1198.9 1482.9,1179.5 1514.1,1158.8 1545.4,1136.6 1576.8,1112.9 1608.3,1087.5 1640.0,1060.1 1672.0,1030.7 1704.4,999.0 1737.2,964.8 1770.4,927.8 1804.0,887.9 1838.2,844.7 1872.8,797.9 1908.0,747.4 1943.7,692.7 1979.8,633.5 2016.5,569.5  A 1064.250,1064.250 0.00 0,0 2013.3,567.7 L 2013.3,567.7 1976.8,631.8 1940.8,691.1 1905.3,746.0 1870.3,796.6 1835.8,843.5 1801.9,886.8 1768.3,926.9 1735.3,964.0 1702.6,998.3 1670.4,1030.1 1638.5,1059.7 1606.8,1087.1 1575.4,1112.7 1544.1,1136.5 1512.9,1158.8 1481.7,1179.6 1450.4,1199.1 1418.9,1217.4 1387.0,1234.7 1354.8,1250.9 1321.9,1266.1 1288.4,1280.4 1254.0,1293.9 1218.7,1306.4 1182.2,1318.2 1144.4,1329.0 1105.1,1338.9 1064.2,1347.9 1021.4,1355.8 976.6,1362.7 929.6,1368.3 880.1,1372.7 828.0,1375.6 772.9,1377.0 714.7,1376.6 653.2,1374.4 588.0,1370.1 519.0,1363.5 445.8,1354.4  Z" style="stroke-width: 2.0;  stroke: rgb(82,82,82); fill: rgb(255,204,204); opacity: 0.667;" />
<path d="M 445.760,1354.380 A 1064.250,1064.250 0.00 0,1 446.3,1350.5 L 446.3,1350.5 519.6,1359.8 589.1,1366.5 654.9,1370.8 717.4,1373.1 776.7,1373.5 833.2,1372.2 886.9,1369.4 938.3,1365.3 987.3,1360.0 1034.4,1353.7 1079.6,1346.5 1123.2,1338.4 1165.3,1329.7 1206.1,1320.3 1245.9,1310.3 1284.7,1299.7 1322.8,1288.6 1360.4,1277.0 1397.4,1264.7 1434.2,1251.9 1470.9,1238.5 1507.5,1224.3 1544.3,1209.3 1581.3,1193.5 1618.7,1176.6 1656.5,1158.6 1695.0,1139.3 1734.1,1118.5 1774.0,1096.1 1814.8,1071.8 1856.5,1045.5 1899.3,1016.8 1943.1,985.6 1988.2,951.5 2034.5,914.4 2082.0,873.8 2130.9,829.5 2181.2,781.1 2232.8,728.3  A 1064.250,1064.250 0.00 0,0 2230.0,725.5 L 2230.0,725.5 2178.5,778.6 2128.4,827.1 2079.7,871.6 2032.3,912.4 1986.1,949.7 1941.2,984.0 1897.5,1015.3 1854.8,1044.1 1813.2,1070.6 1772.5,1095.1 1732.7,1117.7 1693.6,1138.6 1655.2,1158.0 1617.5,1176.2 1580.1,1193.2 1543.2,1209.2 1506.5,1224.3 1469.9,1238.6 1433.3,1252.2 1396.6,1265.1 1359.5,1277.5 1322.1,1289.3 1284.0,1300.5 1245.2,1311.2 1205.5,1321.4 1164.6,1330.9 1122.6,1339.8 1079.0,1348.0 1033.8,1355.4 986.8,1361.9 937.8,1367.4 886.5,1371.7 832.7,1374.6 776.3,1376.2 716.9,1376.0 654.4,1374.0 588.6,1369.9 519.1,1363.4 445.8,1354.4  Z" style="stroke-width: 2.0;  stroke: rgb(82,82,82); fill: rgb(255,153,0); opacity: 0.667;" />
<path d="M 445.760,1354.380 A 1064.250,1064.250 0.00 0,1 446.3,1350.5 L 446.3,1350.5 519.7,1359.8 589.2,1366.4 655.2,1370.8 717.9,1373.0 777.6,1373.3 834.4,1372.0 888.5,1369.3 940.3,1365.2 989.9,1360.1 1037.4,1353.9 1083.2,1346.9 1127.4,1339.2 1170.2,1330.8 1211.8,1321.8 1252.3,1312.3 1291.9,1302.4 1330.8,1291.9 1369.2,1281.1 1407.2,1269.7 1445.0,1257.9 1482.7,1245.6 1520.4,1232.6 1558.4,1219.0 1596.6,1204.6 1635.3,1189.3 1674.6,1173.0 1714.5,1155.5 1755.2,1136.7 1796.9,1116.4 1839.5,1094.3 1883.1,1070.3 1928.0,1044.2 1974.1,1015.6 2021.5,984.3 2070.3,950.0 2120.5,912.4 2172.3,871.2 2225.7,826.1 2280.7,776.7  A 1064.250,1064.250 0.00 0,0 2278.0,773.8 L 2278.0,773.8 2223.2,823.4 2170.0,868.7 2118.4,910.1 2068.2,947.9 2019.6,982.3 1972.3,1013.8 1926.3,1042.6 1881.5,1068.9 1837.9,1093.1 1795.4,1115.3 1753.9,1135.8 1713.2,1154.7 1673.4,1172.4 1634.2,1188.8 1595.5,1204.2 1557.3,1218.8 1519.5,1232.6 1481.8,1245.6 1444.1,1258.1 1406.4,1270.1 1368.4,1281.6 1330.1,1292.6 1291.2,1303.1 1251.6,1313.2 1211.1,1322.9 1169.6,1332.0 1126.8,1340.6 1082.7,1348.5 1036.9,1355.6 989.4,1362.0 939.8,1367.3 888.1,1371.6 833.9,1374.5 777.1,1376.0 717.5,1375.9 654.8,1373.9 588.7,1369.8 519.1,1363.4 445.8,1354.4  Z" style="stroke-width: 2.0;  stroke: rgb(82,82,82); fill: rgb(255,204,0); opacity: 0.667;" />
<path d="M 445.760,1354.380 A 1064.250,1064.250 0.00 0,1 446.3,1350.5 L 446.3,1350.5 518.8,1361.3 586.0,1372.4 648.0,1383.8 705.2,1395.5 757.9,1407.4 806.3,1419.6 850.6,1432.0 891.0,1444.7 927.8,1457.6 961.1,1470.9 991.2,1484.5 1018.1,1498.4 1042.1,1512.6 1063.2,1527.3 1081.5,1542.4 1097.2,1558.1 1110.4,1574.2 1121.0,1591.0 1129.2,1608.5 1135.0,1626.6 1138.5,1645.6 1139.5,1665.5 1138.2,1686.3 1134.4,1708.1 1128.3,1731.1 1119.6,1755.3 1108.4,1780.8 1094.5,1807.7 1077.9,1836.2 1058.4,1866.3 1035.9,1898.2 1010.3,1932.0 981.5,1967.8 949.1,2005.8 913.1,2046.0 873.2,2088.7 829.3,2134.0 781.1,2182.0 728.3,2232.9  A 1064.250,1064.250 0.00 0,0 731.0,2235.7 L 731.0,2235.7 783.6,2184.6 831.7,2136.5 875.4,2091.0 915.1,2048.2 951.0,2007.8 983.2,1969.7 1011.9,1933.8 1037.4,1899.9 1059.8,1868.0 1079.1,1837.8 1095.6,1809.2 1109.4,1782.2 1120.6,1756.7 1129.1,1732.4 1135.2,1709.5 1138.9,1687.6 1140.1,1666.8 1139.0,1647.0 1135.5,1628.0 1129.6,1609.8 1121.4,1592.4 1110.6,1575.7 1097.4,1559.6 1081.7,1544.0 1063.3,1528.9 1042.1,1514.3 1018.1,1500.1 991.1,1486.3 961.0,1472.9 927.7,1459.8 890.8,1446.9 850.3,1434.4 806.0,1422.2 757.6,1410.2 704.8,1398.5 647.6,1387.0 585.5,1375.8 518.3,1365.0 445.8,1354.4  Z" style="stroke-width: 2.0;  stroke: rgb(82,82,82); fill: rgb(255,255,0); opacity: 0.667;" />
<path d="M 845.794,660.570 A 1064.250,1064.250 0.00 0,1 848.9,658.1 L 848.9,658.1 894.4,715.8 937.7,768.6 979.1,816.8 1018.6,860.7 1056.3,900.6 1092.4,936.6 1127.0,969.1 1160.1,998.1 1191.9,1024.0 1222.5,1046.7 1252.0,1066.6 1280.5,1083.8 1308.0,1098.3 1334.8,1110.3 1360.9,1119.9 1386.4,1127.1 1411.4,1132.0 1435.9,1134.6 1460.2,1135.0 1484.2,1133.2 1508.2,1129.1 1532.1,1122.8 1556.0,1114.2 1580.1,1103.2 1604.4,1089.8 1629.1,1073.9 1654.2,1055.4 1679.7,1034.2 1705.9,1010.0 1732.7,982.9 1760.2,952.6 1788.6,918.9 1817.9,881.6 1848.1,840.5 1879.4,795.4 1911.8,746.0 1945.4,692.1 1980.3,633.4 2016.5,569.5  A 1064.250,1064.250 0.00 0,0 2013.3,567.7 L 2013.3,567.7 1977.2,631.7 1942.6,690.5 1909.1,744.6 1876.9,794.1 1845.8,839.3 1815.7,880.5 1786.5,917.8 1758.3,951.7 1730.9,982.1 1704.2,1009.3 1678.1,1033.5 1652.6,1054.9 1627.6,1073.5 1603.0,1089.5 1578.7,1103.0 1554.6,1114.0 1530.7,1122.7 1506.8,1129.1 1482.9,1133.3 1458.9,1135.2 1434.6,1134.9 1410.0,1132.3 1385.0,1127.5 1359.5,1120.4 1333.4,1110.9 1306.6,1099.0 1278.9,1084.6 1250.4,1067.6 1220.8,1047.8 1190.2,1025.1 1158.2,999.4 1125.0,970.5 1090.3,938.2 1054.1,902.3 1016.2,862.5 976.6,818.8 935.0,770.7 891.5,718.1 845.8,660.6  Z" style="stroke-width: 2.0;  stroke: rgb(82,82,82); fill: rgb(204,255,0); opacity: 0.667;" />
<path d="M 845.794,660.570 A 1064.250,1064.250 0.00 0,1 848.9,658.1 L 848.9,658.1 894.5,715.8 938.3,768.6 980.4,816.9 1020.9,860.9 1059.9,901.0 1097.5,937.3 1133.7,970.1 1168.8,999.6 1202.7,1026.1 1235.6,1049.7 1267.6,1070.6 1298.8,1089.0 1329.3,1104.9 1359.1,1118.5 1388.5,1129.9 1417.5,1139.2 1446.2,1146.5 1474.7,1151.8 1503.2,1155.2 1531.7,1156.6 1560.3,1156.1 1589.3,1153.7 1618.5,1149.4 1648.3,1143.1 1678.7,1134.7 1709.8,1124.1 1741.7,1111.4 1774.6,1096.3 1808.5,1078.8 1843.7,1058.6 1880.1,1035.7 1917.9,1009.8 1957.3,980.8 1998.4,948.5 2041.2,912.6 2085.9,872.9 2132.7,829.1 2181.6,781.0 2232.8,728.3  A 1064.250,1064.250 0.00 0,0 2230.0,725.5 L 2230.0,725.5 2179.0,778.5 2130.2,826.8 2083.6,870.7 2039.0,910.6 1996.3,946.7 1955.4,979.1 1916.1,1008.3 1878.4,1034.3 1842.0,1057.3 1807.0,1077.6 1773.1,1095.3 1740.3,1110.5 1708.4,1123.4 1677.3,1134.0 1647.0,1142.5 1617.2,1149.0 1588.0,1153.4 1559.1,1155.9 1530.4,1156.5 1501.9,1155.2 1473.4,1151.9 1444.9,1146.7 1416.2,1139.5 1387.1,1130.3 1357.7,1119.0 1327.8,1105.5 1297.3,1089.7 1266.0,1071.5 1233.9,1050.7 1200.9,1027.2 1166.9,1000.9 1131.8,971.5 1095.4,938.8 1057.7,902.6 1018.6,862.7 977.9,818.8 935.6,770.7 891.6,718.1 845.8,660.6  Z" style="stroke-width: 2.0;  stroke: rgb(82,82,82); fill: rgb(0,255,0); opacity: 0.667;" />
<path d="M 845.794,660.570 A 1064.250,1064.250 0.00 0,1 848.9,658.1 L 848.9,658.1 894.6,715.8 938.5,768.6 980.8,816.9 1021.5,861.0 1060.8,901.1 1098.7,937.6 1135.4,970.5 1170.9,1000.2 1205.3,1027.0 1238.8,1050.8 1271.4,1072.0 1303.2,1090.8 1334.3,1107.1 1364.9,1121.2 1395.0,1133.2 1424.8,1143.2 1454.4,1151.2 1483.8,1157.4 1513.2,1161.6 1542.7,1164.1 1572.3,1164.7 1602.4,1163.5 1632.8,1160.4 1663.8,1155.5 1695.5,1148.6 1728.0,1139.7 1761.4,1128.7 1795.9,1115.5 1831.5,1099.9 1868.4,1081.8 1906.8,1061.2 1946.7,1037.7 1988.3,1011.2 2031.7,981.5 2077.0,948.4 2124.5,911.6 2174.1,870.9 2226.1,826.0 2280.7,776.7  A 1064.250,1064.250 0.00 0,0 2278.0,773.8 L 2278.0,773.8 2223.6,823.3 2171.8,868.4 2122.3,909.3 2075.0,946.3 2029.8,979.5 1986.5,1009.4 1945.0,1036.0 1905.2,1059.7 1866.9,1080.5 1830.0,1098.7 1794.5,1114.4 1760.1,1127.7 1726.7,1138.9 1694.2,1147.9 1662.6,1154.9 1631.6,1159.9 1601.1,1163.1 1571.1,1164.4 1541.4,1163.9 1511.9,1161.6 1482.5,1157.4 1453.1,1151.4 1423.5,1143.5 1393.7,1133.6 1363.5,1121.7 1332.9,1107.7 1301.7,1091.5 1269.8,1072.9 1237.1,1051.8 1203.6,1028.1 1169.1,1001.5 1133.4,971.9 1096.7,939.0 1058.6,902.8 1019.2,862.8 978.2,818.9 935.8,770.7 891.7,718.1 845.8,660.6  Z" style="stroke-width: 2.0;  stroke: rgb(82,82,82); fill: rgb(53,128,0); opacity: 0.667;" />
<path d="M 845.794,660.570 A 1064.250,1064.250 0.00 0,1 848.9,658.1 L 848.9,658.1 893.2,716.9 933.3,773.1 969.4,826.7 1001.8,878.0 1030.8,927.0 1056.7,974.0 1079.6,1019.0 1099.7,1062.3 1117.3,1103.9 1132.5,1144.0 1145.6,1182.7 1156.5,1220.2 1165.5,1256.6 1172.7,1292.0 1178.2,1326.7 1181.9,1360.6 1184.1,1393.9 1184.7,1426.9 1183.8,1459.5 1181.3,1491.9 1177.2,1524.3 1171.6,1556.7 1164.4,1589.3 1155.5,1622.3 1144.9,1655.7 1132.4,1689.6 1117.9,1724.2 1101.4,1759.6 1082.6,1795.9 1061.4,1833.2 1037.7,1871.6 1011.2,1911.3 981.7,1952.3 949.0,1994.8 912.9,2038.9 873.0,2084.6 829.2,2132.1 781.0,2181.5 728.3,2232.9  A 1064.250,1064.250 0.00 0,0 731.0,2235.7 L 731.0,2235.7 783.6,2184.2 831.5,2134.6 875.2,2086.9 914.9,2041.1 950.9,1996.9 983.4,1954.3 1012.7,1913.1 1039.1,1873.4 1062.7,1834.8 1083.7,1797.4 1102.3,1761.1 1118.8,1725.6 1133.1,1691.0 1145.5,1657.0 1156.0,1623.6 1164.7,1590.6 1171.8,1557.9 1177.3,1525.5 1181.2,1493.1 1183.6,1460.6 1184.4,1428.0 1183.7,1395.1 1181.4,1361.8 1177.5,1327.9 1172.0,1293.3 1164.6,1257.9 1155.5,1221.5 1144.4,1184.0 1131.2,1145.3 1115.8,1105.3 1098.1,1063.8 1077.8,1020.6 1054.7,975.6 1028.7,928.8 999.5,879.8 966.9,828.7 930.6,775.2 890.3,719.2 845.8,660.6  Z" style="stroke-width: 2.0;  stroke: rgb(82,82,82); fill: rgb(0,0,204); opacity: 0.667;" />
<path d="M 845.794,660.570 A 1064.250,1064.250 0.00 0,1 848.9,658.1 L 848.9,658.1 893.4,716.4 933.9,771.0 970.5,822.1 1003.6,869.8 1033.3,914.5 1059.8,956.2 1083.2,995.1 1103.7,1031.4 1121.4,1065.3 1136.4,1096.8 1148.8,1126.1 1158.8,1153.3 1166.3,1178.6 1171.5,1202.0 1174.4,1223.7 1175.1,1243.7 1173.5,1262.2 1169.7,1279.2 1163.6,1294.8 1155.3,1309.1 1144.8,1322.1 1131.9,1333.8 1116.6,1344.3 1098.8,1353.7 1078.5,1361.9 1055.6,1368.9 1029.9,1374.9 1001.3,1379.7 969.7,1383.4 934.9,1385.9 896.8,1387.3 855.1,1387.4 809.7,1386.4 760.3,1384.0 706.8,1380.2 648.9,1375.1 586.4,1368.5 518.9,1360.3 446.3,1350.5  A 1064.250,1064.250 0.00 0,0 445.8,1354.4 L 445.8,1354.4 518.4,1363.9 585.9,1371.9 648.5,1378.3 706.4,1383.2 759.9,1386.7 809.3,1388.9 854.7,1389.8 896.3,1389.5 934.5,1388.0 969.3,1385.4 1000.9,1381.6 1029.4,1376.6 1055.1,1370.6 1078.0,1363.4 1098.3,1355.2 1116.0,1345.7 1131.2,1335.2 1144.1,1323.4 1154.6,1310.4 1162.9,1296.1 1168.8,1280.5 1172.6,1263.4 1174.1,1244.9 1173.4,1224.9 1170.4,1203.2 1165.1,1179.8 1157.5,1154.6 1147.4,1127.4 1134.9,1098.1 1119.8,1066.7 1102.0,1032.9 1081.3,996.7 1057.8,957.9 1031.2,916.2 1001.3,871.7 968.0,824.0 931.2,773.1 890.5,718.7 845.8,660.6  Z" style="stroke-width: 2.0;  stroke: rgb(82,82,82); fill: rgb(102,153,255); opacity: 0.667;" />
<path d="M 852.869,655.104 A 1064.250,1064.250 0.00 0,1 856.0,652.7 L 856.0,652.7 901.0,710.7 943.9,763.9 984.8,812.5 1023.9,856.7 1061.3,896.9 1097.0,933.2 1131.2,966.0 1164.0,995.3 1195.6,1021.3 1225.9,1044.4 1255.1,1064.5 1283.3,1081.8 1310.7,1096.6 1337.3,1108.7 1363.2,1118.5 1388.4,1125.8 1413.2,1130.9 1437.7,1133.6 1461.8,1134.2 1485.7,1132.4 1509.4,1128.5 1533.2,1122.3 1557.0,1113.7 1581.0,1102.8 1605.3,1089.5 1629.8,1073.7 1654.8,1055.2 1680.3,1034.0 1706.3,1009.9 1733.1,982.8 1760.5,952.5 1788.8,918.8 1818.0,881.5 1848.2,840.5 1879.5,795.4 1911.8,746.0 1945.4,692.1 1980.3,633.4 2016.5,569.5  A 1064.250,1064.250 0.00 0,0 2013.3,567.7 L 2013.3,567.7 1977.3,631.7 1942.6,690.5 1909.2,744.6 1877.0,794.0 1845.9,839.3 1815.8,880.4 1786.8,917.8 1758.6,951.6 1731.2,982.0 1704.6,1009.2 1678.6,1033.4 1653.2,1054.7 1628.3,1073.2 1603.8,1089.2 1579.6,1102.6 1555.7,1113.5 1531.9,1122.2 1508.1,1128.5 1484.3,1132.5 1460.4,1134.3 1436.3,1133.9 1411.9,1131.2 1387.1,1126.2 1361.8,1119.0 1335.8,1109.3 1309.2,1097.3 1281.8,1082.6 1253.5,1065.4 1224.2,1045.4 1193.8,1022.5 1162.2,996.5 1129.2,967.3 1094.9,934.7 1059.0,898.5 1021.5,858.5 982.3,814.4 941.1,766.0 898.0,713.0 852.9,655.1  Z" style="stroke-width: 2.0;  stroke: rgb(82,82,82); fill: rgb(153,204,255); opacity: 0.667;" />
<path d="M 852.869,655.104 A 1064.250,1064.250 0.00 0,1 856.0,652.7 L 856.0,652.7 901.1,710.7 944.5,763.9 986.2,812.5 1026.2,856.9 1064.9,897.3 1102.1,933.9 1138.0,967.0 1172.7,996.8 1206.3,1023.5 1239.0,1047.4 1270.7,1068.5 1301.7,1087.1 1331.9,1103.2 1361.6,1117.0 1390.8,1128.6 1419.6,1138.0 1448.1,1145.5 1476.4,1150.9 1504.7,1154.4 1533.1,1155.9 1561.6,1155.6 1590.4,1153.3 1619.6,1149.0 1649.2,1142.7 1679.5,1134.4 1710.5,1123.9 1742.3,1111.2 1775.1,1096.2 1809.0,1078.7 1844.0,1058.5 1880.4,1035.6 1918.2,1009.8 1957.5,980.8 1998.5,948.5 2041.3,912.6 2086.0,872.9 2132.7,829.1 2181.6,781.0 2232.8,728.3  A 1064.250,1064.250 0.00 0,0 2230.0,725.5 L 2230.0,725.5 2179.0,778.5 2130.2,826.8 2083.7,870.7 2039.1,910.6 1996.4,946.7 1955.6,979.1 1916.3,1008.3 1878.7,1034.2 1842.4,1057.3 1807.4,1077.5 1773.6,1095.2 1740.9,1110.3 1709.1,1123.2 1678.1,1133.7 1647.9,1142.2 1618.3,1148.6 1589.1,1152.9 1560.3,1155.3 1531.8,1155.8 1503.5,1154.4 1475.1,1151.0 1446.8,1145.7 1418.2,1138.3 1389.4,1129.0 1360.2,1117.5 1330.4,1103.8 1300.1,1087.8 1269.1,1069.4 1237.3,1048.4 1204.6,1024.6 1170.8,998.0 1136.0,968.3 1100.0,935.4 1062.6,898.9 1023.9,858.7 983.6,814.5 941.8,766.0 898.2,713.0 852.9,655.1  Z" style="stroke-width: 2.0;  stroke: rgb(82,82,82); fill: rgb(0,255,255); opacity: 0.667;" />
<path d="M 852.869,655.104 A 1064.250,1064.250 0.00 0,1 856.0,652.7 L 856.0,652.7 901.2,710.7 944.6,763.9 986.5,812.6 1026.8,857.0 1065.7,897.4 1103.3,934.2 1139.7,967.4 1174.8,997.4 1209.0,1024.4 1242.2,1048.5 1274.5,1069.9 1306.1,1088.9 1337.0,1105.4 1367.4,1119.7 1397.3,1131.9 1426.9,1142.0 1456.2,1150.2 1485.5,1156.5 1514.7,1160.9 1544.1,1163.4 1573.6,1164.1 1603.5,1163.0 1633.8,1160.1 1664.7,1155.2 1696.3,1148.4 1728.7,1139.5 1762.0,1128.5 1796.4,1115.4 1832.0,1099.8 1868.8,1081.8 1907.1,1061.1 1946.9,1037.7 1988.5,1011.2 2031.8,981.5 2077.1,948.4 2124.5,911.6 2174.2,870.9 2226.2,826.0 2280.7,776.7  A 1064.250,1064.250 0.00 0,0 2278.0,773.8 L 2278.0,773.8 2223.6,823.3 2171.8,868.4 2122.3,909.3 2075.1,946.3 2029.9,979.5 1986.6,1009.4 1945.2,1036.0 1905.4,1059.6 1867.2,1080.4 1830.5,1098.6 1795.0,1114.3 1760.7,1127.6 1727.4,1138.7 1695.0,1147.6 1663.5,1154.6 1632.6,1159.6 1602.3,1162.6 1572.4,1163.9 1542.8,1163.3 1513.5,1160.8 1484.2,1156.5 1454.9,1150.4 1425.6,1142.3 1395.9,1132.3 1365.9,1120.2 1335.5,1106.0 1304.5,1089.6 1272.9,1070.8 1240.5,1049.5 1207.2,1025.5 1173.0,998.6 1137.7,968.8 1101.2,935.6 1063.5,899.1 1024.4,858.8 983.9,814.5 941.9,766.0 898.2,713.0 852.9,655.1  Z" style="stroke-width: 2.0;  stroke: rgb(82,82,82); fill: rgb(204,255,255); opacity: 0.667;" />
<path d="M 852.869,655.104 A 1064.250,1064.250 0.00 0,1 856.0,652.7 L 856.0,652.7 899.8,711.9 939.4,768.4 975.1,822.3 1007.1,873.9 1035.7,923.2 1061.1,970.4 1083.6,1015.7 1103.4,1059.2 1120.7,1101.0 1135.6,1141.3 1148.4,1180.2 1159.1,1217.9 1167.8,1254.5 1174.8,1290.1 1180.0,1324.8 1183.6,1358.9 1185.5,1392.4 1186.0,1425.4 1184.8,1458.1 1182.2,1490.7 1178.1,1523.2 1172.3,1555.7 1165.0,1588.4 1156.0,1621.5 1145.3,1655.0 1132.7,1689.0 1118.2,1723.7 1101.6,1759.1 1082.8,1795.5 1061.6,1832.9 1037.8,1871.4 1011.3,1911.1 981.8,1952.2 949.1,1994.7 912.9,2038.8 873.0,2084.6 829.2,2132.1 781.0,2181.5 728.3,2232.9  A 1064.250,1064.250 0.00 0,0 731.0,2235.7 L 731.0,2235.7 783.6,2184.2 831.5,2134.6 875.2,2086.9 914.9,2041.0 950.9,1996.8 983.4,1954.1 1012.8,1912.9 1039.2,1873.1 1062.8,1834.5 1083.9,1797.0 1102.6,1760.6 1119.0,1725.1 1133.4,1690.3 1145.9,1656.3 1156.5,1622.8 1165.3,1589.7 1172.5,1556.9 1178.1,1524.4 1182.2,1491.9 1184.7,1459.3 1185.7,1426.6 1185.1,1393.5 1183.0,1360.1 1179.3,1326.0 1174.0,1291.3 1166.9,1255.7 1158.0,1219.2 1147.2,1181.5 1134.3,1142.7 1119.2,1102.4 1101.8,1060.7 1081.8,1017.3 1059.2,972.1 1033.5,924.9 1004.8,875.7 972.6,824.3 936.7,770.5 896.9,714.1 852.9,655.1  Z" style="stroke-width: 2.0;  stroke: rgb(82,82,82); fill: rgb(153,0,204); opacity: 0.667;" />
<path d="M 852.869,655.104 A 1064.250,1064.250 0.00 0,1 856.0,652.7 L 856.0,652.7 900.0,711.3 940.0,766.3 976.2,817.7 1008.9,865.8 1038.2,910.7 1064.3,952.7 1087.4,991.9 1107.5,1028.4 1124.9,1062.5 1139.6,1094.2 1151.8,1123.6 1161.4,1151.1 1168.8,1176.5 1173.7,1200.1 1176.4,1221.9 1176.9,1242.1 1175.1,1260.7 1171.1,1277.9 1164.9,1293.6 1156.5,1308.0 1145.8,1321.0 1132.8,1332.9 1117.4,1343.5 1099.5,1352.9 1079.1,1361.2 1056.1,1368.4 1030.3,1374.4 1001.7,1379.3 970.0,1383.0 935.1,1385.6 896.9,1387.0 855.2,1387.2 809.8,1386.2 760.4,1383.9 706.9,1380.2 649.0,1375.1 586.4,1368.5 518.9,1360.3 446.3,1350.5  A 1064.250,1064.250 0.00 0,0 445.8,1354.4 L 445.8,1354.4 518.4,1363.9 585.9,1371.9 648.5,1378.2 706.4,1383.1 760.0,1386.6 809.4,1388.8 854.8,1389.6 896.5,1389.3 934.7,1387.7 969.6,1385.0 1001.2,1381.1 1029.9,1376.1 1055.6,1370.0 1078.6,1362.8 1099.0,1354.4 1116.8,1344.9 1132.1,1334.2 1145.1,1322.4 1155.8,1309.2 1164.2,1294.8 1170.3,1279.1 1174.2,1261.9 1175.9,1243.3 1175.4,1223.1 1172.6,1201.3 1167.6,1177.7 1160.2,1152.3 1150.4,1124.9 1138.1,1095.5 1123.3,1063.8 1105.8,1029.9 1085.5,993.4 1062.3,954.3 1036.0,912.4 1006.6,867.6 973.7,819.6 937.3,768.4 897.1,713.6 852.9,655.1  Z" style="stroke-width: 2.0;  stroke: rgb(82,82,82); fill: rgb(204,51,255); opacity: 0.667;" />
<path d="M 852.869,655.104 A 1064.250,1064.250 0.00 0,1 856.0,652.7 L 856.0,652.7 900.3,711.0 941.2,764.8 978.9,814.5 1013.6,860.2 1045.4,902.0 1074.4,940.3 1100.8,975.1 1124.6,1006.6 1146.1,1035.0 1165.3,1060.4 1182.3,1083.0 1197.2,1102.7 1210.0,1119.8 1220.9,1134.3 1229.8,1146.3 1236.9,1155.8 1242.2,1162.9 1245.6,1167.7 1247.2,1170.1 1247.1,1170.3 1245.1,1168.0 1241.4,1163.5 1235.9,1156.6 1228.5,1147.3 1219.3,1135.5 1208.1,1121.3 1194.9,1104.4 1179.7,1084.9 1162.4,1062.7 1142.8,1037.6 1121.0,1009.4 1096.7,978.2 1070.0,943.7 1040.6,905.7 1008.4,864.2 973.3,818.9 935.1,769.5 893.7,716.0 848.9,658.1  A 1064.250,1064.250 0.00 0,0 845.8,660.6 L 845.8,660.6 890.8,718.3 932.4,771.6 970.7,820.8 1006.0,866.0 1038.3,907.4 1067.9,945.3 1094.8,979.7 1119.2,1010.9 1141.1,1038.9 1160.8,1063.9 1178.2,1086.1 1193.5,1105.6 1206.7,1122.4 1217.9,1136.6 1227.2,1148.3 1234.6,1157.6 1240.2,1164.5 1243.9,1169.0 1245.8,1171.2 1246.0,1171.1 1244.3,1168.7 1240.9,1163.9 1235.6,1156.8 1228.5,1147.3 1219.5,1135.3 1208.6,1120.9 1195.7,1103.8 1180.8,1084.1 1163.7,1061.7 1144.4,1036.4 1122.8,1008.0 1098.8,976.6 1072.3,941.9 1043.1,903.7 1011.2,862.0 976.4,816.4 938.5,766.9 897.4,713.2 852.9,655.1  Z" style="stroke-width: 2.0;  stroke: rgb(82,82,82); fill: rgb(204,153,255); opacity: 0.667;" />
<path d="M 1220.426,473.128 A 1064.250,1064.250 0.00 0,1 1224.2,472.1 L 1224.2,472.1 1243.7,542.8 1262.6,608.0 1281.0,668.2 1299.0,723.4 1316.5,774.1 1333.7,820.4 1350.5,862.6 1367.0,900.9 1383.1,935.4 1399.1,966.4 1414.9,994.0 1430.5,1018.4 1446.0,1039.7 1461.5,1058.0 1476.9,1073.5 1492.5,1086.1 1508.1,1096.0 1523.9,1103.3 1539.9,1107.9 1556.2,1109.9 1572.9,1109.3 1590.0,1106.1 1607.6,1100.3 1625.7,1091.8 1644.4,1080.5 1663.9,1066.5 1684.1,1049.6 1705.1,1029.7 1727.1,1006.7 1750.1,980.5 1774.2,950.9 1799.4,917.8 1826.0,880.9 1853.8,840.1 1883.1,795.2 1913.9,746.0 1946.4,692.1 1980.5,633.4 2016.5,569.5  A 1064.250,1064.250 0.00 0,0 2013.3,567.7 L 2013.3,567.7 1977.5,631.7 1943.5,690.5 1911.3,744.5 1880.6,793.9 1851.5,838.9 1823.8,879.8 1797.4,916.7 1772.3,950.0 1748.3,979.6 1725.4,1005.9 1703.5,1029.0 1682.5,1049.0 1662.3,1065.9 1642.9,1080.0 1624.2,1091.3 1606.1,1099.9 1588.6,1105.8 1571.5,1109.0 1554.8,1109.7 1538.5,1107.7 1522.5,1103.2 1506.6,1096.0 1491.0,1086.1 1475.4,1073.6 1459.9,1058.2 1444.3,1039.9 1428.7,1018.7 1413.0,994.4 1397.1,966.8 1381.1,935.9 1364.8,901.4 1348.1,863.2 1331.2,821.0 1313.9,774.8 1296.1,724.2 1278.0,669.0 1259.3,608.9 1240.1,543.7 1220.4,473.1  Z" style="stroke-width: 2.0;  stroke: rgb(82,82,82); fill: rgb(102,102,102); opacity: 0.667;" />
<path d="M 1220.426,473.128 A 1064.250,1064.250 0.00 0,1 1224.2,472.1 L 1224.2,472.1 1243.8,542.8 1263.2,608.2 1282.3,668.5 1301.3,724.0 1320.1,775.1 1338.7,821.9 1357.2,864.7 1375.5,903.7 1393.8,939.1 1412.1,971.2 1430.3,1000.0 1448.6,1025.8 1467.0,1048.7 1485.6,1068.8 1504.3,1086.2 1523.3,1101.1 1542.7,1113.5 1562.4,1123.4 1582.6,1131.0 1603.4,1136.3 1624.8,1139.3 1646.9,1139.9 1669.9,1138.3 1693.7,1134.3 1718.5,1127.9 1744.4,1119.1 1771.4,1107.8 1799.8,1093.8 1829.6,1077.2 1861.0,1057.7 1893.9,1035.3 1928.7,1009.8 1965.3,981.0 2004.0,948.8 2044.9,912.9 2088.1,873.1 2133.7,829.2 2181.9,781.0 2232.8,728.3  A 1064.250,1064.250 0.00 0,0 2230.0,725.5 L 2230.0,725.5 2179.2,778.5 2131.2,826.9 2085.7,870.9 2042.7,910.8 2002.0,946.9 1963.4,979.3 1926.9,1008.2 1892.2,1033.9 1859.3,1056.4 1828.1,1076.0 1798.3,1092.7 1770.0,1106.8 1742.9,1118.2 1717.1,1127.1 1692.3,1133.6 1668.5,1137.7 1645.6,1139.4 1623.5,1138.8 1602.1,1135.9 1581.3,1130.7 1561.0,1123.2 1541.2,1113.3 1521.9,1101.0 1502.8,1086.2 1484.0,1068.8 1465.3,1048.8 1446.9,1026.0 1428.5,1000.3 1410.1,971.5 1391.7,939.5 1373.3,904.1 1354.8,865.2 1336.2,822.5 1317.4,775.7 1298.4,724.7 1279.3,669.3 1259.9,609.0 1240.3,543.8 1220.4,473.1  Z" style="stroke-width: 2.0;  stroke: rgb(82,82,82); fill: rgb(153,153,153); opacity: 0.667;" />
<path d="M 1220.426,473.128 A 1064.250,1064.250 0.00 0,1 1224.2,472.1 L 1224.2,472.1 1243.9,542.8 1263.3,608.2 1282.7,668.6 1301.9,724.2 1320.9,775.4 1339.9,822.3 1358.8,865.3 1377.6,904.6 1396.4,940.3 1415.2,972.7 1434.0,1001.9 1452.9,1028.1 1472.0,1051.5 1491.2,1072.2 1510.7,1090.2 1530.5,1105.8 1550.7,1118.9 1571.4,1129.7 1592.5,1138.3 1614.3,1144.5 1636.7,1148.6 1659.9,1150.4 1684.0,1150.0 1709.1,1147.4 1735.2,1142.5 1762.5,1135.3 1791.1,1125.6 1821.0,1113.5 1852.5,1098.8 1885.7,1081.4 1920.6,1061.1 1957.4,1037.9 1996.3,1011.6 2037.3,981.9 2080.7,948.7 2126.6,911.9 2175.1,871.1 2226.4,826.1 2280.7,776.7  A 1064.250,1064.250 0.00 0,0 2278.0,773.8 L 2278.0,773.8 2223.9,823.4 2172.7,868.6 2124.4,909.5 2078.7,946.6 2035.4,979.9 1994.5,1009.7 1955.7,1036.2 1919.0,1059.6 1884.1,1079.9 1851.0,1097.5 1819.6,1112.3 1789.7,1124.5 1761.1,1134.3 1733.9,1141.6 1707.8,1146.6 1682.7,1149.4 1658.6,1149.8 1635.4,1148.1 1612.9,1144.1 1591.2,1137.9 1570.0,1129.5 1549.3,1118.7 1529.1,1105.7 1509.2,1090.2 1489.7,1072.2 1470.3,1051.6 1451.2,1028.3 1432.2,1002.2 1413.2,973.0 1394.3,940.7 1375.4,905.0 1356.4,865.9 1337.4,822.9 1318.3,776.0 1299.0,724.9 1279.6,669.4 1260.1,609.1 1240.3,543.8 1220.4,473.1  Z" style="stroke-width: 2.0;  stroke: rgb(82,82,82); fill: rgb(204,204,204); opacity: 0.667;" />
<path d="M 1220.426,473.128 A 1064.250,1064.250 0.00 0,1 1224.2,472.1 L 1224.2,472.1 1242.3,543.7 1257.4,611.6 1269.7,676.1 1279.6,737.4 1287.1,795.7 1292.6,851.2 1296.2,904.2 1298.2,954.8 1298.6,1003.2 1297.7,1049.6 1295.5,1094.3 1292.2,1137.3 1287.9,1179.0 1282.6,1219.4 1276.5,1258.7 1269.5,1297.0 1261.7,1334.7 1253.2,1371.7 1243.8,1408.3 1233.6,1444.5 1222.5,1480.6 1210.5,1516.7 1197.5,1552.8 1183.4,1589.2 1168.1,1625.9 1151.5,1663.1 1133.5,1700.9 1113.8,1739.3 1092.4,1778.6 1068.9,1818.7 1043.3,1859.8 1015.2,1901.9 984.5,1945.2 950.8,1989.7 913.9,2035.5 873.6,2082.6 829.4,2131.2 781.1,2181.3 728.3,2232.9  A 1064.250,1064.250 0.00 0,0 731.0,2235.7 L 731.0,2235.7 783.6,2183.9 831.7,2133.7 875.7,2084.9 915.9,2037.6 952.6,1991.7 986.1,1947.1 1016.7,1903.7 1044.6,1861.4 1070.1,1820.3 1093.4,1780.1 1114.7,1740.8 1134.2,1702.3 1152.1,1664.4 1168.6,1627.2 1183.7,1590.4 1197.7,1554.0 1210.5,1517.7 1222.4,1481.6 1233.4,1445.5 1243.4,1409.2 1252.7,1372.6 1261.1,1335.6 1268.8,1297.9 1275.6,1259.5 1281.6,1220.2 1286.7,1179.8 1290.9,1138.1 1294.0,1095.0 1296.0,1050.4 1296.8,1003.9 1296.2,955.5 1294.0,904.9 1290.2,852.0 1284.5,796.5 1276.7,738.2 1266.7,676.9 1254.1,612.5 1238.8,544.6 1220.4,473.1  Z" style="stroke-width: 2.0;  stroke: rgb(82,82,82); fill: rgb(204,204,153); opacity: 0.667;" />
<path d="M 1220.426,473.128 A 1064.250,1064.250 0.00 0,1 1224.2,472.1 L 1224.2,472.1 1242.6,543.2 1258.3,609.7 1271.7,671.8 1282.7,729.8 1291.6,784.0 1298.4,834.6 1303.3,881.7 1306.3,925.7 1307.6,966.7 1307.2,1004.8 1305.2,1040.4 1301.6,1073.5 1296.4,1104.2 1289.8,1132.8 1281.6,1159.4 1271.9,1184.1 1260.6,1207.0 1247.8,1228.2 1233.5,1247.8 1217.4,1265.9 1199.7,1282.5 1180.2,1297.8 1158.8,1311.7 1135.5,1324.3 1110.1,1335.7 1082.5,1345.8 1052.6,1354.6 1020.2,1362.2 985.2,1368.5 947.3,1373.5 906.5,1377.2 862.5,1379.4 815.1,1380.3 764.1,1379.6 709.2,1377.4 650.3,1373.4 587.0,1367.7 519.1,1360.1 446.3,1350.5  A 1064.250,1064.250 0.00 0,0 445.8,1354.4 L 445.8,1354.4 518.6,1363.7 586.5,1371.1 649.8,1376.6 708.8,1380.3 763.6,1382.4 814.6,1382.8 862.0,1381.8 906.0,1379.4 946.9,1375.5 984.7,1370.4 1019.7,1364.0 1052.1,1356.3 1082.0,1347.3 1109.5,1337.1 1134.9,1325.7 1158.2,1313.0 1179.5,1299.0 1198.9,1283.6 1216.6,1266.9 1232.5,1248.8 1246.8,1229.1 1259.5,1207.9 1270.7,1185.0 1280.3,1160.2 1288.4,1133.6 1295.0,1105.0 1300.0,1074.2 1303.5,1041.1 1305.4,1005.6 1305.7,967.4 1304.2,926.4 1301.0,882.5 1295.9,835.3 1288.9,784.8 1279.9,730.6 1268.6,672.6 1255.1,610.6 1239.0,544.1 1220.4,473.1  Z" style="stroke-width: 2.0;  stroke: rgb(82,82,82); fill: rgb(251,106,74); opacity: 0.667;" />
<path d="M 1220.426,473.128 A 1064.250,1064.250 0.00 0,1 1224.2,472.1 L 1224.2,472.1 1242.9,542.9 1259.8,608.5 1274.9,669.1 1288.2,725.1 1299.9,776.6 1310.1,824.0 1318.8,867.3 1326.1,906.7 1331.9,942.6 1336.5,974.9 1339.8,1004.0 1341.8,1029.9 1342.5,1052.7 1342.1,1072.6 1340.5,1089.6 1337.6,1103.9 1333.6,1115.5 1328.3,1124.5 1321.8,1130.9 1314.1,1134.7 1305.1,1136.0 1294.8,1134.8 1283.1,1131.0 1270.0,1124.6 1255.4,1115.5 1239.3,1103.9 1221.6,1089.4 1202.3,1072.2 1181.1,1052.0 1158.1,1028.7 1133.2,1002.4 1106.1,972.7 1076.9,939.5 1045.4,902.8 1011.5,862.3 975.1,817.8 935.9,769.0 893.9,715.9 848.9,658.1  A 1064.250,1064.250 0.00 0,0 845.8,660.6 L 845.8,660.6 891.0,718.2 933.2,771.1 972.5,819.7 1009.2,864.1 1043.2,904.5 1074.9,941.1 1104.2,974.1 1131.3,1003.7 1156.4,1030.0 1179.5,1053.1 1200.7,1073.3 1220.1,1090.5 1237.9,1104.8 1254.0,1116.5 1268.6,1125.4 1281.7,1131.8 1293.4,1135.5 1303.8,1136.7 1312.8,1135.4 1320.5,1131.6 1326.9,1125.2 1332.2,1116.2 1336.2,1104.5 1338.9,1090.2 1340.5,1073.2 1340.9,1053.3 1340.0,1030.5 1337.9,1004.6 1334.6,975.5 1329.9,943.2 1323.9,907.4 1316.5,867.9 1307.6,824.7 1297.3,777.4 1285.4,725.9 1271.8,670.0 1256.5,609.4 1239.4,543.8 1220.4,473.1  Z" style="stroke-width: 2.0;  stroke: rgb(82,82,82); fill: rgb(116,196,118); opacity: 0.667;" />
<path d="M 1220.426,473.128 A 1064.250,1064.250 0.00 0,1 1224.2,472.1 L 1224.2,472.1 1243.0,542.9 1259.8,608.5 1274.9,669.1 1288.3,725.1 1300.0,776.6 1310.3,823.9 1319.0,867.1 1326.3,906.6 1332.3,942.4 1336.9,974.7 1340.2,1003.7 1342.3,1029.5 1343.2,1052.3 1342.9,1072.1 1341.3,1089.1 1338.6,1103.3 1334.7,1114.8 1329.6,1123.7 1323.2,1130.0 1315.6,1133.7 1306.8,1134.9 1296.6,1133.5 1285.1,1129.5 1272.2,1123.0 1257.8,1113.8 1242.0,1102.0 1224.5,1087.3 1205.4,1069.9 1184.5,1049.5 1161.7,1026.0 1137.1,999.4 1110.4,969.5 1081.5,936.1 1050.4,899.1 1016.8,858.2 980.8,813.4 942.0,764.3 900.5,710.9 856.0,652.7  A 1064.250,1064.250 0.00 0,0 852.9,655.1 L 852.9,655.1 897.6,713.1 939.3,766.4 978.2,815.3 1014.5,860.0 1048.1,900.7 1079.4,937.6 1108.4,970.9 1135.2,1000.8 1160.0,1027.3 1182.8,1050.6 1203.8,1071.0 1223.0,1088.4 1240.5,1102.9 1256.4,1114.7 1270.8,1123.8 1283.7,1130.3 1295.3,1134.2 1305.4,1135.6 1314.3,1134.4 1321.8,1130.6 1328.2,1124.3 1333.3,1115.4 1337.1,1103.9 1339.8,1089.7 1341.3,1072.7 1341.6,1052.9 1340.6,1030.1 1338.4,1004.3 1335.0,975.3 1330.2,943.0 1324.1,907.2 1316.7,867.8 1307.8,824.6 1297.4,777.3 1285.4,725.9 1271.8,670.0 1256.5,609.4 1239.4,543.8 1220.4,473.1  Z" style="stroke-width: 2.0;  stroke: rgb(82,82,82); fill: rgb(107,174,214); opacity: 0.667;" />
<path d="M 1348.833,446.541 A 1064.250,1064.250 0.00 0,1 1352.7,446.0 L 1352.7,446.0 1363.3,518.5 1373.8,585.5 1384.4,647.4 1394.9,704.3 1405.5,756.5 1416.1,804.4 1426.7,848.0 1437.5,887.7 1448.2,923.5 1459.1,955.8 1470.1,984.5 1481.3,1010.0 1492.6,1032.3 1504.1,1051.6 1515.9,1067.9 1528.0,1081.3 1540.4,1092.0 1553.2,1099.9 1566.4,1105.1 1580.1,1107.7 1594.3,1107.6 1609.0,1104.8 1624.4,1099.3 1640.6,1091.1 1657.4,1080.1 1675.1,1066.3 1693.7,1049.6 1713.3,1029.8 1733.9,1006.9 1755.7,980.7 1778.6,951.1 1802.9,918.0 1828.5,881.1 1855.6,840.3 1884.3,795.3 1914.6,746.0 1946.7,692.1 1980.6,633.4 2016.5,569.5  A 1064.250,1064.250 0.00 0,0 2013.3,567.7 L 2013.3,567.7 1977.6,631.7 1943.8,690.6 1911.9,744.6 1881.8,794.0 1853.3,839.1 1826.3,880.0 1800.8,916.9 1776.7,950.2 1753.8,979.8 1732.2,1006.1 1711.6,1029.0 1692.1,1048.9 1673.6,1065.7 1655.9,1079.6 1639.1,1090.6 1623.0,1098.9 1607.6,1104.4 1592.9,1107.2 1578.7,1107.4 1565.0,1104.9 1551.8,1099.7 1538.9,1091.9 1526.5,1081.3 1514.4,1067.9 1502.5,1051.6 1490.9,1032.4 1479.5,1010.1 1468.2,984.7 1457.1,955.9 1446.1,923.7 1435.2,887.9 1424.3,848.3 1413.5,804.7 1402.7,756.9 1392.0,704.7 1381.2,647.8 1370.4,586.0 1359.6,519.0 1348.8,446.5  Z" style="stroke-width: 2.0;  stroke: rgb(82,82,82); fill: rgb(253,141,60); opacity: 0.667;" />
<path d="M 1348.833,446.541 A 1064.250,1064.250 0.00 0,1 1352.7,446.0 L 1352.7,446.0 1363.4,518.5 1374.4,585.7 1385.7,647.8 1397.2,705.0 1409.0,757.7 1421.0,806.1 1433.4,850.4 1445.9,890.9 1458.8,927.7 1472.0,961.0 1485.4,991.1 1499.2,1018.0 1513.4,1042.0 1528.1,1063.1 1543.1,1081.5 1558.7,1097.2 1574.8,1110.3 1591.5,1121.0 1608.9,1129.2 1627.1,1135.0 1646.0,1138.5 1665.8,1139.5 1686.5,1138.2 1708.4,1134.5 1731.3,1128.3 1755.4,1119.6 1780.9,1108.4 1807.8,1094.5 1836.3,1077.9 1866.4,1058.4 1898.3,1035.9 1932.1,1010.3 1967.8,981.5 2005.8,949.1 2046.0,913.1 2088.7,873.2 2134.0,829.3 2181.9,781.1 2232.8,728.3  A 1064.250,1064.250 0.00 0,0 2230.0,725.5 L 2230.0,725.5 2179.3,778.5 2131.5,827.0 2086.4,871.1 2043.8,911.1 2003.7,947.2 1965.9,979.7 1930.2,1008.7 1896.6,1034.5 1864.8,1057.0 1834.7,1076.6 1806.3,1093.4 1779.5,1107.3 1754.0,1118.7 1729.9,1127.4 1707.0,1133.7 1685.2,1137.5 1664.4,1138.9 1644.6,1137.9 1625.7,1134.6 1607.6,1128.8 1590.1,1120.7 1573.4,1110.1 1557.2,1097.0 1541.6,1081.3 1526.4,1063.0 1511.7,1042.0 1497.5,1018.0 1483.5,991.2 1469.9,961.1 1456.7,927.8 1443.7,891.1 1430.9,850.6 1418.5,806.4 1406.2,758.0 1394.2,705.4 1382.5,648.2 1371.0,586.2 1359.8,519.0 1348.8,446.5  Z" style="stroke-width: 2.0;  stroke: rgb(82,82,82); fill: rgb(255,0,0); opacity: 0.667;" />
<path d="M 1348.833,446.541 A 1064.250,1064.250 0.00 0,1 1352.7,446.0 L 1352.7,446.0 1363.5,518.5 1374.6,585.7 1386.0,647.9 1397.8,705.2 1409.8,758.1 1422.2,806.6 1434.9,851.1 1448.0,891.9 1461.3,929.0 1475.0,962.7 1489.1,993.2 1503.5,1020.6 1518.4,1045.0 1533.7,1066.7 1549.5,1085.7 1565.8,1102.1 1582.8,1116.0 1600.4,1127.5 1618.7,1136.7 1637.8,1143.5 1657.8,1148.0 1678.7,1150.2 1700.6,1150.1 1723.7,1147.8 1747.9,1143.1 1773.5,1136.0 1800.5,1126.4 1829.0,1114.3 1859.2,1099.6 1891.1,1082.1 1924.9,1061.8 1960.7,1038.5 1998.8,1012.1 2039.1,982.3 2081.8,949.0 2127.2,912.0 2175.4,871.1 2226.5,826.1 2280.7,776.7  A 1064.250,1064.250 0.00 0,0 2278.0,773.8 L 2278.0,773.8 2224.0,823.4 2173.0,868.6 2125.0,909.7 2079.8,946.9 2037.1,980.3 1996.9,1010.2 1959.0,1036.8 1923.3,1060.3 1889.5,1080.7 1857.7,1098.3 1827.6,1113.1 1799.1,1125.3 1772.2,1134.9 1746.6,1142.1 1722.4,1146.9 1699.3,1149.4 1677.4,1149.5 1656.5,1147.4 1636.5,1143.0 1617.4,1136.2 1599.0,1127.2 1581.4,1115.7 1564.4,1101.9 1547.9,1085.5 1532.1,1066.6 1516.7,1045.0 1501.7,1020.6 1487.2,993.2 1473.0,962.8 1459.2,929.1 1445.7,892.1 1432.5,851.4 1419.7,806.9 1407.1,758.4 1394.8,705.6 1382.8,648.3 1371.2,586.2 1359.8,519.1 1348.8,446.5  Z" style="stroke-width: 2.0;  stroke: rgb(82,82,82); fill: rgb(255,0,204); opacity: 0.667;" />
<path d="M 1348.833,446.541 A 1064.250,1064.250 0.00 0,1 1352.7,446.0 L 1352.7,446.0 1361.9,519.3 1368.4,588.8 1372.7,654.6 1374.8,717.1 1375.0,776.5 1373.6,832.9 1370.7,886.7 1366.5,938.0 1361.1,987.1 1354.7,1034.2 1347.4,1079.4 1339.3,1123.0 1330.5,1165.1 1321.0,1205.9 1310.9,1245.7 1300.3,1284.6 1289.1,1322.7 1277.4,1360.2 1265.1,1397.3 1252.3,1434.1 1238.8,1470.7 1224.6,1507.4 1209.6,1544.1 1193.7,1581.2 1176.8,1618.5 1158.7,1656.4 1139.4,1694.9 1118.6,1734.0 1096.2,1773.9 1071.9,1814.7 1045.5,1856.5 1016.8,1899.2 985.6,1943.1 951.6,1988.2 914.4,2034.5 873.8,2082.0 829.5,2130.9 781.1,2181.2 728.3,2232.9  A 1064.250,1064.250 0.00 0,0 731.0,2235.7 L 731.0,2235.7 783.6,2183.8 831.9,2133.4 876.0,2084.3 916.4,2036.6 953.4,1990.2 987.3,1945.0 1018.3,1901.0 1046.8,1858.1 1073.1,1816.3 1097.2,1775.4 1119.5,1735.4 1140.1,1696.2 1159.3,1657.7 1177.2,1619.7 1194.0,1582.3 1209.7,1545.2 1224.6,1508.4 1238.7,1471.7 1252.0,1435.0 1264.8,1398.1 1276.9,1361.0 1288.5,1323.5 1299.5,1285.3 1310.0,1246.4 1319.9,1206.6 1329.2,1165.7 1337.9,1123.6 1345.8,1079.9 1353.0,1034.7 1359.2,987.6 1364.4,938.5 1368.4,887.2 1371.1,833.4 1372.3,777.0 1371.9,717.6 1369.5,655.1 1365.1,589.3 1358.2,519.8 1348.8,446.5  Z" style="stroke-width: 2.0;  stroke: rgb(82,82,82); fill: rgb(255,204,204); opacity: 0.667;" />
<path d="M 1348.833,446.541 A 1064.250,1064.250 0.00 0,1 1352.7,446.0 L 1352.7,446.0 1362.2,518.8 1369.5,586.9 1374.8,650.5 1378.3,709.8 1380.1,765.1 1380.2,816.8 1378.8,864.9 1375.9,909.7 1371.6,951.5 1365.9,990.4 1359.0,1026.6 1350.7,1060.3 1341.2,1091.7 1330.5,1120.8 1318.5,1148.0 1305.3,1173.2 1290.8,1196.6 1274.9,1218.4 1257.7,1238.5 1239.0,1257.1 1218.8,1274.3 1197.1,1290.1 1173.6,1304.6 1148.4,1317.8 1121.2,1329.7 1092.0,1340.4 1060.6,1349.8 1026.9,1357.9 990.7,1364.8 951.7,1370.4 910.0,1374.6 865.1,1377.4 817.0,1378.7 765.4,1378.5 710.1,1376.6 650.7,1373.0 587.2,1367.5 519.1,1360.0 446.3,1350.5  A 1064.250,1064.250 0.00 0,0 445.8,1354.4 L 445.8,1354.4 518.6,1363.7 586.7,1370.9 650.3,1376.1 709.6,1379.5 765.0,1381.2 816.6,1381.3 864.7,1379.7 909.5,1376.8 951.3,1372.4 990.2,1366.7 1026.4,1359.7 1060.1,1351.4 1091.4,1341.9 1120.6,1331.1 1147.7,1319.1 1172.9,1305.8 1196.3,1291.2 1218.0,1275.4 1238.1,1258.1 1256.7,1239.4 1273.9,1219.2 1289.6,1197.4 1304.1,1173.9 1317.2,1148.7 1329.1,1121.5 1339.7,1092.2 1349.1,1060.8 1357.2,1027.1 1364.0,990.9 1369.5,951.9 1373.7,910.2 1376.4,865.3 1377.7,817.2 1377.3,765.6 1375.4,710.3 1371.7,650.9 1366.1,587.4 1358.5,519.4 1348.8,446.5  Z" style="stroke-width: 2.0;  stroke: rgb(82,82,82); fill: rgb(255,153,0); opacity: 0.667;" />
<path d="M 1348.833,446.541 A 1064.250,1064.250 0.00 0,1 1352.7,446.0 L 1352.7,446.0 1362.6,518.6 1371.0,585.8 1378.2,648.0 1384.1,705.4 1388.8,758.3 1392.4,806.8 1394.9,851.2 1396.3,891.7 1396.7,928.5 1396.2,961.8 1394.6,991.7 1392.1,1018.4 1388.7,1042.0 1384.3,1062.6 1378.9,1080.3 1372.6,1095.2 1365.3,1107.4 1357.1,1117.0 1347.7,1123.9 1337.4,1128.3 1325.9,1130.1 1313.3,1129.3 1299.4,1126.0 1284.3,1120.1 1267.9,1111.5 1250.1,1100.3 1230.9,1086.3 1210.0,1069.4 1187.6,1049.6 1163.4,1026.8 1137.3,1000.8 1109.4,971.4 1079.3,938.6 1047.1,902.1 1012.6,861.8 975.7,817.5 936.2,768.9 894.0,715.9 848.9,658.1  A 1064.250,1064.250 0.00 0,0 845.8,660.6 L 845.8,660.6 891.1,718.1 933.5,771.0 973.2,819.4 1010.2,863.6 1044.9,903.8 1077.2,940.2 1107.4,972.9 1135.5,1002.1 1161.6,1028.1 1185.9,1050.8 1208.4,1070.5 1229.3,1087.3 1248.7,1101.2 1266.5,1112.4 1282.9,1120.9 1298.0,1126.8 1311.9,1130.0 1324.5,1130.7 1336.0,1128.9 1346.3,1124.5 1355.6,1117.5 1363.9,1107.9 1371.1,1095.7 1377.4,1080.7 1382.7,1063.0 1387.0,1042.4 1390.3,1018.8 1392.7,992.1 1394.2,962.2 1394.6,928.9 1394.0,892.1 1392.4,851.6 1389.8,807.2 1386.0,758.7 1381.1,705.8 1375.0,648.5 1367.6,586.3 1358.9,519.1 1348.8,446.5  Z" style="stroke-width: 2.0;  stroke: rgb(82,82,82); fill: rgb(255,204,0); opacity: 0.667;" />
<path d="M 1348.833,446.541 A 1064.250,1064.250 0.00 0,1 1352.7,446.0 L 1352.7,446.0 1362.6,518.6 1371.0,585.8 1378.2,648.0 1384.1,705.4 1388.9,758.2 1392.5,806.7 1395.1,851.1 1396.6,891.6 1397.1,928.4 1396.6,961.6 1395.1,991.4 1392.7,1018.1 1389.3,1041.6 1385.1,1062.1 1379.8,1079.7 1373.6,1094.6 1366.5,1106.7 1358.3,1116.2 1349.1,1123.0 1338.9,1127.3 1327.6,1129.0 1315.1,1128.1 1301.5,1124.6 1286.6,1118.6 1270.3,1109.8 1252.8,1098.4 1233.7,1084.2 1213.1,1067.2 1190.9,1047.2 1167.0,1024.1 1141.3,997.8 1113.6,968.2 1083.9,935.1 1052.0,898.4 1017.9,857.8 981.4,813.1 942.3,764.2 900.6,710.8 856.0,652.7  A 1064.250,1064.250 0.00 0,0 852.9,655.1 L 852.9,655.1 897.7,713.1 939.6,766.3 978.8,815.1 1015.5,859.6 1049.8,900.0 1081.8,936.7 1111.6,969.7 1139.4,999.2 1165.2,1025.3 1189.2,1048.3 1211.5,1068.2 1232.2,1085.2 1251.3,1099.3 1268.9,1110.7 1285.1,1119.4 1300.1,1125.4 1313.7,1128.8 1326.2,1129.6 1337.5,1127.9 1347.7,1123.6 1356.9,1116.7 1365.0,1107.2 1372.1,1095.1 1378.3,1080.2 1383.4,1062.5 1387.6,1042.0 1390.9,1018.5 1393.2,991.8 1394.6,962.0 1394.9,928.7 1394.3,892.0 1392.7,851.5 1389.9,807.1 1386.1,758.6 1381.2,705.8 1375.0,648.5 1367.6,586.3 1358.9,519.1 1348.8,446.5  Z" style="stroke-width: 2.0;  stroke: rgb(82,82,82); fill: rgb(255,255,0); opacity: 0.667;" />
<path d="M 1348.833,446.541 A 1064.250,1064.250 0.00 0,1 1352.7,446.0 L 1352.7,446.0 1362.8,518.5 1371.9,585.5 1380.2,647.3 1387.6,704.2 1394.3,756.4 1400.2,804.1 1405.3,847.5 1409.8,886.8 1413.6,922.3 1416.8,954.1 1419.3,982.3 1421.3,1007.0 1422.6,1028.5 1423.4,1046.8 1423.6,1062.0 1423.2,1074.1 1422.3,1083.3 1420.8,1089.6 1418.7,1093.0 1416.0,1093.6 1412.8,1091.2 1409.0,1086.0 1404.5,1077.9 1399.4,1066.9 1393.7,1052.8 1387.3,1035.7 1380.1,1015.4 1372.2,991.8 1363.6,964.9 1354.1,934.4 1343.7,900.3 1332.5,862.3 1320.3,820.3 1307.1,774.1 1292.9,723.5 1277.5,668.2 1261.0,608.1 1243.3,542.8 1224.2,472.1  A 1064.250,1064.250 0.00 0,0 1220.4,473.1 L 1220.4,473.1 1239.7,543.7 1257.7,609.0 1274.5,669.0 1290.0,724.2 1304.4,774.8 1317.8,821.0 1330.1,862.9 1341.5,900.8 1352.0,935.0 1361.6,965.4 1370.4,992.3 1378.3,1015.9 1385.5,1036.1 1392.0,1053.2 1397.8,1067.3 1403.0,1078.3 1407.4,1086.4 1411.3,1091.6 1414.5,1093.9 1417.2,1093.3 1419.2,1089.9 1420.7,1083.6 1421.6,1074.4 1421.9,1062.3 1421.7,1047.1 1420.8,1028.8 1419.4,1007.3 1417.4,982.6 1414.7,954.4 1411.5,922.6 1407.5,887.2 1402.9,847.8 1397.6,804.4 1391.5,756.8 1384.7,704.6 1377.0,647.8 1368.5,586.0 1359.2,519.0 1348.8,446.5  Z" style="stroke-width: 2.0;  stroke: rgb(82,82,82); fill: rgb(204,255,0); opacity: 0.667;" />
<path d="M 1948.339,534.795 A 1064.250,1064.250 0.00 0,1 1956.5,538.6 L 1956.5,538.6 1924.9,604.7 1895.2,665.5 1867.3,721.5 1841.1,772.7 1816.6,819.6 1793.6,862.2 1772.1,900.7 1751.9,935.5 1733.1,966.6 1715.5,994.2 1699.0,1018.4 1683.7,1039.4 1669.4,1057.3 1656.0,1072.1 1643.6,1084.0 1632.0,1093.0 1621.2,1099.2 1611.3,1102.7 1602.0,1103.3 1593.5,1101.2 1585.6,1096.3 1578.3,1088.7 1571.6,1078.2 1565.6,1064.8 1560.1,1048.5 1555.1,1029.2 1550.7,1006.7 1546.8,981.0 1543.5,951.9 1540.7,919.3 1538.4,883.0 1536.6,842.9 1535.4,798.7 1534.8,750.3 1534.8,697.5 1535.4,639.9 1536.6,577.4 1538.4,509.7 1541.0,436.5  A 1064.250,1064.250 0.00 0,0 1532.0,436.2 L 1532.0,436.2 1530.1,509.4 1528.8,577.1 1528.1,639.6 1528.0,697.2 1528.5,750.1 1529.5,798.5 1531.1,842.6 1533.1,882.7 1535.7,919.0 1538.8,951.6 1542.4,980.6 1546.5,1006.3 1551.1,1028.7 1556.2,1048.0 1561.9,1064.3 1568.1,1077.6 1574.8,1088.0 1582.1,1095.6 1590.1,1100.4 1598.6,1102.5 1607.9,1101.7 1617.8,1098.2 1628.5,1091.9 1640.0,1082.8 1652.4,1070.8 1665.6,1055.8 1679.8,1037.8 1694.9,1016.7 1711.2,992.4 1728.6,964.6 1747.1,933.4 1767.0,898.5 1788.2,859.7 1810.8,816.9 1834.9,769.9 1860.6,718.4 1888.1,662.2 1917.3,601.1 1948.3,534.8  Z" style="stroke-width: 2.0;  stroke: rgb(82,82,82); fill: rgb(0,255,0); opacity: 0.667;" />
<path d="M 2254.462,749.390 A 1064.250,1064.250 0.00 0,1 2257.7,752.7 L 2257.7,752.7 2205.4,803.9 2156.6,850.9 2111.3,893.9 2069.1,933.1 2030.0,968.7 1993.8,1000.8 1960.3,1029.7 1929.4,1055.4 1900.9,1078.1 1874.8,1098.0 1850.9,1115.1 1829.2,1129.5 1809.5,1141.3 1791.7,1150.6 1775.7,1157.4 1761.6,1161.9 1749.1,1163.9 1738.3,1163.6 1729.2,1161.0 1721.6,1156.0 1715.5,1148.6 1711.0,1138.8 1708.0,1126.6 1706.5,1111.8 1706.6,1094.4 1708.1,1074.4 1711.3,1051.6 1715.9,1026.0 1722.3,997.3 1730.2,965.5 1740.0,930.4 1751.4,891.9 1764.8,849.8 1780.1,803.8 1797.4,753.8 1816.9,699.7 1838.6,641.0 1862.7,577.7 1889.2,509.5  A 1064.250,1064.250 0.00 0,0 1884.9,507.8 L 1884.9,507.8 1858.7,576.2 1834.9,639.6 1813.4,698.3 1794.2,752.6 1777.1,802.6 1762.0,848.6 1748.8,890.8 1737.5,929.4 1727.9,964.5 1720.1,996.3 1713.9,1025.0 1709.3,1050.7 1706.3,1073.5 1704.8,1093.5 1704.9,1110.9 1706.4,1125.7 1709.5,1137.9 1714.0,1147.7 1720.1,1155.0 1727.7,1160.0 1736.9,1162.6 1747.7,1162.9 1760.1,1160.8 1774.2,1156.3 1790.2,1149.3 1807.9,1139.9 1827.6,1128.0 1849.3,1113.5 1873.1,1096.4 1899.1,1076.4 1927.4,1053.6 1958.2,1027.7 1991.6,998.7 2027.7,966.4 2066.6,930.7 2108.6,891.3 2153.8,848.1 2202.4,800.9 2254.5,749.4  Z" style="stroke-width: 2.0;  stroke: rgb(82,82,82); fill: rgb(53,128,0); opacity: 0.667;" />
</g>
<defs>
<pattern id="hline-sparse" width="10" height="10" patternTransform="rotate(0 0 0)" patternUnits="userSpaceOnUse"><line x1="0" y1="0" x2="10" y2="0" style="stroke:black;stroke-width:2" /></pattern>
<pattern id="checker" width="10" height="10" patternTransform="rotate(45 0 0)" patternUnits="userSpaceOnUse"><line x1="0" y1="0" x2="10" y2="0" style="stroke:black;stroke-width:2" /><line x1="0" y1="0" x2="0" y2="10" style="stroke:black;stroke-width:2" /></pattern>
<pattern id="checker" width="10" height="10" patternTransform="rotate(45 0 0)" patternUnits="userSpaceOnUse"><line x1="0" y1="0" x2="10" y2="0" style="stroke:black;stroke-width:5" /><line x1="0" y1="0" x2="0" y2="10" style="stroke:black;stroke-width:4" /></pattern>
<pattern id="hline" width="10" height="10" patternTransform="rotate(0 0 0)" patternUnits="userSpaceOnUse"><line x1="0" y1="0" x2="10" y2="0" style="stroke:black;stroke-width:5" /></pattern>
<pattern id="vline-sparse" width="10" height="10" patternTransform="rotate(0 0 0)" patternUnits="userSpaceOnUse"><line x1="0" y1="0" x2="0" y2="10" style="stroke:black;stroke-width:2" /></pattern>
<pattern id="vline" width="10" height="10" patternTransform="rotate(0 0 0)" patternUnits="userSpaceOnUse"><line x1="0" y1="0" x2="0" y2="10" style="stroke:black;stroke-width:5" /></pattern>
</defs>
</svg>
