<?xml version="1.0" encoding="utf-8" standalone="no"?>
<!DOCTYPE svg PUBLIC "-//W3C//DTD SVG 1.1//EN" "http://www.w3.org/Graphics/SVG/1.1/DTD/svg11.dtd">
<svg width="3000px" height="3000px" version="1.1" xmlns="http://www.w3.org/2000/svg" xmlns:xlink="http://www.w3.org/1999/xlink">
<g id="ideograms">
<path d="M1500.000,425.000 A1075.000,1075.000 40.000 0,1 1812.702,471.485 L1827.246,423.647 A1125.000,1125.000 0.000 0,0 1500.000,375.000 Z" style="stroke-linecap:round;fill:rgb(116,196,118);fill-opacity:0.33;" />
<text x="1688.0" y="299.6" font-size="18.2px" font-family="CMUBright-Roman" style="text-anchor:start;fill:rgb(0,0,0);" transform="rotate(278.5,1688.0,299.6)" >R<tspan baseline-shift="-40%" font-size="90%">s</tspan>caffold<tspan baseline-shift="-40%" font-size="90%">8</tspan></text>
<line x1='1500.0' y1='375.0' x2='1500.0' y2='355.0' style="stroke-width:4.0;stroke:rgb(0,0,0);stroke-linecap:round;fill:none;" />
<text x="1506.5" y="345.0" font-size="18.2px" font-family="CMUBright-Roman" style="text-anchor:start;fill:rgb(0,0,0);" transform="rotate(270.0,1506.5,345.0)" >0</text>
<line x1='1570.4' y1='377.2' x2='1571.7' y2='357.2' style="stroke-width:4.0;stroke:rgb(0,0,0);stroke-linecap:round;fill:none;" />
<text x="1578.8" y="347.7" font-size="18.2px" font-family="CMUBright-Roman" style="text-anchor:start;fill:rgb(0,0,0);" transform="rotate(273.6,1578.8,347.7)" >50</text>
<line x1='1640.6' y1='383.8' x2='1643.1' y2='364.0' style="stroke-width:4.0;stroke:rgb(0,0,0);stroke-linecap:round;fill:none;" />
<text x="1650.8" y="354.9" font-size="18.2px" font-family="CMUBright-Roman" style="text-anchor:start;fill:rgb(0,0,0);" transform="rotate(277.2,1650.8,354.9)" >100</text>
<line x1='1710.2' y1='394.8' x2='1713.9' y2='375.2' style="stroke-width:4.0;stroke:rgb(0,0,0);stroke-linecap:round;fill:none;" />
<text x="1722.1" y="366.6" font-size="18.2px" font-family="CMUBright-Roman" style="text-anchor:start;fill:rgb(0,0,0);" transform="rotate(280.8,1722.1,366.6)" >150</text>
<line x1='1778.9' y1='410.1' x2='1783.9' y2='390.8' style="stroke-width:4.0;stroke:rgb(0,0,0);stroke-linecap:round;fill:none;" />
<text x="1792.7" y="382.7" font-size="18.2px" font-family="CMUBright-Roman" style="text-anchor:start;fill:rgb(0,0,0);" transform="rotate(284.4,1792.7,382.7)" >200</text>
<g id="highlighttrack_0">
<path d="M1523.073,425.248 A1075.000,1075.000 40.000 0,1 1541.384,425.797 L1543.309,375.834 A1125.000,1125.000 0.000 0,0 1524.146,375.259 Z" style="stroke-width:4.0;stroke:rgb(0,0,0);stroke-linecap:round;fill:rgb(116,196,118);" />
</g>
<path d="M1873.651,492.027 A1075.000,1075.000 40.000 0,1 2095.396,604.942 L2123.089,563.312 A1125.000,1125.000 0.000 0,0 1891.031,445.145 Z" style="stroke-linecap:round;fill:rgb(116,196,118);fill-opacity:0.33;" />
<text x="2059.8" y="421.6" font-size="18.2px" font-family="CMUBright-Roman" style="text-anchor:start;fill:rgb(0,0,0);" transform="rotate(297.0,2059.8,421.6)" >R<tspan baseline-shift="-40%" font-size="90%">s</tspan>caffold<tspan baseline-shift="-40%" font-size="90%">1</tspan>0</text>
<line x1='1891.0' y1='445.1' x2='1898.0' y2='426.4' style="stroke-width:4.0;stroke:rgb(0,0,0);stroke-linecap:round;fill:none;" />
<text x="1907.5" y="419.3" font-size="18.2px" font-family="CMUBright-Roman" style="text-anchor:start;fill:rgb(0,0,0);" transform="rotate(290.3,1907.5,419.3)" >0</text>
<line x1='1956.3' y1='471.7' x2='1964.4' y2='453.4' style="stroke-width:4.0;stroke:rgb(0,0,0);stroke-linecap:round;fill:none;" />
<text x="1974.4" y="446.9" font-size="18.2px" font-family="CMUBright-Roman" style="text-anchor:start;fill:rgb(0,0,0);" transform="rotate(293.9,1974.4,446.9)" >50</text>
<line x1='2019.8' y1='502.3' x2='2029.0' y2='484.5' style="stroke-width:4.0;stroke:rgb(0,0,0);stroke-linecap:round;fill:none;" />
<text x="2039.4" y="478.7" font-size="18.2px" font-family="CMUBright-Roman" style="text-anchor:start;fill:rgb(0,0,0);" transform="rotate(297.5,2039.4,478.7)" >100</text>
<line x1='2081.2' y1='536.8' x2='2091.5' y2='519.6' style="stroke-width:4.0;stroke:rgb(0,0,0);stroke-linecap:round;fill:none;" />
<text x="2102.3" y="514.5" font-size="18.2px" font-family="CMUBright-Roman" style="text-anchor:start;fill:rgb(0,0,0);" transform="rotate(301.1,2102.3,514.5)" >150</text>
<g id="highlighttrack_0">
<path d="M2060.864,582.908 A1075.000,1075.000 40.000 0,1 2077.851,593.516 L2104.727,551.354 A1125.000,1125.000 0.000 0,0 2086.950,540.253 Z" style="stroke-width:4.0;stroke:rgb(0,0,0);stroke-linecap:round;fill:rgb(251,106,74);" />
</g>
<path d="M2147.859,642.152 A1075.000,1075.000 40.000 0,1 2179.871,667.293 L2211.493,628.563 A1125.000,1125.000 0.000 0,0 2177.992,602.252 Z" style="stroke-linecap:round;fill:rgb(116,196,118);fill-opacity:0.33;" />
<text x="2257.9" y="550.4" font-size="18.2px" font-family="CMUBright-Roman" style="text-anchor:start;fill:rgb(0,0,0);" transform="rotate(308.1,2257.9,550.4)" >R<tspan baseline-shift="-40%" font-size="90%">s</tspan>caffold<tspan baseline-shift="-40%" font-size="90%">1</tspan>9</text>
<line x1='2178.0' y1='602.3' x2='2190.0' y2='586.3' style="stroke-width:4.0;stroke:rgb(0,0,0);stroke-linecap:round;fill:none;" />
<text x="2201.2" y="582.2" font-size="18.2px" font-family="CMUBright-Roman" style="text-anchor:start;fill:rgb(0,0,0);" transform="rotate(307.1,2201.2,582.2)" >0</text>
<g id="highlighttrack_0">
<path d="M2153.434,646.391 A1075.000,1075.000 40.000 0,1 2160.545,651.882 L2191.268,612.434 A1125.000,1125.000 0.000 0,0 2183.827,606.688 Z" style="stroke-width:4.0;stroke:rgb(0,0,0);stroke-linecap:round;fill:rgb(116,196,118);" />
</g>
<path d="M2228.453,709.443 A1075.000,1075.000 40.000 0,1 2232.568,713.254 L2266.641,676.662 A1125.000,1125.000 0.000 0,0 2262.335,672.673 Z" style="stroke-linecap:round;fill:rgb(116,196,118);fill-opacity:0.33;" />
<text x="2332.6" y="615.1" font-size="18.2px" font-family="CMUBright-Roman" style="text-anchor:start;fill:rgb(0,0,0);" transform="rotate(312.8,2332.6,615.1)" >R<tspan baseline-shift="-40%" font-size="90%">s</tspan>caffold<tspan baseline-shift="-40%" font-size="90%">2</tspan>4</text>
<line x1='2262.3' y1='672.7' x2='2275.9' y2='658.0' style="stroke-width:4.0;stroke:rgb(0,0,0);stroke-linecap:round;fill:none;" />
<text x="2287.4" y="655.0" font-size="18.2px" font-family="CMUBright-Roman" style="text-anchor:start;fill:rgb(0,0,0);" transform="rotate(312.7,2287.4,655.0)" >0</text>
<g id="highlighttrack_0">
<path d="M2229.172,710.106 A1075.000,1075.000 40.000 0,1 2232.287,712.993 L2266.347,676.388 A1125.000,1125.000 0.000 0,0 2263.087,673.366 Z" style="stroke-width:4.0;stroke:rgb(0,0,0);stroke-linecap:round;fill:rgb(251,106,74);" />
</g>
<path d="M2278.308,758.473 A1075.000,1075.000 40.000 1,1 1435.711,426.924 L1432.720,377.014 A1125.000,1125.000 0.000 1,0 2314.508,723.984 Z" style="stroke-linecap:round;fill:rgb(116,196,118);fill-opacity:0.33;" />
<text x="1064.0" y="2634.1" font-size="18.2px" font-family="CMUBright-Roman" style="text-anchor:end;fill:rgb(0,0,0);" transform="rotate(-68.5,1064.0,2634.1)" >NZ<tspan baseline-shift="-40%" font-size="90%">C</tspan>P022272.1</text>
<line x1='2314.5' y1='724.0' x2='2329.0' y2='710.2' style="stroke-width:4.0;stroke:rgb(0,0,0);stroke-linecap:round;fill:none;" />
<text x="2340.7" y="708.0" font-size="18.2px" font-family="CMUBright-Roman" style="text-anchor:start;fill:rgb(0,0,0);" transform="rotate(316.4,2340.7,708.0)" >0</text>
<line x1='2361.5' y1='776.5' x2='2376.8' y2='763.6' style="stroke-width:4.0;stroke:rgb(0,0,0);stroke-linecap:round;fill:none;" />
<text x="2388.6" y="762.2" font-size="18.2px" font-family="CMUBright-Roman" style="text-anchor:start;fill:rgb(0,0,0);" transform="rotate(320.0,2388.6,762.2)" >50</text>
<line x1='2405.1' y1='831.8' x2='2421.2' y2='820.0' style="stroke-width:4.0;stroke:rgb(0,0,0);stroke-linecap:round;fill:none;" />
<text x="2433.1" y="819.3" font-size="18.2px" font-family="CMUBright-Roman" style="text-anchor:start;fill:rgb(0,0,0);" transform="rotate(323.6,2433.1,819.3)" >100</text>
<line x1='2445.1' y1='889.8' x2='2461.9' y2='879.0' style="stroke-width:4.0;stroke:rgb(0,0,0);stroke-linecap:round;fill:none;" />
<text x="2473.9" y="879.0" font-size="18.2px" font-family="CMUBright-Roman" style="text-anchor:start;fill:rgb(0,0,0);" transform="rotate(327.2,2473.9,879.0)" >150</text>
<line x1='2481.5' y1='950.2' x2='2498.9' y2='940.4' style="stroke-width:4.0;stroke:rgb(0,0,0);stroke-linecap:round;fill:none;" />
<text x="2510.8" y="941.2" font-size="18.2px" font-family="CMUBright-Roman" style="text-anchor:start;fill:rgb(0,0,0);" transform="rotate(330.7,2510.8,941.2)" >200</text>
<line x1='2514.0' y1='1012.7' x2='2532.0' y2='1004.0' style="stroke-width:4.0;stroke:rgb(0,0,0);stroke-linecap:round;fill:none;" />
<text x="2543.8" y="1005.6" font-size="18.2px" font-family="CMUBright-Roman" style="text-anchor:start;fill:rgb(0,0,0);" transform="rotate(334.3,2543.8,1005.6)" >250</text>
<line x1='2542.5' y1='1077.1' x2='2561.0' y2='1069.6' style="stroke-width:4.0;stroke:rgb(0,0,0);stroke-linecap:round;fill:none;" />
<text x="2572.7" y="1071.9" font-size="18.2px" font-family="CMUBright-Roman" style="text-anchor:start;fill:rgb(0,0,0);" transform="rotate(337.9,2572.7,1071.9)" >300</text>
<line x1='2566.9' y1='1143.2' x2='2585.9' y2='1136.8' style="stroke-width:4.0;stroke:rgb(0,0,0);stroke-linecap:round;fill:none;" />
<text x="2597.4" y="1139.8" font-size="18.2px" font-family="CMUBright-Roman" style="text-anchor:start;fill:rgb(0,0,0);" transform="rotate(341.5,2597.4,1139.8)" >350</text>
<line x1='2587.2' y1='1210.7' x2='2606.5' y2='1205.5' style="stroke-width:4.0;stroke:rgb(0,0,0);stroke-linecap:round;fill:none;" />
<text x="2617.8" y="1209.2" font-size="18.2px" font-family="CMUBright-Roman" style="text-anchor:start;fill:rgb(0,0,0);" transform="rotate(345.1,2617.8,1209.2)" >400</text>
<line x1='2603.1' y1='1279.3' x2='2622.8' y2='1275.4' style="stroke-width:4.0;stroke:rgb(0,0,0);stroke-linecap:round;fill:none;" />
<text x="2633.8" y="1279.8" font-size="18.2px" font-family="CMUBright-Roman" style="text-anchor:start;fill:rgb(0,0,0);" transform="rotate(348.7,2633.8,1279.8)" >450</text>
<line x1='2614.8' y1='1348.8' x2='2634.6' y2='1346.1' style="stroke-width:4.0;stroke:rgb(0,0,0);stroke-linecap:round;fill:none;" />
<text x="2645.4" y="1351.2" font-size="18.2px" font-family="CMUBright-Roman" style="text-anchor:start;fill:rgb(0,0,0);" transform="rotate(352.3,2645.4,1351.2)" >500</text>
<line x1='2622.1' y1='1418.9' x2='2642.0' y2='1417.4' style="stroke-width:4.0;stroke:rgb(0,0,0);stroke-linecap:round;fill:none;" />
<text x="2652.4" y="1423.2" font-size="18.2px" font-family="CMUBright-Roman" style="text-anchor:start;fill:rgb(0,0,0);" transform="rotate(355.9,2652.4,1423.2)" >550</text>
<line x1='2624.9' y1='1489.3' x2='2644.9' y2='1489.1' style="stroke-width:4.0;stroke:rgb(0,0,0);stroke-linecap:round;fill:none;" />
<text x="2655.0" y="1495.5" font-size="18.2px" font-family="CMUBright-Roman" style="text-anchor:start;fill:rgb(0,0,0);" transform="rotate(359.5,2655.0,1495.5)" >600</text>
<line x1='2623.4' y1='1559.7' x2='2643.4' y2='1560.8' style="stroke-width:4.0;stroke:rgb(0,0,0);stroke-linecap:round;fill:none;" />
<text x="2653.0" y="1567.8" font-size="18.2px" font-family="CMUBright-Roman" style="text-anchor:start;fill:rgb(0,0,0);" transform="rotate(3.0,2653.0,1567.8)" >650</text>
<line x1='2617.5' y1='1629.9' x2='2637.3' y2='1632.2' style="stroke-width:4.0;stroke:rgb(0,0,0);stroke-linecap:round;fill:none;" />
<text x="2646.5" y="1639.8" font-size="18.2px" font-family="CMUBright-Roman" style="text-anchor:start;fill:rgb(0,0,0);" transform="rotate(6.6,2646.5,1639.8)" >700</text>
<line x1='2607.2' y1='1699.6' x2='2626.8' y2='1703.2' style="stroke-width:4.0;stroke:rgb(0,0,0);stroke-linecap:round;fill:none;" />
<text x="2635.5" y="1711.3" font-size="18.2px" font-family="CMUBright-Roman" style="text-anchor:start;fill:rgb(0,0,0);" transform="rotate(10.2,2635.5,1711.3)" >750</text>
<line x1='2592.5' y1='1768.5' x2='2611.9' y2='1773.3' style="stroke-width:4.0;stroke:rgb(0,0,0);stroke-linecap:round;fill:none;" />
<text x="2620.0" y="1782.0" font-size="18.2px" font-family="CMUBright-Roman" style="text-anchor:start;fill:rgb(0,0,0);" transform="rotate(13.8,2620.0,1782.0)" >800</text>
<line x1='2573.5' y1='1836.4' x2='2592.6' y2='1842.4' style="stroke-width:4.0;stroke:rgb(0,0,0);stroke-linecap:round;fill:none;" />
<text x="2600.2" y="1851.5" font-size="18.2px" font-family="CMUBright-Roman" style="text-anchor:start;fill:rgb(0,0,0);" transform="rotate(17.4,2600.2,1851.5)" >850</text>
<line x1='2550.4' y1='1902.9' x2='2569.0' y2='1910.1' style="stroke-width:4.0;stroke:rgb(0,0,0);stroke-linecap:round;fill:none;" />
<text x="2576.0" y="1919.7" font-size="18.2px" font-family="CMUBright-Roman" style="text-anchor:start;fill:rgb(0,0,0);" transform="rotate(21.0,2576.0,1919.7)" >900</text>
<line x1='2523.1' y1='1967.9' x2='2541.3' y2='1976.2' style="stroke-width:4.0;stroke:rgb(0,0,0);stroke-linecap:round;fill:none;" />
<text x="2547.7" y="1986.3" font-size="18.2px" font-family="CMUBright-Roman" style="text-anchor:start;fill:rgb(0,0,0);" transform="rotate(24.6,2547.7,1986.3)" >950</text>
<line x1='2491.8' y1='2031.0' x2='2509.4' y2='2040.4' style="stroke-width:4.0;stroke:rgb(0,0,0);stroke-linecap:round;fill:none;" />
<text x="2515.2" y="2050.9" font-size="18.2px" font-family="CMUBright-Roman" style="text-anchor:start;fill:rgb(0,0,0);" transform="rotate(28.2,2515.2,2050.9)" >1000</text>
<line x1='2456.6' y1='2092.0' x2='2473.6' y2='2102.6' style="stroke-width:4.0;stroke:rgb(0,0,0);stroke-linecap:round;fill:none;" />
<text x="2478.7" y="2113.3" font-size="18.2px" font-family="CMUBright-Roman" style="text-anchor:start;fill:rgb(0,0,0);" transform="rotate(31.8,2478.7,2113.3)" >1050</text>
<line x1='2417.7' y1='2150.8' x2='2434.0' y2='2162.3' style="stroke-width:4.0;stroke:rgb(0,0,0);stroke-linecap:round;fill:none;" />
<text x="2438.4" y="2173.4" font-size="18.2px" font-family="CMUBright-Roman" style="text-anchor:start;fill:rgb(0,0,0);" transform="rotate(35.3,2438.4,2173.4)" >1100</text>
<line x1='2375.1' y1='2206.9' x2='2390.7' y2='2219.5' style="stroke-width:4.0;stroke:rgb(0,0,0);stroke-linecap:round;fill:none;" />
<text x="2394.4" y="2230.8" font-size="18.2px" font-family="CMUBright-Roman" style="text-anchor:start;fill:rgb(0,0,0);" transform="rotate(38.9,2394.4,2230.8)" >1150</text>
<line x1='2329.2' y1='2260.3' x2='2343.9' y2='2273.8' style="stroke-width:4.0;stroke:rgb(0,0,0);stroke-linecap:round;fill:none;" />
<text x="2346.9" y="2285.4" font-size="18.2px" font-family="CMUBright-Roman" style="text-anchor:start;fill:rgb(0,0,0);" transform="rotate(42.5,2346.9,2285.4)" >1200</text>
<line x1='2280.0' y1='2310.7' x2='2293.8' y2='2325.2' style="stroke-width:4.0;stroke:rgb(0,0,0);stroke-linecap:round;fill:none;" />
<text x="2296.1" y="2336.9" font-size="18.2px" font-family="CMUBright-Roman" style="text-anchor:start;fill:rgb(0,0,0);" transform="rotate(46.1,2296.1,2336.9)" >1250</text>
<line x1='2227.7' y1='2358.0' x2='2240.6' y2='2373.2' style="stroke-width:4.0;stroke:rgb(0,0,0);stroke-linecap:round;fill:none;" />
<text x="2242.1" y="2385.0" font-size="18.2px" font-family="CMUBright-Roman" style="text-anchor:start;fill:rgb(0,0,0);" transform="rotate(49.7,2242.1,2385.0)" >1300</text>
<line x1='2172.5' y1='2401.8' x2='2184.5' y2='2417.9' style="stroke-width:4.0;stroke:rgb(0,0,0);stroke-linecap:round;fill:none;" />
<text x="2185.3" y="2429.8" font-size="18.2px" font-family="CMUBright-Roman" style="text-anchor:start;fill:rgb(0,0,0);" transform="rotate(53.3,2185.3,2429.8)" >1350</text>
<line x1='2114.8' y1='2442.2' x2='2125.7' y2='2458.9' style="stroke-width:4.0;stroke:rgb(0,0,0);stroke-linecap:round;fill:none;" />
<text x="2125.7" y="2470.8" font-size="18.2px" font-family="CMUBright-Roman" style="text-anchor:start;fill:rgb(0,0,0);" transform="rotate(56.9,2125.7,2470.8)" >1400</text>
<line x1='2054.6' y1='2478.8' x2='2064.4' y2='2496.2' style="stroke-width:4.0;stroke:rgb(0,0,0);stroke-linecap:round;fill:none;" />
<text x="2063.7" y="2508.1" font-size="18.2px" font-family="CMUBright-Roman" style="text-anchor:start;fill:rgb(0,0,0);" transform="rotate(60.5,2063.7,2508.1)" >1450</text>
<line x1='1992.2' y1='2511.6' x2='2001.0' y2='2529.6' style="stroke-width:4.0;stroke:rgb(0,0,0);stroke-linecap:round;fill:none;" />
<text x="1999.5" y="2541.4" font-size="18.2px" font-family="CMUBright-Roman" style="text-anchor:start;fill:rgb(0,0,0);" transform="rotate(64.1,1999.5,2541.4)" >1500</text>
<line x1='1927.9' y1='2540.4' x2='1935.5' y2='2558.9' style="stroke-width:4.0;stroke:rgb(0,0,0);stroke-linecap:round;fill:none;" />
<text x="1933.3" y="2570.6" font-size="18.2px" font-family="CMUBright-Roman" style="text-anchor:start;fill:rgb(0,0,0);" transform="rotate(67.6,1933.3,2570.6)" >1550</text>
<line x1='1862.0' y1='2565.2' x2='1868.4' y2='2584.1' style="stroke-width:4.0;stroke:rgb(0,0,0);stroke-linecap:round;fill:none;" />
<text x="1865.5" y="2595.7" font-size="18.2px" font-family="CMUBright-Roman" style="text-anchor:start;fill:rgb(0,0,0);" transform="rotate(71.2,1865.5,2595.7)" >1600</text>
<line x1='1794.6' y1='2585.7' x2='1799.8' y2='2605.0' style="stroke-width:4.0;stroke:rgb(0,0,0);stroke-linecap:round;fill:none;" />
<text x="1796.2" y="2616.4" font-size="18.2px" font-family="CMUBright-Roman" style="text-anchor:start;fill:rgb(0,0,0);" transform="rotate(74.8,1796.2,2616.4)" >1650</text>
<line x1='1726.0' y1='2602.1' x2='1730.1' y2='2621.6' style="stroke-width:4.0;stroke:rgb(0,0,0);stroke-linecap:round;fill:none;" />
<text x="1725.7" y="2632.7" font-size="18.2px" font-family="CMUBright-Roman" style="text-anchor:start;fill:rgb(0,0,0);" transform="rotate(78.4,1725.7,2632.7)" >1700</text>
<line x1='1656.6' y1='2614.0' x2='1659.4' y2='2633.9' style="stroke-width:4.0;stroke:rgb(0,0,0);stroke-linecap:round;fill:none;" />
<text x="1654.3" y="2644.6" font-size="18.2px" font-family="CMUBright-Roman" style="text-anchor:start;fill:rgb(0,0,0);" transform="rotate(82.0,1654.3,2644.6)" >1750</text>
<line x1='1586.6' y1='2621.7' x2='1588.1' y2='2641.6' style="stroke-width:4.0;stroke:rgb(0,0,0);stroke-linecap:round;fill:none;" />
<text x="1582.4" y="2652.1" font-size="18.2px" font-family="CMUBright-Roman" style="text-anchor:start;fill:rgb(0,0,0);" transform="rotate(85.6,1582.4,2652.1)" >1800</text>
<line x1='1516.2' y1='2624.9' x2='1516.5' y2='2644.9' style="stroke-width:4.0;stroke:rgb(0,0,0);stroke-linecap:round;fill:none;" />
<text x="1510.1" y="2655.0" font-size="18.2px" font-family="CMUBright-Roman" style="text-anchor:start;fill:rgb(0,0,0);" transform="rotate(89.2,1510.1,2655.0)" >1850</text>
<line x1='1445.7' y1='2623.7' x2='1444.8' y2='2643.7' style="stroke-width:4.0;stroke:rgb(0,0,0);stroke-linecap:round;fill:none;" />
<text x="1450.8" y="2654.0" font-size="18.2px" font-family="CMUBright-Roman" style="text-anchor:end;fill:rgb(0,0,0);" transform="rotate(-87.2,1450.8,2654.0)" >1900</text>
<line x1='1375.5' y1='2618.1' x2='1373.3' y2='2638.0' style="stroke-width:4.0;stroke:rgb(0,0,0);stroke-linecap:round;fill:none;" />
<text x="1378.6" y="2648.6" font-size="18.2px" font-family="CMUBright-Roman" style="text-anchor:end;fill:rgb(0,0,0);" transform="rotate(-83.6,1378.6,2648.6)" >1950</text>
<line x1='1305.8' y1='2608.1' x2='1302.3' y2='2627.8' style="stroke-width:4.0;stroke:rgb(0,0,0);stroke-linecap:round;fill:none;" />
<text x="1307.0" y="2638.8" font-size="18.2px" font-family="CMUBright-Roman" style="text-anchor:end;fill:rgb(0,0,0);" transform="rotate(-80.1,1307.0,2638.8)" >2000</text>
<line x1='1236.8' y1='2593.8' x2='1232.1' y2='2613.2' style="stroke-width:4.0;stroke:rgb(0,0,0);stroke-linecap:round;fill:none;" />
<text x="1236.1" y="2624.4" font-size="18.2px" font-family="CMUBright-Roman" style="text-anchor:end;fill:rgb(0,0,0);" transform="rotate(-76.5,1236.1,2624.4)" >2050</text>
<line x1='1168.8' y1='2575.2' x2='1162.9' y2='2594.3' style="stroke-width:4.0;stroke:rgb(0,0,0);stroke-linecap:round;fill:none;" />
<text x="1166.2" y="2605.7" font-size="18.2px" font-family="CMUBright-Roman" style="text-anchor:end;fill:rgb(0,0,0);" transform="rotate(-72.9,1166.2,2605.7)" >2100</text>
<line x1='1102.2' y1='2552.3' x2='1095.1' y2='2571.0' style="stroke-width:4.0;stroke:rgb(0,0,0);stroke-linecap:round;fill:none;" />
<text x="1097.7" y="2582.7" font-size="18.2px" font-family="CMUBright-Roman" style="text-anchor:end;fill:rgb(0,0,0);" transform="rotate(-69.3,1097.7,2582.7)" >2150</text>
<line x1='1037.1' y1='2525.3' x2='1028.9' y2='2543.6' style="stroke-width:4.0;stroke:rgb(0,0,0);stroke-linecap:round;fill:none;" />
<text x="1030.7" y="2555.3" font-size="18.2px" font-family="CMUBright-Roman" style="text-anchor:end;fill:rgb(0,0,0);" transform="rotate(-65.7,1030.7,2555.3)" >2200</text>
<line x1='973.8' y1='2494.4' x2='964.5' y2='2512.0' style="stroke-width:4.0;stroke:rgb(0,0,0);stroke-linecap:round;fill:none;" />
<text x="965.5" y="2523.9" font-size="18.2px" font-family="CMUBright-Roman" style="text-anchor:end;fill:rgb(0,0,0);" transform="rotate(-62.1,965.5,2523.9)" >2250</text>
<line x1='912.6' y1='2459.5' x2='902.2' y2='2476.5' style="stroke-width:4.0;stroke:rgb(0,0,0);stroke-linecap:round;fill:none;" />
<text x="902.5" y="2488.4" font-size="18.2px" font-family="CMUBright-Roman" style="text-anchor:end;fill:rgb(0,0,0);" transform="rotate(-58.5,902.5,2488.4)" >2300</text>
<line x1='853.7' y1='2420.8' x2='842.2' y2='2437.2' style="stroke-width:4.0;stroke:rgb(0,0,0);stroke-linecap:round;fill:none;" />
<text x="841.8" y="2449.1" font-size="18.2px" font-family="CMUBright-Roman" style="text-anchor:end;fill:rgb(0,0,0);" transform="rotate(-54.9,841.8,2449.1)" >2350</text>
<line x1='797.3' y1='2378.6' x2='784.8' y2='2394.2' style="stroke-width:4.0;stroke:rgb(0,0,0);stroke-linecap:round;fill:none;" />
<text x="783.7" y="2406.0" font-size="18.2px" font-family="CMUBright-Roman" style="text-anchor:end;fill:rgb(0,0,0);" transform="rotate(-51.3,783.7,2406.0)" >2400</text>
<line x1='743.7' y1='2332.8' x2='730.3' y2='2347.7' style="stroke-width:4.0;stroke:rgb(0,0,0);stroke-linecap:round;fill:none;" />
<text x="728.4" y="2359.4" font-size="18.2px" font-family="CMUBright-Roman" style="text-anchor:end;fill:rgb(0,0,0);" transform="rotate(-47.8,728.4,2359.4)" >2450</text>
<line x1='693.0' y1='2283.9' x2='678.7' y2='2297.8' style="stroke-width:4.0;stroke:rgb(0,0,0);stroke-linecap:round;fill:none;" />
<text x="676.1" y="2309.4" font-size="18.2px" font-family="CMUBright-Roman" style="text-anchor:end;fill:rgb(0,0,0);" transform="rotate(-44.2,676.1,2309.4)" >2500</text>
<line x1='645.6' y1='2231.8' x2='630.4' y2='2244.8' style="stroke-width:4.0;stroke:rgb(0,0,0);stroke-linecap:round;fill:none;" />
<text x="627.0" y="2256.3" font-size="18.2px" font-family="CMUBright-Roman" style="text-anchor:end;fill:rgb(0,0,0);" transform="rotate(-40.6,627.0,2256.3)" >2550</text>
<line x1='601.4' y1='2176.9' x2='585.5' y2='2188.9' style="stroke-width:4.0;stroke:rgb(0,0,0);stroke-linecap:round;fill:none;" />
<text x="581.4" y="2200.1" font-size="18.2px" font-family="CMUBright-Roman" style="text-anchor:end;fill:rgb(0,0,0);" transform="rotate(-37.0,581.4,2200.1)" >2600</text>
<line x1='560.8' y1='2119.3' x2='544.1' y2='2130.3' style="stroke-width:4.0;stroke:rgb(0,0,0);stroke-linecap:round;fill:none;" />
<text x="539.4" y="2141.3" font-size="18.2px" font-family="CMUBright-Roman" style="text-anchor:end;fill:rgb(0,0,0);" transform="rotate(-33.4,539.4,2141.3)" >2650</text>
<line x1='523.9' y1='2059.3' x2='506.5' y2='2069.3' style="stroke-width:4.0;stroke:rgb(0,0,0);stroke-linecap:round;fill:none;" />
<text x="501.1" y="2079.9" font-size="18.2px" font-family="CMUBright-Roman" style="text-anchor:end;fill:rgb(0,0,0);" transform="rotate(-29.8,501.1,2079.9)" >2700</text>
<line x1='490.8' y1='1997.1' x2='472.9' y2='2006.0' style="stroke-width:4.0;stroke:rgb(0,0,0);stroke-linecap:round;fill:none;" />
<text x="466.8" y="2016.2" font-size="18.2px" font-family="CMUBright-Roman" style="text-anchor:end;fill:rgb(0,0,0);" transform="rotate(-26.2,466.8,2016.2)" >2750</text>
<line x1='461.7' y1='1933.0' x2='443.2' y2='1940.7' style="stroke-width:4.0;stroke:rgb(0,0,0);stroke-linecap:round;fill:none;" />
<text x="436.5" y="1950.5" font-size="18.2px" font-family="CMUBright-Roman" style="text-anchor:end;fill:rgb(0,0,0);" transform="rotate(-22.6,436.5,1950.5)" >2800</text>
<line x1='436.6' y1='1867.1' x2='417.7' y2='1873.7' style="stroke-width:4.0;stroke:rgb(0,0,0);stroke-linecap:round;fill:none;" />
<text x="410.4" y="1883.1" font-size="18.2px" font-family="CMUBright-Roman" style="text-anchor:end;fill:rgb(0,0,0);" transform="rotate(-19.0,410.4,1883.1)" >2850</text>
<line x1='415.7' y1='1799.8' x2='396.4' y2='1805.2' style="stroke-width:4.0;stroke:rgb(0,0,0);stroke-linecap:round;fill:none;" />
<text x="388.5" y="1814.1" font-size="18.2px" font-family="CMUBright-Roman" style="text-anchor:end;fill:rgb(0,0,0);" transform="rotate(-15.5,388.5,1814.1)" >2900</text>
<line x1='399.1' y1='1731.4' x2='379.5' y2='1735.5' style="stroke-width:4.0;stroke:rgb(0,0,0);stroke-linecap:round;fill:none;" />
<text x="371.0" y="1743.9" font-size="18.2px" font-family="CMUBright-Roman" style="text-anchor:end;fill:rgb(0,0,0);" transform="rotate(-11.9,371.0,1743.9)" >2950</text>
<line x1='386.7' y1='1662.0' x2='366.9' y2='1664.9' style="stroke-width:4.0;stroke:rgb(0,0,0);stroke-linecap:round;fill:none;" />
<text x="358.0" y="1672.8" font-size="18.2px" font-family="CMUBright-Roman" style="text-anchor:end;fill:rgb(0,0,0);" transform="rotate(-8.3,358.0,1672.8)" >3000</text>
<line x1='378.8' y1='1592.0' x2='358.8' y2='1593.6' style="stroke-width:4.0;stroke:rgb(0,0,0);stroke-linecap:round;fill:none;" />
<text x="349.4" y="1600.9" font-size="18.2px" font-family="CMUBright-Roman" style="text-anchor:end;fill:rgb(0,0,0);" transform="rotate(-4.7,349.4,1600.9)" >3050</text>
<line x1='375.2' y1='1521.6' x2='355.2' y2='1522.0' style="stroke-width:4.0;stroke:rgb(0,0,0);stroke-linecap:round;fill:none;" />
<text x="345.4" y="1528.7" font-size="18.2px" font-family="CMUBright-Roman" style="text-anchor:end;fill:rgb(0,0,0);" transform="rotate(-1.1,345.4,1528.7)" >3100</text>
<line x1='376.1' y1='1451.2' x2='356.1' y2='1450.3' style="stroke-width:4.0;stroke:rgb(0,0,0);stroke-linecap:round;fill:none;" />
<text x="345.8" y="1456.4" font-size="18.2px" font-family="CMUBright-Roman" style="text-anchor:end;fill:rgb(0,0,0);" transform="rotate(2.5,345.8,1456.4)" >3150</text>
<line x1='381.3' y1='1380.9' x2='361.4' y2='1378.8' style="stroke-width:4.0;stroke:rgb(0,0,0);stroke-linecap:round;fill:none;" />
<text x="350.8" y="1384.2" font-size="18.2px" font-family="CMUBright-Roman" style="text-anchor:end;fill:rgb(0,0,0);" transform="rotate(6.1,350.8,1384.2)" >3200</text>
<line x1='391.0' y1='1311.1' x2='371.3' y2='1307.8' style="stroke-width:4.0;stroke:rgb(0,0,0);stroke-linecap:round;fill:none;" />
<text x="360.3" y="1312.5" font-size="18.2px" font-family="CMUBright-Roman" style="text-anchor:end;fill:rgb(0,0,0);" transform="rotate(9.7,360.3,1312.5)" >3250</text>
<line x1='405.0' y1='1242.1' x2='385.5' y2='1237.5' style="stroke-width:4.0;stroke:rgb(0,0,0);stroke-linecap:round;fill:none;" />
<text x="374.3" y="1241.5" font-size="18.2px" font-family="CMUBright-Roman" style="text-anchor:end;fill:rgb(0,0,0);" transform="rotate(13.3,374.3,1241.5)" >3300</text>
<line x1='423.3' y1='1174.0' x2='404.1' y2='1168.2' style="stroke-width:4.0;stroke:rgb(0,0,0);stroke-linecap:round;fill:none;" />
<text x="392.7" y="1171.6" font-size="18.2px" font-family="CMUBright-Roman" style="text-anchor:end;fill:rgb(0,0,0);" transform="rotate(16.8,392.7,1171.6)" >3350</text>
<line x1='445.8' y1='1107.3' x2='427.0' y2='1100.3' style="stroke-width:4.0;stroke:rgb(0,0,0);stroke-linecap:round;fill:none;" />
<text x="415.4" y="1102.9" font-size="18.2px" font-family="CMUBright-Roman" style="text-anchor:end;fill:rgb(0,0,0);" transform="rotate(20.4,415.4,1102.9)" >3400</text>
<line x1='472.4' y1='1042.1' x2='454.2' y2='1033.9' style="stroke-width:4.0;stroke:rgb(0,0,0);stroke-linecap:round;fill:none;" />
<text x="442.4" y="1035.8" font-size="18.2px" font-family="CMUBright-Roman" style="text-anchor:end;fill:rgb(0,0,0);" transform="rotate(24.0,442.4,1035.8)" >3450</text>
<line x1='503.1' y1='978.6' x2='485.4' y2='969.4' style="stroke-width:4.0;stroke:rgb(0,0,0);stroke-linecap:round;fill:none;" />
<text x="473.5" y="970.5" font-size="18.2px" font-family="CMUBright-Roman" style="text-anchor:end;fill:rgb(0,0,0);" transform="rotate(27.6,473.5,970.5)" >3500</text>
<line x1='537.7' y1='917.3' x2='520.6' y2='906.9' style="stroke-width:4.0;stroke:rgb(0,0,0);stroke-linecap:round;fill:none;" />
<text x="508.7" y="907.3" font-size="18.2px" font-family="CMUBright-Roman" style="text-anchor:end;fill:rgb(0,0,0);" transform="rotate(31.2,508.7,907.3)" >3550</text>
<line x1='576.1' y1='858.2' x2='559.6' y2='846.7' style="stroke-width:4.0;stroke:rgb(0,0,0);stroke-linecap:round;fill:none;" />
<text x="547.7" y="846.4" font-size="18.2px" font-family="CMUBright-Roman" style="text-anchor:end;fill:rgb(0,0,0);" transform="rotate(34.8,547.7,846.4)" >3600</text>
<line x1='618.1' y1='801.6' x2='602.4' y2='789.2' style="stroke-width:4.0;stroke:rgb(0,0,0);stroke-linecap:round;fill:none;" />
<text x="590.5" y="788.1" font-size="18.2px" font-family="CMUBright-Roman" style="text-anchor:end;fill:rgb(0,0,0);" transform="rotate(38.4,590.5,788.1)" >3650</text>
<line x1='663.5' y1='747.7' x2='648.6' y2='734.4' style="stroke-width:4.0;stroke:rgb(0,0,0);stroke-linecap:round;fill:none;" />
<text x="636.9" y="732.5" font-size="18.2px" font-family="CMUBright-Roman" style="text-anchor:end;fill:rgb(0,0,0);" transform="rotate(42.0,636.9,732.5)" >3700</text>
<line x1='712.2' y1='696.9' x2='698.2' y2='682.6' style="stroke-width:4.0;stroke:rgb(0,0,0);stroke-linecap:round;fill:none;" />
<text x="686.6" y="680.0" font-size="18.2px" font-family="CMUBright-Roman" style="text-anchor:end;fill:rgb(0,0,0);" transform="rotate(45.6,686.6,680.0)" >3750</text>
<line x1='764.0' y1='649.1' x2='751.0' y2='634.0' style="stroke-width:4.0;stroke:rgb(0,0,0);stroke-linecap:round;fill:none;" />
<text x="739.5" y="630.7" font-size="18.2px" font-family="CMUBright-Roman" style="text-anchor:end;fill:rgb(0,0,0);" transform="rotate(49.1,739.5,630.7)" >3800</text>
<line x1='818.8' y1='604.7' x2='806.6' y2='588.8' style="stroke-width:4.0;stroke:rgb(0,0,0);stroke-linecap:round;fill:none;" />
<text x="795.4" y="584.8" font-size="18.2px" font-family="CMUBright-Roman" style="text-anchor:end;fill:rgb(0,0,0);" transform="rotate(52.7,795.4,584.8)" >3850</text>
<line x1='876.1' y1='563.8' x2='865.0' y2='547.2' style="stroke-width:4.0;stroke:rgb(0,0,0);stroke-linecap:round;fill:none;" />
<text x="854.1" y="542.5" font-size="18.2px" font-family="CMUBright-Roman" style="text-anchor:end;fill:rgb(0,0,0);" transform="rotate(56.3,854.1,542.5)" >3900</text>
<line x1='936.0' y1='526.6' x2='925.9' y2='509.3' style="stroke-width:4.0;stroke:rgb(0,0,0);stroke-linecap:round;fill:none;" />
<text x="915.3" y="503.9" font-size="18.2px" font-family="CMUBright-Roman" style="text-anchor:end;fill:rgb(0,0,0);" transform="rotate(59.9,915.3,503.9)" >3950</text>
<line x1='998.0' y1='493.2' x2='989.1' y2='475.3' style="stroke-width:4.0;stroke:rgb(0,0,0);stroke-linecap:round;fill:none;" />
<text x="978.8" y="469.3" font-size="18.2px" font-family="CMUBright-Roman" style="text-anchor:end;fill:rgb(0,0,0);" transform="rotate(63.5,978.8,469.3)" >4000</text>
<line x1='1062.0' y1='463.8' x2='1054.2' y2='445.3' style="stroke-width:4.0;stroke:rgb(0,0,0);stroke-linecap:round;fill:none;" />
<text x="1044.3" y="438.7" font-size="18.2px" font-family="CMUBright-Roman" style="text-anchor:end;fill:rgb(0,0,0);" transform="rotate(67.1,1044.3,438.7)" >4050</text>
<line x1='1127.7' y1='438.4' x2='1121.1' y2='419.5' style="stroke-width:4.0;stroke:rgb(0,0,0);stroke-linecap:round;fill:none;" />
<text x="1111.7" y="412.2" font-size="18.2px" font-family="CMUBright-Roman" style="text-anchor:end;fill:rgb(0,0,0);" transform="rotate(70.7,1111.7,412.2)" >4100</text>
<line x1='1194.9' y1='417.2' x2='1189.5' y2='397.9' style="stroke-width:4.0;stroke:rgb(0,0,0);stroke-linecap:round;fill:none;" />
<text x="1180.5" y="390.1" font-size="18.2px" font-family="CMUBright-Roman" style="text-anchor:end;fill:rgb(0,0,0);" transform="rotate(74.3,1180.5,390.1)" >4150</text>
<line x1='1263.3' y1='400.2' x2='1259.1' y2='380.6' style="stroke-width:4.0;stroke:rgb(0,0,0);stroke-linecap:round;fill:none;" />
<text x="1250.6" y="372.2" font-size="18.2px" font-family="CMUBright-Roman" style="text-anchor:end;fill:rgb(0,0,0);" transform="rotate(77.9,1250.6,372.2)" >4200</text>
<line x1='1332.6' y1='387.5' x2='1329.6' y2='367.7' style="stroke-width:4.0;stroke:rgb(0,0,0);stroke-linecap:round;fill:none;" />
<text x="1321.7" y="358.8" font-size="18.2px" font-family="CMUBright-Roman" style="text-anchor:end;fill:rgb(0,0,0);" transform="rotate(81.4,1321.7,358.8)" >4250</text>
<line x1='1402.6' y1='379.2' x2='1400.8' y2='359.3' style="stroke-width:4.0;stroke:rgb(0,0,0);stroke-linecap:round;fill:none;" />
<text x="1393.5" y="349.9" font-size="18.2px" font-family="CMUBright-Roman" style="text-anchor:end;fill:rgb(0,0,0);" transform="rotate(85.0,1393.5,349.9)" >4300</text>
<g id="highlighttrack_0">
<path d="M2396.982,907.507 A1075.000,1075.000 40.000 0,1 2399.328,911.074 L2441.157,883.682 A1125.000,1125.000 0.000 0,0 2438.702,879.949 Z" style="stroke-width:4.0;stroke:rgb(0,0,0);stroke-linecap:round;fill:rgb(251,106,74);" />
<path d="M2433.653,967.162 A1075.000,1075.000 40.000 0,1 2435.704,970.771 L2479.225,946.155 A1125.000,1125.000 0.000 0,0 2477.079,942.379 Z" style="stroke-width:4.0;stroke:rgb(0,0,0);stroke-linecap:round;fill:rgb(251,106,74);" />
<path d="M2423.696,2049.918 A1075.000,1075.000 40.000 0,1 2421.566,2053.481 L2464.430,2079.224 A1125.000,1125.000 0.000 0,0 2466.659,2075.496 Z" style="stroke-width:4.0;stroke:rgb(0,0,0);stroke-linecap:round;fill:rgb(251,106,74);" />
<path d="M1671.800,2561.183 A1075.000,1075.000 40.000 0,1 1667.434,2561.881 L1675.222,2611.271 A1125.000,1125.000 0.000 0,0 1679.790,2610.541 Z" style="stroke-width:4.0;stroke:rgb(0,0,0);stroke-linecap:round;fill:rgb(251,106,74);" />
<path d="M839.728,651.669 A1075.000,1075.000 40.000 0,1 842.997,649.135 L812.438,609.560 A1125.000,1125.000 0.000 0,0 809.018,612.211 Z" style="stroke-width:4.0;stroke:rgb(0,0,0);stroke-linecap:round;fill:rgb(116,196,118);" />
<path d="M847.366,645.779 A1075.000,1075.000 40.000 0,1 850.709,643.235 L820.509,603.386 A1125.000,1125.000 0.000 0,0 817.011,606.048 Z" style="stroke-width:4.0;stroke:rgb(0,0,0);stroke-linecap:round;fill:rgb(116,196,118);" />
<path d="M1252.521,453.874 A1075.000,1075.000 40.000 0,1 1256.562,452.926 L1245.239,404.225 A1125.000,1125.000 0.000 0,0 1241.011,405.217 Z" style="stroke-width:4.0;stroke:rgb(0,0,0);stroke-linecap:round;fill:rgb(116,196,118);" />
<path d="M1357.298,434.514 A1075.000,1075.000 40.000 0,1 1361.413,433.971 L1354.967,384.388 A1125.000,1125.000 0.000 0,0 1350.661,384.956 Z" style="stroke-width:4.0;stroke:rgb(0,0,0);stroke-linecap:round;fill:rgb(116,196,118);" />
<path d="M2415.468,936.491 A1075.000,1075.000 40.000 0,1 2420.146,944.162 L2462.944,918.309 A1125.000,1125.000 0.000 0,0 2458.048,910.281 Z" style="stroke-width:4.0;stroke:rgb(0,0,0);stroke-linecap:round;fill:rgb(116,196,118);" />
</g>
</g>
<g id="track_0">
<path d="M 2388.012,913.432 A 1064.250,1064.250 0.00 0,1 2390.3,917.0 L 2390.3,917.0 2329.0,956.9 2272.2,993.6 2219.6,1027.2 2171.0,1057.9 2126.3,1085.7 2085.2,1110.8 2047.6,1133.3 2013.2,1153.4 1982.1,1171.2 1953.9,1186.7 1928.6,1200.0 1906.1,1211.3 1886.2,1220.5 1868.8,1227.7 1853.9,1233.0 1841.4,1236.5 1831.3,1238.0 1823.4,1237.7 1817.8,1235.5 1814.4,1231.5 1813.2,1225.5 1814.2,1217.7 1817.4,1208.0 1822.9,1196.2 1830.6,1182.5 1840.7,1166.6 1853.1,1148.5 1868.0,1128.2 1885.4,1105.5 1905.5,1080.4 1928.2,1052.6 1953.8,1022.2 1982.4,988.9 2014.1,952.7 2049.1,913.3 2087.5,870.6 2129.4,824.4 2175.2,774.6 2225.0,720.9  A 1064.250,1064.250 0.00 0,0 2221.9,718.0 L 2221.9,718.0 2172.3,771.9 2126.8,821.9 2085.0,868.3 2046.7,911.1 2012.0,950.6 1980.4,987.0 1952.0,1020.4 1926.5,1050.9 1903.8,1078.8 1883.9,1104.0 1866.5,1126.7 1851.7,1147.1 1839.4,1165.2 1829.4,1181.1 1821.7,1195.0 1816.2,1206.7 1813.0,1216.5 1812.1,1224.3 1813.3,1230.2 1816.7,1234.2 1822.3,1236.4 1830.2,1236.7 1840.4,1235.1 1852.9,1231.6 1867.7,1226.3 1885.0,1219.0 1904.9,1209.7 1927.4,1198.3 1952.6,1184.9 1980.8,1169.3 2011.9,1151.4 2046.1,1131.2 2083.6,1108.4 2124.6,1083.2 2169.2,1055.2 2217.7,1024.4 2270.1,990.6 2326.8,953.7 2388.0,913.4  Z" style="stroke-width: 2.0;  stroke: rgb(82,82,82); fill: rgb(251,106,74); opacity: 0.667;" />
<path d="M 2424.317,972.490 A 1064.250,1064.250 0.00 0,1 2426.3,976.1 L 2426.3,976.1 2362.5,1011.9 2303.3,1044.8 2248.5,1074.7 2197.9,1101.9 2151.3,1126.5 2108.4,1148.6 2069.1,1168.3 2033.2,1185.7 2000.5,1200.9 1971.0,1214.1 1944.4,1225.2 1920.6,1234.4 1899.5,1241.7 1881.1,1247.1 1865.2,1250.7 1851.8,1252.5 1840.7,1252.5 1832.0,1250.8 1825.6,1247.3 1821.5,1242.1 1819.6,1235.0 1819.9,1226.1 1822.5,1215.4 1827.4,1202.8 1834.6,1188.1 1844.2,1171.5 1856.1,1152.7 1870.6,1131.7 1887.6,1108.4 1907.2,1082.7 1929.7,1054.5 1955.0,1023.7 1983.3,990.0 2014.7,953.4 2049.5,913.8 2087.7,870.9 2129.5,824.5 2175.2,774.6 2225.0,720.9  A 1064.250,1064.250 0.00 0,0 2221.9,718.0 L 2221.9,718.0 2172.4,771.9 2126.9,822.0 2085.2,868.5 2047.1,911.6 2012.5,951.4 1981.2,988.1 1953.1,1021.9 1927.9,1052.8 1905.6,1081.1 1886.0,1106.9 1869.1,1130.3 1854.8,1151.3 1842.9,1170.1 1833.4,1186.8 1826.2,1201.5 1821.4,1214.1 1818.8,1224.9 1818.5,1233.8 1820.4,1240.8 1824.6,1246.1 1831.0,1249.5 1839.8,1251.2 1850.8,1251.1 1864.2,1249.3 1880.1,1245.6 1898.5,1240.1 1919.6,1232.8 1943.3,1223.5 1969.8,1212.3 1999.3,1199.0 2031.9,1183.6 2067.8,1166.1 2107.0,1146.2 2149.8,1124.0 2196.4,1099.2 2246.9,1071.8 2301.6,1041.7 2360.6,1008.6 2424.3,972.5  Z" style="stroke-width: 2.0;  stroke: rgb(82,82,82); fill: rgb(116,196,118); opacity: 0.667;" />
<path d="M 2424.317,972.490 A 1064.250,1064.250 0.00 0,1 2426.3,976.1 L 2426.3,976.1 2362.6,1012.1 2303.7,1045.3 2249.3,1075.8 2199.3,1103.8 2153.3,1129.4 2111.3,1152.7 2073.1,1173.8 2038.4,1192.8 2007.1,1209.8 1979.0,1224.9 1954.1,1238.1 1932.2,1249.6 1913.1,1259.4 1896.9,1267.5 1883.3,1274.0 1872.4,1278.9 1864.1,1282.3 1858.4,1284.1 1855.1,1284.4 1854.4,1283.2 1856.1,1280.5 1860.4,1276.2 1867.2,1270.4 1876.6,1262.9 1888.6,1253.9 1903.2,1243.2 1920.6,1230.7 1940.9,1216.5 1964.1,1200.4 1990.4,1182.4 2019.9,1162.4 2052.7,1140.3 2089.0,1115.9 2128.9,1089.3 2172.7,1060.2 2220.5,1028.6 2272.6,994.3 2329.1,957.1 2390.3,917.0  A 1064.250,1064.250 0.00 0,0 2388.0,913.4 L 2388.0,913.4 2327.0,953.8 2270.6,991.2 2218.7,1025.7 2171.0,1057.5 2127.3,1086.8 2087.4,1113.6 2051.2,1138.1 2018.5,1160.3 1989.1,1180.5 1962.9,1198.6 1939.8,1214.8 1919.6,1229.1 1902.2,1241.6 1887.6,1252.4 1875.6,1261.5 1866.3,1268.9 1859.5,1274.8 1855.3,1279.1 1853.5,1281.8 1854.3,1283.1 1857.5,1282.7 1863.3,1280.9 1871.6,1277.5 1882.4,1272.5 1896.0,1266.0 1912.2,1257.8 1931.2,1248.0 1953.1,1236.4 1978.0,1223.0 2006.0,1207.8 2037.2,1190.7 2071.8,1171.5 2110.0,1150.3 2151.9,1126.9 2197.7,1101.1 2247.7,1072.9 2301.9,1042.2 2360.7,1008.7 2424.3,972.5  Z" style="stroke-width: 2.0;  stroke: rgb(82,82,82); fill: rgb(107,174,214); opacity: 0.667;" />
<path d="M 2414.459,2044.419 A 1064.250,1064.250 0.00 0,1 2412.4,2047.9 L 2412.4,2047.9 2349.8,2009.4 2292.2,1972.2 2239.4,1936.2 2190.9,1901.4 2146.7,1867.6 2106.3,1834.9 2069.7,1803.1 2036.4,1772.1 2006.3,1742.0 1979.3,1712.5 1955.1,1683.7 1933.7,1655.4 1914.7,1627.5 1898.2,1600.1 1883.9,1572.8 1871.9,1545.8 1862.0,1518.8 1854.1,1491.9 1848.3,1464.8 1844.4,1437.4 1842.5,1409.8 1842.6,1381.7 1844.7,1353.0 1848.8,1323.7 1854.9,1293.6 1863.2,1262.6 1873.7,1230.6 1886.5,1197.5 1901.7,1163.1 1919.5,1127.3 1940.1,1090.0 1963.5,1051.1 1989.9,1010.3 2019.6,967.7 2052.8,923.0 2089.7,876.1 2130.5,826.9 2175.5,775.2 2225.0,720.9  A 1064.250,1064.250 0.00 0,0 2221.9,718.0 L 2221.9,718.0 2172.6,772.5 2127.8,824.4 2087.2,873.8 2050.5,920.8 2017.5,965.7 1988.0,1008.4 1961.7,1049.2 1938.4,1088.3 1918.1,1125.7 1900.4,1161.5 1885.3,1196.0 1872.6,1229.2 1862.2,1261.2 1854.1,1292.2 1848.1,1322.3 1844.1,1351.7 1842.1,1380.3 1842.2,1408.4 1844.2,1436.1 1848.1,1463.4 1854.1,1490.5 1862.1,1517.4 1872.1,1544.4 1884.2,1571.4 1898.5,1598.5 1915.2,1625.9 1934.2,1653.7 1955.8,1681.9 1980.1,1710.6 2007.3,1740.0 2037.4,1770.0 2070.8,1800.9 2107.6,1832.5 2148.1,1865.1 2192.5,1898.7 2241.0,1933.4 2294.0,1969.2 2351.7,2006.2 2414.5,2044.4  Z" style="stroke-width: 2.0;  stroke: rgb(82,82,82); fill: rgb(253,141,60); opacity: 0.667;" />
<path d="M 2414.459,2044.419 A 1064.250,1064.250 0.00 0,1 2412.4,2047.9 L 2412.4,2047.9 2349.8,2009.6 2292.3,1972.8 2239.5,1937.5 2191.3,1903.6 2147.3,1871.0 2107.4,1839.7 2071.2,1809.4 2038.5,1780.3 2009.3,1752.1 1983.2,1724.8 1960.2,1698.3 1940.0,1672.5 1922.6,1647.3 1907.8,1622.7 1895.6,1598.5 1885.8,1574.7 1878.4,1551.1 1873.4,1527.7 1870.7,1504.4 1870.2,1481.1 1872.0,1457.8 1876.2,1434.2 1882.6,1410.4 1891.5,1386.2 1902.8,1361.5 1916.6,1336.3 1933.0,1310.5 1952.1,1284.0 1974.1,1256.6 1999.1,1228.3 2027.2,1199.0 2058.7,1168.6 2093.7,1137.0 2132.4,1104.1 2175.1,1069.8 2221.9,1034.1 2273.3,996.7 2329.3,957.7 2390.3,917.0  A 1064.250,1064.250 0.00 0,0 2388.0,913.4 L 2388.0,913.4 2327.1,954.4 2271.3,993.7 2220.1,1031.2 2173.4,1067.1 2130.8,1101.6 2092.2,1134.6 2057.4,1166.4 2026.0,1196.9 1998.0,1226.3 1973.1,1254.7 1951.3,1282.2 1932.2,1308.8 1915.9,1334.7 1902.2,1359.9 1891.0,1384.6 1882.3,1408.9 1875.9,1432.7 1871.9,1456.3 1870.1,1479.7 1870.7,1503.0 1873.5,1526.3 1878.6,1549.6 1886.1,1573.2 1896.0,1597.0 1908.3,1621.1 1923.2,1645.7 1940.7,1670.8 1960.9,1696.5 1984.1,1722.9 2010.3,1750.1 2039.6,1778.2 2072.4,1807.2 2108.7,1837.3 2148.8,1868.5 2192.9,1900.9 2241.2,1934.6 2294.1,1969.7 2351.7,2006.3 2414.5,2044.4  Z" style="stroke-width: 2.0;  stroke: rgb(82,82,82); fill: rgb(255,0,0); opacity: 0.667;" />
<path d="M 2414.459,2044.419 A 1064.250,1064.250 0.00 0,1 2412.4,2047.9 L 2412.4,2047.9 2349.8,2009.6 2292.3,1973.0 2239.6,1937.8 2191.4,1904.2 2147.4,1871.9 2107.5,1841.0 2071.4,1811.2 2038.9,1782.5 2009.8,1754.9 1983.9,1728.2 1961.1,1702.4 1941.2,1677.3 1924.1,1652.9 1909.7,1629.1 1897.9,1605.8 1888.6,1582.9 1881.8,1560.4 1877.4,1538.1 1875.3,1515.9 1875.6,1493.9 1878.2,1471.8 1883.2,1449.6 1890.7,1427.2 1900.6,1404.6 1913.0,1381.6 1928.0,1358.2 1945.7,1334.3 1966.2,1309.7 1989.7,1284.5 2016.3,1258.5 2046.1,1231.6 2079.4,1203.8 2116.2,1175.0 2156.9,1145.1 2201.7,1114.0 2250.7,1081.6 2304.3,1047.9 2362.8,1012.7 2426.3,976.1  A 1064.250,1064.250 0.00 0,0 2424.3,972.5 L 2424.3,972.5 2360.9,1009.4 2302.6,1044.8 2249.1,1078.7 2200.2,1111.3 2155.6,1142.6 2115.0,1172.6 2078.2,1201.6 2045.1,1229.5 2015.4,1256.5 1988.9,1282.6 1965.5,1307.9 1945.1,1332.5 1927.4,1356.5 1912.5,1380.0 1900.2,1403.1 1890.4,1425.7 1883.1,1448.1 1878.1,1470.3 1875.6,1492.4 1875.3,1514.5 1877.5,1536.6 1882.0,1558.9 1889.0,1581.4 1898.3,1604.3 1910.2,1627.5 1924.7,1651.3 1941.9,1675.6 1961.9,1700.6 1984.8,1726.4 2010.8,1753.0 2040.0,1780.5 2072.6,1809.0 2108.8,1838.6 2148.9,1869.4 2192.9,1901.5 2241.2,1935.0 2294.1,1969.9 2351.7,2006.3 2414.5,2044.4  Z" style="stroke-width: 2.0;  stroke: rgb(82,82,82); fill: rgb(255,0,204); opacity: 0.667;" />
<path d="M 1670.082,2550.571 A 1064.250,1064.250 0.00 0,1 1665.8,2551.3 L 1665.8,2551.3 1655.3,2478.1 1647.6,2408.7 1642.2,2342.8 1639.0,2280.2 1637.7,2220.6 1638.2,2163.9 1640.1,2109.8 1643.4,2058.1 1647.8,2008.6 1653.3,1961.1 1659.6,1915.4 1666.8,1871.2 1674.6,1828.5 1683.1,1787.0 1692.1,1746.5 1701.6,1707.0 1711.6,1668.1 1722.1,1629.8 1733.1,1591.8 1744.6,1554.1 1756.7,1516.5 1769.4,1478.9 1782.8,1441.0 1797.1,1402.9 1812.2,1364.3 1828.4,1325.2 1845.8,1285.4 1864.5,1244.8 1884.8,1203.3 1906.8,1160.8 1930.8,1117.3 1957.0,1072.6 1985.6,1026.7 2016.9,979.4 2051.3,930.7 2088.9,880.6 2130.2,829.0 2175.4,775.7 2225.0,720.9  A 1064.250,1064.250 0.00 0,0 2221.9,718.0 L 2221.9,718.0 2172.6,773.1 2127.5,826.5 2086.5,878.3 2049.0,928.6 2014.9,977.4 1983.7,1024.8 1955.3,1070.8 1929.3,1115.6 1905.5,1159.2 1883.6,1201.8 1863.5,1243.3 1844.9,1284.0 1827.7,1323.9 1811.7,1363.1 1796.7,1401.7 1782.6,1439.9 1769.4,1477.8 1756.8,1515.5 1744.9,1553.2 1733.5,1590.9 1722.7,1628.9 1712.3,1667.2 1702.5,1706.1 1693.1,1745.8 1684.3,1786.2 1676.0,1827.8 1668.3,1870.5 1661.3,1914.7 1655.2,1960.5 1649.9,2008.0 1645.7,2057.5 1642.6,2109.2 1640.9,2163.3 1640.7,2220.0 1642.2,2279.6 1645.7,2342.2 1651.3,2408.0 1659.4,2477.4 1670.1,2550.6  Z" style="stroke-width: 2.0;  stroke: rgb(82,82,82); fill: rgb(255,204,204); opacity: 0.667;" />
<path d="M 1670.082,2550.571 A 1064.250,1064.250 0.00 0,1 1665.8,2551.3 L 1665.8,2551.3 1655.3,2478.2 1647.4,2409.2 1641.9,2344.0 1638.5,2282.3 1637.1,2223.8 1637.5,2168.5 1639.5,2115.9 1642.9,2065.9 1647.6,2018.3 1653.5,1972.9 1660.6,1929.4 1668.6,1887.7 1677.6,1847.6 1687.4,1808.9 1698.1,1771.4 1709.7,1735.0 1722.0,1699.5 1735.2,1664.8 1749.2,1630.6 1764.1,1597.0 1780.0,1563.7 1796.9,1530.6 1814.9,1497.6 1834.2,1464.6 1854.8,1431.5 1876.8,1398.2 1900.5,1364.6 1926.0,1330.7 1953.5,1296.3 1983.2,1261.4 2015.3,1225.9 2050.0,1189.8 2087.7,1153.1 2128.5,1115.6 2172.7,1077.4 2220.7,1038.5 2272.7,998.8 2329.2,958.2 2390.3,917.0  A 1064.250,1064.250 0.00 0,0 2388.0,913.4 L 2388.0,913.4 2327.0,955.0 2270.8,995.7 2218.9,1035.6 2171.0,1074.7 2126.9,1113.1 2086.3,1150.7 2048.8,1187.6 2014.2,1223.9 1982.3,1259.5 1952.7,1294.5 1925.3,1329.0 1900.0,1363.0 1876.4,1396.7 1854.5,1430.1 1834.0,1463.3 1814.9,1496.3 1797.1,1529.4 1780.3,1562.5 1764.6,1595.9 1749.8,1629.6 1735.9,1663.8 1722.8,1698.6 1710.6,1734.2 1699.3,1770.6 1688.7,1808.1 1679.0,1846.9 1670.2,1887.0 1662.3,1928.7 1655.5,1972.2 1649.7,2017.7 1645.2,2065.3 1642.0,2115.3 1640.2,2167.9 1640.1,2223.3 1641.8,2281.7 1645.4,2343.4 1651.2,2408.6 1659.3,2477.6 1670.1,2550.6  Z" style="stroke-width: 2.0;  stroke: rgb(82,82,82); fill: rgb(255,153,0); opacity: 0.667;" />
<path d="M 1670.082,2550.571 A 1064.250,1064.250 0.00 0,1 1665.8,2551.3 L 1665.8,2551.3 1655.3,2478.3 1647.4,2409.4 1641.8,2344.3 1638.4,2282.8 1636.9,2224.7 1637.2,2169.7 1639.1,2117.5 1642.5,2068.0 1647.3,2020.9 1653.3,1976.1 1660.4,1933.3 1668.6,1892.3 1677.8,1852.9 1687.9,1815.0 1699.0,1778.4 1710.9,1742.9 1723.8,1708.4 1737.5,1674.8 1752.2,1641.8 1767.9,1609.3 1784.6,1577.3 1802.4,1545.6 1821.4,1514.1 1841.8,1482.7 1863.6,1451.3 1886.9,1419.8 1912.0,1388.1 1939.1,1356.2 1968.2,1324.0 1999.6,1291.4 2033.5,1258.4 2070.1,1224.9 2109.8,1191.0 2152.7,1156.5 2199.1,1121.5 2249.4,1086.0 2303.8,1049.9 2362.7,1013.3 2426.3,976.1  A 1064.250,1064.250 0.00 0,0 2424.3,972.5 L 2424.3,972.5 2360.8,1009.9 2302.0,1046.8 2247.8,1083.1 2197.6,1118.8 2151.3,1154.0 2108.6,1188.6 2069.1,1222.7 2032.5,1256.3 1998.8,1289.5 1967.5,1322.2 1938.5,1354.5 1911.6,1386.5 1886.6,1418.3 1863.4,1449.9 1841.7,1481.4 1821.5,1512.8 1802.6,1544.4 1784.9,1576.2 1768.3,1608.3 1752.8,1640.8 1738.2,1673.8 1724.6,1707.6 1711.9,1742.1 1700.1,1777.6 1689.2,1814.3 1679.2,1852.2 1670.2,1891.6 1662.2,1932.6 1655.2,1975.5 1649.4,2020.3 1644.9,2067.4 1641.7,2117.0 1640.0,2169.1 1639.9,2224.1 1641.6,2282.3 1645.3,2343.7 1651.1,2408.7 1659.3,2477.6 1670.1,2550.6  Z" style="stroke-width: 2.0;  stroke: rgb(82,82,82); fill: rgb(255,204,0); opacity: 0.667;" />
<path d="M 1670.082,2550.571 A 1064.250,1064.250 0.00 0,1 1665.8,2551.3 L 1665.8,2551.3 1654.9,2478.8 1645.8,2411.3 1638.5,2348.7 1632.8,2290.7 1628.6,2236.9 1625.9,2187.2 1624.7,2141.3 1624.8,2099.1 1626.3,2060.3 1629.0,2024.8 1633.0,1992.3 1638.2,1962.7 1644.6,1935.9 1652.2,1911.7 1661.1,1890.1 1671.2,1870.9 1682.5,1854.0 1695.2,1839.3 1709.1,1826.8 1724.5,1816.5 1741.3,1808.2 1759.7,1801.9 1779.6,1797.8 1801.2,1795.6 1824.6,1795.5 1849.9,1797.5 1877.1,1801.6 1906.5,1807.9 1938.1,1816.4 1972.1,1827.2 2008.6,1840.4 2047.8,1856.1 2089.8,1874.5 2134.9,1895.6 2183.2,1919.6 2234.8,1946.7 2290.1,1977.0 2349.2,2010.6 2412.4,2047.9  A 1064.250,1064.250 0.00 0,0 2414.5,2044.4 L 2414.5,2044.4 2351.2,2007.4 2292.0,1973.9 2236.6,1943.8 2184.8,1917.0 2136.4,1893.1 2091.3,1872.2 2049.1,1854.0 2009.9,1838.5 1973.3,1825.4 1939.3,1814.7 1907.7,1806.3 1878.3,1800.1 1851.0,1796.1 1825.8,1794.3 1802.4,1794.4 1780.8,1796.7 1760.9,1800.9 1742.6,1807.2 1725.8,1815.6 1710.5,1826.0 1696.5,1838.5 1683.9,1853.3 1672.7,1870.2 1662.6,1889.5 1653.9,1911.1 1646.3,1935.3 1640.0,1962.1 1635.0,1991.7 1631.1,2024.2 1628.6,2059.8 1627.3,2098.6 1627.3,2140.8 1628.8,2186.7 1631.6,2236.4 1636.0,2290.1 1641.9,2348.1 1649.5,2410.7 1658.9,2478.1 1670.1,2550.6  Z" style="stroke-width: 2.0;  stroke: rgb(82,82,82); fill: rgb(255,255,0); opacity: 0.667;" />
<path d="M 846.331,660.152 A 1064.250,1064.250 0.00 0,1 849.6,657.6 L 849.6,657.6 895.1,715.3 938.9,768.2 980.9,816.5 1021.3,860.5 1060.2,900.6 1097.7,936.9 1133.9,969.8 1168.8,999.3 1202.6,1025.8 1235.4,1049.4 1267.3,1070.2 1298.3,1088.5 1328.7,1104.4 1358.4,1117.9 1387.7,1129.3 1416.5,1138.5 1445.0,1145.7 1473.4,1150.9 1501.7,1154.1 1530.0,1155.4 1558.5,1154.8 1587.2,1152.2 1616.3,1147.7 1645.9,1141.1 1676.0,1132.5 1706.9,1121.8 1738.6,1108.7 1771.2,1093.4 1804.8,1075.5 1839.6,1055.1 1875.7,1031.8 1913.2,1005.6 1952.2,976.2 1992.9,943.5 2035.3,907.1 2079.6,867.0 2125.9,822.7 2174.3,774.1 2225.0,720.9  A 1064.250,1064.250 0.00 0,0 2221.9,718.0 L 2221.9,718.0 2171.4,771.5 2123.2,820.3 2077.1,864.7 2033.0,905.0 1990.7,941.5 1950.2,974.4 1911.3,1003.9 1873.9,1030.3 1837.9,1053.7 1803.1,1074.3 1769.6,1092.3 1737.0,1107.8 1705.4,1120.9 1674.6,1131.8 1644.5,1140.6 1614.9,1147.2 1585.9,1151.9 1557.2,1154.6 1528.7,1155.3 1500.4,1154.1 1472.1,1151.0 1443.7,1145.9 1415.1,1138.8 1386.2,1129.7 1356.9,1118.5 1327.2,1105.0 1296.8,1089.3 1265.6,1071.1 1233.7,1050.4 1200.8,1026.9 1166.9,1000.6 1131.8,971.2 1095.5,938.5 1057.9,902.3 1018.9,862.4 978.3,818.5 936.1,770.3 892.1,717.7 846.3,660.2  Z" style="stroke-width: 2.0;  stroke: rgb(82,82,82); fill: rgb(204,255,0); opacity: 0.667;" />
<path d="M 846.331,660.152 A 1064.250,1064.250 0.00 0,1 849.6,657.6 L 849.6,657.6 895.3,715.4 939.5,768.3 982.2,816.7 1023.5,861.0 1063.5,901.4 1102.4,938.2 1140.0,971.6 1176.6,1001.9 1212.3,1029.4 1247.1,1054.1 1281.1,1076.3 1314.4,1096.2 1347.2,1113.9 1379.4,1129.5 1411.3,1143.3 1442.9,1155.2 1474.4,1165.4 1505.9,1173.9 1537.4,1180.8 1569.1,1186.1 1601.2,1189.9 1633.7,1192.2 1666.8,1192.9 1700.6,1192.0 1735.2,1189.4 1770.8,1185.2 1807.6,1179.2 1845.5,1171.3 1885.0,1161.4 1925.9,1149.5 1968.6,1135.2 2013.1,1118.6 2059.6,1099.3 2108.4,1077.2 2159.4,1052.2 2213.0,1023.9 2269.2,992.1 2328.3,956.5 2390.3,917.0  A 1064.250,1064.250 0.00 0,0 2388.0,913.4 L 2388.0,913.4 2326.1,953.2 2267.2,989.0 2211.1,1021.0 2157.6,1049.6 2106.7,1074.8 2058.0,1097.1 2011.6,1116.5 1967.1,1133.4 1924.5,1147.8 1883.6,1159.9 1844.2,1169.9 1806.3,1178.0 1769.6,1184.1 1734.0,1188.5 1699.4,1191.2 1665.6,1192.2 1632.5,1191.6 1600.0,1189.5 1567.9,1185.9 1536.2,1180.6 1504.6,1173.9 1473.1,1165.5 1441.6,1155.4 1409.9,1143.6 1378.0,1130.0 1345.7,1114.5 1312.8,1096.9 1279.4,1077.1 1245.4,1055.1 1210.5,1030.5 1174.7,1003.2 1138.0,973.0 1100.2,939.7 1061.2,903.1 1021.1,862.8 979.5,818.7 936.6,770.4 892.3,717.7 846.3,660.2  Z" style="stroke-width: 2.0;  stroke: rgb(82,82,82); fill: rgb(0,255,0); opacity: 0.667;" />
<path d="M 846.331,660.152 A 1064.250,1064.250 0.00 0,1 849.6,657.6 L 849.6,657.6 895.3,715.4 939.6,768.3 982.5,816.8 1024.1,861.2 1064.4,901.7 1103.6,938.6 1141.6,972.3 1178.7,1002.8 1214.8,1030.6 1250.0,1055.7 1284.6,1078.3 1318.4,1098.7 1351.7,1117.0 1384.6,1133.3 1417.1,1147.7 1449.4,1160.5 1481.5,1171.5 1513.6,1181.1 1545.9,1189.1 1578.4,1195.7 1611.2,1200.8 1644.5,1204.5 1678.4,1206.7 1713.1,1207.5 1748.7,1206.8 1785.3,1204.5 1823.1,1200.6 1862.2,1195.0 1902.8,1187.5 1945.1,1178.0 1989.1,1166.5 2035.1,1152.7 2083.2,1136.5 2133.6,1117.6 2186.5,1095.9 2242.1,1071.2 2300.4,1043.1 2361.8,1011.5 2426.3,976.1  A 1064.250,1064.250 0.00 0,0 2424.3,972.5 L 2424.3,972.5 2359.9,1008.2 2298.7,1040.0 2240.4,1068.3 2185.0,1093.3 2132.2,1115.2 2081.8,1134.2 2033.7,1150.6 1987.8,1164.6 1943.8,1176.3 1901.6,1185.9 1861.0,1193.6 1821.9,1199.3 1784.2,1203.4 1747.6,1205.8 1712.0,1206.7 1677.3,1206.0 1643.4,1203.9 1610.0,1200.3 1577.2,1195.4 1544.7,1188.9 1512.4,1181.0 1480.2,1171.6 1448.1,1160.7 1415.7,1148.0 1383.2,1133.7 1350.3,1117.5 1316.9,1099.4 1282.9,1079.1 1248.3,1056.6 1213.0,1031.7 1176.7,1004.1 1139.6,973.7 1101.4,940.2 1062.1,903.4 1021.6,863.0 979.9,818.8 936.8,770.5 892.3,717.7 846.3,660.2  Z" style="stroke-width: 2.0;  stroke: rgb(82,82,82); fill: rgb(53,128,0); opacity: 0.667;" />
<path d="M 846.331,660.152 A 1064.250,1064.250 0.00 0,1 849.6,657.6 L 849.6,657.6 895.9,715.7 941.7,769.5 987.1,819.7 1031.7,866.4 1075.7,910.0 1118.8,950.9 1161.1,989.3 1202.5,1025.6 1243.0,1060.1 1282.6,1093.0 1321.2,1124.5 1358.9,1155.0 1395.7,1184.5 1431.7,1213.5 1466.8,1241.9 1501.1,1270.1 1534.8,1298.2 1567.9,1326.3 1600.5,1354.7 1632.6,1383.3 1664.6,1412.4 1696.4,1441.9 1728.2,1472.1 1760.2,1502.9 1792.5,1534.5 1825.5,1566.8 1859.1,1599.9 1893.8,1633.8 1929.6,1668.5 1966.8,1704.0 2005.8,1740.2 2046.7,1777.1 2089.8,1814.7 2135.4,1852.8 2183.8,1891.3 2235.4,1930.3 2290.5,1969.4 2349.3,2008.7 2412.4,2047.9  A 1064.250,1064.250 0.00 0,0 2414.5,2044.4 L 2414.5,2044.4 2351.3,2005.4 2292.3,1966.4 2237.1,1927.4 2185.3,1888.7 2136.8,1850.3 2091.0,1812.4 2047.7,1775.0 2006.7,1738.3 1967.6,1702.2 1930.2,1666.9 1894.3,1632.3 1859.5,1598.6 1825.7,1565.6 1792.7,1533.4 1760.2,1501.9 1728.1,1471.2 1696.1,1441.2 1664.2,1411.7 1632.2,1382.8 1599.9,1354.3 1567.2,1326.1 1534.0,1298.1 1500.3,1270.1 1465.8,1242.1 1430.6,1213.7 1394.5,1184.9 1357.6,1155.5 1319.8,1125.2 1281.0,1093.8 1241.3,1061.1 1200.7,1026.8 1159.1,990.6 1116.7,952.3 1073.4,911.6 1029.3,868.2 984.4,821.6 938.9,771.7 892.9,718.0 846.3,660.2  Z" style="stroke-width: 2.0;  stroke: rgb(82,82,82); fill: rgb(0,0,204); opacity: 0.667;" />
<path d="M 846.331,660.152 A 1064.250,1064.250 0.00 0,1 849.6,657.6 L 849.6,657.6 893.9,717.1 934.4,774.9 971.2,831.1 1004.8,885.7 1035.5,938.9 1063.7,990.5 1089.6,1040.7 1113.6,1089.5 1135.8,1137.0 1156.7,1183.2 1176.3,1228.2 1195.0,1272.1 1212.9,1315.0 1230.2,1357.0 1247.2,1398.2 1263.8,1438.7 1280.4,1478.6 1296.9,1518.1 1313.6,1557.2 1330.4,1596.2 1347.4,1635.2 1364.7,1674.3 1382.4,1713.8 1400.4,1753.7 1418.7,1794.3 1437.3,1835.7 1456.2,1878.2 1475.3,1921.9 1494.6,1967.1 1513.8,2014.0 1533.1,2062.8 1552.1,2113.7 1570.8,2167.0 1589.0,2223.0 1606.5,2281.8 1623.2,2343.7 1638.8,2409.1 1653.0,2478.2 1665.8,2551.3  A 1064.250,1064.250 0.00 0,0 1670.1,2550.6 L 1670.1,2550.6 1657.1,2477.6 1642.5,2408.5 1626.7,2343.2 1609.7,2281.3 1592.0,2222.6 1573.5,2166.7 1554.6,2113.5 1535.4,2062.7 1516.0,2013.9 1496.5,1967.1 1477.1,1922.0 1457.8,1878.4 1438.7,1836.0 1419.9,1794.6 1401.4,1754.1 1383.3,1714.2 1365.5,1674.9 1348.0,1635.8 1330.8,1596.9 1313.8,1558.0 1297.0,1518.9 1280.3,1479.5 1263.6,1439.6 1246.8,1399.2 1229.7,1358.1 1212.2,1316.1 1194.1,1273.3 1175.3,1229.5 1155.5,1184.5 1134.4,1138.4 1112.0,1091.0 1087.8,1042.3 1061.7,992.2 1033.4,940.7 1002.4,887.7 968.6,833.1 931.6,777.0 890.9,719.4 846.3,660.2  Z" style="stroke-width: 2.0;  stroke: rgb(82,82,82); fill: rgb(102,153,255); opacity: 0.667;" />
<path d="M 853.892,654.321 A 1064.250,1064.250 0.00 0,1 857.2,651.8 L 857.2,651.8 902.2,709.9 945.5,763.1 987.1,811.8 1027.0,856.2 1065.5,896.6 1102.6,933.3 1138.4,966.4 1173.0,996.2 1206.5,1023.0 1239.0,1046.8 1270.6,1067.9 1301.4,1086.5 1331.5,1102.5 1361.1,1116.3 1390.1,1127.8 1418.7,1137.2 1447.1,1144.6 1475.3,1149.9 1503.4,1153.3 1531.6,1154.7 1559.9,1154.2 1588.5,1151.7 1617.4,1147.3 1646.9,1140.8 1676.9,1132.2 1707.6,1121.5 1739.2,1108.6 1771.7,1093.2 1805.3,1075.4 1840.0,1055.0 1876.0,1031.7 1913.5,1005.5 1952.4,976.2 1993.0,943.5 2035.4,907.1 2079.7,867.0 2125.9,822.7 2174.3,774.1 2225.0,720.9  A 1064.250,1064.250 0.00 0,0 2221.9,718.0 L 2221.9,718.0 2171.4,771.5 2123.2,820.3 2077.1,864.7 2033.0,905.0 1990.8,941.5 1950.4,974.4 1911.5,1003.9 1874.2,1030.3 1838.3,1053.6 1803.6,1074.2 1770.1,1092.2 1737.7,1107.6 1706.1,1120.7 1675.4,1131.5 1645.4,1140.2 1616.0,1146.8 1587.1,1151.4 1558.5,1153.9 1530.2,1154.6 1502.0,1153.3 1473.9,1150.0 1445.7,1144.8 1417.3,1137.5 1388.6,1128.3 1359.6,1116.8 1330.0,1103.2 1299.8,1087.2 1268.9,1068.8 1237.3,1047.9 1204.7,1024.1 1171.1,997.5 1136.4,967.8 1100.4,934.8 1063.2,898.3 1024.5,858.1 984.4,813.8 942.6,765.3 899.1,712.2 853.9,654.3  Z" style="stroke-width: 2.0;  stroke: rgb(82,82,82); fill: rgb(153,204,255); opacity: 0.667;" />
<path d="M 853.892,654.321 A 1064.250,1064.250 0.00 0,1 857.2,651.8 L 857.2,651.8 902.4,709.9 946.1,763.2 988.3,812.1 1029.2,856.7 1068.9,897.4 1107.3,934.6 1144.6,968.3 1180.9,998.9 1216.2,1026.6 1250.7,1051.6 1284.4,1074.1 1317.5,1094.2 1350.0,1112.1 1382.0,1128.0 1413.7,1141.9 1445.2,1154.0 1476.4,1164.3 1507.7,1173.0 1539.1,1180.0 1570.7,1185.5 1602.6,1189.4 1634.9,1191.7 1667.9,1192.5 1701.5,1191.7 1736.1,1189.2 1771.6,1185.0 1808.2,1179.1 1846.1,1171.2 1885.4,1161.4 1926.3,1149.4 1968.9,1135.2 2013.3,1118.6 2059.8,1099.3 2108.5,1077.2 2159.5,1052.2 2213.0,1023.9 2269.2,992.1 2328.3,956.5 2390.3,917.0  A 1064.250,1064.250 0.00 0,0 2388.0,913.4 L 2388.0,913.4 2326.1,953.2 2267.2,989.0 2211.1,1021.0 2157.7,1049.6 2106.8,1074.8 2058.2,1097.1 2011.8,1116.5 1967.4,1133.3 1924.9,1147.7 1884.1,1159.8 1844.8,1169.8 1806.9,1177.8 1770.3,1183.9 1734.8,1188.3 1700.3,1190.9 1666.7,1191.8 1633.7,1191.2 1601.3,1189.0 1569.4,1185.2 1537.8,1179.9 1506.4,1172.9 1475.1,1164.4 1443.8,1154.2 1412.3,1142.2 1380.6,1128.4 1348.5,1112.7 1315.9,1094.9 1282.8,1074.9 1249.0,1052.6 1214.4,1027.7 1178.9,1000.2 1142.5,969.7 1105.1,936.1 1066.5,899.1 1026.7,858.5 985.6,814.1 943.2,765.4 899.3,712.3 853.9,654.3  Z" style="stroke-width: 2.0;  stroke: rgb(82,82,82); fill: rgb(0,255,255); opacity: 0.667;" />
<path d="M 853.892,654.321 A 1064.250,1064.250 0.00 0,1 857.2,651.8 L 857.2,651.8 902.4,709.9 946.2,763.3 988.7,812.1 1029.8,856.9 1069.7,897.7 1108.5,935.0 1146.2,969.0 1182.9,999.8 1218.7,1027.8 1253.7,1053.2 1287.9,1076.1 1321.5,1096.7 1354.6,1115.2 1387.2,1131.7 1419.5,1146.3 1451.6,1159.3 1483.5,1170.5 1515.5,1180.2 1547.6,1188.3 1579.9,1195.0 1612.6,1200.2 1645.7,1204.0 1679.5,1206.4 1714.1,1207.2 1749.5,1206.6 1786.0,1204.3 1823.7,1200.5 1862.8,1194.9 1903.3,1187.4 1945.4,1178.0 1989.4,1166.5 2035.3,1152.7 2083.4,1136.5 2133.8,1117.6 2186.6,1095.9 2242.1,1071.2 2300.4,1043.1 2361.8,1011.5 2426.3,976.1  A 1064.250,1064.250 0.00 0,0 2424.3,972.5 L 2424.3,972.5 2359.9,1008.2 2298.7,1040.0 2240.4,1068.3 2185.0,1093.3 2132.3,1115.2 2082.0,1134.2 2034.0,1150.6 1988.1,1164.6 1944.2,1176.3 1902.1,1185.9 1861.6,1193.5 1822.6,1199.2 1784.9,1203.2 1748.4,1205.6 1712.9,1206.4 1678.4,1205.7 1644.6,1203.5 1611.4,1199.8 1578.7,1194.7 1546.3,1188.2 1514.2,1180.1 1482.2,1170.6 1450.2,1159.4 1418.1,1146.7 1385.8,1132.1 1353.1,1115.8 1319.9,1097.4 1286.2,1076.9 1251.9,1054.2 1216.8,1028.9 1180.9,1001.1 1144.1,970.3 1106.3,936.5 1067.4,899.4 1027.3,858.7 986.0,814.1 943.3,765.4 899.3,712.3 853.9,654.3  Z" style="stroke-width: 2.0;  stroke: rgb(82,82,82); fill: rgb(204,255,255); opacity: 0.667;" />
<path d="M 853.892,654.321 A 1064.250,1064.250 0.00 0,1 857.2,651.8 L 857.2,651.8 903.0,710.2 948.3,764.5 993.2,815.0 1037.4,862.1 1080.9,906.1 1123.7,947.3 1165.6,986.1 1206.7,1022.7 1246.9,1057.5 1286.1,1090.6 1324.5,1122.5 1361.9,1153.2 1398.5,1183.0 1434.2,1212.1 1469.1,1240.8 1503.2,1269.2 1536.7,1297.4 1569.6,1325.7 1602.0,1354.2 1634.0,1382.9 1665.8,1412.1 1697.5,1441.7 1729.2,1472.0 1761.0,1502.9 1793.3,1534.5 1826.1,1566.9 1859.7,1600.0 1894.2,1633.9 1930.0,1668.6 1967.1,1704.1 2006.0,1740.3 2046.8,1777.2 2089.9,1814.7 2135.5,1852.8 2183.9,1891.4 2235.5,1930.3 2290.5,1969.4 2349.3,2008.7 2412.4,2047.9  A 1064.250,1064.250 0.00 0,0 2414.5,2044.4 L 2414.5,2044.4 2351.3,2005.4 2292.3,1966.4 2237.1,1927.4 2185.4,1888.7 2136.9,1850.4 2091.1,1812.5 2047.9,1775.1 2006.9,1738.4 1967.9,1702.3 1930.6,1667.0 1894.7,1632.4 1860.1,1598.6 1826.4,1565.6 1793.4,1533.4 1761.0,1501.9 1729.0,1471.1 1697.2,1441.0 1665.5,1411.4 1633.6,1382.4 1601.4,1353.8 1568.9,1325.4 1535.9,1297.3 1502.3,1269.2 1468.1,1240.9 1433.1,1212.4 1397.2,1183.4 1360.6,1153.7 1323.0,1123.1 1284.5,1091.5 1245.1,1058.5 1204.8,1023.9 1163.6,987.4 1121.5,948.8 1078.6,907.7 1034.9,863.9 990.5,817.0 945.5,766.7 899.9,712.6 853.9,654.3  Z" style="stroke-width: 2.0;  stroke: rgb(82,82,82); fill: rgb(153,0,204); opacity: 0.667;" />
<path d="M 853.892,654.321 A 1064.250,1064.250 0.00 0,1 857.2,651.8 L 857.2,651.8 901.0,711.6 941.0,769.8 977.3,826.4 1010.4,881.4 1040.7,934.8 1068.4,986.7 1093.9,1037.2 1117.5,1086.2 1139.4,1133.9 1159.9,1180.4 1179.2,1225.6 1197.5,1269.7 1215.2,1312.8 1232.2,1354.9 1248.9,1396.3 1265.3,1436.9 1281.7,1477.0 1298.0,1516.6 1314.5,1555.9 1331.1,1595.0 1348.0,1634.1 1365.2,1673.3 1382.8,1712.9 1400.7,1752.9 1418.9,1793.6 1437.5,1835.1 1456.3,1877.6 1475.4,1921.5 1494.6,1966.7 1513.8,2013.7 1533.1,2062.5 1552.1,2113.5 1570.8,2166.9 1589.0,2222.8 1606.5,2281.7 1623.2,2343.7 1638.8,2409.1 1653.0,2478.2 1665.8,2551.3  A 1064.250,1064.250 0.00 0,0 1670.1,2550.6 L 1670.1,2550.6 1657.1,2477.6 1642.5,2408.5 1626.6,2343.2 1609.7,2281.3 1591.9,2222.5 1573.5,2166.6 1554.6,2113.3 1535.4,2062.4 1516.0,2013.6 1496.5,1966.7 1477.1,1921.5 1457.9,1877.8 1438.9,1835.3 1420.1,1793.9 1401.7,1753.3 1383.7,1713.3 1366.0,1673.9 1348.6,1634.7 1331.5,1595.7 1314.7,1556.6 1298.1,1517.4 1281.6,1477.8 1265.1,1437.8 1248.5,1397.3 1231.7,1356.0 1214.4,1313.9 1196.7,1270.9 1178.1,1226.9 1158.6,1181.7 1137.9,1135.4 1115.9,1087.7 1092.1,1038.8 1066.4,988.4 1038.5,936.6 1008.0,883.3 974.7,828.4 938.1,772.0 898.0,714.0 853.9,654.3  Z" style="stroke-width: 2.0;  stroke: rgb(82,82,82); fill: rgb(204,51,255); opacity: 0.667;" />
<path d="M 853.892,654.321 A 1064.250,1064.250 0.00 0,1 857.2,651.8 L 857.2,651.8 901.4,710.1 942.2,764.1 979.9,813.8 1014.5,859.5 1046.2,901.4 1075.2,939.7 1101.5,974.6 1125.3,1006.1 1146.8,1034.6 1165.9,1060.0 1182.9,1082.5 1197.7,1102.3 1210.5,1119.4 1221.4,1133.9 1230.3,1145.9 1237.3,1155.5 1242.5,1162.6 1246.0,1167.4 1247.6,1169.9 1247.4,1170.0 1245.5,1167.8 1241.8,1163.2 1236.2,1156.3 1228.8,1147.0 1219.6,1135.3 1208.4,1121.0 1195.3,1104.2 1180.1,1084.7 1162.7,1062.4 1143.2,1037.3 1121.4,1009.1 1097.2,977.9 1070.4,943.3 1041.0,905.4 1008.9,863.8 973.8,818.4 935.7,769.1 894.3,715.6 849.6,657.6  A 1064.250,1064.250 0.00 0,0 846.3,660.2 L 846.3,660.2 891.3,717.9 932.9,771.3 971.2,820.5 1006.4,865.7 1038.7,907.1 1068.3,945.0 1095.1,979.4 1119.5,1010.6 1141.4,1038.6 1161.1,1063.7 1178.5,1085.9 1193.7,1105.4 1207.0,1122.1 1218.2,1136.4 1227.5,1148.1 1234.9,1157.3 1240.5,1164.2 1244.2,1168.8 1246.1,1171.0 1246.3,1170.8 1244.7,1168.4 1241.2,1163.6 1236.0,1156.5 1228.9,1147.0 1219.9,1135.0 1209.0,1120.5 1196.2,1103.5 1181.2,1083.8 1164.2,1061.3 1144.9,1035.9 1123.4,1007.6 1099.4,976.1 1073.0,941.4 1043.9,903.2 1012.0,861.4 977.2,815.8 939.4,766.2 898.3,712.5 853.9,654.3  Z" style="stroke-width: 2.0;  stroke: rgb(82,82,82); fill: rgb(204,153,255); opacity: 0.667;" />
<path d="M 1254.996,464.335 A 1064.250,1064.250 0.00 0,1 1259.0,463.4 L 1259.0,463.4 1276.2,534.7 1293.3,600.7 1310.3,661.5 1327.2,717.6 1344.0,769.2 1360.8,816.5 1377.5,859.7 1394.3,899.2 1411.0,935.0 1427.8,967.4 1444.7,996.6 1461.6,1022.7 1478.8,1045.9 1496.2,1066.2 1513.8,1083.9 1531.8,1098.9 1550.1,1111.4 1568.9,1121.5 1588.2,1129.2 1608.1,1134.5 1628.6,1137.4 1649.9,1138.0 1672.1,1136.3 1695.1,1132.2 1719.2,1125.7 1744.4,1116.7 1770.8,1105.1 1798.5,1090.9 1827.7,1074.0 1858.4,1054.3 1890.7,1031.5 1924.9,1005.6 1960.9,976.4 1999.0,943.8 2039.3,907.4 2081.9,867.2 2126.9,822.9 2174.6,774.2 2225.0,720.9  A 1064.250,1064.250 0.00 0,0 2221.9,718.0 L 2221.9,718.0 2171.7,771.5 2124.2,820.4 2079.4,864.9 2037.0,905.3 1996.8,941.8 1958.9,974.6 1922.9,1004.0 1888.9,1030.0 1856.6,1052.9 1826.0,1072.7 1796.9,1089.8 1769.3,1104.1 1742.9,1115.7 1717.8,1124.8 1693.7,1131.4 1670.7,1135.6 1648.5,1137.4 1627.2,1136.9 1606.7,1134.0 1586.7,1128.8 1567.4,1121.2 1548.6,1111.2 1530.2,1098.8 1512.2,1083.8 1494.5,1066.2 1477.0,1046.0 1459.8,1022.9 1442.7,996.8 1425.7,967.7 1408.8,935.4 1391.9,899.6 1375.1,860.2 1358.1,817.0 1341.2,769.8 1324.1,718.3 1307.0,662.3 1289.8,601.5 1272.5,535.6 1255.0,464.3  Z" style="stroke-width: 2.0;  stroke: rgb(82,82,82); fill: rgb(102,102,102); opacity: 0.667;" />
<path d="M 1254.996,464.335 A 1064.250,1064.250 0.00 0,1 1259.0,463.4 L 1259.0,463.4 1276.3,534.8 1293.8,600.9 1311.5,662.0 1329.3,718.5 1347.2,770.6 1365.3,818.6 1383.5,862.7 1401.8,903.1 1420.4,940.1 1439.1,973.9 1458.0,1004.7 1477.2,1032.6 1496.7,1057.8 1516.6,1080.4 1536.9,1100.6 1557.6,1118.4 1578.8,1134.1 1600.7,1147.5 1623.2,1158.9 1646.5,1168.2 1670.7,1175.6 1695.8,1180.9 1721.9,1184.3 1749.3,1185.7 1777.8,1185.2 1807.8,1182.5 1839.3,1177.8 1872.5,1170.9 1907.4,1161.7 1944.3,1150.2 1983.3,1136.2 2024.5,1119.7 2068.2,1100.4 2114.4,1078.2 2163.3,1052.9 2215.2,1024.3 2270.2,992.3 2328.5,956.6 2390.3,917.0  A 1064.250,1064.250 0.00 0,0 2388.0,913.4 L 2388.0,913.4 2326.3,953.3 2268.2,989.3 2213.3,1021.5 2161.5,1050.2 2112.7,1075.7 2066.6,1098.1 2023.0,1117.6 1981.9,1134.3 1942.9,1148.5 1906.1,1160.1 1871.2,1169.4 1838.1,1176.4 1806.6,1181.3 1776.6,1184.1 1748.0,1184.8 1720.7,1183.5 1694.5,1180.2 1669.4,1174.9 1645.2,1167.7 1621.9,1158.4 1599.3,1147.1 1577.4,1133.7 1556.1,1118.2 1535.3,1100.5 1515.0,1080.4 1495.0,1057.8 1475.4,1032.7 1456.1,1004.9 1437.0,974.2 1418.2,940.5 1399.5,903.5 1381.0,863.1 1362.6,819.1 1344.4,771.2 1326.2,719.2 1308.2,662.7 1290.3,601.7 1272.6,535.6 1255.0,464.3  Z" style="stroke-width: 2.0;  stroke: rgb(82,82,82); fill: rgb(153,153,153); opacity: 0.667;" />
<path d="M 1254.996,464.335 A 1064.250,1064.250 0.00 0,1 1259.0,463.4 L 1259.0,463.4 1276.4,534.8 1294.0,600.9 1311.8,662.2 1329.8,718.8 1348.0,771.0 1366.4,819.2 1385.0,863.6 1403.7,904.4 1422.7,941.8 1441.9,976.0 1461.3,1007.2 1481.1,1035.7 1501.1,1061.5 1521.6,1084.8 1542.4,1105.8 1563.8,1124.5 1585.7,1141.0 1608.2,1155.5 1631.5,1168.0 1655.5,1178.6 1680.4,1187.2 1706.4,1194.0 1733.4,1198.9 1761.6,1202.0 1791.1,1203.2 1822.1,1202.5 1854.7,1199.8 1889.0,1195.1 1925.2,1188.2 1963.4,1179.2 2003.7,1167.9 2046.4,1154.1 2091.7,1137.8 2139.6,1118.7 2190.4,1096.7 2244.3,1071.7 2301.4,1043.4 2362.0,1011.6 2426.3,976.1  A 1064.250,1064.250 0.00 0,0 2424.3,972.5 L 2424.3,972.5 2360.1,1008.3 2299.7,1040.3 2242.6,1068.8 2188.8,1094.1 2138.1,1116.2 2090.3,1135.5 2045.1,1152.0 2002.4,1165.9 1962.1,1177.4 1924.0,1186.6 1887.8,1193.6 1853.5,1198.4 1821.0,1201.2 1790.0,1202.1 1760.4,1201.0 1732.2,1198.0 1705.2,1193.2 1679.2,1186.5 1654.3,1178.0 1630.2,1167.5 1606.9,1155.1 1584.3,1140.7 1562.3,1124.2 1540.9,1105.6 1520.0,1084.7 1499.4,1061.5 1479.3,1035.8 1459.4,1007.4 1439.9,976.2 1420.5,942.1 1401.4,904.7 1382.5,864.0 1363.8,819.8 1345.2,771.6 1326.8,719.4 1308.5,662.9 1290.5,601.7 1272.6,535.6 1255.0,464.3  Z" style="stroke-width: 2.0;  stroke: rgb(82,82,82); fill: rgb(204,204,204); opacity: 0.667;" />
<path d="M 1254.996,464.335 A 1064.250,1064.250 0.00 0,1 1259.0,463.4 L 1259.0,463.4 1276.8,535.2 1295.8,602.6 1315.7,665.9 1336.4,725.5 1357.8,781.6 1379.7,834.6 1401.9,884.6 1424.5,932.0 1447.3,977.0 1470.2,1019.9 1493.2,1060.9 1516.3,1100.2 1539.4,1138.1 1562.5,1174.7 1585.6,1210.2 1608.7,1244.8 1631.9,1278.7 1655.3,1312.0 1678.8,1344.9 1702.5,1377.6 1726.6,1410.0 1751.2,1442.5 1776.3,1475.0 1802.1,1507.6 1828.8,1540.6 1856.5,1573.8 1885.4,1607.4 1915.8,1641.4 1947.7,1675.9 1981.5,1710.9 2017.3,1746.4 2055.5,1782.5 2096.2,1819.0 2139.9,1856.1 2186.7,1893.7 2237.1,1931.7 2291.2,1970.1 2349.5,2008.9 2412.4,2047.9  A 1064.250,1064.250 0.00 0,0 2414.5,2044.4 L 2414.5,2044.4 2351.5,2005.6 2293.0,1967.1 2238.7,1928.9 2188.2,1891.0 2141.3,1853.6 2097.5,1816.7 2056.6,1780.3 2018.2,1744.4 1982.3,1709.1 1948.4,1674.2 1916.3,1639.8 1885.8,1605.9 1856.8,1572.4 1828.9,1539.3 1802.1,1506.5 1776.2,1473.9 1750.9,1441.5 1726.3,1409.2 1702.0,1376.8 1678.2,1344.2 1654.5,1311.4 1631.1,1278.2 1607.7,1244.4 1584.5,1209.8 1561.2,1174.4 1538.0,1137.9 1514.7,1100.2 1491.5,1060.9 1468.3,1020.0 1445.3,977.2 1422.3,932.3 1399.5,885.0 1377.1,835.0 1355.0,782.2 1333.5,726.1 1312.5,666.7 1292.4,603.4 1273.1,536.1 1255.0,464.3  Z" style="stroke-width: 2.0;  stroke: rgb(82,82,82); fill: rgb(204,204,153); opacity: 0.667;" />
<path d="M 1254.996,464.335 A 1064.250,1064.250 0.00 0,1 1259.0,463.4 L 1259.0,463.4 1274.7,536.1 1287.5,606.3 1297.9,673.8 1306.1,738.9 1312.7,801.7 1317.8,862.3 1321.7,920.7 1324.9,977.2 1327.5,1031.8 1329.7,1084.6 1331.9,1135.8 1334.2,1185.5 1336.8,1233.9 1339.8,1281.0 1343.5,1327.1 1348.0,1372.2 1353.3,1416.6 1359.5,1460.3 1366.8,1503.6 1375.2,1546.6 1384.7,1589.5 1395.3,1632.4 1407.1,1675.5 1419.9,1719.0 1433.8,1763.1 1448.6,1808.0 1464.4,1853.8 1480.9,1900.7 1498.1,1949.0 1515.8,1998.8 1533.9,2050.3 1552.2,2103.8 1570.5,2159.5 1588.5,2217.5 1606.0,2278.2 1622.8,2341.6 1638.5,2408.2 1653.0,2478.0 1665.8,2551.3  A 1064.250,1064.250 0.00 0,0 1670.1,2550.6 L 1670.1,2550.6 1657.0,2477.3 1642.3,2407.6 1626.3,2341.1 1609.2,2277.7 1591.4,2217.2 1573.2,2159.2 1554.7,2103.6 1536.2,2050.2 1517.9,1998.7 1500.0,1948.9 1482.6,1900.7 1465.8,1853.9 1449.9,1808.2 1434.8,1763.4 1420.8,1719.3 1407.8,1675.9 1395.9,1632.8 1385.1,1589.9 1375.4,1547.1 1366.9,1504.2 1359.4,1460.9 1353.0,1417.2 1347.5,1372.8 1342.9,1327.7 1339.0,1281.6 1335.7,1234.5 1333.0,1186.2 1330.5,1136.5 1328.1,1085.3 1325.7,1032.4 1322.9,977.9 1319.5,921.4 1315.3,863.0 1310.0,802.5 1303.2,739.7 1294.7,674.6 1284.0,607.1 1270.9,537.0 1255.0,464.3  Z" style="stroke-width: 2.0;  stroke: rgb(82,82,82); fill: rgb(251,106,74); opacity: 0.667;" />
<path d="M 1254.996,464.335 A 1064.250,1064.250 0.00 0,1 1259.0,463.4 L 1259.0,463.4 1275.3,534.8 1289.9,600.9 1302.8,662.1 1314.2,718.6 1324.0,770.5 1332.4,818.3 1339.4,861.9 1345.1,901.8 1349.5,937.9 1352.7,970.6 1354.6,1000.0 1355.4,1026.1 1355.1,1049.2 1353.6,1069.3 1351.0,1086.6 1347.2,1101.1 1342.3,1112.9 1336.2,1122.1 1329.0,1128.6 1320.5,1132.6 1310.9,1134.1 1300.0,1133.0 1287.7,1129.3 1274.1,1123.1 1259.0,1114.2 1242.5,1102.6 1224.4,1088.3 1204.7,1071.1 1183.2,1051.0 1159.9,1027.9 1134.6,1001.6 1107.4,972.0 1078.0,938.9 1046.3,902.3 1012.3,861.8 975.8,817.3 936.5,768.6 894.5,715.4 849.6,657.6  A 1064.250,1064.250 0.00 0,0 846.3,660.2 L 846.3,660.2 891.5,717.8 933.7,770.7 973.1,819.3 1009.9,863.6 1044.1,904.0 1075.8,940.6 1105.4,973.5 1132.7,1003.0 1158.1,1029.2 1181.4,1052.3 1203.0,1072.3 1222.8,1089.4 1241.0,1103.6 1257.6,1115.1 1272.6,1123.9 1286.3,1130.1 1298.5,1133.8 1309.5,1134.8 1319.1,1133.3 1327.5,1129.3 1334.8,1122.7 1340.8,1113.5 1345.6,1101.7 1349.4,1087.2 1351.9,1069.9 1353.3,1049.8 1353.6,1026.7 1352.7,1000.5 1350.6,971.2 1347.3,938.5 1342.8,902.4 1336.9,862.6 1329.7,818.9 1321.2,771.2 1311.1,719.3 1299.6,662.9 1286.4,601.8 1271.6,535.7 1255.0,464.3  Z" style="stroke-width: 2.0;  stroke: rgb(82,82,82); fill: rgb(116,196,118); opacity: 0.667;" />
<path d="M 1254.996,464.335 A 1064.250,1064.250 0.00 0,1 1259.0,463.4 L 1259.0,463.4 1275.3,534.8 1289.9,600.9 1302.9,662.1 1314.2,718.5 1324.1,770.5 1332.5,818.2 1339.6,861.8 1345.4,901.6 1349.9,937.7 1353.1,970.4 1355.2,999.7 1356.1,1025.8 1355.8,1048.8 1354.4,1068.8 1351.9,1086.0 1348.2,1100.4 1343.5,1112.1 1337.5,1121.2 1330.5,1127.7 1322.2,1131.5 1312.7,1132.9 1301.9,1131.6 1289.9,1127.8 1276.5,1121.4 1261.6,1112.3 1245.3,1100.6 1227.5,1086.1 1208.0,1068.7 1186.8,1048.4 1163.8,1025.0 1138.9,998.5 1111.9,968.6 1082.9,935.2 1051.6,898.2 1018.0,857.4 981.9,812.6 943.2,763.5 901.6,710.0 857.2,651.8  A 1064.250,1064.250 0.00 0,0 853.9,654.3 L 853.9,654.3 898.6,712.4 940.3,765.7 979.2,814.6 1015.5,859.3 1049.3,900.0 1080.7,936.9 1109.9,970.1 1136.9,999.9 1161.9,1026.3 1185.0,1049.6 1206.3,1069.8 1225.8,1087.1 1243.8,1101.6 1260.1,1113.3 1275.0,1122.3 1288.4,1128.6 1300.5,1132.4 1311.3,1133.6 1320.7,1132.2 1329.0,1128.3 1336.1,1121.8 1342.0,1112.7 1346.7,1101.0 1350.3,1086.6 1352.7,1069.4 1354.1,1049.3 1354.2,1026.3 1353.2,1000.2 1351.1,970.9 1347.7,938.3 1343.1,902.2 1337.2,862.4 1329.9,818.8 1321.3,771.2 1311.2,719.2 1299.6,662.9 1286.4,601.7 1271.6,535.7 1255.0,464.3  Z" style="stroke-width: 2.0;  stroke: rgb(82,82,82); fill: rgb(107,174,214); opacity: 0.667;" />
<path d="M 1358.725,445.169 A 1064.250,1064.250 0.00 0,1 1362.8,444.6 L 1362.8,444.6 1372.8,517.3 1383.1,584.5 1393.7,646.7 1404.6,704.0 1415.8,756.7 1427.3,805.2 1439.1,849.6 1451.1,890.1 1463.5,926.9 1476.1,960.3 1489.1,990.4 1502.5,1017.3 1516.3,1041.3 1530.5,1062.3 1545.1,1080.6 1560.3,1096.3 1576.0,1109.4 1592.4,1119.9 1609.4,1128.0 1627.1,1133.7 1645.7,1137.0 1665.1,1137.9 1685.5,1136.4 1707.0,1132.5 1729.6,1126.1 1753.3,1117.2 1778.5,1105.7 1805.0,1091.6 1833.1,1074.6 1862.8,1054.8 1894.2,1032.0 1927.6,1006.1 1963.0,976.8 2000.4,944.1 2040.2,907.6 2082.4,867.3 2127.2,822.9 2174.6,774.2 2225.0,720.9  A 1064.250,1064.250 0.00 0,0 2221.9,718.0 L 2221.9,718.0 2171.8,771.5 2124.5,820.4 2079.9,865.0 2037.9,905.5 1998.2,942.1 1960.9,975.0 1925.6,1004.4 1892.4,1030.5 1861.0,1053.4 1831.4,1073.3 1803.4,1090.4 1776.9,1104.6 1751.8,1116.2 1728.1,1125.2 1705.5,1131.7 1684.1,1135.7 1663.7,1137.3 1644.3,1136.5 1625.7,1133.2 1607.9,1127.6 1590.9,1119.6 1574.5,1109.1 1558.7,1096.1 1543.5,1080.5 1528.8,1062.2 1514.5,1041.2 1500.6,1017.3 1487.2,990.4 1474.0,960.4 1461.2,927.1 1448.7,890.3 1436.5,849.8 1424.6,805.5 1412.9,757.1 1401.5,704.4 1390.4,647.1 1379.5,585.0 1369.0,517.8 1358.7,445.2  Z" style="stroke-width: 2.0;  stroke: rgb(82,82,82); fill: rgb(253,141,60); opacity: 0.667;" />
<path d="M 1358.725,445.169 A 1064.250,1064.250 0.00 0,1 1362.8,444.6 L 1362.8,444.6 1372.9,517.3 1383.6,584.8 1394.9,647.2 1406.7,705.0 1418.9,758.3 1431.7,807.5 1444.9,852.7 1458.6,894.3 1472.7,932.4 1487.3,967.2 1502.3,998.9 1517.9,1027.7 1534.0,1053.7 1550.7,1077.1 1568.0,1098.0 1585.9,1116.5 1604.5,1132.7 1623.9,1146.6 1644.2,1158.5 1665.3,1168.2 1687.5,1175.9 1710.7,1181.5 1735.2,1185.1 1760.9,1186.7 1788.0,1186.2 1816.6,1183.6 1846.8,1178.9 1878.8,1171.9 1912.7,1162.7 1948.6,1151.1 1986.7,1137.1 2027.1,1120.4 2070.1,1100.9 2115.7,1078.6 2164.2,1053.2 2215.7,1024.5 2270.4,992.4 2328.6,956.6 2390.3,917.0  A 1064.250,1064.250 0.00 0,0 2388.0,913.4 L 2388.0,913.4 2326.4,953.3 2268.4,989.3 2213.8,1021.7 2162.4,1050.5 2114.0,1076.1 2068.5,1098.7 2025.6,1118.3 1985.3,1135.1 1947.2,1149.4 1911.3,1161.1 1877.5,1170.4 1845.5,1177.5 1815.3,1182.3 1786.7,1185.0 1759.6,1185.6 1733.9,1184.2 1709.5,1180.7 1686.2,1175.1 1664.0,1167.5 1642.8,1157.9 1622.6,1146.2 1603.1,1132.3 1584.4,1116.1 1566.4,1097.7 1549.0,1076.9 1532.3,1053.6 1516.1,1027.6 1500.4,998.9 1485.2,967.2 1470.5,932.5 1456.2,894.5 1442.4,852.9 1429.0,807.7 1416.1,758.6 1403.6,705.3 1391.6,647.6 1380.1,585.2 1369.1,517.8 1358.7,445.2  Z" style="stroke-width: 2.0;  stroke: rgb(82,82,82); fill: rgb(255,0,0); opacity: 0.667;" />
<path d="M 1358.725,445.169 A 1064.250,1064.250 0.00 0,1 1362.8,444.6 L 1362.8,444.6 1373.0,517.3 1383.8,584.8 1395.2,647.4 1407.2,705.3 1419.7,758.8 1432.8,808.2 1446.4,853.7 1460.4,895.6 1475.0,934.1 1490.0,969.3 1505.6,1001.6 1521.7,1030.9 1538.3,1057.6 1555.6,1081.7 1573.5,1103.3 1592.0,1122.7 1611.3,1139.8 1631.4,1154.8 1652.3,1167.7 1674.2,1178.7 1697.2,1187.7 1721.2,1194.7 1746.5,1199.9 1773.1,1203.1 1801.2,1204.4 1830.8,1203.7 1862.1,1201.0 1895.2,1196.2 1930.3,1189.3 1967.6,1180.2 2007.1,1168.8 2049.0,1154.8 2093.6,1138.4 2140.9,1119.1 2191.3,1097.0 2244.8,1071.9 2301.6,1043.5 2362.1,1011.6 2426.3,976.1  A 1064.250,1064.250 0.00 0,0 2424.3,972.5 L 2424.3,972.5 2360.2,1008.3 2299.9,1040.4 2243.1,1069.0 2189.7,1094.4 2139.5,1116.7 2092.2,1136.1 2047.7,1152.7 2005.8,1166.8 1966.3,1178.4 1929.1,1187.7 1894.1,1194.7 1860.9,1199.6 1829.6,1202.4 1800.0,1203.2 1772.0,1202.0 1745.3,1198.9 1720.0,1193.9 1696.0,1186.9 1673.0,1178.0 1651.1,1167.2 1630.0,1154.3 1609.9,1139.4 1590.5,1122.3 1571.9,1103.0 1554.0,1081.4 1536.6,1057.4 1519.9,1030.8 1503.7,1001.5 1488.0,969.4 1472.8,934.2 1458.1,895.8 1443.9,853.9 1430.1,808.4 1416.9,759.1 1404.1,705.6 1391.9,647.8 1380.2,585.3 1369.2,517.8 1358.7,445.2  Z" style="stroke-width: 2.0;  stroke: rgb(82,82,82); fill: rgb(255,0,204); opacity: 0.667;" />
<path d="M 1358.725,445.169 A 1064.250,1064.250 0.00 0,1 1362.8,444.6 L 1362.8,444.6 1373.4,517.8 1385.5,586.6 1399.0,651.3 1413.6,712.3 1429.1,769.8 1445.5,824.2 1462.6,875.5 1480.3,924.3 1498.6,970.6 1517.2,1014.7 1536.2,1056.8 1555.4,1097.2 1575.0,1136.0 1594.8,1173.5 1614.8,1209.9 1635.1,1245.2 1655.6,1279.8 1676.4,1313.7 1697.6,1347.1 1719.2,1380.1 1741.3,1412.9 1764.1,1445.5 1787.5,1478.1 1811.8,1510.9 1837.1,1543.7 1863.6,1576.9 1891.4,1610.3 1920.7,1644.2 1951.7,1678.4 1984.7,1713.1 2019.8,1748.3 2057.4,1784.1 2097.6,1820.3 2140.8,1857.1 2187.3,1894.3 2237.4,1932.1 2291.3,1970.3 2349.6,2008.9 2412.4,2047.9  A 1064.250,1064.250 0.00 0,0 2414.5,2044.4 L 2414.5,2044.4 2351.5,2005.7 2293.2,1967.2 2239.0,1929.2 2188.8,1891.7 2142.2,1854.6 2098.8,1818.0 2058.4,1781.9 2020.7,1746.3 1985.5,1711.3 1952.4,1676.7 1921.2,1642.5 1891.8,1608.8 1863.9,1575.5 1837.3,1542.4 1811.9,1509.7 1787.4,1477.0 1763.9,1444.5 1741.0,1411.9 1718.8,1379.2 1697.0,1346.3 1675.7,1313.0 1654.7,1279.2 1634.1,1244.7 1613.7,1209.4 1593.5,1173.2 1573.6,1135.7 1553.9,1097.0 1534.5,1056.6 1515.3,1014.6 1496.5,970.6 1478.1,924.3 1460.2,875.7 1442.9,824.4 1426.3,770.1 1410.5,712.7 1395.7,651.7 1382.0,587.0 1369.6,518.3 1358.7,445.2  Z" style="stroke-width: 2.0;  stroke: rgb(82,82,82); fill: rgb(255,204,204); opacity: 0.667;" />
<path d="M 1358.725,445.169 A 1064.250,1064.250 0.00 0,1 1362.8,444.6 L 1362.8,444.6 1373.6,518.3 1386.1,588.5 1400.1,655.6 1415.1,719.6 1431.0,780.9 1447.3,839.6 1464.0,896.0 1480.7,950.2 1497.2,1002.5 1513.4,1053.0 1529.0,1102.0 1544.0,1149.6 1558.1,1196.0 1571.2,1241.5 1583.4,1286.2 1594.4,1330.2 1604.3,1373.9 1612.9,1417.3 1620.4,1460.5 1626.6,1503.9 1631.7,1547.6 1635.6,1591.6 1638.4,1636.3 1640.3,1681.7 1641.2,1728.0 1641.4,1775.3 1640.9,1823.8 1640.0,1873.7 1638.8,1925.1 1637.5,1978.2 1636.4,2033.0 1635.7,2089.7 1635.6,2148.5 1636.4,2209.4 1638.5,2272.7 1642.1,2338.4 1647.6,2406.6 1655.4,2477.5 1665.8,2551.3  A 1064.250,1064.250 0.00 0,0 1670.1,2550.6 L 1670.1,2550.6 1659.4,2476.9 1651.3,2406.0 1645.5,2337.8 1641.6,2272.1 1639.3,2208.9 1638.2,2147.9 1638.1,2089.1 1638.6,2032.4 1639.5,1977.6 1640.6,1924.6 1641.5,1873.2 1642.3,1823.3 1642.5,1774.7 1642.1,1727.4 1641.0,1681.1 1639.0,1635.7 1636.0,1591.1 1631.9,1547.0 1626.7,1503.4 1620.3,1460.1 1612.6,1416.8 1603.8,1373.5 1593.8,1329.9 1582.6,1285.8 1570.2,1241.2 1556.9,1195.8 1542.6,1149.4 1527.5,1101.8 1511.7,1052.9 1495.3,1002.5 1478.6,950.3 1461.7,896.1 1444.8,839.8 1428.2,781.2 1412.1,719.9 1396.8,656.0 1382.6,589.0 1369.8,518.8 1358.7,445.2  Z" style="stroke-width: 2.0;  stroke: rgb(82,82,82); fill: rgb(255,153,0); opacity: 0.667;" />
<path d="M 1358.725,445.169 A 1064.250,1064.250 0.00 0,1 1362.8,444.6 L 1362.8,444.6 1371.9,517.3 1379.7,584.6 1386.2,646.9 1391.6,704.4 1395.7,757.3 1398.8,805.9 1400.8,850.3 1401.8,890.9 1401.8,927.8 1400.9,961.1 1399.0,991.0 1396.1,1017.7 1392.3,1041.3 1387.7,1061.9 1382.0,1079.7 1375.5,1094.6 1367.9,1106.9 1359.4,1116.4 1349.9,1123.4 1339.3,1127.8 1327.7,1129.6 1314.9,1128.9 1300.9,1125.6 1285.7,1119.7 1269.1,1111.1 1251.2,1099.9 1231.8,1085.9 1210.9,1069.1 1188.4,1049.3 1164.1,1026.4 1138.0,1000.4 1110.0,971.0 1079.9,938.2 1047.7,901.7 1013.2,861.4 976.3,817.1 936.8,768.5 894.6,715.4 849.6,657.6  A 1064.250,1064.250 0.00 0,0 846.3,660.2 L 846.3,660.2 891.6,717.8 934.0,770.7 973.6,819.1 1010.7,863.3 1045.4,903.5 1077.8,939.8 1108.0,972.5 1136.1,1001.8 1162.3,1027.7 1186.7,1050.5 1209.3,1070.2 1230.3,1086.9 1249.7,1100.9 1267.6,1112.0 1284.2,1120.5 1299.5,1126.3 1313.4,1129.6 1326.2,1130.3 1337.9,1128.4 1348.4,1124.0 1357.9,1117.0 1366.4,1107.4 1373.9,1095.1 1380.4,1080.1 1386.0,1062.4 1390.6,1041.7 1394.3,1018.1 1397.0,991.4 1398.8,961.5 1399.6,928.1 1399.5,891.3 1398.3,850.7 1396.1,806.3 1392.9,757.7 1388.5,704.8 1382.9,647.4 1376.2,585.1 1368.1,517.8 1358.7,445.2  Z" style="stroke-width: 2.0;  stroke: rgb(82,82,82); fill: rgb(255,204,0); opacity: 0.667;" />
<path d="M 1358.725,445.169 A 1064.250,1064.250 0.00 0,1 1362.8,444.6 L 1362.8,444.6 1371.9,517.3 1379.7,584.6 1386.3,646.9 1391.6,704.3 1395.8,757.2 1399.0,805.8 1401.0,850.2 1402.1,890.8 1402.2,927.6 1401.3,960.8 1399.5,990.7 1396.7,1017.4 1393.1,1040.9 1388.5,1061.5 1383.0,1079.1 1376.5,1094.0 1369.1,1106.1 1360.8,1115.6 1351.4,1122.5 1341.0,1126.7 1329.5,1128.4 1316.9,1127.5 1303.1,1124.1 1288.1,1118.0 1271.7,1109.3 1254.0,1097.9 1234.9,1083.7 1214.3,1066.6 1192.0,1046.6 1168.0,1023.5 1142.2,997.2 1114.6,967.6 1084.8,934.5 1053.0,897.7 1018.9,857.1 982.4,812.4 943.4,763.4 901.7,710.0 857.2,651.8  A 1064.250,1064.250 0.00 0,0 853.9,654.3 L 853.9,654.3 898.6,712.3 940.5,765.6 979.7,814.4 1016.4,859.0 1050.7,899.5 1082.6,936.1 1112.5,969.1 1140.3,998.6 1166.2,1024.8 1190.2,1047.8 1212.6,1067.7 1233.3,1084.7 1252.5,1098.8 1270.2,1110.2 1286.6,1118.8 1301.6,1124.9 1315.4,1128.3 1328.0,1129.1 1339.5,1127.3 1349.9,1123.0 1359.3,1116.1 1367.6,1106.6 1375.0,1094.5 1381.3,1079.6 1386.8,1061.9 1391.3,1041.3 1394.9,1017.8 1397.5,991.1 1399.2,961.2 1400.0,928.0 1399.8,891.1 1398.5,850.6 1396.3,806.2 1393.0,757.6 1388.6,704.8 1383.0,647.3 1376.2,585.1 1368.1,517.8 1358.7,445.2  Z" style="stroke-width: 2.0;  stroke: rgb(82,82,82); fill: rgb(255,255,0); opacity: 0.667;" />
<path d="M 1358.725,445.169 A 1064.250,1064.250 0.00 0,1 1362.8,444.6 L 1362.8,444.6 1372.2,517.2 1380.7,584.3 1388.5,646.2 1395.4,703.1 1401.7,755.3 1407.3,803.0 1412.2,846.5 1416.5,885.8 1420.2,921.3 1423.3,953.0 1425.8,981.2 1427.8,1005.9 1429.3,1027.3 1430.2,1045.5 1430.6,1060.6 1430.5,1072.7 1429.9,1081.8 1428.8,1087.9 1427.2,1091.2 1425.1,1091.6 1422.4,1089.1 1419.2,1083.7 1415.5,1075.4 1411.1,1064.2 1406.2,1049.9 1400.7,1032.5 1394.6,1011.9 1387.8,988.1 1380.3,960.8 1372.1,930.0 1363.2,895.5 1353.4,857.1 1342.8,814.7 1331.3,768.1 1318.9,717.0 1305.5,661.2 1291.1,600.5 1275.6,534.7 1259.0,463.4  A 1064.250,1064.250 0.00 0,0 1255.0,464.3 L 1255.0,464.3 1271.9,535.6 1287.7,601.3 1302.3,662.0 1315.9,717.7 1328.5,768.7 1340.2,815.3 1350.9,857.7 1360.8,896.0 1369.9,930.5 1378.2,961.3 1385.8,988.5 1392.7,1012.3 1398.9,1032.9 1404.5,1050.2 1409.5,1064.5 1413.8,1075.8 1417.6,1084.0 1420.8,1089.4 1423.5,1091.9 1425.6,1091.5 1427.2,1088.2 1428.3,1082.1 1428.9,1073.0 1428.9,1060.9 1428.5,1045.8 1427.5,1027.6 1425.9,1006.2 1423.8,981.5 1421.2,953.3 1418.0,921.6 1414.1,886.2 1409.7,846.8 1404.6,803.4 1398.8,755.7 1392.4,703.5 1385.2,646.7 1377.2,584.8 1368.4,517.7 1358.7,445.2  Z" style="stroke-width: 2.0;  stroke: rgb(82,82,82); fill: rgb(204,255,0); opacity: 0.667;" />
<path d="M 2055.255,592.079 A 1064.250,1064.250 0.00 0,1 2072.1,602.6 L 2072.1,602.6 2032.4,664.2 1995.2,720.8 1960.2,772.7 1927.4,820.2 1896.7,863.5 1867.8,902.7 1840.8,938.1 1815.6,969.9 1791.9,998.1 1769.8,1023.1 1749.1,1044.8 1729.8,1063.5 1711.7,1079.1 1694.9,1091.9 1679.2,1101.9 1664.5,1109.2 1650.9,1113.7 1638.2,1115.6 1626.4,1114.8 1615.5,1111.4 1605.4,1105.3 1596.0,1096.6 1587.4,1085.1 1579.5,1070.8 1572.2,1053.6 1565.7,1033.5 1559.8,1010.3 1554.5,984.0 1549.9,954.3 1545.9,921.2 1542.6,884.5 1539.9,844.0 1537.9,799.6 1536.5,750.9 1535.9,697.8 1536.0,640.1 1536.8,577.5 1538.5,509.7 1541.0,436.5  A 1064.250,1064.250 0.00 0,0 1522.8,436.0 L 1522.8,436.0 1521.6,509.2 1521.1,577.0 1521.3,639.6 1522.2,697.3 1523.7,750.4 1525.9,799.0 1528.7,843.4 1532.0,883.9 1536.0,920.5 1540.5,953.5 1545.6,983.1 1551.3,1009.3 1557.6,1032.4 1564.5,1052.4 1572.0,1069.4 1580.1,1083.5 1588.9,1094.9 1598.4,1103.5 1608.6,1109.4 1619.5,1112.6 1631.3,1113.1 1643.9,1111.0 1657.4,1106.2 1671.9,1098.7 1687.4,1088.4 1704.0,1075.3 1721.7,1059.3 1740.7,1040.3 1760.9,1018.1 1782.6,992.8 1805.7,964.1 1830.4,931.9 1856.7,896.0 1884.8,856.2 1914.7,812.4 1946.6,764.3 1980.6,711.7 2016.8,654.4 2055.3,592.1  Z" style="stroke-width: 2.0;  stroke: rgb(82,82,82); fill: rgb(0,255,0); opacity: 0.667;" />
<path d="M 2406.314,942.126 A 1064.250,1064.250 0.00 0,1 2410.9,949.7 L 2410.9,949.7 2348.2,987.4 2289.9,1021.8 2235.8,1053.2 2185.8,1081.6 2139.7,1107.3 2097.2,1130.4 2058.2,1150.9 2022.5,1169.0 1989.9,1184.8 1960.3,1198.3 1933.5,1209.8 1909.5,1219.1 1888.1,1226.5 1869.2,1231.9 1852.7,1235.3 1838.6,1236.9 1826.8,1236.5 1817.1,1234.3 1809.7,1230.3 1804.4,1224.3 1801.2,1216.4 1800.2,1206.6 1801.3,1194.8 1804.5,1181.0 1809.8,1165.0 1817.4,1146.9 1827.2,1126.5 1839.4,1103.8 1853.9,1078.6 1870.8,1050.8 1890.4,1020.3 1912.6,986.9 1937.5,950.6 1965.4,911.1 1996.4,868.3 2030.5,822.0 2068.1,772.1 2109.1,718.3 2153.9,660.4  A 1064.250,1064.250 0.00 0,0 2146.9,654.9 L 2146.9,654.9 2102.6,713.2 2061.9,767.4 2024.8,817.6 1991.1,864.2 1960.5,907.2 1932.9,946.9 1908.3,983.5 1886.3,1017.0 1867.1,1047.7 1850.3,1075.6 1836.0,1100.9 1824.1,1123.8 1814.5,1144.3 1807.0,1162.5 1801.8,1178.4 1798.7,1192.3 1797.7,1204.1 1798.9,1213.9 1802.1,1221.8 1807.4,1227.7 1814.9,1231.7 1824.5,1233.8 1836.4,1234.0 1850.5,1232.4 1866.9,1228.8 1885.8,1223.2 1907.1,1215.7 1931.1,1206.2 1957.7,1194.5 1987.2,1180.7 2019.7,1164.6 2055.2,1146.2 2094.1,1125.4 2136.4,1102.0 2182.3,1075.9 2232.1,1047.1 2285.8,1015.2 2343.8,980.3 2406.3,942.1  Z" style="stroke-width: 2.0;  stroke: rgb(82,82,82); fill: rgb(53,128,0); opacity: 0.667;" />
</g>
<defs>
<pattern id="hline-sparse" width="10" height="10" patternTransform="rotate(0 0 0)" patternUnits="userSpaceOnUse"><line x1="0" y1="0" x2="10" y2="0" style="stroke:black;stroke-width:2" /></pattern>
<pattern id="checker" width="10" height="10" patternTransform="rotate(45 0 0)" patternUnits="userSpaceOnUse"><line x1="0" y1="0" x2="10" y2="0" style="stroke:black;stroke-width:2" /><line x1="0" y1="0" x2="0" y2="10" style="stroke:black;stroke-width:2" /></pattern>
<pattern id="checker" width="10" height="10" patternTransform="rotate(45 0 0)" patternUnits="userSpaceOnUse"><line x1="0" y1="0" x2="10" y2="0" style="stroke:black;stroke-width:5" /><line x1="0" y1="0" x2="0" y2="10" style="stroke:black;stroke-width:4" /></pattern>
<pattern id="hline" width="10" height="10" patternTransform="rotate(0 0 0)" patternUnits="userSpaceOnUse"><line x1="0" y1="0" x2="10" y2="0" style="stroke:black;stroke-width:5" /></pattern>
<pattern id="vline-sparse" width="10" height="10" patternTransform="rotate(0 0 0)" patternUnits="userSpaceOnUse"><line x1="0" y1="0" x2="0" y2="10" style="stroke:black;stroke-width:2" /></pattern>
<pattern id="vline" width="10" height="10" patternTransform="rotate(0 0 0)" patternUnits="userSpaceOnUse"><line x1="0" y1="0" x2="0" y2="10" style="stroke:black;stroke-width:5" /></pattern>
</defs>
</svg>
