<?xml version="1.0" encoding="utf-8" standalone="no"?>
<!DOCTYPE svg PUBLIC "-//W3C//DTD SVG 1.1//EN" "http://www.w3.org/Graphics/SVG/1.1/DTD/svg11.dtd">
<svg width="3000px" height="3000px" version="1.1" xmlns="http://www.w3.org/2000/svg" xmlns:xlink="http://www.w3.org/1999/xlink">
<g id="ideograms">
<path d="M1500.000,425.000 A1075.000,1075.000 40.000 0,1 1570.419,427.309 L1573.694,377.416 A1125.000,1125.000 0.000 0,0 1500.000,375.000 Z" style="stroke-linecap:round;fill:rgb(116,196,118);fill-opacity:0.33;" />
<text x="1549.3" y="286.0" font-size="18.2px" font-family="CMUBright-Roman" style="text-anchor:start;fill:rgb(0,0,0);" transform="rotate(271.9,1549.3,286.0)" >R<tspan baseline-shift="-40%" font-size="90%">s</tspan>caffold<tspan baseline-shift="-40%" font-size="90%">3</tspan>0</text>
<line x1='1500.0' y1='375.0' x2='1500.0' y2='355.0' style="stroke-width:4.0;stroke:rgb(0,0,0);stroke-linecap:round;fill:none;" />
<text x="1506.5" y="345.0" font-size="18.2px" font-family="CMUBright-Roman" style="text-anchor:start;fill:rgb(0,0,0);" transform="rotate(270.0,1506.5,345.0)" >0</text>
<g id="highlighttrack_0">
<path d="M1534.711,425.561 A1075.000,1075.000 40.000 0,1 1537.792,425.664 L1539.550,375.695 A1125.000,1125.000 0.000 0,0 1536.325,375.587 Z" style="stroke-width:4.0;stroke:rgb(0,0,0);stroke-linecap:round;fill:rgb(116,196,118);" />
<path d="M1516.693,425.130 A1075.000,1075.000 40.000 0,1 1521.244,425.210 L1522.232,375.220 A1125.000,1125.000 0.000 0,0 1517.470,375.136 Z" style="stroke-width:4.0;stroke:rgb(0,0,0);stroke-linecap:round;fill:rgb(251,106,74);" />
</g>
<path d="M1635.058,433.518 A1075.000,1075.000 40.000 0,1 1639.677,434.113 L1646.173,384.537 A1125.000,1125.000 0.000 0,0 1641.339,383.914 Z" style="stroke-linecap:round;fill:rgb(116,196,118);fill-opacity:0.33;" />
<text x="1664.7" y="296.2" font-size="18.2px" font-family="CMUBright-Roman" style="text-anchor:start;fill:rgb(0,0,0);" transform="rotate(277.3,1664.7,296.2)" >R<tspan baseline-shift="-40%" font-size="90%">s</tspan>caffold<tspan baseline-shift="-40%" font-size="90%">3</tspan>7</text>
<line x1='1641.3' y1='383.9' x2='1643.9' y2='364.1' style="stroke-width:4.0;stroke:rgb(0,0,0);stroke-linecap:round;fill:none;" />
<text x="1651.6" y="355.0" font-size="18.2px" font-family="CMUBright-Roman" style="text-anchor:start;fill:rgb(0,0,0);" transform="rotate(277.2,1651.6,355.0)" >0</text>
<g id="highlighttrack_0">
<path d="M1635.340,433.554 A1075.000,1075.000 40.000 0,1 1639.677,434.113 L1646.173,384.537 A1125.000,1125.000 0.000 0,0 1641.635,383.951 Z" style="stroke-width:4.0;stroke:rgb(0,0,0);stroke-linecap:round;fill:rgb(251,106,74);" />
</g>
<path d="M1703.778,444.491 A1075.000,1075.000 40.000 1,1 1037.003,529.815 L1015.468,484.690 A1125.000,1125.000 0.000 1,0 1713.257,395.398 Z" style="stroke-linecap:round;fill:rgb(116,196,118);fill-opacity:0.33;" />
<text x="1644.8" y="2706.3" font-size="18.2px" font-family="CMUBright-Roman" style="text-anchor:start;fill:rgb(0,0,0);" transform="rotate(82.7,1644.8,2706.3)" >NZ<tspan baseline-shift="-40%" font-size="90%">C</tspan>P050313.1</text>
<line x1='1713.3' y1='395.4' x2='1717.0' y2='375.8' style="stroke-width:4.0;stroke:rgb(0,0,0);stroke-linecap:round;fill:none;" />
<text x="1725.3" y="367.2" font-size="18.2px" font-family="CMUBright-Roman" style="text-anchor:start;fill:rgb(0,0,0);" transform="rotate(280.9,1725.3,367.2)" >0</text>
<line x1='1790.1' y1='413.0' x2='1795.2' y2='393.7' style="stroke-width:4.0;stroke:rgb(0,0,0);stroke-linecap:round;fill:none;" />
<text x="1804.1" y="385.7" font-size="18.2px" font-family="CMUBright-Roman" style="text-anchor:start;fill:rgb(0,0,0);" transform="rotate(284.9,1804.1,385.7)" >50</text>
<line x1='1865.5' y1='436.0' x2='1872.0' y2='417.1' style="stroke-width:4.0;stroke:rgb(0,0,0);stroke-linecap:round;fill:none;" />
<text x="1881.4" y="409.8" font-size="18.2px" font-family="CMUBright-Roman" style="text-anchor:start;fill:rgb(0,0,0);" transform="rotate(289.0,1881.4,409.8)" >100</text>
<line x1='1939.1' y1='464.2' x2='1946.9' y2='445.8' style="stroke-width:4.0;stroke:rgb(0,0,0);stroke-linecap:round;fill:none;" />
<text x="1956.8" y="439.2" font-size="18.2px" font-family="CMUBright-Roman" style="text-anchor:start;fill:rgb(0,0,0);" transform="rotate(293.0,1956.8,439.2)" >150</text>
<line x1='2010.5' y1='497.5' x2='2019.6' y2='479.7' style="stroke-width:4.0;stroke:rgb(0,0,0);stroke-linecap:round;fill:none;" />
<text x="2029.9" y="473.7" font-size="18.2px" font-family="CMUBright-Roman" style="text-anchor:start;fill:rgb(0,0,0);" transform="rotate(297.0,2029.9,473.7)" >200</text>
<line x1='2079.5' y1='535.7' x2='2089.8' y2='518.6' style="stroke-width:4.0;stroke:rgb(0,0,0);stroke-linecap:round;fill:none;" />
<text x="2100.5" y="513.4" font-size="18.2px" font-family="CMUBright-Roman" style="text-anchor:start;fill:rgb(0,0,0);" transform="rotate(301.0,2100.5,513.4)" >250</text>
<line x1='2145.6' y1='578.7' x2='2157.0' y2='562.3' style="stroke-width:4.0;stroke:rgb(0,0,0);stroke-linecap:round;fill:none;" />
<text x="2168.1" y="557.8" font-size="18.2px" font-family="CMUBright-Roman" style="text-anchor:start;fill:rgb(0,0,0);" transform="rotate(305.0,2168.1,557.8)" >300</text>
<line x1='2208.5' y1='626.1' x2='2221.1' y2='610.6' style="stroke-width:4.0;stroke:rgb(0,0,0);stroke-linecap:round;fill:none;" />
<text x="2232.4" y="606.9" font-size="18.2px" font-family="CMUBright-Roman" style="text-anchor:start;fill:rgb(0,0,0);" transform="rotate(309.0,2232.4,606.9)" >350</text>
<line x1='2267.9' y1='677.9' x2='2281.6' y2='663.3' style="stroke-width:4.0;stroke:rgb(0,0,0);stroke-linecap:round;fill:none;" />
<text x="2293.2" y="660.4" font-size="18.2px" font-family="CMUBright-Roman" style="text-anchor:start;fill:rgb(0,0,0);" transform="rotate(313.0,2293.2,660.4)" >400</text>
<line x1='2323.6' y1='733.7' x2='2338.3' y2='720.0' style="stroke-width:4.0;stroke:rgb(0,0,0);stroke-linecap:round;fill:none;" />
<text x="2350.0" y="718.0" font-size="18.2px" font-family="CMUBright-Roman" style="text-anchor:start;fill:rgb(0,0,0);" transform="rotate(317.1,2350.0,718.0)" >450</text>
<line x1='2375.3' y1='793.2' x2='2390.8' y2='780.7' style="stroke-width:4.0;stroke:rgb(0,0,0);stroke-linecap:round;fill:none;" />
<text x="2402.7" y="779.4" font-size="18.2px" font-family="CMUBright-Roman" style="text-anchor:start;fill:rgb(0,0,0);" transform="rotate(321.1,2402.7,779.4)" >500</text>
<line x1='2422.6' y1='856.2' x2='2439.0' y2='844.8' style="stroke-width:4.0;stroke:rgb(0,0,0);stroke-linecap:round;fill:none;" />
<text x="2450.9" y="844.4" font-size="18.2px" font-family="CMUBright-Roman" style="text-anchor:start;fill:rgb(0,0,0);" transform="rotate(325.1,2450.9,844.4)" >550</text>
<line x1='2465.4' y1='922.4' x2='2482.6' y2='912.2' style="stroke-width:4.0;stroke:rgb(0,0,0);stroke-linecap:round;fill:none;" />
<text x="2494.5" y="912.6" font-size="18.2px" font-family="CMUBright-Roman" style="text-anchor:start;fill:rgb(0,0,0);" transform="rotate(329.1,2494.5,912.6)" >600</text>
<line x1='2503.5' y1='991.4' x2='2521.3' y2='982.4' style="stroke-width:4.0;stroke:rgb(0,0,0);stroke-linecap:round;fill:none;" />
<text x="2533.2" y="983.7" font-size="18.2px" font-family="CMUBright-Roman" style="text-anchor:start;fill:rgb(0,0,0);" transform="rotate(333.1,2533.2,983.7)" >650</text>
<line x1='2536.6' y1='1063.0' x2='2555.1' y2='1055.2' style="stroke-width:4.0;stroke:rgb(0,0,0);stroke-linecap:round;fill:none;" />
<text x="2566.8" y="1057.3" font-size="18.2px" font-family="CMUBright-Roman" style="text-anchor:start;fill:rgb(0,0,0);" transform="rotate(337.1,2566.8,1057.3)" >700</text>
<line x1='2564.7' y1='1136.6' x2='2583.6' y2='1130.2' style="stroke-width:4.0;stroke:rgb(0,0,0);stroke-linecap:round;fill:none;" />
<text x="2595.2" y="1133.1" font-size="18.2px" font-family="CMUBright-Roman" style="text-anchor:start;fill:rgb(0,0,0);" transform="rotate(341.2,2595.2,1133.1)" >750</text>
<line x1='2587.5' y1='1212.1' x2='2606.9' y2='1206.9' style="stroke-width:4.0;stroke:rgb(0,0,0);stroke-linecap:round;fill:none;" />
<text x="2618.2" y="1210.7" font-size="18.2px" font-family="CMUBright-Roman" style="text-anchor:start;fill:rgb(0,0,0);" transform="rotate(345.2,2618.2,1210.7)" >800</text>
<line x1='2605.0' y1='1288.9' x2='2624.7' y2='1285.2' style="stroke-width:4.0;stroke:rgb(0,0,0);stroke-linecap:round;fill:none;" />
<text x="2635.7" y="1289.7" font-size="18.2px" font-family="CMUBright-Roman" style="text-anchor:start;fill:rgb(0,0,0);" transform="rotate(349.2,2635.7,1289.7)" >850</text>
<line x1='2617.1' y1='1366.8' x2='2636.9' y2='1364.4' style="stroke-width:4.0;stroke:rgb(0,0,0);stroke-linecap:round;fill:none;" />
<text x="2647.6" y="1369.7" font-size="18.2px" font-family="CMUBright-Roman" style="text-anchor:start;fill:rgb(0,0,0);" transform="rotate(353.2,2647.6,1369.7)" >900</text>
<line x1='2623.7' y1='1445.4' x2='2643.6' y2='1444.4' style="stroke-width:4.0;stroke:rgb(0,0,0);stroke-linecap:round;fill:none;" />
<text x="2653.9" y="1450.4" font-size="18.2px" font-family="CMUBright-Roman" style="text-anchor:start;fill:rgb(0,0,0);" transform="rotate(357.2,2653.9,1450.4)" >950</text>
<line x1='2624.7' y1='1524.2' x2='2644.7' y2='1524.6' style="stroke-width:4.0;stroke:rgb(0,0,0);stroke-linecap:round;fill:none;" />
<text x="2654.6" y="1531.3" font-size="18.2px" font-family="CMUBright-Roman" style="text-anchor:start;fill:rgb(0,0,0);" transform="rotate(1.2,2654.6,1531.3)" >1000</text>
<line x1='2620.3' y1='1602.9' x2='2640.2' y2='1604.7' style="stroke-width:4.0;stroke:rgb(0,0,0);stroke-linecap:round;fill:none;" />
<text x="2649.5" y="1612.1" font-size="18.2px" font-family="CMUBright-Roman" style="text-anchor:start;fill:rgb(0,0,0);" transform="rotate(5.2,2649.5,1612.1)" >1050</text>
<line x1='2610.3' y1='1681.1' x2='2630.1' y2='1684.3' style="stroke-width:4.0;stroke:rgb(0,0,0);stroke-linecap:round;fill:none;" />
<text x="2638.9" y="1692.3" font-size="18.2px" font-family="CMUBright-Roman" style="text-anchor:start;fill:rgb(0,0,0);" transform="rotate(9.3,2638.9,1692.3)" >1100</text>
<line x1='2594.9' y1='1758.4' x2='2614.4' y2='1763.0' style="stroke-width:4.0;stroke:rgb(0,0,0);stroke-linecap:round;fill:none;" />
<text x="2622.6" y="1771.6" font-size="18.2px" font-family="CMUBright-Roman" style="text-anchor:start;fill:rgb(0,0,0);" transform="rotate(13.3,2622.6,1771.6)" >1150</text>
<line x1='2574.2' y1='1834.4' x2='2593.2' y2='1840.3' style="stroke-width:4.0;stroke:rgb(0,0,0);stroke-linecap:round;fill:none;" />
<text x="2600.8" y="1849.5" font-size="18.2px" font-family="CMUBright-Roman" style="text-anchor:start;fill:rgb(0,0,0);" transform="rotate(17.3,2600.8,1849.5)" >1200</text>
<line x1='2548.1' y1='1908.8' x2='2566.7' y2='1916.1' style="stroke-width:4.0;stroke:rgb(0,0,0);stroke-linecap:round;fill:none;" />
<text x="2573.7" y="1925.7" font-size="18.2px" font-family="CMUBright-Roman" style="text-anchor:start;fill:rgb(0,0,0);" transform="rotate(21.3,2573.7,1925.7)" >1250</text>
<line x1='2516.9' y1='1981.2' x2='2535.0' y2='1989.7' style="stroke-width:4.0;stroke:rgb(0,0,0);stroke-linecap:round;fill:none;" />
<text x="2541.2" y="1999.9" font-size="18.2px" font-family="CMUBright-Roman" style="text-anchor:start;fill:rgb(0,0,0);" transform="rotate(25.3,2541.2,1999.9)" >1300</text>
<line x1='2480.7' y1='2051.2' x2='2498.2' y2='2061.0' style="stroke-width:4.0;stroke:rgb(0,0,0);stroke-linecap:round;fill:none;" />
<text x="2503.7" y="2071.6" font-size="18.2px" font-family="CMUBright-Roman" style="text-anchor:start;fill:rgb(0,0,0);" transform="rotate(29.3,2503.7,2071.6)" >1350</text>
<line x1='2439.7' y1='2118.5' x2='2456.4' y2='2129.5' style="stroke-width:4.0;stroke:rgb(0,0,0);stroke-linecap:round;fill:none;" />
<text x="2461.2" y="2140.4" font-size="18.2px" font-family="CMUBright-Roman" style="text-anchor:start;fill:rgb(0,0,0);" transform="rotate(33.4,2461.2,2140.4)" >1400</text>
<line x1='2394.1' y1='2182.8' x2='2410.0' y2='2194.9' style="stroke-width:4.0;stroke:rgb(0,0,0);stroke-linecap:round;fill:none;" />
<text x="2414.0" y="2206.2" font-size="18.2px" font-family="CMUBright-Roman" style="text-anchor:start;fill:rgb(0,0,0);" transform="rotate(37.4,2414.0,2206.2)" >1450</text>
<line x1='2344.1' y1='2243.7' x2='2359.1' y2='2256.9' style="stroke-width:4.0;stroke:rgb(0,0,0);stroke-linecap:round;fill:none;" />
<text x="2362.3" y="2268.4" font-size="18.2px" font-family="CMUBright-Roman" style="text-anchor:start;fill:rgb(0,0,0);" transform="rotate(41.4,2362.3,2268.4)" >1500</text>
<line x1='2289.9' y1='2301.0' x2='2304.0' y2='2315.2' style="stroke-width:4.0;stroke:rgb(0,0,0);stroke-linecap:round;fill:none;" />
<text x="2306.4" y="2326.9" font-size="18.2px" font-family="CMUBright-Roman" style="text-anchor:start;fill:rgb(0,0,0);" transform="rotate(45.4,2306.4,2326.9)" >1550</text>
<line x1='2231.9' y1='2354.4' x2='2244.9' y2='2369.5' style="stroke-width:4.0;stroke:rgb(0,0,0);stroke-linecap:round;fill:none;" />
<text x="2246.5" y="2381.3" font-size="18.2px" font-family="CMUBright-Roman" style="text-anchor:start;fill:rgb(0,0,0);" transform="rotate(49.4,2246.5,2381.3)" >1600</text>
<line x1='2170.3' y1='2403.5' x2='2182.2' y2='2419.6' style="stroke-width:4.0;stroke:rgb(0,0,0);stroke-linecap:round;fill:none;" />
<text x="2182.9" y="2431.5" font-size="18.2px" font-family="CMUBright-Roman" style="text-anchor:start;fill:rgb(0,0,0);" transform="rotate(53.4,2182.9,2431.5)" >1650</text>
<line x1='2105.4' y1='2448.2' x2='2116.2' y2='2465.1' style="stroke-width:4.0;stroke:rgb(0,0,0);stroke-linecap:round;fill:none;" />
<text x="2116.0" y="2477.0" font-size="18.2px" font-family="CMUBright-Roman" style="text-anchor:start;fill:rgb(0,0,0);" transform="rotate(57.4,2116.0,2477.0)" >1700</text>
<line x1='2037.5' y1='2488.3' x2='2047.1' y2='2505.9' style="stroke-width:4.0;stroke:rgb(0,0,0);stroke-linecap:round;fill:none;" />
<text x="2046.1" y="2517.7" font-size="18.2px" font-family="CMUBright-Roman" style="text-anchor:start;fill:rgb(0,0,0);" transform="rotate(61.5,2046.1,2517.7)" >1750</text>
<line x1='1967.0' y1='2523.5' x2='1975.3' y2='2541.7' style="stroke-width:4.0;stroke:rgb(0,0,0);stroke-linecap:round;fill:none;" />
<text x="1973.5" y="2553.5" font-size="18.2px" font-family="CMUBright-Roman" style="text-anchor:start;fill:rgb(0,0,0);" transform="rotate(65.5,1973.5,2553.5)" >1800</text>
<line x1='1894.2' y1='2553.7' x2='1901.2' y2='2572.4' style="stroke-width:4.0;stroke:rgb(0,0,0);stroke-linecap:round;fill:none;" />
<text x="1898.6" y="2584.0" font-size="18.2px" font-family="CMUBright-Roman" style="text-anchor:start;fill:rgb(0,0,0);" transform="rotate(69.5,1898.6,2584.0)" >1850</text>
<line x1='1819.4' y1='2578.7' x2='1825.1' y2='2597.9' style="stroke-width:4.0;stroke:rgb(0,0,0);stroke-linecap:round;fill:none;" />
<text x="1821.7" y="2609.3" font-size="18.2px" font-family="CMUBright-Roman" style="text-anchor:start;fill:rgb(0,0,0);" transform="rotate(73.5,1821.7,2609.3)" >1900</text>
<line x1='1743.1' y1='2598.4' x2='1747.4' y2='2617.9' style="stroke-width:4.0;stroke:rgb(0,0,0);stroke-linecap:round;fill:none;" />
<text x="1743.2" y="2629.1" font-size="18.2px" font-family="CMUBright-Roman" style="text-anchor:start;fill:rgb(0,0,0);" transform="rotate(77.5,1743.2,2629.1)" >1950</text>
<line x1='1665.6' y1='2612.7' x2='1668.6' y2='2632.5' style="stroke-width:4.0;stroke:rgb(0,0,0);stroke-linecap:round;fill:none;" />
<text x="1663.6" y="2643.4" font-size="18.2px" font-family="CMUBright-Roman" style="text-anchor:start;fill:rgb(0,0,0);" transform="rotate(81.5,1663.6,2643.4)" >2000</text>
<line x1='1587.3' y1='2621.6' x2='1588.8' y2='2641.5' style="stroke-width:4.0;stroke:rgb(0,0,0);stroke-linecap:round;fill:none;" />
<text x="1583.1" y="2652.0" font-size="18.2px" font-family="CMUBright-Roman" style="text-anchor:start;fill:rgb(0,0,0);" transform="rotate(85.6,1583.1,2652.0)" >2050</text>
<line x1='1508.5' y1='2625.0' x2='1508.7' y2='2645.0' style="stroke-width:4.0;stroke:rgb(0,0,0);stroke-linecap:round;fill:none;" />
<text x="1502.3" y="2655.0" font-size="18.2px" font-family="CMUBright-Roman" style="text-anchor:start;fill:rgb(0,0,0);" transform="rotate(89.6,1502.3,2655.0)" >2100</text>
<line x1='1429.7' y1='2622.8' x2='1428.5' y2='2642.8' style="stroke-width:4.0;stroke:rgb(0,0,0);stroke-linecap:round;fill:none;" />
<text x="1434.4" y="2653.1" font-size="18.2px" font-family="CMUBright-Roman" style="text-anchor:end;fill:rgb(0,0,0);" transform="rotate(-86.4,1434.4,2653.1)" >2150</text>
<line x1='1351.3' y1='2615.1' x2='1348.7' y2='2635.0' style="stroke-width:4.0;stroke:rgb(0,0,0);stroke-linecap:round;fill:none;" />
<text x="1353.8" y="2645.7" font-size="18.2px" font-family="CMUBright-Roman" style="text-anchor:end;fill:rgb(0,0,0);" transform="rotate(-82.4,1353.8,2645.7)" >2200</text>
<line x1='1273.6' y1='2602.0' x2='1269.6' y2='2621.6' style="stroke-width:4.0;stroke:rgb(0,0,0);stroke-linecap:round;fill:none;" />
<text x="1273.9" y="2632.7" font-size="18.2px" font-family="CMUBright-Roman" style="text-anchor:end;fill:rgb(0,0,0);" transform="rotate(-78.4,1273.9,2632.7)" >2250</text>
<line x1='1197.0' y1='2583.4' x2='1191.6' y2='2602.7' style="stroke-width:4.0;stroke:rgb(0,0,0);stroke-linecap:round;fill:none;" />
<text x="1195.2" y="2614.0" font-size="18.2px" font-family="CMUBright-Roman" style="text-anchor:end;fill:rgb(0,0,0);" transform="rotate(-74.4,1195.2,2614.0)" >2300</text>
<line x1='1121.9' y1='2559.5' x2='1115.1' y2='2578.4' style="stroke-width:4.0;stroke:rgb(0,0,0);stroke-linecap:round;fill:none;" />
<text x="1117.9" y="2590.0" font-size="18.2px" font-family="CMUBright-Roman" style="text-anchor:end;fill:rgb(0,0,0);" transform="rotate(-70.4,1117.9,2590.0)" >2350</text>
<line x1='1048.6' y1='2530.5' x2='1040.6' y2='2548.8' style="stroke-width:4.0;stroke:rgb(0,0,0);stroke-linecap:round;fill:none;" />
<text x="1042.5" y="2560.5" font-size="18.2px" font-family="CMUBright-Roman" style="text-anchor:end;fill:rgb(0,0,0);" transform="rotate(-66.3,1042.5,2560.5)" >2400</text>
<line x1='977.5' y1='2496.3' x2='968.3' y2='2514.0' style="stroke-width:4.0;stroke:rgb(0,0,0);stroke-linecap:round;fill:none;" />
<text x="969.4" y="2525.9" font-size="18.2px" font-family="CMUBright-Roman" style="text-anchor:end;fill:rgb(0,0,0);" transform="rotate(-62.3,969.4,2525.9)" >2450</text>
<line x1='909.1' y1='2457.3' x2='898.6' y2='2474.3' style="stroke-width:4.0;stroke:rgb(0,0,0);stroke-linecap:round;fill:none;" />
<text x="898.8" y="2486.2" font-size="18.2px" font-family="CMUBright-Roman" style="text-anchor:end;fill:rgb(0,0,0);" transform="rotate(-58.3,898.8,2486.2)" >2500</text>
<line x1='843.5' y1='2413.6' x2='831.8' y2='2429.8' style="stroke-width:4.0;stroke:rgb(0,0,0);stroke-linecap:round;fill:none;" />
<text x="831.3" y="2441.7" font-size="18.2px" font-family="CMUBright-Roman" style="text-anchor:end;fill:rgb(0,0,0);" transform="rotate(-54.3,831.3,2441.7)" >2550</text>
<line x1='781.1' y1='2365.4' x2='768.3' y2='2380.7' style="stroke-width:4.0;stroke:rgb(0,0,0);stroke-linecap:round;fill:none;" />
<text x="767.0" y="2392.6" font-size="18.2px" font-family="CMUBright-Roman" style="text-anchor:end;fill:rgb(0,0,0);" transform="rotate(-50.3,767.0,2392.6)" >2600</text>
<line x1='722.3' y1='2312.9' x2='708.5' y2='2327.3' style="stroke-width:4.0;stroke:rgb(0,0,0);stroke-linecap:round;fill:none;" />
<text x="706.3" y="2339.1" font-size="18.2px" font-family="CMUBright-Roman" style="text-anchor:end;fill:rgb(0,0,0);" transform="rotate(-46.3,706.3,2339.1)" >2650</text>
<line x1='667.3' y1='2256.4' x2='652.5' y2='2269.9' style="stroke-width:4.0;stroke:rgb(0,0,0);stroke-linecap:round;fill:none;" />
<text x="649.5" y="2281.4" font-size="18.2px" font-family="CMUBright-Roman" style="text-anchor:end;fill:rgb(0,0,0);" transform="rotate(-42.3,649.5,2281.4)" >2700</text>
<line x1='616.4' y1='2196.3' x2='600.7' y2='2208.7' style="stroke-width:4.0;stroke:rgb(0,0,0);stroke-linecap:round;fill:none;" />
<text x="596.8" y="2219.9" font-size="18.2px" font-family="CMUBright-Roman" style="text-anchor:end;fill:rgb(0,0,0);" transform="rotate(-38.2,596.8,2219.9)" >2750</text>
<line x1='569.8' y1='2132.7' x2='553.2' y2='2143.9' style="stroke-width:4.0;stroke:rgb(0,0,0);stroke-linecap:round;fill:none;" />
<text x="548.6" y="2154.9" font-size="18.2px" font-family="CMUBright-Roman" style="text-anchor:end;fill:rgb(0,0,0);" transform="rotate(-34.2,548.6,2154.9)" >2800</text>
<line x1='527.8' y1='2066.0' x2='510.5' y2='2076.1' style="stroke-width:4.0;stroke:rgb(0,0,0);stroke-linecap:round;fill:none;" />
<text x="505.1" y="2086.7" font-size="18.2px" font-family="CMUBright-Roman" style="text-anchor:end;fill:rgb(0,0,0);" transform="rotate(-30.2,505.1,2086.7)" >2850</text>
<line x1='490.5' y1='1996.5' x2='472.6' y2='2005.4' style="stroke-width:4.0;stroke:rgb(0,0,0);stroke-linecap:round;fill:none;" />
<text x="466.5" y="2015.6" font-size="18.2px" font-family="CMUBright-Roman" style="text-anchor:end;fill:rgb(0,0,0);" transform="rotate(-26.2,466.5,2015.6)" >2900</text>
<line x1='458.2' y1='1924.6' x2='439.7' y2='1932.2' style="stroke-width:4.0;stroke:rgb(0,0,0);stroke-linecap:round;fill:none;" />
<text x="432.9" y="1942.0" font-size="18.2px" font-family="CMUBright-Roman" style="text-anchor:end;fill:rgb(0,0,0);" transform="rotate(-22.2,432.9,1942.0)" >2950</text>
<line x1='431.0' y1='1850.7' x2='412.0' y2='1856.9' style="stroke-width:4.0;stroke:rgb(0,0,0);stroke-linecap:round;fill:none;" />
<text x="404.6" y="1866.2" font-size="18.2px" font-family="CMUBright-Roman" style="text-anchor:end;fill:rgb(0,0,0);" transform="rotate(-18.2,404.6,1866.2)" >3000</text>
<line x1='409.1' y1='1774.9' x2='389.7' y2='1779.8' style="stroke-width:4.0;stroke:rgb(0,0,0);stroke-linecap:round;fill:none;" />
<text x="381.6" y="1788.6" font-size="18.2px" font-family="CMUBright-Roman" style="text-anchor:end;fill:rgb(0,0,0);" transform="rotate(-14.1,381.6,1788.6)" >3050</text>
<line x1='392.5' y1='1697.9' x2='372.9' y2='1701.4' style="stroke-width:4.0;stroke:rgb(0,0,0);stroke-linecap:round;fill:none;" />
<text x="364.2" y="1709.6" font-size="18.2px" font-family="CMUBright-Roman" style="text-anchor:end;fill:rgb(0,0,0);" transform="rotate(-10.1,364.2,1709.6)" >3100</text>
<line x1='381.4' y1='1619.9' x2='361.5' y2='1622.0' style="stroke-width:4.0;stroke:rgb(0,0,0);stroke-linecap:round;fill:none;" />
<text x="352.3" y="1629.5" font-size="18.2px" font-family="CMUBright-Roman" style="text-anchor:end;fill:rgb(0,0,0);" transform="rotate(-6.1,352.3,1629.5)" >3150</text>
<line x1='375.8' y1='1541.2' x2='355.8' y2='1542.0' style="stroke-width:4.0;stroke:rgb(0,0,0);stroke-linecap:round;fill:none;" />
<text x="346.0" y="1548.8" font-size="18.2px" font-family="CMUBright-Roman" style="text-anchor:end;fill:rgb(0,0,0);" transform="rotate(-2.1,346.0,1548.8)" >3200</text>
<line x1='375.6' y1='1462.4' x2='355.6' y2='1461.7' style="stroke-width:4.0;stroke:rgb(0,0,0);stroke-linecap:round;fill:none;" />
<text x="345.4" y="1467.9" font-size="18.2px" font-family="CMUBright-Roman" style="text-anchor:end;fill:rgb(0,0,0);" transform="rotate(1.9,345.4,1467.9)" >3250</text>
<line x1='381.0' y1='1383.8' x2='361.1' y2='1381.7' style="stroke-width:4.0;stroke:rgb(0,0,0);stroke-linecap:round;fill:none;" />
<text x="350.5" y="1387.1" font-size="18.2px" font-family="CMUBright-Roman" style="text-anchor:end;fill:rgb(0,0,0);" transform="rotate(5.9,350.5,1387.1)" >3300</text>
<line x1='391.9' y1='1305.7' x2='372.2' y2='1302.3' style="stroke-width:4.0;stroke:rgb(0,0,0);stroke-linecap:round;fill:none;" />
<text x="361.3" y="1306.9" font-size="18.2px" font-family="CMUBright-Roman" style="text-anchor:end;fill:rgb(0,0,0);" transform="rotate(9.9,361.3,1306.9)" >3350</text>
<line x1='408.2' y1='1228.6' x2='388.8' y2='1223.8' style="stroke-width:4.0;stroke:rgb(0,0,0);stroke-linecap:round;fill:none;" />
<text x="377.6" y="1227.7" font-size="18.2px" font-family="CMUBright-Roman" style="text-anchor:end;fill:rgb(0,0,0);" transform="rotate(14.0,377.6,1227.7)" >3400</text>
<line x1='429.9' y1='1152.8' x2='410.9' y2='1146.6' style="stroke-width:4.0;stroke:rgb(0,0,0);stroke-linecap:round;fill:none;" />
<text x="399.4" y="1149.7" font-size="18.2px" font-family="CMUBright-Roman" style="text-anchor:end;fill:rgb(0,0,0);" transform="rotate(18.0,399.4,1149.7)" >3450</text>
<line x1='456.9' y1='1078.7' x2='438.3' y2='1071.2' style="stroke-width:4.0;stroke:rgb(0,0,0);stroke-linecap:round;fill:none;" />
<text x="426.6" y="1073.5" font-size="18.2px" font-family="CMUBright-Roman" style="text-anchor:end;fill:rgb(0,0,0);" transform="rotate(22.0,426.6,1073.5)" >3500</text>
<line x1='488.9' y1='1006.7' x2='470.9' y2='998.0' style="stroke-width:4.0;stroke:rgb(0,0,0);stroke-linecap:round;fill:none;" />
<text x="459.1" y="999.4" font-size="18.2px" font-family="CMUBright-Roman" style="text-anchor:end;fill:rgb(0,0,0);" transform="rotate(26.0,459.1,999.4)" >3550</text>
<line x1='525.9' y1='937.1' x2='508.6' y2='927.1' style="stroke-width:4.0;stroke:rgb(0,0,0);stroke-linecap:round;fill:none;" />
<text x="496.7" y="927.8" font-size="18.2px" font-family="CMUBright-Roman" style="text-anchor:end;fill:rgb(0,0,0);" transform="rotate(30.0,496.7,927.8)" >3600</text>
<line x1='567.7' y1='870.3' x2='551.2' y2='859.1' style="stroke-width:4.0;stroke:rgb(0,0,0);stroke-linecap:round;fill:none;" />
<text x="539.2" y="858.9" font-size="18.2px" font-family="CMUBright-Roman" style="text-anchor:end;fill:rgb(0,0,0);" transform="rotate(34.0,539.2,858.9)" >3650</text>
<line x1='614.1' y1='806.6' x2='598.4' y2='794.3' style="stroke-width:4.0;stroke:rgb(0,0,0);stroke-linecap:round;fill:none;" />
<text x="586.5" y="793.2" font-size="18.2px" font-family="CMUBright-Roman" style="text-anchor:end;fill:rgb(0,0,0);" transform="rotate(38.1,586.5,793.2)" >3700</text>
<line x1='664.8' y1='746.3' x2='650.0' y2='732.9' style="stroke-width:4.0;stroke:rgb(0,0,0);stroke-linecap:round;fill:none;" />
<text x="638.2" y="731.0" font-size="18.2px" font-family="CMUBright-Roman" style="text-anchor:end;fill:rgb(0,0,0);" transform="rotate(42.1,638.2,731.0)" >3750</text>
<line x1='719.7' y1='689.6' x2='705.8' y2='675.2' style="stroke-width:4.0;stroke:rgb(0,0,0);stroke-linecap:round;fill:none;" />
<text x="694.2" y="672.5" font-size="18.2px" font-family="CMUBright-Roman" style="text-anchor:end;fill:rgb(0,0,0);" transform="rotate(46.1,694.2,672.5)" >3800</text>
<line x1='778.3' y1='637.0' x2='765.5' y2='621.6' style="stroke-width:4.0;stroke:rgb(0,0,0);stroke-linecap:round;fill:none;" />
<text x="754.1" y="618.1" font-size="18.2px" font-family="CMUBright-Roman" style="text-anchor:end;fill:rgb(0,0,0);" transform="rotate(50.1,754.1,618.1)" >3850</text>
<line x1='840.5' y1='588.6' x2='828.8' y2='572.4' style="stroke-width:4.0;stroke:rgb(0,0,0);stroke-linecap:round;fill:none;" />
<text x="817.7" y="568.1" font-size="18.2px" font-family="CMUBright-Roman" style="text-anchor:end;fill:rgb(0,0,0);" transform="rotate(54.1,817.7,568.1)" >3900</text>
<line x1='906.0' y1='544.6' x2='895.4' y2='527.6' style="stroke-width:4.0;stroke:rgb(0,0,0);stroke-linecap:round;fill:none;" />
<text x="884.6" y="522.6" font-size="18.2px" font-family="CMUBright-Roman" style="text-anchor:end;fill:rgb(0,0,0);" transform="rotate(58.1,884.6,522.6)" >3950</text>
<line x1='974.3' y1='505.4' x2='965.0' y2='487.7' style="stroke-width:4.0;stroke:rgb(0,0,0);stroke-linecap:round;fill:none;" />
<text x="954.6" y="481.9" font-size="18.2px" font-family="CMUBright-Roman" style="text-anchor:end;fill:rgb(0,0,0);" transform="rotate(62.1,954.6,481.9)" >4000</text>
<g id="highlighttrack_0">
<path d="M965.270,567.429 A1075.000,1075.000 40.000 0,1 969.066,565.263 L944.371,521.786 A1125.000,1125.000 0.000 0,0 940.399,524.054 Z" style="stroke-width:4.0;stroke:rgb(0,0,0);stroke-linecap:round;fill:rgb(116,196,118);" />
<path d="M1765.946,458.416 A1075.000,1075.000 40.000 0,1 1770.178,459.505 L1782.744,411.110 A1125.000,1125.000 0.000 0,0 1778.316,409.970 Z" style="stroke-width:4.0;stroke:rgb(0,0,0);stroke-linecap:round;fill:rgb(251,106,74);" />
<path d="M1890.188,498.312 A1075.000,1075.000 40.000 0,1 1894.256,499.907 L1912.594,453.391 A1125.000,1125.000 0.000 0,0 1908.337,451.722 Z" style="stroke-width:4.0;stroke:rgb(0,0,0);stroke-linecap:round;fill:rgb(251,106,74);" />
<path d="M1961.792,529.241 A1075.000,1075.000 40.000 0,1 1965.735,531.126 L1987.397,486.063 A1125.000,1125.000 0.000 0,0 1983.270,484.089 Z" style="stroke-width:4.0;stroke:rgb(0,0,0);stroke-linecap:round;fill:rgb(251,106,74);" />
<path d="M1137.436,2512.014 A1075.000,1075.000 40.000 0,1 1133.325,2510.532 L1116.271,2557.533 A1125.000,1125.000 0.000 0,0 1120.572,2559.084 Z" style="stroke-width:4.0;stroke:rgb(0,0,0);stroke-linecap:round;fill:rgb(116,196,118);" />
<path d="M425.560,1465.315 A1075.000,1075.000 40.000 0,1 425.709,1460.951 L375.742,1459.135 A1125.000,1125.000 0.000 0,0 375.586,1463.701 Z" style="stroke-width:4.0;stroke:rgb(0,0,0);stroke-linecap:round;fill:rgb(116,196,118);" />
<path d="M428.166,1417.552 A1075.000,1075.000 40.000 0,1 428.510,1413.195 L378.674,1409.158 A1125.000,1125.000 0.000 0,0 378.314,1413.718 Z" style="stroke-width:4.0;stroke:rgb(0,0,0);stroke-linecap:round;fill:rgb(116,196,118);" />
<path d="M679.381,805.587 A1075.000,1075.000 40.000 0,1 682.211,802.256 L644.174,769.803 A1125.000,1125.000 0.000 0,0 641.213,773.289 Z" style="stroke-width:4.0;stroke:rgb(0,0,0);stroke-linecap:round;fill:rgb(116,196,118);" />
<path d="M894.037,612.062 A1075.000,1075.000 40.000 0,1 897.081,609.992 L869.038,568.597 A1125.000,1125.000 0.000 0,0 865.853,570.762 Z" style="stroke-width:4.0;stroke:rgb(0,0,0);stroke-linecap:round;fill:rgb(251,106,74);" />
<path d="M2237.392,717.774 A1075.000,1075.000 40.000 0,1 2240.065,720.302 L2274.486,684.037 A1125.000,1125.000 0.000 0,0 2271.689,681.391 Z" style="stroke-width:4.0;stroke:rgb(0,0,0);stroke-linecap:round;fill:rgb(116,196,118);" />
<path d="M1723.229,2551.567 A1075.000,1075.000 40.000 0,1 1719.627,2552.326 L1729.842,2601.271 A1125.000,1125.000 0.000 0,0 1733.612,2600.477 Z" style="stroke-width:4.0;stroke:rgb(0,0,0);stroke-linecap:round;fill:rgb(251,106,74);" />
<path d="M1607.402,2569.621 A1075.000,1075.000 40.000 0,1 1603.739,2569.983 L1608.564,2619.749 A1125.000,1125.000 0.000 0,0 1612.398,2619.371 Z" style="stroke-width:4.0;stroke:rgb(0,0,0);stroke-linecap:round;fill:rgb(116,196,118);" />
<path d="M1924.911,512.541 A1075.000,1075.000 40.000 0,1 1927.765,513.774 L1947.661,467.903 A1125.000,1125.000 0.000 0,0 1944.675,466.613 Z" style="stroke-width:4.0;stroke:rgb(0,0,0);stroke-linecap:round;fill:rgb(251,106,74);" />
<path d="M1940.084,519.209 A1075.000,1075.000 40.000 0,1 1944.242,521.085 L1964.905,475.555 A1125.000,1125.000 0.000 0,0 1960.553,473.591 Z" style="stroke-width:4.0;stroke:rgb(0,0,0);stroke-linecap:round;fill:rgb(116,196,118);" />
</g>
<path d="M1096.426,503.630 A1075.000,1075.000 40.000 0,1 1435.093,426.961 L1432.074,377.053 A1125.000,1125.000 0.000 0,0 1077.655,457.287 Z" style="stroke-linecap:round;fill:rgb(116,196,118);fill-opacity:0.33;" />
<text x="1222.5" y="317.1" font-size="18.2px" font-family="CMUBright-Roman" style="text-anchor:end;fill:rgb(0,0,0);" transform="rotate(77.2,1222.5,317.1)" >NZ<tspan baseline-shift="-40%" font-size="90%">C</tspan>P050314.1</text>
<line x1='1077.7' y1='457.3' x2='1070.1' y2='438.8' style="stroke-width:4.0;stroke:rgb(0,0,0);stroke-linecap:round;fill:none;" />
<text x="1060.4" y="431.9" font-size="18.2px" font-family="CMUBright-Roman" style="text-anchor:end;fill:rgb(0,0,0);" transform="rotate(67.9,1060.4,431.9)" >0</text>
<line x1='1151.7' y1='430.3' x2='1145.5' y2='411.3' style="stroke-width:4.0;stroke:rgb(0,0,0);stroke-linecap:round;fill:none;" />
<text x="1136.2" y="403.8" font-size="18.2px" font-family="CMUBright-Roman" style="text-anchor:end;fill:rgb(0,0,0);" transform="rotate(72.0,1136.2,403.8)" >50</text>
<line x1='1227.5' y1='408.5' x2='1222.6' y2='389.1' style="stroke-width:4.0;stroke:rgb(0,0,0);stroke-linecap:round;fill:none;" />
<text x="1213.9" y="381.0" font-size="18.2px" font-family="CMUBright-Roman" style="text-anchor:end;fill:rgb(0,0,0);" transform="rotate(76.0,1213.9,381.0)" >100</text>
<line x1='1304.6' y1='392.1' x2='1301.1' y2='372.4' style="stroke-width:4.0;stroke:rgb(0,0,0);stroke-linecap:round;fill:none;" />
<text x="1292.9" y="363.7" font-size="18.2px" font-family="CMUBright-Roman" style="text-anchor:end;fill:rgb(0,0,0);" transform="rotate(80.0,1292.9,363.7)" >150</text>
<line x1='1382.6' y1='381.1' x2='1380.5' y2='361.3' style="stroke-width:4.0;stroke:rgb(0,0,0);stroke-linecap:round;fill:none;" />
<text x="1373.0" y="352.0" font-size="18.2px" font-family="CMUBright-Roman" style="text-anchor:end;fill:rgb(0,0,0);" transform="rotate(84.0,1373.0,352.0)" >200</text>
<g id="highlighttrack_0">
<path d="M1271.447,449.577 A1075.000,1075.000 40.000 0,1 1286.467,446.421 L1276.536,397.417 A1125.000,1125.000 0.000 0,0 1260.816,400.720 Z" style="stroke-width:4.0;stroke:rgb(0,0,0);stroke-linecap:round;fill:rgb(116,196,118);" />
<path d="M1339.060,437.116 A1075.000,1075.000 40.000 0,1 1352.648,435.147 L1345.795,385.619 A1125.000,1125.000 0.000 0,0 1331.574,387.679 Z" style="stroke-width:4.0;stroke:rgb(0,0,0);stroke-linecap:round;fill:rgb(116,196,118);" />
<path d="M1203.333,466.746 A1075.000,1075.000 40.000 0,1 1207.935,465.436 L1194.351,417.316 A1125.000,1125.000 0.000 0,0 1189.535,418.688 Z" style="stroke-width:4.0;stroke:rgb(0,0,0);stroke-linecap:round;fill:rgb(116,196,118);" />
<path d="M1209.036,465.126 A1075.000,1075.000 40.000 0,1 1213.647,463.840 L1200.328,415.647 A1125.000,1125.000 0.000 0,0 1195.503,416.992 Z" style="stroke-width:4.0;stroke:rgb(0,0,0);stroke-linecap:round;fill:rgb(116,196,118);" />
</g>
</g>
<g id="track_0">
<path d="M 1633.987,444.218 A 1064.250,1064.250 0.00 0,1 1638.3,444.8 L 1638.3,444.8 1628.4,517.4 1618.4,584.5 1608.4,646.4 1598.3,703.4 1588.2,755.8 1578.0,803.7 1567.7,847.4 1557.3,887.2 1546.8,923.1 1536.2,955.4 1525.4,984.3 1514.5,1009.9 1503.3,1032.3 1491.9,1051.7 1480.2,1068.1 1468.3,1081.7 1455.9,1092.4 1443.2,1100.5 1430.0,1105.8 1416.3,1108.5 1402.1,1108.5 1387.3,1105.9 1371.8,1100.5 1355.6,1092.5 1338.6,1081.7 1320.8,1068.0 1302.0,1051.5 1282.2,1031.9 1261.3,1009.2 1239.3,983.2 1216.1,953.9 1191.5,921.0 1165.5,884.4 1138.0,843.8 1108.9,799.1 1078.0,750.1 1045.4,696.5 1010.9,638.1 974.4,574.6  A 1064.250,1064.250 0.00 0,0 970.6,576.8 L 970.6,576.8 1007.4,640.1 1042.2,698.4 1075.0,751.9 1106.0,800.7 1135.3,845.3 1163.0,885.7 1189.1,922.3 1213.8,955.1 1237.2,984.3 1259.3,1010.2 1280.3,1032.8 1300.2,1052.3 1319.0,1068.8 1336.9,1082.3 1353.9,1093.1 1370.2,1101.1 1385.7,1106.3 1400.5,1108.9 1414.7,1108.8 1428.4,1106.1 1441.6,1100.7 1454.3,1092.6 1466.6,1081.8 1478.5,1068.2 1490.1,1051.7 1501.4,1032.3 1512.5,1009.9 1523.3,984.2 1534.0,955.3 1544.5,922.9 1554.8,886.9 1565.0,847.2 1575.1,803.4 1585.1,755.4 1595.1,703.0 1604.9,646.0 1614.7,584.0 1624.4,516.9 1634.0,444.2  Z" style="stroke-width: 2.0;  stroke: rgb(82,82,82); fill: rgb(251,106,74); opacity: 0.667;" />
<path d="M 1763.287,468.832 A 1064.250,1064.250 0.00 0,1 1767.5,469.9 L 1767.5,469.9 1748.6,540.7 1730.2,606.1 1712.2,666.4 1694.7,721.8 1677.6,772.6 1660.8,819.1 1644.3,861.4 1628.1,899.8 1612.2,934.5 1596.5,965.6 1580.9,993.4 1565.5,1017.9 1550.1,1039.4 1534.8,1057.8 1519.4,1073.4 1504.0,1086.1 1488.4,1096.2 1472.6,1103.6 1456.6,1108.3 1440.3,1110.5 1423.6,1110.1 1406.4,1107.0 1388.8,1101.4 1370.5,1093.0 1351.7,1082.0 1332.0,1068.1 1311.7,1051.4 1290.4,1031.8 1268.1,1009.0 1244.9,983.0 1220.5,953.6 1194.9,920.7 1168.0,884.1 1139.8,843.6 1110.0,799.0 1078.7,750.0 1045.7,696.5 1011.0,638.1 974.4,574.6  A 1064.250,1064.250 0.00 0,0 970.6,576.8 L 970.6,576.8 1007.5,640.1 1042.5,698.4 1075.7,751.8 1107.2,800.6 1137.1,845.1 1165.5,885.5 1192.6,922.0 1218.3,954.8 1242.8,984.0 1266.2,1009.9 1288.5,1032.6 1309.8,1052.2 1330.3,1068.8 1350.0,1082.6 1368.9,1093.6 1387.1,1101.8 1404.8,1107.4 1422.0,1110.4 1438.7,1110.7 1455.0,1108.5 1471.0,1103.7 1486.8,1096.2 1502.3,1086.1 1517.7,1073.3 1533.0,1057.7 1548.3,1039.2 1563.5,1017.7 1578.9,993.1 1594.3,965.3 1609.9,934.1 1625.7,899.3 1641.7,860.8 1658.0,818.4 1674.6,771.9 1691.5,721.0 1708.9,665.6 1726.6,605.2 1744.7,539.7 1763.3,468.8  Z" style="stroke-width: 2.0;  stroke: rgb(82,82,82); fill: rgb(116,196,118); opacity: 0.667;" />
<path d="M 1763.287,468.832 A 1064.250,1064.250 0.00 0,1 1767.5,469.9 L 1767.5,469.9 1749.0,540.7 1731.8,606.2 1715.7,666.4 1700.8,721.8 1687.0,772.6 1674.2,818.9 1662.3,861.0 1651.4,899.0 1641.3,933.3 1632.1,963.8 1623.6,990.8 1615.9,1014.5 1609.0,1034.8 1602.7,1052.0 1597.0,1066.1 1592.0,1077.2 1587.6,1085.3 1583.8,1090.5 1580.6,1092.9 1577.9,1092.4 1575.8,1089.0 1574.3,1082.7 1573.2,1073.5 1572.8,1061.4 1572.8,1046.2 1573.4,1027.9 1574.6,1006.4 1576.3,981.6 1578.6,953.4 1581.5,921.6 1585.0,886.1 1589.1,846.7 1593.9,803.2 1599.4,755.5 1605.6,703.3 1612.5,646.4 1620.3,584.5 1628.8,517.4 1638.3,444.8  A 1064.250,1064.250 0.00 0,0 1634.0,444.2 L 1634.0,444.2 1624.8,516.8 1616.6,584.0 1609.1,645.9 1602.4,702.9 1596.4,755.1 1591.1,802.9 1586.5,846.3 1582.5,885.8 1579.1,921.3 1576.4,953.1 1574.2,981.3 1572.6,1006.1 1571.5,1027.6 1571.0,1045.9 1571.0,1061.1 1571.5,1073.2 1572.6,1082.4 1574.2,1088.7 1576.3,1092.0 1578.9,1092.6 1582.2,1090.2 1585.9,1084.9 1590.3,1076.8 1595.3,1065.7 1600.8,1051.6 1607.1,1034.4 1614.0,1014.0 1621.6,990.3 1629.9,963.3 1639.0,932.7 1649.0,898.4 1659.7,860.3 1671.4,818.2 1684.0,771.8 1697.7,721.0 1712.4,665.6 1728.1,605.2 1745.1,539.7 1763.3,468.8  Z" style="stroke-width: 2.0;  stroke: rgb(82,82,82); fill: rgb(107,174,214); opacity: 0.667;" />
<path d="M 1886.286,508.329 A 1064.250,1064.250 0.00 0,1 1890.3,509.9 L 1890.3,509.9 1862.9,577.9 1836.5,640.6 1811.0,698.3 1786.4,751.3 1762.6,799.7 1739.6,843.9 1717.3,884.1 1695.6,920.5 1674.5,953.2 1654.0,982.6 1633.9,1008.6 1614.2,1031.5 1594.9,1051.5 1575.8,1068.5 1556.9,1082.8 1538.2,1094.4 1519.6,1103.3 1500.9,1109.7 1482.2,1113.6 1463.3,1114.9 1444.2,1113.7 1424.9,1110.0 1405.1,1103.8 1385.0,1094.9 1364.3,1083.5 1343.0,1069.2 1321.1,1052.2 1298.3,1032.3 1274.8,1009.3 1250.3,983.2 1224.8,953.7 1198.3,920.8 1170.5,884.1 1141.5,843.6 1111.2,799.0 1079.4,750.0 1046.0,696.5 1011.1,638.1 974.4,574.6  A 1064.250,1064.250 0.00 0,0 970.6,576.8 L 970.6,576.8 1007.6,640.1 1042.8,698.3 1076.3,751.7 1108.3,800.6 1138.9,845.1 1168.0,885.5 1195.9,922.0 1222.6,954.9 1248.2,984.2 1272.8,1010.3 1296.4,1033.1 1319.2,1053.0 1341.3,1069.9 1362.6,1084.0 1383.3,1095.4 1403.5,1104.2 1423.3,1110.3 1442.7,1113.9 1461.8,1115.0 1480.6,1113.6 1499.3,1109.7 1517.9,1103.2 1536.6,1094.2 1555.2,1082.6 1574.0,1068.2 1593.0,1051.1 1612.3,1031.1 1631.9,1008.1 1651.9,981.9 1672.3,952.5 1693.3,919.7 1714.8,883.2 1736.9,842.9 1759.8,798.7 1783.4,750.1 1807.8,697.1 1833.0,639.3 1859.2,576.5 1886.3,508.3  Z" style="stroke-width: 2.0;  stroke: rgb(82,82,82); fill: rgb(253,141,60); opacity: 0.667;" />
<path d="M 1886.286,508.329 A 1064.250,1064.250 0.00 0,1 1890.3,509.9 L 1890.3,509.9 1863.3,578.0 1838.1,640.7 1814.5,698.5 1792.5,751.6 1772.0,800.1 1753.0,844.3 1735.3,884.4 1718.8,920.7 1703.6,953.2 1689.5,982.1 1676.5,1007.6 1664.6,1029.8 1653.6,1048.8 1643.5,1064.7 1634.4,1077.6 1626.1,1087.6 1618.6,1094.7 1612.0,1099.0 1606.0,1100.4 1600.8,1099.1 1596.4,1095.0 1592.6,1088.0 1589.5,1078.1 1587.1,1065.4 1585.3,1049.7 1584.3,1030.9 1583.9,1008.9 1584.2,983.7 1585.2,955.1 1586.9,923.0 1589.3,887.2 1592.4,847.5 1596.4,803.9 1601.1,755.9 1606.7,703.6 1613.2,646.5 1620.6,584.5 1628.9,517.4 1638.3,444.8  A 1064.250,1064.250 0.00 0,0 1634.0,444.2 L 1634.0,444.2 1624.9,516.9 1616.8,584.1 1609.7,646.1 1603.5,703.1 1598.1,755.5 1593.6,803.5 1589.8,847.2 1586.8,886.8 1584.5,922.6 1582.9,954.8 1582.1,983.4 1581.9,1008.6 1582.4,1030.5 1583.5,1049.3 1585.3,1065.0 1587.8,1077.8 1590.9,1087.6 1594.7,1094.6 1599.2,1098.7 1604.4,1100.0 1610.3,1098.5 1617.0,1094.2 1624.4,1087.1 1632.7,1077.1 1641.8,1064.1 1651.7,1048.2 1662.6,1029.1 1674.5,1006.9 1687.4,981.3 1701.4,952.3 1716.5,919.8 1732.8,883.5 1750.3,843.3 1769.2,799.0 1789.5,750.4 1811.3,697.3 1834.6,639.4 1859.6,576.5 1886.3,508.3  Z" style="stroke-width: 2.0;  stroke: rgb(82,82,82); fill: rgb(255,0,0); opacity: 0.667;" />
<path d="M 1886.286,508.329 A 1064.250,1064.250 0.00 0,1 1890.3,509.9 L 1890.3,509.9 1863.4,578.0 1838.4,640.8 1815.2,698.7 1793.7,751.9 1773.8,800.6 1755.5,845.0 1738.6,885.3 1723.2,921.8 1709.1,954.6 1696.2,983.8 1684.6,1009.6 1674.1,1032.1 1664.7,1051.5 1656.4,1067.8 1649.1,1081.1 1642.9,1091.5 1637.6,1099.1 1633.2,1103.8 1629.8,1105.8 1627.2,1104.9 1625.6,1101.3 1624.9,1094.9 1625.0,1085.7 1626.1,1073.6 1628.1,1058.6 1630.9,1040.5 1634.8,1019.3 1639.6,994.9 1645.4,967.2 1652.2,936.1 1660.0,901.3 1669.0,862.7 1679.2,820.1 1690.5,773.5 1703.1,722.4 1717.0,666.8 1732.4,606.3 1749.2,540.8 1767.5,469.9  A 1064.250,1064.250 0.00 0,0 1763.3,468.8 L 1763.3,468.8 1745.3,539.8 1728.7,605.4 1713.7,665.9 1699.9,721.6 1687.5,772.7 1676.4,819.4 1666.4,862.0 1657.6,900.6 1649.9,935.4 1643.2,966.6 1637.5,994.4 1632.8,1018.8 1629.1,1040.0 1626.3,1058.0 1624.4,1073.1 1623.3,1085.2 1623.2,1094.4 1624.0,1100.8 1625.6,1104.4 1628.2,1105.2 1631.6,1103.3 1635.9,1098.5 1641.2,1090.9 1647.4,1080.5 1654.7,1067.2 1662.9,1050.8 1672.2,1031.4 1682.6,1008.9 1694.1,983.0 1706.8,953.7 1720.8,920.9 1736.1,884.4 1752.8,844.0 1771.0,799.5 1790.6,750.7 1811.9,697.4 1834.9,639.5 1859.6,576.5 1886.3,508.3  Z" style="stroke-width: 2.0;  stroke: rgb(82,82,82); fill: rgb(255,0,204); opacity: 0.667;" />
<path d="M 1957.174,538.948 A 1064.250,1064.250 0.00 0,1 1961.1,540.8 L 1961.1,540.8 1928.8,606.7 1897.8,667.3 1867.9,723.0 1839.3,774.1 1811.7,820.7 1785.1,863.2 1759.4,901.7 1734.6,936.6 1710.5,967.9 1687.2,995.8 1664.5,1020.6 1642.4,1042.3 1620.8,1061.1 1599.6,1077.1 1578.7,1090.4 1558.1,1101.0 1537.7,1109.2 1517.4,1114.8 1497.1,1117.9 1476.8,1118.6 1456.3,1116.9 1435.7,1112.7 1414.7,1106.0 1393.5,1096.7 1371.7,1084.9 1349.5,1070.4 1326.6,1053.1 1303.1,1033.0 1278.7,1009.8 1253.5,983.5 1227.4,953.9 1200.3,920.9 1172.0,884.2 1142.6,843.6 1111.9,799.0 1079.8,750.0 1046.2,696.5 1011.1,638.1 974.4,574.6  A 1064.250,1064.250 0.00 0,0 970.6,576.8 L 970.6,576.8 1007.6,640.1 1042.9,698.3 1076.7,751.7 1109.0,800.6 1139.9,845.1 1169.5,885.5 1197.9,922.1 1225.2,955.1 1251.4,984.5 1276.7,1010.7 1301.2,1033.8 1324.8,1053.8 1347.7,1071.0 1370.0,1085.4 1391.8,1097.2 1413.1,1106.3 1434.1,1112.9 1454.8,1117.0 1475.2,1118.7 1495.5,1117.9 1515.8,1114.7 1536.1,1109.0 1556.5,1100.8 1577.0,1090.1 1597.9,1076.7 1619.0,1060.6 1640.6,1041.7 1662.6,1019.9 1685.2,995.1 1708.4,967.0 1732.3,935.6 1757.0,900.7 1782.5,862.0 1808.9,819.4 1836.3,772.7 1864.8,721.5 1894.4,665.7 1925.1,604.9 1957.2,538.9  Z" style="stroke-width: 2.0;  stroke: rgb(82,82,82); fill: rgb(255,204,204); opacity: 0.667;" />
<path d="M 1957.174,538.948 A 1064.250,1064.250 0.00 0,1 1961.1,540.8 L 1961.1,540.8 1929.2,606.7 1899.3,667.5 1871.4,723.3 1845.4,774.6 1821.1,821.4 1798.4,864.0 1777.3,902.6 1757.7,937.4 1739.5,968.5 1722.6,996.2 1707.0,1020.5 1692.6,1041.5 1679.4,1059.5 1667.2,1074.4 1656.0,1086.5 1645.8,1095.6 1636.6,1101.9 1628.3,1105.4 1620.8,1106.2 1614.1,1104.2 1608.3,1099.5 1603.2,1092.0 1599.0,1081.6 1595.4,1068.4 1592.6,1052.3 1590.6,1033.1 1589.3,1010.8 1588.8,985.3 1589.0,956.4 1590.0,924.0 1591.8,888.0 1594.4,848.2 1597.8,804.3 1602.2,756.2 1607.4,703.8 1613.6,646.6 1620.7,584.6 1629.0,517.4 1638.3,444.8  A 1064.250,1064.250 0.00 0,0 1634.0,444.2 L 1634.0,444.2 1625.0,516.9 1617.0,584.1 1610.1,646.2 1604.1,703.3 1599.1,755.8 1595.0,803.9 1591.7,847.8 1589.3,887.6 1587.7,923.7 1586.8,956.0 1586.7,984.9 1587.3,1010.4 1588.7,1032.7 1590.8,1051.9 1593.7,1068.0 1597.3,1081.2 1601.6,1091.6 1606.7,1099.1 1612.5,1103.8 1619.2,1105.7 1626.7,1104.9 1635.0,1101.4 1644.2,1095.0 1654.3,1085.8 1665.5,1073.8 1677.6,1058.8 1690.8,1040.8 1705.1,1019.6 1720.6,995.3 1737.3,967.5 1755.4,936.3 1774.9,901.5 1795.8,862.8 1818.3,820.1 1842.4,773.2 1868.3,721.8 1895.9,665.9 1925.5,605.0 1957.2,538.9  Z" style="stroke-width: 2.0;  stroke: rgb(82,82,82); fill: rgb(255,153,0); opacity: 0.667;" />
<path d="M 1957.174,538.948 A 1064.250,1064.250 0.00 0,1 1961.1,540.8 L 1961.1,540.8 1929.3,606.7 1899.6,667.6 1872.1,723.5 1846.5,774.9 1822.8,821.9 1800.9,864.7 1780.6,903.6 1762.0,938.6 1744.9,970.1 1729.3,998.0 1715.0,1022.7 1702.1,1044.1 1690.4,1062.4 1680.0,1077.8 1670.7,1090.2 1662.5,1099.8 1655.5,1106.5 1649.4,1110.5 1644.4,1111.8 1640.5,1110.3 1637.5,1106.1 1635.4,1099.2 1634.4,1089.5 1634.4,1076.9 1635.3,1061.4 1637.2,1042.9 1640.1,1021.4 1644.1,996.7 1649.1,968.7 1655.3,937.2 1662.5,902.2 1670.9,863.4 1680.6,820.7 1691.5,773.8 1703.8,722.6 1717.4,666.9 1732.5,606.4 1749.2,540.8 1767.5,469.9  A 1064.250,1064.250 0.00 0,0 1763.3,468.8 L 1763.3,468.8 1745.3,539.8 1728.9,605.4 1714.0,666.0 1700.6,721.8 1688.6,773.0 1677.8,819.9 1668.4,862.7 1660.1,901.5 1653.0,936.6 1647.0,968.1 1642.1,996.1 1638.2,1020.8 1635.4,1042.4 1633.5,1060.8 1632.6,1076.3 1632.7,1088.9 1633.8,1098.6 1635.9,1105.6 1638.9,1109.8 1642.9,1111.2 1647.8,1109.9 1653.9,1105.9 1660.9,1099.1 1669.0,1089.5 1678.3,1077.0 1688.7,1061.7 1700.3,1043.3 1713.1,1021.8 1727.3,997.1 1742.8,969.1 1759.7,937.6 1778.2,902.4 1798.3,863.5 1820.0,820.6 1843.5,773.5 1868.9,722.0 1896.2,665.9 1925.6,605.0 1957.2,538.9  Z" style="stroke-width: 2.0;  stroke: rgb(82,82,82); fill: rgb(255,204,0); opacity: 0.667;" />
<path d="M 1957.174,538.948 A 1064.250,1064.250 0.00 0,1 1961.1,540.8 L 1961.1,540.8 1929.3,606.8 1899.9,667.7 1872.7,723.8 1847.6,775.3 1824.5,822.5 1803.2,865.6 1783.8,904.8 1766.2,940.2 1750.1,972.0 1735.7,1000.4 1722.7,1025.5 1711.2,1047.4 1701.0,1066.3 1692.2,1082.2 1684.7,1095.2 1678.5,1105.4 1673.4,1112.9 1669.6,1117.6 1667.0,1119.7 1665.5,1119.0 1665.2,1115.7 1666.1,1109.7 1668.2,1100.9 1671.4,1089.4 1675.9,1075.0 1681.6,1057.8 1688.5,1037.5 1696.8,1014.2 1706.4,987.6 1717.4,957.7 1729.8,924.3 1743.7,887.3 1759.3,846.4 1776.5,801.6 1795.4,752.5 1816.2,699.1 1838.8,641.0 1863.5,578.0 1890.3,509.9  A 1064.250,1064.250 0.00 0,0 1886.3,508.3 L 1886.3,508.3 1859.8,576.6 1835.3,639.6 1812.9,697.8 1792.4,751.4 1773.6,800.5 1756.6,845.4 1741.3,886.3 1727.5,923.4 1715.1,956.8 1704.3,986.8 1694.8,1013.4 1686.6,1036.8 1679.8,1057.0 1674.2,1074.3 1669.8,1088.7 1666.6,1100.2 1664.5,1109.0 1663.7,1115.0 1664.0,1118.3 1665.4,1119.0 1668.1,1116.9 1671.9,1112.2 1676.9,1104.7 1683.1,1094.5 1690.5,1081.4 1699.3,1065.5 1709.3,1046.6 1720.8,1024.6 1733.6,999.4 1748.0,971.0 1763.9,939.1 1781.4,903.6 1800.7,864.4 1821.7,821.2 1844.6,773.9 1869.5,722.3 1896.5,666.1 1925.7,605.0 1957.2,538.9  Z" style="stroke-width: 2.0;  stroke: rgb(82,82,82); fill: rgb(255,255,0); opacity: 0.667;" />
<path d="M 1141.061,2501.894 A 1064.250,1064.250 0.00 0,1 1137.0,2500.4 L 1137.0,2500.4 1161.2,2430.5 1182.0,2363.8 1199.8,2300.0 1214.9,2239.0 1227.5,2180.6 1238.0,2124.6 1246.5,2070.9 1253.2,2019.3 1258.4,1969.6 1262.3,1921.6 1265.0,1875.1 1266.6,1830.1 1267.4,1786.3 1267.4,1743.6 1266.7,1701.8 1265.4,1660.7 1263.5,1620.2 1261.1,1580.2 1258.2,1540.4 1254.9,1500.7 1251.1,1461.0 1246.7,1421.1 1241.7,1380.9 1236.1,1340.2 1229.8,1298.9 1222.7,1256.8 1214.6,1213.7 1205.4,1169.6 1195.0,1124.3 1183.1,1077.6 1169.6,1029.5 1154.3,979.7 1136.9,928.1 1117.3,874.7 1095.0,819.3 1069.9,761.6 1041.7,701.8 1009.9,639.5 974.4,574.6  A 1064.250,1064.250 0.00 0,0 970.6,576.8 L 970.6,576.8 1006.4,641.4 1038.4,703.6 1066.9,763.4 1092.3,820.9 1114.7,876.3 1134.6,929.6 1152.2,981.1 1167.7,1030.8 1181.4,1078.9 1193.4,1125.5 1204.1,1170.8 1213.4,1214.9 1221.7,1257.9 1229.0,1300.0 1235.5,1341.3 1241.3,1382.0 1246.4,1422.2 1250.9,1462.0 1254.9,1501.7 1258.4,1541.4 1261.4,1581.1 1264.0,1621.2 1266.0,1661.6 1267.5,1702.7 1268.4,1744.5 1268.6,1787.2 1268.0,1831.0 1266.5,1876.1 1264.0,1922.5 1260.3,1970.5 1255.3,2020.3 1248.8,2072.0 1240.5,2125.7 1230.3,2181.7 1217.9,2240.2 1203.1,2301.2 1185.5,2365.1 1165.0,2431.9 1141.1,2501.9  Z" style="stroke-width: 2.0;  stroke: rgb(82,82,82); fill: rgb(204,255,0); opacity: 0.667;" />
<path d="M 1141.061,2501.894 A 1064.250,1064.250 0.00 0,1 1137.0,2500.4 L 1137.0,2500.4 1161.2,2430.2 1182.2,2362.3 1200.4,2296.8 1216.2,2233.6 1229.8,2172.5 1241.6,2113.6 1252.0,2056.6 1261.2,2001.5 1269.4,1948.1 1277.0,1896.4 1284.1,1846.3 1291.0,1797.6 1297.8,1750.1 1304.8,1703.9 1312.1,1658.6 1319.8,1614.2 1328.0,1570.6 1336.8,1527.6 1346.4,1485.0 1356.7,1442.6 1367.8,1400.4 1379.8,1358.1 1392.6,1315.6 1406.2,1272.7 1420.6,1229.2 1435.7,1184.9 1451.4,1139.6 1467.8,1093.2 1484.5,1045.4 1501.6,996.0 1518.8,944.9 1536.1,891.7 1553.1,836.4 1569.7,778.6 1585.7,718.1 1600.9,654.7 1614.9,588.2 1627.4,518.3 1638.3,444.8  A 1064.250,1064.250 0.00 0,0 1634.0,444.2 L 1634.0,444.2 1623.4,517.8 1611.1,587.7 1597.4,654.3 1582.5,717.8 1566.8,778.3 1550.4,836.2 1533.6,891.6 1516.6,944.8 1499.5,996.0 1482.7,1045.5 1466.1,1093.3 1450.0,1139.8 1434.4,1185.2 1419.5,1229.5 1405.3,1273.1 1391.8,1316.0 1379.2,1358.6 1367.4,1400.9 1356.5,1443.2 1346.3,1485.6 1336.9,1528.2 1328.3,1571.3 1320.2,1615.0 1312.7,1659.4 1305.7,1704.7 1298.9,1751.0 1292.2,1798.4 1285.5,1847.2 1278.6,1897.3 1271.2,1949.1 1263.2,2002.4 1254.3,2057.6 1244.1,2114.6 1232.5,2173.6 1219.1,2234.7 1203.7,2298.0 1185.7,2363.6 1165.0,2431.5 1141.1,2501.9  Z" style="stroke-width: 2.0;  stroke: rgb(82,82,82); fill: rgb(0,255,0); opacity: 0.667;" />
<path d="M 1141.061,2501.894 A 1064.250,1064.250 0.00 0,1 1137.0,2500.4 L 1137.0,2500.4 1161.2,2430.1 1182.3,2362.0 1200.7,2296.2 1216.6,2232.6 1230.5,2171.2 1242.7,2111.7 1253.6,2054.2 1263.3,1998.6 1272.3,1944.8 1280.7,1892.7 1288.8,1842.2 1296.8,1793.2 1304.9,1745.5 1313.3,1699.1 1322.2,1653.8 1331.7,1609.4 1341.9,1566.0 1352.9,1523.2 1364.9,1481.0 1377.9,1439.2 1391.9,1397.6 1407.1,1356.1 1423.3,1314.5 1440.5,1272.6 1458.9,1230.2 1478.3,1187.2 1498.6,1143.3 1519.7,1098.3 1541.7,1052.1 1564.3,1004.4 1587.4,955.0 1610.8,903.7 1634.5,850.2 1658.1,794.2 1681.4,735.7 1704.3,674.2 1726.5,609.6 1747.6,541.6 1767.5,469.9  A 1064.250,1064.250 0.00 0,0 1763.3,468.8 L 1763.3,468.8 1743.7,540.6 1722.8,608.7 1700.9,673.4 1678.3,735.0 1655.2,793.6 1631.8,849.6 1608.4,903.2 1585.2,954.6 1562.3,1004.1 1539.9,1051.9 1518.1,1098.3 1497.1,1143.3 1477.0,1187.3 1457.8,1230.4 1439.6,1272.8 1422.5,1314.8 1406.5,1356.5 1391.5,1398.0 1377.7,1439.7 1364.9,1481.5 1353.0,1523.8 1342.2,1566.6 1332.1,1610.1 1322.8,1654.5 1314.1,1699.8 1305.9,1746.3 1298.0,1794.0 1290.2,1843.1 1282.3,1893.6 1274.1,1945.8 1265.4,1999.6 1255.8,2055.2 1245.2,2112.8 1233.2,2172.2 1219.6,2233.8 1203.9,2297.5 1185.8,2363.3 1165.0,2431.5 1141.1,2501.9  Z" style="stroke-width: 2.0;  stroke: rgb(82,82,82); fill: rgb(53,128,0); opacity: 0.667;" />
<path d="M 1141.061,2501.894 A 1064.250,1064.250 0.00 0,1 1137.0,2500.4 L 1137.0,2500.4 1163.5,2430.9 1191.0,2365.0 1219.2,2302.6 1247.7,2243.4 1276.5,2187.0 1305.2,2133.2 1333.7,2081.8 1361.8,2032.5 1389.3,1985.1 1416.0,1939.3 1441.9,1894.9 1466.8,1851.6 1490.7,1809.3 1513.4,1767.8 1535.0,1726.8 1555.3,1686.2 1574.4,1645.8 1592.3,1605.3 1609.0,1564.7 1624.5,1523.7 1638.9,1482.2 1652.3,1440.0 1664.8,1397.1 1676.4,1353.2 1687.4,1308.2 1697.8,1262.0 1708.0,1214.5 1717.9,1165.6 1727.9,1115.2 1738.2,1063.2 1749.0,1009.4 1760.6,953.9 1773.3,896.5 1787.4,837.2 1803.1,775.9 1820.9,712.6 1841.1,647.1 1864.1,579.6 1890.3,509.9  A 1064.250,1064.250 0.00 0,0 1886.3,508.3 L 1886.3,508.3 1860.4,578.1 1837.7,645.8 1817.7,711.3 1800.2,774.7 1784.7,836.0 1770.8,895.4 1758.4,952.8 1747.0,1008.4 1736.4,1062.2 1726.3,1114.3 1716.5,1164.7 1706.8,1213.7 1696.9,1261.2 1686.6,1307.4 1675.8,1352.4 1664.3,1396.4 1652.1,1439.4 1638.8,1481.6 1624.6,1523.2 1609.2,1564.2 1592.7,1604.9 1575.0,1645.5 1556.1,1686.0 1535.9,1726.7 1514.5,1767.8 1492.0,1809.4 1468.3,1851.8 1443.5,1895.1 1417.8,1939.6 1391.3,1985.5 1364.0,2033.1 1336.1,2082.5 1307.8,2134.0 1279.3,2187.9 1250.8,2244.4 1222.4,2303.8 1194.5,2366.3 1167.3,2432.2 1141.1,2501.9  Z" style="stroke-width: 2.0;  stroke: rgb(82,82,82); fill: rgb(0,0,204); opacity: 0.667;" />
<path d="M 1141.061,2501.894 A 1064.250,1064.250 0.00 0,1 1137.0,2500.4 L 1137.0,2500.4 1163.5,2430.9 1190.9,2365.2 1219.1,2303.0 1247.6,2244.0 1276.4,2187.9 1305.1,2134.5 1333.7,2083.4 1361.8,2034.6 1389.5,1987.6 1416.5,1942.2 1442.7,1898.3 1468.0,1855.6 1492.4,1813.9 1515.8,1772.9 1538.1,1732.5 1559.3,1692.4 1579.4,1652.6 1598.5,1612.7 1616.4,1572.7 1633.4,1532.4 1649.4,1491.5 1664.6,1450.0 1679.0,1407.8 1692.8,1364.6 1706.1,1320.4 1719.0,1275.0 1731.8,1228.4 1744.6,1180.4 1757.6,1131.0 1771.2,1080.0 1785.4,1027.4 1800.6,973.0 1817.1,916.9 1835.2,859.0 1855.2,799.3 1877.4,737.6 1902.2,674.0 1929.9,608.4 1961.1,540.8  A 1064.250,1064.250 0.00 0,0 1957.2,538.9 L 1957.2,538.9 1926.3,606.6 1898.8,672.3 1874.3,736.1 1852.3,797.8 1832.6,857.7 1814.7,915.7 1798.5,971.8 1783.5,1026.2 1769.4,1078.9 1756.1,1129.9 1743.3,1179.4 1730.7,1227.5 1718.1,1274.1 1705.3,1319.6 1692.2,1363.8 1678.6,1407.0 1664.4,1449.4 1649.4,1490.9 1633.5,1531.8 1616.7,1572.2 1598.9,1612.3 1580.0,1652.3 1560.1,1692.2 1539.0,1732.3 1516.9,1772.8 1493.7,1813.9 1469.5,1855.7 1444.3,1898.6 1418.3,1942.6 1391.5,1988.0 1364.0,2035.1 1336.0,2084.1 1307.7,2135.2 1279.2,2188.8 1250.6,2245.0 1222.3,2304.1 1194.5,2366.4 1167.3,2432.3 1141.1,2501.9  Z" style="stroke-width: 2.0;  stroke: rgb(82,82,82); fill: rgb(102,153,255); opacity: 0.667;" />
<path d="M 436.304,1465.661 A 1064.250,1064.250 0.00 0,1 436.5,1461.3 L 436.5,1461.3 509.8,1463.4 577.9,1464.1 641.2,1463.5 699.9,1461.8 754.2,1458.8 804.4,1454.8 850.7,1449.8 893.3,1443.7 932.6,1436.7 968.5,1428.7 1001.4,1419.8 1031.4,1409.9 1058.7,1399.1 1083.3,1387.3 1105.4,1374.5 1125.2,1360.7 1142.7,1345.9 1157.9,1330.0 1171.1,1313.0 1182.2,1294.7 1191.2,1275.2 1198.3,1254.3 1203.3,1231.9 1206.4,1208.0 1207.5,1182.5 1206.6,1155.2 1203.6,1126.1 1198.5,1094.9 1191.2,1061.6 1181.7,1026.0 1169.8,988.0 1155.5,947.3 1138.6,903.9 1118.9,857.5 1096.4,808.0 1070.9,755.2 1042.2,698.8 1010.1,638.7 974.4,574.6  A 1064.250,1064.250 0.00 0,0 970.6,576.8 L 970.6,576.8 1006.6,640.7 1038.9,700.7 1067.9,756.9 1093.6,809.7 1116.3,859.1 1136.1,905.4 1153.2,948.7 1167.7,989.3 1179.8,1027.3 1189.5,1062.9 1196.9,1096.1 1202.1,1127.3 1205.2,1156.4 1206.2,1183.7 1205.2,1209.2 1202.2,1233.1 1197.3,1255.5 1190.3,1276.4 1181.3,1296.0 1170.3,1314.3 1157.3,1331.4 1142.0,1347.4 1124.6,1362.3 1104.9,1376.1 1082.8,1389.0 1058.3,1400.8 1031.1,1411.8 1001.1,1421.8 968.3,1430.9 932.3,1439.0 893.1,1446.2 850.5,1452.4 804.2,1457.7 754.0,1461.9 699.7,1465.0 641.1,1467.0 577.8,1467.8 509.6,1467.4 436.3,1465.7  Z" style="stroke-width: 2.0;  stroke: rgb(82,82,82); fill: rgb(153,204,255); opacity: 0.667;" />
<path d="M 436.304,1465.661 A 1064.250,1064.250 0.00 0,1 436.5,1461.3 L 436.5,1461.3 510.1,1463.1 579.0,1463.0 643.6,1461.1 704.1,1457.6 760.9,1452.6 814.1,1446.2 864.0,1438.6 910.8,1429.8 954.8,1419.9 996.2,1408.9 1035.2,1397.0 1072.0,1384.0 1106.7,1370.2 1139.6,1355.4 1170.8,1339.6 1200.5,1322.9 1228.7,1305.2 1255.7,1286.5 1281.5,1266.7 1306.2,1245.8 1330.0,1223.6 1352.9,1200.2 1375.1,1175.2 1396.4,1148.8 1417.1,1120.6 1437.2,1090.6 1456.6,1058.7 1475.5,1024.6 1493.8,988.1 1511.4,949.1 1528.5,907.3 1545.0,862.6 1560.8,814.7 1575.8,763.3 1590.2,708.1 1603.7,649.0 1616.2,585.6 1627.8,517.6 1638.3,444.8  A 1064.250,1064.250 0.00 0,0 1634.0,444.2 L 1634.0,444.2 1623.8,517.1 1612.5,585.2 1600.2,648.6 1586.9,707.8 1572.9,763.0 1558.0,814.4 1542.4,862.4 1526.1,907.2 1509.2,949.0 1491.7,988.1 1473.6,1024.7 1454.8,1058.9 1435.5,1090.9 1415.6,1121.0 1395.0,1149.2 1373.7,1175.7 1351.7,1200.8 1328.9,1224.3 1305.2,1246.6 1280.5,1267.6 1254.8,1287.5 1227.9,1306.3 1199.7,1324.1 1170.2,1341.0 1139.0,1356.8 1106.2,1371.8 1071.5,1385.8 1034.8,1398.9 995.8,1411.0 954.5,1422.1 910.5,1432.2 863.7,1441.2 813.9,1449.0 760.7,1455.6 704.0,1460.8 643.5,1464.6 578.9,1466.7 509.9,1467.1 436.3,1465.7  Z" style="stroke-width: 2.0;  stroke: rgb(82,82,82); fill: rgb(0,255,255); opacity: 0.667;" />
<path d="M 436.304,1465.661 A 1064.250,1064.250 0.00 0,1 436.5,1461.3 L 436.5,1461.3 510.1,1463.1 579.3,1462.8 644.2,1460.7 705.1,1457.0 762.4,1451.7 816.2,1445.1 866.9,1437.2 914.6,1428.1 959.6,1417.9 1002.1,1406.7 1042.4,1394.6 1080.6,1381.5 1116.8,1367.6 1151.4,1352.7 1184.4,1337.1 1216.0,1320.5 1246.4,1303.1 1275.6,1284.7 1303.9,1265.3 1331.3,1244.9 1357.9,1223.4 1383.9,1200.6 1409.3,1176.5 1434.3,1150.9 1458.7,1123.8 1482.8,1094.9 1506.6,1064.2 1530.0,1031.4 1553.2,996.3 1576.1,958.7 1598.7,918.5 1621.1,875.4 1643.2,829.1 1665.0,779.4 1686.4,726.1 1707.4,668.7 1728.0,607.1 1748.0,541.0 1767.5,469.9  A 1064.250,1064.250 0.00 0,0 1763.3,468.8 L 1763.3,468.8 1744.1,540.0 1724.3,606.2 1704.0,667.9 1683.2,725.3 1662.0,778.8 1640.4,828.5 1618.6,874.9 1596.4,918.1 1573.9,958.4 1551.1,996.1 1528.1,1031.2 1504.8,1064.2 1481.2,1095.0 1457.2,1124.0 1432.8,1151.2 1408.0,1176.9 1382.7,1201.1 1356.8,1223.9 1330.3,1245.6 1302.9,1266.1 1274.7,1285.6 1245.6,1304.1 1215.3,1321.7 1183.7,1338.3 1150.8,1354.2 1116.3,1369.1 1080.1,1383.2 1042.0,1396.4 1001.8,1408.7 959.3,1420.1 914.3,1430.5 866.6,1439.8 816.0,1447.9 762.2,1454.7 704.9,1460.2 644.0,1464.2 579.1,1466.5 510.0,1467.1 436.3,1465.7  Z" style="stroke-width: 2.0;  stroke: rgb(82,82,82); fill: rgb(204,255,255); opacity: 0.667;" />
<path d="M 436.304,1465.661 A 1064.250,1064.250 0.00 0,1 436.5,1461.3 L 436.5,1461.3 510.2,1463.0 579.5,1462.6 644.7,1460.4 706.1,1456.5 763.9,1451.0 818.4,1444.1 869.8,1436.0 918.4,1426.7 964.4,1416.4 1008.0,1405.1 1049.5,1392.8 1089.0,1379.8 1126.8,1365.9 1162.9,1351.3 1197.7,1335.9 1231.2,1319.7 1263.6,1302.7 1295.0,1284.9 1325.6,1266.2 1355.6,1246.7 1385.0,1226.1 1413.8,1204.4 1442.4,1181.5 1470.6,1157.2 1498.6,1131.6 1526.5,1104.3 1554.4,1075.3 1582.1,1044.3 1609.9,1011.2 1637.8,975.7 1665.7,937.7 1693.6,896.9 1721.7,853.0 1749.8,805.8 1777.9,755.0 1806.1,700.4 1834.2,641.5 1862.3,578.1 1890.3,509.9  A 1064.250,1064.250 0.00 0,0 1886.3,508.3 L 1886.3,508.3 1858.6,576.7 1830.7,640.2 1802.8,699.1 1774.9,753.9 1746.9,804.8 1719.0,852.1 1691.2,896.1 1663.4,937.0 1635.6,975.2 1607.9,1010.7 1580.3,1044.0 1552.6,1075.1 1524.9,1104.2 1497.1,1131.6 1469.2,1157.4 1441.1,1181.7 1412.6,1204.7 1383.8,1226.5 1354.6,1247.2 1324.7,1267.0 1294.1,1285.7 1262.8,1303.7 1230.4,1320.8 1197.0,1337.1 1162.3,1352.7 1126.2,1367.4 1088.5,1381.5 1049.1,1394.7 1007.7,1407.1 964.1,1418.5 918.1,1429.1 869.5,1438.6 818.1,1446.9 763.7,1454.0 705.9,1459.7 644.6,1463.9 579.4,1466.4 510.0,1467.0 436.3,1465.7  Z" style="stroke-width: 2.0;  stroke: rgb(82,82,82); fill: rgb(153,0,204); opacity: 0.667;" />
<path d="M 436.304,1465.661 A 1064.250,1064.250 0.00 0,1 436.5,1461.3 L 436.5,1461.3 510.2,1463.0 579.7,1462.6 645.1,1460.2 706.7,1456.2 764.8,1450.6 819.7,1443.6 871.6,1435.4 920.7,1426.0 967.3,1415.6 1011.6,1404.3 1053.8,1392.1 1094.1,1379.1 1132.7,1365.4 1169.8,1350.9 1205.6,1335.8 1240.1,1319.9 1273.7,1303.3 1306.4,1286.0 1338.4,1267.9 1369.8,1248.9 1400.8,1229.0 1431.3,1208.2 1461.6,1186.2 1491.8,1162.9 1521.9,1138.4 1551.9,1112.3 1582.1,1084.5 1612.3,1054.9 1642.8,1023.2 1673.4,989.3 1704.3,952.9 1735.5,913.8 1766.9,871.7 1798.7,826.4 1830.7,777.5 1862.9,724.9 1895.5,668.1 1928.2,606.9 1961.1,540.8  A 1064.250,1064.250 0.00 0,0 1957.2,538.9 L 1957.2,538.9 1924.6,605.1 1892.1,666.5 1859.8,723.4 1827.7,776.2 1795.9,825.2 1764.4,870.6 1733.1,912.8 1702.1,952.1 1671.3,988.6 1640.8,1022.6 1610.5,1054.4 1580.4,1084.2 1550.3,1112.1 1520.4,1138.3 1490.4,1163.0 1460.4,1186.3 1430.1,1208.4 1399.7,1229.5 1368.8,1249.5 1337.5,1268.5 1305.6,1286.8 1272.9,1304.2 1239.4,1321.0 1204.9,1337.0 1169.2,1352.3 1132.2,1366.9 1093.6,1380.8 1053.3,1393.9 1011.2,1406.3 966.9,1417.8 920.4,1428.4 871.3,1437.9 819.5,1446.4 764.6,1453.6 706.5,1459.4 644.9,1463.7 579.5,1466.3 510.1,1467.0 436.3,1465.7  Z" style="stroke-width: 2.0;  stroke: rgb(82,82,82); fill: rgb(204,51,255); opacity: 0.667;" />
<path d="M 436.304,1465.661 A 1064.250,1064.250 0.00 0,1 436.5,1461.3 L 436.5,1461.3 509.8,1464.7 578.1,1469.4 641.6,1475.1 700.5,1481.9 755.2,1489.7 805.9,1498.4 852.9,1508.1 896.3,1518.6 936.5,1529.9 973.5,1542.1 1007.7,1555.1 1039.1,1568.8 1068.0,1583.4 1094.5,1598.9 1118.7,1615.2 1140.7,1632.4 1160.8,1650.6 1178.8,1669.8 1195.1,1690.0 1209.5,1711.4 1222.2,1734.1 1233.2,1758.0 1242.5,1783.4 1250.2,1810.3 1256.3,1838.8 1260.6,1869.2 1263.4,1901.4 1264.3,1935.7 1263.5,1972.3 1260.9,2011.2 1256.4,2052.7 1249.8,2096.9 1241.1,2144.0 1230.2,2194.3 1217.0,2247.9 1201.2,2305.1 1182.7,2366.1 1161.4,2431.1 1137.0,2500.4  A 1064.250,1064.250 0.00 0,0 1141.1,2501.9 L 1141.1,2501.9 1165.1,2432.5 1186.2,2367.4 1204.4,2306.3 1220.0,2249.1 1233.1,2195.4 1243.8,2145.1 1252.2,2097.9 1258.6,2053.6 1263.0,2012.2 1265.5,1973.2 1266.1,1936.7 1265.0,1902.4 1262.1,1870.1 1257.6,1839.8 1251.5,1811.3 1243.7,1784.4 1234.2,1759.1 1223.1,1735.2 1210.3,1712.6 1195.8,1691.3 1179.5,1671.1 1161.4,1652.0 1141.3,1633.9 1119.2,1616.8 1094.9,1600.5 1068.4,1585.2 1039.4,1570.7 1007.9,1557.1 973.7,1544.2 936.6,1532.2 896.4,1521.0 852.9,1510.7 805.9,1501.3 755.2,1492.7 700.4,1485.1 641.5,1478.6 578.0,1473.1 509.7,1468.8 436.3,1465.7  Z" style="stroke-width: 2.0;  stroke: rgb(82,82,82); fill: rgb(204,153,255); opacity: 0.667;" />
<path d="M 438.885,1418.377 A 1064.250,1064.250 0.00 0,1 439.2,1414.1 L 439.2,1414.1 512.4,1419.4 580.4,1423.2 643.5,1425.6 702.1,1426.5 756.3,1426.2 806.5,1424.6 852.8,1421.9 895.4,1418.0 934.6,1413.0 970.6,1406.9 1003.5,1399.7 1033.4,1391.5 1060.7,1382.2 1085.3,1371.9 1107.4,1360.5 1127.1,1348.1 1144.6,1334.4 1159.8,1319.7 1172.9,1303.6 1183.9,1286.4 1192.9,1267.7 1199.9,1247.7 1204.9,1226.1 1207.9,1202.9 1208.9,1178.1 1207.8,1151.4 1204.7,1122.8 1199.5,1092.2 1192.1,1059.3 1182.5,1024.2 1170.5,986.5 1156.0,946.2 1139.0,903.1 1119.2,857.0 1096.6,807.7 1071.0,755.0 1042.2,698.7 1010.1,638.7 974.4,574.6  A 1064.250,1064.250 0.00 0,0 970.6,576.8 L 970.6,576.8 1006.6,640.7 1039.0,700.6 1068.0,756.7 1093.8,809.3 1116.6,858.5 1136.5,904.6 1153.7,947.6 1168.4,987.9 1180.5,1025.5 1190.3,1060.6 1197.9,1093.4 1203.2,1124.0 1206.4,1152.6 1207.6,1179.3 1206.7,1204.1 1203.8,1227.3 1198.9,1248.9 1192.0,1269.0 1183.1,1287.6 1172.1,1305.0 1159.1,1321.0 1143.9,1335.9 1126.5,1349.6 1106.8,1362.1 1084.8,1373.6 1060.2,1384.0 1033.0,1393.4 1003.1,1401.7 970.2,1409.0 934.3,1415.3 895.1,1420.4 852.4,1424.5 806.2,1427.5 756.0,1429.2 701.8,1429.8 643.3,1429.0 580.1,1426.9 512.1,1423.4 438.9,1418.4  Z" style="stroke-width: 2.0;  stroke: rgb(82,82,82); fill: rgb(102,102,102); opacity: 0.667;" />
<path d="M 438.885,1418.377 A 1064.250,1064.250 0.00 0,1 439.2,1414.1 L 439.2,1414.1 512.7,1419.1 581.5,1422.1 646.0,1423.1 706.5,1422.4 763.2,1420.1 816.4,1416.2 866.3,1410.9 913.1,1404.3 957.2,1396.5 998.6,1387.4 1037.6,1377.3 1074.5,1366.1 1109.2,1353.8 1142.2,1340.5 1173.4,1326.2 1203.0,1310.8 1231.3,1294.3 1258.2,1276.7 1284.0,1258.0 1308.6,1238.0 1332.4,1216.8 1355.2,1194.1 1377.2,1170.0 1398.5,1144.2 1419.0,1116.7 1439.0,1087.3 1458.2,1055.9 1476.9,1022.2 1495.0,986.2 1512.5,947.5 1529.4,906.1 1545.7,861.7 1561.3,814.0 1576.3,762.8 1590.5,707.8 1603.8,648.9 1616.3,585.6 1627.8,517.6 1638.3,444.8  A 1064.250,1064.250 0.00 0,0 1634.0,444.2 L 1634.0,444.2 1623.8,517.1 1612.6,585.1 1600.4,648.4 1587.2,707.5 1573.3,762.5 1558.5,813.7 1543.1,861.5 1527.0,906.0 1510.3,947.5 1492.9,986.2 1475.0,1022.3 1456.4,1056.0 1437.3,1087.5 1417.5,1117.0 1397.0,1144.6 1375.9,1170.5 1354.0,1194.7 1331.2,1217.5 1307.6,1238.8 1283.0,1258.9 1257.3,1277.7 1230.4,1295.4 1202.3,1312.0 1172.7,1327.5 1141.5,1342.0 1108.7,1355.4 1073.9,1367.8 1037.2,1379.2 998.2,1389.5 956.8,1398.7 912.8,1406.7 865.9,1413.5 816.0,1419.0 762.9,1423.1 706.2,1425.7 645.7,1426.6 581.2,1425.8 512.3,1423.1 438.9,1418.4  Z" style="stroke-width: 2.0;  stroke: rgb(82,82,82); fill: rgb(153,153,153); opacity: 0.667;" />
<path d="M 438.885,1418.377 A 1064.250,1064.250 0.00 0,1 439.2,1414.1 L 439.2,1414.1 512.7,1419.1 581.7,1421.9 646.6,1422.8 707.5,1421.8 764.7,1419.2 818.5,1415.1 869.2,1409.5 917.0,1402.6 962.0,1394.5 1004.6,1385.3 1044.9,1375.0 1083.1,1363.6 1119.4,1351.3 1154.0,1338.0 1187.0,1323.7 1218.6,1308.5 1249.0,1292.3 1278.2,1275.0 1306.5,1256.7 1333.8,1237.3 1360.4,1216.6 1386.3,1194.7 1411.6,1171.3 1436.4,1146.5 1460.7,1120.0 1484.7,1091.7 1508.2,1061.5 1531.5,1029.1 1554.5,994.4 1577.2,957.3 1599.7,917.4 1621.9,874.5 1643.8,828.5 1665.4,779.0 1686.7,725.8 1707.6,668.6 1728.1,607.1 1748.0,541.0 1767.5,469.9  A 1064.250,1064.250 0.00 0,0 1763.3,468.8 L 1763.3,468.8 1744.1,540.0 1724.4,606.2 1704.2,667.8 1683.5,725.0 1662.5,778.3 1641.0,827.9 1619.3,874.0 1597.3,917.0 1575.0,957.0 1552.4,994.2 1529.6,1029.0 1506.5,1061.4 1483.0,1091.8 1459.2,1120.1 1434.9,1146.7 1410.3,1171.7 1385.1,1195.1 1359.3,1217.2 1332.8,1237.9 1305.5,1257.5 1277.3,1275.9 1248.2,1293.3 1217.9,1309.6 1186.3,1325.0 1153.3,1339.4 1118.8,1352.9 1082.6,1365.3 1044.4,1376.8 1004.1,1387.3 961.6,1396.7 916.6,1405.0 868.9,1412.1 818.2,1417.9 764.4,1422.2 707.1,1425.1 646.2,1426.3 581.4,1425.7 512.4,1423.1 438.9,1418.4  Z" style="stroke-width: 2.0;  stroke: rgb(82,82,82); fill: rgb(204,204,204); opacity: 0.667;" />
<path d="M 438.885,1418.377 A 1064.250,1064.250 0.00 0,1 439.2,1414.1 L 439.2,1414.1 512.8,1419.0 582.0,1421.8 647.1,1422.5 708.4,1421.3 766.2,1418.5 820.7,1414.2 872.2,1408.4 920.8,1401.3 966.9,1393.1 1010.6,1383.7 1052.1,1373.4 1091.7,1362.0 1129.4,1349.8 1165.6,1336.7 1200.4,1322.7 1233.9,1307.8 1266.3,1292.0 1297.7,1275.4 1328.3,1257.8 1358.2,1239.1 1387.5,1219.4 1416.3,1198.6 1444.7,1176.4 1472.8,1152.9 1500.7,1127.9 1528.4,1101.2 1556.1,1072.6 1583.7,1042.1 1611.3,1009.4 1638.9,974.3 1666.6,936.6 1694.4,896.0 1722.3,852.4 1750.2,805.4 1778.2,754.8 1806.3,700.2 1834.3,641.5 1862.4,578.1 1890.3,509.9  A 1064.250,1064.250 0.00 0,0 1886.3,508.3 L 1886.3,508.3 1858.6,576.7 1830.8,640.1 1803.0,699.0 1775.2,753.7 1747.4,804.4 1719.6,851.5 1692.0,895.3 1664.4,935.9 1636.8,973.7 1609.3,1009.0 1581.8,1041.8 1554.4,1072.4 1526.8,1101.1 1499.2,1127.9 1471.4,1153.0 1443.4,1176.7 1415.1,1198.9 1386.4,1219.9 1357.1,1239.7 1327.3,1258.5 1296.8,1276.2 1265.5,1293.0 1233.1,1308.9 1199.7,1323.9 1165.0,1338.0 1128.8,1351.3 1091.1,1363.7 1051.6,1375.2 1010.1,1385.7 966.4,1395.2 920.4,1403.7 871.8,1410.9 820.4,1416.9 765.9,1421.5 708.1,1424.6 646.8,1426.0 581.7,1425.5 512.5,1423.0 438.9,1418.4  Z" style="stroke-width: 2.0;  stroke: rgb(82,82,82); fill: rgb(204,204,153); opacity: 0.667;" />
<path d="M 438.885,1418.377 A 1064.250,1064.250 0.00 0,1 439.2,1414.1 L 439.2,1414.1 512.8,1419.0 582.1,1421.7 647.5,1422.3 709.0,1421.1 767.2,1418.1 822.0,1413.7 874.0,1407.8 923.1,1400.7 969.8,1392.4 1014.1,1383.0 1056.4,1372.7 1096.7,1361.4 1135.4,1349.3 1172.5,1336.4 1208.3,1322.6 1242.9,1308.1 1276.5,1292.7 1309.2,1276.5 1341.2,1259.5 1372.5,1241.5 1403.3,1222.5 1433.8,1202.5 1464.0,1181.2 1494.0,1158.7 1524.0,1134.7 1553.9,1109.2 1583.8,1081.9 1613.9,1052.8 1644.2,1021.5 1674.6,987.9 1705.3,951.8 1736.3,913.0 1767.6,871.1 1799.1,826.0 1831.0,777.3 1863.1,724.8 1895.5,668.0 1928.2,606.8 1961.1,540.8  A 1064.250,1064.250 0.00 0,0 1957.2,538.9 L 1957.2,538.9 1924.6,605.1 1892.2,666.4 1860.0,723.3 1828.0,776.0 1796.4,824.8 1765.0,870.0 1733.9,912.0 1703.1,951.0 1672.5,987.2 1642.2,1020.9 1612.1,1052.3 1582.1,1081.6 1552.3,1109.0 1522.5,1134.6 1492.6,1158.7 1462.7,1181.4 1432.6,1202.7 1402.2,1222.9 1371.4,1242.0 1340.2,1260.1 1308.3,1277.3 1275.7,1293.6 1242.2,1309.1 1207.6,1323.8 1171.9,1337.7 1134.8,1350.8 1096.2,1363.1 1055.9,1374.5 1013.7,1385.0 969.3,1394.5 922.7,1403.0 873.6,1410.4 821.7,1416.4 766.8,1421.1 708.7,1424.3 647.1,1425.8 581.8,1425.4 512.5,1423.0 438.9,1418.4  Z" style="stroke-width: 2.0;  stroke: rgb(82,82,82); fill: rgb(251,106,74); opacity: 0.667;" />
<path d="M 438.885,1418.377 A 1064.250,1064.250 0.00 0,1 439.2,1414.1 L 439.2,1414.1 512.4,1420.7 580.4,1428.5 643.7,1437.1 702.3,1446.7 756.8,1457.1 807.2,1468.3 853.9,1480.2 897.1,1492.9 937.0,1506.2 973.9,1520.3 1007.8,1535.0 1039.0,1550.5 1067.7,1566.7 1094.0,1583.6 1118.1,1601.3 1140.0,1619.8 1159.9,1639.1 1177.9,1659.4 1194.0,1680.7 1208.4,1703.1 1221.0,1726.7 1232.0,1751.4 1241.3,1777.6 1249.1,1805.2 1255.1,1834.4 1259.6,1865.4 1262.4,1898.2 1263.4,1933.0 1262.7,1970.0 1260.2,2009.4 1255.8,2051.2 1249.3,2095.8 1240.8,2143.2 1229.9,2193.7 1216.8,2247.6 1201.0,2304.9 1182.6,2366.0 1161.3,2431.1 1137.0,2500.4  A 1064.250,1064.250 0.00 0,0 1141.1,2501.9 L 1141.1,2501.9 1165.1,2432.5 1186.1,2367.3 1204.3,2306.1 1219.8,2248.7 1232.8,2194.8 1243.4,2144.3 1251.7,2096.8 1258.0,2052.2 1262.3,2010.3 1264.7,1971.0 1265.2,1934.0 1264.0,1899.2 1261.1,1866.4 1256.5,1835.4 1250.3,1806.2 1242.5,1778.6 1233.0,1752.5 1221.9,1727.8 1209.2,1704.3 1194.7,1682.0 1178.5,1660.8 1160.4,1640.5 1140.5,1621.2 1118.5,1602.8 1094.4,1585.2 1068.0,1568.4 1039.2,1552.4 1008.0,1537.0 974.0,1522.4 937.1,1508.5 897.1,1495.3 853.9,1482.8 807.1,1471.1 756.6,1460.1 702.1,1449.9 643.4,1440.6 580.1,1432.2 512.1,1424.8 438.9,1418.4  Z" style="stroke-width: 2.0;  stroke: rgb(82,82,82); fill: rgb(116,196,118); opacity: 0.667;" />
<path d="M 438.885,1418.377 A 1064.250,1064.250 0.00 0,1 439.2,1414.1 L 439.2,1414.1 512.2,1420.0 579.6,1425.5 641.7,1430.7 698.9,1435.5 751.2,1440.0 799.1,1444.2 842.6,1448.0 882.0,1451.6 917.5,1454.8 949.2,1457.9 977.2,1460.6 1001.9,1463.2 1023.1,1465.5 1041.1,1467.6 1056.0,1469.5 1067.8,1471.2 1076.6,1472.7 1082.4,1474.0 1085.2,1475.2 1085.2,1476.2 1082.2,1477.0 1076.3,1477.6 1067.4,1478.1 1055.5,1478.4 1040.5,1478.5 1022.4,1478.5 1001.0,1478.3 976.2,1478.0 948.0,1477.4 916.2,1476.7 880.6,1475.9 841.0,1474.8 797.4,1473.5 749.4,1472.1 696.8,1470.4 639.5,1468.5 577.2,1466.3 509.6,1464.0 436.5,1461.3  A 1064.250,1064.250 0.00 0,0 436.3,1465.7 L 436.3,1465.7 509.5,1468.0 577.1,1470.1 639.4,1472.0 696.7,1473.6 749.3,1475.1 797.3,1476.4 840.9,1477.5 880.5,1478.4 916.1,1479.1 947.9,1479.7 976.1,1480.1 1000.9,1480.4 1022.3,1480.4 1040.4,1480.4 1055.4,1480.2 1067.3,1479.8 1076.2,1479.3 1082.1,1478.7 1085.1,1477.8 1085.1,1476.9 1082.3,1475.7 1076.5,1474.4 1067.7,1473.0 1055.9,1471.3 1041.0,1469.5 1023.0,1467.4 1001.7,1465.2 977.1,1462.8 949.0,1460.1 917.3,1457.2 881.8,1454.1 842.4,1450.7 798.9,1447.0 751.0,1443.0 698.6,1438.8 641.5,1434.2 579.3,1429.3 511.9,1424.0 438.9,1418.4  Z" style="stroke-width: 2.0;  stroke: rgb(82,82,82); fill: rgb(107,174,214); opacity: 0.667;" />
<path d="M 687.587,812.531 A 1064.250,1064.250 0.00 0,1 690.4,809.2 L 690.4,809.2 746.2,856.6 798.1,900.1 846.3,939.8 891.0,976.0 932.3,1008.9 970.4,1038.6 1005.4,1065.3 1037.6,1089.0 1067.1,1110.0 1094.0,1128.3 1118.3,1144.0 1140.3,1157.2 1160.1,1168.1 1177.6,1176.6 1193.1,1182.8 1206.5,1186.8 1218.0,1188.5 1227.5,1188.1 1235.2,1185.5 1241.1,1180.6 1245.1,1173.6 1247.3,1164.3 1247.8,1152.7 1246.4,1138.7 1243.2,1122.4 1238.2,1103.6 1231.2,1082.1 1222.4,1058.0 1211.5,1031.1 1198.6,1001.3 1183.6,968.4 1166.4,932.3 1146.8,892.8 1124.8,849.8 1100.3,803.1 1073.2,752.4 1043.2,697.6 1010.3,638.4 974.4,574.6  A 1064.250,1064.250 0.00 0,0 970.6,576.8 L 970.6,576.8 1006.9,640.4 1040.0,699.4 1070.1,754.1 1097.5,804.7 1122.2,851.3 1144.3,894.3 1164.1,933.7 1181.4,969.7 1196.6,1002.5 1209.6,1032.3 1220.6,1059.2 1229.5,1083.2 1236.6,1104.6 1241.7,1123.4 1244.9,1139.8 1246.4,1153.7 1246.0,1165.3 1243.8,1174.6 1239.8,1181.7 1233.9,1186.5 1226.3,1189.2 1216.7,1189.7 1205.2,1188.0 1191.8,1184.0 1176.3,1177.9 1158.7,1169.5 1138.9,1158.7 1116.9,1145.5 1092.5,1129.9 1065.5,1111.7 1036.0,1090.9 1003.7,1067.3 968.5,1040.8 930.3,1011.2 888.9,978.5 844.1,942.5 795.7,902.9 743.6,859.7 687.6,812.5  Z" style="stroke-width: 2.0;  stroke: rgb(82,82,82); fill: rgb(253,141,60); opacity: 0.667;" />
<path d="M 687.587,812.531 A 1064.250,1064.250 0.00 0,1 690.4,809.2 L 690.4,809.2 746.6,856.4 799.5,899.3 849.4,938.1 896.4,973.2 940.6,1004.7 982.3,1032.7 1021.6,1057.6 1058.6,1079.3 1093.5,1098.2 1126.5,1114.3 1157.6,1127.7 1186.9,1138.6 1214.7,1147.1 1241.0,1153.1 1265.9,1156.8 1289.6,1158.3 1312.1,1157.5 1333.5,1154.5 1353.9,1149.2 1373.4,1141.7 1392.1,1131.9 1410.1,1119.8 1427.3,1105.3 1443.9,1088.4 1459.9,1068.9 1475.3,1046.8 1490.3,1022.0 1504.8,994.2 1518.9,963.4 1532.6,929.4 1545.8,892.0 1558.7,851.0 1571.3,806.3 1583.4,757.5 1595.2,704.5 1606.6,647.0 1617.6,584.7 1628.2,517.4 1638.3,444.8  A 1064.250,1064.250 0.00 0,0 1634.0,444.2 L 1634.0,444.2 1624.2,516.9 1613.9,584.3 1603.1,646.6 1592.0,704.1 1580.4,757.2 1568.4,806.0 1556.1,850.8 1543.4,891.8 1530.2,929.3 1516.7,963.3 1502.8,994.2 1488.4,1022.0 1473.5,1046.9 1458.1,1069.1 1442.2,1088.6 1425.7,1105.6 1408.5,1120.2 1390.6,1132.3 1372.0,1142.2 1352.5,1149.8 1332.1,1155.1 1310.7,1158.3 1288.2,1159.1 1264.5,1157.8 1239.6,1154.2 1213.3,1148.2 1185.5,1139.9 1156.1,1129.1 1124.9,1115.8 1091.9,1099.9 1056.9,1081.1 1019.8,1059.5 980.4,1034.8 938.6,1006.9 894.2,975.7 847.1,940.8 797.1,902.1 744.0,859.5 687.6,812.5  Z" style="stroke-width: 2.0;  stroke: rgb(82,82,82); fill: rgb(255,0,0); opacity: 0.667;" />
<path d="M 687.587,812.531 A 1064.250,1064.250 0.00 0,1 690.4,809.2 L 690.4,809.2 746.7,856.4 799.8,899.2 850.0,938.0 897.5,972.9 942.4,1004.2 984.8,1032.2 1024.9,1056.9 1062.9,1078.5 1099.0,1097.3 1133.1,1113.3 1165.5,1126.8 1196.4,1137.7 1225.7,1146.2 1253.8,1152.3 1280.6,1156.2 1306.2,1157.9 1330.9,1157.4 1354.6,1154.8 1377.5,1150.0 1399.7,1143.0 1421.2,1133.8 1442.2,1122.4 1462.7,1108.6 1482.8,1092.5 1502.5,1074.0 1521.9,1052.9 1541.1,1029.1 1560.1,1002.5 1579.0,972.9 1597.8,940.2 1616.6,904.1 1635.3,864.6 1654.0,821.3 1672.8,774.1 1691.6,722.7 1710.4,666.9 1729.4,606.3 1748.4,540.8 1767.5,469.9  A 1064.250,1064.250 0.00 0,0 1763.3,468.8 L 1763.3,468.8 1744.5,539.8 1725.7,605.4 1707.0,666.1 1688.4,722.0 1669.8,773.4 1651.2,820.7 1632.7,864.0 1614.1,903.7 1595.5,939.8 1576.9,972.6 1558.1,1002.2 1539.2,1028.9 1520.1,1052.8 1500.8,1074.0 1481.1,1092.6 1461.1,1108.8 1440.7,1122.6 1419.8,1134.1 1398.3,1143.4 1376.1,1150.5 1353.2,1155.4 1329.5,1158.1 1304.8,1158.7 1279.2,1157.1 1252.4,1153.3 1224.3,1147.3 1194.9,1138.9 1164.0,1128.1 1131.5,1114.8 1097.3,1098.9 1061.2,1080.3 1023.1,1058.8 982.9,1034.3 940.4,1006.5 895.4,975.4 847.8,940.6 797.4,902.0 744.0,859.4 687.6,812.5  Z" style="stroke-width: 2.0;  stroke: rgb(82,82,82); fill: rgb(255,0,204); opacity: 0.667;" />
<path d="M 687.587,812.531 A 1064.250,1064.250 0.00 0,1 690.4,809.2 L 690.4,809.2 746.7,856.4 800.1,899.1 850.7,937.8 898.6,972.7 944.1,1003.9 987.2,1031.8 1028.2,1056.4 1067.2,1078.1 1104.3,1096.9 1139.6,1113.0 1173.4,1126.5 1205.6,1137.6 1236.5,1146.3 1266.2,1152.8 1294.8,1157.0 1322.4,1159.2 1349.1,1159.2 1375.1,1157.2 1400.3,1153.1 1425.0,1146.9 1449.3,1138.7 1473.1,1128.3 1496.7,1115.7 1520.1,1100.8 1543.3,1083.6 1566.5,1064.0 1589.7,1041.8 1612.9,1016.8 1636.4,989.0 1660.0,958.2 1683.9,924.2 1708.2,886.8 1732.8,845.8 1757.8,801.0 1783.2,752.0 1809.2,698.7 1835.7,640.8 1862.7,578.0 1890.3,509.9  A 1064.250,1064.250 0.00 0,0 1886.3,508.3 L 1886.3,508.3 1859.0,576.5 1832.2,639.4 1805.9,697.5 1780.2,750.9 1754.9,799.9 1730.1,844.9 1705.7,886.0 1681.6,923.5 1657.8,957.6 1634.3,988.5 1611.0,1016.4 1587.8,1041.4 1564.7,1063.7 1541.6,1083.5 1518.4,1100.8 1495.1,1115.7 1471.6,1128.4 1447.8,1138.9 1423.6,1147.2 1398.9,1153.5 1373.7,1157.7 1347.7,1159.8 1321.0,1159.9 1293.4,1157.9 1264.8,1153.7 1235.1,1147.4 1204.1,1138.8 1171.8,1127.8 1138.0,1114.4 1102.6,1098.5 1065.5,1079.9 1026.4,1058.4 985.4,1033.9 942.1,1006.2 896.5,975.1 848.4,940.5 797.7,902.0 744.1,859.4 687.6,812.5  Z" style="stroke-width: 2.0;  stroke: rgb(82,82,82); fill: rgb(255,204,204); opacity: 0.667;" />
<path d="M 687.587,812.531 A 1064.250,1064.250 0.00 0,1 690.4,809.2 L 690.4,809.2 746.8,856.3 800.3,899.1 851.1,937.8 899.3,972.6 945.1,1003.8 988.7,1031.7 1030.2,1056.3 1069.7,1078.0 1107.4,1096.8 1143.5,1113.0 1178.0,1126.6 1211.1,1137.9 1242.9,1146.8 1273.6,1153.5 1303.2,1158.1 1331.9,1160.6 1359.8,1161.1 1387.0,1159.6 1413.7,1156.1 1439.8,1150.5 1465.6,1143.0 1491.2,1133.4 1516.5,1121.6 1541.7,1107.7 1567.0,1091.6 1592.3,1073.0 1617.8,1052.0 1643.5,1028.3 1669.5,1001.9 1696.0,972.5 1722.8,940.0 1750.2,904.2 1778.2,864.9 1806.8,821.8 1836.1,774.7 1866.1,723.3 1896.9,667.4 1928.6,606.7 1961.1,540.8  A 1064.250,1064.250 0.00 0,0 1957.2,538.9 L 1957.2,538.9 1924.9,605.0 1893.5,665.8 1862.9,721.9 1833.1,773.3 1804.0,820.6 1775.6,863.8 1747.8,903.2 1720.6,939.1 1693.8,971.7 1667.5,1001.2 1641.6,1027.7 1616.0,1051.5 1590.6,1072.6 1565.3,1091.3 1540.1,1107.6 1515.0,1121.6 1489.7,1133.4 1464.2,1143.1 1438.4,1150.8 1412.3,1156.4 1385.7,1160.1 1358.4,1161.7 1330.5,1161.3 1301.8,1158.9 1272.2,1154.5 1241.5,1147.9 1209.6,1139.1 1176.5,1128.0 1141.9,1114.5 1105.8,1098.4 1068.0,1079.7 1028.4,1058.2 986.8,1033.7 943.1,1006.1 897.2,975.0 848.8,940.4 797.8,901.9 744.2,859.4 687.6,812.5  Z" style="stroke-width: 2.0;  stroke: rgb(82,82,82); fill: rgb(255,153,0); opacity: 0.667;" />
<path d="M 687.587,812.531 A 1064.250,1064.250 0.00 0,1 690.4,809.2 L 690.4,809.2 745.8,857.9 796.7,905.1 843.2,950.9 885.8,995.3 924.7,1038.5 960.2,1080.5 992.7,1121.4 1022.3,1161.2 1049.3,1200.1 1073.9,1238.0 1096.4,1275.2 1116.8,1311.7 1135.4,1347.5 1152.4,1382.9 1167.8,1417.9 1181.8,1452.6 1194.5,1487.2 1205.9,1521.7 1216.2,1556.3 1225.4,1591.1 1233.5,1626.3 1240.6,1662.0 1246.6,1698.3 1251.6,1735.4 1255.5,1773.4 1258.2,1812.6 1259.7,1853.0 1260.0,1894.8 1258.8,1938.2 1256.2,1983.3 1251.9,2030.5 1245.8,2079.7 1237.7,2131.3 1227.5,2185.3 1215.0,2242.1 1200.0,2301.8 1182.1,2364.6 1161.2,2430.8 1137.0,2500.4  A 1064.250,1064.250 0.00 0,0 1141.1,2501.9 L 1141.1,2501.9 1165.0,2432.1 1185.6,2365.9 1203.2,2303.0 1218.0,2243.3 1230.3,2186.4 1240.3,2132.3 1248.1,2080.7 1254.0,2031.5 1258.1,1984.3 1260.6,1939.2 1261.6,1895.7 1261.2,1853.9 1259.5,1813.6 1256.6,1774.4 1252.6,1736.4 1247.5,1699.3 1241.3,1663.1 1234.1,1627.4 1225.8,1592.3 1216.4,1557.5 1206.0,1522.9 1194.4,1488.4 1181.6,1453.9 1167.4,1419.3 1151.9,1384.3 1134.8,1349.0 1116.0,1313.2 1095.5,1276.8 1072.9,1239.8 1048.1,1201.9 1020.9,1163.2 991.2,1123.5 958.5,1082.7 922.8,1040.9 883.7,997.8 841.0,953.5 794.2,907.9 743.2,860.9 687.6,812.5  Z" style="stroke-width: 2.0;  stroke: rgb(82,82,82); fill: rgb(255,204,0); opacity: 0.667;" />
<path d="M 687.587,812.531 A 1064.250,1064.250 0.00 0,1 690.4,809.2 L 690.4,809.2 745.9,857.1 796.7,902.1 843.2,944.3 885.5,983.9 923.8,1021.0 958.4,1055.8 989.4,1088.4 1017.0,1118.9 1041.4,1147.5 1062.7,1174.3 1081.0,1199.3 1096.5,1222.7 1109.2,1244.5 1119.1,1265.0 1126.5,1284.1 1131.3,1301.9 1133.6,1318.5 1133.4,1334.0 1130.6,1348.4 1125.4,1361.9 1117.6,1374.3 1107.3,1385.9 1094.4,1396.6 1078.8,1406.5 1060.5,1415.6 1039.3,1423.9 1015.2,1431.4 988.0,1438.2 957.6,1444.2 923.8,1449.5 886.5,1454.1 845.5,1457.9 800.6,1460.9 751.6,1463.2 698.2,1464.6 640.3,1465.2 577.5,1464.9 509.7,1463.6 436.5,1461.3  A 1064.250,1064.250 0.00 0,0 436.3,1465.7 L 436.3,1465.7 509.6,1467.6 577.4,1468.6 640.2,1468.7 698.1,1467.9 751.5,1466.2 800.5,1463.8 845.4,1460.6 886.3,1456.6 923.6,1451.9 957.4,1446.4 987.8,1440.3 1014.9,1433.4 1039.0,1425.7 1060.2,1417.3 1078.5,1408.2 1094.0,1398.3 1106.9,1387.5 1117.1,1375.9 1124.8,1363.4 1130.0,1349.9 1132.7,1335.5 1132.9,1320.0 1130.5,1303.4 1125.6,1285.6 1118.2,1266.5 1108.1,1246.1 1095.3,1224.3 1079.8,1201.0 1061.4,1176.0 1040.0,1149.4 1015.5,1120.9 987.7,1090.5 956.6,1058.0 921.9,1023.3 883.4,986.4 840.9,946.9 794.3,904.9 743.3,860.2 687.6,812.5  Z" style="stroke-width: 2.0;  stroke: rgb(82,82,82); fill: rgb(255,255,0); opacity: 0.667;" />
<path d="M 687.587,812.531 A 1064.250,1064.250 0.00 0,1 690.4,809.2 L 690.4,809.2 745.9,857.1 796.7,902.0 843.2,944.0 885.6,983.5 924.0,1020.4 958.7,1054.9 989.8,1087.2 1017.5,1117.4 1042.0,1145.6 1063.4,1171.9 1081.8,1196.4 1097.3,1219.3 1110.1,1240.6 1120.1,1260.4 1127.6,1278.8 1132.5,1295.9 1134.8,1311.7 1134.7,1326.4 1132.0,1339.9 1126.8,1352.3 1119.1,1363.8 1108.9,1374.2 1096.0,1383.7 1080.4,1392.3 1062.1,1400.0 1041.0,1406.9 1016.9,1412.9 989.7,1418.0 959.4,1422.3 925.7,1425.7 888.4,1428.3 847.5,1429.9 802.6,1430.7 753.7,1430.5 700.4,1429.4 642.6,1427.2 580.0,1424.0 512.3,1419.6 439.2,1414.1  A 1064.250,1064.250 0.00 0,0 438.9,1418.4 L 438.9,1418.4 512.0,1423.6 579.7,1427.7 642.3,1430.7 700.1,1432.6 753.4,1433.6 802.3,1433.5 847.2,1432.6 888.1,1430.8 925.4,1428.0 959.1,1424.5 989.4,1420.1 1016.6,1414.8 1040.6,1408.8 1061.7,1401.8 1080.0,1394.0 1095.5,1385.4 1108.3,1375.8 1118.6,1365.3 1126.2,1353.8 1131.3,1341.4 1133.9,1327.8 1134.1,1313.2 1131.6,1297.4 1126.7,1280.3 1119.2,1261.9 1109.0,1242.2 1096.2,1220.9 1080.5,1198.1 1062.0,1173.7 1040.5,1147.4 1015.9,1119.4 988.1,1089.3 956.9,1057.1 922.1,1022.7 883.5,986.0 841.0,946.7 794.3,904.8 743.3,860.1 687.6,812.5  Z" style="stroke-width: 2.0;  stroke: rgb(82,82,82); fill: rgb(204,255,0); opacity: 0.667;" />
<path d="M 2230.018,725.596 A 1064.250,1064.250 0.00 0,1 2232.7,728.1 L 2232.7,728.1 2181.5,780.9 2132.7,829.0 2086.1,872.8 2041.7,912.5 1999.1,948.3 1958.5,980.6 1919.5,1009.6 1882.2,1035.3 1846.3,1058.1 1811.7,1078.1 1778.4,1095.4 1746.2,1110.2 1715.0,1122.6 1684.7,1132.8 1655.2,1140.7 1626.3,1146.6 1597.9,1150.3 1570.0,1152.1 1542.4,1151.8 1515.0,1149.6 1487.7,1145.3 1460.5,1139.0 1433.1,1130.7 1405.5,1120.2 1377.7,1107.6 1349.4,1092.6 1320.7,1075.3 1291.3,1055.4 1261.3,1032.9 1230.5,1007.5 1198.8,979.2 1166.1,947.7 1132.4,912.8 1097.6,874.3 1061.5,832.0 1024.1,785.5 985.3,734.7 945.0,679.3 903.1,618.9  A 1064.250,1064.250 0.00 0,0 900.1,620.9 L 900.1,620.9 942.2,681.2 982.6,736.5 1021.6,787.2 1059.2,833.5 1095.4,875.7 1130.4,914.0 1164.2,948.8 1197.0,980.2 1228.8,1008.4 1259.7,1033.7 1289.8,1056.1 1319.2,1075.9 1348.0,1093.1 1376.3,1108.0 1404.3,1120.5 1431.8,1130.9 1459.2,1139.2 1486.5,1145.3 1513.8,1149.5 1541.2,1151.7 1568.8,1151.8 1596.7,1150.0 1625.0,1146.1 1653.9,1140.2 1683.4,1132.1 1713.7,1121.9 1744.9,1109.4 1777.0,1094.4 1810.3,1077.0 1844.8,1056.9 1880.6,1034.0 1917.8,1008.1 1956.7,979.1 1997.3,946.6 2039.6,910.6 2084.0,870.8 2130.4,826.8 2179.0,778.5 2230.0,725.6  Z" style="stroke-width: 2.0;  stroke: rgb(82,82,82); fill: rgb(0,255,0); opacity: 0.667;" />
<path d="M 1720.997,2541.052 A 1064.250,1064.250 0.00 0,1 1717.4,2541.8 L 1717.4,2541.8 1701.1,2469.4 1683.4,2400.9 1664.5,2336.1 1644.7,2274.6 1624.2,2216.3 1603.3,2160.8 1582.0,2107.8 1560.6,2057.1 1539.1,2008.6 1517.8,1961.9 1496.8,1916.8 1476.1,1873.1 1455.8,1830.5 1435.9,1789.0 1416.6,1748.2 1397.8,1708.0 1379.6,1668.2 1361.8,1628.7 1344.6,1589.2 1327.8,1549.6 1311.5,1509.7 1295.4,1469.4 1279.5,1428.7 1263.7,1387.2 1247.9,1344.9 1231.8,1301.8 1215.4,1257.6 1198.5,1212.3 1180.7,1165.8 1162.0,1118.0 1142.0,1068.8 1120.6,1018.2 1097.3,966.0 1072.0,912.3 1044.4,857.0 1014.0,800.0 980.6,741.4 943.7,681.0 903.1,618.9  A 1064.250,1064.250 0.00 0,0 900.1,620.9 L 900.1,620.9 940.9,682.9 978.0,743.2 1011.6,801.7 1042.2,858.6 1070.0,913.8 1095.5,967.4 1118.9,1019.5 1140.5,1070.0 1160.7,1119.1 1179.6,1166.9 1197.5,1213.3 1214.6,1258.6 1231.2,1302.7 1247.4,1345.8 1263.3,1388.0 1279.3,1429.4 1295.3,1470.1 1311.5,1510.3 1328.0,1550.1 1344.9,1589.7 1362.3,1629.1 1380.1,1668.6 1398.5,1708.3 1417.4,1748.5 1436.9,1789.2 1456.9,1830.7 1477.3,1873.1 1498.2,1916.8 1519.4,1961.8 1540.9,2008.5 1562.5,2056.9 1584.1,2107.5 1605.5,2160.4 1626.7,2215.9 1647.4,2274.1 1667.4,2335.5 1686.5,2400.3 1704.4,2468.7 1721.0,2541.1  Z" style="stroke-width: 2.0;  stroke: rgb(82,82,82); fill: rgb(53,128,0); opacity: 0.667;" />
<path d="M 1720.997,2541.052 A 1064.250,1064.250 0.00 0,1 1717.4,2541.8 L 1717.4,2541.8 1703.4,2469.3 1692.2,2400.4 1683.6,2335.0 1677.3,2272.9 1673.1,2213.7 1670.7,2157.4 1670.0,2103.6 1670.8,2052.2 1672.9,2003.0 1676.2,1955.8 1680.5,1910.3 1685.8,1866.5 1691.9,1824.0 1698.7,1782.8 1706.2,1742.6 1714.4,1703.3 1723.1,1664.7 1732.5,1626.7 1742.5,1589.1 1753.1,1551.7 1764.4,1514.5 1776.4,1477.2 1789.2,1439.8 1802.9,1402.1 1817.7,1363.9 1833.5,1325.3 1850.7,1286.0 1869.3,1245.9 1889.5,1204.9 1911.6,1163.0 1935.6,1120.0 1962.0,1075.9 1990.8,1030.5 2022.5,983.8 2057.1,935.8 2095.2,886.2 2136.9,835.1 2182.6,782.4 2232.7,728.1  A 1064.250,1064.250 0.00 0,0 2230.0,725.6 L 2230.0,725.6 2180.1,780.1 2134.6,832.9 2093.1,884.2 2055.2,933.9 2020.7,982.1 1989.2,1028.9 1960.5,1074.3 1934.3,1118.5 1910.4,1161.6 1888.5,1203.6 1868.4,1244.6 1850.0,1284.8 1832.9,1324.1 1817.2,1362.9 1802.6,1401.0 1789.0,1438.8 1776.3,1476.3 1764.4,1513.6 1753.3,1550.8 1742.8,1588.2 1732.9,1625.9 1723.7,1663.9 1715.1,1702.5 1707.0,1741.9 1699.7,1782.1 1693.0,1823.3 1687.0,1865.8 1682.0,1909.7 1677.8,1955.2 1674.7,2002.4 1672.7,2051.7 1672.1,2103.0 1673.0,2156.8 1675.5,2213.1 1679.9,2272.3 1686.4,2334.4 1695.3,2399.7 1706.7,2468.6 1721.0,2541.1  Z" style="stroke-width: 2.0;  stroke: rgb(82,82,82); fill: rgb(0,0,204); opacity: 0.667;" />
<path d="M 1606.328,2558.925 A 1064.250,1064.250 0.00 0,1 1602.7,2559.3 L 1602.7,2559.3 1594.4,2485.6 1584.2,2415.8 1572.6,2349.6 1559.7,2286.7 1545.7,2227.0 1530.8,2170.0 1515.4,2115.7 1499.4,2063.7 1483.1,2013.8 1466.7,1965.9 1450.2,1919.6 1433.8,1874.8 1417.5,1831.2 1401.4,1788.7 1385.5,1747.1 1370.0,1706.1 1354.7,1665.7 1339.8,1625.6 1325.1,1585.6 1310.7,1545.7 1296.5,1505.5 1282.4,1465.1 1268.3,1424.3 1254.2,1382.8 1239.8,1340.7 1225.1,1297.7 1209.8,1253.7 1193.9,1208.7 1177.1,1162.6 1159.1,1115.1 1139.8,1066.4 1118.9,1016.2 1096.2,964.5 1071.3,911.2 1043.9,856.2 1013.7,799.6 980.5,741.2 943.7,680.9 903.1,618.9  A 1064.250,1064.250 0.00 0,0 900.1,620.9 L 900.1,620.9 940.9,682.9 977.9,742.9 1011.4,801.2 1041.7,857.8 1069.3,912.6 1094.4,965.8 1117.3,1017.5 1138.3,1067.6 1157.8,1116.3 1175.9,1163.7 1192.9,1209.8 1209.0,1254.7 1224.4,1298.6 1239.3,1341.5 1253.8,1383.7 1268.1,1425.1 1282.3,1465.9 1296.5,1506.2 1310.9,1546.3 1325.4,1586.2 1340.2,1626.1 1355.3,1666.2 1370.7,1706.6 1386.4,1747.5 1402.3,1789.1 1418.6,1831.5 1435.0,1875.0 1451.6,1919.8 1468.3,1966.0 1484.9,2013.9 1501.3,2063.7 1517.5,2115.6 1533.1,2169.9 1548.2,2226.8 1562.4,2286.5 1575.5,2349.3 1587.4,2415.5 1597.7,2485.3 1606.3,2558.9  Z" style="stroke-width: 2.0;  stroke: rgb(82,82,82); fill: rgb(102,153,255); opacity: 0.667;" />
<path d="M 1606.328,2558.925 A 1064.250,1064.250 0.00 0,1 1602.7,2559.3 L 1602.7,2559.3 1596.7,2485.6 1593.1,2415.7 1591.7,2349.5 1592.3,2286.6 1594.6,2226.9 1598.4,2170.0 1603.6,2115.8 1609.9,2064.1 1617.2,2014.6 1625.3,1967.0 1634.3,1921.3 1643.8,1877.2 1653.9,1834.5 1664.5,1793.0 1675.5,1752.6 1686.9,1713.1 1698.7,1674.2 1710.9,1635.9 1723.4,1597.9 1736.4,1560.2 1749.8,1522.6 1763.8,1484.9 1778.4,1447.0 1793.8,1408.8 1810.0,1370.2 1827.1,1331.0 1845.4,1291.1 1865.0,1250.5 1886.1,1208.9 1908.9,1166.4 1933.6,1122.9 1960.5,1078.2 1989.8,1032.3 2021.8,985.1 2056.7,936.6 2094.9,886.7 2136.8,835.4 2182.6,782.5 2232.7,728.1  A 1064.250,1064.250 0.00 0,0 2230.0,725.6 L 2230.0,725.6 2180.1,780.2 2134.5,833.2 2092.8,884.7 2054.8,934.7 2020.0,983.4 1988.2,1030.6 1959.1,1076.6 1932.4,1121.4 1907.8,1165.0 1885.1,1207.6 1864.2,1249.2 1844.7,1289.9 1826.6,1329.9 1809.5,1369.1 1793.5,1407.8 1778.3,1446.1 1763.8,1484.0 1749.9,1521.8 1736.6,1559.4 1723.8,1597.2 1711.3,1635.2 1699.3,1673.5 1687.7,1712.4 1676.4,1752.0 1665.5,1792.5 1655.1,1834.0 1645.1,1876.7 1635.7,1920.9 1626.9,1966.6 1618.9,2014.1 1611.8,2063.7 1605.7,2115.5 1600.7,2169.7 1597.1,2226.6 1595.0,2286.3 1594.6,2349.2 1596.2,2415.4 1600.1,2485.2 1606.3,2558.9  Z" style="stroke-width: 2.0;  stroke: rgb(82,82,82); fill: rgb(153,204,255); opacity: 0.667;" />
<path d="M 1606.328,2558.925 A 1064.250,1064.250 0.00 0,1 1602.7,2559.3 L 1602.7,2559.3 1595.7,2486.4 1589.4,2419.1 1583.7,2357.0 1578.6,2299.8 1574.1,2247.5 1570.1,2199.6 1566.7,2156.0 1563.8,2116.5 1561.3,2080.9 1559.4,2049.1 1557.9,2020.8 1556.8,1996.0 1556.2,1974.6 1556.0,1956.3 1556.2,1941.2 1556.9,1929.1 1557.9,1920.0 1559.4,1913.8 1561.4,1910.6 1563.7,1910.2 1566.5,1912.8 1569.8,1918.2 1573.5,1926.6 1577.7,1937.9 1582.5,1952.3 1587.7,1969.8 1593.5,1990.4 1599.9,2014.4 1606.9,2041.8 1614.5,2072.8 1622.7,2107.5 1631.7,2146.1 1641.4,2188.7 1651.9,2235.6 1663.2,2287.0 1675.3,2343.0 1688.4,2404.0 1702.4,2470.2 1717.4,2541.8  A 1064.250,1064.250 0.00 0,0 1721.0,2541.1 L 1721.0,2541.1 1705.7,2469.5 1691.5,2403.3 1678.2,2342.4 1665.9,2286.4 1654.4,2235.1 1643.8,2188.2 1633.9,2145.6 1624.8,2107.1 1616.4,2072.4 1608.7,2041.5 1601.6,2014.1 1595.2,1990.1 1589.3,1969.5 1584.0,1952.0 1579.2,1937.6 1575.0,1926.3 1571.2,1917.9 1567.9,1912.5 1565.1,1910.0 1562.8,1910.4 1560.8,1913.6 1559.4,1919.8 1558.3,1928.9 1557.7,1941.0 1557.5,1956.1 1557.8,1974.4 1558.5,1995.8 1559.6,2020.6 1561.2,2048.9 1563.3,2080.7 1565.9,2116.3 1568.9,2155.8 1572.5,2199.3 1576.6,2247.2 1581.3,2299.6 1586.6,2356.7 1592.5,2418.8 1599.1,2486.1 1606.3,2558.9  Z" style="stroke-width: 2.0;  stroke: rgb(82,82,82); fill: rgb(0,255,255); opacity: 0.667;" />
<path d="M 1920.662,522.416 A 1064.250,1064.250 0.00 0,1 1923.5,523.6 L 1923.5,523.6 1894.1,590.7 1866.6,652.6 1840.7,709.4 1816.4,761.6 1793.6,809.2 1772.3,852.6 1752.3,892.0 1733.7,927.4 1716.2,959.2 1699.8,987.4 1684.5,1012.2 1670.3,1033.7 1657.0,1052.1 1644.6,1067.4 1633.0,1079.8 1622.3,1089.2 1612.3,1095.8 1603.0,1099.6 1594.4,1100.5 1586.5,1098.8 1579.1,1094.2 1572.4,1086.8 1566.2,1076.5 1560.6,1063.4 1555.4,1047.3 1550.8,1028.1 1546.7,1005.8 1543.1,980.2 1540.0,951.3 1537.4,918.8 1535.2,882.6 1533.6,842.5 1532.5,798.4 1531.8,750.1 1531.8,697.3 1532.3,639.8 1533.4,577.3 1535.1,509.6 1537.4,436.4  A 1064.250,1064.250 0.00 0,0 1534.4,436.3 L 1534.4,436.3 1532.2,509.5 1530.7,577.2 1529.8,639.7 1529.5,697.2 1529.7,750.0 1530.4,798.4 1531.7,842.4 1533.4,882.5 1535.7,918.7 1538.4,951.1 1541.6,980.1 1545.3,1005.7 1549.5,1028.0 1554.1,1047.1 1559.3,1063.2 1565.0,1076.3 1571.2,1086.6 1578.0,1093.9 1585.3,1098.5 1593.3,1100.3 1601.9,1099.3 1611.1,1095.5 1621.1,1088.8 1631.8,1079.4 1643.3,1067.0 1655.7,1051.6 1668.9,1033.2 1683.1,1011.6 1698.3,986.8 1714.6,958.5 1732.0,926.7 1750.6,891.2 1770.4,851.9 1791.7,808.4 1814.3,760.7 1838.4,708.5 1864.1,651.5 1891.5,589.6 1920.7,522.4  Z" style="stroke-width: 2.0;  stroke: rgb(82,82,82); fill: rgb(204,255,255); opacity: 0.667;" />
<path d="M 1516.526,435.878 A 1064.250,1064.250 0.00 0,1 1521.0,436.0 L 1521.0,436.0 1519.8,509.2 1519.2,576.9 1519.2,639.4 1519.7,697.0 1520.8,749.8 1522.3,798.2 1524.3,842.3 1526.8,882.4 1529.8,918.7 1533.3,951.2 1537.2,980.2 1541.5,1005.9 1546.4,1028.3 1551.7,1047.5 1557.6,1063.7 1563.9,1077.0 1570.8,1087.4 1578.2,1094.9 1586.2,1099.6 1594.8,1101.6 1604.1,1100.8 1614.1,1097.2 1624.7,1090.8 1636.2,1081.6 1648.4,1069.4 1661.5,1054.4 1675.6,1036.3 1690.6,1015.0 1706.6,990.5 1723.8,962.6 1742.1,931.2 1761.6,896.1 1782.5,857.2 1804.7,814.2 1828.4,766.9 1853.7,715.2 1880.7,658.8 1909.3,597.5 1939.8,530.9  A 1064.250,1064.250 0.00 0,0 1935.7,529.0 L 1935.7,529.0 1905.5,595.7 1877.1,657.2 1850.4,713.7 1825.3,765.5 1801.8,812.9 1779.7,856.0 1759.1,895.0 1739.7,930.2 1721.5,961.7 1704.5,989.6 1688.5,1014.2 1673.6,1035.5 1659.6,1053.7 1646.6,1068.8 1634.4,1081.0 1623.0,1090.3 1612.3,1096.7 1602.4,1100.3 1593.1,1101.2 1584.5,1099.3 1576.5,1094.6 1569.0,1087.1 1562.1,1076.7 1555.7,1063.5 1549.8,1047.3 1544.4,1028.1 1539.4,1005.7 1535.0,980.1 1530.9,951.1 1527.3,918.5 1524.2,882.3 1521.5,842.2 1519.3,798.1 1517.6,749.7 1516.3,696.9 1515.6,639.3 1515.3,576.8 1515.6,509.1 1516.5,435.9  Z" style="stroke-width: 2.0;  stroke: rgb(82,82,82); fill: rgb(153,0,204); opacity: 0.667;" />
<path d="M 1340.669,447.744 A 1064.250,1064.250 0.00 0,1 1354.1,445.8 L 1354.1,445.8 1364.1,518.3 1373.3,585.3 1381.6,647.1 1389.2,704.0 1396.1,756.1 1402.3,803.7 1407.9,847.0 1412.8,886.3 1417.1,921.7 1420.8,953.3 1424.0,981.3 1426.6,1006.0 1428.7,1027.3 1430.3,1045.4 1431.4,1060.3 1432.0,1072.3 1432.1,1081.2 1431.8,1087.2 1430.9,1090.3 1429.6,1090.6 1427.7,1087.9 1425.4,1082.4 1422.5,1073.9 1419.1,1062.4 1415.2,1047.9 1410.7,1030.3 1405.7,1009.5 1400.0,985.4 1393.7,957.9 1386.7,926.8 1379.1,892.0 1370.7,853.4 1361.6,810.6 1351.7,763.6 1340.9,712.2 1329.3,656.0 1316.7,595.0 1303.2,528.7 1288.6,457.0  A 1064.250,1064.250 0.00 0,0 1273.7,460.1 L 1273.7,460.1 1289.3,531.6 1303.8,597.7 1317.3,658.6 1329.7,714.5 1341.2,765.8 1351.8,812.7 1361.6,855.3 1370.5,893.8 1378.6,928.5 1386.1,959.5 1392.8,986.9 1398.8,1010.9 1404.2,1031.6 1408.9,1049.2 1413.1,1063.6 1416.6,1075.0 1419.6,1083.4 1422.1,1089.0 1424.0,1091.6 1425.4,1091.3 1426.2,1088.2 1426.6,1082.2 1426.4,1073.2 1425.6,1061.3 1424.4,1046.3 1422.6,1028.2 1420.2,1007.0 1417.3,982.4 1413.8,954.4 1409.6,922.8 1404.9,887.5 1399.5,848.3 1393.4,805.0 1386.6,757.5 1379.1,705.4 1370.7,648.7 1361.6,587.0 1351.6,520.1 1340.7,447.7  Z" style="stroke-width: 2.0;  stroke: rgb(82,82,82); fill: rgb(204,51,255); opacity: 0.667;" />
<path d="M 1211.946,475.474 A 1064.250,1064.250 0.00 0,1 1216.5,474.2 L 1216.5,474.2 1236.0,544.8 1254.0,610.0 1270.6,670.1 1285.9,725.3 1299.8,776.0 1312.6,822.3 1324.2,864.4 1334.7,902.5 1344.1,936.9 1352.5,967.6 1360.0,994.8 1366.5,1018.6 1372.1,1039.2 1376.9,1056.7 1380.8,1071.2 1383.9,1082.6 1386.1,1091.2 1387.6,1096.9 1388.3,1099.7 1388.1,1099.8 1387.2,1097.0 1385.5,1091.3 1383.0,1082.9 1379.7,1071.5 1375.6,1057.1 1370.6,1039.7 1364.7,1019.1 1357.9,995.4 1350.2,968.2 1341.5,937.6 1331.8,903.3 1321.0,865.3 1309.1,823.3 1296.0,777.1 1281.7,726.5 1266.1,671.3 1249.1,611.3 1230.7,546.2 1210.9,475.8  A 1064.250,1064.250 0.00 0,0 1206.3,477.1 L 1206.3,477.1 1226.5,547.4 1245.2,612.4 1262.4,672.4 1278.2,727.5 1292.8,778.0 1306.1,824.1 1318.2,866.1 1329.1,904.1 1339.0,938.3 1347.8,968.9 1355.7,996.0 1362.6,1019.7 1368.5,1040.3 1373.6,1057.6 1377.8,1072.0 1381.2,1083.4 1383.7,1091.9 1385.4,1097.5 1386.4,1100.3 1386.5,1100.2 1385.8,1097.4 1384.3,1091.7 1382.0,1083.1 1378.9,1071.7 1374.9,1057.3 1370.1,1039.8 1364.4,1019.2 1357.7,995.4 1350.2,968.2 1341.6,937.6 1332.0,903.3 1321.4,865.2 1309.6,823.1 1296.6,776.9 1282.4,726.3 1266.9,671.1 1250.1,611.1 1231.8,545.9 1211.9,475.5  Z" style="stroke-width: 2.0;  stroke: rgb(82,82,82); fill: rgb(204,153,255); opacity: 0.667;" />
</g>
<defs>
<pattern id="hline-sparse" width="10" height="10" patternTransform="rotate(0 0 0)" patternUnits="userSpaceOnUse"><line x1="0" y1="0" x2="10" y2="0" style="stroke:black;stroke-width:2" /></pattern>
<pattern id="checker" width="10" height="10" patternTransform="rotate(45 0 0)" patternUnits="userSpaceOnUse"><line x1="0" y1="0" x2="10" y2="0" style="stroke:black;stroke-width:2" /><line x1="0" y1="0" x2="0" y2="10" style="stroke:black;stroke-width:2" /></pattern>
<pattern id="checker" width="10" height="10" patternTransform="rotate(45 0 0)" patternUnits="userSpaceOnUse"><line x1="0" y1="0" x2="10" y2="0" style="stroke:black;stroke-width:5" /><line x1="0" y1="0" x2="0" y2="10" style="stroke:black;stroke-width:4" /></pattern>
<pattern id="hline" width="10" height="10" patternTransform="rotate(0 0 0)" patternUnits="userSpaceOnUse"><line x1="0" y1="0" x2="10" y2="0" style="stroke:black;stroke-width:5" /></pattern>
<pattern id="vline-sparse" width="10" height="10" patternTransform="rotate(0 0 0)" patternUnits="userSpaceOnUse"><line x1="0" y1="0" x2="0" y2="10" style="stroke:black;stroke-width:2" /></pattern>
<pattern id="vline" width="10" height="10" patternTransform="rotate(0 0 0)" patternUnits="userSpaceOnUse"><line x1="0" y1="0" x2="0" y2="10" style="stroke:black;stroke-width:5" /></pattern>
</defs>
</svg>
